G04 #@! TF.GenerationSoftware,KiCad,Pcbnew,5.1.5-52549c5~86~ubuntu18.04.1*
G04 #@! TF.CreationDate,2020-09-04T14:55:25-05:00*
G04 #@! TF.ProjectId,B00,4230302e-6b69-4636-9164-5f7063625858,rev?*
G04 #@! TF.SameCoordinates,Original*
G04 #@! TF.FileFunction,Copper,L1,Top*
G04 #@! TF.FilePolarity,Positive*
%FSLAX46Y46*%
G04 Gerber Fmt 4.6, Leading zero omitted, Abs format (unit mm)*
G04 Created by KiCad (PCBNEW 5.1.5-52549c5~86~ubuntu18.04.1) date 2020-09-04 14:55:25*
%MOMM*%
%LPD*%
G04 APERTURE LIST*
%ADD10C,0.250000*%
%ADD11C,2.400000*%
%ADD12R,2.400000X2.400000*%
%ADD13C,2.499360*%
%ADD14C,0.750000*%
%ADD15C,0.254000*%
G04 APERTURE END LIST*
D10*
X21229628Y-31396323D02*
X21182009Y-31539180D01*
X21134390Y-31586800D01*
X21039152Y-31634419D01*
X20896295Y-31634419D01*
X20801057Y-31586800D01*
X20753438Y-31539180D01*
X20705819Y-31443942D01*
X20705819Y-31062990D01*
X21705819Y-31062990D01*
X21705819Y-31396323D01*
X21658200Y-31491561D01*
X21610580Y-31539180D01*
X21515342Y-31586800D01*
X21420104Y-31586800D01*
X21324866Y-31539180D01*
X21277247Y-31491561D01*
X21229628Y-31396323D01*
X21229628Y-31062990D01*
X21705819Y-32253466D02*
X21705819Y-32348704D01*
X21658200Y-32443942D01*
X21610580Y-32491561D01*
X21515342Y-32539180D01*
X21324866Y-32586800D01*
X21086771Y-32586800D01*
X20896295Y-32539180D01*
X20801057Y-32491561D01*
X20753438Y-32443942D01*
X20705819Y-32348704D01*
X20705819Y-32253466D01*
X20753438Y-32158228D01*
X20801057Y-32110609D01*
X20896295Y-32062990D01*
X21086771Y-32015371D01*
X21324866Y-32015371D01*
X21515342Y-32062990D01*
X21610580Y-32110609D01*
X21658200Y-32158228D01*
X21705819Y-32253466D01*
X21705819Y-33205847D02*
X21705819Y-33301085D01*
X21658200Y-33396323D01*
X21610580Y-33443942D01*
X21515342Y-33491561D01*
X21324866Y-33539180D01*
X21086771Y-33539180D01*
X20896295Y-33491561D01*
X20801057Y-33443942D01*
X20753438Y-33396323D01*
X20705819Y-33301085D01*
X20705819Y-33205847D01*
X20753438Y-33110609D01*
X20801057Y-33062990D01*
X20896295Y-33015371D01*
X21086771Y-32967752D01*
X21324866Y-32967752D01*
X21515342Y-33015371D01*
X21610580Y-33062990D01*
X21658200Y-33110609D01*
X21705819Y-33205847D01*
X20610580Y-33729657D02*
X20610580Y-34491561D01*
X20753438Y-34682038D02*
X20705819Y-34824895D01*
X20705819Y-35062990D01*
X20753438Y-35158228D01*
X20801057Y-35205847D01*
X20896295Y-35253466D01*
X20991533Y-35253466D01*
X21086771Y-35205847D01*
X21134390Y-35158228D01*
X21182009Y-35062990D01*
X21229628Y-34872514D01*
X21277247Y-34777276D01*
X21324866Y-34729657D01*
X21420104Y-34682038D01*
X21515342Y-34682038D01*
X21610580Y-34729657D01*
X21658200Y-34777276D01*
X21705819Y-34872514D01*
X21705819Y-35110609D01*
X21658200Y-35253466D01*
X21610580Y-35634419D02*
X21658200Y-35682038D01*
X21705819Y-35777276D01*
X21705819Y-36015371D01*
X21658200Y-36110609D01*
X21610580Y-36158228D01*
X21515342Y-36205847D01*
X21420104Y-36205847D01*
X21277247Y-36158228D01*
X20705819Y-35586800D01*
X20705819Y-36205847D01*
X20753438Y-36586800D02*
X20705819Y-36729657D01*
X20705819Y-36967752D01*
X20753438Y-37062990D01*
X20801057Y-37110609D01*
X20896295Y-37158228D01*
X20991533Y-37158228D01*
X21086771Y-37110609D01*
X21134390Y-37062990D01*
X21182009Y-36967752D01*
X21229628Y-36777276D01*
X21277247Y-36682038D01*
X21324866Y-36634419D01*
X21420104Y-36586800D01*
X21515342Y-36586800D01*
X21610580Y-36634419D01*
X21658200Y-36682038D01*
X21705819Y-36777276D01*
X21705819Y-37015371D01*
X21658200Y-37158228D01*
D11*
X30640000Y-33624600D03*
D12*
X27140000Y-33624600D03*
D11*
X27140000Y-24155400D03*
D12*
X30640000Y-24155400D03*
D13*
X21818600Y-28890000D03*
X35961400Y-28890000D03*
D14*
X27140000Y-33624600D02*
X27140000Y-24155400D01*
X30640000Y-24155400D02*
X30640000Y-33624600D01*
D15*
G36*
X36984115Y-20726015D02*
G01*
X37076961Y-27534677D01*
X36969296Y-27286685D01*
X36637138Y-27120861D01*
X36279013Y-27023025D01*
X35908681Y-26996935D01*
X35540375Y-27043595D01*
X35188249Y-27161211D01*
X34953504Y-27286685D01*
X34827629Y-27576623D01*
X35961400Y-28710395D01*
X35975542Y-28696252D01*
X36155148Y-28875858D01*
X36141005Y-28890000D01*
X36155148Y-28904142D01*
X35975542Y-29083748D01*
X35961400Y-29069605D01*
X34827629Y-30203377D01*
X34953504Y-30493315D01*
X35285662Y-30659139D01*
X35643787Y-30756975D01*
X36014119Y-30783065D01*
X36382425Y-30736405D01*
X36734551Y-30618789D01*
X36969296Y-30493315D01*
X37095170Y-30203378D01*
X37113603Y-30221811D01*
X37120001Y-30690971D01*
X37120001Y-37120000D01*
X22575700Y-37120000D01*
X22575700Y-35713010D01*
X22798698Y-35862012D01*
X23187244Y-36022953D01*
X23599721Y-36105000D01*
X24020279Y-36105000D01*
X24432756Y-36022953D01*
X24821302Y-35862012D01*
X25170983Y-35628363D01*
X25468363Y-35330983D01*
X25499426Y-35284493D01*
X25585506Y-35355137D01*
X25695820Y-35414102D01*
X25815518Y-35450412D01*
X25940000Y-35462672D01*
X28340000Y-35462672D01*
X28464482Y-35450412D01*
X28584180Y-35414102D01*
X28694494Y-35355137D01*
X28791185Y-35275785D01*
X28870537Y-35179094D01*
X28929502Y-35068780D01*
X28965812Y-34949082D01*
X28978072Y-34824600D01*
X28978072Y-34407438D01*
X29013844Y-34493799D01*
X29214662Y-34794344D01*
X29470256Y-35049938D01*
X29770801Y-35250756D01*
X30104750Y-35389082D01*
X30459268Y-35459600D01*
X30820732Y-35459600D01*
X31175250Y-35389082D01*
X31509199Y-35250756D01*
X31809744Y-35049938D01*
X32019524Y-34840158D01*
X32077988Y-34981302D01*
X32311637Y-35330983D01*
X32609017Y-35628363D01*
X32958698Y-35862012D01*
X33347244Y-36022953D01*
X33759721Y-36105000D01*
X34180279Y-36105000D01*
X34592756Y-36022953D01*
X34981302Y-35862012D01*
X35330983Y-35628363D01*
X35628363Y-35330983D01*
X35862012Y-34981302D01*
X36022953Y-34592756D01*
X36105000Y-34180279D01*
X36105000Y-33759721D01*
X36022953Y-33347244D01*
X35862012Y-32958698D01*
X35628363Y-32609017D01*
X35330983Y-32311637D01*
X34981302Y-32077988D01*
X34592756Y-31917047D01*
X34180279Y-31835000D01*
X33759721Y-31835000D01*
X33347244Y-31917047D01*
X32958698Y-32077988D01*
X32609017Y-32311637D01*
X32311637Y-32609017D01*
X32239991Y-32716243D01*
X32065338Y-32454856D01*
X31809744Y-32199262D01*
X31650000Y-32092524D01*
X31650000Y-28942719D01*
X34068335Y-28942719D01*
X34114995Y-29311025D01*
X34232611Y-29663151D01*
X34358085Y-29897896D01*
X34648023Y-30023771D01*
X35781795Y-28890000D01*
X34648023Y-27756229D01*
X34358085Y-27882104D01*
X34192261Y-28214262D01*
X34094425Y-28572387D01*
X34068335Y-28942719D01*
X31650000Y-28942719D01*
X31650000Y-25993472D01*
X31840000Y-25993472D01*
X31964482Y-25981212D01*
X32084180Y-25944902D01*
X32194494Y-25885937D01*
X32291185Y-25806585D01*
X32370537Y-25709894D01*
X32429502Y-25599580D01*
X32465812Y-25479882D01*
X32478072Y-25355400D01*
X32478072Y-25337418D01*
X32609017Y-25468363D01*
X32958698Y-25702012D01*
X33347244Y-25862953D01*
X33759721Y-25945000D01*
X34180279Y-25945000D01*
X34592756Y-25862953D01*
X34981302Y-25702012D01*
X35330983Y-25468363D01*
X35628363Y-25170983D01*
X35862012Y-24821302D01*
X36022953Y-24432756D01*
X36105000Y-24020279D01*
X36105000Y-23599721D01*
X36022953Y-23187244D01*
X35862012Y-22798698D01*
X35628363Y-22449017D01*
X35330983Y-22151637D01*
X34981302Y-21917988D01*
X34592756Y-21757047D01*
X34180279Y-21675000D01*
X33759721Y-21675000D01*
X33347244Y-21757047D01*
X32958698Y-21917988D01*
X32609017Y-22151637D01*
X32311637Y-22449017D01*
X32280574Y-22495507D01*
X32194494Y-22424863D01*
X32084180Y-22365898D01*
X31964482Y-22329588D01*
X31840000Y-22317328D01*
X29440000Y-22317328D01*
X29315518Y-22329588D01*
X29195820Y-22365898D01*
X29085506Y-22424863D01*
X28988815Y-22504215D01*
X28909463Y-22600906D01*
X28850498Y-22711220D01*
X28814188Y-22830918D01*
X28801928Y-22955400D01*
X28801928Y-23372562D01*
X28766156Y-23286201D01*
X28565338Y-22985656D01*
X28309744Y-22730062D01*
X28009199Y-22529244D01*
X27675250Y-22390918D01*
X27320732Y-22320400D01*
X26959268Y-22320400D01*
X26604750Y-22390918D01*
X26270801Y-22529244D01*
X25970256Y-22730062D01*
X25760476Y-22939842D01*
X25702012Y-22798698D01*
X25468363Y-22449017D01*
X25170983Y-22151637D01*
X24821302Y-21917988D01*
X24432756Y-21757047D01*
X24020279Y-21675000D01*
X23599721Y-21675000D01*
X23187244Y-21757047D01*
X22798698Y-21917988D01*
X22449017Y-22151637D01*
X22151637Y-22449017D01*
X21917988Y-22798698D01*
X21757047Y-23187244D01*
X21675000Y-23599721D01*
X21675000Y-24020279D01*
X21757047Y-24432756D01*
X21917988Y-24821302D01*
X22151637Y-25170983D01*
X22449017Y-25468363D01*
X22798698Y-25702012D01*
X23187244Y-25862953D01*
X23599721Y-25945000D01*
X24020279Y-25945000D01*
X24432756Y-25862953D01*
X24821302Y-25702012D01*
X25170983Y-25468363D01*
X25468363Y-25170983D01*
X25540009Y-25063757D01*
X25714662Y-25325144D01*
X25970256Y-25580738D01*
X26130001Y-25687476D01*
X26130000Y-31786528D01*
X25940000Y-31786528D01*
X25815518Y-31798788D01*
X25695820Y-31835098D01*
X25585506Y-31894063D01*
X25488815Y-31973415D01*
X25409463Y-32070106D01*
X25350498Y-32180420D01*
X25314188Y-32300118D01*
X25301928Y-32424600D01*
X25301928Y-32442582D01*
X25170983Y-32311637D01*
X24821302Y-32077988D01*
X24432756Y-31917047D01*
X24020279Y-31835000D01*
X23599721Y-31835000D01*
X23187244Y-31917047D01*
X22798698Y-32077988D01*
X22575700Y-32226990D01*
X22575700Y-30624150D01*
X22591751Y-30618789D01*
X22826496Y-30493315D01*
X22952371Y-30203377D01*
X21818600Y-29069605D01*
X21804458Y-29083748D01*
X21624852Y-28904142D01*
X21638995Y-28890000D01*
X21998205Y-28890000D01*
X23131977Y-30023771D01*
X23421915Y-29897896D01*
X23587739Y-29565738D01*
X23685575Y-29207613D01*
X23711665Y-28837281D01*
X23665005Y-28468975D01*
X23547389Y-28116849D01*
X23421915Y-27882104D01*
X23131977Y-27756229D01*
X21998205Y-28890000D01*
X21638995Y-28890000D01*
X21624852Y-28875858D01*
X21804458Y-28696252D01*
X21818600Y-28710395D01*
X22952371Y-27576623D01*
X22826496Y-27286685D01*
X22494338Y-27120861D01*
X22136213Y-27023025D01*
X21765881Y-26996935D01*
X21397575Y-27043595D01*
X21045449Y-27161211D01*
X20810704Y-27286685D01*
X20705310Y-27529448D01*
X20726015Y-20675990D01*
X36984115Y-20726015D01*
G37*
X36984115Y-20726015D02*
X37076961Y-27534677D01*
X36969296Y-27286685D01*
X36637138Y-27120861D01*
X36279013Y-27023025D01*
X35908681Y-26996935D01*
X35540375Y-27043595D01*
X35188249Y-27161211D01*
X34953504Y-27286685D01*
X34827629Y-27576623D01*
X35961400Y-28710395D01*
X35975542Y-28696252D01*
X36155148Y-28875858D01*
X36141005Y-28890000D01*
X36155148Y-28904142D01*
X35975542Y-29083748D01*
X35961400Y-29069605D01*
X34827629Y-30203377D01*
X34953504Y-30493315D01*
X35285662Y-30659139D01*
X35643787Y-30756975D01*
X36014119Y-30783065D01*
X36382425Y-30736405D01*
X36734551Y-30618789D01*
X36969296Y-30493315D01*
X37095170Y-30203378D01*
X37113603Y-30221811D01*
X37120001Y-30690971D01*
X37120001Y-37120000D01*
X22575700Y-37120000D01*
X22575700Y-35713010D01*
X22798698Y-35862012D01*
X23187244Y-36022953D01*
X23599721Y-36105000D01*
X24020279Y-36105000D01*
X24432756Y-36022953D01*
X24821302Y-35862012D01*
X25170983Y-35628363D01*
X25468363Y-35330983D01*
X25499426Y-35284493D01*
X25585506Y-35355137D01*
X25695820Y-35414102D01*
X25815518Y-35450412D01*
X25940000Y-35462672D01*
X28340000Y-35462672D01*
X28464482Y-35450412D01*
X28584180Y-35414102D01*
X28694494Y-35355137D01*
X28791185Y-35275785D01*
X28870537Y-35179094D01*
X28929502Y-35068780D01*
X28965812Y-34949082D01*
X28978072Y-34824600D01*
X28978072Y-34407438D01*
X29013844Y-34493799D01*
X29214662Y-34794344D01*
X29470256Y-35049938D01*
X29770801Y-35250756D01*
X30104750Y-35389082D01*
X30459268Y-35459600D01*
X30820732Y-35459600D01*
X31175250Y-35389082D01*
X31509199Y-35250756D01*
X31809744Y-35049938D01*
X32019524Y-34840158D01*
X32077988Y-34981302D01*
X32311637Y-35330983D01*
X32609017Y-35628363D01*
X32958698Y-35862012D01*
X33347244Y-36022953D01*
X33759721Y-36105000D01*
X34180279Y-36105000D01*
X34592756Y-36022953D01*
X34981302Y-35862012D01*
X35330983Y-35628363D01*
X35628363Y-35330983D01*
X35862012Y-34981302D01*
X36022953Y-34592756D01*
X36105000Y-34180279D01*
X36105000Y-33759721D01*
X36022953Y-33347244D01*
X35862012Y-32958698D01*
X35628363Y-32609017D01*
X35330983Y-32311637D01*
X34981302Y-32077988D01*
X34592756Y-31917047D01*
X34180279Y-31835000D01*
X33759721Y-31835000D01*
X33347244Y-31917047D01*
X32958698Y-32077988D01*
X32609017Y-32311637D01*
X32311637Y-32609017D01*
X32239991Y-32716243D01*
X32065338Y-32454856D01*
X31809744Y-32199262D01*
X31650000Y-32092524D01*
X31650000Y-28942719D01*
X34068335Y-28942719D01*
X34114995Y-29311025D01*
X34232611Y-29663151D01*
X34358085Y-29897896D01*
X34648023Y-30023771D01*
X35781795Y-28890000D01*
X34648023Y-27756229D01*
X34358085Y-27882104D01*
X34192261Y-28214262D01*
X34094425Y-28572387D01*
X34068335Y-28942719D01*
X31650000Y-28942719D01*
X31650000Y-25993472D01*
X31840000Y-25993472D01*
X31964482Y-25981212D01*
X32084180Y-25944902D01*
X32194494Y-25885937D01*
X32291185Y-25806585D01*
X32370537Y-25709894D01*
X32429502Y-25599580D01*
X32465812Y-25479882D01*
X32478072Y-25355400D01*
X32478072Y-25337418D01*
X32609017Y-25468363D01*
X32958698Y-25702012D01*
X33347244Y-25862953D01*
X33759721Y-25945000D01*
X34180279Y-25945000D01*
X34592756Y-25862953D01*
X34981302Y-25702012D01*
X35330983Y-25468363D01*
X35628363Y-25170983D01*
X35862012Y-24821302D01*
X36022953Y-24432756D01*
X36105000Y-24020279D01*
X36105000Y-23599721D01*
X36022953Y-23187244D01*
X35862012Y-22798698D01*
X35628363Y-22449017D01*
X35330983Y-22151637D01*
X34981302Y-21917988D01*
X34592756Y-21757047D01*
X34180279Y-21675000D01*
X33759721Y-21675000D01*
X33347244Y-21757047D01*
X32958698Y-21917988D01*
X32609017Y-22151637D01*
X32311637Y-22449017D01*
X32280574Y-22495507D01*
X32194494Y-22424863D01*
X32084180Y-22365898D01*
X31964482Y-22329588D01*
X31840000Y-22317328D01*
X29440000Y-22317328D01*
X29315518Y-22329588D01*
X29195820Y-22365898D01*
X29085506Y-22424863D01*
X28988815Y-22504215D01*
X28909463Y-22600906D01*
X28850498Y-22711220D01*
X28814188Y-22830918D01*
X28801928Y-22955400D01*
X28801928Y-23372562D01*
X28766156Y-23286201D01*
X28565338Y-22985656D01*
X28309744Y-22730062D01*
X28009199Y-22529244D01*
X27675250Y-22390918D01*
X27320732Y-22320400D01*
X26959268Y-22320400D01*
X26604750Y-22390918D01*
X26270801Y-22529244D01*
X25970256Y-22730062D01*
X25760476Y-22939842D01*
X25702012Y-22798698D01*
X25468363Y-22449017D01*
X25170983Y-22151637D01*
X24821302Y-21917988D01*
X24432756Y-21757047D01*
X24020279Y-21675000D01*
X23599721Y-21675000D01*
X23187244Y-21757047D01*
X22798698Y-21917988D01*
X22449017Y-22151637D01*
X22151637Y-22449017D01*
X21917988Y-22798698D01*
X21757047Y-23187244D01*
X21675000Y-23599721D01*
X21675000Y-24020279D01*
X21757047Y-24432756D01*
X21917988Y-24821302D01*
X22151637Y-25170983D01*
X22449017Y-25468363D01*
X22798698Y-25702012D01*
X23187244Y-25862953D01*
X23599721Y-25945000D01*
X24020279Y-25945000D01*
X24432756Y-25862953D01*
X24821302Y-25702012D01*
X25170983Y-25468363D01*
X25468363Y-25170983D01*
X25540009Y-25063757D01*
X25714662Y-25325144D01*
X25970256Y-25580738D01*
X26130001Y-25687476D01*
X26130000Y-31786528D01*
X25940000Y-31786528D01*
X25815518Y-31798788D01*
X25695820Y-31835098D01*
X25585506Y-31894063D01*
X25488815Y-31973415D01*
X25409463Y-32070106D01*
X25350498Y-32180420D01*
X25314188Y-32300118D01*
X25301928Y-32424600D01*
X25301928Y-32442582D01*
X25170983Y-32311637D01*
X24821302Y-32077988D01*
X24432756Y-31917047D01*
X24020279Y-31835000D01*
X23599721Y-31835000D01*
X23187244Y-31917047D01*
X22798698Y-32077988D01*
X22575700Y-32226990D01*
X22575700Y-30624150D01*
X22591751Y-30618789D01*
X22826496Y-30493315D01*
X22952371Y-30203377D01*
X21818600Y-29069605D01*
X21804458Y-29083748D01*
X21624852Y-28904142D01*
X21638995Y-28890000D01*
X21998205Y-28890000D01*
X23131977Y-30023771D01*
X23421915Y-29897896D01*
X23587739Y-29565738D01*
X23685575Y-29207613D01*
X23711665Y-28837281D01*
X23665005Y-28468975D01*
X23547389Y-28116849D01*
X23421915Y-27882104D01*
X23131977Y-27756229D01*
X21998205Y-28890000D01*
X21638995Y-28890000D01*
X21624852Y-28875858D01*
X21804458Y-28696252D01*
X21818600Y-28710395D01*
X22952371Y-27576623D01*
X22826496Y-27286685D01*
X22494338Y-27120861D01*
X22136213Y-27023025D01*
X21765881Y-26996935D01*
X21397575Y-27043595D01*
X21045449Y-27161211D01*
X20810704Y-27286685D01*
X20705310Y-27529448D01*
X20726015Y-20675990D01*
X36984115Y-20726015D01*
M02*
