G04 #@! TF.GenerationSoftware,KiCad,Pcbnew,5.1.5-52549c5~86~ubuntu18.04.1*
G04 #@! TF.CreationDate,2020-09-04T14:30:59-05:00*
G04 #@! TF.ProjectId,B00,4230302e-6b69-4636-9164-5f7063625858,rev?*
G04 #@! TF.SameCoordinates,Original*
G04 #@! TF.FileFunction,Copper,L2,Bot*
G04 #@! TF.FilePolarity,Positive*
%FSLAX46Y46*%
G04 Gerber Fmt 4.6, Leading zero omitted, Abs format (unit mm)*
G04 Created by KiCad (PCBNEW 5.1.5-52549c5~86~ubuntu18.04.1) date 2020-09-04 14:30:59*
%MOMM*%
%LPD*%
G04 APERTURE LIST*
%ADD10C,0.250000*%
%ADD11C,2.400000*%
%ADD12R,2.400000X2.400000*%
%ADD13C,2.499360*%
%ADD14C,0.750000*%
%ADD15C,0.254000*%
G04 APERTURE END LIST*
D10*
X36606171Y-31421723D02*
X36653790Y-31564580D01*
X36701409Y-31612200D01*
X36796647Y-31659819D01*
X36939504Y-31659819D01*
X37034742Y-31612200D01*
X37082361Y-31564580D01*
X37129980Y-31469342D01*
X37129980Y-31088390D01*
X36129980Y-31088390D01*
X36129980Y-31421723D01*
X36177600Y-31516961D01*
X36225219Y-31564580D01*
X36320457Y-31612200D01*
X36415695Y-31612200D01*
X36510933Y-31564580D01*
X36558552Y-31516961D01*
X36606171Y-31421723D01*
X36606171Y-31088390D01*
X36129980Y-32278866D02*
X36129980Y-32374104D01*
X36177600Y-32469342D01*
X36225219Y-32516961D01*
X36320457Y-32564580D01*
X36510933Y-32612200D01*
X36749028Y-32612200D01*
X36939504Y-32564580D01*
X37034742Y-32516961D01*
X37082361Y-32469342D01*
X37129980Y-32374104D01*
X37129980Y-32278866D01*
X37082361Y-32183628D01*
X37034742Y-32136009D01*
X36939504Y-32088390D01*
X36749028Y-32040771D01*
X36510933Y-32040771D01*
X36320457Y-32088390D01*
X36225219Y-32136009D01*
X36177600Y-32183628D01*
X36129980Y-32278866D01*
X36129980Y-33231247D02*
X36129980Y-33326485D01*
X36177600Y-33421723D01*
X36225219Y-33469342D01*
X36320457Y-33516961D01*
X36510933Y-33564580D01*
X36749028Y-33564580D01*
X36939504Y-33516961D01*
X37034742Y-33469342D01*
X37082361Y-33421723D01*
X37129980Y-33326485D01*
X37129980Y-33231247D01*
X37082361Y-33136009D01*
X37034742Y-33088390D01*
X36939504Y-33040771D01*
X36749028Y-32993152D01*
X36510933Y-32993152D01*
X36320457Y-33040771D01*
X36225219Y-33088390D01*
X36177600Y-33136009D01*
X36129980Y-33231247D01*
X37225219Y-33755057D02*
X37225219Y-34516961D01*
X37082361Y-34707438D02*
X37129980Y-34850295D01*
X37129980Y-35088390D01*
X37082361Y-35183628D01*
X37034742Y-35231247D01*
X36939504Y-35278866D01*
X36844266Y-35278866D01*
X36749028Y-35231247D01*
X36701409Y-35183628D01*
X36653790Y-35088390D01*
X36606171Y-34897914D01*
X36558552Y-34802676D01*
X36510933Y-34755057D01*
X36415695Y-34707438D01*
X36320457Y-34707438D01*
X36225219Y-34755057D01*
X36177600Y-34802676D01*
X36129980Y-34897914D01*
X36129980Y-35136009D01*
X36177600Y-35278866D01*
X36225219Y-35659819D02*
X36177600Y-35707438D01*
X36129980Y-35802676D01*
X36129980Y-36040771D01*
X36177600Y-36136009D01*
X36225219Y-36183628D01*
X36320457Y-36231247D01*
X36415695Y-36231247D01*
X36558552Y-36183628D01*
X37129980Y-35612200D01*
X37129980Y-36231247D01*
X37082361Y-36612200D02*
X37129980Y-36755057D01*
X37129980Y-36993152D01*
X37082361Y-37088390D01*
X37034742Y-37136009D01*
X36939504Y-37183628D01*
X36844266Y-37183628D01*
X36749028Y-37136009D01*
X36701409Y-37088390D01*
X36653790Y-36993152D01*
X36606171Y-36802676D01*
X36558552Y-36707438D01*
X36510933Y-36659819D01*
X36415695Y-36612200D01*
X36320457Y-36612200D01*
X36225219Y-36659819D01*
X36177600Y-36707438D01*
X36129980Y-36802676D01*
X36129980Y-37040771D01*
X36177600Y-37183628D01*
D11*
X30640000Y-33624600D03*
D12*
X27140000Y-33624600D03*
D11*
X27140000Y-24155400D03*
D12*
X30640000Y-24155400D03*
D13*
X21818600Y-28890000D03*
X35961400Y-28890000D03*
D14*
X27140000Y-24155400D02*
X27140000Y-33624600D01*
X30640000Y-24155400D02*
X30640000Y-33624600D01*
D15*
G36*
X37059936Y-20726015D02*
G01*
X37120000Y-26389197D01*
X37120000Y-27551792D01*
X37095170Y-27576622D01*
X36969296Y-27286685D01*
X36637138Y-27120861D01*
X36279013Y-27023025D01*
X35908681Y-26996935D01*
X35540375Y-27043595D01*
X35188249Y-27161211D01*
X34953504Y-27286685D01*
X34827629Y-27576623D01*
X35961400Y-28710395D01*
X35975542Y-28696252D01*
X36155148Y-28875858D01*
X36141005Y-28890000D01*
X36155148Y-28904142D01*
X35975542Y-29083748D01*
X35961400Y-29069605D01*
X34827629Y-30203377D01*
X34953504Y-30493315D01*
X35260100Y-30646378D01*
X35260100Y-32264275D01*
X34981302Y-32077988D01*
X34592756Y-31917047D01*
X34180279Y-31835000D01*
X33759721Y-31835000D01*
X33347244Y-31917047D01*
X32958698Y-32077988D01*
X32609017Y-32311637D01*
X32311637Y-32609017D01*
X32239991Y-32716243D01*
X32065338Y-32454856D01*
X31809744Y-32199262D01*
X31650000Y-32092524D01*
X31650000Y-28942719D01*
X34068335Y-28942719D01*
X34114995Y-29311025D01*
X34232611Y-29663151D01*
X34358085Y-29897896D01*
X34648023Y-30023771D01*
X35781795Y-28890000D01*
X34648023Y-27756229D01*
X34358085Y-27882104D01*
X34192261Y-28214262D01*
X34094425Y-28572387D01*
X34068335Y-28942719D01*
X31650000Y-28942719D01*
X31650000Y-25993472D01*
X31840000Y-25993472D01*
X31964482Y-25981212D01*
X32084180Y-25944902D01*
X32194494Y-25885937D01*
X32291185Y-25806585D01*
X32370537Y-25709894D01*
X32429502Y-25599580D01*
X32465812Y-25479882D01*
X32478072Y-25355400D01*
X32478072Y-25337418D01*
X32609017Y-25468363D01*
X32958698Y-25702012D01*
X33347244Y-25862953D01*
X33759721Y-25945000D01*
X34180279Y-25945000D01*
X34592756Y-25862953D01*
X34981302Y-25702012D01*
X35330983Y-25468363D01*
X35628363Y-25170983D01*
X35862012Y-24821302D01*
X36022953Y-24432756D01*
X36105000Y-24020279D01*
X36105000Y-23599721D01*
X36022953Y-23187244D01*
X35862012Y-22798698D01*
X35628363Y-22449017D01*
X35330983Y-22151637D01*
X34981302Y-21917988D01*
X34592756Y-21757047D01*
X34180279Y-21675000D01*
X33759721Y-21675000D01*
X33347244Y-21757047D01*
X32958698Y-21917988D01*
X32609017Y-22151637D01*
X32311637Y-22449017D01*
X32280574Y-22495507D01*
X32194494Y-22424863D01*
X32084180Y-22365898D01*
X31964482Y-22329588D01*
X31840000Y-22317328D01*
X29440000Y-22317328D01*
X29315518Y-22329588D01*
X29195820Y-22365898D01*
X29085506Y-22424863D01*
X28988815Y-22504215D01*
X28909463Y-22600906D01*
X28850498Y-22711220D01*
X28814188Y-22830918D01*
X28801928Y-22955400D01*
X28801928Y-23372562D01*
X28766156Y-23286201D01*
X28565338Y-22985656D01*
X28309744Y-22730062D01*
X28009199Y-22529244D01*
X27675250Y-22390918D01*
X27320732Y-22320400D01*
X26959268Y-22320400D01*
X26604750Y-22390918D01*
X26270801Y-22529244D01*
X25970256Y-22730062D01*
X25760476Y-22939842D01*
X25702012Y-22798698D01*
X25468363Y-22449017D01*
X25170983Y-22151637D01*
X24821302Y-21917988D01*
X24432756Y-21757047D01*
X24020279Y-21675000D01*
X23599721Y-21675000D01*
X23187244Y-21757047D01*
X22798698Y-21917988D01*
X22449017Y-22151637D01*
X22151637Y-22449017D01*
X21917988Y-22798698D01*
X21757047Y-23187244D01*
X21675000Y-23599721D01*
X21675000Y-24020279D01*
X21757047Y-24432756D01*
X21917988Y-24821302D01*
X22151637Y-25170983D01*
X22449017Y-25468363D01*
X22798698Y-25702012D01*
X23187244Y-25862953D01*
X23599721Y-25945000D01*
X24020279Y-25945000D01*
X24432756Y-25862953D01*
X24821302Y-25702012D01*
X25170983Y-25468363D01*
X25468363Y-25170983D01*
X25540009Y-25063757D01*
X25714662Y-25325144D01*
X25970256Y-25580738D01*
X26130000Y-25687476D01*
X26130001Y-31786528D01*
X25940000Y-31786528D01*
X25815518Y-31798788D01*
X25695820Y-31835098D01*
X25585506Y-31894063D01*
X25488815Y-31973415D01*
X25409463Y-32070106D01*
X25350498Y-32180420D01*
X25314188Y-32300118D01*
X25301928Y-32424600D01*
X25301928Y-32442582D01*
X25170983Y-32311637D01*
X24821302Y-32077988D01*
X24432756Y-31917047D01*
X24020279Y-31835000D01*
X23599721Y-31835000D01*
X23187244Y-31917047D01*
X22798698Y-32077988D01*
X22449017Y-32311637D01*
X22151637Y-32609017D01*
X21917988Y-32958698D01*
X21757047Y-33347244D01*
X21675000Y-33759721D01*
X21675000Y-34180279D01*
X21757047Y-34592756D01*
X21917988Y-34981302D01*
X22151637Y-35330983D01*
X22449017Y-35628363D01*
X22798698Y-35862012D01*
X23187244Y-36022953D01*
X23599721Y-36105000D01*
X24020279Y-36105000D01*
X24432756Y-36022953D01*
X24821302Y-35862012D01*
X25170983Y-35628363D01*
X25468363Y-35330983D01*
X25499426Y-35284493D01*
X25585506Y-35355137D01*
X25695820Y-35414102D01*
X25815518Y-35450412D01*
X25940000Y-35462672D01*
X28340000Y-35462672D01*
X28464482Y-35450412D01*
X28584180Y-35414102D01*
X28694494Y-35355137D01*
X28791185Y-35275785D01*
X28870537Y-35179094D01*
X28929502Y-35068780D01*
X28965812Y-34949082D01*
X28978072Y-34824600D01*
X28978072Y-34407438D01*
X29013844Y-34493799D01*
X29214662Y-34794344D01*
X29470256Y-35049938D01*
X29770801Y-35250756D01*
X30104750Y-35389082D01*
X30459268Y-35459600D01*
X30820732Y-35459600D01*
X31175250Y-35389082D01*
X31509199Y-35250756D01*
X31809744Y-35049938D01*
X32019524Y-34840158D01*
X32077988Y-34981302D01*
X32311637Y-35330983D01*
X32609017Y-35628363D01*
X32958698Y-35862012D01*
X33347244Y-36022953D01*
X33759721Y-36105000D01*
X34180279Y-36105000D01*
X34592756Y-36022953D01*
X34981302Y-35862012D01*
X35260100Y-35675725D01*
X35260100Y-37120000D01*
X20676336Y-37120000D01*
X20697146Y-30231748D01*
X20810704Y-30493315D01*
X21142862Y-30659139D01*
X21500987Y-30756975D01*
X21871319Y-30783065D01*
X22239625Y-30736405D01*
X22591751Y-30618789D01*
X22826496Y-30493315D01*
X22952371Y-30203377D01*
X21818600Y-29069605D01*
X21804458Y-29083748D01*
X21624852Y-28904142D01*
X21638995Y-28890000D01*
X21998205Y-28890000D01*
X23131977Y-30023771D01*
X23421915Y-29897896D01*
X23587739Y-29565738D01*
X23685575Y-29207613D01*
X23711665Y-28837281D01*
X23665005Y-28468975D01*
X23547389Y-28116849D01*
X23421915Y-27882104D01*
X23131977Y-27756229D01*
X21998205Y-28890000D01*
X21638995Y-28890000D01*
X21624852Y-28875858D01*
X21804458Y-28696252D01*
X21818600Y-28710395D01*
X22952371Y-27576623D01*
X22826496Y-27286685D01*
X22494338Y-27120861D01*
X22136213Y-27023025D01*
X21765881Y-26996935D01*
X21397575Y-27043595D01*
X21045449Y-27161211D01*
X20810704Y-27286685D01*
X20705310Y-27529448D01*
X20726015Y-20675988D01*
X37059936Y-20726015D01*
G37*
X37059936Y-20726015D02*
X37120000Y-26389197D01*
X37120000Y-27551792D01*
X37095170Y-27576622D01*
X36969296Y-27286685D01*
X36637138Y-27120861D01*
X36279013Y-27023025D01*
X35908681Y-26996935D01*
X35540375Y-27043595D01*
X35188249Y-27161211D01*
X34953504Y-27286685D01*
X34827629Y-27576623D01*
X35961400Y-28710395D01*
X35975542Y-28696252D01*
X36155148Y-28875858D01*
X36141005Y-28890000D01*
X36155148Y-28904142D01*
X35975542Y-29083748D01*
X35961400Y-29069605D01*
X34827629Y-30203377D01*
X34953504Y-30493315D01*
X35260100Y-30646378D01*
X35260100Y-32264275D01*
X34981302Y-32077988D01*
X34592756Y-31917047D01*
X34180279Y-31835000D01*
X33759721Y-31835000D01*
X33347244Y-31917047D01*
X32958698Y-32077988D01*
X32609017Y-32311637D01*
X32311637Y-32609017D01*
X32239991Y-32716243D01*
X32065338Y-32454856D01*
X31809744Y-32199262D01*
X31650000Y-32092524D01*
X31650000Y-28942719D01*
X34068335Y-28942719D01*
X34114995Y-29311025D01*
X34232611Y-29663151D01*
X34358085Y-29897896D01*
X34648023Y-30023771D01*
X35781795Y-28890000D01*
X34648023Y-27756229D01*
X34358085Y-27882104D01*
X34192261Y-28214262D01*
X34094425Y-28572387D01*
X34068335Y-28942719D01*
X31650000Y-28942719D01*
X31650000Y-25993472D01*
X31840000Y-25993472D01*
X31964482Y-25981212D01*
X32084180Y-25944902D01*
X32194494Y-25885937D01*
X32291185Y-25806585D01*
X32370537Y-25709894D01*
X32429502Y-25599580D01*
X32465812Y-25479882D01*
X32478072Y-25355400D01*
X32478072Y-25337418D01*
X32609017Y-25468363D01*
X32958698Y-25702012D01*
X33347244Y-25862953D01*
X33759721Y-25945000D01*
X34180279Y-25945000D01*
X34592756Y-25862953D01*
X34981302Y-25702012D01*
X35330983Y-25468363D01*
X35628363Y-25170983D01*
X35862012Y-24821302D01*
X36022953Y-24432756D01*
X36105000Y-24020279D01*
X36105000Y-23599721D01*
X36022953Y-23187244D01*
X35862012Y-22798698D01*
X35628363Y-22449017D01*
X35330983Y-22151637D01*
X34981302Y-21917988D01*
X34592756Y-21757047D01*
X34180279Y-21675000D01*
X33759721Y-21675000D01*
X33347244Y-21757047D01*
X32958698Y-21917988D01*
X32609017Y-22151637D01*
X32311637Y-22449017D01*
X32280574Y-22495507D01*
X32194494Y-22424863D01*
X32084180Y-22365898D01*
X31964482Y-22329588D01*
X31840000Y-22317328D01*
X29440000Y-22317328D01*
X29315518Y-22329588D01*
X29195820Y-22365898D01*
X29085506Y-22424863D01*
X28988815Y-22504215D01*
X28909463Y-22600906D01*
X28850498Y-22711220D01*
X28814188Y-22830918D01*
X28801928Y-22955400D01*
X28801928Y-23372562D01*
X28766156Y-23286201D01*
X28565338Y-22985656D01*
X28309744Y-22730062D01*
X28009199Y-22529244D01*
X27675250Y-22390918D01*
X27320732Y-22320400D01*
X26959268Y-22320400D01*
X26604750Y-22390918D01*
X26270801Y-22529244D01*
X25970256Y-22730062D01*
X25760476Y-22939842D01*
X25702012Y-22798698D01*
X25468363Y-22449017D01*
X25170983Y-22151637D01*
X24821302Y-21917988D01*
X24432756Y-21757047D01*
X24020279Y-21675000D01*
X23599721Y-21675000D01*
X23187244Y-21757047D01*
X22798698Y-21917988D01*
X22449017Y-22151637D01*
X22151637Y-22449017D01*
X21917988Y-22798698D01*
X21757047Y-23187244D01*
X21675000Y-23599721D01*
X21675000Y-24020279D01*
X21757047Y-24432756D01*
X21917988Y-24821302D01*
X22151637Y-25170983D01*
X22449017Y-25468363D01*
X22798698Y-25702012D01*
X23187244Y-25862953D01*
X23599721Y-25945000D01*
X24020279Y-25945000D01*
X24432756Y-25862953D01*
X24821302Y-25702012D01*
X25170983Y-25468363D01*
X25468363Y-25170983D01*
X25540009Y-25063757D01*
X25714662Y-25325144D01*
X25970256Y-25580738D01*
X26130000Y-25687476D01*
X26130001Y-31786528D01*
X25940000Y-31786528D01*
X25815518Y-31798788D01*
X25695820Y-31835098D01*
X25585506Y-31894063D01*
X25488815Y-31973415D01*
X25409463Y-32070106D01*
X25350498Y-32180420D01*
X25314188Y-32300118D01*
X25301928Y-32424600D01*
X25301928Y-32442582D01*
X25170983Y-32311637D01*
X24821302Y-32077988D01*
X24432756Y-31917047D01*
X24020279Y-31835000D01*
X23599721Y-31835000D01*
X23187244Y-31917047D01*
X22798698Y-32077988D01*
X22449017Y-32311637D01*
X22151637Y-32609017D01*
X21917988Y-32958698D01*
X21757047Y-33347244D01*
X21675000Y-33759721D01*
X21675000Y-34180279D01*
X21757047Y-34592756D01*
X21917988Y-34981302D01*
X22151637Y-35330983D01*
X22449017Y-35628363D01*
X22798698Y-35862012D01*
X23187244Y-36022953D01*
X23599721Y-36105000D01*
X24020279Y-36105000D01*
X24432756Y-36022953D01*
X24821302Y-35862012D01*
X25170983Y-35628363D01*
X25468363Y-35330983D01*
X25499426Y-35284493D01*
X25585506Y-35355137D01*
X25695820Y-35414102D01*
X25815518Y-35450412D01*
X25940000Y-35462672D01*
X28340000Y-35462672D01*
X28464482Y-35450412D01*
X28584180Y-35414102D01*
X28694494Y-35355137D01*
X28791185Y-35275785D01*
X28870537Y-35179094D01*
X28929502Y-35068780D01*
X28965812Y-34949082D01*
X28978072Y-34824600D01*
X28978072Y-34407438D01*
X29013844Y-34493799D01*
X29214662Y-34794344D01*
X29470256Y-35049938D01*
X29770801Y-35250756D01*
X30104750Y-35389082D01*
X30459268Y-35459600D01*
X30820732Y-35459600D01*
X31175250Y-35389082D01*
X31509199Y-35250756D01*
X31809744Y-35049938D01*
X32019524Y-34840158D01*
X32077988Y-34981302D01*
X32311637Y-35330983D01*
X32609017Y-35628363D01*
X32958698Y-35862012D01*
X33347244Y-36022953D01*
X33759721Y-36105000D01*
X34180279Y-36105000D01*
X34592756Y-36022953D01*
X34981302Y-35862012D01*
X35260100Y-35675725D01*
X35260100Y-37120000D01*
X20676336Y-37120000D01*
X20697146Y-30231748D01*
X20810704Y-30493315D01*
X21142862Y-30659139D01*
X21500987Y-30756975D01*
X21871319Y-30783065D01*
X22239625Y-30736405D01*
X22591751Y-30618789D01*
X22826496Y-30493315D01*
X22952371Y-30203377D01*
X21818600Y-29069605D01*
X21804458Y-29083748D01*
X21624852Y-28904142D01*
X21638995Y-28890000D01*
X21998205Y-28890000D01*
X23131977Y-30023771D01*
X23421915Y-29897896D01*
X23587739Y-29565738D01*
X23685575Y-29207613D01*
X23711665Y-28837281D01*
X23665005Y-28468975D01*
X23547389Y-28116849D01*
X23421915Y-27882104D01*
X23131977Y-27756229D01*
X21998205Y-28890000D01*
X21638995Y-28890000D01*
X21624852Y-28875858D01*
X21804458Y-28696252D01*
X21818600Y-28710395D01*
X22952371Y-27576623D01*
X22826496Y-27286685D01*
X22494338Y-27120861D01*
X22136213Y-27023025D01*
X21765881Y-26996935D01*
X21397575Y-27043595D01*
X21045449Y-27161211D01*
X20810704Y-27286685D01*
X20705310Y-27529448D01*
X20726015Y-20675988D01*
X37059936Y-20726015D01*
M02*
