G04 #@! TF.GenerationSoftware,KiCad,Pcbnew,5.1.5-52549c5~86~ubuntu18.04.1*
G04 #@! TF.CreationDate,2020-09-09T16:53:46-05:00*
G04 #@! TF.ProjectId,C03,4330332e-6b69-4636-9164-5f7063625858,rev?*
G04 #@! TF.SameCoordinates,Original*
G04 #@! TF.FileFunction,Legend,Top*
G04 #@! TF.FilePolarity,Positive*
%FSLAX46Y46*%
G04 Gerber Fmt 4.6, Leading zero omitted, Abs format (unit mm)*
G04 Created by KiCad (PCBNEW 5.1.5-52549c5~86~ubuntu18.04.1) date 2020-09-09 16:53:46*
%MOMM*%
%LPD*%
G04 APERTURE LIST*
%ADD10C,0.150000*%
%ADD11C,0.010000*%
%ADD12C,0.120000*%
G04 APERTURE END LIST*
D10*
X87726828Y-26619047D02*
X87726828Y-25857142D01*
X87726828Y-25380952D02*
X87726828Y-24619047D01*
X87726828Y-24142857D02*
X87726828Y-23380952D01*
X87726828Y-54374847D02*
X87726828Y-53612942D01*
X88107780Y-53993895D02*
X87345876Y-53993895D01*
X87726828Y-53136752D02*
X87726828Y-52374847D01*
X88107780Y-52755800D02*
X87345876Y-52755800D01*
X87726828Y-51898657D02*
X87726828Y-51136752D01*
X88107780Y-51517704D02*
X87345876Y-51517704D01*
X34435066Y-50293542D02*
X34387447Y-50341161D01*
X34244590Y-50388780D01*
X34149352Y-50388780D01*
X34006495Y-50341161D01*
X33911257Y-50245923D01*
X33863638Y-50150685D01*
X33816019Y-49960209D01*
X33816019Y-49817352D01*
X33863638Y-49626876D01*
X33911257Y-49531638D01*
X34006495Y-49436400D01*
X34149352Y-49388780D01*
X34244590Y-49388780D01*
X34387447Y-49436400D01*
X34435066Y-49484019D01*
X35054114Y-49388780D02*
X35149352Y-49388780D01*
X35244590Y-49436400D01*
X35292209Y-49484019D01*
X35339828Y-49579257D01*
X35387447Y-49769733D01*
X35387447Y-50007828D01*
X35339828Y-50198304D01*
X35292209Y-50293542D01*
X35244590Y-50341161D01*
X35149352Y-50388780D01*
X35054114Y-50388780D01*
X34958876Y-50341161D01*
X34911257Y-50293542D01*
X34863638Y-50198304D01*
X34816019Y-50007828D01*
X34816019Y-49769733D01*
X34863638Y-49579257D01*
X34911257Y-49484019D01*
X34958876Y-49436400D01*
X35054114Y-49388780D01*
X35720780Y-49388780D02*
X36339828Y-49388780D01*
X36006495Y-49769733D01*
X36149352Y-49769733D01*
X36244590Y-49817352D01*
X36292209Y-49864971D01*
X36339828Y-49960209D01*
X36339828Y-50198304D01*
X36292209Y-50293542D01*
X36244590Y-50341161D01*
X36149352Y-50388780D01*
X35863638Y-50388780D01*
X35768400Y-50341161D01*
X35720780Y-50293542D01*
X36530304Y-50484019D02*
X37292209Y-50484019D01*
X37863638Y-49864971D02*
X38006495Y-49912590D01*
X38054114Y-49960209D01*
X38101733Y-50055447D01*
X38101733Y-50198304D01*
X38054114Y-50293542D01*
X38006495Y-50341161D01*
X37911257Y-50388780D01*
X37530304Y-50388780D01*
X37530304Y-49388780D01*
X37863638Y-49388780D01*
X37958876Y-49436400D01*
X38006495Y-49484019D01*
X38054114Y-49579257D01*
X38054114Y-49674495D01*
X38006495Y-49769733D01*
X37958876Y-49817352D01*
X37863638Y-49864971D01*
X37530304Y-49864971D01*
X39101733Y-50388780D02*
X38768400Y-49912590D01*
X38530304Y-50388780D02*
X38530304Y-49388780D01*
X38911257Y-49388780D01*
X39006495Y-49436400D01*
X39054114Y-49484019D01*
X39101733Y-49579257D01*
X39101733Y-49722114D01*
X39054114Y-49817352D01*
X39006495Y-49864971D01*
X38911257Y-49912590D01*
X38530304Y-49912590D01*
X39530304Y-49864971D02*
X39863638Y-49864971D01*
X40006495Y-50388780D02*
X39530304Y-50388780D01*
X39530304Y-49388780D01*
X40006495Y-49388780D01*
X40387447Y-50103066D02*
X40863638Y-50103066D01*
X40292209Y-50388780D02*
X40625542Y-49388780D01*
X40958876Y-50388780D01*
X41292209Y-50388780D02*
X41292209Y-49388780D01*
X41863638Y-50388780D02*
X41435066Y-49817352D01*
X41863638Y-49388780D02*
X41292209Y-49960209D01*
X42482685Y-49388780D02*
X42673161Y-49388780D01*
X42768400Y-49436400D01*
X42863638Y-49531638D01*
X42911257Y-49722114D01*
X42911257Y-50055447D01*
X42863638Y-50245923D01*
X42768400Y-50341161D01*
X42673161Y-50388780D01*
X42482685Y-50388780D01*
X42387447Y-50341161D01*
X42292209Y-50245923D01*
X42244590Y-50055447D01*
X42244590Y-49722114D01*
X42292209Y-49531638D01*
X42387447Y-49436400D01*
X42482685Y-49388780D01*
X43339828Y-49388780D02*
X43339828Y-50198304D01*
X43387447Y-50293542D01*
X43435066Y-50341161D01*
X43530304Y-50388780D01*
X43720780Y-50388780D01*
X43816019Y-50341161D01*
X43863638Y-50293542D01*
X43911257Y-50198304D01*
X43911257Y-49388780D01*
X44244590Y-49388780D02*
X44816019Y-49388780D01*
X44530304Y-50388780D02*
X44530304Y-49388780D01*
X20590866Y-51182333D02*
X21090866Y-51182333D01*
X21190866Y-51215666D01*
X21257533Y-51282333D01*
X21290866Y-51382333D01*
X21290866Y-51449000D01*
X21290866Y-50849000D02*
X20590866Y-50849000D01*
X20590866Y-50582333D01*
X20624200Y-50515666D01*
X20657533Y-50482333D01*
X20724200Y-50449000D01*
X20824200Y-50449000D01*
X20890866Y-50482333D01*
X20924200Y-50515666D01*
X20957533Y-50582333D01*
X20957533Y-50849000D01*
X21290866Y-49782333D02*
X21290866Y-50182333D01*
X21290866Y-49982333D02*
X20590866Y-49982333D01*
X20690866Y-50049000D01*
X20757533Y-50115666D01*
X20790866Y-50182333D01*
X20924200Y-48715666D02*
X20957533Y-48615666D01*
X20990866Y-48582333D01*
X21057533Y-48549000D01*
X21157533Y-48549000D01*
X21224200Y-48582333D01*
X21257533Y-48615666D01*
X21290866Y-48682333D01*
X21290866Y-48949000D01*
X20590866Y-48949000D01*
X20590866Y-48715666D01*
X20624200Y-48649000D01*
X20657533Y-48615666D01*
X20724200Y-48582333D01*
X20790866Y-48582333D01*
X20857533Y-48615666D01*
X20890866Y-48649000D01*
X20924200Y-48715666D01*
X20924200Y-48949000D01*
X21090866Y-48282333D02*
X21090866Y-47949000D01*
X21290866Y-48349000D02*
X20590866Y-48115666D01*
X21290866Y-47882333D01*
X20590866Y-47749000D02*
X20590866Y-47349000D01*
X21290866Y-47549000D02*
X20590866Y-47549000D01*
X20590866Y-47215666D02*
X20590866Y-46815666D01*
X21290866Y-47015666D02*
X20590866Y-47015666D01*
X22490866Y-52315666D02*
X22490866Y-52715666D01*
X22490866Y-52515666D02*
X21790866Y-52515666D01*
X21890866Y-52582333D01*
X21957533Y-52649000D01*
X21990866Y-52715666D01*
X22224200Y-52015666D02*
X22224200Y-51482333D01*
X21857533Y-51182333D02*
X21824200Y-51149000D01*
X21790866Y-51082333D01*
X21790866Y-50915666D01*
X21824200Y-50849000D01*
X21857533Y-50815666D01*
X21924200Y-50782333D01*
X21990866Y-50782333D01*
X22090866Y-50815666D01*
X22490866Y-51215666D01*
X22490866Y-50782333D01*
X22124200Y-49715666D02*
X22157533Y-49615666D01*
X22190866Y-49582333D01*
X22257533Y-49549000D01*
X22357533Y-49549000D01*
X22424200Y-49582333D01*
X22457533Y-49615666D01*
X22490866Y-49682333D01*
X22490866Y-49949000D01*
X21790866Y-49949000D01*
X21790866Y-49715666D01*
X21824200Y-49649000D01*
X21857533Y-49615666D01*
X21924200Y-49582333D01*
X21990866Y-49582333D01*
X22057533Y-49615666D01*
X22090866Y-49649000D01*
X22124200Y-49715666D01*
X22124200Y-49949000D01*
X21790866Y-49349000D02*
X21790866Y-48949000D01*
X22490866Y-49149000D02*
X21790866Y-49149000D01*
X22490866Y-48349000D02*
X22490866Y-48749000D01*
X22490866Y-48549000D02*
X21790866Y-48549000D01*
X21890866Y-48615666D01*
X21957533Y-48682333D01*
X21990866Y-48749000D01*
X22224200Y-48049000D02*
X22224200Y-47515666D01*
X22490866Y-47782333D02*
X21957533Y-47782333D01*
X22124200Y-46949000D02*
X22157533Y-46849000D01*
X22190866Y-46815666D01*
X22257533Y-46782333D01*
X22357533Y-46782333D01*
X22424200Y-46815666D01*
X22457533Y-46849000D01*
X22490866Y-46915666D01*
X22490866Y-47182333D01*
X21790866Y-47182333D01*
X21790866Y-46949000D01*
X21824200Y-46882333D01*
X21857533Y-46849000D01*
X21924200Y-46815666D01*
X21990866Y-46815666D01*
X22057533Y-46849000D01*
X22090866Y-46882333D01*
X22124200Y-46949000D01*
X22124200Y-47182333D01*
X21790866Y-46582333D02*
X21790866Y-46182333D01*
X22490866Y-46382333D02*
X21790866Y-46382333D01*
X21857533Y-45982333D02*
X21824200Y-45949000D01*
X21790866Y-45882333D01*
X21790866Y-45715666D01*
X21824200Y-45649000D01*
X21857533Y-45615666D01*
X21924200Y-45582333D01*
X21990866Y-45582333D01*
X22090866Y-45615666D01*
X22490866Y-46015666D01*
X22490866Y-45582333D01*
X23057533Y-51332333D02*
X23024200Y-51299000D01*
X22990866Y-51232333D01*
X22990866Y-51065666D01*
X23024200Y-50999000D01*
X23057533Y-50965666D01*
X23124200Y-50932333D01*
X23190866Y-50932333D01*
X23290866Y-50965666D01*
X23690866Y-51365666D01*
X23690866Y-50932333D01*
X23424200Y-50632333D02*
X23424200Y-50099000D01*
X22990866Y-49832333D02*
X22990866Y-49399000D01*
X23257533Y-49632333D01*
X23257533Y-49532333D01*
X23290866Y-49465666D01*
X23324200Y-49432333D01*
X23390866Y-49399000D01*
X23557533Y-49399000D01*
X23624200Y-49432333D01*
X23657533Y-49465666D01*
X23690866Y-49532333D01*
X23690866Y-49732333D01*
X23657533Y-49799000D01*
X23624200Y-49832333D01*
X23324200Y-48332333D02*
X23357533Y-48232333D01*
X23390866Y-48199000D01*
X23457533Y-48165666D01*
X23557533Y-48165666D01*
X23624200Y-48199000D01*
X23657533Y-48232333D01*
X23690866Y-48299000D01*
X23690866Y-48565666D01*
X22990866Y-48565666D01*
X22990866Y-48332333D01*
X23024200Y-48265666D01*
X23057533Y-48232333D01*
X23124200Y-48199000D01*
X23190866Y-48199000D01*
X23257533Y-48232333D01*
X23290866Y-48265666D01*
X23324200Y-48332333D01*
X23324200Y-48565666D01*
X22990866Y-47965666D02*
X22990866Y-47565666D01*
X23690866Y-47765666D02*
X22990866Y-47765666D01*
X23057533Y-47365666D02*
X23024200Y-47332333D01*
X22990866Y-47265666D01*
X22990866Y-47099000D01*
X23024200Y-47032333D01*
X23057533Y-46999000D01*
X23124200Y-46965666D01*
X23190866Y-46965666D01*
X23290866Y-46999000D01*
X23690866Y-47399000D01*
X23690866Y-46965666D01*
X21381980Y-37369476D02*
X21381980Y-37940904D01*
X21381980Y-37655190D02*
X20381980Y-37655190D01*
X20524838Y-37750428D01*
X20620076Y-37845666D01*
X20667695Y-37940904D01*
X20477219Y-35464714D02*
X20429600Y-35417095D01*
X20381980Y-35321857D01*
X20381980Y-35083761D01*
X20429600Y-34988523D01*
X20477219Y-34940904D01*
X20572457Y-34893285D01*
X20667695Y-34893285D01*
X20810552Y-34940904D01*
X21381980Y-35512333D01*
X21381980Y-34893285D01*
X20381980Y-33036142D02*
X20381980Y-32417095D01*
X20762933Y-32750428D01*
X20762933Y-32607571D01*
X20810552Y-32512333D01*
X20858171Y-32464714D01*
X20953409Y-32417095D01*
X21191504Y-32417095D01*
X21286742Y-32464714D01*
X21334361Y-32512333D01*
X21381980Y-32607571D01*
X21381980Y-32893285D01*
X21334361Y-32988523D01*
X21286742Y-33036142D01*
D11*
G36*
X38173214Y-42426931D02*
G01*
X38257035Y-42871555D01*
X38566320Y-42999053D01*
X38875606Y-43126551D01*
X39246646Y-42874246D01*
X39350557Y-42803996D01*
X39444487Y-42741272D01*
X39524052Y-42688938D01*
X39584870Y-42649857D01*
X39622557Y-42626893D01*
X39632821Y-42621942D01*
X39651310Y-42634676D01*
X39690820Y-42669882D01*
X39746922Y-42723062D01*
X39815187Y-42789718D01*
X39891186Y-42865354D01*
X39970492Y-42945472D01*
X40048675Y-43025574D01*
X40121307Y-43101164D01*
X40183959Y-43167745D01*
X40232203Y-43220818D01*
X40261610Y-43255887D01*
X40268641Y-43267623D01*
X40258523Y-43289260D01*
X40230159Y-43336662D01*
X40186529Y-43405193D01*
X40130618Y-43490215D01*
X40065406Y-43587093D01*
X40027619Y-43642350D01*
X39958743Y-43743248D01*
X39897540Y-43834299D01*
X39846978Y-43910970D01*
X39810028Y-43968728D01*
X39789658Y-44003043D01*
X39786597Y-44010254D01*
X39793536Y-44030748D01*
X39812451Y-44078513D01*
X39840487Y-44146832D01*
X39874791Y-44228989D01*
X39912509Y-44318270D01*
X39950787Y-44407958D01*
X39986770Y-44491338D01*
X40017606Y-44561694D01*
X40040439Y-44612310D01*
X40052417Y-44636471D01*
X40053124Y-44637422D01*
X40071931Y-44642036D01*
X40122018Y-44652328D01*
X40198193Y-44667287D01*
X40295265Y-44685901D01*
X40408043Y-44707159D01*
X40473842Y-44719418D01*
X40594350Y-44742362D01*
X40703197Y-44764195D01*
X40794876Y-44783722D01*
X40863881Y-44799748D01*
X40904704Y-44811079D01*
X40912911Y-44814674D01*
X40920948Y-44839006D01*
X40927433Y-44893959D01*
X40932370Y-44973108D01*
X40935764Y-45070026D01*
X40937618Y-45178287D01*
X40937938Y-45291465D01*
X40936727Y-45403135D01*
X40933990Y-45506868D01*
X40929731Y-45596241D01*
X40923955Y-45664826D01*
X40916667Y-45706197D01*
X40912295Y-45714810D01*
X40886164Y-45725133D01*
X40830793Y-45739892D01*
X40753507Y-45757352D01*
X40661630Y-45775780D01*
X40629558Y-45781741D01*
X40474924Y-45810066D01*
X40352775Y-45832876D01*
X40259073Y-45851080D01*
X40189784Y-45865583D01*
X40140871Y-45877292D01*
X40108297Y-45887115D01*
X40088028Y-45895956D01*
X40076026Y-45904724D01*
X40074347Y-45906457D01*
X40057584Y-45934371D01*
X40032014Y-45988695D01*
X40000188Y-46062777D01*
X39964660Y-46149965D01*
X39927983Y-46243608D01*
X39892711Y-46337052D01*
X39861396Y-46423647D01*
X39836593Y-46496740D01*
X39820854Y-46549678D01*
X39816732Y-46575811D01*
X39817076Y-46576726D01*
X39831041Y-46598086D01*
X39862722Y-46645084D01*
X39908791Y-46712827D01*
X39965918Y-46796423D01*
X40030773Y-46890982D01*
X40049243Y-46917854D01*
X40115099Y-47015275D01*
X40173050Y-47104163D01*
X40219938Y-47179412D01*
X40252607Y-47235920D01*
X40267900Y-47268581D01*
X40268641Y-47272593D01*
X40255792Y-47293684D01*
X40220288Y-47335464D01*
X40166693Y-47393445D01*
X40099571Y-47463135D01*
X40023487Y-47540045D01*
X39943004Y-47619683D01*
X39862687Y-47697561D01*
X39787099Y-47769186D01*
X39720805Y-47830070D01*
X39668369Y-47875721D01*
X39634355Y-47901650D01*
X39624945Y-47905883D01*
X39603043Y-47895912D01*
X39558200Y-47869020D01*
X39497721Y-47829736D01*
X39451189Y-47798117D01*
X39366875Y-47740098D01*
X39267026Y-47671784D01*
X39166873Y-47603579D01*
X39113027Y-47567075D01*
X38930771Y-47443800D01*
X38777781Y-47526520D01*
X38708082Y-47562759D01*
X38648814Y-47590926D01*
X38608711Y-47606991D01*
X38598503Y-47609226D01*
X38586229Y-47592722D01*
X38562013Y-47546082D01*
X38527663Y-47473609D01*
X38484988Y-47379606D01*
X38435794Y-47268374D01*
X38381890Y-47144215D01*
X38325084Y-47011432D01*
X38267182Y-46874327D01*
X38209993Y-46737202D01*
X38155324Y-46604358D01*
X38104984Y-46480098D01*
X38060780Y-46368725D01*
X38024519Y-46274539D01*
X37998009Y-46201844D01*
X37983058Y-46154941D01*
X37980654Y-46138833D01*
X37999711Y-46118286D01*
X38041436Y-46084933D01*
X38097106Y-46045702D01*
X38101778Y-46042599D01*
X38245664Y-45927423D01*
X38361683Y-45793053D01*
X38448830Y-45643784D01*
X38506099Y-45483913D01*
X38532486Y-45317737D01*
X38526985Y-45149552D01*
X38488590Y-44983655D01*
X38416295Y-44824342D01*
X38395026Y-44789487D01*
X38284396Y-44648737D01*
X38153702Y-44535714D01*
X38007464Y-44451003D01*
X37850208Y-44395194D01*
X37686457Y-44368874D01*
X37520733Y-44372630D01*
X37357562Y-44407050D01*
X37201465Y-44472723D01*
X37056967Y-44570235D01*
X37012269Y-44609813D01*
X36898512Y-44733703D01*
X36815618Y-44864124D01*
X36758756Y-45010315D01*
X36727087Y-45155088D01*
X36719269Y-45317860D01*
X36745338Y-45481440D01*
X36802645Y-45640298D01*
X36888544Y-45788906D01*
X37000386Y-45921735D01*
X37135523Y-46033256D01*
X37153283Y-46045011D01*
X37209550Y-46083508D01*
X37252323Y-46116863D01*
X37272772Y-46138160D01*
X37273069Y-46138833D01*
X37268679Y-46161871D01*
X37251276Y-46214157D01*
X37222668Y-46291390D01*
X37184665Y-46389268D01*
X37139074Y-46503491D01*
X37087703Y-46629758D01*
X37032362Y-46763767D01*
X36974858Y-46901218D01*
X36917001Y-47037808D01*
X36860598Y-47169237D01*
X36807458Y-47291205D01*
X36759390Y-47399409D01*
X36718201Y-47489549D01*
X36685701Y-47557323D01*
X36663697Y-47598430D01*
X36654836Y-47609226D01*
X36627760Y-47600819D01*
X36577097Y-47578272D01*
X36511583Y-47545613D01*
X36475559Y-47526520D01*
X36322568Y-47443800D01*
X36140312Y-47567075D01*
X36047275Y-47630228D01*
X35945415Y-47699727D01*
X35849962Y-47765165D01*
X35802150Y-47798117D01*
X35734905Y-47843273D01*
X35677964Y-47879057D01*
X35638754Y-47900938D01*
X35626019Y-47905563D01*
X35607483Y-47893085D01*
X35566459Y-47858252D01*
X35506925Y-47804678D01*
X35432858Y-47735983D01*
X35348235Y-47655781D01*
X35294715Y-47604286D01*
X35201081Y-47512286D01*
X35120159Y-47429999D01*
X35055223Y-47360945D01*
X35009542Y-47308644D01*
X34986389Y-47276616D01*
X34984168Y-47270116D01*
X34994476Y-47245394D01*
X35022961Y-47195405D01*
X35066463Y-47125212D01*
X35121823Y-47039875D01*
X35185880Y-46944456D01*
X35204097Y-46917854D01*
X35270473Y-46821167D01*
X35330022Y-46734117D01*
X35379416Y-46661595D01*
X35415325Y-46608493D01*
X35434419Y-46579703D01*
X35436264Y-46576726D01*
X35433505Y-46553782D01*
X35418862Y-46503336D01*
X35394887Y-46432041D01*
X35364134Y-46346547D01*
X35329156Y-46253507D01*
X35292507Y-46159574D01*
X35256739Y-46071399D01*
X35224406Y-45995634D01*
X35198062Y-45938931D01*
X35180258Y-45907943D01*
X35178993Y-45906457D01*
X35168106Y-45897601D01*
X35149718Y-45888843D01*
X35119794Y-45879277D01*
X35074297Y-45867996D01*
X35009191Y-45854093D01*
X34920439Y-45836663D01*
X34804007Y-45814798D01*
X34655858Y-45787591D01*
X34623782Y-45781741D01*
X34528714Y-45763374D01*
X34445835Y-45745405D01*
X34382470Y-45729569D01*
X34345942Y-45717600D01*
X34341044Y-45714810D01*
X34332973Y-45690072D01*
X34326413Y-45634790D01*
X34321367Y-45555389D01*
X34317841Y-45458296D01*
X34315839Y-45349938D01*
X34315364Y-45236740D01*
X34316423Y-45125128D01*
X34319018Y-45021529D01*
X34323154Y-44932368D01*
X34328837Y-44864072D01*
X34336069Y-44823066D01*
X34340429Y-44814674D01*
X34364702Y-44806208D01*
X34419974Y-44792435D01*
X34500738Y-44774550D01*
X34601488Y-44753748D01*
X34716717Y-44731223D01*
X34779498Y-44719418D01*
X34898613Y-44697151D01*
X35004835Y-44676979D01*
X35092973Y-44659915D01*
X35157834Y-44646969D01*
X35194226Y-44639155D01*
X35200216Y-44637422D01*
X35210339Y-44617890D01*
X35231738Y-44570843D01*
X35261561Y-44503003D01*
X35296955Y-44421091D01*
X35335068Y-44331828D01*
X35373047Y-44241935D01*
X35408040Y-44158135D01*
X35437194Y-44087147D01*
X35457657Y-44035694D01*
X35466577Y-44010497D01*
X35466743Y-44009396D01*
X35456631Y-43989519D01*
X35428283Y-43943777D01*
X35384677Y-43876717D01*
X35328794Y-43792884D01*
X35263613Y-43696826D01*
X35225721Y-43641650D01*
X35156675Y-43540481D01*
X35095350Y-43448630D01*
X35044737Y-43370744D01*
X35007829Y-43311469D01*
X34987618Y-43275451D01*
X34984699Y-43267377D01*
X34997247Y-43248584D01*
X35031937Y-43208457D01*
X35084337Y-43151493D01*
X35150016Y-43082185D01*
X35224544Y-43005031D01*
X35303487Y-42924525D01*
X35382417Y-42845163D01*
X35456900Y-42771440D01*
X35522506Y-42707852D01*
X35574804Y-42658894D01*
X35609361Y-42629061D01*
X35620922Y-42621942D01*
X35639746Y-42631953D01*
X35684769Y-42660078D01*
X35751613Y-42703454D01*
X35835901Y-42759218D01*
X35933256Y-42824506D01*
X36006693Y-42874246D01*
X36377733Y-43126551D01*
X36996305Y-42871555D01*
X37080125Y-42426931D01*
X37163946Y-41982307D01*
X38089394Y-41982307D01*
X38173214Y-42426931D01*
G37*
X38173214Y-42426931D02*
X38257035Y-42871555D01*
X38566320Y-42999053D01*
X38875606Y-43126551D01*
X39246646Y-42874246D01*
X39350557Y-42803996D01*
X39444487Y-42741272D01*
X39524052Y-42688938D01*
X39584870Y-42649857D01*
X39622557Y-42626893D01*
X39632821Y-42621942D01*
X39651310Y-42634676D01*
X39690820Y-42669882D01*
X39746922Y-42723062D01*
X39815187Y-42789718D01*
X39891186Y-42865354D01*
X39970492Y-42945472D01*
X40048675Y-43025574D01*
X40121307Y-43101164D01*
X40183959Y-43167745D01*
X40232203Y-43220818D01*
X40261610Y-43255887D01*
X40268641Y-43267623D01*
X40258523Y-43289260D01*
X40230159Y-43336662D01*
X40186529Y-43405193D01*
X40130618Y-43490215D01*
X40065406Y-43587093D01*
X40027619Y-43642350D01*
X39958743Y-43743248D01*
X39897540Y-43834299D01*
X39846978Y-43910970D01*
X39810028Y-43968728D01*
X39789658Y-44003043D01*
X39786597Y-44010254D01*
X39793536Y-44030748D01*
X39812451Y-44078513D01*
X39840487Y-44146832D01*
X39874791Y-44228989D01*
X39912509Y-44318270D01*
X39950787Y-44407958D01*
X39986770Y-44491338D01*
X40017606Y-44561694D01*
X40040439Y-44612310D01*
X40052417Y-44636471D01*
X40053124Y-44637422D01*
X40071931Y-44642036D01*
X40122018Y-44652328D01*
X40198193Y-44667287D01*
X40295265Y-44685901D01*
X40408043Y-44707159D01*
X40473842Y-44719418D01*
X40594350Y-44742362D01*
X40703197Y-44764195D01*
X40794876Y-44783722D01*
X40863881Y-44799748D01*
X40904704Y-44811079D01*
X40912911Y-44814674D01*
X40920948Y-44839006D01*
X40927433Y-44893959D01*
X40932370Y-44973108D01*
X40935764Y-45070026D01*
X40937618Y-45178287D01*
X40937938Y-45291465D01*
X40936727Y-45403135D01*
X40933990Y-45506868D01*
X40929731Y-45596241D01*
X40923955Y-45664826D01*
X40916667Y-45706197D01*
X40912295Y-45714810D01*
X40886164Y-45725133D01*
X40830793Y-45739892D01*
X40753507Y-45757352D01*
X40661630Y-45775780D01*
X40629558Y-45781741D01*
X40474924Y-45810066D01*
X40352775Y-45832876D01*
X40259073Y-45851080D01*
X40189784Y-45865583D01*
X40140871Y-45877292D01*
X40108297Y-45887115D01*
X40088028Y-45895956D01*
X40076026Y-45904724D01*
X40074347Y-45906457D01*
X40057584Y-45934371D01*
X40032014Y-45988695D01*
X40000188Y-46062777D01*
X39964660Y-46149965D01*
X39927983Y-46243608D01*
X39892711Y-46337052D01*
X39861396Y-46423647D01*
X39836593Y-46496740D01*
X39820854Y-46549678D01*
X39816732Y-46575811D01*
X39817076Y-46576726D01*
X39831041Y-46598086D01*
X39862722Y-46645084D01*
X39908791Y-46712827D01*
X39965918Y-46796423D01*
X40030773Y-46890982D01*
X40049243Y-46917854D01*
X40115099Y-47015275D01*
X40173050Y-47104163D01*
X40219938Y-47179412D01*
X40252607Y-47235920D01*
X40267900Y-47268581D01*
X40268641Y-47272593D01*
X40255792Y-47293684D01*
X40220288Y-47335464D01*
X40166693Y-47393445D01*
X40099571Y-47463135D01*
X40023487Y-47540045D01*
X39943004Y-47619683D01*
X39862687Y-47697561D01*
X39787099Y-47769186D01*
X39720805Y-47830070D01*
X39668369Y-47875721D01*
X39634355Y-47901650D01*
X39624945Y-47905883D01*
X39603043Y-47895912D01*
X39558200Y-47869020D01*
X39497721Y-47829736D01*
X39451189Y-47798117D01*
X39366875Y-47740098D01*
X39267026Y-47671784D01*
X39166873Y-47603579D01*
X39113027Y-47567075D01*
X38930771Y-47443800D01*
X38777781Y-47526520D01*
X38708082Y-47562759D01*
X38648814Y-47590926D01*
X38608711Y-47606991D01*
X38598503Y-47609226D01*
X38586229Y-47592722D01*
X38562013Y-47546082D01*
X38527663Y-47473609D01*
X38484988Y-47379606D01*
X38435794Y-47268374D01*
X38381890Y-47144215D01*
X38325084Y-47011432D01*
X38267182Y-46874327D01*
X38209993Y-46737202D01*
X38155324Y-46604358D01*
X38104984Y-46480098D01*
X38060780Y-46368725D01*
X38024519Y-46274539D01*
X37998009Y-46201844D01*
X37983058Y-46154941D01*
X37980654Y-46138833D01*
X37999711Y-46118286D01*
X38041436Y-46084933D01*
X38097106Y-46045702D01*
X38101778Y-46042599D01*
X38245664Y-45927423D01*
X38361683Y-45793053D01*
X38448830Y-45643784D01*
X38506099Y-45483913D01*
X38532486Y-45317737D01*
X38526985Y-45149552D01*
X38488590Y-44983655D01*
X38416295Y-44824342D01*
X38395026Y-44789487D01*
X38284396Y-44648737D01*
X38153702Y-44535714D01*
X38007464Y-44451003D01*
X37850208Y-44395194D01*
X37686457Y-44368874D01*
X37520733Y-44372630D01*
X37357562Y-44407050D01*
X37201465Y-44472723D01*
X37056967Y-44570235D01*
X37012269Y-44609813D01*
X36898512Y-44733703D01*
X36815618Y-44864124D01*
X36758756Y-45010315D01*
X36727087Y-45155088D01*
X36719269Y-45317860D01*
X36745338Y-45481440D01*
X36802645Y-45640298D01*
X36888544Y-45788906D01*
X37000386Y-45921735D01*
X37135523Y-46033256D01*
X37153283Y-46045011D01*
X37209550Y-46083508D01*
X37252323Y-46116863D01*
X37272772Y-46138160D01*
X37273069Y-46138833D01*
X37268679Y-46161871D01*
X37251276Y-46214157D01*
X37222668Y-46291390D01*
X37184665Y-46389268D01*
X37139074Y-46503491D01*
X37087703Y-46629758D01*
X37032362Y-46763767D01*
X36974858Y-46901218D01*
X36917001Y-47037808D01*
X36860598Y-47169237D01*
X36807458Y-47291205D01*
X36759390Y-47399409D01*
X36718201Y-47489549D01*
X36685701Y-47557323D01*
X36663697Y-47598430D01*
X36654836Y-47609226D01*
X36627760Y-47600819D01*
X36577097Y-47578272D01*
X36511583Y-47545613D01*
X36475559Y-47526520D01*
X36322568Y-47443800D01*
X36140312Y-47567075D01*
X36047275Y-47630228D01*
X35945415Y-47699727D01*
X35849962Y-47765165D01*
X35802150Y-47798117D01*
X35734905Y-47843273D01*
X35677964Y-47879057D01*
X35638754Y-47900938D01*
X35626019Y-47905563D01*
X35607483Y-47893085D01*
X35566459Y-47858252D01*
X35506925Y-47804678D01*
X35432858Y-47735983D01*
X35348235Y-47655781D01*
X35294715Y-47604286D01*
X35201081Y-47512286D01*
X35120159Y-47429999D01*
X35055223Y-47360945D01*
X35009542Y-47308644D01*
X34986389Y-47276616D01*
X34984168Y-47270116D01*
X34994476Y-47245394D01*
X35022961Y-47195405D01*
X35066463Y-47125212D01*
X35121823Y-47039875D01*
X35185880Y-46944456D01*
X35204097Y-46917854D01*
X35270473Y-46821167D01*
X35330022Y-46734117D01*
X35379416Y-46661595D01*
X35415325Y-46608493D01*
X35434419Y-46579703D01*
X35436264Y-46576726D01*
X35433505Y-46553782D01*
X35418862Y-46503336D01*
X35394887Y-46432041D01*
X35364134Y-46346547D01*
X35329156Y-46253507D01*
X35292507Y-46159574D01*
X35256739Y-46071399D01*
X35224406Y-45995634D01*
X35198062Y-45938931D01*
X35180258Y-45907943D01*
X35178993Y-45906457D01*
X35168106Y-45897601D01*
X35149718Y-45888843D01*
X35119794Y-45879277D01*
X35074297Y-45867996D01*
X35009191Y-45854093D01*
X34920439Y-45836663D01*
X34804007Y-45814798D01*
X34655858Y-45787591D01*
X34623782Y-45781741D01*
X34528714Y-45763374D01*
X34445835Y-45745405D01*
X34382470Y-45729569D01*
X34345942Y-45717600D01*
X34341044Y-45714810D01*
X34332973Y-45690072D01*
X34326413Y-45634790D01*
X34321367Y-45555389D01*
X34317841Y-45458296D01*
X34315839Y-45349938D01*
X34315364Y-45236740D01*
X34316423Y-45125128D01*
X34319018Y-45021529D01*
X34323154Y-44932368D01*
X34328837Y-44864072D01*
X34336069Y-44823066D01*
X34340429Y-44814674D01*
X34364702Y-44806208D01*
X34419974Y-44792435D01*
X34500738Y-44774550D01*
X34601488Y-44753748D01*
X34716717Y-44731223D01*
X34779498Y-44719418D01*
X34898613Y-44697151D01*
X35004835Y-44676979D01*
X35092973Y-44659915D01*
X35157834Y-44646969D01*
X35194226Y-44639155D01*
X35200216Y-44637422D01*
X35210339Y-44617890D01*
X35231738Y-44570843D01*
X35261561Y-44503003D01*
X35296955Y-44421091D01*
X35335068Y-44331828D01*
X35373047Y-44241935D01*
X35408040Y-44158135D01*
X35437194Y-44087147D01*
X35457657Y-44035694D01*
X35466577Y-44010497D01*
X35466743Y-44009396D01*
X35456631Y-43989519D01*
X35428283Y-43943777D01*
X35384677Y-43876717D01*
X35328794Y-43792884D01*
X35263613Y-43696826D01*
X35225721Y-43641650D01*
X35156675Y-43540481D01*
X35095350Y-43448630D01*
X35044737Y-43370744D01*
X35007829Y-43311469D01*
X34987618Y-43275451D01*
X34984699Y-43267377D01*
X34997247Y-43248584D01*
X35031937Y-43208457D01*
X35084337Y-43151493D01*
X35150016Y-43082185D01*
X35224544Y-43005031D01*
X35303487Y-42924525D01*
X35382417Y-42845163D01*
X35456900Y-42771440D01*
X35522506Y-42707852D01*
X35574804Y-42658894D01*
X35609361Y-42629061D01*
X35620922Y-42621942D01*
X35639746Y-42631953D01*
X35684769Y-42660078D01*
X35751613Y-42703454D01*
X35835901Y-42759218D01*
X35933256Y-42824506D01*
X36006693Y-42874246D01*
X36377733Y-43126551D01*
X36996305Y-42871555D01*
X37080125Y-42426931D01*
X37163946Y-41982307D01*
X38089394Y-41982307D01*
X38173214Y-42426931D01*
D12*
X90666400Y-50200000D02*
X90666400Y-48700000D01*
X88926400Y-50200000D02*
X90666400Y-50200000D01*
X83306400Y-28140000D02*
X90426400Y-28140000D01*
X83306400Y-49960000D02*
X90426400Y-49960000D01*
X90426400Y-49960000D02*
X90426400Y-28140000D01*
X83306400Y-49960000D02*
X83306400Y-28140000D01*
X88866400Y-49960000D02*
X88866400Y-28140000D01*
X88321400Y-30300000D02*
G75*
G03X88321400Y-30300000I-1555000J0D01*
G01*
X88321400Y-33800000D02*
G75*
G03X88321400Y-33800000I-1555000J0D01*
G01*
X88321400Y-37300000D02*
G75*
G03X88321400Y-37300000I-1555000J0D01*
G01*
X88321400Y-40800000D02*
G75*
G03X88321400Y-40800000I-1555000J0D01*
G01*
X88321400Y-44300000D02*
G75*
G03X88321400Y-44300000I-1555000J0D01*
G01*
X88321892Y-47772989D02*
G75*
G02X88198400Y-48408000I-1555492J-27011D01*
G01*
X87374142Y-49232109D02*
G75*
G02X86158400Y-49232000I-607742J1432109D01*
G01*
X85334291Y-48407742D02*
G75*
G02X85334400Y-47192000I1432109J607742D01*
G01*
X86158658Y-46367891D02*
G75*
G02X87374400Y-46368000I607742J-1432109D01*
G01*
X88197785Y-47192413D02*
G75*
G02X88321400Y-47800000I-1431385J-607587D01*
G01*
X24672600Y-39099800D02*
X23342600Y-39099800D01*
X24672600Y-37769800D02*
X24672600Y-39099800D01*
X24672600Y-36499800D02*
X22012600Y-36499800D01*
X22012600Y-36499800D02*
X22012600Y-31359800D01*
X24672600Y-36499800D02*
X24672600Y-31359800D01*
X24672600Y-31359800D02*
X22012600Y-31359800D01*
X62246400Y-35114800D02*
X46446400Y-35114800D01*
X46446400Y-23914800D02*
X62246400Y-23914800D01*
X46446400Y-23914800D02*
G75*
G02X44446400Y-21914800I0J2000000D01*
G01*
X64246400Y-21914800D02*
G75*
G02X62246400Y-23914800I-2000000J0D01*
G01*
X62246400Y-35114800D02*
G75*
G02X64246400Y-37114800I0J-2000000D01*
G01*
X44446400Y-37114800D02*
G75*
G02X46446400Y-35114800I2000000J0D01*
G01*
X64246400Y-37114800D02*
X82246400Y-37114800D01*
X64246400Y-21914800D02*
X82246400Y-21914800D01*
X26446400Y-21914800D02*
X44446400Y-21914800D01*
X82246400Y-21914800D02*
X82246400Y-37114800D01*
X26446400Y-37114800D02*
X44446400Y-37114800D01*
X26446400Y-21914800D02*
X26446400Y-37114800D01*
X25726400Y-20949800D02*
X82966400Y-20949800D01*
X25726400Y-38079800D02*
X25726400Y-20949800D01*
X82966400Y-38079800D02*
X25726400Y-38079800D01*
X82966400Y-20949800D02*
X82966400Y-38079800D01*
X75656400Y-28454800D02*
X75656400Y-30454800D01*
X78656400Y-25454800D02*
X78656400Y-33454800D01*
X77656400Y-32454800D02*
X77656400Y-26454800D01*
X76656400Y-27454800D02*
X76656400Y-31454800D01*
X32004800Y-50645200D02*
X32004800Y-46645200D01*
X31004800Y-45645200D02*
X31004800Y-51645200D01*
X30004800Y-52645200D02*
X30004800Y-44645200D01*
X33004800Y-49645200D02*
X33004800Y-47645200D01*
X25694800Y-57150200D02*
X25694800Y-40020200D01*
X25694800Y-40020200D02*
X82934800Y-40020200D01*
X82934800Y-40020200D02*
X82934800Y-57150200D01*
X82934800Y-57150200D02*
X25694800Y-57150200D01*
X82214800Y-56185200D02*
X82214800Y-40985200D01*
X82214800Y-40985200D02*
X64214800Y-40985200D01*
X26414800Y-56185200D02*
X26414800Y-40985200D01*
X82214800Y-56185200D02*
X64214800Y-56185200D01*
X44414800Y-56185200D02*
X26414800Y-56185200D01*
X44414800Y-40985200D02*
X26414800Y-40985200D01*
X64214800Y-40985200D02*
G75*
G02X62214800Y-42985200I-2000000J0D01*
G01*
X46414800Y-42985200D02*
G75*
G02X44414800Y-40985200I0J2000000D01*
G01*
X44414800Y-56185200D02*
G75*
G02X46414800Y-54185200I2000000J0D01*
G01*
X62214800Y-54185200D02*
G75*
G02X64214800Y-56185200I0J-2000000D01*
G01*
X62214800Y-54185200D02*
X46414800Y-54185200D01*
X46414800Y-42985200D02*
X62214800Y-42985200D01*
D10*
X22509266Y-39552180D02*
X22509266Y-40266466D01*
X22461647Y-40409323D01*
X22366409Y-40504561D01*
X22223552Y-40552180D01*
X22128314Y-40552180D01*
X22985457Y-40552180D02*
X22985457Y-39552180D01*
X23366409Y-39552180D01*
X23461647Y-39599800D01*
X23509266Y-39647419D01*
X23556885Y-39742657D01*
X23556885Y-39885514D01*
X23509266Y-39980752D01*
X23461647Y-40028371D01*
X23366409Y-40075990D01*
X22985457Y-40075990D01*
X24509266Y-40552180D02*
X23937838Y-40552180D01*
X24223552Y-40552180D02*
X24223552Y-39552180D01*
X24128314Y-39695038D01*
X24033076Y-39790276D01*
X23937838Y-39837895D01*
X20931285Y-21112171D02*
X21074142Y-21159790D01*
X21121761Y-21207409D01*
X21169380Y-21302647D01*
X21169380Y-21445504D01*
X21121761Y-21540742D01*
X21074142Y-21588361D01*
X20978904Y-21635980D01*
X20597952Y-21635980D01*
X20597952Y-20635980D01*
X20931285Y-20635980D01*
X21026523Y-20683600D01*
X21074142Y-20731219D01*
X21121761Y-20826457D01*
X21121761Y-20921695D01*
X21074142Y-21016933D01*
X21026523Y-21064552D01*
X20931285Y-21112171D01*
X20597952Y-21112171D01*
X21455095Y-20635980D02*
X22026523Y-20635980D01*
X21740809Y-21635980D02*
X21740809Y-20635980D01*
X22312238Y-20731219D02*
X22359857Y-20683600D01*
X22455095Y-20635980D01*
X22693190Y-20635980D01*
X22788428Y-20683600D01*
X22836047Y-20731219D01*
X22883666Y-20826457D01*
X22883666Y-20921695D01*
X22836047Y-21064552D01*
X22264619Y-21635980D01*
X22883666Y-21635980D01*
X83335447Y-29526228D02*
X84097352Y-29526228D01*
X24565447Y-29526228D02*
X25327352Y-29526228D01*
X24946400Y-29907180D02*
X24946400Y-29145276D01*
X20829685Y-57027771D02*
X20972542Y-57075390D01*
X21020161Y-57123009D01*
X21067780Y-57218247D01*
X21067780Y-57361104D01*
X21020161Y-57456342D01*
X20972542Y-57503961D01*
X20877304Y-57551580D01*
X20496352Y-57551580D01*
X20496352Y-56551580D01*
X20829685Y-56551580D01*
X20924923Y-56599200D01*
X20972542Y-56646819D01*
X21020161Y-56742057D01*
X21020161Y-56837295D01*
X20972542Y-56932533D01*
X20924923Y-56980152D01*
X20829685Y-57027771D01*
X20496352Y-57027771D01*
X21353495Y-56551580D02*
X21924923Y-56551580D01*
X21639209Y-57551580D02*
X21639209Y-56551580D01*
X22782066Y-57551580D02*
X22210638Y-57551580D01*
X22496352Y-57551580D02*
X22496352Y-56551580D01*
X22401114Y-56694438D01*
X22305876Y-56789676D01*
X22210638Y-56837295D01*
X83333847Y-48716628D02*
X84095752Y-48716628D01*
X83714800Y-49097580D02*
X83714800Y-48335676D01*
X24563847Y-48716628D02*
X25325752Y-48716628D01*
M02*
