M48
; DRILL file {KiCad 5.1.5-52549c5~86~ubuntu18.04.1} date vie 25 sep 2020 18:23:49 -05
; FORMAT={-:-/ absolute / metric / decimal}
; #@! TF.CreationDate,2020-09-25T18:23:49-05:00
; #@! TF.GenerationSoftware,Kicad,Pcbnew,5.1.5-52549c5~86~ubuntu18.04.1
; #@! TF.FileFunction,NonPlated,1,2,NPTH
FMAT,2
METRIC
T1C3.000
%
G90
G05
T1
X116.571Y-127.264
X116.571Y-109.484
X116.571Y-91.704
X96.251Y-145.044
X172.451Y-155.204
X96.251Y-127.264
X172.451Y-84.084
X172.451Y-137.424
X152.131Y-84.084
X124.191Y-84.084
X152.131Y-155.204
X96.251Y-109.484
X172.451Y-119.644
X152.131Y-137.424
X96.251Y-84.084
X96.251Y-91.704
X96.251Y-73.924
X152.131Y-119.644
X152.131Y-101.864
X144.511Y-145.044
X144.511Y-127.264
X144.511Y-109.484
X116.571Y-101.864
X144.511Y-91.704
X144.511Y-73.924
X116.571Y-73.924
X124.191Y-145.044
X124.191Y-127.264
X116.571Y-155.204
X124.191Y-109.484
X116.571Y-137.424
X96.251Y-155.204
X124.191Y-91.704
X116.571Y-119.644
X96.251Y-101.864
X96.251Y-137.424
X172.451Y-101.864
X124.191Y-73.924
X144.511Y-101.864
X96.251Y-119.644
X172.451Y-145.044
X172.451Y-127.264
X172.451Y-109.484
X172.451Y-91.704
X172.451Y-73.924
X116.571Y-84.084
X152.131Y-145.044
X124.191Y-101.864
X152.131Y-127.264
X144.511Y-155.204
X152.131Y-109.484
X144.511Y-137.424
X124.191Y-155.204
X152.131Y-91.704
X144.511Y-119.644
X144.511Y-84.084
X124.191Y-137.424
X152.131Y-73.924
X124.191Y-119.644
X116.571Y-145.044
T0
M30
