G04 #@! TF.GenerationSoftware,KiCad,Pcbnew,5.1.5-52549c5~86~ubuntu18.04.1*
G04 #@! TF.CreationDate,2020-09-14T14:07:13-05:00*
G04 #@! TF.ProjectId,,58585858-5858-4585-9858-585858585858,rev?*
G04 #@! TF.SameCoordinates,Original*
G04 #@! TF.FileFunction,Soldermask,Top*
G04 #@! TF.FilePolarity,Negative*
%FSLAX46Y46*%
G04 Gerber Fmt 4.6, Leading zero omitted, Abs format (unit mm)*
G04 Created by KiCad (PCBNEW 5.1.5-52549c5~86~ubuntu18.04.1) date 2020-09-14 14:07:13*
%MOMM*%
%LPD*%
G04 APERTURE LIST*
%ADD10C,0.100000*%
G04 APERTURE END LIST*
D10*
G36*
X110752503Y-107224675D02*
G01*
X110980171Y-107318978D01*
X111185066Y-107455885D01*
X111359315Y-107630134D01*
X111496222Y-107835029D01*
X111590525Y-108062697D01*
X111638600Y-108304387D01*
X111638600Y-108550813D01*
X111590525Y-108792503D01*
X111496222Y-109020171D01*
X111359315Y-109225066D01*
X111185066Y-109399315D01*
X110980171Y-109536222D01*
X110980170Y-109536223D01*
X110980169Y-109536223D01*
X110752503Y-109630525D01*
X110510814Y-109678600D01*
X110264386Y-109678600D01*
X110022697Y-109630525D01*
X109795031Y-109536223D01*
X109795030Y-109536223D01*
X109795029Y-109536222D01*
X109590134Y-109399315D01*
X109415885Y-109225066D01*
X109278978Y-109020171D01*
X109184675Y-108792503D01*
X109136600Y-108550813D01*
X109136600Y-108304387D01*
X109184675Y-108062697D01*
X109278978Y-107835029D01*
X109415885Y-107630134D01*
X109590134Y-107455885D01*
X109795029Y-107318978D01*
X110022697Y-107224675D01*
X110264386Y-107176600D01*
X110510814Y-107176600D01*
X110752503Y-107224675D01*
G37*
G36*
X82752503Y-107224675D02*
G01*
X82980171Y-107318978D01*
X83185066Y-107455885D01*
X83359315Y-107630134D01*
X83496222Y-107835029D01*
X83590525Y-108062697D01*
X83638600Y-108304387D01*
X83638600Y-108550813D01*
X83590525Y-108792503D01*
X83496222Y-109020171D01*
X83359315Y-109225066D01*
X83185066Y-109399315D01*
X82980171Y-109536222D01*
X82980170Y-109536223D01*
X82980169Y-109536223D01*
X82752503Y-109630525D01*
X82510814Y-109678600D01*
X82264386Y-109678600D01*
X82022697Y-109630525D01*
X81795031Y-109536223D01*
X81795030Y-109536223D01*
X81795029Y-109536222D01*
X81590134Y-109399315D01*
X81415885Y-109225066D01*
X81278978Y-109020171D01*
X81184675Y-108792503D01*
X81136600Y-108550813D01*
X81136600Y-108304387D01*
X81184675Y-108062697D01*
X81278978Y-107835029D01*
X81415885Y-107630134D01*
X81590134Y-107455885D01*
X81795029Y-107318978D01*
X82022697Y-107224675D01*
X82264386Y-107176600D01*
X82510814Y-107176600D01*
X82752503Y-107224675D01*
G37*
G36*
X62638600Y-109678600D02*
G01*
X60136600Y-109678600D01*
X60136600Y-107176600D01*
X62638600Y-107176600D01*
X62638600Y-109678600D01*
G37*
G36*
X65252503Y-107224675D02*
G01*
X65480171Y-107318978D01*
X65685066Y-107455885D01*
X65859315Y-107630134D01*
X65996222Y-107835029D01*
X66090525Y-108062697D01*
X66138600Y-108304387D01*
X66138600Y-108550813D01*
X66090525Y-108792503D01*
X65996222Y-109020171D01*
X65859315Y-109225066D01*
X65685066Y-109399315D01*
X65480171Y-109536222D01*
X65480170Y-109536223D01*
X65480169Y-109536223D01*
X65252503Y-109630525D01*
X65010814Y-109678600D01*
X64764386Y-109678600D01*
X64522697Y-109630525D01*
X64295031Y-109536223D01*
X64295030Y-109536223D01*
X64295029Y-109536222D01*
X64090134Y-109399315D01*
X63915885Y-109225066D01*
X63778978Y-109020171D01*
X63684675Y-108792503D01*
X63636600Y-108550813D01*
X63636600Y-108304387D01*
X63684675Y-108062697D01*
X63778978Y-107835029D01*
X63915885Y-107630134D01*
X64090134Y-107455885D01*
X64295029Y-107318978D01*
X64522697Y-107224675D01*
X64764386Y-107176600D01*
X65010814Y-107176600D01*
X65252503Y-107224675D01*
G37*
G36*
X68752503Y-107224675D02*
G01*
X68980171Y-107318978D01*
X69185066Y-107455885D01*
X69359315Y-107630134D01*
X69496222Y-107835029D01*
X69590525Y-108062697D01*
X69638600Y-108304387D01*
X69638600Y-108550813D01*
X69590525Y-108792503D01*
X69496222Y-109020171D01*
X69359315Y-109225066D01*
X69185066Y-109399315D01*
X68980171Y-109536222D01*
X68980170Y-109536223D01*
X68980169Y-109536223D01*
X68752503Y-109630525D01*
X68510814Y-109678600D01*
X68264386Y-109678600D01*
X68022697Y-109630525D01*
X67795031Y-109536223D01*
X67795030Y-109536223D01*
X67795029Y-109536222D01*
X67590134Y-109399315D01*
X67415885Y-109225066D01*
X67278978Y-109020171D01*
X67184675Y-108792503D01*
X67136600Y-108550813D01*
X67136600Y-108304387D01*
X67184675Y-108062697D01*
X67278978Y-107835029D01*
X67415885Y-107630134D01*
X67590134Y-107455885D01*
X67795029Y-107318978D01*
X68022697Y-107224675D01*
X68264386Y-107176600D01*
X68510814Y-107176600D01*
X68752503Y-107224675D01*
G37*
G36*
X72252503Y-107224675D02*
G01*
X72480171Y-107318978D01*
X72685066Y-107455885D01*
X72859315Y-107630134D01*
X72996222Y-107835029D01*
X73090525Y-108062697D01*
X73138600Y-108304387D01*
X73138600Y-108550813D01*
X73090525Y-108792503D01*
X72996222Y-109020171D01*
X72859315Y-109225066D01*
X72685066Y-109399315D01*
X72480171Y-109536222D01*
X72480170Y-109536223D01*
X72480169Y-109536223D01*
X72252503Y-109630525D01*
X72010814Y-109678600D01*
X71764386Y-109678600D01*
X71522697Y-109630525D01*
X71295031Y-109536223D01*
X71295030Y-109536223D01*
X71295029Y-109536222D01*
X71090134Y-109399315D01*
X70915885Y-109225066D01*
X70778978Y-109020171D01*
X70684675Y-108792503D01*
X70636600Y-108550813D01*
X70636600Y-108304387D01*
X70684675Y-108062697D01*
X70778978Y-107835029D01*
X70915885Y-107630134D01*
X71090134Y-107455885D01*
X71295029Y-107318978D01*
X71522697Y-107224675D01*
X71764386Y-107176600D01*
X72010814Y-107176600D01*
X72252503Y-107224675D01*
G37*
G36*
X75752503Y-107224675D02*
G01*
X75980171Y-107318978D01*
X76185066Y-107455885D01*
X76359315Y-107630134D01*
X76496222Y-107835029D01*
X76590525Y-108062697D01*
X76638600Y-108304387D01*
X76638600Y-108550813D01*
X76590525Y-108792503D01*
X76496222Y-109020171D01*
X76359315Y-109225066D01*
X76185066Y-109399315D01*
X75980171Y-109536222D01*
X75980170Y-109536223D01*
X75980169Y-109536223D01*
X75752503Y-109630525D01*
X75510814Y-109678600D01*
X75264386Y-109678600D01*
X75022697Y-109630525D01*
X74795031Y-109536223D01*
X74795030Y-109536223D01*
X74795029Y-109536222D01*
X74590134Y-109399315D01*
X74415885Y-109225066D01*
X74278978Y-109020171D01*
X74184675Y-108792503D01*
X74136600Y-108550813D01*
X74136600Y-108304387D01*
X74184675Y-108062697D01*
X74278978Y-107835029D01*
X74415885Y-107630134D01*
X74590134Y-107455885D01*
X74795029Y-107318978D01*
X75022697Y-107224675D01*
X75264386Y-107176600D01*
X75510814Y-107176600D01*
X75752503Y-107224675D01*
G37*
G36*
X79252503Y-107224675D02*
G01*
X79480171Y-107318978D01*
X79685066Y-107455885D01*
X79859315Y-107630134D01*
X79996222Y-107835029D01*
X80090525Y-108062697D01*
X80138600Y-108304387D01*
X80138600Y-108550813D01*
X80090525Y-108792503D01*
X79996222Y-109020171D01*
X79859315Y-109225066D01*
X79685066Y-109399315D01*
X79480171Y-109536222D01*
X79480170Y-109536223D01*
X79480169Y-109536223D01*
X79252503Y-109630525D01*
X79010814Y-109678600D01*
X78764386Y-109678600D01*
X78522697Y-109630525D01*
X78295031Y-109536223D01*
X78295030Y-109536223D01*
X78295029Y-109536222D01*
X78090134Y-109399315D01*
X77915885Y-109225066D01*
X77778978Y-109020171D01*
X77684675Y-108792503D01*
X77636600Y-108550813D01*
X77636600Y-108304387D01*
X77684675Y-108062697D01*
X77778978Y-107835029D01*
X77915885Y-107630134D01*
X78090134Y-107455885D01*
X78295029Y-107318978D01*
X78522697Y-107224675D01*
X78764386Y-107176600D01*
X79010814Y-107176600D01*
X79252503Y-107224675D01*
G37*
G36*
X86252503Y-107224675D02*
G01*
X86480171Y-107318978D01*
X86685066Y-107455885D01*
X86859315Y-107630134D01*
X86996222Y-107835029D01*
X87090525Y-108062697D01*
X87138600Y-108304387D01*
X87138600Y-108550813D01*
X87090525Y-108792503D01*
X86996222Y-109020171D01*
X86859315Y-109225066D01*
X86685066Y-109399315D01*
X86480171Y-109536222D01*
X86480170Y-109536223D01*
X86480169Y-109536223D01*
X86252503Y-109630525D01*
X86010814Y-109678600D01*
X85764386Y-109678600D01*
X85522697Y-109630525D01*
X85295031Y-109536223D01*
X85295030Y-109536223D01*
X85295029Y-109536222D01*
X85090134Y-109399315D01*
X84915885Y-109225066D01*
X84778978Y-109020171D01*
X84684675Y-108792503D01*
X84636600Y-108550813D01*
X84636600Y-108304387D01*
X84684675Y-108062697D01*
X84778978Y-107835029D01*
X84915885Y-107630134D01*
X85090134Y-107455885D01*
X85295029Y-107318978D01*
X85522697Y-107224675D01*
X85764386Y-107176600D01*
X86010814Y-107176600D01*
X86252503Y-107224675D01*
G37*
G36*
X89752503Y-107224675D02*
G01*
X89980171Y-107318978D01*
X90185066Y-107455885D01*
X90359315Y-107630134D01*
X90496222Y-107835029D01*
X90590525Y-108062697D01*
X90638600Y-108304387D01*
X90638600Y-108550813D01*
X90590525Y-108792503D01*
X90496222Y-109020171D01*
X90359315Y-109225066D01*
X90185066Y-109399315D01*
X89980171Y-109536222D01*
X89980170Y-109536223D01*
X89980169Y-109536223D01*
X89752503Y-109630525D01*
X89510814Y-109678600D01*
X89264386Y-109678600D01*
X89022697Y-109630525D01*
X88795031Y-109536223D01*
X88795030Y-109536223D01*
X88795029Y-109536222D01*
X88590134Y-109399315D01*
X88415885Y-109225066D01*
X88278978Y-109020171D01*
X88184675Y-108792503D01*
X88136600Y-108550813D01*
X88136600Y-108304387D01*
X88184675Y-108062697D01*
X88278978Y-107835029D01*
X88415885Y-107630134D01*
X88590134Y-107455885D01*
X88795029Y-107318978D01*
X89022697Y-107224675D01*
X89264386Y-107176600D01*
X89510814Y-107176600D01*
X89752503Y-107224675D01*
G37*
G36*
X93252503Y-107224675D02*
G01*
X93480171Y-107318978D01*
X93685066Y-107455885D01*
X93859315Y-107630134D01*
X93996222Y-107835029D01*
X94090525Y-108062697D01*
X94138600Y-108304387D01*
X94138600Y-108550813D01*
X94090525Y-108792503D01*
X93996222Y-109020171D01*
X93859315Y-109225066D01*
X93685066Y-109399315D01*
X93480171Y-109536222D01*
X93480170Y-109536223D01*
X93480169Y-109536223D01*
X93252503Y-109630525D01*
X93010814Y-109678600D01*
X92764386Y-109678600D01*
X92522697Y-109630525D01*
X92295031Y-109536223D01*
X92295030Y-109536223D01*
X92295029Y-109536222D01*
X92090134Y-109399315D01*
X91915885Y-109225066D01*
X91778978Y-109020171D01*
X91684675Y-108792503D01*
X91636600Y-108550813D01*
X91636600Y-108304387D01*
X91684675Y-108062697D01*
X91778978Y-107835029D01*
X91915885Y-107630134D01*
X92090134Y-107455885D01*
X92295029Y-107318978D01*
X92522697Y-107224675D01*
X92764386Y-107176600D01*
X93010814Y-107176600D01*
X93252503Y-107224675D01*
G37*
G36*
X96752503Y-107224675D02*
G01*
X96980171Y-107318978D01*
X97185066Y-107455885D01*
X97359315Y-107630134D01*
X97496222Y-107835029D01*
X97590525Y-108062697D01*
X97638600Y-108304387D01*
X97638600Y-108550813D01*
X97590525Y-108792503D01*
X97496222Y-109020171D01*
X97359315Y-109225066D01*
X97185066Y-109399315D01*
X96980171Y-109536222D01*
X96980170Y-109536223D01*
X96980169Y-109536223D01*
X96752503Y-109630525D01*
X96510814Y-109678600D01*
X96264386Y-109678600D01*
X96022697Y-109630525D01*
X95795031Y-109536223D01*
X95795030Y-109536223D01*
X95795029Y-109536222D01*
X95590134Y-109399315D01*
X95415885Y-109225066D01*
X95278978Y-109020171D01*
X95184675Y-108792503D01*
X95136600Y-108550813D01*
X95136600Y-108304387D01*
X95184675Y-108062697D01*
X95278978Y-107835029D01*
X95415885Y-107630134D01*
X95590134Y-107455885D01*
X95795029Y-107318978D01*
X96022697Y-107224675D01*
X96264386Y-107176600D01*
X96510814Y-107176600D01*
X96752503Y-107224675D01*
G37*
G36*
X100252503Y-107224675D02*
G01*
X100480171Y-107318978D01*
X100685066Y-107455885D01*
X100859315Y-107630134D01*
X100996222Y-107835029D01*
X101090525Y-108062697D01*
X101138600Y-108304387D01*
X101138600Y-108550813D01*
X101090525Y-108792503D01*
X100996222Y-109020171D01*
X100859315Y-109225066D01*
X100685066Y-109399315D01*
X100480171Y-109536222D01*
X100480170Y-109536223D01*
X100480169Y-109536223D01*
X100252503Y-109630525D01*
X100010814Y-109678600D01*
X99764386Y-109678600D01*
X99522697Y-109630525D01*
X99295031Y-109536223D01*
X99295030Y-109536223D01*
X99295029Y-109536222D01*
X99090134Y-109399315D01*
X98915885Y-109225066D01*
X98778978Y-109020171D01*
X98684675Y-108792503D01*
X98636600Y-108550813D01*
X98636600Y-108304387D01*
X98684675Y-108062697D01*
X98778978Y-107835029D01*
X98915885Y-107630134D01*
X99090134Y-107455885D01*
X99295029Y-107318978D01*
X99522697Y-107224675D01*
X99764386Y-107176600D01*
X100010814Y-107176600D01*
X100252503Y-107224675D01*
G37*
G36*
X103752503Y-107224675D02*
G01*
X103980171Y-107318978D01*
X104185066Y-107455885D01*
X104359315Y-107630134D01*
X104496222Y-107835029D01*
X104590525Y-108062697D01*
X104638600Y-108304387D01*
X104638600Y-108550813D01*
X104590525Y-108792503D01*
X104496222Y-109020171D01*
X104359315Y-109225066D01*
X104185066Y-109399315D01*
X103980171Y-109536222D01*
X103980170Y-109536223D01*
X103980169Y-109536223D01*
X103752503Y-109630525D01*
X103510814Y-109678600D01*
X103264386Y-109678600D01*
X103022697Y-109630525D01*
X102795031Y-109536223D01*
X102795030Y-109536223D01*
X102795029Y-109536222D01*
X102590134Y-109399315D01*
X102415885Y-109225066D01*
X102278978Y-109020171D01*
X102184675Y-108792503D01*
X102136600Y-108550813D01*
X102136600Y-108304387D01*
X102184675Y-108062697D01*
X102278978Y-107835029D01*
X102415885Y-107630134D01*
X102590134Y-107455885D01*
X102795029Y-107318978D01*
X103022697Y-107224675D01*
X103264386Y-107176600D01*
X103510814Y-107176600D01*
X103752503Y-107224675D01*
G37*
G36*
X107252503Y-107224675D02*
G01*
X107480171Y-107318978D01*
X107685066Y-107455885D01*
X107859315Y-107630134D01*
X107996222Y-107835029D01*
X108090525Y-108062697D01*
X108138600Y-108304387D01*
X108138600Y-108550813D01*
X108090525Y-108792503D01*
X107996222Y-109020171D01*
X107859315Y-109225066D01*
X107685066Y-109399315D01*
X107480171Y-109536222D01*
X107480170Y-109536223D01*
X107480169Y-109536223D01*
X107252503Y-109630525D01*
X107010814Y-109678600D01*
X106764386Y-109678600D01*
X106522697Y-109630525D01*
X106295031Y-109536223D01*
X106295030Y-109536223D01*
X106295029Y-109536222D01*
X106090134Y-109399315D01*
X105915885Y-109225066D01*
X105778978Y-109020171D01*
X105684675Y-108792503D01*
X105636600Y-108550813D01*
X105636600Y-108304387D01*
X105684675Y-108062697D01*
X105778978Y-107835029D01*
X105915885Y-107630134D01*
X106090134Y-107455885D01*
X106295029Y-107318978D01*
X106522697Y-107224675D01*
X106764386Y-107176600D01*
X107010814Y-107176600D01*
X107252503Y-107224675D01*
G37*
G36*
X78381112Y-100358527D02*
G01*
X78530412Y-100388224D01*
X78694384Y-100456144D01*
X78841954Y-100554747D01*
X78967453Y-100680246D01*
X79066056Y-100827816D01*
X79133976Y-100991788D01*
X79168600Y-101165859D01*
X79168600Y-101343341D01*
X79133976Y-101517412D01*
X79066056Y-101681384D01*
X78967453Y-101828954D01*
X78841954Y-101954453D01*
X78694384Y-102053056D01*
X78530412Y-102120976D01*
X78381112Y-102150673D01*
X78356342Y-102155600D01*
X78178858Y-102155600D01*
X78154088Y-102150673D01*
X78004788Y-102120976D01*
X77840816Y-102053056D01*
X77693246Y-101954453D01*
X77567747Y-101828954D01*
X77469144Y-101681384D01*
X77401224Y-101517412D01*
X77366600Y-101343341D01*
X77366600Y-101165859D01*
X77401224Y-100991788D01*
X77469144Y-100827816D01*
X77567747Y-100680246D01*
X77693246Y-100554747D01*
X77840816Y-100456144D01*
X78004788Y-100388224D01*
X78154088Y-100358527D01*
X78178858Y-100353600D01*
X78356342Y-100353600D01*
X78381112Y-100358527D01*
G37*
G36*
X86001112Y-100358527D02*
G01*
X86150412Y-100388224D01*
X86314384Y-100456144D01*
X86461954Y-100554747D01*
X86587453Y-100680246D01*
X86686056Y-100827816D01*
X86753976Y-100991788D01*
X86788600Y-101165859D01*
X86788600Y-101343341D01*
X86753976Y-101517412D01*
X86686056Y-101681384D01*
X86587453Y-101828954D01*
X86461954Y-101954453D01*
X86314384Y-102053056D01*
X86150412Y-102120976D01*
X86001112Y-102150673D01*
X85976342Y-102155600D01*
X85798858Y-102155600D01*
X85774088Y-102150673D01*
X85624788Y-102120976D01*
X85460816Y-102053056D01*
X85313246Y-101954453D01*
X85187747Y-101828954D01*
X85089144Y-101681384D01*
X85021224Y-101517412D01*
X84986600Y-101343341D01*
X84986600Y-101165859D01*
X85021224Y-100991788D01*
X85089144Y-100827816D01*
X85187747Y-100680246D01*
X85313246Y-100554747D01*
X85460816Y-100456144D01*
X85624788Y-100388224D01*
X85774088Y-100358527D01*
X85798858Y-100353600D01*
X85976342Y-100353600D01*
X86001112Y-100358527D01*
G37*
G36*
X91081112Y-100358527D02*
G01*
X91230412Y-100388224D01*
X91394384Y-100456144D01*
X91541954Y-100554747D01*
X91667453Y-100680246D01*
X91766056Y-100827816D01*
X91833976Y-100991788D01*
X91868600Y-101165859D01*
X91868600Y-101343341D01*
X91833976Y-101517412D01*
X91766056Y-101681384D01*
X91667453Y-101828954D01*
X91541954Y-101954453D01*
X91394384Y-102053056D01*
X91230412Y-102120976D01*
X91081112Y-102150673D01*
X91056342Y-102155600D01*
X90878858Y-102155600D01*
X90854088Y-102150673D01*
X90704788Y-102120976D01*
X90540816Y-102053056D01*
X90393246Y-101954453D01*
X90267747Y-101828954D01*
X90169144Y-101681384D01*
X90101224Y-101517412D01*
X90066600Y-101343341D01*
X90066600Y-101165859D01*
X90101224Y-100991788D01*
X90169144Y-100827816D01*
X90267747Y-100680246D01*
X90393246Y-100554747D01*
X90540816Y-100456144D01*
X90704788Y-100388224D01*
X90854088Y-100358527D01*
X90878858Y-100353600D01*
X91056342Y-100353600D01*
X91081112Y-100358527D01*
G37*
G36*
X93621112Y-100358527D02*
G01*
X93770412Y-100388224D01*
X93934384Y-100456144D01*
X94081954Y-100554747D01*
X94207453Y-100680246D01*
X94306056Y-100827816D01*
X94373976Y-100991788D01*
X94408600Y-101165859D01*
X94408600Y-101343341D01*
X94373976Y-101517412D01*
X94306056Y-101681384D01*
X94207453Y-101828954D01*
X94081954Y-101954453D01*
X93934384Y-102053056D01*
X93770412Y-102120976D01*
X93621112Y-102150673D01*
X93596342Y-102155600D01*
X93418858Y-102155600D01*
X93394088Y-102150673D01*
X93244788Y-102120976D01*
X93080816Y-102053056D01*
X92933246Y-101954453D01*
X92807747Y-101828954D01*
X92709144Y-101681384D01*
X92641224Y-101517412D01*
X92606600Y-101343341D01*
X92606600Y-101165859D01*
X92641224Y-100991788D01*
X92709144Y-100827816D01*
X92807747Y-100680246D01*
X92933246Y-100554747D01*
X93080816Y-100456144D01*
X93244788Y-100388224D01*
X93394088Y-100358527D01*
X93418858Y-100353600D01*
X93596342Y-100353600D01*
X93621112Y-100358527D01*
G37*
G36*
X98701112Y-100358527D02*
G01*
X98850412Y-100388224D01*
X99014384Y-100456144D01*
X99161954Y-100554747D01*
X99287453Y-100680246D01*
X99386056Y-100827816D01*
X99453976Y-100991788D01*
X99488600Y-101165859D01*
X99488600Y-101343341D01*
X99453976Y-101517412D01*
X99386056Y-101681384D01*
X99287453Y-101828954D01*
X99161954Y-101954453D01*
X99014384Y-102053056D01*
X98850412Y-102120976D01*
X98701112Y-102150673D01*
X98676342Y-102155600D01*
X98498858Y-102155600D01*
X98474088Y-102150673D01*
X98324788Y-102120976D01*
X98160816Y-102053056D01*
X98013246Y-101954453D01*
X97887747Y-101828954D01*
X97789144Y-101681384D01*
X97721224Y-101517412D01*
X97686600Y-101343341D01*
X97686600Y-101165859D01*
X97721224Y-100991788D01*
X97789144Y-100827816D01*
X97887747Y-100680246D01*
X98013246Y-100554747D01*
X98160816Y-100456144D01*
X98324788Y-100388224D01*
X98474088Y-100358527D01*
X98498858Y-100353600D01*
X98676342Y-100353600D01*
X98701112Y-100358527D01*
G37*
G36*
X88541112Y-100358527D02*
G01*
X88690412Y-100388224D01*
X88854384Y-100456144D01*
X89001954Y-100554747D01*
X89127453Y-100680246D01*
X89226056Y-100827816D01*
X89293976Y-100991788D01*
X89328600Y-101165859D01*
X89328600Y-101343341D01*
X89293976Y-101517412D01*
X89226056Y-101681384D01*
X89127453Y-101828954D01*
X89001954Y-101954453D01*
X88854384Y-102053056D01*
X88690412Y-102120976D01*
X88541112Y-102150673D01*
X88516342Y-102155600D01*
X88338858Y-102155600D01*
X88314088Y-102150673D01*
X88164788Y-102120976D01*
X88000816Y-102053056D01*
X87853246Y-101954453D01*
X87727747Y-101828954D01*
X87629144Y-101681384D01*
X87561224Y-101517412D01*
X87526600Y-101343341D01*
X87526600Y-101165859D01*
X87561224Y-100991788D01*
X87629144Y-100827816D01*
X87727747Y-100680246D01*
X87853246Y-100554747D01*
X88000816Y-100456144D01*
X88164788Y-100388224D01*
X88314088Y-100358527D01*
X88338858Y-100353600D01*
X88516342Y-100353600D01*
X88541112Y-100358527D01*
G37*
G36*
X83461112Y-100358527D02*
G01*
X83610412Y-100388224D01*
X83774384Y-100456144D01*
X83921954Y-100554747D01*
X84047453Y-100680246D01*
X84146056Y-100827816D01*
X84213976Y-100991788D01*
X84248600Y-101165859D01*
X84248600Y-101343341D01*
X84213976Y-101517412D01*
X84146056Y-101681384D01*
X84047453Y-101828954D01*
X83921954Y-101954453D01*
X83774384Y-102053056D01*
X83610412Y-102120976D01*
X83461112Y-102150673D01*
X83436342Y-102155600D01*
X83258858Y-102155600D01*
X83234088Y-102150673D01*
X83084788Y-102120976D01*
X82920816Y-102053056D01*
X82773246Y-101954453D01*
X82647747Y-101828954D01*
X82549144Y-101681384D01*
X82481224Y-101517412D01*
X82446600Y-101343341D01*
X82446600Y-101165859D01*
X82481224Y-100991788D01*
X82549144Y-100827816D01*
X82647747Y-100680246D01*
X82773246Y-100554747D01*
X82920816Y-100456144D01*
X83084788Y-100388224D01*
X83234088Y-100358527D01*
X83258858Y-100353600D01*
X83436342Y-100353600D01*
X83461112Y-100358527D01*
G37*
G36*
X80921112Y-100358527D02*
G01*
X81070412Y-100388224D01*
X81234384Y-100456144D01*
X81381954Y-100554747D01*
X81507453Y-100680246D01*
X81606056Y-100827816D01*
X81673976Y-100991788D01*
X81708600Y-101165859D01*
X81708600Y-101343341D01*
X81673976Y-101517412D01*
X81606056Y-101681384D01*
X81507453Y-101828954D01*
X81381954Y-101954453D01*
X81234384Y-102053056D01*
X81070412Y-102120976D01*
X80921112Y-102150673D01*
X80896342Y-102155600D01*
X80718858Y-102155600D01*
X80694088Y-102150673D01*
X80544788Y-102120976D01*
X80380816Y-102053056D01*
X80233246Y-101954453D01*
X80107747Y-101828954D01*
X80009144Y-101681384D01*
X79941224Y-101517412D01*
X79906600Y-101343341D01*
X79906600Y-101165859D01*
X79941224Y-100991788D01*
X80009144Y-100827816D01*
X80107747Y-100680246D01*
X80233246Y-100554747D01*
X80380816Y-100456144D01*
X80544788Y-100388224D01*
X80694088Y-100358527D01*
X80718858Y-100353600D01*
X80896342Y-100353600D01*
X80921112Y-100358527D01*
G37*
G36*
X75841112Y-100358527D02*
G01*
X75990412Y-100388224D01*
X76154384Y-100456144D01*
X76301954Y-100554747D01*
X76427453Y-100680246D01*
X76526056Y-100827816D01*
X76593976Y-100991788D01*
X76628600Y-101165859D01*
X76628600Y-101343341D01*
X76593976Y-101517412D01*
X76526056Y-101681384D01*
X76427453Y-101828954D01*
X76301954Y-101954453D01*
X76154384Y-102053056D01*
X75990412Y-102120976D01*
X75841112Y-102150673D01*
X75816342Y-102155600D01*
X75638858Y-102155600D01*
X75614088Y-102150673D01*
X75464788Y-102120976D01*
X75300816Y-102053056D01*
X75153246Y-101954453D01*
X75027747Y-101828954D01*
X74929144Y-101681384D01*
X74861224Y-101517412D01*
X74826600Y-101343341D01*
X74826600Y-101165859D01*
X74861224Y-100991788D01*
X74929144Y-100827816D01*
X75027747Y-100680246D01*
X75153246Y-100554747D01*
X75300816Y-100456144D01*
X75464788Y-100388224D01*
X75614088Y-100358527D01*
X75638858Y-100353600D01*
X75816342Y-100353600D01*
X75841112Y-100358527D01*
G37*
G36*
X73301112Y-100358527D02*
G01*
X73450412Y-100388224D01*
X73614384Y-100456144D01*
X73761954Y-100554747D01*
X73887453Y-100680246D01*
X73986056Y-100827816D01*
X74053976Y-100991788D01*
X74088600Y-101165859D01*
X74088600Y-101343341D01*
X74053976Y-101517412D01*
X73986056Y-101681384D01*
X73887453Y-101828954D01*
X73761954Y-101954453D01*
X73614384Y-102053056D01*
X73450412Y-102120976D01*
X73301112Y-102150673D01*
X73276342Y-102155600D01*
X73098858Y-102155600D01*
X73074088Y-102150673D01*
X72924788Y-102120976D01*
X72760816Y-102053056D01*
X72613246Y-101954453D01*
X72487747Y-101828954D01*
X72389144Y-101681384D01*
X72321224Y-101517412D01*
X72286600Y-101343341D01*
X72286600Y-101165859D01*
X72321224Y-100991788D01*
X72389144Y-100827816D01*
X72487747Y-100680246D01*
X72613246Y-100554747D01*
X72760816Y-100456144D01*
X72924788Y-100388224D01*
X73074088Y-100358527D01*
X73098858Y-100353600D01*
X73276342Y-100353600D01*
X73301112Y-100358527D01*
G37*
G36*
X70761112Y-100358527D02*
G01*
X70910412Y-100388224D01*
X71074384Y-100456144D01*
X71221954Y-100554747D01*
X71347453Y-100680246D01*
X71446056Y-100827816D01*
X71513976Y-100991788D01*
X71548600Y-101165859D01*
X71548600Y-101343341D01*
X71513976Y-101517412D01*
X71446056Y-101681384D01*
X71347453Y-101828954D01*
X71221954Y-101954453D01*
X71074384Y-102053056D01*
X70910412Y-102120976D01*
X70761112Y-102150673D01*
X70736342Y-102155600D01*
X70558858Y-102155600D01*
X70534088Y-102150673D01*
X70384788Y-102120976D01*
X70220816Y-102053056D01*
X70073246Y-101954453D01*
X69947747Y-101828954D01*
X69849144Y-101681384D01*
X69781224Y-101517412D01*
X69746600Y-101343341D01*
X69746600Y-101165859D01*
X69781224Y-100991788D01*
X69849144Y-100827816D01*
X69947747Y-100680246D01*
X70073246Y-100554747D01*
X70220816Y-100456144D01*
X70384788Y-100388224D01*
X70534088Y-100358527D01*
X70558858Y-100353600D01*
X70736342Y-100353600D01*
X70761112Y-100358527D01*
G37*
G36*
X69008600Y-102155600D02*
G01*
X67206600Y-102155600D01*
X67206600Y-100353600D01*
X69008600Y-100353600D01*
X69008600Y-102155600D01*
G37*
G36*
X101241112Y-100358527D02*
G01*
X101390412Y-100388224D01*
X101554384Y-100456144D01*
X101701954Y-100554747D01*
X101827453Y-100680246D01*
X101926056Y-100827816D01*
X101993976Y-100991788D01*
X102028600Y-101165859D01*
X102028600Y-101343341D01*
X101993976Y-101517412D01*
X101926056Y-101681384D01*
X101827453Y-101828954D01*
X101701954Y-101954453D01*
X101554384Y-102053056D01*
X101390412Y-102120976D01*
X101241112Y-102150673D01*
X101216342Y-102155600D01*
X101038858Y-102155600D01*
X101014088Y-102150673D01*
X100864788Y-102120976D01*
X100700816Y-102053056D01*
X100553246Y-101954453D01*
X100427747Y-101828954D01*
X100329144Y-101681384D01*
X100261224Y-101517412D01*
X100226600Y-101343341D01*
X100226600Y-101165859D01*
X100261224Y-100991788D01*
X100329144Y-100827816D01*
X100427747Y-100680246D01*
X100553246Y-100554747D01*
X100700816Y-100456144D01*
X100864788Y-100388224D01*
X101014088Y-100358527D01*
X101038858Y-100353600D01*
X101216342Y-100353600D01*
X101241112Y-100358527D01*
G37*
G36*
X103781112Y-100358527D02*
G01*
X103930412Y-100388224D01*
X104094384Y-100456144D01*
X104241954Y-100554747D01*
X104367453Y-100680246D01*
X104466056Y-100827816D01*
X104533976Y-100991788D01*
X104568600Y-101165859D01*
X104568600Y-101343341D01*
X104533976Y-101517412D01*
X104466056Y-101681384D01*
X104367453Y-101828954D01*
X104241954Y-101954453D01*
X104094384Y-102053056D01*
X103930412Y-102120976D01*
X103781112Y-102150673D01*
X103756342Y-102155600D01*
X103578858Y-102155600D01*
X103554088Y-102150673D01*
X103404788Y-102120976D01*
X103240816Y-102053056D01*
X103093246Y-101954453D01*
X102967747Y-101828954D01*
X102869144Y-101681384D01*
X102801224Y-101517412D01*
X102766600Y-101343341D01*
X102766600Y-101165859D01*
X102801224Y-100991788D01*
X102869144Y-100827816D01*
X102967747Y-100680246D01*
X103093246Y-100554747D01*
X103240816Y-100456144D01*
X103404788Y-100388224D01*
X103554088Y-100358527D01*
X103578858Y-100353600D01*
X103756342Y-100353600D01*
X103781112Y-100358527D01*
G37*
G36*
X96161112Y-100358527D02*
G01*
X96310412Y-100388224D01*
X96474384Y-100456144D01*
X96621954Y-100554747D01*
X96747453Y-100680246D01*
X96846056Y-100827816D01*
X96913976Y-100991788D01*
X96948600Y-101165859D01*
X96948600Y-101343341D01*
X96913976Y-101517412D01*
X96846056Y-101681384D01*
X96747453Y-101828954D01*
X96621954Y-101954453D01*
X96474384Y-102053056D01*
X96310412Y-102120976D01*
X96161112Y-102150673D01*
X96136342Y-102155600D01*
X95958858Y-102155600D01*
X95934088Y-102150673D01*
X95784788Y-102120976D01*
X95620816Y-102053056D01*
X95473246Y-101954453D01*
X95347747Y-101828954D01*
X95249144Y-101681384D01*
X95181224Y-101517412D01*
X95146600Y-101343341D01*
X95146600Y-101165859D01*
X95181224Y-100991788D01*
X95249144Y-100827816D01*
X95347747Y-100680246D01*
X95473246Y-100554747D01*
X95620816Y-100456144D01*
X95784788Y-100388224D01*
X95934088Y-100358527D01*
X95958858Y-100353600D01*
X96136342Y-100353600D01*
X96161112Y-100358527D01*
G37*
G36*
X111590185Y-97193402D02*
G01*
X111740010Y-97223204D01*
X112022274Y-97340121D01*
X112276305Y-97509859D01*
X112492341Y-97725895D01*
X112662079Y-97979926D01*
X112778996Y-98262190D01*
X112838600Y-98561840D01*
X112838600Y-98867360D01*
X112778996Y-99167010D01*
X112662079Y-99449274D01*
X112492341Y-99703305D01*
X112276305Y-99919341D01*
X112022274Y-100089079D01*
X111740010Y-100205996D01*
X111590185Y-100235798D01*
X111440361Y-100265600D01*
X111134839Y-100265600D01*
X110985015Y-100235798D01*
X110835190Y-100205996D01*
X110552926Y-100089079D01*
X110298895Y-99919341D01*
X110082859Y-99703305D01*
X109913121Y-99449274D01*
X109796204Y-99167010D01*
X109736600Y-98867360D01*
X109736600Y-98561840D01*
X109796204Y-98262190D01*
X109913121Y-97979926D01*
X110082859Y-97725895D01*
X110298895Y-97509859D01*
X110552926Y-97340121D01*
X110835190Y-97223204D01*
X110985015Y-97193402D01*
X111134839Y-97163600D01*
X111440361Y-97163600D01*
X111590185Y-97193402D01*
G37*
G36*
X60790185Y-97193402D02*
G01*
X60940010Y-97223204D01*
X61222274Y-97340121D01*
X61476305Y-97509859D01*
X61692341Y-97725895D01*
X61862079Y-97979926D01*
X61978996Y-98262190D01*
X62038600Y-98561840D01*
X62038600Y-98867360D01*
X61978996Y-99167010D01*
X61862079Y-99449274D01*
X61692341Y-99703305D01*
X61476305Y-99919341D01*
X61222274Y-100089079D01*
X60940010Y-100205996D01*
X60790185Y-100235798D01*
X60640361Y-100265600D01*
X60334839Y-100265600D01*
X60185015Y-100235798D01*
X60035190Y-100205996D01*
X59752926Y-100089079D01*
X59498895Y-99919341D01*
X59282859Y-99703305D01*
X59113121Y-99449274D01*
X58996204Y-99167010D01*
X58936600Y-98867360D01*
X58936600Y-98561840D01*
X58996204Y-98262190D01*
X59113121Y-97979926D01*
X59282859Y-97725895D01*
X59498895Y-97509859D01*
X59752926Y-97340121D01*
X60035190Y-97223204D01*
X60185015Y-97193402D01*
X60334839Y-97163600D01*
X60640361Y-97163600D01*
X60790185Y-97193402D01*
G37*
G36*
X106586993Y-92383904D02*
G01*
X106823701Y-92481952D01*
X106823703Y-92481953D01*
X107036735Y-92624296D01*
X107217904Y-92805465D01*
X107360247Y-93018497D01*
X107360248Y-93018499D01*
X107458296Y-93255207D01*
X107508280Y-93506493D01*
X107508280Y-93762707D01*
X107458296Y-94013993D01*
X107360248Y-94250701D01*
X107360247Y-94250703D01*
X107217904Y-94463735D01*
X107036735Y-94644904D01*
X106823703Y-94787247D01*
X106823702Y-94787248D01*
X106823701Y-94787248D01*
X106586993Y-94885296D01*
X106335707Y-94935280D01*
X106079493Y-94935280D01*
X105828207Y-94885296D01*
X105591499Y-94787248D01*
X105591498Y-94787248D01*
X105591497Y-94787247D01*
X105378465Y-94644904D01*
X105197296Y-94463735D01*
X105054953Y-94250703D01*
X105054952Y-94250701D01*
X104956904Y-94013993D01*
X104906920Y-93762707D01*
X104906920Y-93506493D01*
X104956904Y-93255207D01*
X105054952Y-93018499D01*
X105054953Y-93018497D01*
X105197296Y-92805465D01*
X105378465Y-92624296D01*
X105591497Y-92481953D01*
X105591499Y-92481952D01*
X105828207Y-92383904D01*
X106079493Y-92333920D01*
X106335707Y-92333920D01*
X106586993Y-92383904D01*
G37*
G36*
X65946993Y-92383904D02*
G01*
X66183701Y-92481952D01*
X66183703Y-92481953D01*
X66396735Y-92624296D01*
X66577904Y-92805465D01*
X66720247Y-93018497D01*
X66720248Y-93018499D01*
X66818296Y-93255207D01*
X66868280Y-93506493D01*
X66868280Y-93762707D01*
X66818296Y-94013993D01*
X66720248Y-94250701D01*
X66720247Y-94250703D01*
X66577904Y-94463735D01*
X66396735Y-94644904D01*
X66183703Y-94787247D01*
X66183702Y-94787248D01*
X66183701Y-94787248D01*
X65946993Y-94885296D01*
X65695707Y-94935280D01*
X65439493Y-94935280D01*
X65188207Y-94885296D01*
X64951499Y-94787248D01*
X64951498Y-94787248D01*
X64951497Y-94787247D01*
X64738465Y-94644904D01*
X64557296Y-94463735D01*
X64414953Y-94250703D01*
X64414952Y-94250701D01*
X64316904Y-94013993D01*
X64266920Y-93762707D01*
X64266920Y-93506493D01*
X64316904Y-93255207D01*
X64414952Y-93018499D01*
X64414953Y-93018497D01*
X64557296Y-92805465D01*
X64738465Y-92624296D01*
X64951497Y-92481953D01*
X64951499Y-92481952D01*
X65188207Y-92383904D01*
X65439493Y-92333920D01*
X65695707Y-92333920D01*
X65946993Y-92383904D01*
G37*
G36*
X111590185Y-87033402D02*
G01*
X111740010Y-87063204D01*
X112022274Y-87180121D01*
X112276305Y-87349859D01*
X112492341Y-87565895D01*
X112662079Y-87819926D01*
X112778996Y-88102190D01*
X112838600Y-88401840D01*
X112838600Y-88707360D01*
X112778996Y-89007010D01*
X112662079Y-89289274D01*
X112492341Y-89543305D01*
X112276305Y-89759341D01*
X112022274Y-89929079D01*
X111740010Y-90045996D01*
X111590185Y-90075798D01*
X111440361Y-90105600D01*
X111134839Y-90105600D01*
X110985015Y-90075798D01*
X110835190Y-90045996D01*
X110552926Y-89929079D01*
X110298895Y-89759341D01*
X110082859Y-89543305D01*
X109913121Y-89289274D01*
X109796204Y-89007010D01*
X109736600Y-88707360D01*
X109736600Y-88401840D01*
X109796204Y-88102190D01*
X109913121Y-87819926D01*
X110082859Y-87565895D01*
X110298895Y-87349859D01*
X110552926Y-87180121D01*
X110835190Y-87063204D01*
X110985015Y-87033402D01*
X111134839Y-87003600D01*
X111440361Y-87003600D01*
X111590185Y-87033402D01*
G37*
G36*
X60790185Y-87033402D02*
G01*
X60940010Y-87063204D01*
X61222274Y-87180121D01*
X61476305Y-87349859D01*
X61692341Y-87565895D01*
X61862079Y-87819926D01*
X61978996Y-88102190D01*
X62038600Y-88401840D01*
X62038600Y-88707360D01*
X61978996Y-89007010D01*
X61862079Y-89289274D01*
X61692341Y-89543305D01*
X61476305Y-89759341D01*
X61222274Y-89929079D01*
X60940010Y-90045996D01*
X60790185Y-90075798D01*
X60640361Y-90105600D01*
X60334839Y-90105600D01*
X60185015Y-90075798D01*
X60035190Y-90045996D01*
X59752926Y-89929079D01*
X59498895Y-89759341D01*
X59282859Y-89543305D01*
X59113121Y-89289274D01*
X58996204Y-89007010D01*
X58936600Y-88707360D01*
X58936600Y-88401840D01*
X58996204Y-88102190D01*
X59113121Y-87819926D01*
X59282859Y-87565895D01*
X59498895Y-87349859D01*
X59752926Y-87180121D01*
X60035190Y-87063204D01*
X60185015Y-87033402D01*
X60334839Y-87003600D01*
X60640361Y-87003600D01*
X60790185Y-87033402D01*
G37*
G36*
X80921112Y-85118527D02*
G01*
X81070412Y-85148224D01*
X81234384Y-85216144D01*
X81381954Y-85314747D01*
X81507453Y-85440246D01*
X81606056Y-85587816D01*
X81673976Y-85751788D01*
X81708600Y-85925859D01*
X81708600Y-86103341D01*
X81673976Y-86277412D01*
X81606056Y-86441384D01*
X81507453Y-86588954D01*
X81381954Y-86714453D01*
X81234384Y-86813056D01*
X81070412Y-86880976D01*
X80921112Y-86910673D01*
X80896342Y-86915600D01*
X80718858Y-86915600D01*
X80694088Y-86910673D01*
X80544788Y-86880976D01*
X80380816Y-86813056D01*
X80233246Y-86714453D01*
X80107747Y-86588954D01*
X80009144Y-86441384D01*
X79941224Y-86277412D01*
X79906600Y-86103341D01*
X79906600Y-85925859D01*
X79941224Y-85751788D01*
X80009144Y-85587816D01*
X80107747Y-85440246D01*
X80233246Y-85314747D01*
X80380816Y-85216144D01*
X80544788Y-85148224D01*
X80694088Y-85118527D01*
X80718858Y-85113600D01*
X80896342Y-85113600D01*
X80921112Y-85118527D01*
G37*
G36*
X91081112Y-85118527D02*
G01*
X91230412Y-85148224D01*
X91394384Y-85216144D01*
X91541954Y-85314747D01*
X91667453Y-85440246D01*
X91766056Y-85587816D01*
X91833976Y-85751788D01*
X91868600Y-85925859D01*
X91868600Y-86103341D01*
X91833976Y-86277412D01*
X91766056Y-86441384D01*
X91667453Y-86588954D01*
X91541954Y-86714453D01*
X91394384Y-86813056D01*
X91230412Y-86880976D01*
X91081112Y-86910673D01*
X91056342Y-86915600D01*
X90878858Y-86915600D01*
X90854088Y-86910673D01*
X90704788Y-86880976D01*
X90540816Y-86813056D01*
X90393246Y-86714453D01*
X90267747Y-86588954D01*
X90169144Y-86441384D01*
X90101224Y-86277412D01*
X90066600Y-86103341D01*
X90066600Y-85925859D01*
X90101224Y-85751788D01*
X90169144Y-85587816D01*
X90267747Y-85440246D01*
X90393246Y-85314747D01*
X90540816Y-85216144D01*
X90704788Y-85148224D01*
X90854088Y-85118527D01*
X90878858Y-85113600D01*
X91056342Y-85113600D01*
X91081112Y-85118527D01*
G37*
G36*
X88541112Y-85118527D02*
G01*
X88690412Y-85148224D01*
X88854384Y-85216144D01*
X89001954Y-85314747D01*
X89127453Y-85440246D01*
X89226056Y-85587816D01*
X89293976Y-85751788D01*
X89328600Y-85925859D01*
X89328600Y-86103341D01*
X89293976Y-86277412D01*
X89226056Y-86441384D01*
X89127453Y-86588954D01*
X89001954Y-86714453D01*
X88854384Y-86813056D01*
X88690412Y-86880976D01*
X88541112Y-86910673D01*
X88516342Y-86915600D01*
X88338858Y-86915600D01*
X88314088Y-86910673D01*
X88164788Y-86880976D01*
X88000816Y-86813056D01*
X87853246Y-86714453D01*
X87727747Y-86588954D01*
X87629144Y-86441384D01*
X87561224Y-86277412D01*
X87526600Y-86103341D01*
X87526600Y-85925859D01*
X87561224Y-85751788D01*
X87629144Y-85587816D01*
X87727747Y-85440246D01*
X87853246Y-85314747D01*
X88000816Y-85216144D01*
X88164788Y-85148224D01*
X88314088Y-85118527D01*
X88338858Y-85113600D01*
X88516342Y-85113600D01*
X88541112Y-85118527D01*
G37*
G36*
X86001112Y-85118527D02*
G01*
X86150412Y-85148224D01*
X86314384Y-85216144D01*
X86461954Y-85314747D01*
X86587453Y-85440246D01*
X86686056Y-85587816D01*
X86753976Y-85751788D01*
X86788600Y-85925859D01*
X86788600Y-86103341D01*
X86753976Y-86277412D01*
X86686056Y-86441384D01*
X86587453Y-86588954D01*
X86461954Y-86714453D01*
X86314384Y-86813056D01*
X86150412Y-86880976D01*
X86001112Y-86910673D01*
X85976342Y-86915600D01*
X85798858Y-86915600D01*
X85774088Y-86910673D01*
X85624788Y-86880976D01*
X85460816Y-86813056D01*
X85313246Y-86714453D01*
X85187747Y-86588954D01*
X85089144Y-86441384D01*
X85021224Y-86277412D01*
X84986600Y-86103341D01*
X84986600Y-85925859D01*
X85021224Y-85751788D01*
X85089144Y-85587816D01*
X85187747Y-85440246D01*
X85313246Y-85314747D01*
X85460816Y-85216144D01*
X85624788Y-85148224D01*
X85774088Y-85118527D01*
X85798858Y-85113600D01*
X85976342Y-85113600D01*
X86001112Y-85118527D01*
G37*
G36*
X93621112Y-85118527D02*
G01*
X93770412Y-85148224D01*
X93934384Y-85216144D01*
X94081954Y-85314747D01*
X94207453Y-85440246D01*
X94306056Y-85587816D01*
X94373976Y-85751788D01*
X94408600Y-85925859D01*
X94408600Y-86103341D01*
X94373976Y-86277412D01*
X94306056Y-86441384D01*
X94207453Y-86588954D01*
X94081954Y-86714453D01*
X93934384Y-86813056D01*
X93770412Y-86880976D01*
X93621112Y-86910673D01*
X93596342Y-86915600D01*
X93418858Y-86915600D01*
X93394088Y-86910673D01*
X93244788Y-86880976D01*
X93080816Y-86813056D01*
X92933246Y-86714453D01*
X92807747Y-86588954D01*
X92709144Y-86441384D01*
X92641224Y-86277412D01*
X92606600Y-86103341D01*
X92606600Y-85925859D01*
X92641224Y-85751788D01*
X92709144Y-85587816D01*
X92807747Y-85440246D01*
X92933246Y-85314747D01*
X93080816Y-85216144D01*
X93244788Y-85148224D01*
X93394088Y-85118527D01*
X93418858Y-85113600D01*
X93596342Y-85113600D01*
X93621112Y-85118527D01*
G37*
G36*
X96161112Y-85118527D02*
G01*
X96310412Y-85148224D01*
X96474384Y-85216144D01*
X96621954Y-85314747D01*
X96747453Y-85440246D01*
X96846056Y-85587816D01*
X96913976Y-85751788D01*
X96948600Y-85925859D01*
X96948600Y-86103341D01*
X96913976Y-86277412D01*
X96846056Y-86441384D01*
X96747453Y-86588954D01*
X96621954Y-86714453D01*
X96474384Y-86813056D01*
X96310412Y-86880976D01*
X96161112Y-86910673D01*
X96136342Y-86915600D01*
X95958858Y-86915600D01*
X95934088Y-86910673D01*
X95784788Y-86880976D01*
X95620816Y-86813056D01*
X95473246Y-86714453D01*
X95347747Y-86588954D01*
X95249144Y-86441384D01*
X95181224Y-86277412D01*
X95146600Y-86103341D01*
X95146600Y-85925859D01*
X95181224Y-85751788D01*
X95249144Y-85587816D01*
X95347747Y-85440246D01*
X95473246Y-85314747D01*
X95620816Y-85216144D01*
X95784788Y-85148224D01*
X95934088Y-85118527D01*
X95958858Y-85113600D01*
X96136342Y-85113600D01*
X96161112Y-85118527D01*
G37*
G36*
X98701112Y-85118527D02*
G01*
X98850412Y-85148224D01*
X99014384Y-85216144D01*
X99161954Y-85314747D01*
X99287453Y-85440246D01*
X99386056Y-85587816D01*
X99453976Y-85751788D01*
X99488600Y-85925859D01*
X99488600Y-86103341D01*
X99453976Y-86277412D01*
X99386056Y-86441384D01*
X99287453Y-86588954D01*
X99161954Y-86714453D01*
X99014384Y-86813056D01*
X98850412Y-86880976D01*
X98701112Y-86910673D01*
X98676342Y-86915600D01*
X98498858Y-86915600D01*
X98474088Y-86910673D01*
X98324788Y-86880976D01*
X98160816Y-86813056D01*
X98013246Y-86714453D01*
X97887747Y-86588954D01*
X97789144Y-86441384D01*
X97721224Y-86277412D01*
X97686600Y-86103341D01*
X97686600Y-85925859D01*
X97721224Y-85751788D01*
X97789144Y-85587816D01*
X97887747Y-85440246D01*
X98013246Y-85314747D01*
X98160816Y-85216144D01*
X98324788Y-85148224D01*
X98474088Y-85118527D01*
X98498858Y-85113600D01*
X98676342Y-85113600D01*
X98701112Y-85118527D01*
G37*
G36*
X83461112Y-85118527D02*
G01*
X83610412Y-85148224D01*
X83774384Y-85216144D01*
X83921954Y-85314747D01*
X84047453Y-85440246D01*
X84146056Y-85587816D01*
X84213976Y-85751788D01*
X84248600Y-85925859D01*
X84248600Y-86103341D01*
X84213976Y-86277412D01*
X84146056Y-86441384D01*
X84047453Y-86588954D01*
X83921954Y-86714453D01*
X83774384Y-86813056D01*
X83610412Y-86880976D01*
X83461112Y-86910673D01*
X83436342Y-86915600D01*
X83258858Y-86915600D01*
X83234088Y-86910673D01*
X83084788Y-86880976D01*
X82920816Y-86813056D01*
X82773246Y-86714453D01*
X82647747Y-86588954D01*
X82549144Y-86441384D01*
X82481224Y-86277412D01*
X82446600Y-86103341D01*
X82446600Y-85925859D01*
X82481224Y-85751788D01*
X82549144Y-85587816D01*
X82647747Y-85440246D01*
X82773246Y-85314747D01*
X82920816Y-85216144D01*
X83084788Y-85148224D01*
X83234088Y-85118527D01*
X83258858Y-85113600D01*
X83436342Y-85113600D01*
X83461112Y-85118527D01*
G37*
G36*
X68221112Y-85118527D02*
G01*
X68370412Y-85148224D01*
X68534384Y-85216144D01*
X68681954Y-85314747D01*
X68807453Y-85440246D01*
X68906056Y-85587816D01*
X68973976Y-85751788D01*
X69008600Y-85925859D01*
X69008600Y-86103341D01*
X68973976Y-86277412D01*
X68906056Y-86441384D01*
X68807453Y-86588954D01*
X68681954Y-86714453D01*
X68534384Y-86813056D01*
X68370412Y-86880976D01*
X68221112Y-86910673D01*
X68196342Y-86915600D01*
X68018858Y-86915600D01*
X67994088Y-86910673D01*
X67844788Y-86880976D01*
X67680816Y-86813056D01*
X67533246Y-86714453D01*
X67407747Y-86588954D01*
X67309144Y-86441384D01*
X67241224Y-86277412D01*
X67206600Y-86103341D01*
X67206600Y-85925859D01*
X67241224Y-85751788D01*
X67309144Y-85587816D01*
X67407747Y-85440246D01*
X67533246Y-85314747D01*
X67680816Y-85216144D01*
X67844788Y-85148224D01*
X67994088Y-85118527D01*
X68018858Y-85113600D01*
X68196342Y-85113600D01*
X68221112Y-85118527D01*
G37*
G36*
X70761112Y-85118527D02*
G01*
X70910412Y-85148224D01*
X71074384Y-85216144D01*
X71221954Y-85314747D01*
X71347453Y-85440246D01*
X71446056Y-85587816D01*
X71513976Y-85751788D01*
X71548600Y-85925859D01*
X71548600Y-86103341D01*
X71513976Y-86277412D01*
X71446056Y-86441384D01*
X71347453Y-86588954D01*
X71221954Y-86714453D01*
X71074384Y-86813056D01*
X70910412Y-86880976D01*
X70761112Y-86910673D01*
X70736342Y-86915600D01*
X70558858Y-86915600D01*
X70534088Y-86910673D01*
X70384788Y-86880976D01*
X70220816Y-86813056D01*
X70073246Y-86714453D01*
X69947747Y-86588954D01*
X69849144Y-86441384D01*
X69781224Y-86277412D01*
X69746600Y-86103341D01*
X69746600Y-85925859D01*
X69781224Y-85751788D01*
X69849144Y-85587816D01*
X69947747Y-85440246D01*
X70073246Y-85314747D01*
X70220816Y-85216144D01*
X70384788Y-85148224D01*
X70534088Y-85118527D01*
X70558858Y-85113600D01*
X70736342Y-85113600D01*
X70761112Y-85118527D01*
G37*
G36*
X73301112Y-85118527D02*
G01*
X73450412Y-85148224D01*
X73614384Y-85216144D01*
X73761954Y-85314747D01*
X73887453Y-85440246D01*
X73986056Y-85587816D01*
X74053976Y-85751788D01*
X74088600Y-85925859D01*
X74088600Y-86103341D01*
X74053976Y-86277412D01*
X73986056Y-86441384D01*
X73887453Y-86588954D01*
X73761954Y-86714453D01*
X73614384Y-86813056D01*
X73450412Y-86880976D01*
X73301112Y-86910673D01*
X73276342Y-86915600D01*
X73098858Y-86915600D01*
X73074088Y-86910673D01*
X72924788Y-86880976D01*
X72760816Y-86813056D01*
X72613246Y-86714453D01*
X72487747Y-86588954D01*
X72389144Y-86441384D01*
X72321224Y-86277412D01*
X72286600Y-86103341D01*
X72286600Y-85925859D01*
X72321224Y-85751788D01*
X72389144Y-85587816D01*
X72487747Y-85440246D01*
X72613246Y-85314747D01*
X72760816Y-85216144D01*
X72924788Y-85148224D01*
X73074088Y-85118527D01*
X73098858Y-85113600D01*
X73276342Y-85113600D01*
X73301112Y-85118527D01*
G37*
G36*
X75841112Y-85118527D02*
G01*
X75990412Y-85148224D01*
X76154384Y-85216144D01*
X76301954Y-85314747D01*
X76427453Y-85440246D01*
X76526056Y-85587816D01*
X76593976Y-85751788D01*
X76628600Y-85925859D01*
X76628600Y-86103341D01*
X76593976Y-86277412D01*
X76526056Y-86441384D01*
X76427453Y-86588954D01*
X76301954Y-86714453D01*
X76154384Y-86813056D01*
X75990412Y-86880976D01*
X75841112Y-86910673D01*
X75816342Y-86915600D01*
X75638858Y-86915600D01*
X75614088Y-86910673D01*
X75464788Y-86880976D01*
X75300816Y-86813056D01*
X75153246Y-86714453D01*
X75027747Y-86588954D01*
X74929144Y-86441384D01*
X74861224Y-86277412D01*
X74826600Y-86103341D01*
X74826600Y-85925859D01*
X74861224Y-85751788D01*
X74929144Y-85587816D01*
X75027747Y-85440246D01*
X75153246Y-85314747D01*
X75300816Y-85216144D01*
X75464788Y-85148224D01*
X75614088Y-85118527D01*
X75638858Y-85113600D01*
X75816342Y-85113600D01*
X75841112Y-85118527D01*
G37*
G36*
X78381112Y-85118527D02*
G01*
X78530412Y-85148224D01*
X78694384Y-85216144D01*
X78841954Y-85314747D01*
X78967453Y-85440246D01*
X79066056Y-85587816D01*
X79133976Y-85751788D01*
X79168600Y-85925859D01*
X79168600Y-86103341D01*
X79133976Y-86277412D01*
X79066056Y-86441384D01*
X78967453Y-86588954D01*
X78841954Y-86714453D01*
X78694384Y-86813056D01*
X78530412Y-86880976D01*
X78381112Y-86910673D01*
X78356342Y-86915600D01*
X78178858Y-86915600D01*
X78154088Y-86910673D01*
X78004788Y-86880976D01*
X77840816Y-86813056D01*
X77693246Y-86714453D01*
X77567747Y-86588954D01*
X77469144Y-86441384D01*
X77401224Y-86277412D01*
X77366600Y-86103341D01*
X77366600Y-85925859D01*
X77401224Y-85751788D01*
X77469144Y-85587816D01*
X77567747Y-85440246D01*
X77693246Y-85314747D01*
X77840816Y-85216144D01*
X78004788Y-85148224D01*
X78154088Y-85118527D01*
X78178858Y-85113600D01*
X78356342Y-85113600D01*
X78381112Y-85118527D01*
G37*
G36*
X101241112Y-85118527D02*
G01*
X101390412Y-85148224D01*
X101554384Y-85216144D01*
X101701954Y-85314747D01*
X101827453Y-85440246D01*
X101926056Y-85587816D01*
X101993976Y-85751788D01*
X102028600Y-85925859D01*
X102028600Y-86103341D01*
X101993976Y-86277412D01*
X101926056Y-86441384D01*
X101827453Y-86588954D01*
X101701954Y-86714453D01*
X101554384Y-86813056D01*
X101390412Y-86880976D01*
X101241112Y-86910673D01*
X101216342Y-86915600D01*
X101038858Y-86915600D01*
X101014088Y-86910673D01*
X100864788Y-86880976D01*
X100700816Y-86813056D01*
X100553246Y-86714453D01*
X100427747Y-86588954D01*
X100329144Y-86441384D01*
X100261224Y-86277412D01*
X100226600Y-86103341D01*
X100226600Y-85925859D01*
X100261224Y-85751788D01*
X100329144Y-85587816D01*
X100427747Y-85440246D01*
X100553246Y-85314747D01*
X100700816Y-85216144D01*
X100864788Y-85148224D01*
X101014088Y-85118527D01*
X101038858Y-85113600D01*
X101216342Y-85113600D01*
X101241112Y-85118527D01*
G37*
G36*
X104568600Y-86915600D02*
G01*
X102766600Y-86915600D01*
X102766600Y-85113600D01*
X104568600Y-85113600D01*
X104568600Y-86915600D01*
G37*
G36*
X86252503Y-77638675D02*
G01*
X86480171Y-77732978D01*
X86685066Y-77869885D01*
X86859315Y-78044134D01*
X86996222Y-78249029D01*
X87090525Y-78476697D01*
X87138600Y-78718387D01*
X87138600Y-78964813D01*
X87090525Y-79206503D01*
X86996222Y-79434171D01*
X86859315Y-79639066D01*
X86685066Y-79813315D01*
X86480171Y-79950222D01*
X86480170Y-79950223D01*
X86480169Y-79950223D01*
X86252503Y-80044525D01*
X86010814Y-80092600D01*
X85764386Y-80092600D01*
X85522697Y-80044525D01*
X85295031Y-79950223D01*
X85295030Y-79950223D01*
X85295029Y-79950222D01*
X85090134Y-79813315D01*
X84915885Y-79639066D01*
X84778978Y-79434171D01*
X84684675Y-79206503D01*
X84636600Y-78964813D01*
X84636600Y-78718387D01*
X84684675Y-78476697D01*
X84778978Y-78249029D01*
X84915885Y-78044134D01*
X85090134Y-77869885D01*
X85295029Y-77732978D01*
X85522697Y-77638675D01*
X85764386Y-77590600D01*
X86010814Y-77590600D01*
X86252503Y-77638675D01*
G37*
G36*
X111638600Y-80092600D02*
G01*
X109136600Y-80092600D01*
X109136600Y-77590600D01*
X111638600Y-77590600D01*
X111638600Y-80092600D01*
G37*
G36*
X107252503Y-77638675D02*
G01*
X107480171Y-77732978D01*
X107685066Y-77869885D01*
X107859315Y-78044134D01*
X107996222Y-78249029D01*
X108090525Y-78476697D01*
X108138600Y-78718387D01*
X108138600Y-78964813D01*
X108090525Y-79206503D01*
X107996222Y-79434171D01*
X107859315Y-79639066D01*
X107685066Y-79813315D01*
X107480171Y-79950222D01*
X107480170Y-79950223D01*
X107480169Y-79950223D01*
X107252503Y-80044525D01*
X107010814Y-80092600D01*
X106764386Y-80092600D01*
X106522697Y-80044525D01*
X106295031Y-79950223D01*
X106295030Y-79950223D01*
X106295029Y-79950222D01*
X106090134Y-79813315D01*
X105915885Y-79639066D01*
X105778978Y-79434171D01*
X105684675Y-79206503D01*
X105636600Y-78964813D01*
X105636600Y-78718387D01*
X105684675Y-78476697D01*
X105778978Y-78249029D01*
X105915885Y-78044134D01*
X106090134Y-77869885D01*
X106295029Y-77732978D01*
X106522697Y-77638675D01*
X106764386Y-77590600D01*
X107010814Y-77590600D01*
X107252503Y-77638675D01*
G37*
G36*
X103752503Y-77638675D02*
G01*
X103980171Y-77732978D01*
X104185066Y-77869885D01*
X104359315Y-78044134D01*
X104496222Y-78249029D01*
X104590525Y-78476697D01*
X104638600Y-78718387D01*
X104638600Y-78964813D01*
X104590525Y-79206503D01*
X104496222Y-79434171D01*
X104359315Y-79639066D01*
X104185066Y-79813315D01*
X103980171Y-79950222D01*
X103980170Y-79950223D01*
X103980169Y-79950223D01*
X103752503Y-80044525D01*
X103510814Y-80092600D01*
X103264386Y-80092600D01*
X103022697Y-80044525D01*
X102795031Y-79950223D01*
X102795030Y-79950223D01*
X102795029Y-79950222D01*
X102590134Y-79813315D01*
X102415885Y-79639066D01*
X102278978Y-79434171D01*
X102184675Y-79206503D01*
X102136600Y-78964813D01*
X102136600Y-78718387D01*
X102184675Y-78476697D01*
X102278978Y-78249029D01*
X102415885Y-78044134D01*
X102590134Y-77869885D01*
X102795029Y-77732978D01*
X103022697Y-77638675D01*
X103264386Y-77590600D01*
X103510814Y-77590600D01*
X103752503Y-77638675D01*
G37*
G36*
X100252503Y-77638675D02*
G01*
X100480171Y-77732978D01*
X100685066Y-77869885D01*
X100859315Y-78044134D01*
X100996222Y-78249029D01*
X101090525Y-78476697D01*
X101138600Y-78718387D01*
X101138600Y-78964813D01*
X101090525Y-79206503D01*
X100996222Y-79434171D01*
X100859315Y-79639066D01*
X100685066Y-79813315D01*
X100480171Y-79950222D01*
X100480170Y-79950223D01*
X100480169Y-79950223D01*
X100252503Y-80044525D01*
X100010814Y-80092600D01*
X99764386Y-80092600D01*
X99522697Y-80044525D01*
X99295031Y-79950223D01*
X99295030Y-79950223D01*
X99295029Y-79950222D01*
X99090134Y-79813315D01*
X98915885Y-79639066D01*
X98778978Y-79434171D01*
X98684675Y-79206503D01*
X98636600Y-78964813D01*
X98636600Y-78718387D01*
X98684675Y-78476697D01*
X98778978Y-78249029D01*
X98915885Y-78044134D01*
X99090134Y-77869885D01*
X99295029Y-77732978D01*
X99522697Y-77638675D01*
X99764386Y-77590600D01*
X100010814Y-77590600D01*
X100252503Y-77638675D01*
G37*
G36*
X96752503Y-77638675D02*
G01*
X96980171Y-77732978D01*
X97185066Y-77869885D01*
X97359315Y-78044134D01*
X97496222Y-78249029D01*
X97590525Y-78476697D01*
X97638600Y-78718387D01*
X97638600Y-78964813D01*
X97590525Y-79206503D01*
X97496222Y-79434171D01*
X97359315Y-79639066D01*
X97185066Y-79813315D01*
X96980171Y-79950222D01*
X96980170Y-79950223D01*
X96980169Y-79950223D01*
X96752503Y-80044525D01*
X96510814Y-80092600D01*
X96264386Y-80092600D01*
X96022697Y-80044525D01*
X95795031Y-79950223D01*
X95795030Y-79950223D01*
X95795029Y-79950222D01*
X95590134Y-79813315D01*
X95415885Y-79639066D01*
X95278978Y-79434171D01*
X95184675Y-79206503D01*
X95136600Y-78964813D01*
X95136600Y-78718387D01*
X95184675Y-78476697D01*
X95278978Y-78249029D01*
X95415885Y-78044134D01*
X95590134Y-77869885D01*
X95795029Y-77732978D01*
X96022697Y-77638675D01*
X96264386Y-77590600D01*
X96510814Y-77590600D01*
X96752503Y-77638675D01*
G37*
G36*
X93252503Y-77638675D02*
G01*
X93480171Y-77732978D01*
X93685066Y-77869885D01*
X93859315Y-78044134D01*
X93996222Y-78249029D01*
X94090525Y-78476697D01*
X94138600Y-78718387D01*
X94138600Y-78964813D01*
X94090525Y-79206503D01*
X93996222Y-79434171D01*
X93859315Y-79639066D01*
X93685066Y-79813315D01*
X93480171Y-79950222D01*
X93480170Y-79950223D01*
X93480169Y-79950223D01*
X93252503Y-80044525D01*
X93010814Y-80092600D01*
X92764386Y-80092600D01*
X92522697Y-80044525D01*
X92295031Y-79950223D01*
X92295030Y-79950223D01*
X92295029Y-79950222D01*
X92090134Y-79813315D01*
X91915885Y-79639066D01*
X91778978Y-79434171D01*
X91684675Y-79206503D01*
X91636600Y-78964813D01*
X91636600Y-78718387D01*
X91684675Y-78476697D01*
X91778978Y-78249029D01*
X91915885Y-78044134D01*
X92090134Y-77869885D01*
X92295029Y-77732978D01*
X92522697Y-77638675D01*
X92764386Y-77590600D01*
X93010814Y-77590600D01*
X93252503Y-77638675D01*
G37*
G36*
X82752503Y-77638675D02*
G01*
X82980171Y-77732978D01*
X83185066Y-77869885D01*
X83359315Y-78044134D01*
X83496222Y-78249029D01*
X83590525Y-78476697D01*
X83638600Y-78718387D01*
X83638600Y-78964813D01*
X83590525Y-79206503D01*
X83496222Y-79434171D01*
X83359315Y-79639066D01*
X83185066Y-79813315D01*
X82980171Y-79950222D01*
X82980170Y-79950223D01*
X82980169Y-79950223D01*
X82752503Y-80044525D01*
X82510814Y-80092600D01*
X82264386Y-80092600D01*
X82022697Y-80044525D01*
X81795031Y-79950223D01*
X81795030Y-79950223D01*
X81795029Y-79950222D01*
X81590134Y-79813315D01*
X81415885Y-79639066D01*
X81278978Y-79434171D01*
X81184675Y-79206503D01*
X81136600Y-78964813D01*
X81136600Y-78718387D01*
X81184675Y-78476697D01*
X81278978Y-78249029D01*
X81415885Y-78044134D01*
X81590134Y-77869885D01*
X81795029Y-77732978D01*
X82022697Y-77638675D01*
X82264386Y-77590600D01*
X82510814Y-77590600D01*
X82752503Y-77638675D01*
G37*
G36*
X79252503Y-77638675D02*
G01*
X79480171Y-77732978D01*
X79685066Y-77869885D01*
X79859315Y-78044134D01*
X79996222Y-78249029D01*
X80090525Y-78476697D01*
X80138600Y-78718387D01*
X80138600Y-78964813D01*
X80090525Y-79206503D01*
X79996222Y-79434171D01*
X79859315Y-79639066D01*
X79685066Y-79813315D01*
X79480171Y-79950222D01*
X79480170Y-79950223D01*
X79480169Y-79950223D01*
X79252503Y-80044525D01*
X79010814Y-80092600D01*
X78764386Y-80092600D01*
X78522697Y-80044525D01*
X78295031Y-79950223D01*
X78295030Y-79950223D01*
X78295029Y-79950222D01*
X78090134Y-79813315D01*
X77915885Y-79639066D01*
X77778978Y-79434171D01*
X77684675Y-79206503D01*
X77636600Y-78964813D01*
X77636600Y-78718387D01*
X77684675Y-78476697D01*
X77778978Y-78249029D01*
X77915885Y-78044134D01*
X78090134Y-77869885D01*
X78295029Y-77732978D01*
X78522697Y-77638675D01*
X78764386Y-77590600D01*
X79010814Y-77590600D01*
X79252503Y-77638675D01*
G37*
G36*
X75752503Y-77638675D02*
G01*
X75980171Y-77732978D01*
X76185066Y-77869885D01*
X76359315Y-78044134D01*
X76496222Y-78249029D01*
X76590525Y-78476697D01*
X76638600Y-78718387D01*
X76638600Y-78964813D01*
X76590525Y-79206503D01*
X76496222Y-79434171D01*
X76359315Y-79639066D01*
X76185066Y-79813315D01*
X75980171Y-79950222D01*
X75980170Y-79950223D01*
X75980169Y-79950223D01*
X75752503Y-80044525D01*
X75510814Y-80092600D01*
X75264386Y-80092600D01*
X75022697Y-80044525D01*
X74795031Y-79950223D01*
X74795030Y-79950223D01*
X74795029Y-79950222D01*
X74590134Y-79813315D01*
X74415885Y-79639066D01*
X74278978Y-79434171D01*
X74184675Y-79206503D01*
X74136600Y-78964813D01*
X74136600Y-78718387D01*
X74184675Y-78476697D01*
X74278978Y-78249029D01*
X74415885Y-78044134D01*
X74590134Y-77869885D01*
X74795029Y-77732978D01*
X75022697Y-77638675D01*
X75264386Y-77590600D01*
X75510814Y-77590600D01*
X75752503Y-77638675D01*
G37*
G36*
X72252503Y-77638675D02*
G01*
X72480171Y-77732978D01*
X72685066Y-77869885D01*
X72859315Y-78044134D01*
X72996222Y-78249029D01*
X73090525Y-78476697D01*
X73138600Y-78718387D01*
X73138600Y-78964813D01*
X73090525Y-79206503D01*
X72996222Y-79434171D01*
X72859315Y-79639066D01*
X72685066Y-79813315D01*
X72480171Y-79950222D01*
X72480170Y-79950223D01*
X72480169Y-79950223D01*
X72252503Y-80044525D01*
X72010814Y-80092600D01*
X71764386Y-80092600D01*
X71522697Y-80044525D01*
X71295031Y-79950223D01*
X71295030Y-79950223D01*
X71295029Y-79950222D01*
X71090134Y-79813315D01*
X70915885Y-79639066D01*
X70778978Y-79434171D01*
X70684675Y-79206503D01*
X70636600Y-78964813D01*
X70636600Y-78718387D01*
X70684675Y-78476697D01*
X70778978Y-78249029D01*
X70915885Y-78044134D01*
X71090134Y-77869885D01*
X71295029Y-77732978D01*
X71522697Y-77638675D01*
X71764386Y-77590600D01*
X72010814Y-77590600D01*
X72252503Y-77638675D01*
G37*
G36*
X61752503Y-77638675D02*
G01*
X61980171Y-77732978D01*
X62185066Y-77869885D01*
X62359315Y-78044134D01*
X62496222Y-78249029D01*
X62590525Y-78476697D01*
X62638600Y-78718387D01*
X62638600Y-78964813D01*
X62590525Y-79206503D01*
X62496222Y-79434171D01*
X62359315Y-79639066D01*
X62185066Y-79813315D01*
X61980171Y-79950222D01*
X61980170Y-79950223D01*
X61980169Y-79950223D01*
X61752503Y-80044525D01*
X61510814Y-80092600D01*
X61264386Y-80092600D01*
X61022697Y-80044525D01*
X60795031Y-79950223D01*
X60795030Y-79950223D01*
X60795029Y-79950222D01*
X60590134Y-79813315D01*
X60415885Y-79639066D01*
X60278978Y-79434171D01*
X60184675Y-79206503D01*
X60136600Y-78964813D01*
X60136600Y-78718387D01*
X60184675Y-78476697D01*
X60278978Y-78249029D01*
X60415885Y-78044134D01*
X60590134Y-77869885D01*
X60795029Y-77732978D01*
X61022697Y-77638675D01*
X61264386Y-77590600D01*
X61510814Y-77590600D01*
X61752503Y-77638675D01*
G37*
G36*
X68752503Y-77638675D02*
G01*
X68980171Y-77732978D01*
X69185066Y-77869885D01*
X69359315Y-78044134D01*
X69496222Y-78249029D01*
X69590525Y-78476697D01*
X69638600Y-78718387D01*
X69638600Y-78964813D01*
X69590525Y-79206503D01*
X69496222Y-79434171D01*
X69359315Y-79639066D01*
X69185066Y-79813315D01*
X68980171Y-79950222D01*
X68980170Y-79950223D01*
X68980169Y-79950223D01*
X68752503Y-80044525D01*
X68510814Y-80092600D01*
X68264386Y-80092600D01*
X68022697Y-80044525D01*
X67795031Y-79950223D01*
X67795030Y-79950223D01*
X67795029Y-79950222D01*
X67590134Y-79813315D01*
X67415885Y-79639066D01*
X67278978Y-79434171D01*
X67184675Y-79206503D01*
X67136600Y-78964813D01*
X67136600Y-78718387D01*
X67184675Y-78476697D01*
X67278978Y-78249029D01*
X67415885Y-78044134D01*
X67590134Y-77869885D01*
X67795029Y-77732978D01*
X68022697Y-77638675D01*
X68264386Y-77590600D01*
X68510814Y-77590600D01*
X68752503Y-77638675D01*
G37*
G36*
X65252503Y-77638675D02*
G01*
X65480171Y-77732978D01*
X65685066Y-77869885D01*
X65859315Y-78044134D01*
X65996222Y-78249029D01*
X66090525Y-78476697D01*
X66138600Y-78718387D01*
X66138600Y-78964813D01*
X66090525Y-79206503D01*
X65996222Y-79434171D01*
X65859315Y-79639066D01*
X65685066Y-79813315D01*
X65480171Y-79950222D01*
X65480170Y-79950223D01*
X65480169Y-79950223D01*
X65252503Y-80044525D01*
X65010814Y-80092600D01*
X64764386Y-80092600D01*
X64522697Y-80044525D01*
X64295031Y-79950223D01*
X64295030Y-79950223D01*
X64295029Y-79950222D01*
X64090134Y-79813315D01*
X63915885Y-79639066D01*
X63778978Y-79434171D01*
X63684675Y-79206503D01*
X63636600Y-78964813D01*
X63636600Y-78718387D01*
X63684675Y-78476697D01*
X63778978Y-78249029D01*
X63915885Y-78044134D01*
X64090134Y-77869885D01*
X64295029Y-77732978D01*
X64522697Y-77638675D01*
X64764386Y-77590600D01*
X65010814Y-77590600D01*
X65252503Y-77638675D01*
G37*
G36*
X89752503Y-77638675D02*
G01*
X89980171Y-77732978D01*
X90185066Y-77869885D01*
X90359315Y-78044134D01*
X90496222Y-78249029D01*
X90590525Y-78476697D01*
X90638600Y-78718387D01*
X90638600Y-78964813D01*
X90590525Y-79206503D01*
X90496222Y-79434171D01*
X90359315Y-79639066D01*
X90185066Y-79813315D01*
X89980171Y-79950222D01*
X89980170Y-79950223D01*
X89980169Y-79950223D01*
X89752503Y-80044525D01*
X89510814Y-80092600D01*
X89264386Y-80092600D01*
X89022697Y-80044525D01*
X88795031Y-79950223D01*
X88795030Y-79950223D01*
X88795029Y-79950222D01*
X88590134Y-79813315D01*
X88415885Y-79639066D01*
X88278978Y-79434171D01*
X88184675Y-79206503D01*
X88136600Y-78964813D01*
X88136600Y-78718387D01*
X88184675Y-78476697D01*
X88278978Y-78249029D01*
X88415885Y-78044134D01*
X88590134Y-77869885D01*
X88795029Y-77732978D01*
X89022697Y-77638675D01*
X89264386Y-77590600D01*
X89510814Y-77590600D01*
X89752503Y-77638675D01*
G37*
G36*
X62638600Y-71578600D02*
G01*
X60136600Y-71578600D01*
X60136600Y-69076600D01*
X62638600Y-69076600D01*
X62638600Y-71578600D01*
G37*
G36*
X110752503Y-69124675D02*
G01*
X110980171Y-69218978D01*
X111185066Y-69355885D01*
X111359315Y-69530134D01*
X111496222Y-69735029D01*
X111590525Y-69962697D01*
X111638600Y-70204387D01*
X111638600Y-70450813D01*
X111590525Y-70692503D01*
X111496222Y-70920171D01*
X111359315Y-71125066D01*
X111185066Y-71299315D01*
X110980171Y-71436222D01*
X110980170Y-71436223D01*
X110980169Y-71436223D01*
X110752503Y-71530525D01*
X110510814Y-71578600D01*
X110264386Y-71578600D01*
X110022697Y-71530525D01*
X109795031Y-71436223D01*
X109795030Y-71436223D01*
X109795029Y-71436222D01*
X109590134Y-71299315D01*
X109415885Y-71125066D01*
X109278978Y-70920171D01*
X109184675Y-70692503D01*
X109136600Y-70450813D01*
X109136600Y-70204387D01*
X109184675Y-69962697D01*
X109278978Y-69735029D01*
X109415885Y-69530134D01*
X109590134Y-69355885D01*
X109795029Y-69218978D01*
X110022697Y-69124675D01*
X110264386Y-69076600D01*
X110510814Y-69076600D01*
X110752503Y-69124675D01*
G37*
G36*
X107252503Y-69124675D02*
G01*
X107480171Y-69218978D01*
X107685066Y-69355885D01*
X107859315Y-69530134D01*
X107996222Y-69735029D01*
X108090525Y-69962697D01*
X108138600Y-70204387D01*
X108138600Y-70450813D01*
X108090525Y-70692503D01*
X107996222Y-70920171D01*
X107859315Y-71125066D01*
X107685066Y-71299315D01*
X107480171Y-71436222D01*
X107480170Y-71436223D01*
X107480169Y-71436223D01*
X107252503Y-71530525D01*
X107010814Y-71578600D01*
X106764386Y-71578600D01*
X106522697Y-71530525D01*
X106295031Y-71436223D01*
X106295030Y-71436223D01*
X106295029Y-71436222D01*
X106090134Y-71299315D01*
X105915885Y-71125066D01*
X105778978Y-70920171D01*
X105684675Y-70692503D01*
X105636600Y-70450813D01*
X105636600Y-70204387D01*
X105684675Y-69962697D01*
X105778978Y-69735029D01*
X105915885Y-69530134D01*
X106090134Y-69355885D01*
X106295029Y-69218978D01*
X106522697Y-69124675D01*
X106764386Y-69076600D01*
X107010814Y-69076600D01*
X107252503Y-69124675D01*
G37*
G36*
X103752503Y-69124675D02*
G01*
X103980171Y-69218978D01*
X104185066Y-69355885D01*
X104359315Y-69530134D01*
X104496222Y-69735029D01*
X104590525Y-69962697D01*
X104638600Y-70204387D01*
X104638600Y-70450813D01*
X104590525Y-70692503D01*
X104496222Y-70920171D01*
X104359315Y-71125066D01*
X104185066Y-71299315D01*
X103980171Y-71436222D01*
X103980170Y-71436223D01*
X103980169Y-71436223D01*
X103752503Y-71530525D01*
X103510814Y-71578600D01*
X103264386Y-71578600D01*
X103022697Y-71530525D01*
X102795031Y-71436223D01*
X102795030Y-71436223D01*
X102795029Y-71436222D01*
X102590134Y-71299315D01*
X102415885Y-71125066D01*
X102278978Y-70920171D01*
X102184675Y-70692503D01*
X102136600Y-70450813D01*
X102136600Y-70204387D01*
X102184675Y-69962697D01*
X102278978Y-69735029D01*
X102415885Y-69530134D01*
X102590134Y-69355885D01*
X102795029Y-69218978D01*
X103022697Y-69124675D01*
X103264386Y-69076600D01*
X103510814Y-69076600D01*
X103752503Y-69124675D01*
G37*
G36*
X100252503Y-69124675D02*
G01*
X100480171Y-69218978D01*
X100685066Y-69355885D01*
X100859315Y-69530134D01*
X100996222Y-69735029D01*
X101090525Y-69962697D01*
X101138600Y-70204387D01*
X101138600Y-70450813D01*
X101090525Y-70692503D01*
X100996222Y-70920171D01*
X100859315Y-71125066D01*
X100685066Y-71299315D01*
X100480171Y-71436222D01*
X100480170Y-71436223D01*
X100480169Y-71436223D01*
X100252503Y-71530525D01*
X100010814Y-71578600D01*
X99764386Y-71578600D01*
X99522697Y-71530525D01*
X99295031Y-71436223D01*
X99295030Y-71436223D01*
X99295029Y-71436222D01*
X99090134Y-71299315D01*
X98915885Y-71125066D01*
X98778978Y-70920171D01*
X98684675Y-70692503D01*
X98636600Y-70450813D01*
X98636600Y-70204387D01*
X98684675Y-69962697D01*
X98778978Y-69735029D01*
X98915885Y-69530134D01*
X99090134Y-69355885D01*
X99295029Y-69218978D01*
X99522697Y-69124675D01*
X99764386Y-69076600D01*
X100010814Y-69076600D01*
X100252503Y-69124675D01*
G37*
G36*
X96752503Y-69124675D02*
G01*
X96980171Y-69218978D01*
X97185066Y-69355885D01*
X97359315Y-69530134D01*
X97496222Y-69735029D01*
X97590525Y-69962697D01*
X97638600Y-70204387D01*
X97638600Y-70450813D01*
X97590525Y-70692503D01*
X97496222Y-70920171D01*
X97359315Y-71125066D01*
X97185066Y-71299315D01*
X96980171Y-71436222D01*
X96980170Y-71436223D01*
X96980169Y-71436223D01*
X96752503Y-71530525D01*
X96510814Y-71578600D01*
X96264386Y-71578600D01*
X96022697Y-71530525D01*
X95795031Y-71436223D01*
X95795030Y-71436223D01*
X95795029Y-71436222D01*
X95590134Y-71299315D01*
X95415885Y-71125066D01*
X95278978Y-70920171D01*
X95184675Y-70692503D01*
X95136600Y-70450813D01*
X95136600Y-70204387D01*
X95184675Y-69962697D01*
X95278978Y-69735029D01*
X95415885Y-69530134D01*
X95590134Y-69355885D01*
X95795029Y-69218978D01*
X96022697Y-69124675D01*
X96264386Y-69076600D01*
X96510814Y-69076600D01*
X96752503Y-69124675D01*
G37*
G36*
X93252503Y-69124675D02*
G01*
X93480171Y-69218978D01*
X93685066Y-69355885D01*
X93859315Y-69530134D01*
X93996222Y-69735029D01*
X94090525Y-69962697D01*
X94138600Y-70204387D01*
X94138600Y-70450813D01*
X94090525Y-70692503D01*
X93996222Y-70920171D01*
X93859315Y-71125066D01*
X93685066Y-71299315D01*
X93480171Y-71436222D01*
X93480170Y-71436223D01*
X93480169Y-71436223D01*
X93252503Y-71530525D01*
X93010814Y-71578600D01*
X92764386Y-71578600D01*
X92522697Y-71530525D01*
X92295031Y-71436223D01*
X92295030Y-71436223D01*
X92295029Y-71436222D01*
X92090134Y-71299315D01*
X91915885Y-71125066D01*
X91778978Y-70920171D01*
X91684675Y-70692503D01*
X91636600Y-70450813D01*
X91636600Y-70204387D01*
X91684675Y-69962697D01*
X91778978Y-69735029D01*
X91915885Y-69530134D01*
X92090134Y-69355885D01*
X92295029Y-69218978D01*
X92522697Y-69124675D01*
X92764386Y-69076600D01*
X93010814Y-69076600D01*
X93252503Y-69124675D01*
G37*
G36*
X89752503Y-69124675D02*
G01*
X89980171Y-69218978D01*
X90185066Y-69355885D01*
X90359315Y-69530134D01*
X90496222Y-69735029D01*
X90590525Y-69962697D01*
X90638600Y-70204387D01*
X90638600Y-70450813D01*
X90590525Y-70692503D01*
X90496222Y-70920171D01*
X90359315Y-71125066D01*
X90185066Y-71299315D01*
X89980171Y-71436222D01*
X89980170Y-71436223D01*
X89980169Y-71436223D01*
X89752503Y-71530525D01*
X89510814Y-71578600D01*
X89264386Y-71578600D01*
X89022697Y-71530525D01*
X88795031Y-71436223D01*
X88795030Y-71436223D01*
X88795029Y-71436222D01*
X88590134Y-71299315D01*
X88415885Y-71125066D01*
X88278978Y-70920171D01*
X88184675Y-70692503D01*
X88136600Y-70450813D01*
X88136600Y-70204387D01*
X88184675Y-69962697D01*
X88278978Y-69735029D01*
X88415885Y-69530134D01*
X88590134Y-69355885D01*
X88795029Y-69218978D01*
X89022697Y-69124675D01*
X89264386Y-69076600D01*
X89510814Y-69076600D01*
X89752503Y-69124675D01*
G37*
G36*
X82752503Y-69124675D02*
G01*
X82980171Y-69218978D01*
X83185066Y-69355885D01*
X83359315Y-69530134D01*
X83496222Y-69735029D01*
X83590525Y-69962697D01*
X83638600Y-70204387D01*
X83638600Y-70450813D01*
X83590525Y-70692503D01*
X83496222Y-70920171D01*
X83359315Y-71125066D01*
X83185066Y-71299315D01*
X82980171Y-71436222D01*
X82980170Y-71436223D01*
X82980169Y-71436223D01*
X82752503Y-71530525D01*
X82510814Y-71578600D01*
X82264386Y-71578600D01*
X82022697Y-71530525D01*
X81795031Y-71436223D01*
X81795030Y-71436223D01*
X81795029Y-71436222D01*
X81590134Y-71299315D01*
X81415885Y-71125066D01*
X81278978Y-70920171D01*
X81184675Y-70692503D01*
X81136600Y-70450813D01*
X81136600Y-70204387D01*
X81184675Y-69962697D01*
X81278978Y-69735029D01*
X81415885Y-69530134D01*
X81590134Y-69355885D01*
X81795029Y-69218978D01*
X82022697Y-69124675D01*
X82264386Y-69076600D01*
X82510814Y-69076600D01*
X82752503Y-69124675D01*
G37*
G36*
X79252503Y-69124675D02*
G01*
X79480171Y-69218978D01*
X79685066Y-69355885D01*
X79859315Y-69530134D01*
X79996222Y-69735029D01*
X80090525Y-69962697D01*
X80138600Y-70204387D01*
X80138600Y-70450813D01*
X80090525Y-70692503D01*
X79996222Y-70920171D01*
X79859315Y-71125066D01*
X79685066Y-71299315D01*
X79480171Y-71436222D01*
X79480170Y-71436223D01*
X79480169Y-71436223D01*
X79252503Y-71530525D01*
X79010814Y-71578600D01*
X78764386Y-71578600D01*
X78522697Y-71530525D01*
X78295031Y-71436223D01*
X78295030Y-71436223D01*
X78295029Y-71436222D01*
X78090134Y-71299315D01*
X77915885Y-71125066D01*
X77778978Y-70920171D01*
X77684675Y-70692503D01*
X77636600Y-70450813D01*
X77636600Y-70204387D01*
X77684675Y-69962697D01*
X77778978Y-69735029D01*
X77915885Y-69530134D01*
X78090134Y-69355885D01*
X78295029Y-69218978D01*
X78522697Y-69124675D01*
X78764386Y-69076600D01*
X79010814Y-69076600D01*
X79252503Y-69124675D01*
G37*
G36*
X75752503Y-69124675D02*
G01*
X75980171Y-69218978D01*
X76185066Y-69355885D01*
X76359315Y-69530134D01*
X76496222Y-69735029D01*
X76590525Y-69962697D01*
X76638600Y-70204387D01*
X76638600Y-70450813D01*
X76590525Y-70692503D01*
X76496222Y-70920171D01*
X76359315Y-71125066D01*
X76185066Y-71299315D01*
X75980171Y-71436222D01*
X75980170Y-71436223D01*
X75980169Y-71436223D01*
X75752503Y-71530525D01*
X75510814Y-71578600D01*
X75264386Y-71578600D01*
X75022697Y-71530525D01*
X74795031Y-71436223D01*
X74795030Y-71436223D01*
X74795029Y-71436222D01*
X74590134Y-71299315D01*
X74415885Y-71125066D01*
X74278978Y-70920171D01*
X74184675Y-70692503D01*
X74136600Y-70450813D01*
X74136600Y-70204387D01*
X74184675Y-69962697D01*
X74278978Y-69735029D01*
X74415885Y-69530134D01*
X74590134Y-69355885D01*
X74795029Y-69218978D01*
X75022697Y-69124675D01*
X75264386Y-69076600D01*
X75510814Y-69076600D01*
X75752503Y-69124675D01*
G37*
G36*
X72252503Y-69124675D02*
G01*
X72480171Y-69218978D01*
X72685066Y-69355885D01*
X72859315Y-69530134D01*
X72996222Y-69735029D01*
X73090525Y-69962697D01*
X73138600Y-70204387D01*
X73138600Y-70450813D01*
X73090525Y-70692503D01*
X72996222Y-70920171D01*
X72859315Y-71125066D01*
X72685066Y-71299315D01*
X72480171Y-71436222D01*
X72480170Y-71436223D01*
X72480169Y-71436223D01*
X72252503Y-71530525D01*
X72010814Y-71578600D01*
X71764386Y-71578600D01*
X71522697Y-71530525D01*
X71295031Y-71436223D01*
X71295030Y-71436223D01*
X71295029Y-71436222D01*
X71090134Y-71299315D01*
X70915885Y-71125066D01*
X70778978Y-70920171D01*
X70684675Y-70692503D01*
X70636600Y-70450813D01*
X70636600Y-70204387D01*
X70684675Y-69962697D01*
X70778978Y-69735029D01*
X70915885Y-69530134D01*
X71090134Y-69355885D01*
X71295029Y-69218978D01*
X71522697Y-69124675D01*
X71764386Y-69076600D01*
X72010814Y-69076600D01*
X72252503Y-69124675D01*
G37*
G36*
X68752503Y-69124675D02*
G01*
X68980171Y-69218978D01*
X69185066Y-69355885D01*
X69359315Y-69530134D01*
X69496222Y-69735029D01*
X69590525Y-69962697D01*
X69638600Y-70204387D01*
X69638600Y-70450813D01*
X69590525Y-70692503D01*
X69496222Y-70920171D01*
X69359315Y-71125066D01*
X69185066Y-71299315D01*
X68980171Y-71436222D01*
X68980170Y-71436223D01*
X68980169Y-71436223D01*
X68752503Y-71530525D01*
X68510814Y-71578600D01*
X68264386Y-71578600D01*
X68022697Y-71530525D01*
X67795031Y-71436223D01*
X67795030Y-71436223D01*
X67795029Y-71436222D01*
X67590134Y-71299315D01*
X67415885Y-71125066D01*
X67278978Y-70920171D01*
X67184675Y-70692503D01*
X67136600Y-70450813D01*
X67136600Y-70204387D01*
X67184675Y-69962697D01*
X67278978Y-69735029D01*
X67415885Y-69530134D01*
X67590134Y-69355885D01*
X67795029Y-69218978D01*
X68022697Y-69124675D01*
X68264386Y-69076600D01*
X68510814Y-69076600D01*
X68752503Y-69124675D01*
G37*
G36*
X65252503Y-69124675D02*
G01*
X65480171Y-69218978D01*
X65685066Y-69355885D01*
X65859315Y-69530134D01*
X65996222Y-69735029D01*
X66090525Y-69962697D01*
X66138600Y-70204387D01*
X66138600Y-70450813D01*
X66090525Y-70692503D01*
X65996222Y-70920171D01*
X65859315Y-71125066D01*
X65685066Y-71299315D01*
X65480171Y-71436222D01*
X65480170Y-71436223D01*
X65480169Y-71436223D01*
X65252503Y-71530525D01*
X65010814Y-71578600D01*
X64764386Y-71578600D01*
X64522697Y-71530525D01*
X64295031Y-71436223D01*
X64295030Y-71436223D01*
X64295029Y-71436222D01*
X64090134Y-71299315D01*
X63915885Y-71125066D01*
X63778978Y-70920171D01*
X63684675Y-70692503D01*
X63636600Y-70450813D01*
X63636600Y-70204387D01*
X63684675Y-69962697D01*
X63778978Y-69735029D01*
X63915885Y-69530134D01*
X64090134Y-69355885D01*
X64295029Y-69218978D01*
X64522697Y-69124675D01*
X64764386Y-69076600D01*
X65010814Y-69076600D01*
X65252503Y-69124675D01*
G37*
G36*
X86252503Y-69124675D02*
G01*
X86480171Y-69218978D01*
X86685066Y-69355885D01*
X86859315Y-69530134D01*
X86996222Y-69735029D01*
X87090525Y-69962697D01*
X87138600Y-70204387D01*
X87138600Y-70450813D01*
X87090525Y-70692503D01*
X86996222Y-70920171D01*
X86859315Y-71125066D01*
X86685066Y-71299315D01*
X86480171Y-71436222D01*
X86480170Y-71436223D01*
X86480169Y-71436223D01*
X86252503Y-71530525D01*
X86010814Y-71578600D01*
X85764386Y-71578600D01*
X85522697Y-71530525D01*
X85295031Y-71436223D01*
X85295030Y-71436223D01*
X85295029Y-71436222D01*
X85090134Y-71299315D01*
X84915885Y-71125066D01*
X84778978Y-70920171D01*
X84684675Y-70692503D01*
X84636600Y-70450813D01*
X84636600Y-70204387D01*
X84684675Y-69962697D01*
X84778978Y-69735029D01*
X84915885Y-69530134D01*
X85090134Y-69355885D01*
X85295029Y-69218978D01*
X85522697Y-69124675D01*
X85764386Y-69076600D01*
X86010814Y-69076600D01*
X86252503Y-69124675D01*
G37*
G36*
X80921112Y-62258527D02*
G01*
X81070412Y-62288224D01*
X81234384Y-62356144D01*
X81381954Y-62454747D01*
X81507453Y-62580246D01*
X81606056Y-62727816D01*
X81673976Y-62891788D01*
X81708600Y-63065859D01*
X81708600Y-63243341D01*
X81673976Y-63417412D01*
X81606056Y-63581384D01*
X81507453Y-63728954D01*
X81381954Y-63854453D01*
X81234384Y-63953056D01*
X81070412Y-64020976D01*
X80921112Y-64050673D01*
X80896342Y-64055600D01*
X80718858Y-64055600D01*
X80694088Y-64050673D01*
X80544788Y-64020976D01*
X80380816Y-63953056D01*
X80233246Y-63854453D01*
X80107747Y-63728954D01*
X80009144Y-63581384D01*
X79941224Y-63417412D01*
X79906600Y-63243341D01*
X79906600Y-63065859D01*
X79941224Y-62891788D01*
X80009144Y-62727816D01*
X80107747Y-62580246D01*
X80233246Y-62454747D01*
X80380816Y-62356144D01*
X80544788Y-62288224D01*
X80694088Y-62258527D01*
X80718858Y-62253600D01*
X80896342Y-62253600D01*
X80921112Y-62258527D01*
G37*
G36*
X93621112Y-62258527D02*
G01*
X93770412Y-62288224D01*
X93934384Y-62356144D01*
X94081954Y-62454747D01*
X94207453Y-62580246D01*
X94306056Y-62727816D01*
X94373976Y-62891788D01*
X94408600Y-63065859D01*
X94408600Y-63243341D01*
X94373976Y-63417412D01*
X94306056Y-63581384D01*
X94207453Y-63728954D01*
X94081954Y-63854453D01*
X93934384Y-63953056D01*
X93770412Y-64020976D01*
X93621112Y-64050673D01*
X93596342Y-64055600D01*
X93418858Y-64055600D01*
X93394088Y-64050673D01*
X93244788Y-64020976D01*
X93080816Y-63953056D01*
X92933246Y-63854453D01*
X92807747Y-63728954D01*
X92709144Y-63581384D01*
X92641224Y-63417412D01*
X92606600Y-63243341D01*
X92606600Y-63065859D01*
X92641224Y-62891788D01*
X92709144Y-62727816D01*
X92807747Y-62580246D01*
X92933246Y-62454747D01*
X93080816Y-62356144D01*
X93244788Y-62288224D01*
X93394088Y-62258527D01*
X93418858Y-62253600D01*
X93596342Y-62253600D01*
X93621112Y-62258527D01*
G37*
G36*
X86001112Y-62258527D02*
G01*
X86150412Y-62288224D01*
X86314384Y-62356144D01*
X86461954Y-62454747D01*
X86587453Y-62580246D01*
X86686056Y-62727816D01*
X86753976Y-62891788D01*
X86788600Y-63065859D01*
X86788600Y-63243341D01*
X86753976Y-63417412D01*
X86686056Y-63581384D01*
X86587453Y-63728954D01*
X86461954Y-63854453D01*
X86314384Y-63953056D01*
X86150412Y-64020976D01*
X86001112Y-64050673D01*
X85976342Y-64055600D01*
X85798858Y-64055600D01*
X85774088Y-64050673D01*
X85624788Y-64020976D01*
X85460816Y-63953056D01*
X85313246Y-63854453D01*
X85187747Y-63728954D01*
X85089144Y-63581384D01*
X85021224Y-63417412D01*
X84986600Y-63243341D01*
X84986600Y-63065859D01*
X85021224Y-62891788D01*
X85089144Y-62727816D01*
X85187747Y-62580246D01*
X85313246Y-62454747D01*
X85460816Y-62356144D01*
X85624788Y-62288224D01*
X85774088Y-62258527D01*
X85798858Y-62253600D01*
X85976342Y-62253600D01*
X86001112Y-62258527D01*
G37*
G36*
X83461112Y-62258527D02*
G01*
X83610412Y-62288224D01*
X83774384Y-62356144D01*
X83921954Y-62454747D01*
X84047453Y-62580246D01*
X84146056Y-62727816D01*
X84213976Y-62891788D01*
X84248600Y-63065859D01*
X84248600Y-63243341D01*
X84213976Y-63417412D01*
X84146056Y-63581384D01*
X84047453Y-63728954D01*
X83921954Y-63854453D01*
X83774384Y-63953056D01*
X83610412Y-64020976D01*
X83461112Y-64050673D01*
X83436342Y-64055600D01*
X83258858Y-64055600D01*
X83234088Y-64050673D01*
X83084788Y-64020976D01*
X82920816Y-63953056D01*
X82773246Y-63854453D01*
X82647747Y-63728954D01*
X82549144Y-63581384D01*
X82481224Y-63417412D01*
X82446600Y-63243341D01*
X82446600Y-63065859D01*
X82481224Y-62891788D01*
X82549144Y-62727816D01*
X82647747Y-62580246D01*
X82773246Y-62454747D01*
X82920816Y-62356144D01*
X83084788Y-62288224D01*
X83234088Y-62258527D01*
X83258858Y-62253600D01*
X83436342Y-62253600D01*
X83461112Y-62258527D01*
G37*
G36*
X78381112Y-62258527D02*
G01*
X78530412Y-62288224D01*
X78694384Y-62356144D01*
X78841954Y-62454747D01*
X78967453Y-62580246D01*
X79066056Y-62727816D01*
X79133976Y-62891788D01*
X79168600Y-63065859D01*
X79168600Y-63243341D01*
X79133976Y-63417412D01*
X79066056Y-63581384D01*
X78967453Y-63728954D01*
X78841954Y-63854453D01*
X78694384Y-63953056D01*
X78530412Y-64020976D01*
X78381112Y-64050673D01*
X78356342Y-64055600D01*
X78178858Y-64055600D01*
X78154088Y-64050673D01*
X78004788Y-64020976D01*
X77840816Y-63953056D01*
X77693246Y-63854453D01*
X77567747Y-63728954D01*
X77469144Y-63581384D01*
X77401224Y-63417412D01*
X77366600Y-63243341D01*
X77366600Y-63065859D01*
X77401224Y-62891788D01*
X77469144Y-62727816D01*
X77567747Y-62580246D01*
X77693246Y-62454747D01*
X77840816Y-62356144D01*
X78004788Y-62288224D01*
X78154088Y-62258527D01*
X78178858Y-62253600D01*
X78356342Y-62253600D01*
X78381112Y-62258527D01*
G37*
G36*
X91081112Y-62258527D02*
G01*
X91230412Y-62288224D01*
X91394384Y-62356144D01*
X91541954Y-62454747D01*
X91667453Y-62580246D01*
X91766056Y-62727816D01*
X91833976Y-62891788D01*
X91868600Y-63065859D01*
X91868600Y-63243341D01*
X91833976Y-63417412D01*
X91766056Y-63581384D01*
X91667453Y-63728954D01*
X91541954Y-63854453D01*
X91394384Y-63953056D01*
X91230412Y-64020976D01*
X91081112Y-64050673D01*
X91056342Y-64055600D01*
X90878858Y-64055600D01*
X90854088Y-64050673D01*
X90704788Y-64020976D01*
X90540816Y-63953056D01*
X90393246Y-63854453D01*
X90267747Y-63728954D01*
X90169144Y-63581384D01*
X90101224Y-63417412D01*
X90066600Y-63243341D01*
X90066600Y-63065859D01*
X90101224Y-62891788D01*
X90169144Y-62727816D01*
X90267747Y-62580246D01*
X90393246Y-62454747D01*
X90540816Y-62356144D01*
X90704788Y-62288224D01*
X90854088Y-62258527D01*
X90878858Y-62253600D01*
X91056342Y-62253600D01*
X91081112Y-62258527D01*
G37*
G36*
X73301112Y-62258527D02*
G01*
X73450412Y-62288224D01*
X73614384Y-62356144D01*
X73761954Y-62454747D01*
X73887453Y-62580246D01*
X73986056Y-62727816D01*
X74053976Y-62891788D01*
X74088600Y-63065859D01*
X74088600Y-63243341D01*
X74053976Y-63417412D01*
X73986056Y-63581384D01*
X73887453Y-63728954D01*
X73761954Y-63854453D01*
X73614384Y-63953056D01*
X73450412Y-64020976D01*
X73301112Y-64050673D01*
X73276342Y-64055600D01*
X73098858Y-64055600D01*
X73074088Y-64050673D01*
X72924788Y-64020976D01*
X72760816Y-63953056D01*
X72613246Y-63854453D01*
X72487747Y-63728954D01*
X72389144Y-63581384D01*
X72321224Y-63417412D01*
X72286600Y-63243341D01*
X72286600Y-63065859D01*
X72321224Y-62891788D01*
X72389144Y-62727816D01*
X72487747Y-62580246D01*
X72613246Y-62454747D01*
X72760816Y-62356144D01*
X72924788Y-62288224D01*
X73074088Y-62258527D01*
X73098858Y-62253600D01*
X73276342Y-62253600D01*
X73301112Y-62258527D01*
G37*
G36*
X69008600Y-64055600D02*
G01*
X67206600Y-64055600D01*
X67206600Y-62253600D01*
X69008600Y-62253600D01*
X69008600Y-64055600D01*
G37*
G36*
X96161112Y-62258527D02*
G01*
X96310412Y-62288224D01*
X96474384Y-62356144D01*
X96621954Y-62454747D01*
X96747453Y-62580246D01*
X96846056Y-62727816D01*
X96913976Y-62891788D01*
X96948600Y-63065859D01*
X96948600Y-63243341D01*
X96913976Y-63417412D01*
X96846056Y-63581384D01*
X96747453Y-63728954D01*
X96621954Y-63854453D01*
X96474384Y-63953056D01*
X96310412Y-64020976D01*
X96161112Y-64050673D01*
X96136342Y-64055600D01*
X95958858Y-64055600D01*
X95934088Y-64050673D01*
X95784788Y-64020976D01*
X95620816Y-63953056D01*
X95473246Y-63854453D01*
X95347747Y-63728954D01*
X95249144Y-63581384D01*
X95181224Y-63417412D01*
X95146600Y-63243341D01*
X95146600Y-63065859D01*
X95181224Y-62891788D01*
X95249144Y-62727816D01*
X95347747Y-62580246D01*
X95473246Y-62454747D01*
X95620816Y-62356144D01*
X95784788Y-62288224D01*
X95934088Y-62258527D01*
X95958858Y-62253600D01*
X96136342Y-62253600D01*
X96161112Y-62258527D01*
G37*
G36*
X88541112Y-62258527D02*
G01*
X88690412Y-62288224D01*
X88854384Y-62356144D01*
X89001954Y-62454747D01*
X89127453Y-62580246D01*
X89226056Y-62727816D01*
X89293976Y-62891788D01*
X89328600Y-63065859D01*
X89328600Y-63243341D01*
X89293976Y-63417412D01*
X89226056Y-63581384D01*
X89127453Y-63728954D01*
X89001954Y-63854453D01*
X88854384Y-63953056D01*
X88690412Y-64020976D01*
X88541112Y-64050673D01*
X88516342Y-64055600D01*
X88338858Y-64055600D01*
X88314088Y-64050673D01*
X88164788Y-64020976D01*
X88000816Y-63953056D01*
X87853246Y-63854453D01*
X87727747Y-63728954D01*
X87629144Y-63581384D01*
X87561224Y-63417412D01*
X87526600Y-63243341D01*
X87526600Y-63065859D01*
X87561224Y-62891788D01*
X87629144Y-62727816D01*
X87727747Y-62580246D01*
X87853246Y-62454747D01*
X88000816Y-62356144D01*
X88164788Y-62288224D01*
X88314088Y-62258527D01*
X88338858Y-62253600D01*
X88516342Y-62253600D01*
X88541112Y-62258527D01*
G37*
G36*
X75841112Y-62258527D02*
G01*
X75990412Y-62288224D01*
X76154384Y-62356144D01*
X76301954Y-62454747D01*
X76427453Y-62580246D01*
X76526056Y-62727816D01*
X76593976Y-62891788D01*
X76628600Y-63065859D01*
X76628600Y-63243341D01*
X76593976Y-63417412D01*
X76526056Y-63581384D01*
X76427453Y-63728954D01*
X76301954Y-63854453D01*
X76154384Y-63953056D01*
X75990412Y-64020976D01*
X75841112Y-64050673D01*
X75816342Y-64055600D01*
X75638858Y-64055600D01*
X75614088Y-64050673D01*
X75464788Y-64020976D01*
X75300816Y-63953056D01*
X75153246Y-63854453D01*
X75027747Y-63728954D01*
X74929144Y-63581384D01*
X74861224Y-63417412D01*
X74826600Y-63243341D01*
X74826600Y-63065859D01*
X74861224Y-62891788D01*
X74929144Y-62727816D01*
X75027747Y-62580246D01*
X75153246Y-62454747D01*
X75300816Y-62356144D01*
X75464788Y-62288224D01*
X75614088Y-62258527D01*
X75638858Y-62253600D01*
X75816342Y-62253600D01*
X75841112Y-62258527D01*
G37*
G36*
X98701112Y-62258527D02*
G01*
X98850412Y-62288224D01*
X99014384Y-62356144D01*
X99161954Y-62454747D01*
X99287453Y-62580246D01*
X99386056Y-62727816D01*
X99453976Y-62891788D01*
X99488600Y-63065859D01*
X99488600Y-63243341D01*
X99453976Y-63417412D01*
X99386056Y-63581384D01*
X99287453Y-63728954D01*
X99161954Y-63854453D01*
X99014384Y-63953056D01*
X98850412Y-64020976D01*
X98701112Y-64050673D01*
X98676342Y-64055600D01*
X98498858Y-64055600D01*
X98474088Y-64050673D01*
X98324788Y-64020976D01*
X98160816Y-63953056D01*
X98013246Y-63854453D01*
X97887747Y-63728954D01*
X97789144Y-63581384D01*
X97721224Y-63417412D01*
X97686600Y-63243341D01*
X97686600Y-63065859D01*
X97721224Y-62891788D01*
X97789144Y-62727816D01*
X97887747Y-62580246D01*
X98013246Y-62454747D01*
X98160816Y-62356144D01*
X98324788Y-62288224D01*
X98474088Y-62258527D01*
X98498858Y-62253600D01*
X98676342Y-62253600D01*
X98701112Y-62258527D01*
G37*
G36*
X101241112Y-62258527D02*
G01*
X101390412Y-62288224D01*
X101554384Y-62356144D01*
X101701954Y-62454747D01*
X101827453Y-62580246D01*
X101926056Y-62727816D01*
X101993976Y-62891788D01*
X102028600Y-63065859D01*
X102028600Y-63243341D01*
X101993976Y-63417412D01*
X101926056Y-63581384D01*
X101827453Y-63728954D01*
X101701954Y-63854453D01*
X101554384Y-63953056D01*
X101390412Y-64020976D01*
X101241112Y-64050673D01*
X101216342Y-64055600D01*
X101038858Y-64055600D01*
X101014088Y-64050673D01*
X100864788Y-64020976D01*
X100700816Y-63953056D01*
X100553246Y-63854453D01*
X100427747Y-63728954D01*
X100329144Y-63581384D01*
X100261224Y-63417412D01*
X100226600Y-63243341D01*
X100226600Y-63065859D01*
X100261224Y-62891788D01*
X100329144Y-62727816D01*
X100427747Y-62580246D01*
X100553246Y-62454747D01*
X100700816Y-62356144D01*
X100864788Y-62288224D01*
X101014088Y-62258527D01*
X101038858Y-62253600D01*
X101216342Y-62253600D01*
X101241112Y-62258527D01*
G37*
G36*
X103781112Y-62258527D02*
G01*
X103930412Y-62288224D01*
X104094384Y-62356144D01*
X104241954Y-62454747D01*
X104367453Y-62580246D01*
X104466056Y-62727816D01*
X104533976Y-62891788D01*
X104568600Y-63065859D01*
X104568600Y-63243341D01*
X104533976Y-63417412D01*
X104466056Y-63581384D01*
X104367453Y-63728954D01*
X104241954Y-63854453D01*
X104094384Y-63953056D01*
X103930412Y-64020976D01*
X103781112Y-64050673D01*
X103756342Y-64055600D01*
X103578858Y-64055600D01*
X103554088Y-64050673D01*
X103404788Y-64020976D01*
X103240816Y-63953056D01*
X103093246Y-63854453D01*
X102967747Y-63728954D01*
X102869144Y-63581384D01*
X102801224Y-63417412D01*
X102766600Y-63243341D01*
X102766600Y-63065859D01*
X102801224Y-62891788D01*
X102869144Y-62727816D01*
X102967747Y-62580246D01*
X103093246Y-62454747D01*
X103240816Y-62356144D01*
X103404788Y-62288224D01*
X103554088Y-62258527D01*
X103578858Y-62253600D01*
X103756342Y-62253600D01*
X103781112Y-62258527D01*
G37*
G36*
X70761112Y-62258527D02*
G01*
X70910412Y-62288224D01*
X71074384Y-62356144D01*
X71221954Y-62454747D01*
X71347453Y-62580246D01*
X71446056Y-62727816D01*
X71513976Y-62891788D01*
X71548600Y-63065859D01*
X71548600Y-63243341D01*
X71513976Y-63417412D01*
X71446056Y-63581384D01*
X71347453Y-63728954D01*
X71221954Y-63854453D01*
X71074384Y-63953056D01*
X70910412Y-64020976D01*
X70761112Y-64050673D01*
X70736342Y-64055600D01*
X70558858Y-64055600D01*
X70534088Y-64050673D01*
X70384788Y-64020976D01*
X70220816Y-63953056D01*
X70073246Y-63854453D01*
X69947747Y-63728954D01*
X69849144Y-63581384D01*
X69781224Y-63417412D01*
X69746600Y-63243341D01*
X69746600Y-63065859D01*
X69781224Y-62891788D01*
X69849144Y-62727816D01*
X69947747Y-62580246D01*
X70073246Y-62454747D01*
X70220816Y-62356144D01*
X70384788Y-62288224D01*
X70534088Y-62258527D01*
X70558858Y-62253600D01*
X70736342Y-62253600D01*
X70761112Y-62258527D01*
G37*
G36*
X111590185Y-59093402D02*
G01*
X111740010Y-59123204D01*
X112022274Y-59240121D01*
X112276305Y-59409859D01*
X112492341Y-59625895D01*
X112662079Y-59879926D01*
X112778996Y-60162190D01*
X112838600Y-60461840D01*
X112838600Y-60767360D01*
X112778996Y-61067010D01*
X112662079Y-61349274D01*
X112492341Y-61603305D01*
X112276305Y-61819341D01*
X112022274Y-61989079D01*
X111740010Y-62105996D01*
X111590185Y-62135798D01*
X111440361Y-62165600D01*
X111134839Y-62165600D01*
X110985015Y-62135798D01*
X110835190Y-62105996D01*
X110552926Y-61989079D01*
X110298895Y-61819341D01*
X110082859Y-61603305D01*
X109913121Y-61349274D01*
X109796204Y-61067010D01*
X109736600Y-60767360D01*
X109736600Y-60461840D01*
X109796204Y-60162190D01*
X109913121Y-59879926D01*
X110082859Y-59625895D01*
X110298895Y-59409859D01*
X110552926Y-59240121D01*
X110835190Y-59123204D01*
X110985015Y-59093402D01*
X111134839Y-59063600D01*
X111440361Y-59063600D01*
X111590185Y-59093402D01*
G37*
G36*
X60790185Y-59093402D02*
G01*
X60940010Y-59123204D01*
X61222274Y-59240121D01*
X61476305Y-59409859D01*
X61692341Y-59625895D01*
X61862079Y-59879926D01*
X61978996Y-60162190D01*
X62038600Y-60461840D01*
X62038600Y-60767360D01*
X61978996Y-61067010D01*
X61862079Y-61349274D01*
X61692341Y-61603305D01*
X61476305Y-61819341D01*
X61222274Y-61989079D01*
X60940010Y-62105996D01*
X60790185Y-62135798D01*
X60640361Y-62165600D01*
X60334839Y-62165600D01*
X60185015Y-62135798D01*
X60035190Y-62105996D01*
X59752926Y-61989079D01*
X59498895Y-61819341D01*
X59282859Y-61603305D01*
X59113121Y-61349274D01*
X58996204Y-61067010D01*
X58936600Y-60767360D01*
X58936600Y-60461840D01*
X58996204Y-60162190D01*
X59113121Y-59879926D01*
X59282859Y-59625895D01*
X59498895Y-59409859D01*
X59752926Y-59240121D01*
X60035190Y-59123204D01*
X60185015Y-59093402D01*
X60334839Y-59063600D01*
X60640361Y-59063600D01*
X60790185Y-59093402D01*
G37*
G36*
X65946993Y-54283904D02*
G01*
X66183701Y-54381952D01*
X66183703Y-54381953D01*
X66396735Y-54524296D01*
X66577904Y-54705465D01*
X66720247Y-54918497D01*
X66720248Y-54918499D01*
X66818296Y-55155207D01*
X66868280Y-55406493D01*
X66868280Y-55662707D01*
X66818296Y-55913993D01*
X66720248Y-56150701D01*
X66720247Y-56150703D01*
X66577904Y-56363735D01*
X66396735Y-56544904D01*
X66183703Y-56687247D01*
X66183702Y-56687248D01*
X66183701Y-56687248D01*
X65946993Y-56785296D01*
X65695707Y-56835280D01*
X65439493Y-56835280D01*
X65188207Y-56785296D01*
X64951499Y-56687248D01*
X64951498Y-56687248D01*
X64951497Y-56687247D01*
X64738465Y-56544904D01*
X64557296Y-56363735D01*
X64414953Y-56150703D01*
X64414952Y-56150701D01*
X64316904Y-55913993D01*
X64266920Y-55662707D01*
X64266920Y-55406493D01*
X64316904Y-55155207D01*
X64414952Y-54918499D01*
X64414953Y-54918497D01*
X64557296Y-54705465D01*
X64738465Y-54524296D01*
X64951497Y-54381953D01*
X64951499Y-54381952D01*
X65188207Y-54283904D01*
X65439493Y-54233920D01*
X65695707Y-54233920D01*
X65946993Y-54283904D01*
G37*
G36*
X106586993Y-54283904D02*
G01*
X106823701Y-54381952D01*
X106823703Y-54381953D01*
X107036735Y-54524296D01*
X107217904Y-54705465D01*
X107360247Y-54918497D01*
X107360248Y-54918499D01*
X107458296Y-55155207D01*
X107508280Y-55406493D01*
X107508280Y-55662707D01*
X107458296Y-55913993D01*
X107360248Y-56150701D01*
X107360247Y-56150703D01*
X107217904Y-56363735D01*
X107036735Y-56544904D01*
X106823703Y-56687247D01*
X106823702Y-56687248D01*
X106823701Y-56687248D01*
X106586993Y-56785296D01*
X106335707Y-56835280D01*
X106079493Y-56835280D01*
X105828207Y-56785296D01*
X105591499Y-56687248D01*
X105591498Y-56687248D01*
X105591497Y-56687247D01*
X105378465Y-56544904D01*
X105197296Y-56363735D01*
X105054953Y-56150703D01*
X105054952Y-56150701D01*
X104956904Y-55913993D01*
X104906920Y-55662707D01*
X104906920Y-55406493D01*
X104956904Y-55155207D01*
X105054952Y-54918499D01*
X105054953Y-54918497D01*
X105197296Y-54705465D01*
X105378465Y-54524296D01*
X105591497Y-54381953D01*
X105591499Y-54381952D01*
X105828207Y-54283904D01*
X106079493Y-54233920D01*
X106335707Y-54233920D01*
X106586993Y-54283904D01*
G37*
G36*
X60790185Y-48933402D02*
G01*
X60940010Y-48963204D01*
X61222274Y-49080121D01*
X61476305Y-49249859D01*
X61692341Y-49465895D01*
X61862079Y-49719926D01*
X61978996Y-50002190D01*
X62038600Y-50301840D01*
X62038600Y-50607360D01*
X61978996Y-50907010D01*
X61862079Y-51189274D01*
X61692341Y-51443305D01*
X61476305Y-51659341D01*
X61222274Y-51829079D01*
X60940010Y-51945996D01*
X60790185Y-51975798D01*
X60640361Y-52005600D01*
X60334839Y-52005600D01*
X60185015Y-51975798D01*
X60035190Y-51945996D01*
X59752926Y-51829079D01*
X59498895Y-51659341D01*
X59282859Y-51443305D01*
X59113121Y-51189274D01*
X58996204Y-50907010D01*
X58936600Y-50607360D01*
X58936600Y-50301840D01*
X58996204Y-50002190D01*
X59113121Y-49719926D01*
X59282859Y-49465895D01*
X59498895Y-49249859D01*
X59752926Y-49080121D01*
X60035190Y-48963204D01*
X60185015Y-48933402D01*
X60334839Y-48903600D01*
X60640361Y-48903600D01*
X60790185Y-48933402D01*
G37*
G36*
X111590185Y-48933402D02*
G01*
X111740010Y-48963204D01*
X112022274Y-49080121D01*
X112276305Y-49249859D01*
X112492341Y-49465895D01*
X112662079Y-49719926D01*
X112778996Y-50002190D01*
X112838600Y-50301840D01*
X112838600Y-50607360D01*
X112778996Y-50907010D01*
X112662079Y-51189274D01*
X112492341Y-51443305D01*
X112276305Y-51659341D01*
X112022274Y-51829079D01*
X111740010Y-51945996D01*
X111590185Y-51975798D01*
X111440361Y-52005600D01*
X111134839Y-52005600D01*
X110985015Y-51975798D01*
X110835190Y-51945996D01*
X110552926Y-51829079D01*
X110298895Y-51659341D01*
X110082859Y-51443305D01*
X109913121Y-51189274D01*
X109796204Y-50907010D01*
X109736600Y-50607360D01*
X109736600Y-50301840D01*
X109796204Y-50002190D01*
X109913121Y-49719926D01*
X110082859Y-49465895D01*
X110298895Y-49249859D01*
X110552926Y-49080121D01*
X110835190Y-48963204D01*
X110985015Y-48933402D01*
X111134839Y-48903600D01*
X111440361Y-48903600D01*
X111590185Y-48933402D01*
G37*
G36*
X104568600Y-48815600D02*
G01*
X102766600Y-48815600D01*
X102766600Y-47013600D01*
X104568600Y-47013600D01*
X104568600Y-48815600D01*
G37*
G36*
X80921112Y-47018527D02*
G01*
X81070412Y-47048224D01*
X81234384Y-47116144D01*
X81381954Y-47214747D01*
X81507453Y-47340246D01*
X81606056Y-47487816D01*
X81673976Y-47651788D01*
X81708600Y-47825859D01*
X81708600Y-48003341D01*
X81673976Y-48177412D01*
X81606056Y-48341384D01*
X81507453Y-48488954D01*
X81381954Y-48614453D01*
X81234384Y-48713056D01*
X81070412Y-48780976D01*
X80921112Y-48810673D01*
X80896342Y-48815600D01*
X80718858Y-48815600D01*
X80694088Y-48810673D01*
X80544788Y-48780976D01*
X80380816Y-48713056D01*
X80233246Y-48614453D01*
X80107747Y-48488954D01*
X80009144Y-48341384D01*
X79941224Y-48177412D01*
X79906600Y-48003341D01*
X79906600Y-47825859D01*
X79941224Y-47651788D01*
X80009144Y-47487816D01*
X80107747Y-47340246D01*
X80233246Y-47214747D01*
X80380816Y-47116144D01*
X80544788Y-47048224D01*
X80694088Y-47018527D01*
X80718858Y-47013600D01*
X80896342Y-47013600D01*
X80921112Y-47018527D01*
G37*
G36*
X101241112Y-47018527D02*
G01*
X101390412Y-47048224D01*
X101554384Y-47116144D01*
X101701954Y-47214747D01*
X101827453Y-47340246D01*
X101926056Y-47487816D01*
X101993976Y-47651788D01*
X102028600Y-47825859D01*
X102028600Y-48003341D01*
X101993976Y-48177412D01*
X101926056Y-48341384D01*
X101827453Y-48488954D01*
X101701954Y-48614453D01*
X101554384Y-48713056D01*
X101390412Y-48780976D01*
X101241112Y-48810673D01*
X101216342Y-48815600D01*
X101038858Y-48815600D01*
X101014088Y-48810673D01*
X100864788Y-48780976D01*
X100700816Y-48713056D01*
X100553246Y-48614453D01*
X100427747Y-48488954D01*
X100329144Y-48341384D01*
X100261224Y-48177412D01*
X100226600Y-48003341D01*
X100226600Y-47825859D01*
X100261224Y-47651788D01*
X100329144Y-47487816D01*
X100427747Y-47340246D01*
X100553246Y-47214747D01*
X100700816Y-47116144D01*
X100864788Y-47048224D01*
X101014088Y-47018527D01*
X101038858Y-47013600D01*
X101216342Y-47013600D01*
X101241112Y-47018527D01*
G37*
G36*
X98701112Y-47018527D02*
G01*
X98850412Y-47048224D01*
X99014384Y-47116144D01*
X99161954Y-47214747D01*
X99287453Y-47340246D01*
X99386056Y-47487816D01*
X99453976Y-47651788D01*
X99488600Y-47825859D01*
X99488600Y-48003341D01*
X99453976Y-48177412D01*
X99386056Y-48341384D01*
X99287453Y-48488954D01*
X99161954Y-48614453D01*
X99014384Y-48713056D01*
X98850412Y-48780976D01*
X98701112Y-48810673D01*
X98676342Y-48815600D01*
X98498858Y-48815600D01*
X98474088Y-48810673D01*
X98324788Y-48780976D01*
X98160816Y-48713056D01*
X98013246Y-48614453D01*
X97887747Y-48488954D01*
X97789144Y-48341384D01*
X97721224Y-48177412D01*
X97686600Y-48003341D01*
X97686600Y-47825859D01*
X97721224Y-47651788D01*
X97789144Y-47487816D01*
X97887747Y-47340246D01*
X98013246Y-47214747D01*
X98160816Y-47116144D01*
X98324788Y-47048224D01*
X98474088Y-47018527D01*
X98498858Y-47013600D01*
X98676342Y-47013600D01*
X98701112Y-47018527D01*
G37*
G36*
X96161112Y-47018527D02*
G01*
X96310412Y-47048224D01*
X96474384Y-47116144D01*
X96621954Y-47214747D01*
X96747453Y-47340246D01*
X96846056Y-47487816D01*
X96913976Y-47651788D01*
X96948600Y-47825859D01*
X96948600Y-48003341D01*
X96913976Y-48177412D01*
X96846056Y-48341384D01*
X96747453Y-48488954D01*
X96621954Y-48614453D01*
X96474384Y-48713056D01*
X96310412Y-48780976D01*
X96161112Y-48810673D01*
X96136342Y-48815600D01*
X95958858Y-48815600D01*
X95934088Y-48810673D01*
X95784788Y-48780976D01*
X95620816Y-48713056D01*
X95473246Y-48614453D01*
X95347747Y-48488954D01*
X95249144Y-48341384D01*
X95181224Y-48177412D01*
X95146600Y-48003341D01*
X95146600Y-47825859D01*
X95181224Y-47651788D01*
X95249144Y-47487816D01*
X95347747Y-47340246D01*
X95473246Y-47214747D01*
X95620816Y-47116144D01*
X95784788Y-47048224D01*
X95934088Y-47018527D01*
X95958858Y-47013600D01*
X96136342Y-47013600D01*
X96161112Y-47018527D01*
G37*
G36*
X93621112Y-47018527D02*
G01*
X93770412Y-47048224D01*
X93934384Y-47116144D01*
X94081954Y-47214747D01*
X94207453Y-47340246D01*
X94306056Y-47487816D01*
X94373976Y-47651788D01*
X94408600Y-47825859D01*
X94408600Y-48003341D01*
X94373976Y-48177412D01*
X94306056Y-48341384D01*
X94207453Y-48488954D01*
X94081954Y-48614453D01*
X93934384Y-48713056D01*
X93770412Y-48780976D01*
X93621112Y-48810673D01*
X93596342Y-48815600D01*
X93418858Y-48815600D01*
X93394088Y-48810673D01*
X93244788Y-48780976D01*
X93080816Y-48713056D01*
X92933246Y-48614453D01*
X92807747Y-48488954D01*
X92709144Y-48341384D01*
X92641224Y-48177412D01*
X92606600Y-48003341D01*
X92606600Y-47825859D01*
X92641224Y-47651788D01*
X92709144Y-47487816D01*
X92807747Y-47340246D01*
X92933246Y-47214747D01*
X93080816Y-47116144D01*
X93244788Y-47048224D01*
X93394088Y-47018527D01*
X93418858Y-47013600D01*
X93596342Y-47013600D01*
X93621112Y-47018527D01*
G37*
G36*
X91081112Y-47018527D02*
G01*
X91230412Y-47048224D01*
X91394384Y-47116144D01*
X91541954Y-47214747D01*
X91667453Y-47340246D01*
X91766056Y-47487816D01*
X91833976Y-47651788D01*
X91868600Y-47825859D01*
X91868600Y-48003341D01*
X91833976Y-48177412D01*
X91766056Y-48341384D01*
X91667453Y-48488954D01*
X91541954Y-48614453D01*
X91394384Y-48713056D01*
X91230412Y-48780976D01*
X91081112Y-48810673D01*
X91056342Y-48815600D01*
X90878858Y-48815600D01*
X90854088Y-48810673D01*
X90704788Y-48780976D01*
X90540816Y-48713056D01*
X90393246Y-48614453D01*
X90267747Y-48488954D01*
X90169144Y-48341384D01*
X90101224Y-48177412D01*
X90066600Y-48003341D01*
X90066600Y-47825859D01*
X90101224Y-47651788D01*
X90169144Y-47487816D01*
X90267747Y-47340246D01*
X90393246Y-47214747D01*
X90540816Y-47116144D01*
X90704788Y-47048224D01*
X90854088Y-47018527D01*
X90878858Y-47013600D01*
X91056342Y-47013600D01*
X91081112Y-47018527D01*
G37*
G36*
X88541112Y-47018527D02*
G01*
X88690412Y-47048224D01*
X88854384Y-47116144D01*
X89001954Y-47214747D01*
X89127453Y-47340246D01*
X89226056Y-47487816D01*
X89293976Y-47651788D01*
X89328600Y-47825859D01*
X89328600Y-48003341D01*
X89293976Y-48177412D01*
X89226056Y-48341384D01*
X89127453Y-48488954D01*
X89001954Y-48614453D01*
X88854384Y-48713056D01*
X88690412Y-48780976D01*
X88541112Y-48810673D01*
X88516342Y-48815600D01*
X88338858Y-48815600D01*
X88314088Y-48810673D01*
X88164788Y-48780976D01*
X88000816Y-48713056D01*
X87853246Y-48614453D01*
X87727747Y-48488954D01*
X87629144Y-48341384D01*
X87561224Y-48177412D01*
X87526600Y-48003341D01*
X87526600Y-47825859D01*
X87561224Y-47651788D01*
X87629144Y-47487816D01*
X87727747Y-47340246D01*
X87853246Y-47214747D01*
X88000816Y-47116144D01*
X88164788Y-47048224D01*
X88314088Y-47018527D01*
X88338858Y-47013600D01*
X88516342Y-47013600D01*
X88541112Y-47018527D01*
G37*
G36*
X83461112Y-47018527D02*
G01*
X83610412Y-47048224D01*
X83774384Y-47116144D01*
X83921954Y-47214747D01*
X84047453Y-47340246D01*
X84146056Y-47487816D01*
X84213976Y-47651788D01*
X84248600Y-47825859D01*
X84248600Y-48003341D01*
X84213976Y-48177412D01*
X84146056Y-48341384D01*
X84047453Y-48488954D01*
X83921954Y-48614453D01*
X83774384Y-48713056D01*
X83610412Y-48780976D01*
X83461112Y-48810673D01*
X83436342Y-48815600D01*
X83258858Y-48815600D01*
X83234088Y-48810673D01*
X83084788Y-48780976D01*
X82920816Y-48713056D01*
X82773246Y-48614453D01*
X82647747Y-48488954D01*
X82549144Y-48341384D01*
X82481224Y-48177412D01*
X82446600Y-48003341D01*
X82446600Y-47825859D01*
X82481224Y-47651788D01*
X82549144Y-47487816D01*
X82647747Y-47340246D01*
X82773246Y-47214747D01*
X82920816Y-47116144D01*
X83084788Y-47048224D01*
X83234088Y-47018527D01*
X83258858Y-47013600D01*
X83436342Y-47013600D01*
X83461112Y-47018527D01*
G37*
G36*
X78381112Y-47018527D02*
G01*
X78530412Y-47048224D01*
X78694384Y-47116144D01*
X78841954Y-47214747D01*
X78967453Y-47340246D01*
X79066056Y-47487816D01*
X79133976Y-47651788D01*
X79168600Y-47825859D01*
X79168600Y-48003341D01*
X79133976Y-48177412D01*
X79066056Y-48341384D01*
X78967453Y-48488954D01*
X78841954Y-48614453D01*
X78694384Y-48713056D01*
X78530412Y-48780976D01*
X78381112Y-48810673D01*
X78356342Y-48815600D01*
X78178858Y-48815600D01*
X78154088Y-48810673D01*
X78004788Y-48780976D01*
X77840816Y-48713056D01*
X77693246Y-48614453D01*
X77567747Y-48488954D01*
X77469144Y-48341384D01*
X77401224Y-48177412D01*
X77366600Y-48003341D01*
X77366600Y-47825859D01*
X77401224Y-47651788D01*
X77469144Y-47487816D01*
X77567747Y-47340246D01*
X77693246Y-47214747D01*
X77840816Y-47116144D01*
X78004788Y-47048224D01*
X78154088Y-47018527D01*
X78178858Y-47013600D01*
X78356342Y-47013600D01*
X78381112Y-47018527D01*
G37*
G36*
X75841112Y-47018527D02*
G01*
X75990412Y-47048224D01*
X76154384Y-47116144D01*
X76301954Y-47214747D01*
X76427453Y-47340246D01*
X76526056Y-47487816D01*
X76593976Y-47651788D01*
X76628600Y-47825859D01*
X76628600Y-48003341D01*
X76593976Y-48177412D01*
X76526056Y-48341384D01*
X76427453Y-48488954D01*
X76301954Y-48614453D01*
X76154384Y-48713056D01*
X75990412Y-48780976D01*
X75841112Y-48810673D01*
X75816342Y-48815600D01*
X75638858Y-48815600D01*
X75614088Y-48810673D01*
X75464788Y-48780976D01*
X75300816Y-48713056D01*
X75153246Y-48614453D01*
X75027747Y-48488954D01*
X74929144Y-48341384D01*
X74861224Y-48177412D01*
X74826600Y-48003341D01*
X74826600Y-47825859D01*
X74861224Y-47651788D01*
X74929144Y-47487816D01*
X75027747Y-47340246D01*
X75153246Y-47214747D01*
X75300816Y-47116144D01*
X75464788Y-47048224D01*
X75614088Y-47018527D01*
X75638858Y-47013600D01*
X75816342Y-47013600D01*
X75841112Y-47018527D01*
G37*
G36*
X73301112Y-47018527D02*
G01*
X73450412Y-47048224D01*
X73614384Y-47116144D01*
X73761954Y-47214747D01*
X73887453Y-47340246D01*
X73986056Y-47487816D01*
X74053976Y-47651788D01*
X74088600Y-47825859D01*
X74088600Y-48003341D01*
X74053976Y-48177412D01*
X73986056Y-48341384D01*
X73887453Y-48488954D01*
X73761954Y-48614453D01*
X73614384Y-48713056D01*
X73450412Y-48780976D01*
X73301112Y-48810673D01*
X73276342Y-48815600D01*
X73098858Y-48815600D01*
X73074088Y-48810673D01*
X72924788Y-48780976D01*
X72760816Y-48713056D01*
X72613246Y-48614453D01*
X72487747Y-48488954D01*
X72389144Y-48341384D01*
X72321224Y-48177412D01*
X72286600Y-48003341D01*
X72286600Y-47825859D01*
X72321224Y-47651788D01*
X72389144Y-47487816D01*
X72487747Y-47340246D01*
X72613246Y-47214747D01*
X72760816Y-47116144D01*
X72924788Y-47048224D01*
X73074088Y-47018527D01*
X73098858Y-47013600D01*
X73276342Y-47013600D01*
X73301112Y-47018527D01*
G37*
G36*
X70761112Y-47018527D02*
G01*
X70910412Y-47048224D01*
X71074384Y-47116144D01*
X71221954Y-47214747D01*
X71347453Y-47340246D01*
X71446056Y-47487816D01*
X71513976Y-47651788D01*
X71548600Y-47825859D01*
X71548600Y-48003341D01*
X71513976Y-48177412D01*
X71446056Y-48341384D01*
X71347453Y-48488954D01*
X71221954Y-48614453D01*
X71074384Y-48713056D01*
X70910412Y-48780976D01*
X70761112Y-48810673D01*
X70736342Y-48815600D01*
X70558858Y-48815600D01*
X70534088Y-48810673D01*
X70384788Y-48780976D01*
X70220816Y-48713056D01*
X70073246Y-48614453D01*
X69947747Y-48488954D01*
X69849144Y-48341384D01*
X69781224Y-48177412D01*
X69746600Y-48003341D01*
X69746600Y-47825859D01*
X69781224Y-47651788D01*
X69849144Y-47487816D01*
X69947747Y-47340246D01*
X70073246Y-47214747D01*
X70220816Y-47116144D01*
X70384788Y-47048224D01*
X70534088Y-47018527D01*
X70558858Y-47013600D01*
X70736342Y-47013600D01*
X70761112Y-47018527D01*
G37*
G36*
X68221112Y-47018527D02*
G01*
X68370412Y-47048224D01*
X68534384Y-47116144D01*
X68681954Y-47214747D01*
X68807453Y-47340246D01*
X68906056Y-47487816D01*
X68973976Y-47651788D01*
X69008600Y-47825859D01*
X69008600Y-48003341D01*
X68973976Y-48177412D01*
X68906056Y-48341384D01*
X68807453Y-48488954D01*
X68681954Y-48614453D01*
X68534384Y-48713056D01*
X68370412Y-48780976D01*
X68221112Y-48810673D01*
X68196342Y-48815600D01*
X68018858Y-48815600D01*
X67994088Y-48810673D01*
X67844788Y-48780976D01*
X67680816Y-48713056D01*
X67533246Y-48614453D01*
X67407747Y-48488954D01*
X67309144Y-48341384D01*
X67241224Y-48177412D01*
X67206600Y-48003341D01*
X67206600Y-47825859D01*
X67241224Y-47651788D01*
X67309144Y-47487816D01*
X67407747Y-47340246D01*
X67533246Y-47214747D01*
X67680816Y-47116144D01*
X67844788Y-47048224D01*
X67994088Y-47018527D01*
X68018858Y-47013600D01*
X68196342Y-47013600D01*
X68221112Y-47018527D01*
G37*
G36*
X86001112Y-47018527D02*
G01*
X86150412Y-47048224D01*
X86314384Y-47116144D01*
X86461954Y-47214747D01*
X86587453Y-47340246D01*
X86686056Y-47487816D01*
X86753976Y-47651788D01*
X86788600Y-47825859D01*
X86788600Y-48003341D01*
X86753976Y-48177412D01*
X86686056Y-48341384D01*
X86587453Y-48488954D01*
X86461954Y-48614453D01*
X86314384Y-48713056D01*
X86150412Y-48780976D01*
X86001112Y-48810673D01*
X85976342Y-48815600D01*
X85798858Y-48815600D01*
X85774088Y-48810673D01*
X85624788Y-48780976D01*
X85460816Y-48713056D01*
X85313246Y-48614453D01*
X85187747Y-48488954D01*
X85089144Y-48341384D01*
X85021224Y-48177412D01*
X84986600Y-48003341D01*
X84986600Y-47825859D01*
X85021224Y-47651788D01*
X85089144Y-47487816D01*
X85187747Y-47340246D01*
X85313246Y-47214747D01*
X85460816Y-47116144D01*
X85624788Y-47048224D01*
X85774088Y-47018527D01*
X85798858Y-47013600D01*
X85976342Y-47013600D01*
X86001112Y-47018527D01*
G37*
G36*
X82752503Y-39538675D02*
G01*
X82980171Y-39632978D01*
X83185066Y-39769885D01*
X83359315Y-39944134D01*
X83496222Y-40149029D01*
X83590525Y-40376697D01*
X83638600Y-40618387D01*
X83638600Y-40864813D01*
X83590525Y-41106503D01*
X83496222Y-41334171D01*
X83359315Y-41539066D01*
X83185066Y-41713315D01*
X82980171Y-41850222D01*
X82980170Y-41850223D01*
X82980169Y-41850223D01*
X82752503Y-41944525D01*
X82510814Y-41992600D01*
X82264386Y-41992600D01*
X82022697Y-41944525D01*
X81795031Y-41850223D01*
X81795030Y-41850223D01*
X81795029Y-41850222D01*
X81590134Y-41713315D01*
X81415885Y-41539066D01*
X81278978Y-41334171D01*
X81184675Y-41106503D01*
X81136600Y-40864813D01*
X81136600Y-40618387D01*
X81184675Y-40376697D01*
X81278978Y-40149029D01*
X81415885Y-39944134D01*
X81590134Y-39769885D01*
X81795029Y-39632978D01*
X82022697Y-39538675D01*
X82264386Y-39490600D01*
X82510814Y-39490600D01*
X82752503Y-39538675D01*
G37*
G36*
X65252503Y-39538675D02*
G01*
X65480171Y-39632978D01*
X65685066Y-39769885D01*
X65859315Y-39944134D01*
X65996222Y-40149029D01*
X66090525Y-40376697D01*
X66138600Y-40618387D01*
X66138600Y-40864813D01*
X66090525Y-41106503D01*
X65996222Y-41334171D01*
X65859315Y-41539066D01*
X65685066Y-41713315D01*
X65480171Y-41850222D01*
X65480170Y-41850223D01*
X65480169Y-41850223D01*
X65252503Y-41944525D01*
X65010814Y-41992600D01*
X64764386Y-41992600D01*
X64522697Y-41944525D01*
X64295031Y-41850223D01*
X64295030Y-41850223D01*
X64295029Y-41850222D01*
X64090134Y-41713315D01*
X63915885Y-41539066D01*
X63778978Y-41334171D01*
X63684675Y-41106503D01*
X63636600Y-40864813D01*
X63636600Y-40618387D01*
X63684675Y-40376697D01*
X63778978Y-40149029D01*
X63915885Y-39944134D01*
X64090134Y-39769885D01*
X64295029Y-39632978D01*
X64522697Y-39538675D01*
X64764386Y-39490600D01*
X65010814Y-39490600D01*
X65252503Y-39538675D01*
G37*
G36*
X68752503Y-39538675D02*
G01*
X68980171Y-39632978D01*
X69185066Y-39769885D01*
X69359315Y-39944134D01*
X69496222Y-40149029D01*
X69590525Y-40376697D01*
X69638600Y-40618387D01*
X69638600Y-40864813D01*
X69590525Y-41106503D01*
X69496222Y-41334171D01*
X69359315Y-41539066D01*
X69185066Y-41713315D01*
X68980171Y-41850222D01*
X68980170Y-41850223D01*
X68980169Y-41850223D01*
X68752503Y-41944525D01*
X68510814Y-41992600D01*
X68264386Y-41992600D01*
X68022697Y-41944525D01*
X67795031Y-41850223D01*
X67795030Y-41850223D01*
X67795029Y-41850222D01*
X67590134Y-41713315D01*
X67415885Y-41539066D01*
X67278978Y-41334171D01*
X67184675Y-41106503D01*
X67136600Y-40864813D01*
X67136600Y-40618387D01*
X67184675Y-40376697D01*
X67278978Y-40149029D01*
X67415885Y-39944134D01*
X67590134Y-39769885D01*
X67795029Y-39632978D01*
X68022697Y-39538675D01*
X68264386Y-39490600D01*
X68510814Y-39490600D01*
X68752503Y-39538675D01*
G37*
G36*
X72252503Y-39538675D02*
G01*
X72480171Y-39632978D01*
X72685066Y-39769885D01*
X72859315Y-39944134D01*
X72996222Y-40149029D01*
X73090525Y-40376697D01*
X73138600Y-40618387D01*
X73138600Y-40864813D01*
X73090525Y-41106503D01*
X72996222Y-41334171D01*
X72859315Y-41539066D01*
X72685066Y-41713315D01*
X72480171Y-41850222D01*
X72480170Y-41850223D01*
X72480169Y-41850223D01*
X72252503Y-41944525D01*
X72010814Y-41992600D01*
X71764386Y-41992600D01*
X71522697Y-41944525D01*
X71295031Y-41850223D01*
X71295030Y-41850223D01*
X71295029Y-41850222D01*
X71090134Y-41713315D01*
X70915885Y-41539066D01*
X70778978Y-41334171D01*
X70684675Y-41106503D01*
X70636600Y-40864813D01*
X70636600Y-40618387D01*
X70684675Y-40376697D01*
X70778978Y-40149029D01*
X70915885Y-39944134D01*
X71090134Y-39769885D01*
X71295029Y-39632978D01*
X71522697Y-39538675D01*
X71764386Y-39490600D01*
X72010814Y-39490600D01*
X72252503Y-39538675D01*
G37*
G36*
X75752503Y-39538675D02*
G01*
X75980171Y-39632978D01*
X76185066Y-39769885D01*
X76359315Y-39944134D01*
X76496222Y-40149029D01*
X76590525Y-40376697D01*
X76638600Y-40618387D01*
X76638600Y-40864813D01*
X76590525Y-41106503D01*
X76496222Y-41334171D01*
X76359315Y-41539066D01*
X76185066Y-41713315D01*
X75980171Y-41850222D01*
X75980170Y-41850223D01*
X75980169Y-41850223D01*
X75752503Y-41944525D01*
X75510814Y-41992600D01*
X75264386Y-41992600D01*
X75022697Y-41944525D01*
X74795031Y-41850223D01*
X74795030Y-41850223D01*
X74795029Y-41850222D01*
X74590134Y-41713315D01*
X74415885Y-41539066D01*
X74278978Y-41334171D01*
X74184675Y-41106503D01*
X74136600Y-40864813D01*
X74136600Y-40618387D01*
X74184675Y-40376697D01*
X74278978Y-40149029D01*
X74415885Y-39944134D01*
X74590134Y-39769885D01*
X74795029Y-39632978D01*
X75022697Y-39538675D01*
X75264386Y-39490600D01*
X75510814Y-39490600D01*
X75752503Y-39538675D01*
G37*
G36*
X79252503Y-39538675D02*
G01*
X79480171Y-39632978D01*
X79685066Y-39769885D01*
X79859315Y-39944134D01*
X79996222Y-40149029D01*
X80090525Y-40376697D01*
X80138600Y-40618387D01*
X80138600Y-40864813D01*
X80090525Y-41106503D01*
X79996222Y-41334171D01*
X79859315Y-41539066D01*
X79685066Y-41713315D01*
X79480171Y-41850222D01*
X79480170Y-41850223D01*
X79480169Y-41850223D01*
X79252503Y-41944525D01*
X79010814Y-41992600D01*
X78764386Y-41992600D01*
X78522697Y-41944525D01*
X78295031Y-41850223D01*
X78295030Y-41850223D01*
X78295029Y-41850222D01*
X78090134Y-41713315D01*
X77915885Y-41539066D01*
X77778978Y-41334171D01*
X77684675Y-41106503D01*
X77636600Y-40864813D01*
X77636600Y-40618387D01*
X77684675Y-40376697D01*
X77778978Y-40149029D01*
X77915885Y-39944134D01*
X78090134Y-39769885D01*
X78295029Y-39632978D01*
X78522697Y-39538675D01*
X78764386Y-39490600D01*
X79010814Y-39490600D01*
X79252503Y-39538675D01*
G37*
G36*
X111638600Y-41992600D02*
G01*
X109136600Y-41992600D01*
X109136600Y-39490600D01*
X111638600Y-39490600D01*
X111638600Y-41992600D01*
G37*
G36*
X107252503Y-39538675D02*
G01*
X107480171Y-39632978D01*
X107685066Y-39769885D01*
X107859315Y-39944134D01*
X107996222Y-40149029D01*
X108090525Y-40376697D01*
X108138600Y-40618387D01*
X108138600Y-40864813D01*
X108090525Y-41106503D01*
X107996222Y-41334171D01*
X107859315Y-41539066D01*
X107685066Y-41713315D01*
X107480171Y-41850222D01*
X107480170Y-41850223D01*
X107480169Y-41850223D01*
X107252503Y-41944525D01*
X107010814Y-41992600D01*
X106764386Y-41992600D01*
X106522697Y-41944525D01*
X106295031Y-41850223D01*
X106295030Y-41850223D01*
X106295029Y-41850222D01*
X106090134Y-41713315D01*
X105915885Y-41539066D01*
X105778978Y-41334171D01*
X105684675Y-41106503D01*
X105636600Y-40864813D01*
X105636600Y-40618387D01*
X105684675Y-40376697D01*
X105778978Y-40149029D01*
X105915885Y-39944134D01*
X106090134Y-39769885D01*
X106295029Y-39632978D01*
X106522697Y-39538675D01*
X106764386Y-39490600D01*
X107010814Y-39490600D01*
X107252503Y-39538675D01*
G37*
G36*
X61752503Y-39538675D02*
G01*
X61980171Y-39632978D01*
X62185066Y-39769885D01*
X62359315Y-39944134D01*
X62496222Y-40149029D01*
X62590525Y-40376697D01*
X62638600Y-40618387D01*
X62638600Y-40864813D01*
X62590525Y-41106503D01*
X62496222Y-41334171D01*
X62359315Y-41539066D01*
X62185066Y-41713315D01*
X61980171Y-41850222D01*
X61980170Y-41850223D01*
X61980169Y-41850223D01*
X61752503Y-41944525D01*
X61510814Y-41992600D01*
X61264386Y-41992600D01*
X61022697Y-41944525D01*
X60795031Y-41850223D01*
X60795030Y-41850223D01*
X60795029Y-41850222D01*
X60590134Y-41713315D01*
X60415885Y-41539066D01*
X60278978Y-41334171D01*
X60184675Y-41106503D01*
X60136600Y-40864813D01*
X60136600Y-40618387D01*
X60184675Y-40376697D01*
X60278978Y-40149029D01*
X60415885Y-39944134D01*
X60590134Y-39769885D01*
X60795029Y-39632978D01*
X61022697Y-39538675D01*
X61264386Y-39490600D01*
X61510814Y-39490600D01*
X61752503Y-39538675D01*
G37*
G36*
X89752503Y-39538675D02*
G01*
X89980171Y-39632978D01*
X90185066Y-39769885D01*
X90359315Y-39944134D01*
X90496222Y-40149029D01*
X90590525Y-40376697D01*
X90638600Y-40618387D01*
X90638600Y-40864813D01*
X90590525Y-41106503D01*
X90496222Y-41334171D01*
X90359315Y-41539066D01*
X90185066Y-41713315D01*
X89980171Y-41850222D01*
X89980170Y-41850223D01*
X89980169Y-41850223D01*
X89752503Y-41944525D01*
X89510814Y-41992600D01*
X89264386Y-41992600D01*
X89022697Y-41944525D01*
X88795031Y-41850223D01*
X88795030Y-41850223D01*
X88795029Y-41850222D01*
X88590134Y-41713315D01*
X88415885Y-41539066D01*
X88278978Y-41334171D01*
X88184675Y-41106503D01*
X88136600Y-40864813D01*
X88136600Y-40618387D01*
X88184675Y-40376697D01*
X88278978Y-40149029D01*
X88415885Y-39944134D01*
X88590134Y-39769885D01*
X88795029Y-39632978D01*
X89022697Y-39538675D01*
X89264386Y-39490600D01*
X89510814Y-39490600D01*
X89752503Y-39538675D01*
G37*
G36*
X93252503Y-39538675D02*
G01*
X93480171Y-39632978D01*
X93685066Y-39769885D01*
X93859315Y-39944134D01*
X93996222Y-40149029D01*
X94090525Y-40376697D01*
X94138600Y-40618387D01*
X94138600Y-40864813D01*
X94090525Y-41106503D01*
X93996222Y-41334171D01*
X93859315Y-41539066D01*
X93685066Y-41713315D01*
X93480171Y-41850222D01*
X93480170Y-41850223D01*
X93480169Y-41850223D01*
X93252503Y-41944525D01*
X93010814Y-41992600D01*
X92764386Y-41992600D01*
X92522697Y-41944525D01*
X92295031Y-41850223D01*
X92295030Y-41850223D01*
X92295029Y-41850222D01*
X92090134Y-41713315D01*
X91915885Y-41539066D01*
X91778978Y-41334171D01*
X91684675Y-41106503D01*
X91636600Y-40864813D01*
X91636600Y-40618387D01*
X91684675Y-40376697D01*
X91778978Y-40149029D01*
X91915885Y-39944134D01*
X92090134Y-39769885D01*
X92295029Y-39632978D01*
X92522697Y-39538675D01*
X92764386Y-39490600D01*
X93010814Y-39490600D01*
X93252503Y-39538675D01*
G37*
G36*
X96752503Y-39538675D02*
G01*
X96980171Y-39632978D01*
X97185066Y-39769885D01*
X97359315Y-39944134D01*
X97496222Y-40149029D01*
X97590525Y-40376697D01*
X97638600Y-40618387D01*
X97638600Y-40864813D01*
X97590525Y-41106503D01*
X97496222Y-41334171D01*
X97359315Y-41539066D01*
X97185066Y-41713315D01*
X96980171Y-41850222D01*
X96980170Y-41850223D01*
X96980169Y-41850223D01*
X96752503Y-41944525D01*
X96510814Y-41992600D01*
X96264386Y-41992600D01*
X96022697Y-41944525D01*
X95795031Y-41850223D01*
X95795030Y-41850223D01*
X95795029Y-41850222D01*
X95590134Y-41713315D01*
X95415885Y-41539066D01*
X95278978Y-41334171D01*
X95184675Y-41106503D01*
X95136600Y-40864813D01*
X95136600Y-40618387D01*
X95184675Y-40376697D01*
X95278978Y-40149029D01*
X95415885Y-39944134D01*
X95590134Y-39769885D01*
X95795029Y-39632978D01*
X96022697Y-39538675D01*
X96264386Y-39490600D01*
X96510814Y-39490600D01*
X96752503Y-39538675D01*
G37*
G36*
X100252503Y-39538675D02*
G01*
X100480171Y-39632978D01*
X100685066Y-39769885D01*
X100859315Y-39944134D01*
X100996222Y-40149029D01*
X101090525Y-40376697D01*
X101138600Y-40618387D01*
X101138600Y-40864813D01*
X101090525Y-41106503D01*
X100996222Y-41334171D01*
X100859315Y-41539066D01*
X100685066Y-41713315D01*
X100480171Y-41850222D01*
X100480170Y-41850223D01*
X100480169Y-41850223D01*
X100252503Y-41944525D01*
X100010814Y-41992600D01*
X99764386Y-41992600D01*
X99522697Y-41944525D01*
X99295031Y-41850223D01*
X99295030Y-41850223D01*
X99295029Y-41850222D01*
X99090134Y-41713315D01*
X98915885Y-41539066D01*
X98778978Y-41334171D01*
X98684675Y-41106503D01*
X98636600Y-40864813D01*
X98636600Y-40618387D01*
X98684675Y-40376697D01*
X98778978Y-40149029D01*
X98915885Y-39944134D01*
X99090134Y-39769885D01*
X99295029Y-39632978D01*
X99522697Y-39538675D01*
X99764386Y-39490600D01*
X100010814Y-39490600D01*
X100252503Y-39538675D01*
G37*
G36*
X103752503Y-39538675D02*
G01*
X103980171Y-39632978D01*
X104185066Y-39769885D01*
X104359315Y-39944134D01*
X104496222Y-40149029D01*
X104590525Y-40376697D01*
X104638600Y-40618387D01*
X104638600Y-40864813D01*
X104590525Y-41106503D01*
X104496222Y-41334171D01*
X104359315Y-41539066D01*
X104185066Y-41713315D01*
X103980171Y-41850222D01*
X103980170Y-41850223D01*
X103980169Y-41850223D01*
X103752503Y-41944525D01*
X103510814Y-41992600D01*
X103264386Y-41992600D01*
X103022697Y-41944525D01*
X102795031Y-41850223D01*
X102795030Y-41850223D01*
X102795029Y-41850222D01*
X102590134Y-41713315D01*
X102415885Y-41539066D01*
X102278978Y-41334171D01*
X102184675Y-41106503D01*
X102136600Y-40864813D01*
X102136600Y-40618387D01*
X102184675Y-40376697D01*
X102278978Y-40149029D01*
X102415885Y-39944134D01*
X102590134Y-39769885D01*
X102795029Y-39632978D01*
X103022697Y-39538675D01*
X103264386Y-39490600D01*
X103510814Y-39490600D01*
X103752503Y-39538675D01*
G37*
G36*
X86252503Y-39538675D02*
G01*
X86480171Y-39632978D01*
X86685066Y-39769885D01*
X86859315Y-39944134D01*
X86996222Y-40149029D01*
X87090525Y-40376697D01*
X87138600Y-40618387D01*
X87138600Y-40864813D01*
X87090525Y-41106503D01*
X86996222Y-41334171D01*
X86859315Y-41539066D01*
X86685066Y-41713315D01*
X86480171Y-41850222D01*
X86480170Y-41850223D01*
X86480169Y-41850223D01*
X86252503Y-41944525D01*
X86010814Y-41992600D01*
X85764386Y-41992600D01*
X85522697Y-41944525D01*
X85295031Y-41850223D01*
X85295030Y-41850223D01*
X85295029Y-41850222D01*
X85090134Y-41713315D01*
X84915885Y-41539066D01*
X84778978Y-41334171D01*
X84684675Y-41106503D01*
X84636600Y-40864813D01*
X84636600Y-40618387D01*
X84684675Y-40376697D01*
X84778978Y-40149029D01*
X84915885Y-39944134D01*
X85090134Y-39769885D01*
X85295029Y-39632978D01*
X85522697Y-39538675D01*
X85764386Y-39490600D01*
X86010814Y-39490600D01*
X86252503Y-39538675D01*
G37*
M02*
