G04 #@! TF.GenerationSoftware,KiCad,Pcbnew,5.1.5-52549c5~86~ubuntu18.04.1*
G04 #@! TF.CreationDate,2020-10-04T23:59:35-05:00*
G04 #@! TF.ProjectId,B05,4230352e-6b69-4636-9164-5f7063625858,rev?*
G04 #@! TF.SameCoordinates,Original*
G04 #@! TF.FileFunction,Copper,L1,Top*
G04 #@! TF.FilePolarity,Positive*
%FSLAX46Y46*%
G04 Gerber Fmt 4.6, Leading zero omitted, Abs format (unit mm)*
G04 Created by KiCad (PCBNEW 5.1.5-52549c5~86~ubuntu18.04.1) date 2020-10-04 23:59:35*
%MOMM*%
%LPD*%
G04 APERTURE LIST*
%ADD10C,0.250000*%
%ADD11C,2.500000*%
%ADD12R,2.500000X2.500000*%
%ADD13C,2.499360*%
%ADD14C,0.750000*%
%ADD15C,0.254000*%
G04 APERTURE END LIST*
D10*
X21026428Y-30989923D02*
X20978809Y-31132780D01*
X20931190Y-31180400D01*
X20835952Y-31228019D01*
X20693095Y-31228019D01*
X20597857Y-31180400D01*
X20550238Y-31132780D01*
X20502619Y-31037542D01*
X20502619Y-30656590D01*
X21502619Y-30656590D01*
X21502619Y-30989923D01*
X21455000Y-31085161D01*
X21407380Y-31132780D01*
X21312142Y-31180400D01*
X21216904Y-31180400D01*
X21121666Y-31132780D01*
X21074047Y-31085161D01*
X21026428Y-30989923D01*
X21026428Y-30656590D01*
X21502619Y-31847066D02*
X21502619Y-31942304D01*
X21455000Y-32037542D01*
X21407380Y-32085161D01*
X21312142Y-32132780D01*
X21121666Y-32180400D01*
X20883571Y-32180400D01*
X20693095Y-32132780D01*
X20597857Y-32085161D01*
X20550238Y-32037542D01*
X20502619Y-31942304D01*
X20502619Y-31847066D01*
X20550238Y-31751828D01*
X20597857Y-31704209D01*
X20693095Y-31656590D01*
X20883571Y-31608971D01*
X21121666Y-31608971D01*
X21312142Y-31656590D01*
X21407380Y-31704209D01*
X21455000Y-31751828D01*
X21502619Y-31847066D01*
X21502619Y-33085161D02*
X21502619Y-32608971D01*
X21026428Y-32561352D01*
X21074047Y-32608971D01*
X21121666Y-32704209D01*
X21121666Y-32942304D01*
X21074047Y-33037542D01*
X21026428Y-33085161D01*
X20931190Y-33132780D01*
X20693095Y-33132780D01*
X20597857Y-33085161D01*
X20550238Y-33037542D01*
X20502619Y-32942304D01*
X20502619Y-32704209D01*
X20550238Y-32608971D01*
X20597857Y-32561352D01*
X20407380Y-33323257D02*
X20407380Y-34085161D01*
X20550238Y-34275638D02*
X20502619Y-34418495D01*
X20502619Y-34656590D01*
X20550238Y-34751828D01*
X20597857Y-34799447D01*
X20693095Y-34847066D01*
X20788333Y-34847066D01*
X20883571Y-34799447D01*
X20931190Y-34751828D01*
X20978809Y-34656590D01*
X21026428Y-34466114D01*
X21074047Y-34370876D01*
X21121666Y-34323257D01*
X21216904Y-34275638D01*
X21312142Y-34275638D01*
X21407380Y-34323257D01*
X21455000Y-34370876D01*
X21502619Y-34466114D01*
X21502619Y-34704209D01*
X21455000Y-34847066D01*
X21407380Y-35228019D02*
X21455000Y-35275638D01*
X21502619Y-35370876D01*
X21502619Y-35608971D01*
X21455000Y-35704209D01*
X21407380Y-35751828D01*
X21312142Y-35799447D01*
X21216904Y-35799447D01*
X21074047Y-35751828D01*
X20502619Y-35180400D01*
X20502619Y-35799447D01*
X20550238Y-36180400D02*
X20502619Y-36323257D01*
X20502619Y-36561352D01*
X20550238Y-36656590D01*
X20597857Y-36704209D01*
X20693095Y-36751828D01*
X20788333Y-36751828D01*
X20883571Y-36704209D01*
X20931190Y-36656590D01*
X20978809Y-36561352D01*
X21026428Y-36370876D01*
X21074047Y-36275638D01*
X21121666Y-36228019D01*
X21216904Y-36180400D01*
X21312142Y-36180400D01*
X21407380Y-36228019D01*
X21455000Y-36275638D01*
X21502619Y-36370876D01*
X21502619Y-36608971D01*
X21455000Y-36751828D01*
D11*
X49050000Y-33345200D03*
X44050000Y-33345200D03*
X39050000Y-33345200D03*
X34050000Y-33345200D03*
D12*
X29050000Y-33345200D03*
D11*
X29050000Y-24434800D03*
X34050000Y-24434800D03*
X39050000Y-24434800D03*
X44050000Y-24434800D03*
D12*
X49050000Y-24434800D03*
D13*
X54290000Y-28890000D03*
X23810000Y-28890000D03*
D14*
X29050000Y-24434800D02*
X29050000Y-33345200D01*
X34050000Y-24434800D02*
X34050000Y-33345200D01*
X39050000Y-24434800D02*
X39050000Y-33345200D01*
X44050000Y-24434800D02*
X44050000Y-33345200D01*
X49050000Y-24434800D02*
X49050000Y-33345200D01*
D15*
G36*
X57440001Y-37120000D02*
G01*
X22372500Y-37120000D01*
X22372500Y-35551846D01*
X22449017Y-35628363D01*
X22798698Y-35862012D01*
X23187244Y-36022953D01*
X23599721Y-36105000D01*
X24020279Y-36105000D01*
X24432756Y-36022953D01*
X24821302Y-35862012D01*
X25170983Y-35628363D01*
X25468363Y-35330983D01*
X25702012Y-34981302D01*
X25862953Y-34592756D01*
X25945000Y-34180279D01*
X25945000Y-33759721D01*
X25862953Y-33347244D01*
X25702012Y-32958698D01*
X25468363Y-32609017D01*
X25170983Y-32311637D01*
X24847062Y-32095200D01*
X27161928Y-32095200D01*
X27161928Y-34595200D01*
X27174188Y-34719682D01*
X27210498Y-34839380D01*
X27269463Y-34949694D01*
X27348815Y-35046385D01*
X27445506Y-35125737D01*
X27555820Y-35184702D01*
X27675518Y-35221012D01*
X27800000Y-35233272D01*
X30300000Y-35233272D01*
X30424482Y-35221012D01*
X30544180Y-35184702D01*
X30654494Y-35125737D01*
X30751185Y-35046385D01*
X30830537Y-34949694D01*
X30889502Y-34839380D01*
X30925812Y-34719682D01*
X30938072Y-34595200D01*
X30938072Y-32095200D01*
X30925812Y-31970718D01*
X30889502Y-31851020D01*
X30830537Y-31740706D01*
X30751185Y-31644015D01*
X30654494Y-31564663D01*
X30544180Y-31505698D01*
X30424482Y-31469388D01*
X30300000Y-31457128D01*
X30060000Y-31457128D01*
X30060000Y-26027010D01*
X30251618Y-25898975D01*
X30514175Y-25636418D01*
X30720466Y-25327682D01*
X30862561Y-24984634D01*
X30935000Y-24620456D01*
X30935000Y-24249144D01*
X32165000Y-24249144D01*
X32165000Y-24620456D01*
X32237439Y-24984634D01*
X32379534Y-25327682D01*
X32585825Y-25636418D01*
X32848382Y-25898975D01*
X33040000Y-26027010D01*
X33040001Y-31752989D01*
X32848382Y-31881025D01*
X32585825Y-32143582D01*
X32379534Y-32452318D01*
X32237439Y-32795366D01*
X32165000Y-33159544D01*
X32165000Y-33530856D01*
X32237439Y-33895034D01*
X32379534Y-34238082D01*
X32585825Y-34546818D01*
X32848382Y-34809375D01*
X33157118Y-35015666D01*
X33500166Y-35157761D01*
X33864344Y-35230200D01*
X34235656Y-35230200D01*
X34599834Y-35157761D01*
X34942882Y-35015666D01*
X35251618Y-34809375D01*
X35514175Y-34546818D01*
X35720466Y-34238082D01*
X35862561Y-33895034D01*
X35935000Y-33530856D01*
X35935000Y-33159544D01*
X35862561Y-32795366D01*
X35720466Y-32452318D01*
X35514175Y-32143582D01*
X35251618Y-31881025D01*
X35060000Y-31752990D01*
X35060000Y-26027010D01*
X35251618Y-25898975D01*
X35514175Y-25636418D01*
X35720466Y-25327682D01*
X35862561Y-24984634D01*
X35935000Y-24620456D01*
X35935000Y-24249144D01*
X37165000Y-24249144D01*
X37165000Y-24620456D01*
X37237439Y-24984634D01*
X37379534Y-25327682D01*
X37585825Y-25636418D01*
X37848382Y-25898975D01*
X38040000Y-26027010D01*
X38040001Y-31752989D01*
X37848382Y-31881025D01*
X37585825Y-32143582D01*
X37379534Y-32452318D01*
X37237439Y-32795366D01*
X37165000Y-33159544D01*
X37165000Y-33530856D01*
X37237439Y-33895034D01*
X37379534Y-34238082D01*
X37585825Y-34546818D01*
X37848382Y-34809375D01*
X38157118Y-35015666D01*
X38500166Y-35157761D01*
X38864344Y-35230200D01*
X39235656Y-35230200D01*
X39599834Y-35157761D01*
X39942882Y-35015666D01*
X40251618Y-34809375D01*
X40514175Y-34546818D01*
X40720466Y-34238082D01*
X40862561Y-33895034D01*
X40935000Y-33530856D01*
X40935000Y-33159544D01*
X40862561Y-32795366D01*
X40720466Y-32452318D01*
X40514175Y-32143582D01*
X40251618Y-31881025D01*
X40060000Y-31752990D01*
X40060000Y-26027010D01*
X40251618Y-25898975D01*
X40514175Y-25636418D01*
X40720466Y-25327682D01*
X40862561Y-24984634D01*
X40935000Y-24620456D01*
X40935000Y-24249144D01*
X42165000Y-24249144D01*
X42165000Y-24620456D01*
X42237439Y-24984634D01*
X42379534Y-25327682D01*
X42585825Y-25636418D01*
X42848382Y-25898975D01*
X43040000Y-26027010D01*
X43040001Y-31752989D01*
X42848382Y-31881025D01*
X42585825Y-32143582D01*
X42379534Y-32452318D01*
X42237439Y-32795366D01*
X42165000Y-33159544D01*
X42165000Y-33530856D01*
X42237439Y-33895034D01*
X42379534Y-34238082D01*
X42585825Y-34546818D01*
X42848382Y-34809375D01*
X43157118Y-35015666D01*
X43500166Y-35157761D01*
X43864344Y-35230200D01*
X44235656Y-35230200D01*
X44599834Y-35157761D01*
X44942882Y-35015666D01*
X45251618Y-34809375D01*
X45514175Y-34546818D01*
X45720466Y-34238082D01*
X45862561Y-33895034D01*
X45935000Y-33530856D01*
X45935000Y-33159544D01*
X45862561Y-32795366D01*
X45720466Y-32452318D01*
X45514175Y-32143582D01*
X45251618Y-31881025D01*
X45060000Y-31752990D01*
X45060000Y-26027010D01*
X45251618Y-25898975D01*
X45514175Y-25636418D01*
X45720466Y-25327682D01*
X45862561Y-24984634D01*
X45935000Y-24620456D01*
X45935000Y-24249144D01*
X45862561Y-23884966D01*
X45720466Y-23541918D01*
X45514175Y-23233182D01*
X45465793Y-23184800D01*
X47161928Y-23184800D01*
X47161928Y-25684800D01*
X47174188Y-25809282D01*
X47210498Y-25928980D01*
X47269463Y-26039294D01*
X47348815Y-26135985D01*
X47445506Y-26215337D01*
X47555820Y-26274302D01*
X47675518Y-26310612D01*
X47800000Y-26322872D01*
X48040000Y-26322872D01*
X48040001Y-31752989D01*
X47848382Y-31881025D01*
X47585825Y-32143582D01*
X47379534Y-32452318D01*
X47237439Y-32795366D01*
X47165000Y-33159544D01*
X47165000Y-33530856D01*
X47237439Y-33895034D01*
X47379534Y-34238082D01*
X47585825Y-34546818D01*
X47848382Y-34809375D01*
X48157118Y-35015666D01*
X48500166Y-35157761D01*
X48864344Y-35230200D01*
X49235656Y-35230200D01*
X49599834Y-35157761D01*
X49942882Y-35015666D01*
X50251618Y-34809375D01*
X50514175Y-34546818D01*
X50720466Y-34238082D01*
X50862561Y-33895034D01*
X50889476Y-33759721D01*
X52155000Y-33759721D01*
X52155000Y-34180279D01*
X52237047Y-34592756D01*
X52397988Y-34981302D01*
X52631637Y-35330983D01*
X52929017Y-35628363D01*
X53278698Y-35862012D01*
X53667244Y-36022953D01*
X54079721Y-36105000D01*
X54500279Y-36105000D01*
X54912756Y-36022953D01*
X55301302Y-35862012D01*
X55650983Y-35628363D01*
X55948363Y-35330983D01*
X56182012Y-34981302D01*
X56342953Y-34592756D01*
X56425000Y-34180279D01*
X56425000Y-33759721D01*
X56342953Y-33347244D01*
X56182012Y-32958698D01*
X55948363Y-32609017D01*
X55650983Y-32311637D01*
X55301302Y-32077988D01*
X54912756Y-31917047D01*
X54500279Y-31835000D01*
X54079721Y-31835000D01*
X53667244Y-31917047D01*
X53278698Y-32077988D01*
X52929017Y-32311637D01*
X52631637Y-32609017D01*
X52397988Y-32958698D01*
X52237047Y-33347244D01*
X52155000Y-33759721D01*
X50889476Y-33759721D01*
X50935000Y-33530856D01*
X50935000Y-33159544D01*
X50862561Y-32795366D01*
X50720466Y-32452318D01*
X50514175Y-32143582D01*
X50251618Y-31881025D01*
X50060000Y-31752990D01*
X50060000Y-30203377D01*
X53156229Y-30203377D01*
X53282104Y-30493315D01*
X53614262Y-30659139D01*
X53972387Y-30756975D01*
X54342719Y-30783065D01*
X54711025Y-30736405D01*
X55063151Y-30618789D01*
X55297896Y-30493315D01*
X55423771Y-30203377D01*
X54290000Y-29069605D01*
X53156229Y-30203377D01*
X50060000Y-30203377D01*
X50060000Y-28942719D01*
X52396935Y-28942719D01*
X52443595Y-29311025D01*
X52561211Y-29663151D01*
X52686685Y-29897896D01*
X52976623Y-30023771D01*
X54110395Y-28890000D01*
X54469605Y-28890000D01*
X55603377Y-30023771D01*
X55893315Y-29897896D01*
X56059139Y-29565738D01*
X56156975Y-29207613D01*
X56183065Y-28837281D01*
X56136405Y-28468975D01*
X56018789Y-28116849D01*
X55893315Y-27882104D01*
X55603377Y-27756229D01*
X54469605Y-28890000D01*
X54110395Y-28890000D01*
X52976623Y-27756229D01*
X52686685Y-27882104D01*
X52520861Y-28214262D01*
X52423025Y-28572387D01*
X52396935Y-28942719D01*
X50060000Y-28942719D01*
X50060000Y-27576623D01*
X53156229Y-27576623D01*
X54290000Y-28710395D01*
X55423771Y-27576623D01*
X55297896Y-27286685D01*
X54965738Y-27120861D01*
X54607613Y-27023025D01*
X54237281Y-26996935D01*
X53868975Y-27043595D01*
X53516849Y-27161211D01*
X53282104Y-27286685D01*
X53156229Y-27576623D01*
X50060000Y-27576623D01*
X50060000Y-26322872D01*
X50300000Y-26322872D01*
X50424482Y-26310612D01*
X50544180Y-26274302D01*
X50654494Y-26215337D01*
X50751185Y-26135985D01*
X50830537Y-26039294D01*
X50889502Y-25928980D01*
X50925812Y-25809282D01*
X50938072Y-25684800D01*
X50938072Y-23599721D01*
X52155000Y-23599721D01*
X52155000Y-24020279D01*
X52237047Y-24432756D01*
X52397988Y-24821302D01*
X52631637Y-25170983D01*
X52929017Y-25468363D01*
X53278698Y-25702012D01*
X53667244Y-25862953D01*
X54079721Y-25945000D01*
X54500279Y-25945000D01*
X54912756Y-25862953D01*
X55301302Y-25702012D01*
X55650983Y-25468363D01*
X55948363Y-25170983D01*
X56182012Y-24821302D01*
X56342953Y-24432756D01*
X56425000Y-24020279D01*
X56425000Y-23599721D01*
X56342953Y-23187244D01*
X56182012Y-22798698D01*
X55948363Y-22449017D01*
X55650983Y-22151637D01*
X55301302Y-21917988D01*
X54912756Y-21757047D01*
X54500279Y-21675000D01*
X54079721Y-21675000D01*
X53667244Y-21757047D01*
X53278698Y-21917988D01*
X52929017Y-22151637D01*
X52631637Y-22449017D01*
X52397988Y-22798698D01*
X52237047Y-23187244D01*
X52155000Y-23599721D01*
X50938072Y-23599721D01*
X50938072Y-23184800D01*
X50925812Y-23060318D01*
X50889502Y-22940620D01*
X50830537Y-22830306D01*
X50751185Y-22733615D01*
X50654494Y-22654263D01*
X50544180Y-22595298D01*
X50424482Y-22558988D01*
X50300000Y-22546728D01*
X47800000Y-22546728D01*
X47675518Y-22558988D01*
X47555820Y-22595298D01*
X47445506Y-22654263D01*
X47348815Y-22733615D01*
X47269463Y-22830306D01*
X47210498Y-22940620D01*
X47174188Y-23060318D01*
X47161928Y-23184800D01*
X45465793Y-23184800D01*
X45251618Y-22970625D01*
X44942882Y-22764334D01*
X44599834Y-22622239D01*
X44235656Y-22549800D01*
X43864344Y-22549800D01*
X43500166Y-22622239D01*
X43157118Y-22764334D01*
X42848382Y-22970625D01*
X42585825Y-23233182D01*
X42379534Y-23541918D01*
X42237439Y-23884966D01*
X42165000Y-24249144D01*
X40935000Y-24249144D01*
X40862561Y-23884966D01*
X40720466Y-23541918D01*
X40514175Y-23233182D01*
X40251618Y-22970625D01*
X39942882Y-22764334D01*
X39599834Y-22622239D01*
X39235656Y-22549800D01*
X38864344Y-22549800D01*
X38500166Y-22622239D01*
X38157118Y-22764334D01*
X37848382Y-22970625D01*
X37585825Y-23233182D01*
X37379534Y-23541918D01*
X37237439Y-23884966D01*
X37165000Y-24249144D01*
X35935000Y-24249144D01*
X35862561Y-23884966D01*
X35720466Y-23541918D01*
X35514175Y-23233182D01*
X35251618Y-22970625D01*
X34942882Y-22764334D01*
X34599834Y-22622239D01*
X34235656Y-22549800D01*
X33864344Y-22549800D01*
X33500166Y-22622239D01*
X33157118Y-22764334D01*
X32848382Y-22970625D01*
X32585825Y-23233182D01*
X32379534Y-23541918D01*
X32237439Y-23884966D01*
X32165000Y-24249144D01*
X30935000Y-24249144D01*
X30862561Y-23884966D01*
X30720466Y-23541918D01*
X30514175Y-23233182D01*
X30251618Y-22970625D01*
X29942882Y-22764334D01*
X29599834Y-22622239D01*
X29235656Y-22549800D01*
X28864344Y-22549800D01*
X28500166Y-22622239D01*
X28157118Y-22764334D01*
X27848382Y-22970625D01*
X27585825Y-23233182D01*
X27379534Y-23541918D01*
X27237439Y-23884966D01*
X27165000Y-24249144D01*
X27165000Y-24620456D01*
X27237439Y-24984634D01*
X27379534Y-25327682D01*
X27585825Y-25636418D01*
X27848382Y-25898975D01*
X28040000Y-26027010D01*
X28040001Y-31457128D01*
X27800000Y-31457128D01*
X27675518Y-31469388D01*
X27555820Y-31505698D01*
X27445506Y-31564663D01*
X27348815Y-31644015D01*
X27269463Y-31740706D01*
X27210498Y-31851020D01*
X27174188Y-31970718D01*
X27161928Y-32095200D01*
X24847062Y-32095200D01*
X24821302Y-32077988D01*
X24432756Y-31917047D01*
X24020279Y-31835000D01*
X23599721Y-31835000D01*
X23187244Y-31917047D01*
X22798698Y-32077988D01*
X22449017Y-32311637D01*
X22372500Y-32388154D01*
X22372500Y-30203377D01*
X22676229Y-30203377D01*
X22802104Y-30493315D01*
X23134262Y-30659139D01*
X23492387Y-30756975D01*
X23862719Y-30783065D01*
X24231025Y-30736405D01*
X24583151Y-30618789D01*
X24817896Y-30493315D01*
X24943771Y-30203377D01*
X23810000Y-29069605D01*
X22676229Y-30203377D01*
X22372500Y-30203377D01*
X22372500Y-29969884D01*
X22496623Y-30023771D01*
X23630395Y-28890000D01*
X23989605Y-28890000D01*
X25123377Y-30023771D01*
X25413315Y-29897896D01*
X25579139Y-29565738D01*
X25676975Y-29207613D01*
X25703065Y-28837281D01*
X25656405Y-28468975D01*
X25538789Y-28116849D01*
X25413315Y-27882104D01*
X25123377Y-27756229D01*
X23989605Y-28890000D01*
X23630395Y-28890000D01*
X22496623Y-27756229D01*
X22206685Y-27882104D01*
X22040861Y-28214262D01*
X21943025Y-28572387D01*
X21916935Y-28942719D01*
X21963595Y-29311025D01*
X22079656Y-29658495D01*
X20726400Y-29658495D01*
X20726400Y-27576623D01*
X22676229Y-27576623D01*
X23810000Y-28710395D01*
X24943771Y-27576623D01*
X24817896Y-27286685D01*
X24485738Y-27120861D01*
X24127613Y-27023025D01*
X23757281Y-26996935D01*
X23388975Y-27043595D01*
X23036849Y-27161211D01*
X22802104Y-27286685D01*
X22676229Y-27576623D01*
X20726400Y-27576623D01*
X20726400Y-23599721D01*
X21675000Y-23599721D01*
X21675000Y-24020279D01*
X21757047Y-24432756D01*
X21917988Y-24821302D01*
X22151637Y-25170983D01*
X22449017Y-25468363D01*
X22798698Y-25702012D01*
X23187244Y-25862953D01*
X23599721Y-25945000D01*
X24020279Y-25945000D01*
X24432756Y-25862953D01*
X24821302Y-25702012D01*
X25170983Y-25468363D01*
X25468363Y-25170983D01*
X25702012Y-24821302D01*
X25862953Y-24432756D01*
X25945000Y-24020279D01*
X25945000Y-23599721D01*
X25862953Y-23187244D01*
X25702012Y-22798698D01*
X25468363Y-22449017D01*
X25170983Y-22151637D01*
X24821302Y-21917988D01*
X24432756Y-21757047D01*
X24020279Y-21675000D01*
X23599721Y-21675000D01*
X23187244Y-21757047D01*
X22798698Y-21917988D01*
X22449017Y-22151637D01*
X22151637Y-22449017D01*
X21917988Y-22798698D01*
X21757047Y-23187244D01*
X21675000Y-23599721D01*
X20726400Y-23599721D01*
X20726400Y-20726226D01*
X57440000Y-20675933D01*
X57440001Y-37120000D01*
G37*
X57440001Y-37120000D02*
X22372500Y-37120000D01*
X22372500Y-35551846D01*
X22449017Y-35628363D01*
X22798698Y-35862012D01*
X23187244Y-36022953D01*
X23599721Y-36105000D01*
X24020279Y-36105000D01*
X24432756Y-36022953D01*
X24821302Y-35862012D01*
X25170983Y-35628363D01*
X25468363Y-35330983D01*
X25702012Y-34981302D01*
X25862953Y-34592756D01*
X25945000Y-34180279D01*
X25945000Y-33759721D01*
X25862953Y-33347244D01*
X25702012Y-32958698D01*
X25468363Y-32609017D01*
X25170983Y-32311637D01*
X24847062Y-32095200D01*
X27161928Y-32095200D01*
X27161928Y-34595200D01*
X27174188Y-34719682D01*
X27210498Y-34839380D01*
X27269463Y-34949694D01*
X27348815Y-35046385D01*
X27445506Y-35125737D01*
X27555820Y-35184702D01*
X27675518Y-35221012D01*
X27800000Y-35233272D01*
X30300000Y-35233272D01*
X30424482Y-35221012D01*
X30544180Y-35184702D01*
X30654494Y-35125737D01*
X30751185Y-35046385D01*
X30830537Y-34949694D01*
X30889502Y-34839380D01*
X30925812Y-34719682D01*
X30938072Y-34595200D01*
X30938072Y-32095200D01*
X30925812Y-31970718D01*
X30889502Y-31851020D01*
X30830537Y-31740706D01*
X30751185Y-31644015D01*
X30654494Y-31564663D01*
X30544180Y-31505698D01*
X30424482Y-31469388D01*
X30300000Y-31457128D01*
X30060000Y-31457128D01*
X30060000Y-26027010D01*
X30251618Y-25898975D01*
X30514175Y-25636418D01*
X30720466Y-25327682D01*
X30862561Y-24984634D01*
X30935000Y-24620456D01*
X30935000Y-24249144D01*
X32165000Y-24249144D01*
X32165000Y-24620456D01*
X32237439Y-24984634D01*
X32379534Y-25327682D01*
X32585825Y-25636418D01*
X32848382Y-25898975D01*
X33040000Y-26027010D01*
X33040001Y-31752989D01*
X32848382Y-31881025D01*
X32585825Y-32143582D01*
X32379534Y-32452318D01*
X32237439Y-32795366D01*
X32165000Y-33159544D01*
X32165000Y-33530856D01*
X32237439Y-33895034D01*
X32379534Y-34238082D01*
X32585825Y-34546818D01*
X32848382Y-34809375D01*
X33157118Y-35015666D01*
X33500166Y-35157761D01*
X33864344Y-35230200D01*
X34235656Y-35230200D01*
X34599834Y-35157761D01*
X34942882Y-35015666D01*
X35251618Y-34809375D01*
X35514175Y-34546818D01*
X35720466Y-34238082D01*
X35862561Y-33895034D01*
X35935000Y-33530856D01*
X35935000Y-33159544D01*
X35862561Y-32795366D01*
X35720466Y-32452318D01*
X35514175Y-32143582D01*
X35251618Y-31881025D01*
X35060000Y-31752990D01*
X35060000Y-26027010D01*
X35251618Y-25898975D01*
X35514175Y-25636418D01*
X35720466Y-25327682D01*
X35862561Y-24984634D01*
X35935000Y-24620456D01*
X35935000Y-24249144D01*
X37165000Y-24249144D01*
X37165000Y-24620456D01*
X37237439Y-24984634D01*
X37379534Y-25327682D01*
X37585825Y-25636418D01*
X37848382Y-25898975D01*
X38040000Y-26027010D01*
X38040001Y-31752989D01*
X37848382Y-31881025D01*
X37585825Y-32143582D01*
X37379534Y-32452318D01*
X37237439Y-32795366D01*
X37165000Y-33159544D01*
X37165000Y-33530856D01*
X37237439Y-33895034D01*
X37379534Y-34238082D01*
X37585825Y-34546818D01*
X37848382Y-34809375D01*
X38157118Y-35015666D01*
X38500166Y-35157761D01*
X38864344Y-35230200D01*
X39235656Y-35230200D01*
X39599834Y-35157761D01*
X39942882Y-35015666D01*
X40251618Y-34809375D01*
X40514175Y-34546818D01*
X40720466Y-34238082D01*
X40862561Y-33895034D01*
X40935000Y-33530856D01*
X40935000Y-33159544D01*
X40862561Y-32795366D01*
X40720466Y-32452318D01*
X40514175Y-32143582D01*
X40251618Y-31881025D01*
X40060000Y-31752990D01*
X40060000Y-26027010D01*
X40251618Y-25898975D01*
X40514175Y-25636418D01*
X40720466Y-25327682D01*
X40862561Y-24984634D01*
X40935000Y-24620456D01*
X40935000Y-24249144D01*
X42165000Y-24249144D01*
X42165000Y-24620456D01*
X42237439Y-24984634D01*
X42379534Y-25327682D01*
X42585825Y-25636418D01*
X42848382Y-25898975D01*
X43040000Y-26027010D01*
X43040001Y-31752989D01*
X42848382Y-31881025D01*
X42585825Y-32143582D01*
X42379534Y-32452318D01*
X42237439Y-32795366D01*
X42165000Y-33159544D01*
X42165000Y-33530856D01*
X42237439Y-33895034D01*
X42379534Y-34238082D01*
X42585825Y-34546818D01*
X42848382Y-34809375D01*
X43157118Y-35015666D01*
X43500166Y-35157761D01*
X43864344Y-35230200D01*
X44235656Y-35230200D01*
X44599834Y-35157761D01*
X44942882Y-35015666D01*
X45251618Y-34809375D01*
X45514175Y-34546818D01*
X45720466Y-34238082D01*
X45862561Y-33895034D01*
X45935000Y-33530856D01*
X45935000Y-33159544D01*
X45862561Y-32795366D01*
X45720466Y-32452318D01*
X45514175Y-32143582D01*
X45251618Y-31881025D01*
X45060000Y-31752990D01*
X45060000Y-26027010D01*
X45251618Y-25898975D01*
X45514175Y-25636418D01*
X45720466Y-25327682D01*
X45862561Y-24984634D01*
X45935000Y-24620456D01*
X45935000Y-24249144D01*
X45862561Y-23884966D01*
X45720466Y-23541918D01*
X45514175Y-23233182D01*
X45465793Y-23184800D01*
X47161928Y-23184800D01*
X47161928Y-25684800D01*
X47174188Y-25809282D01*
X47210498Y-25928980D01*
X47269463Y-26039294D01*
X47348815Y-26135985D01*
X47445506Y-26215337D01*
X47555820Y-26274302D01*
X47675518Y-26310612D01*
X47800000Y-26322872D01*
X48040000Y-26322872D01*
X48040001Y-31752989D01*
X47848382Y-31881025D01*
X47585825Y-32143582D01*
X47379534Y-32452318D01*
X47237439Y-32795366D01*
X47165000Y-33159544D01*
X47165000Y-33530856D01*
X47237439Y-33895034D01*
X47379534Y-34238082D01*
X47585825Y-34546818D01*
X47848382Y-34809375D01*
X48157118Y-35015666D01*
X48500166Y-35157761D01*
X48864344Y-35230200D01*
X49235656Y-35230200D01*
X49599834Y-35157761D01*
X49942882Y-35015666D01*
X50251618Y-34809375D01*
X50514175Y-34546818D01*
X50720466Y-34238082D01*
X50862561Y-33895034D01*
X50889476Y-33759721D01*
X52155000Y-33759721D01*
X52155000Y-34180279D01*
X52237047Y-34592756D01*
X52397988Y-34981302D01*
X52631637Y-35330983D01*
X52929017Y-35628363D01*
X53278698Y-35862012D01*
X53667244Y-36022953D01*
X54079721Y-36105000D01*
X54500279Y-36105000D01*
X54912756Y-36022953D01*
X55301302Y-35862012D01*
X55650983Y-35628363D01*
X55948363Y-35330983D01*
X56182012Y-34981302D01*
X56342953Y-34592756D01*
X56425000Y-34180279D01*
X56425000Y-33759721D01*
X56342953Y-33347244D01*
X56182012Y-32958698D01*
X55948363Y-32609017D01*
X55650983Y-32311637D01*
X55301302Y-32077988D01*
X54912756Y-31917047D01*
X54500279Y-31835000D01*
X54079721Y-31835000D01*
X53667244Y-31917047D01*
X53278698Y-32077988D01*
X52929017Y-32311637D01*
X52631637Y-32609017D01*
X52397988Y-32958698D01*
X52237047Y-33347244D01*
X52155000Y-33759721D01*
X50889476Y-33759721D01*
X50935000Y-33530856D01*
X50935000Y-33159544D01*
X50862561Y-32795366D01*
X50720466Y-32452318D01*
X50514175Y-32143582D01*
X50251618Y-31881025D01*
X50060000Y-31752990D01*
X50060000Y-30203377D01*
X53156229Y-30203377D01*
X53282104Y-30493315D01*
X53614262Y-30659139D01*
X53972387Y-30756975D01*
X54342719Y-30783065D01*
X54711025Y-30736405D01*
X55063151Y-30618789D01*
X55297896Y-30493315D01*
X55423771Y-30203377D01*
X54290000Y-29069605D01*
X53156229Y-30203377D01*
X50060000Y-30203377D01*
X50060000Y-28942719D01*
X52396935Y-28942719D01*
X52443595Y-29311025D01*
X52561211Y-29663151D01*
X52686685Y-29897896D01*
X52976623Y-30023771D01*
X54110395Y-28890000D01*
X54469605Y-28890000D01*
X55603377Y-30023771D01*
X55893315Y-29897896D01*
X56059139Y-29565738D01*
X56156975Y-29207613D01*
X56183065Y-28837281D01*
X56136405Y-28468975D01*
X56018789Y-28116849D01*
X55893315Y-27882104D01*
X55603377Y-27756229D01*
X54469605Y-28890000D01*
X54110395Y-28890000D01*
X52976623Y-27756229D01*
X52686685Y-27882104D01*
X52520861Y-28214262D01*
X52423025Y-28572387D01*
X52396935Y-28942719D01*
X50060000Y-28942719D01*
X50060000Y-27576623D01*
X53156229Y-27576623D01*
X54290000Y-28710395D01*
X55423771Y-27576623D01*
X55297896Y-27286685D01*
X54965738Y-27120861D01*
X54607613Y-27023025D01*
X54237281Y-26996935D01*
X53868975Y-27043595D01*
X53516849Y-27161211D01*
X53282104Y-27286685D01*
X53156229Y-27576623D01*
X50060000Y-27576623D01*
X50060000Y-26322872D01*
X50300000Y-26322872D01*
X50424482Y-26310612D01*
X50544180Y-26274302D01*
X50654494Y-26215337D01*
X50751185Y-26135985D01*
X50830537Y-26039294D01*
X50889502Y-25928980D01*
X50925812Y-25809282D01*
X50938072Y-25684800D01*
X50938072Y-23599721D01*
X52155000Y-23599721D01*
X52155000Y-24020279D01*
X52237047Y-24432756D01*
X52397988Y-24821302D01*
X52631637Y-25170983D01*
X52929017Y-25468363D01*
X53278698Y-25702012D01*
X53667244Y-25862953D01*
X54079721Y-25945000D01*
X54500279Y-25945000D01*
X54912756Y-25862953D01*
X55301302Y-25702012D01*
X55650983Y-25468363D01*
X55948363Y-25170983D01*
X56182012Y-24821302D01*
X56342953Y-24432756D01*
X56425000Y-24020279D01*
X56425000Y-23599721D01*
X56342953Y-23187244D01*
X56182012Y-22798698D01*
X55948363Y-22449017D01*
X55650983Y-22151637D01*
X55301302Y-21917988D01*
X54912756Y-21757047D01*
X54500279Y-21675000D01*
X54079721Y-21675000D01*
X53667244Y-21757047D01*
X53278698Y-21917988D01*
X52929017Y-22151637D01*
X52631637Y-22449017D01*
X52397988Y-22798698D01*
X52237047Y-23187244D01*
X52155000Y-23599721D01*
X50938072Y-23599721D01*
X50938072Y-23184800D01*
X50925812Y-23060318D01*
X50889502Y-22940620D01*
X50830537Y-22830306D01*
X50751185Y-22733615D01*
X50654494Y-22654263D01*
X50544180Y-22595298D01*
X50424482Y-22558988D01*
X50300000Y-22546728D01*
X47800000Y-22546728D01*
X47675518Y-22558988D01*
X47555820Y-22595298D01*
X47445506Y-22654263D01*
X47348815Y-22733615D01*
X47269463Y-22830306D01*
X47210498Y-22940620D01*
X47174188Y-23060318D01*
X47161928Y-23184800D01*
X45465793Y-23184800D01*
X45251618Y-22970625D01*
X44942882Y-22764334D01*
X44599834Y-22622239D01*
X44235656Y-22549800D01*
X43864344Y-22549800D01*
X43500166Y-22622239D01*
X43157118Y-22764334D01*
X42848382Y-22970625D01*
X42585825Y-23233182D01*
X42379534Y-23541918D01*
X42237439Y-23884966D01*
X42165000Y-24249144D01*
X40935000Y-24249144D01*
X40862561Y-23884966D01*
X40720466Y-23541918D01*
X40514175Y-23233182D01*
X40251618Y-22970625D01*
X39942882Y-22764334D01*
X39599834Y-22622239D01*
X39235656Y-22549800D01*
X38864344Y-22549800D01*
X38500166Y-22622239D01*
X38157118Y-22764334D01*
X37848382Y-22970625D01*
X37585825Y-23233182D01*
X37379534Y-23541918D01*
X37237439Y-23884966D01*
X37165000Y-24249144D01*
X35935000Y-24249144D01*
X35862561Y-23884966D01*
X35720466Y-23541918D01*
X35514175Y-23233182D01*
X35251618Y-22970625D01*
X34942882Y-22764334D01*
X34599834Y-22622239D01*
X34235656Y-22549800D01*
X33864344Y-22549800D01*
X33500166Y-22622239D01*
X33157118Y-22764334D01*
X32848382Y-22970625D01*
X32585825Y-23233182D01*
X32379534Y-23541918D01*
X32237439Y-23884966D01*
X32165000Y-24249144D01*
X30935000Y-24249144D01*
X30862561Y-23884966D01*
X30720466Y-23541918D01*
X30514175Y-23233182D01*
X30251618Y-22970625D01*
X29942882Y-22764334D01*
X29599834Y-22622239D01*
X29235656Y-22549800D01*
X28864344Y-22549800D01*
X28500166Y-22622239D01*
X28157118Y-22764334D01*
X27848382Y-22970625D01*
X27585825Y-23233182D01*
X27379534Y-23541918D01*
X27237439Y-23884966D01*
X27165000Y-24249144D01*
X27165000Y-24620456D01*
X27237439Y-24984634D01*
X27379534Y-25327682D01*
X27585825Y-25636418D01*
X27848382Y-25898975D01*
X28040000Y-26027010D01*
X28040001Y-31457128D01*
X27800000Y-31457128D01*
X27675518Y-31469388D01*
X27555820Y-31505698D01*
X27445506Y-31564663D01*
X27348815Y-31644015D01*
X27269463Y-31740706D01*
X27210498Y-31851020D01*
X27174188Y-31970718D01*
X27161928Y-32095200D01*
X24847062Y-32095200D01*
X24821302Y-32077988D01*
X24432756Y-31917047D01*
X24020279Y-31835000D01*
X23599721Y-31835000D01*
X23187244Y-31917047D01*
X22798698Y-32077988D01*
X22449017Y-32311637D01*
X22372500Y-32388154D01*
X22372500Y-30203377D01*
X22676229Y-30203377D01*
X22802104Y-30493315D01*
X23134262Y-30659139D01*
X23492387Y-30756975D01*
X23862719Y-30783065D01*
X24231025Y-30736405D01*
X24583151Y-30618789D01*
X24817896Y-30493315D01*
X24943771Y-30203377D01*
X23810000Y-29069605D01*
X22676229Y-30203377D01*
X22372500Y-30203377D01*
X22372500Y-29969884D01*
X22496623Y-30023771D01*
X23630395Y-28890000D01*
X23989605Y-28890000D01*
X25123377Y-30023771D01*
X25413315Y-29897896D01*
X25579139Y-29565738D01*
X25676975Y-29207613D01*
X25703065Y-28837281D01*
X25656405Y-28468975D01*
X25538789Y-28116849D01*
X25413315Y-27882104D01*
X25123377Y-27756229D01*
X23989605Y-28890000D01*
X23630395Y-28890000D01*
X22496623Y-27756229D01*
X22206685Y-27882104D01*
X22040861Y-28214262D01*
X21943025Y-28572387D01*
X21916935Y-28942719D01*
X21963595Y-29311025D01*
X22079656Y-29658495D01*
X20726400Y-29658495D01*
X20726400Y-27576623D01*
X22676229Y-27576623D01*
X23810000Y-28710395D01*
X24943771Y-27576623D01*
X24817896Y-27286685D01*
X24485738Y-27120861D01*
X24127613Y-27023025D01*
X23757281Y-26996935D01*
X23388975Y-27043595D01*
X23036849Y-27161211D01*
X22802104Y-27286685D01*
X22676229Y-27576623D01*
X20726400Y-27576623D01*
X20726400Y-23599721D01*
X21675000Y-23599721D01*
X21675000Y-24020279D01*
X21757047Y-24432756D01*
X21917988Y-24821302D01*
X22151637Y-25170983D01*
X22449017Y-25468363D01*
X22798698Y-25702012D01*
X23187244Y-25862953D01*
X23599721Y-25945000D01*
X24020279Y-25945000D01*
X24432756Y-25862953D01*
X24821302Y-25702012D01*
X25170983Y-25468363D01*
X25468363Y-25170983D01*
X25702012Y-24821302D01*
X25862953Y-24432756D01*
X25945000Y-24020279D01*
X25945000Y-23599721D01*
X25862953Y-23187244D01*
X25702012Y-22798698D01*
X25468363Y-22449017D01*
X25170983Y-22151637D01*
X24821302Y-21917988D01*
X24432756Y-21757047D01*
X24020279Y-21675000D01*
X23599721Y-21675000D01*
X23187244Y-21757047D01*
X22798698Y-21917988D01*
X22449017Y-22151637D01*
X22151637Y-22449017D01*
X21917988Y-22798698D01*
X21757047Y-23187244D01*
X21675000Y-23599721D01*
X20726400Y-23599721D01*
X20726400Y-20726226D01*
X57440000Y-20675933D01*
X57440001Y-37120000D01*
M02*
