G04 #@! TF.GenerationSoftware,KiCad,Pcbnew,5.1.5-52549c5~86~ubuntu18.04.1*
G04 #@! TF.CreationDate,2020-10-04T23:59:35-05:00*
G04 #@! TF.ProjectId,B05,4230352e-6b69-4636-9164-5f7063625858,rev?*
G04 #@! TF.SameCoordinates,Original*
G04 #@! TF.FileFunction,Legend,Top*
G04 #@! TF.FilePolarity,Positive*
%FSLAX46Y46*%
G04 Gerber Fmt 4.6, Leading zero omitted, Abs format (unit mm)*
G04 Created by KiCad (PCBNEW 5.1.5-52549c5~86~ubuntu18.04.1) date 2020-10-04 23:59:35*
%MOMM*%
%LPD*%
G04 APERTURE LIST*
%ADD10C,0.150000*%
%ADD11C,0.120000*%
%ADD12C,0.010000*%
G04 APERTURE END LIST*
D10*
X21026428Y-20931523D02*
X20978809Y-21074380D01*
X20931190Y-21122000D01*
X20835952Y-21169619D01*
X20693095Y-21169619D01*
X20597857Y-21122000D01*
X20550238Y-21074380D01*
X20502619Y-20979142D01*
X20502619Y-20598190D01*
X21502619Y-20598190D01*
X21502619Y-20931523D01*
X21455000Y-21026761D01*
X21407380Y-21074380D01*
X21312142Y-21122000D01*
X21216904Y-21122000D01*
X21121666Y-21074380D01*
X21074047Y-21026761D01*
X21026428Y-20931523D01*
X21026428Y-20598190D01*
X21502619Y-21788666D02*
X21502619Y-21883904D01*
X21455000Y-21979142D01*
X21407380Y-22026761D01*
X21312142Y-22074380D01*
X21121666Y-22122000D01*
X20883571Y-22122000D01*
X20693095Y-22074380D01*
X20597857Y-22026761D01*
X20550238Y-21979142D01*
X20502619Y-21883904D01*
X20502619Y-21788666D01*
X20550238Y-21693428D01*
X20597857Y-21645809D01*
X20693095Y-21598190D01*
X20883571Y-21550571D01*
X21121666Y-21550571D01*
X21312142Y-21598190D01*
X21407380Y-21645809D01*
X21455000Y-21693428D01*
X21502619Y-21788666D01*
X21502619Y-23026761D02*
X21502619Y-22550571D01*
X21026428Y-22502952D01*
X21074047Y-22550571D01*
X21121666Y-22645809D01*
X21121666Y-22883904D01*
X21074047Y-22979142D01*
X21026428Y-23026761D01*
X20931190Y-23074380D01*
X20693095Y-23074380D01*
X20597857Y-23026761D01*
X20550238Y-22979142D01*
X20502619Y-22883904D01*
X20502619Y-22645809D01*
X20550238Y-22550571D01*
X20597857Y-22502952D01*
X20407380Y-23264857D02*
X20407380Y-24026761D01*
X20550238Y-24217238D02*
X20502619Y-24360095D01*
X20502619Y-24598190D01*
X20550238Y-24693428D01*
X20597857Y-24741047D01*
X20693095Y-24788666D01*
X20788333Y-24788666D01*
X20883571Y-24741047D01*
X20931190Y-24693428D01*
X20978809Y-24598190D01*
X21026428Y-24407714D01*
X21074047Y-24312476D01*
X21121666Y-24264857D01*
X21216904Y-24217238D01*
X21312142Y-24217238D01*
X21407380Y-24264857D01*
X21455000Y-24312476D01*
X21502619Y-24407714D01*
X21502619Y-24645809D01*
X21455000Y-24788666D01*
X21407380Y-25169619D02*
X21455000Y-25217238D01*
X21502619Y-25312476D01*
X21502619Y-25550571D01*
X21455000Y-25645809D01*
X21407380Y-25693428D01*
X21312142Y-25741047D01*
X21216904Y-25741047D01*
X21074047Y-25693428D01*
X20502619Y-25122000D01*
X20502619Y-25741047D01*
X20550238Y-26122000D02*
X20502619Y-26264857D01*
X20502619Y-26502952D01*
X20550238Y-26598190D01*
X20597857Y-26645809D01*
X20693095Y-26693428D01*
X20788333Y-26693428D01*
X20883571Y-26645809D01*
X20931190Y-26598190D01*
X20978809Y-26502952D01*
X21026428Y-26312476D01*
X21074047Y-26217238D01*
X21121666Y-26169619D01*
X21216904Y-26122000D01*
X21312142Y-26122000D01*
X21407380Y-26169619D01*
X21455000Y-26217238D01*
X21502619Y-26312476D01*
X21502619Y-26550571D01*
X21455000Y-26693428D01*
D11*
X26250000Y-37645200D02*
X27750000Y-37645200D01*
X26250000Y-35905200D02*
X26250000Y-37645200D01*
X47870000Y-34321200D02*
X47776000Y-34414200D01*
X50120000Y-32070200D02*
X50061000Y-32129200D01*
X48040000Y-34561200D02*
X47981000Y-34619200D01*
X50325000Y-32276200D02*
X50231000Y-32369200D01*
X42870000Y-34321200D02*
X42776000Y-34414200D01*
X45120000Y-32070200D02*
X45061000Y-32129200D01*
X43040000Y-34561200D02*
X42981000Y-34619200D01*
X45325000Y-32276200D02*
X45231000Y-32369200D01*
X37870000Y-34321200D02*
X37776000Y-34414200D01*
X40120000Y-32070200D02*
X40061000Y-32129200D01*
X38040000Y-34561200D02*
X37981000Y-34619200D01*
X40325000Y-32276200D02*
X40231000Y-32369200D01*
X32870000Y-34321200D02*
X32776000Y-34414200D01*
X35120000Y-32070200D02*
X35061000Y-32129200D01*
X33040000Y-34561200D02*
X32981000Y-34619200D01*
X35325000Y-32276200D02*
X35231000Y-32369200D01*
X51610000Y-28285200D02*
X51610000Y-37405200D01*
X26490000Y-28285200D02*
X26490000Y-37405200D01*
X26490000Y-37405200D02*
X51610000Y-37405200D01*
X26490000Y-28285200D02*
X51610000Y-28285200D01*
X26490000Y-35845200D02*
X51610000Y-35845200D01*
X49950000Y-30345200D02*
G75*
G03X49950000Y-30345200I-900000J0D01*
G01*
X50730000Y-33345200D02*
G75*
G03X50730000Y-33345200I-1680000J0D01*
G01*
X44950000Y-30345200D02*
G75*
G03X44950000Y-30345200I-900000J0D01*
G01*
X45730000Y-33345200D02*
G75*
G03X45730000Y-33345200I-1680000J0D01*
G01*
X39950000Y-30345200D02*
G75*
G03X39950000Y-30345200I-900000J0D01*
G01*
X40730000Y-33345200D02*
G75*
G03X40730000Y-33345200I-1680000J0D01*
G01*
X34950000Y-30345200D02*
G75*
G03X34950000Y-30345200I-900000J0D01*
G01*
X35730000Y-33345200D02*
G75*
G03X35730000Y-33345200I-1680000J0D01*
G01*
X29950000Y-30345200D02*
G75*
G03X29950000Y-30345200I-900000J0D01*
G01*
X29079383Y-35025650D02*
G75*
G02X28261000Y-34829200I-29383J1680450D01*
G01*
X27566047Y-34134288D02*
G75*
G02X27566000Y-32556200I1483953J789088D01*
G01*
X28260912Y-31861247D02*
G75*
G02X29839000Y-31861200I789088J-1483953D01*
G01*
X30533953Y-32556112D02*
G75*
G02X30534000Y-34134200I-1483953J-789088D01*
G01*
X29838712Y-34828552D02*
G75*
G02X29050000Y-35025200I-788712J1483352D01*
G01*
X51850000Y-20134800D02*
X50350000Y-20134800D01*
X51850000Y-21874800D02*
X51850000Y-20134800D01*
X30230000Y-23458800D02*
X30324000Y-23365800D01*
X27980000Y-25709800D02*
X28039000Y-25650800D01*
X30060000Y-23218800D02*
X30119000Y-23160800D01*
X27775000Y-25503800D02*
X27869000Y-25410800D01*
X35230000Y-23458800D02*
X35324000Y-23365800D01*
X32980000Y-25709800D02*
X33039000Y-25650800D01*
X35060000Y-23218800D02*
X35119000Y-23160800D01*
X32775000Y-25503800D02*
X32869000Y-25410800D01*
X40230000Y-23458800D02*
X40324000Y-23365800D01*
X37980000Y-25709800D02*
X38039000Y-25650800D01*
X40060000Y-23218800D02*
X40119000Y-23160800D01*
X37775000Y-25503800D02*
X37869000Y-25410800D01*
X45230000Y-23458800D02*
X45324000Y-23365800D01*
X42980000Y-25709800D02*
X43039000Y-25650800D01*
X45060000Y-23218800D02*
X45119000Y-23160800D01*
X42775000Y-25503800D02*
X42869000Y-25410800D01*
X26490000Y-29494800D02*
X26490000Y-20374800D01*
X51610000Y-29494800D02*
X51610000Y-20374800D01*
X51610000Y-20374800D02*
X26490000Y-20374800D01*
X51610000Y-29494800D02*
X26490000Y-29494800D01*
X51610000Y-21934800D02*
X26490000Y-21934800D01*
X29950000Y-27434800D02*
G75*
G03X29950000Y-27434800I-900000J0D01*
G01*
X30730000Y-24434800D02*
G75*
G03X30730000Y-24434800I-1680000J0D01*
G01*
X34950000Y-27434800D02*
G75*
G03X34950000Y-27434800I-900000J0D01*
G01*
X35730000Y-24434800D02*
G75*
G03X35730000Y-24434800I-1680000J0D01*
G01*
X39950000Y-27434800D02*
G75*
G03X39950000Y-27434800I-900000J0D01*
G01*
X40730000Y-24434800D02*
G75*
G03X40730000Y-24434800I-1680000J0D01*
G01*
X44950000Y-27434800D02*
G75*
G03X44950000Y-27434800I-900000J0D01*
G01*
X45730000Y-24434800D02*
G75*
G03X45730000Y-24434800I-1680000J0D01*
G01*
X49950000Y-27434800D02*
G75*
G03X49950000Y-27434800I-900000J0D01*
G01*
X49020617Y-22754350D02*
G75*
G02X49839000Y-22950800I29383J-1680450D01*
G01*
X50533953Y-23645712D02*
G75*
G02X50534000Y-25223800I-1483953J-789088D01*
G01*
X49839088Y-25918753D02*
G75*
G02X48261000Y-25918800I-789088J1483953D01*
G01*
X47566047Y-25223888D02*
G75*
G02X47566000Y-23645800I1483953J789088D01*
G01*
X48261288Y-22951448D02*
G75*
G02X49050000Y-22754800I788712J-1483352D01*
G01*
D12*
G36*
X30191669Y-29359414D02*
G01*
X29747045Y-29443235D01*
X29619547Y-29752520D01*
X29492049Y-30061806D01*
X29744354Y-30432846D01*
X29814604Y-30536757D01*
X29877328Y-30630687D01*
X29929662Y-30710252D01*
X29968743Y-30771070D01*
X29991707Y-30808757D01*
X29996658Y-30819021D01*
X29983924Y-30837510D01*
X29948718Y-30877020D01*
X29895538Y-30933122D01*
X29828882Y-31001387D01*
X29753246Y-31077386D01*
X29673128Y-31156692D01*
X29593026Y-31234875D01*
X29517436Y-31307507D01*
X29450855Y-31370159D01*
X29397782Y-31418403D01*
X29362713Y-31447810D01*
X29350977Y-31454841D01*
X29329340Y-31444723D01*
X29281938Y-31416359D01*
X29213407Y-31372729D01*
X29128385Y-31316818D01*
X29031507Y-31251606D01*
X28976250Y-31213819D01*
X28875352Y-31144943D01*
X28784301Y-31083740D01*
X28707630Y-31033178D01*
X28649872Y-30996228D01*
X28615557Y-30975858D01*
X28608346Y-30972797D01*
X28587852Y-30979736D01*
X28540087Y-30998651D01*
X28471768Y-31026687D01*
X28389611Y-31060991D01*
X28300330Y-31098709D01*
X28210642Y-31136987D01*
X28127262Y-31172970D01*
X28056906Y-31203806D01*
X28006290Y-31226639D01*
X27982129Y-31238617D01*
X27981178Y-31239324D01*
X27976564Y-31258131D01*
X27966272Y-31308218D01*
X27951313Y-31384393D01*
X27932699Y-31481465D01*
X27911441Y-31594243D01*
X27899182Y-31660042D01*
X27876238Y-31780550D01*
X27854405Y-31889397D01*
X27834878Y-31981076D01*
X27818852Y-32050081D01*
X27807521Y-32090904D01*
X27803926Y-32099111D01*
X27779594Y-32107148D01*
X27724641Y-32113633D01*
X27645492Y-32118570D01*
X27548574Y-32121964D01*
X27440313Y-32123818D01*
X27327135Y-32124138D01*
X27215465Y-32122927D01*
X27111732Y-32120190D01*
X27022359Y-32115931D01*
X26953774Y-32110155D01*
X26912403Y-32102867D01*
X26903790Y-32098495D01*
X26893467Y-32072364D01*
X26878708Y-32016993D01*
X26861248Y-31939707D01*
X26842820Y-31847830D01*
X26836859Y-31815758D01*
X26808534Y-31661124D01*
X26785724Y-31538975D01*
X26767520Y-31445273D01*
X26753017Y-31375984D01*
X26741308Y-31327071D01*
X26731485Y-31294497D01*
X26722644Y-31274228D01*
X26713876Y-31262226D01*
X26712143Y-31260547D01*
X26684229Y-31243784D01*
X26629905Y-31218214D01*
X26555823Y-31186388D01*
X26468635Y-31150860D01*
X26374992Y-31114183D01*
X26281548Y-31078911D01*
X26194953Y-31047596D01*
X26121860Y-31022793D01*
X26068922Y-31007054D01*
X26042789Y-31002932D01*
X26041874Y-31003276D01*
X26020514Y-31017241D01*
X25973516Y-31048922D01*
X25905773Y-31094991D01*
X25822177Y-31152118D01*
X25727618Y-31216973D01*
X25700746Y-31235443D01*
X25603325Y-31301299D01*
X25514437Y-31359250D01*
X25439188Y-31406138D01*
X25382680Y-31438807D01*
X25350019Y-31454100D01*
X25346007Y-31454841D01*
X25324916Y-31441992D01*
X25283136Y-31406488D01*
X25225155Y-31352893D01*
X25155465Y-31285771D01*
X25078555Y-31209687D01*
X24998917Y-31129204D01*
X24921039Y-31048887D01*
X24849414Y-30973299D01*
X24788530Y-30907005D01*
X24742879Y-30854569D01*
X24716950Y-30820555D01*
X24712717Y-30811145D01*
X24722688Y-30789243D01*
X24749580Y-30744400D01*
X24788864Y-30683921D01*
X24820483Y-30637389D01*
X24878502Y-30553075D01*
X24946816Y-30453226D01*
X25015021Y-30353073D01*
X25051525Y-30299227D01*
X25174800Y-30116971D01*
X25092080Y-29963981D01*
X25055841Y-29894282D01*
X25027674Y-29835014D01*
X25011609Y-29794911D01*
X25009374Y-29784703D01*
X25025878Y-29772429D01*
X25072518Y-29748213D01*
X25144991Y-29713863D01*
X25238994Y-29671188D01*
X25350226Y-29621994D01*
X25474385Y-29568090D01*
X25607168Y-29511284D01*
X25744273Y-29453382D01*
X25881398Y-29396193D01*
X26014242Y-29341524D01*
X26138502Y-29291184D01*
X26249875Y-29246980D01*
X26344061Y-29210719D01*
X26416756Y-29184209D01*
X26463659Y-29169258D01*
X26479767Y-29166854D01*
X26500314Y-29185911D01*
X26533667Y-29227636D01*
X26572898Y-29283306D01*
X26576001Y-29287978D01*
X26691177Y-29431864D01*
X26825547Y-29547883D01*
X26974816Y-29635030D01*
X27134687Y-29692299D01*
X27300863Y-29718686D01*
X27469048Y-29713185D01*
X27634945Y-29674790D01*
X27794258Y-29602495D01*
X27829113Y-29581226D01*
X27969863Y-29470596D01*
X28082886Y-29339902D01*
X28167597Y-29193664D01*
X28223406Y-29036408D01*
X28249726Y-28872657D01*
X28245970Y-28706933D01*
X28211550Y-28543762D01*
X28145877Y-28387665D01*
X28048365Y-28243167D01*
X28008787Y-28198469D01*
X27884897Y-28084712D01*
X27754476Y-28001818D01*
X27608285Y-27944956D01*
X27463512Y-27913287D01*
X27300740Y-27905469D01*
X27137160Y-27931538D01*
X26978302Y-27988845D01*
X26829694Y-28074744D01*
X26696865Y-28186586D01*
X26585344Y-28321723D01*
X26573589Y-28339483D01*
X26535092Y-28395750D01*
X26501737Y-28438523D01*
X26480440Y-28458972D01*
X26479767Y-28459269D01*
X26456729Y-28454879D01*
X26404443Y-28437476D01*
X26327210Y-28408868D01*
X26229332Y-28370865D01*
X26115109Y-28325274D01*
X25988842Y-28273903D01*
X25854833Y-28218562D01*
X25717382Y-28161058D01*
X25580792Y-28103201D01*
X25449363Y-28046798D01*
X25327395Y-27993658D01*
X25219191Y-27945590D01*
X25129051Y-27904401D01*
X25061277Y-27871901D01*
X25020170Y-27849897D01*
X25009374Y-27841036D01*
X25017781Y-27813960D01*
X25040328Y-27763297D01*
X25072987Y-27697783D01*
X25092080Y-27661759D01*
X25174800Y-27508768D01*
X25051525Y-27326512D01*
X24988372Y-27233475D01*
X24918873Y-27131615D01*
X24853435Y-27036162D01*
X24820483Y-26988350D01*
X24775327Y-26921105D01*
X24739543Y-26864164D01*
X24717662Y-26824954D01*
X24713037Y-26812219D01*
X24725515Y-26793683D01*
X24760348Y-26752659D01*
X24813922Y-26693125D01*
X24882617Y-26619058D01*
X24962819Y-26534435D01*
X25014314Y-26480915D01*
X25106314Y-26387281D01*
X25188601Y-26306359D01*
X25257655Y-26241423D01*
X25309956Y-26195742D01*
X25341984Y-26172589D01*
X25348484Y-26170368D01*
X25373206Y-26180676D01*
X25423195Y-26209161D01*
X25493388Y-26252663D01*
X25578725Y-26308023D01*
X25674144Y-26372080D01*
X25700746Y-26390297D01*
X25797433Y-26456673D01*
X25884483Y-26516222D01*
X25957005Y-26565616D01*
X26010107Y-26601525D01*
X26038897Y-26620619D01*
X26041874Y-26622464D01*
X26064818Y-26619705D01*
X26115264Y-26605062D01*
X26186559Y-26581087D01*
X26272053Y-26550334D01*
X26365093Y-26515356D01*
X26459026Y-26478707D01*
X26547201Y-26442939D01*
X26622966Y-26410606D01*
X26679669Y-26384262D01*
X26710657Y-26366458D01*
X26712143Y-26365193D01*
X26720999Y-26354306D01*
X26729757Y-26335918D01*
X26739323Y-26305994D01*
X26750604Y-26260497D01*
X26764507Y-26195391D01*
X26781937Y-26106639D01*
X26803802Y-25990207D01*
X26831009Y-25842058D01*
X26836859Y-25809982D01*
X26855226Y-25714914D01*
X26873195Y-25632035D01*
X26889031Y-25568670D01*
X26901000Y-25532142D01*
X26903790Y-25527244D01*
X26928528Y-25519173D01*
X26983810Y-25512613D01*
X27063211Y-25507567D01*
X27160304Y-25504041D01*
X27268662Y-25502039D01*
X27381860Y-25501564D01*
X27493472Y-25502623D01*
X27597071Y-25505218D01*
X27686232Y-25509354D01*
X27754528Y-25515037D01*
X27795534Y-25522269D01*
X27803926Y-25526629D01*
X27812392Y-25550902D01*
X27826165Y-25606174D01*
X27844050Y-25686938D01*
X27864852Y-25787688D01*
X27887377Y-25902917D01*
X27899182Y-25965698D01*
X27921449Y-26084813D01*
X27941621Y-26191035D01*
X27958685Y-26279173D01*
X27971631Y-26344034D01*
X27979445Y-26380426D01*
X27981178Y-26386416D01*
X28000710Y-26396539D01*
X28047757Y-26417938D01*
X28115597Y-26447761D01*
X28197509Y-26483155D01*
X28286772Y-26521268D01*
X28376665Y-26559247D01*
X28460465Y-26594240D01*
X28531453Y-26623394D01*
X28582906Y-26643857D01*
X28608103Y-26652777D01*
X28609204Y-26652943D01*
X28629081Y-26642831D01*
X28674823Y-26614483D01*
X28741883Y-26570877D01*
X28825716Y-26514994D01*
X28921774Y-26449813D01*
X28976950Y-26411921D01*
X29078119Y-26342875D01*
X29169970Y-26281550D01*
X29247856Y-26230937D01*
X29307131Y-26194029D01*
X29343149Y-26173818D01*
X29351223Y-26170899D01*
X29370016Y-26183447D01*
X29410143Y-26218137D01*
X29467107Y-26270537D01*
X29536415Y-26336216D01*
X29613569Y-26410744D01*
X29694075Y-26489687D01*
X29773437Y-26568617D01*
X29847160Y-26643100D01*
X29910748Y-26708706D01*
X29959706Y-26761004D01*
X29989539Y-26795561D01*
X29996658Y-26807122D01*
X29986647Y-26825946D01*
X29958522Y-26870969D01*
X29915146Y-26937813D01*
X29859382Y-27022101D01*
X29794094Y-27119456D01*
X29744354Y-27192893D01*
X29492049Y-27563933D01*
X29747045Y-28182505D01*
X30191669Y-28266325D01*
X30636293Y-28350146D01*
X30636293Y-29275594D01*
X30191669Y-29359414D01*
G37*
X30191669Y-29359414D02*
X29747045Y-29443235D01*
X29619547Y-29752520D01*
X29492049Y-30061806D01*
X29744354Y-30432846D01*
X29814604Y-30536757D01*
X29877328Y-30630687D01*
X29929662Y-30710252D01*
X29968743Y-30771070D01*
X29991707Y-30808757D01*
X29996658Y-30819021D01*
X29983924Y-30837510D01*
X29948718Y-30877020D01*
X29895538Y-30933122D01*
X29828882Y-31001387D01*
X29753246Y-31077386D01*
X29673128Y-31156692D01*
X29593026Y-31234875D01*
X29517436Y-31307507D01*
X29450855Y-31370159D01*
X29397782Y-31418403D01*
X29362713Y-31447810D01*
X29350977Y-31454841D01*
X29329340Y-31444723D01*
X29281938Y-31416359D01*
X29213407Y-31372729D01*
X29128385Y-31316818D01*
X29031507Y-31251606D01*
X28976250Y-31213819D01*
X28875352Y-31144943D01*
X28784301Y-31083740D01*
X28707630Y-31033178D01*
X28649872Y-30996228D01*
X28615557Y-30975858D01*
X28608346Y-30972797D01*
X28587852Y-30979736D01*
X28540087Y-30998651D01*
X28471768Y-31026687D01*
X28389611Y-31060991D01*
X28300330Y-31098709D01*
X28210642Y-31136987D01*
X28127262Y-31172970D01*
X28056906Y-31203806D01*
X28006290Y-31226639D01*
X27982129Y-31238617D01*
X27981178Y-31239324D01*
X27976564Y-31258131D01*
X27966272Y-31308218D01*
X27951313Y-31384393D01*
X27932699Y-31481465D01*
X27911441Y-31594243D01*
X27899182Y-31660042D01*
X27876238Y-31780550D01*
X27854405Y-31889397D01*
X27834878Y-31981076D01*
X27818852Y-32050081D01*
X27807521Y-32090904D01*
X27803926Y-32099111D01*
X27779594Y-32107148D01*
X27724641Y-32113633D01*
X27645492Y-32118570D01*
X27548574Y-32121964D01*
X27440313Y-32123818D01*
X27327135Y-32124138D01*
X27215465Y-32122927D01*
X27111732Y-32120190D01*
X27022359Y-32115931D01*
X26953774Y-32110155D01*
X26912403Y-32102867D01*
X26903790Y-32098495D01*
X26893467Y-32072364D01*
X26878708Y-32016993D01*
X26861248Y-31939707D01*
X26842820Y-31847830D01*
X26836859Y-31815758D01*
X26808534Y-31661124D01*
X26785724Y-31538975D01*
X26767520Y-31445273D01*
X26753017Y-31375984D01*
X26741308Y-31327071D01*
X26731485Y-31294497D01*
X26722644Y-31274228D01*
X26713876Y-31262226D01*
X26712143Y-31260547D01*
X26684229Y-31243784D01*
X26629905Y-31218214D01*
X26555823Y-31186388D01*
X26468635Y-31150860D01*
X26374992Y-31114183D01*
X26281548Y-31078911D01*
X26194953Y-31047596D01*
X26121860Y-31022793D01*
X26068922Y-31007054D01*
X26042789Y-31002932D01*
X26041874Y-31003276D01*
X26020514Y-31017241D01*
X25973516Y-31048922D01*
X25905773Y-31094991D01*
X25822177Y-31152118D01*
X25727618Y-31216973D01*
X25700746Y-31235443D01*
X25603325Y-31301299D01*
X25514437Y-31359250D01*
X25439188Y-31406138D01*
X25382680Y-31438807D01*
X25350019Y-31454100D01*
X25346007Y-31454841D01*
X25324916Y-31441992D01*
X25283136Y-31406488D01*
X25225155Y-31352893D01*
X25155465Y-31285771D01*
X25078555Y-31209687D01*
X24998917Y-31129204D01*
X24921039Y-31048887D01*
X24849414Y-30973299D01*
X24788530Y-30907005D01*
X24742879Y-30854569D01*
X24716950Y-30820555D01*
X24712717Y-30811145D01*
X24722688Y-30789243D01*
X24749580Y-30744400D01*
X24788864Y-30683921D01*
X24820483Y-30637389D01*
X24878502Y-30553075D01*
X24946816Y-30453226D01*
X25015021Y-30353073D01*
X25051525Y-30299227D01*
X25174800Y-30116971D01*
X25092080Y-29963981D01*
X25055841Y-29894282D01*
X25027674Y-29835014D01*
X25011609Y-29794911D01*
X25009374Y-29784703D01*
X25025878Y-29772429D01*
X25072518Y-29748213D01*
X25144991Y-29713863D01*
X25238994Y-29671188D01*
X25350226Y-29621994D01*
X25474385Y-29568090D01*
X25607168Y-29511284D01*
X25744273Y-29453382D01*
X25881398Y-29396193D01*
X26014242Y-29341524D01*
X26138502Y-29291184D01*
X26249875Y-29246980D01*
X26344061Y-29210719D01*
X26416756Y-29184209D01*
X26463659Y-29169258D01*
X26479767Y-29166854D01*
X26500314Y-29185911D01*
X26533667Y-29227636D01*
X26572898Y-29283306D01*
X26576001Y-29287978D01*
X26691177Y-29431864D01*
X26825547Y-29547883D01*
X26974816Y-29635030D01*
X27134687Y-29692299D01*
X27300863Y-29718686D01*
X27469048Y-29713185D01*
X27634945Y-29674790D01*
X27794258Y-29602495D01*
X27829113Y-29581226D01*
X27969863Y-29470596D01*
X28082886Y-29339902D01*
X28167597Y-29193664D01*
X28223406Y-29036408D01*
X28249726Y-28872657D01*
X28245970Y-28706933D01*
X28211550Y-28543762D01*
X28145877Y-28387665D01*
X28048365Y-28243167D01*
X28008787Y-28198469D01*
X27884897Y-28084712D01*
X27754476Y-28001818D01*
X27608285Y-27944956D01*
X27463512Y-27913287D01*
X27300740Y-27905469D01*
X27137160Y-27931538D01*
X26978302Y-27988845D01*
X26829694Y-28074744D01*
X26696865Y-28186586D01*
X26585344Y-28321723D01*
X26573589Y-28339483D01*
X26535092Y-28395750D01*
X26501737Y-28438523D01*
X26480440Y-28458972D01*
X26479767Y-28459269D01*
X26456729Y-28454879D01*
X26404443Y-28437476D01*
X26327210Y-28408868D01*
X26229332Y-28370865D01*
X26115109Y-28325274D01*
X25988842Y-28273903D01*
X25854833Y-28218562D01*
X25717382Y-28161058D01*
X25580792Y-28103201D01*
X25449363Y-28046798D01*
X25327395Y-27993658D01*
X25219191Y-27945590D01*
X25129051Y-27904401D01*
X25061277Y-27871901D01*
X25020170Y-27849897D01*
X25009374Y-27841036D01*
X25017781Y-27813960D01*
X25040328Y-27763297D01*
X25072987Y-27697783D01*
X25092080Y-27661759D01*
X25174800Y-27508768D01*
X25051525Y-27326512D01*
X24988372Y-27233475D01*
X24918873Y-27131615D01*
X24853435Y-27036162D01*
X24820483Y-26988350D01*
X24775327Y-26921105D01*
X24739543Y-26864164D01*
X24717662Y-26824954D01*
X24713037Y-26812219D01*
X24725515Y-26793683D01*
X24760348Y-26752659D01*
X24813922Y-26693125D01*
X24882617Y-26619058D01*
X24962819Y-26534435D01*
X25014314Y-26480915D01*
X25106314Y-26387281D01*
X25188601Y-26306359D01*
X25257655Y-26241423D01*
X25309956Y-26195742D01*
X25341984Y-26172589D01*
X25348484Y-26170368D01*
X25373206Y-26180676D01*
X25423195Y-26209161D01*
X25493388Y-26252663D01*
X25578725Y-26308023D01*
X25674144Y-26372080D01*
X25700746Y-26390297D01*
X25797433Y-26456673D01*
X25884483Y-26516222D01*
X25957005Y-26565616D01*
X26010107Y-26601525D01*
X26038897Y-26620619D01*
X26041874Y-26622464D01*
X26064818Y-26619705D01*
X26115264Y-26605062D01*
X26186559Y-26581087D01*
X26272053Y-26550334D01*
X26365093Y-26515356D01*
X26459026Y-26478707D01*
X26547201Y-26442939D01*
X26622966Y-26410606D01*
X26679669Y-26384262D01*
X26710657Y-26366458D01*
X26712143Y-26365193D01*
X26720999Y-26354306D01*
X26729757Y-26335918D01*
X26739323Y-26305994D01*
X26750604Y-26260497D01*
X26764507Y-26195391D01*
X26781937Y-26106639D01*
X26803802Y-25990207D01*
X26831009Y-25842058D01*
X26836859Y-25809982D01*
X26855226Y-25714914D01*
X26873195Y-25632035D01*
X26889031Y-25568670D01*
X26901000Y-25532142D01*
X26903790Y-25527244D01*
X26928528Y-25519173D01*
X26983810Y-25512613D01*
X27063211Y-25507567D01*
X27160304Y-25504041D01*
X27268662Y-25502039D01*
X27381860Y-25501564D01*
X27493472Y-25502623D01*
X27597071Y-25505218D01*
X27686232Y-25509354D01*
X27754528Y-25515037D01*
X27795534Y-25522269D01*
X27803926Y-25526629D01*
X27812392Y-25550902D01*
X27826165Y-25606174D01*
X27844050Y-25686938D01*
X27864852Y-25787688D01*
X27887377Y-25902917D01*
X27899182Y-25965698D01*
X27921449Y-26084813D01*
X27941621Y-26191035D01*
X27958685Y-26279173D01*
X27971631Y-26344034D01*
X27979445Y-26380426D01*
X27981178Y-26386416D01*
X28000710Y-26396539D01*
X28047757Y-26417938D01*
X28115597Y-26447761D01*
X28197509Y-26483155D01*
X28286772Y-26521268D01*
X28376665Y-26559247D01*
X28460465Y-26594240D01*
X28531453Y-26623394D01*
X28582906Y-26643857D01*
X28608103Y-26652777D01*
X28609204Y-26652943D01*
X28629081Y-26642831D01*
X28674823Y-26614483D01*
X28741883Y-26570877D01*
X28825716Y-26514994D01*
X28921774Y-26449813D01*
X28976950Y-26411921D01*
X29078119Y-26342875D01*
X29169970Y-26281550D01*
X29247856Y-26230937D01*
X29307131Y-26194029D01*
X29343149Y-26173818D01*
X29351223Y-26170899D01*
X29370016Y-26183447D01*
X29410143Y-26218137D01*
X29467107Y-26270537D01*
X29536415Y-26336216D01*
X29613569Y-26410744D01*
X29694075Y-26489687D01*
X29773437Y-26568617D01*
X29847160Y-26643100D01*
X29910748Y-26708706D01*
X29959706Y-26761004D01*
X29989539Y-26795561D01*
X29996658Y-26807122D01*
X29986647Y-26825946D01*
X29958522Y-26870969D01*
X29915146Y-26937813D01*
X29859382Y-27022101D01*
X29794094Y-27119456D01*
X29744354Y-27192893D01*
X29492049Y-27563933D01*
X29747045Y-28182505D01*
X30191669Y-28266325D01*
X30636293Y-28350146D01*
X30636293Y-29275594D01*
X30191669Y-29359414D01*
M02*
