G04 #@! TF.GenerationSoftware,KiCad,Pcbnew,5.1.5-52549c5~86~ubuntu18.04.1*
G04 #@! TF.CreationDate,2020-08-27T00:23:14-05:00*
G04 #@! TF.ProjectId,A02,4130322e-6b69-4636-9164-5f7063625858,rev?*
G04 #@! TF.SameCoordinates,Original*
G04 #@! TF.FileFunction,Legend,Top*
G04 #@! TF.FilePolarity,Positive*
%FSLAX46Y46*%
G04 Gerber Fmt 4.6, Leading zero omitted, Abs format (unit mm)*
G04 Created by KiCad (PCBNEW 5.1.5-52549c5~86~ubuntu18.04.1) date 2020-08-27 00:23:14*
%MOMM*%
%LPD*%
G04 APERTURE LIST*
%ADD10C,0.150000*%
%ADD11C,0.010000*%
G04 APERTURE END LIST*
D10*
X53984000Y-121027000D02*
X54698285Y-121027000D01*
X53841142Y-121455571D02*
X54341142Y-119955571D01*
X54841142Y-121455571D01*
X55626857Y-119955571D02*
X55769714Y-119955571D01*
X55912571Y-120027000D01*
X55984000Y-120098428D01*
X56055428Y-120241285D01*
X56126857Y-120527000D01*
X56126857Y-120884142D01*
X56055428Y-121169857D01*
X55984000Y-121312714D01*
X55912571Y-121384142D01*
X55769714Y-121455571D01*
X55626857Y-121455571D01*
X55484000Y-121384142D01*
X55412571Y-121312714D01*
X55341142Y-121169857D01*
X55269714Y-120884142D01*
X55269714Y-120527000D01*
X55341142Y-120241285D01*
X55412571Y-120098428D01*
X55484000Y-120027000D01*
X55626857Y-119955571D01*
X56698285Y-120098428D02*
X56769714Y-120027000D01*
X56912571Y-119955571D01*
X57269714Y-119955571D01*
X57412571Y-120027000D01*
X57484000Y-120098428D01*
X57555428Y-120241285D01*
X57555428Y-120384142D01*
X57484000Y-120598428D01*
X56626857Y-121455571D01*
X57555428Y-121455571D01*
X57841142Y-121598428D02*
X58984000Y-121598428D01*
X59841142Y-120669857D02*
X60055428Y-120741285D01*
X60126857Y-120812714D01*
X60198285Y-120955571D01*
X60198285Y-121169857D01*
X60126857Y-121312714D01*
X60055428Y-121384142D01*
X59912571Y-121455571D01*
X59341142Y-121455571D01*
X59341142Y-119955571D01*
X59841142Y-119955571D01*
X59984000Y-120027000D01*
X60055428Y-120098428D01*
X60126857Y-120241285D01*
X60126857Y-120384142D01*
X60055428Y-120527000D01*
X59984000Y-120598428D01*
X59841142Y-120669857D01*
X59341142Y-120669857D01*
X60769714Y-121027000D02*
X61484000Y-121027000D01*
X60626857Y-121455571D02*
X61126857Y-119955571D01*
X61626857Y-121455571D01*
X62984000Y-121312714D02*
X62912571Y-121384142D01*
X62698285Y-121455571D01*
X62555428Y-121455571D01*
X62341142Y-121384142D01*
X62198285Y-121241285D01*
X62126857Y-121098428D01*
X62055428Y-120812714D01*
X62055428Y-120598428D01*
X62126857Y-120312714D01*
X62198285Y-120169857D01*
X62341142Y-120027000D01*
X62555428Y-119955571D01*
X62698285Y-119955571D01*
X62912571Y-120027000D01*
X62984000Y-120098428D01*
X63626857Y-121455571D02*
X63626857Y-119955571D01*
X64484000Y-121455571D02*
X63841142Y-120598428D01*
X64484000Y-119955571D02*
X63626857Y-120812714D01*
X65126857Y-121455571D02*
X65126857Y-119955571D01*
X65698285Y-119955571D01*
X65841142Y-120027000D01*
X65912571Y-120098428D01*
X65984000Y-120241285D01*
X65984000Y-120455571D01*
X65912571Y-120598428D01*
X65841142Y-120669857D01*
X65698285Y-120741285D01*
X65126857Y-120741285D01*
X67341142Y-121455571D02*
X66626857Y-121455571D01*
X66626857Y-119955571D01*
X67769714Y-121027000D02*
X68484000Y-121027000D01*
X67626857Y-121455571D02*
X68126857Y-119955571D01*
X68626857Y-121455571D01*
X68912571Y-119955571D02*
X69769714Y-119955571D01*
X69341142Y-121455571D02*
X69341142Y-119955571D01*
X70269714Y-120669857D02*
X70769714Y-120669857D01*
X70984000Y-121455571D02*
X70269714Y-121455571D01*
X70269714Y-119955571D01*
X70984000Y-119955571D01*
D11*
G36*
X60093414Y-87334131D02*
G01*
X60177235Y-87778755D01*
X60486520Y-87906253D01*
X60795806Y-88033751D01*
X61166846Y-87781446D01*
X61270757Y-87711196D01*
X61364687Y-87648472D01*
X61444252Y-87596138D01*
X61505070Y-87557057D01*
X61542757Y-87534093D01*
X61553021Y-87529142D01*
X61571510Y-87541876D01*
X61611020Y-87577082D01*
X61667122Y-87630262D01*
X61735387Y-87696918D01*
X61811386Y-87772554D01*
X61890692Y-87852672D01*
X61968875Y-87932774D01*
X62041507Y-88008364D01*
X62104159Y-88074945D01*
X62152403Y-88128018D01*
X62181810Y-88163087D01*
X62188841Y-88174823D01*
X62178723Y-88196460D01*
X62150359Y-88243862D01*
X62106729Y-88312393D01*
X62050818Y-88397415D01*
X61985606Y-88494293D01*
X61947819Y-88549550D01*
X61878943Y-88650448D01*
X61817740Y-88741499D01*
X61767178Y-88818170D01*
X61730228Y-88875928D01*
X61709858Y-88910243D01*
X61706797Y-88917454D01*
X61713736Y-88937948D01*
X61732651Y-88985713D01*
X61760687Y-89054032D01*
X61794991Y-89136189D01*
X61832709Y-89225470D01*
X61870987Y-89315158D01*
X61906970Y-89398538D01*
X61937806Y-89468894D01*
X61960639Y-89519510D01*
X61972617Y-89543671D01*
X61973324Y-89544622D01*
X61992131Y-89549236D01*
X62042218Y-89559528D01*
X62118393Y-89574487D01*
X62215465Y-89593101D01*
X62328243Y-89614359D01*
X62394042Y-89626618D01*
X62514550Y-89649562D01*
X62623397Y-89671395D01*
X62715076Y-89690922D01*
X62784081Y-89706948D01*
X62824904Y-89718279D01*
X62833111Y-89721874D01*
X62841148Y-89746206D01*
X62847633Y-89801159D01*
X62852570Y-89880308D01*
X62855964Y-89977226D01*
X62857818Y-90085487D01*
X62858138Y-90198665D01*
X62856927Y-90310335D01*
X62854190Y-90414068D01*
X62849931Y-90503441D01*
X62844155Y-90572026D01*
X62836867Y-90613397D01*
X62832495Y-90622010D01*
X62806364Y-90632333D01*
X62750993Y-90647092D01*
X62673707Y-90664552D01*
X62581830Y-90682980D01*
X62549758Y-90688941D01*
X62395124Y-90717266D01*
X62272975Y-90740076D01*
X62179273Y-90758280D01*
X62109984Y-90772783D01*
X62061071Y-90784492D01*
X62028497Y-90794315D01*
X62008228Y-90803156D01*
X61996226Y-90811924D01*
X61994547Y-90813657D01*
X61977784Y-90841571D01*
X61952214Y-90895895D01*
X61920388Y-90969977D01*
X61884860Y-91057165D01*
X61848183Y-91150808D01*
X61812911Y-91244252D01*
X61781596Y-91330847D01*
X61756793Y-91403940D01*
X61741054Y-91456878D01*
X61736932Y-91483011D01*
X61737276Y-91483926D01*
X61751241Y-91505286D01*
X61782922Y-91552284D01*
X61828991Y-91620027D01*
X61886118Y-91703623D01*
X61950973Y-91798182D01*
X61969443Y-91825054D01*
X62035299Y-91922475D01*
X62093250Y-92011363D01*
X62140138Y-92086612D01*
X62172807Y-92143120D01*
X62188100Y-92175781D01*
X62188841Y-92179793D01*
X62175992Y-92200884D01*
X62140488Y-92242664D01*
X62086893Y-92300645D01*
X62019771Y-92370335D01*
X61943687Y-92447245D01*
X61863204Y-92526883D01*
X61782887Y-92604761D01*
X61707299Y-92676386D01*
X61641005Y-92737270D01*
X61588569Y-92782921D01*
X61554555Y-92808850D01*
X61545145Y-92813083D01*
X61523243Y-92803112D01*
X61478400Y-92776220D01*
X61417921Y-92736936D01*
X61371389Y-92705317D01*
X61287075Y-92647298D01*
X61187226Y-92578984D01*
X61087073Y-92510779D01*
X61033227Y-92474275D01*
X60850971Y-92351000D01*
X60697981Y-92433720D01*
X60628282Y-92469959D01*
X60569014Y-92498126D01*
X60528911Y-92514191D01*
X60518703Y-92516426D01*
X60506429Y-92499922D01*
X60482213Y-92453282D01*
X60447863Y-92380809D01*
X60405188Y-92286806D01*
X60355994Y-92175574D01*
X60302090Y-92051415D01*
X60245284Y-91918632D01*
X60187382Y-91781527D01*
X60130193Y-91644402D01*
X60075524Y-91511558D01*
X60025184Y-91387298D01*
X59980980Y-91275925D01*
X59944719Y-91181739D01*
X59918209Y-91109044D01*
X59903258Y-91062141D01*
X59900854Y-91046033D01*
X59919911Y-91025486D01*
X59961636Y-90992133D01*
X60017306Y-90952902D01*
X60021978Y-90949799D01*
X60165864Y-90834623D01*
X60281883Y-90700253D01*
X60369030Y-90550984D01*
X60426299Y-90391113D01*
X60452686Y-90224937D01*
X60447185Y-90056752D01*
X60408790Y-89890855D01*
X60336495Y-89731542D01*
X60315226Y-89696687D01*
X60204596Y-89555937D01*
X60073902Y-89442914D01*
X59927664Y-89358203D01*
X59770408Y-89302394D01*
X59606657Y-89276074D01*
X59440933Y-89279830D01*
X59277762Y-89314250D01*
X59121665Y-89379923D01*
X58977167Y-89477435D01*
X58932469Y-89517013D01*
X58818712Y-89640903D01*
X58735818Y-89771324D01*
X58678956Y-89917515D01*
X58647287Y-90062288D01*
X58639469Y-90225060D01*
X58665538Y-90388640D01*
X58722845Y-90547498D01*
X58808744Y-90696106D01*
X58920586Y-90828935D01*
X59055723Y-90940456D01*
X59073483Y-90952211D01*
X59129750Y-90990708D01*
X59172523Y-91024063D01*
X59192972Y-91045360D01*
X59193269Y-91046033D01*
X59188879Y-91069071D01*
X59171476Y-91121357D01*
X59142868Y-91198590D01*
X59104865Y-91296468D01*
X59059274Y-91410691D01*
X59007903Y-91536958D01*
X58952562Y-91670967D01*
X58895058Y-91808418D01*
X58837201Y-91945008D01*
X58780798Y-92076437D01*
X58727658Y-92198405D01*
X58679590Y-92306609D01*
X58638401Y-92396749D01*
X58605901Y-92464523D01*
X58583897Y-92505630D01*
X58575036Y-92516426D01*
X58547960Y-92508019D01*
X58497297Y-92485472D01*
X58431783Y-92452813D01*
X58395759Y-92433720D01*
X58242768Y-92351000D01*
X58060512Y-92474275D01*
X57967475Y-92537428D01*
X57865615Y-92606927D01*
X57770162Y-92672365D01*
X57722350Y-92705317D01*
X57655105Y-92750473D01*
X57598164Y-92786257D01*
X57558954Y-92808138D01*
X57546219Y-92812763D01*
X57527683Y-92800285D01*
X57486659Y-92765452D01*
X57427125Y-92711878D01*
X57353058Y-92643183D01*
X57268435Y-92562981D01*
X57214915Y-92511486D01*
X57121281Y-92419486D01*
X57040359Y-92337199D01*
X56975423Y-92268145D01*
X56929742Y-92215844D01*
X56906589Y-92183816D01*
X56904368Y-92177316D01*
X56914676Y-92152594D01*
X56943161Y-92102605D01*
X56986663Y-92032412D01*
X57042023Y-91947075D01*
X57106080Y-91851656D01*
X57124297Y-91825054D01*
X57190673Y-91728367D01*
X57250222Y-91641317D01*
X57299616Y-91568795D01*
X57335525Y-91515693D01*
X57354619Y-91486903D01*
X57356464Y-91483926D01*
X57353705Y-91460982D01*
X57339062Y-91410536D01*
X57315087Y-91339241D01*
X57284334Y-91253747D01*
X57249356Y-91160707D01*
X57212707Y-91066774D01*
X57176939Y-90978599D01*
X57144606Y-90902834D01*
X57118262Y-90846131D01*
X57100458Y-90815143D01*
X57099193Y-90813657D01*
X57088306Y-90804801D01*
X57069918Y-90796043D01*
X57039994Y-90786477D01*
X56994497Y-90775196D01*
X56929391Y-90761293D01*
X56840639Y-90743863D01*
X56724207Y-90721998D01*
X56576058Y-90694791D01*
X56543982Y-90688941D01*
X56448914Y-90670574D01*
X56366035Y-90652605D01*
X56302670Y-90636769D01*
X56266142Y-90624800D01*
X56261244Y-90622010D01*
X56253173Y-90597272D01*
X56246613Y-90541990D01*
X56241567Y-90462589D01*
X56238041Y-90365496D01*
X56236039Y-90257138D01*
X56235564Y-90143940D01*
X56236623Y-90032328D01*
X56239218Y-89928729D01*
X56243354Y-89839568D01*
X56249037Y-89771272D01*
X56256269Y-89730266D01*
X56260629Y-89721874D01*
X56284902Y-89713408D01*
X56340174Y-89699635D01*
X56420938Y-89681750D01*
X56521688Y-89660948D01*
X56636917Y-89638423D01*
X56699698Y-89626618D01*
X56818813Y-89604351D01*
X56925035Y-89584179D01*
X57013173Y-89567115D01*
X57078034Y-89554169D01*
X57114426Y-89546355D01*
X57120416Y-89544622D01*
X57130539Y-89525090D01*
X57151938Y-89478043D01*
X57181761Y-89410203D01*
X57217155Y-89328291D01*
X57255268Y-89239028D01*
X57293247Y-89149135D01*
X57328240Y-89065335D01*
X57357394Y-88994347D01*
X57377857Y-88942894D01*
X57386777Y-88917697D01*
X57386943Y-88916596D01*
X57376831Y-88896719D01*
X57348483Y-88850977D01*
X57304877Y-88783917D01*
X57248994Y-88700084D01*
X57183813Y-88604026D01*
X57145921Y-88548850D01*
X57076875Y-88447681D01*
X57015550Y-88355830D01*
X56964937Y-88277944D01*
X56928029Y-88218669D01*
X56907818Y-88182651D01*
X56904899Y-88174577D01*
X56917447Y-88155784D01*
X56952137Y-88115657D01*
X57004537Y-88058693D01*
X57070216Y-87989385D01*
X57144744Y-87912231D01*
X57223687Y-87831725D01*
X57302617Y-87752363D01*
X57377100Y-87678640D01*
X57442706Y-87615052D01*
X57495004Y-87566094D01*
X57529561Y-87536261D01*
X57541122Y-87529142D01*
X57559946Y-87539153D01*
X57604969Y-87567278D01*
X57671813Y-87610654D01*
X57756101Y-87666418D01*
X57853456Y-87731706D01*
X57926893Y-87781446D01*
X58297933Y-88033751D01*
X58916505Y-87778755D01*
X59000325Y-87334131D01*
X59084146Y-86889507D01*
X60009594Y-86889507D01*
X60093414Y-87334131D01*
G37*
X60093414Y-87334131D02*
X60177235Y-87778755D01*
X60486520Y-87906253D01*
X60795806Y-88033751D01*
X61166846Y-87781446D01*
X61270757Y-87711196D01*
X61364687Y-87648472D01*
X61444252Y-87596138D01*
X61505070Y-87557057D01*
X61542757Y-87534093D01*
X61553021Y-87529142D01*
X61571510Y-87541876D01*
X61611020Y-87577082D01*
X61667122Y-87630262D01*
X61735387Y-87696918D01*
X61811386Y-87772554D01*
X61890692Y-87852672D01*
X61968875Y-87932774D01*
X62041507Y-88008364D01*
X62104159Y-88074945D01*
X62152403Y-88128018D01*
X62181810Y-88163087D01*
X62188841Y-88174823D01*
X62178723Y-88196460D01*
X62150359Y-88243862D01*
X62106729Y-88312393D01*
X62050818Y-88397415D01*
X61985606Y-88494293D01*
X61947819Y-88549550D01*
X61878943Y-88650448D01*
X61817740Y-88741499D01*
X61767178Y-88818170D01*
X61730228Y-88875928D01*
X61709858Y-88910243D01*
X61706797Y-88917454D01*
X61713736Y-88937948D01*
X61732651Y-88985713D01*
X61760687Y-89054032D01*
X61794991Y-89136189D01*
X61832709Y-89225470D01*
X61870987Y-89315158D01*
X61906970Y-89398538D01*
X61937806Y-89468894D01*
X61960639Y-89519510D01*
X61972617Y-89543671D01*
X61973324Y-89544622D01*
X61992131Y-89549236D01*
X62042218Y-89559528D01*
X62118393Y-89574487D01*
X62215465Y-89593101D01*
X62328243Y-89614359D01*
X62394042Y-89626618D01*
X62514550Y-89649562D01*
X62623397Y-89671395D01*
X62715076Y-89690922D01*
X62784081Y-89706948D01*
X62824904Y-89718279D01*
X62833111Y-89721874D01*
X62841148Y-89746206D01*
X62847633Y-89801159D01*
X62852570Y-89880308D01*
X62855964Y-89977226D01*
X62857818Y-90085487D01*
X62858138Y-90198665D01*
X62856927Y-90310335D01*
X62854190Y-90414068D01*
X62849931Y-90503441D01*
X62844155Y-90572026D01*
X62836867Y-90613397D01*
X62832495Y-90622010D01*
X62806364Y-90632333D01*
X62750993Y-90647092D01*
X62673707Y-90664552D01*
X62581830Y-90682980D01*
X62549758Y-90688941D01*
X62395124Y-90717266D01*
X62272975Y-90740076D01*
X62179273Y-90758280D01*
X62109984Y-90772783D01*
X62061071Y-90784492D01*
X62028497Y-90794315D01*
X62008228Y-90803156D01*
X61996226Y-90811924D01*
X61994547Y-90813657D01*
X61977784Y-90841571D01*
X61952214Y-90895895D01*
X61920388Y-90969977D01*
X61884860Y-91057165D01*
X61848183Y-91150808D01*
X61812911Y-91244252D01*
X61781596Y-91330847D01*
X61756793Y-91403940D01*
X61741054Y-91456878D01*
X61736932Y-91483011D01*
X61737276Y-91483926D01*
X61751241Y-91505286D01*
X61782922Y-91552284D01*
X61828991Y-91620027D01*
X61886118Y-91703623D01*
X61950973Y-91798182D01*
X61969443Y-91825054D01*
X62035299Y-91922475D01*
X62093250Y-92011363D01*
X62140138Y-92086612D01*
X62172807Y-92143120D01*
X62188100Y-92175781D01*
X62188841Y-92179793D01*
X62175992Y-92200884D01*
X62140488Y-92242664D01*
X62086893Y-92300645D01*
X62019771Y-92370335D01*
X61943687Y-92447245D01*
X61863204Y-92526883D01*
X61782887Y-92604761D01*
X61707299Y-92676386D01*
X61641005Y-92737270D01*
X61588569Y-92782921D01*
X61554555Y-92808850D01*
X61545145Y-92813083D01*
X61523243Y-92803112D01*
X61478400Y-92776220D01*
X61417921Y-92736936D01*
X61371389Y-92705317D01*
X61287075Y-92647298D01*
X61187226Y-92578984D01*
X61087073Y-92510779D01*
X61033227Y-92474275D01*
X60850971Y-92351000D01*
X60697981Y-92433720D01*
X60628282Y-92469959D01*
X60569014Y-92498126D01*
X60528911Y-92514191D01*
X60518703Y-92516426D01*
X60506429Y-92499922D01*
X60482213Y-92453282D01*
X60447863Y-92380809D01*
X60405188Y-92286806D01*
X60355994Y-92175574D01*
X60302090Y-92051415D01*
X60245284Y-91918632D01*
X60187382Y-91781527D01*
X60130193Y-91644402D01*
X60075524Y-91511558D01*
X60025184Y-91387298D01*
X59980980Y-91275925D01*
X59944719Y-91181739D01*
X59918209Y-91109044D01*
X59903258Y-91062141D01*
X59900854Y-91046033D01*
X59919911Y-91025486D01*
X59961636Y-90992133D01*
X60017306Y-90952902D01*
X60021978Y-90949799D01*
X60165864Y-90834623D01*
X60281883Y-90700253D01*
X60369030Y-90550984D01*
X60426299Y-90391113D01*
X60452686Y-90224937D01*
X60447185Y-90056752D01*
X60408790Y-89890855D01*
X60336495Y-89731542D01*
X60315226Y-89696687D01*
X60204596Y-89555937D01*
X60073902Y-89442914D01*
X59927664Y-89358203D01*
X59770408Y-89302394D01*
X59606657Y-89276074D01*
X59440933Y-89279830D01*
X59277762Y-89314250D01*
X59121665Y-89379923D01*
X58977167Y-89477435D01*
X58932469Y-89517013D01*
X58818712Y-89640903D01*
X58735818Y-89771324D01*
X58678956Y-89917515D01*
X58647287Y-90062288D01*
X58639469Y-90225060D01*
X58665538Y-90388640D01*
X58722845Y-90547498D01*
X58808744Y-90696106D01*
X58920586Y-90828935D01*
X59055723Y-90940456D01*
X59073483Y-90952211D01*
X59129750Y-90990708D01*
X59172523Y-91024063D01*
X59192972Y-91045360D01*
X59193269Y-91046033D01*
X59188879Y-91069071D01*
X59171476Y-91121357D01*
X59142868Y-91198590D01*
X59104865Y-91296468D01*
X59059274Y-91410691D01*
X59007903Y-91536958D01*
X58952562Y-91670967D01*
X58895058Y-91808418D01*
X58837201Y-91945008D01*
X58780798Y-92076437D01*
X58727658Y-92198405D01*
X58679590Y-92306609D01*
X58638401Y-92396749D01*
X58605901Y-92464523D01*
X58583897Y-92505630D01*
X58575036Y-92516426D01*
X58547960Y-92508019D01*
X58497297Y-92485472D01*
X58431783Y-92452813D01*
X58395759Y-92433720D01*
X58242768Y-92351000D01*
X58060512Y-92474275D01*
X57967475Y-92537428D01*
X57865615Y-92606927D01*
X57770162Y-92672365D01*
X57722350Y-92705317D01*
X57655105Y-92750473D01*
X57598164Y-92786257D01*
X57558954Y-92808138D01*
X57546219Y-92812763D01*
X57527683Y-92800285D01*
X57486659Y-92765452D01*
X57427125Y-92711878D01*
X57353058Y-92643183D01*
X57268435Y-92562981D01*
X57214915Y-92511486D01*
X57121281Y-92419486D01*
X57040359Y-92337199D01*
X56975423Y-92268145D01*
X56929742Y-92215844D01*
X56906589Y-92183816D01*
X56904368Y-92177316D01*
X56914676Y-92152594D01*
X56943161Y-92102605D01*
X56986663Y-92032412D01*
X57042023Y-91947075D01*
X57106080Y-91851656D01*
X57124297Y-91825054D01*
X57190673Y-91728367D01*
X57250222Y-91641317D01*
X57299616Y-91568795D01*
X57335525Y-91515693D01*
X57354619Y-91486903D01*
X57356464Y-91483926D01*
X57353705Y-91460982D01*
X57339062Y-91410536D01*
X57315087Y-91339241D01*
X57284334Y-91253747D01*
X57249356Y-91160707D01*
X57212707Y-91066774D01*
X57176939Y-90978599D01*
X57144606Y-90902834D01*
X57118262Y-90846131D01*
X57100458Y-90815143D01*
X57099193Y-90813657D01*
X57088306Y-90804801D01*
X57069918Y-90796043D01*
X57039994Y-90786477D01*
X56994497Y-90775196D01*
X56929391Y-90761293D01*
X56840639Y-90743863D01*
X56724207Y-90721998D01*
X56576058Y-90694791D01*
X56543982Y-90688941D01*
X56448914Y-90670574D01*
X56366035Y-90652605D01*
X56302670Y-90636769D01*
X56266142Y-90624800D01*
X56261244Y-90622010D01*
X56253173Y-90597272D01*
X56246613Y-90541990D01*
X56241567Y-90462589D01*
X56238041Y-90365496D01*
X56236039Y-90257138D01*
X56235564Y-90143940D01*
X56236623Y-90032328D01*
X56239218Y-89928729D01*
X56243354Y-89839568D01*
X56249037Y-89771272D01*
X56256269Y-89730266D01*
X56260629Y-89721874D01*
X56284902Y-89713408D01*
X56340174Y-89699635D01*
X56420938Y-89681750D01*
X56521688Y-89660948D01*
X56636917Y-89638423D01*
X56699698Y-89626618D01*
X56818813Y-89604351D01*
X56925035Y-89584179D01*
X57013173Y-89567115D01*
X57078034Y-89554169D01*
X57114426Y-89546355D01*
X57120416Y-89544622D01*
X57130539Y-89525090D01*
X57151938Y-89478043D01*
X57181761Y-89410203D01*
X57217155Y-89328291D01*
X57255268Y-89239028D01*
X57293247Y-89149135D01*
X57328240Y-89065335D01*
X57357394Y-88994347D01*
X57377857Y-88942894D01*
X57386777Y-88917697D01*
X57386943Y-88916596D01*
X57376831Y-88896719D01*
X57348483Y-88850977D01*
X57304877Y-88783917D01*
X57248994Y-88700084D01*
X57183813Y-88604026D01*
X57145921Y-88548850D01*
X57076875Y-88447681D01*
X57015550Y-88355830D01*
X56964937Y-88277944D01*
X56928029Y-88218669D01*
X56907818Y-88182651D01*
X56904899Y-88174577D01*
X56917447Y-88155784D01*
X56952137Y-88115657D01*
X57004537Y-88058693D01*
X57070216Y-87989385D01*
X57144744Y-87912231D01*
X57223687Y-87831725D01*
X57302617Y-87752363D01*
X57377100Y-87678640D01*
X57442706Y-87615052D01*
X57495004Y-87566094D01*
X57529561Y-87536261D01*
X57541122Y-87529142D01*
X57559946Y-87539153D01*
X57604969Y-87567278D01*
X57671813Y-87610654D01*
X57756101Y-87666418D01*
X57853456Y-87731706D01*
X57926893Y-87781446D01*
X58297933Y-88033751D01*
X58916505Y-87778755D01*
X59000325Y-87334131D01*
X59084146Y-86889507D01*
X60009594Y-86889507D01*
X60093414Y-87334131D01*
M02*
