G04 #@! TF.GenerationSoftware,KiCad,Pcbnew,5.1.5-52549c5~86~ubuntu18.04.1*
G04 #@! TF.CreationDate,2020-10-02T17:19:18-05:00*
G04 #@! TF.ProjectId,B04,4230342e-6b69-4636-9164-5f7063625858,rev?*
G04 #@! TF.SameCoordinates,Original*
G04 #@! TF.FileFunction,Legend,Bot*
G04 #@! TF.FilePolarity,Positive*
%FSLAX46Y46*%
G04 Gerber Fmt 4.6, Leading zero omitted, Abs format (unit mm)*
G04 Created by KiCad (PCBNEW 5.1.5-52549c5~86~ubuntu18.04.1) date 2020-10-02 17:19:18*
%MOMM*%
%LPD*%
G04 APERTURE LIST*
%ADD10C,0.150000*%
G04 APERTURE END LIST*
D10*
X46816971Y-21160123D02*
X46864590Y-21302980D01*
X46912209Y-21350600D01*
X47007447Y-21398219D01*
X47150304Y-21398219D01*
X47245542Y-21350600D01*
X47293161Y-21302980D01*
X47340780Y-21207742D01*
X47340780Y-20826790D01*
X46340780Y-20826790D01*
X46340780Y-21160123D01*
X46388400Y-21255361D01*
X46436019Y-21302980D01*
X46531257Y-21350600D01*
X46626495Y-21350600D01*
X46721733Y-21302980D01*
X46769352Y-21255361D01*
X46816971Y-21160123D01*
X46816971Y-20826790D01*
X46340780Y-22017266D02*
X46340780Y-22112504D01*
X46388400Y-22207742D01*
X46436019Y-22255361D01*
X46531257Y-22302980D01*
X46721733Y-22350600D01*
X46959828Y-22350600D01*
X47150304Y-22302980D01*
X47245542Y-22255361D01*
X47293161Y-22207742D01*
X47340780Y-22112504D01*
X47340780Y-22017266D01*
X47293161Y-21922028D01*
X47245542Y-21874409D01*
X47150304Y-21826790D01*
X46959828Y-21779171D01*
X46721733Y-21779171D01*
X46531257Y-21826790D01*
X46436019Y-21874409D01*
X46388400Y-21922028D01*
X46340780Y-22017266D01*
X46674114Y-23207742D02*
X47340780Y-23207742D01*
X46293161Y-22969647D02*
X47007447Y-22731552D01*
X47007447Y-23350600D01*
X47436019Y-23493457D02*
X47436019Y-24255361D01*
X47293161Y-24445838D02*
X47340780Y-24588695D01*
X47340780Y-24826790D01*
X47293161Y-24922028D01*
X47245542Y-24969647D01*
X47150304Y-25017266D01*
X47055066Y-25017266D01*
X46959828Y-24969647D01*
X46912209Y-24922028D01*
X46864590Y-24826790D01*
X46816971Y-24636314D01*
X46769352Y-24541076D01*
X46721733Y-24493457D01*
X46626495Y-24445838D01*
X46531257Y-24445838D01*
X46436019Y-24493457D01*
X46388400Y-24541076D01*
X46340780Y-24636314D01*
X46340780Y-24874409D01*
X46388400Y-25017266D01*
X46436019Y-25398219D02*
X46388400Y-25445838D01*
X46340780Y-25541076D01*
X46340780Y-25779171D01*
X46388400Y-25874409D01*
X46436019Y-25922028D01*
X46531257Y-25969647D01*
X46626495Y-25969647D01*
X46769352Y-25922028D01*
X47340780Y-25350600D01*
X47340780Y-25969647D01*
X47293161Y-26350600D02*
X47340780Y-26493457D01*
X47340780Y-26731552D01*
X47293161Y-26826790D01*
X47245542Y-26874409D01*
X47150304Y-26922028D01*
X47055066Y-26922028D01*
X46959828Y-26874409D01*
X46912209Y-26826790D01*
X46864590Y-26731552D01*
X46816971Y-26541076D01*
X46769352Y-26445838D01*
X46721733Y-26398219D01*
X46626495Y-26350600D01*
X46531257Y-26350600D01*
X46436019Y-26398219D01*
X46388400Y-26445838D01*
X46340780Y-26541076D01*
X46340780Y-26779171D01*
X46388400Y-26922028D01*
M02*
