G04 #@! TF.GenerationSoftware,KiCad,Pcbnew,5.1.5-52549c5~86~ubuntu18.04.1*
G04 #@! TF.CreationDate,2020-10-02T17:19:18-05:00*
G04 #@! TF.ProjectId,B04,4230342e-6b69-4636-9164-5f7063625858,rev?*
G04 #@! TF.SameCoordinates,Original*
G04 #@! TF.FileFunction,Soldermask,Top*
G04 #@! TF.FilePolarity,Negative*
%FSLAX46Y46*%
G04 Gerber Fmt 4.6, Leading zero omitted, Abs format (unit mm)*
G04 Created by KiCad (PCBNEW 5.1.5-52549c5~86~ubuntu18.04.1) date 2020-10-02 17:19:18*
%MOMM*%
%LPD*%
G04 APERTURE LIST*
%ADD10C,0.100000*%
G04 APERTURE END LIST*
D10*
G36*
X24112585Y-32448802D02*
G01*
X24262410Y-32478604D01*
X24544674Y-32595521D01*
X24798705Y-32765259D01*
X25014741Y-32981295D01*
X25184479Y-33235326D01*
X25301396Y-33517590D01*
X25301396Y-33517591D01*
X25347643Y-33750087D01*
X25361000Y-33817240D01*
X25361000Y-34122760D01*
X25301396Y-34422410D01*
X25184479Y-34704674D01*
X25014741Y-34958705D01*
X24798705Y-35174741D01*
X24544674Y-35344479D01*
X24262410Y-35461396D01*
X24112585Y-35491198D01*
X23962761Y-35521000D01*
X23657239Y-35521000D01*
X23507415Y-35491198D01*
X23357590Y-35461396D01*
X23075326Y-35344479D01*
X22821295Y-35174741D01*
X22605259Y-34958705D01*
X22435521Y-34704674D01*
X22318604Y-34422410D01*
X22259000Y-34122760D01*
X22259000Y-33817240D01*
X22272358Y-33750087D01*
X22318604Y-33517591D01*
X22318604Y-33517590D01*
X22435521Y-33235326D01*
X22605259Y-32981295D01*
X22821295Y-32765259D01*
X23075326Y-32595521D01*
X23357590Y-32478604D01*
X23507415Y-32448802D01*
X23657239Y-32419000D01*
X23962761Y-32419000D01*
X24112585Y-32448802D01*
G37*
G36*
X44432585Y-32448802D02*
G01*
X44582410Y-32478604D01*
X44864674Y-32595521D01*
X45118705Y-32765259D01*
X45334741Y-32981295D01*
X45504479Y-33235326D01*
X45621396Y-33517590D01*
X45621396Y-33517591D01*
X45667643Y-33750087D01*
X45681000Y-33817240D01*
X45681000Y-34122760D01*
X45621396Y-34422410D01*
X45504479Y-34704674D01*
X45334741Y-34958705D01*
X45118705Y-35174741D01*
X44864674Y-35344479D01*
X44582410Y-35461396D01*
X44432585Y-35491198D01*
X44282761Y-35521000D01*
X43977239Y-35521000D01*
X43827415Y-35491198D01*
X43677590Y-35461396D01*
X43395326Y-35344479D01*
X43141295Y-35174741D01*
X42925259Y-34958705D01*
X42755521Y-34704674D01*
X42638604Y-34422410D01*
X42579000Y-34122760D01*
X42579000Y-33817240D01*
X42592358Y-33750087D01*
X42638604Y-33517591D01*
X42638604Y-33517590D01*
X42755521Y-33235326D01*
X42925259Y-32981295D01*
X43141295Y-32765259D01*
X43395326Y-32595521D01*
X43677590Y-32478604D01*
X43827415Y-32448802D01*
X43977239Y-32419000D01*
X44282761Y-32419000D01*
X44432585Y-32448802D01*
G37*
G36*
X39349487Y-32119596D02*
G01*
X39586253Y-32217668D01*
X39586255Y-32217669D01*
X39799339Y-32360047D01*
X39980553Y-32541261D01*
X40122932Y-32754347D01*
X40221004Y-32991113D01*
X40271000Y-33242461D01*
X40271000Y-33498739D01*
X40221004Y-33750087D01*
X40193188Y-33817240D01*
X40122931Y-33986855D01*
X39980553Y-34199939D01*
X39799339Y-34381153D01*
X39586255Y-34523531D01*
X39586254Y-34523532D01*
X39586253Y-34523532D01*
X39349487Y-34621604D01*
X39098139Y-34671600D01*
X38841861Y-34671600D01*
X38590513Y-34621604D01*
X38353747Y-34523532D01*
X38353746Y-34523532D01*
X38353745Y-34523531D01*
X38140661Y-34381153D01*
X37959447Y-34199939D01*
X37817069Y-33986855D01*
X37746812Y-33817240D01*
X37718996Y-33750087D01*
X37669000Y-33498739D01*
X37669000Y-33242461D01*
X37718996Y-32991113D01*
X37817068Y-32754347D01*
X37959447Y-32541261D01*
X38140661Y-32360047D01*
X38353745Y-32217669D01*
X38353747Y-32217668D01*
X38590513Y-32119596D01*
X38841861Y-32069600D01*
X39098139Y-32069600D01*
X39349487Y-32119596D01*
G37*
G36*
X30271000Y-34671600D02*
G01*
X27669000Y-34671600D01*
X27669000Y-32069600D01*
X30271000Y-32069600D01*
X30271000Y-34671600D01*
G37*
G36*
X34349487Y-32119596D02*
G01*
X34586253Y-32217668D01*
X34586255Y-32217669D01*
X34799339Y-32360047D01*
X34980553Y-32541261D01*
X35122932Y-32754347D01*
X35221004Y-32991113D01*
X35271000Y-33242461D01*
X35271000Y-33498739D01*
X35221004Y-33750087D01*
X35193188Y-33817240D01*
X35122931Y-33986855D01*
X34980553Y-34199939D01*
X34799339Y-34381153D01*
X34586255Y-34523531D01*
X34586254Y-34523532D01*
X34586253Y-34523532D01*
X34349487Y-34621604D01*
X34098139Y-34671600D01*
X33841861Y-34671600D01*
X33590513Y-34621604D01*
X33353747Y-34523532D01*
X33353746Y-34523532D01*
X33353745Y-34523531D01*
X33140661Y-34381153D01*
X32959447Y-34199939D01*
X32817069Y-33986855D01*
X32746812Y-33817240D01*
X32718996Y-33750087D01*
X32669000Y-33498739D01*
X32669000Y-33242461D01*
X32718996Y-32991113D01*
X32817068Y-32754347D01*
X32959447Y-32541261D01*
X33140661Y-32360047D01*
X33353745Y-32217669D01*
X33353747Y-32217668D01*
X33590513Y-32119596D01*
X33841861Y-32069600D01*
X34098139Y-32069600D01*
X34349487Y-32119596D01*
G37*
G36*
X24189393Y-27639304D02*
G01*
X24426101Y-27737352D01*
X24426103Y-27737353D01*
X24639135Y-27879696D01*
X24820304Y-28060865D01*
X24962647Y-28273897D01*
X24962648Y-28273899D01*
X25060696Y-28510607D01*
X25110680Y-28761893D01*
X25110680Y-29018107D01*
X25060696Y-29269393D01*
X24962648Y-29506101D01*
X24962647Y-29506103D01*
X24820304Y-29719135D01*
X24639135Y-29900304D01*
X24426103Y-30042647D01*
X24426102Y-30042648D01*
X24426101Y-30042648D01*
X24189393Y-30140696D01*
X23938107Y-30190680D01*
X23681893Y-30190680D01*
X23430607Y-30140696D01*
X23193899Y-30042648D01*
X23193898Y-30042648D01*
X23193897Y-30042647D01*
X22980865Y-29900304D01*
X22799696Y-29719135D01*
X22657353Y-29506103D01*
X22657352Y-29506101D01*
X22559304Y-29269393D01*
X22509320Y-29018107D01*
X22509320Y-28761893D01*
X22559304Y-28510607D01*
X22657352Y-28273899D01*
X22657353Y-28273897D01*
X22799696Y-28060865D01*
X22980865Y-27879696D01*
X23193897Y-27737353D01*
X23193899Y-27737352D01*
X23430607Y-27639304D01*
X23681893Y-27589320D01*
X23938107Y-27589320D01*
X24189393Y-27639304D01*
G37*
G36*
X44509393Y-27639304D02*
G01*
X44746101Y-27737352D01*
X44746103Y-27737353D01*
X44959135Y-27879696D01*
X45140304Y-28060865D01*
X45282647Y-28273897D01*
X45282648Y-28273899D01*
X45380696Y-28510607D01*
X45430680Y-28761893D01*
X45430680Y-29018107D01*
X45380696Y-29269393D01*
X45282648Y-29506101D01*
X45282647Y-29506103D01*
X45140304Y-29719135D01*
X44959135Y-29900304D01*
X44746103Y-30042647D01*
X44746102Y-30042648D01*
X44746101Y-30042648D01*
X44509393Y-30140696D01*
X44258107Y-30190680D01*
X44001893Y-30190680D01*
X43750607Y-30140696D01*
X43513899Y-30042648D01*
X43513898Y-30042648D01*
X43513897Y-30042647D01*
X43300865Y-29900304D01*
X43119696Y-29719135D01*
X42977353Y-29506103D01*
X42977352Y-29506101D01*
X42879304Y-29269393D01*
X42829320Y-29018107D01*
X42829320Y-28761893D01*
X42879304Y-28510607D01*
X42977352Y-28273899D01*
X42977353Y-28273897D01*
X43119696Y-28060865D01*
X43300865Y-27879696D01*
X43513897Y-27737353D01*
X43513899Y-27737352D01*
X43750607Y-27639304D01*
X44001893Y-27589320D01*
X44258107Y-27589320D01*
X44509393Y-27639304D01*
G37*
G36*
X34349487Y-23158396D02*
G01*
X34586253Y-23256468D01*
X34586255Y-23256469D01*
X34737593Y-23357590D01*
X34799339Y-23398847D01*
X34980553Y-23580061D01*
X35122932Y-23793147D01*
X35221004Y-24029913D01*
X35271000Y-24281261D01*
X35271000Y-24537539D01*
X35221004Y-24788887D01*
X35216937Y-24798705D01*
X35122931Y-25025655D01*
X34980553Y-25238739D01*
X34799339Y-25419953D01*
X34586255Y-25562331D01*
X34586254Y-25562332D01*
X34586253Y-25562332D01*
X34349487Y-25660404D01*
X34098139Y-25710400D01*
X33841861Y-25710400D01*
X33590513Y-25660404D01*
X33353747Y-25562332D01*
X33353746Y-25562332D01*
X33353745Y-25562331D01*
X33140661Y-25419953D01*
X32959447Y-25238739D01*
X32817069Y-25025655D01*
X32723063Y-24798705D01*
X32718996Y-24788887D01*
X32669000Y-24537539D01*
X32669000Y-24281261D01*
X32718996Y-24029913D01*
X32817068Y-23793147D01*
X32959447Y-23580061D01*
X33140661Y-23398847D01*
X33202407Y-23357590D01*
X33353745Y-23256469D01*
X33353747Y-23256468D01*
X33590513Y-23158396D01*
X33841861Y-23108400D01*
X34098139Y-23108400D01*
X34349487Y-23158396D01*
G37*
G36*
X40271000Y-25710400D02*
G01*
X37669000Y-25710400D01*
X37669000Y-23108400D01*
X40271000Y-23108400D01*
X40271000Y-25710400D01*
G37*
G36*
X29349487Y-23158396D02*
G01*
X29586253Y-23256468D01*
X29586255Y-23256469D01*
X29737593Y-23357590D01*
X29799339Y-23398847D01*
X29980553Y-23580061D01*
X30122932Y-23793147D01*
X30221004Y-24029913D01*
X30271000Y-24281261D01*
X30271000Y-24537539D01*
X30221004Y-24788887D01*
X30216937Y-24798705D01*
X30122931Y-25025655D01*
X29980553Y-25238739D01*
X29799339Y-25419953D01*
X29586255Y-25562331D01*
X29586254Y-25562332D01*
X29586253Y-25562332D01*
X29349487Y-25660404D01*
X29098139Y-25710400D01*
X28841861Y-25710400D01*
X28590513Y-25660404D01*
X28353747Y-25562332D01*
X28353746Y-25562332D01*
X28353745Y-25562331D01*
X28140661Y-25419953D01*
X27959447Y-25238739D01*
X27817069Y-25025655D01*
X27723063Y-24798705D01*
X27718996Y-24788887D01*
X27669000Y-24537539D01*
X27669000Y-24281261D01*
X27718996Y-24029913D01*
X27817068Y-23793147D01*
X27959447Y-23580061D01*
X28140661Y-23398847D01*
X28202407Y-23357590D01*
X28353745Y-23256469D01*
X28353747Y-23256468D01*
X28590513Y-23158396D01*
X28841861Y-23108400D01*
X29098139Y-23108400D01*
X29349487Y-23158396D01*
G37*
G36*
X24112585Y-22288802D02*
G01*
X24262410Y-22318604D01*
X24544674Y-22435521D01*
X24798705Y-22605259D01*
X25014741Y-22821295D01*
X25184479Y-23075326D01*
X25301396Y-23357590D01*
X25331198Y-23507415D01*
X25361000Y-23657239D01*
X25361000Y-23962761D01*
X25331198Y-24112585D01*
X25301396Y-24262410D01*
X25184479Y-24544674D01*
X25014741Y-24798705D01*
X24798705Y-25014741D01*
X24544674Y-25184479D01*
X24262410Y-25301396D01*
X24112585Y-25331198D01*
X23962761Y-25361000D01*
X23657239Y-25361000D01*
X23507415Y-25331198D01*
X23357590Y-25301396D01*
X23075326Y-25184479D01*
X22821295Y-25014741D01*
X22605259Y-24798705D01*
X22435521Y-24544674D01*
X22318604Y-24262410D01*
X22288802Y-24112585D01*
X22259000Y-23962761D01*
X22259000Y-23657239D01*
X22288802Y-23507415D01*
X22318604Y-23357590D01*
X22435521Y-23075326D01*
X22605259Y-22821295D01*
X22821295Y-22605259D01*
X23075326Y-22435521D01*
X23357590Y-22318604D01*
X23507415Y-22288802D01*
X23657239Y-22259000D01*
X23962761Y-22259000D01*
X24112585Y-22288802D01*
G37*
G36*
X44432585Y-22288802D02*
G01*
X44582410Y-22318604D01*
X44864674Y-22435521D01*
X45118705Y-22605259D01*
X45334741Y-22821295D01*
X45504479Y-23075326D01*
X45621396Y-23357590D01*
X45651198Y-23507415D01*
X45681000Y-23657239D01*
X45681000Y-23962761D01*
X45651198Y-24112585D01*
X45621396Y-24262410D01*
X45504479Y-24544674D01*
X45334741Y-24798705D01*
X45118705Y-25014741D01*
X44864674Y-25184479D01*
X44582410Y-25301396D01*
X44432585Y-25331198D01*
X44282761Y-25361000D01*
X43977239Y-25361000D01*
X43827415Y-25331198D01*
X43677590Y-25301396D01*
X43395326Y-25184479D01*
X43141295Y-25014741D01*
X42925259Y-24798705D01*
X42755521Y-24544674D01*
X42638604Y-24262410D01*
X42608802Y-24112585D01*
X42579000Y-23962761D01*
X42579000Y-23657239D01*
X42608802Y-23507415D01*
X42638604Y-23357590D01*
X42755521Y-23075326D01*
X42925259Y-22821295D01*
X43141295Y-22605259D01*
X43395326Y-22435521D01*
X43677590Y-22318604D01*
X43827415Y-22288802D01*
X43977239Y-22259000D01*
X44282761Y-22259000D01*
X44432585Y-22288802D01*
G37*
M02*
