G04 #@! TF.GenerationSoftware,KiCad,Pcbnew,5.1.5-52549c5~86~ubuntu18.04.1*
G04 #@! TF.CreationDate,2020-09-02T18:09:45-05:00*
G04 #@! TF.ProjectId,C00,4330302e-6b69-4636-9164-5f7063625858,rev?*
G04 #@! TF.SameCoordinates,Original*
G04 #@! TF.FileFunction,Soldermask,Top*
G04 #@! TF.FilePolarity,Negative*
%FSLAX46Y46*%
G04 Gerber Fmt 4.6, Leading zero omitted, Abs format (unit mm)*
G04 Created by KiCad (PCBNEW 5.1.5-52549c5~86~ubuntu18.04.1) date 2020-09-02 18:09:45*
%MOMM*%
%LPD*%
G04 APERTURE LIST*
%ADD10C,0.100000*%
G04 APERTURE END LIST*
D10*
G36*
X105392585Y-52768802D02*
G01*
X105542410Y-52798604D01*
X105824674Y-52915521D01*
X106078705Y-53085259D01*
X106294741Y-53301295D01*
X106464479Y-53555326D01*
X106581396Y-53837590D01*
X106641000Y-54137240D01*
X106641000Y-54442760D01*
X106581396Y-54742410D01*
X106464479Y-55024674D01*
X106294741Y-55278705D01*
X106078705Y-55494741D01*
X105824674Y-55664479D01*
X105542410Y-55781396D01*
X105392585Y-55811198D01*
X105242761Y-55841000D01*
X104937239Y-55841000D01*
X104787415Y-55811198D01*
X104637590Y-55781396D01*
X104355326Y-55664479D01*
X104101295Y-55494741D01*
X103885259Y-55278705D01*
X103715521Y-55024674D01*
X103598604Y-54742410D01*
X103539000Y-54442760D01*
X103539000Y-54137240D01*
X103598604Y-53837590D01*
X103715521Y-53555326D01*
X103885259Y-53301295D01*
X104101295Y-53085259D01*
X104355326Y-52915521D01*
X104637590Y-52798604D01*
X104787415Y-52768802D01*
X104937239Y-52739000D01*
X105242761Y-52739000D01*
X105392585Y-52768802D01*
G37*
G36*
X44432585Y-52768802D02*
G01*
X44582410Y-52798604D01*
X44864674Y-52915521D01*
X45118705Y-53085259D01*
X45334741Y-53301295D01*
X45504479Y-53555326D01*
X45621396Y-53837590D01*
X45681000Y-54137240D01*
X45681000Y-54442760D01*
X45621396Y-54742410D01*
X45504479Y-55024674D01*
X45334741Y-55278705D01*
X45118705Y-55494741D01*
X44864674Y-55664479D01*
X44582410Y-55781396D01*
X44432585Y-55811198D01*
X44282761Y-55841000D01*
X43977239Y-55841000D01*
X43827415Y-55811198D01*
X43677590Y-55781396D01*
X43395326Y-55664479D01*
X43141295Y-55494741D01*
X42925259Y-55278705D01*
X42755521Y-55024674D01*
X42638604Y-54742410D01*
X42579000Y-54442760D01*
X42579000Y-54137240D01*
X42638604Y-53837590D01*
X42755521Y-53555326D01*
X42925259Y-53301295D01*
X43141295Y-53085259D01*
X43395326Y-52915521D01*
X43677590Y-52798604D01*
X43827415Y-52768802D01*
X43977239Y-52739000D01*
X44282761Y-52739000D01*
X44432585Y-52768802D01*
G37*
G36*
X34272585Y-52768802D02*
G01*
X34422410Y-52798604D01*
X34704674Y-52915521D01*
X34958705Y-53085259D01*
X35174741Y-53301295D01*
X35344479Y-53555326D01*
X35461396Y-53837590D01*
X35521000Y-54137240D01*
X35521000Y-54442760D01*
X35461396Y-54742410D01*
X35344479Y-55024674D01*
X35174741Y-55278705D01*
X34958705Y-55494741D01*
X34704674Y-55664479D01*
X34422410Y-55781396D01*
X34272585Y-55811198D01*
X34122761Y-55841000D01*
X33817239Y-55841000D01*
X33667415Y-55811198D01*
X33517590Y-55781396D01*
X33235326Y-55664479D01*
X32981295Y-55494741D01*
X32765259Y-55278705D01*
X32595521Y-55024674D01*
X32478604Y-54742410D01*
X32419000Y-54442760D01*
X32419000Y-54137240D01*
X32478604Y-53837590D01*
X32595521Y-53555326D01*
X32765259Y-53301295D01*
X32981295Y-53085259D01*
X33235326Y-52915521D01*
X33517590Y-52798604D01*
X33667415Y-52768802D01*
X33817239Y-52739000D01*
X34122761Y-52739000D01*
X34272585Y-52768802D01*
G37*
G36*
X54592585Y-52768802D02*
G01*
X54742410Y-52798604D01*
X55024674Y-52915521D01*
X55278705Y-53085259D01*
X55494741Y-53301295D01*
X55664479Y-53555326D01*
X55781396Y-53837590D01*
X55841000Y-54137240D01*
X55841000Y-54442760D01*
X55781396Y-54742410D01*
X55664479Y-55024674D01*
X55494741Y-55278705D01*
X55278705Y-55494741D01*
X55024674Y-55664479D01*
X54742410Y-55781396D01*
X54592585Y-55811198D01*
X54442761Y-55841000D01*
X54137239Y-55841000D01*
X53987415Y-55811198D01*
X53837590Y-55781396D01*
X53555326Y-55664479D01*
X53301295Y-55494741D01*
X53085259Y-55278705D01*
X52915521Y-55024674D01*
X52798604Y-54742410D01*
X52739000Y-54442760D01*
X52739000Y-54137240D01*
X52798604Y-53837590D01*
X52915521Y-53555326D01*
X53085259Y-53301295D01*
X53301295Y-53085259D01*
X53555326Y-52915521D01*
X53837590Y-52798604D01*
X53987415Y-52768802D01*
X54137239Y-52739000D01*
X54442761Y-52739000D01*
X54592585Y-52768802D01*
G37*
G36*
X74912585Y-52768802D02*
G01*
X75062410Y-52798604D01*
X75344674Y-52915521D01*
X75598705Y-53085259D01*
X75814741Y-53301295D01*
X75984479Y-53555326D01*
X76101396Y-53837590D01*
X76161000Y-54137240D01*
X76161000Y-54442760D01*
X76101396Y-54742410D01*
X75984479Y-55024674D01*
X75814741Y-55278705D01*
X75598705Y-55494741D01*
X75344674Y-55664479D01*
X75062410Y-55781396D01*
X74912585Y-55811198D01*
X74762761Y-55841000D01*
X74457239Y-55841000D01*
X74307415Y-55811198D01*
X74157590Y-55781396D01*
X73875326Y-55664479D01*
X73621295Y-55494741D01*
X73405259Y-55278705D01*
X73235521Y-55024674D01*
X73118604Y-54742410D01*
X73059000Y-54442760D01*
X73059000Y-54137240D01*
X73118604Y-53837590D01*
X73235521Y-53555326D01*
X73405259Y-53301295D01*
X73621295Y-53085259D01*
X73875326Y-52915521D01*
X74157590Y-52798604D01*
X74307415Y-52768802D01*
X74457239Y-52739000D01*
X74762761Y-52739000D01*
X74912585Y-52768802D01*
G37*
G36*
X85072585Y-52768802D02*
G01*
X85222410Y-52798604D01*
X85504674Y-52915521D01*
X85758705Y-53085259D01*
X85974741Y-53301295D01*
X86144479Y-53555326D01*
X86261396Y-53837590D01*
X86321000Y-54137240D01*
X86321000Y-54442760D01*
X86261396Y-54742410D01*
X86144479Y-55024674D01*
X85974741Y-55278705D01*
X85758705Y-55494741D01*
X85504674Y-55664479D01*
X85222410Y-55781396D01*
X85072585Y-55811198D01*
X84922761Y-55841000D01*
X84617239Y-55841000D01*
X84467415Y-55811198D01*
X84317590Y-55781396D01*
X84035326Y-55664479D01*
X83781295Y-55494741D01*
X83565259Y-55278705D01*
X83395521Y-55024674D01*
X83278604Y-54742410D01*
X83219000Y-54442760D01*
X83219000Y-54137240D01*
X83278604Y-53837590D01*
X83395521Y-53555326D01*
X83565259Y-53301295D01*
X83781295Y-53085259D01*
X84035326Y-52915521D01*
X84317590Y-52798604D01*
X84467415Y-52768802D01*
X84617239Y-52739000D01*
X84922761Y-52739000D01*
X85072585Y-52768802D01*
G37*
G36*
X64752585Y-52768802D02*
G01*
X64902410Y-52798604D01*
X65184674Y-52915521D01*
X65438705Y-53085259D01*
X65654741Y-53301295D01*
X65824479Y-53555326D01*
X65941396Y-53837590D01*
X66001000Y-54137240D01*
X66001000Y-54442760D01*
X65941396Y-54742410D01*
X65824479Y-55024674D01*
X65654741Y-55278705D01*
X65438705Y-55494741D01*
X65184674Y-55664479D01*
X64902410Y-55781396D01*
X64752585Y-55811198D01*
X64602761Y-55841000D01*
X64297239Y-55841000D01*
X64147415Y-55811198D01*
X63997590Y-55781396D01*
X63715326Y-55664479D01*
X63461295Y-55494741D01*
X63245259Y-55278705D01*
X63075521Y-55024674D01*
X62958604Y-54742410D01*
X62899000Y-54442760D01*
X62899000Y-54137240D01*
X62958604Y-53837590D01*
X63075521Y-53555326D01*
X63245259Y-53301295D01*
X63461295Y-53085259D01*
X63715326Y-52915521D01*
X63997590Y-52798604D01*
X64147415Y-52768802D01*
X64297239Y-52739000D01*
X64602761Y-52739000D01*
X64752585Y-52768802D01*
G37*
G36*
X24112585Y-50028802D02*
G01*
X24262410Y-50058604D01*
X24544674Y-50175521D01*
X24798705Y-50345259D01*
X25014741Y-50561295D01*
X25184479Y-50815326D01*
X25301396Y-51097590D01*
X25361000Y-51397240D01*
X25361000Y-51702760D01*
X25301396Y-52002410D01*
X25184479Y-52284674D01*
X25014741Y-52538705D01*
X24798705Y-52754741D01*
X24544674Y-52924479D01*
X24262410Y-53041396D01*
X24112585Y-53071198D01*
X23962761Y-53101000D01*
X23657239Y-53101000D01*
X23507415Y-53071198D01*
X23357590Y-53041396D01*
X23075326Y-52924479D01*
X22821295Y-52754741D01*
X22605259Y-52538705D01*
X22435521Y-52284674D01*
X22318604Y-52002410D01*
X22259000Y-51702760D01*
X22259000Y-51397240D01*
X22318604Y-51097590D01*
X22435521Y-50815326D01*
X22605259Y-50561295D01*
X22821295Y-50345259D01*
X23075326Y-50175521D01*
X23357590Y-50058604D01*
X23507415Y-50028802D01*
X23657239Y-49999000D01*
X23962761Y-49999000D01*
X24112585Y-50028802D01*
G37*
G36*
X92862585Y-50028802D02*
G01*
X93012410Y-50058604D01*
X93294674Y-50175521D01*
X93548705Y-50345259D01*
X93764741Y-50561295D01*
X93934479Y-50815326D01*
X94051396Y-51097590D01*
X94111000Y-51397240D01*
X94111000Y-51702760D01*
X94051396Y-52002410D01*
X93934479Y-52284674D01*
X93764741Y-52538705D01*
X93548705Y-52754741D01*
X93294674Y-52924479D01*
X93012410Y-53041396D01*
X92862585Y-53071198D01*
X92712761Y-53101000D01*
X92407239Y-53101000D01*
X92257415Y-53071198D01*
X92107590Y-53041396D01*
X91825326Y-52924479D01*
X91571295Y-52754741D01*
X91355259Y-52538705D01*
X91185521Y-52284674D01*
X91068604Y-52002410D01*
X91009000Y-51702760D01*
X91009000Y-51397240D01*
X91068604Y-51097590D01*
X91185521Y-50815326D01*
X91355259Y-50561295D01*
X91571295Y-50345259D01*
X91825326Y-50175521D01*
X92107590Y-50058604D01*
X92257415Y-50028802D01*
X92407239Y-49999000D01*
X92712761Y-49999000D01*
X92862585Y-50028802D01*
G37*
G36*
X80069393Y-47959304D02*
G01*
X80306101Y-48057352D01*
X80306103Y-48057353D01*
X80519135Y-48199696D01*
X80700304Y-48380865D01*
X80842647Y-48593897D01*
X80842648Y-48593899D01*
X80940696Y-48830607D01*
X80990680Y-49081893D01*
X80990680Y-49338107D01*
X80940696Y-49589393D01*
X80842648Y-49826101D01*
X80842647Y-49826103D01*
X80700304Y-50039135D01*
X80519135Y-50220304D01*
X80306103Y-50362647D01*
X80306102Y-50362648D01*
X80306101Y-50362648D01*
X80069393Y-50460696D01*
X79818107Y-50510680D01*
X79561893Y-50510680D01*
X79310607Y-50460696D01*
X79073899Y-50362648D01*
X79073898Y-50362648D01*
X79073897Y-50362647D01*
X78860865Y-50220304D01*
X78679696Y-50039135D01*
X78537353Y-49826103D01*
X78537352Y-49826101D01*
X78439304Y-49589393D01*
X78389320Y-49338107D01*
X78389320Y-49081893D01*
X78439304Y-48830607D01*
X78537352Y-48593899D01*
X78537353Y-48593897D01*
X78679696Y-48380865D01*
X78860865Y-48199696D01*
X79073897Y-48057353D01*
X79073899Y-48057352D01*
X79310607Y-47959304D01*
X79561893Y-47909320D01*
X79818107Y-47909320D01*
X80069393Y-47959304D01*
G37*
G36*
X29269393Y-47959304D02*
G01*
X29506101Y-48057352D01*
X29506103Y-48057353D01*
X29719135Y-48199696D01*
X29900304Y-48380865D01*
X30042647Y-48593897D01*
X30042648Y-48593899D01*
X30140696Y-48830607D01*
X30190680Y-49081893D01*
X30190680Y-49338107D01*
X30140696Y-49589393D01*
X30042648Y-49826101D01*
X30042647Y-49826103D01*
X29900304Y-50039135D01*
X29719135Y-50220304D01*
X29506103Y-50362647D01*
X29506102Y-50362648D01*
X29506101Y-50362648D01*
X29269393Y-50460696D01*
X29018107Y-50510680D01*
X28761893Y-50510680D01*
X28510607Y-50460696D01*
X28273899Y-50362648D01*
X28273898Y-50362648D01*
X28273897Y-50362647D01*
X28060865Y-50220304D01*
X27879696Y-50039135D01*
X27737353Y-49826103D01*
X27737352Y-49826101D01*
X27639304Y-49589393D01*
X27589320Y-49338107D01*
X27589320Y-49081893D01*
X27639304Y-48830607D01*
X27737352Y-48593899D01*
X27737353Y-48593897D01*
X27879696Y-48380865D01*
X28060865Y-48199696D01*
X28273897Y-48057353D01*
X28273899Y-48057352D01*
X28510607Y-47959304D01*
X28761893Y-47909320D01*
X29018107Y-47909320D01*
X29269393Y-47959304D01*
G37*
G36*
X96964903Y-46597075D02*
G01*
X97192571Y-46691378D01*
X97397466Y-46828285D01*
X97571715Y-47002534D01*
X97571716Y-47002536D01*
X97708623Y-47207431D01*
X97802925Y-47435097D01*
X97851000Y-47676786D01*
X97851000Y-47923214D01*
X97802925Y-48164903D01*
X97713471Y-48380866D01*
X97708622Y-48392571D01*
X97571715Y-48597466D01*
X97397466Y-48771715D01*
X97192571Y-48908622D01*
X97192570Y-48908623D01*
X97192569Y-48908623D01*
X96964903Y-49002925D01*
X96723214Y-49051000D01*
X96476786Y-49051000D01*
X96235097Y-49002925D01*
X96007431Y-48908623D01*
X96007430Y-48908623D01*
X96007429Y-48908622D01*
X95802534Y-48771715D01*
X95628285Y-48597466D01*
X95491378Y-48392571D01*
X95486530Y-48380866D01*
X95397075Y-48164903D01*
X95349000Y-47923214D01*
X95349000Y-47676786D01*
X95397075Y-47435097D01*
X95491377Y-47207431D01*
X95628284Y-47002536D01*
X95628285Y-47002534D01*
X95802534Y-46828285D01*
X96007429Y-46691378D01*
X96235097Y-46597075D01*
X96476786Y-46549000D01*
X96723214Y-46549000D01*
X96964903Y-46597075D01*
G37*
G36*
X105851000Y-49051000D02*
G01*
X103349000Y-49051000D01*
X103349000Y-46549000D01*
X105851000Y-46549000D01*
X105851000Y-49051000D01*
G37*
G36*
X34272585Y-42608802D02*
G01*
X34422410Y-42638604D01*
X34704674Y-42755521D01*
X34958705Y-42925259D01*
X35174741Y-43141295D01*
X35344479Y-43395326D01*
X35461396Y-43677590D01*
X35521000Y-43977240D01*
X35521000Y-44282760D01*
X35461396Y-44582410D01*
X35344479Y-44864674D01*
X35174741Y-45118705D01*
X34958705Y-45334741D01*
X34704674Y-45504479D01*
X34422410Y-45621396D01*
X34272585Y-45651198D01*
X34122761Y-45681000D01*
X33817239Y-45681000D01*
X33667415Y-45651198D01*
X33517590Y-45621396D01*
X33235326Y-45504479D01*
X32981295Y-45334741D01*
X32765259Y-45118705D01*
X32595521Y-44864674D01*
X32478604Y-44582410D01*
X32419000Y-44282760D01*
X32419000Y-43977240D01*
X32478604Y-43677590D01*
X32595521Y-43395326D01*
X32765259Y-43141295D01*
X32981295Y-42925259D01*
X33235326Y-42755521D01*
X33517590Y-42638604D01*
X33667415Y-42608802D01*
X33817239Y-42579000D01*
X34122761Y-42579000D01*
X34272585Y-42608802D01*
G37*
G36*
X85072585Y-42608802D02*
G01*
X85222410Y-42638604D01*
X85504674Y-42755521D01*
X85758705Y-42925259D01*
X85974741Y-43141295D01*
X86144479Y-43395326D01*
X86261396Y-43677590D01*
X86321000Y-43977240D01*
X86321000Y-44282760D01*
X86261396Y-44582410D01*
X86144479Y-44864674D01*
X85974741Y-45118705D01*
X85758705Y-45334741D01*
X85504674Y-45504479D01*
X85222410Y-45621396D01*
X85072585Y-45651198D01*
X84922761Y-45681000D01*
X84617239Y-45681000D01*
X84467415Y-45651198D01*
X84317590Y-45621396D01*
X84035326Y-45504479D01*
X83781295Y-45334741D01*
X83565259Y-45118705D01*
X83395521Y-44864674D01*
X83278604Y-44582410D01*
X83219000Y-44282760D01*
X83219000Y-43977240D01*
X83278604Y-43677590D01*
X83395521Y-43395326D01*
X83565259Y-43141295D01*
X83781295Y-42925259D01*
X84035326Y-42755521D01*
X84317590Y-42638604D01*
X84467415Y-42608802D01*
X84617239Y-42579000D01*
X84922761Y-42579000D01*
X85072585Y-42608802D01*
G37*
G36*
X74912585Y-42608802D02*
G01*
X75062410Y-42638604D01*
X75344674Y-42755521D01*
X75598705Y-42925259D01*
X75814741Y-43141295D01*
X75984479Y-43395326D01*
X76101396Y-43677590D01*
X76161000Y-43977240D01*
X76161000Y-44282760D01*
X76101396Y-44582410D01*
X75984479Y-44864674D01*
X75814741Y-45118705D01*
X75598705Y-45334741D01*
X75344674Y-45504479D01*
X75062410Y-45621396D01*
X74912585Y-45651198D01*
X74762761Y-45681000D01*
X74457239Y-45681000D01*
X74307415Y-45651198D01*
X74157590Y-45621396D01*
X73875326Y-45504479D01*
X73621295Y-45334741D01*
X73405259Y-45118705D01*
X73235521Y-44864674D01*
X73118604Y-44582410D01*
X73059000Y-44282760D01*
X73059000Y-43977240D01*
X73118604Y-43677590D01*
X73235521Y-43395326D01*
X73405259Y-43141295D01*
X73621295Y-42925259D01*
X73875326Y-42755521D01*
X74157590Y-42638604D01*
X74307415Y-42608802D01*
X74457239Y-42579000D01*
X74762761Y-42579000D01*
X74912585Y-42608802D01*
G37*
G36*
X64752585Y-42608802D02*
G01*
X64902410Y-42638604D01*
X65184674Y-42755521D01*
X65438705Y-42925259D01*
X65654741Y-43141295D01*
X65824479Y-43395326D01*
X65941396Y-43677590D01*
X66001000Y-43977240D01*
X66001000Y-44282760D01*
X65941396Y-44582410D01*
X65824479Y-44864674D01*
X65654741Y-45118705D01*
X65438705Y-45334741D01*
X65184674Y-45504479D01*
X64902410Y-45621396D01*
X64752585Y-45651198D01*
X64602761Y-45681000D01*
X64297239Y-45681000D01*
X64147415Y-45651198D01*
X63997590Y-45621396D01*
X63715326Y-45504479D01*
X63461295Y-45334741D01*
X63245259Y-45118705D01*
X63075521Y-44864674D01*
X62958604Y-44582410D01*
X62899000Y-44282760D01*
X62899000Y-43977240D01*
X62958604Y-43677590D01*
X63075521Y-43395326D01*
X63245259Y-43141295D01*
X63461295Y-42925259D01*
X63715326Y-42755521D01*
X63997590Y-42638604D01*
X64147415Y-42608802D01*
X64297239Y-42579000D01*
X64602761Y-42579000D01*
X64752585Y-42608802D01*
G37*
G36*
X54592585Y-42608802D02*
G01*
X54742410Y-42638604D01*
X55024674Y-42755521D01*
X55278705Y-42925259D01*
X55494741Y-43141295D01*
X55664479Y-43395326D01*
X55781396Y-43677590D01*
X55841000Y-43977240D01*
X55841000Y-44282760D01*
X55781396Y-44582410D01*
X55664479Y-44864674D01*
X55494741Y-45118705D01*
X55278705Y-45334741D01*
X55024674Y-45504479D01*
X54742410Y-45621396D01*
X54592585Y-45651198D01*
X54442761Y-45681000D01*
X54137239Y-45681000D01*
X53987415Y-45651198D01*
X53837590Y-45621396D01*
X53555326Y-45504479D01*
X53301295Y-45334741D01*
X53085259Y-45118705D01*
X52915521Y-44864674D01*
X52798604Y-44582410D01*
X52739000Y-44282760D01*
X52739000Y-43977240D01*
X52798604Y-43677590D01*
X52915521Y-43395326D01*
X53085259Y-43141295D01*
X53301295Y-42925259D01*
X53555326Y-42755521D01*
X53837590Y-42638604D01*
X53987415Y-42608802D01*
X54137239Y-42579000D01*
X54442761Y-42579000D01*
X54592585Y-42608802D01*
G37*
G36*
X44432585Y-42608802D02*
G01*
X44582410Y-42638604D01*
X44864674Y-42755521D01*
X45118705Y-42925259D01*
X45334741Y-43141295D01*
X45504479Y-43395326D01*
X45621396Y-43677590D01*
X45681000Y-43977240D01*
X45681000Y-44282760D01*
X45621396Y-44582410D01*
X45504479Y-44864674D01*
X45334741Y-45118705D01*
X45118705Y-45334741D01*
X44864674Y-45504479D01*
X44582410Y-45621396D01*
X44432585Y-45651198D01*
X44282761Y-45681000D01*
X43977239Y-45681000D01*
X43827415Y-45651198D01*
X43677590Y-45621396D01*
X43395326Y-45504479D01*
X43141295Y-45334741D01*
X42925259Y-45118705D01*
X42755521Y-44864674D01*
X42638604Y-44582410D01*
X42579000Y-44282760D01*
X42579000Y-43977240D01*
X42638604Y-43677590D01*
X42755521Y-43395326D01*
X42925259Y-43141295D01*
X43141295Y-42925259D01*
X43395326Y-42755521D01*
X43677590Y-42638604D01*
X43827415Y-42608802D01*
X43977239Y-42579000D01*
X44282761Y-42579000D01*
X44432585Y-42608802D01*
G37*
G36*
X24112585Y-42608802D02*
G01*
X24262410Y-42638604D01*
X24544674Y-42755521D01*
X24798705Y-42925259D01*
X25014741Y-43141295D01*
X25184479Y-43395326D01*
X25301396Y-43677590D01*
X25361000Y-43977240D01*
X25361000Y-44282760D01*
X25301396Y-44582410D01*
X25184479Y-44864674D01*
X25014741Y-45118705D01*
X24798705Y-45334741D01*
X24544674Y-45504479D01*
X24262410Y-45621396D01*
X24112585Y-45651198D01*
X23962761Y-45681000D01*
X23657239Y-45681000D01*
X23507415Y-45651198D01*
X23357590Y-45621396D01*
X23075326Y-45504479D01*
X22821295Y-45334741D01*
X22605259Y-45118705D01*
X22435521Y-44864674D01*
X22318604Y-44582410D01*
X22259000Y-44282760D01*
X22259000Y-43977240D01*
X22318604Y-43677590D01*
X22435521Y-43395326D01*
X22605259Y-43141295D01*
X22821295Y-42925259D01*
X23075326Y-42755521D01*
X23357590Y-42638604D01*
X23507415Y-42608802D01*
X23657239Y-42579000D01*
X23962761Y-42579000D01*
X24112585Y-42608802D01*
G37*
G36*
X96964903Y-43097075D02*
G01*
X97192571Y-43191378D01*
X97397466Y-43328285D01*
X97571715Y-43502534D01*
X97708622Y-43707429D01*
X97802925Y-43935097D01*
X97851000Y-44176787D01*
X97851000Y-44423213D01*
X97802925Y-44664903D01*
X97708622Y-44892571D01*
X97571715Y-45097466D01*
X97397466Y-45271715D01*
X97192571Y-45408622D01*
X97192570Y-45408623D01*
X97192569Y-45408623D01*
X96964903Y-45502925D01*
X96723214Y-45551000D01*
X96476786Y-45551000D01*
X96235097Y-45502925D01*
X96007431Y-45408623D01*
X96007430Y-45408623D01*
X96007429Y-45408622D01*
X95802534Y-45271715D01*
X95628285Y-45097466D01*
X95491378Y-44892571D01*
X95397075Y-44664903D01*
X95349000Y-44423213D01*
X95349000Y-44176787D01*
X95397075Y-43935097D01*
X95491378Y-43707429D01*
X95628285Y-43502534D01*
X95802534Y-43328285D01*
X96007429Y-43191378D01*
X96235097Y-43097075D01*
X96476786Y-43049000D01*
X96723214Y-43049000D01*
X96964903Y-43097075D01*
G37*
G36*
X104964903Y-43097075D02*
G01*
X105192571Y-43191378D01*
X105397466Y-43328285D01*
X105571715Y-43502534D01*
X105708622Y-43707429D01*
X105802925Y-43935097D01*
X105851000Y-44176787D01*
X105851000Y-44423213D01*
X105802925Y-44664903D01*
X105708622Y-44892571D01*
X105571715Y-45097466D01*
X105397466Y-45271715D01*
X105192571Y-45408622D01*
X105192570Y-45408623D01*
X105192569Y-45408623D01*
X104964903Y-45502925D01*
X104723214Y-45551000D01*
X104476786Y-45551000D01*
X104235097Y-45502925D01*
X104007431Y-45408623D01*
X104007430Y-45408623D01*
X104007429Y-45408622D01*
X103802534Y-45271715D01*
X103628285Y-45097466D01*
X103491378Y-44892571D01*
X103397075Y-44664903D01*
X103349000Y-44423213D01*
X103349000Y-44176787D01*
X103397075Y-43935097D01*
X103491378Y-43707429D01*
X103628285Y-43502534D01*
X103802534Y-43328285D01*
X104007429Y-43191378D01*
X104235097Y-43097075D01*
X104476786Y-43049000D01*
X104723214Y-43049000D01*
X104964903Y-43097075D01*
G37*
G36*
X104964903Y-39597075D02*
G01*
X105192571Y-39691378D01*
X105397466Y-39828285D01*
X105571715Y-40002534D01*
X105708622Y-40207429D01*
X105802925Y-40435097D01*
X105851000Y-40676787D01*
X105851000Y-40923213D01*
X105802925Y-41164903D01*
X105708622Y-41392571D01*
X105571715Y-41597466D01*
X105397466Y-41771715D01*
X105192571Y-41908622D01*
X105192570Y-41908623D01*
X105192569Y-41908623D01*
X104964903Y-42002925D01*
X104723214Y-42051000D01*
X104476786Y-42051000D01*
X104235097Y-42002925D01*
X104007431Y-41908623D01*
X104007430Y-41908623D01*
X104007429Y-41908622D01*
X103802534Y-41771715D01*
X103628285Y-41597466D01*
X103491378Y-41392571D01*
X103397075Y-41164903D01*
X103349000Y-40923213D01*
X103349000Y-40676787D01*
X103397075Y-40435097D01*
X103491378Y-40207429D01*
X103628285Y-40002534D01*
X103802534Y-39828285D01*
X104007429Y-39691378D01*
X104235097Y-39597075D01*
X104476786Y-39549000D01*
X104723214Y-39549000D01*
X104964903Y-39597075D01*
G37*
G36*
X96964903Y-39597075D02*
G01*
X97192571Y-39691378D01*
X97397466Y-39828285D01*
X97571715Y-40002534D01*
X97708622Y-40207429D01*
X97802925Y-40435097D01*
X97851000Y-40676787D01*
X97851000Y-40923213D01*
X97802925Y-41164903D01*
X97708622Y-41392571D01*
X97571715Y-41597466D01*
X97397466Y-41771715D01*
X97192571Y-41908622D01*
X97192570Y-41908623D01*
X97192569Y-41908623D01*
X96964903Y-42002925D01*
X96723214Y-42051000D01*
X96476786Y-42051000D01*
X96235097Y-42002925D01*
X96007431Y-41908623D01*
X96007430Y-41908623D01*
X96007429Y-41908622D01*
X95802534Y-41771715D01*
X95628285Y-41597466D01*
X95491378Y-41392571D01*
X95397075Y-41164903D01*
X95349000Y-40923213D01*
X95349000Y-40676787D01*
X95397075Y-40435097D01*
X95491378Y-40207429D01*
X95628285Y-40002534D01*
X95802534Y-39828285D01*
X96007429Y-39691378D01*
X96235097Y-39597075D01*
X96476786Y-39549000D01*
X96723214Y-39549000D01*
X96964903Y-39597075D01*
G37*
G36*
X104964903Y-36097075D02*
G01*
X105192571Y-36191378D01*
X105397466Y-36328285D01*
X105571715Y-36502534D01*
X105708622Y-36707429D01*
X105802925Y-36935097D01*
X105851000Y-37176787D01*
X105851000Y-37423213D01*
X105802925Y-37664903D01*
X105708622Y-37892571D01*
X105571715Y-38097466D01*
X105397466Y-38271715D01*
X105192571Y-38408622D01*
X105192570Y-38408623D01*
X105192569Y-38408623D01*
X104964903Y-38502925D01*
X104723214Y-38551000D01*
X104476786Y-38551000D01*
X104235097Y-38502925D01*
X104007431Y-38408623D01*
X104007430Y-38408623D01*
X104007429Y-38408622D01*
X103802534Y-38271715D01*
X103628285Y-38097466D01*
X103491378Y-37892571D01*
X103397075Y-37664903D01*
X103349000Y-37423213D01*
X103349000Y-37176787D01*
X103397075Y-36935097D01*
X103491378Y-36707429D01*
X103628285Y-36502534D01*
X103802534Y-36328285D01*
X104007429Y-36191378D01*
X104235097Y-36097075D01*
X104476786Y-36049000D01*
X104723214Y-36049000D01*
X104964903Y-36097075D01*
G37*
G36*
X96964903Y-36097075D02*
G01*
X97192571Y-36191378D01*
X97397466Y-36328285D01*
X97571715Y-36502534D01*
X97708622Y-36707429D01*
X97802925Y-36935097D01*
X97851000Y-37176787D01*
X97851000Y-37423213D01*
X97802925Y-37664903D01*
X97708622Y-37892571D01*
X97571715Y-38097466D01*
X97397466Y-38271715D01*
X97192571Y-38408622D01*
X97192570Y-38408623D01*
X97192569Y-38408623D01*
X96964903Y-38502925D01*
X96723214Y-38551000D01*
X96476786Y-38551000D01*
X96235097Y-38502925D01*
X96007431Y-38408623D01*
X96007430Y-38408623D01*
X96007429Y-38408622D01*
X95802534Y-38271715D01*
X95628285Y-38097466D01*
X95491378Y-37892571D01*
X95397075Y-37664903D01*
X95349000Y-37423213D01*
X95349000Y-37176787D01*
X95397075Y-36935097D01*
X95491378Y-36707429D01*
X95628285Y-36502534D01*
X95802534Y-36328285D01*
X96007429Y-36191378D01*
X96235097Y-36097075D01*
X96476786Y-36049000D01*
X96723214Y-36049000D01*
X96964903Y-36097075D01*
G37*
G36*
X24112585Y-32448802D02*
G01*
X24262410Y-32478604D01*
X24544674Y-32595521D01*
X24798705Y-32765259D01*
X25014741Y-32981295D01*
X25184479Y-33235326D01*
X25301396Y-33517590D01*
X25361000Y-33817240D01*
X25361000Y-34122760D01*
X25301396Y-34422410D01*
X25184479Y-34704674D01*
X25014741Y-34958705D01*
X24798705Y-35174741D01*
X24544674Y-35344479D01*
X24262410Y-35461396D01*
X24112585Y-35491198D01*
X23962761Y-35521000D01*
X23657239Y-35521000D01*
X23507415Y-35491198D01*
X23357590Y-35461396D01*
X23075326Y-35344479D01*
X22821295Y-35174741D01*
X22605259Y-34958705D01*
X22435521Y-34704674D01*
X22318604Y-34422410D01*
X22259000Y-34122760D01*
X22259000Y-33817240D01*
X22318604Y-33517590D01*
X22435521Y-33235326D01*
X22605259Y-32981295D01*
X22821295Y-32765259D01*
X23075326Y-32595521D01*
X23357590Y-32478604D01*
X23507415Y-32448802D01*
X23657239Y-32419000D01*
X23962761Y-32419000D01*
X24112585Y-32448802D01*
G37*
G36*
X34272585Y-32448802D02*
G01*
X34422410Y-32478604D01*
X34704674Y-32595521D01*
X34958705Y-32765259D01*
X35174741Y-32981295D01*
X35344479Y-33235326D01*
X35461396Y-33517590D01*
X35521000Y-33817240D01*
X35521000Y-34122760D01*
X35461396Y-34422410D01*
X35344479Y-34704674D01*
X35174741Y-34958705D01*
X34958705Y-35174741D01*
X34704674Y-35344479D01*
X34422410Y-35461396D01*
X34272585Y-35491198D01*
X34122761Y-35521000D01*
X33817239Y-35521000D01*
X33667415Y-35491198D01*
X33517590Y-35461396D01*
X33235326Y-35344479D01*
X32981295Y-35174741D01*
X32765259Y-34958705D01*
X32595521Y-34704674D01*
X32478604Y-34422410D01*
X32419000Y-34122760D01*
X32419000Y-33817240D01*
X32478604Y-33517590D01*
X32595521Y-33235326D01*
X32765259Y-32981295D01*
X32981295Y-32765259D01*
X33235326Y-32595521D01*
X33517590Y-32478604D01*
X33667415Y-32448802D01*
X33817239Y-32419000D01*
X34122761Y-32419000D01*
X34272585Y-32448802D01*
G37*
G36*
X44432585Y-32448802D02*
G01*
X44582410Y-32478604D01*
X44864674Y-32595521D01*
X45118705Y-32765259D01*
X45334741Y-32981295D01*
X45504479Y-33235326D01*
X45621396Y-33517590D01*
X45681000Y-33817240D01*
X45681000Y-34122760D01*
X45621396Y-34422410D01*
X45504479Y-34704674D01*
X45334741Y-34958705D01*
X45118705Y-35174741D01*
X44864674Y-35344479D01*
X44582410Y-35461396D01*
X44432585Y-35491198D01*
X44282761Y-35521000D01*
X43977239Y-35521000D01*
X43827415Y-35491198D01*
X43677590Y-35461396D01*
X43395326Y-35344479D01*
X43141295Y-35174741D01*
X42925259Y-34958705D01*
X42755521Y-34704674D01*
X42638604Y-34422410D01*
X42579000Y-34122760D01*
X42579000Y-33817240D01*
X42638604Y-33517590D01*
X42755521Y-33235326D01*
X42925259Y-32981295D01*
X43141295Y-32765259D01*
X43395326Y-32595521D01*
X43677590Y-32478604D01*
X43827415Y-32448802D01*
X43977239Y-32419000D01*
X44282761Y-32419000D01*
X44432585Y-32448802D01*
G37*
G36*
X54592585Y-32448802D02*
G01*
X54742410Y-32478604D01*
X55024674Y-32595521D01*
X55278705Y-32765259D01*
X55494741Y-32981295D01*
X55664479Y-33235326D01*
X55781396Y-33517590D01*
X55841000Y-33817240D01*
X55841000Y-34122760D01*
X55781396Y-34422410D01*
X55664479Y-34704674D01*
X55494741Y-34958705D01*
X55278705Y-35174741D01*
X55024674Y-35344479D01*
X54742410Y-35461396D01*
X54592585Y-35491198D01*
X54442761Y-35521000D01*
X54137239Y-35521000D01*
X53987415Y-35491198D01*
X53837590Y-35461396D01*
X53555326Y-35344479D01*
X53301295Y-35174741D01*
X53085259Y-34958705D01*
X52915521Y-34704674D01*
X52798604Y-34422410D01*
X52739000Y-34122760D01*
X52739000Y-33817240D01*
X52798604Y-33517590D01*
X52915521Y-33235326D01*
X53085259Y-32981295D01*
X53301295Y-32765259D01*
X53555326Y-32595521D01*
X53837590Y-32478604D01*
X53987415Y-32448802D01*
X54137239Y-32419000D01*
X54442761Y-32419000D01*
X54592585Y-32448802D01*
G37*
G36*
X64752585Y-32448802D02*
G01*
X64902410Y-32478604D01*
X65184674Y-32595521D01*
X65438705Y-32765259D01*
X65654741Y-32981295D01*
X65824479Y-33235326D01*
X65941396Y-33517590D01*
X66001000Y-33817240D01*
X66001000Y-34122760D01*
X65941396Y-34422410D01*
X65824479Y-34704674D01*
X65654741Y-34958705D01*
X65438705Y-35174741D01*
X65184674Y-35344479D01*
X64902410Y-35461396D01*
X64752585Y-35491198D01*
X64602761Y-35521000D01*
X64297239Y-35521000D01*
X64147415Y-35491198D01*
X63997590Y-35461396D01*
X63715326Y-35344479D01*
X63461295Y-35174741D01*
X63245259Y-34958705D01*
X63075521Y-34704674D01*
X62958604Y-34422410D01*
X62899000Y-34122760D01*
X62899000Y-33817240D01*
X62958604Y-33517590D01*
X63075521Y-33235326D01*
X63245259Y-32981295D01*
X63461295Y-32765259D01*
X63715326Y-32595521D01*
X63997590Y-32478604D01*
X64147415Y-32448802D01*
X64297239Y-32419000D01*
X64602761Y-32419000D01*
X64752585Y-32448802D01*
G37*
G36*
X74912585Y-32448802D02*
G01*
X75062410Y-32478604D01*
X75344674Y-32595521D01*
X75598705Y-32765259D01*
X75814741Y-32981295D01*
X75984479Y-33235326D01*
X76101396Y-33517590D01*
X76161000Y-33817240D01*
X76161000Y-34122760D01*
X76101396Y-34422410D01*
X75984479Y-34704674D01*
X75814741Y-34958705D01*
X75598705Y-35174741D01*
X75344674Y-35344479D01*
X75062410Y-35461396D01*
X74912585Y-35491198D01*
X74762761Y-35521000D01*
X74457239Y-35521000D01*
X74307415Y-35491198D01*
X74157590Y-35461396D01*
X73875326Y-35344479D01*
X73621295Y-35174741D01*
X73405259Y-34958705D01*
X73235521Y-34704674D01*
X73118604Y-34422410D01*
X73059000Y-34122760D01*
X73059000Y-33817240D01*
X73118604Y-33517590D01*
X73235521Y-33235326D01*
X73405259Y-32981295D01*
X73621295Y-32765259D01*
X73875326Y-32595521D01*
X74157590Y-32478604D01*
X74307415Y-32448802D01*
X74457239Y-32419000D01*
X74762761Y-32419000D01*
X74912585Y-32448802D01*
G37*
G36*
X85072585Y-32448802D02*
G01*
X85222410Y-32478604D01*
X85504674Y-32595521D01*
X85758705Y-32765259D01*
X85974741Y-32981295D01*
X86144479Y-33235326D01*
X86261396Y-33517590D01*
X86321000Y-33817240D01*
X86321000Y-34122760D01*
X86261396Y-34422410D01*
X86144479Y-34704674D01*
X85974741Y-34958705D01*
X85758705Y-35174741D01*
X85504674Y-35344479D01*
X85222410Y-35461396D01*
X85072585Y-35491198D01*
X84922761Y-35521000D01*
X84617239Y-35521000D01*
X84467415Y-35491198D01*
X84317590Y-35461396D01*
X84035326Y-35344479D01*
X83781295Y-35174741D01*
X83565259Y-34958705D01*
X83395521Y-34704674D01*
X83278604Y-34422410D01*
X83219000Y-34122760D01*
X83219000Y-33817240D01*
X83278604Y-33517590D01*
X83395521Y-33235326D01*
X83565259Y-32981295D01*
X83781295Y-32765259D01*
X84035326Y-32595521D01*
X84317590Y-32478604D01*
X84467415Y-32448802D01*
X84617239Y-32419000D01*
X84922761Y-32419000D01*
X85072585Y-32448802D01*
G37*
G36*
X96964903Y-32597075D02*
G01*
X97192571Y-32691378D01*
X97397466Y-32828285D01*
X97571715Y-33002534D01*
X97708622Y-33207429D01*
X97802925Y-33435097D01*
X97851000Y-33676787D01*
X97851000Y-33923213D01*
X97802925Y-34164903D01*
X97708622Y-34392571D01*
X97571715Y-34597466D01*
X97397466Y-34771715D01*
X97192571Y-34908622D01*
X97192570Y-34908623D01*
X97192569Y-34908623D01*
X96964903Y-35002925D01*
X96723214Y-35051000D01*
X96476786Y-35051000D01*
X96235097Y-35002925D01*
X96007431Y-34908623D01*
X96007430Y-34908623D01*
X96007429Y-34908622D01*
X95802534Y-34771715D01*
X95628285Y-34597466D01*
X95491378Y-34392571D01*
X95397075Y-34164903D01*
X95349000Y-33923213D01*
X95349000Y-33676787D01*
X95397075Y-33435097D01*
X95491378Y-33207429D01*
X95628285Y-33002534D01*
X95802534Y-32828285D01*
X96007429Y-32691378D01*
X96235097Y-32597075D01*
X96476786Y-32549000D01*
X96723214Y-32549000D01*
X96964903Y-32597075D01*
G37*
G36*
X104964903Y-32597075D02*
G01*
X105192571Y-32691378D01*
X105397466Y-32828285D01*
X105571715Y-33002534D01*
X105708622Y-33207429D01*
X105802925Y-33435097D01*
X105851000Y-33676787D01*
X105851000Y-33923213D01*
X105802925Y-34164903D01*
X105708622Y-34392571D01*
X105571715Y-34597466D01*
X105397466Y-34771715D01*
X105192571Y-34908622D01*
X105192570Y-34908623D01*
X105192569Y-34908623D01*
X104964903Y-35002925D01*
X104723214Y-35051000D01*
X104476786Y-35051000D01*
X104235097Y-35002925D01*
X104007431Y-34908623D01*
X104007430Y-34908623D01*
X104007429Y-34908622D01*
X103802534Y-34771715D01*
X103628285Y-34597466D01*
X103491378Y-34392571D01*
X103397075Y-34164903D01*
X103349000Y-33923213D01*
X103349000Y-33676787D01*
X103397075Y-33435097D01*
X103491378Y-33207429D01*
X103628285Y-33002534D01*
X103802534Y-32828285D01*
X104007429Y-32691378D01*
X104235097Y-32597075D01*
X104476786Y-32549000D01*
X104723214Y-32549000D01*
X104964903Y-32597075D01*
G37*
G36*
X104964903Y-29097075D02*
G01*
X105192571Y-29191378D01*
X105397466Y-29328285D01*
X105571715Y-29502534D01*
X105708622Y-29707429D01*
X105708623Y-29707431D01*
X105713471Y-29719135D01*
X105802925Y-29935097D01*
X105851000Y-30176787D01*
X105851000Y-30423213D01*
X105802925Y-30664903D01*
X105708622Y-30892571D01*
X105571715Y-31097466D01*
X105397466Y-31271715D01*
X105192571Y-31408622D01*
X105192570Y-31408623D01*
X105192569Y-31408623D01*
X104964903Y-31502925D01*
X104723214Y-31551000D01*
X104476786Y-31551000D01*
X104235097Y-31502925D01*
X104007431Y-31408623D01*
X104007430Y-31408623D01*
X104007429Y-31408622D01*
X103802534Y-31271715D01*
X103628285Y-31097466D01*
X103491378Y-30892571D01*
X103397075Y-30664903D01*
X103349000Y-30423213D01*
X103349000Y-30176787D01*
X103397075Y-29935097D01*
X103486529Y-29719135D01*
X103491377Y-29707431D01*
X103491378Y-29707429D01*
X103628285Y-29502534D01*
X103802534Y-29328285D01*
X104007429Y-29191378D01*
X104235097Y-29097075D01*
X104476786Y-29049000D01*
X104723214Y-29049000D01*
X104964903Y-29097075D01*
G37*
G36*
X97851000Y-31551000D02*
G01*
X95349000Y-31551000D01*
X95349000Y-29049000D01*
X97851000Y-29049000D01*
X97851000Y-31551000D01*
G37*
G36*
X80069393Y-27639304D02*
G01*
X80306101Y-27737352D01*
X80306103Y-27737353D01*
X80519135Y-27879696D01*
X80700304Y-28060865D01*
X80727121Y-28101000D01*
X80842648Y-28273899D01*
X80940696Y-28510607D01*
X80990680Y-28761893D01*
X80990680Y-29018107D01*
X80940696Y-29269393D01*
X80842648Y-29506101D01*
X80842647Y-29506103D01*
X80700304Y-29719135D01*
X80519135Y-29900304D01*
X80306103Y-30042647D01*
X80306102Y-30042648D01*
X80306101Y-30042648D01*
X80069393Y-30140696D01*
X79818107Y-30190680D01*
X79561893Y-30190680D01*
X79310607Y-30140696D01*
X79073899Y-30042648D01*
X79073898Y-30042648D01*
X79073897Y-30042647D01*
X78860865Y-29900304D01*
X78679696Y-29719135D01*
X78537353Y-29506103D01*
X78537352Y-29506101D01*
X78439304Y-29269393D01*
X78389320Y-29018107D01*
X78389320Y-28761893D01*
X78439304Y-28510607D01*
X78537352Y-28273899D01*
X78652879Y-28101000D01*
X78679696Y-28060865D01*
X78860865Y-27879696D01*
X79073897Y-27737353D01*
X79073899Y-27737352D01*
X79310607Y-27639304D01*
X79561893Y-27589320D01*
X79818107Y-27589320D01*
X80069393Y-27639304D01*
G37*
G36*
X29269393Y-27639304D02*
G01*
X29506101Y-27737352D01*
X29506103Y-27737353D01*
X29719135Y-27879696D01*
X29900304Y-28060865D01*
X29927121Y-28101000D01*
X30042648Y-28273899D01*
X30140696Y-28510607D01*
X30190680Y-28761893D01*
X30190680Y-29018107D01*
X30140696Y-29269393D01*
X30042648Y-29506101D01*
X30042647Y-29506103D01*
X29900304Y-29719135D01*
X29719135Y-29900304D01*
X29506103Y-30042647D01*
X29506102Y-30042648D01*
X29506101Y-30042648D01*
X29269393Y-30140696D01*
X29018107Y-30190680D01*
X28761893Y-30190680D01*
X28510607Y-30140696D01*
X28273899Y-30042648D01*
X28273898Y-30042648D01*
X28273897Y-30042647D01*
X28060865Y-29900304D01*
X27879696Y-29719135D01*
X27737353Y-29506103D01*
X27737352Y-29506101D01*
X27639304Y-29269393D01*
X27589320Y-29018107D01*
X27589320Y-28761893D01*
X27639304Y-28510607D01*
X27737352Y-28273899D01*
X27852879Y-28101000D01*
X27879696Y-28060865D01*
X28060865Y-27879696D01*
X28273897Y-27737353D01*
X28273899Y-27737352D01*
X28510607Y-27639304D01*
X28761893Y-27589320D01*
X29018107Y-27589320D01*
X29269393Y-27639304D01*
G37*
G36*
X24112585Y-25028802D02*
G01*
X24262410Y-25058604D01*
X24544674Y-25175521D01*
X24798705Y-25345259D01*
X25014741Y-25561295D01*
X25184479Y-25815326D01*
X25301396Y-26097590D01*
X25361000Y-26397240D01*
X25361000Y-26702760D01*
X25301396Y-27002410D01*
X25184479Y-27284674D01*
X25014741Y-27538705D01*
X24798705Y-27754741D01*
X24544674Y-27924479D01*
X24262410Y-28041396D01*
X24112585Y-28071198D01*
X23962761Y-28101000D01*
X23657239Y-28101000D01*
X23507415Y-28071198D01*
X23357590Y-28041396D01*
X23075326Y-27924479D01*
X22821295Y-27754741D01*
X22605259Y-27538705D01*
X22435521Y-27284674D01*
X22318604Y-27002410D01*
X22259000Y-26702760D01*
X22259000Y-26397240D01*
X22318604Y-26097590D01*
X22435521Y-25815326D01*
X22605259Y-25561295D01*
X22821295Y-25345259D01*
X23075326Y-25175521D01*
X23357590Y-25058604D01*
X23507415Y-25028802D01*
X23657239Y-24999000D01*
X23962761Y-24999000D01*
X24112585Y-25028802D01*
G37*
G36*
X92862585Y-25028802D02*
G01*
X93012410Y-25058604D01*
X93294674Y-25175521D01*
X93548705Y-25345259D01*
X93764741Y-25561295D01*
X93934479Y-25815326D01*
X94051396Y-26097590D01*
X94111000Y-26397240D01*
X94111000Y-26702760D01*
X94051396Y-27002410D01*
X93934479Y-27284674D01*
X93764741Y-27538705D01*
X93548705Y-27754741D01*
X93294674Y-27924479D01*
X93012410Y-28041396D01*
X92862585Y-28071198D01*
X92712761Y-28101000D01*
X92407239Y-28101000D01*
X92257415Y-28071198D01*
X92107590Y-28041396D01*
X91825326Y-27924479D01*
X91571295Y-27754741D01*
X91355259Y-27538705D01*
X91185521Y-27284674D01*
X91068604Y-27002410D01*
X91009000Y-26702760D01*
X91009000Y-26397240D01*
X91068604Y-26097590D01*
X91185521Y-25815326D01*
X91355259Y-25561295D01*
X91571295Y-25345259D01*
X91825326Y-25175521D01*
X92107590Y-25058604D01*
X92257415Y-25028802D01*
X92407239Y-24999000D01*
X92712761Y-24999000D01*
X92862585Y-25028802D01*
G37*
G36*
X44432585Y-22288802D02*
G01*
X44582410Y-22318604D01*
X44864674Y-22435521D01*
X45118705Y-22605259D01*
X45334741Y-22821295D01*
X45504479Y-23075326D01*
X45621396Y-23357590D01*
X45681000Y-23657240D01*
X45681000Y-23962760D01*
X45621396Y-24262410D01*
X45504479Y-24544674D01*
X45334741Y-24798705D01*
X45118705Y-25014741D01*
X44864674Y-25184479D01*
X44582410Y-25301396D01*
X44432585Y-25331198D01*
X44282761Y-25361000D01*
X43977239Y-25361000D01*
X43827415Y-25331198D01*
X43677590Y-25301396D01*
X43395326Y-25184479D01*
X43141295Y-25014741D01*
X42925259Y-24798705D01*
X42755521Y-24544674D01*
X42638604Y-24262410D01*
X42579000Y-23962760D01*
X42579000Y-23657240D01*
X42638604Y-23357590D01*
X42755521Y-23075326D01*
X42925259Y-22821295D01*
X43141295Y-22605259D01*
X43395326Y-22435521D01*
X43677590Y-22318604D01*
X43827415Y-22288802D01*
X43977239Y-22259000D01*
X44282761Y-22259000D01*
X44432585Y-22288802D01*
G37*
G36*
X64752585Y-22288802D02*
G01*
X64902410Y-22318604D01*
X65184674Y-22435521D01*
X65438705Y-22605259D01*
X65654741Y-22821295D01*
X65824479Y-23075326D01*
X65941396Y-23357590D01*
X66001000Y-23657240D01*
X66001000Y-23962760D01*
X65941396Y-24262410D01*
X65824479Y-24544674D01*
X65654741Y-24798705D01*
X65438705Y-25014741D01*
X65184674Y-25184479D01*
X64902410Y-25301396D01*
X64752585Y-25331198D01*
X64602761Y-25361000D01*
X64297239Y-25361000D01*
X64147415Y-25331198D01*
X63997590Y-25301396D01*
X63715326Y-25184479D01*
X63461295Y-25014741D01*
X63245259Y-24798705D01*
X63075521Y-24544674D01*
X62958604Y-24262410D01*
X62899000Y-23962760D01*
X62899000Y-23657240D01*
X62958604Y-23357590D01*
X63075521Y-23075326D01*
X63245259Y-22821295D01*
X63461295Y-22605259D01*
X63715326Y-22435521D01*
X63997590Y-22318604D01*
X64147415Y-22288802D01*
X64297239Y-22259000D01*
X64602761Y-22259000D01*
X64752585Y-22288802D01*
G37*
G36*
X74912585Y-22288802D02*
G01*
X75062410Y-22318604D01*
X75344674Y-22435521D01*
X75598705Y-22605259D01*
X75814741Y-22821295D01*
X75984479Y-23075326D01*
X76101396Y-23357590D01*
X76161000Y-23657240D01*
X76161000Y-23962760D01*
X76101396Y-24262410D01*
X75984479Y-24544674D01*
X75814741Y-24798705D01*
X75598705Y-25014741D01*
X75344674Y-25184479D01*
X75062410Y-25301396D01*
X74912585Y-25331198D01*
X74762761Y-25361000D01*
X74457239Y-25361000D01*
X74307415Y-25331198D01*
X74157590Y-25301396D01*
X73875326Y-25184479D01*
X73621295Y-25014741D01*
X73405259Y-24798705D01*
X73235521Y-24544674D01*
X73118604Y-24262410D01*
X73059000Y-23962760D01*
X73059000Y-23657240D01*
X73118604Y-23357590D01*
X73235521Y-23075326D01*
X73405259Y-22821295D01*
X73621295Y-22605259D01*
X73875326Y-22435521D01*
X74157590Y-22318604D01*
X74307415Y-22288802D01*
X74457239Y-22259000D01*
X74762761Y-22259000D01*
X74912585Y-22288802D01*
G37*
G36*
X85072585Y-22288802D02*
G01*
X85222410Y-22318604D01*
X85504674Y-22435521D01*
X85758705Y-22605259D01*
X85974741Y-22821295D01*
X86144479Y-23075326D01*
X86261396Y-23357590D01*
X86321000Y-23657240D01*
X86321000Y-23962760D01*
X86261396Y-24262410D01*
X86144479Y-24544674D01*
X85974741Y-24798705D01*
X85758705Y-25014741D01*
X85504674Y-25184479D01*
X85222410Y-25301396D01*
X85072585Y-25331198D01*
X84922761Y-25361000D01*
X84617239Y-25361000D01*
X84467415Y-25331198D01*
X84317590Y-25301396D01*
X84035326Y-25184479D01*
X83781295Y-25014741D01*
X83565259Y-24798705D01*
X83395521Y-24544674D01*
X83278604Y-24262410D01*
X83219000Y-23962760D01*
X83219000Y-23657240D01*
X83278604Y-23357590D01*
X83395521Y-23075326D01*
X83565259Y-22821295D01*
X83781295Y-22605259D01*
X84035326Y-22435521D01*
X84317590Y-22318604D01*
X84467415Y-22288802D01*
X84617239Y-22259000D01*
X84922761Y-22259000D01*
X85072585Y-22288802D01*
G37*
G36*
X105392585Y-22288802D02*
G01*
X105542410Y-22318604D01*
X105824674Y-22435521D01*
X106078705Y-22605259D01*
X106294741Y-22821295D01*
X106464479Y-23075326D01*
X106581396Y-23357590D01*
X106641000Y-23657240D01*
X106641000Y-23962760D01*
X106581396Y-24262410D01*
X106464479Y-24544674D01*
X106294741Y-24798705D01*
X106078705Y-25014741D01*
X105824674Y-25184479D01*
X105542410Y-25301396D01*
X105392585Y-25331198D01*
X105242761Y-25361000D01*
X104937239Y-25361000D01*
X104787415Y-25331198D01*
X104637590Y-25301396D01*
X104355326Y-25184479D01*
X104101295Y-25014741D01*
X103885259Y-24798705D01*
X103715521Y-24544674D01*
X103598604Y-24262410D01*
X103539000Y-23962760D01*
X103539000Y-23657240D01*
X103598604Y-23357590D01*
X103715521Y-23075326D01*
X103885259Y-22821295D01*
X104101295Y-22605259D01*
X104355326Y-22435521D01*
X104637590Y-22318604D01*
X104787415Y-22288802D01*
X104937239Y-22259000D01*
X105242761Y-22259000D01*
X105392585Y-22288802D01*
G37*
G36*
X34272585Y-22288802D02*
G01*
X34422410Y-22318604D01*
X34704674Y-22435521D01*
X34958705Y-22605259D01*
X35174741Y-22821295D01*
X35344479Y-23075326D01*
X35461396Y-23357590D01*
X35521000Y-23657240D01*
X35521000Y-23962760D01*
X35461396Y-24262410D01*
X35344479Y-24544674D01*
X35174741Y-24798705D01*
X34958705Y-25014741D01*
X34704674Y-25184479D01*
X34422410Y-25301396D01*
X34272585Y-25331198D01*
X34122761Y-25361000D01*
X33817239Y-25361000D01*
X33667415Y-25331198D01*
X33517590Y-25301396D01*
X33235326Y-25184479D01*
X32981295Y-25014741D01*
X32765259Y-24798705D01*
X32595521Y-24544674D01*
X32478604Y-24262410D01*
X32419000Y-23962760D01*
X32419000Y-23657240D01*
X32478604Y-23357590D01*
X32595521Y-23075326D01*
X32765259Y-22821295D01*
X32981295Y-22605259D01*
X33235326Y-22435521D01*
X33517590Y-22318604D01*
X33667415Y-22288802D01*
X33817239Y-22259000D01*
X34122761Y-22259000D01*
X34272585Y-22288802D01*
G37*
G36*
X54592585Y-22288802D02*
G01*
X54742410Y-22318604D01*
X55024674Y-22435521D01*
X55278705Y-22605259D01*
X55494741Y-22821295D01*
X55664479Y-23075326D01*
X55781396Y-23357590D01*
X55841000Y-23657240D01*
X55841000Y-23962760D01*
X55781396Y-24262410D01*
X55664479Y-24544674D01*
X55494741Y-24798705D01*
X55278705Y-25014741D01*
X55024674Y-25184479D01*
X54742410Y-25301396D01*
X54592585Y-25331198D01*
X54442761Y-25361000D01*
X54137239Y-25361000D01*
X53987415Y-25331198D01*
X53837590Y-25301396D01*
X53555326Y-25184479D01*
X53301295Y-25014741D01*
X53085259Y-24798705D01*
X52915521Y-24544674D01*
X52798604Y-24262410D01*
X52739000Y-23962760D01*
X52739000Y-23657240D01*
X52798604Y-23357590D01*
X52915521Y-23075326D01*
X53085259Y-22821295D01*
X53301295Y-22605259D01*
X53555326Y-22435521D01*
X53837590Y-22318604D01*
X53987415Y-22288802D01*
X54137239Y-22259000D01*
X54442761Y-22259000D01*
X54592585Y-22288802D01*
G37*
M02*
