G04 #@! TF.GenerationSoftware,KiCad,Pcbnew,5.1.5-52549c5~86~ubuntu18.04.1*
G04 #@! TF.CreationDate,2020-09-23T16:05:52-05:00*
G04 #@! TF.ProjectId,C08,4330382e-6b69-4636-9164-5f7063625858,rev?*
G04 #@! TF.SameCoordinates,Original*
G04 #@! TF.FileFunction,Copper,L1,Top*
G04 #@! TF.FilePolarity,Positive*
%FSLAX46Y46*%
G04 Gerber Fmt 4.6, Leading zero omitted, Abs format (unit mm)*
G04 Created by KiCad (PCBNEW 5.1.5-52549c5~86~ubuntu18.04.1) date 2020-09-23 16:05:52*
%MOMM*%
%LPD*%
G04 APERTURE LIST*
%ADD10C,0.250000*%
%ADD11C,0.010000*%
%ADD12O,1.700000X1.700000*%
%ADD13C,1.700000*%
%ADD14C,2.400000*%
%ADD15C,2.499360*%
%ADD16C,0.750000*%
%ADD17C,0.254000*%
G04 APERTURE END LIST*
D10*
X64457866Y-49937942D02*
X64410247Y-49985561D01*
X64267390Y-50033180D01*
X64172152Y-50033180D01*
X64029295Y-49985561D01*
X63934057Y-49890323D01*
X63886438Y-49795085D01*
X63838819Y-49604609D01*
X63838819Y-49461752D01*
X63886438Y-49271276D01*
X63934057Y-49176038D01*
X64029295Y-49080800D01*
X64172152Y-49033180D01*
X64267390Y-49033180D01*
X64410247Y-49080800D01*
X64457866Y-49128419D01*
X65076914Y-49033180D02*
X65172152Y-49033180D01*
X65267390Y-49080800D01*
X65315009Y-49128419D01*
X65362628Y-49223657D01*
X65410247Y-49414133D01*
X65410247Y-49652228D01*
X65362628Y-49842704D01*
X65315009Y-49937942D01*
X65267390Y-49985561D01*
X65172152Y-50033180D01*
X65076914Y-50033180D01*
X64981676Y-49985561D01*
X64934057Y-49937942D01*
X64886438Y-49842704D01*
X64838819Y-49652228D01*
X64838819Y-49414133D01*
X64886438Y-49223657D01*
X64934057Y-49128419D01*
X64981676Y-49080800D01*
X65076914Y-49033180D01*
X65981676Y-49461752D02*
X65886438Y-49414133D01*
X65838819Y-49366514D01*
X65791200Y-49271276D01*
X65791200Y-49223657D01*
X65838819Y-49128419D01*
X65886438Y-49080800D01*
X65981676Y-49033180D01*
X66172152Y-49033180D01*
X66267390Y-49080800D01*
X66315009Y-49128419D01*
X66362628Y-49223657D01*
X66362628Y-49271276D01*
X66315009Y-49366514D01*
X66267390Y-49414133D01*
X66172152Y-49461752D01*
X65981676Y-49461752D01*
X65886438Y-49509371D01*
X65838819Y-49556990D01*
X65791200Y-49652228D01*
X65791200Y-49842704D01*
X65838819Y-49937942D01*
X65886438Y-49985561D01*
X65981676Y-50033180D01*
X66172152Y-50033180D01*
X66267390Y-49985561D01*
X66315009Y-49937942D01*
X66362628Y-49842704D01*
X66362628Y-49652228D01*
X66315009Y-49556990D01*
X66267390Y-49509371D01*
X66172152Y-49461752D01*
X66553104Y-50128419D02*
X67315009Y-50128419D01*
X67886438Y-49509371D02*
X68029295Y-49556990D01*
X68076914Y-49604609D01*
X68124533Y-49699847D01*
X68124533Y-49842704D01*
X68076914Y-49937942D01*
X68029295Y-49985561D01*
X67934057Y-50033180D01*
X67553104Y-50033180D01*
X67553104Y-49033180D01*
X67886438Y-49033180D01*
X67981676Y-49080800D01*
X68029295Y-49128419D01*
X68076914Y-49223657D01*
X68076914Y-49318895D01*
X68029295Y-49414133D01*
X67981676Y-49461752D01*
X67886438Y-49509371D01*
X67553104Y-49509371D01*
X69124533Y-50033180D02*
X68791200Y-49556990D01*
X68553104Y-50033180D02*
X68553104Y-49033180D01*
X68934057Y-49033180D01*
X69029295Y-49080800D01*
X69076914Y-49128419D01*
X69124533Y-49223657D01*
X69124533Y-49366514D01*
X69076914Y-49461752D01*
X69029295Y-49509371D01*
X68934057Y-49556990D01*
X68553104Y-49556990D01*
X69553104Y-49509371D02*
X69886438Y-49509371D01*
X70029295Y-50033180D02*
X69553104Y-50033180D01*
X69553104Y-49033180D01*
X70029295Y-49033180D01*
X70410247Y-49747466D02*
X70886438Y-49747466D01*
X70315009Y-50033180D02*
X70648342Y-49033180D01*
X70981676Y-50033180D01*
X71315009Y-50033180D02*
X71315009Y-49033180D01*
X71886438Y-50033180D02*
X71457866Y-49461752D01*
X71886438Y-49033180D02*
X71315009Y-49604609D01*
X72505485Y-49033180D02*
X72695961Y-49033180D01*
X72791200Y-49080800D01*
X72886438Y-49176038D01*
X72934057Y-49366514D01*
X72934057Y-49699847D01*
X72886438Y-49890323D01*
X72791200Y-49985561D01*
X72695961Y-50033180D01*
X72505485Y-50033180D01*
X72410247Y-49985561D01*
X72315009Y-49890323D01*
X72267390Y-49699847D01*
X72267390Y-49366514D01*
X72315009Y-49176038D01*
X72410247Y-49080800D01*
X72505485Y-49033180D01*
X73362628Y-49033180D02*
X73362628Y-49842704D01*
X73410247Y-49937942D01*
X73457866Y-49985561D01*
X73553104Y-50033180D01*
X73743580Y-50033180D01*
X73838819Y-49985561D01*
X73886438Y-49937942D01*
X73934057Y-49842704D01*
X73934057Y-49033180D01*
X74267390Y-49033180D02*
X74838819Y-49033180D01*
X74553104Y-50033180D02*
X74553104Y-49033180D01*
D11*
G36*
X68958014Y-35873731D02*
G01*
X69041835Y-36318355D01*
X69351120Y-36445853D01*
X69660406Y-36573351D01*
X70031446Y-36321046D01*
X70135357Y-36250796D01*
X70229287Y-36188072D01*
X70308852Y-36135738D01*
X70369670Y-36096657D01*
X70407357Y-36073693D01*
X70417621Y-36068742D01*
X70436110Y-36081476D01*
X70475620Y-36116682D01*
X70531722Y-36169862D01*
X70599987Y-36236518D01*
X70675986Y-36312154D01*
X70755292Y-36392272D01*
X70833475Y-36472374D01*
X70906107Y-36547964D01*
X70968759Y-36614545D01*
X71017003Y-36667618D01*
X71046410Y-36702687D01*
X71053441Y-36714423D01*
X71043323Y-36736060D01*
X71014959Y-36783462D01*
X70971329Y-36851993D01*
X70915418Y-36937015D01*
X70850206Y-37033893D01*
X70812419Y-37089150D01*
X70743543Y-37190048D01*
X70682340Y-37281099D01*
X70631778Y-37357770D01*
X70594828Y-37415528D01*
X70574458Y-37449843D01*
X70571397Y-37457054D01*
X70578336Y-37477548D01*
X70597251Y-37525313D01*
X70625287Y-37593632D01*
X70659591Y-37675789D01*
X70697309Y-37765070D01*
X70735587Y-37854758D01*
X70771570Y-37938138D01*
X70802406Y-38008494D01*
X70825239Y-38059110D01*
X70837217Y-38083271D01*
X70837924Y-38084222D01*
X70856731Y-38088836D01*
X70906818Y-38099128D01*
X70982993Y-38114087D01*
X71080065Y-38132701D01*
X71192843Y-38153959D01*
X71258642Y-38166218D01*
X71379150Y-38189162D01*
X71487997Y-38210995D01*
X71579676Y-38230522D01*
X71648681Y-38246548D01*
X71689504Y-38257879D01*
X71697711Y-38261474D01*
X71705748Y-38285806D01*
X71712233Y-38340759D01*
X71717170Y-38419908D01*
X71720564Y-38516826D01*
X71722418Y-38625087D01*
X71722738Y-38738265D01*
X71721527Y-38849935D01*
X71718790Y-38953668D01*
X71714531Y-39043041D01*
X71708755Y-39111626D01*
X71701467Y-39152997D01*
X71697095Y-39161610D01*
X71670964Y-39171933D01*
X71615593Y-39186692D01*
X71538307Y-39204152D01*
X71446430Y-39222580D01*
X71414358Y-39228541D01*
X71259724Y-39256866D01*
X71137575Y-39279676D01*
X71043873Y-39297880D01*
X70974584Y-39312383D01*
X70925671Y-39324092D01*
X70893097Y-39333915D01*
X70872828Y-39342756D01*
X70860826Y-39351524D01*
X70859147Y-39353257D01*
X70842384Y-39381171D01*
X70816814Y-39435495D01*
X70784988Y-39509577D01*
X70749460Y-39596765D01*
X70712783Y-39690408D01*
X70677511Y-39783852D01*
X70646196Y-39870447D01*
X70621393Y-39943540D01*
X70605654Y-39996478D01*
X70601532Y-40022611D01*
X70601876Y-40023526D01*
X70615841Y-40044886D01*
X70647522Y-40091884D01*
X70693591Y-40159627D01*
X70750718Y-40243223D01*
X70815573Y-40337782D01*
X70834043Y-40364654D01*
X70899899Y-40462075D01*
X70957850Y-40550963D01*
X71004738Y-40626212D01*
X71037407Y-40682720D01*
X71052700Y-40715381D01*
X71053441Y-40719393D01*
X71040592Y-40740484D01*
X71005088Y-40782264D01*
X70951493Y-40840245D01*
X70884371Y-40909935D01*
X70808287Y-40986845D01*
X70727804Y-41066483D01*
X70647487Y-41144361D01*
X70571899Y-41215986D01*
X70505605Y-41276870D01*
X70453169Y-41322521D01*
X70419155Y-41348450D01*
X70409745Y-41352683D01*
X70387843Y-41342712D01*
X70343000Y-41315820D01*
X70282521Y-41276536D01*
X70235989Y-41244917D01*
X70151675Y-41186898D01*
X70051826Y-41118584D01*
X69951673Y-41050379D01*
X69897827Y-41013875D01*
X69715571Y-40890600D01*
X69562581Y-40973320D01*
X69492882Y-41009559D01*
X69433614Y-41037726D01*
X69393511Y-41053791D01*
X69383303Y-41056026D01*
X69371029Y-41039522D01*
X69346813Y-40992882D01*
X69312463Y-40920409D01*
X69269788Y-40826406D01*
X69220594Y-40715174D01*
X69166690Y-40591015D01*
X69109884Y-40458232D01*
X69051982Y-40321127D01*
X68994793Y-40184002D01*
X68940124Y-40051158D01*
X68889784Y-39926898D01*
X68845580Y-39815525D01*
X68809319Y-39721339D01*
X68782809Y-39648644D01*
X68767858Y-39601741D01*
X68765454Y-39585633D01*
X68784511Y-39565086D01*
X68826236Y-39531733D01*
X68881906Y-39492502D01*
X68886578Y-39489399D01*
X69030464Y-39374223D01*
X69146483Y-39239853D01*
X69233630Y-39090584D01*
X69290899Y-38930713D01*
X69317286Y-38764537D01*
X69311785Y-38596352D01*
X69273390Y-38430455D01*
X69201095Y-38271142D01*
X69179826Y-38236287D01*
X69069196Y-38095537D01*
X68938502Y-37982514D01*
X68792264Y-37897803D01*
X68635008Y-37841994D01*
X68471257Y-37815674D01*
X68305533Y-37819430D01*
X68142362Y-37853850D01*
X67986265Y-37919523D01*
X67841767Y-38017035D01*
X67797069Y-38056613D01*
X67683312Y-38180503D01*
X67600418Y-38310924D01*
X67543556Y-38457115D01*
X67511887Y-38601888D01*
X67504069Y-38764660D01*
X67530138Y-38928240D01*
X67587445Y-39087098D01*
X67673344Y-39235706D01*
X67785186Y-39368535D01*
X67920323Y-39480056D01*
X67938083Y-39491811D01*
X67994350Y-39530308D01*
X68037123Y-39563663D01*
X68057572Y-39584960D01*
X68057869Y-39585633D01*
X68053479Y-39608671D01*
X68036076Y-39660957D01*
X68007468Y-39738190D01*
X67969465Y-39836068D01*
X67923874Y-39950291D01*
X67872503Y-40076558D01*
X67817162Y-40210567D01*
X67759658Y-40348018D01*
X67701801Y-40484608D01*
X67645398Y-40616037D01*
X67592258Y-40738005D01*
X67544190Y-40846209D01*
X67503001Y-40936349D01*
X67470501Y-41004123D01*
X67448497Y-41045230D01*
X67439636Y-41056026D01*
X67412560Y-41047619D01*
X67361897Y-41025072D01*
X67296383Y-40992413D01*
X67260359Y-40973320D01*
X67107368Y-40890600D01*
X66925112Y-41013875D01*
X66832075Y-41077028D01*
X66730215Y-41146527D01*
X66634762Y-41211965D01*
X66586950Y-41244917D01*
X66519705Y-41290073D01*
X66462764Y-41325857D01*
X66423554Y-41347738D01*
X66410819Y-41352363D01*
X66392283Y-41339885D01*
X66351259Y-41305052D01*
X66291725Y-41251478D01*
X66217658Y-41182783D01*
X66133035Y-41102581D01*
X66079515Y-41051086D01*
X65985881Y-40959086D01*
X65904959Y-40876799D01*
X65840023Y-40807745D01*
X65794342Y-40755444D01*
X65771189Y-40723416D01*
X65768968Y-40716916D01*
X65779276Y-40692194D01*
X65807761Y-40642205D01*
X65851263Y-40572012D01*
X65906623Y-40486675D01*
X65970680Y-40391256D01*
X65988897Y-40364654D01*
X66055273Y-40267967D01*
X66114822Y-40180917D01*
X66164216Y-40108395D01*
X66200125Y-40055293D01*
X66219219Y-40026503D01*
X66221064Y-40023526D01*
X66218305Y-40000582D01*
X66203662Y-39950136D01*
X66179687Y-39878841D01*
X66148934Y-39793347D01*
X66113956Y-39700307D01*
X66077307Y-39606374D01*
X66041539Y-39518199D01*
X66009206Y-39442434D01*
X65982862Y-39385731D01*
X65965058Y-39354743D01*
X65963793Y-39353257D01*
X65952906Y-39344401D01*
X65934518Y-39335643D01*
X65904594Y-39326077D01*
X65859097Y-39314796D01*
X65793991Y-39300893D01*
X65705239Y-39283463D01*
X65588807Y-39261598D01*
X65440658Y-39234391D01*
X65408582Y-39228541D01*
X65313514Y-39210174D01*
X65230635Y-39192205D01*
X65167270Y-39176369D01*
X65130742Y-39164400D01*
X65125844Y-39161610D01*
X65117773Y-39136872D01*
X65111213Y-39081590D01*
X65106167Y-39002189D01*
X65102641Y-38905096D01*
X65100639Y-38796738D01*
X65100164Y-38683540D01*
X65101223Y-38571928D01*
X65103818Y-38468329D01*
X65107954Y-38379168D01*
X65113637Y-38310872D01*
X65120869Y-38269866D01*
X65125229Y-38261474D01*
X65149502Y-38253008D01*
X65204774Y-38239235D01*
X65285538Y-38221350D01*
X65386288Y-38200548D01*
X65501517Y-38178023D01*
X65564298Y-38166218D01*
X65683413Y-38143951D01*
X65789635Y-38123779D01*
X65877773Y-38106715D01*
X65942634Y-38093769D01*
X65979026Y-38085955D01*
X65985016Y-38084222D01*
X65995139Y-38064690D01*
X66016538Y-38017643D01*
X66046361Y-37949803D01*
X66081755Y-37867891D01*
X66119868Y-37778628D01*
X66157847Y-37688735D01*
X66192840Y-37604935D01*
X66221994Y-37533947D01*
X66242457Y-37482494D01*
X66251377Y-37457297D01*
X66251543Y-37456196D01*
X66241431Y-37436319D01*
X66213083Y-37390577D01*
X66169477Y-37323517D01*
X66113594Y-37239684D01*
X66048413Y-37143626D01*
X66010521Y-37088450D01*
X65941475Y-36987281D01*
X65880150Y-36895430D01*
X65829537Y-36817544D01*
X65792629Y-36758269D01*
X65772418Y-36722251D01*
X65769499Y-36714177D01*
X65782047Y-36695384D01*
X65816737Y-36655257D01*
X65869137Y-36598293D01*
X65934816Y-36528985D01*
X66009344Y-36451831D01*
X66088287Y-36371325D01*
X66167217Y-36291963D01*
X66241700Y-36218240D01*
X66307306Y-36154652D01*
X66359604Y-36105694D01*
X66394161Y-36075861D01*
X66405722Y-36068742D01*
X66424546Y-36078753D01*
X66469569Y-36106878D01*
X66536413Y-36150254D01*
X66620701Y-36206018D01*
X66718056Y-36271306D01*
X66791493Y-36321046D01*
X67162533Y-36573351D01*
X67781105Y-36318355D01*
X67864925Y-35873731D01*
X67948746Y-35429107D01*
X68874194Y-35429107D01*
X68958014Y-35873731D01*
G37*
X68958014Y-35873731D02*
X69041835Y-36318355D01*
X69351120Y-36445853D01*
X69660406Y-36573351D01*
X70031446Y-36321046D01*
X70135357Y-36250796D01*
X70229287Y-36188072D01*
X70308852Y-36135738D01*
X70369670Y-36096657D01*
X70407357Y-36073693D01*
X70417621Y-36068742D01*
X70436110Y-36081476D01*
X70475620Y-36116682D01*
X70531722Y-36169862D01*
X70599987Y-36236518D01*
X70675986Y-36312154D01*
X70755292Y-36392272D01*
X70833475Y-36472374D01*
X70906107Y-36547964D01*
X70968759Y-36614545D01*
X71017003Y-36667618D01*
X71046410Y-36702687D01*
X71053441Y-36714423D01*
X71043323Y-36736060D01*
X71014959Y-36783462D01*
X70971329Y-36851993D01*
X70915418Y-36937015D01*
X70850206Y-37033893D01*
X70812419Y-37089150D01*
X70743543Y-37190048D01*
X70682340Y-37281099D01*
X70631778Y-37357770D01*
X70594828Y-37415528D01*
X70574458Y-37449843D01*
X70571397Y-37457054D01*
X70578336Y-37477548D01*
X70597251Y-37525313D01*
X70625287Y-37593632D01*
X70659591Y-37675789D01*
X70697309Y-37765070D01*
X70735587Y-37854758D01*
X70771570Y-37938138D01*
X70802406Y-38008494D01*
X70825239Y-38059110D01*
X70837217Y-38083271D01*
X70837924Y-38084222D01*
X70856731Y-38088836D01*
X70906818Y-38099128D01*
X70982993Y-38114087D01*
X71080065Y-38132701D01*
X71192843Y-38153959D01*
X71258642Y-38166218D01*
X71379150Y-38189162D01*
X71487997Y-38210995D01*
X71579676Y-38230522D01*
X71648681Y-38246548D01*
X71689504Y-38257879D01*
X71697711Y-38261474D01*
X71705748Y-38285806D01*
X71712233Y-38340759D01*
X71717170Y-38419908D01*
X71720564Y-38516826D01*
X71722418Y-38625087D01*
X71722738Y-38738265D01*
X71721527Y-38849935D01*
X71718790Y-38953668D01*
X71714531Y-39043041D01*
X71708755Y-39111626D01*
X71701467Y-39152997D01*
X71697095Y-39161610D01*
X71670964Y-39171933D01*
X71615593Y-39186692D01*
X71538307Y-39204152D01*
X71446430Y-39222580D01*
X71414358Y-39228541D01*
X71259724Y-39256866D01*
X71137575Y-39279676D01*
X71043873Y-39297880D01*
X70974584Y-39312383D01*
X70925671Y-39324092D01*
X70893097Y-39333915D01*
X70872828Y-39342756D01*
X70860826Y-39351524D01*
X70859147Y-39353257D01*
X70842384Y-39381171D01*
X70816814Y-39435495D01*
X70784988Y-39509577D01*
X70749460Y-39596765D01*
X70712783Y-39690408D01*
X70677511Y-39783852D01*
X70646196Y-39870447D01*
X70621393Y-39943540D01*
X70605654Y-39996478D01*
X70601532Y-40022611D01*
X70601876Y-40023526D01*
X70615841Y-40044886D01*
X70647522Y-40091884D01*
X70693591Y-40159627D01*
X70750718Y-40243223D01*
X70815573Y-40337782D01*
X70834043Y-40364654D01*
X70899899Y-40462075D01*
X70957850Y-40550963D01*
X71004738Y-40626212D01*
X71037407Y-40682720D01*
X71052700Y-40715381D01*
X71053441Y-40719393D01*
X71040592Y-40740484D01*
X71005088Y-40782264D01*
X70951493Y-40840245D01*
X70884371Y-40909935D01*
X70808287Y-40986845D01*
X70727804Y-41066483D01*
X70647487Y-41144361D01*
X70571899Y-41215986D01*
X70505605Y-41276870D01*
X70453169Y-41322521D01*
X70419155Y-41348450D01*
X70409745Y-41352683D01*
X70387843Y-41342712D01*
X70343000Y-41315820D01*
X70282521Y-41276536D01*
X70235989Y-41244917D01*
X70151675Y-41186898D01*
X70051826Y-41118584D01*
X69951673Y-41050379D01*
X69897827Y-41013875D01*
X69715571Y-40890600D01*
X69562581Y-40973320D01*
X69492882Y-41009559D01*
X69433614Y-41037726D01*
X69393511Y-41053791D01*
X69383303Y-41056026D01*
X69371029Y-41039522D01*
X69346813Y-40992882D01*
X69312463Y-40920409D01*
X69269788Y-40826406D01*
X69220594Y-40715174D01*
X69166690Y-40591015D01*
X69109884Y-40458232D01*
X69051982Y-40321127D01*
X68994793Y-40184002D01*
X68940124Y-40051158D01*
X68889784Y-39926898D01*
X68845580Y-39815525D01*
X68809319Y-39721339D01*
X68782809Y-39648644D01*
X68767858Y-39601741D01*
X68765454Y-39585633D01*
X68784511Y-39565086D01*
X68826236Y-39531733D01*
X68881906Y-39492502D01*
X68886578Y-39489399D01*
X69030464Y-39374223D01*
X69146483Y-39239853D01*
X69233630Y-39090584D01*
X69290899Y-38930713D01*
X69317286Y-38764537D01*
X69311785Y-38596352D01*
X69273390Y-38430455D01*
X69201095Y-38271142D01*
X69179826Y-38236287D01*
X69069196Y-38095537D01*
X68938502Y-37982514D01*
X68792264Y-37897803D01*
X68635008Y-37841994D01*
X68471257Y-37815674D01*
X68305533Y-37819430D01*
X68142362Y-37853850D01*
X67986265Y-37919523D01*
X67841767Y-38017035D01*
X67797069Y-38056613D01*
X67683312Y-38180503D01*
X67600418Y-38310924D01*
X67543556Y-38457115D01*
X67511887Y-38601888D01*
X67504069Y-38764660D01*
X67530138Y-38928240D01*
X67587445Y-39087098D01*
X67673344Y-39235706D01*
X67785186Y-39368535D01*
X67920323Y-39480056D01*
X67938083Y-39491811D01*
X67994350Y-39530308D01*
X68037123Y-39563663D01*
X68057572Y-39584960D01*
X68057869Y-39585633D01*
X68053479Y-39608671D01*
X68036076Y-39660957D01*
X68007468Y-39738190D01*
X67969465Y-39836068D01*
X67923874Y-39950291D01*
X67872503Y-40076558D01*
X67817162Y-40210567D01*
X67759658Y-40348018D01*
X67701801Y-40484608D01*
X67645398Y-40616037D01*
X67592258Y-40738005D01*
X67544190Y-40846209D01*
X67503001Y-40936349D01*
X67470501Y-41004123D01*
X67448497Y-41045230D01*
X67439636Y-41056026D01*
X67412560Y-41047619D01*
X67361897Y-41025072D01*
X67296383Y-40992413D01*
X67260359Y-40973320D01*
X67107368Y-40890600D01*
X66925112Y-41013875D01*
X66832075Y-41077028D01*
X66730215Y-41146527D01*
X66634762Y-41211965D01*
X66586950Y-41244917D01*
X66519705Y-41290073D01*
X66462764Y-41325857D01*
X66423554Y-41347738D01*
X66410819Y-41352363D01*
X66392283Y-41339885D01*
X66351259Y-41305052D01*
X66291725Y-41251478D01*
X66217658Y-41182783D01*
X66133035Y-41102581D01*
X66079515Y-41051086D01*
X65985881Y-40959086D01*
X65904959Y-40876799D01*
X65840023Y-40807745D01*
X65794342Y-40755444D01*
X65771189Y-40723416D01*
X65768968Y-40716916D01*
X65779276Y-40692194D01*
X65807761Y-40642205D01*
X65851263Y-40572012D01*
X65906623Y-40486675D01*
X65970680Y-40391256D01*
X65988897Y-40364654D01*
X66055273Y-40267967D01*
X66114822Y-40180917D01*
X66164216Y-40108395D01*
X66200125Y-40055293D01*
X66219219Y-40026503D01*
X66221064Y-40023526D01*
X66218305Y-40000582D01*
X66203662Y-39950136D01*
X66179687Y-39878841D01*
X66148934Y-39793347D01*
X66113956Y-39700307D01*
X66077307Y-39606374D01*
X66041539Y-39518199D01*
X66009206Y-39442434D01*
X65982862Y-39385731D01*
X65965058Y-39354743D01*
X65963793Y-39353257D01*
X65952906Y-39344401D01*
X65934518Y-39335643D01*
X65904594Y-39326077D01*
X65859097Y-39314796D01*
X65793991Y-39300893D01*
X65705239Y-39283463D01*
X65588807Y-39261598D01*
X65440658Y-39234391D01*
X65408582Y-39228541D01*
X65313514Y-39210174D01*
X65230635Y-39192205D01*
X65167270Y-39176369D01*
X65130742Y-39164400D01*
X65125844Y-39161610D01*
X65117773Y-39136872D01*
X65111213Y-39081590D01*
X65106167Y-39002189D01*
X65102641Y-38905096D01*
X65100639Y-38796738D01*
X65100164Y-38683540D01*
X65101223Y-38571928D01*
X65103818Y-38468329D01*
X65107954Y-38379168D01*
X65113637Y-38310872D01*
X65120869Y-38269866D01*
X65125229Y-38261474D01*
X65149502Y-38253008D01*
X65204774Y-38239235D01*
X65285538Y-38221350D01*
X65386288Y-38200548D01*
X65501517Y-38178023D01*
X65564298Y-38166218D01*
X65683413Y-38143951D01*
X65789635Y-38123779D01*
X65877773Y-38106715D01*
X65942634Y-38093769D01*
X65979026Y-38085955D01*
X65985016Y-38084222D01*
X65995139Y-38064690D01*
X66016538Y-38017643D01*
X66046361Y-37949803D01*
X66081755Y-37867891D01*
X66119868Y-37778628D01*
X66157847Y-37688735D01*
X66192840Y-37604935D01*
X66221994Y-37533947D01*
X66242457Y-37482494D01*
X66251377Y-37457297D01*
X66251543Y-37456196D01*
X66241431Y-37436319D01*
X66213083Y-37390577D01*
X66169477Y-37323517D01*
X66113594Y-37239684D01*
X66048413Y-37143626D01*
X66010521Y-37088450D01*
X65941475Y-36987281D01*
X65880150Y-36895430D01*
X65829537Y-36817544D01*
X65792629Y-36758269D01*
X65772418Y-36722251D01*
X65769499Y-36714177D01*
X65782047Y-36695384D01*
X65816737Y-36655257D01*
X65869137Y-36598293D01*
X65934816Y-36528985D01*
X66009344Y-36451831D01*
X66088287Y-36371325D01*
X66167217Y-36291963D01*
X66241700Y-36218240D01*
X66307306Y-36154652D01*
X66359604Y-36105694D01*
X66394161Y-36075861D01*
X66405722Y-36068742D01*
X66424546Y-36078753D01*
X66469569Y-36106878D01*
X66536413Y-36150254D01*
X66620701Y-36206018D01*
X66718056Y-36271306D01*
X66791493Y-36321046D01*
X67162533Y-36573351D01*
X67781105Y-36318355D01*
X67864925Y-35873731D01*
X67948746Y-35429107D01*
X68874194Y-35429107D01*
X68958014Y-35873731D01*
D12*
X31430000Y-55560000D03*
X33970000Y-55560000D03*
X36510000Y-55560000D03*
X39050000Y-55560000D03*
X41590000Y-55560000D03*
X44130000Y-55560000D03*
X46670000Y-55560000D03*
X49210000Y-55560000D03*
X51750000Y-55560000D03*
X54290000Y-55560000D03*
X56830000Y-55560000D03*
X59370000Y-55560000D03*
X61910000Y-55560000D03*
X64450000Y-55560000D03*
D13*
X66990000Y-55560000D03*
D12*
X31430000Y-32700000D03*
X33970000Y-32700000D03*
X36510000Y-32700000D03*
X39050000Y-32700000D03*
X41590000Y-32700000D03*
X44130000Y-32700000D03*
X46670000Y-32700000D03*
X49210000Y-32700000D03*
X51750000Y-32700000D03*
X54290000Y-32700000D03*
X56830000Y-32700000D03*
X59370000Y-32700000D03*
X61910000Y-32700000D03*
X64450000Y-32700000D03*
D13*
X66990000Y-32700000D03*
D14*
X73710000Y-64079200D03*
X70210000Y-64079200D03*
X66710000Y-64079200D03*
X63210000Y-64079200D03*
X59710000Y-64079200D03*
D12*
X31430000Y-58100000D03*
X33970000Y-58100000D03*
X36510000Y-58100000D03*
X39050000Y-58100000D03*
X41590000Y-58100000D03*
X44130000Y-58100000D03*
X46670000Y-58100000D03*
X49210000Y-58100000D03*
X51750000Y-58100000D03*
X54290000Y-58100000D03*
X56830000Y-58100000D03*
X59370000Y-58100000D03*
X61910000Y-58100000D03*
X64450000Y-58100000D03*
D13*
X66990000Y-58100000D03*
D12*
X31430000Y-30160000D03*
X33970000Y-30160000D03*
X36510000Y-30160000D03*
X39050000Y-30160000D03*
X41590000Y-30160000D03*
X44130000Y-30160000D03*
X46670000Y-30160000D03*
X49210000Y-30160000D03*
X51750000Y-30160000D03*
X54290000Y-30160000D03*
X56830000Y-30160000D03*
X59370000Y-30160000D03*
X61910000Y-30160000D03*
X64450000Y-30160000D03*
D13*
X66990000Y-30160000D03*
D14*
X59710000Y-24180800D03*
X63210000Y-24180800D03*
X66710000Y-24180800D03*
X70210000Y-24180800D03*
X73710000Y-24180800D03*
X56210000Y-64079200D03*
X52710000Y-64079200D03*
X49210000Y-64079200D03*
X45710000Y-64079200D03*
X42210000Y-64079200D03*
X38710000Y-64079200D03*
X35210000Y-64079200D03*
X31710000Y-64079200D03*
X28210000Y-64079200D03*
X24710000Y-64079200D03*
X56210000Y-24180800D03*
X52710000Y-24180800D03*
X49210000Y-24180800D03*
X45710000Y-24180800D03*
X42210000Y-24180800D03*
X38710000Y-24180800D03*
X35210000Y-24180800D03*
X31710000Y-24180800D03*
X28210000Y-24180800D03*
X24710000Y-24180800D03*
D15*
X59370000Y-49210000D03*
X59370000Y-39050000D03*
X39050000Y-39050000D03*
X39050000Y-49210000D03*
D16*
X54290000Y-32700000D02*
X54290000Y-30160000D01*
X54290000Y-26100800D02*
X56210000Y-24180800D01*
X54290000Y-30160000D02*
X54290000Y-26100800D01*
X51750000Y-32700000D02*
X51750000Y-30160000D01*
X51750000Y-25140800D02*
X52710000Y-24180800D01*
X51750000Y-30160000D02*
X51750000Y-25140800D01*
X49210000Y-32700000D02*
X49210000Y-30160000D01*
X49210000Y-30160000D02*
X49210000Y-24180800D01*
X46670000Y-32700000D02*
X46670000Y-30160000D01*
X46670000Y-25140800D02*
X45710000Y-24180800D01*
X46670000Y-30160000D02*
X46670000Y-25140800D01*
X44130000Y-32700000D02*
X44130000Y-30160000D01*
X44130000Y-26100800D02*
X42210000Y-24180800D01*
X44130000Y-30160000D02*
X44130000Y-26100800D01*
X41590000Y-32700000D02*
X41590000Y-30160000D01*
X41590000Y-27060800D02*
X38710000Y-24180800D01*
X41590000Y-30160000D02*
X41590000Y-27060800D01*
X39050000Y-28020800D02*
X39050000Y-30160000D01*
X35210000Y-24180800D02*
X39050000Y-28020800D01*
X39050000Y-30160000D02*
X39050000Y-32700000D01*
X36510000Y-32700000D02*
X36510000Y-30160000D01*
X36510000Y-28980800D02*
X36510000Y-30160000D01*
X31710000Y-24180800D02*
X36510000Y-28980800D01*
X33970000Y-29940800D02*
X33970000Y-30160000D01*
X28210000Y-24180800D02*
X33970000Y-29940800D01*
X33970000Y-30160000D02*
X33970000Y-32700000D01*
X31430000Y-30160000D02*
X31430000Y-32700000D01*
X30689200Y-30160000D02*
X31430000Y-30160000D01*
X24710000Y-24180800D02*
X30689200Y-30160000D01*
X56830000Y-32700000D02*
X56830000Y-30160000D01*
X56830000Y-27060800D02*
X59710000Y-24180800D01*
X56830000Y-30160000D02*
X56830000Y-27060800D01*
X59370000Y-32700000D02*
X59370000Y-30160000D01*
X59370000Y-28020800D02*
X63210000Y-24180800D01*
X59370000Y-30160000D02*
X59370000Y-28020800D01*
X61910000Y-32700000D02*
X61910000Y-30160000D01*
X61910000Y-28980800D02*
X61910000Y-30160000D01*
X66710000Y-24180800D02*
X61910000Y-28980800D01*
X64450000Y-32700000D02*
X64450000Y-30160000D01*
X64450000Y-29940800D02*
X64450000Y-30160000D01*
X70210000Y-24180800D02*
X64450000Y-29940800D01*
X66990000Y-32700000D02*
X66990000Y-30160000D01*
X73710000Y-25040000D02*
X73710000Y-24180800D01*
X67730800Y-30160000D02*
X66990000Y-30160000D01*
X73710000Y-24180800D02*
X67730800Y-30160000D01*
X54290000Y-55560000D02*
X54290000Y-58100000D01*
X54290000Y-62159200D02*
X56210000Y-64079200D01*
X54290000Y-58100000D02*
X54290000Y-62159200D01*
X51750000Y-55560000D02*
X51750000Y-58100000D01*
X51750000Y-63119200D02*
X52710000Y-64079200D01*
X51750000Y-58100000D02*
X51750000Y-63119200D01*
X49210000Y-55560000D02*
X49210000Y-58100000D01*
X49210000Y-58100000D02*
X49210000Y-64079200D01*
X46670000Y-55560000D02*
X46670000Y-58100000D01*
X46670000Y-63119200D02*
X45710000Y-64079200D01*
X46670000Y-58100000D02*
X46670000Y-63119200D01*
X44130000Y-55560000D02*
X44130000Y-58100000D01*
X44130000Y-62159200D02*
X42210000Y-64079200D01*
X44130000Y-58100000D02*
X44130000Y-62159200D01*
X41590000Y-55560000D02*
X41590000Y-58100000D01*
X41590000Y-61199200D02*
X38710000Y-64079200D01*
X41590000Y-58100000D02*
X41590000Y-61199200D01*
X39050000Y-55560000D02*
X39050000Y-58100000D01*
X39050000Y-60239200D02*
X39050000Y-58100000D01*
X35210000Y-64079200D02*
X39050000Y-60239200D01*
X36510000Y-55560000D02*
X36510000Y-58100000D01*
X36510000Y-59279200D02*
X36510000Y-58100000D01*
X31710000Y-64079200D02*
X36510000Y-59279200D01*
X33970000Y-58100000D02*
X33970000Y-55560000D01*
X33970000Y-58319200D02*
X33970000Y-58100000D01*
X28210000Y-64079200D02*
X33970000Y-58319200D01*
X31430000Y-55560000D02*
X31430000Y-58100000D01*
X30689200Y-58100000D02*
X31430000Y-58100000D01*
X24710000Y-64079200D02*
X30689200Y-58100000D01*
X66990000Y-55560000D02*
X66990000Y-58100000D01*
X73710000Y-63220000D02*
X73710000Y-64079200D01*
X67730800Y-58100000D02*
X66990000Y-58100000D01*
X73710000Y-64079200D02*
X67730800Y-58100000D01*
X64450000Y-55560000D02*
X64450000Y-58100000D01*
X64450000Y-58319200D02*
X64450000Y-58100000D01*
X70210000Y-64079200D02*
X64450000Y-58319200D01*
X61910000Y-55560000D02*
X61910000Y-58100000D01*
X61910000Y-59279200D02*
X61910000Y-58100000D01*
X66710000Y-64079200D02*
X61910000Y-59279200D01*
X59370000Y-55560000D02*
X59370000Y-58100000D01*
X59370000Y-60239200D02*
X63210000Y-64079200D01*
X59370000Y-58100000D02*
X59370000Y-60239200D01*
X56830000Y-55560000D02*
X56830000Y-58100000D01*
X56830000Y-61199200D02*
X59710000Y-64079200D01*
X56830000Y-58100000D02*
X56830000Y-61199200D01*
D17*
G36*
X77760001Y-67600000D02*
G01*
X20701000Y-67600000D01*
X20701000Y-63898468D01*
X22875000Y-63898468D01*
X22875000Y-64259932D01*
X22945518Y-64614450D01*
X23083844Y-64948399D01*
X23284662Y-65248944D01*
X23540256Y-65504538D01*
X23840801Y-65705356D01*
X24174750Y-65843682D01*
X24529268Y-65914200D01*
X24890732Y-65914200D01*
X25245250Y-65843682D01*
X25579199Y-65705356D01*
X25879744Y-65504538D01*
X26135338Y-65248944D01*
X26336156Y-64948399D01*
X26460000Y-64649413D01*
X26583844Y-64948399D01*
X26784662Y-65248944D01*
X27040256Y-65504538D01*
X27340801Y-65705356D01*
X27674750Y-65843682D01*
X28029268Y-65914200D01*
X28390732Y-65914200D01*
X28745250Y-65843682D01*
X29079199Y-65705356D01*
X29379744Y-65504538D01*
X29635338Y-65248944D01*
X29836156Y-64948399D01*
X29960000Y-64649413D01*
X30083844Y-64948399D01*
X30284662Y-65248944D01*
X30540256Y-65504538D01*
X30840801Y-65705356D01*
X31174750Y-65843682D01*
X31529268Y-65914200D01*
X31890732Y-65914200D01*
X32245250Y-65843682D01*
X32579199Y-65705356D01*
X32879744Y-65504538D01*
X33135338Y-65248944D01*
X33336156Y-64948399D01*
X33460000Y-64649413D01*
X33583844Y-64948399D01*
X33784662Y-65248944D01*
X34040256Y-65504538D01*
X34340801Y-65705356D01*
X34674750Y-65843682D01*
X35029268Y-65914200D01*
X35390732Y-65914200D01*
X35745250Y-65843682D01*
X36079199Y-65705356D01*
X36379744Y-65504538D01*
X36635338Y-65248944D01*
X36836156Y-64948399D01*
X36960000Y-64649413D01*
X37083844Y-64948399D01*
X37284662Y-65248944D01*
X37540256Y-65504538D01*
X37840801Y-65705356D01*
X38174750Y-65843682D01*
X38529268Y-65914200D01*
X38890732Y-65914200D01*
X39245250Y-65843682D01*
X39579199Y-65705356D01*
X39879744Y-65504538D01*
X40135338Y-65248944D01*
X40336156Y-64948399D01*
X40460000Y-64649413D01*
X40583844Y-64948399D01*
X40784662Y-65248944D01*
X41040256Y-65504538D01*
X41340801Y-65705356D01*
X41674750Y-65843682D01*
X42029268Y-65914200D01*
X42390732Y-65914200D01*
X42745250Y-65843682D01*
X43079199Y-65705356D01*
X43379744Y-65504538D01*
X43635338Y-65248944D01*
X43836156Y-64948399D01*
X43960000Y-64649413D01*
X44083844Y-64948399D01*
X44284662Y-65248944D01*
X44540256Y-65504538D01*
X44840801Y-65705356D01*
X45174750Y-65843682D01*
X45529268Y-65914200D01*
X45890732Y-65914200D01*
X46245250Y-65843682D01*
X46579199Y-65705356D01*
X46879744Y-65504538D01*
X47135338Y-65248944D01*
X47336156Y-64948399D01*
X47460000Y-64649413D01*
X47583844Y-64948399D01*
X47784662Y-65248944D01*
X48040256Y-65504538D01*
X48340801Y-65705356D01*
X48674750Y-65843682D01*
X49029268Y-65914200D01*
X49390732Y-65914200D01*
X49745250Y-65843682D01*
X50079199Y-65705356D01*
X50379744Y-65504538D01*
X50635338Y-65248944D01*
X50836156Y-64948399D01*
X50960000Y-64649413D01*
X51083844Y-64948399D01*
X51284662Y-65248944D01*
X51540256Y-65504538D01*
X51840801Y-65705356D01*
X52174750Y-65843682D01*
X52529268Y-65914200D01*
X52890732Y-65914200D01*
X53245250Y-65843682D01*
X53579199Y-65705356D01*
X53879744Y-65504538D01*
X54135338Y-65248944D01*
X54336156Y-64948399D01*
X54460000Y-64649413D01*
X54583844Y-64948399D01*
X54784662Y-65248944D01*
X55040256Y-65504538D01*
X55340801Y-65705356D01*
X55674750Y-65843682D01*
X56029268Y-65914200D01*
X56390732Y-65914200D01*
X56745250Y-65843682D01*
X57079199Y-65705356D01*
X57379744Y-65504538D01*
X57635338Y-65248944D01*
X57836156Y-64948399D01*
X57960000Y-64649413D01*
X58083844Y-64948399D01*
X58284662Y-65248944D01*
X58540256Y-65504538D01*
X58840801Y-65705356D01*
X59174750Y-65843682D01*
X59529268Y-65914200D01*
X59890732Y-65914200D01*
X60245250Y-65843682D01*
X60579199Y-65705356D01*
X60879744Y-65504538D01*
X61135338Y-65248944D01*
X61336156Y-64948399D01*
X61460000Y-64649413D01*
X61583844Y-64948399D01*
X61784662Y-65248944D01*
X62040256Y-65504538D01*
X62340801Y-65705356D01*
X62674750Y-65843682D01*
X63029268Y-65914200D01*
X63390732Y-65914200D01*
X63745250Y-65843682D01*
X64079199Y-65705356D01*
X64379744Y-65504538D01*
X64635338Y-65248944D01*
X64836156Y-64948399D01*
X64960000Y-64649413D01*
X65083844Y-64948399D01*
X65284662Y-65248944D01*
X65540256Y-65504538D01*
X65840801Y-65705356D01*
X66174750Y-65843682D01*
X66529268Y-65914200D01*
X66890732Y-65914200D01*
X67245250Y-65843682D01*
X67579199Y-65705356D01*
X67879744Y-65504538D01*
X68135338Y-65248944D01*
X68336156Y-64948399D01*
X68460000Y-64649413D01*
X68583844Y-64948399D01*
X68784662Y-65248944D01*
X69040256Y-65504538D01*
X69340801Y-65705356D01*
X69674750Y-65843682D01*
X70029268Y-65914200D01*
X70390732Y-65914200D01*
X70745250Y-65843682D01*
X71079199Y-65705356D01*
X71379744Y-65504538D01*
X71635338Y-65248944D01*
X71836156Y-64948399D01*
X71960000Y-64649413D01*
X72083844Y-64948399D01*
X72284662Y-65248944D01*
X72540256Y-65504538D01*
X72840801Y-65705356D01*
X73174750Y-65843682D01*
X73529268Y-65914200D01*
X73890732Y-65914200D01*
X74245250Y-65843682D01*
X74579199Y-65705356D01*
X74879744Y-65504538D01*
X75135338Y-65248944D01*
X75336156Y-64948399D01*
X75474482Y-64614450D01*
X75545000Y-64259932D01*
X75545000Y-63898468D01*
X75474482Y-63543950D01*
X75336156Y-63210001D01*
X75135338Y-62909456D01*
X74879744Y-62653862D01*
X74579199Y-62453044D01*
X74245250Y-62314718D01*
X74107722Y-62287362D01*
X74098379Y-62282368D01*
X73907993Y-62224615D01*
X73710000Y-62205114D01*
X73512006Y-62224615D01*
X73336891Y-62277735D01*
X68480061Y-57420906D01*
X68448433Y-57382367D01*
X68294640Y-57256153D01*
X68166327Y-57187569D01*
X68143475Y-57153368D01*
X68000000Y-57009893D01*
X68000000Y-56650107D01*
X68143475Y-56506632D01*
X68305990Y-56263411D01*
X68417932Y-55993158D01*
X68475000Y-55706260D01*
X68475000Y-55413740D01*
X68417932Y-55126842D01*
X68305990Y-54856589D01*
X68143475Y-54613368D01*
X67936632Y-54406525D01*
X67693411Y-54244010D01*
X67423158Y-54132068D01*
X67159994Y-54079721D01*
X72475000Y-54079721D01*
X72475000Y-54500279D01*
X72557047Y-54912756D01*
X72717988Y-55301302D01*
X72951637Y-55650983D01*
X73249017Y-55948363D01*
X73598698Y-56182012D01*
X73987244Y-56342953D01*
X74399721Y-56425000D01*
X74820279Y-56425000D01*
X75232756Y-56342953D01*
X75621302Y-56182012D01*
X75970983Y-55948363D01*
X76268363Y-55650983D01*
X76502012Y-55301302D01*
X76662953Y-54912756D01*
X76745000Y-54500279D01*
X76745000Y-54079721D01*
X76662953Y-53667244D01*
X76502012Y-53278698D01*
X76268363Y-52929017D01*
X75970983Y-52631637D01*
X75621302Y-52397988D01*
X75232756Y-52237047D01*
X74820279Y-52155000D01*
X74399721Y-52155000D01*
X73987244Y-52237047D01*
X73598698Y-52397988D01*
X73249017Y-52631637D01*
X72951637Y-52929017D01*
X72717988Y-53278698D01*
X72557047Y-53667244D01*
X72475000Y-54079721D01*
X67159994Y-54079721D01*
X67136260Y-54075000D01*
X66843740Y-54075000D01*
X66556842Y-54132068D01*
X66286589Y-54244010D01*
X66043368Y-54406525D01*
X65836525Y-54613368D01*
X65720000Y-54787760D01*
X65603475Y-54613368D01*
X65396632Y-54406525D01*
X65153411Y-54244010D01*
X64883158Y-54132068D01*
X64596260Y-54075000D01*
X64303740Y-54075000D01*
X64016842Y-54132068D01*
X63746589Y-54244010D01*
X63503368Y-54406525D01*
X63296525Y-54613368D01*
X63180000Y-54787760D01*
X63063475Y-54613368D01*
X62856632Y-54406525D01*
X62613411Y-54244010D01*
X62343158Y-54132068D01*
X62056260Y-54075000D01*
X61763740Y-54075000D01*
X61476842Y-54132068D01*
X61206589Y-54244010D01*
X60963368Y-54406525D01*
X60756525Y-54613368D01*
X60640000Y-54787760D01*
X60523475Y-54613368D01*
X60316632Y-54406525D01*
X60073411Y-54244010D01*
X59803158Y-54132068D01*
X59516260Y-54075000D01*
X59223740Y-54075000D01*
X58936842Y-54132068D01*
X58666589Y-54244010D01*
X58423368Y-54406525D01*
X58216525Y-54613368D01*
X58100000Y-54787760D01*
X57983475Y-54613368D01*
X57776632Y-54406525D01*
X57533411Y-54244010D01*
X57263158Y-54132068D01*
X56976260Y-54075000D01*
X56683740Y-54075000D01*
X56396842Y-54132068D01*
X56126589Y-54244010D01*
X55883368Y-54406525D01*
X55676525Y-54613368D01*
X55560000Y-54787760D01*
X55443475Y-54613368D01*
X55236632Y-54406525D01*
X54993411Y-54244010D01*
X54723158Y-54132068D01*
X54436260Y-54075000D01*
X54143740Y-54075000D01*
X53856842Y-54132068D01*
X53586589Y-54244010D01*
X53343368Y-54406525D01*
X53136525Y-54613368D01*
X53020000Y-54787760D01*
X52903475Y-54613368D01*
X52696632Y-54406525D01*
X52453411Y-54244010D01*
X52183158Y-54132068D01*
X51896260Y-54075000D01*
X51603740Y-54075000D01*
X51316842Y-54132068D01*
X51046589Y-54244010D01*
X50803368Y-54406525D01*
X50596525Y-54613368D01*
X50480000Y-54787760D01*
X50363475Y-54613368D01*
X50156632Y-54406525D01*
X49913411Y-54244010D01*
X49643158Y-54132068D01*
X49356260Y-54075000D01*
X49063740Y-54075000D01*
X48776842Y-54132068D01*
X48506589Y-54244010D01*
X48263368Y-54406525D01*
X48056525Y-54613368D01*
X47940000Y-54787760D01*
X47823475Y-54613368D01*
X47616632Y-54406525D01*
X47373411Y-54244010D01*
X47103158Y-54132068D01*
X46816260Y-54075000D01*
X46523740Y-54075000D01*
X46236842Y-54132068D01*
X45966589Y-54244010D01*
X45723368Y-54406525D01*
X45516525Y-54613368D01*
X45400000Y-54787760D01*
X45283475Y-54613368D01*
X45076632Y-54406525D01*
X44833411Y-54244010D01*
X44563158Y-54132068D01*
X44276260Y-54075000D01*
X43983740Y-54075000D01*
X43696842Y-54132068D01*
X43426589Y-54244010D01*
X43183368Y-54406525D01*
X42976525Y-54613368D01*
X42860000Y-54787760D01*
X42743475Y-54613368D01*
X42536632Y-54406525D01*
X42293411Y-54244010D01*
X42023158Y-54132068D01*
X41736260Y-54075000D01*
X41443740Y-54075000D01*
X41156842Y-54132068D01*
X40886589Y-54244010D01*
X40643368Y-54406525D01*
X40436525Y-54613368D01*
X40320000Y-54787760D01*
X40203475Y-54613368D01*
X39996632Y-54406525D01*
X39753411Y-54244010D01*
X39483158Y-54132068D01*
X39196260Y-54075000D01*
X38903740Y-54075000D01*
X38616842Y-54132068D01*
X38346589Y-54244010D01*
X38103368Y-54406525D01*
X37896525Y-54613368D01*
X37780000Y-54787760D01*
X37663475Y-54613368D01*
X37456632Y-54406525D01*
X37213411Y-54244010D01*
X36943158Y-54132068D01*
X36656260Y-54075000D01*
X36363740Y-54075000D01*
X36076842Y-54132068D01*
X35806589Y-54244010D01*
X35563368Y-54406525D01*
X35356525Y-54613368D01*
X35240000Y-54787760D01*
X35123475Y-54613368D01*
X34916632Y-54406525D01*
X34673411Y-54244010D01*
X34403158Y-54132068D01*
X34116260Y-54075000D01*
X33823740Y-54075000D01*
X33536842Y-54132068D01*
X33266589Y-54244010D01*
X33023368Y-54406525D01*
X32816525Y-54613368D01*
X32700000Y-54787760D01*
X32583475Y-54613368D01*
X32376632Y-54406525D01*
X32133411Y-54244010D01*
X31863158Y-54132068D01*
X31576260Y-54075000D01*
X31283740Y-54075000D01*
X30996842Y-54132068D01*
X30726589Y-54244010D01*
X30483368Y-54406525D01*
X30276525Y-54613368D01*
X30114010Y-54856589D01*
X30002068Y-55126842D01*
X29945000Y-55413740D01*
X29945000Y-55706260D01*
X30002068Y-55993158D01*
X30114010Y-56263411D01*
X30276525Y-56506632D01*
X30420000Y-56650107D01*
X30420001Y-57009892D01*
X30276525Y-57153368D01*
X30253673Y-57187569D01*
X30125360Y-57256153D01*
X29971567Y-57382367D01*
X29939944Y-57420900D01*
X25079163Y-62281681D01*
X24890732Y-62244200D01*
X24529268Y-62244200D01*
X24174750Y-62314718D01*
X23840801Y-62453044D01*
X23540256Y-62653862D01*
X23284662Y-62909456D01*
X23083844Y-63210001D01*
X22945518Y-63543950D01*
X22875000Y-63898468D01*
X20701000Y-63898468D01*
X20701000Y-54079721D01*
X21675000Y-54079721D01*
X21675000Y-54500279D01*
X21757047Y-54912756D01*
X21917988Y-55301302D01*
X22151637Y-55650983D01*
X22449017Y-55948363D01*
X22798698Y-56182012D01*
X23187244Y-56342953D01*
X23599721Y-56425000D01*
X24020279Y-56425000D01*
X24432756Y-56342953D01*
X24821302Y-56182012D01*
X25170983Y-55948363D01*
X25468363Y-55650983D01*
X25702012Y-55301302D01*
X25862953Y-54912756D01*
X25945000Y-54500279D01*
X25945000Y-54079721D01*
X25862953Y-53667244D01*
X25702012Y-53278698D01*
X25468363Y-52929017D01*
X25170983Y-52631637D01*
X24821302Y-52397988D01*
X24432756Y-52237047D01*
X24020279Y-52155000D01*
X23599721Y-52155000D01*
X23187244Y-52237047D01*
X22798698Y-52397988D01*
X22449017Y-52631637D01*
X22151637Y-52929017D01*
X21917988Y-53278698D01*
X21757047Y-53667244D01*
X21675000Y-54079721D01*
X20701000Y-54079721D01*
X20701000Y-50523377D01*
X37916229Y-50523377D01*
X38042104Y-50813315D01*
X38374262Y-50979139D01*
X38732387Y-51076975D01*
X39102719Y-51103065D01*
X39471025Y-51056405D01*
X39823151Y-50938789D01*
X40057896Y-50813315D01*
X40183771Y-50523377D01*
X58236229Y-50523377D01*
X58362104Y-50813315D01*
X58694262Y-50979139D01*
X59052387Y-51076975D01*
X59422719Y-51103065D01*
X59791025Y-51056405D01*
X60143151Y-50938789D01*
X60377896Y-50813315D01*
X60503771Y-50523377D01*
X59370000Y-49389605D01*
X58236229Y-50523377D01*
X40183771Y-50523377D01*
X39050000Y-49389605D01*
X37916229Y-50523377D01*
X20701000Y-50523377D01*
X20701000Y-49262719D01*
X37156935Y-49262719D01*
X37203595Y-49631025D01*
X37321211Y-49983151D01*
X37446685Y-50217896D01*
X37736623Y-50343771D01*
X38870395Y-49210000D01*
X39229605Y-49210000D01*
X40363377Y-50343771D01*
X40653315Y-50217896D01*
X40819139Y-49885738D01*
X40916975Y-49527613D01*
X40935636Y-49262719D01*
X57476935Y-49262719D01*
X57523595Y-49631025D01*
X57641211Y-49983151D01*
X57766685Y-50217896D01*
X58056623Y-50343771D01*
X59190395Y-49210000D01*
X59549605Y-49210000D01*
X60683377Y-50343771D01*
X60973315Y-50217896D01*
X61139139Y-49885738D01*
X61236975Y-49527613D01*
X61263065Y-49157281D01*
X61216405Y-48788975D01*
X61098789Y-48436849D01*
X60973315Y-48202104D01*
X60883935Y-48163300D01*
X62888343Y-48163300D01*
X62888343Y-51183300D01*
X75694057Y-51183300D01*
X75694057Y-48163300D01*
X62888343Y-48163300D01*
X60883935Y-48163300D01*
X60683377Y-48076229D01*
X59549605Y-49210000D01*
X59190395Y-49210000D01*
X58056623Y-48076229D01*
X57766685Y-48202104D01*
X57600861Y-48534262D01*
X57503025Y-48892387D01*
X57476935Y-49262719D01*
X40935636Y-49262719D01*
X40943065Y-49157281D01*
X40896405Y-48788975D01*
X40778789Y-48436849D01*
X40653315Y-48202104D01*
X40363377Y-48076229D01*
X39229605Y-49210000D01*
X38870395Y-49210000D01*
X37736623Y-48076229D01*
X37446685Y-48202104D01*
X37280861Y-48534262D01*
X37183025Y-48892387D01*
X37156935Y-49262719D01*
X20701000Y-49262719D01*
X20701000Y-47896623D01*
X37916229Y-47896623D01*
X39050000Y-49030395D01*
X40183771Y-47896623D01*
X58236229Y-47896623D01*
X59370000Y-49030395D01*
X60503771Y-47896623D01*
X60377896Y-47606685D01*
X60045738Y-47440861D01*
X59687613Y-47343025D01*
X59317281Y-47316935D01*
X58948975Y-47363595D01*
X58596849Y-47481211D01*
X58362104Y-47606685D01*
X58236229Y-47896623D01*
X40183771Y-47896623D01*
X40057896Y-47606685D01*
X39725738Y-47440861D01*
X39367613Y-47343025D01*
X38997281Y-47316935D01*
X38628975Y-47363595D01*
X38276849Y-47481211D01*
X38042104Y-47606685D01*
X37916229Y-47896623D01*
X20701000Y-47896623D01*
X20701000Y-43919721D01*
X21675000Y-43919721D01*
X21675000Y-44340279D01*
X21757047Y-44752756D01*
X21917988Y-45141302D01*
X22151637Y-45490983D01*
X22449017Y-45788363D01*
X22798698Y-46022012D01*
X23187244Y-46182953D01*
X23599721Y-46265000D01*
X24020279Y-46265000D01*
X24432756Y-46182953D01*
X24821302Y-46022012D01*
X25170983Y-45788363D01*
X25468363Y-45490983D01*
X25702012Y-45141302D01*
X25862953Y-44752756D01*
X25945000Y-44340279D01*
X25945000Y-43919721D01*
X31835000Y-43919721D01*
X31835000Y-44340279D01*
X31917047Y-44752756D01*
X32077988Y-45141302D01*
X32311637Y-45490983D01*
X32609017Y-45788363D01*
X32958698Y-46022012D01*
X33347244Y-46182953D01*
X33759721Y-46265000D01*
X34180279Y-46265000D01*
X34592756Y-46182953D01*
X34981302Y-46022012D01*
X35330983Y-45788363D01*
X35628363Y-45490983D01*
X35862012Y-45141302D01*
X36022953Y-44752756D01*
X36105000Y-44340279D01*
X36105000Y-43919721D01*
X41995000Y-43919721D01*
X41995000Y-44340279D01*
X42077047Y-44752756D01*
X42237988Y-45141302D01*
X42471637Y-45490983D01*
X42769017Y-45788363D01*
X43118698Y-46022012D01*
X43507244Y-46182953D01*
X43919721Y-46265000D01*
X44340279Y-46265000D01*
X44752756Y-46182953D01*
X45141302Y-46022012D01*
X45490983Y-45788363D01*
X45788363Y-45490983D01*
X46022012Y-45141302D01*
X46182953Y-44752756D01*
X46265000Y-44340279D01*
X46265000Y-43919721D01*
X52155000Y-43919721D01*
X52155000Y-44340279D01*
X52237047Y-44752756D01*
X52397988Y-45141302D01*
X52631637Y-45490983D01*
X52929017Y-45788363D01*
X53278698Y-46022012D01*
X53667244Y-46182953D01*
X54079721Y-46265000D01*
X54500279Y-46265000D01*
X54912756Y-46182953D01*
X55301302Y-46022012D01*
X55650983Y-45788363D01*
X55948363Y-45490983D01*
X56182012Y-45141302D01*
X56342953Y-44752756D01*
X56425000Y-44340279D01*
X56425000Y-43919721D01*
X62315000Y-43919721D01*
X62315000Y-44340279D01*
X62397047Y-44752756D01*
X62557988Y-45141302D01*
X62791637Y-45490983D01*
X63089017Y-45788363D01*
X63438698Y-46022012D01*
X63827244Y-46182953D01*
X64239721Y-46265000D01*
X64660279Y-46265000D01*
X65072756Y-46182953D01*
X65461302Y-46022012D01*
X65810983Y-45788363D01*
X66108363Y-45490983D01*
X66342012Y-45141302D01*
X66502953Y-44752756D01*
X66585000Y-44340279D01*
X66585000Y-43919721D01*
X72475000Y-43919721D01*
X72475000Y-44340279D01*
X72557047Y-44752756D01*
X72717988Y-45141302D01*
X72951637Y-45490983D01*
X73249017Y-45788363D01*
X73598698Y-46022012D01*
X73987244Y-46182953D01*
X74399721Y-46265000D01*
X74820279Y-46265000D01*
X75232756Y-46182953D01*
X75621302Y-46022012D01*
X75970983Y-45788363D01*
X76268363Y-45490983D01*
X76502012Y-45141302D01*
X76662953Y-44752756D01*
X76745000Y-44340279D01*
X76745000Y-43919721D01*
X76662953Y-43507244D01*
X76502012Y-43118698D01*
X76268363Y-42769017D01*
X75970983Y-42471637D01*
X75621302Y-42237988D01*
X75232756Y-42077047D01*
X74820279Y-41995000D01*
X74399721Y-41995000D01*
X73987244Y-42077047D01*
X73598698Y-42237988D01*
X73249017Y-42471637D01*
X72951637Y-42769017D01*
X72717988Y-43118698D01*
X72557047Y-43507244D01*
X72475000Y-43919721D01*
X66585000Y-43919721D01*
X66502953Y-43507244D01*
X66342012Y-43118698D01*
X66108363Y-42769017D01*
X65810983Y-42471637D01*
X65461302Y-42237988D01*
X65072756Y-42077047D01*
X64660279Y-41995000D01*
X64239721Y-41995000D01*
X63827244Y-42077047D01*
X63438698Y-42237988D01*
X63089017Y-42471637D01*
X62791637Y-42769017D01*
X62557988Y-43118698D01*
X62397047Y-43507244D01*
X62315000Y-43919721D01*
X56425000Y-43919721D01*
X56342953Y-43507244D01*
X56182012Y-43118698D01*
X55948363Y-42769017D01*
X55650983Y-42471637D01*
X55301302Y-42237988D01*
X54912756Y-42077047D01*
X54500279Y-41995000D01*
X54079721Y-41995000D01*
X53667244Y-42077047D01*
X53278698Y-42237988D01*
X52929017Y-42471637D01*
X52631637Y-42769017D01*
X52397988Y-43118698D01*
X52237047Y-43507244D01*
X52155000Y-43919721D01*
X46265000Y-43919721D01*
X46182953Y-43507244D01*
X46022012Y-43118698D01*
X45788363Y-42769017D01*
X45490983Y-42471637D01*
X45141302Y-42237988D01*
X44752756Y-42077047D01*
X44340279Y-41995000D01*
X43919721Y-41995000D01*
X43507244Y-42077047D01*
X43118698Y-42237988D01*
X42769017Y-42471637D01*
X42471637Y-42769017D01*
X42237988Y-43118698D01*
X42077047Y-43507244D01*
X41995000Y-43919721D01*
X36105000Y-43919721D01*
X36022953Y-43507244D01*
X35862012Y-43118698D01*
X35628363Y-42769017D01*
X35330983Y-42471637D01*
X34981302Y-42237988D01*
X34592756Y-42077047D01*
X34180279Y-41995000D01*
X33759721Y-41995000D01*
X33347244Y-42077047D01*
X32958698Y-42237988D01*
X32609017Y-42471637D01*
X32311637Y-42769017D01*
X32077988Y-43118698D01*
X31917047Y-43507244D01*
X31835000Y-43919721D01*
X25945000Y-43919721D01*
X25862953Y-43507244D01*
X25702012Y-43118698D01*
X25468363Y-42769017D01*
X25170983Y-42471637D01*
X24821302Y-42237988D01*
X24432756Y-42077047D01*
X24020279Y-41995000D01*
X23599721Y-41995000D01*
X23187244Y-42077047D01*
X22798698Y-42237988D01*
X22449017Y-42471637D01*
X22151637Y-42769017D01*
X21917988Y-43118698D01*
X21757047Y-43507244D01*
X21675000Y-43919721D01*
X20701000Y-43919721D01*
X20701000Y-40363377D01*
X37916229Y-40363377D01*
X38042104Y-40653315D01*
X38374262Y-40819139D01*
X38732387Y-40916975D01*
X39102719Y-40943065D01*
X39471025Y-40896405D01*
X39823151Y-40778789D01*
X40057896Y-40653315D01*
X40183771Y-40363377D01*
X58236229Y-40363377D01*
X58362104Y-40653315D01*
X58694262Y-40819139D01*
X59052387Y-40916975D01*
X59422719Y-40943065D01*
X59791025Y-40896405D01*
X60143151Y-40778789D01*
X60377896Y-40653315D01*
X60503771Y-40363377D01*
X59370000Y-39229605D01*
X58236229Y-40363377D01*
X40183771Y-40363377D01*
X39050000Y-39229605D01*
X37916229Y-40363377D01*
X20701000Y-40363377D01*
X20701000Y-39102719D01*
X37156935Y-39102719D01*
X37203595Y-39471025D01*
X37321211Y-39823151D01*
X37446685Y-40057896D01*
X37736623Y-40183771D01*
X38870395Y-39050000D01*
X39229605Y-39050000D01*
X40363377Y-40183771D01*
X40653315Y-40057896D01*
X40819139Y-39725738D01*
X40916975Y-39367613D01*
X40935636Y-39102719D01*
X57476935Y-39102719D01*
X57523595Y-39471025D01*
X57641211Y-39823151D01*
X57766685Y-40057896D01*
X58056623Y-40183771D01*
X59190395Y-39050000D01*
X59549605Y-39050000D01*
X60683377Y-40183771D01*
X60973315Y-40057896D01*
X61139139Y-39725738D01*
X61236975Y-39367613D01*
X61263065Y-38997281D01*
X61223659Y-38686226D01*
X64460170Y-38686226D01*
X64460645Y-38799424D01*
X64460655Y-38799520D01*
X64460645Y-38799625D01*
X64460748Y-38808560D01*
X64462750Y-38916918D01*
X64462894Y-38918149D01*
X64462800Y-38919390D01*
X64463063Y-38928323D01*
X64466589Y-39025416D01*
X64467156Y-39029618D01*
X64466951Y-39033858D01*
X64467455Y-39042780D01*
X64472501Y-39122180D01*
X64474597Y-39135071D01*
X64474681Y-39148125D01*
X64475672Y-39157006D01*
X64482232Y-39212288D01*
X64494779Y-39269510D01*
X64506624Y-39326865D01*
X64508967Y-39334219D01*
X64508984Y-39334296D01*
X64509012Y-39334361D01*
X64509337Y-39335380D01*
X64517408Y-39360118D01*
X64535026Y-39400310D01*
X64550289Y-39441498D01*
X64560060Y-39457423D01*
X64567553Y-39474516D01*
X64592638Y-39510515D01*
X64615614Y-39547960D01*
X64628294Y-39561685D01*
X64638963Y-39576996D01*
X64670574Y-39607449D01*
X64700375Y-39639706D01*
X64715469Y-39650699D01*
X64728917Y-39663655D01*
X64765841Y-39687388D01*
X64801339Y-39713242D01*
X64809073Y-39717718D01*
X64813972Y-39720508D01*
X64825114Y-39725484D01*
X64833991Y-39731190D01*
X64867404Y-39744372D01*
X64868543Y-39744881D01*
X64922988Y-39769742D01*
X64927878Y-39771382D01*
X64928020Y-39771445D01*
X64928168Y-39771479D01*
X64931461Y-39772583D01*
X64967989Y-39784552D01*
X64986070Y-39788574D01*
X65003441Y-39795046D01*
X65012096Y-39797272D01*
X65075461Y-39813108D01*
X65080997Y-39813929D01*
X65086307Y-39815719D01*
X65095027Y-39817673D01*
X65177907Y-39835642D01*
X65180679Y-39835964D01*
X65183350Y-39836798D01*
X65192112Y-39838554D01*
X65287180Y-39856921D01*
X65287302Y-39856932D01*
X65293753Y-39858155D01*
X65325362Y-39863920D01*
X65471853Y-39890822D01*
X65503628Y-39896790D01*
X65514558Y-39924803D01*
X65461265Y-40002433D01*
X65461244Y-40002470D01*
X65460845Y-40003045D01*
X65442628Y-40029647D01*
X65442559Y-40029773D01*
X65439312Y-40034537D01*
X65375256Y-40129956D01*
X65374987Y-40130456D01*
X65374621Y-40130902D01*
X65369706Y-40138365D01*
X65314346Y-40223702D01*
X65313357Y-40225613D01*
X65312024Y-40227307D01*
X65307264Y-40234870D01*
X65263762Y-40305062D01*
X65260514Y-40311667D01*
X65256180Y-40317615D01*
X65251702Y-40325348D01*
X65223217Y-40375337D01*
X65208992Y-40407175D01*
X65192064Y-40437670D01*
X65188568Y-40445894D01*
X65178260Y-40470616D01*
X65173054Y-40487607D01*
X65172263Y-40489378D01*
X65171532Y-40492575D01*
X65166649Y-40508515D01*
X65152349Y-40545506D01*
X65148390Y-40568110D01*
X65141670Y-40590043D01*
X65137641Y-40629478D01*
X65130799Y-40668539D01*
X65131306Y-40691481D01*
X65128974Y-40714302D01*
X65132682Y-40753777D01*
X65133557Y-40793415D01*
X65138508Y-40815814D01*
X65140654Y-40838661D01*
X65145791Y-40855931D01*
X65146756Y-40863716D01*
X65153845Y-40885198D01*
X65160516Y-40915376D01*
X65163346Y-40923852D01*
X65165568Y-40930352D01*
X65172390Y-40945347D01*
X65176268Y-40958382D01*
X65180901Y-40967182D01*
X65185900Y-40982330D01*
X65202946Y-41012504D01*
X65217296Y-41044044D01*
X65232579Y-41065340D01*
X65234457Y-41068907D01*
X65235624Y-41070350D01*
X65247336Y-41091082D01*
X65252521Y-41098361D01*
X65275674Y-41130388D01*
X65292230Y-41149126D01*
X65306485Y-41169686D01*
X65312317Y-41176457D01*
X65357998Y-41228758D01*
X65363322Y-41233769D01*
X65367710Y-41239626D01*
X65373786Y-41246178D01*
X65438722Y-41315232D01*
X65440753Y-41317007D01*
X65442420Y-41319132D01*
X65448642Y-41325547D01*
X65529564Y-41407834D01*
X65530353Y-41408493D01*
X65531003Y-41409293D01*
X65537333Y-41415600D01*
X65630967Y-41507600D01*
X65631062Y-41507676D01*
X65635776Y-41512275D01*
X65689296Y-41563770D01*
X65689414Y-41563863D01*
X65692783Y-41567101D01*
X65777407Y-41647303D01*
X65777497Y-41647373D01*
X65782447Y-41652028D01*
X65856513Y-41720723D01*
X65856787Y-41720932D01*
X65857016Y-41721189D01*
X65863617Y-41727212D01*
X65923150Y-41780786D01*
X65926984Y-41783611D01*
X65930251Y-41787082D01*
X65937022Y-41792913D01*
X65978046Y-41827745D01*
X66003707Y-41845536D01*
X66027508Y-41865755D01*
X66034886Y-41870797D01*
X66053422Y-41883275D01*
X66074687Y-41894748D01*
X66080695Y-41898913D01*
X66089581Y-41902783D01*
X66094230Y-41905291D01*
X66133877Y-41929341D01*
X66149099Y-41934893D01*
X66163350Y-41942582D01*
X66207651Y-41956251D01*
X66251221Y-41972144D01*
X66267226Y-41974633D01*
X66282704Y-41979409D01*
X66328828Y-41984214D01*
X66374643Y-41991340D01*
X66390824Y-41990673D01*
X66406938Y-41992352D01*
X66453125Y-41988106D01*
X66499443Y-41986197D01*
X66515186Y-41982400D01*
X66531319Y-41980917D01*
X66575797Y-41967782D01*
X66604594Y-41960837D01*
X66612418Y-41959236D01*
X66614021Y-41958563D01*
X66620868Y-41956912D01*
X66629288Y-41953920D01*
X66642023Y-41949295D01*
X66647873Y-41946497D01*
X66651111Y-41945541D01*
X66664074Y-41938749D01*
X66684332Y-41929061D01*
X66727595Y-41910907D01*
X66735429Y-41906607D01*
X66774639Y-41884726D01*
X66784686Y-41877753D01*
X66795704Y-41872439D01*
X66803303Y-41867736D01*
X66860244Y-41831952D01*
X66864386Y-41828745D01*
X66869041Y-41826324D01*
X66876494Y-41821393D01*
X66943740Y-41776237D01*
X66943802Y-41776186D01*
X66950136Y-41771885D01*
X66997488Y-41739251D01*
X67091472Y-41674820D01*
X67153288Y-41632643D01*
X67183840Y-41642801D01*
X67214264Y-41656125D01*
X67222780Y-41658834D01*
X67249856Y-41667241D01*
X67269569Y-41671305D01*
X67270868Y-41671737D01*
X67272918Y-41671996D01*
X67310374Y-41679718D01*
X67370760Y-41692309D01*
X67371482Y-41692316D01*
X67372189Y-41692462D01*
X67433561Y-41692943D01*
X67495660Y-41693570D01*
X67496378Y-41693435D01*
X67497091Y-41693441D01*
X67557366Y-41681997D01*
X67618426Y-41670546D01*
X67619097Y-41670278D01*
X67619805Y-41670143D01*
X67676910Y-41647128D01*
X67734382Y-41624115D01*
X67734990Y-41623720D01*
X67735657Y-41623451D01*
X67787234Y-41589763D01*
X67839111Y-41556045D01*
X67839629Y-41555541D01*
X67840232Y-41555147D01*
X67884111Y-41512252D01*
X67928624Y-41468932D01*
X67929499Y-41467881D01*
X67929549Y-41467832D01*
X67929593Y-41467768D01*
X67934341Y-41462064D01*
X67943202Y-41451268D01*
X67975500Y-41402981D01*
X68008473Y-41355113D01*
X68012641Y-41347454D01*
X68012647Y-41347446D01*
X68012650Y-41347438D01*
X68012745Y-41347264D01*
X68034749Y-41306157D01*
X68038490Y-41297152D01*
X68043661Y-41288883D01*
X68047580Y-41280853D01*
X68080081Y-41213078D01*
X68080583Y-41211701D01*
X68081338Y-41210442D01*
X68085108Y-41202340D01*
X68126297Y-41112200D01*
X68126336Y-41112088D01*
X68129075Y-41106035D01*
X68177143Y-40997832D01*
X68177195Y-40997674D01*
X68178988Y-40993636D01*
X68232129Y-40871668D01*
X68232176Y-40871522D01*
X68233527Y-40868434D01*
X68289930Y-40737004D01*
X68289971Y-40736876D01*
X68291113Y-40734230D01*
X68348970Y-40597640D01*
X68349009Y-40597515D01*
X68350072Y-40595023D01*
X68407576Y-40457572D01*
X68407615Y-40457444D01*
X68408706Y-40454854D01*
X68411501Y-40448085D01*
X68461295Y-40567478D01*
X68461360Y-40567599D01*
X68462403Y-40570117D01*
X68520305Y-40707222D01*
X68520367Y-40707337D01*
X68521469Y-40709962D01*
X68578275Y-40842745D01*
X68578346Y-40842874D01*
X68579630Y-40845889D01*
X68633534Y-40970047D01*
X68633608Y-40970181D01*
X68635282Y-40974037D01*
X68684476Y-41085269D01*
X68684544Y-41085389D01*
X68687028Y-41090964D01*
X68729703Y-41184967D01*
X68730101Y-41185657D01*
X68730363Y-41186418D01*
X68734135Y-41194519D01*
X68768485Y-41266992D01*
X68772171Y-41273137D01*
X68774748Y-41279836D01*
X68778811Y-41287795D01*
X68803027Y-41334435D01*
X68828587Y-41373736D01*
X68852197Y-41414240D01*
X68857480Y-41421448D01*
X68869754Y-41437952D01*
X68903179Y-41474765D01*
X68935118Y-41512896D01*
X68945103Y-41520938D01*
X68953718Y-41530427D01*
X68993652Y-41560044D01*
X69032393Y-41591248D01*
X69043752Y-41597199D01*
X69054044Y-41604832D01*
X69098975Y-41626131D01*
X69143035Y-41649214D01*
X69155327Y-41652844D01*
X69166912Y-41658335D01*
X69215136Y-41670503D01*
X69262828Y-41684585D01*
X69275593Y-41685758D01*
X69288022Y-41688894D01*
X69337692Y-41691464D01*
X69387211Y-41696014D01*
X69399958Y-41694686D01*
X69412761Y-41695348D01*
X69461978Y-41688222D01*
X69488775Y-41685429D01*
X69502783Y-41684393D01*
X69505248Y-41683713D01*
X69511443Y-41683067D01*
X69520186Y-41681216D01*
X69530394Y-41678981D01*
X69534103Y-41677779D01*
X69536378Y-41677450D01*
X69550455Y-41672482D01*
X69576474Y-41664053D01*
X69623187Y-41651160D01*
X69631505Y-41647894D01*
X69669632Y-41632620D01*
X69691064Y-41647216D01*
X69789496Y-41714560D01*
X69873185Y-41772149D01*
X69873321Y-41772224D01*
X69876288Y-41774270D01*
X69922819Y-41805889D01*
X69924744Y-41806938D01*
X69926439Y-41808331D01*
X69933899Y-41813251D01*
X69994378Y-41852535D01*
X70000622Y-41855772D01*
X70006215Y-41860041D01*
X70013847Y-41864690D01*
X70058690Y-41891582D01*
X70087339Y-41905155D01*
X70114559Y-41921432D01*
X70122667Y-41925191D01*
X70144569Y-41935162D01*
X70160978Y-41940773D01*
X70176433Y-41948641D01*
X70219960Y-41960941D01*
X70262756Y-41975575D01*
X70279943Y-41977892D01*
X70296632Y-41982608D01*
X70341724Y-41986220D01*
X70386543Y-41992262D01*
X70403849Y-41991197D01*
X70421140Y-41992582D01*
X70466063Y-41987368D01*
X70511213Y-41984589D01*
X70527993Y-41980180D01*
X70545213Y-41978181D01*
X70571784Y-41969640D01*
X70575268Y-41969118D01*
X70589494Y-41964019D01*
X70632018Y-41952845D01*
X70647613Y-41945265D01*
X70664126Y-41939957D01*
X70672301Y-41936348D01*
X70681711Y-41932115D01*
X70687059Y-41929050D01*
X70692850Y-41926974D01*
X70725605Y-41907356D01*
X70744357Y-41898242D01*
X70755431Y-41889860D01*
X70790078Y-41870001D01*
X70794722Y-41865962D01*
X70800007Y-41862796D01*
X70807151Y-41857428D01*
X70841165Y-41831499D01*
X70853154Y-41820351D01*
X70866628Y-41811041D01*
X70873409Y-41805220D01*
X70925845Y-41759569D01*
X70928621Y-41756630D01*
X70931887Y-41754242D01*
X70938511Y-41748243D01*
X71004805Y-41687359D01*
X71005155Y-41686968D01*
X71005576Y-41686650D01*
X71012105Y-41680549D01*
X71087693Y-41608924D01*
X71087754Y-41608854D01*
X71093005Y-41603832D01*
X71173322Y-41525954D01*
X71173407Y-41525854D01*
X71177958Y-41521413D01*
X71258441Y-41441775D01*
X71258515Y-41441686D01*
X71263272Y-41436944D01*
X71339083Y-41360309D01*
X71339089Y-41360304D01*
X71339173Y-41360217D01*
X71339356Y-41360033D01*
X71339367Y-41360019D01*
X71345333Y-41353911D01*
X71412455Y-41284220D01*
X71413760Y-41282569D01*
X71415357Y-41281188D01*
X71421468Y-41274668D01*
X71475063Y-41216687D01*
X71480449Y-41209578D01*
X71486947Y-41203467D01*
X71492781Y-41196698D01*
X71528285Y-41154918D01*
X71554405Y-41117277D01*
X71582450Y-41081057D01*
X71587152Y-41073458D01*
X71600002Y-41052367D01*
X71617987Y-41015081D01*
X71638403Y-40979048D01*
X71645069Y-40958933D01*
X71654267Y-40939864D01*
X71664666Y-40899801D01*
X71677696Y-40860483D01*
X71680327Y-40839462D01*
X71685648Y-40818964D01*
X71688069Y-40777623D01*
X71693211Y-40736544D01*
X71691710Y-40715424D01*
X71692949Y-40694272D01*
X71687293Y-40653250D01*
X71684359Y-40611952D01*
X71682797Y-40603154D01*
X71682056Y-40599142D01*
X71677985Y-40585005D01*
X71676068Y-40570426D01*
X71660734Y-40525097D01*
X71647492Y-40479113D01*
X71640757Y-40466044D01*
X71636042Y-40452107D01*
X71632309Y-40443988D01*
X71617016Y-40411327D01*
X71605186Y-40391396D01*
X71595895Y-40370163D01*
X71591476Y-40362396D01*
X71558807Y-40305888D01*
X71555234Y-40300904D01*
X71552592Y-40295371D01*
X71547919Y-40287754D01*
X71501031Y-40212504D01*
X71499751Y-40210837D01*
X71498803Y-40208953D01*
X71493974Y-40201434D01*
X71436023Y-40112546D01*
X71435480Y-40111868D01*
X71435071Y-40111088D01*
X71430118Y-40103650D01*
X71364262Y-40006229D01*
X71364157Y-40006102D01*
X71361471Y-40002135D01*
X71343362Y-39975789D01*
X71308387Y-39924795D01*
X71310159Y-39920099D01*
X71319282Y-39896808D01*
X71376222Y-39886175D01*
X71529671Y-39858067D01*
X71529760Y-39858041D01*
X71531307Y-39857765D01*
X71563379Y-39851804D01*
X71563444Y-39851785D01*
X71563516Y-39851779D01*
X71572290Y-39850082D01*
X71664167Y-39831654D01*
X71667324Y-39830692D01*
X71670608Y-39830328D01*
X71679338Y-39828420D01*
X71756624Y-39810960D01*
X71764046Y-39808501D01*
X71771778Y-39807342D01*
X71780428Y-39805101D01*
X71835799Y-39790342D01*
X71866316Y-39778917D01*
X71897777Y-39770395D01*
X71906111Y-39767169D01*
X71932242Y-39756846D01*
X71951085Y-39747180D01*
X71952776Y-39746547D01*
X71955003Y-39745170D01*
X71967673Y-39738671D01*
X72004315Y-39723051D01*
X72023125Y-39710226D01*
X72043379Y-39699836D01*
X72074605Y-39675125D01*
X72107515Y-39652686D01*
X72123477Y-39636450D01*
X72141326Y-39622325D01*
X72167166Y-39592011D01*
X72195082Y-39563615D01*
X72207580Y-39544598D01*
X72222353Y-39527267D01*
X72232733Y-39508726D01*
X72237053Y-39503352D01*
X72246235Y-39485781D01*
X72263682Y-39459234D01*
X72267782Y-39451293D01*
X72272154Y-39442680D01*
X72277770Y-39428285D01*
X72283372Y-39418279D01*
X72286454Y-39408818D01*
X72294903Y-39392650D01*
X72304804Y-39358990D01*
X72317551Y-39326316D01*
X72322382Y-39299229D01*
X72330150Y-39272821D01*
X72331762Y-39264031D01*
X72339050Y-39222660D01*
X72340924Y-39198252D01*
X72345686Y-39174234D01*
X72346497Y-39165335D01*
X72352273Y-39096749D01*
X72352174Y-39089547D01*
X72353318Y-39082428D01*
X72353806Y-39073505D01*
X72358065Y-38984133D01*
X72357948Y-38981798D01*
X72358270Y-38979480D01*
X72358567Y-38970549D01*
X72361304Y-38866816D01*
X72361268Y-38866313D01*
X72361330Y-38865810D01*
X72361489Y-38856875D01*
X72362698Y-38745401D01*
X72362699Y-38745391D01*
X72362735Y-38736455D01*
X72362415Y-38623277D01*
X72362405Y-38623174D01*
X72362415Y-38623064D01*
X72362324Y-38614129D01*
X72360470Y-38505867D01*
X72360326Y-38504620D01*
X72360423Y-38503360D01*
X72360172Y-38494427D01*
X72356778Y-38397509D01*
X72356211Y-38393266D01*
X72356423Y-38388987D01*
X72355929Y-38380065D01*
X72350992Y-38300916D01*
X72348884Y-38287858D01*
X72348808Y-38274634D01*
X72347823Y-38265753D01*
X72341338Y-38210800D01*
X72328542Y-38152264D01*
X72316199Y-38093581D01*
X72314697Y-38088926D01*
X72314664Y-38088775D01*
X72314603Y-38088635D01*
X72313455Y-38085077D01*
X72305418Y-38060745D01*
X72299830Y-38048122D01*
X72296220Y-38034784D01*
X72274580Y-37991084D01*
X72254856Y-37946530D01*
X72246921Y-37935231D01*
X72240790Y-37922850D01*
X72211073Y-37884185D01*
X72183072Y-37844312D01*
X72173095Y-37834770D01*
X72164675Y-37823815D01*
X72128033Y-37791675D01*
X72092802Y-37757982D01*
X72081150Y-37750553D01*
X72070772Y-37741450D01*
X72028592Y-37717043D01*
X71987481Y-37690831D01*
X71974616Y-37685810D01*
X71962661Y-37678892D01*
X71954501Y-37675250D01*
X71946294Y-37671655D01*
X71907312Y-37658947D01*
X71869267Y-37643643D01*
X71860673Y-37641193D01*
X71819851Y-37629863D01*
X71810812Y-37628283D01*
X71802155Y-37625222D01*
X71793464Y-37623140D01*
X71724459Y-37607114D01*
X71723068Y-37606932D01*
X71721728Y-37606485D01*
X71713000Y-37604563D01*
X71621322Y-37585036D01*
X71621241Y-37585027D01*
X71613864Y-37583494D01*
X71505017Y-37561661D01*
X71504883Y-37561648D01*
X71498852Y-37560456D01*
X71378344Y-37537512D01*
X71378218Y-37537501D01*
X71375863Y-37537045D01*
X71311126Y-37524984D01*
X71292235Y-37521423D01*
X71341005Y-37449979D01*
X71378494Y-37395157D01*
X71378570Y-37395019D01*
X71381128Y-37391275D01*
X71446340Y-37294397D01*
X71446395Y-37294296D01*
X71450156Y-37288662D01*
X71506067Y-37203640D01*
X71506187Y-37203411D01*
X71506352Y-37203207D01*
X71511203Y-37195702D01*
X71554833Y-37127171D01*
X71556829Y-37123235D01*
X71559507Y-37119718D01*
X71564149Y-37112081D01*
X71592513Y-37064679D01*
X71604535Y-37039240D01*
X71619226Y-37015231D01*
X71623067Y-37007163D01*
X71633185Y-36985526D01*
X71642864Y-36958135D01*
X71645882Y-36951749D01*
X71647751Y-36944305D01*
X71652471Y-36930948D01*
X71672566Y-36876551D01*
X71673286Y-36872044D01*
X71674801Y-36867756D01*
X71683115Y-36810499D01*
X71692265Y-36753208D01*
X71692096Y-36748651D01*
X71692750Y-36744146D01*
X71689781Y-36686291D01*
X71687632Y-36628387D01*
X71686583Y-36623957D01*
X71686349Y-36619404D01*
X71672185Y-36563173D01*
X71658842Y-36506844D01*
X71656953Y-36502703D01*
X71655839Y-36498282D01*
X71631037Y-36445904D01*
X71615307Y-36411427D01*
X71611593Y-36402409D01*
X71610311Y-36400478D01*
X71606994Y-36393208D01*
X71602455Y-36385510D01*
X71595424Y-36373774D01*
X71567993Y-36336738D01*
X71542506Y-36298349D01*
X71536812Y-36291462D01*
X71507405Y-36256393D01*
X71501441Y-36250549D01*
X71496548Y-36243782D01*
X71490583Y-36237128D01*
X71442339Y-36184055D01*
X71441562Y-36183352D01*
X71440929Y-36182508D01*
X71434851Y-36175958D01*
X71372199Y-36109377D01*
X71372106Y-36109296D01*
X71367595Y-36104536D01*
X71294963Y-36028945D01*
X71294845Y-36028844D01*
X71291477Y-36025345D01*
X71213293Y-35945243D01*
X71213174Y-35945142D01*
X71210139Y-35942034D01*
X71130833Y-35861916D01*
X71130709Y-35861813D01*
X71127449Y-35858523D01*
X71051451Y-35782888D01*
X71051345Y-35782802D01*
X71047106Y-35778605D01*
X70978842Y-35711949D01*
X70978632Y-35711780D01*
X70978456Y-35711572D01*
X70972013Y-35705380D01*
X70915911Y-35652199D01*
X70911638Y-35648876D01*
X70908024Y-35644848D01*
X70901394Y-35638857D01*
X70861884Y-35603651D01*
X70833233Y-35582756D01*
X70806454Y-35559513D01*
X70799130Y-35554393D01*
X70780641Y-35541659D01*
X70765058Y-35533037D01*
X70760964Y-35530051D01*
X70760093Y-35529647D01*
X70747714Y-35520437D01*
X70708928Y-35501979D01*
X70671349Y-35481186D01*
X70652659Y-35475201D01*
X70634928Y-35466763D01*
X70593279Y-35456186D01*
X70552394Y-35443094D01*
X70532901Y-35440853D01*
X70513864Y-35436019D01*
X70470962Y-35433734D01*
X70428305Y-35428831D01*
X70408740Y-35430420D01*
X70389135Y-35429376D01*
X70346618Y-35435466D01*
X70303808Y-35438943D01*
X70284921Y-35444303D01*
X70265491Y-35447086D01*
X70224968Y-35461317D01*
X70183647Y-35473044D01*
X70166164Y-35481969D01*
X70147641Y-35488474D01*
X70139566Y-35492300D01*
X70129301Y-35497251D01*
X70106360Y-35511228D01*
X70081999Y-35522564D01*
X70074336Y-35527161D01*
X70036649Y-35550125D01*
X70034099Y-35552044D01*
X70031238Y-35553459D01*
X70023687Y-35558237D01*
X69962869Y-35597318D01*
X69962774Y-35597393D01*
X69957151Y-35601036D01*
X69877586Y-35653370D01*
X69877464Y-35653469D01*
X69873871Y-35655832D01*
X69779941Y-35718556D01*
X69779824Y-35718652D01*
X69776908Y-35720594D01*
X69672998Y-35790843D01*
X69672924Y-35790904D01*
X69671569Y-35791812D01*
X69602676Y-35838659D01*
X69586936Y-35755166D01*
X69586935Y-35755162D01*
X69503116Y-35310543D01*
X69502921Y-35309875D01*
X69502858Y-35309183D01*
X69485415Y-35249918D01*
X69468109Y-35190643D01*
X69467789Y-35190027D01*
X69467592Y-35189359D01*
X69438994Y-35134657D01*
X69410480Y-35079826D01*
X69410044Y-35079282D01*
X69409723Y-35078667D01*
X69371136Y-35030674D01*
X69332425Y-34982312D01*
X69331891Y-34981862D01*
X69331457Y-34981322D01*
X69284078Y-34941567D01*
X69236914Y-34901818D01*
X69236309Y-34901484D01*
X69235773Y-34901034D01*
X69181367Y-34871124D01*
X69127588Y-34841407D01*
X69126929Y-34841196D01*
X69126317Y-34840860D01*
X69067472Y-34822194D01*
X69008612Y-34803382D01*
X69007918Y-34803303D01*
X69007257Y-34803093D01*
X68945934Y-34796214D01*
X68884514Y-34789190D01*
X68883822Y-34789247D01*
X68883130Y-34789169D01*
X68874194Y-34789107D01*
X67948746Y-34789107D01*
X67948057Y-34789175D01*
X67947363Y-34789108D01*
X67885778Y-34795281D01*
X67824436Y-34801296D01*
X67823771Y-34801497D01*
X67823080Y-34801566D01*
X67763914Y-34819569D01*
X67704861Y-34837398D01*
X67704249Y-34837723D01*
X67703583Y-34837926D01*
X67649133Y-34867029D01*
X67594575Y-34896037D01*
X67594035Y-34896477D01*
X67593424Y-34896804D01*
X67545552Y-34936019D01*
X67497780Y-34974982D01*
X67497340Y-34975514D01*
X67496799Y-34975957D01*
X67457260Y-35023962D01*
X67418162Y-35071224D01*
X67417834Y-35071831D01*
X67417389Y-35072371D01*
X67388007Y-35126995D01*
X67358754Y-35181097D01*
X67358549Y-35181760D01*
X67358219Y-35182373D01*
X67340038Y-35241557D01*
X67321818Y-35300417D01*
X67321746Y-35301106D01*
X67321541Y-35301772D01*
X67319824Y-35310542D01*
X67236003Y-35755166D01*
X67236003Y-35755167D01*
X67220263Y-35838659D01*
X67151369Y-35791812D01*
X67151315Y-35791782D01*
X67150398Y-35791152D01*
X67076961Y-35741412D01*
X67076839Y-35741345D01*
X67074517Y-35739765D01*
X66977162Y-35674477D01*
X66977024Y-35674403D01*
X66973831Y-35672258D01*
X66889543Y-35616494D01*
X66889407Y-35616422D01*
X66884795Y-35613384D01*
X66817952Y-35570008D01*
X66817019Y-35569525D01*
X66816190Y-35568868D01*
X66808644Y-35564081D01*
X66763621Y-35535956D01*
X66747639Y-35528025D01*
X66732917Y-35517943D01*
X66725057Y-35513692D01*
X66706233Y-35503682D01*
X66691588Y-35497644D01*
X66677980Y-35489540D01*
X66633953Y-35473883D01*
X66590756Y-35456074D01*
X66575222Y-35452997D01*
X66560294Y-35447688D01*
X66514055Y-35440880D01*
X66468230Y-35431802D01*
X66452392Y-35431800D01*
X66436720Y-35429493D01*
X66390057Y-35431794D01*
X66343324Y-35431790D01*
X66327784Y-35434866D01*
X66311966Y-35435646D01*
X66266629Y-35446970D01*
X66220795Y-35456042D01*
X66206152Y-35462076D01*
X66190782Y-35465915D01*
X66148506Y-35485830D01*
X66105309Y-35503630D01*
X66092347Y-35512240D01*
X66085800Y-35515047D01*
X66084294Y-35516078D01*
X66077786Y-35519144D01*
X66070144Y-35523776D01*
X66058583Y-35530895D01*
X66021331Y-35559196D01*
X66010698Y-35566477D01*
X66001267Y-35572742D01*
X66000638Y-35573366D01*
X65982743Y-35585621D01*
X65975938Y-35591413D01*
X65941381Y-35621246D01*
X65935559Y-35627360D01*
X65928787Y-35632410D01*
X65922221Y-35638472D01*
X65869923Y-35687430D01*
X65869206Y-35688247D01*
X65868340Y-35688916D01*
X65861881Y-35695091D01*
X65796275Y-35758679D01*
X65796197Y-35758770D01*
X65791478Y-35763377D01*
X65716995Y-35837100D01*
X65716895Y-35837220D01*
X65713435Y-35840651D01*
X65634505Y-35920013D01*
X65634403Y-35920138D01*
X65631325Y-35923234D01*
X65552382Y-36003740D01*
X65552284Y-36003862D01*
X65549030Y-36007184D01*
X65474502Y-36084338D01*
X65474417Y-36084445D01*
X65470269Y-36088762D01*
X65404590Y-36158070D01*
X65404420Y-36158289D01*
X65404208Y-36158473D01*
X65398113Y-36165008D01*
X65345713Y-36221972D01*
X65342453Y-36226296D01*
X65338469Y-36229980D01*
X65332578Y-36236699D01*
X65297888Y-36276826D01*
X65277533Y-36305635D01*
X65254801Y-36332600D01*
X65249788Y-36339997D01*
X65237240Y-36358790D01*
X65228731Y-36374706D01*
X65225811Y-36378838D01*
X65222231Y-36386864D01*
X65216168Y-36398203D01*
X65192923Y-36436398D01*
X65186773Y-36453184D01*
X65178348Y-36468941D01*
X65165333Y-36511696D01*
X65149950Y-36553680D01*
X65147177Y-36571343D01*
X65141974Y-36588434D01*
X65137511Y-36632902D01*
X65130575Y-36677074D01*
X65131285Y-36694931D01*
X65129500Y-36712715D01*
X65133761Y-36757216D01*
X65135537Y-36801882D01*
X65139703Y-36819265D01*
X65141406Y-36837053D01*
X65154224Y-36879863D01*
X65156964Y-36891297D01*
X65161366Y-36912554D01*
X65162966Y-36916343D01*
X65164645Y-36923348D01*
X65167625Y-36931773D01*
X65170544Y-36939846D01*
X65174959Y-36949112D01*
X65177234Y-36956710D01*
X65190834Y-36982428D01*
X65191240Y-36983280D01*
X65209966Y-37027616D01*
X65214285Y-37035440D01*
X65234496Y-37071458D01*
X65240298Y-37079776D01*
X65244668Y-37088934D01*
X65249339Y-37096553D01*
X65286247Y-37155827D01*
X65287298Y-37157196D01*
X65288075Y-37158747D01*
X65292892Y-37166274D01*
X65343506Y-37244160D01*
X65343541Y-37244204D01*
X65347881Y-37250803D01*
X65409207Y-37342654D01*
X65409285Y-37342750D01*
X65412853Y-37348056D01*
X65481899Y-37449225D01*
X65481962Y-37449300D01*
X65482949Y-37450759D01*
X65519817Y-37504443D01*
X65531260Y-37521308D01*
X65446696Y-37537116D01*
X65446658Y-37537127D01*
X65446028Y-37537241D01*
X65383248Y-37549046D01*
X65383100Y-37549089D01*
X65378734Y-37549911D01*
X65263505Y-37572436D01*
X65263389Y-37572471D01*
X65256876Y-37573769D01*
X65156126Y-37594571D01*
X65156023Y-37594603D01*
X65155902Y-37594616D01*
X65147164Y-37596488D01*
X65066400Y-37614373D01*
X65062637Y-37615602D01*
X65058713Y-37616125D01*
X65050027Y-37618225D01*
X64994755Y-37631998D01*
X64971387Y-37640316D01*
X64947191Y-37645825D01*
X64938733Y-37648710D01*
X64914460Y-37657176D01*
X64882578Y-37671927D01*
X64877081Y-37673883D01*
X64872680Y-37676506D01*
X64869302Y-37678068D01*
X64823326Y-37697156D01*
X64812697Y-37704257D01*
X64801099Y-37709623D01*
X64760859Y-37738889D01*
X64719466Y-37766543D01*
X64710418Y-37775574D01*
X64700084Y-37783090D01*
X64666282Y-37819628D01*
X64664991Y-37820917D01*
X64663622Y-37822065D01*
X64662735Y-37823168D01*
X64631061Y-37854783D01*
X64623945Y-37865391D01*
X64615261Y-37874778D01*
X64595889Y-37906302D01*
X64585352Y-37919406D01*
X64577018Y-37935347D01*
X64561479Y-37958512D01*
X64557304Y-37966413D01*
X64552944Y-37974805D01*
X64551351Y-37978778D01*
X64549864Y-37981197D01*
X64543412Y-37998571D01*
X64541600Y-38003090D01*
X64527480Y-38030097D01*
X64518408Y-38060918D01*
X64506449Y-38090735D01*
X64500816Y-38120680D01*
X64492209Y-38149919D01*
X64490596Y-38158708D01*
X64483364Y-38199714D01*
X64481456Y-38224503D01*
X64476644Y-38248900D01*
X64475841Y-38257800D01*
X64470158Y-38326096D01*
X64470265Y-38333384D01*
X64469117Y-38340588D01*
X64468641Y-38349511D01*
X64464505Y-38438673D01*
X64464626Y-38441030D01*
X64464304Y-38443372D01*
X64464019Y-38452303D01*
X64461424Y-38555902D01*
X64461461Y-38556411D01*
X64461399Y-38556921D01*
X64461252Y-38565856D01*
X64460195Y-38677282D01*
X64460194Y-38677289D01*
X64460194Y-38677392D01*
X64460193Y-38677468D01*
X64460194Y-38677474D01*
X64460170Y-38686226D01*
X61223659Y-38686226D01*
X61216405Y-38628975D01*
X61098789Y-38276849D01*
X60973315Y-38042104D01*
X60683377Y-37916229D01*
X59549605Y-39050000D01*
X59190395Y-39050000D01*
X58056623Y-37916229D01*
X57766685Y-38042104D01*
X57600861Y-38374262D01*
X57503025Y-38732387D01*
X57476935Y-39102719D01*
X40935636Y-39102719D01*
X40943065Y-38997281D01*
X40896405Y-38628975D01*
X40778789Y-38276849D01*
X40653315Y-38042104D01*
X40363377Y-37916229D01*
X39229605Y-39050000D01*
X38870395Y-39050000D01*
X37736623Y-37916229D01*
X37446685Y-38042104D01*
X37280861Y-38374262D01*
X37183025Y-38732387D01*
X37156935Y-39102719D01*
X20701000Y-39102719D01*
X20701000Y-37736623D01*
X37916229Y-37736623D01*
X39050000Y-38870395D01*
X40183771Y-37736623D01*
X58236229Y-37736623D01*
X59370000Y-38870395D01*
X60503771Y-37736623D01*
X60377896Y-37446685D01*
X60045738Y-37280861D01*
X59687613Y-37183025D01*
X59317281Y-37156935D01*
X58948975Y-37203595D01*
X58596849Y-37321211D01*
X58362104Y-37446685D01*
X58236229Y-37736623D01*
X40183771Y-37736623D01*
X40057896Y-37446685D01*
X39725738Y-37280861D01*
X39367613Y-37183025D01*
X38997281Y-37156935D01*
X38628975Y-37203595D01*
X38276849Y-37321211D01*
X38042104Y-37446685D01*
X37916229Y-37736623D01*
X20701000Y-37736623D01*
X20701000Y-33759721D01*
X21675000Y-33759721D01*
X21675000Y-34180279D01*
X21757047Y-34592756D01*
X21917988Y-34981302D01*
X22151637Y-35330983D01*
X22449017Y-35628363D01*
X22798698Y-35862012D01*
X23187244Y-36022953D01*
X23599721Y-36105000D01*
X24020279Y-36105000D01*
X24432756Y-36022953D01*
X24821302Y-35862012D01*
X25170983Y-35628363D01*
X25468363Y-35330983D01*
X25702012Y-34981302D01*
X25862953Y-34592756D01*
X25945000Y-34180279D01*
X25945000Y-33759721D01*
X25862953Y-33347244D01*
X25702012Y-32958698D01*
X25468363Y-32609017D01*
X25170983Y-32311637D01*
X24821302Y-32077988D01*
X24432756Y-31917047D01*
X24020279Y-31835000D01*
X23599721Y-31835000D01*
X23187244Y-31917047D01*
X22798698Y-32077988D01*
X22449017Y-32311637D01*
X22151637Y-32609017D01*
X21917988Y-32958698D01*
X21757047Y-33347244D01*
X21675000Y-33759721D01*
X20701000Y-33759721D01*
X20701000Y-24000068D01*
X22875000Y-24000068D01*
X22875000Y-24361532D01*
X22945518Y-24716050D01*
X23083844Y-25049999D01*
X23284662Y-25350544D01*
X23540256Y-25606138D01*
X23840801Y-25806956D01*
X24174750Y-25945282D01*
X24529268Y-26015800D01*
X24890732Y-26015800D01*
X25079163Y-25978319D01*
X29939944Y-30839100D01*
X29971567Y-30877633D01*
X30125360Y-31003847D01*
X30253673Y-31072431D01*
X30276525Y-31106632D01*
X30420000Y-31250107D01*
X30420001Y-31609892D01*
X30276525Y-31753368D01*
X30114010Y-31996589D01*
X30002068Y-32266842D01*
X29945000Y-32553740D01*
X29945000Y-32846260D01*
X30002068Y-33133158D01*
X30114010Y-33403411D01*
X30276525Y-33646632D01*
X30483368Y-33853475D01*
X30726589Y-34015990D01*
X30996842Y-34127932D01*
X31283740Y-34185000D01*
X31576260Y-34185000D01*
X31863158Y-34127932D01*
X32133411Y-34015990D01*
X32376632Y-33853475D01*
X32583475Y-33646632D01*
X32700000Y-33472240D01*
X32816525Y-33646632D01*
X33023368Y-33853475D01*
X33266589Y-34015990D01*
X33536842Y-34127932D01*
X33823740Y-34185000D01*
X34116260Y-34185000D01*
X34403158Y-34127932D01*
X34673411Y-34015990D01*
X34916632Y-33853475D01*
X35123475Y-33646632D01*
X35240000Y-33472240D01*
X35356525Y-33646632D01*
X35563368Y-33853475D01*
X35806589Y-34015990D01*
X36076842Y-34127932D01*
X36363740Y-34185000D01*
X36656260Y-34185000D01*
X36943158Y-34127932D01*
X37213411Y-34015990D01*
X37456632Y-33853475D01*
X37663475Y-33646632D01*
X37780000Y-33472240D01*
X37896525Y-33646632D01*
X38103368Y-33853475D01*
X38346589Y-34015990D01*
X38616842Y-34127932D01*
X38903740Y-34185000D01*
X39196260Y-34185000D01*
X39483158Y-34127932D01*
X39753411Y-34015990D01*
X39996632Y-33853475D01*
X40203475Y-33646632D01*
X40320000Y-33472240D01*
X40436525Y-33646632D01*
X40643368Y-33853475D01*
X40886589Y-34015990D01*
X41156842Y-34127932D01*
X41443740Y-34185000D01*
X41736260Y-34185000D01*
X42023158Y-34127932D01*
X42293411Y-34015990D01*
X42536632Y-33853475D01*
X42743475Y-33646632D01*
X42860000Y-33472240D01*
X42976525Y-33646632D01*
X43183368Y-33853475D01*
X43426589Y-34015990D01*
X43696842Y-34127932D01*
X43983740Y-34185000D01*
X44276260Y-34185000D01*
X44563158Y-34127932D01*
X44833411Y-34015990D01*
X45076632Y-33853475D01*
X45283475Y-33646632D01*
X45400000Y-33472240D01*
X45516525Y-33646632D01*
X45723368Y-33853475D01*
X45966589Y-34015990D01*
X46236842Y-34127932D01*
X46523740Y-34185000D01*
X46816260Y-34185000D01*
X47103158Y-34127932D01*
X47373411Y-34015990D01*
X47616632Y-33853475D01*
X47823475Y-33646632D01*
X47940000Y-33472240D01*
X48056525Y-33646632D01*
X48263368Y-33853475D01*
X48506589Y-34015990D01*
X48776842Y-34127932D01*
X49063740Y-34185000D01*
X49356260Y-34185000D01*
X49643158Y-34127932D01*
X49913411Y-34015990D01*
X50156632Y-33853475D01*
X50363475Y-33646632D01*
X50480000Y-33472240D01*
X50596525Y-33646632D01*
X50803368Y-33853475D01*
X51046589Y-34015990D01*
X51316842Y-34127932D01*
X51603740Y-34185000D01*
X51896260Y-34185000D01*
X52183158Y-34127932D01*
X52453411Y-34015990D01*
X52696632Y-33853475D01*
X52903475Y-33646632D01*
X53020000Y-33472240D01*
X53136525Y-33646632D01*
X53343368Y-33853475D01*
X53586589Y-34015990D01*
X53856842Y-34127932D01*
X54143740Y-34185000D01*
X54436260Y-34185000D01*
X54723158Y-34127932D01*
X54993411Y-34015990D01*
X55236632Y-33853475D01*
X55443475Y-33646632D01*
X55560000Y-33472240D01*
X55676525Y-33646632D01*
X55883368Y-33853475D01*
X56126589Y-34015990D01*
X56396842Y-34127932D01*
X56683740Y-34185000D01*
X56976260Y-34185000D01*
X57263158Y-34127932D01*
X57533411Y-34015990D01*
X57776632Y-33853475D01*
X57983475Y-33646632D01*
X58100000Y-33472240D01*
X58216525Y-33646632D01*
X58423368Y-33853475D01*
X58666589Y-34015990D01*
X58936842Y-34127932D01*
X59223740Y-34185000D01*
X59516260Y-34185000D01*
X59803158Y-34127932D01*
X60073411Y-34015990D01*
X60316632Y-33853475D01*
X60523475Y-33646632D01*
X60640000Y-33472240D01*
X60756525Y-33646632D01*
X60963368Y-33853475D01*
X61206589Y-34015990D01*
X61476842Y-34127932D01*
X61763740Y-34185000D01*
X62056260Y-34185000D01*
X62343158Y-34127932D01*
X62613411Y-34015990D01*
X62856632Y-33853475D01*
X63063475Y-33646632D01*
X63180000Y-33472240D01*
X63296525Y-33646632D01*
X63503368Y-33853475D01*
X63746589Y-34015990D01*
X64016842Y-34127932D01*
X64303740Y-34185000D01*
X64596260Y-34185000D01*
X64883158Y-34127932D01*
X65153411Y-34015990D01*
X65396632Y-33853475D01*
X65603475Y-33646632D01*
X65720000Y-33472240D01*
X65836525Y-33646632D01*
X66043368Y-33853475D01*
X66286589Y-34015990D01*
X66556842Y-34127932D01*
X66843740Y-34185000D01*
X67136260Y-34185000D01*
X67423158Y-34127932D01*
X67693411Y-34015990D01*
X67936632Y-33853475D01*
X68030386Y-33759721D01*
X72475000Y-33759721D01*
X72475000Y-34180279D01*
X72557047Y-34592756D01*
X72717988Y-34981302D01*
X72951637Y-35330983D01*
X73249017Y-35628363D01*
X73598698Y-35862012D01*
X73987244Y-36022953D01*
X74399721Y-36105000D01*
X74820279Y-36105000D01*
X75232756Y-36022953D01*
X75621302Y-35862012D01*
X75970983Y-35628363D01*
X76268363Y-35330983D01*
X76502012Y-34981302D01*
X76662953Y-34592756D01*
X76745000Y-34180279D01*
X76745000Y-33759721D01*
X76662953Y-33347244D01*
X76502012Y-32958698D01*
X76268363Y-32609017D01*
X75970983Y-32311637D01*
X75621302Y-32077988D01*
X75232756Y-31917047D01*
X74820279Y-31835000D01*
X74399721Y-31835000D01*
X73987244Y-31917047D01*
X73598698Y-32077988D01*
X73249017Y-32311637D01*
X72951637Y-32609017D01*
X72717988Y-32958698D01*
X72557047Y-33347244D01*
X72475000Y-33759721D01*
X68030386Y-33759721D01*
X68143475Y-33646632D01*
X68305990Y-33403411D01*
X68417932Y-33133158D01*
X68475000Y-32846260D01*
X68475000Y-32553740D01*
X68417932Y-32266842D01*
X68305990Y-31996589D01*
X68143475Y-31753368D01*
X68000000Y-31609893D01*
X68000000Y-31250107D01*
X68143475Y-31106632D01*
X68166327Y-31072431D01*
X68294640Y-31003847D01*
X68448433Y-30877633D01*
X68480061Y-30839094D01*
X73336891Y-25982265D01*
X73512006Y-26035385D01*
X73710000Y-26054886D01*
X73907993Y-26035385D01*
X74098379Y-25977632D01*
X74107722Y-25972638D01*
X74245250Y-25945282D01*
X74579199Y-25806956D01*
X74879744Y-25606138D01*
X75135338Y-25350544D01*
X75336156Y-25049999D01*
X75474482Y-24716050D01*
X75545000Y-24361532D01*
X75545000Y-24000068D01*
X75474482Y-23645550D01*
X75336156Y-23311601D01*
X75135338Y-23011056D01*
X74879744Y-22755462D01*
X74579199Y-22554644D01*
X74245250Y-22416318D01*
X73890732Y-22345800D01*
X73529268Y-22345800D01*
X73174750Y-22416318D01*
X72840801Y-22554644D01*
X72540256Y-22755462D01*
X72284662Y-23011056D01*
X72083844Y-23311601D01*
X71960000Y-23610587D01*
X71836156Y-23311601D01*
X71635338Y-23011056D01*
X71379744Y-22755462D01*
X71079199Y-22554644D01*
X70745250Y-22416318D01*
X70390732Y-22345800D01*
X70029268Y-22345800D01*
X69674750Y-22416318D01*
X69340801Y-22554644D01*
X69040256Y-22755462D01*
X68784662Y-23011056D01*
X68583844Y-23311601D01*
X68460000Y-23610587D01*
X68336156Y-23311601D01*
X68135338Y-23011056D01*
X67879744Y-22755462D01*
X67579199Y-22554644D01*
X67245250Y-22416318D01*
X66890732Y-22345800D01*
X66529268Y-22345800D01*
X66174750Y-22416318D01*
X65840801Y-22554644D01*
X65540256Y-22755462D01*
X65284662Y-23011056D01*
X65083844Y-23311601D01*
X64960000Y-23610587D01*
X64836156Y-23311601D01*
X64635338Y-23011056D01*
X64379744Y-22755462D01*
X64079199Y-22554644D01*
X63745250Y-22416318D01*
X63390732Y-22345800D01*
X63029268Y-22345800D01*
X62674750Y-22416318D01*
X62340801Y-22554644D01*
X62040256Y-22755462D01*
X61784662Y-23011056D01*
X61583844Y-23311601D01*
X61460000Y-23610587D01*
X61336156Y-23311601D01*
X61135338Y-23011056D01*
X60879744Y-22755462D01*
X60579199Y-22554644D01*
X60245250Y-22416318D01*
X59890732Y-22345800D01*
X59529268Y-22345800D01*
X59174750Y-22416318D01*
X58840801Y-22554644D01*
X58540256Y-22755462D01*
X58284662Y-23011056D01*
X58083844Y-23311601D01*
X57960000Y-23610587D01*
X57836156Y-23311601D01*
X57635338Y-23011056D01*
X57379744Y-22755462D01*
X57079199Y-22554644D01*
X56745250Y-22416318D01*
X56390732Y-22345800D01*
X56029268Y-22345800D01*
X55674750Y-22416318D01*
X55340801Y-22554644D01*
X55040256Y-22755462D01*
X54784662Y-23011056D01*
X54583844Y-23311601D01*
X54460000Y-23610587D01*
X54336156Y-23311601D01*
X54135338Y-23011056D01*
X53879744Y-22755462D01*
X53579199Y-22554644D01*
X53245250Y-22416318D01*
X52890732Y-22345800D01*
X52529268Y-22345800D01*
X52174750Y-22416318D01*
X51840801Y-22554644D01*
X51540256Y-22755462D01*
X51284662Y-23011056D01*
X51083844Y-23311601D01*
X50960000Y-23610587D01*
X50836156Y-23311601D01*
X50635338Y-23011056D01*
X50379744Y-22755462D01*
X50079199Y-22554644D01*
X49745250Y-22416318D01*
X49390732Y-22345800D01*
X49029268Y-22345800D01*
X48674750Y-22416318D01*
X48340801Y-22554644D01*
X48040256Y-22755462D01*
X47784662Y-23011056D01*
X47583844Y-23311601D01*
X47460000Y-23610587D01*
X47336156Y-23311601D01*
X47135338Y-23011056D01*
X46879744Y-22755462D01*
X46579199Y-22554644D01*
X46245250Y-22416318D01*
X45890732Y-22345800D01*
X45529268Y-22345800D01*
X45174750Y-22416318D01*
X44840801Y-22554644D01*
X44540256Y-22755462D01*
X44284662Y-23011056D01*
X44083844Y-23311601D01*
X43960000Y-23610587D01*
X43836156Y-23311601D01*
X43635338Y-23011056D01*
X43379744Y-22755462D01*
X43079199Y-22554644D01*
X42745250Y-22416318D01*
X42390732Y-22345800D01*
X42029268Y-22345800D01*
X41674750Y-22416318D01*
X41340801Y-22554644D01*
X41040256Y-22755462D01*
X40784662Y-23011056D01*
X40583844Y-23311601D01*
X40460000Y-23610587D01*
X40336156Y-23311601D01*
X40135338Y-23011056D01*
X39879744Y-22755462D01*
X39579199Y-22554644D01*
X39245250Y-22416318D01*
X38890732Y-22345800D01*
X38529268Y-22345800D01*
X38174750Y-22416318D01*
X37840801Y-22554644D01*
X37540256Y-22755462D01*
X37284662Y-23011056D01*
X37083844Y-23311601D01*
X36960000Y-23610587D01*
X36836156Y-23311601D01*
X36635338Y-23011056D01*
X36379744Y-22755462D01*
X36079199Y-22554644D01*
X35745250Y-22416318D01*
X35390732Y-22345800D01*
X35029268Y-22345800D01*
X34674750Y-22416318D01*
X34340801Y-22554644D01*
X34040256Y-22755462D01*
X33784662Y-23011056D01*
X33583844Y-23311601D01*
X33460000Y-23610587D01*
X33336156Y-23311601D01*
X33135338Y-23011056D01*
X32879744Y-22755462D01*
X32579199Y-22554644D01*
X32245250Y-22416318D01*
X31890732Y-22345800D01*
X31529268Y-22345800D01*
X31174750Y-22416318D01*
X30840801Y-22554644D01*
X30540256Y-22755462D01*
X30284662Y-23011056D01*
X30083844Y-23311601D01*
X29960000Y-23610587D01*
X29836156Y-23311601D01*
X29635338Y-23011056D01*
X29379744Y-22755462D01*
X29079199Y-22554644D01*
X28745250Y-22416318D01*
X28390732Y-22345800D01*
X28029268Y-22345800D01*
X27674750Y-22416318D01*
X27340801Y-22554644D01*
X27040256Y-22755462D01*
X26784662Y-23011056D01*
X26583844Y-23311601D01*
X26460000Y-23610587D01*
X26336156Y-23311601D01*
X26135338Y-23011056D01*
X25879744Y-22755462D01*
X25579199Y-22554644D01*
X25245250Y-22416318D01*
X24890732Y-22345800D01*
X24529268Y-22345800D01*
X24174750Y-22416318D01*
X23840801Y-22554644D01*
X23540256Y-22755462D01*
X23284662Y-23011056D01*
X23083844Y-23311601D01*
X22945518Y-23645550D01*
X22875000Y-24000068D01*
X20701000Y-24000068D01*
X20701000Y-20660000D01*
X77760000Y-20660000D01*
X77760001Y-67600000D01*
G37*
X77760001Y-67600000D02*
X20701000Y-67600000D01*
X20701000Y-63898468D01*
X22875000Y-63898468D01*
X22875000Y-64259932D01*
X22945518Y-64614450D01*
X23083844Y-64948399D01*
X23284662Y-65248944D01*
X23540256Y-65504538D01*
X23840801Y-65705356D01*
X24174750Y-65843682D01*
X24529268Y-65914200D01*
X24890732Y-65914200D01*
X25245250Y-65843682D01*
X25579199Y-65705356D01*
X25879744Y-65504538D01*
X26135338Y-65248944D01*
X26336156Y-64948399D01*
X26460000Y-64649413D01*
X26583844Y-64948399D01*
X26784662Y-65248944D01*
X27040256Y-65504538D01*
X27340801Y-65705356D01*
X27674750Y-65843682D01*
X28029268Y-65914200D01*
X28390732Y-65914200D01*
X28745250Y-65843682D01*
X29079199Y-65705356D01*
X29379744Y-65504538D01*
X29635338Y-65248944D01*
X29836156Y-64948399D01*
X29960000Y-64649413D01*
X30083844Y-64948399D01*
X30284662Y-65248944D01*
X30540256Y-65504538D01*
X30840801Y-65705356D01*
X31174750Y-65843682D01*
X31529268Y-65914200D01*
X31890732Y-65914200D01*
X32245250Y-65843682D01*
X32579199Y-65705356D01*
X32879744Y-65504538D01*
X33135338Y-65248944D01*
X33336156Y-64948399D01*
X33460000Y-64649413D01*
X33583844Y-64948399D01*
X33784662Y-65248944D01*
X34040256Y-65504538D01*
X34340801Y-65705356D01*
X34674750Y-65843682D01*
X35029268Y-65914200D01*
X35390732Y-65914200D01*
X35745250Y-65843682D01*
X36079199Y-65705356D01*
X36379744Y-65504538D01*
X36635338Y-65248944D01*
X36836156Y-64948399D01*
X36960000Y-64649413D01*
X37083844Y-64948399D01*
X37284662Y-65248944D01*
X37540256Y-65504538D01*
X37840801Y-65705356D01*
X38174750Y-65843682D01*
X38529268Y-65914200D01*
X38890732Y-65914200D01*
X39245250Y-65843682D01*
X39579199Y-65705356D01*
X39879744Y-65504538D01*
X40135338Y-65248944D01*
X40336156Y-64948399D01*
X40460000Y-64649413D01*
X40583844Y-64948399D01*
X40784662Y-65248944D01*
X41040256Y-65504538D01*
X41340801Y-65705356D01*
X41674750Y-65843682D01*
X42029268Y-65914200D01*
X42390732Y-65914200D01*
X42745250Y-65843682D01*
X43079199Y-65705356D01*
X43379744Y-65504538D01*
X43635338Y-65248944D01*
X43836156Y-64948399D01*
X43960000Y-64649413D01*
X44083844Y-64948399D01*
X44284662Y-65248944D01*
X44540256Y-65504538D01*
X44840801Y-65705356D01*
X45174750Y-65843682D01*
X45529268Y-65914200D01*
X45890732Y-65914200D01*
X46245250Y-65843682D01*
X46579199Y-65705356D01*
X46879744Y-65504538D01*
X47135338Y-65248944D01*
X47336156Y-64948399D01*
X47460000Y-64649413D01*
X47583844Y-64948399D01*
X47784662Y-65248944D01*
X48040256Y-65504538D01*
X48340801Y-65705356D01*
X48674750Y-65843682D01*
X49029268Y-65914200D01*
X49390732Y-65914200D01*
X49745250Y-65843682D01*
X50079199Y-65705356D01*
X50379744Y-65504538D01*
X50635338Y-65248944D01*
X50836156Y-64948399D01*
X50960000Y-64649413D01*
X51083844Y-64948399D01*
X51284662Y-65248944D01*
X51540256Y-65504538D01*
X51840801Y-65705356D01*
X52174750Y-65843682D01*
X52529268Y-65914200D01*
X52890732Y-65914200D01*
X53245250Y-65843682D01*
X53579199Y-65705356D01*
X53879744Y-65504538D01*
X54135338Y-65248944D01*
X54336156Y-64948399D01*
X54460000Y-64649413D01*
X54583844Y-64948399D01*
X54784662Y-65248944D01*
X55040256Y-65504538D01*
X55340801Y-65705356D01*
X55674750Y-65843682D01*
X56029268Y-65914200D01*
X56390732Y-65914200D01*
X56745250Y-65843682D01*
X57079199Y-65705356D01*
X57379744Y-65504538D01*
X57635338Y-65248944D01*
X57836156Y-64948399D01*
X57960000Y-64649413D01*
X58083844Y-64948399D01*
X58284662Y-65248944D01*
X58540256Y-65504538D01*
X58840801Y-65705356D01*
X59174750Y-65843682D01*
X59529268Y-65914200D01*
X59890732Y-65914200D01*
X60245250Y-65843682D01*
X60579199Y-65705356D01*
X60879744Y-65504538D01*
X61135338Y-65248944D01*
X61336156Y-64948399D01*
X61460000Y-64649413D01*
X61583844Y-64948399D01*
X61784662Y-65248944D01*
X62040256Y-65504538D01*
X62340801Y-65705356D01*
X62674750Y-65843682D01*
X63029268Y-65914200D01*
X63390732Y-65914200D01*
X63745250Y-65843682D01*
X64079199Y-65705356D01*
X64379744Y-65504538D01*
X64635338Y-65248944D01*
X64836156Y-64948399D01*
X64960000Y-64649413D01*
X65083844Y-64948399D01*
X65284662Y-65248944D01*
X65540256Y-65504538D01*
X65840801Y-65705356D01*
X66174750Y-65843682D01*
X66529268Y-65914200D01*
X66890732Y-65914200D01*
X67245250Y-65843682D01*
X67579199Y-65705356D01*
X67879744Y-65504538D01*
X68135338Y-65248944D01*
X68336156Y-64948399D01*
X68460000Y-64649413D01*
X68583844Y-64948399D01*
X68784662Y-65248944D01*
X69040256Y-65504538D01*
X69340801Y-65705356D01*
X69674750Y-65843682D01*
X70029268Y-65914200D01*
X70390732Y-65914200D01*
X70745250Y-65843682D01*
X71079199Y-65705356D01*
X71379744Y-65504538D01*
X71635338Y-65248944D01*
X71836156Y-64948399D01*
X71960000Y-64649413D01*
X72083844Y-64948399D01*
X72284662Y-65248944D01*
X72540256Y-65504538D01*
X72840801Y-65705356D01*
X73174750Y-65843682D01*
X73529268Y-65914200D01*
X73890732Y-65914200D01*
X74245250Y-65843682D01*
X74579199Y-65705356D01*
X74879744Y-65504538D01*
X75135338Y-65248944D01*
X75336156Y-64948399D01*
X75474482Y-64614450D01*
X75545000Y-64259932D01*
X75545000Y-63898468D01*
X75474482Y-63543950D01*
X75336156Y-63210001D01*
X75135338Y-62909456D01*
X74879744Y-62653862D01*
X74579199Y-62453044D01*
X74245250Y-62314718D01*
X74107722Y-62287362D01*
X74098379Y-62282368D01*
X73907993Y-62224615D01*
X73710000Y-62205114D01*
X73512006Y-62224615D01*
X73336891Y-62277735D01*
X68480061Y-57420906D01*
X68448433Y-57382367D01*
X68294640Y-57256153D01*
X68166327Y-57187569D01*
X68143475Y-57153368D01*
X68000000Y-57009893D01*
X68000000Y-56650107D01*
X68143475Y-56506632D01*
X68305990Y-56263411D01*
X68417932Y-55993158D01*
X68475000Y-55706260D01*
X68475000Y-55413740D01*
X68417932Y-55126842D01*
X68305990Y-54856589D01*
X68143475Y-54613368D01*
X67936632Y-54406525D01*
X67693411Y-54244010D01*
X67423158Y-54132068D01*
X67159994Y-54079721D01*
X72475000Y-54079721D01*
X72475000Y-54500279D01*
X72557047Y-54912756D01*
X72717988Y-55301302D01*
X72951637Y-55650983D01*
X73249017Y-55948363D01*
X73598698Y-56182012D01*
X73987244Y-56342953D01*
X74399721Y-56425000D01*
X74820279Y-56425000D01*
X75232756Y-56342953D01*
X75621302Y-56182012D01*
X75970983Y-55948363D01*
X76268363Y-55650983D01*
X76502012Y-55301302D01*
X76662953Y-54912756D01*
X76745000Y-54500279D01*
X76745000Y-54079721D01*
X76662953Y-53667244D01*
X76502012Y-53278698D01*
X76268363Y-52929017D01*
X75970983Y-52631637D01*
X75621302Y-52397988D01*
X75232756Y-52237047D01*
X74820279Y-52155000D01*
X74399721Y-52155000D01*
X73987244Y-52237047D01*
X73598698Y-52397988D01*
X73249017Y-52631637D01*
X72951637Y-52929017D01*
X72717988Y-53278698D01*
X72557047Y-53667244D01*
X72475000Y-54079721D01*
X67159994Y-54079721D01*
X67136260Y-54075000D01*
X66843740Y-54075000D01*
X66556842Y-54132068D01*
X66286589Y-54244010D01*
X66043368Y-54406525D01*
X65836525Y-54613368D01*
X65720000Y-54787760D01*
X65603475Y-54613368D01*
X65396632Y-54406525D01*
X65153411Y-54244010D01*
X64883158Y-54132068D01*
X64596260Y-54075000D01*
X64303740Y-54075000D01*
X64016842Y-54132068D01*
X63746589Y-54244010D01*
X63503368Y-54406525D01*
X63296525Y-54613368D01*
X63180000Y-54787760D01*
X63063475Y-54613368D01*
X62856632Y-54406525D01*
X62613411Y-54244010D01*
X62343158Y-54132068D01*
X62056260Y-54075000D01*
X61763740Y-54075000D01*
X61476842Y-54132068D01*
X61206589Y-54244010D01*
X60963368Y-54406525D01*
X60756525Y-54613368D01*
X60640000Y-54787760D01*
X60523475Y-54613368D01*
X60316632Y-54406525D01*
X60073411Y-54244010D01*
X59803158Y-54132068D01*
X59516260Y-54075000D01*
X59223740Y-54075000D01*
X58936842Y-54132068D01*
X58666589Y-54244010D01*
X58423368Y-54406525D01*
X58216525Y-54613368D01*
X58100000Y-54787760D01*
X57983475Y-54613368D01*
X57776632Y-54406525D01*
X57533411Y-54244010D01*
X57263158Y-54132068D01*
X56976260Y-54075000D01*
X56683740Y-54075000D01*
X56396842Y-54132068D01*
X56126589Y-54244010D01*
X55883368Y-54406525D01*
X55676525Y-54613368D01*
X55560000Y-54787760D01*
X55443475Y-54613368D01*
X55236632Y-54406525D01*
X54993411Y-54244010D01*
X54723158Y-54132068D01*
X54436260Y-54075000D01*
X54143740Y-54075000D01*
X53856842Y-54132068D01*
X53586589Y-54244010D01*
X53343368Y-54406525D01*
X53136525Y-54613368D01*
X53020000Y-54787760D01*
X52903475Y-54613368D01*
X52696632Y-54406525D01*
X52453411Y-54244010D01*
X52183158Y-54132068D01*
X51896260Y-54075000D01*
X51603740Y-54075000D01*
X51316842Y-54132068D01*
X51046589Y-54244010D01*
X50803368Y-54406525D01*
X50596525Y-54613368D01*
X50480000Y-54787760D01*
X50363475Y-54613368D01*
X50156632Y-54406525D01*
X49913411Y-54244010D01*
X49643158Y-54132068D01*
X49356260Y-54075000D01*
X49063740Y-54075000D01*
X48776842Y-54132068D01*
X48506589Y-54244010D01*
X48263368Y-54406525D01*
X48056525Y-54613368D01*
X47940000Y-54787760D01*
X47823475Y-54613368D01*
X47616632Y-54406525D01*
X47373411Y-54244010D01*
X47103158Y-54132068D01*
X46816260Y-54075000D01*
X46523740Y-54075000D01*
X46236842Y-54132068D01*
X45966589Y-54244010D01*
X45723368Y-54406525D01*
X45516525Y-54613368D01*
X45400000Y-54787760D01*
X45283475Y-54613368D01*
X45076632Y-54406525D01*
X44833411Y-54244010D01*
X44563158Y-54132068D01*
X44276260Y-54075000D01*
X43983740Y-54075000D01*
X43696842Y-54132068D01*
X43426589Y-54244010D01*
X43183368Y-54406525D01*
X42976525Y-54613368D01*
X42860000Y-54787760D01*
X42743475Y-54613368D01*
X42536632Y-54406525D01*
X42293411Y-54244010D01*
X42023158Y-54132068D01*
X41736260Y-54075000D01*
X41443740Y-54075000D01*
X41156842Y-54132068D01*
X40886589Y-54244010D01*
X40643368Y-54406525D01*
X40436525Y-54613368D01*
X40320000Y-54787760D01*
X40203475Y-54613368D01*
X39996632Y-54406525D01*
X39753411Y-54244010D01*
X39483158Y-54132068D01*
X39196260Y-54075000D01*
X38903740Y-54075000D01*
X38616842Y-54132068D01*
X38346589Y-54244010D01*
X38103368Y-54406525D01*
X37896525Y-54613368D01*
X37780000Y-54787760D01*
X37663475Y-54613368D01*
X37456632Y-54406525D01*
X37213411Y-54244010D01*
X36943158Y-54132068D01*
X36656260Y-54075000D01*
X36363740Y-54075000D01*
X36076842Y-54132068D01*
X35806589Y-54244010D01*
X35563368Y-54406525D01*
X35356525Y-54613368D01*
X35240000Y-54787760D01*
X35123475Y-54613368D01*
X34916632Y-54406525D01*
X34673411Y-54244010D01*
X34403158Y-54132068D01*
X34116260Y-54075000D01*
X33823740Y-54075000D01*
X33536842Y-54132068D01*
X33266589Y-54244010D01*
X33023368Y-54406525D01*
X32816525Y-54613368D01*
X32700000Y-54787760D01*
X32583475Y-54613368D01*
X32376632Y-54406525D01*
X32133411Y-54244010D01*
X31863158Y-54132068D01*
X31576260Y-54075000D01*
X31283740Y-54075000D01*
X30996842Y-54132068D01*
X30726589Y-54244010D01*
X30483368Y-54406525D01*
X30276525Y-54613368D01*
X30114010Y-54856589D01*
X30002068Y-55126842D01*
X29945000Y-55413740D01*
X29945000Y-55706260D01*
X30002068Y-55993158D01*
X30114010Y-56263411D01*
X30276525Y-56506632D01*
X30420000Y-56650107D01*
X30420001Y-57009892D01*
X30276525Y-57153368D01*
X30253673Y-57187569D01*
X30125360Y-57256153D01*
X29971567Y-57382367D01*
X29939944Y-57420900D01*
X25079163Y-62281681D01*
X24890732Y-62244200D01*
X24529268Y-62244200D01*
X24174750Y-62314718D01*
X23840801Y-62453044D01*
X23540256Y-62653862D01*
X23284662Y-62909456D01*
X23083844Y-63210001D01*
X22945518Y-63543950D01*
X22875000Y-63898468D01*
X20701000Y-63898468D01*
X20701000Y-54079721D01*
X21675000Y-54079721D01*
X21675000Y-54500279D01*
X21757047Y-54912756D01*
X21917988Y-55301302D01*
X22151637Y-55650983D01*
X22449017Y-55948363D01*
X22798698Y-56182012D01*
X23187244Y-56342953D01*
X23599721Y-56425000D01*
X24020279Y-56425000D01*
X24432756Y-56342953D01*
X24821302Y-56182012D01*
X25170983Y-55948363D01*
X25468363Y-55650983D01*
X25702012Y-55301302D01*
X25862953Y-54912756D01*
X25945000Y-54500279D01*
X25945000Y-54079721D01*
X25862953Y-53667244D01*
X25702012Y-53278698D01*
X25468363Y-52929017D01*
X25170983Y-52631637D01*
X24821302Y-52397988D01*
X24432756Y-52237047D01*
X24020279Y-52155000D01*
X23599721Y-52155000D01*
X23187244Y-52237047D01*
X22798698Y-52397988D01*
X22449017Y-52631637D01*
X22151637Y-52929017D01*
X21917988Y-53278698D01*
X21757047Y-53667244D01*
X21675000Y-54079721D01*
X20701000Y-54079721D01*
X20701000Y-50523377D01*
X37916229Y-50523377D01*
X38042104Y-50813315D01*
X38374262Y-50979139D01*
X38732387Y-51076975D01*
X39102719Y-51103065D01*
X39471025Y-51056405D01*
X39823151Y-50938789D01*
X40057896Y-50813315D01*
X40183771Y-50523377D01*
X58236229Y-50523377D01*
X58362104Y-50813315D01*
X58694262Y-50979139D01*
X59052387Y-51076975D01*
X59422719Y-51103065D01*
X59791025Y-51056405D01*
X60143151Y-50938789D01*
X60377896Y-50813315D01*
X60503771Y-50523377D01*
X59370000Y-49389605D01*
X58236229Y-50523377D01*
X40183771Y-50523377D01*
X39050000Y-49389605D01*
X37916229Y-50523377D01*
X20701000Y-50523377D01*
X20701000Y-49262719D01*
X37156935Y-49262719D01*
X37203595Y-49631025D01*
X37321211Y-49983151D01*
X37446685Y-50217896D01*
X37736623Y-50343771D01*
X38870395Y-49210000D01*
X39229605Y-49210000D01*
X40363377Y-50343771D01*
X40653315Y-50217896D01*
X40819139Y-49885738D01*
X40916975Y-49527613D01*
X40935636Y-49262719D01*
X57476935Y-49262719D01*
X57523595Y-49631025D01*
X57641211Y-49983151D01*
X57766685Y-50217896D01*
X58056623Y-50343771D01*
X59190395Y-49210000D01*
X59549605Y-49210000D01*
X60683377Y-50343771D01*
X60973315Y-50217896D01*
X61139139Y-49885738D01*
X61236975Y-49527613D01*
X61263065Y-49157281D01*
X61216405Y-48788975D01*
X61098789Y-48436849D01*
X60973315Y-48202104D01*
X60883935Y-48163300D01*
X62888343Y-48163300D01*
X62888343Y-51183300D01*
X75694057Y-51183300D01*
X75694057Y-48163300D01*
X62888343Y-48163300D01*
X60883935Y-48163300D01*
X60683377Y-48076229D01*
X59549605Y-49210000D01*
X59190395Y-49210000D01*
X58056623Y-48076229D01*
X57766685Y-48202104D01*
X57600861Y-48534262D01*
X57503025Y-48892387D01*
X57476935Y-49262719D01*
X40935636Y-49262719D01*
X40943065Y-49157281D01*
X40896405Y-48788975D01*
X40778789Y-48436849D01*
X40653315Y-48202104D01*
X40363377Y-48076229D01*
X39229605Y-49210000D01*
X38870395Y-49210000D01*
X37736623Y-48076229D01*
X37446685Y-48202104D01*
X37280861Y-48534262D01*
X37183025Y-48892387D01*
X37156935Y-49262719D01*
X20701000Y-49262719D01*
X20701000Y-47896623D01*
X37916229Y-47896623D01*
X39050000Y-49030395D01*
X40183771Y-47896623D01*
X58236229Y-47896623D01*
X59370000Y-49030395D01*
X60503771Y-47896623D01*
X60377896Y-47606685D01*
X60045738Y-47440861D01*
X59687613Y-47343025D01*
X59317281Y-47316935D01*
X58948975Y-47363595D01*
X58596849Y-47481211D01*
X58362104Y-47606685D01*
X58236229Y-47896623D01*
X40183771Y-47896623D01*
X40057896Y-47606685D01*
X39725738Y-47440861D01*
X39367613Y-47343025D01*
X38997281Y-47316935D01*
X38628975Y-47363595D01*
X38276849Y-47481211D01*
X38042104Y-47606685D01*
X37916229Y-47896623D01*
X20701000Y-47896623D01*
X20701000Y-43919721D01*
X21675000Y-43919721D01*
X21675000Y-44340279D01*
X21757047Y-44752756D01*
X21917988Y-45141302D01*
X22151637Y-45490983D01*
X22449017Y-45788363D01*
X22798698Y-46022012D01*
X23187244Y-46182953D01*
X23599721Y-46265000D01*
X24020279Y-46265000D01*
X24432756Y-46182953D01*
X24821302Y-46022012D01*
X25170983Y-45788363D01*
X25468363Y-45490983D01*
X25702012Y-45141302D01*
X25862953Y-44752756D01*
X25945000Y-44340279D01*
X25945000Y-43919721D01*
X31835000Y-43919721D01*
X31835000Y-44340279D01*
X31917047Y-44752756D01*
X32077988Y-45141302D01*
X32311637Y-45490983D01*
X32609017Y-45788363D01*
X32958698Y-46022012D01*
X33347244Y-46182953D01*
X33759721Y-46265000D01*
X34180279Y-46265000D01*
X34592756Y-46182953D01*
X34981302Y-46022012D01*
X35330983Y-45788363D01*
X35628363Y-45490983D01*
X35862012Y-45141302D01*
X36022953Y-44752756D01*
X36105000Y-44340279D01*
X36105000Y-43919721D01*
X41995000Y-43919721D01*
X41995000Y-44340279D01*
X42077047Y-44752756D01*
X42237988Y-45141302D01*
X42471637Y-45490983D01*
X42769017Y-45788363D01*
X43118698Y-46022012D01*
X43507244Y-46182953D01*
X43919721Y-46265000D01*
X44340279Y-46265000D01*
X44752756Y-46182953D01*
X45141302Y-46022012D01*
X45490983Y-45788363D01*
X45788363Y-45490983D01*
X46022012Y-45141302D01*
X46182953Y-44752756D01*
X46265000Y-44340279D01*
X46265000Y-43919721D01*
X52155000Y-43919721D01*
X52155000Y-44340279D01*
X52237047Y-44752756D01*
X52397988Y-45141302D01*
X52631637Y-45490983D01*
X52929017Y-45788363D01*
X53278698Y-46022012D01*
X53667244Y-46182953D01*
X54079721Y-46265000D01*
X54500279Y-46265000D01*
X54912756Y-46182953D01*
X55301302Y-46022012D01*
X55650983Y-45788363D01*
X55948363Y-45490983D01*
X56182012Y-45141302D01*
X56342953Y-44752756D01*
X56425000Y-44340279D01*
X56425000Y-43919721D01*
X62315000Y-43919721D01*
X62315000Y-44340279D01*
X62397047Y-44752756D01*
X62557988Y-45141302D01*
X62791637Y-45490983D01*
X63089017Y-45788363D01*
X63438698Y-46022012D01*
X63827244Y-46182953D01*
X64239721Y-46265000D01*
X64660279Y-46265000D01*
X65072756Y-46182953D01*
X65461302Y-46022012D01*
X65810983Y-45788363D01*
X66108363Y-45490983D01*
X66342012Y-45141302D01*
X66502953Y-44752756D01*
X66585000Y-44340279D01*
X66585000Y-43919721D01*
X72475000Y-43919721D01*
X72475000Y-44340279D01*
X72557047Y-44752756D01*
X72717988Y-45141302D01*
X72951637Y-45490983D01*
X73249017Y-45788363D01*
X73598698Y-46022012D01*
X73987244Y-46182953D01*
X74399721Y-46265000D01*
X74820279Y-46265000D01*
X75232756Y-46182953D01*
X75621302Y-46022012D01*
X75970983Y-45788363D01*
X76268363Y-45490983D01*
X76502012Y-45141302D01*
X76662953Y-44752756D01*
X76745000Y-44340279D01*
X76745000Y-43919721D01*
X76662953Y-43507244D01*
X76502012Y-43118698D01*
X76268363Y-42769017D01*
X75970983Y-42471637D01*
X75621302Y-42237988D01*
X75232756Y-42077047D01*
X74820279Y-41995000D01*
X74399721Y-41995000D01*
X73987244Y-42077047D01*
X73598698Y-42237988D01*
X73249017Y-42471637D01*
X72951637Y-42769017D01*
X72717988Y-43118698D01*
X72557047Y-43507244D01*
X72475000Y-43919721D01*
X66585000Y-43919721D01*
X66502953Y-43507244D01*
X66342012Y-43118698D01*
X66108363Y-42769017D01*
X65810983Y-42471637D01*
X65461302Y-42237988D01*
X65072756Y-42077047D01*
X64660279Y-41995000D01*
X64239721Y-41995000D01*
X63827244Y-42077047D01*
X63438698Y-42237988D01*
X63089017Y-42471637D01*
X62791637Y-42769017D01*
X62557988Y-43118698D01*
X62397047Y-43507244D01*
X62315000Y-43919721D01*
X56425000Y-43919721D01*
X56342953Y-43507244D01*
X56182012Y-43118698D01*
X55948363Y-42769017D01*
X55650983Y-42471637D01*
X55301302Y-42237988D01*
X54912756Y-42077047D01*
X54500279Y-41995000D01*
X54079721Y-41995000D01*
X53667244Y-42077047D01*
X53278698Y-42237988D01*
X52929017Y-42471637D01*
X52631637Y-42769017D01*
X52397988Y-43118698D01*
X52237047Y-43507244D01*
X52155000Y-43919721D01*
X46265000Y-43919721D01*
X46182953Y-43507244D01*
X46022012Y-43118698D01*
X45788363Y-42769017D01*
X45490983Y-42471637D01*
X45141302Y-42237988D01*
X44752756Y-42077047D01*
X44340279Y-41995000D01*
X43919721Y-41995000D01*
X43507244Y-42077047D01*
X43118698Y-42237988D01*
X42769017Y-42471637D01*
X42471637Y-42769017D01*
X42237988Y-43118698D01*
X42077047Y-43507244D01*
X41995000Y-43919721D01*
X36105000Y-43919721D01*
X36022953Y-43507244D01*
X35862012Y-43118698D01*
X35628363Y-42769017D01*
X35330983Y-42471637D01*
X34981302Y-42237988D01*
X34592756Y-42077047D01*
X34180279Y-41995000D01*
X33759721Y-41995000D01*
X33347244Y-42077047D01*
X32958698Y-42237988D01*
X32609017Y-42471637D01*
X32311637Y-42769017D01*
X32077988Y-43118698D01*
X31917047Y-43507244D01*
X31835000Y-43919721D01*
X25945000Y-43919721D01*
X25862953Y-43507244D01*
X25702012Y-43118698D01*
X25468363Y-42769017D01*
X25170983Y-42471637D01*
X24821302Y-42237988D01*
X24432756Y-42077047D01*
X24020279Y-41995000D01*
X23599721Y-41995000D01*
X23187244Y-42077047D01*
X22798698Y-42237988D01*
X22449017Y-42471637D01*
X22151637Y-42769017D01*
X21917988Y-43118698D01*
X21757047Y-43507244D01*
X21675000Y-43919721D01*
X20701000Y-43919721D01*
X20701000Y-40363377D01*
X37916229Y-40363377D01*
X38042104Y-40653315D01*
X38374262Y-40819139D01*
X38732387Y-40916975D01*
X39102719Y-40943065D01*
X39471025Y-40896405D01*
X39823151Y-40778789D01*
X40057896Y-40653315D01*
X40183771Y-40363377D01*
X58236229Y-40363377D01*
X58362104Y-40653315D01*
X58694262Y-40819139D01*
X59052387Y-40916975D01*
X59422719Y-40943065D01*
X59791025Y-40896405D01*
X60143151Y-40778789D01*
X60377896Y-40653315D01*
X60503771Y-40363377D01*
X59370000Y-39229605D01*
X58236229Y-40363377D01*
X40183771Y-40363377D01*
X39050000Y-39229605D01*
X37916229Y-40363377D01*
X20701000Y-40363377D01*
X20701000Y-39102719D01*
X37156935Y-39102719D01*
X37203595Y-39471025D01*
X37321211Y-39823151D01*
X37446685Y-40057896D01*
X37736623Y-40183771D01*
X38870395Y-39050000D01*
X39229605Y-39050000D01*
X40363377Y-40183771D01*
X40653315Y-40057896D01*
X40819139Y-39725738D01*
X40916975Y-39367613D01*
X40935636Y-39102719D01*
X57476935Y-39102719D01*
X57523595Y-39471025D01*
X57641211Y-39823151D01*
X57766685Y-40057896D01*
X58056623Y-40183771D01*
X59190395Y-39050000D01*
X59549605Y-39050000D01*
X60683377Y-40183771D01*
X60973315Y-40057896D01*
X61139139Y-39725738D01*
X61236975Y-39367613D01*
X61263065Y-38997281D01*
X61223659Y-38686226D01*
X64460170Y-38686226D01*
X64460645Y-38799424D01*
X64460655Y-38799520D01*
X64460645Y-38799625D01*
X64460748Y-38808560D01*
X64462750Y-38916918D01*
X64462894Y-38918149D01*
X64462800Y-38919390D01*
X64463063Y-38928323D01*
X64466589Y-39025416D01*
X64467156Y-39029618D01*
X64466951Y-39033858D01*
X64467455Y-39042780D01*
X64472501Y-39122180D01*
X64474597Y-39135071D01*
X64474681Y-39148125D01*
X64475672Y-39157006D01*
X64482232Y-39212288D01*
X64494779Y-39269510D01*
X64506624Y-39326865D01*
X64508967Y-39334219D01*
X64508984Y-39334296D01*
X64509012Y-39334361D01*
X64509337Y-39335380D01*
X64517408Y-39360118D01*
X64535026Y-39400310D01*
X64550289Y-39441498D01*
X64560060Y-39457423D01*
X64567553Y-39474516D01*
X64592638Y-39510515D01*
X64615614Y-39547960D01*
X64628294Y-39561685D01*
X64638963Y-39576996D01*
X64670574Y-39607449D01*
X64700375Y-39639706D01*
X64715469Y-39650699D01*
X64728917Y-39663655D01*
X64765841Y-39687388D01*
X64801339Y-39713242D01*
X64809073Y-39717718D01*
X64813972Y-39720508D01*
X64825114Y-39725484D01*
X64833991Y-39731190D01*
X64867404Y-39744372D01*
X64868543Y-39744881D01*
X64922988Y-39769742D01*
X64927878Y-39771382D01*
X64928020Y-39771445D01*
X64928168Y-39771479D01*
X64931461Y-39772583D01*
X64967989Y-39784552D01*
X64986070Y-39788574D01*
X65003441Y-39795046D01*
X65012096Y-39797272D01*
X65075461Y-39813108D01*
X65080997Y-39813929D01*
X65086307Y-39815719D01*
X65095027Y-39817673D01*
X65177907Y-39835642D01*
X65180679Y-39835964D01*
X65183350Y-39836798D01*
X65192112Y-39838554D01*
X65287180Y-39856921D01*
X65287302Y-39856932D01*
X65293753Y-39858155D01*
X65325362Y-39863920D01*
X65471853Y-39890822D01*
X65503628Y-39896790D01*
X65514558Y-39924803D01*
X65461265Y-40002433D01*
X65461244Y-40002470D01*
X65460845Y-40003045D01*
X65442628Y-40029647D01*
X65442559Y-40029773D01*
X65439312Y-40034537D01*
X65375256Y-40129956D01*
X65374987Y-40130456D01*
X65374621Y-40130902D01*
X65369706Y-40138365D01*
X65314346Y-40223702D01*
X65313357Y-40225613D01*
X65312024Y-40227307D01*
X65307264Y-40234870D01*
X65263762Y-40305062D01*
X65260514Y-40311667D01*
X65256180Y-40317615D01*
X65251702Y-40325348D01*
X65223217Y-40375337D01*
X65208992Y-40407175D01*
X65192064Y-40437670D01*
X65188568Y-40445894D01*
X65178260Y-40470616D01*
X65173054Y-40487607D01*
X65172263Y-40489378D01*
X65171532Y-40492575D01*
X65166649Y-40508515D01*
X65152349Y-40545506D01*
X65148390Y-40568110D01*
X65141670Y-40590043D01*
X65137641Y-40629478D01*
X65130799Y-40668539D01*
X65131306Y-40691481D01*
X65128974Y-40714302D01*
X65132682Y-40753777D01*
X65133557Y-40793415D01*
X65138508Y-40815814D01*
X65140654Y-40838661D01*
X65145791Y-40855931D01*
X65146756Y-40863716D01*
X65153845Y-40885198D01*
X65160516Y-40915376D01*
X65163346Y-40923852D01*
X65165568Y-40930352D01*
X65172390Y-40945347D01*
X65176268Y-40958382D01*
X65180901Y-40967182D01*
X65185900Y-40982330D01*
X65202946Y-41012504D01*
X65217296Y-41044044D01*
X65232579Y-41065340D01*
X65234457Y-41068907D01*
X65235624Y-41070350D01*
X65247336Y-41091082D01*
X65252521Y-41098361D01*
X65275674Y-41130388D01*
X65292230Y-41149126D01*
X65306485Y-41169686D01*
X65312317Y-41176457D01*
X65357998Y-41228758D01*
X65363322Y-41233769D01*
X65367710Y-41239626D01*
X65373786Y-41246178D01*
X65438722Y-41315232D01*
X65440753Y-41317007D01*
X65442420Y-41319132D01*
X65448642Y-41325547D01*
X65529564Y-41407834D01*
X65530353Y-41408493D01*
X65531003Y-41409293D01*
X65537333Y-41415600D01*
X65630967Y-41507600D01*
X65631062Y-41507676D01*
X65635776Y-41512275D01*
X65689296Y-41563770D01*
X65689414Y-41563863D01*
X65692783Y-41567101D01*
X65777407Y-41647303D01*
X65777497Y-41647373D01*
X65782447Y-41652028D01*
X65856513Y-41720723D01*
X65856787Y-41720932D01*
X65857016Y-41721189D01*
X65863617Y-41727212D01*
X65923150Y-41780786D01*
X65926984Y-41783611D01*
X65930251Y-41787082D01*
X65937022Y-41792913D01*
X65978046Y-41827745D01*
X66003707Y-41845536D01*
X66027508Y-41865755D01*
X66034886Y-41870797D01*
X66053422Y-41883275D01*
X66074687Y-41894748D01*
X66080695Y-41898913D01*
X66089581Y-41902783D01*
X66094230Y-41905291D01*
X66133877Y-41929341D01*
X66149099Y-41934893D01*
X66163350Y-41942582D01*
X66207651Y-41956251D01*
X66251221Y-41972144D01*
X66267226Y-41974633D01*
X66282704Y-41979409D01*
X66328828Y-41984214D01*
X66374643Y-41991340D01*
X66390824Y-41990673D01*
X66406938Y-41992352D01*
X66453125Y-41988106D01*
X66499443Y-41986197D01*
X66515186Y-41982400D01*
X66531319Y-41980917D01*
X66575797Y-41967782D01*
X66604594Y-41960837D01*
X66612418Y-41959236D01*
X66614021Y-41958563D01*
X66620868Y-41956912D01*
X66629288Y-41953920D01*
X66642023Y-41949295D01*
X66647873Y-41946497D01*
X66651111Y-41945541D01*
X66664074Y-41938749D01*
X66684332Y-41929061D01*
X66727595Y-41910907D01*
X66735429Y-41906607D01*
X66774639Y-41884726D01*
X66784686Y-41877753D01*
X66795704Y-41872439D01*
X66803303Y-41867736D01*
X66860244Y-41831952D01*
X66864386Y-41828745D01*
X66869041Y-41826324D01*
X66876494Y-41821393D01*
X66943740Y-41776237D01*
X66943802Y-41776186D01*
X66950136Y-41771885D01*
X66997488Y-41739251D01*
X67091472Y-41674820D01*
X67153288Y-41632643D01*
X67183840Y-41642801D01*
X67214264Y-41656125D01*
X67222780Y-41658834D01*
X67249856Y-41667241D01*
X67269569Y-41671305D01*
X67270868Y-41671737D01*
X67272918Y-41671996D01*
X67310374Y-41679718D01*
X67370760Y-41692309D01*
X67371482Y-41692316D01*
X67372189Y-41692462D01*
X67433561Y-41692943D01*
X67495660Y-41693570D01*
X67496378Y-41693435D01*
X67497091Y-41693441D01*
X67557366Y-41681997D01*
X67618426Y-41670546D01*
X67619097Y-41670278D01*
X67619805Y-41670143D01*
X67676910Y-41647128D01*
X67734382Y-41624115D01*
X67734990Y-41623720D01*
X67735657Y-41623451D01*
X67787234Y-41589763D01*
X67839111Y-41556045D01*
X67839629Y-41555541D01*
X67840232Y-41555147D01*
X67884111Y-41512252D01*
X67928624Y-41468932D01*
X67929499Y-41467881D01*
X67929549Y-41467832D01*
X67929593Y-41467768D01*
X67934341Y-41462064D01*
X67943202Y-41451268D01*
X67975500Y-41402981D01*
X68008473Y-41355113D01*
X68012641Y-41347454D01*
X68012647Y-41347446D01*
X68012650Y-41347438D01*
X68012745Y-41347264D01*
X68034749Y-41306157D01*
X68038490Y-41297152D01*
X68043661Y-41288883D01*
X68047580Y-41280853D01*
X68080081Y-41213078D01*
X68080583Y-41211701D01*
X68081338Y-41210442D01*
X68085108Y-41202340D01*
X68126297Y-41112200D01*
X68126336Y-41112088D01*
X68129075Y-41106035D01*
X68177143Y-40997832D01*
X68177195Y-40997674D01*
X68178988Y-40993636D01*
X68232129Y-40871668D01*
X68232176Y-40871522D01*
X68233527Y-40868434D01*
X68289930Y-40737004D01*
X68289971Y-40736876D01*
X68291113Y-40734230D01*
X68348970Y-40597640D01*
X68349009Y-40597515D01*
X68350072Y-40595023D01*
X68407576Y-40457572D01*
X68407615Y-40457444D01*
X68408706Y-40454854D01*
X68411501Y-40448085D01*
X68461295Y-40567478D01*
X68461360Y-40567599D01*
X68462403Y-40570117D01*
X68520305Y-40707222D01*
X68520367Y-40707337D01*
X68521469Y-40709962D01*
X68578275Y-40842745D01*
X68578346Y-40842874D01*
X68579630Y-40845889D01*
X68633534Y-40970047D01*
X68633608Y-40970181D01*
X68635282Y-40974037D01*
X68684476Y-41085269D01*
X68684544Y-41085389D01*
X68687028Y-41090964D01*
X68729703Y-41184967D01*
X68730101Y-41185657D01*
X68730363Y-41186418D01*
X68734135Y-41194519D01*
X68768485Y-41266992D01*
X68772171Y-41273137D01*
X68774748Y-41279836D01*
X68778811Y-41287795D01*
X68803027Y-41334435D01*
X68828587Y-41373736D01*
X68852197Y-41414240D01*
X68857480Y-41421448D01*
X68869754Y-41437952D01*
X68903179Y-41474765D01*
X68935118Y-41512896D01*
X68945103Y-41520938D01*
X68953718Y-41530427D01*
X68993652Y-41560044D01*
X69032393Y-41591248D01*
X69043752Y-41597199D01*
X69054044Y-41604832D01*
X69098975Y-41626131D01*
X69143035Y-41649214D01*
X69155327Y-41652844D01*
X69166912Y-41658335D01*
X69215136Y-41670503D01*
X69262828Y-41684585D01*
X69275593Y-41685758D01*
X69288022Y-41688894D01*
X69337692Y-41691464D01*
X69387211Y-41696014D01*
X69399958Y-41694686D01*
X69412761Y-41695348D01*
X69461978Y-41688222D01*
X69488775Y-41685429D01*
X69502783Y-41684393D01*
X69505248Y-41683713D01*
X69511443Y-41683067D01*
X69520186Y-41681216D01*
X69530394Y-41678981D01*
X69534103Y-41677779D01*
X69536378Y-41677450D01*
X69550455Y-41672482D01*
X69576474Y-41664053D01*
X69623187Y-41651160D01*
X69631505Y-41647894D01*
X69669632Y-41632620D01*
X69691064Y-41647216D01*
X69789496Y-41714560D01*
X69873185Y-41772149D01*
X69873321Y-41772224D01*
X69876288Y-41774270D01*
X69922819Y-41805889D01*
X69924744Y-41806938D01*
X69926439Y-41808331D01*
X69933899Y-41813251D01*
X69994378Y-41852535D01*
X70000622Y-41855772D01*
X70006215Y-41860041D01*
X70013847Y-41864690D01*
X70058690Y-41891582D01*
X70087339Y-41905155D01*
X70114559Y-41921432D01*
X70122667Y-41925191D01*
X70144569Y-41935162D01*
X70160978Y-41940773D01*
X70176433Y-41948641D01*
X70219960Y-41960941D01*
X70262756Y-41975575D01*
X70279943Y-41977892D01*
X70296632Y-41982608D01*
X70341724Y-41986220D01*
X70386543Y-41992262D01*
X70403849Y-41991197D01*
X70421140Y-41992582D01*
X70466063Y-41987368D01*
X70511213Y-41984589D01*
X70527993Y-41980180D01*
X70545213Y-41978181D01*
X70571784Y-41969640D01*
X70575268Y-41969118D01*
X70589494Y-41964019D01*
X70632018Y-41952845D01*
X70647613Y-41945265D01*
X70664126Y-41939957D01*
X70672301Y-41936348D01*
X70681711Y-41932115D01*
X70687059Y-41929050D01*
X70692850Y-41926974D01*
X70725605Y-41907356D01*
X70744357Y-41898242D01*
X70755431Y-41889860D01*
X70790078Y-41870001D01*
X70794722Y-41865962D01*
X70800007Y-41862796D01*
X70807151Y-41857428D01*
X70841165Y-41831499D01*
X70853154Y-41820351D01*
X70866628Y-41811041D01*
X70873409Y-41805220D01*
X70925845Y-41759569D01*
X70928621Y-41756630D01*
X70931887Y-41754242D01*
X70938511Y-41748243D01*
X71004805Y-41687359D01*
X71005155Y-41686968D01*
X71005576Y-41686650D01*
X71012105Y-41680549D01*
X71087693Y-41608924D01*
X71087754Y-41608854D01*
X71093005Y-41603832D01*
X71173322Y-41525954D01*
X71173407Y-41525854D01*
X71177958Y-41521413D01*
X71258441Y-41441775D01*
X71258515Y-41441686D01*
X71263272Y-41436944D01*
X71339083Y-41360309D01*
X71339089Y-41360304D01*
X71339173Y-41360217D01*
X71339356Y-41360033D01*
X71339367Y-41360019D01*
X71345333Y-41353911D01*
X71412455Y-41284220D01*
X71413760Y-41282569D01*
X71415357Y-41281188D01*
X71421468Y-41274668D01*
X71475063Y-41216687D01*
X71480449Y-41209578D01*
X71486947Y-41203467D01*
X71492781Y-41196698D01*
X71528285Y-41154918D01*
X71554405Y-41117277D01*
X71582450Y-41081057D01*
X71587152Y-41073458D01*
X71600002Y-41052367D01*
X71617987Y-41015081D01*
X71638403Y-40979048D01*
X71645069Y-40958933D01*
X71654267Y-40939864D01*
X71664666Y-40899801D01*
X71677696Y-40860483D01*
X71680327Y-40839462D01*
X71685648Y-40818964D01*
X71688069Y-40777623D01*
X71693211Y-40736544D01*
X71691710Y-40715424D01*
X71692949Y-40694272D01*
X71687293Y-40653250D01*
X71684359Y-40611952D01*
X71682797Y-40603154D01*
X71682056Y-40599142D01*
X71677985Y-40585005D01*
X71676068Y-40570426D01*
X71660734Y-40525097D01*
X71647492Y-40479113D01*
X71640757Y-40466044D01*
X71636042Y-40452107D01*
X71632309Y-40443988D01*
X71617016Y-40411327D01*
X71605186Y-40391396D01*
X71595895Y-40370163D01*
X71591476Y-40362396D01*
X71558807Y-40305888D01*
X71555234Y-40300904D01*
X71552592Y-40295371D01*
X71547919Y-40287754D01*
X71501031Y-40212504D01*
X71499751Y-40210837D01*
X71498803Y-40208953D01*
X71493974Y-40201434D01*
X71436023Y-40112546D01*
X71435480Y-40111868D01*
X71435071Y-40111088D01*
X71430118Y-40103650D01*
X71364262Y-40006229D01*
X71364157Y-40006102D01*
X71361471Y-40002135D01*
X71343362Y-39975789D01*
X71308387Y-39924795D01*
X71310159Y-39920099D01*
X71319282Y-39896808D01*
X71376222Y-39886175D01*
X71529671Y-39858067D01*
X71529760Y-39858041D01*
X71531307Y-39857765D01*
X71563379Y-39851804D01*
X71563444Y-39851785D01*
X71563516Y-39851779D01*
X71572290Y-39850082D01*
X71664167Y-39831654D01*
X71667324Y-39830692D01*
X71670608Y-39830328D01*
X71679338Y-39828420D01*
X71756624Y-39810960D01*
X71764046Y-39808501D01*
X71771778Y-39807342D01*
X71780428Y-39805101D01*
X71835799Y-39790342D01*
X71866316Y-39778917D01*
X71897777Y-39770395D01*
X71906111Y-39767169D01*
X71932242Y-39756846D01*
X71951085Y-39747180D01*
X71952776Y-39746547D01*
X71955003Y-39745170D01*
X71967673Y-39738671D01*
X72004315Y-39723051D01*
X72023125Y-39710226D01*
X72043379Y-39699836D01*
X72074605Y-39675125D01*
X72107515Y-39652686D01*
X72123477Y-39636450D01*
X72141326Y-39622325D01*
X72167166Y-39592011D01*
X72195082Y-39563615D01*
X72207580Y-39544598D01*
X72222353Y-39527267D01*
X72232733Y-39508726D01*
X72237053Y-39503352D01*
X72246235Y-39485781D01*
X72263682Y-39459234D01*
X72267782Y-39451293D01*
X72272154Y-39442680D01*
X72277770Y-39428285D01*
X72283372Y-39418279D01*
X72286454Y-39408818D01*
X72294903Y-39392650D01*
X72304804Y-39358990D01*
X72317551Y-39326316D01*
X72322382Y-39299229D01*
X72330150Y-39272821D01*
X72331762Y-39264031D01*
X72339050Y-39222660D01*
X72340924Y-39198252D01*
X72345686Y-39174234D01*
X72346497Y-39165335D01*
X72352273Y-39096749D01*
X72352174Y-39089547D01*
X72353318Y-39082428D01*
X72353806Y-39073505D01*
X72358065Y-38984133D01*
X72357948Y-38981798D01*
X72358270Y-38979480D01*
X72358567Y-38970549D01*
X72361304Y-38866816D01*
X72361268Y-38866313D01*
X72361330Y-38865810D01*
X72361489Y-38856875D01*
X72362698Y-38745401D01*
X72362699Y-38745391D01*
X72362735Y-38736455D01*
X72362415Y-38623277D01*
X72362405Y-38623174D01*
X72362415Y-38623064D01*
X72362324Y-38614129D01*
X72360470Y-38505867D01*
X72360326Y-38504620D01*
X72360423Y-38503360D01*
X72360172Y-38494427D01*
X72356778Y-38397509D01*
X72356211Y-38393266D01*
X72356423Y-38388987D01*
X72355929Y-38380065D01*
X72350992Y-38300916D01*
X72348884Y-38287858D01*
X72348808Y-38274634D01*
X72347823Y-38265753D01*
X72341338Y-38210800D01*
X72328542Y-38152264D01*
X72316199Y-38093581D01*
X72314697Y-38088926D01*
X72314664Y-38088775D01*
X72314603Y-38088635D01*
X72313455Y-38085077D01*
X72305418Y-38060745D01*
X72299830Y-38048122D01*
X72296220Y-38034784D01*
X72274580Y-37991084D01*
X72254856Y-37946530D01*
X72246921Y-37935231D01*
X72240790Y-37922850D01*
X72211073Y-37884185D01*
X72183072Y-37844312D01*
X72173095Y-37834770D01*
X72164675Y-37823815D01*
X72128033Y-37791675D01*
X72092802Y-37757982D01*
X72081150Y-37750553D01*
X72070772Y-37741450D01*
X72028592Y-37717043D01*
X71987481Y-37690831D01*
X71974616Y-37685810D01*
X71962661Y-37678892D01*
X71954501Y-37675250D01*
X71946294Y-37671655D01*
X71907312Y-37658947D01*
X71869267Y-37643643D01*
X71860673Y-37641193D01*
X71819851Y-37629863D01*
X71810812Y-37628283D01*
X71802155Y-37625222D01*
X71793464Y-37623140D01*
X71724459Y-37607114D01*
X71723068Y-37606932D01*
X71721728Y-37606485D01*
X71713000Y-37604563D01*
X71621322Y-37585036D01*
X71621241Y-37585027D01*
X71613864Y-37583494D01*
X71505017Y-37561661D01*
X71504883Y-37561648D01*
X71498852Y-37560456D01*
X71378344Y-37537512D01*
X71378218Y-37537501D01*
X71375863Y-37537045D01*
X71311126Y-37524984D01*
X71292235Y-37521423D01*
X71341005Y-37449979D01*
X71378494Y-37395157D01*
X71378570Y-37395019D01*
X71381128Y-37391275D01*
X71446340Y-37294397D01*
X71446395Y-37294296D01*
X71450156Y-37288662D01*
X71506067Y-37203640D01*
X71506187Y-37203411D01*
X71506352Y-37203207D01*
X71511203Y-37195702D01*
X71554833Y-37127171D01*
X71556829Y-37123235D01*
X71559507Y-37119718D01*
X71564149Y-37112081D01*
X71592513Y-37064679D01*
X71604535Y-37039240D01*
X71619226Y-37015231D01*
X71623067Y-37007163D01*
X71633185Y-36985526D01*
X71642864Y-36958135D01*
X71645882Y-36951749D01*
X71647751Y-36944305D01*
X71652471Y-36930948D01*
X71672566Y-36876551D01*
X71673286Y-36872044D01*
X71674801Y-36867756D01*
X71683115Y-36810499D01*
X71692265Y-36753208D01*
X71692096Y-36748651D01*
X71692750Y-36744146D01*
X71689781Y-36686291D01*
X71687632Y-36628387D01*
X71686583Y-36623957D01*
X71686349Y-36619404D01*
X71672185Y-36563173D01*
X71658842Y-36506844D01*
X71656953Y-36502703D01*
X71655839Y-36498282D01*
X71631037Y-36445904D01*
X71615307Y-36411427D01*
X71611593Y-36402409D01*
X71610311Y-36400478D01*
X71606994Y-36393208D01*
X71602455Y-36385510D01*
X71595424Y-36373774D01*
X71567993Y-36336738D01*
X71542506Y-36298349D01*
X71536812Y-36291462D01*
X71507405Y-36256393D01*
X71501441Y-36250549D01*
X71496548Y-36243782D01*
X71490583Y-36237128D01*
X71442339Y-36184055D01*
X71441562Y-36183352D01*
X71440929Y-36182508D01*
X71434851Y-36175958D01*
X71372199Y-36109377D01*
X71372106Y-36109296D01*
X71367595Y-36104536D01*
X71294963Y-36028945D01*
X71294845Y-36028844D01*
X71291477Y-36025345D01*
X71213293Y-35945243D01*
X71213174Y-35945142D01*
X71210139Y-35942034D01*
X71130833Y-35861916D01*
X71130709Y-35861813D01*
X71127449Y-35858523D01*
X71051451Y-35782888D01*
X71051345Y-35782802D01*
X71047106Y-35778605D01*
X70978842Y-35711949D01*
X70978632Y-35711780D01*
X70978456Y-35711572D01*
X70972013Y-35705380D01*
X70915911Y-35652199D01*
X70911638Y-35648876D01*
X70908024Y-35644848D01*
X70901394Y-35638857D01*
X70861884Y-35603651D01*
X70833233Y-35582756D01*
X70806454Y-35559513D01*
X70799130Y-35554393D01*
X70780641Y-35541659D01*
X70765058Y-35533037D01*
X70760964Y-35530051D01*
X70760093Y-35529647D01*
X70747714Y-35520437D01*
X70708928Y-35501979D01*
X70671349Y-35481186D01*
X70652659Y-35475201D01*
X70634928Y-35466763D01*
X70593279Y-35456186D01*
X70552394Y-35443094D01*
X70532901Y-35440853D01*
X70513864Y-35436019D01*
X70470962Y-35433734D01*
X70428305Y-35428831D01*
X70408740Y-35430420D01*
X70389135Y-35429376D01*
X70346618Y-35435466D01*
X70303808Y-35438943D01*
X70284921Y-35444303D01*
X70265491Y-35447086D01*
X70224968Y-35461317D01*
X70183647Y-35473044D01*
X70166164Y-35481969D01*
X70147641Y-35488474D01*
X70139566Y-35492300D01*
X70129301Y-35497251D01*
X70106360Y-35511228D01*
X70081999Y-35522564D01*
X70074336Y-35527161D01*
X70036649Y-35550125D01*
X70034099Y-35552044D01*
X70031238Y-35553459D01*
X70023687Y-35558237D01*
X69962869Y-35597318D01*
X69962774Y-35597393D01*
X69957151Y-35601036D01*
X69877586Y-35653370D01*
X69877464Y-35653469D01*
X69873871Y-35655832D01*
X69779941Y-35718556D01*
X69779824Y-35718652D01*
X69776908Y-35720594D01*
X69672998Y-35790843D01*
X69672924Y-35790904D01*
X69671569Y-35791812D01*
X69602676Y-35838659D01*
X69586936Y-35755166D01*
X69586935Y-35755162D01*
X69503116Y-35310543D01*
X69502921Y-35309875D01*
X69502858Y-35309183D01*
X69485415Y-35249918D01*
X69468109Y-35190643D01*
X69467789Y-35190027D01*
X69467592Y-35189359D01*
X69438994Y-35134657D01*
X69410480Y-35079826D01*
X69410044Y-35079282D01*
X69409723Y-35078667D01*
X69371136Y-35030674D01*
X69332425Y-34982312D01*
X69331891Y-34981862D01*
X69331457Y-34981322D01*
X69284078Y-34941567D01*
X69236914Y-34901818D01*
X69236309Y-34901484D01*
X69235773Y-34901034D01*
X69181367Y-34871124D01*
X69127588Y-34841407D01*
X69126929Y-34841196D01*
X69126317Y-34840860D01*
X69067472Y-34822194D01*
X69008612Y-34803382D01*
X69007918Y-34803303D01*
X69007257Y-34803093D01*
X68945934Y-34796214D01*
X68884514Y-34789190D01*
X68883822Y-34789247D01*
X68883130Y-34789169D01*
X68874194Y-34789107D01*
X67948746Y-34789107D01*
X67948057Y-34789175D01*
X67947363Y-34789108D01*
X67885778Y-34795281D01*
X67824436Y-34801296D01*
X67823771Y-34801497D01*
X67823080Y-34801566D01*
X67763914Y-34819569D01*
X67704861Y-34837398D01*
X67704249Y-34837723D01*
X67703583Y-34837926D01*
X67649133Y-34867029D01*
X67594575Y-34896037D01*
X67594035Y-34896477D01*
X67593424Y-34896804D01*
X67545552Y-34936019D01*
X67497780Y-34974982D01*
X67497340Y-34975514D01*
X67496799Y-34975957D01*
X67457260Y-35023962D01*
X67418162Y-35071224D01*
X67417834Y-35071831D01*
X67417389Y-35072371D01*
X67388007Y-35126995D01*
X67358754Y-35181097D01*
X67358549Y-35181760D01*
X67358219Y-35182373D01*
X67340038Y-35241557D01*
X67321818Y-35300417D01*
X67321746Y-35301106D01*
X67321541Y-35301772D01*
X67319824Y-35310542D01*
X67236003Y-35755166D01*
X67236003Y-35755167D01*
X67220263Y-35838659D01*
X67151369Y-35791812D01*
X67151315Y-35791782D01*
X67150398Y-35791152D01*
X67076961Y-35741412D01*
X67076839Y-35741345D01*
X67074517Y-35739765D01*
X66977162Y-35674477D01*
X66977024Y-35674403D01*
X66973831Y-35672258D01*
X66889543Y-35616494D01*
X66889407Y-35616422D01*
X66884795Y-35613384D01*
X66817952Y-35570008D01*
X66817019Y-35569525D01*
X66816190Y-35568868D01*
X66808644Y-35564081D01*
X66763621Y-35535956D01*
X66747639Y-35528025D01*
X66732917Y-35517943D01*
X66725057Y-35513692D01*
X66706233Y-35503682D01*
X66691588Y-35497644D01*
X66677980Y-35489540D01*
X66633953Y-35473883D01*
X66590756Y-35456074D01*
X66575222Y-35452997D01*
X66560294Y-35447688D01*
X66514055Y-35440880D01*
X66468230Y-35431802D01*
X66452392Y-35431800D01*
X66436720Y-35429493D01*
X66390057Y-35431794D01*
X66343324Y-35431790D01*
X66327784Y-35434866D01*
X66311966Y-35435646D01*
X66266629Y-35446970D01*
X66220795Y-35456042D01*
X66206152Y-35462076D01*
X66190782Y-35465915D01*
X66148506Y-35485830D01*
X66105309Y-35503630D01*
X66092347Y-35512240D01*
X66085800Y-35515047D01*
X66084294Y-35516078D01*
X66077786Y-35519144D01*
X66070144Y-35523776D01*
X66058583Y-35530895D01*
X66021331Y-35559196D01*
X66010698Y-35566477D01*
X66001267Y-35572742D01*
X66000638Y-35573366D01*
X65982743Y-35585621D01*
X65975938Y-35591413D01*
X65941381Y-35621246D01*
X65935559Y-35627360D01*
X65928787Y-35632410D01*
X65922221Y-35638472D01*
X65869923Y-35687430D01*
X65869206Y-35688247D01*
X65868340Y-35688916D01*
X65861881Y-35695091D01*
X65796275Y-35758679D01*
X65796197Y-35758770D01*
X65791478Y-35763377D01*
X65716995Y-35837100D01*
X65716895Y-35837220D01*
X65713435Y-35840651D01*
X65634505Y-35920013D01*
X65634403Y-35920138D01*
X65631325Y-35923234D01*
X65552382Y-36003740D01*
X65552284Y-36003862D01*
X65549030Y-36007184D01*
X65474502Y-36084338D01*
X65474417Y-36084445D01*
X65470269Y-36088762D01*
X65404590Y-36158070D01*
X65404420Y-36158289D01*
X65404208Y-36158473D01*
X65398113Y-36165008D01*
X65345713Y-36221972D01*
X65342453Y-36226296D01*
X65338469Y-36229980D01*
X65332578Y-36236699D01*
X65297888Y-36276826D01*
X65277533Y-36305635D01*
X65254801Y-36332600D01*
X65249788Y-36339997D01*
X65237240Y-36358790D01*
X65228731Y-36374706D01*
X65225811Y-36378838D01*
X65222231Y-36386864D01*
X65216168Y-36398203D01*
X65192923Y-36436398D01*
X65186773Y-36453184D01*
X65178348Y-36468941D01*
X65165333Y-36511696D01*
X65149950Y-36553680D01*
X65147177Y-36571343D01*
X65141974Y-36588434D01*
X65137511Y-36632902D01*
X65130575Y-36677074D01*
X65131285Y-36694931D01*
X65129500Y-36712715D01*
X65133761Y-36757216D01*
X65135537Y-36801882D01*
X65139703Y-36819265D01*
X65141406Y-36837053D01*
X65154224Y-36879863D01*
X65156964Y-36891297D01*
X65161366Y-36912554D01*
X65162966Y-36916343D01*
X65164645Y-36923348D01*
X65167625Y-36931773D01*
X65170544Y-36939846D01*
X65174959Y-36949112D01*
X65177234Y-36956710D01*
X65190834Y-36982428D01*
X65191240Y-36983280D01*
X65209966Y-37027616D01*
X65214285Y-37035440D01*
X65234496Y-37071458D01*
X65240298Y-37079776D01*
X65244668Y-37088934D01*
X65249339Y-37096553D01*
X65286247Y-37155827D01*
X65287298Y-37157196D01*
X65288075Y-37158747D01*
X65292892Y-37166274D01*
X65343506Y-37244160D01*
X65343541Y-37244204D01*
X65347881Y-37250803D01*
X65409207Y-37342654D01*
X65409285Y-37342750D01*
X65412853Y-37348056D01*
X65481899Y-37449225D01*
X65481962Y-37449300D01*
X65482949Y-37450759D01*
X65519817Y-37504443D01*
X65531260Y-37521308D01*
X65446696Y-37537116D01*
X65446658Y-37537127D01*
X65446028Y-37537241D01*
X65383248Y-37549046D01*
X65383100Y-37549089D01*
X65378734Y-37549911D01*
X65263505Y-37572436D01*
X65263389Y-37572471D01*
X65256876Y-37573769D01*
X65156126Y-37594571D01*
X65156023Y-37594603D01*
X65155902Y-37594616D01*
X65147164Y-37596488D01*
X65066400Y-37614373D01*
X65062637Y-37615602D01*
X65058713Y-37616125D01*
X65050027Y-37618225D01*
X64994755Y-37631998D01*
X64971387Y-37640316D01*
X64947191Y-37645825D01*
X64938733Y-37648710D01*
X64914460Y-37657176D01*
X64882578Y-37671927D01*
X64877081Y-37673883D01*
X64872680Y-37676506D01*
X64869302Y-37678068D01*
X64823326Y-37697156D01*
X64812697Y-37704257D01*
X64801099Y-37709623D01*
X64760859Y-37738889D01*
X64719466Y-37766543D01*
X64710418Y-37775574D01*
X64700084Y-37783090D01*
X64666282Y-37819628D01*
X64664991Y-37820917D01*
X64663622Y-37822065D01*
X64662735Y-37823168D01*
X64631061Y-37854783D01*
X64623945Y-37865391D01*
X64615261Y-37874778D01*
X64595889Y-37906302D01*
X64585352Y-37919406D01*
X64577018Y-37935347D01*
X64561479Y-37958512D01*
X64557304Y-37966413D01*
X64552944Y-37974805D01*
X64551351Y-37978778D01*
X64549864Y-37981197D01*
X64543412Y-37998571D01*
X64541600Y-38003090D01*
X64527480Y-38030097D01*
X64518408Y-38060918D01*
X64506449Y-38090735D01*
X64500816Y-38120680D01*
X64492209Y-38149919D01*
X64490596Y-38158708D01*
X64483364Y-38199714D01*
X64481456Y-38224503D01*
X64476644Y-38248900D01*
X64475841Y-38257800D01*
X64470158Y-38326096D01*
X64470265Y-38333384D01*
X64469117Y-38340588D01*
X64468641Y-38349511D01*
X64464505Y-38438673D01*
X64464626Y-38441030D01*
X64464304Y-38443372D01*
X64464019Y-38452303D01*
X64461424Y-38555902D01*
X64461461Y-38556411D01*
X64461399Y-38556921D01*
X64461252Y-38565856D01*
X64460195Y-38677282D01*
X64460194Y-38677289D01*
X64460194Y-38677392D01*
X64460193Y-38677468D01*
X64460194Y-38677474D01*
X64460170Y-38686226D01*
X61223659Y-38686226D01*
X61216405Y-38628975D01*
X61098789Y-38276849D01*
X60973315Y-38042104D01*
X60683377Y-37916229D01*
X59549605Y-39050000D01*
X59190395Y-39050000D01*
X58056623Y-37916229D01*
X57766685Y-38042104D01*
X57600861Y-38374262D01*
X57503025Y-38732387D01*
X57476935Y-39102719D01*
X40935636Y-39102719D01*
X40943065Y-38997281D01*
X40896405Y-38628975D01*
X40778789Y-38276849D01*
X40653315Y-38042104D01*
X40363377Y-37916229D01*
X39229605Y-39050000D01*
X38870395Y-39050000D01*
X37736623Y-37916229D01*
X37446685Y-38042104D01*
X37280861Y-38374262D01*
X37183025Y-38732387D01*
X37156935Y-39102719D01*
X20701000Y-39102719D01*
X20701000Y-37736623D01*
X37916229Y-37736623D01*
X39050000Y-38870395D01*
X40183771Y-37736623D01*
X58236229Y-37736623D01*
X59370000Y-38870395D01*
X60503771Y-37736623D01*
X60377896Y-37446685D01*
X60045738Y-37280861D01*
X59687613Y-37183025D01*
X59317281Y-37156935D01*
X58948975Y-37203595D01*
X58596849Y-37321211D01*
X58362104Y-37446685D01*
X58236229Y-37736623D01*
X40183771Y-37736623D01*
X40057896Y-37446685D01*
X39725738Y-37280861D01*
X39367613Y-37183025D01*
X38997281Y-37156935D01*
X38628975Y-37203595D01*
X38276849Y-37321211D01*
X38042104Y-37446685D01*
X37916229Y-37736623D01*
X20701000Y-37736623D01*
X20701000Y-33759721D01*
X21675000Y-33759721D01*
X21675000Y-34180279D01*
X21757047Y-34592756D01*
X21917988Y-34981302D01*
X22151637Y-35330983D01*
X22449017Y-35628363D01*
X22798698Y-35862012D01*
X23187244Y-36022953D01*
X23599721Y-36105000D01*
X24020279Y-36105000D01*
X24432756Y-36022953D01*
X24821302Y-35862012D01*
X25170983Y-35628363D01*
X25468363Y-35330983D01*
X25702012Y-34981302D01*
X25862953Y-34592756D01*
X25945000Y-34180279D01*
X25945000Y-33759721D01*
X25862953Y-33347244D01*
X25702012Y-32958698D01*
X25468363Y-32609017D01*
X25170983Y-32311637D01*
X24821302Y-32077988D01*
X24432756Y-31917047D01*
X24020279Y-31835000D01*
X23599721Y-31835000D01*
X23187244Y-31917047D01*
X22798698Y-32077988D01*
X22449017Y-32311637D01*
X22151637Y-32609017D01*
X21917988Y-32958698D01*
X21757047Y-33347244D01*
X21675000Y-33759721D01*
X20701000Y-33759721D01*
X20701000Y-24000068D01*
X22875000Y-24000068D01*
X22875000Y-24361532D01*
X22945518Y-24716050D01*
X23083844Y-25049999D01*
X23284662Y-25350544D01*
X23540256Y-25606138D01*
X23840801Y-25806956D01*
X24174750Y-25945282D01*
X24529268Y-26015800D01*
X24890732Y-26015800D01*
X25079163Y-25978319D01*
X29939944Y-30839100D01*
X29971567Y-30877633D01*
X30125360Y-31003847D01*
X30253673Y-31072431D01*
X30276525Y-31106632D01*
X30420000Y-31250107D01*
X30420001Y-31609892D01*
X30276525Y-31753368D01*
X30114010Y-31996589D01*
X30002068Y-32266842D01*
X29945000Y-32553740D01*
X29945000Y-32846260D01*
X30002068Y-33133158D01*
X30114010Y-33403411D01*
X30276525Y-33646632D01*
X30483368Y-33853475D01*
X30726589Y-34015990D01*
X30996842Y-34127932D01*
X31283740Y-34185000D01*
X31576260Y-34185000D01*
X31863158Y-34127932D01*
X32133411Y-34015990D01*
X32376632Y-33853475D01*
X32583475Y-33646632D01*
X32700000Y-33472240D01*
X32816525Y-33646632D01*
X33023368Y-33853475D01*
X33266589Y-34015990D01*
X33536842Y-34127932D01*
X33823740Y-34185000D01*
X34116260Y-34185000D01*
X34403158Y-34127932D01*
X34673411Y-34015990D01*
X34916632Y-33853475D01*
X35123475Y-33646632D01*
X35240000Y-33472240D01*
X35356525Y-33646632D01*
X35563368Y-33853475D01*
X35806589Y-34015990D01*
X36076842Y-34127932D01*
X36363740Y-34185000D01*
X36656260Y-34185000D01*
X36943158Y-34127932D01*
X37213411Y-34015990D01*
X37456632Y-33853475D01*
X37663475Y-33646632D01*
X37780000Y-33472240D01*
X37896525Y-33646632D01*
X38103368Y-33853475D01*
X38346589Y-34015990D01*
X38616842Y-34127932D01*
X38903740Y-34185000D01*
X39196260Y-34185000D01*
X39483158Y-34127932D01*
X39753411Y-34015990D01*
X39996632Y-33853475D01*
X40203475Y-33646632D01*
X40320000Y-33472240D01*
X40436525Y-33646632D01*
X40643368Y-33853475D01*
X40886589Y-34015990D01*
X41156842Y-34127932D01*
X41443740Y-34185000D01*
X41736260Y-34185000D01*
X42023158Y-34127932D01*
X42293411Y-34015990D01*
X42536632Y-33853475D01*
X42743475Y-33646632D01*
X42860000Y-33472240D01*
X42976525Y-33646632D01*
X43183368Y-33853475D01*
X43426589Y-34015990D01*
X43696842Y-34127932D01*
X43983740Y-34185000D01*
X44276260Y-34185000D01*
X44563158Y-34127932D01*
X44833411Y-34015990D01*
X45076632Y-33853475D01*
X45283475Y-33646632D01*
X45400000Y-33472240D01*
X45516525Y-33646632D01*
X45723368Y-33853475D01*
X45966589Y-34015990D01*
X46236842Y-34127932D01*
X46523740Y-34185000D01*
X46816260Y-34185000D01*
X47103158Y-34127932D01*
X47373411Y-34015990D01*
X47616632Y-33853475D01*
X47823475Y-33646632D01*
X47940000Y-33472240D01*
X48056525Y-33646632D01*
X48263368Y-33853475D01*
X48506589Y-34015990D01*
X48776842Y-34127932D01*
X49063740Y-34185000D01*
X49356260Y-34185000D01*
X49643158Y-34127932D01*
X49913411Y-34015990D01*
X50156632Y-33853475D01*
X50363475Y-33646632D01*
X50480000Y-33472240D01*
X50596525Y-33646632D01*
X50803368Y-33853475D01*
X51046589Y-34015990D01*
X51316842Y-34127932D01*
X51603740Y-34185000D01*
X51896260Y-34185000D01*
X52183158Y-34127932D01*
X52453411Y-34015990D01*
X52696632Y-33853475D01*
X52903475Y-33646632D01*
X53020000Y-33472240D01*
X53136525Y-33646632D01*
X53343368Y-33853475D01*
X53586589Y-34015990D01*
X53856842Y-34127932D01*
X54143740Y-34185000D01*
X54436260Y-34185000D01*
X54723158Y-34127932D01*
X54993411Y-34015990D01*
X55236632Y-33853475D01*
X55443475Y-33646632D01*
X55560000Y-33472240D01*
X55676525Y-33646632D01*
X55883368Y-33853475D01*
X56126589Y-34015990D01*
X56396842Y-34127932D01*
X56683740Y-34185000D01*
X56976260Y-34185000D01*
X57263158Y-34127932D01*
X57533411Y-34015990D01*
X57776632Y-33853475D01*
X57983475Y-33646632D01*
X58100000Y-33472240D01*
X58216525Y-33646632D01*
X58423368Y-33853475D01*
X58666589Y-34015990D01*
X58936842Y-34127932D01*
X59223740Y-34185000D01*
X59516260Y-34185000D01*
X59803158Y-34127932D01*
X60073411Y-34015990D01*
X60316632Y-33853475D01*
X60523475Y-33646632D01*
X60640000Y-33472240D01*
X60756525Y-33646632D01*
X60963368Y-33853475D01*
X61206589Y-34015990D01*
X61476842Y-34127932D01*
X61763740Y-34185000D01*
X62056260Y-34185000D01*
X62343158Y-34127932D01*
X62613411Y-34015990D01*
X62856632Y-33853475D01*
X63063475Y-33646632D01*
X63180000Y-33472240D01*
X63296525Y-33646632D01*
X63503368Y-33853475D01*
X63746589Y-34015990D01*
X64016842Y-34127932D01*
X64303740Y-34185000D01*
X64596260Y-34185000D01*
X64883158Y-34127932D01*
X65153411Y-34015990D01*
X65396632Y-33853475D01*
X65603475Y-33646632D01*
X65720000Y-33472240D01*
X65836525Y-33646632D01*
X66043368Y-33853475D01*
X66286589Y-34015990D01*
X66556842Y-34127932D01*
X66843740Y-34185000D01*
X67136260Y-34185000D01*
X67423158Y-34127932D01*
X67693411Y-34015990D01*
X67936632Y-33853475D01*
X68030386Y-33759721D01*
X72475000Y-33759721D01*
X72475000Y-34180279D01*
X72557047Y-34592756D01*
X72717988Y-34981302D01*
X72951637Y-35330983D01*
X73249017Y-35628363D01*
X73598698Y-35862012D01*
X73987244Y-36022953D01*
X74399721Y-36105000D01*
X74820279Y-36105000D01*
X75232756Y-36022953D01*
X75621302Y-35862012D01*
X75970983Y-35628363D01*
X76268363Y-35330983D01*
X76502012Y-34981302D01*
X76662953Y-34592756D01*
X76745000Y-34180279D01*
X76745000Y-33759721D01*
X76662953Y-33347244D01*
X76502012Y-32958698D01*
X76268363Y-32609017D01*
X75970983Y-32311637D01*
X75621302Y-32077988D01*
X75232756Y-31917047D01*
X74820279Y-31835000D01*
X74399721Y-31835000D01*
X73987244Y-31917047D01*
X73598698Y-32077988D01*
X73249017Y-32311637D01*
X72951637Y-32609017D01*
X72717988Y-32958698D01*
X72557047Y-33347244D01*
X72475000Y-33759721D01*
X68030386Y-33759721D01*
X68143475Y-33646632D01*
X68305990Y-33403411D01*
X68417932Y-33133158D01*
X68475000Y-32846260D01*
X68475000Y-32553740D01*
X68417932Y-32266842D01*
X68305990Y-31996589D01*
X68143475Y-31753368D01*
X68000000Y-31609893D01*
X68000000Y-31250107D01*
X68143475Y-31106632D01*
X68166327Y-31072431D01*
X68294640Y-31003847D01*
X68448433Y-30877633D01*
X68480061Y-30839094D01*
X73336891Y-25982265D01*
X73512006Y-26035385D01*
X73710000Y-26054886D01*
X73907993Y-26035385D01*
X74098379Y-25977632D01*
X74107722Y-25972638D01*
X74245250Y-25945282D01*
X74579199Y-25806956D01*
X74879744Y-25606138D01*
X75135338Y-25350544D01*
X75336156Y-25049999D01*
X75474482Y-24716050D01*
X75545000Y-24361532D01*
X75545000Y-24000068D01*
X75474482Y-23645550D01*
X75336156Y-23311601D01*
X75135338Y-23011056D01*
X74879744Y-22755462D01*
X74579199Y-22554644D01*
X74245250Y-22416318D01*
X73890732Y-22345800D01*
X73529268Y-22345800D01*
X73174750Y-22416318D01*
X72840801Y-22554644D01*
X72540256Y-22755462D01*
X72284662Y-23011056D01*
X72083844Y-23311601D01*
X71960000Y-23610587D01*
X71836156Y-23311601D01*
X71635338Y-23011056D01*
X71379744Y-22755462D01*
X71079199Y-22554644D01*
X70745250Y-22416318D01*
X70390732Y-22345800D01*
X70029268Y-22345800D01*
X69674750Y-22416318D01*
X69340801Y-22554644D01*
X69040256Y-22755462D01*
X68784662Y-23011056D01*
X68583844Y-23311601D01*
X68460000Y-23610587D01*
X68336156Y-23311601D01*
X68135338Y-23011056D01*
X67879744Y-22755462D01*
X67579199Y-22554644D01*
X67245250Y-22416318D01*
X66890732Y-22345800D01*
X66529268Y-22345800D01*
X66174750Y-22416318D01*
X65840801Y-22554644D01*
X65540256Y-22755462D01*
X65284662Y-23011056D01*
X65083844Y-23311601D01*
X64960000Y-23610587D01*
X64836156Y-23311601D01*
X64635338Y-23011056D01*
X64379744Y-22755462D01*
X64079199Y-22554644D01*
X63745250Y-22416318D01*
X63390732Y-22345800D01*
X63029268Y-22345800D01*
X62674750Y-22416318D01*
X62340801Y-22554644D01*
X62040256Y-22755462D01*
X61784662Y-23011056D01*
X61583844Y-23311601D01*
X61460000Y-23610587D01*
X61336156Y-23311601D01*
X61135338Y-23011056D01*
X60879744Y-22755462D01*
X60579199Y-22554644D01*
X60245250Y-22416318D01*
X59890732Y-22345800D01*
X59529268Y-22345800D01*
X59174750Y-22416318D01*
X58840801Y-22554644D01*
X58540256Y-22755462D01*
X58284662Y-23011056D01*
X58083844Y-23311601D01*
X57960000Y-23610587D01*
X57836156Y-23311601D01*
X57635338Y-23011056D01*
X57379744Y-22755462D01*
X57079199Y-22554644D01*
X56745250Y-22416318D01*
X56390732Y-22345800D01*
X56029268Y-22345800D01*
X55674750Y-22416318D01*
X55340801Y-22554644D01*
X55040256Y-22755462D01*
X54784662Y-23011056D01*
X54583844Y-23311601D01*
X54460000Y-23610587D01*
X54336156Y-23311601D01*
X54135338Y-23011056D01*
X53879744Y-22755462D01*
X53579199Y-22554644D01*
X53245250Y-22416318D01*
X52890732Y-22345800D01*
X52529268Y-22345800D01*
X52174750Y-22416318D01*
X51840801Y-22554644D01*
X51540256Y-22755462D01*
X51284662Y-23011056D01*
X51083844Y-23311601D01*
X50960000Y-23610587D01*
X50836156Y-23311601D01*
X50635338Y-23011056D01*
X50379744Y-22755462D01*
X50079199Y-22554644D01*
X49745250Y-22416318D01*
X49390732Y-22345800D01*
X49029268Y-22345800D01*
X48674750Y-22416318D01*
X48340801Y-22554644D01*
X48040256Y-22755462D01*
X47784662Y-23011056D01*
X47583844Y-23311601D01*
X47460000Y-23610587D01*
X47336156Y-23311601D01*
X47135338Y-23011056D01*
X46879744Y-22755462D01*
X46579199Y-22554644D01*
X46245250Y-22416318D01*
X45890732Y-22345800D01*
X45529268Y-22345800D01*
X45174750Y-22416318D01*
X44840801Y-22554644D01*
X44540256Y-22755462D01*
X44284662Y-23011056D01*
X44083844Y-23311601D01*
X43960000Y-23610587D01*
X43836156Y-23311601D01*
X43635338Y-23011056D01*
X43379744Y-22755462D01*
X43079199Y-22554644D01*
X42745250Y-22416318D01*
X42390732Y-22345800D01*
X42029268Y-22345800D01*
X41674750Y-22416318D01*
X41340801Y-22554644D01*
X41040256Y-22755462D01*
X40784662Y-23011056D01*
X40583844Y-23311601D01*
X40460000Y-23610587D01*
X40336156Y-23311601D01*
X40135338Y-23011056D01*
X39879744Y-22755462D01*
X39579199Y-22554644D01*
X39245250Y-22416318D01*
X38890732Y-22345800D01*
X38529268Y-22345800D01*
X38174750Y-22416318D01*
X37840801Y-22554644D01*
X37540256Y-22755462D01*
X37284662Y-23011056D01*
X37083844Y-23311601D01*
X36960000Y-23610587D01*
X36836156Y-23311601D01*
X36635338Y-23011056D01*
X36379744Y-22755462D01*
X36079199Y-22554644D01*
X35745250Y-22416318D01*
X35390732Y-22345800D01*
X35029268Y-22345800D01*
X34674750Y-22416318D01*
X34340801Y-22554644D01*
X34040256Y-22755462D01*
X33784662Y-23011056D01*
X33583844Y-23311601D01*
X33460000Y-23610587D01*
X33336156Y-23311601D01*
X33135338Y-23011056D01*
X32879744Y-22755462D01*
X32579199Y-22554644D01*
X32245250Y-22416318D01*
X31890732Y-22345800D01*
X31529268Y-22345800D01*
X31174750Y-22416318D01*
X30840801Y-22554644D01*
X30540256Y-22755462D01*
X30284662Y-23011056D01*
X30083844Y-23311601D01*
X29960000Y-23610587D01*
X29836156Y-23311601D01*
X29635338Y-23011056D01*
X29379744Y-22755462D01*
X29079199Y-22554644D01*
X28745250Y-22416318D01*
X28390732Y-22345800D01*
X28029268Y-22345800D01*
X27674750Y-22416318D01*
X27340801Y-22554644D01*
X27040256Y-22755462D01*
X26784662Y-23011056D01*
X26583844Y-23311601D01*
X26460000Y-23610587D01*
X26336156Y-23311601D01*
X26135338Y-23011056D01*
X25879744Y-22755462D01*
X25579199Y-22554644D01*
X25245250Y-22416318D01*
X24890732Y-22345800D01*
X24529268Y-22345800D01*
X24174750Y-22416318D01*
X23840801Y-22554644D01*
X23540256Y-22755462D01*
X23284662Y-23011056D01*
X23083844Y-23311601D01*
X22945518Y-23645550D01*
X22875000Y-24000068D01*
X20701000Y-24000068D01*
X20701000Y-20660000D01*
X77760000Y-20660000D01*
X77760001Y-67600000D01*
M02*
