G04 #@! TF.GenerationSoftware,KiCad,Pcbnew,5.1.5-52549c5~86~ubuntu18.04.1*
G04 #@! TF.CreationDate,2020-08-23T01:07:05-05:00*
G04 #@! TF.ProjectId,A01,4130312e-6b69-4636-9164-5f7063625858,rev?*
G04 #@! TF.SameCoordinates,Original*
G04 #@! TF.FileFunction,Legend,Bot*
G04 #@! TF.FilePolarity,Positive*
%FSLAX46Y46*%
G04 Gerber Fmt 4.6, Leading zero omitted, Abs format (unit mm)*
G04 Created by KiCad (PCBNEW 5.1.5-52549c5~86~ubuntu18.04.1) date 2020-08-23 01:07:05*
%MOMM*%
%LPD*%
G04 APERTURE LIST*
%ADD10C,0.150000*%
%ADD11C,0.010000*%
G04 APERTURE END LIST*
D10*
X58937000Y-21340000D02*
X59651285Y-21340000D01*
X58794142Y-20911428D02*
X59294142Y-22411428D01*
X59794142Y-20911428D01*
X60579857Y-22411428D02*
X60722714Y-22411428D01*
X60865571Y-22340000D01*
X60937000Y-22268571D01*
X61008428Y-22125714D01*
X61079857Y-21840000D01*
X61079857Y-21482857D01*
X61008428Y-21197142D01*
X60937000Y-21054285D01*
X60865571Y-20982857D01*
X60722714Y-20911428D01*
X60579857Y-20911428D01*
X60437000Y-20982857D01*
X60365571Y-21054285D01*
X60294142Y-21197142D01*
X60222714Y-21482857D01*
X60222714Y-21840000D01*
X60294142Y-22125714D01*
X60365571Y-22268571D01*
X60437000Y-22340000D01*
X60579857Y-22411428D01*
X62508428Y-20911428D02*
X61651285Y-20911428D01*
X62079857Y-20911428D02*
X62079857Y-22411428D01*
X61937000Y-22197142D01*
X61794142Y-22054285D01*
X61651285Y-21982857D01*
X62794142Y-20768571D02*
X63937000Y-20768571D01*
X64794142Y-21697142D02*
X65008428Y-21625714D01*
X65079857Y-21554285D01*
X65151285Y-21411428D01*
X65151285Y-21197142D01*
X65079857Y-21054285D01*
X65008428Y-20982857D01*
X64865571Y-20911428D01*
X64294142Y-20911428D01*
X64294142Y-22411428D01*
X64794142Y-22411428D01*
X64937000Y-22340000D01*
X65008428Y-22268571D01*
X65079857Y-22125714D01*
X65079857Y-21982857D01*
X65008428Y-21840000D01*
X64937000Y-21768571D01*
X64794142Y-21697142D01*
X64294142Y-21697142D01*
X65722714Y-21340000D02*
X66437000Y-21340000D01*
X65579857Y-20911428D02*
X66079857Y-22411428D01*
X66579857Y-20911428D01*
X67937000Y-21054285D02*
X67865571Y-20982857D01*
X67651285Y-20911428D01*
X67508428Y-20911428D01*
X67294142Y-20982857D01*
X67151285Y-21125714D01*
X67079857Y-21268571D01*
X67008428Y-21554285D01*
X67008428Y-21768571D01*
X67079857Y-22054285D01*
X67151285Y-22197142D01*
X67294142Y-22340000D01*
X67508428Y-22411428D01*
X67651285Y-22411428D01*
X67865571Y-22340000D01*
X67937000Y-22268571D01*
X68579857Y-20911428D02*
X68579857Y-22411428D01*
X69437000Y-20911428D02*
X68794142Y-21768571D01*
X69437000Y-22411428D02*
X68579857Y-21554285D01*
X70079857Y-20911428D02*
X70079857Y-22411428D01*
X70651285Y-22411428D01*
X70794142Y-22340000D01*
X70865571Y-22268571D01*
X70937000Y-22125714D01*
X70937000Y-21911428D01*
X70865571Y-21768571D01*
X70794142Y-21697142D01*
X70651285Y-21625714D01*
X70079857Y-21625714D01*
X72294142Y-20911428D02*
X71579857Y-20911428D01*
X71579857Y-22411428D01*
X72722714Y-21340000D02*
X73437000Y-21340000D01*
X72579857Y-20911428D02*
X73079857Y-22411428D01*
X73579857Y-20911428D01*
X73865571Y-22411428D02*
X74722714Y-22411428D01*
X74294142Y-20911428D02*
X74294142Y-22411428D01*
X75222714Y-21697142D02*
X75722714Y-21697142D01*
X75937000Y-20911428D02*
X75222714Y-20911428D01*
X75222714Y-22411428D01*
X75937000Y-22411428D01*
D11*
G36*
X63598614Y-53331069D02*
G01*
X63682435Y-52886445D01*
X63991720Y-52758947D01*
X64301006Y-52631449D01*
X64672046Y-52883754D01*
X64775957Y-52954004D01*
X64869887Y-53016728D01*
X64949452Y-53069062D01*
X65010270Y-53108143D01*
X65047957Y-53131107D01*
X65058221Y-53136058D01*
X65076710Y-53123324D01*
X65116220Y-53088118D01*
X65172322Y-53034938D01*
X65240587Y-52968282D01*
X65316586Y-52892646D01*
X65395892Y-52812528D01*
X65474075Y-52732426D01*
X65546707Y-52656836D01*
X65609359Y-52590255D01*
X65657603Y-52537182D01*
X65687010Y-52502113D01*
X65694041Y-52490377D01*
X65683923Y-52468740D01*
X65655559Y-52421338D01*
X65611929Y-52352807D01*
X65556018Y-52267785D01*
X65490806Y-52170907D01*
X65453019Y-52115650D01*
X65384143Y-52014752D01*
X65322940Y-51923701D01*
X65272378Y-51847030D01*
X65235428Y-51789272D01*
X65215058Y-51754957D01*
X65211997Y-51747746D01*
X65218936Y-51727252D01*
X65237851Y-51679487D01*
X65265887Y-51611168D01*
X65300191Y-51529011D01*
X65337909Y-51439730D01*
X65376187Y-51350042D01*
X65412170Y-51266662D01*
X65443006Y-51196306D01*
X65465839Y-51145690D01*
X65477817Y-51121529D01*
X65478524Y-51120578D01*
X65497331Y-51115964D01*
X65547418Y-51105672D01*
X65623593Y-51090713D01*
X65720665Y-51072099D01*
X65833443Y-51050841D01*
X65899242Y-51038582D01*
X66019750Y-51015638D01*
X66128597Y-50993805D01*
X66220276Y-50974278D01*
X66289281Y-50958252D01*
X66330104Y-50946921D01*
X66338311Y-50943326D01*
X66346348Y-50918994D01*
X66352833Y-50864041D01*
X66357770Y-50784892D01*
X66361164Y-50687974D01*
X66363018Y-50579713D01*
X66363338Y-50466535D01*
X66362127Y-50354865D01*
X66359390Y-50251132D01*
X66355131Y-50161759D01*
X66349355Y-50093174D01*
X66342067Y-50051803D01*
X66337695Y-50043190D01*
X66311564Y-50032867D01*
X66256193Y-50018108D01*
X66178907Y-50000648D01*
X66087030Y-49982220D01*
X66054958Y-49976259D01*
X65900324Y-49947934D01*
X65778175Y-49925124D01*
X65684473Y-49906920D01*
X65615184Y-49892417D01*
X65566271Y-49880708D01*
X65533697Y-49870885D01*
X65513428Y-49862044D01*
X65501426Y-49853276D01*
X65499747Y-49851543D01*
X65482984Y-49823629D01*
X65457414Y-49769305D01*
X65425588Y-49695223D01*
X65390060Y-49608035D01*
X65353383Y-49514392D01*
X65318111Y-49420948D01*
X65286796Y-49334353D01*
X65261993Y-49261260D01*
X65246254Y-49208322D01*
X65242132Y-49182189D01*
X65242476Y-49181274D01*
X65256441Y-49159914D01*
X65288122Y-49112916D01*
X65334191Y-49045173D01*
X65391318Y-48961577D01*
X65456173Y-48867018D01*
X65474643Y-48840146D01*
X65540499Y-48742725D01*
X65598450Y-48653837D01*
X65645338Y-48578588D01*
X65678007Y-48522080D01*
X65693300Y-48489419D01*
X65694041Y-48485407D01*
X65681192Y-48464316D01*
X65645688Y-48422536D01*
X65592093Y-48364555D01*
X65524971Y-48294865D01*
X65448887Y-48217955D01*
X65368404Y-48138317D01*
X65288087Y-48060439D01*
X65212499Y-47988814D01*
X65146205Y-47927930D01*
X65093769Y-47882279D01*
X65059755Y-47856350D01*
X65050345Y-47852117D01*
X65028443Y-47862088D01*
X64983600Y-47888980D01*
X64923121Y-47928264D01*
X64876589Y-47959883D01*
X64792275Y-48017902D01*
X64692426Y-48086216D01*
X64592273Y-48154421D01*
X64538427Y-48190925D01*
X64356171Y-48314200D01*
X64203181Y-48231480D01*
X64133482Y-48195241D01*
X64074214Y-48167074D01*
X64034111Y-48151009D01*
X64023903Y-48148774D01*
X64011629Y-48165278D01*
X63987413Y-48211918D01*
X63953063Y-48284391D01*
X63910388Y-48378394D01*
X63861194Y-48489626D01*
X63807290Y-48613785D01*
X63750484Y-48746568D01*
X63692582Y-48883673D01*
X63635393Y-49020798D01*
X63580724Y-49153642D01*
X63530384Y-49277902D01*
X63486180Y-49389275D01*
X63449919Y-49483461D01*
X63423409Y-49556156D01*
X63408458Y-49603059D01*
X63406054Y-49619167D01*
X63425111Y-49639714D01*
X63466836Y-49673067D01*
X63522506Y-49712298D01*
X63527178Y-49715401D01*
X63671064Y-49830577D01*
X63787083Y-49964947D01*
X63874230Y-50114216D01*
X63931499Y-50274087D01*
X63957886Y-50440263D01*
X63952385Y-50608448D01*
X63913990Y-50774345D01*
X63841695Y-50933658D01*
X63820426Y-50968513D01*
X63709796Y-51109263D01*
X63579102Y-51222286D01*
X63432864Y-51306997D01*
X63275608Y-51362806D01*
X63111857Y-51389126D01*
X62946133Y-51385370D01*
X62782962Y-51350950D01*
X62626865Y-51285277D01*
X62482367Y-51187765D01*
X62437669Y-51148187D01*
X62323912Y-51024297D01*
X62241018Y-50893876D01*
X62184156Y-50747685D01*
X62152487Y-50602912D01*
X62144669Y-50440140D01*
X62170738Y-50276560D01*
X62228045Y-50117702D01*
X62313944Y-49969094D01*
X62425786Y-49836265D01*
X62560923Y-49724744D01*
X62578683Y-49712989D01*
X62634950Y-49674492D01*
X62677723Y-49641137D01*
X62698172Y-49619840D01*
X62698469Y-49619167D01*
X62694079Y-49596129D01*
X62676676Y-49543843D01*
X62648068Y-49466610D01*
X62610065Y-49368732D01*
X62564474Y-49254509D01*
X62513103Y-49128242D01*
X62457762Y-48994233D01*
X62400258Y-48856782D01*
X62342401Y-48720192D01*
X62285998Y-48588763D01*
X62232858Y-48466795D01*
X62184790Y-48358591D01*
X62143601Y-48268451D01*
X62111101Y-48200677D01*
X62089097Y-48159570D01*
X62080236Y-48148774D01*
X62053160Y-48157181D01*
X62002497Y-48179728D01*
X61936983Y-48212387D01*
X61900959Y-48231480D01*
X61747968Y-48314200D01*
X61565712Y-48190925D01*
X61472675Y-48127772D01*
X61370815Y-48058273D01*
X61275362Y-47992835D01*
X61227550Y-47959883D01*
X61160305Y-47914727D01*
X61103364Y-47878943D01*
X61064154Y-47857062D01*
X61051419Y-47852437D01*
X61032883Y-47864915D01*
X60991859Y-47899748D01*
X60932325Y-47953322D01*
X60858258Y-48022017D01*
X60773635Y-48102219D01*
X60720115Y-48153714D01*
X60626481Y-48245714D01*
X60545559Y-48328001D01*
X60480623Y-48397055D01*
X60434942Y-48449356D01*
X60411789Y-48481384D01*
X60409568Y-48487884D01*
X60419876Y-48512606D01*
X60448361Y-48562595D01*
X60491863Y-48632788D01*
X60547223Y-48718125D01*
X60611280Y-48813544D01*
X60629497Y-48840146D01*
X60695873Y-48936833D01*
X60755422Y-49023883D01*
X60804816Y-49096405D01*
X60840725Y-49149507D01*
X60859819Y-49178297D01*
X60861664Y-49181274D01*
X60858905Y-49204218D01*
X60844262Y-49254664D01*
X60820287Y-49325959D01*
X60789534Y-49411453D01*
X60754556Y-49504493D01*
X60717907Y-49598426D01*
X60682139Y-49686601D01*
X60649806Y-49762366D01*
X60623462Y-49819069D01*
X60605658Y-49850057D01*
X60604393Y-49851543D01*
X60593506Y-49860399D01*
X60575118Y-49869157D01*
X60545194Y-49878723D01*
X60499697Y-49890004D01*
X60434591Y-49903907D01*
X60345839Y-49921337D01*
X60229407Y-49943202D01*
X60081258Y-49970409D01*
X60049182Y-49976259D01*
X59954114Y-49994626D01*
X59871235Y-50012595D01*
X59807870Y-50028431D01*
X59771342Y-50040400D01*
X59766444Y-50043190D01*
X59758373Y-50067928D01*
X59751813Y-50123210D01*
X59746767Y-50202611D01*
X59743241Y-50299704D01*
X59741239Y-50408062D01*
X59740764Y-50521260D01*
X59741823Y-50632872D01*
X59744418Y-50736471D01*
X59748554Y-50825632D01*
X59754237Y-50893928D01*
X59761469Y-50934934D01*
X59765829Y-50943326D01*
X59790102Y-50951792D01*
X59845374Y-50965565D01*
X59926138Y-50983450D01*
X60026888Y-51004252D01*
X60142117Y-51026777D01*
X60204898Y-51038582D01*
X60324013Y-51060849D01*
X60430235Y-51081021D01*
X60518373Y-51098085D01*
X60583234Y-51111031D01*
X60619626Y-51118845D01*
X60625616Y-51120578D01*
X60635739Y-51140110D01*
X60657138Y-51187157D01*
X60686961Y-51254997D01*
X60722355Y-51336909D01*
X60760468Y-51426172D01*
X60798447Y-51516065D01*
X60833440Y-51599865D01*
X60862594Y-51670853D01*
X60883057Y-51722306D01*
X60891977Y-51747503D01*
X60892143Y-51748604D01*
X60882031Y-51768481D01*
X60853683Y-51814223D01*
X60810077Y-51881283D01*
X60754194Y-51965116D01*
X60689013Y-52061174D01*
X60651121Y-52116350D01*
X60582075Y-52217519D01*
X60520750Y-52309370D01*
X60470137Y-52387256D01*
X60433229Y-52446531D01*
X60413018Y-52482549D01*
X60410099Y-52490623D01*
X60422647Y-52509416D01*
X60457337Y-52549543D01*
X60509737Y-52606507D01*
X60575416Y-52675815D01*
X60649944Y-52752969D01*
X60728887Y-52833475D01*
X60807817Y-52912837D01*
X60882300Y-52986560D01*
X60947906Y-53050148D01*
X61000204Y-53099106D01*
X61034761Y-53128939D01*
X61046322Y-53136058D01*
X61065146Y-53126047D01*
X61110169Y-53097922D01*
X61177013Y-53054546D01*
X61261301Y-52998782D01*
X61358656Y-52933494D01*
X61432093Y-52883754D01*
X61803133Y-52631449D01*
X62421705Y-52886445D01*
X62505525Y-53331069D01*
X62589346Y-53775693D01*
X63514794Y-53775693D01*
X63598614Y-53331069D01*
G37*
X63598614Y-53331069D02*
X63682435Y-52886445D01*
X63991720Y-52758947D01*
X64301006Y-52631449D01*
X64672046Y-52883754D01*
X64775957Y-52954004D01*
X64869887Y-53016728D01*
X64949452Y-53069062D01*
X65010270Y-53108143D01*
X65047957Y-53131107D01*
X65058221Y-53136058D01*
X65076710Y-53123324D01*
X65116220Y-53088118D01*
X65172322Y-53034938D01*
X65240587Y-52968282D01*
X65316586Y-52892646D01*
X65395892Y-52812528D01*
X65474075Y-52732426D01*
X65546707Y-52656836D01*
X65609359Y-52590255D01*
X65657603Y-52537182D01*
X65687010Y-52502113D01*
X65694041Y-52490377D01*
X65683923Y-52468740D01*
X65655559Y-52421338D01*
X65611929Y-52352807D01*
X65556018Y-52267785D01*
X65490806Y-52170907D01*
X65453019Y-52115650D01*
X65384143Y-52014752D01*
X65322940Y-51923701D01*
X65272378Y-51847030D01*
X65235428Y-51789272D01*
X65215058Y-51754957D01*
X65211997Y-51747746D01*
X65218936Y-51727252D01*
X65237851Y-51679487D01*
X65265887Y-51611168D01*
X65300191Y-51529011D01*
X65337909Y-51439730D01*
X65376187Y-51350042D01*
X65412170Y-51266662D01*
X65443006Y-51196306D01*
X65465839Y-51145690D01*
X65477817Y-51121529D01*
X65478524Y-51120578D01*
X65497331Y-51115964D01*
X65547418Y-51105672D01*
X65623593Y-51090713D01*
X65720665Y-51072099D01*
X65833443Y-51050841D01*
X65899242Y-51038582D01*
X66019750Y-51015638D01*
X66128597Y-50993805D01*
X66220276Y-50974278D01*
X66289281Y-50958252D01*
X66330104Y-50946921D01*
X66338311Y-50943326D01*
X66346348Y-50918994D01*
X66352833Y-50864041D01*
X66357770Y-50784892D01*
X66361164Y-50687974D01*
X66363018Y-50579713D01*
X66363338Y-50466535D01*
X66362127Y-50354865D01*
X66359390Y-50251132D01*
X66355131Y-50161759D01*
X66349355Y-50093174D01*
X66342067Y-50051803D01*
X66337695Y-50043190D01*
X66311564Y-50032867D01*
X66256193Y-50018108D01*
X66178907Y-50000648D01*
X66087030Y-49982220D01*
X66054958Y-49976259D01*
X65900324Y-49947934D01*
X65778175Y-49925124D01*
X65684473Y-49906920D01*
X65615184Y-49892417D01*
X65566271Y-49880708D01*
X65533697Y-49870885D01*
X65513428Y-49862044D01*
X65501426Y-49853276D01*
X65499747Y-49851543D01*
X65482984Y-49823629D01*
X65457414Y-49769305D01*
X65425588Y-49695223D01*
X65390060Y-49608035D01*
X65353383Y-49514392D01*
X65318111Y-49420948D01*
X65286796Y-49334353D01*
X65261993Y-49261260D01*
X65246254Y-49208322D01*
X65242132Y-49182189D01*
X65242476Y-49181274D01*
X65256441Y-49159914D01*
X65288122Y-49112916D01*
X65334191Y-49045173D01*
X65391318Y-48961577D01*
X65456173Y-48867018D01*
X65474643Y-48840146D01*
X65540499Y-48742725D01*
X65598450Y-48653837D01*
X65645338Y-48578588D01*
X65678007Y-48522080D01*
X65693300Y-48489419D01*
X65694041Y-48485407D01*
X65681192Y-48464316D01*
X65645688Y-48422536D01*
X65592093Y-48364555D01*
X65524971Y-48294865D01*
X65448887Y-48217955D01*
X65368404Y-48138317D01*
X65288087Y-48060439D01*
X65212499Y-47988814D01*
X65146205Y-47927930D01*
X65093769Y-47882279D01*
X65059755Y-47856350D01*
X65050345Y-47852117D01*
X65028443Y-47862088D01*
X64983600Y-47888980D01*
X64923121Y-47928264D01*
X64876589Y-47959883D01*
X64792275Y-48017902D01*
X64692426Y-48086216D01*
X64592273Y-48154421D01*
X64538427Y-48190925D01*
X64356171Y-48314200D01*
X64203181Y-48231480D01*
X64133482Y-48195241D01*
X64074214Y-48167074D01*
X64034111Y-48151009D01*
X64023903Y-48148774D01*
X64011629Y-48165278D01*
X63987413Y-48211918D01*
X63953063Y-48284391D01*
X63910388Y-48378394D01*
X63861194Y-48489626D01*
X63807290Y-48613785D01*
X63750484Y-48746568D01*
X63692582Y-48883673D01*
X63635393Y-49020798D01*
X63580724Y-49153642D01*
X63530384Y-49277902D01*
X63486180Y-49389275D01*
X63449919Y-49483461D01*
X63423409Y-49556156D01*
X63408458Y-49603059D01*
X63406054Y-49619167D01*
X63425111Y-49639714D01*
X63466836Y-49673067D01*
X63522506Y-49712298D01*
X63527178Y-49715401D01*
X63671064Y-49830577D01*
X63787083Y-49964947D01*
X63874230Y-50114216D01*
X63931499Y-50274087D01*
X63957886Y-50440263D01*
X63952385Y-50608448D01*
X63913990Y-50774345D01*
X63841695Y-50933658D01*
X63820426Y-50968513D01*
X63709796Y-51109263D01*
X63579102Y-51222286D01*
X63432864Y-51306997D01*
X63275608Y-51362806D01*
X63111857Y-51389126D01*
X62946133Y-51385370D01*
X62782962Y-51350950D01*
X62626865Y-51285277D01*
X62482367Y-51187765D01*
X62437669Y-51148187D01*
X62323912Y-51024297D01*
X62241018Y-50893876D01*
X62184156Y-50747685D01*
X62152487Y-50602912D01*
X62144669Y-50440140D01*
X62170738Y-50276560D01*
X62228045Y-50117702D01*
X62313944Y-49969094D01*
X62425786Y-49836265D01*
X62560923Y-49724744D01*
X62578683Y-49712989D01*
X62634950Y-49674492D01*
X62677723Y-49641137D01*
X62698172Y-49619840D01*
X62698469Y-49619167D01*
X62694079Y-49596129D01*
X62676676Y-49543843D01*
X62648068Y-49466610D01*
X62610065Y-49368732D01*
X62564474Y-49254509D01*
X62513103Y-49128242D01*
X62457762Y-48994233D01*
X62400258Y-48856782D01*
X62342401Y-48720192D01*
X62285998Y-48588763D01*
X62232858Y-48466795D01*
X62184790Y-48358591D01*
X62143601Y-48268451D01*
X62111101Y-48200677D01*
X62089097Y-48159570D01*
X62080236Y-48148774D01*
X62053160Y-48157181D01*
X62002497Y-48179728D01*
X61936983Y-48212387D01*
X61900959Y-48231480D01*
X61747968Y-48314200D01*
X61565712Y-48190925D01*
X61472675Y-48127772D01*
X61370815Y-48058273D01*
X61275362Y-47992835D01*
X61227550Y-47959883D01*
X61160305Y-47914727D01*
X61103364Y-47878943D01*
X61064154Y-47857062D01*
X61051419Y-47852437D01*
X61032883Y-47864915D01*
X60991859Y-47899748D01*
X60932325Y-47953322D01*
X60858258Y-48022017D01*
X60773635Y-48102219D01*
X60720115Y-48153714D01*
X60626481Y-48245714D01*
X60545559Y-48328001D01*
X60480623Y-48397055D01*
X60434942Y-48449356D01*
X60411789Y-48481384D01*
X60409568Y-48487884D01*
X60419876Y-48512606D01*
X60448361Y-48562595D01*
X60491863Y-48632788D01*
X60547223Y-48718125D01*
X60611280Y-48813544D01*
X60629497Y-48840146D01*
X60695873Y-48936833D01*
X60755422Y-49023883D01*
X60804816Y-49096405D01*
X60840725Y-49149507D01*
X60859819Y-49178297D01*
X60861664Y-49181274D01*
X60858905Y-49204218D01*
X60844262Y-49254664D01*
X60820287Y-49325959D01*
X60789534Y-49411453D01*
X60754556Y-49504493D01*
X60717907Y-49598426D01*
X60682139Y-49686601D01*
X60649806Y-49762366D01*
X60623462Y-49819069D01*
X60605658Y-49850057D01*
X60604393Y-49851543D01*
X60593506Y-49860399D01*
X60575118Y-49869157D01*
X60545194Y-49878723D01*
X60499697Y-49890004D01*
X60434591Y-49903907D01*
X60345839Y-49921337D01*
X60229407Y-49943202D01*
X60081258Y-49970409D01*
X60049182Y-49976259D01*
X59954114Y-49994626D01*
X59871235Y-50012595D01*
X59807870Y-50028431D01*
X59771342Y-50040400D01*
X59766444Y-50043190D01*
X59758373Y-50067928D01*
X59751813Y-50123210D01*
X59746767Y-50202611D01*
X59743241Y-50299704D01*
X59741239Y-50408062D01*
X59740764Y-50521260D01*
X59741823Y-50632872D01*
X59744418Y-50736471D01*
X59748554Y-50825632D01*
X59754237Y-50893928D01*
X59761469Y-50934934D01*
X59765829Y-50943326D01*
X59790102Y-50951792D01*
X59845374Y-50965565D01*
X59926138Y-50983450D01*
X60026888Y-51004252D01*
X60142117Y-51026777D01*
X60204898Y-51038582D01*
X60324013Y-51060849D01*
X60430235Y-51081021D01*
X60518373Y-51098085D01*
X60583234Y-51111031D01*
X60619626Y-51118845D01*
X60625616Y-51120578D01*
X60635739Y-51140110D01*
X60657138Y-51187157D01*
X60686961Y-51254997D01*
X60722355Y-51336909D01*
X60760468Y-51426172D01*
X60798447Y-51516065D01*
X60833440Y-51599865D01*
X60862594Y-51670853D01*
X60883057Y-51722306D01*
X60891977Y-51747503D01*
X60892143Y-51748604D01*
X60882031Y-51768481D01*
X60853683Y-51814223D01*
X60810077Y-51881283D01*
X60754194Y-51965116D01*
X60689013Y-52061174D01*
X60651121Y-52116350D01*
X60582075Y-52217519D01*
X60520750Y-52309370D01*
X60470137Y-52387256D01*
X60433229Y-52446531D01*
X60413018Y-52482549D01*
X60410099Y-52490623D01*
X60422647Y-52509416D01*
X60457337Y-52549543D01*
X60509737Y-52606507D01*
X60575416Y-52675815D01*
X60649944Y-52752969D01*
X60728887Y-52833475D01*
X60807817Y-52912837D01*
X60882300Y-52986560D01*
X60947906Y-53050148D01*
X61000204Y-53099106D01*
X61034761Y-53128939D01*
X61046322Y-53136058D01*
X61065146Y-53126047D01*
X61110169Y-53097922D01*
X61177013Y-53054546D01*
X61261301Y-52998782D01*
X61358656Y-52933494D01*
X61432093Y-52883754D01*
X61803133Y-52631449D01*
X62421705Y-52886445D01*
X62505525Y-53331069D01*
X62589346Y-53775693D01*
X63514794Y-53775693D01*
X63598614Y-53331069D01*
M02*
