M48
; DRILL file {KiCad 5.1.5-52549c5~86~ubuntu18.04.1} date dom 23 ago 2020 01:07:00 -05
; FORMAT={-:-/ absolute / metric / decimal}
; #@! TF.CreationDate,2020-08-23T01:07:00-05:00
; #@! TF.GenerationSoftware,Kicad,Pcbnew,5.1.5-52549c5~86~ubuntu18.04.1
; #@! TF.FileFunction,NonPlated,1,2,NPTH
FMAT,2
METRIC
T1C3.000
%
G90
G05
T1
X118.9Y-96.06
X57.94Y-24.94
X88.42Y-75.74
X149.38Y-85.9
X57.94Y-55.42
X27.46Y-35.1
X78.26Y-75.74
X37.62Y-45.26
X68.1Y-55.42
X108.74Y-24.94
X108.74Y-75.74
X68.1Y-85.9
X98.58Y-65.58
X88.42Y-35.1
X78.26Y-65.58
X47.78Y-55.42
X37.62Y-55.42
X88.42Y-65.58
X78.26Y-85.9
X23.5Y-60.5
X68.1Y-75.74
X27.46Y-65.58
X98.58Y-75.74
X47.78Y-24.94
X23.5Y-38.5
X149.38Y-55.42
X129.06Y-96.06
X108.74Y-45.26
X118.9Y-45.26
X78.26Y-96.06
X68.1Y-96.06
X78.26Y-24.94
X149.38Y-65.58
X27.46Y-45.26
X159.54Y-35.1
X118.9Y-85.9
X27.46Y-85.9
X68.1Y-65.58
X118.9Y-55.42
X139.22Y-24.94
X37.62Y-35.1
X159.54Y-75.74
X47.78Y-45.26
X129.06Y-55.42
X149.38Y-45.26
X118.9Y-24.94
X159.54Y-65.58
X129.06Y-45.26
X129.06Y-65.58
X47.78Y-96.06
X129.06Y-85.9
X88.42Y-96.06
X129.06Y-75.74
X98.58Y-24.94
X139.22Y-75.74
X163.5Y-60.5
X159.54Y-55.42
X68.1Y-35.1
X57.94Y-35.1
X37.62Y-75.74
X139.22Y-35.1
X163.5Y-82.5
X139.22Y-85.9
X108.74Y-55.42
X88.42Y-24.94
X149.38Y-96.06
X98.58Y-96.06
X78.26Y-55.42
X68.1Y-24.94
X88.42Y-45.26
X129.06Y-35.1
X149.38Y-35.1
X78.26Y-45.26
X98.58Y-55.42
X139.22Y-45.26
X159.54Y-85.9
X37.62Y-65.58
X108.74Y-35.1
X163.5Y-38.5
X88.42Y-85.9
X129.06Y-24.94
X108.74Y-96.06
X57.94Y-45.26
X118.9Y-75.74
X68.1Y-45.26
X98.58Y-85.9
X118.9Y-35.1
X139.22Y-96.06
X78.26Y-35.1
X37.62Y-24.94
X47.78Y-85.9
X139.22Y-65.58
X159.54Y-45.26
X57.94Y-96.06
X57.94Y-85.9
X98.58Y-35.1
X88.42Y-55.42
X37.62Y-85.9
X98.58Y-45.26
X23.5Y-82.5
X57.94Y-65.58
X118.9Y-65.58
X108.74Y-85.9
X57.94Y-75.74
X139.22Y-55.42
X47.78Y-35.1
X27.46Y-55.42
X108.74Y-65.58
X149.38Y-24.94
X27.46Y-75.74
X37.62Y-96.06
X47.78Y-75.74
X149.38Y-75.74
X47.78Y-65.58
T0
M30
