M48
; DRILL file {KiCad 5.1.5-52549c5~86~ubuntu18.04.1} date vie 25 sep 2020 18:23:49 -05
; FORMAT={-:-/ absolute / metric / decimal}
; #@! TF.CreationDate,2020-09-25T18:23:49-05:00
; #@! TF.GenerationSoftware,Kicad,Pcbnew,5.1.5-52549c5~86~ubuntu18.04.1
; #@! TF.FileFunction,Plated,1,2,PTH
FMAT,2
METRIC
T1C0.700
T2C0.900
T3C1.100
T4C1.200
%
G90
G05
T1
X150.881Y-148.107
X152.781Y-148.107
X143.739Y-112.598
X145.639Y-112.598
X95.001Y-112.547
X96.901Y-112.547
X171.679Y-148.158
X173.579Y-148.158
X122.941Y-148.107
X124.841Y-148.107
X150.881Y-94.767
X152.781Y-94.767
X115.799Y-77.038
X117.699Y-77.038
X143.739Y-148.158
X145.639Y-148.158
X143.739Y-94.818
X145.639Y-94.818
X95.001Y-148.107
X96.901Y-148.107
X171.679Y-77.038
X173.579Y-77.038
X122.941Y-94.767
X124.841Y-94.767
X115.799Y-148.158
X117.699Y-148.158
X150.881Y-130.327
X152.781Y-130.327
X95.001Y-76.987
X96.901Y-76.987
X95.001Y-94.767
X96.901Y-94.767
X171.679Y-130.378
X173.579Y-130.378
X171.679Y-94.818
X173.579Y-94.818
X122.941Y-130.327
X124.841Y-130.327
X150.881Y-76.987
X152.781Y-76.987
X143.739Y-130.378
X145.639Y-130.378
X95.001Y-130.327
X96.901Y-130.327
X122.941Y-76.987
X124.841Y-76.987
X115.799Y-130.378
X117.699Y-130.378
X115.799Y-112.598
X117.699Y-112.598
X115.799Y-94.818
X117.699Y-94.818
X150.881Y-112.547
X152.781Y-112.547
X143.739Y-77.038
X145.639Y-77.038
X171.679Y-112.598
X173.579Y-112.598
X122.941Y-112.547
X124.841Y-112.547
T2
X101.854Y-80.34
X101.854Y-82.88
X129.794Y-98.12
X129.794Y-100.66
X101.854Y-98.12
X101.854Y-100.66
X157.734Y-151.46
X157.734Y-154.0
X129.794Y-151.46
X129.794Y-154.0
X101.854Y-151.46
X101.854Y-154.0
X157.734Y-133.68
X157.734Y-136.22
X129.794Y-133.68
X129.794Y-136.22
X101.854Y-133.68
X101.854Y-136.22
X157.734Y-115.9
X157.734Y-118.44
X129.794Y-115.9
X129.794Y-118.44
X157.734Y-80.34
X157.734Y-82.88
X101.854Y-115.9
X101.854Y-118.44
X129.794Y-80.34
X129.794Y-82.88
X157.734Y-98.12
X157.734Y-100.66
T3
X162.08Y-135.251
X162.08Y-139.751
X168.58Y-135.251
X168.58Y-139.751
X134.14Y-81.911
X134.14Y-86.411
X140.64Y-81.911
X140.64Y-86.411
X106.2Y-117.471
X106.2Y-121.971
X112.7Y-117.471
X112.7Y-121.971
X162.08Y-99.691
X162.08Y-104.191
X168.58Y-99.691
X168.58Y-104.191
X134.14Y-135.251
X134.14Y-139.751
X140.64Y-135.251
X140.64Y-139.751
X162.08Y-153.031
X162.08Y-157.531
X168.58Y-153.031
X168.58Y-157.531
X134.14Y-99.691
X134.14Y-104.191
X140.64Y-99.691
X140.64Y-104.191
X106.2Y-135.251
X106.2Y-139.751
X112.7Y-135.251
X112.7Y-139.751
X106.2Y-99.691
X106.2Y-104.191
X112.7Y-99.691
X112.7Y-104.191
X134.14Y-153.031
X134.14Y-157.531
X140.64Y-153.031
X140.64Y-157.531
X162.08Y-117.471
X162.08Y-121.971
X168.58Y-117.471
X168.58Y-121.971
X106.2Y-81.911
X106.2Y-86.411
X112.7Y-81.911
X112.7Y-86.411
X106.2Y-153.031
X106.2Y-157.531
X112.7Y-153.031
X112.7Y-157.531
X162.08Y-81.911
X162.08Y-86.411
X168.58Y-81.911
X168.58Y-86.411
X134.14Y-117.471
X134.14Y-121.971
X140.64Y-117.471
X140.64Y-121.971
T4
X101.161Y-91.894
X104.661Y-91.894
X108.161Y-91.894
X111.661Y-91.894
X129.101Y-127.454
X132.601Y-127.454
X136.101Y-127.454
X139.601Y-127.454
X129.101Y-74.114
X132.601Y-74.114
X136.101Y-74.114
X139.601Y-74.114
X101.161Y-127.454
X104.661Y-127.454
X108.161Y-127.454
X111.661Y-127.454
X129.101Y-145.234
X132.601Y-145.234
X136.101Y-145.234
X139.601Y-145.234
X101.161Y-74.114
X104.661Y-74.114
X108.161Y-74.114
X111.661Y-74.114
X157.041Y-74.114
X160.541Y-74.114
X164.041Y-74.114
X167.541Y-74.114
X157.041Y-91.894
X160.541Y-91.894
X164.041Y-91.894
X167.541Y-91.894
X101.161Y-109.674
X104.661Y-109.674
X108.161Y-109.674
X111.661Y-109.674
X157.041Y-109.674
X160.541Y-109.674
X164.041Y-109.674
X167.541Y-109.674
X101.161Y-145.234
X104.661Y-145.234
X108.161Y-145.234
X111.661Y-145.234
X129.101Y-109.674
X132.601Y-109.674
X136.101Y-109.674
X139.601Y-109.674
X129.101Y-91.894
X132.601Y-91.894
X136.101Y-91.894
X139.601Y-91.894
X157.041Y-127.454
X160.541Y-127.454
X164.041Y-127.454
X167.541Y-127.454
X157.041Y-145.234
X160.541Y-145.234
X164.041Y-145.234
X167.541Y-145.234
T0
M30
