G04 #@! TF.GenerationSoftware,KiCad,Pcbnew,5.1.5-52549c5~86~ubuntu18.04.1*
G04 #@! TF.CreationDate,2020-09-19T01:21:03-05:00*
G04 #@! TF.ProjectId,,58585858-5858-4585-9858-585858585858,rev?*
G04 #@! TF.SameCoordinates,Original*
G04 #@! TF.FileFunction,Legend,Bot*
G04 #@! TF.FilePolarity,Positive*
%FSLAX46Y46*%
G04 Gerber Fmt 4.6, Leading zero omitted, Abs format (unit mm)*
G04 Created by KiCad (PCBNEW 5.1.5-52549c5~86~ubuntu18.04.1) date 2020-09-19 01:21:03*
%MOMM*%
%LPD*%
G04 APERTURE LIST*
%ADD10C,0.150000*%
G04 APERTURE END LIST*
D10*
X127297466Y-88060257D02*
X127249847Y-88012638D01*
X127106990Y-87965019D01*
X127011752Y-87965019D01*
X126868895Y-88012638D01*
X126773657Y-88107876D01*
X126726038Y-88203114D01*
X126678419Y-88393590D01*
X126678419Y-88536447D01*
X126726038Y-88726923D01*
X126773657Y-88822161D01*
X126868895Y-88917400D01*
X127011752Y-88965019D01*
X127106990Y-88965019D01*
X127249847Y-88917400D01*
X127297466Y-88869780D01*
X127916514Y-88965019D02*
X128011752Y-88965019D01*
X128106990Y-88917400D01*
X128154609Y-88869780D01*
X128202228Y-88774542D01*
X128249847Y-88584066D01*
X128249847Y-88345971D01*
X128202228Y-88155495D01*
X128154609Y-88060257D01*
X128106990Y-88012638D01*
X128011752Y-87965019D01*
X127916514Y-87965019D01*
X127821276Y-88012638D01*
X127773657Y-88060257D01*
X127726038Y-88155495D01*
X127678419Y-88345971D01*
X127678419Y-88584066D01*
X127726038Y-88774542D01*
X127773657Y-88869780D01*
X127821276Y-88917400D01*
X127916514Y-88965019D01*
X129106990Y-88965019D02*
X128916514Y-88965019D01*
X128821276Y-88917400D01*
X128773657Y-88869780D01*
X128678419Y-88726923D01*
X128630800Y-88536447D01*
X128630800Y-88155495D01*
X128678419Y-88060257D01*
X128726038Y-88012638D01*
X128821276Y-87965019D01*
X129011752Y-87965019D01*
X129106990Y-88012638D01*
X129154609Y-88060257D01*
X129202228Y-88155495D01*
X129202228Y-88393590D01*
X129154609Y-88488828D01*
X129106990Y-88536447D01*
X129011752Y-88584066D01*
X128821276Y-88584066D01*
X128726038Y-88536447D01*
X128678419Y-88488828D01*
X128630800Y-88393590D01*
X129392704Y-87869780D02*
X130154609Y-87869780D01*
X130726038Y-88488828D02*
X130868895Y-88441209D01*
X130916514Y-88393590D01*
X130964133Y-88298352D01*
X130964133Y-88155495D01*
X130916514Y-88060257D01*
X130868895Y-88012638D01*
X130773657Y-87965019D01*
X130392704Y-87965019D01*
X130392704Y-88965019D01*
X130726038Y-88965019D01*
X130821276Y-88917400D01*
X130868895Y-88869780D01*
X130916514Y-88774542D01*
X130916514Y-88679304D01*
X130868895Y-88584066D01*
X130821276Y-88536447D01*
X130726038Y-88488828D01*
X130392704Y-88488828D01*
X131964133Y-87965019D02*
X131630800Y-88441209D01*
X131392704Y-87965019D02*
X131392704Y-88965019D01*
X131773657Y-88965019D01*
X131868895Y-88917400D01*
X131916514Y-88869780D01*
X131964133Y-88774542D01*
X131964133Y-88631685D01*
X131916514Y-88536447D01*
X131868895Y-88488828D01*
X131773657Y-88441209D01*
X131392704Y-88441209D01*
X132392704Y-88488828D02*
X132726038Y-88488828D01*
X132868895Y-87965019D02*
X132392704Y-87965019D01*
X132392704Y-88965019D01*
X132868895Y-88965019D01*
X133249847Y-88250733D02*
X133726038Y-88250733D01*
X133154609Y-87965019D02*
X133487942Y-88965019D01*
X133821276Y-87965019D01*
X134154609Y-87965019D02*
X134154609Y-88965019D01*
X134726038Y-87965019D02*
X134297466Y-88536447D01*
X134726038Y-88965019D02*
X134154609Y-88393590D01*
X135345085Y-88965019D02*
X135535561Y-88965019D01*
X135630800Y-88917400D01*
X135726038Y-88822161D01*
X135773657Y-88631685D01*
X135773657Y-88298352D01*
X135726038Y-88107876D01*
X135630800Y-88012638D01*
X135535561Y-87965019D01*
X135345085Y-87965019D01*
X135249847Y-88012638D01*
X135154609Y-88107876D01*
X135106990Y-88298352D01*
X135106990Y-88631685D01*
X135154609Y-88822161D01*
X135249847Y-88917400D01*
X135345085Y-88965019D01*
X136202228Y-88965019D02*
X136202228Y-88155495D01*
X136249847Y-88060257D01*
X136297466Y-88012638D01*
X136392704Y-87965019D01*
X136583180Y-87965019D01*
X136678419Y-88012638D01*
X136726038Y-88060257D01*
X136773657Y-88155495D01*
X136773657Y-88965019D01*
X137106990Y-88965019D02*
X137678419Y-88965019D01*
X137392704Y-87965019D02*
X137392704Y-88965019D01*
X79037466Y-88060257D02*
X78989847Y-88012638D01*
X78846990Y-87965019D01*
X78751752Y-87965019D01*
X78608895Y-88012638D01*
X78513657Y-88107876D01*
X78466038Y-88203114D01*
X78418419Y-88393590D01*
X78418419Y-88536447D01*
X78466038Y-88726923D01*
X78513657Y-88822161D01*
X78608895Y-88917400D01*
X78751752Y-88965019D01*
X78846990Y-88965019D01*
X78989847Y-88917400D01*
X79037466Y-88869780D01*
X79656514Y-88965019D02*
X79751752Y-88965019D01*
X79846990Y-88917400D01*
X79894609Y-88869780D01*
X79942228Y-88774542D01*
X79989847Y-88584066D01*
X79989847Y-88345971D01*
X79942228Y-88155495D01*
X79894609Y-88060257D01*
X79846990Y-88012638D01*
X79751752Y-87965019D01*
X79656514Y-87965019D01*
X79561276Y-88012638D01*
X79513657Y-88060257D01*
X79466038Y-88155495D01*
X79418419Y-88345971D01*
X79418419Y-88584066D01*
X79466038Y-88774542D01*
X79513657Y-88869780D01*
X79561276Y-88917400D01*
X79656514Y-88965019D01*
X80846990Y-88965019D02*
X80656514Y-88965019D01*
X80561276Y-88917400D01*
X80513657Y-88869780D01*
X80418419Y-88726923D01*
X80370800Y-88536447D01*
X80370800Y-88155495D01*
X80418419Y-88060257D01*
X80466038Y-88012638D01*
X80561276Y-87965019D01*
X80751752Y-87965019D01*
X80846990Y-88012638D01*
X80894609Y-88060257D01*
X80942228Y-88155495D01*
X80942228Y-88393590D01*
X80894609Y-88488828D01*
X80846990Y-88536447D01*
X80751752Y-88584066D01*
X80561276Y-88584066D01*
X80466038Y-88536447D01*
X80418419Y-88488828D01*
X80370800Y-88393590D01*
X81132704Y-87869780D02*
X81894609Y-87869780D01*
X82466038Y-88488828D02*
X82608895Y-88441209D01*
X82656514Y-88393590D01*
X82704133Y-88298352D01*
X82704133Y-88155495D01*
X82656514Y-88060257D01*
X82608895Y-88012638D01*
X82513657Y-87965019D01*
X82132704Y-87965019D01*
X82132704Y-88965019D01*
X82466038Y-88965019D01*
X82561276Y-88917400D01*
X82608895Y-88869780D01*
X82656514Y-88774542D01*
X82656514Y-88679304D01*
X82608895Y-88584066D01*
X82561276Y-88536447D01*
X82466038Y-88488828D01*
X82132704Y-88488828D01*
X83704133Y-87965019D02*
X83370800Y-88441209D01*
X83132704Y-87965019D02*
X83132704Y-88965019D01*
X83513657Y-88965019D01*
X83608895Y-88917400D01*
X83656514Y-88869780D01*
X83704133Y-88774542D01*
X83704133Y-88631685D01*
X83656514Y-88536447D01*
X83608895Y-88488828D01*
X83513657Y-88441209D01*
X83132704Y-88441209D01*
X84132704Y-88488828D02*
X84466038Y-88488828D01*
X84608895Y-87965019D02*
X84132704Y-87965019D01*
X84132704Y-88965019D01*
X84608895Y-88965019D01*
X84989847Y-88250733D02*
X85466038Y-88250733D01*
X84894609Y-87965019D02*
X85227942Y-88965019D01*
X85561276Y-87965019D01*
X85894609Y-87965019D02*
X85894609Y-88965019D01*
X86466038Y-87965019D02*
X86037466Y-88536447D01*
X86466038Y-88965019D02*
X85894609Y-88393590D01*
X87085085Y-88965019D02*
X87275561Y-88965019D01*
X87370800Y-88917400D01*
X87466038Y-88822161D01*
X87513657Y-88631685D01*
X87513657Y-88298352D01*
X87466038Y-88107876D01*
X87370800Y-88012638D01*
X87275561Y-87965019D01*
X87085085Y-87965019D01*
X86989847Y-88012638D01*
X86894609Y-88107876D01*
X86846990Y-88298352D01*
X86846990Y-88631685D01*
X86894609Y-88822161D01*
X86989847Y-88917400D01*
X87085085Y-88965019D01*
X87942228Y-88965019D02*
X87942228Y-88155495D01*
X87989847Y-88060257D01*
X88037466Y-88012638D01*
X88132704Y-87965019D01*
X88323180Y-87965019D01*
X88418419Y-88012638D01*
X88466038Y-88060257D01*
X88513657Y-88155495D01*
X88513657Y-88965019D01*
X88846990Y-88965019D02*
X89418419Y-88965019D01*
X89132704Y-87965019D02*
X89132704Y-88965019D01*
X127297466Y-60120257D02*
X127249847Y-60072638D01*
X127106990Y-60025019D01*
X127011752Y-60025019D01*
X126868895Y-60072638D01*
X126773657Y-60167876D01*
X126726038Y-60263114D01*
X126678419Y-60453590D01*
X126678419Y-60596447D01*
X126726038Y-60786923D01*
X126773657Y-60882161D01*
X126868895Y-60977400D01*
X127011752Y-61025019D01*
X127106990Y-61025019D01*
X127249847Y-60977400D01*
X127297466Y-60929780D01*
X127916514Y-61025019D02*
X128011752Y-61025019D01*
X128106990Y-60977400D01*
X128154609Y-60929780D01*
X128202228Y-60834542D01*
X128249847Y-60644066D01*
X128249847Y-60405971D01*
X128202228Y-60215495D01*
X128154609Y-60120257D01*
X128106990Y-60072638D01*
X128011752Y-60025019D01*
X127916514Y-60025019D01*
X127821276Y-60072638D01*
X127773657Y-60120257D01*
X127726038Y-60215495D01*
X127678419Y-60405971D01*
X127678419Y-60644066D01*
X127726038Y-60834542D01*
X127773657Y-60929780D01*
X127821276Y-60977400D01*
X127916514Y-61025019D01*
X129106990Y-61025019D02*
X128916514Y-61025019D01*
X128821276Y-60977400D01*
X128773657Y-60929780D01*
X128678419Y-60786923D01*
X128630800Y-60596447D01*
X128630800Y-60215495D01*
X128678419Y-60120257D01*
X128726038Y-60072638D01*
X128821276Y-60025019D01*
X129011752Y-60025019D01*
X129106990Y-60072638D01*
X129154609Y-60120257D01*
X129202228Y-60215495D01*
X129202228Y-60453590D01*
X129154609Y-60548828D01*
X129106990Y-60596447D01*
X129011752Y-60644066D01*
X128821276Y-60644066D01*
X128726038Y-60596447D01*
X128678419Y-60548828D01*
X128630800Y-60453590D01*
X129392704Y-59929780D02*
X130154609Y-59929780D01*
X130726038Y-60548828D02*
X130868895Y-60501209D01*
X130916514Y-60453590D01*
X130964133Y-60358352D01*
X130964133Y-60215495D01*
X130916514Y-60120257D01*
X130868895Y-60072638D01*
X130773657Y-60025019D01*
X130392704Y-60025019D01*
X130392704Y-61025019D01*
X130726038Y-61025019D01*
X130821276Y-60977400D01*
X130868895Y-60929780D01*
X130916514Y-60834542D01*
X130916514Y-60739304D01*
X130868895Y-60644066D01*
X130821276Y-60596447D01*
X130726038Y-60548828D01*
X130392704Y-60548828D01*
X131964133Y-60025019D02*
X131630800Y-60501209D01*
X131392704Y-60025019D02*
X131392704Y-61025019D01*
X131773657Y-61025019D01*
X131868895Y-60977400D01*
X131916514Y-60929780D01*
X131964133Y-60834542D01*
X131964133Y-60691685D01*
X131916514Y-60596447D01*
X131868895Y-60548828D01*
X131773657Y-60501209D01*
X131392704Y-60501209D01*
X132392704Y-60548828D02*
X132726038Y-60548828D01*
X132868895Y-60025019D02*
X132392704Y-60025019D01*
X132392704Y-61025019D01*
X132868895Y-61025019D01*
X133249847Y-60310733D02*
X133726038Y-60310733D01*
X133154609Y-60025019D02*
X133487942Y-61025019D01*
X133821276Y-60025019D01*
X134154609Y-60025019D02*
X134154609Y-61025019D01*
X134726038Y-60025019D02*
X134297466Y-60596447D01*
X134726038Y-61025019D02*
X134154609Y-60453590D01*
X135345085Y-61025019D02*
X135535561Y-61025019D01*
X135630800Y-60977400D01*
X135726038Y-60882161D01*
X135773657Y-60691685D01*
X135773657Y-60358352D01*
X135726038Y-60167876D01*
X135630800Y-60072638D01*
X135535561Y-60025019D01*
X135345085Y-60025019D01*
X135249847Y-60072638D01*
X135154609Y-60167876D01*
X135106990Y-60358352D01*
X135106990Y-60691685D01*
X135154609Y-60882161D01*
X135249847Y-60977400D01*
X135345085Y-61025019D01*
X136202228Y-61025019D02*
X136202228Y-60215495D01*
X136249847Y-60120257D01*
X136297466Y-60072638D01*
X136392704Y-60025019D01*
X136583180Y-60025019D01*
X136678419Y-60072638D01*
X136726038Y-60120257D01*
X136773657Y-60215495D01*
X136773657Y-61025019D01*
X137106990Y-61025019D02*
X137678419Y-61025019D01*
X137392704Y-60025019D02*
X137392704Y-61025019D01*
X79037466Y-60120257D02*
X78989847Y-60072638D01*
X78846990Y-60025019D01*
X78751752Y-60025019D01*
X78608895Y-60072638D01*
X78513657Y-60167876D01*
X78466038Y-60263114D01*
X78418419Y-60453590D01*
X78418419Y-60596447D01*
X78466038Y-60786923D01*
X78513657Y-60882161D01*
X78608895Y-60977400D01*
X78751752Y-61025019D01*
X78846990Y-61025019D01*
X78989847Y-60977400D01*
X79037466Y-60929780D01*
X79656514Y-61025019D02*
X79751752Y-61025019D01*
X79846990Y-60977400D01*
X79894609Y-60929780D01*
X79942228Y-60834542D01*
X79989847Y-60644066D01*
X79989847Y-60405971D01*
X79942228Y-60215495D01*
X79894609Y-60120257D01*
X79846990Y-60072638D01*
X79751752Y-60025019D01*
X79656514Y-60025019D01*
X79561276Y-60072638D01*
X79513657Y-60120257D01*
X79466038Y-60215495D01*
X79418419Y-60405971D01*
X79418419Y-60644066D01*
X79466038Y-60834542D01*
X79513657Y-60929780D01*
X79561276Y-60977400D01*
X79656514Y-61025019D01*
X80846990Y-61025019D02*
X80656514Y-61025019D01*
X80561276Y-60977400D01*
X80513657Y-60929780D01*
X80418419Y-60786923D01*
X80370800Y-60596447D01*
X80370800Y-60215495D01*
X80418419Y-60120257D01*
X80466038Y-60072638D01*
X80561276Y-60025019D01*
X80751752Y-60025019D01*
X80846990Y-60072638D01*
X80894609Y-60120257D01*
X80942228Y-60215495D01*
X80942228Y-60453590D01*
X80894609Y-60548828D01*
X80846990Y-60596447D01*
X80751752Y-60644066D01*
X80561276Y-60644066D01*
X80466038Y-60596447D01*
X80418419Y-60548828D01*
X80370800Y-60453590D01*
X81132704Y-59929780D02*
X81894609Y-59929780D01*
X82466038Y-60548828D02*
X82608895Y-60501209D01*
X82656514Y-60453590D01*
X82704133Y-60358352D01*
X82704133Y-60215495D01*
X82656514Y-60120257D01*
X82608895Y-60072638D01*
X82513657Y-60025019D01*
X82132704Y-60025019D01*
X82132704Y-61025019D01*
X82466038Y-61025019D01*
X82561276Y-60977400D01*
X82608895Y-60929780D01*
X82656514Y-60834542D01*
X82656514Y-60739304D01*
X82608895Y-60644066D01*
X82561276Y-60596447D01*
X82466038Y-60548828D01*
X82132704Y-60548828D01*
X83704133Y-60025019D02*
X83370800Y-60501209D01*
X83132704Y-60025019D02*
X83132704Y-61025019D01*
X83513657Y-61025019D01*
X83608895Y-60977400D01*
X83656514Y-60929780D01*
X83704133Y-60834542D01*
X83704133Y-60691685D01*
X83656514Y-60596447D01*
X83608895Y-60548828D01*
X83513657Y-60501209D01*
X83132704Y-60501209D01*
X84132704Y-60548828D02*
X84466038Y-60548828D01*
X84608895Y-60025019D02*
X84132704Y-60025019D01*
X84132704Y-61025019D01*
X84608895Y-61025019D01*
X84989847Y-60310733D02*
X85466038Y-60310733D01*
X84894609Y-60025019D02*
X85227942Y-61025019D01*
X85561276Y-60025019D01*
X85894609Y-60025019D02*
X85894609Y-61025019D01*
X86466038Y-60025019D02*
X86037466Y-60596447D01*
X86466038Y-61025019D02*
X85894609Y-60453590D01*
X87085085Y-61025019D02*
X87275561Y-61025019D01*
X87370800Y-60977400D01*
X87466038Y-60882161D01*
X87513657Y-60691685D01*
X87513657Y-60358352D01*
X87466038Y-60167876D01*
X87370800Y-60072638D01*
X87275561Y-60025019D01*
X87085085Y-60025019D01*
X86989847Y-60072638D01*
X86894609Y-60167876D01*
X86846990Y-60358352D01*
X86846990Y-60691685D01*
X86894609Y-60882161D01*
X86989847Y-60977400D01*
X87085085Y-61025019D01*
X87942228Y-61025019D02*
X87942228Y-60215495D01*
X87989847Y-60120257D01*
X88037466Y-60072638D01*
X88132704Y-60025019D01*
X88323180Y-60025019D01*
X88418419Y-60072638D01*
X88466038Y-60120257D01*
X88513657Y-60215495D01*
X88513657Y-61025019D01*
X88846990Y-61025019D02*
X89418419Y-61025019D01*
X89132704Y-60025019D02*
X89132704Y-61025019D01*
X127297466Y-32180257D02*
X127249847Y-32132638D01*
X127106990Y-32085019D01*
X127011752Y-32085019D01*
X126868895Y-32132638D01*
X126773657Y-32227876D01*
X126726038Y-32323114D01*
X126678419Y-32513590D01*
X126678419Y-32656447D01*
X126726038Y-32846923D01*
X126773657Y-32942161D01*
X126868895Y-33037400D01*
X127011752Y-33085019D01*
X127106990Y-33085019D01*
X127249847Y-33037400D01*
X127297466Y-32989780D01*
X127916514Y-33085019D02*
X128011752Y-33085019D01*
X128106990Y-33037400D01*
X128154609Y-32989780D01*
X128202228Y-32894542D01*
X128249847Y-32704066D01*
X128249847Y-32465971D01*
X128202228Y-32275495D01*
X128154609Y-32180257D01*
X128106990Y-32132638D01*
X128011752Y-32085019D01*
X127916514Y-32085019D01*
X127821276Y-32132638D01*
X127773657Y-32180257D01*
X127726038Y-32275495D01*
X127678419Y-32465971D01*
X127678419Y-32704066D01*
X127726038Y-32894542D01*
X127773657Y-32989780D01*
X127821276Y-33037400D01*
X127916514Y-33085019D01*
X129106990Y-33085019D02*
X128916514Y-33085019D01*
X128821276Y-33037400D01*
X128773657Y-32989780D01*
X128678419Y-32846923D01*
X128630800Y-32656447D01*
X128630800Y-32275495D01*
X128678419Y-32180257D01*
X128726038Y-32132638D01*
X128821276Y-32085019D01*
X129011752Y-32085019D01*
X129106990Y-32132638D01*
X129154609Y-32180257D01*
X129202228Y-32275495D01*
X129202228Y-32513590D01*
X129154609Y-32608828D01*
X129106990Y-32656447D01*
X129011752Y-32704066D01*
X128821276Y-32704066D01*
X128726038Y-32656447D01*
X128678419Y-32608828D01*
X128630800Y-32513590D01*
X129392704Y-31989780D02*
X130154609Y-31989780D01*
X130726038Y-32608828D02*
X130868895Y-32561209D01*
X130916514Y-32513590D01*
X130964133Y-32418352D01*
X130964133Y-32275495D01*
X130916514Y-32180257D01*
X130868895Y-32132638D01*
X130773657Y-32085019D01*
X130392704Y-32085019D01*
X130392704Y-33085019D01*
X130726038Y-33085019D01*
X130821276Y-33037400D01*
X130868895Y-32989780D01*
X130916514Y-32894542D01*
X130916514Y-32799304D01*
X130868895Y-32704066D01*
X130821276Y-32656447D01*
X130726038Y-32608828D01*
X130392704Y-32608828D01*
X131964133Y-32085019D02*
X131630800Y-32561209D01*
X131392704Y-32085019D02*
X131392704Y-33085019D01*
X131773657Y-33085019D01*
X131868895Y-33037400D01*
X131916514Y-32989780D01*
X131964133Y-32894542D01*
X131964133Y-32751685D01*
X131916514Y-32656447D01*
X131868895Y-32608828D01*
X131773657Y-32561209D01*
X131392704Y-32561209D01*
X132392704Y-32608828D02*
X132726038Y-32608828D01*
X132868895Y-32085019D02*
X132392704Y-32085019D01*
X132392704Y-33085019D01*
X132868895Y-33085019D01*
X133249847Y-32370733D02*
X133726038Y-32370733D01*
X133154609Y-32085019D02*
X133487942Y-33085019D01*
X133821276Y-32085019D01*
X134154609Y-32085019D02*
X134154609Y-33085019D01*
X134726038Y-32085019D02*
X134297466Y-32656447D01*
X134726038Y-33085019D02*
X134154609Y-32513590D01*
X135345085Y-33085019D02*
X135535561Y-33085019D01*
X135630800Y-33037400D01*
X135726038Y-32942161D01*
X135773657Y-32751685D01*
X135773657Y-32418352D01*
X135726038Y-32227876D01*
X135630800Y-32132638D01*
X135535561Y-32085019D01*
X135345085Y-32085019D01*
X135249847Y-32132638D01*
X135154609Y-32227876D01*
X135106990Y-32418352D01*
X135106990Y-32751685D01*
X135154609Y-32942161D01*
X135249847Y-33037400D01*
X135345085Y-33085019D01*
X136202228Y-33085019D02*
X136202228Y-32275495D01*
X136249847Y-32180257D01*
X136297466Y-32132638D01*
X136392704Y-32085019D01*
X136583180Y-32085019D01*
X136678419Y-32132638D01*
X136726038Y-32180257D01*
X136773657Y-32275495D01*
X136773657Y-33085019D01*
X137106990Y-33085019D02*
X137678419Y-33085019D01*
X137392704Y-32085019D02*
X137392704Y-33085019D01*
X79037466Y-32180257D02*
X78989847Y-32132638D01*
X78846990Y-32085019D01*
X78751752Y-32085019D01*
X78608895Y-32132638D01*
X78513657Y-32227876D01*
X78466038Y-32323114D01*
X78418419Y-32513590D01*
X78418419Y-32656447D01*
X78466038Y-32846923D01*
X78513657Y-32942161D01*
X78608895Y-33037400D01*
X78751752Y-33085019D01*
X78846990Y-33085019D01*
X78989847Y-33037400D01*
X79037466Y-32989780D01*
X79656514Y-33085019D02*
X79751752Y-33085019D01*
X79846990Y-33037400D01*
X79894609Y-32989780D01*
X79942228Y-32894542D01*
X79989847Y-32704066D01*
X79989847Y-32465971D01*
X79942228Y-32275495D01*
X79894609Y-32180257D01*
X79846990Y-32132638D01*
X79751752Y-32085019D01*
X79656514Y-32085019D01*
X79561276Y-32132638D01*
X79513657Y-32180257D01*
X79466038Y-32275495D01*
X79418419Y-32465971D01*
X79418419Y-32704066D01*
X79466038Y-32894542D01*
X79513657Y-32989780D01*
X79561276Y-33037400D01*
X79656514Y-33085019D01*
X80846990Y-33085019D02*
X80656514Y-33085019D01*
X80561276Y-33037400D01*
X80513657Y-32989780D01*
X80418419Y-32846923D01*
X80370800Y-32656447D01*
X80370800Y-32275495D01*
X80418419Y-32180257D01*
X80466038Y-32132638D01*
X80561276Y-32085019D01*
X80751752Y-32085019D01*
X80846990Y-32132638D01*
X80894609Y-32180257D01*
X80942228Y-32275495D01*
X80942228Y-32513590D01*
X80894609Y-32608828D01*
X80846990Y-32656447D01*
X80751752Y-32704066D01*
X80561276Y-32704066D01*
X80466038Y-32656447D01*
X80418419Y-32608828D01*
X80370800Y-32513590D01*
X81132704Y-31989780D02*
X81894609Y-31989780D01*
X82466038Y-32608828D02*
X82608895Y-32561209D01*
X82656514Y-32513590D01*
X82704133Y-32418352D01*
X82704133Y-32275495D01*
X82656514Y-32180257D01*
X82608895Y-32132638D01*
X82513657Y-32085019D01*
X82132704Y-32085019D01*
X82132704Y-33085019D01*
X82466038Y-33085019D01*
X82561276Y-33037400D01*
X82608895Y-32989780D01*
X82656514Y-32894542D01*
X82656514Y-32799304D01*
X82608895Y-32704066D01*
X82561276Y-32656447D01*
X82466038Y-32608828D01*
X82132704Y-32608828D01*
X83704133Y-32085019D02*
X83370800Y-32561209D01*
X83132704Y-32085019D02*
X83132704Y-33085019D01*
X83513657Y-33085019D01*
X83608895Y-33037400D01*
X83656514Y-32989780D01*
X83704133Y-32894542D01*
X83704133Y-32751685D01*
X83656514Y-32656447D01*
X83608895Y-32608828D01*
X83513657Y-32561209D01*
X83132704Y-32561209D01*
X84132704Y-32608828D02*
X84466038Y-32608828D01*
X84608895Y-32085019D02*
X84132704Y-32085019D01*
X84132704Y-33085019D01*
X84608895Y-33085019D01*
X84989847Y-32370733D02*
X85466038Y-32370733D01*
X84894609Y-32085019D02*
X85227942Y-33085019D01*
X85561276Y-32085019D01*
X85894609Y-32085019D02*
X85894609Y-33085019D01*
X86466038Y-32085019D02*
X86037466Y-32656447D01*
X86466038Y-33085019D02*
X85894609Y-32513590D01*
X87085085Y-33085019D02*
X87275561Y-33085019D01*
X87370800Y-33037400D01*
X87466038Y-32942161D01*
X87513657Y-32751685D01*
X87513657Y-32418352D01*
X87466038Y-32227876D01*
X87370800Y-32132638D01*
X87275561Y-32085019D01*
X87085085Y-32085019D01*
X86989847Y-32132638D01*
X86894609Y-32227876D01*
X86846990Y-32418352D01*
X86846990Y-32751685D01*
X86894609Y-32942161D01*
X86989847Y-33037400D01*
X87085085Y-33085019D01*
X87942228Y-33085019D02*
X87942228Y-32275495D01*
X87989847Y-32180257D01*
X88037466Y-32132638D01*
X88132704Y-32085019D01*
X88323180Y-32085019D01*
X88418419Y-32132638D01*
X88466038Y-32180257D01*
X88513657Y-32275495D01*
X88513657Y-33085019D01*
X88846990Y-33085019D02*
X89418419Y-33085019D01*
X89132704Y-32085019D02*
X89132704Y-33085019D01*
M02*
