G04 #@! TF.GenerationSoftware,KiCad,Pcbnew,5.1.5-52549c5~86~ubuntu18.04.1*
G04 #@! TF.CreationDate,2020-09-19T01:21:03-05:00*
G04 #@! TF.ProjectId,,58585858-5858-4585-9858-585858585858,rev?*
G04 #@! TF.SameCoordinates,Original*
G04 #@! TF.FileFunction,Legend,Top*
G04 #@! TF.FilePolarity,Positive*
%FSLAX46Y46*%
G04 Gerber Fmt 4.6, Leading zero omitted, Abs format (unit mm)*
G04 Created by KiCad (PCBNEW 5.1.5-52549c5~86~ubuntu18.04.1) date 2020-09-19 01:21:03*
%MOMM*%
%LPD*%
G04 APERTURE LIST*
%ADD10C,0.150000*%
%ADD11C,0.120000*%
G04 APERTURE END LIST*
D10*
X127615666Y-114682542D02*
X127568047Y-114730161D01*
X127425190Y-114777780D01*
X127329952Y-114777780D01*
X127187095Y-114730161D01*
X127091857Y-114634923D01*
X127044238Y-114539685D01*
X126996619Y-114349209D01*
X126996619Y-114206352D01*
X127044238Y-114015876D01*
X127091857Y-113920638D01*
X127187095Y-113825400D01*
X127329952Y-113777780D01*
X127425190Y-113777780D01*
X127568047Y-113825400D01*
X127615666Y-113873019D01*
X128234714Y-113777780D02*
X128329952Y-113777780D01*
X128425190Y-113825400D01*
X128472809Y-113873019D01*
X128520428Y-113968257D01*
X128568047Y-114158733D01*
X128568047Y-114396828D01*
X128520428Y-114587304D01*
X128472809Y-114682542D01*
X128425190Y-114730161D01*
X128329952Y-114777780D01*
X128234714Y-114777780D01*
X128139476Y-114730161D01*
X128091857Y-114682542D01*
X128044238Y-114587304D01*
X127996619Y-114396828D01*
X127996619Y-114158733D01*
X128044238Y-113968257D01*
X128091857Y-113873019D01*
X128139476Y-113825400D01*
X128234714Y-113777780D01*
X129425190Y-113777780D02*
X129234714Y-113777780D01*
X129139476Y-113825400D01*
X129091857Y-113873019D01*
X128996619Y-114015876D01*
X128949000Y-114206352D01*
X128949000Y-114587304D01*
X128996619Y-114682542D01*
X129044238Y-114730161D01*
X129139476Y-114777780D01*
X129329952Y-114777780D01*
X129425190Y-114730161D01*
X129472809Y-114682542D01*
X129520428Y-114587304D01*
X129520428Y-114349209D01*
X129472809Y-114253971D01*
X129425190Y-114206352D01*
X129329952Y-114158733D01*
X129139476Y-114158733D01*
X129044238Y-114206352D01*
X128996619Y-114253971D01*
X128949000Y-114349209D01*
X129710904Y-114873019D02*
X130472809Y-114873019D01*
X131044238Y-114253971D02*
X131187095Y-114301590D01*
X131234714Y-114349209D01*
X131282333Y-114444447D01*
X131282333Y-114587304D01*
X131234714Y-114682542D01*
X131187095Y-114730161D01*
X131091857Y-114777780D01*
X130710904Y-114777780D01*
X130710904Y-113777780D01*
X131044238Y-113777780D01*
X131139476Y-113825400D01*
X131187095Y-113873019D01*
X131234714Y-113968257D01*
X131234714Y-114063495D01*
X131187095Y-114158733D01*
X131139476Y-114206352D01*
X131044238Y-114253971D01*
X130710904Y-114253971D01*
X132282333Y-114777780D02*
X131949000Y-114301590D01*
X131710904Y-114777780D02*
X131710904Y-113777780D01*
X132091857Y-113777780D01*
X132187095Y-113825400D01*
X132234714Y-113873019D01*
X132282333Y-113968257D01*
X132282333Y-114111114D01*
X132234714Y-114206352D01*
X132187095Y-114253971D01*
X132091857Y-114301590D01*
X131710904Y-114301590D01*
X132710904Y-114253971D02*
X133044238Y-114253971D01*
X133187095Y-114777780D02*
X132710904Y-114777780D01*
X132710904Y-113777780D01*
X133187095Y-113777780D01*
X133568047Y-114492066D02*
X134044238Y-114492066D01*
X133472809Y-114777780D02*
X133806142Y-113777780D01*
X134139476Y-114777780D01*
X134472809Y-114777780D02*
X134472809Y-113777780D01*
X135044238Y-114777780D02*
X134615666Y-114206352D01*
X135044238Y-113777780D02*
X134472809Y-114349209D01*
X135663285Y-113777780D02*
X135853761Y-113777780D01*
X135949000Y-113825400D01*
X136044238Y-113920638D01*
X136091857Y-114111114D01*
X136091857Y-114444447D01*
X136044238Y-114634923D01*
X135949000Y-114730161D01*
X135853761Y-114777780D01*
X135663285Y-114777780D01*
X135568047Y-114730161D01*
X135472809Y-114634923D01*
X135425190Y-114444447D01*
X135425190Y-114111114D01*
X135472809Y-113920638D01*
X135568047Y-113825400D01*
X135663285Y-113777780D01*
X136520428Y-113777780D02*
X136520428Y-114587304D01*
X136568047Y-114682542D01*
X136615666Y-114730161D01*
X136710904Y-114777780D01*
X136901380Y-114777780D01*
X136996619Y-114730161D01*
X137044238Y-114682542D01*
X137091857Y-114587304D01*
X137091857Y-113777780D01*
X137425190Y-113777780D02*
X137996619Y-113777780D01*
X137710904Y-114777780D02*
X137710904Y-113777780D01*
X79355666Y-114682542D02*
X79308047Y-114730161D01*
X79165190Y-114777780D01*
X79069952Y-114777780D01*
X78927095Y-114730161D01*
X78831857Y-114634923D01*
X78784238Y-114539685D01*
X78736619Y-114349209D01*
X78736619Y-114206352D01*
X78784238Y-114015876D01*
X78831857Y-113920638D01*
X78927095Y-113825400D01*
X79069952Y-113777780D01*
X79165190Y-113777780D01*
X79308047Y-113825400D01*
X79355666Y-113873019D01*
X79974714Y-113777780D02*
X80069952Y-113777780D01*
X80165190Y-113825400D01*
X80212809Y-113873019D01*
X80260428Y-113968257D01*
X80308047Y-114158733D01*
X80308047Y-114396828D01*
X80260428Y-114587304D01*
X80212809Y-114682542D01*
X80165190Y-114730161D01*
X80069952Y-114777780D01*
X79974714Y-114777780D01*
X79879476Y-114730161D01*
X79831857Y-114682542D01*
X79784238Y-114587304D01*
X79736619Y-114396828D01*
X79736619Y-114158733D01*
X79784238Y-113968257D01*
X79831857Y-113873019D01*
X79879476Y-113825400D01*
X79974714Y-113777780D01*
X81165190Y-113777780D02*
X80974714Y-113777780D01*
X80879476Y-113825400D01*
X80831857Y-113873019D01*
X80736619Y-114015876D01*
X80689000Y-114206352D01*
X80689000Y-114587304D01*
X80736619Y-114682542D01*
X80784238Y-114730161D01*
X80879476Y-114777780D01*
X81069952Y-114777780D01*
X81165190Y-114730161D01*
X81212809Y-114682542D01*
X81260428Y-114587304D01*
X81260428Y-114349209D01*
X81212809Y-114253971D01*
X81165190Y-114206352D01*
X81069952Y-114158733D01*
X80879476Y-114158733D01*
X80784238Y-114206352D01*
X80736619Y-114253971D01*
X80689000Y-114349209D01*
X81450904Y-114873019D02*
X82212809Y-114873019D01*
X82784238Y-114253971D02*
X82927095Y-114301590D01*
X82974714Y-114349209D01*
X83022333Y-114444447D01*
X83022333Y-114587304D01*
X82974714Y-114682542D01*
X82927095Y-114730161D01*
X82831857Y-114777780D01*
X82450904Y-114777780D01*
X82450904Y-113777780D01*
X82784238Y-113777780D01*
X82879476Y-113825400D01*
X82927095Y-113873019D01*
X82974714Y-113968257D01*
X82974714Y-114063495D01*
X82927095Y-114158733D01*
X82879476Y-114206352D01*
X82784238Y-114253971D01*
X82450904Y-114253971D01*
X84022333Y-114777780D02*
X83689000Y-114301590D01*
X83450904Y-114777780D02*
X83450904Y-113777780D01*
X83831857Y-113777780D01*
X83927095Y-113825400D01*
X83974714Y-113873019D01*
X84022333Y-113968257D01*
X84022333Y-114111114D01*
X83974714Y-114206352D01*
X83927095Y-114253971D01*
X83831857Y-114301590D01*
X83450904Y-114301590D01*
X84450904Y-114253971D02*
X84784238Y-114253971D01*
X84927095Y-114777780D02*
X84450904Y-114777780D01*
X84450904Y-113777780D01*
X84927095Y-113777780D01*
X85308047Y-114492066D02*
X85784238Y-114492066D01*
X85212809Y-114777780D02*
X85546142Y-113777780D01*
X85879476Y-114777780D01*
X86212809Y-114777780D02*
X86212809Y-113777780D01*
X86784238Y-114777780D02*
X86355666Y-114206352D01*
X86784238Y-113777780D02*
X86212809Y-114349209D01*
X87403285Y-113777780D02*
X87593761Y-113777780D01*
X87689000Y-113825400D01*
X87784238Y-113920638D01*
X87831857Y-114111114D01*
X87831857Y-114444447D01*
X87784238Y-114634923D01*
X87689000Y-114730161D01*
X87593761Y-114777780D01*
X87403285Y-114777780D01*
X87308047Y-114730161D01*
X87212809Y-114634923D01*
X87165190Y-114444447D01*
X87165190Y-114111114D01*
X87212809Y-113920638D01*
X87308047Y-113825400D01*
X87403285Y-113777780D01*
X88260428Y-113777780D02*
X88260428Y-114587304D01*
X88308047Y-114682542D01*
X88355666Y-114730161D01*
X88450904Y-114777780D01*
X88641380Y-114777780D01*
X88736619Y-114730161D01*
X88784238Y-114682542D01*
X88831857Y-114587304D01*
X88831857Y-113777780D01*
X89165190Y-113777780D02*
X89736619Y-113777780D01*
X89450904Y-114777780D02*
X89450904Y-113777780D01*
X127615666Y-86742542D02*
X127568047Y-86790161D01*
X127425190Y-86837780D01*
X127329952Y-86837780D01*
X127187095Y-86790161D01*
X127091857Y-86694923D01*
X127044238Y-86599685D01*
X126996619Y-86409209D01*
X126996619Y-86266352D01*
X127044238Y-86075876D01*
X127091857Y-85980638D01*
X127187095Y-85885400D01*
X127329952Y-85837780D01*
X127425190Y-85837780D01*
X127568047Y-85885400D01*
X127615666Y-85933019D01*
X128234714Y-85837780D02*
X128329952Y-85837780D01*
X128425190Y-85885400D01*
X128472809Y-85933019D01*
X128520428Y-86028257D01*
X128568047Y-86218733D01*
X128568047Y-86456828D01*
X128520428Y-86647304D01*
X128472809Y-86742542D01*
X128425190Y-86790161D01*
X128329952Y-86837780D01*
X128234714Y-86837780D01*
X128139476Y-86790161D01*
X128091857Y-86742542D01*
X128044238Y-86647304D01*
X127996619Y-86456828D01*
X127996619Y-86218733D01*
X128044238Y-86028257D01*
X128091857Y-85933019D01*
X128139476Y-85885400D01*
X128234714Y-85837780D01*
X129425190Y-85837780D02*
X129234714Y-85837780D01*
X129139476Y-85885400D01*
X129091857Y-85933019D01*
X128996619Y-86075876D01*
X128949000Y-86266352D01*
X128949000Y-86647304D01*
X128996619Y-86742542D01*
X129044238Y-86790161D01*
X129139476Y-86837780D01*
X129329952Y-86837780D01*
X129425190Y-86790161D01*
X129472809Y-86742542D01*
X129520428Y-86647304D01*
X129520428Y-86409209D01*
X129472809Y-86313971D01*
X129425190Y-86266352D01*
X129329952Y-86218733D01*
X129139476Y-86218733D01*
X129044238Y-86266352D01*
X128996619Y-86313971D01*
X128949000Y-86409209D01*
X129710904Y-86933019D02*
X130472809Y-86933019D01*
X131044238Y-86313971D02*
X131187095Y-86361590D01*
X131234714Y-86409209D01*
X131282333Y-86504447D01*
X131282333Y-86647304D01*
X131234714Y-86742542D01*
X131187095Y-86790161D01*
X131091857Y-86837780D01*
X130710904Y-86837780D01*
X130710904Y-85837780D01*
X131044238Y-85837780D01*
X131139476Y-85885400D01*
X131187095Y-85933019D01*
X131234714Y-86028257D01*
X131234714Y-86123495D01*
X131187095Y-86218733D01*
X131139476Y-86266352D01*
X131044238Y-86313971D01*
X130710904Y-86313971D01*
X132282333Y-86837780D02*
X131949000Y-86361590D01*
X131710904Y-86837780D02*
X131710904Y-85837780D01*
X132091857Y-85837780D01*
X132187095Y-85885400D01*
X132234714Y-85933019D01*
X132282333Y-86028257D01*
X132282333Y-86171114D01*
X132234714Y-86266352D01*
X132187095Y-86313971D01*
X132091857Y-86361590D01*
X131710904Y-86361590D01*
X132710904Y-86313971D02*
X133044238Y-86313971D01*
X133187095Y-86837780D02*
X132710904Y-86837780D01*
X132710904Y-85837780D01*
X133187095Y-85837780D01*
X133568047Y-86552066D02*
X134044238Y-86552066D01*
X133472809Y-86837780D02*
X133806142Y-85837780D01*
X134139476Y-86837780D01*
X134472809Y-86837780D02*
X134472809Y-85837780D01*
X135044238Y-86837780D02*
X134615666Y-86266352D01*
X135044238Y-85837780D02*
X134472809Y-86409209D01*
X135663285Y-85837780D02*
X135853761Y-85837780D01*
X135949000Y-85885400D01*
X136044238Y-85980638D01*
X136091857Y-86171114D01*
X136091857Y-86504447D01*
X136044238Y-86694923D01*
X135949000Y-86790161D01*
X135853761Y-86837780D01*
X135663285Y-86837780D01*
X135568047Y-86790161D01*
X135472809Y-86694923D01*
X135425190Y-86504447D01*
X135425190Y-86171114D01*
X135472809Y-85980638D01*
X135568047Y-85885400D01*
X135663285Y-85837780D01*
X136520428Y-85837780D02*
X136520428Y-86647304D01*
X136568047Y-86742542D01*
X136615666Y-86790161D01*
X136710904Y-86837780D01*
X136901380Y-86837780D01*
X136996619Y-86790161D01*
X137044238Y-86742542D01*
X137091857Y-86647304D01*
X137091857Y-85837780D01*
X137425190Y-85837780D02*
X137996619Y-85837780D01*
X137710904Y-86837780D02*
X137710904Y-85837780D01*
X79355666Y-86742542D02*
X79308047Y-86790161D01*
X79165190Y-86837780D01*
X79069952Y-86837780D01*
X78927095Y-86790161D01*
X78831857Y-86694923D01*
X78784238Y-86599685D01*
X78736619Y-86409209D01*
X78736619Y-86266352D01*
X78784238Y-86075876D01*
X78831857Y-85980638D01*
X78927095Y-85885400D01*
X79069952Y-85837780D01*
X79165190Y-85837780D01*
X79308047Y-85885400D01*
X79355666Y-85933019D01*
X79974714Y-85837780D02*
X80069952Y-85837780D01*
X80165190Y-85885400D01*
X80212809Y-85933019D01*
X80260428Y-86028257D01*
X80308047Y-86218733D01*
X80308047Y-86456828D01*
X80260428Y-86647304D01*
X80212809Y-86742542D01*
X80165190Y-86790161D01*
X80069952Y-86837780D01*
X79974714Y-86837780D01*
X79879476Y-86790161D01*
X79831857Y-86742542D01*
X79784238Y-86647304D01*
X79736619Y-86456828D01*
X79736619Y-86218733D01*
X79784238Y-86028257D01*
X79831857Y-85933019D01*
X79879476Y-85885400D01*
X79974714Y-85837780D01*
X81165190Y-85837780D02*
X80974714Y-85837780D01*
X80879476Y-85885400D01*
X80831857Y-85933019D01*
X80736619Y-86075876D01*
X80689000Y-86266352D01*
X80689000Y-86647304D01*
X80736619Y-86742542D01*
X80784238Y-86790161D01*
X80879476Y-86837780D01*
X81069952Y-86837780D01*
X81165190Y-86790161D01*
X81212809Y-86742542D01*
X81260428Y-86647304D01*
X81260428Y-86409209D01*
X81212809Y-86313971D01*
X81165190Y-86266352D01*
X81069952Y-86218733D01*
X80879476Y-86218733D01*
X80784238Y-86266352D01*
X80736619Y-86313971D01*
X80689000Y-86409209D01*
X81450904Y-86933019D02*
X82212809Y-86933019D01*
X82784238Y-86313971D02*
X82927095Y-86361590D01*
X82974714Y-86409209D01*
X83022333Y-86504447D01*
X83022333Y-86647304D01*
X82974714Y-86742542D01*
X82927095Y-86790161D01*
X82831857Y-86837780D01*
X82450904Y-86837780D01*
X82450904Y-85837780D01*
X82784238Y-85837780D01*
X82879476Y-85885400D01*
X82927095Y-85933019D01*
X82974714Y-86028257D01*
X82974714Y-86123495D01*
X82927095Y-86218733D01*
X82879476Y-86266352D01*
X82784238Y-86313971D01*
X82450904Y-86313971D01*
X84022333Y-86837780D02*
X83689000Y-86361590D01*
X83450904Y-86837780D02*
X83450904Y-85837780D01*
X83831857Y-85837780D01*
X83927095Y-85885400D01*
X83974714Y-85933019D01*
X84022333Y-86028257D01*
X84022333Y-86171114D01*
X83974714Y-86266352D01*
X83927095Y-86313971D01*
X83831857Y-86361590D01*
X83450904Y-86361590D01*
X84450904Y-86313971D02*
X84784238Y-86313971D01*
X84927095Y-86837780D02*
X84450904Y-86837780D01*
X84450904Y-85837780D01*
X84927095Y-85837780D01*
X85308047Y-86552066D02*
X85784238Y-86552066D01*
X85212809Y-86837780D02*
X85546142Y-85837780D01*
X85879476Y-86837780D01*
X86212809Y-86837780D02*
X86212809Y-85837780D01*
X86784238Y-86837780D02*
X86355666Y-86266352D01*
X86784238Y-85837780D02*
X86212809Y-86409209D01*
X87403285Y-85837780D02*
X87593761Y-85837780D01*
X87689000Y-85885400D01*
X87784238Y-85980638D01*
X87831857Y-86171114D01*
X87831857Y-86504447D01*
X87784238Y-86694923D01*
X87689000Y-86790161D01*
X87593761Y-86837780D01*
X87403285Y-86837780D01*
X87308047Y-86790161D01*
X87212809Y-86694923D01*
X87165190Y-86504447D01*
X87165190Y-86171114D01*
X87212809Y-85980638D01*
X87308047Y-85885400D01*
X87403285Y-85837780D01*
X88260428Y-85837780D02*
X88260428Y-86647304D01*
X88308047Y-86742542D01*
X88355666Y-86790161D01*
X88450904Y-86837780D01*
X88641380Y-86837780D01*
X88736619Y-86790161D01*
X88784238Y-86742542D01*
X88831857Y-86647304D01*
X88831857Y-85837780D01*
X89165190Y-85837780D02*
X89736619Y-85837780D01*
X89450904Y-86837780D02*
X89450904Y-85837780D01*
X127615666Y-58802542D02*
X127568047Y-58850161D01*
X127425190Y-58897780D01*
X127329952Y-58897780D01*
X127187095Y-58850161D01*
X127091857Y-58754923D01*
X127044238Y-58659685D01*
X126996619Y-58469209D01*
X126996619Y-58326352D01*
X127044238Y-58135876D01*
X127091857Y-58040638D01*
X127187095Y-57945400D01*
X127329952Y-57897780D01*
X127425190Y-57897780D01*
X127568047Y-57945400D01*
X127615666Y-57993019D01*
X128234714Y-57897780D02*
X128329952Y-57897780D01*
X128425190Y-57945400D01*
X128472809Y-57993019D01*
X128520428Y-58088257D01*
X128568047Y-58278733D01*
X128568047Y-58516828D01*
X128520428Y-58707304D01*
X128472809Y-58802542D01*
X128425190Y-58850161D01*
X128329952Y-58897780D01*
X128234714Y-58897780D01*
X128139476Y-58850161D01*
X128091857Y-58802542D01*
X128044238Y-58707304D01*
X127996619Y-58516828D01*
X127996619Y-58278733D01*
X128044238Y-58088257D01*
X128091857Y-57993019D01*
X128139476Y-57945400D01*
X128234714Y-57897780D01*
X129425190Y-57897780D02*
X129234714Y-57897780D01*
X129139476Y-57945400D01*
X129091857Y-57993019D01*
X128996619Y-58135876D01*
X128949000Y-58326352D01*
X128949000Y-58707304D01*
X128996619Y-58802542D01*
X129044238Y-58850161D01*
X129139476Y-58897780D01*
X129329952Y-58897780D01*
X129425190Y-58850161D01*
X129472809Y-58802542D01*
X129520428Y-58707304D01*
X129520428Y-58469209D01*
X129472809Y-58373971D01*
X129425190Y-58326352D01*
X129329952Y-58278733D01*
X129139476Y-58278733D01*
X129044238Y-58326352D01*
X128996619Y-58373971D01*
X128949000Y-58469209D01*
X129710904Y-58993019D02*
X130472809Y-58993019D01*
X131044238Y-58373971D02*
X131187095Y-58421590D01*
X131234714Y-58469209D01*
X131282333Y-58564447D01*
X131282333Y-58707304D01*
X131234714Y-58802542D01*
X131187095Y-58850161D01*
X131091857Y-58897780D01*
X130710904Y-58897780D01*
X130710904Y-57897780D01*
X131044238Y-57897780D01*
X131139476Y-57945400D01*
X131187095Y-57993019D01*
X131234714Y-58088257D01*
X131234714Y-58183495D01*
X131187095Y-58278733D01*
X131139476Y-58326352D01*
X131044238Y-58373971D01*
X130710904Y-58373971D01*
X132282333Y-58897780D02*
X131949000Y-58421590D01*
X131710904Y-58897780D02*
X131710904Y-57897780D01*
X132091857Y-57897780D01*
X132187095Y-57945400D01*
X132234714Y-57993019D01*
X132282333Y-58088257D01*
X132282333Y-58231114D01*
X132234714Y-58326352D01*
X132187095Y-58373971D01*
X132091857Y-58421590D01*
X131710904Y-58421590D01*
X132710904Y-58373971D02*
X133044238Y-58373971D01*
X133187095Y-58897780D02*
X132710904Y-58897780D01*
X132710904Y-57897780D01*
X133187095Y-57897780D01*
X133568047Y-58612066D02*
X134044238Y-58612066D01*
X133472809Y-58897780D02*
X133806142Y-57897780D01*
X134139476Y-58897780D01*
X134472809Y-58897780D02*
X134472809Y-57897780D01*
X135044238Y-58897780D02*
X134615666Y-58326352D01*
X135044238Y-57897780D02*
X134472809Y-58469209D01*
X135663285Y-57897780D02*
X135853761Y-57897780D01*
X135949000Y-57945400D01*
X136044238Y-58040638D01*
X136091857Y-58231114D01*
X136091857Y-58564447D01*
X136044238Y-58754923D01*
X135949000Y-58850161D01*
X135853761Y-58897780D01*
X135663285Y-58897780D01*
X135568047Y-58850161D01*
X135472809Y-58754923D01*
X135425190Y-58564447D01*
X135425190Y-58231114D01*
X135472809Y-58040638D01*
X135568047Y-57945400D01*
X135663285Y-57897780D01*
X136520428Y-57897780D02*
X136520428Y-58707304D01*
X136568047Y-58802542D01*
X136615666Y-58850161D01*
X136710904Y-58897780D01*
X136901380Y-58897780D01*
X136996619Y-58850161D01*
X137044238Y-58802542D01*
X137091857Y-58707304D01*
X137091857Y-57897780D01*
X137425190Y-57897780D02*
X137996619Y-57897780D01*
X137710904Y-58897780D02*
X137710904Y-57897780D01*
X79355666Y-58802542D02*
X79308047Y-58850161D01*
X79165190Y-58897780D01*
X79069952Y-58897780D01*
X78927095Y-58850161D01*
X78831857Y-58754923D01*
X78784238Y-58659685D01*
X78736619Y-58469209D01*
X78736619Y-58326352D01*
X78784238Y-58135876D01*
X78831857Y-58040638D01*
X78927095Y-57945400D01*
X79069952Y-57897780D01*
X79165190Y-57897780D01*
X79308047Y-57945400D01*
X79355666Y-57993019D01*
X79974714Y-57897780D02*
X80069952Y-57897780D01*
X80165190Y-57945400D01*
X80212809Y-57993019D01*
X80260428Y-58088257D01*
X80308047Y-58278733D01*
X80308047Y-58516828D01*
X80260428Y-58707304D01*
X80212809Y-58802542D01*
X80165190Y-58850161D01*
X80069952Y-58897780D01*
X79974714Y-58897780D01*
X79879476Y-58850161D01*
X79831857Y-58802542D01*
X79784238Y-58707304D01*
X79736619Y-58516828D01*
X79736619Y-58278733D01*
X79784238Y-58088257D01*
X79831857Y-57993019D01*
X79879476Y-57945400D01*
X79974714Y-57897780D01*
X81165190Y-57897780D02*
X80974714Y-57897780D01*
X80879476Y-57945400D01*
X80831857Y-57993019D01*
X80736619Y-58135876D01*
X80689000Y-58326352D01*
X80689000Y-58707304D01*
X80736619Y-58802542D01*
X80784238Y-58850161D01*
X80879476Y-58897780D01*
X81069952Y-58897780D01*
X81165190Y-58850161D01*
X81212809Y-58802542D01*
X81260428Y-58707304D01*
X81260428Y-58469209D01*
X81212809Y-58373971D01*
X81165190Y-58326352D01*
X81069952Y-58278733D01*
X80879476Y-58278733D01*
X80784238Y-58326352D01*
X80736619Y-58373971D01*
X80689000Y-58469209D01*
X81450904Y-58993019D02*
X82212809Y-58993019D01*
X82784238Y-58373971D02*
X82927095Y-58421590D01*
X82974714Y-58469209D01*
X83022333Y-58564447D01*
X83022333Y-58707304D01*
X82974714Y-58802542D01*
X82927095Y-58850161D01*
X82831857Y-58897780D01*
X82450904Y-58897780D01*
X82450904Y-57897780D01*
X82784238Y-57897780D01*
X82879476Y-57945400D01*
X82927095Y-57993019D01*
X82974714Y-58088257D01*
X82974714Y-58183495D01*
X82927095Y-58278733D01*
X82879476Y-58326352D01*
X82784238Y-58373971D01*
X82450904Y-58373971D01*
X84022333Y-58897780D02*
X83689000Y-58421590D01*
X83450904Y-58897780D02*
X83450904Y-57897780D01*
X83831857Y-57897780D01*
X83927095Y-57945400D01*
X83974714Y-57993019D01*
X84022333Y-58088257D01*
X84022333Y-58231114D01*
X83974714Y-58326352D01*
X83927095Y-58373971D01*
X83831857Y-58421590D01*
X83450904Y-58421590D01*
X84450904Y-58373971D02*
X84784238Y-58373971D01*
X84927095Y-58897780D02*
X84450904Y-58897780D01*
X84450904Y-57897780D01*
X84927095Y-57897780D01*
X85308047Y-58612066D02*
X85784238Y-58612066D01*
X85212809Y-58897780D02*
X85546142Y-57897780D01*
X85879476Y-58897780D01*
X86212809Y-58897780D02*
X86212809Y-57897780D01*
X86784238Y-58897780D02*
X86355666Y-58326352D01*
X86784238Y-57897780D02*
X86212809Y-58469209D01*
X87403285Y-57897780D02*
X87593761Y-57897780D01*
X87689000Y-57945400D01*
X87784238Y-58040638D01*
X87831857Y-58231114D01*
X87831857Y-58564447D01*
X87784238Y-58754923D01*
X87689000Y-58850161D01*
X87593761Y-58897780D01*
X87403285Y-58897780D01*
X87308047Y-58850161D01*
X87212809Y-58754923D01*
X87165190Y-58564447D01*
X87165190Y-58231114D01*
X87212809Y-58040638D01*
X87308047Y-57945400D01*
X87403285Y-57897780D01*
X88260428Y-57897780D02*
X88260428Y-58707304D01*
X88308047Y-58802542D01*
X88355666Y-58850161D01*
X88450904Y-58897780D01*
X88641380Y-58897780D01*
X88736619Y-58850161D01*
X88784238Y-58802542D01*
X88831857Y-58707304D01*
X88831857Y-57897780D01*
X89165190Y-57897780D02*
X89736619Y-57897780D01*
X89450904Y-58897780D02*
X89450904Y-57897780D01*
D11*
X147949000Y-103810800D02*
X145289000Y-103810800D01*
X147949000Y-111490800D02*
X147949000Y-103810800D01*
X145289000Y-111490800D02*
X145289000Y-103810800D01*
X147949000Y-111490800D02*
X145289000Y-111490800D01*
X147949000Y-112760800D02*
X147949000Y-114090800D01*
X147949000Y-114090800D02*
X146619000Y-114090800D01*
X99689000Y-103810800D02*
X97029000Y-103810800D01*
X99689000Y-111490800D02*
X99689000Y-103810800D01*
X97029000Y-111490800D02*
X97029000Y-103810800D01*
X99689000Y-111490800D02*
X97029000Y-111490800D01*
X99689000Y-112760800D02*
X99689000Y-114090800D01*
X99689000Y-114090800D02*
X98359000Y-114090800D01*
X147949000Y-75870800D02*
X145289000Y-75870800D01*
X147949000Y-83550800D02*
X147949000Y-75870800D01*
X145289000Y-83550800D02*
X145289000Y-75870800D01*
X147949000Y-83550800D02*
X145289000Y-83550800D01*
X147949000Y-84820800D02*
X147949000Y-86150800D01*
X147949000Y-86150800D02*
X146619000Y-86150800D01*
X99689000Y-75870800D02*
X97029000Y-75870800D01*
X99689000Y-83550800D02*
X99689000Y-75870800D01*
X97029000Y-83550800D02*
X97029000Y-75870800D01*
X99689000Y-83550800D02*
X97029000Y-83550800D01*
X99689000Y-84820800D02*
X99689000Y-86150800D01*
X99689000Y-86150800D02*
X98359000Y-86150800D01*
X147949000Y-47930800D02*
X145289000Y-47930800D01*
X147949000Y-55610800D02*
X147949000Y-47930800D01*
X145289000Y-55610800D02*
X145289000Y-47930800D01*
X147949000Y-55610800D02*
X145289000Y-55610800D01*
X147949000Y-56880800D02*
X147949000Y-58210800D01*
X147949000Y-58210800D02*
X146619000Y-58210800D01*
X132775000Y-105200800D02*
X132775000Y-102540800D01*
X130175000Y-105200800D02*
X132775000Y-105200800D01*
X130175000Y-102540800D02*
X132775000Y-102540800D01*
X130175000Y-105200800D02*
X130175000Y-102540800D01*
X128905000Y-105200800D02*
X127575000Y-105200800D01*
X127575000Y-105200800D02*
X127575000Y-103870800D01*
X84515000Y-105200800D02*
X84515000Y-102540800D01*
X81915000Y-105200800D02*
X84515000Y-105200800D01*
X81915000Y-102540800D02*
X84515000Y-102540800D01*
X81915000Y-105200800D02*
X81915000Y-102540800D01*
X80645000Y-105200800D02*
X79315000Y-105200800D01*
X79315000Y-105200800D02*
X79315000Y-103870800D01*
X132775000Y-77260800D02*
X132775000Y-74600800D01*
X130175000Y-77260800D02*
X132775000Y-77260800D01*
X130175000Y-74600800D02*
X132775000Y-74600800D01*
X130175000Y-77260800D02*
X130175000Y-74600800D01*
X128905000Y-77260800D02*
X127575000Y-77260800D01*
X127575000Y-77260800D02*
X127575000Y-75930800D01*
X84515000Y-77260800D02*
X84515000Y-74600800D01*
X81915000Y-77260800D02*
X84515000Y-77260800D01*
X81915000Y-74600800D02*
X84515000Y-74600800D01*
X81915000Y-77260800D02*
X81915000Y-74600800D01*
X80645000Y-77260800D02*
X79315000Y-77260800D01*
X79315000Y-77260800D02*
X79315000Y-75930800D01*
X132775000Y-49320800D02*
X132775000Y-46660800D01*
X130175000Y-49320800D02*
X132775000Y-49320800D01*
X130175000Y-46660800D02*
X132775000Y-46660800D01*
X130175000Y-49320800D02*
X130175000Y-46660800D01*
X128905000Y-49320800D02*
X127575000Y-49320800D01*
X127575000Y-49320800D02*
X127575000Y-47990800D01*
X122550815Y-91438387D02*
G75*
G02X122427200Y-90830800I1431385J607587D01*
G01*
X124589942Y-92262909D02*
G75*
G02X123374200Y-92262800I-607742J1432109D01*
G01*
X125414309Y-90223058D02*
G75*
G02X125414200Y-91438800I-1432109J-607742D01*
G01*
X123374458Y-89398691D02*
G75*
G02X124590200Y-89398800I607742J-1432109D01*
G01*
X122426708Y-90857811D02*
G75*
G02X122550200Y-90222800I1555492J27011D01*
G01*
X125537200Y-94330800D02*
G75*
G03X125537200Y-94330800I-1555000J0D01*
G01*
X125537200Y-97830800D02*
G75*
G03X125537200Y-97830800I-1555000J0D01*
G01*
X125537200Y-101330800D02*
G75*
G03X125537200Y-101330800I-1555000J0D01*
G01*
X125537200Y-104830800D02*
G75*
G03X125537200Y-104830800I-1555000J0D01*
G01*
X125537200Y-108330800D02*
G75*
G03X125537200Y-108330800I-1555000J0D01*
G01*
X125537200Y-111830800D02*
G75*
G03X125537200Y-111830800I-1555000J0D01*
G01*
X121882200Y-88670800D02*
X121882200Y-113990800D01*
X127442200Y-88670800D02*
X127442200Y-113990800D01*
X120322200Y-88670800D02*
X120322200Y-113990800D01*
X127442200Y-88670800D02*
X120322200Y-88670800D01*
X127442200Y-113990800D02*
X120322200Y-113990800D01*
X121822200Y-88430800D02*
X120082200Y-88430800D01*
X120082200Y-88430800D02*
X120082200Y-89930800D01*
X74290815Y-91438387D02*
G75*
G02X74167200Y-90830800I1431385J607587D01*
G01*
X76329942Y-92262909D02*
G75*
G02X75114200Y-92262800I-607742J1432109D01*
G01*
X77154309Y-90223058D02*
G75*
G02X77154200Y-91438800I-1432109J-607742D01*
G01*
X75114458Y-89398691D02*
G75*
G02X76330200Y-89398800I607742J-1432109D01*
G01*
X74166708Y-90857811D02*
G75*
G02X74290200Y-90222800I1555492J27011D01*
G01*
X77277200Y-94330800D02*
G75*
G03X77277200Y-94330800I-1555000J0D01*
G01*
X77277200Y-97830800D02*
G75*
G03X77277200Y-97830800I-1555000J0D01*
G01*
X77277200Y-101330800D02*
G75*
G03X77277200Y-101330800I-1555000J0D01*
G01*
X77277200Y-104830800D02*
G75*
G03X77277200Y-104830800I-1555000J0D01*
G01*
X77277200Y-108330800D02*
G75*
G03X77277200Y-108330800I-1555000J0D01*
G01*
X77277200Y-111830800D02*
G75*
G03X77277200Y-111830800I-1555000J0D01*
G01*
X73622200Y-88670800D02*
X73622200Y-113990800D01*
X79182200Y-88670800D02*
X79182200Y-113990800D01*
X72062200Y-88670800D02*
X72062200Y-113990800D01*
X79182200Y-88670800D02*
X72062200Y-88670800D01*
X79182200Y-113990800D02*
X72062200Y-113990800D01*
X73562200Y-88430800D02*
X71822200Y-88430800D01*
X71822200Y-88430800D02*
X71822200Y-89930800D01*
X122550815Y-63498387D02*
G75*
G02X122427200Y-62890800I1431385J607587D01*
G01*
X124589942Y-64322909D02*
G75*
G02X123374200Y-64322800I-607742J1432109D01*
G01*
X125414309Y-62283058D02*
G75*
G02X125414200Y-63498800I-1432109J-607742D01*
G01*
X123374458Y-61458691D02*
G75*
G02X124590200Y-61458800I607742J-1432109D01*
G01*
X122426708Y-62917811D02*
G75*
G02X122550200Y-62282800I1555492J27011D01*
G01*
X125537200Y-66390800D02*
G75*
G03X125537200Y-66390800I-1555000J0D01*
G01*
X125537200Y-69890800D02*
G75*
G03X125537200Y-69890800I-1555000J0D01*
G01*
X125537200Y-73390800D02*
G75*
G03X125537200Y-73390800I-1555000J0D01*
G01*
X125537200Y-76890800D02*
G75*
G03X125537200Y-76890800I-1555000J0D01*
G01*
X125537200Y-80390800D02*
G75*
G03X125537200Y-80390800I-1555000J0D01*
G01*
X125537200Y-83890800D02*
G75*
G03X125537200Y-83890800I-1555000J0D01*
G01*
X121882200Y-60730800D02*
X121882200Y-86050800D01*
X127442200Y-60730800D02*
X127442200Y-86050800D01*
X120322200Y-60730800D02*
X120322200Y-86050800D01*
X127442200Y-60730800D02*
X120322200Y-60730800D01*
X127442200Y-86050800D02*
X120322200Y-86050800D01*
X121822200Y-60490800D02*
X120082200Y-60490800D01*
X120082200Y-60490800D02*
X120082200Y-61990800D01*
X74290815Y-63498387D02*
G75*
G02X74167200Y-62890800I1431385J607587D01*
G01*
X76329942Y-64322909D02*
G75*
G02X75114200Y-64322800I-607742J1432109D01*
G01*
X77154309Y-62283058D02*
G75*
G02X77154200Y-63498800I-1432109J-607742D01*
G01*
X75114458Y-61458691D02*
G75*
G02X76330200Y-61458800I607742J-1432109D01*
G01*
X74166708Y-62917811D02*
G75*
G02X74290200Y-62282800I1555492J27011D01*
G01*
X77277200Y-66390800D02*
G75*
G03X77277200Y-66390800I-1555000J0D01*
G01*
X77277200Y-69890800D02*
G75*
G03X77277200Y-69890800I-1555000J0D01*
G01*
X77277200Y-73390800D02*
G75*
G03X77277200Y-73390800I-1555000J0D01*
G01*
X77277200Y-76890800D02*
G75*
G03X77277200Y-76890800I-1555000J0D01*
G01*
X77277200Y-80390800D02*
G75*
G03X77277200Y-80390800I-1555000J0D01*
G01*
X77277200Y-83890800D02*
G75*
G03X77277200Y-83890800I-1555000J0D01*
G01*
X73622200Y-60730800D02*
X73622200Y-86050800D01*
X79182200Y-60730800D02*
X79182200Y-86050800D01*
X72062200Y-60730800D02*
X72062200Y-86050800D01*
X79182200Y-60730800D02*
X72062200Y-60730800D01*
X79182200Y-86050800D02*
X72062200Y-86050800D01*
X73562200Y-60490800D02*
X71822200Y-60490800D01*
X71822200Y-60490800D02*
X71822200Y-61990800D01*
X122550815Y-35558387D02*
G75*
G02X122427200Y-34950800I1431385J607587D01*
G01*
X124589942Y-36382909D02*
G75*
G02X123374200Y-36382800I-607742J1432109D01*
G01*
X125414309Y-34343058D02*
G75*
G02X125414200Y-35558800I-1432109J-607742D01*
G01*
X123374458Y-33518691D02*
G75*
G02X124590200Y-33518800I607742J-1432109D01*
G01*
X122426708Y-34977811D02*
G75*
G02X122550200Y-34342800I1555492J27011D01*
G01*
X125537200Y-38450800D02*
G75*
G03X125537200Y-38450800I-1555000J0D01*
G01*
X125537200Y-41950800D02*
G75*
G03X125537200Y-41950800I-1555000J0D01*
G01*
X125537200Y-45450800D02*
G75*
G03X125537200Y-45450800I-1555000J0D01*
G01*
X125537200Y-48950800D02*
G75*
G03X125537200Y-48950800I-1555000J0D01*
G01*
X125537200Y-52450800D02*
G75*
G03X125537200Y-52450800I-1555000J0D01*
G01*
X125537200Y-55950800D02*
G75*
G03X125537200Y-55950800I-1555000J0D01*
G01*
X121882200Y-32790800D02*
X121882200Y-58110800D01*
X127442200Y-32790800D02*
X127442200Y-58110800D01*
X120322200Y-32790800D02*
X120322200Y-58110800D01*
X127442200Y-32790800D02*
X120322200Y-32790800D01*
X127442200Y-58110800D02*
X120322200Y-58110800D01*
X121822200Y-32550800D02*
X120082200Y-32550800D01*
X120082200Y-32550800D02*
X120082200Y-34050800D01*
X142869000Y-103810800D02*
X140209000Y-103810800D01*
X142869000Y-111490800D02*
X142869000Y-103810800D01*
X140209000Y-111490800D02*
X140209000Y-103810800D01*
X142869000Y-111490800D02*
X140209000Y-111490800D01*
X142869000Y-112760800D02*
X142869000Y-114090800D01*
X142869000Y-114090800D02*
X141539000Y-114090800D01*
X94609000Y-103810800D02*
X91949000Y-103810800D01*
X94609000Y-111490800D02*
X94609000Y-103810800D01*
X91949000Y-111490800D02*
X91949000Y-103810800D01*
X94609000Y-111490800D02*
X91949000Y-111490800D01*
X94609000Y-112760800D02*
X94609000Y-114090800D01*
X94609000Y-114090800D02*
X93279000Y-114090800D01*
X142869000Y-75870800D02*
X140209000Y-75870800D01*
X142869000Y-83550800D02*
X142869000Y-75870800D01*
X140209000Y-83550800D02*
X140209000Y-75870800D01*
X142869000Y-83550800D02*
X140209000Y-83550800D01*
X142869000Y-84820800D02*
X142869000Y-86150800D01*
X142869000Y-86150800D02*
X141539000Y-86150800D01*
X94609000Y-75870800D02*
X91949000Y-75870800D01*
X94609000Y-83550800D02*
X94609000Y-75870800D01*
X91949000Y-83550800D02*
X91949000Y-75870800D01*
X94609000Y-83550800D02*
X91949000Y-83550800D01*
X94609000Y-84820800D02*
X94609000Y-86150800D01*
X94609000Y-86150800D02*
X93279000Y-86150800D01*
X142869000Y-47930800D02*
X140209000Y-47930800D01*
X142869000Y-55610800D02*
X142869000Y-47930800D01*
X140209000Y-55610800D02*
X140209000Y-47930800D01*
X142869000Y-55610800D02*
X140209000Y-55610800D01*
X142869000Y-56880800D02*
X142869000Y-58210800D01*
X142869000Y-58210800D02*
X141539000Y-58210800D01*
X137789000Y-103810800D02*
X135129000Y-103810800D01*
X137789000Y-106410800D02*
X137789000Y-103810800D01*
X135129000Y-106410800D02*
X135129000Y-103810800D01*
X137789000Y-106410800D02*
X135129000Y-106410800D01*
X137789000Y-107680800D02*
X137789000Y-109010800D01*
X137789000Y-109010800D02*
X136459000Y-109010800D01*
X89529000Y-103810800D02*
X86869000Y-103810800D01*
X89529000Y-106410800D02*
X89529000Y-103810800D01*
X86869000Y-106410800D02*
X86869000Y-103810800D01*
X89529000Y-106410800D02*
X86869000Y-106410800D01*
X89529000Y-107680800D02*
X89529000Y-109010800D01*
X89529000Y-109010800D02*
X88199000Y-109010800D01*
X137789000Y-75870800D02*
X135129000Y-75870800D01*
X137789000Y-78470800D02*
X137789000Y-75870800D01*
X135129000Y-78470800D02*
X135129000Y-75870800D01*
X137789000Y-78470800D02*
X135129000Y-78470800D01*
X137789000Y-79740800D02*
X137789000Y-81070800D01*
X137789000Y-81070800D02*
X136459000Y-81070800D01*
X89529000Y-75870800D02*
X86869000Y-75870800D01*
X89529000Y-78470800D02*
X89529000Y-75870800D01*
X86869000Y-78470800D02*
X86869000Y-75870800D01*
X89529000Y-78470800D02*
X86869000Y-78470800D01*
X89529000Y-79740800D02*
X89529000Y-81070800D01*
X89529000Y-81070800D02*
X88199000Y-81070800D01*
X137789000Y-47930800D02*
X135129000Y-47930800D01*
X137789000Y-50530800D02*
X137789000Y-47930800D01*
X135129000Y-50530800D02*
X135129000Y-47930800D01*
X137789000Y-50530800D02*
X135129000Y-50530800D01*
X137789000Y-51800800D02*
X137789000Y-53130800D01*
X137789000Y-53130800D02*
X136459000Y-53130800D01*
X155383000Y-92380800D02*
X155383000Y-95040800D01*
X157983000Y-92380800D02*
X155383000Y-92380800D01*
X157983000Y-95040800D02*
X155383000Y-95040800D01*
X157983000Y-92380800D02*
X157983000Y-95040800D01*
X159253000Y-92380800D02*
X160583000Y-92380800D01*
X160583000Y-92380800D02*
X160583000Y-93710800D01*
X107123000Y-92380800D02*
X107123000Y-95040800D01*
X109723000Y-92380800D02*
X107123000Y-92380800D01*
X109723000Y-95040800D02*
X107123000Y-95040800D01*
X109723000Y-92380800D02*
X109723000Y-95040800D01*
X110993000Y-92380800D02*
X112323000Y-92380800D01*
X112323000Y-92380800D02*
X112323000Y-93710800D01*
X155383000Y-64440800D02*
X155383000Y-67100800D01*
X157983000Y-64440800D02*
X155383000Y-64440800D01*
X157983000Y-67100800D02*
X155383000Y-67100800D01*
X157983000Y-64440800D02*
X157983000Y-67100800D01*
X159253000Y-64440800D02*
X160583000Y-64440800D01*
X160583000Y-64440800D02*
X160583000Y-65770800D01*
X107123000Y-64440800D02*
X107123000Y-67100800D01*
X109723000Y-64440800D02*
X107123000Y-64440800D01*
X109723000Y-67100800D02*
X107123000Y-67100800D01*
X109723000Y-64440800D02*
X109723000Y-67100800D01*
X110993000Y-64440800D02*
X112323000Y-64440800D01*
X112323000Y-64440800D02*
X112323000Y-65770800D01*
X155383000Y-36500800D02*
X155383000Y-39160800D01*
X157983000Y-36500800D02*
X155383000Y-36500800D01*
X157983000Y-39160800D02*
X155383000Y-39160800D01*
X157983000Y-36500800D02*
X157983000Y-39160800D01*
X159253000Y-36500800D02*
X160583000Y-36500800D01*
X160583000Y-36500800D02*
X160583000Y-37830800D01*
X140209000Y-98850800D02*
X142869000Y-98850800D01*
X140209000Y-91170800D02*
X140209000Y-98850800D01*
X142869000Y-91170800D02*
X142869000Y-98850800D01*
X140209000Y-91170800D02*
X142869000Y-91170800D01*
X140209000Y-89900800D02*
X140209000Y-88570800D01*
X140209000Y-88570800D02*
X141539000Y-88570800D01*
X91949000Y-98850800D02*
X94609000Y-98850800D01*
X91949000Y-91170800D02*
X91949000Y-98850800D01*
X94609000Y-91170800D02*
X94609000Y-98850800D01*
X91949000Y-91170800D02*
X94609000Y-91170800D01*
X91949000Y-89900800D02*
X91949000Y-88570800D01*
X91949000Y-88570800D02*
X93279000Y-88570800D01*
X140209000Y-70910800D02*
X142869000Y-70910800D01*
X140209000Y-63230800D02*
X140209000Y-70910800D01*
X142869000Y-63230800D02*
X142869000Y-70910800D01*
X140209000Y-63230800D02*
X142869000Y-63230800D01*
X140209000Y-61960800D02*
X140209000Y-60630800D01*
X140209000Y-60630800D02*
X141539000Y-60630800D01*
X91949000Y-70910800D02*
X94609000Y-70910800D01*
X91949000Y-63230800D02*
X91949000Y-70910800D01*
X94609000Y-63230800D02*
X94609000Y-70910800D01*
X91949000Y-63230800D02*
X94609000Y-63230800D01*
X91949000Y-61960800D02*
X91949000Y-60630800D01*
X91949000Y-60630800D02*
X93279000Y-60630800D01*
X140209000Y-42970800D02*
X142869000Y-42970800D01*
X140209000Y-35290800D02*
X140209000Y-42970800D01*
X142869000Y-35290800D02*
X142869000Y-42970800D01*
X140209000Y-35290800D02*
X142869000Y-35290800D01*
X140209000Y-34020800D02*
X140209000Y-32690800D01*
X140209000Y-32690800D02*
X141539000Y-32690800D01*
X155569000Y-103810800D02*
X152909000Y-103810800D01*
X155569000Y-106410800D02*
X155569000Y-103810800D01*
X152909000Y-106410800D02*
X152909000Y-103810800D01*
X155569000Y-106410800D02*
X152909000Y-106410800D01*
X155569000Y-107680800D02*
X155569000Y-109010800D01*
X155569000Y-109010800D02*
X154239000Y-109010800D01*
X107309000Y-103810800D02*
X104649000Y-103810800D01*
X107309000Y-106410800D02*
X107309000Y-103810800D01*
X104649000Y-106410800D02*
X104649000Y-103810800D01*
X107309000Y-106410800D02*
X104649000Y-106410800D01*
X107309000Y-107680800D02*
X107309000Y-109010800D01*
X107309000Y-109010800D02*
X105979000Y-109010800D01*
X155569000Y-75870800D02*
X152909000Y-75870800D01*
X155569000Y-78470800D02*
X155569000Y-75870800D01*
X152909000Y-78470800D02*
X152909000Y-75870800D01*
X155569000Y-78470800D02*
X152909000Y-78470800D01*
X155569000Y-79740800D02*
X155569000Y-81070800D01*
X155569000Y-81070800D02*
X154239000Y-81070800D01*
X107309000Y-75870800D02*
X104649000Y-75870800D01*
X107309000Y-78470800D02*
X107309000Y-75870800D01*
X104649000Y-78470800D02*
X104649000Y-75870800D01*
X107309000Y-78470800D02*
X104649000Y-78470800D01*
X107309000Y-79740800D02*
X107309000Y-81070800D01*
X107309000Y-81070800D02*
X105979000Y-81070800D01*
X155569000Y-47930800D02*
X152909000Y-47930800D01*
X155569000Y-50530800D02*
X155569000Y-47930800D01*
X152909000Y-50530800D02*
X152909000Y-47930800D01*
X155569000Y-50530800D02*
X152909000Y-50530800D01*
X155569000Y-51800800D02*
X155569000Y-53130800D01*
X155569000Y-53130800D02*
X154239000Y-53130800D01*
X135129000Y-98850800D02*
X137789000Y-98850800D01*
X135129000Y-96250800D02*
X135129000Y-98850800D01*
X137789000Y-96250800D02*
X137789000Y-98850800D01*
X135129000Y-96250800D02*
X137789000Y-96250800D01*
X135129000Y-94980800D02*
X135129000Y-93650800D01*
X135129000Y-93650800D02*
X136459000Y-93650800D01*
X86869000Y-98850800D02*
X89529000Y-98850800D01*
X86869000Y-96250800D02*
X86869000Y-98850800D01*
X89529000Y-96250800D02*
X89529000Y-98850800D01*
X86869000Y-96250800D02*
X89529000Y-96250800D01*
X86869000Y-94980800D02*
X86869000Y-93650800D01*
X86869000Y-93650800D02*
X88199000Y-93650800D01*
X135129000Y-70910800D02*
X137789000Y-70910800D01*
X135129000Y-68310800D02*
X135129000Y-70910800D01*
X137789000Y-68310800D02*
X137789000Y-70910800D01*
X135129000Y-68310800D02*
X137789000Y-68310800D01*
X135129000Y-67040800D02*
X135129000Y-65710800D01*
X135129000Y-65710800D02*
X136459000Y-65710800D01*
X86869000Y-70910800D02*
X89529000Y-70910800D01*
X86869000Y-68310800D02*
X86869000Y-70910800D01*
X89529000Y-68310800D02*
X89529000Y-70910800D01*
X86869000Y-68310800D02*
X89529000Y-68310800D01*
X86869000Y-67040800D02*
X86869000Y-65710800D01*
X86869000Y-65710800D02*
X88199000Y-65710800D01*
X135129000Y-42970800D02*
X137789000Y-42970800D01*
X135129000Y-40370800D02*
X135129000Y-42970800D01*
X137789000Y-40370800D02*
X137789000Y-42970800D01*
X135129000Y-40370800D02*
X137789000Y-40370800D01*
X135129000Y-39100800D02*
X135129000Y-37770800D01*
X135129000Y-37770800D02*
X136459000Y-37770800D01*
X150369000Y-98850800D02*
X153029000Y-98850800D01*
X150369000Y-96250800D02*
X150369000Y-98850800D01*
X153029000Y-96250800D02*
X153029000Y-98850800D01*
X150369000Y-96250800D02*
X153029000Y-96250800D01*
X150369000Y-94980800D02*
X150369000Y-93650800D01*
X150369000Y-93650800D02*
X151699000Y-93650800D01*
X102109000Y-98850800D02*
X104769000Y-98850800D01*
X102109000Y-96250800D02*
X102109000Y-98850800D01*
X104769000Y-96250800D02*
X104769000Y-98850800D01*
X102109000Y-96250800D02*
X104769000Y-96250800D01*
X102109000Y-94980800D02*
X102109000Y-93650800D01*
X102109000Y-93650800D02*
X103439000Y-93650800D01*
X150369000Y-70910800D02*
X153029000Y-70910800D01*
X150369000Y-68310800D02*
X150369000Y-70910800D01*
X153029000Y-68310800D02*
X153029000Y-70910800D01*
X150369000Y-68310800D02*
X153029000Y-68310800D01*
X150369000Y-67040800D02*
X150369000Y-65710800D01*
X150369000Y-65710800D02*
X151699000Y-65710800D01*
X102109000Y-70910800D02*
X104769000Y-70910800D01*
X102109000Y-68310800D02*
X102109000Y-70910800D01*
X104769000Y-68310800D02*
X104769000Y-70910800D01*
X102109000Y-68310800D02*
X104769000Y-68310800D01*
X102109000Y-67040800D02*
X102109000Y-65710800D01*
X102109000Y-65710800D02*
X103439000Y-65710800D01*
X150369000Y-42970800D02*
X153029000Y-42970800D01*
X150369000Y-40370800D02*
X150369000Y-42970800D01*
X153029000Y-40370800D02*
X153029000Y-42970800D01*
X150369000Y-40370800D02*
X153029000Y-40370800D01*
X150369000Y-39100800D02*
X150369000Y-37770800D01*
X150369000Y-37770800D02*
X151699000Y-37770800D01*
X132775000Y-102660800D02*
X132775000Y-100000800D01*
X130175000Y-102660800D02*
X132775000Y-102660800D01*
X130175000Y-100000800D02*
X132775000Y-100000800D01*
X130175000Y-102660800D02*
X130175000Y-100000800D01*
X128905000Y-102660800D02*
X127575000Y-102660800D01*
X127575000Y-102660800D02*
X127575000Y-101330800D01*
X84515000Y-102660800D02*
X84515000Y-100000800D01*
X81915000Y-102660800D02*
X84515000Y-102660800D01*
X81915000Y-100000800D02*
X84515000Y-100000800D01*
X81915000Y-102660800D02*
X81915000Y-100000800D01*
X80645000Y-102660800D02*
X79315000Y-102660800D01*
X79315000Y-102660800D02*
X79315000Y-101330800D01*
X132775000Y-74720800D02*
X132775000Y-72060800D01*
X130175000Y-74720800D02*
X132775000Y-74720800D01*
X130175000Y-72060800D02*
X132775000Y-72060800D01*
X130175000Y-74720800D02*
X130175000Y-72060800D01*
X128905000Y-74720800D02*
X127575000Y-74720800D01*
X127575000Y-74720800D02*
X127575000Y-73390800D01*
X84515000Y-74720800D02*
X84515000Y-72060800D01*
X81915000Y-74720800D02*
X84515000Y-74720800D01*
X81915000Y-72060800D02*
X84515000Y-72060800D01*
X81915000Y-74720800D02*
X81915000Y-72060800D01*
X80645000Y-74720800D02*
X79315000Y-74720800D01*
X79315000Y-74720800D02*
X79315000Y-73390800D01*
X132775000Y-46780800D02*
X132775000Y-44120800D01*
X130175000Y-46780800D02*
X132775000Y-46780800D01*
X130175000Y-44120800D02*
X132775000Y-44120800D01*
X130175000Y-46780800D02*
X130175000Y-44120800D01*
X128905000Y-46780800D02*
X127575000Y-46780800D01*
X127575000Y-46780800D02*
X127575000Y-45450800D01*
X132589000Y-98850800D02*
X135249000Y-98850800D01*
X132589000Y-96250800D02*
X132589000Y-98850800D01*
X135249000Y-96250800D02*
X135249000Y-98850800D01*
X132589000Y-96250800D02*
X135249000Y-96250800D01*
X132589000Y-94980800D02*
X132589000Y-93650800D01*
X132589000Y-93650800D02*
X133919000Y-93650800D01*
X84329000Y-98850800D02*
X86989000Y-98850800D01*
X84329000Y-96250800D02*
X84329000Y-98850800D01*
X86989000Y-96250800D02*
X86989000Y-98850800D01*
X84329000Y-96250800D02*
X86989000Y-96250800D01*
X84329000Y-94980800D02*
X84329000Y-93650800D01*
X84329000Y-93650800D02*
X85659000Y-93650800D01*
X132589000Y-70910800D02*
X135249000Y-70910800D01*
X132589000Y-68310800D02*
X132589000Y-70910800D01*
X135249000Y-68310800D02*
X135249000Y-70910800D01*
X132589000Y-68310800D02*
X135249000Y-68310800D01*
X132589000Y-67040800D02*
X132589000Y-65710800D01*
X132589000Y-65710800D02*
X133919000Y-65710800D01*
X84329000Y-70910800D02*
X86989000Y-70910800D01*
X84329000Y-68310800D02*
X84329000Y-70910800D01*
X86989000Y-68310800D02*
X86989000Y-70910800D01*
X84329000Y-68310800D02*
X86989000Y-68310800D01*
X84329000Y-67040800D02*
X84329000Y-65710800D01*
X84329000Y-65710800D02*
X85659000Y-65710800D01*
X132589000Y-42970800D02*
X135249000Y-42970800D01*
X132589000Y-40370800D02*
X132589000Y-42970800D01*
X135249000Y-40370800D02*
X135249000Y-42970800D01*
X132589000Y-40370800D02*
X135249000Y-40370800D01*
X132589000Y-39100800D02*
X132589000Y-37770800D01*
X132589000Y-37770800D02*
X133919000Y-37770800D01*
X155569000Y-103930800D02*
X155569000Y-101270800D01*
X135189000Y-103930800D02*
X155569000Y-103930800D01*
X135189000Y-101270800D02*
X155569000Y-101270800D01*
X135189000Y-103930800D02*
X135189000Y-101270800D01*
X133919000Y-103930800D02*
X132589000Y-103930800D01*
X132589000Y-103930800D02*
X132589000Y-102600800D01*
X107309000Y-103930800D02*
X107309000Y-101270800D01*
X86929000Y-103930800D02*
X107309000Y-103930800D01*
X86929000Y-101270800D02*
X107309000Y-101270800D01*
X86929000Y-103930800D02*
X86929000Y-101270800D01*
X85659000Y-103930800D02*
X84329000Y-103930800D01*
X84329000Y-103930800D02*
X84329000Y-102600800D01*
X155569000Y-75990800D02*
X155569000Y-73330800D01*
X135189000Y-75990800D02*
X155569000Y-75990800D01*
X135189000Y-73330800D02*
X155569000Y-73330800D01*
X135189000Y-75990800D02*
X135189000Y-73330800D01*
X133919000Y-75990800D02*
X132589000Y-75990800D01*
X132589000Y-75990800D02*
X132589000Y-74660800D01*
X107309000Y-75990800D02*
X107309000Y-73330800D01*
X86929000Y-75990800D02*
X107309000Y-75990800D01*
X86929000Y-73330800D02*
X107309000Y-73330800D01*
X86929000Y-75990800D02*
X86929000Y-73330800D01*
X85659000Y-75990800D02*
X84329000Y-75990800D01*
X84329000Y-75990800D02*
X84329000Y-74660800D01*
X155569000Y-48050800D02*
X155569000Y-45390800D01*
X135189000Y-48050800D02*
X155569000Y-48050800D01*
X135189000Y-45390800D02*
X155569000Y-45390800D01*
X135189000Y-48050800D02*
X135189000Y-45390800D01*
X133919000Y-48050800D02*
X132589000Y-48050800D01*
X132589000Y-48050800D02*
X132589000Y-46720800D01*
X155383000Y-100000800D02*
X155383000Y-102660800D01*
X157983000Y-100000800D02*
X155383000Y-100000800D01*
X157983000Y-102660800D02*
X155383000Y-102660800D01*
X157983000Y-100000800D02*
X157983000Y-102660800D01*
X159253000Y-100000800D02*
X160583000Y-100000800D01*
X160583000Y-100000800D02*
X160583000Y-101330800D01*
X107123000Y-100000800D02*
X107123000Y-102660800D01*
X109723000Y-100000800D02*
X107123000Y-100000800D01*
X109723000Y-102660800D02*
X107123000Y-102660800D01*
X109723000Y-100000800D02*
X109723000Y-102660800D01*
X110993000Y-100000800D02*
X112323000Y-100000800D01*
X112323000Y-100000800D02*
X112323000Y-101330800D01*
X155383000Y-72060800D02*
X155383000Y-74720800D01*
X157983000Y-72060800D02*
X155383000Y-72060800D01*
X157983000Y-74720800D02*
X155383000Y-74720800D01*
X157983000Y-72060800D02*
X157983000Y-74720800D01*
X159253000Y-72060800D02*
X160583000Y-72060800D01*
X160583000Y-72060800D02*
X160583000Y-73390800D01*
X107123000Y-72060800D02*
X107123000Y-74720800D01*
X109723000Y-72060800D02*
X107123000Y-72060800D01*
X109723000Y-74720800D02*
X107123000Y-74720800D01*
X109723000Y-72060800D02*
X109723000Y-74720800D01*
X110993000Y-72060800D02*
X112323000Y-72060800D01*
X112323000Y-72060800D02*
X112323000Y-73390800D01*
X155383000Y-44120800D02*
X155383000Y-46780800D01*
X157983000Y-44120800D02*
X155383000Y-44120800D01*
X157983000Y-46780800D02*
X155383000Y-46780800D01*
X157983000Y-44120800D02*
X157983000Y-46780800D01*
X159253000Y-44120800D02*
X160583000Y-44120800D01*
X160583000Y-44120800D02*
X160583000Y-45450800D01*
X135249000Y-103810800D02*
X132589000Y-103810800D01*
X135249000Y-106410800D02*
X135249000Y-103810800D01*
X132589000Y-106410800D02*
X132589000Y-103810800D01*
X135249000Y-106410800D02*
X132589000Y-106410800D01*
X135249000Y-107680800D02*
X135249000Y-109010800D01*
X135249000Y-109010800D02*
X133919000Y-109010800D01*
X86989000Y-103810800D02*
X84329000Y-103810800D01*
X86989000Y-106410800D02*
X86989000Y-103810800D01*
X84329000Y-106410800D02*
X84329000Y-103810800D01*
X86989000Y-106410800D02*
X84329000Y-106410800D01*
X86989000Y-107680800D02*
X86989000Y-109010800D01*
X86989000Y-109010800D02*
X85659000Y-109010800D01*
X135249000Y-75870800D02*
X132589000Y-75870800D01*
X135249000Y-78470800D02*
X135249000Y-75870800D01*
X132589000Y-78470800D02*
X132589000Y-75870800D01*
X135249000Y-78470800D02*
X132589000Y-78470800D01*
X135249000Y-79740800D02*
X135249000Y-81070800D01*
X135249000Y-81070800D02*
X133919000Y-81070800D01*
X86989000Y-75870800D02*
X84329000Y-75870800D01*
X86989000Y-78470800D02*
X86989000Y-75870800D01*
X84329000Y-78470800D02*
X84329000Y-75870800D01*
X86989000Y-78470800D02*
X84329000Y-78470800D01*
X86989000Y-79740800D02*
X86989000Y-81070800D01*
X86989000Y-81070800D02*
X85659000Y-81070800D01*
X135249000Y-47930800D02*
X132589000Y-47930800D01*
X135249000Y-50530800D02*
X135249000Y-47930800D01*
X132589000Y-50530800D02*
X132589000Y-47930800D01*
X135249000Y-50530800D02*
X132589000Y-50530800D01*
X135249000Y-51800800D02*
X135249000Y-53130800D01*
X135249000Y-53130800D02*
X133919000Y-53130800D01*
X155383000Y-105080800D02*
X155383000Y-107740800D01*
X157983000Y-105080800D02*
X155383000Y-105080800D01*
X157983000Y-107740800D02*
X155383000Y-107740800D01*
X157983000Y-105080800D02*
X157983000Y-107740800D01*
X159253000Y-105080800D02*
X160583000Y-105080800D01*
X160583000Y-105080800D02*
X160583000Y-106410800D01*
X107123000Y-105080800D02*
X107123000Y-107740800D01*
X109723000Y-105080800D02*
X107123000Y-105080800D01*
X109723000Y-107740800D02*
X107123000Y-107740800D01*
X109723000Y-105080800D02*
X109723000Y-107740800D01*
X110993000Y-105080800D02*
X112323000Y-105080800D01*
X112323000Y-105080800D02*
X112323000Y-106410800D01*
X155383000Y-77140800D02*
X155383000Y-79800800D01*
X157983000Y-77140800D02*
X155383000Y-77140800D01*
X157983000Y-79800800D02*
X155383000Y-79800800D01*
X157983000Y-77140800D02*
X157983000Y-79800800D01*
X159253000Y-77140800D02*
X160583000Y-77140800D01*
X160583000Y-77140800D02*
X160583000Y-78470800D01*
X107123000Y-77140800D02*
X107123000Y-79800800D01*
X109723000Y-77140800D02*
X107123000Y-77140800D01*
X109723000Y-79800800D02*
X107123000Y-79800800D01*
X109723000Y-77140800D02*
X109723000Y-79800800D01*
X110993000Y-77140800D02*
X112323000Y-77140800D01*
X112323000Y-77140800D02*
X112323000Y-78470800D01*
X155383000Y-49200800D02*
X155383000Y-51860800D01*
X157983000Y-49200800D02*
X155383000Y-49200800D01*
X157983000Y-51860800D02*
X155383000Y-51860800D01*
X157983000Y-49200800D02*
X157983000Y-51860800D01*
X159253000Y-49200800D02*
X160583000Y-49200800D01*
X160583000Y-49200800D02*
X160583000Y-50530800D01*
X147829000Y-98850800D02*
X150489000Y-98850800D01*
X147829000Y-91170800D02*
X147829000Y-98850800D01*
X150489000Y-91170800D02*
X150489000Y-98850800D01*
X147829000Y-91170800D02*
X150489000Y-91170800D01*
X147829000Y-89900800D02*
X147829000Y-88570800D01*
X147829000Y-88570800D02*
X149159000Y-88570800D01*
X99569000Y-98850800D02*
X102229000Y-98850800D01*
X99569000Y-91170800D02*
X99569000Y-98850800D01*
X102229000Y-91170800D02*
X102229000Y-98850800D01*
X99569000Y-91170800D02*
X102229000Y-91170800D01*
X99569000Y-89900800D02*
X99569000Y-88570800D01*
X99569000Y-88570800D02*
X100899000Y-88570800D01*
X147829000Y-70910800D02*
X150489000Y-70910800D01*
X147829000Y-63230800D02*
X147829000Y-70910800D01*
X150489000Y-63230800D02*
X150489000Y-70910800D01*
X147829000Y-63230800D02*
X150489000Y-63230800D01*
X147829000Y-61960800D02*
X147829000Y-60630800D01*
X147829000Y-60630800D02*
X149159000Y-60630800D01*
X99569000Y-70910800D02*
X102229000Y-70910800D01*
X99569000Y-63230800D02*
X99569000Y-70910800D01*
X102229000Y-63230800D02*
X102229000Y-70910800D01*
X99569000Y-63230800D02*
X102229000Y-63230800D01*
X99569000Y-61960800D02*
X99569000Y-60630800D01*
X99569000Y-60630800D02*
X100899000Y-60630800D01*
X147829000Y-42970800D02*
X150489000Y-42970800D01*
X147829000Y-35290800D02*
X147829000Y-42970800D01*
X150489000Y-35290800D02*
X150489000Y-42970800D01*
X147829000Y-35290800D02*
X150489000Y-35290800D01*
X147829000Y-34020800D02*
X147829000Y-32690800D01*
X147829000Y-32690800D02*
X149159000Y-32690800D01*
X155569000Y-101390800D02*
X155569000Y-98730800D01*
X135189000Y-101390800D02*
X155569000Y-101390800D01*
X135189000Y-98730800D02*
X155569000Y-98730800D01*
X135189000Y-101390800D02*
X135189000Y-98730800D01*
X133919000Y-101390800D02*
X132589000Y-101390800D01*
X132589000Y-101390800D02*
X132589000Y-100060800D01*
X107309000Y-101390800D02*
X107309000Y-98730800D01*
X86929000Y-101390800D02*
X107309000Y-101390800D01*
X86929000Y-98730800D02*
X107309000Y-98730800D01*
X86929000Y-101390800D02*
X86929000Y-98730800D01*
X85659000Y-101390800D02*
X84329000Y-101390800D01*
X84329000Y-101390800D02*
X84329000Y-100060800D01*
X155569000Y-73450800D02*
X155569000Y-70790800D01*
X135189000Y-73450800D02*
X155569000Y-73450800D01*
X135189000Y-70790800D02*
X155569000Y-70790800D01*
X135189000Y-73450800D02*
X135189000Y-70790800D01*
X133919000Y-73450800D02*
X132589000Y-73450800D01*
X132589000Y-73450800D02*
X132589000Y-72120800D01*
X107309000Y-73450800D02*
X107309000Y-70790800D01*
X86929000Y-73450800D02*
X107309000Y-73450800D01*
X86929000Y-70790800D02*
X107309000Y-70790800D01*
X86929000Y-73450800D02*
X86929000Y-70790800D01*
X85659000Y-73450800D02*
X84329000Y-73450800D01*
X84329000Y-73450800D02*
X84329000Y-72120800D01*
X155569000Y-45510800D02*
X155569000Y-42850800D01*
X135189000Y-45510800D02*
X155569000Y-45510800D01*
X135189000Y-42850800D02*
X155569000Y-42850800D01*
X135189000Y-45510800D02*
X135189000Y-42850800D01*
X133919000Y-45510800D02*
X132589000Y-45510800D01*
X132589000Y-45510800D02*
X132589000Y-44180800D01*
X155383000Y-94920800D02*
X155383000Y-97580800D01*
X157983000Y-94920800D02*
X155383000Y-94920800D01*
X157983000Y-97580800D02*
X155383000Y-97580800D01*
X157983000Y-94920800D02*
X157983000Y-97580800D01*
X159253000Y-94920800D02*
X160583000Y-94920800D01*
X160583000Y-94920800D02*
X160583000Y-96250800D01*
X107123000Y-94920800D02*
X107123000Y-97580800D01*
X109723000Y-94920800D02*
X107123000Y-94920800D01*
X109723000Y-97580800D02*
X107123000Y-97580800D01*
X109723000Y-94920800D02*
X109723000Y-97580800D01*
X110993000Y-94920800D02*
X112323000Y-94920800D01*
X112323000Y-94920800D02*
X112323000Y-96250800D01*
X155383000Y-66980800D02*
X155383000Y-69640800D01*
X157983000Y-66980800D02*
X155383000Y-66980800D01*
X157983000Y-69640800D02*
X155383000Y-69640800D01*
X157983000Y-66980800D02*
X157983000Y-69640800D01*
X159253000Y-66980800D02*
X160583000Y-66980800D01*
X160583000Y-66980800D02*
X160583000Y-68310800D01*
X107123000Y-66980800D02*
X107123000Y-69640800D01*
X109723000Y-66980800D02*
X107123000Y-66980800D01*
X109723000Y-69640800D02*
X107123000Y-69640800D01*
X109723000Y-66980800D02*
X109723000Y-69640800D01*
X110993000Y-66980800D02*
X112323000Y-66980800D01*
X112323000Y-66980800D02*
X112323000Y-68310800D01*
X155383000Y-39040800D02*
X155383000Y-41700800D01*
X157983000Y-39040800D02*
X155383000Y-39040800D01*
X157983000Y-41700800D02*
X155383000Y-41700800D01*
X157983000Y-39040800D02*
X157983000Y-41700800D01*
X159253000Y-39040800D02*
X160583000Y-39040800D01*
X160583000Y-39040800D02*
X160583000Y-40370800D01*
X155383000Y-102540800D02*
X155383000Y-105200800D01*
X157983000Y-102540800D02*
X155383000Y-102540800D01*
X157983000Y-105200800D02*
X155383000Y-105200800D01*
X157983000Y-102540800D02*
X157983000Y-105200800D01*
X159253000Y-102540800D02*
X160583000Y-102540800D01*
X160583000Y-102540800D02*
X160583000Y-103870800D01*
X107123000Y-102540800D02*
X107123000Y-105200800D01*
X109723000Y-102540800D02*
X107123000Y-102540800D01*
X109723000Y-105200800D02*
X107123000Y-105200800D01*
X109723000Y-102540800D02*
X109723000Y-105200800D01*
X110993000Y-102540800D02*
X112323000Y-102540800D01*
X112323000Y-102540800D02*
X112323000Y-103870800D01*
X155383000Y-74600800D02*
X155383000Y-77260800D01*
X157983000Y-74600800D02*
X155383000Y-74600800D01*
X157983000Y-77260800D02*
X155383000Y-77260800D01*
X157983000Y-74600800D02*
X157983000Y-77260800D01*
X159253000Y-74600800D02*
X160583000Y-74600800D01*
X160583000Y-74600800D02*
X160583000Y-75930800D01*
X107123000Y-74600800D02*
X107123000Y-77260800D01*
X109723000Y-74600800D02*
X107123000Y-74600800D01*
X109723000Y-77260800D02*
X107123000Y-77260800D01*
X109723000Y-74600800D02*
X109723000Y-77260800D01*
X110993000Y-74600800D02*
X112323000Y-74600800D01*
X112323000Y-74600800D02*
X112323000Y-75930800D01*
X155383000Y-46660800D02*
X155383000Y-49320800D01*
X157983000Y-46660800D02*
X155383000Y-46660800D01*
X157983000Y-49320800D02*
X155383000Y-49320800D01*
X157983000Y-46660800D02*
X157983000Y-49320800D01*
X159253000Y-46660800D02*
X160583000Y-46660800D01*
X160583000Y-46660800D02*
X160583000Y-47990800D01*
X155383000Y-107620800D02*
X155383000Y-110280800D01*
X157983000Y-107620800D02*
X155383000Y-107620800D01*
X157983000Y-110280800D02*
X155383000Y-110280800D01*
X157983000Y-107620800D02*
X157983000Y-110280800D01*
X159253000Y-107620800D02*
X160583000Y-107620800D01*
X160583000Y-107620800D02*
X160583000Y-108950800D01*
X107123000Y-107620800D02*
X107123000Y-110280800D01*
X109723000Y-107620800D02*
X107123000Y-107620800D01*
X109723000Y-110280800D02*
X107123000Y-110280800D01*
X109723000Y-107620800D02*
X109723000Y-110280800D01*
X110993000Y-107620800D02*
X112323000Y-107620800D01*
X112323000Y-107620800D02*
X112323000Y-108950800D01*
X155383000Y-79680800D02*
X155383000Y-82340800D01*
X157983000Y-79680800D02*
X155383000Y-79680800D01*
X157983000Y-82340800D02*
X155383000Y-82340800D01*
X157983000Y-79680800D02*
X157983000Y-82340800D01*
X159253000Y-79680800D02*
X160583000Y-79680800D01*
X160583000Y-79680800D02*
X160583000Y-81010800D01*
X107123000Y-79680800D02*
X107123000Y-82340800D01*
X109723000Y-79680800D02*
X107123000Y-79680800D01*
X109723000Y-82340800D02*
X107123000Y-82340800D01*
X109723000Y-79680800D02*
X109723000Y-82340800D01*
X110993000Y-79680800D02*
X112323000Y-79680800D01*
X112323000Y-79680800D02*
X112323000Y-81010800D01*
X155383000Y-51740800D02*
X155383000Y-54400800D01*
X157983000Y-51740800D02*
X155383000Y-51740800D01*
X157983000Y-54400800D02*
X155383000Y-54400800D01*
X157983000Y-51740800D02*
X157983000Y-54400800D01*
X159253000Y-51740800D02*
X160583000Y-51740800D01*
X160583000Y-51740800D02*
X160583000Y-53070800D01*
X137669000Y-98850800D02*
X140329000Y-98850800D01*
X137669000Y-91170800D02*
X137669000Y-98850800D01*
X140329000Y-91170800D02*
X140329000Y-98850800D01*
X137669000Y-91170800D02*
X140329000Y-91170800D01*
X137669000Y-89900800D02*
X137669000Y-88570800D01*
X137669000Y-88570800D02*
X138999000Y-88570800D01*
X89409000Y-98850800D02*
X92069000Y-98850800D01*
X89409000Y-91170800D02*
X89409000Y-98850800D01*
X92069000Y-91170800D02*
X92069000Y-98850800D01*
X89409000Y-91170800D02*
X92069000Y-91170800D01*
X89409000Y-89900800D02*
X89409000Y-88570800D01*
X89409000Y-88570800D02*
X90739000Y-88570800D01*
X137669000Y-70910800D02*
X140329000Y-70910800D01*
X137669000Y-63230800D02*
X137669000Y-70910800D01*
X140329000Y-63230800D02*
X140329000Y-70910800D01*
X137669000Y-63230800D02*
X140329000Y-63230800D01*
X137669000Y-61960800D02*
X137669000Y-60630800D01*
X137669000Y-60630800D02*
X138999000Y-60630800D01*
X89409000Y-70910800D02*
X92069000Y-70910800D01*
X89409000Y-63230800D02*
X89409000Y-70910800D01*
X92069000Y-63230800D02*
X92069000Y-70910800D01*
X89409000Y-63230800D02*
X92069000Y-63230800D01*
X89409000Y-61960800D02*
X89409000Y-60630800D01*
X89409000Y-60630800D02*
X90739000Y-60630800D01*
X137669000Y-42970800D02*
X140329000Y-42970800D01*
X137669000Y-35290800D02*
X137669000Y-42970800D01*
X140329000Y-35290800D02*
X140329000Y-42970800D01*
X137669000Y-35290800D02*
X140329000Y-35290800D01*
X137669000Y-34020800D02*
X137669000Y-32690800D01*
X137669000Y-32690800D02*
X138999000Y-32690800D01*
X145409000Y-103810800D02*
X142749000Y-103810800D01*
X145409000Y-111490800D02*
X145409000Y-103810800D01*
X142749000Y-111490800D02*
X142749000Y-103810800D01*
X145409000Y-111490800D02*
X142749000Y-111490800D01*
X145409000Y-112760800D02*
X145409000Y-114090800D01*
X145409000Y-114090800D02*
X144079000Y-114090800D01*
X97149000Y-103810800D02*
X94489000Y-103810800D01*
X97149000Y-111490800D02*
X97149000Y-103810800D01*
X94489000Y-111490800D02*
X94489000Y-103810800D01*
X97149000Y-111490800D02*
X94489000Y-111490800D01*
X97149000Y-112760800D02*
X97149000Y-114090800D01*
X97149000Y-114090800D02*
X95819000Y-114090800D01*
X145409000Y-75870800D02*
X142749000Y-75870800D01*
X145409000Y-83550800D02*
X145409000Y-75870800D01*
X142749000Y-83550800D02*
X142749000Y-75870800D01*
X145409000Y-83550800D02*
X142749000Y-83550800D01*
X145409000Y-84820800D02*
X145409000Y-86150800D01*
X145409000Y-86150800D02*
X144079000Y-86150800D01*
X97149000Y-75870800D02*
X94489000Y-75870800D01*
X97149000Y-83550800D02*
X97149000Y-75870800D01*
X94489000Y-83550800D02*
X94489000Y-75870800D01*
X97149000Y-83550800D02*
X94489000Y-83550800D01*
X97149000Y-84820800D02*
X97149000Y-86150800D01*
X97149000Y-86150800D02*
X95819000Y-86150800D01*
X145409000Y-47930800D02*
X142749000Y-47930800D01*
X145409000Y-55610800D02*
X145409000Y-47930800D01*
X142749000Y-55610800D02*
X142749000Y-47930800D01*
X145409000Y-55610800D02*
X142749000Y-55610800D01*
X145409000Y-56880800D02*
X145409000Y-58210800D01*
X145409000Y-58210800D02*
X144079000Y-58210800D01*
X140329000Y-103810800D02*
X137669000Y-103810800D01*
X140329000Y-111490800D02*
X140329000Y-103810800D01*
X137669000Y-111490800D02*
X137669000Y-103810800D01*
X140329000Y-111490800D02*
X137669000Y-111490800D01*
X140329000Y-112760800D02*
X140329000Y-114090800D01*
X140329000Y-114090800D02*
X138999000Y-114090800D01*
X92069000Y-103810800D02*
X89409000Y-103810800D01*
X92069000Y-111490800D02*
X92069000Y-103810800D01*
X89409000Y-111490800D02*
X89409000Y-103810800D01*
X92069000Y-111490800D02*
X89409000Y-111490800D01*
X92069000Y-112760800D02*
X92069000Y-114090800D01*
X92069000Y-114090800D02*
X90739000Y-114090800D01*
X140329000Y-75870800D02*
X137669000Y-75870800D01*
X140329000Y-83550800D02*
X140329000Y-75870800D01*
X137669000Y-83550800D02*
X137669000Y-75870800D01*
X140329000Y-83550800D02*
X137669000Y-83550800D01*
X140329000Y-84820800D02*
X140329000Y-86150800D01*
X140329000Y-86150800D02*
X138999000Y-86150800D01*
X92069000Y-75870800D02*
X89409000Y-75870800D01*
X92069000Y-83550800D02*
X92069000Y-75870800D01*
X89409000Y-83550800D02*
X89409000Y-75870800D01*
X92069000Y-83550800D02*
X89409000Y-83550800D01*
X92069000Y-84820800D02*
X92069000Y-86150800D01*
X92069000Y-86150800D02*
X90739000Y-86150800D01*
X140329000Y-47930800D02*
X137669000Y-47930800D01*
X140329000Y-55610800D02*
X140329000Y-47930800D01*
X137669000Y-55610800D02*
X137669000Y-47930800D01*
X140329000Y-55610800D02*
X137669000Y-55610800D01*
X140329000Y-56880800D02*
X140329000Y-58210800D01*
X140329000Y-58210800D02*
X138999000Y-58210800D01*
X132775000Y-97580800D02*
X132775000Y-94920800D01*
X130175000Y-97580800D02*
X132775000Y-97580800D01*
X130175000Y-94920800D02*
X132775000Y-94920800D01*
X130175000Y-97580800D02*
X130175000Y-94920800D01*
X128905000Y-97580800D02*
X127575000Y-97580800D01*
X127575000Y-97580800D02*
X127575000Y-96250800D01*
X84515000Y-97580800D02*
X84515000Y-94920800D01*
X81915000Y-97580800D02*
X84515000Y-97580800D01*
X81915000Y-94920800D02*
X84515000Y-94920800D01*
X81915000Y-97580800D02*
X81915000Y-94920800D01*
X80645000Y-97580800D02*
X79315000Y-97580800D01*
X79315000Y-97580800D02*
X79315000Y-96250800D01*
X132775000Y-69640800D02*
X132775000Y-66980800D01*
X130175000Y-69640800D02*
X132775000Y-69640800D01*
X130175000Y-66980800D02*
X132775000Y-66980800D01*
X130175000Y-69640800D02*
X130175000Y-66980800D01*
X128905000Y-69640800D02*
X127575000Y-69640800D01*
X127575000Y-69640800D02*
X127575000Y-68310800D01*
X84515000Y-69640800D02*
X84515000Y-66980800D01*
X81915000Y-69640800D02*
X84515000Y-69640800D01*
X81915000Y-66980800D02*
X84515000Y-66980800D01*
X81915000Y-69640800D02*
X81915000Y-66980800D01*
X80645000Y-69640800D02*
X79315000Y-69640800D01*
X79315000Y-69640800D02*
X79315000Y-68310800D01*
X132775000Y-41700800D02*
X132775000Y-39040800D01*
X130175000Y-41700800D02*
X132775000Y-41700800D01*
X130175000Y-39040800D02*
X132775000Y-39040800D01*
X130175000Y-41700800D02*
X130175000Y-39040800D01*
X128905000Y-41700800D02*
X127575000Y-41700800D01*
X127575000Y-41700800D02*
X127575000Y-40370800D01*
X132775000Y-100120800D02*
X132775000Y-97460800D01*
X130175000Y-100120800D02*
X132775000Y-100120800D01*
X130175000Y-97460800D02*
X132775000Y-97460800D01*
X130175000Y-100120800D02*
X130175000Y-97460800D01*
X128905000Y-100120800D02*
X127575000Y-100120800D01*
X127575000Y-100120800D02*
X127575000Y-98790800D01*
X84515000Y-100120800D02*
X84515000Y-97460800D01*
X81915000Y-100120800D02*
X84515000Y-100120800D01*
X81915000Y-97460800D02*
X84515000Y-97460800D01*
X81915000Y-100120800D02*
X81915000Y-97460800D01*
X80645000Y-100120800D02*
X79315000Y-100120800D01*
X79315000Y-100120800D02*
X79315000Y-98790800D01*
X132775000Y-72180800D02*
X132775000Y-69520800D01*
X130175000Y-72180800D02*
X132775000Y-72180800D01*
X130175000Y-69520800D02*
X132775000Y-69520800D01*
X130175000Y-72180800D02*
X130175000Y-69520800D01*
X128905000Y-72180800D02*
X127575000Y-72180800D01*
X127575000Y-72180800D02*
X127575000Y-70850800D01*
X84515000Y-72180800D02*
X84515000Y-69520800D01*
X81915000Y-72180800D02*
X84515000Y-72180800D01*
X81915000Y-69520800D02*
X84515000Y-69520800D01*
X81915000Y-72180800D02*
X81915000Y-69520800D01*
X80645000Y-72180800D02*
X79315000Y-72180800D01*
X79315000Y-72180800D02*
X79315000Y-70850800D01*
X132775000Y-44240800D02*
X132775000Y-41580800D01*
X130175000Y-44240800D02*
X132775000Y-44240800D01*
X130175000Y-41580800D02*
X132775000Y-41580800D01*
X130175000Y-44240800D02*
X130175000Y-41580800D01*
X128905000Y-44240800D02*
X127575000Y-44240800D01*
X127575000Y-44240800D02*
X127575000Y-42910800D01*
X142749000Y-98850800D02*
X145409000Y-98850800D01*
X142749000Y-91170800D02*
X142749000Y-98850800D01*
X145409000Y-91170800D02*
X145409000Y-98850800D01*
X142749000Y-91170800D02*
X145409000Y-91170800D01*
X142749000Y-89900800D02*
X142749000Y-88570800D01*
X142749000Y-88570800D02*
X144079000Y-88570800D01*
X94489000Y-98850800D02*
X97149000Y-98850800D01*
X94489000Y-91170800D02*
X94489000Y-98850800D01*
X97149000Y-91170800D02*
X97149000Y-98850800D01*
X94489000Y-91170800D02*
X97149000Y-91170800D01*
X94489000Y-89900800D02*
X94489000Y-88570800D01*
X94489000Y-88570800D02*
X95819000Y-88570800D01*
X142749000Y-70910800D02*
X145409000Y-70910800D01*
X142749000Y-63230800D02*
X142749000Y-70910800D01*
X145409000Y-63230800D02*
X145409000Y-70910800D01*
X142749000Y-63230800D02*
X145409000Y-63230800D01*
X142749000Y-61960800D02*
X142749000Y-60630800D01*
X142749000Y-60630800D02*
X144079000Y-60630800D01*
X94489000Y-70910800D02*
X97149000Y-70910800D01*
X94489000Y-63230800D02*
X94489000Y-70910800D01*
X97149000Y-63230800D02*
X97149000Y-70910800D01*
X94489000Y-63230800D02*
X97149000Y-63230800D01*
X94489000Y-61960800D02*
X94489000Y-60630800D01*
X94489000Y-60630800D02*
X95819000Y-60630800D01*
X142749000Y-42970800D02*
X145409000Y-42970800D01*
X142749000Y-35290800D02*
X142749000Y-42970800D01*
X145409000Y-35290800D02*
X145409000Y-42970800D01*
X142749000Y-35290800D02*
X145409000Y-35290800D01*
X142749000Y-34020800D02*
X142749000Y-32690800D01*
X142749000Y-32690800D02*
X144079000Y-32690800D01*
X165607185Y-111223213D02*
G75*
G02X165730800Y-111830800I-1431385J-607587D01*
G01*
X163568058Y-110398691D02*
G75*
G02X164783800Y-110398800I607742J-1432109D01*
G01*
X162743691Y-112438542D02*
G75*
G02X162743800Y-111222800I1432109J607742D01*
G01*
X164783542Y-113262909D02*
G75*
G02X163567800Y-113262800I-607742J1432109D01*
G01*
X165731292Y-111803789D02*
G75*
G02X165607800Y-112438800I-1555492J-27011D01*
G01*
X165730800Y-108330800D02*
G75*
G03X165730800Y-108330800I-1555000J0D01*
G01*
X165730800Y-104830800D02*
G75*
G03X165730800Y-104830800I-1555000J0D01*
G01*
X165730800Y-101330800D02*
G75*
G03X165730800Y-101330800I-1555000J0D01*
G01*
X165730800Y-97830800D02*
G75*
G03X165730800Y-97830800I-1555000J0D01*
G01*
X165730800Y-94330800D02*
G75*
G03X165730800Y-94330800I-1555000J0D01*
G01*
X165730800Y-90830800D02*
G75*
G03X165730800Y-90830800I-1555000J0D01*
G01*
X166275800Y-113990800D02*
X166275800Y-88670800D01*
X160715800Y-113990800D02*
X160715800Y-88670800D01*
X167835800Y-113990800D02*
X167835800Y-88670800D01*
X160715800Y-113990800D02*
X167835800Y-113990800D01*
X160715800Y-88670800D02*
X167835800Y-88670800D01*
X166335800Y-114230800D02*
X168075800Y-114230800D01*
X168075800Y-114230800D02*
X168075800Y-112730800D01*
X117347185Y-111223213D02*
G75*
G02X117470800Y-111830800I-1431385J-607587D01*
G01*
X115308058Y-110398691D02*
G75*
G02X116523800Y-110398800I607742J-1432109D01*
G01*
X114483691Y-112438542D02*
G75*
G02X114483800Y-111222800I1432109J607742D01*
G01*
X116523542Y-113262909D02*
G75*
G02X115307800Y-113262800I-607742J1432109D01*
G01*
X117471292Y-111803789D02*
G75*
G02X117347800Y-112438800I-1555492J-27011D01*
G01*
X117470800Y-108330800D02*
G75*
G03X117470800Y-108330800I-1555000J0D01*
G01*
X117470800Y-104830800D02*
G75*
G03X117470800Y-104830800I-1555000J0D01*
G01*
X117470800Y-101330800D02*
G75*
G03X117470800Y-101330800I-1555000J0D01*
G01*
X117470800Y-97830800D02*
G75*
G03X117470800Y-97830800I-1555000J0D01*
G01*
X117470800Y-94330800D02*
G75*
G03X117470800Y-94330800I-1555000J0D01*
G01*
X117470800Y-90830800D02*
G75*
G03X117470800Y-90830800I-1555000J0D01*
G01*
X118015800Y-113990800D02*
X118015800Y-88670800D01*
X112455800Y-113990800D02*
X112455800Y-88670800D01*
X119575800Y-113990800D02*
X119575800Y-88670800D01*
X112455800Y-113990800D02*
X119575800Y-113990800D01*
X112455800Y-88670800D02*
X119575800Y-88670800D01*
X118075800Y-114230800D02*
X119815800Y-114230800D01*
X119815800Y-114230800D02*
X119815800Y-112730800D01*
X165607185Y-83283213D02*
G75*
G02X165730800Y-83890800I-1431385J-607587D01*
G01*
X163568058Y-82458691D02*
G75*
G02X164783800Y-82458800I607742J-1432109D01*
G01*
X162743691Y-84498542D02*
G75*
G02X162743800Y-83282800I1432109J607742D01*
G01*
X164783542Y-85322909D02*
G75*
G02X163567800Y-85322800I-607742J1432109D01*
G01*
X165731292Y-83863789D02*
G75*
G02X165607800Y-84498800I-1555492J-27011D01*
G01*
X165730800Y-80390800D02*
G75*
G03X165730800Y-80390800I-1555000J0D01*
G01*
X165730800Y-76890800D02*
G75*
G03X165730800Y-76890800I-1555000J0D01*
G01*
X165730800Y-73390800D02*
G75*
G03X165730800Y-73390800I-1555000J0D01*
G01*
X165730800Y-69890800D02*
G75*
G03X165730800Y-69890800I-1555000J0D01*
G01*
X165730800Y-66390800D02*
G75*
G03X165730800Y-66390800I-1555000J0D01*
G01*
X165730800Y-62890800D02*
G75*
G03X165730800Y-62890800I-1555000J0D01*
G01*
X166275800Y-86050800D02*
X166275800Y-60730800D01*
X160715800Y-86050800D02*
X160715800Y-60730800D01*
X167835800Y-86050800D02*
X167835800Y-60730800D01*
X160715800Y-86050800D02*
X167835800Y-86050800D01*
X160715800Y-60730800D02*
X167835800Y-60730800D01*
X166335800Y-86290800D02*
X168075800Y-86290800D01*
X168075800Y-86290800D02*
X168075800Y-84790800D01*
X117347185Y-83283213D02*
G75*
G02X117470800Y-83890800I-1431385J-607587D01*
G01*
X115308058Y-82458691D02*
G75*
G02X116523800Y-82458800I607742J-1432109D01*
G01*
X114483691Y-84498542D02*
G75*
G02X114483800Y-83282800I1432109J607742D01*
G01*
X116523542Y-85322909D02*
G75*
G02X115307800Y-85322800I-607742J1432109D01*
G01*
X117471292Y-83863789D02*
G75*
G02X117347800Y-84498800I-1555492J-27011D01*
G01*
X117470800Y-80390800D02*
G75*
G03X117470800Y-80390800I-1555000J0D01*
G01*
X117470800Y-76890800D02*
G75*
G03X117470800Y-76890800I-1555000J0D01*
G01*
X117470800Y-73390800D02*
G75*
G03X117470800Y-73390800I-1555000J0D01*
G01*
X117470800Y-69890800D02*
G75*
G03X117470800Y-69890800I-1555000J0D01*
G01*
X117470800Y-66390800D02*
G75*
G03X117470800Y-66390800I-1555000J0D01*
G01*
X117470800Y-62890800D02*
G75*
G03X117470800Y-62890800I-1555000J0D01*
G01*
X118015800Y-86050800D02*
X118015800Y-60730800D01*
X112455800Y-86050800D02*
X112455800Y-60730800D01*
X119575800Y-86050800D02*
X119575800Y-60730800D01*
X112455800Y-86050800D02*
X119575800Y-86050800D01*
X112455800Y-60730800D02*
X119575800Y-60730800D01*
X118075800Y-86290800D02*
X119815800Y-86290800D01*
X119815800Y-86290800D02*
X119815800Y-84790800D01*
X165607185Y-55343213D02*
G75*
G02X165730800Y-55950800I-1431385J-607587D01*
G01*
X163568058Y-54518691D02*
G75*
G02X164783800Y-54518800I607742J-1432109D01*
G01*
X162743691Y-56558542D02*
G75*
G02X162743800Y-55342800I1432109J607742D01*
G01*
X164783542Y-57382909D02*
G75*
G02X163567800Y-57382800I-607742J1432109D01*
G01*
X165731292Y-55923789D02*
G75*
G02X165607800Y-56558800I-1555492J-27011D01*
G01*
X165730800Y-52450800D02*
G75*
G03X165730800Y-52450800I-1555000J0D01*
G01*
X165730800Y-48950800D02*
G75*
G03X165730800Y-48950800I-1555000J0D01*
G01*
X165730800Y-45450800D02*
G75*
G03X165730800Y-45450800I-1555000J0D01*
G01*
X165730800Y-41950800D02*
G75*
G03X165730800Y-41950800I-1555000J0D01*
G01*
X165730800Y-38450800D02*
G75*
G03X165730800Y-38450800I-1555000J0D01*
G01*
X165730800Y-34950800D02*
G75*
G03X165730800Y-34950800I-1555000J0D01*
G01*
X166275800Y-58110800D02*
X166275800Y-32790800D01*
X160715800Y-58110800D02*
X160715800Y-32790800D01*
X167835800Y-58110800D02*
X167835800Y-32790800D01*
X160715800Y-58110800D02*
X167835800Y-58110800D01*
X160715800Y-32790800D02*
X167835800Y-32790800D01*
X166335800Y-58350800D02*
X168075800Y-58350800D01*
X168075800Y-58350800D02*
X168075800Y-56850800D01*
X145289000Y-98850800D02*
X147949000Y-98850800D01*
X145289000Y-91170800D02*
X145289000Y-98850800D01*
X147949000Y-91170800D02*
X147949000Y-98850800D01*
X145289000Y-91170800D02*
X147949000Y-91170800D01*
X145289000Y-89900800D02*
X145289000Y-88570800D01*
X145289000Y-88570800D02*
X146619000Y-88570800D01*
X97029000Y-98850800D02*
X99689000Y-98850800D01*
X97029000Y-91170800D02*
X97029000Y-98850800D01*
X99689000Y-91170800D02*
X99689000Y-98850800D01*
X97029000Y-91170800D02*
X99689000Y-91170800D01*
X97029000Y-89900800D02*
X97029000Y-88570800D01*
X97029000Y-88570800D02*
X98359000Y-88570800D01*
X145289000Y-70910800D02*
X147949000Y-70910800D01*
X145289000Y-63230800D02*
X145289000Y-70910800D01*
X147949000Y-63230800D02*
X147949000Y-70910800D01*
X145289000Y-63230800D02*
X147949000Y-63230800D01*
X145289000Y-61960800D02*
X145289000Y-60630800D01*
X145289000Y-60630800D02*
X146619000Y-60630800D01*
X97029000Y-70910800D02*
X99689000Y-70910800D01*
X97029000Y-63230800D02*
X97029000Y-70910800D01*
X99689000Y-63230800D02*
X99689000Y-70910800D01*
X97029000Y-63230800D02*
X99689000Y-63230800D01*
X97029000Y-61960800D02*
X97029000Y-60630800D01*
X97029000Y-60630800D02*
X98359000Y-60630800D01*
X145289000Y-42970800D02*
X147949000Y-42970800D01*
X145289000Y-35290800D02*
X145289000Y-42970800D01*
X147949000Y-35290800D02*
X147949000Y-42970800D01*
X145289000Y-35290800D02*
X147949000Y-35290800D01*
X145289000Y-34020800D02*
X145289000Y-32690800D01*
X145289000Y-32690800D02*
X146619000Y-32690800D01*
X132775000Y-107740800D02*
X132775000Y-105080800D01*
X130175000Y-107740800D02*
X132775000Y-107740800D01*
X130175000Y-105080800D02*
X132775000Y-105080800D01*
X130175000Y-107740800D02*
X130175000Y-105080800D01*
X128905000Y-107740800D02*
X127575000Y-107740800D01*
X127575000Y-107740800D02*
X127575000Y-106410800D01*
X84515000Y-107740800D02*
X84515000Y-105080800D01*
X81915000Y-107740800D02*
X84515000Y-107740800D01*
X81915000Y-105080800D02*
X84515000Y-105080800D01*
X81915000Y-107740800D02*
X81915000Y-105080800D01*
X80645000Y-107740800D02*
X79315000Y-107740800D01*
X79315000Y-107740800D02*
X79315000Y-106410800D01*
X132775000Y-79800800D02*
X132775000Y-77140800D01*
X130175000Y-79800800D02*
X132775000Y-79800800D01*
X130175000Y-77140800D02*
X132775000Y-77140800D01*
X130175000Y-79800800D02*
X130175000Y-77140800D01*
X128905000Y-79800800D02*
X127575000Y-79800800D01*
X127575000Y-79800800D02*
X127575000Y-78470800D01*
X84515000Y-79800800D02*
X84515000Y-77140800D01*
X81915000Y-79800800D02*
X84515000Y-79800800D01*
X81915000Y-77140800D02*
X84515000Y-77140800D01*
X81915000Y-79800800D02*
X81915000Y-77140800D01*
X80645000Y-79800800D02*
X79315000Y-79800800D01*
X79315000Y-79800800D02*
X79315000Y-78470800D01*
X132775000Y-51860800D02*
X132775000Y-49200800D01*
X130175000Y-51860800D02*
X132775000Y-51860800D01*
X130175000Y-49200800D02*
X132775000Y-49200800D01*
X130175000Y-51860800D02*
X130175000Y-49200800D01*
X128905000Y-51860800D02*
X127575000Y-51860800D01*
X127575000Y-51860800D02*
X127575000Y-50530800D01*
X132775000Y-95040800D02*
X132775000Y-92380800D01*
X130175000Y-95040800D02*
X132775000Y-95040800D01*
X130175000Y-92380800D02*
X132775000Y-92380800D01*
X130175000Y-95040800D02*
X130175000Y-92380800D01*
X128905000Y-95040800D02*
X127575000Y-95040800D01*
X127575000Y-95040800D02*
X127575000Y-93710800D01*
X84515000Y-95040800D02*
X84515000Y-92380800D01*
X81915000Y-95040800D02*
X84515000Y-95040800D01*
X81915000Y-92380800D02*
X84515000Y-92380800D01*
X81915000Y-95040800D02*
X81915000Y-92380800D01*
X80645000Y-95040800D02*
X79315000Y-95040800D01*
X79315000Y-95040800D02*
X79315000Y-93710800D01*
X132775000Y-67100800D02*
X132775000Y-64440800D01*
X130175000Y-67100800D02*
X132775000Y-67100800D01*
X130175000Y-64440800D02*
X132775000Y-64440800D01*
X130175000Y-67100800D02*
X130175000Y-64440800D01*
X128905000Y-67100800D02*
X127575000Y-67100800D01*
X127575000Y-67100800D02*
X127575000Y-65770800D01*
X84515000Y-67100800D02*
X84515000Y-64440800D01*
X81915000Y-67100800D02*
X84515000Y-67100800D01*
X81915000Y-64440800D02*
X84515000Y-64440800D01*
X81915000Y-67100800D02*
X81915000Y-64440800D01*
X80645000Y-67100800D02*
X79315000Y-67100800D01*
X79315000Y-67100800D02*
X79315000Y-65770800D01*
X132775000Y-39160800D02*
X132775000Y-36500800D01*
X130175000Y-39160800D02*
X132775000Y-39160800D01*
X130175000Y-36500800D02*
X132775000Y-36500800D01*
X130175000Y-39160800D02*
X130175000Y-36500800D01*
X128905000Y-39160800D02*
X127575000Y-39160800D01*
X127575000Y-39160800D02*
X127575000Y-37830800D01*
X152909000Y-98850800D02*
X155569000Y-98850800D01*
X152909000Y-96250800D02*
X152909000Y-98850800D01*
X155569000Y-96250800D02*
X155569000Y-98850800D01*
X152909000Y-96250800D02*
X155569000Y-96250800D01*
X152909000Y-94980800D02*
X152909000Y-93650800D01*
X152909000Y-93650800D02*
X154239000Y-93650800D01*
X104649000Y-98850800D02*
X107309000Y-98850800D01*
X104649000Y-96250800D02*
X104649000Y-98850800D01*
X107309000Y-96250800D02*
X107309000Y-98850800D01*
X104649000Y-96250800D02*
X107309000Y-96250800D01*
X104649000Y-94980800D02*
X104649000Y-93650800D01*
X104649000Y-93650800D02*
X105979000Y-93650800D01*
X152909000Y-70910800D02*
X155569000Y-70910800D01*
X152909000Y-68310800D02*
X152909000Y-70910800D01*
X155569000Y-68310800D02*
X155569000Y-70910800D01*
X152909000Y-68310800D02*
X155569000Y-68310800D01*
X152909000Y-67040800D02*
X152909000Y-65710800D01*
X152909000Y-65710800D02*
X154239000Y-65710800D01*
X104649000Y-70910800D02*
X107309000Y-70910800D01*
X104649000Y-68310800D02*
X104649000Y-70910800D01*
X107309000Y-68310800D02*
X107309000Y-70910800D01*
X104649000Y-68310800D02*
X107309000Y-68310800D01*
X104649000Y-67040800D02*
X104649000Y-65710800D01*
X104649000Y-65710800D02*
X105979000Y-65710800D01*
X152909000Y-42970800D02*
X155569000Y-42970800D01*
X152909000Y-40370800D02*
X152909000Y-42970800D01*
X155569000Y-40370800D02*
X155569000Y-42970800D01*
X152909000Y-40370800D02*
X155569000Y-40370800D01*
X152909000Y-39100800D02*
X152909000Y-37770800D01*
X152909000Y-37770800D02*
X154239000Y-37770800D01*
X150489000Y-103810800D02*
X147829000Y-103810800D01*
X150489000Y-111490800D02*
X150489000Y-103810800D01*
X147829000Y-111490800D02*
X147829000Y-103810800D01*
X150489000Y-111490800D02*
X147829000Y-111490800D01*
X150489000Y-112760800D02*
X150489000Y-114090800D01*
X150489000Y-114090800D02*
X149159000Y-114090800D01*
X102229000Y-103810800D02*
X99569000Y-103810800D01*
X102229000Y-111490800D02*
X102229000Y-103810800D01*
X99569000Y-111490800D02*
X99569000Y-103810800D01*
X102229000Y-111490800D02*
X99569000Y-111490800D01*
X102229000Y-112760800D02*
X102229000Y-114090800D01*
X102229000Y-114090800D02*
X100899000Y-114090800D01*
X150489000Y-75870800D02*
X147829000Y-75870800D01*
X150489000Y-83550800D02*
X150489000Y-75870800D01*
X147829000Y-83550800D02*
X147829000Y-75870800D01*
X150489000Y-83550800D02*
X147829000Y-83550800D01*
X150489000Y-84820800D02*
X150489000Y-86150800D01*
X150489000Y-86150800D02*
X149159000Y-86150800D01*
X102229000Y-75870800D02*
X99569000Y-75870800D01*
X102229000Y-83550800D02*
X102229000Y-75870800D01*
X99569000Y-83550800D02*
X99569000Y-75870800D01*
X102229000Y-83550800D02*
X99569000Y-83550800D01*
X102229000Y-84820800D02*
X102229000Y-86150800D01*
X102229000Y-86150800D02*
X100899000Y-86150800D01*
X150489000Y-47930800D02*
X147829000Y-47930800D01*
X150489000Y-55610800D02*
X150489000Y-47930800D01*
X147829000Y-55610800D02*
X147829000Y-47930800D01*
X150489000Y-55610800D02*
X147829000Y-55610800D01*
X150489000Y-56880800D02*
X150489000Y-58210800D01*
X150489000Y-58210800D02*
X149159000Y-58210800D01*
X153029000Y-103810800D02*
X150369000Y-103810800D01*
X153029000Y-106410800D02*
X153029000Y-103810800D01*
X150369000Y-106410800D02*
X150369000Y-103810800D01*
X153029000Y-106410800D02*
X150369000Y-106410800D01*
X153029000Y-107680800D02*
X153029000Y-109010800D01*
X153029000Y-109010800D02*
X151699000Y-109010800D01*
X104769000Y-103810800D02*
X102109000Y-103810800D01*
X104769000Y-106410800D02*
X104769000Y-103810800D01*
X102109000Y-106410800D02*
X102109000Y-103810800D01*
X104769000Y-106410800D02*
X102109000Y-106410800D01*
X104769000Y-107680800D02*
X104769000Y-109010800D01*
X104769000Y-109010800D02*
X103439000Y-109010800D01*
X153029000Y-75870800D02*
X150369000Y-75870800D01*
X153029000Y-78470800D02*
X153029000Y-75870800D01*
X150369000Y-78470800D02*
X150369000Y-75870800D01*
X153029000Y-78470800D02*
X150369000Y-78470800D01*
X153029000Y-79740800D02*
X153029000Y-81070800D01*
X153029000Y-81070800D02*
X151699000Y-81070800D01*
X104769000Y-75870800D02*
X102109000Y-75870800D01*
X104769000Y-78470800D02*
X104769000Y-75870800D01*
X102109000Y-78470800D02*
X102109000Y-75870800D01*
X104769000Y-78470800D02*
X102109000Y-78470800D01*
X104769000Y-79740800D02*
X104769000Y-81070800D01*
X104769000Y-81070800D02*
X103439000Y-81070800D01*
X153029000Y-47930800D02*
X150369000Y-47930800D01*
X153029000Y-50530800D02*
X153029000Y-47930800D01*
X150369000Y-50530800D02*
X150369000Y-47930800D01*
X153029000Y-50530800D02*
X150369000Y-50530800D01*
X153029000Y-51800800D02*
X153029000Y-53130800D01*
X153029000Y-53130800D02*
X151699000Y-53130800D01*
X155383000Y-97460800D02*
X155383000Y-100120800D01*
X157983000Y-97460800D02*
X155383000Y-97460800D01*
X157983000Y-100120800D02*
X155383000Y-100120800D01*
X157983000Y-97460800D02*
X157983000Y-100120800D01*
X159253000Y-97460800D02*
X160583000Y-97460800D01*
X160583000Y-97460800D02*
X160583000Y-98790800D01*
X107123000Y-97460800D02*
X107123000Y-100120800D01*
X109723000Y-97460800D02*
X107123000Y-97460800D01*
X109723000Y-100120800D02*
X107123000Y-100120800D01*
X109723000Y-97460800D02*
X109723000Y-100120800D01*
X110993000Y-97460800D02*
X112323000Y-97460800D01*
X112323000Y-97460800D02*
X112323000Y-98790800D01*
X155383000Y-69520800D02*
X155383000Y-72180800D01*
X157983000Y-69520800D02*
X155383000Y-69520800D01*
X157983000Y-72180800D02*
X155383000Y-72180800D01*
X157983000Y-69520800D02*
X157983000Y-72180800D01*
X159253000Y-69520800D02*
X160583000Y-69520800D01*
X160583000Y-69520800D02*
X160583000Y-70850800D01*
X107123000Y-69520800D02*
X107123000Y-72180800D01*
X109723000Y-69520800D02*
X107123000Y-69520800D01*
X109723000Y-72180800D02*
X107123000Y-72180800D01*
X109723000Y-69520800D02*
X109723000Y-72180800D01*
X110993000Y-69520800D02*
X112323000Y-69520800D01*
X112323000Y-69520800D02*
X112323000Y-70850800D01*
X155383000Y-41580800D02*
X155383000Y-44240800D01*
X157983000Y-41580800D02*
X155383000Y-41580800D01*
X157983000Y-44240800D02*
X155383000Y-44240800D01*
X157983000Y-41580800D02*
X157983000Y-44240800D01*
X159253000Y-41580800D02*
X160583000Y-41580800D01*
X160583000Y-41580800D02*
X160583000Y-42910800D01*
X132775000Y-110280800D02*
X132775000Y-107620800D01*
X130175000Y-110280800D02*
X132775000Y-110280800D01*
X130175000Y-107620800D02*
X132775000Y-107620800D01*
X130175000Y-110280800D02*
X130175000Y-107620800D01*
X128905000Y-110280800D02*
X127575000Y-110280800D01*
X127575000Y-110280800D02*
X127575000Y-108950800D01*
X84515000Y-110280800D02*
X84515000Y-107620800D01*
X81915000Y-110280800D02*
X84515000Y-110280800D01*
X81915000Y-107620800D02*
X84515000Y-107620800D01*
X81915000Y-110280800D02*
X81915000Y-107620800D01*
X80645000Y-110280800D02*
X79315000Y-110280800D01*
X79315000Y-110280800D02*
X79315000Y-108950800D01*
X132775000Y-82340800D02*
X132775000Y-79680800D01*
X130175000Y-82340800D02*
X132775000Y-82340800D01*
X130175000Y-79680800D02*
X132775000Y-79680800D01*
X130175000Y-82340800D02*
X130175000Y-79680800D01*
X128905000Y-82340800D02*
X127575000Y-82340800D01*
X127575000Y-82340800D02*
X127575000Y-81010800D01*
X84515000Y-82340800D02*
X84515000Y-79680800D01*
X81915000Y-82340800D02*
X84515000Y-82340800D01*
X81915000Y-79680800D02*
X84515000Y-79680800D01*
X81915000Y-82340800D02*
X81915000Y-79680800D01*
X80645000Y-82340800D02*
X79315000Y-82340800D01*
X79315000Y-82340800D02*
X79315000Y-81010800D01*
X132775000Y-54400800D02*
X132775000Y-51740800D01*
X130175000Y-54400800D02*
X132775000Y-54400800D01*
X130175000Y-51740800D02*
X132775000Y-51740800D01*
X130175000Y-54400800D02*
X130175000Y-51740800D01*
X128905000Y-54400800D02*
X127575000Y-54400800D01*
X127575000Y-54400800D02*
X127575000Y-53070800D01*
X102229000Y-58210800D02*
X100899000Y-58210800D01*
X102229000Y-56880800D02*
X102229000Y-58210800D01*
X102229000Y-55610800D02*
X99569000Y-55610800D01*
X99569000Y-55610800D02*
X99569000Y-47930800D01*
X102229000Y-55610800D02*
X102229000Y-47930800D01*
X102229000Y-47930800D02*
X99569000Y-47930800D01*
X99689000Y-58210800D02*
X98359000Y-58210800D01*
X99689000Y-56880800D02*
X99689000Y-58210800D01*
X99689000Y-55610800D02*
X97029000Y-55610800D01*
X97029000Y-55610800D02*
X97029000Y-47930800D01*
X99689000Y-55610800D02*
X99689000Y-47930800D01*
X99689000Y-47930800D02*
X97029000Y-47930800D01*
X97149000Y-58210800D02*
X95819000Y-58210800D01*
X97149000Y-56880800D02*
X97149000Y-58210800D01*
X97149000Y-55610800D02*
X94489000Y-55610800D01*
X94489000Y-55610800D02*
X94489000Y-47930800D01*
X97149000Y-55610800D02*
X97149000Y-47930800D01*
X97149000Y-47930800D02*
X94489000Y-47930800D01*
X94609000Y-58210800D02*
X93279000Y-58210800D01*
X94609000Y-56880800D02*
X94609000Y-58210800D01*
X94609000Y-55610800D02*
X91949000Y-55610800D01*
X91949000Y-55610800D02*
X91949000Y-47930800D01*
X94609000Y-55610800D02*
X94609000Y-47930800D01*
X94609000Y-47930800D02*
X91949000Y-47930800D01*
X92069000Y-58210800D02*
X90739000Y-58210800D01*
X92069000Y-56880800D02*
X92069000Y-58210800D01*
X92069000Y-55610800D02*
X89409000Y-55610800D01*
X89409000Y-55610800D02*
X89409000Y-47930800D01*
X92069000Y-55610800D02*
X92069000Y-47930800D01*
X92069000Y-47930800D02*
X89409000Y-47930800D01*
X99569000Y-32690800D02*
X100899000Y-32690800D01*
X99569000Y-34020800D02*
X99569000Y-32690800D01*
X99569000Y-35290800D02*
X102229000Y-35290800D01*
X102229000Y-35290800D02*
X102229000Y-42970800D01*
X99569000Y-35290800D02*
X99569000Y-42970800D01*
X99569000Y-42970800D02*
X102229000Y-42970800D01*
X97029000Y-32690800D02*
X98359000Y-32690800D01*
X97029000Y-34020800D02*
X97029000Y-32690800D01*
X97029000Y-35290800D02*
X99689000Y-35290800D01*
X99689000Y-35290800D02*
X99689000Y-42970800D01*
X97029000Y-35290800D02*
X97029000Y-42970800D01*
X97029000Y-42970800D02*
X99689000Y-42970800D01*
X94489000Y-32690800D02*
X95819000Y-32690800D01*
X94489000Y-34020800D02*
X94489000Y-32690800D01*
X94489000Y-35290800D02*
X97149000Y-35290800D01*
X97149000Y-35290800D02*
X97149000Y-42970800D01*
X94489000Y-35290800D02*
X94489000Y-42970800D01*
X94489000Y-42970800D02*
X97149000Y-42970800D01*
X91949000Y-32690800D02*
X93279000Y-32690800D01*
X91949000Y-34020800D02*
X91949000Y-32690800D01*
X91949000Y-35290800D02*
X94609000Y-35290800D01*
X94609000Y-35290800D02*
X94609000Y-42970800D01*
X91949000Y-35290800D02*
X91949000Y-42970800D01*
X91949000Y-42970800D02*
X94609000Y-42970800D01*
X89409000Y-32690800D02*
X90739000Y-32690800D01*
X89409000Y-34020800D02*
X89409000Y-32690800D01*
X89409000Y-35290800D02*
X92069000Y-35290800D01*
X92069000Y-35290800D02*
X92069000Y-42970800D01*
X89409000Y-35290800D02*
X89409000Y-42970800D01*
X89409000Y-42970800D02*
X92069000Y-42970800D01*
X107309000Y-53130800D02*
X105979000Y-53130800D01*
X107309000Y-51800800D02*
X107309000Y-53130800D01*
X107309000Y-50530800D02*
X104649000Y-50530800D01*
X104649000Y-50530800D02*
X104649000Y-47930800D01*
X107309000Y-50530800D02*
X107309000Y-47930800D01*
X107309000Y-47930800D02*
X104649000Y-47930800D01*
X104769000Y-53130800D02*
X103439000Y-53130800D01*
X104769000Y-51800800D02*
X104769000Y-53130800D01*
X104769000Y-50530800D02*
X102109000Y-50530800D01*
X102109000Y-50530800D02*
X102109000Y-47930800D01*
X104769000Y-50530800D02*
X104769000Y-47930800D01*
X104769000Y-47930800D02*
X102109000Y-47930800D01*
X89529000Y-53130800D02*
X88199000Y-53130800D01*
X89529000Y-51800800D02*
X89529000Y-53130800D01*
X89529000Y-50530800D02*
X86869000Y-50530800D01*
X86869000Y-50530800D02*
X86869000Y-47930800D01*
X89529000Y-50530800D02*
X89529000Y-47930800D01*
X89529000Y-47930800D02*
X86869000Y-47930800D01*
X86989000Y-53130800D02*
X85659000Y-53130800D01*
X86989000Y-51800800D02*
X86989000Y-53130800D01*
X86989000Y-50530800D02*
X84329000Y-50530800D01*
X84329000Y-50530800D02*
X84329000Y-47930800D01*
X86989000Y-50530800D02*
X86989000Y-47930800D01*
X86989000Y-47930800D02*
X84329000Y-47930800D01*
X104649000Y-37770800D02*
X105979000Y-37770800D01*
X104649000Y-39100800D02*
X104649000Y-37770800D01*
X104649000Y-40370800D02*
X107309000Y-40370800D01*
X107309000Y-40370800D02*
X107309000Y-42970800D01*
X104649000Y-40370800D02*
X104649000Y-42970800D01*
X104649000Y-42970800D02*
X107309000Y-42970800D01*
X102109000Y-37770800D02*
X103439000Y-37770800D01*
X102109000Y-39100800D02*
X102109000Y-37770800D01*
X102109000Y-40370800D02*
X104769000Y-40370800D01*
X104769000Y-40370800D02*
X104769000Y-42970800D01*
X102109000Y-40370800D02*
X102109000Y-42970800D01*
X102109000Y-42970800D02*
X104769000Y-42970800D01*
X86869000Y-37770800D02*
X88199000Y-37770800D01*
X86869000Y-39100800D02*
X86869000Y-37770800D01*
X86869000Y-40370800D02*
X89529000Y-40370800D01*
X89529000Y-40370800D02*
X89529000Y-42970800D01*
X86869000Y-40370800D02*
X86869000Y-42970800D01*
X86869000Y-42970800D02*
X89529000Y-42970800D01*
X84329000Y-37770800D02*
X85659000Y-37770800D01*
X84329000Y-39100800D02*
X84329000Y-37770800D01*
X84329000Y-40370800D02*
X86989000Y-40370800D01*
X86989000Y-40370800D02*
X86989000Y-42970800D01*
X84329000Y-40370800D02*
X84329000Y-42970800D01*
X84329000Y-42970800D02*
X86989000Y-42970800D01*
X112323000Y-51740800D02*
X112323000Y-53070800D01*
X110993000Y-51740800D02*
X112323000Y-51740800D01*
X109723000Y-51740800D02*
X109723000Y-54400800D01*
X109723000Y-54400800D02*
X107123000Y-54400800D01*
X109723000Y-51740800D02*
X107123000Y-51740800D01*
X107123000Y-51740800D02*
X107123000Y-54400800D01*
X112323000Y-49200800D02*
X112323000Y-50530800D01*
X110993000Y-49200800D02*
X112323000Y-49200800D01*
X109723000Y-49200800D02*
X109723000Y-51860800D01*
X109723000Y-51860800D02*
X107123000Y-51860800D01*
X109723000Y-49200800D02*
X107123000Y-49200800D01*
X107123000Y-49200800D02*
X107123000Y-51860800D01*
X112323000Y-46660800D02*
X112323000Y-47990800D01*
X110993000Y-46660800D02*
X112323000Y-46660800D01*
X109723000Y-46660800D02*
X109723000Y-49320800D01*
X109723000Y-49320800D02*
X107123000Y-49320800D01*
X109723000Y-46660800D02*
X107123000Y-46660800D01*
X107123000Y-46660800D02*
X107123000Y-49320800D01*
X112323000Y-44120800D02*
X112323000Y-45450800D01*
X110993000Y-44120800D02*
X112323000Y-44120800D01*
X109723000Y-44120800D02*
X109723000Y-46780800D01*
X109723000Y-46780800D02*
X107123000Y-46780800D01*
X109723000Y-44120800D02*
X107123000Y-44120800D01*
X107123000Y-44120800D02*
X107123000Y-46780800D01*
X112323000Y-41580800D02*
X112323000Y-42910800D01*
X110993000Y-41580800D02*
X112323000Y-41580800D01*
X109723000Y-41580800D02*
X109723000Y-44240800D01*
X109723000Y-44240800D02*
X107123000Y-44240800D01*
X109723000Y-41580800D02*
X107123000Y-41580800D01*
X107123000Y-41580800D02*
X107123000Y-44240800D01*
X112323000Y-39040800D02*
X112323000Y-40370800D01*
X110993000Y-39040800D02*
X112323000Y-39040800D01*
X109723000Y-39040800D02*
X109723000Y-41700800D01*
X109723000Y-41700800D02*
X107123000Y-41700800D01*
X109723000Y-39040800D02*
X107123000Y-39040800D01*
X107123000Y-39040800D02*
X107123000Y-41700800D01*
X112323000Y-36500800D02*
X112323000Y-37830800D01*
X110993000Y-36500800D02*
X112323000Y-36500800D01*
X109723000Y-36500800D02*
X109723000Y-39160800D01*
X109723000Y-39160800D02*
X107123000Y-39160800D01*
X109723000Y-36500800D02*
X107123000Y-36500800D01*
X107123000Y-36500800D02*
X107123000Y-39160800D01*
X79315000Y-54400800D02*
X79315000Y-53070800D01*
X80645000Y-54400800D02*
X79315000Y-54400800D01*
X81915000Y-54400800D02*
X81915000Y-51740800D01*
X81915000Y-51740800D02*
X84515000Y-51740800D01*
X81915000Y-54400800D02*
X84515000Y-54400800D01*
X84515000Y-54400800D02*
X84515000Y-51740800D01*
X79315000Y-51860800D02*
X79315000Y-50530800D01*
X80645000Y-51860800D02*
X79315000Y-51860800D01*
X81915000Y-51860800D02*
X81915000Y-49200800D01*
X81915000Y-49200800D02*
X84515000Y-49200800D01*
X81915000Y-51860800D02*
X84515000Y-51860800D01*
X84515000Y-51860800D02*
X84515000Y-49200800D01*
X79315000Y-49320800D02*
X79315000Y-47990800D01*
X80645000Y-49320800D02*
X79315000Y-49320800D01*
X81915000Y-49320800D02*
X81915000Y-46660800D01*
X81915000Y-46660800D02*
X84515000Y-46660800D01*
X81915000Y-49320800D02*
X84515000Y-49320800D01*
X84515000Y-49320800D02*
X84515000Y-46660800D01*
X79315000Y-46780800D02*
X79315000Y-45450800D01*
X80645000Y-46780800D02*
X79315000Y-46780800D01*
X81915000Y-46780800D02*
X81915000Y-44120800D01*
X81915000Y-44120800D02*
X84515000Y-44120800D01*
X81915000Y-46780800D02*
X84515000Y-46780800D01*
X84515000Y-46780800D02*
X84515000Y-44120800D01*
X79315000Y-44240800D02*
X79315000Y-42910800D01*
X80645000Y-44240800D02*
X79315000Y-44240800D01*
X81915000Y-44240800D02*
X81915000Y-41580800D01*
X81915000Y-41580800D02*
X84515000Y-41580800D01*
X81915000Y-44240800D02*
X84515000Y-44240800D01*
X84515000Y-44240800D02*
X84515000Y-41580800D01*
X79315000Y-41700800D02*
X79315000Y-40370800D01*
X80645000Y-41700800D02*
X79315000Y-41700800D01*
X81915000Y-41700800D02*
X81915000Y-39040800D01*
X81915000Y-39040800D02*
X84515000Y-39040800D01*
X81915000Y-41700800D02*
X84515000Y-41700800D01*
X84515000Y-41700800D02*
X84515000Y-39040800D01*
X79315000Y-39160800D02*
X79315000Y-37830800D01*
X80645000Y-39160800D02*
X79315000Y-39160800D01*
X81915000Y-39160800D02*
X81915000Y-36500800D01*
X81915000Y-36500800D02*
X84515000Y-36500800D01*
X81915000Y-39160800D02*
X84515000Y-39160800D01*
X84515000Y-39160800D02*
X84515000Y-36500800D01*
X84329000Y-48050800D02*
X84329000Y-46720800D01*
X85659000Y-48050800D02*
X84329000Y-48050800D01*
X86929000Y-48050800D02*
X86929000Y-45390800D01*
X86929000Y-45390800D02*
X107309000Y-45390800D01*
X86929000Y-48050800D02*
X107309000Y-48050800D01*
X107309000Y-48050800D02*
X107309000Y-45390800D01*
X84329000Y-45510800D02*
X84329000Y-44180800D01*
X85659000Y-45510800D02*
X84329000Y-45510800D01*
X86929000Y-45510800D02*
X86929000Y-42850800D01*
X86929000Y-42850800D02*
X107309000Y-42850800D01*
X86929000Y-45510800D02*
X107309000Y-45510800D01*
X107309000Y-45510800D02*
X107309000Y-42850800D01*
X119815800Y-58350800D02*
X119815800Y-56850800D01*
X118075800Y-58350800D02*
X119815800Y-58350800D01*
X112455800Y-32790800D02*
X119575800Y-32790800D01*
X112455800Y-58110800D02*
X119575800Y-58110800D01*
X119575800Y-58110800D02*
X119575800Y-32790800D01*
X112455800Y-58110800D02*
X112455800Y-32790800D01*
X118015800Y-58110800D02*
X118015800Y-32790800D01*
X117470800Y-34950800D02*
G75*
G03X117470800Y-34950800I-1555000J0D01*
G01*
X117470800Y-38450800D02*
G75*
G03X117470800Y-38450800I-1555000J0D01*
G01*
X117470800Y-41950800D02*
G75*
G03X117470800Y-41950800I-1555000J0D01*
G01*
X117470800Y-45450800D02*
G75*
G03X117470800Y-45450800I-1555000J0D01*
G01*
X117470800Y-48950800D02*
G75*
G03X117470800Y-48950800I-1555000J0D01*
G01*
X117470800Y-52450800D02*
G75*
G03X117470800Y-52450800I-1555000J0D01*
G01*
X117471292Y-55923789D02*
G75*
G02X117347800Y-56558800I-1555492J-27011D01*
G01*
X116523542Y-57382909D02*
G75*
G02X115307800Y-57382800I-607742J1432109D01*
G01*
X114483691Y-56558542D02*
G75*
G02X114483800Y-55342800I1432109J607742D01*
G01*
X115308058Y-54518691D02*
G75*
G02X116523800Y-54518800I607742J-1432109D01*
G01*
X117347185Y-55343213D02*
G75*
G02X117470800Y-55950800I-1431385J-607587D01*
G01*
X71822200Y-32550800D02*
X71822200Y-34050800D01*
X73562200Y-32550800D02*
X71822200Y-32550800D01*
X79182200Y-58110800D02*
X72062200Y-58110800D01*
X79182200Y-32790800D02*
X72062200Y-32790800D01*
X72062200Y-32790800D02*
X72062200Y-58110800D01*
X79182200Y-32790800D02*
X79182200Y-58110800D01*
X73622200Y-32790800D02*
X73622200Y-58110800D01*
X77277200Y-55950800D02*
G75*
G03X77277200Y-55950800I-1555000J0D01*
G01*
X77277200Y-52450800D02*
G75*
G03X77277200Y-52450800I-1555000J0D01*
G01*
X77277200Y-48950800D02*
G75*
G03X77277200Y-48950800I-1555000J0D01*
G01*
X77277200Y-45450800D02*
G75*
G03X77277200Y-45450800I-1555000J0D01*
G01*
X77277200Y-41950800D02*
G75*
G03X77277200Y-41950800I-1555000J0D01*
G01*
X77277200Y-38450800D02*
G75*
G03X77277200Y-38450800I-1555000J0D01*
G01*
X74166708Y-34977811D02*
G75*
G02X74290200Y-34342800I1555492J27011D01*
G01*
X75114458Y-33518691D02*
G75*
G02X76330200Y-33518800I607742J-1432109D01*
G01*
X77154309Y-34343058D02*
G75*
G02X77154200Y-35558800I-1432109J-607742D01*
G01*
X76329942Y-36382909D02*
G75*
G02X75114200Y-36382800I-607742J1432109D01*
G01*
X74290815Y-35558387D02*
G75*
G02X74167200Y-34950800I1431385J607587D01*
G01*
M02*
