  0
SECTION
  2
HEADER
  9
$ACADVER
  1
AC1014
  9
$HANDSEED
  5
FFFF
  9
$MEASUREMENT
 70
     1
  0
ENDSEC
  0
SECTION
  2
TABLES
  0
TABLE
  2
VPORT
  5
8
330
0
100
AcDbSymbolTable
 70
     4
  0
VPORT
  5
2E
330
8
100
AcDbSymbolTableRecord
100
AcDbViewportTableRecord
  2
*ACTIVE
 70
     0
 10
0.0
 20
0.0
 11
1.0
 21
1.0
 12
210.0
 22
148.5
 13
0.0
 23
0.0
 14
10.0
 24
10.0
 15
10.0
 25
10.0
 16
0.0
 26
0.0
 36
1.0
 17
0.0
 27
0.0
 37
0.0
 40
341.0
 41
1.24
 42
50.0
 43
0.0
 44
0.0
 50
0.0
 51
0.0
 71
     0
 72
   100
 73
     1
 74
     3
 75
     0
 76
     0
 77
     0
 78
     0
  0
ENDTAB
  0
TABLE
  2
LTYPE
  5
5
330
0
100
AcDbSymbolTable
 70
     1
  0
LTYPE
  5
14
330
5
100
AcDbSymbolTableRecord
100
AcDbLinetypeTableRecord
  2
BYBLOCK
 70
     0
  3

 72
    65
 73
     0
 40
0.0
  0
LTYPE
  5
15
330
5
100
AcDbSymbolTableRecord
100
AcDbLinetypeTableRecord
  2
BYLAYER
 70
     0
  3

 72
    65
 73
     0
 40
0.0
  0
LTYPE
  5
16
330
5
100
AcDbSymbolTableRecord
100
AcDbLinetypeTableRecord
  2
CONTINUOUS
 70
     0
  3
Solid line
 72
    65
 73
     0
 40
0.0
  0
ENDTAB
  0
TABLE
  2
LAYER
  5
2
100
AcDbSymbolTable
 70
1
  0
LAYER
  5
50
100
AcDbSymbolTableRecord
100
AcDbLayerTableRecord
  2
0
 70
0
  6
CONTINUOUS
  0
ENDTAB
  0
TABLE
  2
STYLE
  5
3
330
0
100
AcDbSymbolTable
 70
     1
  0
STYLE
  5
11
330
3
100
AcDbSymbolTableRecord
100
AcDbTextStyleTableRecord
  2
STANDARD
 70
     0
 40
0.0
 41
1.0
 50
0.0
 71
     0
 42
2.5
  3
txt
  4

  0
ENDTAB
  0
TABLE
  2
VIEW
  5
6
330
0
100
AcDbSymbolTable
 70
     0
  0
ENDTAB
  0
TABLE
  2
UCS
  5
7
330
0
100
AcDbSymbolTable
 70
     0
  0
ENDTAB
  0
TABLE
  2
APPID
  5
9
330
0
100
AcDbSymbolTable
 70
     2
  0
APPID
  5
12
330
9
100
AcDbSymbolTableRecord
100
AcDbRegAppTableRecord
  2
ACAD
 70
     0
  0
ENDTAB
  0
TABLE
  2
DIMSTYLE
  5
A
330
0
100
AcDbSymbolTable
 70
     1
  0
DIMSTYLE
105
27
330
A
100
AcDbSymbolTableRecord
100
AcDbDimStyleTableRecord
  2
ISO-25
 70
     0
  3

  4

  5

  6

  7

 40
1.0
 41
2.5
 42
0.625
 43
3.75
 44
1.25
 45
0.0
 46
0.0
 47
0.0
 48
0.0
140
2.5
141
2.5
142
0.0
143
0.03937007874016
144
1.0
145
0.0
146
1.0
147
0.625
 71
     0
 72
     0
 73
     0
 74
     0
 75
     0
 76
     0
 77
     1
 78
     8
170
     0
171
     3
172
     1
173
     0
174
     0
175
     0
176
     0
177
     0
178
     0
270
     2
271
     2
272
     2
273
     2
274
     3
340
11
275
     0
280
     0
281
     0
282
     0
283
     0
284
     8
285
     0
286
     0
287
     3
288
     0
  0
ENDTAB
  0
TABLE
  2
BLOCK_RECORD
  5
1
330
0
100
AcDbSymbolTable
 70
     1
  0
BLOCK_RECORD
  5
1F
330
1
100
AcDbSymbolTableRecord
100
AcDbBlockTableRecord
  2
*MODEL_SPACE
  0
BLOCK_RECORD
  5
1B
330
1
100
AcDbSymbolTableRecord
100
AcDbBlockTableRecord
  2
*PAPER_SPACE
  0
ENDTAB
  0
ENDSEC
  0
SECTION
  2
BLOCKS
  0
BLOCK
  5
20
330
1F
100
AcDbEntity
  8
0
100
AcDbBlockBegin
  2
*MODEL_SPACE
 70
     0
 10
0.0
 20
0.0
 30
0.0
  3
*MODEL_SPACE
  1

  0
ENDBLK
  5
21
330
1F
100
AcDbEntity
  8
0
100
AcDbBlockEnd
  0
BLOCK
  5
1C
330
1B
100
AcDbEntity
 67
     1
  8
0
100
AcDbBlockBegin
  2
*PAPER_SPACE
  1

  0
ENDBLK
  5
1D
330
1B
100
AcDbEntity
 67
     1
  8
0
100
AcDbBlockEnd
  0
ENDSEC
  0
SECTION
  2
ENTITIES
  0
SPLINE
  5
100
100
AcDbEntity
  8
0
 62
7
100
AcDbSpline
 70
8
 71
3
 72
8
 73
4
 74
0
 40
0
 40
0
 40
0
 40
0
 40
1
 40
1
 40
1
 40
1
 10
12.957105
 20
-22.909316
 30
0.0
 10
23.984199
 20
-22.909316
 30
0.0
 10
32.923424
 20
-13.970091
 30
0.0
 10
32.923424
 20
-2.942997
 30
0.0
  0
LWPOLYLINE
  5
101
100
AcDbEntity
  8
0
 62
7
100
AcDbPolyline
 90
2
 70
0
 10
32.922525
 20
-2.940946
 30
0.0
 10
172.686014
 20
-2.940946
 30
0.0
  0
SPLINE
  5
102
100
AcDbEntity
  8
0
 62
7
100
AcDbSpline
 70
8
 71
3
 72
8
 73
4
 74
0
 40
0
 40
0
 40
0
 40
0
 40
1
 40
1
 40
1
 40
1
 10
172.687655
 20
-2.942997
 30
0.0
 10
172.687655
 20
-8.238394
 30
0.0
 10
174.791243
 20
-13.316906
 30
0.0
 10
178.535654
 20
-17.061317
 30
0.0
  0
SPLINE
  5
103
100
AcDbEntity
  8
0
 62
7
100
AcDbSpline
 70
8
 71
3
 72
8
 73
4
 74
0
 40
0
 40
0
 40
0
 40
0
 40
1
 40
1
 40
1
 40
1
 10
178.535654
 20
-17.061317
 30
0.0
 10
182.280065
 20
-20.805728
 30
0.0
 10
187.358577
 20
-22.909316
 30
0.0
 10
192.653974
 20
-22.909316
 30
0.0
  0
SPLINE
  5
104
100
AcDbEntity
  8
0
 62
7
100
AcDbSpline
 70
8
 71
3
 72
8
 73
4
 74
0
 40
0
 40
0
 40
0
 40
0
 40
1
 40
1
 40
1
 40
1
 10
192.653974
 20
-98.781326
 30
0.0
 10
187.358577
 20
-98.781326
 30
0.0
 10
182.280065
 20
-100.884914
 30
0.0
 10
178.535654
 20
-104.629325
 30
0.0
  0
SPLINE
  5
105
100
AcDbEntity
  8
0
 62
7
100
AcDbSpline
 70
8
 71
3
 72
8
 73
4
 74
0
 40
0
 40
0
 40
0
 40
0
 40
1
 40
1
 40
1
 40
1
 10
178.535654
 20
-104.629325
 30
0.0
 10
174.791243
 20
-108.373736
 30
0.0
 10
172.687655
 20
-113.452248
 30
0.0
 10
172.687655
 20
-118.747645
 30
0.0
  0
SPLINE
  5
106
100
AcDbEntity
  8
0
 62
7
100
AcDbSpline
 70
8
 71
3
 72
8
 73
4
 74
0
 40
0
 40
0
 40
0
 40
0
 40
1
 40
1
 40
1
 40
1
 10
32.923424
 20
-118.747645
 30
0.0
 10
32.923424
 20
-107.720551
 30
0.0
 10
23.984199
 20
-98.781326
 30
0.0
 10
12.957105
 20
-98.781326
 30
0.0
  0
LWPOLYLINE
  5
107
100
AcDbEntity
  8
0
 62
7
100
AcDbPolyline
 90
2
 70
0
 10
172.686014
 20
-118.747157
 30
0.0
 10
32.922525
 20
-118.747157
 30
0.0
  0
LWPOLYLINE
  5
108
100
AcDbEntity
  8
0
 62
7
100
AcDbPolyline
 90
2
 70
0
 10
192.652953
 20
-22.907884
 30
0.0
 10
192.652953
 20
-98.780219
 30
0.0
  0
SPLINE
  5
109
100
AcDbEntity
  8
0
 62
7
100
AcDbSpline
 70
8
 71
3
 72
8
 73
4
 74
0
 40
0
 40
0
 40
0
 40
0
 40
1
 40
1
 40
1
 40
1
 10
43.289254
 20
-111.558841
 30
0.0
 10
43.289254
 20
-112.038376
 30
0.0
 10
43.033425
 20
-112.481486
 30
0.0
 10
42.618134
 20
-112.721253
 30
0.0
  0
SPLINE
  5
10a
100
AcDbEntity
  8
0
 62
7
100
AcDbSpline
 70
8
 71
3
 72
8
 73
4
 74
0
 40
0
 40
0
 40
0
 40
0
 40
1
 40
1
 40
1
 40
1
 10
42.618134
 20
-112.721253
 30
0.0
 10
42.202844
 20
-112.961021
 30
0.0
 10
41.691185
 20
-112.961021
 30
0.0
 10
41.275895
 20
-112.721253
 30
0.0
  0
SPLINE
  5
10b
100
AcDbEntity
  8
0
 62
7
100
AcDbSpline
 70
8
 71
3
 72
8
 73
4
 74
0
 40
0
 40
0
 40
0
 40
0
 40
1
 40
1
 40
1
 40
1
 10
41.275895
 20
-112.721253
 30
0.0
 10
40.860605
 20
-112.481486
 30
0.0
 10
40.604776
 20
-112.038376
 30
0.0
 10
40.604776
 20
-111.558841
 30
0.0
  0
SPLINE
  5
10c
100
AcDbEntity
  8
0
 62
7
100
AcDbSpline
 70
8
 71
3
 72
8
 73
4
 74
0
 40
0
 40
0
 40
0
 40
0
 40
1
 40
1
 40
1
 40
1
 10
40.604776
 20
-111.558841
 30
0.0
 10
40.604776
 20
-111.079305
 30
0.0
 10
40.860605
 20
-110.636196
 30
0.0
 10
41.275895
 20
-110.396429
 30
0.0
  0
SPLINE
  5
10d
100
AcDbEntity
  8
0
 62
7
100
AcDbSpline
 70
8
 71
3
 72
8
 73
4
 74
0
 40
0
 40
0
 40
0
 40
0
 40
1
 40
1
 40
1
 40
1
 10
41.275895
 20
-110.396429
 30
0.0
 10
41.691185
 20
-110.156661
 30
0.0
 10
42.202844
 20
-110.156661
 30
0.0
 10
42.618134
 20
-110.396429
 30
0.0
  0
SPLINE
  5
10e
100
AcDbEntity
  8
0
 62
7
100
AcDbSpline
 70
8
 71
3
 72
8
 73
4
 74
0
 40
0
 40
0
 40
0
 40
0
 40
1
 40
1
 40
1
 40
1
 10
42.618134
 20
-110.396429
 30
0.0
 10
43.033425
 20
-110.636196
 30
0.0
 10
43.289254
 20
-111.079305
 30
0.0
 10
43.289254
 20
-111.558841
 30
0.0
  0
LWPOLYLINE
  5
10f
100
AcDbEntity
  8
0
 62
7
100
AcDbPolyline
 90
2
 70
0
 10
12.955586
 20
-22.907884
 30
0.0
 10
12.955586
 20
-98.780219
 30
0.0
  0
SPLINE
  5
110
100
AcDbEntity
  8
0
 62
7
100
AcDbSpline
 70
8
 71
3
 72
8
 73
4
 74
0
 40
0
 40
0
 40
0
 40
0
 40
1
 40
1
 40
1
 40
1
 10
59.222673
 20
-106.765861
 30
0.0
 10
59.222673
 20
-107.245397
 30
0.0
 10
58.966843
 20
-107.688506
 30
0.0
 10
58.551553
 20
-107.928274
 30
0.0
  0
SPLINE
  5
111
100
AcDbEntity
  8
0
 62
7
100
AcDbSpline
 70
8
 71
3
 72
8
 73
4
 74
0
 40
0
 40
0
 40
0
 40
0
 40
1
 40
1
 40
1
 40
1
 10
58.551553
 20
-107.928274
 30
0.0
 10
58.136263
 20
-108.168041
 30
0.0
 10
57.624604
 20
-108.168041
 30
0.0
 10
57.209314
 20
-107.928274
 30
0.0
  0
SPLINE
  5
112
100
AcDbEntity
  8
0
 62
7
100
AcDbSpline
 70
8
 71
3
 72
8
 73
4
 74
0
 40
0
 40
0
 40
0
 40
0
 40
1
 40
1
 40
1
 40
1
 10
57.209314
 20
-107.928274
 30
0.0
 10
56.794024
 20
-107.688506
 30
0.0
 10
56.538194
 20
-107.245397
 30
0.0
 10
56.538194
 20
-106.765861
 30
0.0
  0
SPLINE
  5
113
100
AcDbEntity
  8
0
 62
7
100
AcDbSpline
 70
8
 71
3
 72
8
 73
4
 74
0
 40
0
 40
0
 40
0
 40
0
 40
1
 40
1
 40
1
 40
1
 10
56.538194
 20
-106.765861
 30
0.0
 10
56.538194
 20
-106.286326
 30
0.0
 10
56.794024
 20
-105.843217
 30
0.0
 10
57.209314
 20
-105.603449
 30
0.0
  0
SPLINE
  5
114
100
AcDbEntity
  8
0
 62
7
100
AcDbSpline
 70
8
 71
3
 72
8
 73
4
 74
0
 40
0
 40
0
 40
0
 40
0
 40
1
 40
1
 40
1
 40
1
 10
57.209314
 20
-105.603449
 30
0.0
 10
57.624604
 20
-105.363681
 30
0.0
 10
58.136263
 20
-105.363681
 30
0.0
 10
58.551553
 20
-105.603449
 30
0.0
  0
SPLINE
  5
115
100
AcDbEntity
  8
0
 62
7
100
AcDbSpline
 70
8
 71
3
 72
8
 73
4
 74
0
 40
0
 40
0
 40
0
 40
0
 40
1
 40
1
 40
1
 40
1
 10
58.551553
 20
-105.603449
 30
0.0
 10
58.966843
 20
-105.843217
 30
0.0
 10
59.222673
 20
-106.286326
 30
0.0
 10
59.222673
 20
-106.765861
 30
0.0
  0
LWPOLYLINE
  5
116
100
AcDbEntity
  8
0
 62
7
100
AcDbPolyline
 90
1
 70
1
 10
43.289254
 20
-111.558841
 30
0.0
  0
SPLINE
  5
117
100
AcDbEntity
  8
0
 62
7
100
AcDbSpline
 70
8
 71
3
 72
8
 73
4
 74
0
 40
0
 40
0
 40
0
 40
0
 40
1
 40
1
 40
1
 40
1
 10
83.860671
 20
-111.558841
 30
0.0
 10
83.860671
 20
-112.038376
 30
0.0
 10
83.604841
 20
-112.481486
 30
0.0
 10
83.189551
 20
-112.721253
 30
0.0
  0
SPLINE
  5
118
100
AcDbEntity
  8
0
 62
7
100
AcDbSpline
 70
8
 71
3
 72
8
 73
4
 74
0
 40
0
 40
0
 40
0
 40
0
 40
1
 40
1
 40
1
 40
1
 10
83.189551
 20
-112.721253
 30
0.0
 10
82.774261
 20
-112.961021
 30
0.0
 10
82.262602
 20
-112.961021
 30
0.0
 10
81.847312
 20
-112.721253
 30
0.0
  0
SPLINE
  5
119
100
AcDbEntity
  8
0
 62
7
100
AcDbSpline
 70
8
 71
3
 72
8
 73
4
 74
0
 40
0
 40
0
 40
0
 40
0
 40
1
 40
1
 40
1
 40
1
 10
81.847312
 20
-112.721253
 30
0.0
 10
81.432022
 20
-112.481486
 30
0.0
 10
81.176192
 20
-112.038376
 30
0.0
 10
81.176192
 20
-111.558841
 30
0.0
  0
SPLINE
  5
11a
100
AcDbEntity
  8
0
 62
7
100
AcDbSpline
 70
8
 71
3
 72
8
 73
4
 74
0
 40
0
 40
0
 40
0
 40
0
 40
1
 40
1
 40
1
 40
1
 10
81.176192
 20
-111.558841
 30
0.0
 10
81.176192
 20
-111.079305
 30
0.0
 10
81.432022
 20
-110.636196
 30
0.0
 10
81.847312
 20
-110.396429
 30
0.0
  0
SPLINE
  5
11b
100
AcDbEntity
  8
0
 62
7
100
AcDbSpline
 70
8
 71
3
 72
8
 73
4
 74
0
 40
0
 40
0
 40
0
 40
0
 40
1
 40
1
 40
1
 40
1
 10
81.847312
 20
-110.396429
 30
0.0
 10
82.262602
 20
-110.156661
 30
0.0
 10
82.774261
 20
-110.156661
 30
0.0
 10
83.189551
 20
-110.396429
 30
0.0
  0
SPLINE
  5
11c
100
AcDbEntity
  8
0
 62
7
100
AcDbSpline
 70
8
 71
3
 72
8
 73
4
 74
0
 40
0
 40
0
 40
0
 40
0
 40
1
 40
1
 40
1
 40
1
 10
83.189551
 20
-110.396429
 30
0.0
 10
83.604841
 20
-110.636196
 30
0.0
 10
83.860671
 20
-111.079305
 30
0.0
 10
83.860671
 20
-111.558841
 30
0.0
  0
LWPOLYLINE
  5
11d
100
AcDbEntity
  8
0
 62
7
100
AcDbPolyline
 90
1
 70
1
 10
59.222673
 20
-106.765861
 30
0.0
  0
SPLINE
  5
11e
100
AcDbEntity
  8
0
 62
7
100
AcDbSpline
 70
8
 71
3
 72
8
 73
4
 74
0
 40
0
 40
0
 40
0
 40
0
 40
1
 40
1
 40
1
 40
1
 10
104.146379
 20
-111.558841
 30
0.0
 10
104.146379
 20
-112.038376
 30
0.0
 10
103.890550
 20
-112.481486
 30
0.0
 10
103.475260
 20
-112.721253
 30
0.0
  0
SPLINE
  5
11f
100
AcDbEntity
  8
0
 62
7
100
AcDbSpline
 70
8
 71
3
 72
8
 73
4
 74
0
 40
0
 40
0
 40
0
 40
0
 40
1
 40
1
 40
1
 40
1
 10
103.475260
 20
-112.721253
 30
0.0
 10
103.059969
 20
-112.961021
 30
0.0
 10
102.548311
 20
-112.961021
 30
0.0
 10
102.133020
 20
-112.721253
 30
0.0
  0
SPLINE
  5
120
100
AcDbEntity
  8
0
 62
7
100
AcDbSpline
 70
8
 71
3
 72
8
 73
4
 74
0
 40
0
 40
0
 40
0
 40
0
 40
1
 40
1
 40
1
 40
1
 10
102.133020
 20
-112.721253
 30
0.0
 10
101.717730
 20
-112.481486
 30
0.0
 10
101.461901
 20
-112.038376
 30
0.0
 10
101.461901
 20
-111.558841
 30
0.0
  0
SPLINE
  5
121
100
AcDbEntity
  8
0
 62
7
100
AcDbSpline
 70
8
 71
3
 72
8
 73
4
 74
0
 40
0
 40
0
 40
0
 40
0
 40
1
 40
1
 40
1
 40
1
 10
101.461901
 20
-111.558841
 30
0.0
 10
101.461901
 20
-111.079305
 30
0.0
 10
101.717730
 20
-110.636196
 30
0.0
 10
102.133020
 20
-110.396429
 30
0.0
  0
SPLINE
  5
122
100
AcDbEntity
  8
0
 62
7
100
AcDbSpline
 70
8
 71
3
 72
8
 73
4
 74
0
 40
0
 40
0
 40
0
 40
0
 40
1
 40
1
 40
1
 40
1
 10
102.133020
 20
-110.396429
 30
0.0
 10
102.548311
 20
-110.156661
 30
0.0
 10
103.059969
 20
-110.156661
 30
0.0
 10
103.475260
 20
-110.396429
 30
0.0
  0
SPLINE
  5
123
100
AcDbEntity
  8
0
 62
7
100
AcDbSpline
 70
8
 71
3
 72
8
 73
4
 74
0
 40
0
 40
0
 40
0
 40
0
 40
1
 40
1
 40
1
 40
1
 10
103.475260
 20
-110.396429
 30
0.0
 10
103.890550
 20
-110.636196
 30
0.0
 10
104.146379
 20
-111.079305
 30
0.0
 10
104.146379
 20
-111.558841
 30
0.0
  0
LWPOLYLINE
  5
124
100
AcDbEntity
  8
0
 62
7
100
AcDbPolyline
 90
1
 70
1
 10
83.860671
 20
-111.558841
 30
0.0
  0
SPLINE
  5
125
100
AcDbEntity
  8
0
 62
7
100
AcDbSpline
 70
8
 71
3
 72
8
 73
4
 74
0
 40
0
 40
0
 40
0
 40
0
 40
1
 40
1
 40
1
 40
1
 10
124.432088
 20
-111.558841
 30
0.0
 10
124.432088
 20
-112.038376
 30
0.0
 10
124.176258
 20
-112.481486
 30
0.0
 10
123.760968
 20
-112.721253
 30
0.0
  0
SPLINE
  5
126
100
AcDbEntity
  8
0
 62
7
100
AcDbSpline
 70
8
 71
3
 72
8
 73
4
 74
0
 40
0
 40
0
 40
0
 40
0
 40
1
 40
1
 40
1
 40
1
 10
123.760968
 20
-112.721253
 30
0.0
 10
123.345678
 20
-112.961021
 30
0.0
 10
122.834019
 20
-112.961021
 30
0.0
 10
122.418729
 20
-112.721253
 30
0.0
  0
SPLINE
  5
127
100
AcDbEntity
  8
0
 62
7
100
AcDbSpline
 70
8
 71
3
 72
8
 73
4
 74
0
 40
0
 40
0
 40
0
 40
0
 40
1
 40
1
 40
1
 40
1
 10
122.418729
 20
-112.721253
 30
0.0
 10
122.003439
 20
-112.481486
 30
0.0
 10
121.747609
 20
-112.038376
 30
0.0
 10
121.747609
 20
-111.558841
 30
0.0
  0
SPLINE
  5
128
100
AcDbEntity
  8
0
 62
7
100
AcDbSpline
 70
8
 71
3
 72
8
 73
4
 74
0
 40
0
 40
0
 40
0
 40
0
 40
1
 40
1
 40
1
 40
1
 10
121.747609
 20
-111.558841
 30
0.0
 10
121.747609
 20
-111.079305
 30
0.0
 10
122.003439
 20
-110.636196
 30
0.0
 10
122.418729
 20
-110.396429
 30
0.0
  0
SPLINE
  5
129
100
AcDbEntity
  8
0
 62
7
100
AcDbSpline
 70
8
 71
3
 72
8
 73
4
 74
0
 40
0
 40
0
 40
0
 40
0
 40
1
 40
1
 40
1
 40
1
 10
122.418729
 20
-110.396429
 30
0.0
 10
122.834019
 20
-110.156661
 30
0.0
 10
123.345678
 20
-110.156661
 30
0.0
 10
123.760968
 20
-110.396429
 30
0.0
  0
SPLINE
  5
12a
100
AcDbEntity
  8
0
 62
7
100
AcDbSpline
 70
8
 71
3
 72
8
 73
4
 74
0
 40
0
 40
0
 40
0
 40
0
 40
1
 40
1
 40
1
 40
1
 10
123.760968
 20
-110.396429
 30
0.0
 10
124.176258
 20
-110.636196
 30
0.0
 10
124.432088
 20
-111.079305
 30
0.0
 10
124.432088
 20
-111.558841
 30
0.0
  0
LWPOLYLINE
  5
12b
100
AcDbEntity
  8
0
 62
7
100
AcDbPolyline
 90
1
 70
1
 10
104.146379
 20
-111.558841
 30
0.0
  0
SPLINE
  5
12c
100
AcDbEntity
  8
0
 62
7
100
AcDbSpline
 70
8
 71
3
 72
8
 73
4
 74
0
 40
0
 40
0
 40
0
 40
0
 40
1
 40
1
 40
1
 40
1
 10
149.070086
 20
-106.765861
 30
0.0
 10
149.070086
 20
-107.245397
 30
0.0
 10
148.814256
 20
-107.688506
 30
0.0
 10
148.398966
 20
-107.928274
 30
0.0
  0
SPLINE
  5
12d
100
AcDbEntity
  8
0
 62
7
100
AcDbSpline
 70
8
 71
3
 72
8
 73
4
 74
0
 40
0
 40
0
 40
0
 40
0
 40
1
 40
1
 40
1
 40
1
 10
148.398966
 20
-107.928274
 30
0.0
 10
147.983676
 20
-108.168041
 30
0.0
 10
147.472017
 20
-108.168041
 30
0.0
 10
147.056727
 20
-107.928274
 30
0.0
  0
SPLINE
  5
12e
100
AcDbEntity
  8
0
 62
7
100
AcDbSpline
 70
8
 71
3
 72
8
 73
4
 74
0
 40
0
 40
0
 40
0
 40
0
 40
1
 40
1
 40
1
 40
1
 10
147.056727
 20
-107.928274
 30
0.0
 10
146.641437
 20
-107.688506
 30
0.0
 10
146.385607
 20
-107.245397
 30
0.0
 10
146.385607
 20
-106.765861
 30
0.0
  0
SPLINE
  5
12f
100
AcDbEntity
  8
0
 62
7
100
AcDbSpline
 70
8
 71
3
 72
8
 73
4
 74
0
 40
0
 40
0
 40
0
 40
0
 40
1
 40
1
 40
1
 40
1
 10
146.385607
 20
-106.765861
 30
0.0
 10
146.385607
 20
-106.286326
 30
0.0
 10
146.641437
 20
-105.843217
 30
0.0
 10
147.056727
 20
-105.603449
 30
0.0
  0
SPLINE
  5
130
100
AcDbEntity
  8
0
 62
7
100
AcDbSpline
 70
8
 71
3
 72
8
 73
4
 74
0
 40
0
 40
0
 40
0
 40
0
 40
1
 40
1
 40
1
 40
1
 10
147.056727
 20
-105.603449
 30
0.0
 10
147.472017
 20
-105.363681
 30
0.0
 10
147.983676
 20
-105.363681
 30
0.0
 10
148.398966
 20
-105.603449
 30
0.0
  0
SPLINE
  5
131
100
AcDbEntity
  8
0
 62
7
100
AcDbSpline
 70
8
 71
3
 72
8
 73
4
 74
0
 40
0
 40
0
 40
0
 40
0
 40
1
 40
1
 40
1
 40
1
 10
148.398966
 20
-105.603449
 30
0.0
 10
148.814256
 20
-105.843217
 30
0.0
 10
149.070086
 20
-106.286326
 30
0.0
 10
149.070086
 20
-106.765861
 30
0.0
  0
LWPOLYLINE
  5
132
100
AcDbEntity
  8
0
 62
7
100
AcDbPolyline
 90
1
 70
1
 10
124.432088
 20
-111.558841
 30
0.0
  0
SPLINE
  5
133
100
AcDbEntity
  8
0
 62
7
100
AcDbSpline
 70
8
 71
3
 72
8
 73
4
 74
0
 40
0
 40
0
 40
0
 40
0
 40
1
 40
1
 40
1
 40
1
 10
165.003504
 20
-111.558841
 30
0.0
 10
165.003504
 20
-112.038376
 30
0.0
 10
164.747675
 20
-112.481486
 30
0.0
 10
164.332385
 20
-112.721253
 30
0.0
  0
SPLINE
  5
134
100
AcDbEntity
  8
0
 62
7
100
AcDbSpline
 70
8
 71
3
 72
8
 73
4
 74
0
 40
0
 40
0
 40
0
 40
0
 40
1
 40
1
 40
1
 40
1
 10
164.332385
 20
-112.721253
 30
0.0
 10
163.917095
 20
-112.961021
 30
0.0
 10
163.405436
 20
-112.961021
 30
0.0
 10
162.990146
 20
-112.721253
 30
0.0
  0
SPLINE
  5
135
100
AcDbEntity
  8
0
 62
7
100
AcDbSpline
 70
8
 71
3
 72
8
 73
4
 74
0
 40
0
 40
0
 40
0
 40
0
 40
1
 40
1
 40
1
 40
1
 10
162.990146
 20
-112.721253
 30
0.0
 10
162.574855
 20
-112.481486
 30
0.0
 10
162.319026
 20
-112.038376
 30
0.0
 10
162.319026
 20
-111.558841
 30
0.0
  0
SPLINE
  5
136
100
AcDbEntity
  8
0
 62
7
100
AcDbSpline
 70
8
 71
3
 72
8
 73
4
 74
0
 40
0
 40
0
 40
0
 40
0
 40
1
 40
1
 40
1
 40
1
 10
162.319026
 20
-111.558841
 30
0.0
 10
162.319026
 20
-111.079305
 30
0.0
 10
162.574855
 20
-110.636196
 30
0.0
 10
162.990146
 20
-110.396429
 30
0.0
  0
SPLINE
  5
137
100
AcDbEntity
  8
0
 62
7
100
AcDbSpline
 70
8
 71
3
 72
8
 73
4
 74
0
 40
0
 40
0
 40
0
 40
0
 40
1
 40
1
 40
1
 40
1
 10
162.990146
 20
-110.396429
 30
0.0
 10
163.405436
 20
-110.156661
 30
0.0
 10
163.917095
 20
-110.156661
 30
0.0
 10
164.332385
 20
-110.396429
 30
0.0
  0
SPLINE
  5
138
100
AcDbEntity
  8
0
 62
7
100
AcDbSpline
 70
8
 71
3
 72
8
 73
4
 74
0
 40
0
 40
0
 40
0
 40
0
 40
1
 40
1
 40
1
 40
1
 10
164.332385
 20
-110.396429
 30
0.0
 10
164.747675
 20
-110.636196
 30
0.0
 10
165.003504
 20
-111.079305
 30
0.0
 10
165.003504
 20
-111.558841
 30
0.0
  0
LWPOLYLINE
  5
139
100
AcDbEntity
  8
0
 62
7
100
AcDbPolyline
 90
1
 70
1
 10
149.070086
 20
-106.765861
 30
0.0
  0
SPLINE
  5
13a
100
AcDbEntity
  8
0
 62
7
100
AcDbSpline
 70
8
 71
3
 72
8
 73
4
 74
0
 40
0
 40
0
 40
0
 40
0
 40
1
 40
1
 40
1
 40
1
 10
23.003546
 20
-91.271863
 30
0.0
 10
23.003546
 20
-91.751398
 30
0.0
 10
22.747717
 20
-92.194507
 30
0.0
 10
22.332426
 20
-92.434275
 30
0.0
  0
SPLINE
  5
13b
100
AcDbEntity
  8
0
 62
7
100
AcDbSpline
 70
8
 71
3
 72
8
 73
4
 74
0
 40
0
 40
0
 40
0
 40
0
 40
1
 40
1
 40
1
 40
1
 10
22.332426
 20
-92.434275
 30
0.0
 10
21.917136
 20
-92.674043
 30
0.0
 10
21.405477
 20
-92.674043
 30
0.0
 10
20.990187
 20
-92.434275
 30
0.0
  0
SPLINE
  5
13c
100
AcDbEntity
  8
0
 62
7
100
AcDbSpline
 70
8
 71
3
 72
8
 73
4
 74
0
 40
0
 40
0
 40
0
 40
0
 40
1
 40
1
 40
1
 40
1
 10
20.990187
 20
-92.434275
 30
0.0
 10
20.574897
 20
-92.194507
 30
0.0
 10
20.319068
 20
-91.751398
 30
0.0
 10
20.319068
 20
-91.271863
 30
0.0
  0
SPLINE
  5
13d
100
AcDbEntity
  8
0
 62
7
100
AcDbSpline
 70
8
 71
3
 72
8
 73
4
 74
0
 40
0
 40
0
 40
0
 40
0
 40
1
 40
1
 40
1
 40
1
 10
20.319068
 20
-91.271863
 30
0.0
 10
20.319068
 20
-90.792327
 30
0.0
 10
20.574897
 20
-90.349218
 30
0.0
 10
20.990187
 20
-90.109450
 30
0.0
  0
SPLINE
  5
13e
100
AcDbEntity
  8
0
 62
7
100
AcDbSpline
 70
8
 71
3
 72
8
 73
4
 74
0
 40
0
 40
0
 40
0
 40
0
 40
1
 40
1
 40
1
 40
1
 10
20.990187
 20
-90.109450
 30
0.0
 10
21.405477
 20
-89.869682
 30
0.0
 10
21.917136
 20
-89.869682
 30
0.0
 10
22.332426
 20
-90.109450
 30
0.0
  0
SPLINE
  5
13f
100
AcDbEntity
  8
0
 62
7
100
AcDbSpline
 70
8
 71
3
 72
8
 73
4
 74
0
 40
0
 40
0
 40
0
 40
0
 40
1
 40
1
 40
1
 40
1
 10
22.332426
 20
-90.109450
 30
0.0
 10
22.747717
 20
-90.349218
 30
0.0
 10
23.003546
 20
-90.792327
 30
0.0
 10
23.003546
 20
-91.271863
 30
0.0
  0
LWPOLYLINE
  5
140
100
AcDbEntity
  8
0
 62
7
100
AcDbPolyline
 90
1
 70
1
 10
165.003504
 20
-111.558841
 30
0.0
  0
SPLINE
  5
141
100
AcDbEntity
  8
0
 62
7
100
AcDbSpline
 70
8
 71
3
 72
8
 73
4
 74
0
 40
0
 40
0
 40
0
 40
0
 40
1
 40
1
 40
1
 40
1
 10
43.289254
 20
-91.271863
 30
0.0
 10
43.289254
 20
-91.751398
 30
0.0
 10
43.033425
 20
-92.194507
 30
0.0
 10
42.618134
 20
-92.434275
 30
0.0
  0
SPLINE
  5
142
100
AcDbEntity
  8
0
 62
7
100
AcDbSpline
 70
8
 71
3
 72
8
 73
4
 74
0
 40
0
 40
0
 40
0
 40
0
 40
1
 40
1
 40
1
 40
1
 10
42.618134
 20
-92.434275
 30
0.0
 10
42.202844
 20
-92.674043
 30
0.0
 10
41.691185
 20
-92.674043
 30
0.0
 10
41.275895
 20
-92.434275
 30
0.0
  0
SPLINE
  5
143
100
AcDbEntity
  8
0
 62
7
100
AcDbSpline
 70
8
 71
3
 72
8
 73
4
 74
0
 40
0
 40
0
 40
0
 40
0
 40
1
 40
1
 40
1
 40
1
 10
41.275895
 20
-92.434275
 30
0.0
 10
40.860605
 20
-92.194507
 30
0.0
 10
40.604776
 20
-91.751398
 30
0.0
 10
40.604776
 20
-91.271863
 30
0.0
  0
SPLINE
  5
144
100
AcDbEntity
  8
0
 62
7
100
AcDbSpline
 70
8
 71
3
 72
8
 73
4
 74
0
 40
0
 40
0
 40
0
 40
0
 40
1
 40
1
 40
1
 40
1
 10
40.604776
 20
-91.271863
 30
0.0
 10
40.604776
 20
-90.792327
 30
0.0
 10
40.860605
 20
-90.349218
 30
0.0
 10
41.275895
 20
-90.109450
 30
0.0
  0
SPLINE
  5
145
100
AcDbEntity
  8
0
 62
7
100
AcDbSpline
 70
8
 71
3
 72
8
 73
4
 74
0
 40
0
 40
0
 40
0
 40
0
 40
1
 40
1
 40
1
 40
1
 10
41.275895
 20
-90.109450
 30
0.0
 10
41.691185
 20
-89.869682
 30
0.0
 10
42.202844
 20
-89.869682
 30
0.0
 10
42.618134
 20
-90.109450
 30
0.0
  0
SPLINE
  5
146
100
AcDbEntity
  8
0
 62
7
100
AcDbSpline
 70
8
 71
3
 72
8
 73
4
 74
0
 40
0
 40
0
 40
0
 40
0
 40
1
 40
1
 40
1
 40
1
 10
42.618134
 20
-90.109450
 30
0.0
 10
43.033425
 20
-90.349218
 30
0.0
 10
43.289254
 20
-90.792327
 30
0.0
 10
43.289254
 20
-91.271863
 30
0.0
  0
LWPOLYLINE
  5
147
100
AcDbEntity
  8
0
 62
7
100
AcDbPolyline
 90
1
 70
1
 10
23.003546
 20
-91.271863
 30
0.0
  0
SPLINE
  5
148
100
AcDbEntity
  8
0
 62
7
100
AcDbSpline
 70
8
 71
3
 72
8
 73
4
 74
0
 40
0
 40
0
 40
0
 40
0
 40
1
 40
1
 40
1
 40
1
 10
63.574962
 20
-91.271863
 30
0.0
 10
63.574962
 20
-91.751398
 30
0.0
 10
63.319133
 20
-92.194507
 30
0.0
 10
62.903843
 20
-92.434275
 30
0.0
  0
SPLINE
  5
149
100
AcDbEntity
  8
0
 62
7
100
AcDbSpline
 70
8
 71
3
 72
8
 73
4
 74
0
 40
0
 40
0
 40
0
 40
0
 40
1
 40
1
 40
1
 40
1
 10
62.903843
 20
-92.434275
 30
0.0
 10
62.488552
 20
-92.674043
 30
0.0
 10
61.976894
 20
-92.674043
 30
0.0
 10
61.561604
 20
-92.434275
 30
0.0
  0
SPLINE
  5
14a
100
AcDbEntity
  8
0
 62
7
100
AcDbSpline
 70
8
 71
3
 72
8
 73
4
 74
0
 40
0
 40
0
 40
0
 40
0
 40
1
 40
1
 40
1
 40
1
 10
61.561604
 20
-92.434275
 30
0.0
 10
61.146313
 20
-92.194507
 30
0.0
 10
60.890484
 20
-91.751398
 30
0.0
 10
60.890484
 20
-91.271863
 30
0.0
  0
SPLINE
  5
14b
100
AcDbEntity
  8
0
 62
7
100
AcDbSpline
 70
8
 71
3
 72
8
 73
4
 74
0
 40
0
 40
0
 40
0
 40
0
 40
1
 40
1
 40
1
 40
1
 10
60.890484
 20
-91.271863
 30
0.0
 10
60.890484
 20
-90.792327
 30
0.0
 10
61.146313
 20
-90.349218
 30
0.0
 10
61.561604
 20
-90.109450
 30
0.0
  0
SPLINE
  5
14c
100
AcDbEntity
  8
0
 62
7
100
AcDbSpline
 70
8
 71
3
 72
8
 73
4
 74
0
 40
0
 40
0
 40
0
 40
0
 40
1
 40
1
 40
1
 40
1
 10
61.561604
 20
-90.109450
 30
0.0
 10
61.976894
 20
-89.869682
 30
0.0
 10
62.488552
 20
-89.869682
 30
0.0
 10
62.903843
 20
-90.109450
 30
0.0
  0
SPLINE
  5
14d
100
AcDbEntity
  8
0
 62
7
100
AcDbSpline
 70
8
 71
3
 72
8
 73
4
 74
0
 40
0
 40
0
 40
0
 40
0
 40
1
 40
1
 40
1
 40
1
 10
62.903843
 20
-90.109450
 30
0.0
 10
63.319133
 20
-90.349218
 30
0.0
 10
63.574962
 20
-90.792327
 30
0.0
 10
63.574962
 20
-91.271863
 30
0.0
  0
LWPOLYLINE
  5
14e
100
AcDbEntity
  8
0
 62
7
100
AcDbPolyline
 90
1
 70
1
 10
43.289254
 20
-91.271863
 30
0.0
  0
SPLINE
  5
14f
100
AcDbEntity
  8
0
 62
7
100
AcDbSpline
 70
8
 71
3
 72
8
 73
4
 74
0
 40
0
 40
0
 40
0
 40
0
 40
1
 40
1
 40
1
 40
1
 10
83.860671
 20
-91.271863
 30
0.0
 10
83.860671
 20
-91.751398
 30
0.0
 10
83.604841
 20
-92.194507
 30
0.0
 10
83.189551
 20
-92.434275
 30
0.0
  0
SPLINE
  5
150
100
AcDbEntity
  8
0
 62
7
100
AcDbSpline
 70
8
 71
3
 72
8
 73
4
 74
0
 40
0
 40
0
 40
0
 40
0
 40
1
 40
1
 40
1
 40
1
 10
83.189551
 20
-92.434275
 30
0.0
 10
82.774261
 20
-92.674043
 30
0.0
 10
82.262602
 20
-92.674043
 30
0.0
 10
81.847312
 20
-92.434275
 30
0.0
  0
SPLINE
  5
151
100
AcDbEntity
  8
0
 62
7
100
AcDbSpline
 70
8
 71
3
 72
8
 73
4
 74
0
 40
0
 40
0
 40
0
 40
0
 40
1
 40
1
 40
1
 40
1
 10
81.847312
 20
-92.434275
 30
0.0
 10
81.432022
 20
-92.194507
 30
0.0
 10
81.176192
 20
-91.751398
 30
0.0
 10
81.176192
 20
-91.271863
 30
0.0
  0
SPLINE
  5
152
100
AcDbEntity
  8
0
 62
7
100
AcDbSpline
 70
8
 71
3
 72
8
 73
4
 74
0
 40
0
 40
0
 40
0
 40
0
 40
1
 40
1
 40
1
 40
1
 10
81.176192
 20
-91.271863
 30
0.0
 10
81.176192
 20
-90.792327
 30
0.0
 10
81.432022
 20
-90.349218
 30
0.0
 10
81.847312
 20
-90.109450
 30
0.0
  0
SPLINE
  5
153
100
AcDbEntity
  8
0
 62
7
100
AcDbSpline
 70
8
 71
3
 72
8
 73
4
 74
0
 40
0
 40
0
 40
0
 40
0
 40
1
 40
1
 40
1
 40
1
 10
81.847312
 20
-90.109450
 30
0.0
 10
82.262602
 20
-89.869682
 30
0.0
 10
82.774261
 20
-89.869682
 30
0.0
 10
83.189551
 20
-90.109450
 30
0.0
  0
SPLINE
  5
154
100
AcDbEntity
  8
0
 62
7
100
AcDbSpline
 70
8
 71
3
 72
8
 73
4
 74
0
 40
0
 40
0
 40
0
 40
0
 40
1
 40
1
 40
1
 40
1
 10
83.189551
 20
-90.109450
 30
0.0
 10
83.604841
 20
-90.349218
 30
0.0
 10
83.860671
 20
-90.792327
 30
0.0
 10
83.860671
 20
-91.271863
 30
0.0
  0
LWPOLYLINE
  5
155
100
AcDbEntity
  8
0
 62
7
100
AcDbPolyline
 90
1
 70
1
 10
63.574962
 20
-91.271863
 30
0.0
  0
SPLINE
  5
156
100
AcDbEntity
  8
0
 62
7
100
AcDbSpline
 70
8
 71
3
 72
8
 73
4
 74
0
 40
0
 40
0
 40
0
 40
0
 40
1
 40
1
 40
1
 40
1
 10
104.146379
 20
-91.271863
 30
0.0
 10
104.146379
 20
-91.751398
 30
0.0
 10
103.890550
 20
-92.194507
 30
0.0
 10
103.475260
 20
-92.434275
 30
0.0
  0
SPLINE
  5
157
100
AcDbEntity
  8
0
 62
7
100
AcDbSpline
 70
8
 71
3
 72
8
 73
4
 74
0
 40
0
 40
0
 40
0
 40
0
 40
1
 40
1
 40
1
 40
1
 10
103.475260
 20
-92.434275
 30
0.0
 10
103.059969
 20
-92.674043
 30
0.0
 10
102.548311
 20
-92.674043
 30
0.0
 10
102.133020
 20
-92.434275
 30
0.0
  0
SPLINE
  5
158
100
AcDbEntity
  8
0
 62
7
100
AcDbSpline
 70
8
 71
3
 72
8
 73
4
 74
0
 40
0
 40
0
 40
0
 40
0
 40
1
 40
1
 40
1
 40
1
 10
102.133020
 20
-92.434275
 30
0.0
 10
101.717730
 20
-92.194507
 30
0.0
 10
101.461901
 20
-91.751398
 30
0.0
 10
101.461901
 20
-91.271863
 30
0.0
  0
SPLINE
  5
159
100
AcDbEntity
  8
0
 62
7
100
AcDbSpline
 70
8
 71
3
 72
8
 73
4
 74
0
 40
0
 40
0
 40
0
 40
0
 40
1
 40
1
 40
1
 40
1
 10
101.461901
 20
-91.271863
 30
0.0
 10
101.461901
 20
-90.792327
 30
0.0
 10
101.717730
 20
-90.349218
 30
0.0
 10
102.133020
 20
-90.109450
 30
0.0
  0
SPLINE
  5
15a
100
AcDbEntity
  8
0
 62
7
100
AcDbSpline
 70
8
 71
3
 72
8
 73
4
 74
0
 40
0
 40
0
 40
0
 40
0
 40
1
 40
1
 40
1
 40
1
 10
102.133020
 20
-90.109450
 30
0.0
 10
102.548311
 20
-89.869682
 30
0.0
 10
103.059969
 20
-89.869682
 30
0.0
 10
103.475260
 20
-90.109450
 30
0.0
  0
SPLINE
  5
15b
100
AcDbEntity
  8
0
 62
7
100
AcDbSpline
 70
8
 71
3
 72
8
 73
4
 74
0
 40
0
 40
0
 40
0
 40
0
 40
1
 40
1
 40
1
 40
1
 10
103.475260
 20
-90.109450
 30
0.0
 10
103.890550
 20
-90.349218
 30
0.0
 10
104.146379
 20
-90.792327
 30
0.0
 10
104.146379
 20
-91.271863
 30
0.0
  0
LWPOLYLINE
  5
15c
100
AcDbEntity
  8
0
 62
7
100
AcDbPolyline
 90
1
 70
1
 10
83.860671
 20
-91.271863
 30
0.0
  0
SPLINE
  5
15d
100
AcDbEntity
  8
0
 62
7
100
AcDbSpline
 70
8
 71
3
 72
8
 73
4
 74
0
 40
0
 40
0
 40
0
 40
0
 40
1
 40
1
 40
1
 40
1
 10
124.432088
 20
-91.271863
 30
0.0
 10
124.432088
 20
-91.751398
 30
0.0
 10
124.176258
 20
-92.194507
 30
0.0
 10
123.760968
 20
-92.434275
 30
0.0
  0
SPLINE
  5
15e
100
AcDbEntity
  8
0
 62
7
100
AcDbSpline
 70
8
 71
3
 72
8
 73
4
 74
0
 40
0
 40
0
 40
0
 40
0
 40
1
 40
1
 40
1
 40
1
 10
123.760968
 20
-92.434275
 30
0.0
 10
123.345678
 20
-92.674043
 30
0.0
 10
122.834019
 20
-92.674043
 30
0.0
 10
122.418729
 20
-92.434275
 30
0.0
  0
SPLINE
  5
15f
100
AcDbEntity
  8
0
 62
7
100
AcDbSpline
 70
8
 71
3
 72
8
 73
4
 74
0
 40
0
 40
0
 40
0
 40
0
 40
1
 40
1
 40
1
 40
1
 10
122.418729
 20
-92.434275
 30
0.0
 10
122.003439
 20
-92.194507
 30
0.0
 10
121.747609
 20
-91.751398
 30
0.0
 10
121.747609
 20
-91.271863
 30
0.0
  0
SPLINE
  5
160
100
AcDbEntity
  8
0
 62
7
100
AcDbSpline
 70
8
 71
3
 72
8
 73
4
 74
0
 40
0
 40
0
 40
0
 40
0
 40
1
 40
1
 40
1
 40
1
 10
121.747609
 20
-91.271863
 30
0.0
 10
121.747609
 20
-90.792327
 30
0.0
 10
122.003439
 20
-90.349218
 30
0.0
 10
122.418729
 20
-90.109450
 30
0.0
  0
SPLINE
  5
161
100
AcDbEntity
  8
0
 62
7
100
AcDbSpline
 70
8
 71
3
 72
8
 73
4
 74
0
 40
0
 40
0
 40
0
 40
0
 40
1
 40
1
 40
1
 40
1
 10
122.418729
 20
-90.109450
 30
0.0
 10
122.834019
 20
-89.869682
 30
0.0
 10
123.345678
 20
-89.869682
 30
0.0
 10
123.760968
 20
-90.109450
 30
0.0
  0
SPLINE
  5
162
100
AcDbEntity
  8
0
 62
7
100
AcDbSpline
 70
8
 71
3
 72
8
 73
4
 74
0
 40
0
 40
0
 40
0
 40
0
 40
1
 40
1
 40
1
 40
1
 10
123.760968
 20
-90.109450
 30
0.0
 10
124.176258
 20
-90.349218
 30
0.0
 10
124.432088
 20
-90.792327
 30
0.0
 10
124.432088
 20
-91.271863
 30
0.0
  0
LWPOLYLINE
  5
163
100
AcDbEntity
  8
0
 62
7
100
AcDbPolyline
 90
1
 70
1
 10
104.146379
 20
-91.271863
 30
0.0
  0
SPLINE
  5
164
100
AcDbEntity
  8
0
 62
7
100
AcDbSpline
 70
8
 71
3
 72
8
 73
4
 74
0
 40
0
 40
0
 40
0
 40
0
 40
1
 40
1
 40
1
 40
1
 10
144.717796
 20
-91.271863
 30
0.0
 10
144.717796
 20
-91.751398
 30
0.0
 10
144.461967
 20
-92.194507
 30
0.0
 10
144.046676
 20
-92.434275
 30
0.0
  0
SPLINE
  5
165
100
AcDbEntity
  8
0
 62
7
100
AcDbSpline
 70
8
 71
3
 72
8
 73
4
 74
0
 40
0
 40
0
 40
0
 40
0
 40
1
 40
1
 40
1
 40
1
 10
144.046676
 20
-92.434275
 30
0.0
 10
143.631386
 20
-92.674043
 30
0.0
 10
143.119728
 20
-92.674043
 30
0.0
 10
142.704437
 20
-92.434275
 30
0.0
  0
SPLINE
  5
166
100
AcDbEntity
  8
0
 62
7
100
AcDbSpline
 70
8
 71
3
 72
8
 73
4
 74
0
 40
0
 40
0
 40
0
 40
0
 40
1
 40
1
 40
1
 40
1
 10
142.704437
 20
-92.434275
 30
0.0
 10
142.289147
 20
-92.194507
 30
0.0
 10
142.033318
 20
-91.751398
 30
0.0
 10
142.033318
 20
-91.271863
 30
0.0
  0
SPLINE
  5
167
100
AcDbEntity
  8
0
 62
7
100
AcDbSpline
 70
8
 71
3
 72
8
 73
4
 74
0
 40
0
 40
0
 40
0
 40
0
 40
1
 40
1
 40
1
 40
1
 10
142.033318
 20
-91.271863
 30
0.0
 10
142.033318
 20
-90.792327
 30
0.0
 10
142.289147
 20
-90.349218
 30
0.0
 10
142.704437
 20
-90.109450
 30
0.0
  0
SPLINE
  5
168
100
AcDbEntity
  8
0
 62
7
100
AcDbSpline
 70
8
 71
3
 72
8
 73
4
 74
0
 40
0
 40
0
 40
0
 40
0
 40
1
 40
1
 40
1
 40
1
 10
142.704437
 20
-90.109450
 30
0.0
 10
143.119728
 20
-89.869682
 30
0.0
 10
143.631386
 20
-89.869682
 30
0.0
 10
144.046676
 20
-90.109450
 30
0.0
  0
SPLINE
  5
169
100
AcDbEntity
  8
0
 62
7
100
AcDbSpline
 70
8
 71
3
 72
8
 73
4
 74
0
 40
0
 40
0
 40
0
 40
0
 40
1
 40
1
 40
1
 40
1
 10
144.046676
 20
-90.109450
 30
0.0
 10
144.461967
 20
-90.349218
 30
0.0
 10
144.717796
 20
-90.792327
 30
0.0
 10
144.717796
 20
-91.271863
 30
0.0
  0
LWPOLYLINE
  5
16a
100
AcDbEntity
  8
0
 62
7
100
AcDbPolyline
 90
1
 70
1
 10
124.432088
 20
-91.271863
 30
0.0
  0
SPLINE
  5
16b
100
AcDbEntity
  8
0
 62
7
100
AcDbSpline
 70
8
 71
3
 72
8
 73
4
 74
0
 40
0
 40
0
 40
0
 40
0
 40
1
 40
1
 40
1
 40
1
 10
165.003504
 20
-91.271863
 30
0.0
 10
165.003504
 20
-91.751398
 30
0.0
 10
164.747675
 20
-92.194507
 30
0.0
 10
164.332385
 20
-92.434275
 30
0.0
  0
SPLINE
  5
16c
100
AcDbEntity
  8
0
 62
7
100
AcDbSpline
 70
8
 71
3
 72
8
 73
4
 74
0
 40
0
 40
0
 40
0
 40
0
 40
1
 40
1
 40
1
 40
1
 10
164.332385
 20
-92.434275
 30
0.0
 10
163.917095
 20
-92.674043
 30
0.0
 10
163.405436
 20
-92.674043
 30
0.0
 10
162.990146
 20
-92.434275
 30
0.0
  0
SPLINE
  5
16d
100
AcDbEntity
  8
0
 62
7
100
AcDbSpline
 70
8
 71
3
 72
8
 73
4
 74
0
 40
0
 40
0
 40
0
 40
0
 40
1
 40
1
 40
1
 40
1
 10
162.990146
 20
-92.434275
 30
0.0
 10
162.574855
 20
-92.194507
 30
0.0
 10
162.319026
 20
-91.751398
 30
0.0
 10
162.319026
 20
-91.271863
 30
0.0
  0
SPLINE
  5
16e
100
AcDbEntity
  8
0
 62
7
100
AcDbSpline
 70
8
 71
3
 72
8
 73
4
 74
0
 40
0
 40
0
 40
0
 40
0
 40
1
 40
1
 40
1
 40
1
 10
162.319026
 20
-91.271863
 30
0.0
 10
162.319026
 20
-90.792327
 30
0.0
 10
162.574855
 20
-90.349218
 30
0.0
 10
162.990146
 20
-90.109450
 30
0.0
  0
SPLINE
  5
16f
100
AcDbEntity
  8
0
 62
7
100
AcDbSpline
 70
8
 71
3
 72
8
 73
4
 74
0
 40
0
 40
0
 40
0
 40
0
 40
1
 40
1
 40
1
 40
1
 10
162.990146
 20
-90.109450
 30
0.0
 10
163.405436
 20
-89.869682
 30
0.0
 10
163.917095
 20
-89.869682
 30
0.0
 10
164.332385
 20
-90.109450
 30
0.0
  0
SPLINE
  5
170
100
AcDbEntity
  8
0
 62
7
100
AcDbSpline
 70
8
 71
3
 72
8
 73
4
 74
0
 40
0
 40
0
 40
0
 40
0
 40
1
 40
1
 40
1
 40
1
 10
164.332385
 20
-90.109450
 30
0.0
 10
164.747675
 20
-90.349218
 30
0.0
 10
165.003504
 20
-90.792327
 30
0.0
 10
165.003504
 20
-91.271863
 30
0.0
  0
LWPOLYLINE
  5
171
100
AcDbEntity
  8
0
 62
7
100
AcDbPolyline
 90
1
 70
1
 10
144.717796
 20
-91.271863
 30
0.0
  0
SPLINE
  5
172
100
AcDbEntity
  8
0
 62
7
100
AcDbSpline
 70
8
 71
3
 72
8
 73
4
 74
0
 40
0
 40
0
 40
0
 40
0
 40
1
 40
1
 40
1
 40
1
 10
185.289203
 20
-91.271863
 30
0.0
 10
185.289203
 20
-91.751398
 30
0.0
 10
185.033373
 20
-92.194507
 30
0.0
 10
184.618083
 20
-92.434275
 30
0.0
  0
SPLINE
  5
173
100
AcDbEntity
  8
0
 62
7
100
AcDbSpline
 70
8
 71
3
 72
8
 73
4
 74
0
 40
0
 40
0
 40
0
 40
0
 40
1
 40
1
 40
1
 40
1
 10
184.618083
 20
-92.434275
 30
0.0
 10
184.202793
 20
-92.674043
 30
0.0
 10
183.691134
 20
-92.674043
 30
0.0
 10
183.275844
 20
-92.434275
 30
0.0
  0
SPLINE
  5
174
100
AcDbEntity
  8
0
 62
7
100
AcDbSpline
 70
8
 71
3
 72
8
 73
4
 74
0
 40
0
 40
0
 40
0
 40
0
 40
1
 40
1
 40
1
 40
1
 10
183.275844
 20
-92.434275
 30
0.0
 10
182.860554
 20
-92.194507
 30
0.0
 10
182.604724
 20
-91.751398
 30
0.0
 10
182.604724
 20
-91.271863
 30
0.0
  0
SPLINE
  5
175
100
AcDbEntity
  8
0
 62
7
100
AcDbSpline
 70
8
 71
3
 72
8
 73
4
 74
0
 40
0
 40
0
 40
0
 40
0
 40
1
 40
1
 40
1
 40
1
 10
182.604724
 20
-91.271863
 30
0.0
 10
182.604724
 20
-90.792327
 30
0.0
 10
182.860554
 20
-90.349218
 30
0.0
 10
183.275844
 20
-90.109450
 30
0.0
  0
SPLINE
  5
176
100
AcDbEntity
  8
0
 62
7
100
AcDbSpline
 70
8
 71
3
 72
8
 73
4
 74
0
 40
0
 40
0
 40
0
 40
0
 40
1
 40
1
 40
1
 40
1
 10
183.275844
 20
-90.109450
 30
0.0
 10
183.691134
 20
-89.869682
 30
0.0
 10
184.202793
 20
-89.869682
 30
0.0
 10
184.618083
 20
-90.109450
 30
0.0
  0
SPLINE
  5
177
100
AcDbEntity
  8
0
 62
7
100
AcDbSpline
 70
8
 71
3
 72
8
 73
4
 74
0
 40
0
 40
0
 40
0
 40
0
 40
1
 40
1
 40
1
 40
1
 10
184.618083
 20
-90.109450
 30
0.0
 10
185.033373
 20
-90.349218
 30
0.0
 10
185.289203
 20
-90.792327
 30
0.0
 10
185.289203
 20
-91.271863
 30
0.0
  0
LWPOLYLINE
  5
178
100
AcDbEntity
  8
0
 62
7
100
AcDbPolyline
 90
1
 70
1
 10
165.003504
 20
-91.271863
 30
0.0
  0
SPLINE
  5
179
100
AcDbEntity
  8
0
 62
7
100
AcDbSpline
 70
8
 71
3
 72
8
 73
4
 74
0
 40
0
 40
0
 40
0
 40
0
 40
1
 40
1
 40
1
 40
1
 10
23.003546
 20
-70.987419
 30
0.0
 10
23.003546
 20
-71.466955
 30
0.0
 10
22.747717
 20
-71.910064
 30
0.0
 10
22.332426
 20
-72.149831
 30
0.0
  0
SPLINE
  5
17a
100
AcDbEntity
  8
0
 62
7
100
AcDbSpline
 70
8
 71
3
 72
8
 73
4
 74
0
 40
0
 40
0
 40
0
 40
0
 40
1
 40
1
 40
1
 40
1
 10
22.332426
 20
-72.149831
 30
0.0
 10
21.917136
 20
-72.389599
 30
0.0
 10
21.405477
 20
-72.389599
 30
0.0
 10
20.990187
 20
-72.149831
 30
0.0
  0
SPLINE
  5
17b
100
AcDbEntity
  8
0
 62
7
100
AcDbSpline
 70
8
 71
3
 72
8
 73
4
 74
0
 40
0
 40
0
 40
0
 40
0
 40
1
 40
1
 40
1
 40
1
 10
20.990187
 20
-72.149831
 30
0.0
 10
20.574897
 20
-71.910064
 30
0.0
 10
20.319068
 20
-71.466955
 30
0.0
 10
20.319068
 20
-70.987419
 30
0.0
  0
SPLINE
  5
17c
100
AcDbEntity
  8
0
 62
7
100
AcDbSpline
 70
8
 71
3
 72
8
 73
4
 74
0
 40
0
 40
0
 40
0
 40
0
 40
1
 40
1
 40
1
 40
1
 10
20.319068
 20
-70.987419
 30
0.0
 10
20.319068
 20
-70.507884
 30
0.0
 10
20.574897
 20
-70.064774
 30
0.0
 10
20.990187
 20
-69.825007
 30
0.0
  0
SPLINE
  5
17d
100
AcDbEntity
  8
0
 62
7
100
AcDbSpline
 70
8
 71
3
 72
8
 73
4
 74
0
 40
0
 40
0
 40
0
 40
0
 40
1
 40
1
 40
1
 40
1
 10
20.990187
 20
-69.825007
 30
0.0
 10
21.405477
 20
-69.585239
 30
0.0
 10
21.917136
 20
-69.585239
 30
0.0
 10
22.332426
 20
-69.825007
 30
0.0
  0
SPLINE
  5
17e
100
AcDbEntity
  8
0
 62
7
100
AcDbSpline
 70
8
 71
3
 72
8
 73
4
 74
0
 40
0
 40
0
 40
0
 40
0
 40
1
 40
1
 40
1
 40
1
 10
22.332426
 20
-69.825007
 30
0.0
 10
22.747717
 20
-70.064774
 30
0.0
 10
23.003546
 20
-70.507884
 30
0.0
 10
23.003546
 20
-70.987419
 30
0.0
  0
LWPOLYLINE
  5
17f
100
AcDbEntity
  8
0
 62
7
100
AcDbPolyline
 90
1
 70
1
 10
185.289203
 20
-91.271863
 30
0.0
  0
SPLINE
  5
180
100
AcDbEntity
  8
0
 62
7
100
AcDbSpline
 70
8
 71
3
 72
8
 73
4
 74
0
 40
0
 40
0
 40
0
 40
0
 40
1
 40
1
 40
1
 40
1
 10
43.289254
 20
-70.987419
 30
0.0
 10
43.289254
 20
-71.466955
 30
0.0
 10
43.033425
 20
-71.910064
 30
0.0
 10
42.618134
 20
-72.149831
 30
0.0
  0
SPLINE
  5
181
100
AcDbEntity
  8
0
 62
7
100
AcDbSpline
 70
8
 71
3
 72
8
 73
4
 74
0
 40
0
 40
0
 40
0
 40
0
 40
1
 40
1
 40
1
 40
1
 10
42.618134
 20
-72.149831
 30
0.0
 10
42.202844
 20
-72.389599
 30
0.0
 10
41.691185
 20
-72.389599
 30
0.0
 10
41.275895
 20
-72.149831
 30
0.0
  0
SPLINE
  5
182
100
AcDbEntity
  8
0
 62
7
100
AcDbSpline
 70
8
 71
3
 72
8
 73
4
 74
0
 40
0
 40
0
 40
0
 40
0
 40
1
 40
1
 40
1
 40
1
 10
41.275895
 20
-72.149831
 30
0.0
 10
40.860605
 20
-71.910064
 30
0.0
 10
40.604776
 20
-71.466955
 30
0.0
 10
40.604776
 20
-70.987419
 30
0.0
  0
SPLINE
  5
183
100
AcDbEntity
  8
0
 62
7
100
AcDbSpline
 70
8
 71
3
 72
8
 73
4
 74
0
 40
0
 40
0
 40
0
 40
0
 40
1
 40
1
 40
1
 40
1
 10
40.604776
 20
-70.987419
 30
0.0
 10
40.604776
 20
-70.507884
 30
0.0
 10
40.860605
 20
-70.064774
 30
0.0
 10
41.275895
 20
-69.825007
 30
0.0
  0
SPLINE
  5
184
100
AcDbEntity
  8
0
 62
7
100
AcDbSpline
 70
8
 71
3
 72
8
 73
4
 74
0
 40
0
 40
0
 40
0
 40
0
 40
1
 40
1
 40
1
 40
1
 10
41.275895
 20
-69.825007
 30
0.0
 10
41.691185
 20
-69.585239
 30
0.0
 10
42.202844
 20
-69.585239
 30
0.0
 10
42.618134
 20
-69.825007
 30
0.0
  0
SPLINE
  5
185
100
AcDbEntity
  8
0
 62
7
100
AcDbSpline
 70
8
 71
3
 72
8
 73
4
 74
0
 40
0
 40
0
 40
0
 40
0
 40
1
 40
1
 40
1
 40
1
 10
42.618134
 20
-69.825007
 30
0.0
 10
43.033425
 20
-70.064774
 30
0.0
 10
43.289254
 20
-70.507884
 30
0.0
 10
43.289254
 20
-70.987419
 30
0.0
  0
LWPOLYLINE
  5
186
100
AcDbEntity
  8
0
 62
7
100
AcDbPolyline
 90
1
 70
1
 10
23.003546
 20
-70.987419
 30
0.0
  0
SPLINE
  5
187
100
AcDbEntity
  8
0
 62
7
100
AcDbSpline
 70
8
 71
3
 72
8
 73
4
 74
0
 40
0
 40
0
 40
0
 40
0
 40
1
 40
1
 40
1
 40
1
 10
63.574962
 20
-70.987419
 30
0.0
 10
63.574962
 20
-71.466955
 30
0.0
 10
63.319133
 20
-71.910064
 30
0.0
 10
62.903843
 20
-72.149831
 30
0.0
  0
SPLINE
  5
188
100
AcDbEntity
  8
0
 62
7
100
AcDbSpline
 70
8
 71
3
 72
8
 73
4
 74
0
 40
0
 40
0
 40
0
 40
0
 40
1
 40
1
 40
1
 40
1
 10
62.903843
 20
-72.149831
 30
0.0
 10
62.488552
 20
-72.389599
 30
0.0
 10
61.976894
 20
-72.389599
 30
0.0
 10
61.561604
 20
-72.149831
 30
0.0
  0
SPLINE
  5
189
100
AcDbEntity
  8
0
 62
7
100
AcDbSpline
 70
8
 71
3
 72
8
 73
4
 74
0
 40
0
 40
0
 40
0
 40
0
 40
1
 40
1
 40
1
 40
1
 10
61.561604
 20
-72.149831
 30
0.0
 10
61.146313
 20
-71.910064
 30
0.0
 10
60.890484
 20
-71.466955
 30
0.0
 10
60.890484
 20
-70.987419
 30
0.0
  0
SPLINE
  5
18a
100
AcDbEntity
  8
0
 62
7
100
AcDbSpline
 70
8
 71
3
 72
8
 73
4
 74
0
 40
0
 40
0
 40
0
 40
0
 40
1
 40
1
 40
1
 40
1
 10
60.890484
 20
-70.987419
 30
0.0
 10
60.890484
 20
-70.507884
 30
0.0
 10
61.146313
 20
-70.064774
 30
0.0
 10
61.561604
 20
-69.825007
 30
0.0
  0
SPLINE
  5
18b
100
AcDbEntity
  8
0
 62
7
100
AcDbSpline
 70
8
 71
3
 72
8
 73
4
 74
0
 40
0
 40
0
 40
0
 40
0
 40
1
 40
1
 40
1
 40
1
 10
61.561604
 20
-69.825007
 30
0.0
 10
61.976894
 20
-69.585239
 30
0.0
 10
62.488552
 20
-69.585239
 30
0.0
 10
62.903843
 20
-69.825007
 30
0.0
  0
SPLINE
  5
18c
100
AcDbEntity
  8
0
 62
7
100
AcDbSpline
 70
8
 71
3
 72
8
 73
4
 74
0
 40
0
 40
0
 40
0
 40
0
 40
1
 40
1
 40
1
 40
1
 10
62.903843
 20
-69.825007
 30
0.0
 10
63.319133
 20
-70.064774
 30
0.0
 10
63.574962
 20
-70.507884
 30
0.0
 10
63.574962
 20
-70.987419
 30
0.0
  0
LWPOLYLINE
  5
18d
100
AcDbEntity
  8
0
 62
7
100
AcDbPolyline
 90
1
 70
1
 10
43.289254
 20
-70.987419
 30
0.0
  0
SPLINE
  5
18e
100
AcDbEntity
  8
0
 62
7
100
AcDbSpline
 70
8
 71
3
 72
8
 73
4
 74
0
 40
0
 40
0
 40
0
 40
0
 40
1
 40
1
 40
1
 40
1
 10
83.860671
 20
-70.987419
 30
0.0
 10
83.860671
 20
-71.466955
 30
0.0
 10
83.604841
 20
-71.910064
 30
0.0
 10
83.189551
 20
-72.149831
 30
0.0
  0
SPLINE
  5
18f
100
AcDbEntity
  8
0
 62
7
100
AcDbSpline
 70
8
 71
3
 72
8
 73
4
 74
0
 40
0
 40
0
 40
0
 40
0
 40
1
 40
1
 40
1
 40
1
 10
83.189551
 20
-72.149831
 30
0.0
 10
82.774261
 20
-72.389599
 30
0.0
 10
82.262602
 20
-72.389599
 30
0.0
 10
81.847312
 20
-72.149831
 30
0.0
  0
SPLINE
  5
190
100
AcDbEntity
  8
0
 62
7
100
AcDbSpline
 70
8
 71
3
 72
8
 73
4
 74
0
 40
0
 40
0
 40
0
 40
0
 40
1
 40
1
 40
1
 40
1
 10
81.847312
 20
-72.149831
 30
0.0
 10
81.432022
 20
-71.910064
 30
0.0
 10
81.176192
 20
-71.466955
 30
0.0
 10
81.176192
 20
-70.987419
 30
0.0
  0
SPLINE
  5
191
100
AcDbEntity
  8
0
 62
7
100
AcDbSpline
 70
8
 71
3
 72
8
 73
4
 74
0
 40
0
 40
0
 40
0
 40
0
 40
1
 40
1
 40
1
 40
1
 10
81.176192
 20
-70.987419
 30
0.0
 10
81.176192
 20
-70.507884
 30
0.0
 10
81.432022
 20
-70.064774
 30
0.0
 10
81.847312
 20
-69.825007
 30
0.0
  0
SPLINE
  5
192
100
AcDbEntity
  8
0
 62
7
100
AcDbSpline
 70
8
 71
3
 72
8
 73
4
 74
0
 40
0
 40
0
 40
0
 40
0
 40
1
 40
1
 40
1
 40
1
 10
81.847312
 20
-69.825007
 30
0.0
 10
82.262602
 20
-69.585239
 30
0.0
 10
82.774261
 20
-69.585239
 30
0.0
 10
83.189551
 20
-69.825007
 30
0.0
  0
SPLINE
  5
193
100
AcDbEntity
  8
0
 62
7
100
AcDbSpline
 70
8
 71
3
 72
8
 73
4
 74
0
 40
0
 40
0
 40
0
 40
0
 40
1
 40
1
 40
1
 40
1
 10
83.189551
 20
-69.825007
 30
0.0
 10
83.604841
 20
-70.064774
 30
0.0
 10
83.860671
 20
-70.507884
 30
0.0
 10
83.860671
 20
-70.987419
 30
0.0
  0
LWPOLYLINE
  5
194
100
AcDbEntity
  8
0
 62
7
100
AcDbPolyline
 90
1
 70
1
 10
63.574962
 20
-70.987419
 30
0.0
  0
SPLINE
  5
195
100
AcDbEntity
  8
0
 62
7
100
AcDbSpline
 70
8
 71
3
 72
8
 73
4
 74
0
 40
0
 40
0
 40
0
 40
0
 40
1
 40
1
 40
1
 40
1
 10
104.146379
 20
-70.987419
 30
0.0
 10
104.146379
 20
-71.466955
 30
0.0
 10
103.890550
 20
-71.910064
 30
0.0
 10
103.475260
 20
-72.149831
 30
0.0
  0
SPLINE
  5
196
100
AcDbEntity
  8
0
 62
7
100
AcDbSpline
 70
8
 71
3
 72
8
 73
4
 74
0
 40
0
 40
0
 40
0
 40
0
 40
1
 40
1
 40
1
 40
1
 10
103.475260
 20
-72.149831
 30
0.0
 10
103.059969
 20
-72.389599
 30
0.0
 10
102.548311
 20
-72.389599
 30
0.0
 10
102.133020
 20
-72.149831
 30
0.0
  0
SPLINE
  5
197
100
AcDbEntity
  8
0
 62
7
100
AcDbSpline
 70
8
 71
3
 72
8
 73
4
 74
0
 40
0
 40
0
 40
0
 40
0
 40
1
 40
1
 40
1
 40
1
 10
102.133020
 20
-72.149831
 30
0.0
 10
101.717730
 20
-71.910064
 30
0.0
 10
101.461901
 20
-71.466955
 30
0.0
 10
101.461901
 20
-70.987419
 30
0.0
  0
SPLINE
  5
198
100
AcDbEntity
  8
0
 62
7
100
AcDbSpline
 70
8
 71
3
 72
8
 73
4
 74
0
 40
0
 40
0
 40
0
 40
0
 40
1
 40
1
 40
1
 40
1
 10
101.461901
 20
-70.987419
 30
0.0
 10
101.461901
 20
-70.507884
 30
0.0
 10
101.717730
 20
-70.064774
 30
0.0
 10
102.133020
 20
-69.825007
 30
0.0
  0
SPLINE
  5
199
100
AcDbEntity
  8
0
 62
7
100
AcDbSpline
 70
8
 71
3
 72
8
 73
4
 74
0
 40
0
 40
0
 40
0
 40
0
 40
1
 40
1
 40
1
 40
1
 10
102.133020
 20
-69.825007
 30
0.0
 10
102.548311
 20
-69.585239
 30
0.0
 10
103.059969
 20
-69.585239
 30
0.0
 10
103.475260
 20
-69.825007
 30
0.0
  0
SPLINE
  5
19a
100
AcDbEntity
  8
0
 62
7
100
AcDbSpline
 70
8
 71
3
 72
8
 73
4
 74
0
 40
0
 40
0
 40
0
 40
0
 40
1
 40
1
 40
1
 40
1
 10
103.475260
 20
-69.825007
 30
0.0
 10
103.890550
 20
-70.064774
 30
0.0
 10
104.146379
 20
-70.507884
 30
0.0
 10
104.146379
 20
-70.987419
 30
0.0
  0
LWPOLYLINE
  5
19b
100
AcDbEntity
  8
0
 62
7
100
AcDbPolyline
 90
1
 70
1
 10
83.860671
 20
-70.987419
 30
0.0
  0
SPLINE
  5
19c
100
AcDbEntity
  8
0
 62
7
100
AcDbSpline
 70
8
 71
3
 72
8
 73
4
 74
0
 40
0
 40
0
 40
0
 40
0
 40
1
 40
1
 40
1
 40
1
 10
124.432088
 20
-70.987419
 30
0.0
 10
124.432088
 20
-71.466955
 30
0.0
 10
124.176258
 20
-71.910064
 30
0.0
 10
123.760968
 20
-72.149831
 30
0.0
  0
SPLINE
  5
19d
100
AcDbEntity
  8
0
 62
7
100
AcDbSpline
 70
8
 71
3
 72
8
 73
4
 74
0
 40
0
 40
0
 40
0
 40
0
 40
1
 40
1
 40
1
 40
1
 10
123.760968
 20
-72.149831
 30
0.0
 10
123.345678
 20
-72.389599
 30
0.0
 10
122.834019
 20
-72.389599
 30
0.0
 10
122.418729
 20
-72.149831
 30
0.0
  0
SPLINE
  5
19e
100
AcDbEntity
  8
0
 62
7
100
AcDbSpline
 70
8
 71
3
 72
8
 73
4
 74
0
 40
0
 40
0
 40
0
 40
0
 40
1
 40
1
 40
1
 40
1
 10
122.418729
 20
-72.149831
 30
0.0
 10
122.003439
 20
-71.910064
 30
0.0
 10
121.747609
 20
-71.466955
 30
0.0
 10
121.747609
 20
-70.987419
 30
0.0
  0
SPLINE
  5
19f
100
AcDbEntity
  8
0
 62
7
100
AcDbSpline
 70
8
 71
3
 72
8
 73
4
 74
0
 40
0
 40
0
 40
0
 40
0
 40
1
 40
1
 40
1
 40
1
 10
121.747609
 20
-70.987419
 30
0.0
 10
121.747609
 20
-70.507884
 30
0.0
 10
122.003439
 20
-70.064774
 30
0.0
 10
122.418729
 20
-69.825007
 30
0.0
  0
SPLINE
  5
1a0
100
AcDbEntity
  8
0
 62
7
100
AcDbSpline
 70
8
 71
3
 72
8
 73
4
 74
0
 40
0
 40
0
 40
0
 40
0
 40
1
 40
1
 40
1
 40
1
 10
122.418729
 20
-69.825007
 30
0.0
 10
122.834019
 20
-69.585239
 30
0.0
 10
123.345678
 20
-69.585239
 30
0.0
 10
123.760968
 20
-69.825007
 30
0.0
  0
SPLINE
  5
1a1
100
AcDbEntity
  8
0
 62
7
100
AcDbSpline
 70
8
 71
3
 72
8
 73
4
 74
0
 40
0
 40
0
 40
0
 40
0
 40
1
 40
1
 40
1
 40
1
 10
123.760968
 20
-69.825007
 30
0.0
 10
124.176258
 20
-70.064774
 30
0.0
 10
124.432088
 20
-70.507884
 30
0.0
 10
124.432088
 20
-70.987419
 30
0.0
  0
LWPOLYLINE
  5
1a2
100
AcDbEntity
  8
0
 62
7
100
AcDbPolyline
 90
1
 70
1
 10
104.146379
 20
-70.987419
 30
0.0
  0
SPLINE
  5
1a3
100
AcDbEntity
  8
0
 62
7
100
AcDbSpline
 70
8
 71
3
 72
8
 73
4
 74
0
 40
0
 40
0
 40
0
 40
0
 40
1
 40
1
 40
1
 40
1
 10
144.717796
 20
-70.987419
 30
0.0
 10
144.717796
 20
-71.466955
 30
0.0
 10
144.461967
 20
-71.910064
 30
0.0
 10
144.046676
 20
-72.149831
 30
0.0
  0
SPLINE
  5
1a4
100
AcDbEntity
  8
0
 62
7
100
AcDbSpline
 70
8
 71
3
 72
8
 73
4
 74
0
 40
0
 40
0
 40
0
 40
0
 40
1
 40
1
 40
1
 40
1
 10
144.046676
 20
-72.149831
 30
0.0
 10
143.631386
 20
-72.389599
 30
0.0
 10
143.119728
 20
-72.389599
 30
0.0
 10
142.704437
 20
-72.149831
 30
0.0
  0
SPLINE
  5
1a5
100
AcDbEntity
  8
0
 62
7
100
AcDbSpline
 70
8
 71
3
 72
8
 73
4
 74
0
 40
0
 40
0
 40
0
 40
0
 40
1
 40
1
 40
1
 40
1
 10
142.704437
 20
-72.149831
 30
0.0
 10
142.289147
 20
-71.910064
 30
0.0
 10
142.033318
 20
-71.466955
 30
0.0
 10
142.033318
 20
-70.987419
 30
0.0
  0
SPLINE
  5
1a6
100
AcDbEntity
  8
0
 62
7
100
AcDbSpline
 70
8
 71
3
 72
8
 73
4
 74
0
 40
0
 40
0
 40
0
 40
0
 40
1
 40
1
 40
1
 40
1
 10
142.033318
 20
-70.987419
 30
0.0
 10
142.033318
 20
-70.507884
 30
0.0
 10
142.289147
 20
-70.064774
 30
0.0
 10
142.704437
 20
-69.825007
 30
0.0
  0
SPLINE
  5
1a7
100
AcDbEntity
  8
0
 62
7
100
AcDbSpline
 70
8
 71
3
 72
8
 73
4
 74
0
 40
0
 40
0
 40
0
 40
0
 40
1
 40
1
 40
1
 40
1
 10
142.704437
 20
-69.825007
 30
0.0
 10
143.119728
 20
-69.585239
 30
0.0
 10
143.631386
 20
-69.585239
 30
0.0
 10
144.046676
 20
-69.825007
 30
0.0
  0
SPLINE
  5
1a8
100
AcDbEntity
  8
0
 62
7
100
AcDbSpline
 70
8
 71
3
 72
8
 73
4
 74
0
 40
0
 40
0
 40
0
 40
0
 40
1
 40
1
 40
1
 40
1
 10
144.046676
 20
-69.825007
 30
0.0
 10
144.461967
 20
-70.064774
 30
0.0
 10
144.717796
 20
-70.507884
 30
0.0
 10
144.717796
 20
-70.987419
 30
0.0
  0
LWPOLYLINE
  5
1a9
100
AcDbEntity
  8
0
 62
7
100
AcDbPolyline
 90
1
 70
1
 10
124.432088
 20
-70.987419
 30
0.0
  0
SPLINE
  5
1aa
100
AcDbEntity
  8
0
 62
7
100
AcDbSpline
 70
8
 71
3
 72
8
 73
4
 74
0
 40
0
 40
0
 40
0
 40
0
 40
1
 40
1
 40
1
 40
1
 10
165.003504
 20
-70.987419
 30
0.0
 10
165.003504
 20
-71.466955
 30
0.0
 10
164.747675
 20
-71.910064
 30
0.0
 10
164.332385
 20
-72.149831
 30
0.0
  0
SPLINE
  5
1ab
100
AcDbEntity
  8
0
 62
7
100
AcDbSpline
 70
8
 71
3
 72
8
 73
4
 74
0
 40
0
 40
0
 40
0
 40
0
 40
1
 40
1
 40
1
 40
1
 10
164.332385
 20
-72.149831
 30
0.0
 10
163.917095
 20
-72.389599
 30
0.0
 10
163.405436
 20
-72.389599
 30
0.0
 10
162.990146
 20
-72.149831
 30
0.0
  0
SPLINE
  5
1ac
100
AcDbEntity
  8
0
 62
7
100
AcDbSpline
 70
8
 71
3
 72
8
 73
4
 74
0
 40
0
 40
0
 40
0
 40
0
 40
1
 40
1
 40
1
 40
1
 10
162.990146
 20
-72.149831
 30
0.0
 10
162.574855
 20
-71.910064
 30
0.0
 10
162.319026
 20
-71.466955
 30
0.0
 10
162.319026
 20
-70.987419
 30
0.0
  0
SPLINE
  5
1ad
100
AcDbEntity
  8
0
 62
7
100
AcDbSpline
 70
8
 71
3
 72
8
 73
4
 74
0
 40
0
 40
0
 40
0
 40
0
 40
1
 40
1
 40
1
 40
1
 10
162.319026
 20
-70.987419
 30
0.0
 10
162.319026
 20
-70.507884
 30
0.0
 10
162.574855
 20
-70.064774
 30
0.0
 10
162.990146
 20
-69.825007
 30
0.0
  0
SPLINE
  5
1ae
100
AcDbEntity
  8
0
 62
7
100
AcDbSpline
 70
8
 71
3
 72
8
 73
4
 74
0
 40
0
 40
0
 40
0
 40
0
 40
1
 40
1
 40
1
 40
1
 10
162.990146
 20
-69.825007
 30
0.0
 10
163.405436
 20
-69.585239
 30
0.0
 10
163.917095
 20
-69.585239
 30
0.0
 10
164.332385
 20
-69.825007
 30
0.0
  0
SPLINE
  5
1af
100
AcDbEntity
  8
0
 62
7
100
AcDbSpline
 70
8
 71
3
 72
8
 73
4
 74
0
 40
0
 40
0
 40
0
 40
0
 40
1
 40
1
 40
1
 40
1
 10
164.332385
 20
-69.825007
 30
0.0
 10
164.747675
 20
-70.064774
 30
0.0
 10
165.003504
 20
-70.507884
 30
0.0
 10
165.003504
 20
-70.987419
 30
0.0
  0
LWPOLYLINE
  5
1b0
100
AcDbEntity
  8
0
 62
7
100
AcDbPolyline
 90
1
 70
1
 10
144.717796
 20
-70.987419
 30
0.0
  0
SPLINE
  5
1b1
100
AcDbEntity
  8
0
 62
7
100
AcDbSpline
 70
8
 71
3
 72
8
 73
4
 74
0
 40
0
 40
0
 40
0
 40
0
 40
1
 40
1
 40
1
 40
1
 10
185.289203
 20
-70.987419
 30
0.0
 10
185.289203
 20
-71.466955
 30
0.0
 10
185.033373
 20
-71.910064
 30
0.0
 10
184.618083
 20
-72.149831
 30
0.0
  0
SPLINE
  5
1b2
100
AcDbEntity
  8
0
 62
7
100
AcDbSpline
 70
8
 71
3
 72
8
 73
4
 74
0
 40
0
 40
0
 40
0
 40
0
 40
1
 40
1
 40
1
 40
1
 10
184.618083
 20
-72.149831
 30
0.0
 10
184.202793
 20
-72.389599
 30
0.0
 10
183.691134
 20
-72.389599
 30
0.0
 10
183.275844
 20
-72.149831
 30
0.0
  0
SPLINE
  5
1b3
100
AcDbEntity
  8
0
 62
7
100
AcDbSpline
 70
8
 71
3
 72
8
 73
4
 74
0
 40
0
 40
0
 40
0
 40
0
 40
1
 40
1
 40
1
 40
1
 10
183.275844
 20
-72.149831
 30
0.0
 10
182.860554
 20
-71.910064
 30
0.0
 10
182.604724
 20
-71.466955
 30
0.0
 10
182.604724
 20
-70.987419
 30
0.0
  0
SPLINE
  5
1b4
100
AcDbEntity
  8
0
 62
7
100
AcDbSpline
 70
8
 71
3
 72
8
 73
4
 74
0
 40
0
 40
0
 40
0
 40
0
 40
1
 40
1
 40
1
 40
1
 10
182.604724
 20
-70.987419
 30
0.0
 10
182.604724
 20
-70.507884
 30
0.0
 10
182.860554
 20
-70.064774
 30
0.0
 10
183.275844
 20
-69.825007
 30
0.0
  0
SPLINE
  5
1b5
100
AcDbEntity
  8
0
 62
7
100
AcDbSpline
 70
8
 71
3
 72
8
 73
4
 74
0
 40
0
 40
0
 40
0
 40
0
 40
1
 40
1
 40
1
 40
1
 10
183.275844
 20
-69.825007
 30
0.0
 10
183.691134
 20
-69.585239
 30
0.0
 10
184.202793
 20
-69.585239
 30
0.0
 10
184.618083
 20
-69.825007
 30
0.0
  0
SPLINE
  5
1b6
100
AcDbEntity
  8
0
 62
7
100
AcDbSpline
 70
8
 71
3
 72
8
 73
4
 74
0
 40
0
 40
0
 40
0
 40
0
 40
1
 40
1
 40
1
 40
1
 10
184.618083
 20
-69.825007
 30
0.0
 10
185.033373
 20
-70.064774
 30
0.0
 10
185.289203
 20
-70.507884
 30
0.0
 10
185.289203
 20
-70.987419
 30
0.0
  0
LWPOLYLINE
  5
1b7
100
AcDbEntity
  8
0
 62
7
100
AcDbPolyline
 90
1
 70
1
 10
165.003504
 20
-70.987419
 30
0.0
  0
SPLINE
  5
1b8
100
AcDbEntity
  8
0
 62
7
100
AcDbSpline
 70
8
 71
3
 72
8
 73
4
 74
0
 40
0
 40
0
 40
0
 40
0
 40
1
 40
1
 40
1
 40
1
 10
24.281166
 20
-60.843930
 30
0.0
 10
24.281166
 20
-61.323465
 30
0.0
 10
24.025337
 20
-61.766574
 30
0.0
 10
23.610046
 20
-62.006342
 30
0.0
  0
SPLINE
  5
1b9
100
AcDbEntity
  8
0
 62
7
100
AcDbSpline
 70
8
 71
3
 72
8
 73
4
 74
0
 40
0
 40
0
 40
0
 40
0
 40
1
 40
1
 40
1
 40
1
 10
23.610046
 20
-62.006342
 30
0.0
 10
23.194756
 20
-62.246110
 30
0.0
 10
22.683097
 20
-62.246110
 30
0.0
 10
22.267807
 20
-62.006342
 30
0.0
  0
SPLINE
  5
1ba
100
AcDbEntity
  8
0
 62
7
100
AcDbSpline
 70
8
 71
3
 72
8
 73
4
 74
0
 40
0
 40
0
 40
0
 40
0
 40
1
 40
1
 40
1
 40
1
 10
22.267807
 20
-62.006342
 30
0.0
 10
21.852517
 20
-61.766574
 30
0.0
 10
21.596687
 20
-61.323465
 30
0.0
 10
21.596687
 20
-60.843930
 30
0.0
  0
SPLINE
  5
1bb
100
AcDbEntity
  8
0
 62
7
100
AcDbSpline
 70
8
 71
3
 72
8
 73
4
 74
0
 40
0
 40
0
 40
0
 40
0
 40
1
 40
1
 40
1
 40
1
 10
21.596687
 20
-60.843930
 30
0.0
 10
21.596687
 20
-60.364394
 30
0.0
 10
21.852517
 20
-59.921285
 30
0.0
 10
22.267807
 20
-59.681517
 30
0.0
  0
SPLINE
  5
1bc
100
AcDbEntity
  8
0
 62
7
100
AcDbSpline
 70
8
 71
3
 72
8
 73
4
 74
0
 40
0
 40
0
 40
0
 40
0
 40
1
 40
1
 40
1
 40
1
 10
22.267807
 20
-59.681517
 30
0.0
 10
22.683097
 20
-59.441750
 30
0.0
 10
23.194756
 20
-59.441750
 30
0.0
 10
23.610046
 20
-59.681517
 30
0.0
  0
SPLINE
  5
1bd
100
AcDbEntity
  8
0
 62
7
100
AcDbSpline
 70
8
 71
3
 72
8
 73
4
 74
0
 40
0
 40
0
 40
0
 40
0
 40
1
 40
1
 40
1
 40
1
 10
23.610046
 20
-59.681517
 30
0.0
 10
24.025337
 20
-59.921285
 30
0.0
 10
24.281166
 20
-60.364394
 30
0.0
 10
24.281166
 20
-60.843930
 30
0.0
  0
LWPOLYLINE
  5
1be
100
AcDbEntity
  8
0
 62
7
100
AcDbPolyline
 90
1
 70
1
 10
185.289203
 20
-70.987419
 30
0.0
  0
SPLINE
  5
1bf
100
AcDbEntity
  8
0
 62
7
100
AcDbSpline
 70
8
 71
3
 72
8
 73
4
 74
0
 40
0
 40
0
 40
0
 40
0
 40
1
 40
1
 40
1
 40
1
 10
184.011583
 20
-60.843930
 30
0.0
 10
184.011583
 20
-61.323465
 30
0.0
 10
183.755753
 20
-61.766574
 30
0.0
 10
183.340463
 20
-62.006342
 30
0.0
  0
SPLINE
  5
1c0
100
AcDbEntity
  8
0
 62
7
100
AcDbSpline
 70
8
 71
3
 72
8
 73
4
 74
0
 40
0
 40
0
 40
0
 40
0
 40
1
 40
1
 40
1
 40
1
 10
183.340463
 20
-62.006342
 30
0.0
 10
182.925173
 20
-62.246110
 30
0.0
 10
182.413514
 20
-62.246110
 30
0.0
 10
181.998224
 20
-62.006342
 30
0.0
  0
SPLINE
  5
1c1
100
AcDbEntity
  8
0
 62
7
100
AcDbSpline
 70
8
 71
3
 72
8
 73
4
 74
0
 40
0
 40
0
 40
0
 40
0
 40
1
 40
1
 40
1
 40
1
 10
181.998224
 20
-62.006342
 30
0.0
 10
181.582934
 20
-61.766574
 30
0.0
 10
181.327104
 20
-61.323465
 30
0.0
 10
181.327104
 20
-60.843930
 30
0.0
  0
SPLINE
  5
1c2
100
AcDbEntity
  8
0
 62
7
100
AcDbSpline
 70
8
 71
3
 72
8
 73
4
 74
0
 40
0
 40
0
 40
0
 40
0
 40
1
 40
1
 40
1
 40
1
 10
181.327104
 20
-60.843930
 30
0.0
 10
181.327104
 20
-60.364394
 30
0.0
 10
181.582934
 20
-59.921285
 30
0.0
 10
181.998224
 20
-59.681517
 30
0.0
  0
SPLINE
  5
1c3
100
AcDbEntity
  8
0
 62
7
100
AcDbSpline
 70
8
 71
3
 72
8
 73
4
 74
0
 40
0
 40
0
 40
0
 40
0
 40
1
 40
1
 40
1
 40
1
 10
181.998224
 20
-59.681517
 30
0.0
 10
182.413514
 20
-59.441750
 30
0.0
 10
182.925173
 20
-59.441750
 30
0.0
 10
183.340463
 20
-59.681517
 30
0.0
  0
SPLINE
  5
1c4
100
AcDbEntity
  8
0
 62
7
100
AcDbSpline
 70
8
 71
3
 72
8
 73
4
 74
0
 40
0
 40
0
 40
0
 40
0
 40
1
 40
1
 40
1
 40
1
 10
183.340463
 20
-59.681517
 30
0.0
 10
183.755753
 20
-59.921285
 30
0.0
 10
184.011583
 20
-60.364394
 30
0.0
 10
184.011583
 20
-60.843930
 30
0.0
  0
LWPOLYLINE
  5
1c5
100
AcDbEntity
  8
0
 62
7
100
AcDbPolyline
 90
1
 70
1
 10
24.281166
 20
-60.843930
 30
0.0
  0
SPLINE
  5
1c6
100
AcDbEntity
  8
0
 62
7
100
AcDbSpline
 70
8
 71
3
 72
8
 73
4
 74
0
 40
0
 40
0
 40
0
 40
0
 40
1
 40
1
 40
1
 40
1
 10
23.003546
 20
-50.700441
 30
0.0
 10
23.003546
 20
-51.179976
 30
0.0
 10
22.747717
 20
-51.623085
 30
0.0
 10
22.332426
 20
-51.862853
 30
0.0
  0
SPLINE
  5
1c7
100
AcDbEntity
  8
0
 62
7
100
AcDbSpline
 70
8
 71
3
 72
8
 73
4
 74
0
 40
0
 40
0
 40
0
 40
0
 40
1
 40
1
 40
1
 40
1
 10
22.332426
 20
-51.862853
 30
0.0
 10
21.917136
 20
-52.102621
 30
0.0
 10
21.405477
 20
-52.102621
 30
0.0
 10
20.990187
 20
-51.862853
 30
0.0
  0
SPLINE
  5
1c8
100
AcDbEntity
  8
0
 62
7
100
AcDbSpline
 70
8
 71
3
 72
8
 73
4
 74
0
 40
0
 40
0
 40
0
 40
0
 40
1
 40
1
 40
1
 40
1
 10
20.990187
 20
-51.862853
 30
0.0
 10
20.574897
 20
-51.623085
 30
0.0
 10
20.319068
 20
-51.179976
 30
0.0
 10
20.319068
 20
-50.700441
 30
0.0
  0
SPLINE
  5
1c9
100
AcDbEntity
  8
0
 62
7
100
AcDbSpline
 70
8
 71
3
 72
8
 73
4
 74
0
 40
0
 40
0
 40
0
 40
0
 40
1
 40
1
 40
1
 40
1
 10
20.319068
 20
-50.700441
 30
0.0
 10
20.319068
 20
-50.220905
 30
0.0
 10
20.574897
 20
-49.777796
 30
0.0
 10
20.990187
 20
-49.538028
 30
0.0
  0
SPLINE
  5
1ca
100
AcDbEntity
  8
0
 62
7
100
AcDbSpline
 70
8
 71
3
 72
8
 73
4
 74
0
 40
0
 40
0
 40
0
 40
0
 40
1
 40
1
 40
1
 40
1
 10
20.990187
 20
-49.538028
 30
0.0
 10
21.405477
 20
-49.298261
 30
0.0
 10
21.917136
 20
-49.298261
 30
0.0
 10
22.332426
 20
-49.538028
 30
0.0
  0
SPLINE
  5
1cb
100
AcDbEntity
  8
0
 62
7
100
AcDbSpline
 70
8
 71
3
 72
8
 73
4
 74
0
 40
0
 40
0
 40
0
 40
0
 40
1
 40
1
 40
1
 40
1
 10
22.332426
 20
-49.538028
 30
0.0
 10
22.747717
 20
-49.777796
 30
0.0
 10
23.003546
 20
-50.220905
 30
0.0
 10
23.003546
 20
-50.700441
 30
0.0
  0
LWPOLYLINE
  5
1cc
100
AcDbEntity
  8
0
 62
7
100
AcDbPolyline
 90
1
 70
1
 10
184.011583
 20
-60.843930
 30
0.0
  0
SPLINE
  5
1cd
100
AcDbEntity
  8
0
 62
7
100
AcDbSpline
 70
8
 71
3
 72
8
 73
4
 74
0
 40
0
 40
0
 40
0
 40
0
 40
1
 40
1
 40
1
 40
1
 10
43.289254
 20
-50.700441
 30
0.0
 10
43.289254
 20
-51.179976
 30
0.0
 10
43.033425
 20
-51.623085
 30
0.0
 10
42.618134
 20
-51.862853
 30
0.0
  0
SPLINE
  5
1ce
100
AcDbEntity
  8
0
 62
7
100
AcDbSpline
 70
8
 71
3
 72
8
 73
4
 74
0
 40
0
 40
0
 40
0
 40
0
 40
1
 40
1
 40
1
 40
1
 10
42.618134
 20
-51.862853
 30
0.0
 10
42.202844
 20
-52.102621
 30
0.0
 10
41.691185
 20
-52.102621
 30
0.0
 10
41.275895
 20
-51.862853
 30
0.0
  0
SPLINE
  5
1cf
100
AcDbEntity
  8
0
 62
7
100
AcDbSpline
 70
8
 71
3
 72
8
 73
4
 74
0
 40
0
 40
0
 40
0
 40
0
 40
1
 40
1
 40
1
 40
1
 10
41.275895
 20
-51.862853
 30
0.0
 10
40.860605
 20
-51.623085
 30
0.0
 10
40.604776
 20
-51.179976
 30
0.0
 10
40.604776
 20
-50.700441
 30
0.0
  0
SPLINE
  5
1d0
100
AcDbEntity
  8
0
 62
7
100
AcDbSpline
 70
8
 71
3
 72
8
 73
4
 74
0
 40
0
 40
0
 40
0
 40
0
 40
1
 40
1
 40
1
 40
1
 10
40.604776
 20
-50.700441
 30
0.0
 10
40.604776
 20
-50.220905
 30
0.0
 10
40.860605
 20
-49.777796
 30
0.0
 10
41.275895
 20
-49.538028
 30
0.0
  0
SPLINE
  5
1d1
100
AcDbEntity
  8
0
 62
7
100
AcDbSpline
 70
8
 71
3
 72
8
 73
4
 74
0
 40
0
 40
0
 40
0
 40
0
 40
1
 40
1
 40
1
 40
1
 10
41.275895
 20
-49.538028
 30
0.0
 10
41.691185
 20
-49.298261
 30
0.0
 10
42.202844
 20
-49.298261
 30
0.0
 10
42.618134
 20
-49.538028
 30
0.0
  0
SPLINE
  5
1d2
100
AcDbEntity
  8
0
 62
7
100
AcDbSpline
 70
8
 71
3
 72
8
 73
4
 74
0
 40
0
 40
0
 40
0
 40
0
 40
1
 40
1
 40
1
 40
1
 10
42.618134
 20
-49.538028
 30
0.0
 10
43.033425
 20
-49.777796
 30
0.0
 10
43.289254
 20
-50.220905
 30
0.0
 10
43.289254
 20
-50.700441
 30
0.0
  0
LWPOLYLINE
  5
1d3
100
AcDbEntity
  8
0
 62
7
100
AcDbPolyline
 90
1
 70
1
 10
23.003546
 20
-50.700441
 30
0.0
  0
SPLINE
  5
1d4
100
AcDbEntity
  8
0
 62
7
100
AcDbSpline
 70
8
 71
3
 72
8
 73
4
 74
0
 40
0
 40
0
 40
0
 40
0
 40
1
 40
1
 40
1
 40
1
 10
63.574962
 20
-50.700441
 30
0.0
 10
63.574962
 20
-51.179976
 30
0.0
 10
63.319133
 20
-51.623085
 30
0.0
 10
62.903843
 20
-51.862853
 30
0.0
  0
SPLINE
  5
1d5
100
AcDbEntity
  8
0
 62
7
100
AcDbSpline
 70
8
 71
3
 72
8
 73
4
 74
0
 40
0
 40
0
 40
0
 40
0
 40
1
 40
1
 40
1
 40
1
 10
62.903843
 20
-51.862853
 30
0.0
 10
62.488552
 20
-52.102621
 30
0.0
 10
61.976894
 20
-52.102621
 30
0.0
 10
61.561604
 20
-51.862853
 30
0.0
  0
SPLINE
  5
1d6
100
AcDbEntity
  8
0
 62
7
100
AcDbSpline
 70
8
 71
3
 72
8
 73
4
 74
0
 40
0
 40
0
 40
0
 40
0
 40
1
 40
1
 40
1
 40
1
 10
61.561604
 20
-51.862853
 30
0.0
 10
61.146313
 20
-51.623085
 30
0.0
 10
60.890484
 20
-51.179976
 30
0.0
 10
60.890484
 20
-50.700441
 30
0.0
  0
SPLINE
  5
1d7
100
AcDbEntity
  8
0
 62
7
100
AcDbSpline
 70
8
 71
3
 72
8
 73
4
 74
0
 40
0
 40
0
 40
0
 40
0
 40
1
 40
1
 40
1
 40
1
 10
60.890484
 20
-50.700441
 30
0.0
 10
60.890484
 20
-50.220905
 30
0.0
 10
61.146313
 20
-49.777796
 30
0.0
 10
61.561604
 20
-49.538028
 30
0.0
  0
SPLINE
  5
1d8
100
AcDbEntity
  8
0
 62
7
100
AcDbSpline
 70
8
 71
3
 72
8
 73
4
 74
0
 40
0
 40
0
 40
0
 40
0
 40
1
 40
1
 40
1
 40
1
 10
61.561604
 20
-49.538028
 30
0.0
 10
61.976894
 20
-49.298261
 30
0.0
 10
62.488552
 20
-49.298261
 30
0.0
 10
62.903843
 20
-49.538028
 30
0.0
  0
SPLINE
  5
1d9
100
AcDbEntity
  8
0
 62
7
100
AcDbSpline
 70
8
 71
3
 72
8
 73
4
 74
0
 40
0
 40
0
 40
0
 40
0
 40
1
 40
1
 40
1
 40
1
 10
62.903843
 20
-49.538028
 30
0.0
 10
63.319133
 20
-49.777796
 30
0.0
 10
63.574962
 20
-50.220905
 30
0.0
 10
63.574962
 20
-50.700441
 30
0.0
  0
LWPOLYLINE
  5
1da
100
AcDbEntity
  8
0
 62
7
100
AcDbPolyline
 90
1
 70
1
 10
43.289254
 20
-50.700441
 30
0.0
  0
SPLINE
  5
1db
100
AcDbEntity
  8
0
 62
7
100
AcDbSpline
 70
8
 71
3
 72
8
 73
4
 74
0
 40
0
 40
0
 40
0
 40
0
 40
1
 40
1
 40
1
 40
1
 10
83.860671
 20
-50.700441
 30
0.0
 10
83.860671
 20
-51.179976
 30
0.0
 10
83.604841
 20
-51.623085
 30
0.0
 10
83.189551
 20
-51.862853
 30
0.0
  0
SPLINE
  5
1dc
100
AcDbEntity
  8
0
 62
7
100
AcDbSpline
 70
8
 71
3
 72
8
 73
4
 74
0
 40
0
 40
0
 40
0
 40
0
 40
1
 40
1
 40
1
 40
1
 10
83.189551
 20
-51.862853
 30
0.0
 10
82.774261
 20
-52.102621
 30
0.0
 10
82.262602
 20
-52.102621
 30
0.0
 10
81.847312
 20
-51.862853
 30
0.0
  0
SPLINE
  5
1dd
100
AcDbEntity
  8
0
 62
7
100
AcDbSpline
 70
8
 71
3
 72
8
 73
4
 74
0
 40
0
 40
0
 40
0
 40
0
 40
1
 40
1
 40
1
 40
1
 10
81.847312
 20
-51.862853
 30
0.0
 10
81.432022
 20
-51.623085
 30
0.0
 10
81.176192
 20
-51.179976
 30
0.0
 10
81.176192
 20
-50.700441
 30
0.0
  0
SPLINE
  5
1de
100
AcDbEntity
  8
0
 62
7
100
AcDbSpline
 70
8
 71
3
 72
8
 73
4
 74
0
 40
0
 40
0
 40
0
 40
0
 40
1
 40
1
 40
1
 40
1
 10
81.176192
 20
-50.700441
 30
0.0
 10
81.176192
 20
-50.220905
 30
0.0
 10
81.432022
 20
-49.777796
 30
0.0
 10
81.847312
 20
-49.538028
 30
0.0
  0
SPLINE
  5
1df
100
AcDbEntity
  8
0
 62
7
100
AcDbSpline
 70
8
 71
3
 72
8
 73
4
 74
0
 40
0
 40
0
 40
0
 40
0
 40
1
 40
1
 40
1
 40
1
 10
81.847312
 20
-49.538028
 30
0.0
 10
82.262602
 20
-49.298261
 30
0.0
 10
82.774261
 20
-49.298261
 30
0.0
 10
83.189551
 20
-49.538028
 30
0.0
  0
SPLINE
  5
1e0
100
AcDbEntity
  8
0
 62
7
100
AcDbSpline
 70
8
 71
3
 72
8
 73
4
 74
0
 40
0
 40
0
 40
0
 40
0
 40
1
 40
1
 40
1
 40
1
 10
83.189551
 20
-49.538028
 30
0.0
 10
83.604841
 20
-49.777796
 30
0.0
 10
83.860671
 20
-50.220905
 30
0.0
 10
83.860671
 20
-50.700441
 30
0.0
  0
LWPOLYLINE
  5
1e1
100
AcDbEntity
  8
0
 62
7
100
AcDbPolyline
 90
1
 70
1
 10
63.574962
 20
-50.700441
 30
0.0
  0
SPLINE
  5
1e2
100
AcDbEntity
  8
0
 62
7
100
AcDbSpline
 70
8
 71
3
 72
8
 73
4
 74
0
 40
0
 40
0
 40
0
 40
0
 40
1
 40
1
 40
1
 40
1
 10
104.146379
 20
-50.700441
 30
0.0
 10
104.146379
 20
-51.179976
 30
0.0
 10
103.890550
 20
-51.623085
 30
0.0
 10
103.475260
 20
-51.862853
 30
0.0
  0
SPLINE
  5
1e3
100
AcDbEntity
  8
0
 62
7
100
AcDbSpline
 70
8
 71
3
 72
8
 73
4
 74
0
 40
0
 40
0
 40
0
 40
0
 40
1
 40
1
 40
1
 40
1
 10
103.475260
 20
-51.862853
 30
0.0
 10
103.059969
 20
-52.102621
 30
0.0
 10
102.548311
 20
-52.102621
 30
0.0
 10
102.133020
 20
-51.862853
 30
0.0
  0
SPLINE
  5
1e4
100
AcDbEntity
  8
0
 62
7
100
AcDbSpline
 70
8
 71
3
 72
8
 73
4
 74
0
 40
0
 40
0
 40
0
 40
0
 40
1
 40
1
 40
1
 40
1
 10
102.133020
 20
-51.862853
 30
0.0
 10
101.717730
 20
-51.623085
 30
0.0
 10
101.461901
 20
-51.179976
 30
0.0
 10
101.461901
 20
-50.700441
 30
0.0
  0
SPLINE
  5
1e5
100
AcDbEntity
  8
0
 62
7
100
AcDbSpline
 70
8
 71
3
 72
8
 73
4
 74
0
 40
0
 40
0
 40
0
 40
0
 40
1
 40
1
 40
1
 40
1
 10
101.461901
 20
-50.700441
 30
0.0
 10
101.461901
 20
-50.220905
 30
0.0
 10
101.717730
 20
-49.777796
 30
0.0
 10
102.133020
 20
-49.538028
 30
0.0
  0
SPLINE
  5
1e6
100
AcDbEntity
  8
0
 62
7
100
AcDbSpline
 70
8
 71
3
 72
8
 73
4
 74
0
 40
0
 40
0
 40
0
 40
0
 40
1
 40
1
 40
1
 40
1
 10
102.133020
 20
-49.538028
 30
0.0
 10
102.548311
 20
-49.298261
 30
0.0
 10
103.059969
 20
-49.298261
 30
0.0
 10
103.475260
 20
-49.538028
 30
0.0
  0
SPLINE
  5
1e7
100
AcDbEntity
  8
0
 62
7
100
AcDbSpline
 70
8
 71
3
 72
8
 73
4
 74
0
 40
0
 40
0
 40
0
 40
0
 40
1
 40
1
 40
1
 40
1
 10
103.475260
 20
-49.538028
 30
0.0
 10
103.890550
 20
-49.777796
 30
0.0
 10
104.146379
 20
-50.220905
 30
0.0
 10
104.146379
 20
-50.700441
 30
0.0
  0
LWPOLYLINE
  5
1e8
100
AcDbEntity
  8
0
 62
7
100
AcDbPolyline
 90
1
 70
1
 10
83.860671
 20
-50.700441
 30
0.0
  0
SPLINE
  5
1e9
100
AcDbEntity
  8
0
 62
7
100
AcDbSpline
 70
8
 71
3
 72
8
 73
4
 74
0
 40
0
 40
0
 40
0
 40
0
 40
1
 40
1
 40
1
 40
1
 10
124.432088
 20
-50.700441
 30
0.0
 10
124.432088
 20
-51.179976
 30
0.0
 10
124.176258
 20
-51.623085
 30
0.0
 10
123.760968
 20
-51.862853
 30
0.0
  0
SPLINE
  5
1ea
100
AcDbEntity
  8
0
 62
7
100
AcDbSpline
 70
8
 71
3
 72
8
 73
4
 74
0
 40
0
 40
0
 40
0
 40
0
 40
1
 40
1
 40
1
 40
1
 10
123.760968
 20
-51.862853
 30
0.0
 10
123.345678
 20
-52.102621
 30
0.0
 10
122.834019
 20
-52.102621
 30
0.0
 10
122.418729
 20
-51.862853
 30
0.0
  0
SPLINE
  5
1eb
100
AcDbEntity
  8
0
 62
7
100
AcDbSpline
 70
8
 71
3
 72
8
 73
4
 74
0
 40
0
 40
0
 40
0
 40
0
 40
1
 40
1
 40
1
 40
1
 10
122.418729
 20
-51.862853
 30
0.0
 10
122.003439
 20
-51.623085
 30
0.0
 10
121.747609
 20
-51.179976
 30
0.0
 10
121.747609
 20
-50.700441
 30
0.0
  0
SPLINE
  5
1ec
100
AcDbEntity
  8
0
 62
7
100
AcDbSpline
 70
8
 71
3
 72
8
 73
4
 74
0
 40
0
 40
0
 40
0
 40
0
 40
1
 40
1
 40
1
 40
1
 10
121.747609
 20
-50.700441
 30
0.0
 10
121.747609
 20
-50.220905
 30
0.0
 10
122.003439
 20
-49.777796
 30
0.0
 10
122.418729
 20
-49.538028
 30
0.0
  0
SPLINE
  5
1ed
100
AcDbEntity
  8
0
 62
7
100
AcDbSpline
 70
8
 71
3
 72
8
 73
4
 74
0
 40
0
 40
0
 40
0
 40
0
 40
1
 40
1
 40
1
 40
1
 10
122.418729
 20
-49.538028
 30
0.0
 10
122.834019
 20
-49.298261
 30
0.0
 10
123.345678
 20
-49.298261
 30
0.0
 10
123.760968
 20
-49.538028
 30
0.0
  0
SPLINE
  5
1ee
100
AcDbEntity
  8
0
 62
7
100
AcDbSpline
 70
8
 71
3
 72
8
 73
4
 74
0
 40
0
 40
0
 40
0
 40
0
 40
1
 40
1
 40
1
 40
1
 10
123.760968
 20
-49.538028
 30
0.0
 10
124.176258
 20
-49.777796
 30
0.0
 10
124.432088
 20
-50.220905
 30
0.0
 10
124.432088
 20
-50.700441
 30
0.0
  0
LWPOLYLINE
  5
1ef
100
AcDbEntity
  8
0
 62
7
100
AcDbPolyline
 90
1
 70
1
 10
104.146379
 20
-50.700441
 30
0.0
  0
SPLINE
  5
1f0
100
AcDbEntity
  8
0
 62
7
100
AcDbSpline
 70
8
 71
3
 72
8
 73
4
 74
0
 40
0
 40
0
 40
0
 40
0
 40
1
 40
1
 40
1
 40
1
 10
144.717796
 20
-50.700441
 30
0.0
 10
144.717796
 20
-51.179976
 30
0.0
 10
144.461967
 20
-51.623085
 30
0.0
 10
144.046676
 20
-51.862853
 30
0.0
  0
SPLINE
  5
1f1
100
AcDbEntity
  8
0
 62
7
100
AcDbSpline
 70
8
 71
3
 72
8
 73
4
 74
0
 40
0
 40
0
 40
0
 40
0
 40
1
 40
1
 40
1
 40
1
 10
144.046676
 20
-51.862853
 30
0.0
 10
143.631386
 20
-52.102621
 30
0.0
 10
143.119728
 20
-52.102621
 30
0.0
 10
142.704437
 20
-51.862853
 30
0.0
  0
SPLINE
  5
1f2
100
AcDbEntity
  8
0
 62
7
100
AcDbSpline
 70
8
 71
3
 72
8
 73
4
 74
0
 40
0
 40
0
 40
0
 40
0
 40
1
 40
1
 40
1
 40
1
 10
142.704437
 20
-51.862853
 30
0.0
 10
142.289147
 20
-51.623085
 30
0.0
 10
142.033318
 20
-51.179976
 30
0.0
 10
142.033318
 20
-50.700441
 30
0.0
  0
SPLINE
  5
1f3
100
AcDbEntity
  8
0
 62
7
100
AcDbSpline
 70
8
 71
3
 72
8
 73
4
 74
0
 40
0
 40
0
 40
0
 40
0
 40
1
 40
1
 40
1
 40
1
 10
142.033318
 20
-50.700441
 30
0.0
 10
142.033318
 20
-50.220905
 30
0.0
 10
142.289147
 20
-49.777796
 30
0.0
 10
142.704437
 20
-49.538028
 30
0.0
  0
SPLINE
  5
1f4
100
AcDbEntity
  8
0
 62
7
100
AcDbSpline
 70
8
 71
3
 72
8
 73
4
 74
0
 40
0
 40
0
 40
0
 40
0
 40
1
 40
1
 40
1
 40
1
 10
142.704437
 20
-49.538028
 30
0.0
 10
143.119728
 20
-49.298261
 30
0.0
 10
143.631386
 20
-49.298261
 30
0.0
 10
144.046676
 20
-49.538028
 30
0.0
  0
SPLINE
  5
1f5
100
AcDbEntity
  8
0
 62
7
100
AcDbSpline
 70
8
 71
3
 72
8
 73
4
 74
0
 40
0
 40
0
 40
0
 40
0
 40
1
 40
1
 40
1
 40
1
 10
144.046676
 20
-49.538028
 30
0.0
 10
144.461967
 20
-49.777796
 30
0.0
 10
144.717796
 20
-50.220905
 30
0.0
 10
144.717796
 20
-50.700441
 30
0.0
  0
LWPOLYLINE
  5
1f6
100
AcDbEntity
  8
0
 62
7
100
AcDbPolyline
 90
1
 70
1
 10
124.432088
 20
-50.700441
 30
0.0
  0
SPLINE
  5
1f7
100
AcDbEntity
  8
0
 62
7
100
AcDbSpline
 70
8
 71
3
 72
8
 73
4
 74
0
 40
0
 40
0
 40
0
 40
0
 40
1
 40
1
 40
1
 40
1
 10
165.003504
 20
-50.700441
 30
0.0
 10
165.003504
 20
-51.179976
 30
0.0
 10
164.747675
 20
-51.623085
 30
0.0
 10
164.332385
 20
-51.862853
 30
0.0
  0
SPLINE
  5
1f8
100
AcDbEntity
  8
0
 62
7
100
AcDbSpline
 70
8
 71
3
 72
8
 73
4
 74
0
 40
0
 40
0
 40
0
 40
0
 40
1
 40
1
 40
1
 40
1
 10
164.332385
 20
-51.862853
 30
0.0
 10
163.917095
 20
-52.102621
 30
0.0
 10
163.405436
 20
-52.102621
 30
0.0
 10
162.990146
 20
-51.862853
 30
0.0
  0
SPLINE
  5
1f9
100
AcDbEntity
  8
0
 62
7
100
AcDbSpline
 70
8
 71
3
 72
8
 73
4
 74
0
 40
0
 40
0
 40
0
 40
0
 40
1
 40
1
 40
1
 40
1
 10
162.990146
 20
-51.862853
 30
0.0
 10
162.574855
 20
-51.623085
 30
0.0
 10
162.319026
 20
-51.179976
 30
0.0
 10
162.319026
 20
-50.700441
 30
0.0
  0
SPLINE
  5
1fa
100
AcDbEntity
  8
0
 62
7
100
AcDbSpline
 70
8
 71
3
 72
8
 73
4
 74
0
 40
0
 40
0
 40
0
 40
0
 40
1
 40
1
 40
1
 40
1
 10
162.319026
 20
-50.700441
 30
0.0
 10
162.319026
 20
-50.220905
 30
0.0
 10
162.574855
 20
-49.777796
 30
0.0
 10
162.990146
 20
-49.538028
 30
0.0
  0
SPLINE
  5
1fb
100
AcDbEntity
  8
0
 62
7
100
AcDbSpline
 70
8
 71
3
 72
8
 73
4
 74
0
 40
0
 40
0
 40
0
 40
0
 40
1
 40
1
 40
1
 40
1
 10
162.990146
 20
-49.538028
 30
0.0
 10
163.405436
 20
-49.298261
 30
0.0
 10
163.917095
 20
-49.298261
 30
0.0
 10
164.332385
 20
-49.538028
 30
0.0
  0
SPLINE
  5
1fc
100
AcDbEntity
  8
0
 62
7
100
AcDbSpline
 70
8
 71
3
 72
8
 73
4
 74
0
 40
0
 40
0
 40
0
 40
0
 40
1
 40
1
 40
1
 40
1
 10
164.332385
 20
-49.538028
 30
0.0
 10
164.747675
 20
-49.777796
 30
0.0
 10
165.003504
 20
-50.220905
 30
0.0
 10
165.003504
 20
-50.700441
 30
0.0
  0
LWPOLYLINE
  5
1fd
100
AcDbEntity
  8
0
 62
7
100
AcDbPolyline
 90
1
 70
1
 10
144.717796
 20
-50.700441
 30
0.0
  0
SPLINE
  5
1fe
100
AcDbEntity
  8
0
 62
7
100
AcDbSpline
 70
8
 71
3
 72
8
 73
4
 74
0
 40
0
 40
0
 40
0
 40
0
 40
1
 40
1
 40
1
 40
1
 10
185.289203
 20
-50.700441
 30
0.0
 10
185.289203
 20
-51.179976
 30
0.0
 10
185.033373
 20
-51.623085
 30
0.0
 10
184.618083
 20
-51.862853
 30
0.0
  0
SPLINE
  5
1ff
100
AcDbEntity
  8
0
 62
7
100
AcDbSpline
 70
8
 71
3
 72
8
 73
4
 74
0
 40
0
 40
0
 40
0
 40
0
 40
1
 40
1
 40
1
 40
1
 10
184.618083
 20
-51.862853
 30
0.0
 10
184.202793
 20
-52.102621
 30
0.0
 10
183.691134
 20
-52.102621
 30
0.0
 10
183.275844
 20
-51.862853
 30
0.0
  0
SPLINE
  5
200
100
AcDbEntity
  8
0
 62
7
100
AcDbSpline
 70
8
 71
3
 72
8
 73
4
 74
0
 40
0
 40
0
 40
0
 40
0
 40
1
 40
1
 40
1
 40
1
 10
183.275844
 20
-51.862853
 30
0.0
 10
182.860554
 20
-51.623085
 30
0.0
 10
182.604724
 20
-51.179976
 30
0.0
 10
182.604724
 20
-50.700441
 30
0.0
  0
SPLINE
  5
201
100
AcDbEntity
  8
0
 62
7
100
AcDbSpline
 70
8
 71
3
 72
8
 73
4
 74
0
 40
0
 40
0
 40
0
 40
0
 40
1
 40
1
 40
1
 40
1
 10
182.604724
 20
-50.700441
 30
0.0
 10
182.604724
 20
-50.220905
 30
0.0
 10
182.860554
 20
-49.777796
 30
0.0
 10
183.275844
 20
-49.538028
 30
0.0
  0
SPLINE
  5
202
100
AcDbEntity
  8
0
 62
7
100
AcDbSpline
 70
8
 71
3
 72
8
 73
4
 74
0
 40
0
 40
0
 40
0
 40
0
 40
1
 40
1
 40
1
 40
1
 10
183.275844
 20
-49.538028
 30
0.0
 10
183.691134
 20
-49.298261
 30
0.0
 10
184.202793
 20
-49.298261
 30
0.0
 10
184.618083
 20
-49.538028
 30
0.0
  0
SPLINE
  5
203
100
AcDbEntity
  8
0
 62
7
100
AcDbSpline
 70
8
 71
3
 72
8
 73
4
 74
0
 40
0
 40
0
 40
0
 40
0
 40
1
 40
1
 40
1
 40
1
 10
184.618083
 20
-49.538028
 30
0.0
 10
185.033373
 20
-49.777796
 30
0.0
 10
185.289203
 20
-50.220905
 30
0.0
 10
185.289203
 20
-50.700441
 30
0.0
  0
LWPOLYLINE
  5
204
100
AcDbEntity
  8
0
 62
7
100
AcDbPolyline
 90
1
 70
1
 10
165.003504
 20
-50.700441
 30
0.0
  0
SPLINE
  5
205
100
AcDbEntity
  8
0
 62
7
100
AcDbSpline
 70
8
 71
3
 72
8
 73
4
 74
0
 40
0
 40
0
 40
0
 40
0
 40
1
 40
1
 40
1
 40
1
 10
25.279386
 20
-31.893015
 30
0.0
 10
25.279386
 20
-32.372550
 30
0.0
 10
25.023556
 20
-32.815659
 30
0.0
 10
24.608266
 20
-33.055427
 30
0.0
  0
SPLINE
  5
206
100
AcDbEntity
  8
0
 62
7
100
AcDbSpline
 70
8
 71
3
 72
8
 73
4
 74
0
 40
0
 40
0
 40
0
 40
0
 40
1
 40
1
 40
1
 40
1
 10
24.608266
 20
-33.055427
 30
0.0
 10
24.192976
 20
-33.295195
 30
0.0
 10
23.681317
 20
-33.295195
 30
0.0
 10
23.266027
 20
-33.055427
 30
0.0
  0
SPLINE
  5
207
100
AcDbEntity
  8
0
 62
7
100
AcDbSpline
 70
8
 71
3
 72
8
 73
4
 74
0
 40
0
 40
0
 40
0
 40
0
 40
1
 40
1
 40
1
 40
1
 10
23.266027
 20
-33.055427
 30
0.0
 10
22.850737
 20
-32.815659
 30
0.0
 10
22.594907
 20
-32.372550
 30
0.0
 10
22.594907
 20
-31.893015
 30
0.0
  0
SPLINE
  5
208
100
AcDbEntity
  8
0
 62
7
100
AcDbSpline
 70
8
 71
3
 72
8
 73
4
 74
0
 40
0
 40
0
 40
0
 40
0
 40
1
 40
1
 40
1
 40
1
 10
22.594907
 20
-31.893015
 30
0.0
 10
22.594907
 20
-31.413479
 30
0.0
 10
22.850737
 20
-30.970370
 30
0.0
 10
23.266027
 20
-30.730602
 30
0.0
  0
SPLINE
  5
209
100
AcDbEntity
  8
0
 62
7
100
AcDbSpline
 70
8
 71
3
 72
8
 73
4
 74
0
 40
0
 40
0
 40
0
 40
0
 40
1
 40
1
 40
1
 40
1
 10
23.266027
 20
-30.730602
 30
0.0
 10
23.681317
 20
-30.490835
 30
0.0
 10
24.192976
 20
-30.490835
 30
0.0
 10
24.608266
 20
-30.730602
 30
0.0
  0
SPLINE
  5
20a
100
AcDbEntity
  8
0
 62
7
100
AcDbSpline
 70
8
 71
3
 72
8
 73
4
 74
0
 40
0
 40
0
 40
0
 40
0
 40
1
 40
1
 40
1
 40
1
 10
24.608266
 20
-30.730602
 30
0.0
 10
25.023556
 20
-30.970370
 30
0.0
 10
25.279386
 20
-31.413479
 30
0.0
 10
25.279386
 20
-31.893015
 30
0.0
  0
LWPOLYLINE
  5
20b
100
AcDbEntity
  8
0
 62
7
100
AcDbPolyline
 90
1
 70
1
 10
185.289203
 20
-50.700441
 30
0.0
  0
SPLINE
  5
20c
100
AcDbEntity
  8
0
 62
7
100
AcDbSpline
 70
8
 71
3
 72
8
 73
4
 74
0
 40
0
 40
0
 40
0
 40
0
 40
1
 40
1
 40
1
 40
1
 10
43.289254
 20
-30.416005
 30
0.0
 10
43.289254
 20
-30.895540
 30
0.0
 10
43.033425
 20
-31.338649
 30
0.0
 10
42.618134
 20
-31.578417
 30
0.0
  0
SPLINE
  5
20d
100
AcDbEntity
  8
0
 62
7
100
AcDbSpline
 70
8
 71
3
 72
8
 73
4
 74
0
 40
0
 40
0
 40
0
 40
0
 40
1
 40
1
 40
1
 40
1
 10
42.618134
 20
-31.578417
 30
0.0
 10
42.202844
 20
-31.818185
 30
0.0
 10
41.691185
 20
-31.818185
 30
0.0
 10
41.275895
 20
-31.578417
 30
0.0
  0
SPLINE
  5
20e
100
AcDbEntity
  8
0
 62
7
100
AcDbSpline
 70
8
 71
3
 72
8
 73
4
 74
0
 40
0
 40
0
 40
0
 40
0
 40
1
 40
1
 40
1
 40
1
 10
41.275895
 20
-31.578417
 30
0.0
 10
40.860605
 20
-31.338649
 30
0.0
 10
40.604776
 20
-30.895540
 30
0.0
 10
40.604776
 20
-30.416005
 30
0.0
  0
SPLINE
  5
20f
100
AcDbEntity
  8
0
 62
7
100
AcDbSpline
 70
8
 71
3
 72
8
 73
4
 74
0
 40
0
 40
0
 40
0
 40
0
 40
1
 40
1
 40
1
 40
1
 10
40.604776
 20
-30.416005
 30
0.0
 10
40.604776
 20
-29.936469
 30
0.0
 10
40.860605
 20
-29.493360
 30
0.0
 10
41.275895
 20
-29.253592
 30
0.0
  0
SPLINE
  5
210
100
AcDbEntity
  8
0
 62
7
100
AcDbSpline
 70
8
 71
3
 72
8
 73
4
 74
0
 40
0
 40
0
 40
0
 40
0
 40
1
 40
1
 40
1
 40
1
 10
41.275895
 20
-29.253592
 30
0.0
 10
41.691185
 20
-29.013825
 30
0.0
 10
42.202844
 20
-29.013825
 30
0.0
 10
42.618134
 20
-29.253592
 30
0.0
  0
SPLINE
  5
211
100
AcDbEntity
  8
0
 62
7
100
AcDbSpline
 70
8
 71
3
 72
8
 73
4
 74
0
 40
0
 40
0
 40
0
 40
0
 40
1
 40
1
 40
1
 40
1
 10
42.618134
 20
-29.253592
 30
0.0
 10
43.033425
 20
-29.493360
 30
0.0
 10
43.289254
 20
-29.936469
 30
0.0
 10
43.289254
 20
-30.416005
 30
0.0
  0
LWPOLYLINE
  5
212
100
AcDbEntity
  8
0
 62
7
100
AcDbPolyline
 90
1
 70
1
 10
25.279386
 20
-31.893015
 30
0.0
  0
SPLINE
  5
213
100
AcDbEntity
  8
0
 62
7
100
AcDbSpline
 70
8
 71
3
 72
8
 73
4
 74
0
 40
0
 40
0
 40
0
 40
0
 40
1
 40
1
 40
1
 40
1
 10
63.574962
 20
-30.416005
 30
0.0
 10
63.574962
 20
-30.895540
 30
0.0
 10
63.319133
 20
-31.338649
 30
0.0
 10
62.903843
 20
-31.578417
 30
0.0
  0
SPLINE
  5
214
100
AcDbEntity
  8
0
 62
7
100
AcDbSpline
 70
8
 71
3
 72
8
 73
4
 74
0
 40
0
 40
0
 40
0
 40
0
 40
1
 40
1
 40
1
 40
1
 10
62.903843
 20
-31.578417
 30
0.0
 10
62.488552
 20
-31.818185
 30
0.0
 10
61.976894
 20
-31.818185
 30
0.0
 10
61.561604
 20
-31.578417
 30
0.0
  0
SPLINE
  5
215
100
AcDbEntity
  8
0
 62
7
100
AcDbSpline
 70
8
 71
3
 72
8
 73
4
 74
0
 40
0
 40
0
 40
0
 40
0
 40
1
 40
1
 40
1
 40
1
 10
61.561604
 20
-31.578417
 30
0.0
 10
61.146313
 20
-31.338649
 30
0.0
 10
60.890484
 20
-30.895540
 30
0.0
 10
60.890484
 20
-30.416005
 30
0.0
  0
SPLINE
  5
216
100
AcDbEntity
  8
0
 62
7
100
AcDbSpline
 70
8
 71
3
 72
8
 73
4
 74
0
 40
0
 40
0
 40
0
 40
0
 40
1
 40
1
 40
1
 40
1
 10
60.890484
 20
-30.416005
 30
0.0
 10
60.890484
 20
-29.936469
 30
0.0
 10
61.146313
 20
-29.493360
 30
0.0
 10
61.561604
 20
-29.253592
 30
0.0
  0
SPLINE
  5
217
100
AcDbEntity
  8
0
 62
7
100
AcDbSpline
 70
8
 71
3
 72
8
 73
4
 74
0
 40
0
 40
0
 40
0
 40
0
 40
1
 40
1
 40
1
 40
1
 10
61.561604
 20
-29.253592
 30
0.0
 10
61.976894
 20
-29.013825
 30
0.0
 10
62.488552
 20
-29.013825
 30
0.0
 10
62.903843
 20
-29.253592
 30
0.0
  0
SPLINE
  5
218
100
AcDbEntity
  8
0
 62
7
100
AcDbSpline
 70
8
 71
3
 72
8
 73
4
 74
0
 40
0
 40
0
 40
0
 40
0
 40
1
 40
1
 40
1
 40
1
 10
62.903843
 20
-29.253592
 30
0.0
 10
63.319133
 20
-29.493360
 30
0.0
 10
63.574962
 20
-29.936469
 30
0.0
 10
63.574962
 20
-30.416005
 30
0.0
  0
LWPOLYLINE
  5
219
100
AcDbEntity
  8
0
 62
7
100
AcDbPolyline
 90
1
 70
1
 10
43.289254
 20
-30.416005
 30
0.0
  0
SPLINE
  5
21a
100
AcDbEntity
  8
0
 62
7
100
AcDbSpline
 70
8
 71
3
 72
8
 73
4
 74
0
 40
0
 40
0
 40
0
 40
0
 40
1
 40
1
 40
1
 40
1
 10
83.860671
 20
-30.416005
 30
0.0
 10
83.860671
 20
-30.895540
 30
0.0
 10
83.604841
 20
-31.338649
 30
0.0
 10
83.189551
 20
-31.578417
 30
0.0
  0
SPLINE
  5
21b
100
AcDbEntity
  8
0
 62
7
100
AcDbSpline
 70
8
 71
3
 72
8
 73
4
 74
0
 40
0
 40
0
 40
0
 40
0
 40
1
 40
1
 40
1
 40
1
 10
83.189551
 20
-31.578417
 30
0.0
 10
82.774261
 20
-31.818185
 30
0.0
 10
82.262602
 20
-31.818185
 30
0.0
 10
81.847312
 20
-31.578417
 30
0.0
  0
SPLINE
  5
21c
100
AcDbEntity
  8
0
 62
7
100
AcDbSpline
 70
8
 71
3
 72
8
 73
4
 74
0
 40
0
 40
0
 40
0
 40
0
 40
1
 40
1
 40
1
 40
1
 10
81.847312
 20
-31.578417
 30
0.0
 10
81.432022
 20
-31.338649
 30
0.0
 10
81.176192
 20
-30.895540
 30
0.0
 10
81.176192
 20
-30.416005
 30
0.0
  0
SPLINE
  5
21d
100
AcDbEntity
  8
0
 62
7
100
AcDbSpline
 70
8
 71
3
 72
8
 73
4
 74
0
 40
0
 40
0
 40
0
 40
0
 40
1
 40
1
 40
1
 40
1
 10
81.176192
 20
-30.416005
 30
0.0
 10
81.176192
 20
-29.936469
 30
0.0
 10
81.432022
 20
-29.493360
 30
0.0
 10
81.847312
 20
-29.253592
 30
0.0
  0
SPLINE
  5
21e
100
AcDbEntity
  8
0
 62
7
100
AcDbSpline
 70
8
 71
3
 72
8
 73
4
 74
0
 40
0
 40
0
 40
0
 40
0
 40
1
 40
1
 40
1
 40
1
 10
81.847312
 20
-29.253592
 30
0.0
 10
82.262602
 20
-29.013825
 30
0.0
 10
82.774261
 20
-29.013825
 30
0.0
 10
83.189551
 20
-29.253592
 30
0.0
  0
SPLINE
  5
21f
100
AcDbEntity
  8
0
 62
7
100
AcDbSpline
 70
8
 71
3
 72
8
 73
4
 74
0
 40
0
 40
0
 40
0
 40
0
 40
1
 40
1
 40
1
 40
1
 10
83.189551
 20
-29.253592
 30
0.0
 10
83.604841
 20
-29.493360
 30
0.0
 10
83.860671
 20
-29.936469
 30
0.0
 10
83.860671
 20
-30.416005
 30
0.0
  0
LWPOLYLINE
  5
220
100
AcDbEntity
  8
0
 62
7
100
AcDbPolyline
 90
1
 70
1
 10
63.574962
 20
-30.416005
 30
0.0
  0
SPLINE
  5
221
100
AcDbEntity
  8
0
 62
7
100
AcDbSpline
 70
8
 71
3
 72
8
 73
4
 74
0
 40
0
 40
0
 40
0
 40
0
 40
1
 40
1
 40
1
 40
1
 10
104.146379
 20
-30.416005
 30
0.0
 10
104.146379
 20
-30.895540
 30
0.0
 10
103.890550
 20
-31.338649
 30
0.0
 10
103.475260
 20
-31.578417
 30
0.0
  0
SPLINE
  5
222
100
AcDbEntity
  8
0
 62
7
100
AcDbSpline
 70
8
 71
3
 72
8
 73
4
 74
0
 40
0
 40
0
 40
0
 40
0
 40
1
 40
1
 40
1
 40
1
 10
103.475260
 20
-31.578417
 30
0.0
 10
103.059969
 20
-31.818185
 30
0.0
 10
102.548311
 20
-31.818185
 30
0.0
 10
102.133020
 20
-31.578417
 30
0.0
  0
SPLINE
  5
223
100
AcDbEntity
  8
0
 62
7
100
AcDbSpline
 70
8
 71
3
 72
8
 73
4
 74
0
 40
0
 40
0
 40
0
 40
0
 40
1
 40
1
 40
1
 40
1
 10
102.133020
 20
-31.578417
 30
0.0
 10
101.717730
 20
-31.338649
 30
0.0
 10
101.461901
 20
-30.895540
 30
0.0
 10
101.461901
 20
-30.416005
 30
0.0
  0
SPLINE
  5
224
100
AcDbEntity
  8
0
 62
7
100
AcDbSpline
 70
8
 71
3
 72
8
 73
4
 74
0
 40
0
 40
0
 40
0
 40
0
 40
1
 40
1
 40
1
 40
1
 10
101.461901
 20
-30.416005
 30
0.0
 10
101.461901
 20
-29.936469
 30
0.0
 10
101.717730
 20
-29.493360
 30
0.0
 10
102.133020
 20
-29.253592
 30
0.0
  0
SPLINE
  5
225
100
AcDbEntity
  8
0
 62
7
100
AcDbSpline
 70
8
 71
3
 72
8
 73
4
 74
0
 40
0
 40
0
 40
0
 40
0
 40
1
 40
1
 40
1
 40
1
 10
102.133020
 20
-29.253592
 30
0.0
 10
102.548311
 20
-29.013825
 30
0.0
 10
103.059969
 20
-29.013825
 30
0.0
 10
103.475260
 20
-29.253592
 30
0.0
  0
SPLINE
  5
226
100
AcDbEntity
  8
0
 62
7
100
AcDbSpline
 70
8
 71
3
 72
8
 73
4
 74
0
 40
0
 40
0
 40
0
 40
0
 40
1
 40
1
 40
1
 40
1
 10
103.475260
 20
-29.253592
 30
0.0
 10
103.890550
 20
-29.493360
 30
0.0
 10
104.146379
 20
-29.936469
 30
0.0
 10
104.146379
 20
-30.416005
 30
0.0
  0
LWPOLYLINE
  5
227
100
AcDbEntity
  8
0
 62
7
100
AcDbPolyline
 90
1
 70
1
 10
83.860671
 20
-30.416005
 30
0.0
  0
SPLINE
  5
228
100
AcDbEntity
  8
0
 62
7
100
AcDbSpline
 70
8
 71
3
 72
8
 73
4
 74
0
 40
0
 40
0
 40
0
 40
0
 40
1
 40
1
 40
1
 40
1
 10
124.432088
 20
-30.416005
 30
0.0
 10
124.432088
 20
-30.895540
 30
0.0
 10
124.176258
 20
-31.338649
 30
0.0
 10
123.760968
 20
-31.578417
 30
0.0
  0
SPLINE
  5
229
100
AcDbEntity
  8
0
 62
7
100
AcDbSpline
 70
8
 71
3
 72
8
 73
4
 74
0
 40
0
 40
0
 40
0
 40
0
 40
1
 40
1
 40
1
 40
1
 10
123.760968
 20
-31.578417
 30
0.0
 10
123.345678
 20
-31.818185
 30
0.0
 10
122.834019
 20
-31.818185
 30
0.0
 10
122.418729
 20
-31.578417
 30
0.0
  0
SPLINE
  5
22a
100
AcDbEntity
  8
0
 62
7
100
AcDbSpline
 70
8
 71
3
 72
8
 73
4
 74
0
 40
0
 40
0
 40
0
 40
0
 40
1
 40
1
 40
1
 40
1
 10
122.418729
 20
-31.578417
 30
0.0
 10
122.003439
 20
-31.338649
 30
0.0
 10
121.747609
 20
-30.895540
 30
0.0
 10
121.747609
 20
-30.416005
 30
0.0
  0
SPLINE
  5
22b
100
AcDbEntity
  8
0
 62
7
100
AcDbSpline
 70
8
 71
3
 72
8
 73
4
 74
0
 40
0
 40
0
 40
0
 40
0
 40
1
 40
1
 40
1
 40
1
 10
121.747609
 20
-30.416005
 30
0.0
 10
121.747609
 20
-29.936469
 30
0.0
 10
122.003439
 20
-29.493360
 30
0.0
 10
122.418729
 20
-29.253592
 30
0.0
  0
SPLINE
  5
22c
100
AcDbEntity
  8
0
 62
7
100
AcDbSpline
 70
8
 71
3
 72
8
 73
4
 74
0
 40
0
 40
0
 40
0
 40
0
 40
1
 40
1
 40
1
 40
1
 10
122.418729
 20
-29.253592
 30
0.0
 10
122.834019
 20
-29.013825
 30
0.0
 10
123.345678
 20
-29.013825
 30
0.0
 10
123.760968
 20
-29.253592
 30
0.0
  0
SPLINE
  5
22d
100
AcDbEntity
  8
0
 62
7
100
AcDbSpline
 70
8
 71
3
 72
8
 73
4
 74
0
 40
0
 40
0
 40
0
 40
0
 40
1
 40
1
 40
1
 40
1
 10
123.760968
 20
-29.253592
 30
0.0
 10
124.176258
 20
-29.493360
 30
0.0
 10
124.432088
 20
-29.936469
 30
0.0
 10
124.432088
 20
-30.416005
 30
0.0
  0
LWPOLYLINE
  5
22e
100
AcDbEntity
  8
0
 62
7
100
AcDbPolyline
 90
1
 70
1
 10
104.146379
 20
-30.416005
 30
0.0
  0
SPLINE
  5
22f
100
AcDbEntity
  8
0
 62
7
100
AcDbSpline
 70
8
 71
3
 72
8
 73
4
 74
0
 40
0
 40
0
 40
0
 40
0
 40
1
 40
1
 40
1
 40
1
 10
144.717796
 20
-30.416005
 30
0.0
 10
144.717796
 20
-30.895540
 30
0.0
 10
144.461967
 20
-31.338649
 30
0.0
 10
144.046676
 20
-31.578417
 30
0.0
  0
SPLINE
  5
230
100
AcDbEntity
  8
0
 62
7
100
AcDbSpline
 70
8
 71
3
 72
8
 73
4
 74
0
 40
0
 40
0
 40
0
 40
0
 40
1
 40
1
 40
1
 40
1
 10
144.046676
 20
-31.578417
 30
0.0
 10
143.631386
 20
-31.818185
 30
0.0
 10
143.119728
 20
-31.818185
 30
0.0
 10
142.704437
 20
-31.578417
 30
0.0
  0
SPLINE
  5
231
100
AcDbEntity
  8
0
 62
7
100
AcDbSpline
 70
8
 71
3
 72
8
 73
4
 74
0
 40
0
 40
0
 40
0
 40
0
 40
1
 40
1
 40
1
 40
1
 10
142.704437
 20
-31.578417
 30
0.0
 10
142.289147
 20
-31.338649
 30
0.0
 10
142.033318
 20
-30.895540
 30
0.0
 10
142.033318
 20
-30.416005
 30
0.0
  0
SPLINE
  5
232
100
AcDbEntity
  8
0
 62
7
100
AcDbSpline
 70
8
 71
3
 72
8
 73
4
 74
0
 40
0
 40
0
 40
0
 40
0
 40
1
 40
1
 40
1
 40
1
 10
142.033318
 20
-30.416005
 30
0.0
 10
142.033318
 20
-29.936469
 30
0.0
 10
142.289147
 20
-29.493360
 30
0.0
 10
142.704437
 20
-29.253592
 30
0.0
  0
SPLINE
  5
233
100
AcDbEntity
  8
0
 62
7
100
AcDbSpline
 70
8
 71
3
 72
8
 73
4
 74
0
 40
0
 40
0
 40
0
 40
0
 40
1
 40
1
 40
1
 40
1
 10
142.704437
 20
-29.253592
 30
0.0
 10
143.119728
 20
-29.013825
 30
0.0
 10
143.631386
 20
-29.013825
 30
0.0
 10
144.046676
 20
-29.253592
 30
0.0
  0
SPLINE
  5
234
100
AcDbEntity
  8
0
 62
7
100
AcDbSpline
 70
8
 71
3
 72
8
 73
4
 74
0
 40
0
 40
0
 40
0
 40
0
 40
1
 40
1
 40
1
 40
1
 10
144.046676
 20
-29.253592
 30
0.0
 10
144.461967
 20
-29.493360
 30
0.0
 10
144.717796
 20
-29.936469
 30
0.0
 10
144.717796
 20
-30.416005
 30
0.0
  0
LWPOLYLINE
  5
235
100
AcDbEntity
  8
0
 62
7
100
AcDbPolyline
 90
1
 70
1
 10
124.432088
 20
-30.416005
 30
0.0
  0
SPLINE
  5
236
100
AcDbEntity
  8
0
 62
7
100
AcDbSpline
 70
8
 71
3
 72
8
 73
4
 74
0
 40
0
 40
0
 40
0
 40
0
 40
1
 40
1
 40
1
 40
1
 10
165.003504
 20
-30.416005
 30
0.0
 10
165.003504
 20
-30.895540
 30
0.0
 10
164.747675
 20
-31.338649
 30
0.0
 10
164.332385
 20
-31.578417
 30
0.0
  0
SPLINE
  5
237
100
AcDbEntity
  8
0
 62
7
100
AcDbSpline
 70
8
 71
3
 72
8
 73
4
 74
0
 40
0
 40
0
 40
0
 40
0
 40
1
 40
1
 40
1
 40
1
 10
164.332385
 20
-31.578417
 30
0.0
 10
163.917095
 20
-31.818185
 30
0.0
 10
163.405436
 20
-31.818185
 30
0.0
 10
162.990146
 20
-31.578417
 30
0.0
  0
SPLINE
  5
238
100
AcDbEntity
  8
0
 62
7
100
AcDbSpline
 70
8
 71
3
 72
8
 73
4
 74
0
 40
0
 40
0
 40
0
 40
0
 40
1
 40
1
 40
1
 40
1
 10
162.990146
 20
-31.578417
 30
0.0
 10
162.574855
 20
-31.338649
 30
0.0
 10
162.319026
 20
-30.895540
 30
0.0
 10
162.319026
 20
-30.416005
 30
0.0
  0
SPLINE
  5
239
100
AcDbEntity
  8
0
 62
7
100
AcDbSpline
 70
8
 71
3
 72
8
 73
4
 74
0
 40
0
 40
0
 40
0
 40
0
 40
1
 40
1
 40
1
 40
1
 10
162.319026
 20
-30.416005
 30
0.0
 10
162.319026
 20
-29.936469
 30
0.0
 10
162.574855
 20
-29.493360
 30
0.0
 10
162.990146
 20
-29.253592
 30
0.0
  0
SPLINE
  5
23a
100
AcDbEntity
  8
0
 62
7
100
AcDbSpline
 70
8
 71
3
 72
8
 73
4
 74
0
 40
0
 40
0
 40
0
 40
0
 40
1
 40
1
 40
1
 40
1
 10
162.990146
 20
-29.253592
 30
0.0
 10
163.405436
 20
-29.013825
 30
0.0
 10
163.917095
 20
-29.013825
 30
0.0
 10
164.332385
 20
-29.253592
 30
0.0
  0
SPLINE
  5
23b
100
AcDbEntity
  8
0
 62
7
100
AcDbSpline
 70
8
 71
3
 72
8
 73
4
 74
0
 40
0
 40
0
 40
0
 40
0
 40
1
 40
1
 40
1
 40
1
 10
164.332385
 20
-29.253592
 30
0.0
 10
164.747675
 20
-29.493360
 30
0.0
 10
165.003504
 20
-29.936469
 30
0.0
 10
165.003504
 20
-30.416005
 30
0.0
  0
LWPOLYLINE
  5
23c
100
AcDbEntity
  8
0
 62
7
100
AcDbPolyline
 90
1
 70
1
 10
144.717796
 20
-30.416005
 30
0.0
  0
SPLINE
  5
23d
100
AcDbEntity
  8
0
 62
7
100
AcDbSpline
 70
8
 71
3
 72
8
 73
4
 74
0
 40
0
 40
0
 40
0
 40
0
 40
1
 40
1
 40
1
 40
1
 10
185.289203
 20
-30.416005
 30
0.0
 10
185.289203
 20
-30.895540
 30
0.0
 10
185.033373
 20
-31.338649
 30
0.0
 10
184.618083
 20
-31.578417
 30
0.0
  0
SPLINE
  5
23e
100
AcDbEntity
  8
0
 62
7
100
AcDbSpline
 70
8
 71
3
 72
8
 73
4
 74
0
 40
0
 40
0
 40
0
 40
0
 40
1
 40
1
 40
1
 40
1
 10
184.618083
 20
-31.578417
 30
0.0
 10
184.202793
 20
-31.818185
 30
0.0
 10
183.691134
 20
-31.818185
 30
0.0
 10
183.275844
 20
-31.578417
 30
0.0
  0
SPLINE
  5
23f
100
AcDbEntity
  8
0
 62
7
100
AcDbSpline
 70
8
 71
3
 72
8
 73
4
 74
0
 40
0
 40
0
 40
0
 40
0
 40
1
 40
1
 40
1
 40
1
 10
183.275844
 20
-31.578417
 30
0.0
 10
182.860554
 20
-31.338649
 30
0.0
 10
182.604724
 20
-30.895540
 30
0.0
 10
182.604724
 20
-30.416005
 30
0.0
  0
SPLINE
  5
240
100
AcDbEntity
  8
0
 62
7
100
AcDbSpline
 70
8
 71
3
 72
8
 73
4
 74
0
 40
0
 40
0
 40
0
 40
0
 40
1
 40
1
 40
1
 40
1
 10
182.604724
 20
-30.416005
 30
0.0
 10
182.604724
 20
-29.936469
 30
0.0
 10
182.860554
 20
-29.493360
 30
0.0
 10
183.275844
 20
-29.253592
 30
0.0
  0
SPLINE
  5
241
100
AcDbEntity
  8
0
 62
7
100
AcDbSpline
 70
8
 71
3
 72
8
 73
4
 74
0
 40
0
 40
0
 40
0
 40
0
 40
1
 40
1
 40
1
 40
1
 10
183.275844
 20
-29.253592
 30
0.0
 10
183.691134
 20
-29.013825
 30
0.0
 10
184.202793
 20
-29.013825
 30
0.0
 10
184.618083
 20
-29.253592
 30
0.0
  0
SPLINE
  5
242
100
AcDbEntity
  8
0
 62
7
100
AcDbSpline
 70
8
 71
3
 72
8
 73
4
 74
0
 40
0
 40
0
 40
0
 40
0
 40
1
 40
1
 40
1
 40
1
 10
184.618083
 20
-29.253592
 30
0.0
 10
185.033373
 20
-29.493360
 30
0.0
 10
185.289203
 20
-29.936469
 30
0.0
 10
185.289203
 20
-30.416005
 30
0.0
  0
LWPOLYLINE
  5
243
100
AcDbEntity
  8
0
 62
7
100
AcDbPolyline
 90
1
 70
1
 10
165.003504
 20
-30.416005
 30
0.0
  0
SPLINE
  5
244
100
AcDbEntity
  8
0
 62
7
100
AcDbSpline
 70
8
 71
3
 72
8
 73
4
 74
0
 40
0
 40
0
 40
0
 40
0
 40
1
 40
1
 40
1
 40
1
 10
146.075426
 20
-22.408656
 30
0.0
 10
146.075426
 20
-22.888191
 30
0.0
 10
145.819597
 20
-23.331300
 30
0.0
 10
145.404306
 20
-23.571068
 30
0.0
  0
SPLINE
  5
245
100
AcDbEntity
  8
0
 62
7
100
AcDbSpline
 70
8
 71
3
 72
8
 73
4
 74
0
 40
0
 40
0
 40
0
 40
0
 40
1
 40
1
 40
1
 40
1
 10
145.404306
 20
-23.571068
 30
0.0
 10
144.989016
 20
-23.810836
 30
0.0
 10
144.477357
 20
-23.810836
 30
0.0
 10
144.062067
 20
-23.571068
 30
0.0
  0
SPLINE
  5
246
100
AcDbEntity
  8
0
 62
7
100
AcDbSpline
 70
8
 71
3
 72
8
 73
4
 74
0
 40
0
 40
0
 40
0
 40
0
 40
1
 40
1
 40
1
 40
1
 10
144.062067
 20
-23.571068
 30
0.0
 10
143.646777
 20
-23.331300
 30
0.0
 10
143.390948
 20
-22.888191
 30
0.0
 10
143.390948
 20
-22.408656
 30
0.0
  0
SPLINE
  5
247
100
AcDbEntity
  8
0
 62
7
100
AcDbSpline
 70
8
 71
3
 72
8
 73
4
 74
0
 40
0
 40
0
 40
0
 40
0
 40
1
 40
1
 40
1
 40
1
 10
143.390948
 20
-22.408656
 30
0.0
 10
143.390948
 20
-21.929120
 30
0.0
 10
143.646777
 20
-21.486011
 30
0.0
 10
144.062067
 20
-21.246244
 30
0.0
  0
SPLINE
  5
248
100
AcDbEntity
  8
0
 62
7
100
AcDbSpline
 70
8
 71
3
 72
8
 73
4
 74
0
 40
0
 40
0
 40
0
 40
0
 40
1
 40
1
 40
1
 40
1
 10
144.062067
 20
-21.246244
 30
0.0
 10
144.477357
 20
-21.006476
 30
0.0
 10
144.989016
 20
-21.006476
 30
0.0
 10
145.404306
 20
-21.246244
 30
0.0
  0
SPLINE
  5
249
100
AcDbEntity
  8
0
 62
7
100
AcDbSpline
 70
8
 71
3
 72
8
 73
4
 74
0
 40
0
 40
0
 40
0
 40
0
 40
1
 40
1
 40
1
 40
1
 10
145.404306
 20
-21.246244
 30
0.0
 10
145.819597
 20
-21.486011
 30
0.0
 10
146.075426
 20
-21.929120
 30
0.0
 10
146.075426
 20
-22.408656
 30
0.0
  0
LWPOLYLINE
  5
24a
100
AcDbEntity
  8
0
 62
7
100
AcDbPolyline
 90
1
 70
1
 10
185.289203
 20
-30.416005
 30
0.0
  0
SPLINE
  5
24b
100
AcDbEntity
  8
0
 62
7
100
AcDbSpline
 70
8
 71
3
 72
8
 73
4
 74
0
 40
0
 40
0
 40
0
 40
0
 40
1
 40
1
 40
1
 40
1
 10
146.075426
 20
-22.408656
 30
0.0
 10
146.075426
 20
-22.888191
 30
0.0
 10
145.819597
 20
-23.331300
 30
0.0
 10
145.404306
 20
-23.571068
 30
0.0
  0
SPLINE
  5
24c
100
AcDbEntity
  8
0
 62
7
100
AcDbSpline
 70
8
 71
3
 72
8
 73
4
 74
0
 40
0
 40
0
 40
0
 40
0
 40
1
 40
1
 40
1
 40
1
 10
145.404306
 20
-23.571068
 30
0.0
 10
144.989016
 20
-23.810836
 30
0.0
 10
144.477357
 20
-23.810836
 30
0.0
 10
144.062067
 20
-23.571068
 30
0.0
  0
SPLINE
  5
24d
100
AcDbEntity
  8
0
 62
7
100
AcDbSpline
 70
8
 71
3
 72
8
 73
4
 74
0
 40
0
 40
0
 40
0
 40
0
 40
1
 40
1
 40
1
 40
1
 10
144.062067
 20
-23.571068
 30
0.0
 10
143.646777
 20
-23.331300
 30
0.0
 10
143.390948
 20
-22.888191
 30
0.0
 10
143.390948
 20
-22.408656
 30
0.0
  0
SPLINE
  5
24e
100
AcDbEntity
  8
0
 62
7
100
AcDbSpline
 70
8
 71
3
 72
8
 73
4
 74
0
 40
0
 40
0
 40
0
 40
0
 40
1
 40
1
 40
1
 40
1
 10
143.390948
 20
-22.408656
 30
0.0
 10
143.390948
 20
-21.929120
 30
0.0
 10
143.646777
 20
-21.486011
 30
0.0
 10
144.062067
 20
-21.246244
 30
0.0
  0
SPLINE
  5
24f
100
AcDbEntity
  8
0
 62
7
100
AcDbSpline
 70
8
 71
3
 72
8
 73
4
 74
0
 40
0
 40
0
 40
0
 40
0
 40
1
 40
1
 40
1
 40
1
 10
144.062067
 20
-21.246244
 30
0.0
 10
144.477357
 20
-21.006476
 30
0.0
 10
144.989016
 20
-21.006476
 30
0.0
 10
145.404306
 20
-21.246244
 30
0.0
  0
SPLINE
  5
250
100
AcDbEntity
  8
0
 62
7
100
AcDbSpline
 70
8
 71
3
 72
8
 73
4
 74
0
 40
0
 40
0
 40
0
 40
0
 40
1
 40
1
 40
1
 40
1
 10
145.404306
 20
-21.246244
 30
0.0
 10
145.819597
 20
-21.486011
 30
0.0
 10
146.075426
 20
-21.929120
 30
0.0
 10
146.075426
 20
-22.408656
 30
0.0
  0
SPLINE
  5
251
100
AcDbEntity
  8
0
 62
7
100
AcDbSpline
 70
8
 71
3
 72
8
 73
4
 74
0
 40
0
 40
0
 40
0
 40
0
 40
1
 40
1
 40
1
 40
1
 10
43.289254
 20
-10.129026
 30
0.0
 10
43.289254
 20
-10.608561
 30
0.0
 10
43.033425
 20
-11.051670
 30
0.0
 10
42.618134
 20
-11.291438
 30
0.0
  0
SPLINE
  5
252
100
AcDbEntity
  8
0
 62
7
100
AcDbSpline
 70
8
 71
3
 72
8
 73
4
 74
0
 40
0
 40
0
 40
0
 40
0
 40
1
 40
1
 40
1
 40
1
 10
42.618134
 20
-11.291438
 30
0.0
 10
42.202844
 20
-11.531206
 30
0.0
 10
41.691185
 20
-11.531206
 30
0.0
 10
41.275895
 20
-11.291438
 30
0.0
  0
SPLINE
  5
253
100
AcDbEntity
  8
0
 62
7
100
AcDbSpline
 70
8
 71
3
 72
8
 73
4
 74
0
 40
0
 40
0
 40
0
 40
0
 40
1
 40
1
 40
1
 40
1
 10
41.275895
 20
-11.291438
 30
0.0
 10
40.860605
 20
-11.051670
 30
0.0
 10
40.604776
 20
-10.608561
 30
0.0
 10
40.604776
 20
-10.129026
 30
0.0
  0
SPLINE
  5
254
100
AcDbEntity
  8
0
 62
7
100
AcDbSpline
 70
8
 71
3
 72
8
 73
4
 74
0
 40
0
 40
0
 40
0
 40
0
 40
1
 40
1
 40
1
 40
1
 10
40.604776
 20
-10.129026
 30
0.0
 10
40.604776
 20
-9.649490
 30
0.0
 10
40.860605
 20
-9.206381
 30
0.0
 10
41.275895
 20
-8.966613
 30
0.0
  0
SPLINE
  5
255
100
AcDbEntity
  8
0
 62
7
100
AcDbSpline
 70
8
 71
3
 72
8
 73
4
 74
0
 40
0
 40
0
 40
0
 40
0
 40
1
 40
1
 40
1
 40
1
 10
41.275895
 20
-8.966613
 30
0.0
 10
41.691185
 20
-8.726846
 30
0.0
 10
42.202844
 20
-8.726846
 30
0.0
 10
42.618134
 20
-8.966613
 30
0.0
  0
SPLINE
  5
256
100
AcDbEntity
  8
0
 62
7
100
AcDbSpline
 70
8
 71
3
 72
8
 73
4
 74
0
 40
0
 40
0
 40
0
 40
0
 40
1
 40
1
 40
1
 40
1
 10
42.618134
 20
-8.966613
 30
0.0
 10
43.033425
 20
-9.206381
 30
0.0
 10
43.289254
 20
-9.649490
 30
0.0
 10
43.289254
 20
-10.129026
 30
0.0
  0
LWPOLYLINE
  5
257
100
AcDbEntity
  8
0
 62
7
100
AcDbPolyline
 90
2
 70
1
 10
146.075426
 20
-22.408656
 30
0.0
 10
146.075426
 20
-22.408656
 30
0.0
  0
SPLINE
  5
258
100
AcDbEntity
  8
0
 62
7
100
AcDbSpline
 70
8
 71
3
 72
8
 73
4
 74
0
 40
0
 40
0
 40
0
 40
0
 40
1
 40
1
 40
1
 40
1
 10
63.574962
 20
-10.129026
 30
0.0
 10
63.574962
 20
-10.608561
 30
0.0
 10
63.319133
 20
-11.051670
 30
0.0
 10
62.903843
 20
-11.291438
 30
0.0
  0
SPLINE
  5
259
100
AcDbEntity
  8
0
 62
7
100
AcDbSpline
 70
8
 71
3
 72
8
 73
4
 74
0
 40
0
 40
0
 40
0
 40
0
 40
1
 40
1
 40
1
 40
1
 10
62.903843
 20
-11.291438
 30
0.0
 10
62.488552
 20
-11.531206
 30
0.0
 10
61.976894
 20
-11.531206
 30
0.0
 10
61.561604
 20
-11.291438
 30
0.0
  0
SPLINE
  5
25a
100
AcDbEntity
  8
0
 62
7
100
AcDbSpline
 70
8
 71
3
 72
8
 73
4
 74
0
 40
0
 40
0
 40
0
 40
0
 40
1
 40
1
 40
1
 40
1
 10
61.561604
 20
-11.291438
 30
0.0
 10
61.146313
 20
-11.051670
 30
0.0
 10
60.890484
 20
-10.608561
 30
0.0
 10
60.890484
 20
-10.129026
 30
0.0
  0
SPLINE
  5
25b
100
AcDbEntity
  8
0
 62
7
100
AcDbSpline
 70
8
 71
3
 72
8
 73
4
 74
0
 40
0
 40
0
 40
0
 40
0
 40
1
 40
1
 40
1
 40
1
 10
60.890484
 20
-10.129026
 30
0.0
 10
60.890484
 20
-9.649490
 30
0.0
 10
61.146313
 20
-9.206381
 30
0.0
 10
61.561604
 20
-8.966613
 30
0.0
  0
SPLINE
  5
25c
100
AcDbEntity
  8
0
 62
7
100
AcDbSpline
 70
8
 71
3
 72
8
 73
4
 74
0
 40
0
 40
0
 40
0
 40
0
 40
1
 40
1
 40
1
 40
1
 10
61.561604
 20
-8.966613
 30
0.0
 10
61.976894
 20
-8.726846
 30
0.0
 10
62.488552
 20
-8.726846
 30
0.0
 10
62.903843
 20
-8.966613
 30
0.0
  0
SPLINE
  5
25d
100
AcDbEntity
  8
0
 62
7
100
AcDbSpline
 70
8
 71
3
 72
8
 73
4
 74
0
 40
0
 40
0
 40
0
 40
0
 40
1
 40
1
 40
1
 40
1
 10
62.903843
 20
-8.966613
 30
0.0
 10
63.319133
 20
-9.206381
 30
0.0
 10
63.574962
 20
-9.649490
 30
0.0
 10
63.574962
 20
-10.129026
 30
0.0
  0
LWPOLYLINE
  5
25e
100
AcDbEntity
  8
0
 62
7
100
AcDbPolyline
 90
1
 70
1
 10
43.289254
 20
-10.129026
 30
0.0
  0
SPLINE
  5
25f
100
AcDbEntity
  8
0
 62
7
100
AcDbSpline
 70
8
 71
3
 72
8
 73
4
 74
0
 40
0
 40
0
 40
0
 40
0
 40
1
 40
1
 40
1
 40
1
 10
63.574962
 20
-10.129026
 30
0.0
 10
63.574962
 20
-10.608561
 30
0.0
 10
63.319133
 20
-11.051670
 30
0.0
 10
62.903843
 20
-11.291438
 30
0.0
  0
SPLINE
  5
260
100
AcDbEntity
  8
0
 62
7
100
AcDbSpline
 70
8
 71
3
 72
8
 73
4
 74
0
 40
0
 40
0
 40
0
 40
0
 40
1
 40
1
 40
1
 40
1
 10
62.903843
 20
-11.291438
 30
0.0
 10
62.488552
 20
-11.531206
 30
0.0
 10
61.976894
 20
-11.531206
 30
0.0
 10
61.561604
 20
-11.291438
 30
0.0
  0
SPLINE
  5
261
100
AcDbEntity
  8
0
 62
7
100
AcDbSpline
 70
8
 71
3
 72
8
 73
4
 74
0
 40
0
 40
0
 40
0
 40
0
 40
1
 40
1
 40
1
 40
1
 10
61.561604
 20
-11.291438
 30
0.0
 10
61.146313
 20
-11.051670
 30
0.0
 10
60.890484
 20
-10.608561
 30
0.0
 10
60.890484
 20
-10.129026
 30
0.0
  0
SPLINE
  5
262
100
AcDbEntity
  8
0
 62
7
100
AcDbSpline
 70
8
 71
3
 72
8
 73
4
 74
0
 40
0
 40
0
 40
0
 40
0
 40
1
 40
1
 40
1
 40
1
 10
60.890484
 20
-10.129026
 30
0.0
 10
60.890484
 20
-9.649490
 30
0.0
 10
61.146313
 20
-9.206381
 30
0.0
 10
61.561604
 20
-8.966613
 30
0.0
  0
SPLINE
  5
263
100
AcDbEntity
  8
0
 62
7
100
AcDbSpline
 70
8
 71
3
 72
8
 73
4
 74
0
 40
0
 40
0
 40
0
 40
0
 40
1
 40
1
 40
1
 40
1
 10
61.561604
 20
-8.966613
 30
0.0
 10
61.976894
 20
-8.726846
 30
0.0
 10
62.488552
 20
-8.726846
 30
0.0
 10
62.903843
 20
-8.966613
 30
0.0
  0
SPLINE
  5
264
100
AcDbEntity
  8
0
 62
7
100
AcDbSpline
 70
8
 71
3
 72
8
 73
4
 74
0
 40
0
 40
0
 40
0
 40
0
 40
1
 40
1
 40
1
 40
1
 10
62.903843
 20
-8.966613
 30
0.0
 10
63.319133
 20
-9.206381
 30
0.0
 10
63.574962
 20
-9.649490
 30
0.0
 10
63.574962
 20
-10.129026
 30
0.0
  0
SPLINE
  5
265
100
AcDbEntity
  8
0
 62
7
100
AcDbSpline
 70
8
 71
3
 72
8
 73
4
 74
0
 40
0
 40
0
 40
0
 40
0
 40
1
 40
1
 40
1
 40
1
 10
83.860671
 20
-10.129026
 30
0.0
 10
83.860671
 20
-10.608561
 30
0.0
 10
83.604841
 20
-11.051670
 30
0.0
 10
83.189551
 20
-11.291438
 30
0.0
  0
SPLINE
  5
266
100
AcDbEntity
  8
0
 62
7
100
AcDbSpline
 70
8
 71
3
 72
8
 73
4
 74
0
 40
0
 40
0
 40
0
 40
0
 40
1
 40
1
 40
1
 40
1
 10
83.189551
 20
-11.291438
 30
0.0
 10
82.774261
 20
-11.531206
 30
0.0
 10
82.262602
 20
-11.531206
 30
0.0
 10
81.847312
 20
-11.291438
 30
0.0
  0
SPLINE
  5
267
100
AcDbEntity
  8
0
 62
7
100
AcDbSpline
 70
8
 71
3
 72
8
 73
4
 74
0
 40
0
 40
0
 40
0
 40
0
 40
1
 40
1
 40
1
 40
1
 10
81.847312
 20
-11.291438
 30
0.0
 10
81.432022
 20
-11.051670
 30
0.0
 10
81.176192
 20
-10.608561
 30
0.0
 10
81.176192
 20
-10.129026
 30
0.0
  0
SPLINE
  5
268
100
AcDbEntity
  8
0
 62
7
100
AcDbSpline
 70
8
 71
3
 72
8
 73
4
 74
0
 40
0
 40
0
 40
0
 40
0
 40
1
 40
1
 40
1
 40
1
 10
81.176192
 20
-10.129026
 30
0.0
 10
81.176192
 20
-9.649490
 30
0.0
 10
81.432022
 20
-9.206381
 30
0.0
 10
81.847312
 20
-8.966613
 30
0.0
  0
SPLINE
  5
269
100
AcDbEntity
  8
0
 62
7
100
AcDbSpline
 70
8
 71
3
 72
8
 73
4
 74
0
 40
0
 40
0
 40
0
 40
0
 40
1
 40
1
 40
1
 40
1
 10
81.847312
 20
-8.966613
 30
0.0
 10
82.262602
 20
-8.726846
 30
0.0
 10
82.774261
 20
-8.726846
 30
0.0
 10
83.189551
 20
-8.966613
 30
0.0
  0
SPLINE
  5
26a
100
AcDbEntity
  8
0
 62
7
100
AcDbSpline
 70
8
 71
3
 72
8
 73
4
 74
0
 40
0
 40
0
 40
0
 40
0
 40
1
 40
1
 40
1
 40
1
 10
83.189551
 20
-8.966613
 30
0.0
 10
83.604841
 20
-9.206381
 30
0.0
 10
83.860671
 20
-9.649490
 30
0.0
 10
83.860671
 20
-10.129026
 30
0.0
  0
LWPOLYLINE
  5
26b
100
AcDbEntity
  8
0
 62
7
100
AcDbPolyline
 90
2
 70
1
 10
63.574962
 20
-10.129026
 30
0.0
 10
63.574962
 20
-10.129026
 30
0.0
  0
SPLINE
  5
26c
100
AcDbEntity
  8
0
 62
7
100
AcDbSpline
 70
8
 71
3
 72
8
 73
4
 74
0
 40
0
 40
0
 40
0
 40
0
 40
1
 40
1
 40
1
 40
1
 10
83.860671
 20
-10.129026
 30
0.0
 10
83.860671
 20
-10.608561
 30
0.0
 10
83.604841
 20
-11.051670
 30
0.0
 10
83.189551
 20
-11.291438
 30
0.0
  0
SPLINE
  5
26d
100
AcDbEntity
  8
0
 62
7
100
AcDbSpline
 70
8
 71
3
 72
8
 73
4
 74
0
 40
0
 40
0
 40
0
 40
0
 40
1
 40
1
 40
1
 40
1
 10
83.189551
 20
-11.291438
 30
0.0
 10
82.774261
 20
-11.531206
 30
0.0
 10
82.262602
 20
-11.531206
 30
0.0
 10
81.847312
 20
-11.291438
 30
0.0
  0
SPLINE
  5
26e
100
AcDbEntity
  8
0
 62
7
100
AcDbSpline
 70
8
 71
3
 72
8
 73
4
 74
0
 40
0
 40
0
 40
0
 40
0
 40
1
 40
1
 40
1
 40
1
 10
81.847312
 20
-11.291438
 30
0.0
 10
81.432022
 20
-11.051670
 30
0.0
 10
81.176192
 20
-10.608561
 30
0.0
 10
81.176192
 20
-10.129026
 30
0.0
  0
SPLINE
  5
26f
100
AcDbEntity
  8
0
 62
7
100
AcDbSpline
 70
8
 71
3
 72
8
 73
4
 74
0
 40
0
 40
0
 40
0
 40
0
 40
1
 40
1
 40
1
 40
1
 10
81.176192
 20
-10.129026
 30
0.0
 10
81.176192
 20
-9.649490
 30
0.0
 10
81.432022
 20
-9.206381
 30
0.0
 10
81.847312
 20
-8.966613
 30
0.0
  0
SPLINE
  5
270
100
AcDbEntity
  8
0
 62
7
100
AcDbSpline
 70
8
 71
3
 72
8
 73
4
 74
0
 40
0
 40
0
 40
0
 40
0
 40
1
 40
1
 40
1
 40
1
 10
81.847312
 20
-8.966613
 30
0.0
 10
82.262602
 20
-8.726846
 30
0.0
 10
82.774261
 20
-8.726846
 30
0.0
 10
83.189551
 20
-8.966613
 30
0.0
  0
SPLINE
  5
271
100
AcDbEntity
  8
0
 62
7
100
AcDbSpline
 70
8
 71
3
 72
8
 73
4
 74
0
 40
0
 40
0
 40
0
 40
0
 40
1
 40
1
 40
1
 40
1
 10
83.189551
 20
-8.966613
 30
0.0
 10
83.604841
 20
-9.206381
 30
0.0
 10
83.860671
 20
-9.649490
 30
0.0
 10
83.860671
 20
-10.129026
 30
0.0
  0
SPLINE
  5
272
100
AcDbEntity
  8
0
 62
7
100
AcDbSpline
 70
8
 71
3
 72
8
 73
4
 74
0
 40
0
 40
0
 40
0
 40
0
 40
1
 40
1
 40
1
 40
1
 10
104.146379
 20
-10.129026
 30
0.0
 10
104.146379
 20
-10.608561
 30
0.0
 10
103.890550
 20
-11.051670
 30
0.0
 10
103.475260
 20
-11.291438
 30
0.0
  0
SPLINE
  5
273
100
AcDbEntity
  8
0
 62
7
100
AcDbSpline
 70
8
 71
3
 72
8
 73
4
 74
0
 40
0
 40
0
 40
0
 40
0
 40
1
 40
1
 40
1
 40
1
 10
103.475260
 20
-11.291438
 30
0.0
 10
103.059969
 20
-11.531206
 30
0.0
 10
102.548311
 20
-11.531206
 30
0.0
 10
102.133020
 20
-11.291438
 30
0.0
  0
SPLINE
  5
274
100
AcDbEntity
  8
0
 62
7
100
AcDbSpline
 70
8
 71
3
 72
8
 73
4
 74
0
 40
0
 40
0
 40
0
 40
0
 40
1
 40
1
 40
1
 40
1
 10
102.133020
 20
-11.291438
 30
0.0
 10
101.717730
 20
-11.051670
 30
0.0
 10
101.461901
 20
-10.608561
 30
0.0
 10
101.461901
 20
-10.129026
 30
0.0
  0
SPLINE
  5
275
100
AcDbEntity
  8
0
 62
7
100
AcDbSpline
 70
8
 71
3
 72
8
 73
4
 74
0
 40
0
 40
0
 40
0
 40
0
 40
1
 40
1
 40
1
 40
1
 10
101.461901
 20
-10.129026
 30
0.0
 10
101.461901
 20
-9.649490
 30
0.0
 10
101.717730
 20
-9.206381
 30
0.0
 10
102.133020
 20
-8.966613
 30
0.0
  0
SPLINE
  5
276
100
AcDbEntity
  8
0
 62
7
100
AcDbSpline
 70
8
 71
3
 72
8
 73
4
 74
0
 40
0
 40
0
 40
0
 40
0
 40
1
 40
1
 40
1
 40
1
 10
102.133020
 20
-8.966613
 30
0.0
 10
102.548311
 20
-8.726846
 30
0.0
 10
103.059969
 20
-8.726846
 30
0.0
 10
103.475260
 20
-8.966613
 30
0.0
  0
SPLINE
  5
277
100
AcDbEntity
  8
0
 62
7
100
AcDbSpline
 70
8
 71
3
 72
8
 73
4
 74
0
 40
0
 40
0
 40
0
 40
0
 40
1
 40
1
 40
1
 40
1
 10
103.475260
 20
-8.966613
 30
0.0
 10
103.890550
 20
-9.206381
 30
0.0
 10
104.146379
 20
-9.649490
 30
0.0
 10
104.146379
 20
-10.129026
 30
0.0
  0
LWPOLYLINE
  5
278
100
AcDbEntity
  8
0
 62
7
100
AcDbPolyline
 90
2
 70
1
 10
83.860671
 20
-10.129026
 30
0.0
 10
83.860671
 20
-10.129026
 30
0.0
  0
SPLINE
  5
279
100
AcDbEntity
  8
0
 62
7
100
AcDbSpline
 70
8
 71
3
 72
8
 73
4
 74
0
 40
0
 40
0
 40
0
 40
0
 40
1
 40
1
 40
1
 40
1
 10
104.146379
 20
-10.129026
 30
0.0
 10
104.146379
 20
-10.608561
 30
0.0
 10
103.890550
 20
-11.051670
 30
0.0
 10
103.475260
 20
-11.291438
 30
0.0
  0
SPLINE
  5
27a
100
AcDbEntity
  8
0
 62
7
100
AcDbSpline
 70
8
 71
3
 72
8
 73
4
 74
0
 40
0
 40
0
 40
0
 40
0
 40
1
 40
1
 40
1
 40
1
 10
103.475260
 20
-11.291438
 30
0.0
 10
103.059969
 20
-11.531206
 30
0.0
 10
102.548311
 20
-11.531206
 30
0.0
 10
102.133020
 20
-11.291438
 30
0.0
  0
SPLINE
  5
27b
100
AcDbEntity
  8
0
 62
7
100
AcDbSpline
 70
8
 71
3
 72
8
 73
4
 74
0
 40
0
 40
0
 40
0
 40
0
 40
1
 40
1
 40
1
 40
1
 10
102.133020
 20
-11.291438
 30
0.0
 10
101.717730
 20
-11.051670
 30
0.0
 10
101.461901
 20
-10.608561
 30
0.0
 10
101.461901
 20
-10.129026
 30
0.0
  0
SPLINE
  5
27c
100
AcDbEntity
  8
0
 62
7
100
AcDbSpline
 70
8
 71
3
 72
8
 73
4
 74
0
 40
0
 40
0
 40
0
 40
0
 40
1
 40
1
 40
1
 40
1
 10
101.461901
 20
-10.129026
 30
0.0
 10
101.461901
 20
-9.649490
 30
0.0
 10
101.717730
 20
-9.206381
 30
0.0
 10
102.133020
 20
-8.966613
 30
0.0
  0
SPLINE
  5
27d
100
AcDbEntity
  8
0
 62
7
100
AcDbSpline
 70
8
 71
3
 72
8
 73
4
 74
0
 40
0
 40
0
 40
0
 40
0
 40
1
 40
1
 40
1
 40
1
 10
102.133020
 20
-8.966613
 30
0.0
 10
102.548311
 20
-8.726846
 30
0.0
 10
103.059969
 20
-8.726846
 30
0.0
 10
103.475260
 20
-8.966613
 30
0.0
  0
SPLINE
  5
27e
100
AcDbEntity
  8
0
 62
7
100
AcDbSpline
 70
8
 71
3
 72
8
 73
4
 74
0
 40
0
 40
0
 40
0
 40
0
 40
1
 40
1
 40
1
 40
1
 10
103.475260
 20
-8.966613
 30
0.0
 10
103.890550
 20
-9.206381
 30
0.0
 10
104.146379
 20
-9.649490
 30
0.0
 10
104.146379
 20
-10.129026
 30
0.0
  0
SPLINE
  5
27f
100
AcDbEntity
  8
0
 62
7
100
AcDbSpline
 70
8
 71
3
 72
8
 73
4
 74
0
 40
0
 40
0
 40
0
 40
0
 40
1
 40
1
 40
1
 40
1
 10
124.432088
 20
-10.129026
 30
0.0
 10
124.432088
 20
-10.608561
 30
0.0
 10
124.176258
 20
-11.051670
 30
0.0
 10
123.760968
 20
-11.291438
 30
0.0
  0
SPLINE
  5
280
100
AcDbEntity
  8
0
 62
7
100
AcDbSpline
 70
8
 71
3
 72
8
 73
4
 74
0
 40
0
 40
0
 40
0
 40
0
 40
1
 40
1
 40
1
 40
1
 10
123.760968
 20
-11.291438
 30
0.0
 10
123.345678
 20
-11.531206
 30
0.0
 10
122.834019
 20
-11.531206
 30
0.0
 10
122.418729
 20
-11.291438
 30
0.0
  0
SPLINE
  5
281
100
AcDbEntity
  8
0
 62
7
100
AcDbSpline
 70
8
 71
3
 72
8
 73
4
 74
0
 40
0
 40
0
 40
0
 40
0
 40
1
 40
1
 40
1
 40
1
 10
122.418729
 20
-11.291438
 30
0.0
 10
122.003439
 20
-11.051670
 30
0.0
 10
121.747609
 20
-10.608561
 30
0.0
 10
121.747609
 20
-10.129026
 30
0.0
  0
SPLINE
  5
282
100
AcDbEntity
  8
0
 62
7
100
AcDbSpline
 70
8
 71
3
 72
8
 73
4
 74
0
 40
0
 40
0
 40
0
 40
0
 40
1
 40
1
 40
1
 40
1
 10
121.747609
 20
-10.129026
 30
0.0
 10
121.747609
 20
-9.649490
 30
0.0
 10
122.003439
 20
-9.206381
 30
0.0
 10
122.418729
 20
-8.966613
 30
0.0
  0
SPLINE
  5
283
100
AcDbEntity
  8
0
 62
7
100
AcDbSpline
 70
8
 71
3
 72
8
 73
4
 74
0
 40
0
 40
0
 40
0
 40
0
 40
1
 40
1
 40
1
 40
1
 10
122.418729
 20
-8.966613
 30
0.0
 10
122.834019
 20
-8.726846
 30
0.0
 10
123.345678
 20
-8.726846
 30
0.0
 10
123.760968
 20
-8.966613
 30
0.0
  0
SPLINE
  5
284
100
AcDbEntity
  8
0
 62
7
100
AcDbSpline
 70
8
 71
3
 72
8
 73
4
 74
0
 40
0
 40
0
 40
0
 40
0
 40
1
 40
1
 40
1
 40
1
 10
123.760968
 20
-8.966613
 30
0.0
 10
124.176258
 20
-9.206381
 30
0.0
 10
124.432088
 20
-9.649490
 30
0.0
 10
124.432088
 20
-10.129026
 30
0.0
  0
LWPOLYLINE
  5
285
100
AcDbEntity
  8
0
 62
7
100
AcDbPolyline
 90
2
 70
1
 10
104.146379
 20
-10.129026
 30
0.0
 10
104.146379
 20
-10.129026
 30
0.0
  0
SPLINE
  5
286
100
AcDbEntity
  8
0
 62
7
100
AcDbSpline
 70
8
 71
3
 72
8
 73
4
 74
0
 40
0
 40
0
 40
0
 40
0
 40
1
 40
1
 40
1
 40
1
 10
124.432088
 20
-10.129026
 30
0.0
 10
124.432088
 20
-10.608561
 30
0.0
 10
124.176258
 20
-11.051670
 30
0.0
 10
123.760968
 20
-11.291438
 30
0.0
  0
SPLINE
  5
287
100
AcDbEntity
  8
0
 62
7
100
AcDbSpline
 70
8
 71
3
 72
8
 73
4
 74
0
 40
0
 40
0
 40
0
 40
0
 40
1
 40
1
 40
1
 40
1
 10
123.760968
 20
-11.291438
 30
0.0
 10
123.345678
 20
-11.531206
 30
0.0
 10
122.834019
 20
-11.531206
 30
0.0
 10
122.418729
 20
-11.291438
 30
0.0
  0
SPLINE
  5
288
100
AcDbEntity
  8
0
 62
7
100
AcDbSpline
 70
8
 71
3
 72
8
 73
4
 74
0
 40
0
 40
0
 40
0
 40
0
 40
1
 40
1
 40
1
 40
1
 10
122.418729
 20
-11.291438
 30
0.0
 10
122.003439
 20
-11.051670
 30
0.0
 10
121.747609
 20
-10.608561
 30
0.0
 10
121.747609
 20
-10.129026
 30
0.0
  0
SPLINE
  5
289
100
AcDbEntity
  8
0
 62
7
100
AcDbSpline
 70
8
 71
3
 72
8
 73
4
 74
0
 40
0
 40
0
 40
0
 40
0
 40
1
 40
1
 40
1
 40
1
 10
121.747609
 20
-10.129026
 30
0.0
 10
121.747609
 20
-9.649490
 30
0.0
 10
122.003439
 20
-9.206381
 30
0.0
 10
122.418729
 20
-8.966613
 30
0.0
  0
SPLINE
  5
28a
100
AcDbEntity
  8
0
 62
7
100
AcDbSpline
 70
8
 71
3
 72
8
 73
4
 74
0
 40
0
 40
0
 40
0
 40
0
 40
1
 40
1
 40
1
 40
1
 10
122.418729
 20
-8.966613
 30
0.0
 10
122.834019
 20
-8.726846
 30
0.0
 10
123.345678
 20
-8.726846
 30
0.0
 10
123.760968
 20
-8.966613
 30
0.0
  0
SPLINE
  5
28b
100
AcDbEntity
  8
0
 62
7
100
AcDbSpline
 70
8
 71
3
 72
8
 73
4
 74
0
 40
0
 40
0
 40
0
 40
0
 40
1
 40
1
 40
1
 40
1
 10
123.760968
 20
-8.966613
 30
0.0
 10
124.176258
 20
-9.206381
 30
0.0
 10
124.432088
 20
-9.649490
 30
0.0
 10
124.432088
 20
-10.129026
 30
0.0
  0
SPLINE
  5
28c
100
AcDbEntity
  8
0
 62
7
100
AcDbSpline
 70
8
 71
3
 72
8
 73
4
 74
0
 40
0
 40
0
 40
0
 40
0
 40
1
 40
1
 40
1
 40
1
 10
149.070086
 20
-14.922005
 30
0.0
 10
149.070086
 20
-15.401541
 30
0.0
 10
148.814256
 20
-15.844650
 30
0.0
 10
148.398966
 20
-16.084418
 30
0.0
  0
SPLINE
  5
28d
100
AcDbEntity
  8
0
 62
7
100
AcDbSpline
 70
8
 71
3
 72
8
 73
4
 74
0
 40
0
 40
0
 40
0
 40
0
 40
1
 40
1
 40
1
 40
1
 10
148.398966
 20
-16.084418
 30
0.0
 10
147.983676
 20
-16.324185
 30
0.0
 10
147.472017
 20
-16.324185
 30
0.0
 10
147.056727
 20
-16.084418
 30
0.0
  0
SPLINE
  5
28e
100
AcDbEntity
  8
0
 62
7
100
AcDbSpline
 70
8
 71
3
 72
8
 73
4
 74
0
 40
0
 40
0
 40
0
 40
0
 40
1
 40
1
 40
1
 40
1
 10
147.056727
 20
-16.084418
 30
0.0
 10
146.641437
 20
-15.844650
 30
0.0
 10
146.385607
 20
-15.401541
 30
0.0
 10
146.385607
 20
-14.922005
 30
0.0
  0
SPLINE
  5
28f
100
AcDbEntity
  8
0
 62
7
100
AcDbSpline
 70
8
 71
3
 72
8
 73
4
 74
0
 40
0
 40
0
 40
0
 40
0
 40
1
 40
1
 40
1
 40
1
 10
146.385607
 20
-14.922005
 30
0.0
 10
146.385607
 20
-14.442470
 30
0.0
 10
146.641437
 20
-13.999361
 30
0.0
 10
147.056727
 20
-13.759593
 30
0.0
  0
SPLINE
  5
290
100
AcDbEntity
  8
0
 62
7
100
AcDbSpline
 70
8
 71
3
 72
8
 73
4
 74
0
 40
0
 40
0
 40
0
 40
0
 40
1
 40
1
 40
1
 40
1
 10
147.056727
 20
-13.759593
 30
0.0
 10
147.472017
 20
-13.519825
 30
0.0
 10
147.983676
 20
-13.519825
 30
0.0
 10
148.398966
 20
-13.759593
 30
0.0
  0
SPLINE
  5
291
100
AcDbEntity
  8
0
 62
7
100
AcDbSpline
 70
8
 71
3
 72
8
 73
4
 74
0
 40
0
 40
0
 40
0
 40
0
 40
1
 40
1
 40
1
 40
1
 10
148.398966
 20
-13.759593
 30
0.0
 10
148.814256
 20
-13.999361
 30
0.0
 10
149.070086
 20
-14.442470
 30
0.0
 10
149.070086
 20
-14.922005
 30
0.0
  0
LWPOLYLINE
  5
292
100
AcDbEntity
  8
0
 62
7
100
AcDbPolyline
 90
2
 70
1
 10
124.432088
 20
-10.129026
 30
0.0
 10
124.432088
 20
-10.129026
 30
0.0
  0
SPLINE
  5
293
100
AcDbEntity
  8
0
 62
7
100
AcDbSpline
 70
8
 71
3
 72
8
 73
4
 74
0
 40
0
 40
0
 40
0
 40
0
 40
1
 40
1
 40
1
 40
1
 10
149.070086
 20
-14.922005
 30
0.0
 10
149.070086
 20
-15.401541
 30
0.0
 10
148.814256
 20
-15.844650
 30
0.0
 10
148.398966
 20
-16.084418
 30
0.0
  0
SPLINE
  5
294
100
AcDbEntity
  8
0
 62
7
100
AcDbSpline
 70
8
 71
3
 72
8
 73
4
 74
0
 40
0
 40
0
 40
0
 40
0
 40
1
 40
1
 40
1
 40
1
 10
148.398966
 20
-16.084418
 30
0.0
 10
147.983676
 20
-16.324185
 30
0.0
 10
147.472017
 20
-16.324185
 30
0.0
 10
147.056727
 20
-16.084418
 30
0.0
  0
SPLINE
  5
295
100
AcDbEntity
  8
0
 62
7
100
AcDbSpline
 70
8
 71
3
 72
8
 73
4
 74
0
 40
0
 40
0
 40
0
 40
0
 40
1
 40
1
 40
1
 40
1
 10
147.056727
 20
-16.084418
 30
0.0
 10
146.641437
 20
-15.844650
 30
0.0
 10
146.385607
 20
-15.401541
 30
0.0
 10
146.385607
 20
-14.922005
 30
0.0
  0
SPLINE
  5
296
100
AcDbEntity
  8
0
 62
7
100
AcDbSpline
 70
8
 71
3
 72
8
 73
4
 74
0
 40
0
 40
0
 40
0
 40
0
 40
1
 40
1
 40
1
 40
1
 10
146.385607
 20
-14.922005
 30
0.0
 10
146.385607
 20
-14.442470
 30
0.0
 10
146.641437
 20
-13.999361
 30
0.0
 10
147.056727
 20
-13.759593
 30
0.0
  0
SPLINE
  5
297
100
AcDbEntity
  8
0
 62
7
100
AcDbSpline
 70
8
 71
3
 72
8
 73
4
 74
0
 40
0
 40
0
 40
0
 40
0
 40
1
 40
1
 40
1
 40
1
 10
147.056727
 20
-13.759593
 30
0.0
 10
147.472017
 20
-13.519825
 30
0.0
 10
147.983676
 20
-13.519825
 30
0.0
 10
148.398966
 20
-13.759593
 30
0.0
  0
SPLINE
  5
298
100
AcDbEntity
  8
0
 62
7
100
AcDbSpline
 70
8
 71
3
 72
8
 73
4
 74
0
 40
0
 40
0
 40
0
 40
0
 40
1
 40
1
 40
1
 40
1
 10
148.398966
 20
-13.759593
 30
0.0
 10
148.814256
 20
-13.999361
 30
0.0
 10
149.070086
 20
-14.442470
 30
0.0
 10
149.070086
 20
-14.922005
 30
0.0
  0
SPLINE
  5
299
100
AcDbEntity
  8
0
 62
7
100
AcDbSpline
 70
8
 71
3
 72
8
 73
4
 74
0
 40
0
 40
0
 40
0
 40
0
 40
1
 40
1
 40
1
 40
1
 10
165.003504
 20
-10.129026
 30
0.0
 10
165.003504
 20
-10.608561
 30
0.0
 10
164.747675
 20
-11.051670
 30
0.0
 10
164.332385
 20
-11.291438
 30
0.0
  0
SPLINE
  5
29a
100
AcDbEntity
  8
0
 62
7
100
AcDbSpline
 70
8
 71
3
 72
8
 73
4
 74
0
 40
0
 40
0
 40
0
 40
0
 40
1
 40
1
 40
1
 40
1
 10
164.332385
 20
-11.291438
 30
0.0
 10
163.917095
 20
-11.531206
 30
0.0
 10
163.405436
 20
-11.531206
 30
0.0
 10
162.990146
 20
-11.291438
 30
0.0
  0
SPLINE
  5
29b
100
AcDbEntity
  8
0
 62
7
100
AcDbSpline
 70
8
 71
3
 72
8
 73
4
 74
0
 40
0
 40
0
 40
0
 40
0
 40
1
 40
1
 40
1
 40
1
 10
162.990146
 20
-11.291438
 30
0.0
 10
162.574855
 20
-11.051670
 30
0.0
 10
162.319026
 20
-10.608561
 30
0.0
 10
162.319026
 20
-10.129026
 30
0.0
  0
SPLINE
  5
29c
100
AcDbEntity
  8
0
 62
7
100
AcDbSpline
 70
8
 71
3
 72
8
 73
4
 74
0
 40
0
 40
0
 40
0
 40
0
 40
1
 40
1
 40
1
 40
1
 10
162.319026
 20
-10.129026
 30
0.0
 10
162.319026
 20
-9.649490
 30
0.0
 10
162.574855
 20
-9.206381
 30
0.0
 10
162.990146
 20
-8.966613
 30
0.0
  0
SPLINE
  5
29d
100
AcDbEntity
  8
0
 62
7
100
AcDbSpline
 70
8
 71
3
 72
8
 73
4
 74
0
 40
0
 40
0
 40
0
 40
0
 40
1
 40
1
 40
1
 40
1
 10
162.990146
 20
-8.966613
 30
0.0
 10
163.405436
 20
-8.726846
 30
0.0
 10
163.917095
 20
-8.726846
 30
0.0
 10
164.332385
 20
-8.966613
 30
0.0
  0
SPLINE
  5
29e
100
AcDbEntity
  8
0
 62
7
100
AcDbSpline
 70
8
 71
3
 72
8
 73
4
 74
0
 40
0
 40
0
 40
0
 40
0
 40
1
 40
1
 40
1
 40
1
 10
164.332385
 20
-8.966613
 30
0.0
 10
164.747675
 20
-9.206381
 30
0.0
 10
165.003504
 20
-9.649490
 30
0.0
 10
165.003504
 20
-10.129026
 30
0.0
  0
LWPOLYLINE
  5
29f
100
AcDbEntity
  8
0
 62
7
100
AcDbPolyline
 90
2
 70
1
 10
149.070086
 20
-14.922005
 30
0.0
 10
149.070086
 20
-14.922005
 30
0.0
  0
SPLINE
  5
2a0
100
AcDbEntity
  8
0
 62
7
100
AcDbSpline
 70
8
 71
3
 72
8
 73
4
 74
0
 40
0
 40
0
 40
0
 40
0
 40
1
 40
1
 40
1
 40
1
 10
165.003504
 20
-10.129026
 30
0.0
 10
165.003504
 20
-10.608561
 30
0.0
 10
164.747675
 20
-11.051670
 30
0.0
 10
164.332385
 20
-11.291438
 30
0.0
  0
SPLINE
  5
2a1
100
AcDbEntity
  8
0
 62
7
100
AcDbSpline
 70
8
 71
3
 72
8
 73
4
 74
0
 40
0
 40
0
 40
0
 40
0
 40
1
 40
1
 40
1
 40
1
 10
164.332385
 20
-11.291438
 30
0.0
 10
163.917095
 20
-11.531206
 30
0.0
 10
163.405436
 20
-11.531206
 30
0.0
 10
162.990146
 20
-11.291438
 30
0.0
  0
SPLINE
  5
2a2
100
AcDbEntity
  8
0
 62
7
100
AcDbSpline
 70
8
 71
3
 72
8
 73
4
 74
0
 40
0
 40
0
 40
0
 40
0
 40
1
 40
1
 40
1
 40
1
 10
162.990146
 20
-11.291438
 30
0.0
 10
162.574855
 20
-11.051670
 30
0.0
 10
162.319026
 20
-10.608561
 30
0.0
 10
162.319026
 20
-10.129026
 30
0.0
  0
SPLINE
  5
2a3
100
AcDbEntity
  8
0
 62
7
100
AcDbSpline
 70
8
 71
3
 72
8
 73
4
 74
0
 40
0
 40
0
 40
0
 40
0
 40
1
 40
1
 40
1
 40
1
 10
162.319026
 20
-10.129026
 30
0.0
 10
162.319026
 20
-9.649490
 30
0.0
 10
162.574855
 20
-9.206381
 30
0.0
 10
162.990146
 20
-8.966613
 30
0.0
  0
SPLINE
  5
2a4
100
AcDbEntity
  8
0
 62
7
100
AcDbSpline
 70
8
 71
3
 72
8
 73
4
 74
0
 40
0
 40
0
 40
0
 40
0
 40
1
 40
1
 40
1
 40
1
 10
162.990146
 20
-8.966613
 30
0.0
 10
163.405436
 20
-8.726846
 30
0.0
 10
163.917095
 20
-8.726846
 30
0.0
 10
164.332385
 20
-8.966613
 30
0.0
  0
SPLINE
  5
2a5
100
AcDbEntity
  8
0
 62
7
100
AcDbSpline
 70
8
 71
3
 72
8
 73
4
 74
0
 40
0
 40
0
 40
0
 40
0
 40
1
 40
1
 40
1
 40
1
 10
164.332385
 20
-8.966613
 30
0.0
 10
164.747675
 20
-9.206381
 30
0.0
 10
165.003504
 20
-9.649490
 30
0.0
 10
165.003504
 20
-10.129026
 30
0.0
  0
LWPOLYLINE
  5
2a6
100
AcDbEntity
  8
0
 62
7
100
AcDbPolyline
 90
2
 70
1
 10
165.003504
 20
-10.129026
 30
0.0
 10
165.003504
 20
-10.129026
 30
0.0
  0
ENDSEC
  0
SECTION
  2
OBJECTS
  0
DICTIONARY
  5
C
330
0
100
AcDbDictionary
  3
ACAD_GROUP
350
D
  3
ACAD_MLINESTYLE
350
17
  0
DICTIONARY
  5
D
330
C
100
AcDbDictionary
  0
DICTIONARY
  5
1A
330
C
100
AcDbDictionary
  0
DICTIONARY
  5
17
330
C
100
AcDbDictionary
  3
STANDARD
350
18
  0
DICTIONARY
  5
19
330
C
100
AcDbDictionary
  0
ENDSEC
  0
EOF
