G04 #@! TF.GenerationSoftware,KiCad,Pcbnew,5.1.5-52549c5~86~ubuntu18.04.1*
G04 #@! TF.CreationDate,2020-09-15T13:24:36-05:00*
G04 #@! TF.ProjectId,,58585858-5858-4585-9858-585858585858,rev?*
G04 #@! TF.SameCoordinates,Original*
G04 #@! TF.FileFunction,Legend,Bot*
G04 #@! TF.FilePolarity,Positive*
%FSLAX46Y46*%
G04 Gerber Fmt 4.6, Leading zero omitted, Abs format (unit mm)*
G04 Created by KiCad (PCBNEW 5.1.5-52549c5~86~ubuntu18.04.1) date 2020-09-15 13:24:36*
%MOMM*%
%LPD*%
G04 APERTURE LIST*
%ADD10C,0.150000*%
%ADD11C,0.010000*%
G04 APERTURE END LIST*
D10*
X105306857Y-135948133D02*
X105259238Y-135995752D01*
X105211619Y-136138609D01*
X105211619Y-136233847D01*
X105259238Y-136376704D01*
X105354476Y-136471942D01*
X105449714Y-136519561D01*
X105640190Y-136567180D01*
X105783047Y-136567180D01*
X105973523Y-136519561D01*
X106068761Y-136471942D01*
X106164000Y-136376704D01*
X106211619Y-136233847D01*
X106211619Y-136138609D01*
X106164000Y-135995752D01*
X106116380Y-135948133D01*
X106211619Y-135329085D02*
X106211619Y-135233847D01*
X106164000Y-135138609D01*
X106116380Y-135090990D01*
X106021142Y-135043371D01*
X105830666Y-134995752D01*
X105592571Y-134995752D01*
X105402095Y-135043371D01*
X105306857Y-135090990D01*
X105259238Y-135138609D01*
X105211619Y-135233847D01*
X105211619Y-135329085D01*
X105259238Y-135424323D01*
X105306857Y-135471942D01*
X105402095Y-135519561D01*
X105592571Y-135567180D01*
X105830666Y-135567180D01*
X106021142Y-135519561D01*
X106116380Y-135471942D01*
X106164000Y-135424323D01*
X106211619Y-135329085D01*
X106211619Y-134090990D02*
X106211619Y-134567180D01*
X105735428Y-134614800D01*
X105783047Y-134567180D01*
X105830666Y-134471942D01*
X105830666Y-134233847D01*
X105783047Y-134138609D01*
X105735428Y-134090990D01*
X105640190Y-134043371D01*
X105402095Y-134043371D01*
X105306857Y-134090990D01*
X105259238Y-134138609D01*
X105211619Y-134233847D01*
X105211619Y-134471942D01*
X105259238Y-134567180D01*
X105306857Y-134614800D01*
X105116380Y-133852895D02*
X105116380Y-133090990D01*
X105735428Y-132519561D02*
X105687809Y-132376704D01*
X105640190Y-132329085D01*
X105544952Y-132281466D01*
X105402095Y-132281466D01*
X105306857Y-132329085D01*
X105259238Y-132376704D01*
X105211619Y-132471942D01*
X105211619Y-132852895D01*
X106211619Y-132852895D01*
X106211619Y-132519561D01*
X106164000Y-132424323D01*
X106116380Y-132376704D01*
X106021142Y-132329085D01*
X105925904Y-132329085D01*
X105830666Y-132376704D01*
X105783047Y-132424323D01*
X105735428Y-132519561D01*
X105735428Y-132852895D01*
X105211619Y-131281466D02*
X105687809Y-131614800D01*
X105211619Y-131852895D02*
X106211619Y-131852895D01*
X106211619Y-131471942D01*
X106164000Y-131376704D01*
X106116380Y-131329085D01*
X106021142Y-131281466D01*
X105878285Y-131281466D01*
X105783047Y-131329085D01*
X105735428Y-131376704D01*
X105687809Y-131471942D01*
X105687809Y-131852895D01*
X105735428Y-130852895D02*
X105735428Y-130519561D01*
X105211619Y-130376704D02*
X105211619Y-130852895D01*
X106211619Y-130852895D01*
X106211619Y-130376704D01*
X105497333Y-129995752D02*
X105497333Y-129519561D01*
X105211619Y-130090990D02*
X106211619Y-129757657D01*
X105211619Y-129424323D01*
X105211619Y-129090990D02*
X106211619Y-129090990D01*
X105211619Y-128519561D02*
X105783047Y-128948133D01*
X106211619Y-128519561D02*
X105640190Y-129090990D01*
X106211619Y-127900514D02*
X106211619Y-127710038D01*
X106164000Y-127614800D01*
X106068761Y-127519561D01*
X105878285Y-127471942D01*
X105544952Y-127471942D01*
X105354476Y-127519561D01*
X105259238Y-127614800D01*
X105211619Y-127710038D01*
X105211619Y-127900514D01*
X105259238Y-127995752D01*
X105354476Y-128090990D01*
X105544952Y-128138609D01*
X105878285Y-128138609D01*
X106068761Y-128090990D01*
X106164000Y-127995752D01*
X106211619Y-127900514D01*
X106211619Y-127043371D02*
X105402095Y-127043371D01*
X105306857Y-126995752D01*
X105259238Y-126948133D01*
X105211619Y-126852895D01*
X105211619Y-126662419D01*
X105259238Y-126567180D01*
X105306857Y-126519561D01*
X105402095Y-126471942D01*
X106211619Y-126471942D01*
X106211619Y-126138609D02*
X106211619Y-125567180D01*
X105211619Y-125852895D02*
X106211619Y-125852895D01*
X105306857Y-108008133D02*
X105259238Y-108055752D01*
X105211619Y-108198609D01*
X105211619Y-108293847D01*
X105259238Y-108436704D01*
X105354476Y-108531942D01*
X105449714Y-108579561D01*
X105640190Y-108627180D01*
X105783047Y-108627180D01*
X105973523Y-108579561D01*
X106068761Y-108531942D01*
X106164000Y-108436704D01*
X106211619Y-108293847D01*
X106211619Y-108198609D01*
X106164000Y-108055752D01*
X106116380Y-108008133D01*
X106211619Y-107389085D02*
X106211619Y-107293847D01*
X106164000Y-107198609D01*
X106116380Y-107150990D01*
X106021142Y-107103371D01*
X105830666Y-107055752D01*
X105592571Y-107055752D01*
X105402095Y-107103371D01*
X105306857Y-107150990D01*
X105259238Y-107198609D01*
X105211619Y-107293847D01*
X105211619Y-107389085D01*
X105259238Y-107484323D01*
X105306857Y-107531942D01*
X105402095Y-107579561D01*
X105592571Y-107627180D01*
X105830666Y-107627180D01*
X106021142Y-107579561D01*
X106116380Y-107531942D01*
X106164000Y-107484323D01*
X106211619Y-107389085D01*
X106211619Y-106150990D02*
X106211619Y-106627180D01*
X105735428Y-106674800D01*
X105783047Y-106627180D01*
X105830666Y-106531942D01*
X105830666Y-106293847D01*
X105783047Y-106198609D01*
X105735428Y-106150990D01*
X105640190Y-106103371D01*
X105402095Y-106103371D01*
X105306857Y-106150990D01*
X105259238Y-106198609D01*
X105211619Y-106293847D01*
X105211619Y-106531942D01*
X105259238Y-106627180D01*
X105306857Y-106674800D01*
X105116380Y-105912895D02*
X105116380Y-105150990D01*
X105735428Y-104579561D02*
X105687809Y-104436704D01*
X105640190Y-104389085D01*
X105544952Y-104341466D01*
X105402095Y-104341466D01*
X105306857Y-104389085D01*
X105259238Y-104436704D01*
X105211619Y-104531942D01*
X105211619Y-104912895D01*
X106211619Y-104912895D01*
X106211619Y-104579561D01*
X106164000Y-104484323D01*
X106116380Y-104436704D01*
X106021142Y-104389085D01*
X105925904Y-104389085D01*
X105830666Y-104436704D01*
X105783047Y-104484323D01*
X105735428Y-104579561D01*
X105735428Y-104912895D01*
X105211619Y-103341466D02*
X105687809Y-103674800D01*
X105211619Y-103912895D02*
X106211619Y-103912895D01*
X106211619Y-103531942D01*
X106164000Y-103436704D01*
X106116380Y-103389085D01*
X106021142Y-103341466D01*
X105878285Y-103341466D01*
X105783047Y-103389085D01*
X105735428Y-103436704D01*
X105687809Y-103531942D01*
X105687809Y-103912895D01*
X105735428Y-102912895D02*
X105735428Y-102579561D01*
X105211619Y-102436704D02*
X105211619Y-102912895D01*
X106211619Y-102912895D01*
X106211619Y-102436704D01*
X105497333Y-102055752D02*
X105497333Y-101579561D01*
X105211619Y-102150990D02*
X106211619Y-101817657D01*
X105211619Y-101484323D01*
X105211619Y-101150990D02*
X106211619Y-101150990D01*
X105211619Y-100579561D02*
X105783047Y-101008133D01*
X106211619Y-100579561D02*
X105640190Y-101150990D01*
X106211619Y-99960514D02*
X106211619Y-99770038D01*
X106164000Y-99674800D01*
X106068761Y-99579561D01*
X105878285Y-99531942D01*
X105544952Y-99531942D01*
X105354476Y-99579561D01*
X105259238Y-99674800D01*
X105211619Y-99770038D01*
X105211619Y-99960514D01*
X105259238Y-100055752D01*
X105354476Y-100150990D01*
X105544952Y-100198609D01*
X105878285Y-100198609D01*
X106068761Y-100150990D01*
X106164000Y-100055752D01*
X106211619Y-99960514D01*
X106211619Y-99103371D02*
X105402095Y-99103371D01*
X105306857Y-99055752D01*
X105259238Y-99008133D01*
X105211619Y-98912895D01*
X105211619Y-98722419D01*
X105259238Y-98627180D01*
X105306857Y-98579561D01*
X105402095Y-98531942D01*
X106211619Y-98531942D01*
X106211619Y-98198609D02*
X106211619Y-97627180D01*
X105211619Y-97912895D02*
X106211619Y-97912895D01*
X105306857Y-80068133D02*
X105259238Y-80115752D01*
X105211619Y-80258609D01*
X105211619Y-80353847D01*
X105259238Y-80496704D01*
X105354476Y-80591942D01*
X105449714Y-80639561D01*
X105640190Y-80687180D01*
X105783047Y-80687180D01*
X105973523Y-80639561D01*
X106068761Y-80591942D01*
X106164000Y-80496704D01*
X106211619Y-80353847D01*
X106211619Y-80258609D01*
X106164000Y-80115752D01*
X106116380Y-80068133D01*
X106211619Y-79449085D02*
X106211619Y-79353847D01*
X106164000Y-79258609D01*
X106116380Y-79210990D01*
X106021142Y-79163371D01*
X105830666Y-79115752D01*
X105592571Y-79115752D01*
X105402095Y-79163371D01*
X105306857Y-79210990D01*
X105259238Y-79258609D01*
X105211619Y-79353847D01*
X105211619Y-79449085D01*
X105259238Y-79544323D01*
X105306857Y-79591942D01*
X105402095Y-79639561D01*
X105592571Y-79687180D01*
X105830666Y-79687180D01*
X106021142Y-79639561D01*
X106116380Y-79591942D01*
X106164000Y-79544323D01*
X106211619Y-79449085D01*
X106211619Y-78210990D02*
X106211619Y-78687180D01*
X105735428Y-78734800D01*
X105783047Y-78687180D01*
X105830666Y-78591942D01*
X105830666Y-78353847D01*
X105783047Y-78258609D01*
X105735428Y-78210990D01*
X105640190Y-78163371D01*
X105402095Y-78163371D01*
X105306857Y-78210990D01*
X105259238Y-78258609D01*
X105211619Y-78353847D01*
X105211619Y-78591942D01*
X105259238Y-78687180D01*
X105306857Y-78734800D01*
X105116380Y-77972895D02*
X105116380Y-77210990D01*
X105735428Y-76639561D02*
X105687809Y-76496704D01*
X105640190Y-76449085D01*
X105544952Y-76401466D01*
X105402095Y-76401466D01*
X105306857Y-76449085D01*
X105259238Y-76496704D01*
X105211619Y-76591942D01*
X105211619Y-76972895D01*
X106211619Y-76972895D01*
X106211619Y-76639561D01*
X106164000Y-76544323D01*
X106116380Y-76496704D01*
X106021142Y-76449085D01*
X105925904Y-76449085D01*
X105830666Y-76496704D01*
X105783047Y-76544323D01*
X105735428Y-76639561D01*
X105735428Y-76972895D01*
X105211619Y-75401466D02*
X105687809Y-75734800D01*
X105211619Y-75972895D02*
X106211619Y-75972895D01*
X106211619Y-75591942D01*
X106164000Y-75496704D01*
X106116380Y-75449085D01*
X106021142Y-75401466D01*
X105878285Y-75401466D01*
X105783047Y-75449085D01*
X105735428Y-75496704D01*
X105687809Y-75591942D01*
X105687809Y-75972895D01*
X105735428Y-74972895D02*
X105735428Y-74639561D01*
X105211619Y-74496704D02*
X105211619Y-74972895D01*
X106211619Y-74972895D01*
X106211619Y-74496704D01*
X105497333Y-74115752D02*
X105497333Y-73639561D01*
X105211619Y-74210990D02*
X106211619Y-73877657D01*
X105211619Y-73544323D01*
X105211619Y-73210990D02*
X106211619Y-73210990D01*
X105211619Y-72639561D02*
X105783047Y-73068133D01*
X106211619Y-72639561D02*
X105640190Y-73210990D01*
X106211619Y-72020514D02*
X106211619Y-71830038D01*
X106164000Y-71734800D01*
X106068761Y-71639561D01*
X105878285Y-71591942D01*
X105544952Y-71591942D01*
X105354476Y-71639561D01*
X105259238Y-71734800D01*
X105211619Y-71830038D01*
X105211619Y-72020514D01*
X105259238Y-72115752D01*
X105354476Y-72210990D01*
X105544952Y-72258609D01*
X105878285Y-72258609D01*
X106068761Y-72210990D01*
X106164000Y-72115752D01*
X106211619Y-72020514D01*
X106211619Y-71163371D02*
X105402095Y-71163371D01*
X105306857Y-71115752D01*
X105259238Y-71068133D01*
X105211619Y-70972895D01*
X105211619Y-70782419D01*
X105259238Y-70687180D01*
X105306857Y-70639561D01*
X105402095Y-70591942D01*
X106211619Y-70591942D01*
X106211619Y-70258609D02*
X106211619Y-69687180D01*
X105211619Y-69972895D02*
X106211619Y-69972895D01*
D11*
G36*
X113656069Y-130939986D02*
G01*
X113211445Y-130856165D01*
X113083947Y-130546880D01*
X112956449Y-130237594D01*
X113208754Y-129866554D01*
X113279004Y-129762643D01*
X113341728Y-129668713D01*
X113394062Y-129589148D01*
X113433143Y-129528330D01*
X113456107Y-129490643D01*
X113461058Y-129480379D01*
X113448324Y-129461890D01*
X113413118Y-129422380D01*
X113359938Y-129366278D01*
X113293282Y-129298013D01*
X113217646Y-129222014D01*
X113137528Y-129142708D01*
X113057426Y-129064525D01*
X112981836Y-128991893D01*
X112915255Y-128929241D01*
X112862182Y-128880997D01*
X112827113Y-128851590D01*
X112815377Y-128844559D01*
X112793740Y-128854677D01*
X112746338Y-128883041D01*
X112677807Y-128926671D01*
X112592785Y-128982582D01*
X112495907Y-129047794D01*
X112440650Y-129085581D01*
X112339752Y-129154457D01*
X112248701Y-129215660D01*
X112172030Y-129266222D01*
X112114272Y-129303172D01*
X112079957Y-129323542D01*
X112072746Y-129326603D01*
X112052252Y-129319664D01*
X112004487Y-129300749D01*
X111936168Y-129272713D01*
X111854011Y-129238409D01*
X111764730Y-129200691D01*
X111675042Y-129162413D01*
X111591662Y-129126430D01*
X111521306Y-129095594D01*
X111470690Y-129072761D01*
X111446529Y-129060783D01*
X111445578Y-129060076D01*
X111440964Y-129041269D01*
X111430672Y-128991182D01*
X111415713Y-128915007D01*
X111397099Y-128817935D01*
X111375841Y-128705157D01*
X111363582Y-128639358D01*
X111340638Y-128518850D01*
X111318805Y-128410003D01*
X111299278Y-128318324D01*
X111283252Y-128249319D01*
X111271921Y-128208496D01*
X111268326Y-128200289D01*
X111243994Y-128192252D01*
X111189041Y-128185767D01*
X111109892Y-128180830D01*
X111012974Y-128177436D01*
X110904713Y-128175582D01*
X110791535Y-128175262D01*
X110679865Y-128176473D01*
X110576132Y-128179210D01*
X110486759Y-128183469D01*
X110418174Y-128189245D01*
X110376803Y-128196533D01*
X110368190Y-128200905D01*
X110357867Y-128227036D01*
X110343108Y-128282407D01*
X110325648Y-128359693D01*
X110307220Y-128451570D01*
X110301259Y-128483642D01*
X110272934Y-128638276D01*
X110250124Y-128760425D01*
X110231920Y-128854127D01*
X110217417Y-128923416D01*
X110205708Y-128972329D01*
X110195885Y-129004903D01*
X110187044Y-129025172D01*
X110178276Y-129037174D01*
X110176543Y-129038853D01*
X110148629Y-129055616D01*
X110094305Y-129081186D01*
X110020223Y-129113012D01*
X109933035Y-129148540D01*
X109839392Y-129185217D01*
X109745948Y-129220489D01*
X109659353Y-129251804D01*
X109586260Y-129276607D01*
X109533322Y-129292346D01*
X109507189Y-129296468D01*
X109506274Y-129296124D01*
X109484914Y-129282159D01*
X109437916Y-129250478D01*
X109370173Y-129204409D01*
X109286577Y-129147282D01*
X109192018Y-129082427D01*
X109165146Y-129063957D01*
X109067725Y-128998101D01*
X108978837Y-128940150D01*
X108903588Y-128893262D01*
X108847080Y-128860593D01*
X108814419Y-128845300D01*
X108810407Y-128844559D01*
X108789316Y-128857408D01*
X108747536Y-128892912D01*
X108689555Y-128946507D01*
X108619865Y-129013629D01*
X108542955Y-129089713D01*
X108463317Y-129170196D01*
X108385439Y-129250513D01*
X108313814Y-129326101D01*
X108252930Y-129392395D01*
X108207279Y-129444831D01*
X108181350Y-129478845D01*
X108177117Y-129488255D01*
X108187088Y-129510157D01*
X108213980Y-129555000D01*
X108253264Y-129615479D01*
X108284883Y-129662011D01*
X108342902Y-129746325D01*
X108411216Y-129846174D01*
X108479421Y-129946327D01*
X108515925Y-130000173D01*
X108639200Y-130182429D01*
X108556480Y-130335419D01*
X108520241Y-130405118D01*
X108492074Y-130464386D01*
X108476009Y-130504489D01*
X108473774Y-130514697D01*
X108490278Y-130526971D01*
X108536918Y-130551187D01*
X108609391Y-130585537D01*
X108703394Y-130628212D01*
X108814626Y-130677406D01*
X108938785Y-130731310D01*
X109071568Y-130788116D01*
X109208673Y-130846018D01*
X109345798Y-130903207D01*
X109478642Y-130957876D01*
X109602902Y-131008216D01*
X109714275Y-131052420D01*
X109808461Y-131088681D01*
X109881156Y-131115191D01*
X109928059Y-131130142D01*
X109944167Y-131132546D01*
X109964714Y-131113489D01*
X109998067Y-131071764D01*
X110037298Y-131016094D01*
X110040401Y-131011422D01*
X110155577Y-130867536D01*
X110289947Y-130751517D01*
X110439216Y-130664370D01*
X110599087Y-130607101D01*
X110765263Y-130580714D01*
X110933448Y-130586215D01*
X111099345Y-130624610D01*
X111258658Y-130696905D01*
X111293513Y-130718174D01*
X111434263Y-130828804D01*
X111547286Y-130959498D01*
X111631997Y-131105736D01*
X111687806Y-131262992D01*
X111714126Y-131426743D01*
X111710370Y-131592467D01*
X111675950Y-131755638D01*
X111610277Y-131911735D01*
X111512765Y-132056233D01*
X111473187Y-132100931D01*
X111349297Y-132214688D01*
X111218876Y-132297582D01*
X111072685Y-132354444D01*
X110927912Y-132386113D01*
X110765140Y-132393931D01*
X110601560Y-132367862D01*
X110442702Y-132310555D01*
X110294094Y-132224656D01*
X110161265Y-132112814D01*
X110049744Y-131977677D01*
X110037989Y-131959917D01*
X109999492Y-131903650D01*
X109966137Y-131860877D01*
X109944840Y-131840428D01*
X109944167Y-131840131D01*
X109921129Y-131844521D01*
X109868843Y-131861924D01*
X109791610Y-131890532D01*
X109693732Y-131928535D01*
X109579509Y-131974126D01*
X109453242Y-132025497D01*
X109319233Y-132080838D01*
X109181782Y-132138342D01*
X109045192Y-132196199D01*
X108913763Y-132252602D01*
X108791795Y-132305742D01*
X108683591Y-132353810D01*
X108593451Y-132394999D01*
X108525677Y-132427499D01*
X108484570Y-132449503D01*
X108473774Y-132458364D01*
X108482181Y-132485440D01*
X108504728Y-132536103D01*
X108537387Y-132601617D01*
X108556480Y-132637641D01*
X108639200Y-132790632D01*
X108515925Y-132972888D01*
X108452772Y-133065925D01*
X108383273Y-133167785D01*
X108317835Y-133263238D01*
X108284883Y-133311050D01*
X108239727Y-133378295D01*
X108203943Y-133435236D01*
X108182062Y-133474446D01*
X108177437Y-133487181D01*
X108189915Y-133505717D01*
X108224748Y-133546741D01*
X108278322Y-133606275D01*
X108347017Y-133680342D01*
X108427219Y-133764965D01*
X108478714Y-133818485D01*
X108570714Y-133912119D01*
X108653001Y-133993041D01*
X108722055Y-134057977D01*
X108774356Y-134103658D01*
X108806384Y-134126811D01*
X108812884Y-134129032D01*
X108837606Y-134118724D01*
X108887595Y-134090239D01*
X108957788Y-134046737D01*
X109043125Y-133991377D01*
X109138544Y-133927320D01*
X109165146Y-133909103D01*
X109261833Y-133842727D01*
X109348883Y-133783178D01*
X109421405Y-133733784D01*
X109474507Y-133697875D01*
X109503297Y-133678781D01*
X109506274Y-133676936D01*
X109529218Y-133679695D01*
X109579664Y-133694338D01*
X109650959Y-133718313D01*
X109736453Y-133749066D01*
X109829493Y-133784044D01*
X109923426Y-133820693D01*
X110011601Y-133856461D01*
X110087366Y-133888794D01*
X110144069Y-133915138D01*
X110175057Y-133932942D01*
X110176543Y-133934207D01*
X110185399Y-133945094D01*
X110194157Y-133963482D01*
X110203723Y-133993406D01*
X110215004Y-134038903D01*
X110228907Y-134104009D01*
X110246337Y-134192761D01*
X110268202Y-134309193D01*
X110295409Y-134457342D01*
X110301259Y-134489418D01*
X110319626Y-134584486D01*
X110337595Y-134667365D01*
X110353431Y-134730730D01*
X110365400Y-134767258D01*
X110368190Y-134772156D01*
X110392928Y-134780227D01*
X110448210Y-134786787D01*
X110527611Y-134791833D01*
X110624704Y-134795359D01*
X110733062Y-134797361D01*
X110846260Y-134797836D01*
X110957872Y-134796777D01*
X111061471Y-134794182D01*
X111150632Y-134790046D01*
X111218928Y-134784363D01*
X111259934Y-134777131D01*
X111268326Y-134772771D01*
X111276792Y-134748498D01*
X111290565Y-134693226D01*
X111308450Y-134612462D01*
X111329252Y-134511712D01*
X111351777Y-134396483D01*
X111363582Y-134333702D01*
X111385849Y-134214587D01*
X111406021Y-134108365D01*
X111423085Y-134020227D01*
X111436031Y-133955366D01*
X111443845Y-133918974D01*
X111445578Y-133912984D01*
X111465110Y-133902861D01*
X111512157Y-133881462D01*
X111579997Y-133851639D01*
X111661909Y-133816245D01*
X111751172Y-133778132D01*
X111841065Y-133740153D01*
X111924865Y-133705160D01*
X111995853Y-133676006D01*
X112047306Y-133655543D01*
X112072503Y-133646623D01*
X112073604Y-133646457D01*
X112093481Y-133656569D01*
X112139223Y-133684917D01*
X112206283Y-133728523D01*
X112290116Y-133784406D01*
X112386174Y-133849587D01*
X112441350Y-133887479D01*
X112542519Y-133956525D01*
X112634370Y-134017850D01*
X112712256Y-134068463D01*
X112771531Y-134105371D01*
X112807549Y-134125582D01*
X112815623Y-134128501D01*
X112834416Y-134115953D01*
X112874543Y-134081263D01*
X112931507Y-134028863D01*
X113000815Y-133963184D01*
X113077969Y-133888656D01*
X113158475Y-133809713D01*
X113237837Y-133730783D01*
X113311560Y-133656300D01*
X113375148Y-133590694D01*
X113424106Y-133538396D01*
X113453939Y-133503839D01*
X113461058Y-133492278D01*
X113451047Y-133473454D01*
X113422922Y-133428431D01*
X113379546Y-133361587D01*
X113323782Y-133277299D01*
X113258494Y-133179944D01*
X113208754Y-133106507D01*
X112956449Y-132735467D01*
X113211445Y-132116895D01*
X113656069Y-132033075D01*
X114100693Y-131949254D01*
X114100693Y-131023806D01*
X113656069Y-130939986D01*
G37*
X113656069Y-130939986D02*
X113211445Y-130856165D01*
X113083947Y-130546880D01*
X112956449Y-130237594D01*
X113208754Y-129866554D01*
X113279004Y-129762643D01*
X113341728Y-129668713D01*
X113394062Y-129589148D01*
X113433143Y-129528330D01*
X113456107Y-129490643D01*
X113461058Y-129480379D01*
X113448324Y-129461890D01*
X113413118Y-129422380D01*
X113359938Y-129366278D01*
X113293282Y-129298013D01*
X113217646Y-129222014D01*
X113137528Y-129142708D01*
X113057426Y-129064525D01*
X112981836Y-128991893D01*
X112915255Y-128929241D01*
X112862182Y-128880997D01*
X112827113Y-128851590D01*
X112815377Y-128844559D01*
X112793740Y-128854677D01*
X112746338Y-128883041D01*
X112677807Y-128926671D01*
X112592785Y-128982582D01*
X112495907Y-129047794D01*
X112440650Y-129085581D01*
X112339752Y-129154457D01*
X112248701Y-129215660D01*
X112172030Y-129266222D01*
X112114272Y-129303172D01*
X112079957Y-129323542D01*
X112072746Y-129326603D01*
X112052252Y-129319664D01*
X112004487Y-129300749D01*
X111936168Y-129272713D01*
X111854011Y-129238409D01*
X111764730Y-129200691D01*
X111675042Y-129162413D01*
X111591662Y-129126430D01*
X111521306Y-129095594D01*
X111470690Y-129072761D01*
X111446529Y-129060783D01*
X111445578Y-129060076D01*
X111440964Y-129041269D01*
X111430672Y-128991182D01*
X111415713Y-128915007D01*
X111397099Y-128817935D01*
X111375841Y-128705157D01*
X111363582Y-128639358D01*
X111340638Y-128518850D01*
X111318805Y-128410003D01*
X111299278Y-128318324D01*
X111283252Y-128249319D01*
X111271921Y-128208496D01*
X111268326Y-128200289D01*
X111243994Y-128192252D01*
X111189041Y-128185767D01*
X111109892Y-128180830D01*
X111012974Y-128177436D01*
X110904713Y-128175582D01*
X110791535Y-128175262D01*
X110679865Y-128176473D01*
X110576132Y-128179210D01*
X110486759Y-128183469D01*
X110418174Y-128189245D01*
X110376803Y-128196533D01*
X110368190Y-128200905D01*
X110357867Y-128227036D01*
X110343108Y-128282407D01*
X110325648Y-128359693D01*
X110307220Y-128451570D01*
X110301259Y-128483642D01*
X110272934Y-128638276D01*
X110250124Y-128760425D01*
X110231920Y-128854127D01*
X110217417Y-128923416D01*
X110205708Y-128972329D01*
X110195885Y-129004903D01*
X110187044Y-129025172D01*
X110178276Y-129037174D01*
X110176543Y-129038853D01*
X110148629Y-129055616D01*
X110094305Y-129081186D01*
X110020223Y-129113012D01*
X109933035Y-129148540D01*
X109839392Y-129185217D01*
X109745948Y-129220489D01*
X109659353Y-129251804D01*
X109586260Y-129276607D01*
X109533322Y-129292346D01*
X109507189Y-129296468D01*
X109506274Y-129296124D01*
X109484914Y-129282159D01*
X109437916Y-129250478D01*
X109370173Y-129204409D01*
X109286577Y-129147282D01*
X109192018Y-129082427D01*
X109165146Y-129063957D01*
X109067725Y-128998101D01*
X108978837Y-128940150D01*
X108903588Y-128893262D01*
X108847080Y-128860593D01*
X108814419Y-128845300D01*
X108810407Y-128844559D01*
X108789316Y-128857408D01*
X108747536Y-128892912D01*
X108689555Y-128946507D01*
X108619865Y-129013629D01*
X108542955Y-129089713D01*
X108463317Y-129170196D01*
X108385439Y-129250513D01*
X108313814Y-129326101D01*
X108252930Y-129392395D01*
X108207279Y-129444831D01*
X108181350Y-129478845D01*
X108177117Y-129488255D01*
X108187088Y-129510157D01*
X108213980Y-129555000D01*
X108253264Y-129615479D01*
X108284883Y-129662011D01*
X108342902Y-129746325D01*
X108411216Y-129846174D01*
X108479421Y-129946327D01*
X108515925Y-130000173D01*
X108639200Y-130182429D01*
X108556480Y-130335419D01*
X108520241Y-130405118D01*
X108492074Y-130464386D01*
X108476009Y-130504489D01*
X108473774Y-130514697D01*
X108490278Y-130526971D01*
X108536918Y-130551187D01*
X108609391Y-130585537D01*
X108703394Y-130628212D01*
X108814626Y-130677406D01*
X108938785Y-130731310D01*
X109071568Y-130788116D01*
X109208673Y-130846018D01*
X109345798Y-130903207D01*
X109478642Y-130957876D01*
X109602902Y-131008216D01*
X109714275Y-131052420D01*
X109808461Y-131088681D01*
X109881156Y-131115191D01*
X109928059Y-131130142D01*
X109944167Y-131132546D01*
X109964714Y-131113489D01*
X109998067Y-131071764D01*
X110037298Y-131016094D01*
X110040401Y-131011422D01*
X110155577Y-130867536D01*
X110289947Y-130751517D01*
X110439216Y-130664370D01*
X110599087Y-130607101D01*
X110765263Y-130580714D01*
X110933448Y-130586215D01*
X111099345Y-130624610D01*
X111258658Y-130696905D01*
X111293513Y-130718174D01*
X111434263Y-130828804D01*
X111547286Y-130959498D01*
X111631997Y-131105736D01*
X111687806Y-131262992D01*
X111714126Y-131426743D01*
X111710370Y-131592467D01*
X111675950Y-131755638D01*
X111610277Y-131911735D01*
X111512765Y-132056233D01*
X111473187Y-132100931D01*
X111349297Y-132214688D01*
X111218876Y-132297582D01*
X111072685Y-132354444D01*
X110927912Y-132386113D01*
X110765140Y-132393931D01*
X110601560Y-132367862D01*
X110442702Y-132310555D01*
X110294094Y-132224656D01*
X110161265Y-132112814D01*
X110049744Y-131977677D01*
X110037989Y-131959917D01*
X109999492Y-131903650D01*
X109966137Y-131860877D01*
X109944840Y-131840428D01*
X109944167Y-131840131D01*
X109921129Y-131844521D01*
X109868843Y-131861924D01*
X109791610Y-131890532D01*
X109693732Y-131928535D01*
X109579509Y-131974126D01*
X109453242Y-132025497D01*
X109319233Y-132080838D01*
X109181782Y-132138342D01*
X109045192Y-132196199D01*
X108913763Y-132252602D01*
X108791795Y-132305742D01*
X108683591Y-132353810D01*
X108593451Y-132394999D01*
X108525677Y-132427499D01*
X108484570Y-132449503D01*
X108473774Y-132458364D01*
X108482181Y-132485440D01*
X108504728Y-132536103D01*
X108537387Y-132601617D01*
X108556480Y-132637641D01*
X108639200Y-132790632D01*
X108515925Y-132972888D01*
X108452772Y-133065925D01*
X108383273Y-133167785D01*
X108317835Y-133263238D01*
X108284883Y-133311050D01*
X108239727Y-133378295D01*
X108203943Y-133435236D01*
X108182062Y-133474446D01*
X108177437Y-133487181D01*
X108189915Y-133505717D01*
X108224748Y-133546741D01*
X108278322Y-133606275D01*
X108347017Y-133680342D01*
X108427219Y-133764965D01*
X108478714Y-133818485D01*
X108570714Y-133912119D01*
X108653001Y-133993041D01*
X108722055Y-134057977D01*
X108774356Y-134103658D01*
X108806384Y-134126811D01*
X108812884Y-134129032D01*
X108837606Y-134118724D01*
X108887595Y-134090239D01*
X108957788Y-134046737D01*
X109043125Y-133991377D01*
X109138544Y-133927320D01*
X109165146Y-133909103D01*
X109261833Y-133842727D01*
X109348883Y-133783178D01*
X109421405Y-133733784D01*
X109474507Y-133697875D01*
X109503297Y-133678781D01*
X109506274Y-133676936D01*
X109529218Y-133679695D01*
X109579664Y-133694338D01*
X109650959Y-133718313D01*
X109736453Y-133749066D01*
X109829493Y-133784044D01*
X109923426Y-133820693D01*
X110011601Y-133856461D01*
X110087366Y-133888794D01*
X110144069Y-133915138D01*
X110175057Y-133932942D01*
X110176543Y-133934207D01*
X110185399Y-133945094D01*
X110194157Y-133963482D01*
X110203723Y-133993406D01*
X110215004Y-134038903D01*
X110228907Y-134104009D01*
X110246337Y-134192761D01*
X110268202Y-134309193D01*
X110295409Y-134457342D01*
X110301259Y-134489418D01*
X110319626Y-134584486D01*
X110337595Y-134667365D01*
X110353431Y-134730730D01*
X110365400Y-134767258D01*
X110368190Y-134772156D01*
X110392928Y-134780227D01*
X110448210Y-134786787D01*
X110527611Y-134791833D01*
X110624704Y-134795359D01*
X110733062Y-134797361D01*
X110846260Y-134797836D01*
X110957872Y-134796777D01*
X111061471Y-134794182D01*
X111150632Y-134790046D01*
X111218928Y-134784363D01*
X111259934Y-134777131D01*
X111268326Y-134772771D01*
X111276792Y-134748498D01*
X111290565Y-134693226D01*
X111308450Y-134612462D01*
X111329252Y-134511712D01*
X111351777Y-134396483D01*
X111363582Y-134333702D01*
X111385849Y-134214587D01*
X111406021Y-134108365D01*
X111423085Y-134020227D01*
X111436031Y-133955366D01*
X111443845Y-133918974D01*
X111445578Y-133912984D01*
X111465110Y-133902861D01*
X111512157Y-133881462D01*
X111579997Y-133851639D01*
X111661909Y-133816245D01*
X111751172Y-133778132D01*
X111841065Y-133740153D01*
X111924865Y-133705160D01*
X111995853Y-133676006D01*
X112047306Y-133655543D01*
X112072503Y-133646623D01*
X112073604Y-133646457D01*
X112093481Y-133656569D01*
X112139223Y-133684917D01*
X112206283Y-133728523D01*
X112290116Y-133784406D01*
X112386174Y-133849587D01*
X112441350Y-133887479D01*
X112542519Y-133956525D01*
X112634370Y-134017850D01*
X112712256Y-134068463D01*
X112771531Y-134105371D01*
X112807549Y-134125582D01*
X112815623Y-134128501D01*
X112834416Y-134115953D01*
X112874543Y-134081263D01*
X112931507Y-134028863D01*
X113000815Y-133963184D01*
X113077969Y-133888656D01*
X113158475Y-133809713D01*
X113237837Y-133730783D01*
X113311560Y-133656300D01*
X113375148Y-133590694D01*
X113424106Y-133538396D01*
X113453939Y-133503839D01*
X113461058Y-133492278D01*
X113451047Y-133473454D01*
X113422922Y-133428431D01*
X113379546Y-133361587D01*
X113323782Y-133277299D01*
X113258494Y-133179944D01*
X113208754Y-133106507D01*
X112956449Y-132735467D01*
X113211445Y-132116895D01*
X113656069Y-132033075D01*
X114100693Y-131949254D01*
X114100693Y-131023806D01*
X113656069Y-130939986D01*
G36*
X113656069Y-102999986D02*
G01*
X113211445Y-102916165D01*
X113083947Y-102606880D01*
X112956449Y-102297594D01*
X113208754Y-101926554D01*
X113279004Y-101822643D01*
X113341728Y-101728713D01*
X113394062Y-101649148D01*
X113433143Y-101588330D01*
X113456107Y-101550643D01*
X113461058Y-101540379D01*
X113448324Y-101521890D01*
X113413118Y-101482380D01*
X113359938Y-101426278D01*
X113293282Y-101358013D01*
X113217646Y-101282014D01*
X113137528Y-101202708D01*
X113057426Y-101124525D01*
X112981836Y-101051893D01*
X112915255Y-100989241D01*
X112862182Y-100940997D01*
X112827113Y-100911590D01*
X112815377Y-100904559D01*
X112793740Y-100914677D01*
X112746338Y-100943041D01*
X112677807Y-100986671D01*
X112592785Y-101042582D01*
X112495907Y-101107794D01*
X112440650Y-101145581D01*
X112339752Y-101214457D01*
X112248701Y-101275660D01*
X112172030Y-101326222D01*
X112114272Y-101363172D01*
X112079957Y-101383542D01*
X112072746Y-101386603D01*
X112052252Y-101379664D01*
X112004487Y-101360749D01*
X111936168Y-101332713D01*
X111854011Y-101298409D01*
X111764730Y-101260691D01*
X111675042Y-101222413D01*
X111591662Y-101186430D01*
X111521306Y-101155594D01*
X111470690Y-101132761D01*
X111446529Y-101120783D01*
X111445578Y-101120076D01*
X111440964Y-101101269D01*
X111430672Y-101051182D01*
X111415713Y-100975007D01*
X111397099Y-100877935D01*
X111375841Y-100765157D01*
X111363582Y-100699358D01*
X111340638Y-100578850D01*
X111318805Y-100470003D01*
X111299278Y-100378324D01*
X111283252Y-100309319D01*
X111271921Y-100268496D01*
X111268326Y-100260289D01*
X111243994Y-100252252D01*
X111189041Y-100245767D01*
X111109892Y-100240830D01*
X111012974Y-100237436D01*
X110904713Y-100235582D01*
X110791535Y-100235262D01*
X110679865Y-100236473D01*
X110576132Y-100239210D01*
X110486759Y-100243469D01*
X110418174Y-100249245D01*
X110376803Y-100256533D01*
X110368190Y-100260905D01*
X110357867Y-100287036D01*
X110343108Y-100342407D01*
X110325648Y-100419693D01*
X110307220Y-100511570D01*
X110301259Y-100543642D01*
X110272934Y-100698276D01*
X110250124Y-100820425D01*
X110231920Y-100914127D01*
X110217417Y-100983416D01*
X110205708Y-101032329D01*
X110195885Y-101064903D01*
X110187044Y-101085172D01*
X110178276Y-101097174D01*
X110176543Y-101098853D01*
X110148629Y-101115616D01*
X110094305Y-101141186D01*
X110020223Y-101173012D01*
X109933035Y-101208540D01*
X109839392Y-101245217D01*
X109745948Y-101280489D01*
X109659353Y-101311804D01*
X109586260Y-101336607D01*
X109533322Y-101352346D01*
X109507189Y-101356468D01*
X109506274Y-101356124D01*
X109484914Y-101342159D01*
X109437916Y-101310478D01*
X109370173Y-101264409D01*
X109286577Y-101207282D01*
X109192018Y-101142427D01*
X109165146Y-101123957D01*
X109067725Y-101058101D01*
X108978837Y-101000150D01*
X108903588Y-100953262D01*
X108847080Y-100920593D01*
X108814419Y-100905300D01*
X108810407Y-100904559D01*
X108789316Y-100917408D01*
X108747536Y-100952912D01*
X108689555Y-101006507D01*
X108619865Y-101073629D01*
X108542955Y-101149713D01*
X108463317Y-101230196D01*
X108385439Y-101310513D01*
X108313814Y-101386101D01*
X108252930Y-101452395D01*
X108207279Y-101504831D01*
X108181350Y-101538845D01*
X108177117Y-101548255D01*
X108187088Y-101570157D01*
X108213980Y-101615000D01*
X108253264Y-101675479D01*
X108284883Y-101722011D01*
X108342902Y-101806325D01*
X108411216Y-101906174D01*
X108479421Y-102006327D01*
X108515925Y-102060173D01*
X108639200Y-102242429D01*
X108556480Y-102395419D01*
X108520241Y-102465118D01*
X108492074Y-102524386D01*
X108476009Y-102564489D01*
X108473774Y-102574697D01*
X108490278Y-102586971D01*
X108536918Y-102611187D01*
X108609391Y-102645537D01*
X108703394Y-102688212D01*
X108814626Y-102737406D01*
X108938785Y-102791310D01*
X109071568Y-102848116D01*
X109208673Y-102906018D01*
X109345798Y-102963207D01*
X109478642Y-103017876D01*
X109602902Y-103068216D01*
X109714275Y-103112420D01*
X109808461Y-103148681D01*
X109881156Y-103175191D01*
X109928059Y-103190142D01*
X109944167Y-103192546D01*
X109964714Y-103173489D01*
X109998067Y-103131764D01*
X110037298Y-103076094D01*
X110040401Y-103071422D01*
X110155577Y-102927536D01*
X110289947Y-102811517D01*
X110439216Y-102724370D01*
X110599087Y-102667101D01*
X110765263Y-102640714D01*
X110933448Y-102646215D01*
X111099345Y-102684610D01*
X111258658Y-102756905D01*
X111293513Y-102778174D01*
X111434263Y-102888804D01*
X111547286Y-103019498D01*
X111631997Y-103165736D01*
X111687806Y-103322992D01*
X111714126Y-103486743D01*
X111710370Y-103652467D01*
X111675950Y-103815638D01*
X111610277Y-103971735D01*
X111512765Y-104116233D01*
X111473187Y-104160931D01*
X111349297Y-104274688D01*
X111218876Y-104357582D01*
X111072685Y-104414444D01*
X110927912Y-104446113D01*
X110765140Y-104453931D01*
X110601560Y-104427862D01*
X110442702Y-104370555D01*
X110294094Y-104284656D01*
X110161265Y-104172814D01*
X110049744Y-104037677D01*
X110037989Y-104019917D01*
X109999492Y-103963650D01*
X109966137Y-103920877D01*
X109944840Y-103900428D01*
X109944167Y-103900131D01*
X109921129Y-103904521D01*
X109868843Y-103921924D01*
X109791610Y-103950532D01*
X109693732Y-103988535D01*
X109579509Y-104034126D01*
X109453242Y-104085497D01*
X109319233Y-104140838D01*
X109181782Y-104198342D01*
X109045192Y-104256199D01*
X108913763Y-104312602D01*
X108791795Y-104365742D01*
X108683591Y-104413810D01*
X108593451Y-104454999D01*
X108525677Y-104487499D01*
X108484570Y-104509503D01*
X108473774Y-104518364D01*
X108482181Y-104545440D01*
X108504728Y-104596103D01*
X108537387Y-104661617D01*
X108556480Y-104697641D01*
X108639200Y-104850632D01*
X108515925Y-105032888D01*
X108452772Y-105125925D01*
X108383273Y-105227785D01*
X108317835Y-105323238D01*
X108284883Y-105371050D01*
X108239727Y-105438295D01*
X108203943Y-105495236D01*
X108182062Y-105534446D01*
X108177437Y-105547181D01*
X108189915Y-105565717D01*
X108224748Y-105606741D01*
X108278322Y-105666275D01*
X108347017Y-105740342D01*
X108427219Y-105824965D01*
X108478714Y-105878485D01*
X108570714Y-105972119D01*
X108653001Y-106053041D01*
X108722055Y-106117977D01*
X108774356Y-106163658D01*
X108806384Y-106186811D01*
X108812884Y-106189032D01*
X108837606Y-106178724D01*
X108887595Y-106150239D01*
X108957788Y-106106737D01*
X109043125Y-106051377D01*
X109138544Y-105987320D01*
X109165146Y-105969103D01*
X109261833Y-105902727D01*
X109348883Y-105843178D01*
X109421405Y-105793784D01*
X109474507Y-105757875D01*
X109503297Y-105738781D01*
X109506274Y-105736936D01*
X109529218Y-105739695D01*
X109579664Y-105754338D01*
X109650959Y-105778313D01*
X109736453Y-105809066D01*
X109829493Y-105844044D01*
X109923426Y-105880693D01*
X110011601Y-105916461D01*
X110087366Y-105948794D01*
X110144069Y-105975138D01*
X110175057Y-105992942D01*
X110176543Y-105994207D01*
X110185399Y-106005094D01*
X110194157Y-106023482D01*
X110203723Y-106053406D01*
X110215004Y-106098903D01*
X110228907Y-106164009D01*
X110246337Y-106252761D01*
X110268202Y-106369193D01*
X110295409Y-106517342D01*
X110301259Y-106549418D01*
X110319626Y-106644486D01*
X110337595Y-106727365D01*
X110353431Y-106790730D01*
X110365400Y-106827258D01*
X110368190Y-106832156D01*
X110392928Y-106840227D01*
X110448210Y-106846787D01*
X110527611Y-106851833D01*
X110624704Y-106855359D01*
X110733062Y-106857361D01*
X110846260Y-106857836D01*
X110957872Y-106856777D01*
X111061471Y-106854182D01*
X111150632Y-106850046D01*
X111218928Y-106844363D01*
X111259934Y-106837131D01*
X111268326Y-106832771D01*
X111276792Y-106808498D01*
X111290565Y-106753226D01*
X111308450Y-106672462D01*
X111329252Y-106571712D01*
X111351777Y-106456483D01*
X111363582Y-106393702D01*
X111385849Y-106274587D01*
X111406021Y-106168365D01*
X111423085Y-106080227D01*
X111436031Y-106015366D01*
X111443845Y-105978974D01*
X111445578Y-105972984D01*
X111465110Y-105962861D01*
X111512157Y-105941462D01*
X111579997Y-105911639D01*
X111661909Y-105876245D01*
X111751172Y-105838132D01*
X111841065Y-105800153D01*
X111924865Y-105765160D01*
X111995853Y-105736006D01*
X112047306Y-105715543D01*
X112072503Y-105706623D01*
X112073604Y-105706457D01*
X112093481Y-105716569D01*
X112139223Y-105744917D01*
X112206283Y-105788523D01*
X112290116Y-105844406D01*
X112386174Y-105909587D01*
X112441350Y-105947479D01*
X112542519Y-106016525D01*
X112634370Y-106077850D01*
X112712256Y-106128463D01*
X112771531Y-106165371D01*
X112807549Y-106185582D01*
X112815623Y-106188501D01*
X112834416Y-106175953D01*
X112874543Y-106141263D01*
X112931507Y-106088863D01*
X113000815Y-106023184D01*
X113077969Y-105948656D01*
X113158475Y-105869713D01*
X113237837Y-105790783D01*
X113311560Y-105716300D01*
X113375148Y-105650694D01*
X113424106Y-105598396D01*
X113453939Y-105563839D01*
X113461058Y-105552278D01*
X113451047Y-105533454D01*
X113422922Y-105488431D01*
X113379546Y-105421587D01*
X113323782Y-105337299D01*
X113258494Y-105239944D01*
X113208754Y-105166507D01*
X112956449Y-104795467D01*
X113211445Y-104176895D01*
X113656069Y-104093075D01*
X114100693Y-104009254D01*
X114100693Y-103083806D01*
X113656069Y-102999986D01*
G37*
X113656069Y-102999986D02*
X113211445Y-102916165D01*
X113083947Y-102606880D01*
X112956449Y-102297594D01*
X113208754Y-101926554D01*
X113279004Y-101822643D01*
X113341728Y-101728713D01*
X113394062Y-101649148D01*
X113433143Y-101588330D01*
X113456107Y-101550643D01*
X113461058Y-101540379D01*
X113448324Y-101521890D01*
X113413118Y-101482380D01*
X113359938Y-101426278D01*
X113293282Y-101358013D01*
X113217646Y-101282014D01*
X113137528Y-101202708D01*
X113057426Y-101124525D01*
X112981836Y-101051893D01*
X112915255Y-100989241D01*
X112862182Y-100940997D01*
X112827113Y-100911590D01*
X112815377Y-100904559D01*
X112793740Y-100914677D01*
X112746338Y-100943041D01*
X112677807Y-100986671D01*
X112592785Y-101042582D01*
X112495907Y-101107794D01*
X112440650Y-101145581D01*
X112339752Y-101214457D01*
X112248701Y-101275660D01*
X112172030Y-101326222D01*
X112114272Y-101363172D01*
X112079957Y-101383542D01*
X112072746Y-101386603D01*
X112052252Y-101379664D01*
X112004487Y-101360749D01*
X111936168Y-101332713D01*
X111854011Y-101298409D01*
X111764730Y-101260691D01*
X111675042Y-101222413D01*
X111591662Y-101186430D01*
X111521306Y-101155594D01*
X111470690Y-101132761D01*
X111446529Y-101120783D01*
X111445578Y-101120076D01*
X111440964Y-101101269D01*
X111430672Y-101051182D01*
X111415713Y-100975007D01*
X111397099Y-100877935D01*
X111375841Y-100765157D01*
X111363582Y-100699358D01*
X111340638Y-100578850D01*
X111318805Y-100470003D01*
X111299278Y-100378324D01*
X111283252Y-100309319D01*
X111271921Y-100268496D01*
X111268326Y-100260289D01*
X111243994Y-100252252D01*
X111189041Y-100245767D01*
X111109892Y-100240830D01*
X111012974Y-100237436D01*
X110904713Y-100235582D01*
X110791535Y-100235262D01*
X110679865Y-100236473D01*
X110576132Y-100239210D01*
X110486759Y-100243469D01*
X110418174Y-100249245D01*
X110376803Y-100256533D01*
X110368190Y-100260905D01*
X110357867Y-100287036D01*
X110343108Y-100342407D01*
X110325648Y-100419693D01*
X110307220Y-100511570D01*
X110301259Y-100543642D01*
X110272934Y-100698276D01*
X110250124Y-100820425D01*
X110231920Y-100914127D01*
X110217417Y-100983416D01*
X110205708Y-101032329D01*
X110195885Y-101064903D01*
X110187044Y-101085172D01*
X110178276Y-101097174D01*
X110176543Y-101098853D01*
X110148629Y-101115616D01*
X110094305Y-101141186D01*
X110020223Y-101173012D01*
X109933035Y-101208540D01*
X109839392Y-101245217D01*
X109745948Y-101280489D01*
X109659353Y-101311804D01*
X109586260Y-101336607D01*
X109533322Y-101352346D01*
X109507189Y-101356468D01*
X109506274Y-101356124D01*
X109484914Y-101342159D01*
X109437916Y-101310478D01*
X109370173Y-101264409D01*
X109286577Y-101207282D01*
X109192018Y-101142427D01*
X109165146Y-101123957D01*
X109067725Y-101058101D01*
X108978837Y-101000150D01*
X108903588Y-100953262D01*
X108847080Y-100920593D01*
X108814419Y-100905300D01*
X108810407Y-100904559D01*
X108789316Y-100917408D01*
X108747536Y-100952912D01*
X108689555Y-101006507D01*
X108619865Y-101073629D01*
X108542955Y-101149713D01*
X108463317Y-101230196D01*
X108385439Y-101310513D01*
X108313814Y-101386101D01*
X108252930Y-101452395D01*
X108207279Y-101504831D01*
X108181350Y-101538845D01*
X108177117Y-101548255D01*
X108187088Y-101570157D01*
X108213980Y-101615000D01*
X108253264Y-101675479D01*
X108284883Y-101722011D01*
X108342902Y-101806325D01*
X108411216Y-101906174D01*
X108479421Y-102006327D01*
X108515925Y-102060173D01*
X108639200Y-102242429D01*
X108556480Y-102395419D01*
X108520241Y-102465118D01*
X108492074Y-102524386D01*
X108476009Y-102564489D01*
X108473774Y-102574697D01*
X108490278Y-102586971D01*
X108536918Y-102611187D01*
X108609391Y-102645537D01*
X108703394Y-102688212D01*
X108814626Y-102737406D01*
X108938785Y-102791310D01*
X109071568Y-102848116D01*
X109208673Y-102906018D01*
X109345798Y-102963207D01*
X109478642Y-103017876D01*
X109602902Y-103068216D01*
X109714275Y-103112420D01*
X109808461Y-103148681D01*
X109881156Y-103175191D01*
X109928059Y-103190142D01*
X109944167Y-103192546D01*
X109964714Y-103173489D01*
X109998067Y-103131764D01*
X110037298Y-103076094D01*
X110040401Y-103071422D01*
X110155577Y-102927536D01*
X110289947Y-102811517D01*
X110439216Y-102724370D01*
X110599087Y-102667101D01*
X110765263Y-102640714D01*
X110933448Y-102646215D01*
X111099345Y-102684610D01*
X111258658Y-102756905D01*
X111293513Y-102778174D01*
X111434263Y-102888804D01*
X111547286Y-103019498D01*
X111631997Y-103165736D01*
X111687806Y-103322992D01*
X111714126Y-103486743D01*
X111710370Y-103652467D01*
X111675950Y-103815638D01*
X111610277Y-103971735D01*
X111512765Y-104116233D01*
X111473187Y-104160931D01*
X111349297Y-104274688D01*
X111218876Y-104357582D01*
X111072685Y-104414444D01*
X110927912Y-104446113D01*
X110765140Y-104453931D01*
X110601560Y-104427862D01*
X110442702Y-104370555D01*
X110294094Y-104284656D01*
X110161265Y-104172814D01*
X110049744Y-104037677D01*
X110037989Y-104019917D01*
X109999492Y-103963650D01*
X109966137Y-103920877D01*
X109944840Y-103900428D01*
X109944167Y-103900131D01*
X109921129Y-103904521D01*
X109868843Y-103921924D01*
X109791610Y-103950532D01*
X109693732Y-103988535D01*
X109579509Y-104034126D01*
X109453242Y-104085497D01*
X109319233Y-104140838D01*
X109181782Y-104198342D01*
X109045192Y-104256199D01*
X108913763Y-104312602D01*
X108791795Y-104365742D01*
X108683591Y-104413810D01*
X108593451Y-104454999D01*
X108525677Y-104487499D01*
X108484570Y-104509503D01*
X108473774Y-104518364D01*
X108482181Y-104545440D01*
X108504728Y-104596103D01*
X108537387Y-104661617D01*
X108556480Y-104697641D01*
X108639200Y-104850632D01*
X108515925Y-105032888D01*
X108452772Y-105125925D01*
X108383273Y-105227785D01*
X108317835Y-105323238D01*
X108284883Y-105371050D01*
X108239727Y-105438295D01*
X108203943Y-105495236D01*
X108182062Y-105534446D01*
X108177437Y-105547181D01*
X108189915Y-105565717D01*
X108224748Y-105606741D01*
X108278322Y-105666275D01*
X108347017Y-105740342D01*
X108427219Y-105824965D01*
X108478714Y-105878485D01*
X108570714Y-105972119D01*
X108653001Y-106053041D01*
X108722055Y-106117977D01*
X108774356Y-106163658D01*
X108806384Y-106186811D01*
X108812884Y-106189032D01*
X108837606Y-106178724D01*
X108887595Y-106150239D01*
X108957788Y-106106737D01*
X109043125Y-106051377D01*
X109138544Y-105987320D01*
X109165146Y-105969103D01*
X109261833Y-105902727D01*
X109348883Y-105843178D01*
X109421405Y-105793784D01*
X109474507Y-105757875D01*
X109503297Y-105738781D01*
X109506274Y-105736936D01*
X109529218Y-105739695D01*
X109579664Y-105754338D01*
X109650959Y-105778313D01*
X109736453Y-105809066D01*
X109829493Y-105844044D01*
X109923426Y-105880693D01*
X110011601Y-105916461D01*
X110087366Y-105948794D01*
X110144069Y-105975138D01*
X110175057Y-105992942D01*
X110176543Y-105994207D01*
X110185399Y-106005094D01*
X110194157Y-106023482D01*
X110203723Y-106053406D01*
X110215004Y-106098903D01*
X110228907Y-106164009D01*
X110246337Y-106252761D01*
X110268202Y-106369193D01*
X110295409Y-106517342D01*
X110301259Y-106549418D01*
X110319626Y-106644486D01*
X110337595Y-106727365D01*
X110353431Y-106790730D01*
X110365400Y-106827258D01*
X110368190Y-106832156D01*
X110392928Y-106840227D01*
X110448210Y-106846787D01*
X110527611Y-106851833D01*
X110624704Y-106855359D01*
X110733062Y-106857361D01*
X110846260Y-106857836D01*
X110957872Y-106856777D01*
X111061471Y-106854182D01*
X111150632Y-106850046D01*
X111218928Y-106844363D01*
X111259934Y-106837131D01*
X111268326Y-106832771D01*
X111276792Y-106808498D01*
X111290565Y-106753226D01*
X111308450Y-106672462D01*
X111329252Y-106571712D01*
X111351777Y-106456483D01*
X111363582Y-106393702D01*
X111385849Y-106274587D01*
X111406021Y-106168365D01*
X111423085Y-106080227D01*
X111436031Y-106015366D01*
X111443845Y-105978974D01*
X111445578Y-105972984D01*
X111465110Y-105962861D01*
X111512157Y-105941462D01*
X111579997Y-105911639D01*
X111661909Y-105876245D01*
X111751172Y-105838132D01*
X111841065Y-105800153D01*
X111924865Y-105765160D01*
X111995853Y-105736006D01*
X112047306Y-105715543D01*
X112072503Y-105706623D01*
X112073604Y-105706457D01*
X112093481Y-105716569D01*
X112139223Y-105744917D01*
X112206283Y-105788523D01*
X112290116Y-105844406D01*
X112386174Y-105909587D01*
X112441350Y-105947479D01*
X112542519Y-106016525D01*
X112634370Y-106077850D01*
X112712256Y-106128463D01*
X112771531Y-106165371D01*
X112807549Y-106185582D01*
X112815623Y-106188501D01*
X112834416Y-106175953D01*
X112874543Y-106141263D01*
X112931507Y-106088863D01*
X113000815Y-106023184D01*
X113077969Y-105948656D01*
X113158475Y-105869713D01*
X113237837Y-105790783D01*
X113311560Y-105716300D01*
X113375148Y-105650694D01*
X113424106Y-105598396D01*
X113453939Y-105563839D01*
X113461058Y-105552278D01*
X113451047Y-105533454D01*
X113422922Y-105488431D01*
X113379546Y-105421587D01*
X113323782Y-105337299D01*
X113258494Y-105239944D01*
X113208754Y-105166507D01*
X112956449Y-104795467D01*
X113211445Y-104176895D01*
X113656069Y-104093075D01*
X114100693Y-104009254D01*
X114100693Y-103083806D01*
X113656069Y-102999986D01*
G36*
X113656069Y-75059986D02*
G01*
X113211445Y-74976165D01*
X113083947Y-74666880D01*
X112956449Y-74357594D01*
X113208754Y-73986554D01*
X113279004Y-73882643D01*
X113341728Y-73788713D01*
X113394062Y-73709148D01*
X113433143Y-73648330D01*
X113456107Y-73610643D01*
X113461058Y-73600379D01*
X113448324Y-73581890D01*
X113413118Y-73542380D01*
X113359938Y-73486278D01*
X113293282Y-73418013D01*
X113217646Y-73342014D01*
X113137528Y-73262708D01*
X113057426Y-73184525D01*
X112981836Y-73111893D01*
X112915255Y-73049241D01*
X112862182Y-73000997D01*
X112827113Y-72971590D01*
X112815377Y-72964559D01*
X112793740Y-72974677D01*
X112746338Y-73003041D01*
X112677807Y-73046671D01*
X112592785Y-73102582D01*
X112495907Y-73167794D01*
X112440650Y-73205581D01*
X112339752Y-73274457D01*
X112248701Y-73335660D01*
X112172030Y-73386222D01*
X112114272Y-73423172D01*
X112079957Y-73443542D01*
X112072746Y-73446603D01*
X112052252Y-73439664D01*
X112004487Y-73420749D01*
X111936168Y-73392713D01*
X111854011Y-73358409D01*
X111764730Y-73320691D01*
X111675042Y-73282413D01*
X111591662Y-73246430D01*
X111521306Y-73215594D01*
X111470690Y-73192761D01*
X111446529Y-73180783D01*
X111445578Y-73180076D01*
X111440964Y-73161269D01*
X111430672Y-73111182D01*
X111415713Y-73035007D01*
X111397099Y-72937935D01*
X111375841Y-72825157D01*
X111363582Y-72759358D01*
X111340638Y-72638850D01*
X111318805Y-72530003D01*
X111299278Y-72438324D01*
X111283252Y-72369319D01*
X111271921Y-72328496D01*
X111268326Y-72320289D01*
X111243994Y-72312252D01*
X111189041Y-72305767D01*
X111109892Y-72300830D01*
X111012974Y-72297436D01*
X110904713Y-72295582D01*
X110791535Y-72295262D01*
X110679865Y-72296473D01*
X110576132Y-72299210D01*
X110486759Y-72303469D01*
X110418174Y-72309245D01*
X110376803Y-72316533D01*
X110368190Y-72320905D01*
X110357867Y-72347036D01*
X110343108Y-72402407D01*
X110325648Y-72479693D01*
X110307220Y-72571570D01*
X110301259Y-72603642D01*
X110272934Y-72758276D01*
X110250124Y-72880425D01*
X110231920Y-72974127D01*
X110217417Y-73043416D01*
X110205708Y-73092329D01*
X110195885Y-73124903D01*
X110187044Y-73145172D01*
X110178276Y-73157174D01*
X110176543Y-73158853D01*
X110148629Y-73175616D01*
X110094305Y-73201186D01*
X110020223Y-73233012D01*
X109933035Y-73268540D01*
X109839392Y-73305217D01*
X109745948Y-73340489D01*
X109659353Y-73371804D01*
X109586260Y-73396607D01*
X109533322Y-73412346D01*
X109507189Y-73416468D01*
X109506274Y-73416124D01*
X109484914Y-73402159D01*
X109437916Y-73370478D01*
X109370173Y-73324409D01*
X109286577Y-73267282D01*
X109192018Y-73202427D01*
X109165146Y-73183957D01*
X109067725Y-73118101D01*
X108978837Y-73060150D01*
X108903588Y-73013262D01*
X108847080Y-72980593D01*
X108814419Y-72965300D01*
X108810407Y-72964559D01*
X108789316Y-72977408D01*
X108747536Y-73012912D01*
X108689555Y-73066507D01*
X108619865Y-73133629D01*
X108542955Y-73209713D01*
X108463317Y-73290196D01*
X108385439Y-73370513D01*
X108313814Y-73446101D01*
X108252930Y-73512395D01*
X108207279Y-73564831D01*
X108181350Y-73598845D01*
X108177117Y-73608255D01*
X108187088Y-73630157D01*
X108213980Y-73675000D01*
X108253264Y-73735479D01*
X108284883Y-73782011D01*
X108342902Y-73866325D01*
X108411216Y-73966174D01*
X108479421Y-74066327D01*
X108515925Y-74120173D01*
X108639200Y-74302429D01*
X108556480Y-74455419D01*
X108520241Y-74525118D01*
X108492074Y-74584386D01*
X108476009Y-74624489D01*
X108473774Y-74634697D01*
X108490278Y-74646971D01*
X108536918Y-74671187D01*
X108609391Y-74705537D01*
X108703394Y-74748212D01*
X108814626Y-74797406D01*
X108938785Y-74851310D01*
X109071568Y-74908116D01*
X109208673Y-74966018D01*
X109345798Y-75023207D01*
X109478642Y-75077876D01*
X109602902Y-75128216D01*
X109714275Y-75172420D01*
X109808461Y-75208681D01*
X109881156Y-75235191D01*
X109928059Y-75250142D01*
X109944167Y-75252546D01*
X109964714Y-75233489D01*
X109998067Y-75191764D01*
X110037298Y-75136094D01*
X110040401Y-75131422D01*
X110155577Y-74987536D01*
X110289947Y-74871517D01*
X110439216Y-74784370D01*
X110599087Y-74727101D01*
X110765263Y-74700714D01*
X110933448Y-74706215D01*
X111099345Y-74744610D01*
X111258658Y-74816905D01*
X111293513Y-74838174D01*
X111434263Y-74948804D01*
X111547286Y-75079498D01*
X111631997Y-75225736D01*
X111687806Y-75382992D01*
X111714126Y-75546743D01*
X111710370Y-75712467D01*
X111675950Y-75875638D01*
X111610277Y-76031735D01*
X111512765Y-76176233D01*
X111473187Y-76220931D01*
X111349297Y-76334688D01*
X111218876Y-76417582D01*
X111072685Y-76474444D01*
X110927912Y-76506113D01*
X110765140Y-76513931D01*
X110601560Y-76487862D01*
X110442702Y-76430555D01*
X110294094Y-76344656D01*
X110161265Y-76232814D01*
X110049744Y-76097677D01*
X110037989Y-76079917D01*
X109999492Y-76023650D01*
X109966137Y-75980877D01*
X109944840Y-75960428D01*
X109944167Y-75960131D01*
X109921129Y-75964521D01*
X109868843Y-75981924D01*
X109791610Y-76010532D01*
X109693732Y-76048535D01*
X109579509Y-76094126D01*
X109453242Y-76145497D01*
X109319233Y-76200838D01*
X109181782Y-76258342D01*
X109045192Y-76316199D01*
X108913763Y-76372602D01*
X108791795Y-76425742D01*
X108683591Y-76473810D01*
X108593451Y-76514999D01*
X108525677Y-76547499D01*
X108484570Y-76569503D01*
X108473774Y-76578364D01*
X108482181Y-76605440D01*
X108504728Y-76656103D01*
X108537387Y-76721617D01*
X108556480Y-76757641D01*
X108639200Y-76910632D01*
X108515925Y-77092888D01*
X108452772Y-77185925D01*
X108383273Y-77287785D01*
X108317835Y-77383238D01*
X108284883Y-77431050D01*
X108239727Y-77498295D01*
X108203943Y-77555236D01*
X108182062Y-77594446D01*
X108177437Y-77607181D01*
X108189915Y-77625717D01*
X108224748Y-77666741D01*
X108278322Y-77726275D01*
X108347017Y-77800342D01*
X108427219Y-77884965D01*
X108478714Y-77938485D01*
X108570714Y-78032119D01*
X108653001Y-78113041D01*
X108722055Y-78177977D01*
X108774356Y-78223658D01*
X108806384Y-78246811D01*
X108812884Y-78249032D01*
X108837606Y-78238724D01*
X108887595Y-78210239D01*
X108957788Y-78166737D01*
X109043125Y-78111377D01*
X109138544Y-78047320D01*
X109165146Y-78029103D01*
X109261833Y-77962727D01*
X109348883Y-77903178D01*
X109421405Y-77853784D01*
X109474507Y-77817875D01*
X109503297Y-77798781D01*
X109506274Y-77796936D01*
X109529218Y-77799695D01*
X109579664Y-77814338D01*
X109650959Y-77838313D01*
X109736453Y-77869066D01*
X109829493Y-77904044D01*
X109923426Y-77940693D01*
X110011601Y-77976461D01*
X110087366Y-78008794D01*
X110144069Y-78035138D01*
X110175057Y-78052942D01*
X110176543Y-78054207D01*
X110185399Y-78065094D01*
X110194157Y-78083482D01*
X110203723Y-78113406D01*
X110215004Y-78158903D01*
X110228907Y-78224009D01*
X110246337Y-78312761D01*
X110268202Y-78429193D01*
X110295409Y-78577342D01*
X110301259Y-78609418D01*
X110319626Y-78704486D01*
X110337595Y-78787365D01*
X110353431Y-78850730D01*
X110365400Y-78887258D01*
X110368190Y-78892156D01*
X110392928Y-78900227D01*
X110448210Y-78906787D01*
X110527611Y-78911833D01*
X110624704Y-78915359D01*
X110733062Y-78917361D01*
X110846260Y-78917836D01*
X110957872Y-78916777D01*
X111061471Y-78914182D01*
X111150632Y-78910046D01*
X111218928Y-78904363D01*
X111259934Y-78897131D01*
X111268326Y-78892771D01*
X111276792Y-78868498D01*
X111290565Y-78813226D01*
X111308450Y-78732462D01*
X111329252Y-78631712D01*
X111351777Y-78516483D01*
X111363582Y-78453702D01*
X111385849Y-78334587D01*
X111406021Y-78228365D01*
X111423085Y-78140227D01*
X111436031Y-78075366D01*
X111443845Y-78038974D01*
X111445578Y-78032984D01*
X111465110Y-78022861D01*
X111512157Y-78001462D01*
X111579997Y-77971639D01*
X111661909Y-77936245D01*
X111751172Y-77898132D01*
X111841065Y-77860153D01*
X111924865Y-77825160D01*
X111995853Y-77796006D01*
X112047306Y-77775543D01*
X112072503Y-77766623D01*
X112073604Y-77766457D01*
X112093481Y-77776569D01*
X112139223Y-77804917D01*
X112206283Y-77848523D01*
X112290116Y-77904406D01*
X112386174Y-77969587D01*
X112441350Y-78007479D01*
X112542519Y-78076525D01*
X112634370Y-78137850D01*
X112712256Y-78188463D01*
X112771531Y-78225371D01*
X112807549Y-78245582D01*
X112815623Y-78248501D01*
X112834416Y-78235953D01*
X112874543Y-78201263D01*
X112931507Y-78148863D01*
X113000815Y-78083184D01*
X113077969Y-78008656D01*
X113158475Y-77929713D01*
X113237837Y-77850783D01*
X113311560Y-77776300D01*
X113375148Y-77710694D01*
X113424106Y-77658396D01*
X113453939Y-77623839D01*
X113461058Y-77612278D01*
X113451047Y-77593454D01*
X113422922Y-77548431D01*
X113379546Y-77481587D01*
X113323782Y-77397299D01*
X113258494Y-77299944D01*
X113208754Y-77226507D01*
X112956449Y-76855467D01*
X113211445Y-76236895D01*
X113656069Y-76153075D01*
X114100693Y-76069254D01*
X114100693Y-75143806D01*
X113656069Y-75059986D01*
G37*
X113656069Y-75059986D02*
X113211445Y-74976165D01*
X113083947Y-74666880D01*
X112956449Y-74357594D01*
X113208754Y-73986554D01*
X113279004Y-73882643D01*
X113341728Y-73788713D01*
X113394062Y-73709148D01*
X113433143Y-73648330D01*
X113456107Y-73610643D01*
X113461058Y-73600379D01*
X113448324Y-73581890D01*
X113413118Y-73542380D01*
X113359938Y-73486278D01*
X113293282Y-73418013D01*
X113217646Y-73342014D01*
X113137528Y-73262708D01*
X113057426Y-73184525D01*
X112981836Y-73111893D01*
X112915255Y-73049241D01*
X112862182Y-73000997D01*
X112827113Y-72971590D01*
X112815377Y-72964559D01*
X112793740Y-72974677D01*
X112746338Y-73003041D01*
X112677807Y-73046671D01*
X112592785Y-73102582D01*
X112495907Y-73167794D01*
X112440650Y-73205581D01*
X112339752Y-73274457D01*
X112248701Y-73335660D01*
X112172030Y-73386222D01*
X112114272Y-73423172D01*
X112079957Y-73443542D01*
X112072746Y-73446603D01*
X112052252Y-73439664D01*
X112004487Y-73420749D01*
X111936168Y-73392713D01*
X111854011Y-73358409D01*
X111764730Y-73320691D01*
X111675042Y-73282413D01*
X111591662Y-73246430D01*
X111521306Y-73215594D01*
X111470690Y-73192761D01*
X111446529Y-73180783D01*
X111445578Y-73180076D01*
X111440964Y-73161269D01*
X111430672Y-73111182D01*
X111415713Y-73035007D01*
X111397099Y-72937935D01*
X111375841Y-72825157D01*
X111363582Y-72759358D01*
X111340638Y-72638850D01*
X111318805Y-72530003D01*
X111299278Y-72438324D01*
X111283252Y-72369319D01*
X111271921Y-72328496D01*
X111268326Y-72320289D01*
X111243994Y-72312252D01*
X111189041Y-72305767D01*
X111109892Y-72300830D01*
X111012974Y-72297436D01*
X110904713Y-72295582D01*
X110791535Y-72295262D01*
X110679865Y-72296473D01*
X110576132Y-72299210D01*
X110486759Y-72303469D01*
X110418174Y-72309245D01*
X110376803Y-72316533D01*
X110368190Y-72320905D01*
X110357867Y-72347036D01*
X110343108Y-72402407D01*
X110325648Y-72479693D01*
X110307220Y-72571570D01*
X110301259Y-72603642D01*
X110272934Y-72758276D01*
X110250124Y-72880425D01*
X110231920Y-72974127D01*
X110217417Y-73043416D01*
X110205708Y-73092329D01*
X110195885Y-73124903D01*
X110187044Y-73145172D01*
X110178276Y-73157174D01*
X110176543Y-73158853D01*
X110148629Y-73175616D01*
X110094305Y-73201186D01*
X110020223Y-73233012D01*
X109933035Y-73268540D01*
X109839392Y-73305217D01*
X109745948Y-73340489D01*
X109659353Y-73371804D01*
X109586260Y-73396607D01*
X109533322Y-73412346D01*
X109507189Y-73416468D01*
X109506274Y-73416124D01*
X109484914Y-73402159D01*
X109437916Y-73370478D01*
X109370173Y-73324409D01*
X109286577Y-73267282D01*
X109192018Y-73202427D01*
X109165146Y-73183957D01*
X109067725Y-73118101D01*
X108978837Y-73060150D01*
X108903588Y-73013262D01*
X108847080Y-72980593D01*
X108814419Y-72965300D01*
X108810407Y-72964559D01*
X108789316Y-72977408D01*
X108747536Y-73012912D01*
X108689555Y-73066507D01*
X108619865Y-73133629D01*
X108542955Y-73209713D01*
X108463317Y-73290196D01*
X108385439Y-73370513D01*
X108313814Y-73446101D01*
X108252930Y-73512395D01*
X108207279Y-73564831D01*
X108181350Y-73598845D01*
X108177117Y-73608255D01*
X108187088Y-73630157D01*
X108213980Y-73675000D01*
X108253264Y-73735479D01*
X108284883Y-73782011D01*
X108342902Y-73866325D01*
X108411216Y-73966174D01*
X108479421Y-74066327D01*
X108515925Y-74120173D01*
X108639200Y-74302429D01*
X108556480Y-74455419D01*
X108520241Y-74525118D01*
X108492074Y-74584386D01*
X108476009Y-74624489D01*
X108473774Y-74634697D01*
X108490278Y-74646971D01*
X108536918Y-74671187D01*
X108609391Y-74705537D01*
X108703394Y-74748212D01*
X108814626Y-74797406D01*
X108938785Y-74851310D01*
X109071568Y-74908116D01*
X109208673Y-74966018D01*
X109345798Y-75023207D01*
X109478642Y-75077876D01*
X109602902Y-75128216D01*
X109714275Y-75172420D01*
X109808461Y-75208681D01*
X109881156Y-75235191D01*
X109928059Y-75250142D01*
X109944167Y-75252546D01*
X109964714Y-75233489D01*
X109998067Y-75191764D01*
X110037298Y-75136094D01*
X110040401Y-75131422D01*
X110155577Y-74987536D01*
X110289947Y-74871517D01*
X110439216Y-74784370D01*
X110599087Y-74727101D01*
X110765263Y-74700714D01*
X110933448Y-74706215D01*
X111099345Y-74744610D01*
X111258658Y-74816905D01*
X111293513Y-74838174D01*
X111434263Y-74948804D01*
X111547286Y-75079498D01*
X111631997Y-75225736D01*
X111687806Y-75382992D01*
X111714126Y-75546743D01*
X111710370Y-75712467D01*
X111675950Y-75875638D01*
X111610277Y-76031735D01*
X111512765Y-76176233D01*
X111473187Y-76220931D01*
X111349297Y-76334688D01*
X111218876Y-76417582D01*
X111072685Y-76474444D01*
X110927912Y-76506113D01*
X110765140Y-76513931D01*
X110601560Y-76487862D01*
X110442702Y-76430555D01*
X110294094Y-76344656D01*
X110161265Y-76232814D01*
X110049744Y-76097677D01*
X110037989Y-76079917D01*
X109999492Y-76023650D01*
X109966137Y-75980877D01*
X109944840Y-75960428D01*
X109944167Y-75960131D01*
X109921129Y-75964521D01*
X109868843Y-75981924D01*
X109791610Y-76010532D01*
X109693732Y-76048535D01*
X109579509Y-76094126D01*
X109453242Y-76145497D01*
X109319233Y-76200838D01*
X109181782Y-76258342D01*
X109045192Y-76316199D01*
X108913763Y-76372602D01*
X108791795Y-76425742D01*
X108683591Y-76473810D01*
X108593451Y-76514999D01*
X108525677Y-76547499D01*
X108484570Y-76569503D01*
X108473774Y-76578364D01*
X108482181Y-76605440D01*
X108504728Y-76656103D01*
X108537387Y-76721617D01*
X108556480Y-76757641D01*
X108639200Y-76910632D01*
X108515925Y-77092888D01*
X108452772Y-77185925D01*
X108383273Y-77287785D01*
X108317835Y-77383238D01*
X108284883Y-77431050D01*
X108239727Y-77498295D01*
X108203943Y-77555236D01*
X108182062Y-77594446D01*
X108177437Y-77607181D01*
X108189915Y-77625717D01*
X108224748Y-77666741D01*
X108278322Y-77726275D01*
X108347017Y-77800342D01*
X108427219Y-77884965D01*
X108478714Y-77938485D01*
X108570714Y-78032119D01*
X108653001Y-78113041D01*
X108722055Y-78177977D01*
X108774356Y-78223658D01*
X108806384Y-78246811D01*
X108812884Y-78249032D01*
X108837606Y-78238724D01*
X108887595Y-78210239D01*
X108957788Y-78166737D01*
X109043125Y-78111377D01*
X109138544Y-78047320D01*
X109165146Y-78029103D01*
X109261833Y-77962727D01*
X109348883Y-77903178D01*
X109421405Y-77853784D01*
X109474507Y-77817875D01*
X109503297Y-77798781D01*
X109506274Y-77796936D01*
X109529218Y-77799695D01*
X109579664Y-77814338D01*
X109650959Y-77838313D01*
X109736453Y-77869066D01*
X109829493Y-77904044D01*
X109923426Y-77940693D01*
X110011601Y-77976461D01*
X110087366Y-78008794D01*
X110144069Y-78035138D01*
X110175057Y-78052942D01*
X110176543Y-78054207D01*
X110185399Y-78065094D01*
X110194157Y-78083482D01*
X110203723Y-78113406D01*
X110215004Y-78158903D01*
X110228907Y-78224009D01*
X110246337Y-78312761D01*
X110268202Y-78429193D01*
X110295409Y-78577342D01*
X110301259Y-78609418D01*
X110319626Y-78704486D01*
X110337595Y-78787365D01*
X110353431Y-78850730D01*
X110365400Y-78887258D01*
X110368190Y-78892156D01*
X110392928Y-78900227D01*
X110448210Y-78906787D01*
X110527611Y-78911833D01*
X110624704Y-78915359D01*
X110733062Y-78917361D01*
X110846260Y-78917836D01*
X110957872Y-78916777D01*
X111061471Y-78914182D01*
X111150632Y-78910046D01*
X111218928Y-78904363D01*
X111259934Y-78897131D01*
X111268326Y-78892771D01*
X111276792Y-78868498D01*
X111290565Y-78813226D01*
X111308450Y-78732462D01*
X111329252Y-78631712D01*
X111351777Y-78516483D01*
X111363582Y-78453702D01*
X111385849Y-78334587D01*
X111406021Y-78228365D01*
X111423085Y-78140227D01*
X111436031Y-78075366D01*
X111443845Y-78038974D01*
X111445578Y-78032984D01*
X111465110Y-78022861D01*
X111512157Y-78001462D01*
X111579997Y-77971639D01*
X111661909Y-77936245D01*
X111751172Y-77898132D01*
X111841065Y-77860153D01*
X111924865Y-77825160D01*
X111995853Y-77796006D01*
X112047306Y-77775543D01*
X112072503Y-77766623D01*
X112073604Y-77766457D01*
X112093481Y-77776569D01*
X112139223Y-77804917D01*
X112206283Y-77848523D01*
X112290116Y-77904406D01*
X112386174Y-77969587D01*
X112441350Y-78007479D01*
X112542519Y-78076525D01*
X112634370Y-78137850D01*
X112712256Y-78188463D01*
X112771531Y-78225371D01*
X112807549Y-78245582D01*
X112815623Y-78248501D01*
X112834416Y-78235953D01*
X112874543Y-78201263D01*
X112931507Y-78148863D01*
X113000815Y-78083184D01*
X113077969Y-78008656D01*
X113158475Y-77929713D01*
X113237837Y-77850783D01*
X113311560Y-77776300D01*
X113375148Y-77710694D01*
X113424106Y-77658396D01*
X113453939Y-77623839D01*
X113461058Y-77612278D01*
X113451047Y-77593454D01*
X113422922Y-77548431D01*
X113379546Y-77481587D01*
X113323782Y-77397299D01*
X113258494Y-77299944D01*
X113208754Y-77226507D01*
X112956449Y-76855467D01*
X113211445Y-76236895D01*
X113656069Y-76153075D01*
X114100693Y-76069254D01*
X114100693Y-75143806D01*
X113656069Y-75059986D01*
M02*
