G04 #@! TF.GenerationSoftware,KiCad,Pcbnew,5.1.5-52549c5~86~ubuntu18.04.1*
G04 #@! TF.CreationDate,2020-09-05T13:20:35-05:00*
G04 #@! TF.ProjectId,,58585858-5858-4585-9858-585858585858,rev?*
G04 #@! TF.SameCoordinates,Original*
G04 #@! TF.FileFunction,Soldermask,Top*
G04 #@! TF.FilePolarity,Negative*
%FSLAX46Y46*%
G04 Gerber Fmt 4.6, Leading zero omitted, Abs format (unit mm)*
G04 Created by KiCad (PCBNEW 5.1.5-52549c5~86~ubuntu18.04.1) date 2020-09-05 13:20:35*
%MOMM*%
%LPD*%
G04 APERTURE LIST*
%ADD10C,0.100000*%
G04 APERTURE END LIST*
D10*
G36*
X165124703Y-133996275D02*
G01*
X165283210Y-134027804D01*
X165565474Y-134144721D01*
X165819505Y-134314459D01*
X166035541Y-134530495D01*
X166205279Y-134784526D01*
X166322196Y-135066790D01*
X166322196Y-135066791D01*
X166373043Y-135322413D01*
X166381800Y-135366440D01*
X166381800Y-135671960D01*
X166322196Y-135971610D01*
X166205279Y-136253874D01*
X166035541Y-136507905D01*
X165819505Y-136723941D01*
X165565474Y-136893679D01*
X165283210Y-137010596D01*
X165133385Y-137040398D01*
X164983561Y-137070200D01*
X164678039Y-137070200D01*
X164528215Y-137040398D01*
X164378390Y-137010596D01*
X164096126Y-136893679D01*
X163842095Y-136723941D01*
X163626059Y-136507905D01*
X163456321Y-136253874D01*
X163339404Y-135971610D01*
X163279800Y-135671960D01*
X163279800Y-135366440D01*
X163288558Y-135322413D01*
X163339404Y-135066791D01*
X163339404Y-135066790D01*
X163456321Y-134784526D01*
X163626059Y-134530495D01*
X163842095Y-134314459D01*
X164096126Y-134144721D01*
X164378390Y-134027804D01*
X164536897Y-133996275D01*
X164678039Y-133968200D01*
X164983561Y-133968200D01*
X165124703Y-133996275D01*
G37*
G36*
X144804703Y-133996275D02*
G01*
X144963210Y-134027804D01*
X145245474Y-134144721D01*
X145499505Y-134314459D01*
X145715541Y-134530495D01*
X145885279Y-134784526D01*
X146002196Y-135066790D01*
X146002196Y-135066791D01*
X146053043Y-135322413D01*
X146061800Y-135366440D01*
X146061800Y-135671960D01*
X146002196Y-135971610D01*
X145885279Y-136253874D01*
X145715541Y-136507905D01*
X145499505Y-136723941D01*
X145245474Y-136893679D01*
X144963210Y-137010596D01*
X144813385Y-137040398D01*
X144663561Y-137070200D01*
X144358039Y-137070200D01*
X144208215Y-137040398D01*
X144058390Y-137010596D01*
X143776126Y-136893679D01*
X143522095Y-136723941D01*
X143306059Y-136507905D01*
X143136321Y-136253874D01*
X143019404Y-135971610D01*
X142959800Y-135671960D01*
X142959800Y-135366440D01*
X142968558Y-135322413D01*
X143019404Y-135066791D01*
X143019404Y-135066790D01*
X143136321Y-134784526D01*
X143306059Y-134530495D01*
X143522095Y-134314459D01*
X143776126Y-134144721D01*
X144058390Y-134027804D01*
X144216897Y-133996275D01*
X144358039Y-133968200D01*
X144663561Y-133968200D01*
X144804703Y-133996275D01*
G37*
G36*
X109244703Y-133996275D02*
G01*
X109403210Y-134027804D01*
X109685474Y-134144721D01*
X109939505Y-134314459D01*
X110155541Y-134530495D01*
X110325279Y-134784526D01*
X110442196Y-135066790D01*
X110442196Y-135066791D01*
X110493043Y-135322413D01*
X110501800Y-135366440D01*
X110501800Y-135671960D01*
X110442196Y-135971610D01*
X110325279Y-136253874D01*
X110155541Y-136507905D01*
X109939505Y-136723941D01*
X109685474Y-136893679D01*
X109403210Y-137010596D01*
X109253385Y-137040398D01*
X109103561Y-137070200D01*
X108798039Y-137070200D01*
X108648215Y-137040398D01*
X108498390Y-137010596D01*
X108216126Y-136893679D01*
X107962095Y-136723941D01*
X107746059Y-136507905D01*
X107576321Y-136253874D01*
X107459404Y-135971610D01*
X107399800Y-135671960D01*
X107399800Y-135366440D01*
X107408558Y-135322413D01*
X107459404Y-135066791D01*
X107459404Y-135066790D01*
X107576321Y-134784526D01*
X107746059Y-134530495D01*
X107962095Y-134314459D01*
X108216126Y-134144721D01*
X108498390Y-134027804D01*
X108656897Y-133996275D01*
X108798039Y-133968200D01*
X109103561Y-133968200D01*
X109244703Y-133996275D01*
G37*
G36*
X137184703Y-133996275D02*
G01*
X137343210Y-134027804D01*
X137625474Y-134144721D01*
X137879505Y-134314459D01*
X138095541Y-134530495D01*
X138265279Y-134784526D01*
X138382196Y-135066790D01*
X138382196Y-135066791D01*
X138433043Y-135322413D01*
X138441800Y-135366440D01*
X138441800Y-135671960D01*
X138382196Y-135971610D01*
X138265279Y-136253874D01*
X138095541Y-136507905D01*
X137879505Y-136723941D01*
X137625474Y-136893679D01*
X137343210Y-137010596D01*
X137193385Y-137040398D01*
X137043561Y-137070200D01*
X136738039Y-137070200D01*
X136588215Y-137040398D01*
X136438390Y-137010596D01*
X136156126Y-136893679D01*
X135902095Y-136723941D01*
X135686059Y-136507905D01*
X135516321Y-136253874D01*
X135399404Y-135971610D01*
X135339800Y-135671960D01*
X135339800Y-135366440D01*
X135348558Y-135322413D01*
X135399404Y-135066791D01*
X135399404Y-135066790D01*
X135516321Y-134784526D01*
X135686059Y-134530495D01*
X135902095Y-134314459D01*
X136156126Y-134144721D01*
X136438390Y-134027804D01*
X136596897Y-133996275D01*
X136738039Y-133968200D01*
X137043561Y-133968200D01*
X137184703Y-133996275D01*
G37*
G36*
X116864703Y-133996275D02*
G01*
X117023210Y-134027804D01*
X117305474Y-134144721D01*
X117559505Y-134314459D01*
X117775541Y-134530495D01*
X117945279Y-134784526D01*
X118062196Y-135066790D01*
X118062196Y-135066791D01*
X118113043Y-135322413D01*
X118121800Y-135366440D01*
X118121800Y-135671960D01*
X118062196Y-135971610D01*
X117945279Y-136253874D01*
X117775541Y-136507905D01*
X117559505Y-136723941D01*
X117305474Y-136893679D01*
X117023210Y-137010596D01*
X116873385Y-137040398D01*
X116723561Y-137070200D01*
X116418039Y-137070200D01*
X116268215Y-137040398D01*
X116118390Y-137010596D01*
X115836126Y-136893679D01*
X115582095Y-136723941D01*
X115366059Y-136507905D01*
X115196321Y-136253874D01*
X115079404Y-135971610D01*
X115019800Y-135671960D01*
X115019800Y-135366440D01*
X115028558Y-135322413D01*
X115079404Y-135066791D01*
X115079404Y-135066790D01*
X115196321Y-134784526D01*
X115366059Y-134530495D01*
X115582095Y-134314459D01*
X115836126Y-134144721D01*
X116118390Y-134027804D01*
X116276897Y-133996275D01*
X116418039Y-133968200D01*
X116723561Y-133968200D01*
X116864703Y-133996275D01*
G37*
G36*
X88924703Y-133996275D02*
G01*
X89083210Y-134027804D01*
X89365474Y-134144721D01*
X89619505Y-134314459D01*
X89835541Y-134530495D01*
X90005279Y-134784526D01*
X90122196Y-135066790D01*
X90122196Y-135066791D01*
X90173043Y-135322413D01*
X90181800Y-135366440D01*
X90181800Y-135671960D01*
X90122196Y-135971610D01*
X90005279Y-136253874D01*
X89835541Y-136507905D01*
X89619505Y-136723941D01*
X89365474Y-136893679D01*
X89083210Y-137010596D01*
X88933385Y-137040398D01*
X88783561Y-137070200D01*
X88478039Y-137070200D01*
X88328215Y-137040398D01*
X88178390Y-137010596D01*
X87896126Y-136893679D01*
X87642095Y-136723941D01*
X87426059Y-136507905D01*
X87256321Y-136253874D01*
X87139404Y-135971610D01*
X87079800Y-135671960D01*
X87079800Y-135366440D01*
X87088558Y-135322413D01*
X87139404Y-135066791D01*
X87139404Y-135066790D01*
X87256321Y-134784526D01*
X87426059Y-134530495D01*
X87642095Y-134314459D01*
X87896126Y-134144721D01*
X88178390Y-134027804D01*
X88336897Y-133996275D01*
X88478039Y-133968200D01*
X88783561Y-133968200D01*
X88924703Y-133996275D01*
G37*
G36*
X156785703Y-133996275D02*
G01*
X157013371Y-134090578D01*
X157218266Y-134227485D01*
X157392515Y-134401734D01*
X157529422Y-134606629D01*
X157623725Y-134834297D01*
X157671800Y-135075987D01*
X157671800Y-135322413D01*
X157623725Y-135564103D01*
X157529422Y-135791771D01*
X157392515Y-135996666D01*
X157218266Y-136170915D01*
X157013371Y-136307822D01*
X157013370Y-136307823D01*
X157013369Y-136307823D01*
X156785703Y-136402125D01*
X156544014Y-136450200D01*
X156297586Y-136450200D01*
X156055897Y-136402125D01*
X155828231Y-136307823D01*
X155828230Y-136307823D01*
X155828229Y-136307822D01*
X155623334Y-136170915D01*
X155449085Y-135996666D01*
X155312178Y-135791771D01*
X155217875Y-135564103D01*
X155169800Y-135322413D01*
X155169800Y-135075987D01*
X155217875Y-134834297D01*
X155312178Y-134606629D01*
X155449085Y-134401734D01*
X155623334Y-134227485D01*
X155828229Y-134090578D01*
X156055897Y-133996275D01*
X156297586Y-133948200D01*
X156544014Y-133948200D01*
X156785703Y-133996275D01*
G37*
G36*
X132345703Y-133996275D02*
G01*
X132573371Y-134090578D01*
X132778266Y-134227485D01*
X132952515Y-134401734D01*
X133089422Y-134606629D01*
X133183725Y-134834297D01*
X133231800Y-135075987D01*
X133231800Y-135322413D01*
X133183725Y-135564103D01*
X133089422Y-135791771D01*
X132952515Y-135996666D01*
X132778266Y-136170915D01*
X132573371Y-136307822D01*
X132573370Y-136307823D01*
X132573369Y-136307823D01*
X132345703Y-136402125D01*
X132104014Y-136450200D01*
X131857586Y-136450200D01*
X131615897Y-136402125D01*
X131388231Y-136307823D01*
X131388230Y-136307823D01*
X131388229Y-136307822D01*
X131183334Y-136170915D01*
X131009085Y-135996666D01*
X130872178Y-135791771D01*
X130777875Y-135564103D01*
X130729800Y-135322413D01*
X130729800Y-135075987D01*
X130777875Y-134834297D01*
X130872178Y-134606629D01*
X131009085Y-134401734D01*
X131183334Y-134227485D01*
X131388229Y-134090578D01*
X131615897Y-133996275D01*
X131857586Y-133948200D01*
X132104014Y-133948200D01*
X132345703Y-133996275D01*
G37*
G36*
X104405703Y-133996275D02*
G01*
X104633371Y-134090578D01*
X104838266Y-134227485D01*
X105012515Y-134401734D01*
X105149422Y-134606629D01*
X105243725Y-134834297D01*
X105291800Y-135075987D01*
X105291800Y-135322413D01*
X105243725Y-135564103D01*
X105149422Y-135791771D01*
X105012515Y-135996666D01*
X104838266Y-136170915D01*
X104633371Y-136307822D01*
X104633370Y-136307823D01*
X104633369Y-136307823D01*
X104405703Y-136402125D01*
X104164014Y-136450200D01*
X103917586Y-136450200D01*
X103675897Y-136402125D01*
X103448231Y-136307823D01*
X103448230Y-136307823D01*
X103448229Y-136307822D01*
X103243334Y-136170915D01*
X103069085Y-135996666D01*
X102932178Y-135791771D01*
X102837875Y-135564103D01*
X102789800Y-135322413D01*
X102789800Y-135075987D01*
X102837875Y-134834297D01*
X102932178Y-134606629D01*
X103069085Y-134401734D01*
X103243334Y-134227485D01*
X103448229Y-134090578D01*
X103675897Y-133996275D01*
X103917586Y-133948200D01*
X104164014Y-133948200D01*
X104405703Y-133996275D01*
G37*
G36*
X100905703Y-133996275D02*
G01*
X101133371Y-134090578D01*
X101338266Y-134227485D01*
X101512515Y-134401734D01*
X101649422Y-134606629D01*
X101743725Y-134834297D01*
X101791800Y-135075987D01*
X101791800Y-135322413D01*
X101743725Y-135564103D01*
X101649422Y-135791771D01*
X101512515Y-135996666D01*
X101338266Y-136170915D01*
X101133371Y-136307822D01*
X101133370Y-136307823D01*
X101133369Y-136307823D01*
X100905703Y-136402125D01*
X100664014Y-136450200D01*
X100417586Y-136450200D01*
X100175897Y-136402125D01*
X99948231Y-136307823D01*
X99948230Y-136307823D01*
X99948229Y-136307822D01*
X99743334Y-136170915D01*
X99569085Y-135996666D01*
X99432178Y-135791771D01*
X99337875Y-135564103D01*
X99289800Y-135322413D01*
X99289800Y-135075987D01*
X99337875Y-134834297D01*
X99432178Y-134606629D01*
X99569085Y-134401734D01*
X99743334Y-134227485D01*
X99948229Y-134090578D01*
X100175897Y-133996275D01*
X100417586Y-133948200D01*
X100664014Y-133948200D01*
X100905703Y-133996275D01*
G37*
G36*
X97405703Y-133996275D02*
G01*
X97633371Y-134090578D01*
X97838266Y-134227485D01*
X98012515Y-134401734D01*
X98149422Y-134606629D01*
X98243725Y-134834297D01*
X98291800Y-135075987D01*
X98291800Y-135322413D01*
X98243725Y-135564103D01*
X98149422Y-135791771D01*
X98012515Y-135996666D01*
X97838266Y-136170915D01*
X97633371Y-136307822D01*
X97633370Y-136307823D01*
X97633369Y-136307823D01*
X97405703Y-136402125D01*
X97164014Y-136450200D01*
X96917586Y-136450200D01*
X96675897Y-136402125D01*
X96448231Y-136307823D01*
X96448230Y-136307823D01*
X96448229Y-136307822D01*
X96243334Y-136170915D01*
X96069085Y-135996666D01*
X95932178Y-135791771D01*
X95837875Y-135564103D01*
X95789800Y-135322413D01*
X95789800Y-135075987D01*
X95837875Y-134834297D01*
X95932178Y-134606629D01*
X96069085Y-134401734D01*
X96243334Y-134227485D01*
X96448229Y-134090578D01*
X96675897Y-133996275D01*
X96917586Y-133948200D01*
X97164014Y-133948200D01*
X97405703Y-133996275D01*
G37*
G36*
X94791800Y-136450200D02*
G01*
X92289800Y-136450200D01*
X92289800Y-133948200D01*
X94791800Y-133948200D01*
X94791800Y-136450200D01*
G37*
G36*
X128845703Y-133996275D02*
G01*
X129073371Y-134090578D01*
X129278266Y-134227485D01*
X129452515Y-134401734D01*
X129589422Y-134606629D01*
X129683725Y-134834297D01*
X129731800Y-135075987D01*
X129731800Y-135322413D01*
X129683725Y-135564103D01*
X129589422Y-135791771D01*
X129452515Y-135996666D01*
X129278266Y-136170915D01*
X129073371Y-136307822D01*
X129073370Y-136307823D01*
X129073369Y-136307823D01*
X128845703Y-136402125D01*
X128604014Y-136450200D01*
X128357586Y-136450200D01*
X128115897Y-136402125D01*
X127888231Y-136307823D01*
X127888230Y-136307823D01*
X127888229Y-136307822D01*
X127683334Y-136170915D01*
X127509085Y-135996666D01*
X127372178Y-135791771D01*
X127277875Y-135564103D01*
X127229800Y-135322413D01*
X127229800Y-135075987D01*
X127277875Y-134834297D01*
X127372178Y-134606629D01*
X127509085Y-134401734D01*
X127683334Y-134227485D01*
X127888229Y-134090578D01*
X128115897Y-133996275D01*
X128357586Y-133948200D01*
X128604014Y-133948200D01*
X128845703Y-133996275D01*
G37*
G36*
X122731800Y-136450200D02*
G01*
X120229800Y-136450200D01*
X120229800Y-133948200D01*
X122731800Y-133948200D01*
X122731800Y-136450200D01*
G37*
G36*
X160285703Y-133996275D02*
G01*
X160513371Y-134090578D01*
X160718266Y-134227485D01*
X160892515Y-134401734D01*
X161029422Y-134606629D01*
X161123725Y-134834297D01*
X161171800Y-135075987D01*
X161171800Y-135322413D01*
X161123725Y-135564103D01*
X161029422Y-135791771D01*
X160892515Y-135996666D01*
X160718266Y-136170915D01*
X160513371Y-136307822D01*
X160513370Y-136307823D01*
X160513369Y-136307823D01*
X160285703Y-136402125D01*
X160044014Y-136450200D01*
X159797586Y-136450200D01*
X159555897Y-136402125D01*
X159328231Y-136307823D01*
X159328230Y-136307823D01*
X159328229Y-136307822D01*
X159123334Y-136170915D01*
X158949085Y-135996666D01*
X158812178Y-135791771D01*
X158717875Y-135564103D01*
X158669800Y-135322413D01*
X158669800Y-135075987D01*
X158717875Y-134834297D01*
X158812178Y-134606629D01*
X158949085Y-134401734D01*
X159123334Y-134227485D01*
X159328229Y-134090578D01*
X159555897Y-133996275D01*
X159797586Y-133948200D01*
X160044014Y-133948200D01*
X160285703Y-133996275D01*
G37*
G36*
X150671800Y-136450200D02*
G01*
X148169800Y-136450200D01*
X148169800Y-133948200D01*
X150671800Y-133948200D01*
X150671800Y-136450200D01*
G37*
G36*
X153285703Y-133996275D02*
G01*
X153513371Y-134090578D01*
X153718266Y-134227485D01*
X153892515Y-134401734D01*
X154029422Y-134606629D01*
X154123725Y-134834297D01*
X154171800Y-135075987D01*
X154171800Y-135322413D01*
X154123725Y-135564103D01*
X154029422Y-135791771D01*
X153892515Y-135996666D01*
X153718266Y-136170915D01*
X153513371Y-136307822D01*
X153513370Y-136307823D01*
X153513369Y-136307823D01*
X153285703Y-136402125D01*
X153044014Y-136450200D01*
X152797586Y-136450200D01*
X152555897Y-136402125D01*
X152328231Y-136307823D01*
X152328230Y-136307823D01*
X152328229Y-136307822D01*
X152123334Y-136170915D01*
X151949085Y-135996666D01*
X151812178Y-135791771D01*
X151717875Y-135564103D01*
X151669800Y-135322413D01*
X151669800Y-135075987D01*
X151717875Y-134834297D01*
X151812178Y-134606629D01*
X151949085Y-134401734D01*
X152123334Y-134227485D01*
X152328229Y-134090578D01*
X152555897Y-133996275D01*
X152797586Y-133948200D01*
X153044014Y-133948200D01*
X153285703Y-133996275D01*
G37*
G36*
X125345703Y-133996275D02*
G01*
X125573371Y-134090578D01*
X125778266Y-134227485D01*
X125952515Y-134401734D01*
X126089422Y-134606629D01*
X126183725Y-134834297D01*
X126231800Y-135075987D01*
X126231800Y-135322413D01*
X126183725Y-135564103D01*
X126089422Y-135791771D01*
X125952515Y-135996666D01*
X125778266Y-136170915D01*
X125573371Y-136307822D01*
X125573370Y-136307823D01*
X125573369Y-136307823D01*
X125345703Y-136402125D01*
X125104014Y-136450200D01*
X124857586Y-136450200D01*
X124615897Y-136402125D01*
X124388231Y-136307823D01*
X124388230Y-136307823D01*
X124388229Y-136307822D01*
X124183334Y-136170915D01*
X124009085Y-135996666D01*
X123872178Y-135791771D01*
X123777875Y-135564103D01*
X123729800Y-135322413D01*
X123729800Y-135075987D01*
X123777875Y-134834297D01*
X123872178Y-134606629D01*
X124009085Y-134401734D01*
X124183334Y-134227485D01*
X124388229Y-134090578D01*
X124615897Y-133996275D01*
X124857586Y-133948200D01*
X125104014Y-133948200D01*
X125345703Y-133996275D01*
G37*
G36*
X165210193Y-129188504D02*
G01*
X165446901Y-129286552D01*
X165446903Y-129286553D01*
X165659935Y-129428896D01*
X165841104Y-129610065D01*
X165983447Y-129823097D01*
X165983448Y-129823099D01*
X166081496Y-130059807D01*
X166131480Y-130311093D01*
X166131480Y-130567307D01*
X166081496Y-130818593D01*
X165983448Y-131055301D01*
X165983447Y-131055303D01*
X165841104Y-131268335D01*
X165659935Y-131449504D01*
X165446903Y-131591847D01*
X165446902Y-131591848D01*
X165446901Y-131591848D01*
X165210193Y-131689896D01*
X164958907Y-131739880D01*
X164702693Y-131739880D01*
X164451407Y-131689896D01*
X164214699Y-131591848D01*
X164214698Y-131591848D01*
X164214697Y-131591847D01*
X164001665Y-131449504D01*
X163820496Y-131268335D01*
X163678153Y-131055303D01*
X163678152Y-131055301D01*
X163580104Y-130818593D01*
X163530120Y-130567307D01*
X163530120Y-130311093D01*
X163580104Y-130059807D01*
X163678152Y-129823099D01*
X163678153Y-129823097D01*
X163820496Y-129610065D01*
X164001665Y-129428896D01*
X164214697Y-129286553D01*
X164214699Y-129286552D01*
X164451407Y-129188504D01*
X164702693Y-129138520D01*
X164958907Y-129138520D01*
X165210193Y-129188504D01*
G37*
G36*
X144890193Y-129188504D02*
G01*
X145126901Y-129286552D01*
X145126903Y-129286553D01*
X145339935Y-129428896D01*
X145521104Y-129610065D01*
X145663447Y-129823097D01*
X145663448Y-129823099D01*
X145761496Y-130059807D01*
X145811480Y-130311093D01*
X145811480Y-130567307D01*
X145761496Y-130818593D01*
X145663448Y-131055301D01*
X145663447Y-131055303D01*
X145521104Y-131268335D01*
X145339935Y-131449504D01*
X145126903Y-131591847D01*
X145126902Y-131591848D01*
X145126901Y-131591848D01*
X144890193Y-131689896D01*
X144638907Y-131739880D01*
X144382693Y-131739880D01*
X144131407Y-131689896D01*
X143894699Y-131591848D01*
X143894698Y-131591848D01*
X143894697Y-131591847D01*
X143681665Y-131449504D01*
X143500496Y-131268335D01*
X143358153Y-131055303D01*
X143358152Y-131055301D01*
X143260104Y-130818593D01*
X143210120Y-130567307D01*
X143210120Y-130311093D01*
X143260104Y-130059807D01*
X143358152Y-129823099D01*
X143358153Y-129823097D01*
X143500496Y-129610065D01*
X143681665Y-129428896D01*
X143894697Y-129286553D01*
X143894699Y-129286552D01*
X144131407Y-129188504D01*
X144382693Y-129138520D01*
X144638907Y-129138520D01*
X144890193Y-129188504D01*
G37*
G36*
X116950193Y-129188504D02*
G01*
X117186901Y-129286552D01*
X117186903Y-129286553D01*
X117399935Y-129428896D01*
X117581104Y-129610065D01*
X117723447Y-129823097D01*
X117723448Y-129823099D01*
X117821496Y-130059807D01*
X117871480Y-130311093D01*
X117871480Y-130567307D01*
X117821496Y-130818593D01*
X117723448Y-131055301D01*
X117723447Y-131055303D01*
X117581104Y-131268335D01*
X117399935Y-131449504D01*
X117186903Y-131591847D01*
X117186902Y-131591848D01*
X117186901Y-131591848D01*
X116950193Y-131689896D01*
X116698907Y-131739880D01*
X116442693Y-131739880D01*
X116191407Y-131689896D01*
X115954699Y-131591848D01*
X115954698Y-131591848D01*
X115954697Y-131591847D01*
X115741665Y-131449504D01*
X115560496Y-131268335D01*
X115418153Y-131055303D01*
X115418152Y-131055301D01*
X115320104Y-130818593D01*
X115270120Y-130567307D01*
X115270120Y-130311093D01*
X115320104Y-130059807D01*
X115418152Y-129823099D01*
X115418153Y-129823097D01*
X115560496Y-129610065D01*
X115741665Y-129428896D01*
X115954697Y-129286553D01*
X115954699Y-129286552D01*
X116191407Y-129188504D01*
X116442693Y-129138520D01*
X116698907Y-129138520D01*
X116950193Y-129188504D01*
G37*
G36*
X137270193Y-129188504D02*
G01*
X137506901Y-129286552D01*
X137506903Y-129286553D01*
X137719935Y-129428896D01*
X137901104Y-129610065D01*
X138043447Y-129823097D01*
X138043448Y-129823099D01*
X138141496Y-130059807D01*
X138191480Y-130311093D01*
X138191480Y-130567307D01*
X138141496Y-130818593D01*
X138043448Y-131055301D01*
X138043447Y-131055303D01*
X137901104Y-131268335D01*
X137719935Y-131449504D01*
X137506903Y-131591847D01*
X137506902Y-131591848D01*
X137506901Y-131591848D01*
X137270193Y-131689896D01*
X137018907Y-131739880D01*
X136762693Y-131739880D01*
X136511407Y-131689896D01*
X136274699Y-131591848D01*
X136274698Y-131591848D01*
X136274697Y-131591847D01*
X136061665Y-131449504D01*
X135880496Y-131268335D01*
X135738153Y-131055303D01*
X135738152Y-131055301D01*
X135640104Y-130818593D01*
X135590120Y-130567307D01*
X135590120Y-130311093D01*
X135640104Y-130059807D01*
X135738152Y-129823099D01*
X135738153Y-129823097D01*
X135880496Y-129610065D01*
X136061665Y-129428896D01*
X136274697Y-129286553D01*
X136274699Y-129286552D01*
X136511407Y-129188504D01*
X136762693Y-129138520D01*
X137018907Y-129138520D01*
X137270193Y-129188504D01*
G37*
G36*
X109330193Y-129188504D02*
G01*
X109566901Y-129286552D01*
X109566903Y-129286553D01*
X109779935Y-129428896D01*
X109961104Y-129610065D01*
X110103447Y-129823097D01*
X110103448Y-129823099D01*
X110201496Y-130059807D01*
X110251480Y-130311093D01*
X110251480Y-130567307D01*
X110201496Y-130818593D01*
X110103448Y-131055301D01*
X110103447Y-131055303D01*
X109961104Y-131268335D01*
X109779935Y-131449504D01*
X109566903Y-131591847D01*
X109566902Y-131591848D01*
X109566901Y-131591848D01*
X109330193Y-131689896D01*
X109078907Y-131739880D01*
X108822693Y-131739880D01*
X108571407Y-131689896D01*
X108334699Y-131591848D01*
X108334698Y-131591848D01*
X108334697Y-131591847D01*
X108121665Y-131449504D01*
X107940496Y-131268335D01*
X107798153Y-131055303D01*
X107798152Y-131055301D01*
X107700104Y-130818593D01*
X107650120Y-130567307D01*
X107650120Y-130311093D01*
X107700104Y-130059807D01*
X107798152Y-129823099D01*
X107798153Y-129823097D01*
X107940496Y-129610065D01*
X108121665Y-129428896D01*
X108334697Y-129286553D01*
X108334699Y-129286552D01*
X108571407Y-129188504D01*
X108822693Y-129138520D01*
X109078907Y-129138520D01*
X109330193Y-129188504D01*
G37*
G36*
X89010193Y-129188504D02*
G01*
X89246901Y-129286552D01*
X89246903Y-129286553D01*
X89459935Y-129428896D01*
X89641104Y-129610065D01*
X89783447Y-129823097D01*
X89783448Y-129823099D01*
X89881496Y-130059807D01*
X89931480Y-130311093D01*
X89931480Y-130567307D01*
X89881496Y-130818593D01*
X89783448Y-131055301D01*
X89783447Y-131055303D01*
X89641104Y-131268335D01*
X89459935Y-131449504D01*
X89246903Y-131591847D01*
X89246902Y-131591848D01*
X89246901Y-131591848D01*
X89010193Y-131689896D01*
X88758907Y-131739880D01*
X88502693Y-131739880D01*
X88251407Y-131689896D01*
X88014699Y-131591848D01*
X88014698Y-131591848D01*
X88014697Y-131591847D01*
X87801665Y-131449504D01*
X87620496Y-131268335D01*
X87478153Y-131055303D01*
X87478152Y-131055301D01*
X87380104Y-130818593D01*
X87330120Y-130567307D01*
X87330120Y-130311093D01*
X87380104Y-130059807D01*
X87478152Y-129823099D01*
X87478153Y-129823097D01*
X87620496Y-129610065D01*
X87801665Y-129428896D01*
X88014697Y-129286553D01*
X88014699Y-129286552D01*
X88251407Y-129188504D01*
X88502693Y-129138520D01*
X88758907Y-129138520D01*
X89010193Y-129188504D01*
G37*
G36*
X97405703Y-124476275D02*
G01*
X97633371Y-124570578D01*
X97838266Y-124707485D01*
X98012515Y-124881734D01*
X98149422Y-125086629D01*
X98243725Y-125314297D01*
X98291800Y-125555987D01*
X98291800Y-125802413D01*
X98243725Y-126044103D01*
X98149422Y-126271771D01*
X98012515Y-126476666D01*
X97838266Y-126650915D01*
X97633371Y-126787822D01*
X97633370Y-126787823D01*
X97633369Y-126787823D01*
X97405703Y-126882125D01*
X97164014Y-126930200D01*
X96917586Y-126930200D01*
X96675897Y-126882125D01*
X96448231Y-126787823D01*
X96448230Y-126787823D01*
X96448229Y-126787822D01*
X96243334Y-126650915D01*
X96069085Y-126476666D01*
X95932178Y-126271771D01*
X95837875Y-126044103D01*
X95789800Y-125802413D01*
X95789800Y-125555987D01*
X95837875Y-125314297D01*
X95932178Y-125086629D01*
X96069085Y-124881734D01*
X96243334Y-124707485D01*
X96448229Y-124570578D01*
X96675897Y-124476275D01*
X96917586Y-124428200D01*
X97164014Y-124428200D01*
X97405703Y-124476275D01*
G37*
G36*
X93905703Y-124476275D02*
G01*
X94133371Y-124570578D01*
X94338266Y-124707485D01*
X94512515Y-124881734D01*
X94649422Y-125086629D01*
X94743725Y-125314297D01*
X94791800Y-125555987D01*
X94791800Y-125802413D01*
X94743725Y-126044103D01*
X94649422Y-126271771D01*
X94512515Y-126476666D01*
X94338266Y-126650915D01*
X94133371Y-126787822D01*
X94133370Y-126787823D01*
X94133369Y-126787823D01*
X93905703Y-126882125D01*
X93664014Y-126930200D01*
X93417586Y-126930200D01*
X93175897Y-126882125D01*
X92948231Y-126787823D01*
X92948230Y-126787823D01*
X92948229Y-126787822D01*
X92743334Y-126650915D01*
X92569085Y-126476666D01*
X92432178Y-126271771D01*
X92337875Y-126044103D01*
X92289800Y-125802413D01*
X92289800Y-125555987D01*
X92337875Y-125314297D01*
X92432178Y-125086629D01*
X92569085Y-124881734D01*
X92743334Y-124707485D01*
X92948229Y-124570578D01*
X93175897Y-124476275D01*
X93417586Y-124428200D01*
X93664014Y-124428200D01*
X93905703Y-124476275D01*
G37*
G36*
X100905703Y-124476275D02*
G01*
X101133371Y-124570578D01*
X101338266Y-124707485D01*
X101512515Y-124881734D01*
X101649422Y-125086629D01*
X101743725Y-125314297D01*
X101791800Y-125555987D01*
X101791800Y-125802413D01*
X101743725Y-126044103D01*
X101649422Y-126271771D01*
X101512515Y-126476666D01*
X101338266Y-126650915D01*
X101133371Y-126787822D01*
X101133370Y-126787823D01*
X101133369Y-126787823D01*
X100905703Y-126882125D01*
X100664014Y-126930200D01*
X100417586Y-126930200D01*
X100175897Y-126882125D01*
X99948231Y-126787823D01*
X99948230Y-126787823D01*
X99948229Y-126787822D01*
X99743334Y-126650915D01*
X99569085Y-126476666D01*
X99432178Y-126271771D01*
X99337875Y-126044103D01*
X99289800Y-125802413D01*
X99289800Y-125555987D01*
X99337875Y-125314297D01*
X99432178Y-125086629D01*
X99569085Y-124881734D01*
X99743334Y-124707485D01*
X99948229Y-124570578D01*
X100175897Y-124476275D01*
X100417586Y-124428200D01*
X100664014Y-124428200D01*
X100905703Y-124476275D01*
G37*
G36*
X105291800Y-126930200D02*
G01*
X102789800Y-126930200D01*
X102789800Y-124428200D01*
X105291800Y-124428200D01*
X105291800Y-126930200D01*
G37*
G36*
X125345703Y-124476275D02*
G01*
X125573371Y-124570578D01*
X125778266Y-124707485D01*
X125952515Y-124881734D01*
X126089422Y-125086629D01*
X126183725Y-125314297D01*
X126231800Y-125555987D01*
X126231800Y-125802413D01*
X126183725Y-126044103D01*
X126089422Y-126271771D01*
X125952515Y-126476666D01*
X125778266Y-126650915D01*
X125573371Y-126787822D01*
X125573370Y-126787823D01*
X125573369Y-126787823D01*
X125345703Y-126882125D01*
X125104014Y-126930200D01*
X124857586Y-126930200D01*
X124615897Y-126882125D01*
X124388231Y-126787823D01*
X124388230Y-126787823D01*
X124388229Y-126787822D01*
X124183334Y-126650915D01*
X124009085Y-126476666D01*
X123872178Y-126271771D01*
X123777875Y-126044103D01*
X123729800Y-125802413D01*
X123729800Y-125555987D01*
X123777875Y-125314297D01*
X123872178Y-125086629D01*
X124009085Y-124881734D01*
X124183334Y-124707485D01*
X124388229Y-124570578D01*
X124615897Y-124476275D01*
X124857586Y-124428200D01*
X125104014Y-124428200D01*
X125345703Y-124476275D01*
G37*
G36*
X128845703Y-124476275D02*
G01*
X129073371Y-124570578D01*
X129278266Y-124707485D01*
X129452515Y-124881734D01*
X129589422Y-125086629D01*
X129683725Y-125314297D01*
X129731800Y-125555987D01*
X129731800Y-125802413D01*
X129683725Y-126044103D01*
X129589422Y-126271771D01*
X129452515Y-126476666D01*
X129278266Y-126650915D01*
X129073371Y-126787822D01*
X129073370Y-126787823D01*
X129073369Y-126787823D01*
X128845703Y-126882125D01*
X128604014Y-126930200D01*
X128357586Y-126930200D01*
X128115897Y-126882125D01*
X127888231Y-126787823D01*
X127888230Y-126787823D01*
X127888229Y-126787822D01*
X127683334Y-126650915D01*
X127509085Y-126476666D01*
X127372178Y-126271771D01*
X127277875Y-126044103D01*
X127229800Y-125802413D01*
X127229800Y-125555987D01*
X127277875Y-125314297D01*
X127372178Y-125086629D01*
X127509085Y-124881734D01*
X127683334Y-124707485D01*
X127888229Y-124570578D01*
X128115897Y-124476275D01*
X128357586Y-124428200D01*
X128604014Y-124428200D01*
X128845703Y-124476275D01*
G37*
G36*
X149785703Y-124476275D02*
G01*
X150013371Y-124570578D01*
X150218266Y-124707485D01*
X150392515Y-124881734D01*
X150529422Y-125086629D01*
X150623725Y-125314297D01*
X150671800Y-125555987D01*
X150671800Y-125802413D01*
X150623725Y-126044103D01*
X150529422Y-126271771D01*
X150392515Y-126476666D01*
X150218266Y-126650915D01*
X150013371Y-126787822D01*
X150013370Y-126787823D01*
X150013369Y-126787823D01*
X149785703Y-126882125D01*
X149544014Y-126930200D01*
X149297586Y-126930200D01*
X149055897Y-126882125D01*
X148828231Y-126787823D01*
X148828230Y-126787823D01*
X148828229Y-126787822D01*
X148623334Y-126650915D01*
X148449085Y-126476666D01*
X148312178Y-126271771D01*
X148217875Y-126044103D01*
X148169800Y-125802413D01*
X148169800Y-125555987D01*
X148217875Y-125314297D01*
X148312178Y-125086629D01*
X148449085Y-124881734D01*
X148623334Y-124707485D01*
X148828229Y-124570578D01*
X149055897Y-124476275D01*
X149297586Y-124428200D01*
X149544014Y-124428200D01*
X149785703Y-124476275D01*
G37*
G36*
X156785703Y-124476275D02*
G01*
X157013371Y-124570578D01*
X157218266Y-124707485D01*
X157392515Y-124881734D01*
X157529422Y-125086629D01*
X157623725Y-125314297D01*
X157671800Y-125555987D01*
X157671800Y-125802413D01*
X157623725Y-126044103D01*
X157529422Y-126271771D01*
X157392515Y-126476666D01*
X157218266Y-126650915D01*
X157013371Y-126787822D01*
X157013370Y-126787823D01*
X157013369Y-126787823D01*
X156785703Y-126882125D01*
X156544014Y-126930200D01*
X156297586Y-126930200D01*
X156055897Y-126882125D01*
X155828231Y-126787823D01*
X155828230Y-126787823D01*
X155828229Y-126787822D01*
X155623334Y-126650915D01*
X155449085Y-126476666D01*
X155312178Y-126271771D01*
X155217875Y-126044103D01*
X155169800Y-125802413D01*
X155169800Y-125555987D01*
X155217875Y-125314297D01*
X155312178Y-125086629D01*
X155449085Y-124881734D01*
X155623334Y-124707485D01*
X155828229Y-124570578D01*
X156055897Y-124476275D01*
X156297586Y-124428200D01*
X156544014Y-124428200D01*
X156785703Y-124476275D01*
G37*
G36*
X153285703Y-124476275D02*
G01*
X153513371Y-124570578D01*
X153718266Y-124707485D01*
X153892515Y-124881734D01*
X154029422Y-125086629D01*
X154123725Y-125314297D01*
X154171800Y-125555987D01*
X154171800Y-125802413D01*
X154123725Y-126044103D01*
X154029422Y-126271771D01*
X153892515Y-126476666D01*
X153718266Y-126650915D01*
X153513371Y-126787822D01*
X153513370Y-126787823D01*
X153513369Y-126787823D01*
X153285703Y-126882125D01*
X153044014Y-126930200D01*
X152797586Y-126930200D01*
X152555897Y-126882125D01*
X152328231Y-126787823D01*
X152328230Y-126787823D01*
X152328229Y-126787822D01*
X152123334Y-126650915D01*
X151949085Y-126476666D01*
X151812178Y-126271771D01*
X151717875Y-126044103D01*
X151669800Y-125802413D01*
X151669800Y-125555987D01*
X151717875Y-125314297D01*
X151812178Y-125086629D01*
X151949085Y-124881734D01*
X152123334Y-124707485D01*
X152328229Y-124570578D01*
X152555897Y-124476275D01*
X152797586Y-124428200D01*
X153044014Y-124428200D01*
X153285703Y-124476275D01*
G37*
G36*
X161171800Y-126930200D02*
G01*
X158669800Y-126930200D01*
X158669800Y-124428200D01*
X161171800Y-124428200D01*
X161171800Y-126930200D01*
G37*
G36*
X121845703Y-124476275D02*
G01*
X122073371Y-124570578D01*
X122278266Y-124707485D01*
X122452515Y-124881734D01*
X122589422Y-125086629D01*
X122683725Y-125314297D01*
X122731800Y-125555987D01*
X122731800Y-125802413D01*
X122683725Y-126044103D01*
X122589422Y-126271771D01*
X122452515Y-126476666D01*
X122278266Y-126650915D01*
X122073371Y-126787822D01*
X122073370Y-126787823D01*
X122073369Y-126787823D01*
X121845703Y-126882125D01*
X121604014Y-126930200D01*
X121357586Y-126930200D01*
X121115897Y-126882125D01*
X120888231Y-126787823D01*
X120888230Y-126787823D01*
X120888229Y-126787822D01*
X120683334Y-126650915D01*
X120509085Y-126476666D01*
X120372178Y-126271771D01*
X120277875Y-126044103D01*
X120229800Y-125802413D01*
X120229800Y-125555987D01*
X120277875Y-125314297D01*
X120372178Y-125086629D01*
X120509085Y-124881734D01*
X120683334Y-124707485D01*
X120888229Y-124570578D01*
X121115897Y-124476275D01*
X121357586Y-124428200D01*
X121604014Y-124428200D01*
X121845703Y-124476275D01*
G37*
G36*
X133231800Y-126930200D02*
G01*
X130729800Y-126930200D01*
X130729800Y-124428200D01*
X133231800Y-124428200D01*
X133231800Y-126930200D01*
G37*
G36*
X109253385Y-123838002D02*
G01*
X109403210Y-123867804D01*
X109685474Y-123984721D01*
X109939505Y-124154459D01*
X110155541Y-124370495D01*
X110325279Y-124624526D01*
X110431818Y-124881736D01*
X110442196Y-124906791D01*
X110501800Y-125206439D01*
X110501800Y-125511961D01*
X110471998Y-125661785D01*
X110442196Y-125811610D01*
X110325279Y-126093874D01*
X110155541Y-126347905D01*
X109939505Y-126563941D01*
X109685474Y-126733679D01*
X109403210Y-126850596D01*
X109253385Y-126880398D01*
X109103561Y-126910200D01*
X108798039Y-126910200D01*
X108648215Y-126880398D01*
X108498390Y-126850596D01*
X108216126Y-126733679D01*
X107962095Y-126563941D01*
X107746059Y-126347905D01*
X107576321Y-126093874D01*
X107459404Y-125811610D01*
X107429602Y-125661785D01*
X107399800Y-125511961D01*
X107399800Y-125206439D01*
X107459404Y-124906791D01*
X107469782Y-124881736D01*
X107576321Y-124624526D01*
X107746059Y-124370495D01*
X107962095Y-124154459D01*
X108216126Y-123984721D01*
X108498390Y-123867804D01*
X108648215Y-123838002D01*
X108798039Y-123808200D01*
X109103561Y-123808200D01*
X109253385Y-123838002D01*
G37*
G36*
X137193385Y-123838002D02*
G01*
X137343210Y-123867804D01*
X137625474Y-123984721D01*
X137879505Y-124154459D01*
X138095541Y-124370495D01*
X138265279Y-124624526D01*
X138371818Y-124881736D01*
X138382196Y-124906791D01*
X138441800Y-125206439D01*
X138441800Y-125511961D01*
X138411998Y-125661785D01*
X138382196Y-125811610D01*
X138265279Y-126093874D01*
X138095541Y-126347905D01*
X137879505Y-126563941D01*
X137625474Y-126733679D01*
X137343210Y-126850596D01*
X137193385Y-126880398D01*
X137043561Y-126910200D01*
X136738039Y-126910200D01*
X136588215Y-126880398D01*
X136438390Y-126850596D01*
X136156126Y-126733679D01*
X135902095Y-126563941D01*
X135686059Y-126347905D01*
X135516321Y-126093874D01*
X135399404Y-125811610D01*
X135369602Y-125661785D01*
X135339800Y-125511961D01*
X135339800Y-125206439D01*
X135399404Y-124906791D01*
X135409782Y-124881736D01*
X135516321Y-124624526D01*
X135686059Y-124370495D01*
X135902095Y-124154459D01*
X136156126Y-123984721D01*
X136438390Y-123867804D01*
X136588215Y-123838002D01*
X136738039Y-123808200D01*
X137043561Y-123808200D01*
X137193385Y-123838002D01*
G37*
G36*
X165133385Y-123838002D02*
G01*
X165283210Y-123867804D01*
X165565474Y-123984721D01*
X165819505Y-124154459D01*
X166035541Y-124370495D01*
X166205279Y-124624526D01*
X166311818Y-124881736D01*
X166322196Y-124906791D01*
X166381800Y-125206439D01*
X166381800Y-125511961D01*
X166351998Y-125661785D01*
X166322196Y-125811610D01*
X166205279Y-126093874D01*
X166035541Y-126347905D01*
X165819505Y-126563941D01*
X165565474Y-126733679D01*
X165283210Y-126850596D01*
X165133385Y-126880398D01*
X164983561Y-126910200D01*
X164678039Y-126910200D01*
X164528215Y-126880398D01*
X164378390Y-126850596D01*
X164096126Y-126733679D01*
X163842095Y-126563941D01*
X163626059Y-126347905D01*
X163456321Y-126093874D01*
X163339404Y-125811610D01*
X163309602Y-125661785D01*
X163279800Y-125511961D01*
X163279800Y-125206439D01*
X163339404Y-124906791D01*
X163349782Y-124881736D01*
X163456321Y-124624526D01*
X163626059Y-124370495D01*
X163842095Y-124154459D01*
X164096126Y-123984721D01*
X164378390Y-123867804D01*
X164528215Y-123838002D01*
X164678039Y-123808200D01*
X164983561Y-123808200D01*
X165133385Y-123838002D01*
G37*
G36*
X88933385Y-123838002D02*
G01*
X89083210Y-123867804D01*
X89365474Y-123984721D01*
X89619505Y-124154459D01*
X89835541Y-124370495D01*
X90005279Y-124624526D01*
X90111818Y-124881736D01*
X90122196Y-124906791D01*
X90181800Y-125206439D01*
X90181800Y-125511961D01*
X90151998Y-125661785D01*
X90122196Y-125811610D01*
X90005279Y-126093874D01*
X89835541Y-126347905D01*
X89619505Y-126563941D01*
X89365474Y-126733679D01*
X89083210Y-126850596D01*
X88933385Y-126880398D01*
X88783561Y-126910200D01*
X88478039Y-126910200D01*
X88328215Y-126880398D01*
X88178390Y-126850596D01*
X87896126Y-126733679D01*
X87642095Y-126563941D01*
X87426059Y-126347905D01*
X87256321Y-126093874D01*
X87139404Y-125811610D01*
X87109602Y-125661785D01*
X87079800Y-125511961D01*
X87079800Y-125206439D01*
X87139404Y-124906791D01*
X87149782Y-124881736D01*
X87256321Y-124624526D01*
X87426059Y-124370495D01*
X87642095Y-124154459D01*
X87896126Y-123984721D01*
X88178390Y-123867804D01*
X88328215Y-123838002D01*
X88478039Y-123808200D01*
X88783561Y-123808200D01*
X88933385Y-123838002D01*
G37*
G36*
X116873385Y-123838002D02*
G01*
X117023210Y-123867804D01*
X117305474Y-123984721D01*
X117559505Y-124154459D01*
X117775541Y-124370495D01*
X117945279Y-124624526D01*
X118051818Y-124881736D01*
X118062196Y-124906791D01*
X118121800Y-125206439D01*
X118121800Y-125511961D01*
X118091998Y-125661785D01*
X118062196Y-125811610D01*
X117945279Y-126093874D01*
X117775541Y-126347905D01*
X117559505Y-126563941D01*
X117305474Y-126733679D01*
X117023210Y-126850596D01*
X116873385Y-126880398D01*
X116723561Y-126910200D01*
X116418039Y-126910200D01*
X116268215Y-126880398D01*
X116118390Y-126850596D01*
X115836126Y-126733679D01*
X115582095Y-126563941D01*
X115366059Y-126347905D01*
X115196321Y-126093874D01*
X115079404Y-125811610D01*
X115049602Y-125661785D01*
X115019800Y-125511961D01*
X115019800Y-125206439D01*
X115079404Y-124906791D01*
X115089782Y-124881736D01*
X115196321Y-124624526D01*
X115366059Y-124370495D01*
X115582095Y-124154459D01*
X115836126Y-123984721D01*
X116118390Y-123867804D01*
X116268215Y-123838002D01*
X116418039Y-123808200D01*
X116723561Y-123808200D01*
X116873385Y-123838002D01*
G37*
G36*
X144813385Y-123838002D02*
G01*
X144963210Y-123867804D01*
X145245474Y-123984721D01*
X145499505Y-124154459D01*
X145715541Y-124370495D01*
X145885279Y-124624526D01*
X145991818Y-124881736D01*
X146002196Y-124906791D01*
X146061800Y-125206439D01*
X146061800Y-125511961D01*
X146031998Y-125661785D01*
X146002196Y-125811610D01*
X145885279Y-126093874D01*
X145715541Y-126347905D01*
X145499505Y-126563941D01*
X145245474Y-126733679D01*
X144963210Y-126850596D01*
X144813385Y-126880398D01*
X144663561Y-126910200D01*
X144358039Y-126910200D01*
X144208215Y-126880398D01*
X144058390Y-126850596D01*
X143776126Y-126733679D01*
X143522095Y-126563941D01*
X143306059Y-126347905D01*
X143136321Y-126093874D01*
X143019404Y-125811610D01*
X142989602Y-125661785D01*
X142959800Y-125511961D01*
X142959800Y-125206439D01*
X143019404Y-124906791D01*
X143029782Y-124881736D01*
X143136321Y-124624526D01*
X143306059Y-124370495D01*
X143522095Y-124154459D01*
X143776126Y-123984721D01*
X144058390Y-123867804D01*
X144208215Y-123838002D01*
X144358039Y-123808200D01*
X144663561Y-123808200D01*
X144813385Y-123838002D01*
G37*
G36*
X109244703Y-116216275D02*
G01*
X109403210Y-116247804D01*
X109685474Y-116364721D01*
X109939505Y-116534459D01*
X110155541Y-116750495D01*
X110325279Y-117004526D01*
X110442196Y-117286790D01*
X110442196Y-117286791D01*
X110493043Y-117542413D01*
X110501800Y-117586440D01*
X110501800Y-117891960D01*
X110442196Y-118191610D01*
X110325279Y-118473874D01*
X110155541Y-118727905D01*
X109939505Y-118943941D01*
X109685474Y-119113679D01*
X109403210Y-119230596D01*
X109253385Y-119260398D01*
X109103561Y-119290200D01*
X108798039Y-119290200D01*
X108648215Y-119260398D01*
X108498390Y-119230596D01*
X108216126Y-119113679D01*
X107962095Y-118943941D01*
X107746059Y-118727905D01*
X107576321Y-118473874D01*
X107459404Y-118191610D01*
X107399800Y-117891960D01*
X107399800Y-117586440D01*
X107408558Y-117542413D01*
X107459404Y-117286791D01*
X107459404Y-117286790D01*
X107576321Y-117004526D01*
X107746059Y-116750495D01*
X107962095Y-116534459D01*
X108216126Y-116364721D01*
X108498390Y-116247804D01*
X108656897Y-116216275D01*
X108798039Y-116188200D01*
X109103561Y-116188200D01*
X109244703Y-116216275D01*
G37*
G36*
X165124703Y-116216275D02*
G01*
X165283210Y-116247804D01*
X165565474Y-116364721D01*
X165819505Y-116534459D01*
X166035541Y-116750495D01*
X166205279Y-117004526D01*
X166322196Y-117286790D01*
X166322196Y-117286791D01*
X166373043Y-117542413D01*
X166381800Y-117586440D01*
X166381800Y-117891960D01*
X166322196Y-118191610D01*
X166205279Y-118473874D01*
X166035541Y-118727905D01*
X165819505Y-118943941D01*
X165565474Y-119113679D01*
X165283210Y-119230596D01*
X165133385Y-119260398D01*
X164983561Y-119290200D01*
X164678039Y-119290200D01*
X164528215Y-119260398D01*
X164378390Y-119230596D01*
X164096126Y-119113679D01*
X163842095Y-118943941D01*
X163626059Y-118727905D01*
X163456321Y-118473874D01*
X163339404Y-118191610D01*
X163279800Y-117891960D01*
X163279800Y-117586440D01*
X163288558Y-117542413D01*
X163339404Y-117286791D01*
X163339404Y-117286790D01*
X163456321Y-117004526D01*
X163626059Y-116750495D01*
X163842095Y-116534459D01*
X164096126Y-116364721D01*
X164378390Y-116247804D01*
X164536897Y-116216275D01*
X164678039Y-116188200D01*
X164983561Y-116188200D01*
X165124703Y-116216275D01*
G37*
G36*
X144804703Y-116216275D02*
G01*
X144963210Y-116247804D01*
X145245474Y-116364721D01*
X145499505Y-116534459D01*
X145715541Y-116750495D01*
X145885279Y-117004526D01*
X146002196Y-117286790D01*
X146002196Y-117286791D01*
X146053043Y-117542413D01*
X146061800Y-117586440D01*
X146061800Y-117891960D01*
X146002196Y-118191610D01*
X145885279Y-118473874D01*
X145715541Y-118727905D01*
X145499505Y-118943941D01*
X145245474Y-119113679D01*
X144963210Y-119230596D01*
X144813385Y-119260398D01*
X144663561Y-119290200D01*
X144358039Y-119290200D01*
X144208215Y-119260398D01*
X144058390Y-119230596D01*
X143776126Y-119113679D01*
X143522095Y-118943941D01*
X143306059Y-118727905D01*
X143136321Y-118473874D01*
X143019404Y-118191610D01*
X142959800Y-117891960D01*
X142959800Y-117586440D01*
X142968558Y-117542413D01*
X143019404Y-117286791D01*
X143019404Y-117286790D01*
X143136321Y-117004526D01*
X143306059Y-116750495D01*
X143522095Y-116534459D01*
X143776126Y-116364721D01*
X144058390Y-116247804D01*
X144216897Y-116216275D01*
X144358039Y-116188200D01*
X144663561Y-116188200D01*
X144804703Y-116216275D01*
G37*
G36*
X137184703Y-116216275D02*
G01*
X137343210Y-116247804D01*
X137625474Y-116364721D01*
X137879505Y-116534459D01*
X138095541Y-116750495D01*
X138265279Y-117004526D01*
X138382196Y-117286790D01*
X138382196Y-117286791D01*
X138433043Y-117542413D01*
X138441800Y-117586440D01*
X138441800Y-117891960D01*
X138382196Y-118191610D01*
X138265279Y-118473874D01*
X138095541Y-118727905D01*
X137879505Y-118943941D01*
X137625474Y-119113679D01*
X137343210Y-119230596D01*
X137193385Y-119260398D01*
X137043561Y-119290200D01*
X136738039Y-119290200D01*
X136588215Y-119260398D01*
X136438390Y-119230596D01*
X136156126Y-119113679D01*
X135902095Y-118943941D01*
X135686059Y-118727905D01*
X135516321Y-118473874D01*
X135399404Y-118191610D01*
X135339800Y-117891960D01*
X135339800Y-117586440D01*
X135348558Y-117542413D01*
X135399404Y-117286791D01*
X135399404Y-117286790D01*
X135516321Y-117004526D01*
X135686059Y-116750495D01*
X135902095Y-116534459D01*
X136156126Y-116364721D01*
X136438390Y-116247804D01*
X136596897Y-116216275D01*
X136738039Y-116188200D01*
X137043561Y-116188200D01*
X137184703Y-116216275D01*
G37*
G36*
X116864703Y-116216275D02*
G01*
X117023210Y-116247804D01*
X117305474Y-116364721D01*
X117559505Y-116534459D01*
X117775541Y-116750495D01*
X117945279Y-117004526D01*
X118062196Y-117286790D01*
X118062196Y-117286791D01*
X118113043Y-117542413D01*
X118121800Y-117586440D01*
X118121800Y-117891960D01*
X118062196Y-118191610D01*
X117945279Y-118473874D01*
X117775541Y-118727905D01*
X117559505Y-118943941D01*
X117305474Y-119113679D01*
X117023210Y-119230596D01*
X116873385Y-119260398D01*
X116723561Y-119290200D01*
X116418039Y-119290200D01*
X116268215Y-119260398D01*
X116118390Y-119230596D01*
X115836126Y-119113679D01*
X115582095Y-118943941D01*
X115366059Y-118727905D01*
X115196321Y-118473874D01*
X115079404Y-118191610D01*
X115019800Y-117891960D01*
X115019800Y-117586440D01*
X115028558Y-117542413D01*
X115079404Y-117286791D01*
X115079404Y-117286790D01*
X115196321Y-117004526D01*
X115366059Y-116750495D01*
X115582095Y-116534459D01*
X115836126Y-116364721D01*
X116118390Y-116247804D01*
X116276897Y-116216275D01*
X116418039Y-116188200D01*
X116723561Y-116188200D01*
X116864703Y-116216275D01*
G37*
G36*
X88924703Y-116216275D02*
G01*
X89083210Y-116247804D01*
X89365474Y-116364721D01*
X89619505Y-116534459D01*
X89835541Y-116750495D01*
X90005279Y-117004526D01*
X90122196Y-117286790D01*
X90122196Y-117286791D01*
X90173043Y-117542413D01*
X90181800Y-117586440D01*
X90181800Y-117891960D01*
X90122196Y-118191610D01*
X90005279Y-118473874D01*
X89835541Y-118727905D01*
X89619505Y-118943941D01*
X89365474Y-119113679D01*
X89083210Y-119230596D01*
X88933385Y-119260398D01*
X88783561Y-119290200D01*
X88478039Y-119290200D01*
X88328215Y-119260398D01*
X88178390Y-119230596D01*
X87896126Y-119113679D01*
X87642095Y-118943941D01*
X87426059Y-118727905D01*
X87256321Y-118473874D01*
X87139404Y-118191610D01*
X87079800Y-117891960D01*
X87079800Y-117586440D01*
X87088558Y-117542413D01*
X87139404Y-117286791D01*
X87139404Y-117286790D01*
X87256321Y-117004526D01*
X87426059Y-116750495D01*
X87642095Y-116534459D01*
X87896126Y-116364721D01*
X88178390Y-116247804D01*
X88336897Y-116216275D01*
X88478039Y-116188200D01*
X88783561Y-116188200D01*
X88924703Y-116216275D01*
G37*
G36*
X150671800Y-118670200D02*
G01*
X148169800Y-118670200D01*
X148169800Y-116168200D01*
X150671800Y-116168200D01*
X150671800Y-118670200D01*
G37*
G36*
X122731800Y-118670200D02*
G01*
X120229800Y-118670200D01*
X120229800Y-116168200D01*
X122731800Y-116168200D01*
X122731800Y-118670200D01*
G37*
G36*
X125345703Y-116216275D02*
G01*
X125573371Y-116310578D01*
X125778266Y-116447485D01*
X125952515Y-116621734D01*
X126089422Y-116826629D01*
X126183725Y-117054297D01*
X126231800Y-117295987D01*
X126231800Y-117542413D01*
X126183725Y-117784103D01*
X126089422Y-118011771D01*
X125952515Y-118216666D01*
X125778266Y-118390915D01*
X125573371Y-118527822D01*
X125573370Y-118527823D01*
X125573369Y-118527823D01*
X125345703Y-118622125D01*
X125104014Y-118670200D01*
X124857586Y-118670200D01*
X124615897Y-118622125D01*
X124388231Y-118527823D01*
X124388230Y-118527823D01*
X124388229Y-118527822D01*
X124183334Y-118390915D01*
X124009085Y-118216666D01*
X123872178Y-118011771D01*
X123777875Y-117784103D01*
X123729800Y-117542413D01*
X123729800Y-117295987D01*
X123777875Y-117054297D01*
X123872178Y-116826629D01*
X124009085Y-116621734D01*
X124183334Y-116447485D01*
X124388229Y-116310578D01*
X124615897Y-116216275D01*
X124857586Y-116168200D01*
X125104014Y-116168200D01*
X125345703Y-116216275D01*
G37*
G36*
X128845703Y-116216275D02*
G01*
X129073371Y-116310578D01*
X129278266Y-116447485D01*
X129452515Y-116621734D01*
X129589422Y-116826629D01*
X129683725Y-117054297D01*
X129731800Y-117295987D01*
X129731800Y-117542413D01*
X129683725Y-117784103D01*
X129589422Y-118011771D01*
X129452515Y-118216666D01*
X129278266Y-118390915D01*
X129073371Y-118527822D01*
X129073370Y-118527823D01*
X129073369Y-118527823D01*
X128845703Y-118622125D01*
X128604014Y-118670200D01*
X128357586Y-118670200D01*
X128115897Y-118622125D01*
X127888231Y-118527823D01*
X127888230Y-118527823D01*
X127888229Y-118527822D01*
X127683334Y-118390915D01*
X127509085Y-118216666D01*
X127372178Y-118011771D01*
X127277875Y-117784103D01*
X127229800Y-117542413D01*
X127229800Y-117295987D01*
X127277875Y-117054297D01*
X127372178Y-116826629D01*
X127509085Y-116621734D01*
X127683334Y-116447485D01*
X127888229Y-116310578D01*
X128115897Y-116216275D01*
X128357586Y-116168200D01*
X128604014Y-116168200D01*
X128845703Y-116216275D01*
G37*
G36*
X132345703Y-116216275D02*
G01*
X132573371Y-116310578D01*
X132778266Y-116447485D01*
X132952515Y-116621734D01*
X133089422Y-116826629D01*
X133183725Y-117054297D01*
X133231800Y-117295987D01*
X133231800Y-117542413D01*
X133183725Y-117784103D01*
X133089422Y-118011771D01*
X132952515Y-118216666D01*
X132778266Y-118390915D01*
X132573371Y-118527822D01*
X132573370Y-118527823D01*
X132573369Y-118527823D01*
X132345703Y-118622125D01*
X132104014Y-118670200D01*
X131857586Y-118670200D01*
X131615897Y-118622125D01*
X131388231Y-118527823D01*
X131388230Y-118527823D01*
X131388229Y-118527822D01*
X131183334Y-118390915D01*
X131009085Y-118216666D01*
X130872178Y-118011771D01*
X130777875Y-117784103D01*
X130729800Y-117542413D01*
X130729800Y-117295987D01*
X130777875Y-117054297D01*
X130872178Y-116826629D01*
X131009085Y-116621734D01*
X131183334Y-116447485D01*
X131388229Y-116310578D01*
X131615897Y-116216275D01*
X131857586Y-116168200D01*
X132104014Y-116168200D01*
X132345703Y-116216275D01*
G37*
G36*
X94791800Y-118670200D02*
G01*
X92289800Y-118670200D01*
X92289800Y-116168200D01*
X94791800Y-116168200D01*
X94791800Y-118670200D01*
G37*
G36*
X100905703Y-116216275D02*
G01*
X101133371Y-116310578D01*
X101338266Y-116447485D01*
X101512515Y-116621734D01*
X101649422Y-116826629D01*
X101743725Y-117054297D01*
X101791800Y-117295987D01*
X101791800Y-117542413D01*
X101743725Y-117784103D01*
X101649422Y-118011771D01*
X101512515Y-118216666D01*
X101338266Y-118390915D01*
X101133371Y-118527822D01*
X101133370Y-118527823D01*
X101133369Y-118527823D01*
X100905703Y-118622125D01*
X100664014Y-118670200D01*
X100417586Y-118670200D01*
X100175897Y-118622125D01*
X99948231Y-118527823D01*
X99948230Y-118527823D01*
X99948229Y-118527822D01*
X99743334Y-118390915D01*
X99569085Y-118216666D01*
X99432178Y-118011771D01*
X99337875Y-117784103D01*
X99289800Y-117542413D01*
X99289800Y-117295987D01*
X99337875Y-117054297D01*
X99432178Y-116826629D01*
X99569085Y-116621734D01*
X99743334Y-116447485D01*
X99948229Y-116310578D01*
X100175897Y-116216275D01*
X100417586Y-116168200D01*
X100664014Y-116168200D01*
X100905703Y-116216275D01*
G37*
G36*
X104405703Y-116216275D02*
G01*
X104633371Y-116310578D01*
X104838266Y-116447485D01*
X105012515Y-116621734D01*
X105149422Y-116826629D01*
X105243725Y-117054297D01*
X105291800Y-117295987D01*
X105291800Y-117542413D01*
X105243725Y-117784103D01*
X105149422Y-118011771D01*
X105012515Y-118216666D01*
X104838266Y-118390915D01*
X104633371Y-118527822D01*
X104633370Y-118527823D01*
X104633369Y-118527823D01*
X104405703Y-118622125D01*
X104164014Y-118670200D01*
X103917586Y-118670200D01*
X103675897Y-118622125D01*
X103448231Y-118527823D01*
X103448230Y-118527823D01*
X103448229Y-118527822D01*
X103243334Y-118390915D01*
X103069085Y-118216666D01*
X102932178Y-118011771D01*
X102837875Y-117784103D01*
X102789800Y-117542413D01*
X102789800Y-117295987D01*
X102837875Y-117054297D01*
X102932178Y-116826629D01*
X103069085Y-116621734D01*
X103243334Y-116447485D01*
X103448229Y-116310578D01*
X103675897Y-116216275D01*
X103917586Y-116168200D01*
X104164014Y-116168200D01*
X104405703Y-116216275D01*
G37*
G36*
X153285703Y-116216275D02*
G01*
X153513371Y-116310578D01*
X153718266Y-116447485D01*
X153892515Y-116621734D01*
X154029422Y-116826629D01*
X154123725Y-117054297D01*
X154171800Y-117295987D01*
X154171800Y-117542413D01*
X154123725Y-117784103D01*
X154029422Y-118011771D01*
X153892515Y-118216666D01*
X153718266Y-118390915D01*
X153513371Y-118527822D01*
X153513370Y-118527823D01*
X153513369Y-118527823D01*
X153285703Y-118622125D01*
X153044014Y-118670200D01*
X152797586Y-118670200D01*
X152555897Y-118622125D01*
X152328231Y-118527823D01*
X152328230Y-118527823D01*
X152328229Y-118527822D01*
X152123334Y-118390915D01*
X151949085Y-118216666D01*
X151812178Y-118011771D01*
X151717875Y-117784103D01*
X151669800Y-117542413D01*
X151669800Y-117295987D01*
X151717875Y-117054297D01*
X151812178Y-116826629D01*
X151949085Y-116621734D01*
X152123334Y-116447485D01*
X152328229Y-116310578D01*
X152555897Y-116216275D01*
X152797586Y-116168200D01*
X153044014Y-116168200D01*
X153285703Y-116216275D01*
G37*
G36*
X156785703Y-116216275D02*
G01*
X157013371Y-116310578D01*
X157218266Y-116447485D01*
X157392515Y-116621734D01*
X157529422Y-116826629D01*
X157623725Y-117054297D01*
X157671800Y-117295987D01*
X157671800Y-117542413D01*
X157623725Y-117784103D01*
X157529422Y-118011771D01*
X157392515Y-118216666D01*
X157218266Y-118390915D01*
X157013371Y-118527822D01*
X157013370Y-118527823D01*
X157013369Y-118527823D01*
X156785703Y-118622125D01*
X156544014Y-118670200D01*
X156297586Y-118670200D01*
X156055897Y-118622125D01*
X155828231Y-118527823D01*
X155828230Y-118527823D01*
X155828229Y-118527822D01*
X155623334Y-118390915D01*
X155449085Y-118216666D01*
X155312178Y-118011771D01*
X155217875Y-117784103D01*
X155169800Y-117542413D01*
X155169800Y-117295987D01*
X155217875Y-117054297D01*
X155312178Y-116826629D01*
X155449085Y-116621734D01*
X155623334Y-116447485D01*
X155828229Y-116310578D01*
X156055897Y-116216275D01*
X156297586Y-116168200D01*
X156544014Y-116168200D01*
X156785703Y-116216275D01*
G37*
G36*
X160285703Y-116216275D02*
G01*
X160513371Y-116310578D01*
X160718266Y-116447485D01*
X160892515Y-116621734D01*
X161029422Y-116826629D01*
X161123725Y-117054297D01*
X161171800Y-117295987D01*
X161171800Y-117542413D01*
X161123725Y-117784103D01*
X161029422Y-118011771D01*
X160892515Y-118216666D01*
X160718266Y-118390915D01*
X160513371Y-118527822D01*
X160513370Y-118527823D01*
X160513369Y-118527823D01*
X160285703Y-118622125D01*
X160044014Y-118670200D01*
X159797586Y-118670200D01*
X159555897Y-118622125D01*
X159328231Y-118527823D01*
X159328230Y-118527823D01*
X159328229Y-118527822D01*
X159123334Y-118390915D01*
X158949085Y-118216666D01*
X158812178Y-118011771D01*
X158717875Y-117784103D01*
X158669800Y-117542413D01*
X158669800Y-117295987D01*
X158717875Y-117054297D01*
X158812178Y-116826629D01*
X158949085Y-116621734D01*
X159123334Y-116447485D01*
X159328229Y-116310578D01*
X159555897Y-116216275D01*
X159797586Y-116168200D01*
X160044014Y-116168200D01*
X160285703Y-116216275D01*
G37*
G36*
X97405703Y-116216275D02*
G01*
X97633371Y-116310578D01*
X97838266Y-116447485D01*
X98012515Y-116621734D01*
X98149422Y-116826629D01*
X98243725Y-117054297D01*
X98291800Y-117295987D01*
X98291800Y-117542413D01*
X98243725Y-117784103D01*
X98149422Y-118011771D01*
X98012515Y-118216666D01*
X97838266Y-118390915D01*
X97633371Y-118527822D01*
X97633370Y-118527823D01*
X97633369Y-118527823D01*
X97405703Y-118622125D01*
X97164014Y-118670200D01*
X96917586Y-118670200D01*
X96675897Y-118622125D01*
X96448231Y-118527823D01*
X96448230Y-118527823D01*
X96448229Y-118527822D01*
X96243334Y-118390915D01*
X96069085Y-118216666D01*
X95932178Y-118011771D01*
X95837875Y-117784103D01*
X95789800Y-117542413D01*
X95789800Y-117295987D01*
X95837875Y-117054297D01*
X95932178Y-116826629D01*
X96069085Y-116621734D01*
X96243334Y-116447485D01*
X96448229Y-116310578D01*
X96675897Y-116216275D01*
X96917586Y-116168200D01*
X97164014Y-116168200D01*
X97405703Y-116216275D01*
G37*
G36*
X165210193Y-111408504D02*
G01*
X165446901Y-111506552D01*
X165446903Y-111506553D01*
X165659935Y-111648896D01*
X165841104Y-111830065D01*
X165983447Y-112043097D01*
X165983448Y-112043099D01*
X166081496Y-112279807D01*
X166131480Y-112531093D01*
X166131480Y-112787307D01*
X166081496Y-113038593D01*
X165983448Y-113275301D01*
X165983447Y-113275303D01*
X165841104Y-113488335D01*
X165659935Y-113669504D01*
X165446903Y-113811847D01*
X165446902Y-113811848D01*
X165446901Y-113811848D01*
X165210193Y-113909896D01*
X164958907Y-113959880D01*
X164702693Y-113959880D01*
X164451407Y-113909896D01*
X164214699Y-113811848D01*
X164214698Y-113811848D01*
X164214697Y-113811847D01*
X164001665Y-113669504D01*
X163820496Y-113488335D01*
X163678153Y-113275303D01*
X163678152Y-113275301D01*
X163580104Y-113038593D01*
X163530120Y-112787307D01*
X163530120Y-112531093D01*
X163580104Y-112279807D01*
X163678152Y-112043099D01*
X163678153Y-112043097D01*
X163820496Y-111830065D01*
X164001665Y-111648896D01*
X164214697Y-111506553D01*
X164214699Y-111506552D01*
X164451407Y-111408504D01*
X164702693Y-111358520D01*
X164958907Y-111358520D01*
X165210193Y-111408504D01*
G37*
G36*
X144890193Y-111408504D02*
G01*
X145126901Y-111506552D01*
X145126903Y-111506553D01*
X145339935Y-111648896D01*
X145521104Y-111830065D01*
X145663447Y-112043097D01*
X145663448Y-112043099D01*
X145761496Y-112279807D01*
X145811480Y-112531093D01*
X145811480Y-112787307D01*
X145761496Y-113038593D01*
X145663448Y-113275301D01*
X145663447Y-113275303D01*
X145521104Y-113488335D01*
X145339935Y-113669504D01*
X145126903Y-113811847D01*
X145126902Y-113811848D01*
X145126901Y-113811848D01*
X144890193Y-113909896D01*
X144638907Y-113959880D01*
X144382693Y-113959880D01*
X144131407Y-113909896D01*
X143894699Y-113811848D01*
X143894698Y-113811848D01*
X143894697Y-113811847D01*
X143681665Y-113669504D01*
X143500496Y-113488335D01*
X143358153Y-113275303D01*
X143358152Y-113275301D01*
X143260104Y-113038593D01*
X143210120Y-112787307D01*
X143210120Y-112531093D01*
X143260104Y-112279807D01*
X143358152Y-112043099D01*
X143358153Y-112043097D01*
X143500496Y-111830065D01*
X143681665Y-111648896D01*
X143894697Y-111506553D01*
X143894699Y-111506552D01*
X144131407Y-111408504D01*
X144382693Y-111358520D01*
X144638907Y-111358520D01*
X144890193Y-111408504D01*
G37*
G36*
X137270193Y-111408504D02*
G01*
X137506901Y-111506552D01*
X137506903Y-111506553D01*
X137719935Y-111648896D01*
X137901104Y-111830065D01*
X138043447Y-112043097D01*
X138043448Y-112043099D01*
X138141496Y-112279807D01*
X138191480Y-112531093D01*
X138191480Y-112787307D01*
X138141496Y-113038593D01*
X138043448Y-113275301D01*
X138043447Y-113275303D01*
X137901104Y-113488335D01*
X137719935Y-113669504D01*
X137506903Y-113811847D01*
X137506902Y-113811848D01*
X137506901Y-113811848D01*
X137270193Y-113909896D01*
X137018907Y-113959880D01*
X136762693Y-113959880D01*
X136511407Y-113909896D01*
X136274699Y-113811848D01*
X136274698Y-113811848D01*
X136274697Y-113811847D01*
X136061665Y-113669504D01*
X135880496Y-113488335D01*
X135738153Y-113275303D01*
X135738152Y-113275301D01*
X135640104Y-113038593D01*
X135590120Y-112787307D01*
X135590120Y-112531093D01*
X135640104Y-112279807D01*
X135738152Y-112043099D01*
X135738153Y-112043097D01*
X135880496Y-111830065D01*
X136061665Y-111648896D01*
X136274697Y-111506553D01*
X136274699Y-111506552D01*
X136511407Y-111408504D01*
X136762693Y-111358520D01*
X137018907Y-111358520D01*
X137270193Y-111408504D01*
G37*
G36*
X109330193Y-111408504D02*
G01*
X109566901Y-111506552D01*
X109566903Y-111506553D01*
X109779935Y-111648896D01*
X109961104Y-111830065D01*
X110103447Y-112043097D01*
X110103448Y-112043099D01*
X110201496Y-112279807D01*
X110251480Y-112531093D01*
X110251480Y-112787307D01*
X110201496Y-113038593D01*
X110103448Y-113275301D01*
X110103447Y-113275303D01*
X109961104Y-113488335D01*
X109779935Y-113669504D01*
X109566903Y-113811847D01*
X109566902Y-113811848D01*
X109566901Y-113811848D01*
X109330193Y-113909896D01*
X109078907Y-113959880D01*
X108822693Y-113959880D01*
X108571407Y-113909896D01*
X108334699Y-113811848D01*
X108334698Y-113811848D01*
X108334697Y-113811847D01*
X108121665Y-113669504D01*
X107940496Y-113488335D01*
X107798153Y-113275303D01*
X107798152Y-113275301D01*
X107700104Y-113038593D01*
X107650120Y-112787307D01*
X107650120Y-112531093D01*
X107700104Y-112279807D01*
X107798152Y-112043099D01*
X107798153Y-112043097D01*
X107940496Y-111830065D01*
X108121665Y-111648896D01*
X108334697Y-111506553D01*
X108334699Y-111506552D01*
X108571407Y-111408504D01*
X108822693Y-111358520D01*
X109078907Y-111358520D01*
X109330193Y-111408504D01*
G37*
G36*
X89010193Y-111408504D02*
G01*
X89246901Y-111506552D01*
X89246903Y-111506553D01*
X89459935Y-111648896D01*
X89641104Y-111830065D01*
X89783447Y-112043097D01*
X89783448Y-112043099D01*
X89881496Y-112279807D01*
X89931480Y-112531093D01*
X89931480Y-112787307D01*
X89881496Y-113038593D01*
X89783448Y-113275301D01*
X89783447Y-113275303D01*
X89641104Y-113488335D01*
X89459935Y-113669504D01*
X89246903Y-113811847D01*
X89246902Y-113811848D01*
X89246901Y-113811848D01*
X89010193Y-113909896D01*
X88758907Y-113959880D01*
X88502693Y-113959880D01*
X88251407Y-113909896D01*
X88014699Y-113811848D01*
X88014698Y-113811848D01*
X88014697Y-113811847D01*
X87801665Y-113669504D01*
X87620496Y-113488335D01*
X87478153Y-113275303D01*
X87478152Y-113275301D01*
X87380104Y-113038593D01*
X87330120Y-112787307D01*
X87330120Y-112531093D01*
X87380104Y-112279807D01*
X87478152Y-112043099D01*
X87478153Y-112043097D01*
X87620496Y-111830065D01*
X87801665Y-111648896D01*
X88014697Y-111506553D01*
X88014699Y-111506552D01*
X88251407Y-111408504D01*
X88502693Y-111358520D01*
X88758907Y-111358520D01*
X89010193Y-111408504D01*
G37*
G36*
X116950193Y-111408504D02*
G01*
X117186901Y-111506552D01*
X117186903Y-111506553D01*
X117399935Y-111648896D01*
X117581104Y-111830065D01*
X117723447Y-112043097D01*
X117723448Y-112043099D01*
X117821496Y-112279807D01*
X117871480Y-112531093D01*
X117871480Y-112787307D01*
X117821496Y-113038593D01*
X117723448Y-113275301D01*
X117723447Y-113275303D01*
X117581104Y-113488335D01*
X117399935Y-113669504D01*
X117186903Y-113811847D01*
X117186902Y-113811848D01*
X117186901Y-113811848D01*
X116950193Y-113909896D01*
X116698907Y-113959880D01*
X116442693Y-113959880D01*
X116191407Y-113909896D01*
X115954699Y-113811848D01*
X115954698Y-113811848D01*
X115954697Y-113811847D01*
X115741665Y-113669504D01*
X115560496Y-113488335D01*
X115418153Y-113275303D01*
X115418152Y-113275301D01*
X115320104Y-113038593D01*
X115270120Y-112787307D01*
X115270120Y-112531093D01*
X115320104Y-112279807D01*
X115418152Y-112043099D01*
X115418153Y-112043097D01*
X115560496Y-111830065D01*
X115741665Y-111648896D01*
X115954697Y-111506553D01*
X115954699Y-111506552D01*
X116191407Y-111408504D01*
X116442693Y-111358520D01*
X116698907Y-111358520D01*
X116950193Y-111408504D01*
G37*
G36*
X161171800Y-109150200D02*
G01*
X158669800Y-109150200D01*
X158669800Y-106648200D01*
X161171800Y-106648200D01*
X161171800Y-109150200D01*
G37*
G36*
X93905703Y-106696275D02*
G01*
X94133371Y-106790578D01*
X94338266Y-106927485D01*
X94512515Y-107101734D01*
X94649422Y-107306629D01*
X94743725Y-107534297D01*
X94791800Y-107775987D01*
X94791800Y-108022413D01*
X94743725Y-108264103D01*
X94649422Y-108491771D01*
X94512515Y-108696666D01*
X94338266Y-108870915D01*
X94133371Y-109007822D01*
X94133370Y-109007823D01*
X94133369Y-109007823D01*
X93905703Y-109102125D01*
X93664014Y-109150200D01*
X93417586Y-109150200D01*
X93175897Y-109102125D01*
X92948231Y-109007823D01*
X92948230Y-109007823D01*
X92948229Y-109007822D01*
X92743334Y-108870915D01*
X92569085Y-108696666D01*
X92432178Y-108491771D01*
X92337875Y-108264103D01*
X92289800Y-108022413D01*
X92289800Y-107775987D01*
X92337875Y-107534297D01*
X92432178Y-107306629D01*
X92569085Y-107101734D01*
X92743334Y-106927485D01*
X92948229Y-106790578D01*
X93175897Y-106696275D01*
X93417586Y-106648200D01*
X93664014Y-106648200D01*
X93905703Y-106696275D01*
G37*
G36*
X97405703Y-106696275D02*
G01*
X97633371Y-106790578D01*
X97838266Y-106927485D01*
X98012515Y-107101734D01*
X98149422Y-107306629D01*
X98243725Y-107534297D01*
X98291800Y-107775987D01*
X98291800Y-108022413D01*
X98243725Y-108264103D01*
X98149422Y-108491771D01*
X98012515Y-108696666D01*
X97838266Y-108870915D01*
X97633371Y-109007822D01*
X97633370Y-109007823D01*
X97633369Y-109007823D01*
X97405703Y-109102125D01*
X97164014Y-109150200D01*
X96917586Y-109150200D01*
X96675897Y-109102125D01*
X96448231Y-109007823D01*
X96448230Y-109007823D01*
X96448229Y-109007822D01*
X96243334Y-108870915D01*
X96069085Y-108696666D01*
X95932178Y-108491771D01*
X95837875Y-108264103D01*
X95789800Y-108022413D01*
X95789800Y-107775987D01*
X95837875Y-107534297D01*
X95932178Y-107306629D01*
X96069085Y-107101734D01*
X96243334Y-106927485D01*
X96448229Y-106790578D01*
X96675897Y-106696275D01*
X96917586Y-106648200D01*
X97164014Y-106648200D01*
X97405703Y-106696275D01*
G37*
G36*
X100905703Y-106696275D02*
G01*
X101133371Y-106790578D01*
X101338266Y-106927485D01*
X101512515Y-107101734D01*
X101649422Y-107306629D01*
X101743725Y-107534297D01*
X101791800Y-107775987D01*
X101791800Y-108022413D01*
X101743725Y-108264103D01*
X101649422Y-108491771D01*
X101512515Y-108696666D01*
X101338266Y-108870915D01*
X101133371Y-109007822D01*
X101133370Y-109007823D01*
X101133369Y-109007823D01*
X100905703Y-109102125D01*
X100664014Y-109150200D01*
X100417586Y-109150200D01*
X100175897Y-109102125D01*
X99948231Y-109007823D01*
X99948230Y-109007823D01*
X99948229Y-109007822D01*
X99743334Y-108870915D01*
X99569085Y-108696666D01*
X99432178Y-108491771D01*
X99337875Y-108264103D01*
X99289800Y-108022413D01*
X99289800Y-107775987D01*
X99337875Y-107534297D01*
X99432178Y-107306629D01*
X99569085Y-107101734D01*
X99743334Y-106927485D01*
X99948229Y-106790578D01*
X100175897Y-106696275D01*
X100417586Y-106648200D01*
X100664014Y-106648200D01*
X100905703Y-106696275D01*
G37*
G36*
X105291800Y-109150200D02*
G01*
X102789800Y-109150200D01*
X102789800Y-106648200D01*
X105291800Y-106648200D01*
X105291800Y-109150200D01*
G37*
G36*
X121845703Y-106696275D02*
G01*
X122073371Y-106790578D01*
X122278266Y-106927485D01*
X122452515Y-107101734D01*
X122589422Y-107306629D01*
X122683725Y-107534297D01*
X122731800Y-107775987D01*
X122731800Y-108022413D01*
X122683725Y-108264103D01*
X122589422Y-108491771D01*
X122452515Y-108696666D01*
X122278266Y-108870915D01*
X122073371Y-109007822D01*
X122073370Y-109007823D01*
X122073369Y-109007823D01*
X121845703Y-109102125D01*
X121604014Y-109150200D01*
X121357586Y-109150200D01*
X121115897Y-109102125D01*
X120888231Y-109007823D01*
X120888230Y-109007823D01*
X120888229Y-109007822D01*
X120683334Y-108870915D01*
X120509085Y-108696666D01*
X120372178Y-108491771D01*
X120277875Y-108264103D01*
X120229800Y-108022413D01*
X120229800Y-107775987D01*
X120277875Y-107534297D01*
X120372178Y-107306629D01*
X120509085Y-107101734D01*
X120683334Y-106927485D01*
X120888229Y-106790578D01*
X121115897Y-106696275D01*
X121357586Y-106648200D01*
X121604014Y-106648200D01*
X121845703Y-106696275D01*
G37*
G36*
X125345703Y-106696275D02*
G01*
X125573371Y-106790578D01*
X125778266Y-106927485D01*
X125952515Y-107101734D01*
X126089422Y-107306629D01*
X126183725Y-107534297D01*
X126231800Y-107775987D01*
X126231800Y-108022413D01*
X126183725Y-108264103D01*
X126089422Y-108491771D01*
X125952515Y-108696666D01*
X125778266Y-108870915D01*
X125573371Y-109007822D01*
X125573370Y-109007823D01*
X125573369Y-109007823D01*
X125345703Y-109102125D01*
X125104014Y-109150200D01*
X124857586Y-109150200D01*
X124615897Y-109102125D01*
X124388231Y-109007823D01*
X124388230Y-109007823D01*
X124388229Y-109007822D01*
X124183334Y-108870915D01*
X124009085Y-108696666D01*
X123872178Y-108491771D01*
X123777875Y-108264103D01*
X123729800Y-108022413D01*
X123729800Y-107775987D01*
X123777875Y-107534297D01*
X123872178Y-107306629D01*
X124009085Y-107101734D01*
X124183334Y-106927485D01*
X124388229Y-106790578D01*
X124615897Y-106696275D01*
X124857586Y-106648200D01*
X125104014Y-106648200D01*
X125345703Y-106696275D01*
G37*
G36*
X133231800Y-109150200D02*
G01*
X130729800Y-109150200D01*
X130729800Y-106648200D01*
X133231800Y-106648200D01*
X133231800Y-109150200D01*
G37*
G36*
X149785703Y-106696275D02*
G01*
X150013371Y-106790578D01*
X150218266Y-106927485D01*
X150392515Y-107101734D01*
X150529422Y-107306629D01*
X150623725Y-107534297D01*
X150671800Y-107775987D01*
X150671800Y-108022413D01*
X150623725Y-108264103D01*
X150529422Y-108491771D01*
X150392515Y-108696666D01*
X150218266Y-108870915D01*
X150013371Y-109007822D01*
X150013370Y-109007823D01*
X150013369Y-109007823D01*
X149785703Y-109102125D01*
X149544014Y-109150200D01*
X149297586Y-109150200D01*
X149055897Y-109102125D01*
X148828231Y-109007823D01*
X148828230Y-109007823D01*
X148828229Y-109007822D01*
X148623334Y-108870915D01*
X148449085Y-108696666D01*
X148312178Y-108491771D01*
X148217875Y-108264103D01*
X148169800Y-108022413D01*
X148169800Y-107775987D01*
X148217875Y-107534297D01*
X148312178Y-107306629D01*
X148449085Y-107101734D01*
X148623334Y-106927485D01*
X148828229Y-106790578D01*
X149055897Y-106696275D01*
X149297586Y-106648200D01*
X149544014Y-106648200D01*
X149785703Y-106696275D01*
G37*
G36*
X153285703Y-106696275D02*
G01*
X153513371Y-106790578D01*
X153718266Y-106927485D01*
X153892515Y-107101734D01*
X154029422Y-107306629D01*
X154123725Y-107534297D01*
X154171800Y-107775987D01*
X154171800Y-108022413D01*
X154123725Y-108264103D01*
X154029422Y-108491771D01*
X153892515Y-108696666D01*
X153718266Y-108870915D01*
X153513371Y-109007822D01*
X153513370Y-109007823D01*
X153513369Y-109007823D01*
X153285703Y-109102125D01*
X153044014Y-109150200D01*
X152797586Y-109150200D01*
X152555897Y-109102125D01*
X152328231Y-109007823D01*
X152328230Y-109007823D01*
X152328229Y-109007822D01*
X152123334Y-108870915D01*
X151949085Y-108696666D01*
X151812178Y-108491771D01*
X151717875Y-108264103D01*
X151669800Y-108022413D01*
X151669800Y-107775987D01*
X151717875Y-107534297D01*
X151812178Y-107306629D01*
X151949085Y-107101734D01*
X152123334Y-106927485D01*
X152328229Y-106790578D01*
X152555897Y-106696275D01*
X152797586Y-106648200D01*
X153044014Y-106648200D01*
X153285703Y-106696275D01*
G37*
G36*
X156785703Y-106696275D02*
G01*
X157013371Y-106790578D01*
X157218266Y-106927485D01*
X157392515Y-107101734D01*
X157529422Y-107306629D01*
X157623725Y-107534297D01*
X157671800Y-107775987D01*
X157671800Y-108022413D01*
X157623725Y-108264103D01*
X157529422Y-108491771D01*
X157392515Y-108696666D01*
X157218266Y-108870915D01*
X157013371Y-109007822D01*
X157013370Y-109007823D01*
X157013369Y-109007823D01*
X156785703Y-109102125D01*
X156544014Y-109150200D01*
X156297586Y-109150200D01*
X156055897Y-109102125D01*
X155828231Y-109007823D01*
X155828230Y-109007823D01*
X155828229Y-109007822D01*
X155623334Y-108870915D01*
X155449085Y-108696666D01*
X155312178Y-108491771D01*
X155217875Y-108264103D01*
X155169800Y-108022413D01*
X155169800Y-107775987D01*
X155217875Y-107534297D01*
X155312178Y-107306629D01*
X155449085Y-107101734D01*
X155623334Y-106927485D01*
X155828229Y-106790578D01*
X156055897Y-106696275D01*
X156297586Y-106648200D01*
X156544014Y-106648200D01*
X156785703Y-106696275D01*
G37*
G36*
X128845703Y-106696275D02*
G01*
X129073371Y-106790578D01*
X129278266Y-106927485D01*
X129452515Y-107101734D01*
X129589422Y-107306629D01*
X129683725Y-107534297D01*
X129731800Y-107775987D01*
X129731800Y-108022413D01*
X129683725Y-108264103D01*
X129589422Y-108491771D01*
X129452515Y-108696666D01*
X129278266Y-108870915D01*
X129073371Y-109007822D01*
X129073370Y-109007823D01*
X129073369Y-109007823D01*
X128845703Y-109102125D01*
X128604014Y-109150200D01*
X128357586Y-109150200D01*
X128115897Y-109102125D01*
X127888231Y-109007823D01*
X127888230Y-109007823D01*
X127888229Y-109007822D01*
X127683334Y-108870915D01*
X127509085Y-108696666D01*
X127372178Y-108491771D01*
X127277875Y-108264103D01*
X127229800Y-108022413D01*
X127229800Y-107775987D01*
X127277875Y-107534297D01*
X127372178Y-107306629D01*
X127509085Y-107101734D01*
X127683334Y-106927485D01*
X127888229Y-106790578D01*
X128115897Y-106696275D01*
X128357586Y-106648200D01*
X128604014Y-106648200D01*
X128845703Y-106696275D01*
G37*
G36*
X109253385Y-106058002D02*
G01*
X109403210Y-106087804D01*
X109685474Y-106204721D01*
X109939505Y-106374459D01*
X110155541Y-106590495D01*
X110325279Y-106844526D01*
X110431818Y-107101736D01*
X110442196Y-107126791D01*
X110501800Y-107426439D01*
X110501800Y-107731961D01*
X110471998Y-107881785D01*
X110442196Y-108031610D01*
X110325279Y-108313874D01*
X110155541Y-108567905D01*
X109939505Y-108783941D01*
X109685474Y-108953679D01*
X109403210Y-109070596D01*
X109253385Y-109100398D01*
X109103561Y-109130200D01*
X108798039Y-109130200D01*
X108648215Y-109100398D01*
X108498390Y-109070596D01*
X108216126Y-108953679D01*
X107962095Y-108783941D01*
X107746059Y-108567905D01*
X107576321Y-108313874D01*
X107459404Y-108031610D01*
X107429602Y-107881785D01*
X107399800Y-107731961D01*
X107399800Y-107426439D01*
X107459404Y-107126791D01*
X107469782Y-107101736D01*
X107576321Y-106844526D01*
X107746059Y-106590495D01*
X107962095Y-106374459D01*
X108216126Y-106204721D01*
X108498390Y-106087804D01*
X108648215Y-106058002D01*
X108798039Y-106028200D01*
X109103561Y-106028200D01*
X109253385Y-106058002D01*
G37*
G36*
X144813385Y-106058002D02*
G01*
X144963210Y-106087804D01*
X145245474Y-106204721D01*
X145499505Y-106374459D01*
X145715541Y-106590495D01*
X145885279Y-106844526D01*
X145991818Y-107101736D01*
X146002196Y-107126791D01*
X146061800Y-107426439D01*
X146061800Y-107731961D01*
X146031998Y-107881785D01*
X146002196Y-108031610D01*
X145885279Y-108313874D01*
X145715541Y-108567905D01*
X145499505Y-108783941D01*
X145245474Y-108953679D01*
X144963210Y-109070596D01*
X144813385Y-109100398D01*
X144663561Y-109130200D01*
X144358039Y-109130200D01*
X144208215Y-109100398D01*
X144058390Y-109070596D01*
X143776126Y-108953679D01*
X143522095Y-108783941D01*
X143306059Y-108567905D01*
X143136321Y-108313874D01*
X143019404Y-108031610D01*
X142989602Y-107881785D01*
X142959800Y-107731961D01*
X142959800Y-107426439D01*
X143019404Y-107126791D01*
X143029782Y-107101736D01*
X143136321Y-106844526D01*
X143306059Y-106590495D01*
X143522095Y-106374459D01*
X143776126Y-106204721D01*
X144058390Y-106087804D01*
X144208215Y-106058002D01*
X144358039Y-106028200D01*
X144663561Y-106028200D01*
X144813385Y-106058002D01*
G37*
G36*
X116873385Y-106058002D02*
G01*
X117023210Y-106087804D01*
X117305474Y-106204721D01*
X117559505Y-106374459D01*
X117775541Y-106590495D01*
X117945279Y-106844526D01*
X118051818Y-107101736D01*
X118062196Y-107126791D01*
X118121800Y-107426439D01*
X118121800Y-107731961D01*
X118091998Y-107881785D01*
X118062196Y-108031610D01*
X117945279Y-108313874D01*
X117775541Y-108567905D01*
X117559505Y-108783941D01*
X117305474Y-108953679D01*
X117023210Y-109070596D01*
X116873385Y-109100398D01*
X116723561Y-109130200D01*
X116418039Y-109130200D01*
X116268215Y-109100398D01*
X116118390Y-109070596D01*
X115836126Y-108953679D01*
X115582095Y-108783941D01*
X115366059Y-108567905D01*
X115196321Y-108313874D01*
X115079404Y-108031610D01*
X115049602Y-107881785D01*
X115019800Y-107731961D01*
X115019800Y-107426439D01*
X115079404Y-107126791D01*
X115089782Y-107101736D01*
X115196321Y-106844526D01*
X115366059Y-106590495D01*
X115582095Y-106374459D01*
X115836126Y-106204721D01*
X116118390Y-106087804D01*
X116268215Y-106058002D01*
X116418039Y-106028200D01*
X116723561Y-106028200D01*
X116873385Y-106058002D01*
G37*
G36*
X137193385Y-106058002D02*
G01*
X137343210Y-106087804D01*
X137625474Y-106204721D01*
X137879505Y-106374459D01*
X138095541Y-106590495D01*
X138265279Y-106844526D01*
X138371818Y-107101736D01*
X138382196Y-107126791D01*
X138441800Y-107426439D01*
X138441800Y-107731961D01*
X138411998Y-107881785D01*
X138382196Y-108031610D01*
X138265279Y-108313874D01*
X138095541Y-108567905D01*
X137879505Y-108783941D01*
X137625474Y-108953679D01*
X137343210Y-109070596D01*
X137193385Y-109100398D01*
X137043561Y-109130200D01*
X136738039Y-109130200D01*
X136588215Y-109100398D01*
X136438390Y-109070596D01*
X136156126Y-108953679D01*
X135902095Y-108783941D01*
X135686059Y-108567905D01*
X135516321Y-108313874D01*
X135399404Y-108031610D01*
X135369602Y-107881785D01*
X135339800Y-107731961D01*
X135339800Y-107426439D01*
X135399404Y-107126791D01*
X135409782Y-107101736D01*
X135516321Y-106844526D01*
X135686059Y-106590495D01*
X135902095Y-106374459D01*
X136156126Y-106204721D01*
X136438390Y-106087804D01*
X136588215Y-106058002D01*
X136738039Y-106028200D01*
X137043561Y-106028200D01*
X137193385Y-106058002D01*
G37*
G36*
X165133385Y-106058002D02*
G01*
X165283210Y-106087804D01*
X165565474Y-106204721D01*
X165819505Y-106374459D01*
X166035541Y-106590495D01*
X166205279Y-106844526D01*
X166311818Y-107101736D01*
X166322196Y-107126791D01*
X166381800Y-107426439D01*
X166381800Y-107731961D01*
X166351998Y-107881785D01*
X166322196Y-108031610D01*
X166205279Y-108313874D01*
X166035541Y-108567905D01*
X165819505Y-108783941D01*
X165565474Y-108953679D01*
X165283210Y-109070596D01*
X165133385Y-109100398D01*
X164983561Y-109130200D01*
X164678039Y-109130200D01*
X164528215Y-109100398D01*
X164378390Y-109070596D01*
X164096126Y-108953679D01*
X163842095Y-108783941D01*
X163626059Y-108567905D01*
X163456321Y-108313874D01*
X163339404Y-108031610D01*
X163309602Y-107881785D01*
X163279800Y-107731961D01*
X163279800Y-107426439D01*
X163339404Y-107126791D01*
X163349782Y-107101736D01*
X163456321Y-106844526D01*
X163626059Y-106590495D01*
X163842095Y-106374459D01*
X164096126Y-106204721D01*
X164378390Y-106087804D01*
X164528215Y-106058002D01*
X164678039Y-106028200D01*
X164983561Y-106028200D01*
X165133385Y-106058002D01*
G37*
G36*
X88933385Y-106058002D02*
G01*
X89083210Y-106087804D01*
X89365474Y-106204721D01*
X89619505Y-106374459D01*
X89835541Y-106590495D01*
X90005279Y-106844526D01*
X90111818Y-107101736D01*
X90122196Y-107126791D01*
X90181800Y-107426439D01*
X90181800Y-107731961D01*
X90151998Y-107881785D01*
X90122196Y-108031610D01*
X90005279Y-108313874D01*
X89835541Y-108567905D01*
X89619505Y-108783941D01*
X89365474Y-108953679D01*
X89083210Y-109070596D01*
X88933385Y-109100398D01*
X88783561Y-109130200D01*
X88478039Y-109130200D01*
X88328215Y-109100398D01*
X88178390Y-109070596D01*
X87896126Y-108953679D01*
X87642095Y-108783941D01*
X87426059Y-108567905D01*
X87256321Y-108313874D01*
X87139404Y-108031610D01*
X87109602Y-107881785D01*
X87079800Y-107731961D01*
X87079800Y-107426439D01*
X87139404Y-107126791D01*
X87149782Y-107101736D01*
X87256321Y-106844526D01*
X87426059Y-106590495D01*
X87642095Y-106374459D01*
X87896126Y-106204721D01*
X88178390Y-106087804D01*
X88328215Y-106058002D01*
X88478039Y-106028200D01*
X88783561Y-106028200D01*
X88933385Y-106058002D01*
G37*
G36*
X137184703Y-98436275D02*
G01*
X137343210Y-98467804D01*
X137625474Y-98584721D01*
X137879505Y-98754459D01*
X138095541Y-98970495D01*
X138265279Y-99224526D01*
X138382196Y-99506790D01*
X138382196Y-99506791D01*
X138433043Y-99762413D01*
X138441800Y-99806440D01*
X138441800Y-100111960D01*
X138382196Y-100411610D01*
X138265279Y-100693874D01*
X138095541Y-100947905D01*
X137879505Y-101163941D01*
X137625474Y-101333679D01*
X137343210Y-101450596D01*
X137193385Y-101480398D01*
X137043561Y-101510200D01*
X136738039Y-101510200D01*
X136588215Y-101480398D01*
X136438390Y-101450596D01*
X136156126Y-101333679D01*
X135902095Y-101163941D01*
X135686059Y-100947905D01*
X135516321Y-100693874D01*
X135399404Y-100411610D01*
X135339800Y-100111960D01*
X135339800Y-99806440D01*
X135348558Y-99762413D01*
X135399404Y-99506791D01*
X135399404Y-99506790D01*
X135516321Y-99224526D01*
X135686059Y-98970495D01*
X135902095Y-98754459D01*
X136156126Y-98584721D01*
X136438390Y-98467804D01*
X136596897Y-98436275D01*
X136738039Y-98408200D01*
X137043561Y-98408200D01*
X137184703Y-98436275D01*
G37*
G36*
X109244703Y-98436275D02*
G01*
X109403210Y-98467804D01*
X109685474Y-98584721D01*
X109939505Y-98754459D01*
X110155541Y-98970495D01*
X110325279Y-99224526D01*
X110442196Y-99506790D01*
X110442196Y-99506791D01*
X110493043Y-99762413D01*
X110501800Y-99806440D01*
X110501800Y-100111960D01*
X110442196Y-100411610D01*
X110325279Y-100693874D01*
X110155541Y-100947905D01*
X109939505Y-101163941D01*
X109685474Y-101333679D01*
X109403210Y-101450596D01*
X109253385Y-101480398D01*
X109103561Y-101510200D01*
X108798039Y-101510200D01*
X108648215Y-101480398D01*
X108498390Y-101450596D01*
X108216126Y-101333679D01*
X107962095Y-101163941D01*
X107746059Y-100947905D01*
X107576321Y-100693874D01*
X107459404Y-100411610D01*
X107399800Y-100111960D01*
X107399800Y-99806440D01*
X107408558Y-99762413D01*
X107459404Y-99506791D01*
X107459404Y-99506790D01*
X107576321Y-99224526D01*
X107746059Y-98970495D01*
X107962095Y-98754459D01*
X108216126Y-98584721D01*
X108498390Y-98467804D01*
X108656897Y-98436275D01*
X108798039Y-98408200D01*
X109103561Y-98408200D01*
X109244703Y-98436275D01*
G37*
G36*
X165124703Y-98436275D02*
G01*
X165283210Y-98467804D01*
X165565474Y-98584721D01*
X165819505Y-98754459D01*
X166035541Y-98970495D01*
X166205279Y-99224526D01*
X166322196Y-99506790D01*
X166322196Y-99506791D01*
X166373043Y-99762413D01*
X166381800Y-99806440D01*
X166381800Y-100111960D01*
X166322196Y-100411610D01*
X166205279Y-100693874D01*
X166035541Y-100947905D01*
X165819505Y-101163941D01*
X165565474Y-101333679D01*
X165283210Y-101450596D01*
X165133385Y-101480398D01*
X164983561Y-101510200D01*
X164678039Y-101510200D01*
X164528215Y-101480398D01*
X164378390Y-101450596D01*
X164096126Y-101333679D01*
X163842095Y-101163941D01*
X163626059Y-100947905D01*
X163456321Y-100693874D01*
X163339404Y-100411610D01*
X163279800Y-100111960D01*
X163279800Y-99806440D01*
X163288558Y-99762413D01*
X163339404Y-99506791D01*
X163339404Y-99506790D01*
X163456321Y-99224526D01*
X163626059Y-98970495D01*
X163842095Y-98754459D01*
X164096126Y-98584721D01*
X164378390Y-98467804D01*
X164536897Y-98436275D01*
X164678039Y-98408200D01*
X164983561Y-98408200D01*
X165124703Y-98436275D01*
G37*
G36*
X88924703Y-98436275D02*
G01*
X89083210Y-98467804D01*
X89365474Y-98584721D01*
X89619505Y-98754459D01*
X89835541Y-98970495D01*
X90005279Y-99224526D01*
X90122196Y-99506790D01*
X90122196Y-99506791D01*
X90173043Y-99762413D01*
X90181800Y-99806440D01*
X90181800Y-100111960D01*
X90122196Y-100411610D01*
X90005279Y-100693874D01*
X89835541Y-100947905D01*
X89619505Y-101163941D01*
X89365474Y-101333679D01*
X89083210Y-101450596D01*
X88933385Y-101480398D01*
X88783561Y-101510200D01*
X88478039Y-101510200D01*
X88328215Y-101480398D01*
X88178390Y-101450596D01*
X87896126Y-101333679D01*
X87642095Y-101163941D01*
X87426059Y-100947905D01*
X87256321Y-100693874D01*
X87139404Y-100411610D01*
X87079800Y-100111960D01*
X87079800Y-99806440D01*
X87088558Y-99762413D01*
X87139404Y-99506791D01*
X87139404Y-99506790D01*
X87256321Y-99224526D01*
X87426059Y-98970495D01*
X87642095Y-98754459D01*
X87896126Y-98584721D01*
X88178390Y-98467804D01*
X88336897Y-98436275D01*
X88478039Y-98408200D01*
X88783561Y-98408200D01*
X88924703Y-98436275D01*
G37*
G36*
X116864703Y-98436275D02*
G01*
X117023210Y-98467804D01*
X117305474Y-98584721D01*
X117559505Y-98754459D01*
X117775541Y-98970495D01*
X117945279Y-99224526D01*
X118062196Y-99506790D01*
X118062196Y-99506791D01*
X118113043Y-99762413D01*
X118121800Y-99806440D01*
X118121800Y-100111960D01*
X118062196Y-100411610D01*
X117945279Y-100693874D01*
X117775541Y-100947905D01*
X117559505Y-101163941D01*
X117305474Y-101333679D01*
X117023210Y-101450596D01*
X116873385Y-101480398D01*
X116723561Y-101510200D01*
X116418039Y-101510200D01*
X116268215Y-101480398D01*
X116118390Y-101450596D01*
X115836126Y-101333679D01*
X115582095Y-101163941D01*
X115366059Y-100947905D01*
X115196321Y-100693874D01*
X115079404Y-100411610D01*
X115019800Y-100111960D01*
X115019800Y-99806440D01*
X115028558Y-99762413D01*
X115079404Y-99506791D01*
X115079404Y-99506790D01*
X115196321Y-99224526D01*
X115366059Y-98970495D01*
X115582095Y-98754459D01*
X115836126Y-98584721D01*
X116118390Y-98467804D01*
X116276897Y-98436275D01*
X116418039Y-98408200D01*
X116723561Y-98408200D01*
X116864703Y-98436275D01*
G37*
G36*
X144804703Y-98436275D02*
G01*
X144963210Y-98467804D01*
X145245474Y-98584721D01*
X145499505Y-98754459D01*
X145715541Y-98970495D01*
X145885279Y-99224526D01*
X146002196Y-99506790D01*
X146002196Y-99506791D01*
X146053043Y-99762413D01*
X146061800Y-99806440D01*
X146061800Y-100111960D01*
X146002196Y-100411610D01*
X145885279Y-100693874D01*
X145715541Y-100947905D01*
X145499505Y-101163941D01*
X145245474Y-101333679D01*
X144963210Y-101450596D01*
X144813385Y-101480398D01*
X144663561Y-101510200D01*
X144358039Y-101510200D01*
X144208215Y-101480398D01*
X144058390Y-101450596D01*
X143776126Y-101333679D01*
X143522095Y-101163941D01*
X143306059Y-100947905D01*
X143136321Y-100693874D01*
X143019404Y-100411610D01*
X142959800Y-100111960D01*
X142959800Y-99806440D01*
X142968558Y-99762413D01*
X143019404Y-99506791D01*
X143019404Y-99506790D01*
X143136321Y-99224526D01*
X143306059Y-98970495D01*
X143522095Y-98754459D01*
X143776126Y-98584721D01*
X144058390Y-98467804D01*
X144216897Y-98436275D01*
X144358039Y-98408200D01*
X144663561Y-98408200D01*
X144804703Y-98436275D01*
G37*
G36*
X94791800Y-100890200D02*
G01*
X92289800Y-100890200D01*
X92289800Y-98388200D01*
X94791800Y-98388200D01*
X94791800Y-100890200D01*
G37*
G36*
X160285703Y-98436275D02*
G01*
X160513371Y-98530578D01*
X160718266Y-98667485D01*
X160892515Y-98841734D01*
X161029422Y-99046629D01*
X161123725Y-99274297D01*
X161171800Y-99515987D01*
X161171800Y-99762413D01*
X161123725Y-100004103D01*
X161029422Y-100231771D01*
X160892515Y-100436666D01*
X160718266Y-100610915D01*
X160513371Y-100747822D01*
X160513370Y-100747823D01*
X160513369Y-100747823D01*
X160285703Y-100842125D01*
X160044014Y-100890200D01*
X159797586Y-100890200D01*
X159555897Y-100842125D01*
X159328231Y-100747823D01*
X159328230Y-100747823D01*
X159328229Y-100747822D01*
X159123334Y-100610915D01*
X158949085Y-100436666D01*
X158812178Y-100231771D01*
X158717875Y-100004103D01*
X158669800Y-99762413D01*
X158669800Y-99515987D01*
X158717875Y-99274297D01*
X158812178Y-99046629D01*
X158949085Y-98841734D01*
X159123334Y-98667485D01*
X159328229Y-98530578D01*
X159555897Y-98436275D01*
X159797586Y-98388200D01*
X160044014Y-98388200D01*
X160285703Y-98436275D01*
G37*
G36*
X153285703Y-98436275D02*
G01*
X153513371Y-98530578D01*
X153718266Y-98667485D01*
X153892515Y-98841734D01*
X154029422Y-99046629D01*
X154123725Y-99274297D01*
X154171800Y-99515987D01*
X154171800Y-99762413D01*
X154123725Y-100004103D01*
X154029422Y-100231771D01*
X153892515Y-100436666D01*
X153718266Y-100610915D01*
X153513371Y-100747822D01*
X153513370Y-100747823D01*
X153513369Y-100747823D01*
X153285703Y-100842125D01*
X153044014Y-100890200D01*
X152797586Y-100890200D01*
X152555897Y-100842125D01*
X152328231Y-100747823D01*
X152328230Y-100747823D01*
X152328229Y-100747822D01*
X152123334Y-100610915D01*
X151949085Y-100436666D01*
X151812178Y-100231771D01*
X151717875Y-100004103D01*
X151669800Y-99762413D01*
X151669800Y-99515987D01*
X151717875Y-99274297D01*
X151812178Y-99046629D01*
X151949085Y-98841734D01*
X152123334Y-98667485D01*
X152328229Y-98530578D01*
X152555897Y-98436275D01*
X152797586Y-98388200D01*
X153044014Y-98388200D01*
X153285703Y-98436275D01*
G37*
G36*
X128845703Y-98436275D02*
G01*
X129073371Y-98530578D01*
X129278266Y-98667485D01*
X129452515Y-98841734D01*
X129589422Y-99046629D01*
X129683725Y-99274297D01*
X129731800Y-99515987D01*
X129731800Y-99762413D01*
X129683725Y-100004103D01*
X129589422Y-100231771D01*
X129452515Y-100436666D01*
X129278266Y-100610915D01*
X129073371Y-100747822D01*
X129073370Y-100747823D01*
X129073369Y-100747823D01*
X128845703Y-100842125D01*
X128604014Y-100890200D01*
X128357586Y-100890200D01*
X128115897Y-100842125D01*
X127888231Y-100747823D01*
X127888230Y-100747823D01*
X127888229Y-100747822D01*
X127683334Y-100610915D01*
X127509085Y-100436666D01*
X127372178Y-100231771D01*
X127277875Y-100004103D01*
X127229800Y-99762413D01*
X127229800Y-99515987D01*
X127277875Y-99274297D01*
X127372178Y-99046629D01*
X127509085Y-98841734D01*
X127683334Y-98667485D01*
X127888229Y-98530578D01*
X128115897Y-98436275D01*
X128357586Y-98388200D01*
X128604014Y-98388200D01*
X128845703Y-98436275D01*
G37*
G36*
X125345703Y-98436275D02*
G01*
X125573371Y-98530578D01*
X125778266Y-98667485D01*
X125952515Y-98841734D01*
X126089422Y-99046629D01*
X126183725Y-99274297D01*
X126231800Y-99515987D01*
X126231800Y-99762413D01*
X126183725Y-100004103D01*
X126089422Y-100231771D01*
X125952515Y-100436666D01*
X125778266Y-100610915D01*
X125573371Y-100747822D01*
X125573370Y-100747823D01*
X125573369Y-100747823D01*
X125345703Y-100842125D01*
X125104014Y-100890200D01*
X124857586Y-100890200D01*
X124615897Y-100842125D01*
X124388231Y-100747823D01*
X124388230Y-100747823D01*
X124388229Y-100747822D01*
X124183334Y-100610915D01*
X124009085Y-100436666D01*
X123872178Y-100231771D01*
X123777875Y-100004103D01*
X123729800Y-99762413D01*
X123729800Y-99515987D01*
X123777875Y-99274297D01*
X123872178Y-99046629D01*
X124009085Y-98841734D01*
X124183334Y-98667485D01*
X124388229Y-98530578D01*
X124615897Y-98436275D01*
X124857586Y-98388200D01*
X125104014Y-98388200D01*
X125345703Y-98436275D01*
G37*
G36*
X122731800Y-100890200D02*
G01*
X120229800Y-100890200D01*
X120229800Y-98388200D01*
X122731800Y-98388200D01*
X122731800Y-100890200D01*
G37*
G36*
X104405703Y-98436275D02*
G01*
X104633371Y-98530578D01*
X104838266Y-98667485D01*
X105012515Y-98841734D01*
X105149422Y-99046629D01*
X105243725Y-99274297D01*
X105291800Y-99515987D01*
X105291800Y-99762413D01*
X105243725Y-100004103D01*
X105149422Y-100231771D01*
X105012515Y-100436666D01*
X104838266Y-100610915D01*
X104633371Y-100747822D01*
X104633370Y-100747823D01*
X104633369Y-100747823D01*
X104405703Y-100842125D01*
X104164014Y-100890200D01*
X103917586Y-100890200D01*
X103675897Y-100842125D01*
X103448231Y-100747823D01*
X103448230Y-100747823D01*
X103448229Y-100747822D01*
X103243334Y-100610915D01*
X103069085Y-100436666D01*
X102932178Y-100231771D01*
X102837875Y-100004103D01*
X102789800Y-99762413D01*
X102789800Y-99515987D01*
X102837875Y-99274297D01*
X102932178Y-99046629D01*
X103069085Y-98841734D01*
X103243334Y-98667485D01*
X103448229Y-98530578D01*
X103675897Y-98436275D01*
X103917586Y-98388200D01*
X104164014Y-98388200D01*
X104405703Y-98436275D01*
G37*
G36*
X100905703Y-98436275D02*
G01*
X101133371Y-98530578D01*
X101338266Y-98667485D01*
X101512515Y-98841734D01*
X101649422Y-99046629D01*
X101743725Y-99274297D01*
X101791800Y-99515987D01*
X101791800Y-99762413D01*
X101743725Y-100004103D01*
X101649422Y-100231771D01*
X101512515Y-100436666D01*
X101338266Y-100610915D01*
X101133371Y-100747822D01*
X101133370Y-100747823D01*
X101133369Y-100747823D01*
X100905703Y-100842125D01*
X100664014Y-100890200D01*
X100417586Y-100890200D01*
X100175897Y-100842125D01*
X99948231Y-100747823D01*
X99948230Y-100747823D01*
X99948229Y-100747822D01*
X99743334Y-100610915D01*
X99569085Y-100436666D01*
X99432178Y-100231771D01*
X99337875Y-100004103D01*
X99289800Y-99762413D01*
X99289800Y-99515987D01*
X99337875Y-99274297D01*
X99432178Y-99046629D01*
X99569085Y-98841734D01*
X99743334Y-98667485D01*
X99948229Y-98530578D01*
X100175897Y-98436275D01*
X100417586Y-98388200D01*
X100664014Y-98388200D01*
X100905703Y-98436275D01*
G37*
G36*
X97405703Y-98436275D02*
G01*
X97633371Y-98530578D01*
X97838266Y-98667485D01*
X98012515Y-98841734D01*
X98149422Y-99046629D01*
X98243725Y-99274297D01*
X98291800Y-99515987D01*
X98291800Y-99762413D01*
X98243725Y-100004103D01*
X98149422Y-100231771D01*
X98012515Y-100436666D01*
X97838266Y-100610915D01*
X97633371Y-100747822D01*
X97633370Y-100747823D01*
X97633369Y-100747823D01*
X97405703Y-100842125D01*
X97164014Y-100890200D01*
X96917586Y-100890200D01*
X96675897Y-100842125D01*
X96448231Y-100747823D01*
X96448230Y-100747823D01*
X96448229Y-100747822D01*
X96243334Y-100610915D01*
X96069085Y-100436666D01*
X95932178Y-100231771D01*
X95837875Y-100004103D01*
X95789800Y-99762413D01*
X95789800Y-99515987D01*
X95837875Y-99274297D01*
X95932178Y-99046629D01*
X96069085Y-98841734D01*
X96243334Y-98667485D01*
X96448229Y-98530578D01*
X96675897Y-98436275D01*
X96917586Y-98388200D01*
X97164014Y-98388200D01*
X97405703Y-98436275D01*
G37*
G36*
X132345703Y-98436275D02*
G01*
X132573371Y-98530578D01*
X132778266Y-98667485D01*
X132952515Y-98841734D01*
X133089422Y-99046629D01*
X133183725Y-99274297D01*
X133231800Y-99515987D01*
X133231800Y-99762413D01*
X133183725Y-100004103D01*
X133089422Y-100231771D01*
X132952515Y-100436666D01*
X132778266Y-100610915D01*
X132573371Y-100747822D01*
X132573370Y-100747823D01*
X132573369Y-100747823D01*
X132345703Y-100842125D01*
X132104014Y-100890200D01*
X131857586Y-100890200D01*
X131615897Y-100842125D01*
X131388231Y-100747823D01*
X131388230Y-100747823D01*
X131388229Y-100747822D01*
X131183334Y-100610915D01*
X131009085Y-100436666D01*
X130872178Y-100231771D01*
X130777875Y-100004103D01*
X130729800Y-99762413D01*
X130729800Y-99515987D01*
X130777875Y-99274297D01*
X130872178Y-99046629D01*
X131009085Y-98841734D01*
X131183334Y-98667485D01*
X131388229Y-98530578D01*
X131615897Y-98436275D01*
X131857586Y-98388200D01*
X132104014Y-98388200D01*
X132345703Y-98436275D01*
G37*
G36*
X156785703Y-98436275D02*
G01*
X157013371Y-98530578D01*
X157218266Y-98667485D01*
X157392515Y-98841734D01*
X157529422Y-99046629D01*
X157623725Y-99274297D01*
X157671800Y-99515987D01*
X157671800Y-99762413D01*
X157623725Y-100004103D01*
X157529422Y-100231771D01*
X157392515Y-100436666D01*
X157218266Y-100610915D01*
X157013371Y-100747822D01*
X157013370Y-100747823D01*
X157013369Y-100747823D01*
X156785703Y-100842125D01*
X156544014Y-100890200D01*
X156297586Y-100890200D01*
X156055897Y-100842125D01*
X155828231Y-100747823D01*
X155828230Y-100747823D01*
X155828229Y-100747822D01*
X155623334Y-100610915D01*
X155449085Y-100436666D01*
X155312178Y-100231771D01*
X155217875Y-100004103D01*
X155169800Y-99762413D01*
X155169800Y-99515987D01*
X155217875Y-99274297D01*
X155312178Y-99046629D01*
X155449085Y-98841734D01*
X155623334Y-98667485D01*
X155828229Y-98530578D01*
X156055897Y-98436275D01*
X156297586Y-98388200D01*
X156544014Y-98388200D01*
X156785703Y-98436275D01*
G37*
G36*
X150671800Y-100890200D02*
G01*
X148169800Y-100890200D01*
X148169800Y-98388200D01*
X150671800Y-98388200D01*
X150671800Y-100890200D01*
G37*
G36*
X116950193Y-93628504D02*
G01*
X117186901Y-93726552D01*
X117186903Y-93726553D01*
X117399935Y-93868896D01*
X117581104Y-94050065D01*
X117723447Y-94263097D01*
X117723448Y-94263099D01*
X117821496Y-94499807D01*
X117871480Y-94751093D01*
X117871480Y-95007307D01*
X117821496Y-95258593D01*
X117723448Y-95495301D01*
X117723447Y-95495303D01*
X117581104Y-95708335D01*
X117399935Y-95889504D01*
X117186903Y-96031847D01*
X117186902Y-96031848D01*
X117186901Y-96031848D01*
X116950193Y-96129896D01*
X116698907Y-96179880D01*
X116442693Y-96179880D01*
X116191407Y-96129896D01*
X115954699Y-96031848D01*
X115954698Y-96031848D01*
X115954697Y-96031847D01*
X115741665Y-95889504D01*
X115560496Y-95708335D01*
X115418153Y-95495303D01*
X115418152Y-95495301D01*
X115320104Y-95258593D01*
X115270120Y-95007307D01*
X115270120Y-94751093D01*
X115320104Y-94499807D01*
X115418152Y-94263099D01*
X115418153Y-94263097D01*
X115560496Y-94050065D01*
X115741665Y-93868896D01*
X115954697Y-93726553D01*
X115954699Y-93726552D01*
X116191407Y-93628504D01*
X116442693Y-93578520D01*
X116698907Y-93578520D01*
X116950193Y-93628504D01*
G37*
G36*
X165210193Y-93628504D02*
G01*
X165446901Y-93726552D01*
X165446903Y-93726553D01*
X165659935Y-93868896D01*
X165841104Y-94050065D01*
X165983447Y-94263097D01*
X165983448Y-94263099D01*
X166081496Y-94499807D01*
X166131480Y-94751093D01*
X166131480Y-95007307D01*
X166081496Y-95258593D01*
X165983448Y-95495301D01*
X165983447Y-95495303D01*
X165841104Y-95708335D01*
X165659935Y-95889504D01*
X165446903Y-96031847D01*
X165446902Y-96031848D01*
X165446901Y-96031848D01*
X165210193Y-96129896D01*
X164958907Y-96179880D01*
X164702693Y-96179880D01*
X164451407Y-96129896D01*
X164214699Y-96031848D01*
X164214698Y-96031848D01*
X164214697Y-96031847D01*
X164001665Y-95889504D01*
X163820496Y-95708335D01*
X163678153Y-95495303D01*
X163678152Y-95495301D01*
X163580104Y-95258593D01*
X163530120Y-95007307D01*
X163530120Y-94751093D01*
X163580104Y-94499807D01*
X163678152Y-94263099D01*
X163678153Y-94263097D01*
X163820496Y-94050065D01*
X164001665Y-93868896D01*
X164214697Y-93726553D01*
X164214699Y-93726552D01*
X164451407Y-93628504D01*
X164702693Y-93578520D01*
X164958907Y-93578520D01*
X165210193Y-93628504D01*
G37*
G36*
X137270193Y-93628504D02*
G01*
X137506901Y-93726552D01*
X137506903Y-93726553D01*
X137719935Y-93868896D01*
X137901104Y-94050065D01*
X138043447Y-94263097D01*
X138043448Y-94263099D01*
X138141496Y-94499807D01*
X138191480Y-94751093D01*
X138191480Y-95007307D01*
X138141496Y-95258593D01*
X138043448Y-95495301D01*
X138043447Y-95495303D01*
X137901104Y-95708335D01*
X137719935Y-95889504D01*
X137506903Y-96031847D01*
X137506902Y-96031848D01*
X137506901Y-96031848D01*
X137270193Y-96129896D01*
X137018907Y-96179880D01*
X136762693Y-96179880D01*
X136511407Y-96129896D01*
X136274699Y-96031848D01*
X136274698Y-96031848D01*
X136274697Y-96031847D01*
X136061665Y-95889504D01*
X135880496Y-95708335D01*
X135738153Y-95495303D01*
X135738152Y-95495301D01*
X135640104Y-95258593D01*
X135590120Y-95007307D01*
X135590120Y-94751093D01*
X135640104Y-94499807D01*
X135738152Y-94263099D01*
X135738153Y-94263097D01*
X135880496Y-94050065D01*
X136061665Y-93868896D01*
X136274697Y-93726553D01*
X136274699Y-93726552D01*
X136511407Y-93628504D01*
X136762693Y-93578520D01*
X137018907Y-93578520D01*
X137270193Y-93628504D01*
G37*
G36*
X144890193Y-93628504D02*
G01*
X145126901Y-93726552D01*
X145126903Y-93726553D01*
X145339935Y-93868896D01*
X145521104Y-94050065D01*
X145663447Y-94263097D01*
X145663448Y-94263099D01*
X145761496Y-94499807D01*
X145811480Y-94751093D01*
X145811480Y-95007307D01*
X145761496Y-95258593D01*
X145663448Y-95495301D01*
X145663447Y-95495303D01*
X145521104Y-95708335D01*
X145339935Y-95889504D01*
X145126903Y-96031847D01*
X145126902Y-96031848D01*
X145126901Y-96031848D01*
X144890193Y-96129896D01*
X144638907Y-96179880D01*
X144382693Y-96179880D01*
X144131407Y-96129896D01*
X143894699Y-96031848D01*
X143894698Y-96031848D01*
X143894697Y-96031847D01*
X143681665Y-95889504D01*
X143500496Y-95708335D01*
X143358153Y-95495303D01*
X143358152Y-95495301D01*
X143260104Y-95258593D01*
X143210120Y-95007307D01*
X143210120Y-94751093D01*
X143260104Y-94499807D01*
X143358152Y-94263099D01*
X143358153Y-94263097D01*
X143500496Y-94050065D01*
X143681665Y-93868896D01*
X143894697Y-93726553D01*
X143894699Y-93726552D01*
X144131407Y-93628504D01*
X144382693Y-93578520D01*
X144638907Y-93578520D01*
X144890193Y-93628504D01*
G37*
G36*
X89010193Y-93628504D02*
G01*
X89246901Y-93726552D01*
X89246903Y-93726553D01*
X89459935Y-93868896D01*
X89641104Y-94050065D01*
X89783447Y-94263097D01*
X89783448Y-94263099D01*
X89881496Y-94499807D01*
X89931480Y-94751093D01*
X89931480Y-95007307D01*
X89881496Y-95258593D01*
X89783448Y-95495301D01*
X89783447Y-95495303D01*
X89641104Y-95708335D01*
X89459935Y-95889504D01*
X89246903Y-96031847D01*
X89246902Y-96031848D01*
X89246901Y-96031848D01*
X89010193Y-96129896D01*
X88758907Y-96179880D01*
X88502693Y-96179880D01*
X88251407Y-96129896D01*
X88014699Y-96031848D01*
X88014698Y-96031848D01*
X88014697Y-96031847D01*
X87801665Y-95889504D01*
X87620496Y-95708335D01*
X87478153Y-95495303D01*
X87478152Y-95495301D01*
X87380104Y-95258593D01*
X87330120Y-95007307D01*
X87330120Y-94751093D01*
X87380104Y-94499807D01*
X87478152Y-94263099D01*
X87478153Y-94263097D01*
X87620496Y-94050065D01*
X87801665Y-93868896D01*
X88014697Y-93726553D01*
X88014699Y-93726552D01*
X88251407Y-93628504D01*
X88502693Y-93578520D01*
X88758907Y-93578520D01*
X89010193Y-93628504D01*
G37*
G36*
X109330193Y-93628504D02*
G01*
X109566901Y-93726552D01*
X109566903Y-93726553D01*
X109779935Y-93868896D01*
X109961104Y-94050065D01*
X110103447Y-94263097D01*
X110103448Y-94263099D01*
X110201496Y-94499807D01*
X110251480Y-94751093D01*
X110251480Y-95007307D01*
X110201496Y-95258593D01*
X110103448Y-95495301D01*
X110103447Y-95495303D01*
X109961104Y-95708335D01*
X109779935Y-95889504D01*
X109566903Y-96031847D01*
X109566902Y-96031848D01*
X109566901Y-96031848D01*
X109330193Y-96129896D01*
X109078907Y-96179880D01*
X108822693Y-96179880D01*
X108571407Y-96129896D01*
X108334699Y-96031848D01*
X108334698Y-96031848D01*
X108334697Y-96031847D01*
X108121665Y-95889504D01*
X107940496Y-95708335D01*
X107798153Y-95495303D01*
X107798152Y-95495301D01*
X107700104Y-95258593D01*
X107650120Y-95007307D01*
X107650120Y-94751093D01*
X107700104Y-94499807D01*
X107798152Y-94263099D01*
X107798153Y-94263097D01*
X107940496Y-94050065D01*
X108121665Y-93868896D01*
X108334697Y-93726553D01*
X108334699Y-93726552D01*
X108571407Y-93628504D01*
X108822693Y-93578520D01*
X109078907Y-93578520D01*
X109330193Y-93628504D01*
G37*
G36*
X153285703Y-88916275D02*
G01*
X153513371Y-89010578D01*
X153718266Y-89147485D01*
X153892515Y-89321734D01*
X154029422Y-89526629D01*
X154123725Y-89754297D01*
X154171800Y-89995987D01*
X154171800Y-90242413D01*
X154123725Y-90484103D01*
X154029422Y-90711771D01*
X153892515Y-90916666D01*
X153718266Y-91090915D01*
X153513371Y-91227822D01*
X153513370Y-91227823D01*
X153513369Y-91227823D01*
X153285703Y-91322125D01*
X153044014Y-91370200D01*
X152797586Y-91370200D01*
X152555897Y-91322125D01*
X152328231Y-91227823D01*
X152328230Y-91227823D01*
X152328229Y-91227822D01*
X152123334Y-91090915D01*
X151949085Y-90916666D01*
X151812178Y-90711771D01*
X151717875Y-90484103D01*
X151669800Y-90242413D01*
X151669800Y-89995987D01*
X151717875Y-89754297D01*
X151812178Y-89526629D01*
X151949085Y-89321734D01*
X152123334Y-89147485D01*
X152328229Y-89010578D01*
X152555897Y-88916275D01*
X152797586Y-88868200D01*
X153044014Y-88868200D01*
X153285703Y-88916275D01*
G37*
G36*
X161171800Y-91370200D02*
G01*
X158669800Y-91370200D01*
X158669800Y-88868200D01*
X161171800Y-88868200D01*
X161171800Y-91370200D01*
G37*
G36*
X156785703Y-88916275D02*
G01*
X157013371Y-89010578D01*
X157218266Y-89147485D01*
X157392515Y-89321734D01*
X157529422Y-89526629D01*
X157623725Y-89754297D01*
X157671800Y-89995987D01*
X157671800Y-90242413D01*
X157623725Y-90484103D01*
X157529422Y-90711771D01*
X157392515Y-90916666D01*
X157218266Y-91090915D01*
X157013371Y-91227822D01*
X157013370Y-91227823D01*
X157013369Y-91227823D01*
X156785703Y-91322125D01*
X156544014Y-91370200D01*
X156297586Y-91370200D01*
X156055897Y-91322125D01*
X155828231Y-91227823D01*
X155828230Y-91227823D01*
X155828229Y-91227822D01*
X155623334Y-91090915D01*
X155449085Y-90916666D01*
X155312178Y-90711771D01*
X155217875Y-90484103D01*
X155169800Y-90242413D01*
X155169800Y-89995987D01*
X155217875Y-89754297D01*
X155312178Y-89526629D01*
X155449085Y-89321734D01*
X155623334Y-89147485D01*
X155828229Y-89010578D01*
X156055897Y-88916275D01*
X156297586Y-88868200D01*
X156544014Y-88868200D01*
X156785703Y-88916275D01*
G37*
G36*
X149785703Y-88916275D02*
G01*
X150013371Y-89010578D01*
X150218266Y-89147485D01*
X150392515Y-89321734D01*
X150529422Y-89526629D01*
X150623725Y-89754297D01*
X150671800Y-89995987D01*
X150671800Y-90242413D01*
X150623725Y-90484103D01*
X150529422Y-90711771D01*
X150392515Y-90916666D01*
X150218266Y-91090915D01*
X150013371Y-91227822D01*
X150013370Y-91227823D01*
X150013369Y-91227823D01*
X149785703Y-91322125D01*
X149544014Y-91370200D01*
X149297586Y-91370200D01*
X149055897Y-91322125D01*
X148828231Y-91227823D01*
X148828230Y-91227823D01*
X148828229Y-91227822D01*
X148623334Y-91090915D01*
X148449085Y-90916666D01*
X148312178Y-90711771D01*
X148217875Y-90484103D01*
X148169800Y-90242413D01*
X148169800Y-89995987D01*
X148217875Y-89754297D01*
X148312178Y-89526629D01*
X148449085Y-89321734D01*
X148623334Y-89147485D01*
X148828229Y-89010578D01*
X149055897Y-88916275D01*
X149297586Y-88868200D01*
X149544014Y-88868200D01*
X149785703Y-88916275D01*
G37*
G36*
X133231800Y-91370200D02*
G01*
X130729800Y-91370200D01*
X130729800Y-88868200D01*
X133231800Y-88868200D01*
X133231800Y-91370200D01*
G37*
G36*
X128845703Y-88916275D02*
G01*
X129073371Y-89010578D01*
X129278266Y-89147485D01*
X129452515Y-89321734D01*
X129589422Y-89526629D01*
X129683725Y-89754297D01*
X129731800Y-89995987D01*
X129731800Y-90242413D01*
X129683725Y-90484103D01*
X129589422Y-90711771D01*
X129452515Y-90916666D01*
X129278266Y-91090915D01*
X129073371Y-91227822D01*
X129073370Y-91227823D01*
X129073369Y-91227823D01*
X128845703Y-91322125D01*
X128604014Y-91370200D01*
X128357586Y-91370200D01*
X128115897Y-91322125D01*
X127888231Y-91227823D01*
X127888230Y-91227823D01*
X127888229Y-91227822D01*
X127683334Y-91090915D01*
X127509085Y-90916666D01*
X127372178Y-90711771D01*
X127277875Y-90484103D01*
X127229800Y-90242413D01*
X127229800Y-89995987D01*
X127277875Y-89754297D01*
X127372178Y-89526629D01*
X127509085Y-89321734D01*
X127683334Y-89147485D01*
X127888229Y-89010578D01*
X128115897Y-88916275D01*
X128357586Y-88868200D01*
X128604014Y-88868200D01*
X128845703Y-88916275D01*
G37*
G36*
X125345703Y-88916275D02*
G01*
X125573371Y-89010578D01*
X125778266Y-89147485D01*
X125952515Y-89321734D01*
X126089422Y-89526629D01*
X126183725Y-89754297D01*
X126231800Y-89995987D01*
X126231800Y-90242413D01*
X126183725Y-90484103D01*
X126089422Y-90711771D01*
X125952515Y-90916666D01*
X125778266Y-91090915D01*
X125573371Y-91227822D01*
X125573370Y-91227823D01*
X125573369Y-91227823D01*
X125345703Y-91322125D01*
X125104014Y-91370200D01*
X124857586Y-91370200D01*
X124615897Y-91322125D01*
X124388231Y-91227823D01*
X124388230Y-91227823D01*
X124388229Y-91227822D01*
X124183334Y-91090915D01*
X124009085Y-90916666D01*
X123872178Y-90711771D01*
X123777875Y-90484103D01*
X123729800Y-90242413D01*
X123729800Y-89995987D01*
X123777875Y-89754297D01*
X123872178Y-89526629D01*
X124009085Y-89321734D01*
X124183334Y-89147485D01*
X124388229Y-89010578D01*
X124615897Y-88916275D01*
X124857586Y-88868200D01*
X125104014Y-88868200D01*
X125345703Y-88916275D01*
G37*
G36*
X121845703Y-88916275D02*
G01*
X122073371Y-89010578D01*
X122278266Y-89147485D01*
X122452515Y-89321734D01*
X122589422Y-89526629D01*
X122683725Y-89754297D01*
X122731800Y-89995987D01*
X122731800Y-90242413D01*
X122683725Y-90484103D01*
X122589422Y-90711771D01*
X122452515Y-90916666D01*
X122278266Y-91090915D01*
X122073371Y-91227822D01*
X122073370Y-91227823D01*
X122073369Y-91227823D01*
X121845703Y-91322125D01*
X121604014Y-91370200D01*
X121357586Y-91370200D01*
X121115897Y-91322125D01*
X120888231Y-91227823D01*
X120888230Y-91227823D01*
X120888229Y-91227822D01*
X120683334Y-91090915D01*
X120509085Y-90916666D01*
X120372178Y-90711771D01*
X120277875Y-90484103D01*
X120229800Y-90242413D01*
X120229800Y-89995987D01*
X120277875Y-89754297D01*
X120372178Y-89526629D01*
X120509085Y-89321734D01*
X120683334Y-89147485D01*
X120888229Y-89010578D01*
X121115897Y-88916275D01*
X121357586Y-88868200D01*
X121604014Y-88868200D01*
X121845703Y-88916275D01*
G37*
G36*
X105291800Y-91370200D02*
G01*
X102789800Y-91370200D01*
X102789800Y-88868200D01*
X105291800Y-88868200D01*
X105291800Y-91370200D01*
G37*
G36*
X100905703Y-88916275D02*
G01*
X101133371Y-89010578D01*
X101338266Y-89147485D01*
X101512515Y-89321734D01*
X101649422Y-89526629D01*
X101743725Y-89754297D01*
X101791800Y-89995987D01*
X101791800Y-90242413D01*
X101743725Y-90484103D01*
X101649422Y-90711771D01*
X101512515Y-90916666D01*
X101338266Y-91090915D01*
X101133371Y-91227822D01*
X101133370Y-91227823D01*
X101133369Y-91227823D01*
X100905703Y-91322125D01*
X100664014Y-91370200D01*
X100417586Y-91370200D01*
X100175897Y-91322125D01*
X99948231Y-91227823D01*
X99948230Y-91227823D01*
X99948229Y-91227822D01*
X99743334Y-91090915D01*
X99569085Y-90916666D01*
X99432178Y-90711771D01*
X99337875Y-90484103D01*
X99289800Y-90242413D01*
X99289800Y-89995987D01*
X99337875Y-89754297D01*
X99432178Y-89526629D01*
X99569085Y-89321734D01*
X99743334Y-89147485D01*
X99948229Y-89010578D01*
X100175897Y-88916275D01*
X100417586Y-88868200D01*
X100664014Y-88868200D01*
X100905703Y-88916275D01*
G37*
G36*
X97405703Y-88916275D02*
G01*
X97633371Y-89010578D01*
X97838266Y-89147485D01*
X98012515Y-89321734D01*
X98149422Y-89526629D01*
X98243725Y-89754297D01*
X98291800Y-89995987D01*
X98291800Y-90242413D01*
X98243725Y-90484103D01*
X98149422Y-90711771D01*
X98012515Y-90916666D01*
X97838266Y-91090915D01*
X97633371Y-91227822D01*
X97633370Y-91227823D01*
X97633369Y-91227823D01*
X97405703Y-91322125D01*
X97164014Y-91370200D01*
X96917586Y-91370200D01*
X96675897Y-91322125D01*
X96448231Y-91227823D01*
X96448230Y-91227823D01*
X96448229Y-91227822D01*
X96243334Y-91090915D01*
X96069085Y-90916666D01*
X95932178Y-90711771D01*
X95837875Y-90484103D01*
X95789800Y-90242413D01*
X95789800Y-89995987D01*
X95837875Y-89754297D01*
X95932178Y-89526629D01*
X96069085Y-89321734D01*
X96243334Y-89147485D01*
X96448229Y-89010578D01*
X96675897Y-88916275D01*
X96917586Y-88868200D01*
X97164014Y-88868200D01*
X97405703Y-88916275D01*
G37*
G36*
X93905703Y-88916275D02*
G01*
X94133371Y-89010578D01*
X94338266Y-89147485D01*
X94512515Y-89321734D01*
X94649422Y-89526629D01*
X94743725Y-89754297D01*
X94791800Y-89995987D01*
X94791800Y-90242413D01*
X94743725Y-90484103D01*
X94649422Y-90711771D01*
X94512515Y-90916666D01*
X94338266Y-91090915D01*
X94133371Y-91227822D01*
X94133370Y-91227823D01*
X94133369Y-91227823D01*
X93905703Y-91322125D01*
X93664014Y-91370200D01*
X93417586Y-91370200D01*
X93175897Y-91322125D01*
X92948231Y-91227823D01*
X92948230Y-91227823D01*
X92948229Y-91227822D01*
X92743334Y-91090915D01*
X92569085Y-90916666D01*
X92432178Y-90711771D01*
X92337875Y-90484103D01*
X92289800Y-90242413D01*
X92289800Y-89995987D01*
X92337875Y-89754297D01*
X92432178Y-89526629D01*
X92569085Y-89321734D01*
X92743334Y-89147485D01*
X92948229Y-89010578D01*
X93175897Y-88916275D01*
X93417586Y-88868200D01*
X93664014Y-88868200D01*
X93905703Y-88916275D01*
G37*
G36*
X165133385Y-88278002D02*
G01*
X165283210Y-88307804D01*
X165565474Y-88424721D01*
X165819505Y-88594459D01*
X166035541Y-88810495D01*
X166205279Y-89064526D01*
X166311818Y-89321736D01*
X166322196Y-89346791D01*
X166381800Y-89646439D01*
X166381800Y-89951961D01*
X166351998Y-90101785D01*
X166322196Y-90251610D01*
X166205279Y-90533874D01*
X166035541Y-90787905D01*
X165819505Y-91003941D01*
X165565474Y-91173679D01*
X165283210Y-91290596D01*
X165133385Y-91320398D01*
X164983561Y-91350200D01*
X164678039Y-91350200D01*
X164528215Y-91320398D01*
X164378390Y-91290596D01*
X164096126Y-91173679D01*
X163842095Y-91003941D01*
X163626059Y-90787905D01*
X163456321Y-90533874D01*
X163339404Y-90251610D01*
X163309602Y-90101785D01*
X163279800Y-89951961D01*
X163279800Y-89646439D01*
X163339404Y-89346791D01*
X163349782Y-89321736D01*
X163456321Y-89064526D01*
X163626059Y-88810495D01*
X163842095Y-88594459D01*
X164096126Y-88424721D01*
X164378390Y-88307804D01*
X164528215Y-88278002D01*
X164678039Y-88248200D01*
X164983561Y-88248200D01*
X165133385Y-88278002D01*
G37*
G36*
X144813385Y-88278002D02*
G01*
X144963210Y-88307804D01*
X145245474Y-88424721D01*
X145499505Y-88594459D01*
X145715541Y-88810495D01*
X145885279Y-89064526D01*
X145991818Y-89321736D01*
X146002196Y-89346791D01*
X146061800Y-89646439D01*
X146061800Y-89951961D01*
X146031998Y-90101785D01*
X146002196Y-90251610D01*
X145885279Y-90533874D01*
X145715541Y-90787905D01*
X145499505Y-91003941D01*
X145245474Y-91173679D01*
X144963210Y-91290596D01*
X144813385Y-91320398D01*
X144663561Y-91350200D01*
X144358039Y-91350200D01*
X144208215Y-91320398D01*
X144058390Y-91290596D01*
X143776126Y-91173679D01*
X143522095Y-91003941D01*
X143306059Y-90787905D01*
X143136321Y-90533874D01*
X143019404Y-90251610D01*
X142989602Y-90101785D01*
X142959800Y-89951961D01*
X142959800Y-89646439D01*
X143019404Y-89346791D01*
X143029782Y-89321736D01*
X143136321Y-89064526D01*
X143306059Y-88810495D01*
X143522095Y-88594459D01*
X143776126Y-88424721D01*
X144058390Y-88307804D01*
X144208215Y-88278002D01*
X144358039Y-88248200D01*
X144663561Y-88248200D01*
X144813385Y-88278002D01*
G37*
G36*
X116873385Y-88278002D02*
G01*
X117023210Y-88307804D01*
X117305474Y-88424721D01*
X117559505Y-88594459D01*
X117775541Y-88810495D01*
X117945279Y-89064526D01*
X118051818Y-89321736D01*
X118062196Y-89346791D01*
X118121800Y-89646439D01*
X118121800Y-89951961D01*
X118091998Y-90101785D01*
X118062196Y-90251610D01*
X117945279Y-90533874D01*
X117775541Y-90787905D01*
X117559505Y-91003941D01*
X117305474Y-91173679D01*
X117023210Y-91290596D01*
X116873385Y-91320398D01*
X116723561Y-91350200D01*
X116418039Y-91350200D01*
X116268215Y-91320398D01*
X116118390Y-91290596D01*
X115836126Y-91173679D01*
X115582095Y-91003941D01*
X115366059Y-90787905D01*
X115196321Y-90533874D01*
X115079404Y-90251610D01*
X115049602Y-90101785D01*
X115019800Y-89951961D01*
X115019800Y-89646439D01*
X115079404Y-89346791D01*
X115089782Y-89321736D01*
X115196321Y-89064526D01*
X115366059Y-88810495D01*
X115582095Y-88594459D01*
X115836126Y-88424721D01*
X116118390Y-88307804D01*
X116268215Y-88278002D01*
X116418039Y-88248200D01*
X116723561Y-88248200D01*
X116873385Y-88278002D01*
G37*
G36*
X88933385Y-88278002D02*
G01*
X89083210Y-88307804D01*
X89365474Y-88424721D01*
X89619505Y-88594459D01*
X89835541Y-88810495D01*
X90005279Y-89064526D01*
X90111818Y-89321736D01*
X90122196Y-89346791D01*
X90181800Y-89646439D01*
X90181800Y-89951961D01*
X90151998Y-90101785D01*
X90122196Y-90251610D01*
X90005279Y-90533874D01*
X89835541Y-90787905D01*
X89619505Y-91003941D01*
X89365474Y-91173679D01*
X89083210Y-91290596D01*
X88933385Y-91320398D01*
X88783561Y-91350200D01*
X88478039Y-91350200D01*
X88328215Y-91320398D01*
X88178390Y-91290596D01*
X87896126Y-91173679D01*
X87642095Y-91003941D01*
X87426059Y-90787905D01*
X87256321Y-90533874D01*
X87139404Y-90251610D01*
X87109602Y-90101785D01*
X87079800Y-89951961D01*
X87079800Y-89646439D01*
X87139404Y-89346791D01*
X87149782Y-89321736D01*
X87256321Y-89064526D01*
X87426059Y-88810495D01*
X87642095Y-88594459D01*
X87896126Y-88424721D01*
X88178390Y-88307804D01*
X88328215Y-88278002D01*
X88478039Y-88248200D01*
X88783561Y-88248200D01*
X88933385Y-88278002D01*
G37*
G36*
X109253385Y-88278002D02*
G01*
X109403210Y-88307804D01*
X109685474Y-88424721D01*
X109939505Y-88594459D01*
X110155541Y-88810495D01*
X110325279Y-89064526D01*
X110431818Y-89321736D01*
X110442196Y-89346791D01*
X110501800Y-89646439D01*
X110501800Y-89951961D01*
X110471998Y-90101785D01*
X110442196Y-90251610D01*
X110325279Y-90533874D01*
X110155541Y-90787905D01*
X109939505Y-91003941D01*
X109685474Y-91173679D01*
X109403210Y-91290596D01*
X109253385Y-91320398D01*
X109103561Y-91350200D01*
X108798039Y-91350200D01*
X108648215Y-91320398D01*
X108498390Y-91290596D01*
X108216126Y-91173679D01*
X107962095Y-91003941D01*
X107746059Y-90787905D01*
X107576321Y-90533874D01*
X107459404Y-90251610D01*
X107429602Y-90101785D01*
X107399800Y-89951961D01*
X107399800Y-89646439D01*
X107459404Y-89346791D01*
X107469782Y-89321736D01*
X107576321Y-89064526D01*
X107746059Y-88810495D01*
X107962095Y-88594459D01*
X108216126Y-88424721D01*
X108498390Y-88307804D01*
X108648215Y-88278002D01*
X108798039Y-88248200D01*
X109103561Y-88248200D01*
X109253385Y-88278002D01*
G37*
G36*
X137193385Y-88278002D02*
G01*
X137343210Y-88307804D01*
X137625474Y-88424721D01*
X137879505Y-88594459D01*
X138095541Y-88810495D01*
X138265279Y-89064526D01*
X138371818Y-89321736D01*
X138382196Y-89346791D01*
X138441800Y-89646439D01*
X138441800Y-89951961D01*
X138411998Y-90101785D01*
X138382196Y-90251610D01*
X138265279Y-90533874D01*
X138095541Y-90787905D01*
X137879505Y-91003941D01*
X137625474Y-91173679D01*
X137343210Y-91290596D01*
X137193385Y-91320398D01*
X137043561Y-91350200D01*
X136738039Y-91350200D01*
X136588215Y-91320398D01*
X136438390Y-91290596D01*
X136156126Y-91173679D01*
X135902095Y-91003941D01*
X135686059Y-90787905D01*
X135516321Y-90533874D01*
X135399404Y-90251610D01*
X135369602Y-90101785D01*
X135339800Y-89951961D01*
X135339800Y-89646439D01*
X135399404Y-89346791D01*
X135409782Y-89321736D01*
X135516321Y-89064526D01*
X135686059Y-88810495D01*
X135902095Y-88594459D01*
X136156126Y-88424721D01*
X136438390Y-88307804D01*
X136588215Y-88278002D01*
X136738039Y-88248200D01*
X137043561Y-88248200D01*
X137193385Y-88278002D01*
G37*
G36*
X116864703Y-80656275D02*
G01*
X117023210Y-80687804D01*
X117305474Y-80804721D01*
X117559505Y-80974459D01*
X117775541Y-81190495D01*
X117945279Y-81444526D01*
X118062196Y-81726790D01*
X118062196Y-81726791D01*
X118113043Y-81982413D01*
X118121800Y-82026440D01*
X118121800Y-82331960D01*
X118062196Y-82631610D01*
X117945279Y-82913874D01*
X117775541Y-83167905D01*
X117559505Y-83383941D01*
X117305474Y-83553679D01*
X117023210Y-83670596D01*
X116873385Y-83700398D01*
X116723561Y-83730200D01*
X116418039Y-83730200D01*
X116268215Y-83700398D01*
X116118390Y-83670596D01*
X115836126Y-83553679D01*
X115582095Y-83383941D01*
X115366059Y-83167905D01*
X115196321Y-82913874D01*
X115079404Y-82631610D01*
X115019800Y-82331960D01*
X115019800Y-82026440D01*
X115028558Y-81982413D01*
X115079404Y-81726791D01*
X115079404Y-81726790D01*
X115196321Y-81444526D01*
X115366059Y-81190495D01*
X115582095Y-80974459D01*
X115836126Y-80804721D01*
X116118390Y-80687804D01*
X116276897Y-80656275D01*
X116418039Y-80628200D01*
X116723561Y-80628200D01*
X116864703Y-80656275D01*
G37*
G36*
X144804703Y-80656275D02*
G01*
X144963210Y-80687804D01*
X145245474Y-80804721D01*
X145499505Y-80974459D01*
X145715541Y-81190495D01*
X145885279Y-81444526D01*
X146002196Y-81726790D01*
X146002196Y-81726791D01*
X146053043Y-81982413D01*
X146061800Y-82026440D01*
X146061800Y-82331960D01*
X146002196Y-82631610D01*
X145885279Y-82913874D01*
X145715541Y-83167905D01*
X145499505Y-83383941D01*
X145245474Y-83553679D01*
X144963210Y-83670596D01*
X144813385Y-83700398D01*
X144663561Y-83730200D01*
X144358039Y-83730200D01*
X144208215Y-83700398D01*
X144058390Y-83670596D01*
X143776126Y-83553679D01*
X143522095Y-83383941D01*
X143306059Y-83167905D01*
X143136321Y-82913874D01*
X143019404Y-82631610D01*
X142959800Y-82331960D01*
X142959800Y-82026440D01*
X142968558Y-81982413D01*
X143019404Y-81726791D01*
X143019404Y-81726790D01*
X143136321Y-81444526D01*
X143306059Y-81190495D01*
X143522095Y-80974459D01*
X143776126Y-80804721D01*
X144058390Y-80687804D01*
X144216897Y-80656275D01*
X144358039Y-80628200D01*
X144663561Y-80628200D01*
X144804703Y-80656275D01*
G37*
G36*
X88924703Y-80656275D02*
G01*
X89083210Y-80687804D01*
X89365474Y-80804721D01*
X89619505Y-80974459D01*
X89835541Y-81190495D01*
X90005279Y-81444526D01*
X90122196Y-81726790D01*
X90122196Y-81726791D01*
X90173043Y-81982413D01*
X90181800Y-82026440D01*
X90181800Y-82331960D01*
X90122196Y-82631610D01*
X90005279Y-82913874D01*
X89835541Y-83167905D01*
X89619505Y-83383941D01*
X89365474Y-83553679D01*
X89083210Y-83670596D01*
X88933385Y-83700398D01*
X88783561Y-83730200D01*
X88478039Y-83730200D01*
X88328215Y-83700398D01*
X88178390Y-83670596D01*
X87896126Y-83553679D01*
X87642095Y-83383941D01*
X87426059Y-83167905D01*
X87256321Y-82913874D01*
X87139404Y-82631610D01*
X87079800Y-82331960D01*
X87079800Y-82026440D01*
X87088558Y-81982413D01*
X87139404Y-81726791D01*
X87139404Y-81726790D01*
X87256321Y-81444526D01*
X87426059Y-81190495D01*
X87642095Y-80974459D01*
X87896126Y-80804721D01*
X88178390Y-80687804D01*
X88336897Y-80656275D01*
X88478039Y-80628200D01*
X88783561Y-80628200D01*
X88924703Y-80656275D01*
G37*
G36*
X165124703Y-80656275D02*
G01*
X165283210Y-80687804D01*
X165565474Y-80804721D01*
X165819505Y-80974459D01*
X166035541Y-81190495D01*
X166205279Y-81444526D01*
X166322196Y-81726790D01*
X166322196Y-81726791D01*
X166373043Y-81982413D01*
X166381800Y-82026440D01*
X166381800Y-82331960D01*
X166322196Y-82631610D01*
X166205279Y-82913874D01*
X166035541Y-83167905D01*
X165819505Y-83383941D01*
X165565474Y-83553679D01*
X165283210Y-83670596D01*
X165133385Y-83700398D01*
X164983561Y-83730200D01*
X164678039Y-83730200D01*
X164528215Y-83700398D01*
X164378390Y-83670596D01*
X164096126Y-83553679D01*
X163842095Y-83383941D01*
X163626059Y-83167905D01*
X163456321Y-82913874D01*
X163339404Y-82631610D01*
X163279800Y-82331960D01*
X163279800Y-82026440D01*
X163288558Y-81982413D01*
X163339404Y-81726791D01*
X163339404Y-81726790D01*
X163456321Y-81444526D01*
X163626059Y-81190495D01*
X163842095Y-80974459D01*
X164096126Y-80804721D01*
X164378390Y-80687804D01*
X164536897Y-80656275D01*
X164678039Y-80628200D01*
X164983561Y-80628200D01*
X165124703Y-80656275D01*
G37*
G36*
X137184703Y-80656275D02*
G01*
X137343210Y-80687804D01*
X137625474Y-80804721D01*
X137879505Y-80974459D01*
X138095541Y-81190495D01*
X138265279Y-81444526D01*
X138382196Y-81726790D01*
X138382196Y-81726791D01*
X138433043Y-81982413D01*
X138441800Y-82026440D01*
X138441800Y-82331960D01*
X138382196Y-82631610D01*
X138265279Y-82913874D01*
X138095541Y-83167905D01*
X137879505Y-83383941D01*
X137625474Y-83553679D01*
X137343210Y-83670596D01*
X137193385Y-83700398D01*
X137043561Y-83730200D01*
X136738039Y-83730200D01*
X136588215Y-83700398D01*
X136438390Y-83670596D01*
X136156126Y-83553679D01*
X135902095Y-83383941D01*
X135686059Y-83167905D01*
X135516321Y-82913874D01*
X135399404Y-82631610D01*
X135339800Y-82331960D01*
X135339800Y-82026440D01*
X135348558Y-81982413D01*
X135399404Y-81726791D01*
X135399404Y-81726790D01*
X135516321Y-81444526D01*
X135686059Y-81190495D01*
X135902095Y-80974459D01*
X136156126Y-80804721D01*
X136438390Y-80687804D01*
X136596897Y-80656275D01*
X136738039Y-80628200D01*
X137043561Y-80628200D01*
X137184703Y-80656275D01*
G37*
G36*
X109244703Y-80656275D02*
G01*
X109403210Y-80687804D01*
X109685474Y-80804721D01*
X109939505Y-80974459D01*
X110155541Y-81190495D01*
X110325279Y-81444526D01*
X110442196Y-81726790D01*
X110442196Y-81726791D01*
X110493043Y-81982413D01*
X110501800Y-82026440D01*
X110501800Y-82331960D01*
X110442196Y-82631610D01*
X110325279Y-82913874D01*
X110155541Y-83167905D01*
X109939505Y-83383941D01*
X109685474Y-83553679D01*
X109403210Y-83670596D01*
X109253385Y-83700398D01*
X109103561Y-83730200D01*
X108798039Y-83730200D01*
X108648215Y-83700398D01*
X108498390Y-83670596D01*
X108216126Y-83553679D01*
X107962095Y-83383941D01*
X107746059Y-83167905D01*
X107576321Y-82913874D01*
X107459404Y-82631610D01*
X107399800Y-82331960D01*
X107399800Y-82026440D01*
X107408558Y-81982413D01*
X107459404Y-81726791D01*
X107459404Y-81726790D01*
X107576321Y-81444526D01*
X107746059Y-81190495D01*
X107962095Y-80974459D01*
X108216126Y-80804721D01*
X108498390Y-80687804D01*
X108656897Y-80656275D01*
X108798039Y-80628200D01*
X109103561Y-80628200D01*
X109244703Y-80656275D01*
G37*
G36*
X104405703Y-80656275D02*
G01*
X104633371Y-80750578D01*
X104838266Y-80887485D01*
X105012515Y-81061734D01*
X105149422Y-81266629D01*
X105243725Y-81494297D01*
X105291800Y-81735987D01*
X105291800Y-81982413D01*
X105243725Y-82224103D01*
X105149422Y-82451771D01*
X105012515Y-82656666D01*
X104838266Y-82830915D01*
X104633371Y-82967822D01*
X104633370Y-82967823D01*
X104633369Y-82967823D01*
X104405703Y-83062125D01*
X104164014Y-83110200D01*
X103917586Y-83110200D01*
X103675897Y-83062125D01*
X103448231Y-82967823D01*
X103448230Y-82967823D01*
X103448229Y-82967822D01*
X103243334Y-82830915D01*
X103069085Y-82656666D01*
X102932178Y-82451771D01*
X102837875Y-82224103D01*
X102789800Y-81982413D01*
X102789800Y-81735987D01*
X102837875Y-81494297D01*
X102932178Y-81266629D01*
X103069085Y-81061734D01*
X103243334Y-80887485D01*
X103448229Y-80750578D01*
X103675897Y-80656275D01*
X103917586Y-80608200D01*
X104164014Y-80608200D01*
X104405703Y-80656275D01*
G37*
G36*
X100905703Y-80656275D02*
G01*
X101133371Y-80750578D01*
X101338266Y-80887485D01*
X101512515Y-81061734D01*
X101649422Y-81266629D01*
X101743725Y-81494297D01*
X101791800Y-81735987D01*
X101791800Y-81982413D01*
X101743725Y-82224103D01*
X101649422Y-82451771D01*
X101512515Y-82656666D01*
X101338266Y-82830915D01*
X101133371Y-82967822D01*
X101133370Y-82967823D01*
X101133369Y-82967823D01*
X100905703Y-83062125D01*
X100664014Y-83110200D01*
X100417586Y-83110200D01*
X100175897Y-83062125D01*
X99948231Y-82967823D01*
X99948230Y-82967823D01*
X99948229Y-82967822D01*
X99743334Y-82830915D01*
X99569085Y-82656666D01*
X99432178Y-82451771D01*
X99337875Y-82224103D01*
X99289800Y-81982413D01*
X99289800Y-81735987D01*
X99337875Y-81494297D01*
X99432178Y-81266629D01*
X99569085Y-81061734D01*
X99743334Y-80887485D01*
X99948229Y-80750578D01*
X100175897Y-80656275D01*
X100417586Y-80608200D01*
X100664014Y-80608200D01*
X100905703Y-80656275D01*
G37*
G36*
X97405703Y-80656275D02*
G01*
X97633371Y-80750578D01*
X97838266Y-80887485D01*
X98012515Y-81061734D01*
X98149422Y-81266629D01*
X98243725Y-81494297D01*
X98291800Y-81735987D01*
X98291800Y-81982413D01*
X98243725Y-82224103D01*
X98149422Y-82451771D01*
X98012515Y-82656666D01*
X97838266Y-82830915D01*
X97633371Y-82967822D01*
X97633370Y-82967823D01*
X97633369Y-82967823D01*
X97405703Y-83062125D01*
X97164014Y-83110200D01*
X96917586Y-83110200D01*
X96675897Y-83062125D01*
X96448231Y-82967823D01*
X96448230Y-82967823D01*
X96448229Y-82967822D01*
X96243334Y-82830915D01*
X96069085Y-82656666D01*
X95932178Y-82451771D01*
X95837875Y-82224103D01*
X95789800Y-81982413D01*
X95789800Y-81735987D01*
X95837875Y-81494297D01*
X95932178Y-81266629D01*
X96069085Y-81061734D01*
X96243334Y-80887485D01*
X96448229Y-80750578D01*
X96675897Y-80656275D01*
X96917586Y-80608200D01*
X97164014Y-80608200D01*
X97405703Y-80656275D01*
G37*
G36*
X94791800Y-83110200D02*
G01*
X92289800Y-83110200D01*
X92289800Y-80608200D01*
X94791800Y-80608200D01*
X94791800Y-83110200D01*
G37*
G36*
X122731800Y-83110200D02*
G01*
X120229800Y-83110200D01*
X120229800Y-80608200D01*
X122731800Y-80608200D01*
X122731800Y-83110200D01*
G37*
G36*
X128845703Y-80656275D02*
G01*
X129073371Y-80750578D01*
X129278266Y-80887485D01*
X129452515Y-81061734D01*
X129589422Y-81266629D01*
X129683725Y-81494297D01*
X129731800Y-81735987D01*
X129731800Y-81982413D01*
X129683725Y-82224103D01*
X129589422Y-82451771D01*
X129452515Y-82656666D01*
X129278266Y-82830915D01*
X129073371Y-82967822D01*
X129073370Y-82967823D01*
X129073369Y-82967823D01*
X128845703Y-83062125D01*
X128604014Y-83110200D01*
X128357586Y-83110200D01*
X128115897Y-83062125D01*
X127888231Y-82967823D01*
X127888230Y-82967823D01*
X127888229Y-82967822D01*
X127683334Y-82830915D01*
X127509085Y-82656666D01*
X127372178Y-82451771D01*
X127277875Y-82224103D01*
X127229800Y-81982413D01*
X127229800Y-81735987D01*
X127277875Y-81494297D01*
X127372178Y-81266629D01*
X127509085Y-81061734D01*
X127683334Y-80887485D01*
X127888229Y-80750578D01*
X128115897Y-80656275D01*
X128357586Y-80608200D01*
X128604014Y-80608200D01*
X128845703Y-80656275D01*
G37*
G36*
X132345703Y-80656275D02*
G01*
X132573371Y-80750578D01*
X132778266Y-80887485D01*
X132952515Y-81061734D01*
X133089422Y-81266629D01*
X133183725Y-81494297D01*
X133231800Y-81735987D01*
X133231800Y-81982413D01*
X133183725Y-82224103D01*
X133089422Y-82451771D01*
X132952515Y-82656666D01*
X132778266Y-82830915D01*
X132573371Y-82967822D01*
X132573370Y-82967823D01*
X132573369Y-82967823D01*
X132345703Y-83062125D01*
X132104014Y-83110200D01*
X131857586Y-83110200D01*
X131615897Y-83062125D01*
X131388231Y-82967823D01*
X131388230Y-82967823D01*
X131388229Y-82967822D01*
X131183334Y-82830915D01*
X131009085Y-82656666D01*
X130872178Y-82451771D01*
X130777875Y-82224103D01*
X130729800Y-81982413D01*
X130729800Y-81735987D01*
X130777875Y-81494297D01*
X130872178Y-81266629D01*
X131009085Y-81061734D01*
X131183334Y-80887485D01*
X131388229Y-80750578D01*
X131615897Y-80656275D01*
X131857586Y-80608200D01*
X132104014Y-80608200D01*
X132345703Y-80656275D01*
G37*
G36*
X150671800Y-83110200D02*
G01*
X148169800Y-83110200D01*
X148169800Y-80608200D01*
X150671800Y-80608200D01*
X150671800Y-83110200D01*
G37*
G36*
X153285703Y-80656275D02*
G01*
X153513371Y-80750578D01*
X153718266Y-80887485D01*
X153892515Y-81061734D01*
X154029422Y-81266629D01*
X154123725Y-81494297D01*
X154171800Y-81735987D01*
X154171800Y-81982413D01*
X154123725Y-82224103D01*
X154029422Y-82451771D01*
X153892515Y-82656666D01*
X153718266Y-82830915D01*
X153513371Y-82967822D01*
X153513370Y-82967823D01*
X153513369Y-82967823D01*
X153285703Y-83062125D01*
X153044014Y-83110200D01*
X152797586Y-83110200D01*
X152555897Y-83062125D01*
X152328231Y-82967823D01*
X152328230Y-82967823D01*
X152328229Y-82967822D01*
X152123334Y-82830915D01*
X151949085Y-82656666D01*
X151812178Y-82451771D01*
X151717875Y-82224103D01*
X151669800Y-81982413D01*
X151669800Y-81735987D01*
X151717875Y-81494297D01*
X151812178Y-81266629D01*
X151949085Y-81061734D01*
X152123334Y-80887485D01*
X152328229Y-80750578D01*
X152555897Y-80656275D01*
X152797586Y-80608200D01*
X153044014Y-80608200D01*
X153285703Y-80656275D01*
G37*
G36*
X156785703Y-80656275D02*
G01*
X157013371Y-80750578D01*
X157218266Y-80887485D01*
X157392515Y-81061734D01*
X157529422Y-81266629D01*
X157623725Y-81494297D01*
X157671800Y-81735987D01*
X157671800Y-81982413D01*
X157623725Y-82224103D01*
X157529422Y-82451771D01*
X157392515Y-82656666D01*
X157218266Y-82830915D01*
X157013371Y-82967822D01*
X157013370Y-82967823D01*
X157013369Y-82967823D01*
X156785703Y-83062125D01*
X156544014Y-83110200D01*
X156297586Y-83110200D01*
X156055897Y-83062125D01*
X155828231Y-82967823D01*
X155828230Y-82967823D01*
X155828229Y-82967822D01*
X155623334Y-82830915D01*
X155449085Y-82656666D01*
X155312178Y-82451771D01*
X155217875Y-82224103D01*
X155169800Y-81982413D01*
X155169800Y-81735987D01*
X155217875Y-81494297D01*
X155312178Y-81266629D01*
X155449085Y-81061734D01*
X155623334Y-80887485D01*
X155828229Y-80750578D01*
X156055897Y-80656275D01*
X156297586Y-80608200D01*
X156544014Y-80608200D01*
X156785703Y-80656275D01*
G37*
G36*
X160285703Y-80656275D02*
G01*
X160513371Y-80750578D01*
X160718266Y-80887485D01*
X160892515Y-81061734D01*
X161029422Y-81266629D01*
X161123725Y-81494297D01*
X161171800Y-81735987D01*
X161171800Y-81982413D01*
X161123725Y-82224103D01*
X161029422Y-82451771D01*
X160892515Y-82656666D01*
X160718266Y-82830915D01*
X160513371Y-82967822D01*
X160513370Y-82967823D01*
X160513369Y-82967823D01*
X160285703Y-83062125D01*
X160044014Y-83110200D01*
X159797586Y-83110200D01*
X159555897Y-83062125D01*
X159328231Y-82967823D01*
X159328230Y-82967823D01*
X159328229Y-82967822D01*
X159123334Y-82830915D01*
X158949085Y-82656666D01*
X158812178Y-82451771D01*
X158717875Y-82224103D01*
X158669800Y-81982413D01*
X158669800Y-81735987D01*
X158717875Y-81494297D01*
X158812178Y-81266629D01*
X158949085Y-81061734D01*
X159123334Y-80887485D01*
X159328229Y-80750578D01*
X159555897Y-80656275D01*
X159797586Y-80608200D01*
X160044014Y-80608200D01*
X160285703Y-80656275D01*
G37*
G36*
X125345703Y-80656275D02*
G01*
X125573371Y-80750578D01*
X125778266Y-80887485D01*
X125952515Y-81061734D01*
X126089422Y-81266629D01*
X126183725Y-81494297D01*
X126231800Y-81735987D01*
X126231800Y-81982413D01*
X126183725Y-82224103D01*
X126089422Y-82451771D01*
X125952515Y-82656666D01*
X125778266Y-82830915D01*
X125573371Y-82967822D01*
X125573370Y-82967823D01*
X125573369Y-82967823D01*
X125345703Y-83062125D01*
X125104014Y-83110200D01*
X124857586Y-83110200D01*
X124615897Y-83062125D01*
X124388231Y-82967823D01*
X124388230Y-82967823D01*
X124388229Y-82967822D01*
X124183334Y-82830915D01*
X124009085Y-82656666D01*
X123872178Y-82451771D01*
X123777875Y-82224103D01*
X123729800Y-81982413D01*
X123729800Y-81735987D01*
X123777875Y-81494297D01*
X123872178Y-81266629D01*
X124009085Y-81061734D01*
X124183334Y-80887485D01*
X124388229Y-80750578D01*
X124615897Y-80656275D01*
X124857586Y-80608200D01*
X125104014Y-80608200D01*
X125345703Y-80656275D01*
G37*
G36*
X89010193Y-75848504D02*
G01*
X89246901Y-75946552D01*
X89246903Y-75946553D01*
X89459935Y-76088896D01*
X89641104Y-76270065D01*
X89783447Y-76483097D01*
X89783448Y-76483099D01*
X89881496Y-76719807D01*
X89931480Y-76971093D01*
X89931480Y-77227307D01*
X89881496Y-77478593D01*
X89783448Y-77715301D01*
X89783447Y-77715303D01*
X89641104Y-77928335D01*
X89459935Y-78109504D01*
X89246903Y-78251847D01*
X89246902Y-78251848D01*
X89246901Y-78251848D01*
X89010193Y-78349896D01*
X88758907Y-78399880D01*
X88502693Y-78399880D01*
X88251407Y-78349896D01*
X88014699Y-78251848D01*
X88014698Y-78251848D01*
X88014697Y-78251847D01*
X87801665Y-78109504D01*
X87620496Y-77928335D01*
X87478153Y-77715303D01*
X87478152Y-77715301D01*
X87380104Y-77478593D01*
X87330120Y-77227307D01*
X87330120Y-76971093D01*
X87380104Y-76719807D01*
X87478152Y-76483099D01*
X87478153Y-76483097D01*
X87620496Y-76270065D01*
X87801665Y-76088896D01*
X88014697Y-75946553D01*
X88014699Y-75946552D01*
X88251407Y-75848504D01*
X88502693Y-75798520D01*
X88758907Y-75798520D01*
X89010193Y-75848504D01*
G37*
G36*
X109330193Y-75848504D02*
G01*
X109566901Y-75946552D01*
X109566903Y-75946553D01*
X109779935Y-76088896D01*
X109961104Y-76270065D01*
X110103447Y-76483097D01*
X110103448Y-76483099D01*
X110201496Y-76719807D01*
X110251480Y-76971093D01*
X110251480Y-77227307D01*
X110201496Y-77478593D01*
X110103448Y-77715301D01*
X110103447Y-77715303D01*
X109961104Y-77928335D01*
X109779935Y-78109504D01*
X109566903Y-78251847D01*
X109566902Y-78251848D01*
X109566901Y-78251848D01*
X109330193Y-78349896D01*
X109078907Y-78399880D01*
X108822693Y-78399880D01*
X108571407Y-78349896D01*
X108334699Y-78251848D01*
X108334698Y-78251848D01*
X108334697Y-78251847D01*
X108121665Y-78109504D01*
X107940496Y-77928335D01*
X107798153Y-77715303D01*
X107798152Y-77715301D01*
X107700104Y-77478593D01*
X107650120Y-77227307D01*
X107650120Y-76971093D01*
X107700104Y-76719807D01*
X107798152Y-76483099D01*
X107798153Y-76483097D01*
X107940496Y-76270065D01*
X108121665Y-76088896D01*
X108334697Y-75946553D01*
X108334699Y-75946552D01*
X108571407Y-75848504D01*
X108822693Y-75798520D01*
X109078907Y-75798520D01*
X109330193Y-75848504D01*
G37*
G36*
X137270193Y-75848504D02*
G01*
X137506901Y-75946552D01*
X137506903Y-75946553D01*
X137719935Y-76088896D01*
X137901104Y-76270065D01*
X138043447Y-76483097D01*
X138043448Y-76483099D01*
X138141496Y-76719807D01*
X138191480Y-76971093D01*
X138191480Y-77227307D01*
X138141496Y-77478593D01*
X138043448Y-77715301D01*
X138043447Y-77715303D01*
X137901104Y-77928335D01*
X137719935Y-78109504D01*
X137506903Y-78251847D01*
X137506902Y-78251848D01*
X137506901Y-78251848D01*
X137270193Y-78349896D01*
X137018907Y-78399880D01*
X136762693Y-78399880D01*
X136511407Y-78349896D01*
X136274699Y-78251848D01*
X136274698Y-78251848D01*
X136274697Y-78251847D01*
X136061665Y-78109504D01*
X135880496Y-77928335D01*
X135738153Y-77715303D01*
X135738152Y-77715301D01*
X135640104Y-77478593D01*
X135590120Y-77227307D01*
X135590120Y-76971093D01*
X135640104Y-76719807D01*
X135738152Y-76483099D01*
X135738153Y-76483097D01*
X135880496Y-76270065D01*
X136061665Y-76088896D01*
X136274697Y-75946553D01*
X136274699Y-75946552D01*
X136511407Y-75848504D01*
X136762693Y-75798520D01*
X137018907Y-75798520D01*
X137270193Y-75848504D01*
G37*
G36*
X116950193Y-75848504D02*
G01*
X117186901Y-75946552D01*
X117186903Y-75946553D01*
X117399935Y-76088896D01*
X117581104Y-76270065D01*
X117723447Y-76483097D01*
X117723448Y-76483099D01*
X117821496Y-76719807D01*
X117871480Y-76971093D01*
X117871480Y-77227307D01*
X117821496Y-77478593D01*
X117723448Y-77715301D01*
X117723447Y-77715303D01*
X117581104Y-77928335D01*
X117399935Y-78109504D01*
X117186903Y-78251847D01*
X117186902Y-78251848D01*
X117186901Y-78251848D01*
X116950193Y-78349896D01*
X116698907Y-78399880D01*
X116442693Y-78399880D01*
X116191407Y-78349896D01*
X115954699Y-78251848D01*
X115954698Y-78251848D01*
X115954697Y-78251847D01*
X115741665Y-78109504D01*
X115560496Y-77928335D01*
X115418153Y-77715303D01*
X115418152Y-77715301D01*
X115320104Y-77478593D01*
X115270120Y-77227307D01*
X115270120Y-76971093D01*
X115320104Y-76719807D01*
X115418152Y-76483099D01*
X115418153Y-76483097D01*
X115560496Y-76270065D01*
X115741665Y-76088896D01*
X115954697Y-75946553D01*
X115954699Y-75946552D01*
X116191407Y-75848504D01*
X116442693Y-75798520D01*
X116698907Y-75798520D01*
X116950193Y-75848504D01*
G37*
G36*
X165210193Y-75848504D02*
G01*
X165446901Y-75946552D01*
X165446903Y-75946553D01*
X165659935Y-76088896D01*
X165841104Y-76270065D01*
X165983447Y-76483097D01*
X165983448Y-76483099D01*
X166081496Y-76719807D01*
X166131480Y-76971093D01*
X166131480Y-77227307D01*
X166081496Y-77478593D01*
X165983448Y-77715301D01*
X165983447Y-77715303D01*
X165841104Y-77928335D01*
X165659935Y-78109504D01*
X165446903Y-78251847D01*
X165446902Y-78251848D01*
X165446901Y-78251848D01*
X165210193Y-78349896D01*
X164958907Y-78399880D01*
X164702693Y-78399880D01*
X164451407Y-78349896D01*
X164214699Y-78251848D01*
X164214698Y-78251848D01*
X164214697Y-78251847D01*
X164001665Y-78109504D01*
X163820496Y-77928335D01*
X163678153Y-77715303D01*
X163678152Y-77715301D01*
X163580104Y-77478593D01*
X163530120Y-77227307D01*
X163530120Y-76971093D01*
X163580104Y-76719807D01*
X163678152Y-76483099D01*
X163678153Y-76483097D01*
X163820496Y-76270065D01*
X164001665Y-76088896D01*
X164214697Y-75946553D01*
X164214699Y-75946552D01*
X164451407Y-75848504D01*
X164702693Y-75798520D01*
X164958907Y-75798520D01*
X165210193Y-75848504D01*
G37*
G36*
X144890193Y-75848504D02*
G01*
X145126901Y-75946552D01*
X145126903Y-75946553D01*
X145339935Y-76088896D01*
X145521104Y-76270065D01*
X145663447Y-76483097D01*
X145663448Y-76483099D01*
X145761496Y-76719807D01*
X145811480Y-76971093D01*
X145811480Y-77227307D01*
X145761496Y-77478593D01*
X145663448Y-77715301D01*
X145663447Y-77715303D01*
X145521104Y-77928335D01*
X145339935Y-78109504D01*
X145126903Y-78251847D01*
X145126902Y-78251848D01*
X145126901Y-78251848D01*
X144890193Y-78349896D01*
X144638907Y-78399880D01*
X144382693Y-78399880D01*
X144131407Y-78349896D01*
X143894699Y-78251848D01*
X143894698Y-78251848D01*
X143894697Y-78251847D01*
X143681665Y-78109504D01*
X143500496Y-77928335D01*
X143358153Y-77715303D01*
X143358152Y-77715301D01*
X143260104Y-77478593D01*
X143210120Y-77227307D01*
X143210120Y-76971093D01*
X143260104Y-76719807D01*
X143358152Y-76483099D01*
X143358153Y-76483097D01*
X143500496Y-76270065D01*
X143681665Y-76088896D01*
X143894697Y-75946553D01*
X143894699Y-75946552D01*
X144131407Y-75848504D01*
X144382693Y-75798520D01*
X144638907Y-75798520D01*
X144890193Y-75848504D01*
G37*
G36*
X125345703Y-71136275D02*
G01*
X125573371Y-71230578D01*
X125778266Y-71367485D01*
X125952515Y-71541734D01*
X126089422Y-71746629D01*
X126183725Y-71974297D01*
X126231800Y-72215987D01*
X126231800Y-72462413D01*
X126183725Y-72704103D01*
X126089422Y-72931771D01*
X125952515Y-73136666D01*
X125778266Y-73310915D01*
X125573371Y-73447822D01*
X125573370Y-73447823D01*
X125573369Y-73447823D01*
X125345703Y-73542125D01*
X125104014Y-73590200D01*
X124857586Y-73590200D01*
X124615897Y-73542125D01*
X124388231Y-73447823D01*
X124388230Y-73447823D01*
X124388229Y-73447822D01*
X124183334Y-73310915D01*
X124009085Y-73136666D01*
X123872178Y-72931771D01*
X123777875Y-72704103D01*
X123729800Y-72462413D01*
X123729800Y-72215987D01*
X123777875Y-71974297D01*
X123872178Y-71746629D01*
X124009085Y-71541734D01*
X124183334Y-71367485D01*
X124388229Y-71230578D01*
X124615897Y-71136275D01*
X124857586Y-71088200D01*
X125104014Y-71088200D01*
X125345703Y-71136275D01*
G37*
G36*
X97405703Y-71136275D02*
G01*
X97633371Y-71230578D01*
X97838266Y-71367485D01*
X98012515Y-71541734D01*
X98149422Y-71746629D01*
X98243725Y-71974297D01*
X98291800Y-72215987D01*
X98291800Y-72462413D01*
X98243725Y-72704103D01*
X98149422Y-72931771D01*
X98012515Y-73136666D01*
X97838266Y-73310915D01*
X97633371Y-73447822D01*
X97633370Y-73447823D01*
X97633369Y-73447823D01*
X97405703Y-73542125D01*
X97164014Y-73590200D01*
X96917586Y-73590200D01*
X96675897Y-73542125D01*
X96448231Y-73447823D01*
X96448230Y-73447823D01*
X96448229Y-73447822D01*
X96243334Y-73310915D01*
X96069085Y-73136666D01*
X95932178Y-72931771D01*
X95837875Y-72704103D01*
X95789800Y-72462413D01*
X95789800Y-72215987D01*
X95837875Y-71974297D01*
X95932178Y-71746629D01*
X96069085Y-71541734D01*
X96243334Y-71367485D01*
X96448229Y-71230578D01*
X96675897Y-71136275D01*
X96917586Y-71088200D01*
X97164014Y-71088200D01*
X97405703Y-71136275D01*
G37*
G36*
X100905703Y-71136275D02*
G01*
X101133371Y-71230578D01*
X101338266Y-71367485D01*
X101512515Y-71541734D01*
X101649422Y-71746629D01*
X101743725Y-71974297D01*
X101791800Y-72215987D01*
X101791800Y-72462413D01*
X101743725Y-72704103D01*
X101649422Y-72931771D01*
X101512515Y-73136666D01*
X101338266Y-73310915D01*
X101133371Y-73447822D01*
X101133370Y-73447823D01*
X101133369Y-73447823D01*
X100905703Y-73542125D01*
X100664014Y-73590200D01*
X100417586Y-73590200D01*
X100175897Y-73542125D01*
X99948231Y-73447823D01*
X99948230Y-73447823D01*
X99948229Y-73447822D01*
X99743334Y-73310915D01*
X99569085Y-73136666D01*
X99432178Y-72931771D01*
X99337875Y-72704103D01*
X99289800Y-72462413D01*
X99289800Y-72215987D01*
X99337875Y-71974297D01*
X99432178Y-71746629D01*
X99569085Y-71541734D01*
X99743334Y-71367485D01*
X99948229Y-71230578D01*
X100175897Y-71136275D01*
X100417586Y-71088200D01*
X100664014Y-71088200D01*
X100905703Y-71136275D01*
G37*
G36*
X105291800Y-73590200D02*
G01*
X102789800Y-73590200D01*
X102789800Y-71088200D01*
X105291800Y-71088200D01*
X105291800Y-73590200D01*
G37*
G36*
X121845703Y-71136275D02*
G01*
X122073371Y-71230578D01*
X122278266Y-71367485D01*
X122452515Y-71541734D01*
X122589422Y-71746629D01*
X122683725Y-71974297D01*
X122731800Y-72215987D01*
X122731800Y-72462413D01*
X122683725Y-72704103D01*
X122589422Y-72931771D01*
X122452515Y-73136666D01*
X122278266Y-73310915D01*
X122073371Y-73447822D01*
X122073370Y-73447823D01*
X122073369Y-73447823D01*
X121845703Y-73542125D01*
X121604014Y-73590200D01*
X121357586Y-73590200D01*
X121115897Y-73542125D01*
X120888231Y-73447823D01*
X120888230Y-73447823D01*
X120888229Y-73447822D01*
X120683334Y-73310915D01*
X120509085Y-73136666D01*
X120372178Y-72931771D01*
X120277875Y-72704103D01*
X120229800Y-72462413D01*
X120229800Y-72215987D01*
X120277875Y-71974297D01*
X120372178Y-71746629D01*
X120509085Y-71541734D01*
X120683334Y-71367485D01*
X120888229Y-71230578D01*
X121115897Y-71136275D01*
X121357586Y-71088200D01*
X121604014Y-71088200D01*
X121845703Y-71136275D01*
G37*
G36*
X93905703Y-71136275D02*
G01*
X94133371Y-71230578D01*
X94338266Y-71367485D01*
X94512515Y-71541734D01*
X94649422Y-71746629D01*
X94743725Y-71974297D01*
X94791800Y-72215987D01*
X94791800Y-72462413D01*
X94743725Y-72704103D01*
X94649422Y-72931771D01*
X94512515Y-73136666D01*
X94338266Y-73310915D01*
X94133371Y-73447822D01*
X94133370Y-73447823D01*
X94133369Y-73447823D01*
X93905703Y-73542125D01*
X93664014Y-73590200D01*
X93417586Y-73590200D01*
X93175897Y-73542125D01*
X92948231Y-73447823D01*
X92948230Y-73447823D01*
X92948229Y-73447822D01*
X92743334Y-73310915D01*
X92569085Y-73136666D01*
X92432178Y-72931771D01*
X92337875Y-72704103D01*
X92289800Y-72462413D01*
X92289800Y-72215987D01*
X92337875Y-71974297D01*
X92432178Y-71746629D01*
X92569085Y-71541734D01*
X92743334Y-71367485D01*
X92948229Y-71230578D01*
X93175897Y-71136275D01*
X93417586Y-71088200D01*
X93664014Y-71088200D01*
X93905703Y-71136275D01*
G37*
G36*
X133231800Y-73590200D02*
G01*
X130729800Y-73590200D01*
X130729800Y-71088200D01*
X133231800Y-71088200D01*
X133231800Y-73590200D01*
G37*
G36*
X149785703Y-71136275D02*
G01*
X150013371Y-71230578D01*
X150218266Y-71367485D01*
X150392515Y-71541734D01*
X150529422Y-71746629D01*
X150623725Y-71974297D01*
X150671800Y-72215987D01*
X150671800Y-72462413D01*
X150623725Y-72704103D01*
X150529422Y-72931771D01*
X150392515Y-73136666D01*
X150218266Y-73310915D01*
X150013371Y-73447822D01*
X150013370Y-73447823D01*
X150013369Y-73447823D01*
X149785703Y-73542125D01*
X149544014Y-73590200D01*
X149297586Y-73590200D01*
X149055897Y-73542125D01*
X148828231Y-73447823D01*
X148828230Y-73447823D01*
X148828229Y-73447822D01*
X148623334Y-73310915D01*
X148449085Y-73136666D01*
X148312178Y-72931771D01*
X148217875Y-72704103D01*
X148169800Y-72462413D01*
X148169800Y-72215987D01*
X148217875Y-71974297D01*
X148312178Y-71746629D01*
X148449085Y-71541734D01*
X148623334Y-71367485D01*
X148828229Y-71230578D01*
X149055897Y-71136275D01*
X149297586Y-71088200D01*
X149544014Y-71088200D01*
X149785703Y-71136275D01*
G37*
G36*
X153285703Y-71136275D02*
G01*
X153513371Y-71230578D01*
X153718266Y-71367485D01*
X153892515Y-71541734D01*
X154029422Y-71746629D01*
X154123725Y-71974297D01*
X154171800Y-72215987D01*
X154171800Y-72462413D01*
X154123725Y-72704103D01*
X154029422Y-72931771D01*
X153892515Y-73136666D01*
X153718266Y-73310915D01*
X153513371Y-73447822D01*
X153513370Y-73447823D01*
X153513369Y-73447823D01*
X153285703Y-73542125D01*
X153044014Y-73590200D01*
X152797586Y-73590200D01*
X152555897Y-73542125D01*
X152328231Y-73447823D01*
X152328230Y-73447823D01*
X152328229Y-73447822D01*
X152123334Y-73310915D01*
X151949085Y-73136666D01*
X151812178Y-72931771D01*
X151717875Y-72704103D01*
X151669800Y-72462413D01*
X151669800Y-72215987D01*
X151717875Y-71974297D01*
X151812178Y-71746629D01*
X151949085Y-71541734D01*
X152123334Y-71367485D01*
X152328229Y-71230578D01*
X152555897Y-71136275D01*
X152797586Y-71088200D01*
X153044014Y-71088200D01*
X153285703Y-71136275D01*
G37*
G36*
X161171800Y-73590200D02*
G01*
X158669800Y-73590200D01*
X158669800Y-71088200D01*
X161171800Y-71088200D01*
X161171800Y-73590200D01*
G37*
G36*
X156785703Y-71136275D02*
G01*
X157013371Y-71230578D01*
X157218266Y-71367485D01*
X157392515Y-71541734D01*
X157529422Y-71746629D01*
X157623725Y-71974297D01*
X157671800Y-72215987D01*
X157671800Y-72462413D01*
X157623725Y-72704103D01*
X157529422Y-72931771D01*
X157392515Y-73136666D01*
X157218266Y-73310915D01*
X157013371Y-73447822D01*
X157013370Y-73447823D01*
X157013369Y-73447823D01*
X156785703Y-73542125D01*
X156544014Y-73590200D01*
X156297586Y-73590200D01*
X156055897Y-73542125D01*
X155828231Y-73447823D01*
X155828230Y-73447823D01*
X155828229Y-73447822D01*
X155623334Y-73310915D01*
X155449085Y-73136666D01*
X155312178Y-72931771D01*
X155217875Y-72704103D01*
X155169800Y-72462413D01*
X155169800Y-72215987D01*
X155217875Y-71974297D01*
X155312178Y-71746629D01*
X155449085Y-71541734D01*
X155623334Y-71367485D01*
X155828229Y-71230578D01*
X156055897Y-71136275D01*
X156297586Y-71088200D01*
X156544014Y-71088200D01*
X156785703Y-71136275D01*
G37*
G36*
X128845703Y-71136275D02*
G01*
X129073371Y-71230578D01*
X129278266Y-71367485D01*
X129452515Y-71541734D01*
X129589422Y-71746629D01*
X129683725Y-71974297D01*
X129731800Y-72215987D01*
X129731800Y-72462413D01*
X129683725Y-72704103D01*
X129589422Y-72931771D01*
X129452515Y-73136666D01*
X129278266Y-73310915D01*
X129073371Y-73447822D01*
X129073370Y-73447823D01*
X129073369Y-73447823D01*
X128845703Y-73542125D01*
X128604014Y-73590200D01*
X128357586Y-73590200D01*
X128115897Y-73542125D01*
X127888231Y-73447823D01*
X127888230Y-73447823D01*
X127888229Y-73447822D01*
X127683334Y-73310915D01*
X127509085Y-73136666D01*
X127372178Y-72931771D01*
X127277875Y-72704103D01*
X127229800Y-72462413D01*
X127229800Y-72215987D01*
X127277875Y-71974297D01*
X127372178Y-71746629D01*
X127509085Y-71541734D01*
X127683334Y-71367485D01*
X127888229Y-71230578D01*
X128115897Y-71136275D01*
X128357586Y-71088200D01*
X128604014Y-71088200D01*
X128845703Y-71136275D01*
G37*
G36*
X88933385Y-70498002D02*
G01*
X89083210Y-70527804D01*
X89365474Y-70644721D01*
X89619505Y-70814459D01*
X89835541Y-71030495D01*
X90005279Y-71284526D01*
X90111818Y-71541736D01*
X90122196Y-71566791D01*
X90181800Y-71866439D01*
X90181800Y-72171961D01*
X90151998Y-72321785D01*
X90122196Y-72471610D01*
X90005279Y-72753874D01*
X89835541Y-73007905D01*
X89619505Y-73223941D01*
X89365474Y-73393679D01*
X89083210Y-73510596D01*
X88933385Y-73540398D01*
X88783561Y-73570200D01*
X88478039Y-73570200D01*
X88328215Y-73540398D01*
X88178390Y-73510596D01*
X87896126Y-73393679D01*
X87642095Y-73223941D01*
X87426059Y-73007905D01*
X87256321Y-72753874D01*
X87139404Y-72471610D01*
X87109602Y-72321785D01*
X87079800Y-72171961D01*
X87079800Y-71866439D01*
X87139404Y-71566791D01*
X87149782Y-71541736D01*
X87256321Y-71284526D01*
X87426059Y-71030495D01*
X87642095Y-70814459D01*
X87896126Y-70644721D01*
X88178390Y-70527804D01*
X88328215Y-70498002D01*
X88478039Y-70468200D01*
X88783561Y-70468200D01*
X88933385Y-70498002D01*
G37*
G36*
X165133385Y-70498002D02*
G01*
X165283210Y-70527804D01*
X165565474Y-70644721D01*
X165819505Y-70814459D01*
X166035541Y-71030495D01*
X166205279Y-71284526D01*
X166311818Y-71541736D01*
X166322196Y-71566791D01*
X166381800Y-71866439D01*
X166381800Y-72171961D01*
X166351998Y-72321785D01*
X166322196Y-72471610D01*
X166205279Y-72753874D01*
X166035541Y-73007905D01*
X165819505Y-73223941D01*
X165565474Y-73393679D01*
X165283210Y-73510596D01*
X165133385Y-73540398D01*
X164983561Y-73570200D01*
X164678039Y-73570200D01*
X164528215Y-73540398D01*
X164378390Y-73510596D01*
X164096126Y-73393679D01*
X163842095Y-73223941D01*
X163626059Y-73007905D01*
X163456321Y-72753874D01*
X163339404Y-72471610D01*
X163309602Y-72321785D01*
X163279800Y-72171961D01*
X163279800Y-71866439D01*
X163339404Y-71566791D01*
X163349782Y-71541736D01*
X163456321Y-71284526D01*
X163626059Y-71030495D01*
X163842095Y-70814459D01*
X164096126Y-70644721D01*
X164378390Y-70527804D01*
X164528215Y-70498002D01*
X164678039Y-70468200D01*
X164983561Y-70468200D01*
X165133385Y-70498002D01*
G37*
G36*
X144813385Y-70498002D02*
G01*
X144963210Y-70527804D01*
X145245474Y-70644721D01*
X145499505Y-70814459D01*
X145715541Y-71030495D01*
X145885279Y-71284526D01*
X145991818Y-71541736D01*
X146002196Y-71566791D01*
X146061800Y-71866439D01*
X146061800Y-72171961D01*
X146031998Y-72321785D01*
X146002196Y-72471610D01*
X145885279Y-72753874D01*
X145715541Y-73007905D01*
X145499505Y-73223941D01*
X145245474Y-73393679D01*
X144963210Y-73510596D01*
X144813385Y-73540398D01*
X144663561Y-73570200D01*
X144358039Y-73570200D01*
X144208215Y-73540398D01*
X144058390Y-73510596D01*
X143776126Y-73393679D01*
X143522095Y-73223941D01*
X143306059Y-73007905D01*
X143136321Y-72753874D01*
X143019404Y-72471610D01*
X142989602Y-72321785D01*
X142959800Y-72171961D01*
X142959800Y-71866439D01*
X143019404Y-71566791D01*
X143029782Y-71541736D01*
X143136321Y-71284526D01*
X143306059Y-71030495D01*
X143522095Y-70814459D01*
X143776126Y-70644721D01*
X144058390Y-70527804D01*
X144208215Y-70498002D01*
X144358039Y-70468200D01*
X144663561Y-70468200D01*
X144813385Y-70498002D01*
G37*
G36*
X137193385Y-70498002D02*
G01*
X137343210Y-70527804D01*
X137625474Y-70644721D01*
X137879505Y-70814459D01*
X138095541Y-71030495D01*
X138265279Y-71284526D01*
X138371818Y-71541736D01*
X138382196Y-71566791D01*
X138441800Y-71866439D01*
X138441800Y-72171961D01*
X138411998Y-72321785D01*
X138382196Y-72471610D01*
X138265279Y-72753874D01*
X138095541Y-73007905D01*
X137879505Y-73223941D01*
X137625474Y-73393679D01*
X137343210Y-73510596D01*
X137193385Y-73540398D01*
X137043561Y-73570200D01*
X136738039Y-73570200D01*
X136588215Y-73540398D01*
X136438390Y-73510596D01*
X136156126Y-73393679D01*
X135902095Y-73223941D01*
X135686059Y-73007905D01*
X135516321Y-72753874D01*
X135399404Y-72471610D01*
X135369602Y-72321785D01*
X135339800Y-72171961D01*
X135339800Y-71866439D01*
X135399404Y-71566791D01*
X135409782Y-71541736D01*
X135516321Y-71284526D01*
X135686059Y-71030495D01*
X135902095Y-70814459D01*
X136156126Y-70644721D01*
X136438390Y-70527804D01*
X136588215Y-70498002D01*
X136738039Y-70468200D01*
X137043561Y-70468200D01*
X137193385Y-70498002D01*
G37*
G36*
X116873385Y-70498002D02*
G01*
X117023210Y-70527804D01*
X117305474Y-70644721D01*
X117559505Y-70814459D01*
X117775541Y-71030495D01*
X117945279Y-71284526D01*
X118051818Y-71541736D01*
X118062196Y-71566791D01*
X118121800Y-71866439D01*
X118121800Y-72171961D01*
X118091998Y-72321785D01*
X118062196Y-72471610D01*
X117945279Y-72753874D01*
X117775541Y-73007905D01*
X117559505Y-73223941D01*
X117305474Y-73393679D01*
X117023210Y-73510596D01*
X116873385Y-73540398D01*
X116723561Y-73570200D01*
X116418039Y-73570200D01*
X116268215Y-73540398D01*
X116118390Y-73510596D01*
X115836126Y-73393679D01*
X115582095Y-73223941D01*
X115366059Y-73007905D01*
X115196321Y-72753874D01*
X115079404Y-72471610D01*
X115049602Y-72321785D01*
X115019800Y-72171961D01*
X115019800Y-71866439D01*
X115079404Y-71566791D01*
X115089782Y-71541736D01*
X115196321Y-71284526D01*
X115366059Y-71030495D01*
X115582095Y-70814459D01*
X115836126Y-70644721D01*
X116118390Y-70527804D01*
X116268215Y-70498002D01*
X116418039Y-70468200D01*
X116723561Y-70468200D01*
X116873385Y-70498002D01*
G37*
G36*
X109253385Y-70498002D02*
G01*
X109403210Y-70527804D01*
X109685474Y-70644721D01*
X109939505Y-70814459D01*
X110155541Y-71030495D01*
X110325279Y-71284526D01*
X110431818Y-71541736D01*
X110442196Y-71566791D01*
X110501800Y-71866439D01*
X110501800Y-72171961D01*
X110471998Y-72321785D01*
X110442196Y-72471610D01*
X110325279Y-72753874D01*
X110155541Y-73007905D01*
X109939505Y-73223941D01*
X109685474Y-73393679D01*
X109403210Y-73510596D01*
X109253385Y-73540398D01*
X109103561Y-73570200D01*
X108798039Y-73570200D01*
X108648215Y-73540398D01*
X108498390Y-73510596D01*
X108216126Y-73393679D01*
X107962095Y-73223941D01*
X107746059Y-73007905D01*
X107576321Y-72753874D01*
X107459404Y-72471610D01*
X107429602Y-72321785D01*
X107399800Y-72171961D01*
X107399800Y-71866439D01*
X107459404Y-71566791D01*
X107469782Y-71541736D01*
X107576321Y-71284526D01*
X107746059Y-71030495D01*
X107962095Y-70814459D01*
X108216126Y-70644721D01*
X108498390Y-70527804D01*
X108648215Y-70498002D01*
X108798039Y-70468200D01*
X109103561Y-70468200D01*
X109253385Y-70498002D01*
G37*
G36*
X165124703Y-62876275D02*
G01*
X165283210Y-62907804D01*
X165565474Y-63024721D01*
X165819505Y-63194459D01*
X166035541Y-63410495D01*
X166205279Y-63664526D01*
X166322196Y-63946790D01*
X166322196Y-63946791D01*
X166373043Y-64202413D01*
X166381800Y-64246440D01*
X166381800Y-64551960D01*
X166322196Y-64851610D01*
X166205279Y-65133874D01*
X166035541Y-65387905D01*
X165819505Y-65603941D01*
X165565474Y-65773679D01*
X165283210Y-65890596D01*
X165133385Y-65920398D01*
X164983561Y-65950200D01*
X164678039Y-65950200D01*
X164528215Y-65920398D01*
X164378390Y-65890596D01*
X164096126Y-65773679D01*
X163842095Y-65603941D01*
X163626059Y-65387905D01*
X163456321Y-65133874D01*
X163339404Y-64851610D01*
X163279800Y-64551960D01*
X163279800Y-64246440D01*
X163288558Y-64202413D01*
X163339404Y-63946791D01*
X163339404Y-63946790D01*
X163456321Y-63664526D01*
X163626059Y-63410495D01*
X163842095Y-63194459D01*
X164096126Y-63024721D01*
X164378390Y-62907804D01*
X164536897Y-62876275D01*
X164678039Y-62848200D01*
X164983561Y-62848200D01*
X165124703Y-62876275D01*
G37*
G36*
X116864703Y-62876275D02*
G01*
X117023210Y-62907804D01*
X117305474Y-63024721D01*
X117559505Y-63194459D01*
X117775541Y-63410495D01*
X117945279Y-63664526D01*
X118062196Y-63946790D01*
X118062196Y-63946791D01*
X118113043Y-64202413D01*
X118121800Y-64246440D01*
X118121800Y-64551960D01*
X118062196Y-64851610D01*
X117945279Y-65133874D01*
X117775541Y-65387905D01*
X117559505Y-65603941D01*
X117305474Y-65773679D01*
X117023210Y-65890596D01*
X116873385Y-65920398D01*
X116723561Y-65950200D01*
X116418039Y-65950200D01*
X116268215Y-65920398D01*
X116118390Y-65890596D01*
X115836126Y-65773679D01*
X115582095Y-65603941D01*
X115366059Y-65387905D01*
X115196321Y-65133874D01*
X115079404Y-64851610D01*
X115019800Y-64551960D01*
X115019800Y-64246440D01*
X115028558Y-64202413D01*
X115079404Y-63946791D01*
X115079404Y-63946790D01*
X115196321Y-63664526D01*
X115366059Y-63410495D01*
X115582095Y-63194459D01*
X115836126Y-63024721D01*
X116118390Y-62907804D01*
X116276897Y-62876275D01*
X116418039Y-62848200D01*
X116723561Y-62848200D01*
X116864703Y-62876275D01*
G37*
G36*
X144804703Y-62876275D02*
G01*
X144963210Y-62907804D01*
X145245474Y-63024721D01*
X145499505Y-63194459D01*
X145715541Y-63410495D01*
X145885279Y-63664526D01*
X146002196Y-63946790D01*
X146002196Y-63946791D01*
X146053043Y-64202413D01*
X146061800Y-64246440D01*
X146061800Y-64551960D01*
X146002196Y-64851610D01*
X145885279Y-65133874D01*
X145715541Y-65387905D01*
X145499505Y-65603941D01*
X145245474Y-65773679D01*
X144963210Y-65890596D01*
X144813385Y-65920398D01*
X144663561Y-65950200D01*
X144358039Y-65950200D01*
X144208215Y-65920398D01*
X144058390Y-65890596D01*
X143776126Y-65773679D01*
X143522095Y-65603941D01*
X143306059Y-65387905D01*
X143136321Y-65133874D01*
X143019404Y-64851610D01*
X142959800Y-64551960D01*
X142959800Y-64246440D01*
X142968558Y-64202413D01*
X143019404Y-63946791D01*
X143019404Y-63946790D01*
X143136321Y-63664526D01*
X143306059Y-63410495D01*
X143522095Y-63194459D01*
X143776126Y-63024721D01*
X144058390Y-62907804D01*
X144216897Y-62876275D01*
X144358039Y-62848200D01*
X144663561Y-62848200D01*
X144804703Y-62876275D01*
G37*
G36*
X88924703Y-62876275D02*
G01*
X89083210Y-62907804D01*
X89365474Y-63024721D01*
X89619505Y-63194459D01*
X89835541Y-63410495D01*
X90005279Y-63664526D01*
X90122196Y-63946790D01*
X90122196Y-63946791D01*
X90173043Y-64202413D01*
X90181800Y-64246440D01*
X90181800Y-64551960D01*
X90122196Y-64851610D01*
X90005279Y-65133874D01*
X89835541Y-65387905D01*
X89619505Y-65603941D01*
X89365474Y-65773679D01*
X89083210Y-65890596D01*
X88933385Y-65920398D01*
X88783561Y-65950200D01*
X88478039Y-65950200D01*
X88328215Y-65920398D01*
X88178390Y-65890596D01*
X87896126Y-65773679D01*
X87642095Y-65603941D01*
X87426059Y-65387905D01*
X87256321Y-65133874D01*
X87139404Y-64851610D01*
X87079800Y-64551960D01*
X87079800Y-64246440D01*
X87088558Y-64202413D01*
X87139404Y-63946791D01*
X87139404Y-63946790D01*
X87256321Y-63664526D01*
X87426059Y-63410495D01*
X87642095Y-63194459D01*
X87896126Y-63024721D01*
X88178390Y-62907804D01*
X88336897Y-62876275D01*
X88478039Y-62848200D01*
X88783561Y-62848200D01*
X88924703Y-62876275D01*
G37*
G36*
X109244703Y-62876275D02*
G01*
X109403210Y-62907804D01*
X109685474Y-63024721D01*
X109939505Y-63194459D01*
X110155541Y-63410495D01*
X110325279Y-63664526D01*
X110442196Y-63946790D01*
X110442196Y-63946791D01*
X110493043Y-64202413D01*
X110501800Y-64246440D01*
X110501800Y-64551960D01*
X110442196Y-64851610D01*
X110325279Y-65133874D01*
X110155541Y-65387905D01*
X109939505Y-65603941D01*
X109685474Y-65773679D01*
X109403210Y-65890596D01*
X109253385Y-65920398D01*
X109103561Y-65950200D01*
X108798039Y-65950200D01*
X108648215Y-65920398D01*
X108498390Y-65890596D01*
X108216126Y-65773679D01*
X107962095Y-65603941D01*
X107746059Y-65387905D01*
X107576321Y-65133874D01*
X107459404Y-64851610D01*
X107399800Y-64551960D01*
X107399800Y-64246440D01*
X107408558Y-64202413D01*
X107459404Y-63946791D01*
X107459404Y-63946790D01*
X107576321Y-63664526D01*
X107746059Y-63410495D01*
X107962095Y-63194459D01*
X108216126Y-63024721D01*
X108498390Y-62907804D01*
X108656897Y-62876275D01*
X108798039Y-62848200D01*
X109103561Y-62848200D01*
X109244703Y-62876275D01*
G37*
G36*
X137184703Y-62876275D02*
G01*
X137343210Y-62907804D01*
X137625474Y-63024721D01*
X137879505Y-63194459D01*
X138095541Y-63410495D01*
X138265279Y-63664526D01*
X138382196Y-63946790D01*
X138382196Y-63946791D01*
X138433043Y-64202413D01*
X138441800Y-64246440D01*
X138441800Y-64551960D01*
X138382196Y-64851610D01*
X138265279Y-65133874D01*
X138095541Y-65387905D01*
X137879505Y-65603941D01*
X137625474Y-65773679D01*
X137343210Y-65890596D01*
X137193385Y-65920398D01*
X137043561Y-65950200D01*
X136738039Y-65950200D01*
X136588215Y-65920398D01*
X136438390Y-65890596D01*
X136156126Y-65773679D01*
X135902095Y-65603941D01*
X135686059Y-65387905D01*
X135516321Y-65133874D01*
X135399404Y-64851610D01*
X135339800Y-64551960D01*
X135339800Y-64246440D01*
X135348558Y-64202413D01*
X135399404Y-63946791D01*
X135399404Y-63946790D01*
X135516321Y-63664526D01*
X135686059Y-63410495D01*
X135902095Y-63194459D01*
X136156126Y-63024721D01*
X136438390Y-62907804D01*
X136596897Y-62876275D01*
X136738039Y-62848200D01*
X137043561Y-62848200D01*
X137184703Y-62876275D01*
G37*
G36*
X153285703Y-62876275D02*
G01*
X153513371Y-62970578D01*
X153718266Y-63107485D01*
X153892515Y-63281734D01*
X154029422Y-63486629D01*
X154123725Y-63714297D01*
X154171800Y-63955987D01*
X154171800Y-64202413D01*
X154123725Y-64444103D01*
X154029422Y-64671771D01*
X153892515Y-64876666D01*
X153718266Y-65050915D01*
X153513371Y-65187822D01*
X153513370Y-65187823D01*
X153513369Y-65187823D01*
X153285703Y-65282125D01*
X153044014Y-65330200D01*
X152797586Y-65330200D01*
X152555897Y-65282125D01*
X152328231Y-65187823D01*
X152328230Y-65187823D01*
X152328229Y-65187822D01*
X152123334Y-65050915D01*
X151949085Y-64876666D01*
X151812178Y-64671771D01*
X151717875Y-64444103D01*
X151669800Y-64202413D01*
X151669800Y-63955987D01*
X151717875Y-63714297D01*
X151812178Y-63486629D01*
X151949085Y-63281734D01*
X152123334Y-63107485D01*
X152328229Y-62970578D01*
X152555897Y-62876275D01*
X152797586Y-62828200D01*
X153044014Y-62828200D01*
X153285703Y-62876275D01*
G37*
G36*
X156785703Y-62876275D02*
G01*
X157013371Y-62970578D01*
X157218266Y-63107485D01*
X157392515Y-63281734D01*
X157529422Y-63486629D01*
X157623725Y-63714297D01*
X157671800Y-63955987D01*
X157671800Y-64202413D01*
X157623725Y-64444103D01*
X157529422Y-64671771D01*
X157392515Y-64876666D01*
X157218266Y-65050915D01*
X157013371Y-65187822D01*
X157013370Y-65187823D01*
X157013369Y-65187823D01*
X156785703Y-65282125D01*
X156544014Y-65330200D01*
X156297586Y-65330200D01*
X156055897Y-65282125D01*
X155828231Y-65187823D01*
X155828230Y-65187823D01*
X155828229Y-65187822D01*
X155623334Y-65050915D01*
X155449085Y-64876666D01*
X155312178Y-64671771D01*
X155217875Y-64444103D01*
X155169800Y-64202413D01*
X155169800Y-63955987D01*
X155217875Y-63714297D01*
X155312178Y-63486629D01*
X155449085Y-63281734D01*
X155623334Y-63107485D01*
X155828229Y-62970578D01*
X156055897Y-62876275D01*
X156297586Y-62828200D01*
X156544014Y-62828200D01*
X156785703Y-62876275D01*
G37*
G36*
X132345703Y-62876275D02*
G01*
X132573371Y-62970578D01*
X132778266Y-63107485D01*
X132952515Y-63281734D01*
X133089422Y-63486629D01*
X133183725Y-63714297D01*
X133231800Y-63955987D01*
X133231800Y-64202413D01*
X133183725Y-64444103D01*
X133089422Y-64671771D01*
X132952515Y-64876666D01*
X132778266Y-65050915D01*
X132573371Y-65187822D01*
X132573370Y-65187823D01*
X132573369Y-65187823D01*
X132345703Y-65282125D01*
X132104014Y-65330200D01*
X131857586Y-65330200D01*
X131615897Y-65282125D01*
X131388231Y-65187823D01*
X131388230Y-65187823D01*
X131388229Y-65187822D01*
X131183334Y-65050915D01*
X131009085Y-64876666D01*
X130872178Y-64671771D01*
X130777875Y-64444103D01*
X130729800Y-64202413D01*
X130729800Y-63955987D01*
X130777875Y-63714297D01*
X130872178Y-63486629D01*
X131009085Y-63281734D01*
X131183334Y-63107485D01*
X131388229Y-62970578D01*
X131615897Y-62876275D01*
X131857586Y-62828200D01*
X132104014Y-62828200D01*
X132345703Y-62876275D01*
G37*
G36*
X160285703Y-62876275D02*
G01*
X160513371Y-62970578D01*
X160718266Y-63107485D01*
X160892515Y-63281734D01*
X161029422Y-63486629D01*
X161123725Y-63714297D01*
X161171800Y-63955987D01*
X161171800Y-64202413D01*
X161123725Y-64444103D01*
X161029422Y-64671771D01*
X160892515Y-64876666D01*
X160718266Y-65050915D01*
X160513371Y-65187822D01*
X160513370Y-65187823D01*
X160513369Y-65187823D01*
X160285703Y-65282125D01*
X160044014Y-65330200D01*
X159797586Y-65330200D01*
X159555897Y-65282125D01*
X159328231Y-65187823D01*
X159328230Y-65187823D01*
X159328229Y-65187822D01*
X159123334Y-65050915D01*
X158949085Y-64876666D01*
X158812178Y-64671771D01*
X158717875Y-64444103D01*
X158669800Y-64202413D01*
X158669800Y-63955987D01*
X158717875Y-63714297D01*
X158812178Y-63486629D01*
X158949085Y-63281734D01*
X159123334Y-63107485D01*
X159328229Y-62970578D01*
X159555897Y-62876275D01*
X159797586Y-62828200D01*
X160044014Y-62828200D01*
X160285703Y-62876275D01*
G37*
G36*
X150671800Y-65330200D02*
G01*
X148169800Y-65330200D01*
X148169800Y-62828200D01*
X150671800Y-62828200D01*
X150671800Y-65330200D01*
G37*
G36*
X97405703Y-62876275D02*
G01*
X97633371Y-62970578D01*
X97838266Y-63107485D01*
X98012515Y-63281734D01*
X98149422Y-63486629D01*
X98243725Y-63714297D01*
X98291800Y-63955987D01*
X98291800Y-64202413D01*
X98243725Y-64444103D01*
X98149422Y-64671771D01*
X98012515Y-64876666D01*
X97838266Y-65050915D01*
X97633371Y-65187822D01*
X97633370Y-65187823D01*
X97633369Y-65187823D01*
X97405703Y-65282125D01*
X97164014Y-65330200D01*
X96917586Y-65330200D01*
X96675897Y-65282125D01*
X96448231Y-65187823D01*
X96448230Y-65187823D01*
X96448229Y-65187822D01*
X96243334Y-65050915D01*
X96069085Y-64876666D01*
X95932178Y-64671771D01*
X95837875Y-64444103D01*
X95789800Y-64202413D01*
X95789800Y-63955987D01*
X95837875Y-63714297D01*
X95932178Y-63486629D01*
X96069085Y-63281734D01*
X96243334Y-63107485D01*
X96448229Y-62970578D01*
X96675897Y-62876275D01*
X96917586Y-62828200D01*
X97164014Y-62828200D01*
X97405703Y-62876275D01*
G37*
G36*
X104405703Y-62876275D02*
G01*
X104633371Y-62970578D01*
X104838266Y-63107485D01*
X105012515Y-63281734D01*
X105149422Y-63486629D01*
X105243725Y-63714297D01*
X105291800Y-63955987D01*
X105291800Y-64202413D01*
X105243725Y-64444103D01*
X105149422Y-64671771D01*
X105012515Y-64876666D01*
X104838266Y-65050915D01*
X104633371Y-65187822D01*
X104633370Y-65187823D01*
X104633369Y-65187823D01*
X104405703Y-65282125D01*
X104164014Y-65330200D01*
X103917586Y-65330200D01*
X103675897Y-65282125D01*
X103448231Y-65187823D01*
X103448230Y-65187823D01*
X103448229Y-65187822D01*
X103243334Y-65050915D01*
X103069085Y-64876666D01*
X102932178Y-64671771D01*
X102837875Y-64444103D01*
X102789800Y-64202413D01*
X102789800Y-63955987D01*
X102837875Y-63714297D01*
X102932178Y-63486629D01*
X103069085Y-63281734D01*
X103243334Y-63107485D01*
X103448229Y-62970578D01*
X103675897Y-62876275D01*
X103917586Y-62828200D01*
X104164014Y-62828200D01*
X104405703Y-62876275D01*
G37*
G36*
X122731800Y-65330200D02*
G01*
X120229800Y-65330200D01*
X120229800Y-62828200D01*
X122731800Y-62828200D01*
X122731800Y-65330200D01*
G37*
G36*
X125345703Y-62876275D02*
G01*
X125573371Y-62970578D01*
X125778266Y-63107485D01*
X125952515Y-63281734D01*
X126089422Y-63486629D01*
X126183725Y-63714297D01*
X126231800Y-63955987D01*
X126231800Y-64202413D01*
X126183725Y-64444103D01*
X126089422Y-64671771D01*
X125952515Y-64876666D01*
X125778266Y-65050915D01*
X125573371Y-65187822D01*
X125573370Y-65187823D01*
X125573369Y-65187823D01*
X125345703Y-65282125D01*
X125104014Y-65330200D01*
X124857586Y-65330200D01*
X124615897Y-65282125D01*
X124388231Y-65187823D01*
X124388230Y-65187823D01*
X124388229Y-65187822D01*
X124183334Y-65050915D01*
X124009085Y-64876666D01*
X123872178Y-64671771D01*
X123777875Y-64444103D01*
X123729800Y-64202413D01*
X123729800Y-63955987D01*
X123777875Y-63714297D01*
X123872178Y-63486629D01*
X124009085Y-63281734D01*
X124183334Y-63107485D01*
X124388229Y-62970578D01*
X124615897Y-62876275D01*
X124857586Y-62828200D01*
X125104014Y-62828200D01*
X125345703Y-62876275D01*
G37*
G36*
X94791800Y-65330200D02*
G01*
X92289800Y-65330200D01*
X92289800Y-62828200D01*
X94791800Y-62828200D01*
X94791800Y-65330200D01*
G37*
G36*
X128845703Y-62876275D02*
G01*
X129073371Y-62970578D01*
X129278266Y-63107485D01*
X129452515Y-63281734D01*
X129589422Y-63486629D01*
X129683725Y-63714297D01*
X129731800Y-63955987D01*
X129731800Y-64202413D01*
X129683725Y-64444103D01*
X129589422Y-64671771D01*
X129452515Y-64876666D01*
X129278266Y-65050915D01*
X129073371Y-65187822D01*
X129073370Y-65187823D01*
X129073369Y-65187823D01*
X128845703Y-65282125D01*
X128604014Y-65330200D01*
X128357586Y-65330200D01*
X128115897Y-65282125D01*
X127888231Y-65187823D01*
X127888230Y-65187823D01*
X127888229Y-65187822D01*
X127683334Y-65050915D01*
X127509085Y-64876666D01*
X127372178Y-64671771D01*
X127277875Y-64444103D01*
X127229800Y-64202413D01*
X127229800Y-63955987D01*
X127277875Y-63714297D01*
X127372178Y-63486629D01*
X127509085Y-63281734D01*
X127683334Y-63107485D01*
X127888229Y-62970578D01*
X128115897Y-62876275D01*
X128357586Y-62828200D01*
X128604014Y-62828200D01*
X128845703Y-62876275D01*
G37*
G36*
X100905703Y-62876275D02*
G01*
X101133371Y-62970578D01*
X101338266Y-63107485D01*
X101512515Y-63281734D01*
X101649422Y-63486629D01*
X101743725Y-63714297D01*
X101791800Y-63955987D01*
X101791800Y-64202413D01*
X101743725Y-64444103D01*
X101649422Y-64671771D01*
X101512515Y-64876666D01*
X101338266Y-65050915D01*
X101133371Y-65187822D01*
X101133370Y-65187823D01*
X101133369Y-65187823D01*
X100905703Y-65282125D01*
X100664014Y-65330200D01*
X100417586Y-65330200D01*
X100175897Y-65282125D01*
X99948231Y-65187823D01*
X99948230Y-65187823D01*
X99948229Y-65187822D01*
X99743334Y-65050915D01*
X99569085Y-64876666D01*
X99432178Y-64671771D01*
X99337875Y-64444103D01*
X99289800Y-64202413D01*
X99289800Y-63955987D01*
X99337875Y-63714297D01*
X99432178Y-63486629D01*
X99569085Y-63281734D01*
X99743334Y-63107485D01*
X99948229Y-62970578D01*
X100175897Y-62876275D01*
X100417586Y-62828200D01*
X100664014Y-62828200D01*
X100905703Y-62876275D01*
G37*
G36*
X137270193Y-58068504D02*
G01*
X137506901Y-58166552D01*
X137506903Y-58166553D01*
X137719935Y-58308896D01*
X137901104Y-58490065D01*
X138043447Y-58703097D01*
X138043448Y-58703099D01*
X138141496Y-58939807D01*
X138191480Y-59191093D01*
X138191480Y-59447307D01*
X138141496Y-59698593D01*
X138043448Y-59935301D01*
X138043447Y-59935303D01*
X137901104Y-60148335D01*
X137719935Y-60329504D01*
X137506903Y-60471847D01*
X137506902Y-60471848D01*
X137506901Y-60471848D01*
X137270193Y-60569896D01*
X137018907Y-60619880D01*
X136762693Y-60619880D01*
X136511407Y-60569896D01*
X136274699Y-60471848D01*
X136274698Y-60471848D01*
X136274697Y-60471847D01*
X136061665Y-60329504D01*
X135880496Y-60148335D01*
X135738153Y-59935303D01*
X135738152Y-59935301D01*
X135640104Y-59698593D01*
X135590120Y-59447307D01*
X135590120Y-59191093D01*
X135640104Y-58939807D01*
X135738152Y-58703099D01*
X135738153Y-58703097D01*
X135880496Y-58490065D01*
X136061665Y-58308896D01*
X136274697Y-58166553D01*
X136274699Y-58166552D01*
X136511407Y-58068504D01*
X136762693Y-58018520D01*
X137018907Y-58018520D01*
X137270193Y-58068504D01*
G37*
G36*
X89010193Y-58068504D02*
G01*
X89246901Y-58166552D01*
X89246903Y-58166553D01*
X89459935Y-58308896D01*
X89641104Y-58490065D01*
X89783447Y-58703097D01*
X89783448Y-58703099D01*
X89881496Y-58939807D01*
X89931480Y-59191093D01*
X89931480Y-59447307D01*
X89881496Y-59698593D01*
X89783448Y-59935301D01*
X89783447Y-59935303D01*
X89641104Y-60148335D01*
X89459935Y-60329504D01*
X89246903Y-60471847D01*
X89246902Y-60471848D01*
X89246901Y-60471848D01*
X89010193Y-60569896D01*
X88758907Y-60619880D01*
X88502693Y-60619880D01*
X88251407Y-60569896D01*
X88014699Y-60471848D01*
X88014698Y-60471848D01*
X88014697Y-60471847D01*
X87801665Y-60329504D01*
X87620496Y-60148335D01*
X87478153Y-59935303D01*
X87478152Y-59935301D01*
X87380104Y-59698593D01*
X87330120Y-59447307D01*
X87330120Y-59191093D01*
X87380104Y-58939807D01*
X87478152Y-58703099D01*
X87478153Y-58703097D01*
X87620496Y-58490065D01*
X87801665Y-58308896D01*
X88014697Y-58166553D01*
X88014699Y-58166552D01*
X88251407Y-58068504D01*
X88502693Y-58018520D01*
X88758907Y-58018520D01*
X89010193Y-58068504D01*
G37*
G36*
X109330193Y-58068504D02*
G01*
X109566901Y-58166552D01*
X109566903Y-58166553D01*
X109779935Y-58308896D01*
X109961104Y-58490065D01*
X110103447Y-58703097D01*
X110103448Y-58703099D01*
X110201496Y-58939807D01*
X110251480Y-59191093D01*
X110251480Y-59447307D01*
X110201496Y-59698593D01*
X110103448Y-59935301D01*
X110103447Y-59935303D01*
X109961104Y-60148335D01*
X109779935Y-60329504D01*
X109566903Y-60471847D01*
X109566902Y-60471848D01*
X109566901Y-60471848D01*
X109330193Y-60569896D01*
X109078907Y-60619880D01*
X108822693Y-60619880D01*
X108571407Y-60569896D01*
X108334699Y-60471848D01*
X108334698Y-60471848D01*
X108334697Y-60471847D01*
X108121665Y-60329504D01*
X107940496Y-60148335D01*
X107798153Y-59935303D01*
X107798152Y-59935301D01*
X107700104Y-59698593D01*
X107650120Y-59447307D01*
X107650120Y-59191093D01*
X107700104Y-58939807D01*
X107798152Y-58703099D01*
X107798153Y-58703097D01*
X107940496Y-58490065D01*
X108121665Y-58308896D01*
X108334697Y-58166553D01*
X108334699Y-58166552D01*
X108571407Y-58068504D01*
X108822693Y-58018520D01*
X109078907Y-58018520D01*
X109330193Y-58068504D01*
G37*
G36*
X144890193Y-58068504D02*
G01*
X145126901Y-58166552D01*
X145126903Y-58166553D01*
X145339935Y-58308896D01*
X145521104Y-58490065D01*
X145663447Y-58703097D01*
X145663448Y-58703099D01*
X145761496Y-58939807D01*
X145811480Y-59191093D01*
X145811480Y-59447307D01*
X145761496Y-59698593D01*
X145663448Y-59935301D01*
X145663447Y-59935303D01*
X145521104Y-60148335D01*
X145339935Y-60329504D01*
X145126903Y-60471847D01*
X145126902Y-60471848D01*
X145126901Y-60471848D01*
X144890193Y-60569896D01*
X144638907Y-60619880D01*
X144382693Y-60619880D01*
X144131407Y-60569896D01*
X143894699Y-60471848D01*
X143894698Y-60471848D01*
X143894697Y-60471847D01*
X143681665Y-60329504D01*
X143500496Y-60148335D01*
X143358153Y-59935303D01*
X143358152Y-59935301D01*
X143260104Y-59698593D01*
X143210120Y-59447307D01*
X143210120Y-59191093D01*
X143260104Y-58939807D01*
X143358152Y-58703099D01*
X143358153Y-58703097D01*
X143500496Y-58490065D01*
X143681665Y-58308896D01*
X143894697Y-58166553D01*
X143894699Y-58166552D01*
X144131407Y-58068504D01*
X144382693Y-58018520D01*
X144638907Y-58018520D01*
X144890193Y-58068504D01*
G37*
G36*
X116950193Y-58068504D02*
G01*
X117186901Y-58166552D01*
X117186903Y-58166553D01*
X117399935Y-58308896D01*
X117581104Y-58490065D01*
X117723447Y-58703097D01*
X117723448Y-58703099D01*
X117821496Y-58939807D01*
X117871480Y-59191093D01*
X117871480Y-59447307D01*
X117821496Y-59698593D01*
X117723448Y-59935301D01*
X117723447Y-59935303D01*
X117581104Y-60148335D01*
X117399935Y-60329504D01*
X117186903Y-60471847D01*
X117186902Y-60471848D01*
X117186901Y-60471848D01*
X116950193Y-60569896D01*
X116698907Y-60619880D01*
X116442693Y-60619880D01*
X116191407Y-60569896D01*
X115954699Y-60471848D01*
X115954698Y-60471848D01*
X115954697Y-60471847D01*
X115741665Y-60329504D01*
X115560496Y-60148335D01*
X115418153Y-59935303D01*
X115418152Y-59935301D01*
X115320104Y-59698593D01*
X115270120Y-59447307D01*
X115270120Y-59191093D01*
X115320104Y-58939807D01*
X115418152Y-58703099D01*
X115418153Y-58703097D01*
X115560496Y-58490065D01*
X115741665Y-58308896D01*
X115954697Y-58166553D01*
X115954699Y-58166552D01*
X116191407Y-58068504D01*
X116442693Y-58018520D01*
X116698907Y-58018520D01*
X116950193Y-58068504D01*
G37*
G36*
X165210193Y-58068504D02*
G01*
X165446901Y-58166552D01*
X165446903Y-58166553D01*
X165659935Y-58308896D01*
X165841104Y-58490065D01*
X165983447Y-58703097D01*
X165983448Y-58703099D01*
X166081496Y-58939807D01*
X166131480Y-59191093D01*
X166131480Y-59447307D01*
X166081496Y-59698593D01*
X165983448Y-59935301D01*
X165983447Y-59935303D01*
X165841104Y-60148335D01*
X165659935Y-60329504D01*
X165446903Y-60471847D01*
X165446902Y-60471848D01*
X165446901Y-60471848D01*
X165210193Y-60569896D01*
X164958907Y-60619880D01*
X164702693Y-60619880D01*
X164451407Y-60569896D01*
X164214699Y-60471848D01*
X164214698Y-60471848D01*
X164214697Y-60471847D01*
X164001665Y-60329504D01*
X163820496Y-60148335D01*
X163678153Y-59935303D01*
X163678152Y-59935301D01*
X163580104Y-59698593D01*
X163530120Y-59447307D01*
X163530120Y-59191093D01*
X163580104Y-58939807D01*
X163678152Y-58703099D01*
X163678153Y-58703097D01*
X163820496Y-58490065D01*
X164001665Y-58308896D01*
X164214697Y-58166553D01*
X164214699Y-58166552D01*
X164451407Y-58068504D01*
X164702693Y-58018520D01*
X164958907Y-58018520D01*
X165210193Y-58068504D01*
G37*
G36*
X93905703Y-53356275D02*
G01*
X94133371Y-53450578D01*
X94338266Y-53587485D01*
X94512515Y-53761734D01*
X94649422Y-53966629D01*
X94743725Y-54194297D01*
X94791800Y-54435987D01*
X94791800Y-54682413D01*
X94743725Y-54924103D01*
X94649422Y-55151771D01*
X94512515Y-55356666D01*
X94338266Y-55530915D01*
X94133371Y-55667822D01*
X94133370Y-55667823D01*
X94133369Y-55667823D01*
X93905703Y-55762125D01*
X93664014Y-55810200D01*
X93417586Y-55810200D01*
X93175897Y-55762125D01*
X92948231Y-55667823D01*
X92948230Y-55667823D01*
X92948229Y-55667822D01*
X92743334Y-55530915D01*
X92569085Y-55356666D01*
X92432178Y-55151771D01*
X92337875Y-54924103D01*
X92289800Y-54682413D01*
X92289800Y-54435987D01*
X92337875Y-54194297D01*
X92432178Y-53966629D01*
X92569085Y-53761734D01*
X92743334Y-53587485D01*
X92948229Y-53450578D01*
X93175897Y-53356275D01*
X93417586Y-53308200D01*
X93664014Y-53308200D01*
X93905703Y-53356275D01*
G37*
G36*
X125345703Y-53356275D02*
G01*
X125573371Y-53450578D01*
X125778266Y-53587485D01*
X125952515Y-53761734D01*
X126089422Y-53966629D01*
X126183725Y-54194297D01*
X126231800Y-54435987D01*
X126231800Y-54682413D01*
X126183725Y-54924103D01*
X126089422Y-55151771D01*
X125952515Y-55356666D01*
X125778266Y-55530915D01*
X125573371Y-55667822D01*
X125573370Y-55667823D01*
X125573369Y-55667823D01*
X125345703Y-55762125D01*
X125104014Y-55810200D01*
X124857586Y-55810200D01*
X124615897Y-55762125D01*
X124388231Y-55667823D01*
X124388230Y-55667823D01*
X124388229Y-55667822D01*
X124183334Y-55530915D01*
X124009085Y-55356666D01*
X123872178Y-55151771D01*
X123777875Y-54924103D01*
X123729800Y-54682413D01*
X123729800Y-54435987D01*
X123777875Y-54194297D01*
X123872178Y-53966629D01*
X124009085Y-53761734D01*
X124183334Y-53587485D01*
X124388229Y-53450578D01*
X124615897Y-53356275D01*
X124857586Y-53308200D01*
X125104014Y-53308200D01*
X125345703Y-53356275D01*
G37*
G36*
X133231800Y-55810200D02*
G01*
X130729800Y-55810200D01*
X130729800Y-53308200D01*
X133231800Y-53308200D01*
X133231800Y-55810200D01*
G37*
G36*
X149785703Y-53356275D02*
G01*
X150013371Y-53450578D01*
X150218266Y-53587485D01*
X150392515Y-53761734D01*
X150529422Y-53966629D01*
X150623725Y-54194297D01*
X150671800Y-54435987D01*
X150671800Y-54682413D01*
X150623725Y-54924103D01*
X150529422Y-55151771D01*
X150392515Y-55356666D01*
X150218266Y-55530915D01*
X150013371Y-55667822D01*
X150013370Y-55667823D01*
X150013369Y-55667823D01*
X149785703Y-55762125D01*
X149544014Y-55810200D01*
X149297586Y-55810200D01*
X149055897Y-55762125D01*
X148828231Y-55667823D01*
X148828230Y-55667823D01*
X148828229Y-55667822D01*
X148623334Y-55530915D01*
X148449085Y-55356666D01*
X148312178Y-55151771D01*
X148217875Y-54924103D01*
X148169800Y-54682413D01*
X148169800Y-54435987D01*
X148217875Y-54194297D01*
X148312178Y-53966629D01*
X148449085Y-53761734D01*
X148623334Y-53587485D01*
X148828229Y-53450578D01*
X149055897Y-53356275D01*
X149297586Y-53308200D01*
X149544014Y-53308200D01*
X149785703Y-53356275D01*
G37*
G36*
X153285703Y-53356275D02*
G01*
X153513371Y-53450578D01*
X153718266Y-53587485D01*
X153892515Y-53761734D01*
X154029422Y-53966629D01*
X154123725Y-54194297D01*
X154171800Y-54435987D01*
X154171800Y-54682413D01*
X154123725Y-54924103D01*
X154029422Y-55151771D01*
X153892515Y-55356666D01*
X153718266Y-55530915D01*
X153513371Y-55667822D01*
X153513370Y-55667823D01*
X153513369Y-55667823D01*
X153285703Y-55762125D01*
X153044014Y-55810200D01*
X152797586Y-55810200D01*
X152555897Y-55762125D01*
X152328231Y-55667823D01*
X152328230Y-55667823D01*
X152328229Y-55667822D01*
X152123334Y-55530915D01*
X151949085Y-55356666D01*
X151812178Y-55151771D01*
X151717875Y-54924103D01*
X151669800Y-54682413D01*
X151669800Y-54435987D01*
X151717875Y-54194297D01*
X151812178Y-53966629D01*
X151949085Y-53761734D01*
X152123334Y-53587485D01*
X152328229Y-53450578D01*
X152555897Y-53356275D01*
X152797586Y-53308200D01*
X153044014Y-53308200D01*
X153285703Y-53356275D01*
G37*
G36*
X156785703Y-53356275D02*
G01*
X157013371Y-53450578D01*
X157218266Y-53587485D01*
X157392515Y-53761734D01*
X157529422Y-53966629D01*
X157623725Y-54194297D01*
X157671800Y-54435987D01*
X157671800Y-54682413D01*
X157623725Y-54924103D01*
X157529422Y-55151771D01*
X157392515Y-55356666D01*
X157218266Y-55530915D01*
X157013371Y-55667822D01*
X157013370Y-55667823D01*
X157013369Y-55667823D01*
X156785703Y-55762125D01*
X156544014Y-55810200D01*
X156297586Y-55810200D01*
X156055897Y-55762125D01*
X155828231Y-55667823D01*
X155828230Y-55667823D01*
X155828229Y-55667822D01*
X155623334Y-55530915D01*
X155449085Y-55356666D01*
X155312178Y-55151771D01*
X155217875Y-54924103D01*
X155169800Y-54682413D01*
X155169800Y-54435987D01*
X155217875Y-54194297D01*
X155312178Y-53966629D01*
X155449085Y-53761734D01*
X155623334Y-53587485D01*
X155828229Y-53450578D01*
X156055897Y-53356275D01*
X156297586Y-53308200D01*
X156544014Y-53308200D01*
X156785703Y-53356275D01*
G37*
G36*
X161171800Y-55810200D02*
G01*
X158669800Y-55810200D01*
X158669800Y-53308200D01*
X161171800Y-53308200D01*
X161171800Y-55810200D01*
G37*
G36*
X128845703Y-53356275D02*
G01*
X129073371Y-53450578D01*
X129278266Y-53587485D01*
X129452515Y-53761734D01*
X129589422Y-53966629D01*
X129683725Y-54194297D01*
X129731800Y-54435987D01*
X129731800Y-54682413D01*
X129683725Y-54924103D01*
X129589422Y-55151771D01*
X129452515Y-55356666D01*
X129278266Y-55530915D01*
X129073371Y-55667822D01*
X129073370Y-55667823D01*
X129073369Y-55667823D01*
X128845703Y-55762125D01*
X128604014Y-55810200D01*
X128357586Y-55810200D01*
X128115897Y-55762125D01*
X127888231Y-55667823D01*
X127888230Y-55667823D01*
X127888229Y-55667822D01*
X127683334Y-55530915D01*
X127509085Y-55356666D01*
X127372178Y-55151771D01*
X127277875Y-54924103D01*
X127229800Y-54682413D01*
X127229800Y-54435987D01*
X127277875Y-54194297D01*
X127372178Y-53966629D01*
X127509085Y-53761734D01*
X127683334Y-53587485D01*
X127888229Y-53450578D01*
X128115897Y-53356275D01*
X128357586Y-53308200D01*
X128604014Y-53308200D01*
X128845703Y-53356275D01*
G37*
G36*
X121845703Y-53356275D02*
G01*
X122073371Y-53450578D01*
X122278266Y-53587485D01*
X122452515Y-53761734D01*
X122589422Y-53966629D01*
X122683725Y-54194297D01*
X122731800Y-54435987D01*
X122731800Y-54682413D01*
X122683725Y-54924103D01*
X122589422Y-55151771D01*
X122452515Y-55356666D01*
X122278266Y-55530915D01*
X122073371Y-55667822D01*
X122073370Y-55667823D01*
X122073369Y-55667823D01*
X121845703Y-55762125D01*
X121604014Y-55810200D01*
X121357586Y-55810200D01*
X121115897Y-55762125D01*
X120888231Y-55667823D01*
X120888230Y-55667823D01*
X120888229Y-55667822D01*
X120683334Y-55530915D01*
X120509085Y-55356666D01*
X120372178Y-55151771D01*
X120277875Y-54924103D01*
X120229800Y-54682413D01*
X120229800Y-54435987D01*
X120277875Y-54194297D01*
X120372178Y-53966629D01*
X120509085Y-53761734D01*
X120683334Y-53587485D01*
X120888229Y-53450578D01*
X121115897Y-53356275D01*
X121357586Y-53308200D01*
X121604014Y-53308200D01*
X121845703Y-53356275D01*
G37*
G36*
X97405703Y-53356275D02*
G01*
X97633371Y-53450578D01*
X97838266Y-53587485D01*
X98012515Y-53761734D01*
X98149422Y-53966629D01*
X98243725Y-54194297D01*
X98291800Y-54435987D01*
X98291800Y-54682413D01*
X98243725Y-54924103D01*
X98149422Y-55151771D01*
X98012515Y-55356666D01*
X97838266Y-55530915D01*
X97633371Y-55667822D01*
X97633370Y-55667823D01*
X97633369Y-55667823D01*
X97405703Y-55762125D01*
X97164014Y-55810200D01*
X96917586Y-55810200D01*
X96675897Y-55762125D01*
X96448231Y-55667823D01*
X96448230Y-55667823D01*
X96448229Y-55667822D01*
X96243334Y-55530915D01*
X96069085Y-55356666D01*
X95932178Y-55151771D01*
X95837875Y-54924103D01*
X95789800Y-54682413D01*
X95789800Y-54435987D01*
X95837875Y-54194297D01*
X95932178Y-53966629D01*
X96069085Y-53761734D01*
X96243334Y-53587485D01*
X96448229Y-53450578D01*
X96675897Y-53356275D01*
X96917586Y-53308200D01*
X97164014Y-53308200D01*
X97405703Y-53356275D01*
G37*
G36*
X100905703Y-53356275D02*
G01*
X101133371Y-53450578D01*
X101338266Y-53587485D01*
X101512515Y-53761734D01*
X101649422Y-53966629D01*
X101743725Y-54194297D01*
X101791800Y-54435987D01*
X101791800Y-54682413D01*
X101743725Y-54924103D01*
X101649422Y-55151771D01*
X101512515Y-55356666D01*
X101338266Y-55530915D01*
X101133371Y-55667822D01*
X101133370Y-55667823D01*
X101133369Y-55667823D01*
X100905703Y-55762125D01*
X100664014Y-55810200D01*
X100417586Y-55810200D01*
X100175897Y-55762125D01*
X99948231Y-55667823D01*
X99948230Y-55667823D01*
X99948229Y-55667822D01*
X99743334Y-55530915D01*
X99569085Y-55356666D01*
X99432178Y-55151771D01*
X99337875Y-54924103D01*
X99289800Y-54682413D01*
X99289800Y-54435987D01*
X99337875Y-54194297D01*
X99432178Y-53966629D01*
X99569085Y-53761734D01*
X99743334Y-53587485D01*
X99948229Y-53450578D01*
X100175897Y-53356275D01*
X100417586Y-53308200D01*
X100664014Y-53308200D01*
X100905703Y-53356275D01*
G37*
G36*
X105291800Y-55810200D02*
G01*
X102789800Y-55810200D01*
X102789800Y-53308200D01*
X105291800Y-53308200D01*
X105291800Y-55810200D01*
G37*
G36*
X165133385Y-52718002D02*
G01*
X165283210Y-52747804D01*
X165565474Y-52864721D01*
X165819505Y-53034459D01*
X166035541Y-53250495D01*
X166205279Y-53504526D01*
X166311818Y-53761736D01*
X166322196Y-53786791D01*
X166381800Y-54086439D01*
X166381800Y-54391961D01*
X166351998Y-54541785D01*
X166322196Y-54691610D01*
X166205279Y-54973874D01*
X166035541Y-55227905D01*
X165819505Y-55443941D01*
X165565474Y-55613679D01*
X165283210Y-55730596D01*
X165133385Y-55760398D01*
X164983561Y-55790200D01*
X164678039Y-55790200D01*
X164528215Y-55760398D01*
X164378390Y-55730596D01*
X164096126Y-55613679D01*
X163842095Y-55443941D01*
X163626059Y-55227905D01*
X163456321Y-54973874D01*
X163339404Y-54691610D01*
X163309602Y-54541785D01*
X163279800Y-54391961D01*
X163279800Y-54086439D01*
X163339404Y-53786791D01*
X163349782Y-53761736D01*
X163456321Y-53504526D01*
X163626059Y-53250495D01*
X163842095Y-53034459D01*
X164096126Y-52864721D01*
X164378390Y-52747804D01*
X164528215Y-52718002D01*
X164678039Y-52688200D01*
X164983561Y-52688200D01*
X165133385Y-52718002D01*
G37*
G36*
X116873385Y-52718002D02*
G01*
X117023210Y-52747804D01*
X117305474Y-52864721D01*
X117559505Y-53034459D01*
X117775541Y-53250495D01*
X117945279Y-53504526D01*
X118051818Y-53761736D01*
X118062196Y-53786791D01*
X118121800Y-54086439D01*
X118121800Y-54391961D01*
X118091998Y-54541785D01*
X118062196Y-54691610D01*
X117945279Y-54973874D01*
X117775541Y-55227905D01*
X117559505Y-55443941D01*
X117305474Y-55613679D01*
X117023210Y-55730596D01*
X116873385Y-55760398D01*
X116723561Y-55790200D01*
X116418039Y-55790200D01*
X116268215Y-55760398D01*
X116118390Y-55730596D01*
X115836126Y-55613679D01*
X115582095Y-55443941D01*
X115366059Y-55227905D01*
X115196321Y-54973874D01*
X115079404Y-54691610D01*
X115049602Y-54541785D01*
X115019800Y-54391961D01*
X115019800Y-54086439D01*
X115079404Y-53786791D01*
X115089782Y-53761736D01*
X115196321Y-53504526D01*
X115366059Y-53250495D01*
X115582095Y-53034459D01*
X115836126Y-52864721D01*
X116118390Y-52747804D01*
X116268215Y-52718002D01*
X116418039Y-52688200D01*
X116723561Y-52688200D01*
X116873385Y-52718002D01*
G37*
G36*
X144813385Y-52718002D02*
G01*
X144963210Y-52747804D01*
X145245474Y-52864721D01*
X145499505Y-53034459D01*
X145715541Y-53250495D01*
X145885279Y-53504526D01*
X145991818Y-53761736D01*
X146002196Y-53786791D01*
X146061800Y-54086439D01*
X146061800Y-54391961D01*
X146031998Y-54541785D01*
X146002196Y-54691610D01*
X145885279Y-54973874D01*
X145715541Y-55227905D01*
X145499505Y-55443941D01*
X145245474Y-55613679D01*
X144963210Y-55730596D01*
X144813385Y-55760398D01*
X144663561Y-55790200D01*
X144358039Y-55790200D01*
X144208215Y-55760398D01*
X144058390Y-55730596D01*
X143776126Y-55613679D01*
X143522095Y-55443941D01*
X143306059Y-55227905D01*
X143136321Y-54973874D01*
X143019404Y-54691610D01*
X142989602Y-54541785D01*
X142959800Y-54391961D01*
X142959800Y-54086439D01*
X143019404Y-53786791D01*
X143029782Y-53761736D01*
X143136321Y-53504526D01*
X143306059Y-53250495D01*
X143522095Y-53034459D01*
X143776126Y-52864721D01*
X144058390Y-52747804D01*
X144208215Y-52718002D01*
X144358039Y-52688200D01*
X144663561Y-52688200D01*
X144813385Y-52718002D01*
G37*
G36*
X88933385Y-52718002D02*
G01*
X89083210Y-52747804D01*
X89365474Y-52864721D01*
X89619505Y-53034459D01*
X89835541Y-53250495D01*
X90005279Y-53504526D01*
X90111818Y-53761736D01*
X90122196Y-53786791D01*
X90181800Y-54086439D01*
X90181800Y-54391961D01*
X90151998Y-54541785D01*
X90122196Y-54691610D01*
X90005279Y-54973874D01*
X89835541Y-55227905D01*
X89619505Y-55443941D01*
X89365474Y-55613679D01*
X89083210Y-55730596D01*
X88933385Y-55760398D01*
X88783561Y-55790200D01*
X88478039Y-55790200D01*
X88328215Y-55760398D01*
X88178390Y-55730596D01*
X87896126Y-55613679D01*
X87642095Y-55443941D01*
X87426059Y-55227905D01*
X87256321Y-54973874D01*
X87139404Y-54691610D01*
X87109602Y-54541785D01*
X87079800Y-54391961D01*
X87079800Y-54086439D01*
X87139404Y-53786791D01*
X87149782Y-53761736D01*
X87256321Y-53504526D01*
X87426059Y-53250495D01*
X87642095Y-53034459D01*
X87896126Y-52864721D01*
X88178390Y-52747804D01*
X88328215Y-52718002D01*
X88478039Y-52688200D01*
X88783561Y-52688200D01*
X88933385Y-52718002D01*
G37*
G36*
X109253385Y-52718002D02*
G01*
X109403210Y-52747804D01*
X109685474Y-52864721D01*
X109939505Y-53034459D01*
X110155541Y-53250495D01*
X110325279Y-53504526D01*
X110431818Y-53761736D01*
X110442196Y-53786791D01*
X110501800Y-54086439D01*
X110501800Y-54391961D01*
X110471998Y-54541785D01*
X110442196Y-54691610D01*
X110325279Y-54973874D01*
X110155541Y-55227905D01*
X109939505Y-55443941D01*
X109685474Y-55613679D01*
X109403210Y-55730596D01*
X109253385Y-55760398D01*
X109103561Y-55790200D01*
X108798039Y-55790200D01*
X108648215Y-55760398D01*
X108498390Y-55730596D01*
X108216126Y-55613679D01*
X107962095Y-55443941D01*
X107746059Y-55227905D01*
X107576321Y-54973874D01*
X107459404Y-54691610D01*
X107429602Y-54541785D01*
X107399800Y-54391961D01*
X107399800Y-54086439D01*
X107459404Y-53786791D01*
X107469782Y-53761736D01*
X107576321Y-53504526D01*
X107746059Y-53250495D01*
X107962095Y-53034459D01*
X108216126Y-52864721D01*
X108498390Y-52747804D01*
X108648215Y-52718002D01*
X108798039Y-52688200D01*
X109103561Y-52688200D01*
X109253385Y-52718002D01*
G37*
G36*
X137193385Y-52718002D02*
G01*
X137343210Y-52747804D01*
X137625474Y-52864721D01*
X137879505Y-53034459D01*
X138095541Y-53250495D01*
X138265279Y-53504526D01*
X138371818Y-53761736D01*
X138382196Y-53786791D01*
X138441800Y-54086439D01*
X138441800Y-54391961D01*
X138411998Y-54541785D01*
X138382196Y-54691610D01*
X138265279Y-54973874D01*
X138095541Y-55227905D01*
X137879505Y-55443941D01*
X137625474Y-55613679D01*
X137343210Y-55730596D01*
X137193385Y-55760398D01*
X137043561Y-55790200D01*
X136738039Y-55790200D01*
X136588215Y-55760398D01*
X136438390Y-55730596D01*
X136156126Y-55613679D01*
X135902095Y-55443941D01*
X135686059Y-55227905D01*
X135516321Y-54973874D01*
X135399404Y-54691610D01*
X135369602Y-54541785D01*
X135339800Y-54391961D01*
X135339800Y-54086439D01*
X135399404Y-53786791D01*
X135409782Y-53761736D01*
X135516321Y-53504526D01*
X135686059Y-53250495D01*
X135902095Y-53034459D01*
X136156126Y-52864721D01*
X136438390Y-52747804D01*
X136588215Y-52718002D01*
X136738039Y-52688200D01*
X137043561Y-52688200D01*
X137193385Y-52718002D01*
G37*
M02*
