G04 #@! TF.GenerationSoftware,KiCad,Pcbnew,5.1.5-52549c5~86~ubuntu18.04.1*
G04 #@! TF.CreationDate,2020-09-07T15:41:06-05:00*
G04 #@! TF.ProjectId,D00,4430302e-6b69-4636-9164-5f7063625858,rev?*
G04 #@! TF.SameCoordinates,Original*
G04 #@! TF.FileFunction,Copper,L1,Top*
G04 #@! TF.FilePolarity,Positive*
%FSLAX46Y46*%
G04 Gerber Fmt 4.6, Leading zero omitted, Abs format (unit mm)*
G04 Created by KiCad (PCBNEW 5.1.5-52549c5~86~ubuntu18.04.1) date 2020-09-07 15:41:06*
%MOMM*%
%LPD*%
G04 APERTURE LIST*
%ADD10C,0.300000*%
%ADD11C,0.010000*%
%ADD12C,2.500000*%
%ADD13R,2.500000X2.500000*%
%ADD14C,2.400000*%
%ADD15R,2.400000X2.400000*%
%ADD16C,2.300000*%
%ADD17R,2.300000X2.000000*%
%ADD18C,2.499360*%
%ADD19C,0.750000*%
%ADD20C,0.254000*%
G04 APERTURE END LIST*
D10*
X45370171Y-40682171D02*
X45513028Y-40682171D01*
X45655885Y-40753600D01*
X45727314Y-40825028D01*
X45798742Y-40967885D01*
X45870171Y-41253600D01*
X45870171Y-41610742D01*
X45798742Y-41896457D01*
X45727314Y-42039314D01*
X45655885Y-42110742D01*
X45513028Y-42182171D01*
X45370171Y-42182171D01*
X45227314Y-42110742D01*
X45155885Y-42039314D01*
X45084457Y-41896457D01*
X45013028Y-41610742D01*
X45013028Y-41253600D01*
X45084457Y-40967885D01*
X45155885Y-40825028D01*
X45227314Y-40753600D01*
X45370171Y-40682171D01*
X46798742Y-40682171D02*
X46941600Y-40682171D01*
X47084457Y-40753600D01*
X47155885Y-40825028D01*
X47227314Y-40967885D01*
X47298742Y-41253600D01*
X47298742Y-41610742D01*
X47227314Y-41896457D01*
X47155885Y-42039314D01*
X47084457Y-42110742D01*
X46941600Y-42182171D01*
X46798742Y-42182171D01*
X46655885Y-42110742D01*
X46584457Y-42039314D01*
X46513028Y-41896457D01*
X46441600Y-41610742D01*
X46441600Y-41253600D01*
X46513028Y-40967885D01*
X46584457Y-40825028D01*
X46655885Y-40753600D01*
X46798742Y-40682171D01*
X47584457Y-42325028D02*
X48727314Y-42325028D01*
X49084457Y-41396457D02*
X49584457Y-41396457D01*
X49798742Y-42182171D02*
X49084457Y-42182171D01*
X49084457Y-40682171D01*
X49798742Y-40682171D01*
X51155885Y-42182171D02*
X50441600Y-42182171D01*
X50441600Y-40682171D01*
X51655885Y-41396457D02*
X52155885Y-41396457D01*
X52370171Y-42182171D02*
X51655885Y-42182171D01*
X51655885Y-40682171D01*
X52370171Y-40682171D01*
X53870171Y-42039314D02*
X53798742Y-42110742D01*
X53584457Y-42182171D01*
X53441600Y-42182171D01*
X53227314Y-42110742D01*
X53084457Y-41967885D01*
X53013028Y-41825028D01*
X52941600Y-41539314D01*
X52941600Y-41325028D01*
X53013028Y-41039314D01*
X53084457Y-40896457D01*
X53227314Y-40753600D01*
X53441600Y-40682171D01*
X53584457Y-40682171D01*
X53798742Y-40753600D01*
X53870171Y-40825028D01*
X54298742Y-40682171D02*
X55155885Y-40682171D01*
X54727314Y-42182171D02*
X54727314Y-40682171D01*
X56513028Y-42182171D02*
X56013028Y-41467885D01*
X55655885Y-42182171D02*
X55655885Y-40682171D01*
X56227314Y-40682171D01*
X56370171Y-40753600D01*
X56441600Y-40825028D01*
X56513028Y-40967885D01*
X56513028Y-41182171D01*
X56441600Y-41325028D01*
X56370171Y-41396457D01*
X56227314Y-41467885D01*
X55655885Y-41467885D01*
X57441600Y-40682171D02*
X57727314Y-40682171D01*
X57870171Y-40753600D01*
X58013028Y-40896457D01*
X58084457Y-41182171D01*
X58084457Y-41682171D01*
X58013028Y-41967885D01*
X57870171Y-42110742D01*
X57727314Y-42182171D01*
X57441600Y-42182171D01*
X57298742Y-42110742D01*
X57155885Y-41967885D01*
X57084457Y-41682171D01*
X57084457Y-41182171D01*
X57155885Y-40896457D01*
X57298742Y-40753600D01*
X57441600Y-40682171D01*
X58727314Y-42182171D02*
X58727314Y-40682171D01*
X59584457Y-42182171D01*
X59584457Y-40682171D01*
X60298742Y-42182171D02*
X60298742Y-40682171D01*
X61870171Y-42039314D02*
X61798742Y-42110742D01*
X61584457Y-42182171D01*
X61441600Y-42182171D01*
X61227314Y-42110742D01*
X61084457Y-41967885D01*
X61013028Y-41825028D01*
X60941600Y-41539314D01*
X60941600Y-41325028D01*
X61013028Y-41039314D01*
X61084457Y-40896457D01*
X61227314Y-40753600D01*
X61441600Y-40682171D01*
X61584457Y-40682171D01*
X61798742Y-40753600D01*
X61870171Y-40825028D01*
D11*
G36*
X53641814Y-34171931D02*
G01*
X53725635Y-34616555D01*
X54034920Y-34744053D01*
X54344206Y-34871551D01*
X54715246Y-34619246D01*
X54819157Y-34548996D01*
X54913087Y-34486272D01*
X54992652Y-34433938D01*
X55053470Y-34394857D01*
X55091157Y-34371893D01*
X55101421Y-34366942D01*
X55119910Y-34379676D01*
X55159420Y-34414882D01*
X55215522Y-34468062D01*
X55283787Y-34534718D01*
X55359786Y-34610354D01*
X55439092Y-34690472D01*
X55517275Y-34770574D01*
X55589907Y-34846164D01*
X55652559Y-34912745D01*
X55700803Y-34965818D01*
X55730210Y-35000887D01*
X55737241Y-35012623D01*
X55727123Y-35034260D01*
X55698759Y-35081662D01*
X55655129Y-35150193D01*
X55599218Y-35235215D01*
X55534006Y-35332093D01*
X55496219Y-35387350D01*
X55427343Y-35488248D01*
X55366140Y-35579299D01*
X55315578Y-35655970D01*
X55278628Y-35713728D01*
X55258258Y-35748043D01*
X55255197Y-35755254D01*
X55262136Y-35775748D01*
X55281051Y-35823513D01*
X55309087Y-35891832D01*
X55343391Y-35973989D01*
X55381109Y-36063270D01*
X55419387Y-36152958D01*
X55455370Y-36236338D01*
X55486206Y-36306694D01*
X55509039Y-36357310D01*
X55521017Y-36381471D01*
X55521724Y-36382422D01*
X55540531Y-36387036D01*
X55590618Y-36397328D01*
X55666793Y-36412287D01*
X55763865Y-36430901D01*
X55876643Y-36452159D01*
X55942442Y-36464418D01*
X56062950Y-36487362D01*
X56171797Y-36509195D01*
X56263476Y-36528722D01*
X56332481Y-36544748D01*
X56373304Y-36556079D01*
X56381511Y-36559674D01*
X56389548Y-36584006D01*
X56396033Y-36638959D01*
X56400970Y-36718108D01*
X56404364Y-36815026D01*
X56406218Y-36923287D01*
X56406538Y-37036465D01*
X56405327Y-37148135D01*
X56402590Y-37251868D01*
X56398331Y-37341241D01*
X56392555Y-37409826D01*
X56385267Y-37451197D01*
X56380895Y-37459810D01*
X56354764Y-37470133D01*
X56299393Y-37484892D01*
X56222107Y-37502352D01*
X56130230Y-37520780D01*
X56098158Y-37526741D01*
X55943524Y-37555066D01*
X55821375Y-37577876D01*
X55727673Y-37596080D01*
X55658384Y-37610583D01*
X55609471Y-37622292D01*
X55576897Y-37632115D01*
X55556628Y-37640956D01*
X55544626Y-37649724D01*
X55542947Y-37651457D01*
X55526184Y-37679371D01*
X55500614Y-37733695D01*
X55468788Y-37807777D01*
X55433260Y-37894965D01*
X55396583Y-37988608D01*
X55361311Y-38082052D01*
X55329996Y-38168647D01*
X55305193Y-38241740D01*
X55289454Y-38294678D01*
X55285332Y-38320811D01*
X55285676Y-38321726D01*
X55299641Y-38343086D01*
X55331322Y-38390084D01*
X55377391Y-38457827D01*
X55434518Y-38541423D01*
X55499373Y-38635982D01*
X55517843Y-38662854D01*
X55583699Y-38760275D01*
X55641650Y-38849163D01*
X55688538Y-38924412D01*
X55721207Y-38980920D01*
X55736500Y-39013581D01*
X55737241Y-39017593D01*
X55724392Y-39038684D01*
X55688888Y-39080464D01*
X55635293Y-39138445D01*
X55568171Y-39208135D01*
X55492087Y-39285045D01*
X55411604Y-39364683D01*
X55331287Y-39442561D01*
X55255699Y-39514186D01*
X55189405Y-39575070D01*
X55136969Y-39620721D01*
X55102955Y-39646650D01*
X55093545Y-39650883D01*
X55071643Y-39640912D01*
X55026800Y-39614020D01*
X54966321Y-39574736D01*
X54919789Y-39543117D01*
X54835475Y-39485098D01*
X54735626Y-39416784D01*
X54635473Y-39348579D01*
X54581627Y-39312075D01*
X54399371Y-39188800D01*
X54246381Y-39271520D01*
X54176682Y-39307759D01*
X54117414Y-39335926D01*
X54077311Y-39351991D01*
X54067103Y-39354226D01*
X54054829Y-39337722D01*
X54030613Y-39291082D01*
X53996263Y-39218609D01*
X53953588Y-39124606D01*
X53904394Y-39013374D01*
X53850490Y-38889215D01*
X53793684Y-38756432D01*
X53735782Y-38619327D01*
X53678593Y-38482202D01*
X53623924Y-38349358D01*
X53573584Y-38225098D01*
X53529380Y-38113725D01*
X53493119Y-38019539D01*
X53466609Y-37946844D01*
X53451658Y-37899941D01*
X53449254Y-37883833D01*
X53468311Y-37863286D01*
X53510036Y-37829933D01*
X53565706Y-37790702D01*
X53570378Y-37787599D01*
X53714264Y-37672423D01*
X53830283Y-37538053D01*
X53917430Y-37388784D01*
X53974699Y-37228913D01*
X54001086Y-37062737D01*
X53995585Y-36894552D01*
X53957190Y-36728655D01*
X53884895Y-36569342D01*
X53863626Y-36534487D01*
X53752996Y-36393737D01*
X53622302Y-36280714D01*
X53476064Y-36196003D01*
X53318808Y-36140194D01*
X53155057Y-36113874D01*
X52989333Y-36117630D01*
X52826162Y-36152050D01*
X52670065Y-36217723D01*
X52525567Y-36315235D01*
X52480869Y-36354813D01*
X52367112Y-36478703D01*
X52284218Y-36609124D01*
X52227356Y-36755315D01*
X52195687Y-36900088D01*
X52187869Y-37062860D01*
X52213938Y-37226440D01*
X52271245Y-37385298D01*
X52357144Y-37533906D01*
X52468986Y-37666735D01*
X52604123Y-37778256D01*
X52621883Y-37790011D01*
X52678150Y-37828508D01*
X52720923Y-37861863D01*
X52741372Y-37883160D01*
X52741669Y-37883833D01*
X52737279Y-37906871D01*
X52719876Y-37959157D01*
X52691268Y-38036390D01*
X52653265Y-38134268D01*
X52607674Y-38248491D01*
X52556303Y-38374758D01*
X52500962Y-38508767D01*
X52443458Y-38646218D01*
X52385601Y-38782808D01*
X52329198Y-38914237D01*
X52276058Y-39036205D01*
X52227990Y-39144409D01*
X52186801Y-39234549D01*
X52154301Y-39302323D01*
X52132297Y-39343430D01*
X52123436Y-39354226D01*
X52096360Y-39345819D01*
X52045697Y-39323272D01*
X51980183Y-39290613D01*
X51944159Y-39271520D01*
X51791168Y-39188800D01*
X51608912Y-39312075D01*
X51515875Y-39375228D01*
X51414015Y-39444727D01*
X51318562Y-39510165D01*
X51270750Y-39543117D01*
X51203505Y-39588273D01*
X51146564Y-39624057D01*
X51107354Y-39645938D01*
X51094619Y-39650563D01*
X51076083Y-39638085D01*
X51035059Y-39603252D01*
X50975525Y-39549678D01*
X50901458Y-39480983D01*
X50816835Y-39400781D01*
X50763315Y-39349286D01*
X50669681Y-39257286D01*
X50588759Y-39174999D01*
X50523823Y-39105945D01*
X50478142Y-39053644D01*
X50454989Y-39021616D01*
X50452768Y-39015116D01*
X50463076Y-38990394D01*
X50491561Y-38940405D01*
X50535063Y-38870212D01*
X50590423Y-38784875D01*
X50654480Y-38689456D01*
X50672697Y-38662854D01*
X50739073Y-38566167D01*
X50798622Y-38479117D01*
X50848016Y-38406595D01*
X50883925Y-38353493D01*
X50903019Y-38324703D01*
X50904864Y-38321726D01*
X50902105Y-38298782D01*
X50887462Y-38248336D01*
X50863487Y-38177041D01*
X50832734Y-38091547D01*
X50797756Y-37998507D01*
X50761107Y-37904574D01*
X50725339Y-37816399D01*
X50693006Y-37740634D01*
X50666662Y-37683931D01*
X50648858Y-37652943D01*
X50647593Y-37651457D01*
X50636706Y-37642601D01*
X50618318Y-37633843D01*
X50588394Y-37624277D01*
X50542897Y-37612996D01*
X50477791Y-37599093D01*
X50389039Y-37581663D01*
X50272607Y-37559798D01*
X50124458Y-37532591D01*
X50092382Y-37526741D01*
X49997314Y-37508374D01*
X49914435Y-37490405D01*
X49851070Y-37474569D01*
X49814542Y-37462600D01*
X49809644Y-37459810D01*
X49801573Y-37435072D01*
X49795013Y-37379790D01*
X49789967Y-37300389D01*
X49786441Y-37203296D01*
X49784439Y-37094938D01*
X49783964Y-36981740D01*
X49785023Y-36870128D01*
X49787618Y-36766529D01*
X49791754Y-36677368D01*
X49797437Y-36609072D01*
X49804669Y-36568066D01*
X49809029Y-36559674D01*
X49833302Y-36551208D01*
X49888574Y-36537435D01*
X49969338Y-36519550D01*
X50070088Y-36498748D01*
X50185317Y-36476223D01*
X50248098Y-36464418D01*
X50367213Y-36442151D01*
X50473435Y-36421979D01*
X50561573Y-36404915D01*
X50626434Y-36391969D01*
X50662826Y-36384155D01*
X50668816Y-36382422D01*
X50678939Y-36362890D01*
X50700338Y-36315843D01*
X50730161Y-36248003D01*
X50765555Y-36166091D01*
X50803668Y-36076828D01*
X50841647Y-35986935D01*
X50876640Y-35903135D01*
X50905794Y-35832147D01*
X50926257Y-35780694D01*
X50935177Y-35755497D01*
X50935343Y-35754396D01*
X50925231Y-35734519D01*
X50896883Y-35688777D01*
X50853277Y-35621717D01*
X50797394Y-35537884D01*
X50732213Y-35441826D01*
X50694321Y-35386650D01*
X50625275Y-35285481D01*
X50563950Y-35193630D01*
X50513337Y-35115744D01*
X50476429Y-35056469D01*
X50456218Y-35020451D01*
X50453299Y-35012377D01*
X50465847Y-34993584D01*
X50500537Y-34953457D01*
X50552937Y-34896493D01*
X50618616Y-34827185D01*
X50693144Y-34750031D01*
X50772087Y-34669525D01*
X50851017Y-34590163D01*
X50925500Y-34516440D01*
X50991106Y-34452852D01*
X51043404Y-34403894D01*
X51077961Y-34374061D01*
X51089522Y-34366942D01*
X51108346Y-34376953D01*
X51153369Y-34405078D01*
X51220213Y-34448454D01*
X51304501Y-34504218D01*
X51401856Y-34569506D01*
X51475293Y-34619246D01*
X51846333Y-34871551D01*
X52464905Y-34616555D01*
X52548725Y-34171931D01*
X52632546Y-33727307D01*
X53557994Y-33727307D01*
X53641814Y-34171931D01*
G37*
X53641814Y-34171931D02*
X53725635Y-34616555D01*
X54034920Y-34744053D01*
X54344206Y-34871551D01*
X54715246Y-34619246D01*
X54819157Y-34548996D01*
X54913087Y-34486272D01*
X54992652Y-34433938D01*
X55053470Y-34394857D01*
X55091157Y-34371893D01*
X55101421Y-34366942D01*
X55119910Y-34379676D01*
X55159420Y-34414882D01*
X55215522Y-34468062D01*
X55283787Y-34534718D01*
X55359786Y-34610354D01*
X55439092Y-34690472D01*
X55517275Y-34770574D01*
X55589907Y-34846164D01*
X55652559Y-34912745D01*
X55700803Y-34965818D01*
X55730210Y-35000887D01*
X55737241Y-35012623D01*
X55727123Y-35034260D01*
X55698759Y-35081662D01*
X55655129Y-35150193D01*
X55599218Y-35235215D01*
X55534006Y-35332093D01*
X55496219Y-35387350D01*
X55427343Y-35488248D01*
X55366140Y-35579299D01*
X55315578Y-35655970D01*
X55278628Y-35713728D01*
X55258258Y-35748043D01*
X55255197Y-35755254D01*
X55262136Y-35775748D01*
X55281051Y-35823513D01*
X55309087Y-35891832D01*
X55343391Y-35973989D01*
X55381109Y-36063270D01*
X55419387Y-36152958D01*
X55455370Y-36236338D01*
X55486206Y-36306694D01*
X55509039Y-36357310D01*
X55521017Y-36381471D01*
X55521724Y-36382422D01*
X55540531Y-36387036D01*
X55590618Y-36397328D01*
X55666793Y-36412287D01*
X55763865Y-36430901D01*
X55876643Y-36452159D01*
X55942442Y-36464418D01*
X56062950Y-36487362D01*
X56171797Y-36509195D01*
X56263476Y-36528722D01*
X56332481Y-36544748D01*
X56373304Y-36556079D01*
X56381511Y-36559674D01*
X56389548Y-36584006D01*
X56396033Y-36638959D01*
X56400970Y-36718108D01*
X56404364Y-36815026D01*
X56406218Y-36923287D01*
X56406538Y-37036465D01*
X56405327Y-37148135D01*
X56402590Y-37251868D01*
X56398331Y-37341241D01*
X56392555Y-37409826D01*
X56385267Y-37451197D01*
X56380895Y-37459810D01*
X56354764Y-37470133D01*
X56299393Y-37484892D01*
X56222107Y-37502352D01*
X56130230Y-37520780D01*
X56098158Y-37526741D01*
X55943524Y-37555066D01*
X55821375Y-37577876D01*
X55727673Y-37596080D01*
X55658384Y-37610583D01*
X55609471Y-37622292D01*
X55576897Y-37632115D01*
X55556628Y-37640956D01*
X55544626Y-37649724D01*
X55542947Y-37651457D01*
X55526184Y-37679371D01*
X55500614Y-37733695D01*
X55468788Y-37807777D01*
X55433260Y-37894965D01*
X55396583Y-37988608D01*
X55361311Y-38082052D01*
X55329996Y-38168647D01*
X55305193Y-38241740D01*
X55289454Y-38294678D01*
X55285332Y-38320811D01*
X55285676Y-38321726D01*
X55299641Y-38343086D01*
X55331322Y-38390084D01*
X55377391Y-38457827D01*
X55434518Y-38541423D01*
X55499373Y-38635982D01*
X55517843Y-38662854D01*
X55583699Y-38760275D01*
X55641650Y-38849163D01*
X55688538Y-38924412D01*
X55721207Y-38980920D01*
X55736500Y-39013581D01*
X55737241Y-39017593D01*
X55724392Y-39038684D01*
X55688888Y-39080464D01*
X55635293Y-39138445D01*
X55568171Y-39208135D01*
X55492087Y-39285045D01*
X55411604Y-39364683D01*
X55331287Y-39442561D01*
X55255699Y-39514186D01*
X55189405Y-39575070D01*
X55136969Y-39620721D01*
X55102955Y-39646650D01*
X55093545Y-39650883D01*
X55071643Y-39640912D01*
X55026800Y-39614020D01*
X54966321Y-39574736D01*
X54919789Y-39543117D01*
X54835475Y-39485098D01*
X54735626Y-39416784D01*
X54635473Y-39348579D01*
X54581627Y-39312075D01*
X54399371Y-39188800D01*
X54246381Y-39271520D01*
X54176682Y-39307759D01*
X54117414Y-39335926D01*
X54077311Y-39351991D01*
X54067103Y-39354226D01*
X54054829Y-39337722D01*
X54030613Y-39291082D01*
X53996263Y-39218609D01*
X53953588Y-39124606D01*
X53904394Y-39013374D01*
X53850490Y-38889215D01*
X53793684Y-38756432D01*
X53735782Y-38619327D01*
X53678593Y-38482202D01*
X53623924Y-38349358D01*
X53573584Y-38225098D01*
X53529380Y-38113725D01*
X53493119Y-38019539D01*
X53466609Y-37946844D01*
X53451658Y-37899941D01*
X53449254Y-37883833D01*
X53468311Y-37863286D01*
X53510036Y-37829933D01*
X53565706Y-37790702D01*
X53570378Y-37787599D01*
X53714264Y-37672423D01*
X53830283Y-37538053D01*
X53917430Y-37388784D01*
X53974699Y-37228913D01*
X54001086Y-37062737D01*
X53995585Y-36894552D01*
X53957190Y-36728655D01*
X53884895Y-36569342D01*
X53863626Y-36534487D01*
X53752996Y-36393737D01*
X53622302Y-36280714D01*
X53476064Y-36196003D01*
X53318808Y-36140194D01*
X53155057Y-36113874D01*
X52989333Y-36117630D01*
X52826162Y-36152050D01*
X52670065Y-36217723D01*
X52525567Y-36315235D01*
X52480869Y-36354813D01*
X52367112Y-36478703D01*
X52284218Y-36609124D01*
X52227356Y-36755315D01*
X52195687Y-36900088D01*
X52187869Y-37062860D01*
X52213938Y-37226440D01*
X52271245Y-37385298D01*
X52357144Y-37533906D01*
X52468986Y-37666735D01*
X52604123Y-37778256D01*
X52621883Y-37790011D01*
X52678150Y-37828508D01*
X52720923Y-37861863D01*
X52741372Y-37883160D01*
X52741669Y-37883833D01*
X52737279Y-37906871D01*
X52719876Y-37959157D01*
X52691268Y-38036390D01*
X52653265Y-38134268D01*
X52607674Y-38248491D01*
X52556303Y-38374758D01*
X52500962Y-38508767D01*
X52443458Y-38646218D01*
X52385601Y-38782808D01*
X52329198Y-38914237D01*
X52276058Y-39036205D01*
X52227990Y-39144409D01*
X52186801Y-39234549D01*
X52154301Y-39302323D01*
X52132297Y-39343430D01*
X52123436Y-39354226D01*
X52096360Y-39345819D01*
X52045697Y-39323272D01*
X51980183Y-39290613D01*
X51944159Y-39271520D01*
X51791168Y-39188800D01*
X51608912Y-39312075D01*
X51515875Y-39375228D01*
X51414015Y-39444727D01*
X51318562Y-39510165D01*
X51270750Y-39543117D01*
X51203505Y-39588273D01*
X51146564Y-39624057D01*
X51107354Y-39645938D01*
X51094619Y-39650563D01*
X51076083Y-39638085D01*
X51035059Y-39603252D01*
X50975525Y-39549678D01*
X50901458Y-39480983D01*
X50816835Y-39400781D01*
X50763315Y-39349286D01*
X50669681Y-39257286D01*
X50588759Y-39174999D01*
X50523823Y-39105945D01*
X50478142Y-39053644D01*
X50454989Y-39021616D01*
X50452768Y-39015116D01*
X50463076Y-38990394D01*
X50491561Y-38940405D01*
X50535063Y-38870212D01*
X50590423Y-38784875D01*
X50654480Y-38689456D01*
X50672697Y-38662854D01*
X50739073Y-38566167D01*
X50798622Y-38479117D01*
X50848016Y-38406595D01*
X50883925Y-38353493D01*
X50903019Y-38324703D01*
X50904864Y-38321726D01*
X50902105Y-38298782D01*
X50887462Y-38248336D01*
X50863487Y-38177041D01*
X50832734Y-38091547D01*
X50797756Y-37998507D01*
X50761107Y-37904574D01*
X50725339Y-37816399D01*
X50693006Y-37740634D01*
X50666662Y-37683931D01*
X50648858Y-37652943D01*
X50647593Y-37651457D01*
X50636706Y-37642601D01*
X50618318Y-37633843D01*
X50588394Y-37624277D01*
X50542897Y-37612996D01*
X50477791Y-37599093D01*
X50389039Y-37581663D01*
X50272607Y-37559798D01*
X50124458Y-37532591D01*
X50092382Y-37526741D01*
X49997314Y-37508374D01*
X49914435Y-37490405D01*
X49851070Y-37474569D01*
X49814542Y-37462600D01*
X49809644Y-37459810D01*
X49801573Y-37435072D01*
X49795013Y-37379790D01*
X49789967Y-37300389D01*
X49786441Y-37203296D01*
X49784439Y-37094938D01*
X49783964Y-36981740D01*
X49785023Y-36870128D01*
X49787618Y-36766529D01*
X49791754Y-36677368D01*
X49797437Y-36609072D01*
X49804669Y-36568066D01*
X49809029Y-36559674D01*
X49833302Y-36551208D01*
X49888574Y-36537435D01*
X49969338Y-36519550D01*
X50070088Y-36498748D01*
X50185317Y-36476223D01*
X50248098Y-36464418D01*
X50367213Y-36442151D01*
X50473435Y-36421979D01*
X50561573Y-36404915D01*
X50626434Y-36391969D01*
X50662826Y-36384155D01*
X50668816Y-36382422D01*
X50678939Y-36362890D01*
X50700338Y-36315843D01*
X50730161Y-36248003D01*
X50765555Y-36166091D01*
X50803668Y-36076828D01*
X50841647Y-35986935D01*
X50876640Y-35903135D01*
X50905794Y-35832147D01*
X50926257Y-35780694D01*
X50935177Y-35755497D01*
X50935343Y-35754396D01*
X50925231Y-35734519D01*
X50896883Y-35688777D01*
X50853277Y-35621717D01*
X50797394Y-35537884D01*
X50732213Y-35441826D01*
X50694321Y-35386650D01*
X50625275Y-35285481D01*
X50563950Y-35193630D01*
X50513337Y-35115744D01*
X50476429Y-35056469D01*
X50456218Y-35020451D01*
X50453299Y-35012377D01*
X50465847Y-34993584D01*
X50500537Y-34953457D01*
X50552937Y-34896493D01*
X50618616Y-34827185D01*
X50693144Y-34750031D01*
X50772087Y-34669525D01*
X50851017Y-34590163D01*
X50925500Y-34516440D01*
X50991106Y-34452852D01*
X51043404Y-34403894D01*
X51077961Y-34374061D01*
X51089522Y-34366942D01*
X51108346Y-34376953D01*
X51153369Y-34405078D01*
X51220213Y-34448454D01*
X51304501Y-34504218D01*
X51401856Y-34569506D01*
X51475293Y-34619246D01*
X51846333Y-34871551D01*
X52464905Y-34616555D01*
X52548725Y-34171931D01*
X52632546Y-33727307D01*
X53557994Y-33727307D01*
X53641814Y-34171931D01*
D12*
X24587200Y-36470000D03*
D13*
X24587200Y-31470000D03*
D14*
X72085200Y-28720000D03*
X72085200Y-32220000D03*
X72085200Y-35720000D03*
D15*
X72085200Y-39220000D03*
D16*
X63910000Y-41670000D03*
X34510000Y-36470000D03*
D17*
X34510000Y-31470000D03*
D16*
X63910000Y-26270000D03*
D18*
X57708800Y-46070600D03*
X57708800Y-21869400D03*
X47320200Y-46070600D03*
X47320200Y-21869400D03*
D19*
X24587200Y-36470000D02*
X34510000Y-36470000D01*
X24587200Y-31470000D02*
X34510000Y-31470000D01*
X66360000Y-28720000D02*
X72085200Y-28720000D01*
X63910000Y-26270000D02*
X66360000Y-28720000D01*
X72085200Y-28720000D02*
X72085200Y-32220000D01*
X66360000Y-39220000D02*
X63910000Y-41670000D01*
X72085200Y-39220000D02*
X66360000Y-39220000D01*
X72085200Y-35720000D02*
X72085200Y-39220000D01*
D20*
G36*
X46006822Y-20735630D02*
G01*
X45716885Y-20861504D01*
X45551061Y-21193662D01*
X45453225Y-21551787D01*
X45427135Y-21922119D01*
X45473795Y-22290425D01*
X45591411Y-22642551D01*
X45716885Y-22877296D01*
X46006823Y-23003171D01*
X47140595Y-21869400D01*
X47126452Y-21855258D01*
X47306058Y-21675652D01*
X47320200Y-21689795D01*
X47334342Y-21675652D01*
X47513948Y-21855258D01*
X47499805Y-21869400D01*
X48633577Y-23003171D01*
X48923515Y-22877296D01*
X49089339Y-22545138D01*
X49187175Y-22187013D01*
X49213265Y-21816681D01*
X49166605Y-21448375D01*
X49048989Y-21096249D01*
X48923515Y-20861504D01*
X48633578Y-20735630D01*
X48709208Y-20660000D01*
X56319792Y-20660000D01*
X56395422Y-20735630D01*
X56105485Y-20861504D01*
X55939661Y-21193662D01*
X55841825Y-21551787D01*
X55815735Y-21922119D01*
X55862395Y-22290425D01*
X55980011Y-22642551D01*
X56105485Y-22877296D01*
X56395423Y-23003171D01*
X57529195Y-21869400D01*
X57515052Y-21855258D01*
X57694658Y-21675652D01*
X57708800Y-21689795D01*
X57722942Y-21675652D01*
X57902548Y-21855258D01*
X57888405Y-21869400D01*
X59022177Y-23003171D01*
X59312115Y-22877296D01*
X59477939Y-22545138D01*
X59575775Y-22187013D01*
X59601865Y-21816681D01*
X59555205Y-21448375D01*
X59437589Y-21096249D01*
X59312115Y-20861504D01*
X59022178Y-20735630D01*
X59097808Y-20660000D01*
X77760000Y-20660000D01*
X77760001Y-47280000D01*
X59097808Y-47280000D01*
X59022178Y-47204370D01*
X59312115Y-47078496D01*
X59477939Y-46746338D01*
X59575775Y-46388213D01*
X59601865Y-46017881D01*
X59555205Y-45649575D01*
X59437589Y-45297449D01*
X59312115Y-45062704D01*
X59022177Y-44936829D01*
X57888405Y-46070600D01*
X57902548Y-46084742D01*
X57722942Y-46264348D01*
X57708800Y-46250205D01*
X57694658Y-46264348D01*
X57515052Y-46084742D01*
X57529195Y-46070600D01*
X56395423Y-44936829D01*
X56105485Y-45062704D01*
X55939661Y-45394862D01*
X55841825Y-45752987D01*
X55815735Y-46123319D01*
X55862395Y-46491625D01*
X55980011Y-46843751D01*
X56105485Y-47078496D01*
X56395422Y-47204370D01*
X56319792Y-47280000D01*
X48709208Y-47280000D01*
X48633578Y-47204370D01*
X48923515Y-47078496D01*
X49089339Y-46746338D01*
X49187175Y-46388213D01*
X49213265Y-46017881D01*
X49166605Y-45649575D01*
X49048989Y-45297449D01*
X48923515Y-45062704D01*
X48633577Y-44936829D01*
X47499805Y-46070600D01*
X47513948Y-46084742D01*
X47334342Y-46264348D01*
X47320200Y-46250205D01*
X47306058Y-46264348D01*
X47126452Y-46084742D01*
X47140595Y-46070600D01*
X46006823Y-44936829D01*
X45716885Y-45062704D01*
X45551061Y-45394862D01*
X45453225Y-45752987D01*
X45427135Y-46123319D01*
X45473795Y-46491625D01*
X45591411Y-46843751D01*
X45716885Y-47078496D01*
X46006822Y-47204370D01*
X45931192Y-47280000D01*
X44857288Y-47280000D01*
X44864282Y-44757223D01*
X46186429Y-44757223D01*
X47320200Y-45890995D01*
X48453971Y-44757223D01*
X56575029Y-44757223D01*
X57708800Y-45890995D01*
X58842571Y-44757223D01*
X58716696Y-44467285D01*
X58384538Y-44301461D01*
X58026413Y-44203625D01*
X57656081Y-44177535D01*
X57287775Y-44224195D01*
X56935649Y-44341811D01*
X56700904Y-44467285D01*
X56575029Y-44757223D01*
X48453971Y-44757223D01*
X48328096Y-44467285D01*
X47995938Y-44301461D01*
X47637813Y-44203625D01*
X47267481Y-44177535D01*
X46899175Y-44224195D01*
X46547049Y-44341811D01*
X46312304Y-44467285D01*
X46186429Y-44757223D01*
X44864282Y-44757223D01*
X44866604Y-43919721D01*
X72475000Y-43919721D01*
X72475000Y-44340279D01*
X72557047Y-44752756D01*
X72717988Y-45141302D01*
X72951637Y-45490983D01*
X73249017Y-45788363D01*
X73598698Y-46022012D01*
X73987244Y-46182953D01*
X74399721Y-46265000D01*
X74820279Y-46265000D01*
X75232756Y-46182953D01*
X75621302Y-46022012D01*
X75970983Y-45788363D01*
X76268363Y-45490983D01*
X76502012Y-45141302D01*
X76662953Y-44752756D01*
X76745000Y-44340279D01*
X76745000Y-43919721D01*
X76662953Y-43507244D01*
X76502012Y-43118698D01*
X76268363Y-42769017D01*
X75970983Y-42471637D01*
X75621302Y-42237988D01*
X75232756Y-42077047D01*
X74820279Y-41995000D01*
X74399721Y-41995000D01*
X73987244Y-42077047D01*
X73598698Y-42237988D01*
X73249017Y-42471637D01*
X72951637Y-42769017D01*
X72717988Y-43118698D01*
X72557047Y-43507244D01*
X72475000Y-43919721D01*
X44866604Y-43919721D01*
X44867675Y-43533600D01*
X62940886Y-43533600D01*
X62940886Y-43169260D01*
X63064485Y-43251847D01*
X63389335Y-43386404D01*
X63734193Y-43455000D01*
X64085807Y-43455000D01*
X64430665Y-43386404D01*
X64755515Y-43251847D01*
X65047871Y-43056500D01*
X65296500Y-42807871D01*
X65491847Y-42515515D01*
X65626404Y-42190665D01*
X65695000Y-41845807D01*
X65695000Y-41494193D01*
X65664997Y-41343358D01*
X66778355Y-40230000D01*
X70247128Y-40230000D01*
X70247128Y-40420000D01*
X70259388Y-40544482D01*
X70295698Y-40664180D01*
X70354663Y-40774494D01*
X70434015Y-40871185D01*
X70530706Y-40950537D01*
X70641020Y-41009502D01*
X70760718Y-41045812D01*
X70885200Y-41058072D01*
X73285200Y-41058072D01*
X73409682Y-41045812D01*
X73529380Y-41009502D01*
X73639694Y-40950537D01*
X73736385Y-40871185D01*
X73815737Y-40774494D01*
X73874702Y-40664180D01*
X73911012Y-40544482D01*
X73923272Y-40420000D01*
X73923272Y-38020000D01*
X73911012Y-37895518D01*
X73874702Y-37775820D01*
X73815737Y-37665506D01*
X73736385Y-37568815D01*
X73639694Y-37489463D01*
X73529380Y-37430498D01*
X73409682Y-37394188D01*
X73285200Y-37381928D01*
X73095200Y-37381928D01*
X73095200Y-37252076D01*
X73254944Y-37145338D01*
X73510538Y-36889744D01*
X73711356Y-36589199D01*
X73849682Y-36255250D01*
X73920200Y-35900732D01*
X73920200Y-35539268D01*
X73849682Y-35184750D01*
X73711356Y-34850801D01*
X73510538Y-34550256D01*
X73254944Y-34294662D01*
X72954399Y-34093844D01*
X72655413Y-33970000D01*
X72954399Y-33846156D01*
X73254944Y-33645338D01*
X73510538Y-33389744D01*
X73711356Y-33089199D01*
X73849682Y-32755250D01*
X73920200Y-32400732D01*
X73920200Y-32039268D01*
X73849682Y-31684750D01*
X73711356Y-31350801D01*
X73510538Y-31050256D01*
X73254944Y-30794662D01*
X73095200Y-30687924D01*
X73095200Y-30252076D01*
X73254944Y-30145338D01*
X73510538Y-29889744D01*
X73711356Y-29589199D01*
X73849682Y-29255250D01*
X73920200Y-28900732D01*
X73920200Y-28539268D01*
X73849682Y-28184750D01*
X73711356Y-27850801D01*
X73510538Y-27550256D01*
X73254944Y-27294662D01*
X72954399Y-27093844D01*
X72620450Y-26955518D01*
X72265932Y-26885000D01*
X71904468Y-26885000D01*
X71549950Y-26955518D01*
X71216001Y-27093844D01*
X70915456Y-27294662D01*
X70659862Y-27550256D01*
X70553124Y-27710000D01*
X66778355Y-27710000D01*
X65664997Y-26596642D01*
X65695000Y-26445807D01*
X65695000Y-26094193D01*
X65626404Y-25749335D01*
X65491847Y-25424485D01*
X65296500Y-25132129D01*
X65047871Y-24883500D01*
X64755515Y-24688153D01*
X64430665Y-24553596D01*
X64085807Y-24485000D01*
X63734193Y-24485000D01*
X63389335Y-24553596D01*
X63064485Y-24688153D01*
X62772129Y-24883500D01*
X62523500Y-25132129D01*
X62328153Y-25424485D01*
X62193596Y-25749335D01*
X62125000Y-26094193D01*
X62125000Y-26445807D01*
X62193596Y-26790665D01*
X62328153Y-27115515D01*
X62523500Y-27407871D01*
X62772129Y-27656500D01*
X63064485Y-27851847D01*
X63389335Y-27986404D01*
X63734193Y-28055000D01*
X64085807Y-28055000D01*
X64236642Y-28024997D01*
X65610739Y-29399094D01*
X65642367Y-29437633D01*
X65796160Y-29563847D01*
X65971620Y-29657632D01*
X66162006Y-29715385D01*
X66310392Y-29730000D01*
X66310394Y-29730000D01*
X66359999Y-29734886D01*
X66409604Y-29730000D01*
X70553124Y-29730000D01*
X70659862Y-29889744D01*
X70915456Y-30145338D01*
X71075200Y-30252076D01*
X71075201Y-30687924D01*
X70915456Y-30794662D01*
X70659862Y-31050256D01*
X70459044Y-31350801D01*
X70320718Y-31684750D01*
X70250200Y-32039268D01*
X70250200Y-32400732D01*
X70320718Y-32755250D01*
X70459044Y-33089199D01*
X70659862Y-33389744D01*
X70915456Y-33645338D01*
X71216001Y-33846156D01*
X71514987Y-33970000D01*
X71216001Y-34093844D01*
X70915456Y-34294662D01*
X70659862Y-34550256D01*
X70459044Y-34850801D01*
X70320718Y-35184750D01*
X70250200Y-35539268D01*
X70250200Y-35900732D01*
X70320718Y-36255250D01*
X70459044Y-36589199D01*
X70659862Y-36889744D01*
X70915456Y-37145338D01*
X71075200Y-37252076D01*
X71075200Y-37381928D01*
X70885200Y-37381928D01*
X70760718Y-37394188D01*
X70641020Y-37430498D01*
X70530706Y-37489463D01*
X70434015Y-37568815D01*
X70354663Y-37665506D01*
X70295698Y-37775820D01*
X70259388Y-37895518D01*
X70247128Y-38020000D01*
X70247128Y-38210000D01*
X66409604Y-38210000D01*
X66359999Y-38205114D01*
X66310394Y-38210000D01*
X66310392Y-38210000D01*
X66162006Y-38224615D01*
X65971620Y-38282368D01*
X65796160Y-38376153D01*
X65642367Y-38502367D01*
X65610739Y-38540906D01*
X64236642Y-39915003D01*
X64085807Y-39885000D01*
X63734193Y-39885000D01*
X63389335Y-39953596D01*
X63064485Y-40088153D01*
X62940886Y-40170740D01*
X62940886Y-39713600D01*
X55968384Y-39713600D01*
X56022883Y-39658509D01*
X56022889Y-39658504D01*
X56022973Y-39658417D01*
X56023156Y-39658233D01*
X56023167Y-39658219D01*
X56029133Y-39652111D01*
X56096255Y-39582420D01*
X56097560Y-39580769D01*
X56099157Y-39579388D01*
X56105268Y-39572868D01*
X56158863Y-39514887D01*
X56164249Y-39507778D01*
X56170747Y-39501667D01*
X56176581Y-39494898D01*
X56212085Y-39453118D01*
X56238205Y-39415477D01*
X56266250Y-39379257D01*
X56270952Y-39371658D01*
X56283802Y-39350567D01*
X56301787Y-39313281D01*
X56322203Y-39277248D01*
X56328869Y-39257133D01*
X56338067Y-39238064D01*
X56348466Y-39198001D01*
X56361496Y-39158683D01*
X56364127Y-39137662D01*
X56369448Y-39117164D01*
X56371869Y-39075823D01*
X56377011Y-39034744D01*
X56375510Y-39013624D01*
X56376749Y-38992472D01*
X56371093Y-38951450D01*
X56368159Y-38910152D01*
X56366597Y-38901354D01*
X56365856Y-38897342D01*
X56361785Y-38883205D01*
X56359868Y-38868626D01*
X56344534Y-38823297D01*
X56331292Y-38777313D01*
X56324557Y-38764244D01*
X56319842Y-38750307D01*
X56316109Y-38742188D01*
X56300816Y-38709527D01*
X56288986Y-38689596D01*
X56279695Y-38668363D01*
X56275276Y-38660596D01*
X56242607Y-38604088D01*
X56239034Y-38599104D01*
X56236392Y-38593571D01*
X56231719Y-38585954D01*
X56184831Y-38510704D01*
X56183551Y-38509037D01*
X56182603Y-38507153D01*
X56177774Y-38499634D01*
X56119823Y-38410746D01*
X56119280Y-38410068D01*
X56118871Y-38409288D01*
X56113918Y-38401850D01*
X56048062Y-38304429D01*
X56047957Y-38304302D01*
X56045271Y-38300335D01*
X56027162Y-38273989D01*
X55992187Y-38222995D01*
X55993959Y-38218299D01*
X56003082Y-38195008D01*
X56060022Y-38184375D01*
X56213471Y-38156267D01*
X56213560Y-38156241D01*
X56215107Y-38155965D01*
X56247179Y-38150004D01*
X56247244Y-38149985D01*
X56247316Y-38149979D01*
X56256090Y-38148282D01*
X56347967Y-38129854D01*
X56351124Y-38128892D01*
X56354408Y-38128528D01*
X56363138Y-38126620D01*
X56440424Y-38109160D01*
X56447846Y-38106701D01*
X56455578Y-38105542D01*
X56464228Y-38103301D01*
X56519599Y-38088542D01*
X56550116Y-38077117D01*
X56581577Y-38068595D01*
X56589911Y-38065369D01*
X56616042Y-38055046D01*
X56634885Y-38045380D01*
X56636576Y-38044747D01*
X56638803Y-38043370D01*
X56651473Y-38036871D01*
X56688115Y-38021251D01*
X56706925Y-38008426D01*
X56727179Y-37998036D01*
X56758405Y-37973325D01*
X56791315Y-37950886D01*
X56807277Y-37934650D01*
X56825126Y-37920525D01*
X56850966Y-37890211D01*
X56878882Y-37861815D01*
X56891380Y-37842798D01*
X56906153Y-37825467D01*
X56916533Y-37806926D01*
X56920853Y-37801552D01*
X56930035Y-37783981D01*
X56947482Y-37757434D01*
X56951582Y-37749493D01*
X56955954Y-37740880D01*
X56961570Y-37726485D01*
X56967172Y-37716479D01*
X56970254Y-37707018D01*
X56978703Y-37690850D01*
X56988604Y-37657190D01*
X57001351Y-37624516D01*
X57006182Y-37597429D01*
X57013950Y-37571021D01*
X57015562Y-37562231D01*
X57022850Y-37520860D01*
X57024724Y-37496452D01*
X57029486Y-37472434D01*
X57030297Y-37463535D01*
X57036073Y-37394949D01*
X57035974Y-37387747D01*
X57037118Y-37380628D01*
X57037606Y-37371705D01*
X57041865Y-37282333D01*
X57041748Y-37279998D01*
X57042070Y-37277680D01*
X57042367Y-37268749D01*
X57045104Y-37165016D01*
X57045068Y-37164513D01*
X57045130Y-37164010D01*
X57045289Y-37155075D01*
X57046498Y-37043601D01*
X57046499Y-37043591D01*
X57046535Y-37034655D01*
X57046215Y-36921477D01*
X57046205Y-36921374D01*
X57046215Y-36921264D01*
X57046124Y-36912329D01*
X57044270Y-36804067D01*
X57044126Y-36802820D01*
X57044223Y-36801560D01*
X57043972Y-36792627D01*
X57040578Y-36695709D01*
X57040011Y-36691466D01*
X57040223Y-36687187D01*
X57039729Y-36678265D01*
X57034792Y-36599116D01*
X57032684Y-36586058D01*
X57032608Y-36572834D01*
X57031623Y-36563953D01*
X57025138Y-36509000D01*
X57012342Y-36450464D01*
X56999999Y-36391781D01*
X56998497Y-36387126D01*
X56998464Y-36386975D01*
X56998403Y-36386835D01*
X56997255Y-36383277D01*
X56989218Y-36358945D01*
X56983630Y-36346322D01*
X56980020Y-36332984D01*
X56958380Y-36289284D01*
X56938656Y-36244730D01*
X56930721Y-36233431D01*
X56924590Y-36221050D01*
X56894873Y-36182385D01*
X56866872Y-36142512D01*
X56856895Y-36132970D01*
X56848475Y-36122015D01*
X56811833Y-36089875D01*
X56776602Y-36056182D01*
X56764950Y-36048753D01*
X56754572Y-36039650D01*
X56712392Y-36015243D01*
X56671281Y-35989031D01*
X56658416Y-35984010D01*
X56646461Y-35977092D01*
X56638301Y-35973450D01*
X56630094Y-35969855D01*
X56591112Y-35957147D01*
X56553067Y-35941843D01*
X56544473Y-35939393D01*
X56503651Y-35928063D01*
X56494612Y-35926483D01*
X56485955Y-35923422D01*
X56477264Y-35921340D01*
X56408259Y-35905314D01*
X56406868Y-35905132D01*
X56405528Y-35904685D01*
X56396800Y-35902763D01*
X56305122Y-35883236D01*
X56305041Y-35883227D01*
X56297664Y-35881694D01*
X56188817Y-35859861D01*
X56188683Y-35859848D01*
X56182652Y-35858656D01*
X56062144Y-35835712D01*
X56062018Y-35835701D01*
X56059663Y-35835245D01*
X55994926Y-35823184D01*
X55976035Y-35819623D01*
X56024805Y-35748179D01*
X56062294Y-35693357D01*
X56062370Y-35693219D01*
X56064928Y-35689475D01*
X56130140Y-35592597D01*
X56130195Y-35592496D01*
X56133956Y-35586862D01*
X56189867Y-35501840D01*
X56189987Y-35501611D01*
X56190152Y-35501407D01*
X56195003Y-35493902D01*
X56238633Y-35425371D01*
X56240629Y-35421435D01*
X56243307Y-35417918D01*
X56247949Y-35410281D01*
X56276313Y-35362879D01*
X56288335Y-35337440D01*
X56303026Y-35313431D01*
X56306867Y-35305363D01*
X56316985Y-35283726D01*
X56326664Y-35256335D01*
X56329682Y-35249949D01*
X56331551Y-35242505D01*
X56336271Y-35229148D01*
X56356366Y-35174751D01*
X56357086Y-35170244D01*
X56358601Y-35165956D01*
X56366915Y-35108699D01*
X56376065Y-35051408D01*
X56375896Y-35046851D01*
X56376550Y-35042346D01*
X56373581Y-34984491D01*
X56371432Y-34926587D01*
X56370383Y-34922157D01*
X56370149Y-34917604D01*
X56355985Y-34861373D01*
X56342642Y-34805044D01*
X56340753Y-34800903D01*
X56339639Y-34796482D01*
X56314837Y-34744104D01*
X56299107Y-34709627D01*
X56295393Y-34700609D01*
X56294111Y-34698678D01*
X56290794Y-34691408D01*
X56286255Y-34683710D01*
X56279224Y-34671974D01*
X56251793Y-34634938D01*
X56226306Y-34596549D01*
X56220612Y-34589662D01*
X56191205Y-34554593D01*
X56185241Y-34548749D01*
X56180348Y-34541982D01*
X56174383Y-34535328D01*
X56126139Y-34482255D01*
X56125362Y-34481552D01*
X56124729Y-34480708D01*
X56118651Y-34474158D01*
X56055999Y-34407577D01*
X56055906Y-34407496D01*
X56051395Y-34402736D01*
X55978763Y-34327145D01*
X55978645Y-34327044D01*
X55975277Y-34323545D01*
X55897093Y-34243443D01*
X55896974Y-34243342D01*
X55893939Y-34240234D01*
X55814633Y-34160116D01*
X55814509Y-34160013D01*
X55811249Y-34156723D01*
X55735251Y-34081088D01*
X55735145Y-34081002D01*
X55730906Y-34076805D01*
X55662642Y-34010149D01*
X55662432Y-34009980D01*
X55662256Y-34009772D01*
X55655813Y-34003580D01*
X55599711Y-33950399D01*
X55595438Y-33947076D01*
X55591824Y-33943048D01*
X55585194Y-33937057D01*
X55545684Y-33901851D01*
X55517033Y-33880956D01*
X55490254Y-33857713D01*
X55482930Y-33852593D01*
X55464441Y-33839859D01*
X55448858Y-33831237D01*
X55444764Y-33828251D01*
X55443893Y-33827847D01*
X55431514Y-33818637D01*
X55392728Y-33800179D01*
X55355149Y-33779386D01*
X55336459Y-33773401D01*
X55318728Y-33764963D01*
X55277079Y-33754386D01*
X55236194Y-33741294D01*
X55216701Y-33739053D01*
X55197664Y-33734219D01*
X55154762Y-33731934D01*
X55112105Y-33727031D01*
X55092540Y-33728620D01*
X55072935Y-33727576D01*
X55030418Y-33733666D01*
X54987608Y-33737143D01*
X54968721Y-33742503D01*
X54949291Y-33745286D01*
X54908768Y-33759517D01*
X54867447Y-33771244D01*
X54849964Y-33780169D01*
X54831441Y-33786674D01*
X54823366Y-33790500D01*
X54813101Y-33795451D01*
X54790160Y-33809428D01*
X54765799Y-33820764D01*
X54758136Y-33825361D01*
X54720449Y-33848325D01*
X54717899Y-33850244D01*
X54715038Y-33851659D01*
X54707487Y-33856437D01*
X54646669Y-33895518D01*
X54646574Y-33895593D01*
X54640951Y-33899236D01*
X54561386Y-33951570D01*
X54561264Y-33951669D01*
X54557671Y-33954032D01*
X54463741Y-34016756D01*
X54463624Y-34016852D01*
X54460708Y-34018794D01*
X54356798Y-34089043D01*
X54356724Y-34089104D01*
X54355369Y-34090012D01*
X54286476Y-34136859D01*
X54270736Y-34053366D01*
X54270735Y-34053362D01*
X54186916Y-33608743D01*
X54186721Y-33608075D01*
X54186658Y-33607383D01*
X54169215Y-33548118D01*
X54151909Y-33488843D01*
X54151589Y-33488227D01*
X54151392Y-33487559D01*
X54122794Y-33432857D01*
X54094280Y-33378026D01*
X54093844Y-33377482D01*
X54093523Y-33376867D01*
X54054936Y-33328874D01*
X54016225Y-33280512D01*
X54015691Y-33280062D01*
X54015257Y-33279522D01*
X53967878Y-33239767D01*
X53920714Y-33200018D01*
X53920109Y-33199684D01*
X53919573Y-33199234D01*
X53865167Y-33169324D01*
X53811388Y-33139607D01*
X53810729Y-33139396D01*
X53810117Y-33139060D01*
X53751272Y-33120394D01*
X53692412Y-33101582D01*
X53691718Y-33101503D01*
X53691057Y-33101293D01*
X53629734Y-33094414D01*
X53568314Y-33087390D01*
X53567622Y-33087447D01*
X53566930Y-33087369D01*
X53557994Y-33087307D01*
X52632546Y-33087307D01*
X52631857Y-33087375D01*
X52631163Y-33087308D01*
X52569578Y-33093481D01*
X52508236Y-33099496D01*
X52507571Y-33099697D01*
X52506880Y-33099766D01*
X52447714Y-33117769D01*
X52388661Y-33135598D01*
X52388049Y-33135923D01*
X52387383Y-33136126D01*
X52332933Y-33165229D01*
X52278375Y-33194237D01*
X52277835Y-33194677D01*
X52277224Y-33195004D01*
X52229352Y-33234219D01*
X52181580Y-33273182D01*
X52181140Y-33273714D01*
X52180599Y-33274157D01*
X52141060Y-33322162D01*
X52101962Y-33369424D01*
X52101634Y-33370031D01*
X52101189Y-33370571D01*
X52071807Y-33425195D01*
X52042554Y-33479297D01*
X52042349Y-33479960D01*
X52042019Y-33480573D01*
X52023838Y-33539757D01*
X52005618Y-33598617D01*
X52005546Y-33599306D01*
X52005341Y-33599972D01*
X52003624Y-33608742D01*
X51919803Y-34053366D01*
X51919803Y-34053367D01*
X51904063Y-34136859D01*
X51835169Y-34090012D01*
X51835115Y-34089982D01*
X51834198Y-34089352D01*
X51760761Y-34039612D01*
X51760639Y-34039545D01*
X51758317Y-34037965D01*
X51660962Y-33972677D01*
X51660824Y-33972603D01*
X51657631Y-33970458D01*
X51573343Y-33914694D01*
X51573207Y-33914622D01*
X51568595Y-33911584D01*
X51501752Y-33868208D01*
X51500819Y-33867725D01*
X51499990Y-33867068D01*
X51492444Y-33862281D01*
X51447421Y-33834156D01*
X51431439Y-33826225D01*
X51416717Y-33816143D01*
X51408857Y-33811892D01*
X51390033Y-33801882D01*
X51375388Y-33795844D01*
X51361780Y-33787740D01*
X51317753Y-33772083D01*
X51274556Y-33754274D01*
X51259022Y-33751197D01*
X51244094Y-33745888D01*
X51197855Y-33739080D01*
X51152030Y-33730002D01*
X51136192Y-33730000D01*
X51120520Y-33727693D01*
X51073857Y-33729994D01*
X51027124Y-33729990D01*
X51011584Y-33733066D01*
X50995766Y-33733846D01*
X50950429Y-33745170D01*
X50904595Y-33754242D01*
X50889952Y-33760276D01*
X50874582Y-33764115D01*
X50832306Y-33784030D01*
X50789109Y-33801830D01*
X50776147Y-33810440D01*
X50769600Y-33813247D01*
X50768094Y-33814278D01*
X50761586Y-33817344D01*
X50753944Y-33821976D01*
X50742383Y-33829095D01*
X50705131Y-33857396D01*
X50694498Y-33864677D01*
X50685067Y-33870942D01*
X50684438Y-33871566D01*
X50666543Y-33883821D01*
X50659738Y-33889613D01*
X50625181Y-33919446D01*
X50619359Y-33925560D01*
X50612587Y-33930610D01*
X50606021Y-33936672D01*
X50553723Y-33985630D01*
X50553006Y-33986447D01*
X50552140Y-33987116D01*
X50545681Y-33993291D01*
X50480075Y-34056879D01*
X50479997Y-34056970D01*
X50475278Y-34061577D01*
X50400795Y-34135300D01*
X50400695Y-34135420D01*
X50397235Y-34138851D01*
X50318305Y-34218213D01*
X50318203Y-34218338D01*
X50315125Y-34221434D01*
X50236182Y-34301940D01*
X50236084Y-34302062D01*
X50232830Y-34305384D01*
X50158302Y-34382538D01*
X50158217Y-34382645D01*
X50154069Y-34386962D01*
X50088390Y-34456270D01*
X50088220Y-34456489D01*
X50088008Y-34456673D01*
X50081913Y-34463208D01*
X50029513Y-34520172D01*
X50026253Y-34524496D01*
X50022269Y-34528180D01*
X50016378Y-34534899D01*
X49981688Y-34575026D01*
X49961333Y-34603835D01*
X49938601Y-34630800D01*
X49933588Y-34638197D01*
X49921040Y-34656990D01*
X49912531Y-34672906D01*
X49909611Y-34677038D01*
X49906031Y-34685064D01*
X49899968Y-34696403D01*
X49876723Y-34734598D01*
X49870573Y-34751384D01*
X49862148Y-34767141D01*
X49849133Y-34809896D01*
X49833750Y-34851880D01*
X49830977Y-34869543D01*
X49825774Y-34886634D01*
X49821311Y-34931102D01*
X49814375Y-34975274D01*
X49815085Y-34993131D01*
X49813300Y-35010915D01*
X49817561Y-35055416D01*
X49819337Y-35100082D01*
X49823503Y-35117465D01*
X49825206Y-35135253D01*
X49838024Y-35178063D01*
X49840764Y-35189497D01*
X49845166Y-35210754D01*
X49846766Y-35214543D01*
X49848445Y-35221548D01*
X49851425Y-35229973D01*
X49854344Y-35238046D01*
X49858759Y-35247312D01*
X49861034Y-35254910D01*
X49874634Y-35280628D01*
X49875040Y-35281480D01*
X49893766Y-35325816D01*
X49898085Y-35333640D01*
X49918296Y-35369658D01*
X49924098Y-35377976D01*
X49928468Y-35387134D01*
X49933139Y-35394753D01*
X49970047Y-35454027D01*
X49971098Y-35455396D01*
X49971875Y-35456947D01*
X49976692Y-35464474D01*
X50027306Y-35542360D01*
X50027341Y-35542404D01*
X50031681Y-35549003D01*
X50093007Y-35640854D01*
X50093085Y-35640950D01*
X50096653Y-35646256D01*
X50165699Y-35747425D01*
X50165762Y-35747500D01*
X50166749Y-35748959D01*
X50203617Y-35802643D01*
X50215060Y-35819508D01*
X50130496Y-35835316D01*
X50130458Y-35835327D01*
X50129828Y-35835441D01*
X50067048Y-35847246D01*
X50066900Y-35847289D01*
X50062534Y-35848111D01*
X49947305Y-35870636D01*
X49947189Y-35870671D01*
X49940676Y-35871969D01*
X49839926Y-35892771D01*
X49839823Y-35892803D01*
X49839702Y-35892816D01*
X49830964Y-35894688D01*
X49750200Y-35912573D01*
X49746437Y-35913802D01*
X49742513Y-35914325D01*
X49733827Y-35916425D01*
X49678555Y-35930198D01*
X49655187Y-35938516D01*
X49630991Y-35944025D01*
X49622533Y-35946910D01*
X49598260Y-35955376D01*
X49566378Y-35970127D01*
X49560881Y-35972083D01*
X49556480Y-35974706D01*
X49553102Y-35976268D01*
X49507126Y-35995356D01*
X49496497Y-36002457D01*
X49484899Y-36007823D01*
X49444659Y-36037089D01*
X49403266Y-36064743D01*
X49394218Y-36073774D01*
X49383884Y-36081290D01*
X49350082Y-36117828D01*
X49348791Y-36119117D01*
X49347422Y-36120265D01*
X49346535Y-36121368D01*
X49314861Y-36152983D01*
X49307745Y-36163591D01*
X49299061Y-36172978D01*
X49279689Y-36204502D01*
X49269152Y-36217606D01*
X49260818Y-36233547D01*
X49245279Y-36256712D01*
X49241104Y-36264613D01*
X49236744Y-36273005D01*
X49235151Y-36276978D01*
X49233664Y-36279397D01*
X49227212Y-36296771D01*
X49225400Y-36301290D01*
X49211280Y-36328297D01*
X49202208Y-36359118D01*
X49190249Y-36388935D01*
X49184616Y-36418880D01*
X49176009Y-36448119D01*
X49174396Y-36456908D01*
X49167164Y-36497914D01*
X49165256Y-36522703D01*
X49160444Y-36547100D01*
X49159641Y-36556000D01*
X49153958Y-36624296D01*
X49154065Y-36631584D01*
X49152917Y-36638788D01*
X49152441Y-36647711D01*
X49148305Y-36736873D01*
X49148426Y-36739230D01*
X49148104Y-36741572D01*
X49147819Y-36750503D01*
X49145224Y-36854102D01*
X49145261Y-36854611D01*
X49145199Y-36855121D01*
X49145052Y-36864056D01*
X49143995Y-36975482D01*
X49143994Y-36975489D01*
X49143994Y-36975592D01*
X49143993Y-36975668D01*
X49143994Y-36975674D01*
X49143970Y-36984426D01*
X49144445Y-37097624D01*
X49144455Y-37097720D01*
X49144445Y-37097825D01*
X49144548Y-37106760D01*
X49146550Y-37215118D01*
X49146694Y-37216349D01*
X49146600Y-37217590D01*
X49146863Y-37226523D01*
X49150389Y-37323616D01*
X49150956Y-37327818D01*
X49150751Y-37332058D01*
X49151255Y-37340980D01*
X49156301Y-37420380D01*
X49158397Y-37433271D01*
X49158481Y-37446325D01*
X49159472Y-37455206D01*
X49166032Y-37510488D01*
X49178579Y-37567710D01*
X49190424Y-37625065D01*
X49192767Y-37632419D01*
X49192784Y-37632496D01*
X49192812Y-37632561D01*
X49193137Y-37633580D01*
X49201208Y-37658318D01*
X49218826Y-37698510D01*
X49234089Y-37739698D01*
X49243860Y-37755623D01*
X49251353Y-37772716D01*
X49276438Y-37808715D01*
X49299414Y-37846160D01*
X49312094Y-37859885D01*
X49322763Y-37875196D01*
X49354374Y-37905649D01*
X49384175Y-37937906D01*
X49399269Y-37948899D01*
X49412717Y-37961855D01*
X49449641Y-37985588D01*
X49485139Y-38011442D01*
X49492873Y-38015918D01*
X49497772Y-38018708D01*
X49508914Y-38023684D01*
X49517791Y-38029390D01*
X49551204Y-38042572D01*
X49552343Y-38043081D01*
X49606788Y-38067942D01*
X49611678Y-38069582D01*
X49611820Y-38069645D01*
X49611968Y-38069679D01*
X49615261Y-38070783D01*
X49651789Y-38082752D01*
X49669870Y-38086774D01*
X49687241Y-38093246D01*
X49695896Y-38095472D01*
X49759261Y-38111308D01*
X49764797Y-38112129D01*
X49770107Y-38113919D01*
X49778827Y-38115873D01*
X49861707Y-38133842D01*
X49864479Y-38134164D01*
X49867150Y-38134998D01*
X49875912Y-38136754D01*
X49970980Y-38155121D01*
X49971102Y-38155132D01*
X49977553Y-38156355D01*
X50009162Y-38162120D01*
X50155653Y-38189022D01*
X50187428Y-38194990D01*
X50198358Y-38223003D01*
X50145065Y-38300633D01*
X50145044Y-38300670D01*
X50144645Y-38301245D01*
X50126428Y-38327847D01*
X50126359Y-38327973D01*
X50123112Y-38332737D01*
X50059056Y-38428156D01*
X50058787Y-38428656D01*
X50058421Y-38429102D01*
X50053506Y-38436565D01*
X49998146Y-38521902D01*
X49997157Y-38523813D01*
X49995824Y-38525507D01*
X49991064Y-38533070D01*
X49947562Y-38603262D01*
X49944314Y-38609867D01*
X49939980Y-38615815D01*
X49935502Y-38623548D01*
X49907017Y-38673537D01*
X49892792Y-38705375D01*
X49875864Y-38735870D01*
X49872368Y-38744094D01*
X49862060Y-38768816D01*
X49856854Y-38785807D01*
X49856063Y-38787578D01*
X49855332Y-38790775D01*
X49850449Y-38806715D01*
X49836149Y-38843706D01*
X49832190Y-38866310D01*
X49825470Y-38888243D01*
X49821441Y-38927678D01*
X49814599Y-38966739D01*
X49815106Y-38989681D01*
X49812774Y-39012502D01*
X49816482Y-39051977D01*
X49817357Y-39091615D01*
X49822308Y-39114014D01*
X49824454Y-39136861D01*
X49829591Y-39154131D01*
X49830556Y-39161916D01*
X49837645Y-39183398D01*
X49844316Y-39213576D01*
X49847146Y-39222052D01*
X49849368Y-39228552D01*
X49856190Y-39243547D01*
X49860068Y-39256582D01*
X49864701Y-39265382D01*
X49869700Y-39280530D01*
X49886746Y-39310704D01*
X49901096Y-39342244D01*
X49916379Y-39363540D01*
X49918257Y-39367107D01*
X49919424Y-39368550D01*
X49931136Y-39389282D01*
X49936321Y-39396561D01*
X49959474Y-39428588D01*
X49976030Y-39447326D01*
X49990285Y-39467886D01*
X49996117Y-39474657D01*
X50041798Y-39526958D01*
X50047122Y-39531969D01*
X50051510Y-39537826D01*
X50057586Y-39544378D01*
X50122522Y-39613432D01*
X50124553Y-39615207D01*
X50126220Y-39617332D01*
X50132442Y-39623747D01*
X50213364Y-39706034D01*
X50214153Y-39706693D01*
X50214803Y-39707493D01*
X50220932Y-39713600D01*
X44878266Y-39713600D01*
X44924100Y-23182777D01*
X46186429Y-23182777D01*
X46312304Y-23472715D01*
X46644462Y-23638539D01*
X47002587Y-23736375D01*
X47372919Y-23762465D01*
X47741225Y-23715805D01*
X48093351Y-23598189D01*
X48328096Y-23472715D01*
X48453971Y-23182777D01*
X56575029Y-23182777D01*
X56700904Y-23472715D01*
X57033062Y-23638539D01*
X57391187Y-23736375D01*
X57761519Y-23762465D01*
X58129825Y-23715805D01*
X58477364Y-23599721D01*
X72475000Y-23599721D01*
X72475000Y-24020279D01*
X72557047Y-24432756D01*
X72717988Y-24821302D01*
X72951637Y-25170983D01*
X73249017Y-25468363D01*
X73598698Y-25702012D01*
X73987244Y-25862953D01*
X74399721Y-25945000D01*
X74820279Y-25945000D01*
X75232756Y-25862953D01*
X75621302Y-25702012D01*
X75970983Y-25468363D01*
X76268363Y-25170983D01*
X76502012Y-24821302D01*
X76662953Y-24432756D01*
X76745000Y-24020279D01*
X76745000Y-23599721D01*
X76662953Y-23187244D01*
X76502012Y-22798698D01*
X76268363Y-22449017D01*
X75970983Y-22151637D01*
X75621302Y-21917988D01*
X75232756Y-21757047D01*
X74820279Y-21675000D01*
X74399721Y-21675000D01*
X73987244Y-21757047D01*
X73598698Y-21917988D01*
X73249017Y-22151637D01*
X72951637Y-22449017D01*
X72717988Y-22798698D01*
X72557047Y-23187244D01*
X72475000Y-23599721D01*
X58477364Y-23599721D01*
X58481951Y-23598189D01*
X58716696Y-23472715D01*
X58842571Y-23182777D01*
X57708800Y-22049005D01*
X56575029Y-23182777D01*
X48453971Y-23182777D01*
X47320200Y-22049005D01*
X46186429Y-23182777D01*
X44924100Y-23182777D01*
X44931095Y-20660000D01*
X45931192Y-20660000D01*
X46006822Y-20735630D01*
G37*
X46006822Y-20735630D02*
X45716885Y-20861504D01*
X45551061Y-21193662D01*
X45453225Y-21551787D01*
X45427135Y-21922119D01*
X45473795Y-22290425D01*
X45591411Y-22642551D01*
X45716885Y-22877296D01*
X46006823Y-23003171D01*
X47140595Y-21869400D01*
X47126452Y-21855258D01*
X47306058Y-21675652D01*
X47320200Y-21689795D01*
X47334342Y-21675652D01*
X47513948Y-21855258D01*
X47499805Y-21869400D01*
X48633577Y-23003171D01*
X48923515Y-22877296D01*
X49089339Y-22545138D01*
X49187175Y-22187013D01*
X49213265Y-21816681D01*
X49166605Y-21448375D01*
X49048989Y-21096249D01*
X48923515Y-20861504D01*
X48633578Y-20735630D01*
X48709208Y-20660000D01*
X56319792Y-20660000D01*
X56395422Y-20735630D01*
X56105485Y-20861504D01*
X55939661Y-21193662D01*
X55841825Y-21551787D01*
X55815735Y-21922119D01*
X55862395Y-22290425D01*
X55980011Y-22642551D01*
X56105485Y-22877296D01*
X56395423Y-23003171D01*
X57529195Y-21869400D01*
X57515052Y-21855258D01*
X57694658Y-21675652D01*
X57708800Y-21689795D01*
X57722942Y-21675652D01*
X57902548Y-21855258D01*
X57888405Y-21869400D01*
X59022177Y-23003171D01*
X59312115Y-22877296D01*
X59477939Y-22545138D01*
X59575775Y-22187013D01*
X59601865Y-21816681D01*
X59555205Y-21448375D01*
X59437589Y-21096249D01*
X59312115Y-20861504D01*
X59022178Y-20735630D01*
X59097808Y-20660000D01*
X77760000Y-20660000D01*
X77760001Y-47280000D01*
X59097808Y-47280000D01*
X59022178Y-47204370D01*
X59312115Y-47078496D01*
X59477939Y-46746338D01*
X59575775Y-46388213D01*
X59601865Y-46017881D01*
X59555205Y-45649575D01*
X59437589Y-45297449D01*
X59312115Y-45062704D01*
X59022177Y-44936829D01*
X57888405Y-46070600D01*
X57902548Y-46084742D01*
X57722942Y-46264348D01*
X57708800Y-46250205D01*
X57694658Y-46264348D01*
X57515052Y-46084742D01*
X57529195Y-46070600D01*
X56395423Y-44936829D01*
X56105485Y-45062704D01*
X55939661Y-45394862D01*
X55841825Y-45752987D01*
X55815735Y-46123319D01*
X55862395Y-46491625D01*
X55980011Y-46843751D01*
X56105485Y-47078496D01*
X56395422Y-47204370D01*
X56319792Y-47280000D01*
X48709208Y-47280000D01*
X48633578Y-47204370D01*
X48923515Y-47078496D01*
X49089339Y-46746338D01*
X49187175Y-46388213D01*
X49213265Y-46017881D01*
X49166605Y-45649575D01*
X49048989Y-45297449D01*
X48923515Y-45062704D01*
X48633577Y-44936829D01*
X47499805Y-46070600D01*
X47513948Y-46084742D01*
X47334342Y-46264348D01*
X47320200Y-46250205D01*
X47306058Y-46264348D01*
X47126452Y-46084742D01*
X47140595Y-46070600D01*
X46006823Y-44936829D01*
X45716885Y-45062704D01*
X45551061Y-45394862D01*
X45453225Y-45752987D01*
X45427135Y-46123319D01*
X45473795Y-46491625D01*
X45591411Y-46843751D01*
X45716885Y-47078496D01*
X46006822Y-47204370D01*
X45931192Y-47280000D01*
X44857288Y-47280000D01*
X44864282Y-44757223D01*
X46186429Y-44757223D01*
X47320200Y-45890995D01*
X48453971Y-44757223D01*
X56575029Y-44757223D01*
X57708800Y-45890995D01*
X58842571Y-44757223D01*
X58716696Y-44467285D01*
X58384538Y-44301461D01*
X58026413Y-44203625D01*
X57656081Y-44177535D01*
X57287775Y-44224195D01*
X56935649Y-44341811D01*
X56700904Y-44467285D01*
X56575029Y-44757223D01*
X48453971Y-44757223D01*
X48328096Y-44467285D01*
X47995938Y-44301461D01*
X47637813Y-44203625D01*
X47267481Y-44177535D01*
X46899175Y-44224195D01*
X46547049Y-44341811D01*
X46312304Y-44467285D01*
X46186429Y-44757223D01*
X44864282Y-44757223D01*
X44866604Y-43919721D01*
X72475000Y-43919721D01*
X72475000Y-44340279D01*
X72557047Y-44752756D01*
X72717988Y-45141302D01*
X72951637Y-45490983D01*
X73249017Y-45788363D01*
X73598698Y-46022012D01*
X73987244Y-46182953D01*
X74399721Y-46265000D01*
X74820279Y-46265000D01*
X75232756Y-46182953D01*
X75621302Y-46022012D01*
X75970983Y-45788363D01*
X76268363Y-45490983D01*
X76502012Y-45141302D01*
X76662953Y-44752756D01*
X76745000Y-44340279D01*
X76745000Y-43919721D01*
X76662953Y-43507244D01*
X76502012Y-43118698D01*
X76268363Y-42769017D01*
X75970983Y-42471637D01*
X75621302Y-42237988D01*
X75232756Y-42077047D01*
X74820279Y-41995000D01*
X74399721Y-41995000D01*
X73987244Y-42077047D01*
X73598698Y-42237988D01*
X73249017Y-42471637D01*
X72951637Y-42769017D01*
X72717988Y-43118698D01*
X72557047Y-43507244D01*
X72475000Y-43919721D01*
X44866604Y-43919721D01*
X44867675Y-43533600D01*
X62940886Y-43533600D01*
X62940886Y-43169260D01*
X63064485Y-43251847D01*
X63389335Y-43386404D01*
X63734193Y-43455000D01*
X64085807Y-43455000D01*
X64430665Y-43386404D01*
X64755515Y-43251847D01*
X65047871Y-43056500D01*
X65296500Y-42807871D01*
X65491847Y-42515515D01*
X65626404Y-42190665D01*
X65695000Y-41845807D01*
X65695000Y-41494193D01*
X65664997Y-41343358D01*
X66778355Y-40230000D01*
X70247128Y-40230000D01*
X70247128Y-40420000D01*
X70259388Y-40544482D01*
X70295698Y-40664180D01*
X70354663Y-40774494D01*
X70434015Y-40871185D01*
X70530706Y-40950537D01*
X70641020Y-41009502D01*
X70760718Y-41045812D01*
X70885200Y-41058072D01*
X73285200Y-41058072D01*
X73409682Y-41045812D01*
X73529380Y-41009502D01*
X73639694Y-40950537D01*
X73736385Y-40871185D01*
X73815737Y-40774494D01*
X73874702Y-40664180D01*
X73911012Y-40544482D01*
X73923272Y-40420000D01*
X73923272Y-38020000D01*
X73911012Y-37895518D01*
X73874702Y-37775820D01*
X73815737Y-37665506D01*
X73736385Y-37568815D01*
X73639694Y-37489463D01*
X73529380Y-37430498D01*
X73409682Y-37394188D01*
X73285200Y-37381928D01*
X73095200Y-37381928D01*
X73095200Y-37252076D01*
X73254944Y-37145338D01*
X73510538Y-36889744D01*
X73711356Y-36589199D01*
X73849682Y-36255250D01*
X73920200Y-35900732D01*
X73920200Y-35539268D01*
X73849682Y-35184750D01*
X73711356Y-34850801D01*
X73510538Y-34550256D01*
X73254944Y-34294662D01*
X72954399Y-34093844D01*
X72655413Y-33970000D01*
X72954399Y-33846156D01*
X73254944Y-33645338D01*
X73510538Y-33389744D01*
X73711356Y-33089199D01*
X73849682Y-32755250D01*
X73920200Y-32400732D01*
X73920200Y-32039268D01*
X73849682Y-31684750D01*
X73711356Y-31350801D01*
X73510538Y-31050256D01*
X73254944Y-30794662D01*
X73095200Y-30687924D01*
X73095200Y-30252076D01*
X73254944Y-30145338D01*
X73510538Y-29889744D01*
X73711356Y-29589199D01*
X73849682Y-29255250D01*
X73920200Y-28900732D01*
X73920200Y-28539268D01*
X73849682Y-28184750D01*
X73711356Y-27850801D01*
X73510538Y-27550256D01*
X73254944Y-27294662D01*
X72954399Y-27093844D01*
X72620450Y-26955518D01*
X72265932Y-26885000D01*
X71904468Y-26885000D01*
X71549950Y-26955518D01*
X71216001Y-27093844D01*
X70915456Y-27294662D01*
X70659862Y-27550256D01*
X70553124Y-27710000D01*
X66778355Y-27710000D01*
X65664997Y-26596642D01*
X65695000Y-26445807D01*
X65695000Y-26094193D01*
X65626404Y-25749335D01*
X65491847Y-25424485D01*
X65296500Y-25132129D01*
X65047871Y-24883500D01*
X64755515Y-24688153D01*
X64430665Y-24553596D01*
X64085807Y-24485000D01*
X63734193Y-24485000D01*
X63389335Y-24553596D01*
X63064485Y-24688153D01*
X62772129Y-24883500D01*
X62523500Y-25132129D01*
X62328153Y-25424485D01*
X62193596Y-25749335D01*
X62125000Y-26094193D01*
X62125000Y-26445807D01*
X62193596Y-26790665D01*
X62328153Y-27115515D01*
X62523500Y-27407871D01*
X62772129Y-27656500D01*
X63064485Y-27851847D01*
X63389335Y-27986404D01*
X63734193Y-28055000D01*
X64085807Y-28055000D01*
X64236642Y-28024997D01*
X65610739Y-29399094D01*
X65642367Y-29437633D01*
X65796160Y-29563847D01*
X65971620Y-29657632D01*
X66162006Y-29715385D01*
X66310392Y-29730000D01*
X66310394Y-29730000D01*
X66359999Y-29734886D01*
X66409604Y-29730000D01*
X70553124Y-29730000D01*
X70659862Y-29889744D01*
X70915456Y-30145338D01*
X71075200Y-30252076D01*
X71075201Y-30687924D01*
X70915456Y-30794662D01*
X70659862Y-31050256D01*
X70459044Y-31350801D01*
X70320718Y-31684750D01*
X70250200Y-32039268D01*
X70250200Y-32400732D01*
X70320718Y-32755250D01*
X70459044Y-33089199D01*
X70659862Y-33389744D01*
X70915456Y-33645338D01*
X71216001Y-33846156D01*
X71514987Y-33970000D01*
X71216001Y-34093844D01*
X70915456Y-34294662D01*
X70659862Y-34550256D01*
X70459044Y-34850801D01*
X70320718Y-35184750D01*
X70250200Y-35539268D01*
X70250200Y-35900732D01*
X70320718Y-36255250D01*
X70459044Y-36589199D01*
X70659862Y-36889744D01*
X70915456Y-37145338D01*
X71075200Y-37252076D01*
X71075200Y-37381928D01*
X70885200Y-37381928D01*
X70760718Y-37394188D01*
X70641020Y-37430498D01*
X70530706Y-37489463D01*
X70434015Y-37568815D01*
X70354663Y-37665506D01*
X70295698Y-37775820D01*
X70259388Y-37895518D01*
X70247128Y-38020000D01*
X70247128Y-38210000D01*
X66409604Y-38210000D01*
X66359999Y-38205114D01*
X66310394Y-38210000D01*
X66310392Y-38210000D01*
X66162006Y-38224615D01*
X65971620Y-38282368D01*
X65796160Y-38376153D01*
X65642367Y-38502367D01*
X65610739Y-38540906D01*
X64236642Y-39915003D01*
X64085807Y-39885000D01*
X63734193Y-39885000D01*
X63389335Y-39953596D01*
X63064485Y-40088153D01*
X62940886Y-40170740D01*
X62940886Y-39713600D01*
X55968384Y-39713600D01*
X56022883Y-39658509D01*
X56022889Y-39658504D01*
X56022973Y-39658417D01*
X56023156Y-39658233D01*
X56023167Y-39658219D01*
X56029133Y-39652111D01*
X56096255Y-39582420D01*
X56097560Y-39580769D01*
X56099157Y-39579388D01*
X56105268Y-39572868D01*
X56158863Y-39514887D01*
X56164249Y-39507778D01*
X56170747Y-39501667D01*
X56176581Y-39494898D01*
X56212085Y-39453118D01*
X56238205Y-39415477D01*
X56266250Y-39379257D01*
X56270952Y-39371658D01*
X56283802Y-39350567D01*
X56301787Y-39313281D01*
X56322203Y-39277248D01*
X56328869Y-39257133D01*
X56338067Y-39238064D01*
X56348466Y-39198001D01*
X56361496Y-39158683D01*
X56364127Y-39137662D01*
X56369448Y-39117164D01*
X56371869Y-39075823D01*
X56377011Y-39034744D01*
X56375510Y-39013624D01*
X56376749Y-38992472D01*
X56371093Y-38951450D01*
X56368159Y-38910152D01*
X56366597Y-38901354D01*
X56365856Y-38897342D01*
X56361785Y-38883205D01*
X56359868Y-38868626D01*
X56344534Y-38823297D01*
X56331292Y-38777313D01*
X56324557Y-38764244D01*
X56319842Y-38750307D01*
X56316109Y-38742188D01*
X56300816Y-38709527D01*
X56288986Y-38689596D01*
X56279695Y-38668363D01*
X56275276Y-38660596D01*
X56242607Y-38604088D01*
X56239034Y-38599104D01*
X56236392Y-38593571D01*
X56231719Y-38585954D01*
X56184831Y-38510704D01*
X56183551Y-38509037D01*
X56182603Y-38507153D01*
X56177774Y-38499634D01*
X56119823Y-38410746D01*
X56119280Y-38410068D01*
X56118871Y-38409288D01*
X56113918Y-38401850D01*
X56048062Y-38304429D01*
X56047957Y-38304302D01*
X56045271Y-38300335D01*
X56027162Y-38273989D01*
X55992187Y-38222995D01*
X55993959Y-38218299D01*
X56003082Y-38195008D01*
X56060022Y-38184375D01*
X56213471Y-38156267D01*
X56213560Y-38156241D01*
X56215107Y-38155965D01*
X56247179Y-38150004D01*
X56247244Y-38149985D01*
X56247316Y-38149979D01*
X56256090Y-38148282D01*
X56347967Y-38129854D01*
X56351124Y-38128892D01*
X56354408Y-38128528D01*
X56363138Y-38126620D01*
X56440424Y-38109160D01*
X56447846Y-38106701D01*
X56455578Y-38105542D01*
X56464228Y-38103301D01*
X56519599Y-38088542D01*
X56550116Y-38077117D01*
X56581577Y-38068595D01*
X56589911Y-38065369D01*
X56616042Y-38055046D01*
X56634885Y-38045380D01*
X56636576Y-38044747D01*
X56638803Y-38043370D01*
X56651473Y-38036871D01*
X56688115Y-38021251D01*
X56706925Y-38008426D01*
X56727179Y-37998036D01*
X56758405Y-37973325D01*
X56791315Y-37950886D01*
X56807277Y-37934650D01*
X56825126Y-37920525D01*
X56850966Y-37890211D01*
X56878882Y-37861815D01*
X56891380Y-37842798D01*
X56906153Y-37825467D01*
X56916533Y-37806926D01*
X56920853Y-37801552D01*
X56930035Y-37783981D01*
X56947482Y-37757434D01*
X56951582Y-37749493D01*
X56955954Y-37740880D01*
X56961570Y-37726485D01*
X56967172Y-37716479D01*
X56970254Y-37707018D01*
X56978703Y-37690850D01*
X56988604Y-37657190D01*
X57001351Y-37624516D01*
X57006182Y-37597429D01*
X57013950Y-37571021D01*
X57015562Y-37562231D01*
X57022850Y-37520860D01*
X57024724Y-37496452D01*
X57029486Y-37472434D01*
X57030297Y-37463535D01*
X57036073Y-37394949D01*
X57035974Y-37387747D01*
X57037118Y-37380628D01*
X57037606Y-37371705D01*
X57041865Y-37282333D01*
X57041748Y-37279998D01*
X57042070Y-37277680D01*
X57042367Y-37268749D01*
X57045104Y-37165016D01*
X57045068Y-37164513D01*
X57045130Y-37164010D01*
X57045289Y-37155075D01*
X57046498Y-37043601D01*
X57046499Y-37043591D01*
X57046535Y-37034655D01*
X57046215Y-36921477D01*
X57046205Y-36921374D01*
X57046215Y-36921264D01*
X57046124Y-36912329D01*
X57044270Y-36804067D01*
X57044126Y-36802820D01*
X57044223Y-36801560D01*
X57043972Y-36792627D01*
X57040578Y-36695709D01*
X57040011Y-36691466D01*
X57040223Y-36687187D01*
X57039729Y-36678265D01*
X57034792Y-36599116D01*
X57032684Y-36586058D01*
X57032608Y-36572834D01*
X57031623Y-36563953D01*
X57025138Y-36509000D01*
X57012342Y-36450464D01*
X56999999Y-36391781D01*
X56998497Y-36387126D01*
X56998464Y-36386975D01*
X56998403Y-36386835D01*
X56997255Y-36383277D01*
X56989218Y-36358945D01*
X56983630Y-36346322D01*
X56980020Y-36332984D01*
X56958380Y-36289284D01*
X56938656Y-36244730D01*
X56930721Y-36233431D01*
X56924590Y-36221050D01*
X56894873Y-36182385D01*
X56866872Y-36142512D01*
X56856895Y-36132970D01*
X56848475Y-36122015D01*
X56811833Y-36089875D01*
X56776602Y-36056182D01*
X56764950Y-36048753D01*
X56754572Y-36039650D01*
X56712392Y-36015243D01*
X56671281Y-35989031D01*
X56658416Y-35984010D01*
X56646461Y-35977092D01*
X56638301Y-35973450D01*
X56630094Y-35969855D01*
X56591112Y-35957147D01*
X56553067Y-35941843D01*
X56544473Y-35939393D01*
X56503651Y-35928063D01*
X56494612Y-35926483D01*
X56485955Y-35923422D01*
X56477264Y-35921340D01*
X56408259Y-35905314D01*
X56406868Y-35905132D01*
X56405528Y-35904685D01*
X56396800Y-35902763D01*
X56305122Y-35883236D01*
X56305041Y-35883227D01*
X56297664Y-35881694D01*
X56188817Y-35859861D01*
X56188683Y-35859848D01*
X56182652Y-35858656D01*
X56062144Y-35835712D01*
X56062018Y-35835701D01*
X56059663Y-35835245D01*
X55994926Y-35823184D01*
X55976035Y-35819623D01*
X56024805Y-35748179D01*
X56062294Y-35693357D01*
X56062370Y-35693219D01*
X56064928Y-35689475D01*
X56130140Y-35592597D01*
X56130195Y-35592496D01*
X56133956Y-35586862D01*
X56189867Y-35501840D01*
X56189987Y-35501611D01*
X56190152Y-35501407D01*
X56195003Y-35493902D01*
X56238633Y-35425371D01*
X56240629Y-35421435D01*
X56243307Y-35417918D01*
X56247949Y-35410281D01*
X56276313Y-35362879D01*
X56288335Y-35337440D01*
X56303026Y-35313431D01*
X56306867Y-35305363D01*
X56316985Y-35283726D01*
X56326664Y-35256335D01*
X56329682Y-35249949D01*
X56331551Y-35242505D01*
X56336271Y-35229148D01*
X56356366Y-35174751D01*
X56357086Y-35170244D01*
X56358601Y-35165956D01*
X56366915Y-35108699D01*
X56376065Y-35051408D01*
X56375896Y-35046851D01*
X56376550Y-35042346D01*
X56373581Y-34984491D01*
X56371432Y-34926587D01*
X56370383Y-34922157D01*
X56370149Y-34917604D01*
X56355985Y-34861373D01*
X56342642Y-34805044D01*
X56340753Y-34800903D01*
X56339639Y-34796482D01*
X56314837Y-34744104D01*
X56299107Y-34709627D01*
X56295393Y-34700609D01*
X56294111Y-34698678D01*
X56290794Y-34691408D01*
X56286255Y-34683710D01*
X56279224Y-34671974D01*
X56251793Y-34634938D01*
X56226306Y-34596549D01*
X56220612Y-34589662D01*
X56191205Y-34554593D01*
X56185241Y-34548749D01*
X56180348Y-34541982D01*
X56174383Y-34535328D01*
X56126139Y-34482255D01*
X56125362Y-34481552D01*
X56124729Y-34480708D01*
X56118651Y-34474158D01*
X56055999Y-34407577D01*
X56055906Y-34407496D01*
X56051395Y-34402736D01*
X55978763Y-34327145D01*
X55978645Y-34327044D01*
X55975277Y-34323545D01*
X55897093Y-34243443D01*
X55896974Y-34243342D01*
X55893939Y-34240234D01*
X55814633Y-34160116D01*
X55814509Y-34160013D01*
X55811249Y-34156723D01*
X55735251Y-34081088D01*
X55735145Y-34081002D01*
X55730906Y-34076805D01*
X55662642Y-34010149D01*
X55662432Y-34009980D01*
X55662256Y-34009772D01*
X55655813Y-34003580D01*
X55599711Y-33950399D01*
X55595438Y-33947076D01*
X55591824Y-33943048D01*
X55585194Y-33937057D01*
X55545684Y-33901851D01*
X55517033Y-33880956D01*
X55490254Y-33857713D01*
X55482930Y-33852593D01*
X55464441Y-33839859D01*
X55448858Y-33831237D01*
X55444764Y-33828251D01*
X55443893Y-33827847D01*
X55431514Y-33818637D01*
X55392728Y-33800179D01*
X55355149Y-33779386D01*
X55336459Y-33773401D01*
X55318728Y-33764963D01*
X55277079Y-33754386D01*
X55236194Y-33741294D01*
X55216701Y-33739053D01*
X55197664Y-33734219D01*
X55154762Y-33731934D01*
X55112105Y-33727031D01*
X55092540Y-33728620D01*
X55072935Y-33727576D01*
X55030418Y-33733666D01*
X54987608Y-33737143D01*
X54968721Y-33742503D01*
X54949291Y-33745286D01*
X54908768Y-33759517D01*
X54867447Y-33771244D01*
X54849964Y-33780169D01*
X54831441Y-33786674D01*
X54823366Y-33790500D01*
X54813101Y-33795451D01*
X54790160Y-33809428D01*
X54765799Y-33820764D01*
X54758136Y-33825361D01*
X54720449Y-33848325D01*
X54717899Y-33850244D01*
X54715038Y-33851659D01*
X54707487Y-33856437D01*
X54646669Y-33895518D01*
X54646574Y-33895593D01*
X54640951Y-33899236D01*
X54561386Y-33951570D01*
X54561264Y-33951669D01*
X54557671Y-33954032D01*
X54463741Y-34016756D01*
X54463624Y-34016852D01*
X54460708Y-34018794D01*
X54356798Y-34089043D01*
X54356724Y-34089104D01*
X54355369Y-34090012D01*
X54286476Y-34136859D01*
X54270736Y-34053366D01*
X54270735Y-34053362D01*
X54186916Y-33608743D01*
X54186721Y-33608075D01*
X54186658Y-33607383D01*
X54169215Y-33548118D01*
X54151909Y-33488843D01*
X54151589Y-33488227D01*
X54151392Y-33487559D01*
X54122794Y-33432857D01*
X54094280Y-33378026D01*
X54093844Y-33377482D01*
X54093523Y-33376867D01*
X54054936Y-33328874D01*
X54016225Y-33280512D01*
X54015691Y-33280062D01*
X54015257Y-33279522D01*
X53967878Y-33239767D01*
X53920714Y-33200018D01*
X53920109Y-33199684D01*
X53919573Y-33199234D01*
X53865167Y-33169324D01*
X53811388Y-33139607D01*
X53810729Y-33139396D01*
X53810117Y-33139060D01*
X53751272Y-33120394D01*
X53692412Y-33101582D01*
X53691718Y-33101503D01*
X53691057Y-33101293D01*
X53629734Y-33094414D01*
X53568314Y-33087390D01*
X53567622Y-33087447D01*
X53566930Y-33087369D01*
X53557994Y-33087307D01*
X52632546Y-33087307D01*
X52631857Y-33087375D01*
X52631163Y-33087308D01*
X52569578Y-33093481D01*
X52508236Y-33099496D01*
X52507571Y-33099697D01*
X52506880Y-33099766D01*
X52447714Y-33117769D01*
X52388661Y-33135598D01*
X52388049Y-33135923D01*
X52387383Y-33136126D01*
X52332933Y-33165229D01*
X52278375Y-33194237D01*
X52277835Y-33194677D01*
X52277224Y-33195004D01*
X52229352Y-33234219D01*
X52181580Y-33273182D01*
X52181140Y-33273714D01*
X52180599Y-33274157D01*
X52141060Y-33322162D01*
X52101962Y-33369424D01*
X52101634Y-33370031D01*
X52101189Y-33370571D01*
X52071807Y-33425195D01*
X52042554Y-33479297D01*
X52042349Y-33479960D01*
X52042019Y-33480573D01*
X52023838Y-33539757D01*
X52005618Y-33598617D01*
X52005546Y-33599306D01*
X52005341Y-33599972D01*
X52003624Y-33608742D01*
X51919803Y-34053366D01*
X51919803Y-34053367D01*
X51904063Y-34136859D01*
X51835169Y-34090012D01*
X51835115Y-34089982D01*
X51834198Y-34089352D01*
X51760761Y-34039612D01*
X51760639Y-34039545D01*
X51758317Y-34037965D01*
X51660962Y-33972677D01*
X51660824Y-33972603D01*
X51657631Y-33970458D01*
X51573343Y-33914694D01*
X51573207Y-33914622D01*
X51568595Y-33911584D01*
X51501752Y-33868208D01*
X51500819Y-33867725D01*
X51499990Y-33867068D01*
X51492444Y-33862281D01*
X51447421Y-33834156D01*
X51431439Y-33826225D01*
X51416717Y-33816143D01*
X51408857Y-33811892D01*
X51390033Y-33801882D01*
X51375388Y-33795844D01*
X51361780Y-33787740D01*
X51317753Y-33772083D01*
X51274556Y-33754274D01*
X51259022Y-33751197D01*
X51244094Y-33745888D01*
X51197855Y-33739080D01*
X51152030Y-33730002D01*
X51136192Y-33730000D01*
X51120520Y-33727693D01*
X51073857Y-33729994D01*
X51027124Y-33729990D01*
X51011584Y-33733066D01*
X50995766Y-33733846D01*
X50950429Y-33745170D01*
X50904595Y-33754242D01*
X50889952Y-33760276D01*
X50874582Y-33764115D01*
X50832306Y-33784030D01*
X50789109Y-33801830D01*
X50776147Y-33810440D01*
X50769600Y-33813247D01*
X50768094Y-33814278D01*
X50761586Y-33817344D01*
X50753944Y-33821976D01*
X50742383Y-33829095D01*
X50705131Y-33857396D01*
X50694498Y-33864677D01*
X50685067Y-33870942D01*
X50684438Y-33871566D01*
X50666543Y-33883821D01*
X50659738Y-33889613D01*
X50625181Y-33919446D01*
X50619359Y-33925560D01*
X50612587Y-33930610D01*
X50606021Y-33936672D01*
X50553723Y-33985630D01*
X50553006Y-33986447D01*
X50552140Y-33987116D01*
X50545681Y-33993291D01*
X50480075Y-34056879D01*
X50479997Y-34056970D01*
X50475278Y-34061577D01*
X50400795Y-34135300D01*
X50400695Y-34135420D01*
X50397235Y-34138851D01*
X50318305Y-34218213D01*
X50318203Y-34218338D01*
X50315125Y-34221434D01*
X50236182Y-34301940D01*
X50236084Y-34302062D01*
X50232830Y-34305384D01*
X50158302Y-34382538D01*
X50158217Y-34382645D01*
X50154069Y-34386962D01*
X50088390Y-34456270D01*
X50088220Y-34456489D01*
X50088008Y-34456673D01*
X50081913Y-34463208D01*
X50029513Y-34520172D01*
X50026253Y-34524496D01*
X50022269Y-34528180D01*
X50016378Y-34534899D01*
X49981688Y-34575026D01*
X49961333Y-34603835D01*
X49938601Y-34630800D01*
X49933588Y-34638197D01*
X49921040Y-34656990D01*
X49912531Y-34672906D01*
X49909611Y-34677038D01*
X49906031Y-34685064D01*
X49899968Y-34696403D01*
X49876723Y-34734598D01*
X49870573Y-34751384D01*
X49862148Y-34767141D01*
X49849133Y-34809896D01*
X49833750Y-34851880D01*
X49830977Y-34869543D01*
X49825774Y-34886634D01*
X49821311Y-34931102D01*
X49814375Y-34975274D01*
X49815085Y-34993131D01*
X49813300Y-35010915D01*
X49817561Y-35055416D01*
X49819337Y-35100082D01*
X49823503Y-35117465D01*
X49825206Y-35135253D01*
X49838024Y-35178063D01*
X49840764Y-35189497D01*
X49845166Y-35210754D01*
X49846766Y-35214543D01*
X49848445Y-35221548D01*
X49851425Y-35229973D01*
X49854344Y-35238046D01*
X49858759Y-35247312D01*
X49861034Y-35254910D01*
X49874634Y-35280628D01*
X49875040Y-35281480D01*
X49893766Y-35325816D01*
X49898085Y-35333640D01*
X49918296Y-35369658D01*
X49924098Y-35377976D01*
X49928468Y-35387134D01*
X49933139Y-35394753D01*
X49970047Y-35454027D01*
X49971098Y-35455396D01*
X49971875Y-35456947D01*
X49976692Y-35464474D01*
X50027306Y-35542360D01*
X50027341Y-35542404D01*
X50031681Y-35549003D01*
X50093007Y-35640854D01*
X50093085Y-35640950D01*
X50096653Y-35646256D01*
X50165699Y-35747425D01*
X50165762Y-35747500D01*
X50166749Y-35748959D01*
X50203617Y-35802643D01*
X50215060Y-35819508D01*
X50130496Y-35835316D01*
X50130458Y-35835327D01*
X50129828Y-35835441D01*
X50067048Y-35847246D01*
X50066900Y-35847289D01*
X50062534Y-35848111D01*
X49947305Y-35870636D01*
X49947189Y-35870671D01*
X49940676Y-35871969D01*
X49839926Y-35892771D01*
X49839823Y-35892803D01*
X49839702Y-35892816D01*
X49830964Y-35894688D01*
X49750200Y-35912573D01*
X49746437Y-35913802D01*
X49742513Y-35914325D01*
X49733827Y-35916425D01*
X49678555Y-35930198D01*
X49655187Y-35938516D01*
X49630991Y-35944025D01*
X49622533Y-35946910D01*
X49598260Y-35955376D01*
X49566378Y-35970127D01*
X49560881Y-35972083D01*
X49556480Y-35974706D01*
X49553102Y-35976268D01*
X49507126Y-35995356D01*
X49496497Y-36002457D01*
X49484899Y-36007823D01*
X49444659Y-36037089D01*
X49403266Y-36064743D01*
X49394218Y-36073774D01*
X49383884Y-36081290D01*
X49350082Y-36117828D01*
X49348791Y-36119117D01*
X49347422Y-36120265D01*
X49346535Y-36121368D01*
X49314861Y-36152983D01*
X49307745Y-36163591D01*
X49299061Y-36172978D01*
X49279689Y-36204502D01*
X49269152Y-36217606D01*
X49260818Y-36233547D01*
X49245279Y-36256712D01*
X49241104Y-36264613D01*
X49236744Y-36273005D01*
X49235151Y-36276978D01*
X49233664Y-36279397D01*
X49227212Y-36296771D01*
X49225400Y-36301290D01*
X49211280Y-36328297D01*
X49202208Y-36359118D01*
X49190249Y-36388935D01*
X49184616Y-36418880D01*
X49176009Y-36448119D01*
X49174396Y-36456908D01*
X49167164Y-36497914D01*
X49165256Y-36522703D01*
X49160444Y-36547100D01*
X49159641Y-36556000D01*
X49153958Y-36624296D01*
X49154065Y-36631584D01*
X49152917Y-36638788D01*
X49152441Y-36647711D01*
X49148305Y-36736873D01*
X49148426Y-36739230D01*
X49148104Y-36741572D01*
X49147819Y-36750503D01*
X49145224Y-36854102D01*
X49145261Y-36854611D01*
X49145199Y-36855121D01*
X49145052Y-36864056D01*
X49143995Y-36975482D01*
X49143994Y-36975489D01*
X49143994Y-36975592D01*
X49143993Y-36975668D01*
X49143994Y-36975674D01*
X49143970Y-36984426D01*
X49144445Y-37097624D01*
X49144455Y-37097720D01*
X49144445Y-37097825D01*
X49144548Y-37106760D01*
X49146550Y-37215118D01*
X49146694Y-37216349D01*
X49146600Y-37217590D01*
X49146863Y-37226523D01*
X49150389Y-37323616D01*
X49150956Y-37327818D01*
X49150751Y-37332058D01*
X49151255Y-37340980D01*
X49156301Y-37420380D01*
X49158397Y-37433271D01*
X49158481Y-37446325D01*
X49159472Y-37455206D01*
X49166032Y-37510488D01*
X49178579Y-37567710D01*
X49190424Y-37625065D01*
X49192767Y-37632419D01*
X49192784Y-37632496D01*
X49192812Y-37632561D01*
X49193137Y-37633580D01*
X49201208Y-37658318D01*
X49218826Y-37698510D01*
X49234089Y-37739698D01*
X49243860Y-37755623D01*
X49251353Y-37772716D01*
X49276438Y-37808715D01*
X49299414Y-37846160D01*
X49312094Y-37859885D01*
X49322763Y-37875196D01*
X49354374Y-37905649D01*
X49384175Y-37937906D01*
X49399269Y-37948899D01*
X49412717Y-37961855D01*
X49449641Y-37985588D01*
X49485139Y-38011442D01*
X49492873Y-38015918D01*
X49497772Y-38018708D01*
X49508914Y-38023684D01*
X49517791Y-38029390D01*
X49551204Y-38042572D01*
X49552343Y-38043081D01*
X49606788Y-38067942D01*
X49611678Y-38069582D01*
X49611820Y-38069645D01*
X49611968Y-38069679D01*
X49615261Y-38070783D01*
X49651789Y-38082752D01*
X49669870Y-38086774D01*
X49687241Y-38093246D01*
X49695896Y-38095472D01*
X49759261Y-38111308D01*
X49764797Y-38112129D01*
X49770107Y-38113919D01*
X49778827Y-38115873D01*
X49861707Y-38133842D01*
X49864479Y-38134164D01*
X49867150Y-38134998D01*
X49875912Y-38136754D01*
X49970980Y-38155121D01*
X49971102Y-38155132D01*
X49977553Y-38156355D01*
X50009162Y-38162120D01*
X50155653Y-38189022D01*
X50187428Y-38194990D01*
X50198358Y-38223003D01*
X50145065Y-38300633D01*
X50145044Y-38300670D01*
X50144645Y-38301245D01*
X50126428Y-38327847D01*
X50126359Y-38327973D01*
X50123112Y-38332737D01*
X50059056Y-38428156D01*
X50058787Y-38428656D01*
X50058421Y-38429102D01*
X50053506Y-38436565D01*
X49998146Y-38521902D01*
X49997157Y-38523813D01*
X49995824Y-38525507D01*
X49991064Y-38533070D01*
X49947562Y-38603262D01*
X49944314Y-38609867D01*
X49939980Y-38615815D01*
X49935502Y-38623548D01*
X49907017Y-38673537D01*
X49892792Y-38705375D01*
X49875864Y-38735870D01*
X49872368Y-38744094D01*
X49862060Y-38768816D01*
X49856854Y-38785807D01*
X49856063Y-38787578D01*
X49855332Y-38790775D01*
X49850449Y-38806715D01*
X49836149Y-38843706D01*
X49832190Y-38866310D01*
X49825470Y-38888243D01*
X49821441Y-38927678D01*
X49814599Y-38966739D01*
X49815106Y-38989681D01*
X49812774Y-39012502D01*
X49816482Y-39051977D01*
X49817357Y-39091615D01*
X49822308Y-39114014D01*
X49824454Y-39136861D01*
X49829591Y-39154131D01*
X49830556Y-39161916D01*
X49837645Y-39183398D01*
X49844316Y-39213576D01*
X49847146Y-39222052D01*
X49849368Y-39228552D01*
X49856190Y-39243547D01*
X49860068Y-39256582D01*
X49864701Y-39265382D01*
X49869700Y-39280530D01*
X49886746Y-39310704D01*
X49901096Y-39342244D01*
X49916379Y-39363540D01*
X49918257Y-39367107D01*
X49919424Y-39368550D01*
X49931136Y-39389282D01*
X49936321Y-39396561D01*
X49959474Y-39428588D01*
X49976030Y-39447326D01*
X49990285Y-39467886D01*
X49996117Y-39474657D01*
X50041798Y-39526958D01*
X50047122Y-39531969D01*
X50051510Y-39537826D01*
X50057586Y-39544378D01*
X50122522Y-39613432D01*
X50124553Y-39615207D01*
X50126220Y-39617332D01*
X50132442Y-39623747D01*
X50213364Y-39706034D01*
X50214153Y-39706693D01*
X50214803Y-39707493D01*
X50220932Y-39713600D01*
X44878266Y-39713600D01*
X44924100Y-23182777D01*
X46186429Y-23182777D01*
X46312304Y-23472715D01*
X46644462Y-23638539D01*
X47002587Y-23736375D01*
X47372919Y-23762465D01*
X47741225Y-23715805D01*
X48093351Y-23598189D01*
X48328096Y-23472715D01*
X48453971Y-23182777D01*
X56575029Y-23182777D01*
X56700904Y-23472715D01*
X57033062Y-23638539D01*
X57391187Y-23736375D01*
X57761519Y-23762465D01*
X58129825Y-23715805D01*
X58477364Y-23599721D01*
X72475000Y-23599721D01*
X72475000Y-24020279D01*
X72557047Y-24432756D01*
X72717988Y-24821302D01*
X72951637Y-25170983D01*
X73249017Y-25468363D01*
X73598698Y-25702012D01*
X73987244Y-25862953D01*
X74399721Y-25945000D01*
X74820279Y-25945000D01*
X75232756Y-25862953D01*
X75621302Y-25702012D01*
X75970983Y-25468363D01*
X76268363Y-25170983D01*
X76502012Y-24821302D01*
X76662953Y-24432756D01*
X76745000Y-24020279D01*
X76745000Y-23599721D01*
X76662953Y-23187244D01*
X76502012Y-22798698D01*
X76268363Y-22449017D01*
X75970983Y-22151637D01*
X75621302Y-21917988D01*
X75232756Y-21757047D01*
X74820279Y-21675000D01*
X74399721Y-21675000D01*
X73987244Y-21757047D01*
X73598698Y-21917988D01*
X73249017Y-22151637D01*
X72951637Y-22449017D01*
X72717988Y-22798698D01*
X72557047Y-23187244D01*
X72475000Y-23599721D01*
X58477364Y-23599721D01*
X58481951Y-23598189D01*
X58716696Y-23472715D01*
X58842571Y-23182777D01*
X57708800Y-22049005D01*
X56575029Y-23182777D01*
X48453971Y-23182777D01*
X47320200Y-22049005D01*
X46186429Y-23182777D01*
X44924100Y-23182777D01*
X44931095Y-20660000D01*
X45931192Y-20660000D01*
X46006822Y-20735630D01*
M02*
