G04 #@! TF.GenerationSoftware,KiCad,Pcbnew,5.1.5-52549c5~86~ubuntu18.04.1*
G04 #@! TF.CreationDate,2020-10-04T22:30:17-05:00*
G04 #@! TF.ProjectId,D00,4430302e-6b69-4636-9164-5f7063625858,rev?*
G04 #@! TF.SameCoordinates,Original*
G04 #@! TF.FileFunction,Legend,Bot*
G04 #@! TF.FilePolarity,Positive*
%FSLAX46Y46*%
G04 Gerber Fmt 4.6, Leading zero omitted, Abs format (unit mm)*
G04 Created by KiCad (PCBNEW 5.1.5-52549c5~86~ubuntu18.04.1) date 2020-10-04 22:30:17*
%MOMM*%
%LPD*%
G04 APERTURE LIST*
%ADD10C,0.150000*%
%ADD11C,0.010000*%
G04 APERTURE END LIST*
D10*
X25392857Y-26194628D02*
X25392857Y-27694628D01*
X25750000Y-27694628D01*
X25964285Y-27623200D01*
X26107142Y-27480342D01*
X26178571Y-27337485D01*
X26250000Y-27051771D01*
X26250000Y-26837485D01*
X26178571Y-26551771D01*
X26107142Y-26408914D01*
X25964285Y-26266057D01*
X25750000Y-26194628D01*
X25392857Y-26194628D01*
X27178571Y-27694628D02*
X27321428Y-27694628D01*
X27464285Y-27623200D01*
X27535714Y-27551771D01*
X27607142Y-27408914D01*
X27678571Y-27123200D01*
X27678571Y-26766057D01*
X27607142Y-26480342D01*
X27535714Y-26337485D01*
X27464285Y-26266057D01*
X27321428Y-26194628D01*
X27178571Y-26194628D01*
X27035714Y-26266057D01*
X26964285Y-26337485D01*
X26892857Y-26480342D01*
X26821428Y-26766057D01*
X26821428Y-27123200D01*
X26892857Y-27408914D01*
X26964285Y-27551771D01*
X27035714Y-27623200D01*
X27178571Y-27694628D01*
X28607142Y-27694628D02*
X28750000Y-27694628D01*
X28892857Y-27623200D01*
X28964285Y-27551771D01*
X29035714Y-27408914D01*
X29107142Y-27123200D01*
X29107142Y-26766057D01*
X29035714Y-26480342D01*
X28964285Y-26337485D01*
X28892857Y-26266057D01*
X28750000Y-26194628D01*
X28607142Y-26194628D01*
X28464285Y-26266057D01*
X28392857Y-26337485D01*
X28321428Y-26480342D01*
X28250000Y-26766057D01*
X28250000Y-27123200D01*
X28321428Y-27408914D01*
X28392857Y-27551771D01*
X28464285Y-27623200D01*
X28607142Y-27694628D01*
X29392857Y-26051771D02*
X30535714Y-26051771D01*
X30892857Y-26980342D02*
X31392857Y-26980342D01*
X31607142Y-26194628D02*
X30892857Y-26194628D01*
X30892857Y-27694628D01*
X31607142Y-27694628D01*
X32964285Y-26194628D02*
X32250000Y-26194628D01*
X32250000Y-27694628D01*
X33464285Y-26980342D02*
X33964285Y-26980342D01*
X34178571Y-26194628D02*
X33464285Y-26194628D01*
X33464285Y-27694628D01*
X34178571Y-27694628D01*
X35678571Y-26337485D02*
X35607142Y-26266057D01*
X35392857Y-26194628D01*
X35250000Y-26194628D01*
X35035714Y-26266057D01*
X34892857Y-26408914D01*
X34821428Y-26551771D01*
X34750000Y-26837485D01*
X34750000Y-27051771D01*
X34821428Y-27337485D01*
X34892857Y-27480342D01*
X35035714Y-27623200D01*
X35250000Y-27694628D01*
X35392857Y-27694628D01*
X35607142Y-27623200D01*
X35678571Y-27551771D01*
X36107142Y-27694628D02*
X36964285Y-27694628D01*
X36535714Y-26194628D02*
X36535714Y-27694628D01*
X38321428Y-26194628D02*
X37821428Y-26908914D01*
X37464285Y-26194628D02*
X37464285Y-27694628D01*
X38035714Y-27694628D01*
X38178571Y-27623200D01*
X38250000Y-27551771D01*
X38321428Y-27408914D01*
X38321428Y-27194628D01*
X38250000Y-27051771D01*
X38178571Y-26980342D01*
X38035714Y-26908914D01*
X37464285Y-26908914D01*
X39250000Y-27694628D02*
X39535714Y-27694628D01*
X39678571Y-27623200D01*
X39821428Y-27480342D01*
X39892857Y-27194628D01*
X39892857Y-26694628D01*
X39821428Y-26408914D01*
X39678571Y-26266057D01*
X39535714Y-26194628D01*
X39250000Y-26194628D01*
X39107142Y-26266057D01*
X38964285Y-26408914D01*
X38892857Y-26694628D01*
X38892857Y-27194628D01*
X38964285Y-27480342D01*
X39107142Y-27623200D01*
X39250000Y-27694628D01*
X40535714Y-26194628D02*
X40535714Y-27694628D01*
X41392857Y-26194628D01*
X41392857Y-27694628D01*
X42107142Y-26194628D02*
X42107142Y-27694628D01*
X43678571Y-26337485D02*
X43607142Y-26266057D01*
X43392857Y-26194628D01*
X43250000Y-26194628D01*
X43035714Y-26266057D01*
X42892857Y-26408914D01*
X42821428Y-26551771D01*
X42750000Y-26837485D01*
X42750000Y-27051771D01*
X42821428Y-27337485D01*
X42892857Y-27480342D01*
X43035714Y-27623200D01*
X43250000Y-27694628D01*
X43392857Y-27694628D01*
X43607142Y-27623200D01*
X43678571Y-27551771D01*
D11*
G36*
X40764014Y-34865269D02*
G01*
X40847835Y-34420645D01*
X41157120Y-34293147D01*
X41466406Y-34165649D01*
X41837446Y-34417954D01*
X41941357Y-34488204D01*
X42035287Y-34550928D01*
X42114852Y-34603262D01*
X42175670Y-34642343D01*
X42213357Y-34665307D01*
X42223621Y-34670258D01*
X42242110Y-34657524D01*
X42281620Y-34622318D01*
X42337722Y-34569138D01*
X42405987Y-34502482D01*
X42481986Y-34426846D01*
X42561292Y-34346728D01*
X42639475Y-34266626D01*
X42712107Y-34191036D01*
X42774759Y-34124455D01*
X42823003Y-34071382D01*
X42852410Y-34036313D01*
X42859441Y-34024577D01*
X42849323Y-34002940D01*
X42820959Y-33955538D01*
X42777329Y-33887007D01*
X42721418Y-33801985D01*
X42656206Y-33705107D01*
X42618419Y-33649850D01*
X42549543Y-33548952D01*
X42488340Y-33457901D01*
X42437778Y-33381230D01*
X42400828Y-33323472D01*
X42380458Y-33289157D01*
X42377397Y-33281946D01*
X42384336Y-33261452D01*
X42403251Y-33213687D01*
X42431287Y-33145368D01*
X42465591Y-33063211D01*
X42503309Y-32973930D01*
X42541587Y-32884242D01*
X42577570Y-32800862D01*
X42608406Y-32730506D01*
X42631239Y-32679890D01*
X42643217Y-32655729D01*
X42643924Y-32654778D01*
X42662731Y-32650164D01*
X42712818Y-32639872D01*
X42788993Y-32624913D01*
X42886065Y-32606299D01*
X42998843Y-32585041D01*
X43064642Y-32572782D01*
X43185150Y-32549838D01*
X43293997Y-32528005D01*
X43385676Y-32508478D01*
X43454681Y-32492452D01*
X43495504Y-32481121D01*
X43503711Y-32477526D01*
X43511748Y-32453194D01*
X43518233Y-32398241D01*
X43523170Y-32319092D01*
X43526564Y-32222174D01*
X43528418Y-32113913D01*
X43528738Y-32000735D01*
X43527527Y-31889065D01*
X43524790Y-31785332D01*
X43520531Y-31695959D01*
X43514755Y-31627374D01*
X43507467Y-31586003D01*
X43503095Y-31577390D01*
X43476964Y-31567067D01*
X43421593Y-31552308D01*
X43344307Y-31534848D01*
X43252430Y-31516420D01*
X43220358Y-31510459D01*
X43065724Y-31482134D01*
X42943575Y-31459324D01*
X42849873Y-31441120D01*
X42780584Y-31426617D01*
X42731671Y-31414908D01*
X42699097Y-31405085D01*
X42678828Y-31396244D01*
X42666826Y-31387476D01*
X42665147Y-31385743D01*
X42648384Y-31357829D01*
X42622814Y-31303505D01*
X42590988Y-31229423D01*
X42555460Y-31142235D01*
X42518783Y-31048592D01*
X42483511Y-30955148D01*
X42452196Y-30868553D01*
X42427393Y-30795460D01*
X42411654Y-30742522D01*
X42407532Y-30716389D01*
X42407876Y-30715474D01*
X42421841Y-30694114D01*
X42453522Y-30647116D01*
X42499591Y-30579373D01*
X42556718Y-30495777D01*
X42621573Y-30401218D01*
X42640043Y-30374346D01*
X42705899Y-30276925D01*
X42763850Y-30188037D01*
X42810738Y-30112788D01*
X42843407Y-30056280D01*
X42858700Y-30023619D01*
X42859441Y-30019607D01*
X42846592Y-29998516D01*
X42811088Y-29956736D01*
X42757493Y-29898755D01*
X42690371Y-29829065D01*
X42614287Y-29752155D01*
X42533804Y-29672517D01*
X42453487Y-29594639D01*
X42377899Y-29523014D01*
X42311605Y-29462130D01*
X42259169Y-29416479D01*
X42225155Y-29390550D01*
X42215745Y-29386317D01*
X42193843Y-29396288D01*
X42149000Y-29423180D01*
X42088521Y-29462464D01*
X42041989Y-29494083D01*
X41957675Y-29552102D01*
X41857826Y-29620416D01*
X41757673Y-29688621D01*
X41703827Y-29725125D01*
X41521571Y-29848400D01*
X41368581Y-29765680D01*
X41298882Y-29729441D01*
X41239614Y-29701274D01*
X41199511Y-29685209D01*
X41189303Y-29682974D01*
X41177029Y-29699478D01*
X41152813Y-29746118D01*
X41118463Y-29818591D01*
X41075788Y-29912594D01*
X41026594Y-30023826D01*
X40972690Y-30147985D01*
X40915884Y-30280768D01*
X40857982Y-30417873D01*
X40800793Y-30554998D01*
X40746124Y-30687842D01*
X40695784Y-30812102D01*
X40651580Y-30923475D01*
X40615319Y-31017661D01*
X40588809Y-31090356D01*
X40573858Y-31137259D01*
X40571454Y-31153367D01*
X40590511Y-31173914D01*
X40632236Y-31207267D01*
X40687906Y-31246498D01*
X40692578Y-31249601D01*
X40836464Y-31364777D01*
X40952483Y-31499147D01*
X41039630Y-31648416D01*
X41096899Y-31808287D01*
X41123286Y-31974463D01*
X41117785Y-32142648D01*
X41079390Y-32308545D01*
X41007095Y-32467858D01*
X40985826Y-32502713D01*
X40875196Y-32643463D01*
X40744502Y-32756486D01*
X40598264Y-32841197D01*
X40441008Y-32897006D01*
X40277257Y-32923326D01*
X40111533Y-32919570D01*
X39948362Y-32885150D01*
X39792265Y-32819477D01*
X39647767Y-32721965D01*
X39603069Y-32682387D01*
X39489312Y-32558497D01*
X39406418Y-32428076D01*
X39349556Y-32281885D01*
X39317887Y-32137112D01*
X39310069Y-31974340D01*
X39336138Y-31810760D01*
X39393445Y-31651902D01*
X39479344Y-31503294D01*
X39591186Y-31370465D01*
X39726323Y-31258944D01*
X39744083Y-31247189D01*
X39800350Y-31208692D01*
X39843123Y-31175337D01*
X39863572Y-31154040D01*
X39863869Y-31153367D01*
X39859479Y-31130329D01*
X39842076Y-31078043D01*
X39813468Y-31000810D01*
X39775465Y-30902932D01*
X39729874Y-30788709D01*
X39678503Y-30662442D01*
X39623162Y-30528433D01*
X39565658Y-30390982D01*
X39507801Y-30254392D01*
X39451398Y-30122963D01*
X39398258Y-30000995D01*
X39350190Y-29892791D01*
X39309001Y-29802651D01*
X39276501Y-29734877D01*
X39254497Y-29693770D01*
X39245636Y-29682974D01*
X39218560Y-29691381D01*
X39167897Y-29713928D01*
X39102383Y-29746587D01*
X39066359Y-29765680D01*
X38913368Y-29848400D01*
X38731112Y-29725125D01*
X38638075Y-29661972D01*
X38536215Y-29592473D01*
X38440762Y-29527035D01*
X38392950Y-29494083D01*
X38325705Y-29448927D01*
X38268764Y-29413143D01*
X38229554Y-29391262D01*
X38216819Y-29386637D01*
X38198283Y-29399115D01*
X38157259Y-29433948D01*
X38097725Y-29487522D01*
X38023658Y-29556217D01*
X37939035Y-29636419D01*
X37885515Y-29687914D01*
X37791881Y-29779914D01*
X37710959Y-29862201D01*
X37646023Y-29931255D01*
X37600342Y-29983556D01*
X37577189Y-30015584D01*
X37574968Y-30022084D01*
X37585276Y-30046806D01*
X37613761Y-30096795D01*
X37657263Y-30166988D01*
X37712623Y-30252325D01*
X37776680Y-30347744D01*
X37794897Y-30374346D01*
X37861273Y-30471033D01*
X37920822Y-30558083D01*
X37970216Y-30630605D01*
X38006125Y-30683707D01*
X38025219Y-30712497D01*
X38027064Y-30715474D01*
X38024305Y-30738418D01*
X38009662Y-30788864D01*
X37985687Y-30860159D01*
X37954934Y-30945653D01*
X37919956Y-31038693D01*
X37883307Y-31132626D01*
X37847539Y-31220801D01*
X37815206Y-31296566D01*
X37788862Y-31353269D01*
X37771058Y-31384257D01*
X37769793Y-31385743D01*
X37758906Y-31394599D01*
X37740518Y-31403357D01*
X37710594Y-31412923D01*
X37665097Y-31424204D01*
X37599991Y-31438107D01*
X37511239Y-31455537D01*
X37394807Y-31477402D01*
X37246658Y-31504609D01*
X37214582Y-31510459D01*
X37119514Y-31528826D01*
X37036635Y-31546795D01*
X36973270Y-31562631D01*
X36936742Y-31574600D01*
X36931844Y-31577390D01*
X36923773Y-31602128D01*
X36917213Y-31657410D01*
X36912167Y-31736811D01*
X36908641Y-31833904D01*
X36906639Y-31942262D01*
X36906164Y-32055460D01*
X36907223Y-32167072D01*
X36909818Y-32270671D01*
X36913954Y-32359832D01*
X36919637Y-32428128D01*
X36926869Y-32469134D01*
X36931229Y-32477526D01*
X36955502Y-32485992D01*
X37010774Y-32499765D01*
X37091538Y-32517650D01*
X37192288Y-32538452D01*
X37307517Y-32560977D01*
X37370298Y-32572782D01*
X37489413Y-32595049D01*
X37595635Y-32615221D01*
X37683773Y-32632285D01*
X37748634Y-32645231D01*
X37785026Y-32653045D01*
X37791016Y-32654778D01*
X37801139Y-32674310D01*
X37822538Y-32721357D01*
X37852361Y-32789197D01*
X37887755Y-32871109D01*
X37925868Y-32960372D01*
X37963847Y-33050265D01*
X37998840Y-33134065D01*
X38027994Y-33205053D01*
X38048457Y-33256506D01*
X38057377Y-33281703D01*
X38057543Y-33282804D01*
X38047431Y-33302681D01*
X38019083Y-33348423D01*
X37975477Y-33415483D01*
X37919594Y-33499316D01*
X37854413Y-33595374D01*
X37816521Y-33650550D01*
X37747475Y-33751719D01*
X37686150Y-33843570D01*
X37635537Y-33921456D01*
X37598629Y-33980731D01*
X37578418Y-34016749D01*
X37575499Y-34024823D01*
X37588047Y-34043616D01*
X37622737Y-34083743D01*
X37675137Y-34140707D01*
X37740816Y-34210015D01*
X37815344Y-34287169D01*
X37894287Y-34367675D01*
X37973217Y-34447037D01*
X38047700Y-34520760D01*
X38113306Y-34584348D01*
X38165604Y-34633306D01*
X38200161Y-34663139D01*
X38211722Y-34670258D01*
X38230546Y-34660247D01*
X38275569Y-34632122D01*
X38342413Y-34588746D01*
X38426701Y-34532982D01*
X38524056Y-34467694D01*
X38597493Y-34417954D01*
X38968533Y-34165649D01*
X39587105Y-34420645D01*
X39670925Y-34865269D01*
X39754746Y-35309893D01*
X40680194Y-35309893D01*
X40764014Y-34865269D01*
G37*
X40764014Y-34865269D02*
X40847835Y-34420645D01*
X41157120Y-34293147D01*
X41466406Y-34165649D01*
X41837446Y-34417954D01*
X41941357Y-34488204D01*
X42035287Y-34550928D01*
X42114852Y-34603262D01*
X42175670Y-34642343D01*
X42213357Y-34665307D01*
X42223621Y-34670258D01*
X42242110Y-34657524D01*
X42281620Y-34622318D01*
X42337722Y-34569138D01*
X42405987Y-34502482D01*
X42481986Y-34426846D01*
X42561292Y-34346728D01*
X42639475Y-34266626D01*
X42712107Y-34191036D01*
X42774759Y-34124455D01*
X42823003Y-34071382D01*
X42852410Y-34036313D01*
X42859441Y-34024577D01*
X42849323Y-34002940D01*
X42820959Y-33955538D01*
X42777329Y-33887007D01*
X42721418Y-33801985D01*
X42656206Y-33705107D01*
X42618419Y-33649850D01*
X42549543Y-33548952D01*
X42488340Y-33457901D01*
X42437778Y-33381230D01*
X42400828Y-33323472D01*
X42380458Y-33289157D01*
X42377397Y-33281946D01*
X42384336Y-33261452D01*
X42403251Y-33213687D01*
X42431287Y-33145368D01*
X42465591Y-33063211D01*
X42503309Y-32973930D01*
X42541587Y-32884242D01*
X42577570Y-32800862D01*
X42608406Y-32730506D01*
X42631239Y-32679890D01*
X42643217Y-32655729D01*
X42643924Y-32654778D01*
X42662731Y-32650164D01*
X42712818Y-32639872D01*
X42788993Y-32624913D01*
X42886065Y-32606299D01*
X42998843Y-32585041D01*
X43064642Y-32572782D01*
X43185150Y-32549838D01*
X43293997Y-32528005D01*
X43385676Y-32508478D01*
X43454681Y-32492452D01*
X43495504Y-32481121D01*
X43503711Y-32477526D01*
X43511748Y-32453194D01*
X43518233Y-32398241D01*
X43523170Y-32319092D01*
X43526564Y-32222174D01*
X43528418Y-32113913D01*
X43528738Y-32000735D01*
X43527527Y-31889065D01*
X43524790Y-31785332D01*
X43520531Y-31695959D01*
X43514755Y-31627374D01*
X43507467Y-31586003D01*
X43503095Y-31577390D01*
X43476964Y-31567067D01*
X43421593Y-31552308D01*
X43344307Y-31534848D01*
X43252430Y-31516420D01*
X43220358Y-31510459D01*
X43065724Y-31482134D01*
X42943575Y-31459324D01*
X42849873Y-31441120D01*
X42780584Y-31426617D01*
X42731671Y-31414908D01*
X42699097Y-31405085D01*
X42678828Y-31396244D01*
X42666826Y-31387476D01*
X42665147Y-31385743D01*
X42648384Y-31357829D01*
X42622814Y-31303505D01*
X42590988Y-31229423D01*
X42555460Y-31142235D01*
X42518783Y-31048592D01*
X42483511Y-30955148D01*
X42452196Y-30868553D01*
X42427393Y-30795460D01*
X42411654Y-30742522D01*
X42407532Y-30716389D01*
X42407876Y-30715474D01*
X42421841Y-30694114D01*
X42453522Y-30647116D01*
X42499591Y-30579373D01*
X42556718Y-30495777D01*
X42621573Y-30401218D01*
X42640043Y-30374346D01*
X42705899Y-30276925D01*
X42763850Y-30188037D01*
X42810738Y-30112788D01*
X42843407Y-30056280D01*
X42858700Y-30023619D01*
X42859441Y-30019607D01*
X42846592Y-29998516D01*
X42811088Y-29956736D01*
X42757493Y-29898755D01*
X42690371Y-29829065D01*
X42614287Y-29752155D01*
X42533804Y-29672517D01*
X42453487Y-29594639D01*
X42377899Y-29523014D01*
X42311605Y-29462130D01*
X42259169Y-29416479D01*
X42225155Y-29390550D01*
X42215745Y-29386317D01*
X42193843Y-29396288D01*
X42149000Y-29423180D01*
X42088521Y-29462464D01*
X42041989Y-29494083D01*
X41957675Y-29552102D01*
X41857826Y-29620416D01*
X41757673Y-29688621D01*
X41703827Y-29725125D01*
X41521571Y-29848400D01*
X41368581Y-29765680D01*
X41298882Y-29729441D01*
X41239614Y-29701274D01*
X41199511Y-29685209D01*
X41189303Y-29682974D01*
X41177029Y-29699478D01*
X41152813Y-29746118D01*
X41118463Y-29818591D01*
X41075788Y-29912594D01*
X41026594Y-30023826D01*
X40972690Y-30147985D01*
X40915884Y-30280768D01*
X40857982Y-30417873D01*
X40800793Y-30554998D01*
X40746124Y-30687842D01*
X40695784Y-30812102D01*
X40651580Y-30923475D01*
X40615319Y-31017661D01*
X40588809Y-31090356D01*
X40573858Y-31137259D01*
X40571454Y-31153367D01*
X40590511Y-31173914D01*
X40632236Y-31207267D01*
X40687906Y-31246498D01*
X40692578Y-31249601D01*
X40836464Y-31364777D01*
X40952483Y-31499147D01*
X41039630Y-31648416D01*
X41096899Y-31808287D01*
X41123286Y-31974463D01*
X41117785Y-32142648D01*
X41079390Y-32308545D01*
X41007095Y-32467858D01*
X40985826Y-32502713D01*
X40875196Y-32643463D01*
X40744502Y-32756486D01*
X40598264Y-32841197D01*
X40441008Y-32897006D01*
X40277257Y-32923326D01*
X40111533Y-32919570D01*
X39948362Y-32885150D01*
X39792265Y-32819477D01*
X39647767Y-32721965D01*
X39603069Y-32682387D01*
X39489312Y-32558497D01*
X39406418Y-32428076D01*
X39349556Y-32281885D01*
X39317887Y-32137112D01*
X39310069Y-31974340D01*
X39336138Y-31810760D01*
X39393445Y-31651902D01*
X39479344Y-31503294D01*
X39591186Y-31370465D01*
X39726323Y-31258944D01*
X39744083Y-31247189D01*
X39800350Y-31208692D01*
X39843123Y-31175337D01*
X39863572Y-31154040D01*
X39863869Y-31153367D01*
X39859479Y-31130329D01*
X39842076Y-31078043D01*
X39813468Y-31000810D01*
X39775465Y-30902932D01*
X39729874Y-30788709D01*
X39678503Y-30662442D01*
X39623162Y-30528433D01*
X39565658Y-30390982D01*
X39507801Y-30254392D01*
X39451398Y-30122963D01*
X39398258Y-30000995D01*
X39350190Y-29892791D01*
X39309001Y-29802651D01*
X39276501Y-29734877D01*
X39254497Y-29693770D01*
X39245636Y-29682974D01*
X39218560Y-29691381D01*
X39167897Y-29713928D01*
X39102383Y-29746587D01*
X39066359Y-29765680D01*
X38913368Y-29848400D01*
X38731112Y-29725125D01*
X38638075Y-29661972D01*
X38536215Y-29592473D01*
X38440762Y-29527035D01*
X38392950Y-29494083D01*
X38325705Y-29448927D01*
X38268764Y-29413143D01*
X38229554Y-29391262D01*
X38216819Y-29386637D01*
X38198283Y-29399115D01*
X38157259Y-29433948D01*
X38097725Y-29487522D01*
X38023658Y-29556217D01*
X37939035Y-29636419D01*
X37885515Y-29687914D01*
X37791881Y-29779914D01*
X37710959Y-29862201D01*
X37646023Y-29931255D01*
X37600342Y-29983556D01*
X37577189Y-30015584D01*
X37574968Y-30022084D01*
X37585276Y-30046806D01*
X37613761Y-30096795D01*
X37657263Y-30166988D01*
X37712623Y-30252325D01*
X37776680Y-30347744D01*
X37794897Y-30374346D01*
X37861273Y-30471033D01*
X37920822Y-30558083D01*
X37970216Y-30630605D01*
X38006125Y-30683707D01*
X38025219Y-30712497D01*
X38027064Y-30715474D01*
X38024305Y-30738418D01*
X38009662Y-30788864D01*
X37985687Y-30860159D01*
X37954934Y-30945653D01*
X37919956Y-31038693D01*
X37883307Y-31132626D01*
X37847539Y-31220801D01*
X37815206Y-31296566D01*
X37788862Y-31353269D01*
X37771058Y-31384257D01*
X37769793Y-31385743D01*
X37758906Y-31394599D01*
X37740518Y-31403357D01*
X37710594Y-31412923D01*
X37665097Y-31424204D01*
X37599991Y-31438107D01*
X37511239Y-31455537D01*
X37394807Y-31477402D01*
X37246658Y-31504609D01*
X37214582Y-31510459D01*
X37119514Y-31528826D01*
X37036635Y-31546795D01*
X36973270Y-31562631D01*
X36936742Y-31574600D01*
X36931844Y-31577390D01*
X36923773Y-31602128D01*
X36917213Y-31657410D01*
X36912167Y-31736811D01*
X36908641Y-31833904D01*
X36906639Y-31942262D01*
X36906164Y-32055460D01*
X36907223Y-32167072D01*
X36909818Y-32270671D01*
X36913954Y-32359832D01*
X36919637Y-32428128D01*
X36926869Y-32469134D01*
X36931229Y-32477526D01*
X36955502Y-32485992D01*
X37010774Y-32499765D01*
X37091538Y-32517650D01*
X37192288Y-32538452D01*
X37307517Y-32560977D01*
X37370298Y-32572782D01*
X37489413Y-32595049D01*
X37595635Y-32615221D01*
X37683773Y-32632285D01*
X37748634Y-32645231D01*
X37785026Y-32653045D01*
X37791016Y-32654778D01*
X37801139Y-32674310D01*
X37822538Y-32721357D01*
X37852361Y-32789197D01*
X37887755Y-32871109D01*
X37925868Y-32960372D01*
X37963847Y-33050265D01*
X37998840Y-33134065D01*
X38027994Y-33205053D01*
X38048457Y-33256506D01*
X38057377Y-33281703D01*
X38057543Y-33282804D01*
X38047431Y-33302681D01*
X38019083Y-33348423D01*
X37975477Y-33415483D01*
X37919594Y-33499316D01*
X37854413Y-33595374D01*
X37816521Y-33650550D01*
X37747475Y-33751719D01*
X37686150Y-33843570D01*
X37635537Y-33921456D01*
X37598629Y-33980731D01*
X37578418Y-34016749D01*
X37575499Y-34024823D01*
X37588047Y-34043616D01*
X37622737Y-34083743D01*
X37675137Y-34140707D01*
X37740816Y-34210015D01*
X37815344Y-34287169D01*
X37894287Y-34367675D01*
X37973217Y-34447037D01*
X38047700Y-34520760D01*
X38113306Y-34584348D01*
X38165604Y-34633306D01*
X38200161Y-34663139D01*
X38211722Y-34670258D01*
X38230546Y-34660247D01*
X38275569Y-34632122D01*
X38342413Y-34588746D01*
X38426701Y-34532982D01*
X38524056Y-34467694D01*
X38597493Y-34417954D01*
X38968533Y-34165649D01*
X39587105Y-34420645D01*
X39670925Y-34865269D01*
X39754746Y-35309893D01*
X40680194Y-35309893D01*
X40764014Y-34865269D01*
M02*
