M48
; DRILL file {KiCad 5.1.5-52549c5~86~ubuntu18.04.1} date dom 06 sep 2020 14:29:17 -05
; FORMAT={-:-/ absolute / metric / decimal}
; #@! TF.CreationDate,2020-09-06T14:29:17-05:00
; #@! TF.GenerationSoftware,Kicad,Pcbnew,5.1.5-52549c5~86~ubuntu18.04.1
; #@! TF.FileFunction,Plated,1,2,PTH
FMAT,2
METRIC
T1C1.001
T2C1.200
%
G90
G05
T1
X96.251Y-150.226
X134.351Y-150.226
X126.731Y-132.446
X164.831Y-150.226
X126.731Y-150.226
X134.351Y-79.106
X164.831Y-132.446
X134.351Y-132.446
X134.351Y-96.886
X96.251Y-96.886
X96.251Y-132.446
X126.731Y-79.106
X96.251Y-114.666
X126.731Y-96.886
X96.251Y-79.106
X164.831Y-96.886
X164.831Y-79.106
X126.731Y-114.666
X134.351Y-114.666
X164.831Y-114.666
T2
X100.991Y-83.739
X104.491Y-83.739
X107.991Y-83.739
X111.491Y-83.739
X114.991Y-83.739
X118.491Y-83.739
X121.991Y-83.739
X139.091Y-119.299
X142.591Y-119.299
X146.091Y-119.299
X149.591Y-119.299
X153.091Y-119.299
X156.591Y-119.299
X160.091Y-119.299
X139.091Y-92.253
X142.591Y-92.253
X146.091Y-92.253
X149.591Y-92.253
X153.091Y-92.253
X156.591Y-92.253
X160.091Y-92.253
X139.091Y-145.593
X142.591Y-145.593
X146.091Y-145.593
X149.591Y-145.593
X153.091Y-145.593
X156.591Y-145.593
X160.091Y-145.593
X139.091Y-101.519
X142.591Y-101.519
X146.091Y-101.519
X149.591Y-101.519
X153.091Y-101.519
X156.591Y-101.519
X160.091Y-101.519
X100.991Y-110.033
X104.491Y-110.033
X107.991Y-110.033
X111.491Y-110.033
X114.991Y-110.033
X118.491Y-110.033
X121.991Y-110.033
X139.091Y-83.739
X142.591Y-83.739
X146.091Y-83.739
X149.591Y-83.739
X153.091Y-83.739
X156.591Y-83.739
X160.091Y-83.739
X139.091Y-110.033
X142.591Y-110.033
X146.091Y-110.033
X149.591Y-110.033
X153.091Y-110.033
X156.591Y-110.033
X160.091Y-110.033
X100.991Y-154.859
X104.491Y-154.859
X107.991Y-154.859
X111.491Y-154.859
X114.991Y-154.859
X118.491Y-154.859
X121.991Y-154.859
X100.991Y-127.813
X104.491Y-127.813
X107.991Y-127.813
X111.491Y-127.813
X114.991Y-127.813
X118.491Y-127.813
X121.991Y-127.813
X100.991Y-74.473
X104.491Y-74.473
X107.991Y-74.473
X111.491Y-74.473
X114.991Y-74.473
X118.491Y-74.473
X121.991Y-74.473
X100.991Y-137.079
X104.491Y-137.079
X107.991Y-137.079
X111.491Y-137.079
X114.991Y-137.079
X118.491Y-137.079
X121.991Y-137.079
X100.991Y-145.593
X104.491Y-145.593
X107.991Y-145.593
X111.491Y-145.593
X114.991Y-145.593
X118.491Y-145.593
X121.991Y-145.593
X100.991Y-119.299
X104.491Y-119.299
X107.991Y-119.299
X111.491Y-119.299
X114.991Y-119.299
X118.491Y-119.299
X121.991Y-119.299
X139.091Y-74.473
X142.591Y-74.473
X146.091Y-74.473
X149.591Y-74.473
X153.091Y-74.473
X156.591Y-74.473
X160.091Y-74.473
X100.991Y-101.519
X104.491Y-101.519
X107.991Y-101.519
X111.491Y-101.519
X114.991Y-101.519
X118.491Y-101.519
X121.991Y-101.519
X139.091Y-154.859
X142.591Y-154.859
X146.091Y-154.859
X149.591Y-154.859
X153.091Y-154.859
X156.591Y-154.859
X160.091Y-154.859
X100.991Y-92.253
X104.491Y-92.253
X107.991Y-92.253
X111.491Y-92.253
X114.991Y-92.253
X118.491Y-92.253
X121.991Y-92.253
X139.091Y-127.813
X142.591Y-127.813
X146.091Y-127.813
X149.591Y-127.813
X153.091Y-127.813
X156.591Y-127.813
X160.091Y-127.813
X139.091Y-137.079
X142.591Y-137.079
X146.091Y-137.079
X149.591Y-137.079
X153.091Y-137.079
X156.591Y-137.079
X160.091Y-137.079
T0
M30
