M48
; DRILL file {KiCad 5.1.5-52549c5~86~ubuntu18.04.1} date dom 06 sep 2020 17:48:04 -05
; FORMAT={-:-/ absolute / metric / decimal}
; #@! TF.CreationDate,2020-09-06T17:48:04-05:00
; #@! TF.GenerationSoftware,Kicad,Pcbnew,5.1.5-52549c5~86~ubuntu18.04.1
; #@! TF.FileFunction,Plated,1,2,PTH
FMAT,2
METRIC
T1C1.000
T2C1.001
T3C1.200
%
G90
G05
T1
X117.06Y-47.853
X117.06Y-52.853
X146.46Y-42.653
X146.46Y-58.053
X117.06Y-103.733
X117.06Y-108.733
X146.46Y-98.533
X146.46Y-113.933
X117.06Y-75.793
X117.06Y-80.793
X146.46Y-70.593
X146.46Y-85.993
T2
X129.87Y-66.192
X140.259Y-118.334
X140.259Y-90.394
X129.87Y-62.454
X129.87Y-94.132
X140.259Y-94.132
X140.259Y-38.252
X129.87Y-90.394
X129.87Y-38.252
X140.259Y-66.192
X140.259Y-62.454
X129.87Y-118.334
T3
X154.635Y-45.103
X154.635Y-48.603
X154.635Y-52.103
X154.635Y-55.603
X154.635Y-73.043
X154.635Y-76.543
X154.635Y-80.043
X154.635Y-83.543
X154.635Y-100.983
X154.635Y-104.483
X154.635Y-107.983
X154.635Y-111.483
X106.782Y-48.603
X106.782Y-52.103
X106.782Y-76.543
X106.782Y-80.043
X106.782Y-104.483
X106.782Y-107.983
T0
M30
