G04 #@! TF.GenerationSoftware,KiCad,Pcbnew,5.1.5-52549c5~86~ubuntu18.04.1*
G04 #@! TF.CreationDate,2020-09-06T17:48:17-05:00*
G04 #@! TF.ProjectId,,58585858-5858-4585-9858-585858585858,rev?*
G04 #@! TF.SameCoordinates,Original*
G04 #@! TF.FileFunction,Soldermask,Top*
G04 #@! TF.FilePolarity,Negative*
%FSLAX46Y46*%
G04 Gerber Fmt 4.6, Leading zero omitted, Abs format (unit mm)*
G04 Created by KiCad (PCBNEW 5.1.5-52549c5~86~ubuntu18.04.1) date 2020-09-06 17:48:17*
%MOMM*%
%LPD*%
G04 APERTURE LIST*
%ADD10C,0.100000*%
G04 APERTURE END LIST*
D10*
G36*
X140638193Y-117082904D02*
G01*
X140874901Y-117180952D01*
X140874903Y-117180953D01*
X141087935Y-117323296D01*
X141269104Y-117504465D01*
X141411447Y-117717497D01*
X141411448Y-117717499D01*
X141509496Y-117954207D01*
X141559480Y-118205493D01*
X141559480Y-118461707D01*
X141509496Y-118712993D01*
X141411448Y-118949701D01*
X141411447Y-118949703D01*
X141269104Y-119162735D01*
X141087935Y-119343904D01*
X140874903Y-119486247D01*
X140874902Y-119486248D01*
X140874901Y-119486248D01*
X140638193Y-119584296D01*
X140386907Y-119634280D01*
X140130693Y-119634280D01*
X139879407Y-119584296D01*
X139642699Y-119486248D01*
X139642698Y-119486248D01*
X139642697Y-119486247D01*
X139429665Y-119343904D01*
X139248496Y-119162735D01*
X139106153Y-118949703D01*
X139106152Y-118949701D01*
X139008104Y-118712993D01*
X138958120Y-118461707D01*
X138958120Y-118205493D01*
X139008104Y-117954207D01*
X139106152Y-117717499D01*
X139106153Y-117717497D01*
X139248496Y-117504465D01*
X139429665Y-117323296D01*
X139642697Y-117180953D01*
X139642699Y-117180952D01*
X139879407Y-117082904D01*
X140130693Y-117032920D01*
X140386907Y-117032920D01*
X140638193Y-117082904D01*
G37*
G36*
X130249593Y-117082904D02*
G01*
X130486301Y-117180952D01*
X130486303Y-117180953D01*
X130699335Y-117323296D01*
X130880504Y-117504465D01*
X131022847Y-117717497D01*
X131022848Y-117717499D01*
X131120896Y-117954207D01*
X131170880Y-118205493D01*
X131170880Y-118461707D01*
X131120896Y-118712993D01*
X131022848Y-118949701D01*
X131022847Y-118949703D01*
X130880504Y-119162735D01*
X130699335Y-119343904D01*
X130486303Y-119486247D01*
X130486302Y-119486248D01*
X130486301Y-119486248D01*
X130249593Y-119584296D01*
X129998307Y-119634280D01*
X129742093Y-119634280D01*
X129490807Y-119584296D01*
X129254099Y-119486248D01*
X129254098Y-119486248D01*
X129254097Y-119486247D01*
X129041065Y-119343904D01*
X128859896Y-119162735D01*
X128717553Y-118949703D01*
X128717552Y-118949701D01*
X128619504Y-118712993D01*
X128569520Y-118461707D01*
X128569520Y-118205493D01*
X128619504Y-117954207D01*
X128717552Y-117717499D01*
X128717553Y-117717497D01*
X128859896Y-117504465D01*
X129041065Y-117323296D01*
X129254097Y-117180953D01*
X129254099Y-117180952D01*
X129490807Y-117082904D01*
X129742093Y-117032920D01*
X129998307Y-117032920D01*
X130249593Y-117082904D01*
G37*
G36*
X106632803Y-114865878D02*
G01*
X106812410Y-114901604D01*
X107094674Y-115018521D01*
X107348705Y-115188259D01*
X107564741Y-115404295D01*
X107734479Y-115658326D01*
X107851396Y-115940590D01*
X107911000Y-116240240D01*
X107911000Y-116545760D01*
X107851396Y-116845410D01*
X107734479Y-117127674D01*
X107564741Y-117381705D01*
X107348705Y-117597741D01*
X107094674Y-117767479D01*
X106812410Y-117884396D01*
X106662585Y-117914198D01*
X106512761Y-117944000D01*
X106207239Y-117944000D01*
X106057415Y-117914198D01*
X105907590Y-117884396D01*
X105625326Y-117767479D01*
X105371295Y-117597741D01*
X105155259Y-117381705D01*
X104985521Y-117127674D01*
X104868604Y-116845410D01*
X104809000Y-116545760D01*
X104809000Y-116240240D01*
X104868604Y-115940590D01*
X104985521Y-115658326D01*
X105155259Y-115404295D01*
X105371295Y-115188259D01*
X105625326Y-115018521D01*
X105907590Y-114901604D01*
X106087197Y-114865878D01*
X106207239Y-114842000D01*
X106512761Y-114842000D01*
X106632803Y-114865878D01*
G37*
G36*
X157432803Y-114865878D02*
G01*
X157612410Y-114901604D01*
X157894674Y-115018521D01*
X158148705Y-115188259D01*
X158364741Y-115404295D01*
X158534479Y-115658326D01*
X158651396Y-115940590D01*
X158711000Y-116240240D01*
X158711000Y-116545760D01*
X158651396Y-116845410D01*
X158534479Y-117127674D01*
X158364741Y-117381705D01*
X158148705Y-117597741D01*
X157894674Y-117767479D01*
X157612410Y-117884396D01*
X157462585Y-117914198D01*
X157312761Y-117944000D01*
X157007239Y-117944000D01*
X156857415Y-117914198D01*
X156707590Y-117884396D01*
X156425326Y-117767479D01*
X156171295Y-117597741D01*
X155955259Y-117381705D01*
X155785521Y-117127674D01*
X155668604Y-116845410D01*
X155609000Y-116545760D01*
X155609000Y-116240240D01*
X155668604Y-115940590D01*
X155785521Y-115658326D01*
X155955259Y-115404295D01*
X156171295Y-115188259D01*
X156425326Y-115018521D01*
X156707590Y-114901604D01*
X156887197Y-114865878D01*
X157007239Y-114842000D01*
X157312761Y-114842000D01*
X157432803Y-114865878D01*
G37*
G36*
X146810318Y-112778153D02*
G01*
X147028885Y-112868687D01*
X147028887Y-112868688D01*
X147225593Y-113000122D01*
X147392878Y-113167407D01*
X147524312Y-113364113D01*
X147524313Y-113364115D01*
X147614847Y-113582682D01*
X147661000Y-113814710D01*
X147661000Y-114051290D01*
X147614847Y-114283318D01*
X147524313Y-114501885D01*
X147524312Y-114501887D01*
X147392878Y-114698593D01*
X147225593Y-114865878D01*
X147028887Y-114997312D01*
X147028886Y-114997313D01*
X147028885Y-114997313D01*
X146810318Y-115087847D01*
X146578290Y-115134000D01*
X146341710Y-115134000D01*
X146109682Y-115087847D01*
X145891115Y-114997313D01*
X145891114Y-114997313D01*
X145891113Y-114997312D01*
X145694407Y-114865878D01*
X145527122Y-114698593D01*
X145395688Y-114501887D01*
X145395687Y-114501885D01*
X145305153Y-114283318D01*
X145259000Y-114051290D01*
X145259000Y-113814710D01*
X145305153Y-113582682D01*
X145395687Y-113364115D01*
X145395688Y-113364113D01*
X145527122Y-113167407D01*
X145694407Y-113000122D01*
X145891113Y-112868688D01*
X145891115Y-112868687D01*
X146109682Y-112778153D01*
X146341710Y-112732000D01*
X146578290Y-112732000D01*
X146810318Y-112778153D01*
G37*
G36*
X155886200Y-112734000D02*
G01*
X153384200Y-112734000D01*
X153384200Y-110232000D01*
X155886200Y-110232000D01*
X155886200Y-112734000D01*
G37*
G36*
X117410318Y-107578153D02*
G01*
X117628885Y-107668687D01*
X117628887Y-107668688D01*
X117825593Y-107800122D01*
X117992878Y-107967407D01*
X118085625Y-108106214D01*
X118124313Y-108164115D01*
X118214847Y-108382682D01*
X118261000Y-108614710D01*
X118261000Y-108851290D01*
X118214847Y-109083318D01*
X118152432Y-109234000D01*
X118124312Y-109301887D01*
X117992878Y-109498593D01*
X117825593Y-109665878D01*
X117628887Y-109797312D01*
X117628886Y-109797313D01*
X117628885Y-109797313D01*
X117410318Y-109887847D01*
X117178290Y-109934000D01*
X116941710Y-109934000D01*
X116709682Y-109887847D01*
X116491115Y-109797313D01*
X116491114Y-109797313D01*
X116491113Y-109797312D01*
X116294407Y-109665878D01*
X116127122Y-109498593D01*
X115995688Y-109301887D01*
X115967568Y-109234000D01*
X115905153Y-109083318D01*
X115859000Y-108851290D01*
X115859000Y-108614710D01*
X115905153Y-108382682D01*
X115995687Y-108164115D01*
X116034375Y-108106214D01*
X116127122Y-107967407D01*
X116294407Y-107800122D01*
X116491113Y-107668688D01*
X116491115Y-107668687D01*
X116709682Y-107578153D01*
X116941710Y-107532000D01*
X117178290Y-107532000D01*
X117410318Y-107578153D01*
G37*
G36*
X155000103Y-106780075D02*
G01*
X155227771Y-106874378D01*
X155432666Y-107011285D01*
X155606915Y-107185534D01*
X155743822Y-107390429D01*
X155838125Y-107618097D01*
X155886200Y-107859787D01*
X155886200Y-108106213D01*
X155838125Y-108347903D01*
X155743822Y-108575571D01*
X155606915Y-108780466D01*
X155432666Y-108954715D01*
X155227771Y-109091622D01*
X155227770Y-109091623D01*
X155227769Y-109091623D01*
X155000103Y-109185925D01*
X154758414Y-109234000D01*
X154511986Y-109234000D01*
X154270297Y-109185925D01*
X154042631Y-109091623D01*
X154042630Y-109091623D01*
X154042629Y-109091622D01*
X153837734Y-108954715D01*
X153663485Y-108780466D01*
X153526578Y-108575571D01*
X153432275Y-108347903D01*
X153384200Y-108106213D01*
X153384200Y-107859787D01*
X153432275Y-107618097D01*
X153526578Y-107390429D01*
X153663485Y-107185534D01*
X153837734Y-107011285D01*
X154042629Y-106874378D01*
X154270297Y-106780075D01*
X154511986Y-106732000D01*
X154758414Y-106732000D01*
X155000103Y-106780075D01*
G37*
G36*
X107146503Y-106780075D02*
G01*
X107374171Y-106874378D01*
X107579066Y-107011285D01*
X107753315Y-107185534D01*
X107890222Y-107390429D01*
X107984525Y-107618097D01*
X108032600Y-107859787D01*
X108032600Y-108106213D01*
X107984525Y-108347903D01*
X107890222Y-108575571D01*
X107753315Y-108780466D01*
X107579066Y-108954715D01*
X107374171Y-109091622D01*
X107374170Y-109091623D01*
X107374169Y-109091623D01*
X107146503Y-109185925D01*
X106904814Y-109234000D01*
X106658386Y-109234000D01*
X106416697Y-109185925D01*
X106189031Y-109091623D01*
X106189030Y-109091623D01*
X106189029Y-109091622D01*
X105984134Y-108954715D01*
X105809885Y-108780466D01*
X105672978Y-108575571D01*
X105578675Y-108347903D01*
X105530600Y-108106213D01*
X105530600Y-107859787D01*
X105578675Y-107618097D01*
X105672978Y-107390429D01*
X105809885Y-107185534D01*
X105984134Y-107011285D01*
X106189029Y-106874378D01*
X106416697Y-106780075D01*
X106658386Y-106732000D01*
X106904814Y-106732000D01*
X107146503Y-106780075D01*
G37*
G36*
X155000103Y-103280075D02*
G01*
X155227771Y-103374378D01*
X155432666Y-103511285D01*
X155606915Y-103685534D01*
X155743822Y-103890429D01*
X155838125Y-104118097D01*
X155886200Y-104359787D01*
X155886200Y-104606213D01*
X155838125Y-104847903D01*
X155743822Y-105075571D01*
X155606915Y-105280466D01*
X155432666Y-105454715D01*
X155227771Y-105591622D01*
X155227770Y-105591623D01*
X155227769Y-105591623D01*
X155000103Y-105685925D01*
X154758414Y-105734000D01*
X154511986Y-105734000D01*
X154270297Y-105685925D01*
X154042631Y-105591623D01*
X154042630Y-105591623D01*
X154042629Y-105591622D01*
X153837734Y-105454715D01*
X153663485Y-105280466D01*
X153526578Y-105075571D01*
X153432275Y-104847903D01*
X153384200Y-104606213D01*
X153384200Y-104359787D01*
X153432275Y-104118097D01*
X153526578Y-103890429D01*
X153663485Y-103685534D01*
X153837734Y-103511285D01*
X154042629Y-103374378D01*
X154270297Y-103280075D01*
X154511986Y-103232000D01*
X154758414Y-103232000D01*
X155000103Y-103280075D01*
G37*
G36*
X108032600Y-105734000D02*
G01*
X105530600Y-105734000D01*
X105530600Y-103232000D01*
X108032600Y-103232000D01*
X108032600Y-105734000D01*
G37*
G36*
X118261000Y-104784000D02*
G01*
X115859000Y-104784000D01*
X115859000Y-102682000D01*
X118261000Y-102682000D01*
X118261000Y-104784000D01*
G37*
G36*
X155000103Y-99780075D02*
G01*
X155227771Y-99874378D01*
X155432666Y-100011285D01*
X155606915Y-100185534D01*
X155743822Y-100390429D01*
X155838125Y-100618097D01*
X155886200Y-100859787D01*
X155886200Y-101106213D01*
X155838125Y-101347903D01*
X155743822Y-101575571D01*
X155606915Y-101780466D01*
X155432666Y-101954715D01*
X155227771Y-102091622D01*
X155227770Y-102091623D01*
X155227769Y-102091623D01*
X155000103Y-102185925D01*
X154758414Y-102234000D01*
X154511986Y-102234000D01*
X154270297Y-102185925D01*
X154042631Y-102091623D01*
X154042630Y-102091623D01*
X154042629Y-102091622D01*
X153837734Y-101954715D01*
X153663485Y-101780466D01*
X153526578Y-101575571D01*
X153432275Y-101347903D01*
X153384200Y-101106213D01*
X153384200Y-100859787D01*
X153432275Y-100618097D01*
X153526578Y-100390429D01*
X153663485Y-100185534D01*
X153837734Y-100011285D01*
X154042629Y-99874378D01*
X154270297Y-99780075D01*
X154511986Y-99732000D01*
X154758414Y-99732000D01*
X155000103Y-99780075D01*
G37*
G36*
X146810318Y-97378153D02*
G01*
X147028885Y-97468687D01*
X147028887Y-97468688D01*
X147225593Y-97600122D01*
X147392878Y-97767407D01*
X147524312Y-97964113D01*
X147524313Y-97964115D01*
X147614847Y-98182682D01*
X147661000Y-98414710D01*
X147661000Y-98651290D01*
X147614847Y-98883318D01*
X147524313Y-99101885D01*
X147524312Y-99101887D01*
X147392878Y-99298593D01*
X147225593Y-99465878D01*
X147028887Y-99597312D01*
X147028886Y-99597313D01*
X147028885Y-99597313D01*
X146810318Y-99687847D01*
X146578290Y-99734000D01*
X146341710Y-99734000D01*
X146109682Y-99687847D01*
X145891115Y-99597313D01*
X145891114Y-99597313D01*
X145891113Y-99597312D01*
X145694407Y-99465878D01*
X145527122Y-99298593D01*
X145395688Y-99101887D01*
X145395687Y-99101885D01*
X145305153Y-98883318D01*
X145259000Y-98651290D01*
X145259000Y-98414710D01*
X145305153Y-98182682D01*
X145395687Y-97964115D01*
X145395688Y-97964113D01*
X145527122Y-97767407D01*
X145694407Y-97600122D01*
X145891113Y-97468688D01*
X145891115Y-97468687D01*
X146109682Y-97378153D01*
X146341710Y-97332000D01*
X146578290Y-97332000D01*
X146810318Y-97378153D01*
G37*
G36*
X157462585Y-94551802D02*
G01*
X157612410Y-94581604D01*
X157894674Y-94698521D01*
X158148705Y-94868259D01*
X158364741Y-95084295D01*
X158534479Y-95338326D01*
X158651396Y-95620590D01*
X158711000Y-95920240D01*
X158711000Y-96225760D01*
X158651396Y-96525410D01*
X158534479Y-96807674D01*
X158364741Y-97061705D01*
X158148705Y-97277741D01*
X157894674Y-97447479D01*
X157612410Y-97564396D01*
X157462585Y-97594198D01*
X157312761Y-97624000D01*
X157007239Y-97624000D01*
X156857415Y-97594198D01*
X156707590Y-97564396D01*
X156425326Y-97447479D01*
X156171295Y-97277741D01*
X155955259Y-97061705D01*
X155785521Y-96807674D01*
X155668604Y-96525410D01*
X155609000Y-96225760D01*
X155609000Y-95920240D01*
X155668604Y-95620590D01*
X155785521Y-95338326D01*
X155955259Y-95084295D01*
X156171295Y-94868259D01*
X156425326Y-94698521D01*
X156707590Y-94581604D01*
X156857415Y-94551802D01*
X157007239Y-94522000D01*
X157312761Y-94522000D01*
X157462585Y-94551802D01*
G37*
G36*
X106662585Y-94551802D02*
G01*
X106812410Y-94581604D01*
X107094674Y-94698521D01*
X107348705Y-94868259D01*
X107564741Y-95084295D01*
X107734479Y-95338326D01*
X107851396Y-95620590D01*
X107911000Y-95920240D01*
X107911000Y-96225760D01*
X107851396Y-96525410D01*
X107734479Y-96807674D01*
X107564741Y-97061705D01*
X107348705Y-97277741D01*
X107094674Y-97447479D01*
X106812410Y-97564396D01*
X106662585Y-97594198D01*
X106512761Y-97624000D01*
X106207239Y-97624000D01*
X106057415Y-97594198D01*
X105907590Y-97564396D01*
X105625326Y-97447479D01*
X105371295Y-97277741D01*
X105155259Y-97061705D01*
X104985521Y-96807674D01*
X104868604Y-96525410D01*
X104809000Y-96225760D01*
X104809000Y-95920240D01*
X104868604Y-95620590D01*
X104985521Y-95338326D01*
X105155259Y-95084295D01*
X105371295Y-94868259D01*
X105625326Y-94698521D01*
X105907590Y-94581604D01*
X106057415Y-94551802D01*
X106207239Y-94522000D01*
X106512761Y-94522000D01*
X106662585Y-94551802D01*
G37*
G36*
X140638193Y-92881704D02*
G01*
X140874901Y-92979752D01*
X140874903Y-92979753D01*
X141087935Y-93122096D01*
X141269104Y-93303265D01*
X141411447Y-93516297D01*
X141411448Y-93516299D01*
X141509496Y-93753007D01*
X141559480Y-94004293D01*
X141559480Y-94260507D01*
X141509496Y-94511793D01*
X141505268Y-94522000D01*
X141411447Y-94748503D01*
X141269104Y-94961535D01*
X141087935Y-95142704D01*
X140874903Y-95285047D01*
X140874902Y-95285048D01*
X140874901Y-95285048D01*
X140638193Y-95383096D01*
X140386907Y-95433080D01*
X140130693Y-95433080D01*
X139879407Y-95383096D01*
X139642699Y-95285048D01*
X139642698Y-95285048D01*
X139642697Y-95285047D01*
X139429665Y-95142704D01*
X139248496Y-94961535D01*
X139106153Y-94748503D01*
X139012332Y-94522000D01*
X139008104Y-94511793D01*
X138958120Y-94260507D01*
X138958120Y-94004293D01*
X139008104Y-93753007D01*
X139106152Y-93516299D01*
X139106153Y-93516297D01*
X139248496Y-93303265D01*
X139429665Y-93122096D01*
X139642697Y-92979753D01*
X139642699Y-92979752D01*
X139879407Y-92881704D01*
X140130693Y-92831720D01*
X140386907Y-92831720D01*
X140638193Y-92881704D01*
G37*
G36*
X130249593Y-92881704D02*
G01*
X130486301Y-92979752D01*
X130486303Y-92979753D01*
X130699335Y-93122096D01*
X130880504Y-93303265D01*
X131022847Y-93516297D01*
X131022848Y-93516299D01*
X131120896Y-93753007D01*
X131170880Y-94004293D01*
X131170880Y-94260507D01*
X131120896Y-94511793D01*
X131116668Y-94522000D01*
X131022847Y-94748503D01*
X130880504Y-94961535D01*
X130699335Y-95142704D01*
X130486303Y-95285047D01*
X130486302Y-95285048D01*
X130486301Y-95285048D01*
X130249593Y-95383096D01*
X129998307Y-95433080D01*
X129742093Y-95433080D01*
X129490807Y-95383096D01*
X129254099Y-95285048D01*
X129254098Y-95285048D01*
X129254097Y-95285047D01*
X129041065Y-95142704D01*
X128859896Y-94961535D01*
X128717553Y-94748503D01*
X128623732Y-94522000D01*
X128619504Y-94511793D01*
X128569520Y-94260507D01*
X128569520Y-94004293D01*
X128619504Y-93753007D01*
X128717552Y-93516299D01*
X128717553Y-93516297D01*
X128859896Y-93303265D01*
X129041065Y-93122096D01*
X129254097Y-92979753D01*
X129254099Y-92979752D01*
X129490807Y-92881704D01*
X129742093Y-92831720D01*
X129998307Y-92831720D01*
X130249593Y-92881704D01*
G37*
G36*
X140638193Y-89142904D02*
G01*
X140874901Y-89240952D01*
X140874903Y-89240953D01*
X141087935Y-89383296D01*
X141269104Y-89564465D01*
X141411447Y-89777497D01*
X141411448Y-89777499D01*
X141509496Y-90014207D01*
X141559480Y-90265493D01*
X141559480Y-90521707D01*
X141509496Y-90772993D01*
X141411448Y-91009701D01*
X141411447Y-91009703D01*
X141269104Y-91222735D01*
X141087935Y-91403904D01*
X140874903Y-91546247D01*
X140874902Y-91546248D01*
X140874901Y-91546248D01*
X140638193Y-91644296D01*
X140386907Y-91694280D01*
X140130693Y-91694280D01*
X139879407Y-91644296D01*
X139642699Y-91546248D01*
X139642698Y-91546248D01*
X139642697Y-91546247D01*
X139429665Y-91403904D01*
X139248496Y-91222735D01*
X139106153Y-91009703D01*
X139106152Y-91009701D01*
X139008104Y-90772993D01*
X138958120Y-90521707D01*
X138958120Y-90265493D01*
X139008104Y-90014207D01*
X139106152Y-89777499D01*
X139106153Y-89777497D01*
X139248496Y-89564465D01*
X139429665Y-89383296D01*
X139642697Y-89240953D01*
X139642699Y-89240952D01*
X139879407Y-89142904D01*
X140130693Y-89092920D01*
X140386907Y-89092920D01*
X140638193Y-89142904D01*
G37*
G36*
X130249593Y-89142904D02*
G01*
X130486301Y-89240952D01*
X130486303Y-89240953D01*
X130699335Y-89383296D01*
X130880504Y-89564465D01*
X131022847Y-89777497D01*
X131022848Y-89777499D01*
X131120896Y-90014207D01*
X131170880Y-90265493D01*
X131170880Y-90521707D01*
X131120896Y-90772993D01*
X131022848Y-91009701D01*
X131022847Y-91009703D01*
X130880504Y-91222735D01*
X130699335Y-91403904D01*
X130486303Y-91546247D01*
X130486302Y-91546248D01*
X130486301Y-91546248D01*
X130249593Y-91644296D01*
X129998307Y-91694280D01*
X129742093Y-91694280D01*
X129490807Y-91644296D01*
X129254099Y-91546248D01*
X129254098Y-91546248D01*
X129254097Y-91546247D01*
X129041065Y-91403904D01*
X128859896Y-91222735D01*
X128717553Y-91009703D01*
X128717552Y-91009701D01*
X128619504Y-90772993D01*
X128569520Y-90521707D01*
X128569520Y-90265493D01*
X128619504Y-90014207D01*
X128717552Y-89777499D01*
X128717553Y-89777497D01*
X128859896Y-89564465D01*
X129041065Y-89383296D01*
X129254097Y-89240953D01*
X129254099Y-89240952D01*
X129490807Y-89142904D01*
X129742093Y-89092920D01*
X129998307Y-89092920D01*
X130249593Y-89142904D01*
G37*
G36*
X106632803Y-86925878D02*
G01*
X106812410Y-86961604D01*
X107094674Y-87078521D01*
X107348705Y-87248259D01*
X107564741Y-87464295D01*
X107734479Y-87718326D01*
X107851396Y-88000590D01*
X107911000Y-88300240D01*
X107911000Y-88605760D01*
X107851396Y-88905410D01*
X107734479Y-89187674D01*
X107564741Y-89441705D01*
X107348705Y-89657741D01*
X107094674Y-89827479D01*
X106812410Y-89944396D01*
X106662585Y-89974198D01*
X106512761Y-90004000D01*
X106207239Y-90004000D01*
X106057415Y-89974198D01*
X105907590Y-89944396D01*
X105625326Y-89827479D01*
X105371295Y-89657741D01*
X105155259Y-89441705D01*
X104985521Y-89187674D01*
X104868604Y-88905410D01*
X104809000Y-88605760D01*
X104809000Y-88300240D01*
X104868604Y-88000590D01*
X104985521Y-87718326D01*
X105155259Y-87464295D01*
X105371295Y-87248259D01*
X105625326Y-87078521D01*
X105907590Y-86961604D01*
X106087197Y-86925878D01*
X106207239Y-86902000D01*
X106512761Y-86902000D01*
X106632803Y-86925878D01*
G37*
G36*
X157432803Y-86925878D02*
G01*
X157612410Y-86961604D01*
X157894674Y-87078521D01*
X158148705Y-87248259D01*
X158364741Y-87464295D01*
X158534479Y-87718326D01*
X158651396Y-88000590D01*
X158711000Y-88300240D01*
X158711000Y-88605760D01*
X158651396Y-88905410D01*
X158534479Y-89187674D01*
X158364741Y-89441705D01*
X158148705Y-89657741D01*
X157894674Y-89827479D01*
X157612410Y-89944396D01*
X157462585Y-89974198D01*
X157312761Y-90004000D01*
X157007239Y-90004000D01*
X156857415Y-89974198D01*
X156707590Y-89944396D01*
X156425326Y-89827479D01*
X156171295Y-89657741D01*
X155955259Y-89441705D01*
X155785521Y-89187674D01*
X155668604Y-88905410D01*
X155609000Y-88605760D01*
X155609000Y-88300240D01*
X155668604Y-88000590D01*
X155785521Y-87718326D01*
X155955259Y-87464295D01*
X156171295Y-87248259D01*
X156425326Y-87078521D01*
X156707590Y-86961604D01*
X156887197Y-86925878D01*
X157007239Y-86902000D01*
X157312761Y-86902000D01*
X157432803Y-86925878D01*
G37*
G36*
X146810318Y-84838153D02*
G01*
X147028885Y-84928687D01*
X147028887Y-84928688D01*
X147225593Y-85060122D01*
X147392878Y-85227407D01*
X147524312Y-85424113D01*
X147524313Y-85424115D01*
X147614847Y-85642682D01*
X147661000Y-85874710D01*
X147661000Y-86111290D01*
X147614847Y-86343318D01*
X147524313Y-86561885D01*
X147524312Y-86561887D01*
X147392878Y-86758593D01*
X147225593Y-86925878D01*
X147028887Y-87057312D01*
X147028886Y-87057313D01*
X147028885Y-87057313D01*
X146810318Y-87147847D01*
X146578290Y-87194000D01*
X146341710Y-87194000D01*
X146109682Y-87147847D01*
X145891115Y-87057313D01*
X145891114Y-87057313D01*
X145891113Y-87057312D01*
X145694407Y-86925878D01*
X145527122Y-86758593D01*
X145395688Y-86561887D01*
X145395687Y-86561885D01*
X145305153Y-86343318D01*
X145259000Y-86111290D01*
X145259000Y-85874710D01*
X145305153Y-85642682D01*
X145395687Y-85424115D01*
X145395688Y-85424113D01*
X145527122Y-85227407D01*
X145694407Y-85060122D01*
X145891113Y-84928688D01*
X145891115Y-84928687D01*
X146109682Y-84838153D01*
X146341710Y-84792000D01*
X146578290Y-84792000D01*
X146810318Y-84838153D01*
G37*
G36*
X155886200Y-84794000D02*
G01*
X153384200Y-84794000D01*
X153384200Y-82292000D01*
X155886200Y-82292000D01*
X155886200Y-84794000D01*
G37*
G36*
X117410318Y-79638153D02*
G01*
X117628885Y-79728687D01*
X117628887Y-79728688D01*
X117825593Y-79860122D01*
X117992878Y-80027407D01*
X118085625Y-80166214D01*
X118124313Y-80224115D01*
X118214847Y-80442682D01*
X118261000Y-80674710D01*
X118261000Y-80911290D01*
X118214847Y-81143318D01*
X118152432Y-81294000D01*
X118124312Y-81361887D01*
X117992878Y-81558593D01*
X117825593Y-81725878D01*
X117628887Y-81857312D01*
X117628886Y-81857313D01*
X117628885Y-81857313D01*
X117410318Y-81947847D01*
X117178290Y-81994000D01*
X116941710Y-81994000D01*
X116709682Y-81947847D01*
X116491115Y-81857313D01*
X116491114Y-81857313D01*
X116491113Y-81857312D01*
X116294407Y-81725878D01*
X116127122Y-81558593D01*
X115995688Y-81361887D01*
X115967568Y-81294000D01*
X115905153Y-81143318D01*
X115859000Y-80911290D01*
X115859000Y-80674710D01*
X115905153Y-80442682D01*
X115995687Y-80224115D01*
X116034375Y-80166214D01*
X116127122Y-80027407D01*
X116294407Y-79860122D01*
X116491113Y-79728688D01*
X116491115Y-79728687D01*
X116709682Y-79638153D01*
X116941710Y-79592000D01*
X117178290Y-79592000D01*
X117410318Y-79638153D01*
G37*
G36*
X155000103Y-78840075D02*
G01*
X155227771Y-78934378D01*
X155432666Y-79071285D01*
X155606915Y-79245534D01*
X155743822Y-79450429D01*
X155838125Y-79678097D01*
X155886200Y-79919787D01*
X155886200Y-80166213D01*
X155838125Y-80407903D01*
X155743822Y-80635571D01*
X155606915Y-80840466D01*
X155432666Y-81014715D01*
X155227771Y-81151622D01*
X155227770Y-81151623D01*
X155227769Y-81151623D01*
X155000103Y-81245925D01*
X154758414Y-81294000D01*
X154511986Y-81294000D01*
X154270297Y-81245925D01*
X154042631Y-81151623D01*
X154042630Y-81151623D01*
X154042629Y-81151622D01*
X153837734Y-81014715D01*
X153663485Y-80840466D01*
X153526578Y-80635571D01*
X153432275Y-80407903D01*
X153384200Y-80166213D01*
X153384200Y-79919787D01*
X153432275Y-79678097D01*
X153526578Y-79450429D01*
X153663485Y-79245534D01*
X153837734Y-79071285D01*
X154042629Y-78934378D01*
X154270297Y-78840075D01*
X154511986Y-78792000D01*
X154758414Y-78792000D01*
X155000103Y-78840075D01*
G37*
G36*
X107146503Y-78840075D02*
G01*
X107374171Y-78934378D01*
X107579066Y-79071285D01*
X107753315Y-79245534D01*
X107890222Y-79450429D01*
X107984525Y-79678097D01*
X108032600Y-79919787D01*
X108032600Y-80166213D01*
X107984525Y-80407903D01*
X107890222Y-80635571D01*
X107753315Y-80840466D01*
X107579066Y-81014715D01*
X107374171Y-81151622D01*
X107374170Y-81151623D01*
X107374169Y-81151623D01*
X107146503Y-81245925D01*
X106904814Y-81294000D01*
X106658386Y-81294000D01*
X106416697Y-81245925D01*
X106189031Y-81151623D01*
X106189030Y-81151623D01*
X106189029Y-81151622D01*
X105984134Y-81014715D01*
X105809885Y-80840466D01*
X105672978Y-80635571D01*
X105578675Y-80407903D01*
X105530600Y-80166213D01*
X105530600Y-79919787D01*
X105578675Y-79678097D01*
X105672978Y-79450429D01*
X105809885Y-79245534D01*
X105984134Y-79071285D01*
X106189029Y-78934378D01*
X106416697Y-78840075D01*
X106658386Y-78792000D01*
X106904814Y-78792000D01*
X107146503Y-78840075D01*
G37*
G36*
X155000103Y-75340075D02*
G01*
X155227771Y-75434378D01*
X155432666Y-75571285D01*
X155606915Y-75745534D01*
X155743822Y-75950429D01*
X155838125Y-76178097D01*
X155886200Y-76419787D01*
X155886200Y-76666213D01*
X155838125Y-76907903D01*
X155743822Y-77135571D01*
X155606915Y-77340466D01*
X155432666Y-77514715D01*
X155227771Y-77651622D01*
X155227770Y-77651623D01*
X155227769Y-77651623D01*
X155000103Y-77745925D01*
X154758414Y-77794000D01*
X154511986Y-77794000D01*
X154270297Y-77745925D01*
X154042631Y-77651623D01*
X154042630Y-77651623D01*
X154042629Y-77651622D01*
X153837734Y-77514715D01*
X153663485Y-77340466D01*
X153526578Y-77135571D01*
X153432275Y-76907903D01*
X153384200Y-76666213D01*
X153384200Y-76419787D01*
X153432275Y-76178097D01*
X153526578Y-75950429D01*
X153663485Y-75745534D01*
X153837734Y-75571285D01*
X154042629Y-75434378D01*
X154270297Y-75340075D01*
X154511986Y-75292000D01*
X154758414Y-75292000D01*
X155000103Y-75340075D01*
G37*
G36*
X108032600Y-77794000D02*
G01*
X105530600Y-77794000D01*
X105530600Y-75292000D01*
X108032600Y-75292000D01*
X108032600Y-77794000D01*
G37*
G36*
X118261000Y-76844000D02*
G01*
X115859000Y-76844000D01*
X115859000Y-74742000D01*
X118261000Y-74742000D01*
X118261000Y-76844000D01*
G37*
G36*
X155000103Y-71840075D02*
G01*
X155227771Y-71934378D01*
X155432666Y-72071285D01*
X155606915Y-72245534D01*
X155743822Y-72450429D01*
X155838125Y-72678097D01*
X155886200Y-72919787D01*
X155886200Y-73166213D01*
X155838125Y-73407903D01*
X155743822Y-73635571D01*
X155606915Y-73840466D01*
X155432666Y-74014715D01*
X155227771Y-74151622D01*
X155227770Y-74151623D01*
X155227769Y-74151623D01*
X155000103Y-74245925D01*
X154758414Y-74294000D01*
X154511986Y-74294000D01*
X154270297Y-74245925D01*
X154042631Y-74151623D01*
X154042630Y-74151623D01*
X154042629Y-74151622D01*
X153837734Y-74014715D01*
X153663485Y-73840466D01*
X153526578Y-73635571D01*
X153432275Y-73407903D01*
X153384200Y-73166213D01*
X153384200Y-72919787D01*
X153432275Y-72678097D01*
X153526578Y-72450429D01*
X153663485Y-72245534D01*
X153837734Y-72071285D01*
X154042629Y-71934378D01*
X154270297Y-71840075D01*
X154511986Y-71792000D01*
X154758414Y-71792000D01*
X155000103Y-71840075D01*
G37*
G36*
X146810318Y-69438153D02*
G01*
X147028885Y-69528687D01*
X147028887Y-69528688D01*
X147225593Y-69660122D01*
X147392878Y-69827407D01*
X147524312Y-70024113D01*
X147524313Y-70024115D01*
X147614847Y-70242682D01*
X147661000Y-70474710D01*
X147661000Y-70711290D01*
X147614847Y-70943318D01*
X147524313Y-71161885D01*
X147524312Y-71161887D01*
X147392878Y-71358593D01*
X147225593Y-71525878D01*
X147028887Y-71657312D01*
X147028886Y-71657313D01*
X147028885Y-71657313D01*
X146810318Y-71747847D01*
X146578290Y-71794000D01*
X146341710Y-71794000D01*
X146109682Y-71747847D01*
X145891115Y-71657313D01*
X145891114Y-71657313D01*
X145891113Y-71657312D01*
X145694407Y-71525878D01*
X145527122Y-71358593D01*
X145395688Y-71161887D01*
X145395687Y-71161885D01*
X145305153Y-70943318D01*
X145259000Y-70711290D01*
X145259000Y-70474710D01*
X145305153Y-70242682D01*
X145395687Y-70024115D01*
X145395688Y-70024113D01*
X145527122Y-69827407D01*
X145694407Y-69660122D01*
X145891113Y-69528688D01*
X145891115Y-69528687D01*
X146109682Y-69438153D01*
X146341710Y-69392000D01*
X146578290Y-69392000D01*
X146810318Y-69438153D01*
G37*
G36*
X106662585Y-66611802D02*
G01*
X106812410Y-66641604D01*
X107094674Y-66758521D01*
X107348705Y-66928259D01*
X107564741Y-67144295D01*
X107734479Y-67398326D01*
X107851396Y-67680590D01*
X107911000Y-67980240D01*
X107911000Y-68285760D01*
X107851396Y-68585410D01*
X107734479Y-68867674D01*
X107564741Y-69121705D01*
X107348705Y-69337741D01*
X107094674Y-69507479D01*
X106812410Y-69624396D01*
X106662585Y-69654198D01*
X106512761Y-69684000D01*
X106207239Y-69684000D01*
X106057415Y-69654198D01*
X105907590Y-69624396D01*
X105625326Y-69507479D01*
X105371295Y-69337741D01*
X105155259Y-69121705D01*
X104985521Y-68867674D01*
X104868604Y-68585410D01*
X104809000Y-68285760D01*
X104809000Y-67980240D01*
X104868604Y-67680590D01*
X104985521Y-67398326D01*
X105155259Y-67144295D01*
X105371295Y-66928259D01*
X105625326Y-66758521D01*
X105907590Y-66641604D01*
X106057415Y-66611802D01*
X106207239Y-66582000D01*
X106512761Y-66582000D01*
X106662585Y-66611802D01*
G37*
G36*
X157462585Y-66611802D02*
G01*
X157612410Y-66641604D01*
X157894674Y-66758521D01*
X158148705Y-66928259D01*
X158364741Y-67144295D01*
X158534479Y-67398326D01*
X158651396Y-67680590D01*
X158711000Y-67980240D01*
X158711000Y-68285760D01*
X158651396Y-68585410D01*
X158534479Y-68867674D01*
X158364741Y-69121705D01*
X158148705Y-69337741D01*
X157894674Y-69507479D01*
X157612410Y-69624396D01*
X157462585Y-69654198D01*
X157312761Y-69684000D01*
X157007239Y-69684000D01*
X156857415Y-69654198D01*
X156707590Y-69624396D01*
X156425326Y-69507479D01*
X156171295Y-69337741D01*
X155955259Y-69121705D01*
X155785521Y-68867674D01*
X155668604Y-68585410D01*
X155609000Y-68285760D01*
X155609000Y-67980240D01*
X155668604Y-67680590D01*
X155785521Y-67398326D01*
X155955259Y-67144295D01*
X156171295Y-66928259D01*
X156425326Y-66758521D01*
X156707590Y-66641604D01*
X156857415Y-66611802D01*
X157007239Y-66582000D01*
X157312761Y-66582000D01*
X157462585Y-66611802D01*
G37*
G36*
X140638193Y-64941704D02*
G01*
X140874901Y-65039752D01*
X140874903Y-65039753D01*
X141087935Y-65182096D01*
X141269104Y-65363265D01*
X141411447Y-65576297D01*
X141411448Y-65576299D01*
X141509496Y-65813007D01*
X141559480Y-66064293D01*
X141559480Y-66320507D01*
X141509496Y-66571793D01*
X141505268Y-66582000D01*
X141411447Y-66808503D01*
X141269104Y-67021535D01*
X141087935Y-67202704D01*
X140874903Y-67345047D01*
X140874902Y-67345048D01*
X140874901Y-67345048D01*
X140638193Y-67443096D01*
X140386907Y-67493080D01*
X140130693Y-67493080D01*
X139879407Y-67443096D01*
X139642699Y-67345048D01*
X139642698Y-67345048D01*
X139642697Y-67345047D01*
X139429665Y-67202704D01*
X139248496Y-67021535D01*
X139106153Y-66808503D01*
X139012332Y-66582000D01*
X139008104Y-66571793D01*
X138958120Y-66320507D01*
X138958120Y-66064293D01*
X139008104Y-65813007D01*
X139106152Y-65576299D01*
X139106153Y-65576297D01*
X139248496Y-65363265D01*
X139429665Y-65182096D01*
X139642697Y-65039753D01*
X139642699Y-65039752D01*
X139879407Y-64941704D01*
X140130693Y-64891720D01*
X140386907Y-64891720D01*
X140638193Y-64941704D01*
G37*
G36*
X130249593Y-64941704D02*
G01*
X130486301Y-65039752D01*
X130486303Y-65039753D01*
X130699335Y-65182096D01*
X130880504Y-65363265D01*
X131022847Y-65576297D01*
X131022848Y-65576299D01*
X131120896Y-65813007D01*
X131170880Y-66064293D01*
X131170880Y-66320507D01*
X131120896Y-66571793D01*
X131116668Y-66582000D01*
X131022847Y-66808503D01*
X130880504Y-67021535D01*
X130699335Y-67202704D01*
X130486303Y-67345047D01*
X130486302Y-67345048D01*
X130486301Y-67345048D01*
X130249593Y-67443096D01*
X129998307Y-67493080D01*
X129742093Y-67493080D01*
X129490807Y-67443096D01*
X129254099Y-67345048D01*
X129254098Y-67345048D01*
X129254097Y-67345047D01*
X129041065Y-67202704D01*
X128859896Y-67021535D01*
X128717553Y-66808503D01*
X128623732Y-66582000D01*
X128619504Y-66571793D01*
X128569520Y-66320507D01*
X128569520Y-66064293D01*
X128619504Y-65813007D01*
X128717552Y-65576299D01*
X128717553Y-65576297D01*
X128859896Y-65363265D01*
X129041065Y-65182096D01*
X129254097Y-65039753D01*
X129254099Y-65039752D01*
X129490807Y-64941704D01*
X129742093Y-64891720D01*
X129998307Y-64891720D01*
X130249593Y-64941704D01*
G37*
G36*
X130249593Y-61202904D02*
G01*
X130486301Y-61300952D01*
X130486303Y-61300953D01*
X130699335Y-61443296D01*
X130880504Y-61624465D01*
X131022847Y-61837497D01*
X131022848Y-61837499D01*
X131120896Y-62074207D01*
X131170880Y-62325493D01*
X131170880Y-62581707D01*
X131120896Y-62832993D01*
X131022848Y-63069701D01*
X131022847Y-63069703D01*
X130880504Y-63282735D01*
X130699335Y-63463904D01*
X130486303Y-63606247D01*
X130486302Y-63606248D01*
X130486301Y-63606248D01*
X130249593Y-63704296D01*
X129998307Y-63754280D01*
X129742093Y-63754280D01*
X129490807Y-63704296D01*
X129254099Y-63606248D01*
X129254098Y-63606248D01*
X129254097Y-63606247D01*
X129041065Y-63463904D01*
X128859896Y-63282735D01*
X128717553Y-63069703D01*
X128717552Y-63069701D01*
X128619504Y-62832993D01*
X128569520Y-62581707D01*
X128569520Y-62325493D01*
X128619504Y-62074207D01*
X128717552Y-61837499D01*
X128717553Y-61837497D01*
X128859896Y-61624465D01*
X129041065Y-61443296D01*
X129254097Y-61300953D01*
X129254099Y-61300952D01*
X129490807Y-61202904D01*
X129742093Y-61152920D01*
X129998307Y-61152920D01*
X130249593Y-61202904D01*
G37*
G36*
X140638193Y-61202904D02*
G01*
X140874901Y-61300952D01*
X140874903Y-61300953D01*
X141087935Y-61443296D01*
X141269104Y-61624465D01*
X141411447Y-61837497D01*
X141411448Y-61837499D01*
X141509496Y-62074207D01*
X141559480Y-62325493D01*
X141559480Y-62581707D01*
X141509496Y-62832993D01*
X141411448Y-63069701D01*
X141411447Y-63069703D01*
X141269104Y-63282735D01*
X141087935Y-63463904D01*
X140874903Y-63606247D01*
X140874902Y-63606248D01*
X140874901Y-63606248D01*
X140638193Y-63704296D01*
X140386907Y-63754280D01*
X140130693Y-63754280D01*
X139879407Y-63704296D01*
X139642699Y-63606248D01*
X139642698Y-63606248D01*
X139642697Y-63606247D01*
X139429665Y-63463904D01*
X139248496Y-63282735D01*
X139106153Y-63069703D01*
X139106152Y-63069701D01*
X139008104Y-62832993D01*
X138958120Y-62581707D01*
X138958120Y-62325493D01*
X139008104Y-62074207D01*
X139106152Y-61837499D01*
X139106153Y-61837497D01*
X139248496Y-61624465D01*
X139429665Y-61443296D01*
X139642697Y-61300953D01*
X139642699Y-61300952D01*
X139879407Y-61202904D01*
X140130693Y-61152920D01*
X140386907Y-61152920D01*
X140638193Y-61202904D01*
G37*
G36*
X157432803Y-58985878D02*
G01*
X157612410Y-59021604D01*
X157894674Y-59138521D01*
X158148705Y-59308259D01*
X158364741Y-59524295D01*
X158534479Y-59778326D01*
X158651396Y-60060590D01*
X158711000Y-60360240D01*
X158711000Y-60665760D01*
X158651396Y-60965410D01*
X158534479Y-61247674D01*
X158364741Y-61501705D01*
X158148705Y-61717741D01*
X157894674Y-61887479D01*
X157612410Y-62004396D01*
X157462585Y-62034198D01*
X157312761Y-62064000D01*
X157007239Y-62064000D01*
X156857415Y-62034198D01*
X156707590Y-62004396D01*
X156425326Y-61887479D01*
X156171295Y-61717741D01*
X155955259Y-61501705D01*
X155785521Y-61247674D01*
X155668604Y-60965410D01*
X155609000Y-60665760D01*
X155609000Y-60360240D01*
X155668604Y-60060590D01*
X155785521Y-59778326D01*
X155955259Y-59524295D01*
X156171295Y-59308259D01*
X156425326Y-59138521D01*
X156707590Y-59021604D01*
X156887197Y-58985878D01*
X157007239Y-58962000D01*
X157312761Y-58962000D01*
X157432803Y-58985878D01*
G37*
G36*
X106632803Y-58985878D02*
G01*
X106812410Y-59021604D01*
X107094674Y-59138521D01*
X107348705Y-59308259D01*
X107564741Y-59524295D01*
X107734479Y-59778326D01*
X107851396Y-60060590D01*
X107911000Y-60360240D01*
X107911000Y-60665760D01*
X107851396Y-60965410D01*
X107734479Y-61247674D01*
X107564741Y-61501705D01*
X107348705Y-61717741D01*
X107094674Y-61887479D01*
X106812410Y-62004396D01*
X106662585Y-62034198D01*
X106512761Y-62064000D01*
X106207239Y-62064000D01*
X106057415Y-62034198D01*
X105907590Y-62004396D01*
X105625326Y-61887479D01*
X105371295Y-61717741D01*
X105155259Y-61501705D01*
X104985521Y-61247674D01*
X104868604Y-60965410D01*
X104809000Y-60665760D01*
X104809000Y-60360240D01*
X104868604Y-60060590D01*
X104985521Y-59778326D01*
X105155259Y-59524295D01*
X105371295Y-59308259D01*
X105625326Y-59138521D01*
X105907590Y-59021604D01*
X106087197Y-58985878D01*
X106207239Y-58962000D01*
X106512761Y-58962000D01*
X106632803Y-58985878D01*
G37*
G36*
X146810318Y-56898153D02*
G01*
X147028885Y-56988687D01*
X147028887Y-56988688D01*
X147225593Y-57120122D01*
X147392878Y-57287407D01*
X147524312Y-57484113D01*
X147524313Y-57484115D01*
X147614847Y-57702682D01*
X147661000Y-57934710D01*
X147661000Y-58171290D01*
X147614847Y-58403318D01*
X147524313Y-58621885D01*
X147524312Y-58621887D01*
X147392878Y-58818593D01*
X147225593Y-58985878D01*
X147028887Y-59117312D01*
X147028886Y-59117313D01*
X147028885Y-59117313D01*
X146810318Y-59207847D01*
X146578290Y-59254000D01*
X146341710Y-59254000D01*
X146109682Y-59207847D01*
X145891115Y-59117313D01*
X145891114Y-59117313D01*
X145891113Y-59117312D01*
X145694407Y-58985878D01*
X145527122Y-58818593D01*
X145395688Y-58621887D01*
X145395687Y-58621885D01*
X145305153Y-58403318D01*
X145259000Y-58171290D01*
X145259000Y-57934710D01*
X145305153Y-57702682D01*
X145395687Y-57484115D01*
X145395688Y-57484113D01*
X145527122Y-57287407D01*
X145694407Y-57120122D01*
X145891113Y-56988688D01*
X145891115Y-56988687D01*
X146109682Y-56898153D01*
X146341710Y-56852000D01*
X146578290Y-56852000D01*
X146810318Y-56898153D01*
G37*
G36*
X155886200Y-56854000D02*
G01*
X153384200Y-56854000D01*
X153384200Y-54352000D01*
X155886200Y-54352000D01*
X155886200Y-56854000D01*
G37*
G36*
X117410318Y-51698153D02*
G01*
X117628885Y-51788687D01*
X117628887Y-51788688D01*
X117825593Y-51920122D01*
X117992878Y-52087407D01*
X118085625Y-52226214D01*
X118124313Y-52284115D01*
X118214847Y-52502682D01*
X118261000Y-52734710D01*
X118261000Y-52971290D01*
X118214847Y-53203318D01*
X118152432Y-53354000D01*
X118124312Y-53421887D01*
X117992878Y-53618593D01*
X117825593Y-53785878D01*
X117628887Y-53917312D01*
X117628886Y-53917313D01*
X117628885Y-53917313D01*
X117410318Y-54007847D01*
X117178290Y-54054000D01*
X116941710Y-54054000D01*
X116709682Y-54007847D01*
X116491115Y-53917313D01*
X116491114Y-53917313D01*
X116491113Y-53917312D01*
X116294407Y-53785878D01*
X116127122Y-53618593D01*
X115995688Y-53421887D01*
X115967568Y-53354000D01*
X115905153Y-53203318D01*
X115859000Y-52971290D01*
X115859000Y-52734710D01*
X115905153Y-52502682D01*
X115995687Y-52284115D01*
X116034375Y-52226214D01*
X116127122Y-52087407D01*
X116294407Y-51920122D01*
X116491113Y-51788688D01*
X116491115Y-51788687D01*
X116709682Y-51698153D01*
X116941710Y-51652000D01*
X117178290Y-51652000D01*
X117410318Y-51698153D01*
G37*
G36*
X107146503Y-50900075D02*
G01*
X107374171Y-50994378D01*
X107579066Y-51131285D01*
X107753315Y-51305534D01*
X107890222Y-51510429D01*
X107984525Y-51738097D01*
X108032600Y-51979787D01*
X108032600Y-52226213D01*
X107984525Y-52467903D01*
X107890222Y-52695571D01*
X107753315Y-52900466D01*
X107579066Y-53074715D01*
X107374171Y-53211622D01*
X107374170Y-53211623D01*
X107374169Y-53211623D01*
X107146503Y-53305925D01*
X106904814Y-53354000D01*
X106658386Y-53354000D01*
X106416697Y-53305925D01*
X106189031Y-53211623D01*
X106189030Y-53211623D01*
X106189029Y-53211622D01*
X105984134Y-53074715D01*
X105809885Y-52900466D01*
X105672978Y-52695571D01*
X105578675Y-52467903D01*
X105530600Y-52226213D01*
X105530600Y-51979787D01*
X105578675Y-51738097D01*
X105672978Y-51510429D01*
X105809885Y-51305534D01*
X105984134Y-51131285D01*
X106189029Y-50994378D01*
X106416697Y-50900075D01*
X106658386Y-50852000D01*
X106904814Y-50852000D01*
X107146503Y-50900075D01*
G37*
G36*
X155000103Y-50900075D02*
G01*
X155227771Y-50994378D01*
X155432666Y-51131285D01*
X155606915Y-51305534D01*
X155743822Y-51510429D01*
X155838125Y-51738097D01*
X155886200Y-51979787D01*
X155886200Y-52226213D01*
X155838125Y-52467903D01*
X155743822Y-52695571D01*
X155606915Y-52900466D01*
X155432666Y-53074715D01*
X155227771Y-53211622D01*
X155227770Y-53211623D01*
X155227769Y-53211623D01*
X155000103Y-53305925D01*
X154758414Y-53354000D01*
X154511986Y-53354000D01*
X154270297Y-53305925D01*
X154042631Y-53211623D01*
X154042630Y-53211623D01*
X154042629Y-53211622D01*
X153837734Y-53074715D01*
X153663485Y-52900466D01*
X153526578Y-52695571D01*
X153432275Y-52467903D01*
X153384200Y-52226213D01*
X153384200Y-51979787D01*
X153432275Y-51738097D01*
X153526578Y-51510429D01*
X153663485Y-51305534D01*
X153837734Y-51131285D01*
X154042629Y-50994378D01*
X154270297Y-50900075D01*
X154511986Y-50852000D01*
X154758414Y-50852000D01*
X155000103Y-50900075D01*
G37*
G36*
X108032600Y-49854000D02*
G01*
X105530600Y-49854000D01*
X105530600Y-47352000D01*
X108032600Y-47352000D01*
X108032600Y-49854000D01*
G37*
G36*
X155000103Y-47400075D02*
G01*
X155227771Y-47494378D01*
X155432666Y-47631285D01*
X155606915Y-47805534D01*
X155743822Y-48010429D01*
X155838125Y-48238097D01*
X155886200Y-48479787D01*
X155886200Y-48726213D01*
X155838125Y-48967903D01*
X155743822Y-49195571D01*
X155606915Y-49400466D01*
X155432666Y-49574715D01*
X155227771Y-49711622D01*
X155227770Y-49711623D01*
X155227769Y-49711623D01*
X155000103Y-49805925D01*
X154758414Y-49854000D01*
X154511986Y-49854000D01*
X154270297Y-49805925D01*
X154042631Y-49711623D01*
X154042630Y-49711623D01*
X154042629Y-49711622D01*
X153837734Y-49574715D01*
X153663485Y-49400466D01*
X153526578Y-49195571D01*
X153432275Y-48967903D01*
X153384200Y-48726213D01*
X153384200Y-48479787D01*
X153432275Y-48238097D01*
X153526578Y-48010429D01*
X153663485Y-47805534D01*
X153837734Y-47631285D01*
X154042629Y-47494378D01*
X154270297Y-47400075D01*
X154511986Y-47352000D01*
X154758414Y-47352000D01*
X155000103Y-47400075D01*
G37*
G36*
X118261000Y-48904000D02*
G01*
X115859000Y-48904000D01*
X115859000Y-46802000D01*
X118261000Y-46802000D01*
X118261000Y-48904000D01*
G37*
G36*
X155000103Y-43900075D02*
G01*
X155227771Y-43994378D01*
X155432666Y-44131285D01*
X155606915Y-44305534D01*
X155743822Y-44510429D01*
X155838125Y-44738097D01*
X155886200Y-44979787D01*
X155886200Y-45226213D01*
X155838125Y-45467903D01*
X155743822Y-45695571D01*
X155606915Y-45900466D01*
X155432666Y-46074715D01*
X155227771Y-46211622D01*
X155227770Y-46211623D01*
X155227769Y-46211623D01*
X155000103Y-46305925D01*
X154758414Y-46354000D01*
X154511986Y-46354000D01*
X154270297Y-46305925D01*
X154042631Y-46211623D01*
X154042630Y-46211623D01*
X154042629Y-46211622D01*
X153837734Y-46074715D01*
X153663485Y-45900466D01*
X153526578Y-45695571D01*
X153432275Y-45467903D01*
X153384200Y-45226213D01*
X153384200Y-44979787D01*
X153432275Y-44738097D01*
X153526578Y-44510429D01*
X153663485Y-44305534D01*
X153837734Y-44131285D01*
X154042629Y-43994378D01*
X154270297Y-43900075D01*
X154511986Y-43852000D01*
X154758414Y-43852000D01*
X155000103Y-43900075D01*
G37*
G36*
X146810318Y-41498153D02*
G01*
X147028885Y-41588687D01*
X147028887Y-41588688D01*
X147225593Y-41720122D01*
X147392878Y-41887407D01*
X147524312Y-42084113D01*
X147524313Y-42084115D01*
X147614847Y-42302682D01*
X147661000Y-42534710D01*
X147661000Y-42771290D01*
X147614847Y-43003318D01*
X147524313Y-43221885D01*
X147524312Y-43221887D01*
X147392878Y-43418593D01*
X147225593Y-43585878D01*
X147028887Y-43717312D01*
X147028886Y-43717313D01*
X147028885Y-43717313D01*
X146810318Y-43807847D01*
X146578290Y-43854000D01*
X146341710Y-43854000D01*
X146109682Y-43807847D01*
X145891115Y-43717313D01*
X145891114Y-43717313D01*
X145891113Y-43717312D01*
X145694407Y-43585878D01*
X145527122Y-43418593D01*
X145395688Y-43221887D01*
X145395687Y-43221885D01*
X145305153Y-43003318D01*
X145259000Y-42771290D01*
X145259000Y-42534710D01*
X145305153Y-42302682D01*
X145395687Y-42084115D01*
X145395688Y-42084113D01*
X145527122Y-41887407D01*
X145694407Y-41720122D01*
X145891113Y-41588688D01*
X145891115Y-41588687D01*
X146109682Y-41498153D01*
X146341710Y-41452000D01*
X146578290Y-41452000D01*
X146810318Y-41498153D01*
G37*
G36*
X157462585Y-38671802D02*
G01*
X157612410Y-38701604D01*
X157894674Y-38818521D01*
X158148705Y-38988259D01*
X158364741Y-39204295D01*
X158534479Y-39458326D01*
X158651396Y-39740590D01*
X158711000Y-40040240D01*
X158711000Y-40345760D01*
X158651396Y-40645410D01*
X158534479Y-40927674D01*
X158364741Y-41181705D01*
X158148705Y-41397741D01*
X157894674Y-41567479D01*
X157612410Y-41684396D01*
X157462585Y-41714198D01*
X157312761Y-41744000D01*
X157007239Y-41744000D01*
X156857415Y-41714198D01*
X156707590Y-41684396D01*
X156425326Y-41567479D01*
X156171295Y-41397741D01*
X155955259Y-41181705D01*
X155785521Y-40927674D01*
X155668604Y-40645410D01*
X155609000Y-40345760D01*
X155609000Y-40040240D01*
X155668604Y-39740590D01*
X155785521Y-39458326D01*
X155955259Y-39204295D01*
X156171295Y-38988259D01*
X156425326Y-38818521D01*
X156707590Y-38701604D01*
X156857415Y-38671802D01*
X157007239Y-38642000D01*
X157312761Y-38642000D01*
X157462585Y-38671802D01*
G37*
G36*
X106662585Y-38671802D02*
G01*
X106812410Y-38701604D01*
X107094674Y-38818521D01*
X107348705Y-38988259D01*
X107564741Y-39204295D01*
X107734479Y-39458326D01*
X107851396Y-39740590D01*
X107911000Y-40040240D01*
X107911000Y-40345760D01*
X107851396Y-40645410D01*
X107734479Y-40927674D01*
X107564741Y-41181705D01*
X107348705Y-41397741D01*
X107094674Y-41567479D01*
X106812410Y-41684396D01*
X106662585Y-41714198D01*
X106512761Y-41744000D01*
X106207239Y-41744000D01*
X106057415Y-41714198D01*
X105907590Y-41684396D01*
X105625326Y-41567479D01*
X105371295Y-41397741D01*
X105155259Y-41181705D01*
X104985521Y-40927674D01*
X104868604Y-40645410D01*
X104809000Y-40345760D01*
X104809000Y-40040240D01*
X104868604Y-39740590D01*
X104985521Y-39458326D01*
X105155259Y-39204295D01*
X105371295Y-38988259D01*
X105625326Y-38818521D01*
X105907590Y-38701604D01*
X106057415Y-38671802D01*
X106207239Y-38642000D01*
X106512761Y-38642000D01*
X106662585Y-38671802D01*
G37*
G36*
X140638193Y-37001704D02*
G01*
X140874901Y-37099752D01*
X140874903Y-37099753D01*
X141087935Y-37242096D01*
X141269104Y-37423265D01*
X141411447Y-37636297D01*
X141411448Y-37636299D01*
X141509496Y-37873007D01*
X141559480Y-38124293D01*
X141559480Y-38380507D01*
X141509496Y-38631793D01*
X141505268Y-38642000D01*
X141411447Y-38868503D01*
X141269104Y-39081535D01*
X141087935Y-39262704D01*
X140874903Y-39405047D01*
X140874902Y-39405048D01*
X140874901Y-39405048D01*
X140638193Y-39503096D01*
X140386907Y-39553080D01*
X140130693Y-39553080D01*
X139879407Y-39503096D01*
X139642699Y-39405048D01*
X139642698Y-39405048D01*
X139642697Y-39405047D01*
X139429665Y-39262704D01*
X139248496Y-39081535D01*
X139106153Y-38868503D01*
X139012332Y-38642000D01*
X139008104Y-38631793D01*
X138958120Y-38380507D01*
X138958120Y-38124293D01*
X139008104Y-37873007D01*
X139106152Y-37636299D01*
X139106153Y-37636297D01*
X139248496Y-37423265D01*
X139429665Y-37242096D01*
X139642697Y-37099753D01*
X139642699Y-37099752D01*
X139879407Y-37001704D01*
X140130693Y-36951720D01*
X140386907Y-36951720D01*
X140638193Y-37001704D01*
G37*
G36*
X130249593Y-37001704D02*
G01*
X130486301Y-37099752D01*
X130486303Y-37099753D01*
X130699335Y-37242096D01*
X130880504Y-37423265D01*
X131022847Y-37636297D01*
X131022848Y-37636299D01*
X131120896Y-37873007D01*
X131170880Y-38124293D01*
X131170880Y-38380507D01*
X131120896Y-38631793D01*
X131116668Y-38642000D01*
X131022847Y-38868503D01*
X130880504Y-39081535D01*
X130699335Y-39262704D01*
X130486303Y-39405047D01*
X130486302Y-39405048D01*
X130486301Y-39405048D01*
X130249593Y-39503096D01*
X129998307Y-39553080D01*
X129742093Y-39553080D01*
X129490807Y-39503096D01*
X129254099Y-39405048D01*
X129254098Y-39405048D01*
X129254097Y-39405047D01*
X129041065Y-39262704D01*
X128859896Y-39081535D01*
X128717553Y-38868503D01*
X128623732Y-38642000D01*
X128619504Y-38631793D01*
X128569520Y-38380507D01*
X128569520Y-38124293D01*
X128619504Y-37873007D01*
X128717552Y-37636299D01*
X128717553Y-37636297D01*
X128859896Y-37423265D01*
X129041065Y-37242096D01*
X129254097Y-37099753D01*
X129254099Y-37099752D01*
X129490807Y-37001704D01*
X129742093Y-36951720D01*
X129998307Y-36951720D01*
X130249593Y-37001704D01*
G37*
M02*
