M48
; DRILL file {KiCad 5.1.5-52549c5~86~ubuntu18.04.1} date jue 03 sep 2020 19:23:22 -05
; FORMAT={-:-/ absolute / metric / decimal}
; #@! TF.CreationDate,2020-09-03T19:23:22-05:00
; #@! TF.GenerationSoftware,Kicad,Pcbnew,5.1.5-52549c5~86~ubuntu18.04.1
; #@! TF.FileFunction,Plated,1,2,PTH
FMAT,2
METRIC
T1C1.000
T2C1.001
T3C1.200
%
G90
G05
T1
X120.108Y-72.196
X120.108Y-77.196
X149.508Y-66.996
X149.508Y-82.396
X120.108Y-45.516
X120.108Y-50.516
X149.508Y-40.316
X149.508Y-55.716
X120.108Y-98.876
X120.108Y-103.876
X149.508Y-93.676
X149.508Y-109.076
T2
X132.918Y-35.916
X143.307Y-89.276
X132.918Y-62.596
X143.307Y-62.596
X143.307Y-86.797
X132.918Y-60.117
X143.307Y-35.916
X132.918Y-86.797
X143.307Y-60.117
X143.307Y-113.477
X132.918Y-113.477
X132.918Y-89.276
T3
X109.83Y-72.946
X109.83Y-76.446
X109.83Y-46.266
X109.83Y-49.766
X157.683Y-42.766
X157.683Y-46.266
X157.683Y-49.766
X157.683Y-53.266
X109.83Y-99.626
X109.83Y-103.126
X157.683Y-69.446
X157.683Y-72.946
X157.683Y-76.446
X157.683Y-79.946
X157.683Y-96.126
X157.683Y-99.626
X157.683Y-103.126
X157.683Y-106.626
T0
M30
