G04 #@! TF.GenerationSoftware,KiCad,Pcbnew,5.1.5-52549c5~86~ubuntu18.04.1*
G04 #@! TF.CreationDate,2020-09-03T19:23:38-05:00*
G04 #@! TF.ProjectId,,58585858-5858-4585-9858-585858585858,rev?*
G04 #@! TF.SameCoordinates,Original*
G04 #@! TF.FileFunction,Legend,Top*
G04 #@! TF.FilePolarity,Positive*
%FSLAX46Y46*%
G04 Gerber Fmt 4.6, Leading zero omitted, Abs format (unit mm)*
G04 Created by KiCad (PCBNEW 5.1.5-52549c5~86~ubuntu18.04.1) date 2020-09-03 19:23:38*
%MOMM*%
%LPD*%
G04 APERTURE LIST*
%ADD10C,0.150000*%
%ADD11C,0.120000*%
%ADD12C,0.010000*%
G04 APERTURE END LIST*
D10*
X160558942Y-107034257D02*
X160558942Y-105891400D01*
X160558942Y-104034257D02*
X160558942Y-102891400D01*
X160558942Y-99891400D02*
X160558942Y-98748542D01*
X161130371Y-99319971D02*
X159987514Y-99319971D01*
X160558942Y-96891400D02*
X160558942Y-95748542D01*
X161130371Y-96319971D02*
X159987514Y-96319971D01*
X160558942Y-80354257D02*
X160558942Y-79211400D01*
X160558942Y-77354257D02*
X160558942Y-76211400D01*
X160558942Y-73211400D02*
X160558942Y-72068542D01*
X161130371Y-72639971D02*
X159987514Y-72639971D01*
X160558942Y-70211400D02*
X160558942Y-69068542D01*
X161130371Y-69639971D02*
X159987514Y-69639971D01*
X113035771Y-108088371D02*
X113178628Y-108088371D01*
X113321485Y-108159800D01*
X113392914Y-108231228D01*
X113464342Y-108374085D01*
X113535771Y-108659800D01*
X113535771Y-109016942D01*
X113464342Y-109302657D01*
X113392914Y-109445514D01*
X113321485Y-109516942D01*
X113178628Y-109588371D01*
X113035771Y-109588371D01*
X112892914Y-109516942D01*
X112821485Y-109445514D01*
X112750057Y-109302657D01*
X112678628Y-109016942D01*
X112678628Y-108659800D01*
X112750057Y-108374085D01*
X112821485Y-108231228D01*
X112892914Y-108159800D01*
X113035771Y-108088371D01*
X114464342Y-108088371D02*
X114607200Y-108088371D01*
X114750057Y-108159800D01*
X114821485Y-108231228D01*
X114892914Y-108374085D01*
X114964342Y-108659800D01*
X114964342Y-109016942D01*
X114892914Y-109302657D01*
X114821485Y-109445514D01*
X114750057Y-109516942D01*
X114607200Y-109588371D01*
X114464342Y-109588371D01*
X114321485Y-109516942D01*
X114250057Y-109445514D01*
X114178628Y-109302657D01*
X114107200Y-109016942D01*
X114107200Y-108659800D01*
X114178628Y-108374085D01*
X114250057Y-108231228D01*
X114321485Y-108159800D01*
X114464342Y-108088371D01*
X115250057Y-109731228D02*
X116392914Y-109731228D01*
X116750057Y-108802657D02*
X117250057Y-108802657D01*
X117464342Y-109588371D02*
X116750057Y-109588371D01*
X116750057Y-108088371D01*
X117464342Y-108088371D01*
X118821485Y-109588371D02*
X118107200Y-109588371D01*
X118107200Y-108088371D01*
X119321485Y-108802657D02*
X119821485Y-108802657D01*
X120035771Y-109588371D02*
X119321485Y-109588371D01*
X119321485Y-108088371D01*
X120035771Y-108088371D01*
X121535771Y-109445514D02*
X121464342Y-109516942D01*
X121250057Y-109588371D01*
X121107200Y-109588371D01*
X120892914Y-109516942D01*
X120750057Y-109374085D01*
X120678628Y-109231228D01*
X120607200Y-108945514D01*
X120607200Y-108731228D01*
X120678628Y-108445514D01*
X120750057Y-108302657D01*
X120892914Y-108159800D01*
X121107200Y-108088371D01*
X121250057Y-108088371D01*
X121464342Y-108159800D01*
X121535771Y-108231228D01*
X121964342Y-108088371D02*
X122821485Y-108088371D01*
X122392914Y-109588371D02*
X122392914Y-108088371D01*
X124178628Y-109588371D02*
X123678628Y-108874085D01*
X123321485Y-109588371D02*
X123321485Y-108088371D01*
X123892914Y-108088371D01*
X124035771Y-108159800D01*
X124107200Y-108231228D01*
X124178628Y-108374085D01*
X124178628Y-108588371D01*
X124107200Y-108731228D01*
X124035771Y-108802657D01*
X123892914Y-108874085D01*
X123321485Y-108874085D01*
X125107200Y-108088371D02*
X125392914Y-108088371D01*
X125535771Y-108159800D01*
X125678628Y-108302657D01*
X125750057Y-108588371D01*
X125750057Y-109088371D01*
X125678628Y-109374085D01*
X125535771Y-109516942D01*
X125392914Y-109588371D01*
X125107200Y-109588371D01*
X124964342Y-109516942D01*
X124821485Y-109374085D01*
X124750057Y-109088371D01*
X124750057Y-108588371D01*
X124821485Y-108302657D01*
X124964342Y-108159800D01*
X125107200Y-108088371D01*
X126392914Y-109588371D02*
X126392914Y-108088371D01*
X127250057Y-109588371D01*
X127250057Y-108088371D01*
X127964342Y-109588371D02*
X127964342Y-108088371D01*
X129535771Y-109445514D02*
X129464342Y-109516942D01*
X129250057Y-109588371D01*
X129107200Y-109588371D01*
X128892914Y-109516942D01*
X128750057Y-109374085D01*
X128678628Y-109231228D01*
X128607200Y-108945514D01*
X128607200Y-108731228D01*
X128678628Y-108445514D01*
X128750057Y-108302657D01*
X128892914Y-108159800D01*
X129107200Y-108088371D01*
X129250057Y-108088371D01*
X129464342Y-108159800D01*
X129535771Y-108231228D01*
X113035771Y-81408371D02*
X113178628Y-81408371D01*
X113321485Y-81479800D01*
X113392914Y-81551228D01*
X113464342Y-81694085D01*
X113535771Y-81979800D01*
X113535771Y-82336942D01*
X113464342Y-82622657D01*
X113392914Y-82765514D01*
X113321485Y-82836942D01*
X113178628Y-82908371D01*
X113035771Y-82908371D01*
X112892914Y-82836942D01*
X112821485Y-82765514D01*
X112750057Y-82622657D01*
X112678628Y-82336942D01*
X112678628Y-81979800D01*
X112750057Y-81694085D01*
X112821485Y-81551228D01*
X112892914Y-81479800D01*
X113035771Y-81408371D01*
X114464342Y-81408371D02*
X114607200Y-81408371D01*
X114750057Y-81479800D01*
X114821485Y-81551228D01*
X114892914Y-81694085D01*
X114964342Y-81979800D01*
X114964342Y-82336942D01*
X114892914Y-82622657D01*
X114821485Y-82765514D01*
X114750057Y-82836942D01*
X114607200Y-82908371D01*
X114464342Y-82908371D01*
X114321485Y-82836942D01*
X114250057Y-82765514D01*
X114178628Y-82622657D01*
X114107200Y-82336942D01*
X114107200Y-81979800D01*
X114178628Y-81694085D01*
X114250057Y-81551228D01*
X114321485Y-81479800D01*
X114464342Y-81408371D01*
X115250057Y-83051228D02*
X116392914Y-83051228D01*
X116750057Y-82122657D02*
X117250057Y-82122657D01*
X117464342Y-82908371D02*
X116750057Y-82908371D01*
X116750057Y-81408371D01*
X117464342Y-81408371D01*
X118821485Y-82908371D02*
X118107200Y-82908371D01*
X118107200Y-81408371D01*
X119321485Y-82122657D02*
X119821485Y-82122657D01*
X120035771Y-82908371D02*
X119321485Y-82908371D01*
X119321485Y-81408371D01*
X120035771Y-81408371D01*
X121535771Y-82765514D02*
X121464342Y-82836942D01*
X121250057Y-82908371D01*
X121107200Y-82908371D01*
X120892914Y-82836942D01*
X120750057Y-82694085D01*
X120678628Y-82551228D01*
X120607200Y-82265514D01*
X120607200Y-82051228D01*
X120678628Y-81765514D01*
X120750057Y-81622657D01*
X120892914Y-81479800D01*
X121107200Y-81408371D01*
X121250057Y-81408371D01*
X121464342Y-81479800D01*
X121535771Y-81551228D01*
X121964342Y-81408371D02*
X122821485Y-81408371D01*
X122392914Y-82908371D02*
X122392914Y-81408371D01*
X124178628Y-82908371D02*
X123678628Y-82194085D01*
X123321485Y-82908371D02*
X123321485Y-81408371D01*
X123892914Y-81408371D01*
X124035771Y-81479800D01*
X124107200Y-81551228D01*
X124178628Y-81694085D01*
X124178628Y-81908371D01*
X124107200Y-82051228D01*
X124035771Y-82122657D01*
X123892914Y-82194085D01*
X123321485Y-82194085D01*
X125107200Y-81408371D02*
X125392914Y-81408371D01*
X125535771Y-81479800D01*
X125678628Y-81622657D01*
X125750057Y-81908371D01*
X125750057Y-82408371D01*
X125678628Y-82694085D01*
X125535771Y-82836942D01*
X125392914Y-82908371D01*
X125107200Y-82908371D01*
X124964342Y-82836942D01*
X124821485Y-82694085D01*
X124750057Y-82408371D01*
X124750057Y-81908371D01*
X124821485Y-81622657D01*
X124964342Y-81479800D01*
X125107200Y-81408371D01*
X126392914Y-82908371D02*
X126392914Y-81408371D01*
X127250057Y-82908371D01*
X127250057Y-81408371D01*
X127964342Y-82908371D02*
X127964342Y-81408371D01*
X129535771Y-82765514D02*
X129464342Y-82836942D01*
X129250057Y-82908371D01*
X129107200Y-82908371D01*
X128892914Y-82836942D01*
X128750057Y-82694085D01*
X128678628Y-82551228D01*
X128607200Y-82265514D01*
X128607200Y-82051228D01*
X128678628Y-81765514D01*
X128750057Y-81622657D01*
X128892914Y-81479800D01*
X129107200Y-81408371D01*
X129250057Y-81408371D01*
X129464342Y-81479800D01*
X129535771Y-81551228D01*
X160558942Y-53674257D02*
X160558942Y-52531400D01*
X160558942Y-50674257D02*
X160558942Y-49531400D01*
X160558942Y-46531400D02*
X160558942Y-45388542D01*
X161130371Y-45959971D02*
X159987514Y-45959971D01*
X160558942Y-43531400D02*
X160558942Y-42388542D01*
X161130371Y-42959971D02*
X159987514Y-42959971D01*
X113035771Y-54728371D02*
X113178628Y-54728371D01*
X113321485Y-54799800D01*
X113392914Y-54871228D01*
X113464342Y-55014085D01*
X113535771Y-55299800D01*
X113535771Y-55656942D01*
X113464342Y-55942657D01*
X113392914Y-56085514D01*
X113321485Y-56156942D01*
X113178628Y-56228371D01*
X113035771Y-56228371D01*
X112892914Y-56156942D01*
X112821485Y-56085514D01*
X112750057Y-55942657D01*
X112678628Y-55656942D01*
X112678628Y-55299800D01*
X112750057Y-55014085D01*
X112821485Y-54871228D01*
X112892914Y-54799800D01*
X113035771Y-54728371D01*
X114464342Y-54728371D02*
X114607200Y-54728371D01*
X114750057Y-54799800D01*
X114821485Y-54871228D01*
X114892914Y-55014085D01*
X114964342Y-55299800D01*
X114964342Y-55656942D01*
X114892914Y-55942657D01*
X114821485Y-56085514D01*
X114750057Y-56156942D01*
X114607200Y-56228371D01*
X114464342Y-56228371D01*
X114321485Y-56156942D01*
X114250057Y-56085514D01*
X114178628Y-55942657D01*
X114107200Y-55656942D01*
X114107200Y-55299800D01*
X114178628Y-55014085D01*
X114250057Y-54871228D01*
X114321485Y-54799800D01*
X114464342Y-54728371D01*
X115250057Y-56371228D02*
X116392914Y-56371228D01*
X116750057Y-55442657D02*
X117250057Y-55442657D01*
X117464342Y-56228371D02*
X116750057Y-56228371D01*
X116750057Y-54728371D01*
X117464342Y-54728371D01*
X118821485Y-56228371D02*
X118107200Y-56228371D01*
X118107200Y-54728371D01*
X119321485Y-55442657D02*
X119821485Y-55442657D01*
X120035771Y-56228371D02*
X119321485Y-56228371D01*
X119321485Y-54728371D01*
X120035771Y-54728371D01*
X121535771Y-56085514D02*
X121464342Y-56156942D01*
X121250057Y-56228371D01*
X121107200Y-56228371D01*
X120892914Y-56156942D01*
X120750057Y-56014085D01*
X120678628Y-55871228D01*
X120607200Y-55585514D01*
X120607200Y-55371228D01*
X120678628Y-55085514D01*
X120750057Y-54942657D01*
X120892914Y-54799800D01*
X121107200Y-54728371D01*
X121250057Y-54728371D01*
X121464342Y-54799800D01*
X121535771Y-54871228D01*
X121964342Y-54728371D02*
X122821485Y-54728371D01*
X122392914Y-56228371D02*
X122392914Y-54728371D01*
X124178628Y-56228371D02*
X123678628Y-55514085D01*
X123321485Y-56228371D02*
X123321485Y-54728371D01*
X123892914Y-54728371D01*
X124035771Y-54799800D01*
X124107200Y-54871228D01*
X124178628Y-55014085D01*
X124178628Y-55228371D01*
X124107200Y-55371228D01*
X124035771Y-55442657D01*
X123892914Y-55514085D01*
X123321485Y-55514085D01*
X125107200Y-54728371D02*
X125392914Y-54728371D01*
X125535771Y-54799800D01*
X125678628Y-54942657D01*
X125750057Y-55228371D01*
X125750057Y-55728371D01*
X125678628Y-56014085D01*
X125535771Y-56156942D01*
X125392914Y-56228371D01*
X125107200Y-56228371D01*
X124964342Y-56156942D01*
X124821485Y-56014085D01*
X124750057Y-55728371D01*
X124750057Y-55228371D01*
X124821485Y-54942657D01*
X124964342Y-54799800D01*
X125107200Y-54728371D01*
X126392914Y-56228371D02*
X126392914Y-54728371D01*
X127250057Y-56228371D01*
X127250057Y-54728371D01*
X127964342Y-56228371D02*
X127964342Y-54728371D01*
X129535771Y-56085514D02*
X129464342Y-56156942D01*
X129250057Y-56228371D01*
X129107200Y-56228371D01*
X128892914Y-56156942D01*
X128750057Y-56014085D01*
X128678628Y-55871228D01*
X128607200Y-55585514D01*
X128607200Y-55371228D01*
X128678628Y-55085514D01*
X128750057Y-54942657D01*
X128892914Y-54799800D01*
X129107200Y-54728371D01*
X129250057Y-54728371D01*
X129464342Y-54799800D01*
X129535771Y-54871228D01*
D11*
X117708000Y-91276200D02*
X117708000Y-111476200D01*
X117708000Y-111476200D02*
X151908000Y-111476200D01*
X151908000Y-111476200D02*
X151908000Y-91276200D01*
X151908000Y-91276200D02*
X117708000Y-91276200D01*
X117318000Y-97876200D02*
X117318000Y-99886200D01*
X117708000Y-64596200D02*
X117708000Y-84796200D01*
X117708000Y-84796200D02*
X151908000Y-84796200D01*
X151908000Y-84796200D02*
X151908000Y-64596200D01*
X151908000Y-64596200D02*
X117708000Y-64596200D01*
X117318000Y-71196200D02*
X117318000Y-73206200D01*
X159114585Y-106018613D02*
G75*
G02X159238200Y-106626200I-1431385J-607587D01*
G01*
X157075458Y-105194091D02*
G75*
G02X158291200Y-105194200I607742J-1432109D01*
G01*
X156251091Y-107233942D02*
G75*
G02X156251200Y-106018200I1432109J607742D01*
G01*
X158290942Y-108058309D02*
G75*
G02X157075200Y-108058200I-607742J1432109D01*
G01*
X159238692Y-106599189D02*
G75*
G02X159115200Y-107234200I-1555492J-27011D01*
G01*
X159238200Y-103126200D02*
G75*
G03X159238200Y-103126200I-1555000J0D01*
G01*
X159238200Y-99626200D02*
G75*
G03X159238200Y-99626200I-1555000J0D01*
G01*
X159238200Y-96126200D02*
G75*
G03X159238200Y-96126200I-1555000J0D01*
G01*
X159783200Y-108786200D02*
X159783200Y-93966200D01*
X154223200Y-108786200D02*
X154223200Y-93966200D01*
X161343200Y-108786200D02*
X161343200Y-93966200D01*
X154223200Y-108786200D02*
X161343200Y-108786200D01*
X154223200Y-93966200D02*
X161343200Y-93966200D01*
X159843200Y-109026200D02*
X161583200Y-109026200D01*
X161583200Y-109026200D02*
X161583200Y-107526200D01*
X159114585Y-79338613D02*
G75*
G02X159238200Y-79946200I-1431385J-607587D01*
G01*
X157075458Y-78514091D02*
G75*
G02X158291200Y-78514200I607742J-1432109D01*
G01*
X156251091Y-80553942D02*
G75*
G02X156251200Y-79338200I1432109J607742D01*
G01*
X158290942Y-81378309D02*
G75*
G02X157075200Y-81378200I-607742J1432109D01*
G01*
X159238692Y-79919189D02*
G75*
G02X159115200Y-80554200I-1555492J-27011D01*
G01*
X159238200Y-76446200D02*
G75*
G03X159238200Y-76446200I-1555000J0D01*
G01*
X159238200Y-72946200D02*
G75*
G03X159238200Y-72946200I-1555000J0D01*
G01*
X159238200Y-69446200D02*
G75*
G03X159238200Y-69446200I-1555000J0D01*
G01*
X159783200Y-82106200D02*
X159783200Y-67286200D01*
X154223200Y-82106200D02*
X154223200Y-67286200D01*
X161343200Y-82106200D02*
X161343200Y-67286200D01*
X154223200Y-82106200D02*
X161343200Y-82106200D01*
X154223200Y-67286200D02*
X161343200Y-67286200D01*
X159843200Y-82346200D02*
X161583200Y-82346200D01*
X161583200Y-82346200D02*
X161583200Y-80846200D01*
X108398215Y-100233787D02*
G75*
G02X108274600Y-99626200I1431385J607587D01*
G01*
X110437342Y-101058309D02*
G75*
G02X109221600Y-101058200I-607742J1432109D01*
G01*
X111261709Y-99018458D02*
G75*
G02X111261600Y-100234200I-1432109J-607742D01*
G01*
X109221858Y-98194091D02*
G75*
G02X110437600Y-98194200I607742J-1432109D01*
G01*
X108274108Y-99653211D02*
G75*
G02X108397600Y-99018200I1555492J27011D01*
G01*
X111384600Y-103126200D02*
G75*
G03X111384600Y-103126200I-1555000J0D01*
G01*
X107729600Y-97466200D02*
X107729600Y-105286200D01*
X113289600Y-97466200D02*
X113289600Y-105286200D01*
X106169600Y-97466200D02*
X106169600Y-105286200D01*
X113289600Y-97466200D02*
X106169600Y-97466200D01*
X113289600Y-105286200D02*
X106169600Y-105286200D01*
X107669600Y-97226200D02*
X105929600Y-97226200D01*
X105929600Y-97226200D02*
X105929600Y-98726200D01*
X108398215Y-73553787D02*
G75*
G02X108274600Y-72946200I1431385J607587D01*
G01*
X110437342Y-74378309D02*
G75*
G02X109221600Y-74378200I-607742J1432109D01*
G01*
X111261709Y-72338458D02*
G75*
G02X111261600Y-73554200I-1432109J-607742D01*
G01*
X109221858Y-71514091D02*
G75*
G02X110437600Y-71514200I607742J-1432109D01*
G01*
X108274108Y-72973211D02*
G75*
G02X108397600Y-72338200I1555492J27011D01*
G01*
X111384600Y-76446200D02*
G75*
G03X111384600Y-76446200I-1555000J0D01*
G01*
X107729600Y-70786200D02*
X107729600Y-78606200D01*
X113289600Y-70786200D02*
X113289600Y-78606200D01*
X106169600Y-70786200D02*
X106169600Y-78606200D01*
X113289600Y-70786200D02*
X106169600Y-70786200D01*
X113289600Y-78606200D02*
X106169600Y-78606200D01*
X107669600Y-70546200D02*
X105929600Y-70546200D01*
X105929600Y-70546200D02*
X105929600Y-72046200D01*
D12*
G36*
X126260414Y-101578131D02*
G01*
X126344235Y-102022755D01*
X126653520Y-102150253D01*
X126962806Y-102277751D01*
X127333846Y-102025446D01*
X127437757Y-101955196D01*
X127531687Y-101892472D01*
X127611252Y-101840138D01*
X127672070Y-101801057D01*
X127709757Y-101778093D01*
X127720021Y-101773142D01*
X127738510Y-101785876D01*
X127778020Y-101821082D01*
X127834122Y-101874262D01*
X127902387Y-101940918D01*
X127978386Y-102016554D01*
X128057692Y-102096672D01*
X128135875Y-102176774D01*
X128208507Y-102252364D01*
X128271159Y-102318945D01*
X128319403Y-102372018D01*
X128348810Y-102407087D01*
X128355841Y-102418823D01*
X128345723Y-102440460D01*
X128317359Y-102487862D01*
X128273729Y-102556393D01*
X128217818Y-102641415D01*
X128152606Y-102738293D01*
X128114819Y-102793550D01*
X128045943Y-102894448D01*
X127984740Y-102985499D01*
X127934178Y-103062170D01*
X127897228Y-103119928D01*
X127876858Y-103154243D01*
X127873797Y-103161454D01*
X127880736Y-103181948D01*
X127899651Y-103229713D01*
X127927687Y-103298032D01*
X127961991Y-103380189D01*
X127999709Y-103469470D01*
X128037987Y-103559158D01*
X128073970Y-103642538D01*
X128104806Y-103712894D01*
X128127639Y-103763510D01*
X128139617Y-103787671D01*
X128140324Y-103788622D01*
X128159131Y-103793236D01*
X128209218Y-103803528D01*
X128285393Y-103818487D01*
X128382465Y-103837101D01*
X128495243Y-103858359D01*
X128561042Y-103870618D01*
X128681550Y-103893562D01*
X128790397Y-103915395D01*
X128882076Y-103934922D01*
X128951081Y-103950948D01*
X128991904Y-103962279D01*
X129000111Y-103965874D01*
X129008148Y-103990206D01*
X129014633Y-104045159D01*
X129019570Y-104124308D01*
X129022964Y-104221226D01*
X129024818Y-104329487D01*
X129025138Y-104442665D01*
X129023927Y-104554335D01*
X129021190Y-104658068D01*
X129016931Y-104747441D01*
X129011155Y-104816026D01*
X129003867Y-104857397D01*
X128999495Y-104866010D01*
X128973364Y-104876333D01*
X128917993Y-104891092D01*
X128840707Y-104908552D01*
X128748830Y-104926980D01*
X128716758Y-104932941D01*
X128562124Y-104961266D01*
X128439975Y-104984076D01*
X128346273Y-105002280D01*
X128276984Y-105016783D01*
X128228071Y-105028492D01*
X128195497Y-105038315D01*
X128175228Y-105047156D01*
X128163226Y-105055924D01*
X128161547Y-105057657D01*
X128144784Y-105085571D01*
X128119214Y-105139895D01*
X128087388Y-105213977D01*
X128051860Y-105301165D01*
X128015183Y-105394808D01*
X127979911Y-105488252D01*
X127948596Y-105574847D01*
X127923793Y-105647940D01*
X127908054Y-105700878D01*
X127903932Y-105727011D01*
X127904276Y-105727926D01*
X127918241Y-105749286D01*
X127949922Y-105796284D01*
X127995991Y-105864027D01*
X128053118Y-105947623D01*
X128117973Y-106042182D01*
X128136443Y-106069054D01*
X128202299Y-106166475D01*
X128260250Y-106255363D01*
X128307138Y-106330612D01*
X128339807Y-106387120D01*
X128355100Y-106419781D01*
X128355841Y-106423793D01*
X128342992Y-106444884D01*
X128307488Y-106486664D01*
X128253893Y-106544645D01*
X128186771Y-106614335D01*
X128110687Y-106691245D01*
X128030204Y-106770883D01*
X127949887Y-106848761D01*
X127874299Y-106920386D01*
X127808005Y-106981270D01*
X127755569Y-107026921D01*
X127721555Y-107052850D01*
X127712145Y-107057083D01*
X127690243Y-107047112D01*
X127645400Y-107020220D01*
X127584921Y-106980936D01*
X127538389Y-106949317D01*
X127454075Y-106891298D01*
X127354226Y-106822984D01*
X127254073Y-106754779D01*
X127200227Y-106718275D01*
X127017971Y-106595000D01*
X126864981Y-106677720D01*
X126795282Y-106713959D01*
X126736014Y-106742126D01*
X126695911Y-106758191D01*
X126685703Y-106760426D01*
X126673429Y-106743922D01*
X126649213Y-106697282D01*
X126614863Y-106624809D01*
X126572188Y-106530806D01*
X126522994Y-106419574D01*
X126469090Y-106295415D01*
X126412284Y-106162632D01*
X126354382Y-106025527D01*
X126297193Y-105888402D01*
X126242524Y-105755558D01*
X126192184Y-105631298D01*
X126147980Y-105519925D01*
X126111719Y-105425739D01*
X126085209Y-105353044D01*
X126070258Y-105306141D01*
X126067854Y-105290033D01*
X126086911Y-105269486D01*
X126128636Y-105236133D01*
X126184306Y-105196902D01*
X126188978Y-105193799D01*
X126332864Y-105078623D01*
X126448883Y-104944253D01*
X126536030Y-104794984D01*
X126593299Y-104635113D01*
X126619686Y-104468937D01*
X126614185Y-104300752D01*
X126575790Y-104134855D01*
X126503495Y-103975542D01*
X126482226Y-103940687D01*
X126371596Y-103799937D01*
X126240902Y-103686914D01*
X126094664Y-103602203D01*
X125937408Y-103546394D01*
X125773657Y-103520074D01*
X125607933Y-103523830D01*
X125444762Y-103558250D01*
X125288665Y-103623923D01*
X125144167Y-103721435D01*
X125099469Y-103761013D01*
X124985712Y-103884903D01*
X124902818Y-104015324D01*
X124845956Y-104161515D01*
X124814287Y-104306288D01*
X124806469Y-104469060D01*
X124832538Y-104632640D01*
X124889845Y-104791498D01*
X124975744Y-104940106D01*
X125087586Y-105072935D01*
X125222723Y-105184456D01*
X125240483Y-105196211D01*
X125296750Y-105234708D01*
X125339523Y-105268063D01*
X125359972Y-105289360D01*
X125360269Y-105290033D01*
X125355879Y-105313071D01*
X125338476Y-105365357D01*
X125309868Y-105442590D01*
X125271865Y-105540468D01*
X125226274Y-105654691D01*
X125174903Y-105780958D01*
X125119562Y-105914967D01*
X125062058Y-106052418D01*
X125004201Y-106189008D01*
X124947798Y-106320437D01*
X124894658Y-106442405D01*
X124846590Y-106550609D01*
X124805401Y-106640749D01*
X124772901Y-106708523D01*
X124750897Y-106749630D01*
X124742036Y-106760426D01*
X124714960Y-106752019D01*
X124664297Y-106729472D01*
X124598783Y-106696813D01*
X124562759Y-106677720D01*
X124409768Y-106595000D01*
X124227512Y-106718275D01*
X124134475Y-106781428D01*
X124032615Y-106850927D01*
X123937162Y-106916365D01*
X123889350Y-106949317D01*
X123822105Y-106994473D01*
X123765164Y-107030257D01*
X123725954Y-107052138D01*
X123713219Y-107056763D01*
X123694683Y-107044285D01*
X123653659Y-107009452D01*
X123594125Y-106955878D01*
X123520058Y-106887183D01*
X123435435Y-106806981D01*
X123381915Y-106755486D01*
X123288281Y-106663486D01*
X123207359Y-106581199D01*
X123142423Y-106512145D01*
X123096742Y-106459844D01*
X123073589Y-106427816D01*
X123071368Y-106421316D01*
X123081676Y-106396594D01*
X123110161Y-106346605D01*
X123153663Y-106276412D01*
X123209023Y-106191075D01*
X123273080Y-106095656D01*
X123291297Y-106069054D01*
X123357673Y-105972367D01*
X123417222Y-105885317D01*
X123466616Y-105812795D01*
X123502525Y-105759693D01*
X123521619Y-105730903D01*
X123523464Y-105727926D01*
X123520705Y-105704982D01*
X123506062Y-105654536D01*
X123482087Y-105583241D01*
X123451334Y-105497747D01*
X123416356Y-105404707D01*
X123379707Y-105310774D01*
X123343939Y-105222599D01*
X123311606Y-105146834D01*
X123285262Y-105090131D01*
X123267458Y-105059143D01*
X123266193Y-105057657D01*
X123255306Y-105048801D01*
X123236918Y-105040043D01*
X123206994Y-105030477D01*
X123161497Y-105019196D01*
X123096391Y-105005293D01*
X123007639Y-104987863D01*
X122891207Y-104965998D01*
X122743058Y-104938791D01*
X122710982Y-104932941D01*
X122615914Y-104914574D01*
X122533035Y-104896605D01*
X122469670Y-104880769D01*
X122433142Y-104868800D01*
X122428244Y-104866010D01*
X122420173Y-104841272D01*
X122413613Y-104785990D01*
X122408567Y-104706589D01*
X122405041Y-104609496D01*
X122403039Y-104501138D01*
X122402564Y-104387940D01*
X122403623Y-104276328D01*
X122406218Y-104172729D01*
X122410354Y-104083568D01*
X122416037Y-104015272D01*
X122423269Y-103974266D01*
X122427629Y-103965874D01*
X122451902Y-103957408D01*
X122507174Y-103943635D01*
X122587938Y-103925750D01*
X122688688Y-103904948D01*
X122803917Y-103882423D01*
X122866698Y-103870618D01*
X122985813Y-103848351D01*
X123092035Y-103828179D01*
X123180173Y-103811115D01*
X123245034Y-103798169D01*
X123281426Y-103790355D01*
X123287416Y-103788622D01*
X123297539Y-103769090D01*
X123318938Y-103722043D01*
X123348761Y-103654203D01*
X123384155Y-103572291D01*
X123422268Y-103483028D01*
X123460247Y-103393135D01*
X123495240Y-103309335D01*
X123524394Y-103238347D01*
X123544857Y-103186894D01*
X123553777Y-103161697D01*
X123553943Y-103160596D01*
X123543831Y-103140719D01*
X123515483Y-103094977D01*
X123471877Y-103027917D01*
X123415994Y-102944084D01*
X123350813Y-102848026D01*
X123312921Y-102792850D01*
X123243875Y-102691681D01*
X123182550Y-102599830D01*
X123131937Y-102521944D01*
X123095029Y-102462669D01*
X123074818Y-102426651D01*
X123071899Y-102418577D01*
X123084447Y-102399784D01*
X123119137Y-102359657D01*
X123171537Y-102302693D01*
X123237216Y-102233385D01*
X123311744Y-102156231D01*
X123390687Y-102075725D01*
X123469617Y-101996363D01*
X123544100Y-101922640D01*
X123609706Y-101859052D01*
X123662004Y-101810094D01*
X123696561Y-101780261D01*
X123708122Y-101773142D01*
X123726946Y-101783153D01*
X123771969Y-101811278D01*
X123838813Y-101854654D01*
X123923101Y-101910418D01*
X124020456Y-101975706D01*
X124093893Y-102025446D01*
X124464933Y-102277751D01*
X125083505Y-102022755D01*
X125167325Y-101578131D01*
X125251146Y-101133507D01*
X126176594Y-101133507D01*
X126260414Y-101578131D01*
G37*
X126260414Y-101578131D02*
X126344235Y-102022755D01*
X126653520Y-102150253D01*
X126962806Y-102277751D01*
X127333846Y-102025446D01*
X127437757Y-101955196D01*
X127531687Y-101892472D01*
X127611252Y-101840138D01*
X127672070Y-101801057D01*
X127709757Y-101778093D01*
X127720021Y-101773142D01*
X127738510Y-101785876D01*
X127778020Y-101821082D01*
X127834122Y-101874262D01*
X127902387Y-101940918D01*
X127978386Y-102016554D01*
X128057692Y-102096672D01*
X128135875Y-102176774D01*
X128208507Y-102252364D01*
X128271159Y-102318945D01*
X128319403Y-102372018D01*
X128348810Y-102407087D01*
X128355841Y-102418823D01*
X128345723Y-102440460D01*
X128317359Y-102487862D01*
X128273729Y-102556393D01*
X128217818Y-102641415D01*
X128152606Y-102738293D01*
X128114819Y-102793550D01*
X128045943Y-102894448D01*
X127984740Y-102985499D01*
X127934178Y-103062170D01*
X127897228Y-103119928D01*
X127876858Y-103154243D01*
X127873797Y-103161454D01*
X127880736Y-103181948D01*
X127899651Y-103229713D01*
X127927687Y-103298032D01*
X127961991Y-103380189D01*
X127999709Y-103469470D01*
X128037987Y-103559158D01*
X128073970Y-103642538D01*
X128104806Y-103712894D01*
X128127639Y-103763510D01*
X128139617Y-103787671D01*
X128140324Y-103788622D01*
X128159131Y-103793236D01*
X128209218Y-103803528D01*
X128285393Y-103818487D01*
X128382465Y-103837101D01*
X128495243Y-103858359D01*
X128561042Y-103870618D01*
X128681550Y-103893562D01*
X128790397Y-103915395D01*
X128882076Y-103934922D01*
X128951081Y-103950948D01*
X128991904Y-103962279D01*
X129000111Y-103965874D01*
X129008148Y-103990206D01*
X129014633Y-104045159D01*
X129019570Y-104124308D01*
X129022964Y-104221226D01*
X129024818Y-104329487D01*
X129025138Y-104442665D01*
X129023927Y-104554335D01*
X129021190Y-104658068D01*
X129016931Y-104747441D01*
X129011155Y-104816026D01*
X129003867Y-104857397D01*
X128999495Y-104866010D01*
X128973364Y-104876333D01*
X128917993Y-104891092D01*
X128840707Y-104908552D01*
X128748830Y-104926980D01*
X128716758Y-104932941D01*
X128562124Y-104961266D01*
X128439975Y-104984076D01*
X128346273Y-105002280D01*
X128276984Y-105016783D01*
X128228071Y-105028492D01*
X128195497Y-105038315D01*
X128175228Y-105047156D01*
X128163226Y-105055924D01*
X128161547Y-105057657D01*
X128144784Y-105085571D01*
X128119214Y-105139895D01*
X128087388Y-105213977D01*
X128051860Y-105301165D01*
X128015183Y-105394808D01*
X127979911Y-105488252D01*
X127948596Y-105574847D01*
X127923793Y-105647940D01*
X127908054Y-105700878D01*
X127903932Y-105727011D01*
X127904276Y-105727926D01*
X127918241Y-105749286D01*
X127949922Y-105796284D01*
X127995991Y-105864027D01*
X128053118Y-105947623D01*
X128117973Y-106042182D01*
X128136443Y-106069054D01*
X128202299Y-106166475D01*
X128260250Y-106255363D01*
X128307138Y-106330612D01*
X128339807Y-106387120D01*
X128355100Y-106419781D01*
X128355841Y-106423793D01*
X128342992Y-106444884D01*
X128307488Y-106486664D01*
X128253893Y-106544645D01*
X128186771Y-106614335D01*
X128110687Y-106691245D01*
X128030204Y-106770883D01*
X127949887Y-106848761D01*
X127874299Y-106920386D01*
X127808005Y-106981270D01*
X127755569Y-107026921D01*
X127721555Y-107052850D01*
X127712145Y-107057083D01*
X127690243Y-107047112D01*
X127645400Y-107020220D01*
X127584921Y-106980936D01*
X127538389Y-106949317D01*
X127454075Y-106891298D01*
X127354226Y-106822984D01*
X127254073Y-106754779D01*
X127200227Y-106718275D01*
X127017971Y-106595000D01*
X126864981Y-106677720D01*
X126795282Y-106713959D01*
X126736014Y-106742126D01*
X126695911Y-106758191D01*
X126685703Y-106760426D01*
X126673429Y-106743922D01*
X126649213Y-106697282D01*
X126614863Y-106624809D01*
X126572188Y-106530806D01*
X126522994Y-106419574D01*
X126469090Y-106295415D01*
X126412284Y-106162632D01*
X126354382Y-106025527D01*
X126297193Y-105888402D01*
X126242524Y-105755558D01*
X126192184Y-105631298D01*
X126147980Y-105519925D01*
X126111719Y-105425739D01*
X126085209Y-105353044D01*
X126070258Y-105306141D01*
X126067854Y-105290033D01*
X126086911Y-105269486D01*
X126128636Y-105236133D01*
X126184306Y-105196902D01*
X126188978Y-105193799D01*
X126332864Y-105078623D01*
X126448883Y-104944253D01*
X126536030Y-104794984D01*
X126593299Y-104635113D01*
X126619686Y-104468937D01*
X126614185Y-104300752D01*
X126575790Y-104134855D01*
X126503495Y-103975542D01*
X126482226Y-103940687D01*
X126371596Y-103799937D01*
X126240902Y-103686914D01*
X126094664Y-103602203D01*
X125937408Y-103546394D01*
X125773657Y-103520074D01*
X125607933Y-103523830D01*
X125444762Y-103558250D01*
X125288665Y-103623923D01*
X125144167Y-103721435D01*
X125099469Y-103761013D01*
X124985712Y-103884903D01*
X124902818Y-104015324D01*
X124845956Y-104161515D01*
X124814287Y-104306288D01*
X124806469Y-104469060D01*
X124832538Y-104632640D01*
X124889845Y-104791498D01*
X124975744Y-104940106D01*
X125087586Y-105072935D01*
X125222723Y-105184456D01*
X125240483Y-105196211D01*
X125296750Y-105234708D01*
X125339523Y-105268063D01*
X125359972Y-105289360D01*
X125360269Y-105290033D01*
X125355879Y-105313071D01*
X125338476Y-105365357D01*
X125309868Y-105442590D01*
X125271865Y-105540468D01*
X125226274Y-105654691D01*
X125174903Y-105780958D01*
X125119562Y-105914967D01*
X125062058Y-106052418D01*
X125004201Y-106189008D01*
X124947798Y-106320437D01*
X124894658Y-106442405D01*
X124846590Y-106550609D01*
X124805401Y-106640749D01*
X124772901Y-106708523D01*
X124750897Y-106749630D01*
X124742036Y-106760426D01*
X124714960Y-106752019D01*
X124664297Y-106729472D01*
X124598783Y-106696813D01*
X124562759Y-106677720D01*
X124409768Y-106595000D01*
X124227512Y-106718275D01*
X124134475Y-106781428D01*
X124032615Y-106850927D01*
X123937162Y-106916365D01*
X123889350Y-106949317D01*
X123822105Y-106994473D01*
X123765164Y-107030257D01*
X123725954Y-107052138D01*
X123713219Y-107056763D01*
X123694683Y-107044285D01*
X123653659Y-107009452D01*
X123594125Y-106955878D01*
X123520058Y-106887183D01*
X123435435Y-106806981D01*
X123381915Y-106755486D01*
X123288281Y-106663486D01*
X123207359Y-106581199D01*
X123142423Y-106512145D01*
X123096742Y-106459844D01*
X123073589Y-106427816D01*
X123071368Y-106421316D01*
X123081676Y-106396594D01*
X123110161Y-106346605D01*
X123153663Y-106276412D01*
X123209023Y-106191075D01*
X123273080Y-106095656D01*
X123291297Y-106069054D01*
X123357673Y-105972367D01*
X123417222Y-105885317D01*
X123466616Y-105812795D01*
X123502525Y-105759693D01*
X123521619Y-105730903D01*
X123523464Y-105727926D01*
X123520705Y-105704982D01*
X123506062Y-105654536D01*
X123482087Y-105583241D01*
X123451334Y-105497747D01*
X123416356Y-105404707D01*
X123379707Y-105310774D01*
X123343939Y-105222599D01*
X123311606Y-105146834D01*
X123285262Y-105090131D01*
X123267458Y-105059143D01*
X123266193Y-105057657D01*
X123255306Y-105048801D01*
X123236918Y-105040043D01*
X123206994Y-105030477D01*
X123161497Y-105019196D01*
X123096391Y-105005293D01*
X123007639Y-104987863D01*
X122891207Y-104965998D01*
X122743058Y-104938791D01*
X122710982Y-104932941D01*
X122615914Y-104914574D01*
X122533035Y-104896605D01*
X122469670Y-104880769D01*
X122433142Y-104868800D01*
X122428244Y-104866010D01*
X122420173Y-104841272D01*
X122413613Y-104785990D01*
X122408567Y-104706589D01*
X122405041Y-104609496D01*
X122403039Y-104501138D01*
X122402564Y-104387940D01*
X122403623Y-104276328D01*
X122406218Y-104172729D01*
X122410354Y-104083568D01*
X122416037Y-104015272D01*
X122423269Y-103974266D01*
X122427629Y-103965874D01*
X122451902Y-103957408D01*
X122507174Y-103943635D01*
X122587938Y-103925750D01*
X122688688Y-103904948D01*
X122803917Y-103882423D01*
X122866698Y-103870618D01*
X122985813Y-103848351D01*
X123092035Y-103828179D01*
X123180173Y-103811115D01*
X123245034Y-103798169D01*
X123281426Y-103790355D01*
X123287416Y-103788622D01*
X123297539Y-103769090D01*
X123318938Y-103722043D01*
X123348761Y-103654203D01*
X123384155Y-103572291D01*
X123422268Y-103483028D01*
X123460247Y-103393135D01*
X123495240Y-103309335D01*
X123524394Y-103238347D01*
X123544857Y-103186894D01*
X123553777Y-103161697D01*
X123553943Y-103160596D01*
X123543831Y-103140719D01*
X123515483Y-103094977D01*
X123471877Y-103027917D01*
X123415994Y-102944084D01*
X123350813Y-102848026D01*
X123312921Y-102792850D01*
X123243875Y-102691681D01*
X123182550Y-102599830D01*
X123131937Y-102521944D01*
X123095029Y-102462669D01*
X123074818Y-102426651D01*
X123071899Y-102418577D01*
X123084447Y-102399784D01*
X123119137Y-102359657D01*
X123171537Y-102302693D01*
X123237216Y-102233385D01*
X123311744Y-102156231D01*
X123390687Y-102075725D01*
X123469617Y-101996363D01*
X123544100Y-101922640D01*
X123609706Y-101859052D01*
X123662004Y-101810094D01*
X123696561Y-101780261D01*
X123708122Y-101773142D01*
X123726946Y-101783153D01*
X123771969Y-101811278D01*
X123838813Y-101854654D01*
X123923101Y-101910418D01*
X124020456Y-101975706D01*
X124093893Y-102025446D01*
X124464933Y-102277751D01*
X125083505Y-102022755D01*
X125167325Y-101578131D01*
X125251146Y-101133507D01*
X126176594Y-101133507D01*
X126260414Y-101578131D01*
G36*
X126260414Y-74898131D02*
G01*
X126344235Y-75342755D01*
X126653520Y-75470253D01*
X126962806Y-75597751D01*
X127333846Y-75345446D01*
X127437757Y-75275196D01*
X127531687Y-75212472D01*
X127611252Y-75160138D01*
X127672070Y-75121057D01*
X127709757Y-75098093D01*
X127720021Y-75093142D01*
X127738510Y-75105876D01*
X127778020Y-75141082D01*
X127834122Y-75194262D01*
X127902387Y-75260918D01*
X127978386Y-75336554D01*
X128057692Y-75416672D01*
X128135875Y-75496774D01*
X128208507Y-75572364D01*
X128271159Y-75638945D01*
X128319403Y-75692018D01*
X128348810Y-75727087D01*
X128355841Y-75738823D01*
X128345723Y-75760460D01*
X128317359Y-75807862D01*
X128273729Y-75876393D01*
X128217818Y-75961415D01*
X128152606Y-76058293D01*
X128114819Y-76113550D01*
X128045943Y-76214448D01*
X127984740Y-76305499D01*
X127934178Y-76382170D01*
X127897228Y-76439928D01*
X127876858Y-76474243D01*
X127873797Y-76481454D01*
X127880736Y-76501948D01*
X127899651Y-76549713D01*
X127927687Y-76618032D01*
X127961991Y-76700189D01*
X127999709Y-76789470D01*
X128037987Y-76879158D01*
X128073970Y-76962538D01*
X128104806Y-77032894D01*
X128127639Y-77083510D01*
X128139617Y-77107671D01*
X128140324Y-77108622D01*
X128159131Y-77113236D01*
X128209218Y-77123528D01*
X128285393Y-77138487D01*
X128382465Y-77157101D01*
X128495243Y-77178359D01*
X128561042Y-77190618D01*
X128681550Y-77213562D01*
X128790397Y-77235395D01*
X128882076Y-77254922D01*
X128951081Y-77270948D01*
X128991904Y-77282279D01*
X129000111Y-77285874D01*
X129008148Y-77310206D01*
X129014633Y-77365159D01*
X129019570Y-77444308D01*
X129022964Y-77541226D01*
X129024818Y-77649487D01*
X129025138Y-77762665D01*
X129023927Y-77874335D01*
X129021190Y-77978068D01*
X129016931Y-78067441D01*
X129011155Y-78136026D01*
X129003867Y-78177397D01*
X128999495Y-78186010D01*
X128973364Y-78196333D01*
X128917993Y-78211092D01*
X128840707Y-78228552D01*
X128748830Y-78246980D01*
X128716758Y-78252941D01*
X128562124Y-78281266D01*
X128439975Y-78304076D01*
X128346273Y-78322280D01*
X128276984Y-78336783D01*
X128228071Y-78348492D01*
X128195497Y-78358315D01*
X128175228Y-78367156D01*
X128163226Y-78375924D01*
X128161547Y-78377657D01*
X128144784Y-78405571D01*
X128119214Y-78459895D01*
X128087388Y-78533977D01*
X128051860Y-78621165D01*
X128015183Y-78714808D01*
X127979911Y-78808252D01*
X127948596Y-78894847D01*
X127923793Y-78967940D01*
X127908054Y-79020878D01*
X127903932Y-79047011D01*
X127904276Y-79047926D01*
X127918241Y-79069286D01*
X127949922Y-79116284D01*
X127995991Y-79184027D01*
X128053118Y-79267623D01*
X128117973Y-79362182D01*
X128136443Y-79389054D01*
X128202299Y-79486475D01*
X128260250Y-79575363D01*
X128307138Y-79650612D01*
X128339807Y-79707120D01*
X128355100Y-79739781D01*
X128355841Y-79743793D01*
X128342992Y-79764884D01*
X128307488Y-79806664D01*
X128253893Y-79864645D01*
X128186771Y-79934335D01*
X128110687Y-80011245D01*
X128030204Y-80090883D01*
X127949887Y-80168761D01*
X127874299Y-80240386D01*
X127808005Y-80301270D01*
X127755569Y-80346921D01*
X127721555Y-80372850D01*
X127712145Y-80377083D01*
X127690243Y-80367112D01*
X127645400Y-80340220D01*
X127584921Y-80300936D01*
X127538389Y-80269317D01*
X127454075Y-80211298D01*
X127354226Y-80142984D01*
X127254073Y-80074779D01*
X127200227Y-80038275D01*
X127017971Y-79915000D01*
X126864981Y-79997720D01*
X126795282Y-80033959D01*
X126736014Y-80062126D01*
X126695911Y-80078191D01*
X126685703Y-80080426D01*
X126673429Y-80063922D01*
X126649213Y-80017282D01*
X126614863Y-79944809D01*
X126572188Y-79850806D01*
X126522994Y-79739574D01*
X126469090Y-79615415D01*
X126412284Y-79482632D01*
X126354382Y-79345527D01*
X126297193Y-79208402D01*
X126242524Y-79075558D01*
X126192184Y-78951298D01*
X126147980Y-78839925D01*
X126111719Y-78745739D01*
X126085209Y-78673044D01*
X126070258Y-78626141D01*
X126067854Y-78610033D01*
X126086911Y-78589486D01*
X126128636Y-78556133D01*
X126184306Y-78516902D01*
X126188978Y-78513799D01*
X126332864Y-78398623D01*
X126448883Y-78264253D01*
X126536030Y-78114984D01*
X126593299Y-77955113D01*
X126619686Y-77788937D01*
X126614185Y-77620752D01*
X126575790Y-77454855D01*
X126503495Y-77295542D01*
X126482226Y-77260687D01*
X126371596Y-77119937D01*
X126240902Y-77006914D01*
X126094664Y-76922203D01*
X125937408Y-76866394D01*
X125773657Y-76840074D01*
X125607933Y-76843830D01*
X125444762Y-76878250D01*
X125288665Y-76943923D01*
X125144167Y-77041435D01*
X125099469Y-77081013D01*
X124985712Y-77204903D01*
X124902818Y-77335324D01*
X124845956Y-77481515D01*
X124814287Y-77626288D01*
X124806469Y-77789060D01*
X124832538Y-77952640D01*
X124889845Y-78111498D01*
X124975744Y-78260106D01*
X125087586Y-78392935D01*
X125222723Y-78504456D01*
X125240483Y-78516211D01*
X125296750Y-78554708D01*
X125339523Y-78588063D01*
X125359972Y-78609360D01*
X125360269Y-78610033D01*
X125355879Y-78633071D01*
X125338476Y-78685357D01*
X125309868Y-78762590D01*
X125271865Y-78860468D01*
X125226274Y-78974691D01*
X125174903Y-79100958D01*
X125119562Y-79234967D01*
X125062058Y-79372418D01*
X125004201Y-79509008D01*
X124947798Y-79640437D01*
X124894658Y-79762405D01*
X124846590Y-79870609D01*
X124805401Y-79960749D01*
X124772901Y-80028523D01*
X124750897Y-80069630D01*
X124742036Y-80080426D01*
X124714960Y-80072019D01*
X124664297Y-80049472D01*
X124598783Y-80016813D01*
X124562759Y-79997720D01*
X124409768Y-79915000D01*
X124227512Y-80038275D01*
X124134475Y-80101428D01*
X124032615Y-80170927D01*
X123937162Y-80236365D01*
X123889350Y-80269317D01*
X123822105Y-80314473D01*
X123765164Y-80350257D01*
X123725954Y-80372138D01*
X123713219Y-80376763D01*
X123694683Y-80364285D01*
X123653659Y-80329452D01*
X123594125Y-80275878D01*
X123520058Y-80207183D01*
X123435435Y-80126981D01*
X123381915Y-80075486D01*
X123288281Y-79983486D01*
X123207359Y-79901199D01*
X123142423Y-79832145D01*
X123096742Y-79779844D01*
X123073589Y-79747816D01*
X123071368Y-79741316D01*
X123081676Y-79716594D01*
X123110161Y-79666605D01*
X123153663Y-79596412D01*
X123209023Y-79511075D01*
X123273080Y-79415656D01*
X123291297Y-79389054D01*
X123357673Y-79292367D01*
X123417222Y-79205317D01*
X123466616Y-79132795D01*
X123502525Y-79079693D01*
X123521619Y-79050903D01*
X123523464Y-79047926D01*
X123520705Y-79024982D01*
X123506062Y-78974536D01*
X123482087Y-78903241D01*
X123451334Y-78817747D01*
X123416356Y-78724707D01*
X123379707Y-78630774D01*
X123343939Y-78542599D01*
X123311606Y-78466834D01*
X123285262Y-78410131D01*
X123267458Y-78379143D01*
X123266193Y-78377657D01*
X123255306Y-78368801D01*
X123236918Y-78360043D01*
X123206994Y-78350477D01*
X123161497Y-78339196D01*
X123096391Y-78325293D01*
X123007639Y-78307863D01*
X122891207Y-78285998D01*
X122743058Y-78258791D01*
X122710982Y-78252941D01*
X122615914Y-78234574D01*
X122533035Y-78216605D01*
X122469670Y-78200769D01*
X122433142Y-78188800D01*
X122428244Y-78186010D01*
X122420173Y-78161272D01*
X122413613Y-78105990D01*
X122408567Y-78026589D01*
X122405041Y-77929496D01*
X122403039Y-77821138D01*
X122402564Y-77707940D01*
X122403623Y-77596328D01*
X122406218Y-77492729D01*
X122410354Y-77403568D01*
X122416037Y-77335272D01*
X122423269Y-77294266D01*
X122427629Y-77285874D01*
X122451902Y-77277408D01*
X122507174Y-77263635D01*
X122587938Y-77245750D01*
X122688688Y-77224948D01*
X122803917Y-77202423D01*
X122866698Y-77190618D01*
X122985813Y-77168351D01*
X123092035Y-77148179D01*
X123180173Y-77131115D01*
X123245034Y-77118169D01*
X123281426Y-77110355D01*
X123287416Y-77108622D01*
X123297539Y-77089090D01*
X123318938Y-77042043D01*
X123348761Y-76974203D01*
X123384155Y-76892291D01*
X123422268Y-76803028D01*
X123460247Y-76713135D01*
X123495240Y-76629335D01*
X123524394Y-76558347D01*
X123544857Y-76506894D01*
X123553777Y-76481697D01*
X123553943Y-76480596D01*
X123543831Y-76460719D01*
X123515483Y-76414977D01*
X123471877Y-76347917D01*
X123415994Y-76264084D01*
X123350813Y-76168026D01*
X123312921Y-76112850D01*
X123243875Y-76011681D01*
X123182550Y-75919830D01*
X123131937Y-75841944D01*
X123095029Y-75782669D01*
X123074818Y-75746651D01*
X123071899Y-75738577D01*
X123084447Y-75719784D01*
X123119137Y-75679657D01*
X123171537Y-75622693D01*
X123237216Y-75553385D01*
X123311744Y-75476231D01*
X123390687Y-75395725D01*
X123469617Y-75316363D01*
X123544100Y-75242640D01*
X123609706Y-75179052D01*
X123662004Y-75130094D01*
X123696561Y-75100261D01*
X123708122Y-75093142D01*
X123726946Y-75103153D01*
X123771969Y-75131278D01*
X123838813Y-75174654D01*
X123923101Y-75230418D01*
X124020456Y-75295706D01*
X124093893Y-75345446D01*
X124464933Y-75597751D01*
X125083505Y-75342755D01*
X125167325Y-74898131D01*
X125251146Y-74453507D01*
X126176594Y-74453507D01*
X126260414Y-74898131D01*
G37*
X126260414Y-74898131D02*
X126344235Y-75342755D01*
X126653520Y-75470253D01*
X126962806Y-75597751D01*
X127333846Y-75345446D01*
X127437757Y-75275196D01*
X127531687Y-75212472D01*
X127611252Y-75160138D01*
X127672070Y-75121057D01*
X127709757Y-75098093D01*
X127720021Y-75093142D01*
X127738510Y-75105876D01*
X127778020Y-75141082D01*
X127834122Y-75194262D01*
X127902387Y-75260918D01*
X127978386Y-75336554D01*
X128057692Y-75416672D01*
X128135875Y-75496774D01*
X128208507Y-75572364D01*
X128271159Y-75638945D01*
X128319403Y-75692018D01*
X128348810Y-75727087D01*
X128355841Y-75738823D01*
X128345723Y-75760460D01*
X128317359Y-75807862D01*
X128273729Y-75876393D01*
X128217818Y-75961415D01*
X128152606Y-76058293D01*
X128114819Y-76113550D01*
X128045943Y-76214448D01*
X127984740Y-76305499D01*
X127934178Y-76382170D01*
X127897228Y-76439928D01*
X127876858Y-76474243D01*
X127873797Y-76481454D01*
X127880736Y-76501948D01*
X127899651Y-76549713D01*
X127927687Y-76618032D01*
X127961991Y-76700189D01*
X127999709Y-76789470D01*
X128037987Y-76879158D01*
X128073970Y-76962538D01*
X128104806Y-77032894D01*
X128127639Y-77083510D01*
X128139617Y-77107671D01*
X128140324Y-77108622D01*
X128159131Y-77113236D01*
X128209218Y-77123528D01*
X128285393Y-77138487D01*
X128382465Y-77157101D01*
X128495243Y-77178359D01*
X128561042Y-77190618D01*
X128681550Y-77213562D01*
X128790397Y-77235395D01*
X128882076Y-77254922D01*
X128951081Y-77270948D01*
X128991904Y-77282279D01*
X129000111Y-77285874D01*
X129008148Y-77310206D01*
X129014633Y-77365159D01*
X129019570Y-77444308D01*
X129022964Y-77541226D01*
X129024818Y-77649487D01*
X129025138Y-77762665D01*
X129023927Y-77874335D01*
X129021190Y-77978068D01*
X129016931Y-78067441D01*
X129011155Y-78136026D01*
X129003867Y-78177397D01*
X128999495Y-78186010D01*
X128973364Y-78196333D01*
X128917993Y-78211092D01*
X128840707Y-78228552D01*
X128748830Y-78246980D01*
X128716758Y-78252941D01*
X128562124Y-78281266D01*
X128439975Y-78304076D01*
X128346273Y-78322280D01*
X128276984Y-78336783D01*
X128228071Y-78348492D01*
X128195497Y-78358315D01*
X128175228Y-78367156D01*
X128163226Y-78375924D01*
X128161547Y-78377657D01*
X128144784Y-78405571D01*
X128119214Y-78459895D01*
X128087388Y-78533977D01*
X128051860Y-78621165D01*
X128015183Y-78714808D01*
X127979911Y-78808252D01*
X127948596Y-78894847D01*
X127923793Y-78967940D01*
X127908054Y-79020878D01*
X127903932Y-79047011D01*
X127904276Y-79047926D01*
X127918241Y-79069286D01*
X127949922Y-79116284D01*
X127995991Y-79184027D01*
X128053118Y-79267623D01*
X128117973Y-79362182D01*
X128136443Y-79389054D01*
X128202299Y-79486475D01*
X128260250Y-79575363D01*
X128307138Y-79650612D01*
X128339807Y-79707120D01*
X128355100Y-79739781D01*
X128355841Y-79743793D01*
X128342992Y-79764884D01*
X128307488Y-79806664D01*
X128253893Y-79864645D01*
X128186771Y-79934335D01*
X128110687Y-80011245D01*
X128030204Y-80090883D01*
X127949887Y-80168761D01*
X127874299Y-80240386D01*
X127808005Y-80301270D01*
X127755569Y-80346921D01*
X127721555Y-80372850D01*
X127712145Y-80377083D01*
X127690243Y-80367112D01*
X127645400Y-80340220D01*
X127584921Y-80300936D01*
X127538389Y-80269317D01*
X127454075Y-80211298D01*
X127354226Y-80142984D01*
X127254073Y-80074779D01*
X127200227Y-80038275D01*
X127017971Y-79915000D01*
X126864981Y-79997720D01*
X126795282Y-80033959D01*
X126736014Y-80062126D01*
X126695911Y-80078191D01*
X126685703Y-80080426D01*
X126673429Y-80063922D01*
X126649213Y-80017282D01*
X126614863Y-79944809D01*
X126572188Y-79850806D01*
X126522994Y-79739574D01*
X126469090Y-79615415D01*
X126412284Y-79482632D01*
X126354382Y-79345527D01*
X126297193Y-79208402D01*
X126242524Y-79075558D01*
X126192184Y-78951298D01*
X126147980Y-78839925D01*
X126111719Y-78745739D01*
X126085209Y-78673044D01*
X126070258Y-78626141D01*
X126067854Y-78610033D01*
X126086911Y-78589486D01*
X126128636Y-78556133D01*
X126184306Y-78516902D01*
X126188978Y-78513799D01*
X126332864Y-78398623D01*
X126448883Y-78264253D01*
X126536030Y-78114984D01*
X126593299Y-77955113D01*
X126619686Y-77788937D01*
X126614185Y-77620752D01*
X126575790Y-77454855D01*
X126503495Y-77295542D01*
X126482226Y-77260687D01*
X126371596Y-77119937D01*
X126240902Y-77006914D01*
X126094664Y-76922203D01*
X125937408Y-76866394D01*
X125773657Y-76840074D01*
X125607933Y-76843830D01*
X125444762Y-76878250D01*
X125288665Y-76943923D01*
X125144167Y-77041435D01*
X125099469Y-77081013D01*
X124985712Y-77204903D01*
X124902818Y-77335324D01*
X124845956Y-77481515D01*
X124814287Y-77626288D01*
X124806469Y-77789060D01*
X124832538Y-77952640D01*
X124889845Y-78111498D01*
X124975744Y-78260106D01*
X125087586Y-78392935D01*
X125222723Y-78504456D01*
X125240483Y-78516211D01*
X125296750Y-78554708D01*
X125339523Y-78588063D01*
X125359972Y-78609360D01*
X125360269Y-78610033D01*
X125355879Y-78633071D01*
X125338476Y-78685357D01*
X125309868Y-78762590D01*
X125271865Y-78860468D01*
X125226274Y-78974691D01*
X125174903Y-79100958D01*
X125119562Y-79234967D01*
X125062058Y-79372418D01*
X125004201Y-79509008D01*
X124947798Y-79640437D01*
X124894658Y-79762405D01*
X124846590Y-79870609D01*
X124805401Y-79960749D01*
X124772901Y-80028523D01*
X124750897Y-80069630D01*
X124742036Y-80080426D01*
X124714960Y-80072019D01*
X124664297Y-80049472D01*
X124598783Y-80016813D01*
X124562759Y-79997720D01*
X124409768Y-79915000D01*
X124227512Y-80038275D01*
X124134475Y-80101428D01*
X124032615Y-80170927D01*
X123937162Y-80236365D01*
X123889350Y-80269317D01*
X123822105Y-80314473D01*
X123765164Y-80350257D01*
X123725954Y-80372138D01*
X123713219Y-80376763D01*
X123694683Y-80364285D01*
X123653659Y-80329452D01*
X123594125Y-80275878D01*
X123520058Y-80207183D01*
X123435435Y-80126981D01*
X123381915Y-80075486D01*
X123288281Y-79983486D01*
X123207359Y-79901199D01*
X123142423Y-79832145D01*
X123096742Y-79779844D01*
X123073589Y-79747816D01*
X123071368Y-79741316D01*
X123081676Y-79716594D01*
X123110161Y-79666605D01*
X123153663Y-79596412D01*
X123209023Y-79511075D01*
X123273080Y-79415656D01*
X123291297Y-79389054D01*
X123357673Y-79292367D01*
X123417222Y-79205317D01*
X123466616Y-79132795D01*
X123502525Y-79079693D01*
X123521619Y-79050903D01*
X123523464Y-79047926D01*
X123520705Y-79024982D01*
X123506062Y-78974536D01*
X123482087Y-78903241D01*
X123451334Y-78817747D01*
X123416356Y-78724707D01*
X123379707Y-78630774D01*
X123343939Y-78542599D01*
X123311606Y-78466834D01*
X123285262Y-78410131D01*
X123267458Y-78379143D01*
X123266193Y-78377657D01*
X123255306Y-78368801D01*
X123236918Y-78360043D01*
X123206994Y-78350477D01*
X123161497Y-78339196D01*
X123096391Y-78325293D01*
X123007639Y-78307863D01*
X122891207Y-78285998D01*
X122743058Y-78258791D01*
X122710982Y-78252941D01*
X122615914Y-78234574D01*
X122533035Y-78216605D01*
X122469670Y-78200769D01*
X122433142Y-78188800D01*
X122428244Y-78186010D01*
X122420173Y-78161272D01*
X122413613Y-78105990D01*
X122408567Y-78026589D01*
X122405041Y-77929496D01*
X122403039Y-77821138D01*
X122402564Y-77707940D01*
X122403623Y-77596328D01*
X122406218Y-77492729D01*
X122410354Y-77403568D01*
X122416037Y-77335272D01*
X122423269Y-77294266D01*
X122427629Y-77285874D01*
X122451902Y-77277408D01*
X122507174Y-77263635D01*
X122587938Y-77245750D01*
X122688688Y-77224948D01*
X122803917Y-77202423D01*
X122866698Y-77190618D01*
X122985813Y-77168351D01*
X123092035Y-77148179D01*
X123180173Y-77131115D01*
X123245034Y-77118169D01*
X123281426Y-77110355D01*
X123287416Y-77108622D01*
X123297539Y-77089090D01*
X123318938Y-77042043D01*
X123348761Y-76974203D01*
X123384155Y-76892291D01*
X123422268Y-76803028D01*
X123460247Y-76713135D01*
X123495240Y-76629335D01*
X123524394Y-76558347D01*
X123544857Y-76506894D01*
X123553777Y-76481697D01*
X123553943Y-76480596D01*
X123543831Y-76460719D01*
X123515483Y-76414977D01*
X123471877Y-76347917D01*
X123415994Y-76264084D01*
X123350813Y-76168026D01*
X123312921Y-76112850D01*
X123243875Y-76011681D01*
X123182550Y-75919830D01*
X123131937Y-75841944D01*
X123095029Y-75782669D01*
X123074818Y-75746651D01*
X123071899Y-75738577D01*
X123084447Y-75719784D01*
X123119137Y-75679657D01*
X123171537Y-75622693D01*
X123237216Y-75553385D01*
X123311744Y-75476231D01*
X123390687Y-75395725D01*
X123469617Y-75316363D01*
X123544100Y-75242640D01*
X123609706Y-75179052D01*
X123662004Y-75130094D01*
X123696561Y-75100261D01*
X123708122Y-75093142D01*
X123726946Y-75103153D01*
X123771969Y-75131278D01*
X123838813Y-75174654D01*
X123923101Y-75230418D01*
X124020456Y-75295706D01*
X124093893Y-75345446D01*
X124464933Y-75597751D01*
X125083505Y-75342755D01*
X125167325Y-74898131D01*
X125251146Y-74453507D01*
X126176594Y-74453507D01*
X126260414Y-74898131D01*
G36*
X126260414Y-48218131D02*
G01*
X126344235Y-48662755D01*
X126653520Y-48790253D01*
X126962806Y-48917751D01*
X127333846Y-48665446D01*
X127437757Y-48595196D01*
X127531687Y-48532472D01*
X127611252Y-48480138D01*
X127672070Y-48441057D01*
X127709757Y-48418093D01*
X127720021Y-48413142D01*
X127738510Y-48425876D01*
X127778020Y-48461082D01*
X127834122Y-48514262D01*
X127902387Y-48580918D01*
X127978386Y-48656554D01*
X128057692Y-48736672D01*
X128135875Y-48816774D01*
X128208507Y-48892364D01*
X128271159Y-48958945D01*
X128319403Y-49012018D01*
X128348810Y-49047087D01*
X128355841Y-49058823D01*
X128345723Y-49080460D01*
X128317359Y-49127862D01*
X128273729Y-49196393D01*
X128217818Y-49281415D01*
X128152606Y-49378293D01*
X128114819Y-49433550D01*
X128045943Y-49534448D01*
X127984740Y-49625499D01*
X127934178Y-49702170D01*
X127897228Y-49759928D01*
X127876858Y-49794243D01*
X127873797Y-49801454D01*
X127880736Y-49821948D01*
X127899651Y-49869713D01*
X127927687Y-49938032D01*
X127961991Y-50020189D01*
X127999709Y-50109470D01*
X128037987Y-50199158D01*
X128073970Y-50282538D01*
X128104806Y-50352894D01*
X128127639Y-50403510D01*
X128139617Y-50427671D01*
X128140324Y-50428622D01*
X128159131Y-50433236D01*
X128209218Y-50443528D01*
X128285393Y-50458487D01*
X128382465Y-50477101D01*
X128495243Y-50498359D01*
X128561042Y-50510618D01*
X128681550Y-50533562D01*
X128790397Y-50555395D01*
X128882076Y-50574922D01*
X128951081Y-50590948D01*
X128991904Y-50602279D01*
X129000111Y-50605874D01*
X129008148Y-50630206D01*
X129014633Y-50685159D01*
X129019570Y-50764308D01*
X129022964Y-50861226D01*
X129024818Y-50969487D01*
X129025138Y-51082665D01*
X129023927Y-51194335D01*
X129021190Y-51298068D01*
X129016931Y-51387441D01*
X129011155Y-51456026D01*
X129003867Y-51497397D01*
X128999495Y-51506010D01*
X128973364Y-51516333D01*
X128917993Y-51531092D01*
X128840707Y-51548552D01*
X128748830Y-51566980D01*
X128716758Y-51572941D01*
X128562124Y-51601266D01*
X128439975Y-51624076D01*
X128346273Y-51642280D01*
X128276984Y-51656783D01*
X128228071Y-51668492D01*
X128195497Y-51678315D01*
X128175228Y-51687156D01*
X128163226Y-51695924D01*
X128161547Y-51697657D01*
X128144784Y-51725571D01*
X128119214Y-51779895D01*
X128087388Y-51853977D01*
X128051860Y-51941165D01*
X128015183Y-52034808D01*
X127979911Y-52128252D01*
X127948596Y-52214847D01*
X127923793Y-52287940D01*
X127908054Y-52340878D01*
X127903932Y-52367011D01*
X127904276Y-52367926D01*
X127918241Y-52389286D01*
X127949922Y-52436284D01*
X127995991Y-52504027D01*
X128053118Y-52587623D01*
X128117973Y-52682182D01*
X128136443Y-52709054D01*
X128202299Y-52806475D01*
X128260250Y-52895363D01*
X128307138Y-52970612D01*
X128339807Y-53027120D01*
X128355100Y-53059781D01*
X128355841Y-53063793D01*
X128342992Y-53084884D01*
X128307488Y-53126664D01*
X128253893Y-53184645D01*
X128186771Y-53254335D01*
X128110687Y-53331245D01*
X128030204Y-53410883D01*
X127949887Y-53488761D01*
X127874299Y-53560386D01*
X127808005Y-53621270D01*
X127755569Y-53666921D01*
X127721555Y-53692850D01*
X127712145Y-53697083D01*
X127690243Y-53687112D01*
X127645400Y-53660220D01*
X127584921Y-53620936D01*
X127538389Y-53589317D01*
X127454075Y-53531298D01*
X127354226Y-53462984D01*
X127254073Y-53394779D01*
X127200227Y-53358275D01*
X127017971Y-53235000D01*
X126864981Y-53317720D01*
X126795282Y-53353959D01*
X126736014Y-53382126D01*
X126695911Y-53398191D01*
X126685703Y-53400426D01*
X126673429Y-53383922D01*
X126649213Y-53337282D01*
X126614863Y-53264809D01*
X126572188Y-53170806D01*
X126522994Y-53059574D01*
X126469090Y-52935415D01*
X126412284Y-52802632D01*
X126354382Y-52665527D01*
X126297193Y-52528402D01*
X126242524Y-52395558D01*
X126192184Y-52271298D01*
X126147980Y-52159925D01*
X126111719Y-52065739D01*
X126085209Y-51993044D01*
X126070258Y-51946141D01*
X126067854Y-51930033D01*
X126086911Y-51909486D01*
X126128636Y-51876133D01*
X126184306Y-51836902D01*
X126188978Y-51833799D01*
X126332864Y-51718623D01*
X126448883Y-51584253D01*
X126536030Y-51434984D01*
X126593299Y-51275113D01*
X126619686Y-51108937D01*
X126614185Y-50940752D01*
X126575790Y-50774855D01*
X126503495Y-50615542D01*
X126482226Y-50580687D01*
X126371596Y-50439937D01*
X126240902Y-50326914D01*
X126094664Y-50242203D01*
X125937408Y-50186394D01*
X125773657Y-50160074D01*
X125607933Y-50163830D01*
X125444762Y-50198250D01*
X125288665Y-50263923D01*
X125144167Y-50361435D01*
X125099469Y-50401013D01*
X124985712Y-50524903D01*
X124902818Y-50655324D01*
X124845956Y-50801515D01*
X124814287Y-50946288D01*
X124806469Y-51109060D01*
X124832538Y-51272640D01*
X124889845Y-51431498D01*
X124975744Y-51580106D01*
X125087586Y-51712935D01*
X125222723Y-51824456D01*
X125240483Y-51836211D01*
X125296750Y-51874708D01*
X125339523Y-51908063D01*
X125359972Y-51929360D01*
X125360269Y-51930033D01*
X125355879Y-51953071D01*
X125338476Y-52005357D01*
X125309868Y-52082590D01*
X125271865Y-52180468D01*
X125226274Y-52294691D01*
X125174903Y-52420958D01*
X125119562Y-52554967D01*
X125062058Y-52692418D01*
X125004201Y-52829008D01*
X124947798Y-52960437D01*
X124894658Y-53082405D01*
X124846590Y-53190609D01*
X124805401Y-53280749D01*
X124772901Y-53348523D01*
X124750897Y-53389630D01*
X124742036Y-53400426D01*
X124714960Y-53392019D01*
X124664297Y-53369472D01*
X124598783Y-53336813D01*
X124562759Y-53317720D01*
X124409768Y-53235000D01*
X124227512Y-53358275D01*
X124134475Y-53421428D01*
X124032615Y-53490927D01*
X123937162Y-53556365D01*
X123889350Y-53589317D01*
X123822105Y-53634473D01*
X123765164Y-53670257D01*
X123725954Y-53692138D01*
X123713219Y-53696763D01*
X123694683Y-53684285D01*
X123653659Y-53649452D01*
X123594125Y-53595878D01*
X123520058Y-53527183D01*
X123435435Y-53446981D01*
X123381915Y-53395486D01*
X123288281Y-53303486D01*
X123207359Y-53221199D01*
X123142423Y-53152145D01*
X123096742Y-53099844D01*
X123073589Y-53067816D01*
X123071368Y-53061316D01*
X123081676Y-53036594D01*
X123110161Y-52986605D01*
X123153663Y-52916412D01*
X123209023Y-52831075D01*
X123273080Y-52735656D01*
X123291297Y-52709054D01*
X123357673Y-52612367D01*
X123417222Y-52525317D01*
X123466616Y-52452795D01*
X123502525Y-52399693D01*
X123521619Y-52370903D01*
X123523464Y-52367926D01*
X123520705Y-52344982D01*
X123506062Y-52294536D01*
X123482087Y-52223241D01*
X123451334Y-52137747D01*
X123416356Y-52044707D01*
X123379707Y-51950774D01*
X123343939Y-51862599D01*
X123311606Y-51786834D01*
X123285262Y-51730131D01*
X123267458Y-51699143D01*
X123266193Y-51697657D01*
X123255306Y-51688801D01*
X123236918Y-51680043D01*
X123206994Y-51670477D01*
X123161497Y-51659196D01*
X123096391Y-51645293D01*
X123007639Y-51627863D01*
X122891207Y-51605998D01*
X122743058Y-51578791D01*
X122710982Y-51572941D01*
X122615914Y-51554574D01*
X122533035Y-51536605D01*
X122469670Y-51520769D01*
X122433142Y-51508800D01*
X122428244Y-51506010D01*
X122420173Y-51481272D01*
X122413613Y-51425990D01*
X122408567Y-51346589D01*
X122405041Y-51249496D01*
X122403039Y-51141138D01*
X122402564Y-51027940D01*
X122403623Y-50916328D01*
X122406218Y-50812729D01*
X122410354Y-50723568D01*
X122416037Y-50655272D01*
X122423269Y-50614266D01*
X122427629Y-50605874D01*
X122451902Y-50597408D01*
X122507174Y-50583635D01*
X122587938Y-50565750D01*
X122688688Y-50544948D01*
X122803917Y-50522423D01*
X122866698Y-50510618D01*
X122985813Y-50488351D01*
X123092035Y-50468179D01*
X123180173Y-50451115D01*
X123245034Y-50438169D01*
X123281426Y-50430355D01*
X123287416Y-50428622D01*
X123297539Y-50409090D01*
X123318938Y-50362043D01*
X123348761Y-50294203D01*
X123384155Y-50212291D01*
X123422268Y-50123028D01*
X123460247Y-50033135D01*
X123495240Y-49949335D01*
X123524394Y-49878347D01*
X123544857Y-49826894D01*
X123553777Y-49801697D01*
X123553943Y-49800596D01*
X123543831Y-49780719D01*
X123515483Y-49734977D01*
X123471877Y-49667917D01*
X123415994Y-49584084D01*
X123350813Y-49488026D01*
X123312921Y-49432850D01*
X123243875Y-49331681D01*
X123182550Y-49239830D01*
X123131937Y-49161944D01*
X123095029Y-49102669D01*
X123074818Y-49066651D01*
X123071899Y-49058577D01*
X123084447Y-49039784D01*
X123119137Y-48999657D01*
X123171537Y-48942693D01*
X123237216Y-48873385D01*
X123311744Y-48796231D01*
X123390687Y-48715725D01*
X123469617Y-48636363D01*
X123544100Y-48562640D01*
X123609706Y-48499052D01*
X123662004Y-48450094D01*
X123696561Y-48420261D01*
X123708122Y-48413142D01*
X123726946Y-48423153D01*
X123771969Y-48451278D01*
X123838813Y-48494654D01*
X123923101Y-48550418D01*
X124020456Y-48615706D01*
X124093893Y-48665446D01*
X124464933Y-48917751D01*
X125083505Y-48662755D01*
X125167325Y-48218131D01*
X125251146Y-47773507D01*
X126176594Y-47773507D01*
X126260414Y-48218131D01*
G37*
X126260414Y-48218131D02*
X126344235Y-48662755D01*
X126653520Y-48790253D01*
X126962806Y-48917751D01*
X127333846Y-48665446D01*
X127437757Y-48595196D01*
X127531687Y-48532472D01*
X127611252Y-48480138D01*
X127672070Y-48441057D01*
X127709757Y-48418093D01*
X127720021Y-48413142D01*
X127738510Y-48425876D01*
X127778020Y-48461082D01*
X127834122Y-48514262D01*
X127902387Y-48580918D01*
X127978386Y-48656554D01*
X128057692Y-48736672D01*
X128135875Y-48816774D01*
X128208507Y-48892364D01*
X128271159Y-48958945D01*
X128319403Y-49012018D01*
X128348810Y-49047087D01*
X128355841Y-49058823D01*
X128345723Y-49080460D01*
X128317359Y-49127862D01*
X128273729Y-49196393D01*
X128217818Y-49281415D01*
X128152606Y-49378293D01*
X128114819Y-49433550D01*
X128045943Y-49534448D01*
X127984740Y-49625499D01*
X127934178Y-49702170D01*
X127897228Y-49759928D01*
X127876858Y-49794243D01*
X127873797Y-49801454D01*
X127880736Y-49821948D01*
X127899651Y-49869713D01*
X127927687Y-49938032D01*
X127961991Y-50020189D01*
X127999709Y-50109470D01*
X128037987Y-50199158D01*
X128073970Y-50282538D01*
X128104806Y-50352894D01*
X128127639Y-50403510D01*
X128139617Y-50427671D01*
X128140324Y-50428622D01*
X128159131Y-50433236D01*
X128209218Y-50443528D01*
X128285393Y-50458487D01*
X128382465Y-50477101D01*
X128495243Y-50498359D01*
X128561042Y-50510618D01*
X128681550Y-50533562D01*
X128790397Y-50555395D01*
X128882076Y-50574922D01*
X128951081Y-50590948D01*
X128991904Y-50602279D01*
X129000111Y-50605874D01*
X129008148Y-50630206D01*
X129014633Y-50685159D01*
X129019570Y-50764308D01*
X129022964Y-50861226D01*
X129024818Y-50969487D01*
X129025138Y-51082665D01*
X129023927Y-51194335D01*
X129021190Y-51298068D01*
X129016931Y-51387441D01*
X129011155Y-51456026D01*
X129003867Y-51497397D01*
X128999495Y-51506010D01*
X128973364Y-51516333D01*
X128917993Y-51531092D01*
X128840707Y-51548552D01*
X128748830Y-51566980D01*
X128716758Y-51572941D01*
X128562124Y-51601266D01*
X128439975Y-51624076D01*
X128346273Y-51642280D01*
X128276984Y-51656783D01*
X128228071Y-51668492D01*
X128195497Y-51678315D01*
X128175228Y-51687156D01*
X128163226Y-51695924D01*
X128161547Y-51697657D01*
X128144784Y-51725571D01*
X128119214Y-51779895D01*
X128087388Y-51853977D01*
X128051860Y-51941165D01*
X128015183Y-52034808D01*
X127979911Y-52128252D01*
X127948596Y-52214847D01*
X127923793Y-52287940D01*
X127908054Y-52340878D01*
X127903932Y-52367011D01*
X127904276Y-52367926D01*
X127918241Y-52389286D01*
X127949922Y-52436284D01*
X127995991Y-52504027D01*
X128053118Y-52587623D01*
X128117973Y-52682182D01*
X128136443Y-52709054D01*
X128202299Y-52806475D01*
X128260250Y-52895363D01*
X128307138Y-52970612D01*
X128339807Y-53027120D01*
X128355100Y-53059781D01*
X128355841Y-53063793D01*
X128342992Y-53084884D01*
X128307488Y-53126664D01*
X128253893Y-53184645D01*
X128186771Y-53254335D01*
X128110687Y-53331245D01*
X128030204Y-53410883D01*
X127949887Y-53488761D01*
X127874299Y-53560386D01*
X127808005Y-53621270D01*
X127755569Y-53666921D01*
X127721555Y-53692850D01*
X127712145Y-53697083D01*
X127690243Y-53687112D01*
X127645400Y-53660220D01*
X127584921Y-53620936D01*
X127538389Y-53589317D01*
X127454075Y-53531298D01*
X127354226Y-53462984D01*
X127254073Y-53394779D01*
X127200227Y-53358275D01*
X127017971Y-53235000D01*
X126864981Y-53317720D01*
X126795282Y-53353959D01*
X126736014Y-53382126D01*
X126695911Y-53398191D01*
X126685703Y-53400426D01*
X126673429Y-53383922D01*
X126649213Y-53337282D01*
X126614863Y-53264809D01*
X126572188Y-53170806D01*
X126522994Y-53059574D01*
X126469090Y-52935415D01*
X126412284Y-52802632D01*
X126354382Y-52665527D01*
X126297193Y-52528402D01*
X126242524Y-52395558D01*
X126192184Y-52271298D01*
X126147980Y-52159925D01*
X126111719Y-52065739D01*
X126085209Y-51993044D01*
X126070258Y-51946141D01*
X126067854Y-51930033D01*
X126086911Y-51909486D01*
X126128636Y-51876133D01*
X126184306Y-51836902D01*
X126188978Y-51833799D01*
X126332864Y-51718623D01*
X126448883Y-51584253D01*
X126536030Y-51434984D01*
X126593299Y-51275113D01*
X126619686Y-51108937D01*
X126614185Y-50940752D01*
X126575790Y-50774855D01*
X126503495Y-50615542D01*
X126482226Y-50580687D01*
X126371596Y-50439937D01*
X126240902Y-50326914D01*
X126094664Y-50242203D01*
X125937408Y-50186394D01*
X125773657Y-50160074D01*
X125607933Y-50163830D01*
X125444762Y-50198250D01*
X125288665Y-50263923D01*
X125144167Y-50361435D01*
X125099469Y-50401013D01*
X124985712Y-50524903D01*
X124902818Y-50655324D01*
X124845956Y-50801515D01*
X124814287Y-50946288D01*
X124806469Y-51109060D01*
X124832538Y-51272640D01*
X124889845Y-51431498D01*
X124975744Y-51580106D01*
X125087586Y-51712935D01*
X125222723Y-51824456D01*
X125240483Y-51836211D01*
X125296750Y-51874708D01*
X125339523Y-51908063D01*
X125359972Y-51929360D01*
X125360269Y-51930033D01*
X125355879Y-51953071D01*
X125338476Y-52005357D01*
X125309868Y-52082590D01*
X125271865Y-52180468D01*
X125226274Y-52294691D01*
X125174903Y-52420958D01*
X125119562Y-52554967D01*
X125062058Y-52692418D01*
X125004201Y-52829008D01*
X124947798Y-52960437D01*
X124894658Y-53082405D01*
X124846590Y-53190609D01*
X124805401Y-53280749D01*
X124772901Y-53348523D01*
X124750897Y-53389630D01*
X124742036Y-53400426D01*
X124714960Y-53392019D01*
X124664297Y-53369472D01*
X124598783Y-53336813D01*
X124562759Y-53317720D01*
X124409768Y-53235000D01*
X124227512Y-53358275D01*
X124134475Y-53421428D01*
X124032615Y-53490927D01*
X123937162Y-53556365D01*
X123889350Y-53589317D01*
X123822105Y-53634473D01*
X123765164Y-53670257D01*
X123725954Y-53692138D01*
X123713219Y-53696763D01*
X123694683Y-53684285D01*
X123653659Y-53649452D01*
X123594125Y-53595878D01*
X123520058Y-53527183D01*
X123435435Y-53446981D01*
X123381915Y-53395486D01*
X123288281Y-53303486D01*
X123207359Y-53221199D01*
X123142423Y-53152145D01*
X123096742Y-53099844D01*
X123073589Y-53067816D01*
X123071368Y-53061316D01*
X123081676Y-53036594D01*
X123110161Y-52986605D01*
X123153663Y-52916412D01*
X123209023Y-52831075D01*
X123273080Y-52735656D01*
X123291297Y-52709054D01*
X123357673Y-52612367D01*
X123417222Y-52525317D01*
X123466616Y-52452795D01*
X123502525Y-52399693D01*
X123521619Y-52370903D01*
X123523464Y-52367926D01*
X123520705Y-52344982D01*
X123506062Y-52294536D01*
X123482087Y-52223241D01*
X123451334Y-52137747D01*
X123416356Y-52044707D01*
X123379707Y-51950774D01*
X123343939Y-51862599D01*
X123311606Y-51786834D01*
X123285262Y-51730131D01*
X123267458Y-51699143D01*
X123266193Y-51697657D01*
X123255306Y-51688801D01*
X123236918Y-51680043D01*
X123206994Y-51670477D01*
X123161497Y-51659196D01*
X123096391Y-51645293D01*
X123007639Y-51627863D01*
X122891207Y-51605998D01*
X122743058Y-51578791D01*
X122710982Y-51572941D01*
X122615914Y-51554574D01*
X122533035Y-51536605D01*
X122469670Y-51520769D01*
X122433142Y-51508800D01*
X122428244Y-51506010D01*
X122420173Y-51481272D01*
X122413613Y-51425990D01*
X122408567Y-51346589D01*
X122405041Y-51249496D01*
X122403039Y-51141138D01*
X122402564Y-51027940D01*
X122403623Y-50916328D01*
X122406218Y-50812729D01*
X122410354Y-50723568D01*
X122416037Y-50655272D01*
X122423269Y-50614266D01*
X122427629Y-50605874D01*
X122451902Y-50597408D01*
X122507174Y-50583635D01*
X122587938Y-50565750D01*
X122688688Y-50544948D01*
X122803917Y-50522423D01*
X122866698Y-50510618D01*
X122985813Y-50488351D01*
X123092035Y-50468179D01*
X123180173Y-50451115D01*
X123245034Y-50438169D01*
X123281426Y-50430355D01*
X123287416Y-50428622D01*
X123297539Y-50409090D01*
X123318938Y-50362043D01*
X123348761Y-50294203D01*
X123384155Y-50212291D01*
X123422268Y-50123028D01*
X123460247Y-50033135D01*
X123495240Y-49949335D01*
X123524394Y-49878347D01*
X123544857Y-49826894D01*
X123553777Y-49801697D01*
X123553943Y-49800596D01*
X123543831Y-49780719D01*
X123515483Y-49734977D01*
X123471877Y-49667917D01*
X123415994Y-49584084D01*
X123350813Y-49488026D01*
X123312921Y-49432850D01*
X123243875Y-49331681D01*
X123182550Y-49239830D01*
X123131937Y-49161944D01*
X123095029Y-49102669D01*
X123074818Y-49066651D01*
X123071899Y-49058577D01*
X123084447Y-49039784D01*
X123119137Y-48999657D01*
X123171537Y-48942693D01*
X123237216Y-48873385D01*
X123311744Y-48796231D01*
X123390687Y-48715725D01*
X123469617Y-48636363D01*
X123544100Y-48562640D01*
X123609706Y-48499052D01*
X123662004Y-48450094D01*
X123696561Y-48420261D01*
X123708122Y-48413142D01*
X123726946Y-48423153D01*
X123771969Y-48451278D01*
X123838813Y-48494654D01*
X123923101Y-48550418D01*
X124020456Y-48615706D01*
X124093893Y-48665446D01*
X124464933Y-48917751D01*
X125083505Y-48662755D01*
X125167325Y-48218131D01*
X125251146Y-47773507D01*
X126176594Y-47773507D01*
X126260414Y-48218131D01*
D11*
X161583200Y-55666200D02*
X161583200Y-54166200D01*
X159843200Y-55666200D02*
X161583200Y-55666200D01*
X154223200Y-40606200D02*
X161343200Y-40606200D01*
X154223200Y-55426200D02*
X161343200Y-55426200D01*
X161343200Y-55426200D02*
X161343200Y-40606200D01*
X154223200Y-55426200D02*
X154223200Y-40606200D01*
X159783200Y-55426200D02*
X159783200Y-40606200D01*
X159238200Y-42766200D02*
G75*
G03X159238200Y-42766200I-1555000J0D01*
G01*
X159238200Y-46266200D02*
G75*
G03X159238200Y-46266200I-1555000J0D01*
G01*
X159238200Y-49766200D02*
G75*
G03X159238200Y-49766200I-1555000J0D01*
G01*
X159238692Y-53239189D02*
G75*
G02X159115200Y-53874200I-1555492J-27011D01*
G01*
X158290942Y-54698309D02*
G75*
G02X157075200Y-54698200I-607742J1432109D01*
G01*
X156251091Y-53873942D02*
G75*
G02X156251200Y-52658200I1432109J607742D01*
G01*
X157075458Y-51834091D02*
G75*
G02X158291200Y-51834200I607742J-1432109D01*
G01*
X159114585Y-52658613D02*
G75*
G02X159238200Y-53266200I-1431385J-607587D01*
G01*
X105929600Y-43866200D02*
X105929600Y-45366200D01*
X107669600Y-43866200D02*
X105929600Y-43866200D01*
X113289600Y-51926200D02*
X106169600Y-51926200D01*
X113289600Y-44106200D02*
X106169600Y-44106200D01*
X106169600Y-44106200D02*
X106169600Y-51926200D01*
X113289600Y-44106200D02*
X113289600Y-51926200D01*
X107729600Y-44106200D02*
X107729600Y-51926200D01*
X111384600Y-49766200D02*
G75*
G03X111384600Y-49766200I-1555000J0D01*
G01*
X108274108Y-46293211D02*
G75*
G02X108397600Y-45658200I1555492J27011D01*
G01*
X109221858Y-44834091D02*
G75*
G02X110437600Y-44834200I607742J-1432109D01*
G01*
X111261709Y-45658458D02*
G75*
G02X111261600Y-46874200I-1432109J-607742D01*
G01*
X110437342Y-47698309D02*
G75*
G02X109221600Y-47698200I-607742J1432109D01*
G01*
X108398215Y-46873787D02*
G75*
G02X108274600Y-46266200I1431385J607587D01*
G01*
X117318000Y-44516200D02*
X117318000Y-46526200D01*
X151908000Y-37916200D02*
X117708000Y-37916200D01*
X151908000Y-58116200D02*
X151908000Y-37916200D01*
X117708000Y-58116200D02*
X151908000Y-58116200D01*
X117708000Y-37916200D02*
X117708000Y-58116200D01*
M02*
