  0
SECTION
  2
HEADER
  9
$ACADVER
  1
AC1014
  9
$HANDSEED
  5
FFFF
  9
$MEASUREMENT
 70
     1
  0
ENDSEC
  0
SECTION
  2
TABLES
  0
TABLE
  2
VPORT
  5
8
330
0
100
AcDbSymbolTable
 70
     4
  0
VPORT
  5
2E
330
8
100
AcDbSymbolTableRecord
100
AcDbViewportTableRecord
  2
*ACTIVE
 70
     0
 10
0.0
 20
0.0
 11
1.0
 21
1.0
 12
210.0
 22
148.5
 13
0.0
 23
0.0
 14
10.0
 24
10.0
 15
10.0
 25
10.0
 16
0.0
 26
0.0
 36
1.0
 17
0.0
 27
0.0
 37
0.0
 40
341.0
 41
1.24
 42
50.0
 43
0.0
 44
0.0
 50
0.0
 51
0.0
 71
     0
 72
   100
 73
     1
 74
     3
 75
     0
 76
     0
 77
     0
 78
     0
  0
ENDTAB
  0
TABLE
  2
LTYPE
  5
5
330
0
100
AcDbSymbolTable
 70
     1
  0
LTYPE
  5
14
330
5
100
AcDbSymbolTableRecord
100
AcDbLinetypeTableRecord
  2
BYBLOCK
 70
     0
  3

 72
    65
 73
     0
 40
0.0
  0
LTYPE
  5
15
330
5
100
AcDbSymbolTableRecord
100
AcDbLinetypeTableRecord
  2
BYLAYER
 70
     0
  3

 72
    65
 73
     0
 40
0.0
  0
LTYPE
  5
16
330
5
100
AcDbSymbolTableRecord
100
AcDbLinetypeTableRecord
  2
CONTINUOUS
 70
     0
  3
Solid line
 72
    65
 73
     0
 40
0.0
  0
ENDTAB
  0
TABLE
  2
LAYER
  5
2
100
AcDbSymbolTable
 70
1
  0
LAYER
  5
50
100
AcDbSymbolTableRecord
100
AcDbLayerTableRecord
  2
0
 70
0
  6
CONTINUOUS
  0
ENDTAB
  0
TABLE
  2
STYLE
  5
3
330
0
100
AcDbSymbolTable
 70
     1
  0
STYLE
  5
11
330
3
100
AcDbSymbolTableRecord
100
AcDbTextStyleTableRecord
  2
STANDARD
 70
     0
 40
0.0
 41
1.0
 50
0.0
 71
     0
 42
2.5
  3
txt
  4

  0
ENDTAB
  0
TABLE
  2
VIEW
  5
6
330
0
100
AcDbSymbolTable
 70
     0
  0
ENDTAB
  0
TABLE
  2
UCS
  5
7
330
0
100
AcDbSymbolTable
 70
     0
  0
ENDTAB
  0
TABLE
  2
APPID
  5
9
330
0
100
AcDbSymbolTable
 70
     2
  0
APPID
  5
12
330
9
100
AcDbSymbolTableRecord
100
AcDbRegAppTableRecord
  2
ACAD
 70
     0
  0
ENDTAB
  0
TABLE
  2
DIMSTYLE
  5
A
330
0
100
AcDbSymbolTable
 70
     1
  0
DIMSTYLE
105
27
330
A
100
AcDbSymbolTableRecord
100
AcDbDimStyleTableRecord
  2
ISO-25
 70
     0
  3

  4

  5

  6

  7

 40
1.0
 41
2.5
 42
0.625
 43
3.75
 44
1.25
 45
0.0
 46
0.0
 47
0.0
 48
0.0
140
2.5
141
2.5
142
0.0
143
0.03937007874016
144
1.0
145
0.0
146
1.0
147
0.625
 71
     0
 72
     0
 73
     0
 74
     0
 75
     0
 76
     0
 77
     1
 78
     8
170
     0
171
     3
172
     1
173
     0
174
     0
175
     0
176
     0
177
     0
178
     0
270
     2
271
     2
272
     2
273
     2
274
     3
340
11
275
     0
280
     0
281
     0
282
     0
283
     0
284
     8
285
     0
286
     0
287
     3
288
     0
  0
ENDTAB
  0
TABLE
  2
BLOCK_RECORD
  5
1
330
0
100
AcDbSymbolTable
 70
     1
  0
BLOCK_RECORD
  5
1F
330
1
100
AcDbSymbolTableRecord
100
AcDbBlockTableRecord
  2
*MODEL_SPACE
  0
BLOCK_RECORD
  5
1B
330
1
100
AcDbSymbolTableRecord
100
AcDbBlockTableRecord
  2
*PAPER_SPACE
  0
ENDTAB
  0
ENDSEC
  0
SECTION
  2
BLOCKS
  0
BLOCK
  5
20
330
1F
100
AcDbEntity
  8
0
100
AcDbBlockBegin
  2
*MODEL_SPACE
 70
     0
 10
0.0
 20
0.0
 30
0.0
  3
*MODEL_SPACE
  1

  0
ENDBLK
  5
21
330
1F
100
AcDbEntity
  8
0
100
AcDbBlockEnd
  0
BLOCK
  5
1C
330
1B
100
AcDbEntity
 67
     1
  8
0
100
AcDbBlockBegin
  2
*PAPER_SPACE
  1

  0
ENDBLK
  5
1D
330
1B
100
AcDbEntity
 67
     1
  8
0
100
AcDbBlockEnd
  0
ENDSEC
  0
SECTION
  2
ENTITIES
  0
LINE
  5
100
100
AcDbEntity
  8
0
 62
7
100
AcDbLine
 10
5.105304
 20
-33.821742
 30
0.0
 11
70.106373
 21
-33.821742
 31
0.0
  0
LINE
  5
101
100
AcDbEntity
  8
0
 62
7
100
AcDbLine
 10
70.106373
 20
-3.862462
 30
0.0
 11
70.106373
 21
-33.821742
 31
0.0
  0
LINE
  5
102
100
AcDbEntity
  8
0
 62
7
100
AcDbLine
 10
5.105304
 20
-3.862462
 30
0.0
 11
70.106373
 21
-3.862462
 31
0.0
  0
LINE
  5
103
100
AcDbEntity
  8
0
 62
7
100
AcDbLine
 10
5.105304
 20
-3.862462
 30
0.0
 11
5.105304
 21
-33.821742
 31
0.0
  0
SPLINE
  5
104
100
AcDbEntity
  8
0
 62
7
100
AcDbSpline
 70
8
 71
3
 72
8
 73
4
 74
0
 40
0
 40
0
 40
0
 40
0
 40
1
 40
1
 40
1
 40
1
 10
9.948930
 20
-7.361307
 30
0.0
 10
9.948930
 20
-7.840842
 30
0.0
 10
9.693101
 20
-8.283952
 30
0.0
 10
9.277810
 20
-8.523720
 30
0.0
  0
SPLINE
  5
105
100
AcDbEntity
  8
0
 62
7
100
AcDbSpline
 70
8
 71
3
 72
8
 73
4
 74
0
 40
0
 40
0
 40
0
 40
0
 40
1
 40
1
 40
1
 40
1
 10
9.277810
 20
-8.523720
 30
0.0
 10
8.862520
 20
-8.763488
 30
0.0
 10
8.350861
 20
-8.763488
 30
0.0
 10
7.935571
 20
-8.523720
 30
0.0
  0
SPLINE
  5
106
100
AcDbEntity
  8
0
 62
7
100
AcDbSpline
 70
8
 71
3
 72
8
 73
4
 74
0
 40
0
 40
0
 40
0
 40
0
 40
1
 40
1
 40
1
 40
1
 10
7.935571
 20
-8.523720
 30
0.0
 10
7.520281
 20
-8.283952
 30
0.0
 10
7.264451
 20
-7.840842
 30
0.0
 10
7.264451
 20
-7.361307
 30
0.0
  0
SPLINE
  5
107
100
AcDbEntity
  8
0
 62
7
100
AcDbSpline
 70
8
 71
3
 72
8
 73
4
 74
0
 40
0
 40
0
 40
0
 40
0
 40
1
 40
1
 40
1
 40
1
 10
7.264451
 20
-7.361307
 30
0.0
 10
7.264451
 20
-6.620009
 30
0.0
 10
7.865392
 20
-6.019068
 30
0.0
 10
8.606691
 20
-6.019068
 30
0.0
  0
SPLINE
  5
108
100
AcDbEntity
  8
0
 62
7
100
AcDbSpline
 70
8
 71
3
 72
8
 73
4
 74
0
 40
0
 40
0
 40
0
 40
0
 40
1
 40
1
 40
1
 40
1
 10
8.606691
 20
-6.019068
 30
0.0
 10
9.347989
 20
-6.019068
 30
0.0
 10
9.948930
 20
-6.620009
 30
0.0
 10
9.948930
 20
-7.361307
 30
0.0
  0
LINE
  5
109
100
AcDbEntity
  8
0
 62
7
100
AcDbLine
 10
9.948930
 20
-7.361307
 30
0.0
 11
9.948930
 21
-7.361307
 31
0.0
  0
SPLINE
  5
10a
100
AcDbEntity
  8
0
 62
7
100
AcDbSpline
 70
8
 71
3
 72
8
 73
4
 74
0
 40
0
 40
0
 40
0
 40
0
 40
1
 40
1
 40
1
 40
1
 10
18.628107
 20
-8.682104
 30
0.0
 10
18.628107
 20
-9.161639
 30
0.0
 10
18.372278
 20
-9.604749
 30
0.0
 10
17.956988
 20
-9.844516
 30
0.0
  0
SPLINE
  5
10b
100
AcDbEntity
  8
0
 62
7
100
AcDbSpline
 70
8
 71
3
 72
8
 73
4
 74
0
 40
0
 40
0
 40
0
 40
0
 40
1
 40
1
 40
1
 40
1
 10
17.956988
 20
-9.844516
 30
0.0
 10
17.541698
 20
-10.084284
 30
0.0
 10
17.030039
 20
-10.084284
 30
0.0
 10
16.614749
 20
-9.844516
 30
0.0
  0
SPLINE
  5
10c
100
AcDbEntity
  8
0
 62
7
100
AcDbSpline
 70
8
 71
3
 72
8
 73
4
 74
0
 40
0
 40
0
 40
0
 40
0
 40
1
 40
1
 40
1
 40
1
 10
16.614749
 20
-9.844516
 30
0.0
 10
16.199458
 20
-9.604749
 30
0.0
 10
15.943629
 20
-9.161639
 30
0.0
 10
15.943629
 20
-8.682104
 30
0.0
  0
SPLINE
  5
10d
100
AcDbEntity
  8
0
 62
7
100
AcDbSpline
 70
8
 71
3
 72
8
 73
4
 74
0
 40
0
 40
0
 40
0
 40
0
 40
1
 40
1
 40
1
 40
1
 10
15.943629
 20
-8.682104
 30
0.0
 10
15.943629
 20
-8.202568
 30
0.0
 10
16.199458
 20
-7.759459
 30
0.0
 10
16.614749
 20
-7.519691
 30
0.0
  0
SPLINE
  5
10e
100
AcDbEntity
  8
0
 62
7
100
AcDbSpline
 70
8
 71
3
 72
8
 73
4
 74
0
 40
0
 40
0
 40
0
 40
0
 40
1
 40
1
 40
1
 40
1
 10
16.614749
 20
-7.519691
 30
0.0
 10
17.030039
 20
-7.279923
 30
0.0
 10
17.541698
 20
-7.279923
 30
0.0
 10
17.956988
 20
-7.519691
 30
0.0
  0
SPLINE
  5
10f
100
AcDbEntity
  8
0
 62
7
100
AcDbSpline
 70
8
 71
3
 72
8
 73
4
 74
0
 40
0
 40
0
 40
0
 40
0
 40
1
 40
1
 40
1
 40
1
 10
17.956988
 20
-7.519691
 30
0.0
 10
18.372278
 20
-7.759459
 30
0.0
 10
18.628107
 20
-8.202568
 30
0.0
 10
18.628107
 20
-8.682104
 30
0.0
  0
LINE
  5
110
100
AcDbEntity
  8
0
 62
7
100
AcDbLine
 10
18.628107
 20
-8.682104
 30
0.0
 11
18.628107
 21
-8.682104
 31
0.0
  0
SPLINE
  5
111
100
AcDbEntity
  8
0
 62
7
100
AcDbSpline
 70
8
 71
3
 72
8
 73
4
 74
0
 40
0
 40
0
 40
0
 40
0
 40
1
 40
1
 40
1
 40
1
 10
28.788100
 20
-8.682104
 30
0.0
 10
28.788100
 20
-9.161639
 30
0.0
 10
28.532270
 20
-9.604749
 30
0.0
 10
28.116980
 20
-9.844516
 30
0.0
  0
SPLINE
  5
112
100
AcDbEntity
  8
0
 62
7
100
AcDbSpline
 70
8
 71
3
 72
8
 73
4
 74
0
 40
0
 40
0
 40
0
 40
0
 40
1
 40
1
 40
1
 40
1
 10
28.116980
 20
-9.844516
 30
0.0
 10
27.701690
 20
-10.084284
 30
0.0
 10
27.190031
 20
-10.084284
 30
0.0
 10
26.774741
 20
-9.844516
 30
0.0
  0
SPLINE
  5
113
100
AcDbEntity
  8
0
 62
7
100
AcDbSpline
 70
8
 71
3
 72
8
 73
4
 74
0
 40
0
 40
0
 40
0
 40
0
 40
1
 40
1
 40
1
 40
1
 10
26.774741
 20
-9.844516
 30
0.0
 10
26.359450
 20
-9.604749
 30
0.0
 10
26.103621
 20
-9.161639
 30
0.0
 10
26.103621
 20
-8.682104
 30
0.0
  0
SPLINE
  5
114
100
AcDbEntity
  8
0
 62
7
100
AcDbSpline
 70
8
 71
3
 72
8
 73
4
 74
0
 40
0
 40
0
 40
0
 40
0
 40
1
 40
1
 40
1
 40
1
 10
26.103621
 20
-8.682104
 30
0.0
 10
26.103621
 20
-7.940806
 30
0.0
 10
26.704562
 20
-7.339865
 30
0.0
 10
27.445860
 20
-7.339865
 30
0.0
  0
SPLINE
  5
115
100
AcDbEntity
  8
0
 62
7
100
AcDbSpline
 70
8
 71
3
 72
8
 73
4
 74
0
 40
0
 40
0
 40
0
 40
0
 40
1
 40
1
 40
1
 40
1
 10
27.445860
 20
-7.339865
 30
0.0
 10
28.187159
 20
-7.339865
 30
0.0
 10
28.788100
 20
-7.940806
 30
0.0
 10
28.788100
 20
-8.682104
 30
0.0
  0
LINE
  5
116
100
AcDbEntity
  8
0
 62
7
100
AcDbLine
 10
28.788100
 20
-8.682104
 30
0.0
 11
28.788100
 21
-8.682104
 31
0.0
  0
SPLINE
  5
117
100
AcDbEntity
  8
0
 62
7
100
AcDbSpline
 70
8
 71
3
 72
8
 73
4
 74
0
 40
0
 40
0
 40
0
 40
0
 40
1
 40
1
 40
1
 40
1
 10
38.948090
 20
-8.682104
 30
0.0
 10
38.948090
 20
-9.161639
 30
0.0
 10
38.692261
 20
-9.604749
 30
0.0
 10
38.276971
 20
-9.844516
 30
0.0
  0
SPLINE
  5
118
100
AcDbEntity
  8
0
 62
7
100
AcDbSpline
 70
8
 71
3
 72
8
 73
4
 74
0
 40
0
 40
0
 40
0
 40
0
 40
1
 40
1
 40
1
 40
1
 10
38.276971
 20
-9.844516
 30
0.0
 10
37.861680
 20
-10.084284
 30
0.0
 10
37.350022
 20
-10.084284
 30
0.0
 10
36.934731
 20
-9.844516
 30
0.0
  0
SPLINE
  5
119
100
AcDbEntity
  8
0
 62
7
100
AcDbSpline
 70
8
 71
3
 72
8
 73
4
 74
0
 40
0
 40
0
 40
0
 40
0
 40
1
 40
1
 40
1
 40
1
 10
36.934731
 20
-9.844516
 30
0.0
 10
36.519441
 20
-9.604749
 30
0.0
 10
36.263612
 20
-9.161639
 30
0.0
 10
36.263612
 20
-8.682104
 30
0.0
  0
SPLINE
  5
11a
100
AcDbEntity
  8
0
 62
7
100
AcDbSpline
 70
8
 71
3
 72
8
 73
4
 74
0
 40
0
 40
0
 40
0
 40
0
 40
1
 40
1
 40
1
 40
1
 10
36.263612
 20
-8.682104
 30
0.0
 10
36.263612
 20
-8.202568
 30
0.0
 10
36.519441
 20
-7.759459
 30
0.0
 10
36.934731
 20
-7.519691
 30
0.0
  0
SPLINE
  5
11b
100
AcDbEntity
  8
0
 62
7
100
AcDbSpline
 70
8
 71
3
 72
8
 73
4
 74
0
 40
0
 40
0
 40
0
 40
0
 40
1
 40
1
 40
1
 40
1
 10
36.934731
 20
-7.519691
 30
0.0
 10
37.350022
 20
-7.279923
 30
0.0
 10
37.861680
 20
-7.279923
 30
0.0
 10
38.276971
 20
-7.519691
 30
0.0
  0
SPLINE
  5
11c
100
AcDbEntity
  8
0
 62
7
100
AcDbSpline
 70
8
 71
3
 72
8
 73
4
 74
0
 40
0
 40
0
 40
0
 40
0
 40
1
 40
1
 40
1
 40
1
 10
38.276971
 20
-7.519691
 30
0.0
 10
38.692261
 20
-7.759459
 30
0.0
 10
38.948090
 20
-8.202568
 30
0.0
 10
38.948090
 20
-8.682104
 30
0.0
  0
LINE
  5
11d
100
AcDbEntity
  8
0
 62
7
100
AcDbLine
 10
38.948090
 20
-8.682104
 30
0.0
 11
38.948090
 21
-8.682104
 31
0.0
  0
SPLINE
  5
11e
100
AcDbEntity
  8
0
 62
7
100
AcDbSpline
 70
8
 71
3
 72
8
 73
4
 74
0
 40
0
 40
0
 40
0
 40
0
 40
1
 40
1
 40
1
 40
1
 10
49.108081
 20
-8.682104
 30
0.0
 10
49.108081
 20
-9.161639
 30
0.0
 10
48.852251
 20
-9.604749
 30
0.0
 10
48.436961
 20
-9.844516
 30
0.0
  0
SPLINE
  5
11f
100
AcDbEntity
  8
0
 62
7
100
AcDbSpline
 70
8
 71
3
 72
8
 73
4
 74
0
 40
0
 40
0
 40
0
 40
0
 40
1
 40
1
 40
1
 40
1
 10
48.436961
 20
-9.844516
 30
0.0
 10
48.021671
 20
-10.084284
 30
0.0
 10
47.510012
 20
-10.084284
 30
0.0
 10
47.094722
 20
-9.844516
 30
0.0
  0
SPLINE
  5
120
100
AcDbEntity
  8
0
 62
7
100
AcDbSpline
 70
8
 71
3
 72
8
 73
4
 74
0
 40
0
 40
0
 40
0
 40
0
 40
1
 40
1
 40
1
 40
1
 10
47.094722
 20
-9.844516
 30
0.0
 10
46.679431
 20
-9.604749
 30
0.0
 10
46.423602
 20
-9.161639
 30
0.0
 10
46.423602
 20
-8.682104
 30
0.0
  0
SPLINE
  5
121
100
AcDbEntity
  8
0
 62
7
100
AcDbSpline
 70
8
 71
3
 72
8
 73
4
 74
0
 40
0
 40
0
 40
0
 40
0
 40
1
 40
1
 40
1
 40
1
 10
46.423602
 20
-8.682104
 30
0.0
 10
46.423602
 20
-8.202568
 30
0.0
 10
46.679431
 20
-7.759459
 30
0.0
 10
47.094722
 20
-7.519691
 30
0.0
  0
SPLINE
  5
122
100
AcDbEntity
  8
0
 62
7
100
AcDbSpline
 70
8
 71
3
 72
8
 73
4
 74
0
 40
0
 40
0
 40
0
 40
0
 40
1
 40
1
 40
1
 40
1
 10
47.094722
 20
-7.519691
 30
0.0
 10
47.510012
 20
-7.279923
 30
0.0
 10
48.021671
 20
-7.279923
 30
0.0
 10
48.436961
 20
-7.519691
 30
0.0
  0
SPLINE
  5
123
100
AcDbEntity
  8
0
 62
7
100
AcDbSpline
 70
8
 71
3
 72
8
 73
4
 74
0
 40
0
 40
0
 40
0
 40
0
 40
1
 40
1
 40
1
 40
1
 10
48.436961
 20
-7.519691
 30
0.0
 10
48.852251
 20
-7.759459
 30
0.0
 10
49.108081
 20
-8.202568
 30
0.0
 10
49.108081
 20
-8.682104
 30
0.0
  0
LINE
  5
124
100
AcDbEntity
  8
0
 62
7
100
AcDbLine
 10
49.108081
 20
-8.682104
 30
0.0
 11
49.108081
 21
-8.682104
 31
0.0
  0
SPLINE
  5
125
100
AcDbEntity
  8
0
 62
7
100
AcDbSpline
 70
8
 71
3
 72
8
 73
4
 74
0
 40
0
 40
0
 40
0
 40
0
 40
1
 40
1
 40
1
 40
1
 10
59.268071
 20
-8.682104
 30
0.0
 10
59.268071
 20
-9.161639
 30
0.0
 10
59.012242
 20
-9.604749
 30
0.0
 10
58.596951
 20
-9.844516
 30
0.0
  0
SPLINE
  5
126
100
AcDbEntity
  8
0
 62
7
100
AcDbSpline
 70
8
 71
3
 72
8
 73
4
 74
0
 40
0
 40
0
 40
0
 40
0
 40
1
 40
1
 40
1
 40
1
 10
58.596951
 20
-9.844516
 30
0.0
 10
58.181661
 20
-10.084284
 30
0.0
 10
57.670002
 20
-10.084284
 30
0.0
 10
57.254712
 20
-9.844516
 30
0.0
  0
SPLINE
  5
127
100
AcDbEntity
  8
0
 62
7
100
AcDbSpline
 70
8
 71
3
 72
8
 73
4
 74
0
 40
0
 40
0
 40
0
 40
0
 40
1
 40
1
 40
1
 40
1
 10
57.254712
 20
-9.844516
 30
0.0
 10
56.839422
 20
-9.604749
 30
0.0
 10
56.583592
 20
-9.161639
 30
0.0
 10
56.583592
 20
-8.682104
 30
0.0
  0
SPLINE
  5
128
100
AcDbEntity
  8
0
 62
7
100
AcDbSpline
 70
8
 71
3
 72
8
 73
4
 74
0
 40
0
 40
0
 40
0
 40
0
 40
1
 40
1
 40
1
 40
1
 10
56.583592
 20
-8.682104
 30
0.0
 10
56.583592
 20
-8.202568
 30
0.0
 10
56.839422
 20
-7.759459
 30
0.0
 10
57.254712
 20
-7.519691
 30
0.0
  0
SPLINE
  5
129
100
AcDbEntity
  8
0
 62
7
100
AcDbSpline
 70
8
 71
3
 72
8
 73
4
 74
0
 40
0
 40
0
 40
0
 40
0
 40
1
 40
1
 40
1
 40
1
 10
57.254712
 20
-7.519691
 30
0.0
 10
57.670002
 20
-7.279923
 30
0.0
 10
58.181661
 20
-7.279923
 30
0.0
 10
58.596951
 20
-7.519691
 30
0.0
  0
SPLINE
  5
12a
100
AcDbEntity
  8
0
 62
7
100
AcDbSpline
 70
8
 71
3
 72
8
 73
4
 74
0
 40
0
 40
0
 40
0
 40
0
 40
1
 40
1
 40
1
 40
1
 10
58.596951
 20
-7.519691
 30
0.0
 10
59.012242
 20
-7.759459
 30
0.0
 10
59.268071
 20
-8.202568
 30
0.0
 10
59.268071
 20
-8.682104
 30
0.0
  0
LINE
  5
12b
100
AcDbEntity
  8
0
 62
7
100
AcDbLine
 10
59.268071
 20
-8.682104
 30
0.0
 11
59.268071
 21
-8.682104
 31
0.0
  0
SPLINE
  5
12c
100
AcDbEntity
  8
0
 62
7
100
AcDbSpline
 70
8
 71
3
 72
8
 73
4
 74
0
 40
0
 40
0
 40
0
 40
0
 40
1
 40
1
 40
1
 40
1
 10
67.947243
 20
-7.361307
 30
0.0
 10
67.947243
 20
-7.840842
 30
0.0
 10
67.691414
 20
-8.283952
 30
0.0
 10
67.276123
 20
-8.523719
 30
0.0
  0
SPLINE
  5
12d
100
AcDbEntity
  8
0
 62
7
100
AcDbSpline
 70
8
 71
3
 72
8
 73
4
 74
0
 40
0
 40
0
 40
0
 40
0
 40
1
 40
1
 40
1
 40
1
 10
67.276123
 20
-8.523719
 30
0.0
 10
66.860833
 20
-8.763487
 30
0.0
 10
66.349174
 20
-8.763487
 30
0.0
 10
65.933884
 20
-8.523719
 30
0.0
  0
SPLINE
  5
12e
100
AcDbEntity
  8
0
 62
7
100
AcDbSpline
 70
8
 71
3
 72
8
 73
4
 74
0
 40
0
 40
0
 40
0
 40
0
 40
1
 40
1
 40
1
 40
1
 10
65.933884
 20
-8.523719
 30
0.0
 10
65.518594
 20
-8.283952
 30
0.0
 10
65.262764
 20
-7.840842
 30
0.0
 10
65.262764
 20
-7.361307
 30
0.0
  0
SPLINE
  5
12f
100
AcDbEntity
  8
0
 62
7
100
AcDbSpline
 70
8
 71
3
 72
8
 73
4
 74
0
 40
0
 40
0
 40
0
 40
0
 40
1
 40
1
 40
1
 40
1
 10
65.262764
 20
-7.361307
 30
0.0
 10
65.262764
 20
-6.881771
 30
0.0
 10
65.518594
 20
-6.438662
 30
0.0
 10
65.933884
 20
-6.198894
 30
0.0
  0
SPLINE
  5
130
100
AcDbEntity
  8
0
 62
7
100
AcDbSpline
 70
8
 71
3
 72
8
 73
4
 74
0
 40
0
 40
0
 40
0
 40
0
 40
1
 40
1
 40
1
 40
1
 10
65.933884
 20
-6.198894
 30
0.0
 10
66.349174
 20
-5.959126
 30
0.0
 10
66.860833
 20
-5.959126
 30
0.0
 10
67.276123
 20
-6.198894
 30
0.0
  0
SPLINE
  5
131
100
AcDbEntity
  8
0
 62
7
100
AcDbSpline
 70
8
 71
3
 72
8
 73
4
 74
0
 40
0
 40
0
 40
0
 40
0
 40
1
 40
1
 40
1
 40
1
 10
67.276123
 20
-6.198894
 30
0.0
 10
67.691414
 20
-6.438662
 30
0.0
 10
67.947243
 20
-6.881771
 30
0.0
 10
67.947243
 20
-7.361307
 30
0.0
  0
LINE
  5
132
100
AcDbEntity
  8
0
 62
7
100
AcDbLine
 10
67.947243
 20
-7.361307
 30
0.0
 11
67.947243
 21
-7.361307
 31
0.0
  0
SPLINE
  5
133
100
AcDbEntity
  8
0
 62
7
100
AcDbSpline
 70
8
 71
3
 72
8
 73
4
 74
0
 40
0
 40
0
 40
0
 40
0
 40
1
 40
1
 40
1
 40
1
 10
18.628107
 20
-18.842093
 30
0.0
 10
18.628107
 20
-19.321629
 30
0.0
 10
18.372278
 20
-19.764738
 30
0.0
 10
17.956988
 20
-20.004506
 30
0.0
  0
SPLINE
  5
134
100
AcDbEntity
  8
0
 62
7
100
AcDbSpline
 70
8
 71
3
 72
8
 73
4
 74
0
 40
0
 40
0
 40
0
 40
0
 40
1
 40
1
 40
1
 40
1
 10
17.956988
 20
-20.004506
 30
0.0
 10
17.541698
 20
-20.244273
 30
0.0
 10
17.030039
 20
-20.244273
 30
0.0
 10
16.614749
 20
-20.004506
 30
0.0
  0
SPLINE
  5
135
100
AcDbEntity
  8
0
 62
7
100
AcDbSpline
 70
8
 71
3
 72
8
 73
4
 74
0
 40
0
 40
0
 40
0
 40
0
 40
1
 40
1
 40
1
 40
1
 10
16.614749
 20
-20.004506
 30
0.0
 10
16.199458
 20
-19.764738
 30
0.0
 10
15.943629
 20
-19.321629
 30
0.0
 10
15.943629
 20
-18.842093
 30
0.0
  0
SPLINE
  5
136
100
AcDbEntity
  8
0
 62
7
100
AcDbSpline
 70
8
 71
3
 72
8
 73
4
 74
0
 40
0
 40
0
 40
0
 40
0
 40
1
 40
1
 40
1
 40
1
 10
15.943629
 20
-18.842093
 30
0.0
 10
15.943629
 20
-18.362557
 30
0.0
 10
16.199458
 20
-17.919448
 30
0.0
 10
16.614749
 20
-17.679680
 30
0.0
  0
SPLINE
  5
137
100
AcDbEntity
  8
0
 62
7
100
AcDbSpline
 70
8
 71
3
 72
8
 73
4
 74
0
 40
0
 40
0
 40
0
 40
0
 40
1
 40
1
 40
1
 40
1
 10
16.614749
 20
-17.679680
 30
0.0
 10
17.030039
 20
-17.439912
 30
0.0
 10
17.541698
 20
-17.439912
 30
0.0
 10
17.956988
 20
-17.679680
 30
0.0
  0
SPLINE
  5
138
100
AcDbEntity
  8
0
 62
7
100
AcDbSpline
 70
8
 71
3
 72
8
 73
4
 74
0
 40
0
 40
0
 40
0
 40
0
 40
1
 40
1
 40
1
 40
1
 10
17.956988
 20
-17.679680
 30
0.0
 10
18.372278
 20
-17.919448
 30
0.0
 10
18.628107
 20
-18.362557
 30
0.0
 10
18.628107
 20
-18.842093
 30
0.0
  0
LINE
  5
139
100
AcDbEntity
  8
0
 62
7
100
AcDbLine
 10
18.628107
 20
-18.842093
 30
0.0
 11
18.628107
 21
-18.842093
 31
0.0
  0
SPLINE
  5
13a
100
AcDbEntity
  8
0
 62
7
100
AcDbSpline
 70
8
 71
3
 72
8
 73
4
 74
0
 40
0
 40
0
 40
0
 40
0
 40
1
 40
1
 40
1
 40
1
 10
28.788100
 20
-18.842093
 30
0.0
 10
28.788100
 20
-19.321629
 30
0.0
 10
28.532270
 20
-19.764738
 30
0.0
 10
28.116980
 20
-20.004506
 30
0.0
  0
SPLINE
  5
13b
100
AcDbEntity
  8
0
 62
7
100
AcDbSpline
 70
8
 71
3
 72
8
 73
4
 74
0
 40
0
 40
0
 40
0
 40
0
 40
1
 40
1
 40
1
 40
1
 10
28.116980
 20
-20.004506
 30
0.0
 10
27.701690
 20
-20.244273
 30
0.0
 10
27.190031
 20
-20.244273
 30
0.0
 10
26.774741
 20
-20.004506
 30
0.0
  0
SPLINE
  5
13c
100
AcDbEntity
  8
0
 62
7
100
AcDbSpline
 70
8
 71
3
 72
8
 73
4
 74
0
 40
0
 40
0
 40
0
 40
0
 40
1
 40
1
 40
1
 40
1
 10
26.774741
 20
-20.004506
 30
0.0
 10
26.359450
 20
-19.764738
 30
0.0
 10
26.103621
 20
-19.321629
 30
0.0
 10
26.103621
 20
-18.842093
 30
0.0
  0
SPLINE
  5
13d
100
AcDbEntity
  8
0
 62
7
100
AcDbSpline
 70
8
 71
3
 72
8
 73
4
 74
0
 40
0
 40
0
 40
0
 40
0
 40
1
 40
1
 40
1
 40
1
 10
26.103621
 20
-18.842093
 30
0.0
 10
26.103621
 20
-18.100795
 30
0.0
 10
26.704562
 20
-17.499854
 30
0.0
 10
27.445860
 20
-17.499854
 30
0.0
  0
SPLINE
  5
13e
100
AcDbEntity
  8
0
 62
7
100
AcDbSpline
 70
8
 71
3
 72
8
 73
4
 74
0
 40
0
 40
0
 40
0
 40
0
 40
1
 40
1
 40
1
 40
1
 10
27.445860
 20
-17.499854
 30
0.0
 10
28.187159
 20
-17.499854
 30
0.0
 10
28.788100
 20
-18.100795
 30
0.0
 10
28.788100
 20
-18.842093
 30
0.0
  0
LINE
  5
13f
100
AcDbEntity
  8
0
 62
7
100
AcDbLine
 10
28.788100
 20
-18.842093
 30
0.0
 11
28.788100
 21
-18.842093
 31
0.0
  0
SPLINE
  5
140
100
AcDbEntity
  8
0
 62
7
100
AcDbSpline
 70
8
 71
3
 72
8
 73
4
 74
0
 40
0
 40
0
 40
0
 40
0
 40
1
 40
1
 40
1
 40
1
 10
38.948090
 20
-18.842093
 30
0.0
 10
38.948090
 20
-19.321629
 30
0.0
 10
38.692261
 20
-19.764738
 30
0.0
 10
38.276971
 20
-20.004506
 30
0.0
  0
SPLINE
  5
141
100
AcDbEntity
  8
0
 62
7
100
AcDbSpline
 70
8
 71
3
 72
8
 73
4
 74
0
 40
0
 40
0
 40
0
 40
0
 40
1
 40
1
 40
1
 40
1
 10
38.276971
 20
-20.004506
 30
0.0
 10
37.861680
 20
-20.244273
 30
0.0
 10
37.350022
 20
-20.244273
 30
0.0
 10
36.934731
 20
-20.004506
 30
0.0
  0
SPLINE
  5
142
100
AcDbEntity
  8
0
 62
7
100
AcDbSpline
 70
8
 71
3
 72
8
 73
4
 74
0
 40
0
 40
0
 40
0
 40
0
 40
1
 40
1
 40
1
 40
1
 10
36.934731
 20
-20.004506
 30
0.0
 10
36.519441
 20
-19.764738
 30
0.0
 10
36.263612
 20
-19.321629
 30
0.0
 10
36.263612
 20
-18.842093
 30
0.0
  0
SPLINE
  5
143
100
AcDbEntity
  8
0
 62
7
100
AcDbSpline
 70
8
 71
3
 72
8
 73
4
 74
0
 40
0
 40
0
 40
0
 40
0
 40
1
 40
1
 40
1
 40
1
 10
36.263612
 20
-18.842093
 30
0.0
 10
36.263612
 20
-18.362557
 30
0.0
 10
36.519441
 20
-17.919448
 30
0.0
 10
36.934731
 20
-17.679680
 30
0.0
  0
SPLINE
  5
144
100
AcDbEntity
  8
0
 62
7
100
AcDbSpline
 70
8
 71
3
 72
8
 73
4
 74
0
 40
0
 40
0
 40
0
 40
0
 40
1
 40
1
 40
1
 40
1
 10
36.934731
 20
-17.679680
 30
0.0
 10
37.350022
 20
-17.439912
 30
0.0
 10
37.861680
 20
-17.439912
 30
0.0
 10
38.276971
 20
-17.679680
 30
0.0
  0
SPLINE
  5
145
100
AcDbEntity
  8
0
 62
7
100
AcDbSpline
 70
8
 71
3
 72
8
 73
4
 74
0
 40
0
 40
0
 40
0
 40
0
 40
1
 40
1
 40
1
 40
1
 10
38.276971
 20
-17.679680
 30
0.0
 10
38.692261
 20
-17.919448
 30
0.0
 10
38.948090
 20
-18.362557
 30
0.0
 10
38.948090
 20
-18.842093
 30
0.0
  0
LINE
  5
146
100
AcDbEntity
  8
0
 62
7
100
AcDbLine
 10
38.948090
 20
-18.842093
 30
0.0
 11
38.948090
 21
-18.842093
 31
0.0
  0
SPLINE
  5
147
100
AcDbEntity
  8
0
 62
7
100
AcDbSpline
 70
8
 71
3
 72
8
 73
4
 74
0
 40
0
 40
0
 40
0
 40
0
 40
1
 40
1
 40
1
 40
1
 10
49.108081
 20
-18.842093
 30
0.0
 10
49.108081
 20
-19.321629
 30
0.0
 10
48.852251
 20
-19.764738
 30
0.0
 10
48.436961
 20
-20.004506
 30
0.0
  0
SPLINE
  5
148
100
AcDbEntity
  8
0
 62
7
100
AcDbSpline
 70
8
 71
3
 72
8
 73
4
 74
0
 40
0
 40
0
 40
0
 40
0
 40
1
 40
1
 40
1
 40
1
 10
48.436961
 20
-20.004506
 30
0.0
 10
48.021671
 20
-20.244273
 30
0.0
 10
47.510012
 20
-20.244273
 30
0.0
 10
47.094722
 20
-20.004506
 30
0.0
  0
SPLINE
  5
149
100
AcDbEntity
  8
0
 62
7
100
AcDbSpline
 70
8
 71
3
 72
8
 73
4
 74
0
 40
0
 40
0
 40
0
 40
0
 40
1
 40
1
 40
1
 40
1
 10
47.094722
 20
-20.004506
 30
0.0
 10
46.679431
 20
-19.764738
 30
0.0
 10
46.423602
 20
-19.321629
 30
0.0
 10
46.423602
 20
-18.842093
 30
0.0
  0
SPLINE
  5
14a
100
AcDbEntity
  8
0
 62
7
100
AcDbSpline
 70
8
 71
3
 72
8
 73
4
 74
0
 40
0
 40
0
 40
0
 40
0
 40
1
 40
1
 40
1
 40
1
 10
46.423602
 20
-18.842093
 30
0.0
 10
46.423602
 20
-18.362557
 30
0.0
 10
46.679431
 20
-17.919448
 30
0.0
 10
47.094722
 20
-17.679680
 30
0.0
  0
SPLINE
  5
14b
100
AcDbEntity
  8
0
 62
7
100
AcDbSpline
 70
8
 71
3
 72
8
 73
4
 74
0
 40
0
 40
0
 40
0
 40
0
 40
1
 40
1
 40
1
 40
1
 10
47.094722
 20
-17.679680
 30
0.0
 10
47.510012
 20
-17.439912
 30
0.0
 10
48.021671
 20
-17.439912
 30
0.0
 10
48.436961
 20
-17.679680
 30
0.0
  0
SPLINE
  5
14c
100
AcDbEntity
  8
0
 62
7
100
AcDbSpline
 70
8
 71
3
 72
8
 73
4
 74
0
 40
0
 40
0
 40
0
 40
0
 40
1
 40
1
 40
1
 40
1
 10
48.436961
 20
-17.679680
 30
0.0
 10
48.852251
 20
-17.919448
 30
0.0
 10
49.108081
 20
-18.362557
 30
0.0
 10
49.108081
 20
-18.842093
 30
0.0
  0
LINE
  5
14d
100
AcDbEntity
  8
0
 62
7
100
AcDbLine
 10
49.108081
 20
-18.842093
 30
0.0
 11
49.108081
 21
-18.842093
 31
0.0
  0
SPLINE
  5
14e
100
AcDbEntity
  8
0
 62
7
100
AcDbSpline
 70
8
 71
3
 72
8
 73
4
 74
0
 40
0
 40
0
 40
0
 40
0
 40
1
 40
1
 40
1
 40
1
 10
59.268071
 20
-18.842093
 30
0.0
 10
59.268071
 20
-19.321629
 30
0.0
 10
59.012242
 20
-19.764738
 30
0.0
 10
58.596951
 20
-20.004506
 30
0.0
  0
SPLINE
  5
14f
100
AcDbEntity
  8
0
 62
7
100
AcDbSpline
 70
8
 71
3
 72
8
 73
4
 74
0
 40
0
 40
0
 40
0
 40
0
 40
1
 40
1
 40
1
 40
1
 10
58.596951
 20
-20.004506
 30
0.0
 10
58.181661
 20
-20.244273
 30
0.0
 10
57.670002
 20
-20.244273
 30
0.0
 10
57.254712
 20
-20.004506
 30
0.0
  0
SPLINE
  5
150
100
AcDbEntity
  8
0
 62
7
100
AcDbSpline
 70
8
 71
3
 72
8
 73
4
 74
0
 40
0
 40
0
 40
0
 40
0
 40
1
 40
1
 40
1
 40
1
 10
57.254712
 20
-20.004506
 30
0.0
 10
56.839422
 20
-19.764738
 30
0.0
 10
56.583592
 20
-19.321629
 30
0.0
 10
56.583592
 20
-18.842093
 30
0.0
  0
SPLINE
  5
151
100
AcDbEntity
  8
0
 62
7
100
AcDbSpline
 70
8
 71
3
 72
8
 73
4
 74
0
 40
0
 40
0
 40
0
 40
0
 40
1
 40
1
 40
1
 40
1
 10
56.583592
 20
-18.842093
 30
0.0
 10
56.583592
 20
-18.362557
 30
0.0
 10
56.839422
 20
-17.919448
 30
0.0
 10
57.254712
 20
-17.679680
 30
0.0
  0
SPLINE
  5
152
100
AcDbEntity
  8
0
 62
7
100
AcDbSpline
 70
8
 71
3
 72
8
 73
4
 74
0
 40
0
 40
0
 40
0
 40
0
 40
1
 40
1
 40
1
 40
1
 10
57.254712
 20
-17.679680
 30
0.0
 10
57.670002
 20
-17.439912
 30
0.0
 10
58.181661
 20
-17.439912
 30
0.0
 10
58.596951
 20
-17.679680
 30
0.0
  0
SPLINE
  5
153
100
AcDbEntity
  8
0
 62
7
100
AcDbSpline
 70
8
 71
3
 72
8
 73
4
 74
0
 40
0
 40
0
 40
0
 40
0
 40
1
 40
1
 40
1
 40
1
 10
58.596951
 20
-17.679680
 30
0.0
 10
59.012242
 20
-17.919448
 30
0.0
 10
59.268071
 20
-18.362557
 30
0.0
 10
59.268071
 20
-18.842093
 30
0.0
  0
LINE
  5
154
100
AcDbEntity
  8
0
 62
7
100
AcDbLine
 10
59.268071
 20
-18.842093
 30
0.0
 11
59.268071
 21
-18.842093
 31
0.0
  0
SPLINE
  5
155
100
AcDbEntity
  8
0
 62
7
100
AcDbSpline
 70
8
 71
3
 72
8
 73
4
 74
0
 40
0
 40
0
 40
0
 40
0
 40
1
 40
1
 40
1
 40
1
 10
9.948930
 20
-30.322883
 30
0.0
 10
9.948930
 20
-30.802419
 30
0.0
 10
9.693101
 20
-31.245528
 30
0.0
 10
9.277810
 20
-31.485296
 30
0.0
  0
SPLINE
  5
156
100
AcDbEntity
  8
0
 62
7
100
AcDbSpline
 70
8
 71
3
 72
8
 73
4
 74
0
 40
0
 40
0
 40
0
 40
0
 40
1
 40
1
 40
1
 40
1
 10
9.277810
 20
-31.485296
 30
0.0
 10
8.862520
 20
-31.725063
 30
0.0
 10
8.350861
 20
-31.725063
 30
0.0
 10
7.935571
 20
-31.485296
 30
0.0
  0
SPLINE
  5
157
100
AcDbEntity
  8
0
 62
7
100
AcDbSpline
 70
8
 71
3
 72
8
 73
4
 74
0
 40
0
 40
0
 40
0
 40
0
 40
1
 40
1
 40
1
 40
1
 10
7.935571
 20
-31.485296
 30
0.0
 10
7.520281
 20
-31.245528
 30
0.0
 10
7.264451
 20
-30.802419
 30
0.0
 10
7.264451
 20
-30.322883
 30
0.0
  0
SPLINE
  5
158
100
AcDbEntity
  8
0
 62
7
100
AcDbSpline
 70
8
 71
3
 72
8
 73
4
 74
0
 40
0
 40
0
 40
0
 40
0
 40
1
 40
1
 40
1
 40
1
 10
7.264451
 20
-30.322883
 30
0.0
 10
7.264451
 20
-29.581585
 30
0.0
 10
7.865392
 20
-28.980644
 30
0.0
 10
8.606691
 20
-28.980644
 30
0.0
  0
SPLINE
  5
159
100
AcDbEntity
  8
0
 62
7
100
AcDbSpline
 70
8
 71
3
 72
8
 73
4
 74
0
 40
0
 40
0
 40
0
 40
0
 40
1
 40
1
 40
1
 40
1
 10
8.606691
 20
-28.980644
 30
0.0
 10
9.347989
 20
-28.980644
 30
0.0
 10
9.948930
 20
-29.581585
 30
0.0
 10
9.948930
 20
-30.322883
 30
0.0
  0
LINE
  5
15a
100
AcDbEntity
  8
0
 62
7
100
AcDbLine
 10
9.948930
 20
-30.322883
 30
0.0
 11
9.948930
 21
-30.322883
 31
0.0
  0
SPLINE
  5
15b
100
AcDbEntity
  8
0
 62
7
100
AcDbSpline
 70
8
 71
3
 72
8
 73
4
 74
0
 40
0
 40
0
 40
0
 40
0
 40
1
 40
1
 40
1
 40
1
 10
18.628107
 20
-29.002084
 30
0.0
 10
18.628107
 20
-29.481620
 30
0.0
 10
18.372278
 20
-29.924729
 30
0.0
 10
17.956988
 20
-30.164497
 30
0.0
  0
SPLINE
  5
15c
100
AcDbEntity
  8
0
 62
7
100
AcDbSpline
 70
8
 71
3
 72
8
 73
4
 74
0
 40
0
 40
0
 40
0
 40
0
 40
1
 40
1
 40
1
 40
1
 10
17.956988
 20
-30.164497
 30
0.0
 10
17.541698
 20
-30.404265
 30
0.0
 10
17.030039
 20
-30.404265
 30
0.0
 10
16.614749
 20
-30.164497
 30
0.0
  0
SPLINE
  5
15d
100
AcDbEntity
  8
0
 62
7
100
AcDbSpline
 70
8
 71
3
 72
8
 73
4
 74
0
 40
0
 40
0
 40
0
 40
0
 40
1
 40
1
 40
1
 40
1
 10
16.614749
 20
-30.164497
 30
0.0
 10
16.199458
 20
-29.924729
 30
0.0
 10
15.943629
 20
-29.481620
 30
0.0
 10
15.943629
 20
-29.002084
 30
0.0
  0
SPLINE
  5
15e
100
AcDbEntity
  8
0
 62
7
100
AcDbSpline
 70
8
 71
3
 72
8
 73
4
 74
0
 40
0
 40
0
 40
0
 40
0
 40
1
 40
1
 40
1
 40
1
 10
15.943629
 20
-29.002084
 30
0.0
 10
15.943629
 20
-28.522548
 30
0.0
 10
16.199458
 20
-28.079439
 30
0.0
 10
16.614749
 20
-27.839671
 30
0.0
  0
SPLINE
  5
15f
100
AcDbEntity
  8
0
 62
7
100
AcDbSpline
 70
8
 71
3
 72
8
 73
4
 74
0
 40
0
 40
0
 40
0
 40
0
 40
1
 40
1
 40
1
 40
1
 10
16.614749
 20
-27.839671
 30
0.0
 10
17.030039
 20
-27.599904
 30
0.0
 10
17.541698
 20
-27.599904
 30
0.0
 10
17.956988
 20
-27.839671
 30
0.0
  0
SPLINE
  5
160
100
AcDbEntity
  8
0
 62
7
100
AcDbSpline
 70
8
 71
3
 72
8
 73
4
 74
0
 40
0
 40
0
 40
0
 40
0
 40
1
 40
1
 40
1
 40
1
 10
17.956988
 20
-27.839671
 30
0.0
 10
18.372278
 20
-28.079439
 30
0.0
 10
18.628107
 20
-28.522548
 30
0.0
 10
18.628107
 20
-29.002084
 30
0.0
  0
LINE
  5
161
100
AcDbEntity
  8
0
 62
7
100
AcDbLine
 10
18.628107
 20
-29.002084
 30
0.0
 11
18.628107
 21
-29.002084
 31
0.0
  0
SPLINE
  5
162
100
AcDbEntity
  8
0
 62
7
100
AcDbSpline
 70
8
 71
3
 72
8
 73
4
 74
0
 40
0
 40
0
 40
0
 40
0
 40
1
 40
1
 40
1
 40
1
 10
28.788100
 20
-29.002084
 30
0.0
 10
28.788100
 20
-29.481620
 30
0.0
 10
28.532270
 20
-29.924729
 30
0.0
 10
28.116980
 20
-30.164497
 30
0.0
  0
SPLINE
  5
163
100
AcDbEntity
  8
0
 62
7
100
AcDbSpline
 70
8
 71
3
 72
8
 73
4
 74
0
 40
0
 40
0
 40
0
 40
0
 40
1
 40
1
 40
1
 40
1
 10
28.116980
 20
-30.164497
 30
0.0
 10
27.701690
 20
-30.404265
 30
0.0
 10
27.190031
 20
-30.404265
 30
0.0
 10
26.774741
 20
-30.164497
 30
0.0
  0
SPLINE
  5
164
100
AcDbEntity
  8
0
 62
7
100
AcDbSpline
 70
8
 71
3
 72
8
 73
4
 74
0
 40
0
 40
0
 40
0
 40
0
 40
1
 40
1
 40
1
 40
1
 10
26.774741
 20
-30.164497
 30
0.0
 10
26.359450
 20
-29.924729
 30
0.0
 10
26.103621
 20
-29.481620
 30
0.0
 10
26.103621
 20
-29.002084
 30
0.0
  0
SPLINE
  5
165
100
AcDbEntity
  8
0
 62
7
100
AcDbSpline
 70
8
 71
3
 72
8
 73
4
 74
0
 40
0
 40
0
 40
0
 40
0
 40
1
 40
1
 40
1
 40
1
 10
26.103621
 20
-29.002084
 30
0.0
 10
26.103621
 20
-28.260786
 30
0.0
 10
26.704562
 20
-27.659846
 30
0.0
 10
27.445860
 20
-27.659846
 30
0.0
  0
SPLINE
  5
166
100
AcDbEntity
  8
0
 62
7
100
AcDbSpline
 70
8
 71
3
 72
8
 73
4
 74
0
 40
0
 40
0
 40
0
 40
0
 40
1
 40
1
 40
1
 40
1
 10
27.445860
 20
-27.659846
 30
0.0
 10
28.187159
 20
-27.659846
 30
0.0
 10
28.788100
 20
-28.260786
 30
0.0
 10
28.788100
 20
-29.002084
 30
0.0
  0
LINE
  5
167
100
AcDbEntity
  8
0
 62
7
100
AcDbLine
 10
28.788100
 20
-29.002084
 30
0.0
 11
28.788100
 21
-29.002084
 31
0.0
  0
SPLINE
  5
168
100
AcDbEntity
  8
0
 62
7
100
AcDbSpline
 70
8
 71
3
 72
8
 73
4
 74
0
 40
0
 40
0
 40
0
 40
0
 40
1
 40
1
 40
1
 40
1
 10
38.948090
 20
-29.002084
 30
0.0
 10
38.948090
 20
-29.481620
 30
0.0
 10
38.692261
 20
-29.924729
 30
0.0
 10
38.276971
 20
-30.164497
 30
0.0
  0
SPLINE
  5
169
100
AcDbEntity
  8
0
 62
7
100
AcDbSpline
 70
8
 71
3
 72
8
 73
4
 74
0
 40
0
 40
0
 40
0
 40
0
 40
1
 40
1
 40
1
 40
1
 10
38.276971
 20
-30.164497
 30
0.0
 10
37.861680
 20
-30.404265
 30
0.0
 10
37.350022
 20
-30.404265
 30
0.0
 10
36.934731
 20
-30.164497
 30
0.0
  0
SPLINE
  5
16a
100
AcDbEntity
  8
0
 62
7
100
AcDbSpline
 70
8
 71
3
 72
8
 73
4
 74
0
 40
0
 40
0
 40
0
 40
0
 40
1
 40
1
 40
1
 40
1
 10
36.934731
 20
-30.164497
 30
0.0
 10
36.519441
 20
-29.924729
 30
0.0
 10
36.263612
 20
-29.481620
 30
0.0
 10
36.263612
 20
-29.002084
 30
0.0
  0
SPLINE
  5
16b
100
AcDbEntity
  8
0
 62
7
100
AcDbSpline
 70
8
 71
3
 72
8
 73
4
 74
0
 40
0
 40
0
 40
0
 40
0
 40
1
 40
1
 40
1
 40
1
 10
36.263612
 20
-29.002084
 30
0.0
 10
36.263612
 20
-28.522548
 30
0.0
 10
36.519441
 20
-28.079439
 30
0.0
 10
36.934731
 20
-27.839671
 30
0.0
  0
SPLINE
  5
16c
100
AcDbEntity
  8
0
 62
7
100
AcDbSpline
 70
8
 71
3
 72
8
 73
4
 74
0
 40
0
 40
0
 40
0
 40
0
 40
1
 40
1
 40
1
 40
1
 10
36.934731
 20
-27.839671
 30
0.0
 10
37.350022
 20
-27.599904
 30
0.0
 10
37.861680
 20
-27.599904
 30
0.0
 10
38.276971
 20
-27.839671
 30
0.0
  0
SPLINE
  5
16d
100
AcDbEntity
  8
0
 62
7
100
AcDbSpline
 70
8
 71
3
 72
8
 73
4
 74
0
 40
0
 40
0
 40
0
 40
0
 40
1
 40
1
 40
1
 40
1
 10
38.276971
 20
-27.839671
 30
0.0
 10
38.692261
 20
-28.079439
 30
0.0
 10
38.948090
 20
-28.522548
 30
0.0
 10
38.948090
 20
-29.002084
 30
0.0
  0
LINE
  5
16e
100
AcDbEntity
  8
0
 62
7
100
AcDbLine
 10
38.948090
 20
-29.002084
 30
0.0
 11
38.948090
 21
-29.002084
 31
0.0
  0
SPLINE
  5
16f
100
AcDbEntity
  8
0
 62
7
100
AcDbSpline
 70
8
 71
3
 72
8
 73
4
 74
0
 40
0
 40
0
 40
0
 40
0
 40
1
 40
1
 40
1
 40
1
 10
49.108081
 20
-29.002084
 30
0.0
 10
49.108081
 20
-29.481620
 30
0.0
 10
48.852251
 20
-29.924729
 30
0.0
 10
48.436961
 20
-30.164497
 30
0.0
  0
SPLINE
  5
170
100
AcDbEntity
  8
0
 62
7
100
AcDbSpline
 70
8
 71
3
 72
8
 73
4
 74
0
 40
0
 40
0
 40
0
 40
0
 40
1
 40
1
 40
1
 40
1
 10
48.436961
 20
-30.164497
 30
0.0
 10
48.021671
 20
-30.404265
 30
0.0
 10
47.510012
 20
-30.404265
 30
0.0
 10
47.094722
 20
-30.164497
 30
0.0
  0
SPLINE
  5
171
100
AcDbEntity
  8
0
 62
7
100
AcDbSpline
 70
8
 71
3
 72
8
 73
4
 74
0
 40
0
 40
0
 40
0
 40
0
 40
1
 40
1
 40
1
 40
1
 10
47.094722
 20
-30.164497
 30
0.0
 10
46.679431
 20
-29.924729
 30
0.0
 10
46.423602
 20
-29.481620
 30
0.0
 10
46.423602
 20
-29.002084
 30
0.0
  0
SPLINE
  5
172
100
AcDbEntity
  8
0
 62
7
100
AcDbSpline
 70
8
 71
3
 72
8
 73
4
 74
0
 40
0
 40
0
 40
0
 40
0
 40
1
 40
1
 40
1
 40
1
 10
46.423602
 20
-29.002084
 30
0.0
 10
46.423602
 20
-28.522548
 30
0.0
 10
46.679431
 20
-28.079439
 30
0.0
 10
47.094722
 20
-27.839671
 30
0.0
  0
SPLINE
  5
173
100
AcDbEntity
  8
0
 62
7
100
AcDbSpline
 70
8
 71
3
 72
8
 73
4
 74
0
 40
0
 40
0
 40
0
 40
0
 40
1
 40
1
 40
1
 40
1
 10
47.094722
 20
-27.839671
 30
0.0
 10
47.510012
 20
-27.599904
 30
0.0
 10
48.021671
 20
-27.599904
 30
0.0
 10
48.436961
 20
-27.839671
 30
0.0
  0
SPLINE
  5
174
100
AcDbEntity
  8
0
 62
7
100
AcDbSpline
 70
8
 71
3
 72
8
 73
4
 74
0
 40
0
 40
0
 40
0
 40
0
 40
1
 40
1
 40
1
 40
1
 10
48.436961
 20
-27.839671
 30
0.0
 10
48.852251
 20
-28.079439
 30
0.0
 10
49.108081
 20
-28.522548
 30
0.0
 10
49.108081
 20
-29.002084
 30
0.0
  0
LINE
  5
175
100
AcDbEntity
  8
0
 62
7
100
AcDbLine
 10
49.108081
 20
-29.002084
 30
0.0
 11
49.108081
 21
-29.002084
 31
0.0
  0
SPLINE
  5
176
100
AcDbEntity
  8
0
 62
7
100
AcDbSpline
 70
8
 71
3
 72
8
 73
4
 74
0
 40
0
 40
0
 40
0
 40
0
 40
1
 40
1
 40
1
 40
1
 10
59.268071
 20
-29.002084
 30
0.0
 10
59.268071
 20
-29.481620
 30
0.0
 10
59.012242
 20
-29.924729
 30
0.0
 10
58.596951
 20
-30.164497
 30
0.0
  0
SPLINE
  5
177
100
AcDbEntity
  8
0
 62
7
100
AcDbSpline
 70
8
 71
3
 72
8
 73
4
 74
0
 40
0
 40
0
 40
0
 40
0
 40
1
 40
1
 40
1
 40
1
 10
58.596951
 20
-30.164497
 30
0.0
 10
58.181661
 20
-30.404265
 30
0.0
 10
57.670002
 20
-30.404265
 30
0.0
 10
57.254712
 20
-30.164497
 30
0.0
  0
SPLINE
  5
178
100
AcDbEntity
  8
0
 62
7
100
AcDbSpline
 70
8
 71
3
 72
8
 73
4
 74
0
 40
0
 40
0
 40
0
 40
0
 40
1
 40
1
 40
1
 40
1
 10
57.254712
 20
-30.164497
 30
0.0
 10
56.839422
 20
-29.924729
 30
0.0
 10
56.583592
 20
-29.481620
 30
0.0
 10
56.583592
 20
-29.002084
 30
0.0
  0
SPLINE
  5
179
100
AcDbEntity
  8
0
 62
7
100
AcDbSpline
 70
8
 71
3
 72
8
 73
4
 74
0
 40
0
 40
0
 40
0
 40
0
 40
1
 40
1
 40
1
 40
1
 10
56.583592
 20
-29.002084
 30
0.0
 10
56.583592
 20
-28.522548
 30
0.0
 10
56.839422
 20
-28.079439
 30
0.0
 10
57.254712
 20
-27.839671
 30
0.0
  0
SPLINE
  5
17a
100
AcDbEntity
  8
0
 62
7
100
AcDbSpline
 70
8
 71
3
 72
8
 73
4
 74
0
 40
0
 40
0
 40
0
 40
0
 40
1
 40
1
 40
1
 40
1
 10
57.254712
 20
-27.839671
 30
0.0
 10
57.670002
 20
-27.599904
 30
0.0
 10
58.181661
 20
-27.599904
 30
0.0
 10
58.596951
 20
-27.839671
 30
0.0
  0
SPLINE
  5
17b
100
AcDbEntity
  8
0
 62
7
100
AcDbSpline
 70
8
 71
3
 72
8
 73
4
 74
0
 40
0
 40
0
 40
0
 40
0
 40
1
 40
1
 40
1
 40
1
 10
58.596951
 20
-27.839671
 30
0.0
 10
59.012242
 20
-28.079439
 30
0.0
 10
59.268071
 20
-28.522548
 30
0.0
 10
59.268071
 20
-29.002084
 30
0.0
  0
LINE
  5
17c
100
AcDbEntity
  8
0
 62
7
100
AcDbLine
 10
59.268071
 20
-29.002084
 30
0.0
 11
59.268071
 21
-29.002084
 31
0.0
  0
SPLINE
  5
17d
100
AcDbEntity
  8
0
 62
7
100
AcDbSpline
 70
8
 71
3
 72
8
 73
4
 74
0
 40
0
 40
0
 40
0
 40
0
 40
1
 40
1
 40
1
 40
1
 10
67.947243
 20
-30.322883
 30
0.0
 10
67.947243
 20
-30.802419
 30
0.0
 10
67.691414
 20
-31.245528
 30
0.0
 10
67.276123
 20
-31.485296
 30
0.0
  0
SPLINE
  5
17e
100
AcDbEntity
  8
0
 62
7
100
AcDbSpline
 70
8
 71
3
 72
8
 73
4
 74
0
 40
0
 40
0
 40
0
 40
0
 40
1
 40
1
 40
1
 40
1
 10
67.276123
 20
-31.485296
 30
0.0
 10
66.860833
 20
-31.725063
 30
0.0
 10
66.349174
 20
-31.725063
 30
0.0
 10
65.933884
 20
-31.485296
 30
0.0
  0
SPLINE
  5
17f
100
AcDbEntity
  8
0
 62
7
100
AcDbSpline
 70
8
 71
3
 72
8
 73
4
 74
0
 40
0
 40
0
 40
0
 40
0
 40
1
 40
1
 40
1
 40
1
 10
65.933884
 20
-31.485296
 30
0.0
 10
65.518594
 20
-31.245528
 30
0.0
 10
65.262764
 20
-30.802419
 30
0.0
 10
65.262764
 20
-30.322883
 30
0.0
  0
SPLINE
  5
180
100
AcDbEntity
  8
0
 62
7
100
AcDbSpline
 70
8
 71
3
 72
8
 73
4
 74
0
 40
0
 40
0
 40
0
 40
0
 40
1
 40
1
 40
1
 40
1
 10
65.262764
 20
-30.322883
 30
0.0
 10
65.262764
 20
-29.843347
 30
0.0
 10
65.518594
 20
-29.400238
 30
0.0
 10
65.933884
 20
-29.160470
 30
0.0
  0
SPLINE
  5
181
100
AcDbEntity
  8
0
 62
7
100
AcDbSpline
 70
8
 71
3
 72
8
 73
4
 74
0
 40
0
 40
0
 40
0
 40
0
 40
1
 40
1
 40
1
 40
1
 10
65.933884
 20
-29.160470
 30
0.0
 10
66.349174
 20
-28.920702
 30
0.0
 10
66.860833
 20
-28.920702
 30
0.0
 10
67.276123
 20
-29.160470
 30
0.0
  0
SPLINE
  5
182
100
AcDbEntity
  8
0
 62
7
100
AcDbSpline
 70
8
 71
3
 72
8
 73
4
 74
0
 40
0
 40
0
 40
0
 40
0
 40
1
 40
1
 40
1
 40
1
 10
67.276123
 20
-29.160470
 30
0.0
 10
67.691414
 20
-29.400238
 30
0.0
 10
67.947243
 20
-29.843347
 30
0.0
 10
67.947243
 20
-30.322883
 30
0.0
  0
LINE
  5
183
100
AcDbEntity
  8
0
 62
7
100
AcDbLine
 10
67.947243
 20
-30.322883
 30
0.0
 11
67.947243
 21
-30.322883
 31
0.0
  0
ENDSEC
  0
SECTION
  2
OBJECTS
  0
DICTIONARY
  5
C
330
0
100
AcDbDictionary
  3
ACAD_GROUP
350
D
  3
ACAD_MLINESTYLE
350
17
  0
DICTIONARY
  5
D
330
C
100
AcDbDictionary
  0
DICTIONARY
  5
1A
330
C
100
AcDbDictionary
  0
DICTIONARY
  5
17
330
C
100
AcDbDictionary
  3
STANDARD
350
18
  0
DICTIONARY
  5
19
330
C
100
AcDbDictionary
  0
ENDSEC
  0
EOF
