G04 #@! TF.GenerationSoftware,KiCad,Pcbnew,5.1.5-52549c5~86~ubuntu18.04.1*
G04 #@! TF.CreationDate,2020-08-28T16:47:41-05:00*
G04 #@! TF.ProjectId,A04,4130342e-6b69-4636-9164-5f7063625858,rev?*
G04 #@! TF.SameCoordinates,Original*
G04 #@! TF.FileFunction,Soldermask,Bot*
G04 #@! TF.FilePolarity,Negative*
%FSLAX46Y46*%
G04 Gerber Fmt 4.6, Leading zero omitted, Abs format (unit mm)*
G04 Created by KiCad (PCBNEW 5.1.5-52549c5~86~ubuntu18.04.1) date 2020-08-28 16:47:41*
%MOMM*%
%LPD*%
G04 APERTURE LIST*
%ADD10C,0.100000*%
G04 APERTURE END LIST*
D10*
G36*
X83592585Y-72188802D02*
G01*
X83742410Y-72218604D01*
X84024674Y-72335521D01*
X84278705Y-72505259D01*
X84494741Y-72721295D01*
X84664479Y-72975326D01*
X84781396Y-73257590D01*
X84841000Y-73557240D01*
X84841000Y-73862760D01*
X84781396Y-74162410D01*
X84664479Y-74444674D01*
X84494741Y-74698705D01*
X84278705Y-74914741D01*
X84024674Y-75084479D01*
X83742410Y-75201396D01*
X83592585Y-75231198D01*
X83442761Y-75261000D01*
X83137239Y-75261000D01*
X82987415Y-75231198D01*
X82837590Y-75201396D01*
X82555326Y-75084479D01*
X82301295Y-74914741D01*
X82085259Y-74698705D01*
X81915521Y-74444674D01*
X81798604Y-74162410D01*
X81739000Y-73862760D01*
X81739000Y-73557240D01*
X81798604Y-73257590D01*
X81915521Y-72975326D01*
X82085259Y-72721295D01*
X82301295Y-72505259D01*
X82555326Y-72335521D01*
X82837590Y-72218604D01*
X82987415Y-72188802D01*
X83137239Y-72159000D01*
X83442761Y-72159000D01*
X83592585Y-72188802D01*
G37*
G36*
X25592585Y-72188802D02*
G01*
X25742410Y-72218604D01*
X26024674Y-72335521D01*
X26278705Y-72505259D01*
X26494741Y-72721295D01*
X26664479Y-72975326D01*
X26781396Y-73257590D01*
X26841000Y-73557240D01*
X26841000Y-73862760D01*
X26781396Y-74162410D01*
X26664479Y-74444674D01*
X26494741Y-74698705D01*
X26278705Y-74914741D01*
X26024674Y-75084479D01*
X25742410Y-75201396D01*
X25592585Y-75231198D01*
X25442761Y-75261000D01*
X25137239Y-75261000D01*
X24987415Y-75231198D01*
X24837590Y-75201396D01*
X24555326Y-75084479D01*
X24301295Y-74914741D01*
X24085259Y-74698705D01*
X23915521Y-74444674D01*
X23798604Y-74162410D01*
X23739000Y-73862760D01*
X23739000Y-73557240D01*
X23798604Y-73257590D01*
X23915521Y-72975326D01*
X24085259Y-72721295D01*
X24301295Y-72505259D01*
X24555326Y-72335521D01*
X24837590Y-72218604D01*
X24987415Y-72188802D01*
X25137239Y-72159000D01*
X25442761Y-72159000D01*
X25592585Y-72188802D01*
G37*
G36*
X74912585Y-62928802D02*
G01*
X75062410Y-62958604D01*
X75344674Y-63075521D01*
X75598705Y-63245259D01*
X75814741Y-63461295D01*
X75984479Y-63715326D01*
X76101396Y-63997590D01*
X76161000Y-64297240D01*
X76161000Y-64602760D01*
X76101396Y-64902410D01*
X75984479Y-65184674D01*
X75814741Y-65438705D01*
X75598705Y-65654741D01*
X75344674Y-65824479D01*
X75062410Y-65941396D01*
X74912585Y-65971198D01*
X74762761Y-66001000D01*
X74457239Y-66001000D01*
X74307415Y-65971198D01*
X74157590Y-65941396D01*
X73875326Y-65824479D01*
X73621295Y-65654741D01*
X73405259Y-65438705D01*
X73235521Y-65184674D01*
X73118604Y-64902410D01*
X73059000Y-64602760D01*
X73059000Y-64297240D01*
X73118604Y-63997590D01*
X73235521Y-63715326D01*
X73405259Y-63461295D01*
X73621295Y-63245259D01*
X73875326Y-63075521D01*
X74157590Y-62958604D01*
X74307415Y-62928802D01*
X74457239Y-62899000D01*
X74762761Y-62899000D01*
X74912585Y-62928802D01*
G37*
G36*
X64752585Y-62928802D02*
G01*
X64902410Y-62958604D01*
X65184674Y-63075521D01*
X65438705Y-63245259D01*
X65654741Y-63461295D01*
X65824479Y-63715326D01*
X65941396Y-63997590D01*
X66001000Y-64297240D01*
X66001000Y-64602760D01*
X65941396Y-64902410D01*
X65824479Y-65184674D01*
X65654741Y-65438705D01*
X65438705Y-65654741D01*
X65184674Y-65824479D01*
X64902410Y-65941396D01*
X64752585Y-65971198D01*
X64602761Y-66001000D01*
X64297239Y-66001000D01*
X64147415Y-65971198D01*
X63997590Y-65941396D01*
X63715326Y-65824479D01*
X63461295Y-65654741D01*
X63245259Y-65438705D01*
X63075521Y-65184674D01*
X62958604Y-64902410D01*
X62899000Y-64602760D01*
X62899000Y-64297240D01*
X62958604Y-63997590D01*
X63075521Y-63715326D01*
X63245259Y-63461295D01*
X63461295Y-63245259D01*
X63715326Y-63075521D01*
X63997590Y-62958604D01*
X64147415Y-62928802D01*
X64297239Y-62899000D01*
X64602761Y-62899000D01*
X64752585Y-62928802D01*
G37*
G36*
X54592585Y-62928802D02*
G01*
X54742410Y-62958604D01*
X55024674Y-63075521D01*
X55278705Y-63245259D01*
X55494741Y-63461295D01*
X55664479Y-63715326D01*
X55781396Y-63997590D01*
X55841000Y-64297240D01*
X55841000Y-64602760D01*
X55781396Y-64902410D01*
X55664479Y-65184674D01*
X55494741Y-65438705D01*
X55278705Y-65654741D01*
X55024674Y-65824479D01*
X54742410Y-65941396D01*
X54592585Y-65971198D01*
X54442761Y-66001000D01*
X54137239Y-66001000D01*
X53987415Y-65971198D01*
X53837590Y-65941396D01*
X53555326Y-65824479D01*
X53301295Y-65654741D01*
X53085259Y-65438705D01*
X52915521Y-65184674D01*
X52798604Y-64902410D01*
X52739000Y-64602760D01*
X52739000Y-64297240D01*
X52798604Y-63997590D01*
X52915521Y-63715326D01*
X53085259Y-63461295D01*
X53301295Y-63245259D01*
X53555326Y-63075521D01*
X53837590Y-62958604D01*
X53987415Y-62928802D01*
X54137239Y-62899000D01*
X54442761Y-62899000D01*
X54592585Y-62928802D01*
G37*
G36*
X44432585Y-62928802D02*
G01*
X44582410Y-62958604D01*
X44864674Y-63075521D01*
X45118705Y-63245259D01*
X45334741Y-63461295D01*
X45504479Y-63715326D01*
X45621396Y-63997590D01*
X45681000Y-64297240D01*
X45681000Y-64602760D01*
X45621396Y-64902410D01*
X45504479Y-65184674D01*
X45334741Y-65438705D01*
X45118705Y-65654741D01*
X44864674Y-65824479D01*
X44582410Y-65941396D01*
X44432585Y-65971198D01*
X44282761Y-66001000D01*
X43977239Y-66001000D01*
X43827415Y-65971198D01*
X43677590Y-65941396D01*
X43395326Y-65824479D01*
X43141295Y-65654741D01*
X42925259Y-65438705D01*
X42755521Y-65184674D01*
X42638604Y-64902410D01*
X42579000Y-64602760D01*
X42579000Y-64297240D01*
X42638604Y-63997590D01*
X42755521Y-63715326D01*
X42925259Y-63461295D01*
X43141295Y-63245259D01*
X43395326Y-63075521D01*
X43677590Y-62958604D01*
X43827415Y-62928802D01*
X43977239Y-62899000D01*
X44282761Y-62899000D01*
X44432585Y-62928802D01*
G37*
G36*
X34272585Y-62928802D02*
G01*
X34422410Y-62958604D01*
X34704674Y-63075521D01*
X34958705Y-63245259D01*
X35174741Y-63461295D01*
X35344479Y-63715326D01*
X35461396Y-63997590D01*
X35521000Y-64297240D01*
X35521000Y-64602760D01*
X35461396Y-64902410D01*
X35344479Y-65184674D01*
X35174741Y-65438705D01*
X34958705Y-65654741D01*
X34704674Y-65824479D01*
X34422410Y-65941396D01*
X34272585Y-65971198D01*
X34122761Y-66001000D01*
X33817239Y-66001000D01*
X33667415Y-65971198D01*
X33517590Y-65941396D01*
X33235326Y-65824479D01*
X32981295Y-65654741D01*
X32765259Y-65438705D01*
X32595521Y-65184674D01*
X32478604Y-64902410D01*
X32419000Y-64602760D01*
X32419000Y-64297240D01*
X32478604Y-63997590D01*
X32595521Y-63715326D01*
X32765259Y-63461295D01*
X32981295Y-63245259D01*
X33235326Y-63075521D01*
X33517590Y-62958604D01*
X33667415Y-62928802D01*
X33817239Y-62899000D01*
X34122761Y-62899000D01*
X34272585Y-62928802D01*
G37*
G36*
X29269393Y-58119304D02*
G01*
X29506101Y-58217352D01*
X29506103Y-58217353D01*
X29719135Y-58359696D01*
X29900304Y-58540865D01*
X30042647Y-58753897D01*
X30042648Y-58753899D01*
X30140696Y-58990607D01*
X30190680Y-59241893D01*
X30190680Y-59498107D01*
X30140696Y-59749393D01*
X30042648Y-59986101D01*
X30042647Y-59986103D01*
X29900304Y-60199135D01*
X29719135Y-60380304D01*
X29506103Y-60522647D01*
X29506102Y-60522648D01*
X29506101Y-60522648D01*
X29269393Y-60620696D01*
X29018107Y-60670680D01*
X28761893Y-60670680D01*
X28510607Y-60620696D01*
X28273899Y-60522648D01*
X28273898Y-60522648D01*
X28273897Y-60522647D01*
X28060865Y-60380304D01*
X27879696Y-60199135D01*
X27737353Y-59986103D01*
X27737352Y-59986101D01*
X27639304Y-59749393D01*
X27589320Y-59498107D01*
X27589320Y-59241893D01*
X27639304Y-58990607D01*
X27737352Y-58753899D01*
X27737353Y-58753897D01*
X27879696Y-58540865D01*
X28060865Y-58359696D01*
X28273897Y-58217353D01*
X28273899Y-58217352D01*
X28510607Y-58119304D01*
X28761893Y-58069320D01*
X29018107Y-58069320D01*
X29269393Y-58119304D01*
G37*
G36*
X80069393Y-58119304D02*
G01*
X80306101Y-58217352D01*
X80306103Y-58217353D01*
X80519135Y-58359696D01*
X80700304Y-58540865D01*
X80842647Y-58753897D01*
X80842648Y-58753899D01*
X80940696Y-58990607D01*
X80990680Y-59241893D01*
X80990680Y-59498107D01*
X80940696Y-59749393D01*
X80842648Y-59986101D01*
X80842647Y-59986103D01*
X80700304Y-60199135D01*
X80519135Y-60380304D01*
X80306103Y-60522647D01*
X80306102Y-60522648D01*
X80306101Y-60522648D01*
X80069393Y-60620696D01*
X79818107Y-60670680D01*
X79561893Y-60670680D01*
X79310607Y-60620696D01*
X79073899Y-60522648D01*
X79073898Y-60522648D01*
X79073897Y-60522647D01*
X78860865Y-60380304D01*
X78679696Y-60199135D01*
X78537353Y-59986103D01*
X78537352Y-59986101D01*
X78439304Y-59749393D01*
X78389320Y-59498107D01*
X78389320Y-59241893D01*
X78439304Y-58990607D01*
X78537352Y-58753899D01*
X78537353Y-58753897D01*
X78679696Y-58540865D01*
X78860865Y-58359696D01*
X79073897Y-58217353D01*
X79073899Y-58217352D01*
X79310607Y-58119304D01*
X79561893Y-58069320D01*
X79818107Y-58069320D01*
X80069393Y-58119304D01*
G37*
G36*
X64752585Y-52768802D02*
G01*
X64902410Y-52798604D01*
X65184674Y-52915521D01*
X65438705Y-53085259D01*
X65654741Y-53301295D01*
X65824479Y-53555326D01*
X65941396Y-53837590D01*
X66001000Y-54137240D01*
X66001000Y-54442760D01*
X65941396Y-54742410D01*
X65824479Y-55024674D01*
X65654741Y-55278705D01*
X65438705Y-55494741D01*
X65184674Y-55664479D01*
X64902410Y-55781396D01*
X64752585Y-55811198D01*
X64602761Y-55841000D01*
X64297239Y-55841000D01*
X64147415Y-55811198D01*
X63997590Y-55781396D01*
X63715326Y-55664479D01*
X63461295Y-55494741D01*
X63245259Y-55278705D01*
X63075521Y-55024674D01*
X62958604Y-54742410D01*
X62899000Y-54442760D01*
X62899000Y-54137240D01*
X62958604Y-53837590D01*
X63075521Y-53555326D01*
X63245259Y-53301295D01*
X63461295Y-53085259D01*
X63715326Y-52915521D01*
X63997590Y-52798604D01*
X64147415Y-52768802D01*
X64297239Y-52739000D01*
X64602761Y-52739000D01*
X64752585Y-52768802D01*
G37*
G36*
X44432585Y-52768802D02*
G01*
X44582410Y-52798604D01*
X44864674Y-52915521D01*
X45118705Y-53085259D01*
X45334741Y-53301295D01*
X45504479Y-53555326D01*
X45621396Y-53837590D01*
X45681000Y-54137240D01*
X45681000Y-54442760D01*
X45621396Y-54742410D01*
X45504479Y-55024674D01*
X45334741Y-55278705D01*
X45118705Y-55494741D01*
X44864674Y-55664479D01*
X44582410Y-55781396D01*
X44432585Y-55811198D01*
X44282761Y-55841000D01*
X43977239Y-55841000D01*
X43827415Y-55811198D01*
X43677590Y-55781396D01*
X43395326Y-55664479D01*
X43141295Y-55494741D01*
X42925259Y-55278705D01*
X42755521Y-55024674D01*
X42638604Y-54742410D01*
X42579000Y-54442760D01*
X42579000Y-54137240D01*
X42638604Y-53837590D01*
X42755521Y-53555326D01*
X42925259Y-53301295D01*
X43141295Y-53085259D01*
X43395326Y-52915521D01*
X43677590Y-52798604D01*
X43827415Y-52768802D01*
X43977239Y-52739000D01*
X44282761Y-52739000D01*
X44432585Y-52768802D01*
G37*
G36*
X34272585Y-52768802D02*
G01*
X34422410Y-52798604D01*
X34704674Y-52915521D01*
X34958705Y-53085259D01*
X35174741Y-53301295D01*
X35344479Y-53555326D01*
X35461396Y-53837590D01*
X35521000Y-54137240D01*
X35521000Y-54442760D01*
X35461396Y-54742410D01*
X35344479Y-55024674D01*
X35174741Y-55278705D01*
X34958705Y-55494741D01*
X34704674Y-55664479D01*
X34422410Y-55781396D01*
X34272585Y-55811198D01*
X34122761Y-55841000D01*
X33817239Y-55841000D01*
X33667415Y-55811198D01*
X33517590Y-55781396D01*
X33235326Y-55664479D01*
X32981295Y-55494741D01*
X32765259Y-55278705D01*
X32595521Y-55024674D01*
X32478604Y-54742410D01*
X32419000Y-54442760D01*
X32419000Y-54137240D01*
X32478604Y-53837590D01*
X32595521Y-53555326D01*
X32765259Y-53301295D01*
X32981295Y-53085259D01*
X33235326Y-52915521D01*
X33517590Y-52798604D01*
X33667415Y-52768802D01*
X33817239Y-52739000D01*
X34122761Y-52739000D01*
X34272585Y-52768802D01*
G37*
G36*
X54592585Y-52768802D02*
G01*
X54742410Y-52798604D01*
X55024674Y-52915521D01*
X55278705Y-53085259D01*
X55494741Y-53301295D01*
X55664479Y-53555326D01*
X55781396Y-53837590D01*
X55841000Y-54137240D01*
X55841000Y-54442760D01*
X55781396Y-54742410D01*
X55664479Y-55024674D01*
X55494741Y-55278705D01*
X55278705Y-55494741D01*
X55024674Y-55664479D01*
X54742410Y-55781396D01*
X54592585Y-55811198D01*
X54442761Y-55841000D01*
X54137239Y-55841000D01*
X53987415Y-55811198D01*
X53837590Y-55781396D01*
X53555326Y-55664479D01*
X53301295Y-55494741D01*
X53085259Y-55278705D01*
X52915521Y-55024674D01*
X52798604Y-54742410D01*
X52739000Y-54442760D01*
X52739000Y-54137240D01*
X52798604Y-53837590D01*
X52915521Y-53555326D01*
X53085259Y-53301295D01*
X53301295Y-53085259D01*
X53555326Y-52915521D01*
X53837590Y-52798604D01*
X53987415Y-52768802D01*
X54137239Y-52739000D01*
X54442761Y-52739000D01*
X54592585Y-52768802D01*
G37*
G36*
X74912585Y-52768802D02*
G01*
X75062410Y-52798604D01*
X75344674Y-52915521D01*
X75598705Y-53085259D01*
X75814741Y-53301295D01*
X75984479Y-53555326D01*
X76101396Y-53837590D01*
X76161000Y-54137240D01*
X76161000Y-54442760D01*
X76101396Y-54742410D01*
X75984479Y-55024674D01*
X75814741Y-55278705D01*
X75598705Y-55494741D01*
X75344674Y-55664479D01*
X75062410Y-55781396D01*
X74912585Y-55811198D01*
X74762761Y-55841000D01*
X74457239Y-55841000D01*
X74307415Y-55811198D01*
X74157590Y-55781396D01*
X73875326Y-55664479D01*
X73621295Y-55494741D01*
X73405259Y-55278705D01*
X73235521Y-55024674D01*
X73118604Y-54742410D01*
X73059000Y-54442760D01*
X73059000Y-54137240D01*
X73118604Y-53837590D01*
X73235521Y-53555326D01*
X73405259Y-53301295D01*
X73621295Y-53085259D01*
X73875326Y-52915521D01*
X74157590Y-52798604D01*
X74307415Y-52768802D01*
X74457239Y-52739000D01*
X74762761Y-52739000D01*
X74912585Y-52768802D01*
G37*
G36*
X44432585Y-42608802D02*
G01*
X44582410Y-42638604D01*
X44864674Y-42755521D01*
X45118705Y-42925259D01*
X45334741Y-43141295D01*
X45504479Y-43395326D01*
X45621396Y-43677590D01*
X45681000Y-43977240D01*
X45681000Y-44282760D01*
X45621396Y-44582410D01*
X45504479Y-44864674D01*
X45334741Y-45118705D01*
X45118705Y-45334741D01*
X44864674Y-45504479D01*
X44582410Y-45621396D01*
X44432585Y-45651198D01*
X44282761Y-45681000D01*
X43977239Y-45681000D01*
X43827415Y-45651198D01*
X43677590Y-45621396D01*
X43395326Y-45504479D01*
X43141295Y-45334741D01*
X42925259Y-45118705D01*
X42755521Y-44864674D01*
X42638604Y-44582410D01*
X42579000Y-44282760D01*
X42579000Y-43977240D01*
X42638604Y-43677590D01*
X42755521Y-43395326D01*
X42925259Y-43141295D01*
X43141295Y-42925259D01*
X43395326Y-42755521D01*
X43677590Y-42638604D01*
X43827415Y-42608802D01*
X43977239Y-42579000D01*
X44282761Y-42579000D01*
X44432585Y-42608802D01*
G37*
G36*
X34272585Y-42608802D02*
G01*
X34422410Y-42638604D01*
X34704674Y-42755521D01*
X34958705Y-42925259D01*
X35174741Y-43141295D01*
X35344479Y-43395326D01*
X35461396Y-43677590D01*
X35521000Y-43977240D01*
X35521000Y-44282760D01*
X35461396Y-44582410D01*
X35344479Y-44864674D01*
X35174741Y-45118705D01*
X34958705Y-45334741D01*
X34704674Y-45504479D01*
X34422410Y-45621396D01*
X34272585Y-45651198D01*
X34122761Y-45681000D01*
X33817239Y-45681000D01*
X33667415Y-45651198D01*
X33517590Y-45621396D01*
X33235326Y-45504479D01*
X32981295Y-45334741D01*
X32765259Y-45118705D01*
X32595521Y-44864674D01*
X32478604Y-44582410D01*
X32419000Y-44282760D01*
X32419000Y-43977240D01*
X32478604Y-43677590D01*
X32595521Y-43395326D01*
X32765259Y-43141295D01*
X32981295Y-42925259D01*
X33235326Y-42755521D01*
X33517590Y-42638604D01*
X33667415Y-42608802D01*
X33817239Y-42579000D01*
X34122761Y-42579000D01*
X34272585Y-42608802D01*
G37*
G36*
X54592585Y-42608802D02*
G01*
X54742410Y-42638604D01*
X55024674Y-42755521D01*
X55278705Y-42925259D01*
X55494741Y-43141295D01*
X55664479Y-43395326D01*
X55781396Y-43677590D01*
X55841000Y-43977240D01*
X55841000Y-44282760D01*
X55781396Y-44582410D01*
X55664479Y-44864674D01*
X55494741Y-45118705D01*
X55278705Y-45334741D01*
X55024674Y-45504479D01*
X54742410Y-45621396D01*
X54592585Y-45651198D01*
X54442761Y-45681000D01*
X54137239Y-45681000D01*
X53987415Y-45651198D01*
X53837590Y-45621396D01*
X53555326Y-45504479D01*
X53301295Y-45334741D01*
X53085259Y-45118705D01*
X52915521Y-44864674D01*
X52798604Y-44582410D01*
X52739000Y-44282760D01*
X52739000Y-43977240D01*
X52798604Y-43677590D01*
X52915521Y-43395326D01*
X53085259Y-43141295D01*
X53301295Y-42925259D01*
X53555326Y-42755521D01*
X53837590Y-42638604D01*
X53987415Y-42608802D01*
X54137239Y-42579000D01*
X54442761Y-42579000D01*
X54592585Y-42608802D01*
G37*
G36*
X64752585Y-42608802D02*
G01*
X64902410Y-42638604D01*
X65184674Y-42755521D01*
X65438705Y-42925259D01*
X65654741Y-43141295D01*
X65824479Y-43395326D01*
X65941396Y-43677590D01*
X66001000Y-43977240D01*
X66001000Y-44282760D01*
X65941396Y-44582410D01*
X65824479Y-44864674D01*
X65654741Y-45118705D01*
X65438705Y-45334741D01*
X65184674Y-45504479D01*
X64902410Y-45621396D01*
X64752585Y-45651198D01*
X64602761Y-45681000D01*
X64297239Y-45681000D01*
X64147415Y-45651198D01*
X63997590Y-45621396D01*
X63715326Y-45504479D01*
X63461295Y-45334741D01*
X63245259Y-45118705D01*
X63075521Y-44864674D01*
X62958604Y-44582410D01*
X62899000Y-44282760D01*
X62899000Y-43977240D01*
X62958604Y-43677590D01*
X63075521Y-43395326D01*
X63245259Y-43141295D01*
X63461295Y-42925259D01*
X63715326Y-42755521D01*
X63997590Y-42638604D01*
X64147415Y-42608802D01*
X64297239Y-42579000D01*
X64602761Y-42579000D01*
X64752585Y-42608802D01*
G37*
G36*
X74912585Y-42608802D02*
G01*
X75062410Y-42638604D01*
X75344674Y-42755521D01*
X75598705Y-42925259D01*
X75814741Y-43141295D01*
X75984479Y-43395326D01*
X76101396Y-43677590D01*
X76161000Y-43977240D01*
X76161000Y-44282760D01*
X76101396Y-44582410D01*
X75984479Y-44864674D01*
X75814741Y-45118705D01*
X75598705Y-45334741D01*
X75344674Y-45504479D01*
X75062410Y-45621396D01*
X74912585Y-45651198D01*
X74762761Y-45681000D01*
X74457239Y-45681000D01*
X74307415Y-45651198D01*
X74157590Y-45621396D01*
X73875326Y-45504479D01*
X73621295Y-45334741D01*
X73405259Y-45118705D01*
X73235521Y-44864674D01*
X73118604Y-44582410D01*
X73059000Y-44282760D01*
X73059000Y-43977240D01*
X73118604Y-43677590D01*
X73235521Y-43395326D01*
X73405259Y-43141295D01*
X73621295Y-42925259D01*
X73875326Y-42755521D01*
X74157590Y-42638604D01*
X74307415Y-42608802D01*
X74457239Y-42579000D01*
X74762761Y-42579000D01*
X74912585Y-42608802D01*
G37*
G36*
X29269393Y-37799304D02*
G01*
X29506101Y-37897352D01*
X29506103Y-37897353D01*
X29719135Y-38039696D01*
X29900304Y-38220865D01*
X30042647Y-38433897D01*
X30042648Y-38433899D01*
X30140696Y-38670607D01*
X30190680Y-38921893D01*
X30190680Y-39178107D01*
X30140696Y-39429393D01*
X30042648Y-39666101D01*
X30042647Y-39666103D01*
X29900304Y-39879135D01*
X29719135Y-40060304D01*
X29506103Y-40202647D01*
X29506102Y-40202648D01*
X29506101Y-40202648D01*
X29269393Y-40300696D01*
X29018107Y-40350680D01*
X28761893Y-40350680D01*
X28510607Y-40300696D01*
X28273899Y-40202648D01*
X28273898Y-40202648D01*
X28273897Y-40202647D01*
X28060865Y-40060304D01*
X27879696Y-39879135D01*
X27737353Y-39666103D01*
X27737352Y-39666101D01*
X27639304Y-39429393D01*
X27589320Y-39178107D01*
X27589320Y-38921893D01*
X27639304Y-38670607D01*
X27737352Y-38433899D01*
X27737353Y-38433897D01*
X27879696Y-38220865D01*
X28060865Y-38039696D01*
X28273897Y-37897353D01*
X28273899Y-37897352D01*
X28510607Y-37799304D01*
X28761893Y-37749320D01*
X29018107Y-37749320D01*
X29269393Y-37799304D01*
G37*
G36*
X80069393Y-37799304D02*
G01*
X80306101Y-37897352D01*
X80306103Y-37897353D01*
X80519135Y-38039696D01*
X80700304Y-38220865D01*
X80842647Y-38433897D01*
X80842648Y-38433899D01*
X80940696Y-38670607D01*
X80990680Y-38921893D01*
X80990680Y-39178107D01*
X80940696Y-39429393D01*
X80842648Y-39666101D01*
X80842647Y-39666103D01*
X80700304Y-39879135D01*
X80519135Y-40060304D01*
X80306103Y-40202647D01*
X80306102Y-40202648D01*
X80306101Y-40202648D01*
X80069393Y-40300696D01*
X79818107Y-40350680D01*
X79561893Y-40350680D01*
X79310607Y-40300696D01*
X79073899Y-40202648D01*
X79073898Y-40202648D01*
X79073897Y-40202647D01*
X78860865Y-40060304D01*
X78679696Y-39879135D01*
X78537353Y-39666103D01*
X78537352Y-39666101D01*
X78439304Y-39429393D01*
X78389320Y-39178107D01*
X78389320Y-38921893D01*
X78439304Y-38670607D01*
X78537352Y-38433899D01*
X78537353Y-38433897D01*
X78679696Y-38220865D01*
X78860865Y-38039696D01*
X79073897Y-37897353D01*
X79073899Y-37897352D01*
X79310607Y-37799304D01*
X79561893Y-37749320D01*
X79818107Y-37749320D01*
X80069393Y-37799304D01*
G37*
G36*
X64752585Y-32448802D02*
G01*
X64902410Y-32478604D01*
X65184674Y-32595521D01*
X65438705Y-32765259D01*
X65654741Y-32981295D01*
X65824479Y-33235326D01*
X65941396Y-33517590D01*
X66001000Y-33817240D01*
X66001000Y-34122760D01*
X65941396Y-34422410D01*
X65824479Y-34704674D01*
X65654741Y-34958705D01*
X65438705Y-35174741D01*
X65184674Y-35344479D01*
X64902410Y-35461396D01*
X64752585Y-35491198D01*
X64602761Y-35521000D01*
X64297239Y-35521000D01*
X64147415Y-35491198D01*
X63997590Y-35461396D01*
X63715326Y-35344479D01*
X63461295Y-35174741D01*
X63245259Y-34958705D01*
X63075521Y-34704674D01*
X62958604Y-34422410D01*
X62899000Y-34122760D01*
X62899000Y-33817240D01*
X62958604Y-33517590D01*
X63075521Y-33235326D01*
X63245259Y-32981295D01*
X63461295Y-32765259D01*
X63715326Y-32595521D01*
X63997590Y-32478604D01*
X64147415Y-32448802D01*
X64297239Y-32419000D01*
X64602761Y-32419000D01*
X64752585Y-32448802D01*
G37*
G36*
X34272585Y-32448802D02*
G01*
X34422410Y-32478604D01*
X34704674Y-32595521D01*
X34958705Y-32765259D01*
X35174741Y-32981295D01*
X35344479Y-33235326D01*
X35461396Y-33517590D01*
X35521000Y-33817240D01*
X35521000Y-34122760D01*
X35461396Y-34422410D01*
X35344479Y-34704674D01*
X35174741Y-34958705D01*
X34958705Y-35174741D01*
X34704674Y-35344479D01*
X34422410Y-35461396D01*
X34272585Y-35491198D01*
X34122761Y-35521000D01*
X33817239Y-35521000D01*
X33667415Y-35491198D01*
X33517590Y-35461396D01*
X33235326Y-35344479D01*
X32981295Y-35174741D01*
X32765259Y-34958705D01*
X32595521Y-34704674D01*
X32478604Y-34422410D01*
X32419000Y-34122760D01*
X32419000Y-33817240D01*
X32478604Y-33517590D01*
X32595521Y-33235326D01*
X32765259Y-32981295D01*
X32981295Y-32765259D01*
X33235326Y-32595521D01*
X33517590Y-32478604D01*
X33667415Y-32448802D01*
X33817239Y-32419000D01*
X34122761Y-32419000D01*
X34272585Y-32448802D01*
G37*
G36*
X44432585Y-32448802D02*
G01*
X44582410Y-32478604D01*
X44864674Y-32595521D01*
X45118705Y-32765259D01*
X45334741Y-32981295D01*
X45504479Y-33235326D01*
X45621396Y-33517590D01*
X45681000Y-33817240D01*
X45681000Y-34122760D01*
X45621396Y-34422410D01*
X45504479Y-34704674D01*
X45334741Y-34958705D01*
X45118705Y-35174741D01*
X44864674Y-35344479D01*
X44582410Y-35461396D01*
X44432585Y-35491198D01*
X44282761Y-35521000D01*
X43977239Y-35521000D01*
X43827415Y-35491198D01*
X43677590Y-35461396D01*
X43395326Y-35344479D01*
X43141295Y-35174741D01*
X42925259Y-34958705D01*
X42755521Y-34704674D01*
X42638604Y-34422410D01*
X42579000Y-34122760D01*
X42579000Y-33817240D01*
X42638604Y-33517590D01*
X42755521Y-33235326D01*
X42925259Y-32981295D01*
X43141295Y-32765259D01*
X43395326Y-32595521D01*
X43677590Y-32478604D01*
X43827415Y-32448802D01*
X43977239Y-32419000D01*
X44282761Y-32419000D01*
X44432585Y-32448802D01*
G37*
G36*
X54592585Y-32448802D02*
G01*
X54742410Y-32478604D01*
X55024674Y-32595521D01*
X55278705Y-32765259D01*
X55494741Y-32981295D01*
X55664479Y-33235326D01*
X55781396Y-33517590D01*
X55841000Y-33817240D01*
X55841000Y-34122760D01*
X55781396Y-34422410D01*
X55664479Y-34704674D01*
X55494741Y-34958705D01*
X55278705Y-35174741D01*
X55024674Y-35344479D01*
X54742410Y-35461396D01*
X54592585Y-35491198D01*
X54442761Y-35521000D01*
X54137239Y-35521000D01*
X53987415Y-35491198D01*
X53837590Y-35461396D01*
X53555326Y-35344479D01*
X53301295Y-35174741D01*
X53085259Y-34958705D01*
X52915521Y-34704674D01*
X52798604Y-34422410D01*
X52739000Y-34122760D01*
X52739000Y-33817240D01*
X52798604Y-33517590D01*
X52915521Y-33235326D01*
X53085259Y-32981295D01*
X53301295Y-32765259D01*
X53555326Y-32595521D01*
X53837590Y-32478604D01*
X53987415Y-32448802D01*
X54137239Y-32419000D01*
X54442761Y-32419000D01*
X54592585Y-32448802D01*
G37*
G36*
X74912585Y-32448802D02*
G01*
X75062410Y-32478604D01*
X75344674Y-32595521D01*
X75598705Y-32765259D01*
X75814741Y-32981295D01*
X75984479Y-33235326D01*
X76101396Y-33517590D01*
X76161000Y-33817240D01*
X76161000Y-34122760D01*
X76101396Y-34422410D01*
X75984479Y-34704674D01*
X75814741Y-34958705D01*
X75598705Y-35174741D01*
X75344674Y-35344479D01*
X75062410Y-35461396D01*
X74912585Y-35491198D01*
X74762761Y-35521000D01*
X74457239Y-35521000D01*
X74307415Y-35491198D01*
X74157590Y-35461396D01*
X73875326Y-35344479D01*
X73621295Y-35174741D01*
X73405259Y-34958705D01*
X73235521Y-34704674D01*
X73118604Y-34422410D01*
X73059000Y-34122760D01*
X73059000Y-33817240D01*
X73118604Y-33517590D01*
X73235521Y-33235326D01*
X73405259Y-32981295D01*
X73621295Y-32765259D01*
X73875326Y-32595521D01*
X74157590Y-32478604D01*
X74307415Y-32448802D01*
X74457239Y-32419000D01*
X74762761Y-32419000D01*
X74912585Y-32448802D01*
G37*
G36*
X83592585Y-23188802D02*
G01*
X83742410Y-23218604D01*
X84024674Y-23335521D01*
X84278705Y-23505259D01*
X84494741Y-23721295D01*
X84664479Y-23975326D01*
X84781396Y-24257590D01*
X84841000Y-24557240D01*
X84841000Y-24862760D01*
X84781396Y-25162410D01*
X84664479Y-25444674D01*
X84494741Y-25698705D01*
X84278705Y-25914741D01*
X84024674Y-26084479D01*
X83742410Y-26201396D01*
X83592585Y-26231198D01*
X83442761Y-26261000D01*
X83137239Y-26261000D01*
X82987415Y-26231198D01*
X82837590Y-26201396D01*
X82555326Y-26084479D01*
X82301295Y-25914741D01*
X82085259Y-25698705D01*
X81915521Y-25444674D01*
X81798604Y-25162410D01*
X81739000Y-24862760D01*
X81739000Y-24557240D01*
X81798604Y-24257590D01*
X81915521Y-23975326D01*
X82085259Y-23721295D01*
X82301295Y-23505259D01*
X82555326Y-23335521D01*
X82837590Y-23218604D01*
X82987415Y-23188802D01*
X83137239Y-23159000D01*
X83442761Y-23159000D01*
X83592585Y-23188802D01*
G37*
G36*
X25592585Y-23188802D02*
G01*
X25742410Y-23218604D01*
X26024674Y-23335521D01*
X26278705Y-23505259D01*
X26494741Y-23721295D01*
X26664479Y-23975326D01*
X26781396Y-24257590D01*
X26841000Y-24557240D01*
X26841000Y-24862760D01*
X26781396Y-25162410D01*
X26664479Y-25444674D01*
X26494741Y-25698705D01*
X26278705Y-25914741D01*
X26024674Y-26084479D01*
X25742410Y-26201396D01*
X25592585Y-26231198D01*
X25442761Y-26261000D01*
X25137239Y-26261000D01*
X24987415Y-26231198D01*
X24837590Y-26201396D01*
X24555326Y-26084479D01*
X24301295Y-25914741D01*
X24085259Y-25698705D01*
X23915521Y-25444674D01*
X23798604Y-25162410D01*
X23739000Y-24862760D01*
X23739000Y-24557240D01*
X23798604Y-24257590D01*
X23915521Y-23975326D01*
X24085259Y-23721295D01*
X24301295Y-23505259D01*
X24555326Y-23335521D01*
X24837590Y-23218604D01*
X24987415Y-23188802D01*
X25137239Y-23159000D01*
X25442761Y-23159000D01*
X25592585Y-23188802D01*
G37*
M02*
