G04 #@! TF.GenerationSoftware,KiCad,Pcbnew,5.1.5-52549c5~86~ubuntu18.04.1*
G04 #@! TF.CreationDate,2020-09-02T18:22:03-05:00*
G04 #@! TF.ProjectId,,58585858-5858-4585-9858-585858585858,rev?*
G04 #@! TF.SameCoordinates,Original*
G04 #@! TF.FileFunction,Legend,Bot*
G04 #@! TF.FilePolarity,Positive*
%FSLAX46Y46*%
G04 Gerber Fmt 4.6, Leading zero omitted, Abs format (unit mm)*
G04 Created by KiCad (PCBNEW 5.1.5-52549c5~86~ubuntu18.04.1) date 2020-09-02 18:22:03*
%MOMM*%
%LPD*%
G04 APERTURE LIST*
%ADD10C,0.150000*%
%ADD11C,0.010000*%
G04 APERTURE END LIST*
D10*
X98515600Y-90777285D02*
X98444171Y-90705857D01*
X98229885Y-90634428D01*
X98087028Y-90634428D01*
X97872742Y-90705857D01*
X97729885Y-90848714D01*
X97658457Y-90991571D01*
X97587028Y-91277285D01*
X97587028Y-91491571D01*
X97658457Y-91777285D01*
X97729885Y-91920142D01*
X97872742Y-92063000D01*
X98087028Y-92134428D01*
X98229885Y-92134428D01*
X98444171Y-92063000D01*
X98515600Y-91991571D01*
X99444171Y-92134428D02*
X99587028Y-92134428D01*
X99729885Y-92063000D01*
X99801314Y-91991571D01*
X99872742Y-91848714D01*
X99944171Y-91563000D01*
X99944171Y-91205857D01*
X99872742Y-90920142D01*
X99801314Y-90777285D01*
X99729885Y-90705857D01*
X99587028Y-90634428D01*
X99444171Y-90634428D01*
X99301314Y-90705857D01*
X99229885Y-90777285D01*
X99158457Y-90920142D01*
X99087028Y-91205857D01*
X99087028Y-91563000D01*
X99158457Y-91848714D01*
X99229885Y-91991571D01*
X99301314Y-92063000D01*
X99444171Y-92134428D01*
X100872742Y-92134428D02*
X101015600Y-92134428D01*
X101158457Y-92063000D01*
X101229885Y-91991571D01*
X101301314Y-91848714D01*
X101372742Y-91563000D01*
X101372742Y-91205857D01*
X101301314Y-90920142D01*
X101229885Y-90777285D01*
X101158457Y-90705857D01*
X101015600Y-90634428D01*
X100872742Y-90634428D01*
X100729885Y-90705857D01*
X100658457Y-90777285D01*
X100587028Y-90920142D01*
X100515600Y-91205857D01*
X100515600Y-91563000D01*
X100587028Y-91848714D01*
X100658457Y-91991571D01*
X100729885Y-92063000D01*
X100872742Y-92134428D01*
X101658457Y-90491571D02*
X102801314Y-90491571D01*
X103658457Y-91420142D02*
X103872742Y-91348714D01*
X103944171Y-91277285D01*
X104015600Y-91134428D01*
X104015600Y-90920142D01*
X103944171Y-90777285D01*
X103872742Y-90705857D01*
X103729885Y-90634428D01*
X103158457Y-90634428D01*
X103158457Y-92134428D01*
X103658457Y-92134428D01*
X103801314Y-92063000D01*
X103872742Y-91991571D01*
X103944171Y-91848714D01*
X103944171Y-91705857D01*
X103872742Y-91563000D01*
X103801314Y-91491571D01*
X103658457Y-91420142D01*
X103158457Y-91420142D01*
X105515600Y-90634428D02*
X105015600Y-91348714D01*
X104658457Y-90634428D02*
X104658457Y-92134428D01*
X105229885Y-92134428D01*
X105372742Y-92063000D01*
X105444171Y-91991571D01*
X105515600Y-91848714D01*
X105515600Y-91634428D01*
X105444171Y-91491571D01*
X105372742Y-91420142D01*
X105229885Y-91348714D01*
X104658457Y-91348714D01*
X106158457Y-91420142D02*
X106658457Y-91420142D01*
X106872742Y-90634428D02*
X106158457Y-90634428D01*
X106158457Y-92134428D01*
X106872742Y-92134428D01*
X107444171Y-91063000D02*
X108158457Y-91063000D01*
X107301314Y-90634428D02*
X107801314Y-92134428D01*
X108301314Y-90634428D01*
X108801314Y-90634428D02*
X108801314Y-92134428D01*
X109658457Y-90634428D02*
X109015600Y-91491571D01*
X109658457Y-92134428D02*
X108801314Y-91277285D01*
X110587028Y-92134428D02*
X110872742Y-92134428D01*
X111015600Y-92063000D01*
X111158457Y-91920142D01*
X111229885Y-91634428D01*
X111229885Y-91134428D01*
X111158457Y-90848714D01*
X111015600Y-90705857D01*
X110872742Y-90634428D01*
X110587028Y-90634428D01*
X110444171Y-90705857D01*
X110301314Y-90848714D01*
X110229885Y-91134428D01*
X110229885Y-91634428D01*
X110301314Y-91920142D01*
X110444171Y-92063000D01*
X110587028Y-92134428D01*
X111872742Y-92134428D02*
X111872742Y-90920142D01*
X111944171Y-90777285D01*
X112015600Y-90705857D01*
X112158457Y-90634428D01*
X112444171Y-90634428D01*
X112587028Y-90705857D01*
X112658457Y-90777285D01*
X112729885Y-90920142D01*
X112729885Y-92134428D01*
X113229885Y-92134428D02*
X114087028Y-92134428D01*
X113658457Y-90634428D02*
X113658457Y-92134428D01*
X98515600Y-52677285D02*
X98444171Y-52605857D01*
X98229885Y-52534428D01*
X98087028Y-52534428D01*
X97872742Y-52605857D01*
X97729885Y-52748714D01*
X97658457Y-52891571D01*
X97587028Y-53177285D01*
X97587028Y-53391571D01*
X97658457Y-53677285D01*
X97729885Y-53820142D01*
X97872742Y-53963000D01*
X98087028Y-54034428D01*
X98229885Y-54034428D01*
X98444171Y-53963000D01*
X98515600Y-53891571D01*
X99444171Y-54034428D02*
X99587028Y-54034428D01*
X99729885Y-53963000D01*
X99801314Y-53891571D01*
X99872742Y-53748714D01*
X99944171Y-53463000D01*
X99944171Y-53105857D01*
X99872742Y-52820142D01*
X99801314Y-52677285D01*
X99729885Y-52605857D01*
X99587028Y-52534428D01*
X99444171Y-52534428D01*
X99301314Y-52605857D01*
X99229885Y-52677285D01*
X99158457Y-52820142D01*
X99087028Y-53105857D01*
X99087028Y-53463000D01*
X99158457Y-53748714D01*
X99229885Y-53891571D01*
X99301314Y-53963000D01*
X99444171Y-54034428D01*
X100872742Y-54034428D02*
X101015600Y-54034428D01*
X101158457Y-53963000D01*
X101229885Y-53891571D01*
X101301314Y-53748714D01*
X101372742Y-53463000D01*
X101372742Y-53105857D01*
X101301314Y-52820142D01*
X101229885Y-52677285D01*
X101158457Y-52605857D01*
X101015600Y-52534428D01*
X100872742Y-52534428D01*
X100729885Y-52605857D01*
X100658457Y-52677285D01*
X100587028Y-52820142D01*
X100515600Y-53105857D01*
X100515600Y-53463000D01*
X100587028Y-53748714D01*
X100658457Y-53891571D01*
X100729885Y-53963000D01*
X100872742Y-54034428D01*
X101658457Y-52391571D02*
X102801314Y-52391571D01*
X103658457Y-53320142D02*
X103872742Y-53248714D01*
X103944171Y-53177285D01*
X104015600Y-53034428D01*
X104015600Y-52820142D01*
X103944171Y-52677285D01*
X103872742Y-52605857D01*
X103729885Y-52534428D01*
X103158457Y-52534428D01*
X103158457Y-54034428D01*
X103658457Y-54034428D01*
X103801314Y-53963000D01*
X103872742Y-53891571D01*
X103944171Y-53748714D01*
X103944171Y-53605857D01*
X103872742Y-53463000D01*
X103801314Y-53391571D01*
X103658457Y-53320142D01*
X103158457Y-53320142D01*
X105515600Y-52534428D02*
X105015600Y-53248714D01*
X104658457Y-52534428D02*
X104658457Y-54034428D01*
X105229885Y-54034428D01*
X105372742Y-53963000D01*
X105444171Y-53891571D01*
X105515600Y-53748714D01*
X105515600Y-53534428D01*
X105444171Y-53391571D01*
X105372742Y-53320142D01*
X105229885Y-53248714D01*
X104658457Y-53248714D01*
X106158457Y-53320142D02*
X106658457Y-53320142D01*
X106872742Y-52534428D02*
X106158457Y-52534428D01*
X106158457Y-54034428D01*
X106872742Y-54034428D01*
X107444171Y-52963000D02*
X108158457Y-52963000D01*
X107301314Y-52534428D02*
X107801314Y-54034428D01*
X108301314Y-52534428D01*
X108801314Y-52534428D02*
X108801314Y-54034428D01*
X109658457Y-52534428D02*
X109015600Y-53391571D01*
X109658457Y-54034428D02*
X108801314Y-53177285D01*
X110587028Y-54034428D02*
X110872742Y-54034428D01*
X111015600Y-53963000D01*
X111158457Y-53820142D01*
X111229885Y-53534428D01*
X111229885Y-53034428D01*
X111158457Y-52748714D01*
X111015600Y-52605857D01*
X110872742Y-52534428D01*
X110587028Y-52534428D01*
X110444171Y-52605857D01*
X110301314Y-52748714D01*
X110229885Y-53034428D01*
X110229885Y-53534428D01*
X110301314Y-53820142D01*
X110444171Y-53963000D01*
X110587028Y-54034428D01*
X111872742Y-54034428D02*
X111872742Y-52820142D01*
X111944171Y-52677285D01*
X112015600Y-52605857D01*
X112158457Y-52534428D01*
X112444171Y-52534428D01*
X112587028Y-52605857D01*
X112658457Y-52677285D01*
X112729885Y-52820142D01*
X112729885Y-54034428D01*
X113229885Y-54034428D02*
X114087028Y-54034428D01*
X113658457Y-52534428D02*
X113658457Y-54034428D01*
D11*
G36*
X105559414Y-104004069D02*
G01*
X105643235Y-103559445D01*
X105952520Y-103431947D01*
X106261806Y-103304449D01*
X106632846Y-103556754D01*
X106736757Y-103627004D01*
X106830687Y-103689728D01*
X106910252Y-103742062D01*
X106971070Y-103781143D01*
X107008757Y-103804107D01*
X107019021Y-103809058D01*
X107037510Y-103796324D01*
X107077020Y-103761118D01*
X107133122Y-103707938D01*
X107201387Y-103641282D01*
X107277386Y-103565646D01*
X107356692Y-103485528D01*
X107434875Y-103405426D01*
X107507507Y-103329836D01*
X107570159Y-103263255D01*
X107618403Y-103210182D01*
X107647810Y-103175113D01*
X107654841Y-103163377D01*
X107644723Y-103141740D01*
X107616359Y-103094338D01*
X107572729Y-103025807D01*
X107516818Y-102940785D01*
X107451606Y-102843907D01*
X107413819Y-102788650D01*
X107344943Y-102687752D01*
X107283740Y-102596701D01*
X107233178Y-102520030D01*
X107196228Y-102462272D01*
X107175858Y-102427957D01*
X107172797Y-102420746D01*
X107179736Y-102400252D01*
X107198651Y-102352487D01*
X107226687Y-102284168D01*
X107260991Y-102202011D01*
X107298709Y-102112730D01*
X107336987Y-102023042D01*
X107372970Y-101939662D01*
X107403806Y-101869306D01*
X107426639Y-101818690D01*
X107438617Y-101794529D01*
X107439324Y-101793578D01*
X107458131Y-101788964D01*
X107508218Y-101778672D01*
X107584393Y-101763713D01*
X107681465Y-101745099D01*
X107794243Y-101723841D01*
X107860042Y-101711582D01*
X107980550Y-101688638D01*
X108089397Y-101666805D01*
X108181076Y-101647278D01*
X108250081Y-101631252D01*
X108290904Y-101619921D01*
X108299111Y-101616326D01*
X108307148Y-101591994D01*
X108313633Y-101537041D01*
X108318570Y-101457892D01*
X108321964Y-101360974D01*
X108323818Y-101252713D01*
X108324138Y-101139535D01*
X108322927Y-101027865D01*
X108320190Y-100924132D01*
X108315931Y-100834759D01*
X108310155Y-100766174D01*
X108302867Y-100724803D01*
X108298495Y-100716190D01*
X108272364Y-100705867D01*
X108216993Y-100691108D01*
X108139707Y-100673648D01*
X108047830Y-100655220D01*
X108015758Y-100649259D01*
X107861124Y-100620934D01*
X107738975Y-100598124D01*
X107645273Y-100579920D01*
X107575984Y-100565417D01*
X107527071Y-100553708D01*
X107494497Y-100543885D01*
X107474228Y-100535044D01*
X107462226Y-100526276D01*
X107460547Y-100524543D01*
X107443784Y-100496629D01*
X107418214Y-100442305D01*
X107386388Y-100368223D01*
X107350860Y-100281035D01*
X107314183Y-100187392D01*
X107278911Y-100093948D01*
X107247596Y-100007353D01*
X107222793Y-99934260D01*
X107207054Y-99881322D01*
X107202932Y-99855189D01*
X107203276Y-99854274D01*
X107217241Y-99832914D01*
X107248922Y-99785916D01*
X107294991Y-99718173D01*
X107352118Y-99634577D01*
X107416973Y-99540018D01*
X107435443Y-99513146D01*
X107501299Y-99415725D01*
X107559250Y-99326837D01*
X107606138Y-99251588D01*
X107638807Y-99195080D01*
X107654100Y-99162419D01*
X107654841Y-99158407D01*
X107641992Y-99137316D01*
X107606488Y-99095536D01*
X107552893Y-99037555D01*
X107485771Y-98967865D01*
X107409687Y-98890955D01*
X107329204Y-98811317D01*
X107248887Y-98733439D01*
X107173299Y-98661814D01*
X107107005Y-98600930D01*
X107054569Y-98555279D01*
X107020555Y-98529350D01*
X107011145Y-98525117D01*
X106989243Y-98535088D01*
X106944400Y-98561980D01*
X106883921Y-98601264D01*
X106837389Y-98632883D01*
X106753075Y-98690902D01*
X106653226Y-98759216D01*
X106553073Y-98827421D01*
X106499227Y-98863925D01*
X106316971Y-98987200D01*
X106163981Y-98904480D01*
X106094282Y-98868241D01*
X106035014Y-98840074D01*
X105994911Y-98824009D01*
X105984703Y-98821774D01*
X105972429Y-98838278D01*
X105948213Y-98884918D01*
X105913863Y-98957391D01*
X105871188Y-99051394D01*
X105821994Y-99162626D01*
X105768090Y-99286785D01*
X105711284Y-99419568D01*
X105653382Y-99556673D01*
X105596193Y-99693798D01*
X105541524Y-99826642D01*
X105491184Y-99950902D01*
X105446980Y-100062275D01*
X105410719Y-100156461D01*
X105384209Y-100229156D01*
X105369258Y-100276059D01*
X105366854Y-100292167D01*
X105385911Y-100312714D01*
X105427636Y-100346067D01*
X105483306Y-100385298D01*
X105487978Y-100388401D01*
X105631864Y-100503577D01*
X105747883Y-100637947D01*
X105835030Y-100787216D01*
X105892299Y-100947087D01*
X105918686Y-101113263D01*
X105913185Y-101281448D01*
X105874790Y-101447345D01*
X105802495Y-101606658D01*
X105781226Y-101641513D01*
X105670596Y-101782263D01*
X105539902Y-101895286D01*
X105393664Y-101979997D01*
X105236408Y-102035806D01*
X105072657Y-102062126D01*
X104906933Y-102058370D01*
X104743762Y-102023950D01*
X104587665Y-101958277D01*
X104443167Y-101860765D01*
X104398469Y-101821187D01*
X104284712Y-101697297D01*
X104201818Y-101566876D01*
X104144956Y-101420685D01*
X104113287Y-101275912D01*
X104105469Y-101113140D01*
X104131538Y-100949560D01*
X104188845Y-100790702D01*
X104274744Y-100642094D01*
X104386586Y-100509265D01*
X104521723Y-100397744D01*
X104539483Y-100385989D01*
X104595750Y-100347492D01*
X104638523Y-100314137D01*
X104658972Y-100292840D01*
X104659269Y-100292167D01*
X104654879Y-100269129D01*
X104637476Y-100216843D01*
X104608868Y-100139610D01*
X104570865Y-100041732D01*
X104525274Y-99927509D01*
X104473903Y-99801242D01*
X104418562Y-99667233D01*
X104361058Y-99529782D01*
X104303201Y-99393192D01*
X104246798Y-99261763D01*
X104193658Y-99139795D01*
X104145590Y-99031591D01*
X104104401Y-98941451D01*
X104071901Y-98873677D01*
X104049897Y-98832570D01*
X104041036Y-98821774D01*
X104013960Y-98830181D01*
X103963297Y-98852728D01*
X103897783Y-98885387D01*
X103861759Y-98904480D01*
X103708768Y-98987200D01*
X103526512Y-98863925D01*
X103433475Y-98800772D01*
X103331615Y-98731273D01*
X103236162Y-98665835D01*
X103188350Y-98632883D01*
X103121105Y-98587727D01*
X103064164Y-98551943D01*
X103024954Y-98530062D01*
X103012219Y-98525437D01*
X102993683Y-98537915D01*
X102952659Y-98572748D01*
X102893125Y-98626322D01*
X102819058Y-98695017D01*
X102734435Y-98775219D01*
X102680915Y-98826714D01*
X102587281Y-98918714D01*
X102506359Y-99001001D01*
X102441423Y-99070055D01*
X102395742Y-99122356D01*
X102372589Y-99154384D01*
X102370368Y-99160884D01*
X102380676Y-99185606D01*
X102409161Y-99235595D01*
X102452663Y-99305788D01*
X102508023Y-99391125D01*
X102572080Y-99486544D01*
X102590297Y-99513146D01*
X102656673Y-99609833D01*
X102716222Y-99696883D01*
X102765616Y-99769405D01*
X102801525Y-99822507D01*
X102820619Y-99851297D01*
X102822464Y-99854274D01*
X102819705Y-99877218D01*
X102805062Y-99927664D01*
X102781087Y-99998959D01*
X102750334Y-100084453D01*
X102715356Y-100177493D01*
X102678707Y-100271426D01*
X102642939Y-100359601D01*
X102610606Y-100435366D01*
X102584262Y-100492069D01*
X102566458Y-100523057D01*
X102565193Y-100524543D01*
X102554306Y-100533399D01*
X102535918Y-100542157D01*
X102505994Y-100551723D01*
X102460497Y-100563004D01*
X102395391Y-100576907D01*
X102306639Y-100594337D01*
X102190207Y-100616202D01*
X102042058Y-100643409D01*
X102009982Y-100649259D01*
X101914914Y-100667626D01*
X101832035Y-100685595D01*
X101768670Y-100701431D01*
X101732142Y-100713400D01*
X101727244Y-100716190D01*
X101719173Y-100740928D01*
X101712613Y-100796210D01*
X101707567Y-100875611D01*
X101704041Y-100972704D01*
X101702039Y-101081062D01*
X101701564Y-101194260D01*
X101702623Y-101305872D01*
X101705218Y-101409471D01*
X101709354Y-101498632D01*
X101715037Y-101566928D01*
X101722269Y-101607934D01*
X101726629Y-101616326D01*
X101750902Y-101624792D01*
X101806174Y-101638565D01*
X101886938Y-101656450D01*
X101987688Y-101677252D01*
X102102917Y-101699777D01*
X102165698Y-101711582D01*
X102284813Y-101733849D01*
X102391035Y-101754021D01*
X102479173Y-101771085D01*
X102544034Y-101784031D01*
X102580426Y-101791845D01*
X102586416Y-101793578D01*
X102596539Y-101813110D01*
X102617938Y-101860157D01*
X102647761Y-101927997D01*
X102683155Y-102009909D01*
X102721268Y-102099172D01*
X102759247Y-102189065D01*
X102794240Y-102272865D01*
X102823394Y-102343853D01*
X102843857Y-102395306D01*
X102852777Y-102420503D01*
X102852943Y-102421604D01*
X102842831Y-102441481D01*
X102814483Y-102487223D01*
X102770877Y-102554283D01*
X102714994Y-102638116D01*
X102649813Y-102734174D01*
X102611921Y-102789350D01*
X102542875Y-102890519D01*
X102481550Y-102982370D01*
X102430937Y-103060256D01*
X102394029Y-103119531D01*
X102373818Y-103155549D01*
X102370899Y-103163623D01*
X102383447Y-103182416D01*
X102418137Y-103222543D01*
X102470537Y-103279507D01*
X102536216Y-103348815D01*
X102610744Y-103425969D01*
X102689687Y-103506475D01*
X102768617Y-103585837D01*
X102843100Y-103659560D01*
X102908706Y-103723148D01*
X102961004Y-103772106D01*
X102995561Y-103801939D01*
X103007122Y-103809058D01*
X103025946Y-103799047D01*
X103070969Y-103770922D01*
X103137813Y-103727546D01*
X103222101Y-103671782D01*
X103319456Y-103606494D01*
X103392893Y-103556754D01*
X103763933Y-103304449D01*
X104382505Y-103559445D01*
X104466325Y-104004069D01*
X104550146Y-104448693D01*
X105475594Y-104448693D01*
X105559414Y-104004069D01*
G37*
X105559414Y-104004069D02*
X105643235Y-103559445D01*
X105952520Y-103431947D01*
X106261806Y-103304449D01*
X106632846Y-103556754D01*
X106736757Y-103627004D01*
X106830687Y-103689728D01*
X106910252Y-103742062D01*
X106971070Y-103781143D01*
X107008757Y-103804107D01*
X107019021Y-103809058D01*
X107037510Y-103796324D01*
X107077020Y-103761118D01*
X107133122Y-103707938D01*
X107201387Y-103641282D01*
X107277386Y-103565646D01*
X107356692Y-103485528D01*
X107434875Y-103405426D01*
X107507507Y-103329836D01*
X107570159Y-103263255D01*
X107618403Y-103210182D01*
X107647810Y-103175113D01*
X107654841Y-103163377D01*
X107644723Y-103141740D01*
X107616359Y-103094338D01*
X107572729Y-103025807D01*
X107516818Y-102940785D01*
X107451606Y-102843907D01*
X107413819Y-102788650D01*
X107344943Y-102687752D01*
X107283740Y-102596701D01*
X107233178Y-102520030D01*
X107196228Y-102462272D01*
X107175858Y-102427957D01*
X107172797Y-102420746D01*
X107179736Y-102400252D01*
X107198651Y-102352487D01*
X107226687Y-102284168D01*
X107260991Y-102202011D01*
X107298709Y-102112730D01*
X107336987Y-102023042D01*
X107372970Y-101939662D01*
X107403806Y-101869306D01*
X107426639Y-101818690D01*
X107438617Y-101794529D01*
X107439324Y-101793578D01*
X107458131Y-101788964D01*
X107508218Y-101778672D01*
X107584393Y-101763713D01*
X107681465Y-101745099D01*
X107794243Y-101723841D01*
X107860042Y-101711582D01*
X107980550Y-101688638D01*
X108089397Y-101666805D01*
X108181076Y-101647278D01*
X108250081Y-101631252D01*
X108290904Y-101619921D01*
X108299111Y-101616326D01*
X108307148Y-101591994D01*
X108313633Y-101537041D01*
X108318570Y-101457892D01*
X108321964Y-101360974D01*
X108323818Y-101252713D01*
X108324138Y-101139535D01*
X108322927Y-101027865D01*
X108320190Y-100924132D01*
X108315931Y-100834759D01*
X108310155Y-100766174D01*
X108302867Y-100724803D01*
X108298495Y-100716190D01*
X108272364Y-100705867D01*
X108216993Y-100691108D01*
X108139707Y-100673648D01*
X108047830Y-100655220D01*
X108015758Y-100649259D01*
X107861124Y-100620934D01*
X107738975Y-100598124D01*
X107645273Y-100579920D01*
X107575984Y-100565417D01*
X107527071Y-100553708D01*
X107494497Y-100543885D01*
X107474228Y-100535044D01*
X107462226Y-100526276D01*
X107460547Y-100524543D01*
X107443784Y-100496629D01*
X107418214Y-100442305D01*
X107386388Y-100368223D01*
X107350860Y-100281035D01*
X107314183Y-100187392D01*
X107278911Y-100093948D01*
X107247596Y-100007353D01*
X107222793Y-99934260D01*
X107207054Y-99881322D01*
X107202932Y-99855189D01*
X107203276Y-99854274D01*
X107217241Y-99832914D01*
X107248922Y-99785916D01*
X107294991Y-99718173D01*
X107352118Y-99634577D01*
X107416973Y-99540018D01*
X107435443Y-99513146D01*
X107501299Y-99415725D01*
X107559250Y-99326837D01*
X107606138Y-99251588D01*
X107638807Y-99195080D01*
X107654100Y-99162419D01*
X107654841Y-99158407D01*
X107641992Y-99137316D01*
X107606488Y-99095536D01*
X107552893Y-99037555D01*
X107485771Y-98967865D01*
X107409687Y-98890955D01*
X107329204Y-98811317D01*
X107248887Y-98733439D01*
X107173299Y-98661814D01*
X107107005Y-98600930D01*
X107054569Y-98555279D01*
X107020555Y-98529350D01*
X107011145Y-98525117D01*
X106989243Y-98535088D01*
X106944400Y-98561980D01*
X106883921Y-98601264D01*
X106837389Y-98632883D01*
X106753075Y-98690902D01*
X106653226Y-98759216D01*
X106553073Y-98827421D01*
X106499227Y-98863925D01*
X106316971Y-98987200D01*
X106163981Y-98904480D01*
X106094282Y-98868241D01*
X106035014Y-98840074D01*
X105994911Y-98824009D01*
X105984703Y-98821774D01*
X105972429Y-98838278D01*
X105948213Y-98884918D01*
X105913863Y-98957391D01*
X105871188Y-99051394D01*
X105821994Y-99162626D01*
X105768090Y-99286785D01*
X105711284Y-99419568D01*
X105653382Y-99556673D01*
X105596193Y-99693798D01*
X105541524Y-99826642D01*
X105491184Y-99950902D01*
X105446980Y-100062275D01*
X105410719Y-100156461D01*
X105384209Y-100229156D01*
X105369258Y-100276059D01*
X105366854Y-100292167D01*
X105385911Y-100312714D01*
X105427636Y-100346067D01*
X105483306Y-100385298D01*
X105487978Y-100388401D01*
X105631864Y-100503577D01*
X105747883Y-100637947D01*
X105835030Y-100787216D01*
X105892299Y-100947087D01*
X105918686Y-101113263D01*
X105913185Y-101281448D01*
X105874790Y-101447345D01*
X105802495Y-101606658D01*
X105781226Y-101641513D01*
X105670596Y-101782263D01*
X105539902Y-101895286D01*
X105393664Y-101979997D01*
X105236408Y-102035806D01*
X105072657Y-102062126D01*
X104906933Y-102058370D01*
X104743762Y-102023950D01*
X104587665Y-101958277D01*
X104443167Y-101860765D01*
X104398469Y-101821187D01*
X104284712Y-101697297D01*
X104201818Y-101566876D01*
X104144956Y-101420685D01*
X104113287Y-101275912D01*
X104105469Y-101113140D01*
X104131538Y-100949560D01*
X104188845Y-100790702D01*
X104274744Y-100642094D01*
X104386586Y-100509265D01*
X104521723Y-100397744D01*
X104539483Y-100385989D01*
X104595750Y-100347492D01*
X104638523Y-100314137D01*
X104658972Y-100292840D01*
X104659269Y-100292167D01*
X104654879Y-100269129D01*
X104637476Y-100216843D01*
X104608868Y-100139610D01*
X104570865Y-100041732D01*
X104525274Y-99927509D01*
X104473903Y-99801242D01*
X104418562Y-99667233D01*
X104361058Y-99529782D01*
X104303201Y-99393192D01*
X104246798Y-99261763D01*
X104193658Y-99139795D01*
X104145590Y-99031591D01*
X104104401Y-98941451D01*
X104071901Y-98873677D01*
X104049897Y-98832570D01*
X104041036Y-98821774D01*
X104013960Y-98830181D01*
X103963297Y-98852728D01*
X103897783Y-98885387D01*
X103861759Y-98904480D01*
X103708768Y-98987200D01*
X103526512Y-98863925D01*
X103433475Y-98800772D01*
X103331615Y-98731273D01*
X103236162Y-98665835D01*
X103188350Y-98632883D01*
X103121105Y-98587727D01*
X103064164Y-98551943D01*
X103024954Y-98530062D01*
X103012219Y-98525437D01*
X102993683Y-98537915D01*
X102952659Y-98572748D01*
X102893125Y-98626322D01*
X102819058Y-98695017D01*
X102734435Y-98775219D01*
X102680915Y-98826714D01*
X102587281Y-98918714D01*
X102506359Y-99001001D01*
X102441423Y-99070055D01*
X102395742Y-99122356D01*
X102372589Y-99154384D01*
X102370368Y-99160884D01*
X102380676Y-99185606D01*
X102409161Y-99235595D01*
X102452663Y-99305788D01*
X102508023Y-99391125D01*
X102572080Y-99486544D01*
X102590297Y-99513146D01*
X102656673Y-99609833D01*
X102716222Y-99696883D01*
X102765616Y-99769405D01*
X102801525Y-99822507D01*
X102820619Y-99851297D01*
X102822464Y-99854274D01*
X102819705Y-99877218D01*
X102805062Y-99927664D01*
X102781087Y-99998959D01*
X102750334Y-100084453D01*
X102715356Y-100177493D01*
X102678707Y-100271426D01*
X102642939Y-100359601D01*
X102610606Y-100435366D01*
X102584262Y-100492069D01*
X102566458Y-100523057D01*
X102565193Y-100524543D01*
X102554306Y-100533399D01*
X102535918Y-100542157D01*
X102505994Y-100551723D01*
X102460497Y-100563004D01*
X102395391Y-100576907D01*
X102306639Y-100594337D01*
X102190207Y-100616202D01*
X102042058Y-100643409D01*
X102009982Y-100649259D01*
X101914914Y-100667626D01*
X101832035Y-100685595D01*
X101768670Y-100701431D01*
X101732142Y-100713400D01*
X101727244Y-100716190D01*
X101719173Y-100740928D01*
X101712613Y-100796210D01*
X101707567Y-100875611D01*
X101704041Y-100972704D01*
X101702039Y-101081062D01*
X101701564Y-101194260D01*
X101702623Y-101305872D01*
X101705218Y-101409471D01*
X101709354Y-101498632D01*
X101715037Y-101566928D01*
X101722269Y-101607934D01*
X101726629Y-101616326D01*
X101750902Y-101624792D01*
X101806174Y-101638565D01*
X101886938Y-101656450D01*
X101987688Y-101677252D01*
X102102917Y-101699777D01*
X102165698Y-101711582D01*
X102284813Y-101733849D01*
X102391035Y-101754021D01*
X102479173Y-101771085D01*
X102544034Y-101784031D01*
X102580426Y-101791845D01*
X102586416Y-101793578D01*
X102596539Y-101813110D01*
X102617938Y-101860157D01*
X102647761Y-101927997D01*
X102683155Y-102009909D01*
X102721268Y-102099172D01*
X102759247Y-102189065D01*
X102794240Y-102272865D01*
X102823394Y-102343853D01*
X102843857Y-102395306D01*
X102852777Y-102420503D01*
X102852943Y-102421604D01*
X102842831Y-102441481D01*
X102814483Y-102487223D01*
X102770877Y-102554283D01*
X102714994Y-102638116D01*
X102649813Y-102734174D01*
X102611921Y-102789350D01*
X102542875Y-102890519D01*
X102481550Y-102982370D01*
X102430937Y-103060256D01*
X102394029Y-103119531D01*
X102373818Y-103155549D01*
X102370899Y-103163623D01*
X102383447Y-103182416D01*
X102418137Y-103222543D01*
X102470537Y-103279507D01*
X102536216Y-103348815D01*
X102610744Y-103425969D01*
X102689687Y-103506475D01*
X102768617Y-103585837D01*
X102843100Y-103659560D01*
X102908706Y-103723148D01*
X102961004Y-103772106D01*
X102995561Y-103801939D01*
X103007122Y-103809058D01*
X103025946Y-103799047D01*
X103070969Y-103770922D01*
X103137813Y-103727546D01*
X103222101Y-103671782D01*
X103319456Y-103606494D01*
X103392893Y-103556754D01*
X103763933Y-103304449D01*
X104382505Y-103559445D01*
X104466325Y-104004069D01*
X104550146Y-104448693D01*
X105475594Y-104448693D01*
X105559414Y-104004069D01*
G36*
X105559414Y-65904069D02*
G01*
X105643235Y-65459445D01*
X105952520Y-65331947D01*
X106261806Y-65204449D01*
X106632846Y-65456754D01*
X106736757Y-65527004D01*
X106830687Y-65589728D01*
X106910252Y-65642062D01*
X106971070Y-65681143D01*
X107008757Y-65704107D01*
X107019021Y-65709058D01*
X107037510Y-65696324D01*
X107077020Y-65661118D01*
X107133122Y-65607938D01*
X107201387Y-65541282D01*
X107277386Y-65465646D01*
X107356692Y-65385528D01*
X107434875Y-65305426D01*
X107507507Y-65229836D01*
X107570159Y-65163255D01*
X107618403Y-65110182D01*
X107647810Y-65075113D01*
X107654841Y-65063377D01*
X107644723Y-65041740D01*
X107616359Y-64994338D01*
X107572729Y-64925807D01*
X107516818Y-64840785D01*
X107451606Y-64743907D01*
X107413819Y-64688650D01*
X107344943Y-64587752D01*
X107283740Y-64496701D01*
X107233178Y-64420030D01*
X107196228Y-64362272D01*
X107175858Y-64327957D01*
X107172797Y-64320746D01*
X107179736Y-64300252D01*
X107198651Y-64252487D01*
X107226687Y-64184168D01*
X107260991Y-64102011D01*
X107298709Y-64012730D01*
X107336987Y-63923042D01*
X107372970Y-63839662D01*
X107403806Y-63769306D01*
X107426639Y-63718690D01*
X107438617Y-63694529D01*
X107439324Y-63693578D01*
X107458131Y-63688964D01*
X107508218Y-63678672D01*
X107584393Y-63663713D01*
X107681465Y-63645099D01*
X107794243Y-63623841D01*
X107860042Y-63611582D01*
X107980550Y-63588638D01*
X108089397Y-63566805D01*
X108181076Y-63547278D01*
X108250081Y-63531252D01*
X108290904Y-63519921D01*
X108299111Y-63516326D01*
X108307148Y-63491994D01*
X108313633Y-63437041D01*
X108318570Y-63357892D01*
X108321964Y-63260974D01*
X108323818Y-63152713D01*
X108324138Y-63039535D01*
X108322927Y-62927865D01*
X108320190Y-62824132D01*
X108315931Y-62734759D01*
X108310155Y-62666174D01*
X108302867Y-62624803D01*
X108298495Y-62616190D01*
X108272364Y-62605867D01*
X108216993Y-62591108D01*
X108139707Y-62573648D01*
X108047830Y-62555220D01*
X108015758Y-62549259D01*
X107861124Y-62520934D01*
X107738975Y-62498124D01*
X107645273Y-62479920D01*
X107575984Y-62465417D01*
X107527071Y-62453708D01*
X107494497Y-62443885D01*
X107474228Y-62435044D01*
X107462226Y-62426276D01*
X107460547Y-62424543D01*
X107443784Y-62396629D01*
X107418214Y-62342305D01*
X107386388Y-62268223D01*
X107350860Y-62181035D01*
X107314183Y-62087392D01*
X107278911Y-61993948D01*
X107247596Y-61907353D01*
X107222793Y-61834260D01*
X107207054Y-61781322D01*
X107202932Y-61755189D01*
X107203276Y-61754274D01*
X107217241Y-61732914D01*
X107248922Y-61685916D01*
X107294991Y-61618173D01*
X107352118Y-61534577D01*
X107416973Y-61440018D01*
X107435443Y-61413146D01*
X107501299Y-61315725D01*
X107559250Y-61226837D01*
X107606138Y-61151588D01*
X107638807Y-61095080D01*
X107654100Y-61062419D01*
X107654841Y-61058407D01*
X107641992Y-61037316D01*
X107606488Y-60995536D01*
X107552893Y-60937555D01*
X107485771Y-60867865D01*
X107409687Y-60790955D01*
X107329204Y-60711317D01*
X107248887Y-60633439D01*
X107173299Y-60561814D01*
X107107005Y-60500930D01*
X107054569Y-60455279D01*
X107020555Y-60429350D01*
X107011145Y-60425117D01*
X106989243Y-60435088D01*
X106944400Y-60461980D01*
X106883921Y-60501264D01*
X106837389Y-60532883D01*
X106753075Y-60590902D01*
X106653226Y-60659216D01*
X106553073Y-60727421D01*
X106499227Y-60763925D01*
X106316971Y-60887200D01*
X106163981Y-60804480D01*
X106094282Y-60768241D01*
X106035014Y-60740074D01*
X105994911Y-60724009D01*
X105984703Y-60721774D01*
X105972429Y-60738278D01*
X105948213Y-60784918D01*
X105913863Y-60857391D01*
X105871188Y-60951394D01*
X105821994Y-61062626D01*
X105768090Y-61186785D01*
X105711284Y-61319568D01*
X105653382Y-61456673D01*
X105596193Y-61593798D01*
X105541524Y-61726642D01*
X105491184Y-61850902D01*
X105446980Y-61962275D01*
X105410719Y-62056461D01*
X105384209Y-62129156D01*
X105369258Y-62176059D01*
X105366854Y-62192167D01*
X105385911Y-62212714D01*
X105427636Y-62246067D01*
X105483306Y-62285298D01*
X105487978Y-62288401D01*
X105631864Y-62403577D01*
X105747883Y-62537947D01*
X105835030Y-62687216D01*
X105892299Y-62847087D01*
X105918686Y-63013263D01*
X105913185Y-63181448D01*
X105874790Y-63347345D01*
X105802495Y-63506658D01*
X105781226Y-63541513D01*
X105670596Y-63682263D01*
X105539902Y-63795286D01*
X105393664Y-63879997D01*
X105236408Y-63935806D01*
X105072657Y-63962126D01*
X104906933Y-63958370D01*
X104743762Y-63923950D01*
X104587665Y-63858277D01*
X104443167Y-63760765D01*
X104398469Y-63721187D01*
X104284712Y-63597297D01*
X104201818Y-63466876D01*
X104144956Y-63320685D01*
X104113287Y-63175912D01*
X104105469Y-63013140D01*
X104131538Y-62849560D01*
X104188845Y-62690702D01*
X104274744Y-62542094D01*
X104386586Y-62409265D01*
X104521723Y-62297744D01*
X104539483Y-62285989D01*
X104595750Y-62247492D01*
X104638523Y-62214137D01*
X104658972Y-62192840D01*
X104659269Y-62192167D01*
X104654879Y-62169129D01*
X104637476Y-62116843D01*
X104608868Y-62039610D01*
X104570865Y-61941732D01*
X104525274Y-61827509D01*
X104473903Y-61701242D01*
X104418562Y-61567233D01*
X104361058Y-61429782D01*
X104303201Y-61293192D01*
X104246798Y-61161763D01*
X104193658Y-61039795D01*
X104145590Y-60931591D01*
X104104401Y-60841451D01*
X104071901Y-60773677D01*
X104049897Y-60732570D01*
X104041036Y-60721774D01*
X104013960Y-60730181D01*
X103963297Y-60752728D01*
X103897783Y-60785387D01*
X103861759Y-60804480D01*
X103708768Y-60887200D01*
X103526512Y-60763925D01*
X103433475Y-60700772D01*
X103331615Y-60631273D01*
X103236162Y-60565835D01*
X103188350Y-60532883D01*
X103121105Y-60487727D01*
X103064164Y-60451943D01*
X103024954Y-60430062D01*
X103012219Y-60425437D01*
X102993683Y-60437915D01*
X102952659Y-60472748D01*
X102893125Y-60526322D01*
X102819058Y-60595017D01*
X102734435Y-60675219D01*
X102680915Y-60726714D01*
X102587281Y-60818714D01*
X102506359Y-60901001D01*
X102441423Y-60970055D01*
X102395742Y-61022356D01*
X102372589Y-61054384D01*
X102370368Y-61060884D01*
X102380676Y-61085606D01*
X102409161Y-61135595D01*
X102452663Y-61205788D01*
X102508023Y-61291125D01*
X102572080Y-61386544D01*
X102590297Y-61413146D01*
X102656673Y-61509833D01*
X102716222Y-61596883D01*
X102765616Y-61669405D01*
X102801525Y-61722507D01*
X102820619Y-61751297D01*
X102822464Y-61754274D01*
X102819705Y-61777218D01*
X102805062Y-61827664D01*
X102781087Y-61898959D01*
X102750334Y-61984453D01*
X102715356Y-62077493D01*
X102678707Y-62171426D01*
X102642939Y-62259601D01*
X102610606Y-62335366D01*
X102584262Y-62392069D01*
X102566458Y-62423057D01*
X102565193Y-62424543D01*
X102554306Y-62433399D01*
X102535918Y-62442157D01*
X102505994Y-62451723D01*
X102460497Y-62463004D01*
X102395391Y-62476907D01*
X102306639Y-62494337D01*
X102190207Y-62516202D01*
X102042058Y-62543409D01*
X102009982Y-62549259D01*
X101914914Y-62567626D01*
X101832035Y-62585595D01*
X101768670Y-62601431D01*
X101732142Y-62613400D01*
X101727244Y-62616190D01*
X101719173Y-62640928D01*
X101712613Y-62696210D01*
X101707567Y-62775611D01*
X101704041Y-62872704D01*
X101702039Y-62981062D01*
X101701564Y-63094260D01*
X101702623Y-63205872D01*
X101705218Y-63309471D01*
X101709354Y-63398632D01*
X101715037Y-63466928D01*
X101722269Y-63507934D01*
X101726629Y-63516326D01*
X101750902Y-63524792D01*
X101806174Y-63538565D01*
X101886938Y-63556450D01*
X101987688Y-63577252D01*
X102102917Y-63599777D01*
X102165698Y-63611582D01*
X102284813Y-63633849D01*
X102391035Y-63654021D01*
X102479173Y-63671085D01*
X102544034Y-63684031D01*
X102580426Y-63691845D01*
X102586416Y-63693578D01*
X102596539Y-63713110D01*
X102617938Y-63760157D01*
X102647761Y-63827997D01*
X102683155Y-63909909D01*
X102721268Y-63999172D01*
X102759247Y-64089065D01*
X102794240Y-64172865D01*
X102823394Y-64243853D01*
X102843857Y-64295306D01*
X102852777Y-64320503D01*
X102852943Y-64321604D01*
X102842831Y-64341481D01*
X102814483Y-64387223D01*
X102770877Y-64454283D01*
X102714994Y-64538116D01*
X102649813Y-64634174D01*
X102611921Y-64689350D01*
X102542875Y-64790519D01*
X102481550Y-64882370D01*
X102430937Y-64960256D01*
X102394029Y-65019531D01*
X102373818Y-65055549D01*
X102370899Y-65063623D01*
X102383447Y-65082416D01*
X102418137Y-65122543D01*
X102470537Y-65179507D01*
X102536216Y-65248815D01*
X102610744Y-65325969D01*
X102689687Y-65406475D01*
X102768617Y-65485837D01*
X102843100Y-65559560D01*
X102908706Y-65623148D01*
X102961004Y-65672106D01*
X102995561Y-65701939D01*
X103007122Y-65709058D01*
X103025946Y-65699047D01*
X103070969Y-65670922D01*
X103137813Y-65627546D01*
X103222101Y-65571782D01*
X103319456Y-65506494D01*
X103392893Y-65456754D01*
X103763933Y-65204449D01*
X104382505Y-65459445D01*
X104466325Y-65904069D01*
X104550146Y-66348693D01*
X105475594Y-66348693D01*
X105559414Y-65904069D01*
G37*
X105559414Y-65904069D02*
X105643235Y-65459445D01*
X105952520Y-65331947D01*
X106261806Y-65204449D01*
X106632846Y-65456754D01*
X106736757Y-65527004D01*
X106830687Y-65589728D01*
X106910252Y-65642062D01*
X106971070Y-65681143D01*
X107008757Y-65704107D01*
X107019021Y-65709058D01*
X107037510Y-65696324D01*
X107077020Y-65661118D01*
X107133122Y-65607938D01*
X107201387Y-65541282D01*
X107277386Y-65465646D01*
X107356692Y-65385528D01*
X107434875Y-65305426D01*
X107507507Y-65229836D01*
X107570159Y-65163255D01*
X107618403Y-65110182D01*
X107647810Y-65075113D01*
X107654841Y-65063377D01*
X107644723Y-65041740D01*
X107616359Y-64994338D01*
X107572729Y-64925807D01*
X107516818Y-64840785D01*
X107451606Y-64743907D01*
X107413819Y-64688650D01*
X107344943Y-64587752D01*
X107283740Y-64496701D01*
X107233178Y-64420030D01*
X107196228Y-64362272D01*
X107175858Y-64327957D01*
X107172797Y-64320746D01*
X107179736Y-64300252D01*
X107198651Y-64252487D01*
X107226687Y-64184168D01*
X107260991Y-64102011D01*
X107298709Y-64012730D01*
X107336987Y-63923042D01*
X107372970Y-63839662D01*
X107403806Y-63769306D01*
X107426639Y-63718690D01*
X107438617Y-63694529D01*
X107439324Y-63693578D01*
X107458131Y-63688964D01*
X107508218Y-63678672D01*
X107584393Y-63663713D01*
X107681465Y-63645099D01*
X107794243Y-63623841D01*
X107860042Y-63611582D01*
X107980550Y-63588638D01*
X108089397Y-63566805D01*
X108181076Y-63547278D01*
X108250081Y-63531252D01*
X108290904Y-63519921D01*
X108299111Y-63516326D01*
X108307148Y-63491994D01*
X108313633Y-63437041D01*
X108318570Y-63357892D01*
X108321964Y-63260974D01*
X108323818Y-63152713D01*
X108324138Y-63039535D01*
X108322927Y-62927865D01*
X108320190Y-62824132D01*
X108315931Y-62734759D01*
X108310155Y-62666174D01*
X108302867Y-62624803D01*
X108298495Y-62616190D01*
X108272364Y-62605867D01*
X108216993Y-62591108D01*
X108139707Y-62573648D01*
X108047830Y-62555220D01*
X108015758Y-62549259D01*
X107861124Y-62520934D01*
X107738975Y-62498124D01*
X107645273Y-62479920D01*
X107575984Y-62465417D01*
X107527071Y-62453708D01*
X107494497Y-62443885D01*
X107474228Y-62435044D01*
X107462226Y-62426276D01*
X107460547Y-62424543D01*
X107443784Y-62396629D01*
X107418214Y-62342305D01*
X107386388Y-62268223D01*
X107350860Y-62181035D01*
X107314183Y-62087392D01*
X107278911Y-61993948D01*
X107247596Y-61907353D01*
X107222793Y-61834260D01*
X107207054Y-61781322D01*
X107202932Y-61755189D01*
X107203276Y-61754274D01*
X107217241Y-61732914D01*
X107248922Y-61685916D01*
X107294991Y-61618173D01*
X107352118Y-61534577D01*
X107416973Y-61440018D01*
X107435443Y-61413146D01*
X107501299Y-61315725D01*
X107559250Y-61226837D01*
X107606138Y-61151588D01*
X107638807Y-61095080D01*
X107654100Y-61062419D01*
X107654841Y-61058407D01*
X107641992Y-61037316D01*
X107606488Y-60995536D01*
X107552893Y-60937555D01*
X107485771Y-60867865D01*
X107409687Y-60790955D01*
X107329204Y-60711317D01*
X107248887Y-60633439D01*
X107173299Y-60561814D01*
X107107005Y-60500930D01*
X107054569Y-60455279D01*
X107020555Y-60429350D01*
X107011145Y-60425117D01*
X106989243Y-60435088D01*
X106944400Y-60461980D01*
X106883921Y-60501264D01*
X106837389Y-60532883D01*
X106753075Y-60590902D01*
X106653226Y-60659216D01*
X106553073Y-60727421D01*
X106499227Y-60763925D01*
X106316971Y-60887200D01*
X106163981Y-60804480D01*
X106094282Y-60768241D01*
X106035014Y-60740074D01*
X105994911Y-60724009D01*
X105984703Y-60721774D01*
X105972429Y-60738278D01*
X105948213Y-60784918D01*
X105913863Y-60857391D01*
X105871188Y-60951394D01*
X105821994Y-61062626D01*
X105768090Y-61186785D01*
X105711284Y-61319568D01*
X105653382Y-61456673D01*
X105596193Y-61593798D01*
X105541524Y-61726642D01*
X105491184Y-61850902D01*
X105446980Y-61962275D01*
X105410719Y-62056461D01*
X105384209Y-62129156D01*
X105369258Y-62176059D01*
X105366854Y-62192167D01*
X105385911Y-62212714D01*
X105427636Y-62246067D01*
X105483306Y-62285298D01*
X105487978Y-62288401D01*
X105631864Y-62403577D01*
X105747883Y-62537947D01*
X105835030Y-62687216D01*
X105892299Y-62847087D01*
X105918686Y-63013263D01*
X105913185Y-63181448D01*
X105874790Y-63347345D01*
X105802495Y-63506658D01*
X105781226Y-63541513D01*
X105670596Y-63682263D01*
X105539902Y-63795286D01*
X105393664Y-63879997D01*
X105236408Y-63935806D01*
X105072657Y-63962126D01*
X104906933Y-63958370D01*
X104743762Y-63923950D01*
X104587665Y-63858277D01*
X104443167Y-63760765D01*
X104398469Y-63721187D01*
X104284712Y-63597297D01*
X104201818Y-63466876D01*
X104144956Y-63320685D01*
X104113287Y-63175912D01*
X104105469Y-63013140D01*
X104131538Y-62849560D01*
X104188845Y-62690702D01*
X104274744Y-62542094D01*
X104386586Y-62409265D01*
X104521723Y-62297744D01*
X104539483Y-62285989D01*
X104595750Y-62247492D01*
X104638523Y-62214137D01*
X104658972Y-62192840D01*
X104659269Y-62192167D01*
X104654879Y-62169129D01*
X104637476Y-62116843D01*
X104608868Y-62039610D01*
X104570865Y-61941732D01*
X104525274Y-61827509D01*
X104473903Y-61701242D01*
X104418562Y-61567233D01*
X104361058Y-61429782D01*
X104303201Y-61293192D01*
X104246798Y-61161763D01*
X104193658Y-61039795D01*
X104145590Y-60931591D01*
X104104401Y-60841451D01*
X104071901Y-60773677D01*
X104049897Y-60732570D01*
X104041036Y-60721774D01*
X104013960Y-60730181D01*
X103963297Y-60752728D01*
X103897783Y-60785387D01*
X103861759Y-60804480D01*
X103708768Y-60887200D01*
X103526512Y-60763925D01*
X103433475Y-60700772D01*
X103331615Y-60631273D01*
X103236162Y-60565835D01*
X103188350Y-60532883D01*
X103121105Y-60487727D01*
X103064164Y-60451943D01*
X103024954Y-60430062D01*
X103012219Y-60425437D01*
X102993683Y-60437915D01*
X102952659Y-60472748D01*
X102893125Y-60526322D01*
X102819058Y-60595017D01*
X102734435Y-60675219D01*
X102680915Y-60726714D01*
X102587281Y-60818714D01*
X102506359Y-60901001D01*
X102441423Y-60970055D01*
X102395742Y-61022356D01*
X102372589Y-61054384D01*
X102370368Y-61060884D01*
X102380676Y-61085606D01*
X102409161Y-61135595D01*
X102452663Y-61205788D01*
X102508023Y-61291125D01*
X102572080Y-61386544D01*
X102590297Y-61413146D01*
X102656673Y-61509833D01*
X102716222Y-61596883D01*
X102765616Y-61669405D01*
X102801525Y-61722507D01*
X102820619Y-61751297D01*
X102822464Y-61754274D01*
X102819705Y-61777218D01*
X102805062Y-61827664D01*
X102781087Y-61898959D01*
X102750334Y-61984453D01*
X102715356Y-62077493D01*
X102678707Y-62171426D01*
X102642939Y-62259601D01*
X102610606Y-62335366D01*
X102584262Y-62392069D01*
X102566458Y-62423057D01*
X102565193Y-62424543D01*
X102554306Y-62433399D01*
X102535918Y-62442157D01*
X102505994Y-62451723D01*
X102460497Y-62463004D01*
X102395391Y-62476907D01*
X102306639Y-62494337D01*
X102190207Y-62516202D01*
X102042058Y-62543409D01*
X102009982Y-62549259D01*
X101914914Y-62567626D01*
X101832035Y-62585595D01*
X101768670Y-62601431D01*
X101732142Y-62613400D01*
X101727244Y-62616190D01*
X101719173Y-62640928D01*
X101712613Y-62696210D01*
X101707567Y-62775611D01*
X101704041Y-62872704D01*
X101702039Y-62981062D01*
X101701564Y-63094260D01*
X101702623Y-63205872D01*
X101705218Y-63309471D01*
X101709354Y-63398632D01*
X101715037Y-63466928D01*
X101722269Y-63507934D01*
X101726629Y-63516326D01*
X101750902Y-63524792D01*
X101806174Y-63538565D01*
X101886938Y-63556450D01*
X101987688Y-63577252D01*
X102102917Y-63599777D01*
X102165698Y-63611582D01*
X102284813Y-63633849D01*
X102391035Y-63654021D01*
X102479173Y-63671085D01*
X102544034Y-63684031D01*
X102580426Y-63691845D01*
X102586416Y-63693578D01*
X102596539Y-63713110D01*
X102617938Y-63760157D01*
X102647761Y-63827997D01*
X102683155Y-63909909D01*
X102721268Y-63999172D01*
X102759247Y-64089065D01*
X102794240Y-64172865D01*
X102823394Y-64243853D01*
X102843857Y-64295306D01*
X102852777Y-64320503D01*
X102852943Y-64321604D01*
X102842831Y-64341481D01*
X102814483Y-64387223D01*
X102770877Y-64454283D01*
X102714994Y-64538116D01*
X102649813Y-64634174D01*
X102611921Y-64689350D01*
X102542875Y-64790519D01*
X102481550Y-64882370D01*
X102430937Y-64960256D01*
X102394029Y-65019531D01*
X102373818Y-65055549D01*
X102370899Y-65063623D01*
X102383447Y-65082416D01*
X102418137Y-65122543D01*
X102470537Y-65179507D01*
X102536216Y-65248815D01*
X102610744Y-65325969D01*
X102689687Y-65406475D01*
X102768617Y-65485837D01*
X102843100Y-65559560D01*
X102908706Y-65623148D01*
X102961004Y-65672106D01*
X102995561Y-65701939D01*
X103007122Y-65709058D01*
X103025946Y-65699047D01*
X103070969Y-65670922D01*
X103137813Y-65627546D01*
X103222101Y-65571782D01*
X103319456Y-65506494D01*
X103392893Y-65456754D01*
X103763933Y-65204449D01*
X104382505Y-65459445D01*
X104466325Y-65904069D01*
X104550146Y-66348693D01*
X105475594Y-66348693D01*
X105559414Y-65904069D01*
M02*
