M48
; DRILL file {KiCad 5.1.5-52549c5~86~ubuntu18.04.1} date dom 06 sep 2020 14:29:17 -05
; FORMAT={-:-/ absolute / metric / decimal}
; #@! TF.CreationDate,2020-09-06T14:29:17-05:00
; #@! TF.GenerationSoftware,Kicad,Pcbnew,5.1.5-52549c5~86~ubuntu18.04.1
; #@! TF.FileFunction,NonPlated,1,2,NPTH
FMAT,2
METRIC
T1C3.000
%
G90
G05
T1
X126.731Y-74.026
X164.831Y-84.186
X126.731Y-91.806
X134.351Y-145.146
X164.831Y-74.026
X134.351Y-74.026
X96.251Y-155.306
X164.831Y-127.366
X134.351Y-119.746
X96.251Y-84.186
X96.251Y-101.966
X126.731Y-155.306
X134.351Y-91.806
X164.831Y-119.746
X126.731Y-101.966
X134.351Y-109.586
X134.351Y-127.366
X134.351Y-155.306
X126.731Y-145.146
X96.251Y-137.526
X134.351Y-101.966
X164.831Y-155.306
X126.731Y-137.526
X164.831Y-101.966
X164.831Y-91.806
X164.831Y-109.586
X96.251Y-91.806
X126.731Y-84.186
X96.251Y-145.146
X96.251Y-109.586
X164.831Y-145.146
X134.351Y-137.526
X126.731Y-127.366
X96.251Y-74.026
X96.251Y-119.746
X126.731Y-109.586
X134.351Y-84.186
X96.251Y-127.366
X164.831Y-137.526
X126.731Y-119.746
T0
M30
