G04 #@! TF.GenerationSoftware,KiCad,Pcbnew,5.1.5-52549c5~86~ubuntu18.04.1*
G04 #@! TF.CreationDate,2020-11-03T13:42:11-05:00*
G04 #@! TF.ProjectId,D06,4430362e-6b69-4636-9164-5f7063625858,rev?*
G04 #@! TF.SameCoordinates,Original*
G04 #@! TF.FileFunction,Soldermask,Top*
G04 #@! TF.FilePolarity,Negative*
%FSLAX46Y46*%
G04 Gerber Fmt 4.6, Leading zero omitted, Abs format (unit mm)*
G04 Created by KiCad (PCBNEW 5.1.5-52549c5~86~ubuntu18.04.1) date 2020-11-03 13:42:11*
%MOMM*%
%LPD*%
G04 APERTURE LIST*
%ADD10C,0.100000*%
G04 APERTURE END LIST*
D10*
G36*
X24112585Y-32448802D02*
G01*
X24262410Y-32478604D01*
X24544674Y-32595521D01*
X24798705Y-32765259D01*
X25014741Y-32981295D01*
X25184479Y-33235326D01*
X25301396Y-33517590D01*
X25361000Y-33817240D01*
X25361000Y-34122760D01*
X25301396Y-34422410D01*
X25184479Y-34704674D01*
X25014741Y-34958705D01*
X24798705Y-35174741D01*
X24544674Y-35344479D01*
X24262410Y-35461396D01*
X24112585Y-35491198D01*
X23962761Y-35521000D01*
X23657239Y-35521000D01*
X23507415Y-35491198D01*
X23357590Y-35461396D01*
X23075326Y-35344479D01*
X22821295Y-35174741D01*
X22605259Y-34958705D01*
X22435521Y-34704674D01*
X22318604Y-34422410D01*
X22259000Y-34122760D01*
X22259000Y-33817240D01*
X22318604Y-33517590D01*
X22435521Y-33235326D01*
X22605259Y-32981295D01*
X22821295Y-32765259D01*
X23075326Y-32595521D01*
X23357590Y-32478604D01*
X23507415Y-32448802D01*
X23657239Y-32419000D01*
X23962761Y-32419000D01*
X24112585Y-32448802D01*
G37*
G36*
X34272585Y-32448802D02*
G01*
X34422410Y-32478604D01*
X34704674Y-32595521D01*
X34958705Y-32765259D01*
X35174741Y-32981295D01*
X35344479Y-33235326D01*
X35461396Y-33517590D01*
X35521000Y-33817240D01*
X35521000Y-34122760D01*
X35461396Y-34422410D01*
X35344479Y-34704674D01*
X35174741Y-34958705D01*
X34958705Y-35174741D01*
X34704674Y-35344479D01*
X34422410Y-35461396D01*
X34272585Y-35491198D01*
X34122761Y-35521000D01*
X33817239Y-35521000D01*
X33667415Y-35491198D01*
X33517590Y-35461396D01*
X33235326Y-35344479D01*
X32981295Y-35174741D01*
X32765259Y-34958705D01*
X32595521Y-34704674D01*
X32478604Y-34422410D01*
X32419000Y-34122760D01*
X32419000Y-33817240D01*
X32478604Y-33517590D01*
X32595521Y-33235326D01*
X32765259Y-32981295D01*
X32981295Y-32765259D01*
X33235326Y-32595521D01*
X33517590Y-32478604D01*
X33667415Y-32448802D01*
X33817239Y-32419000D01*
X34122761Y-32419000D01*
X34272585Y-32448802D01*
G37*
G36*
X31004903Y-32574075D02*
G01*
X31232571Y-32668378D01*
X31437466Y-32805285D01*
X31611715Y-32979534D01*
X31748622Y-33184429D01*
X31842925Y-33412097D01*
X31891000Y-33653787D01*
X31891000Y-33900213D01*
X31842925Y-34141903D01*
X31748622Y-34369571D01*
X31611715Y-34574466D01*
X31437466Y-34748715D01*
X31232571Y-34885622D01*
X31232570Y-34885623D01*
X31232569Y-34885623D01*
X31004903Y-34979925D01*
X30763214Y-35028000D01*
X30516786Y-35028000D01*
X30275097Y-34979925D01*
X30047431Y-34885623D01*
X30047430Y-34885623D01*
X30047429Y-34885622D01*
X29842534Y-34748715D01*
X29668285Y-34574466D01*
X29531378Y-34369571D01*
X29437075Y-34141903D01*
X29389000Y-33900213D01*
X29389000Y-33653787D01*
X29437075Y-33412097D01*
X29531378Y-33184429D01*
X29668285Y-32979534D01*
X29842534Y-32805285D01*
X30047429Y-32668378D01*
X30275097Y-32574075D01*
X30516786Y-32526000D01*
X30763214Y-32526000D01*
X31004903Y-32574075D01*
G37*
G36*
X28391000Y-35028000D02*
G01*
X25889000Y-35028000D01*
X25889000Y-32526000D01*
X28391000Y-32526000D01*
X28391000Y-35028000D01*
G37*
G36*
X21460474Y-28971465D02*
G01*
X21498167Y-28982899D01*
X21532903Y-29001466D01*
X21563348Y-29026452D01*
X21588334Y-29056897D01*
X21606901Y-29091633D01*
X21618335Y-29129326D01*
X21622800Y-29174661D01*
X21622800Y-30261339D01*
X21618335Y-30306674D01*
X21606901Y-30344367D01*
X21588334Y-30379103D01*
X21563348Y-30409548D01*
X21532903Y-30434534D01*
X21498167Y-30453101D01*
X21460474Y-30464535D01*
X21415139Y-30469000D01*
X20578461Y-30469000D01*
X20533126Y-30464535D01*
X20495433Y-30453101D01*
X20460697Y-30434534D01*
X20430252Y-30409548D01*
X20405266Y-30379103D01*
X20386699Y-30344367D01*
X20375265Y-30306674D01*
X20370800Y-30261339D01*
X20370800Y-29174661D01*
X20375265Y-29129326D01*
X20386699Y-29091633D01*
X20405266Y-29056897D01*
X20430252Y-29026452D01*
X20460697Y-29001466D01*
X20495433Y-28982899D01*
X20533126Y-28971465D01*
X20578461Y-28967000D01*
X21415139Y-28967000D01*
X21460474Y-28971465D01*
G37*
G36*
X23510474Y-28971465D02*
G01*
X23548167Y-28982899D01*
X23582903Y-29001466D01*
X23613348Y-29026452D01*
X23638334Y-29056897D01*
X23656901Y-29091633D01*
X23668335Y-29129326D01*
X23672800Y-29174661D01*
X23672800Y-30261339D01*
X23668335Y-30306674D01*
X23656901Y-30344367D01*
X23638334Y-30379103D01*
X23613348Y-30409548D01*
X23582903Y-30434534D01*
X23548167Y-30453101D01*
X23510474Y-30464535D01*
X23465139Y-30469000D01*
X22628461Y-30469000D01*
X22583126Y-30464535D01*
X22545433Y-30453101D01*
X22510697Y-30434534D01*
X22480252Y-30409548D01*
X22455266Y-30379103D01*
X22436699Y-30344367D01*
X22425265Y-30306674D01*
X22420800Y-30261339D01*
X22420800Y-29174661D01*
X22425265Y-29129326D01*
X22436699Y-29091633D01*
X22455266Y-29056897D01*
X22480252Y-29026452D01*
X22510697Y-29001466D01*
X22545433Y-28982899D01*
X22583126Y-28971465D01*
X22628461Y-28967000D01*
X23465139Y-28967000D01*
X23510474Y-28971465D01*
G37*
G36*
X37113400Y-30431600D02*
G01*
X36211400Y-30431600D01*
X36211400Y-29429600D01*
X37113400Y-29429600D01*
X37113400Y-30431600D01*
G37*
G36*
X35213400Y-30431600D02*
G01*
X34311400Y-30431600D01*
X34311400Y-29429600D01*
X35213400Y-29429600D01*
X35213400Y-30431600D01*
G37*
G36*
X36163400Y-28431600D02*
G01*
X35261400Y-28431600D01*
X35261400Y-27429600D01*
X36163400Y-27429600D01*
X36163400Y-28431600D01*
G37*
G36*
X21469474Y-26837865D02*
G01*
X21507167Y-26849299D01*
X21541903Y-26867866D01*
X21572348Y-26892852D01*
X21597334Y-26923297D01*
X21615901Y-26958033D01*
X21627335Y-26995726D01*
X21631800Y-27041061D01*
X21631800Y-28127739D01*
X21627335Y-28173074D01*
X21615901Y-28210767D01*
X21597334Y-28245503D01*
X21572348Y-28275948D01*
X21541903Y-28300934D01*
X21507167Y-28319501D01*
X21469474Y-28330935D01*
X21424139Y-28335400D01*
X20587461Y-28335400D01*
X20542126Y-28330935D01*
X20504433Y-28319501D01*
X20469697Y-28300934D01*
X20439252Y-28275948D01*
X20414266Y-28245503D01*
X20395699Y-28210767D01*
X20384265Y-28173074D01*
X20379800Y-28127739D01*
X20379800Y-27041061D01*
X20384265Y-26995726D01*
X20395699Y-26958033D01*
X20414266Y-26923297D01*
X20439252Y-26892852D01*
X20469697Y-26867866D01*
X20504433Y-26849299D01*
X20542126Y-26837865D01*
X20587461Y-26833400D01*
X21424139Y-26833400D01*
X21469474Y-26837865D01*
G37*
G36*
X23519474Y-26837865D02*
G01*
X23557167Y-26849299D01*
X23591903Y-26867866D01*
X23622348Y-26892852D01*
X23647334Y-26923297D01*
X23665901Y-26958033D01*
X23677335Y-26995726D01*
X23681800Y-27041061D01*
X23681800Y-28127739D01*
X23677335Y-28173074D01*
X23665901Y-28210767D01*
X23647334Y-28245503D01*
X23622348Y-28275948D01*
X23591903Y-28300934D01*
X23557167Y-28319501D01*
X23519474Y-28330935D01*
X23474139Y-28335400D01*
X22637461Y-28335400D01*
X22592126Y-28330935D01*
X22554433Y-28319501D01*
X22519697Y-28300934D01*
X22489252Y-28275948D01*
X22464266Y-28245503D01*
X22445699Y-28210767D01*
X22434265Y-28173074D01*
X22429800Y-28127739D01*
X22429800Y-27041061D01*
X22434265Y-26995726D01*
X22445699Y-26958033D01*
X22464266Y-26923297D01*
X22489252Y-26892852D01*
X22519697Y-26867866D01*
X22554433Y-26849299D01*
X22592126Y-26837865D01*
X22637461Y-26833400D01*
X23474139Y-26833400D01*
X23519474Y-26837865D01*
G37*
G36*
X24112585Y-22288802D02*
G01*
X24262410Y-22318604D01*
X24544674Y-22435521D01*
X24798705Y-22605259D01*
X25014741Y-22821295D01*
X25184479Y-23075326D01*
X25301396Y-23357590D01*
X25361000Y-23657240D01*
X25361000Y-23962760D01*
X25301396Y-24262410D01*
X25184479Y-24544674D01*
X25014741Y-24798705D01*
X24798705Y-25014741D01*
X24544674Y-25184479D01*
X24262410Y-25301396D01*
X24112585Y-25331198D01*
X23962761Y-25361000D01*
X23657239Y-25361000D01*
X23507415Y-25331198D01*
X23357590Y-25301396D01*
X23075326Y-25184479D01*
X22821295Y-25014741D01*
X22605259Y-24798705D01*
X22435521Y-24544674D01*
X22318604Y-24262410D01*
X22259000Y-23962760D01*
X22259000Y-23657240D01*
X22318604Y-23357590D01*
X22435521Y-23075326D01*
X22605259Y-22821295D01*
X22821295Y-22605259D01*
X23075326Y-22435521D01*
X23357590Y-22318604D01*
X23507415Y-22288802D01*
X23657239Y-22259000D01*
X23962761Y-22259000D01*
X24112585Y-22288802D01*
G37*
G36*
X34272585Y-22288802D02*
G01*
X34422410Y-22318604D01*
X34704674Y-22435521D01*
X34958705Y-22605259D01*
X35174741Y-22821295D01*
X35344479Y-23075326D01*
X35461396Y-23357590D01*
X35521000Y-23657240D01*
X35521000Y-23962760D01*
X35461396Y-24262410D01*
X35344479Y-24544674D01*
X35174741Y-24798705D01*
X34958705Y-25014741D01*
X34704674Y-25184479D01*
X34422410Y-25301396D01*
X34272585Y-25331198D01*
X34122761Y-25361000D01*
X33817239Y-25361000D01*
X33667415Y-25331198D01*
X33517590Y-25301396D01*
X33235326Y-25184479D01*
X32981295Y-25014741D01*
X32765259Y-24798705D01*
X32595521Y-24544674D01*
X32478604Y-24262410D01*
X32419000Y-23962760D01*
X32419000Y-23657240D01*
X32478604Y-23357590D01*
X32595521Y-23075326D01*
X32765259Y-22821295D01*
X32981295Y-22605259D01*
X33235326Y-22435521D01*
X33517590Y-22318604D01*
X33667415Y-22288802D01*
X33817239Y-22259000D01*
X34122761Y-22259000D01*
X34272585Y-22288802D01*
G37*
G36*
X31891000Y-25254000D02*
G01*
X29389000Y-25254000D01*
X29389000Y-22752000D01*
X31891000Y-22752000D01*
X31891000Y-25254000D01*
G37*
G36*
X27504903Y-22800075D02*
G01*
X27732571Y-22894378D01*
X27937466Y-23031285D01*
X28111715Y-23205534D01*
X28248622Y-23410429D01*
X28342925Y-23638097D01*
X28391000Y-23879787D01*
X28391000Y-24126213D01*
X28342925Y-24367903D01*
X28248622Y-24595571D01*
X28111715Y-24800466D01*
X27937466Y-24974715D01*
X27732571Y-25111622D01*
X27732570Y-25111623D01*
X27732569Y-25111623D01*
X27504903Y-25205925D01*
X27263214Y-25254000D01*
X27016786Y-25254000D01*
X26775097Y-25205925D01*
X26547431Y-25111623D01*
X26547430Y-25111623D01*
X26547429Y-25111622D01*
X26342534Y-24974715D01*
X26168285Y-24800466D01*
X26031378Y-24595571D01*
X25937075Y-24367903D01*
X25889000Y-24126213D01*
X25889000Y-23879787D01*
X25937075Y-23638097D01*
X26031378Y-23410429D01*
X26168285Y-23205534D01*
X26342534Y-23031285D01*
X26547429Y-22894378D01*
X26775097Y-22800075D01*
X27016786Y-22752000D01*
X27263214Y-22752000D01*
X27504903Y-22800075D01*
G37*
M02*
