G04 #@! TF.GenerationSoftware,KiCad,Pcbnew,5.1.5-52549c5~86~ubuntu18.04.1*
G04 #@! TF.CreationDate,2020-10-13T14:05:38-05:00*
G04 #@! TF.ProjectId,C10,4331302e-6b69-4636-9164-5f7063625858,rev?*
G04 #@! TF.SameCoordinates,Original*
G04 #@! TF.FileFunction,Soldermask,Bot*
G04 #@! TF.FilePolarity,Negative*
%FSLAX46Y46*%
G04 Gerber Fmt 4.6, Leading zero omitted, Abs format (unit mm)*
G04 Created by KiCad (PCBNEW 5.1.5-52549c5~86~ubuntu18.04.1) date 2020-10-13 14:05:38*
%MOMM*%
%LPD*%
G04 APERTURE LIST*
%ADD10C,0.100000*%
G04 APERTURE END LIST*
D10*
G36*
X24112585Y-42608802D02*
G01*
X24262410Y-42638604D01*
X24544674Y-42755521D01*
X24798705Y-42925259D01*
X25014741Y-43141295D01*
X25184479Y-43395326D01*
X25301396Y-43677590D01*
X25361000Y-43977240D01*
X25361000Y-44282760D01*
X25301396Y-44582410D01*
X25184479Y-44864674D01*
X25014741Y-45118705D01*
X24798705Y-45334741D01*
X24544674Y-45504479D01*
X24262410Y-45621396D01*
X24112585Y-45651198D01*
X23962761Y-45681000D01*
X23657239Y-45681000D01*
X23507415Y-45651198D01*
X23357590Y-45621396D01*
X23075326Y-45504479D01*
X22821295Y-45334741D01*
X22605259Y-45118705D01*
X22435521Y-44864674D01*
X22318604Y-44582410D01*
X22259000Y-44282760D01*
X22259000Y-43977240D01*
X22318604Y-43677590D01*
X22435521Y-43395326D01*
X22605259Y-43141295D01*
X22821295Y-42925259D01*
X23075326Y-42755521D01*
X23357590Y-42638604D01*
X23507415Y-42608802D01*
X23657239Y-42579000D01*
X23962761Y-42579000D01*
X24112585Y-42608802D01*
G37*
G36*
X44432585Y-42608802D02*
G01*
X44582410Y-42638604D01*
X44864674Y-42755521D01*
X45118705Y-42925259D01*
X45334741Y-43141295D01*
X45504479Y-43395326D01*
X45621396Y-43677590D01*
X45681000Y-43977240D01*
X45681000Y-44282760D01*
X45621396Y-44582410D01*
X45504479Y-44864674D01*
X45334741Y-45118705D01*
X45118705Y-45334741D01*
X44864674Y-45504479D01*
X44582410Y-45621396D01*
X44432585Y-45651198D01*
X44282761Y-45681000D01*
X43977239Y-45681000D01*
X43827415Y-45651198D01*
X43677590Y-45621396D01*
X43395326Y-45504479D01*
X43141295Y-45334741D01*
X42925259Y-45118705D01*
X42755521Y-44864674D01*
X42638604Y-44582410D01*
X42579000Y-44282760D01*
X42579000Y-43977240D01*
X42638604Y-43677590D01*
X42755521Y-43395326D01*
X42925259Y-43141295D01*
X43141295Y-42925259D01*
X43395326Y-42755521D01*
X43677590Y-42638604D01*
X43827415Y-42608802D01*
X43977239Y-42579000D01*
X44282761Y-42579000D01*
X44432585Y-42608802D01*
G37*
G36*
X39584903Y-42662875D02*
G01*
X39812571Y-42757178D01*
X40017466Y-42894085D01*
X40191715Y-43068334D01*
X40328622Y-43273229D01*
X40422925Y-43500897D01*
X40471000Y-43742587D01*
X40471000Y-43989013D01*
X40422925Y-44230703D01*
X40328622Y-44458371D01*
X40191715Y-44663266D01*
X40017466Y-44837515D01*
X39812571Y-44974422D01*
X39812570Y-44974423D01*
X39812569Y-44974423D01*
X39584903Y-45068725D01*
X39343214Y-45116800D01*
X39096786Y-45116800D01*
X38855097Y-45068725D01*
X38627431Y-44974423D01*
X38627430Y-44974423D01*
X38627429Y-44974422D01*
X38422534Y-44837515D01*
X38248285Y-44663266D01*
X38111378Y-44458371D01*
X38017075Y-44230703D01*
X37969000Y-43989013D01*
X37969000Y-43742587D01*
X38017075Y-43500897D01*
X38111378Y-43273229D01*
X38248285Y-43068334D01*
X38422534Y-42894085D01*
X38627429Y-42757178D01*
X38855097Y-42662875D01*
X39096786Y-42614800D01*
X39343214Y-42614800D01*
X39584903Y-42662875D01*
G37*
G36*
X29084903Y-42662875D02*
G01*
X29312571Y-42757178D01*
X29517466Y-42894085D01*
X29691715Y-43068334D01*
X29828622Y-43273229D01*
X29922925Y-43500897D01*
X29971000Y-43742587D01*
X29971000Y-43989013D01*
X29922925Y-44230703D01*
X29828622Y-44458371D01*
X29691715Y-44663266D01*
X29517466Y-44837515D01*
X29312571Y-44974422D01*
X29312570Y-44974423D01*
X29312569Y-44974423D01*
X29084903Y-45068725D01*
X28843214Y-45116800D01*
X28596786Y-45116800D01*
X28355097Y-45068725D01*
X28127431Y-44974423D01*
X28127430Y-44974423D01*
X28127429Y-44974422D01*
X27922534Y-44837515D01*
X27748285Y-44663266D01*
X27611378Y-44458371D01*
X27517075Y-44230703D01*
X27469000Y-43989013D01*
X27469000Y-43742587D01*
X27517075Y-43500897D01*
X27611378Y-43273229D01*
X27748285Y-43068334D01*
X27922534Y-42894085D01*
X28127429Y-42757178D01*
X28355097Y-42662875D01*
X28596786Y-42614800D01*
X28843214Y-42614800D01*
X29084903Y-42662875D01*
G37*
G36*
X32584903Y-42662875D02*
G01*
X32812571Y-42757178D01*
X33017466Y-42894085D01*
X33191715Y-43068334D01*
X33328622Y-43273229D01*
X33422925Y-43500897D01*
X33471000Y-43742587D01*
X33471000Y-43989013D01*
X33422925Y-44230703D01*
X33328622Y-44458371D01*
X33191715Y-44663266D01*
X33017466Y-44837515D01*
X32812571Y-44974422D01*
X32812570Y-44974423D01*
X32812569Y-44974423D01*
X32584903Y-45068725D01*
X32343214Y-45116800D01*
X32096786Y-45116800D01*
X31855097Y-45068725D01*
X31627431Y-44974423D01*
X31627430Y-44974423D01*
X31627429Y-44974422D01*
X31422534Y-44837515D01*
X31248285Y-44663266D01*
X31111378Y-44458371D01*
X31017075Y-44230703D01*
X30969000Y-43989013D01*
X30969000Y-43742587D01*
X31017075Y-43500897D01*
X31111378Y-43273229D01*
X31248285Y-43068334D01*
X31422534Y-42894085D01*
X31627429Y-42757178D01*
X31855097Y-42662875D01*
X32096786Y-42614800D01*
X32343214Y-42614800D01*
X32584903Y-42662875D01*
G37*
G36*
X36084903Y-42662875D02*
G01*
X36312571Y-42757178D01*
X36517466Y-42894085D01*
X36691715Y-43068334D01*
X36828622Y-43273229D01*
X36922925Y-43500897D01*
X36971000Y-43742587D01*
X36971000Y-43989013D01*
X36922925Y-44230703D01*
X36828622Y-44458371D01*
X36691715Y-44663266D01*
X36517466Y-44837515D01*
X36312571Y-44974422D01*
X36312570Y-44974423D01*
X36312569Y-44974423D01*
X36084903Y-45068725D01*
X35843214Y-45116800D01*
X35596786Y-45116800D01*
X35355097Y-45068725D01*
X35127431Y-44974423D01*
X35127430Y-44974423D01*
X35127429Y-44974422D01*
X34922534Y-44837515D01*
X34748285Y-44663266D01*
X34611378Y-44458371D01*
X34517075Y-44230703D01*
X34469000Y-43989013D01*
X34469000Y-43742587D01*
X34517075Y-43500897D01*
X34611378Y-43273229D01*
X34748285Y-43068334D01*
X34922534Y-42894085D01*
X35127429Y-42757178D01*
X35355097Y-42662875D01*
X35596786Y-42614800D01*
X35843214Y-42614800D01*
X36084903Y-42662875D01*
G37*
G36*
X44509393Y-37799304D02*
G01*
X44746101Y-37897352D01*
X44746103Y-37897353D01*
X44959135Y-38039696D01*
X45140304Y-38220865D01*
X45282647Y-38433897D01*
X45282648Y-38433899D01*
X45380696Y-38670607D01*
X45430680Y-38921893D01*
X45430680Y-39178107D01*
X45380696Y-39429393D01*
X45282648Y-39666101D01*
X45282647Y-39666103D01*
X45140304Y-39879135D01*
X44959135Y-40060304D01*
X44746103Y-40202647D01*
X44746102Y-40202648D01*
X44746101Y-40202648D01*
X44509393Y-40300696D01*
X44258107Y-40350680D01*
X44001893Y-40350680D01*
X43750607Y-40300696D01*
X43513899Y-40202648D01*
X43513898Y-40202648D01*
X43513897Y-40202647D01*
X43300865Y-40060304D01*
X43119696Y-39879135D01*
X42977353Y-39666103D01*
X42977352Y-39666101D01*
X42879304Y-39429393D01*
X42829320Y-39178107D01*
X42829320Y-38921893D01*
X42879304Y-38670607D01*
X42977352Y-38433899D01*
X42977353Y-38433897D01*
X43119696Y-38220865D01*
X43300865Y-38039696D01*
X43513897Y-37897353D01*
X43513899Y-37897352D01*
X43750607Y-37799304D01*
X44001893Y-37749320D01*
X44258107Y-37749320D01*
X44509393Y-37799304D01*
G37*
G36*
X24112585Y-32448802D02*
G01*
X24262410Y-32478604D01*
X24544674Y-32595521D01*
X24798705Y-32765259D01*
X25014741Y-32981295D01*
X25184479Y-33235326D01*
X25301396Y-33517590D01*
X25361000Y-33817240D01*
X25361000Y-34122760D01*
X25301396Y-34422410D01*
X25184479Y-34704674D01*
X25014741Y-34958705D01*
X24798705Y-35174741D01*
X24544674Y-35344479D01*
X24262410Y-35461396D01*
X24112585Y-35491198D01*
X23962761Y-35521000D01*
X23657239Y-35521000D01*
X23507415Y-35491198D01*
X23357590Y-35461396D01*
X23075326Y-35344479D01*
X22821295Y-35174741D01*
X22605259Y-34958705D01*
X22435521Y-34704674D01*
X22318604Y-34422410D01*
X22259000Y-34122760D01*
X22259000Y-33817240D01*
X22318604Y-33517590D01*
X22435521Y-33235326D01*
X22605259Y-32981295D01*
X22821295Y-32765259D01*
X23075326Y-32595521D01*
X23357590Y-32478604D01*
X23507415Y-32448802D01*
X23657239Y-32419000D01*
X23962761Y-32419000D01*
X24112585Y-32448802D01*
G37*
G36*
X44432585Y-32448802D02*
G01*
X44582410Y-32478604D01*
X44864674Y-32595521D01*
X45118705Y-32765259D01*
X45334741Y-32981295D01*
X45504479Y-33235326D01*
X45621396Y-33517590D01*
X45681000Y-33817240D01*
X45681000Y-34122760D01*
X45621396Y-34422410D01*
X45504479Y-34704674D01*
X45334741Y-34958705D01*
X45118705Y-35174741D01*
X44864674Y-35344479D01*
X44582410Y-35461396D01*
X44432585Y-35491198D01*
X44282761Y-35521000D01*
X43977239Y-35521000D01*
X43827415Y-35491198D01*
X43677590Y-35461396D01*
X43395326Y-35344479D01*
X43141295Y-35174741D01*
X42925259Y-34958705D01*
X42755521Y-34704674D01*
X42638604Y-34422410D01*
X42579000Y-34122760D01*
X42579000Y-33817240D01*
X42638604Y-33517590D01*
X42755521Y-33235326D01*
X42925259Y-32981295D01*
X43141295Y-32765259D01*
X43395326Y-32595521D01*
X43677590Y-32478604D01*
X43827415Y-32448802D01*
X43977239Y-32419000D01*
X44282761Y-32419000D01*
X44432585Y-32448802D01*
G37*
G36*
X24189393Y-27639304D02*
G01*
X24426101Y-27737352D01*
X24426103Y-27737353D01*
X24639135Y-27879696D01*
X24820304Y-28060865D01*
X24962647Y-28273897D01*
X24962648Y-28273899D01*
X25060696Y-28510607D01*
X25110680Y-28761893D01*
X25110680Y-29018107D01*
X25060696Y-29269393D01*
X24962648Y-29506101D01*
X24962647Y-29506103D01*
X24820304Y-29719135D01*
X24639135Y-29900304D01*
X24426103Y-30042647D01*
X24426102Y-30042648D01*
X24426101Y-30042648D01*
X24189393Y-30140696D01*
X23938107Y-30190680D01*
X23681893Y-30190680D01*
X23430607Y-30140696D01*
X23193899Y-30042648D01*
X23193898Y-30042648D01*
X23193897Y-30042647D01*
X22980865Y-29900304D01*
X22799696Y-29719135D01*
X22657353Y-29506103D01*
X22657352Y-29506101D01*
X22559304Y-29269393D01*
X22509320Y-29018107D01*
X22509320Y-28761893D01*
X22559304Y-28510607D01*
X22657352Y-28273899D01*
X22657353Y-28273897D01*
X22799696Y-28060865D01*
X22980865Y-27879696D01*
X23193897Y-27737353D01*
X23193899Y-27737352D01*
X23430607Y-27639304D01*
X23681893Y-27589320D01*
X23938107Y-27589320D01*
X24189393Y-27639304D01*
G37*
G36*
X24112585Y-22288802D02*
G01*
X24262410Y-22318604D01*
X24544674Y-22435521D01*
X24798705Y-22605259D01*
X25014741Y-22821295D01*
X25184479Y-23075326D01*
X25301396Y-23357590D01*
X25361000Y-23657240D01*
X25361000Y-23962760D01*
X25301396Y-24262410D01*
X25184479Y-24544674D01*
X25014741Y-24798705D01*
X24798705Y-25014741D01*
X24544674Y-25184479D01*
X24262410Y-25301396D01*
X24112585Y-25331198D01*
X23962761Y-25361000D01*
X23657239Y-25361000D01*
X23507415Y-25331198D01*
X23357590Y-25301396D01*
X23075326Y-25184479D01*
X22821295Y-25014741D01*
X22605259Y-24798705D01*
X22435521Y-24544674D01*
X22318604Y-24262410D01*
X22259000Y-23962760D01*
X22259000Y-23657240D01*
X22318604Y-23357590D01*
X22435521Y-23075326D01*
X22605259Y-22821295D01*
X22821295Y-22605259D01*
X23075326Y-22435521D01*
X23357590Y-22318604D01*
X23507415Y-22288802D01*
X23657239Y-22259000D01*
X23962761Y-22259000D01*
X24112585Y-22288802D01*
G37*
G36*
X44432585Y-22288802D02*
G01*
X44582410Y-22318604D01*
X44864674Y-22435521D01*
X45118705Y-22605259D01*
X45334741Y-22821295D01*
X45504479Y-23075326D01*
X45621396Y-23357590D01*
X45681000Y-23657240D01*
X45681000Y-23962760D01*
X45621396Y-24262410D01*
X45504479Y-24544674D01*
X45334741Y-24798705D01*
X45118705Y-25014741D01*
X44864674Y-25184479D01*
X44582410Y-25301396D01*
X44432585Y-25331198D01*
X44282761Y-25361000D01*
X43977239Y-25361000D01*
X43827415Y-25331198D01*
X43677590Y-25301396D01*
X43395326Y-25184479D01*
X43141295Y-25014741D01*
X42925259Y-24798705D01*
X42755521Y-24544674D01*
X42638604Y-24262410D01*
X42579000Y-23962760D01*
X42579000Y-23657240D01*
X42638604Y-23357590D01*
X42755521Y-23075326D01*
X42925259Y-22821295D01*
X43141295Y-22605259D01*
X43395326Y-22435521D01*
X43677590Y-22318604D01*
X43827415Y-22288802D01*
X43977239Y-22259000D01*
X44282761Y-22259000D01*
X44432585Y-22288802D01*
G37*
G36*
X32813512Y-20566927D02*
G01*
X32962812Y-20596624D01*
X33126784Y-20664544D01*
X33274354Y-20763147D01*
X33399853Y-20888646D01*
X33498456Y-21036216D01*
X33566376Y-21200188D01*
X33601000Y-21374259D01*
X33601000Y-21551741D01*
X33566376Y-21725812D01*
X33498456Y-21889784D01*
X33399853Y-22037354D01*
X33274354Y-22162853D01*
X33126784Y-22261456D01*
X32962812Y-22329376D01*
X32813512Y-22359073D01*
X32788742Y-22364000D01*
X32611258Y-22364000D01*
X32586488Y-22359073D01*
X32437188Y-22329376D01*
X32273216Y-22261456D01*
X32125646Y-22162853D01*
X32000147Y-22037354D01*
X31901544Y-21889784D01*
X31833624Y-21725812D01*
X31799000Y-21551741D01*
X31799000Y-21374259D01*
X31833624Y-21200188D01*
X31901544Y-21036216D01*
X32000147Y-20888646D01*
X32125646Y-20763147D01*
X32273216Y-20664544D01*
X32437188Y-20596624D01*
X32586488Y-20566927D01*
X32611258Y-20562000D01*
X32788742Y-20562000D01*
X32813512Y-20566927D01*
G37*
G36*
X30273512Y-20566927D02*
G01*
X30422812Y-20596624D01*
X30586784Y-20664544D01*
X30734354Y-20763147D01*
X30859853Y-20888646D01*
X30958456Y-21036216D01*
X31026376Y-21200188D01*
X31061000Y-21374259D01*
X31061000Y-21551741D01*
X31026376Y-21725812D01*
X30958456Y-21889784D01*
X30859853Y-22037354D01*
X30734354Y-22162853D01*
X30586784Y-22261456D01*
X30422812Y-22329376D01*
X30273512Y-22359073D01*
X30248742Y-22364000D01*
X30071258Y-22364000D01*
X30046488Y-22359073D01*
X29897188Y-22329376D01*
X29733216Y-22261456D01*
X29585646Y-22162853D01*
X29460147Y-22037354D01*
X29361544Y-21889784D01*
X29293624Y-21725812D01*
X29259000Y-21551741D01*
X29259000Y-21374259D01*
X29293624Y-21200188D01*
X29361544Y-21036216D01*
X29460147Y-20888646D01*
X29585646Y-20763147D01*
X29733216Y-20664544D01*
X29897188Y-20596624D01*
X30046488Y-20566927D01*
X30071258Y-20562000D01*
X30248742Y-20562000D01*
X30273512Y-20566927D01*
G37*
G36*
X35353512Y-20566927D02*
G01*
X35502812Y-20596624D01*
X35666784Y-20664544D01*
X35814354Y-20763147D01*
X35939853Y-20888646D01*
X36038456Y-21036216D01*
X36106376Y-21200188D01*
X36141000Y-21374259D01*
X36141000Y-21551741D01*
X36106376Y-21725812D01*
X36038456Y-21889784D01*
X35939853Y-22037354D01*
X35814354Y-22162853D01*
X35666784Y-22261456D01*
X35502812Y-22329376D01*
X35353512Y-22359073D01*
X35328742Y-22364000D01*
X35151258Y-22364000D01*
X35126488Y-22359073D01*
X34977188Y-22329376D01*
X34813216Y-22261456D01*
X34665646Y-22162853D01*
X34540147Y-22037354D01*
X34441544Y-21889784D01*
X34373624Y-21725812D01*
X34339000Y-21551741D01*
X34339000Y-21374259D01*
X34373624Y-21200188D01*
X34441544Y-21036216D01*
X34540147Y-20888646D01*
X34665646Y-20763147D01*
X34813216Y-20664544D01*
X34977188Y-20596624D01*
X35126488Y-20566927D01*
X35151258Y-20562000D01*
X35328742Y-20562000D01*
X35353512Y-20566927D01*
G37*
G36*
X37893512Y-20566927D02*
G01*
X38042812Y-20596624D01*
X38206784Y-20664544D01*
X38354354Y-20763147D01*
X38479853Y-20888646D01*
X38578456Y-21036216D01*
X38646376Y-21200188D01*
X38681000Y-21374259D01*
X38681000Y-21551741D01*
X38646376Y-21725812D01*
X38578456Y-21889784D01*
X38479853Y-22037354D01*
X38354354Y-22162853D01*
X38206784Y-22261456D01*
X38042812Y-22329376D01*
X37893512Y-22359073D01*
X37868742Y-22364000D01*
X37691258Y-22364000D01*
X37666488Y-22359073D01*
X37517188Y-22329376D01*
X37353216Y-22261456D01*
X37205646Y-22162853D01*
X37080147Y-22037354D01*
X36981544Y-21889784D01*
X36913624Y-21725812D01*
X36879000Y-21551741D01*
X36879000Y-21374259D01*
X36913624Y-21200188D01*
X36981544Y-21036216D01*
X37080147Y-20888646D01*
X37205646Y-20763147D01*
X37353216Y-20664544D01*
X37517188Y-20596624D01*
X37666488Y-20566927D01*
X37691258Y-20562000D01*
X37868742Y-20562000D01*
X37893512Y-20566927D01*
G37*
M02*
