  0
SECTION
  2
HEADER
  9
$ACADVER
  1
AC1014
  9
$HANDSEED
  5
FFFF
  9
$MEASUREMENT
 70
     1
  0
ENDSEC
  0
SECTION
  2
TABLES
  0
TABLE
  2
VPORT
  5
8
330
0
100
AcDbSymbolTable
 70
     4
  0
VPORT
  5
2E
330
8
100
AcDbSymbolTableRecord
100
AcDbViewportTableRecord
  2
*ACTIVE
 70
     0
 10
0.0
 20
0.0
 11
1.0
 21
1.0
 12
210.0
 22
148.5
 13
0.0
 23
0.0
 14
10.0
 24
10.0
 15
10.0
 25
10.0
 16
0.0
 26
0.0
 36
1.0
 17
0.0
 27
0.0
 37
0.0
 40
341.0
 41
1.24
 42
50.0
 43
0.0
 44
0.0
 50
0.0
 51
0.0
 71
     0
 72
   100
 73
     1
 74
     3
 75
     0
 76
     0
 77
     0
 78
     0
  0
ENDTAB
  0
TABLE
  2
LTYPE
  5
5
330
0
100
AcDbSymbolTable
 70
     1
  0
LTYPE
  5
14
330
5
100
AcDbSymbolTableRecord
100
AcDbLinetypeTableRecord
  2
BYBLOCK
 70
     0
  3

 72
    65
 73
     0
 40
0.0
  0
LTYPE
  5
15
330
5
100
AcDbSymbolTableRecord
100
AcDbLinetypeTableRecord
  2
BYLAYER
 70
     0
  3

 72
    65
 73
     0
 40
0.0
  0
LTYPE
  5
16
330
5
100
AcDbSymbolTableRecord
100
AcDbLinetypeTableRecord
  2
CONTINUOUS
 70
     0
  3
Solid line
 72
    65
 73
     0
 40
0.0
  0
ENDTAB
  0
TABLE
  2
LAYER
  5
2
100
AcDbSymbolTable
 70
1
  0
LAYER
  5
50
100
AcDbSymbolTableRecord
100
AcDbLayerTableRecord
  2
0
 70
0
  6
CONTINUOUS
  0
ENDTAB
  0
TABLE
  2
STYLE
  5
3
330
0
100
AcDbSymbolTable
 70
     1
  0
STYLE
  5
11
330
3
100
AcDbSymbolTableRecord
100
AcDbTextStyleTableRecord
  2
STANDARD
 70
     0
 40
0.0
 41
1.0
 50
0.0
 71
     0
 42
2.5
  3
txt
  4

  0
ENDTAB
  0
TABLE
  2
VIEW
  5
6
330
0
100
AcDbSymbolTable
 70
     0
  0
ENDTAB
  0
TABLE
  2
UCS
  5
7
330
0
100
AcDbSymbolTable
 70
     0
  0
ENDTAB
  0
TABLE
  2
APPID
  5
9
330
0
100
AcDbSymbolTable
 70
     2
  0
APPID
  5
12
330
9
100
AcDbSymbolTableRecord
100
AcDbRegAppTableRecord
  2
ACAD
 70
     0
  0
ENDTAB
  0
TABLE
  2
DIMSTYLE
  5
A
330
0
100
AcDbSymbolTable
 70
     1
  0
DIMSTYLE
105
27
330
A
100
AcDbSymbolTableRecord
100
AcDbDimStyleTableRecord
  2
ISO-25
 70
     0
  3

  4

  5

  6

  7

 40
1.0
 41
2.5
 42
0.625
 43
3.75
 44
1.25
 45
0.0
 46
0.0
 47
0.0
 48
0.0
140
2.5
141
2.5
142
0.0
143
0.03937007874016
144
1.0
145
0.0
146
1.0
147
0.625
 71
     0
 72
     0
 73
     0
 74
     0
 75
     0
 76
     0
 77
     1
 78
     8
170
     0
171
     3
172
     1
173
     0
174
     0
175
     0
176
     0
177
     0
178
     0
270
     2
271
     2
272
     2
273
     2
274
     3
340
11
275
     0
280
     0
281
     0
282
     0
283
     0
284
     8
285
     0
286
     0
287
     3
288
     0
  0
ENDTAB
  0
TABLE
  2
BLOCK_RECORD
  5
1
330
0
100
AcDbSymbolTable
 70
     1
  0
BLOCK_RECORD
  5
1F
330
1
100
AcDbSymbolTableRecord
100
AcDbBlockTableRecord
  2
*MODEL_SPACE
  0
BLOCK_RECORD
  5
1B
330
1
100
AcDbSymbolTableRecord
100
AcDbBlockTableRecord
  2
*PAPER_SPACE
  0
ENDTAB
  0
ENDSEC
  0
SECTION
  2
BLOCKS
  0
BLOCK
  5
20
330
1F
100
AcDbEntity
  8
0
100
AcDbBlockBegin
  2
*MODEL_SPACE
 70
     0
 10
0.0
 20
0.0
 30
0.0
  3
*MODEL_SPACE
  1

  0
ENDBLK
  5
21
330
1F
100
AcDbEntity
  8
0
100
AcDbBlockEnd
  0
BLOCK
  5
1C
330
1B
100
AcDbEntity
 67
     1
  8
0
100
AcDbBlockBegin
  2
*PAPER_SPACE
  1

  0
ENDBLK
  5
1D
330
1B
100
AcDbEntity
 67
     1
  8
0
100
AcDbBlockEnd
  0
ENDSEC
  0
SECTION
  2
ENTITIES
  0
LINE
  5
100
100
AcDbEntity
  8
0
 62
7
100
AcDbLine
 10
5.105304
 20
-57.185419
 30
0.0
 11
70.106383
 21
-57.185419
 31
0.0
  0
LINE
  5
101
100
AcDbEntity
  8
0
 62
7
100
AcDbLine
 10
70.106383
 20
-1.186092
 30
0.0
 11
70.106383
 21
-57.185419
 31
0.0
  0
LINE
  5
102
100
AcDbEntity
  8
0
 62
7
100
AcDbLine
 10
5.105304
 20
-1.186092
 30
0.0
 11
70.106383
 21
-1.186092
 31
0.0
  0
LINE
  5
103
100
AcDbEntity
  8
0
 62
7
100
AcDbLine
 10
5.105304
 20
-1.186092
 30
0.0
 11
5.105304
 21
-57.185419
 31
0.0
  0
SPLINE
  5
104
100
AcDbEntity
  8
0
 62
7
100
AcDbSpline
 70
8
 71
3
 72
8
 73
4
 74
0
 40
0
 40
0
 40
0
 40
0
 40
1
 40
1
 40
1
 40
1
 10
9.948930
 20
-4.684939
 30
0.0
 10
9.948930
 20
-5.164475
 30
0.0
 10
9.693100
 20
-5.607584
 30
0.0
 10
9.277810
 20
-5.847352
 30
0.0
  0
SPLINE
  5
105
100
AcDbEntity
  8
0
 62
7
100
AcDbSpline
 70
8
 71
3
 72
8
 73
4
 74
0
 40
0
 40
0
 40
0
 40
0
 40
1
 40
1
 40
1
 40
1
 10
9.277810
 20
-5.847352
 30
0.0
 10
8.862520
 20
-6.087120
 30
0.0
 10
8.350861
 20
-6.087120
 30
0.0
 10
7.935571
 20
-5.847352
 30
0.0
  0
SPLINE
  5
106
100
AcDbEntity
  8
0
 62
7
100
AcDbSpline
 70
8
 71
3
 72
8
 73
4
 74
0
 40
0
 40
0
 40
0
 40
0
 40
1
 40
1
 40
1
 40
1
 10
7.935571
 20
-5.847352
 30
0.0
 10
7.520280
 20
-5.607584
 30
0.0
 10
7.264451
 20
-5.164475
 30
0.0
 10
7.264451
 20
-4.684939
 30
0.0
  0
SPLINE
  5
107
100
AcDbEntity
  8
0
 62
7
100
AcDbSpline
 70
8
 71
3
 72
8
 73
4
 74
0
 40
0
 40
0
 40
0
 40
0
 40
1
 40
1
 40
1
 40
1
 10
7.264451
 20
-4.684939
 30
0.0
 10
7.264451
 20
-4.205403
 30
0.0
 10
7.520280
 20
-3.762294
 30
0.0
 10
7.935571
 20
-3.522526
 30
0.0
  0
SPLINE
  5
108
100
AcDbEntity
  8
0
 62
7
100
AcDbSpline
 70
8
 71
3
 72
8
 73
4
 74
0
 40
0
 40
0
 40
0
 40
0
 40
1
 40
1
 40
1
 40
1
 10
7.935571
 20
-3.522526
 30
0.0
 10
8.350861
 20
-3.282758
 30
0.0
 10
8.862520
 20
-3.282758
 30
0.0
 10
9.277810
 20
-3.522526
 30
0.0
  0
SPLINE
  5
109
100
AcDbEntity
  8
0
 62
7
100
AcDbSpline
 70
8
 71
3
 72
8
 73
4
 74
0
 40
0
 40
0
 40
0
 40
0
 40
1
 40
1
 40
1
 40
1
 10
9.277810
 20
-3.522526
 30
0.0
 10
9.693100
 20
-3.762294
 30
0.0
 10
9.948930
 20
-4.205403
 30
0.0
 10
9.948930
 20
-4.684939
 30
0.0
  0
LINE
  5
10a
100
AcDbEntity
  8
0
 62
7
100
AcDbLine
 10
9.948930
 20
-4.684939
 30
0.0
 11
9.948930
 21
-4.684939
 31
0.0
  0
SPLINE
  5
10b
100
AcDbEntity
  8
0
 62
7
100
AcDbSpline
 70
8
 71
3
 72
8
 73
4
 74
0
 40
0
 40
0
 40
0
 40
0
 40
1
 40
1
 40
1
 40
1
 10
67.947238
 20
-4.684939
 30
0.0
 10
67.947238
 20
-5.164474
 30
0.0
 10
67.691409
 20
-5.607584
 30
0.0
 10
67.276118
 20
-5.847351
 30
0.0
  0
SPLINE
  5
10c
100
AcDbEntity
  8
0
 62
7
100
AcDbSpline
 70
8
 71
3
 72
8
 73
4
 74
0
 40
0
 40
0
 40
0
 40
0
 40
1
 40
1
 40
1
 40
1
 10
67.276118
 20
-5.847351
 30
0.0
 10
66.860828
 20
-6.087119
 30
0.0
 10
66.349169
 20
-6.087119
 30
0.0
 10
65.933879
 20
-5.847351
 30
0.0
  0
SPLINE
  5
10d
100
AcDbEntity
  8
0
 62
7
100
AcDbSpline
 70
8
 71
3
 72
8
 73
4
 74
0
 40
0
 40
0
 40
0
 40
0
 40
1
 40
1
 40
1
 40
1
 10
65.933879
 20
-5.847351
 30
0.0
 10
65.518589
 20
-5.607584
 30
0.0
 10
65.262760
 20
-5.164474
 30
0.0
 10
65.262760
 20
-4.684939
 30
0.0
  0
SPLINE
  5
10e
100
AcDbEntity
  8
0
 62
7
100
AcDbSpline
 70
8
 71
3
 72
8
 73
4
 74
0
 40
0
 40
0
 40
0
 40
0
 40
1
 40
1
 40
1
 40
1
 10
65.262760
 20
-4.684939
 30
0.0
 10
65.262760
 20
-4.205403
 30
0.0
 10
65.518589
 20
-3.762294
 30
0.0
 10
65.933879
 20
-3.522526
 30
0.0
  0
SPLINE
  5
10f
100
AcDbEntity
  8
0
 62
7
100
AcDbSpline
 70
8
 71
3
 72
8
 73
4
 74
0
 40
0
 40
0
 40
0
 40
0
 40
1
 40
1
 40
1
 40
1
 10
65.933879
 20
-3.522526
 30
0.0
 10
66.349169
 20
-3.282758
 30
0.0
 10
66.860828
 20
-3.282758
 30
0.0
 10
67.276118
 20
-3.522526
 30
0.0
  0
SPLINE
  5
110
100
AcDbEntity
  8
0
 62
7
100
AcDbSpline
 70
8
 71
3
 72
8
 73
4
 74
0
 40
0
 40
0
 40
0
 40
0
 40
1
 40
1
 40
1
 40
1
 10
67.276118
 20
-3.522526
 30
0.0
 10
67.691409
 20
-3.762294
 30
0.0
 10
67.947238
 20
-4.205403
 30
0.0
 10
67.947238
 20
-4.684939
 30
0.0
  0
LINE
  5
111
100
AcDbEntity
  8
0
 62
7
100
AcDbLine
 10
67.947238
 20
-4.684939
 30
0.0
 11
67.947238
 21
-4.684939
 31
0.0
  0
SPLINE
  5
112
100
AcDbEntity
  8
0
 62
7
100
AcDbSpline
 70
8
 71
3
 72
8
 73
4
 74
0
 40
0
 40
0
 40
0
 40
0
 40
1
 40
1
 40
1
 40
1
 10
59.268066
 20
-13.945769
 30
0.0
 10
59.268066
 20
-14.425305
 30
0.0
 10
59.012237
 20
-14.868414
 30
0.0
 10
58.596947
 20
-15.108182
 30
0.0
  0
SPLINE
  5
113
100
AcDbEntity
  8
0
 62
7
100
AcDbSpline
 70
8
 71
3
 72
8
 73
4
 74
0
 40
0
 40
0
 40
0
 40
0
 40
1
 40
1
 40
1
 40
1
 10
58.596947
 20
-15.108182
 30
0.0
 10
58.181656
 20
-15.347950
 30
0.0
 10
57.669998
 20
-15.347950
 30
0.0
 10
57.254707
 20
-15.108182
 30
0.0
  0
SPLINE
  5
114
100
AcDbEntity
  8
0
 62
7
100
AcDbSpline
 70
8
 71
3
 72
8
 73
4
 74
0
 40
0
 40
0
 40
0
 40
0
 40
1
 40
1
 40
1
 40
1
 10
57.254707
 20
-15.108182
 30
0.0
 10
56.839417
 20
-14.868414
 30
0.0
 10
56.583588
 20
-14.425305
 30
0.0
 10
56.583588
 20
-13.945769
 30
0.0
  0
SPLINE
  5
115
100
AcDbEntity
  8
0
 62
7
100
AcDbSpline
 70
8
 71
3
 72
8
 73
4
 74
0
 40
0
 40
0
 40
0
 40
0
 40
1
 40
1
 40
1
 40
1
 10
56.583588
 20
-13.945769
 30
0.0
 10
56.583588
 20
-13.466234
 30
0.0
 10
56.839417
 20
-13.023125
 30
0.0
 10
57.254707
 20
-12.783357
 30
0.0
  0
SPLINE
  5
116
100
AcDbEntity
  8
0
 62
7
100
AcDbSpline
 70
8
 71
3
 72
8
 73
4
 74
0
 40
0
 40
0
 40
0
 40
0
 40
1
 40
1
 40
1
 40
1
 10
57.254707
 20
-12.783357
 30
0.0
 10
57.669998
 20
-12.543589
 30
0.0
 10
58.181656
 20
-12.543589
 30
0.0
 10
58.596947
 20
-12.783357
 30
0.0
  0
SPLINE
  5
117
100
AcDbEntity
  8
0
 62
7
100
AcDbSpline
 70
8
 71
3
 72
8
 73
4
 74
0
 40
0
 40
0
 40
0
 40
0
 40
1
 40
1
 40
1
 40
1
 10
58.596947
 20
-12.783357
 30
0.0
 10
59.012237
 20
-13.023125
 30
0.0
 10
59.268066
 20
-13.466234
 30
0.0
 10
59.268066
 20
-13.945769
 30
0.0
  0
LINE
  5
118
100
AcDbEntity
  8
0
 62
7
100
AcDbLine
 10
59.268066
 20
-13.945769
 30
0.0
 11
59.268066
 21
-13.945769
 31
0.0
  0
SPLINE
  5
119
100
AcDbEntity
  8
0
 62
7
100
AcDbSpline
 70
8
 71
3
 72
8
 73
4
 74
0
 40
0
 40
0
 40
0
 40
0
 40
1
 40
1
 40
1
 40
1
 10
49.108076
 20
-13.945769
 30
0.0
 10
49.108076
 20
-14.425305
 30
0.0
 10
48.852246
 20
-14.868414
 30
0.0
 10
48.436956
 20
-15.108182
 30
0.0
  0
SPLINE
  5
11a
100
AcDbEntity
  8
0
 62
7
100
AcDbSpline
 70
8
 71
3
 72
8
 73
4
 74
0
 40
0
 40
0
 40
0
 40
0
 40
1
 40
1
 40
1
 40
1
 10
48.436956
 20
-15.108182
 30
0.0
 10
48.021666
 20
-15.347950
 30
0.0
 10
47.510007
 20
-15.347950
 30
0.0
 10
47.094717
 20
-15.108182
 30
0.0
  0
SPLINE
  5
11b
100
AcDbEntity
  8
0
 62
7
100
AcDbSpline
 70
8
 71
3
 72
8
 73
4
 74
0
 40
0
 40
0
 40
0
 40
0
 40
1
 40
1
 40
1
 40
1
 10
47.094717
 20
-15.108182
 30
0.0
 10
46.679427
 20
-14.868414
 30
0.0
 10
46.423597
 20
-14.425305
 30
0.0
 10
46.423597
 20
-13.945769
 30
0.0
  0
SPLINE
  5
11c
100
AcDbEntity
  8
0
 62
7
100
AcDbSpline
 70
8
 71
3
 72
8
 73
4
 74
0
 40
0
 40
0
 40
0
 40
0
 40
1
 40
1
 40
1
 40
1
 10
46.423597
 20
-13.945769
 30
0.0
 10
46.423597
 20
-13.466234
 30
0.0
 10
46.679427
 20
-13.023125
 30
0.0
 10
47.094717
 20
-12.783357
 30
0.0
  0
SPLINE
  5
11d
100
AcDbEntity
  8
0
 62
7
100
AcDbSpline
 70
8
 71
3
 72
8
 73
4
 74
0
 40
0
 40
0
 40
0
 40
0
 40
1
 40
1
 40
1
 40
1
 10
47.094717
 20
-12.783357
 30
0.0
 10
47.510007
 20
-12.543589
 30
0.0
 10
48.021666
 20
-12.543589
 30
0.0
 10
48.436956
 20
-12.783357
 30
0.0
  0
SPLINE
  5
11e
100
AcDbEntity
  8
0
 62
7
100
AcDbSpline
 70
8
 71
3
 72
8
 73
4
 74
0
 40
0
 40
0
 40
0
 40
0
 40
1
 40
1
 40
1
 40
1
 10
48.436956
 20
-12.783357
 30
0.0
 10
48.852246
 20
-13.023125
 30
0.0
 10
49.108076
 20
-13.466234
 30
0.0
 10
49.108076
 20
-13.945769
 30
0.0
  0
LINE
  5
11f
100
AcDbEntity
  8
0
 62
7
100
AcDbLine
 10
49.108076
 20
-13.945769
 30
0.0
 11
49.108076
 21
-13.945769
 31
0.0
  0
SPLINE
  5
120
100
AcDbEntity
  8
0
 62
7
100
AcDbSpline
 70
8
 71
3
 72
8
 73
4
 74
0
 40
0
 40
0
 40
0
 40
0
 40
1
 40
1
 40
1
 40
1
 10
38.948083
 20
-13.945769
 30
0.0
 10
38.948083
 20
-14.425305
 30
0.0
 10
38.692253
 20
-14.868414
 30
0.0
 10
38.276963
 20
-15.108182
 30
0.0
  0
SPLINE
  5
121
100
AcDbEntity
  8
0
 62
7
100
AcDbSpline
 70
8
 71
3
 72
8
 73
4
 74
0
 40
0
 40
0
 40
0
 40
0
 40
1
 40
1
 40
1
 40
1
 10
38.276963
 20
-15.108182
 30
0.0
 10
37.861673
 20
-15.347950
 30
0.0
 10
37.350014
 20
-15.347950
 30
0.0
 10
36.934724
 20
-15.108182
 30
0.0
  0
SPLINE
  5
122
100
AcDbEntity
  8
0
 62
7
100
AcDbSpline
 70
8
 71
3
 72
8
 73
4
 74
0
 40
0
 40
0
 40
0
 40
0
 40
1
 40
1
 40
1
 40
1
 10
36.934724
 20
-15.108182
 30
0.0
 10
36.519434
 20
-14.868414
 30
0.0
 10
36.263604
 20
-14.425305
 30
0.0
 10
36.263604
 20
-13.945769
 30
0.0
  0
SPLINE
  5
123
100
AcDbEntity
  8
0
 62
7
100
AcDbSpline
 70
8
 71
3
 72
8
 73
4
 74
0
 40
0
 40
0
 40
0
 40
0
 40
1
 40
1
 40
1
 40
1
 10
36.263604
 20
-13.945769
 30
0.0
 10
36.263604
 20
-13.466234
 30
0.0
 10
36.519434
 20
-13.023125
 30
0.0
 10
36.934724
 20
-12.783357
 30
0.0
  0
SPLINE
  5
124
100
AcDbEntity
  8
0
 62
7
100
AcDbSpline
 70
8
 71
3
 72
8
 73
4
 74
0
 40
0
 40
0
 40
0
 40
0
 40
1
 40
1
 40
1
 40
1
 10
36.934724
 20
-12.783357
 30
0.0
 10
37.350014
 20
-12.543589
 30
0.0
 10
37.861673
 20
-12.543589
 30
0.0
 10
38.276963
 20
-12.783357
 30
0.0
  0
SPLINE
  5
125
100
AcDbEntity
  8
0
 62
7
100
AcDbSpline
 70
8
 71
3
 72
8
 73
4
 74
0
 40
0
 40
0
 40
0
 40
0
 40
1
 40
1
 40
1
 40
1
 10
38.276963
 20
-12.783357
 30
0.0
 10
38.692253
 20
-13.023125
 30
0.0
 10
38.948083
 20
-13.466234
 30
0.0
 10
38.948083
 20
-13.945769
 30
0.0
  0
LINE
  5
126
100
AcDbEntity
  8
0
 62
7
100
AcDbLine
 10
38.948083
 20
-13.945769
 30
0.0
 11
38.948083
 21
-13.945769
 31
0.0
  0
SPLINE
  5
127
100
AcDbEntity
  8
0
 62
7
100
AcDbSpline
 70
8
 71
3
 72
8
 73
4
 74
0
 40
0
 40
0
 40
0
 40
0
 40
1
 40
1
 40
1
 40
1
 10
28.788092
 20
-13.945769
 30
0.0
 10
28.788092
 20
-14.425305
 30
0.0
 10
28.532263
 20
-14.868414
 30
0.0
 10
28.116972
 20
-15.108182
 30
0.0
  0
SPLINE
  5
128
100
AcDbEntity
  8
0
 62
7
100
AcDbSpline
 70
8
 71
3
 72
8
 73
4
 74
0
 40
0
 40
0
 40
0
 40
0
 40
1
 40
1
 40
1
 40
1
 10
28.116972
 20
-15.108182
 30
0.0
 10
27.701682
 20
-15.347950
 30
0.0
 10
27.190024
 20
-15.347950
 30
0.0
 10
26.774733
 20
-15.108182
 30
0.0
  0
SPLINE
  5
129
100
AcDbEntity
  8
0
 62
7
100
AcDbSpline
 70
8
 71
3
 72
8
 73
4
 74
0
 40
0
 40
0
 40
0
 40
0
 40
1
 40
1
 40
1
 40
1
 10
26.774733
 20
-15.108182
 30
0.0
 10
26.359443
 20
-14.868414
 30
0.0
 10
26.103614
 20
-14.425305
 30
0.0
 10
26.103614
 20
-13.945769
 30
0.0
  0
SPLINE
  5
12a
100
AcDbEntity
  8
0
 62
7
100
AcDbSpline
 70
8
 71
3
 72
8
 73
4
 74
0
 40
0
 40
0
 40
0
 40
0
 40
1
 40
1
 40
1
 40
1
 10
26.103614
 20
-13.945769
 30
0.0
 10
26.103614
 20
-13.466234
 30
0.0
 10
26.359443
 20
-13.023125
 30
0.0
 10
26.774733
 20
-12.783357
 30
0.0
  0
SPLINE
  5
12b
100
AcDbEntity
  8
0
 62
7
100
AcDbSpline
 70
8
 71
3
 72
8
 73
4
 74
0
 40
0
 40
0
 40
0
 40
0
 40
1
 40
1
 40
1
 40
1
 10
26.774733
 20
-12.783357
 30
0.0
 10
27.190024
 20
-12.543589
 30
0.0
 10
27.701682
 20
-12.543589
 30
0.0
 10
28.116972
 20
-12.783357
 30
0.0
  0
SPLINE
  5
12c
100
AcDbEntity
  8
0
 62
7
100
AcDbSpline
 70
8
 71
3
 72
8
 73
4
 74
0
 40
0
 40
0
 40
0
 40
0
 40
1
 40
1
 40
1
 40
1
 10
28.116972
 20
-12.783357
 30
0.0
 10
28.532263
 20
-13.023125
 30
0.0
 10
28.788092
 20
-13.466234
 30
0.0
 10
28.788092
 20
-13.945769
 30
0.0
  0
LINE
  5
12d
100
AcDbEntity
  8
0
 62
7
100
AcDbLine
 10
28.788092
 20
-13.945769
 30
0.0
 11
28.788092
 21
-13.945769
 31
0.0
  0
SPLINE
  5
12e
100
AcDbEntity
  8
0
 62
7
100
AcDbSpline
 70
8
 71
3
 72
8
 73
4
 74
0
 40
0
 40
0
 40
0
 40
0
 40
1
 40
1
 40
1
 40
1
 10
18.628101
 20
-13.945769
 30
0.0
 10
18.628101
 20
-14.425305
 30
0.0
 10
18.372272
 20
-14.868414
 30
0.0
 10
17.956982
 20
-15.108182
 30
0.0
  0
SPLINE
  5
12f
100
AcDbEntity
  8
0
 62
7
100
AcDbSpline
 70
8
 71
3
 72
8
 73
4
 74
0
 40
0
 40
0
 40
0
 40
0
 40
1
 40
1
 40
1
 40
1
 10
17.956982
 20
-15.108182
 30
0.0
 10
17.541691
 20
-15.347950
 30
0.0
 10
17.030033
 20
-15.347950
 30
0.0
 10
16.614743
 20
-15.108182
 30
0.0
  0
SPLINE
  5
130
100
AcDbEntity
  8
0
 62
7
100
AcDbSpline
 70
8
 71
3
 72
8
 73
4
 74
0
 40
0
 40
0
 40
0
 40
0
 40
1
 40
1
 40
1
 40
1
 10
16.614743
 20
-15.108182
 30
0.0
 10
16.199452
 20
-14.868414
 30
0.0
 10
15.943623
 20
-14.425305
 30
0.0
 10
15.943623
 20
-13.945769
 30
0.0
  0
SPLINE
  5
131
100
AcDbEntity
  8
0
 62
7
100
AcDbSpline
 70
8
 71
3
 72
8
 73
4
 74
0
 40
0
 40
0
 40
0
 40
0
 40
1
 40
1
 40
1
 40
1
 10
15.943623
 20
-13.945769
 30
0.0
 10
15.943623
 20
-13.466234
 30
0.0
 10
16.199452
 20
-13.023125
 30
0.0
 10
16.614743
 20
-12.783357
 30
0.0
  0
SPLINE
  5
132
100
AcDbEntity
  8
0
 62
7
100
AcDbSpline
 70
8
 71
3
 72
8
 73
4
 74
0
 40
0
 40
0
 40
0
 40
0
 40
1
 40
1
 40
1
 40
1
 10
16.614743
 20
-12.783357
 30
0.0
 10
17.030033
 20
-12.543589
 30
0.0
 10
17.541691
 20
-12.543589
 30
0.0
 10
17.956982
 20
-12.783357
 30
0.0
  0
SPLINE
  5
133
100
AcDbEntity
  8
0
 62
7
100
AcDbSpline
 70
8
 71
3
 72
8
 73
4
 74
0
 40
0
 40
0
 40
0
 40
0
 40
1
 40
1
 40
1
 40
1
 10
17.956982
 20
-12.783357
 30
0.0
 10
18.372272
 20
-13.023125
 30
0.0
 10
18.628101
 20
-13.466234
 30
0.0
 10
18.628101
 20
-13.945769
 30
0.0
  0
LINE
  5
134
100
AcDbEntity
  8
0
 62
7
100
AcDbLine
 10
18.628101
 20
-13.945769
 30
0.0
 11
18.628101
 21
-13.945769
 31
0.0
  0
SPLINE
  5
135
100
AcDbEntity
  8
0
 62
7
100
AcDbSpline
 70
8
 71
3
 72
8
 73
4
 74
0
 40
0
 40
0
 40
0
 40
0
 40
1
 40
1
 40
1
 40
1
 10
59.268066
 20
-24.105760
 30
0.0
 10
59.268066
 20
-24.585296
 30
0.0
 10
59.012237
 20
-25.028405
 30
0.0
 10
58.596947
 20
-25.268173
 30
0.0
  0
SPLINE
  5
136
100
AcDbEntity
  8
0
 62
7
100
AcDbSpline
 70
8
 71
3
 72
8
 73
4
 74
0
 40
0
 40
0
 40
0
 40
0
 40
1
 40
1
 40
1
 40
1
 10
58.596947
 20
-25.268173
 30
0.0
 10
58.181656
 20
-25.507940
 30
0.0
 10
57.669998
 20
-25.507940
 30
0.0
 10
57.254707
 20
-25.268173
 30
0.0
  0
SPLINE
  5
137
100
AcDbEntity
  8
0
 62
7
100
AcDbSpline
 70
8
 71
3
 72
8
 73
4
 74
0
 40
0
 40
0
 40
0
 40
0
 40
1
 40
1
 40
1
 40
1
 10
57.254707
 20
-25.268173
 30
0.0
 10
56.839417
 20
-25.028405
 30
0.0
 10
56.583588
 20
-24.585296
 30
0.0
 10
56.583588
 20
-24.105760
 30
0.0
  0
SPLINE
  5
138
100
AcDbEntity
  8
0
 62
7
100
AcDbSpline
 70
8
 71
3
 72
8
 73
4
 74
0
 40
0
 40
0
 40
0
 40
0
 40
1
 40
1
 40
1
 40
1
 10
56.583588
 20
-24.105760
 30
0.0
 10
56.583588
 20
-23.626224
 30
0.0
 10
56.839417
 20
-23.183115
 30
0.0
 10
57.254707
 20
-22.943347
 30
0.0
  0
SPLINE
  5
139
100
AcDbEntity
  8
0
 62
7
100
AcDbSpline
 70
8
 71
3
 72
8
 73
4
 74
0
 40
0
 40
0
 40
0
 40
0
 40
1
 40
1
 40
1
 40
1
 10
57.254707
 20
-22.943347
 30
0.0
 10
57.669998
 20
-22.703579
 30
0.0
 10
58.181656
 20
-22.703579
 30
0.0
 10
58.596947
 20
-22.943347
 30
0.0
  0
SPLINE
  5
13a
100
AcDbEntity
  8
0
 62
7
100
AcDbSpline
 70
8
 71
3
 72
8
 73
4
 74
0
 40
0
 40
0
 40
0
 40
0
 40
1
 40
1
 40
1
 40
1
 10
58.596947
 20
-22.943347
 30
0.0
 10
59.012237
 20
-23.183115
 30
0.0
 10
59.268066
 20
-23.626224
 30
0.0
 10
59.268066
 20
-24.105760
 30
0.0
  0
LINE
  5
13b
100
AcDbEntity
  8
0
 62
7
100
AcDbLine
 10
59.268066
 20
-24.105760
 30
0.0
 11
59.268066
 21
-24.105760
 31
0.0
  0
SPLINE
  5
13c
100
AcDbEntity
  8
0
 62
7
100
AcDbSpline
 70
8
 71
3
 72
8
 73
4
 74
0
 40
0
 40
0
 40
0
 40
0
 40
1
 40
1
 40
1
 40
1
 10
49.108076
 20
-24.105760
 30
0.0
 10
49.108076
 20
-24.585296
 30
0.0
 10
48.852246
 20
-25.028405
 30
0.0
 10
48.436956
 20
-25.268173
 30
0.0
  0
SPLINE
  5
13d
100
AcDbEntity
  8
0
 62
7
100
AcDbSpline
 70
8
 71
3
 72
8
 73
4
 74
0
 40
0
 40
0
 40
0
 40
0
 40
1
 40
1
 40
1
 40
1
 10
48.436956
 20
-25.268173
 30
0.0
 10
48.021666
 20
-25.507940
 30
0.0
 10
47.510007
 20
-25.507940
 30
0.0
 10
47.094717
 20
-25.268173
 30
0.0
  0
SPLINE
  5
13e
100
AcDbEntity
  8
0
 62
7
100
AcDbSpline
 70
8
 71
3
 72
8
 73
4
 74
0
 40
0
 40
0
 40
0
 40
0
 40
1
 40
1
 40
1
 40
1
 10
47.094717
 20
-25.268173
 30
0.0
 10
46.679427
 20
-25.028405
 30
0.0
 10
46.423597
 20
-24.585296
 30
0.0
 10
46.423597
 20
-24.105760
 30
0.0
  0
SPLINE
  5
13f
100
AcDbEntity
  8
0
 62
7
100
AcDbSpline
 70
8
 71
3
 72
8
 73
4
 74
0
 40
0
 40
0
 40
0
 40
0
 40
1
 40
1
 40
1
 40
1
 10
46.423597
 20
-24.105760
 30
0.0
 10
46.423597
 20
-23.626224
 30
0.0
 10
46.679427
 20
-23.183115
 30
0.0
 10
47.094717
 20
-22.943347
 30
0.0
  0
SPLINE
  5
140
100
AcDbEntity
  8
0
 62
7
100
AcDbSpline
 70
8
 71
3
 72
8
 73
4
 74
0
 40
0
 40
0
 40
0
 40
0
 40
1
 40
1
 40
1
 40
1
 10
47.094717
 20
-22.943347
 30
0.0
 10
47.510007
 20
-22.703579
 30
0.0
 10
48.021666
 20
-22.703579
 30
0.0
 10
48.436956
 20
-22.943347
 30
0.0
  0
SPLINE
  5
141
100
AcDbEntity
  8
0
 62
7
100
AcDbSpline
 70
8
 71
3
 72
8
 73
4
 74
0
 40
0
 40
0
 40
0
 40
0
 40
1
 40
1
 40
1
 40
1
 10
48.436956
 20
-22.943347
 30
0.0
 10
48.852246
 20
-23.183115
 30
0.0
 10
49.108076
 20
-23.626224
 30
0.0
 10
49.108076
 20
-24.105760
 30
0.0
  0
LINE
  5
142
100
AcDbEntity
  8
0
 62
7
100
AcDbLine
 10
49.108076
 20
-24.105760
 30
0.0
 11
49.108076
 21
-24.105760
 31
0.0
  0
SPLINE
  5
143
100
AcDbEntity
  8
0
 62
7
100
AcDbSpline
 70
8
 71
3
 72
8
 73
4
 74
0
 40
0
 40
0
 40
0
 40
0
 40
1
 40
1
 40
1
 40
1
 10
38.948083
 20
-24.105760
 30
0.0
 10
38.948083
 20
-24.585296
 30
0.0
 10
38.692253
 20
-25.028405
 30
0.0
 10
38.276963
 20
-25.268173
 30
0.0
  0
SPLINE
  5
144
100
AcDbEntity
  8
0
 62
7
100
AcDbSpline
 70
8
 71
3
 72
8
 73
4
 74
0
 40
0
 40
0
 40
0
 40
0
 40
1
 40
1
 40
1
 40
1
 10
38.276963
 20
-25.268173
 30
0.0
 10
37.861673
 20
-25.507940
 30
0.0
 10
37.350014
 20
-25.507940
 30
0.0
 10
36.934724
 20
-25.268173
 30
0.0
  0
SPLINE
  5
145
100
AcDbEntity
  8
0
 62
7
100
AcDbSpline
 70
8
 71
3
 72
8
 73
4
 74
0
 40
0
 40
0
 40
0
 40
0
 40
1
 40
1
 40
1
 40
1
 10
36.934724
 20
-25.268173
 30
0.0
 10
36.519434
 20
-25.028405
 30
0.0
 10
36.263604
 20
-24.585296
 30
0.0
 10
36.263604
 20
-24.105760
 30
0.0
  0
SPLINE
  5
146
100
AcDbEntity
  8
0
 62
7
100
AcDbSpline
 70
8
 71
3
 72
8
 73
4
 74
0
 40
0
 40
0
 40
0
 40
0
 40
1
 40
1
 40
1
 40
1
 10
36.263604
 20
-24.105760
 30
0.0
 10
36.263604
 20
-23.626224
 30
0.0
 10
36.519434
 20
-23.183115
 30
0.0
 10
36.934724
 20
-22.943347
 30
0.0
  0
SPLINE
  5
147
100
AcDbEntity
  8
0
 62
7
100
AcDbSpline
 70
8
 71
3
 72
8
 73
4
 74
0
 40
0
 40
0
 40
0
 40
0
 40
1
 40
1
 40
1
 40
1
 10
36.934724
 20
-22.943347
 30
0.0
 10
37.350014
 20
-22.703579
 30
0.0
 10
37.861673
 20
-22.703579
 30
0.0
 10
38.276963
 20
-22.943347
 30
0.0
  0
SPLINE
  5
148
100
AcDbEntity
  8
0
 62
7
100
AcDbSpline
 70
8
 71
3
 72
8
 73
4
 74
0
 40
0
 40
0
 40
0
 40
0
 40
1
 40
1
 40
1
 40
1
 10
38.276963
 20
-22.943347
 30
0.0
 10
38.692253
 20
-23.183115
 30
0.0
 10
38.948083
 20
-23.626224
 30
0.0
 10
38.948083
 20
-24.105760
 30
0.0
  0
LINE
  5
149
100
AcDbEntity
  8
0
 62
7
100
AcDbLine
 10
38.948083
 20
-24.105760
 30
0.0
 11
38.948083
 21
-24.105760
 31
0.0
  0
SPLINE
  5
14a
100
AcDbEntity
  8
0
 62
7
100
AcDbSpline
 70
8
 71
3
 72
8
 73
4
 74
0
 40
0
 40
0
 40
0
 40
0
 40
1
 40
1
 40
1
 40
1
 10
28.788092
 20
-24.105760
 30
0.0
 10
28.788092
 20
-24.585296
 30
0.0
 10
28.532263
 20
-25.028405
 30
0.0
 10
28.116972
 20
-25.268173
 30
0.0
  0
SPLINE
  5
14b
100
AcDbEntity
  8
0
 62
7
100
AcDbSpline
 70
8
 71
3
 72
8
 73
4
 74
0
 40
0
 40
0
 40
0
 40
0
 40
1
 40
1
 40
1
 40
1
 10
28.116972
 20
-25.268173
 30
0.0
 10
27.701682
 20
-25.507940
 30
0.0
 10
27.190024
 20
-25.507940
 30
0.0
 10
26.774733
 20
-25.268173
 30
0.0
  0
SPLINE
  5
14c
100
AcDbEntity
  8
0
 62
7
100
AcDbSpline
 70
8
 71
3
 72
8
 73
4
 74
0
 40
0
 40
0
 40
0
 40
0
 40
1
 40
1
 40
1
 40
1
 10
26.774733
 20
-25.268173
 30
0.0
 10
26.359443
 20
-25.028405
 30
0.0
 10
26.103614
 20
-24.585296
 30
0.0
 10
26.103614
 20
-24.105760
 30
0.0
  0
SPLINE
  5
14d
100
AcDbEntity
  8
0
 62
7
100
AcDbSpline
 70
8
 71
3
 72
8
 73
4
 74
0
 40
0
 40
0
 40
0
 40
0
 40
1
 40
1
 40
1
 40
1
 10
26.103614
 20
-24.105760
 30
0.0
 10
26.103614
 20
-23.626224
 30
0.0
 10
26.359443
 20
-23.183115
 30
0.0
 10
26.774733
 20
-22.943347
 30
0.0
  0
SPLINE
  5
14e
100
AcDbEntity
  8
0
 62
7
100
AcDbSpline
 70
8
 71
3
 72
8
 73
4
 74
0
 40
0
 40
0
 40
0
 40
0
 40
1
 40
1
 40
1
 40
1
 10
26.774733
 20
-22.943347
 30
0.0
 10
27.190024
 20
-22.703579
 30
0.0
 10
27.701682
 20
-22.703579
 30
0.0
 10
28.116972
 20
-22.943347
 30
0.0
  0
SPLINE
  5
14f
100
AcDbEntity
  8
0
 62
7
100
AcDbSpline
 70
8
 71
3
 72
8
 73
4
 74
0
 40
0
 40
0
 40
0
 40
0
 40
1
 40
1
 40
1
 40
1
 10
28.116972
 20
-22.943347
 30
0.0
 10
28.532263
 20
-23.183115
 30
0.0
 10
28.788092
 20
-23.626224
 30
0.0
 10
28.788092
 20
-24.105760
 30
0.0
  0
LINE
  5
150
100
AcDbEntity
  8
0
 62
7
100
AcDbLine
 10
28.788092
 20
-24.105760
 30
0.0
 11
28.788092
 21
-24.105760
 31
0.0
  0
SPLINE
  5
151
100
AcDbEntity
  8
0
 62
7
100
AcDbSpline
 70
8
 71
3
 72
8
 73
4
 74
0
 40
0
 40
0
 40
0
 40
0
 40
1
 40
1
 40
1
 40
1
 10
18.628101
 20
-24.105760
 30
0.0
 10
18.628101
 20
-24.585296
 30
0.0
 10
18.372272
 20
-25.028405
 30
0.0
 10
17.956982
 20
-25.268173
 30
0.0
  0
SPLINE
  5
152
100
AcDbEntity
  8
0
 62
7
100
AcDbSpline
 70
8
 71
3
 72
8
 73
4
 74
0
 40
0
 40
0
 40
0
 40
0
 40
1
 40
1
 40
1
 40
1
 10
17.956982
 20
-25.268173
 30
0.0
 10
17.541691
 20
-25.507940
 30
0.0
 10
17.030033
 20
-25.507940
 30
0.0
 10
16.614743
 20
-25.268173
 30
0.0
  0
SPLINE
  5
153
100
AcDbEntity
  8
0
 62
7
100
AcDbSpline
 70
8
 71
3
 72
8
 73
4
 74
0
 40
0
 40
0
 40
0
 40
0
 40
1
 40
1
 40
1
 40
1
 10
16.614743
 20
-25.268173
 30
0.0
 10
16.199452
 20
-25.028405
 30
0.0
 10
15.943623
 20
-24.585296
 30
0.0
 10
15.943623
 20
-24.105760
 30
0.0
  0
SPLINE
  5
154
100
AcDbEntity
  8
0
 62
7
100
AcDbSpline
 70
8
 71
3
 72
8
 73
4
 74
0
 40
0
 40
0
 40
0
 40
0
 40
1
 40
1
 40
1
 40
1
 10
15.943623
 20
-24.105760
 30
0.0
 10
15.943623
 20
-23.626224
 30
0.0
 10
16.199452
 20
-23.183115
 30
0.0
 10
16.614743
 20
-22.943347
 30
0.0
  0
SPLINE
  5
155
100
AcDbEntity
  8
0
 62
7
100
AcDbSpline
 70
8
 71
3
 72
8
 73
4
 74
0
 40
0
 40
0
 40
0
 40
0
 40
1
 40
1
 40
1
 40
1
 10
16.614743
 20
-22.943347
 30
0.0
 10
17.030033
 20
-22.703579
 30
0.0
 10
17.541691
 20
-22.703579
 30
0.0
 10
17.956982
 20
-22.943347
 30
0.0
  0
SPLINE
  5
156
100
AcDbEntity
  8
0
 62
7
100
AcDbSpline
 70
8
 71
3
 72
8
 73
4
 74
0
 40
0
 40
0
 40
0
 40
0
 40
1
 40
1
 40
1
 40
1
 10
17.956982
 20
-22.943347
 30
0.0
 10
18.372272
 20
-23.183115
 30
0.0
 10
18.628101
 20
-23.626224
 30
0.0
 10
18.628101
 20
-24.105760
 30
0.0
  0
LINE
  5
157
100
AcDbEntity
  8
0
 62
7
100
AcDbLine
 10
18.628101
 20
-24.105760
 30
0.0
 11
18.628101
 21
-24.105760
 31
0.0
  0
SPLINE
  5
158
100
AcDbEntity
  8
0
 62
7
100
AcDbSpline
 70
8
 71
3
 72
8
 73
4
 74
0
 40
0
 40
0
 40
0
 40
0
 40
1
 40
1
 40
1
 40
1
 10
59.268066
 20
-34.265750
 30
0.0
 10
59.268066
 20
-34.745286
 30
0.0
 10
59.012237
 20
-35.188395
 30
0.0
 10
58.596947
 20
-35.428163
 30
0.0
  0
SPLINE
  5
159
100
AcDbEntity
  8
0
 62
7
100
AcDbSpline
 70
8
 71
3
 72
8
 73
4
 74
0
 40
0
 40
0
 40
0
 40
0
 40
1
 40
1
 40
1
 40
1
 10
58.596947
 20
-35.428163
 30
0.0
 10
58.181656
 20
-35.667931
 30
0.0
 10
57.669998
 20
-35.667931
 30
0.0
 10
57.254707
 20
-35.428163
 30
0.0
  0
SPLINE
  5
15a
100
AcDbEntity
  8
0
 62
7
100
AcDbSpline
 70
8
 71
3
 72
8
 73
4
 74
0
 40
0
 40
0
 40
0
 40
0
 40
1
 40
1
 40
1
 40
1
 10
57.254707
 20
-35.428163
 30
0.0
 10
56.839417
 20
-35.188395
 30
0.0
 10
56.583588
 20
-34.745286
 30
0.0
 10
56.583588
 20
-34.265750
 30
0.0
  0
SPLINE
  5
15b
100
AcDbEntity
  8
0
 62
7
100
AcDbSpline
 70
8
 71
3
 72
8
 73
4
 74
0
 40
0
 40
0
 40
0
 40
0
 40
1
 40
1
 40
1
 40
1
 10
56.583588
 20
-34.265750
 30
0.0
 10
56.583588
 20
-33.786215
 30
0.0
 10
56.839417
 20
-33.343106
 30
0.0
 10
57.254707
 20
-33.103338
 30
0.0
  0
SPLINE
  5
15c
100
AcDbEntity
  8
0
 62
7
100
AcDbSpline
 70
8
 71
3
 72
8
 73
4
 74
0
 40
0
 40
0
 40
0
 40
0
 40
1
 40
1
 40
1
 40
1
 10
57.254707
 20
-33.103338
 30
0.0
 10
57.669998
 20
-32.863570
 30
0.0
 10
58.181656
 20
-32.863570
 30
0.0
 10
58.596947
 20
-33.103338
 30
0.0
  0
SPLINE
  5
15d
100
AcDbEntity
  8
0
 62
7
100
AcDbSpline
 70
8
 71
3
 72
8
 73
4
 74
0
 40
0
 40
0
 40
0
 40
0
 40
1
 40
1
 40
1
 40
1
 10
58.596947
 20
-33.103338
 30
0.0
 10
59.012237
 20
-33.343106
 30
0.0
 10
59.268066
 20
-33.786215
 30
0.0
 10
59.268066
 20
-34.265750
 30
0.0
  0
LINE
  5
15e
100
AcDbEntity
  8
0
 62
7
100
AcDbLine
 10
59.268066
 20
-34.265750
 30
0.0
 11
59.268066
 21
-34.265750
 31
0.0
  0
SPLINE
  5
15f
100
AcDbEntity
  8
0
 62
7
100
AcDbSpline
 70
8
 71
3
 72
8
 73
4
 74
0
 40
0
 40
0
 40
0
 40
0
 40
1
 40
1
 40
1
 40
1
 10
49.108076
 20
-34.265750
 30
0.0
 10
49.108076
 20
-34.745286
 30
0.0
 10
48.852246
 20
-35.188395
 30
0.0
 10
48.436956
 20
-35.428163
 30
0.0
  0
SPLINE
  5
160
100
AcDbEntity
  8
0
 62
7
100
AcDbSpline
 70
8
 71
3
 72
8
 73
4
 74
0
 40
0
 40
0
 40
0
 40
0
 40
1
 40
1
 40
1
 40
1
 10
48.436956
 20
-35.428163
 30
0.0
 10
48.021666
 20
-35.667931
 30
0.0
 10
47.510007
 20
-35.667931
 30
0.0
 10
47.094717
 20
-35.428163
 30
0.0
  0
SPLINE
  5
161
100
AcDbEntity
  8
0
 62
7
100
AcDbSpline
 70
8
 71
3
 72
8
 73
4
 74
0
 40
0
 40
0
 40
0
 40
0
 40
1
 40
1
 40
1
 40
1
 10
47.094717
 20
-35.428163
 30
0.0
 10
46.679427
 20
-35.188395
 30
0.0
 10
46.423597
 20
-34.745286
 30
0.0
 10
46.423597
 20
-34.265750
 30
0.0
  0
SPLINE
  5
162
100
AcDbEntity
  8
0
 62
7
100
AcDbSpline
 70
8
 71
3
 72
8
 73
4
 74
0
 40
0
 40
0
 40
0
 40
0
 40
1
 40
1
 40
1
 40
1
 10
46.423597
 20
-34.265750
 30
0.0
 10
46.423597
 20
-33.786215
 30
0.0
 10
46.679427
 20
-33.343106
 30
0.0
 10
47.094717
 20
-33.103338
 30
0.0
  0
SPLINE
  5
163
100
AcDbEntity
  8
0
 62
7
100
AcDbSpline
 70
8
 71
3
 72
8
 73
4
 74
0
 40
0
 40
0
 40
0
 40
0
 40
1
 40
1
 40
1
 40
1
 10
47.094717
 20
-33.103338
 30
0.0
 10
47.510007
 20
-32.863570
 30
0.0
 10
48.021666
 20
-32.863570
 30
0.0
 10
48.436956
 20
-33.103338
 30
0.0
  0
SPLINE
  5
164
100
AcDbEntity
  8
0
 62
7
100
AcDbSpline
 70
8
 71
3
 72
8
 73
4
 74
0
 40
0
 40
0
 40
0
 40
0
 40
1
 40
1
 40
1
 40
1
 10
48.436956
 20
-33.103338
 30
0.0
 10
48.852246
 20
-33.343106
 30
0.0
 10
49.108076
 20
-33.786215
 30
0.0
 10
49.108076
 20
-34.265750
 30
0.0
  0
LINE
  5
165
100
AcDbEntity
  8
0
 62
7
100
AcDbLine
 10
49.108076
 20
-34.265750
 30
0.0
 11
49.108076
 21
-34.265750
 31
0.0
  0
SPLINE
  5
166
100
AcDbEntity
  8
0
 62
7
100
AcDbSpline
 70
8
 71
3
 72
8
 73
4
 74
0
 40
0
 40
0
 40
0
 40
0
 40
1
 40
1
 40
1
 40
1
 10
38.948083
 20
-34.265750
 30
0.0
 10
38.948083
 20
-34.745286
 30
0.0
 10
38.692253
 20
-35.188395
 30
0.0
 10
38.276963
 20
-35.428163
 30
0.0
  0
SPLINE
  5
167
100
AcDbEntity
  8
0
 62
7
100
AcDbSpline
 70
8
 71
3
 72
8
 73
4
 74
0
 40
0
 40
0
 40
0
 40
0
 40
1
 40
1
 40
1
 40
1
 10
38.276963
 20
-35.428163
 30
0.0
 10
37.861673
 20
-35.667931
 30
0.0
 10
37.350014
 20
-35.667931
 30
0.0
 10
36.934724
 20
-35.428163
 30
0.0
  0
SPLINE
  5
168
100
AcDbEntity
  8
0
 62
7
100
AcDbSpline
 70
8
 71
3
 72
8
 73
4
 74
0
 40
0
 40
0
 40
0
 40
0
 40
1
 40
1
 40
1
 40
1
 10
36.934724
 20
-35.428163
 30
0.0
 10
36.519434
 20
-35.188395
 30
0.0
 10
36.263604
 20
-34.745286
 30
0.0
 10
36.263604
 20
-34.265750
 30
0.0
  0
SPLINE
  5
169
100
AcDbEntity
  8
0
 62
7
100
AcDbSpline
 70
8
 71
3
 72
8
 73
4
 74
0
 40
0
 40
0
 40
0
 40
0
 40
1
 40
1
 40
1
 40
1
 10
36.263604
 20
-34.265750
 30
0.0
 10
36.263604
 20
-33.786215
 30
0.0
 10
36.519434
 20
-33.343106
 30
0.0
 10
36.934724
 20
-33.103338
 30
0.0
  0
SPLINE
  5
16a
100
AcDbEntity
  8
0
 62
7
100
AcDbSpline
 70
8
 71
3
 72
8
 73
4
 74
0
 40
0
 40
0
 40
0
 40
0
 40
1
 40
1
 40
1
 40
1
 10
36.934724
 20
-33.103338
 30
0.0
 10
37.350014
 20
-32.863570
 30
0.0
 10
37.861673
 20
-32.863570
 30
0.0
 10
38.276963
 20
-33.103338
 30
0.0
  0
SPLINE
  5
16b
100
AcDbEntity
  8
0
 62
7
100
AcDbSpline
 70
8
 71
3
 72
8
 73
4
 74
0
 40
0
 40
0
 40
0
 40
0
 40
1
 40
1
 40
1
 40
1
 10
38.276963
 20
-33.103338
 30
0.0
 10
38.692253
 20
-33.343106
 30
0.0
 10
38.948083
 20
-33.786215
 30
0.0
 10
38.948083
 20
-34.265750
 30
0.0
  0
LINE
  5
16c
100
AcDbEntity
  8
0
 62
7
100
AcDbLine
 10
38.948083
 20
-34.265750
 30
0.0
 11
38.948083
 21
-34.265750
 31
0.0
  0
SPLINE
  5
16d
100
AcDbEntity
  8
0
 62
7
100
AcDbSpline
 70
8
 71
3
 72
8
 73
4
 74
0
 40
0
 40
0
 40
0
 40
0
 40
1
 40
1
 40
1
 40
1
 10
28.788092
 20
-34.265750
 30
0.0
 10
28.788092
 20
-34.745286
 30
0.0
 10
28.532263
 20
-35.188395
 30
0.0
 10
28.116972
 20
-35.428163
 30
0.0
  0
SPLINE
  5
16e
100
AcDbEntity
  8
0
 62
7
100
AcDbSpline
 70
8
 71
3
 72
8
 73
4
 74
0
 40
0
 40
0
 40
0
 40
0
 40
1
 40
1
 40
1
 40
1
 10
28.116972
 20
-35.428163
 30
0.0
 10
27.701682
 20
-35.667931
 30
0.0
 10
27.190024
 20
-35.667931
 30
0.0
 10
26.774733
 20
-35.428163
 30
0.0
  0
SPLINE
  5
16f
100
AcDbEntity
  8
0
 62
7
100
AcDbSpline
 70
8
 71
3
 72
8
 73
4
 74
0
 40
0
 40
0
 40
0
 40
0
 40
1
 40
1
 40
1
 40
1
 10
26.774733
 20
-35.428163
 30
0.0
 10
26.359443
 20
-35.188395
 30
0.0
 10
26.103614
 20
-34.745286
 30
0.0
 10
26.103614
 20
-34.265750
 30
0.0
  0
SPLINE
  5
170
100
AcDbEntity
  8
0
 62
7
100
AcDbSpline
 70
8
 71
3
 72
8
 73
4
 74
0
 40
0
 40
0
 40
0
 40
0
 40
1
 40
1
 40
1
 40
1
 10
26.103614
 20
-34.265750
 30
0.0
 10
26.103614
 20
-33.786215
 30
0.0
 10
26.359443
 20
-33.343106
 30
0.0
 10
26.774733
 20
-33.103338
 30
0.0
  0
SPLINE
  5
171
100
AcDbEntity
  8
0
 62
7
100
AcDbSpline
 70
8
 71
3
 72
8
 73
4
 74
0
 40
0
 40
0
 40
0
 40
0
 40
1
 40
1
 40
1
 40
1
 10
26.774733
 20
-33.103338
 30
0.0
 10
27.190024
 20
-32.863570
 30
0.0
 10
27.701682
 20
-32.863570
 30
0.0
 10
28.116972
 20
-33.103338
 30
0.0
  0
SPLINE
  5
172
100
AcDbEntity
  8
0
 62
7
100
AcDbSpline
 70
8
 71
3
 72
8
 73
4
 74
0
 40
0
 40
0
 40
0
 40
0
 40
1
 40
1
 40
1
 40
1
 10
28.116972
 20
-33.103338
 30
0.0
 10
28.532263
 20
-33.343106
 30
0.0
 10
28.788092
 20
-33.786215
 30
0.0
 10
28.788092
 20
-34.265750
 30
0.0
  0
LINE
  5
173
100
AcDbEntity
  8
0
 62
7
100
AcDbLine
 10
28.788092
 20
-34.265750
 30
0.0
 11
28.788092
 21
-34.265750
 31
0.0
  0
SPLINE
  5
174
100
AcDbEntity
  8
0
 62
7
100
AcDbSpline
 70
8
 71
3
 72
8
 73
4
 74
0
 40
0
 40
0
 40
0
 40
0
 40
1
 40
1
 40
1
 40
1
 10
18.628101
 20
-34.265750
 30
0.0
 10
18.628101
 20
-34.745286
 30
0.0
 10
18.372272
 20
-35.188395
 30
0.0
 10
17.956982
 20
-35.428163
 30
0.0
  0
SPLINE
  5
175
100
AcDbEntity
  8
0
 62
7
100
AcDbSpline
 70
8
 71
3
 72
8
 73
4
 74
0
 40
0
 40
0
 40
0
 40
0
 40
1
 40
1
 40
1
 40
1
 10
17.956982
 20
-35.428163
 30
0.0
 10
17.541691
 20
-35.667931
 30
0.0
 10
17.030033
 20
-35.667931
 30
0.0
 10
16.614743
 20
-35.428163
 30
0.0
  0
SPLINE
  5
176
100
AcDbEntity
  8
0
 62
7
100
AcDbSpline
 70
8
 71
3
 72
8
 73
4
 74
0
 40
0
 40
0
 40
0
 40
0
 40
1
 40
1
 40
1
 40
1
 10
16.614743
 20
-35.428163
 30
0.0
 10
16.199452
 20
-35.188395
 30
0.0
 10
15.943623
 20
-34.745286
 30
0.0
 10
15.943623
 20
-34.265750
 30
0.0
  0
SPLINE
  5
177
100
AcDbEntity
  8
0
 62
7
100
AcDbSpline
 70
8
 71
3
 72
8
 73
4
 74
0
 40
0
 40
0
 40
0
 40
0
 40
1
 40
1
 40
1
 40
1
 10
15.943623
 20
-34.265750
 30
0.0
 10
15.943623
 20
-33.786215
 30
0.0
 10
16.199452
 20
-33.343106
 30
0.0
 10
16.614743
 20
-33.103338
 30
0.0
  0
SPLINE
  5
178
100
AcDbEntity
  8
0
 62
7
100
AcDbSpline
 70
8
 71
3
 72
8
 73
4
 74
0
 40
0
 40
0
 40
0
 40
0
 40
1
 40
1
 40
1
 40
1
 10
16.614743
 20
-33.103338
 30
0.0
 10
17.030033
 20
-32.863570
 30
0.0
 10
17.541691
 20
-32.863570
 30
0.0
 10
17.956982
 20
-33.103338
 30
0.0
  0
SPLINE
  5
179
100
AcDbEntity
  8
0
 62
7
100
AcDbSpline
 70
8
 71
3
 72
8
 73
4
 74
0
 40
0
 40
0
 40
0
 40
0
 40
1
 40
1
 40
1
 40
1
 10
17.956982
 20
-33.103338
 30
0.0
 10
18.372272
 20
-33.343106
 30
0.0
 10
18.628101
 20
-33.786215
 30
0.0
 10
18.628101
 20
-34.265750
 30
0.0
  0
LINE
  5
17a
100
AcDbEntity
  8
0
 62
7
100
AcDbLine
 10
18.628101
 20
-34.265750
 30
0.0
 11
18.628101
 21
-34.265750
 31
0.0
  0
SPLINE
  5
17b
100
AcDbEntity
  8
0
 62
7
100
AcDbSpline
 70
8
 71
3
 72
8
 73
4
 74
0
 40
0
 40
0
 40
0
 40
0
 40
1
 40
1
 40
1
 40
1
 10
59.268066
 20
-44.425741
 30
0.0
 10
59.268066
 20
-44.905277
 30
0.0
 10
59.012237
 20
-45.348386
 30
0.0
 10
58.596947
 20
-45.588154
 30
0.0
  0
SPLINE
  5
17c
100
AcDbEntity
  8
0
 62
7
100
AcDbSpline
 70
8
 71
3
 72
8
 73
4
 74
0
 40
0
 40
0
 40
0
 40
0
 40
1
 40
1
 40
1
 40
1
 10
58.596947
 20
-45.588154
 30
0.0
 10
58.181656
 20
-45.827921
 30
0.0
 10
57.669998
 20
-45.827921
 30
0.0
 10
57.254707
 20
-45.588154
 30
0.0
  0
SPLINE
  5
17d
100
AcDbEntity
  8
0
 62
7
100
AcDbSpline
 70
8
 71
3
 72
8
 73
4
 74
0
 40
0
 40
0
 40
0
 40
0
 40
1
 40
1
 40
1
 40
1
 10
57.254707
 20
-45.588154
 30
0.0
 10
56.839417
 20
-45.348386
 30
0.0
 10
56.583588
 20
-44.905277
 30
0.0
 10
56.583588
 20
-44.425741
 30
0.0
  0
SPLINE
  5
17e
100
AcDbEntity
  8
0
 62
7
100
AcDbSpline
 70
8
 71
3
 72
8
 73
4
 74
0
 40
0
 40
0
 40
0
 40
0
 40
1
 40
1
 40
1
 40
1
 10
56.583588
 20
-44.425741
 30
0.0
 10
56.583588
 20
-43.946205
 30
0.0
 10
56.839417
 20
-43.503096
 30
0.0
 10
57.254707
 20
-43.263328
 30
0.0
  0
SPLINE
  5
17f
100
AcDbEntity
  8
0
 62
7
100
AcDbSpline
 70
8
 71
3
 72
8
 73
4
 74
0
 40
0
 40
0
 40
0
 40
0
 40
1
 40
1
 40
1
 40
1
 10
57.254707
 20
-43.263328
 30
0.0
 10
57.669998
 20
-43.023560
 30
0.0
 10
58.181656
 20
-43.023560
 30
0.0
 10
58.596947
 20
-43.263328
 30
0.0
  0
SPLINE
  5
180
100
AcDbEntity
  8
0
 62
7
100
AcDbSpline
 70
8
 71
3
 72
8
 73
4
 74
0
 40
0
 40
0
 40
0
 40
0
 40
1
 40
1
 40
1
 40
1
 10
58.596947
 20
-43.263328
 30
0.0
 10
59.012237
 20
-43.503096
 30
0.0
 10
59.268066
 20
-43.946205
 30
0.0
 10
59.268066
 20
-44.425741
 30
0.0
  0
LINE
  5
181
100
AcDbEntity
  8
0
 62
7
100
AcDbLine
 10
59.268066
 20
-44.425741
 30
0.0
 11
59.268066
 21
-44.425741
 31
0.0
  0
SPLINE
  5
182
100
AcDbEntity
  8
0
 62
7
100
AcDbSpline
 70
8
 71
3
 72
8
 73
4
 74
0
 40
0
 40
0
 40
0
 40
0
 40
1
 40
1
 40
1
 40
1
 10
49.108076
 20
-44.425741
 30
0.0
 10
49.108076
 20
-44.905277
 30
0.0
 10
48.852246
 20
-45.348386
 30
0.0
 10
48.436956
 20
-45.588154
 30
0.0
  0
SPLINE
  5
183
100
AcDbEntity
  8
0
 62
7
100
AcDbSpline
 70
8
 71
3
 72
8
 73
4
 74
0
 40
0
 40
0
 40
0
 40
0
 40
1
 40
1
 40
1
 40
1
 10
48.436956
 20
-45.588154
 30
0.0
 10
48.021666
 20
-45.827921
 30
0.0
 10
47.510007
 20
-45.827921
 30
0.0
 10
47.094717
 20
-45.588154
 30
0.0
  0
SPLINE
  5
184
100
AcDbEntity
  8
0
 62
7
100
AcDbSpline
 70
8
 71
3
 72
8
 73
4
 74
0
 40
0
 40
0
 40
0
 40
0
 40
1
 40
1
 40
1
 40
1
 10
47.094717
 20
-45.588154
 30
0.0
 10
46.679427
 20
-45.348386
 30
0.0
 10
46.423597
 20
-44.905277
 30
0.0
 10
46.423597
 20
-44.425741
 30
0.0
  0
SPLINE
  5
185
100
AcDbEntity
  8
0
 62
7
100
AcDbSpline
 70
8
 71
3
 72
8
 73
4
 74
0
 40
0
 40
0
 40
0
 40
0
 40
1
 40
1
 40
1
 40
1
 10
46.423597
 20
-44.425741
 30
0.0
 10
46.423597
 20
-43.946205
 30
0.0
 10
46.679427
 20
-43.503096
 30
0.0
 10
47.094717
 20
-43.263328
 30
0.0
  0
SPLINE
  5
186
100
AcDbEntity
  8
0
 62
7
100
AcDbSpline
 70
8
 71
3
 72
8
 73
4
 74
0
 40
0
 40
0
 40
0
 40
0
 40
1
 40
1
 40
1
 40
1
 10
47.094717
 20
-43.263328
 30
0.0
 10
47.510007
 20
-43.023560
 30
0.0
 10
48.021666
 20
-43.023560
 30
0.0
 10
48.436956
 20
-43.263328
 30
0.0
  0
SPLINE
  5
187
100
AcDbEntity
  8
0
 62
7
100
AcDbSpline
 70
8
 71
3
 72
8
 73
4
 74
0
 40
0
 40
0
 40
0
 40
0
 40
1
 40
1
 40
1
 40
1
 10
48.436956
 20
-43.263328
 30
0.0
 10
48.852246
 20
-43.503096
 30
0.0
 10
49.108076
 20
-43.946205
 30
0.0
 10
49.108076
 20
-44.425741
 30
0.0
  0
LINE
  5
188
100
AcDbEntity
  8
0
 62
7
100
AcDbLine
 10
49.108076
 20
-44.425741
 30
0.0
 11
49.108076
 21
-44.425741
 31
0.0
  0
SPLINE
  5
189
100
AcDbEntity
  8
0
 62
7
100
AcDbSpline
 70
8
 71
3
 72
8
 73
4
 74
0
 40
0
 40
0
 40
0
 40
0
 40
1
 40
1
 40
1
 40
1
 10
38.948083
 20
-44.425741
 30
0.0
 10
38.948083
 20
-44.905277
 30
0.0
 10
38.692253
 20
-45.348386
 30
0.0
 10
38.276963
 20
-45.588154
 30
0.0
  0
SPLINE
  5
18a
100
AcDbEntity
  8
0
 62
7
100
AcDbSpline
 70
8
 71
3
 72
8
 73
4
 74
0
 40
0
 40
0
 40
0
 40
0
 40
1
 40
1
 40
1
 40
1
 10
38.276963
 20
-45.588154
 30
0.0
 10
37.861673
 20
-45.827921
 30
0.0
 10
37.350014
 20
-45.827921
 30
0.0
 10
36.934724
 20
-45.588154
 30
0.0
  0
SPLINE
  5
18b
100
AcDbEntity
  8
0
 62
7
100
AcDbSpline
 70
8
 71
3
 72
8
 73
4
 74
0
 40
0
 40
0
 40
0
 40
0
 40
1
 40
1
 40
1
 40
1
 10
36.934724
 20
-45.588154
 30
0.0
 10
36.519434
 20
-45.348386
 30
0.0
 10
36.263604
 20
-44.905277
 30
0.0
 10
36.263604
 20
-44.425741
 30
0.0
  0
SPLINE
  5
18c
100
AcDbEntity
  8
0
 62
7
100
AcDbSpline
 70
8
 71
3
 72
8
 73
4
 74
0
 40
0
 40
0
 40
0
 40
0
 40
1
 40
1
 40
1
 40
1
 10
36.263604
 20
-44.425741
 30
0.0
 10
36.263604
 20
-43.946205
 30
0.0
 10
36.519434
 20
-43.503096
 30
0.0
 10
36.934724
 20
-43.263328
 30
0.0
  0
SPLINE
  5
18d
100
AcDbEntity
  8
0
 62
7
100
AcDbSpline
 70
8
 71
3
 72
8
 73
4
 74
0
 40
0
 40
0
 40
0
 40
0
 40
1
 40
1
 40
1
 40
1
 10
36.934724
 20
-43.263328
 30
0.0
 10
37.350014
 20
-43.023560
 30
0.0
 10
37.861673
 20
-43.023560
 30
0.0
 10
38.276963
 20
-43.263328
 30
0.0
  0
SPLINE
  5
18e
100
AcDbEntity
  8
0
 62
7
100
AcDbSpline
 70
8
 71
3
 72
8
 73
4
 74
0
 40
0
 40
0
 40
0
 40
0
 40
1
 40
1
 40
1
 40
1
 10
38.276963
 20
-43.263328
 30
0.0
 10
38.692253
 20
-43.503096
 30
0.0
 10
38.948083
 20
-43.946205
 30
0.0
 10
38.948083
 20
-44.425741
 30
0.0
  0
LINE
  5
18f
100
AcDbEntity
  8
0
 62
7
100
AcDbLine
 10
38.948083
 20
-44.425741
 30
0.0
 11
38.948083
 21
-44.425741
 31
0.0
  0
SPLINE
  5
190
100
AcDbEntity
  8
0
 62
7
100
AcDbSpline
 70
8
 71
3
 72
8
 73
4
 74
0
 40
0
 40
0
 40
0
 40
0
 40
1
 40
1
 40
1
 40
1
 10
28.788092
 20
-44.425741
 30
0.0
 10
28.788092
 20
-44.905277
 30
0.0
 10
28.532263
 20
-45.348386
 30
0.0
 10
28.116972
 20
-45.588154
 30
0.0
  0
SPLINE
  5
191
100
AcDbEntity
  8
0
 62
7
100
AcDbSpline
 70
8
 71
3
 72
8
 73
4
 74
0
 40
0
 40
0
 40
0
 40
0
 40
1
 40
1
 40
1
 40
1
 10
28.116972
 20
-45.588154
 30
0.0
 10
27.701682
 20
-45.827921
 30
0.0
 10
27.190024
 20
-45.827921
 30
0.0
 10
26.774733
 20
-45.588154
 30
0.0
  0
SPLINE
  5
192
100
AcDbEntity
  8
0
 62
7
100
AcDbSpline
 70
8
 71
3
 72
8
 73
4
 74
0
 40
0
 40
0
 40
0
 40
0
 40
1
 40
1
 40
1
 40
1
 10
26.774733
 20
-45.588154
 30
0.0
 10
26.359443
 20
-45.348386
 30
0.0
 10
26.103614
 20
-44.905277
 30
0.0
 10
26.103614
 20
-44.425741
 30
0.0
  0
SPLINE
  5
193
100
AcDbEntity
  8
0
 62
7
100
AcDbSpline
 70
8
 71
3
 72
8
 73
4
 74
0
 40
0
 40
0
 40
0
 40
0
 40
1
 40
1
 40
1
 40
1
 10
26.103614
 20
-44.425741
 30
0.0
 10
26.103614
 20
-43.946205
 30
0.0
 10
26.359443
 20
-43.503096
 30
0.0
 10
26.774733
 20
-43.263328
 30
0.0
  0
SPLINE
  5
194
100
AcDbEntity
  8
0
 62
7
100
AcDbSpline
 70
8
 71
3
 72
8
 73
4
 74
0
 40
0
 40
0
 40
0
 40
0
 40
1
 40
1
 40
1
 40
1
 10
26.774733
 20
-43.263328
 30
0.0
 10
27.190024
 20
-43.023560
 30
0.0
 10
27.701682
 20
-43.023560
 30
0.0
 10
28.116972
 20
-43.263328
 30
0.0
  0
SPLINE
  5
195
100
AcDbEntity
  8
0
 62
7
100
AcDbSpline
 70
8
 71
3
 72
8
 73
4
 74
0
 40
0
 40
0
 40
0
 40
0
 40
1
 40
1
 40
1
 40
1
 10
28.116972
 20
-43.263328
 30
0.0
 10
28.532263
 20
-43.503096
 30
0.0
 10
28.788092
 20
-43.946205
 30
0.0
 10
28.788092
 20
-44.425741
 30
0.0
  0
LINE
  5
196
100
AcDbEntity
  8
0
 62
7
100
AcDbLine
 10
28.788092
 20
-44.425741
 30
0.0
 11
28.788092
 21
-44.425741
 31
0.0
  0
SPLINE
  5
197
100
AcDbEntity
  8
0
 62
7
100
AcDbSpline
 70
8
 71
3
 72
8
 73
4
 74
0
 40
0
 40
0
 40
0
 40
0
 40
1
 40
1
 40
1
 40
1
 10
18.628101
 20
-44.425741
 30
0.0
 10
18.628101
 20
-44.905277
 30
0.0
 10
18.372272
 20
-45.348386
 30
0.0
 10
17.956982
 20
-45.588154
 30
0.0
  0
SPLINE
  5
198
100
AcDbEntity
  8
0
 62
7
100
AcDbSpline
 70
8
 71
3
 72
8
 73
4
 74
0
 40
0
 40
0
 40
0
 40
0
 40
1
 40
1
 40
1
 40
1
 10
17.956982
 20
-45.588154
 30
0.0
 10
17.541691
 20
-45.827921
 30
0.0
 10
17.030033
 20
-45.827921
 30
0.0
 10
16.614743
 20
-45.588154
 30
0.0
  0
SPLINE
  5
199
100
AcDbEntity
  8
0
 62
7
100
AcDbSpline
 70
8
 71
3
 72
8
 73
4
 74
0
 40
0
 40
0
 40
0
 40
0
 40
1
 40
1
 40
1
 40
1
 10
16.614743
 20
-45.588154
 30
0.0
 10
16.199452
 20
-45.348386
 30
0.0
 10
15.943623
 20
-44.905277
 30
0.0
 10
15.943623
 20
-44.425741
 30
0.0
  0
SPLINE
  5
19a
100
AcDbEntity
  8
0
 62
7
100
AcDbSpline
 70
8
 71
3
 72
8
 73
4
 74
0
 40
0
 40
0
 40
0
 40
0
 40
1
 40
1
 40
1
 40
1
 10
15.943623
 20
-44.425741
 30
0.0
 10
15.943623
 20
-43.946205
 30
0.0
 10
16.199452
 20
-43.503096
 30
0.0
 10
16.614743
 20
-43.263328
 30
0.0
  0
SPLINE
  5
19b
100
AcDbEntity
  8
0
 62
7
100
AcDbSpline
 70
8
 71
3
 72
8
 73
4
 74
0
 40
0
 40
0
 40
0
 40
0
 40
1
 40
1
 40
1
 40
1
 10
16.614743
 20
-43.263328
 30
0.0
 10
17.030033
 20
-43.023560
 30
0.0
 10
17.541691
 20
-43.023560
 30
0.0
 10
17.956982
 20
-43.263328
 30
0.0
  0
SPLINE
  5
19c
100
AcDbEntity
  8
0
 62
7
100
AcDbSpline
 70
8
 71
3
 72
8
 73
4
 74
0
 40
0
 40
0
 40
0
 40
0
 40
1
 40
1
 40
1
 40
1
 10
17.956982
 20
-43.263328
 30
0.0
 10
18.372272
 20
-43.503096
 30
0.0
 10
18.628101
 20
-43.946205
 30
0.0
 10
18.628101
 20
-44.425741
 30
0.0
  0
LINE
  5
19d
100
AcDbEntity
  8
0
 62
7
100
AcDbLine
 10
18.628101
 20
-44.425741
 30
0.0
 11
18.628101
 21
-44.425741
 31
0.0
  0
SPLINE
  5
19e
100
AcDbEntity
  8
0
 62
7
100
AcDbSpline
 70
8
 71
3
 72
8
 73
4
 74
0
 40
0
 40
0
 40
0
 40
0
 40
1
 40
1
 40
1
 40
1
 10
67.947238
 20
-53.686572
 30
0.0
 10
67.947238
 20
-54.166108
 30
0.0
 10
67.691409
 20
-54.609217
 30
0.0
 10
67.276118
 20
-54.848985
 30
0.0
  0
SPLINE
  5
19f
100
AcDbEntity
  8
0
 62
7
100
AcDbSpline
 70
8
 71
3
 72
8
 73
4
 74
0
 40
0
 40
0
 40
0
 40
0
 40
1
 40
1
 40
1
 40
1
 10
67.276118
 20
-54.848985
 30
0.0
 10
66.860828
 20
-55.088753
 30
0.0
 10
66.349169
 20
-55.088753
 30
0.0
 10
65.933879
 20
-54.848985
 30
0.0
  0
SPLINE
  5
1a0
100
AcDbEntity
  8
0
 62
7
100
AcDbSpline
 70
8
 71
3
 72
8
 73
4
 74
0
 40
0
 40
0
 40
0
 40
0
 40
1
 40
1
 40
1
 40
1
 10
65.933879
 20
-54.848985
 30
0.0
 10
65.518589
 20
-54.609217
 30
0.0
 10
65.262760
 20
-54.166108
 30
0.0
 10
65.262760
 20
-53.686572
 30
0.0
  0
SPLINE
  5
1a1
100
AcDbEntity
  8
0
 62
7
100
AcDbSpline
 70
8
 71
3
 72
8
 73
4
 74
0
 40
0
 40
0
 40
0
 40
0
 40
1
 40
1
 40
1
 40
1
 10
65.262760
 20
-53.686572
 30
0.0
 10
65.262760
 20
-53.207037
 30
0.0
 10
65.518589
 20
-52.763927
 30
0.0
 10
65.933879
 20
-52.524160
 30
0.0
  0
SPLINE
  5
1a2
100
AcDbEntity
  8
0
 62
7
100
AcDbSpline
 70
8
 71
3
 72
8
 73
4
 74
0
 40
0
 40
0
 40
0
 40
0
 40
1
 40
1
 40
1
 40
1
 10
65.933879
 20
-52.524160
 30
0.0
 10
66.349169
 20
-52.284392
 30
0.0
 10
66.860828
 20
-52.284392
 30
0.0
 10
67.276118
 20
-52.524160
 30
0.0
  0
SPLINE
  5
1a3
100
AcDbEntity
  8
0
 62
7
100
AcDbSpline
 70
8
 71
3
 72
8
 73
4
 74
0
 40
0
 40
0
 40
0
 40
0
 40
1
 40
1
 40
1
 40
1
 10
67.276118
 20
-52.524160
 30
0.0
 10
67.691409
 20
-52.763927
 30
0.0
 10
67.947238
 20
-53.207037
 30
0.0
 10
67.947238
 20
-53.686572
 30
0.0
  0
LINE
  5
1a4
100
AcDbEntity
  8
0
 62
7
100
AcDbLine
 10
67.947238
 20
-53.686572
 30
0.0
 11
67.947238
 21
-53.686572
 31
0.0
  0
SPLINE
  5
1a5
100
AcDbEntity
  8
0
 62
7
100
AcDbSpline
 70
8
 71
3
 72
8
 73
4
 74
0
 40
0
 40
0
 40
0
 40
0
 40
1
 40
1
 40
1
 40
1
 10
9.948929
 20
-53.686572
 30
0.0
 10
9.948929
 20
-54.166108
 30
0.0
 10
9.693100
 20
-54.609217
 30
0.0
 10
9.277810
 20
-54.848985
 30
0.0
  0
SPLINE
  5
1a6
100
AcDbEntity
  8
0
 62
7
100
AcDbSpline
 70
8
 71
3
 72
8
 73
4
 74
0
 40
0
 40
0
 40
0
 40
0
 40
1
 40
1
 40
1
 40
1
 10
9.277810
 20
-54.848985
 30
0.0
 10
8.862520
 20
-55.088753
 30
0.0
 10
8.350861
 20
-55.088753
 30
0.0
 10
7.935571
 20
-54.848985
 30
0.0
  0
SPLINE
  5
1a7
100
AcDbEntity
  8
0
 62
7
100
AcDbSpline
 70
8
 71
3
 72
8
 73
4
 74
0
 40
0
 40
0
 40
0
 40
0
 40
1
 40
1
 40
1
 40
1
 10
7.935571
 20
-54.848985
 30
0.0
 10
7.520280
 20
-54.609217
 30
0.0
 10
7.264451
 20
-54.166108
 30
0.0
 10
7.264451
 20
-53.686572
 30
0.0
  0
SPLINE
  5
1a8
100
AcDbEntity
  8
0
 62
7
100
AcDbSpline
 70
8
 71
3
 72
8
 73
4
 74
0
 40
0
 40
0
 40
0
 40
0
 40
1
 40
1
 40
1
 40
1
 10
7.264451
 20
-53.686572
 30
0.0
 10
7.264451
 20
-52.945274
 30
0.0
 10
7.865392
 20
-52.344334
 30
0.0
 10
8.606690
 20
-52.344334
 30
0.0
  0
SPLINE
  5
1a9
100
AcDbEntity
  8
0
 62
7
100
AcDbSpline
 70
8
 71
3
 72
8
 73
4
 74
0
 40
0
 40
0
 40
0
 40
0
 40
1
 40
1
 40
1
 40
1
 10
8.606690
 20
-52.344334
 30
0.0
 10
9.347988
 20
-52.344334
 30
0.0
 10
9.948929
 20
-52.945274
 30
0.0
 10
9.948929
 20
-53.686572
 30
0.0
  0
LINE
  5
1aa
100
AcDbEntity
  8
0
 62
7
100
AcDbLine
 10
9.948929
 20
-53.686572
 30
0.0
 11
9.948929
 21
-53.686572
 31
0.0
  0
ENDSEC
  0
SECTION
  2
OBJECTS
  0
DICTIONARY
  5
C
330
0
100
AcDbDictionary
  3
ACAD_GROUP
350
D
  3
ACAD_MLINESTYLE
350
17
  0
DICTIONARY
  5
D
330
C
100
AcDbDictionary
  0
DICTIONARY
  5
1A
330
C
100
AcDbDictionary
  0
DICTIONARY
  5
17
330
C
100
AcDbDictionary
  3
STANDARD
350
18
  0
DICTIONARY
  5
19
330
C
100
AcDbDictionary
  0
ENDSEC
  0
EOF
