G04 #@! TF.GenerationSoftware,KiCad,Pcbnew,5.1.5-52549c5~86~ubuntu18.04.1*
G04 #@! TF.CreationDate,2020-09-23T16:13:49-05:00*
G04 #@! TF.ProjectId,,58585858-5858-4585-9858-585858585858,rev?*
G04 #@! TF.SameCoordinates,Original*
G04 #@! TF.FileFunction,Soldermask,Top*
G04 #@! TF.FilePolarity,Negative*
%FSLAX46Y46*%
G04 Gerber Fmt 4.6, Leading zero omitted, Abs format (unit mm)*
G04 Created by KiCad (PCBNEW 5.1.5-52549c5~86~ubuntu18.04.1) date 2020-09-23 16:13:49*
%MOMM*%
%LPD*%
G04 APERTURE LIST*
%ADD10C,0.100000*%
G04 APERTURE END LIST*
D10*
G36*
X152002103Y-123506075D02*
G01*
X152229771Y-123600378D01*
X152434666Y-123737285D01*
X152608915Y-123911534D01*
X152745822Y-124116429D01*
X152840125Y-124344097D01*
X152888200Y-124585787D01*
X152888200Y-124832213D01*
X152840125Y-125073903D01*
X152745822Y-125301571D01*
X152608915Y-125506466D01*
X152434666Y-125680715D01*
X152229771Y-125817622D01*
X152229770Y-125817623D01*
X152229769Y-125817623D01*
X152002103Y-125911925D01*
X151760414Y-125960000D01*
X151513986Y-125960000D01*
X151272297Y-125911925D01*
X151044631Y-125817623D01*
X151044630Y-125817623D01*
X151044629Y-125817622D01*
X150839734Y-125680715D01*
X150665485Y-125506466D01*
X150528578Y-125301571D01*
X150434275Y-125073903D01*
X150386200Y-124832213D01*
X150386200Y-124585787D01*
X150434275Y-124344097D01*
X150528578Y-124116429D01*
X150665485Y-123911534D01*
X150839734Y-123737285D01*
X151044629Y-123600378D01*
X151272297Y-123506075D01*
X151513986Y-123458000D01*
X151760414Y-123458000D01*
X152002103Y-123506075D01*
G37*
G36*
X124002103Y-123506075D02*
G01*
X124229771Y-123600378D01*
X124434666Y-123737285D01*
X124608915Y-123911534D01*
X124745822Y-124116429D01*
X124840125Y-124344097D01*
X124888200Y-124585787D01*
X124888200Y-124832213D01*
X124840125Y-125073903D01*
X124745822Y-125301571D01*
X124608915Y-125506466D01*
X124434666Y-125680715D01*
X124229771Y-125817622D01*
X124229770Y-125817623D01*
X124229769Y-125817623D01*
X124002103Y-125911925D01*
X123760414Y-125960000D01*
X123513986Y-125960000D01*
X123272297Y-125911925D01*
X123044631Y-125817623D01*
X123044630Y-125817623D01*
X123044629Y-125817622D01*
X122839734Y-125680715D01*
X122665485Y-125506466D01*
X122528578Y-125301571D01*
X122434275Y-125073903D01*
X122386200Y-124832213D01*
X122386200Y-124585787D01*
X122434275Y-124344097D01*
X122528578Y-124116429D01*
X122665485Y-123911534D01*
X122839734Y-123737285D01*
X123044629Y-123600378D01*
X123272297Y-123506075D01*
X123513986Y-123458000D01*
X123760414Y-123458000D01*
X124002103Y-123506075D01*
G37*
G36*
X103002103Y-123506075D02*
G01*
X103229771Y-123600378D01*
X103434666Y-123737285D01*
X103608915Y-123911534D01*
X103745822Y-124116429D01*
X103840125Y-124344097D01*
X103888200Y-124585787D01*
X103888200Y-124832213D01*
X103840125Y-125073903D01*
X103745822Y-125301571D01*
X103608915Y-125506466D01*
X103434666Y-125680715D01*
X103229771Y-125817622D01*
X103229770Y-125817623D01*
X103229769Y-125817623D01*
X103002103Y-125911925D01*
X102760414Y-125960000D01*
X102513986Y-125960000D01*
X102272297Y-125911925D01*
X102044631Y-125817623D01*
X102044630Y-125817623D01*
X102044629Y-125817622D01*
X101839734Y-125680715D01*
X101665485Y-125506466D01*
X101528578Y-125301571D01*
X101434275Y-125073903D01*
X101386200Y-124832213D01*
X101386200Y-124585787D01*
X101434275Y-124344097D01*
X101528578Y-124116429D01*
X101665485Y-123911534D01*
X101839734Y-123737285D01*
X102044629Y-123600378D01*
X102272297Y-123506075D01*
X102513986Y-123458000D01*
X102760414Y-123458000D01*
X103002103Y-123506075D01*
G37*
G36*
X106502103Y-123506075D02*
G01*
X106729771Y-123600378D01*
X106934666Y-123737285D01*
X107108915Y-123911534D01*
X107245822Y-124116429D01*
X107340125Y-124344097D01*
X107388200Y-124585787D01*
X107388200Y-124832213D01*
X107340125Y-125073903D01*
X107245822Y-125301571D01*
X107108915Y-125506466D01*
X106934666Y-125680715D01*
X106729771Y-125817622D01*
X106729770Y-125817623D01*
X106729769Y-125817623D01*
X106502103Y-125911925D01*
X106260414Y-125960000D01*
X106013986Y-125960000D01*
X105772297Y-125911925D01*
X105544631Y-125817623D01*
X105544630Y-125817623D01*
X105544629Y-125817622D01*
X105339734Y-125680715D01*
X105165485Y-125506466D01*
X105028578Y-125301571D01*
X104934275Y-125073903D01*
X104886200Y-124832213D01*
X104886200Y-124585787D01*
X104934275Y-124344097D01*
X105028578Y-124116429D01*
X105165485Y-123911534D01*
X105339734Y-123737285D01*
X105544629Y-123600378D01*
X105772297Y-123506075D01*
X106013986Y-123458000D01*
X106260414Y-123458000D01*
X106502103Y-123506075D01*
G37*
G36*
X110002103Y-123506075D02*
G01*
X110229771Y-123600378D01*
X110434666Y-123737285D01*
X110608915Y-123911534D01*
X110745822Y-124116429D01*
X110840125Y-124344097D01*
X110888200Y-124585787D01*
X110888200Y-124832213D01*
X110840125Y-125073903D01*
X110745822Y-125301571D01*
X110608915Y-125506466D01*
X110434666Y-125680715D01*
X110229771Y-125817622D01*
X110229770Y-125817623D01*
X110229769Y-125817623D01*
X110002103Y-125911925D01*
X109760414Y-125960000D01*
X109513986Y-125960000D01*
X109272297Y-125911925D01*
X109044631Y-125817623D01*
X109044630Y-125817623D01*
X109044629Y-125817622D01*
X108839734Y-125680715D01*
X108665485Y-125506466D01*
X108528578Y-125301571D01*
X108434275Y-125073903D01*
X108386200Y-124832213D01*
X108386200Y-124585787D01*
X108434275Y-124344097D01*
X108528578Y-124116429D01*
X108665485Y-123911534D01*
X108839734Y-123737285D01*
X109044629Y-123600378D01*
X109272297Y-123506075D01*
X109513986Y-123458000D01*
X109760414Y-123458000D01*
X110002103Y-123506075D01*
G37*
G36*
X113502103Y-123506075D02*
G01*
X113729771Y-123600378D01*
X113934666Y-123737285D01*
X114108915Y-123911534D01*
X114245822Y-124116429D01*
X114340125Y-124344097D01*
X114388200Y-124585787D01*
X114388200Y-124832213D01*
X114340125Y-125073903D01*
X114245822Y-125301571D01*
X114108915Y-125506466D01*
X113934666Y-125680715D01*
X113729771Y-125817622D01*
X113729770Y-125817623D01*
X113729769Y-125817623D01*
X113502103Y-125911925D01*
X113260414Y-125960000D01*
X113013986Y-125960000D01*
X112772297Y-125911925D01*
X112544631Y-125817623D01*
X112544630Y-125817623D01*
X112544629Y-125817622D01*
X112339734Y-125680715D01*
X112165485Y-125506466D01*
X112028578Y-125301571D01*
X111934275Y-125073903D01*
X111886200Y-124832213D01*
X111886200Y-124585787D01*
X111934275Y-124344097D01*
X112028578Y-124116429D01*
X112165485Y-123911534D01*
X112339734Y-123737285D01*
X112544629Y-123600378D01*
X112772297Y-123506075D01*
X113013986Y-123458000D01*
X113260414Y-123458000D01*
X113502103Y-123506075D01*
G37*
G36*
X117002103Y-123506075D02*
G01*
X117229771Y-123600378D01*
X117434666Y-123737285D01*
X117608915Y-123911534D01*
X117745822Y-124116429D01*
X117840125Y-124344097D01*
X117888200Y-124585787D01*
X117888200Y-124832213D01*
X117840125Y-125073903D01*
X117745822Y-125301571D01*
X117608915Y-125506466D01*
X117434666Y-125680715D01*
X117229771Y-125817622D01*
X117229770Y-125817623D01*
X117229769Y-125817623D01*
X117002103Y-125911925D01*
X116760414Y-125960000D01*
X116513986Y-125960000D01*
X116272297Y-125911925D01*
X116044631Y-125817623D01*
X116044630Y-125817623D01*
X116044629Y-125817622D01*
X115839734Y-125680715D01*
X115665485Y-125506466D01*
X115528578Y-125301571D01*
X115434275Y-125073903D01*
X115386200Y-124832213D01*
X115386200Y-124585787D01*
X115434275Y-124344097D01*
X115528578Y-124116429D01*
X115665485Y-123911534D01*
X115839734Y-123737285D01*
X116044629Y-123600378D01*
X116272297Y-123506075D01*
X116513986Y-123458000D01*
X116760414Y-123458000D01*
X117002103Y-123506075D01*
G37*
G36*
X120502103Y-123506075D02*
G01*
X120729771Y-123600378D01*
X120934666Y-123737285D01*
X121108915Y-123911534D01*
X121245822Y-124116429D01*
X121340125Y-124344097D01*
X121388200Y-124585787D01*
X121388200Y-124832213D01*
X121340125Y-125073903D01*
X121245822Y-125301571D01*
X121108915Y-125506466D01*
X120934666Y-125680715D01*
X120729771Y-125817622D01*
X120729770Y-125817623D01*
X120729769Y-125817623D01*
X120502103Y-125911925D01*
X120260414Y-125960000D01*
X120013986Y-125960000D01*
X119772297Y-125911925D01*
X119544631Y-125817623D01*
X119544630Y-125817623D01*
X119544629Y-125817622D01*
X119339734Y-125680715D01*
X119165485Y-125506466D01*
X119028578Y-125301571D01*
X118934275Y-125073903D01*
X118886200Y-124832213D01*
X118886200Y-124585787D01*
X118934275Y-124344097D01*
X119028578Y-124116429D01*
X119165485Y-123911534D01*
X119339734Y-123737285D01*
X119544629Y-123600378D01*
X119772297Y-123506075D01*
X120013986Y-123458000D01*
X120260414Y-123458000D01*
X120502103Y-123506075D01*
G37*
G36*
X131002103Y-123506075D02*
G01*
X131229771Y-123600378D01*
X131434666Y-123737285D01*
X131608915Y-123911534D01*
X131745822Y-124116429D01*
X131840125Y-124344097D01*
X131888200Y-124585787D01*
X131888200Y-124832213D01*
X131840125Y-125073903D01*
X131745822Y-125301571D01*
X131608915Y-125506466D01*
X131434666Y-125680715D01*
X131229771Y-125817622D01*
X131229770Y-125817623D01*
X131229769Y-125817623D01*
X131002103Y-125911925D01*
X130760414Y-125960000D01*
X130513986Y-125960000D01*
X130272297Y-125911925D01*
X130044631Y-125817623D01*
X130044630Y-125817623D01*
X130044629Y-125817622D01*
X129839734Y-125680715D01*
X129665485Y-125506466D01*
X129528578Y-125301571D01*
X129434275Y-125073903D01*
X129386200Y-124832213D01*
X129386200Y-124585787D01*
X129434275Y-124344097D01*
X129528578Y-124116429D01*
X129665485Y-123911534D01*
X129839734Y-123737285D01*
X130044629Y-123600378D01*
X130272297Y-123506075D01*
X130513986Y-123458000D01*
X130760414Y-123458000D01*
X131002103Y-123506075D01*
G37*
G36*
X134502103Y-123506075D02*
G01*
X134729771Y-123600378D01*
X134934666Y-123737285D01*
X135108915Y-123911534D01*
X135245822Y-124116429D01*
X135340125Y-124344097D01*
X135388200Y-124585787D01*
X135388200Y-124832213D01*
X135340125Y-125073903D01*
X135245822Y-125301571D01*
X135108915Y-125506466D01*
X134934666Y-125680715D01*
X134729771Y-125817622D01*
X134729770Y-125817623D01*
X134729769Y-125817623D01*
X134502103Y-125911925D01*
X134260414Y-125960000D01*
X134013986Y-125960000D01*
X133772297Y-125911925D01*
X133544631Y-125817623D01*
X133544630Y-125817623D01*
X133544629Y-125817622D01*
X133339734Y-125680715D01*
X133165485Y-125506466D01*
X133028578Y-125301571D01*
X132934275Y-125073903D01*
X132886200Y-124832213D01*
X132886200Y-124585787D01*
X132934275Y-124344097D01*
X133028578Y-124116429D01*
X133165485Y-123911534D01*
X133339734Y-123737285D01*
X133544629Y-123600378D01*
X133772297Y-123506075D01*
X134013986Y-123458000D01*
X134260414Y-123458000D01*
X134502103Y-123506075D01*
G37*
G36*
X138002103Y-123506075D02*
G01*
X138229771Y-123600378D01*
X138434666Y-123737285D01*
X138608915Y-123911534D01*
X138745822Y-124116429D01*
X138840125Y-124344097D01*
X138888200Y-124585787D01*
X138888200Y-124832213D01*
X138840125Y-125073903D01*
X138745822Y-125301571D01*
X138608915Y-125506466D01*
X138434666Y-125680715D01*
X138229771Y-125817622D01*
X138229770Y-125817623D01*
X138229769Y-125817623D01*
X138002103Y-125911925D01*
X137760414Y-125960000D01*
X137513986Y-125960000D01*
X137272297Y-125911925D01*
X137044631Y-125817623D01*
X137044630Y-125817623D01*
X137044629Y-125817622D01*
X136839734Y-125680715D01*
X136665485Y-125506466D01*
X136528578Y-125301571D01*
X136434275Y-125073903D01*
X136386200Y-124832213D01*
X136386200Y-124585787D01*
X136434275Y-124344097D01*
X136528578Y-124116429D01*
X136665485Y-123911534D01*
X136839734Y-123737285D01*
X137044629Y-123600378D01*
X137272297Y-123506075D01*
X137513986Y-123458000D01*
X137760414Y-123458000D01*
X138002103Y-123506075D01*
G37*
G36*
X141502103Y-123506075D02*
G01*
X141729771Y-123600378D01*
X141934666Y-123737285D01*
X142108915Y-123911534D01*
X142245822Y-124116429D01*
X142340125Y-124344097D01*
X142388200Y-124585787D01*
X142388200Y-124832213D01*
X142340125Y-125073903D01*
X142245822Y-125301571D01*
X142108915Y-125506466D01*
X141934666Y-125680715D01*
X141729771Y-125817622D01*
X141729770Y-125817623D01*
X141729769Y-125817623D01*
X141502103Y-125911925D01*
X141260414Y-125960000D01*
X141013986Y-125960000D01*
X140772297Y-125911925D01*
X140544631Y-125817623D01*
X140544630Y-125817623D01*
X140544629Y-125817622D01*
X140339734Y-125680715D01*
X140165485Y-125506466D01*
X140028578Y-125301571D01*
X139934275Y-125073903D01*
X139886200Y-124832213D01*
X139886200Y-124585787D01*
X139934275Y-124344097D01*
X140028578Y-124116429D01*
X140165485Y-123911534D01*
X140339734Y-123737285D01*
X140544629Y-123600378D01*
X140772297Y-123506075D01*
X141013986Y-123458000D01*
X141260414Y-123458000D01*
X141502103Y-123506075D01*
G37*
G36*
X145002103Y-123506075D02*
G01*
X145229771Y-123600378D01*
X145434666Y-123737285D01*
X145608915Y-123911534D01*
X145745822Y-124116429D01*
X145840125Y-124344097D01*
X145888200Y-124585787D01*
X145888200Y-124832213D01*
X145840125Y-125073903D01*
X145745822Y-125301571D01*
X145608915Y-125506466D01*
X145434666Y-125680715D01*
X145229771Y-125817622D01*
X145229770Y-125817623D01*
X145229769Y-125817623D01*
X145002103Y-125911925D01*
X144760414Y-125960000D01*
X144513986Y-125960000D01*
X144272297Y-125911925D01*
X144044631Y-125817623D01*
X144044630Y-125817623D01*
X144044629Y-125817622D01*
X143839734Y-125680715D01*
X143665485Y-125506466D01*
X143528578Y-125301571D01*
X143434275Y-125073903D01*
X143386200Y-124832213D01*
X143386200Y-124585787D01*
X143434275Y-124344097D01*
X143528578Y-124116429D01*
X143665485Y-123911534D01*
X143839734Y-123737285D01*
X144044629Y-123600378D01*
X144272297Y-123506075D01*
X144513986Y-123458000D01*
X144760414Y-123458000D01*
X145002103Y-123506075D01*
G37*
G36*
X148502103Y-123506075D02*
G01*
X148729771Y-123600378D01*
X148934666Y-123737285D01*
X149108915Y-123911534D01*
X149245822Y-124116429D01*
X149340125Y-124344097D01*
X149388200Y-124585787D01*
X149388200Y-124832213D01*
X149340125Y-125073903D01*
X149245822Y-125301571D01*
X149108915Y-125506466D01*
X148934666Y-125680715D01*
X148729771Y-125817622D01*
X148729770Y-125817623D01*
X148729769Y-125817623D01*
X148502103Y-125911925D01*
X148260414Y-125960000D01*
X148013986Y-125960000D01*
X147772297Y-125911925D01*
X147544631Y-125817623D01*
X147544630Y-125817623D01*
X147544629Y-125817622D01*
X147339734Y-125680715D01*
X147165485Y-125506466D01*
X147028578Y-125301571D01*
X146934275Y-125073903D01*
X146886200Y-124832213D01*
X146886200Y-124585787D01*
X146934275Y-124344097D01*
X147028578Y-124116429D01*
X147165485Y-123911534D01*
X147339734Y-123737285D01*
X147544629Y-123600378D01*
X147772297Y-123506075D01*
X148013986Y-123458000D01*
X148260414Y-123458000D01*
X148502103Y-123506075D01*
G37*
G36*
X127502103Y-123506075D02*
G01*
X127729771Y-123600378D01*
X127934666Y-123737285D01*
X128108915Y-123911534D01*
X128245822Y-124116429D01*
X128340125Y-124344097D01*
X128388200Y-124585787D01*
X128388200Y-124832213D01*
X128340125Y-125073903D01*
X128245822Y-125301571D01*
X128108915Y-125506466D01*
X127934666Y-125680715D01*
X127729771Y-125817622D01*
X127729770Y-125817623D01*
X127729769Y-125817623D01*
X127502103Y-125911925D01*
X127260414Y-125960000D01*
X127013986Y-125960000D01*
X126772297Y-125911925D01*
X126544631Y-125817623D01*
X126544630Y-125817623D01*
X126544629Y-125817622D01*
X126339734Y-125680715D01*
X126165485Y-125506466D01*
X126028578Y-125301571D01*
X125934275Y-125073903D01*
X125886200Y-124832213D01*
X125886200Y-124585787D01*
X125934275Y-124344097D01*
X126028578Y-124116429D01*
X126165485Y-123911534D01*
X126339734Y-123737285D01*
X126544629Y-123600378D01*
X126772297Y-123506075D01*
X127013986Y-123458000D01*
X127260414Y-123458000D01*
X127502103Y-123506075D01*
G37*
G36*
X145030712Y-117833727D02*
G01*
X145180012Y-117863424D01*
X145343984Y-117931344D01*
X145491554Y-118029947D01*
X145617053Y-118155446D01*
X145715656Y-118303016D01*
X145783576Y-118466988D01*
X145818200Y-118641059D01*
X145818200Y-118818541D01*
X145783576Y-118992612D01*
X145715656Y-119156584D01*
X145617053Y-119304154D01*
X145491554Y-119429653D01*
X145343984Y-119528256D01*
X145180012Y-119596176D01*
X145030712Y-119625873D01*
X145005942Y-119630800D01*
X144828458Y-119630800D01*
X144803688Y-119625873D01*
X144654388Y-119596176D01*
X144490416Y-119528256D01*
X144342846Y-119429653D01*
X144217347Y-119304154D01*
X144118744Y-119156584D01*
X144050824Y-118992612D01*
X144016200Y-118818541D01*
X144016200Y-118641059D01*
X144050824Y-118466988D01*
X144118744Y-118303016D01*
X144217347Y-118155446D01*
X144342846Y-118029947D01*
X144490416Y-117931344D01*
X144654388Y-117863424D01*
X144803688Y-117833727D01*
X144828458Y-117828800D01*
X145005942Y-117828800D01*
X145030712Y-117833727D01*
G37*
G36*
X109470712Y-117833727D02*
G01*
X109620012Y-117863424D01*
X109783984Y-117931344D01*
X109931554Y-118029947D01*
X110057053Y-118155446D01*
X110155656Y-118303016D01*
X110223576Y-118466988D01*
X110258200Y-118641059D01*
X110258200Y-118818541D01*
X110223576Y-118992612D01*
X110155656Y-119156584D01*
X110057053Y-119304154D01*
X109931554Y-119429653D01*
X109783984Y-119528256D01*
X109620012Y-119596176D01*
X109470712Y-119625873D01*
X109445942Y-119630800D01*
X109268458Y-119630800D01*
X109243688Y-119625873D01*
X109094388Y-119596176D01*
X108930416Y-119528256D01*
X108782846Y-119429653D01*
X108657347Y-119304154D01*
X108558744Y-119156584D01*
X108490824Y-118992612D01*
X108456200Y-118818541D01*
X108456200Y-118641059D01*
X108490824Y-118466988D01*
X108558744Y-118303016D01*
X108657347Y-118155446D01*
X108782846Y-118029947D01*
X108930416Y-117931344D01*
X109094388Y-117863424D01*
X109243688Y-117833727D01*
X109268458Y-117828800D01*
X109445942Y-117828800D01*
X109470712Y-117833727D01*
G37*
G36*
X114550712Y-117833727D02*
G01*
X114700012Y-117863424D01*
X114863984Y-117931344D01*
X115011554Y-118029947D01*
X115137053Y-118155446D01*
X115235656Y-118303016D01*
X115303576Y-118466988D01*
X115338200Y-118641059D01*
X115338200Y-118818541D01*
X115303576Y-118992612D01*
X115235656Y-119156584D01*
X115137053Y-119304154D01*
X115011554Y-119429653D01*
X114863984Y-119528256D01*
X114700012Y-119596176D01*
X114550712Y-119625873D01*
X114525942Y-119630800D01*
X114348458Y-119630800D01*
X114323688Y-119625873D01*
X114174388Y-119596176D01*
X114010416Y-119528256D01*
X113862846Y-119429653D01*
X113737347Y-119304154D01*
X113638744Y-119156584D01*
X113570824Y-118992612D01*
X113536200Y-118818541D01*
X113536200Y-118641059D01*
X113570824Y-118466988D01*
X113638744Y-118303016D01*
X113737347Y-118155446D01*
X113862846Y-118029947D01*
X114010416Y-117931344D01*
X114174388Y-117863424D01*
X114323688Y-117833727D01*
X114348458Y-117828800D01*
X114525942Y-117828800D01*
X114550712Y-117833727D01*
G37*
G36*
X112010712Y-117833727D02*
G01*
X112160012Y-117863424D01*
X112323984Y-117931344D01*
X112471554Y-118029947D01*
X112597053Y-118155446D01*
X112695656Y-118303016D01*
X112763576Y-118466988D01*
X112798200Y-118641059D01*
X112798200Y-118818541D01*
X112763576Y-118992612D01*
X112695656Y-119156584D01*
X112597053Y-119304154D01*
X112471554Y-119429653D01*
X112323984Y-119528256D01*
X112160012Y-119596176D01*
X112010712Y-119625873D01*
X111985942Y-119630800D01*
X111808458Y-119630800D01*
X111783688Y-119625873D01*
X111634388Y-119596176D01*
X111470416Y-119528256D01*
X111322846Y-119429653D01*
X111197347Y-119304154D01*
X111098744Y-119156584D01*
X111030824Y-118992612D01*
X110996200Y-118818541D01*
X110996200Y-118641059D01*
X111030824Y-118466988D01*
X111098744Y-118303016D01*
X111197347Y-118155446D01*
X111322846Y-118029947D01*
X111470416Y-117931344D01*
X111634388Y-117863424D01*
X111783688Y-117833727D01*
X111808458Y-117828800D01*
X111985942Y-117828800D01*
X112010712Y-117833727D01*
G37*
G36*
X117090712Y-117833727D02*
G01*
X117240012Y-117863424D01*
X117403984Y-117931344D01*
X117551554Y-118029947D01*
X117677053Y-118155446D01*
X117775656Y-118303016D01*
X117843576Y-118466988D01*
X117878200Y-118641059D01*
X117878200Y-118818541D01*
X117843576Y-118992612D01*
X117775656Y-119156584D01*
X117677053Y-119304154D01*
X117551554Y-119429653D01*
X117403984Y-119528256D01*
X117240012Y-119596176D01*
X117090712Y-119625873D01*
X117065942Y-119630800D01*
X116888458Y-119630800D01*
X116863688Y-119625873D01*
X116714388Y-119596176D01*
X116550416Y-119528256D01*
X116402846Y-119429653D01*
X116277347Y-119304154D01*
X116178744Y-119156584D01*
X116110824Y-118992612D01*
X116076200Y-118818541D01*
X116076200Y-118641059D01*
X116110824Y-118466988D01*
X116178744Y-118303016D01*
X116277347Y-118155446D01*
X116402846Y-118029947D01*
X116550416Y-117931344D01*
X116714388Y-117863424D01*
X116863688Y-117833727D01*
X116888458Y-117828800D01*
X117065942Y-117828800D01*
X117090712Y-117833727D01*
G37*
G36*
X122170712Y-117833727D02*
G01*
X122320012Y-117863424D01*
X122483984Y-117931344D01*
X122631554Y-118029947D01*
X122757053Y-118155446D01*
X122855656Y-118303016D01*
X122923576Y-118466988D01*
X122958200Y-118641059D01*
X122958200Y-118818541D01*
X122923576Y-118992612D01*
X122855656Y-119156584D01*
X122757053Y-119304154D01*
X122631554Y-119429653D01*
X122483984Y-119528256D01*
X122320012Y-119596176D01*
X122170712Y-119625873D01*
X122145942Y-119630800D01*
X121968458Y-119630800D01*
X121943688Y-119625873D01*
X121794388Y-119596176D01*
X121630416Y-119528256D01*
X121482846Y-119429653D01*
X121357347Y-119304154D01*
X121258744Y-119156584D01*
X121190824Y-118992612D01*
X121156200Y-118818541D01*
X121156200Y-118641059D01*
X121190824Y-118466988D01*
X121258744Y-118303016D01*
X121357347Y-118155446D01*
X121482846Y-118029947D01*
X121630416Y-117931344D01*
X121794388Y-117863424D01*
X121943688Y-117833727D01*
X121968458Y-117828800D01*
X122145942Y-117828800D01*
X122170712Y-117833727D01*
G37*
G36*
X119630712Y-117833727D02*
G01*
X119780012Y-117863424D01*
X119943984Y-117931344D01*
X120091554Y-118029947D01*
X120217053Y-118155446D01*
X120315656Y-118303016D01*
X120383576Y-118466988D01*
X120418200Y-118641059D01*
X120418200Y-118818541D01*
X120383576Y-118992612D01*
X120315656Y-119156584D01*
X120217053Y-119304154D01*
X120091554Y-119429653D01*
X119943984Y-119528256D01*
X119780012Y-119596176D01*
X119630712Y-119625873D01*
X119605942Y-119630800D01*
X119428458Y-119630800D01*
X119403688Y-119625873D01*
X119254388Y-119596176D01*
X119090416Y-119528256D01*
X118942846Y-119429653D01*
X118817347Y-119304154D01*
X118718744Y-119156584D01*
X118650824Y-118992612D01*
X118616200Y-118818541D01*
X118616200Y-118641059D01*
X118650824Y-118466988D01*
X118718744Y-118303016D01*
X118817347Y-118155446D01*
X118942846Y-118029947D01*
X119090416Y-117931344D01*
X119254388Y-117863424D01*
X119403688Y-117833727D01*
X119428458Y-117828800D01*
X119605942Y-117828800D01*
X119630712Y-117833727D01*
G37*
G36*
X142490712Y-117833727D02*
G01*
X142640012Y-117863424D01*
X142803984Y-117931344D01*
X142951554Y-118029947D01*
X143077053Y-118155446D01*
X143175656Y-118303016D01*
X143243576Y-118466988D01*
X143278200Y-118641059D01*
X143278200Y-118818541D01*
X143243576Y-118992612D01*
X143175656Y-119156584D01*
X143077053Y-119304154D01*
X142951554Y-119429653D01*
X142803984Y-119528256D01*
X142640012Y-119596176D01*
X142490712Y-119625873D01*
X142465942Y-119630800D01*
X142288458Y-119630800D01*
X142263688Y-119625873D01*
X142114388Y-119596176D01*
X141950416Y-119528256D01*
X141802846Y-119429653D01*
X141677347Y-119304154D01*
X141578744Y-119156584D01*
X141510824Y-118992612D01*
X141476200Y-118818541D01*
X141476200Y-118641059D01*
X141510824Y-118466988D01*
X141578744Y-118303016D01*
X141677347Y-118155446D01*
X141802846Y-118029947D01*
X141950416Y-117931344D01*
X142114388Y-117863424D01*
X142263688Y-117833727D01*
X142288458Y-117828800D01*
X142465942Y-117828800D01*
X142490712Y-117833727D01*
G37*
G36*
X139950712Y-117833727D02*
G01*
X140100012Y-117863424D01*
X140263984Y-117931344D01*
X140411554Y-118029947D01*
X140537053Y-118155446D01*
X140635656Y-118303016D01*
X140703576Y-118466988D01*
X140738200Y-118641059D01*
X140738200Y-118818541D01*
X140703576Y-118992612D01*
X140635656Y-119156584D01*
X140537053Y-119304154D01*
X140411554Y-119429653D01*
X140263984Y-119528256D01*
X140100012Y-119596176D01*
X139950712Y-119625873D01*
X139925942Y-119630800D01*
X139748458Y-119630800D01*
X139723688Y-119625873D01*
X139574388Y-119596176D01*
X139410416Y-119528256D01*
X139262846Y-119429653D01*
X139137347Y-119304154D01*
X139038744Y-119156584D01*
X138970824Y-118992612D01*
X138936200Y-118818541D01*
X138936200Y-118641059D01*
X138970824Y-118466988D01*
X139038744Y-118303016D01*
X139137347Y-118155446D01*
X139262846Y-118029947D01*
X139410416Y-117931344D01*
X139574388Y-117863424D01*
X139723688Y-117833727D01*
X139748458Y-117828800D01*
X139925942Y-117828800D01*
X139950712Y-117833727D01*
G37*
G36*
X134870712Y-117833727D02*
G01*
X135020012Y-117863424D01*
X135183984Y-117931344D01*
X135331554Y-118029947D01*
X135457053Y-118155446D01*
X135555656Y-118303016D01*
X135623576Y-118466988D01*
X135658200Y-118641059D01*
X135658200Y-118818541D01*
X135623576Y-118992612D01*
X135555656Y-119156584D01*
X135457053Y-119304154D01*
X135331554Y-119429653D01*
X135183984Y-119528256D01*
X135020012Y-119596176D01*
X134870712Y-119625873D01*
X134845942Y-119630800D01*
X134668458Y-119630800D01*
X134643688Y-119625873D01*
X134494388Y-119596176D01*
X134330416Y-119528256D01*
X134182846Y-119429653D01*
X134057347Y-119304154D01*
X133958744Y-119156584D01*
X133890824Y-118992612D01*
X133856200Y-118818541D01*
X133856200Y-118641059D01*
X133890824Y-118466988D01*
X133958744Y-118303016D01*
X134057347Y-118155446D01*
X134182846Y-118029947D01*
X134330416Y-117931344D01*
X134494388Y-117863424D01*
X134643688Y-117833727D01*
X134668458Y-117828800D01*
X134845942Y-117828800D01*
X134870712Y-117833727D01*
G37*
G36*
X132330712Y-117833727D02*
G01*
X132480012Y-117863424D01*
X132643984Y-117931344D01*
X132791554Y-118029947D01*
X132917053Y-118155446D01*
X133015656Y-118303016D01*
X133083576Y-118466988D01*
X133118200Y-118641059D01*
X133118200Y-118818541D01*
X133083576Y-118992612D01*
X133015656Y-119156584D01*
X132917053Y-119304154D01*
X132791554Y-119429653D01*
X132643984Y-119528256D01*
X132480012Y-119596176D01*
X132330712Y-119625873D01*
X132305942Y-119630800D01*
X132128458Y-119630800D01*
X132103688Y-119625873D01*
X131954388Y-119596176D01*
X131790416Y-119528256D01*
X131642846Y-119429653D01*
X131517347Y-119304154D01*
X131418744Y-119156584D01*
X131350824Y-118992612D01*
X131316200Y-118818541D01*
X131316200Y-118641059D01*
X131350824Y-118466988D01*
X131418744Y-118303016D01*
X131517347Y-118155446D01*
X131642846Y-118029947D01*
X131790416Y-117931344D01*
X131954388Y-117863424D01*
X132103688Y-117833727D01*
X132128458Y-117828800D01*
X132305942Y-117828800D01*
X132330712Y-117833727D01*
G37*
G36*
X129790712Y-117833727D02*
G01*
X129940012Y-117863424D01*
X130103984Y-117931344D01*
X130251554Y-118029947D01*
X130377053Y-118155446D01*
X130475656Y-118303016D01*
X130543576Y-118466988D01*
X130578200Y-118641059D01*
X130578200Y-118818541D01*
X130543576Y-118992612D01*
X130475656Y-119156584D01*
X130377053Y-119304154D01*
X130251554Y-119429653D01*
X130103984Y-119528256D01*
X129940012Y-119596176D01*
X129790712Y-119625873D01*
X129765942Y-119630800D01*
X129588458Y-119630800D01*
X129563688Y-119625873D01*
X129414388Y-119596176D01*
X129250416Y-119528256D01*
X129102846Y-119429653D01*
X128977347Y-119304154D01*
X128878744Y-119156584D01*
X128810824Y-118992612D01*
X128776200Y-118818541D01*
X128776200Y-118641059D01*
X128810824Y-118466988D01*
X128878744Y-118303016D01*
X128977347Y-118155446D01*
X129102846Y-118029947D01*
X129250416Y-117931344D01*
X129414388Y-117863424D01*
X129563688Y-117833727D01*
X129588458Y-117828800D01*
X129765942Y-117828800D01*
X129790712Y-117833727D01*
G37*
G36*
X127250712Y-117833727D02*
G01*
X127400012Y-117863424D01*
X127563984Y-117931344D01*
X127711554Y-118029947D01*
X127837053Y-118155446D01*
X127935656Y-118303016D01*
X128003576Y-118466988D01*
X128038200Y-118641059D01*
X128038200Y-118818541D01*
X128003576Y-118992612D01*
X127935656Y-119156584D01*
X127837053Y-119304154D01*
X127711554Y-119429653D01*
X127563984Y-119528256D01*
X127400012Y-119596176D01*
X127250712Y-119625873D01*
X127225942Y-119630800D01*
X127048458Y-119630800D01*
X127023688Y-119625873D01*
X126874388Y-119596176D01*
X126710416Y-119528256D01*
X126562846Y-119429653D01*
X126437347Y-119304154D01*
X126338744Y-119156584D01*
X126270824Y-118992612D01*
X126236200Y-118818541D01*
X126236200Y-118641059D01*
X126270824Y-118466988D01*
X126338744Y-118303016D01*
X126437347Y-118155446D01*
X126562846Y-118029947D01*
X126710416Y-117931344D01*
X126874388Y-117863424D01*
X127023688Y-117833727D01*
X127048458Y-117828800D01*
X127225942Y-117828800D01*
X127250712Y-117833727D01*
G37*
G36*
X137410712Y-117833727D02*
G01*
X137560012Y-117863424D01*
X137723984Y-117931344D01*
X137871554Y-118029947D01*
X137997053Y-118155446D01*
X138095656Y-118303016D01*
X138163576Y-118466988D01*
X138198200Y-118641059D01*
X138198200Y-118818541D01*
X138163576Y-118992612D01*
X138095656Y-119156584D01*
X137997053Y-119304154D01*
X137871554Y-119429653D01*
X137723984Y-119528256D01*
X137560012Y-119596176D01*
X137410712Y-119625873D01*
X137385942Y-119630800D01*
X137208458Y-119630800D01*
X137183688Y-119625873D01*
X137034388Y-119596176D01*
X136870416Y-119528256D01*
X136722846Y-119429653D01*
X136597347Y-119304154D01*
X136498744Y-119156584D01*
X136430824Y-118992612D01*
X136396200Y-118818541D01*
X136396200Y-118641059D01*
X136430824Y-118466988D01*
X136498744Y-118303016D01*
X136597347Y-118155446D01*
X136722846Y-118029947D01*
X136870416Y-117931344D01*
X137034388Y-117863424D01*
X137183688Y-117833727D01*
X137208458Y-117828800D01*
X137385942Y-117828800D01*
X137410712Y-117833727D01*
G37*
G36*
X124710712Y-117833727D02*
G01*
X124860012Y-117863424D01*
X125023984Y-117931344D01*
X125171554Y-118029947D01*
X125297053Y-118155446D01*
X125395656Y-118303016D01*
X125463576Y-118466988D01*
X125498200Y-118641059D01*
X125498200Y-118818541D01*
X125463576Y-118992612D01*
X125395656Y-119156584D01*
X125297053Y-119304154D01*
X125171554Y-119429653D01*
X125023984Y-119528256D01*
X124860012Y-119596176D01*
X124710712Y-119625873D01*
X124685942Y-119630800D01*
X124508458Y-119630800D01*
X124483688Y-119625873D01*
X124334388Y-119596176D01*
X124170416Y-119528256D01*
X124022846Y-119429653D01*
X123897347Y-119304154D01*
X123798744Y-119156584D01*
X123730824Y-118992612D01*
X123696200Y-118818541D01*
X123696200Y-118641059D01*
X123730824Y-118466988D01*
X123798744Y-118303016D01*
X123897347Y-118155446D01*
X124022846Y-118029947D01*
X124170416Y-117931344D01*
X124334388Y-117863424D01*
X124483688Y-117833727D01*
X124508458Y-117828800D01*
X124685942Y-117828800D01*
X124710712Y-117833727D01*
G37*
G36*
X139950712Y-115293727D02*
G01*
X140100012Y-115323424D01*
X140263984Y-115391344D01*
X140411554Y-115489947D01*
X140537053Y-115615446D01*
X140635656Y-115763016D01*
X140703576Y-115926988D01*
X140738200Y-116101059D01*
X140738200Y-116278541D01*
X140703576Y-116452612D01*
X140635656Y-116616584D01*
X140537053Y-116764154D01*
X140411554Y-116889653D01*
X140263984Y-116988256D01*
X140100012Y-117056176D01*
X139950712Y-117085873D01*
X139925942Y-117090800D01*
X139748458Y-117090800D01*
X139723688Y-117085873D01*
X139574388Y-117056176D01*
X139410416Y-116988256D01*
X139262846Y-116889653D01*
X139137347Y-116764154D01*
X139038744Y-116616584D01*
X138970824Y-116452612D01*
X138936200Y-116278541D01*
X138936200Y-116101059D01*
X138970824Y-115926988D01*
X139038744Y-115763016D01*
X139137347Y-115615446D01*
X139262846Y-115489947D01*
X139410416Y-115391344D01*
X139574388Y-115323424D01*
X139723688Y-115293727D01*
X139748458Y-115288800D01*
X139925942Y-115288800D01*
X139950712Y-115293727D01*
G37*
G36*
X109470712Y-115293727D02*
G01*
X109620012Y-115323424D01*
X109783984Y-115391344D01*
X109931554Y-115489947D01*
X110057053Y-115615446D01*
X110155656Y-115763016D01*
X110223576Y-115926988D01*
X110258200Y-116101059D01*
X110258200Y-116278541D01*
X110223576Y-116452612D01*
X110155656Y-116616584D01*
X110057053Y-116764154D01*
X109931554Y-116889653D01*
X109783984Y-116988256D01*
X109620012Y-117056176D01*
X109470712Y-117085873D01*
X109445942Y-117090800D01*
X109268458Y-117090800D01*
X109243688Y-117085873D01*
X109094388Y-117056176D01*
X108930416Y-116988256D01*
X108782846Y-116889653D01*
X108657347Y-116764154D01*
X108558744Y-116616584D01*
X108490824Y-116452612D01*
X108456200Y-116278541D01*
X108456200Y-116101059D01*
X108490824Y-115926988D01*
X108558744Y-115763016D01*
X108657347Y-115615446D01*
X108782846Y-115489947D01*
X108930416Y-115391344D01*
X109094388Y-115323424D01*
X109243688Y-115293727D01*
X109268458Y-115288800D01*
X109445942Y-115288800D01*
X109470712Y-115293727D01*
G37*
G36*
X112010712Y-115293727D02*
G01*
X112160012Y-115323424D01*
X112323984Y-115391344D01*
X112471554Y-115489947D01*
X112597053Y-115615446D01*
X112695656Y-115763016D01*
X112763576Y-115926988D01*
X112798200Y-116101059D01*
X112798200Y-116278541D01*
X112763576Y-116452612D01*
X112695656Y-116616584D01*
X112597053Y-116764154D01*
X112471554Y-116889653D01*
X112323984Y-116988256D01*
X112160012Y-117056176D01*
X112010712Y-117085873D01*
X111985942Y-117090800D01*
X111808458Y-117090800D01*
X111783688Y-117085873D01*
X111634388Y-117056176D01*
X111470416Y-116988256D01*
X111322846Y-116889653D01*
X111197347Y-116764154D01*
X111098744Y-116616584D01*
X111030824Y-116452612D01*
X110996200Y-116278541D01*
X110996200Y-116101059D01*
X111030824Y-115926988D01*
X111098744Y-115763016D01*
X111197347Y-115615446D01*
X111322846Y-115489947D01*
X111470416Y-115391344D01*
X111634388Y-115323424D01*
X111783688Y-115293727D01*
X111808458Y-115288800D01*
X111985942Y-115288800D01*
X112010712Y-115293727D01*
G37*
G36*
X114550712Y-115293727D02*
G01*
X114700012Y-115323424D01*
X114863984Y-115391344D01*
X115011554Y-115489947D01*
X115137053Y-115615446D01*
X115235656Y-115763016D01*
X115303576Y-115926988D01*
X115338200Y-116101059D01*
X115338200Y-116278541D01*
X115303576Y-116452612D01*
X115235656Y-116616584D01*
X115137053Y-116764154D01*
X115011554Y-116889653D01*
X114863984Y-116988256D01*
X114700012Y-117056176D01*
X114550712Y-117085873D01*
X114525942Y-117090800D01*
X114348458Y-117090800D01*
X114323688Y-117085873D01*
X114174388Y-117056176D01*
X114010416Y-116988256D01*
X113862846Y-116889653D01*
X113737347Y-116764154D01*
X113638744Y-116616584D01*
X113570824Y-116452612D01*
X113536200Y-116278541D01*
X113536200Y-116101059D01*
X113570824Y-115926988D01*
X113638744Y-115763016D01*
X113737347Y-115615446D01*
X113862846Y-115489947D01*
X114010416Y-115391344D01*
X114174388Y-115323424D01*
X114323688Y-115293727D01*
X114348458Y-115288800D01*
X114525942Y-115288800D01*
X114550712Y-115293727D01*
G37*
G36*
X117090712Y-115293727D02*
G01*
X117240012Y-115323424D01*
X117403984Y-115391344D01*
X117551554Y-115489947D01*
X117677053Y-115615446D01*
X117775656Y-115763016D01*
X117843576Y-115926988D01*
X117878200Y-116101059D01*
X117878200Y-116278541D01*
X117843576Y-116452612D01*
X117775656Y-116616584D01*
X117677053Y-116764154D01*
X117551554Y-116889653D01*
X117403984Y-116988256D01*
X117240012Y-117056176D01*
X117090712Y-117085873D01*
X117065942Y-117090800D01*
X116888458Y-117090800D01*
X116863688Y-117085873D01*
X116714388Y-117056176D01*
X116550416Y-116988256D01*
X116402846Y-116889653D01*
X116277347Y-116764154D01*
X116178744Y-116616584D01*
X116110824Y-116452612D01*
X116076200Y-116278541D01*
X116076200Y-116101059D01*
X116110824Y-115926988D01*
X116178744Y-115763016D01*
X116277347Y-115615446D01*
X116402846Y-115489947D01*
X116550416Y-115391344D01*
X116714388Y-115323424D01*
X116863688Y-115293727D01*
X116888458Y-115288800D01*
X117065942Y-115288800D01*
X117090712Y-115293727D01*
G37*
G36*
X119630712Y-115293727D02*
G01*
X119780012Y-115323424D01*
X119943984Y-115391344D01*
X120091554Y-115489947D01*
X120217053Y-115615446D01*
X120315656Y-115763016D01*
X120383576Y-115926988D01*
X120418200Y-116101059D01*
X120418200Y-116278541D01*
X120383576Y-116452612D01*
X120315656Y-116616584D01*
X120217053Y-116764154D01*
X120091554Y-116889653D01*
X119943984Y-116988256D01*
X119780012Y-117056176D01*
X119630712Y-117085873D01*
X119605942Y-117090800D01*
X119428458Y-117090800D01*
X119403688Y-117085873D01*
X119254388Y-117056176D01*
X119090416Y-116988256D01*
X118942846Y-116889653D01*
X118817347Y-116764154D01*
X118718744Y-116616584D01*
X118650824Y-116452612D01*
X118616200Y-116278541D01*
X118616200Y-116101059D01*
X118650824Y-115926988D01*
X118718744Y-115763016D01*
X118817347Y-115615446D01*
X118942846Y-115489947D01*
X119090416Y-115391344D01*
X119254388Y-115323424D01*
X119403688Y-115293727D01*
X119428458Y-115288800D01*
X119605942Y-115288800D01*
X119630712Y-115293727D01*
G37*
G36*
X122170712Y-115293727D02*
G01*
X122320012Y-115323424D01*
X122483984Y-115391344D01*
X122631554Y-115489947D01*
X122757053Y-115615446D01*
X122855656Y-115763016D01*
X122923576Y-115926988D01*
X122958200Y-116101059D01*
X122958200Y-116278541D01*
X122923576Y-116452612D01*
X122855656Y-116616584D01*
X122757053Y-116764154D01*
X122631554Y-116889653D01*
X122483984Y-116988256D01*
X122320012Y-117056176D01*
X122170712Y-117085873D01*
X122145942Y-117090800D01*
X121968458Y-117090800D01*
X121943688Y-117085873D01*
X121794388Y-117056176D01*
X121630416Y-116988256D01*
X121482846Y-116889653D01*
X121357347Y-116764154D01*
X121258744Y-116616584D01*
X121190824Y-116452612D01*
X121156200Y-116278541D01*
X121156200Y-116101059D01*
X121190824Y-115926988D01*
X121258744Y-115763016D01*
X121357347Y-115615446D01*
X121482846Y-115489947D01*
X121630416Y-115391344D01*
X121794388Y-115323424D01*
X121943688Y-115293727D01*
X121968458Y-115288800D01*
X122145942Y-115288800D01*
X122170712Y-115293727D01*
G37*
G36*
X124710712Y-115293727D02*
G01*
X124860012Y-115323424D01*
X125023984Y-115391344D01*
X125171554Y-115489947D01*
X125297053Y-115615446D01*
X125395656Y-115763016D01*
X125463576Y-115926988D01*
X125498200Y-116101059D01*
X125498200Y-116278541D01*
X125463576Y-116452612D01*
X125395656Y-116616584D01*
X125297053Y-116764154D01*
X125171554Y-116889653D01*
X125023984Y-116988256D01*
X124860012Y-117056176D01*
X124710712Y-117085873D01*
X124685942Y-117090800D01*
X124508458Y-117090800D01*
X124483688Y-117085873D01*
X124334388Y-117056176D01*
X124170416Y-116988256D01*
X124022846Y-116889653D01*
X123897347Y-116764154D01*
X123798744Y-116616584D01*
X123730824Y-116452612D01*
X123696200Y-116278541D01*
X123696200Y-116101059D01*
X123730824Y-115926988D01*
X123798744Y-115763016D01*
X123897347Y-115615446D01*
X124022846Y-115489947D01*
X124170416Y-115391344D01*
X124334388Y-115323424D01*
X124483688Y-115293727D01*
X124508458Y-115288800D01*
X124685942Y-115288800D01*
X124710712Y-115293727D01*
G37*
G36*
X129790712Y-115293727D02*
G01*
X129940012Y-115323424D01*
X130103984Y-115391344D01*
X130251554Y-115489947D01*
X130377053Y-115615446D01*
X130475656Y-115763016D01*
X130543576Y-115926988D01*
X130578200Y-116101059D01*
X130578200Y-116278541D01*
X130543576Y-116452612D01*
X130475656Y-116616584D01*
X130377053Y-116764154D01*
X130251554Y-116889653D01*
X130103984Y-116988256D01*
X129940012Y-117056176D01*
X129790712Y-117085873D01*
X129765942Y-117090800D01*
X129588458Y-117090800D01*
X129563688Y-117085873D01*
X129414388Y-117056176D01*
X129250416Y-116988256D01*
X129102846Y-116889653D01*
X128977347Y-116764154D01*
X128878744Y-116616584D01*
X128810824Y-116452612D01*
X128776200Y-116278541D01*
X128776200Y-116101059D01*
X128810824Y-115926988D01*
X128878744Y-115763016D01*
X128977347Y-115615446D01*
X129102846Y-115489947D01*
X129250416Y-115391344D01*
X129414388Y-115323424D01*
X129563688Y-115293727D01*
X129588458Y-115288800D01*
X129765942Y-115288800D01*
X129790712Y-115293727D01*
G37*
G36*
X132330712Y-115293727D02*
G01*
X132480012Y-115323424D01*
X132643984Y-115391344D01*
X132791554Y-115489947D01*
X132917053Y-115615446D01*
X133015656Y-115763016D01*
X133083576Y-115926988D01*
X133118200Y-116101059D01*
X133118200Y-116278541D01*
X133083576Y-116452612D01*
X133015656Y-116616584D01*
X132917053Y-116764154D01*
X132791554Y-116889653D01*
X132643984Y-116988256D01*
X132480012Y-117056176D01*
X132330712Y-117085873D01*
X132305942Y-117090800D01*
X132128458Y-117090800D01*
X132103688Y-117085873D01*
X131954388Y-117056176D01*
X131790416Y-116988256D01*
X131642846Y-116889653D01*
X131517347Y-116764154D01*
X131418744Y-116616584D01*
X131350824Y-116452612D01*
X131316200Y-116278541D01*
X131316200Y-116101059D01*
X131350824Y-115926988D01*
X131418744Y-115763016D01*
X131517347Y-115615446D01*
X131642846Y-115489947D01*
X131790416Y-115391344D01*
X131954388Y-115323424D01*
X132103688Y-115293727D01*
X132128458Y-115288800D01*
X132305942Y-115288800D01*
X132330712Y-115293727D01*
G37*
G36*
X134870712Y-115293727D02*
G01*
X135020012Y-115323424D01*
X135183984Y-115391344D01*
X135331554Y-115489947D01*
X135457053Y-115615446D01*
X135555656Y-115763016D01*
X135623576Y-115926988D01*
X135658200Y-116101059D01*
X135658200Y-116278541D01*
X135623576Y-116452612D01*
X135555656Y-116616584D01*
X135457053Y-116764154D01*
X135331554Y-116889653D01*
X135183984Y-116988256D01*
X135020012Y-117056176D01*
X134870712Y-117085873D01*
X134845942Y-117090800D01*
X134668458Y-117090800D01*
X134643688Y-117085873D01*
X134494388Y-117056176D01*
X134330416Y-116988256D01*
X134182846Y-116889653D01*
X134057347Y-116764154D01*
X133958744Y-116616584D01*
X133890824Y-116452612D01*
X133856200Y-116278541D01*
X133856200Y-116101059D01*
X133890824Y-115926988D01*
X133958744Y-115763016D01*
X134057347Y-115615446D01*
X134182846Y-115489947D01*
X134330416Y-115391344D01*
X134494388Y-115323424D01*
X134643688Y-115293727D01*
X134668458Y-115288800D01*
X134845942Y-115288800D01*
X134870712Y-115293727D01*
G37*
G36*
X137410712Y-115293727D02*
G01*
X137560012Y-115323424D01*
X137723984Y-115391344D01*
X137871554Y-115489947D01*
X137997053Y-115615446D01*
X138095656Y-115763016D01*
X138163576Y-115926988D01*
X138198200Y-116101059D01*
X138198200Y-116278541D01*
X138163576Y-116452612D01*
X138095656Y-116616584D01*
X137997053Y-116764154D01*
X137871554Y-116889653D01*
X137723984Y-116988256D01*
X137560012Y-117056176D01*
X137410712Y-117085873D01*
X137385942Y-117090800D01*
X137208458Y-117090800D01*
X137183688Y-117085873D01*
X137034388Y-117056176D01*
X136870416Y-116988256D01*
X136722846Y-116889653D01*
X136597347Y-116764154D01*
X136498744Y-116616584D01*
X136430824Y-116452612D01*
X136396200Y-116278541D01*
X136396200Y-116101059D01*
X136430824Y-115926988D01*
X136498744Y-115763016D01*
X136597347Y-115615446D01*
X136722846Y-115489947D01*
X136870416Y-115391344D01*
X137034388Y-115323424D01*
X137183688Y-115293727D01*
X137208458Y-115288800D01*
X137385942Y-115288800D01*
X137410712Y-115293727D01*
G37*
G36*
X142490712Y-115293727D02*
G01*
X142640012Y-115323424D01*
X142803984Y-115391344D01*
X142951554Y-115489947D01*
X143077053Y-115615446D01*
X143175656Y-115763016D01*
X143243576Y-115926988D01*
X143278200Y-116101059D01*
X143278200Y-116278541D01*
X143243576Y-116452612D01*
X143175656Y-116616584D01*
X143077053Y-116764154D01*
X142951554Y-116889653D01*
X142803984Y-116988256D01*
X142640012Y-117056176D01*
X142490712Y-117085873D01*
X142465942Y-117090800D01*
X142288458Y-117090800D01*
X142263688Y-117085873D01*
X142114388Y-117056176D01*
X141950416Y-116988256D01*
X141802846Y-116889653D01*
X141677347Y-116764154D01*
X141578744Y-116616584D01*
X141510824Y-116452612D01*
X141476200Y-116278541D01*
X141476200Y-116101059D01*
X141510824Y-115926988D01*
X141578744Y-115763016D01*
X141677347Y-115615446D01*
X141802846Y-115489947D01*
X141950416Y-115391344D01*
X142114388Y-115323424D01*
X142263688Y-115293727D01*
X142288458Y-115288800D01*
X142465942Y-115288800D01*
X142490712Y-115293727D01*
G37*
G36*
X145030712Y-115293727D02*
G01*
X145180012Y-115323424D01*
X145343984Y-115391344D01*
X145491554Y-115489947D01*
X145617053Y-115615446D01*
X145715656Y-115763016D01*
X145783576Y-115926988D01*
X145818200Y-116101059D01*
X145818200Y-116278541D01*
X145783576Y-116452612D01*
X145715656Y-116616584D01*
X145617053Y-116764154D01*
X145491554Y-116889653D01*
X145343984Y-116988256D01*
X145180012Y-117056176D01*
X145030712Y-117085873D01*
X145005942Y-117090800D01*
X144828458Y-117090800D01*
X144803688Y-117085873D01*
X144654388Y-117056176D01*
X144490416Y-116988256D01*
X144342846Y-116889653D01*
X144217347Y-116764154D01*
X144118744Y-116616584D01*
X144050824Y-116452612D01*
X144016200Y-116278541D01*
X144016200Y-116101059D01*
X144050824Y-115926988D01*
X144118744Y-115763016D01*
X144217347Y-115615446D01*
X144342846Y-115489947D01*
X144490416Y-115391344D01*
X144654388Y-115323424D01*
X144803688Y-115293727D01*
X144828458Y-115288800D01*
X145005942Y-115288800D01*
X145030712Y-115293727D01*
G37*
G36*
X127250712Y-115293727D02*
G01*
X127400012Y-115323424D01*
X127563984Y-115391344D01*
X127711554Y-115489947D01*
X127837053Y-115615446D01*
X127935656Y-115763016D01*
X128003576Y-115926988D01*
X128038200Y-116101059D01*
X128038200Y-116278541D01*
X128003576Y-116452612D01*
X127935656Y-116616584D01*
X127837053Y-116764154D01*
X127711554Y-116889653D01*
X127563984Y-116988256D01*
X127400012Y-117056176D01*
X127250712Y-117085873D01*
X127225942Y-117090800D01*
X127048458Y-117090800D01*
X127023688Y-117085873D01*
X126874388Y-117056176D01*
X126710416Y-116988256D01*
X126562846Y-116889653D01*
X126437347Y-116764154D01*
X126338744Y-116616584D01*
X126270824Y-116452612D01*
X126236200Y-116278541D01*
X126236200Y-116101059D01*
X126270824Y-115926988D01*
X126338744Y-115763016D01*
X126437347Y-115615446D01*
X126562846Y-115489947D01*
X126710416Y-115391344D01*
X126874388Y-115323424D01*
X127023688Y-115293727D01*
X127048458Y-115288800D01*
X127225942Y-115288800D01*
X127250712Y-115293727D01*
G37*
G36*
X102039785Y-113398602D02*
G01*
X102189610Y-113428404D01*
X102471874Y-113545321D01*
X102725905Y-113715059D01*
X102941941Y-113931095D01*
X103111679Y-114185126D01*
X103228596Y-114467390D01*
X103288200Y-114767040D01*
X103288200Y-115072560D01*
X103228596Y-115372210D01*
X103111679Y-115654474D01*
X102941941Y-115908505D01*
X102725905Y-116124541D01*
X102471874Y-116294279D01*
X102189610Y-116411196D01*
X102039785Y-116440998D01*
X101889961Y-116470800D01*
X101584439Y-116470800D01*
X101434615Y-116440998D01*
X101284790Y-116411196D01*
X101002526Y-116294279D01*
X100748495Y-116124541D01*
X100532459Y-115908505D01*
X100362721Y-115654474D01*
X100245804Y-115372210D01*
X100186200Y-115072560D01*
X100186200Y-114767040D01*
X100245804Y-114467390D01*
X100362721Y-114185126D01*
X100532459Y-113931095D01*
X100748495Y-113715059D01*
X101002526Y-113545321D01*
X101284790Y-113428404D01*
X101434615Y-113398602D01*
X101584439Y-113368800D01*
X101889961Y-113368800D01*
X102039785Y-113398602D01*
G37*
G36*
X152839785Y-113398602D02*
G01*
X152989610Y-113428404D01*
X153271874Y-113545321D01*
X153525905Y-113715059D01*
X153741941Y-113931095D01*
X153911679Y-114185126D01*
X154028596Y-114467390D01*
X154088200Y-114767040D01*
X154088200Y-115072560D01*
X154028596Y-115372210D01*
X153911679Y-115654474D01*
X153741941Y-115908505D01*
X153525905Y-116124541D01*
X153271874Y-116294279D01*
X152989610Y-116411196D01*
X152839785Y-116440998D01*
X152689961Y-116470800D01*
X152384439Y-116470800D01*
X152234615Y-116440998D01*
X152084790Y-116411196D01*
X151802526Y-116294279D01*
X151548495Y-116124541D01*
X151332459Y-115908505D01*
X151162721Y-115654474D01*
X151045804Y-115372210D01*
X150986200Y-115072560D01*
X150986200Y-114767040D01*
X151045804Y-114467390D01*
X151162721Y-114185126D01*
X151332459Y-113931095D01*
X151548495Y-113715059D01*
X151802526Y-113545321D01*
X152084790Y-113428404D01*
X152234615Y-113398602D01*
X152384439Y-113368800D01*
X152689961Y-113368800D01*
X152839785Y-113398602D01*
G37*
G36*
X137676593Y-108589104D02*
G01*
X137913301Y-108687152D01*
X137913303Y-108687153D01*
X138126335Y-108829496D01*
X138307504Y-109010665D01*
X138449847Y-109223697D01*
X138449848Y-109223699D01*
X138547896Y-109460407D01*
X138597880Y-109711693D01*
X138597880Y-109967907D01*
X138547896Y-110219193D01*
X138449848Y-110455901D01*
X138449847Y-110455903D01*
X138307504Y-110668935D01*
X138126335Y-110850104D01*
X137913303Y-110992447D01*
X137913302Y-110992448D01*
X137913301Y-110992448D01*
X137676593Y-111090496D01*
X137425307Y-111140480D01*
X137169093Y-111140480D01*
X136917807Y-111090496D01*
X136681099Y-110992448D01*
X136681098Y-110992448D01*
X136681097Y-110992447D01*
X136468065Y-110850104D01*
X136286896Y-110668935D01*
X136144553Y-110455903D01*
X136144552Y-110455901D01*
X136046504Y-110219193D01*
X135996520Y-109967907D01*
X135996520Y-109711693D01*
X136046504Y-109460407D01*
X136144552Y-109223699D01*
X136144553Y-109223697D01*
X136286896Y-109010665D01*
X136468065Y-108829496D01*
X136681097Y-108687153D01*
X136681099Y-108687152D01*
X136917807Y-108589104D01*
X137169093Y-108539120D01*
X137425307Y-108539120D01*
X137676593Y-108589104D01*
G37*
G36*
X117356593Y-108589104D02*
G01*
X117593301Y-108687152D01*
X117593303Y-108687153D01*
X117806335Y-108829496D01*
X117987504Y-109010665D01*
X118129847Y-109223697D01*
X118129848Y-109223699D01*
X118227896Y-109460407D01*
X118277880Y-109711693D01*
X118277880Y-109967907D01*
X118227896Y-110219193D01*
X118129848Y-110455901D01*
X118129847Y-110455903D01*
X117987504Y-110668935D01*
X117806335Y-110850104D01*
X117593303Y-110992447D01*
X117593302Y-110992448D01*
X117593301Y-110992448D01*
X117356593Y-111090496D01*
X117105307Y-111140480D01*
X116849093Y-111140480D01*
X116597807Y-111090496D01*
X116361099Y-110992448D01*
X116361098Y-110992448D01*
X116361097Y-110992447D01*
X116148065Y-110850104D01*
X115966896Y-110668935D01*
X115824553Y-110455903D01*
X115824552Y-110455901D01*
X115726504Y-110219193D01*
X115676520Y-109967907D01*
X115676520Y-109711693D01*
X115726504Y-109460407D01*
X115824552Y-109223699D01*
X115824553Y-109223697D01*
X115966896Y-109010665D01*
X116148065Y-108829496D01*
X116361097Y-108687153D01*
X116361099Y-108687152D01*
X116597807Y-108589104D01*
X116849093Y-108539120D01*
X117105307Y-108539120D01*
X117356593Y-108589104D01*
G37*
G36*
X122359785Y-103238602D02*
G01*
X122509610Y-103268404D01*
X122791874Y-103385321D01*
X123045905Y-103555059D01*
X123261941Y-103771095D01*
X123431679Y-104025126D01*
X123548596Y-104307390D01*
X123608200Y-104607040D01*
X123608200Y-104912560D01*
X123548596Y-105212210D01*
X123431679Y-105494474D01*
X123261941Y-105748505D01*
X123045905Y-105964541D01*
X122791874Y-106134279D01*
X122509610Y-106251196D01*
X122359785Y-106280998D01*
X122209961Y-106310800D01*
X121904439Y-106310800D01*
X121754615Y-106280998D01*
X121604790Y-106251196D01*
X121322526Y-106134279D01*
X121068495Y-105964541D01*
X120852459Y-105748505D01*
X120682721Y-105494474D01*
X120565804Y-105212210D01*
X120506200Y-104912560D01*
X120506200Y-104607040D01*
X120565804Y-104307390D01*
X120682721Y-104025126D01*
X120852459Y-103771095D01*
X121068495Y-103555059D01*
X121322526Y-103385321D01*
X121604790Y-103268404D01*
X121754615Y-103238602D01*
X121904439Y-103208800D01*
X122209961Y-103208800D01*
X122359785Y-103238602D01*
G37*
G36*
X142679785Y-103238602D02*
G01*
X142829610Y-103268404D01*
X143111874Y-103385321D01*
X143365905Y-103555059D01*
X143581941Y-103771095D01*
X143751679Y-104025126D01*
X143868596Y-104307390D01*
X143928200Y-104607040D01*
X143928200Y-104912560D01*
X143868596Y-105212210D01*
X143751679Y-105494474D01*
X143581941Y-105748505D01*
X143365905Y-105964541D01*
X143111874Y-106134279D01*
X142829610Y-106251196D01*
X142679785Y-106280998D01*
X142529961Y-106310800D01*
X142224439Y-106310800D01*
X142074615Y-106280998D01*
X141924790Y-106251196D01*
X141642526Y-106134279D01*
X141388495Y-105964541D01*
X141172459Y-105748505D01*
X141002721Y-105494474D01*
X140885804Y-105212210D01*
X140826200Y-104912560D01*
X140826200Y-104607040D01*
X140885804Y-104307390D01*
X141002721Y-104025126D01*
X141172459Y-103771095D01*
X141388495Y-103555059D01*
X141642526Y-103385321D01*
X141924790Y-103268404D01*
X142074615Y-103238602D01*
X142224439Y-103208800D01*
X142529961Y-103208800D01*
X142679785Y-103238602D01*
G37*
G36*
X152839785Y-103238602D02*
G01*
X152989610Y-103268404D01*
X153271874Y-103385321D01*
X153525905Y-103555059D01*
X153741941Y-103771095D01*
X153911679Y-104025126D01*
X154028596Y-104307390D01*
X154088200Y-104607040D01*
X154088200Y-104912560D01*
X154028596Y-105212210D01*
X153911679Y-105494474D01*
X153741941Y-105748505D01*
X153525905Y-105964541D01*
X153271874Y-106134279D01*
X152989610Y-106251196D01*
X152839785Y-106280998D01*
X152689961Y-106310800D01*
X152384439Y-106310800D01*
X152234615Y-106280998D01*
X152084790Y-106251196D01*
X151802526Y-106134279D01*
X151548495Y-105964541D01*
X151332459Y-105748505D01*
X151162721Y-105494474D01*
X151045804Y-105212210D01*
X150986200Y-104912560D01*
X150986200Y-104607040D01*
X151045804Y-104307390D01*
X151162721Y-104025126D01*
X151332459Y-103771095D01*
X151548495Y-103555059D01*
X151802526Y-103385321D01*
X152084790Y-103268404D01*
X152234615Y-103238602D01*
X152384439Y-103208800D01*
X152689961Y-103208800D01*
X152839785Y-103238602D01*
G37*
G36*
X132519785Y-103238602D02*
G01*
X132669610Y-103268404D01*
X132951874Y-103385321D01*
X133205905Y-103555059D01*
X133421941Y-103771095D01*
X133591679Y-104025126D01*
X133708596Y-104307390D01*
X133768200Y-104607040D01*
X133768200Y-104912560D01*
X133708596Y-105212210D01*
X133591679Y-105494474D01*
X133421941Y-105748505D01*
X133205905Y-105964541D01*
X132951874Y-106134279D01*
X132669610Y-106251196D01*
X132519785Y-106280998D01*
X132369961Y-106310800D01*
X132064439Y-106310800D01*
X131914615Y-106280998D01*
X131764790Y-106251196D01*
X131482526Y-106134279D01*
X131228495Y-105964541D01*
X131012459Y-105748505D01*
X130842721Y-105494474D01*
X130725804Y-105212210D01*
X130666200Y-104912560D01*
X130666200Y-104607040D01*
X130725804Y-104307390D01*
X130842721Y-104025126D01*
X131012459Y-103771095D01*
X131228495Y-103555059D01*
X131482526Y-103385321D01*
X131764790Y-103268404D01*
X131914615Y-103238602D01*
X132064439Y-103208800D01*
X132369961Y-103208800D01*
X132519785Y-103238602D01*
G37*
G36*
X112199785Y-103238602D02*
G01*
X112349610Y-103268404D01*
X112631874Y-103385321D01*
X112885905Y-103555059D01*
X113101941Y-103771095D01*
X113271679Y-104025126D01*
X113388596Y-104307390D01*
X113448200Y-104607040D01*
X113448200Y-104912560D01*
X113388596Y-105212210D01*
X113271679Y-105494474D01*
X113101941Y-105748505D01*
X112885905Y-105964541D01*
X112631874Y-106134279D01*
X112349610Y-106251196D01*
X112199785Y-106280998D01*
X112049961Y-106310800D01*
X111744439Y-106310800D01*
X111594615Y-106280998D01*
X111444790Y-106251196D01*
X111162526Y-106134279D01*
X110908495Y-105964541D01*
X110692459Y-105748505D01*
X110522721Y-105494474D01*
X110405804Y-105212210D01*
X110346200Y-104912560D01*
X110346200Y-104607040D01*
X110405804Y-104307390D01*
X110522721Y-104025126D01*
X110692459Y-103771095D01*
X110908495Y-103555059D01*
X111162526Y-103385321D01*
X111444790Y-103268404D01*
X111594615Y-103238602D01*
X111744439Y-103208800D01*
X112049961Y-103208800D01*
X112199785Y-103238602D01*
G37*
G36*
X102039785Y-103238602D02*
G01*
X102189610Y-103268404D01*
X102471874Y-103385321D01*
X102725905Y-103555059D01*
X102941941Y-103771095D01*
X103111679Y-104025126D01*
X103228596Y-104307390D01*
X103288200Y-104607040D01*
X103288200Y-104912560D01*
X103228596Y-105212210D01*
X103111679Y-105494474D01*
X102941941Y-105748505D01*
X102725905Y-105964541D01*
X102471874Y-106134279D01*
X102189610Y-106251196D01*
X102039785Y-106280998D01*
X101889961Y-106310800D01*
X101584439Y-106310800D01*
X101434615Y-106280998D01*
X101284790Y-106251196D01*
X101002526Y-106134279D01*
X100748495Y-105964541D01*
X100532459Y-105748505D01*
X100362721Y-105494474D01*
X100245804Y-105212210D01*
X100186200Y-104912560D01*
X100186200Y-104607040D01*
X100245804Y-104307390D01*
X100362721Y-104025126D01*
X100532459Y-103771095D01*
X100748495Y-103555059D01*
X101002526Y-103385321D01*
X101284790Y-103268404D01*
X101434615Y-103238602D01*
X101584439Y-103208800D01*
X101889961Y-103208800D01*
X102039785Y-103238602D01*
G37*
G36*
X137676593Y-98429104D02*
G01*
X137913301Y-98527152D01*
X137913303Y-98527153D01*
X138126335Y-98669496D01*
X138307504Y-98850665D01*
X138449847Y-99063697D01*
X138449848Y-99063699D01*
X138547896Y-99300407D01*
X138597880Y-99551693D01*
X138597880Y-99807907D01*
X138547896Y-100059193D01*
X138449848Y-100295901D01*
X138449847Y-100295903D01*
X138307504Y-100508935D01*
X138126335Y-100690104D01*
X137913303Y-100832447D01*
X137913302Y-100832448D01*
X137913301Y-100832448D01*
X137676593Y-100930496D01*
X137425307Y-100980480D01*
X137169093Y-100980480D01*
X136917807Y-100930496D01*
X136681099Y-100832448D01*
X136681098Y-100832448D01*
X136681097Y-100832447D01*
X136468065Y-100690104D01*
X136286896Y-100508935D01*
X136144553Y-100295903D01*
X136144552Y-100295901D01*
X136046504Y-100059193D01*
X135996520Y-99807907D01*
X135996520Y-99551693D01*
X136046504Y-99300407D01*
X136144552Y-99063699D01*
X136144553Y-99063697D01*
X136286896Y-98850665D01*
X136468065Y-98669496D01*
X136681097Y-98527153D01*
X136681099Y-98527152D01*
X136917807Y-98429104D01*
X137169093Y-98379120D01*
X137425307Y-98379120D01*
X137676593Y-98429104D01*
G37*
G36*
X117356593Y-98429104D02*
G01*
X117593301Y-98527152D01*
X117593303Y-98527153D01*
X117806335Y-98669496D01*
X117987504Y-98850665D01*
X118129847Y-99063697D01*
X118129848Y-99063699D01*
X118227896Y-99300407D01*
X118277880Y-99551693D01*
X118277880Y-99807907D01*
X118227896Y-100059193D01*
X118129848Y-100295901D01*
X118129847Y-100295903D01*
X117987504Y-100508935D01*
X117806335Y-100690104D01*
X117593303Y-100832447D01*
X117593302Y-100832448D01*
X117593301Y-100832448D01*
X117356593Y-100930496D01*
X117105307Y-100980480D01*
X116849093Y-100980480D01*
X116597807Y-100930496D01*
X116361099Y-100832448D01*
X116361098Y-100832448D01*
X116361097Y-100832447D01*
X116148065Y-100690104D01*
X115966896Y-100508935D01*
X115824553Y-100295903D01*
X115824552Y-100295901D01*
X115726504Y-100059193D01*
X115676520Y-99807907D01*
X115676520Y-99551693D01*
X115726504Y-99300407D01*
X115824552Y-99063699D01*
X115824553Y-99063697D01*
X115966896Y-98850665D01*
X116148065Y-98669496D01*
X116361097Y-98527153D01*
X116361099Y-98527152D01*
X116597807Y-98429104D01*
X116849093Y-98379120D01*
X117105307Y-98379120D01*
X117356593Y-98429104D01*
G37*
G36*
X152839785Y-93078602D02*
G01*
X152989610Y-93108404D01*
X153271874Y-93225321D01*
X153525905Y-93395059D01*
X153741941Y-93611095D01*
X153911679Y-93865126D01*
X154028596Y-94147390D01*
X154088200Y-94447040D01*
X154088200Y-94752560D01*
X154028596Y-95052210D01*
X153911679Y-95334474D01*
X153741941Y-95588505D01*
X153525905Y-95804541D01*
X153271874Y-95974279D01*
X152989610Y-96091196D01*
X152839785Y-96120998D01*
X152689961Y-96150800D01*
X152384439Y-96150800D01*
X152234615Y-96120998D01*
X152084790Y-96091196D01*
X151802526Y-95974279D01*
X151548495Y-95804541D01*
X151332459Y-95588505D01*
X151162721Y-95334474D01*
X151045804Y-95052210D01*
X150986200Y-94752560D01*
X150986200Y-94447040D01*
X151045804Y-94147390D01*
X151162721Y-93865126D01*
X151332459Y-93611095D01*
X151548495Y-93395059D01*
X151802526Y-93225321D01*
X152084790Y-93108404D01*
X152234615Y-93078602D01*
X152384439Y-93048800D01*
X152689961Y-93048800D01*
X152839785Y-93078602D01*
G37*
G36*
X102039785Y-93078602D02*
G01*
X102189610Y-93108404D01*
X102471874Y-93225321D01*
X102725905Y-93395059D01*
X102941941Y-93611095D01*
X103111679Y-93865126D01*
X103228596Y-94147390D01*
X103288200Y-94447040D01*
X103288200Y-94752560D01*
X103228596Y-95052210D01*
X103111679Y-95334474D01*
X102941941Y-95588505D01*
X102725905Y-95804541D01*
X102471874Y-95974279D01*
X102189610Y-96091196D01*
X102039785Y-96120998D01*
X101889961Y-96150800D01*
X101584439Y-96150800D01*
X101434615Y-96120998D01*
X101284790Y-96091196D01*
X101002526Y-95974279D01*
X100748495Y-95804541D01*
X100532459Y-95588505D01*
X100362721Y-95334474D01*
X100245804Y-95052210D01*
X100186200Y-94752560D01*
X100186200Y-94447040D01*
X100245804Y-94147390D01*
X100362721Y-93865126D01*
X100532459Y-93611095D01*
X100748495Y-93395059D01*
X101002526Y-93225321D01*
X101284790Y-93108404D01*
X101434615Y-93078602D01*
X101584439Y-93048800D01*
X101889961Y-93048800D01*
X102039785Y-93078602D01*
G37*
G36*
X112010712Y-92433727D02*
G01*
X112160012Y-92463424D01*
X112323984Y-92531344D01*
X112471554Y-92629947D01*
X112597053Y-92755446D01*
X112695656Y-92903016D01*
X112763576Y-93066988D01*
X112798200Y-93241059D01*
X112798200Y-93418541D01*
X112763576Y-93592612D01*
X112695656Y-93756584D01*
X112597053Y-93904154D01*
X112471554Y-94029653D01*
X112323984Y-94128256D01*
X112160012Y-94196176D01*
X112010712Y-94225873D01*
X111985942Y-94230800D01*
X111808458Y-94230800D01*
X111783688Y-94225873D01*
X111634388Y-94196176D01*
X111470416Y-94128256D01*
X111322846Y-94029653D01*
X111197347Y-93904154D01*
X111098744Y-93756584D01*
X111030824Y-93592612D01*
X110996200Y-93418541D01*
X110996200Y-93241059D01*
X111030824Y-93066988D01*
X111098744Y-92903016D01*
X111197347Y-92755446D01*
X111322846Y-92629947D01*
X111470416Y-92531344D01*
X111634388Y-92463424D01*
X111783688Y-92433727D01*
X111808458Y-92428800D01*
X111985942Y-92428800D01*
X112010712Y-92433727D01*
G37*
G36*
X134870712Y-92433727D02*
G01*
X135020012Y-92463424D01*
X135183984Y-92531344D01*
X135331554Y-92629947D01*
X135457053Y-92755446D01*
X135555656Y-92903016D01*
X135623576Y-93066988D01*
X135658200Y-93241059D01*
X135658200Y-93418541D01*
X135623576Y-93592612D01*
X135555656Y-93756584D01*
X135457053Y-93904154D01*
X135331554Y-94029653D01*
X135183984Y-94128256D01*
X135020012Y-94196176D01*
X134870712Y-94225873D01*
X134845942Y-94230800D01*
X134668458Y-94230800D01*
X134643688Y-94225873D01*
X134494388Y-94196176D01*
X134330416Y-94128256D01*
X134182846Y-94029653D01*
X134057347Y-93904154D01*
X133958744Y-93756584D01*
X133890824Y-93592612D01*
X133856200Y-93418541D01*
X133856200Y-93241059D01*
X133890824Y-93066988D01*
X133958744Y-92903016D01*
X134057347Y-92755446D01*
X134182846Y-92629947D01*
X134330416Y-92531344D01*
X134494388Y-92463424D01*
X134643688Y-92433727D01*
X134668458Y-92428800D01*
X134845942Y-92428800D01*
X134870712Y-92433727D01*
G37*
G36*
X137410712Y-92433727D02*
G01*
X137560012Y-92463424D01*
X137723984Y-92531344D01*
X137871554Y-92629947D01*
X137997053Y-92755446D01*
X138095656Y-92903016D01*
X138163576Y-93066988D01*
X138198200Y-93241059D01*
X138198200Y-93418541D01*
X138163576Y-93592612D01*
X138095656Y-93756584D01*
X137997053Y-93904154D01*
X137871554Y-94029653D01*
X137723984Y-94128256D01*
X137560012Y-94196176D01*
X137410712Y-94225873D01*
X137385942Y-94230800D01*
X137208458Y-94230800D01*
X137183688Y-94225873D01*
X137034388Y-94196176D01*
X136870416Y-94128256D01*
X136722846Y-94029653D01*
X136597347Y-93904154D01*
X136498744Y-93756584D01*
X136430824Y-93592612D01*
X136396200Y-93418541D01*
X136396200Y-93241059D01*
X136430824Y-93066988D01*
X136498744Y-92903016D01*
X136597347Y-92755446D01*
X136722846Y-92629947D01*
X136870416Y-92531344D01*
X137034388Y-92463424D01*
X137183688Y-92433727D01*
X137208458Y-92428800D01*
X137385942Y-92428800D01*
X137410712Y-92433727D01*
G37*
G36*
X145030712Y-92433727D02*
G01*
X145180012Y-92463424D01*
X145343984Y-92531344D01*
X145491554Y-92629947D01*
X145617053Y-92755446D01*
X145715656Y-92903016D01*
X145783576Y-93066988D01*
X145818200Y-93241059D01*
X145818200Y-93418541D01*
X145783576Y-93592612D01*
X145715656Y-93756584D01*
X145617053Y-93904154D01*
X145491554Y-94029653D01*
X145343984Y-94128256D01*
X145180012Y-94196176D01*
X145030712Y-94225873D01*
X145005942Y-94230800D01*
X144828458Y-94230800D01*
X144803688Y-94225873D01*
X144654388Y-94196176D01*
X144490416Y-94128256D01*
X144342846Y-94029653D01*
X144217347Y-93904154D01*
X144118744Y-93756584D01*
X144050824Y-93592612D01*
X144016200Y-93418541D01*
X144016200Y-93241059D01*
X144050824Y-93066988D01*
X144118744Y-92903016D01*
X144217347Y-92755446D01*
X144342846Y-92629947D01*
X144490416Y-92531344D01*
X144654388Y-92463424D01*
X144803688Y-92433727D01*
X144828458Y-92428800D01*
X145005942Y-92428800D01*
X145030712Y-92433727D01*
G37*
G36*
X142490712Y-92433727D02*
G01*
X142640012Y-92463424D01*
X142803984Y-92531344D01*
X142951554Y-92629947D01*
X143077053Y-92755446D01*
X143175656Y-92903016D01*
X143243576Y-93066988D01*
X143278200Y-93241059D01*
X143278200Y-93418541D01*
X143243576Y-93592612D01*
X143175656Y-93756584D01*
X143077053Y-93904154D01*
X142951554Y-94029653D01*
X142803984Y-94128256D01*
X142640012Y-94196176D01*
X142490712Y-94225873D01*
X142465942Y-94230800D01*
X142288458Y-94230800D01*
X142263688Y-94225873D01*
X142114388Y-94196176D01*
X141950416Y-94128256D01*
X141802846Y-94029653D01*
X141677347Y-93904154D01*
X141578744Y-93756584D01*
X141510824Y-93592612D01*
X141476200Y-93418541D01*
X141476200Y-93241059D01*
X141510824Y-93066988D01*
X141578744Y-92903016D01*
X141677347Y-92755446D01*
X141802846Y-92629947D01*
X141950416Y-92531344D01*
X142114388Y-92463424D01*
X142263688Y-92433727D01*
X142288458Y-92428800D01*
X142465942Y-92428800D01*
X142490712Y-92433727D01*
G37*
G36*
X109470712Y-92433727D02*
G01*
X109620012Y-92463424D01*
X109783984Y-92531344D01*
X109931554Y-92629947D01*
X110057053Y-92755446D01*
X110155656Y-92903016D01*
X110223576Y-93066988D01*
X110258200Y-93241059D01*
X110258200Y-93418541D01*
X110223576Y-93592612D01*
X110155656Y-93756584D01*
X110057053Y-93904154D01*
X109931554Y-94029653D01*
X109783984Y-94128256D01*
X109620012Y-94196176D01*
X109470712Y-94225873D01*
X109445942Y-94230800D01*
X109268458Y-94230800D01*
X109243688Y-94225873D01*
X109094388Y-94196176D01*
X108930416Y-94128256D01*
X108782846Y-94029653D01*
X108657347Y-93904154D01*
X108558744Y-93756584D01*
X108490824Y-93592612D01*
X108456200Y-93418541D01*
X108456200Y-93241059D01*
X108490824Y-93066988D01*
X108558744Y-92903016D01*
X108657347Y-92755446D01*
X108782846Y-92629947D01*
X108930416Y-92531344D01*
X109094388Y-92463424D01*
X109243688Y-92433727D01*
X109268458Y-92428800D01*
X109445942Y-92428800D01*
X109470712Y-92433727D01*
G37*
G36*
X139950712Y-92433727D02*
G01*
X140100012Y-92463424D01*
X140263984Y-92531344D01*
X140411554Y-92629947D01*
X140537053Y-92755446D01*
X140635656Y-92903016D01*
X140703576Y-93066988D01*
X140738200Y-93241059D01*
X140738200Y-93418541D01*
X140703576Y-93592612D01*
X140635656Y-93756584D01*
X140537053Y-93904154D01*
X140411554Y-94029653D01*
X140263984Y-94128256D01*
X140100012Y-94196176D01*
X139950712Y-94225873D01*
X139925942Y-94230800D01*
X139748458Y-94230800D01*
X139723688Y-94225873D01*
X139574388Y-94196176D01*
X139410416Y-94128256D01*
X139262846Y-94029653D01*
X139137347Y-93904154D01*
X139038744Y-93756584D01*
X138970824Y-93592612D01*
X138936200Y-93418541D01*
X138936200Y-93241059D01*
X138970824Y-93066988D01*
X139038744Y-92903016D01*
X139137347Y-92755446D01*
X139262846Y-92629947D01*
X139410416Y-92531344D01*
X139574388Y-92463424D01*
X139723688Y-92433727D01*
X139748458Y-92428800D01*
X139925942Y-92428800D01*
X139950712Y-92433727D01*
G37*
G36*
X117090712Y-92433727D02*
G01*
X117240012Y-92463424D01*
X117403984Y-92531344D01*
X117551554Y-92629947D01*
X117677053Y-92755446D01*
X117775656Y-92903016D01*
X117843576Y-93066988D01*
X117878200Y-93241059D01*
X117878200Y-93418541D01*
X117843576Y-93592612D01*
X117775656Y-93756584D01*
X117677053Y-93904154D01*
X117551554Y-94029653D01*
X117403984Y-94128256D01*
X117240012Y-94196176D01*
X117090712Y-94225873D01*
X117065942Y-94230800D01*
X116888458Y-94230800D01*
X116863688Y-94225873D01*
X116714388Y-94196176D01*
X116550416Y-94128256D01*
X116402846Y-94029653D01*
X116277347Y-93904154D01*
X116178744Y-93756584D01*
X116110824Y-93592612D01*
X116076200Y-93418541D01*
X116076200Y-93241059D01*
X116110824Y-93066988D01*
X116178744Y-92903016D01*
X116277347Y-92755446D01*
X116402846Y-92629947D01*
X116550416Y-92531344D01*
X116714388Y-92463424D01*
X116863688Y-92433727D01*
X116888458Y-92428800D01*
X117065942Y-92428800D01*
X117090712Y-92433727D01*
G37*
G36*
X119630712Y-92433727D02*
G01*
X119780012Y-92463424D01*
X119943984Y-92531344D01*
X120091554Y-92629947D01*
X120217053Y-92755446D01*
X120315656Y-92903016D01*
X120383576Y-93066988D01*
X120418200Y-93241059D01*
X120418200Y-93418541D01*
X120383576Y-93592612D01*
X120315656Y-93756584D01*
X120217053Y-93904154D01*
X120091554Y-94029653D01*
X119943984Y-94128256D01*
X119780012Y-94196176D01*
X119630712Y-94225873D01*
X119605942Y-94230800D01*
X119428458Y-94230800D01*
X119403688Y-94225873D01*
X119254388Y-94196176D01*
X119090416Y-94128256D01*
X118942846Y-94029653D01*
X118817347Y-93904154D01*
X118718744Y-93756584D01*
X118650824Y-93592612D01*
X118616200Y-93418541D01*
X118616200Y-93241059D01*
X118650824Y-93066988D01*
X118718744Y-92903016D01*
X118817347Y-92755446D01*
X118942846Y-92629947D01*
X119090416Y-92531344D01*
X119254388Y-92463424D01*
X119403688Y-92433727D01*
X119428458Y-92428800D01*
X119605942Y-92428800D01*
X119630712Y-92433727D01*
G37*
G36*
X122170712Y-92433727D02*
G01*
X122320012Y-92463424D01*
X122483984Y-92531344D01*
X122631554Y-92629947D01*
X122757053Y-92755446D01*
X122855656Y-92903016D01*
X122923576Y-93066988D01*
X122958200Y-93241059D01*
X122958200Y-93418541D01*
X122923576Y-93592612D01*
X122855656Y-93756584D01*
X122757053Y-93904154D01*
X122631554Y-94029653D01*
X122483984Y-94128256D01*
X122320012Y-94196176D01*
X122170712Y-94225873D01*
X122145942Y-94230800D01*
X121968458Y-94230800D01*
X121943688Y-94225873D01*
X121794388Y-94196176D01*
X121630416Y-94128256D01*
X121482846Y-94029653D01*
X121357347Y-93904154D01*
X121258744Y-93756584D01*
X121190824Y-93592612D01*
X121156200Y-93418541D01*
X121156200Y-93241059D01*
X121190824Y-93066988D01*
X121258744Y-92903016D01*
X121357347Y-92755446D01*
X121482846Y-92629947D01*
X121630416Y-92531344D01*
X121794388Y-92463424D01*
X121943688Y-92433727D01*
X121968458Y-92428800D01*
X122145942Y-92428800D01*
X122170712Y-92433727D01*
G37*
G36*
X124710712Y-92433727D02*
G01*
X124860012Y-92463424D01*
X125023984Y-92531344D01*
X125171554Y-92629947D01*
X125297053Y-92755446D01*
X125395656Y-92903016D01*
X125463576Y-93066988D01*
X125498200Y-93241059D01*
X125498200Y-93418541D01*
X125463576Y-93592612D01*
X125395656Y-93756584D01*
X125297053Y-93904154D01*
X125171554Y-94029653D01*
X125023984Y-94128256D01*
X124860012Y-94196176D01*
X124710712Y-94225873D01*
X124685942Y-94230800D01*
X124508458Y-94230800D01*
X124483688Y-94225873D01*
X124334388Y-94196176D01*
X124170416Y-94128256D01*
X124022846Y-94029653D01*
X123897347Y-93904154D01*
X123798744Y-93756584D01*
X123730824Y-93592612D01*
X123696200Y-93418541D01*
X123696200Y-93241059D01*
X123730824Y-93066988D01*
X123798744Y-92903016D01*
X123897347Y-92755446D01*
X124022846Y-92629947D01*
X124170416Y-92531344D01*
X124334388Y-92463424D01*
X124483688Y-92433727D01*
X124508458Y-92428800D01*
X124685942Y-92428800D01*
X124710712Y-92433727D01*
G37*
G36*
X127250712Y-92433727D02*
G01*
X127400012Y-92463424D01*
X127563984Y-92531344D01*
X127711554Y-92629947D01*
X127837053Y-92755446D01*
X127935656Y-92903016D01*
X128003576Y-93066988D01*
X128038200Y-93241059D01*
X128038200Y-93418541D01*
X128003576Y-93592612D01*
X127935656Y-93756584D01*
X127837053Y-93904154D01*
X127711554Y-94029653D01*
X127563984Y-94128256D01*
X127400012Y-94196176D01*
X127250712Y-94225873D01*
X127225942Y-94230800D01*
X127048458Y-94230800D01*
X127023688Y-94225873D01*
X126874388Y-94196176D01*
X126710416Y-94128256D01*
X126562846Y-94029653D01*
X126437347Y-93904154D01*
X126338744Y-93756584D01*
X126270824Y-93592612D01*
X126236200Y-93418541D01*
X126236200Y-93241059D01*
X126270824Y-93066988D01*
X126338744Y-92903016D01*
X126437347Y-92755446D01*
X126562846Y-92629947D01*
X126710416Y-92531344D01*
X126874388Y-92463424D01*
X127023688Y-92433727D01*
X127048458Y-92428800D01*
X127225942Y-92428800D01*
X127250712Y-92433727D01*
G37*
G36*
X129790712Y-92433727D02*
G01*
X129940012Y-92463424D01*
X130103984Y-92531344D01*
X130251554Y-92629947D01*
X130377053Y-92755446D01*
X130475656Y-92903016D01*
X130543576Y-93066988D01*
X130578200Y-93241059D01*
X130578200Y-93418541D01*
X130543576Y-93592612D01*
X130475656Y-93756584D01*
X130377053Y-93904154D01*
X130251554Y-94029653D01*
X130103984Y-94128256D01*
X129940012Y-94196176D01*
X129790712Y-94225873D01*
X129765942Y-94230800D01*
X129588458Y-94230800D01*
X129563688Y-94225873D01*
X129414388Y-94196176D01*
X129250416Y-94128256D01*
X129102846Y-94029653D01*
X128977347Y-93904154D01*
X128878744Y-93756584D01*
X128810824Y-93592612D01*
X128776200Y-93418541D01*
X128776200Y-93241059D01*
X128810824Y-93066988D01*
X128878744Y-92903016D01*
X128977347Y-92755446D01*
X129102846Y-92629947D01*
X129250416Y-92531344D01*
X129414388Y-92463424D01*
X129563688Y-92433727D01*
X129588458Y-92428800D01*
X129765942Y-92428800D01*
X129790712Y-92433727D01*
G37*
G36*
X132330712Y-92433727D02*
G01*
X132480012Y-92463424D01*
X132643984Y-92531344D01*
X132791554Y-92629947D01*
X132917053Y-92755446D01*
X133015656Y-92903016D01*
X133083576Y-93066988D01*
X133118200Y-93241059D01*
X133118200Y-93418541D01*
X133083576Y-93592612D01*
X133015656Y-93756584D01*
X132917053Y-93904154D01*
X132791554Y-94029653D01*
X132643984Y-94128256D01*
X132480012Y-94196176D01*
X132330712Y-94225873D01*
X132305942Y-94230800D01*
X132128458Y-94230800D01*
X132103688Y-94225873D01*
X131954388Y-94196176D01*
X131790416Y-94128256D01*
X131642846Y-94029653D01*
X131517347Y-93904154D01*
X131418744Y-93756584D01*
X131350824Y-93592612D01*
X131316200Y-93418541D01*
X131316200Y-93241059D01*
X131350824Y-93066988D01*
X131418744Y-92903016D01*
X131517347Y-92755446D01*
X131642846Y-92629947D01*
X131790416Y-92531344D01*
X131954388Y-92463424D01*
X132103688Y-92433727D01*
X132128458Y-92428800D01*
X132305942Y-92428800D01*
X132330712Y-92433727D01*
G37*
G36*
X114550712Y-92433727D02*
G01*
X114700012Y-92463424D01*
X114863984Y-92531344D01*
X115011554Y-92629947D01*
X115137053Y-92755446D01*
X115235656Y-92903016D01*
X115303576Y-93066988D01*
X115338200Y-93241059D01*
X115338200Y-93418541D01*
X115303576Y-93592612D01*
X115235656Y-93756584D01*
X115137053Y-93904154D01*
X115011554Y-94029653D01*
X114863984Y-94128256D01*
X114700012Y-94196176D01*
X114550712Y-94225873D01*
X114525942Y-94230800D01*
X114348458Y-94230800D01*
X114323688Y-94225873D01*
X114174388Y-94196176D01*
X114010416Y-94128256D01*
X113862846Y-94029653D01*
X113737347Y-93904154D01*
X113638744Y-93756584D01*
X113570824Y-93592612D01*
X113536200Y-93418541D01*
X113536200Y-93241059D01*
X113570824Y-93066988D01*
X113638744Y-92903016D01*
X113737347Y-92755446D01*
X113862846Y-92629947D01*
X114010416Y-92531344D01*
X114174388Y-92463424D01*
X114323688Y-92433727D01*
X114348458Y-92428800D01*
X114525942Y-92428800D01*
X114550712Y-92433727D01*
G37*
G36*
X127250712Y-89893727D02*
G01*
X127400012Y-89923424D01*
X127563984Y-89991344D01*
X127711554Y-90089947D01*
X127837053Y-90215446D01*
X127935656Y-90363016D01*
X128003576Y-90526988D01*
X128038200Y-90701059D01*
X128038200Y-90878541D01*
X128003576Y-91052612D01*
X127935656Y-91216584D01*
X127837053Y-91364154D01*
X127711554Y-91489653D01*
X127563984Y-91588256D01*
X127400012Y-91656176D01*
X127250712Y-91685873D01*
X127225942Y-91690800D01*
X127048458Y-91690800D01*
X127023688Y-91685873D01*
X126874388Y-91656176D01*
X126710416Y-91588256D01*
X126562846Y-91489653D01*
X126437347Y-91364154D01*
X126338744Y-91216584D01*
X126270824Y-91052612D01*
X126236200Y-90878541D01*
X126236200Y-90701059D01*
X126270824Y-90526988D01*
X126338744Y-90363016D01*
X126437347Y-90215446D01*
X126562846Y-90089947D01*
X126710416Y-89991344D01*
X126874388Y-89923424D01*
X127023688Y-89893727D01*
X127048458Y-89888800D01*
X127225942Y-89888800D01*
X127250712Y-89893727D01*
G37*
G36*
X137410712Y-89893727D02*
G01*
X137560012Y-89923424D01*
X137723984Y-89991344D01*
X137871554Y-90089947D01*
X137997053Y-90215446D01*
X138095656Y-90363016D01*
X138163576Y-90526988D01*
X138198200Y-90701059D01*
X138198200Y-90878541D01*
X138163576Y-91052612D01*
X138095656Y-91216584D01*
X137997053Y-91364154D01*
X137871554Y-91489653D01*
X137723984Y-91588256D01*
X137560012Y-91656176D01*
X137410712Y-91685873D01*
X137385942Y-91690800D01*
X137208458Y-91690800D01*
X137183688Y-91685873D01*
X137034388Y-91656176D01*
X136870416Y-91588256D01*
X136722846Y-91489653D01*
X136597347Y-91364154D01*
X136498744Y-91216584D01*
X136430824Y-91052612D01*
X136396200Y-90878541D01*
X136396200Y-90701059D01*
X136430824Y-90526988D01*
X136498744Y-90363016D01*
X136597347Y-90215446D01*
X136722846Y-90089947D01*
X136870416Y-89991344D01*
X137034388Y-89923424D01*
X137183688Y-89893727D01*
X137208458Y-89888800D01*
X137385942Y-89888800D01*
X137410712Y-89893727D01*
G37*
G36*
X134870712Y-89893727D02*
G01*
X135020012Y-89923424D01*
X135183984Y-89991344D01*
X135331554Y-90089947D01*
X135457053Y-90215446D01*
X135555656Y-90363016D01*
X135623576Y-90526988D01*
X135658200Y-90701059D01*
X135658200Y-90878541D01*
X135623576Y-91052612D01*
X135555656Y-91216584D01*
X135457053Y-91364154D01*
X135331554Y-91489653D01*
X135183984Y-91588256D01*
X135020012Y-91656176D01*
X134870712Y-91685873D01*
X134845942Y-91690800D01*
X134668458Y-91690800D01*
X134643688Y-91685873D01*
X134494388Y-91656176D01*
X134330416Y-91588256D01*
X134182846Y-91489653D01*
X134057347Y-91364154D01*
X133958744Y-91216584D01*
X133890824Y-91052612D01*
X133856200Y-90878541D01*
X133856200Y-90701059D01*
X133890824Y-90526988D01*
X133958744Y-90363016D01*
X134057347Y-90215446D01*
X134182846Y-90089947D01*
X134330416Y-89991344D01*
X134494388Y-89923424D01*
X134643688Y-89893727D01*
X134668458Y-89888800D01*
X134845942Y-89888800D01*
X134870712Y-89893727D01*
G37*
G36*
X132330712Y-89893727D02*
G01*
X132480012Y-89923424D01*
X132643984Y-89991344D01*
X132791554Y-90089947D01*
X132917053Y-90215446D01*
X133015656Y-90363016D01*
X133083576Y-90526988D01*
X133118200Y-90701059D01*
X133118200Y-90878541D01*
X133083576Y-91052612D01*
X133015656Y-91216584D01*
X132917053Y-91364154D01*
X132791554Y-91489653D01*
X132643984Y-91588256D01*
X132480012Y-91656176D01*
X132330712Y-91685873D01*
X132305942Y-91690800D01*
X132128458Y-91690800D01*
X132103688Y-91685873D01*
X131954388Y-91656176D01*
X131790416Y-91588256D01*
X131642846Y-91489653D01*
X131517347Y-91364154D01*
X131418744Y-91216584D01*
X131350824Y-91052612D01*
X131316200Y-90878541D01*
X131316200Y-90701059D01*
X131350824Y-90526988D01*
X131418744Y-90363016D01*
X131517347Y-90215446D01*
X131642846Y-90089947D01*
X131790416Y-89991344D01*
X131954388Y-89923424D01*
X132103688Y-89893727D01*
X132128458Y-89888800D01*
X132305942Y-89888800D01*
X132330712Y-89893727D01*
G37*
G36*
X129790712Y-89893727D02*
G01*
X129940012Y-89923424D01*
X130103984Y-89991344D01*
X130251554Y-90089947D01*
X130377053Y-90215446D01*
X130475656Y-90363016D01*
X130543576Y-90526988D01*
X130578200Y-90701059D01*
X130578200Y-90878541D01*
X130543576Y-91052612D01*
X130475656Y-91216584D01*
X130377053Y-91364154D01*
X130251554Y-91489653D01*
X130103984Y-91588256D01*
X129940012Y-91656176D01*
X129790712Y-91685873D01*
X129765942Y-91690800D01*
X129588458Y-91690800D01*
X129563688Y-91685873D01*
X129414388Y-91656176D01*
X129250416Y-91588256D01*
X129102846Y-91489653D01*
X128977347Y-91364154D01*
X128878744Y-91216584D01*
X128810824Y-91052612D01*
X128776200Y-90878541D01*
X128776200Y-90701059D01*
X128810824Y-90526988D01*
X128878744Y-90363016D01*
X128977347Y-90215446D01*
X129102846Y-90089947D01*
X129250416Y-89991344D01*
X129414388Y-89923424D01*
X129563688Y-89893727D01*
X129588458Y-89888800D01*
X129765942Y-89888800D01*
X129790712Y-89893727D01*
G37*
G36*
X124710712Y-89893727D02*
G01*
X124860012Y-89923424D01*
X125023984Y-89991344D01*
X125171554Y-90089947D01*
X125297053Y-90215446D01*
X125395656Y-90363016D01*
X125463576Y-90526988D01*
X125498200Y-90701059D01*
X125498200Y-90878541D01*
X125463576Y-91052612D01*
X125395656Y-91216584D01*
X125297053Y-91364154D01*
X125171554Y-91489653D01*
X125023984Y-91588256D01*
X124860012Y-91656176D01*
X124710712Y-91685873D01*
X124685942Y-91690800D01*
X124508458Y-91690800D01*
X124483688Y-91685873D01*
X124334388Y-91656176D01*
X124170416Y-91588256D01*
X124022846Y-91489653D01*
X123897347Y-91364154D01*
X123798744Y-91216584D01*
X123730824Y-91052612D01*
X123696200Y-90878541D01*
X123696200Y-90701059D01*
X123730824Y-90526988D01*
X123798744Y-90363016D01*
X123897347Y-90215446D01*
X124022846Y-90089947D01*
X124170416Y-89991344D01*
X124334388Y-89923424D01*
X124483688Y-89893727D01*
X124508458Y-89888800D01*
X124685942Y-89888800D01*
X124710712Y-89893727D01*
G37*
G36*
X122170712Y-89893727D02*
G01*
X122320012Y-89923424D01*
X122483984Y-89991344D01*
X122631554Y-90089947D01*
X122757053Y-90215446D01*
X122855656Y-90363016D01*
X122923576Y-90526988D01*
X122958200Y-90701059D01*
X122958200Y-90878541D01*
X122923576Y-91052612D01*
X122855656Y-91216584D01*
X122757053Y-91364154D01*
X122631554Y-91489653D01*
X122483984Y-91588256D01*
X122320012Y-91656176D01*
X122170712Y-91685873D01*
X122145942Y-91690800D01*
X121968458Y-91690800D01*
X121943688Y-91685873D01*
X121794388Y-91656176D01*
X121630416Y-91588256D01*
X121482846Y-91489653D01*
X121357347Y-91364154D01*
X121258744Y-91216584D01*
X121190824Y-91052612D01*
X121156200Y-90878541D01*
X121156200Y-90701059D01*
X121190824Y-90526988D01*
X121258744Y-90363016D01*
X121357347Y-90215446D01*
X121482846Y-90089947D01*
X121630416Y-89991344D01*
X121794388Y-89923424D01*
X121943688Y-89893727D01*
X121968458Y-89888800D01*
X122145942Y-89888800D01*
X122170712Y-89893727D01*
G37*
G36*
X117090712Y-89893727D02*
G01*
X117240012Y-89923424D01*
X117403984Y-89991344D01*
X117551554Y-90089947D01*
X117677053Y-90215446D01*
X117775656Y-90363016D01*
X117843576Y-90526988D01*
X117878200Y-90701059D01*
X117878200Y-90878541D01*
X117843576Y-91052612D01*
X117775656Y-91216584D01*
X117677053Y-91364154D01*
X117551554Y-91489653D01*
X117403984Y-91588256D01*
X117240012Y-91656176D01*
X117090712Y-91685873D01*
X117065942Y-91690800D01*
X116888458Y-91690800D01*
X116863688Y-91685873D01*
X116714388Y-91656176D01*
X116550416Y-91588256D01*
X116402846Y-91489653D01*
X116277347Y-91364154D01*
X116178744Y-91216584D01*
X116110824Y-91052612D01*
X116076200Y-90878541D01*
X116076200Y-90701059D01*
X116110824Y-90526988D01*
X116178744Y-90363016D01*
X116277347Y-90215446D01*
X116402846Y-90089947D01*
X116550416Y-89991344D01*
X116714388Y-89923424D01*
X116863688Y-89893727D01*
X116888458Y-89888800D01*
X117065942Y-89888800D01*
X117090712Y-89893727D01*
G37*
G36*
X114550712Y-89893727D02*
G01*
X114700012Y-89923424D01*
X114863984Y-89991344D01*
X115011554Y-90089947D01*
X115137053Y-90215446D01*
X115235656Y-90363016D01*
X115303576Y-90526988D01*
X115338200Y-90701059D01*
X115338200Y-90878541D01*
X115303576Y-91052612D01*
X115235656Y-91216584D01*
X115137053Y-91364154D01*
X115011554Y-91489653D01*
X114863984Y-91588256D01*
X114700012Y-91656176D01*
X114550712Y-91685873D01*
X114525942Y-91690800D01*
X114348458Y-91690800D01*
X114323688Y-91685873D01*
X114174388Y-91656176D01*
X114010416Y-91588256D01*
X113862846Y-91489653D01*
X113737347Y-91364154D01*
X113638744Y-91216584D01*
X113570824Y-91052612D01*
X113536200Y-90878541D01*
X113536200Y-90701059D01*
X113570824Y-90526988D01*
X113638744Y-90363016D01*
X113737347Y-90215446D01*
X113862846Y-90089947D01*
X114010416Y-89991344D01*
X114174388Y-89923424D01*
X114323688Y-89893727D01*
X114348458Y-89888800D01*
X114525942Y-89888800D01*
X114550712Y-89893727D01*
G37*
G36*
X145030712Y-89893727D02*
G01*
X145180012Y-89923424D01*
X145343984Y-89991344D01*
X145491554Y-90089947D01*
X145617053Y-90215446D01*
X145715656Y-90363016D01*
X145783576Y-90526988D01*
X145818200Y-90701059D01*
X145818200Y-90878541D01*
X145783576Y-91052612D01*
X145715656Y-91216584D01*
X145617053Y-91364154D01*
X145491554Y-91489653D01*
X145343984Y-91588256D01*
X145180012Y-91656176D01*
X145030712Y-91685873D01*
X145005942Y-91690800D01*
X144828458Y-91690800D01*
X144803688Y-91685873D01*
X144654388Y-91656176D01*
X144490416Y-91588256D01*
X144342846Y-91489653D01*
X144217347Y-91364154D01*
X144118744Y-91216584D01*
X144050824Y-91052612D01*
X144016200Y-90878541D01*
X144016200Y-90701059D01*
X144050824Y-90526988D01*
X144118744Y-90363016D01*
X144217347Y-90215446D01*
X144342846Y-90089947D01*
X144490416Y-89991344D01*
X144654388Y-89923424D01*
X144803688Y-89893727D01*
X144828458Y-89888800D01*
X145005942Y-89888800D01*
X145030712Y-89893727D01*
G37*
G36*
X112010712Y-89893727D02*
G01*
X112160012Y-89923424D01*
X112323984Y-89991344D01*
X112471554Y-90089947D01*
X112597053Y-90215446D01*
X112695656Y-90363016D01*
X112763576Y-90526988D01*
X112798200Y-90701059D01*
X112798200Y-90878541D01*
X112763576Y-91052612D01*
X112695656Y-91216584D01*
X112597053Y-91364154D01*
X112471554Y-91489653D01*
X112323984Y-91588256D01*
X112160012Y-91656176D01*
X112010712Y-91685873D01*
X111985942Y-91690800D01*
X111808458Y-91690800D01*
X111783688Y-91685873D01*
X111634388Y-91656176D01*
X111470416Y-91588256D01*
X111322846Y-91489653D01*
X111197347Y-91364154D01*
X111098744Y-91216584D01*
X111030824Y-91052612D01*
X110996200Y-90878541D01*
X110996200Y-90701059D01*
X111030824Y-90526988D01*
X111098744Y-90363016D01*
X111197347Y-90215446D01*
X111322846Y-90089947D01*
X111470416Y-89991344D01*
X111634388Y-89923424D01*
X111783688Y-89893727D01*
X111808458Y-89888800D01*
X111985942Y-89888800D01*
X112010712Y-89893727D01*
G37*
G36*
X109470712Y-89893727D02*
G01*
X109620012Y-89923424D01*
X109783984Y-89991344D01*
X109931554Y-90089947D01*
X110057053Y-90215446D01*
X110155656Y-90363016D01*
X110223576Y-90526988D01*
X110258200Y-90701059D01*
X110258200Y-90878541D01*
X110223576Y-91052612D01*
X110155656Y-91216584D01*
X110057053Y-91364154D01*
X109931554Y-91489653D01*
X109783984Y-91588256D01*
X109620012Y-91656176D01*
X109470712Y-91685873D01*
X109445942Y-91690800D01*
X109268458Y-91690800D01*
X109243688Y-91685873D01*
X109094388Y-91656176D01*
X108930416Y-91588256D01*
X108782846Y-91489653D01*
X108657347Y-91364154D01*
X108558744Y-91216584D01*
X108490824Y-91052612D01*
X108456200Y-90878541D01*
X108456200Y-90701059D01*
X108490824Y-90526988D01*
X108558744Y-90363016D01*
X108657347Y-90215446D01*
X108782846Y-90089947D01*
X108930416Y-89991344D01*
X109094388Y-89923424D01*
X109243688Y-89893727D01*
X109268458Y-89888800D01*
X109445942Y-89888800D01*
X109470712Y-89893727D01*
G37*
G36*
X139950712Y-89893727D02*
G01*
X140100012Y-89923424D01*
X140263984Y-89991344D01*
X140411554Y-90089947D01*
X140537053Y-90215446D01*
X140635656Y-90363016D01*
X140703576Y-90526988D01*
X140738200Y-90701059D01*
X140738200Y-90878541D01*
X140703576Y-91052612D01*
X140635656Y-91216584D01*
X140537053Y-91364154D01*
X140411554Y-91489653D01*
X140263984Y-91588256D01*
X140100012Y-91656176D01*
X139950712Y-91685873D01*
X139925942Y-91690800D01*
X139748458Y-91690800D01*
X139723688Y-91685873D01*
X139574388Y-91656176D01*
X139410416Y-91588256D01*
X139262846Y-91489653D01*
X139137347Y-91364154D01*
X139038744Y-91216584D01*
X138970824Y-91052612D01*
X138936200Y-90878541D01*
X138936200Y-90701059D01*
X138970824Y-90526988D01*
X139038744Y-90363016D01*
X139137347Y-90215446D01*
X139262846Y-90089947D01*
X139410416Y-89991344D01*
X139574388Y-89923424D01*
X139723688Y-89893727D01*
X139748458Y-89888800D01*
X139925942Y-89888800D01*
X139950712Y-89893727D01*
G37*
G36*
X142490712Y-89893727D02*
G01*
X142640012Y-89923424D01*
X142803984Y-89991344D01*
X142951554Y-90089947D01*
X143077053Y-90215446D01*
X143175656Y-90363016D01*
X143243576Y-90526988D01*
X143278200Y-90701059D01*
X143278200Y-90878541D01*
X143243576Y-91052612D01*
X143175656Y-91216584D01*
X143077053Y-91364154D01*
X142951554Y-91489653D01*
X142803984Y-91588256D01*
X142640012Y-91656176D01*
X142490712Y-91685873D01*
X142465942Y-91690800D01*
X142288458Y-91690800D01*
X142263688Y-91685873D01*
X142114388Y-91656176D01*
X141950416Y-91588256D01*
X141802846Y-91489653D01*
X141677347Y-91364154D01*
X141578744Y-91216584D01*
X141510824Y-91052612D01*
X141476200Y-90878541D01*
X141476200Y-90701059D01*
X141510824Y-90526988D01*
X141578744Y-90363016D01*
X141677347Y-90215446D01*
X141802846Y-90089947D01*
X141950416Y-89991344D01*
X142114388Y-89923424D01*
X142263688Y-89893727D01*
X142288458Y-89888800D01*
X142465942Y-89888800D01*
X142490712Y-89893727D01*
G37*
G36*
X119630712Y-89893727D02*
G01*
X119780012Y-89923424D01*
X119943984Y-89991344D01*
X120091554Y-90089947D01*
X120217053Y-90215446D01*
X120315656Y-90363016D01*
X120383576Y-90526988D01*
X120418200Y-90701059D01*
X120418200Y-90878541D01*
X120383576Y-91052612D01*
X120315656Y-91216584D01*
X120217053Y-91364154D01*
X120091554Y-91489653D01*
X119943984Y-91588256D01*
X119780012Y-91656176D01*
X119630712Y-91685873D01*
X119605942Y-91690800D01*
X119428458Y-91690800D01*
X119403688Y-91685873D01*
X119254388Y-91656176D01*
X119090416Y-91588256D01*
X118942846Y-91489653D01*
X118817347Y-91364154D01*
X118718744Y-91216584D01*
X118650824Y-91052612D01*
X118616200Y-90878541D01*
X118616200Y-90701059D01*
X118650824Y-90526988D01*
X118718744Y-90363016D01*
X118817347Y-90215446D01*
X118942846Y-90089947D01*
X119090416Y-89991344D01*
X119254388Y-89923424D01*
X119403688Y-89893727D01*
X119428458Y-89888800D01*
X119605942Y-89888800D01*
X119630712Y-89893727D01*
G37*
G36*
X124002103Y-83607675D02*
G01*
X124229771Y-83701978D01*
X124434666Y-83838885D01*
X124608915Y-84013134D01*
X124745822Y-84218029D01*
X124840125Y-84445697D01*
X124888200Y-84687387D01*
X124888200Y-84933813D01*
X124840125Y-85175503D01*
X124745822Y-85403171D01*
X124608915Y-85608066D01*
X124434666Y-85782315D01*
X124229771Y-85919222D01*
X124229770Y-85919223D01*
X124229769Y-85919223D01*
X124002103Y-86013525D01*
X123760414Y-86061600D01*
X123513986Y-86061600D01*
X123272297Y-86013525D01*
X123044631Y-85919223D01*
X123044630Y-85919223D01*
X123044629Y-85919222D01*
X122839734Y-85782315D01*
X122665485Y-85608066D01*
X122528578Y-85403171D01*
X122434275Y-85175503D01*
X122386200Y-84933813D01*
X122386200Y-84687387D01*
X122434275Y-84445697D01*
X122528578Y-84218029D01*
X122665485Y-84013134D01*
X122839734Y-83838885D01*
X123044629Y-83701978D01*
X123272297Y-83607675D01*
X123513986Y-83559600D01*
X123760414Y-83559600D01*
X124002103Y-83607675D01*
G37*
G36*
X134502103Y-83607675D02*
G01*
X134729771Y-83701978D01*
X134934666Y-83838885D01*
X135108915Y-84013134D01*
X135245822Y-84218029D01*
X135340125Y-84445697D01*
X135388200Y-84687387D01*
X135388200Y-84933813D01*
X135340125Y-85175503D01*
X135245822Y-85403171D01*
X135108915Y-85608066D01*
X134934666Y-85782315D01*
X134729771Y-85919222D01*
X134729770Y-85919223D01*
X134729769Y-85919223D01*
X134502103Y-86013525D01*
X134260414Y-86061600D01*
X134013986Y-86061600D01*
X133772297Y-86013525D01*
X133544631Y-85919223D01*
X133544630Y-85919223D01*
X133544629Y-85919222D01*
X133339734Y-85782315D01*
X133165485Y-85608066D01*
X133028578Y-85403171D01*
X132934275Y-85175503D01*
X132886200Y-84933813D01*
X132886200Y-84687387D01*
X132934275Y-84445697D01*
X133028578Y-84218029D01*
X133165485Y-84013134D01*
X133339734Y-83838885D01*
X133544629Y-83701978D01*
X133772297Y-83607675D01*
X134013986Y-83559600D01*
X134260414Y-83559600D01*
X134502103Y-83607675D01*
G37*
G36*
X148502103Y-83607675D02*
G01*
X148729771Y-83701978D01*
X148934666Y-83838885D01*
X149108915Y-84013134D01*
X149245822Y-84218029D01*
X149340125Y-84445697D01*
X149388200Y-84687387D01*
X149388200Y-84933813D01*
X149340125Y-85175503D01*
X149245822Y-85403171D01*
X149108915Y-85608066D01*
X148934666Y-85782315D01*
X148729771Y-85919222D01*
X148729770Y-85919223D01*
X148729769Y-85919223D01*
X148502103Y-86013525D01*
X148260414Y-86061600D01*
X148013986Y-86061600D01*
X147772297Y-86013525D01*
X147544631Y-85919223D01*
X147544630Y-85919223D01*
X147544629Y-85919222D01*
X147339734Y-85782315D01*
X147165485Y-85608066D01*
X147028578Y-85403171D01*
X146934275Y-85175503D01*
X146886200Y-84933813D01*
X146886200Y-84687387D01*
X146934275Y-84445697D01*
X147028578Y-84218029D01*
X147165485Y-84013134D01*
X147339734Y-83838885D01*
X147544629Y-83701978D01*
X147772297Y-83607675D01*
X148013986Y-83559600D01*
X148260414Y-83559600D01*
X148502103Y-83607675D01*
G37*
G36*
X145002103Y-83607675D02*
G01*
X145229771Y-83701978D01*
X145434666Y-83838885D01*
X145608915Y-84013134D01*
X145745822Y-84218029D01*
X145840125Y-84445697D01*
X145888200Y-84687387D01*
X145888200Y-84933813D01*
X145840125Y-85175503D01*
X145745822Y-85403171D01*
X145608915Y-85608066D01*
X145434666Y-85782315D01*
X145229771Y-85919222D01*
X145229770Y-85919223D01*
X145229769Y-85919223D01*
X145002103Y-86013525D01*
X144760414Y-86061600D01*
X144513986Y-86061600D01*
X144272297Y-86013525D01*
X144044631Y-85919223D01*
X144044630Y-85919223D01*
X144044629Y-85919222D01*
X143839734Y-85782315D01*
X143665485Y-85608066D01*
X143528578Y-85403171D01*
X143434275Y-85175503D01*
X143386200Y-84933813D01*
X143386200Y-84687387D01*
X143434275Y-84445697D01*
X143528578Y-84218029D01*
X143665485Y-84013134D01*
X143839734Y-83838885D01*
X144044629Y-83701978D01*
X144272297Y-83607675D01*
X144513986Y-83559600D01*
X144760414Y-83559600D01*
X145002103Y-83607675D01*
G37*
G36*
X141502103Y-83607675D02*
G01*
X141729771Y-83701978D01*
X141934666Y-83838885D01*
X142108915Y-84013134D01*
X142245822Y-84218029D01*
X142340125Y-84445697D01*
X142388200Y-84687387D01*
X142388200Y-84933813D01*
X142340125Y-85175503D01*
X142245822Y-85403171D01*
X142108915Y-85608066D01*
X141934666Y-85782315D01*
X141729771Y-85919222D01*
X141729770Y-85919223D01*
X141729769Y-85919223D01*
X141502103Y-86013525D01*
X141260414Y-86061600D01*
X141013986Y-86061600D01*
X140772297Y-86013525D01*
X140544631Y-85919223D01*
X140544630Y-85919223D01*
X140544629Y-85919222D01*
X140339734Y-85782315D01*
X140165485Y-85608066D01*
X140028578Y-85403171D01*
X139934275Y-85175503D01*
X139886200Y-84933813D01*
X139886200Y-84687387D01*
X139934275Y-84445697D01*
X140028578Y-84218029D01*
X140165485Y-84013134D01*
X140339734Y-83838885D01*
X140544629Y-83701978D01*
X140772297Y-83607675D01*
X141013986Y-83559600D01*
X141260414Y-83559600D01*
X141502103Y-83607675D01*
G37*
G36*
X138002103Y-83607675D02*
G01*
X138229771Y-83701978D01*
X138434666Y-83838885D01*
X138608915Y-84013134D01*
X138745822Y-84218029D01*
X138840125Y-84445697D01*
X138888200Y-84687387D01*
X138888200Y-84933813D01*
X138840125Y-85175503D01*
X138745822Y-85403171D01*
X138608915Y-85608066D01*
X138434666Y-85782315D01*
X138229771Y-85919222D01*
X138229770Y-85919223D01*
X138229769Y-85919223D01*
X138002103Y-86013525D01*
X137760414Y-86061600D01*
X137513986Y-86061600D01*
X137272297Y-86013525D01*
X137044631Y-85919223D01*
X137044630Y-85919223D01*
X137044629Y-85919222D01*
X136839734Y-85782315D01*
X136665485Y-85608066D01*
X136528578Y-85403171D01*
X136434275Y-85175503D01*
X136386200Y-84933813D01*
X136386200Y-84687387D01*
X136434275Y-84445697D01*
X136528578Y-84218029D01*
X136665485Y-84013134D01*
X136839734Y-83838885D01*
X137044629Y-83701978D01*
X137272297Y-83607675D01*
X137513986Y-83559600D01*
X137760414Y-83559600D01*
X138002103Y-83607675D01*
G37*
G36*
X152002103Y-83607675D02*
G01*
X152229771Y-83701978D01*
X152434666Y-83838885D01*
X152608915Y-84013134D01*
X152745822Y-84218029D01*
X152840125Y-84445697D01*
X152888200Y-84687387D01*
X152888200Y-84933813D01*
X152840125Y-85175503D01*
X152745822Y-85403171D01*
X152608915Y-85608066D01*
X152434666Y-85782315D01*
X152229771Y-85919222D01*
X152229770Y-85919223D01*
X152229769Y-85919223D01*
X152002103Y-86013525D01*
X151760414Y-86061600D01*
X151513986Y-86061600D01*
X151272297Y-86013525D01*
X151044631Y-85919223D01*
X151044630Y-85919223D01*
X151044629Y-85919222D01*
X150839734Y-85782315D01*
X150665485Y-85608066D01*
X150528578Y-85403171D01*
X150434275Y-85175503D01*
X150386200Y-84933813D01*
X150386200Y-84687387D01*
X150434275Y-84445697D01*
X150528578Y-84218029D01*
X150665485Y-84013134D01*
X150839734Y-83838885D01*
X151044629Y-83701978D01*
X151272297Y-83607675D01*
X151513986Y-83559600D01*
X151760414Y-83559600D01*
X152002103Y-83607675D01*
G37*
G36*
X127502103Y-83607675D02*
G01*
X127729771Y-83701978D01*
X127934666Y-83838885D01*
X128108915Y-84013134D01*
X128245822Y-84218029D01*
X128340125Y-84445697D01*
X128388200Y-84687387D01*
X128388200Y-84933813D01*
X128340125Y-85175503D01*
X128245822Y-85403171D01*
X128108915Y-85608066D01*
X127934666Y-85782315D01*
X127729771Y-85919222D01*
X127729770Y-85919223D01*
X127729769Y-85919223D01*
X127502103Y-86013525D01*
X127260414Y-86061600D01*
X127013986Y-86061600D01*
X126772297Y-86013525D01*
X126544631Y-85919223D01*
X126544630Y-85919223D01*
X126544629Y-85919222D01*
X126339734Y-85782315D01*
X126165485Y-85608066D01*
X126028578Y-85403171D01*
X125934275Y-85175503D01*
X125886200Y-84933813D01*
X125886200Y-84687387D01*
X125934275Y-84445697D01*
X126028578Y-84218029D01*
X126165485Y-84013134D01*
X126339734Y-83838885D01*
X126544629Y-83701978D01*
X126772297Y-83607675D01*
X127013986Y-83559600D01*
X127260414Y-83559600D01*
X127502103Y-83607675D01*
G37*
G36*
X120502103Y-83607675D02*
G01*
X120729771Y-83701978D01*
X120934666Y-83838885D01*
X121108915Y-84013134D01*
X121245822Y-84218029D01*
X121340125Y-84445697D01*
X121388200Y-84687387D01*
X121388200Y-84933813D01*
X121340125Y-85175503D01*
X121245822Y-85403171D01*
X121108915Y-85608066D01*
X120934666Y-85782315D01*
X120729771Y-85919222D01*
X120729770Y-85919223D01*
X120729769Y-85919223D01*
X120502103Y-86013525D01*
X120260414Y-86061600D01*
X120013986Y-86061600D01*
X119772297Y-86013525D01*
X119544631Y-85919223D01*
X119544630Y-85919223D01*
X119544629Y-85919222D01*
X119339734Y-85782315D01*
X119165485Y-85608066D01*
X119028578Y-85403171D01*
X118934275Y-85175503D01*
X118886200Y-84933813D01*
X118886200Y-84687387D01*
X118934275Y-84445697D01*
X119028578Y-84218029D01*
X119165485Y-84013134D01*
X119339734Y-83838885D01*
X119544629Y-83701978D01*
X119772297Y-83607675D01*
X120013986Y-83559600D01*
X120260414Y-83559600D01*
X120502103Y-83607675D01*
G37*
G36*
X117002103Y-83607675D02*
G01*
X117229771Y-83701978D01*
X117434666Y-83838885D01*
X117608915Y-84013134D01*
X117745822Y-84218029D01*
X117840125Y-84445697D01*
X117888200Y-84687387D01*
X117888200Y-84933813D01*
X117840125Y-85175503D01*
X117745822Y-85403171D01*
X117608915Y-85608066D01*
X117434666Y-85782315D01*
X117229771Y-85919222D01*
X117229770Y-85919223D01*
X117229769Y-85919223D01*
X117002103Y-86013525D01*
X116760414Y-86061600D01*
X116513986Y-86061600D01*
X116272297Y-86013525D01*
X116044631Y-85919223D01*
X116044630Y-85919223D01*
X116044629Y-85919222D01*
X115839734Y-85782315D01*
X115665485Y-85608066D01*
X115528578Y-85403171D01*
X115434275Y-85175503D01*
X115386200Y-84933813D01*
X115386200Y-84687387D01*
X115434275Y-84445697D01*
X115528578Y-84218029D01*
X115665485Y-84013134D01*
X115839734Y-83838885D01*
X116044629Y-83701978D01*
X116272297Y-83607675D01*
X116513986Y-83559600D01*
X116760414Y-83559600D01*
X117002103Y-83607675D01*
G37*
G36*
X113502103Y-83607675D02*
G01*
X113729771Y-83701978D01*
X113934666Y-83838885D01*
X114108915Y-84013134D01*
X114245822Y-84218029D01*
X114340125Y-84445697D01*
X114388200Y-84687387D01*
X114388200Y-84933813D01*
X114340125Y-85175503D01*
X114245822Y-85403171D01*
X114108915Y-85608066D01*
X113934666Y-85782315D01*
X113729771Y-85919222D01*
X113729770Y-85919223D01*
X113729769Y-85919223D01*
X113502103Y-86013525D01*
X113260414Y-86061600D01*
X113013986Y-86061600D01*
X112772297Y-86013525D01*
X112544631Y-85919223D01*
X112544630Y-85919223D01*
X112544629Y-85919222D01*
X112339734Y-85782315D01*
X112165485Y-85608066D01*
X112028578Y-85403171D01*
X111934275Y-85175503D01*
X111886200Y-84933813D01*
X111886200Y-84687387D01*
X111934275Y-84445697D01*
X112028578Y-84218029D01*
X112165485Y-84013134D01*
X112339734Y-83838885D01*
X112544629Y-83701978D01*
X112772297Y-83607675D01*
X113013986Y-83559600D01*
X113260414Y-83559600D01*
X113502103Y-83607675D01*
G37*
G36*
X110002103Y-83607675D02*
G01*
X110229771Y-83701978D01*
X110434666Y-83838885D01*
X110608915Y-84013134D01*
X110745822Y-84218029D01*
X110840125Y-84445697D01*
X110888200Y-84687387D01*
X110888200Y-84933813D01*
X110840125Y-85175503D01*
X110745822Y-85403171D01*
X110608915Y-85608066D01*
X110434666Y-85782315D01*
X110229771Y-85919222D01*
X110229770Y-85919223D01*
X110229769Y-85919223D01*
X110002103Y-86013525D01*
X109760414Y-86061600D01*
X109513986Y-86061600D01*
X109272297Y-86013525D01*
X109044631Y-85919223D01*
X109044630Y-85919223D01*
X109044629Y-85919222D01*
X108839734Y-85782315D01*
X108665485Y-85608066D01*
X108528578Y-85403171D01*
X108434275Y-85175503D01*
X108386200Y-84933813D01*
X108386200Y-84687387D01*
X108434275Y-84445697D01*
X108528578Y-84218029D01*
X108665485Y-84013134D01*
X108839734Y-83838885D01*
X109044629Y-83701978D01*
X109272297Y-83607675D01*
X109513986Y-83559600D01*
X109760414Y-83559600D01*
X110002103Y-83607675D01*
G37*
G36*
X106502103Y-83607675D02*
G01*
X106729771Y-83701978D01*
X106934666Y-83838885D01*
X107108915Y-84013134D01*
X107245822Y-84218029D01*
X107340125Y-84445697D01*
X107388200Y-84687387D01*
X107388200Y-84933813D01*
X107340125Y-85175503D01*
X107245822Y-85403171D01*
X107108915Y-85608066D01*
X106934666Y-85782315D01*
X106729771Y-85919222D01*
X106729770Y-85919223D01*
X106729769Y-85919223D01*
X106502103Y-86013525D01*
X106260414Y-86061600D01*
X106013986Y-86061600D01*
X105772297Y-86013525D01*
X105544631Y-85919223D01*
X105544630Y-85919223D01*
X105544629Y-85919222D01*
X105339734Y-85782315D01*
X105165485Y-85608066D01*
X105028578Y-85403171D01*
X104934275Y-85175503D01*
X104886200Y-84933813D01*
X104886200Y-84687387D01*
X104934275Y-84445697D01*
X105028578Y-84218029D01*
X105165485Y-84013134D01*
X105339734Y-83838885D01*
X105544629Y-83701978D01*
X105772297Y-83607675D01*
X106013986Y-83559600D01*
X106260414Y-83559600D01*
X106502103Y-83607675D01*
G37*
G36*
X103002103Y-83607675D02*
G01*
X103229771Y-83701978D01*
X103434666Y-83838885D01*
X103608915Y-84013134D01*
X103745822Y-84218029D01*
X103840125Y-84445697D01*
X103888200Y-84687387D01*
X103888200Y-84933813D01*
X103840125Y-85175503D01*
X103745822Y-85403171D01*
X103608915Y-85608066D01*
X103434666Y-85782315D01*
X103229771Y-85919222D01*
X103229770Y-85919223D01*
X103229769Y-85919223D01*
X103002103Y-86013525D01*
X102760414Y-86061600D01*
X102513986Y-86061600D01*
X102272297Y-86013525D01*
X102044631Y-85919223D01*
X102044630Y-85919223D01*
X102044629Y-85919222D01*
X101839734Y-85782315D01*
X101665485Y-85608066D01*
X101528578Y-85403171D01*
X101434275Y-85175503D01*
X101386200Y-84933813D01*
X101386200Y-84687387D01*
X101434275Y-84445697D01*
X101528578Y-84218029D01*
X101665485Y-84013134D01*
X101839734Y-83838885D01*
X102044629Y-83701978D01*
X102272297Y-83607675D01*
X102513986Y-83559600D01*
X102760414Y-83559600D01*
X103002103Y-83607675D01*
G37*
G36*
X131002103Y-83607675D02*
G01*
X131229771Y-83701978D01*
X131434666Y-83838885D01*
X131608915Y-84013134D01*
X131745822Y-84218029D01*
X131840125Y-84445697D01*
X131888200Y-84687387D01*
X131888200Y-84933813D01*
X131840125Y-85175503D01*
X131745822Y-85403171D01*
X131608915Y-85608066D01*
X131434666Y-85782315D01*
X131229771Y-85919222D01*
X131229770Y-85919223D01*
X131229769Y-85919223D01*
X131002103Y-86013525D01*
X130760414Y-86061600D01*
X130513986Y-86061600D01*
X130272297Y-86013525D01*
X130044631Y-85919223D01*
X130044630Y-85919223D01*
X130044629Y-85919222D01*
X129839734Y-85782315D01*
X129665485Y-85608066D01*
X129528578Y-85403171D01*
X129434275Y-85175503D01*
X129386200Y-84933813D01*
X129386200Y-84687387D01*
X129434275Y-84445697D01*
X129528578Y-84218029D01*
X129665485Y-84013134D01*
X129839734Y-83838885D01*
X130044629Y-83701978D01*
X130272297Y-83607675D01*
X130513986Y-83559600D01*
X130760414Y-83559600D01*
X131002103Y-83607675D01*
G37*
G36*
X152002103Y-75246075D02*
G01*
X152229771Y-75340378D01*
X152434666Y-75477285D01*
X152608915Y-75651534D01*
X152745822Y-75856429D01*
X152840125Y-76084097D01*
X152888200Y-76325787D01*
X152888200Y-76572213D01*
X152840125Y-76813903D01*
X152745822Y-77041571D01*
X152608915Y-77246466D01*
X152434666Y-77420715D01*
X152229771Y-77557622D01*
X152229770Y-77557623D01*
X152229769Y-77557623D01*
X152002103Y-77651925D01*
X151760414Y-77700000D01*
X151513986Y-77700000D01*
X151272297Y-77651925D01*
X151044631Y-77557623D01*
X151044630Y-77557623D01*
X151044629Y-77557622D01*
X150839734Y-77420715D01*
X150665485Y-77246466D01*
X150528578Y-77041571D01*
X150434275Y-76813903D01*
X150386200Y-76572213D01*
X150386200Y-76325787D01*
X150434275Y-76084097D01*
X150528578Y-75856429D01*
X150665485Y-75651534D01*
X150839734Y-75477285D01*
X151044629Y-75340378D01*
X151272297Y-75246075D01*
X151513986Y-75198000D01*
X151760414Y-75198000D01*
X152002103Y-75246075D01*
G37*
G36*
X138002103Y-75246075D02*
G01*
X138229771Y-75340378D01*
X138434666Y-75477285D01*
X138608915Y-75651534D01*
X138745822Y-75856429D01*
X138840125Y-76084097D01*
X138888200Y-76325787D01*
X138888200Y-76572213D01*
X138840125Y-76813903D01*
X138745822Y-77041571D01*
X138608915Y-77246466D01*
X138434666Y-77420715D01*
X138229771Y-77557622D01*
X138229770Y-77557623D01*
X138229769Y-77557623D01*
X138002103Y-77651925D01*
X137760414Y-77700000D01*
X137513986Y-77700000D01*
X137272297Y-77651925D01*
X137044631Y-77557623D01*
X137044630Y-77557623D01*
X137044629Y-77557622D01*
X136839734Y-77420715D01*
X136665485Y-77246466D01*
X136528578Y-77041571D01*
X136434275Y-76813903D01*
X136386200Y-76572213D01*
X136386200Y-76325787D01*
X136434275Y-76084097D01*
X136528578Y-75856429D01*
X136665485Y-75651534D01*
X136839734Y-75477285D01*
X137044629Y-75340378D01*
X137272297Y-75246075D01*
X137513986Y-75198000D01*
X137760414Y-75198000D01*
X138002103Y-75246075D01*
G37*
G36*
X141502103Y-75246075D02*
G01*
X141729771Y-75340378D01*
X141934666Y-75477285D01*
X142108915Y-75651534D01*
X142245822Y-75856429D01*
X142340125Y-76084097D01*
X142388200Y-76325787D01*
X142388200Y-76572213D01*
X142340125Y-76813903D01*
X142245822Y-77041571D01*
X142108915Y-77246466D01*
X141934666Y-77420715D01*
X141729771Y-77557622D01*
X141729770Y-77557623D01*
X141729769Y-77557623D01*
X141502103Y-77651925D01*
X141260414Y-77700000D01*
X141013986Y-77700000D01*
X140772297Y-77651925D01*
X140544631Y-77557623D01*
X140544630Y-77557623D01*
X140544629Y-77557622D01*
X140339734Y-77420715D01*
X140165485Y-77246466D01*
X140028578Y-77041571D01*
X139934275Y-76813903D01*
X139886200Y-76572213D01*
X139886200Y-76325787D01*
X139934275Y-76084097D01*
X140028578Y-75856429D01*
X140165485Y-75651534D01*
X140339734Y-75477285D01*
X140544629Y-75340378D01*
X140772297Y-75246075D01*
X141013986Y-75198000D01*
X141260414Y-75198000D01*
X141502103Y-75246075D01*
G37*
G36*
X145002103Y-75246075D02*
G01*
X145229771Y-75340378D01*
X145434666Y-75477285D01*
X145608915Y-75651534D01*
X145745822Y-75856429D01*
X145840125Y-76084097D01*
X145888200Y-76325787D01*
X145888200Y-76572213D01*
X145840125Y-76813903D01*
X145745822Y-77041571D01*
X145608915Y-77246466D01*
X145434666Y-77420715D01*
X145229771Y-77557622D01*
X145229770Y-77557623D01*
X145229769Y-77557623D01*
X145002103Y-77651925D01*
X144760414Y-77700000D01*
X144513986Y-77700000D01*
X144272297Y-77651925D01*
X144044631Y-77557623D01*
X144044630Y-77557623D01*
X144044629Y-77557622D01*
X143839734Y-77420715D01*
X143665485Y-77246466D01*
X143528578Y-77041571D01*
X143434275Y-76813903D01*
X143386200Y-76572213D01*
X143386200Y-76325787D01*
X143434275Y-76084097D01*
X143528578Y-75856429D01*
X143665485Y-75651534D01*
X143839734Y-75477285D01*
X144044629Y-75340378D01*
X144272297Y-75246075D01*
X144513986Y-75198000D01*
X144760414Y-75198000D01*
X145002103Y-75246075D01*
G37*
G36*
X134502103Y-75246075D02*
G01*
X134729771Y-75340378D01*
X134934666Y-75477285D01*
X135108915Y-75651534D01*
X135245822Y-75856429D01*
X135340125Y-76084097D01*
X135388200Y-76325787D01*
X135388200Y-76572213D01*
X135340125Y-76813903D01*
X135245822Y-77041571D01*
X135108915Y-77246466D01*
X134934666Y-77420715D01*
X134729771Y-77557622D01*
X134729770Y-77557623D01*
X134729769Y-77557623D01*
X134502103Y-77651925D01*
X134260414Y-77700000D01*
X134013986Y-77700000D01*
X133772297Y-77651925D01*
X133544631Y-77557623D01*
X133544630Y-77557623D01*
X133544629Y-77557622D01*
X133339734Y-77420715D01*
X133165485Y-77246466D01*
X133028578Y-77041571D01*
X132934275Y-76813903D01*
X132886200Y-76572213D01*
X132886200Y-76325787D01*
X132934275Y-76084097D01*
X133028578Y-75856429D01*
X133165485Y-75651534D01*
X133339734Y-75477285D01*
X133544629Y-75340378D01*
X133772297Y-75246075D01*
X134013986Y-75198000D01*
X134260414Y-75198000D01*
X134502103Y-75246075D01*
G37*
G36*
X131002103Y-75246075D02*
G01*
X131229771Y-75340378D01*
X131434666Y-75477285D01*
X131608915Y-75651534D01*
X131745822Y-75856429D01*
X131840125Y-76084097D01*
X131888200Y-76325787D01*
X131888200Y-76572213D01*
X131840125Y-76813903D01*
X131745822Y-77041571D01*
X131608915Y-77246466D01*
X131434666Y-77420715D01*
X131229771Y-77557622D01*
X131229770Y-77557623D01*
X131229769Y-77557623D01*
X131002103Y-77651925D01*
X130760414Y-77700000D01*
X130513986Y-77700000D01*
X130272297Y-77651925D01*
X130044631Y-77557623D01*
X130044630Y-77557623D01*
X130044629Y-77557622D01*
X129839734Y-77420715D01*
X129665485Y-77246466D01*
X129528578Y-77041571D01*
X129434275Y-76813903D01*
X129386200Y-76572213D01*
X129386200Y-76325787D01*
X129434275Y-76084097D01*
X129528578Y-75856429D01*
X129665485Y-75651534D01*
X129839734Y-75477285D01*
X130044629Y-75340378D01*
X130272297Y-75246075D01*
X130513986Y-75198000D01*
X130760414Y-75198000D01*
X131002103Y-75246075D01*
G37*
G36*
X127502103Y-75246075D02*
G01*
X127729771Y-75340378D01*
X127934666Y-75477285D01*
X128108915Y-75651534D01*
X128245822Y-75856429D01*
X128340125Y-76084097D01*
X128388200Y-76325787D01*
X128388200Y-76572213D01*
X128340125Y-76813903D01*
X128245822Y-77041571D01*
X128108915Y-77246466D01*
X127934666Y-77420715D01*
X127729771Y-77557622D01*
X127729770Y-77557623D01*
X127729769Y-77557623D01*
X127502103Y-77651925D01*
X127260414Y-77700000D01*
X127013986Y-77700000D01*
X126772297Y-77651925D01*
X126544631Y-77557623D01*
X126544630Y-77557623D01*
X126544629Y-77557622D01*
X126339734Y-77420715D01*
X126165485Y-77246466D01*
X126028578Y-77041571D01*
X125934275Y-76813903D01*
X125886200Y-76572213D01*
X125886200Y-76325787D01*
X125934275Y-76084097D01*
X126028578Y-75856429D01*
X126165485Y-75651534D01*
X126339734Y-75477285D01*
X126544629Y-75340378D01*
X126772297Y-75246075D01*
X127013986Y-75198000D01*
X127260414Y-75198000D01*
X127502103Y-75246075D01*
G37*
G36*
X124002103Y-75246075D02*
G01*
X124229771Y-75340378D01*
X124434666Y-75477285D01*
X124608915Y-75651534D01*
X124745822Y-75856429D01*
X124840125Y-76084097D01*
X124888200Y-76325787D01*
X124888200Y-76572213D01*
X124840125Y-76813903D01*
X124745822Y-77041571D01*
X124608915Y-77246466D01*
X124434666Y-77420715D01*
X124229771Y-77557622D01*
X124229770Y-77557623D01*
X124229769Y-77557623D01*
X124002103Y-77651925D01*
X123760414Y-77700000D01*
X123513986Y-77700000D01*
X123272297Y-77651925D01*
X123044631Y-77557623D01*
X123044630Y-77557623D01*
X123044629Y-77557622D01*
X122839734Y-77420715D01*
X122665485Y-77246466D01*
X122528578Y-77041571D01*
X122434275Y-76813903D01*
X122386200Y-76572213D01*
X122386200Y-76325787D01*
X122434275Y-76084097D01*
X122528578Y-75856429D01*
X122665485Y-75651534D01*
X122839734Y-75477285D01*
X123044629Y-75340378D01*
X123272297Y-75246075D01*
X123513986Y-75198000D01*
X123760414Y-75198000D01*
X124002103Y-75246075D01*
G37*
G36*
X117002103Y-75246075D02*
G01*
X117229771Y-75340378D01*
X117434666Y-75477285D01*
X117608915Y-75651534D01*
X117745822Y-75856429D01*
X117840125Y-76084097D01*
X117888200Y-76325787D01*
X117888200Y-76572213D01*
X117840125Y-76813903D01*
X117745822Y-77041571D01*
X117608915Y-77246466D01*
X117434666Y-77420715D01*
X117229771Y-77557622D01*
X117229770Y-77557623D01*
X117229769Y-77557623D01*
X117002103Y-77651925D01*
X116760414Y-77700000D01*
X116513986Y-77700000D01*
X116272297Y-77651925D01*
X116044631Y-77557623D01*
X116044630Y-77557623D01*
X116044629Y-77557622D01*
X115839734Y-77420715D01*
X115665485Y-77246466D01*
X115528578Y-77041571D01*
X115434275Y-76813903D01*
X115386200Y-76572213D01*
X115386200Y-76325787D01*
X115434275Y-76084097D01*
X115528578Y-75856429D01*
X115665485Y-75651534D01*
X115839734Y-75477285D01*
X116044629Y-75340378D01*
X116272297Y-75246075D01*
X116513986Y-75198000D01*
X116760414Y-75198000D01*
X117002103Y-75246075D01*
G37*
G36*
X120502103Y-75246075D02*
G01*
X120729771Y-75340378D01*
X120934666Y-75477285D01*
X121108915Y-75651534D01*
X121245822Y-75856429D01*
X121340125Y-76084097D01*
X121388200Y-76325787D01*
X121388200Y-76572213D01*
X121340125Y-76813903D01*
X121245822Y-77041571D01*
X121108915Y-77246466D01*
X120934666Y-77420715D01*
X120729771Y-77557622D01*
X120729770Y-77557623D01*
X120729769Y-77557623D01*
X120502103Y-77651925D01*
X120260414Y-77700000D01*
X120013986Y-77700000D01*
X119772297Y-77651925D01*
X119544631Y-77557623D01*
X119544630Y-77557623D01*
X119544629Y-77557622D01*
X119339734Y-77420715D01*
X119165485Y-77246466D01*
X119028578Y-77041571D01*
X118934275Y-76813903D01*
X118886200Y-76572213D01*
X118886200Y-76325787D01*
X118934275Y-76084097D01*
X119028578Y-75856429D01*
X119165485Y-75651534D01*
X119339734Y-75477285D01*
X119544629Y-75340378D01*
X119772297Y-75246075D01*
X120013986Y-75198000D01*
X120260414Y-75198000D01*
X120502103Y-75246075D01*
G37*
G36*
X148502103Y-75246075D02*
G01*
X148729771Y-75340378D01*
X148934666Y-75477285D01*
X149108915Y-75651534D01*
X149245822Y-75856429D01*
X149340125Y-76084097D01*
X149388200Y-76325787D01*
X149388200Y-76572213D01*
X149340125Y-76813903D01*
X149245822Y-77041571D01*
X149108915Y-77246466D01*
X148934666Y-77420715D01*
X148729771Y-77557622D01*
X148729770Y-77557623D01*
X148729769Y-77557623D01*
X148502103Y-77651925D01*
X148260414Y-77700000D01*
X148013986Y-77700000D01*
X147772297Y-77651925D01*
X147544631Y-77557623D01*
X147544630Y-77557623D01*
X147544629Y-77557622D01*
X147339734Y-77420715D01*
X147165485Y-77246466D01*
X147028578Y-77041571D01*
X146934275Y-76813903D01*
X146886200Y-76572213D01*
X146886200Y-76325787D01*
X146934275Y-76084097D01*
X147028578Y-75856429D01*
X147165485Y-75651534D01*
X147339734Y-75477285D01*
X147544629Y-75340378D01*
X147772297Y-75246075D01*
X148013986Y-75198000D01*
X148260414Y-75198000D01*
X148502103Y-75246075D01*
G37*
G36*
X103002103Y-75246075D02*
G01*
X103229771Y-75340378D01*
X103434666Y-75477285D01*
X103608915Y-75651534D01*
X103745822Y-75856429D01*
X103840125Y-76084097D01*
X103888200Y-76325787D01*
X103888200Y-76572213D01*
X103840125Y-76813903D01*
X103745822Y-77041571D01*
X103608915Y-77246466D01*
X103434666Y-77420715D01*
X103229771Y-77557622D01*
X103229770Y-77557623D01*
X103229769Y-77557623D01*
X103002103Y-77651925D01*
X102760414Y-77700000D01*
X102513986Y-77700000D01*
X102272297Y-77651925D01*
X102044631Y-77557623D01*
X102044630Y-77557623D01*
X102044629Y-77557622D01*
X101839734Y-77420715D01*
X101665485Y-77246466D01*
X101528578Y-77041571D01*
X101434275Y-76813903D01*
X101386200Y-76572213D01*
X101386200Y-76325787D01*
X101434275Y-76084097D01*
X101528578Y-75856429D01*
X101665485Y-75651534D01*
X101839734Y-75477285D01*
X102044629Y-75340378D01*
X102272297Y-75246075D01*
X102513986Y-75198000D01*
X102760414Y-75198000D01*
X103002103Y-75246075D01*
G37*
G36*
X110002103Y-75246075D02*
G01*
X110229771Y-75340378D01*
X110434666Y-75477285D01*
X110608915Y-75651534D01*
X110745822Y-75856429D01*
X110840125Y-76084097D01*
X110888200Y-76325787D01*
X110888200Y-76572213D01*
X110840125Y-76813903D01*
X110745822Y-77041571D01*
X110608915Y-77246466D01*
X110434666Y-77420715D01*
X110229771Y-77557622D01*
X110229770Y-77557623D01*
X110229769Y-77557623D01*
X110002103Y-77651925D01*
X109760414Y-77700000D01*
X109513986Y-77700000D01*
X109272297Y-77651925D01*
X109044631Y-77557623D01*
X109044630Y-77557623D01*
X109044629Y-77557622D01*
X108839734Y-77420715D01*
X108665485Y-77246466D01*
X108528578Y-77041571D01*
X108434275Y-76813903D01*
X108386200Y-76572213D01*
X108386200Y-76325787D01*
X108434275Y-76084097D01*
X108528578Y-75856429D01*
X108665485Y-75651534D01*
X108839734Y-75477285D01*
X109044629Y-75340378D01*
X109272297Y-75246075D01*
X109513986Y-75198000D01*
X109760414Y-75198000D01*
X110002103Y-75246075D01*
G37*
G36*
X113502103Y-75246075D02*
G01*
X113729771Y-75340378D01*
X113934666Y-75477285D01*
X114108915Y-75651534D01*
X114245822Y-75856429D01*
X114340125Y-76084097D01*
X114388200Y-76325787D01*
X114388200Y-76572213D01*
X114340125Y-76813903D01*
X114245822Y-77041571D01*
X114108915Y-77246466D01*
X113934666Y-77420715D01*
X113729771Y-77557622D01*
X113729770Y-77557623D01*
X113729769Y-77557623D01*
X113502103Y-77651925D01*
X113260414Y-77700000D01*
X113013986Y-77700000D01*
X112772297Y-77651925D01*
X112544631Y-77557623D01*
X112544630Y-77557623D01*
X112544629Y-77557622D01*
X112339734Y-77420715D01*
X112165485Y-77246466D01*
X112028578Y-77041571D01*
X111934275Y-76813903D01*
X111886200Y-76572213D01*
X111886200Y-76325787D01*
X111934275Y-76084097D01*
X112028578Y-75856429D01*
X112165485Y-75651534D01*
X112339734Y-75477285D01*
X112544629Y-75340378D01*
X112772297Y-75246075D01*
X113013986Y-75198000D01*
X113260414Y-75198000D01*
X113502103Y-75246075D01*
G37*
G36*
X106502103Y-75246075D02*
G01*
X106729771Y-75340378D01*
X106934666Y-75477285D01*
X107108915Y-75651534D01*
X107245822Y-75856429D01*
X107340125Y-76084097D01*
X107388200Y-76325787D01*
X107388200Y-76572213D01*
X107340125Y-76813903D01*
X107245822Y-77041571D01*
X107108915Y-77246466D01*
X106934666Y-77420715D01*
X106729771Y-77557622D01*
X106729770Y-77557623D01*
X106729769Y-77557623D01*
X106502103Y-77651925D01*
X106260414Y-77700000D01*
X106013986Y-77700000D01*
X105772297Y-77651925D01*
X105544631Y-77557623D01*
X105544630Y-77557623D01*
X105544629Y-77557622D01*
X105339734Y-77420715D01*
X105165485Y-77246466D01*
X105028578Y-77041571D01*
X104934275Y-76813903D01*
X104886200Y-76572213D01*
X104886200Y-76325787D01*
X104934275Y-76084097D01*
X105028578Y-75856429D01*
X105165485Y-75651534D01*
X105339734Y-75477285D01*
X105544629Y-75340378D01*
X105772297Y-75246075D01*
X106013986Y-75198000D01*
X106260414Y-75198000D01*
X106502103Y-75246075D01*
G37*
G36*
X114550712Y-69573727D02*
G01*
X114700012Y-69603424D01*
X114863984Y-69671344D01*
X115011554Y-69769947D01*
X115137053Y-69895446D01*
X115235656Y-70043016D01*
X115303576Y-70206988D01*
X115338200Y-70381059D01*
X115338200Y-70558541D01*
X115303576Y-70732612D01*
X115235656Y-70896584D01*
X115137053Y-71044154D01*
X115011554Y-71169653D01*
X114863984Y-71268256D01*
X114700012Y-71336176D01*
X114550712Y-71365873D01*
X114525942Y-71370800D01*
X114348458Y-71370800D01*
X114323688Y-71365873D01*
X114174388Y-71336176D01*
X114010416Y-71268256D01*
X113862846Y-71169653D01*
X113737347Y-71044154D01*
X113638744Y-70896584D01*
X113570824Y-70732612D01*
X113536200Y-70558541D01*
X113536200Y-70381059D01*
X113570824Y-70206988D01*
X113638744Y-70043016D01*
X113737347Y-69895446D01*
X113862846Y-69769947D01*
X114010416Y-69671344D01*
X114174388Y-69603424D01*
X114323688Y-69573727D01*
X114348458Y-69568800D01*
X114525942Y-69568800D01*
X114550712Y-69573727D01*
G37*
G36*
X127250712Y-69573727D02*
G01*
X127400012Y-69603424D01*
X127563984Y-69671344D01*
X127711554Y-69769947D01*
X127837053Y-69895446D01*
X127935656Y-70043016D01*
X128003576Y-70206988D01*
X128038200Y-70381059D01*
X128038200Y-70558541D01*
X128003576Y-70732612D01*
X127935656Y-70896584D01*
X127837053Y-71044154D01*
X127711554Y-71169653D01*
X127563984Y-71268256D01*
X127400012Y-71336176D01*
X127250712Y-71365873D01*
X127225942Y-71370800D01*
X127048458Y-71370800D01*
X127023688Y-71365873D01*
X126874388Y-71336176D01*
X126710416Y-71268256D01*
X126562846Y-71169653D01*
X126437347Y-71044154D01*
X126338744Y-70896584D01*
X126270824Y-70732612D01*
X126236200Y-70558541D01*
X126236200Y-70381059D01*
X126270824Y-70206988D01*
X126338744Y-70043016D01*
X126437347Y-69895446D01*
X126562846Y-69769947D01*
X126710416Y-69671344D01*
X126874388Y-69603424D01*
X127023688Y-69573727D01*
X127048458Y-69568800D01*
X127225942Y-69568800D01*
X127250712Y-69573727D01*
G37*
G36*
X124710712Y-69573727D02*
G01*
X124860012Y-69603424D01*
X125023984Y-69671344D01*
X125171554Y-69769947D01*
X125297053Y-69895446D01*
X125395656Y-70043016D01*
X125463576Y-70206988D01*
X125498200Y-70381059D01*
X125498200Y-70558541D01*
X125463576Y-70732612D01*
X125395656Y-70896584D01*
X125297053Y-71044154D01*
X125171554Y-71169653D01*
X125023984Y-71268256D01*
X124860012Y-71336176D01*
X124710712Y-71365873D01*
X124685942Y-71370800D01*
X124508458Y-71370800D01*
X124483688Y-71365873D01*
X124334388Y-71336176D01*
X124170416Y-71268256D01*
X124022846Y-71169653D01*
X123897347Y-71044154D01*
X123798744Y-70896584D01*
X123730824Y-70732612D01*
X123696200Y-70558541D01*
X123696200Y-70381059D01*
X123730824Y-70206988D01*
X123798744Y-70043016D01*
X123897347Y-69895446D01*
X124022846Y-69769947D01*
X124170416Y-69671344D01*
X124334388Y-69603424D01*
X124483688Y-69573727D01*
X124508458Y-69568800D01*
X124685942Y-69568800D01*
X124710712Y-69573727D01*
G37*
G36*
X122170712Y-69573727D02*
G01*
X122320012Y-69603424D01*
X122483984Y-69671344D01*
X122631554Y-69769947D01*
X122757053Y-69895446D01*
X122855656Y-70043016D01*
X122923576Y-70206988D01*
X122958200Y-70381059D01*
X122958200Y-70558541D01*
X122923576Y-70732612D01*
X122855656Y-70896584D01*
X122757053Y-71044154D01*
X122631554Y-71169653D01*
X122483984Y-71268256D01*
X122320012Y-71336176D01*
X122170712Y-71365873D01*
X122145942Y-71370800D01*
X121968458Y-71370800D01*
X121943688Y-71365873D01*
X121794388Y-71336176D01*
X121630416Y-71268256D01*
X121482846Y-71169653D01*
X121357347Y-71044154D01*
X121258744Y-70896584D01*
X121190824Y-70732612D01*
X121156200Y-70558541D01*
X121156200Y-70381059D01*
X121190824Y-70206988D01*
X121258744Y-70043016D01*
X121357347Y-69895446D01*
X121482846Y-69769947D01*
X121630416Y-69671344D01*
X121794388Y-69603424D01*
X121943688Y-69573727D01*
X121968458Y-69568800D01*
X122145942Y-69568800D01*
X122170712Y-69573727D01*
G37*
G36*
X117090712Y-69573727D02*
G01*
X117240012Y-69603424D01*
X117403984Y-69671344D01*
X117551554Y-69769947D01*
X117677053Y-69895446D01*
X117775656Y-70043016D01*
X117843576Y-70206988D01*
X117878200Y-70381059D01*
X117878200Y-70558541D01*
X117843576Y-70732612D01*
X117775656Y-70896584D01*
X117677053Y-71044154D01*
X117551554Y-71169653D01*
X117403984Y-71268256D01*
X117240012Y-71336176D01*
X117090712Y-71365873D01*
X117065942Y-71370800D01*
X116888458Y-71370800D01*
X116863688Y-71365873D01*
X116714388Y-71336176D01*
X116550416Y-71268256D01*
X116402846Y-71169653D01*
X116277347Y-71044154D01*
X116178744Y-70896584D01*
X116110824Y-70732612D01*
X116076200Y-70558541D01*
X116076200Y-70381059D01*
X116110824Y-70206988D01*
X116178744Y-70043016D01*
X116277347Y-69895446D01*
X116402846Y-69769947D01*
X116550416Y-69671344D01*
X116714388Y-69603424D01*
X116863688Y-69573727D01*
X116888458Y-69568800D01*
X117065942Y-69568800D01*
X117090712Y-69573727D01*
G37*
G36*
X112010712Y-69573727D02*
G01*
X112160012Y-69603424D01*
X112323984Y-69671344D01*
X112471554Y-69769947D01*
X112597053Y-69895446D01*
X112695656Y-70043016D01*
X112763576Y-70206988D01*
X112798200Y-70381059D01*
X112798200Y-70558541D01*
X112763576Y-70732612D01*
X112695656Y-70896584D01*
X112597053Y-71044154D01*
X112471554Y-71169653D01*
X112323984Y-71268256D01*
X112160012Y-71336176D01*
X112010712Y-71365873D01*
X111985942Y-71370800D01*
X111808458Y-71370800D01*
X111783688Y-71365873D01*
X111634388Y-71336176D01*
X111470416Y-71268256D01*
X111322846Y-71169653D01*
X111197347Y-71044154D01*
X111098744Y-70896584D01*
X111030824Y-70732612D01*
X110996200Y-70558541D01*
X110996200Y-70381059D01*
X111030824Y-70206988D01*
X111098744Y-70043016D01*
X111197347Y-69895446D01*
X111322846Y-69769947D01*
X111470416Y-69671344D01*
X111634388Y-69603424D01*
X111783688Y-69573727D01*
X111808458Y-69568800D01*
X111985942Y-69568800D01*
X112010712Y-69573727D01*
G37*
G36*
X109470712Y-69573727D02*
G01*
X109620012Y-69603424D01*
X109783984Y-69671344D01*
X109931554Y-69769947D01*
X110057053Y-69895446D01*
X110155656Y-70043016D01*
X110223576Y-70206988D01*
X110258200Y-70381059D01*
X110258200Y-70558541D01*
X110223576Y-70732612D01*
X110155656Y-70896584D01*
X110057053Y-71044154D01*
X109931554Y-71169653D01*
X109783984Y-71268256D01*
X109620012Y-71336176D01*
X109470712Y-71365873D01*
X109445942Y-71370800D01*
X109268458Y-71370800D01*
X109243688Y-71365873D01*
X109094388Y-71336176D01*
X108930416Y-71268256D01*
X108782846Y-71169653D01*
X108657347Y-71044154D01*
X108558744Y-70896584D01*
X108490824Y-70732612D01*
X108456200Y-70558541D01*
X108456200Y-70381059D01*
X108490824Y-70206988D01*
X108558744Y-70043016D01*
X108657347Y-69895446D01*
X108782846Y-69769947D01*
X108930416Y-69671344D01*
X109094388Y-69603424D01*
X109243688Y-69573727D01*
X109268458Y-69568800D01*
X109445942Y-69568800D01*
X109470712Y-69573727D01*
G37*
G36*
X129790712Y-69573727D02*
G01*
X129940012Y-69603424D01*
X130103984Y-69671344D01*
X130251554Y-69769947D01*
X130377053Y-69895446D01*
X130475656Y-70043016D01*
X130543576Y-70206988D01*
X130578200Y-70381059D01*
X130578200Y-70558541D01*
X130543576Y-70732612D01*
X130475656Y-70896584D01*
X130377053Y-71044154D01*
X130251554Y-71169653D01*
X130103984Y-71268256D01*
X129940012Y-71336176D01*
X129790712Y-71365873D01*
X129765942Y-71370800D01*
X129588458Y-71370800D01*
X129563688Y-71365873D01*
X129414388Y-71336176D01*
X129250416Y-71268256D01*
X129102846Y-71169653D01*
X128977347Y-71044154D01*
X128878744Y-70896584D01*
X128810824Y-70732612D01*
X128776200Y-70558541D01*
X128776200Y-70381059D01*
X128810824Y-70206988D01*
X128878744Y-70043016D01*
X128977347Y-69895446D01*
X129102846Y-69769947D01*
X129250416Y-69671344D01*
X129414388Y-69603424D01*
X129563688Y-69573727D01*
X129588458Y-69568800D01*
X129765942Y-69568800D01*
X129790712Y-69573727D01*
G37*
G36*
X132330712Y-69573727D02*
G01*
X132480012Y-69603424D01*
X132643984Y-69671344D01*
X132791554Y-69769947D01*
X132917053Y-69895446D01*
X133015656Y-70043016D01*
X133083576Y-70206988D01*
X133118200Y-70381059D01*
X133118200Y-70558541D01*
X133083576Y-70732612D01*
X133015656Y-70896584D01*
X132917053Y-71044154D01*
X132791554Y-71169653D01*
X132643984Y-71268256D01*
X132480012Y-71336176D01*
X132330712Y-71365873D01*
X132305942Y-71370800D01*
X132128458Y-71370800D01*
X132103688Y-71365873D01*
X131954388Y-71336176D01*
X131790416Y-71268256D01*
X131642846Y-71169653D01*
X131517347Y-71044154D01*
X131418744Y-70896584D01*
X131350824Y-70732612D01*
X131316200Y-70558541D01*
X131316200Y-70381059D01*
X131350824Y-70206988D01*
X131418744Y-70043016D01*
X131517347Y-69895446D01*
X131642846Y-69769947D01*
X131790416Y-69671344D01*
X131954388Y-69603424D01*
X132103688Y-69573727D01*
X132128458Y-69568800D01*
X132305942Y-69568800D01*
X132330712Y-69573727D01*
G37*
G36*
X119630712Y-69573727D02*
G01*
X119780012Y-69603424D01*
X119943984Y-69671344D01*
X120091554Y-69769947D01*
X120217053Y-69895446D01*
X120315656Y-70043016D01*
X120383576Y-70206988D01*
X120418200Y-70381059D01*
X120418200Y-70558541D01*
X120383576Y-70732612D01*
X120315656Y-70896584D01*
X120217053Y-71044154D01*
X120091554Y-71169653D01*
X119943984Y-71268256D01*
X119780012Y-71336176D01*
X119630712Y-71365873D01*
X119605942Y-71370800D01*
X119428458Y-71370800D01*
X119403688Y-71365873D01*
X119254388Y-71336176D01*
X119090416Y-71268256D01*
X118942846Y-71169653D01*
X118817347Y-71044154D01*
X118718744Y-70896584D01*
X118650824Y-70732612D01*
X118616200Y-70558541D01*
X118616200Y-70381059D01*
X118650824Y-70206988D01*
X118718744Y-70043016D01*
X118817347Y-69895446D01*
X118942846Y-69769947D01*
X119090416Y-69671344D01*
X119254388Y-69603424D01*
X119403688Y-69573727D01*
X119428458Y-69568800D01*
X119605942Y-69568800D01*
X119630712Y-69573727D01*
G37*
G36*
X134870712Y-69573727D02*
G01*
X135020012Y-69603424D01*
X135183984Y-69671344D01*
X135331554Y-69769947D01*
X135457053Y-69895446D01*
X135555656Y-70043016D01*
X135623576Y-70206988D01*
X135658200Y-70381059D01*
X135658200Y-70558541D01*
X135623576Y-70732612D01*
X135555656Y-70896584D01*
X135457053Y-71044154D01*
X135331554Y-71169653D01*
X135183984Y-71268256D01*
X135020012Y-71336176D01*
X134870712Y-71365873D01*
X134845942Y-71370800D01*
X134668458Y-71370800D01*
X134643688Y-71365873D01*
X134494388Y-71336176D01*
X134330416Y-71268256D01*
X134182846Y-71169653D01*
X134057347Y-71044154D01*
X133958744Y-70896584D01*
X133890824Y-70732612D01*
X133856200Y-70558541D01*
X133856200Y-70381059D01*
X133890824Y-70206988D01*
X133958744Y-70043016D01*
X134057347Y-69895446D01*
X134182846Y-69769947D01*
X134330416Y-69671344D01*
X134494388Y-69603424D01*
X134643688Y-69573727D01*
X134668458Y-69568800D01*
X134845942Y-69568800D01*
X134870712Y-69573727D01*
G37*
G36*
X137410712Y-69573727D02*
G01*
X137560012Y-69603424D01*
X137723984Y-69671344D01*
X137871554Y-69769947D01*
X137997053Y-69895446D01*
X138095656Y-70043016D01*
X138163576Y-70206988D01*
X138198200Y-70381059D01*
X138198200Y-70558541D01*
X138163576Y-70732612D01*
X138095656Y-70896584D01*
X137997053Y-71044154D01*
X137871554Y-71169653D01*
X137723984Y-71268256D01*
X137560012Y-71336176D01*
X137410712Y-71365873D01*
X137385942Y-71370800D01*
X137208458Y-71370800D01*
X137183688Y-71365873D01*
X137034388Y-71336176D01*
X136870416Y-71268256D01*
X136722846Y-71169653D01*
X136597347Y-71044154D01*
X136498744Y-70896584D01*
X136430824Y-70732612D01*
X136396200Y-70558541D01*
X136396200Y-70381059D01*
X136430824Y-70206988D01*
X136498744Y-70043016D01*
X136597347Y-69895446D01*
X136722846Y-69769947D01*
X136870416Y-69671344D01*
X137034388Y-69603424D01*
X137183688Y-69573727D01*
X137208458Y-69568800D01*
X137385942Y-69568800D01*
X137410712Y-69573727D01*
G37*
G36*
X139950712Y-69573727D02*
G01*
X140100012Y-69603424D01*
X140263984Y-69671344D01*
X140411554Y-69769947D01*
X140537053Y-69895446D01*
X140635656Y-70043016D01*
X140703576Y-70206988D01*
X140738200Y-70381059D01*
X140738200Y-70558541D01*
X140703576Y-70732612D01*
X140635656Y-70896584D01*
X140537053Y-71044154D01*
X140411554Y-71169653D01*
X140263984Y-71268256D01*
X140100012Y-71336176D01*
X139950712Y-71365873D01*
X139925942Y-71370800D01*
X139748458Y-71370800D01*
X139723688Y-71365873D01*
X139574388Y-71336176D01*
X139410416Y-71268256D01*
X139262846Y-71169653D01*
X139137347Y-71044154D01*
X139038744Y-70896584D01*
X138970824Y-70732612D01*
X138936200Y-70558541D01*
X138936200Y-70381059D01*
X138970824Y-70206988D01*
X139038744Y-70043016D01*
X139137347Y-69895446D01*
X139262846Y-69769947D01*
X139410416Y-69671344D01*
X139574388Y-69603424D01*
X139723688Y-69573727D01*
X139748458Y-69568800D01*
X139925942Y-69568800D01*
X139950712Y-69573727D01*
G37*
G36*
X142490712Y-69573727D02*
G01*
X142640012Y-69603424D01*
X142803984Y-69671344D01*
X142951554Y-69769947D01*
X143077053Y-69895446D01*
X143175656Y-70043016D01*
X143243576Y-70206988D01*
X143278200Y-70381059D01*
X143278200Y-70558541D01*
X143243576Y-70732612D01*
X143175656Y-70896584D01*
X143077053Y-71044154D01*
X142951554Y-71169653D01*
X142803984Y-71268256D01*
X142640012Y-71336176D01*
X142490712Y-71365873D01*
X142465942Y-71370800D01*
X142288458Y-71370800D01*
X142263688Y-71365873D01*
X142114388Y-71336176D01*
X141950416Y-71268256D01*
X141802846Y-71169653D01*
X141677347Y-71044154D01*
X141578744Y-70896584D01*
X141510824Y-70732612D01*
X141476200Y-70558541D01*
X141476200Y-70381059D01*
X141510824Y-70206988D01*
X141578744Y-70043016D01*
X141677347Y-69895446D01*
X141802846Y-69769947D01*
X141950416Y-69671344D01*
X142114388Y-69603424D01*
X142263688Y-69573727D01*
X142288458Y-69568800D01*
X142465942Y-69568800D01*
X142490712Y-69573727D01*
G37*
G36*
X145030712Y-69573727D02*
G01*
X145180012Y-69603424D01*
X145343984Y-69671344D01*
X145491554Y-69769947D01*
X145617053Y-69895446D01*
X145715656Y-70043016D01*
X145783576Y-70206988D01*
X145818200Y-70381059D01*
X145818200Y-70558541D01*
X145783576Y-70732612D01*
X145715656Y-70896584D01*
X145617053Y-71044154D01*
X145491554Y-71169653D01*
X145343984Y-71268256D01*
X145180012Y-71336176D01*
X145030712Y-71365873D01*
X145005942Y-71370800D01*
X144828458Y-71370800D01*
X144803688Y-71365873D01*
X144654388Y-71336176D01*
X144490416Y-71268256D01*
X144342846Y-71169653D01*
X144217347Y-71044154D01*
X144118744Y-70896584D01*
X144050824Y-70732612D01*
X144016200Y-70558541D01*
X144016200Y-70381059D01*
X144050824Y-70206988D01*
X144118744Y-70043016D01*
X144217347Y-69895446D01*
X144342846Y-69769947D01*
X144490416Y-69671344D01*
X144654388Y-69603424D01*
X144803688Y-69573727D01*
X144828458Y-69568800D01*
X145005942Y-69568800D01*
X145030712Y-69573727D01*
G37*
G36*
X134870712Y-67033727D02*
G01*
X135020012Y-67063424D01*
X135183984Y-67131344D01*
X135331554Y-67229947D01*
X135457053Y-67355446D01*
X135555656Y-67503016D01*
X135623576Y-67666988D01*
X135658200Y-67841059D01*
X135658200Y-68018541D01*
X135623576Y-68192612D01*
X135555656Y-68356584D01*
X135457053Y-68504154D01*
X135331554Y-68629653D01*
X135183984Y-68728256D01*
X135020012Y-68796176D01*
X134870712Y-68825873D01*
X134845942Y-68830800D01*
X134668458Y-68830800D01*
X134643688Y-68825873D01*
X134494388Y-68796176D01*
X134330416Y-68728256D01*
X134182846Y-68629653D01*
X134057347Y-68504154D01*
X133958744Y-68356584D01*
X133890824Y-68192612D01*
X133856200Y-68018541D01*
X133856200Y-67841059D01*
X133890824Y-67666988D01*
X133958744Y-67503016D01*
X134057347Y-67355446D01*
X134182846Y-67229947D01*
X134330416Y-67131344D01*
X134494388Y-67063424D01*
X134643688Y-67033727D01*
X134668458Y-67028800D01*
X134845942Y-67028800D01*
X134870712Y-67033727D01*
G37*
G36*
X142490712Y-67033727D02*
G01*
X142640012Y-67063424D01*
X142803984Y-67131344D01*
X142951554Y-67229947D01*
X143077053Y-67355446D01*
X143175656Y-67503016D01*
X143243576Y-67666988D01*
X143278200Y-67841059D01*
X143278200Y-68018541D01*
X143243576Y-68192612D01*
X143175656Y-68356584D01*
X143077053Y-68504154D01*
X142951554Y-68629653D01*
X142803984Y-68728256D01*
X142640012Y-68796176D01*
X142490712Y-68825873D01*
X142465942Y-68830800D01*
X142288458Y-68830800D01*
X142263688Y-68825873D01*
X142114388Y-68796176D01*
X141950416Y-68728256D01*
X141802846Y-68629653D01*
X141677347Y-68504154D01*
X141578744Y-68356584D01*
X141510824Y-68192612D01*
X141476200Y-68018541D01*
X141476200Y-67841059D01*
X141510824Y-67666988D01*
X141578744Y-67503016D01*
X141677347Y-67355446D01*
X141802846Y-67229947D01*
X141950416Y-67131344D01*
X142114388Y-67063424D01*
X142263688Y-67033727D01*
X142288458Y-67028800D01*
X142465942Y-67028800D01*
X142490712Y-67033727D01*
G37*
G36*
X139950712Y-67033727D02*
G01*
X140100012Y-67063424D01*
X140263984Y-67131344D01*
X140411554Y-67229947D01*
X140537053Y-67355446D01*
X140635656Y-67503016D01*
X140703576Y-67666988D01*
X140738200Y-67841059D01*
X140738200Y-68018541D01*
X140703576Y-68192612D01*
X140635656Y-68356584D01*
X140537053Y-68504154D01*
X140411554Y-68629653D01*
X140263984Y-68728256D01*
X140100012Y-68796176D01*
X139950712Y-68825873D01*
X139925942Y-68830800D01*
X139748458Y-68830800D01*
X139723688Y-68825873D01*
X139574388Y-68796176D01*
X139410416Y-68728256D01*
X139262846Y-68629653D01*
X139137347Y-68504154D01*
X139038744Y-68356584D01*
X138970824Y-68192612D01*
X138936200Y-68018541D01*
X138936200Y-67841059D01*
X138970824Y-67666988D01*
X139038744Y-67503016D01*
X139137347Y-67355446D01*
X139262846Y-67229947D01*
X139410416Y-67131344D01*
X139574388Y-67063424D01*
X139723688Y-67033727D01*
X139748458Y-67028800D01*
X139925942Y-67028800D01*
X139950712Y-67033727D01*
G37*
G36*
X145030712Y-67033727D02*
G01*
X145180012Y-67063424D01*
X145343984Y-67131344D01*
X145491554Y-67229947D01*
X145617053Y-67355446D01*
X145715656Y-67503016D01*
X145783576Y-67666988D01*
X145818200Y-67841059D01*
X145818200Y-68018541D01*
X145783576Y-68192612D01*
X145715656Y-68356584D01*
X145617053Y-68504154D01*
X145491554Y-68629653D01*
X145343984Y-68728256D01*
X145180012Y-68796176D01*
X145030712Y-68825873D01*
X145005942Y-68830800D01*
X144828458Y-68830800D01*
X144803688Y-68825873D01*
X144654388Y-68796176D01*
X144490416Y-68728256D01*
X144342846Y-68629653D01*
X144217347Y-68504154D01*
X144118744Y-68356584D01*
X144050824Y-68192612D01*
X144016200Y-68018541D01*
X144016200Y-67841059D01*
X144050824Y-67666988D01*
X144118744Y-67503016D01*
X144217347Y-67355446D01*
X144342846Y-67229947D01*
X144490416Y-67131344D01*
X144654388Y-67063424D01*
X144803688Y-67033727D01*
X144828458Y-67028800D01*
X145005942Y-67028800D01*
X145030712Y-67033727D01*
G37*
G36*
X109470712Y-67033727D02*
G01*
X109620012Y-67063424D01*
X109783984Y-67131344D01*
X109931554Y-67229947D01*
X110057053Y-67355446D01*
X110155656Y-67503016D01*
X110223576Y-67666988D01*
X110258200Y-67841059D01*
X110258200Y-68018541D01*
X110223576Y-68192612D01*
X110155656Y-68356584D01*
X110057053Y-68504154D01*
X109931554Y-68629653D01*
X109783984Y-68728256D01*
X109620012Y-68796176D01*
X109470712Y-68825873D01*
X109445942Y-68830800D01*
X109268458Y-68830800D01*
X109243688Y-68825873D01*
X109094388Y-68796176D01*
X108930416Y-68728256D01*
X108782846Y-68629653D01*
X108657347Y-68504154D01*
X108558744Y-68356584D01*
X108490824Y-68192612D01*
X108456200Y-68018541D01*
X108456200Y-67841059D01*
X108490824Y-67666988D01*
X108558744Y-67503016D01*
X108657347Y-67355446D01*
X108782846Y-67229947D01*
X108930416Y-67131344D01*
X109094388Y-67063424D01*
X109243688Y-67033727D01*
X109268458Y-67028800D01*
X109445942Y-67028800D01*
X109470712Y-67033727D01*
G37*
G36*
X112010712Y-67033727D02*
G01*
X112160012Y-67063424D01*
X112323984Y-67131344D01*
X112471554Y-67229947D01*
X112597053Y-67355446D01*
X112695656Y-67503016D01*
X112763576Y-67666988D01*
X112798200Y-67841059D01*
X112798200Y-68018541D01*
X112763576Y-68192612D01*
X112695656Y-68356584D01*
X112597053Y-68504154D01*
X112471554Y-68629653D01*
X112323984Y-68728256D01*
X112160012Y-68796176D01*
X112010712Y-68825873D01*
X111985942Y-68830800D01*
X111808458Y-68830800D01*
X111783688Y-68825873D01*
X111634388Y-68796176D01*
X111470416Y-68728256D01*
X111322846Y-68629653D01*
X111197347Y-68504154D01*
X111098744Y-68356584D01*
X111030824Y-68192612D01*
X110996200Y-68018541D01*
X110996200Y-67841059D01*
X111030824Y-67666988D01*
X111098744Y-67503016D01*
X111197347Y-67355446D01*
X111322846Y-67229947D01*
X111470416Y-67131344D01*
X111634388Y-67063424D01*
X111783688Y-67033727D01*
X111808458Y-67028800D01*
X111985942Y-67028800D01*
X112010712Y-67033727D01*
G37*
G36*
X114550712Y-67033727D02*
G01*
X114700012Y-67063424D01*
X114863984Y-67131344D01*
X115011554Y-67229947D01*
X115137053Y-67355446D01*
X115235656Y-67503016D01*
X115303576Y-67666988D01*
X115338200Y-67841059D01*
X115338200Y-68018541D01*
X115303576Y-68192612D01*
X115235656Y-68356584D01*
X115137053Y-68504154D01*
X115011554Y-68629653D01*
X114863984Y-68728256D01*
X114700012Y-68796176D01*
X114550712Y-68825873D01*
X114525942Y-68830800D01*
X114348458Y-68830800D01*
X114323688Y-68825873D01*
X114174388Y-68796176D01*
X114010416Y-68728256D01*
X113862846Y-68629653D01*
X113737347Y-68504154D01*
X113638744Y-68356584D01*
X113570824Y-68192612D01*
X113536200Y-68018541D01*
X113536200Y-67841059D01*
X113570824Y-67666988D01*
X113638744Y-67503016D01*
X113737347Y-67355446D01*
X113862846Y-67229947D01*
X114010416Y-67131344D01*
X114174388Y-67063424D01*
X114323688Y-67033727D01*
X114348458Y-67028800D01*
X114525942Y-67028800D01*
X114550712Y-67033727D01*
G37*
G36*
X117090712Y-67033727D02*
G01*
X117240012Y-67063424D01*
X117403984Y-67131344D01*
X117551554Y-67229947D01*
X117677053Y-67355446D01*
X117775656Y-67503016D01*
X117843576Y-67666988D01*
X117878200Y-67841059D01*
X117878200Y-68018541D01*
X117843576Y-68192612D01*
X117775656Y-68356584D01*
X117677053Y-68504154D01*
X117551554Y-68629653D01*
X117403984Y-68728256D01*
X117240012Y-68796176D01*
X117090712Y-68825873D01*
X117065942Y-68830800D01*
X116888458Y-68830800D01*
X116863688Y-68825873D01*
X116714388Y-68796176D01*
X116550416Y-68728256D01*
X116402846Y-68629653D01*
X116277347Y-68504154D01*
X116178744Y-68356584D01*
X116110824Y-68192612D01*
X116076200Y-68018541D01*
X116076200Y-67841059D01*
X116110824Y-67666988D01*
X116178744Y-67503016D01*
X116277347Y-67355446D01*
X116402846Y-67229947D01*
X116550416Y-67131344D01*
X116714388Y-67063424D01*
X116863688Y-67033727D01*
X116888458Y-67028800D01*
X117065942Y-67028800D01*
X117090712Y-67033727D01*
G37*
G36*
X122170712Y-67033727D02*
G01*
X122320012Y-67063424D01*
X122483984Y-67131344D01*
X122631554Y-67229947D01*
X122757053Y-67355446D01*
X122855656Y-67503016D01*
X122923576Y-67666988D01*
X122958200Y-67841059D01*
X122958200Y-68018541D01*
X122923576Y-68192612D01*
X122855656Y-68356584D01*
X122757053Y-68504154D01*
X122631554Y-68629653D01*
X122483984Y-68728256D01*
X122320012Y-68796176D01*
X122170712Y-68825873D01*
X122145942Y-68830800D01*
X121968458Y-68830800D01*
X121943688Y-68825873D01*
X121794388Y-68796176D01*
X121630416Y-68728256D01*
X121482846Y-68629653D01*
X121357347Y-68504154D01*
X121258744Y-68356584D01*
X121190824Y-68192612D01*
X121156200Y-68018541D01*
X121156200Y-67841059D01*
X121190824Y-67666988D01*
X121258744Y-67503016D01*
X121357347Y-67355446D01*
X121482846Y-67229947D01*
X121630416Y-67131344D01*
X121794388Y-67063424D01*
X121943688Y-67033727D01*
X121968458Y-67028800D01*
X122145942Y-67028800D01*
X122170712Y-67033727D01*
G37*
G36*
X137410712Y-67033727D02*
G01*
X137560012Y-67063424D01*
X137723984Y-67131344D01*
X137871554Y-67229947D01*
X137997053Y-67355446D01*
X138095656Y-67503016D01*
X138163576Y-67666988D01*
X138198200Y-67841059D01*
X138198200Y-68018541D01*
X138163576Y-68192612D01*
X138095656Y-68356584D01*
X137997053Y-68504154D01*
X137871554Y-68629653D01*
X137723984Y-68728256D01*
X137560012Y-68796176D01*
X137410712Y-68825873D01*
X137385942Y-68830800D01*
X137208458Y-68830800D01*
X137183688Y-68825873D01*
X137034388Y-68796176D01*
X136870416Y-68728256D01*
X136722846Y-68629653D01*
X136597347Y-68504154D01*
X136498744Y-68356584D01*
X136430824Y-68192612D01*
X136396200Y-68018541D01*
X136396200Y-67841059D01*
X136430824Y-67666988D01*
X136498744Y-67503016D01*
X136597347Y-67355446D01*
X136722846Y-67229947D01*
X136870416Y-67131344D01*
X137034388Y-67063424D01*
X137183688Y-67033727D01*
X137208458Y-67028800D01*
X137385942Y-67028800D01*
X137410712Y-67033727D01*
G37*
G36*
X132330712Y-67033727D02*
G01*
X132480012Y-67063424D01*
X132643984Y-67131344D01*
X132791554Y-67229947D01*
X132917053Y-67355446D01*
X133015656Y-67503016D01*
X133083576Y-67666988D01*
X133118200Y-67841059D01*
X133118200Y-68018541D01*
X133083576Y-68192612D01*
X133015656Y-68356584D01*
X132917053Y-68504154D01*
X132791554Y-68629653D01*
X132643984Y-68728256D01*
X132480012Y-68796176D01*
X132330712Y-68825873D01*
X132305942Y-68830800D01*
X132128458Y-68830800D01*
X132103688Y-68825873D01*
X131954388Y-68796176D01*
X131790416Y-68728256D01*
X131642846Y-68629653D01*
X131517347Y-68504154D01*
X131418744Y-68356584D01*
X131350824Y-68192612D01*
X131316200Y-68018541D01*
X131316200Y-67841059D01*
X131350824Y-67666988D01*
X131418744Y-67503016D01*
X131517347Y-67355446D01*
X131642846Y-67229947D01*
X131790416Y-67131344D01*
X131954388Y-67063424D01*
X132103688Y-67033727D01*
X132128458Y-67028800D01*
X132305942Y-67028800D01*
X132330712Y-67033727D01*
G37*
G36*
X129790712Y-67033727D02*
G01*
X129940012Y-67063424D01*
X130103984Y-67131344D01*
X130251554Y-67229947D01*
X130377053Y-67355446D01*
X130475656Y-67503016D01*
X130543576Y-67666988D01*
X130578200Y-67841059D01*
X130578200Y-68018541D01*
X130543576Y-68192612D01*
X130475656Y-68356584D01*
X130377053Y-68504154D01*
X130251554Y-68629653D01*
X130103984Y-68728256D01*
X129940012Y-68796176D01*
X129790712Y-68825873D01*
X129765942Y-68830800D01*
X129588458Y-68830800D01*
X129563688Y-68825873D01*
X129414388Y-68796176D01*
X129250416Y-68728256D01*
X129102846Y-68629653D01*
X128977347Y-68504154D01*
X128878744Y-68356584D01*
X128810824Y-68192612D01*
X128776200Y-68018541D01*
X128776200Y-67841059D01*
X128810824Y-67666988D01*
X128878744Y-67503016D01*
X128977347Y-67355446D01*
X129102846Y-67229947D01*
X129250416Y-67131344D01*
X129414388Y-67063424D01*
X129563688Y-67033727D01*
X129588458Y-67028800D01*
X129765942Y-67028800D01*
X129790712Y-67033727D01*
G37*
G36*
X127250712Y-67033727D02*
G01*
X127400012Y-67063424D01*
X127563984Y-67131344D01*
X127711554Y-67229947D01*
X127837053Y-67355446D01*
X127935656Y-67503016D01*
X128003576Y-67666988D01*
X128038200Y-67841059D01*
X128038200Y-68018541D01*
X128003576Y-68192612D01*
X127935656Y-68356584D01*
X127837053Y-68504154D01*
X127711554Y-68629653D01*
X127563984Y-68728256D01*
X127400012Y-68796176D01*
X127250712Y-68825873D01*
X127225942Y-68830800D01*
X127048458Y-68830800D01*
X127023688Y-68825873D01*
X126874388Y-68796176D01*
X126710416Y-68728256D01*
X126562846Y-68629653D01*
X126437347Y-68504154D01*
X126338744Y-68356584D01*
X126270824Y-68192612D01*
X126236200Y-68018541D01*
X126236200Y-67841059D01*
X126270824Y-67666988D01*
X126338744Y-67503016D01*
X126437347Y-67355446D01*
X126562846Y-67229947D01*
X126710416Y-67131344D01*
X126874388Y-67063424D01*
X127023688Y-67033727D01*
X127048458Y-67028800D01*
X127225942Y-67028800D01*
X127250712Y-67033727D01*
G37*
G36*
X124710712Y-67033727D02*
G01*
X124860012Y-67063424D01*
X125023984Y-67131344D01*
X125171554Y-67229947D01*
X125297053Y-67355446D01*
X125395656Y-67503016D01*
X125463576Y-67666988D01*
X125498200Y-67841059D01*
X125498200Y-68018541D01*
X125463576Y-68192612D01*
X125395656Y-68356584D01*
X125297053Y-68504154D01*
X125171554Y-68629653D01*
X125023984Y-68728256D01*
X124860012Y-68796176D01*
X124710712Y-68825873D01*
X124685942Y-68830800D01*
X124508458Y-68830800D01*
X124483688Y-68825873D01*
X124334388Y-68796176D01*
X124170416Y-68728256D01*
X124022846Y-68629653D01*
X123897347Y-68504154D01*
X123798744Y-68356584D01*
X123730824Y-68192612D01*
X123696200Y-68018541D01*
X123696200Y-67841059D01*
X123730824Y-67666988D01*
X123798744Y-67503016D01*
X123897347Y-67355446D01*
X124022846Y-67229947D01*
X124170416Y-67131344D01*
X124334388Y-67063424D01*
X124483688Y-67033727D01*
X124508458Y-67028800D01*
X124685942Y-67028800D01*
X124710712Y-67033727D01*
G37*
G36*
X119630712Y-67033727D02*
G01*
X119780012Y-67063424D01*
X119943984Y-67131344D01*
X120091554Y-67229947D01*
X120217053Y-67355446D01*
X120315656Y-67503016D01*
X120383576Y-67666988D01*
X120418200Y-67841059D01*
X120418200Y-68018541D01*
X120383576Y-68192612D01*
X120315656Y-68356584D01*
X120217053Y-68504154D01*
X120091554Y-68629653D01*
X119943984Y-68728256D01*
X119780012Y-68796176D01*
X119630712Y-68825873D01*
X119605942Y-68830800D01*
X119428458Y-68830800D01*
X119403688Y-68825873D01*
X119254388Y-68796176D01*
X119090416Y-68728256D01*
X118942846Y-68629653D01*
X118817347Y-68504154D01*
X118718744Y-68356584D01*
X118650824Y-68192612D01*
X118616200Y-68018541D01*
X118616200Y-67841059D01*
X118650824Y-67666988D01*
X118718744Y-67503016D01*
X118817347Y-67355446D01*
X118942846Y-67229947D01*
X119090416Y-67131344D01*
X119254388Y-67063424D01*
X119403688Y-67033727D01*
X119428458Y-67028800D01*
X119605942Y-67028800D01*
X119630712Y-67033727D01*
G37*
G36*
X102039785Y-65138602D02*
G01*
X102189610Y-65168404D01*
X102471874Y-65285321D01*
X102725905Y-65455059D01*
X102941941Y-65671095D01*
X103111679Y-65925126D01*
X103228596Y-66207390D01*
X103288200Y-66507040D01*
X103288200Y-66812560D01*
X103228596Y-67112210D01*
X103111679Y-67394474D01*
X102941941Y-67648505D01*
X102725905Y-67864541D01*
X102471874Y-68034279D01*
X102189610Y-68151196D01*
X102039785Y-68180998D01*
X101889961Y-68210800D01*
X101584439Y-68210800D01*
X101434615Y-68180998D01*
X101284790Y-68151196D01*
X101002526Y-68034279D01*
X100748495Y-67864541D01*
X100532459Y-67648505D01*
X100362721Y-67394474D01*
X100245804Y-67112210D01*
X100186200Y-66812560D01*
X100186200Y-66507040D01*
X100245804Y-66207390D01*
X100362721Y-65925126D01*
X100532459Y-65671095D01*
X100748495Y-65455059D01*
X101002526Y-65285321D01*
X101284790Y-65168404D01*
X101434615Y-65138602D01*
X101584439Y-65108800D01*
X101889961Y-65108800D01*
X102039785Y-65138602D01*
G37*
G36*
X152839785Y-65138602D02*
G01*
X152989610Y-65168404D01*
X153271874Y-65285321D01*
X153525905Y-65455059D01*
X153741941Y-65671095D01*
X153911679Y-65925126D01*
X154028596Y-66207390D01*
X154088200Y-66507040D01*
X154088200Y-66812560D01*
X154028596Y-67112210D01*
X153911679Y-67394474D01*
X153741941Y-67648505D01*
X153525905Y-67864541D01*
X153271874Y-68034279D01*
X152989610Y-68151196D01*
X152839785Y-68180998D01*
X152689961Y-68210800D01*
X152384439Y-68210800D01*
X152234615Y-68180998D01*
X152084790Y-68151196D01*
X151802526Y-68034279D01*
X151548495Y-67864541D01*
X151332459Y-67648505D01*
X151162721Y-67394474D01*
X151045804Y-67112210D01*
X150986200Y-66812560D01*
X150986200Y-66507040D01*
X151045804Y-66207390D01*
X151162721Y-65925126D01*
X151332459Y-65671095D01*
X151548495Y-65455059D01*
X151802526Y-65285321D01*
X152084790Y-65168404D01*
X152234615Y-65138602D01*
X152384439Y-65108800D01*
X152689961Y-65108800D01*
X152839785Y-65138602D01*
G37*
G36*
X117356593Y-60329104D02*
G01*
X117593301Y-60427152D01*
X117593303Y-60427153D01*
X117806335Y-60569496D01*
X117987504Y-60750665D01*
X118129847Y-60963697D01*
X118129848Y-60963699D01*
X118227896Y-61200407D01*
X118277880Y-61451693D01*
X118277880Y-61707907D01*
X118227896Y-61959193D01*
X118129848Y-62195901D01*
X118129847Y-62195903D01*
X117987504Y-62408935D01*
X117806335Y-62590104D01*
X117593303Y-62732447D01*
X117593302Y-62732448D01*
X117593301Y-62732448D01*
X117356593Y-62830496D01*
X117105307Y-62880480D01*
X116849093Y-62880480D01*
X116597807Y-62830496D01*
X116361099Y-62732448D01*
X116361098Y-62732448D01*
X116361097Y-62732447D01*
X116148065Y-62590104D01*
X115966896Y-62408935D01*
X115824553Y-62195903D01*
X115824552Y-62195901D01*
X115726504Y-61959193D01*
X115676520Y-61707907D01*
X115676520Y-61451693D01*
X115726504Y-61200407D01*
X115824552Y-60963699D01*
X115824553Y-60963697D01*
X115966896Y-60750665D01*
X116148065Y-60569496D01*
X116361097Y-60427153D01*
X116361099Y-60427152D01*
X116597807Y-60329104D01*
X116849093Y-60279120D01*
X117105307Y-60279120D01*
X117356593Y-60329104D01*
G37*
G36*
X137676593Y-60329104D02*
G01*
X137913301Y-60427152D01*
X137913303Y-60427153D01*
X138126335Y-60569496D01*
X138307504Y-60750665D01*
X138449847Y-60963697D01*
X138449848Y-60963699D01*
X138547896Y-61200407D01*
X138597880Y-61451693D01*
X138597880Y-61707907D01*
X138547896Y-61959193D01*
X138449848Y-62195901D01*
X138449847Y-62195903D01*
X138307504Y-62408935D01*
X138126335Y-62590104D01*
X137913303Y-62732447D01*
X137913302Y-62732448D01*
X137913301Y-62732448D01*
X137676593Y-62830496D01*
X137425307Y-62880480D01*
X137169093Y-62880480D01*
X136917807Y-62830496D01*
X136681099Y-62732448D01*
X136681098Y-62732448D01*
X136681097Y-62732447D01*
X136468065Y-62590104D01*
X136286896Y-62408935D01*
X136144553Y-62195903D01*
X136144552Y-62195901D01*
X136046504Y-61959193D01*
X135996520Y-61707907D01*
X135996520Y-61451693D01*
X136046504Y-61200407D01*
X136144552Y-60963699D01*
X136144553Y-60963697D01*
X136286896Y-60750665D01*
X136468065Y-60569496D01*
X136681097Y-60427153D01*
X136681099Y-60427152D01*
X136917807Y-60329104D01*
X137169093Y-60279120D01*
X137425307Y-60279120D01*
X137676593Y-60329104D01*
G37*
G36*
X122359785Y-54978602D02*
G01*
X122509610Y-55008404D01*
X122791874Y-55125321D01*
X123045905Y-55295059D01*
X123261941Y-55511095D01*
X123431679Y-55765126D01*
X123548596Y-56047390D01*
X123608200Y-56347040D01*
X123608200Y-56652560D01*
X123548596Y-56952210D01*
X123431679Y-57234474D01*
X123261941Y-57488505D01*
X123045905Y-57704541D01*
X122791874Y-57874279D01*
X122509610Y-57991196D01*
X122359785Y-58020998D01*
X122209961Y-58050800D01*
X121904439Y-58050800D01*
X121754615Y-58020998D01*
X121604790Y-57991196D01*
X121322526Y-57874279D01*
X121068495Y-57704541D01*
X120852459Y-57488505D01*
X120682721Y-57234474D01*
X120565804Y-56952210D01*
X120506200Y-56652560D01*
X120506200Y-56347040D01*
X120565804Y-56047390D01*
X120682721Y-55765126D01*
X120852459Y-55511095D01*
X121068495Y-55295059D01*
X121322526Y-55125321D01*
X121604790Y-55008404D01*
X121754615Y-54978602D01*
X121904439Y-54948800D01*
X122209961Y-54948800D01*
X122359785Y-54978602D01*
G37*
G36*
X112199785Y-54978602D02*
G01*
X112349610Y-55008404D01*
X112631874Y-55125321D01*
X112885905Y-55295059D01*
X113101941Y-55511095D01*
X113271679Y-55765126D01*
X113388596Y-56047390D01*
X113448200Y-56347040D01*
X113448200Y-56652560D01*
X113388596Y-56952210D01*
X113271679Y-57234474D01*
X113101941Y-57488505D01*
X112885905Y-57704541D01*
X112631874Y-57874279D01*
X112349610Y-57991196D01*
X112199785Y-58020998D01*
X112049961Y-58050800D01*
X111744439Y-58050800D01*
X111594615Y-58020998D01*
X111444790Y-57991196D01*
X111162526Y-57874279D01*
X110908495Y-57704541D01*
X110692459Y-57488505D01*
X110522721Y-57234474D01*
X110405804Y-56952210D01*
X110346200Y-56652560D01*
X110346200Y-56347040D01*
X110405804Y-56047390D01*
X110522721Y-55765126D01*
X110692459Y-55511095D01*
X110908495Y-55295059D01*
X111162526Y-55125321D01*
X111444790Y-55008404D01*
X111594615Y-54978602D01*
X111744439Y-54948800D01*
X112049961Y-54948800D01*
X112199785Y-54978602D01*
G37*
G36*
X132519785Y-54978602D02*
G01*
X132669610Y-55008404D01*
X132951874Y-55125321D01*
X133205905Y-55295059D01*
X133421941Y-55511095D01*
X133591679Y-55765126D01*
X133708596Y-56047390D01*
X133768200Y-56347040D01*
X133768200Y-56652560D01*
X133708596Y-56952210D01*
X133591679Y-57234474D01*
X133421941Y-57488505D01*
X133205905Y-57704541D01*
X132951874Y-57874279D01*
X132669610Y-57991196D01*
X132519785Y-58020998D01*
X132369961Y-58050800D01*
X132064439Y-58050800D01*
X131914615Y-58020998D01*
X131764790Y-57991196D01*
X131482526Y-57874279D01*
X131228495Y-57704541D01*
X131012459Y-57488505D01*
X130842721Y-57234474D01*
X130725804Y-56952210D01*
X130666200Y-56652560D01*
X130666200Y-56347040D01*
X130725804Y-56047390D01*
X130842721Y-55765126D01*
X131012459Y-55511095D01*
X131228495Y-55295059D01*
X131482526Y-55125321D01*
X131764790Y-55008404D01*
X131914615Y-54978602D01*
X132064439Y-54948800D01*
X132369961Y-54948800D01*
X132519785Y-54978602D01*
G37*
G36*
X142679785Y-54978602D02*
G01*
X142829610Y-55008404D01*
X143111874Y-55125321D01*
X143365905Y-55295059D01*
X143581941Y-55511095D01*
X143751679Y-55765126D01*
X143868596Y-56047390D01*
X143928200Y-56347040D01*
X143928200Y-56652560D01*
X143868596Y-56952210D01*
X143751679Y-57234474D01*
X143581941Y-57488505D01*
X143365905Y-57704541D01*
X143111874Y-57874279D01*
X142829610Y-57991196D01*
X142679785Y-58020998D01*
X142529961Y-58050800D01*
X142224439Y-58050800D01*
X142074615Y-58020998D01*
X141924790Y-57991196D01*
X141642526Y-57874279D01*
X141388495Y-57704541D01*
X141172459Y-57488505D01*
X141002721Y-57234474D01*
X140885804Y-56952210D01*
X140826200Y-56652560D01*
X140826200Y-56347040D01*
X140885804Y-56047390D01*
X141002721Y-55765126D01*
X141172459Y-55511095D01*
X141388495Y-55295059D01*
X141642526Y-55125321D01*
X141924790Y-55008404D01*
X142074615Y-54978602D01*
X142224439Y-54948800D01*
X142529961Y-54948800D01*
X142679785Y-54978602D01*
G37*
G36*
X152839785Y-54978602D02*
G01*
X152989610Y-55008404D01*
X153271874Y-55125321D01*
X153525905Y-55295059D01*
X153741941Y-55511095D01*
X153911679Y-55765126D01*
X154028596Y-56047390D01*
X154088200Y-56347040D01*
X154088200Y-56652560D01*
X154028596Y-56952210D01*
X153911679Y-57234474D01*
X153741941Y-57488505D01*
X153525905Y-57704541D01*
X153271874Y-57874279D01*
X152989610Y-57991196D01*
X152839785Y-58020998D01*
X152689961Y-58050800D01*
X152384439Y-58050800D01*
X152234615Y-58020998D01*
X152084790Y-57991196D01*
X151802526Y-57874279D01*
X151548495Y-57704541D01*
X151332459Y-57488505D01*
X151162721Y-57234474D01*
X151045804Y-56952210D01*
X150986200Y-56652560D01*
X150986200Y-56347040D01*
X151045804Y-56047390D01*
X151162721Y-55765126D01*
X151332459Y-55511095D01*
X151548495Y-55295059D01*
X151802526Y-55125321D01*
X152084790Y-55008404D01*
X152234615Y-54978602D01*
X152384439Y-54948800D01*
X152689961Y-54948800D01*
X152839785Y-54978602D01*
G37*
G36*
X102039785Y-54978602D02*
G01*
X102189610Y-55008404D01*
X102471874Y-55125321D01*
X102725905Y-55295059D01*
X102941941Y-55511095D01*
X103111679Y-55765126D01*
X103228596Y-56047390D01*
X103288200Y-56347040D01*
X103288200Y-56652560D01*
X103228596Y-56952210D01*
X103111679Y-57234474D01*
X102941941Y-57488505D01*
X102725905Y-57704541D01*
X102471874Y-57874279D01*
X102189610Y-57991196D01*
X102039785Y-58020998D01*
X101889961Y-58050800D01*
X101584439Y-58050800D01*
X101434615Y-58020998D01*
X101284790Y-57991196D01*
X101002526Y-57874279D01*
X100748495Y-57704541D01*
X100532459Y-57488505D01*
X100362721Y-57234474D01*
X100245804Y-56952210D01*
X100186200Y-56652560D01*
X100186200Y-56347040D01*
X100245804Y-56047390D01*
X100362721Y-55765126D01*
X100532459Y-55511095D01*
X100748495Y-55295059D01*
X101002526Y-55125321D01*
X101284790Y-55008404D01*
X101434615Y-54978602D01*
X101584439Y-54948800D01*
X101889961Y-54948800D01*
X102039785Y-54978602D01*
G37*
G36*
X137676593Y-50169104D02*
G01*
X137913301Y-50267152D01*
X137913303Y-50267153D01*
X138126335Y-50409496D01*
X138307504Y-50590665D01*
X138449847Y-50803697D01*
X138449848Y-50803699D01*
X138547896Y-51040407D01*
X138597880Y-51291693D01*
X138597880Y-51547907D01*
X138547896Y-51799193D01*
X138449848Y-52035901D01*
X138449847Y-52035903D01*
X138307504Y-52248935D01*
X138126335Y-52430104D01*
X137913303Y-52572447D01*
X137913302Y-52572448D01*
X137913301Y-52572448D01*
X137676593Y-52670496D01*
X137425307Y-52720480D01*
X137169093Y-52720480D01*
X136917807Y-52670496D01*
X136681099Y-52572448D01*
X136681098Y-52572448D01*
X136681097Y-52572447D01*
X136468065Y-52430104D01*
X136286896Y-52248935D01*
X136144553Y-52035903D01*
X136144552Y-52035901D01*
X136046504Y-51799193D01*
X135996520Y-51547907D01*
X135996520Y-51291693D01*
X136046504Y-51040407D01*
X136144552Y-50803699D01*
X136144553Y-50803697D01*
X136286896Y-50590665D01*
X136468065Y-50409496D01*
X136681097Y-50267153D01*
X136681099Y-50267152D01*
X136917807Y-50169104D01*
X137169093Y-50119120D01*
X137425307Y-50119120D01*
X137676593Y-50169104D01*
G37*
G36*
X117356593Y-50169104D02*
G01*
X117593301Y-50267152D01*
X117593303Y-50267153D01*
X117806335Y-50409496D01*
X117987504Y-50590665D01*
X118129847Y-50803697D01*
X118129848Y-50803699D01*
X118227896Y-51040407D01*
X118277880Y-51291693D01*
X118277880Y-51547907D01*
X118227896Y-51799193D01*
X118129848Y-52035901D01*
X118129847Y-52035903D01*
X117987504Y-52248935D01*
X117806335Y-52430104D01*
X117593303Y-52572447D01*
X117593302Y-52572448D01*
X117593301Y-52572448D01*
X117356593Y-52670496D01*
X117105307Y-52720480D01*
X116849093Y-52720480D01*
X116597807Y-52670496D01*
X116361099Y-52572448D01*
X116361098Y-52572448D01*
X116361097Y-52572447D01*
X116148065Y-52430104D01*
X115966896Y-52248935D01*
X115824553Y-52035903D01*
X115824552Y-52035901D01*
X115726504Y-51799193D01*
X115676520Y-51547907D01*
X115676520Y-51291693D01*
X115726504Y-51040407D01*
X115824552Y-50803699D01*
X115824553Y-50803697D01*
X115966896Y-50590665D01*
X116148065Y-50409496D01*
X116361097Y-50267153D01*
X116361099Y-50267152D01*
X116597807Y-50169104D01*
X116849093Y-50119120D01*
X117105307Y-50119120D01*
X117356593Y-50169104D01*
G37*
G36*
X152839785Y-44818602D02*
G01*
X152989610Y-44848404D01*
X153271874Y-44965321D01*
X153525905Y-45135059D01*
X153741941Y-45351095D01*
X153911679Y-45605126D01*
X154028596Y-45887390D01*
X154088200Y-46187040D01*
X154088200Y-46492560D01*
X154028596Y-46792210D01*
X153911679Y-47074474D01*
X153741941Y-47328505D01*
X153525905Y-47544541D01*
X153271874Y-47714279D01*
X152989610Y-47831196D01*
X152839785Y-47860998D01*
X152689961Y-47890800D01*
X152384439Y-47890800D01*
X152234615Y-47860998D01*
X152084790Y-47831196D01*
X151802526Y-47714279D01*
X151548495Y-47544541D01*
X151332459Y-47328505D01*
X151162721Y-47074474D01*
X151045804Y-46792210D01*
X150986200Y-46492560D01*
X150986200Y-46187040D01*
X151045804Y-45887390D01*
X151162721Y-45605126D01*
X151332459Y-45351095D01*
X151548495Y-45135059D01*
X151802526Y-44965321D01*
X152084790Y-44848404D01*
X152234615Y-44818602D01*
X152384439Y-44788800D01*
X152689961Y-44788800D01*
X152839785Y-44818602D01*
G37*
G36*
X102039785Y-44818602D02*
G01*
X102189610Y-44848404D01*
X102471874Y-44965321D01*
X102725905Y-45135059D01*
X102941941Y-45351095D01*
X103111679Y-45605126D01*
X103228596Y-45887390D01*
X103288200Y-46187040D01*
X103288200Y-46492560D01*
X103228596Y-46792210D01*
X103111679Y-47074474D01*
X102941941Y-47328505D01*
X102725905Y-47544541D01*
X102471874Y-47714279D01*
X102189610Y-47831196D01*
X102039785Y-47860998D01*
X101889961Y-47890800D01*
X101584439Y-47890800D01*
X101434615Y-47860998D01*
X101284790Y-47831196D01*
X101002526Y-47714279D01*
X100748495Y-47544541D01*
X100532459Y-47328505D01*
X100362721Y-47074474D01*
X100245804Y-46792210D01*
X100186200Y-46492560D01*
X100186200Y-46187040D01*
X100245804Y-45887390D01*
X100362721Y-45605126D01*
X100532459Y-45351095D01*
X100748495Y-45135059D01*
X101002526Y-44965321D01*
X101284790Y-44848404D01*
X101434615Y-44818602D01*
X101584439Y-44788800D01*
X101889961Y-44788800D01*
X102039785Y-44818602D01*
G37*
G36*
X127250712Y-44173727D02*
G01*
X127400012Y-44203424D01*
X127563984Y-44271344D01*
X127711554Y-44369947D01*
X127837053Y-44495446D01*
X127935656Y-44643016D01*
X128003576Y-44806988D01*
X128038200Y-44981059D01*
X128038200Y-45158541D01*
X128003576Y-45332612D01*
X127935656Y-45496584D01*
X127837053Y-45644154D01*
X127711554Y-45769653D01*
X127563984Y-45868256D01*
X127400012Y-45936176D01*
X127250712Y-45965873D01*
X127225942Y-45970800D01*
X127048458Y-45970800D01*
X127023688Y-45965873D01*
X126874388Y-45936176D01*
X126710416Y-45868256D01*
X126562846Y-45769653D01*
X126437347Y-45644154D01*
X126338744Y-45496584D01*
X126270824Y-45332612D01*
X126236200Y-45158541D01*
X126236200Y-44981059D01*
X126270824Y-44806988D01*
X126338744Y-44643016D01*
X126437347Y-44495446D01*
X126562846Y-44369947D01*
X126710416Y-44271344D01*
X126874388Y-44203424D01*
X127023688Y-44173727D01*
X127048458Y-44168800D01*
X127225942Y-44168800D01*
X127250712Y-44173727D01*
G37*
G36*
X137410712Y-44173727D02*
G01*
X137560012Y-44203424D01*
X137723984Y-44271344D01*
X137871554Y-44369947D01*
X137997053Y-44495446D01*
X138095656Y-44643016D01*
X138163576Y-44806988D01*
X138198200Y-44981059D01*
X138198200Y-45158541D01*
X138163576Y-45332612D01*
X138095656Y-45496584D01*
X137997053Y-45644154D01*
X137871554Y-45769653D01*
X137723984Y-45868256D01*
X137560012Y-45936176D01*
X137410712Y-45965873D01*
X137385942Y-45970800D01*
X137208458Y-45970800D01*
X137183688Y-45965873D01*
X137034388Y-45936176D01*
X136870416Y-45868256D01*
X136722846Y-45769653D01*
X136597347Y-45644154D01*
X136498744Y-45496584D01*
X136430824Y-45332612D01*
X136396200Y-45158541D01*
X136396200Y-44981059D01*
X136430824Y-44806988D01*
X136498744Y-44643016D01*
X136597347Y-44495446D01*
X136722846Y-44369947D01*
X136870416Y-44271344D01*
X137034388Y-44203424D01*
X137183688Y-44173727D01*
X137208458Y-44168800D01*
X137385942Y-44168800D01*
X137410712Y-44173727D01*
G37*
G36*
X134870712Y-44173727D02*
G01*
X135020012Y-44203424D01*
X135183984Y-44271344D01*
X135331554Y-44369947D01*
X135457053Y-44495446D01*
X135555656Y-44643016D01*
X135623576Y-44806988D01*
X135658200Y-44981059D01*
X135658200Y-45158541D01*
X135623576Y-45332612D01*
X135555656Y-45496584D01*
X135457053Y-45644154D01*
X135331554Y-45769653D01*
X135183984Y-45868256D01*
X135020012Y-45936176D01*
X134870712Y-45965873D01*
X134845942Y-45970800D01*
X134668458Y-45970800D01*
X134643688Y-45965873D01*
X134494388Y-45936176D01*
X134330416Y-45868256D01*
X134182846Y-45769653D01*
X134057347Y-45644154D01*
X133958744Y-45496584D01*
X133890824Y-45332612D01*
X133856200Y-45158541D01*
X133856200Y-44981059D01*
X133890824Y-44806988D01*
X133958744Y-44643016D01*
X134057347Y-44495446D01*
X134182846Y-44369947D01*
X134330416Y-44271344D01*
X134494388Y-44203424D01*
X134643688Y-44173727D01*
X134668458Y-44168800D01*
X134845942Y-44168800D01*
X134870712Y-44173727D01*
G37*
G36*
X132330712Y-44173727D02*
G01*
X132480012Y-44203424D01*
X132643984Y-44271344D01*
X132791554Y-44369947D01*
X132917053Y-44495446D01*
X133015656Y-44643016D01*
X133083576Y-44806988D01*
X133118200Y-44981059D01*
X133118200Y-45158541D01*
X133083576Y-45332612D01*
X133015656Y-45496584D01*
X132917053Y-45644154D01*
X132791554Y-45769653D01*
X132643984Y-45868256D01*
X132480012Y-45936176D01*
X132330712Y-45965873D01*
X132305942Y-45970800D01*
X132128458Y-45970800D01*
X132103688Y-45965873D01*
X131954388Y-45936176D01*
X131790416Y-45868256D01*
X131642846Y-45769653D01*
X131517347Y-45644154D01*
X131418744Y-45496584D01*
X131350824Y-45332612D01*
X131316200Y-45158541D01*
X131316200Y-44981059D01*
X131350824Y-44806988D01*
X131418744Y-44643016D01*
X131517347Y-44495446D01*
X131642846Y-44369947D01*
X131790416Y-44271344D01*
X131954388Y-44203424D01*
X132103688Y-44173727D01*
X132128458Y-44168800D01*
X132305942Y-44168800D01*
X132330712Y-44173727D01*
G37*
G36*
X129790712Y-44173727D02*
G01*
X129940012Y-44203424D01*
X130103984Y-44271344D01*
X130251554Y-44369947D01*
X130377053Y-44495446D01*
X130475656Y-44643016D01*
X130543576Y-44806988D01*
X130578200Y-44981059D01*
X130578200Y-45158541D01*
X130543576Y-45332612D01*
X130475656Y-45496584D01*
X130377053Y-45644154D01*
X130251554Y-45769653D01*
X130103984Y-45868256D01*
X129940012Y-45936176D01*
X129790712Y-45965873D01*
X129765942Y-45970800D01*
X129588458Y-45970800D01*
X129563688Y-45965873D01*
X129414388Y-45936176D01*
X129250416Y-45868256D01*
X129102846Y-45769653D01*
X128977347Y-45644154D01*
X128878744Y-45496584D01*
X128810824Y-45332612D01*
X128776200Y-45158541D01*
X128776200Y-44981059D01*
X128810824Y-44806988D01*
X128878744Y-44643016D01*
X128977347Y-44495446D01*
X129102846Y-44369947D01*
X129250416Y-44271344D01*
X129414388Y-44203424D01*
X129563688Y-44173727D01*
X129588458Y-44168800D01*
X129765942Y-44168800D01*
X129790712Y-44173727D01*
G37*
G36*
X124710712Y-44173727D02*
G01*
X124860012Y-44203424D01*
X125023984Y-44271344D01*
X125171554Y-44369947D01*
X125297053Y-44495446D01*
X125395656Y-44643016D01*
X125463576Y-44806988D01*
X125498200Y-44981059D01*
X125498200Y-45158541D01*
X125463576Y-45332612D01*
X125395656Y-45496584D01*
X125297053Y-45644154D01*
X125171554Y-45769653D01*
X125023984Y-45868256D01*
X124860012Y-45936176D01*
X124710712Y-45965873D01*
X124685942Y-45970800D01*
X124508458Y-45970800D01*
X124483688Y-45965873D01*
X124334388Y-45936176D01*
X124170416Y-45868256D01*
X124022846Y-45769653D01*
X123897347Y-45644154D01*
X123798744Y-45496584D01*
X123730824Y-45332612D01*
X123696200Y-45158541D01*
X123696200Y-44981059D01*
X123730824Y-44806988D01*
X123798744Y-44643016D01*
X123897347Y-44495446D01*
X124022846Y-44369947D01*
X124170416Y-44271344D01*
X124334388Y-44203424D01*
X124483688Y-44173727D01*
X124508458Y-44168800D01*
X124685942Y-44168800D01*
X124710712Y-44173727D01*
G37*
G36*
X122170712Y-44173727D02*
G01*
X122320012Y-44203424D01*
X122483984Y-44271344D01*
X122631554Y-44369947D01*
X122757053Y-44495446D01*
X122855656Y-44643016D01*
X122923576Y-44806988D01*
X122958200Y-44981059D01*
X122958200Y-45158541D01*
X122923576Y-45332612D01*
X122855656Y-45496584D01*
X122757053Y-45644154D01*
X122631554Y-45769653D01*
X122483984Y-45868256D01*
X122320012Y-45936176D01*
X122170712Y-45965873D01*
X122145942Y-45970800D01*
X121968458Y-45970800D01*
X121943688Y-45965873D01*
X121794388Y-45936176D01*
X121630416Y-45868256D01*
X121482846Y-45769653D01*
X121357347Y-45644154D01*
X121258744Y-45496584D01*
X121190824Y-45332612D01*
X121156200Y-45158541D01*
X121156200Y-44981059D01*
X121190824Y-44806988D01*
X121258744Y-44643016D01*
X121357347Y-44495446D01*
X121482846Y-44369947D01*
X121630416Y-44271344D01*
X121794388Y-44203424D01*
X121943688Y-44173727D01*
X121968458Y-44168800D01*
X122145942Y-44168800D01*
X122170712Y-44173727D01*
G37*
G36*
X119630712Y-44173727D02*
G01*
X119780012Y-44203424D01*
X119943984Y-44271344D01*
X120091554Y-44369947D01*
X120217053Y-44495446D01*
X120315656Y-44643016D01*
X120383576Y-44806988D01*
X120418200Y-44981059D01*
X120418200Y-45158541D01*
X120383576Y-45332612D01*
X120315656Y-45496584D01*
X120217053Y-45644154D01*
X120091554Y-45769653D01*
X119943984Y-45868256D01*
X119780012Y-45936176D01*
X119630712Y-45965873D01*
X119605942Y-45970800D01*
X119428458Y-45970800D01*
X119403688Y-45965873D01*
X119254388Y-45936176D01*
X119090416Y-45868256D01*
X118942846Y-45769653D01*
X118817347Y-45644154D01*
X118718744Y-45496584D01*
X118650824Y-45332612D01*
X118616200Y-45158541D01*
X118616200Y-44981059D01*
X118650824Y-44806988D01*
X118718744Y-44643016D01*
X118817347Y-44495446D01*
X118942846Y-44369947D01*
X119090416Y-44271344D01*
X119254388Y-44203424D01*
X119403688Y-44173727D01*
X119428458Y-44168800D01*
X119605942Y-44168800D01*
X119630712Y-44173727D01*
G37*
G36*
X117090712Y-44173727D02*
G01*
X117240012Y-44203424D01*
X117403984Y-44271344D01*
X117551554Y-44369947D01*
X117677053Y-44495446D01*
X117775656Y-44643016D01*
X117843576Y-44806988D01*
X117878200Y-44981059D01*
X117878200Y-45158541D01*
X117843576Y-45332612D01*
X117775656Y-45496584D01*
X117677053Y-45644154D01*
X117551554Y-45769653D01*
X117403984Y-45868256D01*
X117240012Y-45936176D01*
X117090712Y-45965873D01*
X117065942Y-45970800D01*
X116888458Y-45970800D01*
X116863688Y-45965873D01*
X116714388Y-45936176D01*
X116550416Y-45868256D01*
X116402846Y-45769653D01*
X116277347Y-45644154D01*
X116178744Y-45496584D01*
X116110824Y-45332612D01*
X116076200Y-45158541D01*
X116076200Y-44981059D01*
X116110824Y-44806988D01*
X116178744Y-44643016D01*
X116277347Y-44495446D01*
X116402846Y-44369947D01*
X116550416Y-44271344D01*
X116714388Y-44203424D01*
X116863688Y-44173727D01*
X116888458Y-44168800D01*
X117065942Y-44168800D01*
X117090712Y-44173727D01*
G37*
G36*
X114550712Y-44173727D02*
G01*
X114700012Y-44203424D01*
X114863984Y-44271344D01*
X115011554Y-44369947D01*
X115137053Y-44495446D01*
X115235656Y-44643016D01*
X115303576Y-44806988D01*
X115338200Y-44981059D01*
X115338200Y-45158541D01*
X115303576Y-45332612D01*
X115235656Y-45496584D01*
X115137053Y-45644154D01*
X115011554Y-45769653D01*
X114863984Y-45868256D01*
X114700012Y-45936176D01*
X114550712Y-45965873D01*
X114525942Y-45970800D01*
X114348458Y-45970800D01*
X114323688Y-45965873D01*
X114174388Y-45936176D01*
X114010416Y-45868256D01*
X113862846Y-45769653D01*
X113737347Y-45644154D01*
X113638744Y-45496584D01*
X113570824Y-45332612D01*
X113536200Y-45158541D01*
X113536200Y-44981059D01*
X113570824Y-44806988D01*
X113638744Y-44643016D01*
X113737347Y-44495446D01*
X113862846Y-44369947D01*
X114010416Y-44271344D01*
X114174388Y-44203424D01*
X114323688Y-44173727D01*
X114348458Y-44168800D01*
X114525942Y-44168800D01*
X114550712Y-44173727D01*
G37*
G36*
X112010712Y-44173727D02*
G01*
X112160012Y-44203424D01*
X112323984Y-44271344D01*
X112471554Y-44369947D01*
X112597053Y-44495446D01*
X112695656Y-44643016D01*
X112763576Y-44806988D01*
X112798200Y-44981059D01*
X112798200Y-45158541D01*
X112763576Y-45332612D01*
X112695656Y-45496584D01*
X112597053Y-45644154D01*
X112471554Y-45769653D01*
X112323984Y-45868256D01*
X112160012Y-45936176D01*
X112010712Y-45965873D01*
X111985942Y-45970800D01*
X111808458Y-45970800D01*
X111783688Y-45965873D01*
X111634388Y-45936176D01*
X111470416Y-45868256D01*
X111322846Y-45769653D01*
X111197347Y-45644154D01*
X111098744Y-45496584D01*
X111030824Y-45332612D01*
X110996200Y-45158541D01*
X110996200Y-44981059D01*
X111030824Y-44806988D01*
X111098744Y-44643016D01*
X111197347Y-44495446D01*
X111322846Y-44369947D01*
X111470416Y-44271344D01*
X111634388Y-44203424D01*
X111783688Y-44173727D01*
X111808458Y-44168800D01*
X111985942Y-44168800D01*
X112010712Y-44173727D01*
G37*
G36*
X109470712Y-44173727D02*
G01*
X109620012Y-44203424D01*
X109783984Y-44271344D01*
X109931554Y-44369947D01*
X110057053Y-44495446D01*
X110155656Y-44643016D01*
X110223576Y-44806988D01*
X110258200Y-44981059D01*
X110258200Y-45158541D01*
X110223576Y-45332612D01*
X110155656Y-45496584D01*
X110057053Y-45644154D01*
X109931554Y-45769653D01*
X109783984Y-45868256D01*
X109620012Y-45936176D01*
X109470712Y-45965873D01*
X109445942Y-45970800D01*
X109268458Y-45970800D01*
X109243688Y-45965873D01*
X109094388Y-45936176D01*
X108930416Y-45868256D01*
X108782846Y-45769653D01*
X108657347Y-45644154D01*
X108558744Y-45496584D01*
X108490824Y-45332612D01*
X108456200Y-45158541D01*
X108456200Y-44981059D01*
X108490824Y-44806988D01*
X108558744Y-44643016D01*
X108657347Y-44495446D01*
X108782846Y-44369947D01*
X108930416Y-44271344D01*
X109094388Y-44203424D01*
X109243688Y-44173727D01*
X109268458Y-44168800D01*
X109445942Y-44168800D01*
X109470712Y-44173727D01*
G37*
G36*
X142490712Y-44173727D02*
G01*
X142640012Y-44203424D01*
X142803984Y-44271344D01*
X142951554Y-44369947D01*
X143077053Y-44495446D01*
X143175656Y-44643016D01*
X143243576Y-44806988D01*
X143278200Y-44981059D01*
X143278200Y-45158541D01*
X143243576Y-45332612D01*
X143175656Y-45496584D01*
X143077053Y-45644154D01*
X142951554Y-45769653D01*
X142803984Y-45868256D01*
X142640012Y-45936176D01*
X142490712Y-45965873D01*
X142465942Y-45970800D01*
X142288458Y-45970800D01*
X142263688Y-45965873D01*
X142114388Y-45936176D01*
X141950416Y-45868256D01*
X141802846Y-45769653D01*
X141677347Y-45644154D01*
X141578744Y-45496584D01*
X141510824Y-45332612D01*
X141476200Y-45158541D01*
X141476200Y-44981059D01*
X141510824Y-44806988D01*
X141578744Y-44643016D01*
X141677347Y-44495446D01*
X141802846Y-44369947D01*
X141950416Y-44271344D01*
X142114388Y-44203424D01*
X142263688Y-44173727D01*
X142288458Y-44168800D01*
X142465942Y-44168800D01*
X142490712Y-44173727D01*
G37*
G36*
X139950712Y-44173727D02*
G01*
X140100012Y-44203424D01*
X140263984Y-44271344D01*
X140411554Y-44369947D01*
X140537053Y-44495446D01*
X140635656Y-44643016D01*
X140703576Y-44806988D01*
X140738200Y-44981059D01*
X140738200Y-45158541D01*
X140703576Y-45332612D01*
X140635656Y-45496584D01*
X140537053Y-45644154D01*
X140411554Y-45769653D01*
X140263984Y-45868256D01*
X140100012Y-45936176D01*
X139950712Y-45965873D01*
X139925942Y-45970800D01*
X139748458Y-45970800D01*
X139723688Y-45965873D01*
X139574388Y-45936176D01*
X139410416Y-45868256D01*
X139262846Y-45769653D01*
X139137347Y-45644154D01*
X139038744Y-45496584D01*
X138970824Y-45332612D01*
X138936200Y-45158541D01*
X138936200Y-44981059D01*
X138970824Y-44806988D01*
X139038744Y-44643016D01*
X139137347Y-44495446D01*
X139262846Y-44369947D01*
X139410416Y-44271344D01*
X139574388Y-44203424D01*
X139723688Y-44173727D01*
X139748458Y-44168800D01*
X139925942Y-44168800D01*
X139950712Y-44173727D01*
G37*
G36*
X145030712Y-44173727D02*
G01*
X145180012Y-44203424D01*
X145343984Y-44271344D01*
X145491554Y-44369947D01*
X145617053Y-44495446D01*
X145715656Y-44643016D01*
X145783576Y-44806988D01*
X145818200Y-44981059D01*
X145818200Y-45158541D01*
X145783576Y-45332612D01*
X145715656Y-45496584D01*
X145617053Y-45644154D01*
X145491554Y-45769653D01*
X145343984Y-45868256D01*
X145180012Y-45936176D01*
X145030712Y-45965873D01*
X145005942Y-45970800D01*
X144828458Y-45970800D01*
X144803688Y-45965873D01*
X144654388Y-45936176D01*
X144490416Y-45868256D01*
X144342846Y-45769653D01*
X144217347Y-45644154D01*
X144118744Y-45496584D01*
X144050824Y-45332612D01*
X144016200Y-45158541D01*
X144016200Y-44981059D01*
X144050824Y-44806988D01*
X144118744Y-44643016D01*
X144217347Y-44495446D01*
X144342846Y-44369947D01*
X144490416Y-44271344D01*
X144654388Y-44203424D01*
X144803688Y-44173727D01*
X144828458Y-44168800D01*
X145005942Y-44168800D01*
X145030712Y-44173727D01*
G37*
G36*
X119630712Y-41633727D02*
G01*
X119780012Y-41663424D01*
X119943984Y-41731344D01*
X120091554Y-41829947D01*
X120217053Y-41955446D01*
X120315656Y-42103016D01*
X120383576Y-42266988D01*
X120418200Y-42441059D01*
X120418200Y-42618541D01*
X120383576Y-42792612D01*
X120315656Y-42956584D01*
X120217053Y-43104154D01*
X120091554Y-43229653D01*
X119943984Y-43328256D01*
X119780012Y-43396176D01*
X119630712Y-43425873D01*
X119605942Y-43430800D01*
X119428458Y-43430800D01*
X119403688Y-43425873D01*
X119254388Y-43396176D01*
X119090416Y-43328256D01*
X118942846Y-43229653D01*
X118817347Y-43104154D01*
X118718744Y-42956584D01*
X118650824Y-42792612D01*
X118616200Y-42618541D01*
X118616200Y-42441059D01*
X118650824Y-42266988D01*
X118718744Y-42103016D01*
X118817347Y-41955446D01*
X118942846Y-41829947D01*
X119090416Y-41731344D01*
X119254388Y-41663424D01*
X119403688Y-41633727D01*
X119428458Y-41628800D01*
X119605942Y-41628800D01*
X119630712Y-41633727D01*
G37*
G36*
X117090712Y-41633727D02*
G01*
X117240012Y-41663424D01*
X117403984Y-41731344D01*
X117551554Y-41829947D01*
X117677053Y-41955446D01*
X117775656Y-42103016D01*
X117843576Y-42266988D01*
X117878200Y-42441059D01*
X117878200Y-42618541D01*
X117843576Y-42792612D01*
X117775656Y-42956584D01*
X117677053Y-43104154D01*
X117551554Y-43229653D01*
X117403984Y-43328256D01*
X117240012Y-43396176D01*
X117090712Y-43425873D01*
X117065942Y-43430800D01*
X116888458Y-43430800D01*
X116863688Y-43425873D01*
X116714388Y-43396176D01*
X116550416Y-43328256D01*
X116402846Y-43229653D01*
X116277347Y-43104154D01*
X116178744Y-42956584D01*
X116110824Y-42792612D01*
X116076200Y-42618541D01*
X116076200Y-42441059D01*
X116110824Y-42266988D01*
X116178744Y-42103016D01*
X116277347Y-41955446D01*
X116402846Y-41829947D01*
X116550416Y-41731344D01*
X116714388Y-41663424D01*
X116863688Y-41633727D01*
X116888458Y-41628800D01*
X117065942Y-41628800D01*
X117090712Y-41633727D01*
G37*
G36*
X114550712Y-41633727D02*
G01*
X114700012Y-41663424D01*
X114863984Y-41731344D01*
X115011554Y-41829947D01*
X115137053Y-41955446D01*
X115235656Y-42103016D01*
X115303576Y-42266988D01*
X115338200Y-42441059D01*
X115338200Y-42618541D01*
X115303576Y-42792612D01*
X115235656Y-42956584D01*
X115137053Y-43104154D01*
X115011554Y-43229653D01*
X114863984Y-43328256D01*
X114700012Y-43396176D01*
X114550712Y-43425873D01*
X114525942Y-43430800D01*
X114348458Y-43430800D01*
X114323688Y-43425873D01*
X114174388Y-43396176D01*
X114010416Y-43328256D01*
X113862846Y-43229653D01*
X113737347Y-43104154D01*
X113638744Y-42956584D01*
X113570824Y-42792612D01*
X113536200Y-42618541D01*
X113536200Y-42441059D01*
X113570824Y-42266988D01*
X113638744Y-42103016D01*
X113737347Y-41955446D01*
X113862846Y-41829947D01*
X114010416Y-41731344D01*
X114174388Y-41663424D01*
X114323688Y-41633727D01*
X114348458Y-41628800D01*
X114525942Y-41628800D01*
X114550712Y-41633727D01*
G37*
G36*
X112010712Y-41633727D02*
G01*
X112160012Y-41663424D01*
X112323984Y-41731344D01*
X112471554Y-41829947D01*
X112597053Y-41955446D01*
X112695656Y-42103016D01*
X112763576Y-42266988D01*
X112798200Y-42441059D01*
X112798200Y-42618541D01*
X112763576Y-42792612D01*
X112695656Y-42956584D01*
X112597053Y-43104154D01*
X112471554Y-43229653D01*
X112323984Y-43328256D01*
X112160012Y-43396176D01*
X112010712Y-43425873D01*
X111985942Y-43430800D01*
X111808458Y-43430800D01*
X111783688Y-43425873D01*
X111634388Y-43396176D01*
X111470416Y-43328256D01*
X111322846Y-43229653D01*
X111197347Y-43104154D01*
X111098744Y-42956584D01*
X111030824Y-42792612D01*
X110996200Y-42618541D01*
X110996200Y-42441059D01*
X111030824Y-42266988D01*
X111098744Y-42103016D01*
X111197347Y-41955446D01*
X111322846Y-41829947D01*
X111470416Y-41731344D01*
X111634388Y-41663424D01*
X111783688Y-41633727D01*
X111808458Y-41628800D01*
X111985942Y-41628800D01*
X112010712Y-41633727D01*
G37*
G36*
X109470712Y-41633727D02*
G01*
X109620012Y-41663424D01*
X109783984Y-41731344D01*
X109931554Y-41829947D01*
X110057053Y-41955446D01*
X110155656Y-42103016D01*
X110223576Y-42266988D01*
X110258200Y-42441059D01*
X110258200Y-42618541D01*
X110223576Y-42792612D01*
X110155656Y-42956584D01*
X110057053Y-43104154D01*
X109931554Y-43229653D01*
X109783984Y-43328256D01*
X109620012Y-43396176D01*
X109470712Y-43425873D01*
X109445942Y-43430800D01*
X109268458Y-43430800D01*
X109243688Y-43425873D01*
X109094388Y-43396176D01*
X108930416Y-43328256D01*
X108782846Y-43229653D01*
X108657347Y-43104154D01*
X108558744Y-42956584D01*
X108490824Y-42792612D01*
X108456200Y-42618541D01*
X108456200Y-42441059D01*
X108490824Y-42266988D01*
X108558744Y-42103016D01*
X108657347Y-41955446D01*
X108782846Y-41829947D01*
X108930416Y-41731344D01*
X109094388Y-41663424D01*
X109243688Y-41633727D01*
X109268458Y-41628800D01*
X109445942Y-41628800D01*
X109470712Y-41633727D01*
G37*
G36*
X132330712Y-41633727D02*
G01*
X132480012Y-41663424D01*
X132643984Y-41731344D01*
X132791554Y-41829947D01*
X132917053Y-41955446D01*
X133015656Y-42103016D01*
X133083576Y-42266988D01*
X133118200Y-42441059D01*
X133118200Y-42618541D01*
X133083576Y-42792612D01*
X133015656Y-42956584D01*
X132917053Y-43104154D01*
X132791554Y-43229653D01*
X132643984Y-43328256D01*
X132480012Y-43396176D01*
X132330712Y-43425873D01*
X132305942Y-43430800D01*
X132128458Y-43430800D01*
X132103688Y-43425873D01*
X131954388Y-43396176D01*
X131790416Y-43328256D01*
X131642846Y-43229653D01*
X131517347Y-43104154D01*
X131418744Y-42956584D01*
X131350824Y-42792612D01*
X131316200Y-42618541D01*
X131316200Y-42441059D01*
X131350824Y-42266988D01*
X131418744Y-42103016D01*
X131517347Y-41955446D01*
X131642846Y-41829947D01*
X131790416Y-41731344D01*
X131954388Y-41663424D01*
X132103688Y-41633727D01*
X132128458Y-41628800D01*
X132305942Y-41628800D01*
X132330712Y-41633727D01*
G37*
G36*
X129790712Y-41633727D02*
G01*
X129940012Y-41663424D01*
X130103984Y-41731344D01*
X130251554Y-41829947D01*
X130377053Y-41955446D01*
X130475656Y-42103016D01*
X130543576Y-42266988D01*
X130578200Y-42441059D01*
X130578200Y-42618541D01*
X130543576Y-42792612D01*
X130475656Y-42956584D01*
X130377053Y-43104154D01*
X130251554Y-43229653D01*
X130103984Y-43328256D01*
X129940012Y-43396176D01*
X129790712Y-43425873D01*
X129765942Y-43430800D01*
X129588458Y-43430800D01*
X129563688Y-43425873D01*
X129414388Y-43396176D01*
X129250416Y-43328256D01*
X129102846Y-43229653D01*
X128977347Y-43104154D01*
X128878744Y-42956584D01*
X128810824Y-42792612D01*
X128776200Y-42618541D01*
X128776200Y-42441059D01*
X128810824Y-42266988D01*
X128878744Y-42103016D01*
X128977347Y-41955446D01*
X129102846Y-41829947D01*
X129250416Y-41731344D01*
X129414388Y-41663424D01*
X129563688Y-41633727D01*
X129588458Y-41628800D01*
X129765942Y-41628800D01*
X129790712Y-41633727D01*
G37*
G36*
X124710712Y-41633727D02*
G01*
X124860012Y-41663424D01*
X125023984Y-41731344D01*
X125171554Y-41829947D01*
X125297053Y-41955446D01*
X125395656Y-42103016D01*
X125463576Y-42266988D01*
X125498200Y-42441059D01*
X125498200Y-42618541D01*
X125463576Y-42792612D01*
X125395656Y-42956584D01*
X125297053Y-43104154D01*
X125171554Y-43229653D01*
X125023984Y-43328256D01*
X124860012Y-43396176D01*
X124710712Y-43425873D01*
X124685942Y-43430800D01*
X124508458Y-43430800D01*
X124483688Y-43425873D01*
X124334388Y-43396176D01*
X124170416Y-43328256D01*
X124022846Y-43229653D01*
X123897347Y-43104154D01*
X123798744Y-42956584D01*
X123730824Y-42792612D01*
X123696200Y-42618541D01*
X123696200Y-42441059D01*
X123730824Y-42266988D01*
X123798744Y-42103016D01*
X123897347Y-41955446D01*
X124022846Y-41829947D01*
X124170416Y-41731344D01*
X124334388Y-41663424D01*
X124483688Y-41633727D01*
X124508458Y-41628800D01*
X124685942Y-41628800D01*
X124710712Y-41633727D01*
G37*
G36*
X145030712Y-41633727D02*
G01*
X145180012Y-41663424D01*
X145343984Y-41731344D01*
X145491554Y-41829947D01*
X145617053Y-41955446D01*
X145715656Y-42103016D01*
X145783576Y-42266988D01*
X145818200Y-42441059D01*
X145818200Y-42618541D01*
X145783576Y-42792612D01*
X145715656Y-42956584D01*
X145617053Y-43104154D01*
X145491554Y-43229653D01*
X145343984Y-43328256D01*
X145180012Y-43396176D01*
X145030712Y-43425873D01*
X145005942Y-43430800D01*
X144828458Y-43430800D01*
X144803688Y-43425873D01*
X144654388Y-43396176D01*
X144490416Y-43328256D01*
X144342846Y-43229653D01*
X144217347Y-43104154D01*
X144118744Y-42956584D01*
X144050824Y-42792612D01*
X144016200Y-42618541D01*
X144016200Y-42441059D01*
X144050824Y-42266988D01*
X144118744Y-42103016D01*
X144217347Y-41955446D01*
X144342846Y-41829947D01*
X144490416Y-41731344D01*
X144654388Y-41663424D01*
X144803688Y-41633727D01*
X144828458Y-41628800D01*
X145005942Y-41628800D01*
X145030712Y-41633727D01*
G37*
G36*
X142490712Y-41633727D02*
G01*
X142640012Y-41663424D01*
X142803984Y-41731344D01*
X142951554Y-41829947D01*
X143077053Y-41955446D01*
X143175656Y-42103016D01*
X143243576Y-42266988D01*
X143278200Y-42441059D01*
X143278200Y-42618541D01*
X143243576Y-42792612D01*
X143175656Y-42956584D01*
X143077053Y-43104154D01*
X142951554Y-43229653D01*
X142803984Y-43328256D01*
X142640012Y-43396176D01*
X142490712Y-43425873D01*
X142465942Y-43430800D01*
X142288458Y-43430800D01*
X142263688Y-43425873D01*
X142114388Y-43396176D01*
X141950416Y-43328256D01*
X141802846Y-43229653D01*
X141677347Y-43104154D01*
X141578744Y-42956584D01*
X141510824Y-42792612D01*
X141476200Y-42618541D01*
X141476200Y-42441059D01*
X141510824Y-42266988D01*
X141578744Y-42103016D01*
X141677347Y-41955446D01*
X141802846Y-41829947D01*
X141950416Y-41731344D01*
X142114388Y-41663424D01*
X142263688Y-41633727D01*
X142288458Y-41628800D01*
X142465942Y-41628800D01*
X142490712Y-41633727D01*
G37*
G36*
X139950712Y-41633727D02*
G01*
X140100012Y-41663424D01*
X140263984Y-41731344D01*
X140411554Y-41829947D01*
X140537053Y-41955446D01*
X140635656Y-42103016D01*
X140703576Y-42266988D01*
X140738200Y-42441059D01*
X140738200Y-42618541D01*
X140703576Y-42792612D01*
X140635656Y-42956584D01*
X140537053Y-43104154D01*
X140411554Y-43229653D01*
X140263984Y-43328256D01*
X140100012Y-43396176D01*
X139950712Y-43425873D01*
X139925942Y-43430800D01*
X139748458Y-43430800D01*
X139723688Y-43425873D01*
X139574388Y-43396176D01*
X139410416Y-43328256D01*
X139262846Y-43229653D01*
X139137347Y-43104154D01*
X139038744Y-42956584D01*
X138970824Y-42792612D01*
X138936200Y-42618541D01*
X138936200Y-42441059D01*
X138970824Y-42266988D01*
X139038744Y-42103016D01*
X139137347Y-41955446D01*
X139262846Y-41829947D01*
X139410416Y-41731344D01*
X139574388Y-41663424D01*
X139723688Y-41633727D01*
X139748458Y-41628800D01*
X139925942Y-41628800D01*
X139950712Y-41633727D01*
G37*
G36*
X137410712Y-41633727D02*
G01*
X137560012Y-41663424D01*
X137723984Y-41731344D01*
X137871554Y-41829947D01*
X137997053Y-41955446D01*
X138095656Y-42103016D01*
X138163576Y-42266988D01*
X138198200Y-42441059D01*
X138198200Y-42618541D01*
X138163576Y-42792612D01*
X138095656Y-42956584D01*
X137997053Y-43104154D01*
X137871554Y-43229653D01*
X137723984Y-43328256D01*
X137560012Y-43396176D01*
X137410712Y-43425873D01*
X137385942Y-43430800D01*
X137208458Y-43430800D01*
X137183688Y-43425873D01*
X137034388Y-43396176D01*
X136870416Y-43328256D01*
X136722846Y-43229653D01*
X136597347Y-43104154D01*
X136498744Y-42956584D01*
X136430824Y-42792612D01*
X136396200Y-42618541D01*
X136396200Y-42441059D01*
X136430824Y-42266988D01*
X136498744Y-42103016D01*
X136597347Y-41955446D01*
X136722846Y-41829947D01*
X136870416Y-41731344D01*
X137034388Y-41663424D01*
X137183688Y-41633727D01*
X137208458Y-41628800D01*
X137385942Y-41628800D01*
X137410712Y-41633727D01*
G37*
G36*
X127250712Y-41633727D02*
G01*
X127400012Y-41663424D01*
X127563984Y-41731344D01*
X127711554Y-41829947D01*
X127837053Y-41955446D01*
X127935656Y-42103016D01*
X128003576Y-42266988D01*
X128038200Y-42441059D01*
X128038200Y-42618541D01*
X128003576Y-42792612D01*
X127935656Y-42956584D01*
X127837053Y-43104154D01*
X127711554Y-43229653D01*
X127563984Y-43328256D01*
X127400012Y-43396176D01*
X127250712Y-43425873D01*
X127225942Y-43430800D01*
X127048458Y-43430800D01*
X127023688Y-43425873D01*
X126874388Y-43396176D01*
X126710416Y-43328256D01*
X126562846Y-43229653D01*
X126437347Y-43104154D01*
X126338744Y-42956584D01*
X126270824Y-42792612D01*
X126236200Y-42618541D01*
X126236200Y-42441059D01*
X126270824Y-42266988D01*
X126338744Y-42103016D01*
X126437347Y-41955446D01*
X126562846Y-41829947D01*
X126710416Y-41731344D01*
X126874388Y-41663424D01*
X127023688Y-41633727D01*
X127048458Y-41628800D01*
X127225942Y-41628800D01*
X127250712Y-41633727D01*
G37*
G36*
X134870712Y-41633727D02*
G01*
X135020012Y-41663424D01*
X135183984Y-41731344D01*
X135331554Y-41829947D01*
X135457053Y-41955446D01*
X135555656Y-42103016D01*
X135623576Y-42266988D01*
X135658200Y-42441059D01*
X135658200Y-42618541D01*
X135623576Y-42792612D01*
X135555656Y-42956584D01*
X135457053Y-43104154D01*
X135331554Y-43229653D01*
X135183984Y-43328256D01*
X135020012Y-43396176D01*
X134870712Y-43425873D01*
X134845942Y-43430800D01*
X134668458Y-43430800D01*
X134643688Y-43425873D01*
X134494388Y-43396176D01*
X134330416Y-43328256D01*
X134182846Y-43229653D01*
X134057347Y-43104154D01*
X133958744Y-42956584D01*
X133890824Y-42792612D01*
X133856200Y-42618541D01*
X133856200Y-42441059D01*
X133890824Y-42266988D01*
X133958744Y-42103016D01*
X134057347Y-41955446D01*
X134182846Y-41829947D01*
X134330416Y-41731344D01*
X134494388Y-41663424D01*
X134643688Y-41633727D01*
X134668458Y-41628800D01*
X134845942Y-41628800D01*
X134870712Y-41633727D01*
G37*
G36*
X122170712Y-41633727D02*
G01*
X122320012Y-41663424D01*
X122483984Y-41731344D01*
X122631554Y-41829947D01*
X122757053Y-41955446D01*
X122855656Y-42103016D01*
X122923576Y-42266988D01*
X122958200Y-42441059D01*
X122958200Y-42618541D01*
X122923576Y-42792612D01*
X122855656Y-42956584D01*
X122757053Y-43104154D01*
X122631554Y-43229653D01*
X122483984Y-43328256D01*
X122320012Y-43396176D01*
X122170712Y-43425873D01*
X122145942Y-43430800D01*
X121968458Y-43430800D01*
X121943688Y-43425873D01*
X121794388Y-43396176D01*
X121630416Y-43328256D01*
X121482846Y-43229653D01*
X121357347Y-43104154D01*
X121258744Y-42956584D01*
X121190824Y-42792612D01*
X121156200Y-42618541D01*
X121156200Y-42441059D01*
X121190824Y-42266988D01*
X121258744Y-42103016D01*
X121357347Y-41955446D01*
X121482846Y-41829947D01*
X121630416Y-41731344D01*
X121794388Y-41663424D01*
X121943688Y-41633727D01*
X121968458Y-41628800D01*
X122145942Y-41628800D01*
X122170712Y-41633727D01*
G37*
G36*
X145002103Y-35347675D02*
G01*
X145229771Y-35441978D01*
X145434666Y-35578885D01*
X145608915Y-35753134D01*
X145745822Y-35958029D01*
X145840125Y-36185697D01*
X145888200Y-36427387D01*
X145888200Y-36673813D01*
X145840125Y-36915503D01*
X145745822Y-37143171D01*
X145608915Y-37348066D01*
X145434666Y-37522315D01*
X145229771Y-37659222D01*
X145229770Y-37659223D01*
X145229769Y-37659223D01*
X145002103Y-37753525D01*
X144760414Y-37801600D01*
X144513986Y-37801600D01*
X144272297Y-37753525D01*
X144044631Y-37659223D01*
X144044630Y-37659223D01*
X144044629Y-37659222D01*
X143839734Y-37522315D01*
X143665485Y-37348066D01*
X143528578Y-37143171D01*
X143434275Y-36915503D01*
X143386200Y-36673813D01*
X143386200Y-36427387D01*
X143434275Y-36185697D01*
X143528578Y-35958029D01*
X143665485Y-35753134D01*
X143839734Y-35578885D01*
X144044629Y-35441978D01*
X144272297Y-35347675D01*
X144513986Y-35299600D01*
X144760414Y-35299600D01*
X145002103Y-35347675D01*
G37*
G36*
X110002103Y-35347675D02*
G01*
X110229771Y-35441978D01*
X110434666Y-35578885D01*
X110608915Y-35753134D01*
X110745822Y-35958029D01*
X110840125Y-36185697D01*
X110888200Y-36427387D01*
X110888200Y-36673813D01*
X110840125Y-36915503D01*
X110745822Y-37143171D01*
X110608915Y-37348066D01*
X110434666Y-37522315D01*
X110229771Y-37659222D01*
X110229770Y-37659223D01*
X110229769Y-37659223D01*
X110002103Y-37753525D01*
X109760414Y-37801600D01*
X109513986Y-37801600D01*
X109272297Y-37753525D01*
X109044631Y-37659223D01*
X109044630Y-37659223D01*
X109044629Y-37659222D01*
X108839734Y-37522315D01*
X108665485Y-37348066D01*
X108528578Y-37143171D01*
X108434275Y-36915503D01*
X108386200Y-36673813D01*
X108386200Y-36427387D01*
X108434275Y-36185697D01*
X108528578Y-35958029D01*
X108665485Y-35753134D01*
X108839734Y-35578885D01*
X109044629Y-35441978D01*
X109272297Y-35347675D01*
X109513986Y-35299600D01*
X109760414Y-35299600D01*
X110002103Y-35347675D01*
G37*
G36*
X106502103Y-35347675D02*
G01*
X106729771Y-35441978D01*
X106934666Y-35578885D01*
X107108915Y-35753134D01*
X107245822Y-35958029D01*
X107340125Y-36185697D01*
X107388200Y-36427387D01*
X107388200Y-36673813D01*
X107340125Y-36915503D01*
X107245822Y-37143171D01*
X107108915Y-37348066D01*
X106934666Y-37522315D01*
X106729771Y-37659222D01*
X106729770Y-37659223D01*
X106729769Y-37659223D01*
X106502103Y-37753525D01*
X106260414Y-37801600D01*
X106013986Y-37801600D01*
X105772297Y-37753525D01*
X105544631Y-37659223D01*
X105544630Y-37659223D01*
X105544629Y-37659222D01*
X105339734Y-37522315D01*
X105165485Y-37348066D01*
X105028578Y-37143171D01*
X104934275Y-36915503D01*
X104886200Y-36673813D01*
X104886200Y-36427387D01*
X104934275Y-36185697D01*
X105028578Y-35958029D01*
X105165485Y-35753134D01*
X105339734Y-35578885D01*
X105544629Y-35441978D01*
X105772297Y-35347675D01*
X106013986Y-35299600D01*
X106260414Y-35299600D01*
X106502103Y-35347675D01*
G37*
G36*
X117002103Y-35347675D02*
G01*
X117229771Y-35441978D01*
X117434666Y-35578885D01*
X117608915Y-35753134D01*
X117745822Y-35958029D01*
X117840125Y-36185697D01*
X117888200Y-36427387D01*
X117888200Y-36673813D01*
X117840125Y-36915503D01*
X117745822Y-37143171D01*
X117608915Y-37348066D01*
X117434666Y-37522315D01*
X117229771Y-37659222D01*
X117229770Y-37659223D01*
X117229769Y-37659223D01*
X117002103Y-37753525D01*
X116760414Y-37801600D01*
X116513986Y-37801600D01*
X116272297Y-37753525D01*
X116044631Y-37659223D01*
X116044630Y-37659223D01*
X116044629Y-37659222D01*
X115839734Y-37522315D01*
X115665485Y-37348066D01*
X115528578Y-37143171D01*
X115434275Y-36915503D01*
X115386200Y-36673813D01*
X115386200Y-36427387D01*
X115434275Y-36185697D01*
X115528578Y-35958029D01*
X115665485Y-35753134D01*
X115839734Y-35578885D01*
X116044629Y-35441978D01*
X116272297Y-35347675D01*
X116513986Y-35299600D01*
X116760414Y-35299600D01*
X117002103Y-35347675D01*
G37*
G36*
X113502103Y-35347675D02*
G01*
X113729771Y-35441978D01*
X113934666Y-35578885D01*
X114108915Y-35753134D01*
X114245822Y-35958029D01*
X114340125Y-36185697D01*
X114388200Y-36427387D01*
X114388200Y-36673813D01*
X114340125Y-36915503D01*
X114245822Y-37143171D01*
X114108915Y-37348066D01*
X113934666Y-37522315D01*
X113729771Y-37659222D01*
X113729770Y-37659223D01*
X113729769Y-37659223D01*
X113502103Y-37753525D01*
X113260414Y-37801600D01*
X113013986Y-37801600D01*
X112772297Y-37753525D01*
X112544631Y-37659223D01*
X112544630Y-37659223D01*
X112544629Y-37659222D01*
X112339734Y-37522315D01*
X112165485Y-37348066D01*
X112028578Y-37143171D01*
X111934275Y-36915503D01*
X111886200Y-36673813D01*
X111886200Y-36427387D01*
X111934275Y-36185697D01*
X112028578Y-35958029D01*
X112165485Y-35753134D01*
X112339734Y-35578885D01*
X112544629Y-35441978D01*
X112772297Y-35347675D01*
X113013986Y-35299600D01*
X113260414Y-35299600D01*
X113502103Y-35347675D01*
G37*
G36*
X120502103Y-35347675D02*
G01*
X120729771Y-35441978D01*
X120934666Y-35578885D01*
X121108915Y-35753134D01*
X121245822Y-35958029D01*
X121340125Y-36185697D01*
X121388200Y-36427387D01*
X121388200Y-36673813D01*
X121340125Y-36915503D01*
X121245822Y-37143171D01*
X121108915Y-37348066D01*
X120934666Y-37522315D01*
X120729771Y-37659222D01*
X120729770Y-37659223D01*
X120729769Y-37659223D01*
X120502103Y-37753525D01*
X120260414Y-37801600D01*
X120013986Y-37801600D01*
X119772297Y-37753525D01*
X119544631Y-37659223D01*
X119544630Y-37659223D01*
X119544629Y-37659222D01*
X119339734Y-37522315D01*
X119165485Y-37348066D01*
X119028578Y-37143171D01*
X118934275Y-36915503D01*
X118886200Y-36673813D01*
X118886200Y-36427387D01*
X118934275Y-36185697D01*
X119028578Y-35958029D01*
X119165485Y-35753134D01*
X119339734Y-35578885D01*
X119544629Y-35441978D01*
X119772297Y-35347675D01*
X120013986Y-35299600D01*
X120260414Y-35299600D01*
X120502103Y-35347675D01*
G37*
G36*
X124002103Y-35347675D02*
G01*
X124229771Y-35441978D01*
X124434666Y-35578885D01*
X124608915Y-35753134D01*
X124745822Y-35958029D01*
X124840125Y-36185697D01*
X124888200Y-36427387D01*
X124888200Y-36673813D01*
X124840125Y-36915503D01*
X124745822Y-37143171D01*
X124608915Y-37348066D01*
X124434666Y-37522315D01*
X124229771Y-37659222D01*
X124229770Y-37659223D01*
X124229769Y-37659223D01*
X124002103Y-37753525D01*
X123760414Y-37801600D01*
X123513986Y-37801600D01*
X123272297Y-37753525D01*
X123044631Y-37659223D01*
X123044630Y-37659223D01*
X123044629Y-37659222D01*
X122839734Y-37522315D01*
X122665485Y-37348066D01*
X122528578Y-37143171D01*
X122434275Y-36915503D01*
X122386200Y-36673813D01*
X122386200Y-36427387D01*
X122434275Y-36185697D01*
X122528578Y-35958029D01*
X122665485Y-35753134D01*
X122839734Y-35578885D01*
X123044629Y-35441978D01*
X123272297Y-35347675D01*
X123513986Y-35299600D01*
X123760414Y-35299600D01*
X124002103Y-35347675D01*
G37*
G36*
X127502103Y-35347675D02*
G01*
X127729771Y-35441978D01*
X127934666Y-35578885D01*
X128108915Y-35753134D01*
X128245822Y-35958029D01*
X128340125Y-36185697D01*
X128388200Y-36427387D01*
X128388200Y-36673813D01*
X128340125Y-36915503D01*
X128245822Y-37143171D01*
X128108915Y-37348066D01*
X127934666Y-37522315D01*
X127729771Y-37659222D01*
X127729770Y-37659223D01*
X127729769Y-37659223D01*
X127502103Y-37753525D01*
X127260414Y-37801600D01*
X127013986Y-37801600D01*
X126772297Y-37753525D01*
X126544631Y-37659223D01*
X126544630Y-37659223D01*
X126544629Y-37659222D01*
X126339734Y-37522315D01*
X126165485Y-37348066D01*
X126028578Y-37143171D01*
X125934275Y-36915503D01*
X125886200Y-36673813D01*
X125886200Y-36427387D01*
X125934275Y-36185697D01*
X126028578Y-35958029D01*
X126165485Y-35753134D01*
X126339734Y-35578885D01*
X126544629Y-35441978D01*
X126772297Y-35347675D01*
X127013986Y-35299600D01*
X127260414Y-35299600D01*
X127502103Y-35347675D01*
G37*
G36*
X131002103Y-35347675D02*
G01*
X131229771Y-35441978D01*
X131434666Y-35578885D01*
X131608915Y-35753134D01*
X131745822Y-35958029D01*
X131840125Y-36185697D01*
X131888200Y-36427387D01*
X131888200Y-36673813D01*
X131840125Y-36915503D01*
X131745822Y-37143171D01*
X131608915Y-37348066D01*
X131434666Y-37522315D01*
X131229771Y-37659222D01*
X131229770Y-37659223D01*
X131229769Y-37659223D01*
X131002103Y-37753525D01*
X130760414Y-37801600D01*
X130513986Y-37801600D01*
X130272297Y-37753525D01*
X130044631Y-37659223D01*
X130044630Y-37659223D01*
X130044629Y-37659222D01*
X129839734Y-37522315D01*
X129665485Y-37348066D01*
X129528578Y-37143171D01*
X129434275Y-36915503D01*
X129386200Y-36673813D01*
X129386200Y-36427387D01*
X129434275Y-36185697D01*
X129528578Y-35958029D01*
X129665485Y-35753134D01*
X129839734Y-35578885D01*
X130044629Y-35441978D01*
X130272297Y-35347675D01*
X130513986Y-35299600D01*
X130760414Y-35299600D01*
X131002103Y-35347675D01*
G37*
G36*
X134502103Y-35347675D02*
G01*
X134729771Y-35441978D01*
X134934666Y-35578885D01*
X135108915Y-35753134D01*
X135245822Y-35958029D01*
X135340125Y-36185697D01*
X135388200Y-36427387D01*
X135388200Y-36673813D01*
X135340125Y-36915503D01*
X135245822Y-37143171D01*
X135108915Y-37348066D01*
X134934666Y-37522315D01*
X134729771Y-37659222D01*
X134729770Y-37659223D01*
X134729769Y-37659223D01*
X134502103Y-37753525D01*
X134260414Y-37801600D01*
X134013986Y-37801600D01*
X133772297Y-37753525D01*
X133544631Y-37659223D01*
X133544630Y-37659223D01*
X133544629Y-37659222D01*
X133339734Y-37522315D01*
X133165485Y-37348066D01*
X133028578Y-37143171D01*
X132934275Y-36915503D01*
X132886200Y-36673813D01*
X132886200Y-36427387D01*
X132934275Y-36185697D01*
X133028578Y-35958029D01*
X133165485Y-35753134D01*
X133339734Y-35578885D01*
X133544629Y-35441978D01*
X133772297Y-35347675D01*
X134013986Y-35299600D01*
X134260414Y-35299600D01*
X134502103Y-35347675D01*
G37*
G36*
X138002103Y-35347675D02*
G01*
X138229771Y-35441978D01*
X138434666Y-35578885D01*
X138608915Y-35753134D01*
X138745822Y-35958029D01*
X138840125Y-36185697D01*
X138888200Y-36427387D01*
X138888200Y-36673813D01*
X138840125Y-36915503D01*
X138745822Y-37143171D01*
X138608915Y-37348066D01*
X138434666Y-37522315D01*
X138229771Y-37659222D01*
X138229770Y-37659223D01*
X138229769Y-37659223D01*
X138002103Y-37753525D01*
X137760414Y-37801600D01*
X137513986Y-37801600D01*
X137272297Y-37753525D01*
X137044631Y-37659223D01*
X137044630Y-37659223D01*
X137044629Y-37659222D01*
X136839734Y-37522315D01*
X136665485Y-37348066D01*
X136528578Y-37143171D01*
X136434275Y-36915503D01*
X136386200Y-36673813D01*
X136386200Y-36427387D01*
X136434275Y-36185697D01*
X136528578Y-35958029D01*
X136665485Y-35753134D01*
X136839734Y-35578885D01*
X137044629Y-35441978D01*
X137272297Y-35347675D01*
X137513986Y-35299600D01*
X137760414Y-35299600D01*
X138002103Y-35347675D01*
G37*
G36*
X141502103Y-35347675D02*
G01*
X141729771Y-35441978D01*
X141934666Y-35578885D01*
X142108915Y-35753134D01*
X142245822Y-35958029D01*
X142340125Y-36185697D01*
X142388200Y-36427387D01*
X142388200Y-36673813D01*
X142340125Y-36915503D01*
X142245822Y-37143171D01*
X142108915Y-37348066D01*
X141934666Y-37522315D01*
X141729771Y-37659222D01*
X141729770Y-37659223D01*
X141729769Y-37659223D01*
X141502103Y-37753525D01*
X141260414Y-37801600D01*
X141013986Y-37801600D01*
X140772297Y-37753525D01*
X140544631Y-37659223D01*
X140544630Y-37659223D01*
X140544629Y-37659222D01*
X140339734Y-37522315D01*
X140165485Y-37348066D01*
X140028578Y-37143171D01*
X139934275Y-36915503D01*
X139886200Y-36673813D01*
X139886200Y-36427387D01*
X139934275Y-36185697D01*
X140028578Y-35958029D01*
X140165485Y-35753134D01*
X140339734Y-35578885D01*
X140544629Y-35441978D01*
X140772297Y-35347675D01*
X141013986Y-35299600D01*
X141260414Y-35299600D01*
X141502103Y-35347675D01*
G37*
G36*
X152002103Y-35347675D02*
G01*
X152229771Y-35441978D01*
X152434666Y-35578885D01*
X152608915Y-35753134D01*
X152745822Y-35958029D01*
X152840125Y-36185697D01*
X152888200Y-36427387D01*
X152888200Y-36673813D01*
X152840125Y-36915503D01*
X152745822Y-37143171D01*
X152608915Y-37348066D01*
X152434666Y-37522315D01*
X152229771Y-37659222D01*
X152229770Y-37659223D01*
X152229769Y-37659223D01*
X152002103Y-37753525D01*
X151760414Y-37801600D01*
X151513986Y-37801600D01*
X151272297Y-37753525D01*
X151044631Y-37659223D01*
X151044630Y-37659223D01*
X151044629Y-37659222D01*
X150839734Y-37522315D01*
X150665485Y-37348066D01*
X150528578Y-37143171D01*
X150434275Y-36915503D01*
X150386200Y-36673813D01*
X150386200Y-36427387D01*
X150434275Y-36185697D01*
X150528578Y-35958029D01*
X150665485Y-35753134D01*
X150839734Y-35578885D01*
X151044629Y-35441978D01*
X151272297Y-35347675D01*
X151513986Y-35299600D01*
X151760414Y-35299600D01*
X152002103Y-35347675D01*
G37*
G36*
X103002103Y-35347675D02*
G01*
X103229771Y-35441978D01*
X103434666Y-35578885D01*
X103608915Y-35753134D01*
X103745822Y-35958029D01*
X103840125Y-36185697D01*
X103888200Y-36427387D01*
X103888200Y-36673813D01*
X103840125Y-36915503D01*
X103745822Y-37143171D01*
X103608915Y-37348066D01*
X103434666Y-37522315D01*
X103229771Y-37659222D01*
X103229770Y-37659223D01*
X103229769Y-37659223D01*
X103002103Y-37753525D01*
X102760414Y-37801600D01*
X102513986Y-37801600D01*
X102272297Y-37753525D01*
X102044631Y-37659223D01*
X102044630Y-37659223D01*
X102044629Y-37659222D01*
X101839734Y-37522315D01*
X101665485Y-37348066D01*
X101528578Y-37143171D01*
X101434275Y-36915503D01*
X101386200Y-36673813D01*
X101386200Y-36427387D01*
X101434275Y-36185697D01*
X101528578Y-35958029D01*
X101665485Y-35753134D01*
X101839734Y-35578885D01*
X102044629Y-35441978D01*
X102272297Y-35347675D01*
X102513986Y-35299600D01*
X102760414Y-35299600D01*
X103002103Y-35347675D01*
G37*
G36*
X148502103Y-35347675D02*
G01*
X148729771Y-35441978D01*
X148934666Y-35578885D01*
X149108915Y-35753134D01*
X149245822Y-35958029D01*
X149340125Y-36185697D01*
X149388200Y-36427387D01*
X149388200Y-36673813D01*
X149340125Y-36915503D01*
X149245822Y-37143171D01*
X149108915Y-37348066D01*
X148934666Y-37522315D01*
X148729771Y-37659222D01*
X148729770Y-37659223D01*
X148729769Y-37659223D01*
X148502103Y-37753525D01*
X148260414Y-37801600D01*
X148013986Y-37801600D01*
X147772297Y-37753525D01*
X147544631Y-37659223D01*
X147544630Y-37659223D01*
X147544629Y-37659222D01*
X147339734Y-37522315D01*
X147165485Y-37348066D01*
X147028578Y-37143171D01*
X146934275Y-36915503D01*
X146886200Y-36673813D01*
X146886200Y-36427387D01*
X146934275Y-36185697D01*
X147028578Y-35958029D01*
X147165485Y-35753134D01*
X147339734Y-35578885D01*
X147544629Y-35441978D01*
X147772297Y-35347675D01*
X148013986Y-35299600D01*
X148260414Y-35299600D01*
X148502103Y-35347675D01*
G37*
M02*
