G04 #@! TF.GenerationSoftware,KiCad,Pcbnew,5.1.5+dfsg1-2build2*
G04 #@! TF.CreationDate,2021-09-29T17:25:42-05:00*
G04 #@! TF.ProjectId,C13,4331332e-6b69-4636-9164-5f7063625858,rev?*
G04 #@! TF.SameCoordinates,Original*
G04 #@! TF.FileFunction,Copper,L1,Top*
G04 #@! TF.FilePolarity,Positive*
%FSLAX46Y46*%
G04 Gerber Fmt 4.6, Leading zero omitted, Abs format (unit mm)*
G04 Created by KiCad (PCBNEW 5.1.5+dfsg1-2build2) date 2021-09-29 17:25:42*
%MOMM*%
%LPD*%
G04 APERTURE LIST*
%ADD10C,2.400000*%
%ADD11R,2.400000X2.400000*%
%ADD12C,2.499360*%
%ADD13O,1.700000X1.700000*%
%ADD14R,1.700000X1.700000*%
%ADD15C,0.750000*%
%ADD16C,0.254000*%
G04 APERTURE END LIST*
D10*
X30130000Y-24757000D03*
X33630000Y-24757000D03*
X37130000Y-24757000D03*
X40630000Y-24757000D03*
X44130000Y-24757000D03*
X47630000Y-24757000D03*
X51130000Y-24757000D03*
X54630000Y-24757000D03*
D11*
X58130000Y-24757000D03*
D10*
X58130000Y-43188000D03*
X54630000Y-43188000D03*
X51130000Y-43188000D03*
X47630000Y-43188000D03*
X44130000Y-43188000D03*
X40630000Y-43188000D03*
X37130000Y-43188000D03*
X33630000Y-43188000D03*
D11*
X30130000Y-43188000D03*
D12*
X23810000Y-33970000D03*
D13*
X33970000Y-32700000D03*
X33970000Y-35240000D03*
X36510000Y-32700000D03*
X36510000Y-35240000D03*
X39050000Y-32700000D03*
X39050000Y-35240000D03*
X41590000Y-32700000D03*
X41590000Y-35240000D03*
X44130000Y-32700000D03*
X44130000Y-35240000D03*
X46670000Y-32700000D03*
X46670000Y-35240000D03*
X49210000Y-32700000D03*
X49210000Y-35240000D03*
X51750000Y-32700000D03*
X51750000Y-35240000D03*
X54290000Y-32700000D03*
D14*
X54290000Y-35240000D03*
D12*
X64450000Y-33970000D03*
D15*
X55890000Y-35240000D02*
X54290000Y-35240000D01*
X58130000Y-37480000D02*
X55890000Y-35240000D01*
X58130000Y-43188000D02*
X58130000Y-37480000D01*
X54630000Y-38120000D02*
X51750000Y-35240000D01*
X54630000Y-43188000D02*
X54630000Y-38120000D01*
X51130000Y-37160000D02*
X49210000Y-35240000D01*
X51130000Y-43188000D02*
X51130000Y-37160000D01*
X47630000Y-36200000D02*
X46670000Y-35240000D01*
X47630000Y-43188000D02*
X47630000Y-36200000D01*
X44130000Y-43188000D02*
X44130000Y-35240000D01*
X40630000Y-36200000D02*
X41590000Y-35240000D01*
X40630000Y-43188000D02*
X40630000Y-36200000D01*
X37130000Y-37160000D02*
X39050000Y-35240000D01*
X37130000Y-43188000D02*
X37130000Y-37160000D01*
X33630000Y-38120000D02*
X36510000Y-35240000D01*
X33630000Y-43188000D02*
X33630000Y-38120000D01*
X30130000Y-39080000D02*
X30130000Y-43188000D01*
X33970000Y-35240000D02*
X30130000Y-39080000D01*
X30130000Y-28860000D02*
X33970000Y-32700000D01*
X30130000Y-24757000D02*
X30130000Y-28860000D01*
X33630000Y-29820000D02*
X36510000Y-32700000D01*
X33630000Y-24757000D02*
X33630000Y-29820000D01*
X37130000Y-30780000D02*
X39050000Y-32700000D01*
X37130000Y-24757000D02*
X37130000Y-30780000D01*
X40630000Y-31740000D02*
X41590000Y-32700000D01*
X40630000Y-24757000D02*
X40630000Y-31740000D01*
X44130000Y-24757000D02*
X44130000Y-32700000D01*
X47630000Y-31740000D02*
X46670000Y-32700000D01*
X47630000Y-24757000D02*
X47630000Y-31740000D01*
X51130000Y-30780000D02*
X49210000Y-32700000D01*
X51130000Y-24757000D02*
X51130000Y-30780000D01*
X54630000Y-29820000D02*
X51750000Y-32700000D01*
X54630000Y-24757000D02*
X54630000Y-29820000D01*
X58130000Y-28860000D02*
X54290000Y-32700000D01*
X58130000Y-24757000D02*
X58130000Y-28860000D01*
D16*
G36*
X67600001Y-47280000D02*
G01*
X20660000Y-47280000D01*
X20660000Y-43919721D01*
X21675000Y-43919721D01*
X21675000Y-44340279D01*
X21757047Y-44752756D01*
X21917988Y-45141302D01*
X22151637Y-45490983D01*
X22449017Y-45788363D01*
X22798698Y-46022012D01*
X23187244Y-46182953D01*
X23599721Y-46265000D01*
X24020279Y-46265000D01*
X24432756Y-46182953D01*
X24821302Y-46022012D01*
X25170983Y-45788363D01*
X25468363Y-45490983D01*
X25702012Y-45141302D01*
X25862953Y-44752756D01*
X25945000Y-44340279D01*
X25945000Y-43919721D01*
X25862953Y-43507244D01*
X25702012Y-43118698D01*
X25468363Y-42769017D01*
X25170983Y-42471637D01*
X24821302Y-42237988D01*
X24432756Y-42077047D01*
X24020279Y-41995000D01*
X23599721Y-41995000D01*
X23187244Y-42077047D01*
X22798698Y-42237988D01*
X22449017Y-42471637D01*
X22151637Y-42769017D01*
X21917988Y-43118698D01*
X21757047Y-43507244D01*
X21675000Y-43919721D01*
X20660000Y-43919721D01*
X20660000Y-41988000D01*
X28291928Y-41988000D01*
X28291928Y-44388000D01*
X28304188Y-44512482D01*
X28340498Y-44632180D01*
X28399463Y-44742494D01*
X28478815Y-44839185D01*
X28575506Y-44918537D01*
X28685820Y-44977502D01*
X28805518Y-45013812D01*
X28930000Y-45026072D01*
X31330000Y-45026072D01*
X31454482Y-45013812D01*
X31574180Y-44977502D01*
X31684494Y-44918537D01*
X31781185Y-44839185D01*
X31860537Y-44742494D01*
X31919502Y-44632180D01*
X31955812Y-44512482D01*
X31968072Y-44388000D01*
X31968072Y-43970838D01*
X32003844Y-44057199D01*
X32204662Y-44357744D01*
X32460256Y-44613338D01*
X32760801Y-44814156D01*
X33094750Y-44952482D01*
X33449268Y-45023000D01*
X33810732Y-45023000D01*
X34165250Y-44952482D01*
X34499199Y-44814156D01*
X34799744Y-44613338D01*
X35055338Y-44357744D01*
X35256156Y-44057199D01*
X35380000Y-43758213D01*
X35503844Y-44057199D01*
X35704662Y-44357744D01*
X35960256Y-44613338D01*
X36260801Y-44814156D01*
X36594750Y-44952482D01*
X36949268Y-45023000D01*
X37310732Y-45023000D01*
X37665250Y-44952482D01*
X37999199Y-44814156D01*
X38299744Y-44613338D01*
X38555338Y-44357744D01*
X38756156Y-44057199D01*
X38880000Y-43758213D01*
X39003844Y-44057199D01*
X39204662Y-44357744D01*
X39460256Y-44613338D01*
X39760801Y-44814156D01*
X40094750Y-44952482D01*
X40449268Y-45023000D01*
X40810732Y-45023000D01*
X41165250Y-44952482D01*
X41499199Y-44814156D01*
X41799744Y-44613338D01*
X42055338Y-44357744D01*
X42256156Y-44057199D01*
X42380000Y-43758213D01*
X42503844Y-44057199D01*
X42704662Y-44357744D01*
X42960256Y-44613338D01*
X43260801Y-44814156D01*
X43594750Y-44952482D01*
X43949268Y-45023000D01*
X44310732Y-45023000D01*
X44665250Y-44952482D01*
X44999199Y-44814156D01*
X45299744Y-44613338D01*
X45555338Y-44357744D01*
X45756156Y-44057199D01*
X45880000Y-43758213D01*
X46003844Y-44057199D01*
X46204662Y-44357744D01*
X46460256Y-44613338D01*
X46760801Y-44814156D01*
X47094750Y-44952482D01*
X47449268Y-45023000D01*
X47810732Y-45023000D01*
X48165250Y-44952482D01*
X48499199Y-44814156D01*
X48799744Y-44613338D01*
X49055338Y-44357744D01*
X49256156Y-44057199D01*
X49380000Y-43758213D01*
X49503844Y-44057199D01*
X49704662Y-44357744D01*
X49960256Y-44613338D01*
X50260801Y-44814156D01*
X50594750Y-44952482D01*
X50949268Y-45023000D01*
X51310732Y-45023000D01*
X51665250Y-44952482D01*
X51999199Y-44814156D01*
X52299744Y-44613338D01*
X52555338Y-44357744D01*
X52756156Y-44057199D01*
X52880000Y-43758213D01*
X53003844Y-44057199D01*
X53204662Y-44357744D01*
X53460256Y-44613338D01*
X53760801Y-44814156D01*
X54094750Y-44952482D01*
X54449268Y-45023000D01*
X54810732Y-45023000D01*
X55165250Y-44952482D01*
X55499199Y-44814156D01*
X55799744Y-44613338D01*
X56055338Y-44357744D01*
X56256156Y-44057199D01*
X56380000Y-43758213D01*
X56503844Y-44057199D01*
X56704662Y-44357744D01*
X56960256Y-44613338D01*
X57260801Y-44814156D01*
X57594750Y-44952482D01*
X57949268Y-45023000D01*
X58310732Y-45023000D01*
X58665250Y-44952482D01*
X58999199Y-44814156D01*
X59299744Y-44613338D01*
X59555338Y-44357744D01*
X59756156Y-44057199D01*
X59813101Y-43919721D01*
X62315000Y-43919721D01*
X62315000Y-44340279D01*
X62397047Y-44752756D01*
X62557988Y-45141302D01*
X62791637Y-45490983D01*
X63089017Y-45788363D01*
X63438698Y-46022012D01*
X63827244Y-46182953D01*
X64239721Y-46265000D01*
X64660279Y-46265000D01*
X65072756Y-46182953D01*
X65461302Y-46022012D01*
X65810983Y-45788363D01*
X66108363Y-45490983D01*
X66342012Y-45141302D01*
X66502953Y-44752756D01*
X66585000Y-44340279D01*
X66585000Y-43919721D01*
X66502953Y-43507244D01*
X66342012Y-43118698D01*
X66108363Y-42769017D01*
X65810983Y-42471637D01*
X65461302Y-42237988D01*
X65072756Y-42077047D01*
X64660279Y-41995000D01*
X64239721Y-41995000D01*
X63827244Y-42077047D01*
X63438698Y-42237988D01*
X63089017Y-42471637D01*
X62791637Y-42769017D01*
X62557988Y-43118698D01*
X62397047Y-43507244D01*
X62315000Y-43919721D01*
X59813101Y-43919721D01*
X59894482Y-43723250D01*
X59965000Y-43368732D01*
X59965000Y-43007268D01*
X59894482Y-42652750D01*
X59756156Y-42318801D01*
X59555338Y-42018256D01*
X59299744Y-41762662D01*
X59140000Y-41655924D01*
X59140000Y-37529604D01*
X59144886Y-37479999D01*
X59140000Y-37430392D01*
X59125385Y-37282006D01*
X59067632Y-37091620D01*
X58973847Y-36916160D01*
X58847633Y-36762367D01*
X58809094Y-36730739D01*
X57361732Y-35283377D01*
X63316229Y-35283377D01*
X63442104Y-35573315D01*
X63774262Y-35739139D01*
X64132387Y-35836975D01*
X64502719Y-35863065D01*
X64871025Y-35816405D01*
X65223151Y-35698789D01*
X65457896Y-35573315D01*
X65583771Y-35283377D01*
X64450000Y-34149605D01*
X63316229Y-35283377D01*
X57361732Y-35283377D01*
X56639261Y-34560906D01*
X56607633Y-34522367D01*
X56453840Y-34396153D01*
X56278380Y-34302368D01*
X56087994Y-34244615D01*
X55939608Y-34230000D01*
X55890000Y-34225114D01*
X55840392Y-34230000D01*
X55755038Y-34230000D01*
X55729502Y-34145820D01*
X55670537Y-34035506D01*
X55660044Y-34022719D01*
X62556935Y-34022719D01*
X62603595Y-34391025D01*
X62721211Y-34743151D01*
X62846685Y-34977896D01*
X63136623Y-35103771D01*
X64270395Y-33970000D01*
X64629605Y-33970000D01*
X65763377Y-35103771D01*
X66053315Y-34977896D01*
X66219139Y-34645738D01*
X66316975Y-34287613D01*
X66343065Y-33917281D01*
X66296405Y-33548975D01*
X66178789Y-33196849D01*
X66053315Y-32962104D01*
X65763377Y-32836229D01*
X64629605Y-33970000D01*
X64270395Y-33970000D01*
X63136623Y-32836229D01*
X62846685Y-32962104D01*
X62680861Y-33294262D01*
X62583025Y-33652387D01*
X62556935Y-34022719D01*
X55660044Y-34022719D01*
X55591185Y-33938815D01*
X55494494Y-33859463D01*
X55384180Y-33800498D01*
X55311620Y-33778487D01*
X55443475Y-33646632D01*
X55605990Y-33403411D01*
X55717932Y-33133158D01*
X55775000Y-32846260D01*
X55775000Y-32656623D01*
X63316229Y-32656623D01*
X64450000Y-33790395D01*
X65583771Y-32656623D01*
X65457896Y-32366685D01*
X65125738Y-32200861D01*
X64767613Y-32103025D01*
X64397281Y-32076935D01*
X64028975Y-32123595D01*
X63676849Y-32241211D01*
X63442104Y-32366685D01*
X63316229Y-32656623D01*
X55775000Y-32656623D01*
X55775000Y-32643355D01*
X58809094Y-29609261D01*
X58847633Y-29577633D01*
X58973847Y-29423840D01*
X59067632Y-29248380D01*
X59125385Y-29057994D01*
X59140000Y-28909608D01*
X59140000Y-28909606D01*
X59144886Y-28860001D01*
X59140000Y-28810396D01*
X59140000Y-26595072D01*
X59330000Y-26595072D01*
X59454482Y-26582812D01*
X59574180Y-26546502D01*
X59684494Y-26487537D01*
X59781185Y-26408185D01*
X59860537Y-26311494D01*
X59919502Y-26201180D01*
X59955812Y-26081482D01*
X59968072Y-25957000D01*
X59968072Y-23599721D01*
X62315000Y-23599721D01*
X62315000Y-24020279D01*
X62397047Y-24432756D01*
X62557988Y-24821302D01*
X62791637Y-25170983D01*
X63089017Y-25468363D01*
X63438698Y-25702012D01*
X63827244Y-25862953D01*
X64239721Y-25945000D01*
X64660279Y-25945000D01*
X65072756Y-25862953D01*
X65461302Y-25702012D01*
X65810983Y-25468363D01*
X66108363Y-25170983D01*
X66342012Y-24821302D01*
X66502953Y-24432756D01*
X66585000Y-24020279D01*
X66585000Y-23599721D01*
X66502953Y-23187244D01*
X66342012Y-22798698D01*
X66108363Y-22449017D01*
X65810983Y-22151637D01*
X65461302Y-21917988D01*
X65072756Y-21757047D01*
X64660279Y-21675000D01*
X64239721Y-21675000D01*
X63827244Y-21757047D01*
X63438698Y-21917988D01*
X63089017Y-22151637D01*
X62791637Y-22449017D01*
X62557988Y-22798698D01*
X62397047Y-23187244D01*
X62315000Y-23599721D01*
X59968072Y-23599721D01*
X59968072Y-23557000D01*
X59955812Y-23432518D01*
X59919502Y-23312820D01*
X59860537Y-23202506D01*
X59781185Y-23105815D01*
X59684494Y-23026463D01*
X59574180Y-22967498D01*
X59454482Y-22931188D01*
X59330000Y-22918928D01*
X56930000Y-22918928D01*
X56805518Y-22931188D01*
X56685820Y-22967498D01*
X56575506Y-23026463D01*
X56478815Y-23105815D01*
X56399463Y-23202506D01*
X56340498Y-23312820D01*
X56304188Y-23432518D01*
X56291928Y-23557000D01*
X56291928Y-23974162D01*
X56256156Y-23887801D01*
X56055338Y-23587256D01*
X55799744Y-23331662D01*
X55499199Y-23130844D01*
X55165250Y-22992518D01*
X54810732Y-22922000D01*
X54449268Y-22922000D01*
X54094750Y-22992518D01*
X53760801Y-23130844D01*
X53460256Y-23331662D01*
X53204662Y-23587256D01*
X53003844Y-23887801D01*
X52880000Y-24186787D01*
X52756156Y-23887801D01*
X52555338Y-23587256D01*
X52299744Y-23331662D01*
X51999199Y-23130844D01*
X51665250Y-22992518D01*
X51310732Y-22922000D01*
X50949268Y-22922000D01*
X50594750Y-22992518D01*
X50260801Y-23130844D01*
X49960256Y-23331662D01*
X49704662Y-23587256D01*
X49503844Y-23887801D01*
X49380000Y-24186787D01*
X49256156Y-23887801D01*
X49055338Y-23587256D01*
X48799744Y-23331662D01*
X48499199Y-23130844D01*
X48165250Y-22992518D01*
X47810732Y-22922000D01*
X47449268Y-22922000D01*
X47094750Y-22992518D01*
X46760801Y-23130844D01*
X46460256Y-23331662D01*
X46204662Y-23587256D01*
X46003844Y-23887801D01*
X45880000Y-24186787D01*
X45756156Y-23887801D01*
X45555338Y-23587256D01*
X45299744Y-23331662D01*
X44999199Y-23130844D01*
X44665250Y-22992518D01*
X44310732Y-22922000D01*
X43949268Y-22922000D01*
X43594750Y-22992518D01*
X43260801Y-23130844D01*
X42960256Y-23331662D01*
X42704662Y-23587256D01*
X42503844Y-23887801D01*
X42380000Y-24186787D01*
X42256156Y-23887801D01*
X42055338Y-23587256D01*
X41799744Y-23331662D01*
X41499199Y-23130844D01*
X41165250Y-22992518D01*
X40810732Y-22922000D01*
X40449268Y-22922000D01*
X40094750Y-22992518D01*
X39760801Y-23130844D01*
X39460256Y-23331662D01*
X39204662Y-23587256D01*
X39003844Y-23887801D01*
X38880000Y-24186787D01*
X38756156Y-23887801D01*
X38555338Y-23587256D01*
X38299744Y-23331662D01*
X37999199Y-23130844D01*
X37665250Y-22992518D01*
X37310732Y-22922000D01*
X36949268Y-22922000D01*
X36594750Y-22992518D01*
X36260801Y-23130844D01*
X35960256Y-23331662D01*
X35704662Y-23587256D01*
X35503844Y-23887801D01*
X35380000Y-24186787D01*
X35256156Y-23887801D01*
X35055338Y-23587256D01*
X34799744Y-23331662D01*
X34499199Y-23130844D01*
X34165250Y-22992518D01*
X33810732Y-22922000D01*
X33449268Y-22922000D01*
X33094750Y-22992518D01*
X32760801Y-23130844D01*
X32460256Y-23331662D01*
X32204662Y-23587256D01*
X32003844Y-23887801D01*
X31880000Y-24186787D01*
X31756156Y-23887801D01*
X31555338Y-23587256D01*
X31299744Y-23331662D01*
X30999199Y-23130844D01*
X30665250Y-22992518D01*
X30310732Y-22922000D01*
X29949268Y-22922000D01*
X29594750Y-22992518D01*
X29260801Y-23130844D01*
X28960256Y-23331662D01*
X28704662Y-23587256D01*
X28503844Y-23887801D01*
X28365518Y-24221750D01*
X28295000Y-24576268D01*
X28295000Y-24937732D01*
X28365518Y-25292250D01*
X28503844Y-25626199D01*
X28704662Y-25926744D01*
X28960256Y-26182338D01*
X29120000Y-26289076D01*
X29120001Y-28810382D01*
X29115114Y-28860000D01*
X29134615Y-29057994D01*
X29192368Y-29248379D01*
X29192369Y-29248380D01*
X29286154Y-29423840D01*
X29412368Y-29577633D01*
X29450901Y-29609256D01*
X32485000Y-32643355D01*
X32485000Y-32846260D01*
X32542068Y-33133158D01*
X32654010Y-33403411D01*
X32816525Y-33646632D01*
X33023368Y-33853475D01*
X33197760Y-33970000D01*
X33023368Y-34086525D01*
X32816525Y-34293368D01*
X32654010Y-34536589D01*
X32542068Y-34806842D01*
X32485000Y-35093740D01*
X32485000Y-35296645D01*
X29450906Y-38330739D01*
X29412367Y-38362367D01*
X29286153Y-38516160D01*
X29196527Y-38683840D01*
X29192368Y-38691621D01*
X29134615Y-38882006D01*
X29115114Y-39080000D01*
X29120000Y-39129608D01*
X29120001Y-41349928D01*
X28930000Y-41349928D01*
X28805518Y-41362188D01*
X28685820Y-41398498D01*
X28575506Y-41457463D01*
X28478815Y-41536815D01*
X28399463Y-41633506D01*
X28340498Y-41743820D01*
X28304188Y-41863518D01*
X28291928Y-41988000D01*
X20660000Y-41988000D01*
X20660000Y-35283377D01*
X22676229Y-35283377D01*
X22802104Y-35573315D01*
X23134262Y-35739139D01*
X23492387Y-35836975D01*
X23862719Y-35863065D01*
X24231025Y-35816405D01*
X24583151Y-35698789D01*
X24817896Y-35573315D01*
X24943771Y-35283377D01*
X23810000Y-34149605D01*
X22676229Y-35283377D01*
X20660000Y-35283377D01*
X20660000Y-34022719D01*
X21916935Y-34022719D01*
X21963595Y-34391025D01*
X22081211Y-34743151D01*
X22206685Y-34977896D01*
X22496623Y-35103771D01*
X23630395Y-33970000D01*
X23989605Y-33970000D01*
X25123377Y-35103771D01*
X25413315Y-34977896D01*
X25579139Y-34645738D01*
X25676975Y-34287613D01*
X25703065Y-33917281D01*
X25656405Y-33548975D01*
X25538789Y-33196849D01*
X25413315Y-32962104D01*
X25123377Y-32836229D01*
X23989605Y-33970000D01*
X23630395Y-33970000D01*
X22496623Y-32836229D01*
X22206685Y-32962104D01*
X22040861Y-33294262D01*
X21943025Y-33652387D01*
X21916935Y-34022719D01*
X20660000Y-34022719D01*
X20660000Y-32656623D01*
X22676229Y-32656623D01*
X23810000Y-33790395D01*
X24943771Y-32656623D01*
X24817896Y-32366685D01*
X24485738Y-32200861D01*
X24127613Y-32103025D01*
X23757281Y-32076935D01*
X23388975Y-32123595D01*
X23036849Y-32241211D01*
X22802104Y-32366685D01*
X22676229Y-32656623D01*
X20660000Y-32656623D01*
X20660000Y-23599721D01*
X21675000Y-23599721D01*
X21675000Y-24020279D01*
X21757047Y-24432756D01*
X21917988Y-24821302D01*
X22151637Y-25170983D01*
X22449017Y-25468363D01*
X22798698Y-25702012D01*
X23187244Y-25862953D01*
X23599721Y-25945000D01*
X24020279Y-25945000D01*
X24432756Y-25862953D01*
X24821302Y-25702012D01*
X25170983Y-25468363D01*
X25468363Y-25170983D01*
X25702012Y-24821302D01*
X25862953Y-24432756D01*
X25945000Y-24020279D01*
X25945000Y-23599721D01*
X25862953Y-23187244D01*
X25702012Y-22798698D01*
X25468363Y-22449017D01*
X25170983Y-22151637D01*
X24821302Y-21917988D01*
X24432756Y-21757047D01*
X24020279Y-21675000D01*
X23599721Y-21675000D01*
X23187244Y-21757047D01*
X22798698Y-21917988D01*
X22449017Y-22151637D01*
X22151637Y-22449017D01*
X21917988Y-22798698D01*
X21757047Y-23187244D01*
X21675000Y-23599721D01*
X20660000Y-23599721D01*
X20660000Y-20660000D01*
X67600000Y-20660000D01*
X67600001Y-47280000D01*
G37*
X67600001Y-47280000D02*
X20660000Y-47280000D01*
X20660000Y-43919721D01*
X21675000Y-43919721D01*
X21675000Y-44340279D01*
X21757047Y-44752756D01*
X21917988Y-45141302D01*
X22151637Y-45490983D01*
X22449017Y-45788363D01*
X22798698Y-46022012D01*
X23187244Y-46182953D01*
X23599721Y-46265000D01*
X24020279Y-46265000D01*
X24432756Y-46182953D01*
X24821302Y-46022012D01*
X25170983Y-45788363D01*
X25468363Y-45490983D01*
X25702012Y-45141302D01*
X25862953Y-44752756D01*
X25945000Y-44340279D01*
X25945000Y-43919721D01*
X25862953Y-43507244D01*
X25702012Y-43118698D01*
X25468363Y-42769017D01*
X25170983Y-42471637D01*
X24821302Y-42237988D01*
X24432756Y-42077047D01*
X24020279Y-41995000D01*
X23599721Y-41995000D01*
X23187244Y-42077047D01*
X22798698Y-42237988D01*
X22449017Y-42471637D01*
X22151637Y-42769017D01*
X21917988Y-43118698D01*
X21757047Y-43507244D01*
X21675000Y-43919721D01*
X20660000Y-43919721D01*
X20660000Y-41988000D01*
X28291928Y-41988000D01*
X28291928Y-44388000D01*
X28304188Y-44512482D01*
X28340498Y-44632180D01*
X28399463Y-44742494D01*
X28478815Y-44839185D01*
X28575506Y-44918537D01*
X28685820Y-44977502D01*
X28805518Y-45013812D01*
X28930000Y-45026072D01*
X31330000Y-45026072D01*
X31454482Y-45013812D01*
X31574180Y-44977502D01*
X31684494Y-44918537D01*
X31781185Y-44839185D01*
X31860537Y-44742494D01*
X31919502Y-44632180D01*
X31955812Y-44512482D01*
X31968072Y-44388000D01*
X31968072Y-43970838D01*
X32003844Y-44057199D01*
X32204662Y-44357744D01*
X32460256Y-44613338D01*
X32760801Y-44814156D01*
X33094750Y-44952482D01*
X33449268Y-45023000D01*
X33810732Y-45023000D01*
X34165250Y-44952482D01*
X34499199Y-44814156D01*
X34799744Y-44613338D01*
X35055338Y-44357744D01*
X35256156Y-44057199D01*
X35380000Y-43758213D01*
X35503844Y-44057199D01*
X35704662Y-44357744D01*
X35960256Y-44613338D01*
X36260801Y-44814156D01*
X36594750Y-44952482D01*
X36949268Y-45023000D01*
X37310732Y-45023000D01*
X37665250Y-44952482D01*
X37999199Y-44814156D01*
X38299744Y-44613338D01*
X38555338Y-44357744D01*
X38756156Y-44057199D01*
X38880000Y-43758213D01*
X39003844Y-44057199D01*
X39204662Y-44357744D01*
X39460256Y-44613338D01*
X39760801Y-44814156D01*
X40094750Y-44952482D01*
X40449268Y-45023000D01*
X40810732Y-45023000D01*
X41165250Y-44952482D01*
X41499199Y-44814156D01*
X41799744Y-44613338D01*
X42055338Y-44357744D01*
X42256156Y-44057199D01*
X42380000Y-43758213D01*
X42503844Y-44057199D01*
X42704662Y-44357744D01*
X42960256Y-44613338D01*
X43260801Y-44814156D01*
X43594750Y-44952482D01*
X43949268Y-45023000D01*
X44310732Y-45023000D01*
X44665250Y-44952482D01*
X44999199Y-44814156D01*
X45299744Y-44613338D01*
X45555338Y-44357744D01*
X45756156Y-44057199D01*
X45880000Y-43758213D01*
X46003844Y-44057199D01*
X46204662Y-44357744D01*
X46460256Y-44613338D01*
X46760801Y-44814156D01*
X47094750Y-44952482D01*
X47449268Y-45023000D01*
X47810732Y-45023000D01*
X48165250Y-44952482D01*
X48499199Y-44814156D01*
X48799744Y-44613338D01*
X49055338Y-44357744D01*
X49256156Y-44057199D01*
X49380000Y-43758213D01*
X49503844Y-44057199D01*
X49704662Y-44357744D01*
X49960256Y-44613338D01*
X50260801Y-44814156D01*
X50594750Y-44952482D01*
X50949268Y-45023000D01*
X51310732Y-45023000D01*
X51665250Y-44952482D01*
X51999199Y-44814156D01*
X52299744Y-44613338D01*
X52555338Y-44357744D01*
X52756156Y-44057199D01*
X52880000Y-43758213D01*
X53003844Y-44057199D01*
X53204662Y-44357744D01*
X53460256Y-44613338D01*
X53760801Y-44814156D01*
X54094750Y-44952482D01*
X54449268Y-45023000D01*
X54810732Y-45023000D01*
X55165250Y-44952482D01*
X55499199Y-44814156D01*
X55799744Y-44613338D01*
X56055338Y-44357744D01*
X56256156Y-44057199D01*
X56380000Y-43758213D01*
X56503844Y-44057199D01*
X56704662Y-44357744D01*
X56960256Y-44613338D01*
X57260801Y-44814156D01*
X57594750Y-44952482D01*
X57949268Y-45023000D01*
X58310732Y-45023000D01*
X58665250Y-44952482D01*
X58999199Y-44814156D01*
X59299744Y-44613338D01*
X59555338Y-44357744D01*
X59756156Y-44057199D01*
X59813101Y-43919721D01*
X62315000Y-43919721D01*
X62315000Y-44340279D01*
X62397047Y-44752756D01*
X62557988Y-45141302D01*
X62791637Y-45490983D01*
X63089017Y-45788363D01*
X63438698Y-46022012D01*
X63827244Y-46182953D01*
X64239721Y-46265000D01*
X64660279Y-46265000D01*
X65072756Y-46182953D01*
X65461302Y-46022012D01*
X65810983Y-45788363D01*
X66108363Y-45490983D01*
X66342012Y-45141302D01*
X66502953Y-44752756D01*
X66585000Y-44340279D01*
X66585000Y-43919721D01*
X66502953Y-43507244D01*
X66342012Y-43118698D01*
X66108363Y-42769017D01*
X65810983Y-42471637D01*
X65461302Y-42237988D01*
X65072756Y-42077047D01*
X64660279Y-41995000D01*
X64239721Y-41995000D01*
X63827244Y-42077047D01*
X63438698Y-42237988D01*
X63089017Y-42471637D01*
X62791637Y-42769017D01*
X62557988Y-43118698D01*
X62397047Y-43507244D01*
X62315000Y-43919721D01*
X59813101Y-43919721D01*
X59894482Y-43723250D01*
X59965000Y-43368732D01*
X59965000Y-43007268D01*
X59894482Y-42652750D01*
X59756156Y-42318801D01*
X59555338Y-42018256D01*
X59299744Y-41762662D01*
X59140000Y-41655924D01*
X59140000Y-37529604D01*
X59144886Y-37479999D01*
X59140000Y-37430392D01*
X59125385Y-37282006D01*
X59067632Y-37091620D01*
X58973847Y-36916160D01*
X58847633Y-36762367D01*
X58809094Y-36730739D01*
X57361732Y-35283377D01*
X63316229Y-35283377D01*
X63442104Y-35573315D01*
X63774262Y-35739139D01*
X64132387Y-35836975D01*
X64502719Y-35863065D01*
X64871025Y-35816405D01*
X65223151Y-35698789D01*
X65457896Y-35573315D01*
X65583771Y-35283377D01*
X64450000Y-34149605D01*
X63316229Y-35283377D01*
X57361732Y-35283377D01*
X56639261Y-34560906D01*
X56607633Y-34522367D01*
X56453840Y-34396153D01*
X56278380Y-34302368D01*
X56087994Y-34244615D01*
X55939608Y-34230000D01*
X55890000Y-34225114D01*
X55840392Y-34230000D01*
X55755038Y-34230000D01*
X55729502Y-34145820D01*
X55670537Y-34035506D01*
X55660044Y-34022719D01*
X62556935Y-34022719D01*
X62603595Y-34391025D01*
X62721211Y-34743151D01*
X62846685Y-34977896D01*
X63136623Y-35103771D01*
X64270395Y-33970000D01*
X64629605Y-33970000D01*
X65763377Y-35103771D01*
X66053315Y-34977896D01*
X66219139Y-34645738D01*
X66316975Y-34287613D01*
X66343065Y-33917281D01*
X66296405Y-33548975D01*
X66178789Y-33196849D01*
X66053315Y-32962104D01*
X65763377Y-32836229D01*
X64629605Y-33970000D01*
X64270395Y-33970000D01*
X63136623Y-32836229D01*
X62846685Y-32962104D01*
X62680861Y-33294262D01*
X62583025Y-33652387D01*
X62556935Y-34022719D01*
X55660044Y-34022719D01*
X55591185Y-33938815D01*
X55494494Y-33859463D01*
X55384180Y-33800498D01*
X55311620Y-33778487D01*
X55443475Y-33646632D01*
X55605990Y-33403411D01*
X55717932Y-33133158D01*
X55775000Y-32846260D01*
X55775000Y-32656623D01*
X63316229Y-32656623D01*
X64450000Y-33790395D01*
X65583771Y-32656623D01*
X65457896Y-32366685D01*
X65125738Y-32200861D01*
X64767613Y-32103025D01*
X64397281Y-32076935D01*
X64028975Y-32123595D01*
X63676849Y-32241211D01*
X63442104Y-32366685D01*
X63316229Y-32656623D01*
X55775000Y-32656623D01*
X55775000Y-32643355D01*
X58809094Y-29609261D01*
X58847633Y-29577633D01*
X58973847Y-29423840D01*
X59067632Y-29248380D01*
X59125385Y-29057994D01*
X59140000Y-28909608D01*
X59140000Y-28909606D01*
X59144886Y-28860001D01*
X59140000Y-28810396D01*
X59140000Y-26595072D01*
X59330000Y-26595072D01*
X59454482Y-26582812D01*
X59574180Y-26546502D01*
X59684494Y-26487537D01*
X59781185Y-26408185D01*
X59860537Y-26311494D01*
X59919502Y-26201180D01*
X59955812Y-26081482D01*
X59968072Y-25957000D01*
X59968072Y-23599721D01*
X62315000Y-23599721D01*
X62315000Y-24020279D01*
X62397047Y-24432756D01*
X62557988Y-24821302D01*
X62791637Y-25170983D01*
X63089017Y-25468363D01*
X63438698Y-25702012D01*
X63827244Y-25862953D01*
X64239721Y-25945000D01*
X64660279Y-25945000D01*
X65072756Y-25862953D01*
X65461302Y-25702012D01*
X65810983Y-25468363D01*
X66108363Y-25170983D01*
X66342012Y-24821302D01*
X66502953Y-24432756D01*
X66585000Y-24020279D01*
X66585000Y-23599721D01*
X66502953Y-23187244D01*
X66342012Y-22798698D01*
X66108363Y-22449017D01*
X65810983Y-22151637D01*
X65461302Y-21917988D01*
X65072756Y-21757047D01*
X64660279Y-21675000D01*
X64239721Y-21675000D01*
X63827244Y-21757047D01*
X63438698Y-21917988D01*
X63089017Y-22151637D01*
X62791637Y-22449017D01*
X62557988Y-22798698D01*
X62397047Y-23187244D01*
X62315000Y-23599721D01*
X59968072Y-23599721D01*
X59968072Y-23557000D01*
X59955812Y-23432518D01*
X59919502Y-23312820D01*
X59860537Y-23202506D01*
X59781185Y-23105815D01*
X59684494Y-23026463D01*
X59574180Y-22967498D01*
X59454482Y-22931188D01*
X59330000Y-22918928D01*
X56930000Y-22918928D01*
X56805518Y-22931188D01*
X56685820Y-22967498D01*
X56575506Y-23026463D01*
X56478815Y-23105815D01*
X56399463Y-23202506D01*
X56340498Y-23312820D01*
X56304188Y-23432518D01*
X56291928Y-23557000D01*
X56291928Y-23974162D01*
X56256156Y-23887801D01*
X56055338Y-23587256D01*
X55799744Y-23331662D01*
X55499199Y-23130844D01*
X55165250Y-22992518D01*
X54810732Y-22922000D01*
X54449268Y-22922000D01*
X54094750Y-22992518D01*
X53760801Y-23130844D01*
X53460256Y-23331662D01*
X53204662Y-23587256D01*
X53003844Y-23887801D01*
X52880000Y-24186787D01*
X52756156Y-23887801D01*
X52555338Y-23587256D01*
X52299744Y-23331662D01*
X51999199Y-23130844D01*
X51665250Y-22992518D01*
X51310732Y-22922000D01*
X50949268Y-22922000D01*
X50594750Y-22992518D01*
X50260801Y-23130844D01*
X49960256Y-23331662D01*
X49704662Y-23587256D01*
X49503844Y-23887801D01*
X49380000Y-24186787D01*
X49256156Y-23887801D01*
X49055338Y-23587256D01*
X48799744Y-23331662D01*
X48499199Y-23130844D01*
X48165250Y-22992518D01*
X47810732Y-22922000D01*
X47449268Y-22922000D01*
X47094750Y-22992518D01*
X46760801Y-23130844D01*
X46460256Y-23331662D01*
X46204662Y-23587256D01*
X46003844Y-23887801D01*
X45880000Y-24186787D01*
X45756156Y-23887801D01*
X45555338Y-23587256D01*
X45299744Y-23331662D01*
X44999199Y-23130844D01*
X44665250Y-22992518D01*
X44310732Y-22922000D01*
X43949268Y-22922000D01*
X43594750Y-22992518D01*
X43260801Y-23130844D01*
X42960256Y-23331662D01*
X42704662Y-23587256D01*
X42503844Y-23887801D01*
X42380000Y-24186787D01*
X42256156Y-23887801D01*
X42055338Y-23587256D01*
X41799744Y-23331662D01*
X41499199Y-23130844D01*
X41165250Y-22992518D01*
X40810732Y-22922000D01*
X40449268Y-22922000D01*
X40094750Y-22992518D01*
X39760801Y-23130844D01*
X39460256Y-23331662D01*
X39204662Y-23587256D01*
X39003844Y-23887801D01*
X38880000Y-24186787D01*
X38756156Y-23887801D01*
X38555338Y-23587256D01*
X38299744Y-23331662D01*
X37999199Y-23130844D01*
X37665250Y-22992518D01*
X37310732Y-22922000D01*
X36949268Y-22922000D01*
X36594750Y-22992518D01*
X36260801Y-23130844D01*
X35960256Y-23331662D01*
X35704662Y-23587256D01*
X35503844Y-23887801D01*
X35380000Y-24186787D01*
X35256156Y-23887801D01*
X35055338Y-23587256D01*
X34799744Y-23331662D01*
X34499199Y-23130844D01*
X34165250Y-22992518D01*
X33810732Y-22922000D01*
X33449268Y-22922000D01*
X33094750Y-22992518D01*
X32760801Y-23130844D01*
X32460256Y-23331662D01*
X32204662Y-23587256D01*
X32003844Y-23887801D01*
X31880000Y-24186787D01*
X31756156Y-23887801D01*
X31555338Y-23587256D01*
X31299744Y-23331662D01*
X30999199Y-23130844D01*
X30665250Y-22992518D01*
X30310732Y-22922000D01*
X29949268Y-22922000D01*
X29594750Y-22992518D01*
X29260801Y-23130844D01*
X28960256Y-23331662D01*
X28704662Y-23587256D01*
X28503844Y-23887801D01*
X28365518Y-24221750D01*
X28295000Y-24576268D01*
X28295000Y-24937732D01*
X28365518Y-25292250D01*
X28503844Y-25626199D01*
X28704662Y-25926744D01*
X28960256Y-26182338D01*
X29120000Y-26289076D01*
X29120001Y-28810382D01*
X29115114Y-28860000D01*
X29134615Y-29057994D01*
X29192368Y-29248379D01*
X29192369Y-29248380D01*
X29286154Y-29423840D01*
X29412368Y-29577633D01*
X29450901Y-29609256D01*
X32485000Y-32643355D01*
X32485000Y-32846260D01*
X32542068Y-33133158D01*
X32654010Y-33403411D01*
X32816525Y-33646632D01*
X33023368Y-33853475D01*
X33197760Y-33970000D01*
X33023368Y-34086525D01*
X32816525Y-34293368D01*
X32654010Y-34536589D01*
X32542068Y-34806842D01*
X32485000Y-35093740D01*
X32485000Y-35296645D01*
X29450906Y-38330739D01*
X29412367Y-38362367D01*
X29286153Y-38516160D01*
X29196527Y-38683840D01*
X29192368Y-38691621D01*
X29134615Y-38882006D01*
X29115114Y-39080000D01*
X29120000Y-39129608D01*
X29120001Y-41349928D01*
X28930000Y-41349928D01*
X28805518Y-41362188D01*
X28685820Y-41398498D01*
X28575506Y-41457463D01*
X28478815Y-41536815D01*
X28399463Y-41633506D01*
X28340498Y-41743820D01*
X28304188Y-41863518D01*
X28291928Y-41988000D01*
X20660000Y-41988000D01*
X20660000Y-35283377D01*
X22676229Y-35283377D01*
X22802104Y-35573315D01*
X23134262Y-35739139D01*
X23492387Y-35836975D01*
X23862719Y-35863065D01*
X24231025Y-35816405D01*
X24583151Y-35698789D01*
X24817896Y-35573315D01*
X24943771Y-35283377D01*
X23810000Y-34149605D01*
X22676229Y-35283377D01*
X20660000Y-35283377D01*
X20660000Y-34022719D01*
X21916935Y-34022719D01*
X21963595Y-34391025D01*
X22081211Y-34743151D01*
X22206685Y-34977896D01*
X22496623Y-35103771D01*
X23630395Y-33970000D01*
X23989605Y-33970000D01*
X25123377Y-35103771D01*
X25413315Y-34977896D01*
X25579139Y-34645738D01*
X25676975Y-34287613D01*
X25703065Y-33917281D01*
X25656405Y-33548975D01*
X25538789Y-33196849D01*
X25413315Y-32962104D01*
X25123377Y-32836229D01*
X23989605Y-33970000D01*
X23630395Y-33970000D01*
X22496623Y-32836229D01*
X22206685Y-32962104D01*
X22040861Y-33294262D01*
X21943025Y-33652387D01*
X21916935Y-34022719D01*
X20660000Y-34022719D01*
X20660000Y-32656623D01*
X22676229Y-32656623D01*
X23810000Y-33790395D01*
X24943771Y-32656623D01*
X24817896Y-32366685D01*
X24485738Y-32200861D01*
X24127613Y-32103025D01*
X23757281Y-32076935D01*
X23388975Y-32123595D01*
X23036849Y-32241211D01*
X22802104Y-32366685D01*
X22676229Y-32656623D01*
X20660000Y-32656623D01*
X20660000Y-23599721D01*
X21675000Y-23599721D01*
X21675000Y-24020279D01*
X21757047Y-24432756D01*
X21917988Y-24821302D01*
X22151637Y-25170983D01*
X22449017Y-25468363D01*
X22798698Y-25702012D01*
X23187244Y-25862953D01*
X23599721Y-25945000D01*
X24020279Y-25945000D01*
X24432756Y-25862953D01*
X24821302Y-25702012D01*
X25170983Y-25468363D01*
X25468363Y-25170983D01*
X25702012Y-24821302D01*
X25862953Y-24432756D01*
X25945000Y-24020279D01*
X25945000Y-23599721D01*
X25862953Y-23187244D01*
X25702012Y-22798698D01*
X25468363Y-22449017D01*
X25170983Y-22151637D01*
X24821302Y-21917988D01*
X24432756Y-21757047D01*
X24020279Y-21675000D01*
X23599721Y-21675000D01*
X23187244Y-21757047D01*
X22798698Y-21917988D01*
X22449017Y-22151637D01*
X22151637Y-22449017D01*
X21917988Y-22798698D01*
X21757047Y-23187244D01*
X21675000Y-23599721D01*
X20660000Y-23599721D01*
X20660000Y-20660000D01*
X67600000Y-20660000D01*
X67600001Y-47280000D01*
M02*
