G04 #@! TF.GenerationSoftware,KiCad,Pcbnew,6.0.11-2627ca5db0~126~ubuntu20.04.1*
G04 #@! TF.CreationDate,2023-03-16T15:00:45-05:00*
G04 #@! TF.ProjectId,,58585858-5858-4585-9858-585858585858,rev?*
G04 #@! TF.SameCoordinates,Original*
G04 #@! TF.FileFunction,Soldermask,Bot*
G04 #@! TF.FilePolarity,Negative*
%FSLAX46Y46*%
G04 Gerber Fmt 4.6, Leading zero omitted, Abs format (unit mm)*
G04 Created by KiCad (PCBNEW 6.0.11-2627ca5db0~126~ubuntu20.04.1) date 2023-03-16 15:00:45*
%MOMM*%
%LPD*%
G01*
G04 APERTURE LIST*
G04 Aperture macros list*
%AMFreePoly0*
4,1,20,0.000000,0.744959,0.073905,0.744508,0.209726,0.703889,0.328688,0.626782,0.421226,0.519385,0.479903,0.390333,0.500000,0.250000,0.500000,-0.250000,0.499851,-0.262216,0.476331,-0.402017,0.414519,-0.529596,0.319384,-0.634700,0.198574,-0.708877,0.061801,-0.746166,0.000000,-0.745033,0.000000,-0.750000,-0.500000,-0.750000,-0.500000,0.750000,0.000000,0.750000,0.000000,0.744959,
0.000000,0.744959,$1*%
%AMFreePoly1*
4,1,22,0.500000,-0.750000,0.000000,-0.750000,0.000000,-0.745033,-0.079941,-0.743568,-0.215256,-0.701293,-0.333266,-0.622738,-0.424486,-0.514219,-0.481581,-0.384460,-0.499164,-0.250000,-0.500000,-0.250000,-0.500000,0.250000,-0.499164,0.250000,-0.499963,0.256109,-0.478152,0.396186,-0.417904,0.524511,-0.324060,0.630769,-0.204165,0.706417,-0.067858,0.745374,0.000000,0.744959,0.000000,0.750000,
0.500000,0.750000,0.500000,-0.750000,0.500000,-0.750000,$1*%
G04 Aperture macros list end*
G04 #@! TA.AperFunction,Profile*
%ADD10C,0.050000*%
G04 #@! TD*
%ADD11FreePoly0,90.000000*%
%ADD12FreePoly1,90.000000*%
%ADD13FreePoly0,270.000000*%
%ADD14FreePoly1,270.000000*%
%ADD15O,1.700000X1.700000*%
%ADD16R,1.700000X1.700000*%
%ADD17C,2.600000*%
%ADD18R,2.600000X2.600000*%
%ADD19C,2.499360*%
%ADD20C,3.000000*%
G04 APERTURE END LIST*
D10*
X102108000Y-136652000D02*
X140208000Y-136652000D01*
X140208000Y-88392000D02*
X140208000Y-136652000D01*
X102108000Y-88392000D02*
X140208000Y-88392000D01*
X102108000Y-88392000D02*
X102108000Y-136652000D01*
X64008000Y-136652000D02*
X102108000Y-136652000D01*
X102108000Y-88392000D02*
X102108000Y-136652000D01*
X64008000Y-88392000D02*
X102108000Y-88392000D01*
X64008000Y-88392000D02*
X64008000Y-136652000D01*
X102108000Y-88392000D02*
X140208000Y-88392000D01*
X140208000Y-40132000D02*
X140208000Y-88392000D01*
X102108000Y-40132000D02*
X140208000Y-40132000D01*
X102108000Y-40132000D02*
X102108000Y-88392000D01*
X64008000Y-40132000D02*
X64008000Y-88392000D01*
X64008000Y-40132000D02*
X102108000Y-40132000D01*
X102108000Y-40132000D02*
X102108000Y-88392000D01*
X64008000Y-88392000D02*
X102108000Y-88392000D01*
D11*
X105408000Y-95152000D03*
D12*
X105408000Y-96452000D03*
D11*
X108908000Y-95152000D03*
D12*
X108908000Y-96452000D03*
D11*
X112408000Y-95152000D03*
D12*
X112408000Y-96452000D03*
D11*
X115908000Y-95152000D03*
D12*
X115908000Y-96452000D03*
D11*
X119408000Y-95152000D03*
D12*
X119408000Y-96452000D03*
D11*
X122908000Y-95152000D03*
D12*
X122908000Y-96452000D03*
D11*
X126408000Y-95152000D03*
D12*
X126408000Y-96452000D03*
D11*
X129908000Y-95152000D03*
D12*
X129908000Y-96452000D03*
D11*
X133408000Y-95152000D03*
D12*
X133408000Y-96452000D03*
D11*
X136908000Y-95152000D03*
D12*
X136908000Y-96452000D03*
D13*
X109728000Y-104785000D03*
D14*
X109728000Y-103485000D03*
D13*
X112268000Y-104785000D03*
D14*
X112268000Y-103485000D03*
D13*
X114808000Y-104785000D03*
D14*
X114808000Y-103485000D03*
D13*
X117348000Y-104785000D03*
D14*
X117348000Y-103485000D03*
D13*
X119888000Y-104785000D03*
D14*
X119888000Y-103485000D03*
D13*
X122428000Y-104785000D03*
D14*
X122428000Y-103485000D03*
D13*
X124968000Y-104785000D03*
D14*
X124968000Y-103485000D03*
D13*
X127508000Y-104785000D03*
D14*
X127508000Y-103485000D03*
D13*
X130048000Y-104785000D03*
D14*
X130048000Y-103485000D03*
D13*
X132588000Y-104785000D03*
D14*
X132588000Y-103485000D03*
D11*
X136908000Y-128592000D03*
D12*
X136908000Y-129892000D03*
D11*
X133408000Y-128592000D03*
D12*
X133408000Y-129892000D03*
D11*
X129908000Y-128592000D03*
D12*
X129908000Y-129892000D03*
D11*
X126408000Y-128592000D03*
D12*
X126408000Y-129892000D03*
D11*
X122908000Y-128592000D03*
D12*
X122908000Y-129892000D03*
D11*
X119408000Y-128592000D03*
D12*
X119408000Y-129892000D03*
D11*
X115908000Y-128592000D03*
D12*
X115908000Y-129892000D03*
D11*
X112408000Y-128592000D03*
D12*
X112408000Y-129892000D03*
D11*
X108908000Y-128592000D03*
D12*
X108908000Y-129892000D03*
D11*
X105408000Y-128592000D03*
D12*
X105408000Y-129892000D03*
D13*
X132588000Y-121559000D03*
D14*
X132588000Y-120259000D03*
D13*
X130048000Y-121559000D03*
D14*
X130048000Y-120259000D03*
D13*
X127508000Y-121559000D03*
D14*
X127508000Y-120259000D03*
D13*
X124968000Y-121559000D03*
D14*
X124968000Y-120259000D03*
D13*
X122428000Y-121559000D03*
D14*
X122428000Y-120259000D03*
D13*
X119888000Y-121559000D03*
D14*
X119888000Y-120259000D03*
D13*
X117348000Y-121559000D03*
D14*
X117348000Y-120259000D03*
D13*
X114808000Y-121559000D03*
D14*
X114808000Y-120259000D03*
D13*
X112268000Y-121559000D03*
D14*
X112268000Y-120259000D03*
D13*
X109728000Y-121559000D03*
D14*
X109728000Y-120259000D03*
D15*
X109728000Y-98552000D03*
X112268000Y-98552000D03*
X114808000Y-98552000D03*
X117348000Y-98552000D03*
X119888000Y-98552000D03*
X122428000Y-98552000D03*
X124968000Y-98552000D03*
X127508000Y-98552000D03*
X130048000Y-98552000D03*
D16*
X132588000Y-98552000D03*
D17*
X105472000Y-132900000D03*
X108972000Y-132900000D03*
X112472000Y-132900000D03*
X115972000Y-132900000D03*
X119472000Y-132900000D03*
X122972000Y-132900000D03*
X126472000Y-132900000D03*
X129972000Y-132900000D03*
X133472000Y-132900000D03*
D18*
X136972000Y-132900000D03*
D19*
X136398000Y-112522000D03*
D20*
X105918000Y-122682000D03*
D19*
X105918000Y-112522000D03*
D15*
X109728000Y-101092000D03*
X112268000Y-101092000D03*
X114808000Y-101092000D03*
X117348000Y-101092000D03*
X119888000Y-101092000D03*
X122428000Y-101092000D03*
X124968000Y-101092000D03*
X127508000Y-101092000D03*
X130048000Y-101092000D03*
D16*
X132588000Y-101092000D03*
D20*
X105918000Y-102362000D03*
D15*
X132588000Y-126492000D03*
X130048000Y-126492000D03*
X127508000Y-126492000D03*
X124968000Y-126492000D03*
X122428000Y-126492000D03*
X119888000Y-126492000D03*
X117348000Y-126492000D03*
X114808000Y-126492000D03*
X112268000Y-126492000D03*
D16*
X109728000Y-126492000D03*
D15*
X132588000Y-123952000D03*
X130048000Y-123952000D03*
X127508000Y-123952000D03*
X124968000Y-123952000D03*
X122428000Y-123952000D03*
X119888000Y-123952000D03*
X117348000Y-123952000D03*
X114808000Y-123952000D03*
X112268000Y-123952000D03*
D16*
X109728000Y-123952000D03*
D20*
X136398000Y-102362000D03*
D17*
X136976000Y-92176000D03*
X133476000Y-92176000D03*
X129976000Y-92176000D03*
X126476000Y-92176000D03*
X122976000Y-92176000D03*
X119476000Y-92176000D03*
X115976000Y-92176000D03*
X112476000Y-92176000D03*
X108976000Y-92176000D03*
D18*
X105476000Y-92176000D03*
D20*
X136398000Y-122682000D03*
D11*
X67308000Y-95152000D03*
D12*
X67308000Y-96452000D03*
D11*
X70808000Y-95152000D03*
D12*
X70808000Y-96452000D03*
D11*
X74308000Y-95152000D03*
D12*
X74308000Y-96452000D03*
D11*
X77808000Y-95152000D03*
D12*
X77808000Y-96452000D03*
D11*
X81308000Y-95152000D03*
D12*
X81308000Y-96452000D03*
D11*
X84808000Y-95152000D03*
D12*
X84808000Y-96452000D03*
D11*
X88308000Y-95152000D03*
D12*
X88308000Y-96452000D03*
D11*
X91808000Y-95152000D03*
D12*
X91808000Y-96452000D03*
D11*
X95308000Y-95152000D03*
D12*
X95308000Y-96452000D03*
D11*
X98808000Y-95152000D03*
D12*
X98808000Y-96452000D03*
D13*
X71628000Y-104785000D03*
D14*
X71628000Y-103485000D03*
D13*
X74168000Y-104785000D03*
D14*
X74168000Y-103485000D03*
D13*
X76708000Y-104785000D03*
D14*
X76708000Y-103485000D03*
D13*
X79248000Y-104785000D03*
D14*
X79248000Y-103485000D03*
D13*
X81788000Y-104785000D03*
D14*
X81788000Y-103485000D03*
D13*
X84328000Y-104785000D03*
D14*
X84328000Y-103485000D03*
D13*
X86868000Y-104785000D03*
D14*
X86868000Y-103485000D03*
D13*
X89408000Y-104785000D03*
D14*
X89408000Y-103485000D03*
D13*
X91948000Y-104785000D03*
D14*
X91948000Y-103485000D03*
D13*
X94488000Y-104785000D03*
D14*
X94488000Y-103485000D03*
D11*
X98808000Y-128592000D03*
D12*
X98808000Y-129892000D03*
D11*
X95308000Y-128592000D03*
D12*
X95308000Y-129892000D03*
D11*
X91808000Y-128592000D03*
D12*
X91808000Y-129892000D03*
D11*
X88308000Y-128592000D03*
D12*
X88308000Y-129892000D03*
D11*
X84808000Y-128592000D03*
D12*
X84808000Y-129892000D03*
D11*
X81308000Y-128592000D03*
D12*
X81308000Y-129892000D03*
D11*
X77808000Y-128592000D03*
D12*
X77808000Y-129892000D03*
D11*
X74308000Y-128592000D03*
D12*
X74308000Y-129892000D03*
D11*
X70808000Y-128592000D03*
D12*
X70808000Y-129892000D03*
D11*
X67308000Y-128592000D03*
D12*
X67308000Y-129892000D03*
D13*
X94488000Y-121559000D03*
D14*
X94488000Y-120259000D03*
D13*
X91948000Y-121559000D03*
D14*
X91948000Y-120259000D03*
D13*
X89408000Y-121559000D03*
D14*
X89408000Y-120259000D03*
D13*
X86868000Y-121559000D03*
D14*
X86868000Y-120259000D03*
D13*
X84328000Y-121559000D03*
D14*
X84328000Y-120259000D03*
D13*
X81788000Y-121559000D03*
D14*
X81788000Y-120259000D03*
D13*
X79248000Y-121559000D03*
D14*
X79248000Y-120259000D03*
D13*
X76708000Y-121559000D03*
D14*
X76708000Y-120259000D03*
D13*
X74168000Y-121559000D03*
D14*
X74168000Y-120259000D03*
D13*
X71628000Y-121559000D03*
D14*
X71628000Y-120259000D03*
D15*
X71628000Y-98552000D03*
X74168000Y-98552000D03*
X76708000Y-98552000D03*
X79248000Y-98552000D03*
X81788000Y-98552000D03*
X84328000Y-98552000D03*
X86868000Y-98552000D03*
X89408000Y-98552000D03*
X91948000Y-98552000D03*
D16*
X94488000Y-98552000D03*
D17*
X67372000Y-132900000D03*
X70872000Y-132900000D03*
X74372000Y-132900000D03*
X77872000Y-132900000D03*
X81372000Y-132900000D03*
X84872000Y-132900000D03*
X88372000Y-132900000D03*
X91872000Y-132900000D03*
X95372000Y-132900000D03*
D18*
X98872000Y-132900000D03*
D19*
X98298000Y-112522000D03*
D20*
X67818000Y-122682000D03*
D19*
X67818000Y-112522000D03*
D15*
X71628000Y-101092000D03*
X74168000Y-101092000D03*
X76708000Y-101092000D03*
X79248000Y-101092000D03*
X81788000Y-101092000D03*
X84328000Y-101092000D03*
X86868000Y-101092000D03*
X89408000Y-101092000D03*
X91948000Y-101092000D03*
D16*
X94488000Y-101092000D03*
D20*
X67818000Y-102362000D03*
D15*
X94488000Y-126492000D03*
X91948000Y-126492000D03*
X89408000Y-126492000D03*
X86868000Y-126492000D03*
X84328000Y-126492000D03*
X81788000Y-126492000D03*
X79248000Y-126492000D03*
X76708000Y-126492000D03*
X74168000Y-126492000D03*
D16*
X71628000Y-126492000D03*
D15*
X94488000Y-123952000D03*
X91948000Y-123952000D03*
X89408000Y-123952000D03*
X86868000Y-123952000D03*
X84328000Y-123952000D03*
X81788000Y-123952000D03*
X79248000Y-123952000D03*
X76708000Y-123952000D03*
X74168000Y-123952000D03*
D16*
X71628000Y-123952000D03*
D20*
X98298000Y-102362000D03*
D17*
X98876000Y-92176000D03*
X95376000Y-92176000D03*
X91876000Y-92176000D03*
X88376000Y-92176000D03*
X84876000Y-92176000D03*
X81376000Y-92176000D03*
X77876000Y-92176000D03*
X74376000Y-92176000D03*
X70876000Y-92176000D03*
D18*
X67376000Y-92176000D03*
D20*
X98298000Y-122682000D03*
D11*
X105408000Y-46892000D03*
D12*
X105408000Y-48192000D03*
D11*
X108908000Y-46892000D03*
D12*
X108908000Y-48192000D03*
D11*
X112408000Y-46892000D03*
D12*
X112408000Y-48192000D03*
D11*
X115908000Y-46892000D03*
D12*
X115908000Y-48192000D03*
D11*
X119408000Y-46892000D03*
D12*
X119408000Y-48192000D03*
D11*
X122908000Y-46892000D03*
D12*
X122908000Y-48192000D03*
D11*
X126408000Y-46892000D03*
D12*
X126408000Y-48192000D03*
D11*
X129908000Y-46892000D03*
D12*
X129908000Y-48192000D03*
D11*
X133408000Y-46892000D03*
D12*
X133408000Y-48192000D03*
D11*
X136908000Y-46892000D03*
D12*
X136908000Y-48192000D03*
D13*
X109728000Y-56525000D03*
D14*
X109728000Y-55225000D03*
D13*
X112268000Y-56525000D03*
D14*
X112268000Y-55225000D03*
D13*
X114808000Y-56525000D03*
D14*
X114808000Y-55225000D03*
D13*
X117348000Y-56525000D03*
D14*
X117348000Y-55225000D03*
D13*
X119888000Y-56525000D03*
D14*
X119888000Y-55225000D03*
D13*
X122428000Y-56525000D03*
D14*
X122428000Y-55225000D03*
D13*
X124968000Y-56525000D03*
D14*
X124968000Y-55225000D03*
D13*
X127508000Y-56525000D03*
D14*
X127508000Y-55225000D03*
D13*
X130048000Y-56525000D03*
D14*
X130048000Y-55225000D03*
D13*
X132588000Y-56525000D03*
D14*
X132588000Y-55225000D03*
D11*
X136908000Y-80332000D03*
D12*
X136908000Y-81632000D03*
D11*
X133408000Y-80332000D03*
D12*
X133408000Y-81632000D03*
D11*
X129908000Y-80332000D03*
D12*
X129908000Y-81632000D03*
D11*
X126408000Y-80332000D03*
D12*
X126408000Y-81632000D03*
D11*
X122908000Y-80332000D03*
D12*
X122908000Y-81632000D03*
D11*
X119408000Y-80332000D03*
D12*
X119408000Y-81632000D03*
D11*
X115908000Y-80332000D03*
D12*
X115908000Y-81632000D03*
D11*
X112408000Y-80332000D03*
D12*
X112408000Y-81632000D03*
D11*
X108908000Y-80332000D03*
D12*
X108908000Y-81632000D03*
D11*
X105408000Y-80332000D03*
D12*
X105408000Y-81632000D03*
D13*
X132588000Y-73299000D03*
D14*
X132588000Y-71999000D03*
D13*
X130048000Y-73299000D03*
D14*
X130048000Y-71999000D03*
D13*
X127508000Y-73299000D03*
D14*
X127508000Y-71999000D03*
D13*
X124968000Y-73299000D03*
D14*
X124968000Y-71999000D03*
D13*
X122428000Y-73299000D03*
D14*
X122428000Y-71999000D03*
D13*
X119888000Y-73299000D03*
D14*
X119888000Y-71999000D03*
D13*
X117348000Y-73299000D03*
D14*
X117348000Y-71999000D03*
D13*
X114808000Y-73299000D03*
D14*
X114808000Y-71999000D03*
D13*
X112268000Y-73299000D03*
D14*
X112268000Y-71999000D03*
D13*
X109728000Y-73299000D03*
D14*
X109728000Y-71999000D03*
D15*
X109728000Y-50292000D03*
X112268000Y-50292000D03*
X114808000Y-50292000D03*
X117348000Y-50292000D03*
X119888000Y-50292000D03*
X122428000Y-50292000D03*
X124968000Y-50292000D03*
X127508000Y-50292000D03*
X130048000Y-50292000D03*
D16*
X132588000Y-50292000D03*
D17*
X105472000Y-84640000D03*
X108972000Y-84640000D03*
X112472000Y-84640000D03*
X115972000Y-84640000D03*
X119472000Y-84640000D03*
X122972000Y-84640000D03*
X126472000Y-84640000D03*
X129972000Y-84640000D03*
X133472000Y-84640000D03*
D18*
X136972000Y-84640000D03*
D19*
X136398000Y-64262000D03*
D20*
X105918000Y-74422000D03*
D19*
X105918000Y-64262000D03*
D15*
X109728000Y-52832000D03*
X112268000Y-52832000D03*
X114808000Y-52832000D03*
X117348000Y-52832000D03*
X119888000Y-52832000D03*
X122428000Y-52832000D03*
X124968000Y-52832000D03*
X127508000Y-52832000D03*
X130048000Y-52832000D03*
D16*
X132588000Y-52832000D03*
D20*
X105918000Y-54102000D03*
D15*
X132588000Y-78232000D03*
X130048000Y-78232000D03*
X127508000Y-78232000D03*
X124968000Y-78232000D03*
X122428000Y-78232000D03*
X119888000Y-78232000D03*
X117348000Y-78232000D03*
X114808000Y-78232000D03*
X112268000Y-78232000D03*
D16*
X109728000Y-78232000D03*
D15*
X132588000Y-75692000D03*
X130048000Y-75692000D03*
X127508000Y-75692000D03*
X124968000Y-75692000D03*
X122428000Y-75692000D03*
X119888000Y-75692000D03*
X117348000Y-75692000D03*
X114808000Y-75692000D03*
X112268000Y-75692000D03*
D16*
X109728000Y-75692000D03*
D20*
X136398000Y-54102000D03*
D17*
X136976000Y-43916000D03*
X133476000Y-43916000D03*
X129976000Y-43916000D03*
X126476000Y-43916000D03*
X122976000Y-43916000D03*
X119476000Y-43916000D03*
X115976000Y-43916000D03*
X112476000Y-43916000D03*
X108976000Y-43916000D03*
D18*
X105476000Y-43916000D03*
D20*
X136398000Y-74422000D03*
X67818000Y-54102000D03*
X98298000Y-54102000D03*
X67818000Y-74422000D03*
X98298000Y-74422000D03*
D19*
X67818000Y-64262000D03*
X98298000Y-64262000D03*
D15*
X71628000Y-52832000D03*
X74168000Y-52832000D03*
X76708000Y-52832000D03*
X79248000Y-52832000D03*
X81788000Y-52832000D03*
X84328000Y-52832000D03*
X86868000Y-52832000D03*
X89408000Y-52832000D03*
X91948000Y-52832000D03*
D16*
X94488000Y-52832000D03*
D15*
X94488000Y-75692000D03*
X91948000Y-75692000D03*
X89408000Y-75692000D03*
X86868000Y-75692000D03*
X84328000Y-75692000D03*
X81788000Y-75692000D03*
X79248000Y-75692000D03*
X76708000Y-75692000D03*
X74168000Y-75692000D03*
D16*
X71628000Y-75692000D03*
D15*
X94488000Y-78232000D03*
X91948000Y-78232000D03*
X89408000Y-78232000D03*
X86868000Y-78232000D03*
X84328000Y-78232000D03*
X81788000Y-78232000D03*
X79248000Y-78232000D03*
X76708000Y-78232000D03*
X74168000Y-78232000D03*
D16*
X71628000Y-78232000D03*
D15*
X71628000Y-50292000D03*
X74168000Y-50292000D03*
X76708000Y-50292000D03*
X79248000Y-50292000D03*
X81788000Y-50292000D03*
X84328000Y-50292000D03*
X86868000Y-50292000D03*
X89408000Y-50292000D03*
X91948000Y-50292000D03*
D16*
X94488000Y-50292000D03*
D17*
X67372000Y-84640000D03*
X70872000Y-84640000D03*
X74372000Y-84640000D03*
X77872000Y-84640000D03*
X81372000Y-84640000D03*
X84872000Y-84640000D03*
X88372000Y-84640000D03*
X91872000Y-84640000D03*
X95372000Y-84640000D03*
D18*
X98872000Y-84640000D03*
D17*
X98876000Y-43916000D03*
X95376000Y-43916000D03*
X91876000Y-43916000D03*
X88376000Y-43916000D03*
X84876000Y-43916000D03*
X81376000Y-43916000D03*
X77876000Y-43916000D03*
X74376000Y-43916000D03*
X70876000Y-43916000D03*
D18*
X67376000Y-43916000D03*
D13*
X71628000Y-73299000D03*
D14*
X71628000Y-71999000D03*
D13*
X74168000Y-73299000D03*
D14*
X74168000Y-71999000D03*
D13*
X76708000Y-73299000D03*
D14*
X76708000Y-71999000D03*
D13*
X79248000Y-73299000D03*
D14*
X79248000Y-71999000D03*
D13*
X81788000Y-73299000D03*
D14*
X81788000Y-71999000D03*
D13*
X84328000Y-73299000D03*
D14*
X84328000Y-71999000D03*
D13*
X86868000Y-73299000D03*
D14*
X86868000Y-71999000D03*
D13*
X89408000Y-73299000D03*
D14*
X89408000Y-71999000D03*
D13*
X91948000Y-73299000D03*
D14*
X91948000Y-71999000D03*
D13*
X94488000Y-73299000D03*
D14*
X94488000Y-71999000D03*
D11*
X67308000Y-80332000D03*
D12*
X67308000Y-81632000D03*
D11*
X70808000Y-80332000D03*
D12*
X70808000Y-81632000D03*
D11*
X74308000Y-80332000D03*
D12*
X74308000Y-81632000D03*
D11*
X77808000Y-80332000D03*
D12*
X77808000Y-81632000D03*
D11*
X81308000Y-80332000D03*
D12*
X81308000Y-81632000D03*
D11*
X84808000Y-80332000D03*
D12*
X84808000Y-81632000D03*
D11*
X88308000Y-80332000D03*
D12*
X88308000Y-81632000D03*
D11*
X91808000Y-80332000D03*
D12*
X91808000Y-81632000D03*
D11*
X95308000Y-80332000D03*
D12*
X95308000Y-81632000D03*
D11*
X98808000Y-80332000D03*
D12*
X98808000Y-81632000D03*
D13*
X94488000Y-56525000D03*
D14*
X94488000Y-55225000D03*
D13*
X91948000Y-56525000D03*
D14*
X91948000Y-55225000D03*
D13*
X89408000Y-56525000D03*
D14*
X89408000Y-55225000D03*
D13*
X86868000Y-56525000D03*
D14*
X86868000Y-55225000D03*
D13*
X84328000Y-56525000D03*
D14*
X84328000Y-55225000D03*
D13*
X81788000Y-56525000D03*
D14*
X81788000Y-55225000D03*
D13*
X79248000Y-56525000D03*
D14*
X79248000Y-55225000D03*
D13*
X76708000Y-56525000D03*
D14*
X76708000Y-55225000D03*
D13*
X74168000Y-56525000D03*
D14*
X74168000Y-55225000D03*
D13*
X71628000Y-56525000D03*
D14*
X71628000Y-55225000D03*
D11*
X98808000Y-46892000D03*
D12*
X98808000Y-48192000D03*
D11*
X95308000Y-46892000D03*
D12*
X95308000Y-48192000D03*
D11*
X91808000Y-46892000D03*
D12*
X91808000Y-48192000D03*
D11*
X88308000Y-46892000D03*
D12*
X88308000Y-48192000D03*
D11*
X84808000Y-46892000D03*
D12*
X84808000Y-48192000D03*
D11*
X81308000Y-46892000D03*
D12*
X81308000Y-48192000D03*
D11*
X77808000Y-46892000D03*
D12*
X77808000Y-48192000D03*
D11*
X74308000Y-46892000D03*
D12*
X74308000Y-48192000D03*
D11*
X70808000Y-46892000D03*
D12*
X70808000Y-48192000D03*
D11*
X67308000Y-46892000D03*
D12*
X67308000Y-48192000D03*
M02*
