M48
; DRILL file {KiCad 5.1.5-52549c5~86~ubuntu18.04.1} date jue 24 sep 2020 17:01:57 -05
; FORMAT={-:-/ absolute / metric / decimal}
; #@! TF.CreationDate,2020-09-24T17:01:57-05:00
; #@! TF.GenerationSoftware,Kicad,Pcbnew,5.1.5-52549c5~86~ubuntu18.04.1
; #@! TF.FileFunction,Plated,1,2,PTH
FMAT,2
METRIC
T1C0.920
T2C1.001
T3C1.200
T4C2.300
%
G90
G05
T1
X125.913Y-105.842
X128.413Y-105.842
X130.413Y-105.842
X132.913Y-105.842
X164.013Y-52.502
X166.513Y-52.502
X168.513Y-52.502
X171.013Y-52.502
X125.913Y-70.282
X128.413Y-70.282
X130.413Y-70.282
X132.913Y-70.282
X125.913Y-34.722
X128.413Y-34.722
X130.413Y-34.722
X132.913Y-34.722
X164.013Y-105.842
X166.513Y-105.842
X168.513Y-105.842
X171.013Y-105.842
X164.013Y-70.282
X166.513Y-70.282
X168.513Y-70.282
X171.013Y-70.282
X164.013Y-34.722
X166.513Y-34.722
X168.513Y-34.722
X171.013Y-34.722
X164.013Y-88.062
X166.513Y-88.062
X168.513Y-88.062
X171.013Y-88.062
X125.913Y-88.062
X128.413Y-88.062
X130.413Y-88.062
X132.913Y-88.062
X125.913Y-52.502
X128.413Y-52.502
X130.413Y-52.502
X132.913Y-52.502
T2
X108.189Y-74.61
X108.189Y-92.39
X176.769Y-39.05
X146.289Y-74.61
X176.769Y-110.17
X138.669Y-110.17
X176.769Y-74.61
X176.769Y-92.39
X138.669Y-74.61
X176.769Y-56.83
X108.189Y-56.83
X138.669Y-39.05
X108.189Y-39.05
X138.669Y-56.83
X138.669Y-92.39
X146.289Y-39.05
X146.289Y-110.17
X146.289Y-56.83
X108.189Y-110.17
X146.289Y-92.39
T3
X152.253Y-34.188
X155.753Y-34.188
X152.253Y-69.748
X155.753Y-69.748
X152.253Y-51.968
X155.753Y-51.968
X114.153Y-43.912
X117.653Y-43.912
X152.253Y-115.032
X155.753Y-115.032
X114.153Y-87.528
X117.653Y-87.528
X152.253Y-79.472
X155.753Y-79.472
X114.153Y-69.748
X117.653Y-69.748
X114.153Y-51.968
X117.653Y-51.968
X152.253Y-43.912
X155.753Y-43.912
X114.153Y-115.032
X117.653Y-115.032
X114.153Y-61.692
X117.653Y-61.692
X152.253Y-61.692
X155.753Y-61.692
X114.153Y-79.472
X117.653Y-79.472
X152.253Y-97.252
X155.753Y-97.252
X114.153Y-34.188
X117.653Y-34.188
X114.153Y-97.252
X117.653Y-97.252
X152.253Y-87.528
X155.753Y-87.528
X114.153Y-105.308
X117.653Y-105.308
X152.253Y-105.308
X155.753Y-105.308
T4
X122.843Y-108.552
X135.983Y-108.552
X160.943Y-55.212
X174.083Y-55.212
X122.843Y-72.992
X135.983Y-72.992
X122.843Y-37.432
X135.983Y-37.432
X160.943Y-108.552
X174.083Y-108.552
X160.943Y-72.992
X174.083Y-72.992
X160.943Y-37.432
X174.083Y-37.432
X160.943Y-90.772
X174.083Y-90.772
X122.843Y-90.772
X135.983Y-90.772
X122.843Y-55.212
X135.983Y-55.212
T0
M30
