M48
; DRILL file {KiCad 5.1.5-52549c5~86~ubuntu18.04.1} date vie 04 sep 2020 20:01:09 -05
; FORMAT={-:-/ absolute / metric / decimal}
; #@! TF.CreationDate,2020-09-04T20:01:09-05:00
; #@! TF.GenerationSoftware,Kicad,Pcbnew,5.1.5-52549c5~86~ubuntu18.04.1
; #@! TF.FileFunction,Plated,1,2,PTH
FMAT,2
METRIC
T1C1.001
T2C1.200
%
G90
G05
T1
X136.215Y-83.729
X104.292Y-83.729
X189.555Y-137.069
X139.852Y-137.069
X118.435Y-83.729
X171.775Y-137.069
X175.412Y-83.729
X122.072Y-137.069
X189.555Y-65.949
X153.995Y-137.069
X104.292Y-137.069
X171.775Y-65.949
X136.215Y-137.069
X118.435Y-119.289
X175.412Y-119.289
X153.995Y-65.949
X118.435Y-137.069
X157.632Y-119.289
X136.215Y-65.949
X139.852Y-83.729
X189.555Y-119.289
X139.852Y-119.289
X189.555Y-101.509
X171.775Y-119.289
X104.292Y-101.509
X122.072Y-119.289
X171.775Y-101.509
X175.412Y-65.949
X153.995Y-119.289
X104.292Y-119.289
X153.995Y-101.509
X136.215Y-119.289
X175.412Y-101.509
X136.215Y-101.509
X122.072Y-83.729
X157.632Y-101.509
X118.435Y-101.509
X157.632Y-83.729
X104.292Y-65.949
X139.852Y-101.509
X189.555Y-83.729
X139.852Y-65.949
X122.072Y-101.509
X171.775Y-83.729
X118.435Y-65.949
X157.632Y-65.949
X122.072Y-65.949
X175.412Y-137.069
X153.995Y-83.729
X157.632Y-137.069
T2
X109.614Y-106.243
X113.114Y-106.243
X145.174Y-78.994
X148.674Y-78.994
X180.734Y-124.023
X184.234Y-124.023
X127.394Y-114.554
X130.894Y-114.554
X180.734Y-61.214
X184.234Y-61.214
X180.734Y-88.463
X184.234Y-88.463
X162.954Y-124.023
X166.454Y-124.023
X109.614Y-114.554
X113.114Y-114.554
X180.734Y-132.334
X184.234Y-132.334
X162.954Y-88.463
X166.454Y-88.463
X145.174Y-124.023
X148.674Y-124.023
X127.394Y-78.994
X130.894Y-78.994
X145.174Y-61.214
X148.674Y-61.214
X180.734Y-96.774
X184.234Y-96.774
X162.954Y-132.334
X166.454Y-132.334
X145.174Y-88.463
X148.674Y-88.463
X127.394Y-124.023
X130.894Y-124.023
X162.954Y-96.774
X166.454Y-96.774
X109.614Y-70.683
X113.114Y-70.683
X145.174Y-132.334
X148.674Y-132.334
X127.394Y-61.214
X130.894Y-61.214
X127.394Y-88.463
X130.894Y-88.463
X109.614Y-124.023
X113.114Y-124.023
X109.614Y-78.994
X113.114Y-78.994
X145.174Y-96.774
X148.674Y-96.774
X180.734Y-141.803
X184.234Y-141.803
X109.614Y-61.214
X113.114Y-61.214
X127.394Y-132.334
X130.894Y-132.334
X109.614Y-88.463
X113.114Y-88.463
X180.734Y-106.243
X184.234Y-106.243
X127.394Y-96.774
X130.894Y-96.774
X162.954Y-141.803
X166.454Y-141.803
X109.614Y-132.334
X113.114Y-132.334
X180.734Y-70.683
X184.234Y-70.683
X162.954Y-61.214
X166.454Y-61.214
X162.954Y-106.243
X166.454Y-106.243
X109.614Y-96.774
X113.114Y-96.774
X145.174Y-141.803
X148.674Y-141.803
X180.734Y-114.554
X184.234Y-114.554
X162.954Y-70.683
X166.454Y-70.683
X145.174Y-106.243
X148.674Y-106.243
X180.734Y-78.994
X184.234Y-78.994
X127.394Y-141.803
X130.894Y-141.803
X162.954Y-114.554
X166.454Y-114.554
X145.174Y-70.683
X148.674Y-70.683
X127.394Y-106.243
X130.894Y-106.243
X162.954Y-78.994
X166.454Y-78.994
X109.614Y-141.803
X113.114Y-141.803
X145.174Y-114.554
X148.674Y-114.554
X127.394Y-70.683
X130.894Y-70.683
T0
M30
