G04 #@! TF.GenerationSoftware,KiCad,Pcbnew,5.1.5-52549c5~86~ubuntu18.04.1*
G04 #@! TF.CreationDate,2020-09-11T14:43:20-05:00*
G04 #@! TF.ProjectId,,58585858-5858-4585-9858-585858585858,rev?*
G04 #@! TF.SameCoordinates,Original*
G04 #@! TF.FileFunction,Copper,L1,Top*
G04 #@! TF.FilePolarity,Positive*
%FSLAX46Y46*%
G04 Gerber Fmt 4.6, Leading zero omitted, Abs format (unit mm)*
G04 Created by KiCad (PCBNEW 5.1.5-52549c5~86~ubuntu18.04.1) date 2020-09-11 14:43:20*
%MOMM*%
%LPD*%
G04 APERTURE LIST*
%ADD10C,0.250000*%
%ADD11C,0.010000*%
%ADD12R,1.700000X1.700000*%
%ADD13O,1.700000X1.700000*%
%ADD14C,2.499360*%
%ADD15C,1.700000*%
%ADD16R,1.520000X1.520000*%
%ADD17C,1.520000*%
%ADD18R,2.400000X2.400000*%
%ADD19C,2.400000*%
%ADD20C,3.000000*%
%ADD21R,1.600000X1.600000*%
%ADD22C,1.600000*%
%ADD23C,0.750000*%
%ADD24C,1.000000*%
%ADD25C,0.254000*%
G04 APERTURE END LIST*
D10*
X135635171Y-111907580D02*
X135635171Y-110907580D01*
X135873266Y-110907580D01*
X136016123Y-110955200D01*
X136111361Y-111050438D01*
X136158980Y-111145676D01*
X136206600Y-111336152D01*
X136206600Y-111479009D01*
X136158980Y-111669485D01*
X136111361Y-111764723D01*
X136016123Y-111859961D01*
X135873266Y-111907580D01*
X135635171Y-111907580D01*
X136825647Y-110907580D02*
X136920885Y-110907580D01*
X137016123Y-110955200D01*
X137063742Y-111002819D01*
X137111361Y-111098057D01*
X137158980Y-111288533D01*
X137158980Y-111526628D01*
X137111361Y-111717104D01*
X137063742Y-111812342D01*
X137016123Y-111859961D01*
X136920885Y-111907580D01*
X136825647Y-111907580D01*
X136730409Y-111859961D01*
X136682790Y-111812342D01*
X136635171Y-111717104D01*
X136587552Y-111526628D01*
X136587552Y-111288533D01*
X136635171Y-111098057D01*
X136682790Y-111002819D01*
X136730409Y-110955200D01*
X136825647Y-110907580D01*
X138111361Y-111907580D02*
X137539933Y-111907580D01*
X137825647Y-111907580D02*
X137825647Y-110907580D01*
X137730409Y-111050438D01*
X137635171Y-111145676D01*
X137539933Y-111193295D01*
X138301838Y-112002819D02*
X139063742Y-112002819D01*
X139301838Y-111383771D02*
X139635171Y-111383771D01*
X139778028Y-111907580D02*
X139301838Y-111907580D01*
X139301838Y-110907580D01*
X139778028Y-110907580D01*
X140682790Y-111907580D02*
X140206600Y-111907580D01*
X140206600Y-110907580D01*
X141016123Y-111383771D02*
X141349457Y-111383771D01*
X141492314Y-111907580D02*
X141016123Y-111907580D01*
X141016123Y-110907580D01*
X141492314Y-110907580D01*
X142492314Y-111812342D02*
X142444695Y-111859961D01*
X142301838Y-111907580D01*
X142206600Y-111907580D01*
X142063742Y-111859961D01*
X141968504Y-111764723D01*
X141920885Y-111669485D01*
X141873266Y-111479009D01*
X141873266Y-111336152D01*
X141920885Y-111145676D01*
X141968504Y-111050438D01*
X142063742Y-110955200D01*
X142206600Y-110907580D01*
X142301838Y-110907580D01*
X142444695Y-110955200D01*
X142492314Y-111002819D01*
X142778028Y-110907580D02*
X143349457Y-110907580D01*
X143063742Y-111907580D02*
X143063742Y-110907580D01*
X144254219Y-111907580D02*
X143920885Y-111431390D01*
X143682790Y-111907580D02*
X143682790Y-110907580D01*
X144063742Y-110907580D01*
X144158980Y-110955200D01*
X144206600Y-111002819D01*
X144254219Y-111098057D01*
X144254219Y-111240914D01*
X144206600Y-111336152D01*
X144158980Y-111383771D01*
X144063742Y-111431390D01*
X143682790Y-111431390D01*
X144873266Y-110907580D02*
X145063742Y-110907580D01*
X145158980Y-110955200D01*
X145254219Y-111050438D01*
X145301838Y-111240914D01*
X145301838Y-111574247D01*
X145254219Y-111764723D01*
X145158980Y-111859961D01*
X145063742Y-111907580D01*
X144873266Y-111907580D01*
X144778028Y-111859961D01*
X144682790Y-111764723D01*
X144635171Y-111574247D01*
X144635171Y-111240914D01*
X144682790Y-111050438D01*
X144778028Y-110955200D01*
X144873266Y-110907580D01*
X145730409Y-111907580D02*
X145730409Y-110907580D01*
X146301838Y-111907580D01*
X146301838Y-110907580D01*
X146778028Y-111907580D02*
X146778028Y-110907580D01*
X147825647Y-111812342D02*
X147778028Y-111859961D01*
X147635171Y-111907580D01*
X147539933Y-111907580D01*
X147397076Y-111859961D01*
X147301838Y-111764723D01*
X147254219Y-111669485D01*
X147206600Y-111479009D01*
X147206600Y-111336152D01*
X147254219Y-111145676D01*
X147301838Y-111050438D01*
X147397076Y-110955200D01*
X147539933Y-110907580D01*
X147635171Y-110907580D01*
X147778028Y-110955200D01*
X147825647Y-111002819D01*
X135635171Y-63647580D02*
X135635171Y-62647580D01*
X135873266Y-62647580D01*
X136016123Y-62695200D01*
X136111361Y-62790438D01*
X136158980Y-62885676D01*
X136206600Y-63076152D01*
X136206600Y-63219009D01*
X136158980Y-63409485D01*
X136111361Y-63504723D01*
X136016123Y-63599961D01*
X135873266Y-63647580D01*
X135635171Y-63647580D01*
X136825647Y-62647580D02*
X136920885Y-62647580D01*
X137016123Y-62695200D01*
X137063742Y-62742819D01*
X137111361Y-62838057D01*
X137158980Y-63028533D01*
X137158980Y-63266628D01*
X137111361Y-63457104D01*
X137063742Y-63552342D01*
X137016123Y-63599961D01*
X136920885Y-63647580D01*
X136825647Y-63647580D01*
X136730409Y-63599961D01*
X136682790Y-63552342D01*
X136635171Y-63457104D01*
X136587552Y-63266628D01*
X136587552Y-63028533D01*
X136635171Y-62838057D01*
X136682790Y-62742819D01*
X136730409Y-62695200D01*
X136825647Y-62647580D01*
X138111361Y-63647580D02*
X137539933Y-63647580D01*
X137825647Y-63647580D02*
X137825647Y-62647580D01*
X137730409Y-62790438D01*
X137635171Y-62885676D01*
X137539933Y-62933295D01*
X138301838Y-63742819D02*
X139063742Y-63742819D01*
X139301838Y-63123771D02*
X139635171Y-63123771D01*
X139778028Y-63647580D02*
X139301838Y-63647580D01*
X139301838Y-62647580D01*
X139778028Y-62647580D01*
X140682790Y-63647580D02*
X140206600Y-63647580D01*
X140206600Y-62647580D01*
X141016123Y-63123771D02*
X141349457Y-63123771D01*
X141492314Y-63647580D02*
X141016123Y-63647580D01*
X141016123Y-62647580D01*
X141492314Y-62647580D01*
X142492314Y-63552342D02*
X142444695Y-63599961D01*
X142301838Y-63647580D01*
X142206600Y-63647580D01*
X142063742Y-63599961D01*
X141968504Y-63504723D01*
X141920885Y-63409485D01*
X141873266Y-63219009D01*
X141873266Y-63076152D01*
X141920885Y-62885676D01*
X141968504Y-62790438D01*
X142063742Y-62695200D01*
X142206600Y-62647580D01*
X142301838Y-62647580D01*
X142444695Y-62695200D01*
X142492314Y-62742819D01*
X142778028Y-62647580D02*
X143349457Y-62647580D01*
X143063742Y-63647580D02*
X143063742Y-62647580D01*
X144254219Y-63647580D02*
X143920885Y-63171390D01*
X143682790Y-63647580D02*
X143682790Y-62647580D01*
X144063742Y-62647580D01*
X144158980Y-62695200D01*
X144206600Y-62742819D01*
X144254219Y-62838057D01*
X144254219Y-62980914D01*
X144206600Y-63076152D01*
X144158980Y-63123771D01*
X144063742Y-63171390D01*
X143682790Y-63171390D01*
X144873266Y-62647580D02*
X145063742Y-62647580D01*
X145158980Y-62695200D01*
X145254219Y-62790438D01*
X145301838Y-62980914D01*
X145301838Y-63314247D01*
X145254219Y-63504723D01*
X145158980Y-63599961D01*
X145063742Y-63647580D01*
X144873266Y-63647580D01*
X144778028Y-63599961D01*
X144682790Y-63504723D01*
X144635171Y-63314247D01*
X144635171Y-62980914D01*
X144682790Y-62790438D01*
X144778028Y-62695200D01*
X144873266Y-62647580D01*
X145730409Y-63647580D02*
X145730409Y-62647580D01*
X146301838Y-63647580D01*
X146301838Y-62647580D01*
X146778028Y-63647580D02*
X146778028Y-62647580D01*
X147825647Y-63552342D02*
X147778028Y-63599961D01*
X147635171Y-63647580D01*
X147539933Y-63647580D01*
X147397076Y-63599961D01*
X147301838Y-63504723D01*
X147254219Y-63409485D01*
X147206600Y-63219009D01*
X147206600Y-63076152D01*
X147254219Y-62885676D01*
X147301838Y-62790438D01*
X147397076Y-62695200D01*
X147539933Y-62647580D01*
X147635171Y-62647580D01*
X147778028Y-62695200D01*
X147825647Y-62742819D01*
D11*
G36*
X142135414Y-99322931D02*
G01*
X142219235Y-99767555D01*
X142528520Y-99895053D01*
X142837806Y-100022551D01*
X143208846Y-99770246D01*
X143312757Y-99699996D01*
X143406687Y-99637272D01*
X143486252Y-99584938D01*
X143547070Y-99545857D01*
X143584757Y-99522893D01*
X143595021Y-99517942D01*
X143613510Y-99530676D01*
X143653020Y-99565882D01*
X143709122Y-99619062D01*
X143777387Y-99685718D01*
X143853386Y-99761354D01*
X143932692Y-99841472D01*
X144010875Y-99921574D01*
X144083507Y-99997164D01*
X144146159Y-100063745D01*
X144194403Y-100116818D01*
X144223810Y-100151887D01*
X144230841Y-100163623D01*
X144220723Y-100185260D01*
X144192359Y-100232662D01*
X144148729Y-100301193D01*
X144092818Y-100386215D01*
X144027606Y-100483093D01*
X143989819Y-100538350D01*
X143920943Y-100639248D01*
X143859740Y-100730299D01*
X143809178Y-100806970D01*
X143772228Y-100864728D01*
X143751858Y-100899043D01*
X143748797Y-100906254D01*
X143755736Y-100926748D01*
X143774651Y-100974513D01*
X143802687Y-101042832D01*
X143836991Y-101124989D01*
X143874709Y-101214270D01*
X143912987Y-101303958D01*
X143948970Y-101387338D01*
X143979806Y-101457694D01*
X144002639Y-101508310D01*
X144014617Y-101532471D01*
X144015324Y-101533422D01*
X144034131Y-101538036D01*
X144084218Y-101548328D01*
X144160393Y-101563287D01*
X144257465Y-101581901D01*
X144370243Y-101603159D01*
X144436042Y-101615418D01*
X144556550Y-101638362D01*
X144665397Y-101660195D01*
X144757076Y-101679722D01*
X144826081Y-101695748D01*
X144866904Y-101707079D01*
X144875111Y-101710674D01*
X144883148Y-101735006D01*
X144889633Y-101789959D01*
X144894570Y-101869108D01*
X144897964Y-101966026D01*
X144899818Y-102074287D01*
X144900138Y-102187465D01*
X144898927Y-102299135D01*
X144896190Y-102402868D01*
X144891931Y-102492241D01*
X144886155Y-102560826D01*
X144878867Y-102602197D01*
X144874495Y-102610810D01*
X144848364Y-102621133D01*
X144792993Y-102635892D01*
X144715707Y-102653352D01*
X144623830Y-102671780D01*
X144591758Y-102677741D01*
X144437124Y-102706066D01*
X144314975Y-102728876D01*
X144221273Y-102747080D01*
X144151984Y-102761583D01*
X144103071Y-102773292D01*
X144070497Y-102783115D01*
X144050228Y-102791956D01*
X144038226Y-102800724D01*
X144036547Y-102802457D01*
X144019784Y-102830371D01*
X143994214Y-102884695D01*
X143962388Y-102958777D01*
X143926860Y-103045965D01*
X143890183Y-103139608D01*
X143854911Y-103233052D01*
X143823596Y-103319647D01*
X143798793Y-103392740D01*
X143783054Y-103445678D01*
X143778932Y-103471811D01*
X143779276Y-103472726D01*
X143793241Y-103494086D01*
X143824922Y-103541084D01*
X143870991Y-103608827D01*
X143928118Y-103692423D01*
X143992973Y-103786982D01*
X144011443Y-103813854D01*
X144077299Y-103911275D01*
X144135250Y-104000163D01*
X144182138Y-104075412D01*
X144214807Y-104131920D01*
X144230100Y-104164581D01*
X144230841Y-104168593D01*
X144217992Y-104189684D01*
X144182488Y-104231464D01*
X144128893Y-104289445D01*
X144061771Y-104359135D01*
X143985687Y-104436045D01*
X143905204Y-104515683D01*
X143824887Y-104593561D01*
X143749299Y-104665186D01*
X143683005Y-104726070D01*
X143630569Y-104771721D01*
X143596555Y-104797650D01*
X143587145Y-104801883D01*
X143565243Y-104791912D01*
X143520400Y-104765020D01*
X143459921Y-104725736D01*
X143413389Y-104694117D01*
X143329075Y-104636098D01*
X143229226Y-104567784D01*
X143129073Y-104499579D01*
X143075227Y-104463075D01*
X142892971Y-104339800D01*
X142739981Y-104422520D01*
X142670282Y-104458759D01*
X142611014Y-104486926D01*
X142570911Y-104502991D01*
X142560703Y-104505226D01*
X142548429Y-104488722D01*
X142524213Y-104442082D01*
X142489863Y-104369609D01*
X142447188Y-104275606D01*
X142397994Y-104164374D01*
X142344090Y-104040215D01*
X142287284Y-103907432D01*
X142229382Y-103770327D01*
X142172193Y-103633202D01*
X142117524Y-103500358D01*
X142067184Y-103376098D01*
X142022980Y-103264725D01*
X141986719Y-103170539D01*
X141960209Y-103097844D01*
X141945258Y-103050941D01*
X141942854Y-103034833D01*
X141961911Y-103014286D01*
X142003636Y-102980933D01*
X142059306Y-102941702D01*
X142063978Y-102938599D01*
X142207864Y-102823423D01*
X142323883Y-102689053D01*
X142411030Y-102539784D01*
X142468299Y-102379913D01*
X142494686Y-102213737D01*
X142489185Y-102045552D01*
X142450790Y-101879655D01*
X142378495Y-101720342D01*
X142357226Y-101685487D01*
X142246596Y-101544737D01*
X142115902Y-101431714D01*
X141969664Y-101347003D01*
X141812408Y-101291194D01*
X141648657Y-101264874D01*
X141482933Y-101268630D01*
X141319762Y-101303050D01*
X141163665Y-101368723D01*
X141019167Y-101466235D01*
X140974469Y-101505813D01*
X140860712Y-101629703D01*
X140777818Y-101760124D01*
X140720956Y-101906315D01*
X140689287Y-102051088D01*
X140681469Y-102213860D01*
X140707538Y-102377440D01*
X140764845Y-102536298D01*
X140850744Y-102684906D01*
X140962586Y-102817735D01*
X141097723Y-102929256D01*
X141115483Y-102941011D01*
X141171750Y-102979508D01*
X141214523Y-103012863D01*
X141234972Y-103034160D01*
X141235269Y-103034833D01*
X141230879Y-103057871D01*
X141213476Y-103110157D01*
X141184868Y-103187390D01*
X141146865Y-103285268D01*
X141101274Y-103399491D01*
X141049903Y-103525758D01*
X140994562Y-103659767D01*
X140937058Y-103797218D01*
X140879201Y-103933808D01*
X140822798Y-104065237D01*
X140769658Y-104187205D01*
X140721590Y-104295409D01*
X140680401Y-104385549D01*
X140647901Y-104453323D01*
X140625897Y-104494430D01*
X140617036Y-104505226D01*
X140589960Y-104496819D01*
X140539297Y-104474272D01*
X140473783Y-104441613D01*
X140437759Y-104422520D01*
X140284768Y-104339800D01*
X140102512Y-104463075D01*
X140009475Y-104526228D01*
X139907615Y-104595727D01*
X139812162Y-104661165D01*
X139764350Y-104694117D01*
X139697105Y-104739273D01*
X139640164Y-104775057D01*
X139600954Y-104796938D01*
X139588219Y-104801563D01*
X139569683Y-104789085D01*
X139528659Y-104754252D01*
X139469125Y-104700678D01*
X139395058Y-104631983D01*
X139310435Y-104551781D01*
X139256915Y-104500286D01*
X139163281Y-104408286D01*
X139082359Y-104325999D01*
X139017423Y-104256945D01*
X138971742Y-104204644D01*
X138948589Y-104172616D01*
X138946368Y-104166116D01*
X138956676Y-104141394D01*
X138985161Y-104091405D01*
X139028663Y-104021212D01*
X139084023Y-103935875D01*
X139148080Y-103840456D01*
X139166297Y-103813854D01*
X139232673Y-103717167D01*
X139292222Y-103630117D01*
X139341616Y-103557595D01*
X139377525Y-103504493D01*
X139396619Y-103475703D01*
X139398464Y-103472726D01*
X139395705Y-103449782D01*
X139381062Y-103399336D01*
X139357087Y-103328041D01*
X139326334Y-103242547D01*
X139291356Y-103149507D01*
X139254707Y-103055574D01*
X139218939Y-102967399D01*
X139186606Y-102891634D01*
X139160262Y-102834931D01*
X139142458Y-102803943D01*
X139141193Y-102802457D01*
X139130306Y-102793601D01*
X139111918Y-102784843D01*
X139081994Y-102775277D01*
X139036497Y-102763996D01*
X138971391Y-102750093D01*
X138882639Y-102732663D01*
X138766207Y-102710798D01*
X138618058Y-102683591D01*
X138585982Y-102677741D01*
X138490914Y-102659374D01*
X138408035Y-102641405D01*
X138344670Y-102625569D01*
X138308142Y-102613600D01*
X138303244Y-102610810D01*
X138295173Y-102586072D01*
X138288613Y-102530790D01*
X138283567Y-102451389D01*
X138280041Y-102354296D01*
X138278039Y-102245938D01*
X138277564Y-102132740D01*
X138278623Y-102021128D01*
X138281218Y-101917529D01*
X138285354Y-101828368D01*
X138291037Y-101760072D01*
X138298269Y-101719066D01*
X138302629Y-101710674D01*
X138326902Y-101702208D01*
X138382174Y-101688435D01*
X138462938Y-101670550D01*
X138563688Y-101649748D01*
X138678917Y-101627223D01*
X138741698Y-101615418D01*
X138860813Y-101593151D01*
X138967035Y-101572979D01*
X139055173Y-101555915D01*
X139120034Y-101542969D01*
X139156426Y-101535155D01*
X139162416Y-101533422D01*
X139172539Y-101513890D01*
X139193938Y-101466843D01*
X139223761Y-101399003D01*
X139259155Y-101317091D01*
X139297268Y-101227828D01*
X139335247Y-101137935D01*
X139370240Y-101054135D01*
X139399394Y-100983147D01*
X139419857Y-100931694D01*
X139428777Y-100906497D01*
X139428943Y-100905396D01*
X139418831Y-100885519D01*
X139390483Y-100839777D01*
X139346877Y-100772717D01*
X139290994Y-100688884D01*
X139225813Y-100592826D01*
X139187921Y-100537650D01*
X139118875Y-100436481D01*
X139057550Y-100344630D01*
X139006937Y-100266744D01*
X138970029Y-100207469D01*
X138949818Y-100171451D01*
X138946899Y-100163377D01*
X138959447Y-100144584D01*
X138994137Y-100104457D01*
X139046537Y-100047493D01*
X139112216Y-99978185D01*
X139186744Y-99901031D01*
X139265687Y-99820525D01*
X139344617Y-99741163D01*
X139419100Y-99667440D01*
X139484706Y-99603852D01*
X139537004Y-99554894D01*
X139571561Y-99525061D01*
X139583122Y-99517942D01*
X139601946Y-99527953D01*
X139646969Y-99556078D01*
X139713813Y-99599454D01*
X139798101Y-99655218D01*
X139895456Y-99720506D01*
X139968893Y-99770246D01*
X140339933Y-100022551D01*
X140958505Y-99767555D01*
X141042325Y-99322931D01*
X141126146Y-98878307D01*
X142051594Y-98878307D01*
X142135414Y-99322931D01*
G37*
X142135414Y-99322931D02*
X142219235Y-99767555D01*
X142528520Y-99895053D01*
X142837806Y-100022551D01*
X143208846Y-99770246D01*
X143312757Y-99699996D01*
X143406687Y-99637272D01*
X143486252Y-99584938D01*
X143547070Y-99545857D01*
X143584757Y-99522893D01*
X143595021Y-99517942D01*
X143613510Y-99530676D01*
X143653020Y-99565882D01*
X143709122Y-99619062D01*
X143777387Y-99685718D01*
X143853386Y-99761354D01*
X143932692Y-99841472D01*
X144010875Y-99921574D01*
X144083507Y-99997164D01*
X144146159Y-100063745D01*
X144194403Y-100116818D01*
X144223810Y-100151887D01*
X144230841Y-100163623D01*
X144220723Y-100185260D01*
X144192359Y-100232662D01*
X144148729Y-100301193D01*
X144092818Y-100386215D01*
X144027606Y-100483093D01*
X143989819Y-100538350D01*
X143920943Y-100639248D01*
X143859740Y-100730299D01*
X143809178Y-100806970D01*
X143772228Y-100864728D01*
X143751858Y-100899043D01*
X143748797Y-100906254D01*
X143755736Y-100926748D01*
X143774651Y-100974513D01*
X143802687Y-101042832D01*
X143836991Y-101124989D01*
X143874709Y-101214270D01*
X143912987Y-101303958D01*
X143948970Y-101387338D01*
X143979806Y-101457694D01*
X144002639Y-101508310D01*
X144014617Y-101532471D01*
X144015324Y-101533422D01*
X144034131Y-101538036D01*
X144084218Y-101548328D01*
X144160393Y-101563287D01*
X144257465Y-101581901D01*
X144370243Y-101603159D01*
X144436042Y-101615418D01*
X144556550Y-101638362D01*
X144665397Y-101660195D01*
X144757076Y-101679722D01*
X144826081Y-101695748D01*
X144866904Y-101707079D01*
X144875111Y-101710674D01*
X144883148Y-101735006D01*
X144889633Y-101789959D01*
X144894570Y-101869108D01*
X144897964Y-101966026D01*
X144899818Y-102074287D01*
X144900138Y-102187465D01*
X144898927Y-102299135D01*
X144896190Y-102402868D01*
X144891931Y-102492241D01*
X144886155Y-102560826D01*
X144878867Y-102602197D01*
X144874495Y-102610810D01*
X144848364Y-102621133D01*
X144792993Y-102635892D01*
X144715707Y-102653352D01*
X144623830Y-102671780D01*
X144591758Y-102677741D01*
X144437124Y-102706066D01*
X144314975Y-102728876D01*
X144221273Y-102747080D01*
X144151984Y-102761583D01*
X144103071Y-102773292D01*
X144070497Y-102783115D01*
X144050228Y-102791956D01*
X144038226Y-102800724D01*
X144036547Y-102802457D01*
X144019784Y-102830371D01*
X143994214Y-102884695D01*
X143962388Y-102958777D01*
X143926860Y-103045965D01*
X143890183Y-103139608D01*
X143854911Y-103233052D01*
X143823596Y-103319647D01*
X143798793Y-103392740D01*
X143783054Y-103445678D01*
X143778932Y-103471811D01*
X143779276Y-103472726D01*
X143793241Y-103494086D01*
X143824922Y-103541084D01*
X143870991Y-103608827D01*
X143928118Y-103692423D01*
X143992973Y-103786982D01*
X144011443Y-103813854D01*
X144077299Y-103911275D01*
X144135250Y-104000163D01*
X144182138Y-104075412D01*
X144214807Y-104131920D01*
X144230100Y-104164581D01*
X144230841Y-104168593D01*
X144217992Y-104189684D01*
X144182488Y-104231464D01*
X144128893Y-104289445D01*
X144061771Y-104359135D01*
X143985687Y-104436045D01*
X143905204Y-104515683D01*
X143824887Y-104593561D01*
X143749299Y-104665186D01*
X143683005Y-104726070D01*
X143630569Y-104771721D01*
X143596555Y-104797650D01*
X143587145Y-104801883D01*
X143565243Y-104791912D01*
X143520400Y-104765020D01*
X143459921Y-104725736D01*
X143413389Y-104694117D01*
X143329075Y-104636098D01*
X143229226Y-104567784D01*
X143129073Y-104499579D01*
X143075227Y-104463075D01*
X142892971Y-104339800D01*
X142739981Y-104422520D01*
X142670282Y-104458759D01*
X142611014Y-104486926D01*
X142570911Y-104502991D01*
X142560703Y-104505226D01*
X142548429Y-104488722D01*
X142524213Y-104442082D01*
X142489863Y-104369609D01*
X142447188Y-104275606D01*
X142397994Y-104164374D01*
X142344090Y-104040215D01*
X142287284Y-103907432D01*
X142229382Y-103770327D01*
X142172193Y-103633202D01*
X142117524Y-103500358D01*
X142067184Y-103376098D01*
X142022980Y-103264725D01*
X141986719Y-103170539D01*
X141960209Y-103097844D01*
X141945258Y-103050941D01*
X141942854Y-103034833D01*
X141961911Y-103014286D01*
X142003636Y-102980933D01*
X142059306Y-102941702D01*
X142063978Y-102938599D01*
X142207864Y-102823423D01*
X142323883Y-102689053D01*
X142411030Y-102539784D01*
X142468299Y-102379913D01*
X142494686Y-102213737D01*
X142489185Y-102045552D01*
X142450790Y-101879655D01*
X142378495Y-101720342D01*
X142357226Y-101685487D01*
X142246596Y-101544737D01*
X142115902Y-101431714D01*
X141969664Y-101347003D01*
X141812408Y-101291194D01*
X141648657Y-101264874D01*
X141482933Y-101268630D01*
X141319762Y-101303050D01*
X141163665Y-101368723D01*
X141019167Y-101466235D01*
X140974469Y-101505813D01*
X140860712Y-101629703D01*
X140777818Y-101760124D01*
X140720956Y-101906315D01*
X140689287Y-102051088D01*
X140681469Y-102213860D01*
X140707538Y-102377440D01*
X140764845Y-102536298D01*
X140850744Y-102684906D01*
X140962586Y-102817735D01*
X141097723Y-102929256D01*
X141115483Y-102941011D01*
X141171750Y-102979508D01*
X141214523Y-103012863D01*
X141234972Y-103034160D01*
X141235269Y-103034833D01*
X141230879Y-103057871D01*
X141213476Y-103110157D01*
X141184868Y-103187390D01*
X141146865Y-103285268D01*
X141101274Y-103399491D01*
X141049903Y-103525758D01*
X140994562Y-103659767D01*
X140937058Y-103797218D01*
X140879201Y-103933808D01*
X140822798Y-104065237D01*
X140769658Y-104187205D01*
X140721590Y-104295409D01*
X140680401Y-104385549D01*
X140647901Y-104453323D01*
X140625897Y-104494430D01*
X140617036Y-104505226D01*
X140589960Y-104496819D01*
X140539297Y-104474272D01*
X140473783Y-104441613D01*
X140437759Y-104422520D01*
X140284768Y-104339800D01*
X140102512Y-104463075D01*
X140009475Y-104526228D01*
X139907615Y-104595727D01*
X139812162Y-104661165D01*
X139764350Y-104694117D01*
X139697105Y-104739273D01*
X139640164Y-104775057D01*
X139600954Y-104796938D01*
X139588219Y-104801563D01*
X139569683Y-104789085D01*
X139528659Y-104754252D01*
X139469125Y-104700678D01*
X139395058Y-104631983D01*
X139310435Y-104551781D01*
X139256915Y-104500286D01*
X139163281Y-104408286D01*
X139082359Y-104325999D01*
X139017423Y-104256945D01*
X138971742Y-104204644D01*
X138948589Y-104172616D01*
X138946368Y-104166116D01*
X138956676Y-104141394D01*
X138985161Y-104091405D01*
X139028663Y-104021212D01*
X139084023Y-103935875D01*
X139148080Y-103840456D01*
X139166297Y-103813854D01*
X139232673Y-103717167D01*
X139292222Y-103630117D01*
X139341616Y-103557595D01*
X139377525Y-103504493D01*
X139396619Y-103475703D01*
X139398464Y-103472726D01*
X139395705Y-103449782D01*
X139381062Y-103399336D01*
X139357087Y-103328041D01*
X139326334Y-103242547D01*
X139291356Y-103149507D01*
X139254707Y-103055574D01*
X139218939Y-102967399D01*
X139186606Y-102891634D01*
X139160262Y-102834931D01*
X139142458Y-102803943D01*
X139141193Y-102802457D01*
X139130306Y-102793601D01*
X139111918Y-102784843D01*
X139081994Y-102775277D01*
X139036497Y-102763996D01*
X138971391Y-102750093D01*
X138882639Y-102732663D01*
X138766207Y-102710798D01*
X138618058Y-102683591D01*
X138585982Y-102677741D01*
X138490914Y-102659374D01*
X138408035Y-102641405D01*
X138344670Y-102625569D01*
X138308142Y-102613600D01*
X138303244Y-102610810D01*
X138295173Y-102586072D01*
X138288613Y-102530790D01*
X138283567Y-102451389D01*
X138280041Y-102354296D01*
X138278039Y-102245938D01*
X138277564Y-102132740D01*
X138278623Y-102021128D01*
X138281218Y-101917529D01*
X138285354Y-101828368D01*
X138291037Y-101760072D01*
X138298269Y-101719066D01*
X138302629Y-101710674D01*
X138326902Y-101702208D01*
X138382174Y-101688435D01*
X138462938Y-101670550D01*
X138563688Y-101649748D01*
X138678917Y-101627223D01*
X138741698Y-101615418D01*
X138860813Y-101593151D01*
X138967035Y-101572979D01*
X139055173Y-101555915D01*
X139120034Y-101542969D01*
X139156426Y-101535155D01*
X139162416Y-101533422D01*
X139172539Y-101513890D01*
X139193938Y-101466843D01*
X139223761Y-101399003D01*
X139259155Y-101317091D01*
X139297268Y-101227828D01*
X139335247Y-101137935D01*
X139370240Y-101054135D01*
X139399394Y-100983147D01*
X139419857Y-100931694D01*
X139428777Y-100906497D01*
X139428943Y-100905396D01*
X139418831Y-100885519D01*
X139390483Y-100839777D01*
X139346877Y-100772717D01*
X139290994Y-100688884D01*
X139225813Y-100592826D01*
X139187921Y-100537650D01*
X139118875Y-100436481D01*
X139057550Y-100344630D01*
X139006937Y-100266744D01*
X138970029Y-100207469D01*
X138949818Y-100171451D01*
X138946899Y-100163377D01*
X138959447Y-100144584D01*
X138994137Y-100104457D01*
X139046537Y-100047493D01*
X139112216Y-99978185D01*
X139186744Y-99901031D01*
X139265687Y-99820525D01*
X139344617Y-99741163D01*
X139419100Y-99667440D01*
X139484706Y-99603852D01*
X139537004Y-99554894D01*
X139571561Y-99525061D01*
X139583122Y-99517942D01*
X139601946Y-99527953D01*
X139646969Y-99556078D01*
X139713813Y-99599454D01*
X139798101Y-99655218D01*
X139895456Y-99720506D01*
X139968893Y-99770246D01*
X140339933Y-100022551D01*
X140958505Y-99767555D01*
X141042325Y-99322931D01*
X141126146Y-98878307D01*
X142051594Y-98878307D01*
X142135414Y-99322931D01*
G36*
X142135414Y-51062931D02*
G01*
X142219235Y-51507555D01*
X142528520Y-51635053D01*
X142837806Y-51762551D01*
X143208846Y-51510246D01*
X143312757Y-51439996D01*
X143406687Y-51377272D01*
X143486252Y-51324938D01*
X143547070Y-51285857D01*
X143584757Y-51262893D01*
X143595021Y-51257942D01*
X143613510Y-51270676D01*
X143653020Y-51305882D01*
X143709122Y-51359062D01*
X143777387Y-51425718D01*
X143853386Y-51501354D01*
X143932692Y-51581472D01*
X144010875Y-51661574D01*
X144083507Y-51737164D01*
X144146159Y-51803745D01*
X144194403Y-51856818D01*
X144223810Y-51891887D01*
X144230841Y-51903623D01*
X144220723Y-51925260D01*
X144192359Y-51972662D01*
X144148729Y-52041193D01*
X144092818Y-52126215D01*
X144027606Y-52223093D01*
X143989819Y-52278350D01*
X143920943Y-52379248D01*
X143859740Y-52470299D01*
X143809178Y-52546970D01*
X143772228Y-52604728D01*
X143751858Y-52639043D01*
X143748797Y-52646254D01*
X143755736Y-52666748D01*
X143774651Y-52714513D01*
X143802687Y-52782832D01*
X143836991Y-52864989D01*
X143874709Y-52954270D01*
X143912987Y-53043958D01*
X143948970Y-53127338D01*
X143979806Y-53197694D01*
X144002639Y-53248310D01*
X144014617Y-53272471D01*
X144015324Y-53273422D01*
X144034131Y-53278036D01*
X144084218Y-53288328D01*
X144160393Y-53303287D01*
X144257465Y-53321901D01*
X144370243Y-53343159D01*
X144436042Y-53355418D01*
X144556550Y-53378362D01*
X144665397Y-53400195D01*
X144757076Y-53419722D01*
X144826081Y-53435748D01*
X144866904Y-53447079D01*
X144875111Y-53450674D01*
X144883148Y-53475006D01*
X144889633Y-53529959D01*
X144894570Y-53609108D01*
X144897964Y-53706026D01*
X144899818Y-53814287D01*
X144900138Y-53927465D01*
X144898927Y-54039135D01*
X144896190Y-54142868D01*
X144891931Y-54232241D01*
X144886155Y-54300826D01*
X144878867Y-54342197D01*
X144874495Y-54350810D01*
X144848364Y-54361133D01*
X144792993Y-54375892D01*
X144715707Y-54393352D01*
X144623830Y-54411780D01*
X144591758Y-54417741D01*
X144437124Y-54446066D01*
X144314975Y-54468876D01*
X144221273Y-54487080D01*
X144151984Y-54501583D01*
X144103071Y-54513292D01*
X144070497Y-54523115D01*
X144050228Y-54531956D01*
X144038226Y-54540724D01*
X144036547Y-54542457D01*
X144019784Y-54570371D01*
X143994214Y-54624695D01*
X143962388Y-54698777D01*
X143926860Y-54785965D01*
X143890183Y-54879608D01*
X143854911Y-54973052D01*
X143823596Y-55059647D01*
X143798793Y-55132740D01*
X143783054Y-55185678D01*
X143778932Y-55211811D01*
X143779276Y-55212726D01*
X143793241Y-55234086D01*
X143824922Y-55281084D01*
X143870991Y-55348827D01*
X143928118Y-55432423D01*
X143992973Y-55526982D01*
X144011443Y-55553854D01*
X144077299Y-55651275D01*
X144135250Y-55740163D01*
X144182138Y-55815412D01*
X144214807Y-55871920D01*
X144230100Y-55904581D01*
X144230841Y-55908593D01*
X144217992Y-55929684D01*
X144182488Y-55971464D01*
X144128893Y-56029445D01*
X144061771Y-56099135D01*
X143985687Y-56176045D01*
X143905204Y-56255683D01*
X143824887Y-56333561D01*
X143749299Y-56405186D01*
X143683005Y-56466070D01*
X143630569Y-56511721D01*
X143596555Y-56537650D01*
X143587145Y-56541883D01*
X143565243Y-56531912D01*
X143520400Y-56505020D01*
X143459921Y-56465736D01*
X143413389Y-56434117D01*
X143329075Y-56376098D01*
X143229226Y-56307784D01*
X143129073Y-56239579D01*
X143075227Y-56203075D01*
X142892971Y-56079800D01*
X142739981Y-56162520D01*
X142670282Y-56198759D01*
X142611014Y-56226926D01*
X142570911Y-56242991D01*
X142560703Y-56245226D01*
X142548429Y-56228722D01*
X142524213Y-56182082D01*
X142489863Y-56109609D01*
X142447188Y-56015606D01*
X142397994Y-55904374D01*
X142344090Y-55780215D01*
X142287284Y-55647432D01*
X142229382Y-55510327D01*
X142172193Y-55373202D01*
X142117524Y-55240358D01*
X142067184Y-55116098D01*
X142022980Y-55004725D01*
X141986719Y-54910539D01*
X141960209Y-54837844D01*
X141945258Y-54790941D01*
X141942854Y-54774833D01*
X141961911Y-54754286D01*
X142003636Y-54720933D01*
X142059306Y-54681702D01*
X142063978Y-54678599D01*
X142207864Y-54563423D01*
X142323883Y-54429053D01*
X142411030Y-54279784D01*
X142468299Y-54119913D01*
X142494686Y-53953737D01*
X142489185Y-53785552D01*
X142450790Y-53619655D01*
X142378495Y-53460342D01*
X142357226Y-53425487D01*
X142246596Y-53284737D01*
X142115902Y-53171714D01*
X141969664Y-53087003D01*
X141812408Y-53031194D01*
X141648657Y-53004874D01*
X141482933Y-53008630D01*
X141319762Y-53043050D01*
X141163665Y-53108723D01*
X141019167Y-53206235D01*
X140974469Y-53245813D01*
X140860712Y-53369703D01*
X140777818Y-53500124D01*
X140720956Y-53646315D01*
X140689287Y-53791088D01*
X140681469Y-53953860D01*
X140707538Y-54117440D01*
X140764845Y-54276298D01*
X140850744Y-54424906D01*
X140962586Y-54557735D01*
X141097723Y-54669256D01*
X141115483Y-54681011D01*
X141171750Y-54719508D01*
X141214523Y-54752863D01*
X141234972Y-54774160D01*
X141235269Y-54774833D01*
X141230879Y-54797871D01*
X141213476Y-54850157D01*
X141184868Y-54927390D01*
X141146865Y-55025268D01*
X141101274Y-55139491D01*
X141049903Y-55265758D01*
X140994562Y-55399767D01*
X140937058Y-55537218D01*
X140879201Y-55673808D01*
X140822798Y-55805237D01*
X140769658Y-55927205D01*
X140721590Y-56035409D01*
X140680401Y-56125549D01*
X140647901Y-56193323D01*
X140625897Y-56234430D01*
X140617036Y-56245226D01*
X140589960Y-56236819D01*
X140539297Y-56214272D01*
X140473783Y-56181613D01*
X140437759Y-56162520D01*
X140284768Y-56079800D01*
X140102512Y-56203075D01*
X140009475Y-56266228D01*
X139907615Y-56335727D01*
X139812162Y-56401165D01*
X139764350Y-56434117D01*
X139697105Y-56479273D01*
X139640164Y-56515057D01*
X139600954Y-56536938D01*
X139588219Y-56541563D01*
X139569683Y-56529085D01*
X139528659Y-56494252D01*
X139469125Y-56440678D01*
X139395058Y-56371983D01*
X139310435Y-56291781D01*
X139256915Y-56240286D01*
X139163281Y-56148286D01*
X139082359Y-56065999D01*
X139017423Y-55996945D01*
X138971742Y-55944644D01*
X138948589Y-55912616D01*
X138946368Y-55906116D01*
X138956676Y-55881394D01*
X138985161Y-55831405D01*
X139028663Y-55761212D01*
X139084023Y-55675875D01*
X139148080Y-55580456D01*
X139166297Y-55553854D01*
X139232673Y-55457167D01*
X139292222Y-55370117D01*
X139341616Y-55297595D01*
X139377525Y-55244493D01*
X139396619Y-55215703D01*
X139398464Y-55212726D01*
X139395705Y-55189782D01*
X139381062Y-55139336D01*
X139357087Y-55068041D01*
X139326334Y-54982547D01*
X139291356Y-54889507D01*
X139254707Y-54795574D01*
X139218939Y-54707399D01*
X139186606Y-54631634D01*
X139160262Y-54574931D01*
X139142458Y-54543943D01*
X139141193Y-54542457D01*
X139130306Y-54533601D01*
X139111918Y-54524843D01*
X139081994Y-54515277D01*
X139036497Y-54503996D01*
X138971391Y-54490093D01*
X138882639Y-54472663D01*
X138766207Y-54450798D01*
X138618058Y-54423591D01*
X138585982Y-54417741D01*
X138490914Y-54399374D01*
X138408035Y-54381405D01*
X138344670Y-54365569D01*
X138308142Y-54353600D01*
X138303244Y-54350810D01*
X138295173Y-54326072D01*
X138288613Y-54270790D01*
X138283567Y-54191389D01*
X138280041Y-54094296D01*
X138278039Y-53985938D01*
X138277564Y-53872740D01*
X138278623Y-53761128D01*
X138281218Y-53657529D01*
X138285354Y-53568368D01*
X138291037Y-53500072D01*
X138298269Y-53459066D01*
X138302629Y-53450674D01*
X138326902Y-53442208D01*
X138382174Y-53428435D01*
X138462938Y-53410550D01*
X138563688Y-53389748D01*
X138678917Y-53367223D01*
X138741698Y-53355418D01*
X138860813Y-53333151D01*
X138967035Y-53312979D01*
X139055173Y-53295915D01*
X139120034Y-53282969D01*
X139156426Y-53275155D01*
X139162416Y-53273422D01*
X139172539Y-53253890D01*
X139193938Y-53206843D01*
X139223761Y-53139003D01*
X139259155Y-53057091D01*
X139297268Y-52967828D01*
X139335247Y-52877935D01*
X139370240Y-52794135D01*
X139399394Y-52723147D01*
X139419857Y-52671694D01*
X139428777Y-52646497D01*
X139428943Y-52645396D01*
X139418831Y-52625519D01*
X139390483Y-52579777D01*
X139346877Y-52512717D01*
X139290994Y-52428884D01*
X139225813Y-52332826D01*
X139187921Y-52277650D01*
X139118875Y-52176481D01*
X139057550Y-52084630D01*
X139006937Y-52006744D01*
X138970029Y-51947469D01*
X138949818Y-51911451D01*
X138946899Y-51903377D01*
X138959447Y-51884584D01*
X138994137Y-51844457D01*
X139046537Y-51787493D01*
X139112216Y-51718185D01*
X139186744Y-51641031D01*
X139265687Y-51560525D01*
X139344617Y-51481163D01*
X139419100Y-51407440D01*
X139484706Y-51343852D01*
X139537004Y-51294894D01*
X139571561Y-51265061D01*
X139583122Y-51257942D01*
X139601946Y-51267953D01*
X139646969Y-51296078D01*
X139713813Y-51339454D01*
X139798101Y-51395218D01*
X139895456Y-51460506D01*
X139968893Y-51510246D01*
X140339933Y-51762551D01*
X140958505Y-51507555D01*
X141042325Y-51062931D01*
X141126146Y-50618307D01*
X142051594Y-50618307D01*
X142135414Y-51062931D01*
G37*
X142135414Y-51062931D02*
X142219235Y-51507555D01*
X142528520Y-51635053D01*
X142837806Y-51762551D01*
X143208846Y-51510246D01*
X143312757Y-51439996D01*
X143406687Y-51377272D01*
X143486252Y-51324938D01*
X143547070Y-51285857D01*
X143584757Y-51262893D01*
X143595021Y-51257942D01*
X143613510Y-51270676D01*
X143653020Y-51305882D01*
X143709122Y-51359062D01*
X143777387Y-51425718D01*
X143853386Y-51501354D01*
X143932692Y-51581472D01*
X144010875Y-51661574D01*
X144083507Y-51737164D01*
X144146159Y-51803745D01*
X144194403Y-51856818D01*
X144223810Y-51891887D01*
X144230841Y-51903623D01*
X144220723Y-51925260D01*
X144192359Y-51972662D01*
X144148729Y-52041193D01*
X144092818Y-52126215D01*
X144027606Y-52223093D01*
X143989819Y-52278350D01*
X143920943Y-52379248D01*
X143859740Y-52470299D01*
X143809178Y-52546970D01*
X143772228Y-52604728D01*
X143751858Y-52639043D01*
X143748797Y-52646254D01*
X143755736Y-52666748D01*
X143774651Y-52714513D01*
X143802687Y-52782832D01*
X143836991Y-52864989D01*
X143874709Y-52954270D01*
X143912987Y-53043958D01*
X143948970Y-53127338D01*
X143979806Y-53197694D01*
X144002639Y-53248310D01*
X144014617Y-53272471D01*
X144015324Y-53273422D01*
X144034131Y-53278036D01*
X144084218Y-53288328D01*
X144160393Y-53303287D01*
X144257465Y-53321901D01*
X144370243Y-53343159D01*
X144436042Y-53355418D01*
X144556550Y-53378362D01*
X144665397Y-53400195D01*
X144757076Y-53419722D01*
X144826081Y-53435748D01*
X144866904Y-53447079D01*
X144875111Y-53450674D01*
X144883148Y-53475006D01*
X144889633Y-53529959D01*
X144894570Y-53609108D01*
X144897964Y-53706026D01*
X144899818Y-53814287D01*
X144900138Y-53927465D01*
X144898927Y-54039135D01*
X144896190Y-54142868D01*
X144891931Y-54232241D01*
X144886155Y-54300826D01*
X144878867Y-54342197D01*
X144874495Y-54350810D01*
X144848364Y-54361133D01*
X144792993Y-54375892D01*
X144715707Y-54393352D01*
X144623830Y-54411780D01*
X144591758Y-54417741D01*
X144437124Y-54446066D01*
X144314975Y-54468876D01*
X144221273Y-54487080D01*
X144151984Y-54501583D01*
X144103071Y-54513292D01*
X144070497Y-54523115D01*
X144050228Y-54531956D01*
X144038226Y-54540724D01*
X144036547Y-54542457D01*
X144019784Y-54570371D01*
X143994214Y-54624695D01*
X143962388Y-54698777D01*
X143926860Y-54785965D01*
X143890183Y-54879608D01*
X143854911Y-54973052D01*
X143823596Y-55059647D01*
X143798793Y-55132740D01*
X143783054Y-55185678D01*
X143778932Y-55211811D01*
X143779276Y-55212726D01*
X143793241Y-55234086D01*
X143824922Y-55281084D01*
X143870991Y-55348827D01*
X143928118Y-55432423D01*
X143992973Y-55526982D01*
X144011443Y-55553854D01*
X144077299Y-55651275D01*
X144135250Y-55740163D01*
X144182138Y-55815412D01*
X144214807Y-55871920D01*
X144230100Y-55904581D01*
X144230841Y-55908593D01*
X144217992Y-55929684D01*
X144182488Y-55971464D01*
X144128893Y-56029445D01*
X144061771Y-56099135D01*
X143985687Y-56176045D01*
X143905204Y-56255683D01*
X143824887Y-56333561D01*
X143749299Y-56405186D01*
X143683005Y-56466070D01*
X143630569Y-56511721D01*
X143596555Y-56537650D01*
X143587145Y-56541883D01*
X143565243Y-56531912D01*
X143520400Y-56505020D01*
X143459921Y-56465736D01*
X143413389Y-56434117D01*
X143329075Y-56376098D01*
X143229226Y-56307784D01*
X143129073Y-56239579D01*
X143075227Y-56203075D01*
X142892971Y-56079800D01*
X142739981Y-56162520D01*
X142670282Y-56198759D01*
X142611014Y-56226926D01*
X142570911Y-56242991D01*
X142560703Y-56245226D01*
X142548429Y-56228722D01*
X142524213Y-56182082D01*
X142489863Y-56109609D01*
X142447188Y-56015606D01*
X142397994Y-55904374D01*
X142344090Y-55780215D01*
X142287284Y-55647432D01*
X142229382Y-55510327D01*
X142172193Y-55373202D01*
X142117524Y-55240358D01*
X142067184Y-55116098D01*
X142022980Y-55004725D01*
X141986719Y-54910539D01*
X141960209Y-54837844D01*
X141945258Y-54790941D01*
X141942854Y-54774833D01*
X141961911Y-54754286D01*
X142003636Y-54720933D01*
X142059306Y-54681702D01*
X142063978Y-54678599D01*
X142207864Y-54563423D01*
X142323883Y-54429053D01*
X142411030Y-54279784D01*
X142468299Y-54119913D01*
X142494686Y-53953737D01*
X142489185Y-53785552D01*
X142450790Y-53619655D01*
X142378495Y-53460342D01*
X142357226Y-53425487D01*
X142246596Y-53284737D01*
X142115902Y-53171714D01*
X141969664Y-53087003D01*
X141812408Y-53031194D01*
X141648657Y-53004874D01*
X141482933Y-53008630D01*
X141319762Y-53043050D01*
X141163665Y-53108723D01*
X141019167Y-53206235D01*
X140974469Y-53245813D01*
X140860712Y-53369703D01*
X140777818Y-53500124D01*
X140720956Y-53646315D01*
X140689287Y-53791088D01*
X140681469Y-53953860D01*
X140707538Y-54117440D01*
X140764845Y-54276298D01*
X140850744Y-54424906D01*
X140962586Y-54557735D01*
X141097723Y-54669256D01*
X141115483Y-54681011D01*
X141171750Y-54719508D01*
X141214523Y-54752863D01*
X141234972Y-54774160D01*
X141235269Y-54774833D01*
X141230879Y-54797871D01*
X141213476Y-54850157D01*
X141184868Y-54927390D01*
X141146865Y-55025268D01*
X141101274Y-55139491D01*
X141049903Y-55265758D01*
X140994562Y-55399767D01*
X140937058Y-55537218D01*
X140879201Y-55673808D01*
X140822798Y-55805237D01*
X140769658Y-55927205D01*
X140721590Y-56035409D01*
X140680401Y-56125549D01*
X140647901Y-56193323D01*
X140625897Y-56234430D01*
X140617036Y-56245226D01*
X140589960Y-56236819D01*
X140539297Y-56214272D01*
X140473783Y-56181613D01*
X140437759Y-56162520D01*
X140284768Y-56079800D01*
X140102512Y-56203075D01*
X140009475Y-56266228D01*
X139907615Y-56335727D01*
X139812162Y-56401165D01*
X139764350Y-56434117D01*
X139697105Y-56479273D01*
X139640164Y-56515057D01*
X139600954Y-56536938D01*
X139588219Y-56541563D01*
X139569683Y-56529085D01*
X139528659Y-56494252D01*
X139469125Y-56440678D01*
X139395058Y-56371983D01*
X139310435Y-56291781D01*
X139256915Y-56240286D01*
X139163281Y-56148286D01*
X139082359Y-56065999D01*
X139017423Y-55996945D01*
X138971742Y-55944644D01*
X138948589Y-55912616D01*
X138946368Y-55906116D01*
X138956676Y-55881394D01*
X138985161Y-55831405D01*
X139028663Y-55761212D01*
X139084023Y-55675875D01*
X139148080Y-55580456D01*
X139166297Y-55553854D01*
X139232673Y-55457167D01*
X139292222Y-55370117D01*
X139341616Y-55297595D01*
X139377525Y-55244493D01*
X139396619Y-55215703D01*
X139398464Y-55212726D01*
X139395705Y-55189782D01*
X139381062Y-55139336D01*
X139357087Y-55068041D01*
X139326334Y-54982547D01*
X139291356Y-54889507D01*
X139254707Y-54795574D01*
X139218939Y-54707399D01*
X139186606Y-54631634D01*
X139160262Y-54574931D01*
X139142458Y-54543943D01*
X139141193Y-54542457D01*
X139130306Y-54533601D01*
X139111918Y-54524843D01*
X139081994Y-54515277D01*
X139036497Y-54503996D01*
X138971391Y-54490093D01*
X138882639Y-54472663D01*
X138766207Y-54450798D01*
X138618058Y-54423591D01*
X138585982Y-54417741D01*
X138490914Y-54399374D01*
X138408035Y-54381405D01*
X138344670Y-54365569D01*
X138308142Y-54353600D01*
X138303244Y-54350810D01*
X138295173Y-54326072D01*
X138288613Y-54270790D01*
X138283567Y-54191389D01*
X138280041Y-54094296D01*
X138278039Y-53985938D01*
X138277564Y-53872740D01*
X138278623Y-53761128D01*
X138281218Y-53657529D01*
X138285354Y-53568368D01*
X138291037Y-53500072D01*
X138298269Y-53459066D01*
X138302629Y-53450674D01*
X138326902Y-53442208D01*
X138382174Y-53428435D01*
X138462938Y-53410550D01*
X138563688Y-53389748D01*
X138678917Y-53367223D01*
X138741698Y-53355418D01*
X138860813Y-53333151D01*
X138967035Y-53312979D01*
X139055173Y-53295915D01*
X139120034Y-53282969D01*
X139156426Y-53275155D01*
X139162416Y-53273422D01*
X139172539Y-53253890D01*
X139193938Y-53206843D01*
X139223761Y-53139003D01*
X139259155Y-53057091D01*
X139297268Y-52967828D01*
X139335247Y-52877935D01*
X139370240Y-52794135D01*
X139399394Y-52723147D01*
X139419857Y-52671694D01*
X139428777Y-52646497D01*
X139428943Y-52645396D01*
X139418831Y-52625519D01*
X139390483Y-52579777D01*
X139346877Y-52512717D01*
X139290994Y-52428884D01*
X139225813Y-52332826D01*
X139187921Y-52277650D01*
X139118875Y-52176481D01*
X139057550Y-52084630D01*
X139006937Y-52006744D01*
X138970029Y-51947469D01*
X138949818Y-51911451D01*
X138946899Y-51903377D01*
X138959447Y-51884584D01*
X138994137Y-51844457D01*
X139046537Y-51787493D01*
X139112216Y-51718185D01*
X139186744Y-51641031D01*
X139265687Y-51560525D01*
X139344617Y-51481163D01*
X139419100Y-51407440D01*
X139484706Y-51343852D01*
X139537004Y-51294894D01*
X139571561Y-51265061D01*
X139583122Y-51257942D01*
X139601946Y-51267953D01*
X139646969Y-51296078D01*
X139713813Y-51339454D01*
X139798101Y-51395218D01*
X139895456Y-51460506D01*
X139968893Y-51510246D01*
X140339933Y-51762551D01*
X140958505Y-51507555D01*
X141042325Y-51062931D01*
X141126146Y-50618307D01*
X142051594Y-50618307D01*
X142135414Y-51062931D01*
D12*
X157330600Y-97056000D03*
D13*
X159870600Y-97056000D03*
X162410600Y-97056000D03*
X164950600Y-97056000D03*
D14*
X167040600Y-112456000D03*
D15*
X114430600Y-99596000D03*
D13*
X116970600Y-99596000D03*
D15*
X162410600Y-99596000D03*
D13*
X164950600Y-99596000D03*
D16*
X146430600Y-121246000D03*
D17*
X145410600Y-118706000D03*
X144390600Y-121246000D03*
X143370600Y-118706000D03*
X142350600Y-121246000D03*
X141330600Y-118706000D03*
X139290600Y-118706000D03*
X140310600Y-121246000D03*
D15*
X124590600Y-99596000D03*
D13*
X127130600Y-99596000D03*
D16*
X126430600Y-121246000D03*
D17*
X125410600Y-118706000D03*
X124390600Y-121246000D03*
X123370600Y-118706000D03*
X122350600Y-121246000D03*
X121330600Y-118706000D03*
X119290600Y-118706000D03*
X120310600Y-121246000D03*
D18*
X124358400Y-110591600D03*
D19*
X127858400Y-110591600D03*
D14*
X161960600Y-87056000D03*
D18*
X156337000Y-110591600D03*
D19*
X159837000Y-110591600D03*
D20*
X168500600Y-120693000D03*
X155360600Y-120693000D03*
D21*
X158430600Y-117983000D03*
D22*
X160930600Y-117983000D03*
X162930600Y-117983000D03*
X165430600Y-117983000D03*
D12*
X114430600Y-97056000D03*
D13*
X116970600Y-97056000D03*
X119510600Y-97056000D03*
X122050600Y-97056000D03*
X124590600Y-97056000D03*
X127130600Y-97056000D03*
X164950600Y-51336000D03*
D15*
X162410600Y-51336000D03*
D13*
X127130600Y-51336000D03*
D15*
X124590600Y-51336000D03*
D13*
X116970600Y-51336000D03*
D15*
X114430600Y-51336000D03*
D13*
X127130600Y-48796000D03*
X124590600Y-48796000D03*
X122050600Y-48796000D03*
X119510600Y-48796000D03*
X116970600Y-48796000D03*
D12*
X114430600Y-48796000D03*
D13*
X164950600Y-48796000D03*
X162410600Y-48796000D03*
X159870600Y-48796000D03*
D12*
X157330600Y-48796000D03*
D19*
X159837000Y-62331600D03*
D18*
X156337000Y-62331600D03*
D19*
X127858400Y-62331600D03*
D18*
X124358400Y-62331600D03*
D22*
X165430600Y-69723000D03*
X162930600Y-69723000D03*
X160930600Y-69723000D03*
D21*
X158430600Y-69723000D03*
D20*
X155360600Y-72433000D03*
X168500600Y-72433000D03*
D17*
X140310600Y-72986000D03*
X139290600Y-70446000D03*
X141330600Y-70446000D03*
X142350600Y-72986000D03*
X143370600Y-70446000D03*
X144390600Y-72986000D03*
X145410600Y-70446000D03*
D16*
X146430600Y-72986000D03*
D17*
X120310600Y-72986000D03*
X119290600Y-70446000D03*
X121330600Y-70446000D03*
X122350600Y-72986000D03*
X123370600Y-70446000D03*
X124390600Y-72986000D03*
X125410600Y-70446000D03*
D16*
X126430600Y-72986000D03*
D14*
X167040600Y-64196000D03*
X161960600Y-38796000D03*
D23*
X145410600Y-69591600D02*
X145410600Y-70446000D01*
X137744200Y-68351400D02*
X143967200Y-68351400D01*
X143967200Y-68351400D02*
X144068800Y-68249800D01*
X125410600Y-70446000D02*
X135649600Y-70446000D01*
X144068800Y-68249800D02*
X145410600Y-69591600D01*
X135649600Y-70446000D02*
X137744200Y-68351400D01*
X125410600Y-118706000D02*
X135649600Y-118706000D01*
X144068800Y-116509800D02*
X145410600Y-117851600D01*
X143967200Y-116611400D02*
X144068800Y-116509800D01*
X145410600Y-117851600D02*
X145410600Y-118706000D01*
X135649600Y-118706000D02*
X137744200Y-116611400D01*
X137744200Y-116611400D02*
X143967200Y-116611400D01*
X146430600Y-74496000D02*
X146430600Y-72986000D01*
X145666400Y-75260200D02*
X146430600Y-74496000D01*
X138760200Y-75260200D02*
X145666400Y-75260200D01*
X136486000Y-72986000D02*
X138760200Y-75260200D01*
X126430600Y-72986000D02*
X136486000Y-72986000D01*
X136486000Y-121246000D02*
X138760200Y-123520200D01*
X145666400Y-123520200D02*
X146430600Y-122756000D01*
X138760200Y-123520200D02*
X145666400Y-123520200D01*
X146430600Y-122756000D02*
X146430600Y-121246000D01*
X126430600Y-121246000D02*
X136486000Y-121246000D01*
D24*
X165430600Y-68591630D02*
X165455600Y-68566630D01*
X165430600Y-69723000D02*
X165430600Y-68591630D01*
X165455600Y-68566630D02*
X165455600Y-67462400D01*
X165455600Y-67462400D02*
X163931600Y-65938400D01*
X163931600Y-65938400D02*
X161264600Y-65938400D01*
X159837000Y-64510800D02*
X159837000Y-62331600D01*
X161264600Y-65938400D02*
X159837000Y-64510800D01*
X159837000Y-60634544D02*
X159867600Y-60603944D01*
X159837000Y-62331600D02*
X159837000Y-60634544D01*
X159867600Y-60603944D02*
X159867600Y-56438800D01*
X157330600Y-53901800D02*
X157330600Y-48796000D01*
X159867600Y-56438800D02*
X157330600Y-53901800D01*
X159867600Y-108863944D02*
X159867600Y-104698800D01*
X165455600Y-116826630D02*
X165455600Y-115722400D01*
X165455600Y-115722400D02*
X163931600Y-114198400D01*
X159837000Y-108894544D02*
X159867600Y-108863944D01*
X165430600Y-117983000D02*
X165430600Y-116851630D01*
X161264600Y-114198400D02*
X159837000Y-112770800D01*
X157330600Y-102161800D02*
X157330600Y-97056000D01*
X163931600Y-114198400D02*
X161264600Y-114198400D01*
X165430600Y-116851630D02*
X165455600Y-116826630D01*
X159837000Y-110591600D02*
X159837000Y-108894544D01*
X159837000Y-112770800D02*
X159837000Y-110591600D01*
X159867600Y-104698800D02*
X157330600Y-102161800D01*
X158430600Y-67923000D02*
X156311600Y-65804000D01*
X158430600Y-69723000D02*
X158430600Y-67923000D01*
X156337000Y-65778600D02*
X156337000Y-62331600D01*
X156311600Y-65804000D02*
X156337000Y-65778600D01*
X156337000Y-62331600D02*
X156337000Y-57200800D01*
X156337000Y-57200800D02*
X153898600Y-54762400D01*
X153898600Y-54762400D02*
X153898600Y-47345600D01*
X159870600Y-46510400D02*
X159870600Y-48796000D01*
X153898600Y-47345600D02*
X155727400Y-45516800D01*
X155727400Y-45516800D02*
X158877000Y-45516800D01*
X158877000Y-45516800D02*
X159870600Y-46510400D01*
X153898600Y-103022400D02*
X153898600Y-95605600D01*
X156337000Y-105460800D02*
X153898600Y-103022400D01*
X158877000Y-93776800D02*
X159870600Y-94770400D01*
X159870600Y-94770400D02*
X159870600Y-97056000D01*
X158430600Y-116183000D02*
X156311600Y-114064000D01*
X156337000Y-110591600D02*
X156337000Y-105460800D01*
X155727400Y-93776800D02*
X158877000Y-93776800D01*
X156311600Y-114064000D02*
X156337000Y-114038600D01*
X158430600Y-117983000D02*
X158430600Y-116183000D01*
X156337000Y-114038600D02*
X156337000Y-110591600D01*
X153898600Y-95605600D02*
X155727400Y-93776800D01*
X127130600Y-48796000D02*
X127130600Y-51336000D01*
X127130600Y-97056000D02*
X127130600Y-99596000D01*
X124590600Y-48796000D02*
X124590600Y-51336000D01*
X124590600Y-97056000D02*
X124590600Y-99596000D01*
X123370600Y-70891198D02*
X123370600Y-70446000D01*
X122350600Y-72986000D02*
X122350600Y-71911198D01*
X122350600Y-71911198D02*
X123370600Y-70891198D01*
X127858400Y-62331600D02*
X127858400Y-65613400D01*
X127858400Y-65613400D02*
X126644400Y-66827400D01*
X126644400Y-66827400D02*
X124841000Y-66827400D01*
X123370600Y-68297800D02*
X123370600Y-70446000D01*
X124841000Y-66827400D02*
X123370600Y-68297800D01*
X122050600Y-49998081D02*
X122050600Y-48796000D01*
X122050600Y-54826744D02*
X122050600Y-49998081D01*
X127858400Y-62331600D02*
X127858400Y-60634544D01*
X127858400Y-60634544D02*
X122050600Y-54826744D01*
X122350600Y-121246000D02*
X122350600Y-120171198D01*
X126644400Y-115087400D02*
X124841000Y-115087400D01*
X123370600Y-119151198D02*
X123370600Y-118706000D01*
X127858400Y-110591600D02*
X127858400Y-108894544D01*
X123370600Y-116557800D02*
X123370600Y-118706000D01*
X124841000Y-115087400D02*
X123370600Y-116557800D01*
X122350600Y-120171198D02*
X123370600Y-119151198D01*
X127858400Y-113873400D02*
X126644400Y-115087400D01*
X122050600Y-98258081D02*
X122050600Y-97056000D01*
X127858400Y-110591600D02*
X127858400Y-113873400D01*
X122050600Y-103086744D02*
X122050600Y-98258081D01*
X127858400Y-108894544D02*
X122050600Y-103086744D01*
X119290600Y-71966000D02*
X119290600Y-70446000D01*
X120310600Y-72986000D02*
X119290600Y-71966000D01*
X119290600Y-69371198D02*
X119290600Y-70446000D01*
X119290600Y-65199400D02*
X119290600Y-69371198D01*
X124358400Y-62331600D02*
X122158400Y-62331600D01*
X122158400Y-62331600D02*
X119290600Y-65199400D01*
X124358400Y-60131600D02*
X123078600Y-58851800D01*
X124358400Y-62331600D02*
X124358400Y-60131600D01*
X123078600Y-58851800D02*
X122936000Y-58851800D01*
X119510600Y-55426400D02*
X119510600Y-48796000D01*
X122936000Y-58851800D02*
X119510600Y-55426400D01*
X124358400Y-110591600D02*
X122158400Y-110591600D01*
X122936000Y-107111800D02*
X119510600Y-103686400D01*
X120310600Y-121246000D02*
X119290600Y-120226000D01*
X119290600Y-117631198D02*
X119290600Y-118706000D01*
X122158400Y-110591600D02*
X119290600Y-113459400D01*
X119290600Y-113459400D02*
X119290600Y-117631198D01*
X119510600Y-103686400D02*
X119510600Y-97056000D01*
X119290600Y-120226000D02*
X119290600Y-118706000D01*
X123078600Y-107111800D02*
X122936000Y-107111800D01*
X124358400Y-110591600D02*
X124358400Y-108391600D01*
X124358400Y-108391600D02*
X123078600Y-107111800D01*
X116970600Y-48796000D02*
X116970600Y-51336000D01*
X116970600Y-97056000D02*
X116970600Y-99596000D01*
X114430600Y-48796000D02*
X114430600Y-51336000D01*
X114430600Y-97056000D02*
X114430600Y-99596000D01*
X164950600Y-51336000D02*
X164950600Y-48796000D01*
X164950600Y-99596000D02*
X164950600Y-97056000D01*
X162410600Y-51336000D02*
X162410600Y-48796000D01*
X162410600Y-99596000D02*
X162410600Y-97056000D01*
D25*
G36*
X170190601Y-59909994D02*
G01*
X170160524Y-71074354D01*
X170158963Y-71072017D01*
X169861583Y-70774637D01*
X169511902Y-70540988D01*
X169123356Y-70380047D01*
X168710879Y-70298000D01*
X168290321Y-70298000D01*
X167877844Y-70380047D01*
X167489298Y-70540988D01*
X167139617Y-70774637D01*
X166842237Y-71072017D01*
X166608588Y-71421698D01*
X166447647Y-71810244D01*
X166365600Y-72222721D01*
X166365600Y-72643279D01*
X166447647Y-73055756D01*
X166608588Y-73444302D01*
X166842237Y-73793983D01*
X167139617Y-74091363D01*
X167489298Y-74325012D01*
X167877844Y-74485953D01*
X168290321Y-74568000D01*
X168710879Y-74568000D01*
X169123356Y-74485953D01*
X169511902Y-74325012D01*
X169861583Y-74091363D01*
X170153182Y-73799764D01*
X170129541Y-82575400D01*
X152425400Y-82575400D01*
X152425400Y-72222721D01*
X153225600Y-72222721D01*
X153225600Y-72643279D01*
X153307647Y-73055756D01*
X153468588Y-73444302D01*
X153702237Y-73793983D01*
X153999617Y-74091363D01*
X154349298Y-74325012D01*
X154737844Y-74485953D01*
X155150321Y-74568000D01*
X155570879Y-74568000D01*
X155983356Y-74485953D01*
X156371902Y-74325012D01*
X156721583Y-74091363D01*
X157018963Y-73793983D01*
X157252612Y-73444302D01*
X157413553Y-73055756D01*
X157495600Y-72643279D01*
X157495600Y-72222721D01*
X157413553Y-71810244D01*
X157252612Y-71421698D01*
X157018963Y-71072017D01*
X156721583Y-70774637D01*
X156371902Y-70540988D01*
X155983356Y-70380047D01*
X155570879Y-70298000D01*
X155150321Y-70298000D01*
X154737844Y-70380047D01*
X154349298Y-70540988D01*
X153999617Y-70774637D01*
X153702237Y-71072017D01*
X153468588Y-71421698D01*
X153307647Y-71810244D01*
X153225600Y-72222721D01*
X152425400Y-72222721D01*
X152425400Y-47345600D01*
X152758109Y-47345600D01*
X152763601Y-47401361D01*
X152763600Y-54706648D01*
X152758109Y-54762400D01*
X152763600Y-54818151D01*
X152780023Y-54984898D01*
X152844924Y-55198846D01*
X152950316Y-55396023D01*
X153092151Y-55568849D01*
X153135465Y-55604396D01*
X155202001Y-57670933D01*
X155202000Y-60493528D01*
X155137000Y-60493528D01*
X155012518Y-60505788D01*
X154892820Y-60542098D01*
X154782506Y-60601063D01*
X154685815Y-60680415D01*
X154606463Y-60777106D01*
X154547498Y-60887420D01*
X154511188Y-61007118D01*
X154498928Y-61131600D01*
X154498928Y-63531600D01*
X154511188Y-63656082D01*
X154547498Y-63775780D01*
X154606463Y-63886094D01*
X154685815Y-63982785D01*
X154782506Y-64062137D01*
X154892820Y-64121102D01*
X155012518Y-64157412D01*
X155137000Y-64169672D01*
X155202000Y-64169672D01*
X155202000Y-65551909D01*
X155193023Y-65581502D01*
X155171109Y-65804000D01*
X155193023Y-66026498D01*
X155257924Y-66240446D01*
X155363317Y-66437622D01*
X155505152Y-66610448D01*
X155548454Y-66645985D01*
X157288373Y-68385906D01*
X157276106Y-68392463D01*
X157179415Y-68471815D01*
X157100063Y-68568506D01*
X157041098Y-68678820D01*
X157004788Y-68798518D01*
X156992528Y-68923000D01*
X156992528Y-70523000D01*
X157004788Y-70647482D01*
X157041098Y-70767180D01*
X157100063Y-70877494D01*
X157179415Y-70974185D01*
X157276106Y-71053537D01*
X157386420Y-71112502D01*
X157506118Y-71148812D01*
X157630600Y-71161072D01*
X159230600Y-71161072D01*
X159355082Y-71148812D01*
X159474780Y-71112502D01*
X159585094Y-71053537D01*
X159681785Y-70974185D01*
X159761137Y-70877494D01*
X159820102Y-70767180D01*
X159849261Y-70671057D01*
X160015841Y-70837637D01*
X160250873Y-70994680D01*
X160512026Y-71102853D01*
X160789265Y-71158000D01*
X161071935Y-71158000D01*
X161349174Y-71102853D01*
X161610327Y-70994680D01*
X161845359Y-70837637D01*
X161930600Y-70752396D01*
X162015841Y-70837637D01*
X162250873Y-70994680D01*
X162512026Y-71102853D01*
X162789265Y-71158000D01*
X163071935Y-71158000D01*
X163349174Y-71102853D01*
X163610327Y-70994680D01*
X163845359Y-70837637D01*
X164045237Y-70637759D01*
X164180600Y-70435173D01*
X164315963Y-70637759D01*
X164515841Y-70837637D01*
X164750873Y-70994680D01*
X165012026Y-71102853D01*
X165289265Y-71158000D01*
X165571935Y-71158000D01*
X165849174Y-71102853D01*
X166110327Y-70994680D01*
X166345359Y-70837637D01*
X166545237Y-70637759D01*
X166702280Y-70402727D01*
X166810453Y-70141574D01*
X166865600Y-69864335D01*
X166865600Y-69581665D01*
X166810453Y-69304426D01*
X166702280Y-69043273D01*
X166565600Y-68838716D01*
X166565600Y-68817403D01*
X166574177Y-68789129D01*
X166590600Y-68622382D01*
X166590600Y-68622372D01*
X166596090Y-68566631D01*
X166590600Y-68510889D01*
X166590600Y-67518141D01*
X166596090Y-67462399D01*
X166590600Y-67406657D01*
X166590600Y-67406648D01*
X166574177Y-67239901D01*
X166509276Y-67025953D01*
X166403884Y-66828777D01*
X166262049Y-66655951D01*
X166218740Y-66620409D01*
X165107708Y-65509377D01*
X165906829Y-65509377D01*
X166032704Y-65799315D01*
X166364862Y-65965139D01*
X166722987Y-66062975D01*
X167093319Y-66089065D01*
X167461625Y-66042405D01*
X167813751Y-65924789D01*
X168048496Y-65799315D01*
X168174371Y-65509377D01*
X167040600Y-64375605D01*
X165906829Y-65509377D01*
X165107708Y-65509377D01*
X164773596Y-65175265D01*
X164738049Y-65131951D01*
X164565223Y-64990116D01*
X164368047Y-64884724D01*
X164154099Y-64819823D01*
X163987352Y-64803400D01*
X163987351Y-64803400D01*
X163931600Y-64797909D01*
X163875849Y-64803400D01*
X161734732Y-64803400D01*
X161180051Y-64248719D01*
X165147535Y-64248719D01*
X165194195Y-64617025D01*
X165311811Y-64969151D01*
X165437285Y-65203896D01*
X165727223Y-65329771D01*
X166860995Y-64196000D01*
X167220205Y-64196000D01*
X168353977Y-65329771D01*
X168643915Y-65203896D01*
X168809739Y-64871738D01*
X168907575Y-64513613D01*
X168933665Y-64143281D01*
X168887005Y-63774975D01*
X168769389Y-63422849D01*
X168643915Y-63188104D01*
X168353977Y-63062229D01*
X167220205Y-64196000D01*
X166860995Y-64196000D01*
X165727223Y-63062229D01*
X165437285Y-63188104D01*
X165271461Y-63520262D01*
X165173625Y-63878387D01*
X165147535Y-64248719D01*
X161180051Y-64248719D01*
X160972000Y-64040669D01*
X160972000Y-63780153D01*
X161006744Y-63756938D01*
X161262338Y-63501344D01*
X161463156Y-63200799D01*
X161594948Y-62882623D01*
X165906829Y-62882623D01*
X167040600Y-64016395D01*
X168174371Y-62882623D01*
X168048496Y-62592685D01*
X167716338Y-62426861D01*
X167358213Y-62329025D01*
X166987881Y-62302935D01*
X166619575Y-62349595D01*
X166267449Y-62467211D01*
X166032704Y-62592685D01*
X165906829Y-62882623D01*
X161594948Y-62882623D01*
X161601482Y-62866850D01*
X161672000Y-62512332D01*
X161672000Y-62150868D01*
X161601482Y-61796350D01*
X161463156Y-61462401D01*
X161262338Y-61161856D01*
X161006744Y-60906262D01*
X160972000Y-60883047D01*
X160972000Y-60873178D01*
X160986177Y-60826443D01*
X161002600Y-60659696D01*
X161002600Y-60659695D01*
X161008091Y-60603944D01*
X161002600Y-60548193D01*
X161002600Y-58905721D01*
X164905600Y-58905721D01*
X164905600Y-59326279D01*
X164987647Y-59738756D01*
X165148588Y-60127302D01*
X165382237Y-60476983D01*
X165679617Y-60774363D01*
X166029298Y-61008012D01*
X166417844Y-61168953D01*
X166830321Y-61251000D01*
X167250879Y-61251000D01*
X167663356Y-61168953D01*
X168051902Y-61008012D01*
X168401583Y-60774363D01*
X168698963Y-60476983D01*
X168932612Y-60127302D01*
X169093553Y-59738756D01*
X169175600Y-59326279D01*
X169175600Y-58905721D01*
X169093553Y-58493244D01*
X168932612Y-58104698D01*
X168698963Y-57755017D01*
X168401583Y-57457637D01*
X168051902Y-57223988D01*
X167663356Y-57063047D01*
X167250879Y-56981000D01*
X166830321Y-56981000D01*
X166417844Y-57063047D01*
X166029298Y-57223988D01*
X165679617Y-57457637D01*
X165382237Y-57755017D01*
X165148588Y-58104698D01*
X164987647Y-58493244D01*
X164905600Y-58905721D01*
X161002600Y-58905721D01*
X161002600Y-56494552D01*
X161008091Y-56438800D01*
X160986177Y-56216301D01*
X160921276Y-56002353D01*
X160815884Y-55805177D01*
X160738335Y-55710684D01*
X160674049Y-55632351D01*
X160630741Y-55596809D01*
X158465600Y-53431669D01*
X158465600Y-50213683D01*
X158535094Y-50176537D01*
X158631785Y-50097185D01*
X158711137Y-50000494D01*
X158770102Y-49890180D01*
X158792113Y-49817620D01*
X158923968Y-49949475D01*
X159167189Y-50111990D01*
X159437442Y-50223932D01*
X159724340Y-50281000D01*
X160016860Y-50281000D01*
X160303758Y-50223932D01*
X160574011Y-50111990D01*
X160817232Y-49949475D01*
X161024075Y-49742632D01*
X161140600Y-49568240D01*
X161257125Y-49742632D01*
X161275601Y-49761108D01*
X161275600Y-50370893D01*
X161257125Y-50389368D01*
X161094610Y-50632589D01*
X160982668Y-50902842D01*
X160925600Y-51189740D01*
X160925600Y-51482260D01*
X160982668Y-51769158D01*
X161094610Y-52039411D01*
X161257125Y-52282632D01*
X161463968Y-52489475D01*
X161707189Y-52651990D01*
X161977442Y-52763932D01*
X162264340Y-52821000D01*
X162556860Y-52821000D01*
X162843758Y-52763932D01*
X163114011Y-52651990D01*
X163357232Y-52489475D01*
X163564075Y-52282632D01*
X163680600Y-52108240D01*
X163797125Y-52282632D01*
X164003968Y-52489475D01*
X164247189Y-52651990D01*
X164517442Y-52763932D01*
X164804340Y-52821000D01*
X165096860Y-52821000D01*
X165383758Y-52763932D01*
X165654011Y-52651990D01*
X165897232Y-52489475D01*
X166104075Y-52282632D01*
X166266590Y-52039411D01*
X166378532Y-51769158D01*
X166435600Y-51482260D01*
X166435600Y-51189740D01*
X166378532Y-50902842D01*
X166266590Y-50632589D01*
X166104075Y-50389368D01*
X166085600Y-50370893D01*
X166085600Y-49761107D01*
X166104075Y-49742632D01*
X166266590Y-49499411D01*
X166378532Y-49229158D01*
X166435600Y-48942260D01*
X166435600Y-48649740D01*
X166378532Y-48362842D01*
X166266590Y-48092589D01*
X166104075Y-47849368D01*
X165897232Y-47642525D01*
X165654011Y-47480010D01*
X165383758Y-47368068D01*
X165096860Y-47311000D01*
X164804340Y-47311000D01*
X164517442Y-47368068D01*
X164247189Y-47480010D01*
X164003968Y-47642525D01*
X163797125Y-47849368D01*
X163680600Y-48023760D01*
X163564075Y-47849368D01*
X163357232Y-47642525D01*
X163114011Y-47480010D01*
X162843758Y-47368068D01*
X162556860Y-47311000D01*
X162264340Y-47311000D01*
X161977442Y-47368068D01*
X161707189Y-47480010D01*
X161463968Y-47642525D01*
X161257125Y-47849368D01*
X161140600Y-48023760D01*
X161024075Y-47849368D01*
X161005600Y-47830893D01*
X161005600Y-46566152D01*
X161011091Y-46510400D01*
X160989177Y-46287901D01*
X160924276Y-46073953D01*
X160818884Y-45876777D01*
X160712589Y-45747256D01*
X160712587Y-45747254D01*
X160677049Y-45703951D01*
X160633745Y-45668413D01*
X159718995Y-44753664D01*
X159683449Y-44710351D01*
X159510623Y-44568516D01*
X159313447Y-44463124D01*
X159099499Y-44398223D01*
X158932752Y-44381800D01*
X158932751Y-44381800D01*
X158877000Y-44376309D01*
X158821249Y-44381800D01*
X155783152Y-44381800D01*
X155727400Y-44376309D01*
X155671648Y-44381800D01*
X155504901Y-44398223D01*
X155290953Y-44463124D01*
X155093777Y-44568516D01*
X154920951Y-44710351D01*
X154885409Y-44753660D01*
X153135460Y-46503609D01*
X153092152Y-46539151D01*
X152950317Y-46711977D01*
X152939134Y-46732899D01*
X152844924Y-46909154D01*
X152780023Y-47123102D01*
X152758109Y-47345600D01*
X152425400Y-47345600D01*
X152425400Y-38585721D01*
X154745600Y-38585721D01*
X154745600Y-39006279D01*
X154827647Y-39418756D01*
X154988588Y-39807302D01*
X155222237Y-40156983D01*
X155519617Y-40454363D01*
X155869298Y-40688012D01*
X156257844Y-40848953D01*
X156670321Y-40931000D01*
X157090879Y-40931000D01*
X157503356Y-40848953D01*
X157891902Y-40688012D01*
X158241583Y-40454363D01*
X158538963Y-40156983D01*
X158570772Y-40109377D01*
X160826829Y-40109377D01*
X160952704Y-40399315D01*
X161284862Y-40565139D01*
X161642987Y-40662975D01*
X162013319Y-40689065D01*
X162381625Y-40642405D01*
X162733751Y-40524789D01*
X162968496Y-40399315D01*
X163094371Y-40109377D01*
X161960600Y-38975605D01*
X160826829Y-40109377D01*
X158570772Y-40109377D01*
X158772612Y-39807302D01*
X158933553Y-39418756D01*
X159015600Y-39006279D01*
X159015600Y-38848719D01*
X160067535Y-38848719D01*
X160114195Y-39217025D01*
X160231811Y-39569151D01*
X160357285Y-39803896D01*
X160647223Y-39929771D01*
X161780995Y-38796000D01*
X162140205Y-38796000D01*
X163273977Y-39929771D01*
X163563915Y-39803896D01*
X163729739Y-39471738D01*
X163827575Y-39113613D01*
X163853665Y-38743281D01*
X163833705Y-38585721D01*
X164905600Y-38585721D01*
X164905600Y-39006279D01*
X164987647Y-39418756D01*
X165148588Y-39807302D01*
X165382237Y-40156983D01*
X165679617Y-40454363D01*
X166029298Y-40688012D01*
X166417844Y-40848953D01*
X166830321Y-40931000D01*
X167250879Y-40931000D01*
X167663356Y-40848953D01*
X168051902Y-40688012D01*
X168401583Y-40454363D01*
X168698963Y-40156983D01*
X168932612Y-39807302D01*
X169093553Y-39418756D01*
X169175600Y-39006279D01*
X169175600Y-38585721D01*
X169093553Y-38173244D01*
X168932612Y-37784698D01*
X168698963Y-37435017D01*
X168401583Y-37137637D01*
X168051902Y-36903988D01*
X167663356Y-36743047D01*
X167250879Y-36661000D01*
X166830321Y-36661000D01*
X166417844Y-36743047D01*
X166029298Y-36903988D01*
X165679617Y-37137637D01*
X165382237Y-37435017D01*
X165148588Y-37784698D01*
X164987647Y-38173244D01*
X164905600Y-38585721D01*
X163833705Y-38585721D01*
X163807005Y-38374975D01*
X163689389Y-38022849D01*
X163563915Y-37788104D01*
X163273977Y-37662229D01*
X162140205Y-38796000D01*
X161780995Y-38796000D01*
X160647223Y-37662229D01*
X160357285Y-37788104D01*
X160191461Y-38120262D01*
X160093625Y-38478387D01*
X160067535Y-38848719D01*
X159015600Y-38848719D01*
X159015600Y-38585721D01*
X158933553Y-38173244D01*
X158772612Y-37784698D01*
X158570773Y-37482623D01*
X160826829Y-37482623D01*
X161960600Y-38616395D01*
X163094371Y-37482623D01*
X162968496Y-37192685D01*
X162636338Y-37026861D01*
X162278213Y-36929025D01*
X161907881Y-36902935D01*
X161539575Y-36949595D01*
X161187449Y-37067211D01*
X160952704Y-37192685D01*
X160826829Y-37482623D01*
X158570773Y-37482623D01*
X158538963Y-37435017D01*
X158241583Y-37137637D01*
X157891902Y-36903988D01*
X157503356Y-36743047D01*
X157090879Y-36661000D01*
X156670321Y-36661000D01*
X156257844Y-36743047D01*
X155869298Y-36903988D01*
X155519617Y-37137637D01*
X155222237Y-37435017D01*
X154988588Y-37784698D01*
X154827647Y-38173244D01*
X154745600Y-38585721D01*
X152425400Y-38585721D01*
X152425400Y-35762666D01*
X170190600Y-35687813D01*
X170190601Y-59909994D01*
G37*
X170190601Y-59909994D02*
X170160524Y-71074354D01*
X170158963Y-71072017D01*
X169861583Y-70774637D01*
X169511902Y-70540988D01*
X169123356Y-70380047D01*
X168710879Y-70298000D01*
X168290321Y-70298000D01*
X167877844Y-70380047D01*
X167489298Y-70540988D01*
X167139617Y-70774637D01*
X166842237Y-71072017D01*
X166608588Y-71421698D01*
X166447647Y-71810244D01*
X166365600Y-72222721D01*
X166365600Y-72643279D01*
X166447647Y-73055756D01*
X166608588Y-73444302D01*
X166842237Y-73793983D01*
X167139617Y-74091363D01*
X167489298Y-74325012D01*
X167877844Y-74485953D01*
X168290321Y-74568000D01*
X168710879Y-74568000D01*
X169123356Y-74485953D01*
X169511902Y-74325012D01*
X169861583Y-74091363D01*
X170153182Y-73799764D01*
X170129541Y-82575400D01*
X152425400Y-82575400D01*
X152425400Y-72222721D01*
X153225600Y-72222721D01*
X153225600Y-72643279D01*
X153307647Y-73055756D01*
X153468588Y-73444302D01*
X153702237Y-73793983D01*
X153999617Y-74091363D01*
X154349298Y-74325012D01*
X154737844Y-74485953D01*
X155150321Y-74568000D01*
X155570879Y-74568000D01*
X155983356Y-74485953D01*
X156371902Y-74325012D01*
X156721583Y-74091363D01*
X157018963Y-73793983D01*
X157252612Y-73444302D01*
X157413553Y-73055756D01*
X157495600Y-72643279D01*
X157495600Y-72222721D01*
X157413553Y-71810244D01*
X157252612Y-71421698D01*
X157018963Y-71072017D01*
X156721583Y-70774637D01*
X156371902Y-70540988D01*
X155983356Y-70380047D01*
X155570879Y-70298000D01*
X155150321Y-70298000D01*
X154737844Y-70380047D01*
X154349298Y-70540988D01*
X153999617Y-70774637D01*
X153702237Y-71072017D01*
X153468588Y-71421698D01*
X153307647Y-71810244D01*
X153225600Y-72222721D01*
X152425400Y-72222721D01*
X152425400Y-47345600D01*
X152758109Y-47345600D01*
X152763601Y-47401361D01*
X152763600Y-54706648D01*
X152758109Y-54762400D01*
X152763600Y-54818151D01*
X152780023Y-54984898D01*
X152844924Y-55198846D01*
X152950316Y-55396023D01*
X153092151Y-55568849D01*
X153135465Y-55604396D01*
X155202001Y-57670933D01*
X155202000Y-60493528D01*
X155137000Y-60493528D01*
X155012518Y-60505788D01*
X154892820Y-60542098D01*
X154782506Y-60601063D01*
X154685815Y-60680415D01*
X154606463Y-60777106D01*
X154547498Y-60887420D01*
X154511188Y-61007118D01*
X154498928Y-61131600D01*
X154498928Y-63531600D01*
X154511188Y-63656082D01*
X154547498Y-63775780D01*
X154606463Y-63886094D01*
X154685815Y-63982785D01*
X154782506Y-64062137D01*
X154892820Y-64121102D01*
X155012518Y-64157412D01*
X155137000Y-64169672D01*
X155202000Y-64169672D01*
X155202000Y-65551909D01*
X155193023Y-65581502D01*
X155171109Y-65804000D01*
X155193023Y-66026498D01*
X155257924Y-66240446D01*
X155363317Y-66437622D01*
X155505152Y-66610448D01*
X155548454Y-66645985D01*
X157288373Y-68385906D01*
X157276106Y-68392463D01*
X157179415Y-68471815D01*
X157100063Y-68568506D01*
X157041098Y-68678820D01*
X157004788Y-68798518D01*
X156992528Y-68923000D01*
X156992528Y-70523000D01*
X157004788Y-70647482D01*
X157041098Y-70767180D01*
X157100063Y-70877494D01*
X157179415Y-70974185D01*
X157276106Y-71053537D01*
X157386420Y-71112502D01*
X157506118Y-71148812D01*
X157630600Y-71161072D01*
X159230600Y-71161072D01*
X159355082Y-71148812D01*
X159474780Y-71112502D01*
X159585094Y-71053537D01*
X159681785Y-70974185D01*
X159761137Y-70877494D01*
X159820102Y-70767180D01*
X159849261Y-70671057D01*
X160015841Y-70837637D01*
X160250873Y-70994680D01*
X160512026Y-71102853D01*
X160789265Y-71158000D01*
X161071935Y-71158000D01*
X161349174Y-71102853D01*
X161610327Y-70994680D01*
X161845359Y-70837637D01*
X161930600Y-70752396D01*
X162015841Y-70837637D01*
X162250873Y-70994680D01*
X162512026Y-71102853D01*
X162789265Y-71158000D01*
X163071935Y-71158000D01*
X163349174Y-71102853D01*
X163610327Y-70994680D01*
X163845359Y-70837637D01*
X164045237Y-70637759D01*
X164180600Y-70435173D01*
X164315963Y-70637759D01*
X164515841Y-70837637D01*
X164750873Y-70994680D01*
X165012026Y-71102853D01*
X165289265Y-71158000D01*
X165571935Y-71158000D01*
X165849174Y-71102853D01*
X166110327Y-70994680D01*
X166345359Y-70837637D01*
X166545237Y-70637759D01*
X166702280Y-70402727D01*
X166810453Y-70141574D01*
X166865600Y-69864335D01*
X166865600Y-69581665D01*
X166810453Y-69304426D01*
X166702280Y-69043273D01*
X166565600Y-68838716D01*
X166565600Y-68817403D01*
X166574177Y-68789129D01*
X166590600Y-68622382D01*
X166590600Y-68622372D01*
X166596090Y-68566631D01*
X166590600Y-68510889D01*
X166590600Y-67518141D01*
X166596090Y-67462399D01*
X166590600Y-67406657D01*
X166590600Y-67406648D01*
X166574177Y-67239901D01*
X166509276Y-67025953D01*
X166403884Y-66828777D01*
X166262049Y-66655951D01*
X166218740Y-66620409D01*
X165107708Y-65509377D01*
X165906829Y-65509377D01*
X166032704Y-65799315D01*
X166364862Y-65965139D01*
X166722987Y-66062975D01*
X167093319Y-66089065D01*
X167461625Y-66042405D01*
X167813751Y-65924789D01*
X168048496Y-65799315D01*
X168174371Y-65509377D01*
X167040600Y-64375605D01*
X165906829Y-65509377D01*
X165107708Y-65509377D01*
X164773596Y-65175265D01*
X164738049Y-65131951D01*
X164565223Y-64990116D01*
X164368047Y-64884724D01*
X164154099Y-64819823D01*
X163987352Y-64803400D01*
X163987351Y-64803400D01*
X163931600Y-64797909D01*
X163875849Y-64803400D01*
X161734732Y-64803400D01*
X161180051Y-64248719D01*
X165147535Y-64248719D01*
X165194195Y-64617025D01*
X165311811Y-64969151D01*
X165437285Y-65203896D01*
X165727223Y-65329771D01*
X166860995Y-64196000D01*
X167220205Y-64196000D01*
X168353977Y-65329771D01*
X168643915Y-65203896D01*
X168809739Y-64871738D01*
X168907575Y-64513613D01*
X168933665Y-64143281D01*
X168887005Y-63774975D01*
X168769389Y-63422849D01*
X168643915Y-63188104D01*
X168353977Y-63062229D01*
X167220205Y-64196000D01*
X166860995Y-64196000D01*
X165727223Y-63062229D01*
X165437285Y-63188104D01*
X165271461Y-63520262D01*
X165173625Y-63878387D01*
X165147535Y-64248719D01*
X161180051Y-64248719D01*
X160972000Y-64040669D01*
X160972000Y-63780153D01*
X161006744Y-63756938D01*
X161262338Y-63501344D01*
X161463156Y-63200799D01*
X161594948Y-62882623D01*
X165906829Y-62882623D01*
X167040600Y-64016395D01*
X168174371Y-62882623D01*
X168048496Y-62592685D01*
X167716338Y-62426861D01*
X167358213Y-62329025D01*
X166987881Y-62302935D01*
X166619575Y-62349595D01*
X166267449Y-62467211D01*
X166032704Y-62592685D01*
X165906829Y-62882623D01*
X161594948Y-62882623D01*
X161601482Y-62866850D01*
X161672000Y-62512332D01*
X161672000Y-62150868D01*
X161601482Y-61796350D01*
X161463156Y-61462401D01*
X161262338Y-61161856D01*
X161006744Y-60906262D01*
X160972000Y-60883047D01*
X160972000Y-60873178D01*
X160986177Y-60826443D01*
X161002600Y-60659696D01*
X161002600Y-60659695D01*
X161008091Y-60603944D01*
X161002600Y-60548193D01*
X161002600Y-58905721D01*
X164905600Y-58905721D01*
X164905600Y-59326279D01*
X164987647Y-59738756D01*
X165148588Y-60127302D01*
X165382237Y-60476983D01*
X165679617Y-60774363D01*
X166029298Y-61008012D01*
X166417844Y-61168953D01*
X166830321Y-61251000D01*
X167250879Y-61251000D01*
X167663356Y-61168953D01*
X168051902Y-61008012D01*
X168401583Y-60774363D01*
X168698963Y-60476983D01*
X168932612Y-60127302D01*
X169093553Y-59738756D01*
X169175600Y-59326279D01*
X169175600Y-58905721D01*
X169093553Y-58493244D01*
X168932612Y-58104698D01*
X168698963Y-57755017D01*
X168401583Y-57457637D01*
X168051902Y-57223988D01*
X167663356Y-57063047D01*
X167250879Y-56981000D01*
X166830321Y-56981000D01*
X166417844Y-57063047D01*
X166029298Y-57223988D01*
X165679617Y-57457637D01*
X165382237Y-57755017D01*
X165148588Y-58104698D01*
X164987647Y-58493244D01*
X164905600Y-58905721D01*
X161002600Y-58905721D01*
X161002600Y-56494552D01*
X161008091Y-56438800D01*
X160986177Y-56216301D01*
X160921276Y-56002353D01*
X160815884Y-55805177D01*
X160738335Y-55710684D01*
X160674049Y-55632351D01*
X160630741Y-55596809D01*
X158465600Y-53431669D01*
X158465600Y-50213683D01*
X158535094Y-50176537D01*
X158631785Y-50097185D01*
X158711137Y-50000494D01*
X158770102Y-49890180D01*
X158792113Y-49817620D01*
X158923968Y-49949475D01*
X159167189Y-50111990D01*
X159437442Y-50223932D01*
X159724340Y-50281000D01*
X160016860Y-50281000D01*
X160303758Y-50223932D01*
X160574011Y-50111990D01*
X160817232Y-49949475D01*
X161024075Y-49742632D01*
X161140600Y-49568240D01*
X161257125Y-49742632D01*
X161275601Y-49761108D01*
X161275600Y-50370893D01*
X161257125Y-50389368D01*
X161094610Y-50632589D01*
X160982668Y-50902842D01*
X160925600Y-51189740D01*
X160925600Y-51482260D01*
X160982668Y-51769158D01*
X161094610Y-52039411D01*
X161257125Y-52282632D01*
X161463968Y-52489475D01*
X161707189Y-52651990D01*
X161977442Y-52763932D01*
X162264340Y-52821000D01*
X162556860Y-52821000D01*
X162843758Y-52763932D01*
X163114011Y-52651990D01*
X163357232Y-52489475D01*
X163564075Y-52282632D01*
X163680600Y-52108240D01*
X163797125Y-52282632D01*
X164003968Y-52489475D01*
X164247189Y-52651990D01*
X164517442Y-52763932D01*
X164804340Y-52821000D01*
X165096860Y-52821000D01*
X165383758Y-52763932D01*
X165654011Y-52651990D01*
X165897232Y-52489475D01*
X166104075Y-52282632D01*
X166266590Y-52039411D01*
X166378532Y-51769158D01*
X166435600Y-51482260D01*
X166435600Y-51189740D01*
X166378532Y-50902842D01*
X166266590Y-50632589D01*
X166104075Y-50389368D01*
X166085600Y-50370893D01*
X166085600Y-49761107D01*
X166104075Y-49742632D01*
X166266590Y-49499411D01*
X166378532Y-49229158D01*
X166435600Y-48942260D01*
X166435600Y-48649740D01*
X166378532Y-48362842D01*
X166266590Y-48092589D01*
X166104075Y-47849368D01*
X165897232Y-47642525D01*
X165654011Y-47480010D01*
X165383758Y-47368068D01*
X165096860Y-47311000D01*
X164804340Y-47311000D01*
X164517442Y-47368068D01*
X164247189Y-47480010D01*
X164003968Y-47642525D01*
X163797125Y-47849368D01*
X163680600Y-48023760D01*
X163564075Y-47849368D01*
X163357232Y-47642525D01*
X163114011Y-47480010D01*
X162843758Y-47368068D01*
X162556860Y-47311000D01*
X162264340Y-47311000D01*
X161977442Y-47368068D01*
X161707189Y-47480010D01*
X161463968Y-47642525D01*
X161257125Y-47849368D01*
X161140600Y-48023760D01*
X161024075Y-47849368D01*
X161005600Y-47830893D01*
X161005600Y-46566152D01*
X161011091Y-46510400D01*
X160989177Y-46287901D01*
X160924276Y-46073953D01*
X160818884Y-45876777D01*
X160712589Y-45747256D01*
X160712587Y-45747254D01*
X160677049Y-45703951D01*
X160633745Y-45668413D01*
X159718995Y-44753664D01*
X159683449Y-44710351D01*
X159510623Y-44568516D01*
X159313447Y-44463124D01*
X159099499Y-44398223D01*
X158932752Y-44381800D01*
X158932751Y-44381800D01*
X158877000Y-44376309D01*
X158821249Y-44381800D01*
X155783152Y-44381800D01*
X155727400Y-44376309D01*
X155671648Y-44381800D01*
X155504901Y-44398223D01*
X155290953Y-44463124D01*
X155093777Y-44568516D01*
X154920951Y-44710351D01*
X154885409Y-44753660D01*
X153135460Y-46503609D01*
X153092152Y-46539151D01*
X152950317Y-46711977D01*
X152939134Y-46732899D01*
X152844924Y-46909154D01*
X152780023Y-47123102D01*
X152758109Y-47345600D01*
X152425400Y-47345600D01*
X152425400Y-38585721D01*
X154745600Y-38585721D01*
X154745600Y-39006279D01*
X154827647Y-39418756D01*
X154988588Y-39807302D01*
X155222237Y-40156983D01*
X155519617Y-40454363D01*
X155869298Y-40688012D01*
X156257844Y-40848953D01*
X156670321Y-40931000D01*
X157090879Y-40931000D01*
X157503356Y-40848953D01*
X157891902Y-40688012D01*
X158241583Y-40454363D01*
X158538963Y-40156983D01*
X158570772Y-40109377D01*
X160826829Y-40109377D01*
X160952704Y-40399315D01*
X161284862Y-40565139D01*
X161642987Y-40662975D01*
X162013319Y-40689065D01*
X162381625Y-40642405D01*
X162733751Y-40524789D01*
X162968496Y-40399315D01*
X163094371Y-40109377D01*
X161960600Y-38975605D01*
X160826829Y-40109377D01*
X158570772Y-40109377D01*
X158772612Y-39807302D01*
X158933553Y-39418756D01*
X159015600Y-39006279D01*
X159015600Y-38848719D01*
X160067535Y-38848719D01*
X160114195Y-39217025D01*
X160231811Y-39569151D01*
X160357285Y-39803896D01*
X160647223Y-39929771D01*
X161780995Y-38796000D01*
X162140205Y-38796000D01*
X163273977Y-39929771D01*
X163563915Y-39803896D01*
X163729739Y-39471738D01*
X163827575Y-39113613D01*
X163853665Y-38743281D01*
X163833705Y-38585721D01*
X164905600Y-38585721D01*
X164905600Y-39006279D01*
X164987647Y-39418756D01*
X165148588Y-39807302D01*
X165382237Y-40156983D01*
X165679617Y-40454363D01*
X166029298Y-40688012D01*
X166417844Y-40848953D01*
X166830321Y-40931000D01*
X167250879Y-40931000D01*
X167663356Y-40848953D01*
X168051902Y-40688012D01*
X168401583Y-40454363D01*
X168698963Y-40156983D01*
X168932612Y-39807302D01*
X169093553Y-39418756D01*
X169175600Y-39006279D01*
X169175600Y-38585721D01*
X169093553Y-38173244D01*
X168932612Y-37784698D01*
X168698963Y-37435017D01*
X168401583Y-37137637D01*
X168051902Y-36903988D01*
X167663356Y-36743047D01*
X167250879Y-36661000D01*
X166830321Y-36661000D01*
X166417844Y-36743047D01*
X166029298Y-36903988D01*
X165679617Y-37137637D01*
X165382237Y-37435017D01*
X165148588Y-37784698D01*
X164987647Y-38173244D01*
X164905600Y-38585721D01*
X163833705Y-38585721D01*
X163807005Y-38374975D01*
X163689389Y-38022849D01*
X163563915Y-37788104D01*
X163273977Y-37662229D01*
X162140205Y-38796000D01*
X161780995Y-38796000D01*
X160647223Y-37662229D01*
X160357285Y-37788104D01*
X160191461Y-38120262D01*
X160093625Y-38478387D01*
X160067535Y-38848719D01*
X159015600Y-38848719D01*
X159015600Y-38585721D01*
X158933553Y-38173244D01*
X158772612Y-37784698D01*
X158570773Y-37482623D01*
X160826829Y-37482623D01*
X161960600Y-38616395D01*
X163094371Y-37482623D01*
X162968496Y-37192685D01*
X162636338Y-37026861D01*
X162278213Y-36929025D01*
X161907881Y-36902935D01*
X161539575Y-36949595D01*
X161187449Y-37067211D01*
X160952704Y-37192685D01*
X160826829Y-37482623D01*
X158570773Y-37482623D01*
X158538963Y-37435017D01*
X158241583Y-37137637D01*
X157891902Y-36903988D01*
X157503356Y-36743047D01*
X157090879Y-36661000D01*
X156670321Y-36661000D01*
X156257844Y-36743047D01*
X155869298Y-36903988D01*
X155519617Y-37137637D01*
X155222237Y-37435017D01*
X154988588Y-37784698D01*
X154827647Y-38173244D01*
X154745600Y-38585721D01*
X152425400Y-38585721D01*
X152425400Y-35762666D01*
X170190600Y-35687813D01*
X170190601Y-59909994D01*
G36*
X170190601Y-108169994D02*
G01*
X170160524Y-119334354D01*
X170158963Y-119332017D01*
X169861583Y-119034637D01*
X169511902Y-118800988D01*
X169123356Y-118640047D01*
X168710879Y-118558000D01*
X168290321Y-118558000D01*
X167877844Y-118640047D01*
X167489298Y-118800988D01*
X167139617Y-119034637D01*
X166842237Y-119332017D01*
X166608588Y-119681698D01*
X166447647Y-120070244D01*
X166365600Y-120482721D01*
X166365600Y-120903279D01*
X166447647Y-121315756D01*
X166608588Y-121704302D01*
X166842237Y-122053983D01*
X167139617Y-122351363D01*
X167489298Y-122585012D01*
X167877844Y-122745953D01*
X168290321Y-122828000D01*
X168710879Y-122828000D01*
X169123356Y-122745953D01*
X169511902Y-122585012D01*
X169861583Y-122351363D01*
X170153182Y-122059764D01*
X170129541Y-130835400D01*
X152425400Y-130835400D01*
X152425400Y-120482721D01*
X153225600Y-120482721D01*
X153225600Y-120903279D01*
X153307647Y-121315756D01*
X153468588Y-121704302D01*
X153702237Y-122053983D01*
X153999617Y-122351363D01*
X154349298Y-122585012D01*
X154737844Y-122745953D01*
X155150321Y-122828000D01*
X155570879Y-122828000D01*
X155983356Y-122745953D01*
X156371902Y-122585012D01*
X156721583Y-122351363D01*
X157018963Y-122053983D01*
X157252612Y-121704302D01*
X157413553Y-121315756D01*
X157495600Y-120903279D01*
X157495600Y-120482721D01*
X157413553Y-120070244D01*
X157252612Y-119681698D01*
X157018963Y-119332017D01*
X156721583Y-119034637D01*
X156371902Y-118800988D01*
X155983356Y-118640047D01*
X155570879Y-118558000D01*
X155150321Y-118558000D01*
X154737844Y-118640047D01*
X154349298Y-118800988D01*
X153999617Y-119034637D01*
X153702237Y-119332017D01*
X153468588Y-119681698D01*
X153307647Y-120070244D01*
X153225600Y-120482721D01*
X152425400Y-120482721D01*
X152425400Y-95605600D01*
X152758109Y-95605600D01*
X152763601Y-95661361D01*
X152763600Y-102966648D01*
X152758109Y-103022400D01*
X152763600Y-103078151D01*
X152780023Y-103244898D01*
X152844924Y-103458846D01*
X152950316Y-103656023D01*
X153092151Y-103828849D01*
X153135465Y-103864396D01*
X155202001Y-105930933D01*
X155202000Y-108753528D01*
X155137000Y-108753528D01*
X155012518Y-108765788D01*
X154892820Y-108802098D01*
X154782506Y-108861063D01*
X154685815Y-108940415D01*
X154606463Y-109037106D01*
X154547498Y-109147420D01*
X154511188Y-109267118D01*
X154498928Y-109391600D01*
X154498928Y-111791600D01*
X154511188Y-111916082D01*
X154547498Y-112035780D01*
X154606463Y-112146094D01*
X154685815Y-112242785D01*
X154782506Y-112322137D01*
X154892820Y-112381102D01*
X155012518Y-112417412D01*
X155137000Y-112429672D01*
X155202000Y-112429672D01*
X155202000Y-113811909D01*
X155193023Y-113841502D01*
X155171109Y-114064000D01*
X155193023Y-114286498D01*
X155257924Y-114500446D01*
X155363317Y-114697622D01*
X155505152Y-114870448D01*
X155548454Y-114905985D01*
X157288373Y-116645906D01*
X157276106Y-116652463D01*
X157179415Y-116731815D01*
X157100063Y-116828506D01*
X157041098Y-116938820D01*
X157004788Y-117058518D01*
X156992528Y-117183000D01*
X156992528Y-118783000D01*
X157004788Y-118907482D01*
X157041098Y-119027180D01*
X157100063Y-119137494D01*
X157179415Y-119234185D01*
X157276106Y-119313537D01*
X157386420Y-119372502D01*
X157506118Y-119408812D01*
X157630600Y-119421072D01*
X159230600Y-119421072D01*
X159355082Y-119408812D01*
X159474780Y-119372502D01*
X159585094Y-119313537D01*
X159681785Y-119234185D01*
X159761137Y-119137494D01*
X159820102Y-119027180D01*
X159849261Y-118931057D01*
X160015841Y-119097637D01*
X160250873Y-119254680D01*
X160512026Y-119362853D01*
X160789265Y-119418000D01*
X161071935Y-119418000D01*
X161349174Y-119362853D01*
X161610327Y-119254680D01*
X161845359Y-119097637D01*
X161930600Y-119012396D01*
X162015841Y-119097637D01*
X162250873Y-119254680D01*
X162512026Y-119362853D01*
X162789265Y-119418000D01*
X163071935Y-119418000D01*
X163349174Y-119362853D01*
X163610327Y-119254680D01*
X163845359Y-119097637D01*
X164045237Y-118897759D01*
X164180600Y-118695173D01*
X164315963Y-118897759D01*
X164515841Y-119097637D01*
X164750873Y-119254680D01*
X165012026Y-119362853D01*
X165289265Y-119418000D01*
X165571935Y-119418000D01*
X165849174Y-119362853D01*
X166110327Y-119254680D01*
X166345359Y-119097637D01*
X166545237Y-118897759D01*
X166702280Y-118662727D01*
X166810453Y-118401574D01*
X166865600Y-118124335D01*
X166865600Y-117841665D01*
X166810453Y-117564426D01*
X166702280Y-117303273D01*
X166565600Y-117098716D01*
X166565600Y-117077403D01*
X166574177Y-117049129D01*
X166590600Y-116882382D01*
X166590600Y-116882372D01*
X166596090Y-116826631D01*
X166590600Y-116770889D01*
X166590600Y-115778141D01*
X166596090Y-115722399D01*
X166590600Y-115666657D01*
X166590600Y-115666648D01*
X166574177Y-115499901D01*
X166509276Y-115285953D01*
X166403884Y-115088777D01*
X166262049Y-114915951D01*
X166218740Y-114880409D01*
X165107708Y-113769377D01*
X165906829Y-113769377D01*
X166032704Y-114059315D01*
X166364862Y-114225139D01*
X166722987Y-114322975D01*
X167093319Y-114349065D01*
X167461625Y-114302405D01*
X167813751Y-114184789D01*
X168048496Y-114059315D01*
X168174371Y-113769377D01*
X167040600Y-112635605D01*
X165906829Y-113769377D01*
X165107708Y-113769377D01*
X164773596Y-113435265D01*
X164738049Y-113391951D01*
X164565223Y-113250116D01*
X164368047Y-113144724D01*
X164154099Y-113079823D01*
X163987352Y-113063400D01*
X163987351Y-113063400D01*
X163931600Y-113057909D01*
X163875849Y-113063400D01*
X161734732Y-113063400D01*
X161180051Y-112508719D01*
X165147535Y-112508719D01*
X165194195Y-112877025D01*
X165311811Y-113229151D01*
X165437285Y-113463896D01*
X165727223Y-113589771D01*
X166860995Y-112456000D01*
X167220205Y-112456000D01*
X168353977Y-113589771D01*
X168643915Y-113463896D01*
X168809739Y-113131738D01*
X168907575Y-112773613D01*
X168933665Y-112403281D01*
X168887005Y-112034975D01*
X168769389Y-111682849D01*
X168643915Y-111448104D01*
X168353977Y-111322229D01*
X167220205Y-112456000D01*
X166860995Y-112456000D01*
X165727223Y-111322229D01*
X165437285Y-111448104D01*
X165271461Y-111780262D01*
X165173625Y-112138387D01*
X165147535Y-112508719D01*
X161180051Y-112508719D01*
X160972000Y-112300669D01*
X160972000Y-112040153D01*
X161006744Y-112016938D01*
X161262338Y-111761344D01*
X161463156Y-111460799D01*
X161594948Y-111142623D01*
X165906829Y-111142623D01*
X167040600Y-112276395D01*
X168174371Y-111142623D01*
X168048496Y-110852685D01*
X167716338Y-110686861D01*
X167358213Y-110589025D01*
X166987881Y-110562935D01*
X166619575Y-110609595D01*
X166267449Y-110727211D01*
X166032704Y-110852685D01*
X165906829Y-111142623D01*
X161594948Y-111142623D01*
X161601482Y-111126850D01*
X161672000Y-110772332D01*
X161672000Y-110410868D01*
X161601482Y-110056350D01*
X161463156Y-109722401D01*
X161262338Y-109421856D01*
X161006744Y-109166262D01*
X160972000Y-109143047D01*
X160972000Y-109133178D01*
X160986177Y-109086443D01*
X161002600Y-108919696D01*
X161002600Y-108919695D01*
X161008091Y-108863944D01*
X161002600Y-108808193D01*
X161002600Y-107165721D01*
X164905600Y-107165721D01*
X164905600Y-107586279D01*
X164987647Y-107998756D01*
X165148588Y-108387302D01*
X165382237Y-108736983D01*
X165679617Y-109034363D01*
X166029298Y-109268012D01*
X166417844Y-109428953D01*
X166830321Y-109511000D01*
X167250879Y-109511000D01*
X167663356Y-109428953D01*
X168051902Y-109268012D01*
X168401583Y-109034363D01*
X168698963Y-108736983D01*
X168932612Y-108387302D01*
X169093553Y-107998756D01*
X169175600Y-107586279D01*
X169175600Y-107165721D01*
X169093553Y-106753244D01*
X168932612Y-106364698D01*
X168698963Y-106015017D01*
X168401583Y-105717637D01*
X168051902Y-105483988D01*
X167663356Y-105323047D01*
X167250879Y-105241000D01*
X166830321Y-105241000D01*
X166417844Y-105323047D01*
X166029298Y-105483988D01*
X165679617Y-105717637D01*
X165382237Y-106015017D01*
X165148588Y-106364698D01*
X164987647Y-106753244D01*
X164905600Y-107165721D01*
X161002600Y-107165721D01*
X161002600Y-104754552D01*
X161008091Y-104698800D01*
X160986177Y-104476301D01*
X160921276Y-104262353D01*
X160815884Y-104065177D01*
X160738335Y-103970684D01*
X160674049Y-103892351D01*
X160630741Y-103856809D01*
X158465600Y-101691669D01*
X158465600Y-98473683D01*
X158535094Y-98436537D01*
X158631785Y-98357185D01*
X158711137Y-98260494D01*
X158770102Y-98150180D01*
X158792113Y-98077620D01*
X158923968Y-98209475D01*
X159167189Y-98371990D01*
X159437442Y-98483932D01*
X159724340Y-98541000D01*
X160016860Y-98541000D01*
X160303758Y-98483932D01*
X160574011Y-98371990D01*
X160817232Y-98209475D01*
X161024075Y-98002632D01*
X161140600Y-97828240D01*
X161257125Y-98002632D01*
X161275601Y-98021108D01*
X161275600Y-98630893D01*
X161257125Y-98649368D01*
X161094610Y-98892589D01*
X160982668Y-99162842D01*
X160925600Y-99449740D01*
X160925600Y-99742260D01*
X160982668Y-100029158D01*
X161094610Y-100299411D01*
X161257125Y-100542632D01*
X161463968Y-100749475D01*
X161707189Y-100911990D01*
X161977442Y-101023932D01*
X162264340Y-101081000D01*
X162556860Y-101081000D01*
X162843758Y-101023932D01*
X163114011Y-100911990D01*
X163357232Y-100749475D01*
X163564075Y-100542632D01*
X163680600Y-100368240D01*
X163797125Y-100542632D01*
X164003968Y-100749475D01*
X164247189Y-100911990D01*
X164517442Y-101023932D01*
X164804340Y-101081000D01*
X165096860Y-101081000D01*
X165383758Y-101023932D01*
X165654011Y-100911990D01*
X165897232Y-100749475D01*
X166104075Y-100542632D01*
X166266590Y-100299411D01*
X166378532Y-100029158D01*
X166435600Y-99742260D01*
X166435600Y-99449740D01*
X166378532Y-99162842D01*
X166266590Y-98892589D01*
X166104075Y-98649368D01*
X166085600Y-98630893D01*
X166085600Y-98021107D01*
X166104075Y-98002632D01*
X166266590Y-97759411D01*
X166378532Y-97489158D01*
X166435600Y-97202260D01*
X166435600Y-96909740D01*
X166378532Y-96622842D01*
X166266590Y-96352589D01*
X166104075Y-96109368D01*
X165897232Y-95902525D01*
X165654011Y-95740010D01*
X165383758Y-95628068D01*
X165096860Y-95571000D01*
X164804340Y-95571000D01*
X164517442Y-95628068D01*
X164247189Y-95740010D01*
X164003968Y-95902525D01*
X163797125Y-96109368D01*
X163680600Y-96283760D01*
X163564075Y-96109368D01*
X163357232Y-95902525D01*
X163114011Y-95740010D01*
X162843758Y-95628068D01*
X162556860Y-95571000D01*
X162264340Y-95571000D01*
X161977442Y-95628068D01*
X161707189Y-95740010D01*
X161463968Y-95902525D01*
X161257125Y-96109368D01*
X161140600Y-96283760D01*
X161024075Y-96109368D01*
X161005600Y-96090893D01*
X161005600Y-94826152D01*
X161011091Y-94770400D01*
X160989177Y-94547901D01*
X160924276Y-94333953D01*
X160818884Y-94136777D01*
X160712589Y-94007256D01*
X160712587Y-94007254D01*
X160677049Y-93963951D01*
X160633745Y-93928413D01*
X159718995Y-93013664D01*
X159683449Y-92970351D01*
X159510623Y-92828516D01*
X159313447Y-92723124D01*
X159099499Y-92658223D01*
X158932752Y-92641800D01*
X158932751Y-92641800D01*
X158877000Y-92636309D01*
X158821249Y-92641800D01*
X155783152Y-92641800D01*
X155727400Y-92636309D01*
X155671648Y-92641800D01*
X155504901Y-92658223D01*
X155290953Y-92723124D01*
X155093777Y-92828516D01*
X154920951Y-92970351D01*
X154885409Y-93013660D01*
X153135460Y-94763609D01*
X153092152Y-94799151D01*
X152950317Y-94971977D01*
X152939134Y-94992899D01*
X152844924Y-95169154D01*
X152780023Y-95383102D01*
X152758109Y-95605600D01*
X152425400Y-95605600D01*
X152425400Y-86845721D01*
X154745600Y-86845721D01*
X154745600Y-87266279D01*
X154827647Y-87678756D01*
X154988588Y-88067302D01*
X155222237Y-88416983D01*
X155519617Y-88714363D01*
X155869298Y-88948012D01*
X156257844Y-89108953D01*
X156670321Y-89191000D01*
X157090879Y-89191000D01*
X157503356Y-89108953D01*
X157891902Y-88948012D01*
X158241583Y-88714363D01*
X158538963Y-88416983D01*
X158570772Y-88369377D01*
X160826829Y-88369377D01*
X160952704Y-88659315D01*
X161284862Y-88825139D01*
X161642987Y-88922975D01*
X162013319Y-88949065D01*
X162381625Y-88902405D01*
X162733751Y-88784789D01*
X162968496Y-88659315D01*
X163094371Y-88369377D01*
X161960600Y-87235605D01*
X160826829Y-88369377D01*
X158570772Y-88369377D01*
X158772612Y-88067302D01*
X158933553Y-87678756D01*
X159015600Y-87266279D01*
X159015600Y-87108719D01*
X160067535Y-87108719D01*
X160114195Y-87477025D01*
X160231811Y-87829151D01*
X160357285Y-88063896D01*
X160647223Y-88189771D01*
X161780995Y-87056000D01*
X162140205Y-87056000D01*
X163273977Y-88189771D01*
X163563915Y-88063896D01*
X163729739Y-87731738D01*
X163827575Y-87373613D01*
X163853665Y-87003281D01*
X163833705Y-86845721D01*
X164905600Y-86845721D01*
X164905600Y-87266279D01*
X164987647Y-87678756D01*
X165148588Y-88067302D01*
X165382237Y-88416983D01*
X165679617Y-88714363D01*
X166029298Y-88948012D01*
X166417844Y-89108953D01*
X166830321Y-89191000D01*
X167250879Y-89191000D01*
X167663356Y-89108953D01*
X168051902Y-88948012D01*
X168401583Y-88714363D01*
X168698963Y-88416983D01*
X168932612Y-88067302D01*
X169093553Y-87678756D01*
X169175600Y-87266279D01*
X169175600Y-86845721D01*
X169093553Y-86433244D01*
X168932612Y-86044698D01*
X168698963Y-85695017D01*
X168401583Y-85397637D01*
X168051902Y-85163988D01*
X167663356Y-85003047D01*
X167250879Y-84921000D01*
X166830321Y-84921000D01*
X166417844Y-85003047D01*
X166029298Y-85163988D01*
X165679617Y-85397637D01*
X165382237Y-85695017D01*
X165148588Y-86044698D01*
X164987647Y-86433244D01*
X164905600Y-86845721D01*
X163833705Y-86845721D01*
X163807005Y-86634975D01*
X163689389Y-86282849D01*
X163563915Y-86048104D01*
X163273977Y-85922229D01*
X162140205Y-87056000D01*
X161780995Y-87056000D01*
X160647223Y-85922229D01*
X160357285Y-86048104D01*
X160191461Y-86380262D01*
X160093625Y-86738387D01*
X160067535Y-87108719D01*
X159015600Y-87108719D01*
X159015600Y-86845721D01*
X158933553Y-86433244D01*
X158772612Y-86044698D01*
X158570773Y-85742623D01*
X160826829Y-85742623D01*
X161960600Y-86876395D01*
X163094371Y-85742623D01*
X162968496Y-85452685D01*
X162636338Y-85286861D01*
X162278213Y-85189025D01*
X161907881Y-85162935D01*
X161539575Y-85209595D01*
X161187449Y-85327211D01*
X160952704Y-85452685D01*
X160826829Y-85742623D01*
X158570773Y-85742623D01*
X158538963Y-85695017D01*
X158241583Y-85397637D01*
X157891902Y-85163988D01*
X157503356Y-85003047D01*
X157090879Y-84921000D01*
X156670321Y-84921000D01*
X156257844Y-85003047D01*
X155869298Y-85163988D01*
X155519617Y-85397637D01*
X155222237Y-85695017D01*
X154988588Y-86044698D01*
X154827647Y-86433244D01*
X154745600Y-86845721D01*
X152425400Y-86845721D01*
X152425400Y-84022666D01*
X170190600Y-83947813D01*
X170190601Y-108169994D01*
G37*
X170190601Y-108169994D02*
X170160524Y-119334354D01*
X170158963Y-119332017D01*
X169861583Y-119034637D01*
X169511902Y-118800988D01*
X169123356Y-118640047D01*
X168710879Y-118558000D01*
X168290321Y-118558000D01*
X167877844Y-118640047D01*
X167489298Y-118800988D01*
X167139617Y-119034637D01*
X166842237Y-119332017D01*
X166608588Y-119681698D01*
X166447647Y-120070244D01*
X166365600Y-120482721D01*
X166365600Y-120903279D01*
X166447647Y-121315756D01*
X166608588Y-121704302D01*
X166842237Y-122053983D01*
X167139617Y-122351363D01*
X167489298Y-122585012D01*
X167877844Y-122745953D01*
X168290321Y-122828000D01*
X168710879Y-122828000D01*
X169123356Y-122745953D01*
X169511902Y-122585012D01*
X169861583Y-122351363D01*
X170153182Y-122059764D01*
X170129541Y-130835400D01*
X152425400Y-130835400D01*
X152425400Y-120482721D01*
X153225600Y-120482721D01*
X153225600Y-120903279D01*
X153307647Y-121315756D01*
X153468588Y-121704302D01*
X153702237Y-122053983D01*
X153999617Y-122351363D01*
X154349298Y-122585012D01*
X154737844Y-122745953D01*
X155150321Y-122828000D01*
X155570879Y-122828000D01*
X155983356Y-122745953D01*
X156371902Y-122585012D01*
X156721583Y-122351363D01*
X157018963Y-122053983D01*
X157252612Y-121704302D01*
X157413553Y-121315756D01*
X157495600Y-120903279D01*
X157495600Y-120482721D01*
X157413553Y-120070244D01*
X157252612Y-119681698D01*
X157018963Y-119332017D01*
X156721583Y-119034637D01*
X156371902Y-118800988D01*
X155983356Y-118640047D01*
X155570879Y-118558000D01*
X155150321Y-118558000D01*
X154737844Y-118640047D01*
X154349298Y-118800988D01*
X153999617Y-119034637D01*
X153702237Y-119332017D01*
X153468588Y-119681698D01*
X153307647Y-120070244D01*
X153225600Y-120482721D01*
X152425400Y-120482721D01*
X152425400Y-95605600D01*
X152758109Y-95605600D01*
X152763601Y-95661361D01*
X152763600Y-102966648D01*
X152758109Y-103022400D01*
X152763600Y-103078151D01*
X152780023Y-103244898D01*
X152844924Y-103458846D01*
X152950316Y-103656023D01*
X153092151Y-103828849D01*
X153135465Y-103864396D01*
X155202001Y-105930933D01*
X155202000Y-108753528D01*
X155137000Y-108753528D01*
X155012518Y-108765788D01*
X154892820Y-108802098D01*
X154782506Y-108861063D01*
X154685815Y-108940415D01*
X154606463Y-109037106D01*
X154547498Y-109147420D01*
X154511188Y-109267118D01*
X154498928Y-109391600D01*
X154498928Y-111791600D01*
X154511188Y-111916082D01*
X154547498Y-112035780D01*
X154606463Y-112146094D01*
X154685815Y-112242785D01*
X154782506Y-112322137D01*
X154892820Y-112381102D01*
X155012518Y-112417412D01*
X155137000Y-112429672D01*
X155202000Y-112429672D01*
X155202000Y-113811909D01*
X155193023Y-113841502D01*
X155171109Y-114064000D01*
X155193023Y-114286498D01*
X155257924Y-114500446D01*
X155363317Y-114697622D01*
X155505152Y-114870448D01*
X155548454Y-114905985D01*
X157288373Y-116645906D01*
X157276106Y-116652463D01*
X157179415Y-116731815D01*
X157100063Y-116828506D01*
X157041098Y-116938820D01*
X157004788Y-117058518D01*
X156992528Y-117183000D01*
X156992528Y-118783000D01*
X157004788Y-118907482D01*
X157041098Y-119027180D01*
X157100063Y-119137494D01*
X157179415Y-119234185D01*
X157276106Y-119313537D01*
X157386420Y-119372502D01*
X157506118Y-119408812D01*
X157630600Y-119421072D01*
X159230600Y-119421072D01*
X159355082Y-119408812D01*
X159474780Y-119372502D01*
X159585094Y-119313537D01*
X159681785Y-119234185D01*
X159761137Y-119137494D01*
X159820102Y-119027180D01*
X159849261Y-118931057D01*
X160015841Y-119097637D01*
X160250873Y-119254680D01*
X160512026Y-119362853D01*
X160789265Y-119418000D01*
X161071935Y-119418000D01*
X161349174Y-119362853D01*
X161610327Y-119254680D01*
X161845359Y-119097637D01*
X161930600Y-119012396D01*
X162015841Y-119097637D01*
X162250873Y-119254680D01*
X162512026Y-119362853D01*
X162789265Y-119418000D01*
X163071935Y-119418000D01*
X163349174Y-119362853D01*
X163610327Y-119254680D01*
X163845359Y-119097637D01*
X164045237Y-118897759D01*
X164180600Y-118695173D01*
X164315963Y-118897759D01*
X164515841Y-119097637D01*
X164750873Y-119254680D01*
X165012026Y-119362853D01*
X165289265Y-119418000D01*
X165571935Y-119418000D01*
X165849174Y-119362853D01*
X166110327Y-119254680D01*
X166345359Y-119097637D01*
X166545237Y-118897759D01*
X166702280Y-118662727D01*
X166810453Y-118401574D01*
X166865600Y-118124335D01*
X166865600Y-117841665D01*
X166810453Y-117564426D01*
X166702280Y-117303273D01*
X166565600Y-117098716D01*
X166565600Y-117077403D01*
X166574177Y-117049129D01*
X166590600Y-116882382D01*
X166590600Y-116882372D01*
X166596090Y-116826631D01*
X166590600Y-116770889D01*
X166590600Y-115778141D01*
X166596090Y-115722399D01*
X166590600Y-115666657D01*
X166590600Y-115666648D01*
X166574177Y-115499901D01*
X166509276Y-115285953D01*
X166403884Y-115088777D01*
X166262049Y-114915951D01*
X166218740Y-114880409D01*
X165107708Y-113769377D01*
X165906829Y-113769377D01*
X166032704Y-114059315D01*
X166364862Y-114225139D01*
X166722987Y-114322975D01*
X167093319Y-114349065D01*
X167461625Y-114302405D01*
X167813751Y-114184789D01*
X168048496Y-114059315D01*
X168174371Y-113769377D01*
X167040600Y-112635605D01*
X165906829Y-113769377D01*
X165107708Y-113769377D01*
X164773596Y-113435265D01*
X164738049Y-113391951D01*
X164565223Y-113250116D01*
X164368047Y-113144724D01*
X164154099Y-113079823D01*
X163987352Y-113063400D01*
X163987351Y-113063400D01*
X163931600Y-113057909D01*
X163875849Y-113063400D01*
X161734732Y-113063400D01*
X161180051Y-112508719D01*
X165147535Y-112508719D01*
X165194195Y-112877025D01*
X165311811Y-113229151D01*
X165437285Y-113463896D01*
X165727223Y-113589771D01*
X166860995Y-112456000D01*
X167220205Y-112456000D01*
X168353977Y-113589771D01*
X168643915Y-113463896D01*
X168809739Y-113131738D01*
X168907575Y-112773613D01*
X168933665Y-112403281D01*
X168887005Y-112034975D01*
X168769389Y-111682849D01*
X168643915Y-111448104D01*
X168353977Y-111322229D01*
X167220205Y-112456000D01*
X166860995Y-112456000D01*
X165727223Y-111322229D01*
X165437285Y-111448104D01*
X165271461Y-111780262D01*
X165173625Y-112138387D01*
X165147535Y-112508719D01*
X161180051Y-112508719D01*
X160972000Y-112300669D01*
X160972000Y-112040153D01*
X161006744Y-112016938D01*
X161262338Y-111761344D01*
X161463156Y-111460799D01*
X161594948Y-111142623D01*
X165906829Y-111142623D01*
X167040600Y-112276395D01*
X168174371Y-111142623D01*
X168048496Y-110852685D01*
X167716338Y-110686861D01*
X167358213Y-110589025D01*
X166987881Y-110562935D01*
X166619575Y-110609595D01*
X166267449Y-110727211D01*
X166032704Y-110852685D01*
X165906829Y-111142623D01*
X161594948Y-111142623D01*
X161601482Y-111126850D01*
X161672000Y-110772332D01*
X161672000Y-110410868D01*
X161601482Y-110056350D01*
X161463156Y-109722401D01*
X161262338Y-109421856D01*
X161006744Y-109166262D01*
X160972000Y-109143047D01*
X160972000Y-109133178D01*
X160986177Y-109086443D01*
X161002600Y-108919696D01*
X161002600Y-108919695D01*
X161008091Y-108863944D01*
X161002600Y-108808193D01*
X161002600Y-107165721D01*
X164905600Y-107165721D01*
X164905600Y-107586279D01*
X164987647Y-107998756D01*
X165148588Y-108387302D01*
X165382237Y-108736983D01*
X165679617Y-109034363D01*
X166029298Y-109268012D01*
X166417844Y-109428953D01*
X166830321Y-109511000D01*
X167250879Y-109511000D01*
X167663356Y-109428953D01*
X168051902Y-109268012D01*
X168401583Y-109034363D01*
X168698963Y-108736983D01*
X168932612Y-108387302D01*
X169093553Y-107998756D01*
X169175600Y-107586279D01*
X169175600Y-107165721D01*
X169093553Y-106753244D01*
X168932612Y-106364698D01*
X168698963Y-106015017D01*
X168401583Y-105717637D01*
X168051902Y-105483988D01*
X167663356Y-105323047D01*
X167250879Y-105241000D01*
X166830321Y-105241000D01*
X166417844Y-105323047D01*
X166029298Y-105483988D01*
X165679617Y-105717637D01*
X165382237Y-106015017D01*
X165148588Y-106364698D01*
X164987647Y-106753244D01*
X164905600Y-107165721D01*
X161002600Y-107165721D01*
X161002600Y-104754552D01*
X161008091Y-104698800D01*
X160986177Y-104476301D01*
X160921276Y-104262353D01*
X160815884Y-104065177D01*
X160738335Y-103970684D01*
X160674049Y-103892351D01*
X160630741Y-103856809D01*
X158465600Y-101691669D01*
X158465600Y-98473683D01*
X158535094Y-98436537D01*
X158631785Y-98357185D01*
X158711137Y-98260494D01*
X158770102Y-98150180D01*
X158792113Y-98077620D01*
X158923968Y-98209475D01*
X159167189Y-98371990D01*
X159437442Y-98483932D01*
X159724340Y-98541000D01*
X160016860Y-98541000D01*
X160303758Y-98483932D01*
X160574011Y-98371990D01*
X160817232Y-98209475D01*
X161024075Y-98002632D01*
X161140600Y-97828240D01*
X161257125Y-98002632D01*
X161275601Y-98021108D01*
X161275600Y-98630893D01*
X161257125Y-98649368D01*
X161094610Y-98892589D01*
X160982668Y-99162842D01*
X160925600Y-99449740D01*
X160925600Y-99742260D01*
X160982668Y-100029158D01*
X161094610Y-100299411D01*
X161257125Y-100542632D01*
X161463968Y-100749475D01*
X161707189Y-100911990D01*
X161977442Y-101023932D01*
X162264340Y-101081000D01*
X162556860Y-101081000D01*
X162843758Y-101023932D01*
X163114011Y-100911990D01*
X163357232Y-100749475D01*
X163564075Y-100542632D01*
X163680600Y-100368240D01*
X163797125Y-100542632D01*
X164003968Y-100749475D01*
X164247189Y-100911990D01*
X164517442Y-101023932D01*
X164804340Y-101081000D01*
X165096860Y-101081000D01*
X165383758Y-101023932D01*
X165654011Y-100911990D01*
X165897232Y-100749475D01*
X166104075Y-100542632D01*
X166266590Y-100299411D01*
X166378532Y-100029158D01*
X166435600Y-99742260D01*
X166435600Y-99449740D01*
X166378532Y-99162842D01*
X166266590Y-98892589D01*
X166104075Y-98649368D01*
X166085600Y-98630893D01*
X166085600Y-98021107D01*
X166104075Y-98002632D01*
X166266590Y-97759411D01*
X166378532Y-97489158D01*
X166435600Y-97202260D01*
X166435600Y-96909740D01*
X166378532Y-96622842D01*
X166266590Y-96352589D01*
X166104075Y-96109368D01*
X165897232Y-95902525D01*
X165654011Y-95740010D01*
X165383758Y-95628068D01*
X165096860Y-95571000D01*
X164804340Y-95571000D01*
X164517442Y-95628068D01*
X164247189Y-95740010D01*
X164003968Y-95902525D01*
X163797125Y-96109368D01*
X163680600Y-96283760D01*
X163564075Y-96109368D01*
X163357232Y-95902525D01*
X163114011Y-95740010D01*
X162843758Y-95628068D01*
X162556860Y-95571000D01*
X162264340Y-95571000D01*
X161977442Y-95628068D01*
X161707189Y-95740010D01*
X161463968Y-95902525D01*
X161257125Y-96109368D01*
X161140600Y-96283760D01*
X161024075Y-96109368D01*
X161005600Y-96090893D01*
X161005600Y-94826152D01*
X161011091Y-94770400D01*
X160989177Y-94547901D01*
X160924276Y-94333953D01*
X160818884Y-94136777D01*
X160712589Y-94007256D01*
X160712587Y-94007254D01*
X160677049Y-93963951D01*
X160633745Y-93928413D01*
X159718995Y-93013664D01*
X159683449Y-92970351D01*
X159510623Y-92828516D01*
X159313447Y-92723124D01*
X159099499Y-92658223D01*
X158932752Y-92641800D01*
X158932751Y-92641800D01*
X158877000Y-92636309D01*
X158821249Y-92641800D01*
X155783152Y-92641800D01*
X155727400Y-92636309D01*
X155671648Y-92641800D01*
X155504901Y-92658223D01*
X155290953Y-92723124D01*
X155093777Y-92828516D01*
X154920951Y-92970351D01*
X154885409Y-93013660D01*
X153135460Y-94763609D01*
X153092152Y-94799151D01*
X152950317Y-94971977D01*
X152939134Y-94992899D01*
X152844924Y-95169154D01*
X152780023Y-95383102D01*
X152758109Y-95605600D01*
X152425400Y-95605600D01*
X152425400Y-86845721D01*
X154745600Y-86845721D01*
X154745600Y-87266279D01*
X154827647Y-87678756D01*
X154988588Y-88067302D01*
X155222237Y-88416983D01*
X155519617Y-88714363D01*
X155869298Y-88948012D01*
X156257844Y-89108953D01*
X156670321Y-89191000D01*
X157090879Y-89191000D01*
X157503356Y-89108953D01*
X157891902Y-88948012D01*
X158241583Y-88714363D01*
X158538963Y-88416983D01*
X158570772Y-88369377D01*
X160826829Y-88369377D01*
X160952704Y-88659315D01*
X161284862Y-88825139D01*
X161642987Y-88922975D01*
X162013319Y-88949065D01*
X162381625Y-88902405D01*
X162733751Y-88784789D01*
X162968496Y-88659315D01*
X163094371Y-88369377D01*
X161960600Y-87235605D01*
X160826829Y-88369377D01*
X158570772Y-88369377D01*
X158772612Y-88067302D01*
X158933553Y-87678756D01*
X159015600Y-87266279D01*
X159015600Y-87108719D01*
X160067535Y-87108719D01*
X160114195Y-87477025D01*
X160231811Y-87829151D01*
X160357285Y-88063896D01*
X160647223Y-88189771D01*
X161780995Y-87056000D01*
X162140205Y-87056000D01*
X163273977Y-88189771D01*
X163563915Y-88063896D01*
X163729739Y-87731738D01*
X163827575Y-87373613D01*
X163853665Y-87003281D01*
X163833705Y-86845721D01*
X164905600Y-86845721D01*
X164905600Y-87266279D01*
X164987647Y-87678756D01*
X165148588Y-88067302D01*
X165382237Y-88416983D01*
X165679617Y-88714363D01*
X166029298Y-88948012D01*
X166417844Y-89108953D01*
X166830321Y-89191000D01*
X167250879Y-89191000D01*
X167663356Y-89108953D01*
X168051902Y-88948012D01*
X168401583Y-88714363D01*
X168698963Y-88416983D01*
X168932612Y-88067302D01*
X169093553Y-87678756D01*
X169175600Y-87266279D01*
X169175600Y-86845721D01*
X169093553Y-86433244D01*
X168932612Y-86044698D01*
X168698963Y-85695017D01*
X168401583Y-85397637D01*
X168051902Y-85163988D01*
X167663356Y-85003047D01*
X167250879Y-84921000D01*
X166830321Y-84921000D01*
X166417844Y-85003047D01*
X166029298Y-85163988D01*
X165679617Y-85397637D01*
X165382237Y-85695017D01*
X165148588Y-86044698D01*
X164987647Y-86433244D01*
X164905600Y-86845721D01*
X163833705Y-86845721D01*
X163807005Y-86634975D01*
X163689389Y-86282849D01*
X163563915Y-86048104D01*
X163273977Y-85922229D01*
X162140205Y-87056000D01*
X161780995Y-87056000D01*
X160647223Y-85922229D01*
X160357285Y-86048104D01*
X160191461Y-86380262D01*
X160093625Y-86738387D01*
X160067535Y-87108719D01*
X159015600Y-87108719D01*
X159015600Y-86845721D01*
X158933553Y-86433244D01*
X158772612Y-86044698D01*
X158570773Y-85742623D01*
X160826829Y-85742623D01*
X161960600Y-86876395D01*
X163094371Y-85742623D01*
X162968496Y-85452685D01*
X162636338Y-85286861D01*
X162278213Y-85189025D01*
X161907881Y-85162935D01*
X161539575Y-85209595D01*
X161187449Y-85327211D01*
X160952704Y-85452685D01*
X160826829Y-85742623D01*
X158570773Y-85742623D01*
X158538963Y-85695017D01*
X158241583Y-85397637D01*
X157891902Y-85163988D01*
X157503356Y-85003047D01*
X157090879Y-84921000D01*
X156670321Y-84921000D01*
X156257844Y-85003047D01*
X155869298Y-85163988D01*
X155519617Y-85397637D01*
X155222237Y-85695017D01*
X154988588Y-86044698D01*
X154827647Y-86433244D01*
X154745600Y-86845721D01*
X152425400Y-86845721D01*
X152425400Y-84022666D01*
X170190600Y-83947813D01*
X170190601Y-108169994D01*
M02*
