  0
SECTION
  2
HEADER
  9
$ACADVER
  1
AC1014
  9
$HANDSEED
  5
FFFF
  9
$MEASUREMENT
 70
     1
  0
ENDSEC
  0
SECTION
  2
TABLES
  0
TABLE
  2
VPORT
  5
8
330
0
100
AcDbSymbolTable
 70
     4
  0
VPORT
  5
2E
330
8
100
AcDbSymbolTableRecord
100
AcDbViewportTableRecord
  2
*ACTIVE
 70
     0
 10
0.0
 20
0.0
 11
1.0
 21
1.0
 12
210.0
 22
148.5
 13
0.0
 23
0.0
 14
10.0
 24
10.0
 15
10.0
 25
10.0
 16
0.0
 26
0.0
 36
1.0
 17
0.0
 27
0.0
 37
0.0
 40
341.0
 41
1.24
 42
50.0
 43
0.0
 44
0.0
 50
0.0
 51
0.0
 71
     0
 72
   100
 73
     1
 74
     3
 75
     0
 76
     0
 77
     0
 78
     0
  0
ENDTAB
  0
TABLE
  2
LTYPE
  5
5
330
0
100
AcDbSymbolTable
 70
     1
  0
LTYPE
  5
14
330
5
100
AcDbSymbolTableRecord
100
AcDbLinetypeTableRecord
  2
BYBLOCK
 70
     0
  3

 72
    65
 73
     0
 40
0.0
  0
LTYPE
  5
15
330
5
100
AcDbSymbolTableRecord
100
AcDbLinetypeTableRecord
  2
BYLAYER
 70
     0
  3

 72
    65
 73
     0
 40
0.0
  0
LTYPE
  5
16
330
5
100
AcDbSymbolTableRecord
100
AcDbLinetypeTableRecord
  2
CONTINUOUS
 70
     0
  3
Solid line
 72
    65
 73
     0
 40
0.0
  0
ENDTAB
  0
TABLE
  2
LAYER
  5
2
100
AcDbSymbolTable
 70
1
  0
LAYER
  5
50
100
AcDbSymbolTableRecord
100
AcDbLayerTableRecord
  2
0
 70
0
  6
CONTINUOUS
  0
ENDTAB
  0
TABLE
  2
STYLE
  5
3
330
0
100
AcDbSymbolTable
 70
     1
  0
STYLE
  5
11
330
3
100
AcDbSymbolTableRecord
100
AcDbTextStyleTableRecord
  2
STANDARD
 70
     0
 40
0.0
 41
1.0
 50
0.0
 71
     0
 42
2.5
  3
txt
  4

  0
ENDTAB
  0
TABLE
  2
VIEW
  5
6
330
0
100
AcDbSymbolTable
 70
     0
  0
ENDTAB
  0
TABLE
  2
UCS
  5
7
330
0
100
AcDbSymbolTable
 70
     0
  0
ENDTAB
  0
TABLE
  2
APPID
  5
9
330
0
100
AcDbSymbolTable
 70
     2
  0
APPID
  5
12
330
9
100
AcDbSymbolTableRecord
100
AcDbRegAppTableRecord
  2
ACAD
 70
     0
  0
ENDTAB
  0
TABLE
  2
DIMSTYLE
  5
A
330
0
100
AcDbSymbolTable
 70
     1
  0
DIMSTYLE
105
27
330
A
100
AcDbSymbolTableRecord
100
AcDbDimStyleTableRecord
  2
ISO-25
 70
     0
  3

  4

  5

  6

  7

 40
1.0
 41
2.5
 42
0.625
 43
3.75
 44
1.25
 45
0.0
 46
0.0
 47
0.0
 48
0.0
140
2.5
141
2.5
142
0.0
143
0.03937007874016
144
1.0
145
0.0
146
1.0
147
0.625
 71
     0
 72
     0
 73
     0
 74
     0
 75
     0
 76
     0
 77
     1
 78
     8
170
     0
171
     3
172
     1
173
     0
174
     0
175
     0
176
     0
177
     0
178
     0
270
     2
271
     2
272
     2
273
     2
274
     3
340
11
275
     0
280
     0
281
     0
282
     0
283
     0
284
     8
285
     0
286
     0
287
     3
288
     0
  0
ENDTAB
  0
TABLE
  2
BLOCK_RECORD
  5
1
330
0
100
AcDbSymbolTable
 70
     1
  0
BLOCK_RECORD
  5
1F
330
1
100
AcDbSymbolTableRecord
100
AcDbBlockTableRecord
  2
*MODEL_SPACE
  0
BLOCK_RECORD
  5
1B
330
1
100
AcDbSymbolTableRecord
100
AcDbBlockTableRecord
  2
*PAPER_SPACE
  0
ENDTAB
  0
ENDSEC
  0
SECTION
  2
BLOCKS
  0
BLOCK
  5
20
330
1F
100
AcDbEntity
  8
0
100
AcDbBlockBegin
  2
*MODEL_SPACE
 70
     0
 10
0.0
 20
0.0
 30
0.0
  3
*MODEL_SPACE
  1

  0
ENDBLK
  5
21
330
1F
100
AcDbEntity
  8
0
100
AcDbBlockEnd
  0
BLOCK
  5
1C
330
1B
100
AcDbEntity
 67
     1
  8
0
100
AcDbBlockBegin
  2
*PAPER_SPACE
  1

  0
ENDBLK
  5
1D
330
1B
100
AcDbEntity
 67
     1
  8
0
100
AcDbBlockEnd
  0
ENDSEC
  0
SECTION
  2
ENTITIES
  0
LINE
  5
100
100
AcDbEntity
  8
0
 62
7
100
AcDbLine
 10
0.589749
 20
-71.076178
 30
0.0
 11
89.489664
 21
-71.076178
 31
0.0
  0
LINE
  5
101
100
AcDbEntity
  8
0
 62
7
100
AcDbLine
 10
89.489664
 20
-2.496244
 30
0.0
 11
89.489664
 21
-71.076178
 31
0.0
  0
LINE
  5
102
100
AcDbEntity
  8
0
 62
7
100
AcDbLine
 10
0.589749
 20
-2.496244
 30
0.0
 11
89.489664
 21
-2.496244
 31
0.0
  0
LINE
  5
103
100
AcDbEntity
  8
0
 62
7
100
AcDbLine
 10
0.589749
 20
-2.496244
 30
0.0
 11
0.589749
 21
-71.076178
 31
0.0
  0
SPLINE
  5
104
100
AcDbEntity
  8
0
 62
7
100
AcDbSpline
 70
8
 71
3
 72
8
 73
4
 74
0
 40
0
 40
0
 40
0
 40
0
 40
1
 40
1
 40
1
 40
1
 10
5.740714
 20
-6.304970
 30
0.0
 10
5.740714
 20
-6.784506
 30
0.0
 10
5.484885
 20
-7.227615
 30
0.0
 10
5.069595
 20
-7.467383
 30
0.0
  0
SPLINE
  5
105
100
AcDbEntity
  8
0
 62
7
100
AcDbSpline
 70
8
 71
3
 72
8
 73
4
 74
0
 40
0
 40
0
 40
0
 40
0
 40
1
 40
1
 40
1
 40
1
 10
5.069595
 20
-7.467383
 30
0.0
 10
4.654304
 20
-7.707151
 30
0.0
 10
4.142646
 20
-7.707151
 30
0.0
 10
3.727355
 20
-7.467383
 30
0.0
  0
SPLINE
  5
106
100
AcDbEntity
  8
0
 62
7
100
AcDbSpline
 70
8
 71
3
 72
8
 73
4
 74
0
 40
0
 40
0
 40
0
 40
0
 40
1
 40
1
 40
1
 40
1
 10
3.727355
 20
-7.467383
 30
0.0
 10
3.312065
 20
-7.227615
 30
0.0
 10
3.056236
 20
-6.784506
 30
0.0
 10
3.056236
 20
-6.304970
 30
0.0
  0
SPLINE
  5
107
100
AcDbEntity
  8
0
 62
7
100
AcDbSpline
 70
8
 71
3
 72
8
 73
4
 74
0
 40
0
 40
0
 40
0
 40
0
 40
1
 40
1
 40
1
 40
1
 10
3.056236
 20
-6.304970
 30
0.0
 10
3.056236
 20
-5.825434
 30
0.0
 10
3.312065
 20
-5.382325
 30
0.0
 10
3.727355
 20
-5.142557
 30
0.0
  0
SPLINE
  5
108
100
AcDbEntity
  8
0
 62
7
100
AcDbSpline
 70
8
 71
3
 72
8
 73
4
 74
0
 40
0
 40
0
 40
0
 40
0
 40
1
 40
1
 40
1
 40
1
 10
3.727355
 20
-5.142557
 30
0.0
 10
4.142646
 20
-4.902789
 30
0.0
 10
4.654304
 20
-4.902789
 30
0.0
 10
5.069595
 20
-5.142557
 30
0.0
  0
SPLINE
  5
109
100
AcDbEntity
  8
0
 62
7
100
AcDbSpline
 70
8
 71
3
 72
8
 73
4
 74
0
 40
0
 40
0
 40
0
 40
0
 40
1
 40
1
 40
1
 40
1
 10
5.069595
 20
-5.142557
 30
0.0
 10
5.484885
 20
-5.382325
 30
0.0
 10
5.740714
 20
-5.825434
 30
0.0
 10
5.740714
 20
-6.304970
 30
0.0
  0
LINE
  5
10a
100
AcDbEntity
  8
0
 62
7
100
AcDbLine
 10
5.740714
 20
-6.304970
 30
0.0
 11
5.740714
 21
-6.304970
 31
0.0
  0
SPLINE
  5
10b
100
AcDbEntity
  8
0
 62
7
100
AcDbSpline
 70
8
 71
3
 72
8
 73
4
 74
0
 40
0
 40
0
 40
0
 40
0
 40
1
 40
1
 40
1
 40
1
 10
9.329343
 20
-12.786280
 30
0.0
 10
9.329343
 20
-13.425660
 30
0.0
 10
8.988237
 20
-14.016473
 30
0.0
 10
8.434517
 20
-14.336163
 30
0.0
  0
SPLINE
  5
10c
100
AcDbEntity
  8
0
 62
7
100
AcDbSpline
 70
8
 71
3
 72
8
 73
4
 74
0
 40
0
 40
0
 40
0
 40
0
 40
1
 40
1
 40
1
 40
1
 10
8.434517
 20
-14.336163
 30
0.0
 10
7.880796
 20
-14.655853
 30
0.0
 10
7.198585
 20
-14.655853
 30
0.0
 10
6.644865
 20
-14.336163
 30
0.0
  0
SPLINE
  5
10d
100
AcDbEntity
  8
0
 62
7
100
AcDbSpline
 70
8
 71
3
 72
8
 73
4
 74
0
 40
0
 40
0
 40
0
 40
0
 40
1
 40
1
 40
1
 40
1
 10
6.644865
 20
-14.336163
 30
0.0
 10
6.091144
 20
-14.016473
 30
0.0
 10
5.750038
 20
-13.425660
 30
0.0
 10
5.750038
 20
-12.786280
 30
0.0
  0
SPLINE
  5
10e
100
AcDbEntity
  8
0
 62
7
100
AcDbSpline
 70
8
 71
3
 72
8
 73
4
 74
0
 40
0
 40
0
 40
0
 40
0
 40
1
 40
1
 40
1
 40
1
 10
5.750038
 20
-12.786280
 30
0.0
 10
5.750038
 20
-12.146899
 30
0.0
 10
6.091144
 20
-11.556087
 30
0.0
 10
6.644865
 20
-11.236396
 30
0.0
  0
SPLINE
  5
10f
100
AcDbEntity
  8
0
 62
7
100
AcDbSpline
 70
8
 71
3
 72
8
 73
4
 74
0
 40
0
 40
0
 40
0
 40
0
 40
1
 40
1
 40
1
 40
1
 10
6.644865
 20
-11.236396
 30
0.0
 10
7.198585
 20
-10.916706
 30
0.0
 10
7.880796
 20
-10.916706
 30
0.0
 10
8.434517
 20
-11.236396
 30
0.0
  0
SPLINE
  5
110
100
AcDbEntity
  8
0
 62
7
100
AcDbSpline
 70
8
 71
3
 72
8
 73
4
 74
0
 40
0
 40
0
 40
0
 40
0
 40
1
 40
1
 40
1
 40
1
 10
8.434517
 20
-11.236396
 30
0.0
 10
8.988237
 20
-11.556087
 30
0.0
 10
9.329343
 20
-12.146899
 30
0.0
 10
9.329343
 20
-12.786280
 30
0.0
  0
LINE
  5
111
100
AcDbEntity
  8
0
 62
7
100
AcDbLine
 10
9.329343
 20
-12.786280
 30
0.0
 11
9.329343
 21
-12.786280
 31
0.0
  0
SPLINE
  5
112
100
AcDbEntity
  8
0
 62
7
100
AcDbSpline
 70
8
 71
3
 72
8
 73
4
 74
0
 40
0
 40
0
 40
0
 40
0
 40
1
 40
1
 40
1
 40
1
 10
86.329364
 20
-13.786278
 30
0.0
 10
86.329364
 20
-14.425659
 30
0.0
 10
85.988259
 20
-15.016471
 30
0.0
 10
85.434538
 20
-15.336162
 30
0.0
  0
SPLINE
  5
113
100
AcDbEntity
  8
0
 62
7
100
AcDbSpline
 70
8
 71
3
 72
8
 73
4
 74
0
 40
0
 40
0
 40
0
 40
0
 40
1
 40
1
 40
1
 40
1
 10
85.434538
 20
-15.336162
 30
0.0
 10
84.880818
 20
-15.655852
 30
0.0
 10
84.198606
 20
-15.655852
 30
0.0
 10
83.644886
 20
-15.336162
 30
0.0
  0
SPLINE
  5
114
100
AcDbEntity
  8
0
 62
7
100
AcDbSpline
 70
8
 71
3
 72
8
 73
4
 74
0
 40
0
 40
0
 40
0
 40
0
 40
1
 40
1
 40
1
 40
1
 10
83.644886
 20
-15.336162
 30
0.0
 10
83.091166
 20
-15.016471
 30
0.0
 10
82.750060
 20
-14.425659
 30
0.0
 10
82.750060
 20
-13.786278
 30
0.0
  0
SPLINE
  5
115
100
AcDbEntity
  8
0
 62
7
100
AcDbSpline
 70
8
 71
3
 72
8
 73
4
 74
0
 40
0
 40
0
 40
0
 40
0
 40
1
 40
1
 40
1
 40
1
 10
82.750060
 20
-13.786278
 30
0.0
 10
82.750060
 20
-13.146898
 30
0.0
 10
83.091166
 20
-12.556086
 30
0.0
 10
83.644886
 20
-12.236395
 30
0.0
  0
SPLINE
  5
116
100
AcDbEntity
  8
0
 62
7
100
AcDbSpline
 70
8
 71
3
 72
8
 73
4
 74
0
 40
0
 40
0
 40
0
 40
0
 40
1
 40
1
 40
1
 40
1
 10
83.644886
 20
-12.236395
 30
0.0
 10
84.198606
 20
-11.916705
 30
0.0
 10
84.880818
 20
-11.916705
 30
0.0
 10
85.434538
 20
-12.236395
 30
0.0
  0
SPLINE
  5
117
100
AcDbEntity
  8
0
 62
7
100
AcDbSpline
 70
8
 71
3
 72
8
 73
4
 74
0
 40
0
 40
0
 40
0
 40
0
 40
1
 40
1
 40
1
 40
1
 10
85.434538
 20
-12.236395
 30
0.0
 10
85.988259
 20
-12.556086
 30
0.0
 10
86.329364
 20
-13.146898
 30
0.0
 10
86.329364
 20
-13.786278
 30
0.0
  0
LINE
  5
118
100
AcDbEntity
  8
0
 62
7
100
AcDbLine
 10
86.329364
 20
-13.786278
 30
0.0
 11
86.329364
 21
-13.786278
 31
0.0
  0
SPLINE
  5
119
100
AcDbEntity
  8
0
 62
7
100
AcDbSpline
 70
8
 71
3
 72
8
 73
4
 74
0
 40
0
 40
0
 40
0
 40
0
 40
1
 40
1
 40
1
 40
1
 10
76.329399
 20
-12.786280
 30
0.0
 10
76.329399
 20
-13.425660
 30
0.0
 10
75.988293
 20
-14.016473
 30
0.0
 10
75.434573
 20
-14.336163
 30
0.0
  0
SPLINE
  5
11a
100
AcDbEntity
  8
0
 62
7
100
AcDbSpline
 70
8
 71
3
 72
8
 73
4
 74
0
 40
0
 40
0
 40
0
 40
0
 40
1
 40
1
 40
1
 40
1
 10
75.434573
 20
-14.336163
 30
0.0
 10
74.880852
 20
-14.655853
 30
0.0
 10
74.198641
 20
-14.655853
 30
0.0
 10
73.644921
 20
-14.336163
 30
0.0
  0
SPLINE
  5
11b
100
AcDbEntity
  8
0
 62
7
100
AcDbSpline
 70
8
 71
3
 72
8
 73
4
 74
0
 40
0
 40
0
 40
0
 40
0
 40
1
 40
1
 40
1
 40
1
 10
73.644921
 20
-14.336163
 30
0.0
 10
73.091200
 20
-14.016473
 30
0.0
 10
72.750094
 20
-13.425660
 30
0.0
 10
72.750094
 20
-12.786280
 30
0.0
  0
SPLINE
  5
11c
100
AcDbEntity
  8
0
 62
7
100
AcDbSpline
 70
8
 71
3
 72
8
 73
4
 74
0
 40
0
 40
0
 40
0
 40
0
 40
1
 40
1
 40
1
 40
1
 10
72.750094
 20
-12.786280
 30
0.0
 10
72.750094
 20
-12.146899
 30
0.0
 10
73.091200
 20
-11.556087
 30
0.0
 10
73.644921
 20
-11.236396
 30
0.0
  0
SPLINE
  5
11d
100
AcDbEntity
  8
0
 62
7
100
AcDbSpline
 70
8
 71
3
 72
8
 73
4
 74
0
 40
0
 40
0
 40
0
 40
0
 40
1
 40
1
 40
1
 40
1
 10
73.644921
 20
-11.236396
 30
0.0
 10
74.198641
 20
-10.916706
 30
0.0
 10
74.880852
 20
-10.916706
 30
0.0
 10
75.434573
 20
-11.236396
 30
0.0
  0
SPLINE
  5
11e
100
AcDbEntity
  8
0
 62
7
100
AcDbSpline
 70
8
 71
3
 72
8
 73
4
 74
0
 40
0
 40
0
 40
0
 40
0
 40
1
 40
1
 40
1
 40
1
 10
75.434573
 20
-11.236396
 30
0.0
 10
75.988293
 20
-11.556087
 30
0.0
 10
76.329399
 20
-12.146899
 30
0.0
 10
76.329399
 20
-12.786280
 30
0.0
  0
LINE
  5
11f
100
AcDbEntity
  8
0
 62
7
100
AcDbLine
 10
76.329399
 20
-12.786280
 30
0.0
 11
76.329399
 21
-12.786280
 31
0.0
  0
SPLINE
  5
120
100
AcDbEntity
  8
0
 62
7
100
AcDbSpline
 70
8
 71
3
 72
8
 73
4
 74
0
 40
0
 40
0
 40
0
 40
0
 40
1
 40
1
 40
1
 40
1
 10
76.329399
 20
-60.786140
 30
0.0
 10
76.329399
 20
-61.425521
 30
0.0
 10
75.988293
 20
-62.016333
 30
0.0
 10
75.434573
 20
-62.336023
 30
0.0
  0
SPLINE
  5
121
100
AcDbEntity
  8
0
 62
7
100
AcDbSpline
 70
8
 71
3
 72
8
 73
4
 74
0
 40
0
 40
0
 40
0
 40
0
 40
1
 40
1
 40
1
 40
1
 10
75.434573
 20
-62.336023
 30
0.0
 10
74.880852
 20
-62.655713
 30
0.0
 10
74.198641
 20
-62.655713
 30
0.0
 10
73.644921
 20
-62.336023
 30
0.0
  0
SPLINE
  5
122
100
AcDbEntity
  8
0
 62
7
100
AcDbSpline
 70
8
 71
3
 72
8
 73
4
 74
0
 40
0
 40
0
 40
0
 40
0
 40
1
 40
1
 40
1
 40
1
 10
73.644921
 20
-62.336023
 30
0.0
 10
73.091200
 20
-62.016333
 30
0.0
 10
72.750094
 20
-61.425521
 30
0.0
 10
72.750094
 20
-60.786140
 30
0.0
  0
SPLINE
  5
123
100
AcDbEntity
  8
0
 62
7
100
AcDbSpline
 70
8
 71
3
 72
8
 73
4
 74
0
 40
0
 40
0
 40
0
 40
0
 40
1
 40
1
 40
1
 40
1
 10
72.750094
 20
-60.786140
 30
0.0
 10
72.750094
 20
-60.146759
 30
0.0
 10
73.091200
 20
-59.555947
 30
0.0
 10
73.644921
 20
-59.236256
 30
0.0
  0
SPLINE
  5
124
100
AcDbEntity
  8
0
 62
7
100
AcDbSpline
 70
8
 71
3
 72
8
 73
4
 74
0
 40
0
 40
0
 40
0
 40
0
 40
1
 40
1
 40
1
 40
1
 10
73.644921
 20
-59.236256
 30
0.0
 10
74.198641
 20
-58.916566
 30
0.0
 10
74.880852
 20
-58.916566
 30
0.0
 10
75.434573
 20
-59.236256
 30
0.0
  0
SPLINE
  5
125
100
AcDbEntity
  8
0
 62
7
100
AcDbSpline
 70
8
 71
3
 72
8
 73
4
 74
0
 40
0
 40
0
 40
0
 40
0
 40
1
 40
1
 40
1
 40
1
 10
75.434573
 20
-59.236256
 30
0.0
 10
75.988293
 20
-59.555947
 30
0.0
 10
76.329399
 20
-60.146759
 30
0.0
 10
76.329399
 20
-60.786140
 30
0.0
  0
LINE
  5
126
100
AcDbEntity
  8
0
 62
7
100
AcDbLine
 10
76.329399
 20
-60.786140
 30
0.0
 11
76.329399
 21
-60.786140
 31
0.0
  0
SPLINE
  5
127
100
AcDbEntity
  8
0
 62
7
100
AcDbSpline
 70
8
 71
3
 72
8
 73
4
 74
0
 40
0
 40
0
 40
0
 40
0
 40
1
 40
1
 40
1
 40
1
 10
8.329345
 20
-60.786140
 30
0.0
 10
8.329345
 20
-61.774537
 30
0.0
 10
7.528091
 20
-62.575791
 30
0.0
 10
6.539693
 20
-62.575791
 30
0.0
  0
SPLINE
  5
128
100
AcDbEntity
  8
0
 62
7
100
AcDbSpline
 70
8
 71
3
 72
8
 73
4
 74
0
 40
0
 40
0
 40
0
 40
0
 40
1
 40
1
 40
1
 40
1
 10
6.539693
 20
-62.575791
 30
0.0
 10
5.551295
 20
-62.575791
 30
0.0
 10
4.750041
 20
-61.774537
 30
0.0
 10
4.750041
 20
-60.786140
 30
0.0
  0
SPLINE
  5
129
100
AcDbEntity
  8
0
 62
7
100
AcDbSpline
 70
8
 71
3
 72
8
 73
4
 74
0
 40
0
 40
0
 40
0
 40
0
 40
1
 40
1
 40
1
 40
1
 10
4.750041
 20
-60.786140
 30
0.0
 10
4.750041
 20
-60.146759
 30
0.0
 10
5.091147
 20
-59.555947
 30
0.0
 10
5.644867
 20
-59.236256
 30
0.0
  0
SPLINE
  5
12a
100
AcDbEntity
  8
0
 62
7
100
AcDbSpline
 70
8
 71
3
 72
8
 73
4
 74
0
 40
0
 40
0
 40
0
 40
0
 40
1
 40
1
 40
1
 40
1
 10
5.644867
 20
-59.236256
 30
0.0
 10
6.198587
 20
-58.916566
 30
0.0
 10
6.880799
 20
-58.916566
 30
0.0
 10
7.434519
 20
-59.236256
 30
0.0
  0
SPLINE
  5
12b
100
AcDbEntity
  8
0
 62
7
100
AcDbSpline
 70
8
 71
3
 72
8
 73
4
 74
0
 40
0
 40
0
 40
0
 40
0
 40
1
 40
1
 40
1
 40
1
 10
7.434519
 20
-59.236256
 30
0.0
 10
7.988240
 20
-59.555947
 30
0.0
 10
8.329345
 20
-60.146759
 30
0.0
 10
8.329345
 20
-60.786140
 30
0.0
  0
LINE
  5
12c
100
AcDbEntity
  8
0
 62
7
100
AcDbLine
 10
8.329345
 20
-60.786140
 30
0.0
 11
8.329345
 21
-60.786140
 31
0.0
  0
SPLINE
  5
12d
100
AcDbEntity
  8
0
 62
7
100
AcDbSpline
 70
8
 71
3
 72
8
 73
4
 74
0
 40
0
 40
0
 40
0
 40
0
 40
1
 40
1
 40
1
 40
1
 10
15.900706
 20
-6.304970
 30
0.0
 10
15.900706
 20
-6.784505
 30
0.0
 10
15.644876
 20
-7.227615
 30
0.0
 10
15.229586
 20
-7.467382
 30
0.0
  0
SPLINE
  5
12e
100
AcDbEntity
  8
0
 62
7
100
AcDbSpline
 70
8
 71
3
 72
8
 73
4
 74
0
 40
0
 40
0
 40
0
 40
0
 40
1
 40
1
 40
1
 40
1
 10
15.229586
 20
-7.467382
 30
0.0
 10
14.814296
 20
-7.707150
 30
0.0
 10
14.302637
 20
-7.707150
 30
0.0
 10
13.887347
 20
-7.467382
 30
0.0
  0
SPLINE
  5
12f
100
AcDbEntity
  8
0
 62
7
100
AcDbSpline
 70
8
 71
3
 72
8
 73
4
 74
0
 40
0
 40
0
 40
0
 40
0
 40
1
 40
1
 40
1
 40
1
 10
13.887347
 20
-7.467382
 30
0.0
 10
13.472056
 20
-7.227615
 30
0.0
 10
13.216227
 20
-6.784505
 30
0.0
 10
13.216227
 20
-6.304970
 30
0.0
  0
SPLINE
  5
130
100
AcDbEntity
  8
0
 62
7
100
AcDbSpline
 70
8
 71
3
 72
8
 73
4
 74
0
 40
0
 40
0
 40
0
 40
0
 40
1
 40
1
 40
1
 40
1
 10
13.216227
 20
-6.304970
 30
0.0
 10
13.216227
 20
-5.825434
 30
0.0
 10
13.472056
 20
-5.382325
 30
0.0
 10
13.887347
 20
-5.142557
 30
0.0
  0
SPLINE
  5
131
100
AcDbEntity
  8
0
 62
7
100
AcDbSpline
 70
8
 71
3
 72
8
 73
4
 74
0
 40
0
 40
0
 40
0
 40
0
 40
1
 40
1
 40
1
 40
1
 10
13.887347
 20
-5.142557
 30
0.0
 10
14.302637
 20
-4.902789
 30
0.0
 10
14.814296
 20
-4.902789
 30
0.0
 10
15.229586
 20
-5.142557
 30
0.0
  0
SPLINE
  5
132
100
AcDbEntity
  8
0
 62
7
100
AcDbSpline
 70
8
 71
3
 72
8
 73
4
 74
0
 40
0
 40
0
 40
0
 40
0
 40
1
 40
1
 40
1
 40
1
 10
15.229586
 20
-5.142557
 30
0.0
 10
15.644876
 20
-5.382325
 30
0.0
 10
15.900706
 20
-5.825434
 30
0.0
 10
15.900706
 20
-6.304970
 30
0.0
  0
LINE
  5
133
100
AcDbEntity
  8
0
 62
7
100
AcDbLine
 10
15.900706
 20
-6.304970
 30
0.0
 11
15.900706
 21
-6.304970
 31
0.0
  0
SPLINE
  5
134
100
AcDbEntity
  8
0
 62
7
100
AcDbSpline
 70
8
 71
3
 72
8
 73
4
 74
0
 40
0
 40
0
 40
0
 40
0
 40
1
 40
1
 40
1
 40
1
 10
26.060695
 20
-6.304970
 30
0.0
 10
26.060695
 20
-6.784505
 30
0.0
 10
25.804865
 20
-7.227615
 30
0.0
 10
25.389575
 20
-7.467382
 30
0.0
  0
SPLINE
  5
135
100
AcDbEntity
  8
0
 62
7
100
AcDbSpline
 70
8
 71
3
 72
8
 73
4
 74
0
 40
0
 40
0
 40
0
 40
0
 40
1
 40
1
 40
1
 40
1
 10
25.389575
 20
-7.467382
 30
0.0
 10
24.974285
 20
-7.707150
 30
0.0
 10
24.462626
 20
-7.707150
 30
0.0
 10
24.047336
 20
-7.467382
 30
0.0
  0
SPLINE
  5
136
100
AcDbEntity
  8
0
 62
7
100
AcDbSpline
 70
8
 71
3
 72
8
 73
4
 74
0
 40
0
 40
0
 40
0
 40
0
 40
1
 40
1
 40
1
 40
1
 10
24.047336
 20
-7.467382
 30
0.0
 10
23.632045
 20
-7.227615
 30
0.0
 10
23.376216
 20
-6.784505
 30
0.0
 10
23.376216
 20
-6.304970
 30
0.0
  0
SPLINE
  5
137
100
AcDbEntity
  8
0
 62
7
100
AcDbSpline
 70
8
 71
3
 72
8
 73
4
 74
0
 40
0
 40
0
 40
0
 40
0
 40
1
 40
1
 40
1
 40
1
 10
23.376216
 20
-6.304970
 30
0.0
 10
23.376216
 20
-5.825434
 30
0.0
 10
23.632045
 20
-5.382325
 30
0.0
 10
24.047336
 20
-5.142557
 30
0.0
  0
SPLINE
  5
138
100
AcDbEntity
  8
0
 62
7
100
AcDbSpline
 70
8
 71
3
 72
8
 73
4
 74
0
 40
0
 40
0
 40
0
 40
0
 40
1
 40
1
 40
1
 40
1
 10
24.047336
 20
-5.142557
 30
0.0
 10
24.462626
 20
-4.902789
 30
0.0
 10
24.974285
 20
-4.902789
 30
0.0
 10
25.389575
 20
-5.142557
 30
0.0
  0
SPLINE
  5
139
100
AcDbEntity
  8
0
 62
7
100
AcDbSpline
 70
8
 71
3
 72
8
 73
4
 74
0
 40
0
 40
0
 40
0
 40
0
 40
1
 40
1
 40
1
 40
1
 10
25.389575
 20
-5.142557
 30
0.0
 10
25.804865
 20
-5.382325
 30
0.0
 10
26.060695
 20
-5.825434
 30
0.0
 10
26.060695
 20
-6.304970
 30
0.0
  0
LINE
  5
13a
100
AcDbEntity
  8
0
 62
7
100
AcDbLine
 10
26.060695
 20
-6.304970
 30
0.0
 11
26.060695
 21
-6.304970
 31
0.0
  0
SPLINE
  5
13b
100
AcDbEntity
  8
0
 62
7
100
AcDbSpline
 70
8
 71
3
 72
8
 73
4
 74
0
 40
0
 40
0
 40
0
 40
0
 40
1
 40
1
 40
1
 40
1
 10
36.220686
 20
-6.304970
 30
0.0
 10
36.220686
 20
-6.784505
 30
0.0
 10
35.964856
 20
-7.227615
 30
0.0
 10
35.549566
 20
-7.467382
 30
0.0
  0
SPLINE
  5
13c
100
AcDbEntity
  8
0
 62
7
100
AcDbSpline
 70
8
 71
3
 72
8
 73
4
 74
0
 40
0
 40
0
 40
0
 40
0
 40
1
 40
1
 40
1
 40
1
 10
35.549566
 20
-7.467382
 30
0.0
 10
35.134276
 20
-7.707150
 30
0.0
 10
34.622617
 20
-7.707150
 30
0.0
 10
34.207327
 20
-7.467382
 30
0.0
  0
SPLINE
  5
13d
100
AcDbEntity
  8
0
 62
7
100
AcDbSpline
 70
8
 71
3
 72
8
 73
4
 74
0
 40
0
 40
0
 40
0
 40
0
 40
1
 40
1
 40
1
 40
1
 10
34.207327
 20
-7.467382
 30
0.0
 10
33.792037
 20
-7.227615
 30
0.0
 10
33.536207
 20
-6.784505
 30
0.0
 10
33.536207
 20
-6.304970
 30
0.0
  0
SPLINE
  5
13e
100
AcDbEntity
  8
0
 62
7
100
AcDbSpline
 70
8
 71
3
 72
8
 73
4
 74
0
 40
0
 40
0
 40
0
 40
0
 40
1
 40
1
 40
1
 40
1
 10
33.536207
 20
-6.304970
 30
0.0
 10
33.536207
 20
-5.825434
 30
0.0
 10
33.792037
 20
-5.382325
 30
0.0
 10
34.207327
 20
-5.142557
 30
0.0
  0
SPLINE
  5
13f
100
AcDbEntity
  8
0
 62
7
100
AcDbSpline
 70
8
 71
3
 72
8
 73
4
 74
0
 40
0
 40
0
 40
0
 40
0
 40
1
 40
1
 40
1
 40
1
 10
34.207327
 20
-5.142557
 30
0.0
 10
34.622617
 20
-4.902789
 30
0.0
 10
35.134276
 20
-4.902789
 30
0.0
 10
35.549566
 20
-5.142557
 30
0.0
  0
SPLINE
  5
140
100
AcDbEntity
  8
0
 62
7
100
AcDbSpline
 70
8
 71
3
 72
8
 73
4
 74
0
 40
0
 40
0
 40
0
 40
0
 40
1
 40
1
 40
1
 40
1
 10
35.549566
 20
-5.142557
 30
0.0
 10
35.964856
 20
-5.382325
 30
0.0
 10
36.220686
 20
-5.825434
 30
0.0
 10
36.220686
 20
-6.304970
 30
0.0
  0
LINE
  5
141
100
AcDbEntity
  8
0
 62
7
100
AcDbLine
 10
36.220686
 20
-6.304970
 30
0.0
 11
36.220686
 21
-6.304970
 31
0.0
  0
SPLINE
  5
142
100
AcDbEntity
  8
0
 62
7
100
AcDbSpline
 70
8
 71
3
 72
8
 73
4
 74
0
 40
0
 40
0
 40
0
 40
0
 40
1
 40
1
 40
1
 40
1
 10
46.380679
 20
-6.304970
 30
0.0
 10
46.380679
 20
-6.784505
 30
0.0
 10
46.124849
 20
-7.227615
 30
0.0
 10
45.709559
 20
-7.467382
 30
0.0
  0
SPLINE
  5
143
100
AcDbEntity
  8
0
 62
7
100
AcDbSpline
 70
8
 71
3
 72
8
 73
4
 74
0
 40
0
 40
0
 40
0
 40
0
 40
1
 40
1
 40
1
 40
1
 10
45.709559
 20
-7.467382
 30
0.0
 10
45.294269
 20
-7.707150
 30
0.0
 10
44.782610
 20
-7.707150
 30
0.0
 10
44.367320
 20
-7.467382
 30
0.0
  0
SPLINE
  5
144
100
AcDbEntity
  8
0
 62
7
100
AcDbSpline
 70
8
 71
3
 72
8
 73
4
 74
0
 40
0
 40
0
 40
0
 40
0
 40
1
 40
1
 40
1
 40
1
 10
44.367320
 20
-7.467382
 30
0.0
 10
43.952029
 20
-7.227615
 30
0.0
 10
43.696200
 20
-6.784505
 30
0.0
 10
43.696200
 20
-6.304970
 30
0.0
  0
SPLINE
  5
145
100
AcDbEntity
  8
0
 62
7
100
AcDbSpline
 70
8
 71
3
 72
8
 73
4
 74
0
 40
0
 40
0
 40
0
 40
0
 40
1
 40
1
 40
1
 40
1
 10
43.696200
 20
-6.304970
 30
0.0
 10
43.696200
 20
-5.825434
 30
0.0
 10
43.952029
 20
-5.382325
 30
0.0
 10
44.367320
 20
-5.142557
 30
0.0
  0
SPLINE
  5
146
100
AcDbEntity
  8
0
 62
7
100
AcDbSpline
 70
8
 71
3
 72
8
 73
4
 74
0
 40
0
 40
0
 40
0
 40
0
 40
1
 40
1
 40
1
 40
1
 10
44.367320
 20
-5.142557
 30
0.0
 10
44.782610
 20
-4.902789
 30
0.0
 10
45.294269
 20
-4.902789
 30
0.0
 10
45.709559
 20
-5.142557
 30
0.0
  0
SPLINE
  5
147
100
AcDbEntity
  8
0
 62
7
100
AcDbSpline
 70
8
 71
3
 72
8
 73
4
 74
0
 40
0
 40
0
 40
0
 40
0
 40
1
 40
1
 40
1
 40
1
 10
45.709559
 20
-5.142557
 30
0.0
 10
46.124849
 20
-5.382325
 30
0.0
 10
46.380679
 20
-5.825434
 30
0.0
 10
46.380679
 20
-6.304970
 30
0.0
  0
LINE
  5
148
100
AcDbEntity
  8
0
 62
7
100
AcDbLine
 10
46.380679
 20
-6.304970
 30
0.0
 11
46.380679
 21
-6.304970
 31
0.0
  0
SPLINE
  5
149
100
AcDbEntity
  8
0
 62
7
100
AcDbSpline
 70
8
 71
3
 72
8
 73
4
 74
0
 40
0
 40
0
 40
0
 40
0
 40
1
 40
1
 40
1
 40
1
 10
56.540669
 20
-6.304970
 30
0.0
 10
56.540669
 20
-6.784505
 30
0.0
 10
56.284840
 20
-7.227615
 30
0.0
 10
55.869549
 20
-7.467382
 30
0.0
  0
SPLINE
  5
14a
100
AcDbEntity
  8
0
 62
7
100
AcDbSpline
 70
8
 71
3
 72
8
 73
4
 74
0
 40
0
 40
0
 40
0
 40
0
 40
1
 40
1
 40
1
 40
1
 10
55.869549
 20
-7.467382
 30
0.0
 10
55.454259
 20
-7.707150
 30
0.0
 10
54.942600
 20
-7.707150
 30
0.0
 10
54.527310
 20
-7.467382
 30
0.0
  0
SPLINE
  5
14b
100
AcDbEntity
  8
0
 62
7
100
AcDbSpline
 70
8
 71
3
 72
8
 73
4
 74
0
 40
0
 40
0
 40
0
 40
0
 40
1
 40
1
 40
1
 40
1
 10
54.527310
 20
-7.467382
 30
0.0
 10
54.112020
 20
-7.227615
 30
0.0
 10
53.856190
 20
-6.784505
 30
0.0
 10
53.856190
 20
-6.304970
 30
0.0
  0
SPLINE
  5
14c
100
AcDbEntity
  8
0
 62
7
100
AcDbSpline
 70
8
 71
3
 72
8
 73
4
 74
0
 40
0
 40
0
 40
0
 40
0
 40
1
 40
1
 40
1
 40
1
 10
53.856190
 20
-6.304970
 30
0.0
 10
53.856190
 20
-5.825434
 30
0.0
 10
54.112020
 20
-5.382325
 30
0.0
 10
54.527310
 20
-5.142557
 30
0.0
  0
SPLINE
  5
14d
100
AcDbEntity
  8
0
 62
7
100
AcDbSpline
 70
8
 71
3
 72
8
 73
4
 74
0
 40
0
 40
0
 40
0
 40
0
 40
1
 40
1
 40
1
 40
1
 10
54.527310
 20
-5.142557
 30
0.0
 10
54.942600
 20
-4.902789
 30
0.0
 10
55.454259
 20
-4.902789
 30
0.0
 10
55.869549
 20
-5.142557
 30
0.0
  0
SPLINE
  5
14e
100
AcDbEntity
  8
0
 62
7
100
AcDbSpline
 70
8
 71
3
 72
8
 73
4
 74
0
 40
0
 40
0
 40
0
 40
0
 40
1
 40
1
 40
1
 40
1
 10
55.869549
 20
-5.142557
 30
0.0
 10
56.284840
 20
-5.382325
 30
0.0
 10
56.540669
 20
-5.825434
 30
0.0
 10
56.540669
 20
-6.304970
 30
0.0
  0
LINE
  5
14f
100
AcDbEntity
  8
0
 62
7
100
AcDbLine
 10
56.540669
 20
-6.304970
 30
0.0
 11
56.540669
 21
-6.304970
 31
0.0
  0
SPLINE
  5
150
100
AcDbEntity
  8
0
 62
7
100
AcDbSpline
 70
8
 71
3
 72
8
 73
4
 74
0
 40
0
 40
0
 40
0
 40
0
 40
1
 40
1
 40
1
 40
1
 10
66.700659
 20
-6.304970
 30
0.0
 10
66.700659
 20
-6.784505
 30
0.0
 10
66.444830
 20
-7.227615
 30
0.0
 10
66.029540
 20
-7.467382
 30
0.0
  0
SPLINE
  5
151
100
AcDbEntity
  8
0
 62
7
100
AcDbSpline
 70
8
 71
3
 72
8
 73
4
 74
0
 40
0
 40
0
 40
0
 40
0
 40
1
 40
1
 40
1
 40
1
 10
66.029540
 20
-7.467382
 30
0.0
 10
65.614249
 20
-7.707150
 30
0.0
 10
65.102591
 20
-7.707150
 30
0.0
 10
64.687300
 20
-7.467382
 30
0.0
  0
SPLINE
  5
152
100
AcDbEntity
  8
0
 62
7
100
AcDbSpline
 70
8
 71
3
 72
8
 73
4
 74
0
 40
0
 40
0
 40
0
 40
0
 40
1
 40
1
 40
1
 40
1
 10
64.687300
 20
-7.467382
 30
0.0
 10
64.272010
 20
-7.227615
 30
0.0
 10
64.016181
 20
-6.784505
 30
0.0
 10
64.016181
 20
-6.304970
 30
0.0
  0
SPLINE
  5
153
100
AcDbEntity
  8
0
 62
7
100
AcDbSpline
 70
8
 71
3
 72
8
 73
4
 74
0
 40
0
 40
0
 40
0
 40
0
 40
1
 40
1
 40
1
 40
1
 10
64.016181
 20
-6.304970
 30
0.0
 10
64.016181
 20
-5.563672
 30
0.0
 10
64.617122
 20
-4.962731
 30
0.0
 10
65.358420
 20
-4.962731
 30
0.0
  0
SPLINE
  5
154
100
AcDbEntity
  8
0
 62
7
100
AcDbSpline
 70
8
 71
3
 72
8
 73
4
 74
0
 40
0
 40
0
 40
0
 40
0
 40
1
 40
1
 40
1
 40
1
 10
65.358420
 20
-4.962731
 30
0.0
 10
66.099718
 20
-4.962731
 30
0.0
 10
66.700659
 20
-5.563672
 30
0.0
 10
66.700659
 20
-6.304970
 30
0.0
  0
LINE
  5
155
100
AcDbEntity
  8
0
 62
7
100
AcDbLine
 10
66.700659
 20
-6.304970
 30
0.0
 11
66.700659
 21
-6.304970
 31
0.0
  0
SPLINE
  5
156
100
AcDbEntity
  8
0
 62
7
100
AcDbSpline
 70
8
 71
3
 72
8
 73
4
 74
0
 40
0
 40
0
 40
0
 40
0
 40
1
 40
1
 40
1
 40
1
 10
76.860650
 20
-6.304970
 30
0.0
 10
76.860650
 20
-6.784505
 30
0.0
 10
76.604820
 20
-7.227615
 30
0.0
 10
76.189530
 20
-7.467382
 30
0.0
  0
SPLINE
  5
157
100
AcDbEntity
  8
0
 62
7
100
AcDbSpline
 70
8
 71
3
 72
8
 73
4
 74
0
 40
0
 40
0
 40
0
 40
0
 40
1
 40
1
 40
1
 40
1
 10
76.189530
 20
-7.467382
 30
0.0
 10
75.774240
 20
-7.707150
 30
0.0
 10
75.262581
 20
-7.707150
 30
0.0
 10
74.847291
 20
-7.467382
 30
0.0
  0
SPLINE
  5
158
100
AcDbEntity
  8
0
 62
7
100
AcDbSpline
 70
8
 71
3
 72
8
 73
4
 74
0
 40
0
 40
0
 40
0
 40
0
 40
1
 40
1
 40
1
 40
1
 10
74.847291
 20
-7.467382
 30
0.0
 10
74.432000
 20
-7.227615
 30
0.0
 10
74.176171
 20
-6.784505
 30
0.0
 10
74.176171
 20
-6.304970
 30
0.0
  0
SPLINE
  5
159
100
AcDbEntity
  8
0
 62
7
100
AcDbSpline
 70
8
 71
3
 72
8
 73
4
 74
0
 40
0
 40
0
 40
0
 40
0
 40
1
 40
1
 40
1
 40
1
 10
74.176171
 20
-6.304970
 30
0.0
 10
74.176171
 20
-5.825434
 30
0.0
 10
74.432000
 20
-5.382325
 30
0.0
 10
74.847291
 20
-5.142557
 30
0.0
  0
SPLINE
  5
15a
100
AcDbEntity
  8
0
 62
7
100
AcDbSpline
 70
8
 71
3
 72
8
 73
4
 74
0
 40
0
 40
0
 40
0
 40
0
 40
1
 40
1
 40
1
 40
1
 10
74.847291
 20
-5.142557
 30
0.0
 10
75.262581
 20
-4.902789
 30
0.0
 10
75.774240
 20
-4.902789
 30
0.0
 10
76.189530
 20
-5.142557
 30
0.0
  0
SPLINE
  5
15b
100
AcDbEntity
  8
0
 62
7
100
AcDbSpline
 70
8
 71
3
 72
8
 73
4
 74
0
 40
0
 40
0
 40
0
 40
0
 40
1
 40
1
 40
1
 40
1
 10
76.189530
 20
-5.142557
 30
0.0
 10
76.604820
 20
-5.382325
 30
0.0
 10
76.860650
 20
-5.825434
 30
0.0
 10
76.860650
 20
-6.304970
 30
0.0
  0
LINE
  5
15c
100
AcDbEntity
  8
0
 62
7
100
AcDbLine
 10
76.860650
 20
-6.304970
 30
0.0
 11
76.860650
 21
-6.304970
 31
0.0
  0
SPLINE
  5
15d
100
AcDbEntity
  8
0
 62
7
100
AcDbSpline
 70
8
 71
3
 72
8
 73
4
 74
0
 40
0
 40
0
 40
0
 40
0
 40
1
 40
1
 40
1
 40
1
 10
87.020635
 20
-6.304970
 30
0.0
 10
87.020635
 20
-7.046268
 30
0.0
 10
86.419694
 20
-7.647208
 30
0.0
 10
85.678395
 20
-7.647208
 30
0.0
  0
SPLINE
  5
15e
100
AcDbEntity
  8
0
 62
7
100
AcDbSpline
 70
8
 71
3
 72
8
 73
4
 74
0
 40
0
 40
0
 40
0
 40
0
 40
1
 40
1
 40
1
 40
1
 10
85.678395
 20
-7.647208
 30
0.0
 10
84.937097
 20
-7.647208
 30
0.0
 10
84.336156
 20
-7.046268
 30
0.0
 10
84.336156
 20
-6.304970
 30
0.0
  0
SPLINE
  5
15f
100
AcDbEntity
  8
0
 62
7
100
AcDbSpline
 70
8
 71
3
 72
8
 73
4
 74
0
 40
0
 40
0
 40
0
 40
0
 40
1
 40
1
 40
1
 40
1
 10
84.336156
 20
-6.304970
 30
0.0
 10
84.336156
 20
-5.825434
 30
0.0
 10
84.591986
 20
-5.382325
 30
0.0
 10
85.007276
 20
-5.142557
 30
0.0
  0
SPLINE
  5
160
100
AcDbEntity
  8
0
 62
7
100
AcDbSpline
 70
8
 71
3
 72
8
 73
4
 74
0
 40
0
 40
0
 40
0
 40
0
 40
1
 40
1
 40
1
 40
1
 10
85.007276
 20
-5.142557
 30
0.0
 10
85.422566
 20
-4.902789
 30
0.0
 10
85.934225
 20
-4.902789
 30
0.0
 10
86.349515
 20
-5.142557
 30
0.0
  0
SPLINE
  5
161
100
AcDbEntity
  8
0
 62
7
100
AcDbSpline
 70
8
 71
3
 72
8
 73
4
 74
0
 40
0
 40
0
 40
0
 40
0
 40
1
 40
1
 40
1
 40
1
 10
86.349515
 20
-5.142557
 30
0.0
 10
86.764805
 20
-5.382325
 30
0.0
 10
87.020635
 20
-5.825434
 30
0.0
 10
87.020635
 20
-6.304970
 30
0.0
  0
LINE
  5
162
100
AcDbEntity
  8
0
 62
7
100
AcDbLine
 10
87.020635
 20
-6.304970
 30
0.0
 11
87.020635
 21
-6.304970
 31
0.0
  0
SPLINE
  5
163
100
AcDbEntity
  8
0
 62
7
100
AcDbSpline
 70
8
 71
3
 72
8
 73
4
 74
0
 40
0
 40
0
 40
0
 40
0
 40
1
 40
1
 40
1
 40
1
 10
15.900706
 20
-16.464959
 30
0.0
 10
15.900706
 20
-16.944495
 30
0.0
 10
15.644876
 20
-17.387604
 30
0.0
 10
15.229586
 20
-17.627372
 30
0.0
  0
SPLINE
  5
164
100
AcDbEntity
  8
0
 62
7
100
AcDbSpline
 70
8
 71
3
 72
8
 73
4
 74
0
 40
0
 40
0
 40
0
 40
0
 40
1
 40
1
 40
1
 40
1
 10
15.229586
 20
-17.627372
 30
0.0
 10
14.814296
 20
-17.867139
 30
0.0
 10
14.302637
 20
-17.867139
 30
0.0
 10
13.887347
 20
-17.627372
 30
0.0
  0
SPLINE
  5
165
100
AcDbEntity
  8
0
 62
7
100
AcDbSpline
 70
8
 71
3
 72
8
 73
4
 74
0
 40
0
 40
0
 40
0
 40
0
 40
1
 40
1
 40
1
 40
1
 10
13.887347
 20
-17.627372
 30
0.0
 10
13.472056
 20
-17.387604
 30
0.0
 10
13.216227
 20
-16.944495
 30
0.0
 10
13.216227
 20
-16.464959
 30
0.0
  0
SPLINE
  5
166
100
AcDbEntity
  8
0
 62
7
100
AcDbSpline
 70
8
 71
3
 72
8
 73
4
 74
0
 40
0
 40
0
 40
0
 40
0
 40
1
 40
1
 40
1
 40
1
 10
13.216227
 20
-16.464959
 30
0.0
 10
13.216227
 20
-15.985423
 30
0.0
 10
13.472056
 20
-15.542314
 30
0.0
 10
13.887347
 20
-15.302546
 30
0.0
  0
SPLINE
  5
167
100
AcDbEntity
  8
0
 62
7
100
AcDbSpline
 70
8
 71
3
 72
8
 73
4
 74
0
 40
0
 40
0
 40
0
 40
0
 40
1
 40
1
 40
1
 40
1
 10
13.887347
 20
-15.302546
 30
0.0
 10
14.302637
 20
-15.062778
 30
0.0
 10
14.814296
 20
-15.062778
 30
0.0
 10
15.229586
 20
-15.302546
 30
0.0
  0
SPLINE
  5
168
100
AcDbEntity
  8
0
 62
7
100
AcDbSpline
 70
8
 71
3
 72
8
 73
4
 74
0
 40
0
 40
0
 40
0
 40
0
 40
1
 40
1
 40
1
 40
1
 10
15.229586
 20
-15.302546
 30
0.0
 10
15.644876
 20
-15.542314
 30
0.0
 10
15.900706
 20
-15.985423
 30
0.0
 10
15.900706
 20
-16.464959
 30
0.0
  0
LINE
  5
169
100
AcDbEntity
  8
0
 62
7
100
AcDbLine
 10
15.900706
 20
-16.464959
 30
0.0
 11
15.900706
 21
-16.464959
 31
0.0
  0
SPLINE
  5
16a
100
AcDbEntity
  8
0
 62
7
100
AcDbSpline
 70
8
 71
3
 72
8
 73
4
 74
0
 40
0
 40
0
 40
0
 40
0
 40
1
 40
1
 40
1
 40
1
 10
26.060695
 20
-16.464959
 30
0.0
 10
26.060695
 20
-16.944495
 30
0.0
 10
25.804865
 20
-17.387604
 30
0.0
 10
25.389575
 20
-17.627372
 30
0.0
  0
SPLINE
  5
16b
100
AcDbEntity
  8
0
 62
7
100
AcDbSpline
 70
8
 71
3
 72
8
 73
4
 74
0
 40
0
 40
0
 40
0
 40
0
 40
1
 40
1
 40
1
 40
1
 10
25.389575
 20
-17.627372
 30
0.0
 10
24.974285
 20
-17.867139
 30
0.0
 10
24.462626
 20
-17.867139
 30
0.0
 10
24.047336
 20
-17.627372
 30
0.0
  0
SPLINE
  5
16c
100
AcDbEntity
  8
0
 62
7
100
AcDbSpline
 70
8
 71
3
 72
8
 73
4
 74
0
 40
0
 40
0
 40
0
 40
0
 40
1
 40
1
 40
1
 40
1
 10
24.047336
 20
-17.627372
 30
0.0
 10
23.632045
 20
-17.387604
 30
0.0
 10
23.376216
 20
-16.944495
 30
0.0
 10
23.376216
 20
-16.464959
 30
0.0
  0
SPLINE
  5
16d
100
AcDbEntity
  8
0
 62
7
100
AcDbSpline
 70
8
 71
3
 72
8
 73
4
 74
0
 40
0
 40
0
 40
0
 40
0
 40
1
 40
1
 40
1
 40
1
 10
23.376216
 20
-16.464959
 30
0.0
 10
23.376216
 20
-15.985423
 30
0.0
 10
23.632045
 20
-15.542314
 30
0.0
 10
24.047336
 20
-15.302546
 30
0.0
  0
SPLINE
  5
16e
100
AcDbEntity
  8
0
 62
7
100
AcDbSpline
 70
8
 71
3
 72
8
 73
4
 74
0
 40
0
 40
0
 40
0
 40
0
 40
1
 40
1
 40
1
 40
1
 10
24.047336
 20
-15.302546
 30
0.0
 10
24.462626
 20
-15.062778
 30
0.0
 10
24.974285
 20
-15.062778
 30
0.0
 10
25.389575
 20
-15.302546
 30
0.0
  0
SPLINE
  5
16f
100
AcDbEntity
  8
0
 62
7
100
AcDbSpline
 70
8
 71
3
 72
8
 73
4
 74
0
 40
0
 40
0
 40
0
 40
0
 40
1
 40
1
 40
1
 40
1
 10
25.389575
 20
-15.302546
 30
0.0
 10
25.804865
 20
-15.542314
 30
0.0
 10
26.060695
 20
-15.985423
 30
0.0
 10
26.060695
 20
-16.464959
 30
0.0
  0
LINE
  5
170
100
AcDbEntity
  8
0
 62
7
100
AcDbLine
 10
26.060695
 20
-16.464959
 30
0.0
 11
26.060695
 21
-16.464959
 31
0.0
  0
SPLINE
  5
171
100
AcDbEntity
  8
0
 62
7
100
AcDbSpline
 70
8
 71
3
 72
8
 73
4
 74
0
 40
0
 40
0
 40
0
 40
0
 40
1
 40
1
 40
1
 40
1
 10
36.220686
 20
-16.464959
 30
0.0
 10
36.220686
 20
-16.944495
 30
0.0
 10
35.964856
 20
-17.387604
 30
0.0
 10
35.549566
 20
-17.627372
 30
0.0
  0
SPLINE
  5
172
100
AcDbEntity
  8
0
 62
7
100
AcDbSpline
 70
8
 71
3
 72
8
 73
4
 74
0
 40
0
 40
0
 40
0
 40
0
 40
1
 40
1
 40
1
 40
1
 10
35.549566
 20
-17.627372
 30
0.0
 10
35.134276
 20
-17.867139
 30
0.0
 10
34.622617
 20
-17.867139
 30
0.0
 10
34.207327
 20
-17.627372
 30
0.0
  0
SPLINE
  5
173
100
AcDbEntity
  8
0
 62
7
100
AcDbSpline
 70
8
 71
3
 72
8
 73
4
 74
0
 40
0
 40
0
 40
0
 40
0
 40
1
 40
1
 40
1
 40
1
 10
34.207327
 20
-17.627372
 30
0.0
 10
33.792037
 20
-17.387604
 30
0.0
 10
33.536207
 20
-16.944495
 30
0.0
 10
33.536207
 20
-16.464959
 30
0.0
  0
SPLINE
  5
174
100
AcDbEntity
  8
0
 62
7
100
AcDbSpline
 70
8
 71
3
 72
8
 73
4
 74
0
 40
0
 40
0
 40
0
 40
0
 40
1
 40
1
 40
1
 40
1
 10
33.536207
 20
-16.464959
 30
0.0
 10
33.536207
 20
-15.985423
 30
0.0
 10
33.792037
 20
-15.542314
 30
0.0
 10
34.207327
 20
-15.302546
 30
0.0
  0
SPLINE
  5
175
100
AcDbEntity
  8
0
 62
7
100
AcDbSpline
 70
8
 71
3
 72
8
 73
4
 74
0
 40
0
 40
0
 40
0
 40
0
 40
1
 40
1
 40
1
 40
1
 10
34.207327
 20
-15.302546
 30
0.0
 10
34.622617
 20
-15.062778
 30
0.0
 10
35.134276
 20
-15.062778
 30
0.0
 10
35.549566
 20
-15.302546
 30
0.0
  0
SPLINE
  5
176
100
AcDbEntity
  8
0
 62
7
100
AcDbSpline
 70
8
 71
3
 72
8
 73
4
 74
0
 40
0
 40
0
 40
0
 40
0
 40
1
 40
1
 40
1
 40
1
 10
35.549566
 20
-15.302546
 30
0.0
 10
35.964856
 20
-15.542314
 30
0.0
 10
36.220686
 20
-15.985423
 30
0.0
 10
36.220686
 20
-16.464959
 30
0.0
  0
LINE
  5
177
100
AcDbEntity
  8
0
 62
7
100
AcDbLine
 10
36.220686
 20
-16.464959
 30
0.0
 11
36.220686
 21
-16.464959
 31
0.0
  0
SPLINE
  5
178
100
AcDbEntity
  8
0
 62
7
100
AcDbSpline
 70
8
 71
3
 72
8
 73
4
 74
0
 40
0
 40
0
 40
0
 40
0
 40
1
 40
1
 40
1
 40
1
 10
46.380679
 20
-16.464959
 30
0.0
 10
46.380679
 20
-16.944495
 30
0.0
 10
46.124849
 20
-17.387604
 30
0.0
 10
45.709559
 20
-17.627372
 30
0.0
  0
SPLINE
  5
179
100
AcDbEntity
  8
0
 62
7
100
AcDbSpline
 70
8
 71
3
 72
8
 73
4
 74
0
 40
0
 40
0
 40
0
 40
0
 40
1
 40
1
 40
1
 40
1
 10
45.709559
 20
-17.627372
 30
0.0
 10
45.294269
 20
-17.867139
 30
0.0
 10
44.782610
 20
-17.867139
 30
0.0
 10
44.367320
 20
-17.627372
 30
0.0
  0
SPLINE
  5
17a
100
AcDbEntity
  8
0
 62
7
100
AcDbSpline
 70
8
 71
3
 72
8
 73
4
 74
0
 40
0
 40
0
 40
0
 40
0
 40
1
 40
1
 40
1
 40
1
 10
44.367320
 20
-17.627372
 30
0.0
 10
43.952029
 20
-17.387604
 30
0.0
 10
43.696200
 20
-16.944495
 30
0.0
 10
43.696200
 20
-16.464959
 30
0.0
  0
SPLINE
  5
17b
100
AcDbEntity
  8
0
 62
7
100
AcDbSpline
 70
8
 71
3
 72
8
 73
4
 74
0
 40
0
 40
0
 40
0
 40
0
 40
1
 40
1
 40
1
 40
1
 10
43.696200
 20
-16.464959
 30
0.0
 10
43.696200
 20
-15.985423
 30
0.0
 10
43.952029
 20
-15.542314
 30
0.0
 10
44.367320
 20
-15.302546
 30
0.0
  0
SPLINE
  5
17c
100
AcDbEntity
  8
0
 62
7
100
AcDbSpline
 70
8
 71
3
 72
8
 73
4
 74
0
 40
0
 40
0
 40
0
 40
0
 40
1
 40
1
 40
1
 40
1
 10
44.367320
 20
-15.302546
 30
0.0
 10
44.782610
 20
-15.062778
 30
0.0
 10
45.294269
 20
-15.062778
 30
0.0
 10
45.709559
 20
-15.302546
 30
0.0
  0
SPLINE
  5
17d
100
AcDbEntity
  8
0
 62
7
100
AcDbSpline
 70
8
 71
3
 72
8
 73
4
 74
0
 40
0
 40
0
 40
0
 40
0
 40
1
 40
1
 40
1
 40
1
 10
45.709559
 20
-15.302546
 30
0.0
 10
46.124849
 20
-15.542314
 30
0.0
 10
46.380679
 20
-15.985423
 30
0.0
 10
46.380679
 20
-16.464959
 30
0.0
  0
LINE
  5
17e
100
AcDbEntity
  8
0
 62
7
100
AcDbLine
 10
46.380679
 20
-16.464959
 30
0.0
 11
46.380679
 21
-16.464959
 31
0.0
  0
SPLINE
  5
17f
100
AcDbEntity
  8
0
 62
7
100
AcDbSpline
 70
8
 71
3
 72
8
 73
4
 74
0
 40
0
 40
0
 40
0
 40
0
 40
1
 40
1
 40
1
 40
1
 10
56.540669
 20
-16.464959
 30
0.0
 10
56.540669
 20
-16.944495
 30
0.0
 10
56.284840
 20
-17.387604
 30
0.0
 10
55.869549
 20
-17.627372
 30
0.0
  0
SPLINE
  5
180
100
AcDbEntity
  8
0
 62
7
100
AcDbSpline
 70
8
 71
3
 72
8
 73
4
 74
0
 40
0
 40
0
 40
0
 40
0
 40
1
 40
1
 40
1
 40
1
 10
55.869549
 20
-17.627372
 30
0.0
 10
55.454259
 20
-17.867139
 30
0.0
 10
54.942600
 20
-17.867139
 30
0.0
 10
54.527310
 20
-17.627372
 30
0.0
  0
SPLINE
  5
181
100
AcDbEntity
  8
0
 62
7
100
AcDbSpline
 70
8
 71
3
 72
8
 73
4
 74
0
 40
0
 40
0
 40
0
 40
0
 40
1
 40
1
 40
1
 40
1
 10
54.527310
 20
-17.627372
 30
0.0
 10
54.112020
 20
-17.387604
 30
0.0
 10
53.856190
 20
-16.944495
 30
0.0
 10
53.856190
 20
-16.464959
 30
0.0
  0
SPLINE
  5
182
100
AcDbEntity
  8
0
 62
7
100
AcDbSpline
 70
8
 71
3
 72
8
 73
4
 74
0
 40
0
 40
0
 40
0
 40
0
 40
1
 40
1
 40
1
 40
1
 10
53.856190
 20
-16.464959
 30
0.0
 10
53.856190
 20
-15.985423
 30
0.0
 10
54.112020
 20
-15.542314
 30
0.0
 10
54.527310
 20
-15.302546
 30
0.0
  0
SPLINE
  5
183
100
AcDbEntity
  8
0
 62
7
100
AcDbSpline
 70
8
 71
3
 72
8
 73
4
 74
0
 40
0
 40
0
 40
0
 40
0
 40
1
 40
1
 40
1
 40
1
 10
54.527310
 20
-15.302546
 30
0.0
 10
54.942600
 20
-15.062778
 30
0.0
 10
55.454259
 20
-15.062778
 30
0.0
 10
55.869549
 20
-15.302546
 30
0.0
  0
SPLINE
  5
184
100
AcDbEntity
  8
0
 62
7
100
AcDbSpline
 70
8
 71
3
 72
8
 73
4
 74
0
 40
0
 40
0
 40
0
 40
0
 40
1
 40
1
 40
1
 40
1
 10
55.869549
 20
-15.302546
 30
0.0
 10
56.284840
 20
-15.542314
 30
0.0
 10
56.540669
 20
-15.985423
 30
0.0
 10
56.540669
 20
-16.464959
 30
0.0
  0
LINE
  5
185
100
AcDbEntity
  8
0
 62
7
100
AcDbLine
 10
56.540669
 20
-16.464959
 30
0.0
 11
56.540669
 21
-16.464959
 31
0.0
  0
SPLINE
  5
186
100
AcDbEntity
  8
0
 62
7
100
AcDbSpline
 70
8
 71
3
 72
8
 73
4
 74
0
 40
0
 40
0
 40
0
 40
0
 40
1
 40
1
 40
1
 40
1
 10
66.700659
 20
-16.464959
 30
0.0
 10
66.700659
 20
-16.944495
 30
0.0
 10
66.444830
 20
-17.387604
 30
0.0
 10
66.029540
 20
-17.627372
 30
0.0
  0
SPLINE
  5
187
100
AcDbEntity
  8
0
 62
7
100
AcDbSpline
 70
8
 71
3
 72
8
 73
4
 74
0
 40
0
 40
0
 40
0
 40
0
 40
1
 40
1
 40
1
 40
1
 10
66.029540
 20
-17.627372
 30
0.0
 10
65.614249
 20
-17.867139
 30
0.0
 10
65.102591
 20
-17.867139
 30
0.0
 10
64.687300
 20
-17.627372
 30
0.0
  0
SPLINE
  5
188
100
AcDbEntity
  8
0
 62
7
100
AcDbSpline
 70
8
 71
3
 72
8
 73
4
 74
0
 40
0
 40
0
 40
0
 40
0
 40
1
 40
1
 40
1
 40
1
 10
64.687300
 20
-17.627372
 30
0.0
 10
64.272010
 20
-17.387604
 30
0.0
 10
64.016181
 20
-16.944495
 30
0.0
 10
64.016181
 20
-16.464959
 30
0.0
  0
SPLINE
  5
189
100
AcDbEntity
  8
0
 62
7
100
AcDbSpline
 70
8
 71
3
 72
8
 73
4
 74
0
 40
0
 40
0
 40
0
 40
0
 40
1
 40
1
 40
1
 40
1
 10
64.016181
 20
-16.464959
 30
0.0
 10
64.016181
 20
-15.723661
 30
0.0
 10
64.617122
 20
-15.122720
 30
0.0
 10
65.358420
 20
-15.122720
 30
0.0
  0
SPLINE
  5
18a
100
AcDbEntity
  8
0
 62
7
100
AcDbSpline
 70
8
 71
3
 72
8
 73
4
 74
0
 40
0
 40
0
 40
0
 40
0
 40
1
 40
1
 40
1
 40
1
 10
65.358420
 20
-15.122720
 30
0.0
 10
66.099718
 20
-15.122720
 30
0.0
 10
66.700659
 20
-15.723661
 30
0.0
 10
66.700659
 20
-16.464959
 30
0.0
  0
LINE
  5
18b
100
AcDbEntity
  8
0
 62
7
100
AcDbLine
 10
66.700659
 20
-16.464959
 30
0.0
 11
66.700659
 21
-16.464959
 31
0.0
  0
SPLINE
  5
18c
100
AcDbEntity
  8
0
 62
7
100
AcDbSpline
 70
8
 71
3
 72
8
 73
4
 74
0
 40
0
 40
0
 40
0
 40
0
 40
1
 40
1
 40
1
 40
1
 10
5.740714
 20
-26.624948
 30
0.0
 10
5.740714
 20
-27.104484
 30
0.0
 10
5.484885
 20
-27.547593
 30
0.0
 10
5.069595
 20
-27.787361
 30
0.0
  0
SPLINE
  5
18d
100
AcDbEntity
  8
0
 62
7
100
AcDbSpline
 70
8
 71
3
 72
8
 73
4
 74
0
 40
0
 40
0
 40
0
 40
0
 40
1
 40
1
 40
1
 40
1
 10
5.069595
 20
-27.787361
 30
0.0
 10
4.654304
 20
-28.027128
 30
0.0
 10
4.142646
 20
-28.027128
 30
0.0
 10
3.727355
 20
-27.787361
 30
0.0
  0
SPLINE
  5
18e
100
AcDbEntity
  8
0
 62
7
100
AcDbSpline
 70
8
 71
3
 72
8
 73
4
 74
0
 40
0
 40
0
 40
0
 40
0
 40
1
 40
1
 40
1
 40
1
 10
3.727355
 20
-27.787361
 30
0.0
 10
3.312065
 20
-27.547593
 30
0.0
 10
3.056236
 20
-27.104484
 30
0.0
 10
3.056236
 20
-26.624948
 30
0.0
  0
SPLINE
  5
18f
100
AcDbEntity
  8
0
 62
7
100
AcDbSpline
 70
8
 71
3
 72
8
 73
4
 74
0
 40
0
 40
0
 40
0
 40
0
 40
1
 40
1
 40
1
 40
1
 10
3.056236
 20
-26.624948
 30
0.0
 10
3.056236
 20
-26.145412
 30
0.0
 10
3.312065
 20
-25.702303
 30
0.0
 10
3.727355
 20
-25.462535
 30
0.0
  0
SPLINE
  5
190
100
AcDbEntity
  8
0
 62
7
100
AcDbSpline
 70
8
 71
3
 72
8
 73
4
 74
0
 40
0
 40
0
 40
0
 40
0
 40
1
 40
1
 40
1
 40
1
 10
3.727355
 20
-25.462535
 30
0.0
 10
4.142646
 20
-25.222767
 30
0.0
 10
4.654304
 20
-25.222767
 30
0.0
 10
5.069595
 20
-25.462535
 30
0.0
  0
SPLINE
  5
191
100
AcDbEntity
  8
0
 62
7
100
AcDbSpline
 70
8
 71
3
 72
8
 73
4
 74
0
 40
0
 40
0
 40
0
 40
0
 40
1
 40
1
 40
1
 40
1
 10
5.069595
 20
-25.462535
 30
0.0
 10
5.484885
 20
-25.702303
 30
0.0
 10
5.740714
 20
-26.145412
 30
0.0
 10
5.740714
 20
-26.624948
 30
0.0
  0
LINE
  5
192
100
AcDbEntity
  8
0
 62
7
100
AcDbLine
 10
5.740714
 20
-26.624948
 30
0.0
 11
5.740714
 21
-26.624948
 31
0.0
  0
SPLINE
  5
193
100
AcDbEntity
  8
0
 62
7
100
AcDbSpline
 70
8
 71
3
 72
8
 73
4
 74
0
 40
0
 40
0
 40
0
 40
0
 40
1
 40
1
 40
1
 40
1
 10
15.900706
 20
-26.624948
 30
0.0
 10
15.900706
 20
-27.104484
 30
0.0
 10
15.644876
 20
-27.547593
 30
0.0
 10
15.229586
 20
-27.787361
 30
0.0
  0
SPLINE
  5
194
100
AcDbEntity
  8
0
 62
7
100
AcDbSpline
 70
8
 71
3
 72
8
 73
4
 74
0
 40
0
 40
0
 40
0
 40
0
 40
1
 40
1
 40
1
 40
1
 10
15.229586
 20
-27.787361
 30
0.0
 10
14.814296
 20
-28.027128
 30
0.0
 10
14.302637
 20
-28.027128
 30
0.0
 10
13.887347
 20
-27.787361
 30
0.0
  0
SPLINE
  5
195
100
AcDbEntity
  8
0
 62
7
100
AcDbSpline
 70
8
 71
3
 72
8
 73
4
 74
0
 40
0
 40
0
 40
0
 40
0
 40
1
 40
1
 40
1
 40
1
 10
13.887347
 20
-27.787361
 30
0.0
 10
13.472056
 20
-27.547593
 30
0.0
 10
13.216227
 20
-27.104484
 30
0.0
 10
13.216227
 20
-26.624948
 30
0.0
  0
SPLINE
  5
196
100
AcDbEntity
  8
0
 62
7
100
AcDbSpline
 70
8
 71
3
 72
8
 73
4
 74
0
 40
0
 40
0
 40
0
 40
0
 40
1
 40
1
 40
1
 40
1
 10
13.216227
 20
-26.624948
 30
0.0
 10
13.216227
 20
-26.145412
 30
0.0
 10
13.472056
 20
-25.702303
 30
0.0
 10
13.887347
 20
-25.462535
 30
0.0
  0
SPLINE
  5
197
100
AcDbEntity
  8
0
 62
7
100
AcDbSpline
 70
8
 71
3
 72
8
 73
4
 74
0
 40
0
 40
0
 40
0
 40
0
 40
1
 40
1
 40
1
 40
1
 10
13.887347
 20
-25.462535
 30
0.0
 10
14.302637
 20
-25.222767
 30
0.0
 10
14.814296
 20
-25.222767
 30
0.0
 10
15.229586
 20
-25.462535
 30
0.0
  0
SPLINE
  5
198
100
AcDbEntity
  8
0
 62
7
100
AcDbSpline
 70
8
 71
3
 72
8
 73
4
 74
0
 40
0
 40
0
 40
0
 40
0
 40
1
 40
1
 40
1
 40
1
 10
15.229586
 20
-25.462535
 30
0.0
 10
15.644876
 20
-25.702303
 30
0.0
 10
15.900706
 20
-26.145412
 30
0.0
 10
15.900706
 20
-26.624948
 30
0.0
  0
LINE
  5
199
100
AcDbEntity
  8
0
 62
7
100
AcDbLine
 10
15.900706
 20
-26.624948
 30
0.0
 11
15.900706
 21
-26.624948
 31
0.0
  0
SPLINE
  5
19a
100
AcDbEntity
  8
0
 62
7
100
AcDbSpline
 70
8
 71
3
 72
8
 73
4
 74
0
 40
0
 40
0
 40
0
 40
0
 40
1
 40
1
 40
1
 40
1
 10
26.060695
 20
-26.624948
 30
0.0
 10
26.060695
 20
-27.104484
 30
0.0
 10
25.804865
 20
-27.547593
 30
0.0
 10
25.389575
 20
-27.787361
 30
0.0
  0
SPLINE
  5
19b
100
AcDbEntity
  8
0
 62
7
100
AcDbSpline
 70
8
 71
3
 72
8
 73
4
 74
0
 40
0
 40
0
 40
0
 40
0
 40
1
 40
1
 40
1
 40
1
 10
25.389575
 20
-27.787361
 30
0.0
 10
24.974285
 20
-28.027128
 30
0.0
 10
24.462626
 20
-28.027128
 30
0.0
 10
24.047336
 20
-27.787361
 30
0.0
  0
SPLINE
  5
19c
100
AcDbEntity
  8
0
 62
7
100
AcDbSpline
 70
8
 71
3
 72
8
 73
4
 74
0
 40
0
 40
0
 40
0
 40
0
 40
1
 40
1
 40
1
 40
1
 10
24.047336
 20
-27.787361
 30
0.0
 10
23.632045
 20
-27.547593
 30
0.0
 10
23.376216
 20
-27.104484
 30
0.0
 10
23.376216
 20
-26.624948
 30
0.0
  0
SPLINE
  5
19d
100
AcDbEntity
  8
0
 62
7
100
AcDbSpline
 70
8
 71
3
 72
8
 73
4
 74
0
 40
0
 40
0
 40
0
 40
0
 40
1
 40
1
 40
1
 40
1
 10
23.376216
 20
-26.624948
 30
0.0
 10
23.376216
 20
-26.145412
 30
0.0
 10
23.632045
 20
-25.702303
 30
0.0
 10
24.047336
 20
-25.462535
 30
0.0
  0
SPLINE
  5
19e
100
AcDbEntity
  8
0
 62
7
100
AcDbSpline
 70
8
 71
3
 72
8
 73
4
 74
0
 40
0
 40
0
 40
0
 40
0
 40
1
 40
1
 40
1
 40
1
 10
24.047336
 20
-25.462535
 30
0.0
 10
24.462626
 20
-25.222767
 30
0.0
 10
24.974285
 20
-25.222767
 30
0.0
 10
25.389575
 20
-25.462535
 30
0.0
  0
SPLINE
  5
19f
100
AcDbEntity
  8
0
 62
7
100
AcDbSpline
 70
8
 71
3
 72
8
 73
4
 74
0
 40
0
 40
0
 40
0
 40
0
 40
1
 40
1
 40
1
 40
1
 10
25.389575
 20
-25.462535
 30
0.0
 10
25.804865
 20
-25.702303
 30
0.0
 10
26.060695
 20
-26.145412
 30
0.0
 10
26.060695
 20
-26.624948
 30
0.0
  0
LINE
  5
1a0
100
AcDbEntity
  8
0
 62
7
100
AcDbLine
 10
26.060695
 20
-26.624948
 30
0.0
 11
26.060695
 21
-26.624948
 31
0.0
  0
SPLINE
  5
1a1
100
AcDbEntity
  8
0
 62
7
100
AcDbSpline
 70
8
 71
3
 72
8
 73
4
 74
0
 40
0
 40
0
 40
0
 40
0
 40
1
 40
1
 40
1
 40
1
 10
36.220686
 20
-26.624948
 30
0.0
 10
36.220686
 20
-27.104484
 30
0.0
 10
35.964856
 20
-27.547593
 30
0.0
 10
35.549566
 20
-27.787361
 30
0.0
  0
SPLINE
  5
1a2
100
AcDbEntity
  8
0
 62
7
100
AcDbSpline
 70
8
 71
3
 72
8
 73
4
 74
0
 40
0
 40
0
 40
0
 40
0
 40
1
 40
1
 40
1
 40
1
 10
35.549566
 20
-27.787361
 30
0.0
 10
35.134276
 20
-28.027128
 30
0.0
 10
34.622617
 20
-28.027128
 30
0.0
 10
34.207327
 20
-27.787361
 30
0.0
  0
SPLINE
  5
1a3
100
AcDbEntity
  8
0
 62
7
100
AcDbSpline
 70
8
 71
3
 72
8
 73
4
 74
0
 40
0
 40
0
 40
0
 40
0
 40
1
 40
1
 40
1
 40
1
 10
34.207327
 20
-27.787361
 30
0.0
 10
33.792037
 20
-27.547593
 30
0.0
 10
33.536207
 20
-27.104484
 30
0.0
 10
33.536207
 20
-26.624948
 30
0.0
  0
SPLINE
  5
1a4
100
AcDbEntity
  8
0
 62
7
100
AcDbSpline
 70
8
 71
3
 72
8
 73
4
 74
0
 40
0
 40
0
 40
0
 40
0
 40
1
 40
1
 40
1
 40
1
 10
33.536207
 20
-26.624948
 30
0.0
 10
33.536207
 20
-26.145412
 30
0.0
 10
33.792037
 20
-25.702303
 30
0.0
 10
34.207327
 20
-25.462535
 30
0.0
  0
SPLINE
  5
1a5
100
AcDbEntity
  8
0
 62
7
100
AcDbSpline
 70
8
 71
3
 72
8
 73
4
 74
0
 40
0
 40
0
 40
0
 40
0
 40
1
 40
1
 40
1
 40
1
 10
34.207327
 20
-25.462535
 30
0.0
 10
34.622617
 20
-25.222767
 30
0.0
 10
35.134276
 20
-25.222767
 30
0.0
 10
35.549566
 20
-25.462535
 30
0.0
  0
SPLINE
  5
1a6
100
AcDbEntity
  8
0
 62
7
100
AcDbSpline
 70
8
 71
3
 72
8
 73
4
 74
0
 40
0
 40
0
 40
0
 40
0
 40
1
 40
1
 40
1
 40
1
 10
35.549566
 20
-25.462535
 30
0.0
 10
35.964856
 20
-25.702303
 30
0.0
 10
36.220686
 20
-26.145412
 30
0.0
 10
36.220686
 20
-26.624948
 30
0.0
  0
LINE
  5
1a7
100
AcDbEntity
  8
0
 62
7
100
AcDbLine
 10
36.220686
 20
-26.624948
 30
0.0
 11
36.220686
 21
-26.624948
 31
0.0
  0
SPLINE
  5
1a8
100
AcDbEntity
  8
0
 62
7
100
AcDbSpline
 70
8
 71
3
 72
8
 73
4
 74
0
 40
0
 40
0
 40
0
 40
0
 40
1
 40
1
 40
1
 40
1
 10
46.380679
 20
-26.624948
 30
0.0
 10
46.380679
 20
-27.104484
 30
0.0
 10
46.124849
 20
-27.547593
 30
0.0
 10
45.709559
 20
-27.787361
 30
0.0
  0
SPLINE
  5
1a9
100
AcDbEntity
  8
0
 62
7
100
AcDbSpline
 70
8
 71
3
 72
8
 73
4
 74
0
 40
0
 40
0
 40
0
 40
0
 40
1
 40
1
 40
1
 40
1
 10
45.709559
 20
-27.787361
 30
0.0
 10
45.294269
 20
-28.027128
 30
0.0
 10
44.782610
 20
-28.027128
 30
0.0
 10
44.367320
 20
-27.787361
 30
0.0
  0
SPLINE
  5
1aa
100
AcDbEntity
  8
0
 62
7
100
AcDbSpline
 70
8
 71
3
 72
8
 73
4
 74
0
 40
0
 40
0
 40
0
 40
0
 40
1
 40
1
 40
1
 40
1
 10
44.367320
 20
-27.787361
 30
0.0
 10
43.952029
 20
-27.547593
 30
0.0
 10
43.696200
 20
-27.104484
 30
0.0
 10
43.696200
 20
-26.624948
 30
0.0
  0
SPLINE
  5
1ab
100
AcDbEntity
  8
0
 62
7
100
AcDbSpline
 70
8
 71
3
 72
8
 73
4
 74
0
 40
0
 40
0
 40
0
 40
0
 40
1
 40
1
 40
1
 40
1
 10
43.696200
 20
-26.624948
 30
0.0
 10
43.696200
 20
-26.145412
 30
0.0
 10
43.952029
 20
-25.702303
 30
0.0
 10
44.367320
 20
-25.462535
 30
0.0
  0
SPLINE
  5
1ac
100
AcDbEntity
  8
0
 62
7
100
AcDbSpline
 70
8
 71
3
 72
8
 73
4
 74
0
 40
0
 40
0
 40
0
 40
0
 40
1
 40
1
 40
1
 40
1
 10
44.367320
 20
-25.462535
 30
0.0
 10
44.782610
 20
-25.222767
 30
0.0
 10
45.294269
 20
-25.222767
 30
0.0
 10
45.709559
 20
-25.462535
 30
0.0
  0
SPLINE
  5
1ad
100
AcDbEntity
  8
0
 62
7
100
AcDbSpline
 70
8
 71
3
 72
8
 73
4
 74
0
 40
0
 40
0
 40
0
 40
0
 40
1
 40
1
 40
1
 40
1
 10
45.709559
 20
-25.462535
 30
0.0
 10
46.124849
 20
-25.702303
 30
0.0
 10
46.380679
 20
-26.145412
 30
0.0
 10
46.380679
 20
-26.624948
 30
0.0
  0
LINE
  5
1ae
100
AcDbEntity
  8
0
 62
7
100
AcDbLine
 10
46.380679
 20
-26.624948
 30
0.0
 11
46.380679
 21
-26.624948
 31
0.0
  0
SPLINE
  5
1af
100
AcDbEntity
  8
0
 62
7
100
AcDbSpline
 70
8
 71
3
 72
8
 73
4
 74
0
 40
0
 40
0
 40
0
 40
0
 40
1
 40
1
 40
1
 40
1
 10
56.540669
 20
-26.624948
 30
0.0
 10
56.540669
 20
-27.104484
 30
0.0
 10
56.284840
 20
-27.547593
 30
0.0
 10
55.869549
 20
-27.787361
 30
0.0
  0
SPLINE
  5
1b0
100
AcDbEntity
  8
0
 62
7
100
AcDbSpline
 70
8
 71
3
 72
8
 73
4
 74
0
 40
0
 40
0
 40
0
 40
0
 40
1
 40
1
 40
1
 40
1
 10
55.869549
 20
-27.787361
 30
0.0
 10
55.454259
 20
-28.027128
 30
0.0
 10
54.942600
 20
-28.027128
 30
0.0
 10
54.527310
 20
-27.787361
 30
0.0
  0
SPLINE
  5
1b1
100
AcDbEntity
  8
0
 62
7
100
AcDbSpline
 70
8
 71
3
 72
8
 73
4
 74
0
 40
0
 40
0
 40
0
 40
0
 40
1
 40
1
 40
1
 40
1
 10
54.527310
 20
-27.787361
 30
0.0
 10
54.112020
 20
-27.547593
 30
0.0
 10
53.856190
 20
-27.104484
 30
0.0
 10
53.856190
 20
-26.624948
 30
0.0
  0
SPLINE
  5
1b2
100
AcDbEntity
  8
0
 62
7
100
AcDbSpline
 70
8
 71
3
 72
8
 73
4
 74
0
 40
0
 40
0
 40
0
 40
0
 40
1
 40
1
 40
1
 40
1
 10
53.856190
 20
-26.624948
 30
0.0
 10
53.856190
 20
-26.145412
 30
0.0
 10
54.112020
 20
-25.702303
 30
0.0
 10
54.527310
 20
-25.462535
 30
0.0
  0
SPLINE
  5
1b3
100
AcDbEntity
  8
0
 62
7
100
AcDbSpline
 70
8
 71
3
 72
8
 73
4
 74
0
 40
0
 40
0
 40
0
 40
0
 40
1
 40
1
 40
1
 40
1
 10
54.527310
 20
-25.462535
 30
0.0
 10
54.942600
 20
-25.222767
 30
0.0
 10
55.454259
 20
-25.222767
 30
0.0
 10
55.869549
 20
-25.462535
 30
0.0
  0
SPLINE
  5
1b4
100
AcDbEntity
  8
0
 62
7
100
AcDbSpline
 70
8
 71
3
 72
8
 73
4
 74
0
 40
0
 40
0
 40
0
 40
0
 40
1
 40
1
 40
1
 40
1
 10
55.869549
 20
-25.462535
 30
0.0
 10
56.284840
 20
-25.702303
 30
0.0
 10
56.540669
 20
-26.145412
 30
0.0
 10
56.540669
 20
-26.624948
 30
0.0
  0
LINE
  5
1b5
100
AcDbEntity
  8
0
 62
7
100
AcDbLine
 10
56.540669
 20
-26.624948
 30
0.0
 11
56.540669
 21
-26.624948
 31
0.0
  0
SPLINE
  5
1b6
100
AcDbEntity
  8
0
 62
7
100
AcDbSpline
 70
8
 71
3
 72
8
 73
4
 74
0
 40
0
 40
0
 40
0
 40
0
 40
1
 40
1
 40
1
 40
1
 10
66.700659
 20
-26.624948
 30
0.0
 10
66.700659
 20
-27.104484
 30
0.0
 10
66.444830
 20
-27.547593
 30
0.0
 10
66.029540
 20
-27.787361
 30
0.0
  0
SPLINE
  5
1b7
100
AcDbEntity
  8
0
 62
7
100
AcDbSpline
 70
8
 71
3
 72
8
 73
4
 74
0
 40
0
 40
0
 40
0
 40
0
 40
1
 40
1
 40
1
 40
1
 10
66.029540
 20
-27.787361
 30
0.0
 10
65.614249
 20
-28.027128
 30
0.0
 10
65.102591
 20
-28.027128
 30
0.0
 10
64.687300
 20
-27.787361
 30
0.0
  0
SPLINE
  5
1b8
100
AcDbEntity
  8
0
 62
7
100
AcDbSpline
 70
8
 71
3
 72
8
 73
4
 74
0
 40
0
 40
0
 40
0
 40
0
 40
1
 40
1
 40
1
 40
1
 10
64.687300
 20
-27.787361
 30
0.0
 10
64.272010
 20
-27.547593
 30
0.0
 10
64.016181
 20
-27.104484
 30
0.0
 10
64.016181
 20
-26.624948
 30
0.0
  0
SPLINE
  5
1b9
100
AcDbEntity
  8
0
 62
7
100
AcDbSpline
 70
8
 71
3
 72
8
 73
4
 74
0
 40
0
 40
0
 40
0
 40
0
 40
1
 40
1
 40
1
 40
1
 10
64.016181
 20
-26.624948
 30
0.0
 10
64.016181
 20
-25.883650
 30
0.0
 10
64.617122
 20
-25.282710
 30
0.0
 10
65.358420
 20
-25.282710
 30
0.0
  0
SPLINE
  5
1ba
100
AcDbEntity
  8
0
 62
7
100
AcDbSpline
 70
8
 71
3
 72
8
 73
4
 74
0
 40
0
 40
0
 40
0
 40
0
 40
1
 40
1
 40
1
 40
1
 10
65.358420
 20
-25.282710
 30
0.0
 10
66.099718
 20
-25.282710
 30
0.0
 10
66.700659
 20
-25.883650
 30
0.0
 10
66.700659
 20
-26.624948
 30
0.0
  0
LINE
  5
1bb
100
AcDbEntity
  8
0
 62
7
100
AcDbLine
 10
66.700659
 20
-26.624948
 30
0.0
 11
66.700659
 21
-26.624948
 31
0.0
  0
SPLINE
  5
1bc
100
AcDbEntity
  8
0
 62
7
100
AcDbSpline
 70
8
 71
3
 72
8
 73
4
 74
0
 40
0
 40
0
 40
0
 40
0
 40
1
 40
1
 40
1
 40
1
 10
76.860650
 20
-26.624948
 30
0.0
 10
76.860650
 20
-27.104484
 30
0.0
 10
76.604820
 20
-27.547593
 30
0.0
 10
76.189530
 20
-27.787361
 30
0.0
  0
SPLINE
  5
1bd
100
AcDbEntity
  8
0
 62
7
100
AcDbSpline
 70
8
 71
3
 72
8
 73
4
 74
0
 40
0
 40
0
 40
0
 40
0
 40
1
 40
1
 40
1
 40
1
 10
76.189530
 20
-27.787361
 30
0.0
 10
75.774240
 20
-28.027128
 30
0.0
 10
75.262581
 20
-28.027128
 30
0.0
 10
74.847291
 20
-27.787361
 30
0.0
  0
SPLINE
  5
1be
100
AcDbEntity
  8
0
 62
7
100
AcDbSpline
 70
8
 71
3
 72
8
 73
4
 74
0
 40
0
 40
0
 40
0
 40
0
 40
1
 40
1
 40
1
 40
1
 10
74.847291
 20
-27.787361
 30
0.0
 10
74.432000
 20
-27.547593
 30
0.0
 10
74.176171
 20
-27.104484
 30
0.0
 10
74.176171
 20
-26.624948
 30
0.0
  0
SPLINE
  5
1bf
100
AcDbEntity
  8
0
 62
7
100
AcDbSpline
 70
8
 71
3
 72
8
 73
4
 74
0
 40
0
 40
0
 40
0
 40
0
 40
1
 40
1
 40
1
 40
1
 10
74.176171
 20
-26.624948
 30
0.0
 10
74.176171
 20
-26.145412
 30
0.0
 10
74.432000
 20
-25.702303
 30
0.0
 10
74.847291
 20
-25.462535
 30
0.0
  0
SPLINE
  5
1c0
100
AcDbEntity
  8
0
 62
7
100
AcDbSpline
 70
8
 71
3
 72
8
 73
4
 74
0
 40
0
 40
0
 40
0
 40
0
 40
1
 40
1
 40
1
 40
1
 10
74.847291
 20
-25.462535
 30
0.0
 10
75.262581
 20
-25.222767
 30
0.0
 10
75.774240
 20
-25.222767
 30
0.0
 10
76.189530
 20
-25.462535
 30
0.0
  0
SPLINE
  5
1c1
100
AcDbEntity
  8
0
 62
7
100
AcDbSpline
 70
8
 71
3
 72
8
 73
4
 74
0
 40
0
 40
0
 40
0
 40
0
 40
1
 40
1
 40
1
 40
1
 10
76.189530
 20
-25.462535
 30
0.0
 10
76.604820
 20
-25.702303
 30
0.0
 10
76.860650
 20
-26.145412
 30
0.0
 10
76.860650
 20
-26.624948
 30
0.0
  0
LINE
  5
1c2
100
AcDbEntity
  8
0
 62
7
100
AcDbLine
 10
76.860650
 20
-26.624948
 30
0.0
 11
76.860650
 21
-26.624948
 31
0.0
  0
SPLINE
  5
1c3
100
AcDbEntity
  8
0
 62
7
100
AcDbSpline
 70
8
 71
3
 72
8
 73
4
 74
0
 40
0
 40
0
 40
0
 40
0
 40
1
 40
1
 40
1
 40
1
 10
87.020635
 20
-26.624948
 30
0.0
 10
87.020635
 20
-27.366246
 30
0.0
 10
86.419694
 20
-27.967186
 30
0.0
 10
85.678395
 20
-27.967186
 30
0.0
  0
SPLINE
  5
1c4
100
AcDbEntity
  8
0
 62
7
100
AcDbSpline
 70
8
 71
3
 72
8
 73
4
 74
0
 40
0
 40
0
 40
0
 40
0
 40
1
 40
1
 40
1
 40
1
 10
85.678395
 20
-27.967186
 30
0.0
 10
84.937097
 20
-27.967186
 30
0.0
 10
84.336156
 20
-27.366246
 30
0.0
 10
84.336156
 20
-26.624948
 30
0.0
  0
SPLINE
  5
1c5
100
AcDbEntity
  8
0
 62
7
100
AcDbSpline
 70
8
 71
3
 72
8
 73
4
 74
0
 40
0
 40
0
 40
0
 40
0
 40
1
 40
1
 40
1
 40
1
 10
84.336156
 20
-26.624948
 30
0.0
 10
84.336156
 20
-26.145412
 30
0.0
 10
84.591986
 20
-25.702303
 30
0.0
 10
85.007276
 20
-25.462535
 30
0.0
  0
SPLINE
  5
1c6
100
AcDbEntity
  8
0
 62
7
100
AcDbSpline
 70
8
 71
3
 72
8
 73
4
 74
0
 40
0
 40
0
 40
0
 40
0
 40
1
 40
1
 40
1
 40
1
 10
85.007276
 20
-25.462535
 30
0.0
 10
85.422566
 20
-25.222767
 30
0.0
 10
85.934225
 20
-25.222767
 30
0.0
 10
86.349515
 20
-25.462535
 30
0.0
  0
SPLINE
  5
1c7
100
AcDbEntity
  8
0
 62
7
100
AcDbSpline
 70
8
 71
3
 72
8
 73
4
 74
0
 40
0
 40
0
 40
0
 40
0
 40
1
 40
1
 40
1
 40
1
 10
86.349515
 20
-25.462535
 30
0.0
 10
86.764805
 20
-25.702303
 30
0.0
 10
87.020635
 20
-26.145412
 30
0.0
 10
87.020635
 20
-26.624948
 30
0.0
  0
LINE
  5
1c8
100
AcDbEntity
  8
0
 62
7
100
AcDbLine
 10
87.020635
 20
-26.624948
 30
0.0
 11
87.020635
 21
-26.624948
 31
0.0
  0
SPLINE
  5
1c9
100
AcDbEntity
  8
0
 62
7
100
AcDbSpline
 70
8
 71
3
 72
8
 73
4
 74
0
 40
0
 40
0
 40
0
 40
0
 40
1
 40
1
 40
1
 40
1
 10
5.740714
 20
-36.784938
 30
0.0
 10
5.740714
 20
-37.264474
 30
0.0
 10
5.484885
 20
-37.707583
 30
0.0
 10
5.069595
 20
-37.947351
 30
0.0
  0
SPLINE
  5
1ca
100
AcDbEntity
  8
0
 62
7
100
AcDbSpline
 70
8
 71
3
 72
8
 73
4
 74
0
 40
0
 40
0
 40
0
 40
0
 40
1
 40
1
 40
1
 40
1
 10
5.069595
 20
-37.947351
 30
0.0
 10
4.654304
 20
-38.187119
 30
0.0
 10
4.142646
 20
-38.187119
 30
0.0
 10
3.727355
 20
-37.947351
 30
0.0
  0
SPLINE
  5
1cb
100
AcDbEntity
  8
0
 62
7
100
AcDbSpline
 70
8
 71
3
 72
8
 73
4
 74
0
 40
0
 40
0
 40
0
 40
0
 40
1
 40
1
 40
1
 40
1
 10
3.727355
 20
-37.947351
 30
0.0
 10
3.312065
 20
-37.707583
 30
0.0
 10
3.056236
 20
-37.264474
 30
0.0
 10
3.056236
 20
-36.784938
 30
0.0
  0
SPLINE
  5
1cc
100
AcDbEntity
  8
0
 62
7
100
AcDbSpline
 70
8
 71
3
 72
8
 73
4
 74
0
 40
0
 40
0
 40
0
 40
0
 40
1
 40
1
 40
1
 40
1
 10
3.056236
 20
-36.784938
 30
0.0
 10
3.056236
 20
-36.305403
 30
0.0
 10
3.312065
 20
-35.862293
 30
0.0
 10
3.727355
 20
-35.622526
 30
0.0
  0
SPLINE
  5
1cd
100
AcDbEntity
  8
0
 62
7
100
AcDbSpline
 70
8
 71
3
 72
8
 73
4
 74
0
 40
0
 40
0
 40
0
 40
0
 40
1
 40
1
 40
1
 40
1
 10
3.727355
 20
-35.622526
 30
0.0
 10
4.142646
 20
-35.382758
 30
0.0
 10
4.654304
 20
-35.382758
 30
0.0
 10
5.069595
 20
-35.622526
 30
0.0
  0
SPLINE
  5
1ce
100
AcDbEntity
  8
0
 62
7
100
AcDbSpline
 70
8
 71
3
 72
8
 73
4
 74
0
 40
0
 40
0
 40
0
 40
0
 40
1
 40
1
 40
1
 40
1
 10
5.069595
 20
-35.622526
 30
0.0
 10
5.484885
 20
-35.862293
 30
0.0
 10
5.740714
 20
-36.305403
 30
0.0
 10
5.740714
 20
-36.784938
 30
0.0
  0
LINE
  5
1cf
100
AcDbEntity
  8
0
 62
7
100
AcDbLine
 10
5.740714
 20
-36.784938
 30
0.0
 11
5.740714
 21
-36.784938
 31
0.0
  0
SPLINE
  5
1d0
100
AcDbEntity
  8
0
 62
7
100
AcDbSpline
 70
8
 71
3
 72
8
 73
4
 74
0
 40
0
 40
0
 40
0
 40
0
 40
1
 40
1
 40
1
 40
1
 10
15.900706
 20
-36.784938
 30
0.0
 10
15.900706
 20
-37.264474
 30
0.0
 10
15.644876
 20
-37.707583
 30
0.0
 10
15.229586
 20
-37.947351
 30
0.0
  0
SPLINE
  5
1d1
100
AcDbEntity
  8
0
 62
7
100
AcDbSpline
 70
8
 71
3
 72
8
 73
4
 74
0
 40
0
 40
0
 40
0
 40
0
 40
1
 40
1
 40
1
 40
1
 10
15.229586
 20
-37.947351
 30
0.0
 10
14.814296
 20
-38.187119
 30
0.0
 10
14.302637
 20
-38.187119
 30
0.0
 10
13.887347
 20
-37.947351
 30
0.0
  0
SPLINE
  5
1d2
100
AcDbEntity
  8
0
 62
7
100
AcDbSpline
 70
8
 71
3
 72
8
 73
4
 74
0
 40
0
 40
0
 40
0
 40
0
 40
1
 40
1
 40
1
 40
1
 10
13.887347
 20
-37.947351
 30
0.0
 10
13.472056
 20
-37.707583
 30
0.0
 10
13.216227
 20
-37.264474
 30
0.0
 10
13.216227
 20
-36.784938
 30
0.0
  0
SPLINE
  5
1d3
100
AcDbEntity
  8
0
 62
7
100
AcDbSpline
 70
8
 71
3
 72
8
 73
4
 74
0
 40
0
 40
0
 40
0
 40
0
 40
1
 40
1
 40
1
 40
1
 10
13.216227
 20
-36.784938
 30
0.0
 10
13.216227
 20
-36.305403
 30
0.0
 10
13.472056
 20
-35.862293
 30
0.0
 10
13.887347
 20
-35.622526
 30
0.0
  0
SPLINE
  5
1d4
100
AcDbEntity
  8
0
 62
7
100
AcDbSpline
 70
8
 71
3
 72
8
 73
4
 74
0
 40
0
 40
0
 40
0
 40
0
 40
1
 40
1
 40
1
 40
1
 10
13.887347
 20
-35.622526
 30
0.0
 10
14.302637
 20
-35.382758
 30
0.0
 10
14.814296
 20
-35.382758
 30
0.0
 10
15.229586
 20
-35.622526
 30
0.0
  0
SPLINE
  5
1d5
100
AcDbEntity
  8
0
 62
7
100
AcDbSpline
 70
8
 71
3
 72
8
 73
4
 74
0
 40
0
 40
0
 40
0
 40
0
 40
1
 40
1
 40
1
 40
1
 10
15.229586
 20
-35.622526
 30
0.0
 10
15.644876
 20
-35.862293
 30
0.0
 10
15.900706
 20
-36.305403
 30
0.0
 10
15.900706
 20
-36.784938
 30
0.0
  0
LINE
  5
1d6
100
AcDbEntity
  8
0
 62
7
100
AcDbLine
 10
15.900706
 20
-36.784938
 30
0.0
 11
15.900706
 21
-36.784938
 31
0.0
  0
SPLINE
  5
1d7
100
AcDbEntity
  8
0
 62
7
100
AcDbSpline
 70
8
 71
3
 72
8
 73
4
 74
0
 40
0
 40
0
 40
0
 40
0
 40
1
 40
1
 40
1
 40
1
 10
26.060695
 20
-36.784938
 30
0.0
 10
26.060695
 20
-37.264474
 30
0.0
 10
25.804865
 20
-37.707583
 30
0.0
 10
25.389575
 20
-37.947351
 30
0.0
  0
SPLINE
  5
1d8
100
AcDbEntity
  8
0
 62
7
100
AcDbSpline
 70
8
 71
3
 72
8
 73
4
 74
0
 40
0
 40
0
 40
0
 40
0
 40
1
 40
1
 40
1
 40
1
 10
25.389575
 20
-37.947351
 30
0.0
 10
24.974285
 20
-38.187119
 30
0.0
 10
24.462626
 20
-38.187119
 30
0.0
 10
24.047336
 20
-37.947351
 30
0.0
  0
SPLINE
  5
1d9
100
AcDbEntity
  8
0
 62
7
100
AcDbSpline
 70
8
 71
3
 72
8
 73
4
 74
0
 40
0
 40
0
 40
0
 40
0
 40
1
 40
1
 40
1
 40
1
 10
24.047336
 20
-37.947351
 30
0.0
 10
23.632045
 20
-37.707583
 30
0.0
 10
23.376216
 20
-37.264474
 30
0.0
 10
23.376216
 20
-36.784938
 30
0.0
  0
SPLINE
  5
1da
100
AcDbEntity
  8
0
 62
7
100
AcDbSpline
 70
8
 71
3
 72
8
 73
4
 74
0
 40
0
 40
0
 40
0
 40
0
 40
1
 40
1
 40
1
 40
1
 10
23.376216
 20
-36.784938
 30
0.0
 10
23.376216
 20
-36.305403
 30
0.0
 10
23.632045
 20
-35.862293
 30
0.0
 10
24.047336
 20
-35.622526
 30
0.0
  0
SPLINE
  5
1db
100
AcDbEntity
  8
0
 62
7
100
AcDbSpline
 70
8
 71
3
 72
8
 73
4
 74
0
 40
0
 40
0
 40
0
 40
0
 40
1
 40
1
 40
1
 40
1
 10
24.047336
 20
-35.622526
 30
0.0
 10
24.462626
 20
-35.382758
 30
0.0
 10
24.974285
 20
-35.382758
 30
0.0
 10
25.389575
 20
-35.622526
 30
0.0
  0
SPLINE
  5
1dc
100
AcDbEntity
  8
0
 62
7
100
AcDbSpline
 70
8
 71
3
 72
8
 73
4
 74
0
 40
0
 40
0
 40
0
 40
0
 40
1
 40
1
 40
1
 40
1
 10
25.389575
 20
-35.622526
 30
0.0
 10
25.804865
 20
-35.862293
 30
0.0
 10
26.060695
 20
-36.305403
 30
0.0
 10
26.060695
 20
-36.784938
 30
0.0
  0
LINE
  5
1dd
100
AcDbEntity
  8
0
 62
7
100
AcDbLine
 10
26.060695
 20
-36.784938
 30
0.0
 11
26.060695
 21
-36.784938
 31
0.0
  0
SPLINE
  5
1de
100
AcDbEntity
  8
0
 62
7
100
AcDbSpline
 70
8
 71
3
 72
8
 73
4
 74
0
 40
0
 40
0
 40
0
 40
0
 40
1
 40
1
 40
1
 40
1
 10
36.220686
 20
-36.784938
 30
0.0
 10
36.220686
 20
-37.264474
 30
0.0
 10
35.964856
 20
-37.707583
 30
0.0
 10
35.549566
 20
-37.947351
 30
0.0
  0
SPLINE
  5
1df
100
AcDbEntity
  8
0
 62
7
100
AcDbSpline
 70
8
 71
3
 72
8
 73
4
 74
0
 40
0
 40
0
 40
0
 40
0
 40
1
 40
1
 40
1
 40
1
 10
35.549566
 20
-37.947351
 30
0.0
 10
35.134276
 20
-38.187119
 30
0.0
 10
34.622617
 20
-38.187119
 30
0.0
 10
34.207327
 20
-37.947351
 30
0.0
  0
SPLINE
  5
1e0
100
AcDbEntity
  8
0
 62
7
100
AcDbSpline
 70
8
 71
3
 72
8
 73
4
 74
0
 40
0
 40
0
 40
0
 40
0
 40
1
 40
1
 40
1
 40
1
 10
34.207327
 20
-37.947351
 30
0.0
 10
33.792037
 20
-37.707583
 30
0.0
 10
33.536207
 20
-37.264474
 30
0.0
 10
33.536207
 20
-36.784938
 30
0.0
  0
SPLINE
  5
1e1
100
AcDbEntity
  8
0
 62
7
100
AcDbSpline
 70
8
 71
3
 72
8
 73
4
 74
0
 40
0
 40
0
 40
0
 40
0
 40
1
 40
1
 40
1
 40
1
 10
33.536207
 20
-36.784938
 30
0.0
 10
33.536207
 20
-36.305403
 30
0.0
 10
33.792037
 20
-35.862293
 30
0.0
 10
34.207327
 20
-35.622526
 30
0.0
  0
SPLINE
  5
1e2
100
AcDbEntity
  8
0
 62
7
100
AcDbSpline
 70
8
 71
3
 72
8
 73
4
 74
0
 40
0
 40
0
 40
0
 40
0
 40
1
 40
1
 40
1
 40
1
 10
34.207327
 20
-35.622526
 30
0.0
 10
34.622617
 20
-35.382758
 30
0.0
 10
35.134276
 20
-35.382758
 30
0.0
 10
35.549566
 20
-35.622526
 30
0.0
  0
SPLINE
  5
1e3
100
AcDbEntity
  8
0
 62
7
100
AcDbSpline
 70
8
 71
3
 72
8
 73
4
 74
0
 40
0
 40
0
 40
0
 40
0
 40
1
 40
1
 40
1
 40
1
 10
35.549566
 20
-35.622526
 30
0.0
 10
35.964856
 20
-35.862293
 30
0.0
 10
36.220686
 20
-36.305403
 30
0.0
 10
36.220686
 20
-36.784938
 30
0.0
  0
LINE
  5
1e4
100
AcDbEntity
  8
0
 62
7
100
AcDbLine
 10
36.220686
 20
-36.784938
 30
0.0
 11
36.220686
 21
-36.784938
 31
0.0
  0
SPLINE
  5
1e5
100
AcDbEntity
  8
0
 62
7
100
AcDbSpline
 70
8
 71
3
 72
8
 73
4
 74
0
 40
0
 40
0
 40
0
 40
0
 40
1
 40
1
 40
1
 40
1
 10
46.380679
 20
-36.784938
 30
0.0
 10
46.380679
 20
-37.264474
 30
0.0
 10
46.124849
 20
-37.707583
 30
0.0
 10
45.709559
 20
-37.947351
 30
0.0
  0
SPLINE
  5
1e6
100
AcDbEntity
  8
0
 62
7
100
AcDbSpline
 70
8
 71
3
 72
8
 73
4
 74
0
 40
0
 40
0
 40
0
 40
0
 40
1
 40
1
 40
1
 40
1
 10
45.709559
 20
-37.947351
 30
0.0
 10
45.294269
 20
-38.187119
 30
0.0
 10
44.782610
 20
-38.187119
 30
0.0
 10
44.367320
 20
-37.947351
 30
0.0
  0
SPLINE
  5
1e7
100
AcDbEntity
  8
0
 62
7
100
AcDbSpline
 70
8
 71
3
 72
8
 73
4
 74
0
 40
0
 40
0
 40
0
 40
0
 40
1
 40
1
 40
1
 40
1
 10
44.367320
 20
-37.947351
 30
0.0
 10
43.952029
 20
-37.707583
 30
0.0
 10
43.696200
 20
-37.264474
 30
0.0
 10
43.696200
 20
-36.784938
 30
0.0
  0
SPLINE
  5
1e8
100
AcDbEntity
  8
0
 62
7
100
AcDbSpline
 70
8
 71
3
 72
8
 73
4
 74
0
 40
0
 40
0
 40
0
 40
0
 40
1
 40
1
 40
1
 40
1
 10
43.696200
 20
-36.784938
 30
0.0
 10
43.696200
 20
-36.305403
 30
0.0
 10
43.952029
 20
-35.862293
 30
0.0
 10
44.367320
 20
-35.622526
 30
0.0
  0
SPLINE
  5
1e9
100
AcDbEntity
  8
0
 62
7
100
AcDbSpline
 70
8
 71
3
 72
8
 73
4
 74
0
 40
0
 40
0
 40
0
 40
0
 40
1
 40
1
 40
1
 40
1
 10
44.367320
 20
-35.622526
 30
0.0
 10
44.782610
 20
-35.382758
 30
0.0
 10
45.294269
 20
-35.382758
 30
0.0
 10
45.709559
 20
-35.622526
 30
0.0
  0
SPLINE
  5
1ea
100
AcDbEntity
  8
0
 62
7
100
AcDbSpline
 70
8
 71
3
 72
8
 73
4
 74
0
 40
0
 40
0
 40
0
 40
0
 40
1
 40
1
 40
1
 40
1
 10
45.709559
 20
-35.622526
 30
0.0
 10
46.124849
 20
-35.862293
 30
0.0
 10
46.380679
 20
-36.305403
 30
0.0
 10
46.380679
 20
-36.784938
 30
0.0
  0
LINE
  5
1eb
100
AcDbEntity
  8
0
 62
7
100
AcDbLine
 10
46.380679
 20
-36.784938
 30
0.0
 11
46.380679
 21
-36.784938
 31
0.0
  0
SPLINE
  5
1ec
100
AcDbEntity
  8
0
 62
7
100
AcDbSpline
 70
8
 71
3
 72
8
 73
4
 74
0
 40
0
 40
0
 40
0
 40
0
 40
1
 40
1
 40
1
 40
1
 10
56.540669
 20
-36.784938
 30
0.0
 10
56.540669
 20
-37.264474
 30
0.0
 10
56.284840
 20
-37.707583
 30
0.0
 10
55.869549
 20
-37.947351
 30
0.0
  0
SPLINE
  5
1ed
100
AcDbEntity
  8
0
 62
7
100
AcDbSpline
 70
8
 71
3
 72
8
 73
4
 74
0
 40
0
 40
0
 40
0
 40
0
 40
1
 40
1
 40
1
 40
1
 10
55.869549
 20
-37.947351
 30
0.0
 10
55.454259
 20
-38.187119
 30
0.0
 10
54.942600
 20
-38.187119
 30
0.0
 10
54.527310
 20
-37.947351
 30
0.0
  0
SPLINE
  5
1ee
100
AcDbEntity
  8
0
 62
7
100
AcDbSpline
 70
8
 71
3
 72
8
 73
4
 74
0
 40
0
 40
0
 40
0
 40
0
 40
1
 40
1
 40
1
 40
1
 10
54.527310
 20
-37.947351
 30
0.0
 10
54.112020
 20
-37.707583
 30
0.0
 10
53.856190
 20
-37.264474
 30
0.0
 10
53.856190
 20
-36.784938
 30
0.0
  0
SPLINE
  5
1ef
100
AcDbEntity
  8
0
 62
7
100
AcDbSpline
 70
8
 71
3
 72
8
 73
4
 74
0
 40
0
 40
0
 40
0
 40
0
 40
1
 40
1
 40
1
 40
1
 10
53.856190
 20
-36.784938
 30
0.0
 10
53.856190
 20
-36.305403
 30
0.0
 10
54.112020
 20
-35.862293
 30
0.0
 10
54.527310
 20
-35.622526
 30
0.0
  0
SPLINE
  5
1f0
100
AcDbEntity
  8
0
 62
7
100
AcDbSpline
 70
8
 71
3
 72
8
 73
4
 74
0
 40
0
 40
0
 40
0
 40
0
 40
1
 40
1
 40
1
 40
1
 10
54.527310
 20
-35.622526
 30
0.0
 10
54.942600
 20
-35.382758
 30
0.0
 10
55.454259
 20
-35.382758
 30
0.0
 10
55.869549
 20
-35.622526
 30
0.0
  0
SPLINE
  5
1f1
100
AcDbEntity
  8
0
 62
7
100
AcDbSpline
 70
8
 71
3
 72
8
 73
4
 74
0
 40
0
 40
0
 40
0
 40
0
 40
1
 40
1
 40
1
 40
1
 10
55.869549
 20
-35.622526
 30
0.0
 10
56.284840
 20
-35.862293
 30
0.0
 10
56.540669
 20
-36.305403
 30
0.0
 10
56.540669
 20
-36.784938
 30
0.0
  0
LINE
  5
1f2
100
AcDbEntity
  8
0
 62
7
100
AcDbLine
 10
56.540669
 20
-36.784938
 30
0.0
 11
56.540669
 21
-36.784938
 31
0.0
  0
SPLINE
  5
1f3
100
AcDbEntity
  8
0
 62
7
100
AcDbSpline
 70
8
 71
3
 72
8
 73
4
 74
0
 40
0
 40
0
 40
0
 40
0
 40
1
 40
1
 40
1
 40
1
 10
66.700659
 20
-36.784938
 30
0.0
 10
66.700659
 20
-37.264474
 30
0.0
 10
66.444830
 20
-37.707583
 30
0.0
 10
66.029540
 20
-37.947351
 30
0.0
  0
SPLINE
  5
1f4
100
AcDbEntity
  8
0
 62
7
100
AcDbSpline
 70
8
 71
3
 72
8
 73
4
 74
0
 40
0
 40
0
 40
0
 40
0
 40
1
 40
1
 40
1
 40
1
 10
66.029540
 20
-37.947351
 30
0.0
 10
65.614249
 20
-38.187119
 30
0.0
 10
65.102591
 20
-38.187119
 30
0.0
 10
64.687300
 20
-37.947351
 30
0.0
  0
SPLINE
  5
1f5
100
AcDbEntity
  8
0
 62
7
100
AcDbSpline
 70
8
 71
3
 72
8
 73
4
 74
0
 40
0
 40
0
 40
0
 40
0
 40
1
 40
1
 40
1
 40
1
 10
64.687300
 20
-37.947351
 30
0.0
 10
64.272010
 20
-37.707583
 30
0.0
 10
64.016181
 20
-37.264474
 30
0.0
 10
64.016181
 20
-36.784938
 30
0.0
  0
SPLINE
  5
1f6
100
AcDbEntity
  8
0
 62
7
100
AcDbSpline
 70
8
 71
3
 72
8
 73
4
 74
0
 40
0
 40
0
 40
0
 40
0
 40
1
 40
1
 40
1
 40
1
 10
64.016181
 20
-36.784938
 30
0.0
 10
64.016181
 20
-36.043640
 30
0.0
 10
64.617122
 20
-35.442700
 30
0.0
 10
65.358420
 20
-35.442700
 30
0.0
  0
SPLINE
  5
1f7
100
AcDbEntity
  8
0
 62
7
100
AcDbSpline
 70
8
 71
3
 72
8
 73
4
 74
0
 40
0
 40
0
 40
0
 40
0
 40
1
 40
1
 40
1
 40
1
 10
65.358420
 20
-35.442700
 30
0.0
 10
66.099718
 20
-35.442700
 30
0.0
 10
66.700659
 20
-36.043640
 30
0.0
 10
66.700659
 20
-36.784938
 30
0.0
  0
LINE
  5
1f8
100
AcDbEntity
  8
0
 62
7
100
AcDbLine
 10
66.700659
 20
-36.784938
 30
0.0
 11
66.700659
 21
-36.784938
 31
0.0
  0
SPLINE
  5
1f9
100
AcDbEntity
  8
0
 62
7
100
AcDbSpline
 70
8
 71
3
 72
8
 73
4
 74
0
 40
0
 40
0
 40
0
 40
0
 40
1
 40
1
 40
1
 40
1
 10
76.860650
 20
-36.784938
 30
0.0
 10
76.860650
 20
-37.264474
 30
0.0
 10
76.604820
 20
-37.707583
 30
0.0
 10
76.189530
 20
-37.947351
 30
0.0
  0
SPLINE
  5
1fa
100
AcDbEntity
  8
0
 62
7
100
AcDbSpline
 70
8
 71
3
 72
8
 73
4
 74
0
 40
0
 40
0
 40
0
 40
0
 40
1
 40
1
 40
1
 40
1
 10
76.189530
 20
-37.947351
 30
0.0
 10
75.774240
 20
-38.187119
 30
0.0
 10
75.262581
 20
-38.187119
 30
0.0
 10
74.847291
 20
-37.947351
 30
0.0
  0
SPLINE
  5
1fb
100
AcDbEntity
  8
0
 62
7
100
AcDbSpline
 70
8
 71
3
 72
8
 73
4
 74
0
 40
0
 40
0
 40
0
 40
0
 40
1
 40
1
 40
1
 40
1
 10
74.847291
 20
-37.947351
 30
0.0
 10
74.432000
 20
-37.707583
 30
0.0
 10
74.176171
 20
-37.264474
 30
0.0
 10
74.176171
 20
-36.784938
 30
0.0
  0
SPLINE
  5
1fc
100
AcDbEntity
  8
0
 62
7
100
AcDbSpline
 70
8
 71
3
 72
8
 73
4
 74
0
 40
0
 40
0
 40
0
 40
0
 40
1
 40
1
 40
1
 40
1
 10
74.176171
 20
-36.784938
 30
0.0
 10
74.176171
 20
-36.305403
 30
0.0
 10
74.432000
 20
-35.862293
 30
0.0
 10
74.847291
 20
-35.622526
 30
0.0
  0
SPLINE
  5
1fd
100
AcDbEntity
  8
0
 62
7
100
AcDbSpline
 70
8
 71
3
 72
8
 73
4
 74
0
 40
0
 40
0
 40
0
 40
0
 40
1
 40
1
 40
1
 40
1
 10
74.847291
 20
-35.622526
 30
0.0
 10
75.262581
 20
-35.382758
 30
0.0
 10
75.774240
 20
-35.382758
 30
0.0
 10
76.189530
 20
-35.622526
 30
0.0
  0
SPLINE
  5
1fe
100
AcDbEntity
  8
0
 62
7
100
AcDbSpline
 70
8
 71
3
 72
8
 73
4
 74
0
 40
0
 40
0
 40
0
 40
0
 40
1
 40
1
 40
1
 40
1
 10
76.189530
 20
-35.622526
 30
0.0
 10
76.604820
 20
-35.862293
 30
0.0
 10
76.860650
 20
-36.305403
 30
0.0
 10
76.860650
 20
-36.784938
 30
0.0
  0
LINE
  5
1ff
100
AcDbEntity
  8
0
 62
7
100
AcDbLine
 10
76.860650
 20
-36.784938
 30
0.0
 11
76.860650
 21
-36.784938
 31
0.0
  0
SPLINE
  5
200
100
AcDbEntity
  8
0
 62
7
100
AcDbSpline
 70
8
 71
3
 72
8
 73
4
 74
0
 40
0
 40
0
 40
0
 40
0
 40
1
 40
1
 40
1
 40
1
 10
87.020635
 20
-36.784938
 30
0.0
 10
87.020635
 20
-37.526236
 30
0.0
 10
86.419694
 20
-38.127177
 30
0.0
 10
85.678395
 20
-38.127177
 30
0.0
  0
SPLINE
  5
201
100
AcDbEntity
  8
0
 62
7
100
AcDbSpline
 70
8
 71
3
 72
8
 73
4
 74
0
 40
0
 40
0
 40
0
 40
0
 40
1
 40
1
 40
1
 40
1
 10
85.678395
 20
-38.127177
 30
0.0
 10
84.937097
 20
-38.127177
 30
0.0
 10
84.336156
 20
-37.526236
 30
0.0
 10
84.336156
 20
-36.784938
 30
0.0
  0
SPLINE
  5
202
100
AcDbEntity
  8
0
 62
7
100
AcDbSpline
 70
8
 71
3
 72
8
 73
4
 74
0
 40
0
 40
0
 40
0
 40
0
 40
1
 40
1
 40
1
 40
1
 10
84.336156
 20
-36.784938
 30
0.0
 10
84.336156
 20
-36.305403
 30
0.0
 10
84.591986
 20
-35.862293
 30
0.0
 10
85.007276
 20
-35.622526
 30
0.0
  0
SPLINE
  5
203
100
AcDbEntity
  8
0
 62
7
100
AcDbSpline
 70
8
 71
3
 72
8
 73
4
 74
0
 40
0
 40
0
 40
0
 40
0
 40
1
 40
1
 40
1
 40
1
 10
85.007276
 20
-35.622526
 30
0.0
 10
85.422566
 20
-35.382758
 30
0.0
 10
85.934225
 20
-35.382758
 30
0.0
 10
86.349515
 20
-35.622526
 30
0.0
  0
SPLINE
  5
204
100
AcDbEntity
  8
0
 62
7
100
AcDbSpline
 70
8
 71
3
 72
8
 73
4
 74
0
 40
0
 40
0
 40
0
 40
0
 40
1
 40
1
 40
1
 40
1
 10
86.349515
 20
-35.622526
 30
0.0
 10
86.764805
 20
-35.862293
 30
0.0
 10
87.020635
 20
-36.305403
 30
0.0
 10
87.020635
 20
-36.784938
 30
0.0
  0
LINE
  5
205
100
AcDbEntity
  8
0
 62
7
100
AcDbLine
 10
87.020635
 20
-36.784938
 30
0.0
 11
87.020635
 21
-36.784938
 31
0.0
  0
SPLINE
  5
206
100
AcDbEntity
  8
0
 62
7
100
AcDbSpline
 70
8
 71
3
 72
8
 73
4
 74
0
 40
0
 40
0
 40
0
 40
0
 40
1
 40
1
 40
1
 40
1
 10
5.740714
 20
-46.944928
 30
0.0
 10
5.740714
 20
-47.424464
 30
0.0
 10
5.484885
 20
-47.867573
 30
0.0
 10
5.069595
 20
-48.107341
 30
0.0
  0
SPLINE
  5
207
100
AcDbEntity
  8
0
 62
7
100
AcDbSpline
 70
8
 71
3
 72
8
 73
4
 74
0
 40
0
 40
0
 40
0
 40
0
 40
1
 40
1
 40
1
 40
1
 10
5.069595
 20
-48.107341
 30
0.0
 10
4.654304
 20
-48.347109
 30
0.0
 10
4.142646
 20
-48.347109
 30
0.0
 10
3.727355
 20
-48.107341
 30
0.0
  0
SPLINE
  5
208
100
AcDbEntity
  8
0
 62
7
100
AcDbSpline
 70
8
 71
3
 72
8
 73
4
 74
0
 40
0
 40
0
 40
0
 40
0
 40
1
 40
1
 40
1
 40
1
 10
3.727355
 20
-48.107341
 30
0.0
 10
3.312065
 20
-47.867573
 30
0.0
 10
3.056236
 20
-47.424464
 30
0.0
 10
3.056236
 20
-46.944928
 30
0.0
  0
SPLINE
  5
209
100
AcDbEntity
  8
0
 62
7
100
AcDbSpline
 70
8
 71
3
 72
8
 73
4
 74
0
 40
0
 40
0
 40
0
 40
0
 40
1
 40
1
 40
1
 40
1
 10
3.056236
 20
-46.944928
 30
0.0
 10
3.056236
 20
-46.465393
 30
0.0
 10
3.312065
 20
-46.022284
 30
0.0
 10
3.727355
 20
-45.782516
 30
0.0
  0
SPLINE
  5
20a
100
AcDbEntity
  8
0
 62
7
100
AcDbSpline
 70
8
 71
3
 72
8
 73
4
 74
0
 40
0
 40
0
 40
0
 40
0
 40
1
 40
1
 40
1
 40
1
 10
3.727355
 20
-45.782516
 30
0.0
 10
4.142646
 20
-45.542748
 30
0.0
 10
4.654304
 20
-45.542748
 30
0.0
 10
5.069595
 20
-45.782516
 30
0.0
  0
SPLINE
  5
20b
100
AcDbEntity
  8
0
 62
7
100
AcDbSpline
 70
8
 71
3
 72
8
 73
4
 74
0
 40
0
 40
0
 40
0
 40
0
 40
1
 40
1
 40
1
 40
1
 10
5.069595
 20
-45.782516
 30
0.0
 10
5.484885
 20
-46.022284
 30
0.0
 10
5.740714
 20
-46.465393
 30
0.0
 10
5.740714
 20
-46.944928
 30
0.0
  0
LINE
  5
20c
100
AcDbEntity
  8
0
 62
7
100
AcDbLine
 10
5.740714
 20
-46.944928
 30
0.0
 11
5.740714
 21
-46.944928
 31
0.0
  0
SPLINE
  5
20d
100
AcDbEntity
  8
0
 62
7
100
AcDbSpline
 70
8
 71
3
 72
8
 73
4
 74
0
 40
0
 40
0
 40
0
 40
0
 40
1
 40
1
 40
1
 40
1
 10
15.900706
 20
-46.944928
 30
0.0
 10
15.900706
 20
-47.424464
 30
0.0
 10
15.644876
 20
-47.867573
 30
0.0
 10
15.229586
 20
-48.107341
 30
0.0
  0
SPLINE
  5
20e
100
AcDbEntity
  8
0
 62
7
100
AcDbSpline
 70
8
 71
3
 72
8
 73
4
 74
0
 40
0
 40
0
 40
0
 40
0
 40
1
 40
1
 40
1
 40
1
 10
15.229586
 20
-48.107341
 30
0.0
 10
14.814296
 20
-48.347109
 30
0.0
 10
14.302637
 20
-48.347109
 30
0.0
 10
13.887347
 20
-48.107341
 30
0.0
  0
SPLINE
  5
20f
100
AcDbEntity
  8
0
 62
7
100
AcDbSpline
 70
8
 71
3
 72
8
 73
4
 74
0
 40
0
 40
0
 40
0
 40
0
 40
1
 40
1
 40
1
 40
1
 10
13.887347
 20
-48.107341
 30
0.0
 10
13.472056
 20
-47.867573
 30
0.0
 10
13.216227
 20
-47.424464
 30
0.0
 10
13.216227
 20
-46.944928
 30
0.0
  0
SPLINE
  5
210
100
AcDbEntity
  8
0
 62
7
100
AcDbSpline
 70
8
 71
3
 72
8
 73
4
 74
0
 40
0
 40
0
 40
0
 40
0
 40
1
 40
1
 40
1
 40
1
 10
13.216227
 20
-46.944928
 30
0.0
 10
13.216227
 20
-46.465393
 30
0.0
 10
13.472056
 20
-46.022284
 30
0.0
 10
13.887347
 20
-45.782516
 30
0.0
  0
SPLINE
  5
211
100
AcDbEntity
  8
0
 62
7
100
AcDbSpline
 70
8
 71
3
 72
8
 73
4
 74
0
 40
0
 40
0
 40
0
 40
0
 40
1
 40
1
 40
1
 40
1
 10
13.887347
 20
-45.782516
 30
0.0
 10
14.302637
 20
-45.542748
 30
0.0
 10
14.814296
 20
-45.542748
 30
0.0
 10
15.229586
 20
-45.782516
 30
0.0
  0
SPLINE
  5
212
100
AcDbEntity
  8
0
 62
7
100
AcDbSpline
 70
8
 71
3
 72
8
 73
4
 74
0
 40
0
 40
0
 40
0
 40
0
 40
1
 40
1
 40
1
 40
1
 10
15.229586
 20
-45.782516
 30
0.0
 10
15.644876
 20
-46.022284
 30
0.0
 10
15.900706
 20
-46.465393
 30
0.0
 10
15.900706
 20
-46.944928
 30
0.0
  0
LINE
  5
213
100
AcDbEntity
  8
0
 62
7
100
AcDbLine
 10
15.900706
 20
-46.944928
 30
0.0
 11
15.900706
 21
-46.944928
 31
0.0
  0
SPLINE
  5
214
100
AcDbEntity
  8
0
 62
7
100
AcDbSpline
 70
8
 71
3
 72
8
 73
4
 74
0
 40
0
 40
0
 40
0
 40
0
 40
1
 40
1
 40
1
 40
1
 10
26.060695
 20
-46.944928
 30
0.0
 10
26.060695
 20
-47.424464
 30
0.0
 10
25.804865
 20
-47.867573
 30
0.0
 10
25.389575
 20
-48.107341
 30
0.0
  0
SPLINE
  5
215
100
AcDbEntity
  8
0
 62
7
100
AcDbSpline
 70
8
 71
3
 72
8
 73
4
 74
0
 40
0
 40
0
 40
0
 40
0
 40
1
 40
1
 40
1
 40
1
 10
25.389575
 20
-48.107341
 30
0.0
 10
24.974285
 20
-48.347109
 30
0.0
 10
24.462626
 20
-48.347109
 30
0.0
 10
24.047336
 20
-48.107341
 30
0.0
  0
SPLINE
  5
216
100
AcDbEntity
  8
0
 62
7
100
AcDbSpline
 70
8
 71
3
 72
8
 73
4
 74
0
 40
0
 40
0
 40
0
 40
0
 40
1
 40
1
 40
1
 40
1
 10
24.047336
 20
-48.107341
 30
0.0
 10
23.632045
 20
-47.867573
 30
0.0
 10
23.376216
 20
-47.424464
 30
0.0
 10
23.376216
 20
-46.944928
 30
0.0
  0
SPLINE
  5
217
100
AcDbEntity
  8
0
 62
7
100
AcDbSpline
 70
8
 71
3
 72
8
 73
4
 74
0
 40
0
 40
0
 40
0
 40
0
 40
1
 40
1
 40
1
 40
1
 10
23.376216
 20
-46.944928
 30
0.0
 10
23.376216
 20
-46.465393
 30
0.0
 10
23.632045
 20
-46.022284
 30
0.0
 10
24.047336
 20
-45.782516
 30
0.0
  0
SPLINE
  5
218
100
AcDbEntity
  8
0
 62
7
100
AcDbSpline
 70
8
 71
3
 72
8
 73
4
 74
0
 40
0
 40
0
 40
0
 40
0
 40
1
 40
1
 40
1
 40
1
 10
24.047336
 20
-45.782516
 30
0.0
 10
24.462626
 20
-45.542748
 30
0.0
 10
24.974285
 20
-45.542748
 30
0.0
 10
25.389575
 20
-45.782516
 30
0.0
  0
SPLINE
  5
219
100
AcDbEntity
  8
0
 62
7
100
AcDbSpline
 70
8
 71
3
 72
8
 73
4
 74
0
 40
0
 40
0
 40
0
 40
0
 40
1
 40
1
 40
1
 40
1
 10
25.389575
 20
-45.782516
 30
0.0
 10
25.804865
 20
-46.022284
 30
0.0
 10
26.060695
 20
-46.465393
 30
0.0
 10
26.060695
 20
-46.944928
 30
0.0
  0
LINE
  5
21a
100
AcDbEntity
  8
0
 62
7
100
AcDbLine
 10
26.060695
 20
-46.944928
 30
0.0
 11
26.060695
 21
-46.944928
 31
0.0
  0
SPLINE
  5
21b
100
AcDbEntity
  8
0
 62
7
100
AcDbSpline
 70
8
 71
3
 72
8
 73
4
 74
0
 40
0
 40
0
 40
0
 40
0
 40
1
 40
1
 40
1
 40
1
 10
36.220686
 20
-46.944928
 30
0.0
 10
36.220686
 20
-47.424464
 30
0.0
 10
35.964856
 20
-47.867573
 30
0.0
 10
35.549566
 20
-48.107341
 30
0.0
  0
SPLINE
  5
21c
100
AcDbEntity
  8
0
 62
7
100
AcDbSpline
 70
8
 71
3
 72
8
 73
4
 74
0
 40
0
 40
0
 40
0
 40
0
 40
1
 40
1
 40
1
 40
1
 10
35.549566
 20
-48.107341
 30
0.0
 10
35.134276
 20
-48.347109
 30
0.0
 10
34.622617
 20
-48.347109
 30
0.0
 10
34.207327
 20
-48.107341
 30
0.0
  0
SPLINE
  5
21d
100
AcDbEntity
  8
0
 62
7
100
AcDbSpline
 70
8
 71
3
 72
8
 73
4
 74
0
 40
0
 40
0
 40
0
 40
0
 40
1
 40
1
 40
1
 40
1
 10
34.207327
 20
-48.107341
 30
0.0
 10
33.792037
 20
-47.867573
 30
0.0
 10
33.536207
 20
-47.424464
 30
0.0
 10
33.536207
 20
-46.944928
 30
0.0
  0
SPLINE
  5
21e
100
AcDbEntity
  8
0
 62
7
100
AcDbSpline
 70
8
 71
3
 72
8
 73
4
 74
0
 40
0
 40
0
 40
0
 40
0
 40
1
 40
1
 40
1
 40
1
 10
33.536207
 20
-46.944928
 30
0.0
 10
33.536207
 20
-46.465393
 30
0.0
 10
33.792037
 20
-46.022284
 30
0.0
 10
34.207327
 20
-45.782516
 30
0.0
  0
SPLINE
  5
21f
100
AcDbEntity
  8
0
 62
7
100
AcDbSpline
 70
8
 71
3
 72
8
 73
4
 74
0
 40
0
 40
0
 40
0
 40
0
 40
1
 40
1
 40
1
 40
1
 10
34.207327
 20
-45.782516
 30
0.0
 10
34.622617
 20
-45.542748
 30
0.0
 10
35.134276
 20
-45.542748
 30
0.0
 10
35.549566
 20
-45.782516
 30
0.0
  0
SPLINE
  5
220
100
AcDbEntity
  8
0
 62
7
100
AcDbSpline
 70
8
 71
3
 72
8
 73
4
 74
0
 40
0
 40
0
 40
0
 40
0
 40
1
 40
1
 40
1
 40
1
 10
35.549566
 20
-45.782516
 30
0.0
 10
35.964856
 20
-46.022284
 30
0.0
 10
36.220686
 20
-46.465393
 30
0.0
 10
36.220686
 20
-46.944928
 30
0.0
  0
LINE
  5
221
100
AcDbEntity
  8
0
 62
7
100
AcDbLine
 10
36.220686
 20
-46.944928
 30
0.0
 11
36.220686
 21
-46.944928
 31
0.0
  0
SPLINE
  5
222
100
AcDbEntity
  8
0
 62
7
100
AcDbSpline
 70
8
 71
3
 72
8
 73
4
 74
0
 40
0
 40
0
 40
0
 40
0
 40
1
 40
1
 40
1
 40
1
 10
46.380679
 20
-46.944928
 30
0.0
 10
46.380679
 20
-47.424464
 30
0.0
 10
46.124849
 20
-47.867573
 30
0.0
 10
45.709559
 20
-48.107341
 30
0.0
  0
SPLINE
  5
223
100
AcDbEntity
  8
0
 62
7
100
AcDbSpline
 70
8
 71
3
 72
8
 73
4
 74
0
 40
0
 40
0
 40
0
 40
0
 40
1
 40
1
 40
1
 40
1
 10
45.709559
 20
-48.107341
 30
0.0
 10
45.294269
 20
-48.347109
 30
0.0
 10
44.782610
 20
-48.347109
 30
0.0
 10
44.367320
 20
-48.107341
 30
0.0
  0
SPLINE
  5
224
100
AcDbEntity
  8
0
 62
7
100
AcDbSpline
 70
8
 71
3
 72
8
 73
4
 74
0
 40
0
 40
0
 40
0
 40
0
 40
1
 40
1
 40
1
 40
1
 10
44.367320
 20
-48.107341
 30
0.0
 10
43.952029
 20
-47.867573
 30
0.0
 10
43.696200
 20
-47.424464
 30
0.0
 10
43.696200
 20
-46.944928
 30
0.0
  0
SPLINE
  5
225
100
AcDbEntity
  8
0
 62
7
100
AcDbSpline
 70
8
 71
3
 72
8
 73
4
 74
0
 40
0
 40
0
 40
0
 40
0
 40
1
 40
1
 40
1
 40
1
 10
43.696200
 20
-46.944928
 30
0.0
 10
43.696200
 20
-46.465393
 30
0.0
 10
43.952029
 20
-46.022284
 30
0.0
 10
44.367320
 20
-45.782516
 30
0.0
  0
SPLINE
  5
226
100
AcDbEntity
  8
0
 62
7
100
AcDbSpline
 70
8
 71
3
 72
8
 73
4
 74
0
 40
0
 40
0
 40
0
 40
0
 40
1
 40
1
 40
1
 40
1
 10
44.367320
 20
-45.782516
 30
0.0
 10
44.782610
 20
-45.542748
 30
0.0
 10
45.294269
 20
-45.542748
 30
0.0
 10
45.709559
 20
-45.782516
 30
0.0
  0
SPLINE
  5
227
100
AcDbEntity
  8
0
 62
7
100
AcDbSpline
 70
8
 71
3
 72
8
 73
4
 74
0
 40
0
 40
0
 40
0
 40
0
 40
1
 40
1
 40
1
 40
1
 10
45.709559
 20
-45.782516
 30
0.0
 10
46.124849
 20
-46.022284
 30
0.0
 10
46.380679
 20
-46.465393
 30
0.0
 10
46.380679
 20
-46.944928
 30
0.0
  0
LINE
  5
228
100
AcDbEntity
  8
0
 62
7
100
AcDbLine
 10
46.380679
 20
-46.944928
 30
0.0
 11
46.380679
 21
-46.944928
 31
0.0
  0
SPLINE
  5
229
100
AcDbEntity
  8
0
 62
7
100
AcDbSpline
 70
8
 71
3
 72
8
 73
4
 74
0
 40
0
 40
0
 40
0
 40
0
 40
1
 40
1
 40
1
 40
1
 10
56.540669
 20
-46.944928
 30
0.0
 10
56.540669
 20
-47.424464
 30
0.0
 10
56.284840
 20
-47.867573
 30
0.0
 10
55.869549
 20
-48.107341
 30
0.0
  0
SPLINE
  5
22a
100
AcDbEntity
  8
0
 62
7
100
AcDbSpline
 70
8
 71
3
 72
8
 73
4
 74
0
 40
0
 40
0
 40
0
 40
0
 40
1
 40
1
 40
1
 40
1
 10
55.869549
 20
-48.107341
 30
0.0
 10
55.454259
 20
-48.347109
 30
0.0
 10
54.942600
 20
-48.347109
 30
0.0
 10
54.527310
 20
-48.107341
 30
0.0
  0
SPLINE
  5
22b
100
AcDbEntity
  8
0
 62
7
100
AcDbSpline
 70
8
 71
3
 72
8
 73
4
 74
0
 40
0
 40
0
 40
0
 40
0
 40
1
 40
1
 40
1
 40
1
 10
54.527310
 20
-48.107341
 30
0.0
 10
54.112020
 20
-47.867573
 30
0.0
 10
53.856190
 20
-47.424464
 30
0.0
 10
53.856190
 20
-46.944928
 30
0.0
  0
SPLINE
  5
22c
100
AcDbEntity
  8
0
 62
7
100
AcDbSpline
 70
8
 71
3
 72
8
 73
4
 74
0
 40
0
 40
0
 40
0
 40
0
 40
1
 40
1
 40
1
 40
1
 10
53.856190
 20
-46.944928
 30
0.0
 10
53.856190
 20
-46.465393
 30
0.0
 10
54.112020
 20
-46.022284
 30
0.0
 10
54.527310
 20
-45.782516
 30
0.0
  0
SPLINE
  5
22d
100
AcDbEntity
  8
0
 62
7
100
AcDbSpline
 70
8
 71
3
 72
8
 73
4
 74
0
 40
0
 40
0
 40
0
 40
0
 40
1
 40
1
 40
1
 40
1
 10
54.527310
 20
-45.782516
 30
0.0
 10
54.942600
 20
-45.542748
 30
0.0
 10
55.454259
 20
-45.542748
 30
0.0
 10
55.869549
 20
-45.782516
 30
0.0
  0
SPLINE
  5
22e
100
AcDbEntity
  8
0
 62
7
100
AcDbSpline
 70
8
 71
3
 72
8
 73
4
 74
0
 40
0
 40
0
 40
0
 40
0
 40
1
 40
1
 40
1
 40
1
 10
55.869549
 20
-45.782516
 30
0.0
 10
56.284840
 20
-46.022284
 30
0.0
 10
56.540669
 20
-46.465393
 30
0.0
 10
56.540669
 20
-46.944928
 30
0.0
  0
LINE
  5
22f
100
AcDbEntity
  8
0
 62
7
100
AcDbLine
 10
56.540669
 20
-46.944928
 30
0.0
 11
56.540669
 21
-46.944928
 31
0.0
  0
SPLINE
  5
230
100
AcDbEntity
  8
0
 62
7
100
AcDbSpline
 70
8
 71
3
 72
8
 73
4
 74
0
 40
0
 40
0
 40
0
 40
0
 40
1
 40
1
 40
1
 40
1
 10
66.700659
 20
-46.944928
 30
0.0
 10
66.700659
 20
-47.424464
 30
0.0
 10
66.444830
 20
-47.867573
 30
0.0
 10
66.029540
 20
-48.107341
 30
0.0
  0
SPLINE
  5
231
100
AcDbEntity
  8
0
 62
7
100
AcDbSpline
 70
8
 71
3
 72
8
 73
4
 74
0
 40
0
 40
0
 40
0
 40
0
 40
1
 40
1
 40
1
 40
1
 10
66.029540
 20
-48.107341
 30
0.0
 10
65.614249
 20
-48.347109
 30
0.0
 10
65.102591
 20
-48.347109
 30
0.0
 10
64.687300
 20
-48.107341
 30
0.0
  0
SPLINE
  5
232
100
AcDbEntity
  8
0
 62
7
100
AcDbSpline
 70
8
 71
3
 72
8
 73
4
 74
0
 40
0
 40
0
 40
0
 40
0
 40
1
 40
1
 40
1
 40
1
 10
64.687300
 20
-48.107341
 30
0.0
 10
64.272010
 20
-47.867573
 30
0.0
 10
64.016181
 20
-47.424464
 30
0.0
 10
64.016181
 20
-46.944928
 30
0.0
  0
SPLINE
  5
233
100
AcDbEntity
  8
0
 62
7
100
AcDbSpline
 70
8
 71
3
 72
8
 73
4
 74
0
 40
0
 40
0
 40
0
 40
0
 40
1
 40
1
 40
1
 40
1
 10
64.016181
 20
-46.944928
 30
0.0
 10
64.016181
 20
-46.203631
 30
0.0
 10
64.617122
 20
-45.602690
 30
0.0
 10
65.358420
 20
-45.602690
 30
0.0
  0
SPLINE
  5
234
100
AcDbEntity
  8
0
 62
7
100
AcDbSpline
 70
8
 71
3
 72
8
 73
4
 74
0
 40
0
 40
0
 40
0
 40
0
 40
1
 40
1
 40
1
 40
1
 10
65.358420
 20
-45.602690
 30
0.0
 10
66.099718
 20
-45.602690
 30
0.0
 10
66.700659
 20
-46.203631
 30
0.0
 10
66.700659
 20
-46.944928
 30
0.0
  0
LINE
  5
235
100
AcDbEntity
  8
0
 62
7
100
AcDbLine
 10
66.700659
 20
-46.944928
 30
0.0
 11
66.700659
 21
-46.944928
 31
0.0
  0
SPLINE
  5
236
100
AcDbEntity
  8
0
 62
7
100
AcDbSpline
 70
8
 71
3
 72
8
 73
4
 74
0
 40
0
 40
0
 40
0
 40
0
 40
1
 40
1
 40
1
 40
1
 10
76.860650
 20
-46.944928
 30
0.0
 10
76.860650
 20
-47.424464
 30
0.0
 10
76.604820
 20
-47.867573
 30
0.0
 10
76.189530
 20
-48.107341
 30
0.0
  0
SPLINE
  5
237
100
AcDbEntity
  8
0
 62
7
100
AcDbSpline
 70
8
 71
3
 72
8
 73
4
 74
0
 40
0
 40
0
 40
0
 40
0
 40
1
 40
1
 40
1
 40
1
 10
76.189530
 20
-48.107341
 30
0.0
 10
75.774240
 20
-48.347109
 30
0.0
 10
75.262581
 20
-48.347109
 30
0.0
 10
74.847291
 20
-48.107341
 30
0.0
  0
SPLINE
  5
238
100
AcDbEntity
  8
0
 62
7
100
AcDbSpline
 70
8
 71
3
 72
8
 73
4
 74
0
 40
0
 40
0
 40
0
 40
0
 40
1
 40
1
 40
1
 40
1
 10
74.847291
 20
-48.107341
 30
0.0
 10
74.432000
 20
-47.867573
 30
0.0
 10
74.176171
 20
-47.424464
 30
0.0
 10
74.176171
 20
-46.944928
 30
0.0
  0
SPLINE
  5
239
100
AcDbEntity
  8
0
 62
7
100
AcDbSpline
 70
8
 71
3
 72
8
 73
4
 74
0
 40
0
 40
0
 40
0
 40
0
 40
1
 40
1
 40
1
 40
1
 10
74.176171
 20
-46.944928
 30
0.0
 10
74.176171
 20
-46.465393
 30
0.0
 10
74.432000
 20
-46.022284
 30
0.0
 10
74.847291
 20
-45.782516
 30
0.0
  0
SPLINE
  5
23a
100
AcDbEntity
  8
0
 62
7
100
AcDbSpline
 70
8
 71
3
 72
8
 73
4
 74
0
 40
0
 40
0
 40
0
 40
0
 40
1
 40
1
 40
1
 40
1
 10
74.847291
 20
-45.782516
 30
0.0
 10
75.262581
 20
-45.542748
 30
0.0
 10
75.774240
 20
-45.542748
 30
0.0
 10
76.189530
 20
-45.782516
 30
0.0
  0
SPLINE
  5
23b
100
AcDbEntity
  8
0
 62
7
100
AcDbSpline
 70
8
 71
3
 72
8
 73
4
 74
0
 40
0
 40
0
 40
0
 40
0
 40
1
 40
1
 40
1
 40
1
 10
76.189530
 20
-45.782516
 30
0.0
 10
76.604820
 20
-46.022284
 30
0.0
 10
76.860650
 20
-46.465393
 30
0.0
 10
76.860650
 20
-46.944928
 30
0.0
  0
LINE
  5
23c
100
AcDbEntity
  8
0
 62
7
100
AcDbLine
 10
76.860650
 20
-46.944928
 30
0.0
 11
76.860650
 21
-46.944928
 31
0.0
  0
SPLINE
  5
23d
100
AcDbEntity
  8
0
 62
7
100
AcDbSpline
 70
8
 71
3
 72
8
 73
4
 74
0
 40
0
 40
0
 40
0
 40
0
 40
1
 40
1
 40
1
 40
1
 10
87.020635
 20
-46.944928
 30
0.0
 10
87.020635
 20
-47.686226
 30
0.0
 10
86.419694
 20
-48.287167
 30
0.0
 10
85.678395
 20
-48.287167
 30
0.0
  0
SPLINE
  5
23e
100
AcDbEntity
  8
0
 62
7
100
AcDbSpline
 70
8
 71
3
 72
8
 73
4
 74
0
 40
0
 40
0
 40
0
 40
0
 40
1
 40
1
 40
1
 40
1
 10
85.678395
 20
-48.287167
 30
0.0
 10
84.937097
 20
-48.287167
 30
0.0
 10
84.336156
 20
-47.686226
 30
0.0
 10
84.336156
 20
-46.944928
 30
0.0
  0
SPLINE
  5
23f
100
AcDbEntity
  8
0
 62
7
100
AcDbSpline
 70
8
 71
3
 72
8
 73
4
 74
0
 40
0
 40
0
 40
0
 40
0
 40
1
 40
1
 40
1
 40
1
 10
84.336156
 20
-46.944928
 30
0.0
 10
84.336156
 20
-46.465393
 30
0.0
 10
84.591986
 20
-46.022284
 30
0.0
 10
85.007276
 20
-45.782516
 30
0.0
  0
SPLINE
  5
240
100
AcDbEntity
  8
0
 62
7
100
AcDbSpline
 70
8
 71
3
 72
8
 73
4
 74
0
 40
0
 40
0
 40
0
 40
0
 40
1
 40
1
 40
1
 40
1
 10
85.007276
 20
-45.782516
 30
0.0
 10
85.422566
 20
-45.542748
 30
0.0
 10
85.934225
 20
-45.542748
 30
0.0
 10
86.349515
 20
-45.782516
 30
0.0
  0
SPLINE
  5
241
100
AcDbEntity
  8
0
 62
7
100
AcDbSpline
 70
8
 71
3
 72
8
 73
4
 74
0
 40
0
 40
0
 40
0
 40
0
 40
1
 40
1
 40
1
 40
1
 10
86.349515
 20
-45.782516
 30
0.0
 10
86.764805
 20
-46.022284
 30
0.0
 10
87.020635
 20
-46.465393
 30
0.0
 10
87.020635
 20
-46.944928
 30
0.0
  0
LINE
  5
242
100
AcDbEntity
  8
0
 62
7
100
AcDbLine
 10
87.020635
 20
-46.944928
 30
0.0
 11
87.020635
 21
-46.944928
 31
0.0
  0
SPLINE
  5
243
100
AcDbEntity
  8
0
 62
7
100
AcDbSpline
 70
8
 71
3
 72
8
 73
4
 74
0
 40
0
 40
0
 40
0
 40
0
 40
1
 40
1
 40
1
 40
1
 10
15.900706
 20
-57.104919
 30
0.0
 10
15.900706
 20
-57.584454
 30
0.0
 10
15.644876
 20
-58.027564
 30
0.0
 10
15.229586
 20
-58.267331
 30
0.0
  0
SPLINE
  5
244
100
AcDbEntity
  8
0
 62
7
100
AcDbSpline
 70
8
 71
3
 72
8
 73
4
 74
0
 40
0
 40
0
 40
0
 40
0
 40
1
 40
1
 40
1
 40
1
 10
15.229586
 20
-58.267331
 30
0.0
 10
14.814296
 20
-58.507099
 30
0.0
 10
14.302637
 20
-58.507099
 30
0.0
 10
13.887347
 20
-58.267331
 30
0.0
  0
SPLINE
  5
245
100
AcDbEntity
  8
0
 62
7
100
AcDbSpline
 70
8
 71
3
 72
8
 73
4
 74
0
 40
0
 40
0
 40
0
 40
0
 40
1
 40
1
 40
1
 40
1
 10
13.887347
 20
-58.267331
 30
0.0
 10
13.472056
 20
-58.027564
 30
0.0
 10
13.216227
 20
-57.584454
 30
0.0
 10
13.216227
 20
-57.104919
 30
0.0
  0
SPLINE
  5
246
100
AcDbEntity
  8
0
 62
7
100
AcDbSpline
 70
8
 71
3
 72
8
 73
4
 74
0
 40
0
 40
0
 40
0
 40
0
 40
1
 40
1
 40
1
 40
1
 10
13.216227
 20
-57.104919
 30
0.0
 10
13.216227
 20
-56.625383
 30
0.0
 10
13.472056
 20
-56.182274
 30
0.0
 10
13.887347
 20
-55.942506
 30
0.0
  0
SPLINE
  5
247
100
AcDbEntity
  8
0
 62
7
100
AcDbSpline
 70
8
 71
3
 72
8
 73
4
 74
0
 40
0
 40
0
 40
0
 40
0
 40
1
 40
1
 40
1
 40
1
 10
13.887347
 20
-55.942506
 30
0.0
 10
14.302637
 20
-55.702738
 30
0.0
 10
14.814296
 20
-55.702738
 30
0.0
 10
15.229586
 20
-55.942506
 30
0.0
  0
SPLINE
  5
248
100
AcDbEntity
  8
0
 62
7
100
AcDbSpline
 70
8
 71
3
 72
8
 73
4
 74
0
 40
0
 40
0
 40
0
 40
0
 40
1
 40
1
 40
1
 40
1
 10
15.229586
 20
-55.942506
 30
0.0
 10
15.644876
 20
-56.182274
 30
0.0
 10
15.900706
 20
-56.625383
 30
0.0
 10
15.900706
 20
-57.104919
 30
0.0
  0
LINE
  5
249
100
AcDbEntity
  8
0
 62
7
100
AcDbLine
 10
15.900706
 20
-57.104919
 30
0.0
 11
15.900706
 21
-57.104919
 31
0.0
  0
SPLINE
  5
24a
100
AcDbEntity
  8
0
 62
7
100
AcDbSpline
 70
8
 71
3
 72
8
 73
4
 74
0
 40
0
 40
0
 40
0
 40
0
 40
1
 40
1
 40
1
 40
1
 10
26.060695
 20
-57.104919
 30
0.0
 10
26.060695
 20
-57.584454
 30
0.0
 10
25.804865
 20
-58.027564
 30
0.0
 10
25.389575
 20
-58.267331
 30
0.0
  0
SPLINE
  5
24b
100
AcDbEntity
  8
0
 62
7
100
AcDbSpline
 70
8
 71
3
 72
8
 73
4
 74
0
 40
0
 40
0
 40
0
 40
0
 40
1
 40
1
 40
1
 40
1
 10
25.389575
 20
-58.267331
 30
0.0
 10
24.974285
 20
-58.507099
 30
0.0
 10
24.462626
 20
-58.507099
 30
0.0
 10
24.047336
 20
-58.267331
 30
0.0
  0
SPLINE
  5
24c
100
AcDbEntity
  8
0
 62
7
100
AcDbSpline
 70
8
 71
3
 72
8
 73
4
 74
0
 40
0
 40
0
 40
0
 40
0
 40
1
 40
1
 40
1
 40
1
 10
24.047336
 20
-58.267331
 30
0.0
 10
23.632045
 20
-58.027564
 30
0.0
 10
23.376216
 20
-57.584454
 30
0.0
 10
23.376216
 20
-57.104919
 30
0.0
  0
SPLINE
  5
24d
100
AcDbEntity
  8
0
 62
7
100
AcDbSpline
 70
8
 71
3
 72
8
 73
4
 74
0
 40
0
 40
0
 40
0
 40
0
 40
1
 40
1
 40
1
 40
1
 10
23.376216
 20
-57.104919
 30
0.0
 10
23.376216
 20
-56.625383
 30
0.0
 10
23.632045
 20
-56.182274
 30
0.0
 10
24.047336
 20
-55.942506
 30
0.0
  0
SPLINE
  5
24e
100
AcDbEntity
  8
0
 62
7
100
AcDbSpline
 70
8
 71
3
 72
8
 73
4
 74
0
 40
0
 40
0
 40
0
 40
0
 40
1
 40
1
 40
1
 40
1
 10
24.047336
 20
-55.942506
 30
0.0
 10
24.462626
 20
-55.702738
 30
0.0
 10
24.974285
 20
-55.702738
 30
0.0
 10
25.389575
 20
-55.942506
 30
0.0
  0
SPLINE
  5
24f
100
AcDbEntity
  8
0
 62
7
100
AcDbSpline
 70
8
 71
3
 72
8
 73
4
 74
0
 40
0
 40
0
 40
0
 40
0
 40
1
 40
1
 40
1
 40
1
 10
25.389575
 20
-55.942506
 30
0.0
 10
25.804865
 20
-56.182274
 30
0.0
 10
26.060695
 20
-56.625383
 30
0.0
 10
26.060695
 20
-57.104919
 30
0.0
  0
LINE
  5
250
100
AcDbEntity
  8
0
 62
7
100
AcDbLine
 10
26.060695
 20
-57.104919
 30
0.0
 11
26.060695
 21
-57.104919
 31
0.0
  0
SPLINE
  5
251
100
AcDbEntity
  8
0
 62
7
100
AcDbSpline
 70
8
 71
3
 72
8
 73
4
 74
0
 40
0
 40
0
 40
0
 40
0
 40
1
 40
1
 40
1
 40
1
 10
36.220686
 20
-57.104919
 30
0.0
 10
36.220686
 20
-57.584454
 30
0.0
 10
35.964856
 20
-58.027564
 30
0.0
 10
35.549566
 20
-58.267331
 30
0.0
  0
SPLINE
  5
252
100
AcDbEntity
  8
0
 62
7
100
AcDbSpline
 70
8
 71
3
 72
8
 73
4
 74
0
 40
0
 40
0
 40
0
 40
0
 40
1
 40
1
 40
1
 40
1
 10
35.549566
 20
-58.267331
 30
0.0
 10
35.134276
 20
-58.507099
 30
0.0
 10
34.622617
 20
-58.507099
 30
0.0
 10
34.207327
 20
-58.267331
 30
0.0
  0
SPLINE
  5
253
100
AcDbEntity
  8
0
 62
7
100
AcDbSpline
 70
8
 71
3
 72
8
 73
4
 74
0
 40
0
 40
0
 40
0
 40
0
 40
1
 40
1
 40
1
 40
1
 10
34.207327
 20
-58.267331
 30
0.0
 10
33.792037
 20
-58.027564
 30
0.0
 10
33.536207
 20
-57.584454
 30
0.0
 10
33.536207
 20
-57.104919
 30
0.0
  0
SPLINE
  5
254
100
AcDbEntity
  8
0
 62
7
100
AcDbSpline
 70
8
 71
3
 72
8
 73
4
 74
0
 40
0
 40
0
 40
0
 40
0
 40
1
 40
1
 40
1
 40
1
 10
33.536207
 20
-57.104919
 30
0.0
 10
33.536207
 20
-56.625383
 30
0.0
 10
33.792037
 20
-56.182274
 30
0.0
 10
34.207327
 20
-55.942506
 30
0.0
  0
SPLINE
  5
255
100
AcDbEntity
  8
0
 62
7
100
AcDbSpline
 70
8
 71
3
 72
8
 73
4
 74
0
 40
0
 40
0
 40
0
 40
0
 40
1
 40
1
 40
1
 40
1
 10
34.207327
 20
-55.942506
 30
0.0
 10
34.622617
 20
-55.702738
 30
0.0
 10
35.134276
 20
-55.702738
 30
0.0
 10
35.549566
 20
-55.942506
 30
0.0
  0
SPLINE
  5
256
100
AcDbEntity
  8
0
 62
7
100
AcDbSpline
 70
8
 71
3
 72
8
 73
4
 74
0
 40
0
 40
0
 40
0
 40
0
 40
1
 40
1
 40
1
 40
1
 10
35.549566
 20
-55.942506
 30
0.0
 10
35.964856
 20
-56.182274
 30
0.0
 10
36.220686
 20
-56.625383
 30
0.0
 10
36.220686
 20
-57.104919
 30
0.0
  0
LINE
  5
257
100
AcDbEntity
  8
0
 62
7
100
AcDbLine
 10
36.220686
 20
-57.104919
 30
0.0
 11
36.220686
 21
-57.104919
 31
0.0
  0
SPLINE
  5
258
100
AcDbEntity
  8
0
 62
7
100
AcDbSpline
 70
8
 71
3
 72
8
 73
4
 74
0
 40
0
 40
0
 40
0
 40
0
 40
1
 40
1
 40
1
 40
1
 10
46.380679
 20
-57.104919
 30
0.0
 10
46.380679
 20
-57.584454
 30
0.0
 10
46.124849
 20
-58.027564
 30
0.0
 10
45.709559
 20
-58.267331
 30
0.0
  0
SPLINE
  5
259
100
AcDbEntity
  8
0
 62
7
100
AcDbSpline
 70
8
 71
3
 72
8
 73
4
 74
0
 40
0
 40
0
 40
0
 40
0
 40
1
 40
1
 40
1
 40
1
 10
45.709559
 20
-58.267331
 30
0.0
 10
45.294269
 20
-58.507099
 30
0.0
 10
44.782610
 20
-58.507099
 30
0.0
 10
44.367320
 20
-58.267331
 30
0.0
  0
SPLINE
  5
25a
100
AcDbEntity
  8
0
 62
7
100
AcDbSpline
 70
8
 71
3
 72
8
 73
4
 74
0
 40
0
 40
0
 40
0
 40
0
 40
1
 40
1
 40
1
 40
1
 10
44.367320
 20
-58.267331
 30
0.0
 10
43.952029
 20
-58.027564
 30
0.0
 10
43.696200
 20
-57.584454
 30
0.0
 10
43.696200
 20
-57.104919
 30
0.0
  0
SPLINE
  5
25b
100
AcDbEntity
  8
0
 62
7
100
AcDbSpline
 70
8
 71
3
 72
8
 73
4
 74
0
 40
0
 40
0
 40
0
 40
0
 40
1
 40
1
 40
1
 40
1
 10
43.696200
 20
-57.104919
 30
0.0
 10
43.696200
 20
-56.625383
 30
0.0
 10
43.952029
 20
-56.182274
 30
0.0
 10
44.367320
 20
-55.942506
 30
0.0
  0
SPLINE
  5
25c
100
AcDbEntity
  8
0
 62
7
100
AcDbSpline
 70
8
 71
3
 72
8
 73
4
 74
0
 40
0
 40
0
 40
0
 40
0
 40
1
 40
1
 40
1
 40
1
 10
44.367320
 20
-55.942506
 30
0.0
 10
44.782610
 20
-55.702738
 30
0.0
 10
45.294269
 20
-55.702738
 30
0.0
 10
45.709559
 20
-55.942506
 30
0.0
  0
SPLINE
  5
25d
100
AcDbEntity
  8
0
 62
7
100
AcDbSpline
 70
8
 71
3
 72
8
 73
4
 74
0
 40
0
 40
0
 40
0
 40
0
 40
1
 40
1
 40
1
 40
1
 10
45.709559
 20
-55.942506
 30
0.0
 10
46.124849
 20
-56.182274
 30
0.0
 10
46.380679
 20
-56.625383
 30
0.0
 10
46.380679
 20
-57.104919
 30
0.0
  0
LINE
  5
25e
100
AcDbEntity
  8
0
 62
7
100
AcDbLine
 10
46.380679
 20
-57.104919
 30
0.0
 11
46.380679
 21
-57.104919
 31
0.0
  0
SPLINE
  5
25f
100
AcDbEntity
  8
0
 62
7
100
AcDbSpline
 70
8
 71
3
 72
8
 73
4
 74
0
 40
0
 40
0
 40
0
 40
0
 40
1
 40
1
 40
1
 40
1
 10
56.540669
 20
-57.104919
 30
0.0
 10
56.540669
 20
-57.584454
 30
0.0
 10
56.284840
 20
-58.027564
 30
0.0
 10
55.869549
 20
-58.267331
 30
0.0
  0
SPLINE
  5
260
100
AcDbEntity
  8
0
 62
7
100
AcDbSpline
 70
8
 71
3
 72
8
 73
4
 74
0
 40
0
 40
0
 40
0
 40
0
 40
1
 40
1
 40
1
 40
1
 10
55.869549
 20
-58.267331
 30
0.0
 10
55.454259
 20
-58.507099
 30
0.0
 10
54.942600
 20
-58.507099
 30
0.0
 10
54.527310
 20
-58.267331
 30
0.0
  0
SPLINE
  5
261
100
AcDbEntity
  8
0
 62
7
100
AcDbSpline
 70
8
 71
3
 72
8
 73
4
 74
0
 40
0
 40
0
 40
0
 40
0
 40
1
 40
1
 40
1
 40
1
 10
54.527310
 20
-58.267331
 30
0.0
 10
54.112020
 20
-58.027564
 30
0.0
 10
53.856190
 20
-57.584454
 30
0.0
 10
53.856190
 20
-57.104919
 30
0.0
  0
SPLINE
  5
262
100
AcDbEntity
  8
0
 62
7
100
AcDbSpline
 70
8
 71
3
 72
8
 73
4
 74
0
 40
0
 40
0
 40
0
 40
0
 40
1
 40
1
 40
1
 40
1
 10
53.856190
 20
-57.104919
 30
0.0
 10
53.856190
 20
-56.625383
 30
0.0
 10
54.112020
 20
-56.182274
 30
0.0
 10
54.527310
 20
-55.942506
 30
0.0
  0
SPLINE
  5
263
100
AcDbEntity
  8
0
 62
7
100
AcDbSpline
 70
8
 71
3
 72
8
 73
4
 74
0
 40
0
 40
0
 40
0
 40
0
 40
1
 40
1
 40
1
 40
1
 10
54.527310
 20
-55.942506
 30
0.0
 10
54.942600
 20
-55.702738
 30
0.0
 10
55.454259
 20
-55.702738
 30
0.0
 10
55.869549
 20
-55.942506
 30
0.0
  0
SPLINE
  5
264
100
AcDbEntity
  8
0
 62
7
100
AcDbSpline
 70
8
 71
3
 72
8
 73
4
 74
0
 40
0
 40
0
 40
0
 40
0
 40
1
 40
1
 40
1
 40
1
 10
55.869549
 20
-55.942506
 30
0.0
 10
56.284840
 20
-56.182274
 30
0.0
 10
56.540669
 20
-56.625383
 30
0.0
 10
56.540669
 20
-57.104919
 30
0.0
  0
LINE
  5
265
100
AcDbEntity
  8
0
 62
7
100
AcDbLine
 10
56.540669
 20
-57.104919
 30
0.0
 11
56.540669
 21
-57.104919
 31
0.0
  0
SPLINE
  5
266
100
AcDbEntity
  8
0
 62
7
100
AcDbSpline
 70
8
 71
3
 72
8
 73
4
 74
0
 40
0
 40
0
 40
0
 40
0
 40
1
 40
1
 40
1
 40
1
 10
66.700659
 20
-57.104919
 30
0.0
 10
66.700659
 20
-57.584454
 30
0.0
 10
66.444830
 20
-58.027564
 30
0.0
 10
66.029540
 20
-58.267331
 30
0.0
  0
SPLINE
  5
267
100
AcDbEntity
  8
0
 62
7
100
AcDbSpline
 70
8
 71
3
 72
8
 73
4
 74
0
 40
0
 40
0
 40
0
 40
0
 40
1
 40
1
 40
1
 40
1
 10
66.029540
 20
-58.267331
 30
0.0
 10
65.614249
 20
-58.507099
 30
0.0
 10
65.102591
 20
-58.507099
 30
0.0
 10
64.687300
 20
-58.267331
 30
0.0
  0
SPLINE
  5
268
100
AcDbEntity
  8
0
 62
7
100
AcDbSpline
 70
8
 71
3
 72
8
 73
4
 74
0
 40
0
 40
0
 40
0
 40
0
 40
1
 40
1
 40
1
 40
1
 10
64.687300
 20
-58.267331
 30
0.0
 10
64.272010
 20
-58.027564
 30
0.0
 10
64.016181
 20
-57.584454
 30
0.0
 10
64.016181
 20
-57.104919
 30
0.0
  0
SPLINE
  5
269
100
AcDbEntity
  8
0
 62
7
100
AcDbSpline
 70
8
 71
3
 72
8
 73
4
 74
0
 40
0
 40
0
 40
0
 40
0
 40
1
 40
1
 40
1
 40
1
 10
64.016181
 20
-57.104919
 30
0.0
 10
64.016181
 20
-56.363621
 30
0.0
 10
64.617122
 20
-55.762680
 30
0.0
 10
65.358420
 20
-55.762680
 30
0.0
  0
SPLINE
  5
26a
100
AcDbEntity
  8
0
 62
7
100
AcDbSpline
 70
8
 71
3
 72
8
 73
4
 74
0
 40
0
 40
0
 40
0
 40
0
 40
1
 40
1
 40
1
 40
1
 10
65.358420
 20
-55.762680
 30
0.0
 10
66.099718
 20
-55.762680
 30
0.0
 10
66.700659
 20
-56.363621
 30
0.0
 10
66.700659
 20
-57.104919
 30
0.0
  0
LINE
  5
26b
100
AcDbEntity
  8
0
 62
7
100
AcDbLine
 10
66.700659
 20
-57.104919
 30
0.0
 11
66.700659
 21
-57.104919
 31
0.0
  0
SPLINE
  5
26c
100
AcDbEntity
  8
0
 62
7
100
AcDbSpline
 70
8
 71
3
 72
8
 73
4
 74
0
 40
0
 40
0
 40
0
 40
0
 40
1
 40
1
 40
1
 40
1
 10
87.020635
 20
-57.104919
 30
0.0
 10
87.020635
 20
-57.846217
 30
0.0
 10
86.419694
 20
-58.447157
 30
0.0
 10
85.678395
 20
-58.447157
 30
0.0
  0
SPLINE
  5
26d
100
AcDbEntity
  8
0
 62
7
100
AcDbSpline
 70
8
 71
3
 72
8
 73
4
 74
0
 40
0
 40
0
 40
0
 40
0
 40
1
 40
1
 40
1
 40
1
 10
85.678395
 20
-58.447157
 30
0.0
 10
84.937097
 20
-58.447157
 30
0.0
 10
84.336156
 20
-57.846217
 30
0.0
 10
84.336156
 20
-57.104919
 30
0.0
  0
SPLINE
  5
26e
100
AcDbEntity
  8
0
 62
7
100
AcDbSpline
 70
8
 71
3
 72
8
 73
4
 74
0
 40
0
 40
0
 40
0
 40
0
 40
1
 40
1
 40
1
 40
1
 10
84.336156
 20
-57.104919
 30
0.0
 10
84.336156
 20
-56.625383
 30
0.0
 10
84.591986
 20
-56.182274
 30
0.0
 10
85.007276
 20
-55.942506
 30
0.0
  0
SPLINE
  5
26f
100
AcDbEntity
  8
0
 62
7
100
AcDbSpline
 70
8
 71
3
 72
8
 73
4
 74
0
 40
0
 40
0
 40
0
 40
0
 40
1
 40
1
 40
1
 40
1
 10
85.007276
 20
-55.942506
 30
0.0
 10
85.422566
 20
-55.702738
 30
0.0
 10
85.934225
 20
-55.702738
 30
0.0
 10
86.349515
 20
-55.942506
 30
0.0
  0
SPLINE
  5
270
100
AcDbEntity
  8
0
 62
7
100
AcDbSpline
 70
8
 71
3
 72
8
 73
4
 74
0
 40
0
 40
0
 40
0
 40
0
 40
1
 40
1
 40
1
 40
1
 10
86.349515
 20
-55.942506
 30
0.0
 10
86.764805
 20
-56.182274
 30
0.0
 10
87.020635
 20
-56.625383
 30
0.0
 10
87.020635
 20
-57.104919
 30
0.0
  0
LINE
  5
271
100
AcDbEntity
  8
0
 62
7
100
AcDbLine
 10
87.020635
 20
-57.104919
 30
0.0
 11
87.020635
 21
-57.104919
 31
0.0
  0
SPLINE
  5
272
100
AcDbEntity
  8
0
 62
7
100
AcDbSpline
 70
8
 71
3
 72
8
 73
4
 74
0
 40
0
 40
0
 40
0
 40
0
 40
1
 40
1
 40
1
 40
1
 10
87.020635
 20
-67.264909
 30
0.0
 10
87.020635
 20
-68.006207
 30
0.0
 10
86.419694
 20
-68.607147
 30
0.0
 10
85.678395
 20
-68.607147
 30
0.0
  0
SPLINE
  5
273
100
AcDbEntity
  8
0
 62
7
100
AcDbSpline
 70
8
 71
3
 72
8
 73
4
 74
0
 40
0
 40
0
 40
0
 40
0
 40
1
 40
1
 40
1
 40
1
 10
85.678395
 20
-68.607147
 30
0.0
 10
84.937097
 20
-68.607147
 30
0.0
 10
84.336156
 20
-68.006207
 30
0.0
 10
84.336156
 20
-67.264909
 30
0.0
  0
SPLINE
  5
274
100
AcDbEntity
  8
0
 62
7
100
AcDbSpline
 70
8
 71
3
 72
8
 73
4
 74
0
 40
0
 40
0
 40
0
 40
0
 40
1
 40
1
 40
1
 40
1
 10
84.336156
 20
-67.264909
 30
0.0
 10
84.336156
 20
-66.785373
 30
0.0
 10
84.591986
 20
-66.342264
 30
0.0
 10
85.007276
 20
-66.102496
 30
0.0
  0
SPLINE
  5
275
100
AcDbEntity
  8
0
 62
7
100
AcDbSpline
 70
8
 71
3
 72
8
 73
4
 74
0
 40
0
 40
0
 40
0
 40
0
 40
1
 40
1
 40
1
 40
1
 10
85.007276
 20
-66.102496
 30
0.0
 10
85.422566
 20
-65.862729
 30
0.0
 10
85.934225
 20
-65.862729
 30
0.0
 10
86.349515
 20
-66.102496
 30
0.0
  0
SPLINE
  5
276
100
AcDbEntity
  8
0
 62
7
100
AcDbSpline
 70
8
 71
3
 72
8
 73
4
 74
0
 40
0
 40
0
 40
0
 40
0
 40
1
 40
1
 40
1
 40
1
 10
86.349515
 20
-66.102496
 30
0.0
 10
86.764805
 20
-66.342264
 30
0.0
 10
87.020635
 20
-66.785373
 30
0.0
 10
87.020635
 20
-67.264909
 30
0.0
  0
LINE
  5
277
100
AcDbEntity
  8
0
 62
7
100
AcDbLine
 10
87.020635
 20
-67.264909
 30
0.0
 11
87.020635
 21
-67.264909
 31
0.0
  0
SPLINE
  5
278
100
AcDbEntity
  8
0
 62
7
100
AcDbSpline
 70
8
 71
3
 72
8
 73
4
 74
0
 40
0
 40
0
 40
0
 40
0
 40
1
 40
1
 40
1
 40
1
 10
76.860650
 20
-67.264909
 30
0.0
 10
76.860650
 20
-67.744445
 30
0.0
 10
76.604820
 20
-68.187554
 30
0.0
 10
76.189530
 20
-68.427322
 30
0.0
  0
SPLINE
  5
279
100
AcDbEntity
  8
0
 62
7
100
AcDbSpline
 70
8
 71
3
 72
8
 73
4
 74
0
 40
0
 40
0
 40
0
 40
0
 40
1
 40
1
 40
1
 40
1
 10
76.189530
 20
-68.427322
 30
0.0
 10
75.774240
 20
-68.667090
 30
0.0
 10
75.262581
 20
-68.667090
 30
0.0
 10
74.847291
 20
-68.427322
 30
0.0
  0
SPLINE
  5
27a
100
AcDbEntity
  8
0
 62
7
100
AcDbSpline
 70
8
 71
3
 72
8
 73
4
 74
0
 40
0
 40
0
 40
0
 40
0
 40
1
 40
1
 40
1
 40
1
 10
74.847291
 20
-68.427322
 30
0.0
 10
74.432000
 20
-68.187554
 30
0.0
 10
74.176171
 20
-67.744445
 30
0.0
 10
74.176171
 20
-67.264909
 30
0.0
  0
SPLINE
  5
27b
100
AcDbEntity
  8
0
 62
7
100
AcDbSpline
 70
8
 71
3
 72
8
 73
4
 74
0
 40
0
 40
0
 40
0
 40
0
 40
1
 40
1
 40
1
 40
1
 10
74.176171
 20
-67.264909
 30
0.0
 10
74.176171
 20
-66.785373
 30
0.0
 10
74.432000
 20
-66.342264
 30
0.0
 10
74.847291
 20
-66.102496
 30
0.0
  0
SPLINE
  5
27c
100
AcDbEntity
  8
0
 62
7
100
AcDbSpline
 70
8
 71
3
 72
8
 73
4
 74
0
 40
0
 40
0
 40
0
 40
0
 40
1
 40
1
 40
1
 40
1
 10
74.847291
 20
-66.102496
 30
0.0
 10
75.262581
 20
-65.862729
 30
0.0
 10
75.774240
 20
-65.862729
 30
0.0
 10
76.189530
 20
-66.102496
 30
0.0
  0
SPLINE
  5
27d
100
AcDbEntity
  8
0
 62
7
100
AcDbSpline
 70
8
 71
3
 72
8
 73
4
 74
0
 40
0
 40
0
 40
0
 40
0
 40
1
 40
1
 40
1
 40
1
 10
76.189530
 20
-66.102496
 30
0.0
 10
76.604820
 20
-66.342264
 30
0.0
 10
76.860650
 20
-66.785373
 30
0.0
 10
76.860650
 20
-67.264909
 30
0.0
  0
LINE
  5
27e
100
AcDbEntity
  8
0
 62
7
100
AcDbLine
 10
76.860650
 20
-67.264909
 30
0.0
 11
76.860650
 21
-67.264909
 31
0.0
  0
SPLINE
  5
27f
100
AcDbEntity
  8
0
 62
7
100
AcDbSpline
 70
8
 71
3
 72
8
 73
4
 74
0
 40
0
 40
0
 40
0
 40
0
 40
1
 40
1
 40
1
 40
1
 10
66.700659
 20
-67.264909
 30
0.0
 10
66.700659
 20
-67.744445
 30
0.0
 10
66.444830
 20
-68.187554
 30
0.0
 10
66.029540
 20
-68.427322
 30
0.0
  0
SPLINE
  5
280
100
AcDbEntity
  8
0
 62
7
100
AcDbSpline
 70
8
 71
3
 72
8
 73
4
 74
0
 40
0
 40
0
 40
0
 40
0
 40
1
 40
1
 40
1
 40
1
 10
66.029540
 20
-68.427322
 30
0.0
 10
65.614249
 20
-68.667090
 30
0.0
 10
65.102591
 20
-68.667090
 30
0.0
 10
64.687300
 20
-68.427322
 30
0.0
  0
SPLINE
  5
281
100
AcDbEntity
  8
0
 62
7
100
AcDbSpline
 70
8
 71
3
 72
8
 73
4
 74
0
 40
0
 40
0
 40
0
 40
0
 40
1
 40
1
 40
1
 40
1
 10
64.687300
 20
-68.427322
 30
0.0
 10
64.272010
 20
-68.187554
 30
0.0
 10
64.016181
 20
-67.744445
 30
0.0
 10
64.016181
 20
-67.264909
 30
0.0
  0
SPLINE
  5
282
100
AcDbEntity
  8
0
 62
7
100
AcDbSpline
 70
8
 71
3
 72
8
 73
4
 74
0
 40
0
 40
0
 40
0
 40
0
 40
1
 40
1
 40
1
 40
1
 10
64.016181
 20
-67.264909
 30
0.0
 10
64.016181
 20
-66.523611
 30
0.0
 10
64.617122
 20
-65.922671
 30
0.0
 10
65.358420
 20
-65.922671
 30
0.0
  0
SPLINE
  5
283
100
AcDbEntity
  8
0
 62
7
100
AcDbSpline
 70
8
 71
3
 72
8
 73
4
 74
0
 40
0
 40
0
 40
0
 40
0
 40
1
 40
1
 40
1
 40
1
 10
65.358420
 20
-65.922671
 30
0.0
 10
66.099718
 20
-65.922671
 30
0.0
 10
66.700659
 20
-66.523611
 30
0.0
 10
66.700659
 20
-67.264909
 30
0.0
  0
LINE
  5
284
100
AcDbEntity
  8
0
 62
7
100
AcDbLine
 10
66.700659
 20
-67.264909
 30
0.0
 11
66.700659
 21
-67.264909
 31
0.0
  0
SPLINE
  5
285
100
AcDbEntity
  8
0
 62
7
100
AcDbSpline
 70
8
 71
3
 72
8
 73
4
 74
0
 40
0
 40
0
 40
0
 40
0
 40
1
 40
1
 40
1
 40
1
 10
56.540669
 20
-67.264909
 30
0.0
 10
56.540669
 20
-67.744445
 30
0.0
 10
56.284840
 20
-68.187554
 30
0.0
 10
55.869549
 20
-68.427322
 30
0.0
  0
SPLINE
  5
286
100
AcDbEntity
  8
0
 62
7
100
AcDbSpline
 70
8
 71
3
 72
8
 73
4
 74
0
 40
0
 40
0
 40
0
 40
0
 40
1
 40
1
 40
1
 40
1
 10
55.869549
 20
-68.427322
 30
0.0
 10
55.454259
 20
-68.667090
 30
0.0
 10
54.942600
 20
-68.667090
 30
0.0
 10
54.527310
 20
-68.427322
 30
0.0
  0
SPLINE
  5
287
100
AcDbEntity
  8
0
 62
7
100
AcDbSpline
 70
8
 71
3
 72
8
 73
4
 74
0
 40
0
 40
0
 40
0
 40
0
 40
1
 40
1
 40
1
 40
1
 10
54.527310
 20
-68.427322
 30
0.0
 10
54.112020
 20
-68.187554
 30
0.0
 10
53.856190
 20
-67.744445
 30
0.0
 10
53.856190
 20
-67.264909
 30
0.0
  0
SPLINE
  5
288
100
AcDbEntity
  8
0
 62
7
100
AcDbSpline
 70
8
 71
3
 72
8
 73
4
 74
0
 40
0
 40
0
 40
0
 40
0
 40
1
 40
1
 40
1
 40
1
 10
53.856190
 20
-67.264909
 30
0.0
 10
53.856190
 20
-66.785373
 30
0.0
 10
54.112020
 20
-66.342264
 30
0.0
 10
54.527310
 20
-66.102496
 30
0.0
  0
SPLINE
  5
289
100
AcDbEntity
  8
0
 62
7
100
AcDbSpline
 70
8
 71
3
 72
8
 73
4
 74
0
 40
0
 40
0
 40
0
 40
0
 40
1
 40
1
 40
1
 40
1
 10
54.527310
 20
-66.102496
 30
0.0
 10
54.942600
 20
-65.862729
 30
0.0
 10
55.454259
 20
-65.862729
 30
0.0
 10
55.869549
 20
-66.102496
 30
0.0
  0
SPLINE
  5
28a
100
AcDbEntity
  8
0
 62
7
100
AcDbSpline
 70
8
 71
3
 72
8
 73
4
 74
0
 40
0
 40
0
 40
0
 40
0
 40
1
 40
1
 40
1
 40
1
 10
55.869549
 20
-66.102496
 30
0.0
 10
56.284840
 20
-66.342264
 30
0.0
 10
56.540669
 20
-66.785373
 30
0.0
 10
56.540669
 20
-67.264909
 30
0.0
  0
LINE
  5
28b
100
AcDbEntity
  8
0
 62
7
100
AcDbLine
 10
56.540669
 20
-67.264909
 30
0.0
 11
56.540669
 21
-67.264909
 31
0.0
  0
SPLINE
  5
28c
100
AcDbEntity
  8
0
 62
7
100
AcDbSpline
 70
8
 71
3
 72
8
 73
4
 74
0
 40
0
 40
0
 40
0
 40
0
 40
1
 40
1
 40
1
 40
1
 10
46.380679
 20
-67.264909
 30
0.0
 10
46.380679
 20
-67.744445
 30
0.0
 10
46.124849
 20
-68.187554
 30
0.0
 10
45.709559
 20
-68.427322
 30
0.0
  0
SPLINE
  5
28d
100
AcDbEntity
  8
0
 62
7
100
AcDbSpline
 70
8
 71
3
 72
8
 73
4
 74
0
 40
0
 40
0
 40
0
 40
0
 40
1
 40
1
 40
1
 40
1
 10
45.709559
 20
-68.427322
 30
0.0
 10
45.294269
 20
-68.667090
 30
0.0
 10
44.782610
 20
-68.667090
 30
0.0
 10
44.367320
 20
-68.427322
 30
0.0
  0
SPLINE
  5
28e
100
AcDbEntity
  8
0
 62
7
100
AcDbSpline
 70
8
 71
3
 72
8
 73
4
 74
0
 40
0
 40
0
 40
0
 40
0
 40
1
 40
1
 40
1
 40
1
 10
44.367320
 20
-68.427322
 30
0.0
 10
43.952029
 20
-68.187554
 30
0.0
 10
43.696200
 20
-67.744445
 30
0.0
 10
43.696200
 20
-67.264909
 30
0.0
  0
SPLINE
  5
28f
100
AcDbEntity
  8
0
 62
7
100
AcDbSpline
 70
8
 71
3
 72
8
 73
4
 74
0
 40
0
 40
0
 40
0
 40
0
 40
1
 40
1
 40
1
 40
1
 10
43.696200
 20
-67.264909
 30
0.0
 10
43.696200
 20
-66.785373
 30
0.0
 10
43.952029
 20
-66.342264
 30
0.0
 10
44.367320
 20
-66.102496
 30
0.0
  0
SPLINE
  5
290
100
AcDbEntity
  8
0
 62
7
100
AcDbSpline
 70
8
 71
3
 72
8
 73
4
 74
0
 40
0
 40
0
 40
0
 40
0
 40
1
 40
1
 40
1
 40
1
 10
44.367320
 20
-66.102496
 30
0.0
 10
44.782610
 20
-65.862729
 30
0.0
 10
45.294269
 20
-65.862729
 30
0.0
 10
45.709559
 20
-66.102496
 30
0.0
  0
SPLINE
  5
291
100
AcDbEntity
  8
0
 62
7
100
AcDbSpline
 70
8
 71
3
 72
8
 73
4
 74
0
 40
0
 40
0
 40
0
 40
0
 40
1
 40
1
 40
1
 40
1
 10
45.709559
 20
-66.102496
 30
0.0
 10
46.124849
 20
-66.342264
 30
0.0
 10
46.380679
 20
-66.785373
 30
0.0
 10
46.380679
 20
-67.264909
 30
0.0
  0
LINE
  5
292
100
AcDbEntity
  8
0
 62
7
100
AcDbLine
 10
46.380679
 20
-67.264909
 30
0.0
 11
46.380679
 21
-67.264909
 31
0.0
  0
SPLINE
  5
293
100
AcDbEntity
  8
0
 62
7
100
AcDbSpline
 70
8
 71
3
 72
8
 73
4
 74
0
 40
0
 40
0
 40
0
 40
0
 40
1
 40
1
 40
1
 40
1
 10
36.220686
 20
-67.264909
 30
0.0
 10
36.220686
 20
-67.744445
 30
0.0
 10
35.964856
 20
-68.187554
 30
0.0
 10
35.549566
 20
-68.427322
 30
0.0
  0
SPLINE
  5
294
100
AcDbEntity
  8
0
 62
7
100
AcDbSpline
 70
8
 71
3
 72
8
 73
4
 74
0
 40
0
 40
0
 40
0
 40
0
 40
1
 40
1
 40
1
 40
1
 10
35.549566
 20
-68.427322
 30
0.0
 10
35.134276
 20
-68.667090
 30
0.0
 10
34.622617
 20
-68.667090
 30
0.0
 10
34.207327
 20
-68.427322
 30
0.0
  0
SPLINE
  5
295
100
AcDbEntity
  8
0
 62
7
100
AcDbSpline
 70
8
 71
3
 72
8
 73
4
 74
0
 40
0
 40
0
 40
0
 40
0
 40
1
 40
1
 40
1
 40
1
 10
34.207327
 20
-68.427322
 30
0.0
 10
33.792037
 20
-68.187554
 30
0.0
 10
33.536207
 20
-67.744445
 30
0.0
 10
33.536207
 20
-67.264909
 30
0.0
  0
SPLINE
  5
296
100
AcDbEntity
  8
0
 62
7
100
AcDbSpline
 70
8
 71
3
 72
8
 73
4
 74
0
 40
0
 40
0
 40
0
 40
0
 40
1
 40
1
 40
1
 40
1
 10
33.536207
 20
-67.264909
 30
0.0
 10
33.536207
 20
-66.785373
 30
0.0
 10
33.792037
 20
-66.342264
 30
0.0
 10
34.207327
 20
-66.102496
 30
0.0
  0
SPLINE
  5
297
100
AcDbEntity
  8
0
 62
7
100
AcDbSpline
 70
8
 71
3
 72
8
 73
4
 74
0
 40
0
 40
0
 40
0
 40
0
 40
1
 40
1
 40
1
 40
1
 10
34.207327
 20
-66.102496
 30
0.0
 10
34.622617
 20
-65.862729
 30
0.0
 10
35.134276
 20
-65.862729
 30
0.0
 10
35.549566
 20
-66.102496
 30
0.0
  0
SPLINE
  5
298
100
AcDbEntity
  8
0
 62
7
100
AcDbSpline
 70
8
 71
3
 72
8
 73
4
 74
0
 40
0
 40
0
 40
0
 40
0
 40
1
 40
1
 40
1
 40
1
 10
35.549566
 20
-66.102496
 30
0.0
 10
35.964856
 20
-66.342264
 30
0.0
 10
36.220686
 20
-66.785373
 30
0.0
 10
36.220686
 20
-67.264909
 30
0.0
  0
LINE
  5
299
100
AcDbEntity
  8
0
 62
7
100
AcDbLine
 10
36.220686
 20
-67.264909
 30
0.0
 11
36.220686
 21
-67.264909
 31
0.0
  0
SPLINE
  5
29a
100
AcDbEntity
  8
0
 62
7
100
AcDbSpline
 70
8
 71
3
 72
8
 73
4
 74
0
 40
0
 40
0
 40
0
 40
0
 40
1
 40
1
 40
1
 40
1
 10
26.060695
 20
-67.264909
 30
0.0
 10
26.060695
 20
-67.744445
 30
0.0
 10
25.804865
 20
-68.187554
 30
0.0
 10
25.389575
 20
-68.427322
 30
0.0
  0
SPLINE
  5
29b
100
AcDbEntity
  8
0
 62
7
100
AcDbSpline
 70
8
 71
3
 72
8
 73
4
 74
0
 40
0
 40
0
 40
0
 40
0
 40
1
 40
1
 40
1
 40
1
 10
25.389575
 20
-68.427322
 30
0.0
 10
24.974285
 20
-68.667090
 30
0.0
 10
24.462626
 20
-68.667090
 30
0.0
 10
24.047336
 20
-68.427322
 30
0.0
  0
SPLINE
  5
29c
100
AcDbEntity
  8
0
 62
7
100
AcDbSpline
 70
8
 71
3
 72
8
 73
4
 74
0
 40
0
 40
0
 40
0
 40
0
 40
1
 40
1
 40
1
 40
1
 10
24.047336
 20
-68.427322
 30
0.0
 10
23.632045
 20
-68.187554
 30
0.0
 10
23.376216
 20
-67.744445
 30
0.0
 10
23.376216
 20
-67.264909
 30
0.0
  0
SPLINE
  5
29d
100
AcDbEntity
  8
0
 62
7
100
AcDbSpline
 70
8
 71
3
 72
8
 73
4
 74
0
 40
0
 40
0
 40
0
 40
0
 40
1
 40
1
 40
1
 40
1
 10
23.376216
 20
-67.264909
 30
0.0
 10
23.376216
 20
-66.785373
 30
0.0
 10
23.632045
 20
-66.342264
 30
0.0
 10
24.047336
 20
-66.102496
 30
0.0
  0
SPLINE
  5
29e
100
AcDbEntity
  8
0
 62
7
100
AcDbSpline
 70
8
 71
3
 72
8
 73
4
 74
0
 40
0
 40
0
 40
0
 40
0
 40
1
 40
1
 40
1
 40
1
 10
24.047336
 20
-66.102496
 30
0.0
 10
24.462626
 20
-65.862729
 30
0.0
 10
24.974285
 20
-65.862729
 30
0.0
 10
25.389575
 20
-66.102496
 30
0.0
  0
SPLINE
  5
29f
100
AcDbEntity
  8
0
 62
7
100
AcDbSpline
 70
8
 71
3
 72
8
 73
4
 74
0
 40
0
 40
0
 40
0
 40
0
 40
1
 40
1
 40
1
 40
1
 10
25.389575
 20
-66.102496
 30
0.0
 10
25.804865
 20
-66.342264
 30
0.0
 10
26.060695
 20
-66.785373
 30
0.0
 10
26.060695
 20
-67.264909
 30
0.0
  0
LINE
  5
2a0
100
AcDbEntity
  8
0
 62
7
100
AcDbLine
 10
26.060695
 20
-67.264909
 30
0.0
 11
26.060695
 21
-67.264909
 31
0.0
  0
SPLINE
  5
2a1
100
AcDbEntity
  8
0
 62
7
100
AcDbSpline
 70
8
 71
3
 72
8
 73
4
 74
0
 40
0
 40
0
 40
0
 40
0
 40
1
 40
1
 40
1
 40
1
 10
15.900706
 20
-67.264909
 30
0.0
 10
15.900706
 20
-67.744445
 30
0.0
 10
15.644876
 20
-68.187554
 30
0.0
 10
15.229586
 20
-68.427322
 30
0.0
  0
SPLINE
  5
2a2
100
AcDbEntity
  8
0
 62
7
100
AcDbSpline
 70
8
 71
3
 72
8
 73
4
 74
0
 40
0
 40
0
 40
0
 40
0
 40
1
 40
1
 40
1
 40
1
 10
15.229586
 20
-68.427322
 30
0.0
 10
14.814296
 20
-68.667090
 30
0.0
 10
14.302637
 20
-68.667090
 30
0.0
 10
13.887347
 20
-68.427322
 30
0.0
  0
SPLINE
  5
2a3
100
AcDbEntity
  8
0
 62
7
100
AcDbSpline
 70
8
 71
3
 72
8
 73
4
 74
0
 40
0
 40
0
 40
0
 40
0
 40
1
 40
1
 40
1
 40
1
 10
13.887347
 20
-68.427322
 30
0.0
 10
13.472056
 20
-68.187554
 30
0.0
 10
13.216227
 20
-67.744445
 30
0.0
 10
13.216227
 20
-67.264909
 30
0.0
  0
SPLINE
  5
2a4
100
AcDbEntity
  8
0
 62
7
100
AcDbSpline
 70
8
 71
3
 72
8
 73
4
 74
0
 40
0
 40
0
 40
0
 40
0
 40
1
 40
1
 40
1
 40
1
 10
13.216227
 20
-67.264909
 30
0.0
 10
13.216227
 20
-66.785373
 30
0.0
 10
13.472056
 20
-66.342264
 30
0.0
 10
13.887347
 20
-66.102496
 30
0.0
  0
SPLINE
  5
2a5
100
AcDbEntity
  8
0
 62
7
100
AcDbSpline
 70
8
 71
3
 72
8
 73
4
 74
0
 40
0
 40
0
 40
0
 40
0
 40
1
 40
1
 40
1
 40
1
 10
13.887347
 20
-66.102496
 30
0.0
 10
14.302637
 20
-65.862729
 30
0.0
 10
14.814296
 20
-65.862729
 30
0.0
 10
15.229586
 20
-66.102496
 30
0.0
  0
SPLINE
  5
2a6
100
AcDbEntity
  8
0
 62
7
100
AcDbSpline
 70
8
 71
3
 72
8
 73
4
 74
0
 40
0
 40
0
 40
0
 40
0
 40
1
 40
1
 40
1
 40
1
 10
15.229586
 20
-66.102496
 30
0.0
 10
15.644876
 20
-66.342264
 30
0.0
 10
15.900706
 20
-66.785373
 30
0.0
 10
15.900706
 20
-67.264909
 30
0.0
  0
LINE
  5
2a7
100
AcDbEntity
  8
0
 62
7
100
AcDbLine
 10
15.900706
 20
-67.264909
 30
0.0
 11
15.900706
 21
-67.264909
 31
0.0
  0
SPLINE
  5
2a8
100
AcDbEntity
  8
0
 62
7
100
AcDbSpline
 70
8
 71
3
 72
8
 73
4
 74
0
 40
0
 40
0
 40
0
 40
0
 40
1
 40
1
 40
1
 40
1
 10
5.740714
 20
-67.264909
 30
0.0
 10
5.740714
 20
-67.744445
 30
0.0
 10
5.484885
 20
-68.187554
 30
0.0
 10
5.069595
 20
-68.427322
 30
0.0
  0
SPLINE
  5
2a9
100
AcDbEntity
  8
0
 62
7
100
AcDbSpline
 70
8
 71
3
 72
8
 73
4
 74
0
 40
0
 40
0
 40
0
 40
0
 40
1
 40
1
 40
1
 40
1
 10
5.069595
 20
-68.427322
 30
0.0
 10
4.654304
 20
-68.667090
 30
0.0
 10
4.142646
 20
-68.667090
 30
0.0
 10
3.727355
 20
-68.427322
 30
0.0
  0
SPLINE
  5
2aa
100
AcDbEntity
  8
0
 62
7
100
AcDbSpline
 70
8
 71
3
 72
8
 73
4
 74
0
 40
0
 40
0
 40
0
 40
0
 40
1
 40
1
 40
1
 40
1
 10
3.727355
 20
-68.427322
 30
0.0
 10
3.312065
 20
-68.187554
 30
0.0
 10
3.056236
 20
-67.744445
 30
0.0
 10
3.056236
 20
-67.264909
 30
0.0
  0
SPLINE
  5
2ab
100
AcDbEntity
  8
0
 62
7
100
AcDbSpline
 70
8
 71
3
 72
8
 73
4
 74
0
 40
0
 40
0
 40
0
 40
0
 40
1
 40
1
 40
1
 40
1
 10
3.056236
 20
-67.264909
 30
0.0
 10
3.056236
 20
-66.785373
 30
0.0
 10
3.312065
 20
-66.342264
 30
0.0
 10
3.727355
 20
-66.102496
 30
0.0
  0
SPLINE
  5
2ac
100
AcDbEntity
  8
0
 62
7
100
AcDbSpline
 70
8
 71
3
 72
8
 73
4
 74
0
 40
0
 40
0
 40
0
 40
0
 40
1
 40
1
 40
1
 40
1
 10
3.727355
 20
-66.102496
 30
0.0
 10
4.142646
 20
-65.862729
 30
0.0
 10
4.654304
 20
-65.862729
 30
0.0
 10
5.069595
 20
-66.102496
 30
0.0
  0
SPLINE
  5
2ad
100
AcDbEntity
  8
0
 62
7
100
AcDbSpline
 70
8
 71
3
 72
8
 73
4
 74
0
 40
0
 40
0
 40
0
 40
0
 40
1
 40
1
 40
1
 40
1
 10
5.069595
 20
-66.102496
 30
0.0
 10
5.484885
 20
-66.342264
 30
0.0
 10
5.740714
 20
-66.785373
 30
0.0
 10
5.740714
 20
-67.264909
 30
0.0
  0
LINE
  5
2ae
100
AcDbEntity
  8
0
 62
7
100
AcDbLine
 10
5.740714
 20
-67.264909
 30
0.0
 11
5.740714
 21
-67.264909
 31
0.0
  0
ENDSEC
  0
SECTION
  2
OBJECTS
  0
DICTIONARY
  5
C
330
0
100
AcDbDictionary
  3
ACAD_GROUP
350
D
  3
ACAD_MLINESTYLE
350
17
  0
DICTIONARY
  5
D
330
C
100
AcDbDictionary
  0
DICTIONARY
  5
1A
330
C
100
AcDbDictionary
  0
DICTIONARY
  5
17
330
C
100
AcDbDictionary
  3
STANDARD
350
18
  0
DICTIONARY
  5
19
330
C
100
AcDbDictionary
  0
ENDSEC
  0
EOF
