%TF.GenerationSoftware,KiCad,Pcbnew,6.0.7-f9a2dced07~116~ubuntu20.04.1*%
%TF.CreationDate,2022-09-28T21:06:17-05:00*%
%TF.ProjectId,a06,6130362e-6b69-4636-9164-5f7063625858,rev?*%
%TF.SameCoordinates,Original*%
%TF.FileFunction,Legend,Top*%
%TF.FilePolarity,Positive*%
%FSLAX46Y46*%
G04 Gerber Fmt 4.6, Leading zero omitted, Abs format (unit mm)*
G04 Created by KiCad (PCBNEW 6.0.7-f9a2dced07~116~ubuntu20.04.1) date 2022-09-28 21:06:17*
%MOMM*%
%LPD*%
G01*
G04 APERTURE LIST*
%ADD10C,0.300000*%
%ADD11C,0.120000*%
%ADD12C,0.010000*%
G04 APERTURE END LIST*
D10*
X131708000Y-129028000D02*
X132422285Y-129028000D01*
X131565142Y-129456571D02*
X132065142Y-127956571D01*
X132565142Y-129456571D01*
X133350857Y-127956571D02*
X133493714Y-127956571D01*
X133636571Y-128028000D01*
X133708000Y-128099428D01*
X133779428Y-128242285D01*
X133850857Y-128528000D01*
X133850857Y-128885142D01*
X133779428Y-129170857D01*
X133708000Y-129313714D01*
X133636571Y-129385142D01*
X133493714Y-129456571D01*
X133350857Y-129456571D01*
X133208000Y-129385142D01*
X133136571Y-129313714D01*
X133065142Y-129170857D01*
X132993714Y-128885142D01*
X132993714Y-128528000D01*
X133065142Y-128242285D01*
X133136571Y-128099428D01*
X133208000Y-128028000D01*
X133350857Y-127956571D01*
X135136571Y-127956571D02*
X134850857Y-127956571D01*
X134708000Y-128028000D01*
X134636571Y-128099428D01*
X134493714Y-128313714D01*
X134422285Y-128599428D01*
X134422285Y-129170857D01*
X134493714Y-129313714D01*
X134565142Y-129385142D01*
X134708000Y-129456571D01*
X134993714Y-129456571D01*
X135136571Y-129385142D01*
X135208000Y-129313714D01*
X135279428Y-129170857D01*
X135279428Y-128813714D01*
X135208000Y-128670857D01*
X135136571Y-128599428D01*
X134993714Y-128528000D01*
X134708000Y-128528000D01*
X134565142Y-128599428D01*
X134493714Y-128670857D01*
X134422285Y-128813714D01*
X135565142Y-129599428D02*
X136708000Y-129599428D01*
X137565142Y-128670857D02*
X137779428Y-128742285D01*
X137850857Y-128813714D01*
X137922285Y-128956571D01*
X137922285Y-129170857D01*
X137850857Y-129313714D01*
X137779428Y-129385142D01*
X137636571Y-129456571D01*
X137065142Y-129456571D01*
X137065142Y-127956571D01*
X137565142Y-127956571D01*
X137708000Y-128028000D01*
X137779428Y-128099428D01*
X137850857Y-128242285D01*
X137850857Y-128385142D01*
X137779428Y-128528000D01*
X137708000Y-128599428D01*
X137565142Y-128670857D01*
X137065142Y-128670857D01*
X138493714Y-129028000D02*
X139208000Y-129028000D01*
X138350857Y-129456571D02*
X138850857Y-127956571D01*
X139350857Y-129456571D01*
X140708000Y-129313714D02*
X140636571Y-129385142D01*
X140422285Y-129456571D01*
X140279428Y-129456571D01*
X140065142Y-129385142D01*
X139922285Y-129242285D01*
X139850857Y-129099428D01*
X139779428Y-128813714D01*
X139779428Y-128599428D01*
X139850857Y-128313714D01*
X139922285Y-128170857D01*
X140065142Y-128028000D01*
X140279428Y-127956571D01*
X140422285Y-127956571D01*
X140636571Y-128028000D01*
X140708000Y-128099428D01*
X141350857Y-129456571D02*
X141350857Y-127956571D01*
X142208000Y-129456571D02*
X141565142Y-128599428D01*
X142208000Y-127956571D02*
X141350857Y-128813714D01*
X142850857Y-129456571D02*
X142850857Y-127956571D01*
X143422285Y-127956571D01*
X143565142Y-128028000D01*
X143636571Y-128099428D01*
X143708000Y-128242285D01*
X143708000Y-128456571D01*
X143636571Y-128599428D01*
X143565142Y-128670857D01*
X143422285Y-128742285D01*
X142850857Y-128742285D01*
X145065142Y-129456571D02*
X144350857Y-129456571D01*
X144350857Y-127956571D01*
X145493714Y-129028000D02*
X146208000Y-129028000D01*
X145350857Y-129456571D02*
X145850857Y-127956571D01*
X146350857Y-129456571D01*
X146636571Y-127956571D02*
X147493714Y-127956571D01*
X147065142Y-129456571D02*
X147065142Y-127956571D01*
X147993714Y-128670857D02*
X148493714Y-128670857D01*
X148708000Y-129456571D02*
X147993714Y-129456571D01*
X147993714Y-127956571D01*
X148708000Y-127956571D01*
D11*
%TO.C,J2*%
X103030000Y-140490000D02*
X105690000Y-140490000D01*
X105690000Y-140430000D02*
X105690000Y-140490000D01*
X103030000Y-137830000D02*
X104360000Y-137830000D01*
X103030000Y-139160000D02*
X103030000Y-137830000D01*
X103030000Y-140430000D02*
X105690000Y-140430000D01*
X103030000Y-140430000D02*
X103030000Y-140490000D01*
%TO.C,REF\u002A\u002A*%
G36*
X140255814Y-115832931D02*
G01*
X140339635Y-116277555D01*
X140648920Y-116405053D01*
X140958206Y-116532551D01*
X141329246Y-116280246D01*
X141433157Y-116209996D01*
X141527087Y-116147272D01*
X141606652Y-116094938D01*
X141667470Y-116055857D01*
X141705157Y-116032893D01*
X141715421Y-116027942D01*
X141733910Y-116040676D01*
X141773420Y-116075882D01*
X141829522Y-116129062D01*
X141897787Y-116195718D01*
X141973786Y-116271354D01*
X142053092Y-116351472D01*
X142131275Y-116431574D01*
X142203907Y-116507164D01*
X142266559Y-116573745D01*
X142314803Y-116626818D01*
X142344210Y-116661887D01*
X142351241Y-116673623D01*
X142341123Y-116695260D01*
X142312759Y-116742662D01*
X142269129Y-116811193D01*
X142213218Y-116896215D01*
X142148006Y-116993093D01*
X142110219Y-117048350D01*
X142041343Y-117149248D01*
X141980140Y-117240299D01*
X141929578Y-117316970D01*
X141892628Y-117374728D01*
X141872258Y-117409043D01*
X141869197Y-117416254D01*
X141876136Y-117436748D01*
X141895051Y-117484513D01*
X141923087Y-117552832D01*
X141957391Y-117634989D01*
X141995109Y-117724270D01*
X142033387Y-117813958D01*
X142069370Y-117897338D01*
X142100206Y-117967694D01*
X142123039Y-118018310D01*
X142135017Y-118042471D01*
X142135724Y-118043422D01*
X142154531Y-118048036D01*
X142204618Y-118058328D01*
X142280793Y-118073287D01*
X142377865Y-118091901D01*
X142490643Y-118113159D01*
X142556442Y-118125418D01*
X142676950Y-118148362D01*
X142785797Y-118170195D01*
X142877476Y-118189722D01*
X142946481Y-118205748D01*
X142987304Y-118217079D01*
X142995511Y-118220674D01*
X143003548Y-118245006D01*
X143010033Y-118299959D01*
X143014970Y-118379108D01*
X143018364Y-118476026D01*
X143020218Y-118584287D01*
X143020538Y-118697465D01*
X143019327Y-118809135D01*
X143016590Y-118912868D01*
X143012331Y-119002241D01*
X143006555Y-119070826D01*
X142999267Y-119112197D01*
X142994895Y-119120810D01*
X142968764Y-119131133D01*
X142913393Y-119145892D01*
X142836107Y-119163352D01*
X142744230Y-119181780D01*
X142712158Y-119187741D01*
X142557524Y-119216066D01*
X142435375Y-119238876D01*
X142341673Y-119257080D01*
X142272384Y-119271583D01*
X142223471Y-119283292D01*
X142190897Y-119293115D01*
X142170628Y-119301956D01*
X142158626Y-119310724D01*
X142156947Y-119312457D01*
X142140184Y-119340371D01*
X142114614Y-119394695D01*
X142082788Y-119468777D01*
X142047260Y-119555965D01*
X142010583Y-119649608D01*
X141975311Y-119743052D01*
X141943996Y-119829647D01*
X141919193Y-119902740D01*
X141903454Y-119955678D01*
X141899332Y-119981811D01*
X141899676Y-119982726D01*
X141913641Y-120004086D01*
X141945322Y-120051084D01*
X141991391Y-120118827D01*
X142048518Y-120202423D01*
X142113373Y-120296982D01*
X142131843Y-120323854D01*
X142197699Y-120421275D01*
X142255650Y-120510163D01*
X142302538Y-120585412D01*
X142335207Y-120641920D01*
X142350500Y-120674581D01*
X142351241Y-120678593D01*
X142338392Y-120699684D01*
X142302888Y-120741464D01*
X142249293Y-120799445D01*
X142182171Y-120869135D01*
X142106087Y-120946045D01*
X142025604Y-121025683D01*
X141945287Y-121103561D01*
X141869699Y-121175186D01*
X141803405Y-121236070D01*
X141750969Y-121281721D01*
X141716955Y-121307650D01*
X141707545Y-121311883D01*
X141685643Y-121301912D01*
X141640800Y-121275020D01*
X141580321Y-121235736D01*
X141533789Y-121204117D01*
X141449475Y-121146098D01*
X141349626Y-121077784D01*
X141249473Y-121009579D01*
X141195627Y-120973075D01*
X141013371Y-120849800D01*
X140860381Y-120932520D01*
X140790682Y-120968759D01*
X140731414Y-120996926D01*
X140691311Y-121012991D01*
X140681103Y-121015226D01*
X140668829Y-120998722D01*
X140644613Y-120952082D01*
X140610263Y-120879609D01*
X140567588Y-120785606D01*
X140518394Y-120674374D01*
X140464490Y-120550215D01*
X140407684Y-120417432D01*
X140349782Y-120280327D01*
X140292593Y-120143202D01*
X140237924Y-120010358D01*
X140187584Y-119886098D01*
X140143380Y-119774725D01*
X140107119Y-119680539D01*
X140080609Y-119607844D01*
X140065658Y-119560941D01*
X140063254Y-119544833D01*
X140082311Y-119524286D01*
X140124036Y-119490933D01*
X140179706Y-119451702D01*
X140184378Y-119448599D01*
X140328264Y-119333423D01*
X140444283Y-119199053D01*
X140531430Y-119049784D01*
X140588699Y-118889913D01*
X140615086Y-118723737D01*
X140609585Y-118555552D01*
X140571190Y-118389655D01*
X140498895Y-118230342D01*
X140477626Y-118195487D01*
X140366996Y-118054737D01*
X140236302Y-117941714D01*
X140090064Y-117857003D01*
X139932808Y-117801194D01*
X139769057Y-117774874D01*
X139603333Y-117778630D01*
X139440162Y-117813050D01*
X139284065Y-117878723D01*
X139139567Y-117976235D01*
X139094869Y-118015813D01*
X138981112Y-118139703D01*
X138898218Y-118270124D01*
X138841356Y-118416315D01*
X138809687Y-118561088D01*
X138801869Y-118723860D01*
X138827938Y-118887440D01*
X138885245Y-119046298D01*
X138971144Y-119194906D01*
X139082986Y-119327735D01*
X139218123Y-119439256D01*
X139235883Y-119451011D01*
X139292150Y-119489508D01*
X139334923Y-119522863D01*
X139355372Y-119544160D01*
X139355669Y-119544833D01*
X139351279Y-119567871D01*
X139333876Y-119620157D01*
X139305268Y-119697390D01*
X139267265Y-119795268D01*
X139221674Y-119909491D01*
X139170303Y-120035758D01*
X139114962Y-120169767D01*
X139057458Y-120307218D01*
X138999601Y-120443808D01*
X138943198Y-120575237D01*
X138890058Y-120697205D01*
X138841990Y-120805409D01*
X138800801Y-120895549D01*
X138768301Y-120963323D01*
X138746297Y-121004430D01*
X138737436Y-121015226D01*
X138710360Y-121006819D01*
X138659697Y-120984272D01*
X138594183Y-120951613D01*
X138558159Y-120932520D01*
X138405168Y-120849800D01*
X138222912Y-120973075D01*
X138129875Y-121036228D01*
X138028015Y-121105727D01*
X137932562Y-121171165D01*
X137884750Y-121204117D01*
X137817505Y-121249273D01*
X137760564Y-121285057D01*
X137721354Y-121306938D01*
X137708619Y-121311563D01*
X137690083Y-121299085D01*
X137649059Y-121264252D01*
X137589525Y-121210678D01*
X137515458Y-121141983D01*
X137430835Y-121061781D01*
X137377315Y-121010286D01*
X137283681Y-120918286D01*
X137202759Y-120835999D01*
X137137823Y-120766945D01*
X137092142Y-120714644D01*
X137068989Y-120682616D01*
X137066768Y-120676116D01*
X137077076Y-120651394D01*
X137105561Y-120601405D01*
X137149063Y-120531212D01*
X137204423Y-120445875D01*
X137268480Y-120350456D01*
X137286697Y-120323854D01*
X137353073Y-120227167D01*
X137412622Y-120140117D01*
X137462016Y-120067595D01*
X137497925Y-120014493D01*
X137517019Y-119985703D01*
X137518864Y-119982726D01*
X137516105Y-119959782D01*
X137501462Y-119909336D01*
X137477487Y-119838041D01*
X137446734Y-119752547D01*
X137411756Y-119659507D01*
X137375107Y-119565574D01*
X137339339Y-119477399D01*
X137307006Y-119401634D01*
X137280662Y-119344931D01*
X137262858Y-119313943D01*
X137261593Y-119312457D01*
X137250706Y-119303601D01*
X137232318Y-119294843D01*
X137202394Y-119285277D01*
X137156897Y-119273996D01*
X137091791Y-119260093D01*
X137003039Y-119242663D01*
X136886607Y-119220798D01*
X136738458Y-119193591D01*
X136706382Y-119187741D01*
X136611314Y-119169374D01*
X136528435Y-119151405D01*
X136465070Y-119135569D01*
X136428542Y-119123600D01*
X136423644Y-119120810D01*
X136415573Y-119096072D01*
X136409013Y-119040790D01*
X136403967Y-118961389D01*
X136400441Y-118864296D01*
X136398439Y-118755938D01*
X136397964Y-118642740D01*
X136399023Y-118531128D01*
X136401618Y-118427529D01*
X136405754Y-118338368D01*
X136411437Y-118270072D01*
X136418669Y-118229066D01*
X136423029Y-118220674D01*
X136447302Y-118212208D01*
X136502574Y-118198435D01*
X136583338Y-118180550D01*
X136684088Y-118159748D01*
X136799317Y-118137223D01*
X136862098Y-118125418D01*
X136981213Y-118103151D01*
X137087435Y-118082979D01*
X137175573Y-118065915D01*
X137240434Y-118052969D01*
X137276826Y-118045155D01*
X137282816Y-118043422D01*
X137292939Y-118023890D01*
X137314338Y-117976843D01*
X137344161Y-117909003D01*
X137379555Y-117827091D01*
X137417668Y-117737828D01*
X137455647Y-117647935D01*
X137490640Y-117564135D01*
X137519794Y-117493147D01*
X137540257Y-117441694D01*
X137549177Y-117416497D01*
X137549343Y-117415396D01*
X137539231Y-117395519D01*
X137510883Y-117349777D01*
X137467277Y-117282717D01*
X137411394Y-117198884D01*
X137346213Y-117102826D01*
X137308321Y-117047650D01*
X137239275Y-116946481D01*
X137177950Y-116854630D01*
X137127337Y-116776744D01*
X137090429Y-116717469D01*
X137070218Y-116681451D01*
X137067299Y-116673377D01*
X137079847Y-116654584D01*
X137114537Y-116614457D01*
X137166937Y-116557493D01*
X137232616Y-116488185D01*
X137307144Y-116411031D01*
X137386087Y-116330525D01*
X137465017Y-116251163D01*
X137539500Y-116177440D01*
X137605106Y-116113852D01*
X137657404Y-116064894D01*
X137691961Y-116035061D01*
X137703522Y-116027942D01*
X137722346Y-116037953D01*
X137767369Y-116066078D01*
X137834213Y-116109454D01*
X137918501Y-116165218D01*
X138015856Y-116230506D01*
X138089293Y-116280246D01*
X138460333Y-116532551D01*
X139078905Y-116277555D01*
X139162725Y-115832931D01*
X139246546Y-115388307D01*
X140171994Y-115388307D01*
X140255814Y-115832931D01*
G37*
D12*
X140255814Y-115832931D02*
X140339635Y-116277555D01*
X140648920Y-116405053D01*
X140958206Y-116532551D01*
X141329246Y-116280246D01*
X141433157Y-116209996D01*
X141527087Y-116147272D01*
X141606652Y-116094938D01*
X141667470Y-116055857D01*
X141705157Y-116032893D01*
X141715421Y-116027942D01*
X141733910Y-116040676D01*
X141773420Y-116075882D01*
X141829522Y-116129062D01*
X141897787Y-116195718D01*
X141973786Y-116271354D01*
X142053092Y-116351472D01*
X142131275Y-116431574D01*
X142203907Y-116507164D01*
X142266559Y-116573745D01*
X142314803Y-116626818D01*
X142344210Y-116661887D01*
X142351241Y-116673623D01*
X142341123Y-116695260D01*
X142312759Y-116742662D01*
X142269129Y-116811193D01*
X142213218Y-116896215D01*
X142148006Y-116993093D01*
X142110219Y-117048350D01*
X142041343Y-117149248D01*
X141980140Y-117240299D01*
X141929578Y-117316970D01*
X141892628Y-117374728D01*
X141872258Y-117409043D01*
X141869197Y-117416254D01*
X141876136Y-117436748D01*
X141895051Y-117484513D01*
X141923087Y-117552832D01*
X141957391Y-117634989D01*
X141995109Y-117724270D01*
X142033387Y-117813958D01*
X142069370Y-117897338D01*
X142100206Y-117967694D01*
X142123039Y-118018310D01*
X142135017Y-118042471D01*
X142135724Y-118043422D01*
X142154531Y-118048036D01*
X142204618Y-118058328D01*
X142280793Y-118073287D01*
X142377865Y-118091901D01*
X142490643Y-118113159D01*
X142556442Y-118125418D01*
X142676950Y-118148362D01*
X142785797Y-118170195D01*
X142877476Y-118189722D01*
X142946481Y-118205748D01*
X142987304Y-118217079D01*
X142995511Y-118220674D01*
X143003548Y-118245006D01*
X143010033Y-118299959D01*
X143014970Y-118379108D01*
X143018364Y-118476026D01*
X143020218Y-118584287D01*
X143020538Y-118697465D01*
X143019327Y-118809135D01*
X143016590Y-118912868D01*
X143012331Y-119002241D01*
X143006555Y-119070826D01*
X142999267Y-119112197D01*
X142994895Y-119120810D01*
X142968764Y-119131133D01*
X142913393Y-119145892D01*
X142836107Y-119163352D01*
X142744230Y-119181780D01*
X142712158Y-119187741D01*
X142557524Y-119216066D01*
X142435375Y-119238876D01*
X142341673Y-119257080D01*
X142272384Y-119271583D01*
X142223471Y-119283292D01*
X142190897Y-119293115D01*
X142170628Y-119301956D01*
X142158626Y-119310724D01*
X142156947Y-119312457D01*
X142140184Y-119340371D01*
X142114614Y-119394695D01*
X142082788Y-119468777D01*
X142047260Y-119555965D01*
X142010583Y-119649608D01*
X141975311Y-119743052D01*
X141943996Y-119829647D01*
X141919193Y-119902740D01*
X141903454Y-119955678D01*
X141899332Y-119981811D01*
X141899676Y-119982726D01*
X141913641Y-120004086D01*
X141945322Y-120051084D01*
X141991391Y-120118827D01*
X142048518Y-120202423D01*
X142113373Y-120296982D01*
X142131843Y-120323854D01*
X142197699Y-120421275D01*
X142255650Y-120510163D01*
X142302538Y-120585412D01*
X142335207Y-120641920D01*
X142350500Y-120674581D01*
X142351241Y-120678593D01*
X142338392Y-120699684D01*
X142302888Y-120741464D01*
X142249293Y-120799445D01*
X142182171Y-120869135D01*
X142106087Y-120946045D01*
X142025604Y-121025683D01*
X141945287Y-121103561D01*
X141869699Y-121175186D01*
X141803405Y-121236070D01*
X141750969Y-121281721D01*
X141716955Y-121307650D01*
X141707545Y-121311883D01*
X141685643Y-121301912D01*
X141640800Y-121275020D01*
X141580321Y-121235736D01*
X141533789Y-121204117D01*
X141449475Y-121146098D01*
X141349626Y-121077784D01*
X141249473Y-121009579D01*
X141195627Y-120973075D01*
X141013371Y-120849800D01*
X140860381Y-120932520D01*
X140790682Y-120968759D01*
X140731414Y-120996926D01*
X140691311Y-121012991D01*
X140681103Y-121015226D01*
X140668829Y-120998722D01*
X140644613Y-120952082D01*
X140610263Y-120879609D01*
X140567588Y-120785606D01*
X140518394Y-120674374D01*
X140464490Y-120550215D01*
X140407684Y-120417432D01*
X140349782Y-120280327D01*
X140292593Y-120143202D01*
X140237924Y-120010358D01*
X140187584Y-119886098D01*
X140143380Y-119774725D01*
X140107119Y-119680539D01*
X140080609Y-119607844D01*
X140065658Y-119560941D01*
X140063254Y-119544833D01*
X140082311Y-119524286D01*
X140124036Y-119490933D01*
X140179706Y-119451702D01*
X140184378Y-119448599D01*
X140328264Y-119333423D01*
X140444283Y-119199053D01*
X140531430Y-119049784D01*
X140588699Y-118889913D01*
X140615086Y-118723737D01*
X140609585Y-118555552D01*
X140571190Y-118389655D01*
X140498895Y-118230342D01*
X140477626Y-118195487D01*
X140366996Y-118054737D01*
X140236302Y-117941714D01*
X140090064Y-117857003D01*
X139932808Y-117801194D01*
X139769057Y-117774874D01*
X139603333Y-117778630D01*
X139440162Y-117813050D01*
X139284065Y-117878723D01*
X139139567Y-117976235D01*
X139094869Y-118015813D01*
X138981112Y-118139703D01*
X138898218Y-118270124D01*
X138841356Y-118416315D01*
X138809687Y-118561088D01*
X138801869Y-118723860D01*
X138827938Y-118887440D01*
X138885245Y-119046298D01*
X138971144Y-119194906D01*
X139082986Y-119327735D01*
X139218123Y-119439256D01*
X139235883Y-119451011D01*
X139292150Y-119489508D01*
X139334923Y-119522863D01*
X139355372Y-119544160D01*
X139355669Y-119544833D01*
X139351279Y-119567871D01*
X139333876Y-119620157D01*
X139305268Y-119697390D01*
X139267265Y-119795268D01*
X139221674Y-119909491D01*
X139170303Y-120035758D01*
X139114962Y-120169767D01*
X139057458Y-120307218D01*
X138999601Y-120443808D01*
X138943198Y-120575237D01*
X138890058Y-120697205D01*
X138841990Y-120805409D01*
X138800801Y-120895549D01*
X138768301Y-120963323D01*
X138746297Y-121004430D01*
X138737436Y-121015226D01*
X138710360Y-121006819D01*
X138659697Y-120984272D01*
X138594183Y-120951613D01*
X138558159Y-120932520D01*
X138405168Y-120849800D01*
X138222912Y-120973075D01*
X138129875Y-121036228D01*
X138028015Y-121105727D01*
X137932562Y-121171165D01*
X137884750Y-121204117D01*
X137817505Y-121249273D01*
X137760564Y-121285057D01*
X137721354Y-121306938D01*
X137708619Y-121311563D01*
X137690083Y-121299085D01*
X137649059Y-121264252D01*
X137589525Y-121210678D01*
X137515458Y-121141983D01*
X137430835Y-121061781D01*
X137377315Y-121010286D01*
X137283681Y-120918286D01*
X137202759Y-120835999D01*
X137137823Y-120766945D01*
X137092142Y-120714644D01*
X137068989Y-120682616D01*
X137066768Y-120676116D01*
X137077076Y-120651394D01*
X137105561Y-120601405D01*
X137149063Y-120531212D01*
X137204423Y-120445875D01*
X137268480Y-120350456D01*
X137286697Y-120323854D01*
X137353073Y-120227167D01*
X137412622Y-120140117D01*
X137462016Y-120067595D01*
X137497925Y-120014493D01*
X137517019Y-119985703D01*
X137518864Y-119982726D01*
X137516105Y-119959782D01*
X137501462Y-119909336D01*
X137477487Y-119838041D01*
X137446734Y-119752547D01*
X137411756Y-119659507D01*
X137375107Y-119565574D01*
X137339339Y-119477399D01*
X137307006Y-119401634D01*
X137280662Y-119344931D01*
X137262858Y-119313943D01*
X137261593Y-119312457D01*
X137250706Y-119303601D01*
X137232318Y-119294843D01*
X137202394Y-119285277D01*
X137156897Y-119273996D01*
X137091791Y-119260093D01*
X137003039Y-119242663D01*
X136886607Y-119220798D01*
X136738458Y-119193591D01*
X136706382Y-119187741D01*
X136611314Y-119169374D01*
X136528435Y-119151405D01*
X136465070Y-119135569D01*
X136428542Y-119123600D01*
X136423644Y-119120810D01*
X136415573Y-119096072D01*
X136409013Y-119040790D01*
X136403967Y-118961389D01*
X136400441Y-118864296D01*
X136398439Y-118755938D01*
X136397964Y-118642740D01*
X136399023Y-118531128D01*
X136401618Y-118427529D01*
X136405754Y-118338368D01*
X136411437Y-118270072D01*
X136418669Y-118229066D01*
X136423029Y-118220674D01*
X136447302Y-118212208D01*
X136502574Y-118198435D01*
X136583338Y-118180550D01*
X136684088Y-118159748D01*
X136799317Y-118137223D01*
X136862098Y-118125418D01*
X136981213Y-118103151D01*
X137087435Y-118082979D01*
X137175573Y-118065915D01*
X137240434Y-118052969D01*
X137276826Y-118045155D01*
X137282816Y-118043422D01*
X137292939Y-118023890D01*
X137314338Y-117976843D01*
X137344161Y-117909003D01*
X137379555Y-117827091D01*
X137417668Y-117737828D01*
X137455647Y-117647935D01*
X137490640Y-117564135D01*
X137519794Y-117493147D01*
X137540257Y-117441694D01*
X137549177Y-117416497D01*
X137549343Y-117415396D01*
X137539231Y-117395519D01*
X137510883Y-117349777D01*
X137467277Y-117282717D01*
X137411394Y-117198884D01*
X137346213Y-117102826D01*
X137308321Y-117047650D01*
X137239275Y-116946481D01*
X137177950Y-116854630D01*
X137127337Y-116776744D01*
X137090429Y-116717469D01*
X137070218Y-116681451D01*
X137067299Y-116673377D01*
X137079847Y-116654584D01*
X137114537Y-116614457D01*
X137166937Y-116557493D01*
X137232616Y-116488185D01*
X137307144Y-116411031D01*
X137386087Y-116330525D01*
X137465017Y-116251163D01*
X137539500Y-116177440D01*
X137605106Y-116113852D01*
X137657404Y-116064894D01*
X137691961Y-116035061D01*
X137703522Y-116027942D01*
X137722346Y-116037953D01*
X137767369Y-116066078D01*
X137834213Y-116109454D01*
X137918501Y-116165218D01*
X138015856Y-116230506D01*
X138089293Y-116280246D01*
X138460333Y-116532551D01*
X139078905Y-116277555D01*
X139162725Y-115832931D01*
X139246546Y-115388307D01*
X140171994Y-115388307D01*
X140255814Y-115832931D01*
D11*
%TO.C,J1*%
X184310000Y-120170000D02*
X186970000Y-120170000D01*
X184310000Y-120110000D02*
X184310000Y-120170000D01*
X184310000Y-118840000D02*
X184310000Y-117510000D01*
X186970000Y-120110000D02*
X186970000Y-120170000D01*
X184310000Y-120110000D02*
X186970000Y-120110000D01*
X184310000Y-117510000D02*
X185640000Y-117510000D01*
%TD*%
M02*
