<?xml version="1.0" standalone="no"?>
 <!DOCTYPE svg PUBLIC "-//W3C//DTD SVG 1.1//EN" 
 "http://www.w3.org/Graphics/SVG/1.1/DTD/svg11.dtd"> 
<svg
  xmlns:svg="http://www.w3.org/2000/svg"
  xmlns="http://www.w3.org/2000/svg"
  xmlns:xlink="http://www.w3.org/1999/xlink"
  version="1.1"
  width="29.700220cm" height="21.000720cm" viewBox="0 0 116930 82680">
<title>SVG Picture created as a06-NPTH-drl_map.svg date 2022/10/29 18:42:06 </title>
  <desc>Picture generated by PCBNEW </desc>
<g style="fill:#000000; fill-opacity:1.000000;stroke:#000000; stroke-opacity:1.000000;
stroke-linecap:round; stroke-linejoin:round;"
 transform="translate(0 0) scale(1 1)">
</g>
<g style="fill:#000000; fill-opacity:0.0; 
stroke:#000000; stroke-width:0.000000; stroke-opacity:1; 
stroke-linecap:round; stroke-linejoin:round;">
</g>
<g style="fill:#000000; fill-opacity:0.0; 
stroke:#000000; stroke-width:78.607560; stroke-opacity:1; 
stroke-linecap:round; stroke-linejoin:round;">
<path d="M23091.597920 9868.563610 A7860.755960 7860.755960 0.0 0 0 30952.353880 2007.807651" />
<path d="M30952 2007
L85977 2007
" />
<path d="M85977 47600
L30952 47600
" />
<path d="M85977.645598 2007.807651 A7860.755960 7860.755960 0.0 0 0 93838.401558 9868.563610" />
<path d="M93838.401558 39739.436257 A7860.755960 7860.755960 0.0 0 0 85977.645598 47600.192217" />
<path d="M30952.353880 47600.192217 A7860.755960 7860.755960 0.0 0 0 23091.597920 39739.436257" />
<path d="M93838 9868
L93838 39739
" />
<path d="M23091 9868
L23091 39739
" />
</g>
<g style="fill:#000000; fill-opacity:0.0; 
stroke:#000000; stroke-width:157.215119; stroke-opacity:1; 
stroke-linecap:round; stroke-linejoin:round;">
</g>
<g style="fill:#000000; fill-opacity:0.0; 
stroke:#000000; stroke-width:235.822679; stroke-opacity:1; 
stroke-linecap:round; stroke-linejoin:round;">
<path d="M25339 19631
L27698 21989
" />
<path d="M27698 19631
L25339 21989
" />
<path d="M25339 27618
L27698 29976
" />
<path d="M27698 27618
L25339 29976
" />
<path d="M25339 35604
L27698 37962
" />
<path d="M27698 35604
L25339 37962
" />
<path d="M25842 23624
L28201 25983
" />
<path d="M28201 23624
L25842 25983
" />
<path d="M26235 12226
L28594 14585
" />
<path d="M28594 12226
L26235 14585
" />
<path d="M33326 3658
L35684 6016
" />
<path d="M35684 3658
L33326 6016
" />
<path d="M33326 11645
L35684 14003
" />
<path d="M35684 11645
L33326 14003
" />
<path d="M33326 19631
L35684 21989
" />
<path d="M35684 19631
L33326 21989
" />
<path d="M33326 27618
L35684 29976
" />
<path d="M35684 27618
L33326 29976
" />
<path d="M33326 35604
L35684 37962
" />
<path d="M35684 35604
L33326 37962
" />
<path d="M33326 43591
L35684 45949
" />
<path d="M35684 43591
L33326 45949
" />
<path d="M39599 41704
L41957 44062
" />
<path d="M41957 41704
L39599 44062
" />
<path d="M41312 3658
L43671 6016
" />
<path d="M43671 3658
L41312 6016
" />
<path d="M41312 11645
L43671 14003
" />
<path d="M43671 11645
L41312 14003
" />
<path d="M41312 19631
L43671 21989
" />
<path d="M43671 19631
L41312 21989
" />
<path d="M41312 27618
L43671 29976
" />
<path d="M43671 27618
L41312 29976
" />
<path d="M41312 35604
L43671 37962
" />
<path d="M43671 35604
L41312 37962
" />
<path d="M49299 3658
L51657 6016
" />
<path d="M51657 3658
L49299 6016
" />
<path d="M49299 11645
L51657 14003
" />
<path d="M51657 11645
L49299 14003
" />
<path d="M49299 19631
L51657 21989
" />
<path d="M51657 19631
L49299 21989
" />
<path d="M49299 27618
L51657 29976
" />
<path d="M51657 27618
L49299 29976
" />
<path d="M49299 35604
L51657 37962
" />
<path d="M51657 35604
L49299 37962
" />
<path d="M49299 43591
L51657 45949
" />
<path d="M51657 43591
L49299 45949
" />
<path d="M57285 3658
L59644 6016
" />
<path d="M59644 3658
L57285 6016
" />
<path d="M57285 11645
L59644 14003
" />
<path d="M59644 11645
L57285 14003
" />
<path d="M57285 19631
L59644 21989
" />
<path d="M59644 19631
L57285 21989
" />
<path d="M57285 27618
L59644 29976
" />
<path d="M59644 27618
L57285 29976
" />
<path d="M57285 35604
L59644 37962
" />
<path d="M59644 35604
L57285 37962
" />
<path d="M57285 43591
L59644 45949
" />
<path d="M59644 43591
L57285 45949
" />
<path d="M65272 3658
L67630 6016
" />
<path d="M67630 3658
L65272 6016
" />
<path d="M65272 11645
L67630 14003
" />
<path d="M67630 11645
L65272 14003
" />
<path d="M65272 19631
L67630 21989
" />
<path d="M67630 19631
L65272 21989
" />
<path d="M65272 27618
L67630 29976
" />
<path d="M67630 27618
L65272 29976
" />
<path d="M65272 35604
L67630 37962
" />
<path d="M67630 35604
L65272 37962
" />
<path d="M65272 43591
L67630 45949
" />
<path d="M67630 43591
L65272 45949
" />
<path d="M73258 11645
L75617 14003
" />
<path d="M75617 11645
L73258 14003
" />
<path d="M73258 19631
L75617 21989
" />
<path d="M75617 19631
L73258 21989
" />
<path d="M73258 27618
L75617 29976
" />
<path d="M75617 27618
L73258 29976
" />
<path d="M73258 35604
L75617 37962
" />
<path d="M75617 35604
L73258 37962
" />
<path d="M73793 8492
L76151 10851
" />
<path d="M76151 8492
L73793 10851
" />
<path d="M74972 5545
L77330 7903
" />
<path d="M77330 5545
L74972 7903
" />
<path d="M74972 41704
L77330 44062
" />
<path d="M77330 41704
L74972 44062
" />
<path d="M81245 3658
L83603 6016
" />
<path d="M83603 3658
L81245 6016
" />
<path d="M81245 11645
L83603 14003
" />
<path d="M83603 11645
L81245 14003
" />
<path d="M81245 19631
L83603 21989
" />
<path d="M83603 19631
L81245 21989
" />
<path d="M81245 27618
L83603 29976
" />
<path d="M83603 27618
L81245 29976
" />
<path d="M81245 35604
L83603 37962
" />
<path d="M83603 35604
L81245 37962
" />
<path d="M81245 43591
L83603 45949
" />
<path d="M83603 43591
L81245 45949
" />
<path d="M88728 23624
L91087 25983
" />
<path d="M91087 23624
L88728 25983
" />
<path d="M89231 11645
L91590 14003
" />
<path d="M91590 11645
L89231 14003
" />
<path d="M89231 19631
L91590 21989
" />
<path d="M91590 19631
L89231 21989
" />
<path d="M89231 27618
L91590 29976
" />
<path d="M91590 27618
L89231 29976
" />
<path d="M89231 35604
L91590 37962
" />
<path d="M91590 35604
L89231 37962
" />
</g>
<g style="fill:#000000; fill-opacity:0.0; 
stroke:#000000; stroke-width:157.215119; stroke-opacity:1; 
stroke-linecap:round; stroke-linejoin:round;">
</g>
<g style="fill:#000000; fill-opacity:0.0; 
stroke:#000000; stroke-width:78.740406; stroke-opacity:1; 
stroke-linecap:round; stroke-linejoin:round;">
<text x="23839.695846" y="48899.338568"
textLength="5853.019842" font-size="1049.868417" lengthAdjust="spacingAndGlyphs"
text-anchor="start" opacity="0">Drill Map:</text>
<g class="stroked-text"><desc>Drill Map:</desc>
<path d="M24066 48861
L24066 48074
L24254 48074
L24366 48111
L24441 48186
L24478 48261
L24516 48411
L24516 48524
L24478 48674
L24441 48749
L24366 48824
L24254 48861
L24066 48861
" />
<path d="M24853 48861
L24853 48336
" />
<path d="M24853 48486
L24891 48411
L24928 48374
L25003 48336
L25078 48336
" />
<path d="M25341 48861
L25341 48336
" />
<path d="M25341 48074
L25303 48111
L25341 48149
L25378 48111
L25341 48074
L25341 48149
" />
<path d="M25828 48861
L25753 48824
L25716 48749
L25716 48074
" />
<path d="M26241 48861
L26166 48824
L26128 48749
L26128 48074
" />
<path d="M27141 48861
L27141 48074
L27403 48636
L27666 48074
L27666 48861
" />
<path d="M28378 48861
L28378 48449
L28341 48374
L28266 48336
L28116 48336
L28041 48374
" />
<path d="M28378 48824
L28303 48861
L28116 48861
L28041 48824
L28003 48749
L28003 48674
L28041 48599
L28116 48561
L28303 48561
L28378 48524
" />
<path d="M28753 48336
L28753 49124
" />
<path d="M28753 48374
L28828 48336
L28978 48336
L29053 48374
L29090 48411
L29128 48486
L29128 48711
L29090 48786
L29053 48824
L28978 48861
L28828 48861
L28753 48824
" />
<path d="M29465 48786
L29503 48824
L29465 48861
L29428 48824
L29465 48786
L29465 48861
" />
<path d="M29465 48374
L29503 48411
L29465 48449
L29428 48411
L29465 48374
L29465 48449
" />
</g></g>
<g style="fill:#000000; fill-opacity:0.0; 
stroke:#000000; stroke-width:78.739620; stroke-opacity:1; 
stroke-linecap:round; stroke-linejoin:round;">
<path d="M22264 49765
L23052 50552
" />
<path d="M23052 49765
L22264 50552
" />
</g>
<g style="fill:#000000; fill-opacity:0.0; 
stroke:#000000; stroke-width:157.215119; stroke-opacity:1; 
stroke-linecap:round; stroke-linejoin:round;">
</g>
<g style="fill:#000000; fill-opacity:0.0; 
stroke:#000000; stroke-width:78.740406; stroke-opacity:1; 
stroke-linecap:round; stroke-linejoin:round;">
<text x="23839.695846" y="50552.882386"
textLength="27000.380045" font-size="1049.868417" lengthAdjust="spacingAndGlyphs"
text-anchor="start" opacity="0">3.000mm / 0.1181" (53 holes) (not plated)</text>
<g class="stroked-text"><desc>3.000mm / 0.1181" (53 holes) (not plated)</desc>
<path d="M23991 49727
L24478 49727
L24216 50027
L24329 50027
L24403 50065
L24441 50102
L24478 50177
L24478 50365
L24441 50440
L24403 50477
L24329 50515
L24104 50515
L24029 50477
L23991 50440
" />
<path d="M24816 50440
L24853 50477
L24816 50515
L24778 50477
L24816 50440
L24816 50515
" />
<path d="M25341 49727
L25416 49727
L25491 49765
L25528 49802
L25566 49877
L25603 50027
L25603 50215
L25566 50365
L25528 50440
L25491 50477
L25416 50515
L25341 50515
L25266 50477
L25228 50440
L25191 50365
L25153 50215
L25153 50027
L25191 49877
L25228 49802
L25266 49765
L25341 49727
" />
<path d="M26091 49727
L26166 49727
L26241 49765
L26278 49802
L26316 49877
L26353 50027
L26353 50215
L26316 50365
L26278 50440
L26241 50477
L26166 50515
L26091 50515
L26016 50477
L25978 50440
L25941 50365
L25903 50215
L25903 50027
L25941 49877
L25978 49802
L26016 49765
L26091 49727
" />
<path d="M26841 49727
L26916 49727
L26991 49765
L27028 49802
L27066 49877
L27103 50027
L27103 50215
L27066 50365
L27028 50440
L26991 50477
L26916 50515
L26841 50515
L26766 50477
L26728 50440
L26691 50365
L26653 50215
L26653 50027
L26691 49877
L26728 49802
L26766 49765
L26841 49727
" />
<path d="M27441 50515
L27441 49990
" />
<path d="M27441 50065
L27478 50027
L27553 49990
L27666 49990
L27741 50027
L27778 50102
L27778 50515
" />
<path d="M27778 50102
L27816 50027
L27891 49990
L28003 49990
L28078 50027
L28116 50102
L28116 50515
" />
<path d="M28490 50515
L28490 49990
" />
<path d="M28490 50065
L28528 50027
L28603 49990
L28715 49990
L28790 50027
L28828 50102
L28828 50515
" />
<path d="M28828 50102
L28865 50027
L28940 49990
L29053 49990
L29128 50027
L29165 50102
L29165 50515
" />
<path d="M30703 49690
L30028 50702
" />
<path d="M31715 49727
L31790 49727
L31865 49765
L31903 49802
L31940 49877
L31978 50027
L31978 50215
L31940 50365
L31903 50440
L31865 50477
L31790 50515
L31715 50515
L31640 50477
L31603 50440
L31565 50365
L31528 50215
L31528 50027
L31565 49877
L31603 49802
L31640 49765
L31715 49727
" />
<path d="M32315 50440
L32353 50477
L32315 50515
L32278 50477
L32315 50440
L32315 50515
" />
<path d="M33102 50515
L32652 50515
" />
<path d="M32877 50515
L32877 49727
L32802 49840
L32727 49915
L32652 49952
" />
<path d="M33852 50515
L33402 50515
" />
<path d="M33627 50515
L33627 49727
L33552 49840
L33477 49915
L33402 49952
" />
<path d="M34302 50065
L34227 50027
L34190 49990
L34152 49915
L34152 49877
L34190 49802
L34227 49765
L34302 49727
L34452 49727
L34527 49765
L34565 49802
L34602 49877
L34602 49915
L34565 49990
L34527 50027
L34452 50065
L34302 50065
L34227 50102
L34190 50140
L34152 50215
L34152 50365
L34190 50440
L34227 50477
L34302 50515
L34452 50515
L34527 50477
L34565 50440
L34602 50365
L34602 50215
L34565 50140
L34527 50102
L34452 50065
" />
<path d="M35352 50515
L34902 50515
" />
<path d="M35127 50515
L35127 49727
L35052 49840
L34977 49915
L34902 49952
" />
<path d="M35652 49727
L35652 49877
" />
<path d="M35952 49727
L35952 49877
" />
<path d="M37114 50815
L37077 50777
L37002 50665
L36964 50590
L36927 50477
L36889 50290
L36889 50140
L36927 49952
L36964 49840
L37002 49765
L37077 49652
L37114 49615
" />
<path d="M37789 49727
L37414 49727
L37377 50102
L37414 50065
L37489 50027
L37677 50027
L37752 50065
L37789 50102
L37827 50177
L37827 50365
L37789 50440
L37752 50477
L37677 50515
L37489 50515
L37414 50477
L37377 50440
" />
<path d="M38089 49727
L38577 49727
L38314 50027
L38427 50027
L38502 50065
L38539 50102
L38577 50177
L38577 50365
L38539 50440
L38502 50477
L38427 50515
L38202 50515
L38127 50477
L38089 50440
" />
<path d="M39514 50515
L39514 49727
" />
<path d="M39852 50515
L39852 50102
L39814 50027
L39739 49990
L39627 49990
L39552 50027
L39514 50065
" />
<path d="M40339 50515
L40264 50477
L40227 50440
L40189 50365
L40189 50140
L40227 50065
L40264 50027
L40339 49990
L40451 49990
L40526 50027
L40564 50065
L40601 50140
L40601 50365
L40564 50440
L40526 50477
L40451 50515
L40339 50515
" />
<path d="M41051 50515
L40976 50477
L40939 50402
L40939 49727
" />
<path d="M41651 50477
L41576 50515
L41426 50515
L41351 50477
L41314 50402
L41314 50102
L41351 50027
L41426 49990
L41576 49990
L41651 50027
L41689 50102
L41689 50177
L41314 50252
" />
<path d="M41989 50477
L42064 50515
L42214 50515
L42289 50477
L42326 50402
L42326 50365
L42289 50290
L42214 50252
L42101 50252
L42026 50215
L41989 50140
L41989 50102
L42026 50027
L42101 49990
L42214 49990
L42289 50027
" />
<path d="M42589 50815
L42626 50777
L42701 50665
L42739 50590
L42776 50477
L42814 50290
L42814 50140
L42776 49952
L42739 49840
L42701 49765
L42626 49652
L42589 49615
" />
<path d="M44014 50815
L43976 50777
L43901 50665
L43864 50590
L43826 50477
L43789 50290
L43789 50140
L43826 49952
L43864 49840
L43901 49765
L43976 49652
L44014 49615
" />
<path d="M44314 49990
L44314 50515
" />
<path d="M44314 50065
L44351 50027
L44426 49990
L44538 49990
L44613 50027
L44651 50102
L44651 50515
" />
<path d="M45138 50515
L45063 50477
L45026 50440
L44988 50365
L44988 50140
L45026 50065
L45063 50027
L45138 49990
L45251 49990
L45326 50027
L45363 50065
L45401 50140
L45401 50365
L45363 50440
L45326 50477
L45251 50515
L45138 50515
" />
<path d="M45626 49990
L45926 49990
" />
<path d="M45738 49727
L45738 50402
L45776 50477
L45851 50515
L45926 50515
" />
<path d="M46788 49990
L46788 50777
" />
<path d="M46788 50027
L46863 49990
L47013 49990
L47088 50027
L47126 50065
L47163 50140
L47163 50365
L47126 50440
L47088 50477
L47013 50515
L46863 50515
L46788 50477
" />
<path d="M47613 50515
L47538 50477
L47501 50402
L47501 49727
" />
<path d="M48251 50515
L48251 50102
L48213 50027
L48138 49990
L47988 49990
L47913 50027
" />
<path d="M48251 50477
L48176 50515
L47988 50515
L47913 50477
L47876 50402
L47876 50327
L47913 50252
L47988 50215
L48176 50215
L48251 50177
" />
<path d="M48513 49990
L48813 49990
" />
<path d="M48625 49727
L48625 50402
L48663 50477
L48738 50515
L48813 50515
" />
<path d="M49375 50477
L49300 50515
L49150 50515
L49075 50477
L49038 50402
L49038 50102
L49075 50027
L49150 49990
L49300 49990
L49375 50027
L49413 50102
L49413 50177
L49038 50252
" />
<path d="M50088 50515
L50088 49727
" />
<path d="M50088 50477
L50013 50515
L49863 50515
L49788 50477
L49750 50440
L49713 50365
L49713 50140
L49750 50065
L49788 50027
L49863 49990
L50013 49990
L50088 50027
" />
<path d="M50388 50815
L50425 50777
L50500 50665
L50538 50590
L50575 50477
L50613 50290
L50613 50140
L50575 49952
L50538 49840
L50500 49765
L50425 49652
L50388 49615
" />
</g></g> 
</svg>
