%TF.GenerationSoftware,KiCad,Pcbnew,6.0.7-f9a2dced07~116~ubuntu20.04.1*%
%TF.CreationDate,2022-09-28T21:06:17-05:00*%
%TF.ProjectId,a06,6130362e-6b69-4636-9164-5f7063625858,rev?*%
%TF.SameCoordinates,Original*%
%TF.FileFunction,Soldermask,Top*%
%TF.FilePolarity,Negative*%
%FSLAX46Y46*%
G04 Gerber Fmt 4.6, Leading zero omitted, Abs format (unit mm)*
G04 Created by KiCad (PCBNEW 6.0.7-f9a2dced07~116~ubuntu20.04.1) date 2022-09-28 21:06:17*
%MOMM*%
%LPD*%
G01*
G04 APERTURE LIST*
%ADD10C,3.000000*%
%ADD11R,1.700000X1.700000*%
G04 APERTURE END LIST*
D10*
%TO.C,REF\u002A\u002A18*%
X104360000Y-123920000D03*
%TD*%
%TO.C,REF\u002A\u002A24*%
X165320000Y-123920000D03*
%TD*%
%TO.C,REF\u002A\u002A21*%
X134840000Y-123920000D03*
%TD*%
%TO.C,REF\u002A\u002A37*%
X114520000Y-144240000D03*
%TD*%
%TO.C,REF\u002A\u002A15*%
X165320000Y-113760000D03*
%TD*%
%TO.C,REF\u002A\u002A50*%
X155160000Y-154400000D03*
%TD*%
%TO.C,REF\u002A\u002A44*%
X185640000Y-144240000D03*
%TD*%
%TO.C,REF\u002A\u002A29*%
X124680000Y-134080000D03*
%TD*%
%TO.C,REF\u002A\u002A28*%
X114520000Y-134080000D03*
%TD*%
%TO.C,REF\u002A\u002A36*%
X104360000Y-144240000D03*
%TD*%
%TO.C,REF\u002A\u002A23*%
X155160000Y-123920000D03*
%TD*%
%TO.C,REF\u002A\u002A*%
X167500000Y-106000000D03*
%TD*%
D11*
%TO.C,J2*%
X104360000Y-139160000D03*
%TD*%
D10*
%TO.C,REF\u002A\u002A3*%
X134840000Y-103600000D03*
%TD*%
%TO.C,REF\u002A\u002A34*%
X175480000Y-134080000D03*
%TD*%
%TO.C,REF\u002A\u002A48*%
X134840000Y-154400000D03*
%TD*%
%TO.C,REF\u002A\u002A30*%
X134840000Y-134080000D03*
%TD*%
%TO.C,REF\u002A\u002A*%
X105000000Y-129000000D03*
%TD*%
%TO.C,REF\u002A\u002A16*%
X175480000Y-113760000D03*
%TD*%
%TO.C,REF\u002A\u002A*%
X185000000Y-129000000D03*
%TD*%
%TO.C,REF\u002A\u002A12*%
X134840000Y-113760000D03*
%TD*%
%TO.C,REF\u002A\u002A2*%
X124680000Y-103600000D03*
%TD*%
%TO.C,REF\u002A\u002A22*%
X145000000Y-123920000D03*
%TD*%
%TO.C,REF\u002A\u002A5*%
X155160000Y-103600000D03*
%TD*%
%TO.C,REF\u002A\u002A43*%
X175480000Y-144240000D03*
%TD*%
%TO.C,REF\u002A\u002A11*%
X124680000Y-113760000D03*
%TD*%
%TO.C,REF\u002A\u002A4*%
X145000000Y-103600000D03*
%TD*%
%TO.C,REF\u002A\u002A20*%
X124680000Y-123920000D03*
%TD*%
%TO.C,REF\u002A\u002A49*%
X145000000Y-154400000D03*
%TD*%
%TO.C,REF\u002A\u002A52*%
X175480000Y-154400000D03*
%TD*%
%TO.C,REF\u002A\u002A31*%
X145000000Y-134080000D03*
%TD*%
%TO.C,REF\u002A\u002A27*%
X104360000Y-134080000D03*
%TD*%
%TO.C,REF\u002A\u002A35*%
X185640000Y-134080000D03*
%TD*%
%TO.C,REF\u002A\u002A17*%
X185640000Y-113760000D03*
%TD*%
%TO.C,REF\u002A\u002A41*%
X155160000Y-144240000D03*
%TD*%
%TO.C,REF\u002A\u002A*%
X166000000Y-109750000D03*
%TD*%
%TO.C,REF\u002A\u002A*%
X167500000Y-152000000D03*
%TD*%
%TO.C,REF\u002A\u002A33*%
X165320000Y-134080000D03*
%TD*%
%TO.C,REF\u002A\u002A19*%
X114520000Y-123920000D03*
%TD*%
%TO.C,REF\u002A\u002A26*%
X185640000Y-123920000D03*
%TD*%
%TO.C,REF\u002A\u002A40*%
X145000000Y-144240000D03*
%TD*%
%TO.C,REF\u002A\u002A1*%
X114520000Y-103600000D03*
%TD*%
%TO.C,REF\u002A\u002A13*%
X145000000Y-113760000D03*
%TD*%
%TO.C,REF\u002A\u002A*%
X105500000Y-114500000D03*
%TD*%
%TO.C,REF\u002A\u002A14*%
X155160000Y-113760000D03*
%TD*%
D11*
%TO.C,J1*%
X185640000Y-118840000D03*
%TD*%
D10*
%TO.C,REF\u002A\u002A46*%
X114520000Y-154400000D03*
%TD*%
%TO.C,REF\u002A\u002A25*%
X175480000Y-123920000D03*
%TD*%
%TO.C,REF\u002A\u002A38*%
X124680000Y-144240000D03*
%TD*%
%TO.C,REF\u002A\u002A*%
X122500000Y-152000000D03*
%TD*%
%TO.C,REF\u002A\u002A10*%
X114520000Y-113760000D03*
%TD*%
%TO.C,REF\u002A\u002A42*%
X165320000Y-144240000D03*
%TD*%
%TO.C,REF\u002A\u002A39*%
X134840000Y-144240000D03*
%TD*%
%TO.C,REF\u002A\u002A32*%
X155160000Y-134080000D03*
%TD*%
%TO.C,REF\u002A\u002A7*%
X175480000Y-103600000D03*
%TD*%
M02*
