M48
; DRILL file {KiCad 5.1.5-52549c5~86~ubuntu18.04.1} date lun 05 oct 2020 00:10:28 -05
; FORMAT={-:-/ absolute / metric / decimal}
; #@! TF.CreationDate,2020-10-05T00:10:28-05:00
; #@! TF.GenerationSoftware,Kicad,Pcbnew,5.1.5-52549c5~86~ubuntu18.04.1
; #@! TF.FileFunction,Plated,1,2,PTH
FMAT,2
METRIC
T1C1.001
T2C1.300
%
G90
G05
T1
X96.505Y-121.016
X88.885Y-67.676
X96.505Y-49.896
X88.885Y-85.456
X58.405Y-103.236
X126.985Y-85.456
X96.505Y-67.676
X96.505Y-85.456
X58.405Y-85.456
X96.505Y-103.236
X58.405Y-49.896
X88.885Y-49.896
X126.985Y-49.896
X58.405Y-67.676
X88.885Y-103.236
X126.985Y-121.016
X58.405Y-121.016
X88.885Y-121.016
X126.985Y-103.236
X126.985Y-67.676
T2
X63.645Y-45.441
X68.645Y-45.441
X73.645Y-45.441
X78.645Y-45.441
X83.645Y-45.441
X101.745Y-72.131
X106.745Y-72.131
X111.745Y-72.131
X116.745Y-72.131
X121.745Y-72.131
X63.645Y-107.691
X68.645Y-107.691
X73.645Y-107.691
X78.645Y-107.691
X83.645Y-107.691
X101.745Y-98.781
X106.745Y-98.781
X111.745Y-98.781
X116.745Y-98.781
X121.745Y-98.781
X63.645Y-54.351
X68.645Y-54.351
X73.645Y-54.351
X78.645Y-54.351
X83.645Y-54.351
X101.745Y-63.221
X106.745Y-63.221
X111.745Y-63.221
X116.745Y-63.221
X121.745Y-63.221
X63.645Y-72.131
X68.645Y-72.131
X73.645Y-72.131
X78.645Y-72.131
X83.645Y-72.131
X63.645Y-89.911
X68.645Y-89.911
X73.645Y-89.911
X78.645Y-89.911
X83.645Y-89.911
X101.745Y-125.471
X106.745Y-125.471
X111.745Y-125.471
X116.745Y-125.471
X121.745Y-125.471
X101.745Y-45.441
X106.745Y-45.441
X111.745Y-45.441
X116.745Y-45.441
X121.745Y-45.441
X101.745Y-54.351
X106.745Y-54.351
X111.745Y-54.351
X116.745Y-54.351
X121.745Y-54.351
X101.745Y-107.691
X106.745Y-107.691
X111.745Y-107.691
X116.745Y-107.691
X121.745Y-107.691
X101.745Y-116.561
X106.745Y-116.561
X111.745Y-116.561
X116.745Y-116.561
X121.745Y-116.561
X63.645Y-81.001
X68.645Y-81.001
X73.645Y-81.001
X78.645Y-81.001
X83.645Y-81.001
X101.745Y-81.001
X106.745Y-81.001
X111.745Y-81.001
X116.745Y-81.001
X121.745Y-81.001
X63.645Y-98.781
X68.645Y-98.781
X73.645Y-98.781
X78.645Y-98.781
X83.645Y-98.781
X63.645Y-125.471
X68.645Y-125.471
X73.645Y-125.471
X78.645Y-125.471
X83.645Y-125.471
X63.645Y-63.221
X68.645Y-63.221
X73.645Y-63.221
X78.645Y-63.221
X83.645Y-63.221
X101.745Y-89.911
X106.745Y-89.911
X111.745Y-89.911
X116.745Y-89.911
X121.745Y-89.911
X63.645Y-116.561
X68.645Y-116.561
X73.645Y-116.561
X78.645Y-116.561
X83.645Y-116.561
T0
M30
