G04 #@! TF.GenerationSoftware,KiCad,Pcbnew,5.1.5-52549c5~86~ubuntu18.04.1*
G04 #@! TF.CreationDate,2020-10-05T00:10:34-05:00*
G04 #@! TF.ProjectId,,58585858-5858-4585-9858-585858585858,rev?*
G04 #@! TF.SameCoordinates,Original*
G04 #@! TF.FileFunction,Legend,Bot*
G04 #@! TF.FilePolarity,Positive*
%FSLAX46Y46*%
G04 Gerber Fmt 4.6, Leading zero omitted, Abs format (unit mm)*
G04 Created by KiCad (PCBNEW 5.1.5-52549c5~86~ubuntu18.04.1) date 2020-10-05 00:10:34*
%MOMM*%
%LPD*%
G04 APERTURE LIST*
%ADD10C,0.150000*%
%ADD11C,0.010000*%
G04 APERTURE END LIST*
D10*
X129265371Y-112981123D02*
X129312990Y-113123980D01*
X129360609Y-113171600D01*
X129455847Y-113219219D01*
X129598704Y-113219219D01*
X129693942Y-113171600D01*
X129741561Y-113123980D01*
X129789180Y-113028742D01*
X129789180Y-112647790D01*
X128789180Y-112647790D01*
X128789180Y-112981123D01*
X128836800Y-113076361D01*
X128884419Y-113123980D01*
X128979657Y-113171600D01*
X129074895Y-113171600D01*
X129170133Y-113123980D01*
X129217752Y-113076361D01*
X129265371Y-112981123D01*
X129265371Y-112647790D01*
X128789180Y-113838266D02*
X128789180Y-113933504D01*
X128836800Y-114028742D01*
X128884419Y-114076361D01*
X128979657Y-114123980D01*
X129170133Y-114171600D01*
X129408228Y-114171600D01*
X129598704Y-114123980D01*
X129693942Y-114076361D01*
X129741561Y-114028742D01*
X129789180Y-113933504D01*
X129789180Y-113838266D01*
X129741561Y-113743028D01*
X129693942Y-113695409D01*
X129598704Y-113647790D01*
X129408228Y-113600171D01*
X129170133Y-113600171D01*
X128979657Y-113647790D01*
X128884419Y-113695409D01*
X128836800Y-113743028D01*
X128789180Y-113838266D01*
X128789180Y-115076361D02*
X128789180Y-114600171D01*
X129265371Y-114552552D01*
X129217752Y-114600171D01*
X129170133Y-114695409D01*
X129170133Y-114933504D01*
X129217752Y-115028742D01*
X129265371Y-115076361D01*
X129360609Y-115123980D01*
X129598704Y-115123980D01*
X129693942Y-115076361D01*
X129741561Y-115028742D01*
X129789180Y-114933504D01*
X129789180Y-114695409D01*
X129741561Y-114600171D01*
X129693942Y-114552552D01*
X129884419Y-115314457D02*
X129884419Y-116076361D01*
X129741561Y-116266838D02*
X129789180Y-116409695D01*
X129789180Y-116647790D01*
X129741561Y-116743028D01*
X129693942Y-116790647D01*
X129598704Y-116838266D01*
X129503466Y-116838266D01*
X129408228Y-116790647D01*
X129360609Y-116743028D01*
X129312990Y-116647790D01*
X129265371Y-116457314D01*
X129217752Y-116362076D01*
X129170133Y-116314457D01*
X129074895Y-116266838D01*
X128979657Y-116266838D01*
X128884419Y-116314457D01*
X128836800Y-116362076D01*
X128789180Y-116457314D01*
X128789180Y-116695409D01*
X128836800Y-116838266D01*
X128884419Y-117219219D02*
X128836800Y-117266838D01*
X128789180Y-117362076D01*
X128789180Y-117600171D01*
X128836800Y-117695409D01*
X128884419Y-117743028D01*
X128979657Y-117790647D01*
X129074895Y-117790647D01*
X129217752Y-117743028D01*
X129789180Y-117171600D01*
X129789180Y-117790647D01*
X129741561Y-118171600D02*
X129789180Y-118314457D01*
X129789180Y-118552552D01*
X129741561Y-118647790D01*
X129693942Y-118695409D01*
X129598704Y-118743028D01*
X129503466Y-118743028D01*
X129408228Y-118695409D01*
X129360609Y-118647790D01*
X129312990Y-118552552D01*
X129265371Y-118362076D01*
X129217752Y-118266838D01*
X129170133Y-118219219D01*
X129074895Y-118171600D01*
X128979657Y-118171600D01*
X128884419Y-118219219D01*
X128836800Y-118266838D01*
X128789180Y-118362076D01*
X128789180Y-118600171D01*
X128836800Y-118743028D01*
X91165371Y-112981123D02*
X91212990Y-113123980D01*
X91260609Y-113171600D01*
X91355847Y-113219219D01*
X91498704Y-113219219D01*
X91593942Y-113171600D01*
X91641561Y-113123980D01*
X91689180Y-113028742D01*
X91689180Y-112647790D01*
X90689180Y-112647790D01*
X90689180Y-112981123D01*
X90736800Y-113076361D01*
X90784419Y-113123980D01*
X90879657Y-113171600D01*
X90974895Y-113171600D01*
X91070133Y-113123980D01*
X91117752Y-113076361D01*
X91165371Y-112981123D01*
X91165371Y-112647790D01*
X90689180Y-113838266D02*
X90689180Y-113933504D01*
X90736800Y-114028742D01*
X90784419Y-114076361D01*
X90879657Y-114123980D01*
X91070133Y-114171600D01*
X91308228Y-114171600D01*
X91498704Y-114123980D01*
X91593942Y-114076361D01*
X91641561Y-114028742D01*
X91689180Y-113933504D01*
X91689180Y-113838266D01*
X91641561Y-113743028D01*
X91593942Y-113695409D01*
X91498704Y-113647790D01*
X91308228Y-113600171D01*
X91070133Y-113600171D01*
X90879657Y-113647790D01*
X90784419Y-113695409D01*
X90736800Y-113743028D01*
X90689180Y-113838266D01*
X90689180Y-115076361D02*
X90689180Y-114600171D01*
X91165371Y-114552552D01*
X91117752Y-114600171D01*
X91070133Y-114695409D01*
X91070133Y-114933504D01*
X91117752Y-115028742D01*
X91165371Y-115076361D01*
X91260609Y-115123980D01*
X91498704Y-115123980D01*
X91593942Y-115076361D01*
X91641561Y-115028742D01*
X91689180Y-114933504D01*
X91689180Y-114695409D01*
X91641561Y-114600171D01*
X91593942Y-114552552D01*
X91784419Y-115314457D02*
X91784419Y-116076361D01*
X91641561Y-116266838D02*
X91689180Y-116409695D01*
X91689180Y-116647790D01*
X91641561Y-116743028D01*
X91593942Y-116790647D01*
X91498704Y-116838266D01*
X91403466Y-116838266D01*
X91308228Y-116790647D01*
X91260609Y-116743028D01*
X91212990Y-116647790D01*
X91165371Y-116457314D01*
X91117752Y-116362076D01*
X91070133Y-116314457D01*
X90974895Y-116266838D01*
X90879657Y-116266838D01*
X90784419Y-116314457D01*
X90736800Y-116362076D01*
X90689180Y-116457314D01*
X90689180Y-116695409D01*
X90736800Y-116838266D01*
X90784419Y-117219219D02*
X90736800Y-117266838D01*
X90689180Y-117362076D01*
X90689180Y-117600171D01*
X90736800Y-117695409D01*
X90784419Y-117743028D01*
X90879657Y-117790647D01*
X90974895Y-117790647D01*
X91117752Y-117743028D01*
X91689180Y-117171600D01*
X91689180Y-117790647D01*
X91641561Y-118171600D02*
X91689180Y-118314457D01*
X91689180Y-118552552D01*
X91641561Y-118647790D01*
X91593942Y-118695409D01*
X91498704Y-118743028D01*
X91403466Y-118743028D01*
X91308228Y-118695409D01*
X91260609Y-118647790D01*
X91212990Y-118552552D01*
X91165371Y-118362076D01*
X91117752Y-118266838D01*
X91070133Y-118219219D01*
X90974895Y-118171600D01*
X90879657Y-118171600D01*
X90784419Y-118219219D01*
X90736800Y-118266838D01*
X90689180Y-118362076D01*
X90689180Y-118600171D01*
X90736800Y-118743028D01*
X129265371Y-95201123D02*
X129312990Y-95343980D01*
X129360609Y-95391600D01*
X129455847Y-95439219D01*
X129598704Y-95439219D01*
X129693942Y-95391600D01*
X129741561Y-95343980D01*
X129789180Y-95248742D01*
X129789180Y-94867790D01*
X128789180Y-94867790D01*
X128789180Y-95201123D01*
X128836800Y-95296361D01*
X128884419Y-95343980D01*
X128979657Y-95391600D01*
X129074895Y-95391600D01*
X129170133Y-95343980D01*
X129217752Y-95296361D01*
X129265371Y-95201123D01*
X129265371Y-94867790D01*
X128789180Y-96058266D02*
X128789180Y-96153504D01*
X128836800Y-96248742D01*
X128884419Y-96296361D01*
X128979657Y-96343980D01*
X129170133Y-96391600D01*
X129408228Y-96391600D01*
X129598704Y-96343980D01*
X129693942Y-96296361D01*
X129741561Y-96248742D01*
X129789180Y-96153504D01*
X129789180Y-96058266D01*
X129741561Y-95963028D01*
X129693942Y-95915409D01*
X129598704Y-95867790D01*
X129408228Y-95820171D01*
X129170133Y-95820171D01*
X128979657Y-95867790D01*
X128884419Y-95915409D01*
X128836800Y-95963028D01*
X128789180Y-96058266D01*
X128789180Y-97296361D02*
X128789180Y-96820171D01*
X129265371Y-96772552D01*
X129217752Y-96820171D01*
X129170133Y-96915409D01*
X129170133Y-97153504D01*
X129217752Y-97248742D01*
X129265371Y-97296361D01*
X129360609Y-97343980D01*
X129598704Y-97343980D01*
X129693942Y-97296361D01*
X129741561Y-97248742D01*
X129789180Y-97153504D01*
X129789180Y-96915409D01*
X129741561Y-96820171D01*
X129693942Y-96772552D01*
X129884419Y-97534457D02*
X129884419Y-98296361D01*
X129741561Y-98486838D02*
X129789180Y-98629695D01*
X129789180Y-98867790D01*
X129741561Y-98963028D01*
X129693942Y-99010647D01*
X129598704Y-99058266D01*
X129503466Y-99058266D01*
X129408228Y-99010647D01*
X129360609Y-98963028D01*
X129312990Y-98867790D01*
X129265371Y-98677314D01*
X129217752Y-98582076D01*
X129170133Y-98534457D01*
X129074895Y-98486838D01*
X128979657Y-98486838D01*
X128884419Y-98534457D01*
X128836800Y-98582076D01*
X128789180Y-98677314D01*
X128789180Y-98915409D01*
X128836800Y-99058266D01*
X128884419Y-99439219D02*
X128836800Y-99486838D01*
X128789180Y-99582076D01*
X128789180Y-99820171D01*
X128836800Y-99915409D01*
X128884419Y-99963028D01*
X128979657Y-100010647D01*
X129074895Y-100010647D01*
X129217752Y-99963028D01*
X129789180Y-99391600D01*
X129789180Y-100010647D01*
X129741561Y-100391600D02*
X129789180Y-100534457D01*
X129789180Y-100772552D01*
X129741561Y-100867790D01*
X129693942Y-100915409D01*
X129598704Y-100963028D01*
X129503466Y-100963028D01*
X129408228Y-100915409D01*
X129360609Y-100867790D01*
X129312990Y-100772552D01*
X129265371Y-100582076D01*
X129217752Y-100486838D01*
X129170133Y-100439219D01*
X129074895Y-100391600D01*
X128979657Y-100391600D01*
X128884419Y-100439219D01*
X128836800Y-100486838D01*
X128789180Y-100582076D01*
X128789180Y-100820171D01*
X128836800Y-100963028D01*
X91165371Y-95201123D02*
X91212990Y-95343980D01*
X91260609Y-95391600D01*
X91355847Y-95439219D01*
X91498704Y-95439219D01*
X91593942Y-95391600D01*
X91641561Y-95343980D01*
X91689180Y-95248742D01*
X91689180Y-94867790D01*
X90689180Y-94867790D01*
X90689180Y-95201123D01*
X90736800Y-95296361D01*
X90784419Y-95343980D01*
X90879657Y-95391600D01*
X90974895Y-95391600D01*
X91070133Y-95343980D01*
X91117752Y-95296361D01*
X91165371Y-95201123D01*
X91165371Y-94867790D01*
X90689180Y-96058266D02*
X90689180Y-96153504D01*
X90736800Y-96248742D01*
X90784419Y-96296361D01*
X90879657Y-96343980D01*
X91070133Y-96391600D01*
X91308228Y-96391600D01*
X91498704Y-96343980D01*
X91593942Y-96296361D01*
X91641561Y-96248742D01*
X91689180Y-96153504D01*
X91689180Y-96058266D01*
X91641561Y-95963028D01*
X91593942Y-95915409D01*
X91498704Y-95867790D01*
X91308228Y-95820171D01*
X91070133Y-95820171D01*
X90879657Y-95867790D01*
X90784419Y-95915409D01*
X90736800Y-95963028D01*
X90689180Y-96058266D01*
X90689180Y-97296361D02*
X90689180Y-96820171D01*
X91165371Y-96772552D01*
X91117752Y-96820171D01*
X91070133Y-96915409D01*
X91070133Y-97153504D01*
X91117752Y-97248742D01*
X91165371Y-97296361D01*
X91260609Y-97343980D01*
X91498704Y-97343980D01*
X91593942Y-97296361D01*
X91641561Y-97248742D01*
X91689180Y-97153504D01*
X91689180Y-96915409D01*
X91641561Y-96820171D01*
X91593942Y-96772552D01*
X91784419Y-97534457D02*
X91784419Y-98296361D01*
X91641561Y-98486838D02*
X91689180Y-98629695D01*
X91689180Y-98867790D01*
X91641561Y-98963028D01*
X91593942Y-99010647D01*
X91498704Y-99058266D01*
X91403466Y-99058266D01*
X91308228Y-99010647D01*
X91260609Y-98963028D01*
X91212990Y-98867790D01*
X91165371Y-98677314D01*
X91117752Y-98582076D01*
X91070133Y-98534457D01*
X90974895Y-98486838D01*
X90879657Y-98486838D01*
X90784419Y-98534457D01*
X90736800Y-98582076D01*
X90689180Y-98677314D01*
X90689180Y-98915409D01*
X90736800Y-99058266D01*
X90784419Y-99439219D02*
X90736800Y-99486838D01*
X90689180Y-99582076D01*
X90689180Y-99820171D01*
X90736800Y-99915409D01*
X90784419Y-99963028D01*
X90879657Y-100010647D01*
X90974895Y-100010647D01*
X91117752Y-99963028D01*
X91689180Y-99391600D01*
X91689180Y-100010647D01*
X91641561Y-100391600D02*
X91689180Y-100534457D01*
X91689180Y-100772552D01*
X91641561Y-100867790D01*
X91593942Y-100915409D01*
X91498704Y-100963028D01*
X91403466Y-100963028D01*
X91308228Y-100915409D01*
X91260609Y-100867790D01*
X91212990Y-100772552D01*
X91165371Y-100582076D01*
X91117752Y-100486838D01*
X91070133Y-100439219D01*
X90974895Y-100391600D01*
X90879657Y-100391600D01*
X90784419Y-100439219D01*
X90736800Y-100486838D01*
X90689180Y-100582076D01*
X90689180Y-100820171D01*
X90736800Y-100963028D01*
X129265371Y-77421123D02*
X129312990Y-77563980D01*
X129360609Y-77611600D01*
X129455847Y-77659219D01*
X129598704Y-77659219D01*
X129693942Y-77611600D01*
X129741561Y-77563980D01*
X129789180Y-77468742D01*
X129789180Y-77087790D01*
X128789180Y-77087790D01*
X128789180Y-77421123D01*
X128836800Y-77516361D01*
X128884419Y-77563980D01*
X128979657Y-77611600D01*
X129074895Y-77611600D01*
X129170133Y-77563980D01*
X129217752Y-77516361D01*
X129265371Y-77421123D01*
X129265371Y-77087790D01*
X128789180Y-78278266D02*
X128789180Y-78373504D01*
X128836800Y-78468742D01*
X128884419Y-78516361D01*
X128979657Y-78563980D01*
X129170133Y-78611600D01*
X129408228Y-78611600D01*
X129598704Y-78563980D01*
X129693942Y-78516361D01*
X129741561Y-78468742D01*
X129789180Y-78373504D01*
X129789180Y-78278266D01*
X129741561Y-78183028D01*
X129693942Y-78135409D01*
X129598704Y-78087790D01*
X129408228Y-78040171D01*
X129170133Y-78040171D01*
X128979657Y-78087790D01*
X128884419Y-78135409D01*
X128836800Y-78183028D01*
X128789180Y-78278266D01*
X128789180Y-79516361D02*
X128789180Y-79040171D01*
X129265371Y-78992552D01*
X129217752Y-79040171D01*
X129170133Y-79135409D01*
X129170133Y-79373504D01*
X129217752Y-79468742D01*
X129265371Y-79516361D01*
X129360609Y-79563980D01*
X129598704Y-79563980D01*
X129693942Y-79516361D01*
X129741561Y-79468742D01*
X129789180Y-79373504D01*
X129789180Y-79135409D01*
X129741561Y-79040171D01*
X129693942Y-78992552D01*
X129884419Y-79754457D02*
X129884419Y-80516361D01*
X129741561Y-80706838D02*
X129789180Y-80849695D01*
X129789180Y-81087790D01*
X129741561Y-81183028D01*
X129693942Y-81230647D01*
X129598704Y-81278266D01*
X129503466Y-81278266D01*
X129408228Y-81230647D01*
X129360609Y-81183028D01*
X129312990Y-81087790D01*
X129265371Y-80897314D01*
X129217752Y-80802076D01*
X129170133Y-80754457D01*
X129074895Y-80706838D01*
X128979657Y-80706838D01*
X128884419Y-80754457D01*
X128836800Y-80802076D01*
X128789180Y-80897314D01*
X128789180Y-81135409D01*
X128836800Y-81278266D01*
X128884419Y-81659219D02*
X128836800Y-81706838D01*
X128789180Y-81802076D01*
X128789180Y-82040171D01*
X128836800Y-82135409D01*
X128884419Y-82183028D01*
X128979657Y-82230647D01*
X129074895Y-82230647D01*
X129217752Y-82183028D01*
X129789180Y-81611600D01*
X129789180Y-82230647D01*
X129741561Y-82611600D02*
X129789180Y-82754457D01*
X129789180Y-82992552D01*
X129741561Y-83087790D01*
X129693942Y-83135409D01*
X129598704Y-83183028D01*
X129503466Y-83183028D01*
X129408228Y-83135409D01*
X129360609Y-83087790D01*
X129312990Y-82992552D01*
X129265371Y-82802076D01*
X129217752Y-82706838D01*
X129170133Y-82659219D01*
X129074895Y-82611600D01*
X128979657Y-82611600D01*
X128884419Y-82659219D01*
X128836800Y-82706838D01*
X128789180Y-82802076D01*
X128789180Y-83040171D01*
X128836800Y-83183028D01*
X91165371Y-77421123D02*
X91212990Y-77563980D01*
X91260609Y-77611600D01*
X91355847Y-77659219D01*
X91498704Y-77659219D01*
X91593942Y-77611600D01*
X91641561Y-77563980D01*
X91689180Y-77468742D01*
X91689180Y-77087790D01*
X90689180Y-77087790D01*
X90689180Y-77421123D01*
X90736800Y-77516361D01*
X90784419Y-77563980D01*
X90879657Y-77611600D01*
X90974895Y-77611600D01*
X91070133Y-77563980D01*
X91117752Y-77516361D01*
X91165371Y-77421123D01*
X91165371Y-77087790D01*
X90689180Y-78278266D02*
X90689180Y-78373504D01*
X90736800Y-78468742D01*
X90784419Y-78516361D01*
X90879657Y-78563980D01*
X91070133Y-78611600D01*
X91308228Y-78611600D01*
X91498704Y-78563980D01*
X91593942Y-78516361D01*
X91641561Y-78468742D01*
X91689180Y-78373504D01*
X91689180Y-78278266D01*
X91641561Y-78183028D01*
X91593942Y-78135409D01*
X91498704Y-78087790D01*
X91308228Y-78040171D01*
X91070133Y-78040171D01*
X90879657Y-78087790D01*
X90784419Y-78135409D01*
X90736800Y-78183028D01*
X90689180Y-78278266D01*
X90689180Y-79516361D02*
X90689180Y-79040171D01*
X91165371Y-78992552D01*
X91117752Y-79040171D01*
X91070133Y-79135409D01*
X91070133Y-79373504D01*
X91117752Y-79468742D01*
X91165371Y-79516361D01*
X91260609Y-79563980D01*
X91498704Y-79563980D01*
X91593942Y-79516361D01*
X91641561Y-79468742D01*
X91689180Y-79373504D01*
X91689180Y-79135409D01*
X91641561Y-79040171D01*
X91593942Y-78992552D01*
X91784419Y-79754457D02*
X91784419Y-80516361D01*
X91641561Y-80706838D02*
X91689180Y-80849695D01*
X91689180Y-81087790D01*
X91641561Y-81183028D01*
X91593942Y-81230647D01*
X91498704Y-81278266D01*
X91403466Y-81278266D01*
X91308228Y-81230647D01*
X91260609Y-81183028D01*
X91212990Y-81087790D01*
X91165371Y-80897314D01*
X91117752Y-80802076D01*
X91070133Y-80754457D01*
X90974895Y-80706838D01*
X90879657Y-80706838D01*
X90784419Y-80754457D01*
X90736800Y-80802076D01*
X90689180Y-80897314D01*
X90689180Y-81135409D01*
X90736800Y-81278266D01*
X90784419Y-81659219D02*
X90736800Y-81706838D01*
X90689180Y-81802076D01*
X90689180Y-82040171D01*
X90736800Y-82135409D01*
X90784419Y-82183028D01*
X90879657Y-82230647D01*
X90974895Y-82230647D01*
X91117752Y-82183028D01*
X91689180Y-81611600D01*
X91689180Y-82230647D01*
X91641561Y-82611600D02*
X91689180Y-82754457D01*
X91689180Y-82992552D01*
X91641561Y-83087790D01*
X91593942Y-83135409D01*
X91498704Y-83183028D01*
X91403466Y-83183028D01*
X91308228Y-83135409D01*
X91260609Y-83087790D01*
X91212990Y-82992552D01*
X91165371Y-82802076D01*
X91117752Y-82706838D01*
X91070133Y-82659219D01*
X90974895Y-82611600D01*
X90879657Y-82611600D01*
X90784419Y-82659219D01*
X90736800Y-82706838D01*
X90689180Y-82802076D01*
X90689180Y-83040171D01*
X90736800Y-83183028D01*
X129265371Y-59641123D02*
X129312990Y-59783980D01*
X129360609Y-59831600D01*
X129455847Y-59879219D01*
X129598704Y-59879219D01*
X129693942Y-59831600D01*
X129741561Y-59783980D01*
X129789180Y-59688742D01*
X129789180Y-59307790D01*
X128789180Y-59307790D01*
X128789180Y-59641123D01*
X128836800Y-59736361D01*
X128884419Y-59783980D01*
X128979657Y-59831600D01*
X129074895Y-59831600D01*
X129170133Y-59783980D01*
X129217752Y-59736361D01*
X129265371Y-59641123D01*
X129265371Y-59307790D01*
X128789180Y-60498266D02*
X128789180Y-60593504D01*
X128836800Y-60688742D01*
X128884419Y-60736361D01*
X128979657Y-60783980D01*
X129170133Y-60831600D01*
X129408228Y-60831600D01*
X129598704Y-60783980D01*
X129693942Y-60736361D01*
X129741561Y-60688742D01*
X129789180Y-60593504D01*
X129789180Y-60498266D01*
X129741561Y-60403028D01*
X129693942Y-60355409D01*
X129598704Y-60307790D01*
X129408228Y-60260171D01*
X129170133Y-60260171D01*
X128979657Y-60307790D01*
X128884419Y-60355409D01*
X128836800Y-60403028D01*
X128789180Y-60498266D01*
X128789180Y-61736361D02*
X128789180Y-61260171D01*
X129265371Y-61212552D01*
X129217752Y-61260171D01*
X129170133Y-61355409D01*
X129170133Y-61593504D01*
X129217752Y-61688742D01*
X129265371Y-61736361D01*
X129360609Y-61783980D01*
X129598704Y-61783980D01*
X129693942Y-61736361D01*
X129741561Y-61688742D01*
X129789180Y-61593504D01*
X129789180Y-61355409D01*
X129741561Y-61260171D01*
X129693942Y-61212552D01*
X129884419Y-61974457D02*
X129884419Y-62736361D01*
X129741561Y-62926838D02*
X129789180Y-63069695D01*
X129789180Y-63307790D01*
X129741561Y-63403028D01*
X129693942Y-63450647D01*
X129598704Y-63498266D01*
X129503466Y-63498266D01*
X129408228Y-63450647D01*
X129360609Y-63403028D01*
X129312990Y-63307790D01*
X129265371Y-63117314D01*
X129217752Y-63022076D01*
X129170133Y-62974457D01*
X129074895Y-62926838D01*
X128979657Y-62926838D01*
X128884419Y-62974457D01*
X128836800Y-63022076D01*
X128789180Y-63117314D01*
X128789180Y-63355409D01*
X128836800Y-63498266D01*
X128884419Y-63879219D02*
X128836800Y-63926838D01*
X128789180Y-64022076D01*
X128789180Y-64260171D01*
X128836800Y-64355409D01*
X128884419Y-64403028D01*
X128979657Y-64450647D01*
X129074895Y-64450647D01*
X129217752Y-64403028D01*
X129789180Y-63831600D01*
X129789180Y-64450647D01*
X129741561Y-64831600D02*
X129789180Y-64974457D01*
X129789180Y-65212552D01*
X129741561Y-65307790D01*
X129693942Y-65355409D01*
X129598704Y-65403028D01*
X129503466Y-65403028D01*
X129408228Y-65355409D01*
X129360609Y-65307790D01*
X129312990Y-65212552D01*
X129265371Y-65022076D01*
X129217752Y-64926838D01*
X129170133Y-64879219D01*
X129074895Y-64831600D01*
X128979657Y-64831600D01*
X128884419Y-64879219D01*
X128836800Y-64926838D01*
X128789180Y-65022076D01*
X128789180Y-65260171D01*
X128836800Y-65403028D01*
X91165371Y-59641123D02*
X91212990Y-59783980D01*
X91260609Y-59831600D01*
X91355847Y-59879219D01*
X91498704Y-59879219D01*
X91593942Y-59831600D01*
X91641561Y-59783980D01*
X91689180Y-59688742D01*
X91689180Y-59307790D01*
X90689180Y-59307790D01*
X90689180Y-59641123D01*
X90736800Y-59736361D01*
X90784419Y-59783980D01*
X90879657Y-59831600D01*
X90974895Y-59831600D01*
X91070133Y-59783980D01*
X91117752Y-59736361D01*
X91165371Y-59641123D01*
X91165371Y-59307790D01*
X90689180Y-60498266D02*
X90689180Y-60593504D01*
X90736800Y-60688742D01*
X90784419Y-60736361D01*
X90879657Y-60783980D01*
X91070133Y-60831600D01*
X91308228Y-60831600D01*
X91498704Y-60783980D01*
X91593942Y-60736361D01*
X91641561Y-60688742D01*
X91689180Y-60593504D01*
X91689180Y-60498266D01*
X91641561Y-60403028D01*
X91593942Y-60355409D01*
X91498704Y-60307790D01*
X91308228Y-60260171D01*
X91070133Y-60260171D01*
X90879657Y-60307790D01*
X90784419Y-60355409D01*
X90736800Y-60403028D01*
X90689180Y-60498266D01*
X90689180Y-61736361D02*
X90689180Y-61260171D01*
X91165371Y-61212552D01*
X91117752Y-61260171D01*
X91070133Y-61355409D01*
X91070133Y-61593504D01*
X91117752Y-61688742D01*
X91165371Y-61736361D01*
X91260609Y-61783980D01*
X91498704Y-61783980D01*
X91593942Y-61736361D01*
X91641561Y-61688742D01*
X91689180Y-61593504D01*
X91689180Y-61355409D01*
X91641561Y-61260171D01*
X91593942Y-61212552D01*
X91784419Y-61974457D02*
X91784419Y-62736361D01*
X91641561Y-62926838D02*
X91689180Y-63069695D01*
X91689180Y-63307790D01*
X91641561Y-63403028D01*
X91593942Y-63450647D01*
X91498704Y-63498266D01*
X91403466Y-63498266D01*
X91308228Y-63450647D01*
X91260609Y-63403028D01*
X91212990Y-63307790D01*
X91165371Y-63117314D01*
X91117752Y-63022076D01*
X91070133Y-62974457D01*
X90974895Y-62926838D01*
X90879657Y-62926838D01*
X90784419Y-62974457D01*
X90736800Y-63022076D01*
X90689180Y-63117314D01*
X90689180Y-63355409D01*
X90736800Y-63498266D01*
X90784419Y-63879219D02*
X90736800Y-63926838D01*
X90689180Y-64022076D01*
X90689180Y-64260171D01*
X90736800Y-64355409D01*
X90784419Y-64403028D01*
X90879657Y-64450647D01*
X90974895Y-64450647D01*
X91117752Y-64403028D01*
X91689180Y-63831600D01*
X91689180Y-64450647D01*
X91641561Y-64831600D02*
X91689180Y-64974457D01*
X91689180Y-65212552D01*
X91641561Y-65307790D01*
X91593942Y-65355409D01*
X91498704Y-65403028D01*
X91403466Y-65403028D01*
X91308228Y-65355409D01*
X91260609Y-65307790D01*
X91212990Y-65212552D01*
X91165371Y-65022076D01*
X91117752Y-64926838D01*
X91070133Y-64879219D01*
X90974895Y-64831600D01*
X90879657Y-64831600D01*
X90784419Y-64879219D01*
X90736800Y-64926838D01*
X90689180Y-65022076D01*
X90689180Y-65260171D01*
X90736800Y-65403028D01*
X129265371Y-41861123D02*
X129312990Y-42003980D01*
X129360609Y-42051600D01*
X129455847Y-42099219D01*
X129598704Y-42099219D01*
X129693942Y-42051600D01*
X129741561Y-42003980D01*
X129789180Y-41908742D01*
X129789180Y-41527790D01*
X128789180Y-41527790D01*
X128789180Y-41861123D01*
X128836800Y-41956361D01*
X128884419Y-42003980D01*
X128979657Y-42051600D01*
X129074895Y-42051600D01*
X129170133Y-42003980D01*
X129217752Y-41956361D01*
X129265371Y-41861123D01*
X129265371Y-41527790D01*
X128789180Y-42718266D02*
X128789180Y-42813504D01*
X128836800Y-42908742D01*
X128884419Y-42956361D01*
X128979657Y-43003980D01*
X129170133Y-43051600D01*
X129408228Y-43051600D01*
X129598704Y-43003980D01*
X129693942Y-42956361D01*
X129741561Y-42908742D01*
X129789180Y-42813504D01*
X129789180Y-42718266D01*
X129741561Y-42623028D01*
X129693942Y-42575409D01*
X129598704Y-42527790D01*
X129408228Y-42480171D01*
X129170133Y-42480171D01*
X128979657Y-42527790D01*
X128884419Y-42575409D01*
X128836800Y-42623028D01*
X128789180Y-42718266D01*
X128789180Y-43956361D02*
X128789180Y-43480171D01*
X129265371Y-43432552D01*
X129217752Y-43480171D01*
X129170133Y-43575409D01*
X129170133Y-43813504D01*
X129217752Y-43908742D01*
X129265371Y-43956361D01*
X129360609Y-44003980D01*
X129598704Y-44003980D01*
X129693942Y-43956361D01*
X129741561Y-43908742D01*
X129789180Y-43813504D01*
X129789180Y-43575409D01*
X129741561Y-43480171D01*
X129693942Y-43432552D01*
X129884419Y-44194457D02*
X129884419Y-44956361D01*
X129741561Y-45146838D02*
X129789180Y-45289695D01*
X129789180Y-45527790D01*
X129741561Y-45623028D01*
X129693942Y-45670647D01*
X129598704Y-45718266D01*
X129503466Y-45718266D01*
X129408228Y-45670647D01*
X129360609Y-45623028D01*
X129312990Y-45527790D01*
X129265371Y-45337314D01*
X129217752Y-45242076D01*
X129170133Y-45194457D01*
X129074895Y-45146838D01*
X128979657Y-45146838D01*
X128884419Y-45194457D01*
X128836800Y-45242076D01*
X128789180Y-45337314D01*
X128789180Y-45575409D01*
X128836800Y-45718266D01*
X128884419Y-46099219D02*
X128836800Y-46146838D01*
X128789180Y-46242076D01*
X128789180Y-46480171D01*
X128836800Y-46575409D01*
X128884419Y-46623028D01*
X128979657Y-46670647D01*
X129074895Y-46670647D01*
X129217752Y-46623028D01*
X129789180Y-46051600D01*
X129789180Y-46670647D01*
X129741561Y-47051600D02*
X129789180Y-47194457D01*
X129789180Y-47432552D01*
X129741561Y-47527790D01*
X129693942Y-47575409D01*
X129598704Y-47623028D01*
X129503466Y-47623028D01*
X129408228Y-47575409D01*
X129360609Y-47527790D01*
X129312990Y-47432552D01*
X129265371Y-47242076D01*
X129217752Y-47146838D01*
X129170133Y-47099219D01*
X129074895Y-47051600D01*
X128979657Y-47051600D01*
X128884419Y-47099219D01*
X128836800Y-47146838D01*
X128789180Y-47242076D01*
X128789180Y-47480171D01*
X128836800Y-47623028D01*
X91165371Y-41861123D02*
X91212990Y-42003980D01*
X91260609Y-42051600D01*
X91355847Y-42099219D01*
X91498704Y-42099219D01*
X91593942Y-42051600D01*
X91641561Y-42003980D01*
X91689180Y-41908742D01*
X91689180Y-41527790D01*
X90689180Y-41527790D01*
X90689180Y-41861123D01*
X90736800Y-41956361D01*
X90784419Y-42003980D01*
X90879657Y-42051600D01*
X90974895Y-42051600D01*
X91070133Y-42003980D01*
X91117752Y-41956361D01*
X91165371Y-41861123D01*
X91165371Y-41527790D01*
X90689180Y-42718266D02*
X90689180Y-42813504D01*
X90736800Y-42908742D01*
X90784419Y-42956361D01*
X90879657Y-43003980D01*
X91070133Y-43051600D01*
X91308228Y-43051600D01*
X91498704Y-43003980D01*
X91593942Y-42956361D01*
X91641561Y-42908742D01*
X91689180Y-42813504D01*
X91689180Y-42718266D01*
X91641561Y-42623028D01*
X91593942Y-42575409D01*
X91498704Y-42527790D01*
X91308228Y-42480171D01*
X91070133Y-42480171D01*
X90879657Y-42527790D01*
X90784419Y-42575409D01*
X90736800Y-42623028D01*
X90689180Y-42718266D01*
X90689180Y-43956361D02*
X90689180Y-43480171D01*
X91165371Y-43432552D01*
X91117752Y-43480171D01*
X91070133Y-43575409D01*
X91070133Y-43813504D01*
X91117752Y-43908742D01*
X91165371Y-43956361D01*
X91260609Y-44003980D01*
X91498704Y-44003980D01*
X91593942Y-43956361D01*
X91641561Y-43908742D01*
X91689180Y-43813504D01*
X91689180Y-43575409D01*
X91641561Y-43480171D01*
X91593942Y-43432552D01*
X91784419Y-44194457D02*
X91784419Y-44956361D01*
X91641561Y-45146838D02*
X91689180Y-45289695D01*
X91689180Y-45527790D01*
X91641561Y-45623028D01*
X91593942Y-45670647D01*
X91498704Y-45718266D01*
X91403466Y-45718266D01*
X91308228Y-45670647D01*
X91260609Y-45623028D01*
X91212990Y-45527790D01*
X91165371Y-45337314D01*
X91117752Y-45242076D01*
X91070133Y-45194457D01*
X90974895Y-45146838D01*
X90879657Y-45146838D01*
X90784419Y-45194457D01*
X90736800Y-45242076D01*
X90689180Y-45337314D01*
X90689180Y-45575409D01*
X90736800Y-45718266D01*
X90784419Y-46099219D02*
X90736800Y-46146838D01*
X90689180Y-46242076D01*
X90689180Y-46480171D01*
X90736800Y-46575409D01*
X90784419Y-46623028D01*
X90879657Y-46670647D01*
X90974895Y-46670647D01*
X91117752Y-46623028D01*
X91689180Y-46051600D01*
X91689180Y-46670647D01*
X91641561Y-47051600D02*
X91689180Y-47194457D01*
X91689180Y-47432552D01*
X91641561Y-47527790D01*
X91593942Y-47575409D01*
X91498704Y-47623028D01*
X91403466Y-47623028D01*
X91308228Y-47575409D01*
X91260609Y-47527790D01*
X91212990Y-47432552D01*
X91165371Y-47242076D01*
X91117752Y-47146838D01*
X91070133Y-47099219D01*
X90974895Y-47051600D01*
X90879657Y-47051600D01*
X90784419Y-47099219D01*
X90736800Y-47146838D01*
X90689180Y-47242076D01*
X90689180Y-47480171D01*
X90736800Y-47623028D01*
D11*
G36*
X120608131Y-121688414D02*
G01*
X121052755Y-121772235D01*
X121180253Y-122081520D01*
X121307751Y-122390806D01*
X121055446Y-122761846D01*
X120985196Y-122865757D01*
X120922472Y-122959687D01*
X120870138Y-123039252D01*
X120831057Y-123100070D01*
X120808093Y-123137757D01*
X120803142Y-123148021D01*
X120815876Y-123166510D01*
X120851082Y-123206020D01*
X120904262Y-123262122D01*
X120970918Y-123330387D01*
X121046554Y-123406386D01*
X121126672Y-123485692D01*
X121206774Y-123563875D01*
X121282364Y-123636507D01*
X121348945Y-123699159D01*
X121402018Y-123747403D01*
X121437087Y-123776810D01*
X121448823Y-123783841D01*
X121470460Y-123773723D01*
X121517862Y-123745359D01*
X121586393Y-123701729D01*
X121671415Y-123645818D01*
X121768293Y-123580606D01*
X121823550Y-123542819D01*
X121924448Y-123473943D01*
X122015499Y-123412740D01*
X122092170Y-123362178D01*
X122149928Y-123325228D01*
X122184243Y-123304858D01*
X122191454Y-123301797D01*
X122211948Y-123308736D01*
X122259713Y-123327651D01*
X122328032Y-123355687D01*
X122410189Y-123389991D01*
X122499470Y-123427709D01*
X122589158Y-123465987D01*
X122672538Y-123501970D01*
X122742894Y-123532806D01*
X122793510Y-123555639D01*
X122817671Y-123567617D01*
X122818622Y-123568324D01*
X122823236Y-123587131D01*
X122833528Y-123637218D01*
X122848487Y-123713393D01*
X122867101Y-123810465D01*
X122888359Y-123923243D01*
X122900618Y-123989042D01*
X122923562Y-124109550D01*
X122945395Y-124218397D01*
X122964922Y-124310076D01*
X122980948Y-124379081D01*
X122992279Y-124419904D01*
X122995874Y-124428111D01*
X123020206Y-124436148D01*
X123075159Y-124442633D01*
X123154308Y-124447570D01*
X123251226Y-124450964D01*
X123359487Y-124452818D01*
X123472665Y-124453138D01*
X123584335Y-124451927D01*
X123688068Y-124449190D01*
X123777441Y-124444931D01*
X123846026Y-124439155D01*
X123887397Y-124431867D01*
X123896010Y-124427495D01*
X123906333Y-124401364D01*
X123921092Y-124345993D01*
X123938552Y-124268707D01*
X123956980Y-124176830D01*
X123962941Y-124144758D01*
X123991266Y-123990124D01*
X124014076Y-123867975D01*
X124032280Y-123774273D01*
X124046783Y-123704984D01*
X124058492Y-123656071D01*
X124068315Y-123623497D01*
X124077156Y-123603228D01*
X124085924Y-123591226D01*
X124087657Y-123589547D01*
X124115571Y-123572784D01*
X124169895Y-123547214D01*
X124243977Y-123515388D01*
X124331165Y-123479860D01*
X124424808Y-123443183D01*
X124518252Y-123407911D01*
X124604847Y-123376596D01*
X124677940Y-123351793D01*
X124730878Y-123336054D01*
X124757011Y-123331932D01*
X124757926Y-123332276D01*
X124779286Y-123346241D01*
X124826284Y-123377922D01*
X124894027Y-123423991D01*
X124977623Y-123481118D01*
X125072182Y-123545973D01*
X125099054Y-123564443D01*
X125196475Y-123630299D01*
X125285363Y-123688250D01*
X125360612Y-123735138D01*
X125417120Y-123767807D01*
X125449781Y-123783100D01*
X125453793Y-123783841D01*
X125474884Y-123770992D01*
X125516664Y-123735488D01*
X125574645Y-123681893D01*
X125644335Y-123614771D01*
X125721245Y-123538687D01*
X125800883Y-123458204D01*
X125878761Y-123377887D01*
X125950386Y-123302299D01*
X126011270Y-123236005D01*
X126056921Y-123183569D01*
X126082850Y-123149555D01*
X126087083Y-123140145D01*
X126077112Y-123118243D01*
X126050220Y-123073400D01*
X126010936Y-123012921D01*
X125979317Y-122966389D01*
X125921298Y-122882075D01*
X125852984Y-122782226D01*
X125784779Y-122682073D01*
X125748275Y-122628227D01*
X125625000Y-122445971D01*
X125707720Y-122292981D01*
X125743959Y-122223282D01*
X125772126Y-122164014D01*
X125788191Y-122123911D01*
X125790426Y-122113703D01*
X125773922Y-122101429D01*
X125727282Y-122077213D01*
X125654809Y-122042863D01*
X125560806Y-122000188D01*
X125449574Y-121950994D01*
X125325415Y-121897090D01*
X125192632Y-121840284D01*
X125055527Y-121782382D01*
X124918402Y-121725193D01*
X124785558Y-121670524D01*
X124661298Y-121620184D01*
X124549925Y-121575980D01*
X124455739Y-121539719D01*
X124383044Y-121513209D01*
X124336141Y-121498258D01*
X124320033Y-121495854D01*
X124299486Y-121514911D01*
X124266133Y-121556636D01*
X124226902Y-121612306D01*
X124223799Y-121616978D01*
X124108623Y-121760864D01*
X123974253Y-121876883D01*
X123824984Y-121964030D01*
X123665113Y-122021299D01*
X123498937Y-122047686D01*
X123330752Y-122042185D01*
X123164855Y-122003790D01*
X123005542Y-121931495D01*
X122970687Y-121910226D01*
X122829937Y-121799596D01*
X122716914Y-121668902D01*
X122632203Y-121522664D01*
X122576394Y-121365408D01*
X122550074Y-121201657D01*
X122553830Y-121035933D01*
X122588250Y-120872762D01*
X122653923Y-120716665D01*
X122751435Y-120572167D01*
X122791013Y-120527469D01*
X122914903Y-120413712D01*
X123045324Y-120330818D01*
X123191515Y-120273956D01*
X123336288Y-120242287D01*
X123499060Y-120234469D01*
X123662640Y-120260538D01*
X123821498Y-120317845D01*
X123970106Y-120403744D01*
X124102935Y-120515586D01*
X124214456Y-120650723D01*
X124226211Y-120668483D01*
X124264708Y-120724750D01*
X124298063Y-120767523D01*
X124319360Y-120787972D01*
X124320033Y-120788269D01*
X124343071Y-120783879D01*
X124395357Y-120766476D01*
X124472590Y-120737868D01*
X124570468Y-120699865D01*
X124684691Y-120654274D01*
X124810958Y-120602903D01*
X124944967Y-120547562D01*
X125082418Y-120490058D01*
X125219008Y-120432201D01*
X125350437Y-120375798D01*
X125472405Y-120322658D01*
X125580609Y-120274590D01*
X125670749Y-120233401D01*
X125738523Y-120200901D01*
X125779630Y-120178897D01*
X125790426Y-120170036D01*
X125782019Y-120142960D01*
X125759472Y-120092297D01*
X125726813Y-120026783D01*
X125707720Y-119990759D01*
X125625000Y-119837768D01*
X125748275Y-119655512D01*
X125811428Y-119562475D01*
X125880927Y-119460615D01*
X125946365Y-119365162D01*
X125979317Y-119317350D01*
X126024473Y-119250105D01*
X126060257Y-119193164D01*
X126082138Y-119153954D01*
X126086763Y-119141219D01*
X126074285Y-119122683D01*
X126039452Y-119081659D01*
X125985878Y-119022125D01*
X125917183Y-118948058D01*
X125836981Y-118863435D01*
X125785486Y-118809915D01*
X125693486Y-118716281D01*
X125611199Y-118635359D01*
X125542145Y-118570423D01*
X125489844Y-118524742D01*
X125457816Y-118501589D01*
X125451316Y-118499368D01*
X125426594Y-118509676D01*
X125376605Y-118538161D01*
X125306412Y-118581663D01*
X125221075Y-118637023D01*
X125125656Y-118701080D01*
X125099054Y-118719297D01*
X125002367Y-118785673D01*
X124915317Y-118845222D01*
X124842795Y-118894616D01*
X124789693Y-118930525D01*
X124760903Y-118949619D01*
X124757926Y-118951464D01*
X124734982Y-118948705D01*
X124684536Y-118934062D01*
X124613241Y-118910087D01*
X124527747Y-118879334D01*
X124434707Y-118844356D01*
X124340774Y-118807707D01*
X124252599Y-118771939D01*
X124176834Y-118739606D01*
X124120131Y-118713262D01*
X124089143Y-118695458D01*
X124087657Y-118694193D01*
X124078801Y-118683306D01*
X124070043Y-118664918D01*
X124060477Y-118634994D01*
X124049196Y-118589497D01*
X124035293Y-118524391D01*
X124017863Y-118435639D01*
X123995998Y-118319207D01*
X123968791Y-118171058D01*
X123962941Y-118138982D01*
X123944574Y-118043914D01*
X123926605Y-117961035D01*
X123910769Y-117897670D01*
X123898800Y-117861142D01*
X123896010Y-117856244D01*
X123871272Y-117848173D01*
X123815990Y-117841613D01*
X123736589Y-117836567D01*
X123639496Y-117833041D01*
X123531138Y-117831039D01*
X123417940Y-117830564D01*
X123306328Y-117831623D01*
X123202729Y-117834218D01*
X123113568Y-117838354D01*
X123045272Y-117844037D01*
X123004266Y-117851269D01*
X122995874Y-117855629D01*
X122987408Y-117879902D01*
X122973635Y-117935174D01*
X122955750Y-118015938D01*
X122934948Y-118116688D01*
X122912423Y-118231917D01*
X122900618Y-118294698D01*
X122878351Y-118413813D01*
X122858179Y-118520035D01*
X122841115Y-118608173D01*
X122828169Y-118673034D01*
X122820355Y-118709426D01*
X122818622Y-118715416D01*
X122799090Y-118725539D01*
X122752043Y-118746938D01*
X122684203Y-118776761D01*
X122602291Y-118812155D01*
X122513028Y-118850268D01*
X122423135Y-118888247D01*
X122339335Y-118923240D01*
X122268347Y-118952394D01*
X122216894Y-118972857D01*
X122191697Y-118981777D01*
X122190596Y-118981943D01*
X122170719Y-118971831D01*
X122124977Y-118943483D01*
X122057917Y-118899877D01*
X121974084Y-118843994D01*
X121878026Y-118778813D01*
X121822850Y-118740921D01*
X121721681Y-118671875D01*
X121629830Y-118610550D01*
X121551944Y-118559937D01*
X121492669Y-118523029D01*
X121456651Y-118502818D01*
X121448577Y-118499899D01*
X121429784Y-118512447D01*
X121389657Y-118547137D01*
X121332693Y-118599537D01*
X121263385Y-118665216D01*
X121186231Y-118739744D01*
X121105725Y-118818687D01*
X121026363Y-118897617D01*
X120952640Y-118972100D01*
X120889052Y-119037706D01*
X120840094Y-119090004D01*
X120810261Y-119124561D01*
X120803142Y-119136122D01*
X120813153Y-119154946D01*
X120841278Y-119199969D01*
X120884654Y-119266813D01*
X120940418Y-119351101D01*
X121005706Y-119448456D01*
X121055446Y-119521893D01*
X121307751Y-119892933D01*
X121052755Y-120511505D01*
X120608131Y-120595325D01*
X120163507Y-120679146D01*
X120163507Y-121604594D01*
X120608131Y-121688414D01*
G37*
X120608131Y-121688414D02*
X121052755Y-121772235D01*
X121180253Y-122081520D01*
X121307751Y-122390806D01*
X121055446Y-122761846D01*
X120985196Y-122865757D01*
X120922472Y-122959687D01*
X120870138Y-123039252D01*
X120831057Y-123100070D01*
X120808093Y-123137757D01*
X120803142Y-123148021D01*
X120815876Y-123166510D01*
X120851082Y-123206020D01*
X120904262Y-123262122D01*
X120970918Y-123330387D01*
X121046554Y-123406386D01*
X121126672Y-123485692D01*
X121206774Y-123563875D01*
X121282364Y-123636507D01*
X121348945Y-123699159D01*
X121402018Y-123747403D01*
X121437087Y-123776810D01*
X121448823Y-123783841D01*
X121470460Y-123773723D01*
X121517862Y-123745359D01*
X121586393Y-123701729D01*
X121671415Y-123645818D01*
X121768293Y-123580606D01*
X121823550Y-123542819D01*
X121924448Y-123473943D01*
X122015499Y-123412740D01*
X122092170Y-123362178D01*
X122149928Y-123325228D01*
X122184243Y-123304858D01*
X122191454Y-123301797D01*
X122211948Y-123308736D01*
X122259713Y-123327651D01*
X122328032Y-123355687D01*
X122410189Y-123389991D01*
X122499470Y-123427709D01*
X122589158Y-123465987D01*
X122672538Y-123501970D01*
X122742894Y-123532806D01*
X122793510Y-123555639D01*
X122817671Y-123567617D01*
X122818622Y-123568324D01*
X122823236Y-123587131D01*
X122833528Y-123637218D01*
X122848487Y-123713393D01*
X122867101Y-123810465D01*
X122888359Y-123923243D01*
X122900618Y-123989042D01*
X122923562Y-124109550D01*
X122945395Y-124218397D01*
X122964922Y-124310076D01*
X122980948Y-124379081D01*
X122992279Y-124419904D01*
X122995874Y-124428111D01*
X123020206Y-124436148D01*
X123075159Y-124442633D01*
X123154308Y-124447570D01*
X123251226Y-124450964D01*
X123359487Y-124452818D01*
X123472665Y-124453138D01*
X123584335Y-124451927D01*
X123688068Y-124449190D01*
X123777441Y-124444931D01*
X123846026Y-124439155D01*
X123887397Y-124431867D01*
X123896010Y-124427495D01*
X123906333Y-124401364D01*
X123921092Y-124345993D01*
X123938552Y-124268707D01*
X123956980Y-124176830D01*
X123962941Y-124144758D01*
X123991266Y-123990124D01*
X124014076Y-123867975D01*
X124032280Y-123774273D01*
X124046783Y-123704984D01*
X124058492Y-123656071D01*
X124068315Y-123623497D01*
X124077156Y-123603228D01*
X124085924Y-123591226D01*
X124087657Y-123589547D01*
X124115571Y-123572784D01*
X124169895Y-123547214D01*
X124243977Y-123515388D01*
X124331165Y-123479860D01*
X124424808Y-123443183D01*
X124518252Y-123407911D01*
X124604847Y-123376596D01*
X124677940Y-123351793D01*
X124730878Y-123336054D01*
X124757011Y-123331932D01*
X124757926Y-123332276D01*
X124779286Y-123346241D01*
X124826284Y-123377922D01*
X124894027Y-123423991D01*
X124977623Y-123481118D01*
X125072182Y-123545973D01*
X125099054Y-123564443D01*
X125196475Y-123630299D01*
X125285363Y-123688250D01*
X125360612Y-123735138D01*
X125417120Y-123767807D01*
X125449781Y-123783100D01*
X125453793Y-123783841D01*
X125474884Y-123770992D01*
X125516664Y-123735488D01*
X125574645Y-123681893D01*
X125644335Y-123614771D01*
X125721245Y-123538687D01*
X125800883Y-123458204D01*
X125878761Y-123377887D01*
X125950386Y-123302299D01*
X126011270Y-123236005D01*
X126056921Y-123183569D01*
X126082850Y-123149555D01*
X126087083Y-123140145D01*
X126077112Y-123118243D01*
X126050220Y-123073400D01*
X126010936Y-123012921D01*
X125979317Y-122966389D01*
X125921298Y-122882075D01*
X125852984Y-122782226D01*
X125784779Y-122682073D01*
X125748275Y-122628227D01*
X125625000Y-122445971D01*
X125707720Y-122292981D01*
X125743959Y-122223282D01*
X125772126Y-122164014D01*
X125788191Y-122123911D01*
X125790426Y-122113703D01*
X125773922Y-122101429D01*
X125727282Y-122077213D01*
X125654809Y-122042863D01*
X125560806Y-122000188D01*
X125449574Y-121950994D01*
X125325415Y-121897090D01*
X125192632Y-121840284D01*
X125055527Y-121782382D01*
X124918402Y-121725193D01*
X124785558Y-121670524D01*
X124661298Y-121620184D01*
X124549925Y-121575980D01*
X124455739Y-121539719D01*
X124383044Y-121513209D01*
X124336141Y-121498258D01*
X124320033Y-121495854D01*
X124299486Y-121514911D01*
X124266133Y-121556636D01*
X124226902Y-121612306D01*
X124223799Y-121616978D01*
X124108623Y-121760864D01*
X123974253Y-121876883D01*
X123824984Y-121964030D01*
X123665113Y-122021299D01*
X123498937Y-122047686D01*
X123330752Y-122042185D01*
X123164855Y-122003790D01*
X123005542Y-121931495D01*
X122970687Y-121910226D01*
X122829937Y-121799596D01*
X122716914Y-121668902D01*
X122632203Y-121522664D01*
X122576394Y-121365408D01*
X122550074Y-121201657D01*
X122553830Y-121035933D01*
X122588250Y-120872762D01*
X122653923Y-120716665D01*
X122751435Y-120572167D01*
X122791013Y-120527469D01*
X122914903Y-120413712D01*
X123045324Y-120330818D01*
X123191515Y-120273956D01*
X123336288Y-120242287D01*
X123499060Y-120234469D01*
X123662640Y-120260538D01*
X123821498Y-120317845D01*
X123970106Y-120403744D01*
X124102935Y-120515586D01*
X124214456Y-120650723D01*
X124226211Y-120668483D01*
X124264708Y-120724750D01*
X124298063Y-120767523D01*
X124319360Y-120787972D01*
X124320033Y-120788269D01*
X124343071Y-120783879D01*
X124395357Y-120766476D01*
X124472590Y-120737868D01*
X124570468Y-120699865D01*
X124684691Y-120654274D01*
X124810958Y-120602903D01*
X124944967Y-120547562D01*
X125082418Y-120490058D01*
X125219008Y-120432201D01*
X125350437Y-120375798D01*
X125472405Y-120322658D01*
X125580609Y-120274590D01*
X125670749Y-120233401D01*
X125738523Y-120200901D01*
X125779630Y-120178897D01*
X125790426Y-120170036D01*
X125782019Y-120142960D01*
X125759472Y-120092297D01*
X125726813Y-120026783D01*
X125707720Y-119990759D01*
X125625000Y-119837768D01*
X125748275Y-119655512D01*
X125811428Y-119562475D01*
X125880927Y-119460615D01*
X125946365Y-119365162D01*
X125979317Y-119317350D01*
X126024473Y-119250105D01*
X126060257Y-119193164D01*
X126082138Y-119153954D01*
X126086763Y-119141219D01*
X126074285Y-119122683D01*
X126039452Y-119081659D01*
X125985878Y-119022125D01*
X125917183Y-118948058D01*
X125836981Y-118863435D01*
X125785486Y-118809915D01*
X125693486Y-118716281D01*
X125611199Y-118635359D01*
X125542145Y-118570423D01*
X125489844Y-118524742D01*
X125457816Y-118501589D01*
X125451316Y-118499368D01*
X125426594Y-118509676D01*
X125376605Y-118538161D01*
X125306412Y-118581663D01*
X125221075Y-118637023D01*
X125125656Y-118701080D01*
X125099054Y-118719297D01*
X125002367Y-118785673D01*
X124915317Y-118845222D01*
X124842795Y-118894616D01*
X124789693Y-118930525D01*
X124760903Y-118949619D01*
X124757926Y-118951464D01*
X124734982Y-118948705D01*
X124684536Y-118934062D01*
X124613241Y-118910087D01*
X124527747Y-118879334D01*
X124434707Y-118844356D01*
X124340774Y-118807707D01*
X124252599Y-118771939D01*
X124176834Y-118739606D01*
X124120131Y-118713262D01*
X124089143Y-118695458D01*
X124087657Y-118694193D01*
X124078801Y-118683306D01*
X124070043Y-118664918D01*
X124060477Y-118634994D01*
X124049196Y-118589497D01*
X124035293Y-118524391D01*
X124017863Y-118435639D01*
X123995998Y-118319207D01*
X123968791Y-118171058D01*
X123962941Y-118138982D01*
X123944574Y-118043914D01*
X123926605Y-117961035D01*
X123910769Y-117897670D01*
X123898800Y-117861142D01*
X123896010Y-117856244D01*
X123871272Y-117848173D01*
X123815990Y-117841613D01*
X123736589Y-117836567D01*
X123639496Y-117833041D01*
X123531138Y-117831039D01*
X123417940Y-117830564D01*
X123306328Y-117831623D01*
X123202729Y-117834218D01*
X123113568Y-117838354D01*
X123045272Y-117844037D01*
X123004266Y-117851269D01*
X122995874Y-117855629D01*
X122987408Y-117879902D01*
X122973635Y-117935174D01*
X122955750Y-118015938D01*
X122934948Y-118116688D01*
X122912423Y-118231917D01*
X122900618Y-118294698D01*
X122878351Y-118413813D01*
X122858179Y-118520035D01*
X122841115Y-118608173D01*
X122828169Y-118673034D01*
X122820355Y-118709426D01*
X122818622Y-118715416D01*
X122799090Y-118725539D01*
X122752043Y-118746938D01*
X122684203Y-118776761D01*
X122602291Y-118812155D01*
X122513028Y-118850268D01*
X122423135Y-118888247D01*
X122339335Y-118923240D01*
X122268347Y-118952394D01*
X122216894Y-118972857D01*
X122191697Y-118981777D01*
X122190596Y-118981943D01*
X122170719Y-118971831D01*
X122124977Y-118943483D01*
X122057917Y-118899877D01*
X121974084Y-118843994D01*
X121878026Y-118778813D01*
X121822850Y-118740921D01*
X121721681Y-118671875D01*
X121629830Y-118610550D01*
X121551944Y-118559937D01*
X121492669Y-118523029D01*
X121456651Y-118502818D01*
X121448577Y-118499899D01*
X121429784Y-118512447D01*
X121389657Y-118547137D01*
X121332693Y-118599537D01*
X121263385Y-118665216D01*
X121186231Y-118739744D01*
X121105725Y-118818687D01*
X121026363Y-118897617D01*
X120952640Y-118972100D01*
X120889052Y-119037706D01*
X120840094Y-119090004D01*
X120810261Y-119124561D01*
X120803142Y-119136122D01*
X120813153Y-119154946D01*
X120841278Y-119199969D01*
X120884654Y-119266813D01*
X120940418Y-119351101D01*
X121005706Y-119448456D01*
X121055446Y-119521893D01*
X121307751Y-119892933D01*
X121052755Y-120511505D01*
X120608131Y-120595325D01*
X120163507Y-120679146D01*
X120163507Y-121604594D01*
X120608131Y-121688414D01*
G36*
X82508131Y-121688414D02*
G01*
X82952755Y-121772235D01*
X83080253Y-122081520D01*
X83207751Y-122390806D01*
X82955446Y-122761846D01*
X82885196Y-122865757D01*
X82822472Y-122959687D01*
X82770138Y-123039252D01*
X82731057Y-123100070D01*
X82708093Y-123137757D01*
X82703142Y-123148021D01*
X82715876Y-123166510D01*
X82751082Y-123206020D01*
X82804262Y-123262122D01*
X82870918Y-123330387D01*
X82946554Y-123406386D01*
X83026672Y-123485692D01*
X83106774Y-123563875D01*
X83182364Y-123636507D01*
X83248945Y-123699159D01*
X83302018Y-123747403D01*
X83337087Y-123776810D01*
X83348823Y-123783841D01*
X83370460Y-123773723D01*
X83417862Y-123745359D01*
X83486393Y-123701729D01*
X83571415Y-123645818D01*
X83668293Y-123580606D01*
X83723550Y-123542819D01*
X83824448Y-123473943D01*
X83915499Y-123412740D01*
X83992170Y-123362178D01*
X84049928Y-123325228D01*
X84084243Y-123304858D01*
X84091454Y-123301797D01*
X84111948Y-123308736D01*
X84159713Y-123327651D01*
X84228032Y-123355687D01*
X84310189Y-123389991D01*
X84399470Y-123427709D01*
X84489158Y-123465987D01*
X84572538Y-123501970D01*
X84642894Y-123532806D01*
X84693510Y-123555639D01*
X84717671Y-123567617D01*
X84718622Y-123568324D01*
X84723236Y-123587131D01*
X84733528Y-123637218D01*
X84748487Y-123713393D01*
X84767101Y-123810465D01*
X84788359Y-123923243D01*
X84800618Y-123989042D01*
X84823562Y-124109550D01*
X84845395Y-124218397D01*
X84864922Y-124310076D01*
X84880948Y-124379081D01*
X84892279Y-124419904D01*
X84895874Y-124428111D01*
X84920206Y-124436148D01*
X84975159Y-124442633D01*
X85054308Y-124447570D01*
X85151226Y-124450964D01*
X85259487Y-124452818D01*
X85372665Y-124453138D01*
X85484335Y-124451927D01*
X85588068Y-124449190D01*
X85677441Y-124444931D01*
X85746026Y-124439155D01*
X85787397Y-124431867D01*
X85796010Y-124427495D01*
X85806333Y-124401364D01*
X85821092Y-124345993D01*
X85838552Y-124268707D01*
X85856980Y-124176830D01*
X85862941Y-124144758D01*
X85891266Y-123990124D01*
X85914076Y-123867975D01*
X85932280Y-123774273D01*
X85946783Y-123704984D01*
X85958492Y-123656071D01*
X85968315Y-123623497D01*
X85977156Y-123603228D01*
X85985924Y-123591226D01*
X85987657Y-123589547D01*
X86015571Y-123572784D01*
X86069895Y-123547214D01*
X86143977Y-123515388D01*
X86231165Y-123479860D01*
X86324808Y-123443183D01*
X86418252Y-123407911D01*
X86504847Y-123376596D01*
X86577940Y-123351793D01*
X86630878Y-123336054D01*
X86657011Y-123331932D01*
X86657926Y-123332276D01*
X86679286Y-123346241D01*
X86726284Y-123377922D01*
X86794027Y-123423991D01*
X86877623Y-123481118D01*
X86972182Y-123545973D01*
X86999054Y-123564443D01*
X87096475Y-123630299D01*
X87185363Y-123688250D01*
X87260612Y-123735138D01*
X87317120Y-123767807D01*
X87349781Y-123783100D01*
X87353793Y-123783841D01*
X87374884Y-123770992D01*
X87416664Y-123735488D01*
X87474645Y-123681893D01*
X87544335Y-123614771D01*
X87621245Y-123538687D01*
X87700883Y-123458204D01*
X87778761Y-123377887D01*
X87850386Y-123302299D01*
X87911270Y-123236005D01*
X87956921Y-123183569D01*
X87982850Y-123149555D01*
X87987083Y-123140145D01*
X87977112Y-123118243D01*
X87950220Y-123073400D01*
X87910936Y-123012921D01*
X87879317Y-122966389D01*
X87821298Y-122882075D01*
X87752984Y-122782226D01*
X87684779Y-122682073D01*
X87648275Y-122628227D01*
X87525000Y-122445971D01*
X87607720Y-122292981D01*
X87643959Y-122223282D01*
X87672126Y-122164014D01*
X87688191Y-122123911D01*
X87690426Y-122113703D01*
X87673922Y-122101429D01*
X87627282Y-122077213D01*
X87554809Y-122042863D01*
X87460806Y-122000188D01*
X87349574Y-121950994D01*
X87225415Y-121897090D01*
X87092632Y-121840284D01*
X86955527Y-121782382D01*
X86818402Y-121725193D01*
X86685558Y-121670524D01*
X86561298Y-121620184D01*
X86449925Y-121575980D01*
X86355739Y-121539719D01*
X86283044Y-121513209D01*
X86236141Y-121498258D01*
X86220033Y-121495854D01*
X86199486Y-121514911D01*
X86166133Y-121556636D01*
X86126902Y-121612306D01*
X86123799Y-121616978D01*
X86008623Y-121760864D01*
X85874253Y-121876883D01*
X85724984Y-121964030D01*
X85565113Y-122021299D01*
X85398937Y-122047686D01*
X85230752Y-122042185D01*
X85064855Y-122003790D01*
X84905542Y-121931495D01*
X84870687Y-121910226D01*
X84729937Y-121799596D01*
X84616914Y-121668902D01*
X84532203Y-121522664D01*
X84476394Y-121365408D01*
X84450074Y-121201657D01*
X84453830Y-121035933D01*
X84488250Y-120872762D01*
X84553923Y-120716665D01*
X84651435Y-120572167D01*
X84691013Y-120527469D01*
X84814903Y-120413712D01*
X84945324Y-120330818D01*
X85091515Y-120273956D01*
X85236288Y-120242287D01*
X85399060Y-120234469D01*
X85562640Y-120260538D01*
X85721498Y-120317845D01*
X85870106Y-120403744D01*
X86002935Y-120515586D01*
X86114456Y-120650723D01*
X86126211Y-120668483D01*
X86164708Y-120724750D01*
X86198063Y-120767523D01*
X86219360Y-120787972D01*
X86220033Y-120788269D01*
X86243071Y-120783879D01*
X86295357Y-120766476D01*
X86372590Y-120737868D01*
X86470468Y-120699865D01*
X86584691Y-120654274D01*
X86710958Y-120602903D01*
X86844967Y-120547562D01*
X86982418Y-120490058D01*
X87119008Y-120432201D01*
X87250437Y-120375798D01*
X87372405Y-120322658D01*
X87480609Y-120274590D01*
X87570749Y-120233401D01*
X87638523Y-120200901D01*
X87679630Y-120178897D01*
X87690426Y-120170036D01*
X87682019Y-120142960D01*
X87659472Y-120092297D01*
X87626813Y-120026783D01*
X87607720Y-119990759D01*
X87525000Y-119837768D01*
X87648275Y-119655512D01*
X87711428Y-119562475D01*
X87780927Y-119460615D01*
X87846365Y-119365162D01*
X87879317Y-119317350D01*
X87924473Y-119250105D01*
X87960257Y-119193164D01*
X87982138Y-119153954D01*
X87986763Y-119141219D01*
X87974285Y-119122683D01*
X87939452Y-119081659D01*
X87885878Y-119022125D01*
X87817183Y-118948058D01*
X87736981Y-118863435D01*
X87685486Y-118809915D01*
X87593486Y-118716281D01*
X87511199Y-118635359D01*
X87442145Y-118570423D01*
X87389844Y-118524742D01*
X87357816Y-118501589D01*
X87351316Y-118499368D01*
X87326594Y-118509676D01*
X87276605Y-118538161D01*
X87206412Y-118581663D01*
X87121075Y-118637023D01*
X87025656Y-118701080D01*
X86999054Y-118719297D01*
X86902367Y-118785673D01*
X86815317Y-118845222D01*
X86742795Y-118894616D01*
X86689693Y-118930525D01*
X86660903Y-118949619D01*
X86657926Y-118951464D01*
X86634982Y-118948705D01*
X86584536Y-118934062D01*
X86513241Y-118910087D01*
X86427747Y-118879334D01*
X86334707Y-118844356D01*
X86240774Y-118807707D01*
X86152599Y-118771939D01*
X86076834Y-118739606D01*
X86020131Y-118713262D01*
X85989143Y-118695458D01*
X85987657Y-118694193D01*
X85978801Y-118683306D01*
X85970043Y-118664918D01*
X85960477Y-118634994D01*
X85949196Y-118589497D01*
X85935293Y-118524391D01*
X85917863Y-118435639D01*
X85895998Y-118319207D01*
X85868791Y-118171058D01*
X85862941Y-118138982D01*
X85844574Y-118043914D01*
X85826605Y-117961035D01*
X85810769Y-117897670D01*
X85798800Y-117861142D01*
X85796010Y-117856244D01*
X85771272Y-117848173D01*
X85715990Y-117841613D01*
X85636589Y-117836567D01*
X85539496Y-117833041D01*
X85431138Y-117831039D01*
X85317940Y-117830564D01*
X85206328Y-117831623D01*
X85102729Y-117834218D01*
X85013568Y-117838354D01*
X84945272Y-117844037D01*
X84904266Y-117851269D01*
X84895874Y-117855629D01*
X84887408Y-117879902D01*
X84873635Y-117935174D01*
X84855750Y-118015938D01*
X84834948Y-118116688D01*
X84812423Y-118231917D01*
X84800618Y-118294698D01*
X84778351Y-118413813D01*
X84758179Y-118520035D01*
X84741115Y-118608173D01*
X84728169Y-118673034D01*
X84720355Y-118709426D01*
X84718622Y-118715416D01*
X84699090Y-118725539D01*
X84652043Y-118746938D01*
X84584203Y-118776761D01*
X84502291Y-118812155D01*
X84413028Y-118850268D01*
X84323135Y-118888247D01*
X84239335Y-118923240D01*
X84168347Y-118952394D01*
X84116894Y-118972857D01*
X84091697Y-118981777D01*
X84090596Y-118981943D01*
X84070719Y-118971831D01*
X84024977Y-118943483D01*
X83957917Y-118899877D01*
X83874084Y-118843994D01*
X83778026Y-118778813D01*
X83722850Y-118740921D01*
X83621681Y-118671875D01*
X83529830Y-118610550D01*
X83451944Y-118559937D01*
X83392669Y-118523029D01*
X83356651Y-118502818D01*
X83348577Y-118499899D01*
X83329784Y-118512447D01*
X83289657Y-118547137D01*
X83232693Y-118599537D01*
X83163385Y-118665216D01*
X83086231Y-118739744D01*
X83005725Y-118818687D01*
X82926363Y-118897617D01*
X82852640Y-118972100D01*
X82789052Y-119037706D01*
X82740094Y-119090004D01*
X82710261Y-119124561D01*
X82703142Y-119136122D01*
X82713153Y-119154946D01*
X82741278Y-119199969D01*
X82784654Y-119266813D01*
X82840418Y-119351101D01*
X82905706Y-119448456D01*
X82955446Y-119521893D01*
X83207751Y-119892933D01*
X82952755Y-120511505D01*
X82508131Y-120595325D01*
X82063507Y-120679146D01*
X82063507Y-121604594D01*
X82508131Y-121688414D01*
G37*
X82508131Y-121688414D02*
X82952755Y-121772235D01*
X83080253Y-122081520D01*
X83207751Y-122390806D01*
X82955446Y-122761846D01*
X82885196Y-122865757D01*
X82822472Y-122959687D01*
X82770138Y-123039252D01*
X82731057Y-123100070D01*
X82708093Y-123137757D01*
X82703142Y-123148021D01*
X82715876Y-123166510D01*
X82751082Y-123206020D01*
X82804262Y-123262122D01*
X82870918Y-123330387D01*
X82946554Y-123406386D01*
X83026672Y-123485692D01*
X83106774Y-123563875D01*
X83182364Y-123636507D01*
X83248945Y-123699159D01*
X83302018Y-123747403D01*
X83337087Y-123776810D01*
X83348823Y-123783841D01*
X83370460Y-123773723D01*
X83417862Y-123745359D01*
X83486393Y-123701729D01*
X83571415Y-123645818D01*
X83668293Y-123580606D01*
X83723550Y-123542819D01*
X83824448Y-123473943D01*
X83915499Y-123412740D01*
X83992170Y-123362178D01*
X84049928Y-123325228D01*
X84084243Y-123304858D01*
X84091454Y-123301797D01*
X84111948Y-123308736D01*
X84159713Y-123327651D01*
X84228032Y-123355687D01*
X84310189Y-123389991D01*
X84399470Y-123427709D01*
X84489158Y-123465987D01*
X84572538Y-123501970D01*
X84642894Y-123532806D01*
X84693510Y-123555639D01*
X84717671Y-123567617D01*
X84718622Y-123568324D01*
X84723236Y-123587131D01*
X84733528Y-123637218D01*
X84748487Y-123713393D01*
X84767101Y-123810465D01*
X84788359Y-123923243D01*
X84800618Y-123989042D01*
X84823562Y-124109550D01*
X84845395Y-124218397D01*
X84864922Y-124310076D01*
X84880948Y-124379081D01*
X84892279Y-124419904D01*
X84895874Y-124428111D01*
X84920206Y-124436148D01*
X84975159Y-124442633D01*
X85054308Y-124447570D01*
X85151226Y-124450964D01*
X85259487Y-124452818D01*
X85372665Y-124453138D01*
X85484335Y-124451927D01*
X85588068Y-124449190D01*
X85677441Y-124444931D01*
X85746026Y-124439155D01*
X85787397Y-124431867D01*
X85796010Y-124427495D01*
X85806333Y-124401364D01*
X85821092Y-124345993D01*
X85838552Y-124268707D01*
X85856980Y-124176830D01*
X85862941Y-124144758D01*
X85891266Y-123990124D01*
X85914076Y-123867975D01*
X85932280Y-123774273D01*
X85946783Y-123704984D01*
X85958492Y-123656071D01*
X85968315Y-123623497D01*
X85977156Y-123603228D01*
X85985924Y-123591226D01*
X85987657Y-123589547D01*
X86015571Y-123572784D01*
X86069895Y-123547214D01*
X86143977Y-123515388D01*
X86231165Y-123479860D01*
X86324808Y-123443183D01*
X86418252Y-123407911D01*
X86504847Y-123376596D01*
X86577940Y-123351793D01*
X86630878Y-123336054D01*
X86657011Y-123331932D01*
X86657926Y-123332276D01*
X86679286Y-123346241D01*
X86726284Y-123377922D01*
X86794027Y-123423991D01*
X86877623Y-123481118D01*
X86972182Y-123545973D01*
X86999054Y-123564443D01*
X87096475Y-123630299D01*
X87185363Y-123688250D01*
X87260612Y-123735138D01*
X87317120Y-123767807D01*
X87349781Y-123783100D01*
X87353793Y-123783841D01*
X87374884Y-123770992D01*
X87416664Y-123735488D01*
X87474645Y-123681893D01*
X87544335Y-123614771D01*
X87621245Y-123538687D01*
X87700883Y-123458204D01*
X87778761Y-123377887D01*
X87850386Y-123302299D01*
X87911270Y-123236005D01*
X87956921Y-123183569D01*
X87982850Y-123149555D01*
X87987083Y-123140145D01*
X87977112Y-123118243D01*
X87950220Y-123073400D01*
X87910936Y-123012921D01*
X87879317Y-122966389D01*
X87821298Y-122882075D01*
X87752984Y-122782226D01*
X87684779Y-122682073D01*
X87648275Y-122628227D01*
X87525000Y-122445971D01*
X87607720Y-122292981D01*
X87643959Y-122223282D01*
X87672126Y-122164014D01*
X87688191Y-122123911D01*
X87690426Y-122113703D01*
X87673922Y-122101429D01*
X87627282Y-122077213D01*
X87554809Y-122042863D01*
X87460806Y-122000188D01*
X87349574Y-121950994D01*
X87225415Y-121897090D01*
X87092632Y-121840284D01*
X86955527Y-121782382D01*
X86818402Y-121725193D01*
X86685558Y-121670524D01*
X86561298Y-121620184D01*
X86449925Y-121575980D01*
X86355739Y-121539719D01*
X86283044Y-121513209D01*
X86236141Y-121498258D01*
X86220033Y-121495854D01*
X86199486Y-121514911D01*
X86166133Y-121556636D01*
X86126902Y-121612306D01*
X86123799Y-121616978D01*
X86008623Y-121760864D01*
X85874253Y-121876883D01*
X85724984Y-121964030D01*
X85565113Y-122021299D01*
X85398937Y-122047686D01*
X85230752Y-122042185D01*
X85064855Y-122003790D01*
X84905542Y-121931495D01*
X84870687Y-121910226D01*
X84729937Y-121799596D01*
X84616914Y-121668902D01*
X84532203Y-121522664D01*
X84476394Y-121365408D01*
X84450074Y-121201657D01*
X84453830Y-121035933D01*
X84488250Y-120872762D01*
X84553923Y-120716665D01*
X84651435Y-120572167D01*
X84691013Y-120527469D01*
X84814903Y-120413712D01*
X84945324Y-120330818D01*
X85091515Y-120273956D01*
X85236288Y-120242287D01*
X85399060Y-120234469D01*
X85562640Y-120260538D01*
X85721498Y-120317845D01*
X85870106Y-120403744D01*
X86002935Y-120515586D01*
X86114456Y-120650723D01*
X86126211Y-120668483D01*
X86164708Y-120724750D01*
X86198063Y-120767523D01*
X86219360Y-120787972D01*
X86220033Y-120788269D01*
X86243071Y-120783879D01*
X86295357Y-120766476D01*
X86372590Y-120737868D01*
X86470468Y-120699865D01*
X86584691Y-120654274D01*
X86710958Y-120602903D01*
X86844967Y-120547562D01*
X86982418Y-120490058D01*
X87119008Y-120432201D01*
X87250437Y-120375798D01*
X87372405Y-120322658D01*
X87480609Y-120274590D01*
X87570749Y-120233401D01*
X87638523Y-120200901D01*
X87679630Y-120178897D01*
X87690426Y-120170036D01*
X87682019Y-120142960D01*
X87659472Y-120092297D01*
X87626813Y-120026783D01*
X87607720Y-119990759D01*
X87525000Y-119837768D01*
X87648275Y-119655512D01*
X87711428Y-119562475D01*
X87780927Y-119460615D01*
X87846365Y-119365162D01*
X87879317Y-119317350D01*
X87924473Y-119250105D01*
X87960257Y-119193164D01*
X87982138Y-119153954D01*
X87986763Y-119141219D01*
X87974285Y-119122683D01*
X87939452Y-119081659D01*
X87885878Y-119022125D01*
X87817183Y-118948058D01*
X87736981Y-118863435D01*
X87685486Y-118809915D01*
X87593486Y-118716281D01*
X87511199Y-118635359D01*
X87442145Y-118570423D01*
X87389844Y-118524742D01*
X87357816Y-118501589D01*
X87351316Y-118499368D01*
X87326594Y-118509676D01*
X87276605Y-118538161D01*
X87206412Y-118581663D01*
X87121075Y-118637023D01*
X87025656Y-118701080D01*
X86999054Y-118719297D01*
X86902367Y-118785673D01*
X86815317Y-118845222D01*
X86742795Y-118894616D01*
X86689693Y-118930525D01*
X86660903Y-118949619D01*
X86657926Y-118951464D01*
X86634982Y-118948705D01*
X86584536Y-118934062D01*
X86513241Y-118910087D01*
X86427747Y-118879334D01*
X86334707Y-118844356D01*
X86240774Y-118807707D01*
X86152599Y-118771939D01*
X86076834Y-118739606D01*
X86020131Y-118713262D01*
X85989143Y-118695458D01*
X85987657Y-118694193D01*
X85978801Y-118683306D01*
X85970043Y-118664918D01*
X85960477Y-118634994D01*
X85949196Y-118589497D01*
X85935293Y-118524391D01*
X85917863Y-118435639D01*
X85895998Y-118319207D01*
X85868791Y-118171058D01*
X85862941Y-118138982D01*
X85844574Y-118043914D01*
X85826605Y-117961035D01*
X85810769Y-117897670D01*
X85798800Y-117861142D01*
X85796010Y-117856244D01*
X85771272Y-117848173D01*
X85715990Y-117841613D01*
X85636589Y-117836567D01*
X85539496Y-117833041D01*
X85431138Y-117831039D01*
X85317940Y-117830564D01*
X85206328Y-117831623D01*
X85102729Y-117834218D01*
X85013568Y-117838354D01*
X84945272Y-117844037D01*
X84904266Y-117851269D01*
X84895874Y-117855629D01*
X84887408Y-117879902D01*
X84873635Y-117935174D01*
X84855750Y-118015938D01*
X84834948Y-118116688D01*
X84812423Y-118231917D01*
X84800618Y-118294698D01*
X84778351Y-118413813D01*
X84758179Y-118520035D01*
X84741115Y-118608173D01*
X84728169Y-118673034D01*
X84720355Y-118709426D01*
X84718622Y-118715416D01*
X84699090Y-118725539D01*
X84652043Y-118746938D01*
X84584203Y-118776761D01*
X84502291Y-118812155D01*
X84413028Y-118850268D01*
X84323135Y-118888247D01*
X84239335Y-118923240D01*
X84168347Y-118952394D01*
X84116894Y-118972857D01*
X84091697Y-118981777D01*
X84090596Y-118981943D01*
X84070719Y-118971831D01*
X84024977Y-118943483D01*
X83957917Y-118899877D01*
X83874084Y-118843994D01*
X83778026Y-118778813D01*
X83722850Y-118740921D01*
X83621681Y-118671875D01*
X83529830Y-118610550D01*
X83451944Y-118559937D01*
X83392669Y-118523029D01*
X83356651Y-118502818D01*
X83348577Y-118499899D01*
X83329784Y-118512447D01*
X83289657Y-118547137D01*
X83232693Y-118599537D01*
X83163385Y-118665216D01*
X83086231Y-118739744D01*
X83005725Y-118818687D01*
X82926363Y-118897617D01*
X82852640Y-118972100D01*
X82789052Y-119037706D01*
X82740094Y-119090004D01*
X82710261Y-119124561D01*
X82703142Y-119136122D01*
X82713153Y-119154946D01*
X82741278Y-119199969D01*
X82784654Y-119266813D01*
X82840418Y-119351101D01*
X82905706Y-119448456D01*
X82955446Y-119521893D01*
X83207751Y-119892933D01*
X82952755Y-120511505D01*
X82508131Y-120595325D01*
X82063507Y-120679146D01*
X82063507Y-121604594D01*
X82508131Y-121688414D01*
G36*
X120608131Y-103908414D02*
G01*
X121052755Y-103992235D01*
X121180253Y-104301520D01*
X121307751Y-104610806D01*
X121055446Y-104981846D01*
X120985196Y-105085757D01*
X120922472Y-105179687D01*
X120870138Y-105259252D01*
X120831057Y-105320070D01*
X120808093Y-105357757D01*
X120803142Y-105368021D01*
X120815876Y-105386510D01*
X120851082Y-105426020D01*
X120904262Y-105482122D01*
X120970918Y-105550387D01*
X121046554Y-105626386D01*
X121126672Y-105705692D01*
X121206774Y-105783875D01*
X121282364Y-105856507D01*
X121348945Y-105919159D01*
X121402018Y-105967403D01*
X121437087Y-105996810D01*
X121448823Y-106003841D01*
X121470460Y-105993723D01*
X121517862Y-105965359D01*
X121586393Y-105921729D01*
X121671415Y-105865818D01*
X121768293Y-105800606D01*
X121823550Y-105762819D01*
X121924448Y-105693943D01*
X122015499Y-105632740D01*
X122092170Y-105582178D01*
X122149928Y-105545228D01*
X122184243Y-105524858D01*
X122191454Y-105521797D01*
X122211948Y-105528736D01*
X122259713Y-105547651D01*
X122328032Y-105575687D01*
X122410189Y-105609991D01*
X122499470Y-105647709D01*
X122589158Y-105685987D01*
X122672538Y-105721970D01*
X122742894Y-105752806D01*
X122793510Y-105775639D01*
X122817671Y-105787617D01*
X122818622Y-105788324D01*
X122823236Y-105807131D01*
X122833528Y-105857218D01*
X122848487Y-105933393D01*
X122867101Y-106030465D01*
X122888359Y-106143243D01*
X122900618Y-106209042D01*
X122923562Y-106329550D01*
X122945395Y-106438397D01*
X122964922Y-106530076D01*
X122980948Y-106599081D01*
X122992279Y-106639904D01*
X122995874Y-106648111D01*
X123020206Y-106656148D01*
X123075159Y-106662633D01*
X123154308Y-106667570D01*
X123251226Y-106670964D01*
X123359487Y-106672818D01*
X123472665Y-106673138D01*
X123584335Y-106671927D01*
X123688068Y-106669190D01*
X123777441Y-106664931D01*
X123846026Y-106659155D01*
X123887397Y-106651867D01*
X123896010Y-106647495D01*
X123906333Y-106621364D01*
X123921092Y-106565993D01*
X123938552Y-106488707D01*
X123956980Y-106396830D01*
X123962941Y-106364758D01*
X123991266Y-106210124D01*
X124014076Y-106087975D01*
X124032280Y-105994273D01*
X124046783Y-105924984D01*
X124058492Y-105876071D01*
X124068315Y-105843497D01*
X124077156Y-105823228D01*
X124085924Y-105811226D01*
X124087657Y-105809547D01*
X124115571Y-105792784D01*
X124169895Y-105767214D01*
X124243977Y-105735388D01*
X124331165Y-105699860D01*
X124424808Y-105663183D01*
X124518252Y-105627911D01*
X124604847Y-105596596D01*
X124677940Y-105571793D01*
X124730878Y-105556054D01*
X124757011Y-105551932D01*
X124757926Y-105552276D01*
X124779286Y-105566241D01*
X124826284Y-105597922D01*
X124894027Y-105643991D01*
X124977623Y-105701118D01*
X125072182Y-105765973D01*
X125099054Y-105784443D01*
X125196475Y-105850299D01*
X125285363Y-105908250D01*
X125360612Y-105955138D01*
X125417120Y-105987807D01*
X125449781Y-106003100D01*
X125453793Y-106003841D01*
X125474884Y-105990992D01*
X125516664Y-105955488D01*
X125574645Y-105901893D01*
X125644335Y-105834771D01*
X125721245Y-105758687D01*
X125800883Y-105678204D01*
X125878761Y-105597887D01*
X125950386Y-105522299D01*
X126011270Y-105456005D01*
X126056921Y-105403569D01*
X126082850Y-105369555D01*
X126087083Y-105360145D01*
X126077112Y-105338243D01*
X126050220Y-105293400D01*
X126010936Y-105232921D01*
X125979317Y-105186389D01*
X125921298Y-105102075D01*
X125852984Y-105002226D01*
X125784779Y-104902073D01*
X125748275Y-104848227D01*
X125625000Y-104665971D01*
X125707720Y-104512981D01*
X125743959Y-104443282D01*
X125772126Y-104384014D01*
X125788191Y-104343911D01*
X125790426Y-104333703D01*
X125773922Y-104321429D01*
X125727282Y-104297213D01*
X125654809Y-104262863D01*
X125560806Y-104220188D01*
X125449574Y-104170994D01*
X125325415Y-104117090D01*
X125192632Y-104060284D01*
X125055527Y-104002382D01*
X124918402Y-103945193D01*
X124785558Y-103890524D01*
X124661298Y-103840184D01*
X124549925Y-103795980D01*
X124455739Y-103759719D01*
X124383044Y-103733209D01*
X124336141Y-103718258D01*
X124320033Y-103715854D01*
X124299486Y-103734911D01*
X124266133Y-103776636D01*
X124226902Y-103832306D01*
X124223799Y-103836978D01*
X124108623Y-103980864D01*
X123974253Y-104096883D01*
X123824984Y-104184030D01*
X123665113Y-104241299D01*
X123498937Y-104267686D01*
X123330752Y-104262185D01*
X123164855Y-104223790D01*
X123005542Y-104151495D01*
X122970687Y-104130226D01*
X122829937Y-104019596D01*
X122716914Y-103888902D01*
X122632203Y-103742664D01*
X122576394Y-103585408D01*
X122550074Y-103421657D01*
X122553830Y-103255933D01*
X122588250Y-103092762D01*
X122653923Y-102936665D01*
X122751435Y-102792167D01*
X122791013Y-102747469D01*
X122914903Y-102633712D01*
X123045324Y-102550818D01*
X123191515Y-102493956D01*
X123336288Y-102462287D01*
X123499060Y-102454469D01*
X123662640Y-102480538D01*
X123821498Y-102537845D01*
X123970106Y-102623744D01*
X124102935Y-102735586D01*
X124214456Y-102870723D01*
X124226211Y-102888483D01*
X124264708Y-102944750D01*
X124298063Y-102987523D01*
X124319360Y-103007972D01*
X124320033Y-103008269D01*
X124343071Y-103003879D01*
X124395357Y-102986476D01*
X124472590Y-102957868D01*
X124570468Y-102919865D01*
X124684691Y-102874274D01*
X124810958Y-102822903D01*
X124944967Y-102767562D01*
X125082418Y-102710058D01*
X125219008Y-102652201D01*
X125350437Y-102595798D01*
X125472405Y-102542658D01*
X125580609Y-102494590D01*
X125670749Y-102453401D01*
X125738523Y-102420901D01*
X125779630Y-102398897D01*
X125790426Y-102390036D01*
X125782019Y-102362960D01*
X125759472Y-102312297D01*
X125726813Y-102246783D01*
X125707720Y-102210759D01*
X125625000Y-102057768D01*
X125748275Y-101875512D01*
X125811428Y-101782475D01*
X125880927Y-101680615D01*
X125946365Y-101585162D01*
X125979317Y-101537350D01*
X126024473Y-101470105D01*
X126060257Y-101413164D01*
X126082138Y-101373954D01*
X126086763Y-101361219D01*
X126074285Y-101342683D01*
X126039452Y-101301659D01*
X125985878Y-101242125D01*
X125917183Y-101168058D01*
X125836981Y-101083435D01*
X125785486Y-101029915D01*
X125693486Y-100936281D01*
X125611199Y-100855359D01*
X125542145Y-100790423D01*
X125489844Y-100744742D01*
X125457816Y-100721589D01*
X125451316Y-100719368D01*
X125426594Y-100729676D01*
X125376605Y-100758161D01*
X125306412Y-100801663D01*
X125221075Y-100857023D01*
X125125656Y-100921080D01*
X125099054Y-100939297D01*
X125002367Y-101005673D01*
X124915317Y-101065222D01*
X124842795Y-101114616D01*
X124789693Y-101150525D01*
X124760903Y-101169619D01*
X124757926Y-101171464D01*
X124734982Y-101168705D01*
X124684536Y-101154062D01*
X124613241Y-101130087D01*
X124527747Y-101099334D01*
X124434707Y-101064356D01*
X124340774Y-101027707D01*
X124252599Y-100991939D01*
X124176834Y-100959606D01*
X124120131Y-100933262D01*
X124089143Y-100915458D01*
X124087657Y-100914193D01*
X124078801Y-100903306D01*
X124070043Y-100884918D01*
X124060477Y-100854994D01*
X124049196Y-100809497D01*
X124035293Y-100744391D01*
X124017863Y-100655639D01*
X123995998Y-100539207D01*
X123968791Y-100391058D01*
X123962941Y-100358982D01*
X123944574Y-100263914D01*
X123926605Y-100181035D01*
X123910769Y-100117670D01*
X123898800Y-100081142D01*
X123896010Y-100076244D01*
X123871272Y-100068173D01*
X123815990Y-100061613D01*
X123736589Y-100056567D01*
X123639496Y-100053041D01*
X123531138Y-100051039D01*
X123417940Y-100050564D01*
X123306328Y-100051623D01*
X123202729Y-100054218D01*
X123113568Y-100058354D01*
X123045272Y-100064037D01*
X123004266Y-100071269D01*
X122995874Y-100075629D01*
X122987408Y-100099902D01*
X122973635Y-100155174D01*
X122955750Y-100235938D01*
X122934948Y-100336688D01*
X122912423Y-100451917D01*
X122900618Y-100514698D01*
X122878351Y-100633813D01*
X122858179Y-100740035D01*
X122841115Y-100828173D01*
X122828169Y-100893034D01*
X122820355Y-100929426D01*
X122818622Y-100935416D01*
X122799090Y-100945539D01*
X122752043Y-100966938D01*
X122684203Y-100996761D01*
X122602291Y-101032155D01*
X122513028Y-101070268D01*
X122423135Y-101108247D01*
X122339335Y-101143240D01*
X122268347Y-101172394D01*
X122216894Y-101192857D01*
X122191697Y-101201777D01*
X122190596Y-101201943D01*
X122170719Y-101191831D01*
X122124977Y-101163483D01*
X122057917Y-101119877D01*
X121974084Y-101063994D01*
X121878026Y-100998813D01*
X121822850Y-100960921D01*
X121721681Y-100891875D01*
X121629830Y-100830550D01*
X121551944Y-100779937D01*
X121492669Y-100743029D01*
X121456651Y-100722818D01*
X121448577Y-100719899D01*
X121429784Y-100732447D01*
X121389657Y-100767137D01*
X121332693Y-100819537D01*
X121263385Y-100885216D01*
X121186231Y-100959744D01*
X121105725Y-101038687D01*
X121026363Y-101117617D01*
X120952640Y-101192100D01*
X120889052Y-101257706D01*
X120840094Y-101310004D01*
X120810261Y-101344561D01*
X120803142Y-101356122D01*
X120813153Y-101374946D01*
X120841278Y-101419969D01*
X120884654Y-101486813D01*
X120940418Y-101571101D01*
X121005706Y-101668456D01*
X121055446Y-101741893D01*
X121307751Y-102112933D01*
X121052755Y-102731505D01*
X120608131Y-102815325D01*
X120163507Y-102899146D01*
X120163507Y-103824594D01*
X120608131Y-103908414D01*
G37*
X120608131Y-103908414D02*
X121052755Y-103992235D01*
X121180253Y-104301520D01*
X121307751Y-104610806D01*
X121055446Y-104981846D01*
X120985196Y-105085757D01*
X120922472Y-105179687D01*
X120870138Y-105259252D01*
X120831057Y-105320070D01*
X120808093Y-105357757D01*
X120803142Y-105368021D01*
X120815876Y-105386510D01*
X120851082Y-105426020D01*
X120904262Y-105482122D01*
X120970918Y-105550387D01*
X121046554Y-105626386D01*
X121126672Y-105705692D01*
X121206774Y-105783875D01*
X121282364Y-105856507D01*
X121348945Y-105919159D01*
X121402018Y-105967403D01*
X121437087Y-105996810D01*
X121448823Y-106003841D01*
X121470460Y-105993723D01*
X121517862Y-105965359D01*
X121586393Y-105921729D01*
X121671415Y-105865818D01*
X121768293Y-105800606D01*
X121823550Y-105762819D01*
X121924448Y-105693943D01*
X122015499Y-105632740D01*
X122092170Y-105582178D01*
X122149928Y-105545228D01*
X122184243Y-105524858D01*
X122191454Y-105521797D01*
X122211948Y-105528736D01*
X122259713Y-105547651D01*
X122328032Y-105575687D01*
X122410189Y-105609991D01*
X122499470Y-105647709D01*
X122589158Y-105685987D01*
X122672538Y-105721970D01*
X122742894Y-105752806D01*
X122793510Y-105775639D01*
X122817671Y-105787617D01*
X122818622Y-105788324D01*
X122823236Y-105807131D01*
X122833528Y-105857218D01*
X122848487Y-105933393D01*
X122867101Y-106030465D01*
X122888359Y-106143243D01*
X122900618Y-106209042D01*
X122923562Y-106329550D01*
X122945395Y-106438397D01*
X122964922Y-106530076D01*
X122980948Y-106599081D01*
X122992279Y-106639904D01*
X122995874Y-106648111D01*
X123020206Y-106656148D01*
X123075159Y-106662633D01*
X123154308Y-106667570D01*
X123251226Y-106670964D01*
X123359487Y-106672818D01*
X123472665Y-106673138D01*
X123584335Y-106671927D01*
X123688068Y-106669190D01*
X123777441Y-106664931D01*
X123846026Y-106659155D01*
X123887397Y-106651867D01*
X123896010Y-106647495D01*
X123906333Y-106621364D01*
X123921092Y-106565993D01*
X123938552Y-106488707D01*
X123956980Y-106396830D01*
X123962941Y-106364758D01*
X123991266Y-106210124D01*
X124014076Y-106087975D01*
X124032280Y-105994273D01*
X124046783Y-105924984D01*
X124058492Y-105876071D01*
X124068315Y-105843497D01*
X124077156Y-105823228D01*
X124085924Y-105811226D01*
X124087657Y-105809547D01*
X124115571Y-105792784D01*
X124169895Y-105767214D01*
X124243977Y-105735388D01*
X124331165Y-105699860D01*
X124424808Y-105663183D01*
X124518252Y-105627911D01*
X124604847Y-105596596D01*
X124677940Y-105571793D01*
X124730878Y-105556054D01*
X124757011Y-105551932D01*
X124757926Y-105552276D01*
X124779286Y-105566241D01*
X124826284Y-105597922D01*
X124894027Y-105643991D01*
X124977623Y-105701118D01*
X125072182Y-105765973D01*
X125099054Y-105784443D01*
X125196475Y-105850299D01*
X125285363Y-105908250D01*
X125360612Y-105955138D01*
X125417120Y-105987807D01*
X125449781Y-106003100D01*
X125453793Y-106003841D01*
X125474884Y-105990992D01*
X125516664Y-105955488D01*
X125574645Y-105901893D01*
X125644335Y-105834771D01*
X125721245Y-105758687D01*
X125800883Y-105678204D01*
X125878761Y-105597887D01*
X125950386Y-105522299D01*
X126011270Y-105456005D01*
X126056921Y-105403569D01*
X126082850Y-105369555D01*
X126087083Y-105360145D01*
X126077112Y-105338243D01*
X126050220Y-105293400D01*
X126010936Y-105232921D01*
X125979317Y-105186389D01*
X125921298Y-105102075D01*
X125852984Y-105002226D01*
X125784779Y-104902073D01*
X125748275Y-104848227D01*
X125625000Y-104665971D01*
X125707720Y-104512981D01*
X125743959Y-104443282D01*
X125772126Y-104384014D01*
X125788191Y-104343911D01*
X125790426Y-104333703D01*
X125773922Y-104321429D01*
X125727282Y-104297213D01*
X125654809Y-104262863D01*
X125560806Y-104220188D01*
X125449574Y-104170994D01*
X125325415Y-104117090D01*
X125192632Y-104060284D01*
X125055527Y-104002382D01*
X124918402Y-103945193D01*
X124785558Y-103890524D01*
X124661298Y-103840184D01*
X124549925Y-103795980D01*
X124455739Y-103759719D01*
X124383044Y-103733209D01*
X124336141Y-103718258D01*
X124320033Y-103715854D01*
X124299486Y-103734911D01*
X124266133Y-103776636D01*
X124226902Y-103832306D01*
X124223799Y-103836978D01*
X124108623Y-103980864D01*
X123974253Y-104096883D01*
X123824984Y-104184030D01*
X123665113Y-104241299D01*
X123498937Y-104267686D01*
X123330752Y-104262185D01*
X123164855Y-104223790D01*
X123005542Y-104151495D01*
X122970687Y-104130226D01*
X122829937Y-104019596D01*
X122716914Y-103888902D01*
X122632203Y-103742664D01*
X122576394Y-103585408D01*
X122550074Y-103421657D01*
X122553830Y-103255933D01*
X122588250Y-103092762D01*
X122653923Y-102936665D01*
X122751435Y-102792167D01*
X122791013Y-102747469D01*
X122914903Y-102633712D01*
X123045324Y-102550818D01*
X123191515Y-102493956D01*
X123336288Y-102462287D01*
X123499060Y-102454469D01*
X123662640Y-102480538D01*
X123821498Y-102537845D01*
X123970106Y-102623744D01*
X124102935Y-102735586D01*
X124214456Y-102870723D01*
X124226211Y-102888483D01*
X124264708Y-102944750D01*
X124298063Y-102987523D01*
X124319360Y-103007972D01*
X124320033Y-103008269D01*
X124343071Y-103003879D01*
X124395357Y-102986476D01*
X124472590Y-102957868D01*
X124570468Y-102919865D01*
X124684691Y-102874274D01*
X124810958Y-102822903D01*
X124944967Y-102767562D01*
X125082418Y-102710058D01*
X125219008Y-102652201D01*
X125350437Y-102595798D01*
X125472405Y-102542658D01*
X125580609Y-102494590D01*
X125670749Y-102453401D01*
X125738523Y-102420901D01*
X125779630Y-102398897D01*
X125790426Y-102390036D01*
X125782019Y-102362960D01*
X125759472Y-102312297D01*
X125726813Y-102246783D01*
X125707720Y-102210759D01*
X125625000Y-102057768D01*
X125748275Y-101875512D01*
X125811428Y-101782475D01*
X125880927Y-101680615D01*
X125946365Y-101585162D01*
X125979317Y-101537350D01*
X126024473Y-101470105D01*
X126060257Y-101413164D01*
X126082138Y-101373954D01*
X126086763Y-101361219D01*
X126074285Y-101342683D01*
X126039452Y-101301659D01*
X125985878Y-101242125D01*
X125917183Y-101168058D01*
X125836981Y-101083435D01*
X125785486Y-101029915D01*
X125693486Y-100936281D01*
X125611199Y-100855359D01*
X125542145Y-100790423D01*
X125489844Y-100744742D01*
X125457816Y-100721589D01*
X125451316Y-100719368D01*
X125426594Y-100729676D01*
X125376605Y-100758161D01*
X125306412Y-100801663D01*
X125221075Y-100857023D01*
X125125656Y-100921080D01*
X125099054Y-100939297D01*
X125002367Y-101005673D01*
X124915317Y-101065222D01*
X124842795Y-101114616D01*
X124789693Y-101150525D01*
X124760903Y-101169619D01*
X124757926Y-101171464D01*
X124734982Y-101168705D01*
X124684536Y-101154062D01*
X124613241Y-101130087D01*
X124527747Y-101099334D01*
X124434707Y-101064356D01*
X124340774Y-101027707D01*
X124252599Y-100991939D01*
X124176834Y-100959606D01*
X124120131Y-100933262D01*
X124089143Y-100915458D01*
X124087657Y-100914193D01*
X124078801Y-100903306D01*
X124070043Y-100884918D01*
X124060477Y-100854994D01*
X124049196Y-100809497D01*
X124035293Y-100744391D01*
X124017863Y-100655639D01*
X123995998Y-100539207D01*
X123968791Y-100391058D01*
X123962941Y-100358982D01*
X123944574Y-100263914D01*
X123926605Y-100181035D01*
X123910769Y-100117670D01*
X123898800Y-100081142D01*
X123896010Y-100076244D01*
X123871272Y-100068173D01*
X123815990Y-100061613D01*
X123736589Y-100056567D01*
X123639496Y-100053041D01*
X123531138Y-100051039D01*
X123417940Y-100050564D01*
X123306328Y-100051623D01*
X123202729Y-100054218D01*
X123113568Y-100058354D01*
X123045272Y-100064037D01*
X123004266Y-100071269D01*
X122995874Y-100075629D01*
X122987408Y-100099902D01*
X122973635Y-100155174D01*
X122955750Y-100235938D01*
X122934948Y-100336688D01*
X122912423Y-100451917D01*
X122900618Y-100514698D01*
X122878351Y-100633813D01*
X122858179Y-100740035D01*
X122841115Y-100828173D01*
X122828169Y-100893034D01*
X122820355Y-100929426D01*
X122818622Y-100935416D01*
X122799090Y-100945539D01*
X122752043Y-100966938D01*
X122684203Y-100996761D01*
X122602291Y-101032155D01*
X122513028Y-101070268D01*
X122423135Y-101108247D01*
X122339335Y-101143240D01*
X122268347Y-101172394D01*
X122216894Y-101192857D01*
X122191697Y-101201777D01*
X122190596Y-101201943D01*
X122170719Y-101191831D01*
X122124977Y-101163483D01*
X122057917Y-101119877D01*
X121974084Y-101063994D01*
X121878026Y-100998813D01*
X121822850Y-100960921D01*
X121721681Y-100891875D01*
X121629830Y-100830550D01*
X121551944Y-100779937D01*
X121492669Y-100743029D01*
X121456651Y-100722818D01*
X121448577Y-100719899D01*
X121429784Y-100732447D01*
X121389657Y-100767137D01*
X121332693Y-100819537D01*
X121263385Y-100885216D01*
X121186231Y-100959744D01*
X121105725Y-101038687D01*
X121026363Y-101117617D01*
X120952640Y-101192100D01*
X120889052Y-101257706D01*
X120840094Y-101310004D01*
X120810261Y-101344561D01*
X120803142Y-101356122D01*
X120813153Y-101374946D01*
X120841278Y-101419969D01*
X120884654Y-101486813D01*
X120940418Y-101571101D01*
X121005706Y-101668456D01*
X121055446Y-101741893D01*
X121307751Y-102112933D01*
X121052755Y-102731505D01*
X120608131Y-102815325D01*
X120163507Y-102899146D01*
X120163507Y-103824594D01*
X120608131Y-103908414D01*
G36*
X82508131Y-103908414D02*
G01*
X82952755Y-103992235D01*
X83080253Y-104301520D01*
X83207751Y-104610806D01*
X82955446Y-104981846D01*
X82885196Y-105085757D01*
X82822472Y-105179687D01*
X82770138Y-105259252D01*
X82731057Y-105320070D01*
X82708093Y-105357757D01*
X82703142Y-105368021D01*
X82715876Y-105386510D01*
X82751082Y-105426020D01*
X82804262Y-105482122D01*
X82870918Y-105550387D01*
X82946554Y-105626386D01*
X83026672Y-105705692D01*
X83106774Y-105783875D01*
X83182364Y-105856507D01*
X83248945Y-105919159D01*
X83302018Y-105967403D01*
X83337087Y-105996810D01*
X83348823Y-106003841D01*
X83370460Y-105993723D01*
X83417862Y-105965359D01*
X83486393Y-105921729D01*
X83571415Y-105865818D01*
X83668293Y-105800606D01*
X83723550Y-105762819D01*
X83824448Y-105693943D01*
X83915499Y-105632740D01*
X83992170Y-105582178D01*
X84049928Y-105545228D01*
X84084243Y-105524858D01*
X84091454Y-105521797D01*
X84111948Y-105528736D01*
X84159713Y-105547651D01*
X84228032Y-105575687D01*
X84310189Y-105609991D01*
X84399470Y-105647709D01*
X84489158Y-105685987D01*
X84572538Y-105721970D01*
X84642894Y-105752806D01*
X84693510Y-105775639D01*
X84717671Y-105787617D01*
X84718622Y-105788324D01*
X84723236Y-105807131D01*
X84733528Y-105857218D01*
X84748487Y-105933393D01*
X84767101Y-106030465D01*
X84788359Y-106143243D01*
X84800618Y-106209042D01*
X84823562Y-106329550D01*
X84845395Y-106438397D01*
X84864922Y-106530076D01*
X84880948Y-106599081D01*
X84892279Y-106639904D01*
X84895874Y-106648111D01*
X84920206Y-106656148D01*
X84975159Y-106662633D01*
X85054308Y-106667570D01*
X85151226Y-106670964D01*
X85259487Y-106672818D01*
X85372665Y-106673138D01*
X85484335Y-106671927D01*
X85588068Y-106669190D01*
X85677441Y-106664931D01*
X85746026Y-106659155D01*
X85787397Y-106651867D01*
X85796010Y-106647495D01*
X85806333Y-106621364D01*
X85821092Y-106565993D01*
X85838552Y-106488707D01*
X85856980Y-106396830D01*
X85862941Y-106364758D01*
X85891266Y-106210124D01*
X85914076Y-106087975D01*
X85932280Y-105994273D01*
X85946783Y-105924984D01*
X85958492Y-105876071D01*
X85968315Y-105843497D01*
X85977156Y-105823228D01*
X85985924Y-105811226D01*
X85987657Y-105809547D01*
X86015571Y-105792784D01*
X86069895Y-105767214D01*
X86143977Y-105735388D01*
X86231165Y-105699860D01*
X86324808Y-105663183D01*
X86418252Y-105627911D01*
X86504847Y-105596596D01*
X86577940Y-105571793D01*
X86630878Y-105556054D01*
X86657011Y-105551932D01*
X86657926Y-105552276D01*
X86679286Y-105566241D01*
X86726284Y-105597922D01*
X86794027Y-105643991D01*
X86877623Y-105701118D01*
X86972182Y-105765973D01*
X86999054Y-105784443D01*
X87096475Y-105850299D01*
X87185363Y-105908250D01*
X87260612Y-105955138D01*
X87317120Y-105987807D01*
X87349781Y-106003100D01*
X87353793Y-106003841D01*
X87374884Y-105990992D01*
X87416664Y-105955488D01*
X87474645Y-105901893D01*
X87544335Y-105834771D01*
X87621245Y-105758687D01*
X87700883Y-105678204D01*
X87778761Y-105597887D01*
X87850386Y-105522299D01*
X87911270Y-105456005D01*
X87956921Y-105403569D01*
X87982850Y-105369555D01*
X87987083Y-105360145D01*
X87977112Y-105338243D01*
X87950220Y-105293400D01*
X87910936Y-105232921D01*
X87879317Y-105186389D01*
X87821298Y-105102075D01*
X87752984Y-105002226D01*
X87684779Y-104902073D01*
X87648275Y-104848227D01*
X87525000Y-104665971D01*
X87607720Y-104512981D01*
X87643959Y-104443282D01*
X87672126Y-104384014D01*
X87688191Y-104343911D01*
X87690426Y-104333703D01*
X87673922Y-104321429D01*
X87627282Y-104297213D01*
X87554809Y-104262863D01*
X87460806Y-104220188D01*
X87349574Y-104170994D01*
X87225415Y-104117090D01*
X87092632Y-104060284D01*
X86955527Y-104002382D01*
X86818402Y-103945193D01*
X86685558Y-103890524D01*
X86561298Y-103840184D01*
X86449925Y-103795980D01*
X86355739Y-103759719D01*
X86283044Y-103733209D01*
X86236141Y-103718258D01*
X86220033Y-103715854D01*
X86199486Y-103734911D01*
X86166133Y-103776636D01*
X86126902Y-103832306D01*
X86123799Y-103836978D01*
X86008623Y-103980864D01*
X85874253Y-104096883D01*
X85724984Y-104184030D01*
X85565113Y-104241299D01*
X85398937Y-104267686D01*
X85230752Y-104262185D01*
X85064855Y-104223790D01*
X84905542Y-104151495D01*
X84870687Y-104130226D01*
X84729937Y-104019596D01*
X84616914Y-103888902D01*
X84532203Y-103742664D01*
X84476394Y-103585408D01*
X84450074Y-103421657D01*
X84453830Y-103255933D01*
X84488250Y-103092762D01*
X84553923Y-102936665D01*
X84651435Y-102792167D01*
X84691013Y-102747469D01*
X84814903Y-102633712D01*
X84945324Y-102550818D01*
X85091515Y-102493956D01*
X85236288Y-102462287D01*
X85399060Y-102454469D01*
X85562640Y-102480538D01*
X85721498Y-102537845D01*
X85870106Y-102623744D01*
X86002935Y-102735586D01*
X86114456Y-102870723D01*
X86126211Y-102888483D01*
X86164708Y-102944750D01*
X86198063Y-102987523D01*
X86219360Y-103007972D01*
X86220033Y-103008269D01*
X86243071Y-103003879D01*
X86295357Y-102986476D01*
X86372590Y-102957868D01*
X86470468Y-102919865D01*
X86584691Y-102874274D01*
X86710958Y-102822903D01*
X86844967Y-102767562D01*
X86982418Y-102710058D01*
X87119008Y-102652201D01*
X87250437Y-102595798D01*
X87372405Y-102542658D01*
X87480609Y-102494590D01*
X87570749Y-102453401D01*
X87638523Y-102420901D01*
X87679630Y-102398897D01*
X87690426Y-102390036D01*
X87682019Y-102362960D01*
X87659472Y-102312297D01*
X87626813Y-102246783D01*
X87607720Y-102210759D01*
X87525000Y-102057768D01*
X87648275Y-101875512D01*
X87711428Y-101782475D01*
X87780927Y-101680615D01*
X87846365Y-101585162D01*
X87879317Y-101537350D01*
X87924473Y-101470105D01*
X87960257Y-101413164D01*
X87982138Y-101373954D01*
X87986763Y-101361219D01*
X87974285Y-101342683D01*
X87939452Y-101301659D01*
X87885878Y-101242125D01*
X87817183Y-101168058D01*
X87736981Y-101083435D01*
X87685486Y-101029915D01*
X87593486Y-100936281D01*
X87511199Y-100855359D01*
X87442145Y-100790423D01*
X87389844Y-100744742D01*
X87357816Y-100721589D01*
X87351316Y-100719368D01*
X87326594Y-100729676D01*
X87276605Y-100758161D01*
X87206412Y-100801663D01*
X87121075Y-100857023D01*
X87025656Y-100921080D01*
X86999054Y-100939297D01*
X86902367Y-101005673D01*
X86815317Y-101065222D01*
X86742795Y-101114616D01*
X86689693Y-101150525D01*
X86660903Y-101169619D01*
X86657926Y-101171464D01*
X86634982Y-101168705D01*
X86584536Y-101154062D01*
X86513241Y-101130087D01*
X86427747Y-101099334D01*
X86334707Y-101064356D01*
X86240774Y-101027707D01*
X86152599Y-100991939D01*
X86076834Y-100959606D01*
X86020131Y-100933262D01*
X85989143Y-100915458D01*
X85987657Y-100914193D01*
X85978801Y-100903306D01*
X85970043Y-100884918D01*
X85960477Y-100854994D01*
X85949196Y-100809497D01*
X85935293Y-100744391D01*
X85917863Y-100655639D01*
X85895998Y-100539207D01*
X85868791Y-100391058D01*
X85862941Y-100358982D01*
X85844574Y-100263914D01*
X85826605Y-100181035D01*
X85810769Y-100117670D01*
X85798800Y-100081142D01*
X85796010Y-100076244D01*
X85771272Y-100068173D01*
X85715990Y-100061613D01*
X85636589Y-100056567D01*
X85539496Y-100053041D01*
X85431138Y-100051039D01*
X85317940Y-100050564D01*
X85206328Y-100051623D01*
X85102729Y-100054218D01*
X85013568Y-100058354D01*
X84945272Y-100064037D01*
X84904266Y-100071269D01*
X84895874Y-100075629D01*
X84887408Y-100099902D01*
X84873635Y-100155174D01*
X84855750Y-100235938D01*
X84834948Y-100336688D01*
X84812423Y-100451917D01*
X84800618Y-100514698D01*
X84778351Y-100633813D01*
X84758179Y-100740035D01*
X84741115Y-100828173D01*
X84728169Y-100893034D01*
X84720355Y-100929426D01*
X84718622Y-100935416D01*
X84699090Y-100945539D01*
X84652043Y-100966938D01*
X84584203Y-100996761D01*
X84502291Y-101032155D01*
X84413028Y-101070268D01*
X84323135Y-101108247D01*
X84239335Y-101143240D01*
X84168347Y-101172394D01*
X84116894Y-101192857D01*
X84091697Y-101201777D01*
X84090596Y-101201943D01*
X84070719Y-101191831D01*
X84024977Y-101163483D01*
X83957917Y-101119877D01*
X83874084Y-101063994D01*
X83778026Y-100998813D01*
X83722850Y-100960921D01*
X83621681Y-100891875D01*
X83529830Y-100830550D01*
X83451944Y-100779937D01*
X83392669Y-100743029D01*
X83356651Y-100722818D01*
X83348577Y-100719899D01*
X83329784Y-100732447D01*
X83289657Y-100767137D01*
X83232693Y-100819537D01*
X83163385Y-100885216D01*
X83086231Y-100959744D01*
X83005725Y-101038687D01*
X82926363Y-101117617D01*
X82852640Y-101192100D01*
X82789052Y-101257706D01*
X82740094Y-101310004D01*
X82710261Y-101344561D01*
X82703142Y-101356122D01*
X82713153Y-101374946D01*
X82741278Y-101419969D01*
X82784654Y-101486813D01*
X82840418Y-101571101D01*
X82905706Y-101668456D01*
X82955446Y-101741893D01*
X83207751Y-102112933D01*
X82952755Y-102731505D01*
X82508131Y-102815325D01*
X82063507Y-102899146D01*
X82063507Y-103824594D01*
X82508131Y-103908414D01*
G37*
X82508131Y-103908414D02*
X82952755Y-103992235D01*
X83080253Y-104301520D01*
X83207751Y-104610806D01*
X82955446Y-104981846D01*
X82885196Y-105085757D01*
X82822472Y-105179687D01*
X82770138Y-105259252D01*
X82731057Y-105320070D01*
X82708093Y-105357757D01*
X82703142Y-105368021D01*
X82715876Y-105386510D01*
X82751082Y-105426020D01*
X82804262Y-105482122D01*
X82870918Y-105550387D01*
X82946554Y-105626386D01*
X83026672Y-105705692D01*
X83106774Y-105783875D01*
X83182364Y-105856507D01*
X83248945Y-105919159D01*
X83302018Y-105967403D01*
X83337087Y-105996810D01*
X83348823Y-106003841D01*
X83370460Y-105993723D01*
X83417862Y-105965359D01*
X83486393Y-105921729D01*
X83571415Y-105865818D01*
X83668293Y-105800606D01*
X83723550Y-105762819D01*
X83824448Y-105693943D01*
X83915499Y-105632740D01*
X83992170Y-105582178D01*
X84049928Y-105545228D01*
X84084243Y-105524858D01*
X84091454Y-105521797D01*
X84111948Y-105528736D01*
X84159713Y-105547651D01*
X84228032Y-105575687D01*
X84310189Y-105609991D01*
X84399470Y-105647709D01*
X84489158Y-105685987D01*
X84572538Y-105721970D01*
X84642894Y-105752806D01*
X84693510Y-105775639D01*
X84717671Y-105787617D01*
X84718622Y-105788324D01*
X84723236Y-105807131D01*
X84733528Y-105857218D01*
X84748487Y-105933393D01*
X84767101Y-106030465D01*
X84788359Y-106143243D01*
X84800618Y-106209042D01*
X84823562Y-106329550D01*
X84845395Y-106438397D01*
X84864922Y-106530076D01*
X84880948Y-106599081D01*
X84892279Y-106639904D01*
X84895874Y-106648111D01*
X84920206Y-106656148D01*
X84975159Y-106662633D01*
X85054308Y-106667570D01*
X85151226Y-106670964D01*
X85259487Y-106672818D01*
X85372665Y-106673138D01*
X85484335Y-106671927D01*
X85588068Y-106669190D01*
X85677441Y-106664931D01*
X85746026Y-106659155D01*
X85787397Y-106651867D01*
X85796010Y-106647495D01*
X85806333Y-106621364D01*
X85821092Y-106565993D01*
X85838552Y-106488707D01*
X85856980Y-106396830D01*
X85862941Y-106364758D01*
X85891266Y-106210124D01*
X85914076Y-106087975D01*
X85932280Y-105994273D01*
X85946783Y-105924984D01*
X85958492Y-105876071D01*
X85968315Y-105843497D01*
X85977156Y-105823228D01*
X85985924Y-105811226D01*
X85987657Y-105809547D01*
X86015571Y-105792784D01*
X86069895Y-105767214D01*
X86143977Y-105735388D01*
X86231165Y-105699860D01*
X86324808Y-105663183D01*
X86418252Y-105627911D01*
X86504847Y-105596596D01*
X86577940Y-105571793D01*
X86630878Y-105556054D01*
X86657011Y-105551932D01*
X86657926Y-105552276D01*
X86679286Y-105566241D01*
X86726284Y-105597922D01*
X86794027Y-105643991D01*
X86877623Y-105701118D01*
X86972182Y-105765973D01*
X86999054Y-105784443D01*
X87096475Y-105850299D01*
X87185363Y-105908250D01*
X87260612Y-105955138D01*
X87317120Y-105987807D01*
X87349781Y-106003100D01*
X87353793Y-106003841D01*
X87374884Y-105990992D01*
X87416664Y-105955488D01*
X87474645Y-105901893D01*
X87544335Y-105834771D01*
X87621245Y-105758687D01*
X87700883Y-105678204D01*
X87778761Y-105597887D01*
X87850386Y-105522299D01*
X87911270Y-105456005D01*
X87956921Y-105403569D01*
X87982850Y-105369555D01*
X87987083Y-105360145D01*
X87977112Y-105338243D01*
X87950220Y-105293400D01*
X87910936Y-105232921D01*
X87879317Y-105186389D01*
X87821298Y-105102075D01*
X87752984Y-105002226D01*
X87684779Y-104902073D01*
X87648275Y-104848227D01*
X87525000Y-104665971D01*
X87607720Y-104512981D01*
X87643959Y-104443282D01*
X87672126Y-104384014D01*
X87688191Y-104343911D01*
X87690426Y-104333703D01*
X87673922Y-104321429D01*
X87627282Y-104297213D01*
X87554809Y-104262863D01*
X87460806Y-104220188D01*
X87349574Y-104170994D01*
X87225415Y-104117090D01*
X87092632Y-104060284D01*
X86955527Y-104002382D01*
X86818402Y-103945193D01*
X86685558Y-103890524D01*
X86561298Y-103840184D01*
X86449925Y-103795980D01*
X86355739Y-103759719D01*
X86283044Y-103733209D01*
X86236141Y-103718258D01*
X86220033Y-103715854D01*
X86199486Y-103734911D01*
X86166133Y-103776636D01*
X86126902Y-103832306D01*
X86123799Y-103836978D01*
X86008623Y-103980864D01*
X85874253Y-104096883D01*
X85724984Y-104184030D01*
X85565113Y-104241299D01*
X85398937Y-104267686D01*
X85230752Y-104262185D01*
X85064855Y-104223790D01*
X84905542Y-104151495D01*
X84870687Y-104130226D01*
X84729937Y-104019596D01*
X84616914Y-103888902D01*
X84532203Y-103742664D01*
X84476394Y-103585408D01*
X84450074Y-103421657D01*
X84453830Y-103255933D01*
X84488250Y-103092762D01*
X84553923Y-102936665D01*
X84651435Y-102792167D01*
X84691013Y-102747469D01*
X84814903Y-102633712D01*
X84945324Y-102550818D01*
X85091515Y-102493956D01*
X85236288Y-102462287D01*
X85399060Y-102454469D01*
X85562640Y-102480538D01*
X85721498Y-102537845D01*
X85870106Y-102623744D01*
X86002935Y-102735586D01*
X86114456Y-102870723D01*
X86126211Y-102888483D01*
X86164708Y-102944750D01*
X86198063Y-102987523D01*
X86219360Y-103007972D01*
X86220033Y-103008269D01*
X86243071Y-103003879D01*
X86295357Y-102986476D01*
X86372590Y-102957868D01*
X86470468Y-102919865D01*
X86584691Y-102874274D01*
X86710958Y-102822903D01*
X86844967Y-102767562D01*
X86982418Y-102710058D01*
X87119008Y-102652201D01*
X87250437Y-102595798D01*
X87372405Y-102542658D01*
X87480609Y-102494590D01*
X87570749Y-102453401D01*
X87638523Y-102420901D01*
X87679630Y-102398897D01*
X87690426Y-102390036D01*
X87682019Y-102362960D01*
X87659472Y-102312297D01*
X87626813Y-102246783D01*
X87607720Y-102210759D01*
X87525000Y-102057768D01*
X87648275Y-101875512D01*
X87711428Y-101782475D01*
X87780927Y-101680615D01*
X87846365Y-101585162D01*
X87879317Y-101537350D01*
X87924473Y-101470105D01*
X87960257Y-101413164D01*
X87982138Y-101373954D01*
X87986763Y-101361219D01*
X87974285Y-101342683D01*
X87939452Y-101301659D01*
X87885878Y-101242125D01*
X87817183Y-101168058D01*
X87736981Y-101083435D01*
X87685486Y-101029915D01*
X87593486Y-100936281D01*
X87511199Y-100855359D01*
X87442145Y-100790423D01*
X87389844Y-100744742D01*
X87357816Y-100721589D01*
X87351316Y-100719368D01*
X87326594Y-100729676D01*
X87276605Y-100758161D01*
X87206412Y-100801663D01*
X87121075Y-100857023D01*
X87025656Y-100921080D01*
X86999054Y-100939297D01*
X86902367Y-101005673D01*
X86815317Y-101065222D01*
X86742795Y-101114616D01*
X86689693Y-101150525D01*
X86660903Y-101169619D01*
X86657926Y-101171464D01*
X86634982Y-101168705D01*
X86584536Y-101154062D01*
X86513241Y-101130087D01*
X86427747Y-101099334D01*
X86334707Y-101064356D01*
X86240774Y-101027707D01*
X86152599Y-100991939D01*
X86076834Y-100959606D01*
X86020131Y-100933262D01*
X85989143Y-100915458D01*
X85987657Y-100914193D01*
X85978801Y-100903306D01*
X85970043Y-100884918D01*
X85960477Y-100854994D01*
X85949196Y-100809497D01*
X85935293Y-100744391D01*
X85917863Y-100655639D01*
X85895998Y-100539207D01*
X85868791Y-100391058D01*
X85862941Y-100358982D01*
X85844574Y-100263914D01*
X85826605Y-100181035D01*
X85810769Y-100117670D01*
X85798800Y-100081142D01*
X85796010Y-100076244D01*
X85771272Y-100068173D01*
X85715990Y-100061613D01*
X85636589Y-100056567D01*
X85539496Y-100053041D01*
X85431138Y-100051039D01*
X85317940Y-100050564D01*
X85206328Y-100051623D01*
X85102729Y-100054218D01*
X85013568Y-100058354D01*
X84945272Y-100064037D01*
X84904266Y-100071269D01*
X84895874Y-100075629D01*
X84887408Y-100099902D01*
X84873635Y-100155174D01*
X84855750Y-100235938D01*
X84834948Y-100336688D01*
X84812423Y-100451917D01*
X84800618Y-100514698D01*
X84778351Y-100633813D01*
X84758179Y-100740035D01*
X84741115Y-100828173D01*
X84728169Y-100893034D01*
X84720355Y-100929426D01*
X84718622Y-100935416D01*
X84699090Y-100945539D01*
X84652043Y-100966938D01*
X84584203Y-100996761D01*
X84502291Y-101032155D01*
X84413028Y-101070268D01*
X84323135Y-101108247D01*
X84239335Y-101143240D01*
X84168347Y-101172394D01*
X84116894Y-101192857D01*
X84091697Y-101201777D01*
X84090596Y-101201943D01*
X84070719Y-101191831D01*
X84024977Y-101163483D01*
X83957917Y-101119877D01*
X83874084Y-101063994D01*
X83778026Y-100998813D01*
X83722850Y-100960921D01*
X83621681Y-100891875D01*
X83529830Y-100830550D01*
X83451944Y-100779937D01*
X83392669Y-100743029D01*
X83356651Y-100722818D01*
X83348577Y-100719899D01*
X83329784Y-100732447D01*
X83289657Y-100767137D01*
X83232693Y-100819537D01*
X83163385Y-100885216D01*
X83086231Y-100959744D01*
X83005725Y-101038687D01*
X82926363Y-101117617D01*
X82852640Y-101192100D01*
X82789052Y-101257706D01*
X82740094Y-101310004D01*
X82710261Y-101344561D01*
X82703142Y-101356122D01*
X82713153Y-101374946D01*
X82741278Y-101419969D01*
X82784654Y-101486813D01*
X82840418Y-101571101D01*
X82905706Y-101668456D01*
X82955446Y-101741893D01*
X83207751Y-102112933D01*
X82952755Y-102731505D01*
X82508131Y-102815325D01*
X82063507Y-102899146D01*
X82063507Y-103824594D01*
X82508131Y-103908414D01*
G36*
X120608131Y-86128414D02*
G01*
X121052755Y-86212235D01*
X121180253Y-86521520D01*
X121307751Y-86830806D01*
X121055446Y-87201846D01*
X120985196Y-87305757D01*
X120922472Y-87399687D01*
X120870138Y-87479252D01*
X120831057Y-87540070D01*
X120808093Y-87577757D01*
X120803142Y-87588021D01*
X120815876Y-87606510D01*
X120851082Y-87646020D01*
X120904262Y-87702122D01*
X120970918Y-87770387D01*
X121046554Y-87846386D01*
X121126672Y-87925692D01*
X121206774Y-88003875D01*
X121282364Y-88076507D01*
X121348945Y-88139159D01*
X121402018Y-88187403D01*
X121437087Y-88216810D01*
X121448823Y-88223841D01*
X121470460Y-88213723D01*
X121517862Y-88185359D01*
X121586393Y-88141729D01*
X121671415Y-88085818D01*
X121768293Y-88020606D01*
X121823550Y-87982819D01*
X121924448Y-87913943D01*
X122015499Y-87852740D01*
X122092170Y-87802178D01*
X122149928Y-87765228D01*
X122184243Y-87744858D01*
X122191454Y-87741797D01*
X122211948Y-87748736D01*
X122259713Y-87767651D01*
X122328032Y-87795687D01*
X122410189Y-87829991D01*
X122499470Y-87867709D01*
X122589158Y-87905987D01*
X122672538Y-87941970D01*
X122742894Y-87972806D01*
X122793510Y-87995639D01*
X122817671Y-88007617D01*
X122818622Y-88008324D01*
X122823236Y-88027131D01*
X122833528Y-88077218D01*
X122848487Y-88153393D01*
X122867101Y-88250465D01*
X122888359Y-88363243D01*
X122900618Y-88429042D01*
X122923562Y-88549550D01*
X122945395Y-88658397D01*
X122964922Y-88750076D01*
X122980948Y-88819081D01*
X122992279Y-88859904D01*
X122995874Y-88868111D01*
X123020206Y-88876148D01*
X123075159Y-88882633D01*
X123154308Y-88887570D01*
X123251226Y-88890964D01*
X123359487Y-88892818D01*
X123472665Y-88893138D01*
X123584335Y-88891927D01*
X123688068Y-88889190D01*
X123777441Y-88884931D01*
X123846026Y-88879155D01*
X123887397Y-88871867D01*
X123896010Y-88867495D01*
X123906333Y-88841364D01*
X123921092Y-88785993D01*
X123938552Y-88708707D01*
X123956980Y-88616830D01*
X123962941Y-88584758D01*
X123991266Y-88430124D01*
X124014076Y-88307975D01*
X124032280Y-88214273D01*
X124046783Y-88144984D01*
X124058492Y-88096071D01*
X124068315Y-88063497D01*
X124077156Y-88043228D01*
X124085924Y-88031226D01*
X124087657Y-88029547D01*
X124115571Y-88012784D01*
X124169895Y-87987214D01*
X124243977Y-87955388D01*
X124331165Y-87919860D01*
X124424808Y-87883183D01*
X124518252Y-87847911D01*
X124604847Y-87816596D01*
X124677940Y-87791793D01*
X124730878Y-87776054D01*
X124757011Y-87771932D01*
X124757926Y-87772276D01*
X124779286Y-87786241D01*
X124826284Y-87817922D01*
X124894027Y-87863991D01*
X124977623Y-87921118D01*
X125072182Y-87985973D01*
X125099054Y-88004443D01*
X125196475Y-88070299D01*
X125285363Y-88128250D01*
X125360612Y-88175138D01*
X125417120Y-88207807D01*
X125449781Y-88223100D01*
X125453793Y-88223841D01*
X125474884Y-88210992D01*
X125516664Y-88175488D01*
X125574645Y-88121893D01*
X125644335Y-88054771D01*
X125721245Y-87978687D01*
X125800883Y-87898204D01*
X125878761Y-87817887D01*
X125950386Y-87742299D01*
X126011270Y-87676005D01*
X126056921Y-87623569D01*
X126082850Y-87589555D01*
X126087083Y-87580145D01*
X126077112Y-87558243D01*
X126050220Y-87513400D01*
X126010936Y-87452921D01*
X125979317Y-87406389D01*
X125921298Y-87322075D01*
X125852984Y-87222226D01*
X125784779Y-87122073D01*
X125748275Y-87068227D01*
X125625000Y-86885971D01*
X125707720Y-86732981D01*
X125743959Y-86663282D01*
X125772126Y-86604014D01*
X125788191Y-86563911D01*
X125790426Y-86553703D01*
X125773922Y-86541429D01*
X125727282Y-86517213D01*
X125654809Y-86482863D01*
X125560806Y-86440188D01*
X125449574Y-86390994D01*
X125325415Y-86337090D01*
X125192632Y-86280284D01*
X125055527Y-86222382D01*
X124918402Y-86165193D01*
X124785558Y-86110524D01*
X124661298Y-86060184D01*
X124549925Y-86015980D01*
X124455739Y-85979719D01*
X124383044Y-85953209D01*
X124336141Y-85938258D01*
X124320033Y-85935854D01*
X124299486Y-85954911D01*
X124266133Y-85996636D01*
X124226902Y-86052306D01*
X124223799Y-86056978D01*
X124108623Y-86200864D01*
X123974253Y-86316883D01*
X123824984Y-86404030D01*
X123665113Y-86461299D01*
X123498937Y-86487686D01*
X123330752Y-86482185D01*
X123164855Y-86443790D01*
X123005542Y-86371495D01*
X122970687Y-86350226D01*
X122829937Y-86239596D01*
X122716914Y-86108902D01*
X122632203Y-85962664D01*
X122576394Y-85805408D01*
X122550074Y-85641657D01*
X122553830Y-85475933D01*
X122588250Y-85312762D01*
X122653923Y-85156665D01*
X122751435Y-85012167D01*
X122791013Y-84967469D01*
X122914903Y-84853712D01*
X123045324Y-84770818D01*
X123191515Y-84713956D01*
X123336288Y-84682287D01*
X123499060Y-84674469D01*
X123662640Y-84700538D01*
X123821498Y-84757845D01*
X123970106Y-84843744D01*
X124102935Y-84955586D01*
X124214456Y-85090723D01*
X124226211Y-85108483D01*
X124264708Y-85164750D01*
X124298063Y-85207523D01*
X124319360Y-85227972D01*
X124320033Y-85228269D01*
X124343071Y-85223879D01*
X124395357Y-85206476D01*
X124472590Y-85177868D01*
X124570468Y-85139865D01*
X124684691Y-85094274D01*
X124810958Y-85042903D01*
X124944967Y-84987562D01*
X125082418Y-84930058D01*
X125219008Y-84872201D01*
X125350437Y-84815798D01*
X125472405Y-84762658D01*
X125580609Y-84714590D01*
X125670749Y-84673401D01*
X125738523Y-84640901D01*
X125779630Y-84618897D01*
X125790426Y-84610036D01*
X125782019Y-84582960D01*
X125759472Y-84532297D01*
X125726813Y-84466783D01*
X125707720Y-84430759D01*
X125625000Y-84277768D01*
X125748275Y-84095512D01*
X125811428Y-84002475D01*
X125880927Y-83900615D01*
X125946365Y-83805162D01*
X125979317Y-83757350D01*
X126024473Y-83690105D01*
X126060257Y-83633164D01*
X126082138Y-83593954D01*
X126086763Y-83581219D01*
X126074285Y-83562683D01*
X126039452Y-83521659D01*
X125985878Y-83462125D01*
X125917183Y-83388058D01*
X125836981Y-83303435D01*
X125785486Y-83249915D01*
X125693486Y-83156281D01*
X125611199Y-83075359D01*
X125542145Y-83010423D01*
X125489844Y-82964742D01*
X125457816Y-82941589D01*
X125451316Y-82939368D01*
X125426594Y-82949676D01*
X125376605Y-82978161D01*
X125306412Y-83021663D01*
X125221075Y-83077023D01*
X125125656Y-83141080D01*
X125099054Y-83159297D01*
X125002367Y-83225673D01*
X124915317Y-83285222D01*
X124842795Y-83334616D01*
X124789693Y-83370525D01*
X124760903Y-83389619D01*
X124757926Y-83391464D01*
X124734982Y-83388705D01*
X124684536Y-83374062D01*
X124613241Y-83350087D01*
X124527747Y-83319334D01*
X124434707Y-83284356D01*
X124340774Y-83247707D01*
X124252599Y-83211939D01*
X124176834Y-83179606D01*
X124120131Y-83153262D01*
X124089143Y-83135458D01*
X124087657Y-83134193D01*
X124078801Y-83123306D01*
X124070043Y-83104918D01*
X124060477Y-83074994D01*
X124049196Y-83029497D01*
X124035293Y-82964391D01*
X124017863Y-82875639D01*
X123995998Y-82759207D01*
X123968791Y-82611058D01*
X123962941Y-82578982D01*
X123944574Y-82483914D01*
X123926605Y-82401035D01*
X123910769Y-82337670D01*
X123898800Y-82301142D01*
X123896010Y-82296244D01*
X123871272Y-82288173D01*
X123815990Y-82281613D01*
X123736589Y-82276567D01*
X123639496Y-82273041D01*
X123531138Y-82271039D01*
X123417940Y-82270564D01*
X123306328Y-82271623D01*
X123202729Y-82274218D01*
X123113568Y-82278354D01*
X123045272Y-82284037D01*
X123004266Y-82291269D01*
X122995874Y-82295629D01*
X122987408Y-82319902D01*
X122973635Y-82375174D01*
X122955750Y-82455938D01*
X122934948Y-82556688D01*
X122912423Y-82671917D01*
X122900618Y-82734698D01*
X122878351Y-82853813D01*
X122858179Y-82960035D01*
X122841115Y-83048173D01*
X122828169Y-83113034D01*
X122820355Y-83149426D01*
X122818622Y-83155416D01*
X122799090Y-83165539D01*
X122752043Y-83186938D01*
X122684203Y-83216761D01*
X122602291Y-83252155D01*
X122513028Y-83290268D01*
X122423135Y-83328247D01*
X122339335Y-83363240D01*
X122268347Y-83392394D01*
X122216894Y-83412857D01*
X122191697Y-83421777D01*
X122190596Y-83421943D01*
X122170719Y-83411831D01*
X122124977Y-83383483D01*
X122057917Y-83339877D01*
X121974084Y-83283994D01*
X121878026Y-83218813D01*
X121822850Y-83180921D01*
X121721681Y-83111875D01*
X121629830Y-83050550D01*
X121551944Y-82999937D01*
X121492669Y-82963029D01*
X121456651Y-82942818D01*
X121448577Y-82939899D01*
X121429784Y-82952447D01*
X121389657Y-82987137D01*
X121332693Y-83039537D01*
X121263385Y-83105216D01*
X121186231Y-83179744D01*
X121105725Y-83258687D01*
X121026363Y-83337617D01*
X120952640Y-83412100D01*
X120889052Y-83477706D01*
X120840094Y-83530004D01*
X120810261Y-83564561D01*
X120803142Y-83576122D01*
X120813153Y-83594946D01*
X120841278Y-83639969D01*
X120884654Y-83706813D01*
X120940418Y-83791101D01*
X121005706Y-83888456D01*
X121055446Y-83961893D01*
X121307751Y-84332933D01*
X121052755Y-84951505D01*
X120608131Y-85035325D01*
X120163507Y-85119146D01*
X120163507Y-86044594D01*
X120608131Y-86128414D01*
G37*
X120608131Y-86128414D02*
X121052755Y-86212235D01*
X121180253Y-86521520D01*
X121307751Y-86830806D01*
X121055446Y-87201846D01*
X120985196Y-87305757D01*
X120922472Y-87399687D01*
X120870138Y-87479252D01*
X120831057Y-87540070D01*
X120808093Y-87577757D01*
X120803142Y-87588021D01*
X120815876Y-87606510D01*
X120851082Y-87646020D01*
X120904262Y-87702122D01*
X120970918Y-87770387D01*
X121046554Y-87846386D01*
X121126672Y-87925692D01*
X121206774Y-88003875D01*
X121282364Y-88076507D01*
X121348945Y-88139159D01*
X121402018Y-88187403D01*
X121437087Y-88216810D01*
X121448823Y-88223841D01*
X121470460Y-88213723D01*
X121517862Y-88185359D01*
X121586393Y-88141729D01*
X121671415Y-88085818D01*
X121768293Y-88020606D01*
X121823550Y-87982819D01*
X121924448Y-87913943D01*
X122015499Y-87852740D01*
X122092170Y-87802178D01*
X122149928Y-87765228D01*
X122184243Y-87744858D01*
X122191454Y-87741797D01*
X122211948Y-87748736D01*
X122259713Y-87767651D01*
X122328032Y-87795687D01*
X122410189Y-87829991D01*
X122499470Y-87867709D01*
X122589158Y-87905987D01*
X122672538Y-87941970D01*
X122742894Y-87972806D01*
X122793510Y-87995639D01*
X122817671Y-88007617D01*
X122818622Y-88008324D01*
X122823236Y-88027131D01*
X122833528Y-88077218D01*
X122848487Y-88153393D01*
X122867101Y-88250465D01*
X122888359Y-88363243D01*
X122900618Y-88429042D01*
X122923562Y-88549550D01*
X122945395Y-88658397D01*
X122964922Y-88750076D01*
X122980948Y-88819081D01*
X122992279Y-88859904D01*
X122995874Y-88868111D01*
X123020206Y-88876148D01*
X123075159Y-88882633D01*
X123154308Y-88887570D01*
X123251226Y-88890964D01*
X123359487Y-88892818D01*
X123472665Y-88893138D01*
X123584335Y-88891927D01*
X123688068Y-88889190D01*
X123777441Y-88884931D01*
X123846026Y-88879155D01*
X123887397Y-88871867D01*
X123896010Y-88867495D01*
X123906333Y-88841364D01*
X123921092Y-88785993D01*
X123938552Y-88708707D01*
X123956980Y-88616830D01*
X123962941Y-88584758D01*
X123991266Y-88430124D01*
X124014076Y-88307975D01*
X124032280Y-88214273D01*
X124046783Y-88144984D01*
X124058492Y-88096071D01*
X124068315Y-88063497D01*
X124077156Y-88043228D01*
X124085924Y-88031226D01*
X124087657Y-88029547D01*
X124115571Y-88012784D01*
X124169895Y-87987214D01*
X124243977Y-87955388D01*
X124331165Y-87919860D01*
X124424808Y-87883183D01*
X124518252Y-87847911D01*
X124604847Y-87816596D01*
X124677940Y-87791793D01*
X124730878Y-87776054D01*
X124757011Y-87771932D01*
X124757926Y-87772276D01*
X124779286Y-87786241D01*
X124826284Y-87817922D01*
X124894027Y-87863991D01*
X124977623Y-87921118D01*
X125072182Y-87985973D01*
X125099054Y-88004443D01*
X125196475Y-88070299D01*
X125285363Y-88128250D01*
X125360612Y-88175138D01*
X125417120Y-88207807D01*
X125449781Y-88223100D01*
X125453793Y-88223841D01*
X125474884Y-88210992D01*
X125516664Y-88175488D01*
X125574645Y-88121893D01*
X125644335Y-88054771D01*
X125721245Y-87978687D01*
X125800883Y-87898204D01*
X125878761Y-87817887D01*
X125950386Y-87742299D01*
X126011270Y-87676005D01*
X126056921Y-87623569D01*
X126082850Y-87589555D01*
X126087083Y-87580145D01*
X126077112Y-87558243D01*
X126050220Y-87513400D01*
X126010936Y-87452921D01*
X125979317Y-87406389D01*
X125921298Y-87322075D01*
X125852984Y-87222226D01*
X125784779Y-87122073D01*
X125748275Y-87068227D01*
X125625000Y-86885971D01*
X125707720Y-86732981D01*
X125743959Y-86663282D01*
X125772126Y-86604014D01*
X125788191Y-86563911D01*
X125790426Y-86553703D01*
X125773922Y-86541429D01*
X125727282Y-86517213D01*
X125654809Y-86482863D01*
X125560806Y-86440188D01*
X125449574Y-86390994D01*
X125325415Y-86337090D01*
X125192632Y-86280284D01*
X125055527Y-86222382D01*
X124918402Y-86165193D01*
X124785558Y-86110524D01*
X124661298Y-86060184D01*
X124549925Y-86015980D01*
X124455739Y-85979719D01*
X124383044Y-85953209D01*
X124336141Y-85938258D01*
X124320033Y-85935854D01*
X124299486Y-85954911D01*
X124266133Y-85996636D01*
X124226902Y-86052306D01*
X124223799Y-86056978D01*
X124108623Y-86200864D01*
X123974253Y-86316883D01*
X123824984Y-86404030D01*
X123665113Y-86461299D01*
X123498937Y-86487686D01*
X123330752Y-86482185D01*
X123164855Y-86443790D01*
X123005542Y-86371495D01*
X122970687Y-86350226D01*
X122829937Y-86239596D01*
X122716914Y-86108902D01*
X122632203Y-85962664D01*
X122576394Y-85805408D01*
X122550074Y-85641657D01*
X122553830Y-85475933D01*
X122588250Y-85312762D01*
X122653923Y-85156665D01*
X122751435Y-85012167D01*
X122791013Y-84967469D01*
X122914903Y-84853712D01*
X123045324Y-84770818D01*
X123191515Y-84713956D01*
X123336288Y-84682287D01*
X123499060Y-84674469D01*
X123662640Y-84700538D01*
X123821498Y-84757845D01*
X123970106Y-84843744D01*
X124102935Y-84955586D01*
X124214456Y-85090723D01*
X124226211Y-85108483D01*
X124264708Y-85164750D01*
X124298063Y-85207523D01*
X124319360Y-85227972D01*
X124320033Y-85228269D01*
X124343071Y-85223879D01*
X124395357Y-85206476D01*
X124472590Y-85177868D01*
X124570468Y-85139865D01*
X124684691Y-85094274D01*
X124810958Y-85042903D01*
X124944967Y-84987562D01*
X125082418Y-84930058D01*
X125219008Y-84872201D01*
X125350437Y-84815798D01*
X125472405Y-84762658D01*
X125580609Y-84714590D01*
X125670749Y-84673401D01*
X125738523Y-84640901D01*
X125779630Y-84618897D01*
X125790426Y-84610036D01*
X125782019Y-84582960D01*
X125759472Y-84532297D01*
X125726813Y-84466783D01*
X125707720Y-84430759D01*
X125625000Y-84277768D01*
X125748275Y-84095512D01*
X125811428Y-84002475D01*
X125880927Y-83900615D01*
X125946365Y-83805162D01*
X125979317Y-83757350D01*
X126024473Y-83690105D01*
X126060257Y-83633164D01*
X126082138Y-83593954D01*
X126086763Y-83581219D01*
X126074285Y-83562683D01*
X126039452Y-83521659D01*
X125985878Y-83462125D01*
X125917183Y-83388058D01*
X125836981Y-83303435D01*
X125785486Y-83249915D01*
X125693486Y-83156281D01*
X125611199Y-83075359D01*
X125542145Y-83010423D01*
X125489844Y-82964742D01*
X125457816Y-82941589D01*
X125451316Y-82939368D01*
X125426594Y-82949676D01*
X125376605Y-82978161D01*
X125306412Y-83021663D01*
X125221075Y-83077023D01*
X125125656Y-83141080D01*
X125099054Y-83159297D01*
X125002367Y-83225673D01*
X124915317Y-83285222D01*
X124842795Y-83334616D01*
X124789693Y-83370525D01*
X124760903Y-83389619D01*
X124757926Y-83391464D01*
X124734982Y-83388705D01*
X124684536Y-83374062D01*
X124613241Y-83350087D01*
X124527747Y-83319334D01*
X124434707Y-83284356D01*
X124340774Y-83247707D01*
X124252599Y-83211939D01*
X124176834Y-83179606D01*
X124120131Y-83153262D01*
X124089143Y-83135458D01*
X124087657Y-83134193D01*
X124078801Y-83123306D01*
X124070043Y-83104918D01*
X124060477Y-83074994D01*
X124049196Y-83029497D01*
X124035293Y-82964391D01*
X124017863Y-82875639D01*
X123995998Y-82759207D01*
X123968791Y-82611058D01*
X123962941Y-82578982D01*
X123944574Y-82483914D01*
X123926605Y-82401035D01*
X123910769Y-82337670D01*
X123898800Y-82301142D01*
X123896010Y-82296244D01*
X123871272Y-82288173D01*
X123815990Y-82281613D01*
X123736589Y-82276567D01*
X123639496Y-82273041D01*
X123531138Y-82271039D01*
X123417940Y-82270564D01*
X123306328Y-82271623D01*
X123202729Y-82274218D01*
X123113568Y-82278354D01*
X123045272Y-82284037D01*
X123004266Y-82291269D01*
X122995874Y-82295629D01*
X122987408Y-82319902D01*
X122973635Y-82375174D01*
X122955750Y-82455938D01*
X122934948Y-82556688D01*
X122912423Y-82671917D01*
X122900618Y-82734698D01*
X122878351Y-82853813D01*
X122858179Y-82960035D01*
X122841115Y-83048173D01*
X122828169Y-83113034D01*
X122820355Y-83149426D01*
X122818622Y-83155416D01*
X122799090Y-83165539D01*
X122752043Y-83186938D01*
X122684203Y-83216761D01*
X122602291Y-83252155D01*
X122513028Y-83290268D01*
X122423135Y-83328247D01*
X122339335Y-83363240D01*
X122268347Y-83392394D01*
X122216894Y-83412857D01*
X122191697Y-83421777D01*
X122190596Y-83421943D01*
X122170719Y-83411831D01*
X122124977Y-83383483D01*
X122057917Y-83339877D01*
X121974084Y-83283994D01*
X121878026Y-83218813D01*
X121822850Y-83180921D01*
X121721681Y-83111875D01*
X121629830Y-83050550D01*
X121551944Y-82999937D01*
X121492669Y-82963029D01*
X121456651Y-82942818D01*
X121448577Y-82939899D01*
X121429784Y-82952447D01*
X121389657Y-82987137D01*
X121332693Y-83039537D01*
X121263385Y-83105216D01*
X121186231Y-83179744D01*
X121105725Y-83258687D01*
X121026363Y-83337617D01*
X120952640Y-83412100D01*
X120889052Y-83477706D01*
X120840094Y-83530004D01*
X120810261Y-83564561D01*
X120803142Y-83576122D01*
X120813153Y-83594946D01*
X120841278Y-83639969D01*
X120884654Y-83706813D01*
X120940418Y-83791101D01*
X121005706Y-83888456D01*
X121055446Y-83961893D01*
X121307751Y-84332933D01*
X121052755Y-84951505D01*
X120608131Y-85035325D01*
X120163507Y-85119146D01*
X120163507Y-86044594D01*
X120608131Y-86128414D01*
G36*
X82508131Y-86128414D02*
G01*
X82952755Y-86212235D01*
X83080253Y-86521520D01*
X83207751Y-86830806D01*
X82955446Y-87201846D01*
X82885196Y-87305757D01*
X82822472Y-87399687D01*
X82770138Y-87479252D01*
X82731057Y-87540070D01*
X82708093Y-87577757D01*
X82703142Y-87588021D01*
X82715876Y-87606510D01*
X82751082Y-87646020D01*
X82804262Y-87702122D01*
X82870918Y-87770387D01*
X82946554Y-87846386D01*
X83026672Y-87925692D01*
X83106774Y-88003875D01*
X83182364Y-88076507D01*
X83248945Y-88139159D01*
X83302018Y-88187403D01*
X83337087Y-88216810D01*
X83348823Y-88223841D01*
X83370460Y-88213723D01*
X83417862Y-88185359D01*
X83486393Y-88141729D01*
X83571415Y-88085818D01*
X83668293Y-88020606D01*
X83723550Y-87982819D01*
X83824448Y-87913943D01*
X83915499Y-87852740D01*
X83992170Y-87802178D01*
X84049928Y-87765228D01*
X84084243Y-87744858D01*
X84091454Y-87741797D01*
X84111948Y-87748736D01*
X84159713Y-87767651D01*
X84228032Y-87795687D01*
X84310189Y-87829991D01*
X84399470Y-87867709D01*
X84489158Y-87905987D01*
X84572538Y-87941970D01*
X84642894Y-87972806D01*
X84693510Y-87995639D01*
X84717671Y-88007617D01*
X84718622Y-88008324D01*
X84723236Y-88027131D01*
X84733528Y-88077218D01*
X84748487Y-88153393D01*
X84767101Y-88250465D01*
X84788359Y-88363243D01*
X84800618Y-88429042D01*
X84823562Y-88549550D01*
X84845395Y-88658397D01*
X84864922Y-88750076D01*
X84880948Y-88819081D01*
X84892279Y-88859904D01*
X84895874Y-88868111D01*
X84920206Y-88876148D01*
X84975159Y-88882633D01*
X85054308Y-88887570D01*
X85151226Y-88890964D01*
X85259487Y-88892818D01*
X85372665Y-88893138D01*
X85484335Y-88891927D01*
X85588068Y-88889190D01*
X85677441Y-88884931D01*
X85746026Y-88879155D01*
X85787397Y-88871867D01*
X85796010Y-88867495D01*
X85806333Y-88841364D01*
X85821092Y-88785993D01*
X85838552Y-88708707D01*
X85856980Y-88616830D01*
X85862941Y-88584758D01*
X85891266Y-88430124D01*
X85914076Y-88307975D01*
X85932280Y-88214273D01*
X85946783Y-88144984D01*
X85958492Y-88096071D01*
X85968315Y-88063497D01*
X85977156Y-88043228D01*
X85985924Y-88031226D01*
X85987657Y-88029547D01*
X86015571Y-88012784D01*
X86069895Y-87987214D01*
X86143977Y-87955388D01*
X86231165Y-87919860D01*
X86324808Y-87883183D01*
X86418252Y-87847911D01*
X86504847Y-87816596D01*
X86577940Y-87791793D01*
X86630878Y-87776054D01*
X86657011Y-87771932D01*
X86657926Y-87772276D01*
X86679286Y-87786241D01*
X86726284Y-87817922D01*
X86794027Y-87863991D01*
X86877623Y-87921118D01*
X86972182Y-87985973D01*
X86999054Y-88004443D01*
X87096475Y-88070299D01*
X87185363Y-88128250D01*
X87260612Y-88175138D01*
X87317120Y-88207807D01*
X87349781Y-88223100D01*
X87353793Y-88223841D01*
X87374884Y-88210992D01*
X87416664Y-88175488D01*
X87474645Y-88121893D01*
X87544335Y-88054771D01*
X87621245Y-87978687D01*
X87700883Y-87898204D01*
X87778761Y-87817887D01*
X87850386Y-87742299D01*
X87911270Y-87676005D01*
X87956921Y-87623569D01*
X87982850Y-87589555D01*
X87987083Y-87580145D01*
X87977112Y-87558243D01*
X87950220Y-87513400D01*
X87910936Y-87452921D01*
X87879317Y-87406389D01*
X87821298Y-87322075D01*
X87752984Y-87222226D01*
X87684779Y-87122073D01*
X87648275Y-87068227D01*
X87525000Y-86885971D01*
X87607720Y-86732981D01*
X87643959Y-86663282D01*
X87672126Y-86604014D01*
X87688191Y-86563911D01*
X87690426Y-86553703D01*
X87673922Y-86541429D01*
X87627282Y-86517213D01*
X87554809Y-86482863D01*
X87460806Y-86440188D01*
X87349574Y-86390994D01*
X87225415Y-86337090D01*
X87092632Y-86280284D01*
X86955527Y-86222382D01*
X86818402Y-86165193D01*
X86685558Y-86110524D01*
X86561298Y-86060184D01*
X86449925Y-86015980D01*
X86355739Y-85979719D01*
X86283044Y-85953209D01*
X86236141Y-85938258D01*
X86220033Y-85935854D01*
X86199486Y-85954911D01*
X86166133Y-85996636D01*
X86126902Y-86052306D01*
X86123799Y-86056978D01*
X86008623Y-86200864D01*
X85874253Y-86316883D01*
X85724984Y-86404030D01*
X85565113Y-86461299D01*
X85398937Y-86487686D01*
X85230752Y-86482185D01*
X85064855Y-86443790D01*
X84905542Y-86371495D01*
X84870687Y-86350226D01*
X84729937Y-86239596D01*
X84616914Y-86108902D01*
X84532203Y-85962664D01*
X84476394Y-85805408D01*
X84450074Y-85641657D01*
X84453830Y-85475933D01*
X84488250Y-85312762D01*
X84553923Y-85156665D01*
X84651435Y-85012167D01*
X84691013Y-84967469D01*
X84814903Y-84853712D01*
X84945324Y-84770818D01*
X85091515Y-84713956D01*
X85236288Y-84682287D01*
X85399060Y-84674469D01*
X85562640Y-84700538D01*
X85721498Y-84757845D01*
X85870106Y-84843744D01*
X86002935Y-84955586D01*
X86114456Y-85090723D01*
X86126211Y-85108483D01*
X86164708Y-85164750D01*
X86198063Y-85207523D01*
X86219360Y-85227972D01*
X86220033Y-85228269D01*
X86243071Y-85223879D01*
X86295357Y-85206476D01*
X86372590Y-85177868D01*
X86470468Y-85139865D01*
X86584691Y-85094274D01*
X86710958Y-85042903D01*
X86844967Y-84987562D01*
X86982418Y-84930058D01*
X87119008Y-84872201D01*
X87250437Y-84815798D01*
X87372405Y-84762658D01*
X87480609Y-84714590D01*
X87570749Y-84673401D01*
X87638523Y-84640901D01*
X87679630Y-84618897D01*
X87690426Y-84610036D01*
X87682019Y-84582960D01*
X87659472Y-84532297D01*
X87626813Y-84466783D01*
X87607720Y-84430759D01*
X87525000Y-84277768D01*
X87648275Y-84095512D01*
X87711428Y-84002475D01*
X87780927Y-83900615D01*
X87846365Y-83805162D01*
X87879317Y-83757350D01*
X87924473Y-83690105D01*
X87960257Y-83633164D01*
X87982138Y-83593954D01*
X87986763Y-83581219D01*
X87974285Y-83562683D01*
X87939452Y-83521659D01*
X87885878Y-83462125D01*
X87817183Y-83388058D01*
X87736981Y-83303435D01*
X87685486Y-83249915D01*
X87593486Y-83156281D01*
X87511199Y-83075359D01*
X87442145Y-83010423D01*
X87389844Y-82964742D01*
X87357816Y-82941589D01*
X87351316Y-82939368D01*
X87326594Y-82949676D01*
X87276605Y-82978161D01*
X87206412Y-83021663D01*
X87121075Y-83077023D01*
X87025656Y-83141080D01*
X86999054Y-83159297D01*
X86902367Y-83225673D01*
X86815317Y-83285222D01*
X86742795Y-83334616D01*
X86689693Y-83370525D01*
X86660903Y-83389619D01*
X86657926Y-83391464D01*
X86634982Y-83388705D01*
X86584536Y-83374062D01*
X86513241Y-83350087D01*
X86427747Y-83319334D01*
X86334707Y-83284356D01*
X86240774Y-83247707D01*
X86152599Y-83211939D01*
X86076834Y-83179606D01*
X86020131Y-83153262D01*
X85989143Y-83135458D01*
X85987657Y-83134193D01*
X85978801Y-83123306D01*
X85970043Y-83104918D01*
X85960477Y-83074994D01*
X85949196Y-83029497D01*
X85935293Y-82964391D01*
X85917863Y-82875639D01*
X85895998Y-82759207D01*
X85868791Y-82611058D01*
X85862941Y-82578982D01*
X85844574Y-82483914D01*
X85826605Y-82401035D01*
X85810769Y-82337670D01*
X85798800Y-82301142D01*
X85796010Y-82296244D01*
X85771272Y-82288173D01*
X85715990Y-82281613D01*
X85636589Y-82276567D01*
X85539496Y-82273041D01*
X85431138Y-82271039D01*
X85317940Y-82270564D01*
X85206328Y-82271623D01*
X85102729Y-82274218D01*
X85013568Y-82278354D01*
X84945272Y-82284037D01*
X84904266Y-82291269D01*
X84895874Y-82295629D01*
X84887408Y-82319902D01*
X84873635Y-82375174D01*
X84855750Y-82455938D01*
X84834948Y-82556688D01*
X84812423Y-82671917D01*
X84800618Y-82734698D01*
X84778351Y-82853813D01*
X84758179Y-82960035D01*
X84741115Y-83048173D01*
X84728169Y-83113034D01*
X84720355Y-83149426D01*
X84718622Y-83155416D01*
X84699090Y-83165539D01*
X84652043Y-83186938D01*
X84584203Y-83216761D01*
X84502291Y-83252155D01*
X84413028Y-83290268D01*
X84323135Y-83328247D01*
X84239335Y-83363240D01*
X84168347Y-83392394D01*
X84116894Y-83412857D01*
X84091697Y-83421777D01*
X84090596Y-83421943D01*
X84070719Y-83411831D01*
X84024977Y-83383483D01*
X83957917Y-83339877D01*
X83874084Y-83283994D01*
X83778026Y-83218813D01*
X83722850Y-83180921D01*
X83621681Y-83111875D01*
X83529830Y-83050550D01*
X83451944Y-82999937D01*
X83392669Y-82963029D01*
X83356651Y-82942818D01*
X83348577Y-82939899D01*
X83329784Y-82952447D01*
X83289657Y-82987137D01*
X83232693Y-83039537D01*
X83163385Y-83105216D01*
X83086231Y-83179744D01*
X83005725Y-83258687D01*
X82926363Y-83337617D01*
X82852640Y-83412100D01*
X82789052Y-83477706D01*
X82740094Y-83530004D01*
X82710261Y-83564561D01*
X82703142Y-83576122D01*
X82713153Y-83594946D01*
X82741278Y-83639969D01*
X82784654Y-83706813D01*
X82840418Y-83791101D01*
X82905706Y-83888456D01*
X82955446Y-83961893D01*
X83207751Y-84332933D01*
X82952755Y-84951505D01*
X82508131Y-85035325D01*
X82063507Y-85119146D01*
X82063507Y-86044594D01*
X82508131Y-86128414D01*
G37*
X82508131Y-86128414D02*
X82952755Y-86212235D01*
X83080253Y-86521520D01*
X83207751Y-86830806D01*
X82955446Y-87201846D01*
X82885196Y-87305757D01*
X82822472Y-87399687D01*
X82770138Y-87479252D01*
X82731057Y-87540070D01*
X82708093Y-87577757D01*
X82703142Y-87588021D01*
X82715876Y-87606510D01*
X82751082Y-87646020D01*
X82804262Y-87702122D01*
X82870918Y-87770387D01*
X82946554Y-87846386D01*
X83026672Y-87925692D01*
X83106774Y-88003875D01*
X83182364Y-88076507D01*
X83248945Y-88139159D01*
X83302018Y-88187403D01*
X83337087Y-88216810D01*
X83348823Y-88223841D01*
X83370460Y-88213723D01*
X83417862Y-88185359D01*
X83486393Y-88141729D01*
X83571415Y-88085818D01*
X83668293Y-88020606D01*
X83723550Y-87982819D01*
X83824448Y-87913943D01*
X83915499Y-87852740D01*
X83992170Y-87802178D01*
X84049928Y-87765228D01*
X84084243Y-87744858D01*
X84091454Y-87741797D01*
X84111948Y-87748736D01*
X84159713Y-87767651D01*
X84228032Y-87795687D01*
X84310189Y-87829991D01*
X84399470Y-87867709D01*
X84489158Y-87905987D01*
X84572538Y-87941970D01*
X84642894Y-87972806D01*
X84693510Y-87995639D01*
X84717671Y-88007617D01*
X84718622Y-88008324D01*
X84723236Y-88027131D01*
X84733528Y-88077218D01*
X84748487Y-88153393D01*
X84767101Y-88250465D01*
X84788359Y-88363243D01*
X84800618Y-88429042D01*
X84823562Y-88549550D01*
X84845395Y-88658397D01*
X84864922Y-88750076D01*
X84880948Y-88819081D01*
X84892279Y-88859904D01*
X84895874Y-88868111D01*
X84920206Y-88876148D01*
X84975159Y-88882633D01*
X85054308Y-88887570D01*
X85151226Y-88890964D01*
X85259487Y-88892818D01*
X85372665Y-88893138D01*
X85484335Y-88891927D01*
X85588068Y-88889190D01*
X85677441Y-88884931D01*
X85746026Y-88879155D01*
X85787397Y-88871867D01*
X85796010Y-88867495D01*
X85806333Y-88841364D01*
X85821092Y-88785993D01*
X85838552Y-88708707D01*
X85856980Y-88616830D01*
X85862941Y-88584758D01*
X85891266Y-88430124D01*
X85914076Y-88307975D01*
X85932280Y-88214273D01*
X85946783Y-88144984D01*
X85958492Y-88096071D01*
X85968315Y-88063497D01*
X85977156Y-88043228D01*
X85985924Y-88031226D01*
X85987657Y-88029547D01*
X86015571Y-88012784D01*
X86069895Y-87987214D01*
X86143977Y-87955388D01*
X86231165Y-87919860D01*
X86324808Y-87883183D01*
X86418252Y-87847911D01*
X86504847Y-87816596D01*
X86577940Y-87791793D01*
X86630878Y-87776054D01*
X86657011Y-87771932D01*
X86657926Y-87772276D01*
X86679286Y-87786241D01*
X86726284Y-87817922D01*
X86794027Y-87863991D01*
X86877623Y-87921118D01*
X86972182Y-87985973D01*
X86999054Y-88004443D01*
X87096475Y-88070299D01*
X87185363Y-88128250D01*
X87260612Y-88175138D01*
X87317120Y-88207807D01*
X87349781Y-88223100D01*
X87353793Y-88223841D01*
X87374884Y-88210992D01*
X87416664Y-88175488D01*
X87474645Y-88121893D01*
X87544335Y-88054771D01*
X87621245Y-87978687D01*
X87700883Y-87898204D01*
X87778761Y-87817887D01*
X87850386Y-87742299D01*
X87911270Y-87676005D01*
X87956921Y-87623569D01*
X87982850Y-87589555D01*
X87987083Y-87580145D01*
X87977112Y-87558243D01*
X87950220Y-87513400D01*
X87910936Y-87452921D01*
X87879317Y-87406389D01*
X87821298Y-87322075D01*
X87752984Y-87222226D01*
X87684779Y-87122073D01*
X87648275Y-87068227D01*
X87525000Y-86885971D01*
X87607720Y-86732981D01*
X87643959Y-86663282D01*
X87672126Y-86604014D01*
X87688191Y-86563911D01*
X87690426Y-86553703D01*
X87673922Y-86541429D01*
X87627282Y-86517213D01*
X87554809Y-86482863D01*
X87460806Y-86440188D01*
X87349574Y-86390994D01*
X87225415Y-86337090D01*
X87092632Y-86280284D01*
X86955527Y-86222382D01*
X86818402Y-86165193D01*
X86685558Y-86110524D01*
X86561298Y-86060184D01*
X86449925Y-86015980D01*
X86355739Y-85979719D01*
X86283044Y-85953209D01*
X86236141Y-85938258D01*
X86220033Y-85935854D01*
X86199486Y-85954911D01*
X86166133Y-85996636D01*
X86126902Y-86052306D01*
X86123799Y-86056978D01*
X86008623Y-86200864D01*
X85874253Y-86316883D01*
X85724984Y-86404030D01*
X85565113Y-86461299D01*
X85398937Y-86487686D01*
X85230752Y-86482185D01*
X85064855Y-86443790D01*
X84905542Y-86371495D01*
X84870687Y-86350226D01*
X84729937Y-86239596D01*
X84616914Y-86108902D01*
X84532203Y-85962664D01*
X84476394Y-85805408D01*
X84450074Y-85641657D01*
X84453830Y-85475933D01*
X84488250Y-85312762D01*
X84553923Y-85156665D01*
X84651435Y-85012167D01*
X84691013Y-84967469D01*
X84814903Y-84853712D01*
X84945324Y-84770818D01*
X85091515Y-84713956D01*
X85236288Y-84682287D01*
X85399060Y-84674469D01*
X85562640Y-84700538D01*
X85721498Y-84757845D01*
X85870106Y-84843744D01*
X86002935Y-84955586D01*
X86114456Y-85090723D01*
X86126211Y-85108483D01*
X86164708Y-85164750D01*
X86198063Y-85207523D01*
X86219360Y-85227972D01*
X86220033Y-85228269D01*
X86243071Y-85223879D01*
X86295357Y-85206476D01*
X86372590Y-85177868D01*
X86470468Y-85139865D01*
X86584691Y-85094274D01*
X86710958Y-85042903D01*
X86844967Y-84987562D01*
X86982418Y-84930058D01*
X87119008Y-84872201D01*
X87250437Y-84815798D01*
X87372405Y-84762658D01*
X87480609Y-84714590D01*
X87570749Y-84673401D01*
X87638523Y-84640901D01*
X87679630Y-84618897D01*
X87690426Y-84610036D01*
X87682019Y-84582960D01*
X87659472Y-84532297D01*
X87626813Y-84466783D01*
X87607720Y-84430759D01*
X87525000Y-84277768D01*
X87648275Y-84095512D01*
X87711428Y-84002475D01*
X87780927Y-83900615D01*
X87846365Y-83805162D01*
X87879317Y-83757350D01*
X87924473Y-83690105D01*
X87960257Y-83633164D01*
X87982138Y-83593954D01*
X87986763Y-83581219D01*
X87974285Y-83562683D01*
X87939452Y-83521659D01*
X87885878Y-83462125D01*
X87817183Y-83388058D01*
X87736981Y-83303435D01*
X87685486Y-83249915D01*
X87593486Y-83156281D01*
X87511199Y-83075359D01*
X87442145Y-83010423D01*
X87389844Y-82964742D01*
X87357816Y-82941589D01*
X87351316Y-82939368D01*
X87326594Y-82949676D01*
X87276605Y-82978161D01*
X87206412Y-83021663D01*
X87121075Y-83077023D01*
X87025656Y-83141080D01*
X86999054Y-83159297D01*
X86902367Y-83225673D01*
X86815317Y-83285222D01*
X86742795Y-83334616D01*
X86689693Y-83370525D01*
X86660903Y-83389619D01*
X86657926Y-83391464D01*
X86634982Y-83388705D01*
X86584536Y-83374062D01*
X86513241Y-83350087D01*
X86427747Y-83319334D01*
X86334707Y-83284356D01*
X86240774Y-83247707D01*
X86152599Y-83211939D01*
X86076834Y-83179606D01*
X86020131Y-83153262D01*
X85989143Y-83135458D01*
X85987657Y-83134193D01*
X85978801Y-83123306D01*
X85970043Y-83104918D01*
X85960477Y-83074994D01*
X85949196Y-83029497D01*
X85935293Y-82964391D01*
X85917863Y-82875639D01*
X85895998Y-82759207D01*
X85868791Y-82611058D01*
X85862941Y-82578982D01*
X85844574Y-82483914D01*
X85826605Y-82401035D01*
X85810769Y-82337670D01*
X85798800Y-82301142D01*
X85796010Y-82296244D01*
X85771272Y-82288173D01*
X85715990Y-82281613D01*
X85636589Y-82276567D01*
X85539496Y-82273041D01*
X85431138Y-82271039D01*
X85317940Y-82270564D01*
X85206328Y-82271623D01*
X85102729Y-82274218D01*
X85013568Y-82278354D01*
X84945272Y-82284037D01*
X84904266Y-82291269D01*
X84895874Y-82295629D01*
X84887408Y-82319902D01*
X84873635Y-82375174D01*
X84855750Y-82455938D01*
X84834948Y-82556688D01*
X84812423Y-82671917D01*
X84800618Y-82734698D01*
X84778351Y-82853813D01*
X84758179Y-82960035D01*
X84741115Y-83048173D01*
X84728169Y-83113034D01*
X84720355Y-83149426D01*
X84718622Y-83155416D01*
X84699090Y-83165539D01*
X84652043Y-83186938D01*
X84584203Y-83216761D01*
X84502291Y-83252155D01*
X84413028Y-83290268D01*
X84323135Y-83328247D01*
X84239335Y-83363240D01*
X84168347Y-83392394D01*
X84116894Y-83412857D01*
X84091697Y-83421777D01*
X84090596Y-83421943D01*
X84070719Y-83411831D01*
X84024977Y-83383483D01*
X83957917Y-83339877D01*
X83874084Y-83283994D01*
X83778026Y-83218813D01*
X83722850Y-83180921D01*
X83621681Y-83111875D01*
X83529830Y-83050550D01*
X83451944Y-82999937D01*
X83392669Y-82963029D01*
X83356651Y-82942818D01*
X83348577Y-82939899D01*
X83329784Y-82952447D01*
X83289657Y-82987137D01*
X83232693Y-83039537D01*
X83163385Y-83105216D01*
X83086231Y-83179744D01*
X83005725Y-83258687D01*
X82926363Y-83337617D01*
X82852640Y-83412100D01*
X82789052Y-83477706D01*
X82740094Y-83530004D01*
X82710261Y-83564561D01*
X82703142Y-83576122D01*
X82713153Y-83594946D01*
X82741278Y-83639969D01*
X82784654Y-83706813D01*
X82840418Y-83791101D01*
X82905706Y-83888456D01*
X82955446Y-83961893D01*
X83207751Y-84332933D01*
X82952755Y-84951505D01*
X82508131Y-85035325D01*
X82063507Y-85119146D01*
X82063507Y-86044594D01*
X82508131Y-86128414D01*
G36*
X120608131Y-68348414D02*
G01*
X121052755Y-68432235D01*
X121180253Y-68741520D01*
X121307751Y-69050806D01*
X121055446Y-69421846D01*
X120985196Y-69525757D01*
X120922472Y-69619687D01*
X120870138Y-69699252D01*
X120831057Y-69760070D01*
X120808093Y-69797757D01*
X120803142Y-69808021D01*
X120815876Y-69826510D01*
X120851082Y-69866020D01*
X120904262Y-69922122D01*
X120970918Y-69990387D01*
X121046554Y-70066386D01*
X121126672Y-70145692D01*
X121206774Y-70223875D01*
X121282364Y-70296507D01*
X121348945Y-70359159D01*
X121402018Y-70407403D01*
X121437087Y-70436810D01*
X121448823Y-70443841D01*
X121470460Y-70433723D01*
X121517862Y-70405359D01*
X121586393Y-70361729D01*
X121671415Y-70305818D01*
X121768293Y-70240606D01*
X121823550Y-70202819D01*
X121924448Y-70133943D01*
X122015499Y-70072740D01*
X122092170Y-70022178D01*
X122149928Y-69985228D01*
X122184243Y-69964858D01*
X122191454Y-69961797D01*
X122211948Y-69968736D01*
X122259713Y-69987651D01*
X122328032Y-70015687D01*
X122410189Y-70049991D01*
X122499470Y-70087709D01*
X122589158Y-70125987D01*
X122672538Y-70161970D01*
X122742894Y-70192806D01*
X122793510Y-70215639D01*
X122817671Y-70227617D01*
X122818622Y-70228324D01*
X122823236Y-70247131D01*
X122833528Y-70297218D01*
X122848487Y-70373393D01*
X122867101Y-70470465D01*
X122888359Y-70583243D01*
X122900618Y-70649042D01*
X122923562Y-70769550D01*
X122945395Y-70878397D01*
X122964922Y-70970076D01*
X122980948Y-71039081D01*
X122992279Y-71079904D01*
X122995874Y-71088111D01*
X123020206Y-71096148D01*
X123075159Y-71102633D01*
X123154308Y-71107570D01*
X123251226Y-71110964D01*
X123359487Y-71112818D01*
X123472665Y-71113138D01*
X123584335Y-71111927D01*
X123688068Y-71109190D01*
X123777441Y-71104931D01*
X123846026Y-71099155D01*
X123887397Y-71091867D01*
X123896010Y-71087495D01*
X123906333Y-71061364D01*
X123921092Y-71005993D01*
X123938552Y-70928707D01*
X123956980Y-70836830D01*
X123962941Y-70804758D01*
X123991266Y-70650124D01*
X124014076Y-70527975D01*
X124032280Y-70434273D01*
X124046783Y-70364984D01*
X124058492Y-70316071D01*
X124068315Y-70283497D01*
X124077156Y-70263228D01*
X124085924Y-70251226D01*
X124087657Y-70249547D01*
X124115571Y-70232784D01*
X124169895Y-70207214D01*
X124243977Y-70175388D01*
X124331165Y-70139860D01*
X124424808Y-70103183D01*
X124518252Y-70067911D01*
X124604847Y-70036596D01*
X124677940Y-70011793D01*
X124730878Y-69996054D01*
X124757011Y-69991932D01*
X124757926Y-69992276D01*
X124779286Y-70006241D01*
X124826284Y-70037922D01*
X124894027Y-70083991D01*
X124977623Y-70141118D01*
X125072182Y-70205973D01*
X125099054Y-70224443D01*
X125196475Y-70290299D01*
X125285363Y-70348250D01*
X125360612Y-70395138D01*
X125417120Y-70427807D01*
X125449781Y-70443100D01*
X125453793Y-70443841D01*
X125474884Y-70430992D01*
X125516664Y-70395488D01*
X125574645Y-70341893D01*
X125644335Y-70274771D01*
X125721245Y-70198687D01*
X125800883Y-70118204D01*
X125878761Y-70037887D01*
X125950386Y-69962299D01*
X126011270Y-69896005D01*
X126056921Y-69843569D01*
X126082850Y-69809555D01*
X126087083Y-69800145D01*
X126077112Y-69778243D01*
X126050220Y-69733400D01*
X126010936Y-69672921D01*
X125979317Y-69626389D01*
X125921298Y-69542075D01*
X125852984Y-69442226D01*
X125784779Y-69342073D01*
X125748275Y-69288227D01*
X125625000Y-69105971D01*
X125707720Y-68952981D01*
X125743959Y-68883282D01*
X125772126Y-68824014D01*
X125788191Y-68783911D01*
X125790426Y-68773703D01*
X125773922Y-68761429D01*
X125727282Y-68737213D01*
X125654809Y-68702863D01*
X125560806Y-68660188D01*
X125449574Y-68610994D01*
X125325415Y-68557090D01*
X125192632Y-68500284D01*
X125055527Y-68442382D01*
X124918402Y-68385193D01*
X124785558Y-68330524D01*
X124661298Y-68280184D01*
X124549925Y-68235980D01*
X124455739Y-68199719D01*
X124383044Y-68173209D01*
X124336141Y-68158258D01*
X124320033Y-68155854D01*
X124299486Y-68174911D01*
X124266133Y-68216636D01*
X124226902Y-68272306D01*
X124223799Y-68276978D01*
X124108623Y-68420864D01*
X123974253Y-68536883D01*
X123824984Y-68624030D01*
X123665113Y-68681299D01*
X123498937Y-68707686D01*
X123330752Y-68702185D01*
X123164855Y-68663790D01*
X123005542Y-68591495D01*
X122970687Y-68570226D01*
X122829937Y-68459596D01*
X122716914Y-68328902D01*
X122632203Y-68182664D01*
X122576394Y-68025408D01*
X122550074Y-67861657D01*
X122553830Y-67695933D01*
X122588250Y-67532762D01*
X122653923Y-67376665D01*
X122751435Y-67232167D01*
X122791013Y-67187469D01*
X122914903Y-67073712D01*
X123045324Y-66990818D01*
X123191515Y-66933956D01*
X123336288Y-66902287D01*
X123499060Y-66894469D01*
X123662640Y-66920538D01*
X123821498Y-66977845D01*
X123970106Y-67063744D01*
X124102935Y-67175586D01*
X124214456Y-67310723D01*
X124226211Y-67328483D01*
X124264708Y-67384750D01*
X124298063Y-67427523D01*
X124319360Y-67447972D01*
X124320033Y-67448269D01*
X124343071Y-67443879D01*
X124395357Y-67426476D01*
X124472590Y-67397868D01*
X124570468Y-67359865D01*
X124684691Y-67314274D01*
X124810958Y-67262903D01*
X124944967Y-67207562D01*
X125082418Y-67150058D01*
X125219008Y-67092201D01*
X125350437Y-67035798D01*
X125472405Y-66982658D01*
X125580609Y-66934590D01*
X125670749Y-66893401D01*
X125738523Y-66860901D01*
X125779630Y-66838897D01*
X125790426Y-66830036D01*
X125782019Y-66802960D01*
X125759472Y-66752297D01*
X125726813Y-66686783D01*
X125707720Y-66650759D01*
X125625000Y-66497768D01*
X125748275Y-66315512D01*
X125811428Y-66222475D01*
X125880927Y-66120615D01*
X125946365Y-66025162D01*
X125979317Y-65977350D01*
X126024473Y-65910105D01*
X126060257Y-65853164D01*
X126082138Y-65813954D01*
X126086763Y-65801219D01*
X126074285Y-65782683D01*
X126039452Y-65741659D01*
X125985878Y-65682125D01*
X125917183Y-65608058D01*
X125836981Y-65523435D01*
X125785486Y-65469915D01*
X125693486Y-65376281D01*
X125611199Y-65295359D01*
X125542145Y-65230423D01*
X125489844Y-65184742D01*
X125457816Y-65161589D01*
X125451316Y-65159368D01*
X125426594Y-65169676D01*
X125376605Y-65198161D01*
X125306412Y-65241663D01*
X125221075Y-65297023D01*
X125125656Y-65361080D01*
X125099054Y-65379297D01*
X125002367Y-65445673D01*
X124915317Y-65505222D01*
X124842795Y-65554616D01*
X124789693Y-65590525D01*
X124760903Y-65609619D01*
X124757926Y-65611464D01*
X124734982Y-65608705D01*
X124684536Y-65594062D01*
X124613241Y-65570087D01*
X124527747Y-65539334D01*
X124434707Y-65504356D01*
X124340774Y-65467707D01*
X124252599Y-65431939D01*
X124176834Y-65399606D01*
X124120131Y-65373262D01*
X124089143Y-65355458D01*
X124087657Y-65354193D01*
X124078801Y-65343306D01*
X124070043Y-65324918D01*
X124060477Y-65294994D01*
X124049196Y-65249497D01*
X124035293Y-65184391D01*
X124017863Y-65095639D01*
X123995998Y-64979207D01*
X123968791Y-64831058D01*
X123962941Y-64798982D01*
X123944574Y-64703914D01*
X123926605Y-64621035D01*
X123910769Y-64557670D01*
X123898800Y-64521142D01*
X123896010Y-64516244D01*
X123871272Y-64508173D01*
X123815990Y-64501613D01*
X123736589Y-64496567D01*
X123639496Y-64493041D01*
X123531138Y-64491039D01*
X123417940Y-64490564D01*
X123306328Y-64491623D01*
X123202729Y-64494218D01*
X123113568Y-64498354D01*
X123045272Y-64504037D01*
X123004266Y-64511269D01*
X122995874Y-64515629D01*
X122987408Y-64539902D01*
X122973635Y-64595174D01*
X122955750Y-64675938D01*
X122934948Y-64776688D01*
X122912423Y-64891917D01*
X122900618Y-64954698D01*
X122878351Y-65073813D01*
X122858179Y-65180035D01*
X122841115Y-65268173D01*
X122828169Y-65333034D01*
X122820355Y-65369426D01*
X122818622Y-65375416D01*
X122799090Y-65385539D01*
X122752043Y-65406938D01*
X122684203Y-65436761D01*
X122602291Y-65472155D01*
X122513028Y-65510268D01*
X122423135Y-65548247D01*
X122339335Y-65583240D01*
X122268347Y-65612394D01*
X122216894Y-65632857D01*
X122191697Y-65641777D01*
X122190596Y-65641943D01*
X122170719Y-65631831D01*
X122124977Y-65603483D01*
X122057917Y-65559877D01*
X121974084Y-65503994D01*
X121878026Y-65438813D01*
X121822850Y-65400921D01*
X121721681Y-65331875D01*
X121629830Y-65270550D01*
X121551944Y-65219937D01*
X121492669Y-65183029D01*
X121456651Y-65162818D01*
X121448577Y-65159899D01*
X121429784Y-65172447D01*
X121389657Y-65207137D01*
X121332693Y-65259537D01*
X121263385Y-65325216D01*
X121186231Y-65399744D01*
X121105725Y-65478687D01*
X121026363Y-65557617D01*
X120952640Y-65632100D01*
X120889052Y-65697706D01*
X120840094Y-65750004D01*
X120810261Y-65784561D01*
X120803142Y-65796122D01*
X120813153Y-65814946D01*
X120841278Y-65859969D01*
X120884654Y-65926813D01*
X120940418Y-66011101D01*
X121005706Y-66108456D01*
X121055446Y-66181893D01*
X121307751Y-66552933D01*
X121052755Y-67171505D01*
X120608131Y-67255325D01*
X120163507Y-67339146D01*
X120163507Y-68264594D01*
X120608131Y-68348414D01*
G37*
X120608131Y-68348414D02*
X121052755Y-68432235D01*
X121180253Y-68741520D01*
X121307751Y-69050806D01*
X121055446Y-69421846D01*
X120985196Y-69525757D01*
X120922472Y-69619687D01*
X120870138Y-69699252D01*
X120831057Y-69760070D01*
X120808093Y-69797757D01*
X120803142Y-69808021D01*
X120815876Y-69826510D01*
X120851082Y-69866020D01*
X120904262Y-69922122D01*
X120970918Y-69990387D01*
X121046554Y-70066386D01*
X121126672Y-70145692D01*
X121206774Y-70223875D01*
X121282364Y-70296507D01*
X121348945Y-70359159D01*
X121402018Y-70407403D01*
X121437087Y-70436810D01*
X121448823Y-70443841D01*
X121470460Y-70433723D01*
X121517862Y-70405359D01*
X121586393Y-70361729D01*
X121671415Y-70305818D01*
X121768293Y-70240606D01*
X121823550Y-70202819D01*
X121924448Y-70133943D01*
X122015499Y-70072740D01*
X122092170Y-70022178D01*
X122149928Y-69985228D01*
X122184243Y-69964858D01*
X122191454Y-69961797D01*
X122211948Y-69968736D01*
X122259713Y-69987651D01*
X122328032Y-70015687D01*
X122410189Y-70049991D01*
X122499470Y-70087709D01*
X122589158Y-70125987D01*
X122672538Y-70161970D01*
X122742894Y-70192806D01*
X122793510Y-70215639D01*
X122817671Y-70227617D01*
X122818622Y-70228324D01*
X122823236Y-70247131D01*
X122833528Y-70297218D01*
X122848487Y-70373393D01*
X122867101Y-70470465D01*
X122888359Y-70583243D01*
X122900618Y-70649042D01*
X122923562Y-70769550D01*
X122945395Y-70878397D01*
X122964922Y-70970076D01*
X122980948Y-71039081D01*
X122992279Y-71079904D01*
X122995874Y-71088111D01*
X123020206Y-71096148D01*
X123075159Y-71102633D01*
X123154308Y-71107570D01*
X123251226Y-71110964D01*
X123359487Y-71112818D01*
X123472665Y-71113138D01*
X123584335Y-71111927D01*
X123688068Y-71109190D01*
X123777441Y-71104931D01*
X123846026Y-71099155D01*
X123887397Y-71091867D01*
X123896010Y-71087495D01*
X123906333Y-71061364D01*
X123921092Y-71005993D01*
X123938552Y-70928707D01*
X123956980Y-70836830D01*
X123962941Y-70804758D01*
X123991266Y-70650124D01*
X124014076Y-70527975D01*
X124032280Y-70434273D01*
X124046783Y-70364984D01*
X124058492Y-70316071D01*
X124068315Y-70283497D01*
X124077156Y-70263228D01*
X124085924Y-70251226D01*
X124087657Y-70249547D01*
X124115571Y-70232784D01*
X124169895Y-70207214D01*
X124243977Y-70175388D01*
X124331165Y-70139860D01*
X124424808Y-70103183D01*
X124518252Y-70067911D01*
X124604847Y-70036596D01*
X124677940Y-70011793D01*
X124730878Y-69996054D01*
X124757011Y-69991932D01*
X124757926Y-69992276D01*
X124779286Y-70006241D01*
X124826284Y-70037922D01*
X124894027Y-70083991D01*
X124977623Y-70141118D01*
X125072182Y-70205973D01*
X125099054Y-70224443D01*
X125196475Y-70290299D01*
X125285363Y-70348250D01*
X125360612Y-70395138D01*
X125417120Y-70427807D01*
X125449781Y-70443100D01*
X125453793Y-70443841D01*
X125474884Y-70430992D01*
X125516664Y-70395488D01*
X125574645Y-70341893D01*
X125644335Y-70274771D01*
X125721245Y-70198687D01*
X125800883Y-70118204D01*
X125878761Y-70037887D01*
X125950386Y-69962299D01*
X126011270Y-69896005D01*
X126056921Y-69843569D01*
X126082850Y-69809555D01*
X126087083Y-69800145D01*
X126077112Y-69778243D01*
X126050220Y-69733400D01*
X126010936Y-69672921D01*
X125979317Y-69626389D01*
X125921298Y-69542075D01*
X125852984Y-69442226D01*
X125784779Y-69342073D01*
X125748275Y-69288227D01*
X125625000Y-69105971D01*
X125707720Y-68952981D01*
X125743959Y-68883282D01*
X125772126Y-68824014D01*
X125788191Y-68783911D01*
X125790426Y-68773703D01*
X125773922Y-68761429D01*
X125727282Y-68737213D01*
X125654809Y-68702863D01*
X125560806Y-68660188D01*
X125449574Y-68610994D01*
X125325415Y-68557090D01*
X125192632Y-68500284D01*
X125055527Y-68442382D01*
X124918402Y-68385193D01*
X124785558Y-68330524D01*
X124661298Y-68280184D01*
X124549925Y-68235980D01*
X124455739Y-68199719D01*
X124383044Y-68173209D01*
X124336141Y-68158258D01*
X124320033Y-68155854D01*
X124299486Y-68174911D01*
X124266133Y-68216636D01*
X124226902Y-68272306D01*
X124223799Y-68276978D01*
X124108623Y-68420864D01*
X123974253Y-68536883D01*
X123824984Y-68624030D01*
X123665113Y-68681299D01*
X123498937Y-68707686D01*
X123330752Y-68702185D01*
X123164855Y-68663790D01*
X123005542Y-68591495D01*
X122970687Y-68570226D01*
X122829937Y-68459596D01*
X122716914Y-68328902D01*
X122632203Y-68182664D01*
X122576394Y-68025408D01*
X122550074Y-67861657D01*
X122553830Y-67695933D01*
X122588250Y-67532762D01*
X122653923Y-67376665D01*
X122751435Y-67232167D01*
X122791013Y-67187469D01*
X122914903Y-67073712D01*
X123045324Y-66990818D01*
X123191515Y-66933956D01*
X123336288Y-66902287D01*
X123499060Y-66894469D01*
X123662640Y-66920538D01*
X123821498Y-66977845D01*
X123970106Y-67063744D01*
X124102935Y-67175586D01*
X124214456Y-67310723D01*
X124226211Y-67328483D01*
X124264708Y-67384750D01*
X124298063Y-67427523D01*
X124319360Y-67447972D01*
X124320033Y-67448269D01*
X124343071Y-67443879D01*
X124395357Y-67426476D01*
X124472590Y-67397868D01*
X124570468Y-67359865D01*
X124684691Y-67314274D01*
X124810958Y-67262903D01*
X124944967Y-67207562D01*
X125082418Y-67150058D01*
X125219008Y-67092201D01*
X125350437Y-67035798D01*
X125472405Y-66982658D01*
X125580609Y-66934590D01*
X125670749Y-66893401D01*
X125738523Y-66860901D01*
X125779630Y-66838897D01*
X125790426Y-66830036D01*
X125782019Y-66802960D01*
X125759472Y-66752297D01*
X125726813Y-66686783D01*
X125707720Y-66650759D01*
X125625000Y-66497768D01*
X125748275Y-66315512D01*
X125811428Y-66222475D01*
X125880927Y-66120615D01*
X125946365Y-66025162D01*
X125979317Y-65977350D01*
X126024473Y-65910105D01*
X126060257Y-65853164D01*
X126082138Y-65813954D01*
X126086763Y-65801219D01*
X126074285Y-65782683D01*
X126039452Y-65741659D01*
X125985878Y-65682125D01*
X125917183Y-65608058D01*
X125836981Y-65523435D01*
X125785486Y-65469915D01*
X125693486Y-65376281D01*
X125611199Y-65295359D01*
X125542145Y-65230423D01*
X125489844Y-65184742D01*
X125457816Y-65161589D01*
X125451316Y-65159368D01*
X125426594Y-65169676D01*
X125376605Y-65198161D01*
X125306412Y-65241663D01*
X125221075Y-65297023D01*
X125125656Y-65361080D01*
X125099054Y-65379297D01*
X125002367Y-65445673D01*
X124915317Y-65505222D01*
X124842795Y-65554616D01*
X124789693Y-65590525D01*
X124760903Y-65609619D01*
X124757926Y-65611464D01*
X124734982Y-65608705D01*
X124684536Y-65594062D01*
X124613241Y-65570087D01*
X124527747Y-65539334D01*
X124434707Y-65504356D01*
X124340774Y-65467707D01*
X124252599Y-65431939D01*
X124176834Y-65399606D01*
X124120131Y-65373262D01*
X124089143Y-65355458D01*
X124087657Y-65354193D01*
X124078801Y-65343306D01*
X124070043Y-65324918D01*
X124060477Y-65294994D01*
X124049196Y-65249497D01*
X124035293Y-65184391D01*
X124017863Y-65095639D01*
X123995998Y-64979207D01*
X123968791Y-64831058D01*
X123962941Y-64798982D01*
X123944574Y-64703914D01*
X123926605Y-64621035D01*
X123910769Y-64557670D01*
X123898800Y-64521142D01*
X123896010Y-64516244D01*
X123871272Y-64508173D01*
X123815990Y-64501613D01*
X123736589Y-64496567D01*
X123639496Y-64493041D01*
X123531138Y-64491039D01*
X123417940Y-64490564D01*
X123306328Y-64491623D01*
X123202729Y-64494218D01*
X123113568Y-64498354D01*
X123045272Y-64504037D01*
X123004266Y-64511269D01*
X122995874Y-64515629D01*
X122987408Y-64539902D01*
X122973635Y-64595174D01*
X122955750Y-64675938D01*
X122934948Y-64776688D01*
X122912423Y-64891917D01*
X122900618Y-64954698D01*
X122878351Y-65073813D01*
X122858179Y-65180035D01*
X122841115Y-65268173D01*
X122828169Y-65333034D01*
X122820355Y-65369426D01*
X122818622Y-65375416D01*
X122799090Y-65385539D01*
X122752043Y-65406938D01*
X122684203Y-65436761D01*
X122602291Y-65472155D01*
X122513028Y-65510268D01*
X122423135Y-65548247D01*
X122339335Y-65583240D01*
X122268347Y-65612394D01*
X122216894Y-65632857D01*
X122191697Y-65641777D01*
X122190596Y-65641943D01*
X122170719Y-65631831D01*
X122124977Y-65603483D01*
X122057917Y-65559877D01*
X121974084Y-65503994D01*
X121878026Y-65438813D01*
X121822850Y-65400921D01*
X121721681Y-65331875D01*
X121629830Y-65270550D01*
X121551944Y-65219937D01*
X121492669Y-65183029D01*
X121456651Y-65162818D01*
X121448577Y-65159899D01*
X121429784Y-65172447D01*
X121389657Y-65207137D01*
X121332693Y-65259537D01*
X121263385Y-65325216D01*
X121186231Y-65399744D01*
X121105725Y-65478687D01*
X121026363Y-65557617D01*
X120952640Y-65632100D01*
X120889052Y-65697706D01*
X120840094Y-65750004D01*
X120810261Y-65784561D01*
X120803142Y-65796122D01*
X120813153Y-65814946D01*
X120841278Y-65859969D01*
X120884654Y-65926813D01*
X120940418Y-66011101D01*
X121005706Y-66108456D01*
X121055446Y-66181893D01*
X121307751Y-66552933D01*
X121052755Y-67171505D01*
X120608131Y-67255325D01*
X120163507Y-67339146D01*
X120163507Y-68264594D01*
X120608131Y-68348414D01*
G36*
X82508131Y-68348414D02*
G01*
X82952755Y-68432235D01*
X83080253Y-68741520D01*
X83207751Y-69050806D01*
X82955446Y-69421846D01*
X82885196Y-69525757D01*
X82822472Y-69619687D01*
X82770138Y-69699252D01*
X82731057Y-69760070D01*
X82708093Y-69797757D01*
X82703142Y-69808021D01*
X82715876Y-69826510D01*
X82751082Y-69866020D01*
X82804262Y-69922122D01*
X82870918Y-69990387D01*
X82946554Y-70066386D01*
X83026672Y-70145692D01*
X83106774Y-70223875D01*
X83182364Y-70296507D01*
X83248945Y-70359159D01*
X83302018Y-70407403D01*
X83337087Y-70436810D01*
X83348823Y-70443841D01*
X83370460Y-70433723D01*
X83417862Y-70405359D01*
X83486393Y-70361729D01*
X83571415Y-70305818D01*
X83668293Y-70240606D01*
X83723550Y-70202819D01*
X83824448Y-70133943D01*
X83915499Y-70072740D01*
X83992170Y-70022178D01*
X84049928Y-69985228D01*
X84084243Y-69964858D01*
X84091454Y-69961797D01*
X84111948Y-69968736D01*
X84159713Y-69987651D01*
X84228032Y-70015687D01*
X84310189Y-70049991D01*
X84399470Y-70087709D01*
X84489158Y-70125987D01*
X84572538Y-70161970D01*
X84642894Y-70192806D01*
X84693510Y-70215639D01*
X84717671Y-70227617D01*
X84718622Y-70228324D01*
X84723236Y-70247131D01*
X84733528Y-70297218D01*
X84748487Y-70373393D01*
X84767101Y-70470465D01*
X84788359Y-70583243D01*
X84800618Y-70649042D01*
X84823562Y-70769550D01*
X84845395Y-70878397D01*
X84864922Y-70970076D01*
X84880948Y-71039081D01*
X84892279Y-71079904D01*
X84895874Y-71088111D01*
X84920206Y-71096148D01*
X84975159Y-71102633D01*
X85054308Y-71107570D01*
X85151226Y-71110964D01*
X85259487Y-71112818D01*
X85372665Y-71113138D01*
X85484335Y-71111927D01*
X85588068Y-71109190D01*
X85677441Y-71104931D01*
X85746026Y-71099155D01*
X85787397Y-71091867D01*
X85796010Y-71087495D01*
X85806333Y-71061364D01*
X85821092Y-71005993D01*
X85838552Y-70928707D01*
X85856980Y-70836830D01*
X85862941Y-70804758D01*
X85891266Y-70650124D01*
X85914076Y-70527975D01*
X85932280Y-70434273D01*
X85946783Y-70364984D01*
X85958492Y-70316071D01*
X85968315Y-70283497D01*
X85977156Y-70263228D01*
X85985924Y-70251226D01*
X85987657Y-70249547D01*
X86015571Y-70232784D01*
X86069895Y-70207214D01*
X86143977Y-70175388D01*
X86231165Y-70139860D01*
X86324808Y-70103183D01*
X86418252Y-70067911D01*
X86504847Y-70036596D01*
X86577940Y-70011793D01*
X86630878Y-69996054D01*
X86657011Y-69991932D01*
X86657926Y-69992276D01*
X86679286Y-70006241D01*
X86726284Y-70037922D01*
X86794027Y-70083991D01*
X86877623Y-70141118D01*
X86972182Y-70205973D01*
X86999054Y-70224443D01*
X87096475Y-70290299D01*
X87185363Y-70348250D01*
X87260612Y-70395138D01*
X87317120Y-70427807D01*
X87349781Y-70443100D01*
X87353793Y-70443841D01*
X87374884Y-70430992D01*
X87416664Y-70395488D01*
X87474645Y-70341893D01*
X87544335Y-70274771D01*
X87621245Y-70198687D01*
X87700883Y-70118204D01*
X87778761Y-70037887D01*
X87850386Y-69962299D01*
X87911270Y-69896005D01*
X87956921Y-69843569D01*
X87982850Y-69809555D01*
X87987083Y-69800145D01*
X87977112Y-69778243D01*
X87950220Y-69733400D01*
X87910936Y-69672921D01*
X87879317Y-69626389D01*
X87821298Y-69542075D01*
X87752984Y-69442226D01*
X87684779Y-69342073D01*
X87648275Y-69288227D01*
X87525000Y-69105971D01*
X87607720Y-68952981D01*
X87643959Y-68883282D01*
X87672126Y-68824014D01*
X87688191Y-68783911D01*
X87690426Y-68773703D01*
X87673922Y-68761429D01*
X87627282Y-68737213D01*
X87554809Y-68702863D01*
X87460806Y-68660188D01*
X87349574Y-68610994D01*
X87225415Y-68557090D01*
X87092632Y-68500284D01*
X86955527Y-68442382D01*
X86818402Y-68385193D01*
X86685558Y-68330524D01*
X86561298Y-68280184D01*
X86449925Y-68235980D01*
X86355739Y-68199719D01*
X86283044Y-68173209D01*
X86236141Y-68158258D01*
X86220033Y-68155854D01*
X86199486Y-68174911D01*
X86166133Y-68216636D01*
X86126902Y-68272306D01*
X86123799Y-68276978D01*
X86008623Y-68420864D01*
X85874253Y-68536883D01*
X85724984Y-68624030D01*
X85565113Y-68681299D01*
X85398937Y-68707686D01*
X85230752Y-68702185D01*
X85064855Y-68663790D01*
X84905542Y-68591495D01*
X84870687Y-68570226D01*
X84729937Y-68459596D01*
X84616914Y-68328902D01*
X84532203Y-68182664D01*
X84476394Y-68025408D01*
X84450074Y-67861657D01*
X84453830Y-67695933D01*
X84488250Y-67532762D01*
X84553923Y-67376665D01*
X84651435Y-67232167D01*
X84691013Y-67187469D01*
X84814903Y-67073712D01*
X84945324Y-66990818D01*
X85091515Y-66933956D01*
X85236288Y-66902287D01*
X85399060Y-66894469D01*
X85562640Y-66920538D01*
X85721498Y-66977845D01*
X85870106Y-67063744D01*
X86002935Y-67175586D01*
X86114456Y-67310723D01*
X86126211Y-67328483D01*
X86164708Y-67384750D01*
X86198063Y-67427523D01*
X86219360Y-67447972D01*
X86220033Y-67448269D01*
X86243071Y-67443879D01*
X86295357Y-67426476D01*
X86372590Y-67397868D01*
X86470468Y-67359865D01*
X86584691Y-67314274D01*
X86710958Y-67262903D01*
X86844967Y-67207562D01*
X86982418Y-67150058D01*
X87119008Y-67092201D01*
X87250437Y-67035798D01*
X87372405Y-66982658D01*
X87480609Y-66934590D01*
X87570749Y-66893401D01*
X87638523Y-66860901D01*
X87679630Y-66838897D01*
X87690426Y-66830036D01*
X87682019Y-66802960D01*
X87659472Y-66752297D01*
X87626813Y-66686783D01*
X87607720Y-66650759D01*
X87525000Y-66497768D01*
X87648275Y-66315512D01*
X87711428Y-66222475D01*
X87780927Y-66120615D01*
X87846365Y-66025162D01*
X87879317Y-65977350D01*
X87924473Y-65910105D01*
X87960257Y-65853164D01*
X87982138Y-65813954D01*
X87986763Y-65801219D01*
X87974285Y-65782683D01*
X87939452Y-65741659D01*
X87885878Y-65682125D01*
X87817183Y-65608058D01*
X87736981Y-65523435D01*
X87685486Y-65469915D01*
X87593486Y-65376281D01*
X87511199Y-65295359D01*
X87442145Y-65230423D01*
X87389844Y-65184742D01*
X87357816Y-65161589D01*
X87351316Y-65159368D01*
X87326594Y-65169676D01*
X87276605Y-65198161D01*
X87206412Y-65241663D01*
X87121075Y-65297023D01*
X87025656Y-65361080D01*
X86999054Y-65379297D01*
X86902367Y-65445673D01*
X86815317Y-65505222D01*
X86742795Y-65554616D01*
X86689693Y-65590525D01*
X86660903Y-65609619D01*
X86657926Y-65611464D01*
X86634982Y-65608705D01*
X86584536Y-65594062D01*
X86513241Y-65570087D01*
X86427747Y-65539334D01*
X86334707Y-65504356D01*
X86240774Y-65467707D01*
X86152599Y-65431939D01*
X86076834Y-65399606D01*
X86020131Y-65373262D01*
X85989143Y-65355458D01*
X85987657Y-65354193D01*
X85978801Y-65343306D01*
X85970043Y-65324918D01*
X85960477Y-65294994D01*
X85949196Y-65249497D01*
X85935293Y-65184391D01*
X85917863Y-65095639D01*
X85895998Y-64979207D01*
X85868791Y-64831058D01*
X85862941Y-64798982D01*
X85844574Y-64703914D01*
X85826605Y-64621035D01*
X85810769Y-64557670D01*
X85798800Y-64521142D01*
X85796010Y-64516244D01*
X85771272Y-64508173D01*
X85715990Y-64501613D01*
X85636589Y-64496567D01*
X85539496Y-64493041D01*
X85431138Y-64491039D01*
X85317940Y-64490564D01*
X85206328Y-64491623D01*
X85102729Y-64494218D01*
X85013568Y-64498354D01*
X84945272Y-64504037D01*
X84904266Y-64511269D01*
X84895874Y-64515629D01*
X84887408Y-64539902D01*
X84873635Y-64595174D01*
X84855750Y-64675938D01*
X84834948Y-64776688D01*
X84812423Y-64891917D01*
X84800618Y-64954698D01*
X84778351Y-65073813D01*
X84758179Y-65180035D01*
X84741115Y-65268173D01*
X84728169Y-65333034D01*
X84720355Y-65369426D01*
X84718622Y-65375416D01*
X84699090Y-65385539D01*
X84652043Y-65406938D01*
X84584203Y-65436761D01*
X84502291Y-65472155D01*
X84413028Y-65510268D01*
X84323135Y-65548247D01*
X84239335Y-65583240D01*
X84168347Y-65612394D01*
X84116894Y-65632857D01*
X84091697Y-65641777D01*
X84090596Y-65641943D01*
X84070719Y-65631831D01*
X84024977Y-65603483D01*
X83957917Y-65559877D01*
X83874084Y-65503994D01*
X83778026Y-65438813D01*
X83722850Y-65400921D01*
X83621681Y-65331875D01*
X83529830Y-65270550D01*
X83451944Y-65219937D01*
X83392669Y-65183029D01*
X83356651Y-65162818D01*
X83348577Y-65159899D01*
X83329784Y-65172447D01*
X83289657Y-65207137D01*
X83232693Y-65259537D01*
X83163385Y-65325216D01*
X83086231Y-65399744D01*
X83005725Y-65478687D01*
X82926363Y-65557617D01*
X82852640Y-65632100D01*
X82789052Y-65697706D01*
X82740094Y-65750004D01*
X82710261Y-65784561D01*
X82703142Y-65796122D01*
X82713153Y-65814946D01*
X82741278Y-65859969D01*
X82784654Y-65926813D01*
X82840418Y-66011101D01*
X82905706Y-66108456D01*
X82955446Y-66181893D01*
X83207751Y-66552933D01*
X82952755Y-67171505D01*
X82508131Y-67255325D01*
X82063507Y-67339146D01*
X82063507Y-68264594D01*
X82508131Y-68348414D01*
G37*
X82508131Y-68348414D02*
X82952755Y-68432235D01*
X83080253Y-68741520D01*
X83207751Y-69050806D01*
X82955446Y-69421846D01*
X82885196Y-69525757D01*
X82822472Y-69619687D01*
X82770138Y-69699252D01*
X82731057Y-69760070D01*
X82708093Y-69797757D01*
X82703142Y-69808021D01*
X82715876Y-69826510D01*
X82751082Y-69866020D01*
X82804262Y-69922122D01*
X82870918Y-69990387D01*
X82946554Y-70066386D01*
X83026672Y-70145692D01*
X83106774Y-70223875D01*
X83182364Y-70296507D01*
X83248945Y-70359159D01*
X83302018Y-70407403D01*
X83337087Y-70436810D01*
X83348823Y-70443841D01*
X83370460Y-70433723D01*
X83417862Y-70405359D01*
X83486393Y-70361729D01*
X83571415Y-70305818D01*
X83668293Y-70240606D01*
X83723550Y-70202819D01*
X83824448Y-70133943D01*
X83915499Y-70072740D01*
X83992170Y-70022178D01*
X84049928Y-69985228D01*
X84084243Y-69964858D01*
X84091454Y-69961797D01*
X84111948Y-69968736D01*
X84159713Y-69987651D01*
X84228032Y-70015687D01*
X84310189Y-70049991D01*
X84399470Y-70087709D01*
X84489158Y-70125987D01*
X84572538Y-70161970D01*
X84642894Y-70192806D01*
X84693510Y-70215639D01*
X84717671Y-70227617D01*
X84718622Y-70228324D01*
X84723236Y-70247131D01*
X84733528Y-70297218D01*
X84748487Y-70373393D01*
X84767101Y-70470465D01*
X84788359Y-70583243D01*
X84800618Y-70649042D01*
X84823562Y-70769550D01*
X84845395Y-70878397D01*
X84864922Y-70970076D01*
X84880948Y-71039081D01*
X84892279Y-71079904D01*
X84895874Y-71088111D01*
X84920206Y-71096148D01*
X84975159Y-71102633D01*
X85054308Y-71107570D01*
X85151226Y-71110964D01*
X85259487Y-71112818D01*
X85372665Y-71113138D01*
X85484335Y-71111927D01*
X85588068Y-71109190D01*
X85677441Y-71104931D01*
X85746026Y-71099155D01*
X85787397Y-71091867D01*
X85796010Y-71087495D01*
X85806333Y-71061364D01*
X85821092Y-71005993D01*
X85838552Y-70928707D01*
X85856980Y-70836830D01*
X85862941Y-70804758D01*
X85891266Y-70650124D01*
X85914076Y-70527975D01*
X85932280Y-70434273D01*
X85946783Y-70364984D01*
X85958492Y-70316071D01*
X85968315Y-70283497D01*
X85977156Y-70263228D01*
X85985924Y-70251226D01*
X85987657Y-70249547D01*
X86015571Y-70232784D01*
X86069895Y-70207214D01*
X86143977Y-70175388D01*
X86231165Y-70139860D01*
X86324808Y-70103183D01*
X86418252Y-70067911D01*
X86504847Y-70036596D01*
X86577940Y-70011793D01*
X86630878Y-69996054D01*
X86657011Y-69991932D01*
X86657926Y-69992276D01*
X86679286Y-70006241D01*
X86726284Y-70037922D01*
X86794027Y-70083991D01*
X86877623Y-70141118D01*
X86972182Y-70205973D01*
X86999054Y-70224443D01*
X87096475Y-70290299D01*
X87185363Y-70348250D01*
X87260612Y-70395138D01*
X87317120Y-70427807D01*
X87349781Y-70443100D01*
X87353793Y-70443841D01*
X87374884Y-70430992D01*
X87416664Y-70395488D01*
X87474645Y-70341893D01*
X87544335Y-70274771D01*
X87621245Y-70198687D01*
X87700883Y-70118204D01*
X87778761Y-70037887D01*
X87850386Y-69962299D01*
X87911270Y-69896005D01*
X87956921Y-69843569D01*
X87982850Y-69809555D01*
X87987083Y-69800145D01*
X87977112Y-69778243D01*
X87950220Y-69733400D01*
X87910936Y-69672921D01*
X87879317Y-69626389D01*
X87821298Y-69542075D01*
X87752984Y-69442226D01*
X87684779Y-69342073D01*
X87648275Y-69288227D01*
X87525000Y-69105971D01*
X87607720Y-68952981D01*
X87643959Y-68883282D01*
X87672126Y-68824014D01*
X87688191Y-68783911D01*
X87690426Y-68773703D01*
X87673922Y-68761429D01*
X87627282Y-68737213D01*
X87554809Y-68702863D01*
X87460806Y-68660188D01*
X87349574Y-68610994D01*
X87225415Y-68557090D01*
X87092632Y-68500284D01*
X86955527Y-68442382D01*
X86818402Y-68385193D01*
X86685558Y-68330524D01*
X86561298Y-68280184D01*
X86449925Y-68235980D01*
X86355739Y-68199719D01*
X86283044Y-68173209D01*
X86236141Y-68158258D01*
X86220033Y-68155854D01*
X86199486Y-68174911D01*
X86166133Y-68216636D01*
X86126902Y-68272306D01*
X86123799Y-68276978D01*
X86008623Y-68420864D01*
X85874253Y-68536883D01*
X85724984Y-68624030D01*
X85565113Y-68681299D01*
X85398937Y-68707686D01*
X85230752Y-68702185D01*
X85064855Y-68663790D01*
X84905542Y-68591495D01*
X84870687Y-68570226D01*
X84729937Y-68459596D01*
X84616914Y-68328902D01*
X84532203Y-68182664D01*
X84476394Y-68025408D01*
X84450074Y-67861657D01*
X84453830Y-67695933D01*
X84488250Y-67532762D01*
X84553923Y-67376665D01*
X84651435Y-67232167D01*
X84691013Y-67187469D01*
X84814903Y-67073712D01*
X84945324Y-66990818D01*
X85091515Y-66933956D01*
X85236288Y-66902287D01*
X85399060Y-66894469D01*
X85562640Y-66920538D01*
X85721498Y-66977845D01*
X85870106Y-67063744D01*
X86002935Y-67175586D01*
X86114456Y-67310723D01*
X86126211Y-67328483D01*
X86164708Y-67384750D01*
X86198063Y-67427523D01*
X86219360Y-67447972D01*
X86220033Y-67448269D01*
X86243071Y-67443879D01*
X86295357Y-67426476D01*
X86372590Y-67397868D01*
X86470468Y-67359865D01*
X86584691Y-67314274D01*
X86710958Y-67262903D01*
X86844967Y-67207562D01*
X86982418Y-67150058D01*
X87119008Y-67092201D01*
X87250437Y-67035798D01*
X87372405Y-66982658D01*
X87480609Y-66934590D01*
X87570749Y-66893401D01*
X87638523Y-66860901D01*
X87679630Y-66838897D01*
X87690426Y-66830036D01*
X87682019Y-66802960D01*
X87659472Y-66752297D01*
X87626813Y-66686783D01*
X87607720Y-66650759D01*
X87525000Y-66497768D01*
X87648275Y-66315512D01*
X87711428Y-66222475D01*
X87780927Y-66120615D01*
X87846365Y-66025162D01*
X87879317Y-65977350D01*
X87924473Y-65910105D01*
X87960257Y-65853164D01*
X87982138Y-65813954D01*
X87986763Y-65801219D01*
X87974285Y-65782683D01*
X87939452Y-65741659D01*
X87885878Y-65682125D01*
X87817183Y-65608058D01*
X87736981Y-65523435D01*
X87685486Y-65469915D01*
X87593486Y-65376281D01*
X87511199Y-65295359D01*
X87442145Y-65230423D01*
X87389844Y-65184742D01*
X87357816Y-65161589D01*
X87351316Y-65159368D01*
X87326594Y-65169676D01*
X87276605Y-65198161D01*
X87206412Y-65241663D01*
X87121075Y-65297023D01*
X87025656Y-65361080D01*
X86999054Y-65379297D01*
X86902367Y-65445673D01*
X86815317Y-65505222D01*
X86742795Y-65554616D01*
X86689693Y-65590525D01*
X86660903Y-65609619D01*
X86657926Y-65611464D01*
X86634982Y-65608705D01*
X86584536Y-65594062D01*
X86513241Y-65570087D01*
X86427747Y-65539334D01*
X86334707Y-65504356D01*
X86240774Y-65467707D01*
X86152599Y-65431939D01*
X86076834Y-65399606D01*
X86020131Y-65373262D01*
X85989143Y-65355458D01*
X85987657Y-65354193D01*
X85978801Y-65343306D01*
X85970043Y-65324918D01*
X85960477Y-65294994D01*
X85949196Y-65249497D01*
X85935293Y-65184391D01*
X85917863Y-65095639D01*
X85895998Y-64979207D01*
X85868791Y-64831058D01*
X85862941Y-64798982D01*
X85844574Y-64703914D01*
X85826605Y-64621035D01*
X85810769Y-64557670D01*
X85798800Y-64521142D01*
X85796010Y-64516244D01*
X85771272Y-64508173D01*
X85715990Y-64501613D01*
X85636589Y-64496567D01*
X85539496Y-64493041D01*
X85431138Y-64491039D01*
X85317940Y-64490564D01*
X85206328Y-64491623D01*
X85102729Y-64494218D01*
X85013568Y-64498354D01*
X84945272Y-64504037D01*
X84904266Y-64511269D01*
X84895874Y-64515629D01*
X84887408Y-64539902D01*
X84873635Y-64595174D01*
X84855750Y-64675938D01*
X84834948Y-64776688D01*
X84812423Y-64891917D01*
X84800618Y-64954698D01*
X84778351Y-65073813D01*
X84758179Y-65180035D01*
X84741115Y-65268173D01*
X84728169Y-65333034D01*
X84720355Y-65369426D01*
X84718622Y-65375416D01*
X84699090Y-65385539D01*
X84652043Y-65406938D01*
X84584203Y-65436761D01*
X84502291Y-65472155D01*
X84413028Y-65510268D01*
X84323135Y-65548247D01*
X84239335Y-65583240D01*
X84168347Y-65612394D01*
X84116894Y-65632857D01*
X84091697Y-65641777D01*
X84090596Y-65641943D01*
X84070719Y-65631831D01*
X84024977Y-65603483D01*
X83957917Y-65559877D01*
X83874084Y-65503994D01*
X83778026Y-65438813D01*
X83722850Y-65400921D01*
X83621681Y-65331875D01*
X83529830Y-65270550D01*
X83451944Y-65219937D01*
X83392669Y-65183029D01*
X83356651Y-65162818D01*
X83348577Y-65159899D01*
X83329784Y-65172447D01*
X83289657Y-65207137D01*
X83232693Y-65259537D01*
X83163385Y-65325216D01*
X83086231Y-65399744D01*
X83005725Y-65478687D01*
X82926363Y-65557617D01*
X82852640Y-65632100D01*
X82789052Y-65697706D01*
X82740094Y-65750004D01*
X82710261Y-65784561D01*
X82703142Y-65796122D01*
X82713153Y-65814946D01*
X82741278Y-65859969D01*
X82784654Y-65926813D01*
X82840418Y-66011101D01*
X82905706Y-66108456D01*
X82955446Y-66181893D01*
X83207751Y-66552933D01*
X82952755Y-67171505D01*
X82508131Y-67255325D01*
X82063507Y-67339146D01*
X82063507Y-68264594D01*
X82508131Y-68348414D01*
G36*
X120608131Y-50568414D02*
G01*
X121052755Y-50652235D01*
X121180253Y-50961520D01*
X121307751Y-51270806D01*
X121055446Y-51641846D01*
X120985196Y-51745757D01*
X120922472Y-51839687D01*
X120870138Y-51919252D01*
X120831057Y-51980070D01*
X120808093Y-52017757D01*
X120803142Y-52028021D01*
X120815876Y-52046510D01*
X120851082Y-52086020D01*
X120904262Y-52142122D01*
X120970918Y-52210387D01*
X121046554Y-52286386D01*
X121126672Y-52365692D01*
X121206774Y-52443875D01*
X121282364Y-52516507D01*
X121348945Y-52579159D01*
X121402018Y-52627403D01*
X121437087Y-52656810D01*
X121448823Y-52663841D01*
X121470460Y-52653723D01*
X121517862Y-52625359D01*
X121586393Y-52581729D01*
X121671415Y-52525818D01*
X121768293Y-52460606D01*
X121823550Y-52422819D01*
X121924448Y-52353943D01*
X122015499Y-52292740D01*
X122092170Y-52242178D01*
X122149928Y-52205228D01*
X122184243Y-52184858D01*
X122191454Y-52181797D01*
X122211948Y-52188736D01*
X122259713Y-52207651D01*
X122328032Y-52235687D01*
X122410189Y-52269991D01*
X122499470Y-52307709D01*
X122589158Y-52345987D01*
X122672538Y-52381970D01*
X122742894Y-52412806D01*
X122793510Y-52435639D01*
X122817671Y-52447617D01*
X122818622Y-52448324D01*
X122823236Y-52467131D01*
X122833528Y-52517218D01*
X122848487Y-52593393D01*
X122867101Y-52690465D01*
X122888359Y-52803243D01*
X122900618Y-52869042D01*
X122923562Y-52989550D01*
X122945395Y-53098397D01*
X122964922Y-53190076D01*
X122980948Y-53259081D01*
X122992279Y-53299904D01*
X122995874Y-53308111D01*
X123020206Y-53316148D01*
X123075159Y-53322633D01*
X123154308Y-53327570D01*
X123251226Y-53330964D01*
X123359487Y-53332818D01*
X123472665Y-53333138D01*
X123584335Y-53331927D01*
X123688068Y-53329190D01*
X123777441Y-53324931D01*
X123846026Y-53319155D01*
X123887397Y-53311867D01*
X123896010Y-53307495D01*
X123906333Y-53281364D01*
X123921092Y-53225993D01*
X123938552Y-53148707D01*
X123956980Y-53056830D01*
X123962941Y-53024758D01*
X123991266Y-52870124D01*
X124014076Y-52747975D01*
X124032280Y-52654273D01*
X124046783Y-52584984D01*
X124058492Y-52536071D01*
X124068315Y-52503497D01*
X124077156Y-52483228D01*
X124085924Y-52471226D01*
X124087657Y-52469547D01*
X124115571Y-52452784D01*
X124169895Y-52427214D01*
X124243977Y-52395388D01*
X124331165Y-52359860D01*
X124424808Y-52323183D01*
X124518252Y-52287911D01*
X124604847Y-52256596D01*
X124677940Y-52231793D01*
X124730878Y-52216054D01*
X124757011Y-52211932D01*
X124757926Y-52212276D01*
X124779286Y-52226241D01*
X124826284Y-52257922D01*
X124894027Y-52303991D01*
X124977623Y-52361118D01*
X125072182Y-52425973D01*
X125099054Y-52444443D01*
X125196475Y-52510299D01*
X125285363Y-52568250D01*
X125360612Y-52615138D01*
X125417120Y-52647807D01*
X125449781Y-52663100D01*
X125453793Y-52663841D01*
X125474884Y-52650992D01*
X125516664Y-52615488D01*
X125574645Y-52561893D01*
X125644335Y-52494771D01*
X125721245Y-52418687D01*
X125800883Y-52338204D01*
X125878761Y-52257887D01*
X125950386Y-52182299D01*
X126011270Y-52116005D01*
X126056921Y-52063569D01*
X126082850Y-52029555D01*
X126087083Y-52020145D01*
X126077112Y-51998243D01*
X126050220Y-51953400D01*
X126010936Y-51892921D01*
X125979317Y-51846389D01*
X125921298Y-51762075D01*
X125852984Y-51662226D01*
X125784779Y-51562073D01*
X125748275Y-51508227D01*
X125625000Y-51325971D01*
X125707720Y-51172981D01*
X125743959Y-51103282D01*
X125772126Y-51044014D01*
X125788191Y-51003911D01*
X125790426Y-50993703D01*
X125773922Y-50981429D01*
X125727282Y-50957213D01*
X125654809Y-50922863D01*
X125560806Y-50880188D01*
X125449574Y-50830994D01*
X125325415Y-50777090D01*
X125192632Y-50720284D01*
X125055527Y-50662382D01*
X124918402Y-50605193D01*
X124785558Y-50550524D01*
X124661298Y-50500184D01*
X124549925Y-50455980D01*
X124455739Y-50419719D01*
X124383044Y-50393209D01*
X124336141Y-50378258D01*
X124320033Y-50375854D01*
X124299486Y-50394911D01*
X124266133Y-50436636D01*
X124226902Y-50492306D01*
X124223799Y-50496978D01*
X124108623Y-50640864D01*
X123974253Y-50756883D01*
X123824984Y-50844030D01*
X123665113Y-50901299D01*
X123498937Y-50927686D01*
X123330752Y-50922185D01*
X123164855Y-50883790D01*
X123005542Y-50811495D01*
X122970687Y-50790226D01*
X122829937Y-50679596D01*
X122716914Y-50548902D01*
X122632203Y-50402664D01*
X122576394Y-50245408D01*
X122550074Y-50081657D01*
X122553830Y-49915933D01*
X122588250Y-49752762D01*
X122653923Y-49596665D01*
X122751435Y-49452167D01*
X122791013Y-49407469D01*
X122914903Y-49293712D01*
X123045324Y-49210818D01*
X123191515Y-49153956D01*
X123336288Y-49122287D01*
X123499060Y-49114469D01*
X123662640Y-49140538D01*
X123821498Y-49197845D01*
X123970106Y-49283744D01*
X124102935Y-49395586D01*
X124214456Y-49530723D01*
X124226211Y-49548483D01*
X124264708Y-49604750D01*
X124298063Y-49647523D01*
X124319360Y-49667972D01*
X124320033Y-49668269D01*
X124343071Y-49663879D01*
X124395357Y-49646476D01*
X124472590Y-49617868D01*
X124570468Y-49579865D01*
X124684691Y-49534274D01*
X124810958Y-49482903D01*
X124944967Y-49427562D01*
X125082418Y-49370058D01*
X125219008Y-49312201D01*
X125350437Y-49255798D01*
X125472405Y-49202658D01*
X125580609Y-49154590D01*
X125670749Y-49113401D01*
X125738523Y-49080901D01*
X125779630Y-49058897D01*
X125790426Y-49050036D01*
X125782019Y-49022960D01*
X125759472Y-48972297D01*
X125726813Y-48906783D01*
X125707720Y-48870759D01*
X125625000Y-48717768D01*
X125748275Y-48535512D01*
X125811428Y-48442475D01*
X125880927Y-48340615D01*
X125946365Y-48245162D01*
X125979317Y-48197350D01*
X126024473Y-48130105D01*
X126060257Y-48073164D01*
X126082138Y-48033954D01*
X126086763Y-48021219D01*
X126074285Y-48002683D01*
X126039452Y-47961659D01*
X125985878Y-47902125D01*
X125917183Y-47828058D01*
X125836981Y-47743435D01*
X125785486Y-47689915D01*
X125693486Y-47596281D01*
X125611199Y-47515359D01*
X125542145Y-47450423D01*
X125489844Y-47404742D01*
X125457816Y-47381589D01*
X125451316Y-47379368D01*
X125426594Y-47389676D01*
X125376605Y-47418161D01*
X125306412Y-47461663D01*
X125221075Y-47517023D01*
X125125656Y-47581080D01*
X125099054Y-47599297D01*
X125002367Y-47665673D01*
X124915317Y-47725222D01*
X124842795Y-47774616D01*
X124789693Y-47810525D01*
X124760903Y-47829619D01*
X124757926Y-47831464D01*
X124734982Y-47828705D01*
X124684536Y-47814062D01*
X124613241Y-47790087D01*
X124527747Y-47759334D01*
X124434707Y-47724356D01*
X124340774Y-47687707D01*
X124252599Y-47651939D01*
X124176834Y-47619606D01*
X124120131Y-47593262D01*
X124089143Y-47575458D01*
X124087657Y-47574193D01*
X124078801Y-47563306D01*
X124070043Y-47544918D01*
X124060477Y-47514994D01*
X124049196Y-47469497D01*
X124035293Y-47404391D01*
X124017863Y-47315639D01*
X123995998Y-47199207D01*
X123968791Y-47051058D01*
X123962941Y-47018982D01*
X123944574Y-46923914D01*
X123926605Y-46841035D01*
X123910769Y-46777670D01*
X123898800Y-46741142D01*
X123896010Y-46736244D01*
X123871272Y-46728173D01*
X123815990Y-46721613D01*
X123736589Y-46716567D01*
X123639496Y-46713041D01*
X123531138Y-46711039D01*
X123417940Y-46710564D01*
X123306328Y-46711623D01*
X123202729Y-46714218D01*
X123113568Y-46718354D01*
X123045272Y-46724037D01*
X123004266Y-46731269D01*
X122995874Y-46735629D01*
X122987408Y-46759902D01*
X122973635Y-46815174D01*
X122955750Y-46895938D01*
X122934948Y-46996688D01*
X122912423Y-47111917D01*
X122900618Y-47174698D01*
X122878351Y-47293813D01*
X122858179Y-47400035D01*
X122841115Y-47488173D01*
X122828169Y-47553034D01*
X122820355Y-47589426D01*
X122818622Y-47595416D01*
X122799090Y-47605539D01*
X122752043Y-47626938D01*
X122684203Y-47656761D01*
X122602291Y-47692155D01*
X122513028Y-47730268D01*
X122423135Y-47768247D01*
X122339335Y-47803240D01*
X122268347Y-47832394D01*
X122216894Y-47852857D01*
X122191697Y-47861777D01*
X122190596Y-47861943D01*
X122170719Y-47851831D01*
X122124977Y-47823483D01*
X122057917Y-47779877D01*
X121974084Y-47723994D01*
X121878026Y-47658813D01*
X121822850Y-47620921D01*
X121721681Y-47551875D01*
X121629830Y-47490550D01*
X121551944Y-47439937D01*
X121492669Y-47403029D01*
X121456651Y-47382818D01*
X121448577Y-47379899D01*
X121429784Y-47392447D01*
X121389657Y-47427137D01*
X121332693Y-47479537D01*
X121263385Y-47545216D01*
X121186231Y-47619744D01*
X121105725Y-47698687D01*
X121026363Y-47777617D01*
X120952640Y-47852100D01*
X120889052Y-47917706D01*
X120840094Y-47970004D01*
X120810261Y-48004561D01*
X120803142Y-48016122D01*
X120813153Y-48034946D01*
X120841278Y-48079969D01*
X120884654Y-48146813D01*
X120940418Y-48231101D01*
X121005706Y-48328456D01*
X121055446Y-48401893D01*
X121307751Y-48772933D01*
X121052755Y-49391505D01*
X120608131Y-49475325D01*
X120163507Y-49559146D01*
X120163507Y-50484594D01*
X120608131Y-50568414D01*
G37*
X120608131Y-50568414D02*
X121052755Y-50652235D01*
X121180253Y-50961520D01*
X121307751Y-51270806D01*
X121055446Y-51641846D01*
X120985196Y-51745757D01*
X120922472Y-51839687D01*
X120870138Y-51919252D01*
X120831057Y-51980070D01*
X120808093Y-52017757D01*
X120803142Y-52028021D01*
X120815876Y-52046510D01*
X120851082Y-52086020D01*
X120904262Y-52142122D01*
X120970918Y-52210387D01*
X121046554Y-52286386D01*
X121126672Y-52365692D01*
X121206774Y-52443875D01*
X121282364Y-52516507D01*
X121348945Y-52579159D01*
X121402018Y-52627403D01*
X121437087Y-52656810D01*
X121448823Y-52663841D01*
X121470460Y-52653723D01*
X121517862Y-52625359D01*
X121586393Y-52581729D01*
X121671415Y-52525818D01*
X121768293Y-52460606D01*
X121823550Y-52422819D01*
X121924448Y-52353943D01*
X122015499Y-52292740D01*
X122092170Y-52242178D01*
X122149928Y-52205228D01*
X122184243Y-52184858D01*
X122191454Y-52181797D01*
X122211948Y-52188736D01*
X122259713Y-52207651D01*
X122328032Y-52235687D01*
X122410189Y-52269991D01*
X122499470Y-52307709D01*
X122589158Y-52345987D01*
X122672538Y-52381970D01*
X122742894Y-52412806D01*
X122793510Y-52435639D01*
X122817671Y-52447617D01*
X122818622Y-52448324D01*
X122823236Y-52467131D01*
X122833528Y-52517218D01*
X122848487Y-52593393D01*
X122867101Y-52690465D01*
X122888359Y-52803243D01*
X122900618Y-52869042D01*
X122923562Y-52989550D01*
X122945395Y-53098397D01*
X122964922Y-53190076D01*
X122980948Y-53259081D01*
X122992279Y-53299904D01*
X122995874Y-53308111D01*
X123020206Y-53316148D01*
X123075159Y-53322633D01*
X123154308Y-53327570D01*
X123251226Y-53330964D01*
X123359487Y-53332818D01*
X123472665Y-53333138D01*
X123584335Y-53331927D01*
X123688068Y-53329190D01*
X123777441Y-53324931D01*
X123846026Y-53319155D01*
X123887397Y-53311867D01*
X123896010Y-53307495D01*
X123906333Y-53281364D01*
X123921092Y-53225993D01*
X123938552Y-53148707D01*
X123956980Y-53056830D01*
X123962941Y-53024758D01*
X123991266Y-52870124D01*
X124014076Y-52747975D01*
X124032280Y-52654273D01*
X124046783Y-52584984D01*
X124058492Y-52536071D01*
X124068315Y-52503497D01*
X124077156Y-52483228D01*
X124085924Y-52471226D01*
X124087657Y-52469547D01*
X124115571Y-52452784D01*
X124169895Y-52427214D01*
X124243977Y-52395388D01*
X124331165Y-52359860D01*
X124424808Y-52323183D01*
X124518252Y-52287911D01*
X124604847Y-52256596D01*
X124677940Y-52231793D01*
X124730878Y-52216054D01*
X124757011Y-52211932D01*
X124757926Y-52212276D01*
X124779286Y-52226241D01*
X124826284Y-52257922D01*
X124894027Y-52303991D01*
X124977623Y-52361118D01*
X125072182Y-52425973D01*
X125099054Y-52444443D01*
X125196475Y-52510299D01*
X125285363Y-52568250D01*
X125360612Y-52615138D01*
X125417120Y-52647807D01*
X125449781Y-52663100D01*
X125453793Y-52663841D01*
X125474884Y-52650992D01*
X125516664Y-52615488D01*
X125574645Y-52561893D01*
X125644335Y-52494771D01*
X125721245Y-52418687D01*
X125800883Y-52338204D01*
X125878761Y-52257887D01*
X125950386Y-52182299D01*
X126011270Y-52116005D01*
X126056921Y-52063569D01*
X126082850Y-52029555D01*
X126087083Y-52020145D01*
X126077112Y-51998243D01*
X126050220Y-51953400D01*
X126010936Y-51892921D01*
X125979317Y-51846389D01*
X125921298Y-51762075D01*
X125852984Y-51662226D01*
X125784779Y-51562073D01*
X125748275Y-51508227D01*
X125625000Y-51325971D01*
X125707720Y-51172981D01*
X125743959Y-51103282D01*
X125772126Y-51044014D01*
X125788191Y-51003911D01*
X125790426Y-50993703D01*
X125773922Y-50981429D01*
X125727282Y-50957213D01*
X125654809Y-50922863D01*
X125560806Y-50880188D01*
X125449574Y-50830994D01*
X125325415Y-50777090D01*
X125192632Y-50720284D01*
X125055527Y-50662382D01*
X124918402Y-50605193D01*
X124785558Y-50550524D01*
X124661298Y-50500184D01*
X124549925Y-50455980D01*
X124455739Y-50419719D01*
X124383044Y-50393209D01*
X124336141Y-50378258D01*
X124320033Y-50375854D01*
X124299486Y-50394911D01*
X124266133Y-50436636D01*
X124226902Y-50492306D01*
X124223799Y-50496978D01*
X124108623Y-50640864D01*
X123974253Y-50756883D01*
X123824984Y-50844030D01*
X123665113Y-50901299D01*
X123498937Y-50927686D01*
X123330752Y-50922185D01*
X123164855Y-50883790D01*
X123005542Y-50811495D01*
X122970687Y-50790226D01*
X122829937Y-50679596D01*
X122716914Y-50548902D01*
X122632203Y-50402664D01*
X122576394Y-50245408D01*
X122550074Y-50081657D01*
X122553830Y-49915933D01*
X122588250Y-49752762D01*
X122653923Y-49596665D01*
X122751435Y-49452167D01*
X122791013Y-49407469D01*
X122914903Y-49293712D01*
X123045324Y-49210818D01*
X123191515Y-49153956D01*
X123336288Y-49122287D01*
X123499060Y-49114469D01*
X123662640Y-49140538D01*
X123821498Y-49197845D01*
X123970106Y-49283744D01*
X124102935Y-49395586D01*
X124214456Y-49530723D01*
X124226211Y-49548483D01*
X124264708Y-49604750D01*
X124298063Y-49647523D01*
X124319360Y-49667972D01*
X124320033Y-49668269D01*
X124343071Y-49663879D01*
X124395357Y-49646476D01*
X124472590Y-49617868D01*
X124570468Y-49579865D01*
X124684691Y-49534274D01*
X124810958Y-49482903D01*
X124944967Y-49427562D01*
X125082418Y-49370058D01*
X125219008Y-49312201D01*
X125350437Y-49255798D01*
X125472405Y-49202658D01*
X125580609Y-49154590D01*
X125670749Y-49113401D01*
X125738523Y-49080901D01*
X125779630Y-49058897D01*
X125790426Y-49050036D01*
X125782019Y-49022960D01*
X125759472Y-48972297D01*
X125726813Y-48906783D01*
X125707720Y-48870759D01*
X125625000Y-48717768D01*
X125748275Y-48535512D01*
X125811428Y-48442475D01*
X125880927Y-48340615D01*
X125946365Y-48245162D01*
X125979317Y-48197350D01*
X126024473Y-48130105D01*
X126060257Y-48073164D01*
X126082138Y-48033954D01*
X126086763Y-48021219D01*
X126074285Y-48002683D01*
X126039452Y-47961659D01*
X125985878Y-47902125D01*
X125917183Y-47828058D01*
X125836981Y-47743435D01*
X125785486Y-47689915D01*
X125693486Y-47596281D01*
X125611199Y-47515359D01*
X125542145Y-47450423D01*
X125489844Y-47404742D01*
X125457816Y-47381589D01*
X125451316Y-47379368D01*
X125426594Y-47389676D01*
X125376605Y-47418161D01*
X125306412Y-47461663D01*
X125221075Y-47517023D01*
X125125656Y-47581080D01*
X125099054Y-47599297D01*
X125002367Y-47665673D01*
X124915317Y-47725222D01*
X124842795Y-47774616D01*
X124789693Y-47810525D01*
X124760903Y-47829619D01*
X124757926Y-47831464D01*
X124734982Y-47828705D01*
X124684536Y-47814062D01*
X124613241Y-47790087D01*
X124527747Y-47759334D01*
X124434707Y-47724356D01*
X124340774Y-47687707D01*
X124252599Y-47651939D01*
X124176834Y-47619606D01*
X124120131Y-47593262D01*
X124089143Y-47575458D01*
X124087657Y-47574193D01*
X124078801Y-47563306D01*
X124070043Y-47544918D01*
X124060477Y-47514994D01*
X124049196Y-47469497D01*
X124035293Y-47404391D01*
X124017863Y-47315639D01*
X123995998Y-47199207D01*
X123968791Y-47051058D01*
X123962941Y-47018982D01*
X123944574Y-46923914D01*
X123926605Y-46841035D01*
X123910769Y-46777670D01*
X123898800Y-46741142D01*
X123896010Y-46736244D01*
X123871272Y-46728173D01*
X123815990Y-46721613D01*
X123736589Y-46716567D01*
X123639496Y-46713041D01*
X123531138Y-46711039D01*
X123417940Y-46710564D01*
X123306328Y-46711623D01*
X123202729Y-46714218D01*
X123113568Y-46718354D01*
X123045272Y-46724037D01*
X123004266Y-46731269D01*
X122995874Y-46735629D01*
X122987408Y-46759902D01*
X122973635Y-46815174D01*
X122955750Y-46895938D01*
X122934948Y-46996688D01*
X122912423Y-47111917D01*
X122900618Y-47174698D01*
X122878351Y-47293813D01*
X122858179Y-47400035D01*
X122841115Y-47488173D01*
X122828169Y-47553034D01*
X122820355Y-47589426D01*
X122818622Y-47595416D01*
X122799090Y-47605539D01*
X122752043Y-47626938D01*
X122684203Y-47656761D01*
X122602291Y-47692155D01*
X122513028Y-47730268D01*
X122423135Y-47768247D01*
X122339335Y-47803240D01*
X122268347Y-47832394D01*
X122216894Y-47852857D01*
X122191697Y-47861777D01*
X122190596Y-47861943D01*
X122170719Y-47851831D01*
X122124977Y-47823483D01*
X122057917Y-47779877D01*
X121974084Y-47723994D01*
X121878026Y-47658813D01*
X121822850Y-47620921D01*
X121721681Y-47551875D01*
X121629830Y-47490550D01*
X121551944Y-47439937D01*
X121492669Y-47403029D01*
X121456651Y-47382818D01*
X121448577Y-47379899D01*
X121429784Y-47392447D01*
X121389657Y-47427137D01*
X121332693Y-47479537D01*
X121263385Y-47545216D01*
X121186231Y-47619744D01*
X121105725Y-47698687D01*
X121026363Y-47777617D01*
X120952640Y-47852100D01*
X120889052Y-47917706D01*
X120840094Y-47970004D01*
X120810261Y-48004561D01*
X120803142Y-48016122D01*
X120813153Y-48034946D01*
X120841278Y-48079969D01*
X120884654Y-48146813D01*
X120940418Y-48231101D01*
X121005706Y-48328456D01*
X121055446Y-48401893D01*
X121307751Y-48772933D01*
X121052755Y-49391505D01*
X120608131Y-49475325D01*
X120163507Y-49559146D01*
X120163507Y-50484594D01*
X120608131Y-50568414D01*
G36*
X82508131Y-50568414D02*
G01*
X82952755Y-50652235D01*
X83080253Y-50961520D01*
X83207751Y-51270806D01*
X82955446Y-51641846D01*
X82885196Y-51745757D01*
X82822472Y-51839687D01*
X82770138Y-51919252D01*
X82731057Y-51980070D01*
X82708093Y-52017757D01*
X82703142Y-52028021D01*
X82715876Y-52046510D01*
X82751082Y-52086020D01*
X82804262Y-52142122D01*
X82870918Y-52210387D01*
X82946554Y-52286386D01*
X83026672Y-52365692D01*
X83106774Y-52443875D01*
X83182364Y-52516507D01*
X83248945Y-52579159D01*
X83302018Y-52627403D01*
X83337087Y-52656810D01*
X83348823Y-52663841D01*
X83370460Y-52653723D01*
X83417862Y-52625359D01*
X83486393Y-52581729D01*
X83571415Y-52525818D01*
X83668293Y-52460606D01*
X83723550Y-52422819D01*
X83824448Y-52353943D01*
X83915499Y-52292740D01*
X83992170Y-52242178D01*
X84049928Y-52205228D01*
X84084243Y-52184858D01*
X84091454Y-52181797D01*
X84111948Y-52188736D01*
X84159713Y-52207651D01*
X84228032Y-52235687D01*
X84310189Y-52269991D01*
X84399470Y-52307709D01*
X84489158Y-52345987D01*
X84572538Y-52381970D01*
X84642894Y-52412806D01*
X84693510Y-52435639D01*
X84717671Y-52447617D01*
X84718622Y-52448324D01*
X84723236Y-52467131D01*
X84733528Y-52517218D01*
X84748487Y-52593393D01*
X84767101Y-52690465D01*
X84788359Y-52803243D01*
X84800618Y-52869042D01*
X84823562Y-52989550D01*
X84845395Y-53098397D01*
X84864922Y-53190076D01*
X84880948Y-53259081D01*
X84892279Y-53299904D01*
X84895874Y-53308111D01*
X84920206Y-53316148D01*
X84975159Y-53322633D01*
X85054308Y-53327570D01*
X85151226Y-53330964D01*
X85259487Y-53332818D01*
X85372665Y-53333138D01*
X85484335Y-53331927D01*
X85588068Y-53329190D01*
X85677441Y-53324931D01*
X85746026Y-53319155D01*
X85787397Y-53311867D01*
X85796010Y-53307495D01*
X85806333Y-53281364D01*
X85821092Y-53225993D01*
X85838552Y-53148707D01*
X85856980Y-53056830D01*
X85862941Y-53024758D01*
X85891266Y-52870124D01*
X85914076Y-52747975D01*
X85932280Y-52654273D01*
X85946783Y-52584984D01*
X85958492Y-52536071D01*
X85968315Y-52503497D01*
X85977156Y-52483228D01*
X85985924Y-52471226D01*
X85987657Y-52469547D01*
X86015571Y-52452784D01*
X86069895Y-52427214D01*
X86143977Y-52395388D01*
X86231165Y-52359860D01*
X86324808Y-52323183D01*
X86418252Y-52287911D01*
X86504847Y-52256596D01*
X86577940Y-52231793D01*
X86630878Y-52216054D01*
X86657011Y-52211932D01*
X86657926Y-52212276D01*
X86679286Y-52226241D01*
X86726284Y-52257922D01*
X86794027Y-52303991D01*
X86877623Y-52361118D01*
X86972182Y-52425973D01*
X86999054Y-52444443D01*
X87096475Y-52510299D01*
X87185363Y-52568250D01*
X87260612Y-52615138D01*
X87317120Y-52647807D01*
X87349781Y-52663100D01*
X87353793Y-52663841D01*
X87374884Y-52650992D01*
X87416664Y-52615488D01*
X87474645Y-52561893D01*
X87544335Y-52494771D01*
X87621245Y-52418687D01*
X87700883Y-52338204D01*
X87778761Y-52257887D01*
X87850386Y-52182299D01*
X87911270Y-52116005D01*
X87956921Y-52063569D01*
X87982850Y-52029555D01*
X87987083Y-52020145D01*
X87977112Y-51998243D01*
X87950220Y-51953400D01*
X87910936Y-51892921D01*
X87879317Y-51846389D01*
X87821298Y-51762075D01*
X87752984Y-51662226D01*
X87684779Y-51562073D01*
X87648275Y-51508227D01*
X87525000Y-51325971D01*
X87607720Y-51172981D01*
X87643959Y-51103282D01*
X87672126Y-51044014D01*
X87688191Y-51003911D01*
X87690426Y-50993703D01*
X87673922Y-50981429D01*
X87627282Y-50957213D01*
X87554809Y-50922863D01*
X87460806Y-50880188D01*
X87349574Y-50830994D01*
X87225415Y-50777090D01*
X87092632Y-50720284D01*
X86955527Y-50662382D01*
X86818402Y-50605193D01*
X86685558Y-50550524D01*
X86561298Y-50500184D01*
X86449925Y-50455980D01*
X86355739Y-50419719D01*
X86283044Y-50393209D01*
X86236141Y-50378258D01*
X86220033Y-50375854D01*
X86199486Y-50394911D01*
X86166133Y-50436636D01*
X86126902Y-50492306D01*
X86123799Y-50496978D01*
X86008623Y-50640864D01*
X85874253Y-50756883D01*
X85724984Y-50844030D01*
X85565113Y-50901299D01*
X85398937Y-50927686D01*
X85230752Y-50922185D01*
X85064855Y-50883790D01*
X84905542Y-50811495D01*
X84870687Y-50790226D01*
X84729937Y-50679596D01*
X84616914Y-50548902D01*
X84532203Y-50402664D01*
X84476394Y-50245408D01*
X84450074Y-50081657D01*
X84453830Y-49915933D01*
X84488250Y-49752762D01*
X84553923Y-49596665D01*
X84651435Y-49452167D01*
X84691013Y-49407469D01*
X84814903Y-49293712D01*
X84945324Y-49210818D01*
X85091515Y-49153956D01*
X85236288Y-49122287D01*
X85399060Y-49114469D01*
X85562640Y-49140538D01*
X85721498Y-49197845D01*
X85870106Y-49283744D01*
X86002935Y-49395586D01*
X86114456Y-49530723D01*
X86126211Y-49548483D01*
X86164708Y-49604750D01*
X86198063Y-49647523D01*
X86219360Y-49667972D01*
X86220033Y-49668269D01*
X86243071Y-49663879D01*
X86295357Y-49646476D01*
X86372590Y-49617868D01*
X86470468Y-49579865D01*
X86584691Y-49534274D01*
X86710958Y-49482903D01*
X86844967Y-49427562D01*
X86982418Y-49370058D01*
X87119008Y-49312201D01*
X87250437Y-49255798D01*
X87372405Y-49202658D01*
X87480609Y-49154590D01*
X87570749Y-49113401D01*
X87638523Y-49080901D01*
X87679630Y-49058897D01*
X87690426Y-49050036D01*
X87682019Y-49022960D01*
X87659472Y-48972297D01*
X87626813Y-48906783D01*
X87607720Y-48870759D01*
X87525000Y-48717768D01*
X87648275Y-48535512D01*
X87711428Y-48442475D01*
X87780927Y-48340615D01*
X87846365Y-48245162D01*
X87879317Y-48197350D01*
X87924473Y-48130105D01*
X87960257Y-48073164D01*
X87982138Y-48033954D01*
X87986763Y-48021219D01*
X87974285Y-48002683D01*
X87939452Y-47961659D01*
X87885878Y-47902125D01*
X87817183Y-47828058D01*
X87736981Y-47743435D01*
X87685486Y-47689915D01*
X87593486Y-47596281D01*
X87511199Y-47515359D01*
X87442145Y-47450423D01*
X87389844Y-47404742D01*
X87357816Y-47381589D01*
X87351316Y-47379368D01*
X87326594Y-47389676D01*
X87276605Y-47418161D01*
X87206412Y-47461663D01*
X87121075Y-47517023D01*
X87025656Y-47581080D01*
X86999054Y-47599297D01*
X86902367Y-47665673D01*
X86815317Y-47725222D01*
X86742795Y-47774616D01*
X86689693Y-47810525D01*
X86660903Y-47829619D01*
X86657926Y-47831464D01*
X86634982Y-47828705D01*
X86584536Y-47814062D01*
X86513241Y-47790087D01*
X86427747Y-47759334D01*
X86334707Y-47724356D01*
X86240774Y-47687707D01*
X86152599Y-47651939D01*
X86076834Y-47619606D01*
X86020131Y-47593262D01*
X85989143Y-47575458D01*
X85987657Y-47574193D01*
X85978801Y-47563306D01*
X85970043Y-47544918D01*
X85960477Y-47514994D01*
X85949196Y-47469497D01*
X85935293Y-47404391D01*
X85917863Y-47315639D01*
X85895998Y-47199207D01*
X85868791Y-47051058D01*
X85862941Y-47018982D01*
X85844574Y-46923914D01*
X85826605Y-46841035D01*
X85810769Y-46777670D01*
X85798800Y-46741142D01*
X85796010Y-46736244D01*
X85771272Y-46728173D01*
X85715990Y-46721613D01*
X85636589Y-46716567D01*
X85539496Y-46713041D01*
X85431138Y-46711039D01*
X85317940Y-46710564D01*
X85206328Y-46711623D01*
X85102729Y-46714218D01*
X85013568Y-46718354D01*
X84945272Y-46724037D01*
X84904266Y-46731269D01*
X84895874Y-46735629D01*
X84887408Y-46759902D01*
X84873635Y-46815174D01*
X84855750Y-46895938D01*
X84834948Y-46996688D01*
X84812423Y-47111917D01*
X84800618Y-47174698D01*
X84778351Y-47293813D01*
X84758179Y-47400035D01*
X84741115Y-47488173D01*
X84728169Y-47553034D01*
X84720355Y-47589426D01*
X84718622Y-47595416D01*
X84699090Y-47605539D01*
X84652043Y-47626938D01*
X84584203Y-47656761D01*
X84502291Y-47692155D01*
X84413028Y-47730268D01*
X84323135Y-47768247D01*
X84239335Y-47803240D01*
X84168347Y-47832394D01*
X84116894Y-47852857D01*
X84091697Y-47861777D01*
X84090596Y-47861943D01*
X84070719Y-47851831D01*
X84024977Y-47823483D01*
X83957917Y-47779877D01*
X83874084Y-47723994D01*
X83778026Y-47658813D01*
X83722850Y-47620921D01*
X83621681Y-47551875D01*
X83529830Y-47490550D01*
X83451944Y-47439937D01*
X83392669Y-47403029D01*
X83356651Y-47382818D01*
X83348577Y-47379899D01*
X83329784Y-47392447D01*
X83289657Y-47427137D01*
X83232693Y-47479537D01*
X83163385Y-47545216D01*
X83086231Y-47619744D01*
X83005725Y-47698687D01*
X82926363Y-47777617D01*
X82852640Y-47852100D01*
X82789052Y-47917706D01*
X82740094Y-47970004D01*
X82710261Y-48004561D01*
X82703142Y-48016122D01*
X82713153Y-48034946D01*
X82741278Y-48079969D01*
X82784654Y-48146813D01*
X82840418Y-48231101D01*
X82905706Y-48328456D01*
X82955446Y-48401893D01*
X83207751Y-48772933D01*
X82952755Y-49391505D01*
X82508131Y-49475325D01*
X82063507Y-49559146D01*
X82063507Y-50484594D01*
X82508131Y-50568414D01*
G37*
X82508131Y-50568414D02*
X82952755Y-50652235D01*
X83080253Y-50961520D01*
X83207751Y-51270806D01*
X82955446Y-51641846D01*
X82885196Y-51745757D01*
X82822472Y-51839687D01*
X82770138Y-51919252D01*
X82731057Y-51980070D01*
X82708093Y-52017757D01*
X82703142Y-52028021D01*
X82715876Y-52046510D01*
X82751082Y-52086020D01*
X82804262Y-52142122D01*
X82870918Y-52210387D01*
X82946554Y-52286386D01*
X83026672Y-52365692D01*
X83106774Y-52443875D01*
X83182364Y-52516507D01*
X83248945Y-52579159D01*
X83302018Y-52627403D01*
X83337087Y-52656810D01*
X83348823Y-52663841D01*
X83370460Y-52653723D01*
X83417862Y-52625359D01*
X83486393Y-52581729D01*
X83571415Y-52525818D01*
X83668293Y-52460606D01*
X83723550Y-52422819D01*
X83824448Y-52353943D01*
X83915499Y-52292740D01*
X83992170Y-52242178D01*
X84049928Y-52205228D01*
X84084243Y-52184858D01*
X84091454Y-52181797D01*
X84111948Y-52188736D01*
X84159713Y-52207651D01*
X84228032Y-52235687D01*
X84310189Y-52269991D01*
X84399470Y-52307709D01*
X84489158Y-52345987D01*
X84572538Y-52381970D01*
X84642894Y-52412806D01*
X84693510Y-52435639D01*
X84717671Y-52447617D01*
X84718622Y-52448324D01*
X84723236Y-52467131D01*
X84733528Y-52517218D01*
X84748487Y-52593393D01*
X84767101Y-52690465D01*
X84788359Y-52803243D01*
X84800618Y-52869042D01*
X84823562Y-52989550D01*
X84845395Y-53098397D01*
X84864922Y-53190076D01*
X84880948Y-53259081D01*
X84892279Y-53299904D01*
X84895874Y-53308111D01*
X84920206Y-53316148D01*
X84975159Y-53322633D01*
X85054308Y-53327570D01*
X85151226Y-53330964D01*
X85259487Y-53332818D01*
X85372665Y-53333138D01*
X85484335Y-53331927D01*
X85588068Y-53329190D01*
X85677441Y-53324931D01*
X85746026Y-53319155D01*
X85787397Y-53311867D01*
X85796010Y-53307495D01*
X85806333Y-53281364D01*
X85821092Y-53225993D01*
X85838552Y-53148707D01*
X85856980Y-53056830D01*
X85862941Y-53024758D01*
X85891266Y-52870124D01*
X85914076Y-52747975D01*
X85932280Y-52654273D01*
X85946783Y-52584984D01*
X85958492Y-52536071D01*
X85968315Y-52503497D01*
X85977156Y-52483228D01*
X85985924Y-52471226D01*
X85987657Y-52469547D01*
X86015571Y-52452784D01*
X86069895Y-52427214D01*
X86143977Y-52395388D01*
X86231165Y-52359860D01*
X86324808Y-52323183D01*
X86418252Y-52287911D01*
X86504847Y-52256596D01*
X86577940Y-52231793D01*
X86630878Y-52216054D01*
X86657011Y-52211932D01*
X86657926Y-52212276D01*
X86679286Y-52226241D01*
X86726284Y-52257922D01*
X86794027Y-52303991D01*
X86877623Y-52361118D01*
X86972182Y-52425973D01*
X86999054Y-52444443D01*
X87096475Y-52510299D01*
X87185363Y-52568250D01*
X87260612Y-52615138D01*
X87317120Y-52647807D01*
X87349781Y-52663100D01*
X87353793Y-52663841D01*
X87374884Y-52650992D01*
X87416664Y-52615488D01*
X87474645Y-52561893D01*
X87544335Y-52494771D01*
X87621245Y-52418687D01*
X87700883Y-52338204D01*
X87778761Y-52257887D01*
X87850386Y-52182299D01*
X87911270Y-52116005D01*
X87956921Y-52063569D01*
X87982850Y-52029555D01*
X87987083Y-52020145D01*
X87977112Y-51998243D01*
X87950220Y-51953400D01*
X87910936Y-51892921D01*
X87879317Y-51846389D01*
X87821298Y-51762075D01*
X87752984Y-51662226D01*
X87684779Y-51562073D01*
X87648275Y-51508227D01*
X87525000Y-51325971D01*
X87607720Y-51172981D01*
X87643959Y-51103282D01*
X87672126Y-51044014D01*
X87688191Y-51003911D01*
X87690426Y-50993703D01*
X87673922Y-50981429D01*
X87627282Y-50957213D01*
X87554809Y-50922863D01*
X87460806Y-50880188D01*
X87349574Y-50830994D01*
X87225415Y-50777090D01*
X87092632Y-50720284D01*
X86955527Y-50662382D01*
X86818402Y-50605193D01*
X86685558Y-50550524D01*
X86561298Y-50500184D01*
X86449925Y-50455980D01*
X86355739Y-50419719D01*
X86283044Y-50393209D01*
X86236141Y-50378258D01*
X86220033Y-50375854D01*
X86199486Y-50394911D01*
X86166133Y-50436636D01*
X86126902Y-50492306D01*
X86123799Y-50496978D01*
X86008623Y-50640864D01*
X85874253Y-50756883D01*
X85724984Y-50844030D01*
X85565113Y-50901299D01*
X85398937Y-50927686D01*
X85230752Y-50922185D01*
X85064855Y-50883790D01*
X84905542Y-50811495D01*
X84870687Y-50790226D01*
X84729937Y-50679596D01*
X84616914Y-50548902D01*
X84532203Y-50402664D01*
X84476394Y-50245408D01*
X84450074Y-50081657D01*
X84453830Y-49915933D01*
X84488250Y-49752762D01*
X84553923Y-49596665D01*
X84651435Y-49452167D01*
X84691013Y-49407469D01*
X84814903Y-49293712D01*
X84945324Y-49210818D01*
X85091515Y-49153956D01*
X85236288Y-49122287D01*
X85399060Y-49114469D01*
X85562640Y-49140538D01*
X85721498Y-49197845D01*
X85870106Y-49283744D01*
X86002935Y-49395586D01*
X86114456Y-49530723D01*
X86126211Y-49548483D01*
X86164708Y-49604750D01*
X86198063Y-49647523D01*
X86219360Y-49667972D01*
X86220033Y-49668269D01*
X86243071Y-49663879D01*
X86295357Y-49646476D01*
X86372590Y-49617868D01*
X86470468Y-49579865D01*
X86584691Y-49534274D01*
X86710958Y-49482903D01*
X86844967Y-49427562D01*
X86982418Y-49370058D01*
X87119008Y-49312201D01*
X87250437Y-49255798D01*
X87372405Y-49202658D01*
X87480609Y-49154590D01*
X87570749Y-49113401D01*
X87638523Y-49080901D01*
X87679630Y-49058897D01*
X87690426Y-49050036D01*
X87682019Y-49022960D01*
X87659472Y-48972297D01*
X87626813Y-48906783D01*
X87607720Y-48870759D01*
X87525000Y-48717768D01*
X87648275Y-48535512D01*
X87711428Y-48442475D01*
X87780927Y-48340615D01*
X87846365Y-48245162D01*
X87879317Y-48197350D01*
X87924473Y-48130105D01*
X87960257Y-48073164D01*
X87982138Y-48033954D01*
X87986763Y-48021219D01*
X87974285Y-48002683D01*
X87939452Y-47961659D01*
X87885878Y-47902125D01*
X87817183Y-47828058D01*
X87736981Y-47743435D01*
X87685486Y-47689915D01*
X87593486Y-47596281D01*
X87511199Y-47515359D01*
X87442145Y-47450423D01*
X87389844Y-47404742D01*
X87357816Y-47381589D01*
X87351316Y-47379368D01*
X87326594Y-47389676D01*
X87276605Y-47418161D01*
X87206412Y-47461663D01*
X87121075Y-47517023D01*
X87025656Y-47581080D01*
X86999054Y-47599297D01*
X86902367Y-47665673D01*
X86815317Y-47725222D01*
X86742795Y-47774616D01*
X86689693Y-47810525D01*
X86660903Y-47829619D01*
X86657926Y-47831464D01*
X86634982Y-47828705D01*
X86584536Y-47814062D01*
X86513241Y-47790087D01*
X86427747Y-47759334D01*
X86334707Y-47724356D01*
X86240774Y-47687707D01*
X86152599Y-47651939D01*
X86076834Y-47619606D01*
X86020131Y-47593262D01*
X85989143Y-47575458D01*
X85987657Y-47574193D01*
X85978801Y-47563306D01*
X85970043Y-47544918D01*
X85960477Y-47514994D01*
X85949196Y-47469497D01*
X85935293Y-47404391D01*
X85917863Y-47315639D01*
X85895998Y-47199207D01*
X85868791Y-47051058D01*
X85862941Y-47018982D01*
X85844574Y-46923914D01*
X85826605Y-46841035D01*
X85810769Y-46777670D01*
X85798800Y-46741142D01*
X85796010Y-46736244D01*
X85771272Y-46728173D01*
X85715990Y-46721613D01*
X85636589Y-46716567D01*
X85539496Y-46713041D01*
X85431138Y-46711039D01*
X85317940Y-46710564D01*
X85206328Y-46711623D01*
X85102729Y-46714218D01*
X85013568Y-46718354D01*
X84945272Y-46724037D01*
X84904266Y-46731269D01*
X84895874Y-46735629D01*
X84887408Y-46759902D01*
X84873635Y-46815174D01*
X84855750Y-46895938D01*
X84834948Y-46996688D01*
X84812423Y-47111917D01*
X84800618Y-47174698D01*
X84778351Y-47293813D01*
X84758179Y-47400035D01*
X84741115Y-47488173D01*
X84728169Y-47553034D01*
X84720355Y-47589426D01*
X84718622Y-47595416D01*
X84699090Y-47605539D01*
X84652043Y-47626938D01*
X84584203Y-47656761D01*
X84502291Y-47692155D01*
X84413028Y-47730268D01*
X84323135Y-47768247D01*
X84239335Y-47803240D01*
X84168347Y-47832394D01*
X84116894Y-47852857D01*
X84091697Y-47861777D01*
X84090596Y-47861943D01*
X84070719Y-47851831D01*
X84024977Y-47823483D01*
X83957917Y-47779877D01*
X83874084Y-47723994D01*
X83778026Y-47658813D01*
X83722850Y-47620921D01*
X83621681Y-47551875D01*
X83529830Y-47490550D01*
X83451944Y-47439937D01*
X83392669Y-47403029D01*
X83356651Y-47382818D01*
X83348577Y-47379899D01*
X83329784Y-47392447D01*
X83289657Y-47427137D01*
X83232693Y-47479537D01*
X83163385Y-47545216D01*
X83086231Y-47619744D01*
X83005725Y-47698687D01*
X82926363Y-47777617D01*
X82852640Y-47852100D01*
X82789052Y-47917706D01*
X82740094Y-47970004D01*
X82710261Y-48004561D01*
X82703142Y-48016122D01*
X82713153Y-48034946D01*
X82741278Y-48079969D01*
X82784654Y-48146813D01*
X82840418Y-48231101D01*
X82905706Y-48328456D01*
X82955446Y-48401893D01*
X83207751Y-48772933D01*
X82952755Y-49391505D01*
X82508131Y-49475325D01*
X82063507Y-49559146D01*
X82063507Y-50484594D01*
X82508131Y-50568414D01*
M02*
