G04 #@! TF.GenerationSoftware,KiCad,Pcbnew,5.1.5-52549c5~86~ubuntu18.04.1*
G04 #@! TF.CreationDate,2020-09-15T13:17:05-05:00*
G04 #@! TF.ProjectId,C05,4330352e-6b69-4636-9164-5f7063625858,rev?*
G04 #@! TF.SameCoordinates,Original*
G04 #@! TF.FileFunction,Soldermask,Top*
G04 #@! TF.FilePolarity,Negative*
%FSLAX46Y46*%
G04 Gerber Fmt 4.6, Leading zero omitted, Abs format (unit mm)*
G04 Created by KiCad (PCBNEW 5.1.5-52549c5~86~ubuntu18.04.1) date 2020-09-15 13:17:05*
%MOMM*%
%LPD*%
G04 APERTURE LIST*
%ADD10C,0.100000*%
G04 APERTURE END LIST*
D10*
G36*
X24112585Y-42608802D02*
G01*
X24262410Y-42638604D01*
X24544674Y-42755521D01*
X24798705Y-42925259D01*
X25014741Y-43141295D01*
X25184479Y-43395326D01*
X25301396Y-43677590D01*
X25361000Y-43977240D01*
X25361000Y-44282760D01*
X25301396Y-44582410D01*
X25184479Y-44864674D01*
X25014741Y-45118705D01*
X24798705Y-45334741D01*
X24544674Y-45504479D01*
X24262410Y-45621396D01*
X24112585Y-45651198D01*
X23962761Y-45681000D01*
X23657239Y-45681000D01*
X23507415Y-45651198D01*
X23357590Y-45621396D01*
X23075326Y-45504479D01*
X22821295Y-45334741D01*
X22605259Y-45118705D01*
X22435521Y-44864674D01*
X22318604Y-44582410D01*
X22259000Y-44282760D01*
X22259000Y-43977240D01*
X22318604Y-43677590D01*
X22435521Y-43395326D01*
X22605259Y-43141295D01*
X22821295Y-42925259D01*
X23075326Y-42755521D01*
X23357590Y-42638604D01*
X23507415Y-42608802D01*
X23657239Y-42579000D01*
X23962761Y-42579000D01*
X24112585Y-42608802D01*
G37*
G36*
X105392585Y-42608802D02*
G01*
X105542410Y-42638604D01*
X105824674Y-42755521D01*
X106078705Y-42925259D01*
X106294741Y-43141295D01*
X106464479Y-43395326D01*
X106581396Y-43677590D01*
X106641000Y-43977240D01*
X106641000Y-44282760D01*
X106581396Y-44582410D01*
X106464479Y-44864674D01*
X106294741Y-45118705D01*
X106078705Y-45334741D01*
X105824674Y-45504479D01*
X105542410Y-45621396D01*
X105392585Y-45651198D01*
X105242761Y-45681000D01*
X104937239Y-45681000D01*
X104787415Y-45651198D01*
X104637590Y-45621396D01*
X104355326Y-45504479D01*
X104101295Y-45334741D01*
X103885259Y-45118705D01*
X103715521Y-44864674D01*
X103598604Y-44582410D01*
X103539000Y-44282760D01*
X103539000Y-43977240D01*
X103598604Y-43677590D01*
X103715521Y-43395326D01*
X103885259Y-43141295D01*
X104101295Y-42925259D01*
X104355326Y-42755521D01*
X104637590Y-42638604D01*
X104787415Y-42608802D01*
X104937239Y-42579000D01*
X105242761Y-42579000D01*
X105392585Y-42608802D01*
G37*
G36*
X49064903Y-42459675D02*
G01*
X49292571Y-42553978D01*
X49497466Y-42690885D01*
X49671715Y-42865134D01*
X49808622Y-43070029D01*
X49902925Y-43297697D01*
X49951000Y-43539387D01*
X49951000Y-43785813D01*
X49902925Y-44027503D01*
X49808622Y-44255171D01*
X49671715Y-44460066D01*
X49497466Y-44634315D01*
X49292571Y-44771222D01*
X49292570Y-44771223D01*
X49292569Y-44771223D01*
X49064903Y-44865525D01*
X48823214Y-44913600D01*
X48576786Y-44913600D01*
X48335097Y-44865525D01*
X48107431Y-44771223D01*
X48107430Y-44771223D01*
X48107429Y-44771222D01*
X47902534Y-44634315D01*
X47728285Y-44460066D01*
X47591378Y-44255171D01*
X47497075Y-44027503D01*
X47449000Y-43785813D01*
X47449000Y-43539387D01*
X47497075Y-43297697D01*
X47591378Y-43070029D01*
X47728285Y-42865134D01*
X47902534Y-42690885D01*
X48107429Y-42553978D01*
X48335097Y-42459675D01*
X48576786Y-42411600D01*
X48823214Y-42411600D01*
X49064903Y-42459675D01*
G37*
G36*
X67451000Y-44913600D02*
G01*
X64949000Y-44913600D01*
X64949000Y-42411600D01*
X67451000Y-42411600D01*
X67451000Y-44913600D01*
G37*
G36*
X45564903Y-42459675D02*
G01*
X45792571Y-42553978D01*
X45997466Y-42690885D01*
X46171715Y-42865134D01*
X46308622Y-43070029D01*
X46402925Y-43297697D01*
X46451000Y-43539387D01*
X46451000Y-43785813D01*
X46402925Y-44027503D01*
X46308622Y-44255171D01*
X46171715Y-44460066D01*
X45997466Y-44634315D01*
X45792571Y-44771222D01*
X45792570Y-44771223D01*
X45792569Y-44771223D01*
X45564903Y-44865525D01*
X45323214Y-44913600D01*
X45076786Y-44913600D01*
X44835097Y-44865525D01*
X44607431Y-44771223D01*
X44607430Y-44771223D01*
X44607429Y-44771222D01*
X44402534Y-44634315D01*
X44228285Y-44460066D01*
X44091378Y-44255171D01*
X43997075Y-44027503D01*
X43949000Y-43785813D01*
X43949000Y-43539387D01*
X43997075Y-43297697D01*
X44091378Y-43070029D01*
X44228285Y-42865134D01*
X44402534Y-42690885D01*
X44607429Y-42553978D01*
X44835097Y-42459675D01*
X45076786Y-42411600D01*
X45323214Y-42411600D01*
X45564903Y-42459675D01*
G37*
G36*
X42064903Y-42459675D02*
G01*
X42292571Y-42553978D01*
X42497466Y-42690885D01*
X42671715Y-42865134D01*
X42808622Y-43070029D01*
X42902925Y-43297697D01*
X42951000Y-43539387D01*
X42951000Y-43785813D01*
X42902925Y-44027503D01*
X42808622Y-44255171D01*
X42671715Y-44460066D01*
X42497466Y-44634315D01*
X42292571Y-44771222D01*
X42292570Y-44771223D01*
X42292569Y-44771223D01*
X42064903Y-44865525D01*
X41823214Y-44913600D01*
X41576786Y-44913600D01*
X41335097Y-44865525D01*
X41107431Y-44771223D01*
X41107430Y-44771223D01*
X41107429Y-44771222D01*
X40902534Y-44634315D01*
X40728285Y-44460066D01*
X40591378Y-44255171D01*
X40497075Y-44027503D01*
X40449000Y-43785813D01*
X40449000Y-43539387D01*
X40497075Y-43297697D01*
X40591378Y-43070029D01*
X40728285Y-42865134D01*
X40902534Y-42690885D01*
X41107429Y-42553978D01*
X41335097Y-42459675D01*
X41576786Y-42411600D01*
X41823214Y-42411600D01*
X42064903Y-42459675D01*
G37*
G36*
X38564903Y-42459675D02*
G01*
X38792571Y-42553978D01*
X38997466Y-42690885D01*
X39171715Y-42865134D01*
X39308622Y-43070029D01*
X39402925Y-43297697D01*
X39451000Y-43539387D01*
X39451000Y-43785813D01*
X39402925Y-44027503D01*
X39308622Y-44255171D01*
X39171715Y-44460066D01*
X38997466Y-44634315D01*
X38792571Y-44771222D01*
X38792570Y-44771223D01*
X38792569Y-44771223D01*
X38564903Y-44865525D01*
X38323214Y-44913600D01*
X38076786Y-44913600D01*
X37835097Y-44865525D01*
X37607431Y-44771223D01*
X37607430Y-44771223D01*
X37607429Y-44771222D01*
X37402534Y-44634315D01*
X37228285Y-44460066D01*
X37091378Y-44255171D01*
X36997075Y-44027503D01*
X36949000Y-43785813D01*
X36949000Y-43539387D01*
X36997075Y-43297697D01*
X37091378Y-43070029D01*
X37228285Y-42865134D01*
X37402534Y-42690885D01*
X37607429Y-42553978D01*
X37835097Y-42459675D01*
X38076786Y-42411600D01*
X38323214Y-42411600D01*
X38564903Y-42459675D01*
G37*
G36*
X35064903Y-42459675D02*
G01*
X35292571Y-42553978D01*
X35497466Y-42690885D01*
X35671715Y-42865134D01*
X35808622Y-43070029D01*
X35902925Y-43297697D01*
X35951000Y-43539387D01*
X35951000Y-43785813D01*
X35902925Y-44027503D01*
X35808622Y-44255171D01*
X35671715Y-44460066D01*
X35497466Y-44634315D01*
X35292571Y-44771222D01*
X35292570Y-44771223D01*
X35292569Y-44771223D01*
X35064903Y-44865525D01*
X34823214Y-44913600D01*
X34576786Y-44913600D01*
X34335097Y-44865525D01*
X34107431Y-44771223D01*
X34107430Y-44771223D01*
X34107429Y-44771222D01*
X33902534Y-44634315D01*
X33728285Y-44460066D01*
X33591378Y-44255171D01*
X33497075Y-44027503D01*
X33449000Y-43785813D01*
X33449000Y-43539387D01*
X33497075Y-43297697D01*
X33591378Y-43070029D01*
X33728285Y-42865134D01*
X33902534Y-42690885D01*
X34107429Y-42553978D01*
X34335097Y-42459675D01*
X34576786Y-42411600D01*
X34823214Y-42411600D01*
X35064903Y-42459675D01*
G37*
G36*
X32451000Y-44913600D02*
G01*
X29949000Y-44913600D01*
X29949000Y-42411600D01*
X32451000Y-42411600D01*
X32451000Y-44913600D01*
G37*
G36*
X59564903Y-42459675D02*
G01*
X59792571Y-42553978D01*
X59997466Y-42690885D01*
X60171715Y-42865134D01*
X60308622Y-43070029D01*
X60402925Y-43297697D01*
X60451000Y-43539387D01*
X60451000Y-43785813D01*
X60402925Y-44027503D01*
X60308622Y-44255171D01*
X60171715Y-44460066D01*
X59997466Y-44634315D01*
X59792571Y-44771222D01*
X59792570Y-44771223D01*
X59792569Y-44771223D01*
X59564903Y-44865525D01*
X59323214Y-44913600D01*
X59076786Y-44913600D01*
X58835097Y-44865525D01*
X58607431Y-44771223D01*
X58607430Y-44771223D01*
X58607429Y-44771222D01*
X58402534Y-44634315D01*
X58228285Y-44460066D01*
X58091378Y-44255171D01*
X57997075Y-44027503D01*
X57949000Y-43785813D01*
X57949000Y-43539387D01*
X57997075Y-43297697D01*
X58091378Y-43070029D01*
X58228285Y-42865134D01*
X58402534Y-42690885D01*
X58607429Y-42553978D01*
X58835097Y-42459675D01*
X59076786Y-42411600D01*
X59323214Y-42411600D01*
X59564903Y-42459675D01*
G37*
G36*
X63064903Y-42459675D02*
G01*
X63292571Y-42553978D01*
X63497466Y-42690885D01*
X63671715Y-42865134D01*
X63808622Y-43070029D01*
X63902925Y-43297697D01*
X63951000Y-43539387D01*
X63951000Y-43785813D01*
X63902925Y-44027503D01*
X63808622Y-44255171D01*
X63671715Y-44460066D01*
X63497466Y-44634315D01*
X63292571Y-44771222D01*
X63292570Y-44771223D01*
X63292569Y-44771223D01*
X63064903Y-44865525D01*
X62823214Y-44913600D01*
X62576786Y-44913600D01*
X62335097Y-44865525D01*
X62107431Y-44771223D01*
X62107430Y-44771223D01*
X62107429Y-44771222D01*
X61902534Y-44634315D01*
X61728285Y-44460066D01*
X61591378Y-44255171D01*
X61497075Y-44027503D01*
X61449000Y-43785813D01*
X61449000Y-43539387D01*
X61497075Y-43297697D01*
X61591378Y-43070029D01*
X61728285Y-42865134D01*
X61902534Y-42690885D01*
X62107429Y-42553978D01*
X62335097Y-42459675D01*
X62576786Y-42411600D01*
X62823214Y-42411600D01*
X63064903Y-42459675D01*
G37*
G36*
X52564903Y-42459675D02*
G01*
X52792571Y-42553978D01*
X52997466Y-42690885D01*
X53171715Y-42865134D01*
X53308622Y-43070029D01*
X53402925Y-43297697D01*
X53451000Y-43539387D01*
X53451000Y-43785813D01*
X53402925Y-44027503D01*
X53308622Y-44255171D01*
X53171715Y-44460066D01*
X52997466Y-44634315D01*
X52792571Y-44771222D01*
X52792570Y-44771223D01*
X52792569Y-44771223D01*
X52564903Y-44865525D01*
X52323214Y-44913600D01*
X52076786Y-44913600D01*
X51835097Y-44865525D01*
X51607431Y-44771223D01*
X51607430Y-44771223D01*
X51607429Y-44771222D01*
X51402534Y-44634315D01*
X51228285Y-44460066D01*
X51091378Y-44255171D01*
X50997075Y-44027503D01*
X50949000Y-43785813D01*
X50949000Y-43539387D01*
X50997075Y-43297697D01*
X51091378Y-43070029D01*
X51228285Y-42865134D01*
X51402534Y-42690885D01*
X51607429Y-42553978D01*
X51835097Y-42459675D01*
X52076786Y-42411600D01*
X52323214Y-42411600D01*
X52564903Y-42459675D01*
G37*
G36*
X56064903Y-42459675D02*
G01*
X56292571Y-42553978D01*
X56497466Y-42690885D01*
X56671715Y-42865134D01*
X56808622Y-43070029D01*
X56902925Y-43297697D01*
X56951000Y-43539387D01*
X56951000Y-43785813D01*
X56902925Y-44027503D01*
X56808622Y-44255171D01*
X56671715Y-44460066D01*
X56497466Y-44634315D01*
X56292571Y-44771222D01*
X56292570Y-44771223D01*
X56292569Y-44771223D01*
X56064903Y-44865525D01*
X55823214Y-44913600D01*
X55576786Y-44913600D01*
X55335097Y-44865525D01*
X55107431Y-44771223D01*
X55107430Y-44771223D01*
X55107429Y-44771222D01*
X54902534Y-44634315D01*
X54728285Y-44460066D01*
X54591378Y-44255171D01*
X54497075Y-44027503D01*
X54449000Y-43785813D01*
X54449000Y-43539387D01*
X54497075Y-43297697D01*
X54591378Y-43070029D01*
X54728285Y-42865134D01*
X54902534Y-42690885D01*
X55107429Y-42553978D01*
X55335097Y-42459675D01*
X55576786Y-42411600D01*
X55823214Y-42411600D01*
X56064903Y-42459675D01*
G37*
G36*
X70064903Y-42459675D02*
G01*
X70292571Y-42553978D01*
X70497466Y-42690885D01*
X70671715Y-42865134D01*
X70808622Y-43070029D01*
X70902925Y-43297697D01*
X70951000Y-43539387D01*
X70951000Y-43785813D01*
X70902925Y-44027503D01*
X70808622Y-44255171D01*
X70671715Y-44460066D01*
X70497466Y-44634315D01*
X70292571Y-44771222D01*
X70292570Y-44771223D01*
X70292569Y-44771223D01*
X70064903Y-44865525D01*
X69823214Y-44913600D01*
X69576786Y-44913600D01*
X69335097Y-44865525D01*
X69107431Y-44771223D01*
X69107430Y-44771223D01*
X69107429Y-44771222D01*
X68902534Y-44634315D01*
X68728285Y-44460066D01*
X68591378Y-44255171D01*
X68497075Y-44027503D01*
X68449000Y-43785813D01*
X68449000Y-43539387D01*
X68497075Y-43297697D01*
X68591378Y-43070029D01*
X68728285Y-42865134D01*
X68902534Y-42690885D01*
X69107429Y-42553978D01*
X69335097Y-42459675D01*
X69576786Y-42411600D01*
X69823214Y-42411600D01*
X70064903Y-42459675D01*
G37*
G36*
X73564903Y-42459675D02*
G01*
X73792571Y-42553978D01*
X73997466Y-42690885D01*
X74171715Y-42865134D01*
X74308622Y-43070029D01*
X74402925Y-43297697D01*
X74451000Y-43539387D01*
X74451000Y-43785813D01*
X74402925Y-44027503D01*
X74308622Y-44255171D01*
X74171715Y-44460066D01*
X73997466Y-44634315D01*
X73792571Y-44771222D01*
X73792570Y-44771223D01*
X73792569Y-44771223D01*
X73564903Y-44865525D01*
X73323214Y-44913600D01*
X73076786Y-44913600D01*
X72835097Y-44865525D01*
X72607431Y-44771223D01*
X72607430Y-44771223D01*
X72607429Y-44771222D01*
X72402534Y-44634315D01*
X72228285Y-44460066D01*
X72091378Y-44255171D01*
X71997075Y-44027503D01*
X71949000Y-43785813D01*
X71949000Y-43539387D01*
X71997075Y-43297697D01*
X72091378Y-43070029D01*
X72228285Y-42865134D01*
X72402534Y-42690885D01*
X72607429Y-42553978D01*
X72835097Y-42459675D01*
X73076786Y-42411600D01*
X73323214Y-42411600D01*
X73564903Y-42459675D01*
G37*
G36*
X77064903Y-42459675D02*
G01*
X77292571Y-42553978D01*
X77497466Y-42690885D01*
X77671715Y-42865134D01*
X77808622Y-43070029D01*
X77902925Y-43297697D01*
X77951000Y-43539387D01*
X77951000Y-43785813D01*
X77902925Y-44027503D01*
X77808622Y-44255171D01*
X77671715Y-44460066D01*
X77497466Y-44634315D01*
X77292571Y-44771222D01*
X77292570Y-44771223D01*
X77292569Y-44771223D01*
X77064903Y-44865525D01*
X76823214Y-44913600D01*
X76576786Y-44913600D01*
X76335097Y-44865525D01*
X76107431Y-44771223D01*
X76107430Y-44771223D01*
X76107429Y-44771222D01*
X75902534Y-44634315D01*
X75728285Y-44460066D01*
X75591378Y-44255171D01*
X75497075Y-44027503D01*
X75449000Y-43785813D01*
X75449000Y-43539387D01*
X75497075Y-43297697D01*
X75591378Y-43070029D01*
X75728285Y-42865134D01*
X75902534Y-42690885D01*
X76107429Y-42553978D01*
X76335097Y-42459675D01*
X76576786Y-42411600D01*
X76823214Y-42411600D01*
X77064903Y-42459675D01*
G37*
G36*
X80564903Y-42459675D02*
G01*
X80792571Y-42553978D01*
X80997466Y-42690885D01*
X81171715Y-42865134D01*
X81308622Y-43070029D01*
X81402925Y-43297697D01*
X81451000Y-43539387D01*
X81451000Y-43785813D01*
X81402925Y-44027503D01*
X81308622Y-44255171D01*
X81171715Y-44460066D01*
X80997466Y-44634315D01*
X80792571Y-44771222D01*
X80792570Y-44771223D01*
X80792569Y-44771223D01*
X80564903Y-44865525D01*
X80323214Y-44913600D01*
X80076786Y-44913600D01*
X79835097Y-44865525D01*
X79607431Y-44771223D01*
X79607430Y-44771223D01*
X79607429Y-44771222D01*
X79402534Y-44634315D01*
X79228285Y-44460066D01*
X79091378Y-44255171D01*
X78997075Y-44027503D01*
X78949000Y-43785813D01*
X78949000Y-43539387D01*
X78997075Y-43297697D01*
X79091378Y-43070029D01*
X79228285Y-42865134D01*
X79402534Y-42690885D01*
X79607429Y-42553978D01*
X79835097Y-42459675D01*
X80076786Y-42411600D01*
X80323214Y-42411600D01*
X80564903Y-42459675D01*
G37*
G36*
X84064903Y-42459675D02*
G01*
X84292571Y-42553978D01*
X84497466Y-42690885D01*
X84671715Y-42865134D01*
X84808622Y-43070029D01*
X84902925Y-43297697D01*
X84951000Y-43539387D01*
X84951000Y-43785813D01*
X84902925Y-44027503D01*
X84808622Y-44255171D01*
X84671715Y-44460066D01*
X84497466Y-44634315D01*
X84292571Y-44771222D01*
X84292570Y-44771223D01*
X84292569Y-44771223D01*
X84064903Y-44865525D01*
X83823214Y-44913600D01*
X83576786Y-44913600D01*
X83335097Y-44865525D01*
X83107431Y-44771223D01*
X83107430Y-44771223D01*
X83107429Y-44771222D01*
X82902534Y-44634315D01*
X82728285Y-44460066D01*
X82591378Y-44255171D01*
X82497075Y-44027503D01*
X82449000Y-43785813D01*
X82449000Y-43539387D01*
X82497075Y-43297697D01*
X82591378Y-43070029D01*
X82728285Y-42865134D01*
X82902534Y-42690885D01*
X83107429Y-42553978D01*
X83335097Y-42459675D01*
X83576786Y-42411600D01*
X83823214Y-42411600D01*
X84064903Y-42459675D01*
G37*
G36*
X87564903Y-42459675D02*
G01*
X87792571Y-42553978D01*
X87997466Y-42690885D01*
X88171715Y-42865134D01*
X88308622Y-43070029D01*
X88402925Y-43297697D01*
X88451000Y-43539387D01*
X88451000Y-43785813D01*
X88402925Y-44027503D01*
X88308622Y-44255171D01*
X88171715Y-44460066D01*
X87997466Y-44634315D01*
X87792571Y-44771222D01*
X87792570Y-44771223D01*
X87792569Y-44771223D01*
X87564903Y-44865525D01*
X87323214Y-44913600D01*
X87076786Y-44913600D01*
X86835097Y-44865525D01*
X86607431Y-44771223D01*
X86607430Y-44771223D01*
X86607429Y-44771222D01*
X86402534Y-44634315D01*
X86228285Y-44460066D01*
X86091378Y-44255171D01*
X85997075Y-44027503D01*
X85949000Y-43785813D01*
X85949000Y-43539387D01*
X85997075Y-43297697D01*
X86091378Y-43070029D01*
X86228285Y-42865134D01*
X86402534Y-42690885D01*
X86607429Y-42553978D01*
X86835097Y-42459675D01*
X87076786Y-42411600D01*
X87323214Y-42411600D01*
X87564903Y-42459675D01*
G37*
G36*
X91064903Y-42459675D02*
G01*
X91292571Y-42553978D01*
X91497466Y-42690885D01*
X91671715Y-42865134D01*
X91808622Y-43070029D01*
X91902925Y-43297697D01*
X91951000Y-43539387D01*
X91951000Y-43785813D01*
X91902925Y-44027503D01*
X91808622Y-44255171D01*
X91671715Y-44460066D01*
X91497466Y-44634315D01*
X91292571Y-44771222D01*
X91292570Y-44771223D01*
X91292569Y-44771223D01*
X91064903Y-44865525D01*
X90823214Y-44913600D01*
X90576786Y-44913600D01*
X90335097Y-44865525D01*
X90107431Y-44771223D01*
X90107430Y-44771223D01*
X90107429Y-44771222D01*
X89902534Y-44634315D01*
X89728285Y-44460066D01*
X89591378Y-44255171D01*
X89497075Y-44027503D01*
X89449000Y-43785813D01*
X89449000Y-43539387D01*
X89497075Y-43297697D01*
X89591378Y-43070029D01*
X89728285Y-42865134D01*
X89902534Y-42690885D01*
X90107429Y-42553978D01*
X90335097Y-42459675D01*
X90576786Y-42411600D01*
X90823214Y-42411600D01*
X91064903Y-42459675D01*
G37*
G36*
X94564903Y-42459675D02*
G01*
X94792571Y-42553978D01*
X94997466Y-42690885D01*
X95171715Y-42865134D01*
X95308622Y-43070029D01*
X95402925Y-43297697D01*
X95451000Y-43539387D01*
X95451000Y-43785813D01*
X95402925Y-44027503D01*
X95308622Y-44255171D01*
X95171715Y-44460066D01*
X94997466Y-44634315D01*
X94792571Y-44771222D01*
X94792570Y-44771223D01*
X94792569Y-44771223D01*
X94564903Y-44865525D01*
X94323214Y-44913600D01*
X94076786Y-44913600D01*
X93835097Y-44865525D01*
X93607431Y-44771223D01*
X93607430Y-44771223D01*
X93607429Y-44771222D01*
X93402534Y-44634315D01*
X93228285Y-44460066D01*
X93091378Y-44255171D01*
X92997075Y-44027503D01*
X92949000Y-43785813D01*
X92949000Y-43539387D01*
X92997075Y-43297697D01*
X93091378Y-43070029D01*
X93228285Y-42865134D01*
X93402534Y-42690885D01*
X93607429Y-42553978D01*
X93835097Y-42459675D01*
X94076786Y-42411600D01*
X94323214Y-42411600D01*
X94564903Y-42459675D01*
G37*
G36*
X98064903Y-42459675D02*
G01*
X98292571Y-42553978D01*
X98497466Y-42690885D01*
X98671715Y-42865134D01*
X98808622Y-43070029D01*
X98902925Y-43297697D01*
X98951000Y-43539387D01*
X98951000Y-43785813D01*
X98902925Y-44027503D01*
X98808622Y-44255171D01*
X98671715Y-44460066D01*
X98497466Y-44634315D01*
X98292571Y-44771222D01*
X98292570Y-44771223D01*
X98292569Y-44771223D01*
X98064903Y-44865525D01*
X97823214Y-44913600D01*
X97576786Y-44913600D01*
X97335097Y-44865525D01*
X97107431Y-44771223D01*
X97107430Y-44771223D01*
X97107429Y-44771222D01*
X96902534Y-44634315D01*
X96728285Y-44460066D01*
X96591378Y-44255171D01*
X96497075Y-44027503D01*
X96449000Y-43785813D01*
X96449000Y-43539387D01*
X96497075Y-43297697D01*
X96591378Y-43070029D01*
X96728285Y-42865134D01*
X96902534Y-42690885D01*
X97107429Y-42553978D01*
X97335097Y-42459675D01*
X97576786Y-42411600D01*
X97823214Y-42411600D01*
X98064903Y-42459675D01*
G37*
G36*
X24189393Y-37799304D02*
G01*
X24426101Y-37897352D01*
X24426103Y-37897353D01*
X24639135Y-38039696D01*
X24820304Y-38220865D01*
X24962647Y-38433897D01*
X24962648Y-38433899D01*
X25060696Y-38670607D01*
X25110680Y-38921893D01*
X25110680Y-39178107D01*
X25060696Y-39429393D01*
X24962648Y-39666101D01*
X24962647Y-39666103D01*
X24820304Y-39879135D01*
X24639135Y-40060304D01*
X24426103Y-40202647D01*
X24426102Y-40202648D01*
X24426101Y-40202648D01*
X24189393Y-40300696D01*
X23938107Y-40350680D01*
X23681893Y-40350680D01*
X23430607Y-40300696D01*
X23193899Y-40202648D01*
X23193898Y-40202648D01*
X23193897Y-40202647D01*
X22980865Y-40060304D01*
X22799696Y-39879135D01*
X22657353Y-39666103D01*
X22657352Y-39666101D01*
X22559304Y-39429393D01*
X22509320Y-39178107D01*
X22509320Y-38921893D01*
X22559304Y-38670607D01*
X22657352Y-38433899D01*
X22657353Y-38433897D01*
X22799696Y-38220865D01*
X22980865Y-38039696D01*
X23193897Y-37897353D01*
X23193899Y-37897352D01*
X23430607Y-37799304D01*
X23681893Y-37749320D01*
X23938107Y-37749320D01*
X24189393Y-37799304D01*
G37*
G36*
X105469393Y-37799304D02*
G01*
X105706101Y-37897352D01*
X105706103Y-37897353D01*
X105919135Y-38039696D01*
X106100304Y-38220865D01*
X106242647Y-38433897D01*
X106242648Y-38433899D01*
X106340696Y-38670607D01*
X106390680Y-38921893D01*
X106390680Y-39178107D01*
X106340696Y-39429393D01*
X106242648Y-39666101D01*
X106242647Y-39666103D01*
X106100304Y-39879135D01*
X105919135Y-40060304D01*
X105706103Y-40202647D01*
X105706102Y-40202648D01*
X105706101Y-40202648D01*
X105469393Y-40300696D01*
X105218107Y-40350680D01*
X104961893Y-40350680D01*
X104710607Y-40300696D01*
X104473899Y-40202648D01*
X104473898Y-40202648D01*
X104473897Y-40202647D01*
X104260865Y-40060304D01*
X104079696Y-39879135D01*
X103937353Y-39666103D01*
X103937352Y-39666101D01*
X103839304Y-39429393D01*
X103789320Y-39178107D01*
X103789320Y-38921893D01*
X103839304Y-38670607D01*
X103937352Y-38433899D01*
X103937353Y-38433897D01*
X104079696Y-38220865D01*
X104260865Y-38039696D01*
X104473897Y-37897353D01*
X104473899Y-37897352D01*
X104710607Y-37799304D01*
X104961893Y-37749320D01*
X105218107Y-37749320D01*
X105469393Y-37799304D01*
G37*
G36*
X78533512Y-34343927D02*
G01*
X78682812Y-34373624D01*
X78846784Y-34441544D01*
X78994354Y-34540147D01*
X79119853Y-34665646D01*
X79218456Y-34813216D01*
X79286376Y-34977188D01*
X79321000Y-35151259D01*
X79321000Y-35328741D01*
X79286376Y-35502812D01*
X79218456Y-35666784D01*
X79119853Y-35814354D01*
X78994354Y-35939853D01*
X78846784Y-36038456D01*
X78682812Y-36106376D01*
X78533512Y-36136073D01*
X78508742Y-36141000D01*
X78331258Y-36141000D01*
X78306488Y-36136073D01*
X78157188Y-36106376D01*
X77993216Y-36038456D01*
X77845646Y-35939853D01*
X77720147Y-35814354D01*
X77621544Y-35666784D01*
X77553624Y-35502812D01*
X77519000Y-35328741D01*
X77519000Y-35151259D01*
X77553624Y-34977188D01*
X77621544Y-34813216D01*
X77720147Y-34665646D01*
X77845646Y-34540147D01*
X77993216Y-34441544D01*
X78157188Y-34373624D01*
X78306488Y-34343927D01*
X78331258Y-34339000D01*
X78508742Y-34339000D01*
X78533512Y-34343927D01*
G37*
G36*
X40433512Y-34343927D02*
G01*
X40582812Y-34373624D01*
X40746784Y-34441544D01*
X40894354Y-34540147D01*
X41019853Y-34665646D01*
X41118456Y-34813216D01*
X41186376Y-34977188D01*
X41221000Y-35151259D01*
X41221000Y-35328741D01*
X41186376Y-35502812D01*
X41118456Y-35666784D01*
X41019853Y-35814354D01*
X40894354Y-35939853D01*
X40746784Y-36038456D01*
X40582812Y-36106376D01*
X40433512Y-36136073D01*
X40408742Y-36141000D01*
X40231258Y-36141000D01*
X40206488Y-36136073D01*
X40057188Y-36106376D01*
X39893216Y-36038456D01*
X39745646Y-35939853D01*
X39620147Y-35814354D01*
X39521544Y-35666784D01*
X39453624Y-35502812D01*
X39419000Y-35328741D01*
X39419000Y-35151259D01*
X39453624Y-34977188D01*
X39521544Y-34813216D01*
X39620147Y-34665646D01*
X39745646Y-34540147D01*
X39893216Y-34441544D01*
X40057188Y-34373624D01*
X40206488Y-34343927D01*
X40231258Y-34339000D01*
X40408742Y-34339000D01*
X40433512Y-34343927D01*
G37*
G36*
X45513512Y-34343927D02*
G01*
X45662812Y-34373624D01*
X45826784Y-34441544D01*
X45974354Y-34540147D01*
X46099853Y-34665646D01*
X46198456Y-34813216D01*
X46266376Y-34977188D01*
X46301000Y-35151259D01*
X46301000Y-35328741D01*
X46266376Y-35502812D01*
X46198456Y-35666784D01*
X46099853Y-35814354D01*
X45974354Y-35939853D01*
X45826784Y-36038456D01*
X45662812Y-36106376D01*
X45513512Y-36136073D01*
X45488742Y-36141000D01*
X45311258Y-36141000D01*
X45286488Y-36136073D01*
X45137188Y-36106376D01*
X44973216Y-36038456D01*
X44825646Y-35939853D01*
X44700147Y-35814354D01*
X44601544Y-35666784D01*
X44533624Y-35502812D01*
X44499000Y-35328741D01*
X44499000Y-35151259D01*
X44533624Y-34977188D01*
X44601544Y-34813216D01*
X44700147Y-34665646D01*
X44825646Y-34540147D01*
X44973216Y-34441544D01*
X45137188Y-34373624D01*
X45286488Y-34343927D01*
X45311258Y-34339000D01*
X45488742Y-34339000D01*
X45513512Y-34343927D01*
G37*
G36*
X48053512Y-34343927D02*
G01*
X48202812Y-34373624D01*
X48366784Y-34441544D01*
X48514354Y-34540147D01*
X48639853Y-34665646D01*
X48738456Y-34813216D01*
X48806376Y-34977188D01*
X48841000Y-35151259D01*
X48841000Y-35328741D01*
X48806376Y-35502812D01*
X48738456Y-35666784D01*
X48639853Y-35814354D01*
X48514354Y-35939853D01*
X48366784Y-36038456D01*
X48202812Y-36106376D01*
X48053512Y-36136073D01*
X48028742Y-36141000D01*
X47851258Y-36141000D01*
X47826488Y-36136073D01*
X47677188Y-36106376D01*
X47513216Y-36038456D01*
X47365646Y-35939853D01*
X47240147Y-35814354D01*
X47141544Y-35666784D01*
X47073624Y-35502812D01*
X47039000Y-35328741D01*
X47039000Y-35151259D01*
X47073624Y-34977188D01*
X47141544Y-34813216D01*
X47240147Y-34665646D01*
X47365646Y-34540147D01*
X47513216Y-34441544D01*
X47677188Y-34373624D01*
X47826488Y-34343927D01*
X47851258Y-34339000D01*
X48028742Y-34339000D01*
X48053512Y-34343927D01*
G37*
G36*
X50593512Y-34343927D02*
G01*
X50742812Y-34373624D01*
X50906784Y-34441544D01*
X51054354Y-34540147D01*
X51179853Y-34665646D01*
X51278456Y-34813216D01*
X51346376Y-34977188D01*
X51381000Y-35151259D01*
X51381000Y-35328741D01*
X51346376Y-35502812D01*
X51278456Y-35666784D01*
X51179853Y-35814354D01*
X51054354Y-35939853D01*
X50906784Y-36038456D01*
X50742812Y-36106376D01*
X50593512Y-36136073D01*
X50568742Y-36141000D01*
X50391258Y-36141000D01*
X50366488Y-36136073D01*
X50217188Y-36106376D01*
X50053216Y-36038456D01*
X49905646Y-35939853D01*
X49780147Y-35814354D01*
X49681544Y-35666784D01*
X49613624Y-35502812D01*
X49579000Y-35328741D01*
X49579000Y-35151259D01*
X49613624Y-34977188D01*
X49681544Y-34813216D01*
X49780147Y-34665646D01*
X49905646Y-34540147D01*
X50053216Y-34441544D01*
X50217188Y-34373624D01*
X50366488Y-34343927D01*
X50391258Y-34339000D01*
X50568742Y-34339000D01*
X50593512Y-34343927D01*
G37*
G36*
X53133512Y-34343927D02*
G01*
X53282812Y-34373624D01*
X53446784Y-34441544D01*
X53594354Y-34540147D01*
X53719853Y-34665646D01*
X53818456Y-34813216D01*
X53886376Y-34977188D01*
X53921000Y-35151259D01*
X53921000Y-35328741D01*
X53886376Y-35502812D01*
X53818456Y-35666784D01*
X53719853Y-35814354D01*
X53594354Y-35939853D01*
X53446784Y-36038456D01*
X53282812Y-36106376D01*
X53133512Y-36136073D01*
X53108742Y-36141000D01*
X52931258Y-36141000D01*
X52906488Y-36136073D01*
X52757188Y-36106376D01*
X52593216Y-36038456D01*
X52445646Y-35939853D01*
X52320147Y-35814354D01*
X52221544Y-35666784D01*
X52153624Y-35502812D01*
X52119000Y-35328741D01*
X52119000Y-35151259D01*
X52153624Y-34977188D01*
X52221544Y-34813216D01*
X52320147Y-34665646D01*
X52445646Y-34540147D01*
X52593216Y-34441544D01*
X52757188Y-34373624D01*
X52906488Y-34343927D01*
X52931258Y-34339000D01*
X53108742Y-34339000D01*
X53133512Y-34343927D01*
G37*
G36*
X55673512Y-34343927D02*
G01*
X55822812Y-34373624D01*
X55986784Y-34441544D01*
X56134354Y-34540147D01*
X56259853Y-34665646D01*
X56358456Y-34813216D01*
X56426376Y-34977188D01*
X56461000Y-35151259D01*
X56461000Y-35328741D01*
X56426376Y-35502812D01*
X56358456Y-35666784D01*
X56259853Y-35814354D01*
X56134354Y-35939853D01*
X55986784Y-36038456D01*
X55822812Y-36106376D01*
X55673512Y-36136073D01*
X55648742Y-36141000D01*
X55471258Y-36141000D01*
X55446488Y-36136073D01*
X55297188Y-36106376D01*
X55133216Y-36038456D01*
X54985646Y-35939853D01*
X54860147Y-35814354D01*
X54761544Y-35666784D01*
X54693624Y-35502812D01*
X54659000Y-35328741D01*
X54659000Y-35151259D01*
X54693624Y-34977188D01*
X54761544Y-34813216D01*
X54860147Y-34665646D01*
X54985646Y-34540147D01*
X55133216Y-34441544D01*
X55297188Y-34373624D01*
X55446488Y-34343927D01*
X55471258Y-34339000D01*
X55648742Y-34339000D01*
X55673512Y-34343927D01*
G37*
G36*
X58213512Y-34343927D02*
G01*
X58362812Y-34373624D01*
X58526784Y-34441544D01*
X58674354Y-34540147D01*
X58799853Y-34665646D01*
X58898456Y-34813216D01*
X58966376Y-34977188D01*
X59001000Y-35151259D01*
X59001000Y-35328741D01*
X58966376Y-35502812D01*
X58898456Y-35666784D01*
X58799853Y-35814354D01*
X58674354Y-35939853D01*
X58526784Y-36038456D01*
X58362812Y-36106376D01*
X58213512Y-36136073D01*
X58188742Y-36141000D01*
X58011258Y-36141000D01*
X57986488Y-36136073D01*
X57837188Y-36106376D01*
X57673216Y-36038456D01*
X57525646Y-35939853D01*
X57400147Y-35814354D01*
X57301544Y-35666784D01*
X57233624Y-35502812D01*
X57199000Y-35328741D01*
X57199000Y-35151259D01*
X57233624Y-34977188D01*
X57301544Y-34813216D01*
X57400147Y-34665646D01*
X57525646Y-34540147D01*
X57673216Y-34441544D01*
X57837188Y-34373624D01*
X57986488Y-34343927D01*
X58011258Y-34339000D01*
X58188742Y-34339000D01*
X58213512Y-34343927D01*
G37*
G36*
X42973512Y-34343927D02*
G01*
X43122812Y-34373624D01*
X43286784Y-34441544D01*
X43434354Y-34540147D01*
X43559853Y-34665646D01*
X43658456Y-34813216D01*
X43726376Y-34977188D01*
X43761000Y-35151259D01*
X43761000Y-35328741D01*
X43726376Y-35502812D01*
X43658456Y-35666784D01*
X43559853Y-35814354D01*
X43434354Y-35939853D01*
X43286784Y-36038456D01*
X43122812Y-36106376D01*
X42973512Y-36136073D01*
X42948742Y-36141000D01*
X42771258Y-36141000D01*
X42746488Y-36136073D01*
X42597188Y-36106376D01*
X42433216Y-36038456D01*
X42285646Y-35939853D01*
X42160147Y-35814354D01*
X42061544Y-35666784D01*
X41993624Y-35502812D01*
X41959000Y-35328741D01*
X41959000Y-35151259D01*
X41993624Y-34977188D01*
X42061544Y-34813216D01*
X42160147Y-34665646D01*
X42285646Y-34540147D01*
X42433216Y-34441544D01*
X42597188Y-34373624D01*
X42746488Y-34343927D01*
X42771258Y-34339000D01*
X42948742Y-34339000D01*
X42973512Y-34343927D01*
G37*
G36*
X89481000Y-36141000D02*
G01*
X87679000Y-36141000D01*
X87679000Y-34339000D01*
X89481000Y-34339000D01*
X89481000Y-36141000D01*
G37*
G36*
X83613512Y-34343927D02*
G01*
X83762812Y-34373624D01*
X83926784Y-34441544D01*
X84074354Y-34540147D01*
X84199853Y-34665646D01*
X84298456Y-34813216D01*
X84366376Y-34977188D01*
X84401000Y-35151259D01*
X84401000Y-35328741D01*
X84366376Y-35502812D01*
X84298456Y-35666784D01*
X84199853Y-35814354D01*
X84074354Y-35939853D01*
X83926784Y-36038456D01*
X83762812Y-36106376D01*
X83613512Y-36136073D01*
X83588742Y-36141000D01*
X83411258Y-36141000D01*
X83386488Y-36136073D01*
X83237188Y-36106376D01*
X83073216Y-36038456D01*
X82925646Y-35939853D01*
X82800147Y-35814354D01*
X82701544Y-35666784D01*
X82633624Y-35502812D01*
X82599000Y-35328741D01*
X82599000Y-35151259D01*
X82633624Y-34977188D01*
X82701544Y-34813216D01*
X82800147Y-34665646D01*
X82925646Y-34540147D01*
X83073216Y-34441544D01*
X83237188Y-34373624D01*
X83386488Y-34343927D01*
X83411258Y-34339000D01*
X83588742Y-34339000D01*
X83613512Y-34343927D01*
G37*
G36*
X81073512Y-34343927D02*
G01*
X81222812Y-34373624D01*
X81386784Y-34441544D01*
X81534354Y-34540147D01*
X81659853Y-34665646D01*
X81758456Y-34813216D01*
X81826376Y-34977188D01*
X81861000Y-35151259D01*
X81861000Y-35328741D01*
X81826376Y-35502812D01*
X81758456Y-35666784D01*
X81659853Y-35814354D01*
X81534354Y-35939853D01*
X81386784Y-36038456D01*
X81222812Y-36106376D01*
X81073512Y-36136073D01*
X81048742Y-36141000D01*
X80871258Y-36141000D01*
X80846488Y-36136073D01*
X80697188Y-36106376D01*
X80533216Y-36038456D01*
X80385646Y-35939853D01*
X80260147Y-35814354D01*
X80161544Y-35666784D01*
X80093624Y-35502812D01*
X80059000Y-35328741D01*
X80059000Y-35151259D01*
X80093624Y-34977188D01*
X80161544Y-34813216D01*
X80260147Y-34665646D01*
X80385646Y-34540147D01*
X80533216Y-34441544D01*
X80697188Y-34373624D01*
X80846488Y-34343927D01*
X80871258Y-34339000D01*
X81048742Y-34339000D01*
X81073512Y-34343927D01*
G37*
G36*
X75993512Y-34343927D02*
G01*
X76142812Y-34373624D01*
X76306784Y-34441544D01*
X76454354Y-34540147D01*
X76579853Y-34665646D01*
X76678456Y-34813216D01*
X76746376Y-34977188D01*
X76781000Y-35151259D01*
X76781000Y-35328741D01*
X76746376Y-35502812D01*
X76678456Y-35666784D01*
X76579853Y-35814354D01*
X76454354Y-35939853D01*
X76306784Y-36038456D01*
X76142812Y-36106376D01*
X75993512Y-36136073D01*
X75968742Y-36141000D01*
X75791258Y-36141000D01*
X75766488Y-36136073D01*
X75617188Y-36106376D01*
X75453216Y-36038456D01*
X75305646Y-35939853D01*
X75180147Y-35814354D01*
X75081544Y-35666784D01*
X75013624Y-35502812D01*
X74979000Y-35328741D01*
X74979000Y-35151259D01*
X75013624Y-34977188D01*
X75081544Y-34813216D01*
X75180147Y-34665646D01*
X75305646Y-34540147D01*
X75453216Y-34441544D01*
X75617188Y-34373624D01*
X75766488Y-34343927D01*
X75791258Y-34339000D01*
X75968742Y-34339000D01*
X75993512Y-34343927D01*
G37*
G36*
X73453512Y-34343927D02*
G01*
X73602812Y-34373624D01*
X73766784Y-34441544D01*
X73914354Y-34540147D01*
X74039853Y-34665646D01*
X74138456Y-34813216D01*
X74206376Y-34977188D01*
X74241000Y-35151259D01*
X74241000Y-35328741D01*
X74206376Y-35502812D01*
X74138456Y-35666784D01*
X74039853Y-35814354D01*
X73914354Y-35939853D01*
X73766784Y-36038456D01*
X73602812Y-36106376D01*
X73453512Y-36136073D01*
X73428742Y-36141000D01*
X73251258Y-36141000D01*
X73226488Y-36136073D01*
X73077188Y-36106376D01*
X72913216Y-36038456D01*
X72765646Y-35939853D01*
X72640147Y-35814354D01*
X72541544Y-35666784D01*
X72473624Y-35502812D01*
X72439000Y-35328741D01*
X72439000Y-35151259D01*
X72473624Y-34977188D01*
X72541544Y-34813216D01*
X72640147Y-34665646D01*
X72765646Y-34540147D01*
X72913216Y-34441544D01*
X73077188Y-34373624D01*
X73226488Y-34343927D01*
X73251258Y-34339000D01*
X73428742Y-34339000D01*
X73453512Y-34343927D01*
G37*
G36*
X70913512Y-34343927D02*
G01*
X71062812Y-34373624D01*
X71226784Y-34441544D01*
X71374354Y-34540147D01*
X71499853Y-34665646D01*
X71598456Y-34813216D01*
X71666376Y-34977188D01*
X71701000Y-35151259D01*
X71701000Y-35328741D01*
X71666376Y-35502812D01*
X71598456Y-35666784D01*
X71499853Y-35814354D01*
X71374354Y-35939853D01*
X71226784Y-36038456D01*
X71062812Y-36106376D01*
X70913512Y-36136073D01*
X70888742Y-36141000D01*
X70711258Y-36141000D01*
X70686488Y-36136073D01*
X70537188Y-36106376D01*
X70373216Y-36038456D01*
X70225646Y-35939853D01*
X70100147Y-35814354D01*
X70001544Y-35666784D01*
X69933624Y-35502812D01*
X69899000Y-35328741D01*
X69899000Y-35151259D01*
X69933624Y-34977188D01*
X70001544Y-34813216D01*
X70100147Y-34665646D01*
X70225646Y-34540147D01*
X70373216Y-34441544D01*
X70537188Y-34373624D01*
X70686488Y-34343927D01*
X70711258Y-34339000D01*
X70888742Y-34339000D01*
X70913512Y-34343927D01*
G37*
G36*
X68373512Y-34343927D02*
G01*
X68522812Y-34373624D01*
X68686784Y-34441544D01*
X68834354Y-34540147D01*
X68959853Y-34665646D01*
X69058456Y-34813216D01*
X69126376Y-34977188D01*
X69161000Y-35151259D01*
X69161000Y-35328741D01*
X69126376Y-35502812D01*
X69058456Y-35666784D01*
X68959853Y-35814354D01*
X68834354Y-35939853D01*
X68686784Y-36038456D01*
X68522812Y-36106376D01*
X68373512Y-36136073D01*
X68348742Y-36141000D01*
X68171258Y-36141000D01*
X68146488Y-36136073D01*
X67997188Y-36106376D01*
X67833216Y-36038456D01*
X67685646Y-35939853D01*
X67560147Y-35814354D01*
X67461544Y-35666784D01*
X67393624Y-35502812D01*
X67359000Y-35328741D01*
X67359000Y-35151259D01*
X67393624Y-34977188D01*
X67461544Y-34813216D01*
X67560147Y-34665646D01*
X67685646Y-34540147D01*
X67833216Y-34441544D01*
X67997188Y-34373624D01*
X68146488Y-34343927D01*
X68171258Y-34339000D01*
X68348742Y-34339000D01*
X68373512Y-34343927D01*
G37*
G36*
X65833512Y-34343927D02*
G01*
X65982812Y-34373624D01*
X66146784Y-34441544D01*
X66294354Y-34540147D01*
X66419853Y-34665646D01*
X66518456Y-34813216D01*
X66586376Y-34977188D01*
X66621000Y-35151259D01*
X66621000Y-35328741D01*
X66586376Y-35502812D01*
X66518456Y-35666784D01*
X66419853Y-35814354D01*
X66294354Y-35939853D01*
X66146784Y-36038456D01*
X65982812Y-36106376D01*
X65833512Y-36136073D01*
X65808742Y-36141000D01*
X65631258Y-36141000D01*
X65606488Y-36136073D01*
X65457188Y-36106376D01*
X65293216Y-36038456D01*
X65145646Y-35939853D01*
X65020147Y-35814354D01*
X64921544Y-35666784D01*
X64853624Y-35502812D01*
X64819000Y-35328741D01*
X64819000Y-35151259D01*
X64853624Y-34977188D01*
X64921544Y-34813216D01*
X65020147Y-34665646D01*
X65145646Y-34540147D01*
X65293216Y-34441544D01*
X65457188Y-34373624D01*
X65606488Y-34343927D01*
X65631258Y-34339000D01*
X65808742Y-34339000D01*
X65833512Y-34343927D01*
G37*
G36*
X63293512Y-34343927D02*
G01*
X63442812Y-34373624D01*
X63606784Y-34441544D01*
X63754354Y-34540147D01*
X63879853Y-34665646D01*
X63978456Y-34813216D01*
X64046376Y-34977188D01*
X64081000Y-35151259D01*
X64081000Y-35328741D01*
X64046376Y-35502812D01*
X63978456Y-35666784D01*
X63879853Y-35814354D01*
X63754354Y-35939853D01*
X63606784Y-36038456D01*
X63442812Y-36106376D01*
X63293512Y-36136073D01*
X63268742Y-36141000D01*
X63091258Y-36141000D01*
X63066488Y-36136073D01*
X62917188Y-36106376D01*
X62753216Y-36038456D01*
X62605646Y-35939853D01*
X62480147Y-35814354D01*
X62381544Y-35666784D01*
X62313624Y-35502812D01*
X62279000Y-35328741D01*
X62279000Y-35151259D01*
X62313624Y-34977188D01*
X62381544Y-34813216D01*
X62480147Y-34665646D01*
X62605646Y-34540147D01*
X62753216Y-34441544D01*
X62917188Y-34373624D01*
X63066488Y-34343927D01*
X63091258Y-34339000D01*
X63268742Y-34339000D01*
X63293512Y-34343927D01*
G37*
G36*
X60753512Y-34343927D02*
G01*
X60902812Y-34373624D01*
X61066784Y-34441544D01*
X61214354Y-34540147D01*
X61339853Y-34665646D01*
X61438456Y-34813216D01*
X61506376Y-34977188D01*
X61541000Y-35151259D01*
X61541000Y-35328741D01*
X61506376Y-35502812D01*
X61438456Y-35666784D01*
X61339853Y-35814354D01*
X61214354Y-35939853D01*
X61066784Y-36038456D01*
X60902812Y-36106376D01*
X60753512Y-36136073D01*
X60728742Y-36141000D01*
X60551258Y-36141000D01*
X60526488Y-36136073D01*
X60377188Y-36106376D01*
X60213216Y-36038456D01*
X60065646Y-35939853D01*
X59940147Y-35814354D01*
X59841544Y-35666784D01*
X59773624Y-35502812D01*
X59739000Y-35328741D01*
X59739000Y-35151259D01*
X59773624Y-34977188D01*
X59841544Y-34813216D01*
X59940147Y-34665646D01*
X60065646Y-34540147D01*
X60213216Y-34441544D01*
X60377188Y-34373624D01*
X60526488Y-34343927D01*
X60551258Y-34339000D01*
X60728742Y-34339000D01*
X60753512Y-34343927D01*
G37*
G36*
X86153512Y-34343927D02*
G01*
X86302812Y-34373624D01*
X86466784Y-34441544D01*
X86614354Y-34540147D01*
X86739853Y-34665646D01*
X86838456Y-34813216D01*
X86906376Y-34977188D01*
X86941000Y-35151259D01*
X86941000Y-35328741D01*
X86906376Y-35502812D01*
X86838456Y-35666784D01*
X86739853Y-35814354D01*
X86614354Y-35939853D01*
X86466784Y-36038456D01*
X86302812Y-36106376D01*
X86153512Y-36136073D01*
X86128742Y-36141000D01*
X85951258Y-36141000D01*
X85926488Y-36136073D01*
X85777188Y-36106376D01*
X85613216Y-36038456D01*
X85465646Y-35939853D01*
X85340147Y-35814354D01*
X85241544Y-35666784D01*
X85173624Y-35502812D01*
X85139000Y-35328741D01*
X85139000Y-35151259D01*
X85173624Y-34977188D01*
X85241544Y-34813216D01*
X85340147Y-34665646D01*
X85465646Y-34540147D01*
X85613216Y-34441544D01*
X85777188Y-34373624D01*
X85926488Y-34343927D01*
X85951258Y-34339000D01*
X86128742Y-34339000D01*
X86153512Y-34343927D01*
G37*
G36*
X105392585Y-32448802D02*
G01*
X105542410Y-32478604D01*
X105824674Y-32595521D01*
X106078705Y-32765259D01*
X106294741Y-32981295D01*
X106464479Y-33235326D01*
X106581396Y-33517590D01*
X106641000Y-33817240D01*
X106641000Y-34122760D01*
X106581396Y-34422410D01*
X106464479Y-34704674D01*
X106294741Y-34958705D01*
X106078705Y-35174741D01*
X105824674Y-35344479D01*
X105542410Y-35461396D01*
X105392585Y-35491198D01*
X105242761Y-35521000D01*
X104937239Y-35521000D01*
X104787415Y-35491198D01*
X104637590Y-35461396D01*
X104355326Y-35344479D01*
X104101295Y-35174741D01*
X103885259Y-34958705D01*
X103715521Y-34704674D01*
X103598604Y-34422410D01*
X103539000Y-34122760D01*
X103539000Y-33817240D01*
X103598604Y-33517590D01*
X103715521Y-33235326D01*
X103885259Y-32981295D01*
X104101295Y-32765259D01*
X104355326Y-32595521D01*
X104637590Y-32478604D01*
X104787415Y-32448802D01*
X104937239Y-32419000D01*
X105242761Y-32419000D01*
X105392585Y-32448802D01*
G37*
G36*
X24112585Y-32448802D02*
G01*
X24262410Y-32478604D01*
X24544674Y-32595521D01*
X24798705Y-32765259D01*
X25014741Y-32981295D01*
X25184479Y-33235326D01*
X25301396Y-33517590D01*
X25361000Y-33817240D01*
X25361000Y-34122760D01*
X25301396Y-34422410D01*
X25184479Y-34704674D01*
X25014741Y-34958705D01*
X24798705Y-35174741D01*
X24544674Y-35344479D01*
X24262410Y-35461396D01*
X24112585Y-35491198D01*
X23962761Y-35521000D01*
X23657239Y-35521000D01*
X23507415Y-35491198D01*
X23357590Y-35461396D01*
X23075326Y-35344479D01*
X22821295Y-35174741D01*
X22605259Y-34958705D01*
X22435521Y-34704674D01*
X22318604Y-34422410D01*
X22259000Y-34122760D01*
X22259000Y-33817240D01*
X22318604Y-33517590D01*
X22435521Y-33235326D01*
X22605259Y-32981295D01*
X22821295Y-32765259D01*
X23075326Y-32595521D01*
X23357590Y-32478604D01*
X23507415Y-32448802D01*
X23657239Y-32419000D01*
X23962761Y-32419000D01*
X24112585Y-32448802D01*
G37*
G36*
X78533512Y-31803927D02*
G01*
X78682812Y-31833624D01*
X78846784Y-31901544D01*
X78994354Y-32000147D01*
X79119853Y-32125646D01*
X79218456Y-32273216D01*
X79286376Y-32437188D01*
X79321000Y-32611259D01*
X79321000Y-32788741D01*
X79286376Y-32962812D01*
X79218456Y-33126784D01*
X79119853Y-33274354D01*
X78994354Y-33399853D01*
X78846784Y-33498456D01*
X78682812Y-33566376D01*
X78533512Y-33596073D01*
X78508742Y-33601000D01*
X78331258Y-33601000D01*
X78306488Y-33596073D01*
X78157188Y-33566376D01*
X77993216Y-33498456D01*
X77845646Y-33399853D01*
X77720147Y-33274354D01*
X77621544Y-33126784D01*
X77553624Y-32962812D01*
X77519000Y-32788741D01*
X77519000Y-32611259D01*
X77553624Y-32437188D01*
X77621544Y-32273216D01*
X77720147Y-32125646D01*
X77845646Y-32000147D01*
X77993216Y-31901544D01*
X78157188Y-31833624D01*
X78306488Y-31803927D01*
X78331258Y-31799000D01*
X78508742Y-31799000D01*
X78533512Y-31803927D01*
G37*
G36*
X55673512Y-31803927D02*
G01*
X55822812Y-31833624D01*
X55986784Y-31901544D01*
X56134354Y-32000147D01*
X56259853Y-32125646D01*
X56358456Y-32273216D01*
X56426376Y-32437188D01*
X56461000Y-32611259D01*
X56461000Y-32788741D01*
X56426376Y-32962812D01*
X56358456Y-33126784D01*
X56259853Y-33274354D01*
X56134354Y-33399853D01*
X55986784Y-33498456D01*
X55822812Y-33566376D01*
X55673512Y-33596073D01*
X55648742Y-33601000D01*
X55471258Y-33601000D01*
X55446488Y-33596073D01*
X55297188Y-33566376D01*
X55133216Y-33498456D01*
X54985646Y-33399853D01*
X54860147Y-33274354D01*
X54761544Y-33126784D01*
X54693624Y-32962812D01*
X54659000Y-32788741D01*
X54659000Y-32611259D01*
X54693624Y-32437188D01*
X54761544Y-32273216D01*
X54860147Y-32125646D01*
X54985646Y-32000147D01*
X55133216Y-31901544D01*
X55297188Y-31833624D01*
X55446488Y-31803927D01*
X55471258Y-31799000D01*
X55648742Y-31799000D01*
X55673512Y-31803927D01*
G37*
G36*
X88693512Y-31803927D02*
G01*
X88842812Y-31833624D01*
X89006784Y-31901544D01*
X89154354Y-32000147D01*
X89279853Y-32125646D01*
X89378456Y-32273216D01*
X89446376Y-32437188D01*
X89481000Y-32611259D01*
X89481000Y-32788741D01*
X89446376Y-32962812D01*
X89378456Y-33126784D01*
X89279853Y-33274354D01*
X89154354Y-33399853D01*
X89006784Y-33498456D01*
X88842812Y-33566376D01*
X88693512Y-33596073D01*
X88668742Y-33601000D01*
X88491258Y-33601000D01*
X88466488Y-33596073D01*
X88317188Y-33566376D01*
X88153216Y-33498456D01*
X88005646Y-33399853D01*
X87880147Y-33274354D01*
X87781544Y-33126784D01*
X87713624Y-32962812D01*
X87679000Y-32788741D01*
X87679000Y-32611259D01*
X87713624Y-32437188D01*
X87781544Y-32273216D01*
X87880147Y-32125646D01*
X88005646Y-32000147D01*
X88153216Y-31901544D01*
X88317188Y-31833624D01*
X88466488Y-31803927D01*
X88491258Y-31799000D01*
X88668742Y-31799000D01*
X88693512Y-31803927D01*
G37*
G36*
X53133512Y-31803927D02*
G01*
X53282812Y-31833624D01*
X53446784Y-31901544D01*
X53594354Y-32000147D01*
X53719853Y-32125646D01*
X53818456Y-32273216D01*
X53886376Y-32437188D01*
X53921000Y-32611259D01*
X53921000Y-32788741D01*
X53886376Y-32962812D01*
X53818456Y-33126784D01*
X53719853Y-33274354D01*
X53594354Y-33399853D01*
X53446784Y-33498456D01*
X53282812Y-33566376D01*
X53133512Y-33596073D01*
X53108742Y-33601000D01*
X52931258Y-33601000D01*
X52906488Y-33596073D01*
X52757188Y-33566376D01*
X52593216Y-33498456D01*
X52445646Y-33399853D01*
X52320147Y-33274354D01*
X52221544Y-33126784D01*
X52153624Y-32962812D01*
X52119000Y-32788741D01*
X52119000Y-32611259D01*
X52153624Y-32437188D01*
X52221544Y-32273216D01*
X52320147Y-32125646D01*
X52445646Y-32000147D01*
X52593216Y-31901544D01*
X52757188Y-31833624D01*
X52906488Y-31803927D01*
X52931258Y-31799000D01*
X53108742Y-31799000D01*
X53133512Y-31803927D01*
G37*
G36*
X86153512Y-31803927D02*
G01*
X86302812Y-31833624D01*
X86466784Y-31901544D01*
X86614354Y-32000147D01*
X86739853Y-32125646D01*
X86838456Y-32273216D01*
X86906376Y-32437188D01*
X86941000Y-32611259D01*
X86941000Y-32788741D01*
X86906376Y-32962812D01*
X86838456Y-33126784D01*
X86739853Y-33274354D01*
X86614354Y-33399853D01*
X86466784Y-33498456D01*
X86302812Y-33566376D01*
X86153512Y-33596073D01*
X86128742Y-33601000D01*
X85951258Y-33601000D01*
X85926488Y-33596073D01*
X85777188Y-33566376D01*
X85613216Y-33498456D01*
X85465646Y-33399853D01*
X85340147Y-33274354D01*
X85241544Y-33126784D01*
X85173624Y-32962812D01*
X85139000Y-32788741D01*
X85139000Y-32611259D01*
X85173624Y-32437188D01*
X85241544Y-32273216D01*
X85340147Y-32125646D01*
X85465646Y-32000147D01*
X85613216Y-31901544D01*
X85777188Y-31833624D01*
X85926488Y-31803927D01*
X85951258Y-31799000D01*
X86128742Y-31799000D01*
X86153512Y-31803927D01*
G37*
G36*
X50593512Y-31803927D02*
G01*
X50742812Y-31833624D01*
X50906784Y-31901544D01*
X51054354Y-32000147D01*
X51179853Y-32125646D01*
X51278456Y-32273216D01*
X51346376Y-32437188D01*
X51381000Y-32611259D01*
X51381000Y-32788741D01*
X51346376Y-32962812D01*
X51278456Y-33126784D01*
X51179853Y-33274354D01*
X51054354Y-33399853D01*
X50906784Y-33498456D01*
X50742812Y-33566376D01*
X50593512Y-33596073D01*
X50568742Y-33601000D01*
X50391258Y-33601000D01*
X50366488Y-33596073D01*
X50217188Y-33566376D01*
X50053216Y-33498456D01*
X49905646Y-33399853D01*
X49780147Y-33274354D01*
X49681544Y-33126784D01*
X49613624Y-32962812D01*
X49579000Y-32788741D01*
X49579000Y-32611259D01*
X49613624Y-32437188D01*
X49681544Y-32273216D01*
X49780147Y-32125646D01*
X49905646Y-32000147D01*
X50053216Y-31901544D01*
X50217188Y-31833624D01*
X50366488Y-31803927D01*
X50391258Y-31799000D01*
X50568742Y-31799000D01*
X50593512Y-31803927D01*
G37*
G36*
X83613512Y-31803927D02*
G01*
X83762812Y-31833624D01*
X83926784Y-31901544D01*
X84074354Y-32000147D01*
X84199853Y-32125646D01*
X84298456Y-32273216D01*
X84366376Y-32437188D01*
X84401000Y-32611259D01*
X84401000Y-32788741D01*
X84366376Y-32962812D01*
X84298456Y-33126784D01*
X84199853Y-33274354D01*
X84074354Y-33399853D01*
X83926784Y-33498456D01*
X83762812Y-33566376D01*
X83613512Y-33596073D01*
X83588742Y-33601000D01*
X83411258Y-33601000D01*
X83386488Y-33596073D01*
X83237188Y-33566376D01*
X83073216Y-33498456D01*
X82925646Y-33399853D01*
X82800147Y-33274354D01*
X82701544Y-33126784D01*
X82633624Y-32962812D01*
X82599000Y-32788741D01*
X82599000Y-32611259D01*
X82633624Y-32437188D01*
X82701544Y-32273216D01*
X82800147Y-32125646D01*
X82925646Y-32000147D01*
X83073216Y-31901544D01*
X83237188Y-31833624D01*
X83386488Y-31803927D01*
X83411258Y-31799000D01*
X83588742Y-31799000D01*
X83613512Y-31803927D01*
G37*
G36*
X58213512Y-31803927D02*
G01*
X58362812Y-31833624D01*
X58526784Y-31901544D01*
X58674354Y-32000147D01*
X58799853Y-32125646D01*
X58898456Y-32273216D01*
X58966376Y-32437188D01*
X59001000Y-32611259D01*
X59001000Y-32788741D01*
X58966376Y-32962812D01*
X58898456Y-33126784D01*
X58799853Y-33274354D01*
X58674354Y-33399853D01*
X58526784Y-33498456D01*
X58362812Y-33566376D01*
X58213512Y-33596073D01*
X58188742Y-33601000D01*
X58011258Y-33601000D01*
X57986488Y-33596073D01*
X57837188Y-33566376D01*
X57673216Y-33498456D01*
X57525646Y-33399853D01*
X57400147Y-33274354D01*
X57301544Y-33126784D01*
X57233624Y-32962812D01*
X57199000Y-32788741D01*
X57199000Y-32611259D01*
X57233624Y-32437188D01*
X57301544Y-32273216D01*
X57400147Y-32125646D01*
X57525646Y-32000147D01*
X57673216Y-31901544D01*
X57837188Y-31833624D01*
X57986488Y-31803927D01*
X58011258Y-31799000D01*
X58188742Y-31799000D01*
X58213512Y-31803927D01*
G37*
G36*
X81073512Y-31803927D02*
G01*
X81222812Y-31833624D01*
X81386784Y-31901544D01*
X81534354Y-32000147D01*
X81659853Y-32125646D01*
X81758456Y-32273216D01*
X81826376Y-32437188D01*
X81861000Y-32611259D01*
X81861000Y-32788741D01*
X81826376Y-32962812D01*
X81758456Y-33126784D01*
X81659853Y-33274354D01*
X81534354Y-33399853D01*
X81386784Y-33498456D01*
X81222812Y-33566376D01*
X81073512Y-33596073D01*
X81048742Y-33601000D01*
X80871258Y-33601000D01*
X80846488Y-33596073D01*
X80697188Y-33566376D01*
X80533216Y-33498456D01*
X80385646Y-33399853D01*
X80260147Y-33274354D01*
X80161544Y-33126784D01*
X80093624Y-32962812D01*
X80059000Y-32788741D01*
X80059000Y-32611259D01*
X80093624Y-32437188D01*
X80161544Y-32273216D01*
X80260147Y-32125646D01*
X80385646Y-32000147D01*
X80533216Y-31901544D01*
X80697188Y-31833624D01*
X80846488Y-31803927D01*
X80871258Y-31799000D01*
X81048742Y-31799000D01*
X81073512Y-31803927D01*
G37*
G36*
X45513512Y-31803927D02*
G01*
X45662812Y-31833624D01*
X45826784Y-31901544D01*
X45974354Y-32000147D01*
X46099853Y-32125646D01*
X46198456Y-32273216D01*
X46266376Y-32437188D01*
X46301000Y-32611259D01*
X46301000Y-32788741D01*
X46266376Y-32962812D01*
X46198456Y-33126784D01*
X46099853Y-33274354D01*
X45974354Y-33399853D01*
X45826784Y-33498456D01*
X45662812Y-33566376D01*
X45513512Y-33596073D01*
X45488742Y-33601000D01*
X45311258Y-33601000D01*
X45286488Y-33596073D01*
X45137188Y-33566376D01*
X44973216Y-33498456D01*
X44825646Y-33399853D01*
X44700147Y-33274354D01*
X44601544Y-33126784D01*
X44533624Y-32962812D01*
X44499000Y-32788741D01*
X44499000Y-32611259D01*
X44533624Y-32437188D01*
X44601544Y-32273216D01*
X44700147Y-32125646D01*
X44825646Y-32000147D01*
X44973216Y-31901544D01*
X45137188Y-31833624D01*
X45286488Y-31803927D01*
X45311258Y-31799000D01*
X45488742Y-31799000D01*
X45513512Y-31803927D01*
G37*
G36*
X42973512Y-31803927D02*
G01*
X43122812Y-31833624D01*
X43286784Y-31901544D01*
X43434354Y-32000147D01*
X43559853Y-32125646D01*
X43658456Y-32273216D01*
X43726376Y-32437188D01*
X43761000Y-32611259D01*
X43761000Y-32788741D01*
X43726376Y-32962812D01*
X43658456Y-33126784D01*
X43559853Y-33274354D01*
X43434354Y-33399853D01*
X43286784Y-33498456D01*
X43122812Y-33566376D01*
X42973512Y-33596073D01*
X42948742Y-33601000D01*
X42771258Y-33601000D01*
X42746488Y-33596073D01*
X42597188Y-33566376D01*
X42433216Y-33498456D01*
X42285646Y-33399853D01*
X42160147Y-33274354D01*
X42061544Y-33126784D01*
X41993624Y-32962812D01*
X41959000Y-32788741D01*
X41959000Y-32611259D01*
X41993624Y-32437188D01*
X42061544Y-32273216D01*
X42160147Y-32125646D01*
X42285646Y-32000147D01*
X42433216Y-31901544D01*
X42597188Y-31833624D01*
X42746488Y-31803927D01*
X42771258Y-31799000D01*
X42948742Y-31799000D01*
X42973512Y-31803927D01*
G37*
G36*
X75993512Y-31803927D02*
G01*
X76142812Y-31833624D01*
X76306784Y-31901544D01*
X76454354Y-32000147D01*
X76579853Y-32125646D01*
X76678456Y-32273216D01*
X76746376Y-32437188D01*
X76781000Y-32611259D01*
X76781000Y-32788741D01*
X76746376Y-32962812D01*
X76678456Y-33126784D01*
X76579853Y-33274354D01*
X76454354Y-33399853D01*
X76306784Y-33498456D01*
X76142812Y-33566376D01*
X75993512Y-33596073D01*
X75968742Y-33601000D01*
X75791258Y-33601000D01*
X75766488Y-33596073D01*
X75617188Y-33566376D01*
X75453216Y-33498456D01*
X75305646Y-33399853D01*
X75180147Y-33274354D01*
X75081544Y-33126784D01*
X75013624Y-32962812D01*
X74979000Y-32788741D01*
X74979000Y-32611259D01*
X75013624Y-32437188D01*
X75081544Y-32273216D01*
X75180147Y-32125646D01*
X75305646Y-32000147D01*
X75453216Y-31901544D01*
X75617188Y-31833624D01*
X75766488Y-31803927D01*
X75791258Y-31799000D01*
X75968742Y-31799000D01*
X75993512Y-31803927D01*
G37*
G36*
X40433512Y-31803927D02*
G01*
X40582812Y-31833624D01*
X40746784Y-31901544D01*
X40894354Y-32000147D01*
X41019853Y-32125646D01*
X41118456Y-32273216D01*
X41186376Y-32437188D01*
X41221000Y-32611259D01*
X41221000Y-32788741D01*
X41186376Y-32962812D01*
X41118456Y-33126784D01*
X41019853Y-33274354D01*
X40894354Y-33399853D01*
X40746784Y-33498456D01*
X40582812Y-33566376D01*
X40433512Y-33596073D01*
X40408742Y-33601000D01*
X40231258Y-33601000D01*
X40206488Y-33596073D01*
X40057188Y-33566376D01*
X39893216Y-33498456D01*
X39745646Y-33399853D01*
X39620147Y-33274354D01*
X39521544Y-33126784D01*
X39453624Y-32962812D01*
X39419000Y-32788741D01*
X39419000Y-32611259D01*
X39453624Y-32437188D01*
X39521544Y-32273216D01*
X39620147Y-32125646D01*
X39745646Y-32000147D01*
X39893216Y-31901544D01*
X40057188Y-31833624D01*
X40206488Y-31803927D01*
X40231258Y-31799000D01*
X40408742Y-31799000D01*
X40433512Y-31803927D01*
G37*
G36*
X73453512Y-31803927D02*
G01*
X73602812Y-31833624D01*
X73766784Y-31901544D01*
X73914354Y-32000147D01*
X74039853Y-32125646D01*
X74138456Y-32273216D01*
X74206376Y-32437188D01*
X74241000Y-32611259D01*
X74241000Y-32788741D01*
X74206376Y-32962812D01*
X74138456Y-33126784D01*
X74039853Y-33274354D01*
X73914354Y-33399853D01*
X73766784Y-33498456D01*
X73602812Y-33566376D01*
X73453512Y-33596073D01*
X73428742Y-33601000D01*
X73251258Y-33601000D01*
X73226488Y-33596073D01*
X73077188Y-33566376D01*
X72913216Y-33498456D01*
X72765646Y-33399853D01*
X72640147Y-33274354D01*
X72541544Y-33126784D01*
X72473624Y-32962812D01*
X72439000Y-32788741D01*
X72439000Y-32611259D01*
X72473624Y-32437188D01*
X72541544Y-32273216D01*
X72640147Y-32125646D01*
X72765646Y-32000147D01*
X72913216Y-31901544D01*
X73077188Y-31833624D01*
X73226488Y-31803927D01*
X73251258Y-31799000D01*
X73428742Y-31799000D01*
X73453512Y-31803927D01*
G37*
G36*
X70913512Y-31803927D02*
G01*
X71062812Y-31833624D01*
X71226784Y-31901544D01*
X71374354Y-32000147D01*
X71499853Y-32125646D01*
X71598456Y-32273216D01*
X71666376Y-32437188D01*
X71701000Y-32611259D01*
X71701000Y-32788741D01*
X71666376Y-32962812D01*
X71598456Y-33126784D01*
X71499853Y-33274354D01*
X71374354Y-33399853D01*
X71226784Y-33498456D01*
X71062812Y-33566376D01*
X70913512Y-33596073D01*
X70888742Y-33601000D01*
X70711258Y-33601000D01*
X70686488Y-33596073D01*
X70537188Y-33566376D01*
X70373216Y-33498456D01*
X70225646Y-33399853D01*
X70100147Y-33274354D01*
X70001544Y-33126784D01*
X69933624Y-32962812D01*
X69899000Y-32788741D01*
X69899000Y-32611259D01*
X69933624Y-32437188D01*
X70001544Y-32273216D01*
X70100147Y-32125646D01*
X70225646Y-32000147D01*
X70373216Y-31901544D01*
X70537188Y-31833624D01*
X70686488Y-31803927D01*
X70711258Y-31799000D01*
X70888742Y-31799000D01*
X70913512Y-31803927D01*
G37*
G36*
X68373512Y-31803927D02*
G01*
X68522812Y-31833624D01*
X68686784Y-31901544D01*
X68834354Y-32000147D01*
X68959853Y-32125646D01*
X69058456Y-32273216D01*
X69126376Y-32437188D01*
X69161000Y-32611259D01*
X69161000Y-32788741D01*
X69126376Y-32962812D01*
X69058456Y-33126784D01*
X68959853Y-33274354D01*
X68834354Y-33399853D01*
X68686784Y-33498456D01*
X68522812Y-33566376D01*
X68373512Y-33596073D01*
X68348742Y-33601000D01*
X68171258Y-33601000D01*
X68146488Y-33596073D01*
X67997188Y-33566376D01*
X67833216Y-33498456D01*
X67685646Y-33399853D01*
X67560147Y-33274354D01*
X67461544Y-33126784D01*
X67393624Y-32962812D01*
X67359000Y-32788741D01*
X67359000Y-32611259D01*
X67393624Y-32437188D01*
X67461544Y-32273216D01*
X67560147Y-32125646D01*
X67685646Y-32000147D01*
X67833216Y-31901544D01*
X67997188Y-31833624D01*
X68146488Y-31803927D01*
X68171258Y-31799000D01*
X68348742Y-31799000D01*
X68373512Y-31803927D01*
G37*
G36*
X65833512Y-31803927D02*
G01*
X65982812Y-31833624D01*
X66146784Y-31901544D01*
X66294354Y-32000147D01*
X66419853Y-32125646D01*
X66518456Y-32273216D01*
X66586376Y-32437188D01*
X66621000Y-32611259D01*
X66621000Y-32788741D01*
X66586376Y-32962812D01*
X66518456Y-33126784D01*
X66419853Y-33274354D01*
X66294354Y-33399853D01*
X66146784Y-33498456D01*
X65982812Y-33566376D01*
X65833512Y-33596073D01*
X65808742Y-33601000D01*
X65631258Y-33601000D01*
X65606488Y-33596073D01*
X65457188Y-33566376D01*
X65293216Y-33498456D01*
X65145646Y-33399853D01*
X65020147Y-33274354D01*
X64921544Y-33126784D01*
X64853624Y-32962812D01*
X64819000Y-32788741D01*
X64819000Y-32611259D01*
X64853624Y-32437188D01*
X64921544Y-32273216D01*
X65020147Y-32125646D01*
X65145646Y-32000147D01*
X65293216Y-31901544D01*
X65457188Y-31833624D01*
X65606488Y-31803927D01*
X65631258Y-31799000D01*
X65808742Y-31799000D01*
X65833512Y-31803927D01*
G37*
G36*
X63293512Y-31803927D02*
G01*
X63442812Y-31833624D01*
X63606784Y-31901544D01*
X63754354Y-32000147D01*
X63879853Y-32125646D01*
X63978456Y-32273216D01*
X64046376Y-32437188D01*
X64081000Y-32611259D01*
X64081000Y-32788741D01*
X64046376Y-32962812D01*
X63978456Y-33126784D01*
X63879853Y-33274354D01*
X63754354Y-33399853D01*
X63606784Y-33498456D01*
X63442812Y-33566376D01*
X63293512Y-33596073D01*
X63268742Y-33601000D01*
X63091258Y-33601000D01*
X63066488Y-33596073D01*
X62917188Y-33566376D01*
X62753216Y-33498456D01*
X62605646Y-33399853D01*
X62480147Y-33274354D01*
X62381544Y-33126784D01*
X62313624Y-32962812D01*
X62279000Y-32788741D01*
X62279000Y-32611259D01*
X62313624Y-32437188D01*
X62381544Y-32273216D01*
X62480147Y-32125646D01*
X62605646Y-32000147D01*
X62753216Y-31901544D01*
X62917188Y-31833624D01*
X63066488Y-31803927D01*
X63091258Y-31799000D01*
X63268742Y-31799000D01*
X63293512Y-31803927D01*
G37*
G36*
X60753512Y-31803927D02*
G01*
X60902812Y-31833624D01*
X61066784Y-31901544D01*
X61214354Y-32000147D01*
X61339853Y-32125646D01*
X61438456Y-32273216D01*
X61506376Y-32437188D01*
X61541000Y-32611259D01*
X61541000Y-32788741D01*
X61506376Y-32962812D01*
X61438456Y-33126784D01*
X61339853Y-33274354D01*
X61214354Y-33399853D01*
X61066784Y-33498456D01*
X60902812Y-33566376D01*
X60753512Y-33596073D01*
X60728742Y-33601000D01*
X60551258Y-33601000D01*
X60526488Y-33596073D01*
X60377188Y-33566376D01*
X60213216Y-33498456D01*
X60065646Y-33399853D01*
X59940147Y-33274354D01*
X59841544Y-33126784D01*
X59773624Y-32962812D01*
X59739000Y-32788741D01*
X59739000Y-32611259D01*
X59773624Y-32437188D01*
X59841544Y-32273216D01*
X59940147Y-32125646D01*
X60065646Y-32000147D01*
X60213216Y-31901544D01*
X60377188Y-31833624D01*
X60526488Y-31803927D01*
X60551258Y-31799000D01*
X60728742Y-31799000D01*
X60753512Y-31803927D01*
G37*
G36*
X48053512Y-31803927D02*
G01*
X48202812Y-31833624D01*
X48366784Y-31901544D01*
X48514354Y-32000147D01*
X48639853Y-32125646D01*
X48738456Y-32273216D01*
X48806376Y-32437188D01*
X48841000Y-32611259D01*
X48841000Y-32788741D01*
X48806376Y-32962812D01*
X48738456Y-33126784D01*
X48639853Y-33274354D01*
X48514354Y-33399853D01*
X48366784Y-33498456D01*
X48202812Y-33566376D01*
X48053512Y-33596073D01*
X48028742Y-33601000D01*
X47851258Y-33601000D01*
X47826488Y-33596073D01*
X47677188Y-33566376D01*
X47513216Y-33498456D01*
X47365646Y-33399853D01*
X47240147Y-33274354D01*
X47141544Y-33126784D01*
X47073624Y-32962812D01*
X47039000Y-32788741D01*
X47039000Y-32611259D01*
X47073624Y-32437188D01*
X47141544Y-32273216D01*
X47240147Y-32125646D01*
X47365646Y-32000147D01*
X47513216Y-31901544D01*
X47677188Y-31833624D01*
X47826488Y-31803927D01*
X47851258Y-31799000D01*
X48028742Y-31799000D01*
X48053512Y-31803927D01*
G37*
G36*
X24189393Y-27639304D02*
G01*
X24426101Y-27737352D01*
X24426103Y-27737353D01*
X24639135Y-27879696D01*
X24820304Y-28060865D01*
X24962647Y-28273897D01*
X24962648Y-28273899D01*
X25060696Y-28510607D01*
X25110680Y-28761893D01*
X25110680Y-29018107D01*
X25060696Y-29269393D01*
X24962648Y-29506101D01*
X24962647Y-29506103D01*
X24820304Y-29719135D01*
X24639135Y-29900304D01*
X24426103Y-30042647D01*
X24426102Y-30042648D01*
X24426101Y-30042648D01*
X24189393Y-30140696D01*
X23938107Y-30190680D01*
X23681893Y-30190680D01*
X23430607Y-30140696D01*
X23193899Y-30042648D01*
X23193898Y-30042648D01*
X23193897Y-30042647D01*
X22980865Y-29900304D01*
X22799696Y-29719135D01*
X22657353Y-29506103D01*
X22657352Y-29506101D01*
X22559304Y-29269393D01*
X22509320Y-29018107D01*
X22509320Y-28761893D01*
X22559304Y-28510607D01*
X22657352Y-28273899D01*
X22657353Y-28273897D01*
X22799696Y-28060865D01*
X22980865Y-27879696D01*
X23193897Y-27737353D01*
X23193899Y-27737352D01*
X23430607Y-27639304D01*
X23681893Y-27589320D01*
X23938107Y-27589320D01*
X24189393Y-27639304D01*
G37*
G36*
X105469393Y-27639304D02*
G01*
X105706101Y-27737352D01*
X105706103Y-27737353D01*
X105919135Y-27879696D01*
X106100304Y-28060865D01*
X106242647Y-28273897D01*
X106242648Y-28273899D01*
X106340696Y-28510607D01*
X106390680Y-28761893D01*
X106390680Y-29018107D01*
X106340696Y-29269393D01*
X106242648Y-29506101D01*
X106242647Y-29506103D01*
X106100304Y-29719135D01*
X105919135Y-29900304D01*
X105706103Y-30042647D01*
X105706102Y-30042648D01*
X105706101Y-30042648D01*
X105469393Y-30140696D01*
X105218107Y-30190680D01*
X104961893Y-30190680D01*
X104710607Y-30140696D01*
X104473899Y-30042648D01*
X104473898Y-30042648D01*
X104473897Y-30042647D01*
X104260865Y-29900304D01*
X104079696Y-29719135D01*
X103937353Y-29506103D01*
X103937352Y-29506101D01*
X103839304Y-29269393D01*
X103789320Y-29018107D01*
X103789320Y-28761893D01*
X103839304Y-28510607D01*
X103937352Y-28273899D01*
X103937353Y-28273897D01*
X104079696Y-28060865D01*
X104260865Y-27879696D01*
X104473897Y-27737353D01*
X104473899Y-27737352D01*
X104710607Y-27639304D01*
X104961893Y-27589320D01*
X105218107Y-27589320D01*
X105469393Y-27639304D01*
G37*
G36*
X31564903Y-23074475D02*
G01*
X31566958Y-23075326D01*
X31792571Y-23168778D01*
X31997466Y-23305685D01*
X32171715Y-23479934D01*
X32308622Y-23684829D01*
X32402925Y-23912497D01*
X32451000Y-24154187D01*
X32451000Y-24400613D01*
X32402925Y-24642303D01*
X32308622Y-24869971D01*
X32171715Y-25074866D01*
X31997466Y-25249115D01*
X31792571Y-25386022D01*
X31792570Y-25386023D01*
X31792569Y-25386023D01*
X31564903Y-25480325D01*
X31323214Y-25528400D01*
X31076786Y-25528400D01*
X30835097Y-25480325D01*
X30607431Y-25386023D01*
X30607430Y-25386023D01*
X30607429Y-25386022D01*
X30402534Y-25249115D01*
X30228285Y-25074866D01*
X30091378Y-24869971D01*
X29997075Y-24642303D01*
X29949000Y-24400613D01*
X29949000Y-24154187D01*
X29997075Y-23912497D01*
X30091378Y-23684829D01*
X30228285Y-23479934D01*
X30402534Y-23305685D01*
X30607429Y-23168778D01*
X30833043Y-23075326D01*
X30835097Y-23074475D01*
X31076786Y-23026400D01*
X31323214Y-23026400D01*
X31564903Y-23074475D01*
G37*
G36*
X98951000Y-25528400D02*
G01*
X96449000Y-25528400D01*
X96449000Y-23026400D01*
X98951000Y-23026400D01*
X98951000Y-25528400D01*
G37*
G36*
X91064903Y-23074475D02*
G01*
X91066958Y-23075326D01*
X91292571Y-23168778D01*
X91497466Y-23305685D01*
X91671715Y-23479934D01*
X91808622Y-23684829D01*
X91902925Y-23912497D01*
X91951000Y-24154187D01*
X91951000Y-24400613D01*
X91902925Y-24642303D01*
X91808622Y-24869971D01*
X91671715Y-25074866D01*
X91497466Y-25249115D01*
X91292571Y-25386022D01*
X91292570Y-25386023D01*
X91292569Y-25386023D01*
X91064903Y-25480325D01*
X90823214Y-25528400D01*
X90576786Y-25528400D01*
X90335097Y-25480325D01*
X90107431Y-25386023D01*
X90107430Y-25386023D01*
X90107429Y-25386022D01*
X89902534Y-25249115D01*
X89728285Y-25074866D01*
X89591378Y-24869971D01*
X89497075Y-24642303D01*
X89449000Y-24400613D01*
X89449000Y-24154187D01*
X89497075Y-23912497D01*
X89591378Y-23684829D01*
X89728285Y-23479934D01*
X89902534Y-23305685D01*
X90107429Y-23168778D01*
X90333043Y-23075326D01*
X90335097Y-23074475D01*
X90576786Y-23026400D01*
X90823214Y-23026400D01*
X91064903Y-23074475D01*
G37*
G36*
X87564903Y-23074475D02*
G01*
X87566958Y-23075326D01*
X87792571Y-23168778D01*
X87997466Y-23305685D01*
X88171715Y-23479934D01*
X88308622Y-23684829D01*
X88402925Y-23912497D01*
X88451000Y-24154187D01*
X88451000Y-24400613D01*
X88402925Y-24642303D01*
X88308622Y-24869971D01*
X88171715Y-25074866D01*
X87997466Y-25249115D01*
X87792571Y-25386022D01*
X87792570Y-25386023D01*
X87792569Y-25386023D01*
X87564903Y-25480325D01*
X87323214Y-25528400D01*
X87076786Y-25528400D01*
X86835097Y-25480325D01*
X86607431Y-25386023D01*
X86607430Y-25386023D01*
X86607429Y-25386022D01*
X86402534Y-25249115D01*
X86228285Y-25074866D01*
X86091378Y-24869971D01*
X85997075Y-24642303D01*
X85949000Y-24400613D01*
X85949000Y-24154187D01*
X85997075Y-23912497D01*
X86091378Y-23684829D01*
X86228285Y-23479934D01*
X86402534Y-23305685D01*
X86607429Y-23168778D01*
X86833043Y-23075326D01*
X86835097Y-23074475D01*
X87076786Y-23026400D01*
X87323214Y-23026400D01*
X87564903Y-23074475D01*
G37*
G36*
X84064903Y-23074475D02*
G01*
X84066958Y-23075326D01*
X84292571Y-23168778D01*
X84497466Y-23305685D01*
X84671715Y-23479934D01*
X84808622Y-23684829D01*
X84902925Y-23912497D01*
X84951000Y-24154187D01*
X84951000Y-24400613D01*
X84902925Y-24642303D01*
X84808622Y-24869971D01*
X84671715Y-25074866D01*
X84497466Y-25249115D01*
X84292571Y-25386022D01*
X84292570Y-25386023D01*
X84292569Y-25386023D01*
X84064903Y-25480325D01*
X83823214Y-25528400D01*
X83576786Y-25528400D01*
X83335097Y-25480325D01*
X83107431Y-25386023D01*
X83107430Y-25386023D01*
X83107429Y-25386022D01*
X82902534Y-25249115D01*
X82728285Y-25074866D01*
X82591378Y-24869971D01*
X82497075Y-24642303D01*
X82449000Y-24400613D01*
X82449000Y-24154187D01*
X82497075Y-23912497D01*
X82591378Y-23684829D01*
X82728285Y-23479934D01*
X82902534Y-23305685D01*
X83107429Y-23168778D01*
X83333043Y-23075326D01*
X83335097Y-23074475D01*
X83576786Y-23026400D01*
X83823214Y-23026400D01*
X84064903Y-23074475D01*
G37*
G36*
X80564903Y-23074475D02*
G01*
X80566958Y-23075326D01*
X80792571Y-23168778D01*
X80997466Y-23305685D01*
X81171715Y-23479934D01*
X81308622Y-23684829D01*
X81402925Y-23912497D01*
X81451000Y-24154187D01*
X81451000Y-24400613D01*
X81402925Y-24642303D01*
X81308622Y-24869971D01*
X81171715Y-25074866D01*
X80997466Y-25249115D01*
X80792571Y-25386022D01*
X80792570Y-25386023D01*
X80792569Y-25386023D01*
X80564903Y-25480325D01*
X80323214Y-25528400D01*
X80076786Y-25528400D01*
X79835097Y-25480325D01*
X79607431Y-25386023D01*
X79607430Y-25386023D01*
X79607429Y-25386022D01*
X79402534Y-25249115D01*
X79228285Y-25074866D01*
X79091378Y-24869971D01*
X78997075Y-24642303D01*
X78949000Y-24400613D01*
X78949000Y-24154187D01*
X78997075Y-23912497D01*
X79091378Y-23684829D01*
X79228285Y-23479934D01*
X79402534Y-23305685D01*
X79607429Y-23168778D01*
X79833043Y-23075326D01*
X79835097Y-23074475D01*
X80076786Y-23026400D01*
X80323214Y-23026400D01*
X80564903Y-23074475D01*
G37*
G36*
X77064903Y-23074475D02*
G01*
X77066958Y-23075326D01*
X77292571Y-23168778D01*
X77497466Y-23305685D01*
X77671715Y-23479934D01*
X77808622Y-23684829D01*
X77902925Y-23912497D01*
X77951000Y-24154187D01*
X77951000Y-24400613D01*
X77902925Y-24642303D01*
X77808622Y-24869971D01*
X77671715Y-25074866D01*
X77497466Y-25249115D01*
X77292571Y-25386022D01*
X77292570Y-25386023D01*
X77292569Y-25386023D01*
X77064903Y-25480325D01*
X76823214Y-25528400D01*
X76576786Y-25528400D01*
X76335097Y-25480325D01*
X76107431Y-25386023D01*
X76107430Y-25386023D01*
X76107429Y-25386022D01*
X75902534Y-25249115D01*
X75728285Y-25074866D01*
X75591378Y-24869971D01*
X75497075Y-24642303D01*
X75449000Y-24400613D01*
X75449000Y-24154187D01*
X75497075Y-23912497D01*
X75591378Y-23684829D01*
X75728285Y-23479934D01*
X75902534Y-23305685D01*
X76107429Y-23168778D01*
X76333043Y-23075326D01*
X76335097Y-23074475D01*
X76576786Y-23026400D01*
X76823214Y-23026400D01*
X77064903Y-23074475D01*
G37*
G36*
X73564903Y-23074475D02*
G01*
X73566958Y-23075326D01*
X73792571Y-23168778D01*
X73997466Y-23305685D01*
X74171715Y-23479934D01*
X74308622Y-23684829D01*
X74402925Y-23912497D01*
X74451000Y-24154187D01*
X74451000Y-24400613D01*
X74402925Y-24642303D01*
X74308622Y-24869971D01*
X74171715Y-25074866D01*
X73997466Y-25249115D01*
X73792571Y-25386022D01*
X73792570Y-25386023D01*
X73792569Y-25386023D01*
X73564903Y-25480325D01*
X73323214Y-25528400D01*
X73076786Y-25528400D01*
X72835097Y-25480325D01*
X72607431Y-25386023D01*
X72607430Y-25386023D01*
X72607429Y-25386022D01*
X72402534Y-25249115D01*
X72228285Y-25074866D01*
X72091378Y-24869971D01*
X71997075Y-24642303D01*
X71949000Y-24400613D01*
X71949000Y-24154187D01*
X71997075Y-23912497D01*
X72091378Y-23684829D01*
X72228285Y-23479934D01*
X72402534Y-23305685D01*
X72607429Y-23168778D01*
X72833043Y-23075326D01*
X72835097Y-23074475D01*
X73076786Y-23026400D01*
X73323214Y-23026400D01*
X73564903Y-23074475D01*
G37*
G36*
X70064903Y-23074475D02*
G01*
X70066958Y-23075326D01*
X70292571Y-23168778D01*
X70497466Y-23305685D01*
X70671715Y-23479934D01*
X70808622Y-23684829D01*
X70902925Y-23912497D01*
X70951000Y-24154187D01*
X70951000Y-24400613D01*
X70902925Y-24642303D01*
X70808622Y-24869971D01*
X70671715Y-25074866D01*
X70497466Y-25249115D01*
X70292571Y-25386022D01*
X70292570Y-25386023D01*
X70292569Y-25386023D01*
X70064903Y-25480325D01*
X69823214Y-25528400D01*
X69576786Y-25528400D01*
X69335097Y-25480325D01*
X69107431Y-25386023D01*
X69107430Y-25386023D01*
X69107429Y-25386022D01*
X68902534Y-25249115D01*
X68728285Y-25074866D01*
X68591378Y-24869971D01*
X68497075Y-24642303D01*
X68449000Y-24400613D01*
X68449000Y-24154187D01*
X68497075Y-23912497D01*
X68591378Y-23684829D01*
X68728285Y-23479934D01*
X68902534Y-23305685D01*
X69107429Y-23168778D01*
X69333043Y-23075326D01*
X69335097Y-23074475D01*
X69576786Y-23026400D01*
X69823214Y-23026400D01*
X70064903Y-23074475D01*
G37*
G36*
X94564903Y-23074475D02*
G01*
X94566958Y-23075326D01*
X94792571Y-23168778D01*
X94997466Y-23305685D01*
X95171715Y-23479934D01*
X95308622Y-23684829D01*
X95402925Y-23912497D01*
X95451000Y-24154187D01*
X95451000Y-24400613D01*
X95402925Y-24642303D01*
X95308622Y-24869971D01*
X95171715Y-25074866D01*
X94997466Y-25249115D01*
X94792571Y-25386022D01*
X94792570Y-25386023D01*
X94792569Y-25386023D01*
X94564903Y-25480325D01*
X94323214Y-25528400D01*
X94076786Y-25528400D01*
X93835097Y-25480325D01*
X93607431Y-25386023D01*
X93607430Y-25386023D01*
X93607429Y-25386022D01*
X93402534Y-25249115D01*
X93228285Y-25074866D01*
X93091378Y-24869971D01*
X92997075Y-24642303D01*
X92949000Y-24400613D01*
X92949000Y-24154187D01*
X92997075Y-23912497D01*
X93091378Y-23684829D01*
X93228285Y-23479934D01*
X93402534Y-23305685D01*
X93607429Y-23168778D01*
X93833043Y-23075326D01*
X93835097Y-23074475D01*
X94076786Y-23026400D01*
X94323214Y-23026400D01*
X94564903Y-23074475D01*
G37*
G36*
X63951000Y-25528400D02*
G01*
X61449000Y-25528400D01*
X61449000Y-23026400D01*
X63951000Y-23026400D01*
X63951000Y-25528400D01*
G37*
G36*
X59564903Y-23074475D02*
G01*
X59566958Y-23075326D01*
X59792571Y-23168778D01*
X59997466Y-23305685D01*
X60171715Y-23479934D01*
X60308622Y-23684829D01*
X60402925Y-23912497D01*
X60451000Y-24154187D01*
X60451000Y-24400613D01*
X60402925Y-24642303D01*
X60308622Y-24869971D01*
X60171715Y-25074866D01*
X59997466Y-25249115D01*
X59792571Y-25386022D01*
X59792570Y-25386023D01*
X59792569Y-25386023D01*
X59564903Y-25480325D01*
X59323214Y-25528400D01*
X59076786Y-25528400D01*
X58835097Y-25480325D01*
X58607431Y-25386023D01*
X58607430Y-25386023D01*
X58607429Y-25386022D01*
X58402534Y-25249115D01*
X58228285Y-25074866D01*
X58091378Y-24869971D01*
X57997075Y-24642303D01*
X57949000Y-24400613D01*
X57949000Y-24154187D01*
X57997075Y-23912497D01*
X58091378Y-23684829D01*
X58228285Y-23479934D01*
X58402534Y-23305685D01*
X58607429Y-23168778D01*
X58833043Y-23075326D01*
X58835097Y-23074475D01*
X59076786Y-23026400D01*
X59323214Y-23026400D01*
X59564903Y-23074475D01*
G37*
G36*
X56064903Y-23074475D02*
G01*
X56066958Y-23075326D01*
X56292571Y-23168778D01*
X56497466Y-23305685D01*
X56671715Y-23479934D01*
X56808622Y-23684829D01*
X56902925Y-23912497D01*
X56951000Y-24154187D01*
X56951000Y-24400613D01*
X56902925Y-24642303D01*
X56808622Y-24869971D01*
X56671715Y-25074866D01*
X56497466Y-25249115D01*
X56292571Y-25386022D01*
X56292570Y-25386023D01*
X56292569Y-25386023D01*
X56064903Y-25480325D01*
X55823214Y-25528400D01*
X55576786Y-25528400D01*
X55335097Y-25480325D01*
X55107431Y-25386023D01*
X55107430Y-25386023D01*
X55107429Y-25386022D01*
X54902534Y-25249115D01*
X54728285Y-25074866D01*
X54591378Y-24869971D01*
X54497075Y-24642303D01*
X54449000Y-24400613D01*
X54449000Y-24154187D01*
X54497075Y-23912497D01*
X54591378Y-23684829D01*
X54728285Y-23479934D01*
X54902534Y-23305685D01*
X55107429Y-23168778D01*
X55333043Y-23075326D01*
X55335097Y-23074475D01*
X55576786Y-23026400D01*
X55823214Y-23026400D01*
X56064903Y-23074475D01*
G37*
G36*
X52564903Y-23074475D02*
G01*
X52566958Y-23075326D01*
X52792571Y-23168778D01*
X52997466Y-23305685D01*
X53171715Y-23479934D01*
X53308622Y-23684829D01*
X53402925Y-23912497D01*
X53451000Y-24154187D01*
X53451000Y-24400613D01*
X53402925Y-24642303D01*
X53308622Y-24869971D01*
X53171715Y-25074866D01*
X52997466Y-25249115D01*
X52792571Y-25386022D01*
X52792570Y-25386023D01*
X52792569Y-25386023D01*
X52564903Y-25480325D01*
X52323214Y-25528400D01*
X52076786Y-25528400D01*
X51835097Y-25480325D01*
X51607431Y-25386023D01*
X51607430Y-25386023D01*
X51607429Y-25386022D01*
X51402534Y-25249115D01*
X51228285Y-25074866D01*
X51091378Y-24869971D01*
X50997075Y-24642303D01*
X50949000Y-24400613D01*
X50949000Y-24154187D01*
X50997075Y-23912497D01*
X51091378Y-23684829D01*
X51228285Y-23479934D01*
X51402534Y-23305685D01*
X51607429Y-23168778D01*
X51833043Y-23075326D01*
X51835097Y-23074475D01*
X52076786Y-23026400D01*
X52323214Y-23026400D01*
X52564903Y-23074475D01*
G37*
G36*
X49064903Y-23074475D02*
G01*
X49066958Y-23075326D01*
X49292571Y-23168778D01*
X49497466Y-23305685D01*
X49671715Y-23479934D01*
X49808622Y-23684829D01*
X49902925Y-23912497D01*
X49951000Y-24154187D01*
X49951000Y-24400613D01*
X49902925Y-24642303D01*
X49808622Y-24869971D01*
X49671715Y-25074866D01*
X49497466Y-25249115D01*
X49292571Y-25386022D01*
X49292570Y-25386023D01*
X49292569Y-25386023D01*
X49064903Y-25480325D01*
X48823214Y-25528400D01*
X48576786Y-25528400D01*
X48335097Y-25480325D01*
X48107431Y-25386023D01*
X48107430Y-25386023D01*
X48107429Y-25386022D01*
X47902534Y-25249115D01*
X47728285Y-25074866D01*
X47591378Y-24869971D01*
X47497075Y-24642303D01*
X47449000Y-24400613D01*
X47449000Y-24154187D01*
X47497075Y-23912497D01*
X47591378Y-23684829D01*
X47728285Y-23479934D01*
X47902534Y-23305685D01*
X48107429Y-23168778D01*
X48333043Y-23075326D01*
X48335097Y-23074475D01*
X48576786Y-23026400D01*
X48823214Y-23026400D01*
X49064903Y-23074475D01*
G37*
G36*
X45564903Y-23074475D02*
G01*
X45566958Y-23075326D01*
X45792571Y-23168778D01*
X45997466Y-23305685D01*
X46171715Y-23479934D01*
X46308622Y-23684829D01*
X46402925Y-23912497D01*
X46451000Y-24154187D01*
X46451000Y-24400613D01*
X46402925Y-24642303D01*
X46308622Y-24869971D01*
X46171715Y-25074866D01*
X45997466Y-25249115D01*
X45792571Y-25386022D01*
X45792570Y-25386023D01*
X45792569Y-25386023D01*
X45564903Y-25480325D01*
X45323214Y-25528400D01*
X45076786Y-25528400D01*
X44835097Y-25480325D01*
X44607431Y-25386023D01*
X44607430Y-25386023D01*
X44607429Y-25386022D01*
X44402534Y-25249115D01*
X44228285Y-25074866D01*
X44091378Y-24869971D01*
X43997075Y-24642303D01*
X43949000Y-24400613D01*
X43949000Y-24154187D01*
X43997075Y-23912497D01*
X44091378Y-23684829D01*
X44228285Y-23479934D01*
X44402534Y-23305685D01*
X44607429Y-23168778D01*
X44833043Y-23075326D01*
X44835097Y-23074475D01*
X45076786Y-23026400D01*
X45323214Y-23026400D01*
X45564903Y-23074475D01*
G37*
G36*
X42064903Y-23074475D02*
G01*
X42066958Y-23075326D01*
X42292571Y-23168778D01*
X42497466Y-23305685D01*
X42671715Y-23479934D01*
X42808622Y-23684829D01*
X42902925Y-23912497D01*
X42951000Y-24154187D01*
X42951000Y-24400613D01*
X42902925Y-24642303D01*
X42808622Y-24869971D01*
X42671715Y-25074866D01*
X42497466Y-25249115D01*
X42292571Y-25386022D01*
X42292570Y-25386023D01*
X42292569Y-25386023D01*
X42064903Y-25480325D01*
X41823214Y-25528400D01*
X41576786Y-25528400D01*
X41335097Y-25480325D01*
X41107431Y-25386023D01*
X41107430Y-25386023D01*
X41107429Y-25386022D01*
X40902534Y-25249115D01*
X40728285Y-25074866D01*
X40591378Y-24869971D01*
X40497075Y-24642303D01*
X40449000Y-24400613D01*
X40449000Y-24154187D01*
X40497075Y-23912497D01*
X40591378Y-23684829D01*
X40728285Y-23479934D01*
X40902534Y-23305685D01*
X41107429Y-23168778D01*
X41333043Y-23075326D01*
X41335097Y-23074475D01*
X41576786Y-23026400D01*
X41823214Y-23026400D01*
X42064903Y-23074475D01*
G37*
G36*
X38564903Y-23074475D02*
G01*
X38566958Y-23075326D01*
X38792571Y-23168778D01*
X38997466Y-23305685D01*
X39171715Y-23479934D01*
X39308622Y-23684829D01*
X39402925Y-23912497D01*
X39451000Y-24154187D01*
X39451000Y-24400613D01*
X39402925Y-24642303D01*
X39308622Y-24869971D01*
X39171715Y-25074866D01*
X38997466Y-25249115D01*
X38792571Y-25386022D01*
X38792570Y-25386023D01*
X38792569Y-25386023D01*
X38564903Y-25480325D01*
X38323214Y-25528400D01*
X38076786Y-25528400D01*
X37835097Y-25480325D01*
X37607431Y-25386023D01*
X37607430Y-25386023D01*
X37607429Y-25386022D01*
X37402534Y-25249115D01*
X37228285Y-25074866D01*
X37091378Y-24869971D01*
X36997075Y-24642303D01*
X36949000Y-24400613D01*
X36949000Y-24154187D01*
X36997075Y-23912497D01*
X37091378Y-23684829D01*
X37228285Y-23479934D01*
X37402534Y-23305685D01*
X37607429Y-23168778D01*
X37833043Y-23075326D01*
X37835097Y-23074475D01*
X38076786Y-23026400D01*
X38323214Y-23026400D01*
X38564903Y-23074475D01*
G37*
G36*
X35064903Y-23074475D02*
G01*
X35066958Y-23075326D01*
X35292571Y-23168778D01*
X35497466Y-23305685D01*
X35671715Y-23479934D01*
X35808622Y-23684829D01*
X35902925Y-23912497D01*
X35951000Y-24154187D01*
X35951000Y-24400613D01*
X35902925Y-24642303D01*
X35808622Y-24869971D01*
X35671715Y-25074866D01*
X35497466Y-25249115D01*
X35292571Y-25386022D01*
X35292570Y-25386023D01*
X35292569Y-25386023D01*
X35064903Y-25480325D01*
X34823214Y-25528400D01*
X34576786Y-25528400D01*
X34335097Y-25480325D01*
X34107431Y-25386023D01*
X34107430Y-25386023D01*
X34107429Y-25386022D01*
X33902534Y-25249115D01*
X33728285Y-25074866D01*
X33591378Y-24869971D01*
X33497075Y-24642303D01*
X33449000Y-24400613D01*
X33449000Y-24154187D01*
X33497075Y-23912497D01*
X33591378Y-23684829D01*
X33728285Y-23479934D01*
X33902534Y-23305685D01*
X34107429Y-23168778D01*
X34333043Y-23075326D01*
X34335097Y-23074475D01*
X34576786Y-23026400D01*
X34823214Y-23026400D01*
X35064903Y-23074475D01*
G37*
G36*
X66564903Y-23074475D02*
G01*
X66566958Y-23075326D01*
X66792571Y-23168778D01*
X66997466Y-23305685D01*
X67171715Y-23479934D01*
X67308622Y-23684829D01*
X67402925Y-23912497D01*
X67451000Y-24154187D01*
X67451000Y-24400613D01*
X67402925Y-24642303D01*
X67308622Y-24869971D01*
X67171715Y-25074866D01*
X66997466Y-25249115D01*
X66792571Y-25386022D01*
X66792570Y-25386023D01*
X66792569Y-25386023D01*
X66564903Y-25480325D01*
X66323214Y-25528400D01*
X66076786Y-25528400D01*
X65835097Y-25480325D01*
X65607431Y-25386023D01*
X65607430Y-25386023D01*
X65607429Y-25386022D01*
X65402534Y-25249115D01*
X65228285Y-25074866D01*
X65091378Y-24869971D01*
X64997075Y-24642303D01*
X64949000Y-24400613D01*
X64949000Y-24154187D01*
X64997075Y-23912497D01*
X65091378Y-23684829D01*
X65228285Y-23479934D01*
X65402534Y-23305685D01*
X65607429Y-23168778D01*
X65833043Y-23075326D01*
X65835097Y-23074475D01*
X66076786Y-23026400D01*
X66323214Y-23026400D01*
X66564903Y-23074475D01*
G37*
G36*
X24112585Y-22288802D02*
G01*
X24262410Y-22318604D01*
X24544674Y-22435521D01*
X24798705Y-22605259D01*
X25014741Y-22821295D01*
X25184479Y-23075326D01*
X25301396Y-23357590D01*
X25361000Y-23657240D01*
X25361000Y-23962760D01*
X25301396Y-24262410D01*
X25184479Y-24544674D01*
X25014741Y-24798705D01*
X24798705Y-25014741D01*
X24544674Y-25184479D01*
X24262410Y-25301396D01*
X24112585Y-25331198D01*
X23962761Y-25361000D01*
X23657239Y-25361000D01*
X23507415Y-25331198D01*
X23357590Y-25301396D01*
X23075326Y-25184479D01*
X22821295Y-25014741D01*
X22605259Y-24798705D01*
X22435521Y-24544674D01*
X22318604Y-24262410D01*
X22259000Y-23962760D01*
X22259000Y-23657240D01*
X22318604Y-23357590D01*
X22435521Y-23075326D01*
X22605259Y-22821295D01*
X22821295Y-22605259D01*
X23075326Y-22435521D01*
X23357590Y-22318604D01*
X23507415Y-22288802D01*
X23657239Y-22259000D01*
X23962761Y-22259000D01*
X24112585Y-22288802D01*
G37*
G36*
X105392585Y-22288802D02*
G01*
X105542410Y-22318604D01*
X105824674Y-22435521D01*
X106078705Y-22605259D01*
X106294741Y-22821295D01*
X106464479Y-23075326D01*
X106581396Y-23357590D01*
X106641000Y-23657240D01*
X106641000Y-23962760D01*
X106581396Y-24262410D01*
X106464479Y-24544674D01*
X106294741Y-24798705D01*
X106078705Y-25014741D01*
X105824674Y-25184479D01*
X105542410Y-25301396D01*
X105392585Y-25331198D01*
X105242761Y-25361000D01*
X104937239Y-25361000D01*
X104787415Y-25331198D01*
X104637590Y-25301396D01*
X104355326Y-25184479D01*
X104101295Y-25014741D01*
X103885259Y-24798705D01*
X103715521Y-24544674D01*
X103598604Y-24262410D01*
X103539000Y-23962760D01*
X103539000Y-23657240D01*
X103598604Y-23357590D01*
X103715521Y-23075326D01*
X103885259Y-22821295D01*
X104101295Y-22605259D01*
X104355326Y-22435521D01*
X104637590Y-22318604D01*
X104787415Y-22288802D01*
X104937239Y-22259000D01*
X105242761Y-22259000D01*
X105392585Y-22288802D01*
G37*
M02*
