G04 #@! TF.GenerationSoftware,KiCad,Pcbnew,5.1.5-52549c5~86~ubuntu18.04.1*
G04 #@! TF.CreationDate,2020-09-15T13:17:05-05:00*
G04 #@! TF.ProjectId,C05,4330352e-6b69-4636-9164-5f7063625858,rev?*
G04 #@! TF.SameCoordinates,Original*
G04 #@! TF.FileFunction,Legend,Top*
G04 #@! TF.FilePolarity,Positive*
%FSLAX46Y46*%
G04 Gerber Fmt 4.6, Leading zero omitted, Abs format (unit mm)*
G04 Created by KiCad (PCBNEW 5.1.5-52549c5~86~ubuntu18.04.1) date 2020-09-15 13:17:05*
%MOMM*%
%LPD*%
G04 APERTURE LIST*
%ADD10C,0.150000*%
%ADD11C,0.010000*%
%ADD12C,0.120000*%
G04 APERTURE END LIST*
D10*
X27354257Y-28872466D02*
X27306638Y-28824847D01*
X27259019Y-28681990D01*
X27259019Y-28586752D01*
X27306638Y-28443895D01*
X27401876Y-28348657D01*
X27497114Y-28301038D01*
X27687590Y-28253419D01*
X27830447Y-28253419D01*
X28020923Y-28301038D01*
X28116161Y-28348657D01*
X28211400Y-28443895D01*
X28259019Y-28586752D01*
X28259019Y-28681990D01*
X28211400Y-28824847D01*
X28163780Y-28872466D01*
X28259019Y-29491514D02*
X28259019Y-29586752D01*
X28211400Y-29681990D01*
X28163780Y-29729609D01*
X28068542Y-29777228D01*
X27878066Y-29824847D01*
X27639971Y-29824847D01*
X27449495Y-29777228D01*
X27354257Y-29729609D01*
X27306638Y-29681990D01*
X27259019Y-29586752D01*
X27259019Y-29491514D01*
X27306638Y-29396276D01*
X27354257Y-29348657D01*
X27449495Y-29301038D01*
X27639971Y-29253419D01*
X27878066Y-29253419D01*
X28068542Y-29301038D01*
X28163780Y-29348657D01*
X28211400Y-29396276D01*
X28259019Y-29491514D01*
X28259019Y-30729609D02*
X28259019Y-30253419D01*
X27782828Y-30205800D01*
X27830447Y-30253419D01*
X27878066Y-30348657D01*
X27878066Y-30586752D01*
X27830447Y-30681990D01*
X27782828Y-30729609D01*
X27687590Y-30777228D01*
X27449495Y-30777228D01*
X27354257Y-30729609D01*
X27306638Y-30681990D01*
X27259019Y-30586752D01*
X27259019Y-30348657D01*
X27306638Y-30253419D01*
X27354257Y-30205800D01*
X27163780Y-30967704D02*
X27163780Y-31729609D01*
X27782828Y-32301038D02*
X27735209Y-32443895D01*
X27687590Y-32491514D01*
X27592352Y-32539133D01*
X27449495Y-32539133D01*
X27354257Y-32491514D01*
X27306638Y-32443895D01*
X27259019Y-32348657D01*
X27259019Y-31967704D01*
X28259019Y-31967704D01*
X28259019Y-32301038D01*
X28211400Y-32396276D01*
X28163780Y-32443895D01*
X28068542Y-32491514D01*
X27973304Y-32491514D01*
X27878066Y-32443895D01*
X27830447Y-32396276D01*
X27782828Y-32301038D01*
X27782828Y-31967704D01*
X27259019Y-33539133D02*
X27735209Y-33205800D01*
X27259019Y-32967704D02*
X28259019Y-32967704D01*
X28259019Y-33348657D01*
X28211400Y-33443895D01*
X28163780Y-33491514D01*
X28068542Y-33539133D01*
X27925685Y-33539133D01*
X27830447Y-33491514D01*
X27782828Y-33443895D01*
X27735209Y-33348657D01*
X27735209Y-32967704D01*
X27782828Y-33967704D02*
X27782828Y-34301038D01*
X27259019Y-34443895D02*
X27259019Y-33967704D01*
X28259019Y-33967704D01*
X28259019Y-34443895D01*
X27544733Y-34824847D02*
X27544733Y-35301038D01*
X27259019Y-34729609D02*
X28259019Y-35062942D01*
X27259019Y-35396276D01*
X27259019Y-35729609D02*
X28259019Y-35729609D01*
X27259019Y-36301038D02*
X27830447Y-35872466D01*
X28259019Y-36301038D02*
X27687590Y-35729609D01*
X28259019Y-36920085D02*
X28259019Y-37110561D01*
X28211400Y-37205800D01*
X28116161Y-37301038D01*
X27925685Y-37348657D01*
X27592352Y-37348657D01*
X27401876Y-37301038D01*
X27306638Y-37205800D01*
X27259019Y-37110561D01*
X27259019Y-36920085D01*
X27306638Y-36824847D01*
X27401876Y-36729609D01*
X27592352Y-36681990D01*
X27925685Y-36681990D01*
X28116161Y-36729609D01*
X28211400Y-36824847D01*
X28259019Y-36920085D01*
X28259019Y-37777228D02*
X27449495Y-37777228D01*
X27354257Y-37824847D01*
X27306638Y-37872466D01*
X27259019Y-37967704D01*
X27259019Y-38158180D01*
X27306638Y-38253419D01*
X27354257Y-38301038D01*
X27449495Y-38348657D01*
X28259019Y-38348657D01*
X28259019Y-38681990D02*
X28259019Y-39253419D01*
X27259019Y-38967704D02*
X28259019Y-38967704D01*
D11*
G36*
X35703469Y-34388614D02*
G01*
X35258845Y-34472435D01*
X35131347Y-34781720D01*
X35003849Y-35091006D01*
X35256154Y-35462046D01*
X35326404Y-35565957D01*
X35389128Y-35659887D01*
X35441462Y-35739452D01*
X35480543Y-35800270D01*
X35503507Y-35837957D01*
X35508458Y-35848221D01*
X35495724Y-35866710D01*
X35460518Y-35906220D01*
X35407338Y-35962322D01*
X35340682Y-36030587D01*
X35265046Y-36106586D01*
X35184928Y-36185892D01*
X35104826Y-36264075D01*
X35029236Y-36336707D01*
X34962655Y-36399359D01*
X34909582Y-36447603D01*
X34874513Y-36477010D01*
X34862777Y-36484041D01*
X34841140Y-36473923D01*
X34793738Y-36445559D01*
X34725207Y-36401929D01*
X34640185Y-36346018D01*
X34543307Y-36280806D01*
X34488050Y-36243019D01*
X34387152Y-36174143D01*
X34296101Y-36112940D01*
X34219430Y-36062378D01*
X34161672Y-36025428D01*
X34127357Y-36005058D01*
X34120146Y-36001997D01*
X34099652Y-36008936D01*
X34051887Y-36027851D01*
X33983568Y-36055887D01*
X33901411Y-36090191D01*
X33812130Y-36127909D01*
X33722442Y-36166187D01*
X33639062Y-36202170D01*
X33568706Y-36233006D01*
X33518090Y-36255839D01*
X33493929Y-36267817D01*
X33492978Y-36268524D01*
X33488364Y-36287331D01*
X33478072Y-36337418D01*
X33463113Y-36413593D01*
X33444499Y-36510665D01*
X33423241Y-36623443D01*
X33410982Y-36689242D01*
X33388038Y-36809750D01*
X33366205Y-36918597D01*
X33346678Y-37010276D01*
X33330652Y-37079281D01*
X33319321Y-37120104D01*
X33315726Y-37128311D01*
X33291394Y-37136348D01*
X33236441Y-37142833D01*
X33157292Y-37147770D01*
X33060374Y-37151164D01*
X32952113Y-37153018D01*
X32838935Y-37153338D01*
X32727265Y-37152127D01*
X32623532Y-37149390D01*
X32534159Y-37145131D01*
X32465574Y-37139355D01*
X32424203Y-37132067D01*
X32415590Y-37127695D01*
X32405267Y-37101564D01*
X32390508Y-37046193D01*
X32373048Y-36968907D01*
X32354620Y-36877030D01*
X32348659Y-36844958D01*
X32320334Y-36690324D01*
X32297524Y-36568175D01*
X32279320Y-36474473D01*
X32264817Y-36405184D01*
X32253108Y-36356271D01*
X32243285Y-36323697D01*
X32234444Y-36303428D01*
X32225676Y-36291426D01*
X32223943Y-36289747D01*
X32196029Y-36272984D01*
X32141705Y-36247414D01*
X32067623Y-36215588D01*
X31980435Y-36180060D01*
X31886792Y-36143383D01*
X31793348Y-36108111D01*
X31706753Y-36076796D01*
X31633660Y-36051993D01*
X31580722Y-36036254D01*
X31554589Y-36032132D01*
X31553674Y-36032476D01*
X31532314Y-36046441D01*
X31485316Y-36078122D01*
X31417573Y-36124191D01*
X31333977Y-36181318D01*
X31239418Y-36246173D01*
X31212546Y-36264643D01*
X31115125Y-36330499D01*
X31026237Y-36388450D01*
X30950988Y-36435338D01*
X30894480Y-36468007D01*
X30861819Y-36483300D01*
X30857807Y-36484041D01*
X30836716Y-36471192D01*
X30794936Y-36435688D01*
X30736955Y-36382093D01*
X30667265Y-36314971D01*
X30590355Y-36238887D01*
X30510717Y-36158404D01*
X30432839Y-36078087D01*
X30361214Y-36002499D01*
X30300330Y-35936205D01*
X30254679Y-35883769D01*
X30228750Y-35849755D01*
X30224517Y-35840345D01*
X30234488Y-35818443D01*
X30261380Y-35773600D01*
X30300664Y-35713121D01*
X30332283Y-35666589D01*
X30390302Y-35582275D01*
X30458616Y-35482426D01*
X30526821Y-35382273D01*
X30563325Y-35328427D01*
X30686600Y-35146171D01*
X30603880Y-34993181D01*
X30567641Y-34923482D01*
X30539474Y-34864214D01*
X30523409Y-34824111D01*
X30521174Y-34813903D01*
X30537678Y-34801629D01*
X30584318Y-34777413D01*
X30656791Y-34743063D01*
X30750794Y-34700388D01*
X30862026Y-34651194D01*
X30986185Y-34597290D01*
X31118968Y-34540484D01*
X31256073Y-34482582D01*
X31393198Y-34425393D01*
X31526042Y-34370724D01*
X31650302Y-34320384D01*
X31761675Y-34276180D01*
X31855861Y-34239919D01*
X31928556Y-34213409D01*
X31975459Y-34198458D01*
X31991567Y-34196054D01*
X32012114Y-34215111D01*
X32045467Y-34256836D01*
X32084698Y-34312506D01*
X32087801Y-34317178D01*
X32202977Y-34461064D01*
X32337347Y-34577083D01*
X32486616Y-34664230D01*
X32646487Y-34721499D01*
X32812663Y-34747886D01*
X32980848Y-34742385D01*
X33146745Y-34703990D01*
X33306058Y-34631695D01*
X33340913Y-34610426D01*
X33481663Y-34499796D01*
X33594686Y-34369102D01*
X33679397Y-34222864D01*
X33735206Y-34065608D01*
X33761526Y-33901857D01*
X33757770Y-33736133D01*
X33723350Y-33572962D01*
X33657677Y-33416865D01*
X33560165Y-33272367D01*
X33520587Y-33227669D01*
X33396697Y-33113912D01*
X33266276Y-33031018D01*
X33120085Y-32974156D01*
X32975312Y-32942487D01*
X32812540Y-32934669D01*
X32648960Y-32960738D01*
X32490102Y-33018045D01*
X32341494Y-33103944D01*
X32208665Y-33215786D01*
X32097144Y-33350923D01*
X32085389Y-33368683D01*
X32046892Y-33424950D01*
X32013537Y-33467723D01*
X31992240Y-33488172D01*
X31991567Y-33488469D01*
X31968529Y-33484079D01*
X31916243Y-33466676D01*
X31839010Y-33438068D01*
X31741132Y-33400065D01*
X31626909Y-33354474D01*
X31500642Y-33303103D01*
X31366633Y-33247762D01*
X31229182Y-33190258D01*
X31092592Y-33132401D01*
X30961163Y-33075998D01*
X30839195Y-33022858D01*
X30730991Y-32974790D01*
X30640851Y-32933601D01*
X30573077Y-32901101D01*
X30531970Y-32879097D01*
X30521174Y-32870236D01*
X30529581Y-32843160D01*
X30552128Y-32792497D01*
X30584787Y-32726983D01*
X30603880Y-32690959D01*
X30686600Y-32537968D01*
X30563325Y-32355712D01*
X30500172Y-32262675D01*
X30430673Y-32160815D01*
X30365235Y-32065362D01*
X30332283Y-32017550D01*
X30287127Y-31950305D01*
X30251343Y-31893364D01*
X30229462Y-31854154D01*
X30224837Y-31841419D01*
X30237315Y-31822883D01*
X30272148Y-31781859D01*
X30325722Y-31722325D01*
X30394417Y-31648258D01*
X30474619Y-31563635D01*
X30526114Y-31510115D01*
X30618114Y-31416481D01*
X30700401Y-31335559D01*
X30769455Y-31270623D01*
X30821756Y-31224942D01*
X30853784Y-31201789D01*
X30860284Y-31199568D01*
X30885006Y-31209876D01*
X30934995Y-31238361D01*
X31005188Y-31281863D01*
X31090525Y-31337223D01*
X31185944Y-31401280D01*
X31212546Y-31419497D01*
X31309233Y-31485873D01*
X31396283Y-31545422D01*
X31468805Y-31594816D01*
X31521907Y-31630725D01*
X31550697Y-31649819D01*
X31553674Y-31651664D01*
X31576618Y-31648905D01*
X31627064Y-31634262D01*
X31698359Y-31610287D01*
X31783853Y-31579534D01*
X31876893Y-31544556D01*
X31970826Y-31507907D01*
X32059001Y-31472139D01*
X32134766Y-31439806D01*
X32191469Y-31413462D01*
X32222457Y-31395658D01*
X32223943Y-31394393D01*
X32232799Y-31383506D01*
X32241557Y-31365118D01*
X32251123Y-31335194D01*
X32262404Y-31289697D01*
X32276307Y-31224591D01*
X32293737Y-31135839D01*
X32315602Y-31019407D01*
X32342809Y-30871258D01*
X32348659Y-30839182D01*
X32367026Y-30744114D01*
X32384995Y-30661235D01*
X32400831Y-30597870D01*
X32412800Y-30561342D01*
X32415590Y-30556444D01*
X32440328Y-30548373D01*
X32495610Y-30541813D01*
X32575011Y-30536767D01*
X32672104Y-30533241D01*
X32780462Y-30531239D01*
X32893660Y-30530764D01*
X33005272Y-30531823D01*
X33108871Y-30534418D01*
X33198032Y-30538554D01*
X33266328Y-30544237D01*
X33307334Y-30551469D01*
X33315726Y-30555829D01*
X33324192Y-30580102D01*
X33337965Y-30635374D01*
X33355850Y-30716138D01*
X33376652Y-30816888D01*
X33399177Y-30932117D01*
X33410982Y-30994898D01*
X33433249Y-31114013D01*
X33453421Y-31220235D01*
X33470485Y-31308373D01*
X33483431Y-31373234D01*
X33491245Y-31409626D01*
X33492978Y-31415616D01*
X33512510Y-31425739D01*
X33559557Y-31447138D01*
X33627397Y-31476961D01*
X33709309Y-31512355D01*
X33798572Y-31550468D01*
X33888465Y-31588447D01*
X33972265Y-31623440D01*
X34043253Y-31652594D01*
X34094706Y-31673057D01*
X34119903Y-31681977D01*
X34121004Y-31682143D01*
X34140881Y-31672031D01*
X34186623Y-31643683D01*
X34253683Y-31600077D01*
X34337516Y-31544194D01*
X34433574Y-31479013D01*
X34488750Y-31441121D01*
X34589919Y-31372075D01*
X34681770Y-31310750D01*
X34759656Y-31260137D01*
X34818931Y-31223229D01*
X34854949Y-31203018D01*
X34863023Y-31200099D01*
X34881816Y-31212647D01*
X34921943Y-31247337D01*
X34978907Y-31299737D01*
X35048215Y-31365416D01*
X35125369Y-31439944D01*
X35205875Y-31518887D01*
X35285237Y-31597817D01*
X35358960Y-31672300D01*
X35422548Y-31737906D01*
X35471506Y-31790204D01*
X35501339Y-31824761D01*
X35508458Y-31836322D01*
X35498447Y-31855146D01*
X35470322Y-31900169D01*
X35426946Y-31967013D01*
X35371182Y-32051301D01*
X35305894Y-32148656D01*
X35256154Y-32222093D01*
X35003849Y-32593133D01*
X35258845Y-33211705D01*
X35703469Y-33295525D01*
X36148093Y-33379346D01*
X36148093Y-34304794D01*
X35703469Y-34388614D01*
G37*
X35703469Y-34388614D02*
X35258845Y-34472435D01*
X35131347Y-34781720D01*
X35003849Y-35091006D01*
X35256154Y-35462046D01*
X35326404Y-35565957D01*
X35389128Y-35659887D01*
X35441462Y-35739452D01*
X35480543Y-35800270D01*
X35503507Y-35837957D01*
X35508458Y-35848221D01*
X35495724Y-35866710D01*
X35460518Y-35906220D01*
X35407338Y-35962322D01*
X35340682Y-36030587D01*
X35265046Y-36106586D01*
X35184928Y-36185892D01*
X35104826Y-36264075D01*
X35029236Y-36336707D01*
X34962655Y-36399359D01*
X34909582Y-36447603D01*
X34874513Y-36477010D01*
X34862777Y-36484041D01*
X34841140Y-36473923D01*
X34793738Y-36445559D01*
X34725207Y-36401929D01*
X34640185Y-36346018D01*
X34543307Y-36280806D01*
X34488050Y-36243019D01*
X34387152Y-36174143D01*
X34296101Y-36112940D01*
X34219430Y-36062378D01*
X34161672Y-36025428D01*
X34127357Y-36005058D01*
X34120146Y-36001997D01*
X34099652Y-36008936D01*
X34051887Y-36027851D01*
X33983568Y-36055887D01*
X33901411Y-36090191D01*
X33812130Y-36127909D01*
X33722442Y-36166187D01*
X33639062Y-36202170D01*
X33568706Y-36233006D01*
X33518090Y-36255839D01*
X33493929Y-36267817D01*
X33492978Y-36268524D01*
X33488364Y-36287331D01*
X33478072Y-36337418D01*
X33463113Y-36413593D01*
X33444499Y-36510665D01*
X33423241Y-36623443D01*
X33410982Y-36689242D01*
X33388038Y-36809750D01*
X33366205Y-36918597D01*
X33346678Y-37010276D01*
X33330652Y-37079281D01*
X33319321Y-37120104D01*
X33315726Y-37128311D01*
X33291394Y-37136348D01*
X33236441Y-37142833D01*
X33157292Y-37147770D01*
X33060374Y-37151164D01*
X32952113Y-37153018D01*
X32838935Y-37153338D01*
X32727265Y-37152127D01*
X32623532Y-37149390D01*
X32534159Y-37145131D01*
X32465574Y-37139355D01*
X32424203Y-37132067D01*
X32415590Y-37127695D01*
X32405267Y-37101564D01*
X32390508Y-37046193D01*
X32373048Y-36968907D01*
X32354620Y-36877030D01*
X32348659Y-36844958D01*
X32320334Y-36690324D01*
X32297524Y-36568175D01*
X32279320Y-36474473D01*
X32264817Y-36405184D01*
X32253108Y-36356271D01*
X32243285Y-36323697D01*
X32234444Y-36303428D01*
X32225676Y-36291426D01*
X32223943Y-36289747D01*
X32196029Y-36272984D01*
X32141705Y-36247414D01*
X32067623Y-36215588D01*
X31980435Y-36180060D01*
X31886792Y-36143383D01*
X31793348Y-36108111D01*
X31706753Y-36076796D01*
X31633660Y-36051993D01*
X31580722Y-36036254D01*
X31554589Y-36032132D01*
X31553674Y-36032476D01*
X31532314Y-36046441D01*
X31485316Y-36078122D01*
X31417573Y-36124191D01*
X31333977Y-36181318D01*
X31239418Y-36246173D01*
X31212546Y-36264643D01*
X31115125Y-36330499D01*
X31026237Y-36388450D01*
X30950988Y-36435338D01*
X30894480Y-36468007D01*
X30861819Y-36483300D01*
X30857807Y-36484041D01*
X30836716Y-36471192D01*
X30794936Y-36435688D01*
X30736955Y-36382093D01*
X30667265Y-36314971D01*
X30590355Y-36238887D01*
X30510717Y-36158404D01*
X30432839Y-36078087D01*
X30361214Y-36002499D01*
X30300330Y-35936205D01*
X30254679Y-35883769D01*
X30228750Y-35849755D01*
X30224517Y-35840345D01*
X30234488Y-35818443D01*
X30261380Y-35773600D01*
X30300664Y-35713121D01*
X30332283Y-35666589D01*
X30390302Y-35582275D01*
X30458616Y-35482426D01*
X30526821Y-35382273D01*
X30563325Y-35328427D01*
X30686600Y-35146171D01*
X30603880Y-34993181D01*
X30567641Y-34923482D01*
X30539474Y-34864214D01*
X30523409Y-34824111D01*
X30521174Y-34813903D01*
X30537678Y-34801629D01*
X30584318Y-34777413D01*
X30656791Y-34743063D01*
X30750794Y-34700388D01*
X30862026Y-34651194D01*
X30986185Y-34597290D01*
X31118968Y-34540484D01*
X31256073Y-34482582D01*
X31393198Y-34425393D01*
X31526042Y-34370724D01*
X31650302Y-34320384D01*
X31761675Y-34276180D01*
X31855861Y-34239919D01*
X31928556Y-34213409D01*
X31975459Y-34198458D01*
X31991567Y-34196054D01*
X32012114Y-34215111D01*
X32045467Y-34256836D01*
X32084698Y-34312506D01*
X32087801Y-34317178D01*
X32202977Y-34461064D01*
X32337347Y-34577083D01*
X32486616Y-34664230D01*
X32646487Y-34721499D01*
X32812663Y-34747886D01*
X32980848Y-34742385D01*
X33146745Y-34703990D01*
X33306058Y-34631695D01*
X33340913Y-34610426D01*
X33481663Y-34499796D01*
X33594686Y-34369102D01*
X33679397Y-34222864D01*
X33735206Y-34065608D01*
X33761526Y-33901857D01*
X33757770Y-33736133D01*
X33723350Y-33572962D01*
X33657677Y-33416865D01*
X33560165Y-33272367D01*
X33520587Y-33227669D01*
X33396697Y-33113912D01*
X33266276Y-33031018D01*
X33120085Y-32974156D01*
X32975312Y-32942487D01*
X32812540Y-32934669D01*
X32648960Y-32960738D01*
X32490102Y-33018045D01*
X32341494Y-33103944D01*
X32208665Y-33215786D01*
X32097144Y-33350923D01*
X32085389Y-33368683D01*
X32046892Y-33424950D01*
X32013537Y-33467723D01*
X31992240Y-33488172D01*
X31991567Y-33488469D01*
X31968529Y-33484079D01*
X31916243Y-33466676D01*
X31839010Y-33438068D01*
X31741132Y-33400065D01*
X31626909Y-33354474D01*
X31500642Y-33303103D01*
X31366633Y-33247762D01*
X31229182Y-33190258D01*
X31092592Y-33132401D01*
X30961163Y-33075998D01*
X30839195Y-33022858D01*
X30730991Y-32974790D01*
X30640851Y-32933601D01*
X30573077Y-32901101D01*
X30531970Y-32879097D01*
X30521174Y-32870236D01*
X30529581Y-32843160D01*
X30552128Y-32792497D01*
X30584787Y-32726983D01*
X30603880Y-32690959D01*
X30686600Y-32537968D01*
X30563325Y-32355712D01*
X30500172Y-32262675D01*
X30430673Y-32160815D01*
X30365235Y-32065362D01*
X30332283Y-32017550D01*
X30287127Y-31950305D01*
X30251343Y-31893364D01*
X30229462Y-31854154D01*
X30224837Y-31841419D01*
X30237315Y-31822883D01*
X30272148Y-31781859D01*
X30325722Y-31722325D01*
X30394417Y-31648258D01*
X30474619Y-31563635D01*
X30526114Y-31510115D01*
X30618114Y-31416481D01*
X30700401Y-31335559D01*
X30769455Y-31270623D01*
X30821756Y-31224942D01*
X30853784Y-31201789D01*
X30860284Y-31199568D01*
X30885006Y-31209876D01*
X30934995Y-31238361D01*
X31005188Y-31281863D01*
X31090525Y-31337223D01*
X31185944Y-31401280D01*
X31212546Y-31419497D01*
X31309233Y-31485873D01*
X31396283Y-31545422D01*
X31468805Y-31594816D01*
X31521907Y-31630725D01*
X31550697Y-31649819D01*
X31553674Y-31651664D01*
X31576618Y-31648905D01*
X31627064Y-31634262D01*
X31698359Y-31610287D01*
X31783853Y-31579534D01*
X31876893Y-31544556D01*
X31970826Y-31507907D01*
X32059001Y-31472139D01*
X32134766Y-31439806D01*
X32191469Y-31413462D01*
X32222457Y-31395658D01*
X32223943Y-31394393D01*
X32232799Y-31383506D01*
X32241557Y-31365118D01*
X32251123Y-31335194D01*
X32262404Y-31289697D01*
X32276307Y-31224591D01*
X32293737Y-31135839D01*
X32315602Y-31019407D01*
X32342809Y-30871258D01*
X32348659Y-30839182D01*
X32367026Y-30744114D01*
X32384995Y-30661235D01*
X32400831Y-30597870D01*
X32412800Y-30561342D01*
X32415590Y-30556444D01*
X32440328Y-30548373D01*
X32495610Y-30541813D01*
X32575011Y-30536767D01*
X32672104Y-30533241D01*
X32780462Y-30531239D01*
X32893660Y-30530764D01*
X33005272Y-30531823D01*
X33108871Y-30534418D01*
X33198032Y-30538554D01*
X33266328Y-30544237D01*
X33307334Y-30551469D01*
X33315726Y-30555829D01*
X33324192Y-30580102D01*
X33337965Y-30635374D01*
X33355850Y-30716138D01*
X33376652Y-30816888D01*
X33399177Y-30932117D01*
X33410982Y-30994898D01*
X33433249Y-31114013D01*
X33453421Y-31220235D01*
X33470485Y-31308373D01*
X33483431Y-31373234D01*
X33491245Y-31409626D01*
X33492978Y-31415616D01*
X33512510Y-31425739D01*
X33559557Y-31447138D01*
X33627397Y-31476961D01*
X33709309Y-31512355D01*
X33798572Y-31550468D01*
X33888465Y-31588447D01*
X33972265Y-31623440D01*
X34043253Y-31652594D01*
X34094706Y-31673057D01*
X34119903Y-31681977D01*
X34121004Y-31682143D01*
X34140881Y-31672031D01*
X34186623Y-31643683D01*
X34253683Y-31600077D01*
X34337516Y-31544194D01*
X34433574Y-31479013D01*
X34488750Y-31441121D01*
X34589919Y-31372075D01*
X34681770Y-31310750D01*
X34759656Y-31260137D01*
X34818931Y-31223229D01*
X34854949Y-31203018D01*
X34863023Y-31200099D01*
X34881816Y-31212647D01*
X34921943Y-31247337D01*
X34978907Y-31299737D01*
X35048215Y-31365416D01*
X35125369Y-31439944D01*
X35205875Y-31518887D01*
X35285237Y-31597817D01*
X35358960Y-31672300D01*
X35422548Y-31737906D01*
X35471506Y-31790204D01*
X35501339Y-31824761D01*
X35508458Y-31836322D01*
X35498447Y-31855146D01*
X35470322Y-31900169D01*
X35426946Y-31967013D01*
X35371182Y-32051301D01*
X35305894Y-32148656D01*
X35256154Y-32222093D01*
X35003849Y-32593133D01*
X35258845Y-33211705D01*
X35703469Y-33295525D01*
X36148093Y-33379346D01*
X36148093Y-34304794D01*
X35703469Y-34388614D01*
D12*
X65100000Y-20377400D02*
X63600000Y-20377400D01*
X65100000Y-22117400D02*
X65100000Y-20377400D01*
X29040000Y-27737400D02*
X29040000Y-20617400D01*
X64860000Y-27737400D02*
X64860000Y-20617400D01*
X64860000Y-20617400D02*
X29040000Y-20617400D01*
X64860000Y-27737400D02*
X29040000Y-27737400D01*
X64860000Y-22177400D02*
X29040000Y-22177400D01*
X32755000Y-24277400D02*
G75*
G03X32755000Y-24277400I-1555000J0D01*
G01*
X36255000Y-24277400D02*
G75*
G03X36255000Y-24277400I-1555000J0D01*
G01*
X39755000Y-24277400D02*
G75*
G03X39755000Y-24277400I-1555000J0D01*
G01*
X43255000Y-24277400D02*
G75*
G03X43255000Y-24277400I-1555000J0D01*
G01*
X46755000Y-24277400D02*
G75*
G03X46755000Y-24277400I-1555000J0D01*
G01*
X50255000Y-24277400D02*
G75*
G03X50255000Y-24277400I-1555000J0D01*
G01*
X53755000Y-24277400D02*
G75*
G03X53755000Y-24277400I-1555000J0D01*
G01*
X57255000Y-24277400D02*
G75*
G03X57255000Y-24277400I-1555000J0D01*
G01*
X60755000Y-24277400D02*
G75*
G03X60755000Y-24277400I-1555000J0D01*
G01*
X62672989Y-22721908D02*
G75*
G02X63308000Y-22845400I27011J-1555492D01*
G01*
X64132109Y-23669658D02*
G75*
G02X64132000Y-24885400I-1432109J-607742D01*
G01*
X63307742Y-25709509D02*
G75*
G02X62092000Y-25709400I-607742J1432109D01*
G01*
X61267891Y-24885142D02*
G75*
G02X61268000Y-23669400I1432109J607742D01*
G01*
X62092413Y-22846015D02*
G75*
G02X62700000Y-22722400I607587J-1431385D01*
G01*
X100100000Y-20377400D02*
X98600000Y-20377400D01*
X100100000Y-22117400D02*
X100100000Y-20377400D01*
X64040000Y-27737400D02*
X64040000Y-20617400D01*
X99860000Y-27737400D02*
X99860000Y-20617400D01*
X99860000Y-20617400D02*
X64040000Y-20617400D01*
X99860000Y-27737400D02*
X64040000Y-27737400D01*
X99860000Y-22177400D02*
X64040000Y-22177400D01*
X67755000Y-24277400D02*
G75*
G03X67755000Y-24277400I-1555000J0D01*
G01*
X71255000Y-24277400D02*
G75*
G03X71255000Y-24277400I-1555000J0D01*
G01*
X74755000Y-24277400D02*
G75*
G03X74755000Y-24277400I-1555000J0D01*
G01*
X78255000Y-24277400D02*
G75*
G03X78255000Y-24277400I-1555000J0D01*
G01*
X81755000Y-24277400D02*
G75*
G03X81755000Y-24277400I-1555000J0D01*
G01*
X85255000Y-24277400D02*
G75*
G03X85255000Y-24277400I-1555000J0D01*
G01*
X88755000Y-24277400D02*
G75*
G03X88755000Y-24277400I-1555000J0D01*
G01*
X92255000Y-24277400D02*
G75*
G03X92255000Y-24277400I-1555000J0D01*
G01*
X95755000Y-24277400D02*
G75*
G03X95755000Y-24277400I-1555000J0D01*
G01*
X97672989Y-22721908D02*
G75*
G02X98308000Y-22845400I27011J-1555492D01*
G01*
X99132109Y-23669658D02*
G75*
G02X99132000Y-24885400I-1432109J-607742D01*
G01*
X98307742Y-25709509D02*
G75*
G02X97092000Y-25709400I-607742J1432109D01*
G01*
X96267891Y-24885142D02*
G75*
G02X96268000Y-23669400I1432109J607742D01*
G01*
X97092413Y-22846015D02*
G75*
G02X97700000Y-22722400I607587J-1431385D01*
G01*
X28800000Y-47562600D02*
X30300000Y-47562600D01*
X28800000Y-45822600D02*
X28800000Y-47562600D01*
X64860000Y-40202600D02*
X64860000Y-47322600D01*
X29040000Y-40202600D02*
X29040000Y-47322600D01*
X29040000Y-47322600D02*
X64860000Y-47322600D01*
X29040000Y-40202600D02*
X64860000Y-40202600D01*
X29040000Y-45762600D02*
X64860000Y-45762600D01*
X64255000Y-43662600D02*
G75*
G03X64255000Y-43662600I-1555000J0D01*
G01*
X60755000Y-43662600D02*
G75*
G03X60755000Y-43662600I-1555000J0D01*
G01*
X57255000Y-43662600D02*
G75*
G03X57255000Y-43662600I-1555000J0D01*
G01*
X53755000Y-43662600D02*
G75*
G03X53755000Y-43662600I-1555000J0D01*
G01*
X50255000Y-43662600D02*
G75*
G03X50255000Y-43662600I-1555000J0D01*
G01*
X46755000Y-43662600D02*
G75*
G03X46755000Y-43662600I-1555000J0D01*
G01*
X43255000Y-43662600D02*
G75*
G03X43255000Y-43662600I-1555000J0D01*
G01*
X39755000Y-43662600D02*
G75*
G03X39755000Y-43662600I-1555000J0D01*
G01*
X36255000Y-43662600D02*
G75*
G03X36255000Y-43662600I-1555000J0D01*
G01*
X31227011Y-45218092D02*
G75*
G02X30592000Y-45094600I-27011J1555492D01*
G01*
X29767891Y-44270342D02*
G75*
G02X29768000Y-43054600I1432109J607742D01*
G01*
X30592258Y-42230491D02*
G75*
G02X31808000Y-42230600I607742J-1432109D01*
G01*
X32632109Y-43054858D02*
G75*
G02X32632000Y-44270600I-1432109J-607742D01*
G01*
X31807587Y-45093985D02*
G75*
G02X31200000Y-45217600I-607587J1431385D01*
G01*
X89910000Y-35240000D02*
X89910000Y-36570000D01*
X89910000Y-36570000D02*
X88580000Y-36570000D01*
X89910000Y-33970000D02*
X87310000Y-33970000D01*
X87310000Y-33970000D02*
X87310000Y-36570000D01*
X87310000Y-36570000D02*
X38990000Y-36570000D01*
X38990000Y-31370000D02*
X38990000Y-36570000D01*
X89910000Y-31370000D02*
X38990000Y-31370000D01*
X89910000Y-31370000D02*
X89910000Y-33970000D01*
X63800000Y-47562600D02*
X65300000Y-47562600D01*
X63800000Y-45822600D02*
X63800000Y-47562600D01*
X99860000Y-40202600D02*
X99860000Y-47322600D01*
X64040000Y-40202600D02*
X64040000Y-47322600D01*
X64040000Y-47322600D02*
X99860000Y-47322600D01*
X64040000Y-40202600D02*
X99860000Y-40202600D01*
X64040000Y-45762600D02*
X99860000Y-45762600D01*
X99255000Y-43662600D02*
G75*
G03X99255000Y-43662600I-1555000J0D01*
G01*
X95755000Y-43662600D02*
G75*
G03X95755000Y-43662600I-1555000J0D01*
G01*
X92255000Y-43662600D02*
G75*
G03X92255000Y-43662600I-1555000J0D01*
G01*
X88755000Y-43662600D02*
G75*
G03X88755000Y-43662600I-1555000J0D01*
G01*
X85255000Y-43662600D02*
G75*
G03X85255000Y-43662600I-1555000J0D01*
G01*
X81755000Y-43662600D02*
G75*
G03X81755000Y-43662600I-1555000J0D01*
G01*
X78255000Y-43662600D02*
G75*
G03X78255000Y-43662600I-1555000J0D01*
G01*
X74755000Y-43662600D02*
G75*
G03X74755000Y-43662600I-1555000J0D01*
G01*
X71255000Y-43662600D02*
G75*
G03X71255000Y-43662600I-1555000J0D01*
G01*
X66227011Y-45218092D02*
G75*
G02X65592000Y-45094600I-27011J1555492D01*
G01*
X64767891Y-44270342D02*
G75*
G02X64768000Y-43054600I1432109J607742D01*
G01*
X65592258Y-42230491D02*
G75*
G02X66808000Y-42230600I607742J-1432109D01*
G01*
X67632109Y-43054858D02*
G75*
G02X67632000Y-44270600I-1432109J-607742D01*
G01*
X66807587Y-45093985D02*
G75*
G02X66200000Y-45217600I-607587J1431385D01*
G01*
M02*
