  0
SECTION
  2
HEADER
  9
$ACADVER
  1
AC1014
  9
$HANDSEED
  5
FFFF
  9
$MEASUREMENT
 70
     1
  0
ENDSEC
  0
SECTION
  2
TABLES
  0
TABLE
  2
VPORT
  5
8
330
0
100
AcDbSymbolTable
 70
     4
  0
VPORT
  5
2E
330
8
100
AcDbSymbolTableRecord
100
AcDbViewportTableRecord
  2
*ACTIVE
 70
     0
 10
0.0
 20
0.0
 11
1.0
 21
1.0
 12
210.0
 22
148.5
 13
0.0
 23
0.0
 14
10.0
 24
10.0
 15
10.0
 25
10.0
 16
0.0
 26
0.0
 36
1.0
 17
0.0
 27
0.0
 37
0.0
 40
341.0
 41
1.24
 42
50.0
 43
0.0
 44
0.0
 50
0.0
 51
0.0
 71
     0
 72
   100
 73
     1
 74
     3
 75
     0
 76
     0
 77
     0
 78
     0
  0
ENDTAB
  0
TABLE
  2
LTYPE
  5
5
330
0
100
AcDbSymbolTable
 70
     1
  0
LTYPE
  5
14
330
5
100
AcDbSymbolTableRecord
100
AcDbLinetypeTableRecord
  2
BYBLOCK
 70
     0
  3

 72
    65
 73
     0
 40
0.0
  0
LTYPE
  5
15
330
5
100
AcDbSymbolTableRecord
100
AcDbLinetypeTableRecord
  2
BYLAYER
 70
     0
  3

 72
    65
 73
     0
 40
0.0
  0
LTYPE
  5
16
330
5
100
AcDbSymbolTableRecord
100
AcDbLinetypeTableRecord
  2
CONTINUOUS
 70
     0
  3
Solid line
 72
    65
 73
     0
 40
0.0
  0
ENDTAB
  0
TABLE
  2
LAYER
  5
2
100
AcDbSymbolTable
 70
1
  0
LAYER
  5
50
100
AcDbSymbolTableRecord
100
AcDbLayerTableRecord
  2
0
 70
0
  6
CONTINUOUS
  0
ENDTAB
  0
TABLE
  2
STYLE
  5
3
330
0
100
AcDbSymbolTable
 70
     1
  0
STYLE
  5
11
330
3
100
AcDbSymbolTableRecord
100
AcDbTextStyleTableRecord
  2
STANDARD
 70
     0
 40
0.0
 41
1.0
 50
0.0
 71
     0
 42
2.5
  3
txt
  4

  0
ENDTAB
  0
TABLE
  2
VIEW
  5
6
330
0
100
AcDbSymbolTable
 70
     0
  0
ENDTAB
  0
TABLE
  2
UCS
  5
7
330
0
100
AcDbSymbolTable
 70
     0
  0
ENDTAB
  0
TABLE
  2
APPID
  5
9
330
0
100
AcDbSymbolTable
 70
     2
  0
APPID
  5
12
330
9
100
AcDbSymbolTableRecord
100
AcDbRegAppTableRecord
  2
ACAD
 70
     0
  0
ENDTAB
  0
TABLE
  2
DIMSTYLE
  5
A
330
0
100
AcDbSymbolTable
 70
     1
  0
DIMSTYLE
105
27
330
A
100
AcDbSymbolTableRecord
100
AcDbDimStyleTableRecord
  2
ISO-25
 70
     0
  3

  4

  5

  6

  7

 40
1.0
 41
2.5
 42
0.625
 43
3.75
 44
1.25
 45
0.0
 46
0.0
 47
0.0
 48
0.0
140
2.5
141
2.5
142
0.0
143
0.03937007874016
144
1.0
145
0.0
146
1.0
147
0.625
 71
     0
 72
     0
 73
     0
 74
     0
 75
     0
 76
     0
 77
     1
 78
     8
170
     0
171
     3
172
     1
173
     0
174
     0
175
     0
176
     0
177
     0
178
     0
270
     2
271
     2
272
     2
273
     2
274
     3
340
11
275
     0
280
     0
281
     0
282
     0
283
     0
284
     8
285
     0
286
     0
287
     3
288
     0
  0
ENDTAB
  0
TABLE
  2
BLOCK_RECORD
  5
1
330
0
100
AcDbSymbolTable
 70
     1
  0
BLOCK_RECORD
  5
1F
330
1
100
AcDbSymbolTableRecord
100
AcDbBlockTableRecord
  2
*MODEL_SPACE
  0
BLOCK_RECORD
  5
1B
330
1
100
AcDbSymbolTableRecord
100
AcDbBlockTableRecord
  2
*PAPER_SPACE
  0
ENDTAB
  0
ENDSEC
  0
SECTION
  2
BLOCKS
  0
BLOCK
  5
20
330
1F
100
AcDbEntity
  8
0
100
AcDbBlockBegin
  2
*MODEL_SPACE
 70
     0
 10
0.0
 20
0.0
 30
0.0
  3
*MODEL_SPACE
  1

  0
ENDBLK
  5
21
330
1F
100
AcDbEntity
  8
0
100
AcDbBlockEnd
  0
BLOCK
  5
1C
330
1B
100
AcDbEntity
 67
     1
  8
0
100
AcDbBlockBegin
  2
*PAPER_SPACE
  1

  0
ENDBLK
  5
1D
330
1B
100
AcDbEntity
 67
     1
  8
0
100
AcDbBlockEnd
  0
ENDSEC
  0
SECTION
  2
ENTITIES
  0
SPLINE
  5
100
100
AcDbEntity
  8
0
 62
7
100
AcDbSpline
 70
8
 71
3
 72
8
 73
4
 74
0
 40
0
 40
0
 40
0
 40
0
 40
1
 40
1
 40
1
 40
1
 10
21.946401
 20
-78.032506
 30
0.0
 10
21.946317
 20
-74.442771
 30
0.0
 10
19.036282
 20
-71.532736
 30
0.0
 10
15.446546
 20
-71.532652
 30
0.0
  0
SPLINE
  5
101
100
AcDbEntity
  8
0
 62
7
100
AcDbSpline
 70
8
 71
3
 72
8
 73
4
 74
0
 40
0
 40
0
 40
0
 40
0
 40
1
 40
1
 40
1
 40
1
 10
15.446546
 20
-9.532587
 30
0.0
 10
19.036282
 20
-9.532503
 30
0.0
 10
21.946317
 20
-6.622469
 30
0.0
 10
21.946401
 20
-3.032734
 30
0.0
  0
SPLINE
  5
102
100
AcDbEntity
  8
0
 62
7
100
AcDbSpline
 70
8
 71
3
 72
8
 73
4
 74
0
 40
0
 40
0
 40
0
 40
0
 40
1
 40
1
 40
1
 40
1
 10
64.446407
 20
-71.532652
 30
0.0
 10
60.856671
 20
-71.532736
 30
0.0
 10
57.946637
 20
-74.442771
 30
0.0
 10
57.946552
 20
-78.032506
 30
0.0
  0
SPLINE
  5
103
100
AcDbEntity
  8
0
 62
7
100
AcDbSpline
 70
8
 71
3
 72
8
 73
4
 74
0
 40
0
 40
0
 40
0
 40
0
 40
1
 40
1
 40
1
 40
1
 10
57.946552
 20
-3.032734
 30
0.0
 10
57.946637
 20
-6.622469
 30
0.0
 10
60.856671
 20
-9.532503
 30
0.0
 10
64.446407
 20
-9.532587
 30
0.0
  0
LINE
  5
104
100
AcDbEntity
  8
0
 62
7
100
AcDbLine
 10
15.447562
 20
-9.532333
 30
0.0
 11
15.447562
 21
-71.531128
 31
0.0
  0
LINE
  5
105
100
AcDbEntity
  8
0
 62
7
100
AcDbLine
 10
57.946806
 20
-78.030982
 30
0.0
 11
21.947417
 21
-78.030982
 31
0.0
  0
LINE
  5
106
100
AcDbEntity
  8
0
 62
7
100
AcDbLine
 10
64.446661
 20
-9.532333
 30
0.0
 11
64.446661
 21
-71.531128
 31
0.0
  0
LINE
  5
107
100
AcDbEntity
  8
0
 62
7
100
AcDbLine
 10
57.946806
 20
-3.032480
 30
0.0
 11
21.947417
 21
-3.032480
 31
0.0
  0
SPLINE
  5
108
100
AcDbEntity
  8
0
 62
7
100
AcDbSpline
 70
8
 71
3
 72
8
 73
4
 74
0
 40
0
 40
0
 40
0
 40
0
 40
1
 40
1
 40
1
 40
1
 10
51.446798
 20
-71.013217
 30
0.0
 10
51.446798
 20
-71.492753
 30
0.0
 10
51.190969
 20
-71.935862
 30
0.0
 10
50.775679
 20
-72.175630
 30
0.0
  0
SPLINE
  5
109
100
AcDbEntity
  8
0
 62
7
100
AcDbSpline
 70
8
 71
3
 72
8
 73
4
 74
0
 40
0
 40
0
 40
0
 40
0
 40
1
 40
1
 40
1
 40
1
 10
50.775679
 20
-72.175630
 30
0.0
 10
50.360389
 20
-72.415398
 30
0.0
 10
49.848730
 20
-72.415398
 30
0.0
 10
49.433440
 20
-72.175630
 30
0.0
  0
SPLINE
  5
10a
100
AcDbEntity
  8
0
 62
7
100
AcDbSpline
 70
8
 71
3
 72
8
 73
4
 74
0
 40
0
 40
0
 40
0
 40
0
 40
1
 40
1
 40
1
 40
1
 10
49.433440
 20
-72.175630
 30
0.0
 10
49.018149
 20
-71.935862
 30
0.0
 10
48.762320
 20
-71.492753
 30
0.0
 10
48.762320
 20
-71.013217
 30
0.0
  0
SPLINE
  5
10b
100
AcDbEntity
  8
0
 62
7
100
AcDbSpline
 70
8
 71
3
 72
8
 73
4
 74
0
 40
0
 40
0
 40
0
 40
0
 40
1
 40
1
 40
1
 40
1
 10
48.762320
 20
-71.013217
 30
0.0
 10
48.762320
 20
-70.533681
 30
0.0
 10
49.018149
 20
-70.090571
 30
0.0
 10
49.433440
 20
-69.850804
 30
0.0
  0
SPLINE
  5
10c
100
AcDbEntity
  8
0
 62
7
100
AcDbSpline
 70
8
 71
3
 72
8
 73
4
 74
0
 40
0
 40
0
 40
0
 40
0
 40
1
 40
1
 40
1
 40
1
 10
49.433440
 20
-69.850804
 30
0.0
 10
49.848730
 20
-69.611036
 30
0.0
 10
50.360389
 20
-69.611036
 30
0.0
 10
50.775679
 20
-69.850804
 30
0.0
  0
SPLINE
  5
10d
100
AcDbEntity
  8
0
 62
7
100
AcDbSpline
 70
8
 71
3
 72
8
 73
4
 74
0
 40
0
 40
0
 40
0
 40
0
 40
1
 40
1
 40
1
 40
1
 10
50.775679
 20
-69.850804
 30
0.0
 10
51.190969
 20
-70.090571
 30
0.0
 10
51.446798
 20
-70.533681
 30
0.0
 10
51.446798
 20
-71.013217
 30
0.0
  0
LINE
  5
10e
100
AcDbEntity
  8
0
 62
7
100
AcDbLine
 10
51.446798
 20
-71.013217
 30
0.0
 11
51.446798
 21
-71.013217
 31
0.0
  0
SPLINE
  5
10f
100
AcDbEntity
  8
0
 62
7
100
AcDbSpline
 70
8
 71
3
 72
8
 73
4
 74
0
 40
0
 40
0
 40
0
 40
0
 40
1
 40
1
 40
1
 40
1
 10
61.286739
 20
-15.532064
 30
0.0
 10
61.286739
 20
-16.011599
 30
0.0
 10
61.030910
 20
-16.454709
 30
0.0
 10
60.615619
 20
-16.694477
 30
0.0
  0
SPLINE
  5
110
100
AcDbEntity
  8
0
 62
7
100
AcDbSpline
 70
8
 71
3
 72
8
 73
4
 74
0
 40
0
 40
0
 40
0
 40
0
 40
1
 40
1
 40
1
 40
1
 10
60.615619
 20
-16.694477
 30
0.0
 10
60.200329
 20
-16.934244
 30
0.0
 10
59.688670
 20
-16.934244
 30
0.0
 10
59.273380
 20
-16.694477
 30
0.0
  0
SPLINE
  5
111
100
AcDbEntity
  8
0
 62
7
100
AcDbSpline
 70
8
 71
3
 72
8
 73
4
 74
0
 40
0
 40
0
 40
0
 40
0
 40
1
 40
1
 40
1
 40
1
 10
59.273380
 20
-16.694477
 30
0.0
 10
58.858090
 20
-16.454709
 30
0.0
 10
58.602261
 20
-16.011599
 30
0.0
 10
58.602261
 20
-15.532064
 30
0.0
  0
SPLINE
  5
112
100
AcDbEntity
  8
0
 62
7
100
AcDbSpline
 70
8
 71
3
 72
8
 73
4
 74
0
 40
0
 40
0
 40
0
 40
0
 40
1
 40
1
 40
1
 40
1
 10
58.602261
 20
-15.532064
 30
0.0
 10
58.602261
 20
-14.790765
 30
0.0
 10
59.203202
 20
-14.189825
 30
0.0
 10
59.944500
 20
-14.189825
 30
0.0
  0
SPLINE
  5
113
100
AcDbEntity
  8
0
 62
7
100
AcDbSpline
 70
8
 71
3
 72
8
 73
4
 74
0
 40
0
 40
0
 40
0
 40
0
 40
1
 40
1
 40
1
 40
1
 10
59.944500
 20
-14.189825
 30
0.0
 10
60.685798
 20
-14.189825
 30
0.0
 10
61.286739
 20
-14.790765
 30
0.0
 10
61.286739
 20
-15.532064
 30
0.0
  0
LINE
  5
114
100
AcDbEntity
  8
0
 62
7
100
AcDbLine
 10
61.286739
 20
-15.532064
 30
0.0
 11
61.286739
 21
-15.532064
 31
0.0
  0
SPLINE
  5
115
100
AcDbEntity
  8
0
 62
7
100
AcDbSpline
 70
8
 71
3
 72
8
 73
4
 74
0
 40
0
 40
0
 40
0
 40
0
 40
1
 40
1
 40
1
 40
1
 10
31.126823
 20
-10.053289
 30
0.0
 10
31.126823
 20
-10.532824
 30
0.0
 10
30.870993
 20
-10.975934
 30
0.0
 10
30.455703
 20
-11.215702
 30
0.0
  0
SPLINE
  5
116
100
AcDbEntity
  8
0
 62
7
100
AcDbSpline
 70
8
 71
3
 72
8
 73
4
 74
0
 40
0
 40
0
 40
0
 40
0
 40
1
 40
1
 40
1
 40
1
 10
30.455703
 20
-11.215702
 30
0.0
 10
30.040413
 20
-11.455469
 30
0.0
 10
29.528754
 20
-11.455469
 30
0.0
 10
29.113464
 20
-11.215702
 30
0.0
  0
SPLINE
  5
117
100
AcDbEntity
  8
0
 62
7
100
AcDbSpline
 70
8
 71
3
 72
8
 73
4
 74
0
 40
0
 40
0
 40
0
 40
0
 40
1
 40
1
 40
1
 40
1
 10
29.113464
 20
-11.215702
 30
0.0
 10
28.698174
 20
-10.975934
 30
0.0
 10
28.442344
 20
-10.532824
 30
0.0
 10
28.442344
 20
-10.053289
 30
0.0
  0
SPLINE
  5
118
100
AcDbEntity
  8
0
 62
7
100
AcDbSpline
 70
8
 71
3
 72
8
 73
4
 74
0
 40
0
 40
0
 40
0
 40
0
 40
1
 40
1
 40
1
 40
1
 10
28.442344
 20
-10.053289
 30
0.0
 10
28.442344
 20
-9.573753
 30
0.0
 10
28.698174
 20
-9.130644
 30
0.0
 10
29.113464
 20
-8.890876
 30
0.0
  0
SPLINE
  5
119
100
AcDbEntity
  8
0
 62
7
100
AcDbSpline
 70
8
 71
3
 72
8
 73
4
 74
0
 40
0
 40
0
 40
0
 40
0
 40
1
 40
1
 40
1
 40
1
 10
29.113464
 20
-8.890876
 30
0.0
 10
29.528754
 20
-8.651108
 30
0.0
 10
30.040413
 20
-8.651108
 30
0.0
 10
30.455703
 20
-8.890876
 30
0.0
  0
SPLINE
  5
11a
100
AcDbEntity
  8
0
 62
7
100
AcDbSpline
 70
8
 71
3
 72
8
 73
4
 74
0
 40
0
 40
0
 40
0
 40
0
 40
1
 40
1
 40
1
 40
1
 10
30.455703
 20
-8.890876
 30
0.0
 10
30.870993
 20
-9.130644
 30
0.0
 10
31.126823
 20
-9.573753
 30
0.0
 10
31.126823
 20
-10.053289
 30
0.0
  0
LINE
  5
11b
100
AcDbEntity
  8
0
 62
7
100
AcDbLine
 10
31.126823
 20
-10.053289
 30
0.0
 11
31.126823
 21
-10.053289
 31
0.0
  0
SPLINE
  5
11c
100
AcDbEntity
  8
0
 62
7
100
AcDbSpline
 70
8
 71
3
 72
8
 73
4
 74
0
 40
0
 40
0
 40
0
 40
0
 40
1
 40
1
 40
1
 40
1
 10
41.301852
 20
-8.529405
 30
0.0
 10
41.301852
 20
-9.277670
 30
0.0
 10
40.695264
 20
-9.884257
 30
0.0
 10
39.947000
 20
-9.884257
 30
0.0
  0
SPLINE
  5
11d
100
AcDbEntity
  8
0
 62
7
100
AcDbSpline
 70
8
 71
3
 72
8
 73
4
 74
0
 40
0
 40
0
 40
0
 40
0
 40
1
 40
1
 40
1
 40
1
 10
39.947000
 20
-9.884257
 30
0.0
 10
39.198735
 20
-9.884257
 30
0.0
 10
38.592147
 20
-9.277670
 30
0.0
 10
38.592147
 20
-8.529405
 30
0.0
  0
SPLINE
  5
11e
100
AcDbEntity
  8
0
 62
7
100
AcDbSpline
 70
8
 71
3
 72
8
 73
4
 74
0
 40
0
 40
0
 40
0
 40
0
 40
1
 40
1
 40
1
 40
1
 10
38.592147
 20
-8.529405
 30
0.0
 10
38.592147
 20
-7.781141
 30
0.0
 10
39.198735
 20
-7.174553
 30
0.0
 10
39.947000
 20
-7.174553
 30
0.0
  0
SPLINE
  5
11f
100
AcDbEntity
  8
0
 62
7
100
AcDbSpline
 70
8
 71
3
 72
8
 73
4
 74
0
 40
0
 40
0
 40
0
 40
0
 40
1
 40
1
 40
1
 40
1
 10
39.947000
 20
-7.174553
 30
0.0
 10
40.695264
 20
-7.174553
 30
0.0
 10
41.301852
 20
-7.781141
 30
0.0
 10
41.301852
 20
-8.529405
 30
0.0
  0
LINE
  5
120
100
AcDbEntity
  8
0
 62
7
100
AcDbLine
 10
41.301852
 20
-8.529405
 30
0.0
 11
41.301852
 21
-8.529405
 31
0.0
  0
SPLINE
  5
121
100
AcDbEntity
  8
0
 62
7
100
AcDbSpline
 70
8
 71
3
 72
8
 73
4
 74
0
 40
0
 40
0
 40
0
 40
0
 40
1
 40
1
 40
1
 40
1
 10
51.446798
 20
-10.053289
 30
0.0
 10
51.446798
 20
-10.532824
 30
0.0
 10
51.190969
 20
-10.975934
 30
0.0
 10
50.775679
 20
-11.215702
 30
0.0
  0
SPLINE
  5
122
100
AcDbEntity
  8
0
 62
7
100
AcDbSpline
 70
8
 71
3
 72
8
 73
4
 74
0
 40
0
 40
0
 40
0
 40
0
 40
1
 40
1
 40
1
 40
1
 10
50.775679
 20
-11.215702
 30
0.0
 10
50.360389
 20
-11.455469
 30
0.0
 10
49.848730
 20
-11.455469
 30
0.0
 10
49.433440
 20
-11.215702
 30
0.0
  0
SPLINE
  5
123
100
AcDbEntity
  8
0
 62
7
100
AcDbSpline
 70
8
 71
3
 72
8
 73
4
 74
0
 40
0
 40
0
 40
0
 40
0
 40
1
 40
1
 40
1
 40
1
 10
49.433440
 20
-11.215702
 30
0.0
 10
49.018149
 20
-10.975934
 30
0.0
 10
48.762320
 20
-10.532824
 30
0.0
 10
48.762320
 20
-10.053289
 30
0.0
  0
SPLINE
  5
124
100
AcDbEntity
  8
0
 62
7
100
AcDbSpline
 70
8
 71
3
 72
8
 73
4
 74
0
 40
0
 40
0
 40
0
 40
0
 40
1
 40
1
 40
1
 40
1
 10
48.762320
 20
-10.053289
 30
0.0
 10
48.762320
 20
-9.573753
 30
0.0
 10
49.018149
 20
-9.130644
 30
0.0
 10
49.433440
 20
-8.890876
 30
0.0
  0
SPLINE
  5
125
100
AcDbEntity
  8
0
 62
7
100
AcDbSpline
 70
8
 71
3
 72
8
 73
4
 74
0
 40
0
 40
0
 40
0
 40
0
 40
1
 40
1
 40
1
 40
1
 10
49.433440
 20
-8.890876
 30
0.0
 10
49.848730
 20
-8.651108
 30
0.0
 10
50.360389
 20
-8.651108
 30
0.0
 10
50.775679
 20
-8.890876
 30
0.0
  0
SPLINE
  5
126
100
AcDbEntity
  8
0
 62
7
100
AcDbSpline
 70
8
 71
3
 72
8
 73
4
 74
0
 40
0
 40
0
 40
0
 40
0
 40
1
 40
1
 40
1
 40
1
 10
50.775679
 20
-8.890876
 30
0.0
 10
51.190969
 20
-9.130644
 30
0.0
 10
51.446798
 20
-9.573753
 30
0.0
 10
51.446798
 20
-10.053289
 30
0.0
  0
LINE
  5
127
100
AcDbEntity
  8
0
 62
7
100
AcDbLine
 10
51.446798
 20
-10.053289
 30
0.0
 11
51.446798
 21
-10.053289
 31
0.0
  0
SPLINE
  5
128
100
AcDbEntity
  8
0
 62
7
100
AcDbSpline
 70
8
 71
3
 72
8
 73
4
 74
0
 40
0
 40
0
 40
0
 40
0
 40
1
 40
1
 40
1
 40
1
 10
21.286859
 20
-15.532064
 30
0.0
 10
21.286859
 20
-16.011599
 30
0.0
 10
21.031029
 20
-16.454709
 30
0.0
 10
20.615739
 20
-16.694476
 30
0.0
  0
SPLINE
  5
129
100
AcDbEntity
  8
0
 62
7
100
AcDbSpline
 70
8
 71
3
 72
8
 73
4
 74
0
 40
0
 40
0
 40
0
 40
0
 40
1
 40
1
 40
1
 40
1
 10
20.615739
 20
-16.694476
 30
0.0
 10
20.200449
 20
-16.934244
 30
0.0
 10
19.688790
 20
-16.934244
 30
0.0
 10
19.273500
 20
-16.694476
 30
0.0
  0
SPLINE
  5
12a
100
AcDbEntity
  8
0
 62
7
100
AcDbSpline
 70
8
 71
3
 72
8
 73
4
 74
0
 40
0
 40
0
 40
0
 40
0
 40
1
 40
1
 40
1
 40
1
 10
19.273500
 20
-16.694476
 30
0.0
 10
18.858209
 20
-16.454709
 30
0.0
 10
18.602380
 20
-16.011599
 30
0.0
 10
18.602380
 20
-15.532064
 30
0.0
  0
SPLINE
  5
12b
100
AcDbEntity
  8
0
 62
7
100
AcDbSpline
 70
8
 71
3
 72
8
 73
4
 74
0
 40
0
 40
0
 40
0
 40
0
 40
1
 40
1
 40
1
 40
1
 10
18.602380
 20
-15.532064
 30
0.0
 10
18.602380
 20
-15.052528
 30
0.0
 10
18.858209
 20
-14.609418
 30
0.0
 10
19.273500
 20
-14.369651
 30
0.0
  0
SPLINE
  5
12c
100
AcDbEntity
  8
0
 62
7
100
AcDbSpline
 70
8
 71
3
 72
8
 73
4
 74
0
 40
0
 40
0
 40
0
 40
0
 40
1
 40
1
 40
1
 40
1
 10
19.273500
 20
-14.369651
 30
0.0
 10
19.688790
 20
-14.129883
 30
0.0
 10
20.200449
 20
-14.129883
 30
0.0
 10
20.615739
 20
-14.369651
 30
0.0
  0
SPLINE
  5
12d
100
AcDbEntity
  8
0
 62
7
100
AcDbSpline
 70
8
 71
3
 72
8
 73
4
 74
0
 40
0
 40
0
 40
0
 40
0
 40
1
 40
1
 40
1
 40
1
 10
20.615739
 20
-14.369651
 30
0.0
 10
21.031029
 20
-14.609418
 30
0.0
 10
21.286859
 20
-15.052528
 30
0.0
 10
21.286859
 20
-15.532064
 30
0.0
  0
LINE
  5
12e
100
AcDbEntity
  8
0
 62
7
100
AcDbLine
 10
21.286859
 20
-15.532064
 30
0.0
 11
21.286859
 21
-15.532064
 31
0.0
  0
SPLINE
  5
12f
100
AcDbEntity
  8
0
 62
7
100
AcDbSpline
 70
8
 71
3
 72
8
 73
4
 74
0
 40
0
 40
0
 40
0
 40
0
 40
1
 40
1
 40
1
 40
1
 10
20.966819
 20
-20.213280
 30
0.0
 10
20.966819
 20
-20.692816
 30
0.0
 10
20.710989
 20
-21.135925
 30
0.0
 10
20.295699
 20
-21.375693
 30
0.0
  0
SPLINE
  5
130
100
AcDbEntity
  8
0
 62
7
100
AcDbSpline
 70
8
 71
3
 72
8
 73
4
 74
0
 40
0
 40
0
 40
0
 40
0
 40
1
 40
1
 40
1
 40
1
 10
20.295699
 20
-21.375693
 30
0.0
 10
19.880409
 20
-21.615461
 30
0.0
 10
19.368750
 20
-21.615461
 30
0.0
 10
18.953460
 20
-21.375693
 30
0.0
  0
SPLINE
  5
131
100
AcDbEntity
  8
0
 62
7
100
AcDbSpline
 70
8
 71
3
 72
8
 73
4
 74
0
 40
0
 40
0
 40
0
 40
0
 40
1
 40
1
 40
1
 40
1
 10
18.953460
 20
-21.375693
 30
0.0
 10
18.538170
 20
-21.135925
 30
0.0
 10
18.282340
 20
-20.692816
 30
0.0
 10
18.282340
 20
-20.213280
 30
0.0
  0
SPLINE
  5
132
100
AcDbEntity
  8
0
 62
7
100
AcDbSpline
 70
8
 71
3
 72
8
 73
4
 74
0
 40
0
 40
0
 40
0
 40
0
 40
1
 40
1
 40
1
 40
1
 10
18.282340
 20
-20.213280
 30
0.0
 10
18.282340
 20
-19.733745
 30
0.0
 10
18.538170
 20
-19.290635
 30
0.0
 10
18.953460
 20
-19.050867
 30
0.0
  0
SPLINE
  5
133
100
AcDbEntity
  8
0
 62
7
100
AcDbSpline
 70
8
 71
3
 72
8
 73
4
 74
0
 40
0
 40
0
 40
0
 40
0
 40
1
 40
1
 40
1
 40
1
 10
18.953460
 20
-19.050867
 30
0.0
 10
19.368750
 20
-18.811100
 30
0.0
 10
19.880409
 20
-18.811100
 30
0.0
 10
20.295699
 20
-19.050867
 30
0.0
  0
SPLINE
  5
134
100
AcDbEntity
  8
0
 62
7
100
AcDbSpline
 70
8
 71
3
 72
8
 73
4
 74
0
 40
0
 40
0
 40
0
 40
0
 40
1
 40
1
 40
1
 40
1
 10
20.295699
 20
-19.050867
 30
0.0
 10
20.710989
 20
-19.290635
 30
0.0
 10
20.966819
 20
-19.733745
 30
0.0
 10
20.966819
 20
-20.213280
 30
0.0
  0
LINE
  5
135
100
AcDbEntity
  8
0
 62
7
100
AcDbLine
 10
20.966819
 20
-20.213280
 30
0.0
 11
20.966819
 21
-20.213280
 31
0.0
  0
SPLINE
  5
136
100
AcDbEntity
  8
0
 62
7
100
AcDbSpline
 70
8
 71
3
 72
8
 73
4
 74
0
 40
0
 40
0
 40
0
 40
0
 40
1
 40
1
 40
1
 40
1
 10
31.126823
 20
-20.213280
 30
0.0
 10
31.126823
 20
-20.692816
 30
0.0
 10
30.870993
 20
-21.135925
 30
0.0
 10
30.455703
 20
-21.375693
 30
0.0
  0
SPLINE
  5
137
100
AcDbEntity
  8
0
 62
7
100
AcDbSpline
 70
8
 71
3
 72
8
 73
4
 74
0
 40
0
 40
0
 40
0
 40
0
 40
1
 40
1
 40
1
 40
1
 10
30.455703
 20
-21.375693
 30
0.0
 10
30.040413
 20
-21.615461
 30
0.0
 10
29.528754
 20
-21.615461
 30
0.0
 10
29.113464
 20
-21.375693
 30
0.0
  0
SPLINE
  5
138
100
AcDbEntity
  8
0
 62
7
100
AcDbSpline
 70
8
 71
3
 72
8
 73
4
 74
0
 40
0
 40
0
 40
0
 40
0
 40
1
 40
1
 40
1
 40
1
 10
29.113464
 20
-21.375693
 30
0.0
 10
28.698174
 20
-21.135925
 30
0.0
 10
28.442344
 20
-20.692816
 30
0.0
 10
28.442344
 20
-20.213280
 30
0.0
  0
SPLINE
  5
139
100
AcDbEntity
  8
0
 62
7
100
AcDbSpline
 70
8
 71
3
 72
8
 73
4
 74
0
 40
0
 40
0
 40
0
 40
0
 40
1
 40
1
 40
1
 40
1
 10
28.442344
 20
-20.213280
 30
0.0
 10
28.442344
 20
-19.733745
 30
0.0
 10
28.698174
 20
-19.290635
 30
0.0
 10
29.113464
 20
-19.050867
 30
0.0
  0
SPLINE
  5
13a
100
AcDbEntity
  8
0
 62
7
100
AcDbSpline
 70
8
 71
3
 72
8
 73
4
 74
0
 40
0
 40
0
 40
0
 40
0
 40
1
 40
1
 40
1
 40
1
 10
29.113464
 20
-19.050867
 30
0.0
 10
29.528754
 20
-18.811100
 30
0.0
 10
30.040413
 20
-18.811100
 30
0.0
 10
30.455703
 20
-19.050867
 30
0.0
  0
SPLINE
  5
13b
100
AcDbEntity
  8
0
 62
7
100
AcDbSpline
 70
8
 71
3
 72
8
 73
4
 74
0
 40
0
 40
0
 40
0
 40
0
 40
1
 40
1
 40
1
 40
1
 10
30.455703
 20
-19.050867
 30
0.0
 10
30.870993
 20
-19.290635
 30
0.0
 10
31.126823
 20
-19.733745
 30
0.0
 10
31.126823
 20
-20.213280
 30
0.0
  0
LINE
  5
13c
100
AcDbEntity
  8
0
 62
7
100
AcDbLine
 10
31.126823
 20
-20.213280
 30
0.0
 11
31.126823
 21
-20.213280
 31
0.0
  0
SPLINE
  5
13d
100
AcDbEntity
  8
0
 62
7
100
AcDbSpline
 70
8
 71
3
 72
8
 73
4
 74
0
 40
0
 40
0
 40
0
 40
0
 40
1
 40
1
 40
1
 40
1
 10
41.286813
 20
-20.213280
 30
0.0
 10
41.286813
 20
-20.692816
 30
0.0
 10
41.030984
 20
-21.135925
 30
0.0
 10
40.615694
 20
-21.375693
 30
0.0
  0
SPLINE
  5
13e
100
AcDbEntity
  8
0
 62
7
100
AcDbSpline
 70
8
 71
3
 72
8
 73
4
 74
0
 40
0
 40
0
 40
0
 40
0
 40
1
 40
1
 40
1
 40
1
 10
40.615694
 20
-21.375693
 30
0.0
 10
40.200403
 20
-21.615461
 30
0.0
 10
39.688745
 20
-21.615461
 30
0.0
 10
39.273454
 20
-21.375693
 30
0.0
  0
SPLINE
  5
13f
100
AcDbEntity
  8
0
 62
7
100
AcDbSpline
 70
8
 71
3
 72
8
 73
4
 74
0
 40
0
 40
0
 40
0
 40
0
 40
1
 40
1
 40
1
 40
1
 10
39.273454
 20
-21.375693
 30
0.0
 10
38.858164
 20
-21.135925
 30
0.0
 10
38.602335
 20
-20.692816
 30
0.0
 10
38.602335
 20
-20.213280
 30
0.0
  0
SPLINE
  5
140
100
AcDbEntity
  8
0
 62
7
100
AcDbSpline
 70
8
 71
3
 72
8
 73
4
 74
0
 40
0
 40
0
 40
0
 40
0
 40
1
 40
1
 40
1
 40
1
 10
38.602335
 20
-20.213280
 30
0.0
 10
38.602335
 20
-19.733745
 30
0.0
 10
38.858164
 20
-19.290635
 30
0.0
 10
39.273454
 20
-19.050867
 30
0.0
  0
SPLINE
  5
141
100
AcDbEntity
  8
0
 62
7
100
AcDbSpline
 70
8
 71
3
 72
8
 73
4
 74
0
 40
0
 40
0
 40
0
 40
0
 40
1
 40
1
 40
1
 40
1
 10
39.273454
 20
-19.050867
 30
0.0
 10
39.688745
 20
-18.811100
 30
0.0
 10
40.200403
 20
-18.811100
 30
0.0
 10
40.615694
 20
-19.050867
 30
0.0
  0
SPLINE
  5
142
100
AcDbEntity
  8
0
 62
7
100
AcDbSpline
 70
8
 71
3
 72
8
 73
4
 74
0
 40
0
 40
0
 40
0
 40
0
 40
1
 40
1
 40
1
 40
1
 10
40.615694
 20
-19.050867
 30
0.0
 10
41.030984
 20
-19.290635
 30
0.0
 10
41.286813
 20
-19.733745
 30
0.0
 10
41.286813
 20
-20.213280
 30
0.0
  0
LINE
  5
143
100
AcDbEntity
  8
0
 62
7
100
AcDbLine
 10
41.286813
 20
-20.213280
 30
0.0
 11
41.286813
 21
-20.213280
 31
0.0
  0
SPLINE
  5
144
100
AcDbEntity
  8
0
 62
7
100
AcDbSpline
 70
8
 71
3
 72
8
 73
4
 74
0
 40
0
 40
0
 40
0
 40
0
 40
1
 40
1
 40
1
 40
1
 10
51.446798
 20
-20.213280
 30
0.0
 10
51.446798
 20
-20.692816
 30
0.0
 10
51.190969
 20
-21.135925
 30
0.0
 10
50.775679
 20
-21.375693
 30
0.0
  0
SPLINE
  5
145
100
AcDbEntity
  8
0
 62
7
100
AcDbSpline
 70
8
 71
3
 72
8
 73
4
 74
0
 40
0
 40
0
 40
0
 40
0
 40
1
 40
1
 40
1
 40
1
 10
50.775679
 20
-21.375693
 30
0.0
 10
50.360389
 20
-21.615461
 30
0.0
 10
49.848730
 20
-21.615461
 30
0.0
 10
49.433440
 20
-21.375693
 30
0.0
  0
SPLINE
  5
146
100
AcDbEntity
  8
0
 62
7
100
AcDbSpline
 70
8
 71
3
 72
8
 73
4
 74
0
 40
0
 40
0
 40
0
 40
0
 40
1
 40
1
 40
1
 40
1
 10
49.433440
 20
-21.375693
 30
0.0
 10
49.018149
 20
-21.135925
 30
0.0
 10
48.762320
 20
-20.692816
 30
0.0
 10
48.762320
 20
-20.213280
 30
0.0
  0
SPLINE
  5
147
100
AcDbEntity
  8
0
 62
7
100
AcDbSpline
 70
8
 71
3
 72
8
 73
4
 74
0
 40
0
 40
0
 40
0
 40
0
 40
1
 40
1
 40
1
 40
1
 10
48.762320
 20
-20.213280
 30
0.0
 10
48.762320
 20
-19.733745
 30
0.0
 10
49.018149
 20
-19.290635
 30
0.0
 10
49.433440
 20
-19.050867
 30
0.0
  0
SPLINE
  5
148
100
AcDbEntity
  8
0
 62
7
100
AcDbSpline
 70
8
 71
3
 72
8
 73
4
 74
0
 40
0
 40
0
 40
0
 40
0
 40
1
 40
1
 40
1
 40
1
 10
49.433440
 20
-19.050867
 30
0.0
 10
49.848730
 20
-18.811100
 30
0.0
 10
50.360389
 20
-18.811100
 30
0.0
 10
50.775679
 20
-19.050867
 30
0.0
  0
SPLINE
  5
149
100
AcDbEntity
  8
0
 62
7
100
AcDbSpline
 70
8
 71
3
 72
8
 73
4
 74
0
 40
0
 40
0
 40
0
 40
0
 40
1
 40
1
 40
1
 40
1
 10
50.775679
 20
-19.050867
 30
0.0
 10
51.190969
 20
-19.290635
 30
0.0
 10
51.446798
 20
-19.733745
 30
0.0
 10
51.446798
 20
-20.213280
 30
0.0
  0
LINE
  5
14a
100
AcDbEntity
  8
0
 62
7
100
AcDbLine
 10
51.446798
 20
-20.213280
 30
0.0
 11
51.446798
 21
-20.213280
 31
0.0
  0
SPLINE
  5
14b
100
AcDbEntity
  8
0
 62
7
100
AcDbSpline
 70
8
 71
3
 72
8
 73
4
 74
0
 40
0
 40
0
 40
0
 40
0
 40
1
 40
1
 40
1
 40
1
 10
61.606779
 20
-20.213280
 30
0.0
 10
61.606779
 20
-20.692816
 30
0.0
 10
61.350949
 20
-21.135925
 30
0.0
 10
60.935659
 20
-21.375693
 30
0.0
  0
SPLINE
  5
14c
100
AcDbEntity
  8
0
 62
7
100
AcDbSpline
 70
8
 71
3
 72
8
 73
4
 74
0
 40
0
 40
0
 40
0
 40
0
 40
1
 40
1
 40
1
 40
1
 10
60.935659
 20
-21.375693
 30
0.0
 10
60.520369
 20
-21.615461
 30
0.0
 10
60.008710
 20
-21.615461
 30
0.0
 10
59.593420
 20
-21.375693
 30
0.0
  0
SPLINE
  5
14d
100
AcDbEntity
  8
0
 62
7
100
AcDbSpline
 70
8
 71
3
 72
8
 73
4
 74
0
 40
0
 40
0
 40
0
 40
0
 40
1
 40
1
 40
1
 40
1
 10
59.593420
 20
-21.375693
 30
0.0
 10
59.178130
 20
-21.135925
 30
0.0
 10
58.922300
 20
-20.692816
 30
0.0
 10
58.922300
 20
-20.213280
 30
0.0
  0
SPLINE
  5
14e
100
AcDbEntity
  8
0
 62
7
100
AcDbSpline
 70
8
 71
3
 72
8
 73
4
 74
0
 40
0
 40
0
 40
0
 40
0
 40
1
 40
1
 40
1
 40
1
 10
58.922300
 20
-20.213280
 30
0.0
 10
58.922300
 20
-19.733745
 30
0.0
 10
59.178130
 20
-19.290635
 30
0.0
 10
59.593420
 20
-19.050867
 30
0.0
  0
SPLINE
  5
14f
100
AcDbEntity
  8
0
 62
7
100
AcDbSpline
 70
8
 71
3
 72
8
 73
4
 74
0
 40
0
 40
0
 40
0
 40
0
 40
1
 40
1
 40
1
 40
1
 10
59.593420
 20
-19.050867
 30
0.0
 10
60.008710
 20
-18.811100
 30
0.0
 10
60.520369
 20
-18.811100
 30
0.0
 10
60.935659
 20
-19.050867
 30
0.0
  0
SPLINE
  5
150
100
AcDbEntity
  8
0
 62
7
100
AcDbSpline
 70
8
 71
3
 72
8
 73
4
 74
0
 40
0
 40
0
 40
0
 40
0
 40
1
 40
1
 40
1
 40
1
 10
60.935659
 20
-19.050867
 30
0.0
 10
61.350949
 20
-19.290635
 30
0.0
 10
61.606779
 20
-19.733745
 30
0.0
 10
61.606779
 20
-20.213280
 30
0.0
  0
LINE
  5
151
100
AcDbEntity
  8
0
 62
7
100
AcDbLine
 10
61.606779
 20
-20.213280
 30
0.0
 11
61.606779
 21
-20.213280
 31
0.0
  0
SPLINE
  5
152
100
AcDbEntity
  8
0
 62
7
100
AcDbSpline
 70
8
 71
3
 72
8
 73
4
 74
0
 40
0
 40
0
 40
0
 40
0
 40
1
 40
1
 40
1
 40
1
 10
20.966819
 20
-30.373265
 30
0.0
 10
20.966819
 20
-30.852801
 30
0.0
 10
20.710989
 20
-31.295910
 30
0.0
 10
20.295699
 20
-31.535678
 30
0.0
  0
SPLINE
  5
153
100
AcDbEntity
  8
0
 62
7
100
AcDbSpline
 70
8
 71
3
 72
8
 73
4
 74
0
 40
0
 40
0
 40
0
 40
0
 40
1
 40
1
 40
1
 40
1
 10
20.295699
 20
-31.535678
 30
0.0
 10
19.880409
 20
-31.775446
 30
0.0
 10
19.368750
 20
-31.775446
 30
0.0
 10
18.953460
 20
-31.535678
 30
0.0
  0
SPLINE
  5
154
100
AcDbEntity
  8
0
 62
7
100
AcDbSpline
 70
8
 71
3
 72
8
 73
4
 74
0
 40
0
 40
0
 40
0
 40
0
 40
1
 40
1
 40
1
 40
1
 10
18.953460
 20
-31.535678
 30
0.0
 10
18.538170
 20
-31.295910
 30
0.0
 10
18.282340
 20
-30.852801
 30
0.0
 10
18.282340
 20
-30.373265
 30
0.0
  0
SPLINE
  5
155
100
AcDbEntity
  8
0
 62
7
100
AcDbSpline
 70
8
 71
3
 72
8
 73
4
 74
0
 40
0
 40
0
 40
0
 40
0
 40
1
 40
1
 40
1
 40
1
 10
18.282340
 20
-30.373265
 30
0.0
 10
18.282340
 20
-29.893729
 30
0.0
 10
18.538170
 20
-29.450620
 30
0.0
 10
18.953460
 20
-29.210852
 30
0.0
  0
SPLINE
  5
156
100
AcDbEntity
  8
0
 62
7
100
AcDbSpline
 70
8
 71
3
 72
8
 73
4
 74
0
 40
0
 40
0
 40
0
 40
0
 40
1
 40
1
 40
1
 40
1
 10
18.953460
 20
-29.210852
 30
0.0
 10
19.368750
 20
-28.971084
 30
0.0
 10
19.880409
 20
-28.971084
 30
0.0
 10
20.295699
 20
-29.210852
 30
0.0
  0
SPLINE
  5
157
100
AcDbEntity
  8
0
 62
7
100
AcDbSpline
 70
8
 71
3
 72
8
 73
4
 74
0
 40
0
 40
0
 40
0
 40
0
 40
1
 40
1
 40
1
 40
1
 10
20.295699
 20
-29.210852
 30
0.0
 10
20.710989
 20
-29.450620
 30
0.0
 10
20.966819
 20
-29.893729
 30
0.0
 10
20.966819
 20
-30.373265
 30
0.0
  0
LINE
  5
158
100
AcDbEntity
  8
0
 62
7
100
AcDbLine
 10
20.966819
 20
-30.373265
 30
0.0
 11
20.966819
 21
-30.373265
 31
0.0
  0
SPLINE
  5
159
100
AcDbEntity
  8
0
 62
7
100
AcDbSpline
 70
8
 71
3
 72
8
 73
4
 74
0
 40
0
 40
0
 40
0
 40
0
 40
1
 40
1
 40
1
 40
1
 10
31.126823
 20
-30.373265
 30
0.0
 10
31.126823
 20
-30.852801
 30
0.0
 10
30.870993
 20
-31.295910
 30
0.0
 10
30.455703
 20
-31.535678
 30
0.0
  0
SPLINE
  5
15a
100
AcDbEntity
  8
0
 62
7
100
AcDbSpline
 70
8
 71
3
 72
8
 73
4
 74
0
 40
0
 40
0
 40
0
 40
0
 40
1
 40
1
 40
1
 40
1
 10
30.455703
 20
-31.535678
 30
0.0
 10
30.040413
 20
-31.775446
 30
0.0
 10
29.528754
 20
-31.775446
 30
0.0
 10
29.113464
 20
-31.535678
 30
0.0
  0
SPLINE
  5
15b
100
AcDbEntity
  8
0
 62
7
100
AcDbSpline
 70
8
 71
3
 72
8
 73
4
 74
0
 40
0
 40
0
 40
0
 40
0
 40
1
 40
1
 40
1
 40
1
 10
29.113464
 20
-31.535678
 30
0.0
 10
28.698174
 20
-31.295910
 30
0.0
 10
28.442344
 20
-30.852801
 30
0.0
 10
28.442344
 20
-30.373265
 30
0.0
  0
SPLINE
  5
15c
100
AcDbEntity
  8
0
 62
7
100
AcDbSpline
 70
8
 71
3
 72
8
 73
4
 74
0
 40
0
 40
0
 40
0
 40
0
 40
1
 40
1
 40
1
 40
1
 10
28.442344
 20
-30.373265
 30
0.0
 10
28.442344
 20
-29.893729
 30
0.0
 10
28.698174
 20
-29.450620
 30
0.0
 10
29.113464
 20
-29.210852
 30
0.0
  0
SPLINE
  5
15d
100
AcDbEntity
  8
0
 62
7
100
AcDbSpline
 70
8
 71
3
 72
8
 73
4
 74
0
 40
0
 40
0
 40
0
 40
0
 40
1
 40
1
 40
1
 40
1
 10
29.113464
 20
-29.210852
 30
0.0
 10
29.528754
 20
-28.971084
 30
0.0
 10
30.040413
 20
-28.971084
 30
0.0
 10
30.455703
 20
-29.210852
 30
0.0
  0
SPLINE
  5
15e
100
AcDbEntity
  8
0
 62
7
100
AcDbSpline
 70
8
 71
3
 72
8
 73
4
 74
0
 40
0
 40
0
 40
0
 40
0
 40
1
 40
1
 40
1
 40
1
 10
30.455703
 20
-29.210852
 30
0.0
 10
30.870993
 20
-29.450620
 30
0.0
 10
31.126823
 20
-29.893729
 30
0.0
 10
31.126823
 20
-30.373265
 30
0.0
  0
LINE
  5
15f
100
AcDbEntity
  8
0
 62
7
100
AcDbLine
 10
31.126823
 20
-30.373265
 30
0.0
 11
31.126823
 21
-30.373265
 31
0.0
  0
SPLINE
  5
160
100
AcDbEntity
  8
0
 62
7
100
AcDbSpline
 70
8
 71
3
 72
8
 73
4
 74
0
 40
0
 40
0
 40
0
 40
0
 40
1
 40
1
 40
1
 40
1
 10
41.286813
 20
-30.373265
 30
0.0
 10
41.286813
 20
-30.852801
 30
0.0
 10
41.030984
 20
-31.295910
 30
0.0
 10
40.615694
 20
-31.535678
 30
0.0
  0
SPLINE
  5
161
100
AcDbEntity
  8
0
 62
7
100
AcDbSpline
 70
8
 71
3
 72
8
 73
4
 74
0
 40
0
 40
0
 40
0
 40
0
 40
1
 40
1
 40
1
 40
1
 10
40.615694
 20
-31.535678
 30
0.0
 10
40.200403
 20
-31.775446
 30
0.0
 10
39.688745
 20
-31.775446
 30
0.0
 10
39.273454
 20
-31.535678
 30
0.0
  0
SPLINE
  5
162
100
AcDbEntity
  8
0
 62
7
100
AcDbSpline
 70
8
 71
3
 72
8
 73
4
 74
0
 40
0
 40
0
 40
0
 40
0
 40
1
 40
1
 40
1
 40
1
 10
39.273454
 20
-31.535678
 30
0.0
 10
38.858164
 20
-31.295910
 30
0.0
 10
38.602335
 20
-30.852801
 30
0.0
 10
38.602335
 20
-30.373265
 30
0.0
  0
SPLINE
  5
163
100
AcDbEntity
  8
0
 62
7
100
AcDbSpline
 70
8
 71
3
 72
8
 73
4
 74
0
 40
0
 40
0
 40
0
 40
0
 40
1
 40
1
 40
1
 40
1
 10
38.602335
 20
-30.373265
 30
0.0
 10
38.602335
 20
-29.893729
 30
0.0
 10
38.858164
 20
-29.450620
 30
0.0
 10
39.273454
 20
-29.210852
 30
0.0
  0
SPLINE
  5
164
100
AcDbEntity
  8
0
 62
7
100
AcDbSpline
 70
8
 71
3
 72
8
 73
4
 74
0
 40
0
 40
0
 40
0
 40
0
 40
1
 40
1
 40
1
 40
1
 10
39.273454
 20
-29.210852
 30
0.0
 10
39.688745
 20
-28.971084
 30
0.0
 10
40.200403
 20
-28.971084
 30
0.0
 10
40.615694
 20
-29.210852
 30
0.0
  0
SPLINE
  5
165
100
AcDbEntity
  8
0
 62
7
100
AcDbSpline
 70
8
 71
3
 72
8
 73
4
 74
0
 40
0
 40
0
 40
0
 40
0
 40
1
 40
1
 40
1
 40
1
 10
40.615694
 20
-29.210852
 30
0.0
 10
41.030984
 20
-29.450620
 30
0.0
 10
41.286813
 20
-29.893729
 30
0.0
 10
41.286813
 20
-30.373265
 30
0.0
  0
LINE
  5
166
100
AcDbEntity
  8
0
 62
7
100
AcDbLine
 10
41.286813
 20
-30.373265
 30
0.0
 11
41.286813
 21
-30.373265
 31
0.0
  0
SPLINE
  5
167
100
AcDbEntity
  8
0
 62
7
100
AcDbSpline
 70
8
 71
3
 72
8
 73
4
 74
0
 40
0
 40
0
 40
0
 40
0
 40
1
 40
1
 40
1
 40
1
 10
51.446798
 20
-30.373265
 30
0.0
 10
51.446798
 20
-30.852801
 30
0.0
 10
51.190969
 20
-31.295910
 30
0.0
 10
50.775679
 20
-31.535678
 30
0.0
  0
SPLINE
  5
168
100
AcDbEntity
  8
0
 62
7
100
AcDbSpline
 70
8
 71
3
 72
8
 73
4
 74
0
 40
0
 40
0
 40
0
 40
0
 40
1
 40
1
 40
1
 40
1
 10
50.775679
 20
-31.535678
 30
0.0
 10
50.360389
 20
-31.775446
 30
0.0
 10
49.848730
 20
-31.775446
 30
0.0
 10
49.433440
 20
-31.535678
 30
0.0
  0
SPLINE
  5
169
100
AcDbEntity
  8
0
 62
7
100
AcDbSpline
 70
8
 71
3
 72
8
 73
4
 74
0
 40
0
 40
0
 40
0
 40
0
 40
1
 40
1
 40
1
 40
1
 10
49.433440
 20
-31.535678
 30
0.0
 10
49.018149
 20
-31.295910
 30
0.0
 10
48.762320
 20
-30.852801
 30
0.0
 10
48.762320
 20
-30.373265
 30
0.0
  0
SPLINE
  5
16a
100
AcDbEntity
  8
0
 62
7
100
AcDbSpline
 70
8
 71
3
 72
8
 73
4
 74
0
 40
0
 40
0
 40
0
 40
0
 40
1
 40
1
 40
1
 40
1
 10
48.762320
 20
-30.373265
 30
0.0
 10
48.762320
 20
-29.893729
 30
0.0
 10
49.018149
 20
-29.450620
 30
0.0
 10
49.433440
 20
-29.210852
 30
0.0
  0
SPLINE
  5
16b
100
AcDbEntity
  8
0
 62
7
100
AcDbSpline
 70
8
 71
3
 72
8
 73
4
 74
0
 40
0
 40
0
 40
0
 40
0
 40
1
 40
1
 40
1
 40
1
 10
49.433440
 20
-29.210852
 30
0.0
 10
49.848730
 20
-28.971084
 30
0.0
 10
50.360389
 20
-28.971084
 30
0.0
 10
50.775679
 20
-29.210852
 30
0.0
  0
SPLINE
  5
16c
100
AcDbEntity
  8
0
 62
7
100
AcDbSpline
 70
8
 71
3
 72
8
 73
4
 74
0
 40
0
 40
0
 40
0
 40
0
 40
1
 40
1
 40
1
 40
1
 10
50.775679
 20
-29.210852
 30
0.0
 10
51.190969
 20
-29.450620
 30
0.0
 10
51.446798
 20
-29.893729
 30
0.0
 10
51.446798
 20
-30.373265
 30
0.0
  0
LINE
  5
16d
100
AcDbEntity
  8
0
 62
7
100
AcDbLine
 10
51.446798
 20
-30.373265
 30
0.0
 11
51.446798
 21
-30.373265
 31
0.0
  0
SPLINE
  5
16e
100
AcDbEntity
  8
0
 62
7
100
AcDbSpline
 70
8
 71
3
 72
8
 73
4
 74
0
 40
0
 40
0
 40
0
 40
0
 40
1
 40
1
 40
1
 40
1
 10
61.606779
 20
-30.373265
 30
0.0
 10
61.606779
 20
-30.852801
 30
0.0
 10
61.350949
 20
-31.295910
 30
0.0
 10
60.935659
 20
-31.535678
 30
0.0
  0
SPLINE
  5
16f
100
AcDbEntity
  8
0
 62
7
100
AcDbSpline
 70
8
 71
3
 72
8
 73
4
 74
0
 40
0
 40
0
 40
0
 40
0
 40
1
 40
1
 40
1
 40
1
 10
60.935659
 20
-31.535678
 30
0.0
 10
60.520369
 20
-31.775446
 30
0.0
 10
60.008710
 20
-31.775446
 30
0.0
 10
59.593420
 20
-31.535678
 30
0.0
  0
SPLINE
  5
170
100
AcDbEntity
  8
0
 62
7
100
AcDbSpline
 70
8
 71
3
 72
8
 73
4
 74
0
 40
0
 40
0
 40
0
 40
0
 40
1
 40
1
 40
1
 40
1
 10
59.593420
 20
-31.535678
 30
0.0
 10
59.178130
 20
-31.295910
 30
0.0
 10
58.922300
 20
-30.852801
 30
0.0
 10
58.922300
 20
-30.373265
 30
0.0
  0
SPLINE
  5
171
100
AcDbEntity
  8
0
 62
7
100
AcDbSpline
 70
8
 71
3
 72
8
 73
4
 74
0
 40
0
 40
0
 40
0
 40
0
 40
1
 40
1
 40
1
 40
1
 10
58.922300
 20
-30.373265
 30
0.0
 10
58.922300
 20
-29.893729
 30
0.0
 10
59.178130
 20
-29.450620
 30
0.0
 10
59.593420
 20
-29.210852
 30
0.0
  0
SPLINE
  5
172
100
AcDbEntity
  8
0
 62
7
100
AcDbSpline
 70
8
 71
3
 72
8
 73
4
 74
0
 40
0
 40
0
 40
0
 40
0
 40
1
 40
1
 40
1
 40
1
 10
59.593420
 20
-29.210852
 30
0.0
 10
60.008710
 20
-28.971084
 30
0.0
 10
60.520369
 20
-28.971084
 30
0.0
 10
60.935659
 20
-29.210852
 30
0.0
  0
SPLINE
  5
173
100
AcDbEntity
  8
0
 62
7
100
AcDbSpline
 70
8
 71
3
 72
8
 73
4
 74
0
 40
0
 40
0
 40
0
 40
0
 40
1
 40
1
 40
1
 40
1
 10
60.935659
 20
-29.210852
 30
0.0
 10
61.350949
 20
-29.450620
 30
0.0
 10
61.606779
 20
-29.893729
 30
0.0
 10
61.606779
 20
-30.373265
 30
0.0
  0
LINE
  5
174
100
AcDbEntity
  8
0
 62
7
100
AcDbLine
 10
61.606779
 20
-30.373265
 30
0.0
 11
61.606779
 21
-30.373265
 31
0.0
  0
SPLINE
  5
175
100
AcDbEntity
  8
0
 62
7
100
AcDbSpline
 70
8
 71
3
 72
8
 73
4
 74
0
 40
0
 40
0
 40
0
 40
0
 40
1
 40
1
 40
1
 40
1
 10
20.966819
 20
-40.533256
 30
0.0
 10
20.966819
 20
-41.012791
 30
0.0
 10
20.710989
 20
-41.455901
 30
0.0
 10
20.295699
 20
-41.695669
 30
0.0
  0
SPLINE
  5
176
100
AcDbEntity
  8
0
 62
7
100
AcDbSpline
 70
8
 71
3
 72
8
 73
4
 74
0
 40
0
 40
0
 40
0
 40
0
 40
1
 40
1
 40
1
 40
1
 10
20.295699
 20
-41.695669
 30
0.0
 10
19.880409
 20
-41.935436
 30
0.0
 10
19.368750
 20
-41.935436
 30
0.0
 10
18.953460
 20
-41.695669
 30
0.0
  0
SPLINE
  5
177
100
AcDbEntity
  8
0
 62
7
100
AcDbSpline
 70
8
 71
3
 72
8
 73
4
 74
0
 40
0
 40
0
 40
0
 40
0
 40
1
 40
1
 40
1
 40
1
 10
18.953460
 20
-41.695669
 30
0.0
 10
18.538170
 20
-41.455901
 30
0.0
 10
18.282340
 20
-41.012791
 30
0.0
 10
18.282340
 20
-40.533256
 30
0.0
  0
SPLINE
  5
178
100
AcDbEntity
  8
0
 62
7
100
AcDbSpline
 70
8
 71
3
 72
8
 73
4
 74
0
 40
0
 40
0
 40
0
 40
0
 40
1
 40
1
 40
1
 40
1
 10
18.282340
 20
-40.533256
 30
0.0
 10
18.282340
 20
-40.053720
 30
0.0
 10
18.538170
 20
-39.610611
 30
0.0
 10
18.953460
 20
-39.370843
 30
0.0
  0
SPLINE
  5
179
100
AcDbEntity
  8
0
 62
7
100
AcDbSpline
 70
8
 71
3
 72
8
 73
4
 74
0
 40
0
 40
0
 40
0
 40
0
 40
1
 40
1
 40
1
 40
1
 10
18.953460
 20
-39.370843
 30
0.0
 10
19.368750
 20
-39.131075
 30
0.0
 10
19.880409
 20
-39.131075
 30
0.0
 10
20.295699
 20
-39.370843
 30
0.0
  0
SPLINE
  5
17a
100
AcDbEntity
  8
0
 62
7
100
AcDbSpline
 70
8
 71
3
 72
8
 73
4
 74
0
 40
0
 40
0
 40
0
 40
0
 40
1
 40
1
 40
1
 40
1
 10
20.295699
 20
-39.370843
 30
0.0
 10
20.710989
 20
-39.610611
 30
0.0
 10
20.966819
 20
-40.053720
 30
0.0
 10
20.966819
 20
-40.533256
 30
0.0
  0
LINE
  5
17b
100
AcDbEntity
  8
0
 62
7
100
AcDbLine
 10
20.966819
 20
-40.533256
 30
0.0
 11
20.966819
 21
-40.533256
 31
0.0
  0
SPLINE
  5
17c
100
AcDbEntity
  8
0
 62
7
100
AcDbSpline
 70
8
 71
3
 72
8
 73
4
 74
0
 40
0
 40
0
 40
0
 40
0
 40
1
 40
1
 40
1
 40
1
 10
31.126823
 20
-40.533256
 30
0.0
 10
31.126823
 20
-41.012791
 30
0.0
 10
30.870993
 20
-41.455901
 30
0.0
 10
30.455703
 20
-41.695669
 30
0.0
  0
SPLINE
  5
17d
100
AcDbEntity
  8
0
 62
7
100
AcDbSpline
 70
8
 71
3
 72
8
 73
4
 74
0
 40
0
 40
0
 40
0
 40
0
 40
1
 40
1
 40
1
 40
1
 10
30.455703
 20
-41.695669
 30
0.0
 10
30.040413
 20
-41.935436
 30
0.0
 10
29.528754
 20
-41.935436
 30
0.0
 10
29.113464
 20
-41.695669
 30
0.0
  0
SPLINE
  5
17e
100
AcDbEntity
  8
0
 62
7
100
AcDbSpline
 70
8
 71
3
 72
8
 73
4
 74
0
 40
0
 40
0
 40
0
 40
0
 40
1
 40
1
 40
1
 40
1
 10
29.113464
 20
-41.695669
 30
0.0
 10
28.698174
 20
-41.455901
 30
0.0
 10
28.442344
 20
-41.012791
 30
0.0
 10
28.442344
 20
-40.533256
 30
0.0
  0
SPLINE
  5
17f
100
AcDbEntity
  8
0
 62
7
100
AcDbSpline
 70
8
 71
3
 72
8
 73
4
 74
0
 40
0
 40
0
 40
0
 40
0
 40
1
 40
1
 40
1
 40
1
 10
28.442344
 20
-40.533256
 30
0.0
 10
28.442344
 20
-40.053720
 30
0.0
 10
28.698174
 20
-39.610611
 30
0.0
 10
29.113464
 20
-39.370843
 30
0.0
  0
SPLINE
  5
180
100
AcDbEntity
  8
0
 62
7
100
AcDbSpline
 70
8
 71
3
 72
8
 73
4
 74
0
 40
0
 40
0
 40
0
 40
0
 40
1
 40
1
 40
1
 40
1
 10
29.113464
 20
-39.370843
 30
0.0
 10
29.528754
 20
-39.131075
 30
0.0
 10
30.040413
 20
-39.131075
 30
0.0
 10
30.455703
 20
-39.370843
 30
0.0
  0
SPLINE
  5
181
100
AcDbEntity
  8
0
 62
7
100
AcDbSpline
 70
8
 71
3
 72
8
 73
4
 74
0
 40
0
 40
0
 40
0
 40
0
 40
1
 40
1
 40
1
 40
1
 10
30.455703
 20
-39.370843
 30
0.0
 10
30.870993
 20
-39.610611
 30
0.0
 10
31.126823
 20
-40.053720
 30
0.0
 10
31.126823
 20
-40.533256
 30
0.0
  0
LINE
  5
182
100
AcDbEntity
  8
0
 62
7
100
AcDbLine
 10
31.126823
 20
-40.533256
 30
0.0
 11
31.126823
 21
-40.533256
 31
0.0
  0
SPLINE
  5
183
100
AcDbEntity
  8
0
 62
7
100
AcDbSpline
 70
8
 71
3
 72
8
 73
4
 74
0
 40
0
 40
0
 40
0
 40
0
 40
1
 40
1
 40
1
 40
1
 10
41.286813
 20
-40.533256
 30
0.0
 10
41.286813
 20
-41.012791
 30
0.0
 10
41.030984
 20
-41.455901
 30
0.0
 10
40.615694
 20
-41.695669
 30
0.0
  0
SPLINE
  5
184
100
AcDbEntity
  8
0
 62
7
100
AcDbSpline
 70
8
 71
3
 72
8
 73
4
 74
0
 40
0
 40
0
 40
0
 40
0
 40
1
 40
1
 40
1
 40
1
 10
40.615694
 20
-41.695669
 30
0.0
 10
40.200403
 20
-41.935436
 30
0.0
 10
39.688745
 20
-41.935436
 30
0.0
 10
39.273454
 20
-41.695669
 30
0.0
  0
SPLINE
  5
185
100
AcDbEntity
  8
0
 62
7
100
AcDbSpline
 70
8
 71
3
 72
8
 73
4
 74
0
 40
0
 40
0
 40
0
 40
0
 40
1
 40
1
 40
1
 40
1
 10
39.273454
 20
-41.695669
 30
0.0
 10
38.858164
 20
-41.455901
 30
0.0
 10
38.602335
 20
-41.012791
 30
0.0
 10
38.602335
 20
-40.533256
 30
0.0
  0
SPLINE
  5
186
100
AcDbEntity
  8
0
 62
7
100
AcDbSpline
 70
8
 71
3
 72
8
 73
4
 74
0
 40
0
 40
0
 40
0
 40
0
 40
1
 40
1
 40
1
 40
1
 10
38.602335
 20
-40.533256
 30
0.0
 10
38.602335
 20
-40.053720
 30
0.0
 10
38.858164
 20
-39.610611
 30
0.0
 10
39.273454
 20
-39.370843
 30
0.0
  0
SPLINE
  5
187
100
AcDbEntity
  8
0
 62
7
100
AcDbSpline
 70
8
 71
3
 72
8
 73
4
 74
0
 40
0
 40
0
 40
0
 40
0
 40
1
 40
1
 40
1
 40
1
 10
39.273454
 20
-39.370843
 30
0.0
 10
39.688745
 20
-39.131075
 30
0.0
 10
40.200403
 20
-39.131075
 30
0.0
 10
40.615694
 20
-39.370843
 30
0.0
  0
SPLINE
  5
188
100
AcDbEntity
  8
0
 62
7
100
AcDbSpline
 70
8
 71
3
 72
8
 73
4
 74
0
 40
0
 40
0
 40
0
 40
0
 40
1
 40
1
 40
1
 40
1
 10
40.615694
 20
-39.370843
 30
0.0
 10
41.030984
 20
-39.610611
 30
0.0
 10
41.286813
 20
-40.053720
 30
0.0
 10
41.286813
 20
-40.533256
 30
0.0
  0
LINE
  5
189
100
AcDbEntity
  8
0
 62
7
100
AcDbLine
 10
41.286813
 20
-40.533256
 30
0.0
 11
41.286813
 21
-40.533256
 31
0.0
  0
SPLINE
  5
18a
100
AcDbEntity
  8
0
 62
7
100
AcDbSpline
 70
8
 71
3
 72
8
 73
4
 74
0
 40
0
 40
0
 40
0
 40
0
 40
1
 40
1
 40
1
 40
1
 10
51.446798
 20
-40.533256
 30
0.0
 10
51.446798
 20
-41.012791
 30
0.0
 10
51.190969
 20
-41.455901
 30
0.0
 10
50.775679
 20
-41.695669
 30
0.0
  0
SPLINE
  5
18b
100
AcDbEntity
  8
0
 62
7
100
AcDbSpline
 70
8
 71
3
 72
8
 73
4
 74
0
 40
0
 40
0
 40
0
 40
0
 40
1
 40
1
 40
1
 40
1
 10
50.775679
 20
-41.695669
 30
0.0
 10
50.360389
 20
-41.935436
 30
0.0
 10
49.848730
 20
-41.935436
 30
0.0
 10
49.433440
 20
-41.695669
 30
0.0
  0
SPLINE
  5
18c
100
AcDbEntity
  8
0
 62
7
100
AcDbSpline
 70
8
 71
3
 72
8
 73
4
 74
0
 40
0
 40
0
 40
0
 40
0
 40
1
 40
1
 40
1
 40
1
 10
49.433440
 20
-41.695669
 30
0.0
 10
49.018149
 20
-41.455901
 30
0.0
 10
48.762320
 20
-41.012791
 30
0.0
 10
48.762320
 20
-40.533256
 30
0.0
  0
SPLINE
  5
18d
100
AcDbEntity
  8
0
 62
7
100
AcDbSpline
 70
8
 71
3
 72
8
 73
4
 74
0
 40
0
 40
0
 40
0
 40
0
 40
1
 40
1
 40
1
 40
1
 10
48.762320
 20
-40.533256
 30
0.0
 10
48.762320
 20
-40.053720
 30
0.0
 10
49.018149
 20
-39.610611
 30
0.0
 10
49.433440
 20
-39.370843
 30
0.0
  0
SPLINE
  5
18e
100
AcDbEntity
  8
0
 62
7
100
AcDbSpline
 70
8
 71
3
 72
8
 73
4
 74
0
 40
0
 40
0
 40
0
 40
0
 40
1
 40
1
 40
1
 40
1
 10
49.433440
 20
-39.370843
 30
0.0
 10
49.848730
 20
-39.131075
 30
0.0
 10
50.360389
 20
-39.131075
 30
0.0
 10
50.775679
 20
-39.370843
 30
0.0
  0
SPLINE
  5
18f
100
AcDbEntity
  8
0
 62
7
100
AcDbSpline
 70
8
 71
3
 72
8
 73
4
 74
0
 40
0
 40
0
 40
0
 40
0
 40
1
 40
1
 40
1
 40
1
 10
50.775679
 20
-39.370843
 30
0.0
 10
51.190969
 20
-39.610611
 30
0.0
 10
51.446798
 20
-40.053720
 30
0.0
 10
51.446798
 20
-40.533256
 30
0.0
  0
LINE
  5
190
100
AcDbEntity
  8
0
 62
7
100
AcDbLine
 10
51.446798
 20
-40.533256
 30
0.0
 11
51.446798
 21
-40.533256
 31
0.0
  0
SPLINE
  5
191
100
AcDbEntity
  8
0
 62
7
100
AcDbSpline
 70
8
 71
3
 72
8
 73
4
 74
0
 40
0
 40
0
 40
0
 40
0
 40
1
 40
1
 40
1
 40
1
 10
61.606779
 20
-40.533256
 30
0.0
 10
61.606779
 20
-41.012791
 30
0.0
 10
61.350949
 20
-41.455901
 30
0.0
 10
60.935659
 20
-41.695669
 30
0.0
  0
SPLINE
  5
192
100
AcDbEntity
  8
0
 62
7
100
AcDbSpline
 70
8
 71
3
 72
8
 73
4
 74
0
 40
0
 40
0
 40
0
 40
0
 40
1
 40
1
 40
1
 40
1
 10
60.935659
 20
-41.695669
 30
0.0
 10
60.520369
 20
-41.935436
 30
0.0
 10
60.008710
 20
-41.935436
 30
0.0
 10
59.593420
 20
-41.695669
 30
0.0
  0
SPLINE
  5
193
100
AcDbEntity
  8
0
 62
7
100
AcDbSpline
 70
8
 71
3
 72
8
 73
4
 74
0
 40
0
 40
0
 40
0
 40
0
 40
1
 40
1
 40
1
 40
1
 10
59.593420
 20
-41.695669
 30
0.0
 10
59.178130
 20
-41.455901
 30
0.0
 10
58.922300
 20
-41.012791
 30
0.0
 10
58.922300
 20
-40.533256
 30
0.0
  0
SPLINE
  5
194
100
AcDbEntity
  8
0
 62
7
100
AcDbSpline
 70
8
 71
3
 72
8
 73
4
 74
0
 40
0
 40
0
 40
0
 40
0
 40
1
 40
1
 40
1
 40
1
 10
58.922300
 20
-40.533256
 30
0.0
 10
58.922300
 20
-40.053720
 30
0.0
 10
59.178130
 20
-39.610611
 30
0.0
 10
59.593420
 20
-39.370843
 30
0.0
  0
SPLINE
  5
195
100
AcDbEntity
  8
0
 62
7
100
AcDbSpline
 70
8
 71
3
 72
8
 73
4
 74
0
 40
0
 40
0
 40
0
 40
0
 40
1
 40
1
 40
1
 40
1
 10
59.593420
 20
-39.370843
 30
0.0
 10
60.008710
 20
-39.131075
 30
0.0
 10
60.520369
 20
-39.131075
 30
0.0
 10
60.935659
 20
-39.370843
 30
0.0
  0
SPLINE
  5
196
100
AcDbEntity
  8
0
 62
7
100
AcDbSpline
 70
8
 71
3
 72
8
 73
4
 74
0
 40
0
 40
0
 40
0
 40
0
 40
1
 40
1
 40
1
 40
1
 10
60.935659
 20
-39.370843
 30
0.0
 10
61.350949
 20
-39.610611
 30
0.0
 10
61.606779
 20
-40.053720
 30
0.0
 10
61.606779
 20
-40.533256
 30
0.0
  0
LINE
  5
197
100
AcDbEntity
  8
0
 62
7
100
AcDbLine
 10
61.606779
 20
-40.533256
 30
0.0
 11
61.606779
 21
-40.533256
 31
0.0
  0
SPLINE
  5
198
100
AcDbEntity
  8
0
 62
7
100
AcDbSpline
 70
8
 71
3
 72
8
 73
4
 74
0
 40
0
 40
0
 40
0
 40
0
 40
1
 40
1
 40
1
 40
1
 10
20.966819
 20
-50.693246
 30
0.0
 10
20.966819
 20
-51.172782
 30
0.0
 10
20.710989
 20
-51.615891
 30
0.0
 10
20.295699
 20
-51.855659
 30
0.0
  0
SPLINE
  5
199
100
AcDbEntity
  8
0
 62
7
100
AcDbSpline
 70
8
 71
3
 72
8
 73
4
 74
0
 40
0
 40
0
 40
0
 40
0
 40
1
 40
1
 40
1
 40
1
 10
20.295699
 20
-51.855659
 30
0.0
 10
19.880409
 20
-52.095427
 30
0.0
 10
19.368750
 20
-52.095427
 30
0.0
 10
18.953460
 20
-51.855659
 30
0.0
  0
SPLINE
  5
19a
100
AcDbEntity
  8
0
 62
7
100
AcDbSpline
 70
8
 71
3
 72
8
 73
4
 74
0
 40
0
 40
0
 40
0
 40
0
 40
1
 40
1
 40
1
 40
1
 10
18.953460
 20
-51.855659
 30
0.0
 10
18.538170
 20
-51.615891
 30
0.0
 10
18.282340
 20
-51.172782
 30
0.0
 10
18.282340
 20
-50.693246
 30
0.0
  0
SPLINE
  5
19b
100
AcDbEntity
  8
0
 62
7
100
AcDbSpline
 70
8
 71
3
 72
8
 73
4
 74
0
 40
0
 40
0
 40
0
 40
0
 40
1
 40
1
 40
1
 40
1
 10
18.282340
 20
-50.693246
 30
0.0
 10
18.282340
 20
-50.213710
 30
0.0
 10
18.538170
 20
-49.770601
 30
0.0
 10
18.953460
 20
-49.530833
 30
0.0
  0
SPLINE
  5
19c
100
AcDbEntity
  8
0
 62
7
100
AcDbSpline
 70
8
 71
3
 72
8
 73
4
 74
0
 40
0
 40
0
 40
0
 40
0
 40
1
 40
1
 40
1
 40
1
 10
18.953460
 20
-49.530833
 30
0.0
 10
19.368750
 20
-49.291065
 30
0.0
 10
19.880409
 20
-49.291065
 30
0.0
 10
20.295699
 20
-49.530833
 30
0.0
  0
SPLINE
  5
19d
100
AcDbEntity
  8
0
 62
7
100
AcDbSpline
 70
8
 71
3
 72
8
 73
4
 74
0
 40
0
 40
0
 40
0
 40
0
 40
1
 40
1
 40
1
 40
1
 10
20.295699
 20
-49.530833
 30
0.0
 10
20.710989
 20
-49.770601
 30
0.0
 10
20.966819
 20
-50.213710
 30
0.0
 10
20.966819
 20
-50.693246
 30
0.0
  0
LINE
  5
19e
100
AcDbEntity
  8
0
 62
7
100
AcDbLine
 10
20.966819
 20
-50.693246
 30
0.0
 11
20.966819
 21
-50.693246
 31
0.0
  0
SPLINE
  5
19f
100
AcDbEntity
  8
0
 62
7
100
AcDbSpline
 70
8
 71
3
 72
8
 73
4
 74
0
 40
0
 40
0
 40
0
 40
0
 40
1
 40
1
 40
1
 40
1
 10
31.126823
 20
-50.693246
 30
0.0
 10
31.126823
 20
-51.172782
 30
0.0
 10
30.870993
 20
-51.615891
 30
0.0
 10
30.455703
 20
-51.855659
 30
0.0
  0
SPLINE
  5
1a0
100
AcDbEntity
  8
0
 62
7
100
AcDbSpline
 70
8
 71
3
 72
8
 73
4
 74
0
 40
0
 40
0
 40
0
 40
0
 40
1
 40
1
 40
1
 40
1
 10
30.455703
 20
-51.855659
 30
0.0
 10
30.040413
 20
-52.095427
 30
0.0
 10
29.528754
 20
-52.095427
 30
0.0
 10
29.113464
 20
-51.855659
 30
0.0
  0
SPLINE
  5
1a1
100
AcDbEntity
  8
0
 62
7
100
AcDbSpline
 70
8
 71
3
 72
8
 73
4
 74
0
 40
0
 40
0
 40
0
 40
0
 40
1
 40
1
 40
1
 40
1
 10
29.113464
 20
-51.855659
 30
0.0
 10
28.698174
 20
-51.615891
 30
0.0
 10
28.442344
 20
-51.172782
 30
0.0
 10
28.442344
 20
-50.693246
 30
0.0
  0
SPLINE
  5
1a2
100
AcDbEntity
  8
0
 62
7
100
AcDbSpline
 70
8
 71
3
 72
8
 73
4
 74
0
 40
0
 40
0
 40
0
 40
0
 40
1
 40
1
 40
1
 40
1
 10
28.442344
 20
-50.693246
 30
0.0
 10
28.442344
 20
-50.213710
 30
0.0
 10
28.698174
 20
-49.770601
 30
0.0
 10
29.113464
 20
-49.530833
 30
0.0
  0
SPLINE
  5
1a3
100
AcDbEntity
  8
0
 62
7
100
AcDbSpline
 70
8
 71
3
 72
8
 73
4
 74
0
 40
0
 40
0
 40
0
 40
0
 40
1
 40
1
 40
1
 40
1
 10
29.113464
 20
-49.530833
 30
0.0
 10
29.528754
 20
-49.291065
 30
0.0
 10
30.040413
 20
-49.291065
 30
0.0
 10
30.455703
 20
-49.530833
 30
0.0
  0
SPLINE
  5
1a4
100
AcDbEntity
  8
0
 62
7
100
AcDbSpline
 70
8
 71
3
 72
8
 73
4
 74
0
 40
0
 40
0
 40
0
 40
0
 40
1
 40
1
 40
1
 40
1
 10
30.455703
 20
-49.530833
 30
0.0
 10
30.870993
 20
-49.770601
 30
0.0
 10
31.126823
 20
-50.213710
 30
0.0
 10
31.126823
 20
-50.693246
 30
0.0
  0
LINE
  5
1a5
100
AcDbEntity
  8
0
 62
7
100
AcDbLine
 10
31.126823
 20
-50.693246
 30
0.0
 11
31.126823
 21
-50.693246
 31
0.0
  0
SPLINE
  5
1a6
100
AcDbEntity
  8
0
 62
7
100
AcDbSpline
 70
8
 71
3
 72
8
 73
4
 74
0
 40
0
 40
0
 40
0
 40
0
 40
1
 40
1
 40
1
 40
1
 10
41.286813
 20
-50.693246
 30
0.0
 10
41.286813
 20
-51.172782
 30
0.0
 10
41.030984
 20
-51.615891
 30
0.0
 10
40.615694
 20
-51.855659
 30
0.0
  0
SPLINE
  5
1a7
100
AcDbEntity
  8
0
 62
7
100
AcDbSpline
 70
8
 71
3
 72
8
 73
4
 74
0
 40
0
 40
0
 40
0
 40
0
 40
1
 40
1
 40
1
 40
1
 10
40.615694
 20
-51.855659
 30
0.0
 10
40.200403
 20
-52.095427
 30
0.0
 10
39.688745
 20
-52.095427
 30
0.0
 10
39.273454
 20
-51.855659
 30
0.0
  0
SPLINE
  5
1a8
100
AcDbEntity
  8
0
 62
7
100
AcDbSpline
 70
8
 71
3
 72
8
 73
4
 74
0
 40
0
 40
0
 40
0
 40
0
 40
1
 40
1
 40
1
 40
1
 10
39.273454
 20
-51.855659
 30
0.0
 10
38.858164
 20
-51.615891
 30
0.0
 10
38.602335
 20
-51.172782
 30
0.0
 10
38.602335
 20
-50.693246
 30
0.0
  0
SPLINE
  5
1a9
100
AcDbEntity
  8
0
 62
7
100
AcDbSpline
 70
8
 71
3
 72
8
 73
4
 74
0
 40
0
 40
0
 40
0
 40
0
 40
1
 40
1
 40
1
 40
1
 10
38.602335
 20
-50.693246
 30
0.0
 10
38.602335
 20
-50.213710
 30
0.0
 10
38.858164
 20
-49.770601
 30
0.0
 10
39.273454
 20
-49.530833
 30
0.0
  0
SPLINE
  5
1aa
100
AcDbEntity
  8
0
 62
7
100
AcDbSpline
 70
8
 71
3
 72
8
 73
4
 74
0
 40
0
 40
0
 40
0
 40
0
 40
1
 40
1
 40
1
 40
1
 10
39.273454
 20
-49.530833
 30
0.0
 10
39.688745
 20
-49.291065
 30
0.0
 10
40.200403
 20
-49.291065
 30
0.0
 10
40.615694
 20
-49.530833
 30
0.0
  0
SPLINE
  5
1ab
100
AcDbEntity
  8
0
 62
7
100
AcDbSpline
 70
8
 71
3
 72
8
 73
4
 74
0
 40
0
 40
0
 40
0
 40
0
 40
1
 40
1
 40
1
 40
1
 10
40.615694
 20
-49.530833
 30
0.0
 10
41.030984
 20
-49.770601
 30
0.0
 10
41.286813
 20
-50.213710
 30
0.0
 10
41.286813
 20
-50.693246
 30
0.0
  0
LINE
  5
1ac
100
AcDbEntity
  8
0
 62
7
100
AcDbLine
 10
41.286813
 20
-50.693246
 30
0.0
 11
41.286813
 21
-50.693246
 31
0.0
  0
SPLINE
  5
1ad
100
AcDbEntity
  8
0
 62
7
100
AcDbSpline
 70
8
 71
3
 72
8
 73
4
 74
0
 40
0
 40
0
 40
0
 40
0
 40
1
 40
1
 40
1
 40
1
 10
51.446798
 20
-50.693246
 30
0.0
 10
51.446798
 20
-51.172782
 30
0.0
 10
51.190969
 20
-51.615891
 30
0.0
 10
50.775679
 20
-51.855659
 30
0.0
  0
SPLINE
  5
1ae
100
AcDbEntity
  8
0
 62
7
100
AcDbSpline
 70
8
 71
3
 72
8
 73
4
 74
0
 40
0
 40
0
 40
0
 40
0
 40
1
 40
1
 40
1
 40
1
 10
50.775679
 20
-51.855659
 30
0.0
 10
50.360389
 20
-52.095427
 30
0.0
 10
49.848730
 20
-52.095427
 30
0.0
 10
49.433440
 20
-51.855659
 30
0.0
  0
SPLINE
  5
1af
100
AcDbEntity
  8
0
 62
7
100
AcDbSpline
 70
8
 71
3
 72
8
 73
4
 74
0
 40
0
 40
0
 40
0
 40
0
 40
1
 40
1
 40
1
 40
1
 10
49.433440
 20
-51.855659
 30
0.0
 10
49.018149
 20
-51.615891
 30
0.0
 10
48.762320
 20
-51.172782
 30
0.0
 10
48.762320
 20
-50.693246
 30
0.0
  0
SPLINE
  5
1b0
100
AcDbEntity
  8
0
 62
7
100
AcDbSpline
 70
8
 71
3
 72
8
 73
4
 74
0
 40
0
 40
0
 40
0
 40
0
 40
1
 40
1
 40
1
 40
1
 10
48.762320
 20
-50.693246
 30
0.0
 10
48.762320
 20
-50.213710
 30
0.0
 10
49.018149
 20
-49.770601
 30
0.0
 10
49.433440
 20
-49.530833
 30
0.0
  0
SPLINE
  5
1b1
100
AcDbEntity
  8
0
 62
7
100
AcDbSpline
 70
8
 71
3
 72
8
 73
4
 74
0
 40
0
 40
0
 40
0
 40
0
 40
1
 40
1
 40
1
 40
1
 10
49.433440
 20
-49.530833
 30
0.0
 10
49.848730
 20
-49.291065
 30
0.0
 10
50.360389
 20
-49.291065
 30
0.0
 10
50.775679
 20
-49.530833
 30
0.0
  0
SPLINE
  5
1b2
100
AcDbEntity
  8
0
 62
7
100
AcDbSpline
 70
8
 71
3
 72
8
 73
4
 74
0
 40
0
 40
0
 40
0
 40
0
 40
1
 40
1
 40
1
 40
1
 10
50.775679
 20
-49.530833
 30
0.0
 10
51.190969
 20
-49.770601
 30
0.0
 10
51.446798
 20
-50.213710
 30
0.0
 10
51.446798
 20
-50.693246
 30
0.0
  0
LINE
  5
1b3
100
AcDbEntity
  8
0
 62
7
100
AcDbLine
 10
51.446798
 20
-50.693246
 30
0.0
 11
51.446798
 21
-50.693246
 31
0.0
  0
SPLINE
  5
1b4
100
AcDbEntity
  8
0
 62
7
100
AcDbSpline
 70
8
 71
3
 72
8
 73
4
 74
0
 40
0
 40
0
 40
0
 40
0
 40
1
 40
1
 40
1
 40
1
 10
61.606779
 20
-50.693246
 30
0.0
 10
61.606779
 20
-51.172782
 30
0.0
 10
61.350949
 20
-51.615891
 30
0.0
 10
60.935659
 20
-51.855659
 30
0.0
  0
SPLINE
  5
1b5
100
AcDbEntity
  8
0
 62
7
100
AcDbSpline
 70
8
 71
3
 72
8
 73
4
 74
0
 40
0
 40
0
 40
0
 40
0
 40
1
 40
1
 40
1
 40
1
 10
60.935659
 20
-51.855659
 30
0.0
 10
60.520369
 20
-52.095427
 30
0.0
 10
60.008710
 20
-52.095427
 30
0.0
 10
59.593420
 20
-51.855659
 30
0.0
  0
SPLINE
  5
1b6
100
AcDbEntity
  8
0
 62
7
100
AcDbSpline
 70
8
 71
3
 72
8
 73
4
 74
0
 40
0
 40
0
 40
0
 40
0
 40
1
 40
1
 40
1
 40
1
 10
59.593420
 20
-51.855659
 30
0.0
 10
59.178130
 20
-51.615891
 30
0.0
 10
58.922300
 20
-51.172782
 30
0.0
 10
58.922300
 20
-50.693246
 30
0.0
  0
SPLINE
  5
1b7
100
AcDbEntity
  8
0
 62
7
100
AcDbSpline
 70
8
 71
3
 72
8
 73
4
 74
0
 40
0
 40
0
 40
0
 40
0
 40
1
 40
1
 40
1
 40
1
 10
58.922300
 20
-50.693246
 30
0.0
 10
58.922300
 20
-50.213710
 30
0.0
 10
59.178130
 20
-49.770601
 30
0.0
 10
59.593420
 20
-49.530833
 30
0.0
  0
SPLINE
  5
1b8
100
AcDbEntity
  8
0
 62
7
100
AcDbSpline
 70
8
 71
3
 72
8
 73
4
 74
0
 40
0
 40
0
 40
0
 40
0
 40
1
 40
1
 40
1
 40
1
 10
59.593420
 20
-49.530833
 30
0.0
 10
60.008710
 20
-49.291065
 30
0.0
 10
60.520369
 20
-49.291065
 30
0.0
 10
60.935659
 20
-49.530833
 30
0.0
  0
SPLINE
  5
1b9
100
AcDbEntity
  8
0
 62
7
100
AcDbSpline
 70
8
 71
3
 72
8
 73
4
 74
0
 40
0
 40
0
 40
0
 40
0
 40
1
 40
1
 40
1
 40
1
 10
60.935659
 20
-49.530833
 30
0.0
 10
61.350949
 20
-49.770601
 30
0.0
 10
61.606779
 20
-50.213710
 30
0.0
 10
61.606779
 20
-50.693246
 30
0.0
  0
LINE
  5
1ba
100
AcDbEntity
  8
0
 62
7
100
AcDbLine
 10
61.606779
 20
-50.693246
 30
0.0
 11
61.606779
 21
-50.693246
 31
0.0
  0
SPLINE
  5
1bb
100
AcDbEntity
  8
0
 62
7
100
AcDbSpline
 70
8
 71
3
 72
8
 73
4
 74
0
 40
0
 40
0
 40
0
 40
0
 40
1
 40
1
 40
1
 40
1
 10
20.966819
 20
-60.853236
 30
0.0
 10
20.966819
 20
-61.332772
 30
0.0
 10
20.710989
 20
-61.775882
 30
0.0
 10
20.295699
 20
-62.015649
 30
0.0
  0
SPLINE
  5
1bc
100
AcDbEntity
  8
0
 62
7
100
AcDbSpline
 70
8
 71
3
 72
8
 73
4
 74
0
 40
0
 40
0
 40
0
 40
0
 40
1
 40
1
 40
1
 40
1
 10
20.295699
 20
-62.015649
 30
0.0
 10
19.880409
 20
-62.255417
 30
0.0
 10
19.368750
 20
-62.255417
 30
0.0
 10
18.953460
 20
-62.015649
 30
0.0
  0
SPLINE
  5
1bd
100
AcDbEntity
  8
0
 62
7
100
AcDbSpline
 70
8
 71
3
 72
8
 73
4
 74
0
 40
0
 40
0
 40
0
 40
0
 40
1
 40
1
 40
1
 40
1
 10
18.953460
 20
-62.015649
 30
0.0
 10
18.538170
 20
-61.775882
 30
0.0
 10
18.282340
 20
-61.332772
 30
0.0
 10
18.282340
 20
-60.853236
 30
0.0
  0
SPLINE
  5
1be
100
AcDbEntity
  8
0
 62
7
100
AcDbSpline
 70
8
 71
3
 72
8
 73
4
 74
0
 40
0
 40
0
 40
0
 40
0
 40
1
 40
1
 40
1
 40
1
 10
18.282340
 20
-60.853236
 30
0.0
 10
18.282340
 20
-60.373701
 30
0.0
 10
18.538170
 20
-59.930591
 30
0.0
 10
18.953460
 20
-59.690824
 30
0.0
  0
SPLINE
  5
1bf
100
AcDbEntity
  8
0
 62
7
100
AcDbSpline
 70
8
 71
3
 72
8
 73
4
 74
0
 40
0
 40
0
 40
0
 40
0
 40
1
 40
1
 40
1
 40
1
 10
18.953460
 20
-59.690824
 30
0.0
 10
19.368750
 20
-59.451056
 30
0.0
 10
19.880409
 20
-59.451056
 30
0.0
 10
20.295699
 20
-59.690824
 30
0.0
  0
SPLINE
  5
1c0
100
AcDbEntity
  8
0
 62
7
100
AcDbSpline
 70
8
 71
3
 72
8
 73
4
 74
0
 40
0
 40
0
 40
0
 40
0
 40
1
 40
1
 40
1
 40
1
 10
20.295699
 20
-59.690824
 30
0.0
 10
20.710989
 20
-59.930591
 30
0.0
 10
20.966819
 20
-60.373701
 30
0.0
 10
20.966819
 20
-60.853236
 30
0.0
  0
LINE
  5
1c1
100
AcDbEntity
  8
0
 62
7
100
AcDbLine
 10
20.966819
 20
-60.853236
 30
0.0
 11
20.966819
 21
-60.853236
 31
0.0
  0
SPLINE
  5
1c2
100
AcDbEntity
  8
0
 62
7
100
AcDbSpline
 70
8
 71
3
 72
8
 73
4
 74
0
 40
0
 40
0
 40
0
 40
0
 40
1
 40
1
 40
1
 40
1
 10
31.126823
 20
-60.853236
 30
0.0
 10
31.126823
 20
-61.332772
 30
0.0
 10
30.870993
 20
-61.775882
 30
0.0
 10
30.455703
 20
-62.015649
 30
0.0
  0
SPLINE
  5
1c3
100
AcDbEntity
  8
0
 62
7
100
AcDbSpline
 70
8
 71
3
 72
8
 73
4
 74
0
 40
0
 40
0
 40
0
 40
0
 40
1
 40
1
 40
1
 40
1
 10
30.455703
 20
-62.015649
 30
0.0
 10
30.040413
 20
-62.255417
 30
0.0
 10
29.528754
 20
-62.255417
 30
0.0
 10
29.113464
 20
-62.015649
 30
0.0
  0
SPLINE
  5
1c4
100
AcDbEntity
  8
0
 62
7
100
AcDbSpline
 70
8
 71
3
 72
8
 73
4
 74
0
 40
0
 40
0
 40
0
 40
0
 40
1
 40
1
 40
1
 40
1
 10
29.113464
 20
-62.015649
 30
0.0
 10
28.698174
 20
-61.775882
 30
0.0
 10
28.442344
 20
-61.332772
 30
0.0
 10
28.442344
 20
-60.853236
 30
0.0
  0
SPLINE
  5
1c5
100
AcDbEntity
  8
0
 62
7
100
AcDbSpline
 70
8
 71
3
 72
8
 73
4
 74
0
 40
0
 40
0
 40
0
 40
0
 40
1
 40
1
 40
1
 40
1
 10
28.442344
 20
-60.853236
 30
0.0
 10
28.442344
 20
-60.373701
 30
0.0
 10
28.698174
 20
-59.930591
 30
0.0
 10
29.113464
 20
-59.690824
 30
0.0
  0
SPLINE
  5
1c6
100
AcDbEntity
  8
0
 62
7
100
AcDbSpline
 70
8
 71
3
 72
8
 73
4
 74
0
 40
0
 40
0
 40
0
 40
0
 40
1
 40
1
 40
1
 40
1
 10
29.113464
 20
-59.690824
 30
0.0
 10
29.528754
 20
-59.451056
 30
0.0
 10
30.040413
 20
-59.451056
 30
0.0
 10
30.455703
 20
-59.690824
 30
0.0
  0
SPLINE
  5
1c7
100
AcDbEntity
  8
0
 62
7
100
AcDbSpline
 70
8
 71
3
 72
8
 73
4
 74
0
 40
0
 40
0
 40
0
 40
0
 40
1
 40
1
 40
1
 40
1
 10
30.455703
 20
-59.690824
 30
0.0
 10
30.870993
 20
-59.930591
 30
0.0
 10
31.126823
 20
-60.373701
 30
0.0
 10
31.126823
 20
-60.853236
 30
0.0
  0
LINE
  5
1c8
100
AcDbEntity
  8
0
 62
7
100
AcDbLine
 10
31.126823
 20
-60.853236
 30
0.0
 11
31.126823
 21
-60.853236
 31
0.0
  0
SPLINE
  5
1c9
100
AcDbEntity
  8
0
 62
7
100
AcDbSpline
 70
8
 71
3
 72
8
 73
4
 74
0
 40
0
 40
0
 40
0
 40
0
 40
1
 40
1
 40
1
 40
1
 10
41.286813
 20
-60.853236
 30
0.0
 10
41.286813
 20
-61.332772
 30
0.0
 10
41.030984
 20
-61.775882
 30
0.0
 10
40.615694
 20
-62.015649
 30
0.0
  0
SPLINE
  5
1ca
100
AcDbEntity
  8
0
 62
7
100
AcDbSpline
 70
8
 71
3
 72
8
 73
4
 74
0
 40
0
 40
0
 40
0
 40
0
 40
1
 40
1
 40
1
 40
1
 10
40.615694
 20
-62.015649
 30
0.0
 10
40.200403
 20
-62.255417
 30
0.0
 10
39.688745
 20
-62.255417
 30
0.0
 10
39.273454
 20
-62.015649
 30
0.0
  0
SPLINE
  5
1cb
100
AcDbEntity
  8
0
 62
7
100
AcDbSpline
 70
8
 71
3
 72
8
 73
4
 74
0
 40
0
 40
0
 40
0
 40
0
 40
1
 40
1
 40
1
 40
1
 10
39.273454
 20
-62.015649
 30
0.0
 10
38.858164
 20
-61.775882
 30
0.0
 10
38.602335
 20
-61.332772
 30
0.0
 10
38.602335
 20
-60.853236
 30
0.0
  0
SPLINE
  5
1cc
100
AcDbEntity
  8
0
 62
7
100
AcDbSpline
 70
8
 71
3
 72
8
 73
4
 74
0
 40
0
 40
0
 40
0
 40
0
 40
1
 40
1
 40
1
 40
1
 10
38.602335
 20
-60.853236
 30
0.0
 10
38.602335
 20
-60.373701
 30
0.0
 10
38.858164
 20
-59.930591
 30
0.0
 10
39.273454
 20
-59.690824
 30
0.0
  0
SPLINE
  5
1cd
100
AcDbEntity
  8
0
 62
7
100
AcDbSpline
 70
8
 71
3
 72
8
 73
4
 74
0
 40
0
 40
0
 40
0
 40
0
 40
1
 40
1
 40
1
 40
1
 10
39.273454
 20
-59.690824
 30
0.0
 10
39.688745
 20
-59.451056
 30
0.0
 10
40.200403
 20
-59.451056
 30
0.0
 10
40.615694
 20
-59.690824
 30
0.0
  0
SPLINE
  5
1ce
100
AcDbEntity
  8
0
 62
7
100
AcDbSpline
 70
8
 71
3
 72
8
 73
4
 74
0
 40
0
 40
0
 40
0
 40
0
 40
1
 40
1
 40
1
 40
1
 10
40.615694
 20
-59.690824
 30
0.0
 10
41.030984
 20
-59.930591
 30
0.0
 10
41.286813
 20
-60.373701
 30
0.0
 10
41.286813
 20
-60.853236
 30
0.0
  0
LINE
  5
1cf
100
AcDbEntity
  8
0
 62
7
100
AcDbLine
 10
41.286813
 20
-60.853236
 30
0.0
 11
41.286813
 21
-60.853236
 31
0.0
  0
SPLINE
  5
1d0
100
AcDbEntity
  8
0
 62
7
100
AcDbSpline
 70
8
 71
3
 72
8
 73
4
 74
0
 40
0
 40
0
 40
0
 40
0
 40
1
 40
1
 40
1
 40
1
 10
51.446798
 20
-60.853236
 30
0.0
 10
51.446798
 20
-61.332772
 30
0.0
 10
51.190969
 20
-61.775882
 30
0.0
 10
50.775679
 20
-62.015649
 30
0.0
  0
SPLINE
  5
1d1
100
AcDbEntity
  8
0
 62
7
100
AcDbSpline
 70
8
 71
3
 72
8
 73
4
 74
0
 40
0
 40
0
 40
0
 40
0
 40
1
 40
1
 40
1
 40
1
 10
50.775679
 20
-62.015649
 30
0.0
 10
50.360389
 20
-62.255417
 30
0.0
 10
49.848730
 20
-62.255417
 30
0.0
 10
49.433440
 20
-62.015649
 30
0.0
  0
SPLINE
  5
1d2
100
AcDbEntity
  8
0
 62
7
100
AcDbSpline
 70
8
 71
3
 72
8
 73
4
 74
0
 40
0
 40
0
 40
0
 40
0
 40
1
 40
1
 40
1
 40
1
 10
49.433440
 20
-62.015649
 30
0.0
 10
49.018149
 20
-61.775882
 30
0.0
 10
48.762320
 20
-61.332772
 30
0.0
 10
48.762320
 20
-60.853236
 30
0.0
  0
SPLINE
  5
1d3
100
AcDbEntity
  8
0
 62
7
100
AcDbSpline
 70
8
 71
3
 72
8
 73
4
 74
0
 40
0
 40
0
 40
0
 40
0
 40
1
 40
1
 40
1
 40
1
 10
48.762320
 20
-60.853236
 30
0.0
 10
48.762320
 20
-60.373701
 30
0.0
 10
49.018149
 20
-59.930591
 30
0.0
 10
49.433440
 20
-59.690824
 30
0.0
  0
SPLINE
  5
1d4
100
AcDbEntity
  8
0
 62
7
100
AcDbSpline
 70
8
 71
3
 72
8
 73
4
 74
0
 40
0
 40
0
 40
0
 40
0
 40
1
 40
1
 40
1
 40
1
 10
49.433440
 20
-59.690824
 30
0.0
 10
49.848730
 20
-59.451056
 30
0.0
 10
50.360389
 20
-59.451056
 30
0.0
 10
50.775679
 20
-59.690824
 30
0.0
  0
SPLINE
  5
1d5
100
AcDbEntity
  8
0
 62
7
100
AcDbSpline
 70
8
 71
3
 72
8
 73
4
 74
0
 40
0
 40
0
 40
0
 40
0
 40
1
 40
1
 40
1
 40
1
 10
50.775679
 20
-59.690824
 30
0.0
 10
51.190969
 20
-59.930591
 30
0.0
 10
51.446798
 20
-60.373701
 30
0.0
 10
51.446798
 20
-60.853236
 30
0.0
  0
LINE
  5
1d6
100
AcDbEntity
  8
0
 62
7
100
AcDbLine
 10
51.446798
 20
-60.853236
 30
0.0
 11
51.446798
 21
-60.853236
 31
0.0
  0
SPLINE
  5
1d7
100
AcDbEntity
  8
0
 62
7
100
AcDbSpline
 70
8
 71
3
 72
8
 73
4
 74
0
 40
0
 40
0
 40
0
 40
0
 40
1
 40
1
 40
1
 40
1
 10
61.606779
 20
-60.853236
 30
0.0
 10
61.606779
 20
-61.332772
 30
0.0
 10
61.350949
 20
-61.775882
 30
0.0
 10
60.935659
 20
-62.015649
 30
0.0
  0
SPLINE
  5
1d8
100
AcDbEntity
  8
0
 62
7
100
AcDbSpline
 70
8
 71
3
 72
8
 73
4
 74
0
 40
0
 40
0
 40
0
 40
0
 40
1
 40
1
 40
1
 40
1
 10
60.935659
 20
-62.015649
 30
0.0
 10
60.520369
 20
-62.255417
 30
0.0
 10
60.008710
 20
-62.255417
 30
0.0
 10
59.593420
 20
-62.015649
 30
0.0
  0
SPLINE
  5
1d9
100
AcDbEntity
  8
0
 62
7
100
AcDbSpline
 70
8
 71
3
 72
8
 73
4
 74
0
 40
0
 40
0
 40
0
 40
0
 40
1
 40
1
 40
1
 40
1
 10
59.593420
 20
-62.015649
 30
0.0
 10
59.178130
 20
-61.775882
 30
0.0
 10
58.922300
 20
-61.332772
 30
0.0
 10
58.922300
 20
-60.853236
 30
0.0
  0
SPLINE
  5
1da
100
AcDbEntity
  8
0
 62
7
100
AcDbSpline
 70
8
 71
3
 72
8
 73
4
 74
0
 40
0
 40
0
 40
0
 40
0
 40
1
 40
1
 40
1
 40
1
 10
58.922300
 20
-60.853236
 30
0.0
 10
58.922300
 20
-60.373701
 30
0.0
 10
59.178130
 20
-59.930591
 30
0.0
 10
59.593420
 20
-59.690824
 30
0.0
  0
SPLINE
  5
1db
100
AcDbEntity
  8
0
 62
7
100
AcDbSpline
 70
8
 71
3
 72
8
 73
4
 74
0
 40
0
 40
0
 40
0
 40
0
 40
1
 40
1
 40
1
 40
1
 10
59.593420
 20
-59.690824
 30
0.0
 10
60.008710
 20
-59.451056
 30
0.0
 10
60.520369
 20
-59.451056
 30
0.0
 10
60.935659
 20
-59.690824
 30
0.0
  0
SPLINE
  5
1dc
100
AcDbEntity
  8
0
 62
7
100
AcDbSpline
 70
8
 71
3
 72
8
 73
4
 74
0
 40
0
 40
0
 40
0
 40
0
 40
1
 40
1
 40
1
 40
1
 10
60.935659
 20
-59.690824
 30
0.0
 10
61.350949
 20
-59.930591
 30
0.0
 10
61.606779
 20
-60.373701
 30
0.0
 10
61.606779
 20
-60.853236
 30
0.0
  0
LINE
  5
1dd
100
AcDbEntity
  8
0
 62
7
100
AcDbLine
 10
61.606779
 20
-60.853236
 30
0.0
 11
61.606779
 21
-60.853236
 31
0.0
  0
SPLINE
  5
1de
100
AcDbEntity
  8
0
 62
7
100
AcDbSpline
 70
8
 71
3
 72
8
 73
4
 74
0
 40
0
 40
0
 40
0
 40
0
 40
1
 40
1
 40
1
 40
1
 10
21.286859
 20
-65.531912
 30
0.0
 10
21.286859
 20
-66.011448
 30
0.0
 10
21.031029
 20
-66.454557
 30
0.0
 10
20.615739
 20
-66.694325
 30
0.0
  0
SPLINE
  5
1df
100
AcDbEntity
  8
0
 62
7
100
AcDbSpline
 70
8
 71
3
 72
8
 73
4
 74
0
 40
0
 40
0
 40
0
 40
0
 40
1
 40
1
 40
1
 40
1
 10
20.615739
 20
-66.694325
 30
0.0
 10
20.200449
 20
-66.934093
 30
0.0
 10
19.688790
 20
-66.934093
 30
0.0
 10
19.273500
 20
-66.694325
 30
0.0
  0
SPLINE
  5
1e0
100
AcDbEntity
  8
0
 62
7
100
AcDbSpline
 70
8
 71
3
 72
8
 73
4
 74
0
 40
0
 40
0
 40
0
 40
0
 40
1
 40
1
 40
1
 40
1
 10
19.273500
 20
-66.694325
 30
0.0
 10
18.858209
 20
-66.454557
 30
0.0
 10
18.602380
 20
-66.011448
 30
0.0
 10
18.602380
 20
-65.531912
 30
0.0
  0
SPLINE
  5
1e1
100
AcDbEntity
  8
0
 62
7
100
AcDbSpline
 70
8
 71
3
 72
8
 73
4
 74
0
 40
0
 40
0
 40
0
 40
0
 40
1
 40
1
 40
1
 40
1
 10
18.602380
 20
-65.531912
 30
0.0
 10
18.602380
 20
-65.052376
 30
0.0
 10
18.858209
 20
-64.609267
 30
0.0
 10
19.273500
 20
-64.369499
 30
0.0
  0
SPLINE
  5
1e2
100
AcDbEntity
  8
0
 62
7
100
AcDbSpline
 70
8
 71
3
 72
8
 73
4
 74
0
 40
0
 40
0
 40
0
 40
0
 40
1
 40
1
 40
1
 40
1
 10
19.273500
 20
-64.369499
 30
0.0
 10
19.688790
 20
-64.129731
 30
0.0
 10
20.200449
 20
-64.129731
 30
0.0
 10
20.615739
 20
-64.369499
 30
0.0
  0
SPLINE
  5
1e3
100
AcDbEntity
  8
0
 62
7
100
AcDbSpline
 70
8
 71
3
 72
8
 73
4
 74
0
 40
0
 40
0
 40
0
 40
0
 40
1
 40
1
 40
1
 40
1
 10
20.615739
 20
-64.369499
 30
0.0
 10
21.031029
 20
-64.609267
 30
0.0
 10
21.286859
 20
-65.052376
 30
0.0
 10
21.286859
 20
-65.531912
 30
0.0
  0
LINE
  5
1e4
100
AcDbEntity
  8
0
 62
7
100
AcDbLine
 10
21.286859
 20
-65.531912
 30
0.0
 11
21.286859
 21
-65.531912
 31
0.0
  0
SPLINE
  5
1e5
100
AcDbEntity
  8
0
 62
7
100
AcDbSpline
 70
8
 71
3
 72
8
 73
4
 74
0
 40
0
 40
0
 40
0
 40
0
 40
1
 40
1
 40
1
 40
1
 10
61.286739
 20
-65.531912
 30
0.0
 10
61.286739
 20
-66.011448
 30
0.0
 10
61.030910
 20
-66.454557
 30
0.0
 10
60.615619
 20
-66.694325
 30
0.0
  0
SPLINE
  5
1e6
100
AcDbEntity
  8
0
 62
7
100
AcDbSpline
 70
8
 71
3
 72
8
 73
4
 74
0
 40
0
 40
0
 40
0
 40
0
 40
1
 40
1
 40
1
 40
1
 10
60.615619
 20
-66.694325
 30
0.0
 10
60.200329
 20
-66.934093
 30
0.0
 10
59.688670
 20
-66.934093
 30
0.0
 10
59.273380
 20
-66.694325
 30
0.0
  0
SPLINE
  5
1e7
100
AcDbEntity
  8
0
 62
7
100
AcDbSpline
 70
8
 71
3
 72
8
 73
4
 74
0
 40
0
 40
0
 40
0
 40
0
 40
1
 40
1
 40
1
 40
1
 10
59.273380
 20
-66.694325
 30
0.0
 10
58.858090
 20
-66.454557
 30
0.0
 10
58.602261
 20
-66.011448
 30
0.0
 10
58.602261
 20
-65.531912
 30
0.0
  0
SPLINE
  5
1e8
100
AcDbEntity
  8
0
 62
7
100
AcDbSpline
 70
8
 71
3
 72
8
 73
4
 74
0
 40
0
 40
0
 40
0
 40
0
 40
1
 40
1
 40
1
 40
1
 10
58.602261
 20
-65.531912
 30
0.0
 10
58.602261
 20
-64.790614
 30
0.0
 10
59.203202
 20
-64.189673
 30
0.0
 10
59.944500
 20
-64.189673
 30
0.0
  0
SPLINE
  5
1e9
100
AcDbEntity
  8
0
 62
7
100
AcDbSpline
 70
8
 71
3
 72
8
 73
4
 74
0
 40
0
 40
0
 40
0
 40
0
 40
1
 40
1
 40
1
 40
1
 10
59.944500
 20
-64.189673
 30
0.0
 10
60.685798
 20
-64.189673
 30
0.0
 10
61.286739
 20
-64.790614
 30
0.0
 10
61.286739
 20
-65.531912
 30
0.0
  0
LINE
  5
1ea
100
AcDbEntity
  8
0
 62
7
100
AcDbLine
 10
61.286739
 20
-65.531912
 30
0.0
 11
61.286739
 21
-65.531912
 31
0.0
  0
SPLINE
  5
1eb
100
AcDbEntity
  8
0
 62
7
100
AcDbSpline
 70
8
 71
3
 72
8
 73
4
 74
0
 40
0
 40
0
 40
0
 40
0
 40
1
 40
1
 40
1
 40
1
 10
31.126823
 20
-71.013217
 30
0.0
 10
31.126823
 20
-71.492753
 30
0.0
 10
30.870993
 20
-71.935862
 30
0.0
 10
30.455703
 20
-72.175630
 30
0.0
  0
SPLINE
  5
1ec
100
AcDbEntity
  8
0
 62
7
100
AcDbSpline
 70
8
 71
3
 72
8
 73
4
 74
0
 40
0
 40
0
 40
0
 40
0
 40
1
 40
1
 40
1
 40
1
 10
30.455703
 20
-72.175630
 30
0.0
 10
30.040413
 20
-72.415398
 30
0.0
 10
29.528754
 20
-72.415398
 30
0.0
 10
29.113464
 20
-72.175630
 30
0.0
  0
SPLINE
  5
1ed
100
AcDbEntity
  8
0
 62
7
100
AcDbSpline
 70
8
 71
3
 72
8
 73
4
 74
0
 40
0
 40
0
 40
0
 40
0
 40
1
 40
1
 40
1
 40
1
 10
29.113464
 20
-72.175630
 30
0.0
 10
28.698174
 20
-71.935862
 30
0.0
 10
28.442344
 20
-71.492753
 30
0.0
 10
28.442344
 20
-71.013217
 30
0.0
  0
SPLINE
  5
1ee
100
AcDbEntity
  8
0
 62
7
100
AcDbSpline
 70
8
 71
3
 72
8
 73
4
 74
0
 40
0
 40
0
 40
0
 40
0
 40
1
 40
1
 40
1
 40
1
 10
28.442344
 20
-71.013217
 30
0.0
 10
28.442344
 20
-70.533681
 30
0.0
 10
28.698174
 20
-70.090572
 30
0.0
 10
29.113464
 20
-69.850804
 30
0.0
  0
SPLINE
  5
1ef
100
AcDbEntity
  8
0
 62
7
100
AcDbSpline
 70
8
 71
3
 72
8
 73
4
 74
0
 40
0
 40
0
 40
0
 40
0
 40
1
 40
1
 40
1
 40
1
 10
29.113464
 20
-69.850804
 30
0.0
 10
29.528754
 20
-69.611036
 30
0.0
 10
30.040413
 20
-69.611036
 30
0.0
 10
30.455703
 20
-69.850804
 30
0.0
  0
SPLINE
  5
1f0
100
AcDbEntity
  8
0
 62
7
100
AcDbSpline
 70
8
 71
3
 72
8
 73
4
 74
0
 40
0
 40
0
 40
0
 40
0
 40
1
 40
1
 40
1
 40
1
 10
30.455703
 20
-69.850804
 30
0.0
 10
30.870993
 20
-70.090572
 30
0.0
 10
31.126823
 20
-70.533681
 30
0.0
 10
31.126823
 20
-71.013217
 30
0.0
  0
LINE
  5
1f1
100
AcDbEntity
  8
0
 62
7
100
AcDbLine
 10
31.126823
 20
-71.013217
 30
0.0
 11
31.126823
 21
-71.013217
 31
0.0
  0
SPLINE
  5
1f2
100
AcDbEntity
  8
0
 62
7
100
AcDbSpline
 70
8
 71
3
 72
8
 73
4
 74
0
 40
0
 40
0
 40
0
 40
0
 40
1
 40
1
 40
1
 40
1
 10
41.286813
 20
-72.532135
 30
0.0
 10
41.286813
 20
-73.011671
 30
0.0
 10
41.030984
 20
-73.454780
 30
0.0
 10
40.615694
 20
-73.694548
 30
0.0
  0
SPLINE
  5
1f3
100
AcDbEntity
  8
0
 62
7
100
AcDbSpline
 70
8
 71
3
 72
8
 73
4
 74
0
 40
0
 40
0
 40
0
 40
0
 40
1
 40
1
 40
1
 40
1
 10
40.615694
 20
-73.694548
 30
0.0
 10
40.200403
 20
-73.934316
 30
0.0
 10
39.688745
 20
-73.934316
 30
0.0
 10
39.273454
 20
-73.694548
 30
0.0
  0
SPLINE
  5
1f4
100
AcDbEntity
  8
0
 62
7
100
AcDbSpline
 70
8
 71
3
 72
8
 73
4
 74
0
 40
0
 40
0
 40
0
 40
0
 40
1
 40
1
 40
1
 40
1
 10
39.273454
 20
-73.694548
 30
0.0
 10
38.858164
 20
-73.454780
 30
0.0
 10
38.602335
 20
-73.011671
 30
0.0
 10
38.602335
 20
-72.532135
 30
0.0
  0
SPLINE
  5
1f5
100
AcDbEntity
  8
0
 62
7
100
AcDbSpline
 70
8
 71
3
 72
8
 73
4
 74
0
 40
0
 40
0
 40
0
 40
0
 40
1
 40
1
 40
1
 40
1
 10
38.602335
 20
-72.532135
 30
0.0
 10
38.602335
 20
-72.052600
 30
0.0
 10
38.858164
 20
-71.609490
 30
0.0
 10
39.273454
 20
-71.369722
 30
0.0
  0
SPLINE
  5
1f6
100
AcDbEntity
  8
0
 62
7
100
AcDbSpline
 70
8
 71
3
 72
8
 73
4
 74
0
 40
0
 40
0
 40
0
 40
0
 40
1
 40
1
 40
1
 40
1
 10
39.273454
 20
-71.369722
 30
0.0
 10
39.688745
 20
-71.129955
 30
0.0
 10
40.200403
 20
-71.129955
 30
0.0
 10
40.615694
 20
-71.369722
 30
0.0
  0
SPLINE
  5
1f7
100
AcDbEntity
  8
0
 62
7
100
AcDbSpline
 70
8
 71
3
 72
8
 73
4
 74
0
 40
0
 40
0
 40
0
 40
0
 40
1
 40
1
 40
1
 40
1
 10
40.615694
 20
-71.369722
 30
0.0
 10
41.030984
 20
-71.609490
 30
0.0
 10
41.286813
 20
-72.052600
 30
0.0
 10
41.286813
 20
-72.532135
 30
0.0
  0
LINE
  5
1f8
100
AcDbEntity
  8
0
 62
7
100
AcDbLine
 10
41.286813
 20
-72.532135
 30
0.0
 11
41.286813
 21
-72.532135
 31
0.0
  0
ENDSEC
  0
SECTION
  2
OBJECTS
  0
DICTIONARY
  5
C
330
0
100
AcDbDictionary
  3
ACAD_GROUP
350
D
  3
ACAD_MLINESTYLE
350
17
  0
DICTIONARY
  5
D
330
C
100
AcDbDictionary
  0
DICTIONARY
  5
1A
330
C
100
AcDbDictionary
  0
DICTIONARY
  5
17
330
C
100
AcDbDictionary
  3
STANDARD
350
18
  0
DICTIONARY
  5
19
330
C
100
AcDbDictionary
  0
ENDSEC
  0
EOF
