G04 #@! TF.GenerationSoftware,KiCad,Pcbnew,5.1.5-52549c5~86~ubuntu18.04.1*
G04 #@! TF.CreationDate,2020-09-07T14:49:02-05:00*
G04 #@! TF.ProjectId,C01,4330312e-6b69-4636-9164-5f7063625858,rev?*
G04 #@! TF.SameCoordinates,Original*
G04 #@! TF.FileFunction,Legend,Top*
G04 #@! TF.FilePolarity,Positive*
%FSLAX46Y46*%
G04 Gerber Fmt 4.6, Leading zero omitted, Abs format (unit mm)*
G04 Created by KiCad (PCBNEW 5.1.5-52549c5~86~ubuntu18.04.1) date 2020-09-07 14:49:02*
%MOMM*%
%LPD*%
G04 APERTURE LIST*
%ADD10C,0.150000*%
%ADD11C,0.010000*%
%ADD12C,0.120000*%
G04 APERTURE END LIST*
D10*
X44061666Y-48921942D02*
X44014047Y-48969561D01*
X43871190Y-49017180D01*
X43775952Y-49017180D01*
X43633095Y-48969561D01*
X43537857Y-48874323D01*
X43490238Y-48779085D01*
X43442619Y-48588609D01*
X43442619Y-48445752D01*
X43490238Y-48255276D01*
X43537857Y-48160038D01*
X43633095Y-48064800D01*
X43775952Y-48017180D01*
X43871190Y-48017180D01*
X44014047Y-48064800D01*
X44061666Y-48112419D01*
X44680714Y-48017180D02*
X44775952Y-48017180D01*
X44871190Y-48064800D01*
X44918809Y-48112419D01*
X44966428Y-48207657D01*
X45014047Y-48398133D01*
X45014047Y-48636228D01*
X44966428Y-48826704D01*
X44918809Y-48921942D01*
X44871190Y-48969561D01*
X44775952Y-49017180D01*
X44680714Y-49017180D01*
X44585476Y-48969561D01*
X44537857Y-48921942D01*
X44490238Y-48826704D01*
X44442619Y-48636228D01*
X44442619Y-48398133D01*
X44490238Y-48207657D01*
X44537857Y-48112419D01*
X44585476Y-48064800D01*
X44680714Y-48017180D01*
X45966428Y-49017180D02*
X45395000Y-49017180D01*
X45680714Y-49017180D02*
X45680714Y-48017180D01*
X45585476Y-48160038D01*
X45490238Y-48255276D01*
X45395000Y-48302895D01*
X46156904Y-49112419D02*
X46918809Y-49112419D01*
X47490238Y-48493371D02*
X47633095Y-48540990D01*
X47680714Y-48588609D01*
X47728333Y-48683847D01*
X47728333Y-48826704D01*
X47680714Y-48921942D01*
X47633095Y-48969561D01*
X47537857Y-49017180D01*
X47156904Y-49017180D01*
X47156904Y-48017180D01*
X47490238Y-48017180D01*
X47585476Y-48064800D01*
X47633095Y-48112419D01*
X47680714Y-48207657D01*
X47680714Y-48302895D01*
X47633095Y-48398133D01*
X47585476Y-48445752D01*
X47490238Y-48493371D01*
X47156904Y-48493371D01*
X48728333Y-49017180D02*
X48395000Y-48540990D01*
X48156904Y-49017180D02*
X48156904Y-48017180D01*
X48537857Y-48017180D01*
X48633095Y-48064800D01*
X48680714Y-48112419D01*
X48728333Y-48207657D01*
X48728333Y-48350514D01*
X48680714Y-48445752D01*
X48633095Y-48493371D01*
X48537857Y-48540990D01*
X48156904Y-48540990D01*
X49156904Y-48493371D02*
X49490238Y-48493371D01*
X49633095Y-49017180D02*
X49156904Y-49017180D01*
X49156904Y-48017180D01*
X49633095Y-48017180D01*
X50014047Y-48731466D02*
X50490238Y-48731466D01*
X49918809Y-49017180D02*
X50252142Y-48017180D01*
X50585476Y-49017180D01*
X50918809Y-49017180D02*
X50918809Y-48017180D01*
X51490238Y-49017180D02*
X51061666Y-48445752D01*
X51490238Y-48017180D02*
X50918809Y-48588609D01*
X52109285Y-48017180D02*
X52299761Y-48017180D01*
X52395000Y-48064800D01*
X52490238Y-48160038D01*
X52537857Y-48350514D01*
X52537857Y-48683847D01*
X52490238Y-48874323D01*
X52395000Y-48969561D01*
X52299761Y-49017180D01*
X52109285Y-49017180D01*
X52014047Y-48969561D01*
X51918809Y-48874323D01*
X51871190Y-48683847D01*
X51871190Y-48350514D01*
X51918809Y-48160038D01*
X52014047Y-48064800D01*
X52109285Y-48017180D01*
X52966428Y-48017180D02*
X52966428Y-48826704D01*
X53014047Y-48921942D01*
X53061666Y-48969561D01*
X53156904Y-49017180D01*
X53347380Y-49017180D01*
X53442619Y-48969561D01*
X53490238Y-48921942D01*
X53537857Y-48826704D01*
X53537857Y-48017180D01*
X53871190Y-48017180D02*
X54442619Y-48017180D01*
X54156904Y-49017180D02*
X54156904Y-48017180D01*
D11*
G36*
X49450814Y-38997931D02*
G01*
X49534635Y-39442555D01*
X49843920Y-39570053D01*
X50153206Y-39697551D01*
X50524246Y-39445246D01*
X50628157Y-39374996D01*
X50722087Y-39312272D01*
X50801652Y-39259938D01*
X50862470Y-39220857D01*
X50900157Y-39197893D01*
X50910421Y-39192942D01*
X50928910Y-39205676D01*
X50968420Y-39240882D01*
X51024522Y-39294062D01*
X51092787Y-39360718D01*
X51168786Y-39436354D01*
X51248092Y-39516472D01*
X51326275Y-39596574D01*
X51398907Y-39672164D01*
X51461559Y-39738745D01*
X51509803Y-39791818D01*
X51539210Y-39826887D01*
X51546241Y-39838623D01*
X51536123Y-39860260D01*
X51507759Y-39907662D01*
X51464129Y-39976193D01*
X51408218Y-40061215D01*
X51343006Y-40158093D01*
X51305219Y-40213350D01*
X51236343Y-40314248D01*
X51175140Y-40405299D01*
X51124578Y-40481970D01*
X51087628Y-40539728D01*
X51067258Y-40574043D01*
X51064197Y-40581254D01*
X51071136Y-40601748D01*
X51090051Y-40649513D01*
X51118087Y-40717832D01*
X51152391Y-40799989D01*
X51190109Y-40889270D01*
X51228387Y-40978958D01*
X51264370Y-41062338D01*
X51295206Y-41132694D01*
X51318039Y-41183310D01*
X51330017Y-41207471D01*
X51330724Y-41208422D01*
X51349531Y-41213036D01*
X51399618Y-41223328D01*
X51475793Y-41238287D01*
X51572865Y-41256901D01*
X51685643Y-41278159D01*
X51751442Y-41290418D01*
X51871950Y-41313362D01*
X51980797Y-41335195D01*
X52072476Y-41354722D01*
X52141481Y-41370748D01*
X52182304Y-41382079D01*
X52190511Y-41385674D01*
X52198548Y-41410006D01*
X52205033Y-41464959D01*
X52209970Y-41544108D01*
X52213364Y-41641026D01*
X52215218Y-41749287D01*
X52215538Y-41862465D01*
X52214327Y-41974135D01*
X52211590Y-42077868D01*
X52207331Y-42167241D01*
X52201555Y-42235826D01*
X52194267Y-42277197D01*
X52189895Y-42285810D01*
X52163764Y-42296133D01*
X52108393Y-42310892D01*
X52031107Y-42328352D01*
X51939230Y-42346780D01*
X51907158Y-42352741D01*
X51752524Y-42381066D01*
X51630375Y-42403876D01*
X51536673Y-42422080D01*
X51467384Y-42436583D01*
X51418471Y-42448292D01*
X51385897Y-42458115D01*
X51365628Y-42466956D01*
X51353626Y-42475724D01*
X51351947Y-42477457D01*
X51335184Y-42505371D01*
X51309614Y-42559695D01*
X51277788Y-42633777D01*
X51242260Y-42720965D01*
X51205583Y-42814608D01*
X51170311Y-42908052D01*
X51138996Y-42994647D01*
X51114193Y-43067740D01*
X51098454Y-43120678D01*
X51094332Y-43146811D01*
X51094676Y-43147726D01*
X51108641Y-43169086D01*
X51140322Y-43216084D01*
X51186391Y-43283827D01*
X51243518Y-43367423D01*
X51308373Y-43461982D01*
X51326843Y-43488854D01*
X51392699Y-43586275D01*
X51450650Y-43675163D01*
X51497538Y-43750412D01*
X51530207Y-43806920D01*
X51545500Y-43839581D01*
X51546241Y-43843593D01*
X51533392Y-43864684D01*
X51497888Y-43906464D01*
X51444293Y-43964445D01*
X51377171Y-44034135D01*
X51301087Y-44111045D01*
X51220604Y-44190683D01*
X51140287Y-44268561D01*
X51064699Y-44340186D01*
X50998405Y-44401070D01*
X50945969Y-44446721D01*
X50911955Y-44472650D01*
X50902545Y-44476883D01*
X50880643Y-44466912D01*
X50835800Y-44440020D01*
X50775321Y-44400736D01*
X50728789Y-44369117D01*
X50644475Y-44311098D01*
X50544626Y-44242784D01*
X50444473Y-44174579D01*
X50390627Y-44138075D01*
X50208371Y-44014800D01*
X50055381Y-44097520D01*
X49985682Y-44133759D01*
X49926414Y-44161926D01*
X49886311Y-44177991D01*
X49876103Y-44180226D01*
X49863829Y-44163722D01*
X49839613Y-44117082D01*
X49805263Y-44044609D01*
X49762588Y-43950606D01*
X49713394Y-43839374D01*
X49659490Y-43715215D01*
X49602684Y-43582432D01*
X49544782Y-43445327D01*
X49487593Y-43308202D01*
X49432924Y-43175358D01*
X49382584Y-43051098D01*
X49338380Y-42939725D01*
X49302119Y-42845539D01*
X49275609Y-42772844D01*
X49260658Y-42725941D01*
X49258254Y-42709833D01*
X49277311Y-42689286D01*
X49319036Y-42655933D01*
X49374706Y-42616702D01*
X49379378Y-42613599D01*
X49523264Y-42498423D01*
X49639283Y-42364053D01*
X49726430Y-42214784D01*
X49783699Y-42054913D01*
X49810086Y-41888737D01*
X49804585Y-41720552D01*
X49766190Y-41554655D01*
X49693895Y-41395342D01*
X49672626Y-41360487D01*
X49561996Y-41219737D01*
X49431302Y-41106714D01*
X49285064Y-41022003D01*
X49127808Y-40966194D01*
X48964057Y-40939874D01*
X48798333Y-40943630D01*
X48635162Y-40978050D01*
X48479065Y-41043723D01*
X48334567Y-41141235D01*
X48289869Y-41180813D01*
X48176112Y-41304703D01*
X48093218Y-41435124D01*
X48036356Y-41581315D01*
X48004687Y-41726088D01*
X47996869Y-41888860D01*
X48022938Y-42052440D01*
X48080245Y-42211298D01*
X48166144Y-42359906D01*
X48277986Y-42492735D01*
X48413123Y-42604256D01*
X48430883Y-42616011D01*
X48487150Y-42654508D01*
X48529923Y-42687863D01*
X48550372Y-42709160D01*
X48550669Y-42709833D01*
X48546279Y-42732871D01*
X48528876Y-42785157D01*
X48500268Y-42862390D01*
X48462265Y-42960268D01*
X48416674Y-43074491D01*
X48365303Y-43200758D01*
X48309962Y-43334767D01*
X48252458Y-43472218D01*
X48194601Y-43608808D01*
X48138198Y-43740237D01*
X48085058Y-43862205D01*
X48036990Y-43970409D01*
X47995801Y-44060549D01*
X47963301Y-44128323D01*
X47941297Y-44169430D01*
X47932436Y-44180226D01*
X47905360Y-44171819D01*
X47854697Y-44149272D01*
X47789183Y-44116613D01*
X47753159Y-44097520D01*
X47600168Y-44014800D01*
X47417912Y-44138075D01*
X47324875Y-44201228D01*
X47223015Y-44270727D01*
X47127562Y-44336165D01*
X47079750Y-44369117D01*
X47012505Y-44414273D01*
X46955564Y-44450057D01*
X46916354Y-44471938D01*
X46903619Y-44476563D01*
X46885083Y-44464085D01*
X46844059Y-44429252D01*
X46784525Y-44375678D01*
X46710458Y-44306983D01*
X46625835Y-44226781D01*
X46572315Y-44175286D01*
X46478681Y-44083286D01*
X46397759Y-44000999D01*
X46332823Y-43931945D01*
X46287142Y-43879644D01*
X46263989Y-43847616D01*
X46261768Y-43841116D01*
X46272076Y-43816394D01*
X46300561Y-43766405D01*
X46344063Y-43696212D01*
X46399423Y-43610875D01*
X46463480Y-43515456D01*
X46481697Y-43488854D01*
X46548073Y-43392167D01*
X46607622Y-43305117D01*
X46657016Y-43232595D01*
X46692925Y-43179493D01*
X46712019Y-43150703D01*
X46713864Y-43147726D01*
X46711105Y-43124782D01*
X46696462Y-43074336D01*
X46672487Y-43003041D01*
X46641734Y-42917547D01*
X46606756Y-42824507D01*
X46570107Y-42730574D01*
X46534339Y-42642399D01*
X46502006Y-42566634D01*
X46475662Y-42509931D01*
X46457858Y-42478943D01*
X46456593Y-42477457D01*
X46445706Y-42468601D01*
X46427318Y-42459843D01*
X46397394Y-42450277D01*
X46351897Y-42438996D01*
X46286791Y-42425093D01*
X46198039Y-42407663D01*
X46081607Y-42385798D01*
X45933458Y-42358591D01*
X45901382Y-42352741D01*
X45806314Y-42334374D01*
X45723435Y-42316405D01*
X45660070Y-42300569D01*
X45623542Y-42288600D01*
X45618644Y-42285810D01*
X45610573Y-42261072D01*
X45604013Y-42205790D01*
X45598967Y-42126389D01*
X45595441Y-42029296D01*
X45593439Y-41920938D01*
X45592964Y-41807740D01*
X45594023Y-41696128D01*
X45596618Y-41592529D01*
X45600754Y-41503368D01*
X45606437Y-41435072D01*
X45613669Y-41394066D01*
X45618029Y-41385674D01*
X45642302Y-41377208D01*
X45697574Y-41363435D01*
X45778338Y-41345550D01*
X45879088Y-41324748D01*
X45994317Y-41302223D01*
X46057098Y-41290418D01*
X46176213Y-41268151D01*
X46282435Y-41247979D01*
X46370573Y-41230915D01*
X46435434Y-41217969D01*
X46471826Y-41210155D01*
X46477816Y-41208422D01*
X46487939Y-41188890D01*
X46509338Y-41141843D01*
X46539161Y-41074003D01*
X46574555Y-40992091D01*
X46612668Y-40902828D01*
X46650647Y-40812935D01*
X46685640Y-40729135D01*
X46714794Y-40658147D01*
X46735257Y-40606694D01*
X46744177Y-40581497D01*
X46744343Y-40580396D01*
X46734231Y-40560519D01*
X46705883Y-40514777D01*
X46662277Y-40447717D01*
X46606394Y-40363884D01*
X46541213Y-40267826D01*
X46503321Y-40212650D01*
X46434275Y-40111481D01*
X46372950Y-40019630D01*
X46322337Y-39941744D01*
X46285429Y-39882469D01*
X46265218Y-39846451D01*
X46262299Y-39838377D01*
X46274847Y-39819584D01*
X46309537Y-39779457D01*
X46361937Y-39722493D01*
X46427616Y-39653185D01*
X46502144Y-39576031D01*
X46581087Y-39495525D01*
X46660017Y-39416163D01*
X46734500Y-39342440D01*
X46800106Y-39278852D01*
X46852404Y-39229894D01*
X46886961Y-39200061D01*
X46898522Y-39192942D01*
X46917346Y-39202953D01*
X46962369Y-39231078D01*
X47029213Y-39274454D01*
X47113501Y-39330218D01*
X47210856Y-39395506D01*
X47284293Y-39445246D01*
X47655333Y-39697551D01*
X48273905Y-39442555D01*
X48357725Y-38997931D01*
X48441546Y-38553307D01*
X49366994Y-38553307D01*
X49450814Y-38997931D01*
G37*
X49450814Y-38997931D02*
X49534635Y-39442555D01*
X49843920Y-39570053D01*
X50153206Y-39697551D01*
X50524246Y-39445246D01*
X50628157Y-39374996D01*
X50722087Y-39312272D01*
X50801652Y-39259938D01*
X50862470Y-39220857D01*
X50900157Y-39197893D01*
X50910421Y-39192942D01*
X50928910Y-39205676D01*
X50968420Y-39240882D01*
X51024522Y-39294062D01*
X51092787Y-39360718D01*
X51168786Y-39436354D01*
X51248092Y-39516472D01*
X51326275Y-39596574D01*
X51398907Y-39672164D01*
X51461559Y-39738745D01*
X51509803Y-39791818D01*
X51539210Y-39826887D01*
X51546241Y-39838623D01*
X51536123Y-39860260D01*
X51507759Y-39907662D01*
X51464129Y-39976193D01*
X51408218Y-40061215D01*
X51343006Y-40158093D01*
X51305219Y-40213350D01*
X51236343Y-40314248D01*
X51175140Y-40405299D01*
X51124578Y-40481970D01*
X51087628Y-40539728D01*
X51067258Y-40574043D01*
X51064197Y-40581254D01*
X51071136Y-40601748D01*
X51090051Y-40649513D01*
X51118087Y-40717832D01*
X51152391Y-40799989D01*
X51190109Y-40889270D01*
X51228387Y-40978958D01*
X51264370Y-41062338D01*
X51295206Y-41132694D01*
X51318039Y-41183310D01*
X51330017Y-41207471D01*
X51330724Y-41208422D01*
X51349531Y-41213036D01*
X51399618Y-41223328D01*
X51475793Y-41238287D01*
X51572865Y-41256901D01*
X51685643Y-41278159D01*
X51751442Y-41290418D01*
X51871950Y-41313362D01*
X51980797Y-41335195D01*
X52072476Y-41354722D01*
X52141481Y-41370748D01*
X52182304Y-41382079D01*
X52190511Y-41385674D01*
X52198548Y-41410006D01*
X52205033Y-41464959D01*
X52209970Y-41544108D01*
X52213364Y-41641026D01*
X52215218Y-41749287D01*
X52215538Y-41862465D01*
X52214327Y-41974135D01*
X52211590Y-42077868D01*
X52207331Y-42167241D01*
X52201555Y-42235826D01*
X52194267Y-42277197D01*
X52189895Y-42285810D01*
X52163764Y-42296133D01*
X52108393Y-42310892D01*
X52031107Y-42328352D01*
X51939230Y-42346780D01*
X51907158Y-42352741D01*
X51752524Y-42381066D01*
X51630375Y-42403876D01*
X51536673Y-42422080D01*
X51467384Y-42436583D01*
X51418471Y-42448292D01*
X51385897Y-42458115D01*
X51365628Y-42466956D01*
X51353626Y-42475724D01*
X51351947Y-42477457D01*
X51335184Y-42505371D01*
X51309614Y-42559695D01*
X51277788Y-42633777D01*
X51242260Y-42720965D01*
X51205583Y-42814608D01*
X51170311Y-42908052D01*
X51138996Y-42994647D01*
X51114193Y-43067740D01*
X51098454Y-43120678D01*
X51094332Y-43146811D01*
X51094676Y-43147726D01*
X51108641Y-43169086D01*
X51140322Y-43216084D01*
X51186391Y-43283827D01*
X51243518Y-43367423D01*
X51308373Y-43461982D01*
X51326843Y-43488854D01*
X51392699Y-43586275D01*
X51450650Y-43675163D01*
X51497538Y-43750412D01*
X51530207Y-43806920D01*
X51545500Y-43839581D01*
X51546241Y-43843593D01*
X51533392Y-43864684D01*
X51497888Y-43906464D01*
X51444293Y-43964445D01*
X51377171Y-44034135D01*
X51301087Y-44111045D01*
X51220604Y-44190683D01*
X51140287Y-44268561D01*
X51064699Y-44340186D01*
X50998405Y-44401070D01*
X50945969Y-44446721D01*
X50911955Y-44472650D01*
X50902545Y-44476883D01*
X50880643Y-44466912D01*
X50835800Y-44440020D01*
X50775321Y-44400736D01*
X50728789Y-44369117D01*
X50644475Y-44311098D01*
X50544626Y-44242784D01*
X50444473Y-44174579D01*
X50390627Y-44138075D01*
X50208371Y-44014800D01*
X50055381Y-44097520D01*
X49985682Y-44133759D01*
X49926414Y-44161926D01*
X49886311Y-44177991D01*
X49876103Y-44180226D01*
X49863829Y-44163722D01*
X49839613Y-44117082D01*
X49805263Y-44044609D01*
X49762588Y-43950606D01*
X49713394Y-43839374D01*
X49659490Y-43715215D01*
X49602684Y-43582432D01*
X49544782Y-43445327D01*
X49487593Y-43308202D01*
X49432924Y-43175358D01*
X49382584Y-43051098D01*
X49338380Y-42939725D01*
X49302119Y-42845539D01*
X49275609Y-42772844D01*
X49260658Y-42725941D01*
X49258254Y-42709833D01*
X49277311Y-42689286D01*
X49319036Y-42655933D01*
X49374706Y-42616702D01*
X49379378Y-42613599D01*
X49523264Y-42498423D01*
X49639283Y-42364053D01*
X49726430Y-42214784D01*
X49783699Y-42054913D01*
X49810086Y-41888737D01*
X49804585Y-41720552D01*
X49766190Y-41554655D01*
X49693895Y-41395342D01*
X49672626Y-41360487D01*
X49561996Y-41219737D01*
X49431302Y-41106714D01*
X49285064Y-41022003D01*
X49127808Y-40966194D01*
X48964057Y-40939874D01*
X48798333Y-40943630D01*
X48635162Y-40978050D01*
X48479065Y-41043723D01*
X48334567Y-41141235D01*
X48289869Y-41180813D01*
X48176112Y-41304703D01*
X48093218Y-41435124D01*
X48036356Y-41581315D01*
X48004687Y-41726088D01*
X47996869Y-41888860D01*
X48022938Y-42052440D01*
X48080245Y-42211298D01*
X48166144Y-42359906D01*
X48277986Y-42492735D01*
X48413123Y-42604256D01*
X48430883Y-42616011D01*
X48487150Y-42654508D01*
X48529923Y-42687863D01*
X48550372Y-42709160D01*
X48550669Y-42709833D01*
X48546279Y-42732871D01*
X48528876Y-42785157D01*
X48500268Y-42862390D01*
X48462265Y-42960268D01*
X48416674Y-43074491D01*
X48365303Y-43200758D01*
X48309962Y-43334767D01*
X48252458Y-43472218D01*
X48194601Y-43608808D01*
X48138198Y-43740237D01*
X48085058Y-43862205D01*
X48036990Y-43970409D01*
X47995801Y-44060549D01*
X47963301Y-44128323D01*
X47941297Y-44169430D01*
X47932436Y-44180226D01*
X47905360Y-44171819D01*
X47854697Y-44149272D01*
X47789183Y-44116613D01*
X47753159Y-44097520D01*
X47600168Y-44014800D01*
X47417912Y-44138075D01*
X47324875Y-44201228D01*
X47223015Y-44270727D01*
X47127562Y-44336165D01*
X47079750Y-44369117D01*
X47012505Y-44414273D01*
X46955564Y-44450057D01*
X46916354Y-44471938D01*
X46903619Y-44476563D01*
X46885083Y-44464085D01*
X46844059Y-44429252D01*
X46784525Y-44375678D01*
X46710458Y-44306983D01*
X46625835Y-44226781D01*
X46572315Y-44175286D01*
X46478681Y-44083286D01*
X46397759Y-44000999D01*
X46332823Y-43931945D01*
X46287142Y-43879644D01*
X46263989Y-43847616D01*
X46261768Y-43841116D01*
X46272076Y-43816394D01*
X46300561Y-43766405D01*
X46344063Y-43696212D01*
X46399423Y-43610875D01*
X46463480Y-43515456D01*
X46481697Y-43488854D01*
X46548073Y-43392167D01*
X46607622Y-43305117D01*
X46657016Y-43232595D01*
X46692925Y-43179493D01*
X46712019Y-43150703D01*
X46713864Y-43147726D01*
X46711105Y-43124782D01*
X46696462Y-43074336D01*
X46672487Y-43003041D01*
X46641734Y-42917547D01*
X46606756Y-42824507D01*
X46570107Y-42730574D01*
X46534339Y-42642399D01*
X46502006Y-42566634D01*
X46475662Y-42509931D01*
X46457858Y-42478943D01*
X46456593Y-42477457D01*
X46445706Y-42468601D01*
X46427318Y-42459843D01*
X46397394Y-42450277D01*
X46351897Y-42438996D01*
X46286791Y-42425093D01*
X46198039Y-42407663D01*
X46081607Y-42385798D01*
X45933458Y-42358591D01*
X45901382Y-42352741D01*
X45806314Y-42334374D01*
X45723435Y-42316405D01*
X45660070Y-42300569D01*
X45623542Y-42288600D01*
X45618644Y-42285810D01*
X45610573Y-42261072D01*
X45604013Y-42205790D01*
X45598967Y-42126389D01*
X45595441Y-42029296D01*
X45593439Y-41920938D01*
X45592964Y-41807740D01*
X45594023Y-41696128D01*
X45596618Y-41592529D01*
X45600754Y-41503368D01*
X45606437Y-41435072D01*
X45613669Y-41394066D01*
X45618029Y-41385674D01*
X45642302Y-41377208D01*
X45697574Y-41363435D01*
X45778338Y-41345550D01*
X45879088Y-41324748D01*
X45994317Y-41302223D01*
X46057098Y-41290418D01*
X46176213Y-41268151D01*
X46282435Y-41247979D01*
X46370573Y-41230915D01*
X46435434Y-41217969D01*
X46471826Y-41210155D01*
X46477816Y-41208422D01*
X46487939Y-41188890D01*
X46509338Y-41141843D01*
X46539161Y-41074003D01*
X46574555Y-40992091D01*
X46612668Y-40902828D01*
X46650647Y-40812935D01*
X46685640Y-40729135D01*
X46714794Y-40658147D01*
X46735257Y-40606694D01*
X46744177Y-40581497D01*
X46744343Y-40580396D01*
X46734231Y-40560519D01*
X46705883Y-40514777D01*
X46662277Y-40447717D01*
X46606394Y-40363884D01*
X46541213Y-40267826D01*
X46503321Y-40212650D01*
X46434275Y-40111481D01*
X46372950Y-40019630D01*
X46322337Y-39941744D01*
X46285429Y-39882469D01*
X46265218Y-39846451D01*
X46262299Y-39838377D01*
X46274847Y-39819584D01*
X46309537Y-39779457D01*
X46361937Y-39722493D01*
X46427616Y-39653185D01*
X46502144Y-39576031D01*
X46581087Y-39495525D01*
X46660017Y-39416163D01*
X46734500Y-39342440D01*
X46800106Y-39278852D01*
X46852404Y-39229894D01*
X46886961Y-39200061D01*
X46898522Y-39192942D01*
X46917346Y-39202953D01*
X46962369Y-39231078D01*
X47029213Y-39274454D01*
X47113501Y-39330218D01*
X47210856Y-39395506D01*
X47284293Y-39445246D01*
X47655333Y-39697551D01*
X48273905Y-39442555D01*
X48357725Y-38997931D01*
X48441546Y-38553307D01*
X49366994Y-38553307D01*
X49450814Y-38997931D01*
D12*
X20106800Y-55130000D02*
X20106800Y-54070000D01*
X20106800Y-54070000D02*
X21166800Y-54070000D01*
X22166800Y-54070000D02*
X40226800Y-54070000D01*
X40226800Y-56190000D02*
X40226800Y-54070000D01*
X22166800Y-56190000D02*
X40226800Y-56190000D01*
X22166800Y-56190000D02*
X22166800Y-54070000D01*
X40226800Y-33130000D02*
X40226800Y-34190000D01*
X40226800Y-34190000D02*
X39166800Y-34190000D01*
X38166800Y-34190000D02*
X20106800Y-34190000D01*
X20106800Y-32070000D02*
X20106800Y-34190000D01*
X38166800Y-32070000D02*
X20106800Y-32070000D01*
X38166800Y-32070000D02*
X38166800Y-34190000D01*
X20405200Y-67801400D02*
X21905200Y-67801400D01*
X20405200Y-66061400D02*
X20405200Y-67801400D01*
X56465200Y-60441400D02*
X56465200Y-67561400D01*
X20645200Y-60441400D02*
X20645200Y-67561400D01*
X20645200Y-67561400D02*
X56465200Y-67561400D01*
X20645200Y-60441400D02*
X56465200Y-60441400D01*
X20645200Y-66001400D02*
X56465200Y-66001400D01*
X55860200Y-63901400D02*
G75*
G03X55860200Y-63901400I-1555000J0D01*
G01*
X52360200Y-63901400D02*
G75*
G03X52360200Y-63901400I-1555000J0D01*
G01*
X48860200Y-63901400D02*
G75*
G03X48860200Y-63901400I-1555000J0D01*
G01*
X45360200Y-63901400D02*
G75*
G03X45360200Y-63901400I-1555000J0D01*
G01*
X41860200Y-63901400D02*
G75*
G03X41860200Y-63901400I-1555000J0D01*
G01*
X38360200Y-63901400D02*
G75*
G03X38360200Y-63901400I-1555000J0D01*
G01*
X34860200Y-63901400D02*
G75*
G03X34860200Y-63901400I-1555000J0D01*
G01*
X31360200Y-63901400D02*
G75*
G03X31360200Y-63901400I-1555000J0D01*
G01*
X27860200Y-63901400D02*
G75*
G03X27860200Y-63901400I-1555000J0D01*
G01*
X22832211Y-65456892D02*
G75*
G02X22197200Y-65333400I-27011J1555492D01*
G01*
X21373091Y-64509142D02*
G75*
G02X21373200Y-63293400I1432109J607742D01*
G01*
X22197458Y-62469291D02*
G75*
G02X23413200Y-62469400I607742J-1432109D01*
G01*
X24237309Y-63293658D02*
G75*
G02X24237200Y-64509400I-1432109J-607742D01*
G01*
X23412787Y-65332785D02*
G75*
G02X22805200Y-65456400I-607587J1431385D01*
G01*
X56705200Y-20458600D02*
X55205200Y-20458600D01*
X56705200Y-22198600D02*
X56705200Y-20458600D01*
X20645200Y-27818600D02*
X20645200Y-20698600D01*
X56465200Y-27818600D02*
X56465200Y-20698600D01*
X56465200Y-20698600D02*
X20645200Y-20698600D01*
X56465200Y-27818600D02*
X20645200Y-27818600D01*
X56465200Y-22258600D02*
X20645200Y-22258600D01*
X24360200Y-24358600D02*
G75*
G03X24360200Y-24358600I-1555000J0D01*
G01*
X27860200Y-24358600D02*
G75*
G03X27860200Y-24358600I-1555000J0D01*
G01*
X31360200Y-24358600D02*
G75*
G03X31360200Y-24358600I-1555000J0D01*
G01*
X34860200Y-24358600D02*
G75*
G03X34860200Y-24358600I-1555000J0D01*
G01*
X38360200Y-24358600D02*
G75*
G03X38360200Y-24358600I-1555000J0D01*
G01*
X41860200Y-24358600D02*
G75*
G03X41860200Y-24358600I-1555000J0D01*
G01*
X45360200Y-24358600D02*
G75*
G03X45360200Y-24358600I-1555000J0D01*
G01*
X48860200Y-24358600D02*
G75*
G03X48860200Y-24358600I-1555000J0D01*
G01*
X52360200Y-24358600D02*
G75*
G03X52360200Y-24358600I-1555000J0D01*
G01*
X54278189Y-22803108D02*
G75*
G02X54913200Y-22926600I27011J-1555492D01*
G01*
X55737309Y-23750858D02*
G75*
G02X55737200Y-24966600I-1432109J-607742D01*
G01*
X54912942Y-25790709D02*
G75*
G02X53697200Y-25790600I-607742J1432109D01*
G01*
X52873091Y-24966342D02*
G75*
G02X52873200Y-23750600I1432109J607742D01*
G01*
X53697613Y-22927215D02*
G75*
G02X54305200Y-22803600I607587J-1431385D01*
G01*
M02*
