M48
; DRILL file {KiCad 5.1.5-52549c5~86~ubuntu18.04.1} date mar 13 oct 2020 14:08:48 -05
; FORMAT={-:-/ absolute / metric / decimal}
; #@! TF.CreationDate,2020-10-13T14:08:48-05:00
; #@! TF.GenerationSoftware,Kicad,Pcbnew,5.1.5-52549c5~86~ubuntu18.04.1
; #@! TF.FileFunction,Plated,1,2,PTH
FMAT,2
METRIC
T1C1.000
T2C1.001
T3C1.200
%
G90
G05
T1
X149.438Y-79.299
X151.978Y-79.299
X154.518Y-79.299
X157.058Y-79.299
X121.498Y-79.299
X124.038Y-79.299
X126.578Y-79.299
X129.118Y-79.299
X121.498Y-51.359
X124.038Y-51.359
X126.578Y-51.359
X129.118Y-51.359
X93.558Y-79.299
X96.098Y-79.299
X98.638Y-79.299
X101.178Y-79.299
X93.558Y-51.359
X96.098Y-51.359
X98.638Y-51.359
X101.178Y-51.359
X121.498Y-107.239
X124.038Y-107.239
X126.578Y-107.239
X129.118Y-107.239
X149.438Y-51.359
X151.978Y-51.359
X154.518Y-51.359
X157.058Y-51.359
X149.438Y-107.239
X151.978Y-107.239
X154.518Y-107.239
X157.058Y-107.239
X93.558Y-107.239
X96.098Y-107.239
X98.638Y-107.239
X101.178Y-107.239
T2
X135.468Y-124.826
X107.528Y-124.826
X115.148Y-86.726
X115.148Y-58.786
X87.208Y-114.666
X143.088Y-86.726
X143.088Y-114.666
X163.408Y-96.886
X135.468Y-96.886
X107.528Y-96.886
X163.408Y-68.946
X135.468Y-68.946
X87.208Y-58.786
X115.148Y-114.666
X107.528Y-68.946
X87.208Y-86.726
X143.088Y-58.786
X163.408Y-124.826
T3
X120.058Y-101.702
X123.558Y-101.702
X127.058Y-101.702
X130.558Y-101.702
X92.118Y-129.642
X95.618Y-129.642
X99.118Y-129.642
X102.618Y-129.642
X147.998Y-101.702
X151.498Y-101.702
X154.998Y-101.702
X158.498Y-101.702
X147.998Y-129.642
X151.498Y-129.642
X154.998Y-129.642
X158.498Y-129.642
X92.118Y-73.762
X95.618Y-73.762
X99.118Y-73.762
X102.618Y-73.762
X147.998Y-73.762
X151.498Y-73.762
X154.998Y-73.762
X158.498Y-73.762
X120.058Y-73.762
X123.558Y-73.762
X127.058Y-73.762
X130.558Y-73.762
X92.118Y-101.702
X95.618Y-101.702
X99.118Y-101.702
X102.618Y-101.702
X120.058Y-129.642
X123.558Y-129.642
X127.058Y-129.642
X130.558Y-129.642
T0
M30
