M48
; DRILL file {KiCad 5.1.5-52549c5~86~ubuntu18.04.1} date mar 13 oct 2020 14:08:48 -05
; FORMAT={-:-/ absolute / metric / decimal}
; #@! TF.CreationDate,2020-10-13T14:08:48-05:00
; #@! TF.GenerationSoftware,Kicad,Pcbnew,5.1.5-52549c5~86~ubuntu18.04.1
; #@! TF.FileFunction,NonPlated,1,2,NPTH
FMAT,2
METRIC
T1C3.000
%
G90
G05
T1
X87.208Y-63.866
X163.408Y-53.706
X143.088Y-119.746
X107.528Y-63.866
X107.528Y-53.706
X143.088Y-91.806
X143.088Y-63.866
X87.208Y-109.586
X87.208Y-81.646
X107.528Y-119.746
X107.528Y-129.906
X107.528Y-91.806
X135.468Y-101.966
X143.088Y-129.906
X143.088Y-101.966
X87.208Y-74.026
X107.528Y-109.586
X107.528Y-81.646
X87.208Y-119.746
X87.208Y-101.966
X87.208Y-91.806
X115.148Y-109.586
X115.148Y-81.646
X115.148Y-53.706
X135.468Y-74.026
X135.468Y-119.746
X107.528Y-74.026
X135.468Y-91.806
X135.468Y-63.866
X107.528Y-101.966
X87.208Y-129.906
X135.468Y-109.586
X135.468Y-81.646
X163.408Y-74.026
X135.468Y-129.906
X135.468Y-53.706
X115.148Y-74.026
X115.148Y-119.746
X163.408Y-101.966
X115.148Y-91.806
X143.088Y-109.586
X115.148Y-63.866
X143.088Y-81.646
X143.088Y-53.706
X163.408Y-119.746
X143.088Y-74.026
X163.408Y-91.806
X163.408Y-63.866
X115.148Y-129.906
X115.148Y-101.966
X163.408Y-109.586
X87.208Y-53.706
X163.408Y-81.646
X163.408Y-129.906
T0
M30
