M48
; DRILL file {KiCad 5.1.5-52549c5~86~ubuntu18.04.1} date mar 03 nov 2020 13:58:31 -05
; FORMAT={-:-/ absolute / metric / decimal}
; #@! TF.CreationDate,2020-11-03T13:58:31-05:00
; #@! TF.GenerationSoftware,Kicad,Pcbnew,5.1.5-52549c5~86~ubuntu18.04.1
; #@! TF.FileFunction,Plated,1,2,PTH
FMAT,2
METRIC
T1C1.200
%
G90
G05
T1
X121.806Y-90.754
X125.306Y-90.754
X104.026Y-118.308
X107.526Y-118.308
X104.026Y-126.314
X107.526Y-126.314
X86.246Y-153.868
X89.746Y-153.868
X86.246Y-90.754
X89.746Y-90.754
X86.246Y-118.308
X89.746Y-118.308
X86.246Y-126.314
X89.746Y-126.314
X139.586Y-72.974
X143.086Y-72.974
X157.366Y-136.088
X160.866Y-136.088
X157.366Y-100.528
X160.866Y-100.528
X157.366Y-108.534
X160.866Y-108.534
X139.586Y-136.088
X143.086Y-136.088
X121.806Y-126.314
X125.306Y-126.314
X139.586Y-100.528
X143.086Y-100.528
X157.366Y-144.094
X160.866Y-144.094
X139.586Y-108.534
X143.086Y-108.534
X121.806Y-136.088
X125.306Y-136.088
X86.246Y-72.974
X89.746Y-72.974
X121.806Y-100.528
X125.306Y-100.528
X139.586Y-144.094
X143.086Y-144.094
X121.806Y-108.534
X125.306Y-108.534
X104.026Y-136.088
X107.526Y-136.088
X86.246Y-82.748
X89.746Y-82.748
X104.026Y-100.528
X107.526Y-100.528
X157.366Y-72.974
X160.866Y-72.974
X121.806Y-144.094
X125.306Y-144.094
X104.026Y-108.534
X107.526Y-108.534
X86.246Y-136.088
X89.746Y-136.088
X157.366Y-90.754
X160.866Y-90.754
X157.366Y-153.868
X160.866Y-153.868
X86.246Y-100.528
X89.746Y-100.528
X104.026Y-144.094
X107.526Y-144.094
X104.026Y-72.974
X107.526Y-72.974
X104.026Y-82.748
X107.526Y-82.748
X139.586Y-126.314
X143.086Y-126.314
X157.366Y-118.308
X160.866Y-118.308
X157.366Y-126.314
X160.866Y-126.314
X139.586Y-153.868
X143.086Y-153.868
X157.366Y-82.748
X160.866Y-82.748
X86.246Y-108.534
X89.746Y-108.534
X139.586Y-118.308
X143.086Y-118.308
X104.026Y-90.754
X107.526Y-90.754
X121.806Y-153.868
X125.306Y-153.868
X139.586Y-90.754
X143.086Y-90.754
X139.586Y-82.748
X143.086Y-82.748
X121.806Y-72.974
X125.306Y-72.974
X86.246Y-144.094
X89.746Y-144.094
X121.806Y-118.308
X125.306Y-118.308
X104.026Y-153.868
X107.526Y-153.868
X121.806Y-82.748
X125.306Y-82.748
T0
M30
