M48
; DRILL file {KiCad 5.1.5-52549c5~86~ubuntu18.04.1} date vie 02 oct 2020 17:28:56 -05
; FORMAT={-:-/ absolute / metric / decimal}
; #@! TF.CreationDate,2020-10-02T17:28:56-05:00
; #@! TF.GenerationSoftware,Kicad,Pcbnew,5.1.5-52549c5~86~ubuntu18.04.1
; #@! TF.FileFunction,Plated,1,2,PTH
FMAT,2
METRIC
T1C1.001
T2C1.300
%
G90
G05
T1
X119.924Y-147.076
X127.544Y-111.516
X175.804Y-129.296
X99.604Y-111.516
X119.924Y-111.516
X147.864Y-129.296
X155.484Y-93.736
X147.864Y-75.956
X119.924Y-129.296
X99.604Y-75.956
X127.544Y-93.736
X119.924Y-93.736
X155.484Y-147.076
X175.804Y-111.516
X99.604Y-93.736
X127.544Y-147.076
X155.484Y-75.956
X99.604Y-147.076
X127.544Y-75.956
X175.804Y-93.736
X147.864Y-93.736
X155.484Y-129.296
X127.544Y-129.296
X175.804Y-147.076
X119.924Y-75.956
X99.604Y-129.296
X175.804Y-75.956
X147.864Y-111.516
X147.864Y-147.076
X155.484Y-111.516
T2
X160.644Y-71.476
X165.644Y-71.476
X170.644Y-71.476
X104.764Y-107.036
X109.764Y-107.036
X114.764Y-107.036
X104.764Y-98.217
X109.764Y-98.217
X114.764Y-98.217
X104.764Y-151.557
X109.764Y-151.557
X114.764Y-151.557
X132.704Y-71.476
X137.704Y-71.476
X142.704Y-71.476
X132.704Y-124.816
X137.704Y-124.816
X142.704Y-124.816
X132.704Y-115.997
X137.704Y-115.997
X142.704Y-115.997
X132.704Y-80.437
X137.704Y-80.437
X142.704Y-80.437
X160.644Y-142.596
X165.644Y-142.596
X170.644Y-142.596
X160.644Y-133.777
X165.644Y-133.777
X170.644Y-133.777
X104.764Y-124.816
X109.764Y-124.816
X114.764Y-124.816
X104.764Y-115.997
X109.764Y-115.997
X114.764Y-115.997
X160.644Y-89.256
X165.644Y-89.256
X170.644Y-89.256
X132.704Y-142.596
X137.704Y-142.596
X142.704Y-142.596
X132.704Y-133.777
X137.704Y-133.777
X142.704Y-133.777
X160.644Y-107.036
X165.644Y-107.036
X170.644Y-107.036
X160.644Y-98.217
X165.644Y-98.217
X170.644Y-98.217
X160.644Y-151.557
X165.644Y-151.557
X170.644Y-151.557
X104.764Y-142.596
X109.764Y-142.596
X114.764Y-142.596
X104.764Y-133.777
X109.764Y-133.777
X114.764Y-133.777
X132.704Y-89.256
X137.704Y-89.256
X142.704Y-89.256
X132.704Y-107.036
X137.704Y-107.036
X142.704Y-107.036
X132.704Y-98.217
X137.704Y-98.217
X142.704Y-98.217
X104.764Y-71.476
X109.764Y-71.476
X114.764Y-71.476
X132.704Y-151.557
X137.704Y-151.557
X142.704Y-151.557
X104.764Y-80.437
X109.764Y-80.437
X114.764Y-80.437
X160.644Y-124.816
X165.644Y-124.816
X170.644Y-124.816
X160.644Y-115.997
X165.644Y-115.997
X170.644Y-115.997
X104.764Y-89.256
X109.764Y-89.256
X114.764Y-89.256
X160.644Y-80.437
X165.644Y-80.437
X170.644Y-80.437
T0
M30
