G04 #@! TF.GenerationSoftware,KiCad,Pcbnew,5.1.5+dfsg1-2build2*
G04 #@! TF.CreationDate,2021-09-29T17:52:59-05:00*
G04 #@! TF.ProjectId,,58585858-5858-4585-9858-585858585858,rev?*
G04 #@! TF.SameCoordinates,Original*
G04 #@! TF.FileFunction,Legend,Top*
G04 #@! TF.FilePolarity,Positive*
%FSLAX46Y46*%
G04 Gerber Fmt 4.6, Leading zero omitted, Abs format (unit mm)*
G04 Created by KiCad (PCBNEW 5.1.5+dfsg1-2build2) date 2021-09-29 17:52:59*
%MOMM*%
%LPD*%
G04 APERTURE LIST*
%ADD10C,0.150000*%
%ADD11C,0.050000*%
%ADD12C,0.010000*%
%ADD13C,0.120000*%
G04 APERTURE END LIST*
D10*
X103137285Y-113442714D02*
X103099190Y-113480809D01*
X102984904Y-113518904D01*
X102908714Y-113518904D01*
X102794428Y-113480809D01*
X102718238Y-113404619D01*
X102680142Y-113328428D01*
X102642047Y-113176047D01*
X102642047Y-113061761D01*
X102680142Y-112909380D01*
X102718238Y-112833190D01*
X102794428Y-112757000D01*
X102908714Y-112718904D01*
X102984904Y-112718904D01*
X103099190Y-112757000D01*
X103137285Y-112795095D01*
X103899190Y-113518904D02*
X103442047Y-113518904D01*
X103670619Y-113518904D02*
X103670619Y-112718904D01*
X103594428Y-112833190D01*
X103518238Y-112909380D01*
X103442047Y-112947476D01*
X104165857Y-112718904D02*
X104661095Y-112718904D01*
X104394428Y-113023666D01*
X104508714Y-113023666D01*
X104584904Y-113061761D01*
X104623000Y-113099857D01*
X104661095Y-113176047D01*
X104661095Y-113366523D01*
X104623000Y-113442714D01*
X104584904Y-113480809D01*
X104508714Y-113518904D01*
X104280142Y-113518904D01*
X104203952Y-113480809D01*
X104165857Y-113442714D01*
X104813476Y-113595095D02*
X105423000Y-113595095D01*
X105880142Y-113099857D02*
X105994428Y-113137952D01*
X106032523Y-113176047D01*
X106070619Y-113252238D01*
X106070619Y-113366523D01*
X106032523Y-113442714D01*
X105994428Y-113480809D01*
X105918238Y-113518904D01*
X105613476Y-113518904D01*
X105613476Y-112718904D01*
X105880142Y-112718904D01*
X105956333Y-112757000D01*
X105994428Y-112795095D01*
X106032523Y-112871285D01*
X106032523Y-112947476D01*
X105994428Y-113023666D01*
X105956333Y-113061761D01*
X105880142Y-113099857D01*
X105613476Y-113099857D01*
X106870619Y-113518904D02*
X106603952Y-113137952D01*
X106413476Y-113518904D02*
X106413476Y-112718904D01*
X106718238Y-112718904D01*
X106794428Y-112757000D01*
X106832523Y-112795095D01*
X106870619Y-112871285D01*
X106870619Y-112985571D01*
X106832523Y-113061761D01*
X106794428Y-113099857D01*
X106718238Y-113137952D01*
X106413476Y-113137952D01*
X107213476Y-113099857D02*
X107480142Y-113099857D01*
X107594428Y-113518904D02*
X107213476Y-113518904D01*
X107213476Y-112718904D01*
X107594428Y-112718904D01*
X107899190Y-113290333D02*
X108280142Y-113290333D01*
X107823000Y-113518904D02*
X108089666Y-112718904D01*
X108356333Y-113518904D01*
X108623000Y-113518904D02*
X108623000Y-112718904D01*
X109080142Y-113518904D02*
X108737285Y-113061761D01*
X109080142Y-112718904D02*
X108623000Y-113176047D01*
X109689666Y-113099857D02*
X109803952Y-113137952D01*
X109842047Y-113176047D01*
X109880142Y-113252238D01*
X109880142Y-113366523D01*
X109842047Y-113442714D01*
X109803952Y-113480809D01*
X109727761Y-113518904D01*
X109423000Y-113518904D01*
X109423000Y-112718904D01*
X109689666Y-112718904D01*
X109765857Y-112757000D01*
X109803952Y-112795095D01*
X109842047Y-112871285D01*
X109842047Y-112947476D01*
X109803952Y-113023666D01*
X109765857Y-113061761D01*
X109689666Y-113099857D01*
X109423000Y-113099857D01*
X110375380Y-112718904D02*
X110527761Y-112718904D01*
X110603952Y-112757000D01*
X110680142Y-112833190D01*
X110718238Y-112985571D01*
X110718238Y-113252238D01*
X110680142Y-113404619D01*
X110603952Y-113480809D01*
X110527761Y-113518904D01*
X110375380Y-113518904D01*
X110299190Y-113480809D01*
X110223000Y-113404619D01*
X110184904Y-113252238D01*
X110184904Y-112985571D01*
X110223000Y-112833190D01*
X110299190Y-112757000D01*
X110375380Y-112718904D01*
X111023000Y-113290333D02*
X111403952Y-113290333D01*
X110946809Y-113518904D02*
X111213476Y-112718904D01*
X111480142Y-113518904D01*
X112203952Y-113518904D02*
X111937285Y-113137952D01*
X111746809Y-113518904D02*
X111746809Y-112718904D01*
X112051571Y-112718904D01*
X112127761Y-112757000D01*
X112165857Y-112795095D01*
X112203952Y-112871285D01*
X112203952Y-112985571D01*
X112165857Y-113061761D01*
X112127761Y-113099857D01*
X112051571Y-113137952D01*
X111746809Y-113137952D01*
X112546809Y-113518904D02*
X112546809Y-112718904D01*
X112737285Y-112718904D01*
X112851571Y-112757000D01*
X112927761Y-112833190D01*
X112965857Y-112909380D01*
X113003952Y-113061761D01*
X113003952Y-113176047D01*
X112965857Y-113328428D01*
X112927761Y-113404619D01*
X112851571Y-113480809D01*
X112737285Y-113518904D01*
X112546809Y-113518904D01*
X54877285Y-113442714D02*
X54839190Y-113480809D01*
X54724904Y-113518904D01*
X54648714Y-113518904D01*
X54534428Y-113480809D01*
X54458238Y-113404619D01*
X54420142Y-113328428D01*
X54382047Y-113176047D01*
X54382047Y-113061761D01*
X54420142Y-112909380D01*
X54458238Y-112833190D01*
X54534428Y-112757000D01*
X54648714Y-112718904D01*
X54724904Y-112718904D01*
X54839190Y-112757000D01*
X54877285Y-112795095D01*
X55639190Y-113518904D02*
X55182047Y-113518904D01*
X55410619Y-113518904D02*
X55410619Y-112718904D01*
X55334428Y-112833190D01*
X55258238Y-112909380D01*
X55182047Y-112947476D01*
X55905857Y-112718904D02*
X56401095Y-112718904D01*
X56134428Y-113023666D01*
X56248714Y-113023666D01*
X56324904Y-113061761D01*
X56363000Y-113099857D01*
X56401095Y-113176047D01*
X56401095Y-113366523D01*
X56363000Y-113442714D01*
X56324904Y-113480809D01*
X56248714Y-113518904D01*
X56020142Y-113518904D01*
X55943952Y-113480809D01*
X55905857Y-113442714D01*
X56553476Y-113595095D02*
X57163000Y-113595095D01*
X57620142Y-113099857D02*
X57734428Y-113137952D01*
X57772523Y-113176047D01*
X57810619Y-113252238D01*
X57810619Y-113366523D01*
X57772523Y-113442714D01*
X57734428Y-113480809D01*
X57658238Y-113518904D01*
X57353476Y-113518904D01*
X57353476Y-112718904D01*
X57620142Y-112718904D01*
X57696333Y-112757000D01*
X57734428Y-112795095D01*
X57772523Y-112871285D01*
X57772523Y-112947476D01*
X57734428Y-113023666D01*
X57696333Y-113061761D01*
X57620142Y-113099857D01*
X57353476Y-113099857D01*
X58610619Y-113518904D02*
X58343952Y-113137952D01*
X58153476Y-113518904D02*
X58153476Y-112718904D01*
X58458238Y-112718904D01*
X58534428Y-112757000D01*
X58572523Y-112795095D01*
X58610619Y-112871285D01*
X58610619Y-112985571D01*
X58572523Y-113061761D01*
X58534428Y-113099857D01*
X58458238Y-113137952D01*
X58153476Y-113137952D01*
X58953476Y-113099857D02*
X59220142Y-113099857D01*
X59334428Y-113518904D02*
X58953476Y-113518904D01*
X58953476Y-112718904D01*
X59334428Y-112718904D01*
X59639190Y-113290333D02*
X60020142Y-113290333D01*
X59563000Y-113518904D02*
X59829666Y-112718904D01*
X60096333Y-113518904D01*
X60363000Y-113518904D02*
X60363000Y-112718904D01*
X60820142Y-113518904D02*
X60477285Y-113061761D01*
X60820142Y-112718904D02*
X60363000Y-113176047D01*
X61429666Y-113099857D02*
X61543952Y-113137952D01*
X61582047Y-113176047D01*
X61620142Y-113252238D01*
X61620142Y-113366523D01*
X61582047Y-113442714D01*
X61543952Y-113480809D01*
X61467761Y-113518904D01*
X61163000Y-113518904D01*
X61163000Y-112718904D01*
X61429666Y-112718904D01*
X61505857Y-112757000D01*
X61543952Y-112795095D01*
X61582047Y-112871285D01*
X61582047Y-112947476D01*
X61543952Y-113023666D01*
X61505857Y-113061761D01*
X61429666Y-113099857D01*
X61163000Y-113099857D01*
X62115380Y-112718904D02*
X62267761Y-112718904D01*
X62343952Y-112757000D01*
X62420142Y-112833190D01*
X62458238Y-112985571D01*
X62458238Y-113252238D01*
X62420142Y-113404619D01*
X62343952Y-113480809D01*
X62267761Y-113518904D01*
X62115380Y-113518904D01*
X62039190Y-113480809D01*
X61963000Y-113404619D01*
X61924904Y-113252238D01*
X61924904Y-112985571D01*
X61963000Y-112833190D01*
X62039190Y-112757000D01*
X62115380Y-112718904D01*
X62763000Y-113290333D02*
X63143952Y-113290333D01*
X62686809Y-113518904D02*
X62953476Y-112718904D01*
X63220142Y-113518904D01*
X63943952Y-113518904D02*
X63677285Y-113137952D01*
X63486809Y-113518904D02*
X63486809Y-112718904D01*
X63791571Y-112718904D01*
X63867761Y-112757000D01*
X63905857Y-112795095D01*
X63943952Y-112871285D01*
X63943952Y-112985571D01*
X63905857Y-113061761D01*
X63867761Y-113099857D01*
X63791571Y-113137952D01*
X63486809Y-113137952D01*
X64286809Y-113518904D02*
X64286809Y-112718904D01*
X64477285Y-112718904D01*
X64591571Y-112757000D01*
X64667761Y-112833190D01*
X64705857Y-112909380D01*
X64743952Y-113061761D01*
X64743952Y-113176047D01*
X64705857Y-113328428D01*
X64667761Y-113404619D01*
X64591571Y-113480809D01*
X64477285Y-113518904D01*
X64286809Y-113518904D01*
X103137285Y-85502714D02*
X103099190Y-85540809D01*
X102984904Y-85578904D01*
X102908714Y-85578904D01*
X102794428Y-85540809D01*
X102718238Y-85464619D01*
X102680142Y-85388428D01*
X102642047Y-85236047D01*
X102642047Y-85121761D01*
X102680142Y-84969380D01*
X102718238Y-84893190D01*
X102794428Y-84817000D01*
X102908714Y-84778904D01*
X102984904Y-84778904D01*
X103099190Y-84817000D01*
X103137285Y-84855095D01*
X103899190Y-85578904D02*
X103442047Y-85578904D01*
X103670619Y-85578904D02*
X103670619Y-84778904D01*
X103594428Y-84893190D01*
X103518238Y-84969380D01*
X103442047Y-85007476D01*
X104165857Y-84778904D02*
X104661095Y-84778904D01*
X104394428Y-85083666D01*
X104508714Y-85083666D01*
X104584904Y-85121761D01*
X104623000Y-85159857D01*
X104661095Y-85236047D01*
X104661095Y-85426523D01*
X104623000Y-85502714D01*
X104584904Y-85540809D01*
X104508714Y-85578904D01*
X104280142Y-85578904D01*
X104203952Y-85540809D01*
X104165857Y-85502714D01*
X104813476Y-85655095D02*
X105423000Y-85655095D01*
X105880142Y-85159857D02*
X105994428Y-85197952D01*
X106032523Y-85236047D01*
X106070619Y-85312238D01*
X106070619Y-85426523D01*
X106032523Y-85502714D01*
X105994428Y-85540809D01*
X105918238Y-85578904D01*
X105613476Y-85578904D01*
X105613476Y-84778904D01*
X105880142Y-84778904D01*
X105956333Y-84817000D01*
X105994428Y-84855095D01*
X106032523Y-84931285D01*
X106032523Y-85007476D01*
X105994428Y-85083666D01*
X105956333Y-85121761D01*
X105880142Y-85159857D01*
X105613476Y-85159857D01*
X106870619Y-85578904D02*
X106603952Y-85197952D01*
X106413476Y-85578904D02*
X106413476Y-84778904D01*
X106718238Y-84778904D01*
X106794428Y-84817000D01*
X106832523Y-84855095D01*
X106870619Y-84931285D01*
X106870619Y-85045571D01*
X106832523Y-85121761D01*
X106794428Y-85159857D01*
X106718238Y-85197952D01*
X106413476Y-85197952D01*
X107213476Y-85159857D02*
X107480142Y-85159857D01*
X107594428Y-85578904D02*
X107213476Y-85578904D01*
X107213476Y-84778904D01*
X107594428Y-84778904D01*
X107899190Y-85350333D02*
X108280142Y-85350333D01*
X107823000Y-85578904D02*
X108089666Y-84778904D01*
X108356333Y-85578904D01*
X108623000Y-85578904D02*
X108623000Y-84778904D01*
X109080142Y-85578904D02*
X108737285Y-85121761D01*
X109080142Y-84778904D02*
X108623000Y-85236047D01*
X109689666Y-85159857D02*
X109803952Y-85197952D01*
X109842047Y-85236047D01*
X109880142Y-85312238D01*
X109880142Y-85426523D01*
X109842047Y-85502714D01*
X109803952Y-85540809D01*
X109727761Y-85578904D01*
X109423000Y-85578904D01*
X109423000Y-84778904D01*
X109689666Y-84778904D01*
X109765857Y-84817000D01*
X109803952Y-84855095D01*
X109842047Y-84931285D01*
X109842047Y-85007476D01*
X109803952Y-85083666D01*
X109765857Y-85121761D01*
X109689666Y-85159857D01*
X109423000Y-85159857D01*
X110375380Y-84778904D02*
X110527761Y-84778904D01*
X110603952Y-84817000D01*
X110680142Y-84893190D01*
X110718238Y-85045571D01*
X110718238Y-85312238D01*
X110680142Y-85464619D01*
X110603952Y-85540809D01*
X110527761Y-85578904D01*
X110375380Y-85578904D01*
X110299190Y-85540809D01*
X110223000Y-85464619D01*
X110184904Y-85312238D01*
X110184904Y-85045571D01*
X110223000Y-84893190D01*
X110299190Y-84817000D01*
X110375380Y-84778904D01*
X111023000Y-85350333D02*
X111403952Y-85350333D01*
X110946809Y-85578904D02*
X111213476Y-84778904D01*
X111480142Y-85578904D01*
X112203952Y-85578904D02*
X111937285Y-85197952D01*
X111746809Y-85578904D02*
X111746809Y-84778904D01*
X112051571Y-84778904D01*
X112127761Y-84817000D01*
X112165857Y-84855095D01*
X112203952Y-84931285D01*
X112203952Y-85045571D01*
X112165857Y-85121761D01*
X112127761Y-85159857D01*
X112051571Y-85197952D01*
X111746809Y-85197952D01*
X112546809Y-85578904D02*
X112546809Y-84778904D01*
X112737285Y-84778904D01*
X112851571Y-84817000D01*
X112927761Y-84893190D01*
X112965857Y-84969380D01*
X113003952Y-85121761D01*
X113003952Y-85236047D01*
X112965857Y-85388428D01*
X112927761Y-85464619D01*
X112851571Y-85540809D01*
X112737285Y-85578904D01*
X112546809Y-85578904D01*
X54877285Y-85502714D02*
X54839190Y-85540809D01*
X54724904Y-85578904D01*
X54648714Y-85578904D01*
X54534428Y-85540809D01*
X54458238Y-85464619D01*
X54420142Y-85388428D01*
X54382047Y-85236047D01*
X54382047Y-85121761D01*
X54420142Y-84969380D01*
X54458238Y-84893190D01*
X54534428Y-84817000D01*
X54648714Y-84778904D01*
X54724904Y-84778904D01*
X54839190Y-84817000D01*
X54877285Y-84855095D01*
X55639190Y-85578904D02*
X55182047Y-85578904D01*
X55410619Y-85578904D02*
X55410619Y-84778904D01*
X55334428Y-84893190D01*
X55258238Y-84969380D01*
X55182047Y-85007476D01*
X55905857Y-84778904D02*
X56401095Y-84778904D01*
X56134428Y-85083666D01*
X56248714Y-85083666D01*
X56324904Y-85121761D01*
X56363000Y-85159857D01*
X56401095Y-85236047D01*
X56401095Y-85426523D01*
X56363000Y-85502714D01*
X56324904Y-85540809D01*
X56248714Y-85578904D01*
X56020142Y-85578904D01*
X55943952Y-85540809D01*
X55905857Y-85502714D01*
X56553476Y-85655095D02*
X57163000Y-85655095D01*
X57620142Y-85159857D02*
X57734428Y-85197952D01*
X57772523Y-85236047D01*
X57810619Y-85312238D01*
X57810619Y-85426523D01*
X57772523Y-85502714D01*
X57734428Y-85540809D01*
X57658238Y-85578904D01*
X57353476Y-85578904D01*
X57353476Y-84778904D01*
X57620142Y-84778904D01*
X57696333Y-84817000D01*
X57734428Y-84855095D01*
X57772523Y-84931285D01*
X57772523Y-85007476D01*
X57734428Y-85083666D01*
X57696333Y-85121761D01*
X57620142Y-85159857D01*
X57353476Y-85159857D01*
X58610619Y-85578904D02*
X58343952Y-85197952D01*
X58153476Y-85578904D02*
X58153476Y-84778904D01*
X58458238Y-84778904D01*
X58534428Y-84817000D01*
X58572523Y-84855095D01*
X58610619Y-84931285D01*
X58610619Y-85045571D01*
X58572523Y-85121761D01*
X58534428Y-85159857D01*
X58458238Y-85197952D01*
X58153476Y-85197952D01*
X58953476Y-85159857D02*
X59220142Y-85159857D01*
X59334428Y-85578904D02*
X58953476Y-85578904D01*
X58953476Y-84778904D01*
X59334428Y-84778904D01*
X59639190Y-85350333D02*
X60020142Y-85350333D01*
X59563000Y-85578904D02*
X59829666Y-84778904D01*
X60096333Y-85578904D01*
X60363000Y-85578904D02*
X60363000Y-84778904D01*
X60820142Y-85578904D02*
X60477285Y-85121761D01*
X60820142Y-84778904D02*
X60363000Y-85236047D01*
X61429666Y-85159857D02*
X61543952Y-85197952D01*
X61582047Y-85236047D01*
X61620142Y-85312238D01*
X61620142Y-85426523D01*
X61582047Y-85502714D01*
X61543952Y-85540809D01*
X61467761Y-85578904D01*
X61163000Y-85578904D01*
X61163000Y-84778904D01*
X61429666Y-84778904D01*
X61505857Y-84817000D01*
X61543952Y-84855095D01*
X61582047Y-84931285D01*
X61582047Y-85007476D01*
X61543952Y-85083666D01*
X61505857Y-85121761D01*
X61429666Y-85159857D01*
X61163000Y-85159857D01*
X62115380Y-84778904D02*
X62267761Y-84778904D01*
X62343952Y-84817000D01*
X62420142Y-84893190D01*
X62458238Y-85045571D01*
X62458238Y-85312238D01*
X62420142Y-85464619D01*
X62343952Y-85540809D01*
X62267761Y-85578904D01*
X62115380Y-85578904D01*
X62039190Y-85540809D01*
X61963000Y-85464619D01*
X61924904Y-85312238D01*
X61924904Y-85045571D01*
X61963000Y-84893190D01*
X62039190Y-84817000D01*
X62115380Y-84778904D01*
X62763000Y-85350333D02*
X63143952Y-85350333D01*
X62686809Y-85578904D02*
X62953476Y-84778904D01*
X63220142Y-85578904D01*
X63943952Y-85578904D02*
X63677285Y-85197952D01*
X63486809Y-85578904D02*
X63486809Y-84778904D01*
X63791571Y-84778904D01*
X63867761Y-84817000D01*
X63905857Y-84855095D01*
X63943952Y-84931285D01*
X63943952Y-85045571D01*
X63905857Y-85121761D01*
X63867761Y-85159857D01*
X63791571Y-85197952D01*
X63486809Y-85197952D01*
X64286809Y-85578904D02*
X64286809Y-84778904D01*
X64477285Y-84778904D01*
X64591571Y-84817000D01*
X64667761Y-84893190D01*
X64705857Y-84969380D01*
X64743952Y-85121761D01*
X64743952Y-85236047D01*
X64705857Y-85388428D01*
X64667761Y-85464619D01*
X64591571Y-85540809D01*
X64477285Y-85578904D01*
X64286809Y-85578904D01*
X103137285Y-57562714D02*
X103099190Y-57600809D01*
X102984904Y-57638904D01*
X102908714Y-57638904D01*
X102794428Y-57600809D01*
X102718238Y-57524619D01*
X102680142Y-57448428D01*
X102642047Y-57296047D01*
X102642047Y-57181761D01*
X102680142Y-57029380D01*
X102718238Y-56953190D01*
X102794428Y-56877000D01*
X102908714Y-56838904D01*
X102984904Y-56838904D01*
X103099190Y-56877000D01*
X103137285Y-56915095D01*
X103899190Y-57638904D02*
X103442047Y-57638904D01*
X103670619Y-57638904D02*
X103670619Y-56838904D01*
X103594428Y-56953190D01*
X103518238Y-57029380D01*
X103442047Y-57067476D01*
X104165857Y-56838904D02*
X104661095Y-56838904D01*
X104394428Y-57143666D01*
X104508714Y-57143666D01*
X104584904Y-57181761D01*
X104623000Y-57219857D01*
X104661095Y-57296047D01*
X104661095Y-57486523D01*
X104623000Y-57562714D01*
X104584904Y-57600809D01*
X104508714Y-57638904D01*
X104280142Y-57638904D01*
X104203952Y-57600809D01*
X104165857Y-57562714D01*
X104813476Y-57715095D02*
X105423000Y-57715095D01*
X105880142Y-57219857D02*
X105994428Y-57257952D01*
X106032523Y-57296047D01*
X106070619Y-57372238D01*
X106070619Y-57486523D01*
X106032523Y-57562714D01*
X105994428Y-57600809D01*
X105918238Y-57638904D01*
X105613476Y-57638904D01*
X105613476Y-56838904D01*
X105880142Y-56838904D01*
X105956333Y-56877000D01*
X105994428Y-56915095D01*
X106032523Y-56991285D01*
X106032523Y-57067476D01*
X105994428Y-57143666D01*
X105956333Y-57181761D01*
X105880142Y-57219857D01*
X105613476Y-57219857D01*
X106870619Y-57638904D02*
X106603952Y-57257952D01*
X106413476Y-57638904D02*
X106413476Y-56838904D01*
X106718238Y-56838904D01*
X106794428Y-56877000D01*
X106832523Y-56915095D01*
X106870619Y-56991285D01*
X106870619Y-57105571D01*
X106832523Y-57181761D01*
X106794428Y-57219857D01*
X106718238Y-57257952D01*
X106413476Y-57257952D01*
X107213476Y-57219857D02*
X107480142Y-57219857D01*
X107594428Y-57638904D02*
X107213476Y-57638904D01*
X107213476Y-56838904D01*
X107594428Y-56838904D01*
X107899190Y-57410333D02*
X108280142Y-57410333D01*
X107823000Y-57638904D02*
X108089666Y-56838904D01*
X108356333Y-57638904D01*
X108623000Y-57638904D02*
X108623000Y-56838904D01*
X109080142Y-57638904D02*
X108737285Y-57181761D01*
X109080142Y-56838904D02*
X108623000Y-57296047D01*
X109689666Y-57219857D02*
X109803952Y-57257952D01*
X109842047Y-57296047D01*
X109880142Y-57372238D01*
X109880142Y-57486523D01*
X109842047Y-57562714D01*
X109803952Y-57600809D01*
X109727761Y-57638904D01*
X109423000Y-57638904D01*
X109423000Y-56838904D01*
X109689666Y-56838904D01*
X109765857Y-56877000D01*
X109803952Y-56915095D01*
X109842047Y-56991285D01*
X109842047Y-57067476D01*
X109803952Y-57143666D01*
X109765857Y-57181761D01*
X109689666Y-57219857D01*
X109423000Y-57219857D01*
X110375380Y-56838904D02*
X110527761Y-56838904D01*
X110603952Y-56877000D01*
X110680142Y-56953190D01*
X110718238Y-57105571D01*
X110718238Y-57372238D01*
X110680142Y-57524619D01*
X110603952Y-57600809D01*
X110527761Y-57638904D01*
X110375380Y-57638904D01*
X110299190Y-57600809D01*
X110223000Y-57524619D01*
X110184904Y-57372238D01*
X110184904Y-57105571D01*
X110223000Y-56953190D01*
X110299190Y-56877000D01*
X110375380Y-56838904D01*
X111023000Y-57410333D02*
X111403952Y-57410333D01*
X110946809Y-57638904D02*
X111213476Y-56838904D01*
X111480142Y-57638904D01*
X112203952Y-57638904D02*
X111937285Y-57257952D01*
X111746809Y-57638904D02*
X111746809Y-56838904D01*
X112051571Y-56838904D01*
X112127761Y-56877000D01*
X112165857Y-56915095D01*
X112203952Y-56991285D01*
X112203952Y-57105571D01*
X112165857Y-57181761D01*
X112127761Y-57219857D01*
X112051571Y-57257952D01*
X111746809Y-57257952D01*
X112546809Y-57638904D02*
X112546809Y-56838904D01*
X112737285Y-56838904D01*
X112851571Y-56877000D01*
X112927761Y-56953190D01*
X112965857Y-57029380D01*
X113003952Y-57181761D01*
X113003952Y-57296047D01*
X112965857Y-57448428D01*
X112927761Y-57524619D01*
X112851571Y-57600809D01*
X112737285Y-57638904D01*
X112546809Y-57638904D01*
D11*
X147254000Y-95057000D02*
X147254000Y-122997000D01*
X98994000Y-95057000D02*
X98994000Y-122997000D01*
X147254000Y-67117000D02*
X147254000Y-95057000D01*
X98994000Y-67117000D02*
X98994000Y-95057000D01*
X147254000Y-39177000D02*
X147254000Y-67117000D01*
X98994000Y-122997000D02*
X147254000Y-122997000D01*
X50734000Y-122997000D02*
X98994000Y-122997000D01*
X98994000Y-95057000D02*
X147254000Y-95057000D01*
X50734000Y-95057000D02*
X98994000Y-95057000D01*
X98994000Y-67117000D02*
X147254000Y-67117000D01*
X98994000Y-95057000D02*
X147254000Y-95057000D01*
X50734000Y-95057000D02*
X98994000Y-95057000D01*
X98994000Y-67117000D02*
X147254000Y-67117000D01*
X50734000Y-67117000D02*
X98994000Y-67117000D01*
X98994000Y-39177000D02*
X147254000Y-39177000D01*
X98994000Y-95057000D02*
X98994000Y-122997000D01*
X50734000Y-95057000D02*
X50734000Y-122997000D01*
X98994000Y-67117000D02*
X98994000Y-95057000D01*
X50734000Y-67117000D02*
X50734000Y-95057000D01*
X98994000Y-39177000D02*
X98994000Y-67117000D01*
D10*
X54877285Y-57562714D02*
X54839190Y-57600809D01*
X54724904Y-57638904D01*
X54648714Y-57638904D01*
X54534428Y-57600809D01*
X54458238Y-57524619D01*
X54420142Y-57448428D01*
X54382047Y-57296047D01*
X54382047Y-57181761D01*
X54420142Y-57029380D01*
X54458238Y-56953190D01*
X54534428Y-56877000D01*
X54648714Y-56838904D01*
X54724904Y-56838904D01*
X54839190Y-56877000D01*
X54877285Y-56915095D01*
X55639190Y-57638904D02*
X55182047Y-57638904D01*
X55410619Y-57638904D02*
X55410619Y-56838904D01*
X55334428Y-56953190D01*
X55258238Y-57029380D01*
X55182047Y-57067476D01*
X55905857Y-56838904D02*
X56401095Y-56838904D01*
X56134428Y-57143666D01*
X56248714Y-57143666D01*
X56324904Y-57181761D01*
X56363000Y-57219857D01*
X56401095Y-57296047D01*
X56401095Y-57486523D01*
X56363000Y-57562714D01*
X56324904Y-57600809D01*
X56248714Y-57638904D01*
X56020142Y-57638904D01*
X55943952Y-57600809D01*
X55905857Y-57562714D01*
X56553476Y-57715095D02*
X57163000Y-57715095D01*
X57620142Y-57219857D02*
X57734428Y-57257952D01*
X57772523Y-57296047D01*
X57810619Y-57372238D01*
X57810619Y-57486523D01*
X57772523Y-57562714D01*
X57734428Y-57600809D01*
X57658238Y-57638904D01*
X57353476Y-57638904D01*
X57353476Y-56838904D01*
X57620142Y-56838904D01*
X57696333Y-56877000D01*
X57734428Y-56915095D01*
X57772523Y-56991285D01*
X57772523Y-57067476D01*
X57734428Y-57143666D01*
X57696333Y-57181761D01*
X57620142Y-57219857D01*
X57353476Y-57219857D01*
X58610619Y-57638904D02*
X58343952Y-57257952D01*
X58153476Y-57638904D02*
X58153476Y-56838904D01*
X58458238Y-56838904D01*
X58534428Y-56877000D01*
X58572523Y-56915095D01*
X58610619Y-56991285D01*
X58610619Y-57105571D01*
X58572523Y-57181761D01*
X58534428Y-57219857D01*
X58458238Y-57257952D01*
X58153476Y-57257952D01*
X58953476Y-57219857D02*
X59220142Y-57219857D01*
X59334428Y-57638904D02*
X58953476Y-57638904D01*
X58953476Y-56838904D01*
X59334428Y-56838904D01*
X59639190Y-57410333D02*
X60020142Y-57410333D01*
X59563000Y-57638904D02*
X59829666Y-56838904D01*
X60096333Y-57638904D01*
X60363000Y-57638904D02*
X60363000Y-56838904D01*
X60820142Y-57638904D02*
X60477285Y-57181761D01*
X60820142Y-56838904D02*
X60363000Y-57296047D01*
X61429666Y-57219857D02*
X61543952Y-57257952D01*
X61582047Y-57296047D01*
X61620142Y-57372238D01*
X61620142Y-57486523D01*
X61582047Y-57562714D01*
X61543952Y-57600809D01*
X61467761Y-57638904D01*
X61163000Y-57638904D01*
X61163000Y-56838904D01*
X61429666Y-56838904D01*
X61505857Y-56877000D01*
X61543952Y-56915095D01*
X61582047Y-56991285D01*
X61582047Y-57067476D01*
X61543952Y-57143666D01*
X61505857Y-57181761D01*
X61429666Y-57219857D01*
X61163000Y-57219857D01*
X62115380Y-56838904D02*
X62267761Y-56838904D01*
X62343952Y-56877000D01*
X62420142Y-56953190D01*
X62458238Y-57105571D01*
X62458238Y-57372238D01*
X62420142Y-57524619D01*
X62343952Y-57600809D01*
X62267761Y-57638904D01*
X62115380Y-57638904D01*
X62039190Y-57600809D01*
X61963000Y-57524619D01*
X61924904Y-57372238D01*
X61924904Y-57105571D01*
X61963000Y-56953190D01*
X62039190Y-56877000D01*
X62115380Y-56838904D01*
X62763000Y-57410333D02*
X63143952Y-57410333D01*
X62686809Y-57638904D02*
X62953476Y-56838904D01*
X63220142Y-57638904D01*
X63943952Y-57638904D02*
X63677285Y-57257952D01*
X63486809Y-57638904D02*
X63486809Y-56838904D01*
X63791571Y-56838904D01*
X63867761Y-56877000D01*
X63905857Y-56915095D01*
X63943952Y-56991285D01*
X63943952Y-57105571D01*
X63905857Y-57181761D01*
X63867761Y-57219857D01*
X63791571Y-57257952D01*
X63486809Y-57257952D01*
X64286809Y-57638904D02*
X64286809Y-56838904D01*
X64477285Y-56838904D01*
X64591571Y-56877000D01*
X64667761Y-56953190D01*
X64705857Y-57029380D01*
X64743952Y-57181761D01*
X64743952Y-57296047D01*
X64705857Y-57448428D01*
X64667761Y-57524619D01*
X64591571Y-57600809D01*
X64477285Y-57638904D01*
X64286809Y-57638904D01*
D11*
X98994000Y-39177000D02*
X98994000Y-67117000D01*
X50734000Y-67117000D02*
X98994000Y-67117000D01*
X50734000Y-39177000D02*
X98994000Y-39177000D01*
X50734000Y-39177000D02*
X50734000Y-67117000D01*
D12*
G36*
X108124814Y-104275931D02*
G01*
X108208635Y-104720555D01*
X108517920Y-104848053D01*
X108827206Y-104975551D01*
X109198246Y-104723246D01*
X109302157Y-104652996D01*
X109396087Y-104590272D01*
X109475652Y-104537938D01*
X109536470Y-104498857D01*
X109574157Y-104475893D01*
X109584421Y-104470942D01*
X109602910Y-104483676D01*
X109642420Y-104518882D01*
X109698522Y-104572062D01*
X109766787Y-104638718D01*
X109842786Y-104714354D01*
X109922092Y-104794472D01*
X110000275Y-104874574D01*
X110072907Y-104950164D01*
X110135559Y-105016745D01*
X110183803Y-105069818D01*
X110213210Y-105104887D01*
X110220241Y-105116623D01*
X110210123Y-105138260D01*
X110181759Y-105185662D01*
X110138129Y-105254193D01*
X110082218Y-105339215D01*
X110017006Y-105436093D01*
X109979219Y-105491350D01*
X109910343Y-105592248D01*
X109849140Y-105683299D01*
X109798578Y-105759970D01*
X109761628Y-105817728D01*
X109741258Y-105852043D01*
X109738197Y-105859254D01*
X109745136Y-105879748D01*
X109764051Y-105927513D01*
X109792087Y-105995832D01*
X109826391Y-106077989D01*
X109864109Y-106167270D01*
X109902387Y-106256958D01*
X109938370Y-106340338D01*
X109969206Y-106410694D01*
X109992039Y-106461310D01*
X110004017Y-106485471D01*
X110004724Y-106486422D01*
X110023531Y-106491036D01*
X110073618Y-106501328D01*
X110149793Y-106516287D01*
X110246865Y-106534901D01*
X110359643Y-106556159D01*
X110425442Y-106568418D01*
X110545950Y-106591362D01*
X110654797Y-106613195D01*
X110746476Y-106632722D01*
X110815481Y-106648748D01*
X110856304Y-106660079D01*
X110864511Y-106663674D01*
X110872548Y-106688006D01*
X110879033Y-106742959D01*
X110883970Y-106822108D01*
X110887364Y-106919026D01*
X110889218Y-107027287D01*
X110889538Y-107140465D01*
X110888327Y-107252135D01*
X110885590Y-107355868D01*
X110881331Y-107445241D01*
X110875555Y-107513826D01*
X110868267Y-107555197D01*
X110863895Y-107563810D01*
X110837764Y-107574133D01*
X110782393Y-107588892D01*
X110705107Y-107606352D01*
X110613230Y-107624780D01*
X110581158Y-107630741D01*
X110426524Y-107659066D01*
X110304375Y-107681876D01*
X110210673Y-107700080D01*
X110141384Y-107714583D01*
X110092471Y-107726292D01*
X110059897Y-107736115D01*
X110039628Y-107744956D01*
X110027626Y-107753724D01*
X110025947Y-107755457D01*
X110009184Y-107783371D01*
X109983614Y-107837695D01*
X109951788Y-107911777D01*
X109916260Y-107998965D01*
X109879583Y-108092608D01*
X109844311Y-108186052D01*
X109812996Y-108272647D01*
X109788193Y-108345740D01*
X109772454Y-108398678D01*
X109768332Y-108424811D01*
X109768676Y-108425726D01*
X109782641Y-108447086D01*
X109814322Y-108494084D01*
X109860391Y-108561827D01*
X109917518Y-108645423D01*
X109982373Y-108739982D01*
X110000843Y-108766854D01*
X110066699Y-108864275D01*
X110124650Y-108953163D01*
X110171538Y-109028412D01*
X110204207Y-109084920D01*
X110219500Y-109117581D01*
X110220241Y-109121593D01*
X110207392Y-109142684D01*
X110171888Y-109184464D01*
X110118293Y-109242445D01*
X110051171Y-109312135D01*
X109975087Y-109389045D01*
X109894604Y-109468683D01*
X109814287Y-109546561D01*
X109738699Y-109618186D01*
X109672405Y-109679070D01*
X109619969Y-109724721D01*
X109585955Y-109750650D01*
X109576545Y-109754883D01*
X109554643Y-109744912D01*
X109509800Y-109718020D01*
X109449321Y-109678736D01*
X109402789Y-109647117D01*
X109318475Y-109589098D01*
X109218626Y-109520784D01*
X109118473Y-109452579D01*
X109064627Y-109416075D01*
X108882371Y-109292800D01*
X108729381Y-109375520D01*
X108659682Y-109411759D01*
X108600414Y-109439926D01*
X108560311Y-109455991D01*
X108550103Y-109458226D01*
X108537829Y-109441722D01*
X108513613Y-109395082D01*
X108479263Y-109322609D01*
X108436588Y-109228606D01*
X108387394Y-109117374D01*
X108333490Y-108993215D01*
X108276684Y-108860432D01*
X108218782Y-108723327D01*
X108161593Y-108586202D01*
X108106924Y-108453358D01*
X108056584Y-108329098D01*
X108012380Y-108217725D01*
X107976119Y-108123539D01*
X107949609Y-108050844D01*
X107934658Y-108003941D01*
X107932254Y-107987833D01*
X107951311Y-107967286D01*
X107993036Y-107933933D01*
X108048706Y-107894702D01*
X108053378Y-107891599D01*
X108197264Y-107776423D01*
X108313283Y-107642053D01*
X108400430Y-107492784D01*
X108457699Y-107332913D01*
X108484086Y-107166737D01*
X108478585Y-106998552D01*
X108440190Y-106832655D01*
X108367895Y-106673342D01*
X108346626Y-106638487D01*
X108235996Y-106497737D01*
X108105302Y-106384714D01*
X107959064Y-106300003D01*
X107801808Y-106244194D01*
X107638057Y-106217874D01*
X107472333Y-106221630D01*
X107309162Y-106256050D01*
X107153065Y-106321723D01*
X107008567Y-106419235D01*
X106963869Y-106458813D01*
X106850112Y-106582703D01*
X106767218Y-106713124D01*
X106710356Y-106859315D01*
X106678687Y-107004088D01*
X106670869Y-107166860D01*
X106696938Y-107330440D01*
X106754245Y-107489298D01*
X106840144Y-107637906D01*
X106951986Y-107770735D01*
X107087123Y-107882256D01*
X107104883Y-107894011D01*
X107161150Y-107932508D01*
X107203923Y-107965863D01*
X107224372Y-107987160D01*
X107224669Y-107987833D01*
X107220279Y-108010871D01*
X107202876Y-108063157D01*
X107174268Y-108140390D01*
X107136265Y-108238268D01*
X107090674Y-108352491D01*
X107039303Y-108478758D01*
X106983962Y-108612767D01*
X106926458Y-108750218D01*
X106868601Y-108886808D01*
X106812198Y-109018237D01*
X106759058Y-109140205D01*
X106710990Y-109248409D01*
X106669801Y-109338549D01*
X106637301Y-109406323D01*
X106615297Y-109447430D01*
X106606436Y-109458226D01*
X106579360Y-109449819D01*
X106528697Y-109427272D01*
X106463183Y-109394613D01*
X106427159Y-109375520D01*
X106274168Y-109292800D01*
X106091912Y-109416075D01*
X105998875Y-109479228D01*
X105897015Y-109548727D01*
X105801562Y-109614165D01*
X105753750Y-109647117D01*
X105686505Y-109692273D01*
X105629564Y-109728057D01*
X105590354Y-109749938D01*
X105577619Y-109754563D01*
X105559083Y-109742085D01*
X105518059Y-109707252D01*
X105458525Y-109653678D01*
X105384458Y-109584983D01*
X105299835Y-109504781D01*
X105246315Y-109453286D01*
X105152681Y-109361286D01*
X105071759Y-109278999D01*
X105006823Y-109209945D01*
X104961142Y-109157644D01*
X104937989Y-109125616D01*
X104935768Y-109119116D01*
X104946076Y-109094394D01*
X104974561Y-109044405D01*
X105018063Y-108974212D01*
X105073423Y-108888875D01*
X105137480Y-108793456D01*
X105155697Y-108766854D01*
X105222073Y-108670167D01*
X105281622Y-108583117D01*
X105331016Y-108510595D01*
X105366925Y-108457493D01*
X105386019Y-108428703D01*
X105387864Y-108425726D01*
X105385105Y-108402782D01*
X105370462Y-108352336D01*
X105346487Y-108281041D01*
X105315734Y-108195547D01*
X105280756Y-108102507D01*
X105244107Y-108008574D01*
X105208339Y-107920399D01*
X105176006Y-107844634D01*
X105149662Y-107787931D01*
X105131858Y-107756943D01*
X105130593Y-107755457D01*
X105119706Y-107746601D01*
X105101318Y-107737843D01*
X105071394Y-107728277D01*
X105025897Y-107716996D01*
X104960791Y-107703093D01*
X104872039Y-107685663D01*
X104755607Y-107663798D01*
X104607458Y-107636591D01*
X104575382Y-107630741D01*
X104480314Y-107612374D01*
X104397435Y-107594405D01*
X104334070Y-107578569D01*
X104297542Y-107566600D01*
X104292644Y-107563810D01*
X104284573Y-107539072D01*
X104278013Y-107483790D01*
X104272967Y-107404389D01*
X104269441Y-107307296D01*
X104267439Y-107198938D01*
X104266964Y-107085740D01*
X104268023Y-106974128D01*
X104270618Y-106870529D01*
X104274754Y-106781368D01*
X104280437Y-106713072D01*
X104287669Y-106672066D01*
X104292029Y-106663674D01*
X104316302Y-106655208D01*
X104371574Y-106641435D01*
X104452338Y-106623550D01*
X104553088Y-106602748D01*
X104668317Y-106580223D01*
X104731098Y-106568418D01*
X104850213Y-106546151D01*
X104956435Y-106525979D01*
X105044573Y-106508915D01*
X105109434Y-106495969D01*
X105145826Y-106488155D01*
X105151816Y-106486422D01*
X105161939Y-106466890D01*
X105183338Y-106419843D01*
X105213161Y-106352003D01*
X105248555Y-106270091D01*
X105286668Y-106180828D01*
X105324647Y-106090935D01*
X105359640Y-106007135D01*
X105388794Y-105936147D01*
X105409257Y-105884694D01*
X105418177Y-105859497D01*
X105418343Y-105858396D01*
X105408231Y-105838519D01*
X105379883Y-105792777D01*
X105336277Y-105725717D01*
X105280394Y-105641884D01*
X105215213Y-105545826D01*
X105177321Y-105490650D01*
X105108275Y-105389481D01*
X105046950Y-105297630D01*
X104996337Y-105219744D01*
X104959429Y-105160469D01*
X104939218Y-105124451D01*
X104936299Y-105116377D01*
X104948847Y-105097584D01*
X104983537Y-105057457D01*
X105035937Y-105000493D01*
X105101616Y-104931185D01*
X105176144Y-104854031D01*
X105255087Y-104773525D01*
X105334017Y-104694163D01*
X105408500Y-104620440D01*
X105474106Y-104556852D01*
X105526404Y-104507894D01*
X105560961Y-104478061D01*
X105572522Y-104470942D01*
X105591346Y-104480953D01*
X105636369Y-104509078D01*
X105703213Y-104552454D01*
X105787501Y-104608218D01*
X105884856Y-104673506D01*
X105958293Y-104723246D01*
X106329333Y-104975551D01*
X106947905Y-104720555D01*
X107031725Y-104275931D01*
X107115546Y-103831307D01*
X108040994Y-103831307D01*
X108124814Y-104275931D01*
G37*
X108124814Y-104275931D02*
X108208635Y-104720555D01*
X108517920Y-104848053D01*
X108827206Y-104975551D01*
X109198246Y-104723246D01*
X109302157Y-104652996D01*
X109396087Y-104590272D01*
X109475652Y-104537938D01*
X109536470Y-104498857D01*
X109574157Y-104475893D01*
X109584421Y-104470942D01*
X109602910Y-104483676D01*
X109642420Y-104518882D01*
X109698522Y-104572062D01*
X109766787Y-104638718D01*
X109842786Y-104714354D01*
X109922092Y-104794472D01*
X110000275Y-104874574D01*
X110072907Y-104950164D01*
X110135559Y-105016745D01*
X110183803Y-105069818D01*
X110213210Y-105104887D01*
X110220241Y-105116623D01*
X110210123Y-105138260D01*
X110181759Y-105185662D01*
X110138129Y-105254193D01*
X110082218Y-105339215D01*
X110017006Y-105436093D01*
X109979219Y-105491350D01*
X109910343Y-105592248D01*
X109849140Y-105683299D01*
X109798578Y-105759970D01*
X109761628Y-105817728D01*
X109741258Y-105852043D01*
X109738197Y-105859254D01*
X109745136Y-105879748D01*
X109764051Y-105927513D01*
X109792087Y-105995832D01*
X109826391Y-106077989D01*
X109864109Y-106167270D01*
X109902387Y-106256958D01*
X109938370Y-106340338D01*
X109969206Y-106410694D01*
X109992039Y-106461310D01*
X110004017Y-106485471D01*
X110004724Y-106486422D01*
X110023531Y-106491036D01*
X110073618Y-106501328D01*
X110149793Y-106516287D01*
X110246865Y-106534901D01*
X110359643Y-106556159D01*
X110425442Y-106568418D01*
X110545950Y-106591362D01*
X110654797Y-106613195D01*
X110746476Y-106632722D01*
X110815481Y-106648748D01*
X110856304Y-106660079D01*
X110864511Y-106663674D01*
X110872548Y-106688006D01*
X110879033Y-106742959D01*
X110883970Y-106822108D01*
X110887364Y-106919026D01*
X110889218Y-107027287D01*
X110889538Y-107140465D01*
X110888327Y-107252135D01*
X110885590Y-107355868D01*
X110881331Y-107445241D01*
X110875555Y-107513826D01*
X110868267Y-107555197D01*
X110863895Y-107563810D01*
X110837764Y-107574133D01*
X110782393Y-107588892D01*
X110705107Y-107606352D01*
X110613230Y-107624780D01*
X110581158Y-107630741D01*
X110426524Y-107659066D01*
X110304375Y-107681876D01*
X110210673Y-107700080D01*
X110141384Y-107714583D01*
X110092471Y-107726292D01*
X110059897Y-107736115D01*
X110039628Y-107744956D01*
X110027626Y-107753724D01*
X110025947Y-107755457D01*
X110009184Y-107783371D01*
X109983614Y-107837695D01*
X109951788Y-107911777D01*
X109916260Y-107998965D01*
X109879583Y-108092608D01*
X109844311Y-108186052D01*
X109812996Y-108272647D01*
X109788193Y-108345740D01*
X109772454Y-108398678D01*
X109768332Y-108424811D01*
X109768676Y-108425726D01*
X109782641Y-108447086D01*
X109814322Y-108494084D01*
X109860391Y-108561827D01*
X109917518Y-108645423D01*
X109982373Y-108739982D01*
X110000843Y-108766854D01*
X110066699Y-108864275D01*
X110124650Y-108953163D01*
X110171538Y-109028412D01*
X110204207Y-109084920D01*
X110219500Y-109117581D01*
X110220241Y-109121593D01*
X110207392Y-109142684D01*
X110171888Y-109184464D01*
X110118293Y-109242445D01*
X110051171Y-109312135D01*
X109975087Y-109389045D01*
X109894604Y-109468683D01*
X109814287Y-109546561D01*
X109738699Y-109618186D01*
X109672405Y-109679070D01*
X109619969Y-109724721D01*
X109585955Y-109750650D01*
X109576545Y-109754883D01*
X109554643Y-109744912D01*
X109509800Y-109718020D01*
X109449321Y-109678736D01*
X109402789Y-109647117D01*
X109318475Y-109589098D01*
X109218626Y-109520784D01*
X109118473Y-109452579D01*
X109064627Y-109416075D01*
X108882371Y-109292800D01*
X108729381Y-109375520D01*
X108659682Y-109411759D01*
X108600414Y-109439926D01*
X108560311Y-109455991D01*
X108550103Y-109458226D01*
X108537829Y-109441722D01*
X108513613Y-109395082D01*
X108479263Y-109322609D01*
X108436588Y-109228606D01*
X108387394Y-109117374D01*
X108333490Y-108993215D01*
X108276684Y-108860432D01*
X108218782Y-108723327D01*
X108161593Y-108586202D01*
X108106924Y-108453358D01*
X108056584Y-108329098D01*
X108012380Y-108217725D01*
X107976119Y-108123539D01*
X107949609Y-108050844D01*
X107934658Y-108003941D01*
X107932254Y-107987833D01*
X107951311Y-107967286D01*
X107993036Y-107933933D01*
X108048706Y-107894702D01*
X108053378Y-107891599D01*
X108197264Y-107776423D01*
X108313283Y-107642053D01*
X108400430Y-107492784D01*
X108457699Y-107332913D01*
X108484086Y-107166737D01*
X108478585Y-106998552D01*
X108440190Y-106832655D01*
X108367895Y-106673342D01*
X108346626Y-106638487D01*
X108235996Y-106497737D01*
X108105302Y-106384714D01*
X107959064Y-106300003D01*
X107801808Y-106244194D01*
X107638057Y-106217874D01*
X107472333Y-106221630D01*
X107309162Y-106256050D01*
X107153065Y-106321723D01*
X107008567Y-106419235D01*
X106963869Y-106458813D01*
X106850112Y-106582703D01*
X106767218Y-106713124D01*
X106710356Y-106859315D01*
X106678687Y-107004088D01*
X106670869Y-107166860D01*
X106696938Y-107330440D01*
X106754245Y-107489298D01*
X106840144Y-107637906D01*
X106951986Y-107770735D01*
X107087123Y-107882256D01*
X107104883Y-107894011D01*
X107161150Y-107932508D01*
X107203923Y-107965863D01*
X107224372Y-107987160D01*
X107224669Y-107987833D01*
X107220279Y-108010871D01*
X107202876Y-108063157D01*
X107174268Y-108140390D01*
X107136265Y-108238268D01*
X107090674Y-108352491D01*
X107039303Y-108478758D01*
X106983962Y-108612767D01*
X106926458Y-108750218D01*
X106868601Y-108886808D01*
X106812198Y-109018237D01*
X106759058Y-109140205D01*
X106710990Y-109248409D01*
X106669801Y-109338549D01*
X106637301Y-109406323D01*
X106615297Y-109447430D01*
X106606436Y-109458226D01*
X106579360Y-109449819D01*
X106528697Y-109427272D01*
X106463183Y-109394613D01*
X106427159Y-109375520D01*
X106274168Y-109292800D01*
X106091912Y-109416075D01*
X105998875Y-109479228D01*
X105897015Y-109548727D01*
X105801562Y-109614165D01*
X105753750Y-109647117D01*
X105686505Y-109692273D01*
X105629564Y-109728057D01*
X105590354Y-109749938D01*
X105577619Y-109754563D01*
X105559083Y-109742085D01*
X105518059Y-109707252D01*
X105458525Y-109653678D01*
X105384458Y-109584983D01*
X105299835Y-109504781D01*
X105246315Y-109453286D01*
X105152681Y-109361286D01*
X105071759Y-109278999D01*
X105006823Y-109209945D01*
X104961142Y-109157644D01*
X104937989Y-109125616D01*
X104935768Y-109119116D01*
X104946076Y-109094394D01*
X104974561Y-109044405D01*
X105018063Y-108974212D01*
X105073423Y-108888875D01*
X105137480Y-108793456D01*
X105155697Y-108766854D01*
X105222073Y-108670167D01*
X105281622Y-108583117D01*
X105331016Y-108510595D01*
X105366925Y-108457493D01*
X105386019Y-108428703D01*
X105387864Y-108425726D01*
X105385105Y-108402782D01*
X105370462Y-108352336D01*
X105346487Y-108281041D01*
X105315734Y-108195547D01*
X105280756Y-108102507D01*
X105244107Y-108008574D01*
X105208339Y-107920399D01*
X105176006Y-107844634D01*
X105149662Y-107787931D01*
X105131858Y-107756943D01*
X105130593Y-107755457D01*
X105119706Y-107746601D01*
X105101318Y-107737843D01*
X105071394Y-107728277D01*
X105025897Y-107716996D01*
X104960791Y-107703093D01*
X104872039Y-107685663D01*
X104755607Y-107663798D01*
X104607458Y-107636591D01*
X104575382Y-107630741D01*
X104480314Y-107612374D01*
X104397435Y-107594405D01*
X104334070Y-107578569D01*
X104297542Y-107566600D01*
X104292644Y-107563810D01*
X104284573Y-107539072D01*
X104278013Y-107483790D01*
X104272967Y-107404389D01*
X104269441Y-107307296D01*
X104267439Y-107198938D01*
X104266964Y-107085740D01*
X104268023Y-106974128D01*
X104270618Y-106870529D01*
X104274754Y-106781368D01*
X104280437Y-106713072D01*
X104287669Y-106672066D01*
X104292029Y-106663674D01*
X104316302Y-106655208D01*
X104371574Y-106641435D01*
X104452338Y-106623550D01*
X104553088Y-106602748D01*
X104668317Y-106580223D01*
X104731098Y-106568418D01*
X104850213Y-106546151D01*
X104956435Y-106525979D01*
X105044573Y-106508915D01*
X105109434Y-106495969D01*
X105145826Y-106488155D01*
X105151816Y-106486422D01*
X105161939Y-106466890D01*
X105183338Y-106419843D01*
X105213161Y-106352003D01*
X105248555Y-106270091D01*
X105286668Y-106180828D01*
X105324647Y-106090935D01*
X105359640Y-106007135D01*
X105388794Y-105936147D01*
X105409257Y-105884694D01*
X105418177Y-105859497D01*
X105418343Y-105858396D01*
X105408231Y-105838519D01*
X105379883Y-105792777D01*
X105336277Y-105725717D01*
X105280394Y-105641884D01*
X105215213Y-105545826D01*
X105177321Y-105490650D01*
X105108275Y-105389481D01*
X105046950Y-105297630D01*
X104996337Y-105219744D01*
X104959429Y-105160469D01*
X104939218Y-105124451D01*
X104936299Y-105116377D01*
X104948847Y-105097584D01*
X104983537Y-105057457D01*
X105035937Y-105000493D01*
X105101616Y-104931185D01*
X105176144Y-104854031D01*
X105255087Y-104773525D01*
X105334017Y-104694163D01*
X105408500Y-104620440D01*
X105474106Y-104556852D01*
X105526404Y-104507894D01*
X105560961Y-104478061D01*
X105572522Y-104470942D01*
X105591346Y-104480953D01*
X105636369Y-104509078D01*
X105703213Y-104552454D01*
X105787501Y-104608218D01*
X105884856Y-104673506D01*
X105958293Y-104723246D01*
X106329333Y-104975551D01*
X106947905Y-104720555D01*
X107031725Y-104275931D01*
X107115546Y-103831307D01*
X108040994Y-103831307D01*
X108124814Y-104275931D01*
G36*
X59864814Y-104275931D02*
G01*
X59948635Y-104720555D01*
X60257920Y-104848053D01*
X60567206Y-104975551D01*
X60938246Y-104723246D01*
X61042157Y-104652996D01*
X61136087Y-104590272D01*
X61215652Y-104537938D01*
X61276470Y-104498857D01*
X61314157Y-104475893D01*
X61324421Y-104470942D01*
X61342910Y-104483676D01*
X61382420Y-104518882D01*
X61438522Y-104572062D01*
X61506787Y-104638718D01*
X61582786Y-104714354D01*
X61662092Y-104794472D01*
X61740275Y-104874574D01*
X61812907Y-104950164D01*
X61875559Y-105016745D01*
X61923803Y-105069818D01*
X61953210Y-105104887D01*
X61960241Y-105116623D01*
X61950123Y-105138260D01*
X61921759Y-105185662D01*
X61878129Y-105254193D01*
X61822218Y-105339215D01*
X61757006Y-105436093D01*
X61719219Y-105491350D01*
X61650343Y-105592248D01*
X61589140Y-105683299D01*
X61538578Y-105759970D01*
X61501628Y-105817728D01*
X61481258Y-105852043D01*
X61478197Y-105859254D01*
X61485136Y-105879748D01*
X61504051Y-105927513D01*
X61532087Y-105995832D01*
X61566391Y-106077989D01*
X61604109Y-106167270D01*
X61642387Y-106256958D01*
X61678370Y-106340338D01*
X61709206Y-106410694D01*
X61732039Y-106461310D01*
X61744017Y-106485471D01*
X61744724Y-106486422D01*
X61763531Y-106491036D01*
X61813618Y-106501328D01*
X61889793Y-106516287D01*
X61986865Y-106534901D01*
X62099643Y-106556159D01*
X62165442Y-106568418D01*
X62285950Y-106591362D01*
X62394797Y-106613195D01*
X62486476Y-106632722D01*
X62555481Y-106648748D01*
X62596304Y-106660079D01*
X62604511Y-106663674D01*
X62612548Y-106688006D01*
X62619033Y-106742959D01*
X62623970Y-106822108D01*
X62627364Y-106919026D01*
X62629218Y-107027287D01*
X62629538Y-107140465D01*
X62628327Y-107252135D01*
X62625590Y-107355868D01*
X62621331Y-107445241D01*
X62615555Y-107513826D01*
X62608267Y-107555197D01*
X62603895Y-107563810D01*
X62577764Y-107574133D01*
X62522393Y-107588892D01*
X62445107Y-107606352D01*
X62353230Y-107624780D01*
X62321158Y-107630741D01*
X62166524Y-107659066D01*
X62044375Y-107681876D01*
X61950673Y-107700080D01*
X61881384Y-107714583D01*
X61832471Y-107726292D01*
X61799897Y-107736115D01*
X61779628Y-107744956D01*
X61767626Y-107753724D01*
X61765947Y-107755457D01*
X61749184Y-107783371D01*
X61723614Y-107837695D01*
X61691788Y-107911777D01*
X61656260Y-107998965D01*
X61619583Y-108092608D01*
X61584311Y-108186052D01*
X61552996Y-108272647D01*
X61528193Y-108345740D01*
X61512454Y-108398678D01*
X61508332Y-108424811D01*
X61508676Y-108425726D01*
X61522641Y-108447086D01*
X61554322Y-108494084D01*
X61600391Y-108561827D01*
X61657518Y-108645423D01*
X61722373Y-108739982D01*
X61740843Y-108766854D01*
X61806699Y-108864275D01*
X61864650Y-108953163D01*
X61911538Y-109028412D01*
X61944207Y-109084920D01*
X61959500Y-109117581D01*
X61960241Y-109121593D01*
X61947392Y-109142684D01*
X61911888Y-109184464D01*
X61858293Y-109242445D01*
X61791171Y-109312135D01*
X61715087Y-109389045D01*
X61634604Y-109468683D01*
X61554287Y-109546561D01*
X61478699Y-109618186D01*
X61412405Y-109679070D01*
X61359969Y-109724721D01*
X61325955Y-109750650D01*
X61316545Y-109754883D01*
X61294643Y-109744912D01*
X61249800Y-109718020D01*
X61189321Y-109678736D01*
X61142789Y-109647117D01*
X61058475Y-109589098D01*
X60958626Y-109520784D01*
X60858473Y-109452579D01*
X60804627Y-109416075D01*
X60622371Y-109292800D01*
X60469381Y-109375520D01*
X60399682Y-109411759D01*
X60340414Y-109439926D01*
X60300311Y-109455991D01*
X60290103Y-109458226D01*
X60277829Y-109441722D01*
X60253613Y-109395082D01*
X60219263Y-109322609D01*
X60176588Y-109228606D01*
X60127394Y-109117374D01*
X60073490Y-108993215D01*
X60016684Y-108860432D01*
X59958782Y-108723327D01*
X59901593Y-108586202D01*
X59846924Y-108453358D01*
X59796584Y-108329098D01*
X59752380Y-108217725D01*
X59716119Y-108123539D01*
X59689609Y-108050844D01*
X59674658Y-108003941D01*
X59672254Y-107987833D01*
X59691311Y-107967286D01*
X59733036Y-107933933D01*
X59788706Y-107894702D01*
X59793378Y-107891599D01*
X59937264Y-107776423D01*
X60053283Y-107642053D01*
X60140430Y-107492784D01*
X60197699Y-107332913D01*
X60224086Y-107166737D01*
X60218585Y-106998552D01*
X60180190Y-106832655D01*
X60107895Y-106673342D01*
X60086626Y-106638487D01*
X59975996Y-106497737D01*
X59845302Y-106384714D01*
X59699064Y-106300003D01*
X59541808Y-106244194D01*
X59378057Y-106217874D01*
X59212333Y-106221630D01*
X59049162Y-106256050D01*
X58893065Y-106321723D01*
X58748567Y-106419235D01*
X58703869Y-106458813D01*
X58590112Y-106582703D01*
X58507218Y-106713124D01*
X58450356Y-106859315D01*
X58418687Y-107004088D01*
X58410869Y-107166860D01*
X58436938Y-107330440D01*
X58494245Y-107489298D01*
X58580144Y-107637906D01*
X58691986Y-107770735D01*
X58827123Y-107882256D01*
X58844883Y-107894011D01*
X58901150Y-107932508D01*
X58943923Y-107965863D01*
X58964372Y-107987160D01*
X58964669Y-107987833D01*
X58960279Y-108010871D01*
X58942876Y-108063157D01*
X58914268Y-108140390D01*
X58876265Y-108238268D01*
X58830674Y-108352491D01*
X58779303Y-108478758D01*
X58723962Y-108612767D01*
X58666458Y-108750218D01*
X58608601Y-108886808D01*
X58552198Y-109018237D01*
X58499058Y-109140205D01*
X58450990Y-109248409D01*
X58409801Y-109338549D01*
X58377301Y-109406323D01*
X58355297Y-109447430D01*
X58346436Y-109458226D01*
X58319360Y-109449819D01*
X58268697Y-109427272D01*
X58203183Y-109394613D01*
X58167159Y-109375520D01*
X58014168Y-109292800D01*
X57831912Y-109416075D01*
X57738875Y-109479228D01*
X57637015Y-109548727D01*
X57541562Y-109614165D01*
X57493750Y-109647117D01*
X57426505Y-109692273D01*
X57369564Y-109728057D01*
X57330354Y-109749938D01*
X57317619Y-109754563D01*
X57299083Y-109742085D01*
X57258059Y-109707252D01*
X57198525Y-109653678D01*
X57124458Y-109584983D01*
X57039835Y-109504781D01*
X56986315Y-109453286D01*
X56892681Y-109361286D01*
X56811759Y-109278999D01*
X56746823Y-109209945D01*
X56701142Y-109157644D01*
X56677989Y-109125616D01*
X56675768Y-109119116D01*
X56686076Y-109094394D01*
X56714561Y-109044405D01*
X56758063Y-108974212D01*
X56813423Y-108888875D01*
X56877480Y-108793456D01*
X56895697Y-108766854D01*
X56962073Y-108670167D01*
X57021622Y-108583117D01*
X57071016Y-108510595D01*
X57106925Y-108457493D01*
X57126019Y-108428703D01*
X57127864Y-108425726D01*
X57125105Y-108402782D01*
X57110462Y-108352336D01*
X57086487Y-108281041D01*
X57055734Y-108195547D01*
X57020756Y-108102507D01*
X56984107Y-108008574D01*
X56948339Y-107920399D01*
X56916006Y-107844634D01*
X56889662Y-107787931D01*
X56871858Y-107756943D01*
X56870593Y-107755457D01*
X56859706Y-107746601D01*
X56841318Y-107737843D01*
X56811394Y-107728277D01*
X56765897Y-107716996D01*
X56700791Y-107703093D01*
X56612039Y-107685663D01*
X56495607Y-107663798D01*
X56347458Y-107636591D01*
X56315382Y-107630741D01*
X56220314Y-107612374D01*
X56137435Y-107594405D01*
X56074070Y-107578569D01*
X56037542Y-107566600D01*
X56032644Y-107563810D01*
X56024573Y-107539072D01*
X56018013Y-107483790D01*
X56012967Y-107404389D01*
X56009441Y-107307296D01*
X56007439Y-107198938D01*
X56006964Y-107085740D01*
X56008023Y-106974128D01*
X56010618Y-106870529D01*
X56014754Y-106781368D01*
X56020437Y-106713072D01*
X56027669Y-106672066D01*
X56032029Y-106663674D01*
X56056302Y-106655208D01*
X56111574Y-106641435D01*
X56192338Y-106623550D01*
X56293088Y-106602748D01*
X56408317Y-106580223D01*
X56471098Y-106568418D01*
X56590213Y-106546151D01*
X56696435Y-106525979D01*
X56784573Y-106508915D01*
X56849434Y-106495969D01*
X56885826Y-106488155D01*
X56891816Y-106486422D01*
X56901939Y-106466890D01*
X56923338Y-106419843D01*
X56953161Y-106352003D01*
X56988555Y-106270091D01*
X57026668Y-106180828D01*
X57064647Y-106090935D01*
X57099640Y-106007135D01*
X57128794Y-105936147D01*
X57149257Y-105884694D01*
X57158177Y-105859497D01*
X57158343Y-105858396D01*
X57148231Y-105838519D01*
X57119883Y-105792777D01*
X57076277Y-105725717D01*
X57020394Y-105641884D01*
X56955213Y-105545826D01*
X56917321Y-105490650D01*
X56848275Y-105389481D01*
X56786950Y-105297630D01*
X56736337Y-105219744D01*
X56699429Y-105160469D01*
X56679218Y-105124451D01*
X56676299Y-105116377D01*
X56688847Y-105097584D01*
X56723537Y-105057457D01*
X56775937Y-105000493D01*
X56841616Y-104931185D01*
X56916144Y-104854031D01*
X56995087Y-104773525D01*
X57074017Y-104694163D01*
X57148500Y-104620440D01*
X57214106Y-104556852D01*
X57266404Y-104507894D01*
X57300961Y-104478061D01*
X57312522Y-104470942D01*
X57331346Y-104480953D01*
X57376369Y-104509078D01*
X57443213Y-104552454D01*
X57527501Y-104608218D01*
X57624856Y-104673506D01*
X57698293Y-104723246D01*
X58069333Y-104975551D01*
X58687905Y-104720555D01*
X58771725Y-104275931D01*
X58855546Y-103831307D01*
X59780994Y-103831307D01*
X59864814Y-104275931D01*
G37*
X59864814Y-104275931D02*
X59948635Y-104720555D01*
X60257920Y-104848053D01*
X60567206Y-104975551D01*
X60938246Y-104723246D01*
X61042157Y-104652996D01*
X61136087Y-104590272D01*
X61215652Y-104537938D01*
X61276470Y-104498857D01*
X61314157Y-104475893D01*
X61324421Y-104470942D01*
X61342910Y-104483676D01*
X61382420Y-104518882D01*
X61438522Y-104572062D01*
X61506787Y-104638718D01*
X61582786Y-104714354D01*
X61662092Y-104794472D01*
X61740275Y-104874574D01*
X61812907Y-104950164D01*
X61875559Y-105016745D01*
X61923803Y-105069818D01*
X61953210Y-105104887D01*
X61960241Y-105116623D01*
X61950123Y-105138260D01*
X61921759Y-105185662D01*
X61878129Y-105254193D01*
X61822218Y-105339215D01*
X61757006Y-105436093D01*
X61719219Y-105491350D01*
X61650343Y-105592248D01*
X61589140Y-105683299D01*
X61538578Y-105759970D01*
X61501628Y-105817728D01*
X61481258Y-105852043D01*
X61478197Y-105859254D01*
X61485136Y-105879748D01*
X61504051Y-105927513D01*
X61532087Y-105995832D01*
X61566391Y-106077989D01*
X61604109Y-106167270D01*
X61642387Y-106256958D01*
X61678370Y-106340338D01*
X61709206Y-106410694D01*
X61732039Y-106461310D01*
X61744017Y-106485471D01*
X61744724Y-106486422D01*
X61763531Y-106491036D01*
X61813618Y-106501328D01*
X61889793Y-106516287D01*
X61986865Y-106534901D01*
X62099643Y-106556159D01*
X62165442Y-106568418D01*
X62285950Y-106591362D01*
X62394797Y-106613195D01*
X62486476Y-106632722D01*
X62555481Y-106648748D01*
X62596304Y-106660079D01*
X62604511Y-106663674D01*
X62612548Y-106688006D01*
X62619033Y-106742959D01*
X62623970Y-106822108D01*
X62627364Y-106919026D01*
X62629218Y-107027287D01*
X62629538Y-107140465D01*
X62628327Y-107252135D01*
X62625590Y-107355868D01*
X62621331Y-107445241D01*
X62615555Y-107513826D01*
X62608267Y-107555197D01*
X62603895Y-107563810D01*
X62577764Y-107574133D01*
X62522393Y-107588892D01*
X62445107Y-107606352D01*
X62353230Y-107624780D01*
X62321158Y-107630741D01*
X62166524Y-107659066D01*
X62044375Y-107681876D01*
X61950673Y-107700080D01*
X61881384Y-107714583D01*
X61832471Y-107726292D01*
X61799897Y-107736115D01*
X61779628Y-107744956D01*
X61767626Y-107753724D01*
X61765947Y-107755457D01*
X61749184Y-107783371D01*
X61723614Y-107837695D01*
X61691788Y-107911777D01*
X61656260Y-107998965D01*
X61619583Y-108092608D01*
X61584311Y-108186052D01*
X61552996Y-108272647D01*
X61528193Y-108345740D01*
X61512454Y-108398678D01*
X61508332Y-108424811D01*
X61508676Y-108425726D01*
X61522641Y-108447086D01*
X61554322Y-108494084D01*
X61600391Y-108561827D01*
X61657518Y-108645423D01*
X61722373Y-108739982D01*
X61740843Y-108766854D01*
X61806699Y-108864275D01*
X61864650Y-108953163D01*
X61911538Y-109028412D01*
X61944207Y-109084920D01*
X61959500Y-109117581D01*
X61960241Y-109121593D01*
X61947392Y-109142684D01*
X61911888Y-109184464D01*
X61858293Y-109242445D01*
X61791171Y-109312135D01*
X61715087Y-109389045D01*
X61634604Y-109468683D01*
X61554287Y-109546561D01*
X61478699Y-109618186D01*
X61412405Y-109679070D01*
X61359969Y-109724721D01*
X61325955Y-109750650D01*
X61316545Y-109754883D01*
X61294643Y-109744912D01*
X61249800Y-109718020D01*
X61189321Y-109678736D01*
X61142789Y-109647117D01*
X61058475Y-109589098D01*
X60958626Y-109520784D01*
X60858473Y-109452579D01*
X60804627Y-109416075D01*
X60622371Y-109292800D01*
X60469381Y-109375520D01*
X60399682Y-109411759D01*
X60340414Y-109439926D01*
X60300311Y-109455991D01*
X60290103Y-109458226D01*
X60277829Y-109441722D01*
X60253613Y-109395082D01*
X60219263Y-109322609D01*
X60176588Y-109228606D01*
X60127394Y-109117374D01*
X60073490Y-108993215D01*
X60016684Y-108860432D01*
X59958782Y-108723327D01*
X59901593Y-108586202D01*
X59846924Y-108453358D01*
X59796584Y-108329098D01*
X59752380Y-108217725D01*
X59716119Y-108123539D01*
X59689609Y-108050844D01*
X59674658Y-108003941D01*
X59672254Y-107987833D01*
X59691311Y-107967286D01*
X59733036Y-107933933D01*
X59788706Y-107894702D01*
X59793378Y-107891599D01*
X59937264Y-107776423D01*
X60053283Y-107642053D01*
X60140430Y-107492784D01*
X60197699Y-107332913D01*
X60224086Y-107166737D01*
X60218585Y-106998552D01*
X60180190Y-106832655D01*
X60107895Y-106673342D01*
X60086626Y-106638487D01*
X59975996Y-106497737D01*
X59845302Y-106384714D01*
X59699064Y-106300003D01*
X59541808Y-106244194D01*
X59378057Y-106217874D01*
X59212333Y-106221630D01*
X59049162Y-106256050D01*
X58893065Y-106321723D01*
X58748567Y-106419235D01*
X58703869Y-106458813D01*
X58590112Y-106582703D01*
X58507218Y-106713124D01*
X58450356Y-106859315D01*
X58418687Y-107004088D01*
X58410869Y-107166860D01*
X58436938Y-107330440D01*
X58494245Y-107489298D01*
X58580144Y-107637906D01*
X58691986Y-107770735D01*
X58827123Y-107882256D01*
X58844883Y-107894011D01*
X58901150Y-107932508D01*
X58943923Y-107965863D01*
X58964372Y-107987160D01*
X58964669Y-107987833D01*
X58960279Y-108010871D01*
X58942876Y-108063157D01*
X58914268Y-108140390D01*
X58876265Y-108238268D01*
X58830674Y-108352491D01*
X58779303Y-108478758D01*
X58723962Y-108612767D01*
X58666458Y-108750218D01*
X58608601Y-108886808D01*
X58552198Y-109018237D01*
X58499058Y-109140205D01*
X58450990Y-109248409D01*
X58409801Y-109338549D01*
X58377301Y-109406323D01*
X58355297Y-109447430D01*
X58346436Y-109458226D01*
X58319360Y-109449819D01*
X58268697Y-109427272D01*
X58203183Y-109394613D01*
X58167159Y-109375520D01*
X58014168Y-109292800D01*
X57831912Y-109416075D01*
X57738875Y-109479228D01*
X57637015Y-109548727D01*
X57541562Y-109614165D01*
X57493750Y-109647117D01*
X57426505Y-109692273D01*
X57369564Y-109728057D01*
X57330354Y-109749938D01*
X57317619Y-109754563D01*
X57299083Y-109742085D01*
X57258059Y-109707252D01*
X57198525Y-109653678D01*
X57124458Y-109584983D01*
X57039835Y-109504781D01*
X56986315Y-109453286D01*
X56892681Y-109361286D01*
X56811759Y-109278999D01*
X56746823Y-109209945D01*
X56701142Y-109157644D01*
X56677989Y-109125616D01*
X56675768Y-109119116D01*
X56686076Y-109094394D01*
X56714561Y-109044405D01*
X56758063Y-108974212D01*
X56813423Y-108888875D01*
X56877480Y-108793456D01*
X56895697Y-108766854D01*
X56962073Y-108670167D01*
X57021622Y-108583117D01*
X57071016Y-108510595D01*
X57106925Y-108457493D01*
X57126019Y-108428703D01*
X57127864Y-108425726D01*
X57125105Y-108402782D01*
X57110462Y-108352336D01*
X57086487Y-108281041D01*
X57055734Y-108195547D01*
X57020756Y-108102507D01*
X56984107Y-108008574D01*
X56948339Y-107920399D01*
X56916006Y-107844634D01*
X56889662Y-107787931D01*
X56871858Y-107756943D01*
X56870593Y-107755457D01*
X56859706Y-107746601D01*
X56841318Y-107737843D01*
X56811394Y-107728277D01*
X56765897Y-107716996D01*
X56700791Y-107703093D01*
X56612039Y-107685663D01*
X56495607Y-107663798D01*
X56347458Y-107636591D01*
X56315382Y-107630741D01*
X56220314Y-107612374D01*
X56137435Y-107594405D01*
X56074070Y-107578569D01*
X56037542Y-107566600D01*
X56032644Y-107563810D01*
X56024573Y-107539072D01*
X56018013Y-107483790D01*
X56012967Y-107404389D01*
X56009441Y-107307296D01*
X56007439Y-107198938D01*
X56006964Y-107085740D01*
X56008023Y-106974128D01*
X56010618Y-106870529D01*
X56014754Y-106781368D01*
X56020437Y-106713072D01*
X56027669Y-106672066D01*
X56032029Y-106663674D01*
X56056302Y-106655208D01*
X56111574Y-106641435D01*
X56192338Y-106623550D01*
X56293088Y-106602748D01*
X56408317Y-106580223D01*
X56471098Y-106568418D01*
X56590213Y-106546151D01*
X56696435Y-106525979D01*
X56784573Y-106508915D01*
X56849434Y-106495969D01*
X56885826Y-106488155D01*
X56891816Y-106486422D01*
X56901939Y-106466890D01*
X56923338Y-106419843D01*
X56953161Y-106352003D01*
X56988555Y-106270091D01*
X57026668Y-106180828D01*
X57064647Y-106090935D01*
X57099640Y-106007135D01*
X57128794Y-105936147D01*
X57149257Y-105884694D01*
X57158177Y-105859497D01*
X57158343Y-105858396D01*
X57148231Y-105838519D01*
X57119883Y-105792777D01*
X57076277Y-105725717D01*
X57020394Y-105641884D01*
X56955213Y-105545826D01*
X56917321Y-105490650D01*
X56848275Y-105389481D01*
X56786950Y-105297630D01*
X56736337Y-105219744D01*
X56699429Y-105160469D01*
X56679218Y-105124451D01*
X56676299Y-105116377D01*
X56688847Y-105097584D01*
X56723537Y-105057457D01*
X56775937Y-105000493D01*
X56841616Y-104931185D01*
X56916144Y-104854031D01*
X56995087Y-104773525D01*
X57074017Y-104694163D01*
X57148500Y-104620440D01*
X57214106Y-104556852D01*
X57266404Y-104507894D01*
X57300961Y-104478061D01*
X57312522Y-104470942D01*
X57331346Y-104480953D01*
X57376369Y-104509078D01*
X57443213Y-104552454D01*
X57527501Y-104608218D01*
X57624856Y-104673506D01*
X57698293Y-104723246D01*
X58069333Y-104975551D01*
X58687905Y-104720555D01*
X58771725Y-104275931D01*
X58855546Y-103831307D01*
X59780994Y-103831307D01*
X59864814Y-104275931D01*
G36*
X108124814Y-76335931D02*
G01*
X108208635Y-76780555D01*
X108517920Y-76908053D01*
X108827206Y-77035551D01*
X109198246Y-76783246D01*
X109302157Y-76712996D01*
X109396087Y-76650272D01*
X109475652Y-76597938D01*
X109536470Y-76558857D01*
X109574157Y-76535893D01*
X109584421Y-76530942D01*
X109602910Y-76543676D01*
X109642420Y-76578882D01*
X109698522Y-76632062D01*
X109766787Y-76698718D01*
X109842786Y-76774354D01*
X109922092Y-76854472D01*
X110000275Y-76934574D01*
X110072907Y-77010164D01*
X110135559Y-77076745D01*
X110183803Y-77129818D01*
X110213210Y-77164887D01*
X110220241Y-77176623D01*
X110210123Y-77198260D01*
X110181759Y-77245662D01*
X110138129Y-77314193D01*
X110082218Y-77399215D01*
X110017006Y-77496093D01*
X109979219Y-77551350D01*
X109910343Y-77652248D01*
X109849140Y-77743299D01*
X109798578Y-77819970D01*
X109761628Y-77877728D01*
X109741258Y-77912043D01*
X109738197Y-77919254D01*
X109745136Y-77939748D01*
X109764051Y-77987513D01*
X109792087Y-78055832D01*
X109826391Y-78137989D01*
X109864109Y-78227270D01*
X109902387Y-78316958D01*
X109938370Y-78400338D01*
X109969206Y-78470694D01*
X109992039Y-78521310D01*
X110004017Y-78545471D01*
X110004724Y-78546422D01*
X110023531Y-78551036D01*
X110073618Y-78561328D01*
X110149793Y-78576287D01*
X110246865Y-78594901D01*
X110359643Y-78616159D01*
X110425442Y-78628418D01*
X110545950Y-78651362D01*
X110654797Y-78673195D01*
X110746476Y-78692722D01*
X110815481Y-78708748D01*
X110856304Y-78720079D01*
X110864511Y-78723674D01*
X110872548Y-78748006D01*
X110879033Y-78802959D01*
X110883970Y-78882108D01*
X110887364Y-78979026D01*
X110889218Y-79087287D01*
X110889538Y-79200465D01*
X110888327Y-79312135D01*
X110885590Y-79415868D01*
X110881331Y-79505241D01*
X110875555Y-79573826D01*
X110868267Y-79615197D01*
X110863895Y-79623810D01*
X110837764Y-79634133D01*
X110782393Y-79648892D01*
X110705107Y-79666352D01*
X110613230Y-79684780D01*
X110581158Y-79690741D01*
X110426524Y-79719066D01*
X110304375Y-79741876D01*
X110210673Y-79760080D01*
X110141384Y-79774583D01*
X110092471Y-79786292D01*
X110059897Y-79796115D01*
X110039628Y-79804956D01*
X110027626Y-79813724D01*
X110025947Y-79815457D01*
X110009184Y-79843371D01*
X109983614Y-79897695D01*
X109951788Y-79971777D01*
X109916260Y-80058965D01*
X109879583Y-80152608D01*
X109844311Y-80246052D01*
X109812996Y-80332647D01*
X109788193Y-80405740D01*
X109772454Y-80458678D01*
X109768332Y-80484811D01*
X109768676Y-80485726D01*
X109782641Y-80507086D01*
X109814322Y-80554084D01*
X109860391Y-80621827D01*
X109917518Y-80705423D01*
X109982373Y-80799982D01*
X110000843Y-80826854D01*
X110066699Y-80924275D01*
X110124650Y-81013163D01*
X110171538Y-81088412D01*
X110204207Y-81144920D01*
X110219500Y-81177581D01*
X110220241Y-81181593D01*
X110207392Y-81202684D01*
X110171888Y-81244464D01*
X110118293Y-81302445D01*
X110051171Y-81372135D01*
X109975087Y-81449045D01*
X109894604Y-81528683D01*
X109814287Y-81606561D01*
X109738699Y-81678186D01*
X109672405Y-81739070D01*
X109619969Y-81784721D01*
X109585955Y-81810650D01*
X109576545Y-81814883D01*
X109554643Y-81804912D01*
X109509800Y-81778020D01*
X109449321Y-81738736D01*
X109402789Y-81707117D01*
X109318475Y-81649098D01*
X109218626Y-81580784D01*
X109118473Y-81512579D01*
X109064627Y-81476075D01*
X108882371Y-81352800D01*
X108729381Y-81435520D01*
X108659682Y-81471759D01*
X108600414Y-81499926D01*
X108560311Y-81515991D01*
X108550103Y-81518226D01*
X108537829Y-81501722D01*
X108513613Y-81455082D01*
X108479263Y-81382609D01*
X108436588Y-81288606D01*
X108387394Y-81177374D01*
X108333490Y-81053215D01*
X108276684Y-80920432D01*
X108218782Y-80783327D01*
X108161593Y-80646202D01*
X108106924Y-80513358D01*
X108056584Y-80389098D01*
X108012380Y-80277725D01*
X107976119Y-80183539D01*
X107949609Y-80110844D01*
X107934658Y-80063941D01*
X107932254Y-80047833D01*
X107951311Y-80027286D01*
X107993036Y-79993933D01*
X108048706Y-79954702D01*
X108053378Y-79951599D01*
X108197264Y-79836423D01*
X108313283Y-79702053D01*
X108400430Y-79552784D01*
X108457699Y-79392913D01*
X108484086Y-79226737D01*
X108478585Y-79058552D01*
X108440190Y-78892655D01*
X108367895Y-78733342D01*
X108346626Y-78698487D01*
X108235996Y-78557737D01*
X108105302Y-78444714D01*
X107959064Y-78360003D01*
X107801808Y-78304194D01*
X107638057Y-78277874D01*
X107472333Y-78281630D01*
X107309162Y-78316050D01*
X107153065Y-78381723D01*
X107008567Y-78479235D01*
X106963869Y-78518813D01*
X106850112Y-78642703D01*
X106767218Y-78773124D01*
X106710356Y-78919315D01*
X106678687Y-79064088D01*
X106670869Y-79226860D01*
X106696938Y-79390440D01*
X106754245Y-79549298D01*
X106840144Y-79697906D01*
X106951986Y-79830735D01*
X107087123Y-79942256D01*
X107104883Y-79954011D01*
X107161150Y-79992508D01*
X107203923Y-80025863D01*
X107224372Y-80047160D01*
X107224669Y-80047833D01*
X107220279Y-80070871D01*
X107202876Y-80123157D01*
X107174268Y-80200390D01*
X107136265Y-80298268D01*
X107090674Y-80412491D01*
X107039303Y-80538758D01*
X106983962Y-80672767D01*
X106926458Y-80810218D01*
X106868601Y-80946808D01*
X106812198Y-81078237D01*
X106759058Y-81200205D01*
X106710990Y-81308409D01*
X106669801Y-81398549D01*
X106637301Y-81466323D01*
X106615297Y-81507430D01*
X106606436Y-81518226D01*
X106579360Y-81509819D01*
X106528697Y-81487272D01*
X106463183Y-81454613D01*
X106427159Y-81435520D01*
X106274168Y-81352800D01*
X106091912Y-81476075D01*
X105998875Y-81539228D01*
X105897015Y-81608727D01*
X105801562Y-81674165D01*
X105753750Y-81707117D01*
X105686505Y-81752273D01*
X105629564Y-81788057D01*
X105590354Y-81809938D01*
X105577619Y-81814563D01*
X105559083Y-81802085D01*
X105518059Y-81767252D01*
X105458525Y-81713678D01*
X105384458Y-81644983D01*
X105299835Y-81564781D01*
X105246315Y-81513286D01*
X105152681Y-81421286D01*
X105071759Y-81338999D01*
X105006823Y-81269945D01*
X104961142Y-81217644D01*
X104937989Y-81185616D01*
X104935768Y-81179116D01*
X104946076Y-81154394D01*
X104974561Y-81104405D01*
X105018063Y-81034212D01*
X105073423Y-80948875D01*
X105137480Y-80853456D01*
X105155697Y-80826854D01*
X105222073Y-80730167D01*
X105281622Y-80643117D01*
X105331016Y-80570595D01*
X105366925Y-80517493D01*
X105386019Y-80488703D01*
X105387864Y-80485726D01*
X105385105Y-80462782D01*
X105370462Y-80412336D01*
X105346487Y-80341041D01*
X105315734Y-80255547D01*
X105280756Y-80162507D01*
X105244107Y-80068574D01*
X105208339Y-79980399D01*
X105176006Y-79904634D01*
X105149662Y-79847931D01*
X105131858Y-79816943D01*
X105130593Y-79815457D01*
X105119706Y-79806601D01*
X105101318Y-79797843D01*
X105071394Y-79788277D01*
X105025897Y-79776996D01*
X104960791Y-79763093D01*
X104872039Y-79745663D01*
X104755607Y-79723798D01*
X104607458Y-79696591D01*
X104575382Y-79690741D01*
X104480314Y-79672374D01*
X104397435Y-79654405D01*
X104334070Y-79638569D01*
X104297542Y-79626600D01*
X104292644Y-79623810D01*
X104284573Y-79599072D01*
X104278013Y-79543790D01*
X104272967Y-79464389D01*
X104269441Y-79367296D01*
X104267439Y-79258938D01*
X104266964Y-79145740D01*
X104268023Y-79034128D01*
X104270618Y-78930529D01*
X104274754Y-78841368D01*
X104280437Y-78773072D01*
X104287669Y-78732066D01*
X104292029Y-78723674D01*
X104316302Y-78715208D01*
X104371574Y-78701435D01*
X104452338Y-78683550D01*
X104553088Y-78662748D01*
X104668317Y-78640223D01*
X104731098Y-78628418D01*
X104850213Y-78606151D01*
X104956435Y-78585979D01*
X105044573Y-78568915D01*
X105109434Y-78555969D01*
X105145826Y-78548155D01*
X105151816Y-78546422D01*
X105161939Y-78526890D01*
X105183338Y-78479843D01*
X105213161Y-78412003D01*
X105248555Y-78330091D01*
X105286668Y-78240828D01*
X105324647Y-78150935D01*
X105359640Y-78067135D01*
X105388794Y-77996147D01*
X105409257Y-77944694D01*
X105418177Y-77919497D01*
X105418343Y-77918396D01*
X105408231Y-77898519D01*
X105379883Y-77852777D01*
X105336277Y-77785717D01*
X105280394Y-77701884D01*
X105215213Y-77605826D01*
X105177321Y-77550650D01*
X105108275Y-77449481D01*
X105046950Y-77357630D01*
X104996337Y-77279744D01*
X104959429Y-77220469D01*
X104939218Y-77184451D01*
X104936299Y-77176377D01*
X104948847Y-77157584D01*
X104983537Y-77117457D01*
X105035937Y-77060493D01*
X105101616Y-76991185D01*
X105176144Y-76914031D01*
X105255087Y-76833525D01*
X105334017Y-76754163D01*
X105408500Y-76680440D01*
X105474106Y-76616852D01*
X105526404Y-76567894D01*
X105560961Y-76538061D01*
X105572522Y-76530942D01*
X105591346Y-76540953D01*
X105636369Y-76569078D01*
X105703213Y-76612454D01*
X105787501Y-76668218D01*
X105884856Y-76733506D01*
X105958293Y-76783246D01*
X106329333Y-77035551D01*
X106947905Y-76780555D01*
X107031725Y-76335931D01*
X107115546Y-75891307D01*
X108040994Y-75891307D01*
X108124814Y-76335931D01*
G37*
X108124814Y-76335931D02*
X108208635Y-76780555D01*
X108517920Y-76908053D01*
X108827206Y-77035551D01*
X109198246Y-76783246D01*
X109302157Y-76712996D01*
X109396087Y-76650272D01*
X109475652Y-76597938D01*
X109536470Y-76558857D01*
X109574157Y-76535893D01*
X109584421Y-76530942D01*
X109602910Y-76543676D01*
X109642420Y-76578882D01*
X109698522Y-76632062D01*
X109766787Y-76698718D01*
X109842786Y-76774354D01*
X109922092Y-76854472D01*
X110000275Y-76934574D01*
X110072907Y-77010164D01*
X110135559Y-77076745D01*
X110183803Y-77129818D01*
X110213210Y-77164887D01*
X110220241Y-77176623D01*
X110210123Y-77198260D01*
X110181759Y-77245662D01*
X110138129Y-77314193D01*
X110082218Y-77399215D01*
X110017006Y-77496093D01*
X109979219Y-77551350D01*
X109910343Y-77652248D01*
X109849140Y-77743299D01*
X109798578Y-77819970D01*
X109761628Y-77877728D01*
X109741258Y-77912043D01*
X109738197Y-77919254D01*
X109745136Y-77939748D01*
X109764051Y-77987513D01*
X109792087Y-78055832D01*
X109826391Y-78137989D01*
X109864109Y-78227270D01*
X109902387Y-78316958D01*
X109938370Y-78400338D01*
X109969206Y-78470694D01*
X109992039Y-78521310D01*
X110004017Y-78545471D01*
X110004724Y-78546422D01*
X110023531Y-78551036D01*
X110073618Y-78561328D01*
X110149793Y-78576287D01*
X110246865Y-78594901D01*
X110359643Y-78616159D01*
X110425442Y-78628418D01*
X110545950Y-78651362D01*
X110654797Y-78673195D01*
X110746476Y-78692722D01*
X110815481Y-78708748D01*
X110856304Y-78720079D01*
X110864511Y-78723674D01*
X110872548Y-78748006D01*
X110879033Y-78802959D01*
X110883970Y-78882108D01*
X110887364Y-78979026D01*
X110889218Y-79087287D01*
X110889538Y-79200465D01*
X110888327Y-79312135D01*
X110885590Y-79415868D01*
X110881331Y-79505241D01*
X110875555Y-79573826D01*
X110868267Y-79615197D01*
X110863895Y-79623810D01*
X110837764Y-79634133D01*
X110782393Y-79648892D01*
X110705107Y-79666352D01*
X110613230Y-79684780D01*
X110581158Y-79690741D01*
X110426524Y-79719066D01*
X110304375Y-79741876D01*
X110210673Y-79760080D01*
X110141384Y-79774583D01*
X110092471Y-79786292D01*
X110059897Y-79796115D01*
X110039628Y-79804956D01*
X110027626Y-79813724D01*
X110025947Y-79815457D01*
X110009184Y-79843371D01*
X109983614Y-79897695D01*
X109951788Y-79971777D01*
X109916260Y-80058965D01*
X109879583Y-80152608D01*
X109844311Y-80246052D01*
X109812996Y-80332647D01*
X109788193Y-80405740D01*
X109772454Y-80458678D01*
X109768332Y-80484811D01*
X109768676Y-80485726D01*
X109782641Y-80507086D01*
X109814322Y-80554084D01*
X109860391Y-80621827D01*
X109917518Y-80705423D01*
X109982373Y-80799982D01*
X110000843Y-80826854D01*
X110066699Y-80924275D01*
X110124650Y-81013163D01*
X110171538Y-81088412D01*
X110204207Y-81144920D01*
X110219500Y-81177581D01*
X110220241Y-81181593D01*
X110207392Y-81202684D01*
X110171888Y-81244464D01*
X110118293Y-81302445D01*
X110051171Y-81372135D01*
X109975087Y-81449045D01*
X109894604Y-81528683D01*
X109814287Y-81606561D01*
X109738699Y-81678186D01*
X109672405Y-81739070D01*
X109619969Y-81784721D01*
X109585955Y-81810650D01*
X109576545Y-81814883D01*
X109554643Y-81804912D01*
X109509800Y-81778020D01*
X109449321Y-81738736D01*
X109402789Y-81707117D01*
X109318475Y-81649098D01*
X109218626Y-81580784D01*
X109118473Y-81512579D01*
X109064627Y-81476075D01*
X108882371Y-81352800D01*
X108729381Y-81435520D01*
X108659682Y-81471759D01*
X108600414Y-81499926D01*
X108560311Y-81515991D01*
X108550103Y-81518226D01*
X108537829Y-81501722D01*
X108513613Y-81455082D01*
X108479263Y-81382609D01*
X108436588Y-81288606D01*
X108387394Y-81177374D01*
X108333490Y-81053215D01*
X108276684Y-80920432D01*
X108218782Y-80783327D01*
X108161593Y-80646202D01*
X108106924Y-80513358D01*
X108056584Y-80389098D01*
X108012380Y-80277725D01*
X107976119Y-80183539D01*
X107949609Y-80110844D01*
X107934658Y-80063941D01*
X107932254Y-80047833D01*
X107951311Y-80027286D01*
X107993036Y-79993933D01*
X108048706Y-79954702D01*
X108053378Y-79951599D01*
X108197264Y-79836423D01*
X108313283Y-79702053D01*
X108400430Y-79552784D01*
X108457699Y-79392913D01*
X108484086Y-79226737D01*
X108478585Y-79058552D01*
X108440190Y-78892655D01*
X108367895Y-78733342D01*
X108346626Y-78698487D01*
X108235996Y-78557737D01*
X108105302Y-78444714D01*
X107959064Y-78360003D01*
X107801808Y-78304194D01*
X107638057Y-78277874D01*
X107472333Y-78281630D01*
X107309162Y-78316050D01*
X107153065Y-78381723D01*
X107008567Y-78479235D01*
X106963869Y-78518813D01*
X106850112Y-78642703D01*
X106767218Y-78773124D01*
X106710356Y-78919315D01*
X106678687Y-79064088D01*
X106670869Y-79226860D01*
X106696938Y-79390440D01*
X106754245Y-79549298D01*
X106840144Y-79697906D01*
X106951986Y-79830735D01*
X107087123Y-79942256D01*
X107104883Y-79954011D01*
X107161150Y-79992508D01*
X107203923Y-80025863D01*
X107224372Y-80047160D01*
X107224669Y-80047833D01*
X107220279Y-80070871D01*
X107202876Y-80123157D01*
X107174268Y-80200390D01*
X107136265Y-80298268D01*
X107090674Y-80412491D01*
X107039303Y-80538758D01*
X106983962Y-80672767D01*
X106926458Y-80810218D01*
X106868601Y-80946808D01*
X106812198Y-81078237D01*
X106759058Y-81200205D01*
X106710990Y-81308409D01*
X106669801Y-81398549D01*
X106637301Y-81466323D01*
X106615297Y-81507430D01*
X106606436Y-81518226D01*
X106579360Y-81509819D01*
X106528697Y-81487272D01*
X106463183Y-81454613D01*
X106427159Y-81435520D01*
X106274168Y-81352800D01*
X106091912Y-81476075D01*
X105998875Y-81539228D01*
X105897015Y-81608727D01*
X105801562Y-81674165D01*
X105753750Y-81707117D01*
X105686505Y-81752273D01*
X105629564Y-81788057D01*
X105590354Y-81809938D01*
X105577619Y-81814563D01*
X105559083Y-81802085D01*
X105518059Y-81767252D01*
X105458525Y-81713678D01*
X105384458Y-81644983D01*
X105299835Y-81564781D01*
X105246315Y-81513286D01*
X105152681Y-81421286D01*
X105071759Y-81338999D01*
X105006823Y-81269945D01*
X104961142Y-81217644D01*
X104937989Y-81185616D01*
X104935768Y-81179116D01*
X104946076Y-81154394D01*
X104974561Y-81104405D01*
X105018063Y-81034212D01*
X105073423Y-80948875D01*
X105137480Y-80853456D01*
X105155697Y-80826854D01*
X105222073Y-80730167D01*
X105281622Y-80643117D01*
X105331016Y-80570595D01*
X105366925Y-80517493D01*
X105386019Y-80488703D01*
X105387864Y-80485726D01*
X105385105Y-80462782D01*
X105370462Y-80412336D01*
X105346487Y-80341041D01*
X105315734Y-80255547D01*
X105280756Y-80162507D01*
X105244107Y-80068574D01*
X105208339Y-79980399D01*
X105176006Y-79904634D01*
X105149662Y-79847931D01*
X105131858Y-79816943D01*
X105130593Y-79815457D01*
X105119706Y-79806601D01*
X105101318Y-79797843D01*
X105071394Y-79788277D01*
X105025897Y-79776996D01*
X104960791Y-79763093D01*
X104872039Y-79745663D01*
X104755607Y-79723798D01*
X104607458Y-79696591D01*
X104575382Y-79690741D01*
X104480314Y-79672374D01*
X104397435Y-79654405D01*
X104334070Y-79638569D01*
X104297542Y-79626600D01*
X104292644Y-79623810D01*
X104284573Y-79599072D01*
X104278013Y-79543790D01*
X104272967Y-79464389D01*
X104269441Y-79367296D01*
X104267439Y-79258938D01*
X104266964Y-79145740D01*
X104268023Y-79034128D01*
X104270618Y-78930529D01*
X104274754Y-78841368D01*
X104280437Y-78773072D01*
X104287669Y-78732066D01*
X104292029Y-78723674D01*
X104316302Y-78715208D01*
X104371574Y-78701435D01*
X104452338Y-78683550D01*
X104553088Y-78662748D01*
X104668317Y-78640223D01*
X104731098Y-78628418D01*
X104850213Y-78606151D01*
X104956435Y-78585979D01*
X105044573Y-78568915D01*
X105109434Y-78555969D01*
X105145826Y-78548155D01*
X105151816Y-78546422D01*
X105161939Y-78526890D01*
X105183338Y-78479843D01*
X105213161Y-78412003D01*
X105248555Y-78330091D01*
X105286668Y-78240828D01*
X105324647Y-78150935D01*
X105359640Y-78067135D01*
X105388794Y-77996147D01*
X105409257Y-77944694D01*
X105418177Y-77919497D01*
X105418343Y-77918396D01*
X105408231Y-77898519D01*
X105379883Y-77852777D01*
X105336277Y-77785717D01*
X105280394Y-77701884D01*
X105215213Y-77605826D01*
X105177321Y-77550650D01*
X105108275Y-77449481D01*
X105046950Y-77357630D01*
X104996337Y-77279744D01*
X104959429Y-77220469D01*
X104939218Y-77184451D01*
X104936299Y-77176377D01*
X104948847Y-77157584D01*
X104983537Y-77117457D01*
X105035937Y-77060493D01*
X105101616Y-76991185D01*
X105176144Y-76914031D01*
X105255087Y-76833525D01*
X105334017Y-76754163D01*
X105408500Y-76680440D01*
X105474106Y-76616852D01*
X105526404Y-76567894D01*
X105560961Y-76538061D01*
X105572522Y-76530942D01*
X105591346Y-76540953D01*
X105636369Y-76569078D01*
X105703213Y-76612454D01*
X105787501Y-76668218D01*
X105884856Y-76733506D01*
X105958293Y-76783246D01*
X106329333Y-77035551D01*
X106947905Y-76780555D01*
X107031725Y-76335931D01*
X107115546Y-75891307D01*
X108040994Y-75891307D01*
X108124814Y-76335931D01*
G36*
X59864814Y-76335931D02*
G01*
X59948635Y-76780555D01*
X60257920Y-76908053D01*
X60567206Y-77035551D01*
X60938246Y-76783246D01*
X61042157Y-76712996D01*
X61136087Y-76650272D01*
X61215652Y-76597938D01*
X61276470Y-76558857D01*
X61314157Y-76535893D01*
X61324421Y-76530942D01*
X61342910Y-76543676D01*
X61382420Y-76578882D01*
X61438522Y-76632062D01*
X61506787Y-76698718D01*
X61582786Y-76774354D01*
X61662092Y-76854472D01*
X61740275Y-76934574D01*
X61812907Y-77010164D01*
X61875559Y-77076745D01*
X61923803Y-77129818D01*
X61953210Y-77164887D01*
X61960241Y-77176623D01*
X61950123Y-77198260D01*
X61921759Y-77245662D01*
X61878129Y-77314193D01*
X61822218Y-77399215D01*
X61757006Y-77496093D01*
X61719219Y-77551350D01*
X61650343Y-77652248D01*
X61589140Y-77743299D01*
X61538578Y-77819970D01*
X61501628Y-77877728D01*
X61481258Y-77912043D01*
X61478197Y-77919254D01*
X61485136Y-77939748D01*
X61504051Y-77987513D01*
X61532087Y-78055832D01*
X61566391Y-78137989D01*
X61604109Y-78227270D01*
X61642387Y-78316958D01*
X61678370Y-78400338D01*
X61709206Y-78470694D01*
X61732039Y-78521310D01*
X61744017Y-78545471D01*
X61744724Y-78546422D01*
X61763531Y-78551036D01*
X61813618Y-78561328D01*
X61889793Y-78576287D01*
X61986865Y-78594901D01*
X62099643Y-78616159D01*
X62165442Y-78628418D01*
X62285950Y-78651362D01*
X62394797Y-78673195D01*
X62486476Y-78692722D01*
X62555481Y-78708748D01*
X62596304Y-78720079D01*
X62604511Y-78723674D01*
X62612548Y-78748006D01*
X62619033Y-78802959D01*
X62623970Y-78882108D01*
X62627364Y-78979026D01*
X62629218Y-79087287D01*
X62629538Y-79200465D01*
X62628327Y-79312135D01*
X62625590Y-79415868D01*
X62621331Y-79505241D01*
X62615555Y-79573826D01*
X62608267Y-79615197D01*
X62603895Y-79623810D01*
X62577764Y-79634133D01*
X62522393Y-79648892D01*
X62445107Y-79666352D01*
X62353230Y-79684780D01*
X62321158Y-79690741D01*
X62166524Y-79719066D01*
X62044375Y-79741876D01*
X61950673Y-79760080D01*
X61881384Y-79774583D01*
X61832471Y-79786292D01*
X61799897Y-79796115D01*
X61779628Y-79804956D01*
X61767626Y-79813724D01*
X61765947Y-79815457D01*
X61749184Y-79843371D01*
X61723614Y-79897695D01*
X61691788Y-79971777D01*
X61656260Y-80058965D01*
X61619583Y-80152608D01*
X61584311Y-80246052D01*
X61552996Y-80332647D01*
X61528193Y-80405740D01*
X61512454Y-80458678D01*
X61508332Y-80484811D01*
X61508676Y-80485726D01*
X61522641Y-80507086D01*
X61554322Y-80554084D01*
X61600391Y-80621827D01*
X61657518Y-80705423D01*
X61722373Y-80799982D01*
X61740843Y-80826854D01*
X61806699Y-80924275D01*
X61864650Y-81013163D01*
X61911538Y-81088412D01*
X61944207Y-81144920D01*
X61959500Y-81177581D01*
X61960241Y-81181593D01*
X61947392Y-81202684D01*
X61911888Y-81244464D01*
X61858293Y-81302445D01*
X61791171Y-81372135D01*
X61715087Y-81449045D01*
X61634604Y-81528683D01*
X61554287Y-81606561D01*
X61478699Y-81678186D01*
X61412405Y-81739070D01*
X61359969Y-81784721D01*
X61325955Y-81810650D01*
X61316545Y-81814883D01*
X61294643Y-81804912D01*
X61249800Y-81778020D01*
X61189321Y-81738736D01*
X61142789Y-81707117D01*
X61058475Y-81649098D01*
X60958626Y-81580784D01*
X60858473Y-81512579D01*
X60804627Y-81476075D01*
X60622371Y-81352800D01*
X60469381Y-81435520D01*
X60399682Y-81471759D01*
X60340414Y-81499926D01*
X60300311Y-81515991D01*
X60290103Y-81518226D01*
X60277829Y-81501722D01*
X60253613Y-81455082D01*
X60219263Y-81382609D01*
X60176588Y-81288606D01*
X60127394Y-81177374D01*
X60073490Y-81053215D01*
X60016684Y-80920432D01*
X59958782Y-80783327D01*
X59901593Y-80646202D01*
X59846924Y-80513358D01*
X59796584Y-80389098D01*
X59752380Y-80277725D01*
X59716119Y-80183539D01*
X59689609Y-80110844D01*
X59674658Y-80063941D01*
X59672254Y-80047833D01*
X59691311Y-80027286D01*
X59733036Y-79993933D01*
X59788706Y-79954702D01*
X59793378Y-79951599D01*
X59937264Y-79836423D01*
X60053283Y-79702053D01*
X60140430Y-79552784D01*
X60197699Y-79392913D01*
X60224086Y-79226737D01*
X60218585Y-79058552D01*
X60180190Y-78892655D01*
X60107895Y-78733342D01*
X60086626Y-78698487D01*
X59975996Y-78557737D01*
X59845302Y-78444714D01*
X59699064Y-78360003D01*
X59541808Y-78304194D01*
X59378057Y-78277874D01*
X59212333Y-78281630D01*
X59049162Y-78316050D01*
X58893065Y-78381723D01*
X58748567Y-78479235D01*
X58703869Y-78518813D01*
X58590112Y-78642703D01*
X58507218Y-78773124D01*
X58450356Y-78919315D01*
X58418687Y-79064088D01*
X58410869Y-79226860D01*
X58436938Y-79390440D01*
X58494245Y-79549298D01*
X58580144Y-79697906D01*
X58691986Y-79830735D01*
X58827123Y-79942256D01*
X58844883Y-79954011D01*
X58901150Y-79992508D01*
X58943923Y-80025863D01*
X58964372Y-80047160D01*
X58964669Y-80047833D01*
X58960279Y-80070871D01*
X58942876Y-80123157D01*
X58914268Y-80200390D01*
X58876265Y-80298268D01*
X58830674Y-80412491D01*
X58779303Y-80538758D01*
X58723962Y-80672767D01*
X58666458Y-80810218D01*
X58608601Y-80946808D01*
X58552198Y-81078237D01*
X58499058Y-81200205D01*
X58450990Y-81308409D01*
X58409801Y-81398549D01*
X58377301Y-81466323D01*
X58355297Y-81507430D01*
X58346436Y-81518226D01*
X58319360Y-81509819D01*
X58268697Y-81487272D01*
X58203183Y-81454613D01*
X58167159Y-81435520D01*
X58014168Y-81352800D01*
X57831912Y-81476075D01*
X57738875Y-81539228D01*
X57637015Y-81608727D01*
X57541562Y-81674165D01*
X57493750Y-81707117D01*
X57426505Y-81752273D01*
X57369564Y-81788057D01*
X57330354Y-81809938D01*
X57317619Y-81814563D01*
X57299083Y-81802085D01*
X57258059Y-81767252D01*
X57198525Y-81713678D01*
X57124458Y-81644983D01*
X57039835Y-81564781D01*
X56986315Y-81513286D01*
X56892681Y-81421286D01*
X56811759Y-81338999D01*
X56746823Y-81269945D01*
X56701142Y-81217644D01*
X56677989Y-81185616D01*
X56675768Y-81179116D01*
X56686076Y-81154394D01*
X56714561Y-81104405D01*
X56758063Y-81034212D01*
X56813423Y-80948875D01*
X56877480Y-80853456D01*
X56895697Y-80826854D01*
X56962073Y-80730167D01*
X57021622Y-80643117D01*
X57071016Y-80570595D01*
X57106925Y-80517493D01*
X57126019Y-80488703D01*
X57127864Y-80485726D01*
X57125105Y-80462782D01*
X57110462Y-80412336D01*
X57086487Y-80341041D01*
X57055734Y-80255547D01*
X57020756Y-80162507D01*
X56984107Y-80068574D01*
X56948339Y-79980399D01*
X56916006Y-79904634D01*
X56889662Y-79847931D01*
X56871858Y-79816943D01*
X56870593Y-79815457D01*
X56859706Y-79806601D01*
X56841318Y-79797843D01*
X56811394Y-79788277D01*
X56765897Y-79776996D01*
X56700791Y-79763093D01*
X56612039Y-79745663D01*
X56495607Y-79723798D01*
X56347458Y-79696591D01*
X56315382Y-79690741D01*
X56220314Y-79672374D01*
X56137435Y-79654405D01*
X56074070Y-79638569D01*
X56037542Y-79626600D01*
X56032644Y-79623810D01*
X56024573Y-79599072D01*
X56018013Y-79543790D01*
X56012967Y-79464389D01*
X56009441Y-79367296D01*
X56007439Y-79258938D01*
X56006964Y-79145740D01*
X56008023Y-79034128D01*
X56010618Y-78930529D01*
X56014754Y-78841368D01*
X56020437Y-78773072D01*
X56027669Y-78732066D01*
X56032029Y-78723674D01*
X56056302Y-78715208D01*
X56111574Y-78701435D01*
X56192338Y-78683550D01*
X56293088Y-78662748D01*
X56408317Y-78640223D01*
X56471098Y-78628418D01*
X56590213Y-78606151D01*
X56696435Y-78585979D01*
X56784573Y-78568915D01*
X56849434Y-78555969D01*
X56885826Y-78548155D01*
X56891816Y-78546422D01*
X56901939Y-78526890D01*
X56923338Y-78479843D01*
X56953161Y-78412003D01*
X56988555Y-78330091D01*
X57026668Y-78240828D01*
X57064647Y-78150935D01*
X57099640Y-78067135D01*
X57128794Y-77996147D01*
X57149257Y-77944694D01*
X57158177Y-77919497D01*
X57158343Y-77918396D01*
X57148231Y-77898519D01*
X57119883Y-77852777D01*
X57076277Y-77785717D01*
X57020394Y-77701884D01*
X56955213Y-77605826D01*
X56917321Y-77550650D01*
X56848275Y-77449481D01*
X56786950Y-77357630D01*
X56736337Y-77279744D01*
X56699429Y-77220469D01*
X56679218Y-77184451D01*
X56676299Y-77176377D01*
X56688847Y-77157584D01*
X56723537Y-77117457D01*
X56775937Y-77060493D01*
X56841616Y-76991185D01*
X56916144Y-76914031D01*
X56995087Y-76833525D01*
X57074017Y-76754163D01*
X57148500Y-76680440D01*
X57214106Y-76616852D01*
X57266404Y-76567894D01*
X57300961Y-76538061D01*
X57312522Y-76530942D01*
X57331346Y-76540953D01*
X57376369Y-76569078D01*
X57443213Y-76612454D01*
X57527501Y-76668218D01*
X57624856Y-76733506D01*
X57698293Y-76783246D01*
X58069333Y-77035551D01*
X58687905Y-76780555D01*
X58771725Y-76335931D01*
X58855546Y-75891307D01*
X59780994Y-75891307D01*
X59864814Y-76335931D01*
G37*
X59864814Y-76335931D02*
X59948635Y-76780555D01*
X60257920Y-76908053D01*
X60567206Y-77035551D01*
X60938246Y-76783246D01*
X61042157Y-76712996D01*
X61136087Y-76650272D01*
X61215652Y-76597938D01*
X61276470Y-76558857D01*
X61314157Y-76535893D01*
X61324421Y-76530942D01*
X61342910Y-76543676D01*
X61382420Y-76578882D01*
X61438522Y-76632062D01*
X61506787Y-76698718D01*
X61582786Y-76774354D01*
X61662092Y-76854472D01*
X61740275Y-76934574D01*
X61812907Y-77010164D01*
X61875559Y-77076745D01*
X61923803Y-77129818D01*
X61953210Y-77164887D01*
X61960241Y-77176623D01*
X61950123Y-77198260D01*
X61921759Y-77245662D01*
X61878129Y-77314193D01*
X61822218Y-77399215D01*
X61757006Y-77496093D01*
X61719219Y-77551350D01*
X61650343Y-77652248D01*
X61589140Y-77743299D01*
X61538578Y-77819970D01*
X61501628Y-77877728D01*
X61481258Y-77912043D01*
X61478197Y-77919254D01*
X61485136Y-77939748D01*
X61504051Y-77987513D01*
X61532087Y-78055832D01*
X61566391Y-78137989D01*
X61604109Y-78227270D01*
X61642387Y-78316958D01*
X61678370Y-78400338D01*
X61709206Y-78470694D01*
X61732039Y-78521310D01*
X61744017Y-78545471D01*
X61744724Y-78546422D01*
X61763531Y-78551036D01*
X61813618Y-78561328D01*
X61889793Y-78576287D01*
X61986865Y-78594901D01*
X62099643Y-78616159D01*
X62165442Y-78628418D01*
X62285950Y-78651362D01*
X62394797Y-78673195D01*
X62486476Y-78692722D01*
X62555481Y-78708748D01*
X62596304Y-78720079D01*
X62604511Y-78723674D01*
X62612548Y-78748006D01*
X62619033Y-78802959D01*
X62623970Y-78882108D01*
X62627364Y-78979026D01*
X62629218Y-79087287D01*
X62629538Y-79200465D01*
X62628327Y-79312135D01*
X62625590Y-79415868D01*
X62621331Y-79505241D01*
X62615555Y-79573826D01*
X62608267Y-79615197D01*
X62603895Y-79623810D01*
X62577764Y-79634133D01*
X62522393Y-79648892D01*
X62445107Y-79666352D01*
X62353230Y-79684780D01*
X62321158Y-79690741D01*
X62166524Y-79719066D01*
X62044375Y-79741876D01*
X61950673Y-79760080D01*
X61881384Y-79774583D01*
X61832471Y-79786292D01*
X61799897Y-79796115D01*
X61779628Y-79804956D01*
X61767626Y-79813724D01*
X61765947Y-79815457D01*
X61749184Y-79843371D01*
X61723614Y-79897695D01*
X61691788Y-79971777D01*
X61656260Y-80058965D01*
X61619583Y-80152608D01*
X61584311Y-80246052D01*
X61552996Y-80332647D01*
X61528193Y-80405740D01*
X61512454Y-80458678D01*
X61508332Y-80484811D01*
X61508676Y-80485726D01*
X61522641Y-80507086D01*
X61554322Y-80554084D01*
X61600391Y-80621827D01*
X61657518Y-80705423D01*
X61722373Y-80799982D01*
X61740843Y-80826854D01*
X61806699Y-80924275D01*
X61864650Y-81013163D01*
X61911538Y-81088412D01*
X61944207Y-81144920D01*
X61959500Y-81177581D01*
X61960241Y-81181593D01*
X61947392Y-81202684D01*
X61911888Y-81244464D01*
X61858293Y-81302445D01*
X61791171Y-81372135D01*
X61715087Y-81449045D01*
X61634604Y-81528683D01*
X61554287Y-81606561D01*
X61478699Y-81678186D01*
X61412405Y-81739070D01*
X61359969Y-81784721D01*
X61325955Y-81810650D01*
X61316545Y-81814883D01*
X61294643Y-81804912D01*
X61249800Y-81778020D01*
X61189321Y-81738736D01*
X61142789Y-81707117D01*
X61058475Y-81649098D01*
X60958626Y-81580784D01*
X60858473Y-81512579D01*
X60804627Y-81476075D01*
X60622371Y-81352800D01*
X60469381Y-81435520D01*
X60399682Y-81471759D01*
X60340414Y-81499926D01*
X60300311Y-81515991D01*
X60290103Y-81518226D01*
X60277829Y-81501722D01*
X60253613Y-81455082D01*
X60219263Y-81382609D01*
X60176588Y-81288606D01*
X60127394Y-81177374D01*
X60073490Y-81053215D01*
X60016684Y-80920432D01*
X59958782Y-80783327D01*
X59901593Y-80646202D01*
X59846924Y-80513358D01*
X59796584Y-80389098D01*
X59752380Y-80277725D01*
X59716119Y-80183539D01*
X59689609Y-80110844D01*
X59674658Y-80063941D01*
X59672254Y-80047833D01*
X59691311Y-80027286D01*
X59733036Y-79993933D01*
X59788706Y-79954702D01*
X59793378Y-79951599D01*
X59937264Y-79836423D01*
X60053283Y-79702053D01*
X60140430Y-79552784D01*
X60197699Y-79392913D01*
X60224086Y-79226737D01*
X60218585Y-79058552D01*
X60180190Y-78892655D01*
X60107895Y-78733342D01*
X60086626Y-78698487D01*
X59975996Y-78557737D01*
X59845302Y-78444714D01*
X59699064Y-78360003D01*
X59541808Y-78304194D01*
X59378057Y-78277874D01*
X59212333Y-78281630D01*
X59049162Y-78316050D01*
X58893065Y-78381723D01*
X58748567Y-78479235D01*
X58703869Y-78518813D01*
X58590112Y-78642703D01*
X58507218Y-78773124D01*
X58450356Y-78919315D01*
X58418687Y-79064088D01*
X58410869Y-79226860D01*
X58436938Y-79390440D01*
X58494245Y-79549298D01*
X58580144Y-79697906D01*
X58691986Y-79830735D01*
X58827123Y-79942256D01*
X58844883Y-79954011D01*
X58901150Y-79992508D01*
X58943923Y-80025863D01*
X58964372Y-80047160D01*
X58964669Y-80047833D01*
X58960279Y-80070871D01*
X58942876Y-80123157D01*
X58914268Y-80200390D01*
X58876265Y-80298268D01*
X58830674Y-80412491D01*
X58779303Y-80538758D01*
X58723962Y-80672767D01*
X58666458Y-80810218D01*
X58608601Y-80946808D01*
X58552198Y-81078237D01*
X58499058Y-81200205D01*
X58450990Y-81308409D01*
X58409801Y-81398549D01*
X58377301Y-81466323D01*
X58355297Y-81507430D01*
X58346436Y-81518226D01*
X58319360Y-81509819D01*
X58268697Y-81487272D01*
X58203183Y-81454613D01*
X58167159Y-81435520D01*
X58014168Y-81352800D01*
X57831912Y-81476075D01*
X57738875Y-81539228D01*
X57637015Y-81608727D01*
X57541562Y-81674165D01*
X57493750Y-81707117D01*
X57426505Y-81752273D01*
X57369564Y-81788057D01*
X57330354Y-81809938D01*
X57317619Y-81814563D01*
X57299083Y-81802085D01*
X57258059Y-81767252D01*
X57198525Y-81713678D01*
X57124458Y-81644983D01*
X57039835Y-81564781D01*
X56986315Y-81513286D01*
X56892681Y-81421286D01*
X56811759Y-81338999D01*
X56746823Y-81269945D01*
X56701142Y-81217644D01*
X56677989Y-81185616D01*
X56675768Y-81179116D01*
X56686076Y-81154394D01*
X56714561Y-81104405D01*
X56758063Y-81034212D01*
X56813423Y-80948875D01*
X56877480Y-80853456D01*
X56895697Y-80826854D01*
X56962073Y-80730167D01*
X57021622Y-80643117D01*
X57071016Y-80570595D01*
X57106925Y-80517493D01*
X57126019Y-80488703D01*
X57127864Y-80485726D01*
X57125105Y-80462782D01*
X57110462Y-80412336D01*
X57086487Y-80341041D01*
X57055734Y-80255547D01*
X57020756Y-80162507D01*
X56984107Y-80068574D01*
X56948339Y-79980399D01*
X56916006Y-79904634D01*
X56889662Y-79847931D01*
X56871858Y-79816943D01*
X56870593Y-79815457D01*
X56859706Y-79806601D01*
X56841318Y-79797843D01*
X56811394Y-79788277D01*
X56765897Y-79776996D01*
X56700791Y-79763093D01*
X56612039Y-79745663D01*
X56495607Y-79723798D01*
X56347458Y-79696591D01*
X56315382Y-79690741D01*
X56220314Y-79672374D01*
X56137435Y-79654405D01*
X56074070Y-79638569D01*
X56037542Y-79626600D01*
X56032644Y-79623810D01*
X56024573Y-79599072D01*
X56018013Y-79543790D01*
X56012967Y-79464389D01*
X56009441Y-79367296D01*
X56007439Y-79258938D01*
X56006964Y-79145740D01*
X56008023Y-79034128D01*
X56010618Y-78930529D01*
X56014754Y-78841368D01*
X56020437Y-78773072D01*
X56027669Y-78732066D01*
X56032029Y-78723674D01*
X56056302Y-78715208D01*
X56111574Y-78701435D01*
X56192338Y-78683550D01*
X56293088Y-78662748D01*
X56408317Y-78640223D01*
X56471098Y-78628418D01*
X56590213Y-78606151D01*
X56696435Y-78585979D01*
X56784573Y-78568915D01*
X56849434Y-78555969D01*
X56885826Y-78548155D01*
X56891816Y-78546422D01*
X56901939Y-78526890D01*
X56923338Y-78479843D01*
X56953161Y-78412003D01*
X56988555Y-78330091D01*
X57026668Y-78240828D01*
X57064647Y-78150935D01*
X57099640Y-78067135D01*
X57128794Y-77996147D01*
X57149257Y-77944694D01*
X57158177Y-77919497D01*
X57158343Y-77918396D01*
X57148231Y-77898519D01*
X57119883Y-77852777D01*
X57076277Y-77785717D01*
X57020394Y-77701884D01*
X56955213Y-77605826D01*
X56917321Y-77550650D01*
X56848275Y-77449481D01*
X56786950Y-77357630D01*
X56736337Y-77279744D01*
X56699429Y-77220469D01*
X56679218Y-77184451D01*
X56676299Y-77176377D01*
X56688847Y-77157584D01*
X56723537Y-77117457D01*
X56775937Y-77060493D01*
X56841616Y-76991185D01*
X56916144Y-76914031D01*
X56995087Y-76833525D01*
X57074017Y-76754163D01*
X57148500Y-76680440D01*
X57214106Y-76616852D01*
X57266404Y-76567894D01*
X57300961Y-76538061D01*
X57312522Y-76530942D01*
X57331346Y-76540953D01*
X57376369Y-76569078D01*
X57443213Y-76612454D01*
X57527501Y-76668218D01*
X57624856Y-76733506D01*
X57698293Y-76783246D01*
X58069333Y-77035551D01*
X58687905Y-76780555D01*
X58771725Y-76335931D01*
X58855546Y-75891307D01*
X59780994Y-75891307D01*
X59864814Y-76335931D01*
G36*
X108124814Y-48395931D02*
G01*
X108208635Y-48840555D01*
X108517920Y-48968053D01*
X108827206Y-49095551D01*
X109198246Y-48843246D01*
X109302157Y-48772996D01*
X109396087Y-48710272D01*
X109475652Y-48657938D01*
X109536470Y-48618857D01*
X109574157Y-48595893D01*
X109584421Y-48590942D01*
X109602910Y-48603676D01*
X109642420Y-48638882D01*
X109698522Y-48692062D01*
X109766787Y-48758718D01*
X109842786Y-48834354D01*
X109922092Y-48914472D01*
X110000275Y-48994574D01*
X110072907Y-49070164D01*
X110135559Y-49136745D01*
X110183803Y-49189818D01*
X110213210Y-49224887D01*
X110220241Y-49236623D01*
X110210123Y-49258260D01*
X110181759Y-49305662D01*
X110138129Y-49374193D01*
X110082218Y-49459215D01*
X110017006Y-49556093D01*
X109979219Y-49611350D01*
X109910343Y-49712248D01*
X109849140Y-49803299D01*
X109798578Y-49879970D01*
X109761628Y-49937728D01*
X109741258Y-49972043D01*
X109738197Y-49979254D01*
X109745136Y-49999748D01*
X109764051Y-50047513D01*
X109792087Y-50115832D01*
X109826391Y-50197989D01*
X109864109Y-50287270D01*
X109902387Y-50376958D01*
X109938370Y-50460338D01*
X109969206Y-50530694D01*
X109992039Y-50581310D01*
X110004017Y-50605471D01*
X110004724Y-50606422D01*
X110023531Y-50611036D01*
X110073618Y-50621328D01*
X110149793Y-50636287D01*
X110246865Y-50654901D01*
X110359643Y-50676159D01*
X110425442Y-50688418D01*
X110545950Y-50711362D01*
X110654797Y-50733195D01*
X110746476Y-50752722D01*
X110815481Y-50768748D01*
X110856304Y-50780079D01*
X110864511Y-50783674D01*
X110872548Y-50808006D01*
X110879033Y-50862959D01*
X110883970Y-50942108D01*
X110887364Y-51039026D01*
X110889218Y-51147287D01*
X110889538Y-51260465D01*
X110888327Y-51372135D01*
X110885590Y-51475868D01*
X110881331Y-51565241D01*
X110875555Y-51633826D01*
X110868267Y-51675197D01*
X110863895Y-51683810D01*
X110837764Y-51694133D01*
X110782393Y-51708892D01*
X110705107Y-51726352D01*
X110613230Y-51744780D01*
X110581158Y-51750741D01*
X110426524Y-51779066D01*
X110304375Y-51801876D01*
X110210673Y-51820080D01*
X110141384Y-51834583D01*
X110092471Y-51846292D01*
X110059897Y-51856115D01*
X110039628Y-51864956D01*
X110027626Y-51873724D01*
X110025947Y-51875457D01*
X110009184Y-51903371D01*
X109983614Y-51957695D01*
X109951788Y-52031777D01*
X109916260Y-52118965D01*
X109879583Y-52212608D01*
X109844311Y-52306052D01*
X109812996Y-52392647D01*
X109788193Y-52465740D01*
X109772454Y-52518678D01*
X109768332Y-52544811D01*
X109768676Y-52545726D01*
X109782641Y-52567086D01*
X109814322Y-52614084D01*
X109860391Y-52681827D01*
X109917518Y-52765423D01*
X109982373Y-52859982D01*
X110000843Y-52886854D01*
X110066699Y-52984275D01*
X110124650Y-53073163D01*
X110171538Y-53148412D01*
X110204207Y-53204920D01*
X110219500Y-53237581D01*
X110220241Y-53241593D01*
X110207392Y-53262684D01*
X110171888Y-53304464D01*
X110118293Y-53362445D01*
X110051171Y-53432135D01*
X109975087Y-53509045D01*
X109894604Y-53588683D01*
X109814287Y-53666561D01*
X109738699Y-53738186D01*
X109672405Y-53799070D01*
X109619969Y-53844721D01*
X109585955Y-53870650D01*
X109576545Y-53874883D01*
X109554643Y-53864912D01*
X109509800Y-53838020D01*
X109449321Y-53798736D01*
X109402789Y-53767117D01*
X109318475Y-53709098D01*
X109218626Y-53640784D01*
X109118473Y-53572579D01*
X109064627Y-53536075D01*
X108882371Y-53412800D01*
X108729381Y-53495520D01*
X108659682Y-53531759D01*
X108600414Y-53559926D01*
X108560311Y-53575991D01*
X108550103Y-53578226D01*
X108537829Y-53561722D01*
X108513613Y-53515082D01*
X108479263Y-53442609D01*
X108436588Y-53348606D01*
X108387394Y-53237374D01*
X108333490Y-53113215D01*
X108276684Y-52980432D01*
X108218782Y-52843327D01*
X108161593Y-52706202D01*
X108106924Y-52573358D01*
X108056584Y-52449098D01*
X108012380Y-52337725D01*
X107976119Y-52243539D01*
X107949609Y-52170844D01*
X107934658Y-52123941D01*
X107932254Y-52107833D01*
X107951311Y-52087286D01*
X107993036Y-52053933D01*
X108048706Y-52014702D01*
X108053378Y-52011599D01*
X108197264Y-51896423D01*
X108313283Y-51762053D01*
X108400430Y-51612784D01*
X108457699Y-51452913D01*
X108484086Y-51286737D01*
X108478585Y-51118552D01*
X108440190Y-50952655D01*
X108367895Y-50793342D01*
X108346626Y-50758487D01*
X108235996Y-50617737D01*
X108105302Y-50504714D01*
X107959064Y-50420003D01*
X107801808Y-50364194D01*
X107638057Y-50337874D01*
X107472333Y-50341630D01*
X107309162Y-50376050D01*
X107153065Y-50441723D01*
X107008567Y-50539235D01*
X106963869Y-50578813D01*
X106850112Y-50702703D01*
X106767218Y-50833124D01*
X106710356Y-50979315D01*
X106678687Y-51124088D01*
X106670869Y-51286860D01*
X106696938Y-51450440D01*
X106754245Y-51609298D01*
X106840144Y-51757906D01*
X106951986Y-51890735D01*
X107087123Y-52002256D01*
X107104883Y-52014011D01*
X107161150Y-52052508D01*
X107203923Y-52085863D01*
X107224372Y-52107160D01*
X107224669Y-52107833D01*
X107220279Y-52130871D01*
X107202876Y-52183157D01*
X107174268Y-52260390D01*
X107136265Y-52358268D01*
X107090674Y-52472491D01*
X107039303Y-52598758D01*
X106983962Y-52732767D01*
X106926458Y-52870218D01*
X106868601Y-53006808D01*
X106812198Y-53138237D01*
X106759058Y-53260205D01*
X106710990Y-53368409D01*
X106669801Y-53458549D01*
X106637301Y-53526323D01*
X106615297Y-53567430D01*
X106606436Y-53578226D01*
X106579360Y-53569819D01*
X106528697Y-53547272D01*
X106463183Y-53514613D01*
X106427159Y-53495520D01*
X106274168Y-53412800D01*
X106091912Y-53536075D01*
X105998875Y-53599228D01*
X105897015Y-53668727D01*
X105801562Y-53734165D01*
X105753750Y-53767117D01*
X105686505Y-53812273D01*
X105629564Y-53848057D01*
X105590354Y-53869938D01*
X105577619Y-53874563D01*
X105559083Y-53862085D01*
X105518059Y-53827252D01*
X105458525Y-53773678D01*
X105384458Y-53704983D01*
X105299835Y-53624781D01*
X105246315Y-53573286D01*
X105152681Y-53481286D01*
X105071759Y-53398999D01*
X105006823Y-53329945D01*
X104961142Y-53277644D01*
X104937989Y-53245616D01*
X104935768Y-53239116D01*
X104946076Y-53214394D01*
X104974561Y-53164405D01*
X105018063Y-53094212D01*
X105073423Y-53008875D01*
X105137480Y-52913456D01*
X105155697Y-52886854D01*
X105222073Y-52790167D01*
X105281622Y-52703117D01*
X105331016Y-52630595D01*
X105366925Y-52577493D01*
X105386019Y-52548703D01*
X105387864Y-52545726D01*
X105385105Y-52522782D01*
X105370462Y-52472336D01*
X105346487Y-52401041D01*
X105315734Y-52315547D01*
X105280756Y-52222507D01*
X105244107Y-52128574D01*
X105208339Y-52040399D01*
X105176006Y-51964634D01*
X105149662Y-51907931D01*
X105131858Y-51876943D01*
X105130593Y-51875457D01*
X105119706Y-51866601D01*
X105101318Y-51857843D01*
X105071394Y-51848277D01*
X105025897Y-51836996D01*
X104960791Y-51823093D01*
X104872039Y-51805663D01*
X104755607Y-51783798D01*
X104607458Y-51756591D01*
X104575382Y-51750741D01*
X104480314Y-51732374D01*
X104397435Y-51714405D01*
X104334070Y-51698569D01*
X104297542Y-51686600D01*
X104292644Y-51683810D01*
X104284573Y-51659072D01*
X104278013Y-51603790D01*
X104272967Y-51524389D01*
X104269441Y-51427296D01*
X104267439Y-51318938D01*
X104266964Y-51205740D01*
X104268023Y-51094128D01*
X104270618Y-50990529D01*
X104274754Y-50901368D01*
X104280437Y-50833072D01*
X104287669Y-50792066D01*
X104292029Y-50783674D01*
X104316302Y-50775208D01*
X104371574Y-50761435D01*
X104452338Y-50743550D01*
X104553088Y-50722748D01*
X104668317Y-50700223D01*
X104731098Y-50688418D01*
X104850213Y-50666151D01*
X104956435Y-50645979D01*
X105044573Y-50628915D01*
X105109434Y-50615969D01*
X105145826Y-50608155D01*
X105151816Y-50606422D01*
X105161939Y-50586890D01*
X105183338Y-50539843D01*
X105213161Y-50472003D01*
X105248555Y-50390091D01*
X105286668Y-50300828D01*
X105324647Y-50210935D01*
X105359640Y-50127135D01*
X105388794Y-50056147D01*
X105409257Y-50004694D01*
X105418177Y-49979497D01*
X105418343Y-49978396D01*
X105408231Y-49958519D01*
X105379883Y-49912777D01*
X105336277Y-49845717D01*
X105280394Y-49761884D01*
X105215213Y-49665826D01*
X105177321Y-49610650D01*
X105108275Y-49509481D01*
X105046950Y-49417630D01*
X104996337Y-49339744D01*
X104959429Y-49280469D01*
X104939218Y-49244451D01*
X104936299Y-49236377D01*
X104948847Y-49217584D01*
X104983537Y-49177457D01*
X105035937Y-49120493D01*
X105101616Y-49051185D01*
X105176144Y-48974031D01*
X105255087Y-48893525D01*
X105334017Y-48814163D01*
X105408500Y-48740440D01*
X105474106Y-48676852D01*
X105526404Y-48627894D01*
X105560961Y-48598061D01*
X105572522Y-48590942D01*
X105591346Y-48600953D01*
X105636369Y-48629078D01*
X105703213Y-48672454D01*
X105787501Y-48728218D01*
X105884856Y-48793506D01*
X105958293Y-48843246D01*
X106329333Y-49095551D01*
X106947905Y-48840555D01*
X107031725Y-48395931D01*
X107115546Y-47951307D01*
X108040994Y-47951307D01*
X108124814Y-48395931D01*
G37*
X108124814Y-48395931D02*
X108208635Y-48840555D01*
X108517920Y-48968053D01*
X108827206Y-49095551D01*
X109198246Y-48843246D01*
X109302157Y-48772996D01*
X109396087Y-48710272D01*
X109475652Y-48657938D01*
X109536470Y-48618857D01*
X109574157Y-48595893D01*
X109584421Y-48590942D01*
X109602910Y-48603676D01*
X109642420Y-48638882D01*
X109698522Y-48692062D01*
X109766787Y-48758718D01*
X109842786Y-48834354D01*
X109922092Y-48914472D01*
X110000275Y-48994574D01*
X110072907Y-49070164D01*
X110135559Y-49136745D01*
X110183803Y-49189818D01*
X110213210Y-49224887D01*
X110220241Y-49236623D01*
X110210123Y-49258260D01*
X110181759Y-49305662D01*
X110138129Y-49374193D01*
X110082218Y-49459215D01*
X110017006Y-49556093D01*
X109979219Y-49611350D01*
X109910343Y-49712248D01*
X109849140Y-49803299D01*
X109798578Y-49879970D01*
X109761628Y-49937728D01*
X109741258Y-49972043D01*
X109738197Y-49979254D01*
X109745136Y-49999748D01*
X109764051Y-50047513D01*
X109792087Y-50115832D01*
X109826391Y-50197989D01*
X109864109Y-50287270D01*
X109902387Y-50376958D01*
X109938370Y-50460338D01*
X109969206Y-50530694D01*
X109992039Y-50581310D01*
X110004017Y-50605471D01*
X110004724Y-50606422D01*
X110023531Y-50611036D01*
X110073618Y-50621328D01*
X110149793Y-50636287D01*
X110246865Y-50654901D01*
X110359643Y-50676159D01*
X110425442Y-50688418D01*
X110545950Y-50711362D01*
X110654797Y-50733195D01*
X110746476Y-50752722D01*
X110815481Y-50768748D01*
X110856304Y-50780079D01*
X110864511Y-50783674D01*
X110872548Y-50808006D01*
X110879033Y-50862959D01*
X110883970Y-50942108D01*
X110887364Y-51039026D01*
X110889218Y-51147287D01*
X110889538Y-51260465D01*
X110888327Y-51372135D01*
X110885590Y-51475868D01*
X110881331Y-51565241D01*
X110875555Y-51633826D01*
X110868267Y-51675197D01*
X110863895Y-51683810D01*
X110837764Y-51694133D01*
X110782393Y-51708892D01*
X110705107Y-51726352D01*
X110613230Y-51744780D01*
X110581158Y-51750741D01*
X110426524Y-51779066D01*
X110304375Y-51801876D01*
X110210673Y-51820080D01*
X110141384Y-51834583D01*
X110092471Y-51846292D01*
X110059897Y-51856115D01*
X110039628Y-51864956D01*
X110027626Y-51873724D01*
X110025947Y-51875457D01*
X110009184Y-51903371D01*
X109983614Y-51957695D01*
X109951788Y-52031777D01*
X109916260Y-52118965D01*
X109879583Y-52212608D01*
X109844311Y-52306052D01*
X109812996Y-52392647D01*
X109788193Y-52465740D01*
X109772454Y-52518678D01*
X109768332Y-52544811D01*
X109768676Y-52545726D01*
X109782641Y-52567086D01*
X109814322Y-52614084D01*
X109860391Y-52681827D01*
X109917518Y-52765423D01*
X109982373Y-52859982D01*
X110000843Y-52886854D01*
X110066699Y-52984275D01*
X110124650Y-53073163D01*
X110171538Y-53148412D01*
X110204207Y-53204920D01*
X110219500Y-53237581D01*
X110220241Y-53241593D01*
X110207392Y-53262684D01*
X110171888Y-53304464D01*
X110118293Y-53362445D01*
X110051171Y-53432135D01*
X109975087Y-53509045D01*
X109894604Y-53588683D01*
X109814287Y-53666561D01*
X109738699Y-53738186D01*
X109672405Y-53799070D01*
X109619969Y-53844721D01*
X109585955Y-53870650D01*
X109576545Y-53874883D01*
X109554643Y-53864912D01*
X109509800Y-53838020D01*
X109449321Y-53798736D01*
X109402789Y-53767117D01*
X109318475Y-53709098D01*
X109218626Y-53640784D01*
X109118473Y-53572579D01*
X109064627Y-53536075D01*
X108882371Y-53412800D01*
X108729381Y-53495520D01*
X108659682Y-53531759D01*
X108600414Y-53559926D01*
X108560311Y-53575991D01*
X108550103Y-53578226D01*
X108537829Y-53561722D01*
X108513613Y-53515082D01*
X108479263Y-53442609D01*
X108436588Y-53348606D01*
X108387394Y-53237374D01*
X108333490Y-53113215D01*
X108276684Y-52980432D01*
X108218782Y-52843327D01*
X108161593Y-52706202D01*
X108106924Y-52573358D01*
X108056584Y-52449098D01*
X108012380Y-52337725D01*
X107976119Y-52243539D01*
X107949609Y-52170844D01*
X107934658Y-52123941D01*
X107932254Y-52107833D01*
X107951311Y-52087286D01*
X107993036Y-52053933D01*
X108048706Y-52014702D01*
X108053378Y-52011599D01*
X108197264Y-51896423D01*
X108313283Y-51762053D01*
X108400430Y-51612784D01*
X108457699Y-51452913D01*
X108484086Y-51286737D01*
X108478585Y-51118552D01*
X108440190Y-50952655D01*
X108367895Y-50793342D01*
X108346626Y-50758487D01*
X108235996Y-50617737D01*
X108105302Y-50504714D01*
X107959064Y-50420003D01*
X107801808Y-50364194D01*
X107638057Y-50337874D01*
X107472333Y-50341630D01*
X107309162Y-50376050D01*
X107153065Y-50441723D01*
X107008567Y-50539235D01*
X106963869Y-50578813D01*
X106850112Y-50702703D01*
X106767218Y-50833124D01*
X106710356Y-50979315D01*
X106678687Y-51124088D01*
X106670869Y-51286860D01*
X106696938Y-51450440D01*
X106754245Y-51609298D01*
X106840144Y-51757906D01*
X106951986Y-51890735D01*
X107087123Y-52002256D01*
X107104883Y-52014011D01*
X107161150Y-52052508D01*
X107203923Y-52085863D01*
X107224372Y-52107160D01*
X107224669Y-52107833D01*
X107220279Y-52130871D01*
X107202876Y-52183157D01*
X107174268Y-52260390D01*
X107136265Y-52358268D01*
X107090674Y-52472491D01*
X107039303Y-52598758D01*
X106983962Y-52732767D01*
X106926458Y-52870218D01*
X106868601Y-53006808D01*
X106812198Y-53138237D01*
X106759058Y-53260205D01*
X106710990Y-53368409D01*
X106669801Y-53458549D01*
X106637301Y-53526323D01*
X106615297Y-53567430D01*
X106606436Y-53578226D01*
X106579360Y-53569819D01*
X106528697Y-53547272D01*
X106463183Y-53514613D01*
X106427159Y-53495520D01*
X106274168Y-53412800D01*
X106091912Y-53536075D01*
X105998875Y-53599228D01*
X105897015Y-53668727D01*
X105801562Y-53734165D01*
X105753750Y-53767117D01*
X105686505Y-53812273D01*
X105629564Y-53848057D01*
X105590354Y-53869938D01*
X105577619Y-53874563D01*
X105559083Y-53862085D01*
X105518059Y-53827252D01*
X105458525Y-53773678D01*
X105384458Y-53704983D01*
X105299835Y-53624781D01*
X105246315Y-53573286D01*
X105152681Y-53481286D01*
X105071759Y-53398999D01*
X105006823Y-53329945D01*
X104961142Y-53277644D01*
X104937989Y-53245616D01*
X104935768Y-53239116D01*
X104946076Y-53214394D01*
X104974561Y-53164405D01*
X105018063Y-53094212D01*
X105073423Y-53008875D01*
X105137480Y-52913456D01*
X105155697Y-52886854D01*
X105222073Y-52790167D01*
X105281622Y-52703117D01*
X105331016Y-52630595D01*
X105366925Y-52577493D01*
X105386019Y-52548703D01*
X105387864Y-52545726D01*
X105385105Y-52522782D01*
X105370462Y-52472336D01*
X105346487Y-52401041D01*
X105315734Y-52315547D01*
X105280756Y-52222507D01*
X105244107Y-52128574D01*
X105208339Y-52040399D01*
X105176006Y-51964634D01*
X105149662Y-51907931D01*
X105131858Y-51876943D01*
X105130593Y-51875457D01*
X105119706Y-51866601D01*
X105101318Y-51857843D01*
X105071394Y-51848277D01*
X105025897Y-51836996D01*
X104960791Y-51823093D01*
X104872039Y-51805663D01*
X104755607Y-51783798D01*
X104607458Y-51756591D01*
X104575382Y-51750741D01*
X104480314Y-51732374D01*
X104397435Y-51714405D01*
X104334070Y-51698569D01*
X104297542Y-51686600D01*
X104292644Y-51683810D01*
X104284573Y-51659072D01*
X104278013Y-51603790D01*
X104272967Y-51524389D01*
X104269441Y-51427296D01*
X104267439Y-51318938D01*
X104266964Y-51205740D01*
X104268023Y-51094128D01*
X104270618Y-50990529D01*
X104274754Y-50901368D01*
X104280437Y-50833072D01*
X104287669Y-50792066D01*
X104292029Y-50783674D01*
X104316302Y-50775208D01*
X104371574Y-50761435D01*
X104452338Y-50743550D01*
X104553088Y-50722748D01*
X104668317Y-50700223D01*
X104731098Y-50688418D01*
X104850213Y-50666151D01*
X104956435Y-50645979D01*
X105044573Y-50628915D01*
X105109434Y-50615969D01*
X105145826Y-50608155D01*
X105151816Y-50606422D01*
X105161939Y-50586890D01*
X105183338Y-50539843D01*
X105213161Y-50472003D01*
X105248555Y-50390091D01*
X105286668Y-50300828D01*
X105324647Y-50210935D01*
X105359640Y-50127135D01*
X105388794Y-50056147D01*
X105409257Y-50004694D01*
X105418177Y-49979497D01*
X105418343Y-49978396D01*
X105408231Y-49958519D01*
X105379883Y-49912777D01*
X105336277Y-49845717D01*
X105280394Y-49761884D01*
X105215213Y-49665826D01*
X105177321Y-49610650D01*
X105108275Y-49509481D01*
X105046950Y-49417630D01*
X104996337Y-49339744D01*
X104959429Y-49280469D01*
X104939218Y-49244451D01*
X104936299Y-49236377D01*
X104948847Y-49217584D01*
X104983537Y-49177457D01*
X105035937Y-49120493D01*
X105101616Y-49051185D01*
X105176144Y-48974031D01*
X105255087Y-48893525D01*
X105334017Y-48814163D01*
X105408500Y-48740440D01*
X105474106Y-48676852D01*
X105526404Y-48627894D01*
X105560961Y-48598061D01*
X105572522Y-48590942D01*
X105591346Y-48600953D01*
X105636369Y-48629078D01*
X105703213Y-48672454D01*
X105787501Y-48728218D01*
X105884856Y-48793506D01*
X105958293Y-48843246D01*
X106329333Y-49095551D01*
X106947905Y-48840555D01*
X107031725Y-48395931D01*
X107115546Y-47951307D01*
X108040994Y-47951307D01*
X108124814Y-48395931D01*
D13*
X136516413Y-98382615D02*
G75*
G02X137124000Y-98259000I607587J-1431385D01*
G01*
X135691891Y-100421742D02*
G75*
G02X135692000Y-99206000I1432109J607742D01*
G01*
X137731742Y-101246109D02*
G75*
G02X136516000Y-101246000I-607742J1432109D01*
G01*
X138556109Y-99206258D02*
G75*
G02X138556000Y-100422000I-1432109J-607742D01*
G01*
X137096989Y-98258508D02*
G75*
G02X137732000Y-98382000I27011J-1555492D01*
G01*
X135179000Y-99814000D02*
G75*
G03X135179000Y-99814000I-1555000J0D01*
G01*
X131679000Y-99814000D02*
G75*
G03X131679000Y-99814000I-1555000J0D01*
G01*
X128179000Y-99814000D02*
G75*
G03X128179000Y-99814000I-1555000J0D01*
G01*
X124679000Y-99814000D02*
G75*
G03X124679000Y-99814000I-1555000J0D01*
G01*
X121179000Y-99814000D02*
G75*
G03X121179000Y-99814000I-1555000J0D01*
G01*
X117679000Y-99814000D02*
G75*
G03X117679000Y-99814000I-1555000J0D01*
G01*
X114179000Y-99814000D02*
G75*
G03X114179000Y-99814000I-1555000J0D01*
G01*
X110679000Y-99814000D02*
G75*
G03X110679000Y-99814000I-1555000J0D01*
G01*
X139284000Y-97714000D02*
X106964000Y-97714000D01*
X139284000Y-103274000D02*
X106964000Y-103274000D01*
X139284000Y-96154000D02*
X106964000Y-96154000D01*
X139284000Y-103274000D02*
X139284000Y-96154000D01*
X106964000Y-103274000D02*
X106964000Y-96154000D01*
X139524000Y-97654000D02*
X139524000Y-95914000D01*
X139524000Y-95914000D02*
X138024000Y-95914000D01*
X88256413Y-98382615D02*
G75*
G02X88864000Y-98259000I607587J-1431385D01*
G01*
X87431891Y-100421742D02*
G75*
G02X87432000Y-99206000I1432109J607742D01*
G01*
X89471742Y-101246109D02*
G75*
G02X88256000Y-101246000I-607742J1432109D01*
G01*
X90296109Y-99206258D02*
G75*
G02X90296000Y-100422000I-1432109J-607742D01*
G01*
X88836989Y-98258508D02*
G75*
G02X89472000Y-98382000I27011J-1555492D01*
G01*
X86919000Y-99814000D02*
G75*
G03X86919000Y-99814000I-1555000J0D01*
G01*
X83419000Y-99814000D02*
G75*
G03X83419000Y-99814000I-1555000J0D01*
G01*
X79919000Y-99814000D02*
G75*
G03X79919000Y-99814000I-1555000J0D01*
G01*
X76419000Y-99814000D02*
G75*
G03X76419000Y-99814000I-1555000J0D01*
G01*
X72919000Y-99814000D02*
G75*
G03X72919000Y-99814000I-1555000J0D01*
G01*
X69419000Y-99814000D02*
G75*
G03X69419000Y-99814000I-1555000J0D01*
G01*
X65919000Y-99814000D02*
G75*
G03X65919000Y-99814000I-1555000J0D01*
G01*
X62419000Y-99814000D02*
G75*
G03X62419000Y-99814000I-1555000J0D01*
G01*
X91024000Y-97714000D02*
X58704000Y-97714000D01*
X91024000Y-103274000D02*
X58704000Y-103274000D01*
X91024000Y-96154000D02*
X58704000Y-96154000D01*
X91024000Y-103274000D02*
X91024000Y-96154000D01*
X58704000Y-103274000D02*
X58704000Y-96154000D01*
X91264000Y-97654000D02*
X91264000Y-95914000D01*
X91264000Y-95914000D02*
X89764000Y-95914000D01*
X136516413Y-70442615D02*
G75*
G02X137124000Y-70319000I607587J-1431385D01*
G01*
X135691891Y-72481742D02*
G75*
G02X135692000Y-71266000I1432109J607742D01*
G01*
X137731742Y-73306109D02*
G75*
G02X136516000Y-73306000I-607742J1432109D01*
G01*
X138556109Y-71266258D02*
G75*
G02X138556000Y-72482000I-1432109J-607742D01*
G01*
X137096989Y-70318508D02*
G75*
G02X137732000Y-70442000I27011J-1555492D01*
G01*
X135179000Y-71874000D02*
G75*
G03X135179000Y-71874000I-1555000J0D01*
G01*
X131679000Y-71874000D02*
G75*
G03X131679000Y-71874000I-1555000J0D01*
G01*
X128179000Y-71874000D02*
G75*
G03X128179000Y-71874000I-1555000J0D01*
G01*
X124679000Y-71874000D02*
G75*
G03X124679000Y-71874000I-1555000J0D01*
G01*
X121179000Y-71874000D02*
G75*
G03X121179000Y-71874000I-1555000J0D01*
G01*
X117679000Y-71874000D02*
G75*
G03X117679000Y-71874000I-1555000J0D01*
G01*
X114179000Y-71874000D02*
G75*
G03X114179000Y-71874000I-1555000J0D01*
G01*
X110679000Y-71874000D02*
G75*
G03X110679000Y-71874000I-1555000J0D01*
G01*
X139284000Y-69774000D02*
X106964000Y-69774000D01*
X139284000Y-75334000D02*
X106964000Y-75334000D01*
X139284000Y-68214000D02*
X106964000Y-68214000D01*
X139284000Y-75334000D02*
X139284000Y-68214000D01*
X106964000Y-75334000D02*
X106964000Y-68214000D01*
X139524000Y-69714000D02*
X139524000Y-67974000D01*
X139524000Y-67974000D02*
X138024000Y-67974000D01*
X88256413Y-70442615D02*
G75*
G02X88864000Y-70319000I607587J-1431385D01*
G01*
X87431891Y-72481742D02*
G75*
G02X87432000Y-71266000I1432109J607742D01*
G01*
X89471742Y-73306109D02*
G75*
G02X88256000Y-73306000I-607742J1432109D01*
G01*
X90296109Y-71266258D02*
G75*
G02X90296000Y-72482000I-1432109J-607742D01*
G01*
X88836989Y-70318508D02*
G75*
G02X89472000Y-70442000I27011J-1555492D01*
G01*
X86919000Y-71874000D02*
G75*
G03X86919000Y-71874000I-1555000J0D01*
G01*
X83419000Y-71874000D02*
G75*
G03X83419000Y-71874000I-1555000J0D01*
G01*
X79919000Y-71874000D02*
G75*
G03X79919000Y-71874000I-1555000J0D01*
G01*
X76419000Y-71874000D02*
G75*
G03X76419000Y-71874000I-1555000J0D01*
G01*
X72919000Y-71874000D02*
G75*
G03X72919000Y-71874000I-1555000J0D01*
G01*
X69419000Y-71874000D02*
G75*
G03X69419000Y-71874000I-1555000J0D01*
G01*
X65919000Y-71874000D02*
G75*
G03X65919000Y-71874000I-1555000J0D01*
G01*
X62419000Y-71874000D02*
G75*
G03X62419000Y-71874000I-1555000J0D01*
G01*
X91024000Y-69774000D02*
X58704000Y-69774000D01*
X91024000Y-75334000D02*
X58704000Y-75334000D01*
X91024000Y-68214000D02*
X58704000Y-68214000D01*
X91024000Y-75334000D02*
X91024000Y-68214000D01*
X58704000Y-75334000D02*
X58704000Y-68214000D01*
X91264000Y-69714000D02*
X91264000Y-67974000D01*
X91264000Y-67974000D02*
X89764000Y-67974000D01*
X136516413Y-42502615D02*
G75*
G02X137124000Y-42379000I607587J-1431385D01*
G01*
X135691891Y-44541742D02*
G75*
G02X135692000Y-43326000I1432109J607742D01*
G01*
X137731742Y-45366109D02*
G75*
G02X136516000Y-45366000I-607742J1432109D01*
G01*
X138556109Y-43326258D02*
G75*
G02X138556000Y-44542000I-1432109J-607742D01*
G01*
X137096989Y-42378508D02*
G75*
G02X137732000Y-42502000I27011J-1555492D01*
G01*
X135179000Y-43934000D02*
G75*
G03X135179000Y-43934000I-1555000J0D01*
G01*
X131679000Y-43934000D02*
G75*
G03X131679000Y-43934000I-1555000J0D01*
G01*
X128179000Y-43934000D02*
G75*
G03X128179000Y-43934000I-1555000J0D01*
G01*
X124679000Y-43934000D02*
G75*
G03X124679000Y-43934000I-1555000J0D01*
G01*
X121179000Y-43934000D02*
G75*
G03X121179000Y-43934000I-1555000J0D01*
G01*
X117679000Y-43934000D02*
G75*
G03X117679000Y-43934000I-1555000J0D01*
G01*
X114179000Y-43934000D02*
G75*
G03X114179000Y-43934000I-1555000J0D01*
G01*
X110679000Y-43934000D02*
G75*
G03X110679000Y-43934000I-1555000J0D01*
G01*
X139284000Y-41834000D02*
X106964000Y-41834000D01*
X139284000Y-47394000D02*
X106964000Y-47394000D01*
X139284000Y-40274000D02*
X106964000Y-40274000D01*
X139284000Y-47394000D02*
X139284000Y-40274000D01*
X106964000Y-47394000D02*
X106964000Y-40274000D01*
X139524000Y-41774000D02*
X139524000Y-40034000D01*
X139524000Y-40034000D02*
X138024000Y-40034000D01*
X109731587Y-119676385D02*
G75*
G02X109124000Y-119800000I-607587J1431385D01*
G01*
X110556109Y-117637258D02*
G75*
G02X110556000Y-118853000I-1432109J-607742D01*
G01*
X108516258Y-116812891D02*
G75*
G02X109732000Y-116813000I607742J-1432109D01*
G01*
X107691891Y-118852742D02*
G75*
G02X107692000Y-117637000I1432109J607742D01*
G01*
X109151011Y-119800492D02*
G75*
G02X108516000Y-119677000I-27011J1555492D01*
G01*
X114179000Y-118245000D02*
G75*
G03X114179000Y-118245000I-1555000J0D01*
G01*
X117679000Y-118245000D02*
G75*
G03X117679000Y-118245000I-1555000J0D01*
G01*
X121179000Y-118245000D02*
G75*
G03X121179000Y-118245000I-1555000J0D01*
G01*
X124679000Y-118245000D02*
G75*
G03X124679000Y-118245000I-1555000J0D01*
G01*
X128179000Y-118245000D02*
G75*
G03X128179000Y-118245000I-1555000J0D01*
G01*
X131679000Y-118245000D02*
G75*
G03X131679000Y-118245000I-1555000J0D01*
G01*
X135179000Y-118245000D02*
G75*
G03X135179000Y-118245000I-1555000J0D01*
G01*
X138679000Y-118245000D02*
G75*
G03X138679000Y-118245000I-1555000J0D01*
G01*
X106964000Y-120345000D02*
X139284000Y-120345000D01*
X106964000Y-114785000D02*
X139284000Y-114785000D01*
X106964000Y-121905000D02*
X139284000Y-121905000D01*
X106964000Y-114785000D02*
X106964000Y-121905000D01*
X139284000Y-114785000D02*
X139284000Y-121905000D01*
X106724000Y-120405000D02*
X106724000Y-122145000D01*
X106724000Y-122145000D02*
X108224000Y-122145000D01*
X61471587Y-119676385D02*
G75*
G02X60864000Y-119800000I-607587J1431385D01*
G01*
X62296109Y-117637258D02*
G75*
G02X62296000Y-118853000I-1432109J-607742D01*
G01*
X60256258Y-116812891D02*
G75*
G02X61472000Y-116813000I607742J-1432109D01*
G01*
X59431891Y-118852742D02*
G75*
G02X59432000Y-117637000I1432109J607742D01*
G01*
X60891011Y-119800492D02*
G75*
G02X60256000Y-119677000I-27011J1555492D01*
G01*
X65919000Y-118245000D02*
G75*
G03X65919000Y-118245000I-1555000J0D01*
G01*
X69419000Y-118245000D02*
G75*
G03X69419000Y-118245000I-1555000J0D01*
G01*
X72919000Y-118245000D02*
G75*
G03X72919000Y-118245000I-1555000J0D01*
G01*
X76419000Y-118245000D02*
G75*
G03X76419000Y-118245000I-1555000J0D01*
G01*
X79919000Y-118245000D02*
G75*
G03X79919000Y-118245000I-1555000J0D01*
G01*
X83419000Y-118245000D02*
G75*
G03X83419000Y-118245000I-1555000J0D01*
G01*
X86919000Y-118245000D02*
G75*
G03X86919000Y-118245000I-1555000J0D01*
G01*
X90419000Y-118245000D02*
G75*
G03X90419000Y-118245000I-1555000J0D01*
G01*
X58704000Y-120345000D02*
X91024000Y-120345000D01*
X58704000Y-114785000D02*
X91024000Y-114785000D01*
X58704000Y-121905000D02*
X91024000Y-121905000D01*
X58704000Y-114785000D02*
X58704000Y-121905000D01*
X91024000Y-114785000D02*
X91024000Y-121905000D01*
X58464000Y-120405000D02*
X58464000Y-122145000D01*
X58464000Y-122145000D02*
X59964000Y-122145000D01*
X109731587Y-91736385D02*
G75*
G02X109124000Y-91860000I-607587J1431385D01*
G01*
X110556109Y-89697258D02*
G75*
G02X110556000Y-90913000I-1432109J-607742D01*
G01*
X108516258Y-88872891D02*
G75*
G02X109732000Y-88873000I607742J-1432109D01*
G01*
X107691891Y-90912742D02*
G75*
G02X107692000Y-89697000I1432109J607742D01*
G01*
X109151011Y-91860492D02*
G75*
G02X108516000Y-91737000I-27011J1555492D01*
G01*
X114179000Y-90305000D02*
G75*
G03X114179000Y-90305000I-1555000J0D01*
G01*
X117679000Y-90305000D02*
G75*
G03X117679000Y-90305000I-1555000J0D01*
G01*
X121179000Y-90305000D02*
G75*
G03X121179000Y-90305000I-1555000J0D01*
G01*
X124679000Y-90305000D02*
G75*
G03X124679000Y-90305000I-1555000J0D01*
G01*
X128179000Y-90305000D02*
G75*
G03X128179000Y-90305000I-1555000J0D01*
G01*
X131679000Y-90305000D02*
G75*
G03X131679000Y-90305000I-1555000J0D01*
G01*
X135179000Y-90305000D02*
G75*
G03X135179000Y-90305000I-1555000J0D01*
G01*
X138679000Y-90305000D02*
G75*
G03X138679000Y-90305000I-1555000J0D01*
G01*
X106964000Y-92405000D02*
X139284000Y-92405000D01*
X106964000Y-86845000D02*
X139284000Y-86845000D01*
X106964000Y-93965000D02*
X139284000Y-93965000D01*
X106964000Y-86845000D02*
X106964000Y-93965000D01*
X139284000Y-86845000D02*
X139284000Y-93965000D01*
X106724000Y-92465000D02*
X106724000Y-94205000D01*
X106724000Y-94205000D02*
X108224000Y-94205000D01*
X61471587Y-91736385D02*
G75*
G02X60864000Y-91860000I-607587J1431385D01*
G01*
X62296109Y-89697258D02*
G75*
G02X62296000Y-90913000I-1432109J-607742D01*
G01*
X60256258Y-88872891D02*
G75*
G02X61472000Y-88873000I607742J-1432109D01*
G01*
X59431891Y-90912742D02*
G75*
G02X59432000Y-89697000I1432109J607742D01*
G01*
X60891011Y-91860492D02*
G75*
G02X60256000Y-91737000I-27011J1555492D01*
G01*
X65919000Y-90305000D02*
G75*
G03X65919000Y-90305000I-1555000J0D01*
G01*
X69419000Y-90305000D02*
G75*
G03X69419000Y-90305000I-1555000J0D01*
G01*
X72919000Y-90305000D02*
G75*
G03X72919000Y-90305000I-1555000J0D01*
G01*
X76419000Y-90305000D02*
G75*
G03X76419000Y-90305000I-1555000J0D01*
G01*
X79919000Y-90305000D02*
G75*
G03X79919000Y-90305000I-1555000J0D01*
G01*
X83419000Y-90305000D02*
G75*
G03X83419000Y-90305000I-1555000J0D01*
G01*
X86919000Y-90305000D02*
G75*
G03X86919000Y-90305000I-1555000J0D01*
G01*
X90419000Y-90305000D02*
G75*
G03X90419000Y-90305000I-1555000J0D01*
G01*
X58704000Y-92405000D02*
X91024000Y-92405000D01*
X58704000Y-86845000D02*
X91024000Y-86845000D01*
X58704000Y-93965000D02*
X91024000Y-93965000D01*
X58704000Y-86845000D02*
X58704000Y-93965000D01*
X91024000Y-86845000D02*
X91024000Y-93965000D01*
X58464000Y-92465000D02*
X58464000Y-94205000D01*
X58464000Y-94205000D02*
X59964000Y-94205000D01*
X109731587Y-63796385D02*
G75*
G02X109124000Y-63920000I-607587J1431385D01*
G01*
X110556109Y-61757258D02*
G75*
G02X110556000Y-62973000I-1432109J-607742D01*
G01*
X108516258Y-60932891D02*
G75*
G02X109732000Y-60933000I607742J-1432109D01*
G01*
X107691891Y-62972742D02*
G75*
G02X107692000Y-61757000I1432109J607742D01*
G01*
X109151011Y-63920492D02*
G75*
G02X108516000Y-63797000I-27011J1555492D01*
G01*
X114179000Y-62365000D02*
G75*
G03X114179000Y-62365000I-1555000J0D01*
G01*
X117679000Y-62365000D02*
G75*
G03X117679000Y-62365000I-1555000J0D01*
G01*
X121179000Y-62365000D02*
G75*
G03X121179000Y-62365000I-1555000J0D01*
G01*
X124679000Y-62365000D02*
G75*
G03X124679000Y-62365000I-1555000J0D01*
G01*
X128179000Y-62365000D02*
G75*
G03X128179000Y-62365000I-1555000J0D01*
G01*
X131679000Y-62365000D02*
G75*
G03X131679000Y-62365000I-1555000J0D01*
G01*
X135179000Y-62365000D02*
G75*
G03X135179000Y-62365000I-1555000J0D01*
G01*
X138679000Y-62365000D02*
G75*
G03X138679000Y-62365000I-1555000J0D01*
G01*
X106964000Y-64465000D02*
X139284000Y-64465000D01*
X106964000Y-58905000D02*
X139284000Y-58905000D01*
X106964000Y-66025000D02*
X139284000Y-66025000D01*
X106964000Y-58905000D02*
X106964000Y-66025000D01*
X139284000Y-58905000D02*
X139284000Y-66025000D01*
X106724000Y-64525000D02*
X106724000Y-66265000D01*
X106724000Y-66265000D02*
X108224000Y-66265000D01*
X134614000Y-106427000D02*
X134614000Y-109027000D01*
X134614000Y-106427000D02*
X111634000Y-106427000D01*
X111634000Y-106427000D02*
X111634000Y-111627000D01*
X132014000Y-111627000D02*
X111634000Y-111627000D01*
X132014000Y-109027000D02*
X132014000Y-111627000D01*
X134614000Y-109027000D02*
X132014000Y-109027000D01*
X134614000Y-111627000D02*
X133284000Y-111627000D01*
X134614000Y-110297000D02*
X134614000Y-111627000D01*
X86354000Y-106427000D02*
X86354000Y-109027000D01*
X86354000Y-106427000D02*
X63374000Y-106427000D01*
X63374000Y-106427000D02*
X63374000Y-111627000D01*
X83754000Y-111627000D02*
X63374000Y-111627000D01*
X83754000Y-109027000D02*
X83754000Y-111627000D01*
X86354000Y-109027000D02*
X83754000Y-109027000D01*
X86354000Y-111627000D02*
X85024000Y-111627000D01*
X86354000Y-110297000D02*
X86354000Y-111627000D01*
X134614000Y-78487000D02*
X134614000Y-81087000D01*
X134614000Y-78487000D02*
X111634000Y-78487000D01*
X111634000Y-78487000D02*
X111634000Y-83687000D01*
X132014000Y-83687000D02*
X111634000Y-83687000D01*
X132014000Y-81087000D02*
X132014000Y-83687000D01*
X134614000Y-81087000D02*
X132014000Y-81087000D01*
X134614000Y-83687000D02*
X133284000Y-83687000D01*
X134614000Y-82357000D02*
X134614000Y-83687000D01*
X86354000Y-78487000D02*
X86354000Y-81087000D01*
X86354000Y-78487000D02*
X63374000Y-78487000D01*
X63374000Y-78487000D02*
X63374000Y-83687000D01*
X83754000Y-83687000D02*
X63374000Y-83687000D01*
X83754000Y-81087000D02*
X83754000Y-83687000D01*
X86354000Y-81087000D02*
X83754000Y-81087000D01*
X86354000Y-83687000D02*
X85024000Y-83687000D01*
X86354000Y-82357000D02*
X86354000Y-83687000D01*
X134614000Y-50547000D02*
X134614000Y-53147000D01*
X134614000Y-50547000D02*
X111634000Y-50547000D01*
X111634000Y-50547000D02*
X111634000Y-55747000D01*
X132014000Y-55747000D02*
X111634000Y-55747000D01*
X132014000Y-53147000D02*
X132014000Y-55747000D01*
X134614000Y-53147000D02*
X132014000Y-53147000D01*
X134614000Y-55747000D02*
X133284000Y-55747000D01*
X134614000Y-54417000D02*
X134614000Y-55747000D01*
D12*
G36*
X59864814Y-48395931D02*
G01*
X59948635Y-48840555D01*
X60257920Y-48968053D01*
X60567206Y-49095551D01*
X60938246Y-48843246D01*
X61042157Y-48772996D01*
X61136087Y-48710272D01*
X61215652Y-48657938D01*
X61276470Y-48618857D01*
X61314157Y-48595893D01*
X61324421Y-48590942D01*
X61342910Y-48603676D01*
X61382420Y-48638882D01*
X61438522Y-48692062D01*
X61506787Y-48758718D01*
X61582786Y-48834354D01*
X61662092Y-48914472D01*
X61740275Y-48994574D01*
X61812907Y-49070164D01*
X61875559Y-49136745D01*
X61923803Y-49189818D01*
X61953210Y-49224887D01*
X61960241Y-49236623D01*
X61950123Y-49258260D01*
X61921759Y-49305662D01*
X61878129Y-49374193D01*
X61822218Y-49459215D01*
X61757006Y-49556093D01*
X61719219Y-49611350D01*
X61650343Y-49712248D01*
X61589140Y-49803299D01*
X61538578Y-49879970D01*
X61501628Y-49937728D01*
X61481258Y-49972043D01*
X61478197Y-49979254D01*
X61485136Y-49999748D01*
X61504051Y-50047513D01*
X61532087Y-50115832D01*
X61566391Y-50197989D01*
X61604109Y-50287270D01*
X61642387Y-50376958D01*
X61678370Y-50460338D01*
X61709206Y-50530694D01*
X61732039Y-50581310D01*
X61744017Y-50605471D01*
X61744724Y-50606422D01*
X61763531Y-50611036D01*
X61813618Y-50621328D01*
X61889793Y-50636287D01*
X61986865Y-50654901D01*
X62099643Y-50676159D01*
X62165442Y-50688418D01*
X62285950Y-50711362D01*
X62394797Y-50733195D01*
X62486476Y-50752722D01*
X62555481Y-50768748D01*
X62596304Y-50780079D01*
X62604511Y-50783674D01*
X62612548Y-50808006D01*
X62619033Y-50862959D01*
X62623970Y-50942108D01*
X62627364Y-51039026D01*
X62629218Y-51147287D01*
X62629538Y-51260465D01*
X62628327Y-51372135D01*
X62625590Y-51475868D01*
X62621331Y-51565241D01*
X62615555Y-51633826D01*
X62608267Y-51675197D01*
X62603895Y-51683810D01*
X62577764Y-51694133D01*
X62522393Y-51708892D01*
X62445107Y-51726352D01*
X62353230Y-51744780D01*
X62321158Y-51750741D01*
X62166524Y-51779066D01*
X62044375Y-51801876D01*
X61950673Y-51820080D01*
X61881384Y-51834583D01*
X61832471Y-51846292D01*
X61799897Y-51856115D01*
X61779628Y-51864956D01*
X61767626Y-51873724D01*
X61765947Y-51875457D01*
X61749184Y-51903371D01*
X61723614Y-51957695D01*
X61691788Y-52031777D01*
X61656260Y-52118965D01*
X61619583Y-52212608D01*
X61584311Y-52306052D01*
X61552996Y-52392647D01*
X61528193Y-52465740D01*
X61512454Y-52518678D01*
X61508332Y-52544811D01*
X61508676Y-52545726D01*
X61522641Y-52567086D01*
X61554322Y-52614084D01*
X61600391Y-52681827D01*
X61657518Y-52765423D01*
X61722373Y-52859982D01*
X61740843Y-52886854D01*
X61806699Y-52984275D01*
X61864650Y-53073163D01*
X61911538Y-53148412D01*
X61944207Y-53204920D01*
X61959500Y-53237581D01*
X61960241Y-53241593D01*
X61947392Y-53262684D01*
X61911888Y-53304464D01*
X61858293Y-53362445D01*
X61791171Y-53432135D01*
X61715087Y-53509045D01*
X61634604Y-53588683D01*
X61554287Y-53666561D01*
X61478699Y-53738186D01*
X61412405Y-53799070D01*
X61359969Y-53844721D01*
X61325955Y-53870650D01*
X61316545Y-53874883D01*
X61294643Y-53864912D01*
X61249800Y-53838020D01*
X61189321Y-53798736D01*
X61142789Y-53767117D01*
X61058475Y-53709098D01*
X60958626Y-53640784D01*
X60858473Y-53572579D01*
X60804627Y-53536075D01*
X60622371Y-53412800D01*
X60469381Y-53495520D01*
X60399682Y-53531759D01*
X60340414Y-53559926D01*
X60300311Y-53575991D01*
X60290103Y-53578226D01*
X60277829Y-53561722D01*
X60253613Y-53515082D01*
X60219263Y-53442609D01*
X60176588Y-53348606D01*
X60127394Y-53237374D01*
X60073490Y-53113215D01*
X60016684Y-52980432D01*
X59958782Y-52843327D01*
X59901593Y-52706202D01*
X59846924Y-52573358D01*
X59796584Y-52449098D01*
X59752380Y-52337725D01*
X59716119Y-52243539D01*
X59689609Y-52170844D01*
X59674658Y-52123941D01*
X59672254Y-52107833D01*
X59691311Y-52087286D01*
X59733036Y-52053933D01*
X59788706Y-52014702D01*
X59793378Y-52011599D01*
X59937264Y-51896423D01*
X60053283Y-51762053D01*
X60140430Y-51612784D01*
X60197699Y-51452913D01*
X60224086Y-51286737D01*
X60218585Y-51118552D01*
X60180190Y-50952655D01*
X60107895Y-50793342D01*
X60086626Y-50758487D01*
X59975996Y-50617737D01*
X59845302Y-50504714D01*
X59699064Y-50420003D01*
X59541808Y-50364194D01*
X59378057Y-50337874D01*
X59212333Y-50341630D01*
X59049162Y-50376050D01*
X58893065Y-50441723D01*
X58748567Y-50539235D01*
X58703869Y-50578813D01*
X58590112Y-50702703D01*
X58507218Y-50833124D01*
X58450356Y-50979315D01*
X58418687Y-51124088D01*
X58410869Y-51286860D01*
X58436938Y-51450440D01*
X58494245Y-51609298D01*
X58580144Y-51757906D01*
X58691986Y-51890735D01*
X58827123Y-52002256D01*
X58844883Y-52014011D01*
X58901150Y-52052508D01*
X58943923Y-52085863D01*
X58964372Y-52107160D01*
X58964669Y-52107833D01*
X58960279Y-52130871D01*
X58942876Y-52183157D01*
X58914268Y-52260390D01*
X58876265Y-52358268D01*
X58830674Y-52472491D01*
X58779303Y-52598758D01*
X58723962Y-52732767D01*
X58666458Y-52870218D01*
X58608601Y-53006808D01*
X58552198Y-53138237D01*
X58499058Y-53260205D01*
X58450990Y-53368409D01*
X58409801Y-53458549D01*
X58377301Y-53526323D01*
X58355297Y-53567430D01*
X58346436Y-53578226D01*
X58319360Y-53569819D01*
X58268697Y-53547272D01*
X58203183Y-53514613D01*
X58167159Y-53495520D01*
X58014168Y-53412800D01*
X57831912Y-53536075D01*
X57738875Y-53599228D01*
X57637015Y-53668727D01*
X57541562Y-53734165D01*
X57493750Y-53767117D01*
X57426505Y-53812273D01*
X57369564Y-53848057D01*
X57330354Y-53869938D01*
X57317619Y-53874563D01*
X57299083Y-53862085D01*
X57258059Y-53827252D01*
X57198525Y-53773678D01*
X57124458Y-53704983D01*
X57039835Y-53624781D01*
X56986315Y-53573286D01*
X56892681Y-53481286D01*
X56811759Y-53398999D01*
X56746823Y-53329945D01*
X56701142Y-53277644D01*
X56677989Y-53245616D01*
X56675768Y-53239116D01*
X56686076Y-53214394D01*
X56714561Y-53164405D01*
X56758063Y-53094212D01*
X56813423Y-53008875D01*
X56877480Y-52913456D01*
X56895697Y-52886854D01*
X56962073Y-52790167D01*
X57021622Y-52703117D01*
X57071016Y-52630595D01*
X57106925Y-52577493D01*
X57126019Y-52548703D01*
X57127864Y-52545726D01*
X57125105Y-52522782D01*
X57110462Y-52472336D01*
X57086487Y-52401041D01*
X57055734Y-52315547D01*
X57020756Y-52222507D01*
X56984107Y-52128574D01*
X56948339Y-52040399D01*
X56916006Y-51964634D01*
X56889662Y-51907931D01*
X56871858Y-51876943D01*
X56870593Y-51875457D01*
X56859706Y-51866601D01*
X56841318Y-51857843D01*
X56811394Y-51848277D01*
X56765897Y-51836996D01*
X56700791Y-51823093D01*
X56612039Y-51805663D01*
X56495607Y-51783798D01*
X56347458Y-51756591D01*
X56315382Y-51750741D01*
X56220314Y-51732374D01*
X56137435Y-51714405D01*
X56074070Y-51698569D01*
X56037542Y-51686600D01*
X56032644Y-51683810D01*
X56024573Y-51659072D01*
X56018013Y-51603790D01*
X56012967Y-51524389D01*
X56009441Y-51427296D01*
X56007439Y-51318938D01*
X56006964Y-51205740D01*
X56008023Y-51094128D01*
X56010618Y-50990529D01*
X56014754Y-50901368D01*
X56020437Y-50833072D01*
X56027669Y-50792066D01*
X56032029Y-50783674D01*
X56056302Y-50775208D01*
X56111574Y-50761435D01*
X56192338Y-50743550D01*
X56293088Y-50722748D01*
X56408317Y-50700223D01*
X56471098Y-50688418D01*
X56590213Y-50666151D01*
X56696435Y-50645979D01*
X56784573Y-50628915D01*
X56849434Y-50615969D01*
X56885826Y-50608155D01*
X56891816Y-50606422D01*
X56901939Y-50586890D01*
X56923338Y-50539843D01*
X56953161Y-50472003D01*
X56988555Y-50390091D01*
X57026668Y-50300828D01*
X57064647Y-50210935D01*
X57099640Y-50127135D01*
X57128794Y-50056147D01*
X57149257Y-50004694D01*
X57158177Y-49979497D01*
X57158343Y-49978396D01*
X57148231Y-49958519D01*
X57119883Y-49912777D01*
X57076277Y-49845717D01*
X57020394Y-49761884D01*
X56955213Y-49665826D01*
X56917321Y-49610650D01*
X56848275Y-49509481D01*
X56786950Y-49417630D01*
X56736337Y-49339744D01*
X56699429Y-49280469D01*
X56679218Y-49244451D01*
X56676299Y-49236377D01*
X56688847Y-49217584D01*
X56723537Y-49177457D01*
X56775937Y-49120493D01*
X56841616Y-49051185D01*
X56916144Y-48974031D01*
X56995087Y-48893525D01*
X57074017Y-48814163D01*
X57148500Y-48740440D01*
X57214106Y-48676852D01*
X57266404Y-48627894D01*
X57300961Y-48598061D01*
X57312522Y-48590942D01*
X57331346Y-48600953D01*
X57376369Y-48629078D01*
X57443213Y-48672454D01*
X57527501Y-48728218D01*
X57624856Y-48793506D01*
X57698293Y-48843246D01*
X58069333Y-49095551D01*
X58687905Y-48840555D01*
X58771725Y-48395931D01*
X58855546Y-47951307D01*
X59780994Y-47951307D01*
X59864814Y-48395931D01*
G37*
X59864814Y-48395931D02*
X59948635Y-48840555D01*
X60257920Y-48968053D01*
X60567206Y-49095551D01*
X60938246Y-48843246D01*
X61042157Y-48772996D01*
X61136087Y-48710272D01*
X61215652Y-48657938D01*
X61276470Y-48618857D01*
X61314157Y-48595893D01*
X61324421Y-48590942D01*
X61342910Y-48603676D01*
X61382420Y-48638882D01*
X61438522Y-48692062D01*
X61506787Y-48758718D01*
X61582786Y-48834354D01*
X61662092Y-48914472D01*
X61740275Y-48994574D01*
X61812907Y-49070164D01*
X61875559Y-49136745D01*
X61923803Y-49189818D01*
X61953210Y-49224887D01*
X61960241Y-49236623D01*
X61950123Y-49258260D01*
X61921759Y-49305662D01*
X61878129Y-49374193D01*
X61822218Y-49459215D01*
X61757006Y-49556093D01*
X61719219Y-49611350D01*
X61650343Y-49712248D01*
X61589140Y-49803299D01*
X61538578Y-49879970D01*
X61501628Y-49937728D01*
X61481258Y-49972043D01*
X61478197Y-49979254D01*
X61485136Y-49999748D01*
X61504051Y-50047513D01*
X61532087Y-50115832D01*
X61566391Y-50197989D01*
X61604109Y-50287270D01*
X61642387Y-50376958D01*
X61678370Y-50460338D01*
X61709206Y-50530694D01*
X61732039Y-50581310D01*
X61744017Y-50605471D01*
X61744724Y-50606422D01*
X61763531Y-50611036D01*
X61813618Y-50621328D01*
X61889793Y-50636287D01*
X61986865Y-50654901D01*
X62099643Y-50676159D01*
X62165442Y-50688418D01*
X62285950Y-50711362D01*
X62394797Y-50733195D01*
X62486476Y-50752722D01*
X62555481Y-50768748D01*
X62596304Y-50780079D01*
X62604511Y-50783674D01*
X62612548Y-50808006D01*
X62619033Y-50862959D01*
X62623970Y-50942108D01*
X62627364Y-51039026D01*
X62629218Y-51147287D01*
X62629538Y-51260465D01*
X62628327Y-51372135D01*
X62625590Y-51475868D01*
X62621331Y-51565241D01*
X62615555Y-51633826D01*
X62608267Y-51675197D01*
X62603895Y-51683810D01*
X62577764Y-51694133D01*
X62522393Y-51708892D01*
X62445107Y-51726352D01*
X62353230Y-51744780D01*
X62321158Y-51750741D01*
X62166524Y-51779066D01*
X62044375Y-51801876D01*
X61950673Y-51820080D01*
X61881384Y-51834583D01*
X61832471Y-51846292D01*
X61799897Y-51856115D01*
X61779628Y-51864956D01*
X61767626Y-51873724D01*
X61765947Y-51875457D01*
X61749184Y-51903371D01*
X61723614Y-51957695D01*
X61691788Y-52031777D01*
X61656260Y-52118965D01*
X61619583Y-52212608D01*
X61584311Y-52306052D01*
X61552996Y-52392647D01*
X61528193Y-52465740D01*
X61512454Y-52518678D01*
X61508332Y-52544811D01*
X61508676Y-52545726D01*
X61522641Y-52567086D01*
X61554322Y-52614084D01*
X61600391Y-52681827D01*
X61657518Y-52765423D01*
X61722373Y-52859982D01*
X61740843Y-52886854D01*
X61806699Y-52984275D01*
X61864650Y-53073163D01*
X61911538Y-53148412D01*
X61944207Y-53204920D01*
X61959500Y-53237581D01*
X61960241Y-53241593D01*
X61947392Y-53262684D01*
X61911888Y-53304464D01*
X61858293Y-53362445D01*
X61791171Y-53432135D01*
X61715087Y-53509045D01*
X61634604Y-53588683D01*
X61554287Y-53666561D01*
X61478699Y-53738186D01*
X61412405Y-53799070D01*
X61359969Y-53844721D01*
X61325955Y-53870650D01*
X61316545Y-53874883D01*
X61294643Y-53864912D01*
X61249800Y-53838020D01*
X61189321Y-53798736D01*
X61142789Y-53767117D01*
X61058475Y-53709098D01*
X60958626Y-53640784D01*
X60858473Y-53572579D01*
X60804627Y-53536075D01*
X60622371Y-53412800D01*
X60469381Y-53495520D01*
X60399682Y-53531759D01*
X60340414Y-53559926D01*
X60300311Y-53575991D01*
X60290103Y-53578226D01*
X60277829Y-53561722D01*
X60253613Y-53515082D01*
X60219263Y-53442609D01*
X60176588Y-53348606D01*
X60127394Y-53237374D01*
X60073490Y-53113215D01*
X60016684Y-52980432D01*
X59958782Y-52843327D01*
X59901593Y-52706202D01*
X59846924Y-52573358D01*
X59796584Y-52449098D01*
X59752380Y-52337725D01*
X59716119Y-52243539D01*
X59689609Y-52170844D01*
X59674658Y-52123941D01*
X59672254Y-52107833D01*
X59691311Y-52087286D01*
X59733036Y-52053933D01*
X59788706Y-52014702D01*
X59793378Y-52011599D01*
X59937264Y-51896423D01*
X60053283Y-51762053D01*
X60140430Y-51612784D01*
X60197699Y-51452913D01*
X60224086Y-51286737D01*
X60218585Y-51118552D01*
X60180190Y-50952655D01*
X60107895Y-50793342D01*
X60086626Y-50758487D01*
X59975996Y-50617737D01*
X59845302Y-50504714D01*
X59699064Y-50420003D01*
X59541808Y-50364194D01*
X59378057Y-50337874D01*
X59212333Y-50341630D01*
X59049162Y-50376050D01*
X58893065Y-50441723D01*
X58748567Y-50539235D01*
X58703869Y-50578813D01*
X58590112Y-50702703D01*
X58507218Y-50833124D01*
X58450356Y-50979315D01*
X58418687Y-51124088D01*
X58410869Y-51286860D01*
X58436938Y-51450440D01*
X58494245Y-51609298D01*
X58580144Y-51757906D01*
X58691986Y-51890735D01*
X58827123Y-52002256D01*
X58844883Y-52014011D01*
X58901150Y-52052508D01*
X58943923Y-52085863D01*
X58964372Y-52107160D01*
X58964669Y-52107833D01*
X58960279Y-52130871D01*
X58942876Y-52183157D01*
X58914268Y-52260390D01*
X58876265Y-52358268D01*
X58830674Y-52472491D01*
X58779303Y-52598758D01*
X58723962Y-52732767D01*
X58666458Y-52870218D01*
X58608601Y-53006808D01*
X58552198Y-53138237D01*
X58499058Y-53260205D01*
X58450990Y-53368409D01*
X58409801Y-53458549D01*
X58377301Y-53526323D01*
X58355297Y-53567430D01*
X58346436Y-53578226D01*
X58319360Y-53569819D01*
X58268697Y-53547272D01*
X58203183Y-53514613D01*
X58167159Y-53495520D01*
X58014168Y-53412800D01*
X57831912Y-53536075D01*
X57738875Y-53599228D01*
X57637015Y-53668727D01*
X57541562Y-53734165D01*
X57493750Y-53767117D01*
X57426505Y-53812273D01*
X57369564Y-53848057D01*
X57330354Y-53869938D01*
X57317619Y-53874563D01*
X57299083Y-53862085D01*
X57258059Y-53827252D01*
X57198525Y-53773678D01*
X57124458Y-53704983D01*
X57039835Y-53624781D01*
X56986315Y-53573286D01*
X56892681Y-53481286D01*
X56811759Y-53398999D01*
X56746823Y-53329945D01*
X56701142Y-53277644D01*
X56677989Y-53245616D01*
X56675768Y-53239116D01*
X56686076Y-53214394D01*
X56714561Y-53164405D01*
X56758063Y-53094212D01*
X56813423Y-53008875D01*
X56877480Y-52913456D01*
X56895697Y-52886854D01*
X56962073Y-52790167D01*
X57021622Y-52703117D01*
X57071016Y-52630595D01*
X57106925Y-52577493D01*
X57126019Y-52548703D01*
X57127864Y-52545726D01*
X57125105Y-52522782D01*
X57110462Y-52472336D01*
X57086487Y-52401041D01*
X57055734Y-52315547D01*
X57020756Y-52222507D01*
X56984107Y-52128574D01*
X56948339Y-52040399D01*
X56916006Y-51964634D01*
X56889662Y-51907931D01*
X56871858Y-51876943D01*
X56870593Y-51875457D01*
X56859706Y-51866601D01*
X56841318Y-51857843D01*
X56811394Y-51848277D01*
X56765897Y-51836996D01*
X56700791Y-51823093D01*
X56612039Y-51805663D01*
X56495607Y-51783798D01*
X56347458Y-51756591D01*
X56315382Y-51750741D01*
X56220314Y-51732374D01*
X56137435Y-51714405D01*
X56074070Y-51698569D01*
X56037542Y-51686600D01*
X56032644Y-51683810D01*
X56024573Y-51659072D01*
X56018013Y-51603790D01*
X56012967Y-51524389D01*
X56009441Y-51427296D01*
X56007439Y-51318938D01*
X56006964Y-51205740D01*
X56008023Y-51094128D01*
X56010618Y-50990529D01*
X56014754Y-50901368D01*
X56020437Y-50833072D01*
X56027669Y-50792066D01*
X56032029Y-50783674D01*
X56056302Y-50775208D01*
X56111574Y-50761435D01*
X56192338Y-50743550D01*
X56293088Y-50722748D01*
X56408317Y-50700223D01*
X56471098Y-50688418D01*
X56590213Y-50666151D01*
X56696435Y-50645979D01*
X56784573Y-50628915D01*
X56849434Y-50615969D01*
X56885826Y-50608155D01*
X56891816Y-50606422D01*
X56901939Y-50586890D01*
X56923338Y-50539843D01*
X56953161Y-50472003D01*
X56988555Y-50390091D01*
X57026668Y-50300828D01*
X57064647Y-50210935D01*
X57099640Y-50127135D01*
X57128794Y-50056147D01*
X57149257Y-50004694D01*
X57158177Y-49979497D01*
X57158343Y-49978396D01*
X57148231Y-49958519D01*
X57119883Y-49912777D01*
X57076277Y-49845717D01*
X57020394Y-49761884D01*
X56955213Y-49665826D01*
X56917321Y-49610650D01*
X56848275Y-49509481D01*
X56786950Y-49417630D01*
X56736337Y-49339744D01*
X56699429Y-49280469D01*
X56679218Y-49244451D01*
X56676299Y-49236377D01*
X56688847Y-49217584D01*
X56723537Y-49177457D01*
X56775937Y-49120493D01*
X56841616Y-49051185D01*
X56916144Y-48974031D01*
X56995087Y-48893525D01*
X57074017Y-48814163D01*
X57148500Y-48740440D01*
X57214106Y-48676852D01*
X57266404Y-48627894D01*
X57300961Y-48598061D01*
X57312522Y-48590942D01*
X57331346Y-48600953D01*
X57376369Y-48629078D01*
X57443213Y-48672454D01*
X57527501Y-48728218D01*
X57624856Y-48793506D01*
X57698293Y-48843246D01*
X58069333Y-49095551D01*
X58687905Y-48840555D01*
X58771725Y-48395931D01*
X58855546Y-47951307D01*
X59780994Y-47951307D01*
X59864814Y-48395931D01*
D13*
X91264000Y-40034000D02*
X89764000Y-40034000D01*
X91264000Y-41774000D02*
X91264000Y-40034000D01*
X58704000Y-47394000D02*
X58704000Y-40274000D01*
X91024000Y-47394000D02*
X91024000Y-40274000D01*
X91024000Y-40274000D02*
X58704000Y-40274000D01*
X91024000Y-47394000D02*
X58704000Y-47394000D01*
X91024000Y-41834000D02*
X58704000Y-41834000D01*
X62419000Y-43934000D02*
G75*
G03X62419000Y-43934000I-1555000J0D01*
G01*
X65919000Y-43934000D02*
G75*
G03X65919000Y-43934000I-1555000J0D01*
G01*
X69419000Y-43934000D02*
G75*
G03X69419000Y-43934000I-1555000J0D01*
G01*
X72919000Y-43934000D02*
G75*
G03X72919000Y-43934000I-1555000J0D01*
G01*
X76419000Y-43934000D02*
G75*
G03X76419000Y-43934000I-1555000J0D01*
G01*
X79919000Y-43934000D02*
G75*
G03X79919000Y-43934000I-1555000J0D01*
G01*
X83419000Y-43934000D02*
G75*
G03X83419000Y-43934000I-1555000J0D01*
G01*
X86919000Y-43934000D02*
G75*
G03X86919000Y-43934000I-1555000J0D01*
G01*
X88836989Y-42378508D02*
G75*
G02X89472000Y-42502000I27011J-1555492D01*
G01*
X90296109Y-43326258D02*
G75*
G02X90296000Y-44542000I-1432109J-607742D01*
G01*
X89471742Y-45366109D02*
G75*
G02X88256000Y-45366000I-607742J1432109D01*
G01*
X87431891Y-44541742D02*
G75*
G02X87432000Y-43326000I1432109J607742D01*
G01*
X88256413Y-42502615D02*
G75*
G02X88864000Y-42379000I607587J-1431385D01*
G01*
X58464000Y-66265000D02*
X59964000Y-66265000D01*
X58464000Y-64525000D02*
X58464000Y-66265000D01*
X91024000Y-58905000D02*
X91024000Y-66025000D01*
X58704000Y-58905000D02*
X58704000Y-66025000D01*
X58704000Y-66025000D02*
X91024000Y-66025000D01*
X58704000Y-58905000D02*
X91024000Y-58905000D01*
X58704000Y-64465000D02*
X91024000Y-64465000D01*
X90419000Y-62365000D02*
G75*
G03X90419000Y-62365000I-1555000J0D01*
G01*
X86919000Y-62365000D02*
G75*
G03X86919000Y-62365000I-1555000J0D01*
G01*
X83419000Y-62365000D02*
G75*
G03X83419000Y-62365000I-1555000J0D01*
G01*
X79919000Y-62365000D02*
G75*
G03X79919000Y-62365000I-1555000J0D01*
G01*
X76419000Y-62365000D02*
G75*
G03X76419000Y-62365000I-1555000J0D01*
G01*
X72919000Y-62365000D02*
G75*
G03X72919000Y-62365000I-1555000J0D01*
G01*
X69419000Y-62365000D02*
G75*
G03X69419000Y-62365000I-1555000J0D01*
G01*
X65919000Y-62365000D02*
G75*
G03X65919000Y-62365000I-1555000J0D01*
G01*
X60891011Y-63920492D02*
G75*
G02X60256000Y-63797000I-27011J1555492D01*
G01*
X59431891Y-62972742D02*
G75*
G02X59432000Y-61757000I1432109J607742D01*
G01*
X60256258Y-60932891D02*
G75*
G02X61472000Y-60933000I607742J-1432109D01*
G01*
X62296109Y-61757258D02*
G75*
G02X62296000Y-62973000I-1432109J-607742D01*
G01*
X61471587Y-63796385D02*
G75*
G02X60864000Y-63920000I-607587J1431385D01*
G01*
X86354000Y-54417000D02*
X86354000Y-55747000D01*
X86354000Y-55747000D02*
X85024000Y-55747000D01*
X86354000Y-53147000D02*
X83754000Y-53147000D01*
X83754000Y-53147000D02*
X83754000Y-55747000D01*
X83754000Y-55747000D02*
X63374000Y-55747000D01*
X63374000Y-50547000D02*
X63374000Y-55747000D01*
X86354000Y-50547000D02*
X63374000Y-50547000D01*
X86354000Y-50547000D02*
X86354000Y-53147000D01*
D10*
X122790666Y-103726380D02*
X122790666Y-104440666D01*
X122743047Y-104583523D01*
X122647809Y-104678761D01*
X122504952Y-104726380D01*
X122409714Y-104726380D01*
X123171619Y-103726380D02*
X123790666Y-103726380D01*
X123457333Y-104107333D01*
X123600190Y-104107333D01*
X123695428Y-104154952D01*
X123743047Y-104202571D01*
X123790666Y-104297809D01*
X123790666Y-104535904D01*
X123743047Y-104631142D01*
X123695428Y-104678761D01*
X123600190Y-104726380D01*
X123314476Y-104726380D01*
X123219238Y-104678761D01*
X123171619Y-104631142D01*
X74530666Y-103726380D02*
X74530666Y-104440666D01*
X74483047Y-104583523D01*
X74387809Y-104678761D01*
X74244952Y-104726380D01*
X74149714Y-104726380D01*
X74911619Y-103726380D02*
X75530666Y-103726380D01*
X75197333Y-104107333D01*
X75340190Y-104107333D01*
X75435428Y-104154952D01*
X75483047Y-104202571D01*
X75530666Y-104297809D01*
X75530666Y-104535904D01*
X75483047Y-104631142D01*
X75435428Y-104678761D01*
X75340190Y-104726380D01*
X75054476Y-104726380D01*
X74959238Y-104678761D01*
X74911619Y-104631142D01*
X122790666Y-75786380D02*
X122790666Y-76500666D01*
X122743047Y-76643523D01*
X122647809Y-76738761D01*
X122504952Y-76786380D01*
X122409714Y-76786380D01*
X123171619Y-75786380D02*
X123790666Y-75786380D01*
X123457333Y-76167333D01*
X123600190Y-76167333D01*
X123695428Y-76214952D01*
X123743047Y-76262571D01*
X123790666Y-76357809D01*
X123790666Y-76595904D01*
X123743047Y-76691142D01*
X123695428Y-76738761D01*
X123600190Y-76786380D01*
X123314476Y-76786380D01*
X123219238Y-76738761D01*
X123171619Y-76691142D01*
X74530666Y-75786380D02*
X74530666Y-76500666D01*
X74483047Y-76643523D01*
X74387809Y-76738761D01*
X74244952Y-76786380D01*
X74149714Y-76786380D01*
X74911619Y-75786380D02*
X75530666Y-75786380D01*
X75197333Y-76167333D01*
X75340190Y-76167333D01*
X75435428Y-76214952D01*
X75483047Y-76262571D01*
X75530666Y-76357809D01*
X75530666Y-76595904D01*
X75483047Y-76691142D01*
X75435428Y-76738761D01*
X75340190Y-76786380D01*
X75054476Y-76786380D01*
X74959238Y-76738761D01*
X74911619Y-76691142D01*
X122790666Y-47846380D02*
X122790666Y-48560666D01*
X122743047Y-48703523D01*
X122647809Y-48798761D01*
X122504952Y-48846380D01*
X122409714Y-48846380D01*
X123171619Y-47846380D02*
X123790666Y-47846380D01*
X123457333Y-48227333D01*
X123600190Y-48227333D01*
X123695428Y-48274952D01*
X123743047Y-48322571D01*
X123790666Y-48417809D01*
X123790666Y-48655904D01*
X123743047Y-48751142D01*
X123695428Y-48798761D01*
X123600190Y-48846380D01*
X123314476Y-48846380D01*
X123219238Y-48798761D01*
X123171619Y-48751142D01*
X122790666Y-113237380D02*
X122790666Y-113951666D01*
X122743047Y-114094523D01*
X122647809Y-114189761D01*
X122504952Y-114237380D01*
X122409714Y-114237380D01*
X123219238Y-113332619D02*
X123266857Y-113285000D01*
X123362095Y-113237380D01*
X123600190Y-113237380D01*
X123695428Y-113285000D01*
X123743047Y-113332619D01*
X123790666Y-113427857D01*
X123790666Y-113523095D01*
X123743047Y-113665952D01*
X123171619Y-114237380D01*
X123790666Y-114237380D01*
X74530666Y-113237380D02*
X74530666Y-113951666D01*
X74483047Y-114094523D01*
X74387809Y-114189761D01*
X74244952Y-114237380D01*
X74149714Y-114237380D01*
X74959238Y-113332619D02*
X75006857Y-113285000D01*
X75102095Y-113237380D01*
X75340190Y-113237380D01*
X75435428Y-113285000D01*
X75483047Y-113332619D01*
X75530666Y-113427857D01*
X75530666Y-113523095D01*
X75483047Y-113665952D01*
X74911619Y-114237380D01*
X75530666Y-114237380D01*
X122790666Y-85297380D02*
X122790666Y-86011666D01*
X122743047Y-86154523D01*
X122647809Y-86249761D01*
X122504952Y-86297380D01*
X122409714Y-86297380D01*
X123219238Y-85392619D02*
X123266857Y-85345000D01*
X123362095Y-85297380D01*
X123600190Y-85297380D01*
X123695428Y-85345000D01*
X123743047Y-85392619D01*
X123790666Y-85487857D01*
X123790666Y-85583095D01*
X123743047Y-85725952D01*
X123171619Y-86297380D01*
X123790666Y-86297380D01*
X74530666Y-85297380D02*
X74530666Y-86011666D01*
X74483047Y-86154523D01*
X74387809Y-86249761D01*
X74244952Y-86297380D01*
X74149714Y-86297380D01*
X74959238Y-85392619D02*
X75006857Y-85345000D01*
X75102095Y-85297380D01*
X75340190Y-85297380D01*
X75435428Y-85345000D01*
X75483047Y-85392619D01*
X75530666Y-85487857D01*
X75530666Y-85583095D01*
X75483047Y-85725952D01*
X74911619Y-86297380D01*
X75530666Y-86297380D01*
X122790666Y-57357380D02*
X122790666Y-58071666D01*
X122743047Y-58214523D01*
X122647809Y-58309761D01*
X122504952Y-58357380D01*
X122409714Y-58357380D01*
X123219238Y-57452619D02*
X123266857Y-57405000D01*
X123362095Y-57357380D01*
X123600190Y-57357380D01*
X123695428Y-57405000D01*
X123743047Y-57452619D01*
X123790666Y-57547857D01*
X123790666Y-57643095D01*
X123743047Y-57785952D01*
X123171619Y-58357380D01*
X123790666Y-58357380D01*
X135506380Y-109360333D02*
X136220666Y-109360333D01*
X136363523Y-109407952D01*
X136458761Y-109503190D01*
X136506380Y-109646047D01*
X136506380Y-109741285D01*
X135839714Y-108455571D02*
X136506380Y-108455571D01*
X135458761Y-108693666D02*
X136173047Y-108931761D01*
X136173047Y-108312714D01*
X87246380Y-109360333D02*
X87960666Y-109360333D01*
X88103523Y-109407952D01*
X88198761Y-109503190D01*
X88246380Y-109646047D01*
X88246380Y-109741285D01*
X87579714Y-108455571D02*
X88246380Y-108455571D01*
X87198761Y-108693666D02*
X87913047Y-108931761D01*
X87913047Y-108312714D01*
X135506380Y-81420333D02*
X136220666Y-81420333D01*
X136363523Y-81467952D01*
X136458761Y-81563190D01*
X136506380Y-81706047D01*
X136506380Y-81801285D01*
X135839714Y-80515571D02*
X136506380Y-80515571D01*
X135458761Y-80753666D02*
X136173047Y-80991761D01*
X136173047Y-80372714D01*
X87246380Y-81420333D02*
X87960666Y-81420333D01*
X88103523Y-81467952D01*
X88198761Y-81563190D01*
X88246380Y-81706047D01*
X88246380Y-81801285D01*
X87579714Y-80515571D02*
X88246380Y-80515571D01*
X87198761Y-80753666D02*
X87913047Y-80991761D01*
X87913047Y-80372714D01*
X135506380Y-53480333D02*
X136220666Y-53480333D01*
X136363523Y-53527952D01*
X136458761Y-53623190D01*
X136506380Y-53766047D01*
X136506380Y-53861285D01*
X135839714Y-52575571D02*
X136506380Y-52575571D01*
X135458761Y-52813666D02*
X136173047Y-53051761D01*
X136173047Y-52432714D01*
X74530666Y-47846380D02*
X74530666Y-48560666D01*
X74483047Y-48703523D01*
X74387809Y-48798761D01*
X74244952Y-48846380D01*
X74149714Y-48846380D01*
X74911619Y-47846380D02*
X75530666Y-47846380D01*
X75197333Y-48227333D01*
X75340190Y-48227333D01*
X75435428Y-48274952D01*
X75483047Y-48322571D01*
X75530666Y-48417809D01*
X75530666Y-48655904D01*
X75483047Y-48751142D01*
X75435428Y-48798761D01*
X75340190Y-48846380D01*
X75054476Y-48846380D01*
X74959238Y-48798761D01*
X74911619Y-48751142D01*
X74530666Y-57357380D02*
X74530666Y-58071666D01*
X74483047Y-58214523D01*
X74387809Y-58309761D01*
X74244952Y-58357380D01*
X74149714Y-58357380D01*
X74959238Y-57452619D02*
X75006857Y-57405000D01*
X75102095Y-57357380D01*
X75340190Y-57357380D01*
X75435428Y-57405000D01*
X75483047Y-57452619D01*
X75530666Y-57547857D01*
X75530666Y-57643095D01*
X75483047Y-57785952D01*
X74911619Y-58357380D01*
X75530666Y-58357380D01*
X87246380Y-53480333D02*
X87960666Y-53480333D01*
X88103523Y-53527952D01*
X88198761Y-53623190D01*
X88246380Y-53766047D01*
X88246380Y-53861285D01*
X87579714Y-52575571D02*
X88246380Y-52575571D01*
X87198761Y-52813666D02*
X87913047Y-53051761D01*
X87913047Y-52432714D01*
M02*
