G04 #@! TF.GenerationSoftware,KiCad,Pcbnew,5.1.5-52549c5~86~ubuntu18.04.1*
G04 #@! TF.CreationDate,2020-09-24T16:46:45-05:00*
G04 #@! TF.ProjectId,C09,4330392e-6b69-4636-9164-5f7063625858,rev?*
G04 #@! TF.SameCoordinates,Original*
G04 #@! TF.FileFunction,Legend,Top*
G04 #@! TF.FilePolarity,Positive*
%FSLAX46Y46*%
G04 Gerber Fmt 4.6, Leading zero omitted, Abs format (unit mm)*
G04 Created by KiCad (PCBNEW 5.1.5-52549c5~86~ubuntu18.04.1) date 2020-09-24 16:46:45*
%MOMM*%
%LPD*%
G04 APERTURE LIST*
%ADD10C,0.150000*%
%ADD11C,0.010000*%
%ADD12C,0.120000*%
G04 APERTURE END LIST*
D10*
X40378666Y-36653742D02*
X40331047Y-36701361D01*
X40188190Y-36748980D01*
X40092952Y-36748980D01*
X39950095Y-36701361D01*
X39854857Y-36606123D01*
X39807238Y-36510885D01*
X39759619Y-36320409D01*
X39759619Y-36177552D01*
X39807238Y-35987076D01*
X39854857Y-35891838D01*
X39950095Y-35796600D01*
X40092952Y-35748980D01*
X40188190Y-35748980D01*
X40331047Y-35796600D01*
X40378666Y-35844219D01*
X40997714Y-35748980D02*
X41092952Y-35748980D01*
X41188190Y-35796600D01*
X41235809Y-35844219D01*
X41283428Y-35939457D01*
X41331047Y-36129933D01*
X41331047Y-36368028D01*
X41283428Y-36558504D01*
X41235809Y-36653742D01*
X41188190Y-36701361D01*
X41092952Y-36748980D01*
X40997714Y-36748980D01*
X40902476Y-36701361D01*
X40854857Y-36653742D01*
X40807238Y-36558504D01*
X40759619Y-36368028D01*
X40759619Y-36129933D01*
X40807238Y-35939457D01*
X40854857Y-35844219D01*
X40902476Y-35796600D01*
X40997714Y-35748980D01*
X41807238Y-36748980D02*
X41997714Y-36748980D01*
X42092952Y-36701361D01*
X42140571Y-36653742D01*
X42235809Y-36510885D01*
X42283428Y-36320409D01*
X42283428Y-35939457D01*
X42235809Y-35844219D01*
X42188190Y-35796600D01*
X42092952Y-35748980D01*
X41902476Y-35748980D01*
X41807238Y-35796600D01*
X41759619Y-35844219D01*
X41712000Y-35939457D01*
X41712000Y-36177552D01*
X41759619Y-36272790D01*
X41807238Y-36320409D01*
X41902476Y-36368028D01*
X42092952Y-36368028D01*
X42188190Y-36320409D01*
X42235809Y-36272790D01*
X42283428Y-36177552D01*
X42473904Y-36844219D02*
X43235809Y-36844219D01*
X43807238Y-36225171D02*
X43950095Y-36272790D01*
X43997714Y-36320409D01*
X44045333Y-36415647D01*
X44045333Y-36558504D01*
X43997714Y-36653742D01*
X43950095Y-36701361D01*
X43854857Y-36748980D01*
X43473904Y-36748980D01*
X43473904Y-35748980D01*
X43807238Y-35748980D01*
X43902476Y-35796600D01*
X43950095Y-35844219D01*
X43997714Y-35939457D01*
X43997714Y-36034695D01*
X43950095Y-36129933D01*
X43902476Y-36177552D01*
X43807238Y-36225171D01*
X43473904Y-36225171D01*
X45045333Y-36748980D02*
X44712000Y-36272790D01*
X44473904Y-36748980D02*
X44473904Y-35748980D01*
X44854857Y-35748980D01*
X44950095Y-35796600D01*
X44997714Y-35844219D01*
X45045333Y-35939457D01*
X45045333Y-36082314D01*
X44997714Y-36177552D01*
X44950095Y-36225171D01*
X44854857Y-36272790D01*
X44473904Y-36272790D01*
X45473904Y-36225171D02*
X45807238Y-36225171D01*
X45950095Y-36748980D02*
X45473904Y-36748980D01*
X45473904Y-35748980D01*
X45950095Y-35748980D01*
X46331047Y-36463266D02*
X46807238Y-36463266D01*
X46235809Y-36748980D02*
X46569142Y-35748980D01*
X46902476Y-36748980D01*
X47235809Y-36748980D02*
X47235809Y-35748980D01*
X47807238Y-36748980D02*
X47378666Y-36177552D01*
X47807238Y-35748980D02*
X47235809Y-36320409D01*
X48426285Y-35748980D02*
X48616761Y-35748980D01*
X48712000Y-35796600D01*
X48807238Y-35891838D01*
X48854857Y-36082314D01*
X48854857Y-36415647D01*
X48807238Y-36606123D01*
X48712000Y-36701361D01*
X48616761Y-36748980D01*
X48426285Y-36748980D01*
X48331047Y-36701361D01*
X48235809Y-36606123D01*
X48188190Y-36415647D01*
X48188190Y-36082314D01*
X48235809Y-35891838D01*
X48331047Y-35796600D01*
X48426285Y-35748980D01*
X49283428Y-35748980D02*
X49283428Y-36558504D01*
X49331047Y-36653742D01*
X49378666Y-36701361D01*
X49473904Y-36748980D01*
X49664380Y-36748980D01*
X49759619Y-36701361D01*
X49807238Y-36653742D01*
X49854857Y-36558504D01*
X49854857Y-35748980D01*
X50188190Y-35748980D02*
X50759619Y-35748980D01*
X50473904Y-36748980D02*
X50473904Y-35748980D01*
X25924047Y-28900428D02*
X26685952Y-28900428D01*
X26305000Y-29281380D02*
X26305000Y-28519476D01*
X27924047Y-28900428D02*
X28685952Y-28900428D01*
X28305000Y-29281380D02*
X28305000Y-28519476D01*
X34052047Y-28849628D02*
X34813952Y-28849628D01*
X36052047Y-28849628D02*
X36813952Y-28849628D01*
D11*
G36*
X45412214Y-28609331D02*
G01*
X45496035Y-29053955D01*
X45805320Y-29181453D01*
X46114606Y-29308951D01*
X46485646Y-29056646D01*
X46589557Y-28986396D01*
X46683487Y-28923672D01*
X46763052Y-28871338D01*
X46823870Y-28832257D01*
X46861557Y-28809293D01*
X46871821Y-28804342D01*
X46890310Y-28817076D01*
X46929820Y-28852282D01*
X46985922Y-28905462D01*
X47054187Y-28972118D01*
X47130186Y-29047754D01*
X47209492Y-29127872D01*
X47287675Y-29207974D01*
X47360307Y-29283564D01*
X47422959Y-29350145D01*
X47471203Y-29403218D01*
X47500610Y-29438287D01*
X47507641Y-29450023D01*
X47497523Y-29471660D01*
X47469159Y-29519062D01*
X47425529Y-29587593D01*
X47369618Y-29672615D01*
X47304406Y-29769493D01*
X47266619Y-29824750D01*
X47197743Y-29925648D01*
X47136540Y-30016699D01*
X47085978Y-30093370D01*
X47049028Y-30151128D01*
X47028658Y-30185443D01*
X47025597Y-30192654D01*
X47032536Y-30213148D01*
X47051451Y-30260913D01*
X47079487Y-30329232D01*
X47113791Y-30411389D01*
X47151509Y-30500670D01*
X47189787Y-30590358D01*
X47225770Y-30673738D01*
X47256606Y-30744094D01*
X47279439Y-30794710D01*
X47291417Y-30818871D01*
X47292124Y-30819822D01*
X47310931Y-30824436D01*
X47361018Y-30834728D01*
X47437193Y-30849687D01*
X47534265Y-30868301D01*
X47647043Y-30889559D01*
X47712842Y-30901818D01*
X47833350Y-30924762D01*
X47942197Y-30946595D01*
X48033876Y-30966122D01*
X48102881Y-30982148D01*
X48143704Y-30993479D01*
X48151911Y-30997074D01*
X48159948Y-31021406D01*
X48166433Y-31076359D01*
X48171370Y-31155508D01*
X48174764Y-31252426D01*
X48176618Y-31360687D01*
X48176938Y-31473865D01*
X48175727Y-31585535D01*
X48172990Y-31689268D01*
X48168731Y-31778641D01*
X48162955Y-31847226D01*
X48155667Y-31888597D01*
X48151295Y-31897210D01*
X48125164Y-31907533D01*
X48069793Y-31922292D01*
X47992507Y-31939752D01*
X47900630Y-31958180D01*
X47868558Y-31964141D01*
X47713924Y-31992466D01*
X47591775Y-32015276D01*
X47498073Y-32033480D01*
X47428784Y-32047983D01*
X47379871Y-32059692D01*
X47347297Y-32069515D01*
X47327028Y-32078356D01*
X47315026Y-32087124D01*
X47313347Y-32088857D01*
X47296584Y-32116771D01*
X47271014Y-32171095D01*
X47239188Y-32245177D01*
X47203660Y-32332365D01*
X47166983Y-32426008D01*
X47131711Y-32519452D01*
X47100396Y-32606047D01*
X47075593Y-32679140D01*
X47059854Y-32732078D01*
X47055732Y-32758211D01*
X47056076Y-32759126D01*
X47070041Y-32780486D01*
X47101722Y-32827484D01*
X47147791Y-32895227D01*
X47204918Y-32978823D01*
X47269773Y-33073382D01*
X47288243Y-33100254D01*
X47354099Y-33197675D01*
X47412050Y-33286563D01*
X47458938Y-33361812D01*
X47491607Y-33418320D01*
X47506900Y-33450981D01*
X47507641Y-33454993D01*
X47494792Y-33476084D01*
X47459288Y-33517864D01*
X47405693Y-33575845D01*
X47338571Y-33645535D01*
X47262487Y-33722445D01*
X47182004Y-33802083D01*
X47101687Y-33879961D01*
X47026099Y-33951586D01*
X46959805Y-34012470D01*
X46907369Y-34058121D01*
X46873355Y-34084050D01*
X46863945Y-34088283D01*
X46842043Y-34078312D01*
X46797200Y-34051420D01*
X46736721Y-34012136D01*
X46690189Y-33980517D01*
X46605875Y-33922498D01*
X46506026Y-33854184D01*
X46405873Y-33785979D01*
X46352027Y-33749475D01*
X46169771Y-33626200D01*
X46016781Y-33708920D01*
X45947082Y-33745159D01*
X45887814Y-33773326D01*
X45847711Y-33789391D01*
X45837503Y-33791626D01*
X45825229Y-33775122D01*
X45801013Y-33728482D01*
X45766663Y-33656009D01*
X45723988Y-33562006D01*
X45674794Y-33450774D01*
X45620890Y-33326615D01*
X45564084Y-33193832D01*
X45506182Y-33056727D01*
X45448993Y-32919602D01*
X45394324Y-32786758D01*
X45343984Y-32662498D01*
X45299780Y-32551125D01*
X45263519Y-32456939D01*
X45237009Y-32384244D01*
X45222058Y-32337341D01*
X45219654Y-32321233D01*
X45238711Y-32300686D01*
X45280436Y-32267333D01*
X45336106Y-32228102D01*
X45340778Y-32224999D01*
X45484664Y-32109823D01*
X45600683Y-31975453D01*
X45687830Y-31826184D01*
X45745099Y-31666313D01*
X45771486Y-31500137D01*
X45765985Y-31331952D01*
X45727590Y-31166055D01*
X45655295Y-31006742D01*
X45634026Y-30971887D01*
X45523396Y-30831137D01*
X45392702Y-30718114D01*
X45246464Y-30633403D01*
X45089208Y-30577594D01*
X44925457Y-30551274D01*
X44759733Y-30555030D01*
X44596562Y-30589450D01*
X44440465Y-30655123D01*
X44295967Y-30752635D01*
X44251269Y-30792213D01*
X44137512Y-30916103D01*
X44054618Y-31046524D01*
X43997756Y-31192715D01*
X43966087Y-31337488D01*
X43958269Y-31500260D01*
X43984338Y-31663840D01*
X44041645Y-31822698D01*
X44127544Y-31971306D01*
X44239386Y-32104135D01*
X44374523Y-32215656D01*
X44392283Y-32227411D01*
X44448550Y-32265908D01*
X44491323Y-32299263D01*
X44511772Y-32320560D01*
X44512069Y-32321233D01*
X44507679Y-32344271D01*
X44490276Y-32396557D01*
X44461668Y-32473790D01*
X44423665Y-32571668D01*
X44378074Y-32685891D01*
X44326703Y-32812158D01*
X44271362Y-32946167D01*
X44213858Y-33083618D01*
X44156001Y-33220208D01*
X44099598Y-33351637D01*
X44046458Y-33473605D01*
X43998390Y-33581809D01*
X43957201Y-33671949D01*
X43924701Y-33739723D01*
X43902697Y-33780830D01*
X43893836Y-33791626D01*
X43866760Y-33783219D01*
X43816097Y-33760672D01*
X43750583Y-33728013D01*
X43714559Y-33708920D01*
X43561568Y-33626200D01*
X43379312Y-33749475D01*
X43286275Y-33812628D01*
X43184415Y-33882127D01*
X43088962Y-33947565D01*
X43041150Y-33980517D01*
X42973905Y-34025673D01*
X42916964Y-34061457D01*
X42877754Y-34083338D01*
X42865019Y-34087963D01*
X42846483Y-34075485D01*
X42805459Y-34040652D01*
X42745925Y-33987078D01*
X42671858Y-33918383D01*
X42587235Y-33838181D01*
X42533715Y-33786686D01*
X42440081Y-33694686D01*
X42359159Y-33612399D01*
X42294223Y-33543345D01*
X42248542Y-33491044D01*
X42225389Y-33459016D01*
X42223168Y-33452516D01*
X42233476Y-33427794D01*
X42261961Y-33377805D01*
X42305463Y-33307612D01*
X42360823Y-33222275D01*
X42424880Y-33126856D01*
X42443097Y-33100254D01*
X42509473Y-33003567D01*
X42569022Y-32916517D01*
X42618416Y-32843995D01*
X42654325Y-32790893D01*
X42673419Y-32762103D01*
X42675264Y-32759126D01*
X42672505Y-32736182D01*
X42657862Y-32685736D01*
X42633887Y-32614441D01*
X42603134Y-32528947D01*
X42568156Y-32435907D01*
X42531507Y-32341974D01*
X42495739Y-32253799D01*
X42463406Y-32178034D01*
X42437062Y-32121331D01*
X42419258Y-32090343D01*
X42417993Y-32088857D01*
X42407106Y-32080001D01*
X42388718Y-32071243D01*
X42358794Y-32061677D01*
X42313297Y-32050396D01*
X42248191Y-32036493D01*
X42159439Y-32019063D01*
X42043007Y-31997198D01*
X41894858Y-31969991D01*
X41862782Y-31964141D01*
X41767714Y-31945774D01*
X41684835Y-31927805D01*
X41621470Y-31911969D01*
X41584942Y-31900000D01*
X41580044Y-31897210D01*
X41571973Y-31872472D01*
X41565413Y-31817190D01*
X41560367Y-31737789D01*
X41556841Y-31640696D01*
X41554839Y-31532338D01*
X41554364Y-31419140D01*
X41555423Y-31307528D01*
X41558018Y-31203929D01*
X41562154Y-31114768D01*
X41567837Y-31046472D01*
X41575069Y-31005466D01*
X41579429Y-30997074D01*
X41603702Y-30988608D01*
X41658974Y-30974835D01*
X41739738Y-30956950D01*
X41840488Y-30936148D01*
X41955717Y-30913623D01*
X42018498Y-30901818D01*
X42137613Y-30879551D01*
X42243835Y-30859379D01*
X42331973Y-30842315D01*
X42396834Y-30829369D01*
X42433226Y-30821555D01*
X42439216Y-30819822D01*
X42449339Y-30800290D01*
X42470738Y-30753243D01*
X42500561Y-30685403D01*
X42535955Y-30603491D01*
X42574068Y-30514228D01*
X42612047Y-30424335D01*
X42647040Y-30340535D01*
X42676194Y-30269547D01*
X42696657Y-30218094D01*
X42705577Y-30192897D01*
X42705743Y-30191796D01*
X42695631Y-30171919D01*
X42667283Y-30126177D01*
X42623677Y-30059117D01*
X42567794Y-29975284D01*
X42502613Y-29879226D01*
X42464721Y-29824050D01*
X42395675Y-29722881D01*
X42334350Y-29631030D01*
X42283737Y-29553144D01*
X42246829Y-29493869D01*
X42226618Y-29457851D01*
X42223699Y-29449777D01*
X42236247Y-29430984D01*
X42270937Y-29390857D01*
X42323337Y-29333893D01*
X42389016Y-29264585D01*
X42463544Y-29187431D01*
X42542487Y-29106925D01*
X42621417Y-29027563D01*
X42695900Y-28953840D01*
X42761506Y-28890252D01*
X42813804Y-28841294D01*
X42848361Y-28811461D01*
X42859922Y-28804342D01*
X42878746Y-28814353D01*
X42923769Y-28842478D01*
X42990613Y-28885854D01*
X43074901Y-28941618D01*
X43172256Y-29006906D01*
X43245693Y-29056646D01*
X43616733Y-29308951D01*
X44235305Y-29053955D01*
X44319125Y-28609331D01*
X44402946Y-28164707D01*
X45328394Y-28164707D01*
X45412214Y-28609331D01*
G37*
X45412214Y-28609331D02*
X45496035Y-29053955D01*
X45805320Y-29181453D01*
X46114606Y-29308951D01*
X46485646Y-29056646D01*
X46589557Y-28986396D01*
X46683487Y-28923672D01*
X46763052Y-28871338D01*
X46823870Y-28832257D01*
X46861557Y-28809293D01*
X46871821Y-28804342D01*
X46890310Y-28817076D01*
X46929820Y-28852282D01*
X46985922Y-28905462D01*
X47054187Y-28972118D01*
X47130186Y-29047754D01*
X47209492Y-29127872D01*
X47287675Y-29207974D01*
X47360307Y-29283564D01*
X47422959Y-29350145D01*
X47471203Y-29403218D01*
X47500610Y-29438287D01*
X47507641Y-29450023D01*
X47497523Y-29471660D01*
X47469159Y-29519062D01*
X47425529Y-29587593D01*
X47369618Y-29672615D01*
X47304406Y-29769493D01*
X47266619Y-29824750D01*
X47197743Y-29925648D01*
X47136540Y-30016699D01*
X47085978Y-30093370D01*
X47049028Y-30151128D01*
X47028658Y-30185443D01*
X47025597Y-30192654D01*
X47032536Y-30213148D01*
X47051451Y-30260913D01*
X47079487Y-30329232D01*
X47113791Y-30411389D01*
X47151509Y-30500670D01*
X47189787Y-30590358D01*
X47225770Y-30673738D01*
X47256606Y-30744094D01*
X47279439Y-30794710D01*
X47291417Y-30818871D01*
X47292124Y-30819822D01*
X47310931Y-30824436D01*
X47361018Y-30834728D01*
X47437193Y-30849687D01*
X47534265Y-30868301D01*
X47647043Y-30889559D01*
X47712842Y-30901818D01*
X47833350Y-30924762D01*
X47942197Y-30946595D01*
X48033876Y-30966122D01*
X48102881Y-30982148D01*
X48143704Y-30993479D01*
X48151911Y-30997074D01*
X48159948Y-31021406D01*
X48166433Y-31076359D01*
X48171370Y-31155508D01*
X48174764Y-31252426D01*
X48176618Y-31360687D01*
X48176938Y-31473865D01*
X48175727Y-31585535D01*
X48172990Y-31689268D01*
X48168731Y-31778641D01*
X48162955Y-31847226D01*
X48155667Y-31888597D01*
X48151295Y-31897210D01*
X48125164Y-31907533D01*
X48069793Y-31922292D01*
X47992507Y-31939752D01*
X47900630Y-31958180D01*
X47868558Y-31964141D01*
X47713924Y-31992466D01*
X47591775Y-32015276D01*
X47498073Y-32033480D01*
X47428784Y-32047983D01*
X47379871Y-32059692D01*
X47347297Y-32069515D01*
X47327028Y-32078356D01*
X47315026Y-32087124D01*
X47313347Y-32088857D01*
X47296584Y-32116771D01*
X47271014Y-32171095D01*
X47239188Y-32245177D01*
X47203660Y-32332365D01*
X47166983Y-32426008D01*
X47131711Y-32519452D01*
X47100396Y-32606047D01*
X47075593Y-32679140D01*
X47059854Y-32732078D01*
X47055732Y-32758211D01*
X47056076Y-32759126D01*
X47070041Y-32780486D01*
X47101722Y-32827484D01*
X47147791Y-32895227D01*
X47204918Y-32978823D01*
X47269773Y-33073382D01*
X47288243Y-33100254D01*
X47354099Y-33197675D01*
X47412050Y-33286563D01*
X47458938Y-33361812D01*
X47491607Y-33418320D01*
X47506900Y-33450981D01*
X47507641Y-33454993D01*
X47494792Y-33476084D01*
X47459288Y-33517864D01*
X47405693Y-33575845D01*
X47338571Y-33645535D01*
X47262487Y-33722445D01*
X47182004Y-33802083D01*
X47101687Y-33879961D01*
X47026099Y-33951586D01*
X46959805Y-34012470D01*
X46907369Y-34058121D01*
X46873355Y-34084050D01*
X46863945Y-34088283D01*
X46842043Y-34078312D01*
X46797200Y-34051420D01*
X46736721Y-34012136D01*
X46690189Y-33980517D01*
X46605875Y-33922498D01*
X46506026Y-33854184D01*
X46405873Y-33785979D01*
X46352027Y-33749475D01*
X46169771Y-33626200D01*
X46016781Y-33708920D01*
X45947082Y-33745159D01*
X45887814Y-33773326D01*
X45847711Y-33789391D01*
X45837503Y-33791626D01*
X45825229Y-33775122D01*
X45801013Y-33728482D01*
X45766663Y-33656009D01*
X45723988Y-33562006D01*
X45674794Y-33450774D01*
X45620890Y-33326615D01*
X45564084Y-33193832D01*
X45506182Y-33056727D01*
X45448993Y-32919602D01*
X45394324Y-32786758D01*
X45343984Y-32662498D01*
X45299780Y-32551125D01*
X45263519Y-32456939D01*
X45237009Y-32384244D01*
X45222058Y-32337341D01*
X45219654Y-32321233D01*
X45238711Y-32300686D01*
X45280436Y-32267333D01*
X45336106Y-32228102D01*
X45340778Y-32224999D01*
X45484664Y-32109823D01*
X45600683Y-31975453D01*
X45687830Y-31826184D01*
X45745099Y-31666313D01*
X45771486Y-31500137D01*
X45765985Y-31331952D01*
X45727590Y-31166055D01*
X45655295Y-31006742D01*
X45634026Y-30971887D01*
X45523396Y-30831137D01*
X45392702Y-30718114D01*
X45246464Y-30633403D01*
X45089208Y-30577594D01*
X44925457Y-30551274D01*
X44759733Y-30555030D01*
X44596562Y-30589450D01*
X44440465Y-30655123D01*
X44295967Y-30752635D01*
X44251269Y-30792213D01*
X44137512Y-30916103D01*
X44054618Y-31046524D01*
X43997756Y-31192715D01*
X43966087Y-31337488D01*
X43958269Y-31500260D01*
X43984338Y-31663840D01*
X44041645Y-31822698D01*
X44127544Y-31971306D01*
X44239386Y-32104135D01*
X44374523Y-32215656D01*
X44392283Y-32227411D01*
X44448550Y-32265908D01*
X44491323Y-32299263D01*
X44511772Y-32320560D01*
X44512069Y-32321233D01*
X44507679Y-32344271D01*
X44490276Y-32396557D01*
X44461668Y-32473790D01*
X44423665Y-32571668D01*
X44378074Y-32685891D01*
X44326703Y-32812158D01*
X44271362Y-32946167D01*
X44213858Y-33083618D01*
X44156001Y-33220208D01*
X44099598Y-33351637D01*
X44046458Y-33473605D01*
X43998390Y-33581809D01*
X43957201Y-33671949D01*
X43924701Y-33739723D01*
X43902697Y-33780830D01*
X43893836Y-33791626D01*
X43866760Y-33783219D01*
X43816097Y-33760672D01*
X43750583Y-33728013D01*
X43714559Y-33708920D01*
X43561568Y-33626200D01*
X43379312Y-33749475D01*
X43286275Y-33812628D01*
X43184415Y-33882127D01*
X43088962Y-33947565D01*
X43041150Y-33980517D01*
X42973905Y-34025673D01*
X42916964Y-34061457D01*
X42877754Y-34083338D01*
X42865019Y-34087963D01*
X42846483Y-34075485D01*
X42805459Y-34040652D01*
X42745925Y-33987078D01*
X42671858Y-33918383D01*
X42587235Y-33838181D01*
X42533715Y-33786686D01*
X42440081Y-33694686D01*
X42359159Y-33612399D01*
X42294223Y-33543345D01*
X42248542Y-33491044D01*
X42225389Y-33459016D01*
X42223168Y-33452516D01*
X42233476Y-33427794D01*
X42261961Y-33377805D01*
X42305463Y-33307612D01*
X42360823Y-33222275D01*
X42424880Y-33126856D01*
X42443097Y-33100254D01*
X42509473Y-33003567D01*
X42569022Y-32916517D01*
X42618416Y-32843995D01*
X42654325Y-32790893D01*
X42673419Y-32762103D01*
X42675264Y-32759126D01*
X42672505Y-32736182D01*
X42657862Y-32685736D01*
X42633887Y-32614441D01*
X42603134Y-32528947D01*
X42568156Y-32435907D01*
X42531507Y-32341974D01*
X42495739Y-32253799D01*
X42463406Y-32178034D01*
X42437062Y-32121331D01*
X42419258Y-32090343D01*
X42417993Y-32088857D01*
X42407106Y-32080001D01*
X42388718Y-32071243D01*
X42358794Y-32061677D01*
X42313297Y-32050396D01*
X42248191Y-32036493D01*
X42159439Y-32019063D01*
X42043007Y-31997198D01*
X41894858Y-31969991D01*
X41862782Y-31964141D01*
X41767714Y-31945774D01*
X41684835Y-31927805D01*
X41621470Y-31911969D01*
X41584942Y-31900000D01*
X41580044Y-31897210D01*
X41571973Y-31872472D01*
X41565413Y-31817190D01*
X41560367Y-31737789D01*
X41556841Y-31640696D01*
X41554839Y-31532338D01*
X41554364Y-31419140D01*
X41555423Y-31307528D01*
X41558018Y-31203929D01*
X41562154Y-31114768D01*
X41567837Y-31046472D01*
X41575069Y-31005466D01*
X41579429Y-30997074D01*
X41603702Y-30988608D01*
X41658974Y-30974835D01*
X41739738Y-30956950D01*
X41840488Y-30936148D01*
X41955717Y-30913623D01*
X42018498Y-30901818D01*
X42137613Y-30879551D01*
X42243835Y-30859379D01*
X42331973Y-30842315D01*
X42396834Y-30829369D01*
X42433226Y-30821555D01*
X42439216Y-30819822D01*
X42449339Y-30800290D01*
X42470738Y-30753243D01*
X42500561Y-30685403D01*
X42535955Y-30603491D01*
X42574068Y-30514228D01*
X42612047Y-30424335D01*
X42647040Y-30340535D01*
X42676194Y-30269547D01*
X42696657Y-30218094D01*
X42705577Y-30192897D01*
X42705743Y-30191796D01*
X42695631Y-30171919D01*
X42667283Y-30126177D01*
X42623677Y-30059117D01*
X42567794Y-29975284D01*
X42502613Y-29879226D01*
X42464721Y-29824050D01*
X42395675Y-29722881D01*
X42334350Y-29631030D01*
X42283737Y-29553144D01*
X42246829Y-29493869D01*
X42226618Y-29457851D01*
X42223699Y-29449777D01*
X42236247Y-29430984D01*
X42270937Y-29390857D01*
X42323337Y-29333893D01*
X42389016Y-29264585D01*
X42463544Y-29187431D01*
X42542487Y-29106925D01*
X42621417Y-29027563D01*
X42695900Y-28953840D01*
X42761506Y-28890252D01*
X42813804Y-28841294D01*
X42848361Y-28811461D01*
X42859922Y-28804342D01*
X42878746Y-28814353D01*
X42923769Y-28842478D01*
X42990613Y-28885854D01*
X43074901Y-28941618D01*
X43172256Y-29006906D01*
X43245693Y-29056646D01*
X43616733Y-29308951D01*
X44235305Y-29053955D01*
X44319125Y-28609331D01*
X44402946Y-28164707D01*
X45328394Y-28164707D01*
X45412214Y-28609331D01*
D12*
X27374000Y-37651600D02*
X28874000Y-37651600D01*
X27374000Y-35911600D02*
X27374000Y-37651600D01*
X35434000Y-30291600D02*
X35434000Y-37411600D01*
X27614000Y-30291600D02*
X27614000Y-37411600D01*
X27614000Y-37411600D02*
X35434000Y-37411600D01*
X27614000Y-30291600D02*
X35434000Y-30291600D01*
X27614000Y-35851600D02*
X35434000Y-35851600D01*
X34829000Y-33751600D02*
G75*
G03X34829000Y-33751600I-1555000J0D01*
G01*
X29801011Y-35307092D02*
G75*
G02X29166000Y-35183600I-27011J1555492D01*
G01*
X28341891Y-34359342D02*
G75*
G02X28342000Y-33143600I1432109J607742D01*
G01*
X29166258Y-32319491D02*
G75*
G02X30382000Y-32319600I607742J-1432109D01*
G01*
X31206109Y-33143858D02*
G75*
G02X31206000Y-34359600I-1432109J-607742D01*
G01*
X30381587Y-35182985D02*
G75*
G02X29774000Y-35306600I-607587J1431385D01*
G01*
X35674000Y-20128400D02*
X34174000Y-20128400D01*
X35674000Y-21868400D02*
X35674000Y-20128400D01*
X27614000Y-27488400D02*
X27614000Y-20368400D01*
X35434000Y-27488400D02*
X35434000Y-20368400D01*
X35434000Y-20368400D02*
X27614000Y-20368400D01*
X35434000Y-27488400D02*
X27614000Y-27488400D01*
X35434000Y-21928400D02*
X27614000Y-21928400D01*
X31329000Y-24028400D02*
G75*
G03X31329000Y-24028400I-1555000J0D01*
G01*
X33246989Y-22472908D02*
G75*
G02X33882000Y-22596400I27011J-1555492D01*
G01*
X34706109Y-23420658D02*
G75*
G02X34706000Y-24636400I-1432109J-607742D01*
G01*
X33881742Y-25460509D02*
G75*
G02X32666000Y-25460400I-607742J1432109D01*
G01*
X31841891Y-24636142D02*
G75*
G02X31842000Y-23420400I1432109J607742D01*
G01*
X32666413Y-22597015D02*
G75*
G02X33274000Y-22473400I607587J-1431385D01*
G01*
X37783800Y-37551800D02*
X52283800Y-37551800D01*
X52283800Y-37551800D02*
X52283800Y-37051800D01*
X52283800Y-37051800D02*
X51283800Y-37051800D01*
X51283800Y-37051800D02*
X51283800Y-29051800D01*
X51283800Y-25551800D02*
X51283800Y-23551800D01*
X51283800Y-23551800D02*
X38783800Y-23551800D01*
X38783800Y-23551800D02*
X38783800Y-25551800D01*
X38783800Y-29051800D02*
X38783800Y-37051800D01*
X38783800Y-37051800D02*
X37783800Y-37051800D01*
X37783800Y-37051800D02*
X37783800Y-37551800D01*
X41033800Y-23301800D02*
X42033800Y-23301800D01*
M02*
