M48
; DRILL file {KiCad 5.1.5-52549c5~86~ubuntu18.04.1} date lun 14 sep 2020 14:07:10 -05
; FORMAT={-:-/ absolute / metric / decimal}
; #@! TF.CreationDate,2020-09-14T14:07:10-05:00
; #@! TF.GenerationSoftware,Kicad,Pcbnew,5.1.5-52549c5~86~ubuntu18.04.1
; #@! TF.FileFunction,Plated,1,2,PTH
FMAT,2
METRIC
T1C1.000
T2C1.001
T3C1.200
%
G90
G05
T1
X68.108Y-63.155
X70.648Y-63.155
X73.188Y-63.155
X75.728Y-63.155
X78.268Y-63.155
X80.808Y-63.155
X83.348Y-63.155
X85.888Y-63.155
X88.428Y-63.155
X90.968Y-63.155
X93.508Y-63.155
X96.048Y-63.155
X98.588Y-63.155
X101.128Y-63.155
X103.668Y-63.155
X68.108Y-47.915
X70.648Y-47.915
X73.188Y-47.915
X75.728Y-47.915
X78.268Y-47.915
X80.808Y-47.915
X83.348Y-47.915
X85.888Y-47.915
X88.428Y-47.915
X90.968Y-47.915
X93.508Y-47.915
X96.048Y-47.915
X98.588Y-47.915
X101.128Y-47.915
X103.668Y-47.915
X68.108Y-101.255
X70.648Y-101.255
X73.188Y-101.255
X75.728Y-101.255
X78.268Y-101.255
X80.808Y-101.255
X83.348Y-101.255
X85.888Y-101.255
X88.428Y-101.255
X90.968Y-101.255
X93.508Y-101.255
X96.048Y-101.255
X98.588Y-101.255
X101.128Y-101.255
X103.668Y-101.255
X68.108Y-86.015
X70.648Y-86.015
X73.188Y-86.015
X75.728Y-86.015
X78.268Y-86.015
X80.808Y-86.015
X83.348Y-86.015
X85.888Y-86.015
X88.428Y-86.015
X90.968Y-86.015
X93.508Y-86.015
X96.048Y-86.015
X98.588Y-86.015
X101.128Y-86.015
X103.668Y-86.015
T2
X106.208Y-93.635
X65.568Y-55.535
X65.568Y-93.635
X106.208Y-55.535
T3
X61.388Y-40.742
X64.888Y-40.742
X68.388Y-40.742
X71.888Y-40.742
X75.388Y-40.742
X78.888Y-40.742
X82.388Y-40.742
X85.888Y-40.742
X89.388Y-40.742
X92.888Y-40.742
X96.388Y-40.742
X99.888Y-40.742
X103.388Y-40.742
X106.888Y-40.742
X110.388Y-40.742
X61.388Y-70.328
X64.888Y-70.328
X68.388Y-70.328
X71.888Y-70.328
X75.388Y-70.328
X78.888Y-70.328
X82.388Y-70.328
X85.888Y-70.328
X89.388Y-70.328
X92.888Y-70.328
X96.388Y-70.328
X99.888Y-70.328
X103.388Y-70.328
X106.888Y-70.328
X110.388Y-70.328
X61.388Y-108.428
X64.888Y-108.428
X68.388Y-108.428
X71.888Y-108.428
X75.388Y-108.428
X78.888Y-108.428
X82.388Y-108.428
X85.888Y-108.428
X89.388Y-108.428
X92.888Y-108.428
X96.388Y-108.428
X99.888Y-108.428
X103.388Y-108.428
X106.888Y-108.428
X110.388Y-108.428
X61.388Y-78.842
X64.888Y-78.842
X68.388Y-78.842
X71.888Y-78.842
X75.388Y-78.842
X78.888Y-78.842
X82.388Y-78.842
X85.888Y-78.842
X89.388Y-78.842
X92.888Y-78.842
X96.388Y-78.842
X99.888Y-78.842
X103.388Y-78.842
X106.888Y-78.842
X110.388Y-78.842
T0
M30
