G04 #@! TF.GenerationSoftware,KiCad,Pcbnew,5.1.5-52549c5~86~ubuntu18.04.1*
G04 #@! TF.CreationDate,2020-09-29T20:16:12-05:00*
G04 #@! TF.ProjectId,D04,4430342e-6b69-4636-9164-5f7063625858,rev?*
G04 #@! TF.SameCoordinates,Original*
G04 #@! TF.FileFunction,Soldermask,Bot*
G04 #@! TF.FilePolarity,Negative*
%FSLAX46Y46*%
G04 Gerber Fmt 4.6, Leading zero omitted, Abs format (unit mm)*
G04 Created by KiCad (PCBNEW 5.1.5-52549c5~86~ubuntu18.04.1) date 2020-09-29 20:16:12*
%MOMM*%
%LPD*%
G04 APERTURE LIST*
%ADD10C,0.100000*%
G04 APERTURE END LIST*
D10*
G36*
X46819393Y-65424304D02*
G01*
X47056101Y-65522352D01*
X47056103Y-65522353D01*
X47269135Y-65664696D01*
X47450304Y-65845865D01*
X47592647Y-66058897D01*
X47592648Y-66058899D01*
X47690696Y-66295607D01*
X47740680Y-66546893D01*
X47740680Y-66803107D01*
X47690696Y-67054393D01*
X47592648Y-67291101D01*
X47592647Y-67291103D01*
X47450304Y-67504135D01*
X47269135Y-67685304D01*
X47056103Y-67827647D01*
X47056102Y-67827648D01*
X47056101Y-67827648D01*
X46819393Y-67925696D01*
X46568107Y-67975680D01*
X46311893Y-67975680D01*
X46060607Y-67925696D01*
X45823899Y-67827648D01*
X45823898Y-67827648D01*
X45823897Y-67827647D01*
X45610865Y-67685304D01*
X45429696Y-67504135D01*
X45287353Y-67291103D01*
X45287352Y-67291101D01*
X45189304Y-67054393D01*
X45139320Y-66803107D01*
X45139320Y-66546893D01*
X45189304Y-66295607D01*
X45287352Y-66058899D01*
X45287353Y-66058897D01*
X45429696Y-65845865D01*
X45610865Y-65664696D01*
X45823897Y-65522353D01*
X45823899Y-65522352D01*
X46060607Y-65424304D01*
X46311893Y-65374320D01*
X46568107Y-65374320D01*
X46819393Y-65424304D01*
G37*
G36*
X21879393Y-65424304D02*
G01*
X22116101Y-65522352D01*
X22116103Y-65522353D01*
X22329135Y-65664696D01*
X22510304Y-65845865D01*
X22652647Y-66058897D01*
X22652648Y-66058899D01*
X22750696Y-66295607D01*
X22800680Y-66546893D01*
X22800680Y-66803107D01*
X22750696Y-67054393D01*
X22652648Y-67291101D01*
X22652647Y-67291103D01*
X22510304Y-67504135D01*
X22329135Y-67685304D01*
X22116103Y-67827647D01*
X22116102Y-67827648D01*
X22116101Y-67827648D01*
X21879393Y-67925696D01*
X21628107Y-67975680D01*
X21371893Y-67975680D01*
X21120607Y-67925696D01*
X20883899Y-67827648D01*
X20883898Y-67827648D01*
X20883897Y-67827647D01*
X20670865Y-67685304D01*
X20489696Y-67504135D01*
X20347353Y-67291103D01*
X20347352Y-67291101D01*
X20249304Y-67054393D01*
X20199320Y-66803107D01*
X20199320Y-66546893D01*
X20249304Y-66295607D01*
X20347352Y-66058899D01*
X20347353Y-66058897D01*
X20489696Y-65845865D01*
X20670865Y-65664696D01*
X20883897Y-65522353D01*
X20883899Y-65522352D01*
X21120607Y-65424304D01*
X21371893Y-65374320D01*
X21628107Y-65374320D01*
X21879393Y-65424304D01*
G37*
G36*
X24112585Y-62928802D02*
G01*
X24262410Y-62958604D01*
X24544674Y-63075521D01*
X24798705Y-63245259D01*
X25014741Y-63461295D01*
X25184479Y-63715326D01*
X25301396Y-63997590D01*
X25361000Y-64297240D01*
X25361000Y-64602760D01*
X25301396Y-64902410D01*
X25184479Y-65184674D01*
X25014741Y-65438705D01*
X24798705Y-65654741D01*
X24544674Y-65824479D01*
X24262410Y-65941396D01*
X24112585Y-65971198D01*
X23962761Y-66001000D01*
X23657239Y-66001000D01*
X23507415Y-65971198D01*
X23357590Y-65941396D01*
X23075326Y-65824479D01*
X22821295Y-65654741D01*
X22605259Y-65438705D01*
X22435521Y-65184674D01*
X22318604Y-64902410D01*
X22259000Y-64602760D01*
X22259000Y-64297240D01*
X22318604Y-63997590D01*
X22435521Y-63715326D01*
X22605259Y-63461295D01*
X22821295Y-63245259D01*
X23075326Y-63075521D01*
X23357590Y-62958604D01*
X23507415Y-62928802D01*
X23657239Y-62899000D01*
X23962761Y-62899000D01*
X24112585Y-62928802D01*
G37*
G36*
X44432585Y-62928802D02*
G01*
X44582410Y-62958604D01*
X44864674Y-63075521D01*
X45118705Y-63245259D01*
X45334741Y-63461295D01*
X45504479Y-63715326D01*
X45621396Y-63997590D01*
X45681000Y-64297240D01*
X45681000Y-64602760D01*
X45621396Y-64902410D01*
X45504479Y-65184674D01*
X45334741Y-65438705D01*
X45118705Y-65654741D01*
X44864674Y-65824479D01*
X44582410Y-65941396D01*
X44432585Y-65971198D01*
X44282761Y-66001000D01*
X43977239Y-66001000D01*
X43827415Y-65971198D01*
X43677590Y-65941396D01*
X43395326Y-65824479D01*
X43141295Y-65654741D01*
X42925259Y-65438705D01*
X42755521Y-65184674D01*
X42638604Y-64902410D01*
X42579000Y-64602760D01*
X42579000Y-64297240D01*
X42638604Y-63997590D01*
X42755521Y-63715326D01*
X42925259Y-63461295D01*
X43141295Y-63245259D01*
X43395326Y-63075521D01*
X43677590Y-62958604D01*
X43827415Y-62928802D01*
X43977239Y-62899000D01*
X44282761Y-62899000D01*
X44432585Y-62928802D01*
G37*
G36*
X39584903Y-63033675D02*
G01*
X39685929Y-63075521D01*
X39812571Y-63127978D01*
X40017466Y-63264885D01*
X40191715Y-63439134D01*
X40328622Y-63644029D01*
X40422925Y-63871697D01*
X40471000Y-64113387D01*
X40471000Y-64359813D01*
X40422925Y-64601503D01*
X40328622Y-64829171D01*
X40191715Y-65034066D01*
X40017466Y-65208315D01*
X39812571Y-65345222D01*
X39812570Y-65345223D01*
X39812569Y-65345223D01*
X39584903Y-65439525D01*
X39343214Y-65487600D01*
X39096786Y-65487600D01*
X38855097Y-65439525D01*
X38627431Y-65345223D01*
X38627430Y-65345223D01*
X38627429Y-65345222D01*
X38422534Y-65208315D01*
X38248285Y-65034066D01*
X38111378Y-64829171D01*
X38017075Y-64601503D01*
X37969000Y-64359813D01*
X37969000Y-64113387D01*
X38017075Y-63871697D01*
X38111378Y-63644029D01*
X38248285Y-63439134D01*
X38422534Y-63264885D01*
X38627429Y-63127978D01*
X38754072Y-63075521D01*
X38855097Y-63033675D01*
X39096786Y-62985600D01*
X39343214Y-62985600D01*
X39584903Y-63033675D01*
G37*
G36*
X29084903Y-63033675D02*
G01*
X29185929Y-63075521D01*
X29312571Y-63127978D01*
X29517466Y-63264885D01*
X29691715Y-63439134D01*
X29828622Y-63644029D01*
X29922925Y-63871697D01*
X29971000Y-64113387D01*
X29971000Y-64359813D01*
X29922925Y-64601503D01*
X29828622Y-64829171D01*
X29691715Y-65034066D01*
X29517466Y-65208315D01*
X29312571Y-65345222D01*
X29312570Y-65345223D01*
X29312569Y-65345223D01*
X29084903Y-65439525D01*
X28843214Y-65487600D01*
X28596786Y-65487600D01*
X28355097Y-65439525D01*
X28127431Y-65345223D01*
X28127430Y-65345223D01*
X28127429Y-65345222D01*
X27922534Y-65208315D01*
X27748285Y-65034066D01*
X27611378Y-64829171D01*
X27517075Y-64601503D01*
X27469000Y-64359813D01*
X27469000Y-64113387D01*
X27517075Y-63871697D01*
X27611378Y-63644029D01*
X27748285Y-63439134D01*
X27922534Y-63264885D01*
X28127429Y-63127978D01*
X28254072Y-63075521D01*
X28355097Y-63033675D01*
X28596786Y-62985600D01*
X28843214Y-62985600D01*
X29084903Y-63033675D01*
G37*
G36*
X32584903Y-63033675D02*
G01*
X32685929Y-63075521D01*
X32812571Y-63127978D01*
X33017466Y-63264885D01*
X33191715Y-63439134D01*
X33328622Y-63644029D01*
X33422925Y-63871697D01*
X33471000Y-64113387D01*
X33471000Y-64359813D01*
X33422925Y-64601503D01*
X33328622Y-64829171D01*
X33191715Y-65034066D01*
X33017466Y-65208315D01*
X32812571Y-65345222D01*
X32812570Y-65345223D01*
X32812569Y-65345223D01*
X32584903Y-65439525D01*
X32343214Y-65487600D01*
X32096786Y-65487600D01*
X31855097Y-65439525D01*
X31627431Y-65345223D01*
X31627430Y-65345223D01*
X31627429Y-65345222D01*
X31422534Y-65208315D01*
X31248285Y-65034066D01*
X31111378Y-64829171D01*
X31017075Y-64601503D01*
X30969000Y-64359813D01*
X30969000Y-64113387D01*
X31017075Y-63871697D01*
X31111378Y-63644029D01*
X31248285Y-63439134D01*
X31422534Y-63264885D01*
X31627429Y-63127978D01*
X31754072Y-63075521D01*
X31855097Y-63033675D01*
X32096786Y-62985600D01*
X32343214Y-62985600D01*
X32584903Y-63033675D01*
G37*
G36*
X36084903Y-63033675D02*
G01*
X36185929Y-63075521D01*
X36312571Y-63127978D01*
X36517466Y-63264885D01*
X36691715Y-63439134D01*
X36828622Y-63644029D01*
X36922925Y-63871697D01*
X36971000Y-64113387D01*
X36971000Y-64359813D01*
X36922925Y-64601503D01*
X36828622Y-64829171D01*
X36691715Y-65034066D01*
X36517466Y-65208315D01*
X36312571Y-65345222D01*
X36312570Y-65345223D01*
X36312569Y-65345223D01*
X36084903Y-65439525D01*
X35843214Y-65487600D01*
X35596786Y-65487600D01*
X35355097Y-65439525D01*
X35127431Y-65345223D01*
X35127430Y-65345223D01*
X35127429Y-65345222D01*
X34922534Y-65208315D01*
X34748285Y-65034066D01*
X34611378Y-64829171D01*
X34517075Y-64601503D01*
X34469000Y-64359813D01*
X34469000Y-64113387D01*
X34517075Y-63871697D01*
X34611378Y-63644029D01*
X34748285Y-63439134D01*
X34922534Y-63264885D01*
X35127429Y-63127978D01*
X35254072Y-63075521D01*
X35355097Y-63033675D01*
X35596786Y-62985600D01*
X35843214Y-62985600D01*
X36084903Y-63033675D01*
G37*
G36*
X40702000Y-58228000D02*
G01*
X38800000Y-58228000D01*
X38800000Y-56326000D01*
X40702000Y-56326000D01*
X40702000Y-58228000D01*
G37*
G36*
X37488395Y-56362546D02*
G01*
X37661466Y-56434234D01*
X37661467Y-56434235D01*
X37817227Y-56538310D01*
X37949690Y-56670773D01*
X37949691Y-56670775D01*
X38053766Y-56826534D01*
X38125454Y-56999605D01*
X38162000Y-57183333D01*
X38162000Y-57370667D01*
X38125454Y-57554395D01*
X38053766Y-57727466D01*
X38053765Y-57727467D01*
X37949690Y-57883227D01*
X37817227Y-58015690D01*
X37738818Y-58068081D01*
X37661466Y-58119766D01*
X37488395Y-58191454D01*
X37304667Y-58228000D01*
X37117333Y-58228000D01*
X36933605Y-58191454D01*
X36760534Y-58119766D01*
X36683182Y-58068081D01*
X36604773Y-58015690D01*
X36472310Y-57883227D01*
X36368235Y-57727467D01*
X36368234Y-57727466D01*
X36296546Y-57554395D01*
X36260000Y-57370667D01*
X36260000Y-57183333D01*
X36296546Y-56999605D01*
X36368234Y-56826534D01*
X36472309Y-56670775D01*
X36472310Y-56670773D01*
X36604773Y-56538310D01*
X36760533Y-56434235D01*
X36760534Y-56434234D01*
X36933605Y-56362546D01*
X37117333Y-56326000D01*
X37304667Y-56326000D01*
X37488395Y-56362546D01*
G37*
G36*
X34349487Y-49091796D02*
G01*
X34586253Y-49189868D01*
X34586255Y-49189869D01*
X34799339Y-49332247D01*
X34980553Y-49513461D01*
X35067643Y-49643800D01*
X35122932Y-49726547D01*
X35221004Y-49963313D01*
X35271000Y-50214661D01*
X35271000Y-50470939D01*
X35221004Y-50722287D01*
X35122932Y-50959053D01*
X35122931Y-50959055D01*
X34980553Y-51172139D01*
X34799339Y-51353353D01*
X34586255Y-51495731D01*
X34586254Y-51495732D01*
X34586253Y-51495732D01*
X34349487Y-51593804D01*
X34098139Y-51643800D01*
X33841861Y-51643800D01*
X33590513Y-51593804D01*
X33353747Y-51495732D01*
X33353746Y-51495732D01*
X33353745Y-51495731D01*
X33140661Y-51353353D01*
X32959447Y-51172139D01*
X32817069Y-50959055D01*
X32817068Y-50959053D01*
X32718996Y-50722287D01*
X32669000Y-50470939D01*
X32669000Y-50214661D01*
X32718996Y-49963313D01*
X32817068Y-49726547D01*
X32872358Y-49643800D01*
X32959447Y-49513461D01*
X33140661Y-49332247D01*
X33353745Y-49189869D01*
X33353747Y-49189868D01*
X33590513Y-49091796D01*
X33841861Y-49041800D01*
X34098139Y-49041800D01*
X34349487Y-49091796D01*
G37*
G36*
X28349487Y-47091796D02*
G01*
X28586253Y-47189868D01*
X28586255Y-47189869D01*
X28799339Y-47332247D01*
X28980553Y-47513461D01*
X29122932Y-47726547D01*
X29221004Y-47963313D01*
X29271000Y-48214661D01*
X29271000Y-48470939D01*
X29221004Y-48722287D01*
X29122932Y-48959053D01*
X29122931Y-48959055D01*
X28980553Y-49172139D01*
X28799339Y-49353353D01*
X28586255Y-49495731D01*
X28586254Y-49495732D01*
X28586253Y-49495732D01*
X28349487Y-49593804D01*
X28098139Y-49643800D01*
X27841861Y-49643800D01*
X27590513Y-49593804D01*
X27353747Y-49495732D01*
X27353746Y-49495732D01*
X27353745Y-49495731D01*
X27140661Y-49353353D01*
X26959447Y-49172139D01*
X26817069Y-48959055D01*
X26817068Y-48959053D01*
X26718996Y-48722287D01*
X26669000Y-48470939D01*
X26669000Y-48214661D01*
X26718996Y-47963313D01*
X26817068Y-47726547D01*
X26959447Y-47513461D01*
X27140661Y-47332247D01*
X27353745Y-47189869D01*
X27353747Y-47189868D01*
X27590513Y-47091796D01*
X27841861Y-47041800D01*
X28098139Y-47041800D01*
X28349487Y-47091796D01*
G37*
G36*
X40349487Y-47091796D02*
G01*
X40586253Y-47189868D01*
X40586255Y-47189869D01*
X40799339Y-47332247D01*
X40980553Y-47513461D01*
X41122932Y-47726547D01*
X41221004Y-47963313D01*
X41271000Y-48214661D01*
X41271000Y-48470939D01*
X41221004Y-48722287D01*
X41122932Y-48959053D01*
X41122931Y-48959055D01*
X40980553Y-49172139D01*
X40799339Y-49353353D01*
X40586255Y-49495731D01*
X40586254Y-49495732D01*
X40586253Y-49495732D01*
X40349487Y-49593804D01*
X40098139Y-49643800D01*
X39841861Y-49643800D01*
X39590513Y-49593804D01*
X39353747Y-49495732D01*
X39353746Y-49495732D01*
X39353745Y-49495731D01*
X39140661Y-49353353D01*
X38959447Y-49172139D01*
X38817069Y-48959055D01*
X38817068Y-48959053D01*
X38718996Y-48722287D01*
X38669000Y-48470939D01*
X38669000Y-48214661D01*
X38718996Y-47963313D01*
X38817068Y-47726547D01*
X38959447Y-47513461D01*
X39140661Y-47332247D01*
X39353745Y-47189869D01*
X39353747Y-47189868D01*
X39590513Y-47091796D01*
X39841861Y-47041800D01*
X40098139Y-47041800D01*
X40349487Y-47091796D01*
G37*
G36*
X24112585Y-42608802D02*
G01*
X24262410Y-42638604D01*
X24544674Y-42755521D01*
X24798705Y-42925259D01*
X25014741Y-43141295D01*
X25184479Y-43395326D01*
X25301396Y-43677590D01*
X25361000Y-43977240D01*
X25361000Y-44282760D01*
X25301396Y-44582410D01*
X25184479Y-44864674D01*
X25014741Y-45118705D01*
X24798705Y-45334741D01*
X24544674Y-45504479D01*
X24262410Y-45621396D01*
X24112585Y-45651198D01*
X23962761Y-45681000D01*
X23657239Y-45681000D01*
X23507415Y-45651198D01*
X23357590Y-45621396D01*
X23075326Y-45504479D01*
X22821295Y-45334741D01*
X22605259Y-45118705D01*
X22435521Y-44864674D01*
X22318604Y-44582410D01*
X22259000Y-44282760D01*
X22259000Y-43977240D01*
X22318604Y-43677590D01*
X22435521Y-43395326D01*
X22605259Y-43141295D01*
X22821295Y-42925259D01*
X23075326Y-42755521D01*
X23357590Y-42638604D01*
X23507415Y-42608802D01*
X23657239Y-42579000D01*
X23962761Y-42579000D01*
X24112585Y-42608802D01*
G37*
G36*
X44432585Y-42608802D02*
G01*
X44582410Y-42638604D01*
X44864674Y-42755521D01*
X45118705Y-42925259D01*
X45334741Y-43141295D01*
X45504479Y-43395326D01*
X45621396Y-43677590D01*
X45681000Y-43977240D01*
X45681000Y-44282760D01*
X45621396Y-44582410D01*
X45504479Y-44864674D01*
X45334741Y-45118705D01*
X45118705Y-45334741D01*
X44864674Y-45504479D01*
X44582410Y-45621396D01*
X44432585Y-45651198D01*
X44282761Y-45681000D01*
X43977239Y-45681000D01*
X43827415Y-45651198D01*
X43677590Y-45621396D01*
X43395326Y-45504479D01*
X43141295Y-45334741D01*
X42925259Y-45118705D01*
X42755521Y-44864674D01*
X42638604Y-44582410D01*
X42579000Y-44282760D01*
X42579000Y-43977240D01*
X42638604Y-43677590D01*
X42755521Y-43395326D01*
X42925259Y-43141295D01*
X43141295Y-42925259D01*
X43395326Y-42755521D01*
X43677590Y-42638604D01*
X43827415Y-42608802D01*
X43977239Y-42579000D01*
X44282761Y-42579000D01*
X44432585Y-42608802D01*
G37*
G36*
X40349487Y-34891796D02*
G01*
X40586253Y-34989868D01*
X40586255Y-34989869D01*
X40799339Y-35132247D01*
X40980553Y-35313461D01*
X41001279Y-35344479D01*
X41122932Y-35526547D01*
X41221004Y-35763313D01*
X41271000Y-36014661D01*
X41271000Y-36270939D01*
X41221004Y-36522287D01*
X41122932Y-36759053D01*
X41122931Y-36759055D01*
X40980553Y-36972139D01*
X40799339Y-37153353D01*
X40586255Y-37295731D01*
X40586254Y-37295732D01*
X40586253Y-37295732D01*
X40349487Y-37393804D01*
X40098139Y-37443800D01*
X39841861Y-37443800D01*
X39590513Y-37393804D01*
X39353747Y-37295732D01*
X39353746Y-37295732D01*
X39353745Y-37295731D01*
X39140661Y-37153353D01*
X38959447Y-36972139D01*
X38817069Y-36759055D01*
X38817068Y-36759053D01*
X38718996Y-36522287D01*
X38669000Y-36270939D01*
X38669000Y-36014661D01*
X38718996Y-35763313D01*
X38817068Y-35526547D01*
X38938722Y-35344479D01*
X38959447Y-35313461D01*
X39140661Y-35132247D01*
X39353745Y-34989869D01*
X39353747Y-34989868D01*
X39590513Y-34891796D01*
X39841861Y-34841800D01*
X40098139Y-34841800D01*
X40349487Y-34891796D01*
G37*
G36*
X28349487Y-34891796D02*
G01*
X28586253Y-34989868D01*
X28586255Y-34989869D01*
X28799339Y-35132247D01*
X28980553Y-35313461D01*
X29001279Y-35344479D01*
X29122932Y-35526547D01*
X29221004Y-35763313D01*
X29271000Y-36014661D01*
X29271000Y-36270939D01*
X29221004Y-36522287D01*
X29122932Y-36759053D01*
X29122931Y-36759055D01*
X28980553Y-36972139D01*
X28799339Y-37153353D01*
X28586255Y-37295731D01*
X28586254Y-37295732D01*
X28586253Y-37295732D01*
X28349487Y-37393804D01*
X28098139Y-37443800D01*
X27841861Y-37443800D01*
X27590513Y-37393804D01*
X27353747Y-37295732D01*
X27353746Y-37295732D01*
X27353745Y-37295731D01*
X27140661Y-37153353D01*
X26959447Y-36972139D01*
X26817069Y-36759055D01*
X26817068Y-36759053D01*
X26718996Y-36522287D01*
X26669000Y-36270939D01*
X26669000Y-36014661D01*
X26718996Y-35763313D01*
X26817068Y-35526547D01*
X26938722Y-35344479D01*
X26959447Y-35313461D01*
X27140661Y-35132247D01*
X27353745Y-34989869D01*
X27353747Y-34989868D01*
X27590513Y-34891796D01*
X27841861Y-34841800D01*
X28098139Y-34841800D01*
X28349487Y-34891796D01*
G37*
G36*
X24112585Y-32448802D02*
G01*
X24262410Y-32478604D01*
X24544674Y-32595521D01*
X24798705Y-32765259D01*
X25014741Y-32981295D01*
X25184479Y-33235326D01*
X25301396Y-33517590D01*
X25361000Y-33817240D01*
X25361000Y-34122760D01*
X25301396Y-34422410D01*
X25184479Y-34704674D01*
X25014741Y-34958705D01*
X24798705Y-35174741D01*
X24544674Y-35344479D01*
X24262410Y-35461396D01*
X24112585Y-35491198D01*
X23962761Y-35521000D01*
X23657239Y-35521000D01*
X23507415Y-35491198D01*
X23357590Y-35461396D01*
X23075326Y-35344479D01*
X22821295Y-35174741D01*
X22605259Y-34958705D01*
X22435521Y-34704674D01*
X22318604Y-34422410D01*
X22259000Y-34122760D01*
X22259000Y-33817240D01*
X22318604Y-33517590D01*
X22435521Y-33235326D01*
X22605259Y-32981295D01*
X22821295Y-32765259D01*
X23075326Y-32595521D01*
X23357590Y-32478604D01*
X23507415Y-32448802D01*
X23657239Y-32419000D01*
X23962761Y-32419000D01*
X24112585Y-32448802D01*
G37*
G36*
X44432585Y-32448802D02*
G01*
X44582410Y-32478604D01*
X44864674Y-32595521D01*
X45118705Y-32765259D01*
X45334741Y-32981295D01*
X45504479Y-33235326D01*
X45621396Y-33517590D01*
X45681000Y-33817240D01*
X45681000Y-34122760D01*
X45621396Y-34422410D01*
X45504479Y-34704674D01*
X45334741Y-34958705D01*
X45118705Y-35174741D01*
X44864674Y-35344479D01*
X44582410Y-35461396D01*
X44432585Y-35491198D01*
X44282761Y-35521000D01*
X43977239Y-35521000D01*
X43827415Y-35491198D01*
X43677590Y-35461396D01*
X43395326Y-35344479D01*
X43141295Y-35174741D01*
X42925259Y-34958705D01*
X42755521Y-34704674D01*
X42638604Y-34422410D01*
X42579000Y-34122760D01*
X42579000Y-33817240D01*
X42638604Y-33517590D01*
X42755521Y-33235326D01*
X42925259Y-32981295D01*
X43141295Y-32765259D01*
X43395326Y-32595521D01*
X43677590Y-32478604D01*
X43827415Y-32448802D01*
X43977239Y-32419000D01*
X44282761Y-32419000D01*
X44432585Y-32448802D01*
G37*
G36*
X39349487Y-23183796D02*
G01*
X39586253Y-23281868D01*
X39586255Y-23281869D01*
X39799339Y-23424247D01*
X39980553Y-23605461D01*
X40015151Y-23657240D01*
X40122932Y-23818547D01*
X40221004Y-24055313D01*
X40271000Y-24306661D01*
X40271000Y-24562939D01*
X40221004Y-24814287D01*
X40137973Y-25014740D01*
X40122931Y-25051055D01*
X39980553Y-25264139D01*
X39799339Y-25445353D01*
X39586255Y-25587731D01*
X39586254Y-25587732D01*
X39586253Y-25587732D01*
X39349487Y-25685804D01*
X39098139Y-25735800D01*
X38841861Y-25735800D01*
X38590513Y-25685804D01*
X38353747Y-25587732D01*
X38353746Y-25587732D01*
X38353745Y-25587731D01*
X38140661Y-25445353D01*
X37959447Y-25264139D01*
X37817069Y-25051055D01*
X37802027Y-25014740D01*
X37718996Y-24814287D01*
X37669000Y-24562939D01*
X37669000Y-24306661D01*
X37718996Y-24055313D01*
X37817068Y-23818547D01*
X37924850Y-23657240D01*
X37959447Y-23605461D01*
X38140661Y-23424247D01*
X38353745Y-23281869D01*
X38353747Y-23281868D01*
X38590513Y-23183796D01*
X38841861Y-23133800D01*
X39098139Y-23133800D01*
X39349487Y-23183796D01*
G37*
G36*
X34349487Y-23183796D02*
G01*
X34586253Y-23281868D01*
X34586255Y-23281869D01*
X34799339Y-23424247D01*
X34980553Y-23605461D01*
X35015151Y-23657240D01*
X35122932Y-23818547D01*
X35221004Y-24055313D01*
X35271000Y-24306661D01*
X35271000Y-24562939D01*
X35221004Y-24814287D01*
X35137973Y-25014740D01*
X35122931Y-25051055D01*
X34980553Y-25264139D01*
X34799339Y-25445353D01*
X34586255Y-25587731D01*
X34586254Y-25587732D01*
X34586253Y-25587732D01*
X34349487Y-25685804D01*
X34098139Y-25735800D01*
X33841861Y-25735800D01*
X33590513Y-25685804D01*
X33353747Y-25587732D01*
X33353746Y-25587732D01*
X33353745Y-25587731D01*
X33140661Y-25445353D01*
X32959447Y-25264139D01*
X32817069Y-25051055D01*
X32802027Y-25014740D01*
X32718996Y-24814287D01*
X32669000Y-24562939D01*
X32669000Y-24306661D01*
X32718996Y-24055313D01*
X32817068Y-23818547D01*
X32924850Y-23657240D01*
X32959447Y-23605461D01*
X33140661Y-23424247D01*
X33353745Y-23281869D01*
X33353747Y-23281868D01*
X33590513Y-23183796D01*
X33841861Y-23133800D01*
X34098139Y-23133800D01*
X34349487Y-23183796D01*
G37*
G36*
X29349487Y-23183796D02*
G01*
X29586253Y-23281868D01*
X29586255Y-23281869D01*
X29799339Y-23424247D01*
X29980553Y-23605461D01*
X30015151Y-23657240D01*
X30122932Y-23818547D01*
X30221004Y-24055313D01*
X30271000Y-24306661D01*
X30271000Y-24562939D01*
X30221004Y-24814287D01*
X30137973Y-25014740D01*
X30122931Y-25051055D01*
X29980553Y-25264139D01*
X29799339Y-25445353D01*
X29586255Y-25587731D01*
X29586254Y-25587732D01*
X29586253Y-25587732D01*
X29349487Y-25685804D01*
X29098139Y-25735800D01*
X28841861Y-25735800D01*
X28590513Y-25685804D01*
X28353747Y-25587732D01*
X28353746Y-25587732D01*
X28353745Y-25587731D01*
X28140661Y-25445353D01*
X27959447Y-25264139D01*
X27817069Y-25051055D01*
X27802027Y-25014740D01*
X27718996Y-24814287D01*
X27669000Y-24562939D01*
X27669000Y-24306661D01*
X27718996Y-24055313D01*
X27817068Y-23818547D01*
X27924850Y-23657240D01*
X27959447Y-23605461D01*
X28140661Y-23424247D01*
X28353745Y-23281869D01*
X28353747Y-23281868D01*
X28590513Y-23183796D01*
X28841861Y-23133800D01*
X29098139Y-23133800D01*
X29349487Y-23183796D01*
G37*
G36*
X24112585Y-22288802D02*
G01*
X24262410Y-22318604D01*
X24544674Y-22435521D01*
X24798705Y-22605259D01*
X25014741Y-22821295D01*
X25184479Y-23075326D01*
X25301396Y-23357590D01*
X25361000Y-23657240D01*
X25361000Y-23962760D01*
X25301396Y-24262410D01*
X25184479Y-24544674D01*
X25014741Y-24798705D01*
X24798705Y-25014741D01*
X24544674Y-25184479D01*
X24262410Y-25301396D01*
X24112585Y-25331198D01*
X23962761Y-25361000D01*
X23657239Y-25361000D01*
X23507415Y-25331198D01*
X23357590Y-25301396D01*
X23075326Y-25184479D01*
X22821295Y-25014741D01*
X22605259Y-24798705D01*
X22435521Y-24544674D01*
X22318604Y-24262410D01*
X22259000Y-23962760D01*
X22259000Y-23657240D01*
X22318604Y-23357590D01*
X22435521Y-23075326D01*
X22605259Y-22821295D01*
X22821295Y-22605259D01*
X23075326Y-22435521D01*
X23357590Y-22318604D01*
X23507415Y-22288802D01*
X23657239Y-22259000D01*
X23962761Y-22259000D01*
X24112585Y-22288802D01*
G37*
G36*
X44432585Y-22288802D02*
G01*
X44582410Y-22318604D01*
X44864674Y-22435521D01*
X45118705Y-22605259D01*
X45334741Y-22821295D01*
X45504479Y-23075326D01*
X45621396Y-23357590D01*
X45681000Y-23657240D01*
X45681000Y-23962760D01*
X45621396Y-24262410D01*
X45504479Y-24544674D01*
X45334741Y-24798705D01*
X45118705Y-25014741D01*
X44864674Y-25184479D01*
X44582410Y-25301396D01*
X44432585Y-25331198D01*
X44282761Y-25361000D01*
X43977239Y-25361000D01*
X43827415Y-25331198D01*
X43677590Y-25301396D01*
X43395326Y-25184479D01*
X43141295Y-25014741D01*
X42925259Y-24798705D01*
X42755521Y-24544674D01*
X42638604Y-24262410D01*
X42579000Y-23962760D01*
X42579000Y-23657240D01*
X42638604Y-23357590D01*
X42755521Y-23075326D01*
X42925259Y-22821295D01*
X43141295Y-22605259D01*
X43395326Y-22435521D01*
X43677590Y-22318604D01*
X43827415Y-22288802D01*
X43977239Y-22259000D01*
X44282761Y-22259000D01*
X44432585Y-22288802D01*
G37*
M02*
