G04 #@! TF.GenerationSoftware,KiCad,Pcbnew,5.1.5-52549c5~86~ubuntu18.04.1*
G04 #@! TF.CreationDate,2020-09-29T20:16:12-05:00*
G04 #@! TF.ProjectId,D04,4430342e-6b69-4636-9164-5f7063625858,rev?*
G04 #@! TF.SameCoordinates,Original*
G04 #@! TF.FileFunction,Legend,Top*
G04 #@! TF.FilePolarity,Positive*
%FSLAX46Y46*%
G04 Gerber Fmt 4.6, Leading zero omitted, Abs format (unit mm)*
G04 Created by KiCad (PCBNEW 5.1.5-52549c5~86~ubuntu18.04.1) date 2020-09-29 20:16:12*
%MOMM*%
%LPD*%
G04 APERTURE LIST*
%ADD10C,0.150000*%
%ADD11C,0.010000*%
%ADD12C,0.120000*%
G04 APERTURE END LIST*
D10*
X47340780Y-32868428D02*
X46340780Y-32868428D01*
X46340780Y-32630333D01*
X46388400Y-32487476D01*
X46483638Y-32392238D01*
X46578876Y-32344619D01*
X46769352Y-32297000D01*
X46912209Y-32297000D01*
X47102685Y-32344619D01*
X47197923Y-32392238D01*
X47293161Y-32487476D01*
X47340780Y-32630333D01*
X47340780Y-32868428D01*
X46340780Y-31677952D02*
X46340780Y-31582714D01*
X46388400Y-31487476D01*
X46436019Y-31439857D01*
X46531257Y-31392238D01*
X46721733Y-31344619D01*
X46959828Y-31344619D01*
X47150304Y-31392238D01*
X47245542Y-31439857D01*
X47293161Y-31487476D01*
X47340780Y-31582714D01*
X47340780Y-31677952D01*
X47293161Y-31773190D01*
X47245542Y-31820809D01*
X47150304Y-31868428D01*
X46959828Y-31916047D01*
X46721733Y-31916047D01*
X46531257Y-31868428D01*
X46436019Y-31820809D01*
X46388400Y-31773190D01*
X46340780Y-31677952D01*
X46674114Y-30487476D02*
X47340780Y-30487476D01*
X46293161Y-30725571D02*
X47007447Y-30963666D01*
X47007447Y-30344619D01*
X47436019Y-30201761D02*
X47436019Y-29439857D01*
X46816971Y-29201761D02*
X46816971Y-28868428D01*
X47340780Y-28725571D02*
X47340780Y-29201761D01*
X46340780Y-29201761D01*
X46340780Y-28725571D01*
X47340780Y-27820809D02*
X47340780Y-28297000D01*
X46340780Y-28297000D01*
X46816971Y-27487476D02*
X46816971Y-27154142D01*
X47340780Y-27011285D02*
X47340780Y-27487476D01*
X46340780Y-27487476D01*
X46340780Y-27011285D01*
X47245542Y-26011285D02*
X47293161Y-26058904D01*
X47340780Y-26201761D01*
X47340780Y-26297000D01*
X47293161Y-26439857D01*
X47197923Y-26535095D01*
X47102685Y-26582714D01*
X46912209Y-26630333D01*
X46769352Y-26630333D01*
X46578876Y-26582714D01*
X46483638Y-26535095D01*
X46388400Y-26439857D01*
X46340780Y-26297000D01*
X46340780Y-26201761D01*
X46388400Y-26058904D01*
X46436019Y-26011285D01*
X46340780Y-25725571D02*
X46340780Y-25154142D01*
X47340780Y-25439857D02*
X46340780Y-25439857D01*
X47340780Y-24249380D02*
X46864590Y-24582714D01*
X47340780Y-24820809D02*
X46340780Y-24820809D01*
X46340780Y-24439857D01*
X46388400Y-24344619D01*
X46436019Y-24297000D01*
X46531257Y-24249380D01*
X46674114Y-24249380D01*
X46769352Y-24297000D01*
X46816971Y-24344619D01*
X46864590Y-24439857D01*
X46864590Y-24820809D01*
X46340780Y-23630333D02*
X46340780Y-23439857D01*
X46388400Y-23344619D01*
X46483638Y-23249380D01*
X46674114Y-23201761D01*
X47007447Y-23201761D01*
X47197923Y-23249380D01*
X47293161Y-23344619D01*
X47340780Y-23439857D01*
X47340780Y-23630333D01*
X47293161Y-23725571D01*
X47197923Y-23820809D01*
X47007447Y-23868428D01*
X46674114Y-23868428D01*
X46483638Y-23820809D01*
X46388400Y-23725571D01*
X46340780Y-23630333D01*
X47340780Y-22773190D02*
X46340780Y-22773190D01*
X47340780Y-22201761D01*
X46340780Y-22201761D01*
X47340780Y-21725571D02*
X46340780Y-21725571D01*
X47245542Y-20677952D02*
X47293161Y-20725571D01*
X47340780Y-20868428D01*
X47340780Y-20963666D01*
X47293161Y-21106523D01*
X47197923Y-21201761D01*
X47102685Y-21249380D01*
X46912209Y-21297000D01*
X46769352Y-21297000D01*
X46578876Y-21249380D01*
X46483638Y-21201761D01*
X46388400Y-21106523D01*
X46340780Y-20963666D01*
X46340780Y-20868428D01*
X46388400Y-20725571D01*
X46436019Y-20677952D01*
D11*
G36*
X42249131Y-49964786D02*
G01*
X42693755Y-49880965D01*
X42821253Y-49571680D01*
X42948751Y-49262394D01*
X42696446Y-48891354D01*
X42626196Y-48787443D01*
X42563472Y-48693513D01*
X42511138Y-48613948D01*
X42472057Y-48553130D01*
X42449093Y-48515443D01*
X42444142Y-48505179D01*
X42456876Y-48486690D01*
X42492082Y-48447180D01*
X42545262Y-48391078D01*
X42611918Y-48322813D01*
X42687554Y-48246814D01*
X42767672Y-48167508D01*
X42847774Y-48089325D01*
X42923364Y-48016693D01*
X42989945Y-47954041D01*
X43043018Y-47905797D01*
X43078087Y-47876390D01*
X43089823Y-47869359D01*
X43111460Y-47879477D01*
X43158862Y-47907841D01*
X43227393Y-47951471D01*
X43312415Y-48007382D01*
X43409293Y-48072594D01*
X43464550Y-48110381D01*
X43565448Y-48179257D01*
X43656499Y-48240460D01*
X43733170Y-48291022D01*
X43790928Y-48327972D01*
X43825243Y-48348342D01*
X43832454Y-48351403D01*
X43852948Y-48344464D01*
X43900713Y-48325549D01*
X43969032Y-48297513D01*
X44051189Y-48263209D01*
X44140470Y-48225491D01*
X44230158Y-48187213D01*
X44313538Y-48151230D01*
X44383894Y-48120394D01*
X44434510Y-48097561D01*
X44458671Y-48085583D01*
X44459622Y-48084876D01*
X44464236Y-48066069D01*
X44474528Y-48015982D01*
X44489487Y-47939807D01*
X44508101Y-47842735D01*
X44529359Y-47729957D01*
X44541618Y-47664158D01*
X44564562Y-47543650D01*
X44586395Y-47434803D01*
X44605922Y-47343124D01*
X44621948Y-47274119D01*
X44633279Y-47233296D01*
X44636874Y-47225089D01*
X44661206Y-47217052D01*
X44716159Y-47210567D01*
X44795308Y-47205630D01*
X44892226Y-47202236D01*
X45000487Y-47200382D01*
X45113665Y-47200062D01*
X45225335Y-47201273D01*
X45329068Y-47204010D01*
X45418441Y-47208269D01*
X45487026Y-47214045D01*
X45528397Y-47221333D01*
X45537010Y-47225705D01*
X45547333Y-47251836D01*
X45562092Y-47307207D01*
X45579552Y-47384493D01*
X45597980Y-47476370D01*
X45603941Y-47508442D01*
X45632266Y-47663076D01*
X45655076Y-47785225D01*
X45673280Y-47878927D01*
X45687783Y-47948216D01*
X45699492Y-47997129D01*
X45709315Y-48029703D01*
X45718156Y-48049972D01*
X45726924Y-48061974D01*
X45728657Y-48063653D01*
X45756571Y-48080416D01*
X45810895Y-48105986D01*
X45884977Y-48137812D01*
X45972165Y-48173340D01*
X46065808Y-48210017D01*
X46159252Y-48245289D01*
X46245847Y-48276604D01*
X46318940Y-48301407D01*
X46371878Y-48317146D01*
X46398011Y-48321268D01*
X46398926Y-48320924D01*
X46420286Y-48306959D01*
X46467284Y-48275278D01*
X46535027Y-48229209D01*
X46618623Y-48172082D01*
X46713182Y-48107227D01*
X46740054Y-48088757D01*
X46837475Y-48022901D01*
X46926363Y-47964950D01*
X47001612Y-47918062D01*
X47058120Y-47885393D01*
X47090781Y-47870100D01*
X47094793Y-47869359D01*
X47115884Y-47882208D01*
X47157664Y-47917712D01*
X47215645Y-47971307D01*
X47285335Y-48038429D01*
X47362245Y-48114513D01*
X47441883Y-48194996D01*
X47519761Y-48275313D01*
X47591386Y-48350901D01*
X47652270Y-48417195D01*
X47697921Y-48469631D01*
X47723850Y-48503645D01*
X47728083Y-48513055D01*
X47718112Y-48534957D01*
X47691220Y-48579800D01*
X47651936Y-48640279D01*
X47620317Y-48686811D01*
X47562298Y-48771125D01*
X47493984Y-48870974D01*
X47425779Y-48971127D01*
X47389275Y-49024973D01*
X47266000Y-49207229D01*
X47348720Y-49360219D01*
X47384959Y-49429918D01*
X47413126Y-49489186D01*
X47429191Y-49529289D01*
X47431426Y-49539497D01*
X47414922Y-49551771D01*
X47368282Y-49575987D01*
X47295809Y-49610337D01*
X47201806Y-49653012D01*
X47090574Y-49702206D01*
X46966415Y-49756110D01*
X46833632Y-49812916D01*
X46696527Y-49870818D01*
X46559402Y-49928007D01*
X46426558Y-49982676D01*
X46302298Y-50033016D01*
X46190925Y-50077220D01*
X46096739Y-50113481D01*
X46024044Y-50139991D01*
X45977141Y-50154942D01*
X45961033Y-50157346D01*
X45940486Y-50138289D01*
X45907133Y-50096564D01*
X45867902Y-50040894D01*
X45864799Y-50036222D01*
X45749623Y-49892336D01*
X45615253Y-49776317D01*
X45465984Y-49689170D01*
X45306113Y-49631901D01*
X45139937Y-49605514D01*
X44971752Y-49611015D01*
X44805855Y-49649410D01*
X44646542Y-49721705D01*
X44611687Y-49742974D01*
X44470937Y-49853604D01*
X44357914Y-49984298D01*
X44273203Y-50130536D01*
X44217394Y-50287792D01*
X44191074Y-50451543D01*
X44194830Y-50617267D01*
X44229250Y-50780438D01*
X44294923Y-50936535D01*
X44392435Y-51081033D01*
X44432013Y-51125731D01*
X44555903Y-51239488D01*
X44686324Y-51322382D01*
X44832515Y-51379244D01*
X44977288Y-51410913D01*
X45140060Y-51418731D01*
X45303640Y-51392662D01*
X45462498Y-51335355D01*
X45611106Y-51249456D01*
X45743935Y-51137614D01*
X45855456Y-51002477D01*
X45867211Y-50984717D01*
X45905708Y-50928450D01*
X45939063Y-50885677D01*
X45960360Y-50865228D01*
X45961033Y-50864931D01*
X45984071Y-50869321D01*
X46036357Y-50886724D01*
X46113590Y-50915332D01*
X46211468Y-50953335D01*
X46325691Y-50998926D01*
X46451958Y-51050297D01*
X46585967Y-51105638D01*
X46723418Y-51163142D01*
X46860008Y-51220999D01*
X46991437Y-51277402D01*
X47113405Y-51330542D01*
X47221609Y-51378610D01*
X47311749Y-51419799D01*
X47379523Y-51452299D01*
X47420630Y-51474303D01*
X47431426Y-51483164D01*
X47423019Y-51510240D01*
X47400472Y-51560903D01*
X47367813Y-51626417D01*
X47348720Y-51662441D01*
X47266000Y-51815432D01*
X47389275Y-51997688D01*
X47452428Y-52090725D01*
X47521927Y-52192585D01*
X47587365Y-52288038D01*
X47620317Y-52335850D01*
X47665473Y-52403095D01*
X47701257Y-52460036D01*
X47723138Y-52499246D01*
X47727763Y-52511981D01*
X47715285Y-52530517D01*
X47680452Y-52571541D01*
X47626878Y-52631075D01*
X47558183Y-52705142D01*
X47477981Y-52789765D01*
X47426486Y-52843285D01*
X47334486Y-52936919D01*
X47252199Y-53017841D01*
X47183145Y-53082777D01*
X47130844Y-53128458D01*
X47098816Y-53151611D01*
X47092316Y-53153832D01*
X47067594Y-53143524D01*
X47017605Y-53115039D01*
X46947412Y-53071537D01*
X46862075Y-53016177D01*
X46766656Y-52952120D01*
X46740054Y-52933903D01*
X46643367Y-52867527D01*
X46556317Y-52807978D01*
X46483795Y-52758584D01*
X46430693Y-52722675D01*
X46401903Y-52703581D01*
X46398926Y-52701736D01*
X46375982Y-52704495D01*
X46325536Y-52719138D01*
X46254241Y-52743113D01*
X46168747Y-52773866D01*
X46075707Y-52808844D01*
X45981774Y-52845493D01*
X45893599Y-52881261D01*
X45817834Y-52913594D01*
X45761131Y-52939938D01*
X45730143Y-52957742D01*
X45728657Y-52959007D01*
X45719801Y-52969894D01*
X45711043Y-52988282D01*
X45701477Y-53018206D01*
X45690196Y-53063703D01*
X45676293Y-53128809D01*
X45658863Y-53217561D01*
X45636998Y-53333993D01*
X45609791Y-53482142D01*
X45603941Y-53514218D01*
X45585574Y-53609286D01*
X45567605Y-53692165D01*
X45551769Y-53755530D01*
X45539800Y-53792058D01*
X45537010Y-53796956D01*
X45512272Y-53805027D01*
X45456990Y-53811587D01*
X45377589Y-53816633D01*
X45280496Y-53820159D01*
X45172138Y-53822161D01*
X45058940Y-53822636D01*
X44947328Y-53821577D01*
X44843729Y-53818982D01*
X44754568Y-53814846D01*
X44686272Y-53809163D01*
X44645266Y-53801931D01*
X44636874Y-53797571D01*
X44628408Y-53773298D01*
X44614635Y-53718026D01*
X44596750Y-53637262D01*
X44575948Y-53536512D01*
X44553423Y-53421283D01*
X44541618Y-53358502D01*
X44519351Y-53239387D01*
X44499179Y-53133165D01*
X44482115Y-53045027D01*
X44469169Y-52980166D01*
X44461355Y-52943774D01*
X44459622Y-52937784D01*
X44440090Y-52927661D01*
X44393043Y-52906262D01*
X44325203Y-52876439D01*
X44243291Y-52841045D01*
X44154028Y-52802932D01*
X44064135Y-52764953D01*
X43980335Y-52729960D01*
X43909347Y-52700806D01*
X43857894Y-52680343D01*
X43832697Y-52671423D01*
X43831596Y-52671257D01*
X43811719Y-52681369D01*
X43765977Y-52709717D01*
X43698917Y-52753323D01*
X43615084Y-52809206D01*
X43519026Y-52874387D01*
X43463850Y-52912279D01*
X43362681Y-52981325D01*
X43270830Y-53042650D01*
X43192944Y-53093263D01*
X43133669Y-53130171D01*
X43097651Y-53150382D01*
X43089577Y-53153301D01*
X43070784Y-53140753D01*
X43030657Y-53106063D01*
X42973693Y-53053663D01*
X42904385Y-52987984D01*
X42827231Y-52913456D01*
X42746725Y-52834513D01*
X42667363Y-52755583D01*
X42593640Y-52681100D01*
X42530052Y-52615494D01*
X42481094Y-52563196D01*
X42451261Y-52528639D01*
X42444142Y-52517078D01*
X42454153Y-52498254D01*
X42482278Y-52453231D01*
X42525654Y-52386387D01*
X42581418Y-52302099D01*
X42646706Y-52204744D01*
X42696446Y-52131307D01*
X42948751Y-51760267D01*
X42693755Y-51141695D01*
X42249131Y-51057875D01*
X41804507Y-50974054D01*
X41804507Y-50048606D01*
X42249131Y-49964786D01*
G37*
X42249131Y-49964786D02*
X42693755Y-49880965D01*
X42821253Y-49571680D01*
X42948751Y-49262394D01*
X42696446Y-48891354D01*
X42626196Y-48787443D01*
X42563472Y-48693513D01*
X42511138Y-48613948D01*
X42472057Y-48553130D01*
X42449093Y-48515443D01*
X42444142Y-48505179D01*
X42456876Y-48486690D01*
X42492082Y-48447180D01*
X42545262Y-48391078D01*
X42611918Y-48322813D01*
X42687554Y-48246814D01*
X42767672Y-48167508D01*
X42847774Y-48089325D01*
X42923364Y-48016693D01*
X42989945Y-47954041D01*
X43043018Y-47905797D01*
X43078087Y-47876390D01*
X43089823Y-47869359D01*
X43111460Y-47879477D01*
X43158862Y-47907841D01*
X43227393Y-47951471D01*
X43312415Y-48007382D01*
X43409293Y-48072594D01*
X43464550Y-48110381D01*
X43565448Y-48179257D01*
X43656499Y-48240460D01*
X43733170Y-48291022D01*
X43790928Y-48327972D01*
X43825243Y-48348342D01*
X43832454Y-48351403D01*
X43852948Y-48344464D01*
X43900713Y-48325549D01*
X43969032Y-48297513D01*
X44051189Y-48263209D01*
X44140470Y-48225491D01*
X44230158Y-48187213D01*
X44313538Y-48151230D01*
X44383894Y-48120394D01*
X44434510Y-48097561D01*
X44458671Y-48085583D01*
X44459622Y-48084876D01*
X44464236Y-48066069D01*
X44474528Y-48015982D01*
X44489487Y-47939807D01*
X44508101Y-47842735D01*
X44529359Y-47729957D01*
X44541618Y-47664158D01*
X44564562Y-47543650D01*
X44586395Y-47434803D01*
X44605922Y-47343124D01*
X44621948Y-47274119D01*
X44633279Y-47233296D01*
X44636874Y-47225089D01*
X44661206Y-47217052D01*
X44716159Y-47210567D01*
X44795308Y-47205630D01*
X44892226Y-47202236D01*
X45000487Y-47200382D01*
X45113665Y-47200062D01*
X45225335Y-47201273D01*
X45329068Y-47204010D01*
X45418441Y-47208269D01*
X45487026Y-47214045D01*
X45528397Y-47221333D01*
X45537010Y-47225705D01*
X45547333Y-47251836D01*
X45562092Y-47307207D01*
X45579552Y-47384493D01*
X45597980Y-47476370D01*
X45603941Y-47508442D01*
X45632266Y-47663076D01*
X45655076Y-47785225D01*
X45673280Y-47878927D01*
X45687783Y-47948216D01*
X45699492Y-47997129D01*
X45709315Y-48029703D01*
X45718156Y-48049972D01*
X45726924Y-48061974D01*
X45728657Y-48063653D01*
X45756571Y-48080416D01*
X45810895Y-48105986D01*
X45884977Y-48137812D01*
X45972165Y-48173340D01*
X46065808Y-48210017D01*
X46159252Y-48245289D01*
X46245847Y-48276604D01*
X46318940Y-48301407D01*
X46371878Y-48317146D01*
X46398011Y-48321268D01*
X46398926Y-48320924D01*
X46420286Y-48306959D01*
X46467284Y-48275278D01*
X46535027Y-48229209D01*
X46618623Y-48172082D01*
X46713182Y-48107227D01*
X46740054Y-48088757D01*
X46837475Y-48022901D01*
X46926363Y-47964950D01*
X47001612Y-47918062D01*
X47058120Y-47885393D01*
X47090781Y-47870100D01*
X47094793Y-47869359D01*
X47115884Y-47882208D01*
X47157664Y-47917712D01*
X47215645Y-47971307D01*
X47285335Y-48038429D01*
X47362245Y-48114513D01*
X47441883Y-48194996D01*
X47519761Y-48275313D01*
X47591386Y-48350901D01*
X47652270Y-48417195D01*
X47697921Y-48469631D01*
X47723850Y-48503645D01*
X47728083Y-48513055D01*
X47718112Y-48534957D01*
X47691220Y-48579800D01*
X47651936Y-48640279D01*
X47620317Y-48686811D01*
X47562298Y-48771125D01*
X47493984Y-48870974D01*
X47425779Y-48971127D01*
X47389275Y-49024973D01*
X47266000Y-49207229D01*
X47348720Y-49360219D01*
X47384959Y-49429918D01*
X47413126Y-49489186D01*
X47429191Y-49529289D01*
X47431426Y-49539497D01*
X47414922Y-49551771D01*
X47368282Y-49575987D01*
X47295809Y-49610337D01*
X47201806Y-49653012D01*
X47090574Y-49702206D01*
X46966415Y-49756110D01*
X46833632Y-49812916D01*
X46696527Y-49870818D01*
X46559402Y-49928007D01*
X46426558Y-49982676D01*
X46302298Y-50033016D01*
X46190925Y-50077220D01*
X46096739Y-50113481D01*
X46024044Y-50139991D01*
X45977141Y-50154942D01*
X45961033Y-50157346D01*
X45940486Y-50138289D01*
X45907133Y-50096564D01*
X45867902Y-50040894D01*
X45864799Y-50036222D01*
X45749623Y-49892336D01*
X45615253Y-49776317D01*
X45465984Y-49689170D01*
X45306113Y-49631901D01*
X45139937Y-49605514D01*
X44971752Y-49611015D01*
X44805855Y-49649410D01*
X44646542Y-49721705D01*
X44611687Y-49742974D01*
X44470937Y-49853604D01*
X44357914Y-49984298D01*
X44273203Y-50130536D01*
X44217394Y-50287792D01*
X44191074Y-50451543D01*
X44194830Y-50617267D01*
X44229250Y-50780438D01*
X44294923Y-50936535D01*
X44392435Y-51081033D01*
X44432013Y-51125731D01*
X44555903Y-51239488D01*
X44686324Y-51322382D01*
X44832515Y-51379244D01*
X44977288Y-51410913D01*
X45140060Y-51418731D01*
X45303640Y-51392662D01*
X45462498Y-51335355D01*
X45611106Y-51249456D01*
X45743935Y-51137614D01*
X45855456Y-51002477D01*
X45867211Y-50984717D01*
X45905708Y-50928450D01*
X45939063Y-50885677D01*
X45960360Y-50865228D01*
X45961033Y-50864931D01*
X45984071Y-50869321D01*
X46036357Y-50886724D01*
X46113590Y-50915332D01*
X46211468Y-50953335D01*
X46325691Y-50998926D01*
X46451958Y-51050297D01*
X46585967Y-51105638D01*
X46723418Y-51163142D01*
X46860008Y-51220999D01*
X46991437Y-51277402D01*
X47113405Y-51330542D01*
X47221609Y-51378610D01*
X47311749Y-51419799D01*
X47379523Y-51452299D01*
X47420630Y-51474303D01*
X47431426Y-51483164D01*
X47423019Y-51510240D01*
X47400472Y-51560903D01*
X47367813Y-51626417D01*
X47348720Y-51662441D01*
X47266000Y-51815432D01*
X47389275Y-51997688D01*
X47452428Y-52090725D01*
X47521927Y-52192585D01*
X47587365Y-52288038D01*
X47620317Y-52335850D01*
X47665473Y-52403095D01*
X47701257Y-52460036D01*
X47723138Y-52499246D01*
X47727763Y-52511981D01*
X47715285Y-52530517D01*
X47680452Y-52571541D01*
X47626878Y-52631075D01*
X47558183Y-52705142D01*
X47477981Y-52789765D01*
X47426486Y-52843285D01*
X47334486Y-52936919D01*
X47252199Y-53017841D01*
X47183145Y-53082777D01*
X47130844Y-53128458D01*
X47098816Y-53151611D01*
X47092316Y-53153832D01*
X47067594Y-53143524D01*
X47017605Y-53115039D01*
X46947412Y-53071537D01*
X46862075Y-53016177D01*
X46766656Y-52952120D01*
X46740054Y-52933903D01*
X46643367Y-52867527D01*
X46556317Y-52807978D01*
X46483795Y-52758584D01*
X46430693Y-52722675D01*
X46401903Y-52703581D01*
X46398926Y-52701736D01*
X46375982Y-52704495D01*
X46325536Y-52719138D01*
X46254241Y-52743113D01*
X46168747Y-52773866D01*
X46075707Y-52808844D01*
X45981774Y-52845493D01*
X45893599Y-52881261D01*
X45817834Y-52913594D01*
X45761131Y-52939938D01*
X45730143Y-52957742D01*
X45728657Y-52959007D01*
X45719801Y-52969894D01*
X45711043Y-52988282D01*
X45701477Y-53018206D01*
X45690196Y-53063703D01*
X45676293Y-53128809D01*
X45658863Y-53217561D01*
X45636998Y-53333993D01*
X45609791Y-53482142D01*
X45603941Y-53514218D01*
X45585574Y-53609286D01*
X45567605Y-53692165D01*
X45551769Y-53755530D01*
X45539800Y-53792058D01*
X45537010Y-53796956D01*
X45512272Y-53805027D01*
X45456990Y-53811587D01*
X45377589Y-53816633D01*
X45280496Y-53820159D01*
X45172138Y-53822161D01*
X45058940Y-53822636D01*
X44947328Y-53821577D01*
X44843729Y-53818982D01*
X44754568Y-53814846D01*
X44686272Y-53809163D01*
X44645266Y-53801931D01*
X44636874Y-53797571D01*
X44628408Y-53773298D01*
X44614635Y-53718026D01*
X44596750Y-53637262D01*
X44575948Y-53536512D01*
X44553423Y-53421283D01*
X44541618Y-53358502D01*
X44519351Y-53239387D01*
X44499179Y-53133165D01*
X44482115Y-53045027D01*
X44469169Y-52980166D01*
X44461355Y-52943774D01*
X44459622Y-52937784D01*
X44440090Y-52927661D01*
X44393043Y-52906262D01*
X44325203Y-52876439D01*
X44243291Y-52841045D01*
X44154028Y-52802932D01*
X44064135Y-52764953D01*
X43980335Y-52729960D01*
X43909347Y-52700806D01*
X43857894Y-52680343D01*
X43832697Y-52671423D01*
X43831596Y-52671257D01*
X43811719Y-52681369D01*
X43765977Y-52709717D01*
X43698917Y-52753323D01*
X43615084Y-52809206D01*
X43519026Y-52874387D01*
X43463850Y-52912279D01*
X43362681Y-52981325D01*
X43270830Y-53042650D01*
X43192944Y-53093263D01*
X43133669Y-53130171D01*
X43097651Y-53150382D01*
X43089577Y-53153301D01*
X43070784Y-53140753D01*
X43030657Y-53106063D01*
X42973693Y-53053663D01*
X42904385Y-52987984D01*
X42827231Y-52913456D01*
X42746725Y-52834513D01*
X42667363Y-52755583D01*
X42593640Y-52681100D01*
X42530052Y-52615494D01*
X42481094Y-52563196D01*
X42451261Y-52528639D01*
X42444142Y-52517078D01*
X42454153Y-52498254D01*
X42482278Y-52453231D01*
X42525654Y-52386387D01*
X42581418Y-52302099D01*
X42646706Y-52204744D01*
X42696446Y-52131307D01*
X42948751Y-51760267D01*
X42693755Y-51141695D01*
X42249131Y-51057875D01*
X41804507Y-50974054D01*
X41804507Y-50048606D01*
X42249131Y-49964786D01*
D12*
X33596948Y-57402800D02*
X34119452Y-57402800D01*
X33596948Y-55982800D02*
X34119452Y-55982800D01*
X28226652Y-58472000D02*
X27704148Y-58472000D01*
X28226652Y-59892000D02*
X27704148Y-59892000D01*
X40041000Y-56197000D02*
X40041000Y-56041000D01*
X40041000Y-58513000D02*
X40041000Y-58357000D01*
X37439870Y-56197163D02*
G75*
G02X39521961Y-56197000I1041130J-1079837D01*
G01*
X37439870Y-58356837D02*
G75*
G03X39521961Y-58357000I1041130J1079837D01*
G01*
X36808665Y-56198392D02*
G75*
G02X40041000Y-56041484I1672335J-1078608D01*
G01*
X36808665Y-58355608D02*
G75*
G03X40041000Y-58512516I1672335J1078608D01*
G01*
X30548800Y-60029600D02*
X34848800Y-60029600D01*
X30548800Y-58029600D02*
X30548800Y-60029600D01*
X34848800Y-58029600D02*
X30548800Y-58029600D01*
X28226652Y-56363800D02*
X27704148Y-56363800D01*
X28226652Y-57783800D02*
X27704148Y-57783800D01*
X20250000Y-51756000D02*
X20250000Y-53991000D01*
X25450000Y-51756000D02*
X20250000Y-51756000D01*
X25450000Y-58226000D02*
X25450000Y-51756000D01*
X20250000Y-58226000D02*
X25450000Y-58226000D01*
X20250000Y-55991000D02*
X20250000Y-58226000D01*
X20250000Y-53991000D02*
G75*
G02X20250000Y-55991000I0J-1000000D01*
G01*
X45928400Y-57304400D02*
X45928400Y-58764400D01*
X42768400Y-57304400D02*
X42768400Y-59464400D01*
X42768400Y-57304400D02*
X43698400Y-57304400D01*
X45928400Y-57304400D02*
X44998400Y-57304400D01*
X26320000Y-68136600D02*
X27820000Y-68136600D01*
X26320000Y-66396600D02*
X26320000Y-68136600D01*
X41380000Y-60776600D02*
X41380000Y-67896600D01*
X26560000Y-60776600D02*
X26560000Y-67896600D01*
X26560000Y-67896600D02*
X41380000Y-67896600D01*
X26560000Y-60776600D02*
X41380000Y-60776600D01*
X26560000Y-66336600D02*
X41380000Y-66336600D01*
X40775000Y-64236600D02*
G75*
G03X40775000Y-64236600I-1555000J0D01*
G01*
X37275000Y-64236600D02*
G75*
G03X37275000Y-64236600I-1555000J0D01*
G01*
X33775000Y-64236600D02*
G75*
G03X33775000Y-64236600I-1555000J0D01*
G01*
X28747011Y-65792092D02*
G75*
G02X28112000Y-65668600I-27011J1555492D01*
G01*
X27287891Y-64844342D02*
G75*
G02X27288000Y-63628600I1432109J607742D01*
G01*
X28112258Y-62804491D02*
G75*
G02X29328000Y-62804600I607742J-1432109D01*
G01*
X30152109Y-63628858D02*
G75*
G02X30152000Y-64844600I-1432109J-607742D01*
G01*
X29327587Y-65667985D02*
G75*
G02X28720000Y-65791600I-607587J1431385D01*
G01*
X41770000Y-20134800D02*
X40270000Y-20134800D01*
X41770000Y-21874800D02*
X41770000Y-20134800D01*
X30150000Y-23458800D02*
X30244000Y-23365800D01*
X27900000Y-25709800D02*
X27959000Y-25650800D01*
X29980000Y-23218800D02*
X30039000Y-23160800D01*
X27695000Y-25503800D02*
X27789000Y-25410800D01*
X35150000Y-23458800D02*
X35244000Y-23365800D01*
X32900000Y-25709800D02*
X32959000Y-25650800D01*
X34980000Y-23218800D02*
X35039000Y-23160800D01*
X32695000Y-25503800D02*
X32789000Y-25410800D01*
X26410000Y-29494800D02*
X26410000Y-20374800D01*
X41530000Y-29494800D02*
X41530000Y-20374800D01*
X41530000Y-20374800D02*
X26410000Y-20374800D01*
X41530000Y-29494800D02*
X26410000Y-29494800D01*
X41530000Y-21934800D02*
X26410000Y-21934800D01*
X29870000Y-27434800D02*
G75*
G03X29870000Y-27434800I-900000J0D01*
G01*
X30650000Y-24434800D02*
G75*
G03X30650000Y-24434800I-1680000J0D01*
G01*
X34870000Y-27434800D02*
G75*
G03X34870000Y-27434800I-900000J0D01*
G01*
X35650000Y-24434800D02*
G75*
G03X35650000Y-24434800I-1680000J0D01*
G01*
X39870000Y-27434800D02*
G75*
G03X39870000Y-27434800I-900000J0D01*
G01*
X38940617Y-22754350D02*
G75*
G02X39759000Y-22950800I29383J-1680450D01*
G01*
X40453953Y-23645712D02*
G75*
G02X40454000Y-25223800I-1483953J-789088D01*
G01*
X39759088Y-25918753D02*
G75*
G02X38181000Y-25918800I-789088J1483953D01*
G01*
X37486047Y-25223888D02*
G75*
G02X37486000Y-23645800I1483953J789088D01*
G01*
X38181288Y-22951448D02*
G75*
G02X38970000Y-22754800I788712J-1483352D01*
G01*
X32620000Y-48142800D02*
X29470000Y-48142800D01*
X38470000Y-48142800D02*
X35320000Y-48142800D01*
X34970000Y-53252800D02*
X32970000Y-53252800D01*
X34320000Y-47542800D02*
X33620000Y-47542800D01*
X34320000Y-48742800D02*
X34320000Y-47542800D01*
X33620000Y-48742800D02*
X34320000Y-48742800D01*
X33620000Y-47542800D02*
X33620000Y-48742800D01*
X34320000Y-47942800D02*
X33620000Y-48342800D01*
X42320000Y-30292800D02*
X25620000Y-30292800D01*
X42320000Y-52992800D02*
X42320000Y-30292800D01*
X25620000Y-52992800D02*
X42320000Y-52992800D01*
X25620000Y-30292800D02*
X25620000Y-52992800D01*
D10*
X33691533Y-55495180D02*
X33358200Y-55018990D01*
X33120104Y-55495180D02*
X33120104Y-54495180D01*
X33501057Y-54495180D01*
X33596295Y-54542800D01*
X33643914Y-54590419D01*
X33691533Y-54685657D01*
X33691533Y-54828514D01*
X33643914Y-54923752D01*
X33596295Y-54971371D01*
X33501057Y-55018990D01*
X33120104Y-55018990D01*
X34024866Y-54495180D02*
X34643914Y-54495180D01*
X34310580Y-54876133D01*
X34453438Y-54876133D01*
X34548676Y-54923752D01*
X34596295Y-54971371D01*
X34643914Y-55066609D01*
X34643914Y-55304704D01*
X34596295Y-55399942D01*
X34548676Y-55447561D01*
X34453438Y-55495180D01*
X34167723Y-55495180D01*
X34072485Y-55447561D01*
X34024866Y-55399942D01*
X27722533Y-55748180D02*
X27389200Y-55271990D01*
X27151104Y-55748180D02*
X27151104Y-54748180D01*
X27532057Y-54748180D01*
X27627295Y-54795800D01*
X27674914Y-54843419D01*
X27722533Y-54938657D01*
X27722533Y-55081514D01*
X27674914Y-55176752D01*
X27627295Y-55224371D01*
X27532057Y-55271990D01*
X27151104Y-55271990D01*
X28103485Y-54843419D02*
X28151104Y-54795800D01*
X28246342Y-54748180D01*
X28484438Y-54748180D01*
X28579676Y-54795800D01*
X28627295Y-54843419D01*
X28674914Y-54938657D01*
X28674914Y-55033895D01*
X28627295Y-55176752D01*
X28055866Y-55748180D01*
X28674914Y-55748180D01*
X37742904Y-54782980D02*
X37742904Y-53782980D01*
X37981000Y-53782980D01*
X38123857Y-53830600D01*
X38219095Y-53925838D01*
X38266714Y-54021076D01*
X38314333Y-54211552D01*
X38314333Y-54354409D01*
X38266714Y-54544885D01*
X38219095Y-54640123D01*
X38123857Y-54735361D01*
X37981000Y-54782980D01*
X37742904Y-54782980D01*
X38695285Y-53878219D02*
X38742904Y-53830600D01*
X38838142Y-53782980D01*
X39076238Y-53782980D01*
X39171476Y-53830600D01*
X39219095Y-53878219D01*
X39266714Y-53973457D01*
X39266714Y-54068695D01*
X39219095Y-54211552D01*
X38647666Y-54782980D01*
X39266714Y-54782980D01*
X29970504Y-57627780D02*
X29970504Y-56627780D01*
X30208600Y-56627780D01*
X30351457Y-56675400D01*
X30446695Y-56770638D01*
X30494314Y-56865876D01*
X30541933Y-57056352D01*
X30541933Y-57199209D01*
X30494314Y-57389685D01*
X30446695Y-57484923D01*
X30351457Y-57580161D01*
X30208600Y-57627780D01*
X29970504Y-57627780D01*
X31494314Y-57627780D02*
X30922885Y-57627780D01*
X31208600Y-57627780D02*
X31208600Y-56627780D01*
X31113361Y-56770638D01*
X31018123Y-56865876D01*
X30922885Y-56913495D01*
X27773333Y-54325780D02*
X27440000Y-53849590D01*
X27201904Y-54325780D02*
X27201904Y-53325780D01*
X27582857Y-53325780D01*
X27678095Y-53373400D01*
X27725714Y-53421019D01*
X27773333Y-53516257D01*
X27773333Y-53659114D01*
X27725714Y-53754352D01*
X27678095Y-53801971D01*
X27582857Y-53849590D01*
X27201904Y-53849590D01*
X28725714Y-54325780D02*
X28154285Y-54325780D01*
X28440000Y-54325780D02*
X28440000Y-53325780D01*
X28344761Y-53468638D01*
X28249523Y-53563876D01*
X28154285Y-53611495D01*
X20178780Y-47980504D02*
X20988304Y-47980504D01*
X21083542Y-47932885D01*
X21131161Y-47885266D01*
X21178780Y-47790028D01*
X21178780Y-47599552D01*
X21131161Y-47504314D01*
X21083542Y-47456695D01*
X20988304Y-47409076D01*
X20178780Y-47409076D01*
X20274019Y-46980504D02*
X20226400Y-46932885D01*
X20178780Y-46837647D01*
X20178780Y-46599552D01*
X20226400Y-46504314D01*
X20274019Y-46456695D01*
X20369257Y-46409076D01*
X20464495Y-46409076D01*
X20607352Y-46456695D01*
X21178780Y-47028123D01*
X21178780Y-46409076D01*
X42805361Y-56097419D02*
X42710123Y-56049800D01*
X42614885Y-55954561D01*
X42472028Y-55811704D01*
X42376790Y-55764085D01*
X42281552Y-55764085D01*
X42329171Y-56002180D02*
X42233933Y-55954561D01*
X42138695Y-55859323D01*
X42091076Y-55668847D01*
X42091076Y-55335514D01*
X42138695Y-55145038D01*
X42233933Y-55049800D01*
X42329171Y-55002180D01*
X42519647Y-55002180D01*
X42614885Y-55049800D01*
X42710123Y-55145038D01*
X42757742Y-55335514D01*
X42757742Y-55668847D01*
X42710123Y-55859323D01*
X42614885Y-55954561D01*
X42519647Y-56002180D01*
X42329171Y-56002180D01*
X43710123Y-56002180D02*
X43138695Y-56002180D01*
X43424409Y-56002180D02*
X43424409Y-55002180D01*
X43329171Y-55145038D01*
X43233933Y-55240276D01*
X43138695Y-55287895D01*
X31011904Y-42057580D02*
X31011904Y-41057580D01*
X31583333Y-42057580D02*
X31154761Y-41486152D01*
X31583333Y-41057580D02*
X31011904Y-41629009D01*
X32535714Y-42057580D02*
X31964285Y-42057580D01*
X32250000Y-42057580D02*
X32250000Y-41057580D01*
X32154761Y-41200438D01*
X32059523Y-41295676D01*
X31964285Y-41343295D01*
M02*
