G04 #@! TF.GenerationSoftware,KiCad,Pcbnew,5.1.5-52549c5~86~ubuntu18.04.1*
G04 #@! TF.CreationDate,2020-09-05T13:09:40-05:00*
G04 #@! TF.ProjectId,B01,4230312e-6b69-4636-9164-5f7063625858,rev?*
G04 #@! TF.SameCoordinates,Original*
G04 #@! TF.FileFunction,Soldermask,Top*
G04 #@! TF.FilePolarity,Negative*
%FSLAX46Y46*%
G04 Gerber Fmt 4.6, Leading zero omitted, Abs format (unit mm)*
G04 Created by KiCad (PCBNEW 5.1.5-52549c5~86~ubuntu18.04.1) date 2020-09-05 13:09:40*
%MOMM*%
%LPD*%
G04 APERTURE LIST*
%ADD10C,0.100000*%
G04 APERTURE END LIST*
D10*
G36*
X24103903Y-32447075D02*
G01*
X24262410Y-32478604D01*
X24544674Y-32595521D01*
X24798705Y-32765259D01*
X25014741Y-32981295D01*
X25184479Y-33235326D01*
X25301396Y-33517590D01*
X25301396Y-33517591D01*
X25352243Y-33773213D01*
X25361000Y-33817240D01*
X25361000Y-34122760D01*
X25301396Y-34422410D01*
X25184479Y-34704674D01*
X25014741Y-34958705D01*
X24798705Y-35174741D01*
X24544674Y-35344479D01*
X24262410Y-35461396D01*
X24112585Y-35491198D01*
X23962761Y-35521000D01*
X23657239Y-35521000D01*
X23507415Y-35491198D01*
X23357590Y-35461396D01*
X23075326Y-35344479D01*
X22821295Y-35174741D01*
X22605259Y-34958705D01*
X22435521Y-34704674D01*
X22318604Y-34422410D01*
X22259000Y-34122760D01*
X22259000Y-33817240D01*
X22267758Y-33773213D01*
X22318604Y-33517591D01*
X22318604Y-33517590D01*
X22435521Y-33235326D01*
X22605259Y-32981295D01*
X22821295Y-32765259D01*
X23075326Y-32595521D01*
X23357590Y-32478604D01*
X23516097Y-32447075D01*
X23657239Y-32419000D01*
X23962761Y-32419000D01*
X24103903Y-32447075D01*
G37*
G36*
X44423903Y-32447075D02*
G01*
X44582410Y-32478604D01*
X44864674Y-32595521D01*
X45118705Y-32765259D01*
X45334741Y-32981295D01*
X45504479Y-33235326D01*
X45621396Y-33517590D01*
X45621396Y-33517591D01*
X45672243Y-33773213D01*
X45681000Y-33817240D01*
X45681000Y-34122760D01*
X45621396Y-34422410D01*
X45504479Y-34704674D01*
X45334741Y-34958705D01*
X45118705Y-35174741D01*
X44864674Y-35344479D01*
X44582410Y-35461396D01*
X44432585Y-35491198D01*
X44282761Y-35521000D01*
X43977239Y-35521000D01*
X43827415Y-35491198D01*
X43677590Y-35461396D01*
X43395326Y-35344479D01*
X43141295Y-35174741D01*
X42925259Y-34958705D01*
X42755521Y-34704674D01*
X42638604Y-34422410D01*
X42579000Y-34122760D01*
X42579000Y-33817240D01*
X42587758Y-33773213D01*
X42638604Y-33517591D01*
X42638604Y-33517590D01*
X42755521Y-33235326D01*
X42925259Y-32981295D01*
X43141295Y-32765259D01*
X43395326Y-32595521D01*
X43677590Y-32478604D01*
X43836097Y-32447075D01*
X43977239Y-32419000D01*
X44282761Y-32419000D01*
X44423903Y-32447075D01*
G37*
G36*
X32584903Y-32447075D02*
G01*
X32812571Y-32541378D01*
X33017466Y-32678285D01*
X33191715Y-32852534D01*
X33328622Y-33057429D01*
X33422925Y-33285097D01*
X33471000Y-33526787D01*
X33471000Y-33773213D01*
X33422925Y-34014903D01*
X33328622Y-34242571D01*
X33191715Y-34447466D01*
X33017466Y-34621715D01*
X32812571Y-34758622D01*
X32812570Y-34758623D01*
X32812569Y-34758623D01*
X32584903Y-34852925D01*
X32343214Y-34901000D01*
X32096786Y-34901000D01*
X31855097Y-34852925D01*
X31627431Y-34758623D01*
X31627430Y-34758623D01*
X31627429Y-34758622D01*
X31422534Y-34621715D01*
X31248285Y-34447466D01*
X31111378Y-34242571D01*
X31017075Y-34014903D01*
X30969000Y-33773213D01*
X30969000Y-33526787D01*
X31017075Y-33285097D01*
X31111378Y-33057429D01*
X31248285Y-32852534D01*
X31422534Y-32678285D01*
X31627429Y-32541378D01*
X31855097Y-32447075D01*
X32096786Y-32399000D01*
X32343214Y-32399000D01*
X32584903Y-32447075D01*
G37*
G36*
X29971000Y-34901000D02*
G01*
X27469000Y-34901000D01*
X27469000Y-32399000D01*
X29971000Y-32399000D01*
X29971000Y-34901000D01*
G37*
G36*
X36084903Y-32447075D02*
G01*
X36312571Y-32541378D01*
X36517466Y-32678285D01*
X36691715Y-32852534D01*
X36828622Y-33057429D01*
X36922925Y-33285097D01*
X36971000Y-33526787D01*
X36971000Y-33773213D01*
X36922925Y-34014903D01*
X36828622Y-34242571D01*
X36691715Y-34447466D01*
X36517466Y-34621715D01*
X36312571Y-34758622D01*
X36312570Y-34758623D01*
X36312569Y-34758623D01*
X36084903Y-34852925D01*
X35843214Y-34901000D01*
X35596786Y-34901000D01*
X35355097Y-34852925D01*
X35127431Y-34758623D01*
X35127430Y-34758623D01*
X35127429Y-34758622D01*
X34922534Y-34621715D01*
X34748285Y-34447466D01*
X34611378Y-34242571D01*
X34517075Y-34014903D01*
X34469000Y-33773213D01*
X34469000Y-33526787D01*
X34517075Y-33285097D01*
X34611378Y-33057429D01*
X34748285Y-32852534D01*
X34922534Y-32678285D01*
X35127429Y-32541378D01*
X35355097Y-32447075D01*
X35596786Y-32399000D01*
X35843214Y-32399000D01*
X36084903Y-32447075D01*
G37*
G36*
X39584903Y-32447075D02*
G01*
X39812571Y-32541378D01*
X40017466Y-32678285D01*
X40191715Y-32852534D01*
X40328622Y-33057429D01*
X40422925Y-33285097D01*
X40471000Y-33526787D01*
X40471000Y-33773213D01*
X40422925Y-34014903D01*
X40328622Y-34242571D01*
X40191715Y-34447466D01*
X40017466Y-34621715D01*
X39812571Y-34758622D01*
X39812570Y-34758623D01*
X39812569Y-34758623D01*
X39584903Y-34852925D01*
X39343214Y-34901000D01*
X39096786Y-34901000D01*
X38855097Y-34852925D01*
X38627431Y-34758623D01*
X38627430Y-34758623D01*
X38627429Y-34758622D01*
X38422534Y-34621715D01*
X38248285Y-34447466D01*
X38111378Y-34242571D01*
X38017075Y-34014903D01*
X37969000Y-33773213D01*
X37969000Y-33526787D01*
X38017075Y-33285097D01*
X38111378Y-33057429D01*
X38248285Y-32852534D01*
X38422534Y-32678285D01*
X38627429Y-32541378D01*
X38855097Y-32447075D01*
X39096786Y-32399000D01*
X39343214Y-32399000D01*
X39584903Y-32447075D01*
G37*
G36*
X44509393Y-27639304D02*
G01*
X44746101Y-27737352D01*
X44746103Y-27737353D01*
X44959135Y-27879696D01*
X45140304Y-28060865D01*
X45282647Y-28273897D01*
X45282648Y-28273899D01*
X45380696Y-28510607D01*
X45430680Y-28761893D01*
X45430680Y-29018107D01*
X45380696Y-29269393D01*
X45282648Y-29506101D01*
X45282647Y-29506103D01*
X45140304Y-29719135D01*
X44959135Y-29900304D01*
X44746103Y-30042647D01*
X44746102Y-30042648D01*
X44746101Y-30042648D01*
X44509393Y-30140696D01*
X44258107Y-30190680D01*
X44001893Y-30190680D01*
X43750607Y-30140696D01*
X43513899Y-30042648D01*
X43513898Y-30042648D01*
X43513897Y-30042647D01*
X43300865Y-29900304D01*
X43119696Y-29719135D01*
X42977353Y-29506103D01*
X42977352Y-29506101D01*
X42879304Y-29269393D01*
X42829320Y-29018107D01*
X42829320Y-28761893D01*
X42879304Y-28510607D01*
X42977352Y-28273899D01*
X42977353Y-28273897D01*
X43119696Y-28060865D01*
X43300865Y-27879696D01*
X43513897Y-27737353D01*
X43513899Y-27737352D01*
X43750607Y-27639304D01*
X44001893Y-27589320D01*
X44258107Y-27589320D01*
X44509393Y-27639304D01*
G37*
G36*
X24189393Y-27639304D02*
G01*
X24426101Y-27737352D01*
X24426103Y-27737353D01*
X24639135Y-27879696D01*
X24820304Y-28060865D01*
X24962647Y-28273897D01*
X24962648Y-28273899D01*
X25060696Y-28510607D01*
X25110680Y-28761893D01*
X25110680Y-29018107D01*
X25060696Y-29269393D01*
X24962648Y-29506101D01*
X24962647Y-29506103D01*
X24820304Y-29719135D01*
X24639135Y-29900304D01*
X24426103Y-30042647D01*
X24426102Y-30042648D01*
X24426101Y-30042648D01*
X24189393Y-30140696D01*
X23938107Y-30190680D01*
X23681893Y-30190680D01*
X23430607Y-30140696D01*
X23193899Y-30042648D01*
X23193898Y-30042648D01*
X23193897Y-30042647D01*
X22980865Y-29900304D01*
X22799696Y-29719135D01*
X22657353Y-29506103D01*
X22657352Y-29506101D01*
X22559304Y-29269393D01*
X22509320Y-29018107D01*
X22509320Y-28761893D01*
X22559304Y-28510607D01*
X22657352Y-28273899D01*
X22657353Y-28273897D01*
X22799696Y-28060865D01*
X22980865Y-27879696D01*
X23193897Y-27737353D01*
X23193899Y-27737352D01*
X23430607Y-27639304D01*
X23681893Y-27589320D01*
X23938107Y-27589320D01*
X24189393Y-27639304D01*
G37*
G36*
X29084903Y-22927075D02*
G01*
X29312571Y-23021378D01*
X29517466Y-23158285D01*
X29691715Y-23332534D01*
X29828622Y-23537429D01*
X29922925Y-23765097D01*
X29971000Y-24006787D01*
X29971000Y-24253213D01*
X29922925Y-24494903D01*
X29828622Y-24722571D01*
X29691715Y-24927466D01*
X29517466Y-25101715D01*
X29312571Y-25238622D01*
X29312570Y-25238623D01*
X29312569Y-25238623D01*
X29084903Y-25332925D01*
X28843214Y-25381000D01*
X28596786Y-25381000D01*
X28355097Y-25332925D01*
X28127431Y-25238623D01*
X28127430Y-25238623D01*
X28127429Y-25238622D01*
X27922534Y-25101715D01*
X27748285Y-24927466D01*
X27611378Y-24722571D01*
X27517075Y-24494903D01*
X27469000Y-24253213D01*
X27469000Y-24006787D01*
X27517075Y-23765097D01*
X27611378Y-23537429D01*
X27748285Y-23332534D01*
X27922534Y-23158285D01*
X28127429Y-23021378D01*
X28355097Y-22927075D01*
X28596786Y-22879000D01*
X28843214Y-22879000D01*
X29084903Y-22927075D01*
G37*
G36*
X40471000Y-25381000D02*
G01*
X37969000Y-25381000D01*
X37969000Y-22879000D01*
X40471000Y-22879000D01*
X40471000Y-25381000D01*
G37*
G36*
X36084903Y-22927075D02*
G01*
X36312571Y-23021378D01*
X36517466Y-23158285D01*
X36691715Y-23332534D01*
X36828622Y-23537429D01*
X36922925Y-23765097D01*
X36971000Y-24006787D01*
X36971000Y-24253213D01*
X36922925Y-24494903D01*
X36828622Y-24722571D01*
X36691715Y-24927466D01*
X36517466Y-25101715D01*
X36312571Y-25238622D01*
X36312570Y-25238623D01*
X36312569Y-25238623D01*
X36084903Y-25332925D01*
X35843214Y-25381000D01*
X35596786Y-25381000D01*
X35355097Y-25332925D01*
X35127431Y-25238623D01*
X35127430Y-25238623D01*
X35127429Y-25238622D01*
X34922534Y-25101715D01*
X34748285Y-24927466D01*
X34611378Y-24722571D01*
X34517075Y-24494903D01*
X34469000Y-24253213D01*
X34469000Y-24006787D01*
X34517075Y-23765097D01*
X34611378Y-23537429D01*
X34748285Y-23332534D01*
X34922534Y-23158285D01*
X35127429Y-23021378D01*
X35355097Y-22927075D01*
X35596786Y-22879000D01*
X35843214Y-22879000D01*
X36084903Y-22927075D01*
G37*
G36*
X32584903Y-22927075D02*
G01*
X32812571Y-23021378D01*
X33017466Y-23158285D01*
X33191715Y-23332534D01*
X33328622Y-23537429D01*
X33422925Y-23765097D01*
X33471000Y-24006787D01*
X33471000Y-24253213D01*
X33422925Y-24494903D01*
X33328622Y-24722571D01*
X33191715Y-24927466D01*
X33017466Y-25101715D01*
X32812571Y-25238622D01*
X32812570Y-25238623D01*
X32812569Y-25238623D01*
X32584903Y-25332925D01*
X32343214Y-25381000D01*
X32096786Y-25381000D01*
X31855097Y-25332925D01*
X31627431Y-25238623D01*
X31627430Y-25238623D01*
X31627429Y-25238622D01*
X31422534Y-25101715D01*
X31248285Y-24927466D01*
X31111378Y-24722571D01*
X31017075Y-24494903D01*
X30969000Y-24253213D01*
X30969000Y-24006787D01*
X31017075Y-23765097D01*
X31111378Y-23537429D01*
X31248285Y-23332534D01*
X31422534Y-23158285D01*
X31627429Y-23021378D01*
X31855097Y-22927075D01*
X32096786Y-22879000D01*
X32343214Y-22879000D01*
X32584903Y-22927075D01*
G37*
G36*
X24112585Y-22288802D02*
G01*
X24262410Y-22318604D01*
X24544674Y-22435521D01*
X24798705Y-22605259D01*
X25014741Y-22821295D01*
X25184479Y-23075326D01*
X25291018Y-23332536D01*
X25301396Y-23357591D01*
X25361000Y-23657239D01*
X25361000Y-23962761D01*
X25331198Y-24112585D01*
X25301396Y-24262410D01*
X25184479Y-24544674D01*
X25014741Y-24798705D01*
X24798705Y-25014741D01*
X24544674Y-25184479D01*
X24262410Y-25301396D01*
X24112585Y-25331198D01*
X23962761Y-25361000D01*
X23657239Y-25361000D01*
X23507415Y-25331198D01*
X23357590Y-25301396D01*
X23075326Y-25184479D01*
X22821295Y-25014741D01*
X22605259Y-24798705D01*
X22435521Y-24544674D01*
X22318604Y-24262410D01*
X22288802Y-24112585D01*
X22259000Y-23962761D01*
X22259000Y-23657239D01*
X22318604Y-23357591D01*
X22328982Y-23332536D01*
X22435521Y-23075326D01*
X22605259Y-22821295D01*
X22821295Y-22605259D01*
X23075326Y-22435521D01*
X23357590Y-22318604D01*
X23507415Y-22288802D01*
X23657239Y-22259000D01*
X23962761Y-22259000D01*
X24112585Y-22288802D01*
G37*
G36*
X44432585Y-22288802D02*
G01*
X44582410Y-22318604D01*
X44864674Y-22435521D01*
X45118705Y-22605259D01*
X45334741Y-22821295D01*
X45504479Y-23075326D01*
X45611018Y-23332536D01*
X45621396Y-23357591D01*
X45681000Y-23657239D01*
X45681000Y-23962761D01*
X45651198Y-24112585D01*
X45621396Y-24262410D01*
X45504479Y-24544674D01*
X45334741Y-24798705D01*
X45118705Y-25014741D01*
X44864674Y-25184479D01*
X44582410Y-25301396D01*
X44432585Y-25331198D01*
X44282761Y-25361000D01*
X43977239Y-25361000D01*
X43827415Y-25331198D01*
X43677590Y-25301396D01*
X43395326Y-25184479D01*
X43141295Y-25014741D01*
X42925259Y-24798705D01*
X42755521Y-24544674D01*
X42638604Y-24262410D01*
X42608802Y-24112585D01*
X42579000Y-23962761D01*
X42579000Y-23657239D01*
X42638604Y-23357591D01*
X42648982Y-23332536D01*
X42755521Y-23075326D01*
X42925259Y-22821295D01*
X43141295Y-22605259D01*
X43395326Y-22435521D01*
X43677590Y-22318604D01*
X43827415Y-22288802D01*
X43977239Y-22259000D01*
X44282761Y-22259000D01*
X44432585Y-22288802D01*
G37*
M02*
