G04 #@! TF.GenerationSoftware,KiCad,Pcbnew,5.1.5-52549c5~86~ubuntu18.04.1*
G04 #@! TF.CreationDate,2020-08-18T13:39:39-05:00*
G04 #@! TF.ProjectId,A00,4130302e-6b69-4636-9164-5f7063625858,rev?*
G04 #@! TF.SameCoordinates,Original*
G04 #@! TF.FileFunction,Legend,Top*
G04 #@! TF.FilePolarity,Positive*
%FSLAX46Y46*%
G04 Gerber Fmt 4.6, Leading zero omitted, Abs format (unit mm)*
G04 Created by KiCad (PCBNEW 5.1.5-52549c5~86~ubuntu18.04.1) date 2020-08-18 13:39:39*
%MOMM*%
%LPD*%
G04 APERTURE LIST*
%ADD10C,0.150000*%
%ADD11C,0.010000*%
G04 APERTURE END LIST*
D10*
X113775600Y-148027200D02*
X114489885Y-148027200D01*
X113632742Y-148455771D02*
X114132742Y-146955771D01*
X114632742Y-148455771D01*
X115418457Y-146955771D02*
X115561314Y-146955771D01*
X115704171Y-147027200D01*
X115775600Y-147098628D01*
X115847028Y-147241485D01*
X115918457Y-147527200D01*
X115918457Y-147884342D01*
X115847028Y-148170057D01*
X115775600Y-148312914D01*
X115704171Y-148384342D01*
X115561314Y-148455771D01*
X115418457Y-148455771D01*
X115275600Y-148384342D01*
X115204171Y-148312914D01*
X115132742Y-148170057D01*
X115061314Y-147884342D01*
X115061314Y-147527200D01*
X115132742Y-147241485D01*
X115204171Y-147098628D01*
X115275600Y-147027200D01*
X115418457Y-146955771D01*
X116847028Y-146955771D02*
X116989885Y-146955771D01*
X117132742Y-147027200D01*
X117204171Y-147098628D01*
X117275600Y-147241485D01*
X117347028Y-147527200D01*
X117347028Y-147884342D01*
X117275600Y-148170057D01*
X117204171Y-148312914D01*
X117132742Y-148384342D01*
X116989885Y-148455771D01*
X116847028Y-148455771D01*
X116704171Y-148384342D01*
X116632742Y-148312914D01*
X116561314Y-148170057D01*
X116489885Y-147884342D01*
X116489885Y-147527200D01*
X116561314Y-147241485D01*
X116632742Y-147098628D01*
X116704171Y-147027200D01*
X116847028Y-146955771D01*
X117632742Y-148598628D02*
X118775600Y-148598628D01*
X119632742Y-147670057D02*
X119847028Y-147741485D01*
X119918457Y-147812914D01*
X119989885Y-147955771D01*
X119989885Y-148170057D01*
X119918457Y-148312914D01*
X119847028Y-148384342D01*
X119704171Y-148455771D01*
X119132742Y-148455771D01*
X119132742Y-146955771D01*
X119632742Y-146955771D01*
X119775600Y-147027200D01*
X119847028Y-147098628D01*
X119918457Y-147241485D01*
X119918457Y-147384342D01*
X119847028Y-147527200D01*
X119775600Y-147598628D01*
X119632742Y-147670057D01*
X119132742Y-147670057D01*
X120561314Y-148027200D02*
X121275600Y-148027200D01*
X120418457Y-148455771D02*
X120918457Y-146955771D01*
X121418457Y-148455771D01*
X122775600Y-148312914D02*
X122704171Y-148384342D01*
X122489885Y-148455771D01*
X122347028Y-148455771D01*
X122132742Y-148384342D01*
X121989885Y-148241485D01*
X121918457Y-148098628D01*
X121847028Y-147812914D01*
X121847028Y-147598628D01*
X121918457Y-147312914D01*
X121989885Y-147170057D01*
X122132742Y-147027200D01*
X122347028Y-146955771D01*
X122489885Y-146955771D01*
X122704171Y-147027200D01*
X122775600Y-147098628D01*
X123418457Y-148455771D02*
X123418457Y-146955771D01*
X124275600Y-148455771D02*
X123632742Y-147598628D01*
X124275600Y-146955771D02*
X123418457Y-147812914D01*
X124918457Y-148455771D02*
X124918457Y-146955771D01*
X125489885Y-146955771D01*
X125632742Y-147027200D01*
X125704171Y-147098628D01*
X125775600Y-147241485D01*
X125775600Y-147455771D01*
X125704171Y-147598628D01*
X125632742Y-147670057D01*
X125489885Y-147741485D01*
X124918457Y-147741485D01*
X127132742Y-148455771D02*
X126418457Y-148455771D01*
X126418457Y-146955771D01*
X127561314Y-148027200D02*
X128275600Y-148027200D01*
X127418457Y-148455771D02*
X127918457Y-146955771D01*
X128418457Y-148455771D01*
X128704171Y-146955771D02*
X129561314Y-146955771D01*
X129132742Y-148455771D02*
X129132742Y-146955771D01*
X130061314Y-147670057D02*
X130561314Y-147670057D01*
X130775600Y-148455771D02*
X130061314Y-148455771D01*
X130061314Y-146955771D01*
X130775600Y-146955771D01*
D11*
G36*
X122729814Y-126805731D02*
G01*
X122813635Y-127250355D01*
X123122920Y-127377853D01*
X123432206Y-127505351D01*
X123803246Y-127253046D01*
X123907157Y-127182796D01*
X124001087Y-127120072D01*
X124080652Y-127067738D01*
X124141470Y-127028657D01*
X124179157Y-127005693D01*
X124189421Y-127000742D01*
X124207910Y-127013476D01*
X124247420Y-127048682D01*
X124303522Y-127101862D01*
X124371787Y-127168518D01*
X124447786Y-127244154D01*
X124527092Y-127324272D01*
X124605275Y-127404374D01*
X124677907Y-127479964D01*
X124740559Y-127546545D01*
X124788803Y-127599618D01*
X124818210Y-127634687D01*
X124825241Y-127646423D01*
X124815123Y-127668060D01*
X124786759Y-127715462D01*
X124743129Y-127783993D01*
X124687218Y-127869015D01*
X124622006Y-127965893D01*
X124584219Y-128021150D01*
X124515343Y-128122048D01*
X124454140Y-128213099D01*
X124403578Y-128289770D01*
X124366628Y-128347528D01*
X124346258Y-128381843D01*
X124343197Y-128389054D01*
X124350136Y-128409548D01*
X124369051Y-128457313D01*
X124397087Y-128525632D01*
X124431391Y-128607789D01*
X124469109Y-128697070D01*
X124507387Y-128786758D01*
X124543370Y-128870138D01*
X124574206Y-128940494D01*
X124597039Y-128991110D01*
X124609017Y-129015271D01*
X124609724Y-129016222D01*
X124628531Y-129020836D01*
X124678618Y-129031128D01*
X124754793Y-129046087D01*
X124851865Y-129064701D01*
X124964643Y-129085959D01*
X125030442Y-129098218D01*
X125150950Y-129121162D01*
X125259797Y-129142995D01*
X125351476Y-129162522D01*
X125420481Y-129178548D01*
X125461304Y-129189879D01*
X125469511Y-129193474D01*
X125477548Y-129217806D01*
X125484033Y-129272759D01*
X125488970Y-129351908D01*
X125492364Y-129448826D01*
X125494218Y-129557087D01*
X125494538Y-129670265D01*
X125493327Y-129781935D01*
X125490590Y-129885668D01*
X125486331Y-129975041D01*
X125480555Y-130043626D01*
X125473267Y-130084997D01*
X125468895Y-130093610D01*
X125442764Y-130103933D01*
X125387393Y-130118692D01*
X125310107Y-130136152D01*
X125218230Y-130154580D01*
X125186158Y-130160541D01*
X125031524Y-130188866D01*
X124909375Y-130211676D01*
X124815673Y-130229880D01*
X124746384Y-130244383D01*
X124697471Y-130256092D01*
X124664897Y-130265915D01*
X124644628Y-130274756D01*
X124632626Y-130283524D01*
X124630947Y-130285257D01*
X124614184Y-130313171D01*
X124588614Y-130367495D01*
X124556788Y-130441577D01*
X124521260Y-130528765D01*
X124484583Y-130622408D01*
X124449311Y-130715852D01*
X124417996Y-130802447D01*
X124393193Y-130875540D01*
X124377454Y-130928478D01*
X124373332Y-130954611D01*
X124373676Y-130955526D01*
X124387641Y-130976886D01*
X124419322Y-131023884D01*
X124465391Y-131091627D01*
X124522518Y-131175223D01*
X124587373Y-131269782D01*
X124605843Y-131296654D01*
X124671699Y-131394075D01*
X124729650Y-131482963D01*
X124776538Y-131558212D01*
X124809207Y-131614720D01*
X124824500Y-131647381D01*
X124825241Y-131651393D01*
X124812392Y-131672484D01*
X124776888Y-131714264D01*
X124723293Y-131772245D01*
X124656171Y-131841935D01*
X124580087Y-131918845D01*
X124499604Y-131998483D01*
X124419287Y-132076361D01*
X124343699Y-132147986D01*
X124277405Y-132208870D01*
X124224969Y-132254521D01*
X124190955Y-132280450D01*
X124181545Y-132284683D01*
X124159643Y-132274712D01*
X124114800Y-132247820D01*
X124054321Y-132208536D01*
X124007789Y-132176917D01*
X123923475Y-132118898D01*
X123823626Y-132050584D01*
X123723473Y-131982379D01*
X123669627Y-131945875D01*
X123487371Y-131822600D01*
X123334381Y-131905320D01*
X123264682Y-131941559D01*
X123205414Y-131969726D01*
X123165311Y-131985791D01*
X123155103Y-131988026D01*
X123142829Y-131971522D01*
X123118613Y-131924882D01*
X123084263Y-131852409D01*
X123041588Y-131758406D01*
X122992394Y-131647174D01*
X122938490Y-131523015D01*
X122881684Y-131390232D01*
X122823782Y-131253127D01*
X122766593Y-131116002D01*
X122711924Y-130983158D01*
X122661584Y-130858898D01*
X122617380Y-130747525D01*
X122581119Y-130653339D01*
X122554609Y-130580644D01*
X122539658Y-130533741D01*
X122537254Y-130517633D01*
X122556311Y-130497086D01*
X122598036Y-130463733D01*
X122653706Y-130424502D01*
X122658378Y-130421399D01*
X122802264Y-130306223D01*
X122918283Y-130171853D01*
X123005430Y-130022584D01*
X123062699Y-129862713D01*
X123089086Y-129696537D01*
X123083585Y-129528352D01*
X123045190Y-129362455D01*
X122972895Y-129203142D01*
X122951626Y-129168287D01*
X122840996Y-129027537D01*
X122710302Y-128914514D01*
X122564064Y-128829803D01*
X122406808Y-128773994D01*
X122243057Y-128747674D01*
X122077333Y-128751430D01*
X121914162Y-128785850D01*
X121758065Y-128851523D01*
X121613567Y-128949035D01*
X121568869Y-128988613D01*
X121455112Y-129112503D01*
X121372218Y-129242924D01*
X121315356Y-129389115D01*
X121283687Y-129533888D01*
X121275869Y-129696660D01*
X121301938Y-129860240D01*
X121359245Y-130019098D01*
X121445144Y-130167706D01*
X121556986Y-130300535D01*
X121692123Y-130412056D01*
X121709883Y-130423811D01*
X121766150Y-130462308D01*
X121808923Y-130495663D01*
X121829372Y-130516960D01*
X121829669Y-130517633D01*
X121825279Y-130540671D01*
X121807876Y-130592957D01*
X121779268Y-130670190D01*
X121741265Y-130768068D01*
X121695674Y-130882291D01*
X121644303Y-131008558D01*
X121588962Y-131142567D01*
X121531458Y-131280018D01*
X121473601Y-131416608D01*
X121417198Y-131548037D01*
X121364058Y-131670005D01*
X121315990Y-131778209D01*
X121274801Y-131868349D01*
X121242301Y-131936123D01*
X121220297Y-131977230D01*
X121211436Y-131988026D01*
X121184360Y-131979619D01*
X121133697Y-131957072D01*
X121068183Y-131924413D01*
X121032159Y-131905320D01*
X120879168Y-131822600D01*
X120696912Y-131945875D01*
X120603875Y-132009028D01*
X120502015Y-132078527D01*
X120406562Y-132143965D01*
X120358750Y-132176917D01*
X120291505Y-132222073D01*
X120234564Y-132257857D01*
X120195354Y-132279738D01*
X120182619Y-132284363D01*
X120164083Y-132271885D01*
X120123059Y-132237052D01*
X120063525Y-132183478D01*
X119989458Y-132114783D01*
X119904835Y-132034581D01*
X119851315Y-131983086D01*
X119757681Y-131891086D01*
X119676759Y-131808799D01*
X119611823Y-131739745D01*
X119566142Y-131687444D01*
X119542989Y-131655416D01*
X119540768Y-131648916D01*
X119551076Y-131624194D01*
X119579561Y-131574205D01*
X119623063Y-131504012D01*
X119678423Y-131418675D01*
X119742480Y-131323256D01*
X119760697Y-131296654D01*
X119827073Y-131199967D01*
X119886622Y-131112917D01*
X119936016Y-131040395D01*
X119971925Y-130987293D01*
X119991019Y-130958503D01*
X119992864Y-130955526D01*
X119990105Y-130932582D01*
X119975462Y-130882136D01*
X119951487Y-130810841D01*
X119920734Y-130725347D01*
X119885756Y-130632307D01*
X119849107Y-130538374D01*
X119813339Y-130450199D01*
X119781006Y-130374434D01*
X119754662Y-130317731D01*
X119736858Y-130286743D01*
X119735593Y-130285257D01*
X119724706Y-130276401D01*
X119706318Y-130267643D01*
X119676394Y-130258077D01*
X119630897Y-130246796D01*
X119565791Y-130232893D01*
X119477039Y-130215463D01*
X119360607Y-130193598D01*
X119212458Y-130166391D01*
X119180382Y-130160541D01*
X119085314Y-130142174D01*
X119002435Y-130124205D01*
X118939070Y-130108369D01*
X118902542Y-130096400D01*
X118897644Y-130093610D01*
X118889573Y-130068872D01*
X118883013Y-130013590D01*
X118877967Y-129934189D01*
X118874441Y-129837096D01*
X118872439Y-129728738D01*
X118871964Y-129615540D01*
X118873023Y-129503928D01*
X118875618Y-129400329D01*
X118879754Y-129311168D01*
X118885437Y-129242872D01*
X118892669Y-129201866D01*
X118897029Y-129193474D01*
X118921302Y-129185008D01*
X118976574Y-129171235D01*
X119057338Y-129153350D01*
X119158088Y-129132548D01*
X119273317Y-129110023D01*
X119336098Y-129098218D01*
X119455213Y-129075951D01*
X119561435Y-129055779D01*
X119649573Y-129038715D01*
X119714434Y-129025769D01*
X119750826Y-129017955D01*
X119756816Y-129016222D01*
X119766939Y-128996690D01*
X119788338Y-128949643D01*
X119818161Y-128881803D01*
X119853555Y-128799891D01*
X119891668Y-128710628D01*
X119929647Y-128620735D01*
X119964640Y-128536935D01*
X119993794Y-128465947D01*
X120014257Y-128414494D01*
X120023177Y-128389297D01*
X120023343Y-128388196D01*
X120013231Y-128368319D01*
X119984883Y-128322577D01*
X119941277Y-128255517D01*
X119885394Y-128171684D01*
X119820213Y-128075626D01*
X119782321Y-128020450D01*
X119713275Y-127919281D01*
X119651950Y-127827430D01*
X119601337Y-127749544D01*
X119564429Y-127690269D01*
X119544218Y-127654251D01*
X119541299Y-127646177D01*
X119553847Y-127627384D01*
X119588537Y-127587257D01*
X119640937Y-127530293D01*
X119706616Y-127460985D01*
X119781144Y-127383831D01*
X119860087Y-127303325D01*
X119939017Y-127223963D01*
X120013500Y-127150240D01*
X120079106Y-127086652D01*
X120131404Y-127037694D01*
X120165961Y-127007861D01*
X120177522Y-127000742D01*
X120196346Y-127010753D01*
X120241369Y-127038878D01*
X120308213Y-127082254D01*
X120392501Y-127138018D01*
X120489856Y-127203306D01*
X120563293Y-127253046D01*
X120934333Y-127505351D01*
X121552905Y-127250355D01*
X121636725Y-126805731D01*
X121720546Y-126361107D01*
X122645994Y-126361107D01*
X122729814Y-126805731D01*
G37*
X122729814Y-126805731D02*
X122813635Y-127250355D01*
X123122920Y-127377853D01*
X123432206Y-127505351D01*
X123803246Y-127253046D01*
X123907157Y-127182796D01*
X124001087Y-127120072D01*
X124080652Y-127067738D01*
X124141470Y-127028657D01*
X124179157Y-127005693D01*
X124189421Y-127000742D01*
X124207910Y-127013476D01*
X124247420Y-127048682D01*
X124303522Y-127101862D01*
X124371787Y-127168518D01*
X124447786Y-127244154D01*
X124527092Y-127324272D01*
X124605275Y-127404374D01*
X124677907Y-127479964D01*
X124740559Y-127546545D01*
X124788803Y-127599618D01*
X124818210Y-127634687D01*
X124825241Y-127646423D01*
X124815123Y-127668060D01*
X124786759Y-127715462D01*
X124743129Y-127783993D01*
X124687218Y-127869015D01*
X124622006Y-127965893D01*
X124584219Y-128021150D01*
X124515343Y-128122048D01*
X124454140Y-128213099D01*
X124403578Y-128289770D01*
X124366628Y-128347528D01*
X124346258Y-128381843D01*
X124343197Y-128389054D01*
X124350136Y-128409548D01*
X124369051Y-128457313D01*
X124397087Y-128525632D01*
X124431391Y-128607789D01*
X124469109Y-128697070D01*
X124507387Y-128786758D01*
X124543370Y-128870138D01*
X124574206Y-128940494D01*
X124597039Y-128991110D01*
X124609017Y-129015271D01*
X124609724Y-129016222D01*
X124628531Y-129020836D01*
X124678618Y-129031128D01*
X124754793Y-129046087D01*
X124851865Y-129064701D01*
X124964643Y-129085959D01*
X125030442Y-129098218D01*
X125150950Y-129121162D01*
X125259797Y-129142995D01*
X125351476Y-129162522D01*
X125420481Y-129178548D01*
X125461304Y-129189879D01*
X125469511Y-129193474D01*
X125477548Y-129217806D01*
X125484033Y-129272759D01*
X125488970Y-129351908D01*
X125492364Y-129448826D01*
X125494218Y-129557087D01*
X125494538Y-129670265D01*
X125493327Y-129781935D01*
X125490590Y-129885668D01*
X125486331Y-129975041D01*
X125480555Y-130043626D01*
X125473267Y-130084997D01*
X125468895Y-130093610D01*
X125442764Y-130103933D01*
X125387393Y-130118692D01*
X125310107Y-130136152D01*
X125218230Y-130154580D01*
X125186158Y-130160541D01*
X125031524Y-130188866D01*
X124909375Y-130211676D01*
X124815673Y-130229880D01*
X124746384Y-130244383D01*
X124697471Y-130256092D01*
X124664897Y-130265915D01*
X124644628Y-130274756D01*
X124632626Y-130283524D01*
X124630947Y-130285257D01*
X124614184Y-130313171D01*
X124588614Y-130367495D01*
X124556788Y-130441577D01*
X124521260Y-130528765D01*
X124484583Y-130622408D01*
X124449311Y-130715852D01*
X124417996Y-130802447D01*
X124393193Y-130875540D01*
X124377454Y-130928478D01*
X124373332Y-130954611D01*
X124373676Y-130955526D01*
X124387641Y-130976886D01*
X124419322Y-131023884D01*
X124465391Y-131091627D01*
X124522518Y-131175223D01*
X124587373Y-131269782D01*
X124605843Y-131296654D01*
X124671699Y-131394075D01*
X124729650Y-131482963D01*
X124776538Y-131558212D01*
X124809207Y-131614720D01*
X124824500Y-131647381D01*
X124825241Y-131651393D01*
X124812392Y-131672484D01*
X124776888Y-131714264D01*
X124723293Y-131772245D01*
X124656171Y-131841935D01*
X124580087Y-131918845D01*
X124499604Y-131998483D01*
X124419287Y-132076361D01*
X124343699Y-132147986D01*
X124277405Y-132208870D01*
X124224969Y-132254521D01*
X124190955Y-132280450D01*
X124181545Y-132284683D01*
X124159643Y-132274712D01*
X124114800Y-132247820D01*
X124054321Y-132208536D01*
X124007789Y-132176917D01*
X123923475Y-132118898D01*
X123823626Y-132050584D01*
X123723473Y-131982379D01*
X123669627Y-131945875D01*
X123487371Y-131822600D01*
X123334381Y-131905320D01*
X123264682Y-131941559D01*
X123205414Y-131969726D01*
X123165311Y-131985791D01*
X123155103Y-131988026D01*
X123142829Y-131971522D01*
X123118613Y-131924882D01*
X123084263Y-131852409D01*
X123041588Y-131758406D01*
X122992394Y-131647174D01*
X122938490Y-131523015D01*
X122881684Y-131390232D01*
X122823782Y-131253127D01*
X122766593Y-131116002D01*
X122711924Y-130983158D01*
X122661584Y-130858898D01*
X122617380Y-130747525D01*
X122581119Y-130653339D01*
X122554609Y-130580644D01*
X122539658Y-130533741D01*
X122537254Y-130517633D01*
X122556311Y-130497086D01*
X122598036Y-130463733D01*
X122653706Y-130424502D01*
X122658378Y-130421399D01*
X122802264Y-130306223D01*
X122918283Y-130171853D01*
X123005430Y-130022584D01*
X123062699Y-129862713D01*
X123089086Y-129696537D01*
X123083585Y-129528352D01*
X123045190Y-129362455D01*
X122972895Y-129203142D01*
X122951626Y-129168287D01*
X122840996Y-129027537D01*
X122710302Y-128914514D01*
X122564064Y-128829803D01*
X122406808Y-128773994D01*
X122243057Y-128747674D01*
X122077333Y-128751430D01*
X121914162Y-128785850D01*
X121758065Y-128851523D01*
X121613567Y-128949035D01*
X121568869Y-128988613D01*
X121455112Y-129112503D01*
X121372218Y-129242924D01*
X121315356Y-129389115D01*
X121283687Y-129533888D01*
X121275869Y-129696660D01*
X121301938Y-129860240D01*
X121359245Y-130019098D01*
X121445144Y-130167706D01*
X121556986Y-130300535D01*
X121692123Y-130412056D01*
X121709883Y-130423811D01*
X121766150Y-130462308D01*
X121808923Y-130495663D01*
X121829372Y-130516960D01*
X121829669Y-130517633D01*
X121825279Y-130540671D01*
X121807876Y-130592957D01*
X121779268Y-130670190D01*
X121741265Y-130768068D01*
X121695674Y-130882291D01*
X121644303Y-131008558D01*
X121588962Y-131142567D01*
X121531458Y-131280018D01*
X121473601Y-131416608D01*
X121417198Y-131548037D01*
X121364058Y-131670005D01*
X121315990Y-131778209D01*
X121274801Y-131868349D01*
X121242301Y-131936123D01*
X121220297Y-131977230D01*
X121211436Y-131988026D01*
X121184360Y-131979619D01*
X121133697Y-131957072D01*
X121068183Y-131924413D01*
X121032159Y-131905320D01*
X120879168Y-131822600D01*
X120696912Y-131945875D01*
X120603875Y-132009028D01*
X120502015Y-132078527D01*
X120406562Y-132143965D01*
X120358750Y-132176917D01*
X120291505Y-132222073D01*
X120234564Y-132257857D01*
X120195354Y-132279738D01*
X120182619Y-132284363D01*
X120164083Y-132271885D01*
X120123059Y-132237052D01*
X120063525Y-132183478D01*
X119989458Y-132114783D01*
X119904835Y-132034581D01*
X119851315Y-131983086D01*
X119757681Y-131891086D01*
X119676759Y-131808799D01*
X119611823Y-131739745D01*
X119566142Y-131687444D01*
X119542989Y-131655416D01*
X119540768Y-131648916D01*
X119551076Y-131624194D01*
X119579561Y-131574205D01*
X119623063Y-131504012D01*
X119678423Y-131418675D01*
X119742480Y-131323256D01*
X119760697Y-131296654D01*
X119827073Y-131199967D01*
X119886622Y-131112917D01*
X119936016Y-131040395D01*
X119971925Y-130987293D01*
X119991019Y-130958503D01*
X119992864Y-130955526D01*
X119990105Y-130932582D01*
X119975462Y-130882136D01*
X119951487Y-130810841D01*
X119920734Y-130725347D01*
X119885756Y-130632307D01*
X119849107Y-130538374D01*
X119813339Y-130450199D01*
X119781006Y-130374434D01*
X119754662Y-130317731D01*
X119736858Y-130286743D01*
X119735593Y-130285257D01*
X119724706Y-130276401D01*
X119706318Y-130267643D01*
X119676394Y-130258077D01*
X119630897Y-130246796D01*
X119565791Y-130232893D01*
X119477039Y-130215463D01*
X119360607Y-130193598D01*
X119212458Y-130166391D01*
X119180382Y-130160541D01*
X119085314Y-130142174D01*
X119002435Y-130124205D01*
X118939070Y-130108369D01*
X118902542Y-130096400D01*
X118897644Y-130093610D01*
X118889573Y-130068872D01*
X118883013Y-130013590D01*
X118877967Y-129934189D01*
X118874441Y-129837096D01*
X118872439Y-129728738D01*
X118871964Y-129615540D01*
X118873023Y-129503928D01*
X118875618Y-129400329D01*
X118879754Y-129311168D01*
X118885437Y-129242872D01*
X118892669Y-129201866D01*
X118897029Y-129193474D01*
X118921302Y-129185008D01*
X118976574Y-129171235D01*
X119057338Y-129153350D01*
X119158088Y-129132548D01*
X119273317Y-129110023D01*
X119336098Y-129098218D01*
X119455213Y-129075951D01*
X119561435Y-129055779D01*
X119649573Y-129038715D01*
X119714434Y-129025769D01*
X119750826Y-129017955D01*
X119756816Y-129016222D01*
X119766939Y-128996690D01*
X119788338Y-128949643D01*
X119818161Y-128881803D01*
X119853555Y-128799891D01*
X119891668Y-128710628D01*
X119929647Y-128620735D01*
X119964640Y-128536935D01*
X119993794Y-128465947D01*
X120014257Y-128414494D01*
X120023177Y-128389297D01*
X120023343Y-128388196D01*
X120013231Y-128368319D01*
X119984883Y-128322577D01*
X119941277Y-128255517D01*
X119885394Y-128171684D01*
X119820213Y-128075626D01*
X119782321Y-128020450D01*
X119713275Y-127919281D01*
X119651950Y-127827430D01*
X119601337Y-127749544D01*
X119564429Y-127690269D01*
X119544218Y-127654251D01*
X119541299Y-127646177D01*
X119553847Y-127627384D01*
X119588537Y-127587257D01*
X119640937Y-127530293D01*
X119706616Y-127460985D01*
X119781144Y-127383831D01*
X119860087Y-127303325D01*
X119939017Y-127223963D01*
X120013500Y-127150240D01*
X120079106Y-127086652D01*
X120131404Y-127037694D01*
X120165961Y-127007861D01*
X120177522Y-127000742D01*
X120196346Y-127010753D01*
X120241369Y-127038878D01*
X120308213Y-127082254D01*
X120392501Y-127138018D01*
X120489856Y-127203306D01*
X120563293Y-127253046D01*
X120934333Y-127505351D01*
X121552905Y-127250355D01*
X121636725Y-126805731D01*
X121720546Y-126361107D01*
X122645994Y-126361107D01*
X122729814Y-126805731D01*
M02*
