G04 #@! TF.GenerationSoftware,KiCad,Pcbnew,5.1.5-52549c5~86~ubuntu18.04.1*
G04 #@! TF.CreationDate,2020-08-18T13:39:39-05:00*
G04 #@! TF.ProjectId,A00,4130302e-6b69-4636-9164-5f7063625858,rev?*
G04 #@! TF.SameCoordinates,Original*
G04 #@! TF.FileFunction,Copper,L2,Bot*
G04 #@! TF.FilePolarity,Positive*
%FSLAX46Y46*%
G04 Gerber Fmt 4.6, Leading zero omitted, Abs format (unit mm)*
G04 Created by KiCad (PCBNEW 5.1.5-52549c5~86~ubuntu18.04.1) date 2020-08-18 13:39:39*
%MOMM*%
%LPD*%
G04 APERTURE LIST*
%ADD10C,0.300000*%
%ADD11C,0.010000*%
%ADD12C,2.499360*%
%ADD13C,0.254000*%
G04 APERTURE END LIST*
D10*
X144128600Y-100867400D02*
X144842885Y-100867400D01*
X143985742Y-100438828D02*
X144485742Y-101938828D01*
X144985742Y-100438828D01*
X145771457Y-101938828D02*
X145914314Y-101938828D01*
X146057171Y-101867400D01*
X146128600Y-101795971D01*
X146200028Y-101653114D01*
X146271457Y-101367400D01*
X146271457Y-101010257D01*
X146200028Y-100724542D01*
X146128600Y-100581685D01*
X146057171Y-100510257D01*
X145914314Y-100438828D01*
X145771457Y-100438828D01*
X145628600Y-100510257D01*
X145557171Y-100581685D01*
X145485742Y-100724542D01*
X145414314Y-101010257D01*
X145414314Y-101367400D01*
X145485742Y-101653114D01*
X145557171Y-101795971D01*
X145628600Y-101867400D01*
X145771457Y-101938828D01*
X147200028Y-101938828D02*
X147342885Y-101938828D01*
X147485742Y-101867400D01*
X147557171Y-101795971D01*
X147628600Y-101653114D01*
X147700028Y-101367400D01*
X147700028Y-101010257D01*
X147628600Y-100724542D01*
X147557171Y-100581685D01*
X147485742Y-100510257D01*
X147342885Y-100438828D01*
X147200028Y-100438828D01*
X147057171Y-100510257D01*
X146985742Y-100581685D01*
X146914314Y-100724542D01*
X146842885Y-101010257D01*
X146842885Y-101367400D01*
X146914314Y-101653114D01*
X146985742Y-101795971D01*
X147057171Y-101867400D01*
X147200028Y-101938828D01*
X147985742Y-100295971D02*
X149128600Y-100295971D01*
X149985742Y-101224542D02*
X150200028Y-101153114D01*
X150271457Y-101081685D01*
X150342885Y-100938828D01*
X150342885Y-100724542D01*
X150271457Y-100581685D01*
X150200028Y-100510257D01*
X150057171Y-100438828D01*
X149485742Y-100438828D01*
X149485742Y-101938828D01*
X149985742Y-101938828D01*
X150128600Y-101867400D01*
X150200028Y-101795971D01*
X150271457Y-101653114D01*
X150271457Y-101510257D01*
X150200028Y-101367400D01*
X150128600Y-101295971D01*
X149985742Y-101224542D01*
X149485742Y-101224542D01*
X150914314Y-100867400D02*
X151628600Y-100867400D01*
X150771457Y-100438828D02*
X151271457Y-101938828D01*
X151771457Y-100438828D01*
X153128600Y-100581685D02*
X153057171Y-100510257D01*
X152842885Y-100438828D01*
X152700028Y-100438828D01*
X152485742Y-100510257D01*
X152342885Y-100653114D01*
X152271457Y-100795971D01*
X152200028Y-101081685D01*
X152200028Y-101295971D01*
X152271457Y-101581685D01*
X152342885Y-101724542D01*
X152485742Y-101867400D01*
X152700028Y-101938828D01*
X152842885Y-101938828D01*
X153057171Y-101867400D01*
X153128600Y-101795971D01*
X153771457Y-100438828D02*
X153771457Y-101938828D01*
X154628600Y-100438828D02*
X153985742Y-101295971D01*
X154628600Y-101938828D02*
X153771457Y-101081685D01*
X155271457Y-100438828D02*
X155271457Y-101938828D01*
X155842885Y-101938828D01*
X155985742Y-101867400D01*
X156057171Y-101795971D01*
X156128600Y-101653114D01*
X156128600Y-101438828D01*
X156057171Y-101295971D01*
X155985742Y-101224542D01*
X155842885Y-101153114D01*
X155271457Y-101153114D01*
X157485742Y-100438828D02*
X156771457Y-100438828D01*
X156771457Y-101938828D01*
X157914314Y-100867400D02*
X158628600Y-100867400D01*
X157771457Y-100438828D02*
X158271457Y-101938828D01*
X158771457Y-100438828D01*
X159057171Y-101938828D02*
X159914314Y-101938828D01*
X159485742Y-100438828D02*
X159485742Y-101938828D01*
X160414314Y-101224542D02*
X160914314Y-101224542D01*
X161128600Y-100438828D02*
X160414314Y-100438828D01*
X160414314Y-101938828D01*
X161128600Y-101938828D01*
D11*
G36*
X153159014Y-122241269D02*
G01*
X153242835Y-121796645D01*
X153552120Y-121669147D01*
X153861406Y-121541649D01*
X154232446Y-121793954D01*
X154336357Y-121864204D01*
X154430287Y-121926928D01*
X154509852Y-121979262D01*
X154570670Y-122018343D01*
X154608357Y-122041307D01*
X154618621Y-122046258D01*
X154637110Y-122033524D01*
X154676620Y-121998318D01*
X154732722Y-121945138D01*
X154800987Y-121878482D01*
X154876986Y-121802846D01*
X154956292Y-121722728D01*
X155034475Y-121642626D01*
X155107107Y-121567036D01*
X155169759Y-121500455D01*
X155218003Y-121447382D01*
X155247410Y-121412313D01*
X155254441Y-121400577D01*
X155244323Y-121378940D01*
X155215959Y-121331538D01*
X155172329Y-121263007D01*
X155116418Y-121177985D01*
X155051206Y-121081107D01*
X155013419Y-121025850D01*
X154944543Y-120924952D01*
X154883340Y-120833901D01*
X154832778Y-120757230D01*
X154795828Y-120699472D01*
X154775458Y-120665157D01*
X154772397Y-120657946D01*
X154779336Y-120637452D01*
X154798251Y-120589687D01*
X154826287Y-120521368D01*
X154860591Y-120439211D01*
X154898309Y-120349930D01*
X154936587Y-120260242D01*
X154972570Y-120176862D01*
X155003406Y-120106506D01*
X155026239Y-120055890D01*
X155038217Y-120031729D01*
X155038924Y-120030778D01*
X155057731Y-120026164D01*
X155107818Y-120015872D01*
X155183993Y-120000913D01*
X155281065Y-119982299D01*
X155393843Y-119961041D01*
X155459642Y-119948782D01*
X155580150Y-119925838D01*
X155688997Y-119904005D01*
X155780676Y-119884478D01*
X155849681Y-119868452D01*
X155890504Y-119857121D01*
X155898711Y-119853526D01*
X155906748Y-119829194D01*
X155913233Y-119774241D01*
X155918170Y-119695092D01*
X155921564Y-119598174D01*
X155923418Y-119489913D01*
X155923738Y-119376735D01*
X155922527Y-119265065D01*
X155919790Y-119161332D01*
X155915531Y-119071959D01*
X155909755Y-119003374D01*
X155902467Y-118962003D01*
X155898095Y-118953390D01*
X155871964Y-118943067D01*
X155816593Y-118928308D01*
X155739307Y-118910848D01*
X155647430Y-118892420D01*
X155615358Y-118886459D01*
X155460724Y-118858134D01*
X155338575Y-118835324D01*
X155244873Y-118817120D01*
X155175584Y-118802617D01*
X155126671Y-118790908D01*
X155094097Y-118781085D01*
X155073828Y-118772244D01*
X155061826Y-118763476D01*
X155060147Y-118761743D01*
X155043384Y-118733829D01*
X155017814Y-118679505D01*
X154985988Y-118605423D01*
X154950460Y-118518235D01*
X154913783Y-118424592D01*
X154878511Y-118331148D01*
X154847196Y-118244553D01*
X154822393Y-118171460D01*
X154806654Y-118118522D01*
X154802532Y-118092389D01*
X154802876Y-118091474D01*
X154816841Y-118070114D01*
X154848522Y-118023116D01*
X154894591Y-117955373D01*
X154951718Y-117871777D01*
X155016573Y-117777218D01*
X155035043Y-117750346D01*
X155100899Y-117652925D01*
X155158850Y-117564037D01*
X155205738Y-117488788D01*
X155238407Y-117432280D01*
X155253700Y-117399619D01*
X155254441Y-117395607D01*
X155241592Y-117374516D01*
X155206088Y-117332736D01*
X155152493Y-117274755D01*
X155085371Y-117205065D01*
X155009287Y-117128155D01*
X154928804Y-117048517D01*
X154848487Y-116970639D01*
X154772899Y-116899014D01*
X154706605Y-116838130D01*
X154654169Y-116792479D01*
X154620155Y-116766550D01*
X154610745Y-116762317D01*
X154588843Y-116772288D01*
X154544000Y-116799180D01*
X154483521Y-116838464D01*
X154436989Y-116870083D01*
X154352675Y-116928102D01*
X154252826Y-116996416D01*
X154152673Y-117064621D01*
X154098827Y-117101125D01*
X153916571Y-117224400D01*
X153763581Y-117141680D01*
X153693882Y-117105441D01*
X153634614Y-117077274D01*
X153594511Y-117061209D01*
X153584303Y-117058974D01*
X153572029Y-117075478D01*
X153547813Y-117122118D01*
X153513463Y-117194591D01*
X153470788Y-117288594D01*
X153421594Y-117399826D01*
X153367690Y-117523985D01*
X153310884Y-117656768D01*
X153252982Y-117793873D01*
X153195793Y-117930998D01*
X153141124Y-118063842D01*
X153090784Y-118188102D01*
X153046580Y-118299475D01*
X153010319Y-118393661D01*
X152983809Y-118466356D01*
X152968858Y-118513259D01*
X152966454Y-118529367D01*
X152985511Y-118549914D01*
X153027236Y-118583267D01*
X153082906Y-118622498D01*
X153087578Y-118625601D01*
X153231464Y-118740777D01*
X153347483Y-118875147D01*
X153434630Y-119024416D01*
X153491899Y-119184287D01*
X153518286Y-119350463D01*
X153512785Y-119518648D01*
X153474390Y-119684545D01*
X153402095Y-119843858D01*
X153380826Y-119878713D01*
X153270196Y-120019463D01*
X153139502Y-120132486D01*
X152993264Y-120217197D01*
X152836008Y-120273006D01*
X152672257Y-120299326D01*
X152506533Y-120295570D01*
X152343362Y-120261150D01*
X152187265Y-120195477D01*
X152042767Y-120097965D01*
X151998069Y-120058387D01*
X151884312Y-119934497D01*
X151801418Y-119804076D01*
X151744556Y-119657885D01*
X151712887Y-119513112D01*
X151705069Y-119350340D01*
X151731138Y-119186760D01*
X151788445Y-119027902D01*
X151874344Y-118879294D01*
X151986186Y-118746465D01*
X152121323Y-118634944D01*
X152139083Y-118623189D01*
X152195350Y-118584692D01*
X152238123Y-118551337D01*
X152258572Y-118530040D01*
X152258869Y-118529367D01*
X152254479Y-118506329D01*
X152237076Y-118454043D01*
X152208468Y-118376810D01*
X152170465Y-118278932D01*
X152124874Y-118164709D01*
X152073503Y-118038442D01*
X152018162Y-117904433D01*
X151960658Y-117766982D01*
X151902801Y-117630392D01*
X151846398Y-117498963D01*
X151793258Y-117376995D01*
X151745190Y-117268791D01*
X151704001Y-117178651D01*
X151671501Y-117110877D01*
X151649497Y-117069770D01*
X151640636Y-117058974D01*
X151613560Y-117067381D01*
X151562897Y-117089928D01*
X151497383Y-117122587D01*
X151461359Y-117141680D01*
X151308368Y-117224400D01*
X151126112Y-117101125D01*
X151033075Y-117037972D01*
X150931215Y-116968473D01*
X150835762Y-116903035D01*
X150787950Y-116870083D01*
X150720705Y-116824927D01*
X150663764Y-116789143D01*
X150624554Y-116767262D01*
X150611819Y-116762637D01*
X150593283Y-116775115D01*
X150552259Y-116809948D01*
X150492725Y-116863522D01*
X150418658Y-116932217D01*
X150334035Y-117012419D01*
X150280515Y-117063914D01*
X150186881Y-117155914D01*
X150105959Y-117238201D01*
X150041023Y-117307255D01*
X149995342Y-117359556D01*
X149972189Y-117391584D01*
X149969968Y-117398084D01*
X149980276Y-117422806D01*
X150008761Y-117472795D01*
X150052263Y-117542988D01*
X150107623Y-117628325D01*
X150171680Y-117723744D01*
X150189897Y-117750346D01*
X150256273Y-117847033D01*
X150315822Y-117934083D01*
X150365216Y-118006605D01*
X150401125Y-118059707D01*
X150420219Y-118088497D01*
X150422064Y-118091474D01*
X150419305Y-118114418D01*
X150404662Y-118164864D01*
X150380687Y-118236159D01*
X150349934Y-118321653D01*
X150314956Y-118414693D01*
X150278307Y-118508626D01*
X150242539Y-118596801D01*
X150210206Y-118672566D01*
X150183862Y-118729269D01*
X150166058Y-118760257D01*
X150164793Y-118761743D01*
X150153906Y-118770599D01*
X150135518Y-118779357D01*
X150105594Y-118788923D01*
X150060097Y-118800204D01*
X149994991Y-118814107D01*
X149906239Y-118831537D01*
X149789807Y-118853402D01*
X149641658Y-118880609D01*
X149609582Y-118886459D01*
X149514514Y-118904826D01*
X149431635Y-118922795D01*
X149368270Y-118938631D01*
X149331742Y-118950600D01*
X149326844Y-118953390D01*
X149318773Y-118978128D01*
X149312213Y-119033410D01*
X149307167Y-119112811D01*
X149303641Y-119209904D01*
X149301639Y-119318262D01*
X149301164Y-119431460D01*
X149302223Y-119543072D01*
X149304818Y-119646671D01*
X149308954Y-119735832D01*
X149314637Y-119804128D01*
X149321869Y-119845134D01*
X149326229Y-119853526D01*
X149350502Y-119861992D01*
X149405774Y-119875765D01*
X149486538Y-119893650D01*
X149587288Y-119914452D01*
X149702517Y-119936977D01*
X149765298Y-119948782D01*
X149884413Y-119971049D01*
X149990635Y-119991221D01*
X150078773Y-120008285D01*
X150143634Y-120021231D01*
X150180026Y-120029045D01*
X150186016Y-120030778D01*
X150196139Y-120050310D01*
X150217538Y-120097357D01*
X150247361Y-120165197D01*
X150282755Y-120247109D01*
X150320868Y-120336372D01*
X150358847Y-120426265D01*
X150393840Y-120510065D01*
X150422994Y-120581053D01*
X150443457Y-120632506D01*
X150452377Y-120657703D01*
X150452543Y-120658804D01*
X150442431Y-120678681D01*
X150414083Y-120724423D01*
X150370477Y-120791483D01*
X150314594Y-120875316D01*
X150249413Y-120971374D01*
X150211521Y-121026550D01*
X150142475Y-121127719D01*
X150081150Y-121219570D01*
X150030537Y-121297456D01*
X149993629Y-121356731D01*
X149973418Y-121392749D01*
X149970499Y-121400823D01*
X149983047Y-121419616D01*
X150017737Y-121459743D01*
X150070137Y-121516707D01*
X150135816Y-121586015D01*
X150210344Y-121663169D01*
X150289287Y-121743675D01*
X150368217Y-121823037D01*
X150442700Y-121896760D01*
X150508306Y-121960348D01*
X150560604Y-122009306D01*
X150595161Y-122039139D01*
X150606722Y-122046258D01*
X150625546Y-122036247D01*
X150670569Y-122008122D01*
X150737413Y-121964746D01*
X150821701Y-121908982D01*
X150919056Y-121843694D01*
X150992493Y-121793954D01*
X151363533Y-121541649D01*
X151982105Y-121796645D01*
X152065925Y-122241269D01*
X152149746Y-122685893D01*
X153075194Y-122685893D01*
X153159014Y-122241269D01*
G37*
X153159014Y-122241269D02*
X153242835Y-121796645D01*
X153552120Y-121669147D01*
X153861406Y-121541649D01*
X154232446Y-121793954D01*
X154336357Y-121864204D01*
X154430287Y-121926928D01*
X154509852Y-121979262D01*
X154570670Y-122018343D01*
X154608357Y-122041307D01*
X154618621Y-122046258D01*
X154637110Y-122033524D01*
X154676620Y-121998318D01*
X154732722Y-121945138D01*
X154800987Y-121878482D01*
X154876986Y-121802846D01*
X154956292Y-121722728D01*
X155034475Y-121642626D01*
X155107107Y-121567036D01*
X155169759Y-121500455D01*
X155218003Y-121447382D01*
X155247410Y-121412313D01*
X155254441Y-121400577D01*
X155244323Y-121378940D01*
X155215959Y-121331538D01*
X155172329Y-121263007D01*
X155116418Y-121177985D01*
X155051206Y-121081107D01*
X155013419Y-121025850D01*
X154944543Y-120924952D01*
X154883340Y-120833901D01*
X154832778Y-120757230D01*
X154795828Y-120699472D01*
X154775458Y-120665157D01*
X154772397Y-120657946D01*
X154779336Y-120637452D01*
X154798251Y-120589687D01*
X154826287Y-120521368D01*
X154860591Y-120439211D01*
X154898309Y-120349930D01*
X154936587Y-120260242D01*
X154972570Y-120176862D01*
X155003406Y-120106506D01*
X155026239Y-120055890D01*
X155038217Y-120031729D01*
X155038924Y-120030778D01*
X155057731Y-120026164D01*
X155107818Y-120015872D01*
X155183993Y-120000913D01*
X155281065Y-119982299D01*
X155393843Y-119961041D01*
X155459642Y-119948782D01*
X155580150Y-119925838D01*
X155688997Y-119904005D01*
X155780676Y-119884478D01*
X155849681Y-119868452D01*
X155890504Y-119857121D01*
X155898711Y-119853526D01*
X155906748Y-119829194D01*
X155913233Y-119774241D01*
X155918170Y-119695092D01*
X155921564Y-119598174D01*
X155923418Y-119489913D01*
X155923738Y-119376735D01*
X155922527Y-119265065D01*
X155919790Y-119161332D01*
X155915531Y-119071959D01*
X155909755Y-119003374D01*
X155902467Y-118962003D01*
X155898095Y-118953390D01*
X155871964Y-118943067D01*
X155816593Y-118928308D01*
X155739307Y-118910848D01*
X155647430Y-118892420D01*
X155615358Y-118886459D01*
X155460724Y-118858134D01*
X155338575Y-118835324D01*
X155244873Y-118817120D01*
X155175584Y-118802617D01*
X155126671Y-118790908D01*
X155094097Y-118781085D01*
X155073828Y-118772244D01*
X155061826Y-118763476D01*
X155060147Y-118761743D01*
X155043384Y-118733829D01*
X155017814Y-118679505D01*
X154985988Y-118605423D01*
X154950460Y-118518235D01*
X154913783Y-118424592D01*
X154878511Y-118331148D01*
X154847196Y-118244553D01*
X154822393Y-118171460D01*
X154806654Y-118118522D01*
X154802532Y-118092389D01*
X154802876Y-118091474D01*
X154816841Y-118070114D01*
X154848522Y-118023116D01*
X154894591Y-117955373D01*
X154951718Y-117871777D01*
X155016573Y-117777218D01*
X155035043Y-117750346D01*
X155100899Y-117652925D01*
X155158850Y-117564037D01*
X155205738Y-117488788D01*
X155238407Y-117432280D01*
X155253700Y-117399619D01*
X155254441Y-117395607D01*
X155241592Y-117374516D01*
X155206088Y-117332736D01*
X155152493Y-117274755D01*
X155085371Y-117205065D01*
X155009287Y-117128155D01*
X154928804Y-117048517D01*
X154848487Y-116970639D01*
X154772899Y-116899014D01*
X154706605Y-116838130D01*
X154654169Y-116792479D01*
X154620155Y-116766550D01*
X154610745Y-116762317D01*
X154588843Y-116772288D01*
X154544000Y-116799180D01*
X154483521Y-116838464D01*
X154436989Y-116870083D01*
X154352675Y-116928102D01*
X154252826Y-116996416D01*
X154152673Y-117064621D01*
X154098827Y-117101125D01*
X153916571Y-117224400D01*
X153763581Y-117141680D01*
X153693882Y-117105441D01*
X153634614Y-117077274D01*
X153594511Y-117061209D01*
X153584303Y-117058974D01*
X153572029Y-117075478D01*
X153547813Y-117122118D01*
X153513463Y-117194591D01*
X153470788Y-117288594D01*
X153421594Y-117399826D01*
X153367690Y-117523985D01*
X153310884Y-117656768D01*
X153252982Y-117793873D01*
X153195793Y-117930998D01*
X153141124Y-118063842D01*
X153090784Y-118188102D01*
X153046580Y-118299475D01*
X153010319Y-118393661D01*
X152983809Y-118466356D01*
X152968858Y-118513259D01*
X152966454Y-118529367D01*
X152985511Y-118549914D01*
X153027236Y-118583267D01*
X153082906Y-118622498D01*
X153087578Y-118625601D01*
X153231464Y-118740777D01*
X153347483Y-118875147D01*
X153434630Y-119024416D01*
X153491899Y-119184287D01*
X153518286Y-119350463D01*
X153512785Y-119518648D01*
X153474390Y-119684545D01*
X153402095Y-119843858D01*
X153380826Y-119878713D01*
X153270196Y-120019463D01*
X153139502Y-120132486D01*
X152993264Y-120217197D01*
X152836008Y-120273006D01*
X152672257Y-120299326D01*
X152506533Y-120295570D01*
X152343362Y-120261150D01*
X152187265Y-120195477D01*
X152042767Y-120097965D01*
X151998069Y-120058387D01*
X151884312Y-119934497D01*
X151801418Y-119804076D01*
X151744556Y-119657885D01*
X151712887Y-119513112D01*
X151705069Y-119350340D01*
X151731138Y-119186760D01*
X151788445Y-119027902D01*
X151874344Y-118879294D01*
X151986186Y-118746465D01*
X152121323Y-118634944D01*
X152139083Y-118623189D01*
X152195350Y-118584692D01*
X152238123Y-118551337D01*
X152258572Y-118530040D01*
X152258869Y-118529367D01*
X152254479Y-118506329D01*
X152237076Y-118454043D01*
X152208468Y-118376810D01*
X152170465Y-118278932D01*
X152124874Y-118164709D01*
X152073503Y-118038442D01*
X152018162Y-117904433D01*
X151960658Y-117766982D01*
X151902801Y-117630392D01*
X151846398Y-117498963D01*
X151793258Y-117376995D01*
X151745190Y-117268791D01*
X151704001Y-117178651D01*
X151671501Y-117110877D01*
X151649497Y-117069770D01*
X151640636Y-117058974D01*
X151613560Y-117067381D01*
X151562897Y-117089928D01*
X151497383Y-117122587D01*
X151461359Y-117141680D01*
X151308368Y-117224400D01*
X151126112Y-117101125D01*
X151033075Y-117037972D01*
X150931215Y-116968473D01*
X150835762Y-116903035D01*
X150787950Y-116870083D01*
X150720705Y-116824927D01*
X150663764Y-116789143D01*
X150624554Y-116767262D01*
X150611819Y-116762637D01*
X150593283Y-116775115D01*
X150552259Y-116809948D01*
X150492725Y-116863522D01*
X150418658Y-116932217D01*
X150334035Y-117012419D01*
X150280515Y-117063914D01*
X150186881Y-117155914D01*
X150105959Y-117238201D01*
X150041023Y-117307255D01*
X149995342Y-117359556D01*
X149972189Y-117391584D01*
X149969968Y-117398084D01*
X149980276Y-117422806D01*
X150008761Y-117472795D01*
X150052263Y-117542988D01*
X150107623Y-117628325D01*
X150171680Y-117723744D01*
X150189897Y-117750346D01*
X150256273Y-117847033D01*
X150315822Y-117934083D01*
X150365216Y-118006605D01*
X150401125Y-118059707D01*
X150420219Y-118088497D01*
X150422064Y-118091474D01*
X150419305Y-118114418D01*
X150404662Y-118164864D01*
X150380687Y-118236159D01*
X150349934Y-118321653D01*
X150314956Y-118414693D01*
X150278307Y-118508626D01*
X150242539Y-118596801D01*
X150210206Y-118672566D01*
X150183862Y-118729269D01*
X150166058Y-118760257D01*
X150164793Y-118761743D01*
X150153906Y-118770599D01*
X150135518Y-118779357D01*
X150105594Y-118788923D01*
X150060097Y-118800204D01*
X149994991Y-118814107D01*
X149906239Y-118831537D01*
X149789807Y-118853402D01*
X149641658Y-118880609D01*
X149609582Y-118886459D01*
X149514514Y-118904826D01*
X149431635Y-118922795D01*
X149368270Y-118938631D01*
X149331742Y-118950600D01*
X149326844Y-118953390D01*
X149318773Y-118978128D01*
X149312213Y-119033410D01*
X149307167Y-119112811D01*
X149303641Y-119209904D01*
X149301639Y-119318262D01*
X149301164Y-119431460D01*
X149302223Y-119543072D01*
X149304818Y-119646671D01*
X149308954Y-119735832D01*
X149314637Y-119804128D01*
X149321869Y-119845134D01*
X149326229Y-119853526D01*
X149350502Y-119861992D01*
X149405774Y-119875765D01*
X149486538Y-119893650D01*
X149587288Y-119914452D01*
X149702517Y-119936977D01*
X149765298Y-119948782D01*
X149884413Y-119971049D01*
X149990635Y-119991221D01*
X150078773Y-120008285D01*
X150143634Y-120021231D01*
X150180026Y-120029045D01*
X150186016Y-120030778D01*
X150196139Y-120050310D01*
X150217538Y-120097357D01*
X150247361Y-120165197D01*
X150282755Y-120247109D01*
X150320868Y-120336372D01*
X150358847Y-120426265D01*
X150393840Y-120510065D01*
X150422994Y-120581053D01*
X150443457Y-120632506D01*
X150452377Y-120657703D01*
X150452543Y-120658804D01*
X150442431Y-120678681D01*
X150414083Y-120724423D01*
X150370477Y-120791483D01*
X150314594Y-120875316D01*
X150249413Y-120971374D01*
X150211521Y-121026550D01*
X150142475Y-121127719D01*
X150081150Y-121219570D01*
X150030537Y-121297456D01*
X149993629Y-121356731D01*
X149973418Y-121392749D01*
X149970499Y-121400823D01*
X149983047Y-121419616D01*
X150017737Y-121459743D01*
X150070137Y-121516707D01*
X150135816Y-121586015D01*
X150210344Y-121663169D01*
X150289287Y-121743675D01*
X150368217Y-121823037D01*
X150442700Y-121896760D01*
X150508306Y-121960348D01*
X150560604Y-122009306D01*
X150595161Y-122039139D01*
X150606722Y-122046258D01*
X150625546Y-122036247D01*
X150670569Y-122008122D01*
X150737413Y-121964746D01*
X150821701Y-121908982D01*
X150919056Y-121843694D01*
X150992493Y-121793954D01*
X151363533Y-121541649D01*
X151982105Y-121796645D01*
X152065925Y-122241269D01*
X152149746Y-122685893D01*
X153075194Y-122685893D01*
X153159014Y-122241269D01*
D12*
X162900000Y-129580000D03*
X162900000Y-119420000D03*
X112100000Y-129580000D03*
X112100000Y-119420000D03*
D13*
G36*
X143057885Y-102907400D02*
G01*
X145942581Y-102907400D01*
X145767988Y-103168698D01*
X145607047Y-103557244D01*
X145525000Y-103969721D01*
X145525000Y-104390279D01*
X145607047Y-104802756D01*
X145767988Y-105191302D01*
X146001637Y-105540983D01*
X146299017Y-105838363D01*
X146648698Y-106072012D01*
X147037244Y-106232953D01*
X147449721Y-106315000D01*
X147870279Y-106315000D01*
X148282756Y-106232953D01*
X148671302Y-106072012D01*
X149020983Y-105838363D01*
X149318363Y-105540983D01*
X149552012Y-105191302D01*
X149712953Y-104802756D01*
X149795000Y-104390279D01*
X149795000Y-103969721D01*
X149712953Y-103557244D01*
X149552012Y-103168698D01*
X149377419Y-102907400D01*
X156102581Y-102907400D01*
X155927988Y-103168698D01*
X155767047Y-103557244D01*
X155685000Y-103969721D01*
X155685000Y-104390279D01*
X155767047Y-104802756D01*
X155927988Y-105191302D01*
X156161637Y-105540983D01*
X156459017Y-105838363D01*
X156808698Y-106072012D01*
X157197244Y-106232953D01*
X157609721Y-106315000D01*
X158030279Y-106315000D01*
X158442756Y-106232953D01*
X158831302Y-106072012D01*
X159180983Y-105838363D01*
X159478363Y-105540983D01*
X159712012Y-105191302D01*
X159872953Y-104802756D01*
X159955000Y-104390279D01*
X159955000Y-103969721D01*
X159872953Y-103557244D01*
X159712012Y-103168698D01*
X159537419Y-102907400D01*
X161073254Y-102907400D01*
X160841637Y-103139017D01*
X160607988Y-103488698D01*
X160447047Y-103877244D01*
X160365000Y-104289721D01*
X160365000Y-104710279D01*
X160447047Y-105122756D01*
X160607988Y-105511302D01*
X160841637Y-105860983D01*
X161139017Y-106158363D01*
X161488698Y-106392012D01*
X161877244Y-106552953D01*
X162289721Y-106635000D01*
X162710279Y-106635000D01*
X163122756Y-106552953D01*
X163511302Y-106392012D01*
X163860983Y-106158363D01*
X164158363Y-105860983D01*
X164392012Y-105511302D01*
X164552953Y-105122756D01*
X164635000Y-104710279D01*
X164635000Y-104289721D01*
X164552953Y-103877244D01*
X164392012Y-103488698D01*
X164158363Y-103139017D01*
X163860983Y-102841637D01*
X163511302Y-102607988D01*
X163122756Y-102447047D01*
X162710279Y-102365000D01*
X162289721Y-102365000D01*
X162199314Y-102382983D01*
X162199314Y-100660000D01*
X167889903Y-100660000D01*
X167922061Y-101068607D01*
X167938262Y-101170898D01*
X168116878Y-101914888D01*
X168173409Y-106757682D01*
X168176138Y-106782429D01*
X168183643Y-106806167D01*
X168195634Y-106827985D01*
X168211652Y-106847045D01*
X168231080Y-106862613D01*
X168253172Y-106874092D01*
X168277079Y-106881040D01*
X168300400Y-106883200D01*
X173085438Y-106883200D01*
X173829102Y-107061738D01*
X173931393Y-107077939D01*
X174340000Y-107110097D01*
X174340001Y-141889903D01*
X173931393Y-141922061D01*
X173829102Y-141938262D01*
X172920240Y-142156461D01*
X168224688Y-142138401D01*
X168199903Y-142140746D01*
X168176051Y-142147881D01*
X168154049Y-142159533D01*
X168134743Y-142175253D01*
X168118876Y-142194437D01*
X168107055Y-142216348D01*
X168099736Y-142240145D01*
X168097200Y-142265400D01*
X168097200Y-147167078D01*
X167938262Y-147829102D01*
X167922061Y-147931393D01*
X167889903Y-148340000D01*
X107110097Y-148340000D01*
X107077939Y-147931393D01*
X107061738Y-147829102D01*
X106914688Y-147216597D01*
X106925988Y-144289721D01*
X110365000Y-144289721D01*
X110365000Y-144710279D01*
X110447047Y-145122756D01*
X110607988Y-145511302D01*
X110841637Y-145860983D01*
X111139017Y-146158363D01*
X111488698Y-146392012D01*
X111877244Y-146552953D01*
X112289721Y-146635000D01*
X112710279Y-146635000D01*
X113122756Y-146552953D01*
X113511302Y-146392012D01*
X113860983Y-146158363D01*
X114158363Y-145860983D01*
X114392012Y-145511302D01*
X114552953Y-145122756D01*
X114635000Y-144710279D01*
X114635000Y-144609721D01*
X115045000Y-144609721D01*
X115045000Y-145030279D01*
X115127047Y-145442756D01*
X115287988Y-145831302D01*
X115521637Y-146180983D01*
X115819017Y-146478363D01*
X116168698Y-146712012D01*
X116557244Y-146872953D01*
X116969721Y-146955000D01*
X117390279Y-146955000D01*
X117802756Y-146872953D01*
X118191302Y-146712012D01*
X118540983Y-146478363D01*
X118838363Y-146180983D01*
X119072012Y-145831302D01*
X119232953Y-145442756D01*
X119315000Y-145030279D01*
X119315000Y-144609721D01*
X125205000Y-144609721D01*
X125205000Y-145030279D01*
X125287047Y-145442756D01*
X125447988Y-145831302D01*
X125681637Y-146180983D01*
X125979017Y-146478363D01*
X126328698Y-146712012D01*
X126717244Y-146872953D01*
X127129721Y-146955000D01*
X127550279Y-146955000D01*
X127962756Y-146872953D01*
X128351302Y-146712012D01*
X128700983Y-146478363D01*
X128998363Y-146180983D01*
X129232012Y-145831302D01*
X129392953Y-145442756D01*
X129475000Y-145030279D01*
X129475000Y-144609721D01*
X135365000Y-144609721D01*
X135365000Y-145030279D01*
X135447047Y-145442756D01*
X135607988Y-145831302D01*
X135841637Y-146180983D01*
X136139017Y-146478363D01*
X136488698Y-146712012D01*
X136877244Y-146872953D01*
X137289721Y-146955000D01*
X137710279Y-146955000D01*
X138122756Y-146872953D01*
X138511302Y-146712012D01*
X138860983Y-146478363D01*
X139158363Y-146180983D01*
X139392012Y-145831302D01*
X139552953Y-145442756D01*
X139635000Y-145030279D01*
X139635000Y-144609721D01*
X145525000Y-144609721D01*
X145525000Y-145030279D01*
X145607047Y-145442756D01*
X145767988Y-145831302D01*
X146001637Y-146180983D01*
X146299017Y-146478363D01*
X146648698Y-146712012D01*
X147037244Y-146872953D01*
X147449721Y-146955000D01*
X147870279Y-146955000D01*
X148282756Y-146872953D01*
X148671302Y-146712012D01*
X149020983Y-146478363D01*
X149318363Y-146180983D01*
X149552012Y-145831302D01*
X149712953Y-145442756D01*
X149795000Y-145030279D01*
X149795000Y-144609721D01*
X155685000Y-144609721D01*
X155685000Y-145030279D01*
X155767047Y-145442756D01*
X155927988Y-145831302D01*
X156161637Y-146180983D01*
X156459017Y-146478363D01*
X156808698Y-146712012D01*
X157197244Y-146872953D01*
X157609721Y-146955000D01*
X158030279Y-146955000D01*
X158442756Y-146872953D01*
X158831302Y-146712012D01*
X159180983Y-146478363D01*
X159478363Y-146180983D01*
X159712012Y-145831302D01*
X159872953Y-145442756D01*
X159955000Y-145030279D01*
X159955000Y-144609721D01*
X159891348Y-144289721D01*
X160365000Y-144289721D01*
X160365000Y-144710279D01*
X160447047Y-145122756D01*
X160607988Y-145511302D01*
X160841637Y-145860983D01*
X161139017Y-146158363D01*
X161488698Y-146392012D01*
X161877244Y-146552953D01*
X162289721Y-146635000D01*
X162710279Y-146635000D01*
X163122756Y-146552953D01*
X163511302Y-146392012D01*
X163860983Y-146158363D01*
X164158363Y-145860983D01*
X164392012Y-145511302D01*
X164552953Y-145122756D01*
X164635000Y-144710279D01*
X164635000Y-144289721D01*
X164552953Y-143877244D01*
X164392012Y-143488698D01*
X164158363Y-143139017D01*
X163860983Y-142841637D01*
X163511302Y-142607988D01*
X163122756Y-142447047D01*
X162710279Y-142365000D01*
X162289721Y-142365000D01*
X161877244Y-142447047D01*
X161488698Y-142607988D01*
X161139017Y-142841637D01*
X160841637Y-143139017D01*
X160607988Y-143488698D01*
X160447047Y-143877244D01*
X160365000Y-144289721D01*
X159891348Y-144289721D01*
X159872953Y-144197244D01*
X159712012Y-143808698D01*
X159478363Y-143459017D01*
X159180983Y-143161637D01*
X158831302Y-142927988D01*
X158442756Y-142767047D01*
X158030279Y-142685000D01*
X157609721Y-142685000D01*
X157197244Y-142767047D01*
X156808698Y-142927988D01*
X156459017Y-143161637D01*
X156161637Y-143459017D01*
X155927988Y-143808698D01*
X155767047Y-144197244D01*
X155685000Y-144609721D01*
X149795000Y-144609721D01*
X149712953Y-144197244D01*
X149552012Y-143808698D01*
X149318363Y-143459017D01*
X149020983Y-143161637D01*
X148671302Y-142927988D01*
X148282756Y-142767047D01*
X147870279Y-142685000D01*
X147449721Y-142685000D01*
X147037244Y-142767047D01*
X146648698Y-142927988D01*
X146299017Y-143161637D01*
X146001637Y-143459017D01*
X145767988Y-143808698D01*
X145607047Y-144197244D01*
X145525000Y-144609721D01*
X139635000Y-144609721D01*
X139552953Y-144197244D01*
X139392012Y-143808698D01*
X139158363Y-143459017D01*
X138860983Y-143161637D01*
X138511302Y-142927988D01*
X138122756Y-142767047D01*
X137710279Y-142685000D01*
X137289721Y-142685000D01*
X136877244Y-142767047D01*
X136488698Y-142927988D01*
X136139017Y-143161637D01*
X135841637Y-143459017D01*
X135607988Y-143808698D01*
X135447047Y-144197244D01*
X135365000Y-144609721D01*
X129475000Y-144609721D01*
X129392953Y-144197244D01*
X129232012Y-143808698D01*
X128998363Y-143459017D01*
X128700983Y-143161637D01*
X128351302Y-142927988D01*
X127962756Y-142767047D01*
X127550279Y-142685000D01*
X127129721Y-142685000D01*
X126717244Y-142767047D01*
X126328698Y-142927988D01*
X125979017Y-143161637D01*
X125681637Y-143459017D01*
X125447988Y-143808698D01*
X125287047Y-144197244D01*
X125205000Y-144609721D01*
X119315000Y-144609721D01*
X119232953Y-144197244D01*
X119072012Y-143808698D01*
X118838363Y-143459017D01*
X118540983Y-143161637D01*
X118191302Y-142927988D01*
X117802756Y-142767047D01*
X117390279Y-142685000D01*
X116969721Y-142685000D01*
X116557244Y-142767047D01*
X116168698Y-142927988D01*
X115819017Y-143161637D01*
X115521637Y-143459017D01*
X115287988Y-143808698D01*
X115127047Y-144197244D01*
X115045000Y-144609721D01*
X114635000Y-144609721D01*
X114635000Y-144289721D01*
X114552953Y-143877244D01*
X114392012Y-143488698D01*
X114158363Y-143139017D01*
X113860983Y-142841637D01*
X113511302Y-142607988D01*
X113122756Y-142447047D01*
X112710279Y-142365000D01*
X112289721Y-142365000D01*
X111877244Y-142447047D01*
X111488698Y-142607988D01*
X111139017Y-142841637D01*
X110841637Y-143139017D01*
X110607988Y-143488698D01*
X110447047Y-143877244D01*
X110365000Y-144289721D01*
X106925988Y-144289721D01*
X106933999Y-142215090D01*
X106931654Y-142190305D01*
X106924519Y-142166453D01*
X106912868Y-142144451D01*
X106897149Y-142125145D01*
X106877965Y-142109277D01*
X106856053Y-142097456D01*
X106832257Y-142090137D01*
X106807000Y-142087600D01*
X101792935Y-142087600D01*
X101170898Y-141938262D01*
X101068607Y-141922061D01*
X100660000Y-141889903D01*
X100660000Y-134449721D01*
X104885000Y-134449721D01*
X104885000Y-134870279D01*
X104967047Y-135282756D01*
X105127988Y-135671302D01*
X105361637Y-136020983D01*
X105659017Y-136318363D01*
X106008698Y-136552012D01*
X106397244Y-136712953D01*
X106809721Y-136795000D01*
X107230279Y-136795000D01*
X107642756Y-136712953D01*
X108031302Y-136552012D01*
X108380983Y-136318363D01*
X108678363Y-136020983D01*
X108912012Y-135671302D01*
X109072953Y-135282756D01*
X109155000Y-134870279D01*
X109155000Y-134449721D01*
X115045000Y-134449721D01*
X115045000Y-134870279D01*
X115127047Y-135282756D01*
X115287988Y-135671302D01*
X115521637Y-136020983D01*
X115819017Y-136318363D01*
X116168698Y-136552012D01*
X116557244Y-136712953D01*
X116969721Y-136795000D01*
X117390279Y-136795000D01*
X117802756Y-136712953D01*
X118191302Y-136552012D01*
X118540983Y-136318363D01*
X118838363Y-136020983D01*
X119072012Y-135671302D01*
X119232953Y-135282756D01*
X119315000Y-134870279D01*
X119315000Y-134449721D01*
X125205000Y-134449721D01*
X125205000Y-134870279D01*
X125287047Y-135282756D01*
X125447988Y-135671302D01*
X125681637Y-136020983D01*
X125979017Y-136318363D01*
X126328698Y-136552012D01*
X126717244Y-136712953D01*
X127129721Y-136795000D01*
X127550279Y-136795000D01*
X127962756Y-136712953D01*
X128351302Y-136552012D01*
X128700983Y-136318363D01*
X128998363Y-136020983D01*
X129232012Y-135671302D01*
X129392953Y-135282756D01*
X129475000Y-134870279D01*
X129475000Y-134449721D01*
X135365000Y-134449721D01*
X135365000Y-134870279D01*
X135447047Y-135282756D01*
X135607988Y-135671302D01*
X135841637Y-136020983D01*
X136139017Y-136318363D01*
X136488698Y-136552012D01*
X136877244Y-136712953D01*
X137289721Y-136795000D01*
X137710279Y-136795000D01*
X138122756Y-136712953D01*
X138511302Y-136552012D01*
X138860983Y-136318363D01*
X139158363Y-136020983D01*
X139392012Y-135671302D01*
X139552953Y-135282756D01*
X139635000Y-134870279D01*
X139635000Y-134449721D01*
X145525000Y-134449721D01*
X145525000Y-134870279D01*
X145607047Y-135282756D01*
X145767988Y-135671302D01*
X146001637Y-136020983D01*
X146299017Y-136318363D01*
X146648698Y-136552012D01*
X147037244Y-136712953D01*
X147449721Y-136795000D01*
X147870279Y-136795000D01*
X148282756Y-136712953D01*
X148671302Y-136552012D01*
X149020983Y-136318363D01*
X149318363Y-136020983D01*
X149552012Y-135671302D01*
X149712953Y-135282756D01*
X149795000Y-134870279D01*
X149795000Y-134449721D01*
X155685000Y-134449721D01*
X155685000Y-134870279D01*
X155767047Y-135282756D01*
X155927988Y-135671302D01*
X156161637Y-136020983D01*
X156459017Y-136318363D01*
X156808698Y-136552012D01*
X157197244Y-136712953D01*
X157609721Y-136795000D01*
X158030279Y-136795000D01*
X158442756Y-136712953D01*
X158831302Y-136552012D01*
X159180983Y-136318363D01*
X159478363Y-136020983D01*
X159712012Y-135671302D01*
X159872953Y-135282756D01*
X159955000Y-134870279D01*
X159955000Y-134449721D01*
X165845000Y-134449721D01*
X165845000Y-134870279D01*
X165927047Y-135282756D01*
X166087988Y-135671302D01*
X166321637Y-136020983D01*
X166619017Y-136318363D01*
X166968698Y-136552012D01*
X167357244Y-136712953D01*
X167769721Y-136795000D01*
X168190279Y-136795000D01*
X168602756Y-136712953D01*
X168991302Y-136552012D01*
X169340983Y-136318363D01*
X169638363Y-136020983D01*
X169872012Y-135671302D01*
X170032953Y-135282756D01*
X170115000Y-134870279D01*
X170115000Y-134449721D01*
X170032953Y-134037244D01*
X169872012Y-133648698D01*
X169638363Y-133299017D01*
X169340983Y-133001637D01*
X168991302Y-132767988D01*
X168602756Y-132607047D01*
X168190279Y-132525000D01*
X167769721Y-132525000D01*
X167357244Y-132607047D01*
X166968698Y-132767988D01*
X166619017Y-133001637D01*
X166321637Y-133299017D01*
X166087988Y-133648698D01*
X165927047Y-134037244D01*
X165845000Y-134449721D01*
X159955000Y-134449721D01*
X159872953Y-134037244D01*
X159712012Y-133648698D01*
X159478363Y-133299017D01*
X159180983Y-133001637D01*
X158831302Y-132767988D01*
X158442756Y-132607047D01*
X158030279Y-132525000D01*
X157609721Y-132525000D01*
X157197244Y-132607047D01*
X156808698Y-132767988D01*
X156459017Y-133001637D01*
X156161637Y-133299017D01*
X155927988Y-133648698D01*
X155767047Y-134037244D01*
X155685000Y-134449721D01*
X149795000Y-134449721D01*
X149712953Y-134037244D01*
X149552012Y-133648698D01*
X149318363Y-133299017D01*
X149020983Y-133001637D01*
X148671302Y-132767988D01*
X148282756Y-132607047D01*
X147870279Y-132525000D01*
X147449721Y-132525000D01*
X147037244Y-132607047D01*
X146648698Y-132767988D01*
X146299017Y-133001637D01*
X146001637Y-133299017D01*
X145767988Y-133648698D01*
X145607047Y-134037244D01*
X145525000Y-134449721D01*
X139635000Y-134449721D01*
X139552953Y-134037244D01*
X139392012Y-133648698D01*
X139158363Y-133299017D01*
X138860983Y-133001637D01*
X138511302Y-132767988D01*
X138122756Y-132607047D01*
X137710279Y-132525000D01*
X137289721Y-132525000D01*
X136877244Y-132607047D01*
X136488698Y-132767988D01*
X136139017Y-133001637D01*
X135841637Y-133299017D01*
X135607988Y-133648698D01*
X135447047Y-134037244D01*
X135365000Y-134449721D01*
X129475000Y-134449721D01*
X129392953Y-134037244D01*
X129232012Y-133648698D01*
X128998363Y-133299017D01*
X128700983Y-133001637D01*
X128351302Y-132767988D01*
X127962756Y-132607047D01*
X127550279Y-132525000D01*
X127129721Y-132525000D01*
X126717244Y-132607047D01*
X126328698Y-132767988D01*
X125979017Y-133001637D01*
X125681637Y-133299017D01*
X125447988Y-133648698D01*
X125287047Y-134037244D01*
X125205000Y-134449721D01*
X119315000Y-134449721D01*
X119232953Y-134037244D01*
X119072012Y-133648698D01*
X118838363Y-133299017D01*
X118540983Y-133001637D01*
X118191302Y-132767988D01*
X117802756Y-132607047D01*
X117390279Y-132525000D01*
X116969721Y-132525000D01*
X116557244Y-132607047D01*
X116168698Y-132767988D01*
X115819017Y-133001637D01*
X115521637Y-133299017D01*
X115287988Y-133648698D01*
X115127047Y-134037244D01*
X115045000Y-134449721D01*
X109155000Y-134449721D01*
X109072953Y-134037244D01*
X108912012Y-133648698D01*
X108678363Y-133299017D01*
X108380983Y-133001637D01*
X108031302Y-132767988D01*
X107642756Y-132607047D01*
X107230279Y-132525000D01*
X106809721Y-132525000D01*
X106397244Y-132607047D01*
X106008698Y-132767988D01*
X105659017Y-133001637D01*
X105361637Y-133299017D01*
X105127988Y-133648698D01*
X104967047Y-134037244D01*
X104885000Y-134449721D01*
X100660000Y-134449721D01*
X100660000Y-130893377D01*
X110966229Y-130893377D01*
X111092104Y-131183315D01*
X111424262Y-131349139D01*
X111782387Y-131446975D01*
X112152719Y-131473065D01*
X112521025Y-131426405D01*
X112873151Y-131308789D01*
X113107896Y-131183315D01*
X113233771Y-130893377D01*
X161766229Y-130893377D01*
X161892104Y-131183315D01*
X162224262Y-131349139D01*
X162582387Y-131446975D01*
X162952719Y-131473065D01*
X163321025Y-131426405D01*
X163673151Y-131308789D01*
X163907896Y-131183315D01*
X164033771Y-130893377D01*
X162900000Y-129759605D01*
X161766229Y-130893377D01*
X113233771Y-130893377D01*
X112100000Y-129759605D01*
X110966229Y-130893377D01*
X100660000Y-130893377D01*
X100660000Y-129632719D01*
X110206935Y-129632719D01*
X110253595Y-130001025D01*
X110371211Y-130353151D01*
X110496685Y-130587896D01*
X110786623Y-130713771D01*
X111920395Y-129580000D01*
X112279605Y-129580000D01*
X113413377Y-130713771D01*
X113703315Y-130587896D01*
X113869139Y-130255738D01*
X113966975Y-129897613D01*
X113985636Y-129632719D01*
X161006935Y-129632719D01*
X161053595Y-130001025D01*
X161171211Y-130353151D01*
X161296685Y-130587896D01*
X161586623Y-130713771D01*
X162720395Y-129580000D01*
X163079605Y-129580000D01*
X164213377Y-130713771D01*
X164503315Y-130587896D01*
X164669139Y-130255738D01*
X164766975Y-129897613D01*
X164793065Y-129527281D01*
X164746405Y-129158975D01*
X164628789Y-128806849D01*
X164503315Y-128572104D01*
X164213377Y-128446229D01*
X163079605Y-129580000D01*
X162720395Y-129580000D01*
X161586623Y-128446229D01*
X161296685Y-128572104D01*
X161130861Y-128904262D01*
X161033025Y-129262387D01*
X161006935Y-129632719D01*
X113985636Y-129632719D01*
X113993065Y-129527281D01*
X113946405Y-129158975D01*
X113828789Y-128806849D01*
X113703315Y-128572104D01*
X113413377Y-128446229D01*
X112279605Y-129580000D01*
X111920395Y-129580000D01*
X110786623Y-128446229D01*
X110496685Y-128572104D01*
X110330861Y-128904262D01*
X110233025Y-129262387D01*
X110206935Y-129632719D01*
X100660000Y-129632719D01*
X100660000Y-128266623D01*
X110966229Y-128266623D01*
X112100000Y-129400395D01*
X113233771Y-128266623D01*
X161766229Y-128266623D01*
X162900000Y-129400395D01*
X164033771Y-128266623D01*
X163907896Y-127976685D01*
X163575738Y-127810861D01*
X163217613Y-127713025D01*
X162847281Y-127686935D01*
X162478975Y-127733595D01*
X162126849Y-127851211D01*
X161892104Y-127976685D01*
X161766229Y-128266623D01*
X113233771Y-128266623D01*
X113107896Y-127976685D01*
X112775738Y-127810861D01*
X112417613Y-127713025D01*
X112047281Y-127686935D01*
X111678975Y-127733595D01*
X111326849Y-127851211D01*
X111092104Y-127976685D01*
X110966229Y-128266623D01*
X100660000Y-128266623D01*
X100660000Y-124289721D01*
X103365000Y-124289721D01*
X103365000Y-124710279D01*
X103447047Y-125122756D01*
X103607988Y-125511302D01*
X103841637Y-125860983D01*
X104139017Y-126158363D01*
X104488698Y-126392012D01*
X104877244Y-126552953D01*
X105289721Y-126635000D01*
X105710279Y-126635000D01*
X106122756Y-126552953D01*
X106511302Y-126392012D01*
X106860983Y-126158363D01*
X107158363Y-125860983D01*
X107392012Y-125511302D01*
X107552953Y-125122756D01*
X107635000Y-124710279D01*
X107635000Y-124289721D01*
X115045000Y-124289721D01*
X115045000Y-124710279D01*
X115127047Y-125122756D01*
X115287988Y-125511302D01*
X115521637Y-125860983D01*
X115819017Y-126158363D01*
X116168698Y-126392012D01*
X116557244Y-126552953D01*
X116969721Y-126635000D01*
X117390279Y-126635000D01*
X117802756Y-126552953D01*
X118191302Y-126392012D01*
X118540983Y-126158363D01*
X118838363Y-125860983D01*
X119072012Y-125511302D01*
X119232953Y-125122756D01*
X119315000Y-124710279D01*
X119315000Y-124289721D01*
X125205000Y-124289721D01*
X125205000Y-124710279D01*
X125287047Y-125122756D01*
X125447988Y-125511302D01*
X125681637Y-125860983D01*
X125979017Y-126158363D01*
X126328698Y-126392012D01*
X126717244Y-126552953D01*
X127129721Y-126635000D01*
X127550279Y-126635000D01*
X127962756Y-126552953D01*
X128351302Y-126392012D01*
X128700983Y-126158363D01*
X128998363Y-125860983D01*
X129232012Y-125511302D01*
X129392953Y-125122756D01*
X129475000Y-124710279D01*
X129475000Y-124289721D01*
X135365000Y-124289721D01*
X135365000Y-124710279D01*
X135447047Y-125122756D01*
X135607988Y-125511302D01*
X135841637Y-125860983D01*
X136139017Y-126158363D01*
X136488698Y-126392012D01*
X136877244Y-126552953D01*
X137289721Y-126635000D01*
X137710279Y-126635000D01*
X138122756Y-126552953D01*
X138511302Y-126392012D01*
X138860983Y-126158363D01*
X139158363Y-125860983D01*
X139392012Y-125511302D01*
X139552953Y-125122756D01*
X139635000Y-124710279D01*
X139635000Y-124289721D01*
X145525000Y-124289721D01*
X145525000Y-124710279D01*
X145607047Y-125122756D01*
X145767988Y-125511302D01*
X146001637Y-125860983D01*
X146299017Y-126158363D01*
X146648698Y-126392012D01*
X147037244Y-126552953D01*
X147449721Y-126635000D01*
X147870279Y-126635000D01*
X148282756Y-126552953D01*
X148671302Y-126392012D01*
X149020983Y-126158363D01*
X149318363Y-125860983D01*
X149552012Y-125511302D01*
X149712953Y-125122756D01*
X149795000Y-124710279D01*
X149795000Y-124289721D01*
X155685000Y-124289721D01*
X155685000Y-124710279D01*
X155767047Y-125122756D01*
X155927988Y-125511302D01*
X156161637Y-125860983D01*
X156459017Y-126158363D01*
X156808698Y-126392012D01*
X157197244Y-126552953D01*
X157609721Y-126635000D01*
X158030279Y-126635000D01*
X158442756Y-126552953D01*
X158831302Y-126392012D01*
X159180983Y-126158363D01*
X159478363Y-125860983D01*
X159712012Y-125511302D01*
X159872953Y-125122756D01*
X159955000Y-124710279D01*
X159955000Y-124289721D01*
X167365000Y-124289721D01*
X167365000Y-124710279D01*
X167447047Y-125122756D01*
X167607988Y-125511302D01*
X167841637Y-125860983D01*
X168139017Y-126158363D01*
X168488698Y-126392012D01*
X168877244Y-126552953D01*
X169289721Y-126635000D01*
X169710279Y-126635000D01*
X170122756Y-126552953D01*
X170511302Y-126392012D01*
X170860983Y-126158363D01*
X171158363Y-125860983D01*
X171392012Y-125511302D01*
X171552953Y-125122756D01*
X171635000Y-124710279D01*
X171635000Y-124289721D01*
X171552953Y-123877244D01*
X171392012Y-123488698D01*
X171158363Y-123139017D01*
X170860983Y-122841637D01*
X170511302Y-122607988D01*
X170122756Y-122447047D01*
X169710279Y-122365000D01*
X169289721Y-122365000D01*
X168877244Y-122447047D01*
X168488698Y-122607988D01*
X168139017Y-122841637D01*
X167841637Y-123139017D01*
X167607988Y-123488698D01*
X167447047Y-123877244D01*
X167365000Y-124289721D01*
X159955000Y-124289721D01*
X159872953Y-123877244D01*
X159712012Y-123488698D01*
X159478363Y-123139017D01*
X159180983Y-122841637D01*
X158831302Y-122607988D01*
X158442756Y-122447047D01*
X158030279Y-122365000D01*
X157609721Y-122365000D01*
X157197244Y-122447047D01*
X156808698Y-122607988D01*
X156459017Y-122841637D01*
X156161637Y-123139017D01*
X155927988Y-123488698D01*
X155767047Y-123877244D01*
X155685000Y-124289721D01*
X149795000Y-124289721D01*
X149712953Y-123877244D01*
X149552012Y-123488698D01*
X149318363Y-123139017D01*
X149020983Y-122841637D01*
X148671302Y-122607988D01*
X148282756Y-122447047D01*
X147870279Y-122365000D01*
X147449721Y-122365000D01*
X147037244Y-122447047D01*
X146648698Y-122607988D01*
X146299017Y-122841637D01*
X146001637Y-123139017D01*
X145767988Y-123488698D01*
X145607047Y-123877244D01*
X145525000Y-124289721D01*
X139635000Y-124289721D01*
X139552953Y-123877244D01*
X139392012Y-123488698D01*
X139158363Y-123139017D01*
X138860983Y-122841637D01*
X138511302Y-122607988D01*
X138122756Y-122447047D01*
X137710279Y-122365000D01*
X137289721Y-122365000D01*
X136877244Y-122447047D01*
X136488698Y-122607988D01*
X136139017Y-122841637D01*
X135841637Y-123139017D01*
X135607988Y-123488698D01*
X135447047Y-123877244D01*
X135365000Y-124289721D01*
X129475000Y-124289721D01*
X129392953Y-123877244D01*
X129232012Y-123488698D01*
X128998363Y-123139017D01*
X128700983Y-122841637D01*
X128351302Y-122607988D01*
X127962756Y-122447047D01*
X127550279Y-122365000D01*
X127129721Y-122365000D01*
X126717244Y-122447047D01*
X126328698Y-122607988D01*
X125979017Y-122841637D01*
X125681637Y-123139017D01*
X125447988Y-123488698D01*
X125287047Y-123877244D01*
X125205000Y-124289721D01*
X119315000Y-124289721D01*
X119232953Y-123877244D01*
X119072012Y-123488698D01*
X118838363Y-123139017D01*
X118540983Y-122841637D01*
X118191302Y-122607988D01*
X117802756Y-122447047D01*
X117390279Y-122365000D01*
X116969721Y-122365000D01*
X116557244Y-122447047D01*
X116168698Y-122607988D01*
X115819017Y-122841637D01*
X115521637Y-123139017D01*
X115287988Y-123488698D01*
X115127047Y-123877244D01*
X115045000Y-124289721D01*
X107635000Y-124289721D01*
X107552953Y-123877244D01*
X107392012Y-123488698D01*
X107158363Y-123139017D01*
X106860983Y-122841637D01*
X106511302Y-122607988D01*
X106122756Y-122447047D01*
X105710279Y-122365000D01*
X105289721Y-122365000D01*
X104877244Y-122447047D01*
X104488698Y-122607988D01*
X104139017Y-122841637D01*
X103841637Y-123139017D01*
X103607988Y-123488698D01*
X103447047Y-123877244D01*
X103365000Y-124289721D01*
X100660000Y-124289721D01*
X100660000Y-120733377D01*
X110966229Y-120733377D01*
X111092104Y-121023315D01*
X111424262Y-121189139D01*
X111782387Y-121286975D01*
X112152719Y-121313065D01*
X112521025Y-121266405D01*
X112873151Y-121148789D01*
X113107896Y-121023315D01*
X113233771Y-120733377D01*
X112100000Y-119599605D01*
X110966229Y-120733377D01*
X100660000Y-120733377D01*
X100660000Y-119472719D01*
X110206935Y-119472719D01*
X110253595Y-119841025D01*
X110371211Y-120193151D01*
X110496685Y-120427896D01*
X110786623Y-120553771D01*
X111920395Y-119420000D01*
X112279605Y-119420000D01*
X113413377Y-120553771D01*
X113703315Y-120427896D01*
X113869139Y-120095738D01*
X113966975Y-119737613D01*
X113988745Y-119428596D01*
X148661170Y-119428596D01*
X148661193Y-119437532D01*
X148662252Y-119549144D01*
X148662307Y-119549651D01*
X148662262Y-119550163D01*
X148662424Y-119559098D01*
X148665019Y-119662697D01*
X148665308Y-119665036D01*
X148665153Y-119667398D01*
X148665505Y-119676327D01*
X148669641Y-119765489D01*
X148670688Y-119772705D01*
X148670479Y-119779993D01*
X148671158Y-119788904D01*
X148676841Y-119857200D01*
X148681311Y-119881659D01*
X148682873Y-119906475D01*
X148684364Y-119915286D01*
X148691596Y-119956292D01*
X148699793Y-119985647D01*
X148705008Y-120015669D01*
X148716548Y-120045649D01*
X148725190Y-120076596D01*
X148738931Y-120103796D01*
X148742507Y-120113085D01*
X148747007Y-120125743D01*
X148748060Y-120127511D01*
X148749879Y-120132237D01*
X148753944Y-120140195D01*
X148758304Y-120148587D01*
X148772857Y-120170950D01*
X148781512Y-120188083D01*
X148792507Y-120202155D01*
X148810912Y-120233064D01*
X148819463Y-120242570D01*
X148826431Y-120253278D01*
X148856829Y-120284478D01*
X148858415Y-120286508D01*
X148860877Y-120288633D01*
X148861142Y-120288905D01*
X148894445Y-120325928D01*
X148904682Y-120333594D01*
X148913596Y-120342743D01*
X148954592Y-120370968D01*
X148994426Y-120400797D01*
X149005942Y-120406322D01*
X149016476Y-120413574D01*
X149062178Y-120433300D01*
X149068587Y-120436374D01*
X149070022Y-120437257D01*
X149071820Y-120437925D01*
X149107043Y-120454823D01*
X149115460Y-120457824D01*
X149139733Y-120466290D01*
X149163842Y-120472135D01*
X149187099Y-120480781D01*
X149195755Y-120483002D01*
X149251027Y-120496775D01*
X149254945Y-120497353D01*
X149258689Y-120498634D01*
X149267400Y-120500627D01*
X149348164Y-120518512D01*
X149348275Y-120518525D01*
X149348387Y-120518562D01*
X149357126Y-120520429D01*
X149457876Y-120541231D01*
X149457991Y-120541243D01*
X149464505Y-120542564D01*
X149579734Y-120565089D01*
X149579895Y-120565104D01*
X149584248Y-120565954D01*
X149647028Y-120577759D01*
X149647072Y-120577763D01*
X149647696Y-120577884D01*
X149732260Y-120593692D01*
X149720817Y-120610557D01*
X149683949Y-120664241D01*
X149683900Y-120664329D01*
X149682899Y-120665775D01*
X149613853Y-120766944D01*
X149613792Y-120767056D01*
X149610207Y-120772346D01*
X149548881Y-120864197D01*
X149548851Y-120864253D01*
X149544506Y-120870840D01*
X149493892Y-120948726D01*
X149493096Y-120950261D01*
X149492022Y-120951620D01*
X149487247Y-120959173D01*
X149450339Y-121018447D01*
X149445842Y-121027542D01*
X149439923Y-121035780D01*
X149435496Y-121043542D01*
X149415285Y-121079560D01*
X149395944Y-121123624D01*
X149394257Y-121127039D01*
X149381679Y-121150044D01*
X149379533Y-121156862D01*
X149374641Y-121166771D01*
X149371544Y-121175154D01*
X149368625Y-121183227D01*
X149367030Y-121189497D01*
X149365082Y-121193934D01*
X149359549Y-121218895D01*
X149357602Y-121226547D01*
X149344182Y-121269189D01*
X149342229Y-121286962D01*
X149337824Y-121304276D01*
X149335426Y-121348893D01*
X149330542Y-121393349D01*
X149332079Y-121411163D01*
X149331120Y-121429002D01*
X149337435Y-121473244D01*
X149341278Y-121517793D01*
X149346244Y-121534961D01*
X149348769Y-121552655D01*
X149363563Y-121594844D01*
X149375982Y-121637781D01*
X149384188Y-121653659D01*
X149390102Y-121670524D01*
X149412799Y-121709020D01*
X149420720Y-121724346D01*
X149422446Y-121728365D01*
X149423870Y-121730441D01*
X149433329Y-121748744D01*
X149438240Y-121756210D01*
X149450788Y-121775003D01*
X149473139Y-121802280D01*
X149493091Y-121831373D01*
X149498888Y-121838174D01*
X149533578Y-121878301D01*
X149537507Y-121882037D01*
X149540709Y-121886410D01*
X149546713Y-121893028D01*
X149599113Y-121949992D01*
X149599320Y-121950177D01*
X149599489Y-121950401D01*
X149605590Y-121956930D01*
X149671269Y-122026238D01*
X149671374Y-122026329D01*
X149675502Y-122030662D01*
X149750030Y-122107816D01*
X149750149Y-122107917D01*
X149753382Y-122111260D01*
X149832325Y-122191766D01*
X149832443Y-122191865D01*
X149835505Y-122194987D01*
X149914435Y-122274349D01*
X149914559Y-122274451D01*
X149917995Y-122277900D01*
X149992478Y-122351623D01*
X149992573Y-122351701D01*
X149997275Y-122356321D01*
X150062881Y-122419909D01*
X150063731Y-122420585D01*
X150064442Y-122421418D01*
X150070923Y-122427570D01*
X150123221Y-122476528D01*
X150129922Y-122481672D01*
X150135658Y-122487867D01*
X150142381Y-122493754D01*
X150176938Y-122523587D01*
X150215160Y-122550554D01*
X150252007Y-122579367D01*
X150259583Y-122584105D01*
X150271144Y-122591224D01*
X150276540Y-122593859D01*
X150279000Y-122595594D01*
X150286468Y-122598919D01*
X150298448Y-122607121D01*
X150341414Y-122625532D01*
X150383387Y-122646025D01*
X150398687Y-122650074D01*
X150413258Y-122656318D01*
X150458997Y-122666036D01*
X150504136Y-122677982D01*
X150519937Y-122678983D01*
X150535437Y-122682276D01*
X150582162Y-122682924D01*
X150628792Y-122685878D01*
X150644495Y-122683789D01*
X150660331Y-122684009D01*
X150706280Y-122675571D01*
X150752608Y-122669409D01*
X150767609Y-122664309D01*
X150783184Y-122661449D01*
X150826619Y-122644248D01*
X150870867Y-122629205D01*
X150884588Y-122621291D01*
X150899314Y-122615459D01*
X150907233Y-122611318D01*
X150926057Y-122601308D01*
X150940917Y-122591433D01*
X150957009Y-122583726D01*
X150964621Y-122579044D01*
X151009644Y-122550919D01*
X151010480Y-122550275D01*
X151011422Y-122549804D01*
X151018952Y-122544992D01*
X151085795Y-122501616D01*
X151085904Y-122501529D01*
X151090543Y-122498506D01*
X151174831Y-122442742D01*
X151174954Y-122442642D01*
X151178162Y-122440523D01*
X151275517Y-122375235D01*
X151275623Y-122375148D01*
X151277961Y-122373588D01*
X151351398Y-122323848D01*
X151351457Y-122323799D01*
X151352369Y-122323188D01*
X151421263Y-122276341D01*
X151436998Y-122359808D01*
X151437003Y-122359834D01*
X151520824Y-122804458D01*
X151521019Y-122805126D01*
X151521082Y-122805817D01*
X151538552Y-122865174D01*
X151555832Y-122924358D01*
X151556151Y-122924971D01*
X151556348Y-122925641D01*
X151585037Y-122980517D01*
X151613461Y-123035175D01*
X151613895Y-123035717D01*
X151614217Y-123036333D01*
X151652849Y-123084382D01*
X151691516Y-123132689D01*
X151692049Y-123133138D01*
X151692483Y-123133678D01*
X151739819Y-123173397D01*
X151787027Y-123213183D01*
X151787633Y-123213518D01*
X151788167Y-123213966D01*
X151842595Y-123243888D01*
X151896353Y-123273593D01*
X151897010Y-123273803D01*
X151897623Y-123274140D01*
X151956670Y-123292870D01*
X152015330Y-123311618D01*
X152016021Y-123311697D01*
X152016683Y-123311907D01*
X152078085Y-123318795D01*
X152139427Y-123325810D01*
X152140119Y-123325753D01*
X152140810Y-123325831D01*
X152149746Y-123325893D01*
X153075194Y-123325893D01*
X153075884Y-123325825D01*
X153076579Y-123325892D01*
X153138254Y-123319710D01*
X153199504Y-123313704D01*
X153200168Y-123313504D01*
X153200862Y-123313434D01*
X153260010Y-123295436D01*
X153319079Y-123277602D01*
X153319694Y-123277275D01*
X153320358Y-123277073D01*
X153374818Y-123247966D01*
X153429365Y-123218963D01*
X153429903Y-123218524D01*
X153430517Y-123218196D01*
X153478478Y-123178907D01*
X153526160Y-123140018D01*
X153526600Y-123139486D01*
X153527142Y-123139042D01*
X153566607Y-123091126D01*
X153605778Y-123043776D01*
X153606108Y-123043166D01*
X153606551Y-123042628D01*
X153635778Y-122988292D01*
X153665186Y-122933903D01*
X153665393Y-122933235D01*
X153665721Y-122932625D01*
X153683821Y-122873702D01*
X153702122Y-122814583D01*
X153702195Y-122813891D01*
X153702399Y-122813226D01*
X153704116Y-122804457D01*
X153787936Y-122359832D01*
X153803676Y-122276341D01*
X153872569Y-122323188D01*
X153872652Y-122323233D01*
X153873998Y-122324157D01*
X153977908Y-122394406D01*
X153978040Y-122394477D01*
X153980941Y-122396444D01*
X154074871Y-122459168D01*
X154075009Y-122459242D01*
X154078586Y-122461630D01*
X154158151Y-122513964D01*
X154158252Y-122514017D01*
X154163869Y-122517682D01*
X154224687Y-122556763D01*
X154227526Y-122558217D01*
X154230050Y-122560172D01*
X154237649Y-122564875D01*
X154275336Y-122587839D01*
X154299530Y-122599512D01*
X154322280Y-122613811D01*
X154330301Y-122617749D01*
X154340566Y-122622700D01*
X154358996Y-122629463D01*
X154376353Y-122638631D01*
X154387557Y-122641980D01*
X154387834Y-122642114D01*
X154389126Y-122642450D01*
X154417509Y-122650934D01*
X154457826Y-122665729D01*
X154477211Y-122668782D01*
X154496026Y-122674407D01*
X154538801Y-122678483D01*
X154581211Y-122685163D01*
X154600820Y-122684393D01*
X154620369Y-122686256D01*
X154663105Y-122681948D01*
X154706021Y-122680263D01*
X154725116Y-122675697D01*
X154744645Y-122673728D01*
X154785718Y-122661204D01*
X154827502Y-122651212D01*
X154845353Y-122643021D01*
X154864121Y-122637298D01*
X154901981Y-122617035D01*
X154941027Y-122599118D01*
X154956936Y-122587623D01*
X154974246Y-122578359D01*
X154981641Y-122573341D01*
X155000130Y-122560607D01*
X155027228Y-122537742D01*
X155056171Y-122517248D01*
X155062884Y-122511349D01*
X155102394Y-122476143D01*
X155106063Y-122472166D01*
X155110383Y-122468903D01*
X155116911Y-122462801D01*
X155173013Y-122409620D01*
X155173188Y-122409418D01*
X155173405Y-122409249D01*
X155179842Y-122403051D01*
X155248106Y-122336395D01*
X155248195Y-122336289D01*
X155252451Y-122332112D01*
X155328449Y-122256477D01*
X155328548Y-122256357D01*
X155331833Y-122253084D01*
X155411139Y-122172966D01*
X155411241Y-122172841D01*
X155414293Y-122169757D01*
X155492477Y-122089655D01*
X155492578Y-122089529D01*
X155495963Y-122086055D01*
X155568595Y-122010464D01*
X155568668Y-122010371D01*
X155573199Y-122005623D01*
X155635851Y-121939042D01*
X155636492Y-121938212D01*
X155637283Y-121937516D01*
X155643339Y-121930945D01*
X155691583Y-121877872D01*
X155696568Y-121871177D01*
X155702616Y-121865414D01*
X155708405Y-121858607D01*
X155737812Y-121823538D01*
X155763837Y-121785502D01*
X155791778Y-121748859D01*
X155796424Y-121741226D01*
X155803455Y-121729490D01*
X155806354Y-121723365D01*
X155808346Y-121720453D01*
X155814188Y-121706811D01*
X155828232Y-121677134D01*
X155853763Y-121625108D01*
X155854939Y-121620700D01*
X155856885Y-121616588D01*
X155871008Y-121560468D01*
X155885960Y-121504423D01*
X155886257Y-121499872D01*
X155887368Y-121495459D01*
X155890325Y-121437615D01*
X155894104Y-121379782D01*
X155893512Y-121375265D01*
X155893745Y-121370715D01*
X155885402Y-121313353D01*
X155877881Y-121255934D01*
X155876424Y-121251620D01*
X155875768Y-121247109D01*
X155856456Y-121192496D01*
X155850786Y-121175707D01*
X155849835Y-121171684D01*
X155848258Y-121168223D01*
X155837914Y-121137595D01*
X155834185Y-121129474D01*
X155824067Y-121107837D01*
X155809719Y-121083635D01*
X155798048Y-121058020D01*
X155793513Y-121050321D01*
X155765149Y-121002919D01*
X155762522Y-120999368D01*
X155760580Y-120995401D01*
X155755833Y-120987829D01*
X155712203Y-120919298D01*
X155712045Y-120919097D01*
X155711925Y-120918860D01*
X155707067Y-120911360D01*
X155651156Y-120826338D01*
X155651084Y-120826248D01*
X155647340Y-120820603D01*
X155588626Y-120733377D01*
X161766229Y-120733377D01*
X161892104Y-121023315D01*
X162224262Y-121189139D01*
X162582387Y-121286975D01*
X162952719Y-121313065D01*
X163321025Y-121266405D01*
X163673151Y-121148789D01*
X163907896Y-121023315D01*
X164033771Y-120733377D01*
X162900000Y-119599605D01*
X161766229Y-120733377D01*
X155588626Y-120733377D01*
X155582128Y-120723725D01*
X155582027Y-120723603D01*
X155579494Y-120719843D01*
X155541707Y-120664585D01*
X155493235Y-120593577D01*
X155512126Y-120590016D01*
X155576863Y-120577955D01*
X155576979Y-120577922D01*
X155579344Y-120577488D01*
X155699852Y-120554544D01*
X155699977Y-120554507D01*
X155706017Y-120553339D01*
X155814864Y-120531506D01*
X155814939Y-120531483D01*
X155822322Y-120529964D01*
X155914000Y-120510437D01*
X155915342Y-120510011D01*
X155916741Y-120509847D01*
X155925459Y-120507886D01*
X155994464Y-120491860D01*
X156003154Y-120488923D01*
X156012224Y-120487468D01*
X156020851Y-120485137D01*
X156061673Y-120473807D01*
X156099926Y-120459037D01*
X156139084Y-120446874D01*
X156147294Y-120443345D01*
X156155501Y-120439750D01*
X156167549Y-120433002D01*
X156180486Y-120428159D01*
X156221960Y-120402523D01*
X156264475Y-120378708D01*
X156274981Y-120369749D01*
X156286733Y-120362485D01*
X156322440Y-120329279D01*
X156359518Y-120297662D01*
X156368083Y-120286834D01*
X156378201Y-120277425D01*
X156406771Y-120237925D01*
X156437009Y-120199699D01*
X156443312Y-120187406D01*
X156451404Y-120176218D01*
X156471752Y-120131936D01*
X156493996Y-120088550D01*
X156497790Y-120075268D01*
X156503556Y-120062721D01*
X156506418Y-120054255D01*
X156514455Y-120029923D01*
X156527616Y-119971420D01*
X156541229Y-119913067D01*
X156541836Y-119908215D01*
X156541870Y-119908063D01*
X156541874Y-119907910D01*
X156542338Y-119904200D01*
X156548823Y-119849247D01*
X156549084Y-119836022D01*
X156551373Y-119822999D01*
X156551992Y-119814084D01*
X156556929Y-119734935D01*
X156556777Y-119730654D01*
X156557403Y-119726419D01*
X156557778Y-119717491D01*
X156561172Y-119620573D01*
X156561093Y-119619316D01*
X156561255Y-119618066D01*
X156561470Y-119609133D01*
X156563324Y-119500871D01*
X156563316Y-119500766D01*
X156563328Y-119500658D01*
X156563415Y-119491723D01*
X156563468Y-119472719D01*
X161006935Y-119472719D01*
X161053595Y-119841025D01*
X161171211Y-120193151D01*
X161296685Y-120427896D01*
X161586623Y-120553771D01*
X162720395Y-119420000D01*
X163079605Y-119420000D01*
X164213377Y-120553771D01*
X164503315Y-120427896D01*
X164669139Y-120095738D01*
X164766975Y-119737613D01*
X164793065Y-119367281D01*
X164746405Y-118998975D01*
X164628789Y-118646849D01*
X164503315Y-118412104D01*
X164213377Y-118286229D01*
X163079605Y-119420000D01*
X162720395Y-119420000D01*
X161586623Y-118286229D01*
X161296685Y-118412104D01*
X161130861Y-118744262D01*
X161033025Y-119102387D01*
X161006935Y-119472719D01*
X156563468Y-119472719D01*
X156563734Y-119378737D01*
X156563735Y-119378732D01*
X156563735Y-119378545D01*
X156563734Y-119378537D01*
X156563700Y-119369795D01*
X156562489Y-119258125D01*
X156562435Y-119257626D01*
X156562478Y-119257119D01*
X156562304Y-119248184D01*
X156559567Y-119144451D01*
X156559278Y-119142134D01*
X156559428Y-119139796D01*
X156559065Y-119130867D01*
X156554806Y-119041495D01*
X156553762Y-119034366D01*
X156553962Y-119027160D01*
X156553273Y-119018251D01*
X156547497Y-118949665D01*
X156543073Y-118925591D01*
X156541539Y-118901151D01*
X156540050Y-118892340D01*
X156532762Y-118850969D01*
X156525364Y-118824456D01*
X156520911Y-118797302D01*
X156508620Y-118764449D01*
X156499191Y-118730659D01*
X156490610Y-118713664D01*
X156487899Y-118704931D01*
X156482898Y-118695699D01*
X156477143Y-118680316D01*
X156473154Y-118672320D01*
X156468782Y-118663707D01*
X156452431Y-118638054D01*
X156442891Y-118619160D01*
X156438150Y-118613090D01*
X156428407Y-118595103D01*
X156413881Y-118577571D01*
X156401647Y-118558377D01*
X156374131Y-118529596D01*
X156348715Y-118498921D01*
X156331058Y-118484543D01*
X156315331Y-118468093D01*
X156282745Y-118445201D01*
X156251859Y-118420051D01*
X156231754Y-118409380D01*
X156213124Y-118396293D01*
X156176708Y-118380166D01*
X156141530Y-118361495D01*
X156133242Y-118358154D01*
X156107111Y-118347831D01*
X156075779Y-118338873D01*
X156045418Y-118327020D01*
X156036799Y-118324658D01*
X155981428Y-118309899D01*
X155973714Y-118308632D01*
X155966327Y-118306070D01*
X155957624Y-118304040D01*
X155880338Y-118286580D01*
X155877060Y-118286170D01*
X155873916Y-118285164D01*
X155865167Y-118283346D01*
X155773290Y-118264918D01*
X155773223Y-118264911D01*
X155773153Y-118264890D01*
X155764379Y-118263196D01*
X155732307Y-118257235D01*
X155732217Y-118257227D01*
X155730671Y-118256933D01*
X155577222Y-118228825D01*
X155520282Y-118218192D01*
X155511153Y-118194885D01*
X155509387Y-118190205D01*
X155544362Y-118139211D01*
X155544363Y-118139210D01*
X155562471Y-118112865D01*
X155562547Y-118112728D01*
X155565262Y-118108771D01*
X155566714Y-118106623D01*
X161766229Y-118106623D01*
X162900000Y-119240395D01*
X164033771Y-118106623D01*
X163907896Y-117816685D01*
X163575738Y-117650861D01*
X163217613Y-117553025D01*
X162847281Y-117526935D01*
X162478975Y-117573595D01*
X162126849Y-117691211D01*
X161892104Y-117816685D01*
X161766229Y-118106623D01*
X155566714Y-118106623D01*
X155631118Y-118011350D01*
X155631535Y-118010580D01*
X155632091Y-118009906D01*
X155637023Y-118002454D01*
X155694974Y-117913566D01*
X155695944Y-117911703D01*
X155697253Y-117910047D01*
X155702031Y-117902496D01*
X155748919Y-117827246D01*
X155751637Y-117821754D01*
X155755281Y-117816817D01*
X155759807Y-117809112D01*
X155792476Y-117752604D01*
X155802062Y-117731504D01*
X155814170Y-117711739D01*
X155818016Y-117703673D01*
X155833309Y-117671012D01*
X155838218Y-117657143D01*
X155845135Y-117644168D01*
X155859020Y-117598365D01*
X155874983Y-117553263D01*
X155877102Y-117538719D01*
X155881372Y-117524635D01*
X155883056Y-117515858D01*
X155883797Y-117511846D01*
X155887308Y-117470593D01*
X155893535Y-117429654D01*
X155892592Y-117408491D01*
X155894388Y-117387390D01*
X155889820Y-117346249D01*
X155887977Y-117304872D01*
X155882941Y-117284292D01*
X155880604Y-117263247D01*
X155868127Y-117223760D01*
X155858286Y-117183546D01*
X155849355Y-117164350D01*
X155842971Y-117144145D01*
X155823062Y-117107835D01*
X155805598Y-117070297D01*
X155801002Y-117062633D01*
X155788152Y-117041542D01*
X155760617Y-117004936D01*
X155735024Y-116966932D01*
X155729285Y-116960082D01*
X155693781Y-116918302D01*
X155687370Y-116912102D01*
X155682083Y-116904917D01*
X155676063Y-116898313D01*
X155622468Y-116840332D01*
X155620894Y-116838932D01*
X155619609Y-116837259D01*
X155613455Y-116830780D01*
X155546333Y-116761089D01*
X155546313Y-116761072D01*
X155540356Y-116754967D01*
X155464272Y-116678056D01*
X155464179Y-116677979D01*
X155459441Y-116673225D01*
X155378958Y-116593587D01*
X155378857Y-116593505D01*
X155374322Y-116589046D01*
X155294005Y-116511168D01*
X155293931Y-116511109D01*
X155288693Y-116506076D01*
X155213105Y-116434451D01*
X155212693Y-116434131D01*
X155212345Y-116433731D01*
X155205805Y-116427641D01*
X155139511Y-116366757D01*
X155136282Y-116364327D01*
X155133544Y-116361345D01*
X155126845Y-116355431D01*
X155074409Y-116309780D01*
X155061071Y-116300286D01*
X155049234Y-116288967D01*
X155042165Y-116283501D01*
X155008151Y-116257572D01*
X155002912Y-116254334D01*
X154998323Y-116250228D01*
X154963010Y-116229327D01*
X154952942Y-116221483D01*
X154935786Y-116212846D01*
X154901901Y-116191903D01*
X154896136Y-116189745D01*
X154890835Y-116186608D01*
X154882711Y-116182885D01*
X154873301Y-116178652D01*
X154856868Y-116173115D01*
X154841376Y-116165316D01*
X154800590Y-116153988D01*
X154784918Y-116148123D01*
X154780575Y-116147410D01*
X154754933Y-116138771D01*
X154737738Y-116136532D01*
X154721026Y-116131890D01*
X154675921Y-116128481D01*
X154631073Y-116122640D01*
X154613769Y-116123783D01*
X154596475Y-116122476D01*
X154551573Y-116127892D01*
X154506438Y-116130874D01*
X154489682Y-116135358D01*
X154472467Y-116137434D01*
X154429468Y-116151469D01*
X154385777Y-116163160D01*
X154370218Y-116170809D01*
X154353727Y-116176192D01*
X154345569Y-116179838D01*
X154323667Y-116189809D01*
X154296227Y-116205701D01*
X154267385Y-116218876D01*
X154259690Y-116223418D01*
X154214847Y-116250310D01*
X154209199Y-116254497D01*
X154202906Y-116257649D01*
X154195378Y-116262465D01*
X154134899Y-116301749D01*
X154133186Y-116303117D01*
X154131245Y-116304140D01*
X154123819Y-116309111D01*
X154077288Y-116340730D01*
X154077174Y-116340825D01*
X154074185Y-116342851D01*
X153990496Y-116400440D01*
X153892192Y-116467697D01*
X153870632Y-116482380D01*
X153832505Y-116467106D01*
X153786007Y-116453570D01*
X153754798Y-116442976D01*
X153746040Y-116439747D01*
X153744621Y-116439521D01*
X153740110Y-116437990D01*
X153731394Y-116436019D01*
X153721186Y-116433784D01*
X153715883Y-116433156D01*
X153712577Y-116432194D01*
X153693747Y-116430536D01*
X153671814Y-116427941D01*
X153622685Y-116420126D01*
X153609874Y-116420610D01*
X153597145Y-116419103D01*
X153547578Y-116422961D01*
X153497867Y-116424837D01*
X153485389Y-116427801D01*
X153472616Y-116428795D01*
X153424740Y-116442207D01*
X153376342Y-116453703D01*
X153364684Y-116459031D01*
X153352340Y-116462489D01*
X153307977Y-116484948D01*
X153262738Y-116505623D01*
X153252333Y-116513117D01*
X153240900Y-116518905D01*
X153201741Y-116549555D01*
X153161383Y-116578622D01*
X153152635Y-116587990D01*
X153142541Y-116595891D01*
X153110089Y-116633554D01*
X153076136Y-116669915D01*
X153070754Y-116677048D01*
X153058480Y-116693552D01*
X153034305Y-116733725D01*
X153008200Y-116772663D01*
X153004027Y-116780565D01*
X152979811Y-116827205D01*
X152977143Y-116833861D01*
X152973368Y-116839960D01*
X152969485Y-116848008D01*
X152935135Y-116920481D01*
X152934865Y-116921234D01*
X152934454Y-116921922D01*
X152930703Y-116930033D01*
X152888028Y-117024036D01*
X152887984Y-117024165D01*
X152885476Y-117029731D01*
X152836282Y-117140963D01*
X152836233Y-117141113D01*
X152834534Y-117144953D01*
X152780630Y-117269111D01*
X152780585Y-117269251D01*
X152779275Y-117272255D01*
X152722469Y-117405038D01*
X152722426Y-117405173D01*
X152721305Y-117407778D01*
X152663403Y-117544883D01*
X152663364Y-117545008D01*
X152662295Y-117547522D01*
X152612501Y-117666915D01*
X152609706Y-117660146D01*
X152609640Y-117660022D01*
X152608576Y-117657428D01*
X152551072Y-117519977D01*
X152551007Y-117519856D01*
X152549970Y-117517360D01*
X152492113Y-117380770D01*
X152492046Y-117380646D01*
X152490930Y-117377996D01*
X152434527Y-117246566D01*
X152434456Y-117246438D01*
X152433129Y-117243332D01*
X152379988Y-117121364D01*
X152379915Y-117121233D01*
X152378143Y-117117168D01*
X152330075Y-117008965D01*
X152330016Y-117008861D01*
X152327297Y-117002800D01*
X152286108Y-116912660D01*
X152285374Y-116911396D01*
X152284889Y-116910006D01*
X152281081Y-116901922D01*
X152248580Y-116834147D01*
X152243526Y-116825809D01*
X152239911Y-116816751D01*
X152235749Y-116808843D01*
X152213745Y-116767736D01*
X152181456Y-116719429D01*
X152149824Y-116670679D01*
X152144340Y-116663903D01*
X152144333Y-116663892D01*
X152144325Y-116663884D01*
X152144202Y-116663732D01*
X152135341Y-116652936D01*
X152091710Y-116609272D01*
X152048162Y-116565495D01*
X152047564Y-116565092D01*
X152047053Y-116564581D01*
X151995834Y-116530264D01*
X151944550Y-116495736D01*
X151943882Y-116495456D01*
X151943285Y-116495056D01*
X151886251Y-116471289D01*
X151829362Y-116447433D01*
X151828660Y-116447289D01*
X151827989Y-116447010D01*
X151767384Y-116434766D01*
X151706986Y-116422422D01*
X151706262Y-116422418D01*
X151705556Y-116422275D01*
X151643878Y-116422036D01*
X151582081Y-116421659D01*
X151581372Y-116421795D01*
X151580651Y-116421792D01*
X151520208Y-116433517D01*
X151459408Y-116445169D01*
X151458105Y-116445564D01*
X151458031Y-116445578D01*
X151457954Y-116445609D01*
X151450856Y-116447759D01*
X151423780Y-116456166D01*
X151393182Y-116469059D01*
X151361531Y-116479094D01*
X151354199Y-116482296D01*
X151292472Y-116440180D01*
X151198488Y-116375749D01*
X151151136Y-116343115D01*
X151151077Y-116343082D01*
X151144740Y-116338763D01*
X151077494Y-116293607D01*
X151072881Y-116291125D01*
X151068777Y-116287855D01*
X151061244Y-116283048D01*
X151004303Y-116247264D01*
X150993366Y-116241800D01*
X150983412Y-116234683D01*
X150975639Y-116230274D01*
X150936429Y-116208393D01*
X150893428Y-116189639D01*
X150868689Y-116177380D01*
X150860370Y-116172872D01*
X150858286Y-116172225D01*
X150851401Y-116168813D01*
X150843023Y-116165705D01*
X150830288Y-116161080D01*
X150824613Y-116159627D01*
X150821937Y-116158460D01*
X150808841Y-116155589D01*
X150785388Y-116149585D01*
X150741084Y-116135826D01*
X150724968Y-116134117D01*
X150709284Y-116130102D01*
X150663008Y-116127548D01*
X150616873Y-116122656D01*
X150600731Y-116124110D01*
X150584568Y-116123218D01*
X150538673Y-116129701D01*
X150492471Y-116133863D01*
X150476926Y-116138423D01*
X150460889Y-116140688D01*
X150417107Y-116155969D01*
X150372615Y-116169020D01*
X150358253Y-116176511D01*
X150342960Y-116181849D01*
X150302997Y-116205333D01*
X150295045Y-116209481D01*
X150289530Y-116211792D01*
X150285788Y-116214310D01*
X150261869Y-116226786D01*
X150254422Y-116231725D01*
X150235886Y-116244203D01*
X150211808Y-116264085D01*
X150185898Y-116281518D01*
X150179046Y-116287255D01*
X150138022Y-116322087D01*
X150134710Y-116325509D01*
X150130834Y-116328282D01*
X150124150Y-116334214D01*
X150064617Y-116387788D01*
X150064388Y-116388038D01*
X150064107Y-116388246D01*
X150057513Y-116394277D01*
X149983447Y-116462972D01*
X149983375Y-116463053D01*
X149978407Y-116467697D01*
X149893783Y-116547899D01*
X149893675Y-116548024D01*
X149890296Y-116551230D01*
X149836776Y-116602725D01*
X149836701Y-116602813D01*
X149831967Y-116607400D01*
X149738333Y-116699400D01*
X149737673Y-116700190D01*
X149736873Y-116700839D01*
X149730564Y-116707166D01*
X149649642Y-116789453D01*
X149647947Y-116791552D01*
X149645889Y-116793301D01*
X149639722Y-116799768D01*
X149574786Y-116868822D01*
X149570321Y-116874612D01*
X149564923Y-116879552D01*
X149558998Y-116886242D01*
X149513317Y-116938543D01*
X149498782Y-116958894D01*
X149481959Y-116977406D01*
X149476674Y-116984612D01*
X149453521Y-117016639D01*
X149441247Y-117037675D01*
X149440423Y-117038665D01*
X149438811Y-117041625D01*
X149422827Y-117063255D01*
X149408039Y-117094588D01*
X149390572Y-117124524D01*
X149385178Y-117140134D01*
X149380696Y-117148366D01*
X149376842Y-117160689D01*
X149369516Y-117176212D01*
X149366568Y-117184648D01*
X149364346Y-117191148D01*
X149357469Y-117220319D01*
X149349777Y-117242580D01*
X149348625Y-117250918D01*
X149343415Y-117267579D01*
X149340950Y-117290394D01*
X149335687Y-117312721D01*
X149334259Y-117352333D01*
X149332966Y-117364297D01*
X149332688Y-117366311D01*
X149332709Y-117366675D01*
X149329999Y-117391762D01*
X149332013Y-117414620D01*
X149331186Y-117437546D01*
X149337481Y-117476695D01*
X149340960Y-117516187D01*
X149347373Y-117538211D01*
X149351016Y-117560869D01*
X149364795Y-117598047D01*
X149375878Y-117636112D01*
X149379260Y-117644384D01*
X149389568Y-117669106D01*
X149406065Y-117699828D01*
X149419847Y-117731868D01*
X149424217Y-117739663D01*
X149452702Y-117789652D01*
X149456950Y-117795658D01*
X149460107Y-117802309D01*
X149464762Y-117809938D01*
X149508264Y-117880130D01*
X149509570Y-117881840D01*
X149510535Y-117883768D01*
X149515346Y-117891298D01*
X149570706Y-117976635D01*
X149571059Y-117977078D01*
X149571326Y-117977591D01*
X149576256Y-117985044D01*
X149640312Y-118080463D01*
X149640405Y-118080576D01*
X149643628Y-118085353D01*
X149661845Y-118111955D01*
X149661876Y-118111992D01*
X149662265Y-118112567D01*
X149715558Y-118190197D01*
X149704628Y-118218210D01*
X149672853Y-118224178D01*
X149526362Y-118251080D01*
X149494753Y-118256845D01*
X149494638Y-118256878D01*
X149488180Y-118258079D01*
X149393112Y-118276446D01*
X149390435Y-118277241D01*
X149387653Y-118277525D01*
X149378907Y-118279358D01*
X149296027Y-118297327D01*
X149290700Y-118299041D01*
X149285145Y-118299785D01*
X149276461Y-118301892D01*
X149213096Y-118317728D01*
X149195647Y-118323952D01*
X149177500Y-118327724D01*
X149168989Y-118330448D01*
X149132461Y-118342417D01*
X149077744Y-118366484D01*
X149074918Y-118367699D01*
X149042972Y-118379790D01*
X149034456Y-118385097D01*
X149022767Y-118390123D01*
X149018269Y-118392644D01*
X149018126Y-118392707D01*
X149018001Y-118392794D01*
X149014972Y-118394492D01*
X149010073Y-118397282D01*
X148974233Y-118422627D01*
X148936965Y-118445852D01*
X148923333Y-118458622D01*
X148908091Y-118469401D01*
X148877860Y-118501221D01*
X148845809Y-118531246D01*
X148834917Y-118546421D01*
X148822059Y-118559955D01*
X148798576Y-118597053D01*
X148772976Y-118632720D01*
X148765243Y-118649712D01*
X148755253Y-118665494D01*
X148739424Y-118706445D01*
X148721238Y-118746406D01*
X148718408Y-118754882D01*
X148710337Y-118779620D01*
X148697697Y-118836782D01*
X148684347Y-118893845D01*
X148683383Y-118901513D01*
X148683368Y-118901580D01*
X148683367Y-118901641D01*
X148683232Y-118902712D01*
X148676672Y-118957994D01*
X148676406Y-118971045D01*
X148674130Y-118983905D01*
X148673501Y-118992820D01*
X148668455Y-119072220D01*
X148668600Y-119076461D01*
X148667975Y-119080656D01*
X148667589Y-119089584D01*
X148664063Y-119186677D01*
X148664139Y-119187912D01*
X148663977Y-119189149D01*
X148663750Y-119198082D01*
X148661748Y-119306440D01*
X148661756Y-119306539D01*
X148661744Y-119306641D01*
X148661645Y-119315576D01*
X148661171Y-119428588D01*
X148661170Y-119428596D01*
X113988745Y-119428596D01*
X113993065Y-119367281D01*
X113946405Y-118998975D01*
X113828789Y-118646849D01*
X113703315Y-118412104D01*
X113413377Y-118286229D01*
X112279605Y-119420000D01*
X111920395Y-119420000D01*
X110786623Y-118286229D01*
X110496685Y-118412104D01*
X110330861Y-118744262D01*
X110233025Y-119102387D01*
X110206935Y-119472719D01*
X100660000Y-119472719D01*
X100660000Y-118106623D01*
X110966229Y-118106623D01*
X112100000Y-119240395D01*
X113233771Y-118106623D01*
X113107896Y-117816685D01*
X112775738Y-117650861D01*
X112417613Y-117553025D01*
X112047281Y-117526935D01*
X111678975Y-117573595D01*
X111326849Y-117691211D01*
X111092104Y-117816685D01*
X110966229Y-118106623D01*
X100660000Y-118106623D01*
X100660000Y-114129721D01*
X104885000Y-114129721D01*
X104885000Y-114550279D01*
X104967047Y-114962756D01*
X105127988Y-115351302D01*
X105361637Y-115700983D01*
X105659017Y-115998363D01*
X106008698Y-116232012D01*
X106397244Y-116392953D01*
X106809721Y-116475000D01*
X107230279Y-116475000D01*
X107642756Y-116392953D01*
X108031302Y-116232012D01*
X108380983Y-115998363D01*
X108678363Y-115700983D01*
X108912012Y-115351302D01*
X109072953Y-114962756D01*
X109155000Y-114550279D01*
X109155000Y-114129721D01*
X115045000Y-114129721D01*
X115045000Y-114550279D01*
X115127047Y-114962756D01*
X115287988Y-115351302D01*
X115521637Y-115700983D01*
X115819017Y-115998363D01*
X116168698Y-116232012D01*
X116557244Y-116392953D01*
X116969721Y-116475000D01*
X117390279Y-116475000D01*
X117802756Y-116392953D01*
X118191302Y-116232012D01*
X118540983Y-115998363D01*
X118838363Y-115700983D01*
X119072012Y-115351302D01*
X119232953Y-114962756D01*
X119315000Y-114550279D01*
X119315000Y-114129721D01*
X125205000Y-114129721D01*
X125205000Y-114550279D01*
X125287047Y-114962756D01*
X125447988Y-115351302D01*
X125681637Y-115700983D01*
X125979017Y-115998363D01*
X126328698Y-116232012D01*
X126717244Y-116392953D01*
X127129721Y-116475000D01*
X127550279Y-116475000D01*
X127962756Y-116392953D01*
X128351302Y-116232012D01*
X128700983Y-115998363D01*
X128998363Y-115700983D01*
X129232012Y-115351302D01*
X129392953Y-114962756D01*
X129475000Y-114550279D01*
X129475000Y-114129721D01*
X135365000Y-114129721D01*
X135365000Y-114550279D01*
X135447047Y-114962756D01*
X135607988Y-115351302D01*
X135841637Y-115700983D01*
X136139017Y-115998363D01*
X136488698Y-116232012D01*
X136877244Y-116392953D01*
X137289721Y-116475000D01*
X137710279Y-116475000D01*
X138122756Y-116392953D01*
X138511302Y-116232012D01*
X138860983Y-115998363D01*
X139158363Y-115700983D01*
X139392012Y-115351302D01*
X139552953Y-114962756D01*
X139635000Y-114550279D01*
X139635000Y-114129721D01*
X145525000Y-114129721D01*
X145525000Y-114550279D01*
X145607047Y-114962756D01*
X145767988Y-115351302D01*
X146001637Y-115700983D01*
X146299017Y-115998363D01*
X146648698Y-116232012D01*
X147037244Y-116392953D01*
X147449721Y-116475000D01*
X147870279Y-116475000D01*
X148282756Y-116392953D01*
X148671302Y-116232012D01*
X149020983Y-115998363D01*
X149318363Y-115700983D01*
X149552012Y-115351302D01*
X149712953Y-114962756D01*
X149795000Y-114550279D01*
X149795000Y-114129721D01*
X155685000Y-114129721D01*
X155685000Y-114550279D01*
X155767047Y-114962756D01*
X155927988Y-115351302D01*
X156161637Y-115700983D01*
X156459017Y-115998363D01*
X156808698Y-116232012D01*
X157197244Y-116392953D01*
X157609721Y-116475000D01*
X158030279Y-116475000D01*
X158442756Y-116392953D01*
X158831302Y-116232012D01*
X159180983Y-115998363D01*
X159478363Y-115700983D01*
X159712012Y-115351302D01*
X159872953Y-114962756D01*
X159955000Y-114550279D01*
X159955000Y-114129721D01*
X165845000Y-114129721D01*
X165845000Y-114550279D01*
X165927047Y-114962756D01*
X166087988Y-115351302D01*
X166321637Y-115700983D01*
X166619017Y-115998363D01*
X166968698Y-116232012D01*
X167357244Y-116392953D01*
X167769721Y-116475000D01*
X168190279Y-116475000D01*
X168602756Y-116392953D01*
X168991302Y-116232012D01*
X169340983Y-115998363D01*
X169638363Y-115700983D01*
X169872012Y-115351302D01*
X170032953Y-114962756D01*
X170115000Y-114550279D01*
X170115000Y-114129721D01*
X170032953Y-113717244D01*
X169872012Y-113328698D01*
X169638363Y-112979017D01*
X169340983Y-112681637D01*
X168991302Y-112447988D01*
X168602756Y-112287047D01*
X168190279Y-112205000D01*
X167769721Y-112205000D01*
X167357244Y-112287047D01*
X166968698Y-112447988D01*
X166619017Y-112681637D01*
X166321637Y-112979017D01*
X166087988Y-113328698D01*
X165927047Y-113717244D01*
X165845000Y-114129721D01*
X159955000Y-114129721D01*
X159872953Y-113717244D01*
X159712012Y-113328698D01*
X159478363Y-112979017D01*
X159180983Y-112681637D01*
X158831302Y-112447988D01*
X158442756Y-112287047D01*
X158030279Y-112205000D01*
X157609721Y-112205000D01*
X157197244Y-112287047D01*
X156808698Y-112447988D01*
X156459017Y-112681637D01*
X156161637Y-112979017D01*
X155927988Y-113328698D01*
X155767047Y-113717244D01*
X155685000Y-114129721D01*
X149795000Y-114129721D01*
X149712953Y-113717244D01*
X149552012Y-113328698D01*
X149318363Y-112979017D01*
X149020983Y-112681637D01*
X148671302Y-112447988D01*
X148282756Y-112287047D01*
X147870279Y-112205000D01*
X147449721Y-112205000D01*
X147037244Y-112287047D01*
X146648698Y-112447988D01*
X146299017Y-112681637D01*
X146001637Y-112979017D01*
X145767988Y-113328698D01*
X145607047Y-113717244D01*
X145525000Y-114129721D01*
X139635000Y-114129721D01*
X139552953Y-113717244D01*
X139392012Y-113328698D01*
X139158363Y-112979017D01*
X138860983Y-112681637D01*
X138511302Y-112447988D01*
X138122756Y-112287047D01*
X137710279Y-112205000D01*
X137289721Y-112205000D01*
X136877244Y-112287047D01*
X136488698Y-112447988D01*
X136139017Y-112681637D01*
X135841637Y-112979017D01*
X135607988Y-113328698D01*
X135447047Y-113717244D01*
X135365000Y-114129721D01*
X129475000Y-114129721D01*
X129392953Y-113717244D01*
X129232012Y-113328698D01*
X128998363Y-112979017D01*
X128700983Y-112681637D01*
X128351302Y-112447988D01*
X127962756Y-112287047D01*
X127550279Y-112205000D01*
X127129721Y-112205000D01*
X126717244Y-112287047D01*
X126328698Y-112447988D01*
X125979017Y-112681637D01*
X125681637Y-112979017D01*
X125447988Y-113328698D01*
X125287047Y-113717244D01*
X125205000Y-114129721D01*
X119315000Y-114129721D01*
X119232953Y-113717244D01*
X119072012Y-113328698D01*
X118838363Y-112979017D01*
X118540983Y-112681637D01*
X118191302Y-112447988D01*
X117802756Y-112287047D01*
X117390279Y-112205000D01*
X116969721Y-112205000D01*
X116557244Y-112287047D01*
X116168698Y-112447988D01*
X115819017Y-112681637D01*
X115521637Y-112979017D01*
X115287988Y-113328698D01*
X115127047Y-113717244D01*
X115045000Y-114129721D01*
X109155000Y-114129721D01*
X109072953Y-113717244D01*
X108912012Y-113328698D01*
X108678363Y-112979017D01*
X108380983Y-112681637D01*
X108031302Y-112447988D01*
X107642756Y-112287047D01*
X107230279Y-112205000D01*
X106809721Y-112205000D01*
X106397244Y-112287047D01*
X106008698Y-112447988D01*
X105659017Y-112681637D01*
X105361637Y-112979017D01*
X105127988Y-113328698D01*
X104967047Y-113717244D01*
X104885000Y-114129721D01*
X100660000Y-114129721D01*
X100660000Y-107110097D01*
X101068607Y-107077939D01*
X101170898Y-107061738D01*
X101640473Y-106949003D01*
X106731808Y-106908596D01*
X106756564Y-106905959D01*
X106780330Y-106898543D01*
X106802193Y-106886633D01*
X106821312Y-106870687D01*
X106836953Y-106851317D01*
X106848515Y-106829268D01*
X106855552Y-106805387D01*
X106857799Y-106782094D01*
X106867496Y-104289721D01*
X110365000Y-104289721D01*
X110365000Y-104710279D01*
X110447047Y-105122756D01*
X110607988Y-105511302D01*
X110841637Y-105860983D01*
X111139017Y-106158363D01*
X111488698Y-106392012D01*
X111877244Y-106552953D01*
X112289721Y-106635000D01*
X112710279Y-106635000D01*
X113122756Y-106552953D01*
X113511302Y-106392012D01*
X113860983Y-106158363D01*
X114158363Y-105860983D01*
X114392012Y-105511302D01*
X114552953Y-105122756D01*
X114635000Y-104710279D01*
X114635000Y-104289721D01*
X114571348Y-103969721D01*
X115045000Y-103969721D01*
X115045000Y-104390279D01*
X115127047Y-104802756D01*
X115287988Y-105191302D01*
X115521637Y-105540983D01*
X115819017Y-105838363D01*
X116168698Y-106072012D01*
X116557244Y-106232953D01*
X116969721Y-106315000D01*
X117390279Y-106315000D01*
X117802756Y-106232953D01*
X118191302Y-106072012D01*
X118540983Y-105838363D01*
X118838363Y-105540983D01*
X119072012Y-105191302D01*
X119232953Y-104802756D01*
X119315000Y-104390279D01*
X119315000Y-103969721D01*
X125205000Y-103969721D01*
X125205000Y-104390279D01*
X125287047Y-104802756D01*
X125447988Y-105191302D01*
X125681637Y-105540983D01*
X125979017Y-105838363D01*
X126328698Y-106072012D01*
X126717244Y-106232953D01*
X127129721Y-106315000D01*
X127550279Y-106315000D01*
X127962756Y-106232953D01*
X128351302Y-106072012D01*
X128700983Y-105838363D01*
X128998363Y-105540983D01*
X129232012Y-105191302D01*
X129392953Y-104802756D01*
X129475000Y-104390279D01*
X129475000Y-103969721D01*
X135365000Y-103969721D01*
X135365000Y-104390279D01*
X135447047Y-104802756D01*
X135607988Y-105191302D01*
X135841637Y-105540983D01*
X136139017Y-105838363D01*
X136488698Y-106072012D01*
X136877244Y-106232953D01*
X137289721Y-106315000D01*
X137710279Y-106315000D01*
X138122756Y-106232953D01*
X138511302Y-106072012D01*
X138860983Y-105838363D01*
X139158363Y-105540983D01*
X139392012Y-105191302D01*
X139552953Y-104802756D01*
X139635000Y-104390279D01*
X139635000Y-103969721D01*
X139552953Y-103557244D01*
X139392012Y-103168698D01*
X139158363Y-102819017D01*
X138860983Y-102521637D01*
X138511302Y-102287988D01*
X138122756Y-102127047D01*
X137710279Y-102045000D01*
X137289721Y-102045000D01*
X136877244Y-102127047D01*
X136488698Y-102287988D01*
X136139017Y-102521637D01*
X135841637Y-102819017D01*
X135607988Y-103168698D01*
X135447047Y-103557244D01*
X135365000Y-103969721D01*
X129475000Y-103969721D01*
X129392953Y-103557244D01*
X129232012Y-103168698D01*
X128998363Y-102819017D01*
X128700983Y-102521637D01*
X128351302Y-102287988D01*
X127962756Y-102127047D01*
X127550279Y-102045000D01*
X127129721Y-102045000D01*
X126717244Y-102127047D01*
X126328698Y-102287988D01*
X125979017Y-102521637D01*
X125681637Y-102819017D01*
X125447988Y-103168698D01*
X125287047Y-103557244D01*
X125205000Y-103969721D01*
X119315000Y-103969721D01*
X119232953Y-103557244D01*
X119072012Y-103168698D01*
X118838363Y-102819017D01*
X118540983Y-102521637D01*
X118191302Y-102287988D01*
X117802756Y-102127047D01*
X117390279Y-102045000D01*
X116969721Y-102045000D01*
X116557244Y-102127047D01*
X116168698Y-102287988D01*
X115819017Y-102521637D01*
X115521637Y-102819017D01*
X115287988Y-103168698D01*
X115127047Y-103557244D01*
X115045000Y-103969721D01*
X114571348Y-103969721D01*
X114552953Y-103877244D01*
X114392012Y-103488698D01*
X114158363Y-103139017D01*
X113860983Y-102841637D01*
X113511302Y-102607988D01*
X113122756Y-102447047D01*
X112710279Y-102365000D01*
X112289721Y-102365000D01*
X111877244Y-102447047D01*
X111488698Y-102607988D01*
X111139017Y-102841637D01*
X110841637Y-103139017D01*
X110607988Y-103488698D01*
X110447047Y-103877244D01*
X110365000Y-104289721D01*
X106867496Y-104289721D01*
X106876632Y-101941918D01*
X107061738Y-101170898D01*
X107077939Y-101068607D01*
X107110097Y-100660000D01*
X143057885Y-100660000D01*
X143057885Y-102907400D01*
G37*
X143057885Y-102907400D02*
X145942581Y-102907400D01*
X145767988Y-103168698D01*
X145607047Y-103557244D01*
X145525000Y-103969721D01*
X145525000Y-104390279D01*
X145607047Y-104802756D01*
X145767988Y-105191302D01*
X146001637Y-105540983D01*
X146299017Y-105838363D01*
X146648698Y-106072012D01*
X147037244Y-106232953D01*
X147449721Y-106315000D01*
X147870279Y-106315000D01*
X148282756Y-106232953D01*
X148671302Y-106072012D01*
X149020983Y-105838363D01*
X149318363Y-105540983D01*
X149552012Y-105191302D01*
X149712953Y-104802756D01*
X149795000Y-104390279D01*
X149795000Y-103969721D01*
X149712953Y-103557244D01*
X149552012Y-103168698D01*
X149377419Y-102907400D01*
X156102581Y-102907400D01*
X155927988Y-103168698D01*
X155767047Y-103557244D01*
X155685000Y-103969721D01*
X155685000Y-104390279D01*
X155767047Y-104802756D01*
X155927988Y-105191302D01*
X156161637Y-105540983D01*
X156459017Y-105838363D01*
X156808698Y-106072012D01*
X157197244Y-106232953D01*
X157609721Y-106315000D01*
X158030279Y-106315000D01*
X158442756Y-106232953D01*
X158831302Y-106072012D01*
X159180983Y-105838363D01*
X159478363Y-105540983D01*
X159712012Y-105191302D01*
X159872953Y-104802756D01*
X159955000Y-104390279D01*
X159955000Y-103969721D01*
X159872953Y-103557244D01*
X159712012Y-103168698D01*
X159537419Y-102907400D01*
X161073254Y-102907400D01*
X160841637Y-103139017D01*
X160607988Y-103488698D01*
X160447047Y-103877244D01*
X160365000Y-104289721D01*
X160365000Y-104710279D01*
X160447047Y-105122756D01*
X160607988Y-105511302D01*
X160841637Y-105860983D01*
X161139017Y-106158363D01*
X161488698Y-106392012D01*
X161877244Y-106552953D01*
X162289721Y-106635000D01*
X162710279Y-106635000D01*
X163122756Y-106552953D01*
X163511302Y-106392012D01*
X163860983Y-106158363D01*
X164158363Y-105860983D01*
X164392012Y-105511302D01*
X164552953Y-105122756D01*
X164635000Y-104710279D01*
X164635000Y-104289721D01*
X164552953Y-103877244D01*
X164392012Y-103488698D01*
X164158363Y-103139017D01*
X163860983Y-102841637D01*
X163511302Y-102607988D01*
X163122756Y-102447047D01*
X162710279Y-102365000D01*
X162289721Y-102365000D01*
X162199314Y-102382983D01*
X162199314Y-100660000D01*
X167889903Y-100660000D01*
X167922061Y-101068607D01*
X167938262Y-101170898D01*
X168116878Y-101914888D01*
X168173409Y-106757682D01*
X168176138Y-106782429D01*
X168183643Y-106806167D01*
X168195634Y-106827985D01*
X168211652Y-106847045D01*
X168231080Y-106862613D01*
X168253172Y-106874092D01*
X168277079Y-106881040D01*
X168300400Y-106883200D01*
X173085438Y-106883200D01*
X173829102Y-107061738D01*
X173931393Y-107077939D01*
X174340000Y-107110097D01*
X174340001Y-141889903D01*
X173931393Y-141922061D01*
X173829102Y-141938262D01*
X172920240Y-142156461D01*
X168224688Y-142138401D01*
X168199903Y-142140746D01*
X168176051Y-142147881D01*
X168154049Y-142159533D01*
X168134743Y-142175253D01*
X168118876Y-142194437D01*
X168107055Y-142216348D01*
X168099736Y-142240145D01*
X168097200Y-142265400D01*
X168097200Y-147167078D01*
X167938262Y-147829102D01*
X167922061Y-147931393D01*
X167889903Y-148340000D01*
X107110097Y-148340000D01*
X107077939Y-147931393D01*
X107061738Y-147829102D01*
X106914688Y-147216597D01*
X106925988Y-144289721D01*
X110365000Y-144289721D01*
X110365000Y-144710279D01*
X110447047Y-145122756D01*
X110607988Y-145511302D01*
X110841637Y-145860983D01*
X111139017Y-146158363D01*
X111488698Y-146392012D01*
X111877244Y-146552953D01*
X112289721Y-146635000D01*
X112710279Y-146635000D01*
X113122756Y-146552953D01*
X113511302Y-146392012D01*
X113860983Y-146158363D01*
X114158363Y-145860983D01*
X114392012Y-145511302D01*
X114552953Y-145122756D01*
X114635000Y-144710279D01*
X114635000Y-144609721D01*
X115045000Y-144609721D01*
X115045000Y-145030279D01*
X115127047Y-145442756D01*
X115287988Y-145831302D01*
X115521637Y-146180983D01*
X115819017Y-146478363D01*
X116168698Y-146712012D01*
X116557244Y-146872953D01*
X116969721Y-146955000D01*
X117390279Y-146955000D01*
X117802756Y-146872953D01*
X118191302Y-146712012D01*
X118540983Y-146478363D01*
X118838363Y-146180983D01*
X119072012Y-145831302D01*
X119232953Y-145442756D01*
X119315000Y-145030279D01*
X119315000Y-144609721D01*
X125205000Y-144609721D01*
X125205000Y-145030279D01*
X125287047Y-145442756D01*
X125447988Y-145831302D01*
X125681637Y-146180983D01*
X125979017Y-146478363D01*
X126328698Y-146712012D01*
X126717244Y-146872953D01*
X127129721Y-146955000D01*
X127550279Y-146955000D01*
X127962756Y-146872953D01*
X128351302Y-146712012D01*
X128700983Y-146478363D01*
X128998363Y-146180983D01*
X129232012Y-145831302D01*
X129392953Y-145442756D01*
X129475000Y-145030279D01*
X129475000Y-144609721D01*
X135365000Y-144609721D01*
X135365000Y-145030279D01*
X135447047Y-145442756D01*
X135607988Y-145831302D01*
X135841637Y-146180983D01*
X136139017Y-146478363D01*
X136488698Y-146712012D01*
X136877244Y-146872953D01*
X137289721Y-146955000D01*
X137710279Y-146955000D01*
X138122756Y-146872953D01*
X138511302Y-146712012D01*
X138860983Y-146478363D01*
X139158363Y-146180983D01*
X139392012Y-145831302D01*
X139552953Y-145442756D01*
X139635000Y-145030279D01*
X139635000Y-144609721D01*
X145525000Y-144609721D01*
X145525000Y-145030279D01*
X145607047Y-145442756D01*
X145767988Y-145831302D01*
X146001637Y-146180983D01*
X146299017Y-146478363D01*
X146648698Y-146712012D01*
X147037244Y-146872953D01*
X147449721Y-146955000D01*
X147870279Y-146955000D01*
X148282756Y-146872953D01*
X148671302Y-146712012D01*
X149020983Y-146478363D01*
X149318363Y-146180983D01*
X149552012Y-145831302D01*
X149712953Y-145442756D01*
X149795000Y-145030279D01*
X149795000Y-144609721D01*
X155685000Y-144609721D01*
X155685000Y-145030279D01*
X155767047Y-145442756D01*
X155927988Y-145831302D01*
X156161637Y-146180983D01*
X156459017Y-146478363D01*
X156808698Y-146712012D01*
X157197244Y-146872953D01*
X157609721Y-146955000D01*
X158030279Y-146955000D01*
X158442756Y-146872953D01*
X158831302Y-146712012D01*
X159180983Y-146478363D01*
X159478363Y-146180983D01*
X159712012Y-145831302D01*
X159872953Y-145442756D01*
X159955000Y-145030279D01*
X159955000Y-144609721D01*
X159891348Y-144289721D01*
X160365000Y-144289721D01*
X160365000Y-144710279D01*
X160447047Y-145122756D01*
X160607988Y-145511302D01*
X160841637Y-145860983D01*
X161139017Y-146158363D01*
X161488698Y-146392012D01*
X161877244Y-146552953D01*
X162289721Y-146635000D01*
X162710279Y-146635000D01*
X163122756Y-146552953D01*
X163511302Y-146392012D01*
X163860983Y-146158363D01*
X164158363Y-145860983D01*
X164392012Y-145511302D01*
X164552953Y-145122756D01*
X164635000Y-144710279D01*
X164635000Y-144289721D01*
X164552953Y-143877244D01*
X164392012Y-143488698D01*
X164158363Y-143139017D01*
X163860983Y-142841637D01*
X163511302Y-142607988D01*
X163122756Y-142447047D01*
X162710279Y-142365000D01*
X162289721Y-142365000D01*
X161877244Y-142447047D01*
X161488698Y-142607988D01*
X161139017Y-142841637D01*
X160841637Y-143139017D01*
X160607988Y-143488698D01*
X160447047Y-143877244D01*
X160365000Y-144289721D01*
X159891348Y-144289721D01*
X159872953Y-144197244D01*
X159712012Y-143808698D01*
X159478363Y-143459017D01*
X159180983Y-143161637D01*
X158831302Y-142927988D01*
X158442756Y-142767047D01*
X158030279Y-142685000D01*
X157609721Y-142685000D01*
X157197244Y-142767047D01*
X156808698Y-142927988D01*
X156459017Y-143161637D01*
X156161637Y-143459017D01*
X155927988Y-143808698D01*
X155767047Y-144197244D01*
X155685000Y-144609721D01*
X149795000Y-144609721D01*
X149712953Y-144197244D01*
X149552012Y-143808698D01*
X149318363Y-143459017D01*
X149020983Y-143161637D01*
X148671302Y-142927988D01*
X148282756Y-142767047D01*
X147870279Y-142685000D01*
X147449721Y-142685000D01*
X147037244Y-142767047D01*
X146648698Y-142927988D01*
X146299017Y-143161637D01*
X146001637Y-143459017D01*
X145767988Y-143808698D01*
X145607047Y-144197244D01*
X145525000Y-144609721D01*
X139635000Y-144609721D01*
X139552953Y-144197244D01*
X139392012Y-143808698D01*
X139158363Y-143459017D01*
X138860983Y-143161637D01*
X138511302Y-142927988D01*
X138122756Y-142767047D01*
X137710279Y-142685000D01*
X137289721Y-142685000D01*
X136877244Y-142767047D01*
X136488698Y-142927988D01*
X136139017Y-143161637D01*
X135841637Y-143459017D01*
X135607988Y-143808698D01*
X135447047Y-144197244D01*
X135365000Y-144609721D01*
X129475000Y-144609721D01*
X129392953Y-144197244D01*
X129232012Y-143808698D01*
X128998363Y-143459017D01*
X128700983Y-143161637D01*
X128351302Y-142927988D01*
X127962756Y-142767047D01*
X127550279Y-142685000D01*
X127129721Y-142685000D01*
X126717244Y-142767047D01*
X126328698Y-142927988D01*
X125979017Y-143161637D01*
X125681637Y-143459017D01*
X125447988Y-143808698D01*
X125287047Y-144197244D01*
X125205000Y-144609721D01*
X119315000Y-144609721D01*
X119232953Y-144197244D01*
X119072012Y-143808698D01*
X118838363Y-143459017D01*
X118540983Y-143161637D01*
X118191302Y-142927988D01*
X117802756Y-142767047D01*
X117390279Y-142685000D01*
X116969721Y-142685000D01*
X116557244Y-142767047D01*
X116168698Y-142927988D01*
X115819017Y-143161637D01*
X115521637Y-143459017D01*
X115287988Y-143808698D01*
X115127047Y-144197244D01*
X115045000Y-144609721D01*
X114635000Y-144609721D01*
X114635000Y-144289721D01*
X114552953Y-143877244D01*
X114392012Y-143488698D01*
X114158363Y-143139017D01*
X113860983Y-142841637D01*
X113511302Y-142607988D01*
X113122756Y-142447047D01*
X112710279Y-142365000D01*
X112289721Y-142365000D01*
X111877244Y-142447047D01*
X111488698Y-142607988D01*
X111139017Y-142841637D01*
X110841637Y-143139017D01*
X110607988Y-143488698D01*
X110447047Y-143877244D01*
X110365000Y-144289721D01*
X106925988Y-144289721D01*
X106933999Y-142215090D01*
X106931654Y-142190305D01*
X106924519Y-142166453D01*
X106912868Y-142144451D01*
X106897149Y-142125145D01*
X106877965Y-142109277D01*
X106856053Y-142097456D01*
X106832257Y-142090137D01*
X106807000Y-142087600D01*
X101792935Y-142087600D01*
X101170898Y-141938262D01*
X101068607Y-141922061D01*
X100660000Y-141889903D01*
X100660000Y-134449721D01*
X104885000Y-134449721D01*
X104885000Y-134870279D01*
X104967047Y-135282756D01*
X105127988Y-135671302D01*
X105361637Y-136020983D01*
X105659017Y-136318363D01*
X106008698Y-136552012D01*
X106397244Y-136712953D01*
X106809721Y-136795000D01*
X107230279Y-136795000D01*
X107642756Y-136712953D01*
X108031302Y-136552012D01*
X108380983Y-136318363D01*
X108678363Y-136020983D01*
X108912012Y-135671302D01*
X109072953Y-135282756D01*
X109155000Y-134870279D01*
X109155000Y-134449721D01*
X115045000Y-134449721D01*
X115045000Y-134870279D01*
X115127047Y-135282756D01*
X115287988Y-135671302D01*
X115521637Y-136020983D01*
X115819017Y-136318363D01*
X116168698Y-136552012D01*
X116557244Y-136712953D01*
X116969721Y-136795000D01*
X117390279Y-136795000D01*
X117802756Y-136712953D01*
X118191302Y-136552012D01*
X118540983Y-136318363D01*
X118838363Y-136020983D01*
X119072012Y-135671302D01*
X119232953Y-135282756D01*
X119315000Y-134870279D01*
X119315000Y-134449721D01*
X125205000Y-134449721D01*
X125205000Y-134870279D01*
X125287047Y-135282756D01*
X125447988Y-135671302D01*
X125681637Y-136020983D01*
X125979017Y-136318363D01*
X126328698Y-136552012D01*
X126717244Y-136712953D01*
X127129721Y-136795000D01*
X127550279Y-136795000D01*
X127962756Y-136712953D01*
X128351302Y-136552012D01*
X128700983Y-136318363D01*
X128998363Y-136020983D01*
X129232012Y-135671302D01*
X129392953Y-135282756D01*
X129475000Y-134870279D01*
X129475000Y-134449721D01*
X135365000Y-134449721D01*
X135365000Y-134870279D01*
X135447047Y-135282756D01*
X135607988Y-135671302D01*
X135841637Y-136020983D01*
X136139017Y-136318363D01*
X136488698Y-136552012D01*
X136877244Y-136712953D01*
X137289721Y-136795000D01*
X137710279Y-136795000D01*
X138122756Y-136712953D01*
X138511302Y-136552012D01*
X138860983Y-136318363D01*
X139158363Y-136020983D01*
X139392012Y-135671302D01*
X139552953Y-135282756D01*
X139635000Y-134870279D01*
X139635000Y-134449721D01*
X145525000Y-134449721D01*
X145525000Y-134870279D01*
X145607047Y-135282756D01*
X145767988Y-135671302D01*
X146001637Y-136020983D01*
X146299017Y-136318363D01*
X146648698Y-136552012D01*
X147037244Y-136712953D01*
X147449721Y-136795000D01*
X147870279Y-136795000D01*
X148282756Y-136712953D01*
X148671302Y-136552012D01*
X149020983Y-136318363D01*
X149318363Y-136020983D01*
X149552012Y-135671302D01*
X149712953Y-135282756D01*
X149795000Y-134870279D01*
X149795000Y-134449721D01*
X155685000Y-134449721D01*
X155685000Y-134870279D01*
X155767047Y-135282756D01*
X155927988Y-135671302D01*
X156161637Y-136020983D01*
X156459017Y-136318363D01*
X156808698Y-136552012D01*
X157197244Y-136712953D01*
X157609721Y-136795000D01*
X158030279Y-136795000D01*
X158442756Y-136712953D01*
X158831302Y-136552012D01*
X159180983Y-136318363D01*
X159478363Y-136020983D01*
X159712012Y-135671302D01*
X159872953Y-135282756D01*
X159955000Y-134870279D01*
X159955000Y-134449721D01*
X165845000Y-134449721D01*
X165845000Y-134870279D01*
X165927047Y-135282756D01*
X166087988Y-135671302D01*
X166321637Y-136020983D01*
X166619017Y-136318363D01*
X166968698Y-136552012D01*
X167357244Y-136712953D01*
X167769721Y-136795000D01*
X168190279Y-136795000D01*
X168602756Y-136712953D01*
X168991302Y-136552012D01*
X169340983Y-136318363D01*
X169638363Y-136020983D01*
X169872012Y-135671302D01*
X170032953Y-135282756D01*
X170115000Y-134870279D01*
X170115000Y-134449721D01*
X170032953Y-134037244D01*
X169872012Y-133648698D01*
X169638363Y-133299017D01*
X169340983Y-133001637D01*
X168991302Y-132767988D01*
X168602756Y-132607047D01*
X168190279Y-132525000D01*
X167769721Y-132525000D01*
X167357244Y-132607047D01*
X166968698Y-132767988D01*
X166619017Y-133001637D01*
X166321637Y-133299017D01*
X166087988Y-133648698D01*
X165927047Y-134037244D01*
X165845000Y-134449721D01*
X159955000Y-134449721D01*
X159872953Y-134037244D01*
X159712012Y-133648698D01*
X159478363Y-133299017D01*
X159180983Y-133001637D01*
X158831302Y-132767988D01*
X158442756Y-132607047D01*
X158030279Y-132525000D01*
X157609721Y-132525000D01*
X157197244Y-132607047D01*
X156808698Y-132767988D01*
X156459017Y-133001637D01*
X156161637Y-133299017D01*
X155927988Y-133648698D01*
X155767047Y-134037244D01*
X155685000Y-134449721D01*
X149795000Y-134449721D01*
X149712953Y-134037244D01*
X149552012Y-133648698D01*
X149318363Y-133299017D01*
X149020983Y-133001637D01*
X148671302Y-132767988D01*
X148282756Y-132607047D01*
X147870279Y-132525000D01*
X147449721Y-132525000D01*
X147037244Y-132607047D01*
X146648698Y-132767988D01*
X146299017Y-133001637D01*
X146001637Y-133299017D01*
X145767988Y-133648698D01*
X145607047Y-134037244D01*
X145525000Y-134449721D01*
X139635000Y-134449721D01*
X139552953Y-134037244D01*
X139392012Y-133648698D01*
X139158363Y-133299017D01*
X138860983Y-133001637D01*
X138511302Y-132767988D01*
X138122756Y-132607047D01*
X137710279Y-132525000D01*
X137289721Y-132525000D01*
X136877244Y-132607047D01*
X136488698Y-132767988D01*
X136139017Y-133001637D01*
X135841637Y-133299017D01*
X135607988Y-133648698D01*
X135447047Y-134037244D01*
X135365000Y-134449721D01*
X129475000Y-134449721D01*
X129392953Y-134037244D01*
X129232012Y-133648698D01*
X128998363Y-133299017D01*
X128700983Y-133001637D01*
X128351302Y-132767988D01*
X127962756Y-132607047D01*
X127550279Y-132525000D01*
X127129721Y-132525000D01*
X126717244Y-132607047D01*
X126328698Y-132767988D01*
X125979017Y-133001637D01*
X125681637Y-133299017D01*
X125447988Y-133648698D01*
X125287047Y-134037244D01*
X125205000Y-134449721D01*
X119315000Y-134449721D01*
X119232953Y-134037244D01*
X119072012Y-133648698D01*
X118838363Y-133299017D01*
X118540983Y-133001637D01*
X118191302Y-132767988D01*
X117802756Y-132607047D01*
X117390279Y-132525000D01*
X116969721Y-132525000D01*
X116557244Y-132607047D01*
X116168698Y-132767988D01*
X115819017Y-133001637D01*
X115521637Y-133299017D01*
X115287988Y-133648698D01*
X115127047Y-134037244D01*
X115045000Y-134449721D01*
X109155000Y-134449721D01*
X109072953Y-134037244D01*
X108912012Y-133648698D01*
X108678363Y-133299017D01*
X108380983Y-133001637D01*
X108031302Y-132767988D01*
X107642756Y-132607047D01*
X107230279Y-132525000D01*
X106809721Y-132525000D01*
X106397244Y-132607047D01*
X106008698Y-132767988D01*
X105659017Y-133001637D01*
X105361637Y-133299017D01*
X105127988Y-133648698D01*
X104967047Y-134037244D01*
X104885000Y-134449721D01*
X100660000Y-134449721D01*
X100660000Y-130893377D01*
X110966229Y-130893377D01*
X111092104Y-131183315D01*
X111424262Y-131349139D01*
X111782387Y-131446975D01*
X112152719Y-131473065D01*
X112521025Y-131426405D01*
X112873151Y-131308789D01*
X113107896Y-131183315D01*
X113233771Y-130893377D01*
X161766229Y-130893377D01*
X161892104Y-131183315D01*
X162224262Y-131349139D01*
X162582387Y-131446975D01*
X162952719Y-131473065D01*
X163321025Y-131426405D01*
X163673151Y-131308789D01*
X163907896Y-131183315D01*
X164033771Y-130893377D01*
X162900000Y-129759605D01*
X161766229Y-130893377D01*
X113233771Y-130893377D01*
X112100000Y-129759605D01*
X110966229Y-130893377D01*
X100660000Y-130893377D01*
X100660000Y-129632719D01*
X110206935Y-129632719D01*
X110253595Y-130001025D01*
X110371211Y-130353151D01*
X110496685Y-130587896D01*
X110786623Y-130713771D01*
X111920395Y-129580000D01*
X112279605Y-129580000D01*
X113413377Y-130713771D01*
X113703315Y-130587896D01*
X113869139Y-130255738D01*
X113966975Y-129897613D01*
X113985636Y-129632719D01*
X161006935Y-129632719D01*
X161053595Y-130001025D01*
X161171211Y-130353151D01*
X161296685Y-130587896D01*
X161586623Y-130713771D01*
X162720395Y-129580000D01*
X163079605Y-129580000D01*
X164213377Y-130713771D01*
X164503315Y-130587896D01*
X164669139Y-130255738D01*
X164766975Y-129897613D01*
X164793065Y-129527281D01*
X164746405Y-129158975D01*
X164628789Y-128806849D01*
X164503315Y-128572104D01*
X164213377Y-128446229D01*
X163079605Y-129580000D01*
X162720395Y-129580000D01*
X161586623Y-128446229D01*
X161296685Y-128572104D01*
X161130861Y-128904262D01*
X161033025Y-129262387D01*
X161006935Y-129632719D01*
X113985636Y-129632719D01*
X113993065Y-129527281D01*
X113946405Y-129158975D01*
X113828789Y-128806849D01*
X113703315Y-128572104D01*
X113413377Y-128446229D01*
X112279605Y-129580000D01*
X111920395Y-129580000D01*
X110786623Y-128446229D01*
X110496685Y-128572104D01*
X110330861Y-128904262D01*
X110233025Y-129262387D01*
X110206935Y-129632719D01*
X100660000Y-129632719D01*
X100660000Y-128266623D01*
X110966229Y-128266623D01*
X112100000Y-129400395D01*
X113233771Y-128266623D01*
X161766229Y-128266623D01*
X162900000Y-129400395D01*
X164033771Y-128266623D01*
X163907896Y-127976685D01*
X163575738Y-127810861D01*
X163217613Y-127713025D01*
X162847281Y-127686935D01*
X162478975Y-127733595D01*
X162126849Y-127851211D01*
X161892104Y-127976685D01*
X161766229Y-128266623D01*
X113233771Y-128266623D01*
X113107896Y-127976685D01*
X112775738Y-127810861D01*
X112417613Y-127713025D01*
X112047281Y-127686935D01*
X111678975Y-127733595D01*
X111326849Y-127851211D01*
X111092104Y-127976685D01*
X110966229Y-128266623D01*
X100660000Y-128266623D01*
X100660000Y-124289721D01*
X103365000Y-124289721D01*
X103365000Y-124710279D01*
X103447047Y-125122756D01*
X103607988Y-125511302D01*
X103841637Y-125860983D01*
X104139017Y-126158363D01*
X104488698Y-126392012D01*
X104877244Y-126552953D01*
X105289721Y-126635000D01*
X105710279Y-126635000D01*
X106122756Y-126552953D01*
X106511302Y-126392012D01*
X106860983Y-126158363D01*
X107158363Y-125860983D01*
X107392012Y-125511302D01*
X107552953Y-125122756D01*
X107635000Y-124710279D01*
X107635000Y-124289721D01*
X115045000Y-124289721D01*
X115045000Y-124710279D01*
X115127047Y-125122756D01*
X115287988Y-125511302D01*
X115521637Y-125860983D01*
X115819017Y-126158363D01*
X116168698Y-126392012D01*
X116557244Y-126552953D01*
X116969721Y-126635000D01*
X117390279Y-126635000D01*
X117802756Y-126552953D01*
X118191302Y-126392012D01*
X118540983Y-126158363D01*
X118838363Y-125860983D01*
X119072012Y-125511302D01*
X119232953Y-125122756D01*
X119315000Y-124710279D01*
X119315000Y-124289721D01*
X125205000Y-124289721D01*
X125205000Y-124710279D01*
X125287047Y-125122756D01*
X125447988Y-125511302D01*
X125681637Y-125860983D01*
X125979017Y-126158363D01*
X126328698Y-126392012D01*
X126717244Y-126552953D01*
X127129721Y-126635000D01*
X127550279Y-126635000D01*
X127962756Y-126552953D01*
X128351302Y-126392012D01*
X128700983Y-126158363D01*
X128998363Y-125860983D01*
X129232012Y-125511302D01*
X129392953Y-125122756D01*
X129475000Y-124710279D01*
X129475000Y-124289721D01*
X135365000Y-124289721D01*
X135365000Y-124710279D01*
X135447047Y-125122756D01*
X135607988Y-125511302D01*
X135841637Y-125860983D01*
X136139017Y-126158363D01*
X136488698Y-126392012D01*
X136877244Y-126552953D01*
X137289721Y-126635000D01*
X137710279Y-126635000D01*
X138122756Y-126552953D01*
X138511302Y-126392012D01*
X138860983Y-126158363D01*
X139158363Y-125860983D01*
X139392012Y-125511302D01*
X139552953Y-125122756D01*
X139635000Y-124710279D01*
X139635000Y-124289721D01*
X145525000Y-124289721D01*
X145525000Y-124710279D01*
X145607047Y-125122756D01*
X145767988Y-125511302D01*
X146001637Y-125860983D01*
X146299017Y-126158363D01*
X146648698Y-126392012D01*
X147037244Y-126552953D01*
X147449721Y-126635000D01*
X147870279Y-126635000D01*
X148282756Y-126552953D01*
X148671302Y-126392012D01*
X149020983Y-126158363D01*
X149318363Y-125860983D01*
X149552012Y-125511302D01*
X149712953Y-125122756D01*
X149795000Y-124710279D01*
X149795000Y-124289721D01*
X155685000Y-124289721D01*
X155685000Y-124710279D01*
X155767047Y-125122756D01*
X155927988Y-125511302D01*
X156161637Y-125860983D01*
X156459017Y-126158363D01*
X156808698Y-126392012D01*
X157197244Y-126552953D01*
X157609721Y-126635000D01*
X158030279Y-126635000D01*
X158442756Y-126552953D01*
X158831302Y-126392012D01*
X159180983Y-126158363D01*
X159478363Y-125860983D01*
X159712012Y-125511302D01*
X159872953Y-125122756D01*
X159955000Y-124710279D01*
X159955000Y-124289721D01*
X167365000Y-124289721D01*
X167365000Y-124710279D01*
X167447047Y-125122756D01*
X167607988Y-125511302D01*
X167841637Y-125860983D01*
X168139017Y-126158363D01*
X168488698Y-126392012D01*
X168877244Y-126552953D01*
X169289721Y-126635000D01*
X169710279Y-126635000D01*
X170122756Y-126552953D01*
X170511302Y-126392012D01*
X170860983Y-126158363D01*
X171158363Y-125860983D01*
X171392012Y-125511302D01*
X171552953Y-125122756D01*
X171635000Y-124710279D01*
X171635000Y-124289721D01*
X171552953Y-123877244D01*
X171392012Y-123488698D01*
X171158363Y-123139017D01*
X170860983Y-122841637D01*
X170511302Y-122607988D01*
X170122756Y-122447047D01*
X169710279Y-122365000D01*
X169289721Y-122365000D01*
X168877244Y-122447047D01*
X168488698Y-122607988D01*
X168139017Y-122841637D01*
X167841637Y-123139017D01*
X167607988Y-123488698D01*
X167447047Y-123877244D01*
X167365000Y-124289721D01*
X159955000Y-124289721D01*
X159872953Y-123877244D01*
X159712012Y-123488698D01*
X159478363Y-123139017D01*
X159180983Y-122841637D01*
X158831302Y-122607988D01*
X158442756Y-122447047D01*
X158030279Y-122365000D01*
X157609721Y-122365000D01*
X157197244Y-122447047D01*
X156808698Y-122607988D01*
X156459017Y-122841637D01*
X156161637Y-123139017D01*
X155927988Y-123488698D01*
X155767047Y-123877244D01*
X155685000Y-124289721D01*
X149795000Y-124289721D01*
X149712953Y-123877244D01*
X149552012Y-123488698D01*
X149318363Y-123139017D01*
X149020983Y-122841637D01*
X148671302Y-122607988D01*
X148282756Y-122447047D01*
X147870279Y-122365000D01*
X147449721Y-122365000D01*
X147037244Y-122447047D01*
X146648698Y-122607988D01*
X146299017Y-122841637D01*
X146001637Y-123139017D01*
X145767988Y-123488698D01*
X145607047Y-123877244D01*
X145525000Y-124289721D01*
X139635000Y-124289721D01*
X139552953Y-123877244D01*
X139392012Y-123488698D01*
X139158363Y-123139017D01*
X138860983Y-122841637D01*
X138511302Y-122607988D01*
X138122756Y-122447047D01*
X137710279Y-122365000D01*
X137289721Y-122365000D01*
X136877244Y-122447047D01*
X136488698Y-122607988D01*
X136139017Y-122841637D01*
X135841637Y-123139017D01*
X135607988Y-123488698D01*
X135447047Y-123877244D01*
X135365000Y-124289721D01*
X129475000Y-124289721D01*
X129392953Y-123877244D01*
X129232012Y-123488698D01*
X128998363Y-123139017D01*
X128700983Y-122841637D01*
X128351302Y-122607988D01*
X127962756Y-122447047D01*
X127550279Y-122365000D01*
X127129721Y-122365000D01*
X126717244Y-122447047D01*
X126328698Y-122607988D01*
X125979017Y-122841637D01*
X125681637Y-123139017D01*
X125447988Y-123488698D01*
X125287047Y-123877244D01*
X125205000Y-124289721D01*
X119315000Y-124289721D01*
X119232953Y-123877244D01*
X119072012Y-123488698D01*
X118838363Y-123139017D01*
X118540983Y-122841637D01*
X118191302Y-122607988D01*
X117802756Y-122447047D01*
X117390279Y-122365000D01*
X116969721Y-122365000D01*
X116557244Y-122447047D01*
X116168698Y-122607988D01*
X115819017Y-122841637D01*
X115521637Y-123139017D01*
X115287988Y-123488698D01*
X115127047Y-123877244D01*
X115045000Y-124289721D01*
X107635000Y-124289721D01*
X107552953Y-123877244D01*
X107392012Y-123488698D01*
X107158363Y-123139017D01*
X106860983Y-122841637D01*
X106511302Y-122607988D01*
X106122756Y-122447047D01*
X105710279Y-122365000D01*
X105289721Y-122365000D01*
X104877244Y-122447047D01*
X104488698Y-122607988D01*
X104139017Y-122841637D01*
X103841637Y-123139017D01*
X103607988Y-123488698D01*
X103447047Y-123877244D01*
X103365000Y-124289721D01*
X100660000Y-124289721D01*
X100660000Y-120733377D01*
X110966229Y-120733377D01*
X111092104Y-121023315D01*
X111424262Y-121189139D01*
X111782387Y-121286975D01*
X112152719Y-121313065D01*
X112521025Y-121266405D01*
X112873151Y-121148789D01*
X113107896Y-121023315D01*
X113233771Y-120733377D01*
X112100000Y-119599605D01*
X110966229Y-120733377D01*
X100660000Y-120733377D01*
X100660000Y-119472719D01*
X110206935Y-119472719D01*
X110253595Y-119841025D01*
X110371211Y-120193151D01*
X110496685Y-120427896D01*
X110786623Y-120553771D01*
X111920395Y-119420000D01*
X112279605Y-119420000D01*
X113413377Y-120553771D01*
X113703315Y-120427896D01*
X113869139Y-120095738D01*
X113966975Y-119737613D01*
X113988745Y-119428596D01*
X148661170Y-119428596D01*
X148661193Y-119437532D01*
X148662252Y-119549144D01*
X148662307Y-119549651D01*
X148662262Y-119550163D01*
X148662424Y-119559098D01*
X148665019Y-119662697D01*
X148665308Y-119665036D01*
X148665153Y-119667398D01*
X148665505Y-119676327D01*
X148669641Y-119765489D01*
X148670688Y-119772705D01*
X148670479Y-119779993D01*
X148671158Y-119788904D01*
X148676841Y-119857200D01*
X148681311Y-119881659D01*
X148682873Y-119906475D01*
X148684364Y-119915286D01*
X148691596Y-119956292D01*
X148699793Y-119985647D01*
X148705008Y-120015669D01*
X148716548Y-120045649D01*
X148725190Y-120076596D01*
X148738931Y-120103796D01*
X148742507Y-120113085D01*
X148747007Y-120125743D01*
X148748060Y-120127511D01*
X148749879Y-120132237D01*
X148753944Y-120140195D01*
X148758304Y-120148587D01*
X148772857Y-120170950D01*
X148781512Y-120188083D01*
X148792507Y-120202155D01*
X148810912Y-120233064D01*
X148819463Y-120242570D01*
X148826431Y-120253278D01*
X148856829Y-120284478D01*
X148858415Y-120286508D01*
X148860877Y-120288633D01*
X148861142Y-120288905D01*
X148894445Y-120325928D01*
X148904682Y-120333594D01*
X148913596Y-120342743D01*
X148954592Y-120370968D01*
X148994426Y-120400797D01*
X149005942Y-120406322D01*
X149016476Y-120413574D01*
X149062178Y-120433300D01*
X149068587Y-120436374D01*
X149070022Y-120437257D01*
X149071820Y-120437925D01*
X149107043Y-120454823D01*
X149115460Y-120457824D01*
X149139733Y-120466290D01*
X149163842Y-120472135D01*
X149187099Y-120480781D01*
X149195755Y-120483002D01*
X149251027Y-120496775D01*
X149254945Y-120497353D01*
X149258689Y-120498634D01*
X149267400Y-120500627D01*
X149348164Y-120518512D01*
X149348275Y-120518525D01*
X149348387Y-120518562D01*
X149357126Y-120520429D01*
X149457876Y-120541231D01*
X149457991Y-120541243D01*
X149464505Y-120542564D01*
X149579734Y-120565089D01*
X149579895Y-120565104D01*
X149584248Y-120565954D01*
X149647028Y-120577759D01*
X149647072Y-120577763D01*
X149647696Y-120577884D01*
X149732260Y-120593692D01*
X149720817Y-120610557D01*
X149683949Y-120664241D01*
X149683900Y-120664329D01*
X149682899Y-120665775D01*
X149613853Y-120766944D01*
X149613792Y-120767056D01*
X149610207Y-120772346D01*
X149548881Y-120864197D01*
X149548851Y-120864253D01*
X149544506Y-120870840D01*
X149493892Y-120948726D01*
X149493096Y-120950261D01*
X149492022Y-120951620D01*
X149487247Y-120959173D01*
X149450339Y-121018447D01*
X149445842Y-121027542D01*
X149439923Y-121035780D01*
X149435496Y-121043542D01*
X149415285Y-121079560D01*
X149395944Y-121123624D01*
X149394257Y-121127039D01*
X149381679Y-121150044D01*
X149379533Y-121156862D01*
X149374641Y-121166771D01*
X149371544Y-121175154D01*
X149368625Y-121183227D01*
X149367030Y-121189497D01*
X149365082Y-121193934D01*
X149359549Y-121218895D01*
X149357602Y-121226547D01*
X149344182Y-121269189D01*
X149342229Y-121286962D01*
X149337824Y-121304276D01*
X149335426Y-121348893D01*
X149330542Y-121393349D01*
X149332079Y-121411163D01*
X149331120Y-121429002D01*
X149337435Y-121473244D01*
X149341278Y-121517793D01*
X149346244Y-121534961D01*
X149348769Y-121552655D01*
X149363563Y-121594844D01*
X149375982Y-121637781D01*
X149384188Y-121653659D01*
X149390102Y-121670524D01*
X149412799Y-121709020D01*
X149420720Y-121724346D01*
X149422446Y-121728365D01*
X149423870Y-121730441D01*
X149433329Y-121748744D01*
X149438240Y-121756210D01*
X149450788Y-121775003D01*
X149473139Y-121802280D01*
X149493091Y-121831373D01*
X149498888Y-121838174D01*
X149533578Y-121878301D01*
X149537507Y-121882037D01*
X149540709Y-121886410D01*
X149546713Y-121893028D01*
X149599113Y-121949992D01*
X149599320Y-121950177D01*
X149599489Y-121950401D01*
X149605590Y-121956930D01*
X149671269Y-122026238D01*
X149671374Y-122026329D01*
X149675502Y-122030662D01*
X149750030Y-122107816D01*
X149750149Y-122107917D01*
X149753382Y-122111260D01*
X149832325Y-122191766D01*
X149832443Y-122191865D01*
X149835505Y-122194987D01*
X149914435Y-122274349D01*
X149914559Y-122274451D01*
X149917995Y-122277900D01*
X149992478Y-122351623D01*
X149992573Y-122351701D01*
X149997275Y-122356321D01*
X150062881Y-122419909D01*
X150063731Y-122420585D01*
X150064442Y-122421418D01*
X150070923Y-122427570D01*
X150123221Y-122476528D01*
X150129922Y-122481672D01*
X150135658Y-122487867D01*
X150142381Y-122493754D01*
X150176938Y-122523587D01*
X150215160Y-122550554D01*
X150252007Y-122579367D01*
X150259583Y-122584105D01*
X150271144Y-122591224D01*
X150276540Y-122593859D01*
X150279000Y-122595594D01*
X150286468Y-122598919D01*
X150298448Y-122607121D01*
X150341414Y-122625532D01*
X150383387Y-122646025D01*
X150398687Y-122650074D01*
X150413258Y-122656318D01*
X150458997Y-122666036D01*
X150504136Y-122677982D01*
X150519937Y-122678983D01*
X150535437Y-122682276D01*
X150582162Y-122682924D01*
X150628792Y-122685878D01*
X150644495Y-122683789D01*
X150660331Y-122684009D01*
X150706280Y-122675571D01*
X150752608Y-122669409D01*
X150767609Y-122664309D01*
X150783184Y-122661449D01*
X150826619Y-122644248D01*
X150870867Y-122629205D01*
X150884588Y-122621291D01*
X150899314Y-122615459D01*
X150907233Y-122611318D01*
X150926057Y-122601308D01*
X150940917Y-122591433D01*
X150957009Y-122583726D01*
X150964621Y-122579044D01*
X151009644Y-122550919D01*
X151010480Y-122550275D01*
X151011422Y-122549804D01*
X151018952Y-122544992D01*
X151085795Y-122501616D01*
X151085904Y-122501529D01*
X151090543Y-122498506D01*
X151174831Y-122442742D01*
X151174954Y-122442642D01*
X151178162Y-122440523D01*
X151275517Y-122375235D01*
X151275623Y-122375148D01*
X151277961Y-122373588D01*
X151351398Y-122323848D01*
X151351457Y-122323799D01*
X151352369Y-122323188D01*
X151421263Y-122276341D01*
X151436998Y-122359808D01*
X151437003Y-122359834D01*
X151520824Y-122804458D01*
X151521019Y-122805126D01*
X151521082Y-122805817D01*
X151538552Y-122865174D01*
X151555832Y-122924358D01*
X151556151Y-122924971D01*
X151556348Y-122925641D01*
X151585037Y-122980517D01*
X151613461Y-123035175D01*
X151613895Y-123035717D01*
X151614217Y-123036333D01*
X151652849Y-123084382D01*
X151691516Y-123132689D01*
X151692049Y-123133138D01*
X151692483Y-123133678D01*
X151739819Y-123173397D01*
X151787027Y-123213183D01*
X151787633Y-123213518D01*
X151788167Y-123213966D01*
X151842595Y-123243888D01*
X151896353Y-123273593D01*
X151897010Y-123273803D01*
X151897623Y-123274140D01*
X151956670Y-123292870D01*
X152015330Y-123311618D01*
X152016021Y-123311697D01*
X152016683Y-123311907D01*
X152078085Y-123318795D01*
X152139427Y-123325810D01*
X152140119Y-123325753D01*
X152140810Y-123325831D01*
X152149746Y-123325893D01*
X153075194Y-123325893D01*
X153075884Y-123325825D01*
X153076579Y-123325892D01*
X153138254Y-123319710D01*
X153199504Y-123313704D01*
X153200168Y-123313504D01*
X153200862Y-123313434D01*
X153260010Y-123295436D01*
X153319079Y-123277602D01*
X153319694Y-123277275D01*
X153320358Y-123277073D01*
X153374818Y-123247966D01*
X153429365Y-123218963D01*
X153429903Y-123218524D01*
X153430517Y-123218196D01*
X153478478Y-123178907D01*
X153526160Y-123140018D01*
X153526600Y-123139486D01*
X153527142Y-123139042D01*
X153566607Y-123091126D01*
X153605778Y-123043776D01*
X153606108Y-123043166D01*
X153606551Y-123042628D01*
X153635778Y-122988292D01*
X153665186Y-122933903D01*
X153665393Y-122933235D01*
X153665721Y-122932625D01*
X153683821Y-122873702D01*
X153702122Y-122814583D01*
X153702195Y-122813891D01*
X153702399Y-122813226D01*
X153704116Y-122804457D01*
X153787936Y-122359832D01*
X153803676Y-122276341D01*
X153872569Y-122323188D01*
X153872652Y-122323233D01*
X153873998Y-122324157D01*
X153977908Y-122394406D01*
X153978040Y-122394477D01*
X153980941Y-122396444D01*
X154074871Y-122459168D01*
X154075009Y-122459242D01*
X154078586Y-122461630D01*
X154158151Y-122513964D01*
X154158252Y-122514017D01*
X154163869Y-122517682D01*
X154224687Y-122556763D01*
X154227526Y-122558217D01*
X154230050Y-122560172D01*
X154237649Y-122564875D01*
X154275336Y-122587839D01*
X154299530Y-122599512D01*
X154322280Y-122613811D01*
X154330301Y-122617749D01*
X154340566Y-122622700D01*
X154358996Y-122629463D01*
X154376353Y-122638631D01*
X154387557Y-122641980D01*
X154387834Y-122642114D01*
X154389126Y-122642450D01*
X154417509Y-122650934D01*
X154457826Y-122665729D01*
X154477211Y-122668782D01*
X154496026Y-122674407D01*
X154538801Y-122678483D01*
X154581211Y-122685163D01*
X154600820Y-122684393D01*
X154620369Y-122686256D01*
X154663105Y-122681948D01*
X154706021Y-122680263D01*
X154725116Y-122675697D01*
X154744645Y-122673728D01*
X154785718Y-122661204D01*
X154827502Y-122651212D01*
X154845353Y-122643021D01*
X154864121Y-122637298D01*
X154901981Y-122617035D01*
X154941027Y-122599118D01*
X154956936Y-122587623D01*
X154974246Y-122578359D01*
X154981641Y-122573341D01*
X155000130Y-122560607D01*
X155027228Y-122537742D01*
X155056171Y-122517248D01*
X155062884Y-122511349D01*
X155102394Y-122476143D01*
X155106063Y-122472166D01*
X155110383Y-122468903D01*
X155116911Y-122462801D01*
X155173013Y-122409620D01*
X155173188Y-122409418D01*
X155173405Y-122409249D01*
X155179842Y-122403051D01*
X155248106Y-122336395D01*
X155248195Y-122336289D01*
X155252451Y-122332112D01*
X155328449Y-122256477D01*
X155328548Y-122256357D01*
X155331833Y-122253084D01*
X155411139Y-122172966D01*
X155411241Y-122172841D01*
X155414293Y-122169757D01*
X155492477Y-122089655D01*
X155492578Y-122089529D01*
X155495963Y-122086055D01*
X155568595Y-122010464D01*
X155568668Y-122010371D01*
X155573199Y-122005623D01*
X155635851Y-121939042D01*
X155636492Y-121938212D01*
X155637283Y-121937516D01*
X155643339Y-121930945D01*
X155691583Y-121877872D01*
X155696568Y-121871177D01*
X155702616Y-121865414D01*
X155708405Y-121858607D01*
X155737812Y-121823538D01*
X155763837Y-121785502D01*
X155791778Y-121748859D01*
X155796424Y-121741226D01*
X155803455Y-121729490D01*
X155806354Y-121723365D01*
X155808346Y-121720453D01*
X155814188Y-121706811D01*
X155828232Y-121677134D01*
X155853763Y-121625108D01*
X155854939Y-121620700D01*
X155856885Y-121616588D01*
X155871008Y-121560468D01*
X155885960Y-121504423D01*
X155886257Y-121499872D01*
X155887368Y-121495459D01*
X155890325Y-121437615D01*
X155894104Y-121379782D01*
X155893512Y-121375265D01*
X155893745Y-121370715D01*
X155885402Y-121313353D01*
X155877881Y-121255934D01*
X155876424Y-121251620D01*
X155875768Y-121247109D01*
X155856456Y-121192496D01*
X155850786Y-121175707D01*
X155849835Y-121171684D01*
X155848258Y-121168223D01*
X155837914Y-121137595D01*
X155834185Y-121129474D01*
X155824067Y-121107837D01*
X155809719Y-121083635D01*
X155798048Y-121058020D01*
X155793513Y-121050321D01*
X155765149Y-121002919D01*
X155762522Y-120999368D01*
X155760580Y-120995401D01*
X155755833Y-120987829D01*
X155712203Y-120919298D01*
X155712045Y-120919097D01*
X155711925Y-120918860D01*
X155707067Y-120911360D01*
X155651156Y-120826338D01*
X155651084Y-120826248D01*
X155647340Y-120820603D01*
X155588626Y-120733377D01*
X161766229Y-120733377D01*
X161892104Y-121023315D01*
X162224262Y-121189139D01*
X162582387Y-121286975D01*
X162952719Y-121313065D01*
X163321025Y-121266405D01*
X163673151Y-121148789D01*
X163907896Y-121023315D01*
X164033771Y-120733377D01*
X162900000Y-119599605D01*
X161766229Y-120733377D01*
X155588626Y-120733377D01*
X155582128Y-120723725D01*
X155582027Y-120723603D01*
X155579494Y-120719843D01*
X155541707Y-120664585D01*
X155493235Y-120593577D01*
X155512126Y-120590016D01*
X155576863Y-120577955D01*
X155576979Y-120577922D01*
X155579344Y-120577488D01*
X155699852Y-120554544D01*
X155699977Y-120554507D01*
X155706017Y-120553339D01*
X155814864Y-120531506D01*
X155814939Y-120531483D01*
X155822322Y-120529964D01*
X155914000Y-120510437D01*
X155915342Y-120510011D01*
X155916741Y-120509847D01*
X155925459Y-120507886D01*
X155994464Y-120491860D01*
X156003154Y-120488923D01*
X156012224Y-120487468D01*
X156020851Y-120485137D01*
X156061673Y-120473807D01*
X156099926Y-120459037D01*
X156139084Y-120446874D01*
X156147294Y-120443345D01*
X156155501Y-120439750D01*
X156167549Y-120433002D01*
X156180486Y-120428159D01*
X156221960Y-120402523D01*
X156264475Y-120378708D01*
X156274981Y-120369749D01*
X156286733Y-120362485D01*
X156322440Y-120329279D01*
X156359518Y-120297662D01*
X156368083Y-120286834D01*
X156378201Y-120277425D01*
X156406771Y-120237925D01*
X156437009Y-120199699D01*
X156443312Y-120187406D01*
X156451404Y-120176218D01*
X156471752Y-120131936D01*
X156493996Y-120088550D01*
X156497790Y-120075268D01*
X156503556Y-120062721D01*
X156506418Y-120054255D01*
X156514455Y-120029923D01*
X156527616Y-119971420D01*
X156541229Y-119913067D01*
X156541836Y-119908215D01*
X156541870Y-119908063D01*
X156541874Y-119907910D01*
X156542338Y-119904200D01*
X156548823Y-119849247D01*
X156549084Y-119836022D01*
X156551373Y-119822999D01*
X156551992Y-119814084D01*
X156556929Y-119734935D01*
X156556777Y-119730654D01*
X156557403Y-119726419D01*
X156557778Y-119717491D01*
X156561172Y-119620573D01*
X156561093Y-119619316D01*
X156561255Y-119618066D01*
X156561470Y-119609133D01*
X156563324Y-119500871D01*
X156563316Y-119500766D01*
X156563328Y-119500658D01*
X156563415Y-119491723D01*
X156563468Y-119472719D01*
X161006935Y-119472719D01*
X161053595Y-119841025D01*
X161171211Y-120193151D01*
X161296685Y-120427896D01*
X161586623Y-120553771D01*
X162720395Y-119420000D01*
X163079605Y-119420000D01*
X164213377Y-120553771D01*
X164503315Y-120427896D01*
X164669139Y-120095738D01*
X164766975Y-119737613D01*
X164793065Y-119367281D01*
X164746405Y-118998975D01*
X164628789Y-118646849D01*
X164503315Y-118412104D01*
X164213377Y-118286229D01*
X163079605Y-119420000D01*
X162720395Y-119420000D01*
X161586623Y-118286229D01*
X161296685Y-118412104D01*
X161130861Y-118744262D01*
X161033025Y-119102387D01*
X161006935Y-119472719D01*
X156563468Y-119472719D01*
X156563734Y-119378737D01*
X156563735Y-119378732D01*
X156563735Y-119378545D01*
X156563734Y-119378537D01*
X156563700Y-119369795D01*
X156562489Y-119258125D01*
X156562435Y-119257626D01*
X156562478Y-119257119D01*
X156562304Y-119248184D01*
X156559567Y-119144451D01*
X156559278Y-119142134D01*
X156559428Y-119139796D01*
X156559065Y-119130867D01*
X156554806Y-119041495D01*
X156553762Y-119034366D01*
X156553962Y-119027160D01*
X156553273Y-119018251D01*
X156547497Y-118949665D01*
X156543073Y-118925591D01*
X156541539Y-118901151D01*
X156540050Y-118892340D01*
X156532762Y-118850969D01*
X156525364Y-118824456D01*
X156520911Y-118797302D01*
X156508620Y-118764449D01*
X156499191Y-118730659D01*
X156490610Y-118713664D01*
X156487899Y-118704931D01*
X156482898Y-118695699D01*
X156477143Y-118680316D01*
X156473154Y-118672320D01*
X156468782Y-118663707D01*
X156452431Y-118638054D01*
X156442891Y-118619160D01*
X156438150Y-118613090D01*
X156428407Y-118595103D01*
X156413881Y-118577571D01*
X156401647Y-118558377D01*
X156374131Y-118529596D01*
X156348715Y-118498921D01*
X156331058Y-118484543D01*
X156315331Y-118468093D01*
X156282745Y-118445201D01*
X156251859Y-118420051D01*
X156231754Y-118409380D01*
X156213124Y-118396293D01*
X156176708Y-118380166D01*
X156141530Y-118361495D01*
X156133242Y-118358154D01*
X156107111Y-118347831D01*
X156075779Y-118338873D01*
X156045418Y-118327020D01*
X156036799Y-118324658D01*
X155981428Y-118309899D01*
X155973714Y-118308632D01*
X155966327Y-118306070D01*
X155957624Y-118304040D01*
X155880338Y-118286580D01*
X155877060Y-118286170D01*
X155873916Y-118285164D01*
X155865167Y-118283346D01*
X155773290Y-118264918D01*
X155773223Y-118264911D01*
X155773153Y-118264890D01*
X155764379Y-118263196D01*
X155732307Y-118257235D01*
X155732217Y-118257227D01*
X155730671Y-118256933D01*
X155577222Y-118228825D01*
X155520282Y-118218192D01*
X155511153Y-118194885D01*
X155509387Y-118190205D01*
X155544362Y-118139211D01*
X155544363Y-118139210D01*
X155562471Y-118112865D01*
X155562547Y-118112728D01*
X155565262Y-118108771D01*
X155566714Y-118106623D01*
X161766229Y-118106623D01*
X162900000Y-119240395D01*
X164033771Y-118106623D01*
X163907896Y-117816685D01*
X163575738Y-117650861D01*
X163217613Y-117553025D01*
X162847281Y-117526935D01*
X162478975Y-117573595D01*
X162126849Y-117691211D01*
X161892104Y-117816685D01*
X161766229Y-118106623D01*
X155566714Y-118106623D01*
X155631118Y-118011350D01*
X155631535Y-118010580D01*
X155632091Y-118009906D01*
X155637023Y-118002454D01*
X155694974Y-117913566D01*
X155695944Y-117911703D01*
X155697253Y-117910047D01*
X155702031Y-117902496D01*
X155748919Y-117827246D01*
X155751637Y-117821754D01*
X155755281Y-117816817D01*
X155759807Y-117809112D01*
X155792476Y-117752604D01*
X155802062Y-117731504D01*
X155814170Y-117711739D01*
X155818016Y-117703673D01*
X155833309Y-117671012D01*
X155838218Y-117657143D01*
X155845135Y-117644168D01*
X155859020Y-117598365D01*
X155874983Y-117553263D01*
X155877102Y-117538719D01*
X155881372Y-117524635D01*
X155883056Y-117515858D01*
X155883797Y-117511846D01*
X155887308Y-117470593D01*
X155893535Y-117429654D01*
X155892592Y-117408491D01*
X155894388Y-117387390D01*
X155889820Y-117346249D01*
X155887977Y-117304872D01*
X155882941Y-117284292D01*
X155880604Y-117263247D01*
X155868127Y-117223760D01*
X155858286Y-117183546D01*
X155849355Y-117164350D01*
X155842971Y-117144145D01*
X155823062Y-117107835D01*
X155805598Y-117070297D01*
X155801002Y-117062633D01*
X155788152Y-117041542D01*
X155760617Y-117004936D01*
X155735024Y-116966932D01*
X155729285Y-116960082D01*
X155693781Y-116918302D01*
X155687370Y-116912102D01*
X155682083Y-116904917D01*
X155676063Y-116898313D01*
X155622468Y-116840332D01*
X155620894Y-116838932D01*
X155619609Y-116837259D01*
X155613455Y-116830780D01*
X155546333Y-116761089D01*
X155546313Y-116761072D01*
X155540356Y-116754967D01*
X155464272Y-116678056D01*
X155464179Y-116677979D01*
X155459441Y-116673225D01*
X155378958Y-116593587D01*
X155378857Y-116593505D01*
X155374322Y-116589046D01*
X155294005Y-116511168D01*
X155293931Y-116511109D01*
X155288693Y-116506076D01*
X155213105Y-116434451D01*
X155212693Y-116434131D01*
X155212345Y-116433731D01*
X155205805Y-116427641D01*
X155139511Y-116366757D01*
X155136282Y-116364327D01*
X155133544Y-116361345D01*
X155126845Y-116355431D01*
X155074409Y-116309780D01*
X155061071Y-116300286D01*
X155049234Y-116288967D01*
X155042165Y-116283501D01*
X155008151Y-116257572D01*
X155002912Y-116254334D01*
X154998323Y-116250228D01*
X154963010Y-116229327D01*
X154952942Y-116221483D01*
X154935786Y-116212846D01*
X154901901Y-116191903D01*
X154896136Y-116189745D01*
X154890835Y-116186608D01*
X154882711Y-116182885D01*
X154873301Y-116178652D01*
X154856868Y-116173115D01*
X154841376Y-116165316D01*
X154800590Y-116153988D01*
X154784918Y-116148123D01*
X154780575Y-116147410D01*
X154754933Y-116138771D01*
X154737738Y-116136532D01*
X154721026Y-116131890D01*
X154675921Y-116128481D01*
X154631073Y-116122640D01*
X154613769Y-116123783D01*
X154596475Y-116122476D01*
X154551573Y-116127892D01*
X154506438Y-116130874D01*
X154489682Y-116135358D01*
X154472467Y-116137434D01*
X154429468Y-116151469D01*
X154385777Y-116163160D01*
X154370218Y-116170809D01*
X154353727Y-116176192D01*
X154345569Y-116179838D01*
X154323667Y-116189809D01*
X154296227Y-116205701D01*
X154267385Y-116218876D01*
X154259690Y-116223418D01*
X154214847Y-116250310D01*
X154209199Y-116254497D01*
X154202906Y-116257649D01*
X154195378Y-116262465D01*
X154134899Y-116301749D01*
X154133186Y-116303117D01*
X154131245Y-116304140D01*
X154123819Y-116309111D01*
X154077288Y-116340730D01*
X154077174Y-116340825D01*
X154074185Y-116342851D01*
X153990496Y-116400440D01*
X153892192Y-116467697D01*
X153870632Y-116482380D01*
X153832505Y-116467106D01*
X153786007Y-116453570D01*
X153754798Y-116442976D01*
X153746040Y-116439747D01*
X153744621Y-116439521D01*
X153740110Y-116437990D01*
X153731394Y-116436019D01*
X153721186Y-116433784D01*
X153715883Y-116433156D01*
X153712577Y-116432194D01*
X153693747Y-116430536D01*
X153671814Y-116427941D01*
X153622685Y-116420126D01*
X153609874Y-116420610D01*
X153597145Y-116419103D01*
X153547578Y-116422961D01*
X153497867Y-116424837D01*
X153485389Y-116427801D01*
X153472616Y-116428795D01*
X153424740Y-116442207D01*
X153376342Y-116453703D01*
X153364684Y-116459031D01*
X153352340Y-116462489D01*
X153307977Y-116484948D01*
X153262738Y-116505623D01*
X153252333Y-116513117D01*
X153240900Y-116518905D01*
X153201741Y-116549555D01*
X153161383Y-116578622D01*
X153152635Y-116587990D01*
X153142541Y-116595891D01*
X153110089Y-116633554D01*
X153076136Y-116669915D01*
X153070754Y-116677048D01*
X153058480Y-116693552D01*
X153034305Y-116733725D01*
X153008200Y-116772663D01*
X153004027Y-116780565D01*
X152979811Y-116827205D01*
X152977143Y-116833861D01*
X152973368Y-116839960D01*
X152969485Y-116848008D01*
X152935135Y-116920481D01*
X152934865Y-116921234D01*
X152934454Y-116921922D01*
X152930703Y-116930033D01*
X152888028Y-117024036D01*
X152887984Y-117024165D01*
X152885476Y-117029731D01*
X152836282Y-117140963D01*
X152836233Y-117141113D01*
X152834534Y-117144953D01*
X152780630Y-117269111D01*
X152780585Y-117269251D01*
X152779275Y-117272255D01*
X152722469Y-117405038D01*
X152722426Y-117405173D01*
X152721305Y-117407778D01*
X152663403Y-117544883D01*
X152663364Y-117545008D01*
X152662295Y-117547522D01*
X152612501Y-117666915D01*
X152609706Y-117660146D01*
X152609640Y-117660022D01*
X152608576Y-117657428D01*
X152551072Y-117519977D01*
X152551007Y-117519856D01*
X152549970Y-117517360D01*
X152492113Y-117380770D01*
X152492046Y-117380646D01*
X152490930Y-117377996D01*
X152434527Y-117246566D01*
X152434456Y-117246438D01*
X152433129Y-117243332D01*
X152379988Y-117121364D01*
X152379915Y-117121233D01*
X152378143Y-117117168D01*
X152330075Y-117008965D01*
X152330016Y-117008861D01*
X152327297Y-117002800D01*
X152286108Y-116912660D01*
X152285374Y-116911396D01*
X152284889Y-116910006D01*
X152281081Y-116901922D01*
X152248580Y-116834147D01*
X152243526Y-116825809D01*
X152239911Y-116816751D01*
X152235749Y-116808843D01*
X152213745Y-116767736D01*
X152181456Y-116719429D01*
X152149824Y-116670679D01*
X152144340Y-116663903D01*
X152144333Y-116663892D01*
X152144325Y-116663884D01*
X152144202Y-116663732D01*
X152135341Y-116652936D01*
X152091710Y-116609272D01*
X152048162Y-116565495D01*
X152047564Y-116565092D01*
X152047053Y-116564581D01*
X151995834Y-116530264D01*
X151944550Y-116495736D01*
X151943882Y-116495456D01*
X151943285Y-116495056D01*
X151886251Y-116471289D01*
X151829362Y-116447433D01*
X151828660Y-116447289D01*
X151827989Y-116447010D01*
X151767384Y-116434766D01*
X151706986Y-116422422D01*
X151706262Y-116422418D01*
X151705556Y-116422275D01*
X151643878Y-116422036D01*
X151582081Y-116421659D01*
X151581372Y-116421795D01*
X151580651Y-116421792D01*
X151520208Y-116433517D01*
X151459408Y-116445169D01*
X151458105Y-116445564D01*
X151458031Y-116445578D01*
X151457954Y-116445609D01*
X151450856Y-116447759D01*
X151423780Y-116456166D01*
X151393182Y-116469059D01*
X151361531Y-116479094D01*
X151354199Y-116482296D01*
X151292472Y-116440180D01*
X151198488Y-116375749D01*
X151151136Y-116343115D01*
X151151077Y-116343082D01*
X151144740Y-116338763D01*
X151077494Y-116293607D01*
X151072881Y-116291125D01*
X151068777Y-116287855D01*
X151061244Y-116283048D01*
X151004303Y-116247264D01*
X150993366Y-116241800D01*
X150983412Y-116234683D01*
X150975639Y-116230274D01*
X150936429Y-116208393D01*
X150893428Y-116189639D01*
X150868689Y-116177380D01*
X150860370Y-116172872D01*
X150858286Y-116172225D01*
X150851401Y-116168813D01*
X150843023Y-116165705D01*
X150830288Y-116161080D01*
X150824613Y-116159627D01*
X150821937Y-116158460D01*
X150808841Y-116155589D01*
X150785388Y-116149585D01*
X150741084Y-116135826D01*
X150724968Y-116134117D01*
X150709284Y-116130102D01*
X150663008Y-116127548D01*
X150616873Y-116122656D01*
X150600731Y-116124110D01*
X150584568Y-116123218D01*
X150538673Y-116129701D01*
X150492471Y-116133863D01*
X150476926Y-116138423D01*
X150460889Y-116140688D01*
X150417107Y-116155969D01*
X150372615Y-116169020D01*
X150358253Y-116176511D01*
X150342960Y-116181849D01*
X150302997Y-116205333D01*
X150295045Y-116209481D01*
X150289530Y-116211792D01*
X150285788Y-116214310D01*
X150261869Y-116226786D01*
X150254422Y-116231725D01*
X150235886Y-116244203D01*
X150211808Y-116264085D01*
X150185898Y-116281518D01*
X150179046Y-116287255D01*
X150138022Y-116322087D01*
X150134710Y-116325509D01*
X150130834Y-116328282D01*
X150124150Y-116334214D01*
X150064617Y-116387788D01*
X150064388Y-116388038D01*
X150064107Y-116388246D01*
X150057513Y-116394277D01*
X149983447Y-116462972D01*
X149983375Y-116463053D01*
X149978407Y-116467697D01*
X149893783Y-116547899D01*
X149893675Y-116548024D01*
X149890296Y-116551230D01*
X149836776Y-116602725D01*
X149836701Y-116602813D01*
X149831967Y-116607400D01*
X149738333Y-116699400D01*
X149737673Y-116700190D01*
X149736873Y-116700839D01*
X149730564Y-116707166D01*
X149649642Y-116789453D01*
X149647947Y-116791552D01*
X149645889Y-116793301D01*
X149639722Y-116799768D01*
X149574786Y-116868822D01*
X149570321Y-116874612D01*
X149564923Y-116879552D01*
X149558998Y-116886242D01*
X149513317Y-116938543D01*
X149498782Y-116958894D01*
X149481959Y-116977406D01*
X149476674Y-116984612D01*
X149453521Y-117016639D01*
X149441247Y-117037675D01*
X149440423Y-117038665D01*
X149438811Y-117041625D01*
X149422827Y-117063255D01*
X149408039Y-117094588D01*
X149390572Y-117124524D01*
X149385178Y-117140134D01*
X149380696Y-117148366D01*
X149376842Y-117160689D01*
X149369516Y-117176212D01*
X149366568Y-117184648D01*
X149364346Y-117191148D01*
X149357469Y-117220319D01*
X149349777Y-117242580D01*
X149348625Y-117250918D01*
X149343415Y-117267579D01*
X149340950Y-117290394D01*
X149335687Y-117312721D01*
X149334259Y-117352333D01*
X149332966Y-117364297D01*
X149332688Y-117366311D01*
X149332709Y-117366675D01*
X149329999Y-117391762D01*
X149332013Y-117414620D01*
X149331186Y-117437546D01*
X149337481Y-117476695D01*
X149340960Y-117516187D01*
X149347373Y-117538211D01*
X149351016Y-117560869D01*
X149364795Y-117598047D01*
X149375878Y-117636112D01*
X149379260Y-117644384D01*
X149389568Y-117669106D01*
X149406065Y-117699828D01*
X149419847Y-117731868D01*
X149424217Y-117739663D01*
X149452702Y-117789652D01*
X149456950Y-117795658D01*
X149460107Y-117802309D01*
X149464762Y-117809938D01*
X149508264Y-117880130D01*
X149509570Y-117881840D01*
X149510535Y-117883768D01*
X149515346Y-117891298D01*
X149570706Y-117976635D01*
X149571059Y-117977078D01*
X149571326Y-117977591D01*
X149576256Y-117985044D01*
X149640312Y-118080463D01*
X149640405Y-118080576D01*
X149643628Y-118085353D01*
X149661845Y-118111955D01*
X149661876Y-118111992D01*
X149662265Y-118112567D01*
X149715558Y-118190197D01*
X149704628Y-118218210D01*
X149672853Y-118224178D01*
X149526362Y-118251080D01*
X149494753Y-118256845D01*
X149494638Y-118256878D01*
X149488180Y-118258079D01*
X149393112Y-118276446D01*
X149390435Y-118277241D01*
X149387653Y-118277525D01*
X149378907Y-118279358D01*
X149296027Y-118297327D01*
X149290700Y-118299041D01*
X149285145Y-118299785D01*
X149276461Y-118301892D01*
X149213096Y-118317728D01*
X149195647Y-118323952D01*
X149177500Y-118327724D01*
X149168989Y-118330448D01*
X149132461Y-118342417D01*
X149077744Y-118366484D01*
X149074918Y-118367699D01*
X149042972Y-118379790D01*
X149034456Y-118385097D01*
X149022767Y-118390123D01*
X149018269Y-118392644D01*
X149018126Y-118392707D01*
X149018001Y-118392794D01*
X149014972Y-118394492D01*
X149010073Y-118397282D01*
X148974233Y-118422627D01*
X148936965Y-118445852D01*
X148923333Y-118458622D01*
X148908091Y-118469401D01*
X148877860Y-118501221D01*
X148845809Y-118531246D01*
X148834917Y-118546421D01*
X148822059Y-118559955D01*
X148798576Y-118597053D01*
X148772976Y-118632720D01*
X148765243Y-118649712D01*
X148755253Y-118665494D01*
X148739424Y-118706445D01*
X148721238Y-118746406D01*
X148718408Y-118754882D01*
X148710337Y-118779620D01*
X148697697Y-118836782D01*
X148684347Y-118893845D01*
X148683383Y-118901513D01*
X148683368Y-118901580D01*
X148683367Y-118901641D01*
X148683232Y-118902712D01*
X148676672Y-118957994D01*
X148676406Y-118971045D01*
X148674130Y-118983905D01*
X148673501Y-118992820D01*
X148668455Y-119072220D01*
X148668600Y-119076461D01*
X148667975Y-119080656D01*
X148667589Y-119089584D01*
X148664063Y-119186677D01*
X148664139Y-119187912D01*
X148663977Y-119189149D01*
X148663750Y-119198082D01*
X148661748Y-119306440D01*
X148661756Y-119306539D01*
X148661744Y-119306641D01*
X148661645Y-119315576D01*
X148661171Y-119428588D01*
X148661170Y-119428596D01*
X113988745Y-119428596D01*
X113993065Y-119367281D01*
X113946405Y-118998975D01*
X113828789Y-118646849D01*
X113703315Y-118412104D01*
X113413377Y-118286229D01*
X112279605Y-119420000D01*
X111920395Y-119420000D01*
X110786623Y-118286229D01*
X110496685Y-118412104D01*
X110330861Y-118744262D01*
X110233025Y-119102387D01*
X110206935Y-119472719D01*
X100660000Y-119472719D01*
X100660000Y-118106623D01*
X110966229Y-118106623D01*
X112100000Y-119240395D01*
X113233771Y-118106623D01*
X113107896Y-117816685D01*
X112775738Y-117650861D01*
X112417613Y-117553025D01*
X112047281Y-117526935D01*
X111678975Y-117573595D01*
X111326849Y-117691211D01*
X111092104Y-117816685D01*
X110966229Y-118106623D01*
X100660000Y-118106623D01*
X100660000Y-114129721D01*
X104885000Y-114129721D01*
X104885000Y-114550279D01*
X104967047Y-114962756D01*
X105127988Y-115351302D01*
X105361637Y-115700983D01*
X105659017Y-115998363D01*
X106008698Y-116232012D01*
X106397244Y-116392953D01*
X106809721Y-116475000D01*
X107230279Y-116475000D01*
X107642756Y-116392953D01*
X108031302Y-116232012D01*
X108380983Y-115998363D01*
X108678363Y-115700983D01*
X108912012Y-115351302D01*
X109072953Y-114962756D01*
X109155000Y-114550279D01*
X109155000Y-114129721D01*
X115045000Y-114129721D01*
X115045000Y-114550279D01*
X115127047Y-114962756D01*
X115287988Y-115351302D01*
X115521637Y-115700983D01*
X115819017Y-115998363D01*
X116168698Y-116232012D01*
X116557244Y-116392953D01*
X116969721Y-116475000D01*
X117390279Y-116475000D01*
X117802756Y-116392953D01*
X118191302Y-116232012D01*
X118540983Y-115998363D01*
X118838363Y-115700983D01*
X119072012Y-115351302D01*
X119232953Y-114962756D01*
X119315000Y-114550279D01*
X119315000Y-114129721D01*
X125205000Y-114129721D01*
X125205000Y-114550279D01*
X125287047Y-114962756D01*
X125447988Y-115351302D01*
X125681637Y-115700983D01*
X125979017Y-115998363D01*
X126328698Y-116232012D01*
X126717244Y-116392953D01*
X127129721Y-116475000D01*
X127550279Y-116475000D01*
X127962756Y-116392953D01*
X128351302Y-116232012D01*
X128700983Y-115998363D01*
X128998363Y-115700983D01*
X129232012Y-115351302D01*
X129392953Y-114962756D01*
X129475000Y-114550279D01*
X129475000Y-114129721D01*
X135365000Y-114129721D01*
X135365000Y-114550279D01*
X135447047Y-114962756D01*
X135607988Y-115351302D01*
X135841637Y-115700983D01*
X136139017Y-115998363D01*
X136488698Y-116232012D01*
X136877244Y-116392953D01*
X137289721Y-116475000D01*
X137710279Y-116475000D01*
X138122756Y-116392953D01*
X138511302Y-116232012D01*
X138860983Y-115998363D01*
X139158363Y-115700983D01*
X139392012Y-115351302D01*
X139552953Y-114962756D01*
X139635000Y-114550279D01*
X139635000Y-114129721D01*
X145525000Y-114129721D01*
X145525000Y-114550279D01*
X145607047Y-114962756D01*
X145767988Y-115351302D01*
X146001637Y-115700983D01*
X146299017Y-115998363D01*
X146648698Y-116232012D01*
X147037244Y-116392953D01*
X147449721Y-116475000D01*
X147870279Y-116475000D01*
X148282756Y-116392953D01*
X148671302Y-116232012D01*
X149020983Y-115998363D01*
X149318363Y-115700983D01*
X149552012Y-115351302D01*
X149712953Y-114962756D01*
X149795000Y-114550279D01*
X149795000Y-114129721D01*
X155685000Y-114129721D01*
X155685000Y-114550279D01*
X155767047Y-114962756D01*
X155927988Y-115351302D01*
X156161637Y-115700983D01*
X156459017Y-115998363D01*
X156808698Y-116232012D01*
X157197244Y-116392953D01*
X157609721Y-116475000D01*
X158030279Y-116475000D01*
X158442756Y-116392953D01*
X158831302Y-116232012D01*
X159180983Y-115998363D01*
X159478363Y-115700983D01*
X159712012Y-115351302D01*
X159872953Y-114962756D01*
X159955000Y-114550279D01*
X159955000Y-114129721D01*
X165845000Y-114129721D01*
X165845000Y-114550279D01*
X165927047Y-114962756D01*
X166087988Y-115351302D01*
X166321637Y-115700983D01*
X166619017Y-115998363D01*
X166968698Y-116232012D01*
X167357244Y-116392953D01*
X167769721Y-116475000D01*
X168190279Y-116475000D01*
X168602756Y-116392953D01*
X168991302Y-116232012D01*
X169340983Y-115998363D01*
X169638363Y-115700983D01*
X169872012Y-115351302D01*
X170032953Y-114962756D01*
X170115000Y-114550279D01*
X170115000Y-114129721D01*
X170032953Y-113717244D01*
X169872012Y-113328698D01*
X169638363Y-112979017D01*
X169340983Y-112681637D01*
X168991302Y-112447988D01*
X168602756Y-112287047D01*
X168190279Y-112205000D01*
X167769721Y-112205000D01*
X167357244Y-112287047D01*
X166968698Y-112447988D01*
X166619017Y-112681637D01*
X166321637Y-112979017D01*
X166087988Y-113328698D01*
X165927047Y-113717244D01*
X165845000Y-114129721D01*
X159955000Y-114129721D01*
X159872953Y-113717244D01*
X159712012Y-113328698D01*
X159478363Y-112979017D01*
X159180983Y-112681637D01*
X158831302Y-112447988D01*
X158442756Y-112287047D01*
X158030279Y-112205000D01*
X157609721Y-112205000D01*
X157197244Y-112287047D01*
X156808698Y-112447988D01*
X156459017Y-112681637D01*
X156161637Y-112979017D01*
X155927988Y-113328698D01*
X155767047Y-113717244D01*
X155685000Y-114129721D01*
X149795000Y-114129721D01*
X149712953Y-113717244D01*
X149552012Y-113328698D01*
X149318363Y-112979017D01*
X149020983Y-112681637D01*
X148671302Y-112447988D01*
X148282756Y-112287047D01*
X147870279Y-112205000D01*
X147449721Y-112205000D01*
X147037244Y-112287047D01*
X146648698Y-112447988D01*
X146299017Y-112681637D01*
X146001637Y-112979017D01*
X145767988Y-113328698D01*
X145607047Y-113717244D01*
X145525000Y-114129721D01*
X139635000Y-114129721D01*
X139552953Y-113717244D01*
X139392012Y-113328698D01*
X139158363Y-112979017D01*
X138860983Y-112681637D01*
X138511302Y-112447988D01*
X138122756Y-112287047D01*
X137710279Y-112205000D01*
X137289721Y-112205000D01*
X136877244Y-112287047D01*
X136488698Y-112447988D01*
X136139017Y-112681637D01*
X135841637Y-112979017D01*
X135607988Y-113328698D01*
X135447047Y-113717244D01*
X135365000Y-114129721D01*
X129475000Y-114129721D01*
X129392953Y-113717244D01*
X129232012Y-113328698D01*
X128998363Y-112979017D01*
X128700983Y-112681637D01*
X128351302Y-112447988D01*
X127962756Y-112287047D01*
X127550279Y-112205000D01*
X127129721Y-112205000D01*
X126717244Y-112287047D01*
X126328698Y-112447988D01*
X125979017Y-112681637D01*
X125681637Y-112979017D01*
X125447988Y-113328698D01*
X125287047Y-113717244D01*
X125205000Y-114129721D01*
X119315000Y-114129721D01*
X119232953Y-113717244D01*
X119072012Y-113328698D01*
X118838363Y-112979017D01*
X118540983Y-112681637D01*
X118191302Y-112447988D01*
X117802756Y-112287047D01*
X117390279Y-112205000D01*
X116969721Y-112205000D01*
X116557244Y-112287047D01*
X116168698Y-112447988D01*
X115819017Y-112681637D01*
X115521637Y-112979017D01*
X115287988Y-113328698D01*
X115127047Y-113717244D01*
X115045000Y-114129721D01*
X109155000Y-114129721D01*
X109072953Y-113717244D01*
X108912012Y-113328698D01*
X108678363Y-112979017D01*
X108380983Y-112681637D01*
X108031302Y-112447988D01*
X107642756Y-112287047D01*
X107230279Y-112205000D01*
X106809721Y-112205000D01*
X106397244Y-112287047D01*
X106008698Y-112447988D01*
X105659017Y-112681637D01*
X105361637Y-112979017D01*
X105127988Y-113328698D01*
X104967047Y-113717244D01*
X104885000Y-114129721D01*
X100660000Y-114129721D01*
X100660000Y-107110097D01*
X101068607Y-107077939D01*
X101170898Y-107061738D01*
X101640473Y-106949003D01*
X106731808Y-106908596D01*
X106756564Y-106905959D01*
X106780330Y-106898543D01*
X106802193Y-106886633D01*
X106821312Y-106870687D01*
X106836953Y-106851317D01*
X106848515Y-106829268D01*
X106855552Y-106805387D01*
X106857799Y-106782094D01*
X106867496Y-104289721D01*
X110365000Y-104289721D01*
X110365000Y-104710279D01*
X110447047Y-105122756D01*
X110607988Y-105511302D01*
X110841637Y-105860983D01*
X111139017Y-106158363D01*
X111488698Y-106392012D01*
X111877244Y-106552953D01*
X112289721Y-106635000D01*
X112710279Y-106635000D01*
X113122756Y-106552953D01*
X113511302Y-106392012D01*
X113860983Y-106158363D01*
X114158363Y-105860983D01*
X114392012Y-105511302D01*
X114552953Y-105122756D01*
X114635000Y-104710279D01*
X114635000Y-104289721D01*
X114571348Y-103969721D01*
X115045000Y-103969721D01*
X115045000Y-104390279D01*
X115127047Y-104802756D01*
X115287988Y-105191302D01*
X115521637Y-105540983D01*
X115819017Y-105838363D01*
X116168698Y-106072012D01*
X116557244Y-106232953D01*
X116969721Y-106315000D01*
X117390279Y-106315000D01*
X117802756Y-106232953D01*
X118191302Y-106072012D01*
X118540983Y-105838363D01*
X118838363Y-105540983D01*
X119072012Y-105191302D01*
X119232953Y-104802756D01*
X119315000Y-104390279D01*
X119315000Y-103969721D01*
X125205000Y-103969721D01*
X125205000Y-104390279D01*
X125287047Y-104802756D01*
X125447988Y-105191302D01*
X125681637Y-105540983D01*
X125979017Y-105838363D01*
X126328698Y-106072012D01*
X126717244Y-106232953D01*
X127129721Y-106315000D01*
X127550279Y-106315000D01*
X127962756Y-106232953D01*
X128351302Y-106072012D01*
X128700983Y-105838363D01*
X128998363Y-105540983D01*
X129232012Y-105191302D01*
X129392953Y-104802756D01*
X129475000Y-104390279D01*
X129475000Y-103969721D01*
X135365000Y-103969721D01*
X135365000Y-104390279D01*
X135447047Y-104802756D01*
X135607988Y-105191302D01*
X135841637Y-105540983D01*
X136139017Y-105838363D01*
X136488698Y-106072012D01*
X136877244Y-106232953D01*
X137289721Y-106315000D01*
X137710279Y-106315000D01*
X138122756Y-106232953D01*
X138511302Y-106072012D01*
X138860983Y-105838363D01*
X139158363Y-105540983D01*
X139392012Y-105191302D01*
X139552953Y-104802756D01*
X139635000Y-104390279D01*
X139635000Y-103969721D01*
X139552953Y-103557244D01*
X139392012Y-103168698D01*
X139158363Y-102819017D01*
X138860983Y-102521637D01*
X138511302Y-102287988D01*
X138122756Y-102127047D01*
X137710279Y-102045000D01*
X137289721Y-102045000D01*
X136877244Y-102127047D01*
X136488698Y-102287988D01*
X136139017Y-102521637D01*
X135841637Y-102819017D01*
X135607988Y-103168698D01*
X135447047Y-103557244D01*
X135365000Y-103969721D01*
X129475000Y-103969721D01*
X129392953Y-103557244D01*
X129232012Y-103168698D01*
X128998363Y-102819017D01*
X128700983Y-102521637D01*
X128351302Y-102287988D01*
X127962756Y-102127047D01*
X127550279Y-102045000D01*
X127129721Y-102045000D01*
X126717244Y-102127047D01*
X126328698Y-102287988D01*
X125979017Y-102521637D01*
X125681637Y-102819017D01*
X125447988Y-103168698D01*
X125287047Y-103557244D01*
X125205000Y-103969721D01*
X119315000Y-103969721D01*
X119232953Y-103557244D01*
X119072012Y-103168698D01*
X118838363Y-102819017D01*
X118540983Y-102521637D01*
X118191302Y-102287988D01*
X117802756Y-102127047D01*
X117390279Y-102045000D01*
X116969721Y-102045000D01*
X116557244Y-102127047D01*
X116168698Y-102287988D01*
X115819017Y-102521637D01*
X115521637Y-102819017D01*
X115287988Y-103168698D01*
X115127047Y-103557244D01*
X115045000Y-103969721D01*
X114571348Y-103969721D01*
X114552953Y-103877244D01*
X114392012Y-103488698D01*
X114158363Y-103139017D01*
X113860983Y-102841637D01*
X113511302Y-102607988D01*
X113122756Y-102447047D01*
X112710279Y-102365000D01*
X112289721Y-102365000D01*
X111877244Y-102447047D01*
X111488698Y-102607988D01*
X111139017Y-102841637D01*
X110841637Y-103139017D01*
X110607988Y-103488698D01*
X110447047Y-103877244D01*
X110365000Y-104289721D01*
X106867496Y-104289721D01*
X106876632Y-101941918D01*
X107061738Y-101170898D01*
X107077939Y-101068607D01*
X107110097Y-100660000D01*
X143057885Y-100660000D01*
X143057885Y-102907400D01*
M02*
