M48
; DRILL file {KiCad 5.1.5+dfsg1-2build2} date vie 19 feb 2021 18:32:26
; FORMAT={-:-/ absolute / metric / decimal}
; #@! TF.CreationDate,2021-02-19T18:32:26-05:00
; #@! TF.GenerationSoftware,Kicad,Pcbnew,5.1.5+dfsg1-2build2
; #@! TF.FileFunction,Plated,1,2,PTH
FMAT,2
METRIC
T1C1.000
T2C1.001
T3C1.200
%
G90
G05
T1
X115.25Y-120.33
X117.79Y-120.33
X120.33Y-120.33
X122.87Y-120.33
X125.41Y-120.33
X127.95Y-120.33
X130.49Y-120.33
X133.03Y-120.33
X135.57Y-120.33
X138.11Y-120.33
X140.65Y-120.33
X143.19Y-120.33
X145.73Y-120.33
X148.27Y-120.33
X150.81Y-120.33
X153.35Y-120.33
X155.89Y-120.33
X158.43Y-120.33
X160.97Y-120.33
X163.51Y-120.33
X115.25Y-82.23
X117.79Y-82.23
X120.33Y-82.23
X122.87Y-82.23
X125.41Y-82.23
X127.95Y-82.23
X130.49Y-82.23
X133.03Y-82.23
X135.57Y-82.23
X138.11Y-82.23
X140.65Y-82.23
X143.19Y-82.23
X145.73Y-82.23
X148.27Y-82.23
X150.81Y-82.23
X153.35Y-82.23
X155.89Y-82.23
X158.43Y-82.23
X160.97Y-82.23
X163.51Y-82.23
X115.25Y-64.45
X117.79Y-64.45
X120.33Y-64.45
X122.87Y-64.45
X125.41Y-64.45
X127.95Y-64.45
X130.49Y-64.45
X133.03Y-64.45
X135.57Y-64.45
X138.11Y-64.45
X140.65Y-64.45
X143.19Y-64.45
X145.73Y-64.45
X148.27Y-64.45
X150.81Y-64.45
X153.35Y-64.45
X155.89Y-64.45
X158.43Y-64.45
X160.97Y-64.45
X163.51Y-64.45
X115.25Y-102.55
X117.79Y-102.55
X120.33Y-102.55
X122.87Y-102.55
X125.41Y-102.55
X127.95Y-102.55
X130.49Y-102.55
X133.03Y-102.55
X135.57Y-102.55
X138.11Y-102.55
X140.65Y-102.55
X143.19Y-102.55
X145.73Y-102.55
X148.27Y-102.55
X150.81Y-102.55
X153.35Y-102.55
X155.89Y-102.55
X158.43Y-102.55
X160.97Y-102.55
X163.51Y-102.55
T2
X108.9Y-73.34
X169.86Y-73.34
X169.86Y-111.44
X108.9Y-111.44
T3
X158.63Y-88.133
X162.13Y-88.133
X165.63Y-88.133
X169.13Y-88.133
X172.63Y-88.133
X106.13Y-58.547
X109.63Y-58.547
X113.13Y-58.547
X116.63Y-58.547
X120.13Y-58.547
X123.63Y-58.547
X127.13Y-58.547
X130.63Y-58.547
X134.13Y-58.547
X137.63Y-58.547
X141.13Y-58.547
X144.63Y-58.547
X148.13Y-58.547
X151.63Y-58.547
X155.13Y-58.547
X158.63Y-58.547
X162.13Y-58.547
X165.63Y-58.547
X169.13Y-58.547
X172.63Y-58.547
X106.13Y-96.647
X109.63Y-96.647
X113.13Y-96.647
X116.63Y-96.647
X120.13Y-96.647
X158.63Y-126.233
X162.13Y-126.233
X165.63Y-126.233
X169.13Y-126.233
X172.63Y-126.233
X106.13Y-126.233
X109.63Y-126.233
X113.13Y-126.233
X116.63Y-126.233
X120.13Y-126.233
X123.63Y-126.233
X127.13Y-126.233
X130.63Y-126.233
X134.13Y-126.233
X137.63Y-126.233
X141.13Y-126.233
X144.63Y-126.233
X148.13Y-126.233
X151.63Y-126.233
X155.13Y-126.233
X106.13Y-88.133
X109.63Y-88.133
X113.13Y-88.133
X116.63Y-88.133
X120.13Y-88.133
X123.63Y-88.133
X127.13Y-88.133
X130.63Y-88.133
X134.13Y-88.133
X137.63Y-88.133
X141.13Y-88.133
X144.63Y-88.133
X148.13Y-88.133
X151.63Y-88.133
X155.13Y-88.133
X123.63Y-96.647
X127.13Y-96.647
X130.63Y-96.647
X134.13Y-96.647
X137.63Y-96.647
X141.13Y-96.647
X144.63Y-96.647
X148.13Y-96.647
X151.63Y-96.647
X155.13Y-96.647
X158.63Y-96.647
X162.13Y-96.647
X165.63Y-96.647
X169.13Y-96.647
X172.63Y-96.647
T0
M30
