M48
; DRILL file {KiCad 5.1.5-52549c5~86~ubuntu18.04.1} date mar 18 ago 2020 13:47:46 -05
; FORMAT={-:-/ absolute / metric / decimal}
; #@! TF.CreationDate,2020-08-18T13:47:46-05:00
; #@! TF.GenerationSoftware,Kicad,Pcbnew,5.1.5-52549c5~86~ubuntu18.04.1
; #@! TF.FileFunction,NonPlated,1,2,NPTH
FMAT,2
METRIC
T1C3.000
%
G90
G05
T1
X119.637Y-74.929
X154.797Y-93.769
X134.477Y-44.769
X112.637Y-54.929
X144.637Y-54.929
X144.637Y-114.089
X144.637Y-75.249
X124.317Y-54.929
X164.957Y-34.609
X169.637Y-74.929
X114.157Y-114.089
X144.637Y-65.089
X124.317Y-83.609
X134.477Y-124.249
X175.117Y-44.769
X164.957Y-83.609
X124.317Y-44.769
X175.117Y-93.769
X154.797Y-34.609
X134.477Y-93.769
X164.957Y-44.769
X164.957Y-75.249
X144.637Y-83.609
X154.797Y-44.769
X134.477Y-34.609
X164.957Y-103.929
X124.317Y-124.249
X169.637Y-83.929
X114.157Y-44.769
X134.477Y-54.929
X124.317Y-34.609
X124.317Y-75.249
X119.637Y-123.929
X164.957Y-114.089
X176.637Y-103.929
X134.477Y-83.609
X144.637Y-124.249
X124.317Y-103.929
X154.797Y-54.929
X112.637Y-103.929
X144.637Y-44.769
X114.157Y-93.769
X164.957Y-93.769
X154.797Y-124.249
X176.637Y-54.929
X144.637Y-93.769
X154.797Y-65.089
X164.957Y-124.249
X134.477Y-65.089
X134.477Y-103.929
X154.797Y-103.929
X144.637Y-34.609
X169.637Y-34.929
X154.797Y-75.249
X119.637Y-83.929
X124.317Y-114.089
X164.957Y-54.929
X175.117Y-114.089
X134.477Y-114.089
X114.157Y-65.089
X144.637Y-103.929
X154.797Y-83.609
X154.797Y-114.089
X164.957Y-65.089
X134.477Y-75.249
X175.117Y-65.089
X124.317Y-65.089
X124.317Y-93.769
X119.637Y-34.929
X169.637Y-123.929
T0
M30
