M48
; DRILL file {KiCad 5.1.5-52549c5~86~ubuntu18.04.1} date mar 29 sep 2020 20:21:12 -05
; FORMAT={-:-/ absolute / metric / decimal}
; #@! TF.CreationDate,2020-09-29T20:21:12-05:00
; #@! TF.GenerationSoftware,Kicad,Pcbnew,5.1.5-52549c5~86~ubuntu18.04.1
; #@! TF.FileFunction,Plated,1,2,PTH
FMAT,2
METRIC
T1C0.400
T2C0.900
T3C1.001
T4C1.200
T5C1.300
%
G90
G05
T1
X82.093Y-85.065
X82.093Y-133.325
X92.989Y-87.986
X92.989Y-136.246
X110.033Y-85.065
X110.033Y-133.325
X120.929Y-87.986
X120.929Y-136.246
X137.973Y-85.065
X137.973Y-133.325
X148.869Y-87.986
X148.869Y-136.246
T2
X116.611Y-134.493
X119.151Y-134.493
X88.671Y-134.493
X91.211Y-134.493
X144.551Y-86.233
X147.091Y-86.233
X116.611Y-86.233
X119.151Y-86.233
X144.551Y-134.493
X147.091Y-134.493
X88.671Y-86.233
X91.211Y-86.233
T3
X72.96Y-143.891
X128.84Y-143.891
X153.78Y-143.891
X125.84Y-143.891
X97.9Y-143.891
X100.9Y-143.891
X97.9Y-95.631
X128.84Y-95.631
X153.78Y-95.631
X100.9Y-95.631
X72.96Y-95.631
X125.84Y-95.631
T4
X80.18Y-141.453
X83.68Y-141.453
X87.18Y-141.453
X90.68Y-141.453
X136.06Y-141.453
X139.56Y-141.453
X143.06Y-141.453
X146.56Y-141.453
X80.18Y-93.193
X83.68Y-93.193
X87.18Y-93.193
X90.68Y-93.193
X108.12Y-93.193
X111.62Y-93.193
X115.12Y-93.193
X118.62Y-93.193
X108.12Y-141.453
X111.62Y-141.453
X115.12Y-141.453
X118.62Y-141.453
X136.06Y-93.193
X139.56Y-93.193
X143.06Y-93.193
X146.56Y-93.193
T5
X135.31Y-65.099
X135.31Y-77.299
X141.31Y-79.299
X147.31Y-65.099
X147.31Y-77.299
X107.37Y-65.099
X107.37Y-77.299
X113.37Y-79.299
X119.37Y-65.099
X119.37Y-77.299
X108.37Y-53.391
X113.37Y-53.391
X118.37Y-53.391
X136.31Y-101.651
X141.31Y-101.651
X146.31Y-101.651
X136.31Y-53.391
X141.31Y-53.391
X146.31Y-53.391
X135.31Y-113.359
X135.31Y-125.559
X141.31Y-127.559
X147.31Y-113.359
X147.31Y-125.559
X80.43Y-101.651
X85.43Y-101.651
X90.43Y-101.651
X108.37Y-101.651
X113.37Y-101.651
X118.37Y-101.651
X79.43Y-65.099
X79.43Y-77.299
X85.43Y-79.299
X91.43Y-65.099
X91.43Y-77.299
X107.37Y-113.359
X107.37Y-125.559
X113.37Y-127.559
X119.37Y-113.359
X119.37Y-125.559
X80.43Y-53.391
X85.43Y-53.391
X90.43Y-53.391
X79.43Y-113.359
X79.43Y-125.559
X85.43Y-127.559
X91.43Y-113.359
X91.43Y-125.559
T0
M30
