M48
; DRILL file {KiCad 5.1.5-52549c5~86~ubuntu18.04.1} date vie 25 sep 2020 00:17:57 -05
; FORMAT={-:-/ absolute / metric / decimal}
; #@! TF.CreationDate,2020-09-25T00:17:57-05:00
; #@! TF.GenerationSoftware,Kicad,Pcbnew,5.1.5-52549c5~86~ubuntu18.04.1
; #@! TF.FileFunction,NonPlated,1,2,NPTH
FMAT,2
METRIC
T1C3.000
%
G90
G05
T1
X140.396Y-65.822
X88.786Y-55.462
X120.076Y-75.982
X99.756Y-65.822
X130.236Y-75.982
X157.536Y-68.562
X89.596Y-75.982
X88.786Y-93.562
X99.756Y-96.302
X109.916Y-96.302
X109.916Y-27.722
X99.756Y-58.202
X170.876Y-27.722
X130.236Y-96.302
X120.076Y-86.142
X130.236Y-27.722
X120.076Y-58.202
X150.556Y-86.142
X88.786Y-30.462
X109.916Y-58.202
X99.756Y-86.142
X150.556Y-75.982
X130.236Y-65.822
X130.236Y-86.142
X150.556Y-96.302
X99.756Y-75.982
X140.396Y-96.302
X120.076Y-48.042
X109.916Y-37.882
X109.916Y-86.142
X130.236Y-37.882
X157.536Y-55.462
X89.596Y-37.882
X99.756Y-48.042
X120.076Y-37.882
X89.596Y-86.142
X157.536Y-93.562
X99.756Y-37.882
X120.076Y-96.302
X150.556Y-27.722
X170.876Y-58.202
X140.396Y-48.042
X157.536Y-30.462
X150.556Y-65.822
X150.556Y-58.202
X140.396Y-86.142
X140.396Y-58.202
X88.786Y-68.562
X140.396Y-75.982
X170.876Y-65.822
X150.556Y-37.882
X109.916Y-48.042
X120.076Y-65.822
X109.916Y-75.982
X140.396Y-27.722
X130.236Y-48.042
X140.396Y-37.882
X150.556Y-48.042
X89.596Y-48.042
X120.076Y-27.722
X130.236Y-58.202
X99.756Y-27.722
X109.916Y-65.822
X170.876Y-96.302
T0
M30
