M48
; DRILL file {KiCad 6.0.11-2627ca5db0~126~ubuntu20.04.1} date jue 16 mar 2023 14:55:15
; FORMAT={-:-/ absolute / metric / decimal}
; #@! TF.CreationDate,2023-03-16T14:55:15-05:00
; #@! TF.GenerationSoftware,Kicad,Pcbnew,6.0.11-2627ca5db0~126~ubuntu20.04.1
; #@! TF.FileFunction,Plated,1,2,PTH
FMAT,2
METRIC
; #@! TA.AperFunction,Plated,PTH,ViaDrill
T1C0.400
; #@! TA.AperFunction,Plated,PTH,ComponentDrill
T2C1.000
; #@! TA.AperFunction,Plated,PTH,ComponentDrill
T3C1.001
; #@! TA.AperFunction,Plated,PTH,ComponentDrill
T4C1.300
%
G90
G05
T1
X21.472Y-51.187
X33.859Y-37.157
X34.683Y-38.042
X35.88Y-50.654
X40.58Y-37.716
X44.241Y-50.89
X48.361Y-50.566
X49.023Y-33.885
T2
X27.62Y-30.16
X27.62Y-32.7
X27.62Y-55.56
X27.62Y-58.1
X30.16Y-30.16
X30.16Y-32.7
X30.16Y-55.56
X30.16Y-58.1
X32.7Y-30.16
X32.7Y-32.7
X32.7Y-55.56
X32.7Y-58.1
X35.24Y-30.16
X35.24Y-32.7
X35.24Y-55.56
X35.24Y-58.1
X37.78Y-30.16
X37.78Y-32.7
X37.78Y-55.56
X37.78Y-58.1
X40.32Y-30.16
X40.32Y-32.7
X40.32Y-55.56
X40.32Y-58.1
X42.86Y-30.16
X42.86Y-32.7
X42.86Y-55.56
X42.86Y-58.1
X45.4Y-30.16
X45.4Y-32.7
X45.4Y-55.56
X45.4Y-58.1
X47.94Y-30.16
X47.94Y-32.7
X47.94Y-55.56
X47.94Y-58.1
X50.48Y-30.16
X50.48Y-32.7
X50.48Y-55.56
X50.48Y-58.1
T3
X23.81Y-44.13
X54.29Y-44.13
T4
X23.364Y-64.508
X23.368Y-23.784
X26.864Y-64.508
X26.868Y-23.784
X30.364Y-64.508
X30.368Y-23.784
X33.864Y-64.508
X33.868Y-23.784
X37.364Y-64.508
X37.368Y-23.784
X40.864Y-64.508
X40.868Y-23.784
X44.364Y-64.508
X44.368Y-23.784
X47.864Y-64.508
X47.868Y-23.784
X51.364Y-64.508
X51.368Y-23.784
X54.864Y-64.508
X54.868Y-23.784
T0
M30
