<?xml version="1.0" standalone="no"?>
 <!DOCTYPE svg PUBLIC "-//W3C//DTD SVG 1.1//EN" 
 "http://www.w3.org/Graphics/SVG/1.1/DTD/svg11.dtd"> 
<svg xmlns="http://www.w3.org/2000/svg" version="1.1" 
    width="29.7002cm" height="21.0007cm" viewBox="0 0 116930 82680 ">
<title>SVG Picture created as C12-F_Mask.svg date 2022/11/04 12:23:17 </title>
  <desc>Picture generated by PCBNEW </desc>
<g style="fill:#000000; fill-opacity:1;stroke:#000000; stroke-opacity:1;
stroke-linecap:round; stroke-linejoin:round; "
 transform="translate(0 0) scale(1 1)">
</g>
<g style="fill:#000000; fill-opacity:0.0; 
stroke:#000000; stroke-width:-0.000393701; stroke-opacity:1; 
stroke-linecap:round; stroke-linejoin:round;">
</g>
<g style="fill:#000000; fill-opacity:0.0; 
stroke:#000000; stroke-width:19.685; stroke-opacity:1; 
stroke-linecap:round; stroke-linejoin:round;">
<path d="M22874 7874
L22874 26874
" />
<path d="M7874 26874
L22874 26874
" />
<path d="M7874 7874
L22874 7874
" />
<path d="M7874 7874
L7874 26874
" />
</g>
<g style="fill:#000000; fill-opacity:1.0; 
stroke:#000000; stroke-width:0; stroke-opacity:1; 
stroke-linecap:round; stroke-linejoin:round;">
<path style="fill:#000000; fill-opacity:1.0; 
stroke:#000000; stroke-width:0; stroke-opacity:1; 
stroke-linecap:round; stroke-linejoin:round;fill-rule:evenodd;"
d="M 21729.9,24688.6
21826.7,24728.6
21913.9,24786.9
21987.9,24860.9
22046.2,24948.1
22086.3,25044.9
22106.7,25147.6
22106.7,25252.4
22086.3,25355.1
22046.2,25451.9
21987.9,25539.1
21913.9,25613.1
21826.7,25671.4
21826.7,25671.4
21826.7,25671.4
21729.9,25711.4
21627.2,25731.9
21522.4,25731.9
21419.7,25711.4
21322.9,25671.4
21322.9,25671.4
21322.9,25671.4
21235.7,25613.1
21161.7,25539.1
21103.4,25451.9
21063.4,25355.1
21042.9,25252.4
21042.9,25147.6
21063.4,25044.9
21103.4,24948.1
21161.7,24860.9
21235.7,24786.9
21322.9,24728.6
21419.7,24688.6
21522.4,24668.1
21627.2,24668.1
Z" /> 
<path style="fill:#000000; fill-opacity:1.0; 
stroke:#000000; stroke-width:0; stroke-opacity:1; 
stroke-linecap:round; stroke-linejoin:round;fill-rule:evenodd;"
d="M 20352,24688.6
20448.8,24728.6
20535.9,24786.9
20610,24860.9
20668.2,24948.1
20708.3,25044.9
20728.7,25147.6
20728.7,25252.4
20708.3,25355.1
20668.2,25451.9
20610,25539.1
20535.9,25613.1
20448.8,25671.4
20448.8,25671.4
20448.8,25671.4
20352,25711.4
20249.2,25731.9
20144.5,25731.9
20041.7,25711.4
19944.9,25671.4
19944.9,25671.4
19944.9,25671.4
19857.8,25613.1
19783.7,25539.1
19725.5,25451.9
19685.4,25355.1
19665,25252.4
19665,25147.6
19685.4,25044.9
19725.5,24948.1
19783.7,24860.9
19857.8,24786.9
19944.9,24728.6
20041.7,24688.6
20144.5,24668.1
20249.2,24668.1
Z" /> 
<path style="fill:#000000; fill-opacity:1.0; 
stroke:#000000; stroke-width:0; stroke-opacity:1; 
stroke-linecap:round; stroke-linejoin:round;fill-rule:evenodd;"
d="M 18974,24688.6
19070.8,24728.6
19158,24786.9
19232,24860.9
19290.3,24948.1
19330.3,25044.9
19350.8,25147.6
19350.8,25252.4
19330.3,25355.1
19290.3,25451.9
19232,25539.1
19158,25613.1
19070.8,25671.4
19070.8,25671.4
19070.8,25671.4
18974,25711.4
18871.3,25731.9
18766.5,25731.9
18663.8,25711.4
18567,25671.4
18567,25671.4
18567,25671.4
18479.8,25613.1
18405.8,25539.1
18347.5,25451.9
18307.4,25355.1
18287,25252.4
18287,25147.6
18307.4,25044.9
18347.5,24948.1
18405.8,24860.9
18479.8,24786.9
18567,24728.6
18663.8,24688.6
18766.5,24668.1
18871.3,24668.1
Z" /> 
<path style="fill:#000000; fill-opacity:1.0; 
stroke:#000000; stroke-width:0; stroke-opacity:1; 
stroke-linecap:round; stroke-linejoin:round;fill-rule:evenodd;"
d="M 17596.1,24688.6
17692.9,24728.6
17780,24786.9
17854.1,24860.9
17912.3,24948.1
17952.4,25044.9
17972.8,25147.6
17972.8,25252.4
17952.4,25355.1
17912.3,25451.9
17854.1,25539.1
17780,25613.1
17692.9,25671.4
17692.9,25671.4
17692.9,25671.4
17596.1,25711.4
17493.3,25731.9
17388.6,25731.9
17285.8,25711.4
17189,25671.4
17189,25671.4
17189,25671.4
17101.9,25613.1
17027.8,25539.1
16969.6,25451.9
16929.5,25355.1
16909.1,25252.4
16909.1,25147.6
16929.5,25044.9
16969.6,24948.1
17027.8,24860.9
17101.9,24786.9
17189,24728.6
17285.8,24688.6
17388.6,24668.1
17493.3,24668.1
Z" /> 
<path style="fill:#000000; fill-opacity:1.0; 
stroke:#000000; stroke-width:0; stroke-opacity:1; 
stroke-linecap:round; stroke-linejoin:round;fill-rule:evenodd;"
d="M 16218.1,24688.6
16314.9,24728.6
16402.1,24786.9
16476.1,24860.9
16534.3,24948.1
16574.4,25044.9
16594.9,25147.6
16594.9,25252.4
16574.4,25355.1
16534.3,25451.9
16476.1,25539.1
16402.1,25613.1
16314.9,25671.4
16314.9,25671.4
16314.9,25671.4
16218.1,25711.4
16115.4,25731.9
16010.6,25731.9
15907.8,25711.4
15811,25671.4
15811,25671.4
15811,25671.4
15723.9,25613.1
15649.8,25539.1
15591.6,25451.9
15551.5,25355.1
15531.1,25252.4
15531.1,25147.6
15551.5,25044.9
15591.6,24948.1
15649.8,24860.9
15723.9,24786.9
15811,24728.6
15907.8,24688.6
16010.6,24668.1
16115.4,24668.1
Z" /> 
<path style="fill:#000000; fill-opacity:1.0; 
stroke:#000000; stroke-width:0; stroke-opacity:1; 
stroke-linecap:round; stroke-linejoin:round;fill-rule:evenodd;"
d="M 14840.2,24688.6
14937,24728.6
15024.1,24786.9
15098.2,24860.9
15156.4,24948.1
15196.5,25044.9
15216.9,25147.6
15216.9,25252.4
15196.5,25355.1
15156.4,25451.9
15098.2,25539.1
15024.1,25613.1
14937,25671.4
14937,25671.4
14937,25671.4
14840.2,25711.4
14737.4,25731.9
14632.7,25731.9
14529.9,25711.4
14433.1,25671.4
14433.1,25671.4
14433.1,25671.4
14346,25613.1
14271.9,25539.1
14213.7,25451.9
14173.6,25355.1
14153.1,25252.4
14153.1,25147.6
14173.6,25044.9
14213.7,24948.1
14271.9,24860.9
14346,24786.9
14433.1,24728.6
14529.9,24688.6
14632.7,24668.1
14737.4,24668.1
Z" /> 
<path style="fill:#000000; fill-opacity:1.0; 
stroke:#000000; stroke-width:0; stroke-opacity:1; 
stroke-linecap:round; stroke-linejoin:round;fill-rule:evenodd;"
d="M 12084.3,24688.6
12181.1,24728.6
12268.2,24786.9
12342.3,24860.9
12400.5,24948.1
12440.6,25044.9
12461,25147.6
12461,25252.4
12440.6,25355.1
12400.5,25451.9
12342.3,25539.1
12268.2,25613.1
12181.1,25671.4
12181.1,25671.4
12181.1,25671.4
12084.3,25711.4
11981.5,25731.9
11876.7,25731.9
11774,25711.4
11677.2,25671.4
11677.2,25671.4
11677.2,25671.4
11590.1,25613.1
11516,25539.1
11457.8,25451.9
11417.7,25355.1
11397.2,25252.4
11397.2,25147.6
11417.7,25044.9
11457.8,24948.1
11516,24860.9
11590.1,24786.9
11677.2,24728.6
11774,24688.6
11876.7,24668.1
11981.5,24668.1
Z" /> 
<path style="fill:#000000; fill-opacity:1.0; 
stroke:#000000; stroke-width:0; stroke-opacity:1; 
stroke-linecap:round; stroke-linejoin:round;fill-rule:evenodd;"
d="M 10706.3,24688.6
10803.1,24728.6
10890.2,24786.9
10964.3,24860.9
11022.5,24948.1
11062.6,25044.9
11083.1,25147.6
11083.1,25252.4
11062.6,25355.1
11022.5,25451.9
10964.3,25539.1
10890.2,25613.1
10803.1,25671.4
10803.1,25671.4
10803.1,25671.4
10706.3,25711.4
10603.6,25731.9
10498.8,25731.9
10396,25711.4
10299.2,25671.4
10299.2,25671.4
10299.2,25671.4
10212.1,25613.1
10138,25539.1
10079.8,25451.9
10039.7,25355.1
10019.3,25252.4
10019.3,25147.6
10039.7,25044.9
10079.8,24948.1
10138,24860.9
10212.1,24786.9
10299.2,24728.6
10396,24688.6
10498.8,24668.1
10603.6,24668.1
Z" /> 
<path style="fill:#000000; fill-opacity:1.0; 
stroke:#000000; stroke-width:0; stroke-opacity:1; 
stroke-linecap:round; stroke-linejoin:round;fill-rule:evenodd;"
d="M 9705.12,25731.9
8641.34,25731.9
8641.34,24668.1
9705.12,24668.1
Z" /> 
<path style="fill:#000000; fill-opacity:1.0; 
stroke:#000000; stroke-width:0; stroke-opacity:1; 
stroke-linecap:round; stroke-linejoin:round;fill-rule:evenodd;"
d="M 13462.2,24688.6
13559,24728.6
13646.1,24786.9
13720.2,24860.9
13778.4,24948.1
13818.5,25044.9
13839,25147.6
13839,25252.4
13818.5,25355.1
13778.4,25451.9
13720.2,25539.1
13646.1,25613.1
13559,25671.4
13559,25671.4
13559,25671.4
13462.2,25711.4
13359.5,25731.9
13254.7,25731.9
13151.9,25711.4
13055.1,25671.4
13055.1,25671.4
13055.1,25671.4
12968,25613.1
12893.9,25539.1
12835.7,25451.9
12795.6,25355.1
12775.2,25252.4
12775.2,25147.6
12795.6,25044.9
12835.7,24948.1
12893.9,24860.9
12968,24786.9
13055.1,24728.6
13151.9,24688.6
13254.7,24668.1
13359.5,24668.1
Z" /> 
<path style="fill:#000000; fill-opacity:1.0; 
stroke:#000000; stroke-width:0; stroke-opacity:1; 
stroke-linecap:round; stroke-linejoin:round;fill-rule:evenodd;"
d="M 15918.7,22521.2
15977.5,22532.9
16042,22559.7
16100.1,22598.5
16149.5,22647.9
16188.4,22706
16215.1,22770.5
16228.7,22839.1
16228.7,22909
16215.1,22977.5
16188.4,23042
16149.5,23100.1
16100.1,23149.5
16042,23188.4
15977.5,23215.1
15918.7,23226.8
15909,23228.7
15839.1,23228.7
15829.3,23226.8
15770.5,23215.1
15706,23188.4
15647.9,23149.5
15598.5,23100.1
15559.7,23042
15532.9,22977.5
15519.3,22909
15519.3,22839.1
15532.9,22770.5
15559.7,22706
15598.5,22647.9
15647.9,22598.5
15706,22559.7
15770.5,22532.9
15829.3,22521.2
15839.1,22519.3
15909,22519.3
Z" /> 
<path style="fill:#000000; fill-opacity:1.0; 
stroke:#000000; stroke-width:0; stroke-opacity:1; 
stroke-linecap:round; stroke-linejoin:round;fill-rule:evenodd;"
d="M 14918.7,22521.2
14977.5,22532.9
15042,22559.7
15100.1,22598.5
15149.5,22647.9
15188.4,22706
15215.1,22770.5
15228.7,22839.1
15228.7,22909
15215.1,22977.5
15188.4,23042
15149.5,23100.1
15100.1,23149.5
15042,23188.4
14977.5,23215.1
14918.7,23226.8
14909,23228.7
14839.1,23228.7
14829.3,23226.8
14770.5,23215.1
14706,23188.4
14647.9,23149.5
14598.5,23100.1
14559.7,23042
14532.9,22977.5
14519.3,22909
14519.3,22839.1
14532.9,22770.5
14559.7,22706
14598.5,22647.9
14647.9,22598.5
14706,22559.7
14770.5,22532.9
14829.3,22521.2
14839.1,22519.3
14909,22519.3
Z" /> 
<path style="fill:#000000; fill-opacity:1.0; 
stroke:#000000; stroke-width:0; stroke-opacity:1; 
stroke-linecap:round; stroke-linejoin:round;fill-rule:evenodd;"
d="M 13918.7,22521.2
13977.5,22532.9
14042,22559.7
14100.1,22598.5
14149.5,22647.9
14188.4,22706
14215.1,22770.5
14228.7,22839.1
14228.7,22909
14215.1,22977.5
14188.4,23042
14149.5,23100.1
14100.1,23149.5
14042,23188.4
13977.5,23215.1
13918.7,23226.8
13909,23228.7
13839.1,23228.7
13829.3,23226.8
13770.5,23215.1
13706,23188.4
13647.9,23149.5
13598.5,23100.1
13559.7,23042
13532.9,22977.5
13519.3,22909
13519.3,22839.1
13532.9,22770.5
13559.7,22706
13598.5,22647.9
13647.9,22598.5
13706,22559.7
13770.5,22532.9
13829.3,22521.2
13839.1,22519.3
13909,22519.3
Z" /> 
<path style="fill:#000000; fill-opacity:1.0; 
stroke:#000000; stroke-width:0; stroke-opacity:1; 
stroke-linecap:round; stroke-linejoin:round;fill-rule:evenodd;"
d="M 12918.7,22521.2
12977.5,22532.9
13042,22559.7
13100.1,22598.5
13149.5,22647.9
13188.4,22706
13215.1,22770.5
13228.7,22839.1
13228.7,22909
13215.1,22977.5
13188.4,23042
13149.5,23100.1
13100.1,23149.5
13042,23188.4
12977.5,23215.1
12918.7,23226.8
12909,23228.7
12839.1,23228.7
12829.3,23226.8
12770.5,23215.1
12706,23188.4
12647.9,23149.5
12598.5,23100.1
12559.7,23042
12532.9,22977.5
12519.3,22909
12519.3,22839.1
12532.9,22770.5
12559.7,22706
12598.5,22647.9
12647.9,22598.5
12706,22559.7
12770.5,22532.9
12829.3,22521.2
12839.1,22519.3
12909,22519.3
Z" /> 
<path style="fill:#000000; fill-opacity:1.0; 
stroke:#000000; stroke-width:0; stroke-opacity:1; 
stroke-linecap:round; stroke-linejoin:round;fill-rule:evenodd;"
d="M 11918.7,22521.2
11977.5,22532.9
12042,22559.7
12100.1,22598.5
12149.5,22647.9
12188.4,22706
12215.1,22770.5
12228.7,22839.1
12228.7,22909
12215.1,22977.5
12188.4,23042
12149.5,23100.1
12100.1,23149.5
12042,23188.4
11977.5,23215.1
11918.7,23226.8
11909,23228.7
11839.1,23228.7
11829.3,23226.8
11770.5,23215.1
11706,23188.4
11647.9,23149.5
11598.5,23100.1
11559.7,23042
11532.9,22977.5
11519.3,22909
11519.3,22839.1
11532.9,22770.5
11559.7,22706
11598.5,22647.9
11647.9,22598.5
11706,22559.7
11770.5,22532.9
11829.3,22521.2
11839.1,22519.3
11909,22519.3
Z" /> 
<path style="fill:#000000; fill-opacity:1.0; 
stroke:#000000; stroke-width:0; stroke-opacity:1; 
stroke-linecap:round; stroke-linejoin:round;fill-rule:evenodd;"
d="M 17918.7,22521.2
17977.5,22532.9
18042,22559.7
18100.1,22598.5
18149.5,22647.9
18188.4,22706
18215.1,22770.5
18228.7,22839.1
18228.7,22909
18215.1,22977.5
18188.4,23042
18149.5,23100.1
18100.1,23149.5
18042,23188.4
17977.5,23215.1
17918.7,23226.8
17909,23228.7
17839.1,23228.7
17829.3,23226.8
17770.5,23215.1
17706,23188.4
17647.9,23149.5
17598.5,23100.1
17559.7,23042
17532.9,22977.5
17519.3,22909
17519.3,22839.1
17532.9,22770.5
17559.7,22706
17598.5,22647.9
17647.9,22598.5
17706,22559.7
17770.5,22532.9
17829.3,22521.2
17839.1,22519.3
17909,22519.3
Z" /> 
<path style="fill:#000000; fill-opacity:1.0; 
stroke:#000000; stroke-width:0; stroke-opacity:1; 
stroke-linecap:round; stroke-linejoin:round;fill-rule:evenodd;"
d="M 18918.7,22521.2
18977.5,22532.9
19042,22559.7
19100.1,22598.5
19149.5,22647.9
19188.4,22706
19215.1,22770.5
19228.7,22839.1
19228.7,22909
19215.1,22977.5
19188.4,23042
19149.5,23100.1
19100.1,23149.5
19042,23188.4
18977.5,23215.1
18918.7,23226.8
18909,23228.7
18839.1,23228.7
18829.3,23226.8
18770.5,23215.1
18706,23188.4
18647.9,23149.5
18598.5,23100.1
18559.7,23042
18532.9,22977.5
18519.3,22909
18519.3,22839.1
18532.9,22770.5
18559.7,22706
18598.5,22647.9
18647.9,22598.5
18706,22559.7
18770.5,22532.9
18829.3,22521.2
18839.1,22519.3
18909,22519.3
Z" /> 
<path style="fill:#000000; fill-opacity:1.0; 
stroke:#000000; stroke-width:0; stroke-opacity:1; 
stroke-linecap:round; stroke-linejoin:round;fill-rule:evenodd;"
d="M 16918.7,22521.2
16977.5,22532.9
17042,22559.7
17100.1,22598.5
17149.5,22647.9
17188.4,22706
17215.1,22770.5
17228.7,22839.1
17228.7,22909
17215.1,22977.5
17188.4,23042
17149.5,23100.1
17100.1,23149.5
17042,23188.4
16977.5,23215.1
16918.7,23226.8
16909,23228.7
16839.1,23228.7
16829.3,23226.8
16770.5,23215.1
16706,23188.4
16647.9,23149.5
16598.5,23100.1
16559.7,23042
16532.9,22977.5
16519.3,22909
16519.3,22839.1
16532.9,22770.5
16559.7,22706
16598.5,22647.9
16647.9,22598.5
16706,22559.7
16770.5,22532.9
16829.3,22521.2
16839.1,22519.3
16909,22519.3
Z" /> 
<path style="fill:#000000; fill-opacity:1.0; 
stroke:#000000; stroke-width:0; stroke-opacity:1; 
stroke-linecap:round; stroke-linejoin:round;fill-rule:evenodd;"
d="M 19918.7,22521.2
19977.5,22532.9
20042,22559.7
20100.1,22598.5
20149.5,22647.9
20188.4,22706
20215.1,22770.5
20228.7,22839.1
20228.7,22909
20215.1,22977.5
20188.4,23042
20149.5,23100.1
20100.1,23149.5
20042,23188.4
19977.5,23215.1
19918.7,23226.8
19909,23228.7
19839.1,23228.7
19829.3,23226.8
19770.5,23215.1
19706,23188.4
19647.9,23149.5
19598.5,23100.1
19559.7,23042
19532.9,22977.5
19519.3,22909
19519.3,22839.1
19532.9,22770.5
19559.7,22706
19598.5,22647.9
19647.9,22598.5
19706,22559.7
19770.5,22532.9
19829.3,22521.2
19839.1,22519.3
19909,22519.3
Z" /> 
<path style="fill:#000000; fill-opacity:1.0; 
stroke:#000000; stroke-width:0; stroke-opacity:1; 
stroke-linecap:round; stroke-linejoin:round;fill-rule:evenodd;"
d="M 11228.7,23228.7
10519.3,23228.7
10519.3,22519.3
11228.7,22519.3
Z" /> 
<path style="fill:#000000; fill-opacity:1.0; 
stroke:#000000; stroke-width:0; stroke-opacity:1; 
stroke-linecap:round; stroke-linejoin:round;fill-rule:evenodd;"
d="M 15918.7,21521.2
15977.5,21532.9
16042,21559.7
16100.1,21598.5
16149.5,21647.9
16188.4,21706
16215.1,21770.5
16228.7,21839.1
16228.7,21909
16215.1,21977.5
16188.4,22042
16149.5,22100.1
16100.1,22149.5
16042,22188.4
15977.5,22215.1
15918.7,22226.8
15909,22228.7
15839.1,22228.7
15829.3,22226.8
15770.5,22215.1
15706,22188.4
15647.9,22149.5
15598.5,22100.1
15559.7,22042
15532.9,21977.5
15519.3,21909
15519.3,21839.1
15532.9,21770.5
15559.7,21706
15598.5,21647.9
15647.9,21598.5
15706,21559.7
15770.5,21532.9
15829.3,21521.2
15839.1,21519.3
15909,21519.3
Z" /> 
<path style="fill:#000000; fill-opacity:1.0; 
stroke:#000000; stroke-width:0; stroke-opacity:1; 
stroke-linecap:round; stroke-linejoin:round;fill-rule:evenodd;"
d="M 11228.7,22228.7
10519.3,22228.7
10519.3,21519.3
11228.7,21519.3
Z" /> 
<path style="fill:#000000; fill-opacity:1.0; 
stroke:#000000; stroke-width:0; stroke-opacity:1; 
stroke-linecap:round; stroke-linejoin:round;fill-rule:evenodd;"
d="M 11918.7,21521.2
11977.5,21532.9
12042,21559.7
12100.1,21598.5
12149.5,21647.9
12188.4,21706
12215.1,21770.5
12228.7,21839.1
12228.7,21909
12215.1,21977.5
12188.4,22042
12149.5,22100.1
12100.1,22149.5
12042,22188.4
11977.5,22215.1
11918.7,22226.8
11909,22228.7
11839.1,22228.7
11829.3,22226.8
11770.5,22215.1
11706,22188.4
11647.9,22149.5
11598.5,22100.1
11559.7,22042
11532.9,21977.5
11519.3,21909
11519.3,21839.1
11532.9,21770.5
11559.7,21706
11598.5,21647.9
11647.9,21598.5
11706,21559.7
11770.5,21532.9
11829.3,21521.2
11839.1,21519.3
11909,21519.3
Z" /> 
<path style="fill:#000000; fill-opacity:1.0; 
stroke:#000000; stroke-width:0; stroke-opacity:1; 
stroke-linecap:round; stroke-linejoin:round;fill-rule:evenodd;"
d="M 12918.7,21521.2
12977.5,21532.9
13042,21559.7
13100.1,21598.5
13149.5,21647.9
13188.4,21706
13215.1,21770.5
13228.7,21839.1
13228.7,21909
13215.1,21977.5
13188.4,22042
13149.5,22100.1
13100.1,22149.5
13042,22188.4
12977.5,22215.1
12918.7,22226.8
12909,22228.7
12839.1,22228.7
12829.3,22226.8
12770.5,22215.1
12706,22188.4
12647.9,22149.5
12598.5,22100.1
12559.7,22042
12532.9,21977.5
12519.3,21909
12519.3,21839.1
12532.9,21770.5
12559.7,21706
12598.5,21647.9
12647.9,21598.5
12706,21559.7
12770.5,21532.9
12829.3,21521.2
12839.1,21519.3
12909,21519.3
Z" /> 
<path style="fill:#000000; fill-opacity:1.0; 
stroke:#000000; stroke-width:0; stroke-opacity:1; 
stroke-linecap:round; stroke-linejoin:round;fill-rule:evenodd;"
d="M 13918.7,21521.2
13977.5,21532.9
14042,21559.7
14100.1,21598.5
14149.5,21647.9
14188.4,21706
14215.1,21770.5
14228.7,21839.1
14228.7,21909
14215.1,21977.5
14188.4,22042
14149.5,22100.1
14100.1,22149.5
14042,22188.4
13977.5,22215.1
13918.7,22226.8
13909,22228.7
13839.1,22228.7
13829.3,22226.8
13770.5,22215.1
13706,22188.4
13647.9,22149.5
13598.5,22100.1
13559.7,22042
13532.9,21977.5
13519.3,21909
13519.3,21839.1
13532.9,21770.5
13559.7,21706
13598.5,21647.9
13647.9,21598.5
13706,21559.7
13770.5,21532.9
13829.3,21521.2
13839.1,21519.3
13909,21519.3
Z" /> 
<path style="fill:#000000; fill-opacity:1.0; 
stroke:#000000; stroke-width:0; stroke-opacity:1; 
stroke-linecap:round; stroke-linejoin:round;fill-rule:evenodd;"
d="M 14918.7,21521.2
14977.5,21532.9
15042,21559.7
15100.1,21598.5
15149.5,21647.9
15188.4,21706
15215.1,21770.5
15228.7,21839.1
15228.7,21909
15215.1,21977.5
15188.4,22042
15149.5,22100.1
15100.1,22149.5
15042,22188.4
14977.5,22215.1
14918.7,22226.8
14909,22228.7
14839.1,22228.7
14829.3,22226.8
14770.5,22215.1
14706,22188.4
14647.9,22149.5
14598.5,22100.1
14559.7,22042
14532.9,21977.5
14519.3,21909
14519.3,21839.1
14532.9,21770.5
14559.7,21706
14598.5,21647.9
14647.9,21598.5
14706,21559.7
14770.5,21532.9
14829.3,21521.2
14839.1,21519.3
14909,21519.3
Z" /> 
<path style="fill:#000000; fill-opacity:1.0; 
stroke:#000000; stroke-width:0; stroke-opacity:1; 
stroke-linecap:round; stroke-linejoin:round;fill-rule:evenodd;"
d="M 16918.7,21521.2
16977.5,21532.9
17042,21559.7
17100.1,21598.5
17149.5,21647.9
17188.4,21706
17215.1,21770.5
17228.7,21839.1
17228.7,21909
17215.1,21977.5
17188.4,22042
17149.5,22100.1
17100.1,22149.5
17042,22188.4
16977.5,22215.1
16918.7,22226.8
16909,22228.7
16839.1,22228.7
16829.3,22226.8
16770.5,22215.1
16706,22188.4
16647.9,22149.5
16598.5,22100.1
16559.7,22042
16532.9,21977.5
16519.3,21909
16519.3,21839.1
16532.9,21770.5
16559.7,21706
16598.5,21647.9
16647.9,21598.5
16706,21559.7
16770.5,21532.9
16829.3,21521.2
16839.1,21519.3
16909,21519.3
Z" /> 
<path style="fill:#000000; fill-opacity:1.0; 
stroke:#000000; stroke-width:0; stroke-opacity:1; 
stroke-linecap:round; stroke-linejoin:round;fill-rule:evenodd;"
d="M 17918.7,21521.2
17977.5,21532.9
18042,21559.7
18100.1,21598.5
18149.5,21647.9
18188.4,21706
18215.1,21770.5
18228.7,21839.1
18228.7,21909
18215.1,21977.5
18188.4,22042
18149.5,22100.1
18100.1,22149.5
18042,22188.4
17977.5,22215.1
17918.7,22226.8
17909,22228.7
17839.1,22228.7
17829.3,22226.8
17770.5,22215.1
17706,22188.4
17647.9,22149.5
17598.5,22100.1
17559.7,22042
17532.9,21977.5
17519.3,21909
17519.3,21839.1
17532.9,21770.5
17559.7,21706
17598.5,21647.9
17647.9,21598.5
17706,21559.7
17770.5,21532.9
17829.3,21521.2
17839.1,21519.3
17909,21519.3
Z" /> 
<path style="fill:#000000; fill-opacity:1.0; 
stroke:#000000; stroke-width:0; stroke-opacity:1; 
stroke-linecap:round; stroke-linejoin:round;fill-rule:evenodd;"
d="M 18918.7,21521.2
18977.5,21532.9
19042,21559.7
19100.1,21598.5
19149.5,21647.9
19188.4,21706
19215.1,21770.5
19228.7,21839.1
19228.7,21909
19215.1,21977.5
19188.4,22042
19149.5,22100.1
19100.1,22149.5
19042,22188.4
18977.5,22215.1
18918.7,22226.8
18909,22228.7
18839.1,22228.7
18829.3,22226.8
18770.5,22215.1
18706,22188.4
18647.9,22149.5
18598.5,22100.1
18559.7,22042
18532.9,21977.5
18519.3,21909
18519.3,21839.1
18532.9,21770.5
18559.7,21706
18598.5,21647.9
18647.9,21598.5
18706,21559.7
18770.5,21532.9
18829.3,21521.2
18839.1,21519.3
18909,21519.3
Z" /> 
<path style="fill:#000000; fill-opacity:1.0; 
stroke:#000000; stroke-width:0; stroke-opacity:1; 
stroke-linecap:round; stroke-linejoin:round;fill-rule:evenodd;"
d="M 19918.7,21521.2
19977.5,21532.9
20042,21559.7
20100.1,21598.5
20149.5,21647.9
20188.4,21706
20215.1,21770.5
20228.7,21839.1
20228.7,21909
20215.1,21977.5
20188.4,22042
20149.5,22100.1
20100.1,22149.5
20042,22188.4
19977.5,22215.1
19918.7,22226.8
19909,22228.7
19839.1,22228.7
19829.3,22226.8
19770.5,22215.1
19706,22188.4
19647.9,22149.5
19598.5,22100.1
19559.7,22042
19532.9,21977.5
19519.3,21909
19519.3,21839.1
19532.9,21770.5
19559.7,21706
19598.5,21647.9
19647.9,21598.5
19706,21559.7
19770.5,21532.9
19829.3,21521.2
19839.1,21519.3
19909,21519.3
Z" /> 
<path style="fill:#000000; fill-opacity:1.0; 
stroke:#000000; stroke-width:0; stroke-opacity:1; 
stroke-linecap:round; stroke-linejoin:round;fill-rule:evenodd;"
d="M 9493.14,20775.1
9552.13,20786.9
9663.26,20832.9
9763.27,20899.7
9848.32,20984.8
9915.15,21084.8
9961.18,21195.9
9984.65,21313.9
9984.65,21434.2
9961.18,21552.1
9915.15,21663.3
9848.32,21763.3
9763.27,21848.3
9663.26,21915.1
9552.13,21961.2
9493.14,21972.9
9434.16,21984.6
9313.87,21984.6
9254.89,21972.9
9195.9,21961.2
9084.77,21915.1
8984.76,21848.3
8899.71,21763.3
8832.88,21663.3
8786.85,21552.1
8763.39,21434.2
8763.39,21313.9
8786.85,21195.9
8832.88,21084.8
8899.71,20984.8
8984.76,20899.7
9084.77,20832.9
9195.9,20786.9
9254.89,20775.1
9313.87,20763.4
9434.16,20763.4
Z" /> 
<path style="fill:#000000; fill-opacity:1.0; 
stroke:#000000; stroke-width:0; stroke-opacity:1; 
stroke-linecap:round; stroke-linejoin:round;fill-rule:evenodd;"
d="M 21493.1,20775.1
21552.1,20786.9
21663.3,20832.9
21763.3,20899.7
21848.3,20984.8
21915.1,21084.8
21961.2,21195.9
21984.6,21313.9
21984.6,21434.2
21961.2,21552.1
21915.1,21663.3
21848.3,21763.3
21763.3,21848.3
21663.3,21915.1
21552.1,21961.2
21493.1,21972.9
21434.2,21984.6
21313.9,21984.6
21254.9,21972.9
21195.9,21961.2
21084.8,21915.1
20984.8,21848.3
20899.7,21763.3
20832.9,21663.3
20786.9,21552.1
20763.4,21434.2
20763.4,21313.9
20786.9,21195.9
20832.9,21084.8
20899.7,20984.8
20984.8,20899.7
21084.8,20832.9
21195.9,20786.9
21254.9,20775.1
21313.9,20763.4
21434.2,20763.4
Z" /> 
<path style="fill:#000000; fill-opacity:1.0; 
stroke:#000000; stroke-width:0; stroke-opacity:1; 
stroke-linecap:round; stroke-linejoin:round;fill-rule:evenodd;"
d="M 9523.38,16881.6
9616.58,16920.2
9616.58,16920.2
9700.45,16976.3
9771.77,17047.6
9827.81,17131.5
9827.81,17131.5
9866.42,17224.6
9886.09,17323.6
9886.09,17424.5
9866.42,17523.4
9827.81,17616.6
9827.81,17616.6
9771.77,17700.4
9700.45,17771.8
9616.58,17827.8
9616.58,17827.8
9616.58,17827.8
9523.38,17866.4
9424.45,17886.1
9323.58,17886.1
9224.65,17866.4
9131.46,17827.8
9131.46,17827.8
9131.46,17827.8
9047.58,17771.8
8976.26,17700.4
8920.22,17616.6
8920.22,17616.6
8881.62,17523.4
8861.94,17424.5
8861.94,17323.6
8881.62,17224.6
8920.22,17131.5
8920.22,17131.5
8976.26,17047.6
9047.58,16976.3
9131.46,16920.2
9131.46,16920.2
9224.65,16881.6
9323.58,16861.9
9424.45,16861.9
Z" /> 
<path style="fill:#000000; fill-opacity:1.0; 
stroke:#000000; stroke-width:0; stroke-opacity:1; 
stroke-linecap:round; stroke-linejoin:round;fill-rule:evenodd;"
d="M 21523.4,16881.6
21616.6,16920.2
21616.6,16920.2
21700.4,16976.3
21771.8,17047.6
21827.8,17131.5
21827.8,17131.5
21866.4,17224.6
21886.1,17323.6
21886.1,17424.5
21866.4,17523.4
21827.8,17616.6
21827.8,17616.6
21771.8,17700.4
21700.4,17771.8
21616.6,17827.8
21616.6,17827.8
21616.6,17827.8
21523.4,17866.4
21424.5,17886.1
21323.6,17886.1
21224.6,17866.4
21131.5,17827.8
21131.5,17827.8
21131.5,17827.8
21047.6,17771.8
20976.3,17700.4
20920.2,17616.6
20920.2,17616.6
20881.6,17523.4
20861.9,17424.5
20861.9,17323.6
20881.6,17224.6
20920.2,17131.5
20920.2,17131.5
20976.3,17047.6
21047.6,16976.3
21131.5,16920.2
21131.5,16920.2
21224.6,16881.6
21323.6,16861.9
21424.5,16861.9
Z" /> 
<path style="fill:#000000; fill-opacity:1.0; 
stroke:#000000; stroke-width:0; stroke-opacity:1; 
stroke-linecap:round; stroke-linejoin:round;fill-rule:evenodd;"
d="M 21493.1,12775.1
21552.1,12786.9
21663.3,12832.9
21763.3,12899.7
21848.3,12984.8
21915.1,13084.8
21961.2,13195.9
21984.6,13313.9
21984.6,13434.2
21961.2,13552.1
21915.1,13663.3
21848.3,13763.3
21763.3,13848.3
21663.3,13915.1
21552.1,13961.2
21493.1,13972.9
21434.2,13984.6
21313.9,13984.6
21254.9,13972.9
21195.9,13961.2
21084.8,13915.1
20984.8,13848.3
20899.7,13763.3
20832.9,13663.3
20786.9,13552.1
20763.4,13434.2
20763.4,13313.9
20786.9,13195.9
20832.9,13084.8
20899.7,12984.8
20984.8,12899.7
21084.8,12832.9
21195.9,12786.9
21254.9,12775.1
21313.9,12763.4
21434.2,12763.4
Z" /> 
<path style="fill:#000000; fill-opacity:1.0; 
stroke:#000000; stroke-width:0; stroke-opacity:1; 
stroke-linecap:round; stroke-linejoin:round;fill-rule:evenodd;"
d="M 9493.14,12775.1
9552.13,12786.9
9663.26,12832.9
9763.27,12899.7
9848.32,12984.8
9915.15,13084.8
9961.18,13195.9
9984.65,13313.9
9984.65,13434.2
9961.18,13552.1
9915.15,13663.3
9848.32,13763.3
9763.27,13848.3
9663.26,13915.1
9552.13,13961.2
9493.14,13972.9
9434.16,13984.6
9313.87,13984.6
9254.89,13972.9
9195.9,13961.2
9084.77,13915.1
8984.76,13848.3
8899.71,13763.3
8832.88,13663.3
8786.85,13552.1
8763.39,13434.2
8763.39,13313.9
8786.85,13195.9
8832.88,13084.8
8899.71,12984.8
8984.76,12899.7
9084.77,12832.9
9195.9,12786.9
9254.89,12775.1
9313.87,12763.4
9434.16,12763.4
Z" /> 
<path style="fill:#000000; fill-opacity:1.0; 
stroke:#000000; stroke-width:0; stroke-opacity:1; 
stroke-linecap:round; stroke-linejoin:round;fill-rule:evenodd;"
d="M 16918.7,12521.2
16977.5,12532.9
17042,12559.7
17100.1,12598.5
17149.5,12647.9
17188.4,12706
17215.1,12770.5
17228.7,12839.1
17228.7,12909
17215.1,12977.5
17188.4,13042
17149.5,13100.1
17100.1,13149.5
17042,13188.4
16977.5,13215.1
16918.7,13226.8
16909,13228.7
16839.1,13228.7
16829.3,13226.8
16770.5,13215.1
16706,13188.4
16647.9,13149.5
16598.5,13100.1
16559.7,13042
16532.9,12977.5
16519.3,12909
16519.3,12839.1
16532.9,12770.5
16559.7,12706
16598.5,12647.9
16647.9,12598.5
16706,12559.7
16770.5,12532.9
16829.3,12521.2
16839.1,12519.3
16909,12519.3
Z" /> 
<path style="fill:#000000; fill-opacity:1.0; 
stroke:#000000; stroke-width:0; stroke-opacity:1; 
stroke-linecap:round; stroke-linejoin:round;fill-rule:evenodd;"
d="M 20228.7,13228.7
19519.3,13228.7
19519.3,12519.3
20228.7,12519.3
Z" /> 
<path style="fill:#000000; fill-opacity:1.0; 
stroke:#000000; stroke-width:0; stroke-opacity:1; 
stroke-linecap:round; stroke-linejoin:round;fill-rule:evenodd;"
d="M 18918.7,12521.2
18977.5,12532.9
19042,12559.7
19100.1,12598.5
19149.5,12647.9
19188.4,12706
19215.1,12770.5
19228.7,12839.1
19228.7,12909
19215.1,12977.5
19188.4,13042
19149.5,13100.1
19100.1,13149.5
19042,13188.4
18977.5,13215.1
18918.7,13226.8
18909,13228.7
18839.1,13228.7
18829.3,13226.8
18770.5,13215.1
18706,13188.4
18647.9,13149.5
18598.5,13100.1
18559.7,13042
18532.9,12977.5
18519.3,12909
18519.3,12839.1
18532.9,12770.5
18559.7,12706
18598.5,12647.9
18647.9,12598.5
18706,12559.7
18770.5,12532.9
18829.3,12521.2
18839.1,12519.3
18909,12519.3
Z" /> 
<path style="fill:#000000; fill-opacity:1.0; 
stroke:#000000; stroke-width:0; stroke-opacity:1; 
stroke-linecap:round; stroke-linejoin:round;fill-rule:evenodd;"
d="M 17918.7,12521.2
17977.5,12532.9
18042,12559.7
18100.1,12598.5
18149.5,12647.9
18188.4,12706
18215.1,12770.5
18228.7,12839.1
18228.7,12909
18215.1,12977.5
18188.4,13042
18149.5,13100.1
18100.1,13149.5
18042,13188.4
17977.5,13215.1
17918.7,13226.8
17909,13228.7
17839.1,13228.7
17829.3,13226.8
17770.5,13215.1
17706,13188.4
17647.9,13149.5
17598.5,13100.1
17559.7,13042
17532.9,12977.5
17519.3,12909
17519.3,12839.1
17532.9,12770.5
17559.7,12706
17598.5,12647.9
17647.9,12598.5
17706,12559.7
17770.5,12532.9
17829.3,12521.2
17839.1,12519.3
17909,12519.3
Z" /> 
<path style="fill:#000000; fill-opacity:1.0; 
stroke:#000000; stroke-width:0; stroke-opacity:1; 
stroke-linecap:round; stroke-linejoin:round;fill-rule:evenodd;"
d="M 15918.7,12521.2
15977.5,12532.9
16042,12559.7
16100.1,12598.5
16149.5,12647.9
16188.4,12706
16215.1,12770.5
16228.7,12839.1
16228.7,12909
16215.1,12977.5
16188.4,13042
16149.5,13100.1
16100.1,13149.5
16042,13188.4
15977.5,13215.1
15918.7,13226.8
15909,13228.7
15839.1,13228.7
15829.3,13226.8
15770.5,13215.1
15706,13188.4
15647.9,13149.5
15598.5,13100.1
15559.7,13042
15532.9,12977.5
15519.3,12909
15519.3,12839.1
15532.9,12770.5
15559.7,12706
15598.5,12647.9
15647.9,12598.5
15706,12559.7
15770.5,12532.9
15829.3,12521.2
15839.1,12519.3
15909,12519.3
Z" /> 
<path style="fill:#000000; fill-opacity:1.0; 
stroke:#000000; stroke-width:0; stroke-opacity:1; 
stroke-linecap:round; stroke-linejoin:round;fill-rule:evenodd;"
d="M 14918.7,12521.2
14977.5,12532.9
15042,12559.7
15100.1,12598.5
15149.5,12647.9
15188.4,12706
15215.1,12770.5
15228.7,12839.1
15228.7,12909
15215.1,12977.5
15188.4,13042
15149.5,13100.1
15100.1,13149.5
15042,13188.4
14977.5,13215.1
14918.7,13226.8
14909,13228.7
14839.1,13228.7
14829.3,13226.8
14770.5,13215.1
14706,13188.4
14647.9,13149.5
14598.5,13100.1
14559.7,13042
14532.9,12977.5
14519.3,12909
14519.3,12839.1
14532.9,12770.5
14559.7,12706
14598.5,12647.9
14647.9,12598.5
14706,12559.7
14770.5,12532.9
14829.3,12521.2
14839.1,12519.3
14909,12519.3
Z" /> 
<path style="fill:#000000; fill-opacity:1.0; 
stroke:#000000; stroke-width:0; stroke-opacity:1; 
stroke-linecap:round; stroke-linejoin:round;fill-rule:evenodd;"
d="M 13918.7,12521.2
13977.5,12532.9
14042,12559.7
14100.1,12598.5
14149.5,12647.9
14188.4,12706
14215.1,12770.5
14228.7,12839.1
14228.7,12909
14215.1,12977.5
14188.4,13042
14149.5,13100.1
14100.1,13149.5
14042,13188.4
13977.5,13215.1
13918.7,13226.8
13909,13228.7
13839.1,13228.7
13829.3,13226.8
13770.5,13215.1
13706,13188.4
13647.9,13149.5
13598.5,13100.1
13559.7,13042
13532.9,12977.5
13519.3,12909
13519.3,12839.1
13532.9,12770.5
13559.7,12706
13598.5,12647.9
13647.9,12598.5
13706,12559.7
13770.5,12532.9
13829.3,12521.2
13839.1,12519.3
13909,12519.3
Z" /> 
<path style="fill:#000000; fill-opacity:1.0; 
stroke:#000000; stroke-width:0; stroke-opacity:1; 
stroke-linecap:round; stroke-linejoin:round;fill-rule:evenodd;"
d="M 12918.7,12521.2
12977.5,12532.9
13042,12559.7
13100.1,12598.5
13149.5,12647.9
13188.4,12706
13215.1,12770.5
13228.7,12839.1
13228.7,12909
13215.1,12977.5
13188.4,13042
13149.5,13100.1
13100.1,13149.5
13042,13188.4
12977.5,13215.1
12918.7,13226.8
12909,13228.7
12839.1,13228.7
12829.3,13226.8
12770.5,13215.1
12706,13188.4
12647.9,13149.5
12598.5,13100.1
12559.7,13042
12532.9,12977.5
12519.3,12909
12519.3,12839.1
12532.9,12770.5
12559.7,12706
12598.5,12647.9
12647.9,12598.5
12706,12559.7
12770.5,12532.9
12829.3,12521.2
12839.1,12519.3
12909,12519.3
Z" /> 
<path style="fill:#000000; fill-opacity:1.0; 
stroke:#000000; stroke-width:0; stroke-opacity:1; 
stroke-linecap:round; stroke-linejoin:round;fill-rule:evenodd;"
d="M 11918.7,12521.2
11977.5,12532.9
12042,12559.7
12100.1,12598.5
12149.5,12647.9
12188.4,12706
12215.1,12770.5
12228.7,12839.1
12228.7,12909
12215.1,12977.5
12188.4,13042
12149.5,13100.1
12100.1,13149.5
12042,13188.4
11977.5,13215.1
11918.7,13226.8
11909,13228.7
11839.1,13228.7
11829.3,13226.8
11770.5,13215.1
11706,13188.4
11647.9,13149.5
11598.5,13100.1
11559.7,13042
11532.9,12977.5
11519.3,12909
11519.3,12839.1
11532.9,12770.5
11559.7,12706
11598.5,12647.9
11647.9,12598.5
11706,12559.7
11770.5,12532.9
11829.3,12521.2
11839.1,12519.3
11909,12519.3
Z" /> 
<path style="fill:#000000; fill-opacity:1.0; 
stroke:#000000; stroke-width:0; stroke-opacity:1; 
stroke-linecap:round; stroke-linejoin:round;fill-rule:evenodd;"
d="M 10918.7,12521.2
10977.5,12532.9
11042,12559.7
11100.1,12598.5
11149.5,12647.9
11188.4,12706
11215.1,12770.5
11228.7,12839.1
11228.7,12909
11215.1,12977.5
11188.4,13042
11149.5,13100.1
11100.1,13149.5
11042,13188.4
10977.5,13215.1
10918.7,13226.8
10909,13228.7
10839.1,13228.7
10829.3,13226.8
10770.5,13215.1
10706,13188.4
10647.9,13149.5
10598.5,13100.1
10559.7,13042
10532.9,12977.5
10519.3,12909
10519.3,12839.1
10532.9,12770.5
10559.7,12706
10598.5,12647.9
10647.9,12598.5
10706,12559.7
10770.5,12532.9
10829.3,12521.2
10839.1,12519.3
10909,12519.3
Z" /> 
<path style="fill:#000000; fill-opacity:1.0; 
stroke:#000000; stroke-width:0; stroke-opacity:1; 
stroke-linecap:round; stroke-linejoin:round;fill-rule:evenodd;"
d="M 17918.7,11521.2
17977.5,11532.9
18042,11559.7
18100.1,11598.5
18149.5,11647.9
18188.4,11706
18215.1,11770.5
18228.7,11839.1
18228.7,11909
18215.1,11977.5
18188.4,12042
18149.5,12100.1
18100.1,12149.5
18042,12188.4
17977.5,12215.1
17918.7,12226.8
17909,12228.7
17839.1,12228.7
17829.3,12226.8
17770.5,12215.1
17706,12188.4
17647.9,12149.5
17598.5,12100.1
17559.7,12042
17532.9,11977.5
17519.3,11909
17519.3,11839.1
17532.9,11770.5
17559.7,11706
17598.5,11647.9
17647.9,11598.5
17706,11559.7
17770.5,11532.9
17829.3,11521.2
17839.1,11519.3
17909,11519.3
Z" /> 
<path style="fill:#000000; fill-opacity:1.0; 
stroke:#000000; stroke-width:0; stroke-opacity:1; 
stroke-linecap:round; stroke-linejoin:round;fill-rule:evenodd;"
d="M 14918.7,11521.2
14977.5,11532.9
15042,11559.7
15100.1,11598.5
15149.5,11647.9
15188.4,11706
15215.1,11770.5
15228.7,11839.1
15228.7,11909
15215.1,11977.5
15188.4,12042
15149.5,12100.1
15100.1,12149.5
15042,12188.4
14977.5,12215.1
14918.7,12226.8
14909,12228.7
14839.1,12228.7
14829.3,12226.8
14770.5,12215.1
14706,12188.4
14647.9,12149.5
14598.5,12100.1
14559.7,12042
14532.9,11977.5
14519.3,11909
14519.3,11839.1
14532.9,11770.5
14559.7,11706
14598.5,11647.9
14647.9,11598.5
14706,11559.7
14770.5,11532.9
14829.3,11521.2
14839.1,11519.3
14909,11519.3
Z" /> 
<path style="fill:#000000; fill-opacity:1.0; 
stroke:#000000; stroke-width:0; stroke-opacity:1; 
stroke-linecap:round; stroke-linejoin:round;fill-rule:evenodd;"
d="M 10918.7,11521.2
10977.5,11532.9
11042,11559.7
11100.1,11598.5
11149.5,11647.9
11188.4,11706
11215.1,11770.5
11228.7,11839.1
11228.7,11909
11215.1,11977.5
11188.4,12042
11149.5,12100.1
11100.1,12149.5
11042,12188.4
10977.5,12215.1
10918.7,12226.8
10909,12228.7
10839.1,12228.7
10829.3,12226.8
10770.5,12215.1
10706,12188.4
10647.9,12149.5
10598.5,12100.1
10559.7,12042
10532.9,11977.5
10519.3,11909
10519.3,11839.1
10532.9,11770.5
10559.7,11706
10598.5,11647.9
10647.9,11598.5
10706,11559.7
10770.5,11532.9
10829.3,11521.2
10839.1,11519.3
10909,11519.3
Z" /> 
<path style="fill:#000000; fill-opacity:1.0; 
stroke:#000000; stroke-width:0; stroke-opacity:1; 
stroke-linecap:round; stroke-linejoin:round;fill-rule:evenodd;"
d="M 11918.7,11521.2
11977.5,11532.9
12042,11559.7
12100.1,11598.5
12149.5,11647.9
12188.4,11706
12215.1,11770.5
12228.7,11839.1
12228.7,11909
12215.1,11977.5
12188.4,12042
12149.5,12100.1
12100.1,12149.5
12042,12188.4
11977.5,12215.1
11918.7,12226.8
11909,12228.7
11839.1,12228.7
11829.3,12226.8
11770.5,12215.1
11706,12188.4
11647.9,12149.5
11598.5,12100.1
11559.7,12042
11532.9,11977.5
11519.3,11909
11519.3,11839.1
11532.9,11770.5
11559.7,11706
11598.5,11647.9
11647.9,11598.5
11706,11559.7
11770.5,11532.9
11829.3,11521.2
11839.1,11519.3
11909,11519.3
Z" /> 
<path style="fill:#000000; fill-opacity:1.0; 
stroke:#000000; stroke-width:0; stroke-opacity:1; 
stroke-linecap:round; stroke-linejoin:round;fill-rule:evenodd;"
d="M 12918.7,11521.2
12977.5,11532.9
13042,11559.7
13100.1,11598.5
13149.5,11647.9
13188.4,11706
13215.1,11770.5
13228.7,11839.1
13228.7,11909
13215.1,11977.5
13188.4,12042
13149.5,12100.1
13100.1,12149.5
13042,12188.4
12977.5,12215.1
12918.7,12226.8
12909,12228.7
12839.1,12228.7
12829.3,12226.8
12770.5,12215.1
12706,12188.4
12647.9,12149.5
12598.5,12100.1
12559.7,12042
12532.9,11977.5
12519.3,11909
12519.3,11839.1
12532.9,11770.5
12559.7,11706
12598.5,11647.9
12647.9,11598.5
12706,11559.7
12770.5,11532.9
12829.3,11521.2
12839.1,11519.3
12909,11519.3
Z" /> 
<path style="fill:#000000; fill-opacity:1.0; 
stroke:#000000; stroke-width:0; stroke-opacity:1; 
stroke-linecap:round; stroke-linejoin:round;fill-rule:evenodd;"
d="M 20228.7,12228.7
19519.3,12228.7
19519.3,11519.3
20228.7,11519.3
Z" /> 
<path style="fill:#000000; fill-opacity:1.0; 
stroke:#000000; stroke-width:0; stroke-opacity:1; 
stroke-linecap:round; stroke-linejoin:round;fill-rule:evenodd;"
d="M 18918.7,11521.2
18977.5,11532.9
19042,11559.7
19100.1,11598.5
19149.5,11647.9
19188.4,11706
19215.1,11770.5
19228.7,11839.1
19228.7,11909
19215.1,11977.5
19188.4,12042
19149.5,12100.1
19100.1,12149.5
19042,12188.4
18977.5,12215.1
18918.7,12226.8
18909,12228.7
18839.1,12228.7
18829.3,12226.8
18770.5,12215.1
18706,12188.4
18647.9,12149.5
18598.5,12100.1
18559.7,12042
18532.9,11977.5
18519.3,11909
18519.3,11839.1
18532.9,11770.5
18559.7,11706
18598.5,11647.9
18647.9,11598.5
18706,11559.7
18770.5,11532.9
18829.3,11521.2
18839.1,11519.3
18909,11519.3
Z" /> 
<path style="fill:#000000; fill-opacity:1.0; 
stroke:#000000; stroke-width:0; stroke-opacity:1; 
stroke-linecap:round; stroke-linejoin:round;fill-rule:evenodd;"
d="M 16918.7,11521.2
16977.5,11532.9
17042,11559.7
17100.1,11598.5
17149.5,11647.9
17188.4,11706
17215.1,11770.5
17228.7,11839.1
17228.7,11909
17215.1,11977.5
17188.4,12042
17149.5,12100.1
17100.1,12149.5
17042,12188.4
16977.5,12215.1
16918.7,12226.8
16909,12228.7
16839.1,12228.7
16829.3,12226.8
16770.5,12215.1
16706,12188.4
16647.9,12149.5
16598.5,12100.1
16559.7,12042
16532.9,11977.5
16519.3,11909
16519.3,11839.1
16532.9,11770.5
16559.7,11706
16598.5,11647.9
16647.9,11598.5
16706,11559.7
16770.5,11532.9
16829.3,11521.2
16839.1,11519.3
16909,11519.3
Z" /> 
<path style="fill:#000000; fill-opacity:1.0; 
stroke:#000000; stroke-width:0; stroke-opacity:1; 
stroke-linecap:round; stroke-linejoin:round;fill-rule:evenodd;"
d="M 15918.7,11521.2
15977.5,11532.9
16042,11559.7
16100.1,11598.5
16149.5,11647.9
16188.4,11706
16215.1,11770.5
16228.7,11839.1
16228.7,11909
16215.1,11977.5
16188.4,12042
16149.5,12100.1
16100.1,12149.5
16042,12188.4
15977.5,12215.1
15918.7,12226.8
15909,12228.7
15839.1,12228.7
15829.3,12226.8
15770.5,12215.1
15706,12188.4
15647.9,12149.5
15598.5,12100.1
15559.7,12042
15532.9,11977.5
15519.3,11909
15519.3,11839.1
15532.9,11770.5
15559.7,11706
15598.5,11647.9
15647.9,11598.5
15706,11559.7
15770.5,11532.9
15829.3,11521.2
15839.1,11519.3
15909,11519.3
Z" /> 
<path style="fill:#000000; fill-opacity:1.0; 
stroke:#000000; stroke-width:0; stroke-opacity:1; 
stroke-linecap:round; stroke-linejoin:round;fill-rule:evenodd;"
d="M 13918.7,11521.2
13977.5,11532.9
14042,11559.7
14100.1,11598.5
14149.5,11647.9
14188.4,11706
14215.1,11770.5
14228.7,11839.1
14228.7,11909
14215.1,11977.5
14188.4,12042
14149.5,12100.1
14100.1,12149.5
14042,12188.4
13977.5,12215.1
13918.7,12226.8
13909,12228.7
13839.1,12228.7
13829.3,12226.8
13770.5,12215.1
13706,12188.4
13647.9,12149.5
13598.5,12100.1
13559.7,12042
13532.9,11977.5
13519.3,11909
13519.3,11839.1
13532.9,11770.5
13559.7,11706
13598.5,11647.9
13647.9,11598.5
13706,11559.7
13770.5,11532.9
13829.3,11521.2
13839.1,11519.3
13909,11519.3
Z" /> 
<path style="fill:#000000; fill-opacity:1.0; 
stroke:#000000; stroke-width:0; stroke-opacity:1; 
stroke-linecap:round; stroke-linejoin:round;fill-rule:evenodd;"
d="M 14840.2,9036.58
14937,9076.68
15024.1,9134.89
15098.2,9208.97
15156.4,9296.09
15196.5,9392.89
15216.9,9495.64
15216.9,9600.42
15196.5,9703.18
15156.4,9799.98
15098.2,9887.09
15024.1,9961.18
14937,10019.4
14937,10019.4
14937,10019.4
14840.2,10059.5
14737.4,10079.9
14632.7,10079.9
14529.9,10059.5
14433.1,10019.4
14433.1,10019.4
14433.1,10019.4
14346,9961.18
14271.9,9887.09
14213.7,9799.98
14173.6,9703.18
14153.1,9600.42
14153.1,9495.64
14173.6,9392.89
14213.7,9296.09
14271.9,9208.97
14346,9134.89
14433.1,9076.68
14529.9,9036.58
14632.7,9016.14
14737.4,9016.14
Z" /> 
<path style="fill:#000000; fill-opacity:1.0; 
stroke:#000000; stroke-width:0; stroke-opacity:1; 
stroke-linecap:round; stroke-linejoin:round;fill-rule:evenodd;"
d="M 10706.3,9036.58
10803.1,9076.68
10890.2,9134.89
10964.3,9208.97
11022.5,9296.09
11062.6,9392.89
11083.1,9495.64
11083.1,9600.42
11062.6,9703.18
11022.5,9799.98
10964.3,9887.09
10890.2,9961.18
10803.1,10019.4
10803.1,10019.4
10803.1,10019.4
10706.3,10059.5
10603.6,10079.9
10498.8,10079.9
10396,10059.5
10299.2,10019.4
10299.2,10019.4
10299.2,10019.4
10212.1,9961.18
10138,9887.09
10079.8,9799.98
10039.7,9703.18
10019.3,9600.42
10019.3,9495.64
10039.7,9392.89
10079.8,9296.09
10138,9208.97
10212.1,9134.89
10299.2,9076.68
10396,9036.58
10498.8,9016.14
10603.6,9016.14
Z" /> 
<path style="fill:#000000; fill-opacity:1.0; 
stroke:#000000; stroke-width:0; stroke-opacity:1; 
stroke-linecap:round; stroke-linejoin:round;fill-rule:evenodd;"
d="M 16218.1,9036.58
16314.9,9076.68
16402.1,9134.89
16476.1,9208.97
16534.3,9296.09
16574.4,9392.89
16594.9,9495.64
16594.9,9600.42
16574.4,9703.18
16534.3,9799.98
16476.1,9887.09
16402.1,9961.18
16314.9,10019.4
16314.9,10019.4
16314.9,10019.4
16218.1,10059.5
16115.4,10079.9
16010.6,10079.9
15907.8,10059.5
15811,10019.4
15811,10019.4
15811,10019.4
15723.9,9961.18
15649.8,9887.09
15591.6,9799.98
15551.5,9703.18
15531.1,9600.42
15531.1,9495.64
15551.5,9392.89
15591.6,9296.09
15649.8,9208.97
15723.9,9134.89
15811,9076.68
15907.8,9036.58
16010.6,9016.14
16115.4,9016.14
Z" /> 
<path style="fill:#000000; fill-opacity:1.0; 
stroke:#000000; stroke-width:0; stroke-opacity:1; 
stroke-linecap:round; stroke-linejoin:round;fill-rule:evenodd;"
d="M 17596.1,9036.58
17692.9,9076.68
17780,9134.89
17854.1,9208.97
17912.3,9296.09
17952.4,9392.89
17972.8,9495.64
17972.8,9600.42
17952.4,9703.18
17912.3,9799.98
17854.1,9887.09
17780,9961.18
17692.9,10019.4
17692.9,10019.4
17692.9,10019.4
17596.1,10059.5
17493.3,10079.9
17388.6,10079.9
17285.8,10059.5
17189,10019.4
17189,10019.4
17189,10019.4
17101.9,9961.18
17027.8,9887.09
16969.6,9799.98
16929.5,9703.18
16909.1,9600.42
16909.1,9495.64
16929.5,9392.89
16969.6,9296.09
17027.8,9208.97
17101.9,9134.89
17189,9076.68
17285.8,9036.58
17388.6,9016.14
17493.3,9016.14
Z" /> 
<path style="fill:#000000; fill-opacity:1.0; 
stroke:#000000; stroke-width:0; stroke-opacity:1; 
stroke-linecap:round; stroke-linejoin:round;fill-rule:evenodd;"
d="M 18974,9036.58
19070.8,9076.68
19158,9134.89
19232,9208.97
19290.3,9296.09
19330.3,9392.89
19350.8,9495.64
19350.8,9600.42
19330.3,9703.18
19290.3,9799.98
19232,9887.09
19158,9961.18
19070.8,10019.4
19070.8,10019.4
19070.8,10019.4
18974,10059.5
18871.3,10079.9
18766.5,10079.9
18663.8,10059.5
18567,10019.4
18567,10019.4
18567,10019.4
18479.8,9961.18
18405.8,9887.09
18347.5,9799.98
18307.4,9703.18
18287,9600.42
18287,9495.64
18307.4,9392.89
18347.5,9296.09
18405.8,9208.97
18479.8,9134.89
18567,9076.68
18663.8,9036.58
18766.5,9016.14
18871.3,9016.14
Z" /> 
<path style="fill:#000000; fill-opacity:1.0; 
stroke:#000000; stroke-width:0; stroke-opacity:1; 
stroke-linecap:round; stroke-linejoin:round;fill-rule:evenodd;"
d="M 20352,9036.58
20448.8,9076.68
20535.9,9134.89
20610,9208.97
20668.2,9296.09
20708.3,9392.89
20728.7,9495.64
20728.7,9600.42
20708.3,9703.18
20668.2,9799.98
20610,9887.09
20535.9,9961.18
20448.8,10019.4
20448.8,10019.4
20448.8,10019.4
20352,10059.5
20249.2,10079.9
20144.5,10079.9
20041.7,10059.5
19944.9,10019.4
19944.9,10019.4
19944.9,10019.4
19857.8,9961.18
19783.7,9887.09
19725.5,9799.98
19685.4,9703.18
19665,9600.42
19665,9495.64
19685.4,9392.89
19725.5,9296.09
19783.7,9208.97
19857.8,9134.89
19944.9,9076.68
20041.7,9036.58
20144.5,9016.14
20249.2,9016.14
Z" /> 
<path style="fill:#000000; fill-opacity:1.0; 
stroke:#000000; stroke-width:0; stroke-opacity:1; 
stroke-linecap:round; stroke-linejoin:round;fill-rule:evenodd;"
d="M 22106.7,10079.9
21042.9,10079.9
21042.9,9016.14
22106.7,9016.14
Z" /> 
<path style="fill:#000000; fill-opacity:1.0; 
stroke:#000000; stroke-width:0; stroke-opacity:1; 
stroke-linecap:round; stroke-linejoin:round;fill-rule:evenodd;"
d="M 13462.2,9036.58
13559,9076.68
13646.1,9134.89
13720.2,9208.97
13778.4,9296.09
13818.5,9392.89
13839,9495.64
13839,9600.42
13818.5,9703.18
13778.4,9799.98
13720.2,9887.09
13646.1,9961.18
13559,10019.4
13559,10019.4
13559,10019.4
13462.2,10059.5
13359.5,10079.9
13254.7,10079.9
13151.9,10059.5
13055.1,10019.4
13055.1,10019.4
13055.1,10019.4
12968,9961.18
12893.9,9887.09
12835.7,9799.98
12795.6,9703.18
12775.2,9600.42
12775.2,9495.64
12795.6,9392.89
12835.7,9296.09
12893.9,9208.97
12968,9134.89
13055.1,9076.68
13151.9,9036.58
13254.7,9016.14
13359.5,9016.14
Z" /> 
<path style="fill:#000000; fill-opacity:1.0; 
stroke:#000000; stroke-width:0; stroke-opacity:1; 
stroke-linecap:round; stroke-linejoin:round;fill-rule:evenodd;"
d="M 12084.3,9036.58
12181.1,9076.68
12268.2,9134.89
12342.3,9208.97
12400.5,9296.09
12440.6,9392.89
12461,9495.64
12461,9600.42
12440.6,9703.18
12400.5,9799.98
12342.3,9887.09
12268.2,9961.18
12181.1,10019.4
12181.1,10019.4
12181.1,10019.4
12084.3,10059.5
11981.5,10079.9
11876.7,10079.9
11774,10059.5
11677.2,10019.4
11677.2,10019.4
11677.2,10019.4
11590.1,9961.18
11516,9887.09
11457.8,9799.98
11417.7,9703.18
11397.2,9600.42
11397.2,9495.64
11417.7,9392.89
11457.8,9296.09
11516,9208.97
11590.1,9134.89
11677.2,9076.68
11774,9036.58
11876.7,9016.14
11981.5,9016.14
Z" /> 
<path style="fill:#000000; fill-opacity:1.0; 
stroke:#000000; stroke-width:0; stroke-opacity:1; 
stroke-linecap:round; stroke-linejoin:round;fill-rule:evenodd;"
d="M 9328.37,9036.58
9425.17,9076.68
9512.29,9134.89
9586.37,9208.97
9644.58,9296.09
9684.68,9392.89
9705.12,9495.64
9705.12,9600.42
9684.68,9703.18
9644.58,9799.98
9586.37,9887.09
9512.29,9961.18
9425.17,10019.4
9425.17,10019.4
9425.17,10019.4
9328.37,10059.5
9225.62,10079.9
9120.84,10079.9
9018.08,10059.5
8921.28,10019.4
8921.28,10019.4
8921.28,10019.4
8834.17,9961.18
8760.08,9887.09
8701.87,9799.98
8661.78,9703.18
8641.34,9600.42
8641.34,9495.64
8661.78,9392.89
8701.87,9296.09
8760.08,9208.97
8834.17,9134.89
8921.28,9076.68
9018.08,9036.58
9120.84,9016.14
9225.62,9016.14
Z" /> 
</g> 
</svg>
