G04 #@! TF.GenerationSoftware,KiCad,Pcbnew,5.1.5+dfsg1-2build2*
G04 #@! TF.CreationDate,2021-06-10T17:46:24-05:00*
G04 #@! TF.ProjectId,C12,4331322e-6b69-4636-9164-5f7063625858,rev?*
G04 #@! TF.SameCoordinates,Original*
G04 #@! TF.FileFunction,Soldermask,Top*
G04 #@! TF.FilePolarity,Negative*
%FSLAX46Y46*%
G04 Gerber Fmt 4.6, Leading zero omitted, Abs format (unit mm)*
G04 Created by KiCad (PCBNEW 5.1.5+dfsg1-2build2) date 2021-06-10 17:46:24*
%MOMM*%
%LPD*%
G04 APERTURE LIST*
%ADD10C,0.100000*%
G04 APERTURE END LIST*
D10*
G36*
X56479393Y-62757304D02*
G01*
X56716101Y-62855352D01*
X56716103Y-62855353D01*
X56929135Y-62997696D01*
X57110304Y-63178865D01*
X57252647Y-63391897D01*
X57252648Y-63391899D01*
X57350696Y-63628607D01*
X57400680Y-63879893D01*
X57400680Y-64136107D01*
X57350696Y-64387393D01*
X57262395Y-64600569D01*
X57252647Y-64624103D01*
X57110304Y-64837135D01*
X56929135Y-65018304D01*
X56716103Y-65160647D01*
X56716102Y-65160648D01*
X56716101Y-65160648D01*
X56479393Y-65258696D01*
X56228107Y-65308680D01*
X55971893Y-65308680D01*
X55720607Y-65258696D01*
X55483899Y-65160648D01*
X55483898Y-65160648D01*
X55483897Y-65160647D01*
X55270865Y-65018304D01*
X55089696Y-64837135D01*
X54947353Y-64624103D01*
X54937605Y-64600569D01*
X54849304Y-64387393D01*
X54799320Y-64136107D01*
X54799320Y-63879893D01*
X54849304Y-63628607D01*
X54947352Y-63391899D01*
X54947353Y-63391897D01*
X55089696Y-63178865D01*
X55270865Y-62997696D01*
X55483897Y-62855353D01*
X55483899Y-62855352D01*
X55720607Y-62757304D01*
X55971893Y-62707320D01*
X56228107Y-62707320D01*
X56479393Y-62757304D01*
G37*
G36*
X22379393Y-62757304D02*
G01*
X22616101Y-62855352D01*
X22616103Y-62855353D01*
X22829135Y-62997696D01*
X23010304Y-63178865D01*
X23152647Y-63391897D01*
X23152648Y-63391899D01*
X23250696Y-63628607D01*
X23300680Y-63879893D01*
X23300680Y-64136107D01*
X23250696Y-64387393D01*
X23162395Y-64600569D01*
X23152647Y-64624103D01*
X23010304Y-64837135D01*
X22829135Y-65018304D01*
X22616103Y-65160647D01*
X22616102Y-65160648D01*
X22616101Y-65160648D01*
X22379393Y-65258696D01*
X22128107Y-65308680D01*
X21871893Y-65308680D01*
X21620607Y-65258696D01*
X21383899Y-65160648D01*
X21383898Y-65160648D01*
X21383897Y-65160647D01*
X21170865Y-65018304D01*
X20989696Y-64837135D01*
X20847353Y-64624103D01*
X20837605Y-64600569D01*
X20749304Y-64387393D01*
X20699320Y-64136107D01*
X20699320Y-63879893D01*
X20749304Y-63628607D01*
X20847352Y-63391899D01*
X20847353Y-63391897D01*
X20989696Y-63178865D01*
X21170865Y-62997696D01*
X21383897Y-62855353D01*
X21383899Y-62855352D01*
X21620607Y-62757304D01*
X21871893Y-62707320D01*
X22128107Y-62707320D01*
X22379393Y-62757304D01*
G37*
G36*
X28051000Y-65259000D02*
G01*
X25549000Y-65259000D01*
X25549000Y-62757000D01*
X28051000Y-62757000D01*
X28051000Y-65259000D01*
G37*
G36*
X34164903Y-62805075D02*
G01*
X34392571Y-62899378D01*
X34597466Y-63036285D01*
X34771715Y-63210534D01*
X34908622Y-63415429D01*
X35002925Y-63643097D01*
X35051000Y-63884787D01*
X35051000Y-64131213D01*
X35002925Y-64372903D01*
X34908622Y-64600571D01*
X34771715Y-64805466D01*
X34597466Y-64979715D01*
X34392571Y-65116622D01*
X34392570Y-65116623D01*
X34392569Y-65116623D01*
X34164903Y-65210925D01*
X33923214Y-65259000D01*
X33676786Y-65259000D01*
X33435097Y-65210925D01*
X33207431Y-65116623D01*
X33207430Y-65116623D01*
X33207429Y-65116622D01*
X33002534Y-64979715D01*
X32828285Y-64805466D01*
X32691378Y-64600571D01*
X32597075Y-64372903D01*
X32549000Y-64131213D01*
X32549000Y-63884787D01*
X32597075Y-63643097D01*
X32691378Y-63415429D01*
X32828285Y-63210534D01*
X33002534Y-63036285D01*
X33207429Y-62899378D01*
X33435097Y-62805075D01*
X33676786Y-62757000D01*
X33923214Y-62757000D01*
X34164903Y-62805075D01*
G37*
G36*
X37664903Y-62805075D02*
G01*
X37892571Y-62899378D01*
X38097466Y-63036285D01*
X38271715Y-63210534D01*
X38408622Y-63415429D01*
X38502925Y-63643097D01*
X38551000Y-63884787D01*
X38551000Y-64131213D01*
X38502925Y-64372903D01*
X38408622Y-64600571D01*
X38271715Y-64805466D01*
X38097466Y-64979715D01*
X37892571Y-65116622D01*
X37892570Y-65116623D01*
X37892569Y-65116623D01*
X37664903Y-65210925D01*
X37423214Y-65259000D01*
X37176786Y-65259000D01*
X36935097Y-65210925D01*
X36707431Y-65116623D01*
X36707430Y-65116623D01*
X36707429Y-65116622D01*
X36502534Y-64979715D01*
X36328285Y-64805466D01*
X36191378Y-64600571D01*
X36097075Y-64372903D01*
X36049000Y-64131213D01*
X36049000Y-63884787D01*
X36097075Y-63643097D01*
X36191378Y-63415429D01*
X36328285Y-63210534D01*
X36502534Y-63036285D01*
X36707429Y-62899378D01*
X36935097Y-62805075D01*
X37176786Y-62757000D01*
X37423214Y-62757000D01*
X37664903Y-62805075D01*
G37*
G36*
X41164903Y-62805075D02*
G01*
X41392571Y-62899378D01*
X41597466Y-63036285D01*
X41771715Y-63210534D01*
X41908622Y-63415429D01*
X42002925Y-63643097D01*
X42051000Y-63884787D01*
X42051000Y-64131213D01*
X42002925Y-64372903D01*
X41908622Y-64600571D01*
X41771715Y-64805466D01*
X41597466Y-64979715D01*
X41392571Y-65116622D01*
X41392570Y-65116623D01*
X41392569Y-65116623D01*
X41164903Y-65210925D01*
X40923214Y-65259000D01*
X40676786Y-65259000D01*
X40435097Y-65210925D01*
X40207431Y-65116623D01*
X40207430Y-65116623D01*
X40207429Y-65116622D01*
X40002534Y-64979715D01*
X39828285Y-64805466D01*
X39691378Y-64600571D01*
X39597075Y-64372903D01*
X39549000Y-64131213D01*
X39549000Y-63884787D01*
X39597075Y-63643097D01*
X39691378Y-63415429D01*
X39828285Y-63210534D01*
X40002534Y-63036285D01*
X40207429Y-62899378D01*
X40435097Y-62805075D01*
X40676786Y-62757000D01*
X40923214Y-62757000D01*
X41164903Y-62805075D01*
G37*
G36*
X44664903Y-62805075D02*
G01*
X44892571Y-62899378D01*
X45097466Y-63036285D01*
X45271715Y-63210534D01*
X45408622Y-63415429D01*
X45502925Y-63643097D01*
X45551000Y-63884787D01*
X45551000Y-64131213D01*
X45502925Y-64372903D01*
X45408622Y-64600571D01*
X45271715Y-64805466D01*
X45097466Y-64979715D01*
X44892571Y-65116622D01*
X44892570Y-65116623D01*
X44892569Y-65116623D01*
X44664903Y-65210925D01*
X44423214Y-65259000D01*
X44176786Y-65259000D01*
X43935097Y-65210925D01*
X43707431Y-65116623D01*
X43707430Y-65116623D01*
X43707429Y-65116622D01*
X43502534Y-64979715D01*
X43328285Y-64805466D01*
X43191378Y-64600571D01*
X43097075Y-64372903D01*
X43049000Y-64131213D01*
X43049000Y-63884787D01*
X43097075Y-63643097D01*
X43191378Y-63415429D01*
X43328285Y-63210534D01*
X43502534Y-63036285D01*
X43707429Y-62899378D01*
X43935097Y-62805075D01*
X44176786Y-62757000D01*
X44423214Y-62757000D01*
X44664903Y-62805075D01*
G37*
G36*
X48164903Y-62805075D02*
G01*
X48392571Y-62899378D01*
X48597466Y-63036285D01*
X48771715Y-63210534D01*
X48908622Y-63415429D01*
X49002925Y-63643097D01*
X49051000Y-63884787D01*
X49051000Y-64131213D01*
X49002925Y-64372903D01*
X48908622Y-64600571D01*
X48771715Y-64805466D01*
X48597466Y-64979715D01*
X48392571Y-65116622D01*
X48392570Y-65116623D01*
X48392569Y-65116623D01*
X48164903Y-65210925D01*
X47923214Y-65259000D01*
X47676786Y-65259000D01*
X47435097Y-65210925D01*
X47207431Y-65116623D01*
X47207430Y-65116623D01*
X47207429Y-65116622D01*
X47002534Y-64979715D01*
X46828285Y-64805466D01*
X46691378Y-64600571D01*
X46597075Y-64372903D01*
X46549000Y-64131213D01*
X46549000Y-63884787D01*
X46597075Y-63643097D01*
X46691378Y-63415429D01*
X46828285Y-63210534D01*
X47002534Y-63036285D01*
X47207429Y-62899378D01*
X47435097Y-62805075D01*
X47676786Y-62757000D01*
X47923214Y-62757000D01*
X48164903Y-62805075D01*
G37*
G36*
X51664903Y-62805075D02*
G01*
X51892571Y-62899378D01*
X52097466Y-63036285D01*
X52271715Y-63210534D01*
X52408622Y-63415429D01*
X52502925Y-63643097D01*
X52551000Y-63884787D01*
X52551000Y-64131213D01*
X52502925Y-64372903D01*
X52408622Y-64600571D01*
X52271715Y-64805466D01*
X52097466Y-64979715D01*
X51892571Y-65116622D01*
X51892570Y-65116623D01*
X51892569Y-65116623D01*
X51664903Y-65210925D01*
X51423214Y-65259000D01*
X51176786Y-65259000D01*
X50935097Y-65210925D01*
X50707431Y-65116623D01*
X50707430Y-65116623D01*
X50707429Y-65116622D01*
X50502534Y-64979715D01*
X50328285Y-64805466D01*
X50191378Y-64600571D01*
X50097075Y-64372903D01*
X50049000Y-64131213D01*
X50049000Y-63884787D01*
X50097075Y-63643097D01*
X50191378Y-63415429D01*
X50328285Y-63210534D01*
X50502534Y-63036285D01*
X50707429Y-62899378D01*
X50935097Y-62805075D01*
X51176786Y-62757000D01*
X51423214Y-62757000D01*
X51664903Y-62805075D01*
G37*
G36*
X30664903Y-62805075D02*
G01*
X30892571Y-62899378D01*
X31097466Y-63036285D01*
X31271715Y-63210534D01*
X31408622Y-63415429D01*
X31502925Y-63643097D01*
X31551000Y-63884787D01*
X31551000Y-64131213D01*
X31502925Y-64372903D01*
X31408622Y-64600571D01*
X31271715Y-64805466D01*
X31097466Y-64979715D01*
X30892571Y-65116622D01*
X30892570Y-65116623D01*
X30892569Y-65116623D01*
X30664903Y-65210925D01*
X30423214Y-65259000D01*
X30176786Y-65259000D01*
X29935097Y-65210925D01*
X29707431Y-65116623D01*
X29707430Y-65116623D01*
X29707429Y-65116622D01*
X29502534Y-64979715D01*
X29328285Y-64805466D01*
X29191378Y-64600571D01*
X29097075Y-64372903D01*
X29049000Y-64131213D01*
X29049000Y-63884787D01*
X29097075Y-63643097D01*
X29191378Y-63415429D01*
X29328285Y-63210534D01*
X29502534Y-63036285D01*
X29707429Y-62899378D01*
X29935097Y-62805075D01*
X30176786Y-62757000D01*
X30423214Y-62757000D01*
X30664903Y-62805075D01*
G37*
G36*
X37893512Y-54663927D02*
G01*
X38042812Y-54693624D01*
X38206784Y-54761544D01*
X38354354Y-54860147D01*
X38479853Y-54985646D01*
X38578456Y-55133216D01*
X38646376Y-55297188D01*
X38681000Y-55471259D01*
X38681000Y-55648741D01*
X38646376Y-55822812D01*
X38578456Y-55986784D01*
X38479853Y-56134354D01*
X38354354Y-56259853D01*
X38206784Y-56358456D01*
X38042812Y-56426376D01*
X37893512Y-56456073D01*
X37868742Y-56461000D01*
X37691258Y-56461000D01*
X37666488Y-56456073D01*
X37517188Y-56426376D01*
X37353216Y-56358456D01*
X37205646Y-56259853D01*
X37080147Y-56134354D01*
X36981544Y-55986784D01*
X36913624Y-55822812D01*
X36879000Y-55648741D01*
X36879000Y-55471259D01*
X36913624Y-55297188D01*
X36981544Y-55133216D01*
X37080147Y-54985646D01*
X37205646Y-54860147D01*
X37353216Y-54761544D01*
X37517188Y-54693624D01*
X37666488Y-54663927D01*
X37691258Y-54659000D01*
X37868742Y-54659000D01*
X37893512Y-54663927D01*
G37*
G36*
X48053512Y-54663927D02*
G01*
X48202812Y-54693624D01*
X48366784Y-54761544D01*
X48514354Y-54860147D01*
X48639853Y-54985646D01*
X48738456Y-55133216D01*
X48806376Y-55297188D01*
X48841000Y-55471259D01*
X48841000Y-55648741D01*
X48806376Y-55822812D01*
X48738456Y-55986784D01*
X48639853Y-56134354D01*
X48514354Y-56259853D01*
X48366784Y-56358456D01*
X48202812Y-56426376D01*
X48053512Y-56456073D01*
X48028742Y-56461000D01*
X47851258Y-56461000D01*
X47826488Y-56456073D01*
X47677188Y-56426376D01*
X47513216Y-56358456D01*
X47365646Y-56259853D01*
X47240147Y-56134354D01*
X47141544Y-55986784D01*
X47073624Y-55822812D01*
X47039000Y-55648741D01*
X47039000Y-55471259D01*
X47073624Y-55297188D01*
X47141544Y-55133216D01*
X47240147Y-54985646D01*
X47365646Y-54860147D01*
X47513216Y-54761544D01*
X47677188Y-54693624D01*
X47826488Y-54663927D01*
X47851258Y-54659000D01*
X48028742Y-54659000D01*
X48053512Y-54663927D01*
G37*
G36*
X45513512Y-54663927D02*
G01*
X45662812Y-54693624D01*
X45826784Y-54761544D01*
X45974354Y-54860147D01*
X46099853Y-54985646D01*
X46198456Y-55133216D01*
X46266376Y-55297188D01*
X46301000Y-55471259D01*
X46301000Y-55648741D01*
X46266376Y-55822812D01*
X46198456Y-55986784D01*
X46099853Y-56134354D01*
X45974354Y-56259853D01*
X45826784Y-56358456D01*
X45662812Y-56426376D01*
X45513512Y-56456073D01*
X45488742Y-56461000D01*
X45311258Y-56461000D01*
X45286488Y-56456073D01*
X45137188Y-56426376D01*
X44973216Y-56358456D01*
X44825646Y-56259853D01*
X44700147Y-56134354D01*
X44601544Y-55986784D01*
X44533624Y-55822812D01*
X44499000Y-55648741D01*
X44499000Y-55471259D01*
X44533624Y-55297188D01*
X44601544Y-55133216D01*
X44700147Y-54985646D01*
X44825646Y-54860147D01*
X44973216Y-54761544D01*
X45137188Y-54693624D01*
X45286488Y-54663927D01*
X45311258Y-54659000D01*
X45488742Y-54659000D01*
X45513512Y-54663927D01*
G37*
G36*
X42973512Y-54663927D02*
G01*
X43122812Y-54693624D01*
X43286784Y-54761544D01*
X43434354Y-54860147D01*
X43559853Y-54985646D01*
X43658456Y-55133216D01*
X43726376Y-55297188D01*
X43761000Y-55471259D01*
X43761000Y-55648741D01*
X43726376Y-55822812D01*
X43658456Y-55986784D01*
X43559853Y-56134354D01*
X43434354Y-56259853D01*
X43286784Y-56358456D01*
X43122812Y-56426376D01*
X42973512Y-56456073D01*
X42948742Y-56461000D01*
X42771258Y-56461000D01*
X42746488Y-56456073D01*
X42597188Y-56426376D01*
X42433216Y-56358456D01*
X42285646Y-56259853D01*
X42160147Y-56134354D01*
X42061544Y-55986784D01*
X41993624Y-55822812D01*
X41959000Y-55648741D01*
X41959000Y-55471259D01*
X41993624Y-55297188D01*
X42061544Y-55133216D01*
X42160147Y-54985646D01*
X42285646Y-54860147D01*
X42433216Y-54761544D01*
X42597188Y-54693624D01*
X42746488Y-54663927D01*
X42771258Y-54659000D01*
X42948742Y-54659000D01*
X42973512Y-54663927D01*
G37*
G36*
X31061000Y-56461000D02*
G01*
X29259000Y-56461000D01*
X29259000Y-54659000D01*
X31061000Y-54659000D01*
X31061000Y-56461000D01*
G37*
G36*
X32813512Y-54663927D02*
G01*
X32962812Y-54693624D01*
X33126784Y-54761544D01*
X33274354Y-54860147D01*
X33399853Y-54985646D01*
X33498456Y-55133216D01*
X33566376Y-55297188D01*
X33601000Y-55471259D01*
X33601000Y-55648741D01*
X33566376Y-55822812D01*
X33498456Y-55986784D01*
X33399853Y-56134354D01*
X33274354Y-56259853D01*
X33126784Y-56358456D01*
X32962812Y-56426376D01*
X32813512Y-56456073D01*
X32788742Y-56461000D01*
X32611258Y-56461000D01*
X32586488Y-56456073D01*
X32437188Y-56426376D01*
X32273216Y-56358456D01*
X32125646Y-56259853D01*
X32000147Y-56134354D01*
X31901544Y-55986784D01*
X31833624Y-55822812D01*
X31799000Y-55648741D01*
X31799000Y-55471259D01*
X31833624Y-55297188D01*
X31901544Y-55133216D01*
X32000147Y-54985646D01*
X32125646Y-54860147D01*
X32273216Y-54761544D01*
X32437188Y-54693624D01*
X32586488Y-54663927D01*
X32611258Y-54659000D01*
X32788742Y-54659000D01*
X32813512Y-54663927D01*
G37*
G36*
X35353512Y-54663927D02*
G01*
X35502812Y-54693624D01*
X35666784Y-54761544D01*
X35814354Y-54860147D01*
X35939853Y-54985646D01*
X36038456Y-55133216D01*
X36106376Y-55297188D01*
X36141000Y-55471259D01*
X36141000Y-55648741D01*
X36106376Y-55822812D01*
X36038456Y-55986784D01*
X35939853Y-56134354D01*
X35814354Y-56259853D01*
X35666784Y-56358456D01*
X35502812Y-56426376D01*
X35353512Y-56456073D01*
X35328742Y-56461000D01*
X35151258Y-56461000D01*
X35126488Y-56456073D01*
X34977188Y-56426376D01*
X34813216Y-56358456D01*
X34665646Y-56259853D01*
X34540147Y-56134354D01*
X34441544Y-55986784D01*
X34373624Y-55822812D01*
X34339000Y-55648741D01*
X34339000Y-55471259D01*
X34373624Y-55297188D01*
X34441544Y-55133216D01*
X34540147Y-54985646D01*
X34665646Y-54860147D01*
X34813216Y-54761544D01*
X34977188Y-54693624D01*
X35126488Y-54663927D01*
X35151258Y-54659000D01*
X35328742Y-54659000D01*
X35353512Y-54663927D01*
G37*
G36*
X40433512Y-54663927D02*
G01*
X40582812Y-54693624D01*
X40746784Y-54761544D01*
X40894354Y-54860147D01*
X41019853Y-54985646D01*
X41118456Y-55133216D01*
X41186376Y-55297188D01*
X41221000Y-55471259D01*
X41221000Y-55648741D01*
X41186376Y-55822812D01*
X41118456Y-55986784D01*
X41019853Y-56134354D01*
X40894354Y-56259853D01*
X40746784Y-56358456D01*
X40582812Y-56426376D01*
X40433512Y-56456073D01*
X40408742Y-56461000D01*
X40231258Y-56461000D01*
X40206488Y-56456073D01*
X40057188Y-56426376D01*
X39893216Y-56358456D01*
X39745646Y-56259853D01*
X39620147Y-56134354D01*
X39521544Y-55986784D01*
X39453624Y-55822812D01*
X39419000Y-55648741D01*
X39419000Y-55471259D01*
X39453624Y-55297188D01*
X39521544Y-55133216D01*
X39620147Y-54985646D01*
X39745646Y-54860147D01*
X39893216Y-54761544D01*
X40057188Y-54693624D01*
X40206488Y-54663927D01*
X40231258Y-54659000D01*
X40408742Y-54659000D01*
X40433512Y-54663927D01*
G37*
G36*
X54592585Y-52768802D02*
G01*
X54742410Y-52798604D01*
X55024674Y-52915521D01*
X55278705Y-53085259D01*
X55494741Y-53301295D01*
X55664479Y-53555326D01*
X55781396Y-53837590D01*
X55841000Y-54137240D01*
X55841000Y-54442760D01*
X55781396Y-54742410D01*
X55664479Y-55024674D01*
X55494741Y-55278705D01*
X55278705Y-55494741D01*
X55024674Y-55664479D01*
X54742410Y-55781396D01*
X54592585Y-55811198D01*
X54442761Y-55841000D01*
X54137239Y-55841000D01*
X53987415Y-55811198D01*
X53837590Y-55781396D01*
X53555326Y-55664479D01*
X53301295Y-55494741D01*
X53085259Y-55278705D01*
X52915521Y-55024674D01*
X52798604Y-54742410D01*
X52739000Y-54442760D01*
X52739000Y-54137240D01*
X52798604Y-53837590D01*
X52915521Y-53555326D01*
X53085259Y-53301295D01*
X53301295Y-53085259D01*
X53555326Y-52915521D01*
X53837590Y-52798604D01*
X53987415Y-52768802D01*
X54137239Y-52739000D01*
X54442761Y-52739000D01*
X54592585Y-52768802D01*
G37*
G36*
X24112585Y-52768802D02*
G01*
X24262410Y-52798604D01*
X24544674Y-52915521D01*
X24798705Y-53085259D01*
X25014741Y-53301295D01*
X25184479Y-53555326D01*
X25301396Y-53837590D01*
X25361000Y-54137240D01*
X25361000Y-54442760D01*
X25301396Y-54742410D01*
X25184479Y-55024674D01*
X25014741Y-55278705D01*
X24798705Y-55494741D01*
X24544674Y-55664479D01*
X24262410Y-55781396D01*
X24112585Y-55811198D01*
X23962761Y-55841000D01*
X23657239Y-55841000D01*
X23507415Y-55811198D01*
X23357590Y-55781396D01*
X23075326Y-55664479D01*
X22821295Y-55494741D01*
X22605259Y-55278705D01*
X22435521Y-55024674D01*
X22318604Y-54742410D01*
X22259000Y-54442760D01*
X22259000Y-54137240D01*
X22318604Y-53837590D01*
X22435521Y-53555326D01*
X22605259Y-53301295D01*
X22821295Y-53085259D01*
X23075326Y-52915521D01*
X23357590Y-52798604D01*
X23507415Y-52768802D01*
X23657239Y-52739000D01*
X23962761Y-52739000D01*
X24112585Y-52768802D01*
G37*
G36*
X54592585Y-32448802D02*
G01*
X54742410Y-32478604D01*
X55024674Y-32595521D01*
X55278705Y-32765259D01*
X55494741Y-32981295D01*
X55664479Y-33235326D01*
X55781396Y-33517590D01*
X55841000Y-33817240D01*
X55841000Y-34122760D01*
X55781396Y-34422410D01*
X55664479Y-34704674D01*
X55494741Y-34958705D01*
X55278705Y-35174741D01*
X55024674Y-35344479D01*
X54742410Y-35461396D01*
X54592585Y-35491198D01*
X54442761Y-35521000D01*
X54137239Y-35521000D01*
X53987415Y-35491198D01*
X53837590Y-35461396D01*
X53555326Y-35344479D01*
X53301295Y-35174741D01*
X53085259Y-34958705D01*
X52915521Y-34704674D01*
X52798604Y-34422410D01*
X52739000Y-34122760D01*
X52739000Y-33817240D01*
X52798604Y-33517590D01*
X52915521Y-33235326D01*
X53085259Y-32981295D01*
X53301295Y-32765259D01*
X53555326Y-32595521D01*
X53837590Y-32478604D01*
X53987415Y-32448802D01*
X54137239Y-32419000D01*
X54442761Y-32419000D01*
X54592585Y-32448802D01*
G37*
G36*
X24112585Y-32448802D02*
G01*
X24262410Y-32478604D01*
X24544674Y-32595521D01*
X24798705Y-32765259D01*
X25014741Y-32981295D01*
X25184479Y-33235326D01*
X25301396Y-33517590D01*
X25361000Y-33817240D01*
X25361000Y-34122760D01*
X25301396Y-34422410D01*
X25184479Y-34704674D01*
X25014741Y-34958705D01*
X24798705Y-35174741D01*
X24544674Y-35344479D01*
X24262410Y-35461396D01*
X24112585Y-35491198D01*
X23962761Y-35521000D01*
X23657239Y-35521000D01*
X23507415Y-35491198D01*
X23357590Y-35461396D01*
X23075326Y-35344479D01*
X22821295Y-35174741D01*
X22605259Y-34958705D01*
X22435521Y-34704674D01*
X22318604Y-34422410D01*
X22259000Y-34122760D01*
X22259000Y-33817240D01*
X22318604Y-33517590D01*
X22435521Y-33235326D01*
X22605259Y-32981295D01*
X22821295Y-32765259D01*
X23075326Y-32595521D01*
X23357590Y-32478604D01*
X23507415Y-32448802D01*
X23657239Y-32419000D01*
X23962761Y-32419000D01*
X24112585Y-32448802D01*
G37*
G36*
X37893512Y-31803927D02*
G01*
X38042812Y-31833624D01*
X38206784Y-31901544D01*
X38354354Y-32000147D01*
X38479853Y-32125646D01*
X38578456Y-32273216D01*
X38646376Y-32437188D01*
X38681000Y-32611259D01*
X38681000Y-32788741D01*
X38646376Y-32962812D01*
X38578456Y-33126784D01*
X38479853Y-33274354D01*
X38354354Y-33399853D01*
X38206784Y-33498456D01*
X38042812Y-33566376D01*
X37893512Y-33596073D01*
X37868742Y-33601000D01*
X37691258Y-33601000D01*
X37666488Y-33596073D01*
X37517188Y-33566376D01*
X37353216Y-33498456D01*
X37205646Y-33399853D01*
X37080147Y-33274354D01*
X36981544Y-33126784D01*
X36913624Y-32962812D01*
X36879000Y-32788741D01*
X36879000Y-32611259D01*
X36913624Y-32437188D01*
X36981544Y-32273216D01*
X37080147Y-32125646D01*
X37205646Y-32000147D01*
X37353216Y-31901544D01*
X37517188Y-31833624D01*
X37666488Y-31803927D01*
X37691258Y-31799000D01*
X37868742Y-31799000D01*
X37893512Y-31803927D01*
G37*
G36*
X48841000Y-33601000D02*
G01*
X47039000Y-33601000D01*
X47039000Y-31799000D01*
X48841000Y-31799000D01*
X48841000Y-33601000D01*
G37*
G36*
X45513512Y-31803927D02*
G01*
X45662812Y-31833624D01*
X45826784Y-31901544D01*
X45974354Y-32000147D01*
X46099853Y-32125646D01*
X46198456Y-32273216D01*
X46266376Y-32437188D01*
X46301000Y-32611259D01*
X46301000Y-32788741D01*
X46266376Y-32962812D01*
X46198456Y-33126784D01*
X46099853Y-33274354D01*
X45974354Y-33399853D01*
X45826784Y-33498456D01*
X45662812Y-33566376D01*
X45513512Y-33596073D01*
X45488742Y-33601000D01*
X45311258Y-33601000D01*
X45286488Y-33596073D01*
X45137188Y-33566376D01*
X44973216Y-33498456D01*
X44825646Y-33399853D01*
X44700147Y-33274354D01*
X44601544Y-33126784D01*
X44533624Y-32962812D01*
X44499000Y-32788741D01*
X44499000Y-32611259D01*
X44533624Y-32437188D01*
X44601544Y-32273216D01*
X44700147Y-32125646D01*
X44825646Y-32000147D01*
X44973216Y-31901544D01*
X45137188Y-31833624D01*
X45286488Y-31803927D01*
X45311258Y-31799000D01*
X45488742Y-31799000D01*
X45513512Y-31803927D01*
G37*
G36*
X42973512Y-31803927D02*
G01*
X43122812Y-31833624D01*
X43286784Y-31901544D01*
X43434354Y-32000147D01*
X43559853Y-32125646D01*
X43658456Y-32273216D01*
X43726376Y-32437188D01*
X43761000Y-32611259D01*
X43761000Y-32788741D01*
X43726376Y-32962812D01*
X43658456Y-33126784D01*
X43559853Y-33274354D01*
X43434354Y-33399853D01*
X43286784Y-33498456D01*
X43122812Y-33566376D01*
X42973512Y-33596073D01*
X42948742Y-33601000D01*
X42771258Y-33601000D01*
X42746488Y-33596073D01*
X42597188Y-33566376D01*
X42433216Y-33498456D01*
X42285646Y-33399853D01*
X42160147Y-33274354D01*
X42061544Y-33126784D01*
X41993624Y-32962812D01*
X41959000Y-32788741D01*
X41959000Y-32611259D01*
X41993624Y-32437188D01*
X42061544Y-32273216D01*
X42160147Y-32125646D01*
X42285646Y-32000147D01*
X42433216Y-31901544D01*
X42597188Y-31833624D01*
X42746488Y-31803927D01*
X42771258Y-31799000D01*
X42948742Y-31799000D01*
X42973512Y-31803927D01*
G37*
G36*
X40433512Y-31803927D02*
G01*
X40582812Y-31833624D01*
X40746784Y-31901544D01*
X40894354Y-32000147D01*
X41019853Y-32125646D01*
X41118456Y-32273216D01*
X41186376Y-32437188D01*
X41221000Y-32611259D01*
X41221000Y-32788741D01*
X41186376Y-32962812D01*
X41118456Y-33126784D01*
X41019853Y-33274354D01*
X40894354Y-33399853D01*
X40746784Y-33498456D01*
X40582812Y-33566376D01*
X40433512Y-33596073D01*
X40408742Y-33601000D01*
X40231258Y-33601000D01*
X40206488Y-33596073D01*
X40057188Y-33566376D01*
X39893216Y-33498456D01*
X39745646Y-33399853D01*
X39620147Y-33274354D01*
X39521544Y-33126784D01*
X39453624Y-32962812D01*
X39419000Y-32788741D01*
X39419000Y-32611259D01*
X39453624Y-32437188D01*
X39521544Y-32273216D01*
X39620147Y-32125646D01*
X39745646Y-32000147D01*
X39893216Y-31901544D01*
X40057188Y-31833624D01*
X40206488Y-31803927D01*
X40231258Y-31799000D01*
X40408742Y-31799000D01*
X40433512Y-31803927D01*
G37*
G36*
X35353512Y-31803927D02*
G01*
X35502812Y-31833624D01*
X35666784Y-31901544D01*
X35814354Y-32000147D01*
X35939853Y-32125646D01*
X36038456Y-32273216D01*
X36106376Y-32437188D01*
X36141000Y-32611259D01*
X36141000Y-32788741D01*
X36106376Y-32962812D01*
X36038456Y-33126784D01*
X35939853Y-33274354D01*
X35814354Y-33399853D01*
X35666784Y-33498456D01*
X35502812Y-33566376D01*
X35353512Y-33596073D01*
X35328742Y-33601000D01*
X35151258Y-33601000D01*
X35126488Y-33596073D01*
X34977188Y-33566376D01*
X34813216Y-33498456D01*
X34665646Y-33399853D01*
X34540147Y-33274354D01*
X34441544Y-33126784D01*
X34373624Y-32962812D01*
X34339000Y-32788741D01*
X34339000Y-32611259D01*
X34373624Y-32437188D01*
X34441544Y-32273216D01*
X34540147Y-32125646D01*
X34665646Y-32000147D01*
X34813216Y-31901544D01*
X34977188Y-31833624D01*
X35126488Y-31803927D01*
X35151258Y-31799000D01*
X35328742Y-31799000D01*
X35353512Y-31803927D01*
G37*
G36*
X32813512Y-31803927D02*
G01*
X32962812Y-31833624D01*
X33126784Y-31901544D01*
X33274354Y-32000147D01*
X33399853Y-32125646D01*
X33498456Y-32273216D01*
X33566376Y-32437188D01*
X33601000Y-32611259D01*
X33601000Y-32788741D01*
X33566376Y-32962812D01*
X33498456Y-33126784D01*
X33399853Y-33274354D01*
X33274354Y-33399853D01*
X33126784Y-33498456D01*
X32962812Y-33566376D01*
X32813512Y-33596073D01*
X32788742Y-33601000D01*
X32611258Y-33601000D01*
X32586488Y-33596073D01*
X32437188Y-33566376D01*
X32273216Y-33498456D01*
X32125646Y-33399853D01*
X32000147Y-33274354D01*
X31901544Y-33126784D01*
X31833624Y-32962812D01*
X31799000Y-32788741D01*
X31799000Y-32611259D01*
X31833624Y-32437188D01*
X31901544Y-32273216D01*
X32000147Y-32125646D01*
X32125646Y-32000147D01*
X32273216Y-31901544D01*
X32437188Y-31833624D01*
X32586488Y-31803927D01*
X32611258Y-31799000D01*
X32788742Y-31799000D01*
X32813512Y-31803927D01*
G37*
G36*
X30273512Y-31803927D02*
G01*
X30422812Y-31833624D01*
X30586784Y-31901544D01*
X30734354Y-32000147D01*
X30859853Y-32125646D01*
X30958456Y-32273216D01*
X31026376Y-32437188D01*
X31061000Y-32611259D01*
X31061000Y-32788741D01*
X31026376Y-32962812D01*
X30958456Y-33126784D01*
X30859853Y-33274354D01*
X30734354Y-33399853D01*
X30586784Y-33498456D01*
X30422812Y-33566376D01*
X30273512Y-33596073D01*
X30248742Y-33601000D01*
X30071258Y-33601000D01*
X30046488Y-33596073D01*
X29897188Y-33566376D01*
X29733216Y-33498456D01*
X29585646Y-33399853D01*
X29460147Y-33274354D01*
X29361544Y-33126784D01*
X29293624Y-32962812D01*
X29259000Y-32788741D01*
X29259000Y-32611259D01*
X29293624Y-32437188D01*
X29361544Y-32273216D01*
X29460147Y-32125646D01*
X29585646Y-32000147D01*
X29733216Y-31901544D01*
X29897188Y-31833624D01*
X30046488Y-31803927D01*
X30071258Y-31799000D01*
X30248742Y-31799000D01*
X30273512Y-31803927D01*
G37*
G36*
X22379393Y-23001304D02*
G01*
X22616101Y-23099352D01*
X22616103Y-23099353D01*
X22829135Y-23241696D01*
X23010304Y-23422865D01*
X23152647Y-23635897D01*
X23152648Y-23635899D01*
X23250696Y-23872607D01*
X23300680Y-24123893D01*
X23300680Y-24380107D01*
X23250696Y-24631393D01*
X23162395Y-24844569D01*
X23152647Y-24868103D01*
X23010304Y-25081135D01*
X22829135Y-25262304D01*
X22616103Y-25404647D01*
X22616102Y-25404648D01*
X22616101Y-25404648D01*
X22379393Y-25502696D01*
X22128107Y-25552680D01*
X21871893Y-25552680D01*
X21620607Y-25502696D01*
X21383899Y-25404648D01*
X21383898Y-25404648D01*
X21383897Y-25404647D01*
X21170865Y-25262304D01*
X20989696Y-25081135D01*
X20847353Y-24868103D01*
X20837605Y-24844569D01*
X20749304Y-24631393D01*
X20699320Y-24380107D01*
X20699320Y-24123893D01*
X20749304Y-23872607D01*
X20847352Y-23635899D01*
X20847353Y-23635897D01*
X20989696Y-23422865D01*
X21170865Y-23241696D01*
X21383897Y-23099353D01*
X21383899Y-23099352D01*
X21620607Y-23001304D01*
X21871893Y-22951320D01*
X22128107Y-22951320D01*
X22379393Y-23001304D01*
G37*
G36*
X56479393Y-23001304D02*
G01*
X56716101Y-23099352D01*
X56716103Y-23099353D01*
X56929135Y-23241696D01*
X57110304Y-23422865D01*
X57252647Y-23635897D01*
X57252648Y-23635899D01*
X57350696Y-23872607D01*
X57400680Y-24123893D01*
X57400680Y-24380107D01*
X57350696Y-24631393D01*
X57262395Y-24844569D01*
X57252647Y-24868103D01*
X57110304Y-25081135D01*
X56929135Y-25262304D01*
X56716103Y-25404647D01*
X56716102Y-25404648D01*
X56716101Y-25404648D01*
X56479393Y-25502696D01*
X56228107Y-25552680D01*
X55971893Y-25552680D01*
X55720607Y-25502696D01*
X55483899Y-25404648D01*
X55483898Y-25404648D01*
X55483897Y-25404647D01*
X55270865Y-25262304D01*
X55089696Y-25081135D01*
X54947353Y-24868103D01*
X54937605Y-24844569D01*
X54849304Y-24631393D01*
X54799320Y-24380107D01*
X54799320Y-24123893D01*
X54849304Y-23872607D01*
X54947352Y-23635899D01*
X54947353Y-23635897D01*
X55089696Y-23422865D01*
X55270865Y-23241696D01*
X55483897Y-23099353D01*
X55483899Y-23099352D01*
X55720607Y-23001304D01*
X55971893Y-22951320D01*
X56228107Y-22951320D01*
X56479393Y-23001304D01*
G37*
G36*
X48164903Y-23049075D02*
G01*
X48392571Y-23143378D01*
X48597466Y-23280285D01*
X48771715Y-23454534D01*
X48908622Y-23659429D01*
X49002925Y-23887097D01*
X49051000Y-24128787D01*
X49051000Y-24375213D01*
X49002925Y-24616903D01*
X48908622Y-24844571D01*
X48771715Y-25049466D01*
X48597466Y-25223715D01*
X48392571Y-25360622D01*
X48392570Y-25360623D01*
X48392569Y-25360623D01*
X48164903Y-25454925D01*
X47923214Y-25503000D01*
X47676786Y-25503000D01*
X47435097Y-25454925D01*
X47207431Y-25360623D01*
X47207430Y-25360623D01*
X47207429Y-25360622D01*
X47002534Y-25223715D01*
X46828285Y-25049466D01*
X46691378Y-24844571D01*
X46597075Y-24616903D01*
X46549000Y-24375213D01*
X46549000Y-24128787D01*
X46597075Y-23887097D01*
X46691378Y-23659429D01*
X46828285Y-23454534D01*
X47002534Y-23280285D01*
X47207429Y-23143378D01*
X47435097Y-23049075D01*
X47676786Y-23001000D01*
X47923214Y-23001000D01*
X48164903Y-23049075D01*
G37*
G36*
X52551000Y-25503000D02*
G01*
X50049000Y-25503000D01*
X50049000Y-23001000D01*
X52551000Y-23001000D01*
X52551000Y-25503000D01*
G37*
G36*
X37664903Y-23049075D02*
G01*
X37892571Y-23143378D01*
X38097466Y-23280285D01*
X38271715Y-23454534D01*
X38408622Y-23659429D01*
X38502925Y-23887097D01*
X38551000Y-24128787D01*
X38551000Y-24375213D01*
X38502925Y-24616903D01*
X38408622Y-24844571D01*
X38271715Y-25049466D01*
X38097466Y-25223715D01*
X37892571Y-25360622D01*
X37892570Y-25360623D01*
X37892569Y-25360623D01*
X37664903Y-25454925D01*
X37423214Y-25503000D01*
X37176786Y-25503000D01*
X36935097Y-25454925D01*
X36707431Y-25360623D01*
X36707430Y-25360623D01*
X36707429Y-25360622D01*
X36502534Y-25223715D01*
X36328285Y-25049466D01*
X36191378Y-24844571D01*
X36097075Y-24616903D01*
X36049000Y-24375213D01*
X36049000Y-24128787D01*
X36097075Y-23887097D01*
X36191378Y-23659429D01*
X36328285Y-23454534D01*
X36502534Y-23280285D01*
X36707429Y-23143378D01*
X36935097Y-23049075D01*
X37176786Y-23001000D01*
X37423214Y-23001000D01*
X37664903Y-23049075D01*
G37*
G36*
X34164903Y-23049075D02*
G01*
X34392571Y-23143378D01*
X34597466Y-23280285D01*
X34771715Y-23454534D01*
X34908622Y-23659429D01*
X35002925Y-23887097D01*
X35051000Y-24128787D01*
X35051000Y-24375213D01*
X35002925Y-24616903D01*
X34908622Y-24844571D01*
X34771715Y-25049466D01*
X34597466Y-25223715D01*
X34392571Y-25360622D01*
X34392570Y-25360623D01*
X34392569Y-25360623D01*
X34164903Y-25454925D01*
X33923214Y-25503000D01*
X33676786Y-25503000D01*
X33435097Y-25454925D01*
X33207431Y-25360623D01*
X33207430Y-25360623D01*
X33207429Y-25360622D01*
X33002534Y-25223715D01*
X32828285Y-25049466D01*
X32691378Y-24844571D01*
X32597075Y-24616903D01*
X32549000Y-24375213D01*
X32549000Y-24128787D01*
X32597075Y-23887097D01*
X32691378Y-23659429D01*
X32828285Y-23454534D01*
X33002534Y-23280285D01*
X33207429Y-23143378D01*
X33435097Y-23049075D01*
X33676786Y-23001000D01*
X33923214Y-23001000D01*
X34164903Y-23049075D01*
G37*
G36*
X30664903Y-23049075D02*
G01*
X30892571Y-23143378D01*
X31097466Y-23280285D01*
X31271715Y-23454534D01*
X31408622Y-23659429D01*
X31502925Y-23887097D01*
X31551000Y-24128787D01*
X31551000Y-24375213D01*
X31502925Y-24616903D01*
X31408622Y-24844571D01*
X31271715Y-25049466D01*
X31097466Y-25223715D01*
X30892571Y-25360622D01*
X30892570Y-25360623D01*
X30892569Y-25360623D01*
X30664903Y-25454925D01*
X30423214Y-25503000D01*
X30176786Y-25503000D01*
X29935097Y-25454925D01*
X29707431Y-25360623D01*
X29707430Y-25360623D01*
X29707429Y-25360622D01*
X29502534Y-25223715D01*
X29328285Y-25049466D01*
X29191378Y-24844571D01*
X29097075Y-24616903D01*
X29049000Y-24375213D01*
X29049000Y-24128787D01*
X29097075Y-23887097D01*
X29191378Y-23659429D01*
X29328285Y-23454534D01*
X29502534Y-23280285D01*
X29707429Y-23143378D01*
X29935097Y-23049075D01*
X30176786Y-23001000D01*
X30423214Y-23001000D01*
X30664903Y-23049075D01*
G37*
G36*
X27164903Y-23049075D02*
G01*
X27392571Y-23143378D01*
X27597466Y-23280285D01*
X27771715Y-23454534D01*
X27908622Y-23659429D01*
X28002925Y-23887097D01*
X28051000Y-24128787D01*
X28051000Y-24375213D01*
X28002925Y-24616903D01*
X27908622Y-24844571D01*
X27771715Y-25049466D01*
X27597466Y-25223715D01*
X27392571Y-25360622D01*
X27392570Y-25360623D01*
X27392569Y-25360623D01*
X27164903Y-25454925D01*
X26923214Y-25503000D01*
X26676786Y-25503000D01*
X26435097Y-25454925D01*
X26207431Y-25360623D01*
X26207430Y-25360623D01*
X26207429Y-25360622D01*
X26002534Y-25223715D01*
X25828285Y-25049466D01*
X25691378Y-24844571D01*
X25597075Y-24616903D01*
X25549000Y-24375213D01*
X25549000Y-24128787D01*
X25597075Y-23887097D01*
X25691378Y-23659429D01*
X25828285Y-23454534D01*
X26002534Y-23280285D01*
X26207429Y-23143378D01*
X26435097Y-23049075D01*
X26676786Y-23001000D01*
X26923214Y-23001000D01*
X27164903Y-23049075D01*
G37*
G36*
X44664903Y-23049075D02*
G01*
X44892571Y-23143378D01*
X45097466Y-23280285D01*
X45271715Y-23454534D01*
X45408622Y-23659429D01*
X45502925Y-23887097D01*
X45551000Y-24128787D01*
X45551000Y-24375213D01*
X45502925Y-24616903D01*
X45408622Y-24844571D01*
X45271715Y-25049466D01*
X45097466Y-25223715D01*
X44892571Y-25360622D01*
X44892570Y-25360623D01*
X44892569Y-25360623D01*
X44664903Y-25454925D01*
X44423214Y-25503000D01*
X44176786Y-25503000D01*
X43935097Y-25454925D01*
X43707431Y-25360623D01*
X43707430Y-25360623D01*
X43707429Y-25360622D01*
X43502534Y-25223715D01*
X43328285Y-25049466D01*
X43191378Y-24844571D01*
X43097075Y-24616903D01*
X43049000Y-24375213D01*
X43049000Y-24128787D01*
X43097075Y-23887097D01*
X43191378Y-23659429D01*
X43328285Y-23454534D01*
X43502534Y-23280285D01*
X43707429Y-23143378D01*
X43935097Y-23049075D01*
X44176786Y-23001000D01*
X44423214Y-23001000D01*
X44664903Y-23049075D01*
G37*
G36*
X41164903Y-23049075D02*
G01*
X41392571Y-23143378D01*
X41597466Y-23280285D01*
X41771715Y-23454534D01*
X41908622Y-23659429D01*
X42002925Y-23887097D01*
X42051000Y-24128787D01*
X42051000Y-24375213D01*
X42002925Y-24616903D01*
X41908622Y-24844571D01*
X41771715Y-25049466D01*
X41597466Y-25223715D01*
X41392571Y-25360622D01*
X41392570Y-25360623D01*
X41392569Y-25360623D01*
X41164903Y-25454925D01*
X40923214Y-25503000D01*
X40676786Y-25503000D01*
X40435097Y-25454925D01*
X40207431Y-25360623D01*
X40207430Y-25360623D01*
X40207429Y-25360622D01*
X40002534Y-25223715D01*
X39828285Y-25049466D01*
X39691378Y-24844571D01*
X39597075Y-24616903D01*
X39549000Y-24375213D01*
X39549000Y-24128787D01*
X39597075Y-23887097D01*
X39691378Y-23659429D01*
X39828285Y-23454534D01*
X40002534Y-23280285D01*
X40207429Y-23143378D01*
X40435097Y-23049075D01*
X40676786Y-23001000D01*
X40923214Y-23001000D01*
X41164903Y-23049075D01*
G37*
M02*
