<?xml version="1.0" standalone="no"?>
 <!DOCTYPE svg PUBLIC "-//W3C//DTD SVG 1.1//EN" 
 "http://www.w3.org/Graphics/SVG/1.1/DTD/svg11.dtd"> 
<svg xmlns="http://www.w3.org/2000/svg" version="1.1" 
    width="29.7002cm" height="21.0007cm" viewBox="0 0 116930 82680 ">
<title>SVG Picture created as C12-B_SilkS.svg date 2022/11/04 12:23:17 </title>
  <desc>Picture generated by PCBNEW </desc>
<g style="fill:#000000; fill-opacity:1;stroke:#000000; stroke-opacity:1;
stroke-linecap:round; stroke-linejoin:round; "
 transform="translate(0 0) scale(1 1)">
</g>
<g style="fill:#000000; fill-opacity:0.0; 
stroke:#000000; stroke-width:-0.000393701; stroke-opacity:1; 
stroke-linecap:round; stroke-linejoin:round;">
</g>
<g style="fill:#000000; fill-opacity:0.0; 
stroke:#000000; stroke-width:19.685; stroke-opacity:1; 
stroke-linecap:round; stroke-linejoin:round;">
<path d="M22874 7874
L22874 26874
" />
<path d="M7874 26874
L22874 26874
" />
<path d="M7874 7874
L22874 7874
" />
<path d="M7874 7874
L7874 26874
" />
</g>
<g style="fill:#000000; fill-opacity:0.0; 
stroke:#000000; stroke-width:47.2441; stroke-opacity:1; 
stroke-linecap:round; stroke-linejoin:round;">
<path d="M9566 11066
L9566 10515
" />
<path d="M9291 10240
L9055 10240
" />
<path d="M8779 10515
L8779 11066
" />
<path d="M9055 11342
L9291 11342
" />
<path d="M9291.34 11342.5 A275.591 275.591 0.0 0 0 9566.93 11066.9 " />
<path d="M8779.53 11066.9 A275.591 275.591 0.0 0 0 9055.12 11342.5 " />
<path d="M9055.12 10240.2 A275.591 275.591 0.0 0 0 8779.53 10515.7 " />
<path d="M9566.93 10515.7 A275.591 275.591 0.0 0 0 9291.34 10240.2 " />
<path d="M10944 11066
L10944 10515
" />
<path d="M10669 10240
L10433 10240
" />
<path d="M10157 10515
L10157 11066
" />
<path d="M10433 11342
L10669 11342
" />
<path d="M10669.3 11342.5 A275.591 275.591 0.0 0 0 10944.9 11066.9 " />
<path d="M10157.5 11066.9 A275.591 275.591 0.0 0 0 10433.1 11342.5 " />
<path d="M10433.1 10240.2 A275.591 275.591 0.0 0 0 10157.5 10515.7 " />
<path d="M10944.9 10515.7 A275.591 275.591 0.0 0 0 10669.3 10240.2 " />
<path d="M12322 11066
L12322 10515
" />
<path d="M12047 10240
L11811 10240
" />
<path d="M11535 10515
L11535 11066
" />
<path d="M11811 11342
L12047 11342
" />
<path d="M12047.2 11342.5 A275.591 275.591 0.0 0 0 12322.8 11066.9 " />
<path d="M11535.4 11066.9 A275.591 275.591 0.0 0 0 11811 11342.5 " />
<path d="M11811 10240.2 A275.591 275.591 0.0 0 0 11535.4 10515.7 " />
<path d="M12322.8 10515.7 A275.591 275.591 0.0 0 0 12047.2 10240.2 " />
<path d="M13700 11066
L13700 10515
" />
<path d="M13425 10240
L13188 10240
" />
<path d="M12913 10515
L12913 11066
" />
<path d="M13188 11342
L13425 11342
" />
<path d="M13425.2 11342.5 A275.591 275.591 0.0 0 0 13700.8 11066.9 " />
<path d="M12913.4 11066.9 A275.591 275.591 0.0 0 0 13189 11342.5 " />
<path d="M13189 10240.2 A275.591 275.591 0.0 0 0 12913.4 10515.7 " />
<path d="M13700.8 10515.7 A275.591 275.591 0.0 0 0 13425.2 10240.2 " />
<path d="M15078 11066
L15078 10515
" />
<path d="M14803 10240
L14566 10240
" />
<path d="M14291 10515
L14291 11066
" />
<path d="M14566 11342
L14803 11342
" />
<path d="M14803.1 11342.5 A275.591 275.591 0.0 0 0 15078.7 11066.9 " />
<path d="M14291.3 11066.9 A275.591 275.591 0.0 0 0 14566.9 11342.5 " />
<path d="M14566.9 10240.2 A275.591 275.591 0.0 0 0 14291.3 10515.7 " />
<path d="M15078.7 10515.7 A275.591 275.591 0.0 0 0 14803.1 10240.2 " />
<path d="M16456 11066
L16456 10515
" />
<path d="M16181 10240
L15944 10240
" />
<path d="M15669 10515
L15669 11066
" />
<path d="M15944 11342
L16181 11342
" />
<path d="M16181.1 11342.5 A275.591 275.591 0.0 0 0 16456.7 11066.9 " />
<path d="M15669.3 11066.9 A275.591 275.591 0.0 0 0 15944.9 11342.5 " />
<path d="M15944.9 10240.2 A275.591 275.591 0.0 0 0 15669.3 10515.7 " />
<path d="M16456.7 10515.7 A275.591 275.591 0.0 0 0 16181.1 10240.2 " />
<path d="M17834 11066
L17834 10515
" />
<path d="M17559 10240
L17322 10240
" />
<path d="M17047 10515
L17047 11066
" />
<path d="M17322 11342
L17559 11342
" />
<path d="M17559.1 11342.5 A275.591 275.591 0.0 0 0 17834.6 11066.9 " />
<path d="M17047.2 11066.9 A275.591 275.591 0.0 0 0 17322.8 11342.5 " />
<path d="M17322.8 10240.2 A275.591 275.591 0.0 0 0 17047.2 10515.7 " />
<path d="M17834.6 10515.7 A275.591 275.591 0.0 0 0 17559.1 10240.2 " />
<path d="M19212 11066
L19212 10515
" />
<path d="M18937 10240
L18700 10240
" />
<path d="M18425 10515
L18425 11066
" />
<path d="M18700 11342
L18937 11342
" />
<path d="M18937 11342.5 A275.591 275.591 0.0 0 0 19212.6 11066.9 " />
<path d="M18425.2 11066.9 A275.591 275.591 0.0 0 0 18700.8 11342.5 " />
<path d="M18700.8 10240.2 A275.591 275.591 0.0 0 0 18425.2 10515.7 " />
<path d="M19212.6 10515.7 A275.591 275.591 0.0 0 0 18937 10240.2 " />
<path d="M20590 11066
L20590 10515
" />
<path d="M20314 10240
L20078 10240
" />
<path d="M19803 10515
L19803 11066
" />
<path d="M20078 11342
L20314 11342
" />
<path d="M20315 11342.5 A275.591 275.591 0.0 0 0 20590.6 11066.9 " />
<path d="M19803.1 11066.9 A275.591 275.591 0.0 0 0 20078.7 11342.5 " />
<path d="M20078.7 10240.2 A275.591 275.591 0.0 0 0 19803.1 10515.7 " />
<path d="M20590.6 10515.7 A275.591 275.591 0.0 0 0 20315 10240.2 " />
<path d="M21968 11066
L21968 10515
" />
<path d="M21692 10240
L21456 10240
" />
<path d="M21181 10515
L21181 11066
" />
<path d="M21456 11342
L21692 11342
" />
<path d="M21692.9 11342.5 A275.591 275.591 0.0 0 0 21968.5 11066.9 " />
<path d="M21181.1 11066.9 A275.591 275.591 0.0 0 0 21456.7 11342.5 " />
<path d="M21456.7 10240.2 A275.591 275.591 0.0 0 0 21181.1 10515.7 " />
<path d="M21968.5 10515.7 A275.591 275.591 0.0 0 0 21692.9 10240.2 " />
<path d="M10480 13796
L10480 14347
" />
<path d="M10755 14623
L10992 14623
" />
<path d="M11267 14347
L11267 13796
" />
<path d="M10992 13520
L10755 13520
" />
<path d="M10755.9 13520.9 A275.591 275.591 0.0 0 0 10480.3 13796.5 " />
<path d="M11267.7 13796.5 A275.591 275.591 0.0 0 0 10992.1 13520.9 " />
<path d="M10992.1 14623.2 A275.591 275.591 0.0 0 0 11267.7 14347.6 " />
<path d="M10480.3 14347.6 A275.591 275.591 0.0 0 0 10755.9 14623.2 " />
<path d="M11480 13796
L11480 14347
" />
<path d="M11755 14623
L11992 14623
" />
<path d="M12267 14347
L12267 13796
" />
<path d="M11992 13520
L11755 13520
" />
<path d="M11755.9 13520.9 A275.591 275.591 0.0 0 0 11480.3 13796.5 " />
<path d="M12267.7 13796.5 A275.591 275.591 0.0 0 0 11992.1 13520.9 " />
<path d="M11992.1 14623.2 A275.591 275.591 0.0 0 0 12267.7 14347.6 " />
<path d="M11480.3 14347.6 A275.591 275.591 0.0 0 0 11755.9 14623.2 " />
<path d="M12480 13796
L12480 14347
" />
<path d="M12755 14623
L12992 14623
" />
<path d="M13267 14347
L13267 13796
" />
<path d="M12992 13520
L12755 13520
" />
<path d="M12755.9 13520.9 A275.591 275.591 0.0 0 0 12480.3 13796.5 " />
<path d="M13267.7 13796.5 A275.591 275.591 0.0 0 0 12992.1 13520.9 " />
<path d="M12992.1 14623.2 A275.591 275.591 0.0 0 0 13267.7 14347.6 " />
<path d="M12480.3 14347.6 A275.591 275.591 0.0 0 0 12755.9 14623.2 " />
<path d="M13480 13796
L13480 14347
" />
<path d="M13755 14623
L13992 14623
" />
<path d="M14267 14347
L14267 13796
" />
<path d="M13992 13520
L13755 13520
" />
<path d="M13755.9 13520.9 A275.591 275.591 0.0 0 0 13480.3 13796.5 " />
<path d="M14267.7 13796.5 A275.591 275.591 0.0 0 0 13992.1 13520.9 " />
<path d="M13992.1 14623.2 A275.591 275.591 0.0 0 0 14267.7 14347.6 " />
<path d="M13480.3 14347.6 A275.591 275.591 0.0 0 0 13755.9 14623.2 " />
<path d="M14480 13796
L14480 14347
" />
<path d="M14755 14623
L14992 14623
" />
<path d="M15267 14347
L15267 13796
" />
<path d="M14992 13520
L14755 13520
" />
<path d="M14755.9 13520.9 A275.591 275.591 0.0 0 0 14480.3 13796.5 " />
<path d="M15267.7 13796.5 A275.591 275.591 0.0 0 0 14992.1 13520.9 " />
<path d="M14992.1 14623.2 A275.591 275.591 0.0 0 0 15267.7 14347.6 " />
<path d="M14480.3 14347.6 A275.591 275.591 0.0 0 0 14755.9 14623.2 " />
<path d="M15480 13796
L15480 14347
" />
<path d="M15755 14623
L15992 14623
" />
<path d="M16267 14347
L16267 13796
" />
<path d="M15992 13520
L15755 13520
" />
<path d="M15755.9 13520.9 A275.591 275.591 0.0 0 0 15480.3 13796.5 " />
<path d="M16267.7 13796.5 A275.591 275.591 0.0 0 0 15992.1 13520.9 " />
<path d="M15992.1 14623.2 A275.591 275.591 0.0 0 0 16267.7 14347.6 " />
<path d="M15480.3 14347.6 A275.591 275.591 0.0 0 0 15755.9 14623.2 " />
<path d="M16480 13796
L16480 14347
" />
<path d="M16755 14623
L16992 14623
" />
<path d="M17267 14347
L17267 13796
" />
<path d="M16992 13520
L16755 13520
" />
<path d="M16755.9 13520.9 A275.591 275.591 0.0 0 0 16480.3 13796.5 " />
<path d="M17267.7 13796.5 A275.591 275.591 0.0 0 0 16992.1 13520.9 " />
<path d="M16992.1 14623.2 A275.591 275.591 0.0 0 0 17267.7 14347.6 " />
<path d="M16480.3 14347.6 A275.591 275.591 0.0 0 0 16755.9 14623.2 " />
<path d="M17480 13796
L17480 14347
" />
<path d="M17755 14623
L17992 14623
" />
<path d="M18267 14347
L18267 13796
" />
<path d="M17992 13520
L17755 13520
" />
<path d="M17755.9 13520.9 A275.591 275.591 0.0 0 0 17480.3 13796.5 " />
<path d="M18267.7 13796.5 A275.591 275.591 0.0 0 0 17992.1 13520.9 " />
<path d="M17992.1 14623.2 A275.591 275.591 0.0 0 0 18267.7 14347.6 " />
<path d="M17480.3 14347.6 A275.591 275.591 0.0 0 0 17755.9 14623.2 " />
<path d="M18480 13796
L18480 14347
" />
<path d="M18755 14623
L18992 14623
" />
<path d="M19267 14347
L19267 13796
" />
<path d="M18992 13520
L18755 13520
" />
<path d="M18755.9 13520.9 A275.591 275.591 0.0 0 0 18480.3 13796.5 " />
<path d="M19267.7 13796.5 A275.591 275.591 0.0 0 0 18992.1 13520.9 " />
<path d="M18992.1 14623.2 A275.591 275.591 0.0 0 0 19267.7 14347.6 " />
<path d="M18480.3 14347.6 A275.591 275.591 0.0 0 0 18755.9 14623.2 " />
<path d="M19480 13796
L19480 14347
" />
<path d="M19755 14623
L19992 14623
" />
<path d="M20267 14347
L20267 13796
" />
<path d="M19992 13520
L19755 13520
" />
<path d="M19755.9 13520.9 A275.591 275.591 0.0 0 0 19480.3 13796.5 " />
<path d="M20267.7 13796.5 A275.591 275.591 0.0 0 0 19992.1 13520.9 " />
<path d="M19992.1 14623.2 A275.591 275.591 0.0 0 0 20267.7 14347.6 " />
<path d="M19480.3 14347.6 A275.591 275.591 0.0 0 0 19755.9 14623.2 " />
<path d="M21968 24232
L21968 23681
" />
<path d="M21692 23405
L21456 23405
" />
<path d="M21181 23681
L21181 24232
" />
<path d="M21456 24507
L21692 24507
" />
<path d="M21692.9 24507.9 A275.591 275.591 0.0 0 0 21968.5 24232.3 " />
<path d="M21181.1 24232.3 A275.591 275.591 0.0 0 0 21456.7 24507.9 " />
<path d="M21456.7 23405.5 A275.591 275.591 0.0 0 0 21181.1 23681.1 " />
<path d="M21968.5 23681.1 A275.591 275.591 0.0 0 0 21692.9 23405.5 " />
<path d="M20590 24232
L20590 23681
" />
<path d="M20314 23405
L20078 23405
" />
<path d="M19803 23681
L19803 24232
" />
<path d="M20078 24507
L20314 24507
" />
<path d="M20315 24507.9 A275.591 275.591 0.0 0 0 20590.6 24232.3 " />
<path d="M19803.1 24232.3 A275.591 275.591 0.0 0 0 20078.7 24507.9 " />
<path d="M20078.7 23405.5 A275.591 275.591 0.0 0 0 19803.1 23681.1 " />
<path d="M20590.6 23681.1 A275.591 275.591 0.0 0 0 20315 23405.5 " />
<path d="M19212 24232
L19212 23681
" />
<path d="M18937 23405
L18700 23405
" />
<path d="M18425 23681
L18425 24232
" />
<path d="M18700 24507
L18937 24507
" />
<path d="M18937 24507.9 A275.591 275.591 0.0 0 0 19212.6 24232.3 " />
<path d="M18425.2 24232.3 A275.591 275.591 0.0 0 0 18700.8 24507.9 " />
<path d="M18700.8 23405.5 A275.591 275.591 0.0 0 0 18425.2 23681.1 " />
<path d="M19212.6 23681.1 A275.591 275.591 0.0 0 0 18937 23405.5 " />
<path d="M17834 24232
L17834 23681
" />
<path d="M17559 23405
L17322 23405
" />
<path d="M17047 23681
L17047 24232
" />
<path d="M17322 24507
L17559 24507
" />
<path d="M17559.1 24507.9 A275.591 275.591 0.0 0 0 17834.6 24232.3 " />
<path d="M17047.2 24232.3 A275.591 275.591 0.0 0 0 17322.8 24507.9 " />
<path d="M17322.8 23405.5 A275.591 275.591 0.0 0 0 17047.2 23681.1 " />
<path d="M17834.6 23681.1 A275.591 275.591 0.0 0 0 17559.1 23405.5 " />
<path d="M16456 24232
L16456 23681
" />
<path d="M16181 23405
L15944 23405
" />
<path d="M15669 23681
L15669 24232
" />
<path d="M15944 24507
L16181 24507
" />
<path d="M16181.1 24507.9 A275.591 275.591 0.0 0 0 16456.7 24232.3 " />
<path d="M15669.3 24232.3 A275.591 275.591 0.0 0 0 15944.9 24507.9 " />
<path d="M15944.9 23405.5 A275.591 275.591 0.0 0 0 15669.3 23681.1 " />
<path d="M16456.7 23681.1 A275.591 275.591 0.0 0 0 16181.1 23405.5 " />
<path d="M15078 24232
L15078 23681
" />
<path d="M14803 23405
L14566 23405
" />
<path d="M14291 23681
L14291 24232
" />
<path d="M14566 24507
L14803 24507
" />
<path d="M14803.1 24507.9 A275.591 275.591 0.0 0 0 15078.7 24232.3 " />
<path d="M14291.3 24232.3 A275.591 275.591 0.0 0 0 14566.9 24507.9 " />
<path d="M14566.9 23405.5 A275.591 275.591 0.0 0 0 14291.3 23681.1 " />
<path d="M15078.7 23681.1 A275.591 275.591 0.0 0 0 14803.1 23405.5 " />
<path d="M13700 24232
L13700 23681
" />
<path d="M13425 23405
L13188 23405
" />
<path d="M12913 23681
L12913 24232
" />
<path d="M13188 24507
L13425 24507
" />
<path d="M13425.2 24507.9 A275.591 275.591 0.0 0 0 13700.8 24232.3 " />
<path d="M12913.4 24232.3 A275.591 275.591 0.0 0 0 13189 24507.9 " />
<path d="M13189 23405.5 A275.591 275.591 0.0 0 0 12913.4 23681.1 " />
<path d="M13700.8 23681.1 A275.591 275.591 0.0 0 0 13425.2 23405.5 " />
<path d="M12322 24232
L12322 23681
" />
<path d="M12047 23405
L11811 23405
" />
<path d="M11535 23681
L11535 24232
" />
<path d="M11811 24507
L12047 24507
" />
<path d="M12047.2 24507.9 A275.591 275.591 0.0 0 0 12322.8 24232.3 " />
<path d="M11535.4 24232.3 A275.591 275.591 0.0 0 0 11811 24507.9 " />
<path d="M11811 23405.5 A275.591 275.591 0.0 0 0 11535.4 23681.1 " />
<path d="M12322.8 23681.1 A275.591 275.591 0.0 0 0 12047.2 23405.5 " />
<path d="M10944 24232
L10944 23681
" />
<path d="M10669 23405
L10433 23405
" />
<path d="M10157 23681
L10157 24232
" />
<path d="M10433 24507
L10669 24507
" />
<path d="M10669.3 24507.9 A275.591 275.591 0.0 0 0 10944.9 24232.3 " />
<path d="M10157.5 24232.3 A275.591 275.591 0.0 0 0 10433.1 24507.9 " />
<path d="M10433.1 23405.5 A275.591 275.591 0.0 0 0 10157.5 23681.1 " />
<path d="M10944.9 23681.1 A275.591 275.591 0.0 0 0 10669.3 23405.5 " />
<path d="M9566 24232
L9566 23681
" />
<path d="M9291 23405
L9055 23405
" />
<path d="M8779 23681
L8779 24232
" />
<path d="M9055 24507
L9291 24507
" />
<path d="M9291.34 24507.9 A275.591 275.591 0.0 0 0 9566.93 24232.3 " />
<path d="M8779.53 24232.3 A275.591 275.591 0.0 0 0 9055.12 24507.9 " />
<path d="M9055.12 23405.5 A275.591 275.591 0.0 0 0 8779.53 23681.1 " />
<path d="M9566.93 23681.1 A275.591 275.591 0.0 0 0 9291.34 23405.5 " />
<path d="M19480 20400
L19480 20951
" />
<path d="M19755 21227
L19992 21227
" />
<path d="M20267 20951
L20267 20400
" />
<path d="M19992 20124
L19755 20124
" />
<path d="M19755.9 20124.8 A275.591 275.591 0.0 0 0 19480.3 20400.4 " />
<path d="M20267.7 20400.4 A275.591 275.591 0.0 0 0 19992.1 20124.8 " />
<path d="M19992.1 21227.2 A275.591 275.591 0.0 0 0 20267.7 20951.6 " />
<path d="M19480.3 20951.6 A275.591 275.591 0.0 0 0 19755.9 21227.2 " />
<path d="M18480 20400
L18480 20951
" />
<path d="M18755 21227
L18992 21227
" />
<path d="M19267 20951
L19267 20400
" />
<path d="M18992 20124
L18755 20124
" />
<path d="M18755.9 20124.8 A275.591 275.591 0.0 0 0 18480.3 20400.4 " />
<path d="M19267.7 20400.4 A275.591 275.591 0.0 0 0 18992.1 20124.8 " />
<path d="M18992.1 21227.2 A275.591 275.591 0.0 0 0 19267.7 20951.6 " />
<path d="M18480.3 20951.6 A275.591 275.591 0.0 0 0 18755.9 21227.2 " />
<path d="M17480 20400
L17480 20951
" />
<path d="M17755 21227
L17992 21227
" />
<path d="M18267 20951
L18267 20400
" />
<path d="M17992 20124
L17755 20124
" />
<path d="M17755.9 20124.8 A275.591 275.591 0.0 0 0 17480.3 20400.4 " />
<path d="M18267.7 20400.4 A275.591 275.591 0.0 0 0 17992.1 20124.8 " />
<path d="M17992.1 21227.2 A275.591 275.591 0.0 0 0 18267.7 20951.6 " />
<path d="M17480.3 20951.6 A275.591 275.591 0.0 0 0 17755.9 21227.2 " />
<path d="M16480 20400
L16480 20951
" />
<path d="M16755 21227
L16992 21227
" />
<path d="M17267 20951
L17267 20400
" />
<path d="M16992 20124
L16755 20124
" />
<path d="M16755.9 20124.8 A275.591 275.591 0.0 0 0 16480.3 20400.4 " />
<path d="M17267.7 20400.4 A275.591 275.591 0.0 0 0 16992.1 20124.8 " />
<path d="M16992.1 21227.2 A275.591 275.591 0.0 0 0 17267.7 20951.6 " />
<path d="M16480.3 20951.6 A275.591 275.591 0.0 0 0 16755.9 21227.2 " />
<path d="M15480 20400
L15480 20951
" />
<path d="M15755 21227
L15992 21227
" />
<path d="M16267 20951
L16267 20400
" />
<path d="M15992 20124
L15755 20124
" />
<path d="M15755.9 20124.8 A275.591 275.591 0.0 0 0 15480.3 20400.4 " />
<path d="M16267.7 20400.4 A275.591 275.591 0.0 0 0 15992.1 20124.8 " />
<path d="M15992.1 21227.2 A275.591 275.591 0.0 0 0 16267.7 20951.6 " />
<path d="M15480.3 20951.6 A275.591 275.591 0.0 0 0 15755.9 21227.2 " />
<path d="M14480 20400
L14480 20951
" />
<path d="M14755 21227
L14992 21227
" />
<path d="M15267 20951
L15267 20400
" />
<path d="M14992 20124
L14755 20124
" />
<path d="M14755.9 20124.8 A275.591 275.591 0.0 0 0 14480.3 20400.4 " />
<path d="M15267.7 20400.4 A275.591 275.591 0.0 0 0 14992.1 20124.8 " />
<path d="M14992.1 21227.2 A275.591 275.591 0.0 0 0 15267.7 20951.6 " />
<path d="M14480.3 20951.6 A275.591 275.591 0.0 0 0 14755.9 21227.2 " />
<path d="M13480 20400
L13480 20951
" />
<path d="M13755 21227
L13992 21227
" />
<path d="M14267 20951
L14267 20400
" />
<path d="M13992 20124
L13755 20124
" />
<path d="M13755.9 20124.8 A275.591 275.591 0.0 0 0 13480.3 20400.4 " />
<path d="M14267.7 20400.4 A275.591 275.591 0.0 0 0 13992.1 20124.8 " />
<path d="M13992.1 21227.2 A275.591 275.591 0.0 0 0 14267.7 20951.6 " />
<path d="M13480.3 20951.6 A275.591 275.591 0.0 0 0 13755.9 21227.2 " />
<path d="M12480 20400
L12480 20951
" />
<path d="M12755 21227
L12992 21227
" />
<path d="M13267 20951
L13267 20400
" />
<path d="M12992 20124
L12755 20124
" />
<path d="M12755.9 20124.8 A275.591 275.591 0.0 0 0 12480.3 20400.4 " />
<path d="M13267.7 20400.4 A275.591 275.591 0.0 0 0 12992.1 20124.8 " />
<path d="M12992.1 21227.2 A275.591 275.591 0.0 0 0 13267.7 20951.6 " />
<path d="M12480.3 20951.6 A275.591 275.591 0.0 0 0 12755.9 21227.2 " />
<path d="M11480 20400
L11480 20951
" />
<path d="M11755 21227
L11992 21227
" />
<path d="M12267 20951
L12267 20400
" />
<path d="M11992 20124
L11755 20124
" />
<path d="M11755.9 20124.8 A275.591 275.591 0.0 0 0 11480.3 20400.4 " />
<path d="M12267.7 20400.4 A275.591 275.591 0.0 0 0 11992.1 20124.8 " />
<path d="M11992.1 21227.2 A275.591 275.591 0.0 0 0 12267.7 20951.6 " />
<path d="M11480.3 20951.6 A275.591 275.591 0.0 0 0 11755.9 21227.2 " />
<path d="M10480 20400
L10480 20951
" />
<path d="M10755 21227
L10992 21227
" />
<path d="M11267 20951
L11267 20400
" />
<path d="M10992 20124
L10755 20124
" />
<path d="M10755.9 20124.8 A275.591 275.591 0.0 0 0 10480.3 20400.4 " />
<path d="M11267.7 20400.4 A275.591 275.591 0.0 0 0 10992.1 20124.8 " />
<path d="M10992.1 21227.2 A275.591 275.591 0.0 0 0 11267.7 20951.6 " />
<path d="M10480.3 20951.6 A275.591 275.591 0.0 0 0 10755.9 21227.2 " />
<g >
</g>
<g >
</g>
<g >
</g>
<g >
</g>
<g >
</g>
<g >
</g>
<g >
</g>
<g >
</g>
<g >
</g>
<g >
</g>
<g >
</g>
<g >
</g>
<g >
</g>
<g >
</g>
<g >
</g>
<g >
</g>
<g >
</g>
<g >
</g>
<g >
</g>
<g >
</g>
<g >
</g>
<g >
</g>
<g >
</g>
<g >
</g>
<g >
</g>
<g >
</g>
<g >
</g>
<g >
</g>
<g >
</g>
<g >
</g>
<g >
</g>
<g >
</g>
<g >
</g>
<g >
</g>
<g >
</g>
<g >
</g>
<g >
</g>
<g >
</g>
<g >
</g>
<g >
</g>
<g >
</g>
<g >
</g>
<g >
</g>
<g >
</g>
<g >
</g>
<g >
</g>
<g >
</g>
<g >
</g>
<g >
</g>
<g >
</g>
<g >
</g>
<g >
</g>
<g >
</g>
<g >
</g>
</g>
<g style="fill:#000000; fill-opacity:0.0; 
stroke:#000000; stroke-width:47.2441; stroke-opacity:1; 
stroke-linecap:round; stroke-linejoin:round;">
</g>
<g style="fill:#000000; fill-opacity:0.0; 
stroke:#000000; stroke-width:59.0551; stroke-opacity:1; 
stroke-linecap:round; stroke-linejoin:round;">
<g transform="rotate(-90 9881.89 10791.3)">
<text x="9881.89" y="10988.2"
textLength="-1366.8" font-size="-524.934" lengthAdjust="spacingAndGlyphs"
text-anchor="middle" opacity="0">JP40</text>
</g>
<path d="M9666 10275
L9947 10275
L10003 10257
L10041 10219
L10059 10163
L10059 10125
" />
<path d="M10059 10463
L9666 10463
L9666 10613
L9685 10650
L9703 10669
L9741 10688
L9797 10688
L9835 10669
L9853 10650
L9872 10613
L9872 10463
" />
<path d="M9797 11025
L10059 11025
" />
<path d="M9647 10931
L9928 10838
L9928 11081
" />
<path d="M9666 11306
L9666 11344
L9685 11381
L9703 11400
L9741 11419
L9816 11438
L9910 11438
L9985 11419
L10022 11400
L10041 11381
L10059 11344
L10059 11306
L10041 11269
L10022 11250
L9985 11231
L9910 11213
L9816 11213
L9741 11231
L9703 11250
L9685 11269
L9666 11306
" />
<g transform="rotate(-90 11259.8 10791.3)">
<text x="11259.8" y="10988.2"
textLength="-1366.8" font-size="-524.934" lengthAdjust="spacingAndGlyphs"
text-anchor="middle" opacity="0">JP39</text>
</g>
<path d="M11044 10275
L11325 10275
L11381 10257
L11419 10219
L11437 10163
L11437 10125
" />
<path d="M11437 10463
L11044 10463
L11044 10613
L11062 10650
L11081 10669
L11119 10688
L11175 10688
L11212 10669
L11231 10650
L11250 10613
L11250 10463
" />
<path d="M11044 10819
L11044 11063
L11194 10931
L11194 10988
L11212 11025
L11231 11044
L11269 11063
L11362 11063
L11400 11044
L11419 11025
L11437 10988
L11437 10875
L11419 10838
L11400 10819
" />
<path d="M11437 11250
L11437 11325
L11419 11363
L11400 11381
L11344 11419
L11269 11438
L11119 11438
L11081 11419
L11062 11400
L11044 11363
L11044 11288
L11062 11250
L11081 11231
L11119 11213
L11212 11213
L11250 11231
L11269 11250
L11287 11288
L11287 11363
L11269 11400
L11250 11419
L11212 11438
" />
<g transform="rotate(-90 12637.8 10791.3)">
<text x="12637.8" y="10988.2"
textLength="-1366.8" font-size="-524.934" lengthAdjust="spacingAndGlyphs"
text-anchor="middle" opacity="0">JP38</text>
</g>
<path d="M12422 10275
L12703 10275
L12759 10257
L12797 10219
L12815 10163
L12815 10125
" />
<path d="M12815 10463
L12422 10463
L12422 10613
L12440 10650
L12459 10669
L12497 10688
L12553 10688
L12590 10669
L12609 10650
L12628 10613
L12628 10463
" />
<path d="M12422 10819
L12422 11063
L12572 10931
L12572 10988
L12590 11025
L12609 11044
L12647 11063
L12740 11063
L12778 11044
L12797 11025
L12815 10988
L12815 10875
L12797 10838
L12778 10819
" />
<path d="M12590 11288
L12572 11250
L12553 11231
L12515 11213
L12497 11213
L12459 11231
L12440 11250
L12422 11288
L12422 11363
L12440 11400
L12459 11419
L12497 11438
L12515 11438
L12553 11419
L12572 11400
L12590 11363
L12590 11288
L12609 11250
L12628 11231
L12665 11213
L12740 11213
L12778 11231
L12797 11250
L12815 11288
L12815 11363
L12797 11400
L12778 11419
L12740 11438
L12665 11438
L12628 11419
L12609 11400
L12590 11363
" />
<g transform="rotate(-90 14015.7 10791.3)">
<text x="14015.7" y="10988.2"
textLength="-1366.8" font-size="-524.934" lengthAdjust="spacingAndGlyphs"
text-anchor="middle" opacity="0">JP37</text>
</g>
<path d="M13800 10275
L14081 10275
L14137 10257
L14175 10219
L14193 10163
L14193 10125
" />
<path d="M14193 10463
L13800 10463
L13800 10613
L13818 10650
L13837 10669
L13875 10688
L13931 10688
L13968 10669
L13987 10650
L14006 10613
L14006 10463
" />
<path d="M13800 10819
L13800 11063
L13950 10931
L13950 10988
L13968 11025
L13987 11044
L14025 11063
L14118 11063
L14156 11044
L14175 11025
L14193 10988
L14193 10875
L14175 10838
L14156 10819
" />
<path d="M13800 11194
L13800 11456
L14193 11288
" />
<g transform="rotate(-90 15393.7 10791.3)">
<text x="15393.7" y="10988.2"
textLength="-1366.8" font-size="-524.934" lengthAdjust="spacingAndGlyphs"
text-anchor="middle" opacity="0">JP36</text>
</g>
<path d="M15178 10275
L15459 10275
L15515 10257
L15553 10219
L15571 10163
L15571 10125
" />
<path d="M15571 10463
L15178 10463
L15178 10613
L15196 10650
L15215 10669
L15253 10688
L15309 10688
L15346 10669
L15365 10650
L15384 10613
L15384 10463
" />
<path d="M15178 10819
L15178 11063
L15328 10931
L15328 10988
L15346 11025
L15365 11044
L15403 11063
L15496 11063
L15534 11044
L15553 11025
L15571 10988
L15571 10875
L15553 10838
L15534 10819
" />
<path d="M15178 11400
L15178 11325
L15196 11288
L15215 11269
L15271 11231
L15346 11213
L15496 11213
L15534 11231
L15553 11250
L15571 11288
L15571 11363
L15553 11400
L15534 11419
L15496 11438
L15403 11438
L15365 11419
L15346 11400
L15328 11363
L15328 11288
L15346 11250
L15365 11231
L15403 11213
" />
<g transform="rotate(-90 16771.7 10791.3)">
<text x="16771.7" y="10988.2"
textLength="-1366.8" font-size="-524.934" lengthAdjust="spacingAndGlyphs"
text-anchor="middle" opacity="0">JP35</text>
</g>
<path d="M16556 10275
L16837 10275
L16893 10257
L16931 10219
L16949 10163
L16949 10125
" />
<path d="M16949 10463
L16556 10463
L16556 10613
L16574 10650
L16593 10669
L16631 10688
L16687 10688
L16724 10669
L16743 10650
L16762 10613
L16762 10463
" />
<path d="M16556 10819
L16556 11063
L16706 10931
L16706 10988
L16724 11025
L16743 11044
L16781 11063
L16874 11063
L16912 11044
L16931 11025
L16949 10988
L16949 10875
L16931 10838
L16912 10819
" />
<path d="M16556 11419
L16556 11231
L16743 11213
L16724 11231
L16706 11269
L16706 11363
L16724 11400
L16743 11419
L16781 11438
L16874 11438
L16912 11419
L16931 11400
L16949 11363
L16949 11269
L16931 11231
L16912 11213
" />
<g transform="rotate(-90 18149.6 10791.3)">
<text x="18149.6" y="10988.2"
textLength="-1366.8" font-size="-524.934" lengthAdjust="spacingAndGlyphs"
text-anchor="middle" opacity="0">JP34</text>
</g>
<path d="M17934 10275
L18215 10275
L18271 10257
L18308 10219
L18327 10163
L18327 10125
" />
<path d="M18327 10463
L17934 10463
L17934 10613
L17952 10650
L17971 10669
L18008 10688
L18065 10688
L18102 10669
L18121 10650
L18140 10613
L18140 10463
" />
<path d="M17934 10819
L17934 11063
L18083 10931
L18083 10988
L18102 11025
L18121 11044
L18158 11063
L18252 11063
L18290 11044
L18308 11025
L18327 10988
L18327 10875
L18308 10838
L18290 10819
" />
<path d="M18065 11400
L18327 11400
" />
<path d="M17915 11306
L18196 11213
L18196 11456
" />
<g transform="rotate(-90 19527.6 10791.3)">
<text x="19527.6" y="10988.2"
textLength="-1366.8" font-size="-524.934" lengthAdjust="spacingAndGlyphs"
text-anchor="middle" opacity="0">JP33</text>
</g>
<path d="M19311 10275
L19593 10275
L19649 10257
L19686 10219
L19705 10163
L19705 10125
" />
<path d="M19705 10463
L19311 10463
L19311 10613
L19330 10650
L19349 10669
L19386 10688
L19443 10688
L19480 10669
L19499 10650
L19518 10613
L19518 10463
" />
<path d="M19311 10819
L19311 11063
L19461 10931
L19461 10988
L19480 11025
L19499 11044
L19536 11063
L19630 11063
L19668 11044
L19686 11025
L19705 10988
L19705 10875
L19686 10838
L19668 10819
" />
<path d="M19311 11194
L19311 11438
L19461 11306
L19461 11363
L19480 11400
L19499 11419
L19536 11438
L19630 11438
L19668 11419
L19686 11400
L19705 11363
L19705 11250
L19686 11213
L19668 11194
" />
<g transform="rotate(-90 20905.5 10791.3)">
<text x="20905.5" y="10988.2"
textLength="-1366.8" font-size="-524.934" lengthAdjust="spacingAndGlyphs"
text-anchor="middle" opacity="0">JP32</text>
</g>
<path d="M20689 10275
L20971 10275
L21027 10257
L21064 10219
L21083 10163
L21083 10125
" />
<path d="M21083 10463
L20689 10463
L20689 10613
L20708 10650
L20727 10669
L20764 10688
L20821 10688
L20858 10669
L20877 10650
L20896 10613
L20896 10463
" />
<path d="M20689 10819
L20689 11063
L20839 10931
L20839 10988
L20858 11025
L20877 11044
L20914 11063
L21008 11063
L21046 11044
L21064 11025
L21083 10988
L21083 10875
L21064 10838
L21046 10819
" />
<path d="M20727 11213
L20708 11231
L20689 11269
L20689 11363
L20708 11400
L20727 11419
L20764 11438
L20802 11438
L20858 11419
L21083 11194
L21083 11438
" />
<g transform="rotate(-90 22283.5 10791.3)">
<text x="22283.5" y="10988.2"
textLength="-1366.8" font-size="-524.934" lengthAdjust="spacingAndGlyphs"
text-anchor="middle" opacity="0">JP31</text>
</g>
<path d="M22067 10275
L22349 10275
L22405 10257
L22442 10219
L22461 10163
L22461 10125
" />
<path d="M22461 10463
L22067 10463
L22067 10613
L22086 10650
L22105 10669
L22142 10688
L22199 10688
L22236 10669
L22255 10650
L22274 10613
L22274 10463
" />
<path d="M22067 10819
L22067 11063
L22217 10931
L22217 10988
L22236 11025
L22255 11044
L22292 11063
L22386 11063
L22424 11044
L22442 11025
L22461 10988
L22461 10875
L22442 10838
L22424 10819
" />
<path d="M22461 11438
L22461 11213
" />
<path d="M22461 11325
L22067 11325
L22124 11288
L22161 11250
L22180 11213
" />
<g transform="rotate(-90 10892 15508)">
<text x="10892" y="15704.9"
textLength="-1366.8" font-size="-524.934" lengthAdjust="spacingAndGlyphs"
text-anchor="middle" opacity="0">JP30</text>
</g>
<path d="M10676 14992
L10957 14992
L11013 14973
L11051 14936
L11070 14879
L11070 14842
" />
<path d="M11070 15179
L10676 15179
L10676 15329
L10695 15367
L10713 15386
L10751 15404
L10807 15404
L10845 15386
L10863 15367
L10882 15329
L10882 15179
" />
<path d="M10676 15536
L10676 15779
L10826 15648
L10826 15704
L10845 15742
L10863 15761
L10901 15779
L10995 15779
L11032 15761
L11051 15742
L11070 15704
L11070 15592
L11051 15554
L11032 15536
" />
<path d="M10676 16023
L10676 16061
L10695 16098
L10713 16117
L10751 16136
L10826 16154
L10920 16154
L10995 16136
L11032 16117
L11051 16098
L11070 16061
L11070 16023
L11051 15986
L11032 15967
L10995 15948
L10920 15929
L10826 15929
L10751 15948
L10713 15967
L10695 15986
L10676 16023
" />
<g transform="rotate(-90 11892 15536)">
<text x="11892" y="15732.9"
textLength="-1366.8" font-size="-524.934" lengthAdjust="spacingAndGlyphs"
text-anchor="middle" opacity="0">JP29</text>
</g>
<path d="M11676 15020
L11957 15020
L12013 15001
L12051 14964
L12070 14907
L12070 14870
" />
<path d="M12070 15207
L11676 15207
L11676 15357
L11695 15395
L11713 15414
L11751 15432
L11807 15432
L11845 15414
L11863 15395
L11882 15357
L11882 15207
" />
<path d="M11713 15582
L11695 15601
L11676 15639
L11676 15732
L11695 15770
L11713 15789
L11751 15807
L11788 15807
L11845 15789
L12070 15564
L12070 15807
" />
<path d="M12070 15995
L12070 16070
L12051 16107
L12032 16126
L11976 16164
L11901 16182
L11751 16182
L11713 16164
L11695 16145
L11676 16107
L11676 16032
L11695 15995
L11713 15976
L11751 15957
L11845 15957
L11882 15976
L11901 15995
L11920 16032
L11920 16107
L11901 16145
L11882 16164
L11845 16182
" />
<g transform="rotate(-90 12876 15508)">
<text x="12876" y="15704.9"
textLength="-1366.8" font-size="-524.934" lengthAdjust="spacingAndGlyphs"
text-anchor="middle" opacity="0">JP28</text>
</g>
<path d="M12660 14992
L12941 14992
L12997 14973
L13035 14936
L13054 14879
L13054 14842
" />
<path d="M13054 15179
L12660 15179
L12660 15329
L12679 15367
L12697 15386
L12735 15404
L12791 15404
L12829 15386
L12847 15367
L12866 15329
L12866 15179
" />
<path d="M12697 15554
L12679 15573
L12660 15611
L12660 15704
L12679 15742
L12697 15761
L12735 15779
L12772 15779
L12829 15761
L13054 15536
L13054 15779
" />
<path d="M12829 16004
L12810 15967
L12791 15948
L12754 15929
L12735 15929
L12697 15948
L12679 15967
L12660 16004
L12660 16079
L12679 16117
L12697 16136
L12735 16154
L12754 16154
L12791 16136
L12810 16117
L12829 16079
L12829 16004
L12847 15967
L12866 15948
L12904 15929
L12979 15929
L13016 15948
L13035 15967
L13054 16004
L13054 16079
L13035 16117
L13016 16136
L12979 16154
L12904 16154
L12866 16136
L12847 16117
L12829 16079
" />
<g transform="rotate(-90 13860 15482)">
<text x="13860" y="15678.9"
textLength="-1366.8" font-size="-524.934" lengthAdjust="spacingAndGlyphs"
text-anchor="middle" opacity="0">JP27</text>
</g>
<path d="M13644 14966
L13925 14966
L13981 14947
L14019 14910
L14038 14853
L14038 14816
" />
<path d="M14038 15153
L13644 15153
L13644 15303
L13663 15341
L13681 15360
L13719 15378
L13775 15378
L13813 15360
L13831 15341
L13850 15303
L13850 15153
" />
<path d="M13681 15528
L13663 15547
L13644 15585
L13644 15678
L13663 15716
L13681 15735
L13719 15753
L13756 15753
L13813 15735
L14038 15510
L14038 15753
" />
<path d="M13644 15885
L13644 16147
L14038 15978
" />
<g transform="rotate(-90 14868 15542)">
<text x="14868" y="15738.9"
textLength="-1366.8" font-size="-524.934" lengthAdjust="spacingAndGlyphs"
text-anchor="middle" opacity="0">JP26</text>
</g>
<path d="M14652 15026
L14933 15026
L14989 15007
L15027 14970
L15046 14913
L15046 14876
" />
<path d="M15046 15213
L14652 15213
L14652 15363
L14671 15401
L14689 15420
L14727 15438
L14783 15438
L14821 15420
L14839 15401
L14858 15363
L14858 15213
" />
<path d="M14689 15588
L14671 15607
L14652 15645
L14652 15738
L14671 15776
L14689 15795
L14727 15813
L14764 15813
L14821 15795
L15046 15570
L15046 15813
" />
<path d="M14652 16151
L14652 16076
L14671 16038
L14689 16020
L14746 15982
L14821 15963
L14971 15963
L15008 15982
L15027 16001
L15046 16038
L15046 16113
L15027 16151
L15008 16170
L14971 16188
L14877 16188
L14839 16170
L14821 16151
L14802 16113
L14802 16038
L14821 16001
L14839 15982
L14877 15963
" />
<g transform="rotate(-90 15882 15514)">
<text x="15882" y="15710.9"
textLength="-1366.8" font-size="-524.934" lengthAdjust="spacingAndGlyphs"
text-anchor="middle" opacity="0">JP25</text>
</g>
<path d="M15666 14998
L15947 14998
L16003 14979
L16041 14942
L16060 14885
L16060 14848
" />
<path d="M16060 15185
L15666 15185
L15666 15335
L15685 15373
L15703 15392
L15741 15410
L15797 15410
L15835 15392
L15853 15373
L15872 15335
L15872 15185
" />
<path d="M15703 15560
L15685 15579
L15666 15617
L15666 15710
L15685 15748
L15703 15767
L15741 15785
L15778 15785
L15835 15767
L16060 15542
L16060 15785
" />
<path d="M15666 16142
L15666 15954
L15853 15935
L15835 15954
L15816 15992
L15816 16085
L15835 16123
L15853 16142
L15891 16160
L15985 16160
L16022 16142
L16041 16123
L16060 16085
L16060 15992
L16041 15954
L16022 15935
" />
<g transform="rotate(-90 16866 15514)">
<text x="16866" y="15710.9"
textLength="-1366.8" font-size="-524.934" lengthAdjust="spacingAndGlyphs"
text-anchor="middle" opacity="0">JP24</text>
</g>
<path d="M16650 14998
L16931 14998
L16987 14979
L17025 14942
L17044 14885
L17044 14848
" />
<path d="M17044 15185
L16650 15185
L16650 15335
L16669 15373
L16687 15392
L16725 15410
L16781 15410
L16819 15392
L16837 15373
L16856 15335
L16856 15185
" />
<path d="M16687 15560
L16669 15579
L16650 15617
L16650 15710
L16669 15748
L16687 15767
L16725 15785
L16762 15785
L16819 15767
L17044 15542
L17044 15785
" />
<path d="M16781 16123
L17044 16123
" />
<path d="M16631 16029
L16912 15935
L16912 16179
" />
<g transform="rotate(-90 17920 15500)">
<text x="17920" y="15696.9"
textLength="-1366.8" font-size="-524.934" lengthAdjust="spacingAndGlyphs"
text-anchor="middle" opacity="0">JP23</text>
</g>
<path d="M17704 14984
L17985 14984
L18041 14965
L18079 14928
L18098 14871
L18098 14834
" />
<path d="M18098 15171
L17704 15171
L17704 15321
L17723 15359
L17741 15378
L17779 15396
L17835 15396
L17873 15378
L17891 15359
L17910 15321
L17910 15171
" />
<path d="M17741 15546
L17723 15565
L17704 15603
L17704 15696
L17723 15734
L17741 15753
L17779 15771
L17816 15771
L17873 15753
L18098 15528
L18098 15771
" />
<path d="M17704 15903
L17704 16146
L17854 16015
L17854 16071
L17873 16109
L17891 16128
L17929 16146
L18023 16146
L18060 16128
L18079 16109
L18098 16071
L18098 15959
L18079 15921
L18060 15903
" />
<g transform="rotate(-90 18906 15514)">
<text x="18906" y="15710.9"
textLength="-1366.8" font-size="-524.934" lengthAdjust="spacingAndGlyphs"
text-anchor="middle" opacity="0">JP22</text>
</g>
<path d="M18690 14998
L18971 14998
L19027 14979
L19065 14942
L19084 14885
L19084 14848
" />
<path d="M19084 15185
L18690 15185
L18690 15335
L18709 15373
L18727 15392
L18765 15410
L18821 15410
L18859 15392
L18877 15373
L18896 15335
L18896 15185
" />
<path d="M18727 15560
L18709 15579
L18690 15617
L18690 15710
L18709 15748
L18727 15767
L18765 15785
L18802 15785
L18859 15767
L19084 15542
L19084 15785
" />
<path d="M18727 15935
L18709 15954
L18690 15992
L18690 16085
L18709 16123
L18727 16142
L18765 16160
L18802 16160
L18859 16142
L19084 15917
L19084 16160
" />
<g transform="rotate(-90 19886 15488)">
<text x="19886" y="15684.9"
textLength="-1366.8" font-size="-524.934" lengthAdjust="spacingAndGlyphs"
text-anchor="middle" opacity="0">JP21</text>
</g>
<path d="M19670 14972
L19951 14972
L20007 14953
L20045 14916
L20064 14859
L20064 14822
" />
<path d="M20064 15159
L19670 15159
L19670 15309
L19689 15347
L19707 15366
L19745 15384
L19801 15384
L19839 15366
L19857 15347
L19876 15309
L19876 15159
" />
<path d="M19707 15534
L19689 15553
L19670 15591
L19670 15684
L19689 15722
L19707 15741
L19745 15759
L19782 15759
L19839 15741
L20064 15516
L20064 15759
" />
<path d="M20064 16134
L20064 15909
" />
<path d="M20064 16022
L19670 16022
L19726 15984
L19764 15947
L19782 15909
" />
<g transform="rotate(-90 22283.5 23956.7)">
<text x="22283.5" y="24153.5"
textLength="-1366.8" font-size="-524.934" lengthAdjust="spacingAndGlyphs"
text-anchor="middle" opacity="0">JP20</text>
</g>
<path d="M22067 23441
L22349 23441
L22405 23422
L22442 23384
L22461 23328
L22461 23291
" />
<path d="M22461 23628
L22067 23628
L22067 23778
L22086 23816
L22105 23834
L22142 23853
L22199 23853
L22236 23834
L22255 23816
L22274 23778
L22274 23628
" />
<path d="M22105 24003
L22086 24022
L22067 24059
L22067 24153
L22086 24191
L22105 24209
L22142 24228
L22180 24228
L22236 24209
L22461 23984
L22461 24228
" />
<path d="M22067 24472
L22067 24509
L22086 24547
L22105 24565
L22142 24584
L22217 24603
L22311 24603
L22386 24584
L22424 24565
L22442 24547
L22461 24509
L22461 24472
L22442 24434
L22424 24416
L22386 24397
L22311 24378
L22217 24378
L22142 24397
L22105 24416
L22086 24434
L22067 24472
" />
<g transform="rotate(-90 20905.5 23956.7)">
<text x="20905.5" y="24153.5"
textLength="-1366.8" font-size="-524.934" lengthAdjust="spacingAndGlyphs"
text-anchor="middle" opacity="0">JP19</text>
</g>
<path d="M20689 23441
L20971 23441
L21027 23422
L21064 23384
L21083 23328
L21083 23291
" />
<path d="M21083 23628
L20689 23628
L20689 23778
L20708 23816
L20727 23834
L20764 23853
L20821 23853
L20858 23834
L20877 23816
L20896 23778
L20896 23628
" />
<path d="M21083 24228
L21083 24003
" />
<path d="M21083 24116
L20689 24116
L20746 24078
L20783 24041
L20802 24003
" />
<path d="M21083 24416
L21083 24491
L21064 24528
L21046 24547
L20989 24584
L20914 24603
L20764 24603
L20727 24584
L20708 24565
L20689 24528
L20689 24453
L20708 24416
L20727 24397
L20764 24378
L20858 24378
L20896 24397
L20914 24416
L20933 24453
L20933 24528
L20914 24565
L20896 24584
L20858 24603
" />
<g transform="rotate(-90 19527.6 23956.7)">
<text x="19527.6" y="24153.5"
textLength="-1366.8" font-size="-524.934" lengthAdjust="spacingAndGlyphs"
text-anchor="middle" opacity="0">JP18</text>
</g>
<path d="M19311 23441
L19593 23441
L19649 23422
L19686 23384
L19705 23328
L19705 23291
" />
<path d="M19705 23628
L19311 23628
L19311 23778
L19330 23816
L19349 23834
L19386 23853
L19443 23853
L19480 23834
L19499 23816
L19518 23778
L19518 23628
" />
<path d="M19705 24228
L19705 24003
" />
<path d="M19705 24116
L19311 24116
L19368 24078
L19405 24041
L19424 24003
" />
<path d="M19480 24453
L19461 24416
L19443 24397
L19405 24378
L19386 24378
L19349 24397
L19330 24416
L19311 24453
L19311 24528
L19330 24565
L19349 24584
L19386 24603
L19405 24603
L19443 24584
L19461 24565
L19480 24528
L19480 24453
L19499 24416
L19518 24397
L19555 24378
L19630 24378
L19668 24397
L19686 24416
L19705 24453
L19705 24528
L19686 24565
L19668 24584
L19630 24603
L19555 24603
L19518 24584
L19499 24565
L19480 24528
" />
<g transform="rotate(-90 18149.6 23956.7)">
<text x="18149.6" y="24153.5"
textLength="-1366.8" font-size="-524.934" lengthAdjust="spacingAndGlyphs"
text-anchor="middle" opacity="0">JP17</text>
</g>
<path d="M17934 23441
L18215 23441
L18271 23422
L18308 23384
L18327 23328
L18327 23291
" />
<path d="M18327 23628
L17934 23628
L17934 23778
L17952 23816
L17971 23834
L18008 23853
L18065 23853
L18102 23834
L18121 23816
L18140 23778
L18140 23628
" />
<path d="M18327 24228
L18327 24003
" />
<path d="M18327 24116
L17934 24116
L17990 24078
L18027 24041
L18046 24003
" />
<path d="M17934 24359
L17934 24622
L18327 24453
" />
<g transform="rotate(-90 16771.7 23956.7)">
<text x="16771.7" y="24153.5"
textLength="-1366.8" font-size="-524.934" lengthAdjust="spacingAndGlyphs"
text-anchor="middle" opacity="0">JP16</text>
</g>
<path d="M16556 23441
L16837 23441
L16893 23422
L16931 23384
L16949 23328
L16949 23291
" />
<path d="M16949 23628
L16556 23628
L16556 23778
L16574 23816
L16593 23834
L16631 23853
L16687 23853
L16724 23834
L16743 23816
L16762 23778
L16762 23628
" />
<path d="M16949 24228
L16949 24003
" />
<path d="M16949 24116
L16556 24116
L16612 24078
L16649 24041
L16668 24003
" />
<path d="M16556 24565
L16556 24491
L16574 24453
L16593 24434
L16649 24397
L16724 24378
L16874 24378
L16912 24397
L16931 24416
L16949 24453
L16949 24528
L16931 24565
L16912 24584
L16874 24603
L16781 24603
L16743 24584
L16724 24565
L16706 24528
L16706 24453
L16724 24416
L16743 24397
L16781 24378
" />
<g transform="rotate(-90 15393.7 23956.7)">
<text x="15393.7" y="24153.5"
textLength="-1366.8" font-size="-524.934" lengthAdjust="spacingAndGlyphs"
text-anchor="middle" opacity="0">JP15</text>
</g>
<path d="M15178 23441
L15459 23441
L15515 23422
L15553 23384
L15571 23328
L15571 23291
" />
<path d="M15571 23628
L15178 23628
L15178 23778
L15196 23816
L15215 23834
L15253 23853
L15309 23853
L15346 23834
L15365 23816
L15384 23778
L15384 23628
" />
<path d="M15571 24228
L15571 24003
" />
<path d="M15571 24116
L15178 24116
L15234 24078
L15271 24041
L15290 24003
" />
<path d="M15178 24584
L15178 24397
L15365 24378
L15346 24397
L15328 24434
L15328 24528
L15346 24565
L15365 24584
L15403 24603
L15496 24603
L15534 24584
L15553 24565
L15571 24528
L15571 24434
L15553 24397
L15534 24378
" />
<g transform="rotate(-90 14015.7 23956.7)">
<text x="14015.7" y="24153.5"
textLength="-1366.8" font-size="-524.934" lengthAdjust="spacingAndGlyphs"
text-anchor="middle" opacity="0">JP14</text>
</g>
<path d="M13800 23441
L14081 23441
L14137 23422
L14175 23384
L14193 23328
L14193 23291
" />
<path d="M14193 23628
L13800 23628
L13800 23778
L13818 23816
L13837 23834
L13875 23853
L13931 23853
L13968 23834
L13987 23816
L14006 23778
L14006 23628
" />
<path d="M14193 24228
L14193 24003
" />
<path d="M14193 24116
L13800 24116
L13856 24078
L13893 24041
L13912 24003
" />
<path d="M13931 24565
L14193 24565
" />
<path d="M13781 24472
L14062 24378
L14062 24622
" />
<g transform="rotate(-90 12637.8 23956.7)">
<text x="12637.8" y="24153.5"
textLength="-1366.8" font-size="-524.934" lengthAdjust="spacingAndGlyphs"
text-anchor="middle" opacity="0">JP13</text>
</g>
<path d="M12422 23441
L12703 23441
L12759 23422
L12797 23384
L12815 23328
L12815 23291
" />
<path d="M12815 23628
L12422 23628
L12422 23778
L12440 23816
L12459 23834
L12497 23853
L12553 23853
L12590 23834
L12609 23816
L12628 23778
L12628 23628
" />
<path d="M12815 24228
L12815 24003
" />
<path d="M12815 24116
L12422 24116
L12478 24078
L12515 24041
L12534 24003
" />
<path d="M12422 24359
L12422 24603
L12572 24472
L12572 24528
L12590 24565
L12609 24584
L12647 24603
L12740 24603
L12778 24584
L12797 24565
L12815 24528
L12815 24416
L12797 24378
L12778 24359
" />
<g transform="rotate(-90 11259.8 23956.7)">
<text x="11259.8" y="24153.5"
textLength="-1366.8" font-size="-524.934" lengthAdjust="spacingAndGlyphs"
text-anchor="middle" opacity="0">JP12</text>
</g>
<path d="M11044 23441
L11325 23441
L11381 23422
L11419 23384
L11437 23328
L11437 23291
" />
<path d="M11437 23628
L11044 23628
L11044 23778
L11062 23816
L11081 23834
L11119 23853
L11175 23853
L11212 23834
L11231 23816
L11250 23778
L11250 23628
" />
<path d="M11437 24228
L11437 24003
" />
<path d="M11437 24116
L11044 24116
L11100 24078
L11137 24041
L11156 24003
" />
<path d="M11081 24378
L11062 24397
L11044 24434
L11044 24528
L11062 24565
L11081 24584
L11119 24603
L11156 24603
L11212 24584
L11437 24359
L11437 24603
" />
<g transform="rotate(-90 9881.89 23956.7)">
<text x="9881.89" y="24153.5"
textLength="-1366.8" font-size="-524.934" lengthAdjust="spacingAndGlyphs"
text-anchor="middle" opacity="0">JP11</text>
</g>
<path d="M9666 23441
L9947 23441
L10003 23422
L10041 23384
L10059 23328
L10059 23291
" />
<path d="M10059 23628
L9666 23628
L9666 23778
L9685 23816
L9703 23834
L9741 23853
L9797 23853
L9835 23834
L9853 23816
L9872 23778
L9872 23628
" />
<path d="M10059 24228
L10059 24003
" />
<path d="M10059 24116
L9666 24116
L9722 24078
L9760 24041
L9778 24003
" />
<path d="M10059 24603
L10059 24378
" />
<path d="M10059 24491
L9666 24491
L9722 24453
L9760 24416
L9778 24378
" />
<g transform="rotate(-90 19896 19274)">
<text x="19896" y="19470.8"
textLength="-1366.8" font-size="-524.934" lengthAdjust="spacingAndGlyphs"
text-anchor="middle" opacity="0">JP10</text>
</g>
<path d="M19680 18758
L19961 18758
L20017 18739
L20055 18702
L20074 18645
L20074 18608
" />
<path d="M20074 18945
L19680 18945
L19680 19095
L19699 19133
L19717 19152
L19755 19170
L19811 19170
L19849 19152
L19867 19133
L19886 19095
L19886 18945
" />
<path d="M20074 19545
L20074 19320
" />
<path d="M20074 19433
L19680 19433
L19736 19395
L19774 19358
L19792 19320
" />
<path d="M19680 19789
L19680 19827
L19699 19864
L19717 19883
L19755 19902
L19830 19920
L19924 19920
L19999 19902
L20036 19883
L20055 19864
L20074 19827
L20074 19789
L20055 19752
L20036 19733
L19999 19714
L19924 19695
L19830 19695
L19755 19714
L19717 19733
L19699 19752
L19680 19789
" />
<g transform="rotate(-90 18848 19436)">
<text x="18848" y="19632.8"
textLength="-991.845" font-size="-524.934" lengthAdjust="spacingAndGlyphs"
text-anchor="middle" opacity="0">JP9</text>
</g>
<path d="M18632 19107
L18913 19107
L18969 19089
L19007 19051
L19026 18995
L19026 18957
" />
<path d="M19026 19295
L18632 19295
L18632 19445
L18651 19482
L18669 19501
L18707 19520
L18763 19520
L18801 19501
L18819 19482
L18838 19445
L18838 19295
" />
<path d="M19026 19707
L19026 19782
L19007 19820
L18988 19839
L18932 19876
L18857 19895
L18707 19895
L18669 19876
L18651 19857
L18632 19820
L18632 19745
L18651 19707
L18669 19689
L18707 19670
L18801 19670
L18838 19689
L18857 19707
L18876 19745
L18876 19820
L18857 19857
L18838 19876
L18801 19895
" />
<g transform="rotate(-90 17900 19424)">
<text x="17900" y="19620.8"
textLength="-991.845" font-size="-524.934" lengthAdjust="spacingAndGlyphs"
text-anchor="middle" opacity="0">JP8</text>
</g>
<path d="M17684 19095
L17965 19095
L18021 19077
L18059 19039
L18078 18983
L18078 18945
" />
<path d="M18078 19283
L17684 19283
L17684 19433
L17703 19470
L17721 19489
L17759 19508
L17815 19508
L17853 19489
L17871 19470
L17890 19433
L17890 19283
" />
<path d="M17853 19733
L17834 19695
L17815 19677
L17778 19658
L17759 19658
L17721 19677
L17703 19695
L17684 19733
L17684 19808
L17703 19845
L17721 19864
L17759 19883
L17778 19883
L17815 19864
L17834 19845
L17853 19808
L17853 19733
L17871 19695
L17890 19677
L17928 19658
L18003 19658
L18040 19677
L18059 19695
L18078 19733
L18078 19808
L18059 19845
L18040 19864
L18003 19883
L17928 19883
L17890 19864
L17871 19845
L17853 19808
" />
<g transform="rotate(-90 16964 19436)">
<text x="16964" y="19632.8"
textLength="-991.845" font-size="-524.934" lengthAdjust="spacingAndGlyphs"
text-anchor="middle" opacity="0">JP7</text>
</g>
<path d="M16748 19107
L17029 19107
L17085 19089
L17123 19051
L17142 18995
L17142 18957
" />
<path d="M17142 19295
L16748 19295
L16748 19445
L16767 19482
L16785 19501
L16823 19520
L16879 19520
L16917 19501
L16935 19482
L16954 19445
L16954 19295
" />
<path d="M16748 19651
L16748 19914
L17142 19745
" />
<g transform="rotate(-90 15866 19448)">
<text x="15866" y="19644.8"
textLength="-991.845" font-size="-524.934" lengthAdjust="spacingAndGlyphs"
text-anchor="middle" opacity="0">JP6</text>
</g>
<path d="M15650 19119
L15931 19119
L15987 19101
L16025 19063
L16044 19007
L16044 18969
" />
<path d="M16044 19307
L15650 19307
L15650 19457
L15669 19494
L15687 19513
L15725 19532
L15781 19532
L15819 19513
L15837 19494
L15856 19457
L15856 19307
" />
<path d="M15650 19869
L15650 19794
L15669 19757
L15687 19738
L15744 19701
L15819 19682
L15969 19682
L16006 19701
L16025 19719
L16044 19757
L16044 19832
L16025 19869
L16006 19888
L15969 19907
L15875 19907
L15837 19888
L15819 19869
L15800 19832
L15800 19757
L15819 19719
L15837 19701
L15875 19682
" />
<g transform="rotate(-90 14848 19436)">
<text x="14848" y="19632.8"
textLength="-991.845" font-size="-524.934" lengthAdjust="spacingAndGlyphs"
text-anchor="middle" opacity="0">JP5</text>
</g>
<path d="M14632 19107
L14913 19107
L14969 19089
L15007 19051
L15026 18995
L15026 18957
" />
<path d="M15026 19295
L14632 19295
L14632 19445
L14651 19482
L14669 19501
L14707 19520
L14763 19520
L14801 19501
L14819 19482
L14838 19445
L14838 19295
" />
<path d="M14632 19876
L14632 19689
L14819 19670
L14801 19689
L14782 19726
L14782 19820
L14801 19857
L14819 19876
L14857 19895
L14951 19895
L14988 19876
L15007 19857
L15026 19820
L15026 19726
L15007 19689
L14988 19670
" />
<g transform="rotate(-90 13796 19436)">
<text x="13796" y="19632.8"
textLength="-991.845" font-size="-524.934" lengthAdjust="spacingAndGlyphs"
text-anchor="middle" opacity="0">JP4</text>
</g>
<path d="M13580 19107
L13861 19107
L13917 19089
L13955 19051
L13974 18995
L13974 18957
" />
<path d="M13974 19295
L13580 19295
L13580 19445
L13599 19482
L13617 19501
L13655 19520
L13711 19520
L13749 19501
L13767 19482
L13786 19445
L13786 19295
" />
<path d="M13711 19857
L13974 19857
" />
<path d="M13561 19764
L13842 19670
L13842 19914
" />
<g transform="rotate(-90 12858 19446)">
<text x="12858" y="19642.8"
textLength="-991.845" font-size="-524.934" lengthAdjust="spacingAndGlyphs"
text-anchor="middle" opacity="0">JP3</text>
</g>
<path d="M12642 19117
L12923 19117
L12979 19099
L13017 19061
L13036 19005
L13036 18967
" />
<path d="M13036 19305
L12642 19305
L12642 19455
L12661 19492
L12679 19511
L12717 19530
L12773 19530
L12811 19511
L12829 19492
L12848 19455
L12848 19305
" />
<path d="M12642 19661
L12642 19905
L12792 19774
L12792 19830
L12811 19867
L12829 19886
L12867 19905
L12961 19905
L12998 19886
L13017 19867
L13036 19830
L13036 19717
L13017 19680
L12998 19661
" />
<g transform="rotate(-90 11860 19432)">
<text x="11860" y="19628.8"
textLength="-991.845" font-size="-524.934" lengthAdjust="spacingAndGlyphs"
text-anchor="middle" opacity="0">JP2</text>
</g>
<path d="M11644 19103
L11925 19103
L11981 19085
L12019 19047
L12038 18991
L12038 18953
" />
<path d="M12038 19291
L11644 19291
L11644 19441
L11663 19478
L11681 19497
L11719 19516
L11775 19516
L11813 19497
L11831 19478
L11850 19441
L11850 19291
" />
<path d="M11681 19666
L11663 19685
L11644 19722
L11644 19816
L11663 19853
L11681 19872
L11719 19891
L11756 19891
L11813 19872
L12038 19647
L12038 19891
" />
<g transform="rotate(-90 10860 19460)">
<text x="10860" y="19656.8"
textLength="-991.845" font-size="-524.934" lengthAdjust="spacingAndGlyphs"
text-anchor="middle" opacity="0">JP1</text>
</g>
<path d="M10644 19131
L10925 19131
L10981 19113
L11019 19075
L11038 19019
L11038 18981
" />
<path d="M11038 19319
L10644 19319
L10644 19469
L10663 19506
L10681 19525
L10719 19544
L10775 19544
L10813 19525
L10831 19506
L10850 19469
L10850 19319
" />
<path d="M11038 19919
L11038 19694
" />
<path d="M11038 19806
L10644 19806
L10700 19769
L10738 19731
L10756 19694
" />
<g >
</g>
</g> 
</svg>
