<?xml version="1.0" standalone="no"?>
 <!DOCTYPE svg PUBLIC "-//W3C//DTD SVG 1.1//EN" 
 "http://www.w3.org/Graphics/SVG/1.1/DTD/svg11.dtd"> 
<svg xmlns="http://www.w3.org/2000/svg" version="1.1" 
    width="29.7002cm" height="21.0007cm" viewBox="0 0 116930 82680 ">
<title>SVG Picture created as C12-F_SilkS.svg date 2022/11/04 12:23:17 </title>
  <desc>Picture generated by PCBNEW </desc>
<g style="fill:#000000; fill-opacity:1;stroke:#000000; stroke-opacity:1;
stroke-linecap:round; stroke-linejoin:round; "
 transform="translate(0 0) scale(1 1)">
</g>
<g style="fill:#000000; fill-opacity:0.0; 
stroke:#000000; stroke-width:-0.000393701; stroke-opacity:1; 
stroke-linecap:round; stroke-linejoin:round;">
</g>
<g style="fill:#000000; fill-opacity:0.0; 
stroke:#000000; stroke-width:98.4252; stroke-opacity:1; 
stroke-linecap:round; stroke-linejoin:round;">
<text x="11580" y="19206.9"
textLength="4571.15" font-size="524.934" lengthAdjust="spacingAndGlyphs"
text-anchor="middle" opacity="0">C12_BREAKOUT</text>
<path d="M9677 19150
L9658 19169
L9602 19188
L9564 19188
L9508 19169
L9470 19131
L9452 19094
L9433 19019
L9433 18963
L9452 18888
L9470 18850
L9508 18813
L9564 18794
L9602 18794
L9658 18813
L9677 18831
" />
<path d="M10052 19188
L9827 19188
" />
<path d="M9939 19188
L9939 18794
L9902 18850
L9864 18888
L9827 18906
" />
<path d="M10202 18831
L10220 18813
L10258 18794
L10352 18794
L10389 18813
L10408 18831
L10427 18869
L10427 18906
L10408 18963
L10183 19188
L10427 19188
" />
<path d="M10502 19225
L10801 19225
" />
<path d="M11026 18981
L11083 19000
L11101 19019
L11120 19056
L11120 19113
L11101 19150
L11083 19169
L11045 19188
L10895 19188
L10895 18794
L11026 18794
L11064 18813
L11083 18831
L11101 18869
L11101 18906
L11083 18944
L11064 18963
L11026 18981
L10895 18981
" />
<path d="M11514 19188
L11383 19000
" />
<path d="M11289 19188
L11289 18794
L11439 18794
L11476 18813
L11495 18831
L11514 18869
L11514 18925
L11495 18963
L11476 18981
L11439 19000
L11289 19000
" />
<path d="M11683 18981
L11814 18981
" />
<path d="M11870 19188
L11683 19188
L11683 18794
L11870 18794
" />
<path d="M12020 19075
L12208 19075
" />
<path d="M11983 19188
L12114 18794
L12245 19188
" />
<path d="M12376 19188
L12376 18794
" />
<path d="M12601 19188
L12433 18963
" />
<path d="M12601 18794
L12376 19019
" />
<path d="M12845 18794
L12920 18794
L12957 18813
L12995 18850
L13014 18925
L13014 19056
L12995 19131
L12957 19169
L12920 19188
L12845 19188
L12807 19169
L12770 19131
L12751 19056
L12751 18925
L12770 18850
L12807 18813
L12845 18794
" />
<path d="M13182 18794
L13182 19113
L13201 19150
L13220 19169
L13257 19188
L13332 19188
L13370 19169
L13389 19150
L13407 19113
L13407 18794
" />
<path d="M13539 18794
L13764 18794
" />
<path d="M13651 19188
L13651 18794
" />
</g>
<g style="fill:#000000; fill-opacity:0.0; 
stroke:#000000; stroke-width:19.685; stroke-opacity:1; 
stroke-linecap:round; stroke-linejoin:round;">
<path d="M22874 7874
L22874 26874
" />
<path d="M7874 26874
L22874 26874
" />
<path d="M7874 7874
L22874 7874
" />
<path d="M7874 7874
L7874 26874
" />
</g>
<g style="fill:#000000; fill-opacity:0.0; 
stroke:#000000; stroke-width:47.2441; stroke-opacity:1; 
stroke-linecap:round; stroke-linejoin:round;">
<path d="M20397 11350
L20397 11874
" />
<path d="M19874 11350
L20397 11350
" />
<path d="M19374 11350
L19374 12397
" />
<path d="M19374 12397
L10350 12397
" />
<path d="M19374 11350
L10350 11350
" />
<path d="M10350 11350
L10350 12397
" />
<path d="M10350 23397
L10350 22874
" />
<path d="M10874 23397
L10350 23397
" />
<path d="M11374 23397
L11374 22350
" />
<path d="M11374 22350
L20397 22350
" />
<path d="M11374 23397
L20397 23397
" />
<path d="M20397 23397
L20397 22350
" />
<path d="M10350 22397
L10350 21874
" />
<path d="M10874 22397
L10350 22397
" />
<path d="M11374 22397
L11374 21350
" />
<path d="M11374 21350
L20397 21350
" />
<path d="M11374 22397
L20397 22397
" />
<path d="M20397 22397
L20397 21350
" />
<path d="M8169 27129
L8956 27129
" />
<path d="M8169 26247
L8169 27129
" />
<path d="M22125 25471
L22125 25495
" />
<path d="M22125 24018
L22125 24928
" />
<path d="M21023 25471
L21023 25495
" />
<path d="M21023 24018
L21023 24928
" />
<path d="M22125 25495
L22125 25495
" />
<path d="M21023 25495
L21024 25495
" />
<path d="M21023 24018
L22125 24018
" />
<path d="M20748 25471
L20748 25495
" />
<path d="M20748 24018
L20748 24928
" />
<path d="M19645 25471
L19645 25495
" />
<path d="M19645 24018
L19645 24928
" />
<path d="M20748 25495
L20748 25495
" />
<path d="M19645 25495
L19646 25495
" />
<path d="M19645 24018
L20748 24018
" />
<path d="M19370 25471
L19370 25495
" />
<path d="M19370 24018
L19370 24928
" />
<path d="M18267 25471
L18267 25495
" />
<path d="M18267 24018
L18267 24928
" />
<path d="M19370 25495
L19370 25495
" />
<path d="M18267 25495
L18268 25495
" />
<path d="M18267 24018
L19370 24018
" />
<path d="M17992 25471
L17992 25495
" />
<path d="M17992 24018
L17992 24928
" />
<path d="M16889 25471
L16889 25495
" />
<path d="M16889 24018
L16889 24928
" />
<path d="M17992 25495
L17992 25495
" />
<path d="M16889 25495
L16890 25495
" />
<path d="M16889 24018
L17992 24018
" />
<path d="M16614 25471
L16614 25495
" />
<path d="M16614 24018
L16614 24928
" />
<path d="M15512 25471
L15512 25495
" />
<path d="M15512 24018
L15512 24928
" />
<path d="M16614 25495
L16614 25495
" />
<path d="M15512 25495
L15512 25495
" />
<path d="M15512 24018
L16614 24018
" />
<path d="M15236 25471
L15236 25495
" />
<path d="M15236 24018
L15236 24928
" />
<path d="M14133 25471
L14133 25495
" />
<path d="M14133 24018
L14133 24928
" />
<path d="M15236 25495
L15236 25495
" />
<path d="M14133 25495
L14134 25495
" />
<path d="M14133 24018
L15236 24018
" />
<path d="M13858 25471
L13858 25495
" />
<path d="M13858 24018
L13858 24928
" />
<path d="M12755 25471
L12755 25495
" />
<path d="M12755 24018
L12755 24928
" />
<path d="M13858 25495
L13858 25495
" />
<path d="M12755 25495
L12756 25495
" />
<path d="M12755 24018
L13858 24018
" />
<path d="M12480 25471
L12480 25495
" />
<path d="M12480 24018
L12480 24928
" />
<path d="M11377 25471
L11377 25495
" />
<path d="M11377 24018
L11377 24928
" />
<path d="M12480 25495
L12480 25495
" />
<path d="M11377 25495
L11378 25495
" />
<path d="M11377 24018
L12480 24018
" />
<path d="M11102 25471
L11102 25495
" />
<path d="M11102 24018
L11102 24928
" />
<path d="M10000 25471
L10000 25495
" />
<path d="M10000 24018
L10000 24928
" />
<path d="M11102 25495
L11102 25495
" />
<path d="M10000 25495
L10000 25495
" />
<path d="M10000 24018
L11102 24018
" />
<path d="M9724 24018
L9724 24593
" />
<path d="M8622 24018
L8622 24593
" />
<path d="M8622 24018
L9724 24018
" />
<path d="M22484 23719
L22484 27034
" />
<path d="M8263 23719
L8263 27034
" />
<path d="M8263 27034
L22484 27034
" />
<path d="M8263 23719
L22484 23719
" />
<path d="M22021 25633
L22484 25633
" />
<path d="M20643 25633
L21128 25633
" />
<path d="M19265 25633
L19750 25633
" />
<path d="M17887 25633
L18372 25633
" />
<path d="M16509 25633
L16994 25633
" />
<path d="M15131 25633
L15616 25633
" />
<path d="M13753 25633
L14238 25633
" />
<path d="M12375 25633
L12861 25633
" />
<path d="M10997 25633
L11483 25633
" />
<path d="M9779 25633
L10105 25633
" />
<path d="M8263 25633
L8566 25633
" />
<path d="M21944.9 24704.7 A393.812 393.812 0.0 1 0 21204.8 24704.8 " />
<path d="M20566.9 24704.7 A393.812 393.812 0.0 1 0 19826.8 24704.8 " />
<path d="M19189 24704.7 A393.812 393.812 0.0 1 0 18448.9 24704.8 " />
<path d="M17811 24704.7 A393.812 393.812 0.0 1 0 17070.9 24704.8 " />
<path d="M16433.1 24704.7 A393.812 393.812 0.0 1 0 15692.9 24704.8 " />
<path d="M15055.1 24704.7 A393.812 393.812 0.0 1 0 14315 24704.8 " />
<path d="M13677.2 24704.7 A393.812 393.812 0.0 1 0 12937 24704.8 " />
<path d="M12299.2 24704.7 A393.812 393.812 0.0 1 0 11559.1 24704.8 " />
<path d="M10921.3 24704.7 A393.812 393.812 0.0 1 0 10181.1 24704.8 " />
<path d="M9566.14 24597.2 A393.851 393.851 0.0 1 0 8780.36 24597.9 " />
<path d="M20397 12350
L20397 12874
" />
<path d="M19874 12350
L20397 12350
" />
<path d="M19374 12350
L19374 13397
" />
<path d="M19374 13397
L10350 13397
" />
<path d="M19374 12350
L10350 12350
" />
<path d="M10350 12350
L10350 13397
" />
<path d="M22578 7618
L21791 7618
" />
<path d="M22578 8500
L22578 7618
" />
<path d="M8622 9276
L8622 9252
" />
<path d="M8622 10729
L8622 9819
" />
<path d="M9724 9276
L9724 9252
" />
<path d="M9724 10729
L9724 9819
" />
<path d="M8622 9252
L8622 9252
" />
<path d="M9724 9252
L9724 9252
" />
<path d="M9724 10729
L8622 10729
" />
<path d="M10000 9276
L10000 9252
" />
<path d="M10000 10729
L10000 9819
" />
<path d="M11102 9276
L11102 9252
" />
<path d="M11102 10729
L11102 9819
" />
<path d="M10000 9252
L10000 9252
" />
<path d="M11102 9252
L11101 9252
" />
<path d="M11102 10729
L10000 10729
" />
<path d="M11377 9276
L11377 9252
" />
<path d="M11377 10729
L11377 9819
" />
<path d="M12480 9276
L12480 9252
" />
<path d="M12480 10729
L12480 9819
" />
<path d="M11377 9252
L11377 9252
" />
<path d="M12480 9252
L12479 9252
" />
<path d="M12480 10729
L11377 10729
" />
<path d="M12755 9276
L12755 9252
" />
<path d="M12755 10729
L12755 9819
" />
<path d="M13858 9276
L13858 9252
" />
<path d="M13858 10729
L13858 9819
" />
<path d="M12755 9252
L12755 9252
" />
<path d="M13858 9252
L13857 9252
" />
<path d="M13858 10729
L12755 10729
" />
<path d="M14133 9276
L14133 9252
" />
<path d="M14133 10729
L14133 9819
" />
<path d="M15235 9276
L15235 9252
" />
<path d="M15235 10729
L15235 9819
" />
<path d="M14133 9252
L14133 9252
" />
<path d="M15235 9252
L15235 9252
" />
<path d="M15235 10729
L14133 10729
" />
<path d="M15511 9276
L15511 9252
" />
<path d="M15511 10729
L15511 9819
" />
<path d="M16614 9276
L16614 9252
" />
<path d="M16614 10729
L16614 9819
" />
<path d="M15511 9252
L15511 9252
" />
<path d="M16614 9252
L16613 9252
" />
<path d="M16614 10729
L15511 10729
" />
<path d="M16889 9276
L16889 9252
" />
<path d="M16889 10729
L16889 9819
" />
<path d="M17992 9276
L17992 9252
" />
<path d="M17992 10729
L17992 9819
" />
<path d="M16889 9252
L16889 9252
" />
<path d="M17992 9252
L17991 9252
" />
<path d="M17992 10729
L16889 10729
" />
<path d="M18267 9276
L18267 9252
" />
<path d="M18267 10729
L18267 9819
" />
<path d="M19370 9276
L19370 9252
" />
<path d="M19370 10729
L19370 9819
" />
<path d="M18267 9252
L18267 9252
" />
<path d="M19370 9252
L19369 9252
" />
<path d="M19370 10729
L18267 10729
" />
<path d="M19645 9276
L19645 9252
" />
<path d="M19645 10729
L19645 9819
" />
<path d="M20748 9276
L20748 9252
" />
<path d="M20748 10729
L20748 9819
" />
<path d="M19645 9252
L19645 9252
" />
<path d="M20748 9252
L20747 9252
" />
<path d="M20748 10729
L19645 10729
" />
<path d="M21023 10729
L21023 10154
" />
<path d="M22125 10729
L22125 10154
" />
<path d="M22125 10729
L21023 10729
" />
<path d="M8263 11028
L8263 7713
" />
<path d="M22484 11028
L22484 7713
" />
<path d="M22484 7713
L8263 7713
" />
<path d="M22484 11028
L8263 11028
" />
<path d="M8726 9114
L8263 9114
" />
<path d="M10104 9114
L9619 9114
" />
<path d="M11482 9114
L10997 9114
" />
<path d="M12860 9114
L12375 9114
" />
<path d="M14238 9114
L13753 9114
" />
<path d="M15616 9114
L15131 9114
" />
<path d="M16994 9114
L16509 9114
" />
<path d="M18372 9114
L17887 9114
" />
<path d="M19750 9114
L19264 9114
" />
<path d="M20968 9114
L20642 9114
" />
<path d="M22484 9114
L22181 9114
" />
<path d="M8803.15 10043.3 A393.812 393.812 0.0 1 0 9543.27 10043.2 " />
<path d="M10181.1 10043.3 A393.812 393.812 0.0 1 0 10921.2 10043.2 " />
<path d="M11559.1 10043.3 A393.812 393.812 0.0 1 0 12299.2 10043.2 " />
<path d="M12937 10043.3 A393.812 393.812 0.0 1 0 13677.1 10043.2 " />
<path d="M14315 10043.3 A393.812 393.812 0.0 1 0 15055.1 10043.2 " />
<path d="M15692.9 10043.3 A393.812 393.812 0.0 1 0 16433 10043.2 " />
<path d="M17070.9 10043.3 A393.812 393.812 0.0 1 0 17811 10043.2 " />
<path d="M18448.8 10043.3 A393.812 393.812 0.0 1 0 19188.9 10043.2 " />
<path d="M19826.8 10043.3 A393.812 393.812 0.0 1 0 20566.9 10043.2 " />
<path d="M21181.9 10150.8 A393.851 393.851 0.0 1 0 21967.7 10150.2 " />
</g>
<g style="fill:#000000; fill-opacity:1.0; 
stroke:#000000; stroke-width:3.93701; stroke-opacity:1; 
stroke-linecap:round; stroke-linejoin:round;">
<path style="fill:#000000; fill-opacity:1.0; 
stroke:#000000; stroke-width:3.93701; stroke-opacity:1; 
stroke-linecap:round; stroke-linejoin:round;fill-rule:evenodd;"
d="M 11714.8,15991.5
11747.8,16166.6
11869.6,16216.8
11991.4,16267
12137.4,16167.6
12178.3,16140
12215.3,16115.3
12246.7,16094.7
12270.6,16079.3
12285.4,16070.2
12289.5,16068.3
12296.8,16073.3
12312.3,16087.2
12334.4,16108.1
12361.3,16134.3
12391.2,16164.1
12422.4,16195.7
12453.2,16227.2
12481.8,16257
12506.5,16283.2
12525.5,16304.1
12537,16317.9
12539.8,16322.5
12535.8,16331
12524.6,16349.7
12507.5,16376.7
12485.5,16410.1
12459.8,16448.3
12444.9,16470
12417.8,16509.8
12393.7,16545.6
12373.8,16575.8
12359.2,16598.5
12351.2,16612
12350,16614.9
12352.7,16622.9
12360.2,16641.7
12371.2,16668.6
12384.7,16701
12399.6,16736.1
12414.7,16771.4
12428.8,16804.3
12441,16832
12450,16851.9
12454.7,16861.4
12454.9,16861.8
12462.4,16863.6
12482.1,16867.7
12512.1,16873.5
12550.3,16880.9
12594.7,16889.2
12620.6,16894.1
12668,16903.1
12710.9,16911.7
12747,16919.4
12774.1,16925.7
12790.2,16930.2
12793.4,16931.6
12796.6,16941.2
12799.2,16962.8
12801.1,16993.9
12802.4,17032.1
12803.2,17074.7
12803.3,17119.3
12802.8,17163.2
12801.7,17204.1
12800.1,17239.3
12797.8,17266.3
12794.9,17282.6
12793.2,17286
12782.9,17290
12761.1,17295.8
12730.7,17302.7
12694.5,17310
12681.9,17312.3
12621,17323.5
12572.9,17332.4
12536,17339.6
12508.7,17345.3
12489.5,17349.9
12476.7,17353.8
12468.7,17357.3
12464,17360.7
12463.3,17361.4
12456.7,17372.4
12446.6,17393.8
12434.1,17423
12420.1,17457.3
12405.7,17494.1
12391.8,17530.9
12379.5,17565
12369.7,17593.8
12363.5,17614.6
12361.9,17624.9
12362,17625.3
12367.5,17633.7
12380,17652.2
12398.1,17678.9
12420.6,17711.8
12446.1,17749
12453.4,17759.6
12479.3,17798
12502.2,17832.9
12520.6,17862.6
12533.5,17884.8
12539.5,17897.7
12539.8,17899.3
12534.7,17907.6
12520.8,17924
12499.7,17946.8
12473.2,17974.3
12443.3,18004.6
12411.6,18035.9
12380,18066.6
12350.2,18094.8
12324.1,18118.7
12303.5,18136.7
12290.1,18146.9
12286.4,18148.6
12277.7,18144.7
12260.1,18134.1
12236.3,18118.6
12218,18106.2
12184.8,18083.3
12145.5,18056.4
12106,18029.6
12084.8,18015.2
12013.1,17966.7
11952.8,17999.2
11925.4,18013.5
11902.1,18024.6
11886.3,18030.9
11882.3,18031.8
11877.4,18025.3
11867.9,18006.9
11854.4,17978.4
11837.6,17941.4
11818.2,17897.6
11797,17848.7
11774.6,17796.4
11751.8,17742.5
11729.3,17688.5
11707.8,17636.2
11688,17587.3
11670.6,17543.4
11656.3,17506.3
11645.8,17477.7
11640,17459.2
11639,17452.9
11646.5,17444.8
11662.9,17431.7
11684.9,17416.2
11686.7,17415
11743.3,17369.7
11789,17316.8
11823.3,17258
11845.9,17195.1
11856.3,17129.6
11854.1,17063.4
11839,16998.1
11810.5,16935.4
11802.2,16921.7
11758.6,16866.2
11707.1,16821.7
11649.6,16788.4
11587.7,16766.4
11523.2,16756.1
11457.9,16757.5
11393.7,16771.1
11332.2,16796.9
11275.4,16835.3
11257.8,16850.9
11213,16899.7
11180.3,16951
11158,17008.6
11145.5,17065.6
11142.4,17129.7
11152.7,17194.1
11175.2,17256.6
11209,17315.1
11253.1,17367.4
11306.3,17411.3
11313.3,17416
11335.4,17431.1
11352.3,17444.2
11360.3,17452.6
11360.4,17452.9
11358.7,17462
11351.9,17482.5
11340.6,17513
11325.6,17551.5
11307.7,17596.5
11287.5,17646.2
11265.7,17698.9
11243,17753
11220.3,17806.8
11198,17858.6
11177.1,17906.6
11158.2,17949.2
11142,17984.7
11129.2,18011.4
11120.5,18027.5
11117,18031.8
11106.4,18028.5
11086.4,18019.6
11060.6,18006.7
11046.5,17999.2
10986.2,17966.7
10914.5,18015.2
10877.8,18040.1
10837.7,18067.4
10800.2,18093.2
10781.3,18106.2
10754.9,18123.9
10732.4,18138
10717,18146.6
10712,18148.5
10704.7,18143.5
10688.5,18129.8
10665.1,18108.7
10635.9,18081.7
10602.6,18050.1
10581.6,18029.8
10544.7,17993.6
10512.8,17961.2
10487.3,17934
10469.3,17913.5
10460.2,17900.8
10459.3,17898.3
10463.4,17888.5
10474.6,17868.9
10491.7,17841.2
10513.5,17807.6
10538.7,17770.1
10545.9,17759.6
10572,17721.5
10595.5,17687.3
10614.9,17658.7
10629,17637.8
10636.6,17626.5
10637.3,17625.3
10636.2,17616.3
10630.4,17596.4
10621,17568.3
10608.9,17534.7
10595.1,17498
10580.7,17461.1
10566.6,17426.3
10553.9,17396.5
10543.5,17374.2
10536.5,17362
10536,17361.4
10531.7,17357.9
10524.5,17354.5
10512.7,17350.7
10494.8,17346.3
10469.1,17340.8
10434.2,17333.9
10388.4,17325.3
10330,17314.6
10317.4,17312.3
10280,17305.1
10247.4,17298
10222.4,17291.8
10208,17287.1
10206.1,17286
10202.9,17276.2
10200.3,17254.5
10198.3,17223.2
10197,17185
10196.2,17142.3
10196,17097.7
10196.4,17053.8
10197.4,17013
10199.1,16977.9
10201.3,16951
10204.1,16934.9
10205.9,16931.6
10215.4,16928.2
10237.2,16922.8
10269,16915.8
10308.6,16907.6
10354,16898.7
10378.7,16894.1
10425.6,16885.3
10467.4,16877.4
10502.1,16870.6
10527.7,16865.5
10542,16862.5
10544.4,16861.8
10548.3,16854.1
10556.8,16835.6
10568.5,16808.9
10582.4,16776.6
10597.4,16741.5
10612.4,16706.1
10626.2,16673.1
10637.7,16645.1
10645.7,16624.9
10649.2,16615
10649.3,16614.5
10645.3,16606.7
10634.1,16588.7
10617,16562.3
10595,16529.3
10569.3,16491.5
10554.4,16469.8
10527.2,16429.9
10503.1,16393.8
10483.1,16363.1
10468.6,16339.8
10460.7,16325.6
10459.5,16322.4
10464.4,16315
10478.1,16299.2
10498.7,16276.8
10524.6,16249.5
10553.9,16219.1
10585,16187.4
10616.1,16156.2
10645.4,16127.1
10671.2,16102.1
10691.8,16082.8
10705.4,16071.1
10710,16068.3
10717.4,16072.2
10735.1,16083.3
10761.4,16100.4
10794.6,16122.3
10833,16148
10861.9,16167.6
11007.9,16267
11251.5,16166.6
11284.5,15991.5
11317.5,15816.5
11681.8,15816.5
Z" /> 
<g >
</g>
<g >
</g>
<g >
</g>
<g >
</g>
<g >
</g>
<g >
</g>
<g >
</g>
<g >
</g>
<g >
</g>
<g >
</g>
<g >
</g>
<g >
</g>
<g >
</g>
<g >
</g>
<g >
</g>
<g >
</g>
<g >
</g>
<g >
</g>
<g >
</g>
<g >
</g>
<g >
</g>
<g >
</g>
<g >
</g>
<g >
</g>
<g >
</g>
<g >
</g>
<g >
</g>
<g >
</g>
<g >
</g>
<g >
</g>
<g >
</g>
<g >
</g>
<g >
</g>
<g >
</g>
<g >
</g>
<g >
</g>
<g >
</g>
<g >
</g>
<g >
</g>
<g >
</g>
<g >
</g>
<g >
</g>
<g >
</g>
<g >
</g>
<g >
</g>
<g >
</g>
<g >
</g>
<g >
</g>
<g >
</g>
<g >
</g>
<g >
</g>
<g >
</g>
<g >
</g>
<g >
</g>
</g>
<g style="fill:#000000; fill-opacity:1.0; 
stroke:#000000; stroke-width:3.93701; stroke-opacity:1; 
stroke-linecap:round; stroke-linejoin:round;">
</g>
<g style="fill:#000000; fill-opacity:0.0; 
stroke:#000000; stroke-width:3.93701; stroke-opacity:1; 
stroke-linecap:round; stroke-linejoin:round;">
</g>
<g style="fill:#000000; fill-opacity:0.0; 
stroke:#000000; stroke-width:59.0551; stroke-opacity:1; 
stroke-linecap:round; stroke-linejoin:round;">
<g transform="rotate(-90 20791.3 11874)">
<text x="20791.3" y="12070.9"
textLength="802.869" font-size="524.934" lengthAdjust="spacingAndGlyphs"
text-anchor="middle" opacity="0">J4</text>
</g>
<path d="M20575 12005
L20856 12005
L20913 12023
L20950 12061
L20969 12117
L20969 12155
" />
<path d="M20706 11649
L20969 11649
" />
<path d="M20556 11742
L20838 11836
L20838 11592
" />
<g transform="rotate(-90 9956.69 22874)">
<text x="9956.69" y="23070.9"
textLength="751.687" font-size="524.934" lengthAdjust="spacingAndGlyphs"
text-anchor="middle" opacity="0">J3</text>
</g>
<path d="M9741 23005
L10022 23005
L10078 23023
L10116 23061
L10134 23117
L10134 23155
" />
<path d="M9741 22855
L9741 22611
L9891 22742
L9891 22686
L9909 22649
L9928 22630
L9966 22611
L10059 22611
L10097 22630
L10116 22649
L10134 22686
L10134 22799
L10116 22836
L10097 22855
" />
<g transform="rotate(-90 9956 22192)">
<text x="9956" y="22388.9"
textLength="751.687" font-size="524.934" lengthAdjust="spacingAndGlyphs"
text-anchor="middle" opacity="0">J1</text>
</g>
<path d="M9740 22323
L10021 22323
L10077 22341
L10115 22379
L10134 22435
L10134 22473
" />
<path d="M10134 21929
L10134 22154
" />
<path d="M10134 22042
L9740 22042
L9796 22079
L9834 22117
L9852 22154
" />
<text x="8344" y="23228.9"
textLength="751.687" font-size="524.934" lengthAdjust="spacingAndGlyphs"
text-anchor="middle" opacity="0">J5</text>
<path d="M8212 22816
L8212 23097
L8194 23153
L8156 23191
L8100 23210
L8062 23210
" />
<path d="M8587 22816
L8400 22816
L8381 23003
L8400 22985
L8437 22966
L8531 22966
L8568 22985
L8587 23003
L8606 23041
L8606 23135
L8587 23172
L8568 23191
L8531 23210
L8437 23210
L8400 23191
L8381 23172
" />
<g transform="rotate(-90 20852 12570)">
<text x="20852" y="12766.9"
textLength="751.687" font-size="524.934" lengthAdjust="spacingAndGlyphs"
text-anchor="middle" opacity="0">J2</text>
</g>
<path d="M20636 12701
L20917 12701
L20973 12719
L21011 12757
L21030 12813
L21030 12851
" />
<path d="M20673 12532
L20655 12513
L20636 12476
L20636 12382
L20655 12345
L20673 12326
L20711 12307
L20748 12307
L20805 12326
L21030 12551
L21030 12307
" />
<text x="22256" y="12118.9"
textLength="751.687" font-size="524.934" lengthAdjust="spacingAndGlyphs"
text-anchor="middle" opacity="0">J6</text>
<path d="M22124 11706
L22124 11987
L22106 12043
L22068 12081
L22012 12100
L21974 12100
" />
<path d="M22480 11706
L22405 11706
L22368 11725
L22349 11743
L22312 11800
L22293 11875
L22293 12025
L22312 12062
L22330 12081
L22368 12100
L22443 12100
L22480 12081
L22499 12062
L22518 12025
L22518 11931
L22499 11893
L22480 11875
L22443 11856
L22368 11856
L22330 11875
L22312 11893
L22293 11931
" />
<g >
</g>
</g> 
</svg>
