G04 #@! TF.GenerationSoftware,KiCad,Pcbnew,6.0.11-2627ca5db0~126~ubuntu20.04.1*
G04 #@! TF.CreationDate,2023-03-16T14:55:18-05:00*
G04 #@! TF.ProjectId,C12,4331322e-6b69-4636-9164-5f7063625858,rev?*
G04 #@! TF.SameCoordinates,Original*
G04 #@! TF.FileFunction,Legend,Top*
G04 #@! TF.FilePolarity,Positive*
%FSLAX46Y46*%
G04 Gerber Fmt 4.6, Leading zero omitted, Abs format (unit mm)*
G04 Created by KiCad (PCBNEW 6.0.11-2627ca5db0~126~ubuntu20.04.1) date 2023-03-16 14:55:18*
%MOMM*%
%LPD*%
G01*
G04 APERTURE LIST*
%ADD10C,0.250000*%
G04 #@! TA.AperFunction,Profile*
%ADD11C,0.050000*%
G04 #@! TD*
%ADD12C,0.150000*%
%ADD13C,0.120000*%
%ADD14C,0.010000*%
G04 APERTURE END LIST*
D10*
X24579866Y-48642542D02*
X24532247Y-48690161D01*
X24389390Y-48737780D01*
X24294152Y-48737780D01*
X24151295Y-48690161D01*
X24056057Y-48594923D01*
X24008438Y-48499685D01*
X23960819Y-48309209D01*
X23960819Y-48166352D01*
X24008438Y-47975876D01*
X24056057Y-47880638D01*
X24151295Y-47785400D01*
X24294152Y-47737780D01*
X24389390Y-47737780D01*
X24532247Y-47785400D01*
X24579866Y-47833019D01*
X25532247Y-48737780D02*
X24960819Y-48737780D01*
X25246533Y-48737780D02*
X25246533Y-47737780D01*
X25151295Y-47880638D01*
X25056057Y-47975876D01*
X24960819Y-48023495D01*
X25913200Y-47833019D02*
X25960819Y-47785400D01*
X26056057Y-47737780D01*
X26294152Y-47737780D01*
X26389390Y-47785400D01*
X26437009Y-47833019D01*
X26484628Y-47928257D01*
X26484628Y-48023495D01*
X26437009Y-48166352D01*
X25865580Y-48737780D01*
X26484628Y-48737780D01*
X26675104Y-48833019D02*
X27437009Y-48833019D01*
X28008438Y-48213971D02*
X28151295Y-48261590D01*
X28198914Y-48309209D01*
X28246533Y-48404447D01*
X28246533Y-48547304D01*
X28198914Y-48642542D01*
X28151295Y-48690161D01*
X28056057Y-48737780D01*
X27675104Y-48737780D01*
X27675104Y-47737780D01*
X28008438Y-47737780D01*
X28103676Y-47785400D01*
X28151295Y-47833019D01*
X28198914Y-47928257D01*
X28198914Y-48023495D01*
X28151295Y-48118733D01*
X28103676Y-48166352D01*
X28008438Y-48213971D01*
X27675104Y-48213971D01*
X29246533Y-48737780D02*
X28913200Y-48261590D01*
X28675104Y-48737780D02*
X28675104Y-47737780D01*
X29056057Y-47737780D01*
X29151295Y-47785400D01*
X29198914Y-47833019D01*
X29246533Y-47928257D01*
X29246533Y-48071114D01*
X29198914Y-48166352D01*
X29151295Y-48213971D01*
X29056057Y-48261590D01*
X28675104Y-48261590D01*
X29675104Y-48213971D02*
X30008438Y-48213971D01*
X30151295Y-48737780D02*
X29675104Y-48737780D01*
X29675104Y-47737780D01*
X30151295Y-47737780D01*
X30532247Y-48452066D02*
X31008438Y-48452066D01*
X30437009Y-48737780D02*
X30770342Y-47737780D01*
X31103676Y-48737780D01*
X31437009Y-48737780D02*
X31437009Y-47737780D01*
X32008438Y-48737780D02*
X31579866Y-48166352D01*
X32008438Y-47737780D02*
X31437009Y-48309209D01*
X32627485Y-47737780D02*
X32817961Y-47737780D01*
X32913200Y-47785400D01*
X33008438Y-47880638D01*
X33056057Y-48071114D01*
X33056057Y-48404447D01*
X33008438Y-48594923D01*
X32913200Y-48690161D01*
X32817961Y-48737780D01*
X32627485Y-48737780D01*
X32532247Y-48690161D01*
X32437009Y-48594923D01*
X32389390Y-48404447D01*
X32389390Y-48071114D01*
X32437009Y-47880638D01*
X32532247Y-47785400D01*
X32627485Y-47737780D01*
X33484628Y-47737780D02*
X33484628Y-48547304D01*
X33532247Y-48642542D01*
X33579866Y-48690161D01*
X33675104Y-48737780D01*
X33865580Y-48737780D01*
X33960819Y-48690161D01*
X34008438Y-48642542D01*
X34056057Y-48547304D01*
X34056057Y-47737780D01*
X34389390Y-47737780D02*
X34960819Y-47737780D01*
X34675104Y-48737780D02*
X34675104Y-47737780D01*
D11*
X58100000Y-20000000D02*
X58100000Y-68260000D01*
X20000000Y-68260000D02*
X58100000Y-68260000D01*
X20000000Y-20000000D02*
X58100000Y-20000000D01*
X20000000Y-20000000D02*
X20000000Y-68260000D01*
D12*
X38784666Y-18476380D02*
X38784666Y-19190666D01*
X38737047Y-19333523D01*
X38641809Y-19428761D01*
X38498952Y-19476380D01*
X38403714Y-19476380D01*
X39689428Y-18476380D02*
X39498952Y-18476380D01*
X39403714Y-18524000D01*
X39356095Y-18571619D01*
X39260857Y-18714476D01*
X39213238Y-18904952D01*
X39213238Y-19285904D01*
X39260857Y-19381142D01*
X39308476Y-19428761D01*
X39403714Y-19476380D01*
X39594190Y-19476380D01*
X39689428Y-19428761D01*
X39737047Y-19381142D01*
X39784666Y-19285904D01*
X39784666Y-19047809D01*
X39737047Y-18952571D01*
X39689428Y-18904952D01*
X39594190Y-18857333D01*
X39403714Y-18857333D01*
X39308476Y-18904952D01*
X39260857Y-18952571D01*
X39213238Y-19047809D01*
X38780666Y-68720380D02*
X38780666Y-69434666D01*
X38733047Y-69577523D01*
X38637809Y-69672761D01*
X38494952Y-69720380D01*
X38399714Y-69720380D01*
X39733047Y-68720380D02*
X39256857Y-68720380D01*
X39209238Y-69196571D01*
X39256857Y-69148952D01*
X39352095Y-69101333D01*
X39590190Y-69101333D01*
X39685428Y-69148952D01*
X39733047Y-69196571D01*
X39780666Y-69291809D01*
X39780666Y-69529904D01*
X39733047Y-69625142D01*
X39685428Y-69672761D01*
X39590190Y-69720380D01*
X39352095Y-69720380D01*
X39256857Y-69672761D01*
X39209238Y-69625142D01*
X52262380Y-30493333D02*
X52976666Y-30493333D01*
X53119523Y-30540952D01*
X53214761Y-30636190D01*
X53262380Y-30779047D01*
X53262380Y-30874285D01*
X52595714Y-29588571D02*
X53262380Y-29588571D01*
X52214761Y-29826666D02*
X52929047Y-30064761D01*
X52929047Y-29445714D01*
X24742380Y-58433333D02*
X25456666Y-58433333D01*
X25599523Y-58480952D01*
X25694761Y-58576190D01*
X25742380Y-58719047D01*
X25742380Y-58814285D01*
X24742380Y-58052380D02*
X24742380Y-57433333D01*
X25123333Y-57766666D01*
X25123333Y-57623809D01*
X25170952Y-57528571D01*
X25218571Y-57480952D01*
X25313809Y-57433333D01*
X25551904Y-57433333D01*
X25647142Y-57480952D01*
X25694761Y-57528571D01*
X25742380Y-57623809D01*
X25742380Y-57909523D01*
X25694761Y-58004761D01*
X25647142Y-58052380D01*
X24740620Y-56701013D02*
X25454906Y-56701013D01*
X25597763Y-56748632D01*
X25693001Y-56843870D01*
X25740620Y-56986727D01*
X25740620Y-57081965D01*
X25740620Y-55701013D02*
X25740620Y-56272441D01*
X25740620Y-55986727D02*
X24740620Y-55986727D01*
X24883478Y-56081965D01*
X24978716Y-56177203D01*
X25026335Y-56272441D01*
X52416460Y-32261133D02*
X53130746Y-32261133D01*
X53273603Y-32308752D01*
X53368841Y-32403990D01*
X53416460Y-32546847D01*
X53416460Y-32642085D01*
X52511699Y-31832561D02*
X52464080Y-31784942D01*
X52416460Y-31689704D01*
X52416460Y-31451609D01*
X52464080Y-31356371D01*
X52511699Y-31308752D01*
X52606937Y-31261133D01*
X52702175Y-31261133D01*
X52845032Y-31308752D01*
X53416460Y-31880180D01*
X53416460Y-31261133D01*
D13*
X57178000Y-20024000D02*
X57178000Y-28444000D01*
X35268000Y-24534000D02*
X35268000Y-24534000D01*
X28268000Y-20784000D02*
X28268000Y-23095000D01*
X49968000Y-20784000D02*
X49968000Y-23095000D01*
X42968000Y-20784000D02*
X42968000Y-23095000D01*
X42268000Y-24473000D02*
X42268000Y-24534000D01*
X32468000Y-20784000D02*
X35268000Y-20784000D01*
X49968000Y-24534000D02*
X49969000Y-24534000D01*
X53468000Y-20784000D02*
X56268000Y-20784000D01*
X52768000Y-24473000D02*
X52768000Y-24534000D01*
X46468000Y-24473000D02*
X46468000Y-24534000D01*
X38768000Y-24534000D02*
X38768000Y-24534000D01*
X31768000Y-24534000D02*
X31768000Y-24534000D01*
X45768000Y-20784000D02*
X45768000Y-23095000D01*
X21058000Y-24885000D02*
X21828000Y-24885000D01*
X42002000Y-24885000D02*
X43235000Y-24885000D01*
X21968000Y-20784000D02*
X21968000Y-22244000D01*
X32468000Y-20784000D02*
X32468000Y-23095000D01*
X28968000Y-20784000D02*
X28968000Y-23095000D01*
X25468000Y-20784000D02*
X25468000Y-23095000D01*
X52768000Y-24534000D02*
X52768000Y-24534000D01*
X49968000Y-20784000D02*
X52768000Y-20784000D01*
X21058000Y-28444000D02*
X57178000Y-28444000D01*
X28268000Y-24534000D02*
X28268000Y-24534000D01*
X35968000Y-20784000D02*
X35968000Y-23095000D01*
X31768000Y-20784000D02*
X31768000Y-23095000D01*
X35268000Y-24473000D02*
X35268000Y-24534000D01*
X49268000Y-24534000D02*
X49268000Y-24534000D01*
X38768000Y-24473000D02*
X38768000Y-24534000D01*
X39469000Y-20784000D02*
X39469000Y-23095000D01*
X38502000Y-24885000D02*
X39735000Y-24885000D01*
X39469000Y-24473000D02*
X39469000Y-24534000D01*
X21058000Y-20024000D02*
X57178000Y-20024000D01*
X49268000Y-24473000D02*
X49268000Y-24534000D01*
X42968000Y-20784000D02*
X45768000Y-20784000D01*
X46468000Y-24534000D02*
X46469000Y-24534000D01*
X39469000Y-20784000D02*
X42268000Y-20784000D01*
X42268000Y-20784000D02*
X42268000Y-23095000D01*
X24768000Y-20784000D02*
X24768000Y-22244000D01*
X56268000Y-24473000D02*
X56268000Y-24534000D01*
X28268000Y-24473000D02*
X28268000Y-24534000D01*
X28968000Y-24534000D02*
X28969000Y-24534000D01*
X24908000Y-24885000D02*
X25735000Y-24885000D01*
X25468000Y-24534000D02*
X25469000Y-24534000D01*
X49002000Y-24885000D02*
X50235000Y-24885000D01*
X31768000Y-24473000D02*
X31768000Y-24534000D01*
X35968000Y-20784000D02*
X38768000Y-20784000D01*
X53468000Y-20784000D02*
X53468000Y-23095000D01*
X20818000Y-26444000D02*
X20818000Y-28684000D01*
X52502000Y-24885000D02*
X53735000Y-24885000D01*
X42968000Y-24534000D02*
X42969000Y-24534000D01*
X42268000Y-24534000D02*
X42268000Y-24534000D01*
X28002000Y-24885000D02*
X29235000Y-24885000D01*
X56002000Y-24885000D02*
X57178000Y-24885000D01*
X38768000Y-20784000D02*
X38768000Y-23095000D01*
X35968000Y-24534000D02*
X35969000Y-24534000D01*
X28968000Y-24473000D02*
X28968000Y-24534000D01*
X25468000Y-20784000D02*
X28268000Y-20784000D01*
X28968000Y-20784000D02*
X31768000Y-20784000D01*
X32468000Y-24534000D02*
X32469000Y-24534000D01*
X35968000Y-24473000D02*
X35968000Y-24534000D01*
X45502000Y-24885000D02*
X46735000Y-24885000D01*
X32468000Y-24473000D02*
X32468000Y-24534000D01*
X35268000Y-20784000D02*
X35268000Y-23095000D01*
X25468000Y-24473000D02*
X25468000Y-24534000D01*
X39469000Y-24534000D02*
X39469000Y-24534000D01*
X31502000Y-24885000D02*
X32735000Y-24885000D01*
X21058000Y-20024000D02*
X21058000Y-28444000D01*
X20818000Y-28684000D02*
X22818000Y-28684000D01*
X46468000Y-20784000D02*
X46468000Y-23095000D01*
X42968000Y-24473000D02*
X42968000Y-24534000D01*
X21968000Y-20784000D02*
X24768000Y-20784000D01*
X53468000Y-24534000D02*
X53469000Y-24534000D01*
X56268000Y-20784000D02*
X56268000Y-23095000D01*
X45768000Y-24534000D02*
X45768000Y-24534000D01*
X56268000Y-24534000D02*
X56268000Y-24534000D01*
X35002000Y-24885000D02*
X36235000Y-24885000D01*
X45768000Y-24473000D02*
X45768000Y-24534000D01*
X53468000Y-24473000D02*
X53468000Y-24534000D01*
X46468000Y-20784000D02*
X49268000Y-20784000D01*
X49968000Y-24473000D02*
X49968000Y-24534000D01*
X52768000Y-20784000D02*
X52768000Y-23095000D01*
X49268000Y-20784000D02*
X49268000Y-23095000D01*
X48808000Y-22526000D02*
G75*
G03*
X46928085Y-22526233I-940000J342000D01*
G01*
X41808000Y-22526000D02*
G75*
G03*
X39928085Y-22526233I-940000J342000D01*
G01*
X27808000Y-22526000D02*
G75*
G03*
X25928085Y-22526233I-940000J342000D01*
G01*
X45308000Y-22526000D02*
G75*
G03*
X43428085Y-22526233I-940000J342000D01*
G01*
X31308000Y-22526000D02*
G75*
G03*
X29428085Y-22526233I-940000J342000D01*
G01*
X38308000Y-22526000D02*
G75*
G03*
X36428085Y-22526233I-940000J342000D01*
G01*
X55808000Y-22526000D02*
G75*
G03*
X53928085Y-22526233I-940000J342000D01*
G01*
X52308000Y-22526000D02*
G75*
G03*
X50428085Y-22526233I-940000J342000D01*
G01*
X34808000Y-22526000D02*
G75*
G03*
X32928085Y-22526233I-940000J342000D01*
G01*
X24366000Y-22253000D02*
G75*
G03*
X22370110Y-22254566I-998000J69000D01*
G01*
X21054000Y-68268000D02*
X21054000Y-59848000D01*
X42964000Y-63758000D02*
X42964000Y-63758000D01*
X49964000Y-67508000D02*
X49964000Y-65197000D01*
X28264000Y-67508000D02*
X28264000Y-65197000D01*
X35264000Y-67508000D02*
X35264000Y-65197000D01*
X35964000Y-63819000D02*
X35964000Y-63758000D01*
X45764000Y-67508000D02*
X42964000Y-67508000D01*
X28264000Y-63758000D02*
X28263000Y-63758000D01*
X24764000Y-67508000D02*
X21964000Y-67508000D01*
X25464000Y-63819000D02*
X25464000Y-63758000D01*
X31764000Y-63819000D02*
X31764000Y-63758000D01*
X39464000Y-63758000D02*
X39464000Y-63758000D01*
X46464000Y-63758000D02*
X46464000Y-63758000D01*
X32464000Y-67508000D02*
X32464000Y-65197000D01*
X57174000Y-63407000D02*
X56404000Y-63407000D01*
X36230000Y-63407000D02*
X34997000Y-63407000D01*
X56264000Y-67508000D02*
X56264000Y-66048000D01*
X45764000Y-67508000D02*
X45764000Y-65197000D01*
X49264000Y-67508000D02*
X49264000Y-65197000D01*
X52764000Y-67508000D02*
X52764000Y-65197000D01*
X25464000Y-63758000D02*
X25464000Y-63758000D01*
X28264000Y-67508000D02*
X25464000Y-67508000D01*
X57174000Y-59848000D02*
X21054000Y-59848000D01*
X49964000Y-63758000D02*
X49964000Y-63758000D01*
X42264000Y-67508000D02*
X42264000Y-65197000D01*
X46464000Y-67508000D02*
X46464000Y-65197000D01*
X42964000Y-63819000D02*
X42964000Y-63758000D01*
X28964000Y-63758000D02*
X28964000Y-63758000D01*
X39464000Y-63819000D02*
X39464000Y-63758000D01*
X38763000Y-67508000D02*
X38763000Y-65197000D01*
X39730000Y-63407000D02*
X38497000Y-63407000D01*
X38763000Y-63819000D02*
X38763000Y-63758000D01*
X57174000Y-68268000D02*
X21054000Y-68268000D01*
X28964000Y-63819000D02*
X28964000Y-63758000D01*
X35264000Y-67508000D02*
X32464000Y-67508000D01*
X31764000Y-63758000D02*
X31763000Y-63758000D01*
X38763000Y-67508000D02*
X35964000Y-67508000D01*
X35964000Y-67508000D02*
X35964000Y-65197000D01*
X53464000Y-67508000D02*
X53464000Y-66048000D01*
X21964000Y-63819000D02*
X21964000Y-63758000D01*
X49964000Y-63819000D02*
X49964000Y-63758000D01*
X49264000Y-63758000D02*
X49263000Y-63758000D01*
X53324000Y-63407000D02*
X52497000Y-63407000D01*
X52764000Y-63758000D02*
X52763000Y-63758000D01*
X29230000Y-63407000D02*
X27997000Y-63407000D01*
X46464000Y-63819000D02*
X46464000Y-63758000D01*
X42264000Y-67508000D02*
X39464000Y-67508000D01*
X24764000Y-67508000D02*
X24764000Y-65197000D01*
X57414000Y-61848000D02*
X57414000Y-59608000D01*
X25730000Y-63407000D02*
X24497000Y-63407000D01*
X35264000Y-63758000D02*
X35263000Y-63758000D01*
X35964000Y-63758000D02*
X35964000Y-63758000D01*
X50230000Y-63407000D02*
X48997000Y-63407000D01*
X22230000Y-63407000D02*
X21054000Y-63407000D01*
X39464000Y-67508000D02*
X39464000Y-65197000D01*
X42264000Y-63758000D02*
X42263000Y-63758000D01*
X49264000Y-63819000D02*
X49264000Y-63758000D01*
X52764000Y-67508000D02*
X49964000Y-67508000D01*
X49264000Y-67508000D02*
X46464000Y-67508000D01*
X45764000Y-63758000D02*
X45763000Y-63758000D01*
X42264000Y-63819000D02*
X42264000Y-63758000D01*
X32730000Y-63407000D02*
X31497000Y-63407000D01*
X45764000Y-63819000D02*
X45764000Y-63758000D01*
X42964000Y-67508000D02*
X42964000Y-65197000D01*
X52764000Y-63819000D02*
X52764000Y-63758000D01*
X38763000Y-63758000D02*
X38763000Y-63758000D01*
X46730000Y-63407000D02*
X45497000Y-63407000D01*
X57174000Y-68268000D02*
X57174000Y-59848000D01*
X57414000Y-59608000D02*
X55414000Y-59608000D01*
X31764000Y-67508000D02*
X31764000Y-65197000D01*
X35264000Y-63819000D02*
X35264000Y-63758000D01*
X56264000Y-67508000D02*
X53464000Y-67508000D01*
X24764000Y-63758000D02*
X24763000Y-63758000D01*
X21964000Y-67508000D02*
X21964000Y-65197000D01*
X32464000Y-63758000D02*
X32464000Y-63758000D01*
X21964000Y-63758000D02*
X21964000Y-63758000D01*
X43230000Y-63407000D02*
X41997000Y-63407000D01*
X32464000Y-63819000D02*
X32464000Y-63758000D01*
X24764000Y-63819000D02*
X24764000Y-63758000D01*
X31764000Y-67508000D02*
X28964000Y-67508000D01*
X28264000Y-63819000D02*
X28264000Y-63758000D01*
X25464000Y-67508000D02*
X25464000Y-65197000D01*
X28964000Y-67508000D02*
X28964000Y-65197000D01*
X29424000Y-65766000D02*
G75*
G03*
X31303915Y-65765767I940000J-342000D01*
G01*
X36424000Y-65766000D02*
G75*
G03*
X38303915Y-65765767I940000J-342000D01*
G01*
X50424000Y-65766000D02*
G75*
G03*
X52303915Y-65765767I940000J-342000D01*
G01*
X32924000Y-65766000D02*
G75*
G03*
X34803915Y-65765767I940000J-342000D01*
G01*
X46924000Y-65766000D02*
G75*
G03*
X48803915Y-65765767I940000J-342000D01*
G01*
X39924000Y-65766000D02*
G75*
G03*
X41803915Y-65765767I940000J-342000D01*
G01*
X22424000Y-65766000D02*
G75*
G03*
X24303915Y-65765767I940000J-342000D01*
G01*
X25924000Y-65766000D02*
G75*
G03*
X27803915Y-65765767I940000J-342000D01*
G01*
X43424000Y-65766000D02*
G75*
G03*
X45303915Y-65765767I940000J-342000D01*
G01*
X53866000Y-66039000D02*
G75*
G03*
X55861890Y-66037434I998000J-69000D01*
G01*
X51810000Y-28830000D02*
X51810000Y-30160000D01*
X50480000Y-28830000D02*
X51810000Y-28830000D01*
X49210000Y-28830000D02*
X49210000Y-31490000D01*
X49210000Y-31490000D02*
X26290000Y-31490000D01*
X49210000Y-28830000D02*
X26290000Y-28830000D01*
X26290000Y-28830000D02*
X26290000Y-31490000D01*
X26290000Y-59430000D02*
X26290000Y-58100000D01*
X27620000Y-59430000D02*
X26290000Y-59430000D01*
X28890000Y-59430000D02*
X28890000Y-56770000D01*
X28890000Y-56770000D02*
X51810000Y-56770000D01*
X28890000Y-59430000D02*
X51810000Y-59430000D01*
X51810000Y-59430000D02*
X51810000Y-56770000D01*
X26290000Y-56890000D02*
X26290000Y-55560000D01*
X27620000Y-56890000D02*
X26290000Y-56890000D01*
X28890000Y-56890000D02*
X28890000Y-54230000D01*
X28890000Y-54230000D02*
X51810000Y-54230000D01*
X28890000Y-56890000D02*
X51810000Y-56890000D01*
X51810000Y-56890000D02*
X51810000Y-54230000D01*
X51810000Y-31370000D02*
X51810000Y-32700000D01*
X50480000Y-31370000D02*
X51810000Y-31370000D01*
X49210000Y-31370000D02*
X49210000Y-34030000D01*
X49210000Y-34030000D02*
X26290000Y-34030000D01*
X49210000Y-31370000D02*
X26290000Y-31370000D01*
X26290000Y-31370000D02*
X26290000Y-34030000D01*
G36*
X29755654Y-40618451D02*
G01*
X29839475Y-41063075D01*
X30148760Y-41190573D01*
X30458046Y-41318071D01*
X30829086Y-41065766D01*
X30932997Y-40995516D01*
X31026927Y-40932792D01*
X31106492Y-40880458D01*
X31167310Y-40841377D01*
X31204997Y-40818413D01*
X31215261Y-40813462D01*
X31233750Y-40826196D01*
X31273260Y-40861402D01*
X31329362Y-40914582D01*
X31397627Y-40981238D01*
X31473626Y-41056874D01*
X31552932Y-41136992D01*
X31631115Y-41217094D01*
X31703747Y-41292684D01*
X31766399Y-41359265D01*
X31814643Y-41412338D01*
X31844050Y-41447407D01*
X31851081Y-41459143D01*
X31840963Y-41480780D01*
X31812599Y-41528182D01*
X31768969Y-41596713D01*
X31713058Y-41681735D01*
X31647846Y-41778613D01*
X31610059Y-41833870D01*
X31541183Y-41934768D01*
X31479980Y-42025819D01*
X31429418Y-42102490D01*
X31392468Y-42160248D01*
X31372098Y-42194563D01*
X31369037Y-42201774D01*
X31375976Y-42222268D01*
X31394891Y-42270033D01*
X31422927Y-42338352D01*
X31457231Y-42420509D01*
X31494949Y-42509790D01*
X31533227Y-42599478D01*
X31569210Y-42682858D01*
X31600046Y-42753214D01*
X31622879Y-42803830D01*
X31634857Y-42827991D01*
X31635564Y-42828942D01*
X31654371Y-42833556D01*
X31704458Y-42843848D01*
X31780633Y-42858807D01*
X31877705Y-42877421D01*
X31990483Y-42898679D01*
X32056282Y-42910938D01*
X32176790Y-42933882D01*
X32285637Y-42955715D01*
X32377316Y-42975242D01*
X32446321Y-42991268D01*
X32487144Y-43002599D01*
X32495351Y-43006194D01*
X32503388Y-43030526D01*
X32509873Y-43085479D01*
X32514810Y-43164628D01*
X32518204Y-43261546D01*
X32520058Y-43369807D01*
X32520378Y-43482985D01*
X32519167Y-43594655D01*
X32516430Y-43698388D01*
X32512171Y-43787761D01*
X32506395Y-43856346D01*
X32499107Y-43897717D01*
X32494735Y-43906330D01*
X32468604Y-43916653D01*
X32413233Y-43931412D01*
X32335947Y-43948872D01*
X32244070Y-43967300D01*
X32211998Y-43973261D01*
X32057364Y-44001586D01*
X31935215Y-44024396D01*
X31841513Y-44042600D01*
X31772224Y-44057103D01*
X31723311Y-44068812D01*
X31690737Y-44078635D01*
X31670468Y-44087476D01*
X31658466Y-44096244D01*
X31656787Y-44097977D01*
X31640024Y-44125891D01*
X31614454Y-44180215D01*
X31582628Y-44254297D01*
X31547100Y-44341485D01*
X31510423Y-44435128D01*
X31475151Y-44528572D01*
X31443836Y-44615167D01*
X31419033Y-44688260D01*
X31403294Y-44741198D01*
X31399172Y-44767331D01*
X31399516Y-44768246D01*
X31413481Y-44789606D01*
X31445162Y-44836604D01*
X31491231Y-44904347D01*
X31548358Y-44987943D01*
X31613213Y-45082502D01*
X31631683Y-45109374D01*
X31697539Y-45206795D01*
X31755490Y-45295683D01*
X31802378Y-45370932D01*
X31835047Y-45427440D01*
X31850340Y-45460101D01*
X31851081Y-45464113D01*
X31838232Y-45485204D01*
X31802728Y-45526984D01*
X31749133Y-45584965D01*
X31682011Y-45654655D01*
X31605927Y-45731565D01*
X31525444Y-45811203D01*
X31445127Y-45889081D01*
X31369539Y-45960706D01*
X31303245Y-46021590D01*
X31250809Y-46067241D01*
X31216795Y-46093170D01*
X31207385Y-46097403D01*
X31185483Y-46087432D01*
X31140640Y-46060540D01*
X31080161Y-46021256D01*
X31033629Y-45989637D01*
X30949315Y-45931618D01*
X30849466Y-45863304D01*
X30749313Y-45795099D01*
X30695467Y-45758595D01*
X30513211Y-45635320D01*
X30360221Y-45718040D01*
X30290522Y-45754279D01*
X30231254Y-45782446D01*
X30191151Y-45798511D01*
X30180943Y-45800746D01*
X30168669Y-45784242D01*
X30144453Y-45737602D01*
X30110103Y-45665129D01*
X30067428Y-45571126D01*
X30018234Y-45459894D01*
X29964330Y-45335735D01*
X29907524Y-45202952D01*
X29849622Y-45065847D01*
X29792433Y-44928722D01*
X29737764Y-44795878D01*
X29687424Y-44671618D01*
X29643220Y-44560245D01*
X29606959Y-44466059D01*
X29580449Y-44393364D01*
X29565498Y-44346461D01*
X29563094Y-44330353D01*
X29582151Y-44309806D01*
X29623876Y-44276453D01*
X29679546Y-44237222D01*
X29684218Y-44234119D01*
X29828104Y-44118943D01*
X29944123Y-43984573D01*
X30031270Y-43835304D01*
X30088539Y-43675433D01*
X30114926Y-43509257D01*
X30109425Y-43341072D01*
X30071030Y-43175175D01*
X29998735Y-43015862D01*
X29977466Y-42981007D01*
X29866836Y-42840257D01*
X29736142Y-42727234D01*
X29589904Y-42642523D01*
X29432648Y-42586714D01*
X29268897Y-42560394D01*
X29103173Y-42564150D01*
X28940002Y-42598570D01*
X28783905Y-42664243D01*
X28639407Y-42761755D01*
X28594709Y-42801333D01*
X28480952Y-42925223D01*
X28398058Y-43055644D01*
X28341196Y-43201835D01*
X28309527Y-43346608D01*
X28301709Y-43509380D01*
X28327778Y-43672960D01*
X28385085Y-43831818D01*
X28470984Y-43980426D01*
X28582826Y-44113255D01*
X28717963Y-44224776D01*
X28735723Y-44236531D01*
X28791990Y-44275028D01*
X28834763Y-44308383D01*
X28855212Y-44329680D01*
X28855509Y-44330353D01*
X28851119Y-44353391D01*
X28833716Y-44405677D01*
X28805108Y-44482910D01*
X28767105Y-44580788D01*
X28721514Y-44695011D01*
X28670143Y-44821278D01*
X28614802Y-44955287D01*
X28557298Y-45092738D01*
X28499441Y-45229328D01*
X28443038Y-45360757D01*
X28389898Y-45482725D01*
X28341830Y-45590929D01*
X28300641Y-45681069D01*
X28268141Y-45748843D01*
X28246137Y-45789950D01*
X28237276Y-45800746D01*
X28210200Y-45792339D01*
X28159537Y-45769792D01*
X28094023Y-45737133D01*
X28057999Y-45718040D01*
X27905008Y-45635320D01*
X27722752Y-45758595D01*
X27629715Y-45821748D01*
X27527855Y-45891247D01*
X27432402Y-45956685D01*
X27384590Y-45989637D01*
X27317345Y-46034793D01*
X27260404Y-46070577D01*
X27221194Y-46092458D01*
X27208459Y-46097083D01*
X27189923Y-46084605D01*
X27148899Y-46049772D01*
X27089365Y-45996198D01*
X27015298Y-45927503D01*
X26930675Y-45847301D01*
X26877155Y-45795806D01*
X26783521Y-45703806D01*
X26702599Y-45621519D01*
X26637663Y-45552465D01*
X26591982Y-45500164D01*
X26568829Y-45468136D01*
X26566608Y-45461636D01*
X26576916Y-45436914D01*
X26605401Y-45386925D01*
X26648903Y-45316732D01*
X26704263Y-45231395D01*
X26768320Y-45135976D01*
X26786537Y-45109374D01*
X26852913Y-45012687D01*
X26912462Y-44925637D01*
X26961856Y-44853115D01*
X26997765Y-44800013D01*
X27016859Y-44771223D01*
X27018704Y-44768246D01*
X27015945Y-44745302D01*
X27001302Y-44694856D01*
X26977327Y-44623561D01*
X26946574Y-44538067D01*
X26911596Y-44445027D01*
X26874947Y-44351094D01*
X26839179Y-44262919D01*
X26806846Y-44187154D01*
X26780502Y-44130451D01*
X26762698Y-44099463D01*
X26761433Y-44097977D01*
X26750546Y-44089121D01*
X26732158Y-44080363D01*
X26702234Y-44070797D01*
X26656737Y-44059516D01*
X26591631Y-44045613D01*
X26502879Y-44028183D01*
X26386447Y-44006318D01*
X26238298Y-43979111D01*
X26206222Y-43973261D01*
X26111154Y-43954894D01*
X26028275Y-43936925D01*
X25964910Y-43921089D01*
X25928382Y-43909120D01*
X25923484Y-43906330D01*
X25915413Y-43881592D01*
X25908853Y-43826310D01*
X25903807Y-43746909D01*
X25900281Y-43649816D01*
X25898279Y-43541458D01*
X25897804Y-43428260D01*
X25898863Y-43316648D01*
X25901458Y-43213049D01*
X25905594Y-43123888D01*
X25911277Y-43055592D01*
X25918509Y-43014586D01*
X25922869Y-43006194D01*
X25947142Y-42997728D01*
X26002414Y-42983955D01*
X26083178Y-42966070D01*
X26183928Y-42945268D01*
X26299157Y-42922743D01*
X26361938Y-42910938D01*
X26481053Y-42888671D01*
X26587275Y-42868499D01*
X26675413Y-42851435D01*
X26740274Y-42838489D01*
X26776666Y-42830675D01*
X26782656Y-42828942D01*
X26792779Y-42809410D01*
X26814178Y-42762363D01*
X26844001Y-42694523D01*
X26879395Y-42612611D01*
X26917508Y-42523348D01*
X26955487Y-42433455D01*
X26990480Y-42349655D01*
X27019634Y-42278667D01*
X27040097Y-42227214D01*
X27049017Y-42202017D01*
X27049183Y-42200916D01*
X27039071Y-42181039D01*
X27010723Y-42135297D01*
X26967117Y-42068237D01*
X26911234Y-41984404D01*
X26846053Y-41888346D01*
X26808161Y-41833170D01*
X26739115Y-41732001D01*
X26677790Y-41640150D01*
X26627177Y-41562264D01*
X26590269Y-41502989D01*
X26570058Y-41466971D01*
X26567139Y-41458897D01*
X26579687Y-41440104D01*
X26614377Y-41399977D01*
X26666777Y-41343013D01*
X26732456Y-41273705D01*
X26806984Y-41196551D01*
X26885927Y-41116045D01*
X26964857Y-41036683D01*
X27039340Y-40962960D01*
X27104946Y-40899372D01*
X27157244Y-40850414D01*
X27191801Y-40820581D01*
X27203362Y-40813462D01*
X27222186Y-40823473D01*
X27267209Y-40851598D01*
X27334053Y-40894974D01*
X27418341Y-40950738D01*
X27515696Y-41016026D01*
X27589133Y-41065766D01*
X27960173Y-41318071D01*
X28578745Y-41063075D01*
X28662565Y-40618451D01*
X28746386Y-40173827D01*
X29671834Y-40173827D01*
X29755654Y-40618451D01*
G37*
D14*
X29755654Y-40618451D02*
X29839475Y-41063075D01*
X30148760Y-41190573D01*
X30458046Y-41318071D01*
X30829086Y-41065766D01*
X30932997Y-40995516D01*
X31026927Y-40932792D01*
X31106492Y-40880458D01*
X31167310Y-40841377D01*
X31204997Y-40818413D01*
X31215261Y-40813462D01*
X31233750Y-40826196D01*
X31273260Y-40861402D01*
X31329362Y-40914582D01*
X31397627Y-40981238D01*
X31473626Y-41056874D01*
X31552932Y-41136992D01*
X31631115Y-41217094D01*
X31703747Y-41292684D01*
X31766399Y-41359265D01*
X31814643Y-41412338D01*
X31844050Y-41447407D01*
X31851081Y-41459143D01*
X31840963Y-41480780D01*
X31812599Y-41528182D01*
X31768969Y-41596713D01*
X31713058Y-41681735D01*
X31647846Y-41778613D01*
X31610059Y-41833870D01*
X31541183Y-41934768D01*
X31479980Y-42025819D01*
X31429418Y-42102490D01*
X31392468Y-42160248D01*
X31372098Y-42194563D01*
X31369037Y-42201774D01*
X31375976Y-42222268D01*
X31394891Y-42270033D01*
X31422927Y-42338352D01*
X31457231Y-42420509D01*
X31494949Y-42509790D01*
X31533227Y-42599478D01*
X31569210Y-42682858D01*
X31600046Y-42753214D01*
X31622879Y-42803830D01*
X31634857Y-42827991D01*
X31635564Y-42828942D01*
X31654371Y-42833556D01*
X31704458Y-42843848D01*
X31780633Y-42858807D01*
X31877705Y-42877421D01*
X31990483Y-42898679D01*
X32056282Y-42910938D01*
X32176790Y-42933882D01*
X32285637Y-42955715D01*
X32377316Y-42975242D01*
X32446321Y-42991268D01*
X32487144Y-43002599D01*
X32495351Y-43006194D01*
X32503388Y-43030526D01*
X32509873Y-43085479D01*
X32514810Y-43164628D01*
X32518204Y-43261546D01*
X32520058Y-43369807D01*
X32520378Y-43482985D01*
X32519167Y-43594655D01*
X32516430Y-43698388D01*
X32512171Y-43787761D01*
X32506395Y-43856346D01*
X32499107Y-43897717D01*
X32494735Y-43906330D01*
X32468604Y-43916653D01*
X32413233Y-43931412D01*
X32335947Y-43948872D01*
X32244070Y-43967300D01*
X32211998Y-43973261D01*
X32057364Y-44001586D01*
X31935215Y-44024396D01*
X31841513Y-44042600D01*
X31772224Y-44057103D01*
X31723311Y-44068812D01*
X31690737Y-44078635D01*
X31670468Y-44087476D01*
X31658466Y-44096244D01*
X31656787Y-44097977D01*
X31640024Y-44125891D01*
X31614454Y-44180215D01*
X31582628Y-44254297D01*
X31547100Y-44341485D01*
X31510423Y-44435128D01*
X31475151Y-44528572D01*
X31443836Y-44615167D01*
X31419033Y-44688260D01*
X31403294Y-44741198D01*
X31399172Y-44767331D01*
X31399516Y-44768246D01*
X31413481Y-44789606D01*
X31445162Y-44836604D01*
X31491231Y-44904347D01*
X31548358Y-44987943D01*
X31613213Y-45082502D01*
X31631683Y-45109374D01*
X31697539Y-45206795D01*
X31755490Y-45295683D01*
X31802378Y-45370932D01*
X31835047Y-45427440D01*
X31850340Y-45460101D01*
X31851081Y-45464113D01*
X31838232Y-45485204D01*
X31802728Y-45526984D01*
X31749133Y-45584965D01*
X31682011Y-45654655D01*
X31605927Y-45731565D01*
X31525444Y-45811203D01*
X31445127Y-45889081D01*
X31369539Y-45960706D01*
X31303245Y-46021590D01*
X31250809Y-46067241D01*
X31216795Y-46093170D01*
X31207385Y-46097403D01*
X31185483Y-46087432D01*
X31140640Y-46060540D01*
X31080161Y-46021256D01*
X31033629Y-45989637D01*
X30949315Y-45931618D01*
X30849466Y-45863304D01*
X30749313Y-45795099D01*
X30695467Y-45758595D01*
X30513211Y-45635320D01*
X30360221Y-45718040D01*
X30290522Y-45754279D01*
X30231254Y-45782446D01*
X30191151Y-45798511D01*
X30180943Y-45800746D01*
X30168669Y-45784242D01*
X30144453Y-45737602D01*
X30110103Y-45665129D01*
X30067428Y-45571126D01*
X30018234Y-45459894D01*
X29964330Y-45335735D01*
X29907524Y-45202952D01*
X29849622Y-45065847D01*
X29792433Y-44928722D01*
X29737764Y-44795878D01*
X29687424Y-44671618D01*
X29643220Y-44560245D01*
X29606959Y-44466059D01*
X29580449Y-44393364D01*
X29565498Y-44346461D01*
X29563094Y-44330353D01*
X29582151Y-44309806D01*
X29623876Y-44276453D01*
X29679546Y-44237222D01*
X29684218Y-44234119D01*
X29828104Y-44118943D01*
X29944123Y-43984573D01*
X30031270Y-43835304D01*
X30088539Y-43675433D01*
X30114926Y-43509257D01*
X30109425Y-43341072D01*
X30071030Y-43175175D01*
X29998735Y-43015862D01*
X29977466Y-42981007D01*
X29866836Y-42840257D01*
X29736142Y-42727234D01*
X29589904Y-42642523D01*
X29432648Y-42586714D01*
X29268897Y-42560394D01*
X29103173Y-42564150D01*
X28940002Y-42598570D01*
X28783905Y-42664243D01*
X28639407Y-42761755D01*
X28594709Y-42801333D01*
X28480952Y-42925223D01*
X28398058Y-43055644D01*
X28341196Y-43201835D01*
X28309527Y-43346608D01*
X28301709Y-43509380D01*
X28327778Y-43672960D01*
X28385085Y-43831818D01*
X28470984Y-43980426D01*
X28582826Y-44113255D01*
X28717963Y-44224776D01*
X28735723Y-44236531D01*
X28791990Y-44275028D01*
X28834763Y-44308383D01*
X28855212Y-44329680D01*
X28855509Y-44330353D01*
X28851119Y-44353391D01*
X28833716Y-44405677D01*
X28805108Y-44482910D01*
X28767105Y-44580788D01*
X28721514Y-44695011D01*
X28670143Y-44821278D01*
X28614802Y-44955287D01*
X28557298Y-45092738D01*
X28499441Y-45229328D01*
X28443038Y-45360757D01*
X28389898Y-45482725D01*
X28341830Y-45590929D01*
X28300641Y-45681069D01*
X28268141Y-45748843D01*
X28246137Y-45789950D01*
X28237276Y-45800746D01*
X28210200Y-45792339D01*
X28159537Y-45769792D01*
X28094023Y-45737133D01*
X28057999Y-45718040D01*
X27905008Y-45635320D01*
X27722752Y-45758595D01*
X27629715Y-45821748D01*
X27527855Y-45891247D01*
X27432402Y-45956685D01*
X27384590Y-45989637D01*
X27317345Y-46034793D01*
X27260404Y-46070577D01*
X27221194Y-46092458D01*
X27208459Y-46097083D01*
X27189923Y-46084605D01*
X27148899Y-46049772D01*
X27089365Y-45996198D01*
X27015298Y-45927503D01*
X26930675Y-45847301D01*
X26877155Y-45795806D01*
X26783521Y-45703806D01*
X26702599Y-45621519D01*
X26637663Y-45552465D01*
X26591982Y-45500164D01*
X26568829Y-45468136D01*
X26566608Y-45461636D01*
X26576916Y-45436914D01*
X26605401Y-45386925D01*
X26648903Y-45316732D01*
X26704263Y-45231395D01*
X26768320Y-45135976D01*
X26786537Y-45109374D01*
X26852913Y-45012687D01*
X26912462Y-44925637D01*
X26961856Y-44853115D01*
X26997765Y-44800013D01*
X27016859Y-44771223D01*
X27018704Y-44768246D01*
X27015945Y-44745302D01*
X27001302Y-44694856D01*
X26977327Y-44623561D01*
X26946574Y-44538067D01*
X26911596Y-44445027D01*
X26874947Y-44351094D01*
X26839179Y-44262919D01*
X26806846Y-44187154D01*
X26780502Y-44130451D01*
X26762698Y-44099463D01*
X26761433Y-44097977D01*
X26750546Y-44089121D01*
X26732158Y-44080363D01*
X26702234Y-44070797D01*
X26656737Y-44059516D01*
X26591631Y-44045613D01*
X26502879Y-44028183D01*
X26386447Y-44006318D01*
X26238298Y-43979111D01*
X26206222Y-43973261D01*
X26111154Y-43954894D01*
X26028275Y-43936925D01*
X25964910Y-43921089D01*
X25928382Y-43909120D01*
X25923484Y-43906330D01*
X25915413Y-43881592D01*
X25908853Y-43826310D01*
X25903807Y-43746909D01*
X25900281Y-43649816D01*
X25898279Y-43541458D01*
X25897804Y-43428260D01*
X25898863Y-43316648D01*
X25901458Y-43213049D01*
X25905594Y-43123888D01*
X25911277Y-43055592D01*
X25918509Y-43014586D01*
X25922869Y-43006194D01*
X25947142Y-42997728D01*
X26002414Y-42983955D01*
X26083178Y-42966070D01*
X26183928Y-42945268D01*
X26299157Y-42922743D01*
X26361938Y-42910938D01*
X26481053Y-42888671D01*
X26587275Y-42868499D01*
X26675413Y-42851435D01*
X26740274Y-42838489D01*
X26776666Y-42830675D01*
X26782656Y-42828942D01*
X26792779Y-42809410D01*
X26814178Y-42762363D01*
X26844001Y-42694523D01*
X26879395Y-42612611D01*
X26917508Y-42523348D01*
X26955487Y-42433455D01*
X26990480Y-42349655D01*
X27019634Y-42278667D01*
X27040097Y-42227214D01*
X27049017Y-42202017D01*
X27049183Y-42200916D01*
X27039071Y-42181039D01*
X27010723Y-42135297D01*
X26967117Y-42068237D01*
X26911234Y-41984404D01*
X26846053Y-41888346D01*
X26808161Y-41833170D01*
X26739115Y-41732001D01*
X26677790Y-41640150D01*
X26627177Y-41562264D01*
X26590269Y-41502989D01*
X26570058Y-41466971D01*
X26567139Y-41458897D01*
X26579687Y-41440104D01*
X26614377Y-41399977D01*
X26666777Y-41343013D01*
X26732456Y-41273705D01*
X26806984Y-41196551D01*
X26885927Y-41116045D01*
X26964857Y-41036683D01*
X27039340Y-40962960D01*
X27104946Y-40899372D01*
X27157244Y-40850414D01*
X27191801Y-40820581D01*
X27203362Y-40813462D01*
X27222186Y-40823473D01*
X27267209Y-40851598D01*
X27334053Y-40894974D01*
X27418341Y-40950738D01*
X27515696Y-41016026D01*
X27589133Y-41065766D01*
X27960173Y-41318071D01*
X28578745Y-41063075D01*
X28662565Y-40618451D01*
X28746386Y-40173827D01*
X29671834Y-40173827D01*
X29755654Y-40618451D01*
M02*
