G04 #@! TF.GenerationSoftware,KiCad,Pcbnew,5.1.5-52549c5~86~ubuntu18.04.1*
G04 #@! TF.CreationDate,2020-09-04T20:01:25-05:00*
G04 #@! TF.ProjectId,,58585858-5858-4585-9858-585858585858,rev?*
G04 #@! TF.SameCoordinates,Original*
G04 #@! TF.FileFunction,Legend,Top*
G04 #@! TF.FilePolarity,Positive*
%FSLAX46Y46*%
G04 Gerber Fmt 4.6, Leading zero omitted, Abs format (unit mm)*
G04 Created by KiCad (PCBNEW 5.1.5-52549c5~86~ubuntu18.04.1) date 2020-09-04 20:01:25*
%MOMM*%
%LPD*%
G04 APERTURE LIST*
%ADD10C,0.150000*%
%ADD11C,0.120000*%
G04 APERTURE END LIST*
D10*
X174823428Y-129313323D02*
X174775809Y-129456180D01*
X174728190Y-129503800D01*
X174632952Y-129551419D01*
X174490095Y-129551419D01*
X174394857Y-129503800D01*
X174347238Y-129456180D01*
X174299619Y-129360942D01*
X174299619Y-128979990D01*
X175299619Y-128979990D01*
X175299619Y-129313323D01*
X175252000Y-129408561D01*
X175204380Y-129456180D01*
X175109142Y-129503800D01*
X175013904Y-129503800D01*
X174918666Y-129456180D01*
X174871047Y-129408561D01*
X174823428Y-129313323D01*
X174823428Y-128979990D01*
X175299619Y-130170466D02*
X175299619Y-130265704D01*
X175252000Y-130360942D01*
X175204380Y-130408561D01*
X175109142Y-130456180D01*
X174918666Y-130503800D01*
X174680571Y-130503800D01*
X174490095Y-130456180D01*
X174394857Y-130408561D01*
X174347238Y-130360942D01*
X174299619Y-130265704D01*
X174299619Y-130170466D01*
X174347238Y-130075228D01*
X174394857Y-130027609D01*
X174490095Y-129979990D01*
X174680571Y-129932371D01*
X174918666Y-129932371D01*
X175109142Y-129979990D01*
X175204380Y-130027609D01*
X175252000Y-130075228D01*
X175299619Y-130170466D01*
X175299619Y-131122847D02*
X175299619Y-131218085D01*
X175252000Y-131313323D01*
X175204380Y-131360942D01*
X175109142Y-131408561D01*
X174918666Y-131456180D01*
X174680571Y-131456180D01*
X174490095Y-131408561D01*
X174394857Y-131360942D01*
X174347238Y-131313323D01*
X174299619Y-131218085D01*
X174299619Y-131122847D01*
X174347238Y-131027609D01*
X174394857Y-130979990D01*
X174490095Y-130932371D01*
X174680571Y-130884752D01*
X174918666Y-130884752D01*
X175109142Y-130932371D01*
X175204380Y-130979990D01*
X175252000Y-131027609D01*
X175299619Y-131122847D01*
X174204380Y-131646657D02*
X174204380Y-132408561D01*
X174347238Y-132599038D02*
X174299619Y-132741895D01*
X174299619Y-132979990D01*
X174347238Y-133075228D01*
X174394857Y-133122847D01*
X174490095Y-133170466D01*
X174585333Y-133170466D01*
X174680571Y-133122847D01*
X174728190Y-133075228D01*
X174775809Y-132979990D01*
X174823428Y-132789514D01*
X174871047Y-132694276D01*
X174918666Y-132646657D01*
X175013904Y-132599038D01*
X175109142Y-132599038D01*
X175204380Y-132646657D01*
X175252000Y-132694276D01*
X175299619Y-132789514D01*
X175299619Y-133027609D01*
X175252000Y-133170466D01*
X175204380Y-133551419D02*
X175252000Y-133599038D01*
X175299619Y-133694276D01*
X175299619Y-133932371D01*
X175252000Y-134027609D01*
X175204380Y-134075228D01*
X175109142Y-134122847D01*
X175013904Y-134122847D01*
X174871047Y-134075228D01*
X174299619Y-133503800D01*
X174299619Y-134122847D01*
X174347238Y-134503800D02*
X174299619Y-134646657D01*
X174299619Y-134884752D01*
X174347238Y-134979990D01*
X174394857Y-135027609D01*
X174490095Y-135075228D01*
X174585333Y-135075228D01*
X174680571Y-135027609D01*
X174728190Y-134979990D01*
X174775809Y-134884752D01*
X174823428Y-134694276D01*
X174871047Y-134599038D01*
X174918666Y-134551419D01*
X175013904Y-134503800D01*
X175109142Y-134503800D01*
X175204380Y-134551419D01*
X175252000Y-134599038D01*
X175299619Y-134694276D01*
X175299619Y-134932371D01*
X175252000Y-135075228D01*
X157043428Y-129313323D02*
X156995809Y-129456180D01*
X156948190Y-129503800D01*
X156852952Y-129551419D01*
X156710095Y-129551419D01*
X156614857Y-129503800D01*
X156567238Y-129456180D01*
X156519619Y-129360942D01*
X156519619Y-128979990D01*
X157519619Y-128979990D01*
X157519619Y-129313323D01*
X157472000Y-129408561D01*
X157424380Y-129456180D01*
X157329142Y-129503800D01*
X157233904Y-129503800D01*
X157138666Y-129456180D01*
X157091047Y-129408561D01*
X157043428Y-129313323D01*
X157043428Y-128979990D01*
X157519619Y-130170466D02*
X157519619Y-130265704D01*
X157472000Y-130360942D01*
X157424380Y-130408561D01*
X157329142Y-130456180D01*
X157138666Y-130503800D01*
X156900571Y-130503800D01*
X156710095Y-130456180D01*
X156614857Y-130408561D01*
X156567238Y-130360942D01*
X156519619Y-130265704D01*
X156519619Y-130170466D01*
X156567238Y-130075228D01*
X156614857Y-130027609D01*
X156710095Y-129979990D01*
X156900571Y-129932371D01*
X157138666Y-129932371D01*
X157329142Y-129979990D01*
X157424380Y-130027609D01*
X157472000Y-130075228D01*
X157519619Y-130170466D01*
X157519619Y-131122847D02*
X157519619Y-131218085D01*
X157472000Y-131313323D01*
X157424380Y-131360942D01*
X157329142Y-131408561D01*
X157138666Y-131456180D01*
X156900571Y-131456180D01*
X156710095Y-131408561D01*
X156614857Y-131360942D01*
X156567238Y-131313323D01*
X156519619Y-131218085D01*
X156519619Y-131122847D01*
X156567238Y-131027609D01*
X156614857Y-130979990D01*
X156710095Y-130932371D01*
X156900571Y-130884752D01*
X157138666Y-130884752D01*
X157329142Y-130932371D01*
X157424380Y-130979990D01*
X157472000Y-131027609D01*
X157519619Y-131122847D01*
X156424380Y-131646657D02*
X156424380Y-132408561D01*
X156567238Y-132599038D02*
X156519619Y-132741895D01*
X156519619Y-132979990D01*
X156567238Y-133075228D01*
X156614857Y-133122847D01*
X156710095Y-133170466D01*
X156805333Y-133170466D01*
X156900571Y-133122847D01*
X156948190Y-133075228D01*
X156995809Y-132979990D01*
X157043428Y-132789514D01*
X157091047Y-132694276D01*
X157138666Y-132646657D01*
X157233904Y-132599038D01*
X157329142Y-132599038D01*
X157424380Y-132646657D01*
X157472000Y-132694276D01*
X157519619Y-132789514D01*
X157519619Y-133027609D01*
X157472000Y-133170466D01*
X157424380Y-133551419D02*
X157472000Y-133599038D01*
X157519619Y-133694276D01*
X157519619Y-133932371D01*
X157472000Y-134027609D01*
X157424380Y-134075228D01*
X157329142Y-134122847D01*
X157233904Y-134122847D01*
X157091047Y-134075228D01*
X156519619Y-133503800D01*
X156519619Y-134122847D01*
X156567238Y-134503800D02*
X156519619Y-134646657D01*
X156519619Y-134884752D01*
X156567238Y-134979990D01*
X156614857Y-135027609D01*
X156710095Y-135075228D01*
X156805333Y-135075228D01*
X156900571Y-135027609D01*
X156948190Y-134979990D01*
X156995809Y-134884752D01*
X157043428Y-134694276D01*
X157091047Y-134599038D01*
X157138666Y-134551419D01*
X157233904Y-134503800D01*
X157329142Y-134503800D01*
X157424380Y-134551419D01*
X157472000Y-134599038D01*
X157519619Y-134694276D01*
X157519619Y-134932371D01*
X157472000Y-135075228D01*
X139263428Y-129313323D02*
X139215809Y-129456180D01*
X139168190Y-129503800D01*
X139072952Y-129551419D01*
X138930095Y-129551419D01*
X138834857Y-129503800D01*
X138787238Y-129456180D01*
X138739619Y-129360942D01*
X138739619Y-128979990D01*
X139739619Y-128979990D01*
X139739619Y-129313323D01*
X139692000Y-129408561D01*
X139644380Y-129456180D01*
X139549142Y-129503800D01*
X139453904Y-129503800D01*
X139358666Y-129456180D01*
X139311047Y-129408561D01*
X139263428Y-129313323D01*
X139263428Y-128979990D01*
X139739619Y-130170466D02*
X139739619Y-130265704D01*
X139692000Y-130360942D01*
X139644380Y-130408561D01*
X139549142Y-130456180D01*
X139358666Y-130503800D01*
X139120571Y-130503800D01*
X138930095Y-130456180D01*
X138834857Y-130408561D01*
X138787238Y-130360942D01*
X138739619Y-130265704D01*
X138739619Y-130170466D01*
X138787238Y-130075228D01*
X138834857Y-130027609D01*
X138930095Y-129979990D01*
X139120571Y-129932371D01*
X139358666Y-129932371D01*
X139549142Y-129979990D01*
X139644380Y-130027609D01*
X139692000Y-130075228D01*
X139739619Y-130170466D01*
X139739619Y-131122847D02*
X139739619Y-131218085D01*
X139692000Y-131313323D01*
X139644380Y-131360942D01*
X139549142Y-131408561D01*
X139358666Y-131456180D01*
X139120571Y-131456180D01*
X138930095Y-131408561D01*
X138834857Y-131360942D01*
X138787238Y-131313323D01*
X138739619Y-131218085D01*
X138739619Y-131122847D01*
X138787238Y-131027609D01*
X138834857Y-130979990D01*
X138930095Y-130932371D01*
X139120571Y-130884752D01*
X139358666Y-130884752D01*
X139549142Y-130932371D01*
X139644380Y-130979990D01*
X139692000Y-131027609D01*
X139739619Y-131122847D01*
X138644380Y-131646657D02*
X138644380Y-132408561D01*
X138787238Y-132599038D02*
X138739619Y-132741895D01*
X138739619Y-132979990D01*
X138787238Y-133075228D01*
X138834857Y-133122847D01*
X138930095Y-133170466D01*
X139025333Y-133170466D01*
X139120571Y-133122847D01*
X139168190Y-133075228D01*
X139215809Y-132979990D01*
X139263428Y-132789514D01*
X139311047Y-132694276D01*
X139358666Y-132646657D01*
X139453904Y-132599038D01*
X139549142Y-132599038D01*
X139644380Y-132646657D01*
X139692000Y-132694276D01*
X139739619Y-132789514D01*
X139739619Y-133027609D01*
X139692000Y-133170466D01*
X139644380Y-133551419D02*
X139692000Y-133599038D01*
X139739619Y-133694276D01*
X139739619Y-133932371D01*
X139692000Y-134027609D01*
X139644380Y-134075228D01*
X139549142Y-134122847D01*
X139453904Y-134122847D01*
X139311047Y-134075228D01*
X138739619Y-133503800D01*
X138739619Y-134122847D01*
X138787238Y-134503800D02*
X138739619Y-134646657D01*
X138739619Y-134884752D01*
X138787238Y-134979990D01*
X138834857Y-135027609D01*
X138930095Y-135075228D01*
X139025333Y-135075228D01*
X139120571Y-135027609D01*
X139168190Y-134979990D01*
X139215809Y-134884752D01*
X139263428Y-134694276D01*
X139311047Y-134599038D01*
X139358666Y-134551419D01*
X139453904Y-134503800D01*
X139549142Y-134503800D01*
X139644380Y-134551419D01*
X139692000Y-134599038D01*
X139739619Y-134694276D01*
X139739619Y-134932371D01*
X139692000Y-135075228D01*
X121483428Y-129313323D02*
X121435809Y-129456180D01*
X121388190Y-129503800D01*
X121292952Y-129551419D01*
X121150095Y-129551419D01*
X121054857Y-129503800D01*
X121007238Y-129456180D01*
X120959619Y-129360942D01*
X120959619Y-128979990D01*
X121959619Y-128979990D01*
X121959619Y-129313323D01*
X121912000Y-129408561D01*
X121864380Y-129456180D01*
X121769142Y-129503800D01*
X121673904Y-129503800D01*
X121578666Y-129456180D01*
X121531047Y-129408561D01*
X121483428Y-129313323D01*
X121483428Y-128979990D01*
X121959619Y-130170466D02*
X121959619Y-130265704D01*
X121912000Y-130360942D01*
X121864380Y-130408561D01*
X121769142Y-130456180D01*
X121578666Y-130503800D01*
X121340571Y-130503800D01*
X121150095Y-130456180D01*
X121054857Y-130408561D01*
X121007238Y-130360942D01*
X120959619Y-130265704D01*
X120959619Y-130170466D01*
X121007238Y-130075228D01*
X121054857Y-130027609D01*
X121150095Y-129979990D01*
X121340571Y-129932371D01*
X121578666Y-129932371D01*
X121769142Y-129979990D01*
X121864380Y-130027609D01*
X121912000Y-130075228D01*
X121959619Y-130170466D01*
X121959619Y-131122847D02*
X121959619Y-131218085D01*
X121912000Y-131313323D01*
X121864380Y-131360942D01*
X121769142Y-131408561D01*
X121578666Y-131456180D01*
X121340571Y-131456180D01*
X121150095Y-131408561D01*
X121054857Y-131360942D01*
X121007238Y-131313323D01*
X120959619Y-131218085D01*
X120959619Y-131122847D01*
X121007238Y-131027609D01*
X121054857Y-130979990D01*
X121150095Y-130932371D01*
X121340571Y-130884752D01*
X121578666Y-130884752D01*
X121769142Y-130932371D01*
X121864380Y-130979990D01*
X121912000Y-131027609D01*
X121959619Y-131122847D01*
X120864380Y-131646657D02*
X120864380Y-132408561D01*
X121007238Y-132599038D02*
X120959619Y-132741895D01*
X120959619Y-132979990D01*
X121007238Y-133075228D01*
X121054857Y-133122847D01*
X121150095Y-133170466D01*
X121245333Y-133170466D01*
X121340571Y-133122847D01*
X121388190Y-133075228D01*
X121435809Y-132979990D01*
X121483428Y-132789514D01*
X121531047Y-132694276D01*
X121578666Y-132646657D01*
X121673904Y-132599038D01*
X121769142Y-132599038D01*
X121864380Y-132646657D01*
X121912000Y-132694276D01*
X121959619Y-132789514D01*
X121959619Y-133027609D01*
X121912000Y-133170466D01*
X121864380Y-133551419D02*
X121912000Y-133599038D01*
X121959619Y-133694276D01*
X121959619Y-133932371D01*
X121912000Y-134027609D01*
X121864380Y-134075228D01*
X121769142Y-134122847D01*
X121673904Y-134122847D01*
X121531047Y-134075228D01*
X120959619Y-133503800D01*
X120959619Y-134122847D01*
X121007238Y-134503800D02*
X120959619Y-134646657D01*
X120959619Y-134884752D01*
X121007238Y-134979990D01*
X121054857Y-135027609D01*
X121150095Y-135075228D01*
X121245333Y-135075228D01*
X121340571Y-135027609D01*
X121388190Y-134979990D01*
X121435809Y-134884752D01*
X121483428Y-134694276D01*
X121531047Y-134599038D01*
X121578666Y-134551419D01*
X121673904Y-134503800D01*
X121769142Y-134503800D01*
X121864380Y-134551419D01*
X121912000Y-134599038D01*
X121959619Y-134694276D01*
X121959619Y-134932371D01*
X121912000Y-135075228D01*
X103703428Y-129313323D02*
X103655809Y-129456180D01*
X103608190Y-129503800D01*
X103512952Y-129551419D01*
X103370095Y-129551419D01*
X103274857Y-129503800D01*
X103227238Y-129456180D01*
X103179619Y-129360942D01*
X103179619Y-128979990D01*
X104179619Y-128979990D01*
X104179619Y-129313323D01*
X104132000Y-129408561D01*
X104084380Y-129456180D01*
X103989142Y-129503800D01*
X103893904Y-129503800D01*
X103798666Y-129456180D01*
X103751047Y-129408561D01*
X103703428Y-129313323D01*
X103703428Y-128979990D01*
X104179619Y-130170466D02*
X104179619Y-130265704D01*
X104132000Y-130360942D01*
X104084380Y-130408561D01*
X103989142Y-130456180D01*
X103798666Y-130503800D01*
X103560571Y-130503800D01*
X103370095Y-130456180D01*
X103274857Y-130408561D01*
X103227238Y-130360942D01*
X103179619Y-130265704D01*
X103179619Y-130170466D01*
X103227238Y-130075228D01*
X103274857Y-130027609D01*
X103370095Y-129979990D01*
X103560571Y-129932371D01*
X103798666Y-129932371D01*
X103989142Y-129979990D01*
X104084380Y-130027609D01*
X104132000Y-130075228D01*
X104179619Y-130170466D01*
X104179619Y-131122847D02*
X104179619Y-131218085D01*
X104132000Y-131313323D01*
X104084380Y-131360942D01*
X103989142Y-131408561D01*
X103798666Y-131456180D01*
X103560571Y-131456180D01*
X103370095Y-131408561D01*
X103274857Y-131360942D01*
X103227238Y-131313323D01*
X103179619Y-131218085D01*
X103179619Y-131122847D01*
X103227238Y-131027609D01*
X103274857Y-130979990D01*
X103370095Y-130932371D01*
X103560571Y-130884752D01*
X103798666Y-130884752D01*
X103989142Y-130932371D01*
X104084380Y-130979990D01*
X104132000Y-131027609D01*
X104179619Y-131122847D01*
X103084380Y-131646657D02*
X103084380Y-132408561D01*
X103227238Y-132599038D02*
X103179619Y-132741895D01*
X103179619Y-132979990D01*
X103227238Y-133075228D01*
X103274857Y-133122847D01*
X103370095Y-133170466D01*
X103465333Y-133170466D01*
X103560571Y-133122847D01*
X103608190Y-133075228D01*
X103655809Y-132979990D01*
X103703428Y-132789514D01*
X103751047Y-132694276D01*
X103798666Y-132646657D01*
X103893904Y-132599038D01*
X103989142Y-132599038D01*
X104084380Y-132646657D01*
X104132000Y-132694276D01*
X104179619Y-132789514D01*
X104179619Y-133027609D01*
X104132000Y-133170466D01*
X104084380Y-133551419D02*
X104132000Y-133599038D01*
X104179619Y-133694276D01*
X104179619Y-133932371D01*
X104132000Y-134027609D01*
X104084380Y-134075228D01*
X103989142Y-134122847D01*
X103893904Y-134122847D01*
X103751047Y-134075228D01*
X103179619Y-133503800D01*
X103179619Y-134122847D01*
X103227238Y-134503800D02*
X103179619Y-134646657D01*
X103179619Y-134884752D01*
X103227238Y-134979990D01*
X103274857Y-135027609D01*
X103370095Y-135075228D01*
X103465333Y-135075228D01*
X103560571Y-135027609D01*
X103608190Y-134979990D01*
X103655809Y-134884752D01*
X103703428Y-134694276D01*
X103751047Y-134599038D01*
X103798666Y-134551419D01*
X103893904Y-134503800D01*
X103989142Y-134503800D01*
X104084380Y-134551419D01*
X104132000Y-134599038D01*
X104179619Y-134694276D01*
X104179619Y-134932371D01*
X104132000Y-135075228D01*
X174823428Y-111533323D02*
X174775809Y-111676180D01*
X174728190Y-111723800D01*
X174632952Y-111771419D01*
X174490095Y-111771419D01*
X174394857Y-111723800D01*
X174347238Y-111676180D01*
X174299619Y-111580942D01*
X174299619Y-111199990D01*
X175299619Y-111199990D01*
X175299619Y-111533323D01*
X175252000Y-111628561D01*
X175204380Y-111676180D01*
X175109142Y-111723800D01*
X175013904Y-111723800D01*
X174918666Y-111676180D01*
X174871047Y-111628561D01*
X174823428Y-111533323D01*
X174823428Y-111199990D01*
X175299619Y-112390466D02*
X175299619Y-112485704D01*
X175252000Y-112580942D01*
X175204380Y-112628561D01*
X175109142Y-112676180D01*
X174918666Y-112723800D01*
X174680571Y-112723800D01*
X174490095Y-112676180D01*
X174394857Y-112628561D01*
X174347238Y-112580942D01*
X174299619Y-112485704D01*
X174299619Y-112390466D01*
X174347238Y-112295228D01*
X174394857Y-112247609D01*
X174490095Y-112199990D01*
X174680571Y-112152371D01*
X174918666Y-112152371D01*
X175109142Y-112199990D01*
X175204380Y-112247609D01*
X175252000Y-112295228D01*
X175299619Y-112390466D01*
X175299619Y-113342847D02*
X175299619Y-113438085D01*
X175252000Y-113533323D01*
X175204380Y-113580942D01*
X175109142Y-113628561D01*
X174918666Y-113676180D01*
X174680571Y-113676180D01*
X174490095Y-113628561D01*
X174394857Y-113580942D01*
X174347238Y-113533323D01*
X174299619Y-113438085D01*
X174299619Y-113342847D01*
X174347238Y-113247609D01*
X174394857Y-113199990D01*
X174490095Y-113152371D01*
X174680571Y-113104752D01*
X174918666Y-113104752D01*
X175109142Y-113152371D01*
X175204380Y-113199990D01*
X175252000Y-113247609D01*
X175299619Y-113342847D01*
X174204380Y-113866657D02*
X174204380Y-114628561D01*
X174347238Y-114819038D02*
X174299619Y-114961895D01*
X174299619Y-115199990D01*
X174347238Y-115295228D01*
X174394857Y-115342847D01*
X174490095Y-115390466D01*
X174585333Y-115390466D01*
X174680571Y-115342847D01*
X174728190Y-115295228D01*
X174775809Y-115199990D01*
X174823428Y-115009514D01*
X174871047Y-114914276D01*
X174918666Y-114866657D01*
X175013904Y-114819038D01*
X175109142Y-114819038D01*
X175204380Y-114866657D01*
X175252000Y-114914276D01*
X175299619Y-115009514D01*
X175299619Y-115247609D01*
X175252000Y-115390466D01*
X175204380Y-115771419D02*
X175252000Y-115819038D01*
X175299619Y-115914276D01*
X175299619Y-116152371D01*
X175252000Y-116247609D01*
X175204380Y-116295228D01*
X175109142Y-116342847D01*
X175013904Y-116342847D01*
X174871047Y-116295228D01*
X174299619Y-115723800D01*
X174299619Y-116342847D01*
X174347238Y-116723800D02*
X174299619Y-116866657D01*
X174299619Y-117104752D01*
X174347238Y-117199990D01*
X174394857Y-117247609D01*
X174490095Y-117295228D01*
X174585333Y-117295228D01*
X174680571Y-117247609D01*
X174728190Y-117199990D01*
X174775809Y-117104752D01*
X174823428Y-116914276D01*
X174871047Y-116819038D01*
X174918666Y-116771419D01*
X175013904Y-116723800D01*
X175109142Y-116723800D01*
X175204380Y-116771419D01*
X175252000Y-116819038D01*
X175299619Y-116914276D01*
X175299619Y-117152371D01*
X175252000Y-117295228D01*
X157043428Y-111533323D02*
X156995809Y-111676180D01*
X156948190Y-111723800D01*
X156852952Y-111771419D01*
X156710095Y-111771419D01*
X156614857Y-111723800D01*
X156567238Y-111676180D01*
X156519619Y-111580942D01*
X156519619Y-111199990D01*
X157519619Y-111199990D01*
X157519619Y-111533323D01*
X157472000Y-111628561D01*
X157424380Y-111676180D01*
X157329142Y-111723800D01*
X157233904Y-111723800D01*
X157138666Y-111676180D01*
X157091047Y-111628561D01*
X157043428Y-111533323D01*
X157043428Y-111199990D01*
X157519619Y-112390466D02*
X157519619Y-112485704D01*
X157472000Y-112580942D01*
X157424380Y-112628561D01*
X157329142Y-112676180D01*
X157138666Y-112723800D01*
X156900571Y-112723800D01*
X156710095Y-112676180D01*
X156614857Y-112628561D01*
X156567238Y-112580942D01*
X156519619Y-112485704D01*
X156519619Y-112390466D01*
X156567238Y-112295228D01*
X156614857Y-112247609D01*
X156710095Y-112199990D01*
X156900571Y-112152371D01*
X157138666Y-112152371D01*
X157329142Y-112199990D01*
X157424380Y-112247609D01*
X157472000Y-112295228D01*
X157519619Y-112390466D01*
X157519619Y-113342847D02*
X157519619Y-113438085D01*
X157472000Y-113533323D01*
X157424380Y-113580942D01*
X157329142Y-113628561D01*
X157138666Y-113676180D01*
X156900571Y-113676180D01*
X156710095Y-113628561D01*
X156614857Y-113580942D01*
X156567238Y-113533323D01*
X156519619Y-113438085D01*
X156519619Y-113342847D01*
X156567238Y-113247609D01*
X156614857Y-113199990D01*
X156710095Y-113152371D01*
X156900571Y-113104752D01*
X157138666Y-113104752D01*
X157329142Y-113152371D01*
X157424380Y-113199990D01*
X157472000Y-113247609D01*
X157519619Y-113342847D01*
X156424380Y-113866657D02*
X156424380Y-114628561D01*
X156567238Y-114819038D02*
X156519619Y-114961895D01*
X156519619Y-115199990D01*
X156567238Y-115295228D01*
X156614857Y-115342847D01*
X156710095Y-115390466D01*
X156805333Y-115390466D01*
X156900571Y-115342847D01*
X156948190Y-115295228D01*
X156995809Y-115199990D01*
X157043428Y-115009514D01*
X157091047Y-114914276D01*
X157138666Y-114866657D01*
X157233904Y-114819038D01*
X157329142Y-114819038D01*
X157424380Y-114866657D01*
X157472000Y-114914276D01*
X157519619Y-115009514D01*
X157519619Y-115247609D01*
X157472000Y-115390466D01*
X157424380Y-115771419D02*
X157472000Y-115819038D01*
X157519619Y-115914276D01*
X157519619Y-116152371D01*
X157472000Y-116247609D01*
X157424380Y-116295228D01*
X157329142Y-116342847D01*
X157233904Y-116342847D01*
X157091047Y-116295228D01*
X156519619Y-115723800D01*
X156519619Y-116342847D01*
X156567238Y-116723800D02*
X156519619Y-116866657D01*
X156519619Y-117104752D01*
X156567238Y-117199990D01*
X156614857Y-117247609D01*
X156710095Y-117295228D01*
X156805333Y-117295228D01*
X156900571Y-117247609D01*
X156948190Y-117199990D01*
X156995809Y-117104752D01*
X157043428Y-116914276D01*
X157091047Y-116819038D01*
X157138666Y-116771419D01*
X157233904Y-116723800D01*
X157329142Y-116723800D01*
X157424380Y-116771419D01*
X157472000Y-116819038D01*
X157519619Y-116914276D01*
X157519619Y-117152371D01*
X157472000Y-117295228D01*
X139263428Y-111533323D02*
X139215809Y-111676180D01*
X139168190Y-111723800D01*
X139072952Y-111771419D01*
X138930095Y-111771419D01*
X138834857Y-111723800D01*
X138787238Y-111676180D01*
X138739619Y-111580942D01*
X138739619Y-111199990D01*
X139739619Y-111199990D01*
X139739619Y-111533323D01*
X139692000Y-111628561D01*
X139644380Y-111676180D01*
X139549142Y-111723800D01*
X139453904Y-111723800D01*
X139358666Y-111676180D01*
X139311047Y-111628561D01*
X139263428Y-111533323D01*
X139263428Y-111199990D01*
X139739619Y-112390466D02*
X139739619Y-112485704D01*
X139692000Y-112580942D01*
X139644380Y-112628561D01*
X139549142Y-112676180D01*
X139358666Y-112723800D01*
X139120571Y-112723800D01*
X138930095Y-112676180D01*
X138834857Y-112628561D01*
X138787238Y-112580942D01*
X138739619Y-112485704D01*
X138739619Y-112390466D01*
X138787238Y-112295228D01*
X138834857Y-112247609D01*
X138930095Y-112199990D01*
X139120571Y-112152371D01*
X139358666Y-112152371D01*
X139549142Y-112199990D01*
X139644380Y-112247609D01*
X139692000Y-112295228D01*
X139739619Y-112390466D01*
X139739619Y-113342847D02*
X139739619Y-113438085D01*
X139692000Y-113533323D01*
X139644380Y-113580942D01*
X139549142Y-113628561D01*
X139358666Y-113676180D01*
X139120571Y-113676180D01*
X138930095Y-113628561D01*
X138834857Y-113580942D01*
X138787238Y-113533323D01*
X138739619Y-113438085D01*
X138739619Y-113342847D01*
X138787238Y-113247609D01*
X138834857Y-113199990D01*
X138930095Y-113152371D01*
X139120571Y-113104752D01*
X139358666Y-113104752D01*
X139549142Y-113152371D01*
X139644380Y-113199990D01*
X139692000Y-113247609D01*
X139739619Y-113342847D01*
X138644380Y-113866657D02*
X138644380Y-114628561D01*
X138787238Y-114819038D02*
X138739619Y-114961895D01*
X138739619Y-115199990D01*
X138787238Y-115295228D01*
X138834857Y-115342847D01*
X138930095Y-115390466D01*
X139025333Y-115390466D01*
X139120571Y-115342847D01*
X139168190Y-115295228D01*
X139215809Y-115199990D01*
X139263428Y-115009514D01*
X139311047Y-114914276D01*
X139358666Y-114866657D01*
X139453904Y-114819038D01*
X139549142Y-114819038D01*
X139644380Y-114866657D01*
X139692000Y-114914276D01*
X139739619Y-115009514D01*
X139739619Y-115247609D01*
X139692000Y-115390466D01*
X139644380Y-115771419D02*
X139692000Y-115819038D01*
X139739619Y-115914276D01*
X139739619Y-116152371D01*
X139692000Y-116247609D01*
X139644380Y-116295228D01*
X139549142Y-116342847D01*
X139453904Y-116342847D01*
X139311047Y-116295228D01*
X138739619Y-115723800D01*
X138739619Y-116342847D01*
X138787238Y-116723800D02*
X138739619Y-116866657D01*
X138739619Y-117104752D01*
X138787238Y-117199990D01*
X138834857Y-117247609D01*
X138930095Y-117295228D01*
X139025333Y-117295228D01*
X139120571Y-117247609D01*
X139168190Y-117199990D01*
X139215809Y-117104752D01*
X139263428Y-116914276D01*
X139311047Y-116819038D01*
X139358666Y-116771419D01*
X139453904Y-116723800D01*
X139549142Y-116723800D01*
X139644380Y-116771419D01*
X139692000Y-116819038D01*
X139739619Y-116914276D01*
X139739619Y-117152371D01*
X139692000Y-117295228D01*
X121483428Y-111533323D02*
X121435809Y-111676180D01*
X121388190Y-111723800D01*
X121292952Y-111771419D01*
X121150095Y-111771419D01*
X121054857Y-111723800D01*
X121007238Y-111676180D01*
X120959619Y-111580942D01*
X120959619Y-111199990D01*
X121959619Y-111199990D01*
X121959619Y-111533323D01*
X121912000Y-111628561D01*
X121864380Y-111676180D01*
X121769142Y-111723800D01*
X121673904Y-111723800D01*
X121578666Y-111676180D01*
X121531047Y-111628561D01*
X121483428Y-111533323D01*
X121483428Y-111199990D01*
X121959619Y-112390466D02*
X121959619Y-112485704D01*
X121912000Y-112580942D01*
X121864380Y-112628561D01*
X121769142Y-112676180D01*
X121578666Y-112723800D01*
X121340571Y-112723800D01*
X121150095Y-112676180D01*
X121054857Y-112628561D01*
X121007238Y-112580942D01*
X120959619Y-112485704D01*
X120959619Y-112390466D01*
X121007238Y-112295228D01*
X121054857Y-112247609D01*
X121150095Y-112199990D01*
X121340571Y-112152371D01*
X121578666Y-112152371D01*
X121769142Y-112199990D01*
X121864380Y-112247609D01*
X121912000Y-112295228D01*
X121959619Y-112390466D01*
X121959619Y-113342847D02*
X121959619Y-113438085D01*
X121912000Y-113533323D01*
X121864380Y-113580942D01*
X121769142Y-113628561D01*
X121578666Y-113676180D01*
X121340571Y-113676180D01*
X121150095Y-113628561D01*
X121054857Y-113580942D01*
X121007238Y-113533323D01*
X120959619Y-113438085D01*
X120959619Y-113342847D01*
X121007238Y-113247609D01*
X121054857Y-113199990D01*
X121150095Y-113152371D01*
X121340571Y-113104752D01*
X121578666Y-113104752D01*
X121769142Y-113152371D01*
X121864380Y-113199990D01*
X121912000Y-113247609D01*
X121959619Y-113342847D01*
X120864380Y-113866657D02*
X120864380Y-114628561D01*
X121007238Y-114819038D02*
X120959619Y-114961895D01*
X120959619Y-115199990D01*
X121007238Y-115295228D01*
X121054857Y-115342847D01*
X121150095Y-115390466D01*
X121245333Y-115390466D01*
X121340571Y-115342847D01*
X121388190Y-115295228D01*
X121435809Y-115199990D01*
X121483428Y-115009514D01*
X121531047Y-114914276D01*
X121578666Y-114866657D01*
X121673904Y-114819038D01*
X121769142Y-114819038D01*
X121864380Y-114866657D01*
X121912000Y-114914276D01*
X121959619Y-115009514D01*
X121959619Y-115247609D01*
X121912000Y-115390466D01*
X121864380Y-115771419D02*
X121912000Y-115819038D01*
X121959619Y-115914276D01*
X121959619Y-116152371D01*
X121912000Y-116247609D01*
X121864380Y-116295228D01*
X121769142Y-116342847D01*
X121673904Y-116342847D01*
X121531047Y-116295228D01*
X120959619Y-115723800D01*
X120959619Y-116342847D01*
X121007238Y-116723800D02*
X120959619Y-116866657D01*
X120959619Y-117104752D01*
X121007238Y-117199990D01*
X121054857Y-117247609D01*
X121150095Y-117295228D01*
X121245333Y-117295228D01*
X121340571Y-117247609D01*
X121388190Y-117199990D01*
X121435809Y-117104752D01*
X121483428Y-116914276D01*
X121531047Y-116819038D01*
X121578666Y-116771419D01*
X121673904Y-116723800D01*
X121769142Y-116723800D01*
X121864380Y-116771419D01*
X121912000Y-116819038D01*
X121959619Y-116914276D01*
X121959619Y-117152371D01*
X121912000Y-117295228D01*
X103703428Y-111533323D02*
X103655809Y-111676180D01*
X103608190Y-111723800D01*
X103512952Y-111771419D01*
X103370095Y-111771419D01*
X103274857Y-111723800D01*
X103227238Y-111676180D01*
X103179619Y-111580942D01*
X103179619Y-111199990D01*
X104179619Y-111199990D01*
X104179619Y-111533323D01*
X104132000Y-111628561D01*
X104084380Y-111676180D01*
X103989142Y-111723800D01*
X103893904Y-111723800D01*
X103798666Y-111676180D01*
X103751047Y-111628561D01*
X103703428Y-111533323D01*
X103703428Y-111199990D01*
X104179619Y-112390466D02*
X104179619Y-112485704D01*
X104132000Y-112580942D01*
X104084380Y-112628561D01*
X103989142Y-112676180D01*
X103798666Y-112723800D01*
X103560571Y-112723800D01*
X103370095Y-112676180D01*
X103274857Y-112628561D01*
X103227238Y-112580942D01*
X103179619Y-112485704D01*
X103179619Y-112390466D01*
X103227238Y-112295228D01*
X103274857Y-112247609D01*
X103370095Y-112199990D01*
X103560571Y-112152371D01*
X103798666Y-112152371D01*
X103989142Y-112199990D01*
X104084380Y-112247609D01*
X104132000Y-112295228D01*
X104179619Y-112390466D01*
X104179619Y-113342847D02*
X104179619Y-113438085D01*
X104132000Y-113533323D01*
X104084380Y-113580942D01*
X103989142Y-113628561D01*
X103798666Y-113676180D01*
X103560571Y-113676180D01*
X103370095Y-113628561D01*
X103274857Y-113580942D01*
X103227238Y-113533323D01*
X103179619Y-113438085D01*
X103179619Y-113342847D01*
X103227238Y-113247609D01*
X103274857Y-113199990D01*
X103370095Y-113152371D01*
X103560571Y-113104752D01*
X103798666Y-113104752D01*
X103989142Y-113152371D01*
X104084380Y-113199990D01*
X104132000Y-113247609D01*
X104179619Y-113342847D01*
X103084380Y-113866657D02*
X103084380Y-114628561D01*
X103227238Y-114819038D02*
X103179619Y-114961895D01*
X103179619Y-115199990D01*
X103227238Y-115295228D01*
X103274857Y-115342847D01*
X103370095Y-115390466D01*
X103465333Y-115390466D01*
X103560571Y-115342847D01*
X103608190Y-115295228D01*
X103655809Y-115199990D01*
X103703428Y-115009514D01*
X103751047Y-114914276D01*
X103798666Y-114866657D01*
X103893904Y-114819038D01*
X103989142Y-114819038D01*
X104084380Y-114866657D01*
X104132000Y-114914276D01*
X104179619Y-115009514D01*
X104179619Y-115247609D01*
X104132000Y-115390466D01*
X104084380Y-115771419D02*
X104132000Y-115819038D01*
X104179619Y-115914276D01*
X104179619Y-116152371D01*
X104132000Y-116247609D01*
X104084380Y-116295228D01*
X103989142Y-116342847D01*
X103893904Y-116342847D01*
X103751047Y-116295228D01*
X103179619Y-115723800D01*
X103179619Y-116342847D01*
X103227238Y-116723800D02*
X103179619Y-116866657D01*
X103179619Y-117104752D01*
X103227238Y-117199990D01*
X103274857Y-117247609D01*
X103370095Y-117295228D01*
X103465333Y-117295228D01*
X103560571Y-117247609D01*
X103608190Y-117199990D01*
X103655809Y-117104752D01*
X103703428Y-116914276D01*
X103751047Y-116819038D01*
X103798666Y-116771419D01*
X103893904Y-116723800D01*
X103989142Y-116723800D01*
X104084380Y-116771419D01*
X104132000Y-116819038D01*
X104179619Y-116914276D01*
X104179619Y-117152371D01*
X104132000Y-117295228D01*
X174823428Y-93753323D02*
X174775809Y-93896180D01*
X174728190Y-93943800D01*
X174632952Y-93991419D01*
X174490095Y-93991419D01*
X174394857Y-93943800D01*
X174347238Y-93896180D01*
X174299619Y-93800942D01*
X174299619Y-93419990D01*
X175299619Y-93419990D01*
X175299619Y-93753323D01*
X175252000Y-93848561D01*
X175204380Y-93896180D01*
X175109142Y-93943800D01*
X175013904Y-93943800D01*
X174918666Y-93896180D01*
X174871047Y-93848561D01*
X174823428Y-93753323D01*
X174823428Y-93419990D01*
X175299619Y-94610466D02*
X175299619Y-94705704D01*
X175252000Y-94800942D01*
X175204380Y-94848561D01*
X175109142Y-94896180D01*
X174918666Y-94943800D01*
X174680571Y-94943800D01*
X174490095Y-94896180D01*
X174394857Y-94848561D01*
X174347238Y-94800942D01*
X174299619Y-94705704D01*
X174299619Y-94610466D01*
X174347238Y-94515228D01*
X174394857Y-94467609D01*
X174490095Y-94419990D01*
X174680571Y-94372371D01*
X174918666Y-94372371D01*
X175109142Y-94419990D01*
X175204380Y-94467609D01*
X175252000Y-94515228D01*
X175299619Y-94610466D01*
X175299619Y-95562847D02*
X175299619Y-95658085D01*
X175252000Y-95753323D01*
X175204380Y-95800942D01*
X175109142Y-95848561D01*
X174918666Y-95896180D01*
X174680571Y-95896180D01*
X174490095Y-95848561D01*
X174394857Y-95800942D01*
X174347238Y-95753323D01*
X174299619Y-95658085D01*
X174299619Y-95562847D01*
X174347238Y-95467609D01*
X174394857Y-95419990D01*
X174490095Y-95372371D01*
X174680571Y-95324752D01*
X174918666Y-95324752D01*
X175109142Y-95372371D01*
X175204380Y-95419990D01*
X175252000Y-95467609D01*
X175299619Y-95562847D01*
X174204380Y-96086657D02*
X174204380Y-96848561D01*
X174347238Y-97039038D02*
X174299619Y-97181895D01*
X174299619Y-97419990D01*
X174347238Y-97515228D01*
X174394857Y-97562847D01*
X174490095Y-97610466D01*
X174585333Y-97610466D01*
X174680571Y-97562847D01*
X174728190Y-97515228D01*
X174775809Y-97419990D01*
X174823428Y-97229514D01*
X174871047Y-97134276D01*
X174918666Y-97086657D01*
X175013904Y-97039038D01*
X175109142Y-97039038D01*
X175204380Y-97086657D01*
X175252000Y-97134276D01*
X175299619Y-97229514D01*
X175299619Y-97467609D01*
X175252000Y-97610466D01*
X175204380Y-97991419D02*
X175252000Y-98039038D01*
X175299619Y-98134276D01*
X175299619Y-98372371D01*
X175252000Y-98467609D01*
X175204380Y-98515228D01*
X175109142Y-98562847D01*
X175013904Y-98562847D01*
X174871047Y-98515228D01*
X174299619Y-97943800D01*
X174299619Y-98562847D01*
X174347238Y-98943800D02*
X174299619Y-99086657D01*
X174299619Y-99324752D01*
X174347238Y-99419990D01*
X174394857Y-99467609D01*
X174490095Y-99515228D01*
X174585333Y-99515228D01*
X174680571Y-99467609D01*
X174728190Y-99419990D01*
X174775809Y-99324752D01*
X174823428Y-99134276D01*
X174871047Y-99039038D01*
X174918666Y-98991419D01*
X175013904Y-98943800D01*
X175109142Y-98943800D01*
X175204380Y-98991419D01*
X175252000Y-99039038D01*
X175299619Y-99134276D01*
X175299619Y-99372371D01*
X175252000Y-99515228D01*
X157043428Y-93753323D02*
X156995809Y-93896180D01*
X156948190Y-93943800D01*
X156852952Y-93991419D01*
X156710095Y-93991419D01*
X156614857Y-93943800D01*
X156567238Y-93896180D01*
X156519619Y-93800942D01*
X156519619Y-93419990D01*
X157519619Y-93419990D01*
X157519619Y-93753323D01*
X157472000Y-93848561D01*
X157424380Y-93896180D01*
X157329142Y-93943800D01*
X157233904Y-93943800D01*
X157138666Y-93896180D01*
X157091047Y-93848561D01*
X157043428Y-93753323D01*
X157043428Y-93419990D01*
X157519619Y-94610466D02*
X157519619Y-94705704D01*
X157472000Y-94800942D01*
X157424380Y-94848561D01*
X157329142Y-94896180D01*
X157138666Y-94943800D01*
X156900571Y-94943800D01*
X156710095Y-94896180D01*
X156614857Y-94848561D01*
X156567238Y-94800942D01*
X156519619Y-94705704D01*
X156519619Y-94610466D01*
X156567238Y-94515228D01*
X156614857Y-94467609D01*
X156710095Y-94419990D01*
X156900571Y-94372371D01*
X157138666Y-94372371D01*
X157329142Y-94419990D01*
X157424380Y-94467609D01*
X157472000Y-94515228D01*
X157519619Y-94610466D01*
X157519619Y-95562847D02*
X157519619Y-95658085D01*
X157472000Y-95753323D01*
X157424380Y-95800942D01*
X157329142Y-95848561D01*
X157138666Y-95896180D01*
X156900571Y-95896180D01*
X156710095Y-95848561D01*
X156614857Y-95800942D01*
X156567238Y-95753323D01*
X156519619Y-95658085D01*
X156519619Y-95562847D01*
X156567238Y-95467609D01*
X156614857Y-95419990D01*
X156710095Y-95372371D01*
X156900571Y-95324752D01*
X157138666Y-95324752D01*
X157329142Y-95372371D01*
X157424380Y-95419990D01*
X157472000Y-95467609D01*
X157519619Y-95562847D01*
X156424380Y-96086657D02*
X156424380Y-96848561D01*
X156567238Y-97039038D02*
X156519619Y-97181895D01*
X156519619Y-97419990D01*
X156567238Y-97515228D01*
X156614857Y-97562847D01*
X156710095Y-97610466D01*
X156805333Y-97610466D01*
X156900571Y-97562847D01*
X156948190Y-97515228D01*
X156995809Y-97419990D01*
X157043428Y-97229514D01*
X157091047Y-97134276D01*
X157138666Y-97086657D01*
X157233904Y-97039038D01*
X157329142Y-97039038D01*
X157424380Y-97086657D01*
X157472000Y-97134276D01*
X157519619Y-97229514D01*
X157519619Y-97467609D01*
X157472000Y-97610466D01*
X157424380Y-97991419D02*
X157472000Y-98039038D01*
X157519619Y-98134276D01*
X157519619Y-98372371D01*
X157472000Y-98467609D01*
X157424380Y-98515228D01*
X157329142Y-98562847D01*
X157233904Y-98562847D01*
X157091047Y-98515228D01*
X156519619Y-97943800D01*
X156519619Y-98562847D01*
X156567238Y-98943800D02*
X156519619Y-99086657D01*
X156519619Y-99324752D01*
X156567238Y-99419990D01*
X156614857Y-99467609D01*
X156710095Y-99515228D01*
X156805333Y-99515228D01*
X156900571Y-99467609D01*
X156948190Y-99419990D01*
X156995809Y-99324752D01*
X157043428Y-99134276D01*
X157091047Y-99039038D01*
X157138666Y-98991419D01*
X157233904Y-98943800D01*
X157329142Y-98943800D01*
X157424380Y-98991419D01*
X157472000Y-99039038D01*
X157519619Y-99134276D01*
X157519619Y-99372371D01*
X157472000Y-99515228D01*
X139263428Y-93753323D02*
X139215809Y-93896180D01*
X139168190Y-93943800D01*
X139072952Y-93991419D01*
X138930095Y-93991419D01*
X138834857Y-93943800D01*
X138787238Y-93896180D01*
X138739619Y-93800942D01*
X138739619Y-93419990D01*
X139739619Y-93419990D01*
X139739619Y-93753323D01*
X139692000Y-93848561D01*
X139644380Y-93896180D01*
X139549142Y-93943800D01*
X139453904Y-93943800D01*
X139358666Y-93896180D01*
X139311047Y-93848561D01*
X139263428Y-93753323D01*
X139263428Y-93419990D01*
X139739619Y-94610466D02*
X139739619Y-94705704D01*
X139692000Y-94800942D01*
X139644380Y-94848561D01*
X139549142Y-94896180D01*
X139358666Y-94943800D01*
X139120571Y-94943800D01*
X138930095Y-94896180D01*
X138834857Y-94848561D01*
X138787238Y-94800942D01*
X138739619Y-94705704D01*
X138739619Y-94610466D01*
X138787238Y-94515228D01*
X138834857Y-94467609D01*
X138930095Y-94419990D01*
X139120571Y-94372371D01*
X139358666Y-94372371D01*
X139549142Y-94419990D01*
X139644380Y-94467609D01*
X139692000Y-94515228D01*
X139739619Y-94610466D01*
X139739619Y-95562847D02*
X139739619Y-95658085D01*
X139692000Y-95753323D01*
X139644380Y-95800942D01*
X139549142Y-95848561D01*
X139358666Y-95896180D01*
X139120571Y-95896180D01*
X138930095Y-95848561D01*
X138834857Y-95800942D01*
X138787238Y-95753323D01*
X138739619Y-95658085D01*
X138739619Y-95562847D01*
X138787238Y-95467609D01*
X138834857Y-95419990D01*
X138930095Y-95372371D01*
X139120571Y-95324752D01*
X139358666Y-95324752D01*
X139549142Y-95372371D01*
X139644380Y-95419990D01*
X139692000Y-95467609D01*
X139739619Y-95562847D01*
X138644380Y-96086657D02*
X138644380Y-96848561D01*
X138787238Y-97039038D02*
X138739619Y-97181895D01*
X138739619Y-97419990D01*
X138787238Y-97515228D01*
X138834857Y-97562847D01*
X138930095Y-97610466D01*
X139025333Y-97610466D01*
X139120571Y-97562847D01*
X139168190Y-97515228D01*
X139215809Y-97419990D01*
X139263428Y-97229514D01*
X139311047Y-97134276D01*
X139358666Y-97086657D01*
X139453904Y-97039038D01*
X139549142Y-97039038D01*
X139644380Y-97086657D01*
X139692000Y-97134276D01*
X139739619Y-97229514D01*
X139739619Y-97467609D01*
X139692000Y-97610466D01*
X139644380Y-97991419D02*
X139692000Y-98039038D01*
X139739619Y-98134276D01*
X139739619Y-98372371D01*
X139692000Y-98467609D01*
X139644380Y-98515228D01*
X139549142Y-98562847D01*
X139453904Y-98562847D01*
X139311047Y-98515228D01*
X138739619Y-97943800D01*
X138739619Y-98562847D01*
X138787238Y-98943800D02*
X138739619Y-99086657D01*
X138739619Y-99324752D01*
X138787238Y-99419990D01*
X138834857Y-99467609D01*
X138930095Y-99515228D01*
X139025333Y-99515228D01*
X139120571Y-99467609D01*
X139168190Y-99419990D01*
X139215809Y-99324752D01*
X139263428Y-99134276D01*
X139311047Y-99039038D01*
X139358666Y-98991419D01*
X139453904Y-98943800D01*
X139549142Y-98943800D01*
X139644380Y-98991419D01*
X139692000Y-99039038D01*
X139739619Y-99134276D01*
X139739619Y-99372371D01*
X139692000Y-99515228D01*
X121483428Y-93753323D02*
X121435809Y-93896180D01*
X121388190Y-93943800D01*
X121292952Y-93991419D01*
X121150095Y-93991419D01*
X121054857Y-93943800D01*
X121007238Y-93896180D01*
X120959619Y-93800942D01*
X120959619Y-93419990D01*
X121959619Y-93419990D01*
X121959619Y-93753323D01*
X121912000Y-93848561D01*
X121864380Y-93896180D01*
X121769142Y-93943800D01*
X121673904Y-93943800D01*
X121578666Y-93896180D01*
X121531047Y-93848561D01*
X121483428Y-93753323D01*
X121483428Y-93419990D01*
X121959619Y-94610466D02*
X121959619Y-94705704D01*
X121912000Y-94800942D01*
X121864380Y-94848561D01*
X121769142Y-94896180D01*
X121578666Y-94943800D01*
X121340571Y-94943800D01*
X121150095Y-94896180D01*
X121054857Y-94848561D01*
X121007238Y-94800942D01*
X120959619Y-94705704D01*
X120959619Y-94610466D01*
X121007238Y-94515228D01*
X121054857Y-94467609D01*
X121150095Y-94419990D01*
X121340571Y-94372371D01*
X121578666Y-94372371D01*
X121769142Y-94419990D01*
X121864380Y-94467609D01*
X121912000Y-94515228D01*
X121959619Y-94610466D01*
X121959619Y-95562847D02*
X121959619Y-95658085D01*
X121912000Y-95753323D01*
X121864380Y-95800942D01*
X121769142Y-95848561D01*
X121578666Y-95896180D01*
X121340571Y-95896180D01*
X121150095Y-95848561D01*
X121054857Y-95800942D01*
X121007238Y-95753323D01*
X120959619Y-95658085D01*
X120959619Y-95562847D01*
X121007238Y-95467609D01*
X121054857Y-95419990D01*
X121150095Y-95372371D01*
X121340571Y-95324752D01*
X121578666Y-95324752D01*
X121769142Y-95372371D01*
X121864380Y-95419990D01*
X121912000Y-95467609D01*
X121959619Y-95562847D01*
X120864380Y-96086657D02*
X120864380Y-96848561D01*
X121007238Y-97039038D02*
X120959619Y-97181895D01*
X120959619Y-97419990D01*
X121007238Y-97515228D01*
X121054857Y-97562847D01*
X121150095Y-97610466D01*
X121245333Y-97610466D01*
X121340571Y-97562847D01*
X121388190Y-97515228D01*
X121435809Y-97419990D01*
X121483428Y-97229514D01*
X121531047Y-97134276D01*
X121578666Y-97086657D01*
X121673904Y-97039038D01*
X121769142Y-97039038D01*
X121864380Y-97086657D01*
X121912000Y-97134276D01*
X121959619Y-97229514D01*
X121959619Y-97467609D01*
X121912000Y-97610466D01*
X121864380Y-97991419D02*
X121912000Y-98039038D01*
X121959619Y-98134276D01*
X121959619Y-98372371D01*
X121912000Y-98467609D01*
X121864380Y-98515228D01*
X121769142Y-98562847D01*
X121673904Y-98562847D01*
X121531047Y-98515228D01*
X120959619Y-97943800D01*
X120959619Y-98562847D01*
X121007238Y-98943800D02*
X120959619Y-99086657D01*
X120959619Y-99324752D01*
X121007238Y-99419990D01*
X121054857Y-99467609D01*
X121150095Y-99515228D01*
X121245333Y-99515228D01*
X121340571Y-99467609D01*
X121388190Y-99419990D01*
X121435809Y-99324752D01*
X121483428Y-99134276D01*
X121531047Y-99039038D01*
X121578666Y-98991419D01*
X121673904Y-98943800D01*
X121769142Y-98943800D01*
X121864380Y-98991419D01*
X121912000Y-99039038D01*
X121959619Y-99134276D01*
X121959619Y-99372371D01*
X121912000Y-99515228D01*
X103703428Y-93753323D02*
X103655809Y-93896180D01*
X103608190Y-93943800D01*
X103512952Y-93991419D01*
X103370095Y-93991419D01*
X103274857Y-93943800D01*
X103227238Y-93896180D01*
X103179619Y-93800942D01*
X103179619Y-93419990D01*
X104179619Y-93419990D01*
X104179619Y-93753323D01*
X104132000Y-93848561D01*
X104084380Y-93896180D01*
X103989142Y-93943800D01*
X103893904Y-93943800D01*
X103798666Y-93896180D01*
X103751047Y-93848561D01*
X103703428Y-93753323D01*
X103703428Y-93419990D01*
X104179619Y-94610466D02*
X104179619Y-94705704D01*
X104132000Y-94800942D01*
X104084380Y-94848561D01*
X103989142Y-94896180D01*
X103798666Y-94943800D01*
X103560571Y-94943800D01*
X103370095Y-94896180D01*
X103274857Y-94848561D01*
X103227238Y-94800942D01*
X103179619Y-94705704D01*
X103179619Y-94610466D01*
X103227238Y-94515228D01*
X103274857Y-94467609D01*
X103370095Y-94419990D01*
X103560571Y-94372371D01*
X103798666Y-94372371D01*
X103989142Y-94419990D01*
X104084380Y-94467609D01*
X104132000Y-94515228D01*
X104179619Y-94610466D01*
X104179619Y-95562847D02*
X104179619Y-95658085D01*
X104132000Y-95753323D01*
X104084380Y-95800942D01*
X103989142Y-95848561D01*
X103798666Y-95896180D01*
X103560571Y-95896180D01*
X103370095Y-95848561D01*
X103274857Y-95800942D01*
X103227238Y-95753323D01*
X103179619Y-95658085D01*
X103179619Y-95562847D01*
X103227238Y-95467609D01*
X103274857Y-95419990D01*
X103370095Y-95372371D01*
X103560571Y-95324752D01*
X103798666Y-95324752D01*
X103989142Y-95372371D01*
X104084380Y-95419990D01*
X104132000Y-95467609D01*
X104179619Y-95562847D01*
X103084380Y-96086657D02*
X103084380Y-96848561D01*
X103227238Y-97039038D02*
X103179619Y-97181895D01*
X103179619Y-97419990D01*
X103227238Y-97515228D01*
X103274857Y-97562847D01*
X103370095Y-97610466D01*
X103465333Y-97610466D01*
X103560571Y-97562847D01*
X103608190Y-97515228D01*
X103655809Y-97419990D01*
X103703428Y-97229514D01*
X103751047Y-97134276D01*
X103798666Y-97086657D01*
X103893904Y-97039038D01*
X103989142Y-97039038D01*
X104084380Y-97086657D01*
X104132000Y-97134276D01*
X104179619Y-97229514D01*
X104179619Y-97467609D01*
X104132000Y-97610466D01*
X104084380Y-97991419D02*
X104132000Y-98039038D01*
X104179619Y-98134276D01*
X104179619Y-98372371D01*
X104132000Y-98467609D01*
X104084380Y-98515228D01*
X103989142Y-98562847D01*
X103893904Y-98562847D01*
X103751047Y-98515228D01*
X103179619Y-97943800D01*
X103179619Y-98562847D01*
X103227238Y-98943800D02*
X103179619Y-99086657D01*
X103179619Y-99324752D01*
X103227238Y-99419990D01*
X103274857Y-99467609D01*
X103370095Y-99515228D01*
X103465333Y-99515228D01*
X103560571Y-99467609D01*
X103608190Y-99419990D01*
X103655809Y-99324752D01*
X103703428Y-99134276D01*
X103751047Y-99039038D01*
X103798666Y-98991419D01*
X103893904Y-98943800D01*
X103989142Y-98943800D01*
X104084380Y-98991419D01*
X104132000Y-99039038D01*
X104179619Y-99134276D01*
X104179619Y-99372371D01*
X104132000Y-99515228D01*
X174823428Y-75973323D02*
X174775809Y-76116180D01*
X174728190Y-76163800D01*
X174632952Y-76211419D01*
X174490095Y-76211419D01*
X174394857Y-76163800D01*
X174347238Y-76116180D01*
X174299619Y-76020942D01*
X174299619Y-75639990D01*
X175299619Y-75639990D01*
X175299619Y-75973323D01*
X175252000Y-76068561D01*
X175204380Y-76116180D01*
X175109142Y-76163800D01*
X175013904Y-76163800D01*
X174918666Y-76116180D01*
X174871047Y-76068561D01*
X174823428Y-75973323D01*
X174823428Y-75639990D01*
X175299619Y-76830466D02*
X175299619Y-76925704D01*
X175252000Y-77020942D01*
X175204380Y-77068561D01*
X175109142Y-77116180D01*
X174918666Y-77163800D01*
X174680571Y-77163800D01*
X174490095Y-77116180D01*
X174394857Y-77068561D01*
X174347238Y-77020942D01*
X174299619Y-76925704D01*
X174299619Y-76830466D01*
X174347238Y-76735228D01*
X174394857Y-76687609D01*
X174490095Y-76639990D01*
X174680571Y-76592371D01*
X174918666Y-76592371D01*
X175109142Y-76639990D01*
X175204380Y-76687609D01*
X175252000Y-76735228D01*
X175299619Y-76830466D01*
X175299619Y-77782847D02*
X175299619Y-77878085D01*
X175252000Y-77973323D01*
X175204380Y-78020942D01*
X175109142Y-78068561D01*
X174918666Y-78116180D01*
X174680571Y-78116180D01*
X174490095Y-78068561D01*
X174394857Y-78020942D01*
X174347238Y-77973323D01*
X174299619Y-77878085D01*
X174299619Y-77782847D01*
X174347238Y-77687609D01*
X174394857Y-77639990D01*
X174490095Y-77592371D01*
X174680571Y-77544752D01*
X174918666Y-77544752D01*
X175109142Y-77592371D01*
X175204380Y-77639990D01*
X175252000Y-77687609D01*
X175299619Y-77782847D01*
X174204380Y-78306657D02*
X174204380Y-79068561D01*
X174347238Y-79259038D02*
X174299619Y-79401895D01*
X174299619Y-79639990D01*
X174347238Y-79735228D01*
X174394857Y-79782847D01*
X174490095Y-79830466D01*
X174585333Y-79830466D01*
X174680571Y-79782847D01*
X174728190Y-79735228D01*
X174775809Y-79639990D01*
X174823428Y-79449514D01*
X174871047Y-79354276D01*
X174918666Y-79306657D01*
X175013904Y-79259038D01*
X175109142Y-79259038D01*
X175204380Y-79306657D01*
X175252000Y-79354276D01*
X175299619Y-79449514D01*
X175299619Y-79687609D01*
X175252000Y-79830466D01*
X175204380Y-80211419D02*
X175252000Y-80259038D01*
X175299619Y-80354276D01*
X175299619Y-80592371D01*
X175252000Y-80687609D01*
X175204380Y-80735228D01*
X175109142Y-80782847D01*
X175013904Y-80782847D01*
X174871047Y-80735228D01*
X174299619Y-80163800D01*
X174299619Y-80782847D01*
X174347238Y-81163800D02*
X174299619Y-81306657D01*
X174299619Y-81544752D01*
X174347238Y-81639990D01*
X174394857Y-81687609D01*
X174490095Y-81735228D01*
X174585333Y-81735228D01*
X174680571Y-81687609D01*
X174728190Y-81639990D01*
X174775809Y-81544752D01*
X174823428Y-81354276D01*
X174871047Y-81259038D01*
X174918666Y-81211419D01*
X175013904Y-81163800D01*
X175109142Y-81163800D01*
X175204380Y-81211419D01*
X175252000Y-81259038D01*
X175299619Y-81354276D01*
X175299619Y-81592371D01*
X175252000Y-81735228D01*
X157043428Y-75973323D02*
X156995809Y-76116180D01*
X156948190Y-76163800D01*
X156852952Y-76211419D01*
X156710095Y-76211419D01*
X156614857Y-76163800D01*
X156567238Y-76116180D01*
X156519619Y-76020942D01*
X156519619Y-75639990D01*
X157519619Y-75639990D01*
X157519619Y-75973323D01*
X157472000Y-76068561D01*
X157424380Y-76116180D01*
X157329142Y-76163800D01*
X157233904Y-76163800D01*
X157138666Y-76116180D01*
X157091047Y-76068561D01*
X157043428Y-75973323D01*
X157043428Y-75639990D01*
X157519619Y-76830466D02*
X157519619Y-76925704D01*
X157472000Y-77020942D01*
X157424380Y-77068561D01*
X157329142Y-77116180D01*
X157138666Y-77163800D01*
X156900571Y-77163800D01*
X156710095Y-77116180D01*
X156614857Y-77068561D01*
X156567238Y-77020942D01*
X156519619Y-76925704D01*
X156519619Y-76830466D01*
X156567238Y-76735228D01*
X156614857Y-76687609D01*
X156710095Y-76639990D01*
X156900571Y-76592371D01*
X157138666Y-76592371D01*
X157329142Y-76639990D01*
X157424380Y-76687609D01*
X157472000Y-76735228D01*
X157519619Y-76830466D01*
X157519619Y-77782847D02*
X157519619Y-77878085D01*
X157472000Y-77973323D01*
X157424380Y-78020942D01*
X157329142Y-78068561D01*
X157138666Y-78116180D01*
X156900571Y-78116180D01*
X156710095Y-78068561D01*
X156614857Y-78020942D01*
X156567238Y-77973323D01*
X156519619Y-77878085D01*
X156519619Y-77782847D01*
X156567238Y-77687609D01*
X156614857Y-77639990D01*
X156710095Y-77592371D01*
X156900571Y-77544752D01*
X157138666Y-77544752D01*
X157329142Y-77592371D01*
X157424380Y-77639990D01*
X157472000Y-77687609D01*
X157519619Y-77782847D01*
X156424380Y-78306657D02*
X156424380Y-79068561D01*
X156567238Y-79259038D02*
X156519619Y-79401895D01*
X156519619Y-79639990D01*
X156567238Y-79735228D01*
X156614857Y-79782847D01*
X156710095Y-79830466D01*
X156805333Y-79830466D01*
X156900571Y-79782847D01*
X156948190Y-79735228D01*
X156995809Y-79639990D01*
X157043428Y-79449514D01*
X157091047Y-79354276D01*
X157138666Y-79306657D01*
X157233904Y-79259038D01*
X157329142Y-79259038D01*
X157424380Y-79306657D01*
X157472000Y-79354276D01*
X157519619Y-79449514D01*
X157519619Y-79687609D01*
X157472000Y-79830466D01*
X157424380Y-80211419D02*
X157472000Y-80259038D01*
X157519619Y-80354276D01*
X157519619Y-80592371D01*
X157472000Y-80687609D01*
X157424380Y-80735228D01*
X157329142Y-80782847D01*
X157233904Y-80782847D01*
X157091047Y-80735228D01*
X156519619Y-80163800D01*
X156519619Y-80782847D01*
X156567238Y-81163800D02*
X156519619Y-81306657D01*
X156519619Y-81544752D01*
X156567238Y-81639990D01*
X156614857Y-81687609D01*
X156710095Y-81735228D01*
X156805333Y-81735228D01*
X156900571Y-81687609D01*
X156948190Y-81639990D01*
X156995809Y-81544752D01*
X157043428Y-81354276D01*
X157091047Y-81259038D01*
X157138666Y-81211419D01*
X157233904Y-81163800D01*
X157329142Y-81163800D01*
X157424380Y-81211419D01*
X157472000Y-81259038D01*
X157519619Y-81354276D01*
X157519619Y-81592371D01*
X157472000Y-81735228D01*
X139263428Y-75973323D02*
X139215809Y-76116180D01*
X139168190Y-76163800D01*
X139072952Y-76211419D01*
X138930095Y-76211419D01*
X138834857Y-76163800D01*
X138787238Y-76116180D01*
X138739619Y-76020942D01*
X138739619Y-75639990D01*
X139739619Y-75639990D01*
X139739619Y-75973323D01*
X139692000Y-76068561D01*
X139644380Y-76116180D01*
X139549142Y-76163800D01*
X139453904Y-76163800D01*
X139358666Y-76116180D01*
X139311047Y-76068561D01*
X139263428Y-75973323D01*
X139263428Y-75639990D01*
X139739619Y-76830466D02*
X139739619Y-76925704D01*
X139692000Y-77020942D01*
X139644380Y-77068561D01*
X139549142Y-77116180D01*
X139358666Y-77163800D01*
X139120571Y-77163800D01*
X138930095Y-77116180D01*
X138834857Y-77068561D01*
X138787238Y-77020942D01*
X138739619Y-76925704D01*
X138739619Y-76830466D01*
X138787238Y-76735228D01*
X138834857Y-76687609D01*
X138930095Y-76639990D01*
X139120571Y-76592371D01*
X139358666Y-76592371D01*
X139549142Y-76639990D01*
X139644380Y-76687609D01*
X139692000Y-76735228D01*
X139739619Y-76830466D01*
X139739619Y-77782847D02*
X139739619Y-77878085D01*
X139692000Y-77973323D01*
X139644380Y-78020942D01*
X139549142Y-78068561D01*
X139358666Y-78116180D01*
X139120571Y-78116180D01*
X138930095Y-78068561D01*
X138834857Y-78020942D01*
X138787238Y-77973323D01*
X138739619Y-77878085D01*
X138739619Y-77782847D01*
X138787238Y-77687609D01*
X138834857Y-77639990D01*
X138930095Y-77592371D01*
X139120571Y-77544752D01*
X139358666Y-77544752D01*
X139549142Y-77592371D01*
X139644380Y-77639990D01*
X139692000Y-77687609D01*
X139739619Y-77782847D01*
X138644380Y-78306657D02*
X138644380Y-79068561D01*
X138787238Y-79259038D02*
X138739619Y-79401895D01*
X138739619Y-79639990D01*
X138787238Y-79735228D01*
X138834857Y-79782847D01*
X138930095Y-79830466D01*
X139025333Y-79830466D01*
X139120571Y-79782847D01*
X139168190Y-79735228D01*
X139215809Y-79639990D01*
X139263428Y-79449514D01*
X139311047Y-79354276D01*
X139358666Y-79306657D01*
X139453904Y-79259038D01*
X139549142Y-79259038D01*
X139644380Y-79306657D01*
X139692000Y-79354276D01*
X139739619Y-79449514D01*
X139739619Y-79687609D01*
X139692000Y-79830466D01*
X139644380Y-80211419D02*
X139692000Y-80259038D01*
X139739619Y-80354276D01*
X139739619Y-80592371D01*
X139692000Y-80687609D01*
X139644380Y-80735228D01*
X139549142Y-80782847D01*
X139453904Y-80782847D01*
X139311047Y-80735228D01*
X138739619Y-80163800D01*
X138739619Y-80782847D01*
X138787238Y-81163800D02*
X138739619Y-81306657D01*
X138739619Y-81544752D01*
X138787238Y-81639990D01*
X138834857Y-81687609D01*
X138930095Y-81735228D01*
X139025333Y-81735228D01*
X139120571Y-81687609D01*
X139168190Y-81639990D01*
X139215809Y-81544752D01*
X139263428Y-81354276D01*
X139311047Y-81259038D01*
X139358666Y-81211419D01*
X139453904Y-81163800D01*
X139549142Y-81163800D01*
X139644380Y-81211419D01*
X139692000Y-81259038D01*
X139739619Y-81354276D01*
X139739619Y-81592371D01*
X139692000Y-81735228D01*
X121483428Y-75973323D02*
X121435809Y-76116180D01*
X121388190Y-76163800D01*
X121292952Y-76211419D01*
X121150095Y-76211419D01*
X121054857Y-76163800D01*
X121007238Y-76116180D01*
X120959619Y-76020942D01*
X120959619Y-75639990D01*
X121959619Y-75639990D01*
X121959619Y-75973323D01*
X121912000Y-76068561D01*
X121864380Y-76116180D01*
X121769142Y-76163800D01*
X121673904Y-76163800D01*
X121578666Y-76116180D01*
X121531047Y-76068561D01*
X121483428Y-75973323D01*
X121483428Y-75639990D01*
X121959619Y-76830466D02*
X121959619Y-76925704D01*
X121912000Y-77020942D01*
X121864380Y-77068561D01*
X121769142Y-77116180D01*
X121578666Y-77163800D01*
X121340571Y-77163800D01*
X121150095Y-77116180D01*
X121054857Y-77068561D01*
X121007238Y-77020942D01*
X120959619Y-76925704D01*
X120959619Y-76830466D01*
X121007238Y-76735228D01*
X121054857Y-76687609D01*
X121150095Y-76639990D01*
X121340571Y-76592371D01*
X121578666Y-76592371D01*
X121769142Y-76639990D01*
X121864380Y-76687609D01*
X121912000Y-76735228D01*
X121959619Y-76830466D01*
X121959619Y-77782847D02*
X121959619Y-77878085D01*
X121912000Y-77973323D01*
X121864380Y-78020942D01*
X121769142Y-78068561D01*
X121578666Y-78116180D01*
X121340571Y-78116180D01*
X121150095Y-78068561D01*
X121054857Y-78020942D01*
X121007238Y-77973323D01*
X120959619Y-77878085D01*
X120959619Y-77782847D01*
X121007238Y-77687609D01*
X121054857Y-77639990D01*
X121150095Y-77592371D01*
X121340571Y-77544752D01*
X121578666Y-77544752D01*
X121769142Y-77592371D01*
X121864380Y-77639990D01*
X121912000Y-77687609D01*
X121959619Y-77782847D01*
X120864380Y-78306657D02*
X120864380Y-79068561D01*
X121007238Y-79259038D02*
X120959619Y-79401895D01*
X120959619Y-79639990D01*
X121007238Y-79735228D01*
X121054857Y-79782847D01*
X121150095Y-79830466D01*
X121245333Y-79830466D01*
X121340571Y-79782847D01*
X121388190Y-79735228D01*
X121435809Y-79639990D01*
X121483428Y-79449514D01*
X121531047Y-79354276D01*
X121578666Y-79306657D01*
X121673904Y-79259038D01*
X121769142Y-79259038D01*
X121864380Y-79306657D01*
X121912000Y-79354276D01*
X121959619Y-79449514D01*
X121959619Y-79687609D01*
X121912000Y-79830466D01*
X121864380Y-80211419D02*
X121912000Y-80259038D01*
X121959619Y-80354276D01*
X121959619Y-80592371D01*
X121912000Y-80687609D01*
X121864380Y-80735228D01*
X121769142Y-80782847D01*
X121673904Y-80782847D01*
X121531047Y-80735228D01*
X120959619Y-80163800D01*
X120959619Y-80782847D01*
X121007238Y-81163800D02*
X120959619Y-81306657D01*
X120959619Y-81544752D01*
X121007238Y-81639990D01*
X121054857Y-81687609D01*
X121150095Y-81735228D01*
X121245333Y-81735228D01*
X121340571Y-81687609D01*
X121388190Y-81639990D01*
X121435809Y-81544752D01*
X121483428Y-81354276D01*
X121531047Y-81259038D01*
X121578666Y-81211419D01*
X121673904Y-81163800D01*
X121769142Y-81163800D01*
X121864380Y-81211419D01*
X121912000Y-81259038D01*
X121959619Y-81354276D01*
X121959619Y-81592371D01*
X121912000Y-81735228D01*
X103703428Y-75973323D02*
X103655809Y-76116180D01*
X103608190Y-76163800D01*
X103512952Y-76211419D01*
X103370095Y-76211419D01*
X103274857Y-76163800D01*
X103227238Y-76116180D01*
X103179619Y-76020942D01*
X103179619Y-75639990D01*
X104179619Y-75639990D01*
X104179619Y-75973323D01*
X104132000Y-76068561D01*
X104084380Y-76116180D01*
X103989142Y-76163800D01*
X103893904Y-76163800D01*
X103798666Y-76116180D01*
X103751047Y-76068561D01*
X103703428Y-75973323D01*
X103703428Y-75639990D01*
X104179619Y-76830466D02*
X104179619Y-76925704D01*
X104132000Y-77020942D01*
X104084380Y-77068561D01*
X103989142Y-77116180D01*
X103798666Y-77163800D01*
X103560571Y-77163800D01*
X103370095Y-77116180D01*
X103274857Y-77068561D01*
X103227238Y-77020942D01*
X103179619Y-76925704D01*
X103179619Y-76830466D01*
X103227238Y-76735228D01*
X103274857Y-76687609D01*
X103370095Y-76639990D01*
X103560571Y-76592371D01*
X103798666Y-76592371D01*
X103989142Y-76639990D01*
X104084380Y-76687609D01*
X104132000Y-76735228D01*
X104179619Y-76830466D01*
X104179619Y-77782847D02*
X104179619Y-77878085D01*
X104132000Y-77973323D01*
X104084380Y-78020942D01*
X103989142Y-78068561D01*
X103798666Y-78116180D01*
X103560571Y-78116180D01*
X103370095Y-78068561D01*
X103274857Y-78020942D01*
X103227238Y-77973323D01*
X103179619Y-77878085D01*
X103179619Y-77782847D01*
X103227238Y-77687609D01*
X103274857Y-77639990D01*
X103370095Y-77592371D01*
X103560571Y-77544752D01*
X103798666Y-77544752D01*
X103989142Y-77592371D01*
X104084380Y-77639990D01*
X104132000Y-77687609D01*
X104179619Y-77782847D01*
X103084380Y-78306657D02*
X103084380Y-79068561D01*
X103227238Y-79259038D02*
X103179619Y-79401895D01*
X103179619Y-79639990D01*
X103227238Y-79735228D01*
X103274857Y-79782847D01*
X103370095Y-79830466D01*
X103465333Y-79830466D01*
X103560571Y-79782847D01*
X103608190Y-79735228D01*
X103655809Y-79639990D01*
X103703428Y-79449514D01*
X103751047Y-79354276D01*
X103798666Y-79306657D01*
X103893904Y-79259038D01*
X103989142Y-79259038D01*
X104084380Y-79306657D01*
X104132000Y-79354276D01*
X104179619Y-79449514D01*
X104179619Y-79687609D01*
X104132000Y-79830466D01*
X104084380Y-80211419D02*
X104132000Y-80259038D01*
X104179619Y-80354276D01*
X104179619Y-80592371D01*
X104132000Y-80687609D01*
X104084380Y-80735228D01*
X103989142Y-80782847D01*
X103893904Y-80782847D01*
X103751047Y-80735228D01*
X103179619Y-80163800D01*
X103179619Y-80782847D01*
X103227238Y-81163800D02*
X103179619Y-81306657D01*
X103179619Y-81544752D01*
X103227238Y-81639990D01*
X103274857Y-81687609D01*
X103370095Y-81735228D01*
X103465333Y-81735228D01*
X103560571Y-81687609D01*
X103608190Y-81639990D01*
X103655809Y-81544752D01*
X103703428Y-81354276D01*
X103751047Y-81259038D01*
X103798666Y-81211419D01*
X103893904Y-81163800D01*
X103989142Y-81163800D01*
X104084380Y-81211419D01*
X104132000Y-81259038D01*
X104179619Y-81354276D01*
X104179619Y-81592371D01*
X104132000Y-81735228D01*
X174823428Y-58193323D02*
X174775809Y-58336180D01*
X174728190Y-58383800D01*
X174632952Y-58431419D01*
X174490095Y-58431419D01*
X174394857Y-58383800D01*
X174347238Y-58336180D01*
X174299619Y-58240942D01*
X174299619Y-57859990D01*
X175299619Y-57859990D01*
X175299619Y-58193323D01*
X175252000Y-58288561D01*
X175204380Y-58336180D01*
X175109142Y-58383800D01*
X175013904Y-58383800D01*
X174918666Y-58336180D01*
X174871047Y-58288561D01*
X174823428Y-58193323D01*
X174823428Y-57859990D01*
X175299619Y-59050466D02*
X175299619Y-59145704D01*
X175252000Y-59240942D01*
X175204380Y-59288561D01*
X175109142Y-59336180D01*
X174918666Y-59383800D01*
X174680571Y-59383800D01*
X174490095Y-59336180D01*
X174394857Y-59288561D01*
X174347238Y-59240942D01*
X174299619Y-59145704D01*
X174299619Y-59050466D01*
X174347238Y-58955228D01*
X174394857Y-58907609D01*
X174490095Y-58859990D01*
X174680571Y-58812371D01*
X174918666Y-58812371D01*
X175109142Y-58859990D01*
X175204380Y-58907609D01*
X175252000Y-58955228D01*
X175299619Y-59050466D01*
X175299619Y-60002847D02*
X175299619Y-60098085D01*
X175252000Y-60193323D01*
X175204380Y-60240942D01*
X175109142Y-60288561D01*
X174918666Y-60336180D01*
X174680571Y-60336180D01*
X174490095Y-60288561D01*
X174394857Y-60240942D01*
X174347238Y-60193323D01*
X174299619Y-60098085D01*
X174299619Y-60002847D01*
X174347238Y-59907609D01*
X174394857Y-59859990D01*
X174490095Y-59812371D01*
X174680571Y-59764752D01*
X174918666Y-59764752D01*
X175109142Y-59812371D01*
X175204380Y-59859990D01*
X175252000Y-59907609D01*
X175299619Y-60002847D01*
X174204380Y-60526657D02*
X174204380Y-61288561D01*
X174347238Y-61479038D02*
X174299619Y-61621895D01*
X174299619Y-61859990D01*
X174347238Y-61955228D01*
X174394857Y-62002847D01*
X174490095Y-62050466D01*
X174585333Y-62050466D01*
X174680571Y-62002847D01*
X174728190Y-61955228D01*
X174775809Y-61859990D01*
X174823428Y-61669514D01*
X174871047Y-61574276D01*
X174918666Y-61526657D01*
X175013904Y-61479038D01*
X175109142Y-61479038D01*
X175204380Y-61526657D01*
X175252000Y-61574276D01*
X175299619Y-61669514D01*
X175299619Y-61907609D01*
X175252000Y-62050466D01*
X175204380Y-62431419D02*
X175252000Y-62479038D01*
X175299619Y-62574276D01*
X175299619Y-62812371D01*
X175252000Y-62907609D01*
X175204380Y-62955228D01*
X175109142Y-63002847D01*
X175013904Y-63002847D01*
X174871047Y-62955228D01*
X174299619Y-62383800D01*
X174299619Y-63002847D01*
X174347238Y-63383800D02*
X174299619Y-63526657D01*
X174299619Y-63764752D01*
X174347238Y-63859990D01*
X174394857Y-63907609D01*
X174490095Y-63955228D01*
X174585333Y-63955228D01*
X174680571Y-63907609D01*
X174728190Y-63859990D01*
X174775809Y-63764752D01*
X174823428Y-63574276D01*
X174871047Y-63479038D01*
X174918666Y-63431419D01*
X175013904Y-63383800D01*
X175109142Y-63383800D01*
X175204380Y-63431419D01*
X175252000Y-63479038D01*
X175299619Y-63574276D01*
X175299619Y-63812371D01*
X175252000Y-63955228D01*
X157043428Y-58193323D02*
X156995809Y-58336180D01*
X156948190Y-58383800D01*
X156852952Y-58431419D01*
X156710095Y-58431419D01*
X156614857Y-58383800D01*
X156567238Y-58336180D01*
X156519619Y-58240942D01*
X156519619Y-57859990D01*
X157519619Y-57859990D01*
X157519619Y-58193323D01*
X157472000Y-58288561D01*
X157424380Y-58336180D01*
X157329142Y-58383800D01*
X157233904Y-58383800D01*
X157138666Y-58336180D01*
X157091047Y-58288561D01*
X157043428Y-58193323D01*
X157043428Y-57859990D01*
X157519619Y-59050466D02*
X157519619Y-59145704D01*
X157472000Y-59240942D01*
X157424380Y-59288561D01*
X157329142Y-59336180D01*
X157138666Y-59383800D01*
X156900571Y-59383800D01*
X156710095Y-59336180D01*
X156614857Y-59288561D01*
X156567238Y-59240942D01*
X156519619Y-59145704D01*
X156519619Y-59050466D01*
X156567238Y-58955228D01*
X156614857Y-58907609D01*
X156710095Y-58859990D01*
X156900571Y-58812371D01*
X157138666Y-58812371D01*
X157329142Y-58859990D01*
X157424380Y-58907609D01*
X157472000Y-58955228D01*
X157519619Y-59050466D01*
X157519619Y-60002847D02*
X157519619Y-60098085D01*
X157472000Y-60193323D01*
X157424380Y-60240942D01*
X157329142Y-60288561D01*
X157138666Y-60336180D01*
X156900571Y-60336180D01*
X156710095Y-60288561D01*
X156614857Y-60240942D01*
X156567238Y-60193323D01*
X156519619Y-60098085D01*
X156519619Y-60002847D01*
X156567238Y-59907609D01*
X156614857Y-59859990D01*
X156710095Y-59812371D01*
X156900571Y-59764752D01*
X157138666Y-59764752D01*
X157329142Y-59812371D01*
X157424380Y-59859990D01*
X157472000Y-59907609D01*
X157519619Y-60002847D01*
X156424380Y-60526657D02*
X156424380Y-61288561D01*
X156567238Y-61479038D02*
X156519619Y-61621895D01*
X156519619Y-61859990D01*
X156567238Y-61955228D01*
X156614857Y-62002847D01*
X156710095Y-62050466D01*
X156805333Y-62050466D01*
X156900571Y-62002847D01*
X156948190Y-61955228D01*
X156995809Y-61859990D01*
X157043428Y-61669514D01*
X157091047Y-61574276D01*
X157138666Y-61526657D01*
X157233904Y-61479038D01*
X157329142Y-61479038D01*
X157424380Y-61526657D01*
X157472000Y-61574276D01*
X157519619Y-61669514D01*
X157519619Y-61907609D01*
X157472000Y-62050466D01*
X157424380Y-62431419D02*
X157472000Y-62479038D01*
X157519619Y-62574276D01*
X157519619Y-62812371D01*
X157472000Y-62907609D01*
X157424380Y-62955228D01*
X157329142Y-63002847D01*
X157233904Y-63002847D01*
X157091047Y-62955228D01*
X156519619Y-62383800D01*
X156519619Y-63002847D01*
X156567238Y-63383800D02*
X156519619Y-63526657D01*
X156519619Y-63764752D01*
X156567238Y-63859990D01*
X156614857Y-63907609D01*
X156710095Y-63955228D01*
X156805333Y-63955228D01*
X156900571Y-63907609D01*
X156948190Y-63859990D01*
X156995809Y-63764752D01*
X157043428Y-63574276D01*
X157091047Y-63479038D01*
X157138666Y-63431419D01*
X157233904Y-63383800D01*
X157329142Y-63383800D01*
X157424380Y-63431419D01*
X157472000Y-63479038D01*
X157519619Y-63574276D01*
X157519619Y-63812371D01*
X157472000Y-63955228D01*
X139263428Y-58193323D02*
X139215809Y-58336180D01*
X139168190Y-58383800D01*
X139072952Y-58431419D01*
X138930095Y-58431419D01*
X138834857Y-58383800D01*
X138787238Y-58336180D01*
X138739619Y-58240942D01*
X138739619Y-57859990D01*
X139739619Y-57859990D01*
X139739619Y-58193323D01*
X139692000Y-58288561D01*
X139644380Y-58336180D01*
X139549142Y-58383800D01*
X139453904Y-58383800D01*
X139358666Y-58336180D01*
X139311047Y-58288561D01*
X139263428Y-58193323D01*
X139263428Y-57859990D01*
X139739619Y-59050466D02*
X139739619Y-59145704D01*
X139692000Y-59240942D01*
X139644380Y-59288561D01*
X139549142Y-59336180D01*
X139358666Y-59383800D01*
X139120571Y-59383800D01*
X138930095Y-59336180D01*
X138834857Y-59288561D01*
X138787238Y-59240942D01*
X138739619Y-59145704D01*
X138739619Y-59050466D01*
X138787238Y-58955228D01*
X138834857Y-58907609D01*
X138930095Y-58859990D01*
X139120571Y-58812371D01*
X139358666Y-58812371D01*
X139549142Y-58859990D01*
X139644380Y-58907609D01*
X139692000Y-58955228D01*
X139739619Y-59050466D01*
X139739619Y-60002847D02*
X139739619Y-60098085D01*
X139692000Y-60193323D01*
X139644380Y-60240942D01*
X139549142Y-60288561D01*
X139358666Y-60336180D01*
X139120571Y-60336180D01*
X138930095Y-60288561D01*
X138834857Y-60240942D01*
X138787238Y-60193323D01*
X138739619Y-60098085D01*
X138739619Y-60002847D01*
X138787238Y-59907609D01*
X138834857Y-59859990D01*
X138930095Y-59812371D01*
X139120571Y-59764752D01*
X139358666Y-59764752D01*
X139549142Y-59812371D01*
X139644380Y-59859990D01*
X139692000Y-59907609D01*
X139739619Y-60002847D01*
X138644380Y-60526657D02*
X138644380Y-61288561D01*
X138787238Y-61479038D02*
X138739619Y-61621895D01*
X138739619Y-61859990D01*
X138787238Y-61955228D01*
X138834857Y-62002847D01*
X138930095Y-62050466D01*
X139025333Y-62050466D01*
X139120571Y-62002847D01*
X139168190Y-61955228D01*
X139215809Y-61859990D01*
X139263428Y-61669514D01*
X139311047Y-61574276D01*
X139358666Y-61526657D01*
X139453904Y-61479038D01*
X139549142Y-61479038D01*
X139644380Y-61526657D01*
X139692000Y-61574276D01*
X139739619Y-61669514D01*
X139739619Y-61907609D01*
X139692000Y-62050466D01*
X139644380Y-62431419D02*
X139692000Y-62479038D01*
X139739619Y-62574276D01*
X139739619Y-62812371D01*
X139692000Y-62907609D01*
X139644380Y-62955228D01*
X139549142Y-63002847D01*
X139453904Y-63002847D01*
X139311047Y-62955228D01*
X138739619Y-62383800D01*
X138739619Y-63002847D01*
X138787238Y-63383800D02*
X138739619Y-63526657D01*
X138739619Y-63764752D01*
X138787238Y-63859990D01*
X138834857Y-63907609D01*
X138930095Y-63955228D01*
X139025333Y-63955228D01*
X139120571Y-63907609D01*
X139168190Y-63859990D01*
X139215809Y-63764752D01*
X139263428Y-63574276D01*
X139311047Y-63479038D01*
X139358666Y-63431419D01*
X139453904Y-63383800D01*
X139549142Y-63383800D01*
X139644380Y-63431419D01*
X139692000Y-63479038D01*
X139739619Y-63574276D01*
X139739619Y-63812371D01*
X139692000Y-63955228D01*
X121483428Y-58193323D02*
X121435809Y-58336180D01*
X121388190Y-58383800D01*
X121292952Y-58431419D01*
X121150095Y-58431419D01*
X121054857Y-58383800D01*
X121007238Y-58336180D01*
X120959619Y-58240942D01*
X120959619Y-57859990D01*
X121959619Y-57859990D01*
X121959619Y-58193323D01*
X121912000Y-58288561D01*
X121864380Y-58336180D01*
X121769142Y-58383800D01*
X121673904Y-58383800D01*
X121578666Y-58336180D01*
X121531047Y-58288561D01*
X121483428Y-58193323D01*
X121483428Y-57859990D01*
X121959619Y-59050466D02*
X121959619Y-59145704D01*
X121912000Y-59240942D01*
X121864380Y-59288561D01*
X121769142Y-59336180D01*
X121578666Y-59383800D01*
X121340571Y-59383800D01*
X121150095Y-59336180D01*
X121054857Y-59288561D01*
X121007238Y-59240942D01*
X120959619Y-59145704D01*
X120959619Y-59050466D01*
X121007238Y-58955228D01*
X121054857Y-58907609D01*
X121150095Y-58859990D01*
X121340571Y-58812371D01*
X121578666Y-58812371D01*
X121769142Y-58859990D01*
X121864380Y-58907609D01*
X121912000Y-58955228D01*
X121959619Y-59050466D01*
X121959619Y-60002847D02*
X121959619Y-60098085D01*
X121912000Y-60193323D01*
X121864380Y-60240942D01*
X121769142Y-60288561D01*
X121578666Y-60336180D01*
X121340571Y-60336180D01*
X121150095Y-60288561D01*
X121054857Y-60240942D01*
X121007238Y-60193323D01*
X120959619Y-60098085D01*
X120959619Y-60002847D01*
X121007238Y-59907609D01*
X121054857Y-59859990D01*
X121150095Y-59812371D01*
X121340571Y-59764752D01*
X121578666Y-59764752D01*
X121769142Y-59812371D01*
X121864380Y-59859990D01*
X121912000Y-59907609D01*
X121959619Y-60002847D01*
X120864380Y-60526657D02*
X120864380Y-61288561D01*
X121007238Y-61479038D02*
X120959619Y-61621895D01*
X120959619Y-61859990D01*
X121007238Y-61955228D01*
X121054857Y-62002847D01*
X121150095Y-62050466D01*
X121245333Y-62050466D01*
X121340571Y-62002847D01*
X121388190Y-61955228D01*
X121435809Y-61859990D01*
X121483428Y-61669514D01*
X121531047Y-61574276D01*
X121578666Y-61526657D01*
X121673904Y-61479038D01*
X121769142Y-61479038D01*
X121864380Y-61526657D01*
X121912000Y-61574276D01*
X121959619Y-61669514D01*
X121959619Y-61907609D01*
X121912000Y-62050466D01*
X121864380Y-62431419D02*
X121912000Y-62479038D01*
X121959619Y-62574276D01*
X121959619Y-62812371D01*
X121912000Y-62907609D01*
X121864380Y-62955228D01*
X121769142Y-63002847D01*
X121673904Y-63002847D01*
X121531047Y-62955228D01*
X120959619Y-62383800D01*
X120959619Y-63002847D01*
X121007238Y-63383800D02*
X120959619Y-63526657D01*
X120959619Y-63764752D01*
X121007238Y-63859990D01*
X121054857Y-63907609D01*
X121150095Y-63955228D01*
X121245333Y-63955228D01*
X121340571Y-63907609D01*
X121388190Y-63859990D01*
X121435809Y-63764752D01*
X121483428Y-63574276D01*
X121531047Y-63479038D01*
X121578666Y-63431419D01*
X121673904Y-63383800D01*
X121769142Y-63383800D01*
X121864380Y-63431419D01*
X121912000Y-63479038D01*
X121959619Y-63574276D01*
X121959619Y-63812371D01*
X121912000Y-63955228D01*
X103703428Y-58193323D02*
X103655809Y-58336180D01*
X103608190Y-58383800D01*
X103512952Y-58431419D01*
X103370095Y-58431419D01*
X103274857Y-58383800D01*
X103227238Y-58336180D01*
X103179619Y-58240942D01*
X103179619Y-57859990D01*
X104179619Y-57859990D01*
X104179619Y-58193323D01*
X104132000Y-58288561D01*
X104084380Y-58336180D01*
X103989142Y-58383800D01*
X103893904Y-58383800D01*
X103798666Y-58336180D01*
X103751047Y-58288561D01*
X103703428Y-58193323D01*
X103703428Y-57859990D01*
X104179619Y-59050466D02*
X104179619Y-59145704D01*
X104132000Y-59240942D01*
X104084380Y-59288561D01*
X103989142Y-59336180D01*
X103798666Y-59383800D01*
X103560571Y-59383800D01*
X103370095Y-59336180D01*
X103274857Y-59288561D01*
X103227238Y-59240942D01*
X103179619Y-59145704D01*
X103179619Y-59050466D01*
X103227238Y-58955228D01*
X103274857Y-58907609D01*
X103370095Y-58859990D01*
X103560571Y-58812371D01*
X103798666Y-58812371D01*
X103989142Y-58859990D01*
X104084380Y-58907609D01*
X104132000Y-58955228D01*
X104179619Y-59050466D01*
X104179619Y-60002847D02*
X104179619Y-60098085D01*
X104132000Y-60193323D01*
X104084380Y-60240942D01*
X103989142Y-60288561D01*
X103798666Y-60336180D01*
X103560571Y-60336180D01*
X103370095Y-60288561D01*
X103274857Y-60240942D01*
X103227238Y-60193323D01*
X103179619Y-60098085D01*
X103179619Y-60002847D01*
X103227238Y-59907609D01*
X103274857Y-59859990D01*
X103370095Y-59812371D01*
X103560571Y-59764752D01*
X103798666Y-59764752D01*
X103989142Y-59812371D01*
X104084380Y-59859990D01*
X104132000Y-59907609D01*
X104179619Y-60002847D01*
X103084380Y-60526657D02*
X103084380Y-61288561D01*
X103227238Y-61479038D02*
X103179619Y-61621895D01*
X103179619Y-61859990D01*
X103227238Y-61955228D01*
X103274857Y-62002847D01*
X103370095Y-62050466D01*
X103465333Y-62050466D01*
X103560571Y-62002847D01*
X103608190Y-61955228D01*
X103655809Y-61859990D01*
X103703428Y-61669514D01*
X103751047Y-61574276D01*
X103798666Y-61526657D01*
X103893904Y-61479038D01*
X103989142Y-61479038D01*
X104084380Y-61526657D01*
X104132000Y-61574276D01*
X104179619Y-61669514D01*
X104179619Y-61907609D01*
X104132000Y-62050466D01*
X104084380Y-62431419D02*
X104132000Y-62479038D01*
X104179619Y-62574276D01*
X104179619Y-62812371D01*
X104132000Y-62907609D01*
X104084380Y-62955228D01*
X103989142Y-63002847D01*
X103893904Y-63002847D01*
X103751047Y-62955228D01*
X103179619Y-62383800D01*
X103179619Y-63002847D01*
X103227238Y-63383800D02*
X103179619Y-63526657D01*
X103179619Y-63764752D01*
X103227238Y-63859990D01*
X103274857Y-63907609D01*
X103370095Y-63955228D01*
X103465333Y-63955228D01*
X103560571Y-63907609D01*
X103608190Y-63859990D01*
X103655809Y-63764752D01*
X103703428Y-63574276D01*
X103751047Y-63479038D01*
X103798666Y-63431419D01*
X103893904Y-63383800D01*
X103989142Y-63383800D01*
X104084380Y-63431419D01*
X104132000Y-63479038D01*
X104179619Y-63574276D01*
X104179619Y-63812371D01*
X104132000Y-63955228D01*
D11*
X181341387Y-143234585D02*
G75*
G02X180733800Y-143358200I-607587J1431385D01*
G01*
X182165909Y-141195458D02*
G75*
G02X182165800Y-142411200I-1432109J-607742D01*
G01*
X180126058Y-140371091D02*
G75*
G02X181341800Y-140371200I607742J-1432109D01*
G01*
X179301691Y-142410942D02*
G75*
G02X179301800Y-141195200I1432109J607742D01*
G01*
X180760811Y-143358692D02*
G75*
G02X180125800Y-143235200I-27011J1555492D01*
G01*
X185788800Y-141803200D02*
G75*
G03X185788800Y-141803200I-1555000J0D01*
G01*
X178573800Y-143903200D02*
X186393800Y-143903200D01*
X178573800Y-138343200D02*
X186393800Y-138343200D01*
X178573800Y-145463200D02*
X186393800Y-145463200D01*
X178573800Y-138343200D02*
X178573800Y-145463200D01*
X186393800Y-138343200D02*
X186393800Y-145463200D01*
X178333800Y-143963200D02*
X178333800Y-145703200D01*
X178333800Y-145703200D02*
X179833800Y-145703200D01*
X163561387Y-143234585D02*
G75*
G02X162953800Y-143358200I-607587J1431385D01*
G01*
X164385909Y-141195458D02*
G75*
G02X164385800Y-142411200I-1432109J-607742D01*
G01*
X162346058Y-140371091D02*
G75*
G02X163561800Y-140371200I607742J-1432109D01*
G01*
X161521691Y-142410942D02*
G75*
G02X161521800Y-141195200I1432109J607742D01*
G01*
X162980811Y-143358692D02*
G75*
G02X162345800Y-143235200I-27011J1555492D01*
G01*
X168008800Y-141803200D02*
G75*
G03X168008800Y-141803200I-1555000J0D01*
G01*
X160793800Y-143903200D02*
X168613800Y-143903200D01*
X160793800Y-138343200D02*
X168613800Y-138343200D01*
X160793800Y-145463200D02*
X168613800Y-145463200D01*
X160793800Y-138343200D02*
X160793800Y-145463200D01*
X168613800Y-138343200D02*
X168613800Y-145463200D01*
X160553800Y-143963200D02*
X160553800Y-145703200D01*
X160553800Y-145703200D02*
X162053800Y-145703200D01*
X145781387Y-143234585D02*
G75*
G02X145173800Y-143358200I-607587J1431385D01*
G01*
X146605909Y-141195458D02*
G75*
G02X146605800Y-142411200I-1432109J-607742D01*
G01*
X144566058Y-140371091D02*
G75*
G02X145781800Y-140371200I607742J-1432109D01*
G01*
X143741691Y-142410942D02*
G75*
G02X143741800Y-141195200I1432109J607742D01*
G01*
X145200811Y-143358692D02*
G75*
G02X144565800Y-143235200I-27011J1555492D01*
G01*
X150228800Y-141803200D02*
G75*
G03X150228800Y-141803200I-1555000J0D01*
G01*
X143013800Y-143903200D02*
X150833800Y-143903200D01*
X143013800Y-138343200D02*
X150833800Y-138343200D01*
X143013800Y-145463200D02*
X150833800Y-145463200D01*
X143013800Y-138343200D02*
X143013800Y-145463200D01*
X150833800Y-138343200D02*
X150833800Y-145463200D01*
X142773800Y-143963200D02*
X142773800Y-145703200D01*
X142773800Y-145703200D02*
X144273800Y-145703200D01*
X128001387Y-143234585D02*
G75*
G02X127393800Y-143358200I-607587J1431385D01*
G01*
X128825909Y-141195458D02*
G75*
G02X128825800Y-142411200I-1432109J-607742D01*
G01*
X126786058Y-140371091D02*
G75*
G02X128001800Y-140371200I607742J-1432109D01*
G01*
X125961691Y-142410942D02*
G75*
G02X125961800Y-141195200I1432109J607742D01*
G01*
X127420811Y-143358692D02*
G75*
G02X126785800Y-143235200I-27011J1555492D01*
G01*
X132448800Y-141803200D02*
G75*
G03X132448800Y-141803200I-1555000J0D01*
G01*
X125233800Y-143903200D02*
X133053800Y-143903200D01*
X125233800Y-138343200D02*
X133053800Y-138343200D01*
X125233800Y-145463200D02*
X133053800Y-145463200D01*
X125233800Y-138343200D02*
X125233800Y-145463200D01*
X133053800Y-138343200D02*
X133053800Y-145463200D01*
X124993800Y-143963200D02*
X124993800Y-145703200D01*
X124993800Y-145703200D02*
X126493800Y-145703200D01*
X110221387Y-143234585D02*
G75*
G02X109613800Y-143358200I-607587J1431385D01*
G01*
X111045909Y-141195458D02*
G75*
G02X111045800Y-142411200I-1432109J-607742D01*
G01*
X109006058Y-140371091D02*
G75*
G02X110221800Y-140371200I607742J-1432109D01*
G01*
X108181691Y-142410942D02*
G75*
G02X108181800Y-141195200I1432109J607742D01*
G01*
X109640811Y-143358692D02*
G75*
G02X109005800Y-143235200I-27011J1555492D01*
G01*
X114668800Y-141803200D02*
G75*
G03X114668800Y-141803200I-1555000J0D01*
G01*
X107453800Y-143903200D02*
X115273800Y-143903200D01*
X107453800Y-138343200D02*
X115273800Y-138343200D01*
X107453800Y-145463200D02*
X115273800Y-145463200D01*
X107453800Y-138343200D02*
X107453800Y-145463200D01*
X115273800Y-138343200D02*
X115273800Y-145463200D01*
X107213800Y-143963200D02*
X107213800Y-145703200D01*
X107213800Y-145703200D02*
X108713800Y-145703200D01*
X181341387Y-125454585D02*
G75*
G02X180733800Y-125578200I-607587J1431385D01*
G01*
X182165909Y-123415458D02*
G75*
G02X182165800Y-124631200I-1432109J-607742D01*
G01*
X180126058Y-122591091D02*
G75*
G02X181341800Y-122591200I607742J-1432109D01*
G01*
X179301691Y-124630942D02*
G75*
G02X179301800Y-123415200I1432109J607742D01*
G01*
X180760811Y-125578692D02*
G75*
G02X180125800Y-125455200I-27011J1555492D01*
G01*
X185788800Y-124023200D02*
G75*
G03X185788800Y-124023200I-1555000J0D01*
G01*
X178573800Y-126123200D02*
X186393800Y-126123200D01*
X178573800Y-120563200D02*
X186393800Y-120563200D01*
X178573800Y-127683200D02*
X186393800Y-127683200D01*
X178573800Y-120563200D02*
X178573800Y-127683200D01*
X186393800Y-120563200D02*
X186393800Y-127683200D01*
X178333800Y-126183200D02*
X178333800Y-127923200D01*
X178333800Y-127923200D02*
X179833800Y-127923200D01*
X163561387Y-125454585D02*
G75*
G02X162953800Y-125578200I-607587J1431385D01*
G01*
X164385909Y-123415458D02*
G75*
G02X164385800Y-124631200I-1432109J-607742D01*
G01*
X162346058Y-122591091D02*
G75*
G02X163561800Y-122591200I607742J-1432109D01*
G01*
X161521691Y-124630942D02*
G75*
G02X161521800Y-123415200I1432109J607742D01*
G01*
X162980811Y-125578692D02*
G75*
G02X162345800Y-125455200I-27011J1555492D01*
G01*
X168008800Y-124023200D02*
G75*
G03X168008800Y-124023200I-1555000J0D01*
G01*
X160793800Y-126123200D02*
X168613800Y-126123200D01*
X160793800Y-120563200D02*
X168613800Y-120563200D01*
X160793800Y-127683200D02*
X168613800Y-127683200D01*
X160793800Y-120563200D02*
X160793800Y-127683200D01*
X168613800Y-120563200D02*
X168613800Y-127683200D01*
X160553800Y-126183200D02*
X160553800Y-127923200D01*
X160553800Y-127923200D02*
X162053800Y-127923200D01*
X145781387Y-125454585D02*
G75*
G02X145173800Y-125578200I-607587J1431385D01*
G01*
X146605909Y-123415458D02*
G75*
G02X146605800Y-124631200I-1432109J-607742D01*
G01*
X144566058Y-122591091D02*
G75*
G02X145781800Y-122591200I607742J-1432109D01*
G01*
X143741691Y-124630942D02*
G75*
G02X143741800Y-123415200I1432109J607742D01*
G01*
X145200811Y-125578692D02*
G75*
G02X144565800Y-125455200I-27011J1555492D01*
G01*
X150228800Y-124023200D02*
G75*
G03X150228800Y-124023200I-1555000J0D01*
G01*
X143013800Y-126123200D02*
X150833800Y-126123200D01*
X143013800Y-120563200D02*
X150833800Y-120563200D01*
X143013800Y-127683200D02*
X150833800Y-127683200D01*
X143013800Y-120563200D02*
X143013800Y-127683200D01*
X150833800Y-120563200D02*
X150833800Y-127683200D01*
X142773800Y-126183200D02*
X142773800Y-127923200D01*
X142773800Y-127923200D02*
X144273800Y-127923200D01*
X128001387Y-125454585D02*
G75*
G02X127393800Y-125578200I-607587J1431385D01*
G01*
X128825909Y-123415458D02*
G75*
G02X128825800Y-124631200I-1432109J-607742D01*
G01*
X126786058Y-122591091D02*
G75*
G02X128001800Y-122591200I607742J-1432109D01*
G01*
X125961691Y-124630942D02*
G75*
G02X125961800Y-123415200I1432109J607742D01*
G01*
X127420811Y-125578692D02*
G75*
G02X126785800Y-125455200I-27011J1555492D01*
G01*
X132448800Y-124023200D02*
G75*
G03X132448800Y-124023200I-1555000J0D01*
G01*
X125233800Y-126123200D02*
X133053800Y-126123200D01*
X125233800Y-120563200D02*
X133053800Y-120563200D01*
X125233800Y-127683200D02*
X133053800Y-127683200D01*
X125233800Y-120563200D02*
X125233800Y-127683200D01*
X133053800Y-120563200D02*
X133053800Y-127683200D01*
X124993800Y-126183200D02*
X124993800Y-127923200D01*
X124993800Y-127923200D02*
X126493800Y-127923200D01*
X110221387Y-125454585D02*
G75*
G02X109613800Y-125578200I-607587J1431385D01*
G01*
X111045909Y-123415458D02*
G75*
G02X111045800Y-124631200I-1432109J-607742D01*
G01*
X109006058Y-122591091D02*
G75*
G02X110221800Y-122591200I607742J-1432109D01*
G01*
X108181691Y-124630942D02*
G75*
G02X108181800Y-123415200I1432109J607742D01*
G01*
X109640811Y-125578692D02*
G75*
G02X109005800Y-125455200I-27011J1555492D01*
G01*
X114668800Y-124023200D02*
G75*
G03X114668800Y-124023200I-1555000J0D01*
G01*
X107453800Y-126123200D02*
X115273800Y-126123200D01*
X107453800Y-120563200D02*
X115273800Y-120563200D01*
X107453800Y-127683200D02*
X115273800Y-127683200D01*
X107453800Y-120563200D02*
X107453800Y-127683200D01*
X115273800Y-120563200D02*
X115273800Y-127683200D01*
X107213800Y-126183200D02*
X107213800Y-127923200D01*
X107213800Y-127923200D02*
X108713800Y-127923200D01*
X181341387Y-107674585D02*
G75*
G02X180733800Y-107798200I-607587J1431385D01*
G01*
X182165909Y-105635458D02*
G75*
G02X182165800Y-106851200I-1432109J-607742D01*
G01*
X180126058Y-104811091D02*
G75*
G02X181341800Y-104811200I607742J-1432109D01*
G01*
X179301691Y-106850942D02*
G75*
G02X179301800Y-105635200I1432109J607742D01*
G01*
X180760811Y-107798692D02*
G75*
G02X180125800Y-107675200I-27011J1555492D01*
G01*
X185788800Y-106243200D02*
G75*
G03X185788800Y-106243200I-1555000J0D01*
G01*
X178573800Y-108343200D02*
X186393800Y-108343200D01*
X178573800Y-102783200D02*
X186393800Y-102783200D01*
X178573800Y-109903200D02*
X186393800Y-109903200D01*
X178573800Y-102783200D02*
X178573800Y-109903200D01*
X186393800Y-102783200D02*
X186393800Y-109903200D01*
X178333800Y-108403200D02*
X178333800Y-110143200D01*
X178333800Y-110143200D02*
X179833800Y-110143200D01*
X163561387Y-107674585D02*
G75*
G02X162953800Y-107798200I-607587J1431385D01*
G01*
X164385909Y-105635458D02*
G75*
G02X164385800Y-106851200I-1432109J-607742D01*
G01*
X162346058Y-104811091D02*
G75*
G02X163561800Y-104811200I607742J-1432109D01*
G01*
X161521691Y-106850942D02*
G75*
G02X161521800Y-105635200I1432109J607742D01*
G01*
X162980811Y-107798692D02*
G75*
G02X162345800Y-107675200I-27011J1555492D01*
G01*
X168008800Y-106243200D02*
G75*
G03X168008800Y-106243200I-1555000J0D01*
G01*
X160793800Y-108343200D02*
X168613800Y-108343200D01*
X160793800Y-102783200D02*
X168613800Y-102783200D01*
X160793800Y-109903200D02*
X168613800Y-109903200D01*
X160793800Y-102783200D02*
X160793800Y-109903200D01*
X168613800Y-102783200D02*
X168613800Y-109903200D01*
X160553800Y-108403200D02*
X160553800Y-110143200D01*
X160553800Y-110143200D02*
X162053800Y-110143200D01*
X145781387Y-107674585D02*
G75*
G02X145173800Y-107798200I-607587J1431385D01*
G01*
X146605909Y-105635458D02*
G75*
G02X146605800Y-106851200I-1432109J-607742D01*
G01*
X144566058Y-104811091D02*
G75*
G02X145781800Y-104811200I607742J-1432109D01*
G01*
X143741691Y-106850942D02*
G75*
G02X143741800Y-105635200I1432109J607742D01*
G01*
X145200811Y-107798692D02*
G75*
G02X144565800Y-107675200I-27011J1555492D01*
G01*
X150228800Y-106243200D02*
G75*
G03X150228800Y-106243200I-1555000J0D01*
G01*
X143013800Y-108343200D02*
X150833800Y-108343200D01*
X143013800Y-102783200D02*
X150833800Y-102783200D01*
X143013800Y-109903200D02*
X150833800Y-109903200D01*
X143013800Y-102783200D02*
X143013800Y-109903200D01*
X150833800Y-102783200D02*
X150833800Y-109903200D01*
X142773800Y-108403200D02*
X142773800Y-110143200D01*
X142773800Y-110143200D02*
X144273800Y-110143200D01*
X128001387Y-107674585D02*
G75*
G02X127393800Y-107798200I-607587J1431385D01*
G01*
X128825909Y-105635458D02*
G75*
G02X128825800Y-106851200I-1432109J-607742D01*
G01*
X126786058Y-104811091D02*
G75*
G02X128001800Y-104811200I607742J-1432109D01*
G01*
X125961691Y-106850942D02*
G75*
G02X125961800Y-105635200I1432109J607742D01*
G01*
X127420811Y-107798692D02*
G75*
G02X126785800Y-107675200I-27011J1555492D01*
G01*
X132448800Y-106243200D02*
G75*
G03X132448800Y-106243200I-1555000J0D01*
G01*
X125233800Y-108343200D02*
X133053800Y-108343200D01*
X125233800Y-102783200D02*
X133053800Y-102783200D01*
X125233800Y-109903200D02*
X133053800Y-109903200D01*
X125233800Y-102783200D02*
X125233800Y-109903200D01*
X133053800Y-102783200D02*
X133053800Y-109903200D01*
X124993800Y-108403200D02*
X124993800Y-110143200D01*
X124993800Y-110143200D02*
X126493800Y-110143200D01*
X110221387Y-107674585D02*
G75*
G02X109613800Y-107798200I-607587J1431385D01*
G01*
X111045909Y-105635458D02*
G75*
G02X111045800Y-106851200I-1432109J-607742D01*
G01*
X109006058Y-104811091D02*
G75*
G02X110221800Y-104811200I607742J-1432109D01*
G01*
X108181691Y-106850942D02*
G75*
G02X108181800Y-105635200I1432109J607742D01*
G01*
X109640811Y-107798692D02*
G75*
G02X109005800Y-107675200I-27011J1555492D01*
G01*
X114668800Y-106243200D02*
G75*
G03X114668800Y-106243200I-1555000J0D01*
G01*
X107453800Y-108343200D02*
X115273800Y-108343200D01*
X107453800Y-102783200D02*
X115273800Y-102783200D01*
X107453800Y-109903200D02*
X115273800Y-109903200D01*
X107453800Y-102783200D02*
X107453800Y-109903200D01*
X115273800Y-102783200D02*
X115273800Y-109903200D01*
X107213800Y-108403200D02*
X107213800Y-110143200D01*
X107213800Y-110143200D02*
X108713800Y-110143200D01*
X181341387Y-89894585D02*
G75*
G02X180733800Y-90018200I-607587J1431385D01*
G01*
X182165909Y-87855458D02*
G75*
G02X182165800Y-89071200I-1432109J-607742D01*
G01*
X180126058Y-87031091D02*
G75*
G02X181341800Y-87031200I607742J-1432109D01*
G01*
X179301691Y-89070942D02*
G75*
G02X179301800Y-87855200I1432109J607742D01*
G01*
X180760811Y-90018692D02*
G75*
G02X180125800Y-89895200I-27011J1555492D01*
G01*
X185788800Y-88463200D02*
G75*
G03X185788800Y-88463200I-1555000J0D01*
G01*
X178573800Y-90563200D02*
X186393800Y-90563200D01*
X178573800Y-85003200D02*
X186393800Y-85003200D01*
X178573800Y-92123200D02*
X186393800Y-92123200D01*
X178573800Y-85003200D02*
X178573800Y-92123200D01*
X186393800Y-85003200D02*
X186393800Y-92123200D01*
X178333800Y-90623200D02*
X178333800Y-92363200D01*
X178333800Y-92363200D02*
X179833800Y-92363200D01*
X163561387Y-89894585D02*
G75*
G02X162953800Y-90018200I-607587J1431385D01*
G01*
X164385909Y-87855458D02*
G75*
G02X164385800Y-89071200I-1432109J-607742D01*
G01*
X162346058Y-87031091D02*
G75*
G02X163561800Y-87031200I607742J-1432109D01*
G01*
X161521691Y-89070942D02*
G75*
G02X161521800Y-87855200I1432109J607742D01*
G01*
X162980811Y-90018692D02*
G75*
G02X162345800Y-89895200I-27011J1555492D01*
G01*
X168008800Y-88463200D02*
G75*
G03X168008800Y-88463200I-1555000J0D01*
G01*
X160793800Y-90563200D02*
X168613800Y-90563200D01*
X160793800Y-85003200D02*
X168613800Y-85003200D01*
X160793800Y-92123200D02*
X168613800Y-92123200D01*
X160793800Y-85003200D02*
X160793800Y-92123200D01*
X168613800Y-85003200D02*
X168613800Y-92123200D01*
X160553800Y-90623200D02*
X160553800Y-92363200D01*
X160553800Y-92363200D02*
X162053800Y-92363200D01*
X145781387Y-89894585D02*
G75*
G02X145173800Y-90018200I-607587J1431385D01*
G01*
X146605909Y-87855458D02*
G75*
G02X146605800Y-89071200I-1432109J-607742D01*
G01*
X144566058Y-87031091D02*
G75*
G02X145781800Y-87031200I607742J-1432109D01*
G01*
X143741691Y-89070942D02*
G75*
G02X143741800Y-87855200I1432109J607742D01*
G01*
X145200811Y-90018692D02*
G75*
G02X144565800Y-89895200I-27011J1555492D01*
G01*
X150228800Y-88463200D02*
G75*
G03X150228800Y-88463200I-1555000J0D01*
G01*
X143013800Y-90563200D02*
X150833800Y-90563200D01*
X143013800Y-85003200D02*
X150833800Y-85003200D01*
X143013800Y-92123200D02*
X150833800Y-92123200D01*
X143013800Y-85003200D02*
X143013800Y-92123200D01*
X150833800Y-85003200D02*
X150833800Y-92123200D01*
X142773800Y-90623200D02*
X142773800Y-92363200D01*
X142773800Y-92363200D02*
X144273800Y-92363200D01*
X128001387Y-89894585D02*
G75*
G02X127393800Y-90018200I-607587J1431385D01*
G01*
X128825909Y-87855458D02*
G75*
G02X128825800Y-89071200I-1432109J-607742D01*
G01*
X126786058Y-87031091D02*
G75*
G02X128001800Y-87031200I607742J-1432109D01*
G01*
X125961691Y-89070942D02*
G75*
G02X125961800Y-87855200I1432109J607742D01*
G01*
X127420811Y-90018692D02*
G75*
G02X126785800Y-89895200I-27011J1555492D01*
G01*
X132448800Y-88463200D02*
G75*
G03X132448800Y-88463200I-1555000J0D01*
G01*
X125233800Y-90563200D02*
X133053800Y-90563200D01*
X125233800Y-85003200D02*
X133053800Y-85003200D01*
X125233800Y-92123200D02*
X133053800Y-92123200D01*
X125233800Y-85003200D02*
X125233800Y-92123200D01*
X133053800Y-85003200D02*
X133053800Y-92123200D01*
X124993800Y-90623200D02*
X124993800Y-92363200D01*
X124993800Y-92363200D02*
X126493800Y-92363200D01*
X110221387Y-89894585D02*
G75*
G02X109613800Y-90018200I-607587J1431385D01*
G01*
X111045909Y-87855458D02*
G75*
G02X111045800Y-89071200I-1432109J-607742D01*
G01*
X109006058Y-87031091D02*
G75*
G02X110221800Y-87031200I607742J-1432109D01*
G01*
X108181691Y-89070942D02*
G75*
G02X108181800Y-87855200I1432109J607742D01*
G01*
X109640811Y-90018692D02*
G75*
G02X109005800Y-89895200I-27011J1555492D01*
G01*
X114668800Y-88463200D02*
G75*
G03X114668800Y-88463200I-1555000J0D01*
G01*
X107453800Y-90563200D02*
X115273800Y-90563200D01*
X107453800Y-85003200D02*
X115273800Y-85003200D01*
X107453800Y-92123200D02*
X115273800Y-92123200D01*
X107453800Y-85003200D02*
X107453800Y-92123200D01*
X115273800Y-85003200D02*
X115273800Y-92123200D01*
X107213800Y-90623200D02*
X107213800Y-92363200D01*
X107213800Y-92363200D02*
X108713800Y-92363200D01*
X181341387Y-72114585D02*
G75*
G02X180733800Y-72238200I-607587J1431385D01*
G01*
X182165909Y-70075458D02*
G75*
G02X182165800Y-71291200I-1432109J-607742D01*
G01*
X180126058Y-69251091D02*
G75*
G02X181341800Y-69251200I607742J-1432109D01*
G01*
X179301691Y-71290942D02*
G75*
G02X179301800Y-70075200I1432109J607742D01*
G01*
X180760811Y-72238692D02*
G75*
G02X180125800Y-72115200I-27011J1555492D01*
G01*
X185788800Y-70683200D02*
G75*
G03X185788800Y-70683200I-1555000J0D01*
G01*
X178573800Y-72783200D02*
X186393800Y-72783200D01*
X178573800Y-67223200D02*
X186393800Y-67223200D01*
X178573800Y-74343200D02*
X186393800Y-74343200D01*
X178573800Y-67223200D02*
X178573800Y-74343200D01*
X186393800Y-67223200D02*
X186393800Y-74343200D01*
X178333800Y-72843200D02*
X178333800Y-74583200D01*
X178333800Y-74583200D02*
X179833800Y-74583200D01*
X163561387Y-72114585D02*
G75*
G02X162953800Y-72238200I-607587J1431385D01*
G01*
X164385909Y-70075458D02*
G75*
G02X164385800Y-71291200I-1432109J-607742D01*
G01*
X162346058Y-69251091D02*
G75*
G02X163561800Y-69251200I607742J-1432109D01*
G01*
X161521691Y-71290942D02*
G75*
G02X161521800Y-70075200I1432109J607742D01*
G01*
X162980811Y-72238692D02*
G75*
G02X162345800Y-72115200I-27011J1555492D01*
G01*
X168008800Y-70683200D02*
G75*
G03X168008800Y-70683200I-1555000J0D01*
G01*
X160793800Y-72783200D02*
X168613800Y-72783200D01*
X160793800Y-67223200D02*
X168613800Y-67223200D01*
X160793800Y-74343200D02*
X168613800Y-74343200D01*
X160793800Y-67223200D02*
X160793800Y-74343200D01*
X168613800Y-67223200D02*
X168613800Y-74343200D01*
X160553800Y-72843200D02*
X160553800Y-74583200D01*
X160553800Y-74583200D02*
X162053800Y-74583200D01*
X145781387Y-72114585D02*
G75*
G02X145173800Y-72238200I-607587J1431385D01*
G01*
X146605909Y-70075458D02*
G75*
G02X146605800Y-71291200I-1432109J-607742D01*
G01*
X144566058Y-69251091D02*
G75*
G02X145781800Y-69251200I607742J-1432109D01*
G01*
X143741691Y-71290942D02*
G75*
G02X143741800Y-70075200I1432109J607742D01*
G01*
X145200811Y-72238692D02*
G75*
G02X144565800Y-72115200I-27011J1555492D01*
G01*
X150228800Y-70683200D02*
G75*
G03X150228800Y-70683200I-1555000J0D01*
G01*
X143013800Y-72783200D02*
X150833800Y-72783200D01*
X143013800Y-67223200D02*
X150833800Y-67223200D01*
X143013800Y-74343200D02*
X150833800Y-74343200D01*
X143013800Y-67223200D02*
X143013800Y-74343200D01*
X150833800Y-67223200D02*
X150833800Y-74343200D01*
X142773800Y-72843200D02*
X142773800Y-74583200D01*
X142773800Y-74583200D02*
X144273800Y-74583200D01*
X128001387Y-72114585D02*
G75*
G02X127393800Y-72238200I-607587J1431385D01*
G01*
X128825909Y-70075458D02*
G75*
G02X128825800Y-71291200I-1432109J-607742D01*
G01*
X126786058Y-69251091D02*
G75*
G02X128001800Y-69251200I607742J-1432109D01*
G01*
X125961691Y-71290942D02*
G75*
G02X125961800Y-70075200I1432109J607742D01*
G01*
X127420811Y-72238692D02*
G75*
G02X126785800Y-72115200I-27011J1555492D01*
G01*
X132448800Y-70683200D02*
G75*
G03X132448800Y-70683200I-1555000J0D01*
G01*
X125233800Y-72783200D02*
X133053800Y-72783200D01*
X125233800Y-67223200D02*
X133053800Y-67223200D01*
X125233800Y-74343200D02*
X133053800Y-74343200D01*
X125233800Y-67223200D02*
X125233800Y-74343200D01*
X133053800Y-67223200D02*
X133053800Y-74343200D01*
X124993800Y-72843200D02*
X124993800Y-74583200D01*
X124993800Y-74583200D02*
X126493800Y-74583200D01*
X183626213Y-130902615D02*
G75*
G02X184233800Y-130779000I607587J-1431385D01*
G01*
X182801691Y-132941742D02*
G75*
G02X182801800Y-131726000I1432109J607742D01*
G01*
X184841542Y-133766109D02*
G75*
G02X183625800Y-133766000I-607742J1432109D01*
G01*
X185665909Y-131726258D02*
G75*
G02X185665800Y-132942000I-1432109J-607742D01*
G01*
X184206789Y-130778508D02*
G75*
G02X184841800Y-130902000I27011J-1555492D01*
G01*
X182288800Y-132334000D02*
G75*
G03X182288800Y-132334000I-1555000J0D01*
G01*
X186393800Y-130234000D02*
X178573800Y-130234000D01*
X186393800Y-135794000D02*
X178573800Y-135794000D01*
X186393800Y-128674000D02*
X178573800Y-128674000D01*
X186393800Y-135794000D02*
X186393800Y-128674000D01*
X178573800Y-135794000D02*
X178573800Y-128674000D01*
X186633800Y-130174000D02*
X186633800Y-128434000D01*
X186633800Y-128434000D02*
X185133800Y-128434000D01*
X165846213Y-130902615D02*
G75*
G02X166453800Y-130779000I607587J-1431385D01*
G01*
X165021691Y-132941742D02*
G75*
G02X165021800Y-131726000I1432109J607742D01*
G01*
X167061542Y-133766109D02*
G75*
G02X165845800Y-133766000I-607742J1432109D01*
G01*
X167885909Y-131726258D02*
G75*
G02X167885800Y-132942000I-1432109J-607742D01*
G01*
X166426789Y-130778508D02*
G75*
G02X167061800Y-130902000I27011J-1555492D01*
G01*
X164508800Y-132334000D02*
G75*
G03X164508800Y-132334000I-1555000J0D01*
G01*
X168613800Y-130234000D02*
X160793800Y-130234000D01*
X168613800Y-135794000D02*
X160793800Y-135794000D01*
X168613800Y-128674000D02*
X160793800Y-128674000D01*
X168613800Y-135794000D02*
X168613800Y-128674000D01*
X160793800Y-135794000D02*
X160793800Y-128674000D01*
X168853800Y-130174000D02*
X168853800Y-128434000D01*
X168853800Y-128434000D02*
X167353800Y-128434000D01*
X148066213Y-130902615D02*
G75*
G02X148673800Y-130779000I607587J-1431385D01*
G01*
X147241691Y-132941742D02*
G75*
G02X147241800Y-131726000I1432109J607742D01*
G01*
X149281542Y-133766109D02*
G75*
G02X148065800Y-133766000I-607742J1432109D01*
G01*
X150105909Y-131726258D02*
G75*
G02X150105800Y-132942000I-1432109J-607742D01*
G01*
X148646789Y-130778508D02*
G75*
G02X149281800Y-130902000I27011J-1555492D01*
G01*
X146728800Y-132334000D02*
G75*
G03X146728800Y-132334000I-1555000J0D01*
G01*
X150833800Y-130234000D02*
X143013800Y-130234000D01*
X150833800Y-135794000D02*
X143013800Y-135794000D01*
X150833800Y-128674000D02*
X143013800Y-128674000D01*
X150833800Y-135794000D02*
X150833800Y-128674000D01*
X143013800Y-135794000D02*
X143013800Y-128674000D01*
X151073800Y-130174000D02*
X151073800Y-128434000D01*
X151073800Y-128434000D02*
X149573800Y-128434000D01*
X130286213Y-130902615D02*
G75*
G02X130893800Y-130779000I607587J-1431385D01*
G01*
X129461691Y-132941742D02*
G75*
G02X129461800Y-131726000I1432109J607742D01*
G01*
X131501542Y-133766109D02*
G75*
G02X130285800Y-133766000I-607742J1432109D01*
G01*
X132325909Y-131726258D02*
G75*
G02X132325800Y-132942000I-1432109J-607742D01*
G01*
X130866789Y-130778508D02*
G75*
G02X131501800Y-130902000I27011J-1555492D01*
G01*
X128948800Y-132334000D02*
G75*
G03X128948800Y-132334000I-1555000J0D01*
G01*
X133053800Y-130234000D02*
X125233800Y-130234000D01*
X133053800Y-135794000D02*
X125233800Y-135794000D01*
X133053800Y-128674000D02*
X125233800Y-128674000D01*
X133053800Y-135794000D02*
X133053800Y-128674000D01*
X125233800Y-135794000D02*
X125233800Y-128674000D01*
X133293800Y-130174000D02*
X133293800Y-128434000D01*
X133293800Y-128434000D02*
X131793800Y-128434000D01*
X112506213Y-130902615D02*
G75*
G02X113113800Y-130779000I607587J-1431385D01*
G01*
X111681691Y-132941742D02*
G75*
G02X111681800Y-131726000I1432109J607742D01*
G01*
X113721542Y-133766109D02*
G75*
G02X112505800Y-133766000I-607742J1432109D01*
G01*
X114545909Y-131726258D02*
G75*
G02X114545800Y-132942000I-1432109J-607742D01*
G01*
X113086789Y-130778508D02*
G75*
G02X113721800Y-130902000I27011J-1555492D01*
G01*
X111168800Y-132334000D02*
G75*
G03X111168800Y-132334000I-1555000J0D01*
G01*
X115273800Y-130234000D02*
X107453800Y-130234000D01*
X115273800Y-135794000D02*
X107453800Y-135794000D01*
X115273800Y-128674000D02*
X107453800Y-128674000D01*
X115273800Y-135794000D02*
X115273800Y-128674000D01*
X107453800Y-135794000D02*
X107453800Y-128674000D01*
X115513800Y-130174000D02*
X115513800Y-128434000D01*
X115513800Y-128434000D02*
X114013800Y-128434000D01*
X183626213Y-113122615D02*
G75*
G02X184233800Y-112999000I607587J-1431385D01*
G01*
X182801691Y-115161742D02*
G75*
G02X182801800Y-113946000I1432109J607742D01*
G01*
X184841542Y-115986109D02*
G75*
G02X183625800Y-115986000I-607742J1432109D01*
G01*
X185665909Y-113946258D02*
G75*
G02X185665800Y-115162000I-1432109J-607742D01*
G01*
X184206789Y-112998508D02*
G75*
G02X184841800Y-113122000I27011J-1555492D01*
G01*
X182288800Y-114554000D02*
G75*
G03X182288800Y-114554000I-1555000J0D01*
G01*
X186393800Y-112454000D02*
X178573800Y-112454000D01*
X186393800Y-118014000D02*
X178573800Y-118014000D01*
X186393800Y-110894000D02*
X178573800Y-110894000D01*
X186393800Y-118014000D02*
X186393800Y-110894000D01*
X178573800Y-118014000D02*
X178573800Y-110894000D01*
X186633800Y-112394000D02*
X186633800Y-110654000D01*
X186633800Y-110654000D02*
X185133800Y-110654000D01*
X165846213Y-113122615D02*
G75*
G02X166453800Y-112999000I607587J-1431385D01*
G01*
X165021691Y-115161742D02*
G75*
G02X165021800Y-113946000I1432109J607742D01*
G01*
X167061542Y-115986109D02*
G75*
G02X165845800Y-115986000I-607742J1432109D01*
G01*
X167885909Y-113946258D02*
G75*
G02X167885800Y-115162000I-1432109J-607742D01*
G01*
X166426789Y-112998508D02*
G75*
G02X167061800Y-113122000I27011J-1555492D01*
G01*
X164508800Y-114554000D02*
G75*
G03X164508800Y-114554000I-1555000J0D01*
G01*
X168613800Y-112454000D02*
X160793800Y-112454000D01*
X168613800Y-118014000D02*
X160793800Y-118014000D01*
X168613800Y-110894000D02*
X160793800Y-110894000D01*
X168613800Y-118014000D02*
X168613800Y-110894000D01*
X160793800Y-118014000D02*
X160793800Y-110894000D01*
X168853800Y-112394000D02*
X168853800Y-110654000D01*
X168853800Y-110654000D02*
X167353800Y-110654000D01*
X148066213Y-113122615D02*
G75*
G02X148673800Y-112999000I607587J-1431385D01*
G01*
X147241691Y-115161742D02*
G75*
G02X147241800Y-113946000I1432109J607742D01*
G01*
X149281542Y-115986109D02*
G75*
G02X148065800Y-115986000I-607742J1432109D01*
G01*
X150105909Y-113946258D02*
G75*
G02X150105800Y-115162000I-1432109J-607742D01*
G01*
X148646789Y-112998508D02*
G75*
G02X149281800Y-113122000I27011J-1555492D01*
G01*
X146728800Y-114554000D02*
G75*
G03X146728800Y-114554000I-1555000J0D01*
G01*
X150833800Y-112454000D02*
X143013800Y-112454000D01*
X150833800Y-118014000D02*
X143013800Y-118014000D01*
X150833800Y-110894000D02*
X143013800Y-110894000D01*
X150833800Y-118014000D02*
X150833800Y-110894000D01*
X143013800Y-118014000D02*
X143013800Y-110894000D01*
X151073800Y-112394000D02*
X151073800Y-110654000D01*
X151073800Y-110654000D02*
X149573800Y-110654000D01*
X130286213Y-113122615D02*
G75*
G02X130893800Y-112999000I607587J-1431385D01*
G01*
X129461691Y-115161742D02*
G75*
G02X129461800Y-113946000I1432109J607742D01*
G01*
X131501542Y-115986109D02*
G75*
G02X130285800Y-115986000I-607742J1432109D01*
G01*
X132325909Y-113946258D02*
G75*
G02X132325800Y-115162000I-1432109J-607742D01*
G01*
X130866789Y-112998508D02*
G75*
G02X131501800Y-113122000I27011J-1555492D01*
G01*
X128948800Y-114554000D02*
G75*
G03X128948800Y-114554000I-1555000J0D01*
G01*
X133053800Y-112454000D02*
X125233800Y-112454000D01*
X133053800Y-118014000D02*
X125233800Y-118014000D01*
X133053800Y-110894000D02*
X125233800Y-110894000D01*
X133053800Y-118014000D02*
X133053800Y-110894000D01*
X125233800Y-118014000D02*
X125233800Y-110894000D01*
X133293800Y-112394000D02*
X133293800Y-110654000D01*
X133293800Y-110654000D02*
X131793800Y-110654000D01*
X112506213Y-113122615D02*
G75*
G02X113113800Y-112999000I607587J-1431385D01*
G01*
X111681691Y-115161742D02*
G75*
G02X111681800Y-113946000I1432109J607742D01*
G01*
X113721542Y-115986109D02*
G75*
G02X112505800Y-115986000I-607742J1432109D01*
G01*
X114545909Y-113946258D02*
G75*
G02X114545800Y-115162000I-1432109J-607742D01*
G01*
X113086789Y-112998508D02*
G75*
G02X113721800Y-113122000I27011J-1555492D01*
G01*
X111168800Y-114554000D02*
G75*
G03X111168800Y-114554000I-1555000J0D01*
G01*
X115273800Y-112454000D02*
X107453800Y-112454000D01*
X115273800Y-118014000D02*
X107453800Y-118014000D01*
X115273800Y-110894000D02*
X107453800Y-110894000D01*
X115273800Y-118014000D02*
X115273800Y-110894000D01*
X107453800Y-118014000D02*
X107453800Y-110894000D01*
X115513800Y-112394000D02*
X115513800Y-110654000D01*
X115513800Y-110654000D02*
X114013800Y-110654000D01*
X183626213Y-95342615D02*
G75*
G02X184233800Y-95219000I607587J-1431385D01*
G01*
X182801691Y-97381742D02*
G75*
G02X182801800Y-96166000I1432109J607742D01*
G01*
X184841542Y-98206109D02*
G75*
G02X183625800Y-98206000I-607742J1432109D01*
G01*
X185665909Y-96166258D02*
G75*
G02X185665800Y-97382000I-1432109J-607742D01*
G01*
X184206789Y-95218508D02*
G75*
G02X184841800Y-95342000I27011J-1555492D01*
G01*
X182288800Y-96774000D02*
G75*
G03X182288800Y-96774000I-1555000J0D01*
G01*
X186393800Y-94674000D02*
X178573800Y-94674000D01*
X186393800Y-100234000D02*
X178573800Y-100234000D01*
X186393800Y-93114000D02*
X178573800Y-93114000D01*
X186393800Y-100234000D02*
X186393800Y-93114000D01*
X178573800Y-100234000D02*
X178573800Y-93114000D01*
X186633800Y-94614000D02*
X186633800Y-92874000D01*
X186633800Y-92874000D02*
X185133800Y-92874000D01*
X165846213Y-95342615D02*
G75*
G02X166453800Y-95219000I607587J-1431385D01*
G01*
X165021691Y-97381742D02*
G75*
G02X165021800Y-96166000I1432109J607742D01*
G01*
X167061542Y-98206109D02*
G75*
G02X165845800Y-98206000I-607742J1432109D01*
G01*
X167885909Y-96166258D02*
G75*
G02X167885800Y-97382000I-1432109J-607742D01*
G01*
X166426789Y-95218508D02*
G75*
G02X167061800Y-95342000I27011J-1555492D01*
G01*
X164508800Y-96774000D02*
G75*
G03X164508800Y-96774000I-1555000J0D01*
G01*
X168613800Y-94674000D02*
X160793800Y-94674000D01*
X168613800Y-100234000D02*
X160793800Y-100234000D01*
X168613800Y-93114000D02*
X160793800Y-93114000D01*
X168613800Y-100234000D02*
X168613800Y-93114000D01*
X160793800Y-100234000D02*
X160793800Y-93114000D01*
X168853800Y-94614000D02*
X168853800Y-92874000D01*
X168853800Y-92874000D02*
X167353800Y-92874000D01*
X148066213Y-95342615D02*
G75*
G02X148673800Y-95219000I607587J-1431385D01*
G01*
X147241691Y-97381742D02*
G75*
G02X147241800Y-96166000I1432109J607742D01*
G01*
X149281542Y-98206109D02*
G75*
G02X148065800Y-98206000I-607742J1432109D01*
G01*
X150105909Y-96166258D02*
G75*
G02X150105800Y-97382000I-1432109J-607742D01*
G01*
X148646789Y-95218508D02*
G75*
G02X149281800Y-95342000I27011J-1555492D01*
G01*
X146728800Y-96774000D02*
G75*
G03X146728800Y-96774000I-1555000J0D01*
G01*
X150833800Y-94674000D02*
X143013800Y-94674000D01*
X150833800Y-100234000D02*
X143013800Y-100234000D01*
X150833800Y-93114000D02*
X143013800Y-93114000D01*
X150833800Y-100234000D02*
X150833800Y-93114000D01*
X143013800Y-100234000D02*
X143013800Y-93114000D01*
X151073800Y-94614000D02*
X151073800Y-92874000D01*
X151073800Y-92874000D02*
X149573800Y-92874000D01*
X130286213Y-95342615D02*
G75*
G02X130893800Y-95219000I607587J-1431385D01*
G01*
X129461691Y-97381742D02*
G75*
G02X129461800Y-96166000I1432109J607742D01*
G01*
X131501542Y-98206109D02*
G75*
G02X130285800Y-98206000I-607742J1432109D01*
G01*
X132325909Y-96166258D02*
G75*
G02X132325800Y-97382000I-1432109J-607742D01*
G01*
X130866789Y-95218508D02*
G75*
G02X131501800Y-95342000I27011J-1555492D01*
G01*
X128948800Y-96774000D02*
G75*
G03X128948800Y-96774000I-1555000J0D01*
G01*
X133053800Y-94674000D02*
X125233800Y-94674000D01*
X133053800Y-100234000D02*
X125233800Y-100234000D01*
X133053800Y-93114000D02*
X125233800Y-93114000D01*
X133053800Y-100234000D02*
X133053800Y-93114000D01*
X125233800Y-100234000D02*
X125233800Y-93114000D01*
X133293800Y-94614000D02*
X133293800Y-92874000D01*
X133293800Y-92874000D02*
X131793800Y-92874000D01*
X112506213Y-95342615D02*
G75*
G02X113113800Y-95219000I607587J-1431385D01*
G01*
X111681691Y-97381742D02*
G75*
G02X111681800Y-96166000I1432109J607742D01*
G01*
X113721542Y-98206109D02*
G75*
G02X112505800Y-98206000I-607742J1432109D01*
G01*
X114545909Y-96166258D02*
G75*
G02X114545800Y-97382000I-1432109J-607742D01*
G01*
X113086789Y-95218508D02*
G75*
G02X113721800Y-95342000I27011J-1555492D01*
G01*
X111168800Y-96774000D02*
G75*
G03X111168800Y-96774000I-1555000J0D01*
G01*
X115273800Y-94674000D02*
X107453800Y-94674000D01*
X115273800Y-100234000D02*
X107453800Y-100234000D01*
X115273800Y-93114000D02*
X107453800Y-93114000D01*
X115273800Y-100234000D02*
X115273800Y-93114000D01*
X107453800Y-100234000D02*
X107453800Y-93114000D01*
X115513800Y-94614000D02*
X115513800Y-92874000D01*
X115513800Y-92874000D02*
X114013800Y-92874000D01*
X183626213Y-77562615D02*
G75*
G02X184233800Y-77439000I607587J-1431385D01*
G01*
X182801691Y-79601742D02*
G75*
G02X182801800Y-78386000I1432109J607742D01*
G01*
X184841542Y-80426109D02*
G75*
G02X183625800Y-80426000I-607742J1432109D01*
G01*
X185665909Y-78386258D02*
G75*
G02X185665800Y-79602000I-1432109J-607742D01*
G01*
X184206789Y-77438508D02*
G75*
G02X184841800Y-77562000I27011J-1555492D01*
G01*
X182288800Y-78994000D02*
G75*
G03X182288800Y-78994000I-1555000J0D01*
G01*
X186393800Y-76894000D02*
X178573800Y-76894000D01*
X186393800Y-82454000D02*
X178573800Y-82454000D01*
X186393800Y-75334000D02*
X178573800Y-75334000D01*
X186393800Y-82454000D02*
X186393800Y-75334000D01*
X178573800Y-82454000D02*
X178573800Y-75334000D01*
X186633800Y-76834000D02*
X186633800Y-75094000D01*
X186633800Y-75094000D02*
X185133800Y-75094000D01*
X165846213Y-77562615D02*
G75*
G02X166453800Y-77439000I607587J-1431385D01*
G01*
X165021691Y-79601742D02*
G75*
G02X165021800Y-78386000I1432109J607742D01*
G01*
X167061542Y-80426109D02*
G75*
G02X165845800Y-80426000I-607742J1432109D01*
G01*
X167885909Y-78386258D02*
G75*
G02X167885800Y-79602000I-1432109J-607742D01*
G01*
X166426789Y-77438508D02*
G75*
G02X167061800Y-77562000I27011J-1555492D01*
G01*
X164508800Y-78994000D02*
G75*
G03X164508800Y-78994000I-1555000J0D01*
G01*
X168613800Y-76894000D02*
X160793800Y-76894000D01*
X168613800Y-82454000D02*
X160793800Y-82454000D01*
X168613800Y-75334000D02*
X160793800Y-75334000D01*
X168613800Y-82454000D02*
X168613800Y-75334000D01*
X160793800Y-82454000D02*
X160793800Y-75334000D01*
X168853800Y-76834000D02*
X168853800Y-75094000D01*
X168853800Y-75094000D02*
X167353800Y-75094000D01*
X148066213Y-77562615D02*
G75*
G02X148673800Y-77439000I607587J-1431385D01*
G01*
X147241691Y-79601742D02*
G75*
G02X147241800Y-78386000I1432109J607742D01*
G01*
X149281542Y-80426109D02*
G75*
G02X148065800Y-80426000I-607742J1432109D01*
G01*
X150105909Y-78386258D02*
G75*
G02X150105800Y-79602000I-1432109J-607742D01*
G01*
X148646789Y-77438508D02*
G75*
G02X149281800Y-77562000I27011J-1555492D01*
G01*
X146728800Y-78994000D02*
G75*
G03X146728800Y-78994000I-1555000J0D01*
G01*
X150833800Y-76894000D02*
X143013800Y-76894000D01*
X150833800Y-82454000D02*
X143013800Y-82454000D01*
X150833800Y-75334000D02*
X143013800Y-75334000D01*
X150833800Y-82454000D02*
X150833800Y-75334000D01*
X143013800Y-82454000D02*
X143013800Y-75334000D01*
X151073800Y-76834000D02*
X151073800Y-75094000D01*
X151073800Y-75094000D02*
X149573800Y-75094000D01*
X130286213Y-77562615D02*
G75*
G02X130893800Y-77439000I607587J-1431385D01*
G01*
X129461691Y-79601742D02*
G75*
G02X129461800Y-78386000I1432109J607742D01*
G01*
X131501542Y-80426109D02*
G75*
G02X130285800Y-80426000I-607742J1432109D01*
G01*
X132325909Y-78386258D02*
G75*
G02X132325800Y-79602000I-1432109J-607742D01*
G01*
X130866789Y-77438508D02*
G75*
G02X131501800Y-77562000I27011J-1555492D01*
G01*
X128948800Y-78994000D02*
G75*
G03X128948800Y-78994000I-1555000J0D01*
G01*
X133053800Y-76894000D02*
X125233800Y-76894000D01*
X133053800Y-82454000D02*
X125233800Y-82454000D01*
X133053800Y-75334000D02*
X125233800Y-75334000D01*
X133053800Y-82454000D02*
X133053800Y-75334000D01*
X125233800Y-82454000D02*
X125233800Y-75334000D01*
X133293800Y-76834000D02*
X133293800Y-75094000D01*
X133293800Y-75094000D02*
X131793800Y-75094000D01*
X112506213Y-77562615D02*
G75*
G02X113113800Y-77439000I607587J-1431385D01*
G01*
X111681691Y-79601742D02*
G75*
G02X111681800Y-78386000I1432109J607742D01*
G01*
X113721542Y-80426109D02*
G75*
G02X112505800Y-80426000I-607742J1432109D01*
G01*
X114545909Y-78386258D02*
G75*
G02X114545800Y-79602000I-1432109J-607742D01*
G01*
X113086789Y-77438508D02*
G75*
G02X113721800Y-77562000I27011J-1555492D01*
G01*
X111168800Y-78994000D02*
G75*
G03X111168800Y-78994000I-1555000J0D01*
G01*
X115273800Y-76894000D02*
X107453800Y-76894000D01*
X115273800Y-82454000D02*
X107453800Y-82454000D01*
X115273800Y-75334000D02*
X107453800Y-75334000D01*
X115273800Y-82454000D02*
X115273800Y-75334000D01*
X107453800Y-82454000D02*
X107453800Y-75334000D01*
X115513800Y-76834000D02*
X115513800Y-75094000D01*
X115513800Y-75094000D02*
X114013800Y-75094000D01*
X183626213Y-59782615D02*
G75*
G02X184233800Y-59659000I607587J-1431385D01*
G01*
X182801691Y-61821742D02*
G75*
G02X182801800Y-60606000I1432109J607742D01*
G01*
X184841542Y-62646109D02*
G75*
G02X183625800Y-62646000I-607742J1432109D01*
G01*
X185665909Y-60606258D02*
G75*
G02X185665800Y-61822000I-1432109J-607742D01*
G01*
X184206789Y-59658508D02*
G75*
G02X184841800Y-59782000I27011J-1555492D01*
G01*
X182288800Y-61214000D02*
G75*
G03X182288800Y-61214000I-1555000J0D01*
G01*
X186393800Y-59114000D02*
X178573800Y-59114000D01*
X186393800Y-64674000D02*
X178573800Y-64674000D01*
X186393800Y-57554000D02*
X178573800Y-57554000D01*
X186393800Y-64674000D02*
X186393800Y-57554000D01*
X178573800Y-64674000D02*
X178573800Y-57554000D01*
X186633800Y-59054000D02*
X186633800Y-57314000D01*
X186633800Y-57314000D02*
X185133800Y-57314000D01*
X165846213Y-59782615D02*
G75*
G02X166453800Y-59659000I607587J-1431385D01*
G01*
X165021691Y-61821742D02*
G75*
G02X165021800Y-60606000I1432109J607742D01*
G01*
X167061542Y-62646109D02*
G75*
G02X165845800Y-62646000I-607742J1432109D01*
G01*
X167885909Y-60606258D02*
G75*
G02X167885800Y-61822000I-1432109J-607742D01*
G01*
X166426789Y-59658508D02*
G75*
G02X167061800Y-59782000I27011J-1555492D01*
G01*
X164508800Y-61214000D02*
G75*
G03X164508800Y-61214000I-1555000J0D01*
G01*
X168613800Y-59114000D02*
X160793800Y-59114000D01*
X168613800Y-64674000D02*
X160793800Y-64674000D01*
X168613800Y-57554000D02*
X160793800Y-57554000D01*
X168613800Y-64674000D02*
X168613800Y-57554000D01*
X160793800Y-64674000D02*
X160793800Y-57554000D01*
X168853800Y-59054000D02*
X168853800Y-57314000D01*
X168853800Y-57314000D02*
X167353800Y-57314000D01*
X148066213Y-59782615D02*
G75*
G02X148673800Y-59659000I607587J-1431385D01*
G01*
X147241691Y-61821742D02*
G75*
G02X147241800Y-60606000I1432109J607742D01*
G01*
X149281542Y-62646109D02*
G75*
G02X148065800Y-62646000I-607742J1432109D01*
G01*
X150105909Y-60606258D02*
G75*
G02X150105800Y-61822000I-1432109J-607742D01*
G01*
X148646789Y-59658508D02*
G75*
G02X149281800Y-59782000I27011J-1555492D01*
G01*
X146728800Y-61214000D02*
G75*
G03X146728800Y-61214000I-1555000J0D01*
G01*
X150833800Y-59114000D02*
X143013800Y-59114000D01*
X150833800Y-64674000D02*
X143013800Y-64674000D01*
X150833800Y-57554000D02*
X143013800Y-57554000D01*
X150833800Y-64674000D02*
X150833800Y-57554000D01*
X143013800Y-64674000D02*
X143013800Y-57554000D01*
X151073800Y-59054000D02*
X151073800Y-57314000D01*
X151073800Y-57314000D02*
X149573800Y-57314000D01*
X130286213Y-59782615D02*
G75*
G02X130893800Y-59659000I607587J-1431385D01*
G01*
X129461691Y-61821742D02*
G75*
G02X129461800Y-60606000I1432109J607742D01*
G01*
X131501542Y-62646109D02*
G75*
G02X130285800Y-62646000I-607742J1432109D01*
G01*
X132325909Y-60606258D02*
G75*
G02X132325800Y-61822000I-1432109J-607742D01*
G01*
X130866789Y-59658508D02*
G75*
G02X131501800Y-59782000I27011J-1555492D01*
G01*
X128948800Y-61214000D02*
G75*
G03X128948800Y-61214000I-1555000J0D01*
G01*
X133053800Y-59114000D02*
X125233800Y-59114000D01*
X133053800Y-64674000D02*
X125233800Y-64674000D01*
X133053800Y-57554000D02*
X125233800Y-57554000D01*
X133053800Y-64674000D02*
X133053800Y-57554000D01*
X125233800Y-64674000D02*
X125233800Y-57554000D01*
X133293800Y-59054000D02*
X133293800Y-57314000D01*
X133293800Y-57314000D02*
X131793800Y-57314000D01*
X107213800Y-74583200D02*
X108713800Y-74583200D01*
X107213800Y-72843200D02*
X107213800Y-74583200D01*
X115273800Y-67223200D02*
X115273800Y-74343200D01*
X107453800Y-67223200D02*
X107453800Y-74343200D01*
X107453800Y-74343200D02*
X115273800Y-74343200D01*
X107453800Y-67223200D02*
X115273800Y-67223200D01*
X107453800Y-72783200D02*
X115273800Y-72783200D01*
X114668800Y-70683200D02*
G75*
G03X114668800Y-70683200I-1555000J0D01*
G01*
X109640811Y-72238692D02*
G75*
G02X109005800Y-72115200I-27011J1555492D01*
G01*
X108181691Y-71290942D02*
G75*
G02X108181800Y-70075200I1432109J607742D01*
G01*
X109006058Y-69251091D02*
G75*
G02X110221800Y-69251200I607742J-1432109D01*
G01*
X111045909Y-70075458D02*
G75*
G02X111045800Y-71291200I-1432109J-607742D01*
G01*
X110221387Y-72114585D02*
G75*
G02X109613800Y-72238200I-607587J1431385D01*
G01*
X115513800Y-57314000D02*
X114013800Y-57314000D01*
X115513800Y-59054000D02*
X115513800Y-57314000D01*
X107453800Y-64674000D02*
X107453800Y-57554000D01*
X115273800Y-64674000D02*
X115273800Y-57554000D01*
X115273800Y-57554000D02*
X107453800Y-57554000D01*
X115273800Y-64674000D02*
X107453800Y-64674000D01*
X115273800Y-59114000D02*
X107453800Y-59114000D01*
X111168800Y-61214000D02*
G75*
G03X111168800Y-61214000I-1555000J0D01*
G01*
X113086789Y-59658508D02*
G75*
G02X113721800Y-59782000I27011J-1555492D01*
G01*
X114545909Y-60606258D02*
G75*
G02X114545800Y-61822000I-1432109J-607742D01*
G01*
X113721542Y-62646109D02*
G75*
G02X112505800Y-62646000I-607742J1432109D01*
G01*
X111681691Y-61821742D02*
G75*
G02X111681800Y-60606000I1432109J607742D01*
G01*
X112506213Y-59782615D02*
G75*
G02X113113800Y-59659000I607587J-1431385D01*
G01*
M02*
