G04 #@! TF.GenerationSoftware,KiCad,Pcbnew,5.1.5+dfsg1-2build2*
G04 #@! TF.CreationDate,2021-09-29T17:25:42-05:00*
G04 #@! TF.ProjectId,C13,4331332e-6b69-4636-9164-5f7063625858,rev?*
G04 #@! TF.SameCoordinates,Original*
G04 #@! TF.FileFunction,Soldermask,Top*
G04 #@! TF.FilePolarity,Negative*
%FSLAX46Y46*%
G04 Gerber Fmt 4.6, Leading zero omitted, Abs format (unit mm)*
G04 Created by KiCad (PCBNEW 5.1.5+dfsg1-2build2) date 2021-09-29 17:25:42*
%MOMM*%
%LPD*%
G04 APERTURE LIST*
%ADD10C,0.100000*%
G04 APERTURE END LIST*
D10*
G36*
X64752585Y-42608802D02*
G01*
X64902410Y-42638604D01*
X65184674Y-42755521D01*
X65438705Y-42925259D01*
X65654741Y-43141295D01*
X65824479Y-43395326D01*
X65889749Y-43552903D01*
X65941396Y-43677591D01*
X66001000Y-43977239D01*
X66001000Y-44282761D01*
X65979485Y-44390925D01*
X65941396Y-44582410D01*
X65824479Y-44864674D01*
X65654741Y-45118705D01*
X65438705Y-45334741D01*
X65184674Y-45504479D01*
X64902410Y-45621396D01*
X64752585Y-45651198D01*
X64602761Y-45681000D01*
X64297239Y-45681000D01*
X64147415Y-45651198D01*
X63997590Y-45621396D01*
X63715326Y-45504479D01*
X63461295Y-45334741D01*
X63245259Y-45118705D01*
X63075521Y-44864674D01*
X62958604Y-44582410D01*
X62920515Y-44390925D01*
X62899000Y-44282761D01*
X62899000Y-43977239D01*
X62958604Y-43677591D01*
X63010251Y-43552903D01*
X63075521Y-43395326D01*
X63245259Y-43141295D01*
X63461295Y-42925259D01*
X63715326Y-42755521D01*
X63997590Y-42638604D01*
X64147415Y-42608802D01*
X64297239Y-42579000D01*
X64602761Y-42579000D01*
X64752585Y-42608802D01*
G37*
G36*
X24112585Y-42608802D02*
G01*
X24262410Y-42638604D01*
X24544674Y-42755521D01*
X24798705Y-42925259D01*
X25014741Y-43141295D01*
X25184479Y-43395326D01*
X25249749Y-43552903D01*
X25301396Y-43677591D01*
X25361000Y-43977239D01*
X25361000Y-44282761D01*
X25339485Y-44390925D01*
X25301396Y-44582410D01*
X25184479Y-44864674D01*
X25014741Y-45118705D01*
X24798705Y-45334741D01*
X24544674Y-45504479D01*
X24262410Y-45621396D01*
X24112585Y-45651198D01*
X23962761Y-45681000D01*
X23657239Y-45681000D01*
X23507415Y-45651198D01*
X23357590Y-45621396D01*
X23075326Y-45504479D01*
X22821295Y-45334741D01*
X22605259Y-45118705D01*
X22435521Y-44864674D01*
X22318604Y-44582410D01*
X22280515Y-44390925D01*
X22259000Y-44282761D01*
X22259000Y-43977239D01*
X22318604Y-43677591D01*
X22370251Y-43552903D01*
X22435521Y-43395326D01*
X22605259Y-43141295D01*
X22821295Y-42925259D01*
X23075326Y-42755521D01*
X23357590Y-42638604D01*
X23507415Y-42608802D01*
X23657239Y-42579000D01*
X23962761Y-42579000D01*
X24112585Y-42608802D01*
G37*
G36*
X54994903Y-41985075D02*
G01*
X55222571Y-42079378D01*
X55427466Y-42216285D01*
X55601715Y-42390534D01*
X55601716Y-42390536D01*
X55738623Y-42595431D01*
X55832925Y-42823097D01*
X55853247Y-42925260D01*
X55881000Y-43064787D01*
X55881000Y-43311213D01*
X55832925Y-43552903D01*
X55738622Y-43780571D01*
X55601715Y-43985466D01*
X55427466Y-44159715D01*
X55222571Y-44296622D01*
X55222570Y-44296623D01*
X55222569Y-44296623D01*
X54994903Y-44390925D01*
X54753214Y-44439000D01*
X54506786Y-44439000D01*
X54265097Y-44390925D01*
X54037431Y-44296623D01*
X54037430Y-44296623D01*
X54037429Y-44296622D01*
X53832534Y-44159715D01*
X53658285Y-43985466D01*
X53521378Y-43780571D01*
X53427075Y-43552903D01*
X53379000Y-43311213D01*
X53379000Y-43064787D01*
X53406754Y-42925260D01*
X53427075Y-42823097D01*
X53521377Y-42595431D01*
X53658284Y-42390536D01*
X53658285Y-42390534D01*
X53832534Y-42216285D01*
X54037429Y-42079378D01*
X54265097Y-41985075D01*
X54506786Y-41937000D01*
X54753214Y-41937000D01*
X54994903Y-41985075D01*
G37*
G36*
X58494903Y-41985075D02*
G01*
X58722571Y-42079378D01*
X58927466Y-42216285D01*
X59101715Y-42390534D01*
X59101716Y-42390536D01*
X59238623Y-42595431D01*
X59332925Y-42823097D01*
X59353247Y-42925260D01*
X59381000Y-43064787D01*
X59381000Y-43311213D01*
X59332925Y-43552903D01*
X59238622Y-43780571D01*
X59101715Y-43985466D01*
X58927466Y-44159715D01*
X58722571Y-44296622D01*
X58722570Y-44296623D01*
X58722569Y-44296623D01*
X58494903Y-44390925D01*
X58253214Y-44439000D01*
X58006786Y-44439000D01*
X57765097Y-44390925D01*
X57537431Y-44296623D01*
X57537430Y-44296623D01*
X57537429Y-44296622D01*
X57332534Y-44159715D01*
X57158285Y-43985466D01*
X57021378Y-43780571D01*
X56927075Y-43552903D01*
X56879000Y-43311213D01*
X56879000Y-43064787D01*
X56906754Y-42925260D01*
X56927075Y-42823097D01*
X57021377Y-42595431D01*
X57158284Y-42390536D01*
X57158285Y-42390534D01*
X57332534Y-42216285D01*
X57537429Y-42079378D01*
X57765097Y-41985075D01*
X58006786Y-41937000D01*
X58253214Y-41937000D01*
X58494903Y-41985075D01*
G37*
G36*
X51494903Y-41985075D02*
G01*
X51722571Y-42079378D01*
X51927466Y-42216285D01*
X52101715Y-42390534D01*
X52101716Y-42390536D01*
X52238623Y-42595431D01*
X52332925Y-42823097D01*
X52353247Y-42925260D01*
X52381000Y-43064787D01*
X52381000Y-43311213D01*
X52332925Y-43552903D01*
X52238622Y-43780571D01*
X52101715Y-43985466D01*
X51927466Y-44159715D01*
X51722571Y-44296622D01*
X51722570Y-44296623D01*
X51722569Y-44296623D01*
X51494903Y-44390925D01*
X51253214Y-44439000D01*
X51006786Y-44439000D01*
X50765097Y-44390925D01*
X50537431Y-44296623D01*
X50537430Y-44296623D01*
X50537429Y-44296622D01*
X50332534Y-44159715D01*
X50158285Y-43985466D01*
X50021378Y-43780571D01*
X49927075Y-43552903D01*
X49879000Y-43311213D01*
X49879000Y-43064787D01*
X49906754Y-42925260D01*
X49927075Y-42823097D01*
X50021377Y-42595431D01*
X50158284Y-42390536D01*
X50158285Y-42390534D01*
X50332534Y-42216285D01*
X50537429Y-42079378D01*
X50765097Y-41985075D01*
X51006786Y-41937000D01*
X51253214Y-41937000D01*
X51494903Y-41985075D01*
G37*
G36*
X44494903Y-41985075D02*
G01*
X44722571Y-42079378D01*
X44927466Y-42216285D01*
X45101715Y-42390534D01*
X45101716Y-42390536D01*
X45238623Y-42595431D01*
X45332925Y-42823097D01*
X45353247Y-42925260D01*
X45381000Y-43064787D01*
X45381000Y-43311213D01*
X45332925Y-43552903D01*
X45238622Y-43780571D01*
X45101715Y-43985466D01*
X44927466Y-44159715D01*
X44722571Y-44296622D01*
X44722570Y-44296623D01*
X44722569Y-44296623D01*
X44494903Y-44390925D01*
X44253214Y-44439000D01*
X44006786Y-44439000D01*
X43765097Y-44390925D01*
X43537431Y-44296623D01*
X43537430Y-44296623D01*
X43537429Y-44296622D01*
X43332534Y-44159715D01*
X43158285Y-43985466D01*
X43021378Y-43780571D01*
X42927075Y-43552903D01*
X42879000Y-43311213D01*
X42879000Y-43064787D01*
X42906754Y-42925260D01*
X42927075Y-42823097D01*
X43021377Y-42595431D01*
X43158284Y-42390536D01*
X43158285Y-42390534D01*
X43332534Y-42216285D01*
X43537429Y-42079378D01*
X43765097Y-41985075D01*
X44006786Y-41937000D01*
X44253214Y-41937000D01*
X44494903Y-41985075D01*
G37*
G36*
X40994903Y-41985075D02*
G01*
X41222571Y-42079378D01*
X41427466Y-42216285D01*
X41601715Y-42390534D01*
X41601716Y-42390536D01*
X41738623Y-42595431D01*
X41832925Y-42823097D01*
X41853247Y-42925260D01*
X41881000Y-43064787D01*
X41881000Y-43311213D01*
X41832925Y-43552903D01*
X41738622Y-43780571D01*
X41601715Y-43985466D01*
X41427466Y-44159715D01*
X41222571Y-44296622D01*
X41222570Y-44296623D01*
X41222569Y-44296623D01*
X40994903Y-44390925D01*
X40753214Y-44439000D01*
X40506786Y-44439000D01*
X40265097Y-44390925D01*
X40037431Y-44296623D01*
X40037430Y-44296623D01*
X40037429Y-44296622D01*
X39832534Y-44159715D01*
X39658285Y-43985466D01*
X39521378Y-43780571D01*
X39427075Y-43552903D01*
X39379000Y-43311213D01*
X39379000Y-43064787D01*
X39406754Y-42925260D01*
X39427075Y-42823097D01*
X39521377Y-42595431D01*
X39658284Y-42390536D01*
X39658285Y-42390534D01*
X39832534Y-42216285D01*
X40037429Y-42079378D01*
X40265097Y-41985075D01*
X40506786Y-41937000D01*
X40753214Y-41937000D01*
X40994903Y-41985075D01*
G37*
G36*
X37494903Y-41985075D02*
G01*
X37722571Y-42079378D01*
X37927466Y-42216285D01*
X38101715Y-42390534D01*
X38101716Y-42390536D01*
X38238623Y-42595431D01*
X38332925Y-42823097D01*
X38353247Y-42925260D01*
X38381000Y-43064787D01*
X38381000Y-43311213D01*
X38332925Y-43552903D01*
X38238622Y-43780571D01*
X38101715Y-43985466D01*
X37927466Y-44159715D01*
X37722571Y-44296622D01*
X37722570Y-44296623D01*
X37722569Y-44296623D01*
X37494903Y-44390925D01*
X37253214Y-44439000D01*
X37006786Y-44439000D01*
X36765097Y-44390925D01*
X36537431Y-44296623D01*
X36537430Y-44296623D01*
X36537429Y-44296622D01*
X36332534Y-44159715D01*
X36158285Y-43985466D01*
X36021378Y-43780571D01*
X35927075Y-43552903D01*
X35879000Y-43311213D01*
X35879000Y-43064787D01*
X35906754Y-42925260D01*
X35927075Y-42823097D01*
X36021377Y-42595431D01*
X36158284Y-42390536D01*
X36158285Y-42390534D01*
X36332534Y-42216285D01*
X36537429Y-42079378D01*
X36765097Y-41985075D01*
X37006786Y-41937000D01*
X37253214Y-41937000D01*
X37494903Y-41985075D01*
G37*
G36*
X31381000Y-44439000D02*
G01*
X28879000Y-44439000D01*
X28879000Y-41937000D01*
X31381000Y-41937000D01*
X31381000Y-44439000D01*
G37*
G36*
X33994903Y-41985075D02*
G01*
X34222571Y-42079378D01*
X34427466Y-42216285D01*
X34601715Y-42390534D01*
X34601716Y-42390536D01*
X34738623Y-42595431D01*
X34832925Y-42823097D01*
X34853247Y-42925260D01*
X34881000Y-43064787D01*
X34881000Y-43311213D01*
X34832925Y-43552903D01*
X34738622Y-43780571D01*
X34601715Y-43985466D01*
X34427466Y-44159715D01*
X34222571Y-44296622D01*
X34222570Y-44296623D01*
X34222569Y-44296623D01*
X33994903Y-44390925D01*
X33753214Y-44439000D01*
X33506786Y-44439000D01*
X33265097Y-44390925D01*
X33037431Y-44296623D01*
X33037430Y-44296623D01*
X33037429Y-44296622D01*
X32832534Y-44159715D01*
X32658285Y-43985466D01*
X32521378Y-43780571D01*
X32427075Y-43552903D01*
X32379000Y-43311213D01*
X32379000Y-43064787D01*
X32406754Y-42925260D01*
X32427075Y-42823097D01*
X32521377Y-42595431D01*
X32658284Y-42390536D01*
X32658285Y-42390534D01*
X32832534Y-42216285D01*
X33037429Y-42079378D01*
X33265097Y-41985075D01*
X33506786Y-41937000D01*
X33753214Y-41937000D01*
X33994903Y-41985075D01*
G37*
G36*
X47994903Y-41985075D02*
G01*
X48222571Y-42079378D01*
X48427466Y-42216285D01*
X48601715Y-42390534D01*
X48601716Y-42390536D01*
X48738623Y-42595431D01*
X48832925Y-42823097D01*
X48853247Y-42925260D01*
X48881000Y-43064787D01*
X48881000Y-43311213D01*
X48832925Y-43552903D01*
X48738622Y-43780571D01*
X48601715Y-43985466D01*
X48427466Y-44159715D01*
X48222571Y-44296622D01*
X48222570Y-44296623D01*
X48222569Y-44296623D01*
X47994903Y-44390925D01*
X47753214Y-44439000D01*
X47506786Y-44439000D01*
X47265097Y-44390925D01*
X47037431Y-44296623D01*
X47037430Y-44296623D01*
X47037429Y-44296622D01*
X46832534Y-44159715D01*
X46658285Y-43985466D01*
X46521378Y-43780571D01*
X46427075Y-43552903D01*
X46379000Y-43311213D01*
X46379000Y-43064787D01*
X46406754Y-42925260D01*
X46427075Y-42823097D01*
X46521377Y-42595431D01*
X46658284Y-42390536D01*
X46658285Y-42390534D01*
X46832534Y-42216285D01*
X47037429Y-42079378D01*
X47265097Y-41985075D01*
X47506786Y-41937000D01*
X47753214Y-41937000D01*
X47994903Y-41985075D01*
G37*
G36*
X34083512Y-34343927D02*
G01*
X34232812Y-34373624D01*
X34396784Y-34441544D01*
X34544354Y-34540147D01*
X34669853Y-34665646D01*
X34768456Y-34813216D01*
X34836376Y-34977188D01*
X34871000Y-35151259D01*
X34871000Y-35328741D01*
X34836376Y-35502812D01*
X34768456Y-35666784D01*
X34669853Y-35814354D01*
X34544354Y-35939853D01*
X34396784Y-36038456D01*
X34232812Y-36106376D01*
X34083512Y-36136073D01*
X34058742Y-36141000D01*
X33881258Y-36141000D01*
X33856488Y-36136073D01*
X33707188Y-36106376D01*
X33543216Y-36038456D01*
X33395646Y-35939853D01*
X33270147Y-35814354D01*
X33171544Y-35666784D01*
X33103624Y-35502812D01*
X33069000Y-35328741D01*
X33069000Y-35151259D01*
X33103624Y-34977188D01*
X33171544Y-34813216D01*
X33270147Y-34665646D01*
X33395646Y-34540147D01*
X33543216Y-34441544D01*
X33707188Y-34373624D01*
X33856488Y-34343927D01*
X33881258Y-34339000D01*
X34058742Y-34339000D01*
X34083512Y-34343927D01*
G37*
G36*
X55191000Y-36141000D02*
G01*
X53389000Y-36141000D01*
X53389000Y-34339000D01*
X55191000Y-34339000D01*
X55191000Y-36141000D01*
G37*
G36*
X51863512Y-34343927D02*
G01*
X52012812Y-34373624D01*
X52176784Y-34441544D01*
X52324354Y-34540147D01*
X52449853Y-34665646D01*
X52548456Y-34813216D01*
X52616376Y-34977188D01*
X52651000Y-35151259D01*
X52651000Y-35328741D01*
X52616376Y-35502812D01*
X52548456Y-35666784D01*
X52449853Y-35814354D01*
X52324354Y-35939853D01*
X52176784Y-36038456D01*
X52012812Y-36106376D01*
X51863512Y-36136073D01*
X51838742Y-36141000D01*
X51661258Y-36141000D01*
X51636488Y-36136073D01*
X51487188Y-36106376D01*
X51323216Y-36038456D01*
X51175646Y-35939853D01*
X51050147Y-35814354D01*
X50951544Y-35666784D01*
X50883624Y-35502812D01*
X50849000Y-35328741D01*
X50849000Y-35151259D01*
X50883624Y-34977188D01*
X50951544Y-34813216D01*
X51050147Y-34665646D01*
X51175646Y-34540147D01*
X51323216Y-34441544D01*
X51487188Y-34373624D01*
X51636488Y-34343927D01*
X51661258Y-34339000D01*
X51838742Y-34339000D01*
X51863512Y-34343927D01*
G37*
G36*
X49323512Y-34343927D02*
G01*
X49472812Y-34373624D01*
X49636784Y-34441544D01*
X49784354Y-34540147D01*
X49909853Y-34665646D01*
X50008456Y-34813216D01*
X50076376Y-34977188D01*
X50111000Y-35151259D01*
X50111000Y-35328741D01*
X50076376Y-35502812D01*
X50008456Y-35666784D01*
X49909853Y-35814354D01*
X49784354Y-35939853D01*
X49636784Y-36038456D01*
X49472812Y-36106376D01*
X49323512Y-36136073D01*
X49298742Y-36141000D01*
X49121258Y-36141000D01*
X49096488Y-36136073D01*
X48947188Y-36106376D01*
X48783216Y-36038456D01*
X48635646Y-35939853D01*
X48510147Y-35814354D01*
X48411544Y-35666784D01*
X48343624Y-35502812D01*
X48309000Y-35328741D01*
X48309000Y-35151259D01*
X48343624Y-34977188D01*
X48411544Y-34813216D01*
X48510147Y-34665646D01*
X48635646Y-34540147D01*
X48783216Y-34441544D01*
X48947188Y-34373624D01*
X49096488Y-34343927D01*
X49121258Y-34339000D01*
X49298742Y-34339000D01*
X49323512Y-34343927D01*
G37*
G36*
X46783512Y-34343927D02*
G01*
X46932812Y-34373624D01*
X47096784Y-34441544D01*
X47244354Y-34540147D01*
X47369853Y-34665646D01*
X47468456Y-34813216D01*
X47536376Y-34977188D01*
X47571000Y-35151259D01*
X47571000Y-35328741D01*
X47536376Y-35502812D01*
X47468456Y-35666784D01*
X47369853Y-35814354D01*
X47244354Y-35939853D01*
X47096784Y-36038456D01*
X46932812Y-36106376D01*
X46783512Y-36136073D01*
X46758742Y-36141000D01*
X46581258Y-36141000D01*
X46556488Y-36136073D01*
X46407188Y-36106376D01*
X46243216Y-36038456D01*
X46095646Y-35939853D01*
X45970147Y-35814354D01*
X45871544Y-35666784D01*
X45803624Y-35502812D01*
X45769000Y-35328741D01*
X45769000Y-35151259D01*
X45803624Y-34977188D01*
X45871544Y-34813216D01*
X45970147Y-34665646D01*
X46095646Y-34540147D01*
X46243216Y-34441544D01*
X46407188Y-34373624D01*
X46556488Y-34343927D01*
X46581258Y-34339000D01*
X46758742Y-34339000D01*
X46783512Y-34343927D01*
G37*
G36*
X44243512Y-34343927D02*
G01*
X44392812Y-34373624D01*
X44556784Y-34441544D01*
X44704354Y-34540147D01*
X44829853Y-34665646D01*
X44928456Y-34813216D01*
X44996376Y-34977188D01*
X45031000Y-35151259D01*
X45031000Y-35328741D01*
X44996376Y-35502812D01*
X44928456Y-35666784D01*
X44829853Y-35814354D01*
X44704354Y-35939853D01*
X44556784Y-36038456D01*
X44392812Y-36106376D01*
X44243512Y-36136073D01*
X44218742Y-36141000D01*
X44041258Y-36141000D01*
X44016488Y-36136073D01*
X43867188Y-36106376D01*
X43703216Y-36038456D01*
X43555646Y-35939853D01*
X43430147Y-35814354D01*
X43331544Y-35666784D01*
X43263624Y-35502812D01*
X43229000Y-35328741D01*
X43229000Y-35151259D01*
X43263624Y-34977188D01*
X43331544Y-34813216D01*
X43430147Y-34665646D01*
X43555646Y-34540147D01*
X43703216Y-34441544D01*
X43867188Y-34373624D01*
X44016488Y-34343927D01*
X44041258Y-34339000D01*
X44218742Y-34339000D01*
X44243512Y-34343927D01*
G37*
G36*
X41703512Y-34343927D02*
G01*
X41852812Y-34373624D01*
X42016784Y-34441544D01*
X42164354Y-34540147D01*
X42289853Y-34665646D01*
X42388456Y-34813216D01*
X42456376Y-34977188D01*
X42491000Y-35151259D01*
X42491000Y-35328741D01*
X42456376Y-35502812D01*
X42388456Y-35666784D01*
X42289853Y-35814354D01*
X42164354Y-35939853D01*
X42016784Y-36038456D01*
X41852812Y-36106376D01*
X41703512Y-36136073D01*
X41678742Y-36141000D01*
X41501258Y-36141000D01*
X41476488Y-36136073D01*
X41327188Y-36106376D01*
X41163216Y-36038456D01*
X41015646Y-35939853D01*
X40890147Y-35814354D01*
X40791544Y-35666784D01*
X40723624Y-35502812D01*
X40689000Y-35328741D01*
X40689000Y-35151259D01*
X40723624Y-34977188D01*
X40791544Y-34813216D01*
X40890147Y-34665646D01*
X41015646Y-34540147D01*
X41163216Y-34441544D01*
X41327188Y-34373624D01*
X41476488Y-34343927D01*
X41501258Y-34339000D01*
X41678742Y-34339000D01*
X41703512Y-34343927D01*
G37*
G36*
X39163512Y-34343927D02*
G01*
X39312812Y-34373624D01*
X39476784Y-34441544D01*
X39624354Y-34540147D01*
X39749853Y-34665646D01*
X39848456Y-34813216D01*
X39916376Y-34977188D01*
X39951000Y-35151259D01*
X39951000Y-35328741D01*
X39916376Y-35502812D01*
X39848456Y-35666784D01*
X39749853Y-35814354D01*
X39624354Y-35939853D01*
X39476784Y-36038456D01*
X39312812Y-36106376D01*
X39163512Y-36136073D01*
X39138742Y-36141000D01*
X38961258Y-36141000D01*
X38936488Y-36136073D01*
X38787188Y-36106376D01*
X38623216Y-36038456D01*
X38475646Y-35939853D01*
X38350147Y-35814354D01*
X38251544Y-35666784D01*
X38183624Y-35502812D01*
X38149000Y-35328741D01*
X38149000Y-35151259D01*
X38183624Y-34977188D01*
X38251544Y-34813216D01*
X38350147Y-34665646D01*
X38475646Y-34540147D01*
X38623216Y-34441544D01*
X38787188Y-34373624D01*
X38936488Y-34343927D01*
X38961258Y-34339000D01*
X39138742Y-34339000D01*
X39163512Y-34343927D01*
G37*
G36*
X36623512Y-34343927D02*
G01*
X36772812Y-34373624D01*
X36936784Y-34441544D01*
X37084354Y-34540147D01*
X37209853Y-34665646D01*
X37308456Y-34813216D01*
X37376376Y-34977188D01*
X37411000Y-35151259D01*
X37411000Y-35328741D01*
X37376376Y-35502812D01*
X37308456Y-35666784D01*
X37209853Y-35814354D01*
X37084354Y-35939853D01*
X36936784Y-36038456D01*
X36772812Y-36106376D01*
X36623512Y-36136073D01*
X36598742Y-36141000D01*
X36421258Y-36141000D01*
X36396488Y-36136073D01*
X36247188Y-36106376D01*
X36083216Y-36038456D01*
X35935646Y-35939853D01*
X35810147Y-35814354D01*
X35711544Y-35666784D01*
X35643624Y-35502812D01*
X35609000Y-35328741D01*
X35609000Y-35151259D01*
X35643624Y-34977188D01*
X35711544Y-34813216D01*
X35810147Y-34665646D01*
X35935646Y-34540147D01*
X36083216Y-34441544D01*
X36247188Y-34373624D01*
X36396488Y-34343927D01*
X36421258Y-34339000D01*
X36598742Y-34339000D01*
X36623512Y-34343927D01*
G37*
G36*
X64829393Y-32719304D02*
G01*
X65066101Y-32817352D01*
X65066103Y-32817353D01*
X65279135Y-32959696D01*
X65460304Y-33140865D01*
X65549498Y-33274354D01*
X65602648Y-33353899D01*
X65700696Y-33590607D01*
X65750680Y-33841893D01*
X65750680Y-34098107D01*
X65700696Y-34349393D01*
X65621683Y-34540147D01*
X65602647Y-34586103D01*
X65460304Y-34799135D01*
X65279135Y-34980304D01*
X65066103Y-35122647D01*
X65066102Y-35122648D01*
X65066101Y-35122648D01*
X64829393Y-35220696D01*
X64578107Y-35270680D01*
X64321893Y-35270680D01*
X64070607Y-35220696D01*
X63833899Y-35122648D01*
X63833898Y-35122648D01*
X63833897Y-35122647D01*
X63620865Y-34980304D01*
X63439696Y-34799135D01*
X63297353Y-34586103D01*
X63278317Y-34540147D01*
X63199304Y-34349393D01*
X63149320Y-34098107D01*
X63149320Y-33841893D01*
X63199304Y-33590607D01*
X63297352Y-33353899D01*
X63350502Y-33274354D01*
X63439696Y-33140865D01*
X63620865Y-32959696D01*
X63833897Y-32817353D01*
X63833899Y-32817352D01*
X64070607Y-32719304D01*
X64321893Y-32669320D01*
X64578107Y-32669320D01*
X64829393Y-32719304D01*
G37*
G36*
X24189393Y-32719304D02*
G01*
X24426101Y-32817352D01*
X24426103Y-32817353D01*
X24639135Y-32959696D01*
X24820304Y-33140865D01*
X24909498Y-33274354D01*
X24962648Y-33353899D01*
X25060696Y-33590607D01*
X25110680Y-33841893D01*
X25110680Y-34098107D01*
X25060696Y-34349393D01*
X24981683Y-34540147D01*
X24962647Y-34586103D01*
X24820304Y-34799135D01*
X24639135Y-34980304D01*
X24426103Y-35122647D01*
X24426102Y-35122648D01*
X24426101Y-35122648D01*
X24189393Y-35220696D01*
X23938107Y-35270680D01*
X23681893Y-35270680D01*
X23430607Y-35220696D01*
X23193899Y-35122648D01*
X23193898Y-35122648D01*
X23193897Y-35122647D01*
X22980865Y-34980304D01*
X22799696Y-34799135D01*
X22657353Y-34586103D01*
X22638317Y-34540147D01*
X22559304Y-34349393D01*
X22509320Y-34098107D01*
X22509320Y-33841893D01*
X22559304Y-33590607D01*
X22657352Y-33353899D01*
X22710502Y-33274354D01*
X22799696Y-33140865D01*
X22980865Y-32959696D01*
X23193897Y-32817353D01*
X23193899Y-32817352D01*
X23430607Y-32719304D01*
X23681893Y-32669320D01*
X23938107Y-32669320D01*
X24189393Y-32719304D01*
G37*
G36*
X34083512Y-31803927D02*
G01*
X34232812Y-31833624D01*
X34396784Y-31901544D01*
X34544354Y-32000147D01*
X34669853Y-32125646D01*
X34768456Y-32273216D01*
X34836376Y-32437188D01*
X34871000Y-32611259D01*
X34871000Y-32788741D01*
X34836376Y-32962812D01*
X34768456Y-33126784D01*
X34669853Y-33274354D01*
X34544354Y-33399853D01*
X34396784Y-33498456D01*
X34232812Y-33566376D01*
X34083512Y-33596073D01*
X34058742Y-33601000D01*
X33881258Y-33601000D01*
X33856488Y-33596073D01*
X33707188Y-33566376D01*
X33543216Y-33498456D01*
X33395646Y-33399853D01*
X33270147Y-33274354D01*
X33171544Y-33126784D01*
X33103624Y-32962812D01*
X33069000Y-32788741D01*
X33069000Y-32611259D01*
X33103624Y-32437188D01*
X33171544Y-32273216D01*
X33270147Y-32125646D01*
X33395646Y-32000147D01*
X33543216Y-31901544D01*
X33707188Y-31833624D01*
X33856488Y-31803927D01*
X33881258Y-31799000D01*
X34058742Y-31799000D01*
X34083512Y-31803927D01*
G37*
G36*
X54403512Y-31803927D02*
G01*
X54552812Y-31833624D01*
X54716784Y-31901544D01*
X54864354Y-32000147D01*
X54989853Y-32125646D01*
X55088456Y-32273216D01*
X55156376Y-32437188D01*
X55191000Y-32611259D01*
X55191000Y-32788741D01*
X55156376Y-32962812D01*
X55088456Y-33126784D01*
X54989853Y-33274354D01*
X54864354Y-33399853D01*
X54716784Y-33498456D01*
X54552812Y-33566376D01*
X54403512Y-33596073D01*
X54378742Y-33601000D01*
X54201258Y-33601000D01*
X54176488Y-33596073D01*
X54027188Y-33566376D01*
X53863216Y-33498456D01*
X53715646Y-33399853D01*
X53590147Y-33274354D01*
X53491544Y-33126784D01*
X53423624Y-32962812D01*
X53389000Y-32788741D01*
X53389000Y-32611259D01*
X53423624Y-32437188D01*
X53491544Y-32273216D01*
X53590147Y-32125646D01*
X53715646Y-32000147D01*
X53863216Y-31901544D01*
X54027188Y-31833624D01*
X54176488Y-31803927D01*
X54201258Y-31799000D01*
X54378742Y-31799000D01*
X54403512Y-31803927D01*
G37*
G36*
X36623512Y-31803927D02*
G01*
X36772812Y-31833624D01*
X36936784Y-31901544D01*
X37084354Y-32000147D01*
X37209853Y-32125646D01*
X37308456Y-32273216D01*
X37376376Y-32437188D01*
X37411000Y-32611259D01*
X37411000Y-32788741D01*
X37376376Y-32962812D01*
X37308456Y-33126784D01*
X37209853Y-33274354D01*
X37084354Y-33399853D01*
X36936784Y-33498456D01*
X36772812Y-33566376D01*
X36623512Y-33596073D01*
X36598742Y-33601000D01*
X36421258Y-33601000D01*
X36396488Y-33596073D01*
X36247188Y-33566376D01*
X36083216Y-33498456D01*
X35935646Y-33399853D01*
X35810147Y-33274354D01*
X35711544Y-33126784D01*
X35643624Y-32962812D01*
X35609000Y-32788741D01*
X35609000Y-32611259D01*
X35643624Y-32437188D01*
X35711544Y-32273216D01*
X35810147Y-32125646D01*
X35935646Y-32000147D01*
X36083216Y-31901544D01*
X36247188Y-31833624D01*
X36396488Y-31803927D01*
X36421258Y-31799000D01*
X36598742Y-31799000D01*
X36623512Y-31803927D01*
G37*
G36*
X39163512Y-31803927D02*
G01*
X39312812Y-31833624D01*
X39476784Y-31901544D01*
X39624354Y-32000147D01*
X39749853Y-32125646D01*
X39848456Y-32273216D01*
X39916376Y-32437188D01*
X39951000Y-32611259D01*
X39951000Y-32788741D01*
X39916376Y-32962812D01*
X39848456Y-33126784D01*
X39749853Y-33274354D01*
X39624354Y-33399853D01*
X39476784Y-33498456D01*
X39312812Y-33566376D01*
X39163512Y-33596073D01*
X39138742Y-33601000D01*
X38961258Y-33601000D01*
X38936488Y-33596073D01*
X38787188Y-33566376D01*
X38623216Y-33498456D01*
X38475646Y-33399853D01*
X38350147Y-33274354D01*
X38251544Y-33126784D01*
X38183624Y-32962812D01*
X38149000Y-32788741D01*
X38149000Y-32611259D01*
X38183624Y-32437188D01*
X38251544Y-32273216D01*
X38350147Y-32125646D01*
X38475646Y-32000147D01*
X38623216Y-31901544D01*
X38787188Y-31833624D01*
X38936488Y-31803927D01*
X38961258Y-31799000D01*
X39138742Y-31799000D01*
X39163512Y-31803927D01*
G37*
G36*
X41703512Y-31803927D02*
G01*
X41852812Y-31833624D01*
X42016784Y-31901544D01*
X42164354Y-32000147D01*
X42289853Y-32125646D01*
X42388456Y-32273216D01*
X42456376Y-32437188D01*
X42491000Y-32611259D01*
X42491000Y-32788741D01*
X42456376Y-32962812D01*
X42388456Y-33126784D01*
X42289853Y-33274354D01*
X42164354Y-33399853D01*
X42016784Y-33498456D01*
X41852812Y-33566376D01*
X41703512Y-33596073D01*
X41678742Y-33601000D01*
X41501258Y-33601000D01*
X41476488Y-33596073D01*
X41327188Y-33566376D01*
X41163216Y-33498456D01*
X41015646Y-33399853D01*
X40890147Y-33274354D01*
X40791544Y-33126784D01*
X40723624Y-32962812D01*
X40689000Y-32788741D01*
X40689000Y-32611259D01*
X40723624Y-32437188D01*
X40791544Y-32273216D01*
X40890147Y-32125646D01*
X41015646Y-32000147D01*
X41163216Y-31901544D01*
X41327188Y-31833624D01*
X41476488Y-31803927D01*
X41501258Y-31799000D01*
X41678742Y-31799000D01*
X41703512Y-31803927D01*
G37*
G36*
X51863512Y-31803927D02*
G01*
X52012812Y-31833624D01*
X52176784Y-31901544D01*
X52324354Y-32000147D01*
X52449853Y-32125646D01*
X52548456Y-32273216D01*
X52616376Y-32437188D01*
X52651000Y-32611259D01*
X52651000Y-32788741D01*
X52616376Y-32962812D01*
X52548456Y-33126784D01*
X52449853Y-33274354D01*
X52324354Y-33399853D01*
X52176784Y-33498456D01*
X52012812Y-33566376D01*
X51863512Y-33596073D01*
X51838742Y-33601000D01*
X51661258Y-33601000D01*
X51636488Y-33596073D01*
X51487188Y-33566376D01*
X51323216Y-33498456D01*
X51175646Y-33399853D01*
X51050147Y-33274354D01*
X50951544Y-33126784D01*
X50883624Y-32962812D01*
X50849000Y-32788741D01*
X50849000Y-32611259D01*
X50883624Y-32437188D01*
X50951544Y-32273216D01*
X51050147Y-32125646D01*
X51175646Y-32000147D01*
X51323216Y-31901544D01*
X51487188Y-31833624D01*
X51636488Y-31803927D01*
X51661258Y-31799000D01*
X51838742Y-31799000D01*
X51863512Y-31803927D01*
G37*
G36*
X44243512Y-31803927D02*
G01*
X44392812Y-31833624D01*
X44556784Y-31901544D01*
X44704354Y-32000147D01*
X44829853Y-32125646D01*
X44928456Y-32273216D01*
X44996376Y-32437188D01*
X45031000Y-32611259D01*
X45031000Y-32788741D01*
X44996376Y-32962812D01*
X44928456Y-33126784D01*
X44829853Y-33274354D01*
X44704354Y-33399853D01*
X44556784Y-33498456D01*
X44392812Y-33566376D01*
X44243512Y-33596073D01*
X44218742Y-33601000D01*
X44041258Y-33601000D01*
X44016488Y-33596073D01*
X43867188Y-33566376D01*
X43703216Y-33498456D01*
X43555646Y-33399853D01*
X43430147Y-33274354D01*
X43331544Y-33126784D01*
X43263624Y-32962812D01*
X43229000Y-32788741D01*
X43229000Y-32611259D01*
X43263624Y-32437188D01*
X43331544Y-32273216D01*
X43430147Y-32125646D01*
X43555646Y-32000147D01*
X43703216Y-31901544D01*
X43867188Y-31833624D01*
X44016488Y-31803927D01*
X44041258Y-31799000D01*
X44218742Y-31799000D01*
X44243512Y-31803927D01*
G37*
G36*
X49323512Y-31803927D02*
G01*
X49472812Y-31833624D01*
X49636784Y-31901544D01*
X49784354Y-32000147D01*
X49909853Y-32125646D01*
X50008456Y-32273216D01*
X50076376Y-32437188D01*
X50111000Y-32611259D01*
X50111000Y-32788741D01*
X50076376Y-32962812D01*
X50008456Y-33126784D01*
X49909853Y-33274354D01*
X49784354Y-33399853D01*
X49636784Y-33498456D01*
X49472812Y-33566376D01*
X49323512Y-33596073D01*
X49298742Y-33601000D01*
X49121258Y-33601000D01*
X49096488Y-33596073D01*
X48947188Y-33566376D01*
X48783216Y-33498456D01*
X48635646Y-33399853D01*
X48510147Y-33274354D01*
X48411544Y-33126784D01*
X48343624Y-32962812D01*
X48309000Y-32788741D01*
X48309000Y-32611259D01*
X48343624Y-32437188D01*
X48411544Y-32273216D01*
X48510147Y-32125646D01*
X48635646Y-32000147D01*
X48783216Y-31901544D01*
X48947188Y-31833624D01*
X49096488Y-31803927D01*
X49121258Y-31799000D01*
X49298742Y-31799000D01*
X49323512Y-31803927D01*
G37*
G36*
X46783512Y-31803927D02*
G01*
X46932812Y-31833624D01*
X47096784Y-31901544D01*
X47244354Y-32000147D01*
X47369853Y-32125646D01*
X47468456Y-32273216D01*
X47536376Y-32437188D01*
X47571000Y-32611259D01*
X47571000Y-32788741D01*
X47536376Y-32962812D01*
X47468456Y-33126784D01*
X47369853Y-33274354D01*
X47244354Y-33399853D01*
X47096784Y-33498456D01*
X46932812Y-33566376D01*
X46783512Y-33596073D01*
X46758742Y-33601000D01*
X46581258Y-33601000D01*
X46556488Y-33596073D01*
X46407188Y-33566376D01*
X46243216Y-33498456D01*
X46095646Y-33399853D01*
X45970147Y-33274354D01*
X45871544Y-33126784D01*
X45803624Y-32962812D01*
X45769000Y-32788741D01*
X45769000Y-32611259D01*
X45803624Y-32437188D01*
X45871544Y-32273216D01*
X45970147Y-32125646D01*
X46095646Y-32000147D01*
X46243216Y-31901544D01*
X46407188Y-31833624D01*
X46556488Y-31803927D01*
X46581258Y-31799000D01*
X46758742Y-31799000D01*
X46783512Y-31803927D01*
G37*
G36*
X30494903Y-23554075D02*
G01*
X30722571Y-23648378D01*
X30927466Y-23785285D01*
X31101715Y-23959534D01*
X31238622Y-24164429D01*
X31332925Y-24392097D01*
X31381000Y-24633787D01*
X31381000Y-24880213D01*
X31332925Y-25121903D01*
X31238622Y-25349571D01*
X31101715Y-25554466D01*
X30927466Y-25728715D01*
X30722571Y-25865622D01*
X30722570Y-25865623D01*
X30722569Y-25865623D01*
X30494903Y-25959925D01*
X30253214Y-26008000D01*
X30006786Y-26008000D01*
X29765097Y-25959925D01*
X29537431Y-25865623D01*
X29537430Y-25865623D01*
X29537429Y-25865622D01*
X29332534Y-25728715D01*
X29158285Y-25554466D01*
X29021378Y-25349571D01*
X28927075Y-25121903D01*
X28879000Y-24880213D01*
X28879000Y-24633787D01*
X28927075Y-24392097D01*
X29021378Y-24164429D01*
X29158285Y-23959534D01*
X29332534Y-23785285D01*
X29537429Y-23648378D01*
X29765097Y-23554075D01*
X30006786Y-23506000D01*
X30253214Y-23506000D01*
X30494903Y-23554075D01*
G37*
G36*
X33994903Y-23554075D02*
G01*
X34222571Y-23648378D01*
X34427466Y-23785285D01*
X34601715Y-23959534D01*
X34738622Y-24164429D01*
X34832925Y-24392097D01*
X34881000Y-24633787D01*
X34881000Y-24880213D01*
X34832925Y-25121903D01*
X34738622Y-25349571D01*
X34601715Y-25554466D01*
X34427466Y-25728715D01*
X34222571Y-25865622D01*
X34222570Y-25865623D01*
X34222569Y-25865623D01*
X33994903Y-25959925D01*
X33753214Y-26008000D01*
X33506786Y-26008000D01*
X33265097Y-25959925D01*
X33037431Y-25865623D01*
X33037430Y-25865623D01*
X33037429Y-25865622D01*
X32832534Y-25728715D01*
X32658285Y-25554466D01*
X32521378Y-25349571D01*
X32427075Y-25121903D01*
X32379000Y-24880213D01*
X32379000Y-24633787D01*
X32427075Y-24392097D01*
X32521378Y-24164429D01*
X32658285Y-23959534D01*
X32832534Y-23785285D01*
X33037429Y-23648378D01*
X33265097Y-23554075D01*
X33506786Y-23506000D01*
X33753214Y-23506000D01*
X33994903Y-23554075D01*
G37*
G36*
X37494903Y-23554075D02*
G01*
X37722571Y-23648378D01*
X37927466Y-23785285D01*
X38101715Y-23959534D01*
X38238622Y-24164429D01*
X38332925Y-24392097D01*
X38381000Y-24633787D01*
X38381000Y-24880213D01*
X38332925Y-25121903D01*
X38238622Y-25349571D01*
X38101715Y-25554466D01*
X37927466Y-25728715D01*
X37722571Y-25865622D01*
X37722570Y-25865623D01*
X37722569Y-25865623D01*
X37494903Y-25959925D01*
X37253214Y-26008000D01*
X37006786Y-26008000D01*
X36765097Y-25959925D01*
X36537431Y-25865623D01*
X36537430Y-25865623D01*
X36537429Y-25865622D01*
X36332534Y-25728715D01*
X36158285Y-25554466D01*
X36021378Y-25349571D01*
X35927075Y-25121903D01*
X35879000Y-24880213D01*
X35879000Y-24633787D01*
X35927075Y-24392097D01*
X36021378Y-24164429D01*
X36158285Y-23959534D01*
X36332534Y-23785285D01*
X36537429Y-23648378D01*
X36765097Y-23554075D01*
X37006786Y-23506000D01*
X37253214Y-23506000D01*
X37494903Y-23554075D01*
G37*
G36*
X40994903Y-23554075D02*
G01*
X41222571Y-23648378D01*
X41427466Y-23785285D01*
X41601715Y-23959534D01*
X41738622Y-24164429D01*
X41832925Y-24392097D01*
X41881000Y-24633787D01*
X41881000Y-24880213D01*
X41832925Y-25121903D01*
X41738622Y-25349571D01*
X41601715Y-25554466D01*
X41427466Y-25728715D01*
X41222571Y-25865622D01*
X41222570Y-25865623D01*
X41222569Y-25865623D01*
X40994903Y-25959925D01*
X40753214Y-26008000D01*
X40506786Y-26008000D01*
X40265097Y-25959925D01*
X40037431Y-25865623D01*
X40037430Y-25865623D01*
X40037429Y-25865622D01*
X39832534Y-25728715D01*
X39658285Y-25554466D01*
X39521378Y-25349571D01*
X39427075Y-25121903D01*
X39379000Y-24880213D01*
X39379000Y-24633787D01*
X39427075Y-24392097D01*
X39521378Y-24164429D01*
X39658285Y-23959534D01*
X39832534Y-23785285D01*
X40037429Y-23648378D01*
X40265097Y-23554075D01*
X40506786Y-23506000D01*
X40753214Y-23506000D01*
X40994903Y-23554075D01*
G37*
G36*
X44494903Y-23554075D02*
G01*
X44722571Y-23648378D01*
X44927466Y-23785285D01*
X45101715Y-23959534D01*
X45238622Y-24164429D01*
X45332925Y-24392097D01*
X45381000Y-24633787D01*
X45381000Y-24880213D01*
X45332925Y-25121903D01*
X45238622Y-25349571D01*
X45101715Y-25554466D01*
X44927466Y-25728715D01*
X44722571Y-25865622D01*
X44722570Y-25865623D01*
X44722569Y-25865623D01*
X44494903Y-25959925D01*
X44253214Y-26008000D01*
X44006786Y-26008000D01*
X43765097Y-25959925D01*
X43537431Y-25865623D01*
X43537430Y-25865623D01*
X43537429Y-25865622D01*
X43332534Y-25728715D01*
X43158285Y-25554466D01*
X43021378Y-25349571D01*
X42927075Y-25121903D01*
X42879000Y-24880213D01*
X42879000Y-24633787D01*
X42927075Y-24392097D01*
X43021378Y-24164429D01*
X43158285Y-23959534D01*
X43332534Y-23785285D01*
X43537429Y-23648378D01*
X43765097Y-23554075D01*
X44006786Y-23506000D01*
X44253214Y-23506000D01*
X44494903Y-23554075D01*
G37*
G36*
X47994903Y-23554075D02*
G01*
X48222571Y-23648378D01*
X48427466Y-23785285D01*
X48601715Y-23959534D01*
X48738622Y-24164429D01*
X48832925Y-24392097D01*
X48881000Y-24633787D01*
X48881000Y-24880213D01*
X48832925Y-25121903D01*
X48738622Y-25349571D01*
X48601715Y-25554466D01*
X48427466Y-25728715D01*
X48222571Y-25865622D01*
X48222570Y-25865623D01*
X48222569Y-25865623D01*
X47994903Y-25959925D01*
X47753214Y-26008000D01*
X47506786Y-26008000D01*
X47265097Y-25959925D01*
X47037431Y-25865623D01*
X47037430Y-25865623D01*
X47037429Y-25865622D01*
X46832534Y-25728715D01*
X46658285Y-25554466D01*
X46521378Y-25349571D01*
X46427075Y-25121903D01*
X46379000Y-24880213D01*
X46379000Y-24633787D01*
X46427075Y-24392097D01*
X46521378Y-24164429D01*
X46658285Y-23959534D01*
X46832534Y-23785285D01*
X47037429Y-23648378D01*
X47265097Y-23554075D01*
X47506786Y-23506000D01*
X47753214Y-23506000D01*
X47994903Y-23554075D01*
G37*
G36*
X51494903Y-23554075D02*
G01*
X51722571Y-23648378D01*
X51927466Y-23785285D01*
X52101715Y-23959534D01*
X52238622Y-24164429D01*
X52332925Y-24392097D01*
X52381000Y-24633787D01*
X52381000Y-24880213D01*
X52332925Y-25121903D01*
X52238622Y-25349571D01*
X52101715Y-25554466D01*
X51927466Y-25728715D01*
X51722571Y-25865622D01*
X51722570Y-25865623D01*
X51722569Y-25865623D01*
X51494903Y-25959925D01*
X51253214Y-26008000D01*
X51006786Y-26008000D01*
X50765097Y-25959925D01*
X50537431Y-25865623D01*
X50537430Y-25865623D01*
X50537429Y-25865622D01*
X50332534Y-25728715D01*
X50158285Y-25554466D01*
X50021378Y-25349571D01*
X49927075Y-25121903D01*
X49879000Y-24880213D01*
X49879000Y-24633787D01*
X49927075Y-24392097D01*
X50021378Y-24164429D01*
X50158285Y-23959534D01*
X50332534Y-23785285D01*
X50537429Y-23648378D01*
X50765097Y-23554075D01*
X51006786Y-23506000D01*
X51253214Y-23506000D01*
X51494903Y-23554075D01*
G37*
G36*
X59381000Y-26008000D02*
G01*
X56879000Y-26008000D01*
X56879000Y-23506000D01*
X59381000Y-23506000D01*
X59381000Y-26008000D01*
G37*
G36*
X54994903Y-23554075D02*
G01*
X55222571Y-23648378D01*
X55427466Y-23785285D01*
X55601715Y-23959534D01*
X55738622Y-24164429D01*
X55832925Y-24392097D01*
X55881000Y-24633787D01*
X55881000Y-24880213D01*
X55832925Y-25121903D01*
X55738622Y-25349571D01*
X55601715Y-25554466D01*
X55427466Y-25728715D01*
X55222571Y-25865622D01*
X55222570Y-25865623D01*
X55222569Y-25865623D01*
X54994903Y-25959925D01*
X54753214Y-26008000D01*
X54506786Y-26008000D01*
X54265097Y-25959925D01*
X54037431Y-25865623D01*
X54037430Y-25865623D01*
X54037429Y-25865622D01*
X53832534Y-25728715D01*
X53658285Y-25554466D01*
X53521378Y-25349571D01*
X53427075Y-25121903D01*
X53379000Y-24880213D01*
X53379000Y-24633787D01*
X53427075Y-24392097D01*
X53521378Y-24164429D01*
X53658285Y-23959534D01*
X53832534Y-23785285D01*
X54037429Y-23648378D01*
X54265097Y-23554075D01*
X54506786Y-23506000D01*
X54753214Y-23506000D01*
X54994903Y-23554075D01*
G37*
G36*
X64752585Y-22288802D02*
G01*
X64902410Y-22318604D01*
X65184674Y-22435521D01*
X65438705Y-22605259D01*
X65654741Y-22821295D01*
X65824479Y-23075326D01*
X65941396Y-23357590D01*
X66001000Y-23657240D01*
X66001000Y-23962760D01*
X65941396Y-24262410D01*
X65824479Y-24544674D01*
X65654741Y-24798705D01*
X65438705Y-25014741D01*
X65184674Y-25184479D01*
X64902410Y-25301396D01*
X64752585Y-25331198D01*
X64602761Y-25361000D01*
X64297239Y-25361000D01*
X64147415Y-25331198D01*
X63997590Y-25301396D01*
X63715326Y-25184479D01*
X63461295Y-25014741D01*
X63245259Y-24798705D01*
X63075521Y-24544674D01*
X62958604Y-24262410D01*
X62899000Y-23962760D01*
X62899000Y-23657240D01*
X62958604Y-23357590D01*
X63075521Y-23075326D01*
X63245259Y-22821295D01*
X63461295Y-22605259D01*
X63715326Y-22435521D01*
X63997590Y-22318604D01*
X64147415Y-22288802D01*
X64297239Y-22259000D01*
X64602761Y-22259000D01*
X64752585Y-22288802D01*
G37*
G36*
X24112585Y-22288802D02*
G01*
X24262410Y-22318604D01*
X24544674Y-22435521D01*
X24798705Y-22605259D01*
X25014741Y-22821295D01*
X25184479Y-23075326D01*
X25301396Y-23357590D01*
X25361000Y-23657240D01*
X25361000Y-23962760D01*
X25301396Y-24262410D01*
X25184479Y-24544674D01*
X25014741Y-24798705D01*
X24798705Y-25014741D01*
X24544674Y-25184479D01*
X24262410Y-25301396D01*
X24112585Y-25331198D01*
X23962761Y-25361000D01*
X23657239Y-25361000D01*
X23507415Y-25331198D01*
X23357590Y-25301396D01*
X23075326Y-25184479D01*
X22821295Y-25014741D01*
X22605259Y-24798705D01*
X22435521Y-24544674D01*
X22318604Y-24262410D01*
X22259000Y-23962760D01*
X22259000Y-23657240D01*
X22318604Y-23357590D01*
X22435521Y-23075326D01*
X22605259Y-22821295D01*
X22821295Y-22605259D01*
X23075326Y-22435521D01*
X23357590Y-22318604D01*
X23507415Y-22288802D01*
X23657239Y-22259000D01*
X23962761Y-22259000D01*
X24112585Y-22288802D01*
G37*
M02*
