G04 #@! TF.GenerationSoftware,KiCad,Pcbnew,5.1.5-52549c5~86~ubuntu18.04.1*
G04 #@! TF.CreationDate,2020-09-14T13:58:43-05:00*
G04 #@! TF.ProjectId,C04,4330342e-6b69-4636-9164-5f7063625858,rev?*
G04 #@! TF.SameCoordinates,Original*
G04 #@! TF.FileFunction,Soldermask,Top*
G04 #@! TF.FilePolarity,Negative*
%FSLAX46Y46*%
G04 Gerber Fmt 4.6, Leading zero omitted, Abs format (unit mm)*
G04 Created by KiCad (PCBNEW 5.1.5-52549c5~86~ubuntu18.04.1) date 2020-09-14 13:58:43*
%MOMM*%
%LPD*%
G04 APERTURE LIST*
%ADD10C,0.100000*%
G04 APERTURE END LIST*
D10*
G36*
X25961000Y-55094000D02*
G01*
X23459000Y-55094000D01*
X23459000Y-52592000D01*
X25961000Y-52592000D01*
X25961000Y-55094000D01*
G37*
G36*
X70574903Y-52640075D02*
G01*
X70802571Y-52734378D01*
X71007466Y-52871285D01*
X71181715Y-53045534D01*
X71318622Y-53250429D01*
X71412925Y-53478097D01*
X71461000Y-53719787D01*
X71461000Y-53966213D01*
X71412925Y-54207903D01*
X71318622Y-54435571D01*
X71181715Y-54640466D01*
X71007466Y-54814715D01*
X70802571Y-54951622D01*
X70802570Y-54951623D01*
X70802569Y-54951623D01*
X70574903Y-55045925D01*
X70333214Y-55094000D01*
X70086786Y-55094000D01*
X69845097Y-55045925D01*
X69617431Y-54951623D01*
X69617430Y-54951623D01*
X69617429Y-54951622D01*
X69412534Y-54814715D01*
X69238285Y-54640466D01*
X69101378Y-54435571D01*
X69007075Y-54207903D01*
X68959000Y-53966213D01*
X68959000Y-53719787D01*
X69007075Y-53478097D01*
X69101378Y-53250429D01*
X69238285Y-53045534D01*
X69412534Y-52871285D01*
X69617429Y-52734378D01*
X69845097Y-52640075D01*
X70086786Y-52592000D01*
X70333214Y-52592000D01*
X70574903Y-52640075D01*
G37*
G36*
X74074903Y-52640075D02*
G01*
X74302571Y-52734378D01*
X74507466Y-52871285D01*
X74681715Y-53045534D01*
X74818622Y-53250429D01*
X74912925Y-53478097D01*
X74961000Y-53719787D01*
X74961000Y-53966213D01*
X74912925Y-54207903D01*
X74818622Y-54435571D01*
X74681715Y-54640466D01*
X74507466Y-54814715D01*
X74302571Y-54951622D01*
X74302570Y-54951623D01*
X74302569Y-54951623D01*
X74074903Y-55045925D01*
X73833214Y-55094000D01*
X73586786Y-55094000D01*
X73345097Y-55045925D01*
X73117431Y-54951623D01*
X73117430Y-54951623D01*
X73117429Y-54951622D01*
X72912534Y-54814715D01*
X72738285Y-54640466D01*
X72601378Y-54435571D01*
X72507075Y-54207903D01*
X72459000Y-53966213D01*
X72459000Y-53719787D01*
X72507075Y-53478097D01*
X72601378Y-53250429D01*
X72738285Y-53045534D01*
X72912534Y-52871285D01*
X73117429Y-52734378D01*
X73345097Y-52640075D01*
X73586786Y-52592000D01*
X73833214Y-52592000D01*
X74074903Y-52640075D01*
G37*
G36*
X67074903Y-52640075D02*
G01*
X67302571Y-52734378D01*
X67507466Y-52871285D01*
X67681715Y-53045534D01*
X67818622Y-53250429D01*
X67912925Y-53478097D01*
X67961000Y-53719787D01*
X67961000Y-53966213D01*
X67912925Y-54207903D01*
X67818622Y-54435571D01*
X67681715Y-54640466D01*
X67507466Y-54814715D01*
X67302571Y-54951622D01*
X67302570Y-54951623D01*
X67302569Y-54951623D01*
X67074903Y-55045925D01*
X66833214Y-55094000D01*
X66586786Y-55094000D01*
X66345097Y-55045925D01*
X66117431Y-54951623D01*
X66117430Y-54951623D01*
X66117429Y-54951622D01*
X65912534Y-54814715D01*
X65738285Y-54640466D01*
X65601378Y-54435571D01*
X65507075Y-54207903D01*
X65459000Y-53966213D01*
X65459000Y-53719787D01*
X65507075Y-53478097D01*
X65601378Y-53250429D01*
X65738285Y-53045534D01*
X65912534Y-52871285D01*
X66117429Y-52734378D01*
X66345097Y-52640075D01*
X66586786Y-52592000D01*
X66833214Y-52592000D01*
X67074903Y-52640075D01*
G37*
G36*
X63574903Y-52640075D02*
G01*
X63802571Y-52734378D01*
X64007466Y-52871285D01*
X64181715Y-53045534D01*
X64318622Y-53250429D01*
X64412925Y-53478097D01*
X64461000Y-53719787D01*
X64461000Y-53966213D01*
X64412925Y-54207903D01*
X64318622Y-54435571D01*
X64181715Y-54640466D01*
X64007466Y-54814715D01*
X63802571Y-54951622D01*
X63802570Y-54951623D01*
X63802569Y-54951623D01*
X63574903Y-55045925D01*
X63333214Y-55094000D01*
X63086786Y-55094000D01*
X62845097Y-55045925D01*
X62617431Y-54951623D01*
X62617430Y-54951623D01*
X62617429Y-54951622D01*
X62412534Y-54814715D01*
X62238285Y-54640466D01*
X62101378Y-54435571D01*
X62007075Y-54207903D01*
X61959000Y-53966213D01*
X61959000Y-53719787D01*
X62007075Y-53478097D01*
X62101378Y-53250429D01*
X62238285Y-53045534D01*
X62412534Y-52871285D01*
X62617429Y-52734378D01*
X62845097Y-52640075D01*
X63086786Y-52592000D01*
X63333214Y-52592000D01*
X63574903Y-52640075D01*
G37*
G36*
X60074903Y-52640075D02*
G01*
X60302571Y-52734378D01*
X60507466Y-52871285D01*
X60681715Y-53045534D01*
X60818622Y-53250429D01*
X60912925Y-53478097D01*
X60961000Y-53719787D01*
X60961000Y-53966213D01*
X60912925Y-54207903D01*
X60818622Y-54435571D01*
X60681715Y-54640466D01*
X60507466Y-54814715D01*
X60302571Y-54951622D01*
X60302570Y-54951623D01*
X60302569Y-54951623D01*
X60074903Y-55045925D01*
X59833214Y-55094000D01*
X59586786Y-55094000D01*
X59345097Y-55045925D01*
X59117431Y-54951623D01*
X59117430Y-54951623D01*
X59117429Y-54951622D01*
X58912534Y-54814715D01*
X58738285Y-54640466D01*
X58601378Y-54435571D01*
X58507075Y-54207903D01*
X58459000Y-53966213D01*
X58459000Y-53719787D01*
X58507075Y-53478097D01*
X58601378Y-53250429D01*
X58738285Y-53045534D01*
X58912534Y-52871285D01*
X59117429Y-52734378D01*
X59345097Y-52640075D01*
X59586786Y-52592000D01*
X59833214Y-52592000D01*
X60074903Y-52640075D01*
G37*
G36*
X56574903Y-52640075D02*
G01*
X56802571Y-52734378D01*
X57007466Y-52871285D01*
X57181715Y-53045534D01*
X57318622Y-53250429D01*
X57412925Y-53478097D01*
X57461000Y-53719787D01*
X57461000Y-53966213D01*
X57412925Y-54207903D01*
X57318622Y-54435571D01*
X57181715Y-54640466D01*
X57007466Y-54814715D01*
X56802571Y-54951622D01*
X56802570Y-54951623D01*
X56802569Y-54951623D01*
X56574903Y-55045925D01*
X56333214Y-55094000D01*
X56086786Y-55094000D01*
X55845097Y-55045925D01*
X55617431Y-54951623D01*
X55617430Y-54951623D01*
X55617429Y-54951622D01*
X55412534Y-54814715D01*
X55238285Y-54640466D01*
X55101378Y-54435571D01*
X55007075Y-54207903D01*
X54959000Y-53966213D01*
X54959000Y-53719787D01*
X55007075Y-53478097D01*
X55101378Y-53250429D01*
X55238285Y-53045534D01*
X55412534Y-52871285D01*
X55617429Y-52734378D01*
X55845097Y-52640075D01*
X56086786Y-52592000D01*
X56333214Y-52592000D01*
X56574903Y-52640075D01*
G37*
G36*
X53074903Y-52640075D02*
G01*
X53302571Y-52734378D01*
X53507466Y-52871285D01*
X53681715Y-53045534D01*
X53818622Y-53250429D01*
X53912925Y-53478097D01*
X53961000Y-53719787D01*
X53961000Y-53966213D01*
X53912925Y-54207903D01*
X53818622Y-54435571D01*
X53681715Y-54640466D01*
X53507466Y-54814715D01*
X53302571Y-54951622D01*
X53302570Y-54951623D01*
X53302569Y-54951623D01*
X53074903Y-55045925D01*
X52833214Y-55094000D01*
X52586786Y-55094000D01*
X52345097Y-55045925D01*
X52117431Y-54951623D01*
X52117430Y-54951623D01*
X52117429Y-54951622D01*
X51912534Y-54814715D01*
X51738285Y-54640466D01*
X51601378Y-54435571D01*
X51507075Y-54207903D01*
X51459000Y-53966213D01*
X51459000Y-53719787D01*
X51507075Y-53478097D01*
X51601378Y-53250429D01*
X51738285Y-53045534D01*
X51912534Y-52871285D01*
X52117429Y-52734378D01*
X52345097Y-52640075D01*
X52586786Y-52592000D01*
X52833214Y-52592000D01*
X53074903Y-52640075D01*
G37*
G36*
X46074903Y-52640075D02*
G01*
X46302571Y-52734378D01*
X46507466Y-52871285D01*
X46681715Y-53045534D01*
X46818622Y-53250429D01*
X46912925Y-53478097D01*
X46961000Y-53719787D01*
X46961000Y-53966213D01*
X46912925Y-54207903D01*
X46818622Y-54435571D01*
X46681715Y-54640466D01*
X46507466Y-54814715D01*
X46302571Y-54951622D01*
X46302570Y-54951623D01*
X46302569Y-54951623D01*
X46074903Y-55045925D01*
X45833214Y-55094000D01*
X45586786Y-55094000D01*
X45345097Y-55045925D01*
X45117431Y-54951623D01*
X45117430Y-54951623D01*
X45117429Y-54951622D01*
X44912534Y-54814715D01*
X44738285Y-54640466D01*
X44601378Y-54435571D01*
X44507075Y-54207903D01*
X44459000Y-53966213D01*
X44459000Y-53719787D01*
X44507075Y-53478097D01*
X44601378Y-53250429D01*
X44738285Y-53045534D01*
X44912534Y-52871285D01*
X45117429Y-52734378D01*
X45345097Y-52640075D01*
X45586786Y-52592000D01*
X45833214Y-52592000D01*
X46074903Y-52640075D01*
G37*
G36*
X42574903Y-52640075D02*
G01*
X42802571Y-52734378D01*
X43007466Y-52871285D01*
X43181715Y-53045534D01*
X43318622Y-53250429D01*
X43412925Y-53478097D01*
X43461000Y-53719787D01*
X43461000Y-53966213D01*
X43412925Y-54207903D01*
X43318622Y-54435571D01*
X43181715Y-54640466D01*
X43007466Y-54814715D01*
X42802571Y-54951622D01*
X42802570Y-54951623D01*
X42802569Y-54951623D01*
X42574903Y-55045925D01*
X42333214Y-55094000D01*
X42086786Y-55094000D01*
X41845097Y-55045925D01*
X41617431Y-54951623D01*
X41617430Y-54951623D01*
X41617429Y-54951622D01*
X41412534Y-54814715D01*
X41238285Y-54640466D01*
X41101378Y-54435571D01*
X41007075Y-54207903D01*
X40959000Y-53966213D01*
X40959000Y-53719787D01*
X41007075Y-53478097D01*
X41101378Y-53250429D01*
X41238285Y-53045534D01*
X41412534Y-52871285D01*
X41617429Y-52734378D01*
X41845097Y-52640075D01*
X42086786Y-52592000D01*
X42333214Y-52592000D01*
X42574903Y-52640075D01*
G37*
G36*
X39074903Y-52640075D02*
G01*
X39302571Y-52734378D01*
X39507466Y-52871285D01*
X39681715Y-53045534D01*
X39818622Y-53250429D01*
X39912925Y-53478097D01*
X39961000Y-53719787D01*
X39961000Y-53966213D01*
X39912925Y-54207903D01*
X39818622Y-54435571D01*
X39681715Y-54640466D01*
X39507466Y-54814715D01*
X39302571Y-54951622D01*
X39302570Y-54951623D01*
X39302569Y-54951623D01*
X39074903Y-55045925D01*
X38833214Y-55094000D01*
X38586786Y-55094000D01*
X38345097Y-55045925D01*
X38117431Y-54951623D01*
X38117430Y-54951623D01*
X38117429Y-54951622D01*
X37912534Y-54814715D01*
X37738285Y-54640466D01*
X37601378Y-54435571D01*
X37507075Y-54207903D01*
X37459000Y-53966213D01*
X37459000Y-53719787D01*
X37507075Y-53478097D01*
X37601378Y-53250429D01*
X37738285Y-53045534D01*
X37912534Y-52871285D01*
X38117429Y-52734378D01*
X38345097Y-52640075D01*
X38586786Y-52592000D01*
X38833214Y-52592000D01*
X39074903Y-52640075D01*
G37*
G36*
X35574903Y-52640075D02*
G01*
X35802571Y-52734378D01*
X36007466Y-52871285D01*
X36181715Y-53045534D01*
X36318622Y-53250429D01*
X36412925Y-53478097D01*
X36461000Y-53719787D01*
X36461000Y-53966213D01*
X36412925Y-54207903D01*
X36318622Y-54435571D01*
X36181715Y-54640466D01*
X36007466Y-54814715D01*
X35802571Y-54951622D01*
X35802570Y-54951623D01*
X35802569Y-54951623D01*
X35574903Y-55045925D01*
X35333214Y-55094000D01*
X35086786Y-55094000D01*
X34845097Y-55045925D01*
X34617431Y-54951623D01*
X34617430Y-54951623D01*
X34617429Y-54951622D01*
X34412534Y-54814715D01*
X34238285Y-54640466D01*
X34101378Y-54435571D01*
X34007075Y-54207903D01*
X33959000Y-53966213D01*
X33959000Y-53719787D01*
X34007075Y-53478097D01*
X34101378Y-53250429D01*
X34238285Y-53045534D01*
X34412534Y-52871285D01*
X34617429Y-52734378D01*
X34845097Y-52640075D01*
X35086786Y-52592000D01*
X35333214Y-52592000D01*
X35574903Y-52640075D01*
G37*
G36*
X32074903Y-52640075D02*
G01*
X32302571Y-52734378D01*
X32507466Y-52871285D01*
X32681715Y-53045534D01*
X32818622Y-53250429D01*
X32912925Y-53478097D01*
X32961000Y-53719787D01*
X32961000Y-53966213D01*
X32912925Y-54207903D01*
X32818622Y-54435571D01*
X32681715Y-54640466D01*
X32507466Y-54814715D01*
X32302571Y-54951622D01*
X32302570Y-54951623D01*
X32302569Y-54951623D01*
X32074903Y-55045925D01*
X31833214Y-55094000D01*
X31586786Y-55094000D01*
X31345097Y-55045925D01*
X31117431Y-54951623D01*
X31117430Y-54951623D01*
X31117429Y-54951622D01*
X30912534Y-54814715D01*
X30738285Y-54640466D01*
X30601378Y-54435571D01*
X30507075Y-54207903D01*
X30459000Y-53966213D01*
X30459000Y-53719787D01*
X30507075Y-53478097D01*
X30601378Y-53250429D01*
X30738285Y-53045534D01*
X30912534Y-52871285D01*
X31117429Y-52734378D01*
X31345097Y-52640075D01*
X31586786Y-52592000D01*
X31833214Y-52592000D01*
X32074903Y-52640075D01*
G37*
G36*
X28574903Y-52640075D02*
G01*
X28802571Y-52734378D01*
X29007466Y-52871285D01*
X29181715Y-53045534D01*
X29318622Y-53250429D01*
X29412925Y-53478097D01*
X29461000Y-53719787D01*
X29461000Y-53966213D01*
X29412925Y-54207903D01*
X29318622Y-54435571D01*
X29181715Y-54640466D01*
X29007466Y-54814715D01*
X28802571Y-54951622D01*
X28802570Y-54951623D01*
X28802569Y-54951623D01*
X28574903Y-55045925D01*
X28333214Y-55094000D01*
X28086786Y-55094000D01*
X27845097Y-55045925D01*
X27617431Y-54951623D01*
X27617430Y-54951623D01*
X27617429Y-54951622D01*
X27412534Y-54814715D01*
X27238285Y-54640466D01*
X27101378Y-54435571D01*
X27007075Y-54207903D01*
X26959000Y-53966213D01*
X26959000Y-53719787D01*
X27007075Y-53478097D01*
X27101378Y-53250429D01*
X27238285Y-53045534D01*
X27412534Y-52871285D01*
X27617429Y-52734378D01*
X27845097Y-52640075D01*
X28086786Y-52592000D01*
X28333214Y-52592000D01*
X28574903Y-52640075D01*
G37*
G36*
X49574903Y-52640075D02*
G01*
X49802571Y-52734378D01*
X50007466Y-52871285D01*
X50181715Y-53045534D01*
X50318622Y-53250429D01*
X50412925Y-53478097D01*
X50461000Y-53719787D01*
X50461000Y-53966213D01*
X50412925Y-54207903D01*
X50318622Y-54435571D01*
X50181715Y-54640466D01*
X50007466Y-54814715D01*
X49802571Y-54951622D01*
X49802570Y-54951623D01*
X49802569Y-54951623D01*
X49574903Y-55045925D01*
X49333214Y-55094000D01*
X49086786Y-55094000D01*
X48845097Y-55045925D01*
X48617431Y-54951623D01*
X48617430Y-54951623D01*
X48617429Y-54951622D01*
X48412534Y-54814715D01*
X48238285Y-54640466D01*
X48101378Y-54435571D01*
X48007075Y-54207903D01*
X47959000Y-53966213D01*
X47959000Y-53719787D01*
X48007075Y-53478097D01*
X48101378Y-53250429D01*
X48238285Y-53045534D01*
X48412534Y-52871285D01*
X48617429Y-52734378D01*
X48845097Y-52640075D01*
X49086786Y-52592000D01*
X49333214Y-52592000D01*
X49574903Y-52640075D01*
G37*
G36*
X54403512Y-45773927D02*
G01*
X54552812Y-45803624D01*
X54716784Y-45871544D01*
X54864354Y-45970147D01*
X54989853Y-46095646D01*
X55088456Y-46243216D01*
X55156376Y-46407188D01*
X55191000Y-46581259D01*
X55191000Y-46758741D01*
X55156376Y-46932812D01*
X55088456Y-47096784D01*
X54989853Y-47244354D01*
X54864354Y-47369853D01*
X54716784Y-47468456D01*
X54552812Y-47536376D01*
X54403512Y-47566073D01*
X54378742Y-47571000D01*
X54201258Y-47571000D01*
X54176488Y-47566073D01*
X54027188Y-47536376D01*
X53863216Y-47468456D01*
X53715646Y-47369853D01*
X53590147Y-47244354D01*
X53491544Y-47096784D01*
X53423624Y-46932812D01*
X53389000Y-46758741D01*
X53389000Y-46581259D01*
X53423624Y-46407188D01*
X53491544Y-46243216D01*
X53590147Y-46095646D01*
X53715646Y-45970147D01*
X53863216Y-45871544D01*
X54027188Y-45803624D01*
X54176488Y-45773927D01*
X54201258Y-45769000D01*
X54378742Y-45769000D01*
X54403512Y-45773927D01*
G37*
G36*
X32331000Y-47571000D02*
G01*
X30529000Y-47571000D01*
X30529000Y-45769000D01*
X32331000Y-45769000D01*
X32331000Y-47571000D01*
G37*
G36*
X34083512Y-45773927D02*
G01*
X34232812Y-45803624D01*
X34396784Y-45871544D01*
X34544354Y-45970147D01*
X34669853Y-46095646D01*
X34768456Y-46243216D01*
X34836376Y-46407188D01*
X34871000Y-46581259D01*
X34871000Y-46758741D01*
X34836376Y-46932812D01*
X34768456Y-47096784D01*
X34669853Y-47244354D01*
X34544354Y-47369853D01*
X34396784Y-47468456D01*
X34232812Y-47536376D01*
X34083512Y-47566073D01*
X34058742Y-47571000D01*
X33881258Y-47571000D01*
X33856488Y-47566073D01*
X33707188Y-47536376D01*
X33543216Y-47468456D01*
X33395646Y-47369853D01*
X33270147Y-47244354D01*
X33171544Y-47096784D01*
X33103624Y-46932812D01*
X33069000Y-46758741D01*
X33069000Y-46581259D01*
X33103624Y-46407188D01*
X33171544Y-46243216D01*
X33270147Y-46095646D01*
X33395646Y-45970147D01*
X33543216Y-45871544D01*
X33707188Y-45803624D01*
X33856488Y-45773927D01*
X33881258Y-45769000D01*
X34058742Y-45769000D01*
X34083512Y-45773927D01*
G37*
G36*
X36623512Y-45773927D02*
G01*
X36772812Y-45803624D01*
X36936784Y-45871544D01*
X37084354Y-45970147D01*
X37209853Y-46095646D01*
X37308456Y-46243216D01*
X37376376Y-46407188D01*
X37411000Y-46581259D01*
X37411000Y-46758741D01*
X37376376Y-46932812D01*
X37308456Y-47096784D01*
X37209853Y-47244354D01*
X37084354Y-47369853D01*
X36936784Y-47468456D01*
X36772812Y-47536376D01*
X36623512Y-47566073D01*
X36598742Y-47571000D01*
X36421258Y-47571000D01*
X36396488Y-47566073D01*
X36247188Y-47536376D01*
X36083216Y-47468456D01*
X35935646Y-47369853D01*
X35810147Y-47244354D01*
X35711544Y-47096784D01*
X35643624Y-46932812D01*
X35609000Y-46758741D01*
X35609000Y-46581259D01*
X35643624Y-46407188D01*
X35711544Y-46243216D01*
X35810147Y-46095646D01*
X35935646Y-45970147D01*
X36083216Y-45871544D01*
X36247188Y-45803624D01*
X36396488Y-45773927D01*
X36421258Y-45769000D01*
X36598742Y-45769000D01*
X36623512Y-45773927D01*
G37*
G36*
X39163512Y-45773927D02*
G01*
X39312812Y-45803624D01*
X39476784Y-45871544D01*
X39624354Y-45970147D01*
X39749853Y-46095646D01*
X39848456Y-46243216D01*
X39916376Y-46407188D01*
X39951000Y-46581259D01*
X39951000Y-46758741D01*
X39916376Y-46932812D01*
X39848456Y-47096784D01*
X39749853Y-47244354D01*
X39624354Y-47369853D01*
X39476784Y-47468456D01*
X39312812Y-47536376D01*
X39163512Y-47566073D01*
X39138742Y-47571000D01*
X38961258Y-47571000D01*
X38936488Y-47566073D01*
X38787188Y-47536376D01*
X38623216Y-47468456D01*
X38475646Y-47369853D01*
X38350147Y-47244354D01*
X38251544Y-47096784D01*
X38183624Y-46932812D01*
X38149000Y-46758741D01*
X38149000Y-46581259D01*
X38183624Y-46407188D01*
X38251544Y-46243216D01*
X38350147Y-46095646D01*
X38475646Y-45970147D01*
X38623216Y-45871544D01*
X38787188Y-45803624D01*
X38936488Y-45773927D01*
X38961258Y-45769000D01*
X39138742Y-45769000D01*
X39163512Y-45773927D01*
G37*
G36*
X41703512Y-45773927D02*
G01*
X41852812Y-45803624D01*
X42016784Y-45871544D01*
X42164354Y-45970147D01*
X42289853Y-46095646D01*
X42388456Y-46243216D01*
X42456376Y-46407188D01*
X42491000Y-46581259D01*
X42491000Y-46758741D01*
X42456376Y-46932812D01*
X42388456Y-47096784D01*
X42289853Y-47244354D01*
X42164354Y-47369853D01*
X42016784Y-47468456D01*
X41852812Y-47536376D01*
X41703512Y-47566073D01*
X41678742Y-47571000D01*
X41501258Y-47571000D01*
X41476488Y-47566073D01*
X41327188Y-47536376D01*
X41163216Y-47468456D01*
X41015646Y-47369853D01*
X40890147Y-47244354D01*
X40791544Y-47096784D01*
X40723624Y-46932812D01*
X40689000Y-46758741D01*
X40689000Y-46581259D01*
X40723624Y-46407188D01*
X40791544Y-46243216D01*
X40890147Y-46095646D01*
X41015646Y-45970147D01*
X41163216Y-45871544D01*
X41327188Y-45803624D01*
X41476488Y-45773927D01*
X41501258Y-45769000D01*
X41678742Y-45769000D01*
X41703512Y-45773927D01*
G37*
G36*
X44243512Y-45773927D02*
G01*
X44392812Y-45803624D01*
X44556784Y-45871544D01*
X44704354Y-45970147D01*
X44829853Y-46095646D01*
X44928456Y-46243216D01*
X44996376Y-46407188D01*
X45031000Y-46581259D01*
X45031000Y-46758741D01*
X44996376Y-46932812D01*
X44928456Y-47096784D01*
X44829853Y-47244354D01*
X44704354Y-47369853D01*
X44556784Y-47468456D01*
X44392812Y-47536376D01*
X44243512Y-47566073D01*
X44218742Y-47571000D01*
X44041258Y-47571000D01*
X44016488Y-47566073D01*
X43867188Y-47536376D01*
X43703216Y-47468456D01*
X43555646Y-47369853D01*
X43430147Y-47244354D01*
X43331544Y-47096784D01*
X43263624Y-46932812D01*
X43229000Y-46758741D01*
X43229000Y-46581259D01*
X43263624Y-46407188D01*
X43331544Y-46243216D01*
X43430147Y-46095646D01*
X43555646Y-45970147D01*
X43703216Y-45871544D01*
X43867188Y-45803624D01*
X44016488Y-45773927D01*
X44041258Y-45769000D01*
X44218742Y-45769000D01*
X44243512Y-45773927D01*
G37*
G36*
X46783512Y-45773927D02*
G01*
X46932812Y-45803624D01*
X47096784Y-45871544D01*
X47244354Y-45970147D01*
X47369853Y-46095646D01*
X47468456Y-46243216D01*
X47536376Y-46407188D01*
X47571000Y-46581259D01*
X47571000Y-46758741D01*
X47536376Y-46932812D01*
X47468456Y-47096784D01*
X47369853Y-47244354D01*
X47244354Y-47369853D01*
X47096784Y-47468456D01*
X46932812Y-47536376D01*
X46783512Y-47566073D01*
X46758742Y-47571000D01*
X46581258Y-47571000D01*
X46556488Y-47566073D01*
X46407188Y-47536376D01*
X46243216Y-47468456D01*
X46095646Y-47369853D01*
X45970147Y-47244354D01*
X45871544Y-47096784D01*
X45803624Y-46932812D01*
X45769000Y-46758741D01*
X45769000Y-46581259D01*
X45803624Y-46407188D01*
X45871544Y-46243216D01*
X45970147Y-46095646D01*
X46095646Y-45970147D01*
X46243216Y-45871544D01*
X46407188Y-45803624D01*
X46556488Y-45773927D01*
X46581258Y-45769000D01*
X46758742Y-45769000D01*
X46783512Y-45773927D01*
G37*
G36*
X49323512Y-45773927D02*
G01*
X49472812Y-45803624D01*
X49636784Y-45871544D01*
X49784354Y-45970147D01*
X49909853Y-46095646D01*
X50008456Y-46243216D01*
X50076376Y-46407188D01*
X50111000Y-46581259D01*
X50111000Y-46758741D01*
X50076376Y-46932812D01*
X50008456Y-47096784D01*
X49909853Y-47244354D01*
X49784354Y-47369853D01*
X49636784Y-47468456D01*
X49472812Y-47536376D01*
X49323512Y-47566073D01*
X49298742Y-47571000D01*
X49121258Y-47571000D01*
X49096488Y-47566073D01*
X48947188Y-47536376D01*
X48783216Y-47468456D01*
X48635646Y-47369853D01*
X48510147Y-47244354D01*
X48411544Y-47096784D01*
X48343624Y-46932812D01*
X48309000Y-46758741D01*
X48309000Y-46581259D01*
X48343624Y-46407188D01*
X48411544Y-46243216D01*
X48510147Y-46095646D01*
X48635646Y-45970147D01*
X48783216Y-45871544D01*
X48947188Y-45803624D01*
X49096488Y-45773927D01*
X49121258Y-45769000D01*
X49298742Y-45769000D01*
X49323512Y-45773927D01*
G37*
G36*
X51863512Y-45773927D02*
G01*
X52012812Y-45803624D01*
X52176784Y-45871544D01*
X52324354Y-45970147D01*
X52449853Y-46095646D01*
X52548456Y-46243216D01*
X52616376Y-46407188D01*
X52651000Y-46581259D01*
X52651000Y-46758741D01*
X52616376Y-46932812D01*
X52548456Y-47096784D01*
X52449853Y-47244354D01*
X52324354Y-47369853D01*
X52176784Y-47468456D01*
X52012812Y-47536376D01*
X51863512Y-47566073D01*
X51838742Y-47571000D01*
X51661258Y-47571000D01*
X51636488Y-47566073D01*
X51487188Y-47536376D01*
X51323216Y-47468456D01*
X51175646Y-47369853D01*
X51050147Y-47244354D01*
X50951544Y-47096784D01*
X50883624Y-46932812D01*
X50849000Y-46758741D01*
X50849000Y-46581259D01*
X50883624Y-46407188D01*
X50951544Y-46243216D01*
X51050147Y-46095646D01*
X51175646Y-45970147D01*
X51323216Y-45871544D01*
X51487188Y-45803624D01*
X51636488Y-45773927D01*
X51661258Y-45769000D01*
X51838742Y-45769000D01*
X51863512Y-45773927D01*
G37*
G36*
X56943512Y-45773927D02*
G01*
X57092812Y-45803624D01*
X57256784Y-45871544D01*
X57404354Y-45970147D01*
X57529853Y-46095646D01*
X57628456Y-46243216D01*
X57696376Y-46407188D01*
X57731000Y-46581259D01*
X57731000Y-46758741D01*
X57696376Y-46932812D01*
X57628456Y-47096784D01*
X57529853Y-47244354D01*
X57404354Y-47369853D01*
X57256784Y-47468456D01*
X57092812Y-47536376D01*
X56943512Y-47566073D01*
X56918742Y-47571000D01*
X56741258Y-47571000D01*
X56716488Y-47566073D01*
X56567188Y-47536376D01*
X56403216Y-47468456D01*
X56255646Y-47369853D01*
X56130147Y-47244354D01*
X56031544Y-47096784D01*
X55963624Y-46932812D01*
X55929000Y-46758741D01*
X55929000Y-46581259D01*
X55963624Y-46407188D01*
X56031544Y-46243216D01*
X56130147Y-46095646D01*
X56255646Y-45970147D01*
X56403216Y-45871544D01*
X56567188Y-45803624D01*
X56716488Y-45773927D01*
X56741258Y-45769000D01*
X56918742Y-45769000D01*
X56943512Y-45773927D01*
G37*
G36*
X59483512Y-45773927D02*
G01*
X59632812Y-45803624D01*
X59796784Y-45871544D01*
X59944354Y-45970147D01*
X60069853Y-46095646D01*
X60168456Y-46243216D01*
X60236376Y-46407188D01*
X60271000Y-46581259D01*
X60271000Y-46758741D01*
X60236376Y-46932812D01*
X60168456Y-47096784D01*
X60069853Y-47244354D01*
X59944354Y-47369853D01*
X59796784Y-47468456D01*
X59632812Y-47536376D01*
X59483512Y-47566073D01*
X59458742Y-47571000D01*
X59281258Y-47571000D01*
X59256488Y-47566073D01*
X59107188Y-47536376D01*
X58943216Y-47468456D01*
X58795646Y-47369853D01*
X58670147Y-47244354D01*
X58571544Y-47096784D01*
X58503624Y-46932812D01*
X58469000Y-46758741D01*
X58469000Y-46581259D01*
X58503624Y-46407188D01*
X58571544Y-46243216D01*
X58670147Y-46095646D01*
X58795646Y-45970147D01*
X58943216Y-45871544D01*
X59107188Y-45803624D01*
X59256488Y-45773927D01*
X59281258Y-45769000D01*
X59458742Y-45769000D01*
X59483512Y-45773927D01*
G37*
G36*
X64563512Y-45773927D02*
G01*
X64712812Y-45803624D01*
X64876784Y-45871544D01*
X65024354Y-45970147D01*
X65149853Y-46095646D01*
X65248456Y-46243216D01*
X65316376Y-46407188D01*
X65351000Y-46581259D01*
X65351000Y-46758741D01*
X65316376Y-46932812D01*
X65248456Y-47096784D01*
X65149853Y-47244354D01*
X65024354Y-47369853D01*
X64876784Y-47468456D01*
X64712812Y-47536376D01*
X64563512Y-47566073D01*
X64538742Y-47571000D01*
X64361258Y-47571000D01*
X64336488Y-47566073D01*
X64187188Y-47536376D01*
X64023216Y-47468456D01*
X63875646Y-47369853D01*
X63750147Y-47244354D01*
X63651544Y-47096784D01*
X63583624Y-46932812D01*
X63549000Y-46758741D01*
X63549000Y-46581259D01*
X63583624Y-46407188D01*
X63651544Y-46243216D01*
X63750147Y-46095646D01*
X63875646Y-45970147D01*
X64023216Y-45871544D01*
X64187188Y-45803624D01*
X64336488Y-45773927D01*
X64361258Y-45769000D01*
X64538742Y-45769000D01*
X64563512Y-45773927D01*
G37*
G36*
X62023512Y-45773927D02*
G01*
X62172812Y-45803624D01*
X62336784Y-45871544D01*
X62484354Y-45970147D01*
X62609853Y-46095646D01*
X62708456Y-46243216D01*
X62776376Y-46407188D01*
X62811000Y-46581259D01*
X62811000Y-46758741D01*
X62776376Y-46932812D01*
X62708456Y-47096784D01*
X62609853Y-47244354D01*
X62484354Y-47369853D01*
X62336784Y-47468456D01*
X62172812Y-47536376D01*
X62023512Y-47566073D01*
X61998742Y-47571000D01*
X61821258Y-47571000D01*
X61796488Y-47566073D01*
X61647188Y-47536376D01*
X61483216Y-47468456D01*
X61335646Y-47369853D01*
X61210147Y-47244354D01*
X61111544Y-47096784D01*
X61043624Y-46932812D01*
X61009000Y-46758741D01*
X61009000Y-46581259D01*
X61043624Y-46407188D01*
X61111544Y-46243216D01*
X61210147Y-46095646D01*
X61335646Y-45970147D01*
X61483216Y-45871544D01*
X61647188Y-45803624D01*
X61796488Y-45773927D01*
X61821258Y-45769000D01*
X61998742Y-45769000D01*
X62023512Y-45773927D01*
G37*
G36*
X67103512Y-45773927D02*
G01*
X67252812Y-45803624D01*
X67416784Y-45871544D01*
X67564354Y-45970147D01*
X67689853Y-46095646D01*
X67788456Y-46243216D01*
X67856376Y-46407188D01*
X67891000Y-46581259D01*
X67891000Y-46758741D01*
X67856376Y-46932812D01*
X67788456Y-47096784D01*
X67689853Y-47244354D01*
X67564354Y-47369853D01*
X67416784Y-47468456D01*
X67252812Y-47536376D01*
X67103512Y-47566073D01*
X67078742Y-47571000D01*
X66901258Y-47571000D01*
X66876488Y-47566073D01*
X66727188Y-47536376D01*
X66563216Y-47468456D01*
X66415646Y-47369853D01*
X66290147Y-47244354D01*
X66191544Y-47096784D01*
X66123624Y-46932812D01*
X66089000Y-46758741D01*
X66089000Y-46581259D01*
X66123624Y-46407188D01*
X66191544Y-46243216D01*
X66290147Y-46095646D01*
X66415646Y-45970147D01*
X66563216Y-45871544D01*
X66727188Y-45803624D01*
X66876488Y-45773927D01*
X66901258Y-45769000D01*
X67078742Y-45769000D01*
X67103512Y-45773927D01*
G37*
G36*
X74912585Y-42608802D02*
G01*
X75062410Y-42638604D01*
X75344674Y-42755521D01*
X75598705Y-42925259D01*
X75814741Y-43141295D01*
X75984479Y-43395326D01*
X76101396Y-43677590D01*
X76161000Y-43977240D01*
X76161000Y-44282760D01*
X76101396Y-44582410D01*
X75984479Y-44864674D01*
X75814741Y-45118705D01*
X75598705Y-45334741D01*
X75344674Y-45504479D01*
X75062410Y-45621396D01*
X74912585Y-45651198D01*
X74762761Y-45681000D01*
X74457239Y-45681000D01*
X74307415Y-45651198D01*
X74157590Y-45621396D01*
X73875326Y-45504479D01*
X73621295Y-45334741D01*
X73405259Y-45118705D01*
X73235521Y-44864674D01*
X73118604Y-44582410D01*
X73059000Y-44282760D01*
X73059000Y-43977240D01*
X73118604Y-43677590D01*
X73235521Y-43395326D01*
X73405259Y-43141295D01*
X73621295Y-42925259D01*
X73875326Y-42755521D01*
X74157590Y-42638604D01*
X74307415Y-42608802D01*
X74457239Y-42579000D01*
X74762761Y-42579000D01*
X74912585Y-42608802D01*
G37*
G36*
X24112585Y-42608802D02*
G01*
X24262410Y-42638604D01*
X24544674Y-42755521D01*
X24798705Y-42925259D01*
X25014741Y-43141295D01*
X25184479Y-43395326D01*
X25301396Y-43677590D01*
X25361000Y-43977240D01*
X25361000Y-44282760D01*
X25301396Y-44582410D01*
X25184479Y-44864674D01*
X25014741Y-45118705D01*
X24798705Y-45334741D01*
X24544674Y-45504479D01*
X24262410Y-45621396D01*
X24112585Y-45651198D01*
X23962761Y-45681000D01*
X23657239Y-45681000D01*
X23507415Y-45651198D01*
X23357590Y-45621396D01*
X23075326Y-45504479D01*
X22821295Y-45334741D01*
X22605259Y-45118705D01*
X22435521Y-44864674D01*
X22318604Y-44582410D01*
X22259000Y-44282760D01*
X22259000Y-43977240D01*
X22318604Y-43677590D01*
X22435521Y-43395326D01*
X22605259Y-43141295D01*
X22821295Y-42925259D01*
X23075326Y-42755521D01*
X23357590Y-42638604D01*
X23507415Y-42608802D01*
X23657239Y-42579000D01*
X23962761Y-42579000D01*
X24112585Y-42608802D01*
G37*
G36*
X69909393Y-37799304D02*
G01*
X70146101Y-37897352D01*
X70146103Y-37897353D01*
X70359135Y-38039696D01*
X70540304Y-38220865D01*
X70682647Y-38433897D01*
X70682648Y-38433899D01*
X70780696Y-38670607D01*
X70830680Y-38921893D01*
X70830680Y-39178107D01*
X70780696Y-39429393D01*
X70682648Y-39666101D01*
X70682647Y-39666103D01*
X70540304Y-39879135D01*
X70359135Y-40060304D01*
X70146103Y-40202647D01*
X70146102Y-40202648D01*
X70146101Y-40202648D01*
X69909393Y-40300696D01*
X69658107Y-40350680D01*
X69401893Y-40350680D01*
X69150607Y-40300696D01*
X68913899Y-40202648D01*
X68913898Y-40202648D01*
X68913897Y-40202647D01*
X68700865Y-40060304D01*
X68519696Y-39879135D01*
X68377353Y-39666103D01*
X68377352Y-39666101D01*
X68279304Y-39429393D01*
X68229320Y-39178107D01*
X68229320Y-38921893D01*
X68279304Y-38670607D01*
X68377352Y-38433899D01*
X68377353Y-38433897D01*
X68519696Y-38220865D01*
X68700865Y-38039696D01*
X68913897Y-37897353D01*
X68913899Y-37897352D01*
X69150607Y-37799304D01*
X69401893Y-37749320D01*
X69658107Y-37749320D01*
X69909393Y-37799304D01*
G37*
G36*
X29269393Y-37799304D02*
G01*
X29506101Y-37897352D01*
X29506103Y-37897353D01*
X29719135Y-38039696D01*
X29900304Y-38220865D01*
X30042647Y-38433897D01*
X30042648Y-38433899D01*
X30140696Y-38670607D01*
X30190680Y-38921893D01*
X30190680Y-39178107D01*
X30140696Y-39429393D01*
X30042648Y-39666101D01*
X30042647Y-39666103D01*
X29900304Y-39879135D01*
X29719135Y-40060304D01*
X29506103Y-40202647D01*
X29506102Y-40202648D01*
X29506101Y-40202648D01*
X29269393Y-40300696D01*
X29018107Y-40350680D01*
X28761893Y-40350680D01*
X28510607Y-40300696D01*
X28273899Y-40202648D01*
X28273898Y-40202648D01*
X28273897Y-40202647D01*
X28060865Y-40060304D01*
X27879696Y-39879135D01*
X27737353Y-39666103D01*
X27737352Y-39666101D01*
X27639304Y-39429393D01*
X27589320Y-39178107D01*
X27589320Y-38921893D01*
X27639304Y-38670607D01*
X27737352Y-38433899D01*
X27737353Y-38433897D01*
X27879696Y-38220865D01*
X28060865Y-38039696D01*
X28273897Y-37897353D01*
X28273899Y-37897352D01*
X28510607Y-37799304D01*
X28761893Y-37749320D01*
X29018107Y-37749320D01*
X29269393Y-37799304D01*
G37*
G36*
X24112585Y-32448802D02*
G01*
X24262410Y-32478604D01*
X24544674Y-32595521D01*
X24798705Y-32765259D01*
X25014741Y-32981295D01*
X25184479Y-33235326D01*
X25301396Y-33517590D01*
X25361000Y-33817240D01*
X25361000Y-34122760D01*
X25301396Y-34422410D01*
X25184479Y-34704674D01*
X25014741Y-34958705D01*
X24798705Y-35174741D01*
X24544674Y-35344479D01*
X24262410Y-35461396D01*
X24112585Y-35491198D01*
X23962761Y-35521000D01*
X23657239Y-35521000D01*
X23507415Y-35491198D01*
X23357590Y-35461396D01*
X23075326Y-35344479D01*
X22821295Y-35174741D01*
X22605259Y-34958705D01*
X22435521Y-34704674D01*
X22318604Y-34422410D01*
X22259000Y-34122760D01*
X22259000Y-33817240D01*
X22318604Y-33517590D01*
X22435521Y-33235326D01*
X22605259Y-32981295D01*
X22821295Y-32765259D01*
X23075326Y-32595521D01*
X23357590Y-32478604D01*
X23507415Y-32448802D01*
X23657239Y-32419000D01*
X23962761Y-32419000D01*
X24112585Y-32448802D01*
G37*
G36*
X74912585Y-32448802D02*
G01*
X75062410Y-32478604D01*
X75344674Y-32595521D01*
X75598705Y-32765259D01*
X75814741Y-32981295D01*
X75984479Y-33235326D01*
X76101396Y-33517590D01*
X76161000Y-33817240D01*
X76161000Y-34122760D01*
X76101396Y-34422410D01*
X75984479Y-34704674D01*
X75814741Y-34958705D01*
X75598705Y-35174741D01*
X75344674Y-35344479D01*
X75062410Y-35461396D01*
X74912585Y-35491198D01*
X74762761Y-35521000D01*
X74457239Y-35521000D01*
X74307415Y-35491198D01*
X74157590Y-35461396D01*
X73875326Y-35344479D01*
X73621295Y-35174741D01*
X73405259Y-34958705D01*
X73235521Y-34704674D01*
X73118604Y-34422410D01*
X73059000Y-34122760D01*
X73059000Y-33817240D01*
X73118604Y-33517590D01*
X73235521Y-33235326D01*
X73405259Y-32981295D01*
X73621295Y-32765259D01*
X73875326Y-32595521D01*
X74157590Y-32478604D01*
X74307415Y-32448802D01*
X74457239Y-32419000D01*
X74762761Y-32419000D01*
X74912585Y-32448802D01*
G37*
G36*
X64563512Y-30533927D02*
G01*
X64712812Y-30563624D01*
X64876784Y-30631544D01*
X65024354Y-30730147D01*
X65149853Y-30855646D01*
X65248456Y-31003216D01*
X65316376Y-31167188D01*
X65351000Y-31341259D01*
X65351000Y-31518741D01*
X65316376Y-31692812D01*
X65248456Y-31856784D01*
X65149853Y-32004354D01*
X65024354Y-32129853D01*
X64876784Y-32228456D01*
X64712812Y-32296376D01*
X64563512Y-32326073D01*
X64538742Y-32331000D01*
X64361258Y-32331000D01*
X64336488Y-32326073D01*
X64187188Y-32296376D01*
X64023216Y-32228456D01*
X63875646Y-32129853D01*
X63750147Y-32004354D01*
X63651544Y-31856784D01*
X63583624Y-31692812D01*
X63549000Y-31518741D01*
X63549000Y-31341259D01*
X63583624Y-31167188D01*
X63651544Y-31003216D01*
X63750147Y-30855646D01*
X63875646Y-30730147D01*
X64023216Y-30631544D01*
X64187188Y-30563624D01*
X64336488Y-30533927D01*
X64361258Y-30529000D01*
X64538742Y-30529000D01*
X64563512Y-30533927D01*
G37*
G36*
X67891000Y-32331000D02*
G01*
X66089000Y-32331000D01*
X66089000Y-30529000D01*
X67891000Y-30529000D01*
X67891000Y-32331000D01*
G37*
G36*
X62023512Y-30533927D02*
G01*
X62172812Y-30563624D01*
X62336784Y-30631544D01*
X62484354Y-30730147D01*
X62609853Y-30855646D01*
X62708456Y-31003216D01*
X62776376Y-31167188D01*
X62811000Y-31341259D01*
X62811000Y-31518741D01*
X62776376Y-31692812D01*
X62708456Y-31856784D01*
X62609853Y-32004354D01*
X62484354Y-32129853D01*
X62336784Y-32228456D01*
X62172812Y-32296376D01*
X62023512Y-32326073D01*
X61998742Y-32331000D01*
X61821258Y-32331000D01*
X61796488Y-32326073D01*
X61647188Y-32296376D01*
X61483216Y-32228456D01*
X61335646Y-32129853D01*
X61210147Y-32004354D01*
X61111544Y-31856784D01*
X61043624Y-31692812D01*
X61009000Y-31518741D01*
X61009000Y-31341259D01*
X61043624Y-31167188D01*
X61111544Y-31003216D01*
X61210147Y-30855646D01*
X61335646Y-30730147D01*
X61483216Y-30631544D01*
X61647188Y-30563624D01*
X61796488Y-30533927D01*
X61821258Y-30529000D01*
X61998742Y-30529000D01*
X62023512Y-30533927D01*
G37*
G36*
X59483512Y-30533927D02*
G01*
X59632812Y-30563624D01*
X59796784Y-30631544D01*
X59944354Y-30730147D01*
X60069853Y-30855646D01*
X60168456Y-31003216D01*
X60236376Y-31167188D01*
X60271000Y-31341259D01*
X60271000Y-31518741D01*
X60236376Y-31692812D01*
X60168456Y-31856784D01*
X60069853Y-32004354D01*
X59944354Y-32129853D01*
X59796784Y-32228456D01*
X59632812Y-32296376D01*
X59483512Y-32326073D01*
X59458742Y-32331000D01*
X59281258Y-32331000D01*
X59256488Y-32326073D01*
X59107188Y-32296376D01*
X58943216Y-32228456D01*
X58795646Y-32129853D01*
X58670147Y-32004354D01*
X58571544Y-31856784D01*
X58503624Y-31692812D01*
X58469000Y-31518741D01*
X58469000Y-31341259D01*
X58503624Y-31167188D01*
X58571544Y-31003216D01*
X58670147Y-30855646D01*
X58795646Y-30730147D01*
X58943216Y-30631544D01*
X59107188Y-30563624D01*
X59256488Y-30533927D01*
X59281258Y-30529000D01*
X59458742Y-30529000D01*
X59483512Y-30533927D01*
G37*
G36*
X46783512Y-30533927D02*
G01*
X46932812Y-30563624D01*
X47096784Y-30631544D01*
X47244354Y-30730147D01*
X47369853Y-30855646D01*
X47468456Y-31003216D01*
X47536376Y-31167188D01*
X47571000Y-31341259D01*
X47571000Y-31518741D01*
X47536376Y-31692812D01*
X47468456Y-31856784D01*
X47369853Y-32004354D01*
X47244354Y-32129853D01*
X47096784Y-32228456D01*
X46932812Y-32296376D01*
X46783512Y-32326073D01*
X46758742Y-32331000D01*
X46581258Y-32331000D01*
X46556488Y-32326073D01*
X46407188Y-32296376D01*
X46243216Y-32228456D01*
X46095646Y-32129853D01*
X45970147Y-32004354D01*
X45871544Y-31856784D01*
X45803624Y-31692812D01*
X45769000Y-31518741D01*
X45769000Y-31341259D01*
X45803624Y-31167188D01*
X45871544Y-31003216D01*
X45970147Y-30855646D01*
X46095646Y-30730147D01*
X46243216Y-30631544D01*
X46407188Y-30563624D01*
X46556488Y-30533927D01*
X46581258Y-30529000D01*
X46758742Y-30529000D01*
X46783512Y-30533927D01*
G37*
G36*
X51863512Y-30533927D02*
G01*
X52012812Y-30563624D01*
X52176784Y-30631544D01*
X52324354Y-30730147D01*
X52449853Y-30855646D01*
X52548456Y-31003216D01*
X52616376Y-31167188D01*
X52651000Y-31341259D01*
X52651000Y-31518741D01*
X52616376Y-31692812D01*
X52548456Y-31856784D01*
X52449853Y-32004354D01*
X52324354Y-32129853D01*
X52176784Y-32228456D01*
X52012812Y-32296376D01*
X51863512Y-32326073D01*
X51838742Y-32331000D01*
X51661258Y-32331000D01*
X51636488Y-32326073D01*
X51487188Y-32296376D01*
X51323216Y-32228456D01*
X51175646Y-32129853D01*
X51050147Y-32004354D01*
X50951544Y-31856784D01*
X50883624Y-31692812D01*
X50849000Y-31518741D01*
X50849000Y-31341259D01*
X50883624Y-31167188D01*
X50951544Y-31003216D01*
X51050147Y-30855646D01*
X51175646Y-30730147D01*
X51323216Y-30631544D01*
X51487188Y-30563624D01*
X51636488Y-30533927D01*
X51661258Y-30529000D01*
X51838742Y-30529000D01*
X51863512Y-30533927D01*
G37*
G36*
X49323512Y-30533927D02*
G01*
X49472812Y-30563624D01*
X49636784Y-30631544D01*
X49784354Y-30730147D01*
X49909853Y-30855646D01*
X50008456Y-31003216D01*
X50076376Y-31167188D01*
X50111000Y-31341259D01*
X50111000Y-31518741D01*
X50076376Y-31692812D01*
X50008456Y-31856784D01*
X49909853Y-32004354D01*
X49784354Y-32129853D01*
X49636784Y-32228456D01*
X49472812Y-32296376D01*
X49323512Y-32326073D01*
X49298742Y-32331000D01*
X49121258Y-32331000D01*
X49096488Y-32326073D01*
X48947188Y-32296376D01*
X48783216Y-32228456D01*
X48635646Y-32129853D01*
X48510147Y-32004354D01*
X48411544Y-31856784D01*
X48343624Y-31692812D01*
X48309000Y-31518741D01*
X48309000Y-31341259D01*
X48343624Y-31167188D01*
X48411544Y-31003216D01*
X48510147Y-30855646D01*
X48635646Y-30730147D01*
X48783216Y-30631544D01*
X48947188Y-30563624D01*
X49096488Y-30533927D01*
X49121258Y-30529000D01*
X49298742Y-30529000D01*
X49323512Y-30533927D01*
G37*
G36*
X44243512Y-30533927D02*
G01*
X44392812Y-30563624D01*
X44556784Y-30631544D01*
X44704354Y-30730147D01*
X44829853Y-30855646D01*
X44928456Y-31003216D01*
X44996376Y-31167188D01*
X45031000Y-31341259D01*
X45031000Y-31518741D01*
X44996376Y-31692812D01*
X44928456Y-31856784D01*
X44829853Y-32004354D01*
X44704354Y-32129853D01*
X44556784Y-32228456D01*
X44392812Y-32296376D01*
X44243512Y-32326073D01*
X44218742Y-32331000D01*
X44041258Y-32331000D01*
X44016488Y-32326073D01*
X43867188Y-32296376D01*
X43703216Y-32228456D01*
X43555646Y-32129853D01*
X43430147Y-32004354D01*
X43331544Y-31856784D01*
X43263624Y-31692812D01*
X43229000Y-31518741D01*
X43229000Y-31341259D01*
X43263624Y-31167188D01*
X43331544Y-31003216D01*
X43430147Y-30855646D01*
X43555646Y-30730147D01*
X43703216Y-30631544D01*
X43867188Y-30563624D01*
X44016488Y-30533927D01*
X44041258Y-30529000D01*
X44218742Y-30529000D01*
X44243512Y-30533927D01*
G37*
G36*
X41703512Y-30533927D02*
G01*
X41852812Y-30563624D01*
X42016784Y-30631544D01*
X42164354Y-30730147D01*
X42289853Y-30855646D01*
X42388456Y-31003216D01*
X42456376Y-31167188D01*
X42491000Y-31341259D01*
X42491000Y-31518741D01*
X42456376Y-31692812D01*
X42388456Y-31856784D01*
X42289853Y-32004354D01*
X42164354Y-32129853D01*
X42016784Y-32228456D01*
X41852812Y-32296376D01*
X41703512Y-32326073D01*
X41678742Y-32331000D01*
X41501258Y-32331000D01*
X41476488Y-32326073D01*
X41327188Y-32296376D01*
X41163216Y-32228456D01*
X41015646Y-32129853D01*
X40890147Y-32004354D01*
X40791544Y-31856784D01*
X40723624Y-31692812D01*
X40689000Y-31518741D01*
X40689000Y-31341259D01*
X40723624Y-31167188D01*
X40791544Y-31003216D01*
X40890147Y-30855646D01*
X41015646Y-30730147D01*
X41163216Y-30631544D01*
X41327188Y-30563624D01*
X41476488Y-30533927D01*
X41501258Y-30529000D01*
X41678742Y-30529000D01*
X41703512Y-30533927D01*
G37*
G36*
X39163512Y-30533927D02*
G01*
X39312812Y-30563624D01*
X39476784Y-30631544D01*
X39624354Y-30730147D01*
X39749853Y-30855646D01*
X39848456Y-31003216D01*
X39916376Y-31167188D01*
X39951000Y-31341259D01*
X39951000Y-31518741D01*
X39916376Y-31692812D01*
X39848456Y-31856784D01*
X39749853Y-32004354D01*
X39624354Y-32129853D01*
X39476784Y-32228456D01*
X39312812Y-32296376D01*
X39163512Y-32326073D01*
X39138742Y-32331000D01*
X38961258Y-32331000D01*
X38936488Y-32326073D01*
X38787188Y-32296376D01*
X38623216Y-32228456D01*
X38475646Y-32129853D01*
X38350147Y-32004354D01*
X38251544Y-31856784D01*
X38183624Y-31692812D01*
X38149000Y-31518741D01*
X38149000Y-31341259D01*
X38183624Y-31167188D01*
X38251544Y-31003216D01*
X38350147Y-30855646D01*
X38475646Y-30730147D01*
X38623216Y-30631544D01*
X38787188Y-30563624D01*
X38936488Y-30533927D01*
X38961258Y-30529000D01*
X39138742Y-30529000D01*
X39163512Y-30533927D01*
G37*
G36*
X36623512Y-30533927D02*
G01*
X36772812Y-30563624D01*
X36936784Y-30631544D01*
X37084354Y-30730147D01*
X37209853Y-30855646D01*
X37308456Y-31003216D01*
X37376376Y-31167188D01*
X37411000Y-31341259D01*
X37411000Y-31518741D01*
X37376376Y-31692812D01*
X37308456Y-31856784D01*
X37209853Y-32004354D01*
X37084354Y-32129853D01*
X36936784Y-32228456D01*
X36772812Y-32296376D01*
X36623512Y-32326073D01*
X36598742Y-32331000D01*
X36421258Y-32331000D01*
X36396488Y-32326073D01*
X36247188Y-32296376D01*
X36083216Y-32228456D01*
X35935646Y-32129853D01*
X35810147Y-32004354D01*
X35711544Y-31856784D01*
X35643624Y-31692812D01*
X35609000Y-31518741D01*
X35609000Y-31341259D01*
X35643624Y-31167188D01*
X35711544Y-31003216D01*
X35810147Y-30855646D01*
X35935646Y-30730147D01*
X36083216Y-30631544D01*
X36247188Y-30563624D01*
X36396488Y-30533927D01*
X36421258Y-30529000D01*
X36598742Y-30529000D01*
X36623512Y-30533927D01*
G37*
G36*
X34083512Y-30533927D02*
G01*
X34232812Y-30563624D01*
X34396784Y-30631544D01*
X34544354Y-30730147D01*
X34669853Y-30855646D01*
X34768456Y-31003216D01*
X34836376Y-31167188D01*
X34871000Y-31341259D01*
X34871000Y-31518741D01*
X34836376Y-31692812D01*
X34768456Y-31856784D01*
X34669853Y-32004354D01*
X34544354Y-32129853D01*
X34396784Y-32228456D01*
X34232812Y-32296376D01*
X34083512Y-32326073D01*
X34058742Y-32331000D01*
X33881258Y-32331000D01*
X33856488Y-32326073D01*
X33707188Y-32296376D01*
X33543216Y-32228456D01*
X33395646Y-32129853D01*
X33270147Y-32004354D01*
X33171544Y-31856784D01*
X33103624Y-31692812D01*
X33069000Y-31518741D01*
X33069000Y-31341259D01*
X33103624Y-31167188D01*
X33171544Y-31003216D01*
X33270147Y-30855646D01*
X33395646Y-30730147D01*
X33543216Y-30631544D01*
X33707188Y-30563624D01*
X33856488Y-30533927D01*
X33881258Y-30529000D01*
X34058742Y-30529000D01*
X34083512Y-30533927D01*
G37*
G36*
X31543512Y-30533927D02*
G01*
X31692812Y-30563624D01*
X31856784Y-30631544D01*
X32004354Y-30730147D01*
X32129853Y-30855646D01*
X32228456Y-31003216D01*
X32296376Y-31167188D01*
X32331000Y-31341259D01*
X32331000Y-31518741D01*
X32296376Y-31692812D01*
X32228456Y-31856784D01*
X32129853Y-32004354D01*
X32004354Y-32129853D01*
X31856784Y-32228456D01*
X31692812Y-32296376D01*
X31543512Y-32326073D01*
X31518742Y-32331000D01*
X31341258Y-32331000D01*
X31316488Y-32326073D01*
X31167188Y-32296376D01*
X31003216Y-32228456D01*
X30855646Y-32129853D01*
X30730147Y-32004354D01*
X30631544Y-31856784D01*
X30563624Y-31692812D01*
X30529000Y-31518741D01*
X30529000Y-31341259D01*
X30563624Y-31167188D01*
X30631544Y-31003216D01*
X30730147Y-30855646D01*
X30855646Y-30730147D01*
X31003216Y-30631544D01*
X31167188Y-30563624D01*
X31316488Y-30533927D01*
X31341258Y-30529000D01*
X31518742Y-30529000D01*
X31543512Y-30533927D01*
G37*
G36*
X54403512Y-30533927D02*
G01*
X54552812Y-30563624D01*
X54716784Y-30631544D01*
X54864354Y-30730147D01*
X54989853Y-30855646D01*
X55088456Y-31003216D01*
X55156376Y-31167188D01*
X55191000Y-31341259D01*
X55191000Y-31518741D01*
X55156376Y-31692812D01*
X55088456Y-31856784D01*
X54989853Y-32004354D01*
X54864354Y-32129853D01*
X54716784Y-32228456D01*
X54552812Y-32296376D01*
X54403512Y-32326073D01*
X54378742Y-32331000D01*
X54201258Y-32331000D01*
X54176488Y-32326073D01*
X54027188Y-32296376D01*
X53863216Y-32228456D01*
X53715646Y-32129853D01*
X53590147Y-32004354D01*
X53491544Y-31856784D01*
X53423624Y-31692812D01*
X53389000Y-31518741D01*
X53389000Y-31341259D01*
X53423624Y-31167188D01*
X53491544Y-31003216D01*
X53590147Y-30855646D01*
X53715646Y-30730147D01*
X53863216Y-30631544D01*
X54027188Y-30563624D01*
X54176488Y-30533927D01*
X54201258Y-30529000D01*
X54378742Y-30529000D01*
X54403512Y-30533927D01*
G37*
G36*
X56943512Y-30533927D02*
G01*
X57092812Y-30563624D01*
X57256784Y-30631544D01*
X57404354Y-30730147D01*
X57529853Y-30855646D01*
X57628456Y-31003216D01*
X57696376Y-31167188D01*
X57731000Y-31341259D01*
X57731000Y-31518741D01*
X57696376Y-31692812D01*
X57628456Y-31856784D01*
X57529853Y-32004354D01*
X57404354Y-32129853D01*
X57256784Y-32228456D01*
X57092812Y-32296376D01*
X56943512Y-32326073D01*
X56918742Y-32331000D01*
X56741258Y-32331000D01*
X56716488Y-32326073D01*
X56567188Y-32296376D01*
X56403216Y-32228456D01*
X56255646Y-32129853D01*
X56130147Y-32004354D01*
X56031544Y-31856784D01*
X55963624Y-31692812D01*
X55929000Y-31518741D01*
X55929000Y-31341259D01*
X55963624Y-31167188D01*
X56031544Y-31003216D01*
X56130147Y-30855646D01*
X56255646Y-30730147D01*
X56403216Y-30631544D01*
X56567188Y-30563624D01*
X56716488Y-30533927D01*
X56741258Y-30529000D01*
X56918742Y-30529000D01*
X56943512Y-30533927D01*
G37*
G36*
X25074903Y-23054075D02*
G01*
X25302571Y-23148378D01*
X25507466Y-23285285D01*
X25681715Y-23459534D01*
X25818622Y-23664429D01*
X25912925Y-23892097D01*
X25961000Y-24133787D01*
X25961000Y-24380213D01*
X25912925Y-24621903D01*
X25818622Y-24849571D01*
X25681715Y-25054466D01*
X25507466Y-25228715D01*
X25302571Y-25365622D01*
X25302570Y-25365623D01*
X25302569Y-25365623D01*
X25074903Y-25459925D01*
X24833214Y-25508000D01*
X24586786Y-25508000D01*
X24345097Y-25459925D01*
X24117431Y-25365623D01*
X24117430Y-25365623D01*
X24117429Y-25365622D01*
X23912534Y-25228715D01*
X23738285Y-25054466D01*
X23601378Y-24849571D01*
X23507075Y-24621903D01*
X23459000Y-24380213D01*
X23459000Y-24133787D01*
X23507075Y-23892097D01*
X23601378Y-23664429D01*
X23738285Y-23459534D01*
X23912534Y-23285285D01*
X24117429Y-23148378D01*
X24345097Y-23054075D01*
X24586786Y-23006000D01*
X24833214Y-23006000D01*
X25074903Y-23054075D01*
G37*
G36*
X32074903Y-23054075D02*
G01*
X32302571Y-23148378D01*
X32507466Y-23285285D01*
X32681715Y-23459534D01*
X32818622Y-23664429D01*
X32912925Y-23892097D01*
X32961000Y-24133787D01*
X32961000Y-24380213D01*
X32912925Y-24621903D01*
X32818622Y-24849571D01*
X32681715Y-25054466D01*
X32507466Y-25228715D01*
X32302571Y-25365622D01*
X32302570Y-25365623D01*
X32302569Y-25365623D01*
X32074903Y-25459925D01*
X31833214Y-25508000D01*
X31586786Y-25508000D01*
X31345097Y-25459925D01*
X31117431Y-25365623D01*
X31117430Y-25365623D01*
X31117429Y-25365622D01*
X30912534Y-25228715D01*
X30738285Y-25054466D01*
X30601378Y-24849571D01*
X30507075Y-24621903D01*
X30459000Y-24380213D01*
X30459000Y-24133787D01*
X30507075Y-23892097D01*
X30601378Y-23664429D01*
X30738285Y-23459534D01*
X30912534Y-23285285D01*
X31117429Y-23148378D01*
X31345097Y-23054075D01*
X31586786Y-23006000D01*
X31833214Y-23006000D01*
X32074903Y-23054075D01*
G37*
G36*
X39074903Y-23054075D02*
G01*
X39302571Y-23148378D01*
X39507466Y-23285285D01*
X39681715Y-23459534D01*
X39818622Y-23664429D01*
X39912925Y-23892097D01*
X39961000Y-24133787D01*
X39961000Y-24380213D01*
X39912925Y-24621903D01*
X39818622Y-24849571D01*
X39681715Y-25054466D01*
X39507466Y-25228715D01*
X39302571Y-25365622D01*
X39302570Y-25365623D01*
X39302569Y-25365623D01*
X39074903Y-25459925D01*
X38833214Y-25508000D01*
X38586786Y-25508000D01*
X38345097Y-25459925D01*
X38117431Y-25365623D01*
X38117430Y-25365623D01*
X38117429Y-25365622D01*
X37912534Y-25228715D01*
X37738285Y-25054466D01*
X37601378Y-24849571D01*
X37507075Y-24621903D01*
X37459000Y-24380213D01*
X37459000Y-24133787D01*
X37507075Y-23892097D01*
X37601378Y-23664429D01*
X37738285Y-23459534D01*
X37912534Y-23285285D01*
X38117429Y-23148378D01*
X38345097Y-23054075D01*
X38586786Y-23006000D01*
X38833214Y-23006000D01*
X39074903Y-23054075D01*
G37*
G36*
X35574903Y-23054075D02*
G01*
X35802571Y-23148378D01*
X36007466Y-23285285D01*
X36181715Y-23459534D01*
X36318622Y-23664429D01*
X36412925Y-23892097D01*
X36461000Y-24133787D01*
X36461000Y-24380213D01*
X36412925Y-24621903D01*
X36318622Y-24849571D01*
X36181715Y-25054466D01*
X36007466Y-25228715D01*
X35802571Y-25365622D01*
X35802570Y-25365623D01*
X35802569Y-25365623D01*
X35574903Y-25459925D01*
X35333214Y-25508000D01*
X35086786Y-25508000D01*
X34845097Y-25459925D01*
X34617431Y-25365623D01*
X34617430Y-25365623D01*
X34617429Y-25365622D01*
X34412534Y-25228715D01*
X34238285Y-25054466D01*
X34101378Y-24849571D01*
X34007075Y-24621903D01*
X33959000Y-24380213D01*
X33959000Y-24133787D01*
X34007075Y-23892097D01*
X34101378Y-23664429D01*
X34238285Y-23459534D01*
X34412534Y-23285285D01*
X34617429Y-23148378D01*
X34845097Y-23054075D01*
X35086786Y-23006000D01*
X35333214Y-23006000D01*
X35574903Y-23054075D01*
G37*
G36*
X74961000Y-25508000D02*
G01*
X72459000Y-25508000D01*
X72459000Y-23006000D01*
X74961000Y-23006000D01*
X74961000Y-25508000D01*
G37*
G36*
X70574903Y-23054075D02*
G01*
X70802571Y-23148378D01*
X71007466Y-23285285D01*
X71181715Y-23459534D01*
X71318622Y-23664429D01*
X71412925Y-23892097D01*
X71461000Y-24133787D01*
X71461000Y-24380213D01*
X71412925Y-24621903D01*
X71318622Y-24849571D01*
X71181715Y-25054466D01*
X71007466Y-25228715D01*
X70802571Y-25365622D01*
X70802570Y-25365623D01*
X70802569Y-25365623D01*
X70574903Y-25459925D01*
X70333214Y-25508000D01*
X70086786Y-25508000D01*
X69845097Y-25459925D01*
X69617431Y-25365623D01*
X69617430Y-25365623D01*
X69617429Y-25365622D01*
X69412534Y-25228715D01*
X69238285Y-25054466D01*
X69101378Y-24849571D01*
X69007075Y-24621903D01*
X68959000Y-24380213D01*
X68959000Y-24133787D01*
X69007075Y-23892097D01*
X69101378Y-23664429D01*
X69238285Y-23459534D01*
X69412534Y-23285285D01*
X69617429Y-23148378D01*
X69845097Y-23054075D01*
X70086786Y-23006000D01*
X70333214Y-23006000D01*
X70574903Y-23054075D01*
G37*
G36*
X67074903Y-23054075D02*
G01*
X67302571Y-23148378D01*
X67507466Y-23285285D01*
X67681715Y-23459534D01*
X67818622Y-23664429D01*
X67912925Y-23892097D01*
X67961000Y-24133787D01*
X67961000Y-24380213D01*
X67912925Y-24621903D01*
X67818622Y-24849571D01*
X67681715Y-25054466D01*
X67507466Y-25228715D01*
X67302571Y-25365622D01*
X67302570Y-25365623D01*
X67302569Y-25365623D01*
X67074903Y-25459925D01*
X66833214Y-25508000D01*
X66586786Y-25508000D01*
X66345097Y-25459925D01*
X66117431Y-25365623D01*
X66117430Y-25365623D01*
X66117429Y-25365622D01*
X65912534Y-25228715D01*
X65738285Y-25054466D01*
X65601378Y-24849571D01*
X65507075Y-24621903D01*
X65459000Y-24380213D01*
X65459000Y-24133787D01*
X65507075Y-23892097D01*
X65601378Y-23664429D01*
X65738285Y-23459534D01*
X65912534Y-23285285D01*
X66117429Y-23148378D01*
X66345097Y-23054075D01*
X66586786Y-23006000D01*
X66833214Y-23006000D01*
X67074903Y-23054075D01*
G37*
G36*
X63574903Y-23054075D02*
G01*
X63802571Y-23148378D01*
X64007466Y-23285285D01*
X64181715Y-23459534D01*
X64318622Y-23664429D01*
X64412925Y-23892097D01*
X64461000Y-24133787D01*
X64461000Y-24380213D01*
X64412925Y-24621903D01*
X64318622Y-24849571D01*
X64181715Y-25054466D01*
X64007466Y-25228715D01*
X63802571Y-25365622D01*
X63802570Y-25365623D01*
X63802569Y-25365623D01*
X63574903Y-25459925D01*
X63333214Y-25508000D01*
X63086786Y-25508000D01*
X62845097Y-25459925D01*
X62617431Y-25365623D01*
X62617430Y-25365623D01*
X62617429Y-25365622D01*
X62412534Y-25228715D01*
X62238285Y-25054466D01*
X62101378Y-24849571D01*
X62007075Y-24621903D01*
X61959000Y-24380213D01*
X61959000Y-24133787D01*
X62007075Y-23892097D01*
X62101378Y-23664429D01*
X62238285Y-23459534D01*
X62412534Y-23285285D01*
X62617429Y-23148378D01*
X62845097Y-23054075D01*
X63086786Y-23006000D01*
X63333214Y-23006000D01*
X63574903Y-23054075D01*
G37*
G36*
X60074903Y-23054075D02*
G01*
X60302571Y-23148378D01*
X60507466Y-23285285D01*
X60681715Y-23459534D01*
X60818622Y-23664429D01*
X60912925Y-23892097D01*
X60961000Y-24133787D01*
X60961000Y-24380213D01*
X60912925Y-24621903D01*
X60818622Y-24849571D01*
X60681715Y-25054466D01*
X60507466Y-25228715D01*
X60302571Y-25365622D01*
X60302570Y-25365623D01*
X60302569Y-25365623D01*
X60074903Y-25459925D01*
X59833214Y-25508000D01*
X59586786Y-25508000D01*
X59345097Y-25459925D01*
X59117431Y-25365623D01*
X59117430Y-25365623D01*
X59117429Y-25365622D01*
X58912534Y-25228715D01*
X58738285Y-25054466D01*
X58601378Y-24849571D01*
X58507075Y-24621903D01*
X58459000Y-24380213D01*
X58459000Y-24133787D01*
X58507075Y-23892097D01*
X58601378Y-23664429D01*
X58738285Y-23459534D01*
X58912534Y-23285285D01*
X59117429Y-23148378D01*
X59345097Y-23054075D01*
X59586786Y-23006000D01*
X59833214Y-23006000D01*
X60074903Y-23054075D01*
G37*
G36*
X56574903Y-23054075D02*
G01*
X56802571Y-23148378D01*
X57007466Y-23285285D01*
X57181715Y-23459534D01*
X57318622Y-23664429D01*
X57412925Y-23892097D01*
X57461000Y-24133787D01*
X57461000Y-24380213D01*
X57412925Y-24621903D01*
X57318622Y-24849571D01*
X57181715Y-25054466D01*
X57007466Y-25228715D01*
X56802571Y-25365622D01*
X56802570Y-25365623D01*
X56802569Y-25365623D01*
X56574903Y-25459925D01*
X56333214Y-25508000D01*
X56086786Y-25508000D01*
X55845097Y-25459925D01*
X55617431Y-25365623D01*
X55617430Y-25365623D01*
X55617429Y-25365622D01*
X55412534Y-25228715D01*
X55238285Y-25054466D01*
X55101378Y-24849571D01*
X55007075Y-24621903D01*
X54959000Y-24380213D01*
X54959000Y-24133787D01*
X55007075Y-23892097D01*
X55101378Y-23664429D01*
X55238285Y-23459534D01*
X55412534Y-23285285D01*
X55617429Y-23148378D01*
X55845097Y-23054075D01*
X56086786Y-23006000D01*
X56333214Y-23006000D01*
X56574903Y-23054075D01*
G37*
G36*
X53074903Y-23054075D02*
G01*
X53302571Y-23148378D01*
X53507466Y-23285285D01*
X53681715Y-23459534D01*
X53818622Y-23664429D01*
X53912925Y-23892097D01*
X53961000Y-24133787D01*
X53961000Y-24380213D01*
X53912925Y-24621903D01*
X53818622Y-24849571D01*
X53681715Y-25054466D01*
X53507466Y-25228715D01*
X53302571Y-25365622D01*
X53302570Y-25365623D01*
X53302569Y-25365623D01*
X53074903Y-25459925D01*
X52833214Y-25508000D01*
X52586786Y-25508000D01*
X52345097Y-25459925D01*
X52117431Y-25365623D01*
X52117430Y-25365623D01*
X52117429Y-25365622D01*
X51912534Y-25228715D01*
X51738285Y-25054466D01*
X51601378Y-24849571D01*
X51507075Y-24621903D01*
X51459000Y-24380213D01*
X51459000Y-24133787D01*
X51507075Y-23892097D01*
X51601378Y-23664429D01*
X51738285Y-23459534D01*
X51912534Y-23285285D01*
X52117429Y-23148378D01*
X52345097Y-23054075D01*
X52586786Y-23006000D01*
X52833214Y-23006000D01*
X53074903Y-23054075D01*
G37*
G36*
X49574903Y-23054075D02*
G01*
X49802571Y-23148378D01*
X50007466Y-23285285D01*
X50181715Y-23459534D01*
X50318622Y-23664429D01*
X50412925Y-23892097D01*
X50461000Y-24133787D01*
X50461000Y-24380213D01*
X50412925Y-24621903D01*
X50318622Y-24849571D01*
X50181715Y-25054466D01*
X50007466Y-25228715D01*
X49802571Y-25365622D01*
X49802570Y-25365623D01*
X49802569Y-25365623D01*
X49574903Y-25459925D01*
X49333214Y-25508000D01*
X49086786Y-25508000D01*
X48845097Y-25459925D01*
X48617431Y-25365623D01*
X48617430Y-25365623D01*
X48617429Y-25365622D01*
X48412534Y-25228715D01*
X48238285Y-25054466D01*
X48101378Y-24849571D01*
X48007075Y-24621903D01*
X47959000Y-24380213D01*
X47959000Y-24133787D01*
X48007075Y-23892097D01*
X48101378Y-23664429D01*
X48238285Y-23459534D01*
X48412534Y-23285285D01*
X48617429Y-23148378D01*
X48845097Y-23054075D01*
X49086786Y-23006000D01*
X49333214Y-23006000D01*
X49574903Y-23054075D01*
G37*
G36*
X46074903Y-23054075D02*
G01*
X46302571Y-23148378D01*
X46507466Y-23285285D01*
X46681715Y-23459534D01*
X46818622Y-23664429D01*
X46912925Y-23892097D01*
X46961000Y-24133787D01*
X46961000Y-24380213D01*
X46912925Y-24621903D01*
X46818622Y-24849571D01*
X46681715Y-25054466D01*
X46507466Y-25228715D01*
X46302571Y-25365622D01*
X46302570Y-25365623D01*
X46302569Y-25365623D01*
X46074903Y-25459925D01*
X45833214Y-25508000D01*
X45586786Y-25508000D01*
X45345097Y-25459925D01*
X45117431Y-25365623D01*
X45117430Y-25365623D01*
X45117429Y-25365622D01*
X44912534Y-25228715D01*
X44738285Y-25054466D01*
X44601378Y-24849571D01*
X44507075Y-24621903D01*
X44459000Y-24380213D01*
X44459000Y-24133787D01*
X44507075Y-23892097D01*
X44601378Y-23664429D01*
X44738285Y-23459534D01*
X44912534Y-23285285D01*
X45117429Y-23148378D01*
X45345097Y-23054075D01*
X45586786Y-23006000D01*
X45833214Y-23006000D01*
X46074903Y-23054075D01*
G37*
G36*
X28574903Y-23054075D02*
G01*
X28802571Y-23148378D01*
X29007466Y-23285285D01*
X29181715Y-23459534D01*
X29318622Y-23664429D01*
X29412925Y-23892097D01*
X29461000Y-24133787D01*
X29461000Y-24380213D01*
X29412925Y-24621903D01*
X29318622Y-24849571D01*
X29181715Y-25054466D01*
X29007466Y-25228715D01*
X28802571Y-25365622D01*
X28802570Y-25365623D01*
X28802569Y-25365623D01*
X28574903Y-25459925D01*
X28333214Y-25508000D01*
X28086786Y-25508000D01*
X27845097Y-25459925D01*
X27617431Y-25365623D01*
X27617430Y-25365623D01*
X27617429Y-25365622D01*
X27412534Y-25228715D01*
X27238285Y-25054466D01*
X27101378Y-24849571D01*
X27007075Y-24621903D01*
X26959000Y-24380213D01*
X26959000Y-24133787D01*
X27007075Y-23892097D01*
X27101378Y-23664429D01*
X27238285Y-23459534D01*
X27412534Y-23285285D01*
X27617429Y-23148378D01*
X27845097Y-23054075D01*
X28086786Y-23006000D01*
X28333214Y-23006000D01*
X28574903Y-23054075D01*
G37*
G36*
X42574903Y-23054075D02*
G01*
X42802571Y-23148378D01*
X43007466Y-23285285D01*
X43181715Y-23459534D01*
X43318622Y-23664429D01*
X43412925Y-23892097D01*
X43461000Y-24133787D01*
X43461000Y-24380213D01*
X43412925Y-24621903D01*
X43318622Y-24849571D01*
X43181715Y-25054466D01*
X43007466Y-25228715D01*
X42802571Y-25365622D01*
X42802570Y-25365623D01*
X42802569Y-25365623D01*
X42574903Y-25459925D01*
X42333214Y-25508000D01*
X42086786Y-25508000D01*
X41845097Y-25459925D01*
X41617431Y-25365623D01*
X41617430Y-25365623D01*
X41617429Y-25365622D01*
X41412534Y-25228715D01*
X41238285Y-25054466D01*
X41101378Y-24849571D01*
X41007075Y-24621903D01*
X40959000Y-24380213D01*
X40959000Y-24133787D01*
X41007075Y-23892097D01*
X41101378Y-23664429D01*
X41238285Y-23459534D01*
X41412534Y-23285285D01*
X41617429Y-23148378D01*
X41845097Y-23054075D01*
X42086786Y-23006000D01*
X42333214Y-23006000D01*
X42574903Y-23054075D01*
G37*
M02*
