G04 #@! TF.GenerationSoftware,KiCad,Pcbnew,5.1.5-52549c5~86~ubuntu18.04.1*
G04 #@! TF.CreationDate,2020-09-17T20:32:56-05:00*
G04 #@! TF.ProjectId,D02,4430322e-6b69-4636-9164-5f7063625858,rev?*
G04 #@! TF.SameCoordinates,Original*
G04 #@! TF.FileFunction,Legend,Bot*
G04 #@! TF.FilePolarity,Positive*
%FSLAX46Y46*%
G04 Gerber Fmt 4.6, Leading zero omitted, Abs format (unit mm)*
G04 Created by KiCad (PCBNEW 5.1.5-52549c5~86~ubuntu18.04.1) date 2020-09-17 20:32:56*
%MOMM*%
%LPD*%
G04 APERTURE LIST*
%ADD10C,0.150000*%
%ADD11C,0.010000*%
G04 APERTURE END LIST*
D10*
X21081171Y-35666419D02*
X21081171Y-36666419D01*
X21319266Y-36666419D01*
X21462123Y-36618800D01*
X21557361Y-36523561D01*
X21604980Y-36428323D01*
X21652600Y-36237847D01*
X21652600Y-36094990D01*
X21604980Y-35904514D01*
X21557361Y-35809276D01*
X21462123Y-35714038D01*
X21319266Y-35666419D01*
X21081171Y-35666419D01*
X22271647Y-36666419D02*
X22366885Y-36666419D01*
X22462123Y-36618800D01*
X22509742Y-36571180D01*
X22557361Y-36475942D01*
X22604980Y-36285466D01*
X22604980Y-36047371D01*
X22557361Y-35856895D01*
X22509742Y-35761657D01*
X22462123Y-35714038D01*
X22366885Y-35666419D01*
X22271647Y-35666419D01*
X22176409Y-35714038D01*
X22128790Y-35761657D01*
X22081171Y-35856895D01*
X22033552Y-36047371D01*
X22033552Y-36285466D01*
X22081171Y-36475942D01*
X22128790Y-36571180D01*
X22176409Y-36618800D01*
X22271647Y-36666419D01*
X22985933Y-36571180D02*
X23033552Y-36618800D01*
X23128790Y-36666419D01*
X23366885Y-36666419D01*
X23462123Y-36618800D01*
X23509742Y-36571180D01*
X23557361Y-36475942D01*
X23557361Y-36380704D01*
X23509742Y-36237847D01*
X22938314Y-35666419D01*
X23557361Y-35666419D01*
X23747838Y-35571180D02*
X24509742Y-35571180D01*
X24747838Y-36190228D02*
X25081171Y-36190228D01*
X25224028Y-35666419D02*
X24747838Y-35666419D01*
X24747838Y-36666419D01*
X25224028Y-36666419D01*
X26128790Y-35666419D02*
X25652599Y-35666419D01*
X25652599Y-36666419D01*
X26462123Y-36190228D02*
X26795457Y-36190228D01*
X26938314Y-35666419D02*
X26462123Y-35666419D01*
X26462123Y-36666419D01*
X26938314Y-36666419D01*
X27938314Y-35761657D02*
X27890695Y-35714038D01*
X27747838Y-35666419D01*
X27652599Y-35666419D01*
X27509742Y-35714038D01*
X27414504Y-35809276D01*
X27366885Y-35904514D01*
X27319266Y-36094990D01*
X27319266Y-36237847D01*
X27366885Y-36428323D01*
X27414504Y-36523561D01*
X27509742Y-36618800D01*
X27652599Y-36666419D01*
X27747838Y-36666419D01*
X27890695Y-36618800D01*
X27938314Y-36571180D01*
X28224028Y-36666419D02*
X28795457Y-36666419D01*
X28509742Y-35666419D02*
X28509742Y-36666419D01*
X29700219Y-35666419D02*
X29366885Y-36142609D01*
X29128790Y-35666419D02*
X29128790Y-36666419D01*
X29509742Y-36666419D01*
X29604980Y-36618800D01*
X29652600Y-36571180D01*
X29700219Y-36475942D01*
X29700219Y-36333085D01*
X29652600Y-36237847D01*
X29604980Y-36190228D01*
X29509742Y-36142609D01*
X29128790Y-36142609D01*
X30319266Y-36666419D02*
X30509742Y-36666419D01*
X30604980Y-36618800D01*
X30700219Y-36523561D01*
X30747838Y-36333085D01*
X30747838Y-35999752D01*
X30700219Y-35809276D01*
X30604980Y-35714038D01*
X30509742Y-35666419D01*
X30319266Y-35666419D01*
X30224028Y-35714038D01*
X30128790Y-35809276D01*
X30081171Y-35999752D01*
X30081171Y-36333085D01*
X30128790Y-36523561D01*
X30224028Y-36618800D01*
X30319266Y-36666419D01*
X31176409Y-35666419D02*
X31176409Y-36666419D01*
X31747838Y-35666419D01*
X31747838Y-36666419D01*
X32224028Y-35666419D02*
X32224028Y-36666419D01*
X33271647Y-35761657D02*
X33224028Y-35714038D01*
X33081171Y-35666419D01*
X32985933Y-35666419D01*
X32843076Y-35714038D01*
X32747838Y-35809276D01*
X32700219Y-35904514D01*
X32652599Y-36094990D01*
X32652599Y-36237847D01*
X32700219Y-36428323D01*
X32747838Y-36523561D01*
X32843076Y-36618800D01*
X32985933Y-36666419D01*
X33081171Y-36666419D01*
X33224028Y-36618800D01*
X33271647Y-36571180D01*
D11*
G36*
X26463814Y-31258469D02*
G01*
X26547635Y-30813845D01*
X26856920Y-30686347D01*
X27166206Y-30558849D01*
X27537246Y-30811154D01*
X27641157Y-30881404D01*
X27735087Y-30944128D01*
X27814652Y-30996462D01*
X27875470Y-31035543D01*
X27913157Y-31058507D01*
X27923421Y-31063458D01*
X27941910Y-31050724D01*
X27981420Y-31015518D01*
X28037522Y-30962338D01*
X28105787Y-30895682D01*
X28181786Y-30820046D01*
X28261092Y-30739928D01*
X28339275Y-30659826D01*
X28411907Y-30584236D01*
X28474559Y-30517655D01*
X28522803Y-30464582D01*
X28552210Y-30429513D01*
X28559241Y-30417777D01*
X28549123Y-30396140D01*
X28520759Y-30348738D01*
X28477129Y-30280207D01*
X28421218Y-30195185D01*
X28356006Y-30098307D01*
X28318219Y-30043050D01*
X28249343Y-29942152D01*
X28188140Y-29851101D01*
X28137578Y-29774430D01*
X28100628Y-29716672D01*
X28080258Y-29682357D01*
X28077197Y-29675146D01*
X28084136Y-29654652D01*
X28103051Y-29606887D01*
X28131087Y-29538568D01*
X28165391Y-29456411D01*
X28203109Y-29367130D01*
X28241387Y-29277442D01*
X28277370Y-29194062D01*
X28308206Y-29123706D01*
X28331039Y-29073090D01*
X28343017Y-29048929D01*
X28343724Y-29047978D01*
X28362531Y-29043364D01*
X28412618Y-29033072D01*
X28488793Y-29018113D01*
X28585865Y-28999499D01*
X28698643Y-28978241D01*
X28764442Y-28965982D01*
X28884950Y-28943038D01*
X28993797Y-28921205D01*
X29085476Y-28901678D01*
X29154481Y-28885652D01*
X29195304Y-28874321D01*
X29203511Y-28870726D01*
X29211548Y-28846394D01*
X29218033Y-28791441D01*
X29222970Y-28712292D01*
X29226364Y-28615374D01*
X29228218Y-28507113D01*
X29228538Y-28393935D01*
X29227327Y-28282265D01*
X29224590Y-28178532D01*
X29220331Y-28089159D01*
X29214555Y-28020574D01*
X29207267Y-27979203D01*
X29202895Y-27970590D01*
X29176764Y-27960267D01*
X29121393Y-27945508D01*
X29044107Y-27928048D01*
X28952230Y-27909620D01*
X28920158Y-27903659D01*
X28765524Y-27875334D01*
X28643375Y-27852524D01*
X28549673Y-27834320D01*
X28480384Y-27819817D01*
X28431471Y-27808108D01*
X28398897Y-27798285D01*
X28378628Y-27789444D01*
X28366626Y-27780676D01*
X28364947Y-27778943D01*
X28348184Y-27751029D01*
X28322614Y-27696705D01*
X28290788Y-27622623D01*
X28255260Y-27535435D01*
X28218583Y-27441792D01*
X28183311Y-27348348D01*
X28151996Y-27261753D01*
X28127193Y-27188660D01*
X28111454Y-27135722D01*
X28107332Y-27109589D01*
X28107676Y-27108674D01*
X28121641Y-27087314D01*
X28153322Y-27040316D01*
X28199391Y-26972573D01*
X28256518Y-26888977D01*
X28321373Y-26794418D01*
X28339843Y-26767546D01*
X28405699Y-26670125D01*
X28463650Y-26581237D01*
X28510538Y-26505988D01*
X28543207Y-26449480D01*
X28558500Y-26416819D01*
X28559241Y-26412807D01*
X28546392Y-26391716D01*
X28510888Y-26349936D01*
X28457293Y-26291955D01*
X28390171Y-26222265D01*
X28314087Y-26145355D01*
X28233604Y-26065717D01*
X28153287Y-25987839D01*
X28077699Y-25916214D01*
X28011405Y-25855330D01*
X27958969Y-25809679D01*
X27924955Y-25783750D01*
X27915545Y-25779517D01*
X27893643Y-25789488D01*
X27848800Y-25816380D01*
X27788321Y-25855664D01*
X27741789Y-25887283D01*
X27657475Y-25945302D01*
X27557626Y-26013616D01*
X27457473Y-26081821D01*
X27403627Y-26118325D01*
X27221371Y-26241600D01*
X27068381Y-26158880D01*
X26998682Y-26122641D01*
X26939414Y-26094474D01*
X26899311Y-26078409D01*
X26889103Y-26076174D01*
X26876829Y-26092678D01*
X26852613Y-26139318D01*
X26818263Y-26211791D01*
X26775588Y-26305794D01*
X26726394Y-26417026D01*
X26672490Y-26541185D01*
X26615684Y-26673968D01*
X26557782Y-26811073D01*
X26500593Y-26948198D01*
X26445924Y-27081042D01*
X26395584Y-27205302D01*
X26351380Y-27316675D01*
X26315119Y-27410861D01*
X26288609Y-27483556D01*
X26273658Y-27530459D01*
X26271254Y-27546567D01*
X26290311Y-27567114D01*
X26332036Y-27600467D01*
X26387706Y-27639698D01*
X26392378Y-27642801D01*
X26536264Y-27757977D01*
X26652283Y-27892347D01*
X26739430Y-28041616D01*
X26796699Y-28201487D01*
X26823086Y-28367663D01*
X26817585Y-28535848D01*
X26779190Y-28701745D01*
X26706895Y-28861058D01*
X26685626Y-28895913D01*
X26574996Y-29036663D01*
X26444302Y-29149686D01*
X26298064Y-29234397D01*
X26140808Y-29290206D01*
X25977057Y-29316526D01*
X25811333Y-29312770D01*
X25648162Y-29278350D01*
X25492065Y-29212677D01*
X25347567Y-29115165D01*
X25302869Y-29075587D01*
X25189112Y-28951697D01*
X25106218Y-28821276D01*
X25049356Y-28675085D01*
X25017687Y-28530312D01*
X25009869Y-28367540D01*
X25035938Y-28203960D01*
X25093245Y-28045102D01*
X25179144Y-27896494D01*
X25290986Y-27763665D01*
X25426123Y-27652144D01*
X25443883Y-27640389D01*
X25500150Y-27601892D01*
X25542923Y-27568537D01*
X25563372Y-27547240D01*
X25563669Y-27546567D01*
X25559279Y-27523529D01*
X25541876Y-27471243D01*
X25513268Y-27394010D01*
X25475265Y-27296132D01*
X25429674Y-27181909D01*
X25378303Y-27055642D01*
X25322962Y-26921633D01*
X25265458Y-26784182D01*
X25207601Y-26647592D01*
X25151198Y-26516163D01*
X25098058Y-26394195D01*
X25049990Y-26285991D01*
X25008801Y-26195851D01*
X24976301Y-26128077D01*
X24954297Y-26086970D01*
X24945436Y-26076174D01*
X24918360Y-26084581D01*
X24867697Y-26107128D01*
X24802183Y-26139787D01*
X24766159Y-26158880D01*
X24613168Y-26241600D01*
X24430912Y-26118325D01*
X24337875Y-26055172D01*
X24236015Y-25985673D01*
X24140562Y-25920235D01*
X24092750Y-25887283D01*
X24025505Y-25842127D01*
X23968564Y-25806343D01*
X23929354Y-25784462D01*
X23916619Y-25779837D01*
X23898083Y-25792315D01*
X23857059Y-25827148D01*
X23797525Y-25880722D01*
X23723458Y-25949417D01*
X23638835Y-26029619D01*
X23585315Y-26081114D01*
X23491681Y-26173114D01*
X23410759Y-26255401D01*
X23345823Y-26324455D01*
X23300142Y-26376756D01*
X23276989Y-26408784D01*
X23274768Y-26415284D01*
X23285076Y-26440006D01*
X23313561Y-26489995D01*
X23357063Y-26560188D01*
X23412423Y-26645525D01*
X23476480Y-26740944D01*
X23494697Y-26767546D01*
X23561073Y-26864233D01*
X23620622Y-26951283D01*
X23670016Y-27023805D01*
X23705925Y-27076907D01*
X23725019Y-27105697D01*
X23726864Y-27108674D01*
X23724105Y-27131618D01*
X23709462Y-27182064D01*
X23685487Y-27253359D01*
X23654734Y-27338853D01*
X23619756Y-27431893D01*
X23583107Y-27525826D01*
X23547339Y-27614001D01*
X23515006Y-27689766D01*
X23488662Y-27746469D01*
X23470858Y-27777457D01*
X23469593Y-27778943D01*
X23458706Y-27787799D01*
X23440318Y-27796557D01*
X23410394Y-27806123D01*
X23364897Y-27817404D01*
X23299791Y-27831307D01*
X23211039Y-27848737D01*
X23094607Y-27870602D01*
X22946458Y-27897809D01*
X22914382Y-27903659D01*
X22819314Y-27922026D01*
X22736435Y-27939995D01*
X22673070Y-27955831D01*
X22636542Y-27967800D01*
X22631644Y-27970590D01*
X22623573Y-27995328D01*
X22617013Y-28050610D01*
X22611967Y-28130011D01*
X22608441Y-28227104D01*
X22606439Y-28335462D01*
X22605964Y-28448660D01*
X22607023Y-28560272D01*
X22609618Y-28663871D01*
X22613754Y-28753032D01*
X22619437Y-28821328D01*
X22626669Y-28862334D01*
X22631029Y-28870726D01*
X22655302Y-28879192D01*
X22710574Y-28892965D01*
X22791338Y-28910850D01*
X22892088Y-28931652D01*
X23007317Y-28954177D01*
X23070098Y-28965982D01*
X23189213Y-28988249D01*
X23295435Y-29008421D01*
X23383573Y-29025485D01*
X23448434Y-29038431D01*
X23484826Y-29046245D01*
X23490816Y-29047978D01*
X23500939Y-29067510D01*
X23522338Y-29114557D01*
X23552161Y-29182397D01*
X23587555Y-29264309D01*
X23625668Y-29353572D01*
X23663647Y-29443465D01*
X23698640Y-29527265D01*
X23727794Y-29598253D01*
X23748257Y-29649706D01*
X23757177Y-29674903D01*
X23757343Y-29676004D01*
X23747231Y-29695881D01*
X23718883Y-29741623D01*
X23675277Y-29808683D01*
X23619394Y-29892516D01*
X23554213Y-29988574D01*
X23516321Y-30043750D01*
X23447275Y-30144919D01*
X23385950Y-30236770D01*
X23335337Y-30314656D01*
X23298429Y-30373931D01*
X23278218Y-30409949D01*
X23275299Y-30418023D01*
X23287847Y-30436816D01*
X23322537Y-30476943D01*
X23374937Y-30533907D01*
X23440616Y-30603215D01*
X23515144Y-30680369D01*
X23594087Y-30760875D01*
X23673017Y-30840237D01*
X23747500Y-30913960D01*
X23813106Y-30977548D01*
X23865404Y-31026506D01*
X23899961Y-31056339D01*
X23911522Y-31063458D01*
X23930346Y-31053447D01*
X23975369Y-31025322D01*
X24042213Y-30981946D01*
X24126501Y-30926182D01*
X24223856Y-30860894D01*
X24297293Y-30811154D01*
X24668333Y-30558849D01*
X25286905Y-30813845D01*
X25370725Y-31258469D01*
X25454546Y-31703093D01*
X26379994Y-31703093D01*
X26463814Y-31258469D01*
G37*
X26463814Y-31258469D02*
X26547635Y-30813845D01*
X26856920Y-30686347D01*
X27166206Y-30558849D01*
X27537246Y-30811154D01*
X27641157Y-30881404D01*
X27735087Y-30944128D01*
X27814652Y-30996462D01*
X27875470Y-31035543D01*
X27913157Y-31058507D01*
X27923421Y-31063458D01*
X27941910Y-31050724D01*
X27981420Y-31015518D01*
X28037522Y-30962338D01*
X28105787Y-30895682D01*
X28181786Y-30820046D01*
X28261092Y-30739928D01*
X28339275Y-30659826D01*
X28411907Y-30584236D01*
X28474559Y-30517655D01*
X28522803Y-30464582D01*
X28552210Y-30429513D01*
X28559241Y-30417777D01*
X28549123Y-30396140D01*
X28520759Y-30348738D01*
X28477129Y-30280207D01*
X28421218Y-30195185D01*
X28356006Y-30098307D01*
X28318219Y-30043050D01*
X28249343Y-29942152D01*
X28188140Y-29851101D01*
X28137578Y-29774430D01*
X28100628Y-29716672D01*
X28080258Y-29682357D01*
X28077197Y-29675146D01*
X28084136Y-29654652D01*
X28103051Y-29606887D01*
X28131087Y-29538568D01*
X28165391Y-29456411D01*
X28203109Y-29367130D01*
X28241387Y-29277442D01*
X28277370Y-29194062D01*
X28308206Y-29123706D01*
X28331039Y-29073090D01*
X28343017Y-29048929D01*
X28343724Y-29047978D01*
X28362531Y-29043364D01*
X28412618Y-29033072D01*
X28488793Y-29018113D01*
X28585865Y-28999499D01*
X28698643Y-28978241D01*
X28764442Y-28965982D01*
X28884950Y-28943038D01*
X28993797Y-28921205D01*
X29085476Y-28901678D01*
X29154481Y-28885652D01*
X29195304Y-28874321D01*
X29203511Y-28870726D01*
X29211548Y-28846394D01*
X29218033Y-28791441D01*
X29222970Y-28712292D01*
X29226364Y-28615374D01*
X29228218Y-28507113D01*
X29228538Y-28393935D01*
X29227327Y-28282265D01*
X29224590Y-28178532D01*
X29220331Y-28089159D01*
X29214555Y-28020574D01*
X29207267Y-27979203D01*
X29202895Y-27970590D01*
X29176764Y-27960267D01*
X29121393Y-27945508D01*
X29044107Y-27928048D01*
X28952230Y-27909620D01*
X28920158Y-27903659D01*
X28765524Y-27875334D01*
X28643375Y-27852524D01*
X28549673Y-27834320D01*
X28480384Y-27819817D01*
X28431471Y-27808108D01*
X28398897Y-27798285D01*
X28378628Y-27789444D01*
X28366626Y-27780676D01*
X28364947Y-27778943D01*
X28348184Y-27751029D01*
X28322614Y-27696705D01*
X28290788Y-27622623D01*
X28255260Y-27535435D01*
X28218583Y-27441792D01*
X28183311Y-27348348D01*
X28151996Y-27261753D01*
X28127193Y-27188660D01*
X28111454Y-27135722D01*
X28107332Y-27109589D01*
X28107676Y-27108674D01*
X28121641Y-27087314D01*
X28153322Y-27040316D01*
X28199391Y-26972573D01*
X28256518Y-26888977D01*
X28321373Y-26794418D01*
X28339843Y-26767546D01*
X28405699Y-26670125D01*
X28463650Y-26581237D01*
X28510538Y-26505988D01*
X28543207Y-26449480D01*
X28558500Y-26416819D01*
X28559241Y-26412807D01*
X28546392Y-26391716D01*
X28510888Y-26349936D01*
X28457293Y-26291955D01*
X28390171Y-26222265D01*
X28314087Y-26145355D01*
X28233604Y-26065717D01*
X28153287Y-25987839D01*
X28077699Y-25916214D01*
X28011405Y-25855330D01*
X27958969Y-25809679D01*
X27924955Y-25783750D01*
X27915545Y-25779517D01*
X27893643Y-25789488D01*
X27848800Y-25816380D01*
X27788321Y-25855664D01*
X27741789Y-25887283D01*
X27657475Y-25945302D01*
X27557626Y-26013616D01*
X27457473Y-26081821D01*
X27403627Y-26118325D01*
X27221371Y-26241600D01*
X27068381Y-26158880D01*
X26998682Y-26122641D01*
X26939414Y-26094474D01*
X26899311Y-26078409D01*
X26889103Y-26076174D01*
X26876829Y-26092678D01*
X26852613Y-26139318D01*
X26818263Y-26211791D01*
X26775588Y-26305794D01*
X26726394Y-26417026D01*
X26672490Y-26541185D01*
X26615684Y-26673968D01*
X26557782Y-26811073D01*
X26500593Y-26948198D01*
X26445924Y-27081042D01*
X26395584Y-27205302D01*
X26351380Y-27316675D01*
X26315119Y-27410861D01*
X26288609Y-27483556D01*
X26273658Y-27530459D01*
X26271254Y-27546567D01*
X26290311Y-27567114D01*
X26332036Y-27600467D01*
X26387706Y-27639698D01*
X26392378Y-27642801D01*
X26536264Y-27757977D01*
X26652283Y-27892347D01*
X26739430Y-28041616D01*
X26796699Y-28201487D01*
X26823086Y-28367663D01*
X26817585Y-28535848D01*
X26779190Y-28701745D01*
X26706895Y-28861058D01*
X26685626Y-28895913D01*
X26574996Y-29036663D01*
X26444302Y-29149686D01*
X26298064Y-29234397D01*
X26140808Y-29290206D01*
X25977057Y-29316526D01*
X25811333Y-29312770D01*
X25648162Y-29278350D01*
X25492065Y-29212677D01*
X25347567Y-29115165D01*
X25302869Y-29075587D01*
X25189112Y-28951697D01*
X25106218Y-28821276D01*
X25049356Y-28675085D01*
X25017687Y-28530312D01*
X25009869Y-28367540D01*
X25035938Y-28203960D01*
X25093245Y-28045102D01*
X25179144Y-27896494D01*
X25290986Y-27763665D01*
X25426123Y-27652144D01*
X25443883Y-27640389D01*
X25500150Y-27601892D01*
X25542923Y-27568537D01*
X25563372Y-27547240D01*
X25563669Y-27546567D01*
X25559279Y-27523529D01*
X25541876Y-27471243D01*
X25513268Y-27394010D01*
X25475265Y-27296132D01*
X25429674Y-27181909D01*
X25378303Y-27055642D01*
X25322962Y-26921633D01*
X25265458Y-26784182D01*
X25207601Y-26647592D01*
X25151198Y-26516163D01*
X25098058Y-26394195D01*
X25049990Y-26285991D01*
X25008801Y-26195851D01*
X24976301Y-26128077D01*
X24954297Y-26086970D01*
X24945436Y-26076174D01*
X24918360Y-26084581D01*
X24867697Y-26107128D01*
X24802183Y-26139787D01*
X24766159Y-26158880D01*
X24613168Y-26241600D01*
X24430912Y-26118325D01*
X24337875Y-26055172D01*
X24236015Y-25985673D01*
X24140562Y-25920235D01*
X24092750Y-25887283D01*
X24025505Y-25842127D01*
X23968564Y-25806343D01*
X23929354Y-25784462D01*
X23916619Y-25779837D01*
X23898083Y-25792315D01*
X23857059Y-25827148D01*
X23797525Y-25880722D01*
X23723458Y-25949417D01*
X23638835Y-26029619D01*
X23585315Y-26081114D01*
X23491681Y-26173114D01*
X23410759Y-26255401D01*
X23345823Y-26324455D01*
X23300142Y-26376756D01*
X23276989Y-26408784D01*
X23274768Y-26415284D01*
X23285076Y-26440006D01*
X23313561Y-26489995D01*
X23357063Y-26560188D01*
X23412423Y-26645525D01*
X23476480Y-26740944D01*
X23494697Y-26767546D01*
X23561073Y-26864233D01*
X23620622Y-26951283D01*
X23670016Y-27023805D01*
X23705925Y-27076907D01*
X23725019Y-27105697D01*
X23726864Y-27108674D01*
X23724105Y-27131618D01*
X23709462Y-27182064D01*
X23685487Y-27253359D01*
X23654734Y-27338853D01*
X23619756Y-27431893D01*
X23583107Y-27525826D01*
X23547339Y-27614001D01*
X23515006Y-27689766D01*
X23488662Y-27746469D01*
X23470858Y-27777457D01*
X23469593Y-27778943D01*
X23458706Y-27787799D01*
X23440318Y-27796557D01*
X23410394Y-27806123D01*
X23364897Y-27817404D01*
X23299791Y-27831307D01*
X23211039Y-27848737D01*
X23094607Y-27870602D01*
X22946458Y-27897809D01*
X22914382Y-27903659D01*
X22819314Y-27922026D01*
X22736435Y-27939995D01*
X22673070Y-27955831D01*
X22636542Y-27967800D01*
X22631644Y-27970590D01*
X22623573Y-27995328D01*
X22617013Y-28050610D01*
X22611967Y-28130011D01*
X22608441Y-28227104D01*
X22606439Y-28335462D01*
X22605964Y-28448660D01*
X22607023Y-28560272D01*
X22609618Y-28663871D01*
X22613754Y-28753032D01*
X22619437Y-28821328D01*
X22626669Y-28862334D01*
X22631029Y-28870726D01*
X22655302Y-28879192D01*
X22710574Y-28892965D01*
X22791338Y-28910850D01*
X22892088Y-28931652D01*
X23007317Y-28954177D01*
X23070098Y-28965982D01*
X23189213Y-28988249D01*
X23295435Y-29008421D01*
X23383573Y-29025485D01*
X23448434Y-29038431D01*
X23484826Y-29046245D01*
X23490816Y-29047978D01*
X23500939Y-29067510D01*
X23522338Y-29114557D01*
X23552161Y-29182397D01*
X23587555Y-29264309D01*
X23625668Y-29353572D01*
X23663647Y-29443465D01*
X23698640Y-29527265D01*
X23727794Y-29598253D01*
X23748257Y-29649706D01*
X23757177Y-29674903D01*
X23757343Y-29676004D01*
X23747231Y-29695881D01*
X23718883Y-29741623D01*
X23675277Y-29808683D01*
X23619394Y-29892516D01*
X23554213Y-29988574D01*
X23516321Y-30043750D01*
X23447275Y-30144919D01*
X23385950Y-30236770D01*
X23335337Y-30314656D01*
X23298429Y-30373931D01*
X23278218Y-30409949D01*
X23275299Y-30418023D01*
X23287847Y-30436816D01*
X23322537Y-30476943D01*
X23374937Y-30533907D01*
X23440616Y-30603215D01*
X23515144Y-30680369D01*
X23594087Y-30760875D01*
X23673017Y-30840237D01*
X23747500Y-30913960D01*
X23813106Y-30977548D01*
X23865404Y-31026506D01*
X23899961Y-31056339D01*
X23911522Y-31063458D01*
X23930346Y-31053447D01*
X23975369Y-31025322D01*
X24042213Y-30981946D01*
X24126501Y-30926182D01*
X24223856Y-30860894D01*
X24297293Y-30811154D01*
X24668333Y-30558849D01*
X25286905Y-30813845D01*
X25370725Y-31258469D01*
X25454546Y-31703093D01*
X26379994Y-31703093D01*
X26463814Y-31258469D01*
M02*
