G04 #@! TF.GenerationSoftware,KiCad,Pcbnew,5.1.5-52549c5~86~ubuntu18.04.1*
G04 #@! TF.CreationDate,2020-09-17T20:32:56-05:00*
G04 #@! TF.ProjectId,D02,4430322e-6b69-4636-9164-5f7063625858,rev?*
G04 #@! TF.SameCoordinates,Original*
G04 #@! TF.FileFunction,Soldermask,Bot*
G04 #@! TF.FilePolarity,Negative*
%FSLAX46Y46*%
G04 Gerber Fmt 4.6, Leading zero omitted, Abs format (unit mm)*
G04 Created by KiCad (PCBNEW 5.1.5-52549c5~86~ubuntu18.04.1) date 2020-09-17 20:32:56*
%MOMM*%
%LPD*%
G04 APERTURE LIST*
%ADD10C,0.100000*%
G04 APERTURE END LIST*
D10*
G36*
X48898520Y-34209705D02*
G01*
X49035371Y-34251219D01*
X49035374Y-34251220D01*
X49161493Y-34318632D01*
X49272043Y-34409358D01*
X49362768Y-34519906D01*
X49430180Y-34646025D01*
X49430180Y-34646026D01*
X49430181Y-34646028D01*
X49471695Y-34782879D01*
X49482200Y-34889541D01*
X49482200Y-35310858D01*
X49471695Y-35417520D01*
X49458385Y-35461396D01*
X49430180Y-35554376D01*
X49362768Y-35680494D01*
X49272043Y-35791043D01*
X49161494Y-35881768D01*
X49035375Y-35949180D01*
X49035372Y-35949181D01*
X48898521Y-35990695D01*
X48756200Y-36004712D01*
X48613880Y-35990695D01*
X48477029Y-35949181D01*
X48477026Y-35949180D01*
X48350907Y-35881768D01*
X48240358Y-35791043D01*
X48149632Y-35680494D01*
X48082220Y-35554375D01*
X48054015Y-35461396D01*
X48040705Y-35417521D01*
X48030200Y-35310859D01*
X48030200Y-34889542D01*
X48040705Y-34782880D01*
X48082219Y-34646029D01*
X48082220Y-34646026D01*
X48149632Y-34519907D01*
X48229646Y-34422410D01*
X48240357Y-34409358D01*
X48350905Y-34318633D01*
X48350904Y-34318633D01*
X48350906Y-34318632D01*
X48477025Y-34251220D01*
X48477028Y-34251219D01*
X48613879Y-34209705D01*
X48756200Y-34195688D01*
X48898520Y-34209705D01*
G37*
G36*
X54358520Y-34209705D02*
G01*
X54495371Y-34251219D01*
X54495374Y-34251220D01*
X54621493Y-34318632D01*
X54732043Y-34409358D01*
X54822768Y-34519906D01*
X54890180Y-34646025D01*
X54890180Y-34646026D01*
X54890181Y-34646028D01*
X54931695Y-34782879D01*
X54942200Y-34889541D01*
X54942200Y-35310858D01*
X54931695Y-35417520D01*
X54918385Y-35461396D01*
X54890180Y-35554376D01*
X54822768Y-35680494D01*
X54732043Y-35791043D01*
X54621494Y-35881768D01*
X54495375Y-35949180D01*
X54495372Y-35949181D01*
X54358521Y-35990695D01*
X54216200Y-36004712D01*
X54073880Y-35990695D01*
X53937029Y-35949181D01*
X53937026Y-35949180D01*
X53810907Y-35881768D01*
X53700358Y-35791043D01*
X53609632Y-35680494D01*
X53542220Y-35554375D01*
X53514015Y-35461396D01*
X53500705Y-35417521D01*
X53490200Y-35310859D01*
X53490200Y-34889542D01*
X53500705Y-34782880D01*
X53542219Y-34646029D01*
X53542220Y-34646026D01*
X53609632Y-34519907D01*
X53689646Y-34422410D01*
X53700357Y-34409358D01*
X53810905Y-34318633D01*
X53810904Y-34318633D01*
X53810906Y-34318632D01*
X53937025Y-34251220D01*
X53937028Y-34251219D01*
X54073879Y-34209705D01*
X54216200Y-34195688D01*
X54358520Y-34209705D01*
G37*
G36*
X76302585Y-32448802D02*
G01*
X76452410Y-32478604D01*
X76734674Y-32595521D01*
X76988705Y-32765259D01*
X77204741Y-32981295D01*
X77374479Y-33235326D01*
X77491396Y-33517590D01*
X77551000Y-33817240D01*
X77551000Y-34122760D01*
X77491396Y-34422410D01*
X77374479Y-34704674D01*
X77204741Y-34958705D01*
X76988705Y-35174741D01*
X76734674Y-35344479D01*
X76452410Y-35461396D01*
X76302585Y-35491198D01*
X76152761Y-35521000D01*
X75847239Y-35521000D01*
X75697415Y-35491198D01*
X75547590Y-35461396D01*
X75265326Y-35344479D01*
X75011295Y-35174741D01*
X74795259Y-34958705D01*
X74625521Y-34704674D01*
X74508604Y-34422410D01*
X74449000Y-34122760D01*
X74449000Y-33817240D01*
X74508604Y-33517590D01*
X74625521Y-33235326D01*
X74795259Y-32981295D01*
X75011295Y-32765259D01*
X75265326Y-32595521D01*
X75547590Y-32478604D01*
X75697415Y-32448802D01*
X75847239Y-32419000D01*
X76152761Y-32419000D01*
X76302585Y-32448802D01*
G37*
G36*
X35662585Y-32448802D02*
G01*
X35812410Y-32478604D01*
X36094674Y-32595521D01*
X36348705Y-32765259D01*
X36564741Y-32981295D01*
X36734479Y-33235326D01*
X36851396Y-33517590D01*
X36911000Y-33817240D01*
X36911000Y-34122760D01*
X36851396Y-34422410D01*
X36734479Y-34704674D01*
X36564741Y-34958705D01*
X36348705Y-35174741D01*
X36094674Y-35344479D01*
X35812410Y-35461396D01*
X35662585Y-35491198D01*
X35512761Y-35521000D01*
X35207239Y-35521000D01*
X35057415Y-35491198D01*
X34907590Y-35461396D01*
X34625326Y-35344479D01*
X34371295Y-35174741D01*
X34155259Y-34958705D01*
X33985521Y-34704674D01*
X33868604Y-34422410D01*
X33809000Y-34122760D01*
X33809000Y-33817240D01*
X33868604Y-33517590D01*
X33985521Y-33235326D01*
X34155259Y-32981295D01*
X34371295Y-32765259D01*
X34625326Y-32595521D01*
X34907590Y-32478604D01*
X35057415Y-32448802D01*
X35207239Y-32419000D01*
X35512761Y-32419000D01*
X35662585Y-32448802D01*
G37*
G36*
X24009400Y-34728200D02*
G01*
X21507400Y-34728200D01*
X21507400Y-32226200D01*
X24009400Y-32226200D01*
X24009400Y-34728200D01*
G37*
G36*
X26623303Y-32274275D02*
G01*
X26757155Y-32329718D01*
X26850971Y-32368578D01*
X27055866Y-32505485D01*
X27230115Y-32679734D01*
X27367022Y-32884629D01*
X27461325Y-33112297D01*
X27509400Y-33353987D01*
X27509400Y-33600413D01*
X27461325Y-33842103D01*
X27367022Y-34069771D01*
X27230115Y-34274666D01*
X27055866Y-34448915D01*
X26850971Y-34585822D01*
X26850970Y-34585823D01*
X26850969Y-34585823D01*
X26623303Y-34680125D01*
X26381614Y-34728200D01*
X26135186Y-34728200D01*
X25893497Y-34680125D01*
X25665831Y-34585823D01*
X25665830Y-34585823D01*
X25665829Y-34585822D01*
X25460934Y-34448915D01*
X25286685Y-34274666D01*
X25149778Y-34069771D01*
X25055475Y-33842103D01*
X25007400Y-33600413D01*
X25007400Y-33353987D01*
X25055475Y-33112297D01*
X25149778Y-32884629D01*
X25286685Y-32679734D01*
X25460934Y-32505485D01*
X25665829Y-32368578D01*
X25759646Y-32329718D01*
X25893497Y-32274275D01*
X26135186Y-32226200D01*
X26381614Y-32226200D01*
X26623303Y-32274275D01*
G37*
G36*
X30123303Y-32274275D02*
G01*
X30257155Y-32329718D01*
X30350971Y-32368578D01*
X30555866Y-32505485D01*
X30730115Y-32679734D01*
X30867022Y-32884629D01*
X30961325Y-33112297D01*
X31009400Y-33353987D01*
X31009400Y-33600413D01*
X30961325Y-33842103D01*
X30867022Y-34069771D01*
X30730115Y-34274666D01*
X30555866Y-34448915D01*
X30350971Y-34585822D01*
X30350970Y-34585823D01*
X30350969Y-34585823D01*
X30123303Y-34680125D01*
X29881614Y-34728200D01*
X29635186Y-34728200D01*
X29393497Y-34680125D01*
X29165831Y-34585823D01*
X29165830Y-34585823D01*
X29165829Y-34585822D01*
X28960934Y-34448915D01*
X28786685Y-34274666D01*
X28649778Y-34069771D01*
X28555475Y-33842103D01*
X28507400Y-33600413D01*
X28507400Y-33353987D01*
X28555475Y-33112297D01*
X28649778Y-32884629D01*
X28786685Y-32679734D01*
X28960934Y-32505485D01*
X29165829Y-32368578D01*
X29259646Y-32329718D01*
X29393497Y-32274275D01*
X29635186Y-32226200D01*
X29881614Y-32226200D01*
X30123303Y-32274275D01*
G37*
G36*
X70260503Y-32274275D02*
G01*
X70394355Y-32329718D01*
X70488171Y-32368578D01*
X70693066Y-32505485D01*
X70867315Y-32679734D01*
X71004222Y-32884629D01*
X71098525Y-33112297D01*
X71146600Y-33353987D01*
X71146600Y-33600413D01*
X71098525Y-33842103D01*
X71004222Y-34069771D01*
X70867315Y-34274666D01*
X70693066Y-34448915D01*
X70488171Y-34585822D01*
X70488170Y-34585823D01*
X70488169Y-34585823D01*
X70260503Y-34680125D01*
X70018814Y-34728200D01*
X69772386Y-34728200D01*
X69530697Y-34680125D01*
X69303031Y-34585823D01*
X69303030Y-34585823D01*
X69303029Y-34585822D01*
X69098134Y-34448915D01*
X68923885Y-34274666D01*
X68786978Y-34069771D01*
X68692675Y-33842103D01*
X68644600Y-33600413D01*
X68644600Y-33353987D01*
X68692675Y-33112297D01*
X68786978Y-32884629D01*
X68923885Y-32679734D01*
X69098134Y-32505485D01*
X69303029Y-32368578D01*
X69396846Y-32329718D01*
X69530697Y-32274275D01*
X69772386Y-32226200D01*
X70018814Y-32226200D01*
X70260503Y-32274275D01*
G37*
G36*
X67646600Y-34728200D02*
G01*
X65144600Y-34728200D01*
X65144600Y-32226200D01*
X67646600Y-32226200D01*
X67646600Y-34728200D01*
G37*
G36*
X54024017Y-31307896D02*
G01*
X54137304Y-31342262D01*
X54241711Y-31398069D01*
X54241713Y-31398070D01*
X54241712Y-31398070D01*
X54333227Y-31473173D01*
X54396911Y-31550772D01*
X54408331Y-31564688D01*
X54464138Y-31669095D01*
X54498504Y-31782382D01*
X54507200Y-31870681D01*
X54507200Y-32329718D01*
X54498504Y-32418018D01*
X54464138Y-32531305D01*
X54408331Y-32635712D01*
X54333227Y-32727227D01*
X54241712Y-32802331D01*
X54137305Y-32858138D01*
X54024018Y-32892504D01*
X53906200Y-32904107D01*
X53788383Y-32892504D01*
X53675096Y-32858138D01*
X53570689Y-32802331D01*
X53479174Y-32727227D01*
X53404069Y-32635712D01*
X53348262Y-32531305D01*
X53313896Y-32418018D01*
X53305200Y-32329719D01*
X53305200Y-31870682D01*
X53313896Y-31782383D01*
X53348262Y-31669096D01*
X53404069Y-31564689D01*
X53417538Y-31548277D01*
X53479173Y-31473173D01*
X53570687Y-31398070D01*
X53570686Y-31398070D01*
X53570688Y-31398069D01*
X53675095Y-31342262D01*
X53788382Y-31307896D01*
X53906200Y-31296293D01*
X54024017Y-31307896D01*
G37*
G36*
X49184017Y-31307896D02*
G01*
X49297304Y-31342262D01*
X49401711Y-31398069D01*
X49401713Y-31398070D01*
X49401712Y-31398070D01*
X49493227Y-31473173D01*
X49556911Y-31550772D01*
X49568331Y-31564688D01*
X49624138Y-31669095D01*
X49658504Y-31782382D01*
X49667200Y-31870681D01*
X49667200Y-32329718D01*
X49658504Y-32418018D01*
X49624138Y-32531305D01*
X49568331Y-32635712D01*
X49493227Y-32727227D01*
X49401712Y-32802331D01*
X49297305Y-32858138D01*
X49184018Y-32892504D01*
X49066200Y-32904107D01*
X48948383Y-32892504D01*
X48835096Y-32858138D01*
X48730689Y-32802331D01*
X48639174Y-32727227D01*
X48564069Y-32635712D01*
X48508262Y-32531305D01*
X48473896Y-32418018D01*
X48465200Y-32329719D01*
X48465200Y-31870682D01*
X48473896Y-31782383D01*
X48508262Y-31669096D01*
X48564069Y-31564689D01*
X48577538Y-31548277D01*
X48639173Y-31473173D01*
X48730687Y-31398070D01*
X48730686Y-31398070D01*
X48730688Y-31398069D01*
X48835095Y-31342262D01*
X48948382Y-31307896D01*
X49066200Y-31296293D01*
X49184017Y-31307896D01*
G37*
G36*
X41450795Y-30125546D02*
G01*
X41623866Y-30197234D01*
X41623867Y-30197235D01*
X41779627Y-30301310D01*
X41912090Y-30433773D01*
X41912091Y-30433775D01*
X42016166Y-30589534D01*
X42087854Y-30762605D01*
X42124400Y-30946333D01*
X42124400Y-31133667D01*
X42087854Y-31317395D01*
X42016166Y-31490466D01*
X42016165Y-31490467D01*
X41912090Y-31646227D01*
X41779627Y-31778690D01*
X41774097Y-31782385D01*
X41623866Y-31882766D01*
X41450795Y-31954454D01*
X41267067Y-31991000D01*
X41079733Y-31991000D01*
X40896005Y-31954454D01*
X40722934Y-31882766D01*
X40572703Y-31782385D01*
X40567173Y-31778690D01*
X40434710Y-31646227D01*
X40330635Y-31490467D01*
X40330634Y-31490466D01*
X40258946Y-31317395D01*
X40222400Y-31133667D01*
X40222400Y-30946333D01*
X40258946Y-30762605D01*
X40330634Y-30589534D01*
X40434709Y-30433775D01*
X40434710Y-30433773D01*
X40567173Y-30301310D01*
X40722933Y-30197235D01*
X40722934Y-30197234D01*
X40896005Y-30125546D01*
X41079733Y-30089000D01*
X41267067Y-30089000D01*
X41450795Y-30125546D01*
G37*
G36*
X42124400Y-29451000D02*
G01*
X40222400Y-29451000D01*
X40222400Y-27549000D01*
X42124400Y-27549000D01*
X42124400Y-29451000D01*
G37*
G36*
X76302585Y-22288802D02*
G01*
X76452410Y-22318604D01*
X76734674Y-22435521D01*
X76988705Y-22605259D01*
X77204741Y-22821295D01*
X77374479Y-23075326D01*
X77491396Y-23357590D01*
X77551000Y-23657240D01*
X77551000Y-23962760D01*
X77491396Y-24262410D01*
X77374479Y-24544674D01*
X77204741Y-24798705D01*
X76988705Y-25014741D01*
X76734674Y-25184479D01*
X76452410Y-25301396D01*
X76302585Y-25331198D01*
X76152761Y-25361000D01*
X75847239Y-25361000D01*
X75697415Y-25331198D01*
X75547590Y-25301396D01*
X75265326Y-25184479D01*
X75011295Y-25014741D01*
X74795259Y-24798705D01*
X74625521Y-24544674D01*
X74508604Y-24262410D01*
X74449000Y-23962760D01*
X74449000Y-23657240D01*
X74508604Y-23357590D01*
X74625521Y-23075326D01*
X74795259Y-22821295D01*
X75011295Y-22605259D01*
X75265326Y-22435521D01*
X75547590Y-22318604D01*
X75697415Y-22288802D01*
X75847239Y-22259000D01*
X76152761Y-22259000D01*
X76302585Y-22288802D01*
G37*
G36*
X26302585Y-22288802D02*
G01*
X26452410Y-22318604D01*
X26734674Y-22435521D01*
X26988705Y-22605259D01*
X27204741Y-22821295D01*
X27374479Y-23075326D01*
X27491396Y-23357590D01*
X27551000Y-23657240D01*
X27551000Y-23962760D01*
X27491396Y-24262410D01*
X27374479Y-24544674D01*
X27204741Y-24798705D01*
X26988705Y-25014741D01*
X26734674Y-25184479D01*
X26452410Y-25301396D01*
X26302585Y-25331198D01*
X26152761Y-25361000D01*
X25847239Y-25361000D01*
X25697415Y-25331198D01*
X25547590Y-25301396D01*
X25265326Y-25184479D01*
X25011295Y-25014741D01*
X24795259Y-24798705D01*
X24625521Y-24544674D01*
X24508604Y-24262410D01*
X24449000Y-23962760D01*
X24449000Y-23657240D01*
X24508604Y-23357590D01*
X24625521Y-23075326D01*
X24795259Y-22821295D01*
X25011295Y-22605259D01*
X25265326Y-22435521D01*
X25547590Y-22318604D01*
X25697415Y-22288802D01*
X25847239Y-22259000D01*
X26152761Y-22259000D01*
X26302585Y-22288802D01*
G37*
G36*
X35662585Y-22288802D02*
G01*
X35812410Y-22318604D01*
X36094674Y-22435521D01*
X36348705Y-22605259D01*
X36564741Y-22821295D01*
X36734479Y-23075326D01*
X36851396Y-23357590D01*
X36911000Y-23657240D01*
X36911000Y-23962760D01*
X36851396Y-24262410D01*
X36734479Y-24544674D01*
X36564741Y-24798705D01*
X36348705Y-25014741D01*
X36094674Y-25184479D01*
X35812410Y-25301396D01*
X35662585Y-25331198D01*
X35512761Y-25361000D01*
X35207239Y-25361000D01*
X35057415Y-25331198D01*
X34907590Y-25301396D01*
X34625326Y-25184479D01*
X34371295Y-25014741D01*
X34155259Y-24798705D01*
X33985521Y-24544674D01*
X33868604Y-24262410D01*
X33809000Y-23962760D01*
X33809000Y-23657240D01*
X33868604Y-23357590D01*
X33985521Y-23075326D01*
X34155259Y-22821295D01*
X34371295Y-22605259D01*
X34625326Y-22435521D01*
X34907590Y-22318604D01*
X35057415Y-22288802D01*
X35207239Y-22259000D01*
X35512761Y-22259000D01*
X35662585Y-22288802D01*
G37*
G36*
X41392459Y-23777860D02*
G01*
X41529132Y-23834472D01*
X41652135Y-23916660D01*
X41756740Y-24021265D01*
X41756741Y-24021267D01*
X41838929Y-24144270D01*
X41895540Y-24280941D01*
X41924400Y-24426032D01*
X41924400Y-24573968D01*
X41895540Y-24719059D01*
X41862550Y-24798705D01*
X41838928Y-24855732D01*
X41756740Y-24978735D01*
X41652135Y-25083340D01*
X41529132Y-25165528D01*
X41529131Y-25165529D01*
X41529130Y-25165529D01*
X41392459Y-25222140D01*
X41247368Y-25251000D01*
X41099432Y-25251000D01*
X40954341Y-25222140D01*
X40817670Y-25165529D01*
X40817669Y-25165529D01*
X40817668Y-25165528D01*
X40694665Y-25083340D01*
X40590060Y-24978735D01*
X40507872Y-24855732D01*
X40484251Y-24798705D01*
X40451260Y-24719059D01*
X40422400Y-24573968D01*
X40422400Y-24426032D01*
X40451260Y-24280941D01*
X40507871Y-24144270D01*
X40590059Y-24021267D01*
X40590060Y-24021265D01*
X40694665Y-23916660D01*
X40817668Y-23834472D01*
X40954341Y-23777860D01*
X41099432Y-23749000D01*
X41247368Y-23749000D01*
X41392459Y-23777860D01*
G37*
G36*
X30659393Y-22559304D02*
G01*
X30896101Y-22657352D01*
X30896103Y-22657353D01*
X31109135Y-22799696D01*
X31290304Y-22980865D01*
X31432647Y-23193897D01*
X31432648Y-23193899D01*
X31530696Y-23430607D01*
X31580680Y-23681893D01*
X31580680Y-23938107D01*
X31530696Y-24189393D01*
X31432676Y-24426033D01*
X31432647Y-24426103D01*
X31290304Y-24639135D01*
X31109135Y-24820304D01*
X30896103Y-24962647D01*
X30896102Y-24962648D01*
X30896101Y-24962648D01*
X30659393Y-25060696D01*
X30408107Y-25110680D01*
X30151893Y-25110680D01*
X29900607Y-25060696D01*
X29663899Y-24962648D01*
X29663898Y-24962648D01*
X29663897Y-24962647D01*
X29450865Y-24820304D01*
X29269696Y-24639135D01*
X29127353Y-24426103D01*
X29127324Y-24426033D01*
X29029304Y-24189393D01*
X28979320Y-23938107D01*
X28979320Y-23681893D01*
X29029304Y-23430607D01*
X29127352Y-23193899D01*
X29127353Y-23193897D01*
X29269696Y-22980865D01*
X29450865Y-22799696D01*
X29663897Y-22657353D01*
X29663899Y-22657352D01*
X29900607Y-22559304D01*
X30151893Y-22509320D01*
X30408107Y-22509320D01*
X30659393Y-22559304D01*
G37*
G36*
X71299393Y-22559304D02*
G01*
X71536101Y-22657352D01*
X71536103Y-22657353D01*
X71749135Y-22799696D01*
X71930304Y-22980865D01*
X72072647Y-23193897D01*
X72072648Y-23193899D01*
X72170696Y-23430607D01*
X72220680Y-23681893D01*
X72220680Y-23938107D01*
X72170696Y-24189393D01*
X72072676Y-24426033D01*
X72072647Y-24426103D01*
X71930304Y-24639135D01*
X71749135Y-24820304D01*
X71536103Y-24962647D01*
X71536102Y-24962648D01*
X71536101Y-24962648D01*
X71299393Y-25060696D01*
X71048107Y-25110680D01*
X70791893Y-25110680D01*
X70540607Y-25060696D01*
X70303899Y-24962648D01*
X70303898Y-24962648D01*
X70303897Y-24962647D01*
X70090865Y-24820304D01*
X69909696Y-24639135D01*
X69767353Y-24426103D01*
X69767324Y-24426033D01*
X69669304Y-24189393D01*
X69619320Y-23938107D01*
X69619320Y-23681893D01*
X69669304Y-23430607D01*
X69767352Y-23193899D01*
X69767353Y-23193897D01*
X69909696Y-22980865D01*
X70090865Y-22799696D01*
X70303897Y-22657353D01*
X70303899Y-22657352D01*
X70540607Y-22559304D01*
X70791893Y-22509320D01*
X71048107Y-22509320D01*
X71299393Y-22559304D01*
G37*
G36*
X41392459Y-21237860D02*
G01*
X41529132Y-21294472D01*
X41652135Y-21376660D01*
X41756740Y-21481265D01*
X41838928Y-21604268D01*
X41895540Y-21740941D01*
X41924400Y-21886033D01*
X41924400Y-22033967D01*
X41895540Y-22179059D01*
X41838928Y-22315732D01*
X41756740Y-22438735D01*
X41652135Y-22543340D01*
X41529132Y-22625528D01*
X41529131Y-22625529D01*
X41529130Y-22625529D01*
X41392459Y-22682140D01*
X41247368Y-22711000D01*
X41099432Y-22711000D01*
X40954341Y-22682140D01*
X40817670Y-22625529D01*
X40817669Y-22625529D01*
X40817668Y-22625528D01*
X40694665Y-22543340D01*
X40590060Y-22438735D01*
X40507872Y-22315732D01*
X40451260Y-22179059D01*
X40422400Y-22033967D01*
X40422400Y-21886033D01*
X40451260Y-21740941D01*
X40507872Y-21604268D01*
X40590060Y-21481265D01*
X40694665Y-21376660D01*
X40817668Y-21294472D01*
X40954341Y-21237860D01*
X41099432Y-21209000D01*
X41247368Y-21209000D01*
X41392459Y-21237860D01*
G37*
M02*
