G04 #@! TF.GenerationSoftware,KiCad,Pcbnew,5.1.5-52549c5~86~ubuntu18.04.1*
G04 #@! TF.CreationDate,2020-09-17T16:53:29-05:00*
G04 #@! TF.ProjectId,D02,4430322e-6b69-4636-9164-5f7063625858,rev?*
G04 #@! TF.SameCoordinates,Original*
G04 #@! TF.FileFunction,Copper,L2,Bot*
G04 #@! TF.FilePolarity,Positive*
%FSLAX46Y46*%
G04 Gerber Fmt 4.6, Leading zero omitted, Abs format (unit mm)*
G04 Created by KiCad (PCBNEW 5.1.5-52549c5~86~ubuntu18.04.1) date 2020-09-17 16:53:29*
%MOMM*%
%LPD*%
G04 APERTURE LIST*
%ADD10O,1.400000X1.400000*%
%ADD11C,1.400000*%
%ADD12C,2.400000*%
%ADD13R,2.400000X2.400000*%
%ADD14C,1.800000*%
%ADD15R,1.800000X1.800000*%
%ADD16O,1.350000X1.700000*%
%ADD17O,1.100000X1.500000*%
%ADD18C,2.499360*%
%ADD19C,0.800000*%
%ADD20C,0.500000*%
%ADD21C,0.254000*%
G04 APERTURE END LIST*
D10*
X41173400Y-21960000D03*
D11*
X41173400Y-24500000D03*
D12*
X29758400Y-33477200D03*
X26258400Y-33477200D03*
D13*
X22758400Y-33477200D03*
D12*
X69895600Y-33477200D03*
D13*
X66395600Y-33477200D03*
D14*
X41173400Y-31040000D03*
D15*
X41173400Y-28500000D03*
D16*
X54216200Y-35100200D03*
X48756200Y-35100200D03*
D17*
X53906200Y-32100200D03*
X49066200Y-32100200D03*
D18*
X30280000Y-23810000D03*
X70920000Y-23810000D03*
D19*
X53136800Y-29210000D03*
X52451000Y-26644600D03*
D20*
X53136800Y-29210000D02*
X53136800Y-27000200D01*
X53136800Y-27000200D02*
X52781200Y-26644600D01*
X52781200Y-26644600D02*
X52451000Y-26644600D01*
D21*
G36*
X79150001Y-34935646D02*
G01*
X79146691Y-37120000D01*
X20700784Y-37120000D01*
X20693414Y-32277200D01*
X20920328Y-32277200D01*
X20920328Y-34677200D01*
X20932588Y-34801682D01*
X20968898Y-34921380D01*
X21027863Y-35031694D01*
X21107215Y-35128385D01*
X21203906Y-35207737D01*
X21314220Y-35266702D01*
X21433918Y-35303012D01*
X21558400Y-35315272D01*
X23958400Y-35315272D01*
X24082882Y-35303012D01*
X24202580Y-35266702D01*
X24312894Y-35207737D01*
X24409585Y-35128385D01*
X24488937Y-35031694D01*
X24547902Y-34921380D01*
X24584212Y-34801682D01*
X24596472Y-34677200D01*
X24596472Y-34260038D01*
X24632244Y-34346399D01*
X24833062Y-34646944D01*
X25088656Y-34902538D01*
X25389201Y-35103356D01*
X25723150Y-35241682D01*
X26077668Y-35312200D01*
X26439132Y-35312200D01*
X26793650Y-35241682D01*
X27127599Y-35103356D01*
X27428144Y-34902538D01*
X27683738Y-34646944D01*
X27884556Y-34346399D01*
X28008400Y-34047413D01*
X28132244Y-34346399D01*
X28333062Y-34646944D01*
X28588656Y-34902538D01*
X28889201Y-35103356D01*
X29223150Y-35241682D01*
X29577668Y-35312200D01*
X29939132Y-35312200D01*
X30293650Y-35241682D01*
X30627599Y-35103356D01*
X30928144Y-34902538D01*
X31183738Y-34646944D01*
X31384556Y-34346399D01*
X31522882Y-34012450D01*
X31573152Y-33759721D01*
X33225000Y-33759721D01*
X33225000Y-34180279D01*
X33307047Y-34592756D01*
X33467988Y-34981302D01*
X33701637Y-35330983D01*
X33999017Y-35628363D01*
X34348698Y-35862012D01*
X34737244Y-36022953D01*
X35149721Y-36105000D01*
X35570279Y-36105000D01*
X35982756Y-36022953D01*
X36371302Y-35862012D01*
X36720983Y-35628363D01*
X37018363Y-35330983D01*
X37252012Y-34981302D01*
X37301904Y-34860850D01*
X47446200Y-34860850D01*
X47446200Y-35339551D01*
X47465155Y-35532005D01*
X47540062Y-35778941D01*
X47661705Y-36006518D01*
X47825409Y-36205992D01*
X48024883Y-36369695D01*
X48252460Y-36491338D01*
X48499396Y-36566245D01*
X48756200Y-36591538D01*
X49013005Y-36566245D01*
X49259941Y-36491338D01*
X49487518Y-36369695D01*
X49686992Y-36205992D01*
X49850695Y-36006518D01*
X49972338Y-35778940D01*
X50047245Y-35532004D01*
X50066200Y-35339550D01*
X50066200Y-34860850D01*
X52906200Y-34860850D01*
X52906200Y-35339551D01*
X52925155Y-35532005D01*
X53000062Y-35778941D01*
X53121705Y-36006518D01*
X53285409Y-36205992D01*
X53484883Y-36369695D01*
X53712460Y-36491338D01*
X53959396Y-36566245D01*
X54216200Y-36591538D01*
X54473005Y-36566245D01*
X54719941Y-36491338D01*
X54947518Y-36369695D01*
X55146992Y-36205992D01*
X55310695Y-36006518D01*
X55432338Y-35778940D01*
X55507245Y-35532004D01*
X55526200Y-35339550D01*
X55526200Y-34860849D01*
X55507245Y-34668395D01*
X55432338Y-34421459D01*
X55310695Y-34193882D01*
X55146992Y-33994408D01*
X54947517Y-33830705D01*
X54719940Y-33709062D01*
X54473004Y-33634155D01*
X54216200Y-33608862D01*
X53959395Y-33634155D01*
X53712459Y-33709062D01*
X53484882Y-33830705D01*
X53285408Y-33994408D01*
X53121705Y-34193883D01*
X53000062Y-34421460D01*
X52925155Y-34668396D01*
X52906200Y-34860850D01*
X50066200Y-34860850D01*
X50066200Y-34860849D01*
X50047245Y-34668395D01*
X49972338Y-34421459D01*
X49850695Y-34193882D01*
X49686992Y-33994408D01*
X49487517Y-33830705D01*
X49259940Y-33709062D01*
X49013004Y-33634155D01*
X48756200Y-33608862D01*
X48499395Y-33634155D01*
X48252459Y-33709062D01*
X48024882Y-33830705D01*
X47825408Y-33994408D01*
X47661705Y-34193883D01*
X47540062Y-34421460D01*
X47465155Y-34668396D01*
X47446200Y-34860850D01*
X37301904Y-34860850D01*
X37412953Y-34592756D01*
X37495000Y-34180279D01*
X37495000Y-33759721D01*
X37412953Y-33347244D01*
X37252012Y-32958698D01*
X37018363Y-32609017D01*
X36720983Y-32311637D01*
X36371302Y-32077988D01*
X35982756Y-31917047D01*
X35570279Y-31835000D01*
X35149721Y-31835000D01*
X34737244Y-31917047D01*
X34348698Y-32077988D01*
X33999017Y-32311637D01*
X33701637Y-32609017D01*
X33467988Y-32958698D01*
X33307047Y-33347244D01*
X33225000Y-33759721D01*
X31573152Y-33759721D01*
X31593400Y-33657932D01*
X31593400Y-33296468D01*
X31522882Y-32941950D01*
X31384556Y-32608001D01*
X31183738Y-32307456D01*
X30928144Y-32051862D01*
X30627599Y-31851044D01*
X30293650Y-31712718D01*
X29939132Y-31642200D01*
X29577668Y-31642200D01*
X29223150Y-31712718D01*
X28889201Y-31851044D01*
X28588656Y-32051862D01*
X28333062Y-32307456D01*
X28132244Y-32608001D01*
X28008400Y-32906987D01*
X27884556Y-32608001D01*
X27683738Y-32307456D01*
X27428144Y-32051862D01*
X27127599Y-31851044D01*
X26793650Y-31712718D01*
X26439132Y-31642200D01*
X26077668Y-31642200D01*
X25723150Y-31712718D01*
X25389201Y-31851044D01*
X25088656Y-32051862D01*
X24833062Y-32307456D01*
X24632244Y-32608001D01*
X24596472Y-32694362D01*
X24596472Y-32277200D01*
X24584212Y-32152718D01*
X24547902Y-32033020D01*
X24488937Y-31922706D01*
X24409585Y-31826015D01*
X24312894Y-31746663D01*
X24202580Y-31687698D01*
X24082882Y-31651388D01*
X23958400Y-31639128D01*
X21558400Y-31639128D01*
X21433918Y-31651388D01*
X21314220Y-31687698D01*
X21203906Y-31746663D01*
X21107215Y-31826015D01*
X21027863Y-31922706D01*
X20968898Y-32033020D01*
X20932588Y-32152718D01*
X20920328Y-32277200D01*
X20693414Y-32277200D01*
X20686296Y-27600000D01*
X39635328Y-27600000D01*
X39635328Y-29400000D01*
X39647588Y-29524482D01*
X39683898Y-29644180D01*
X39742863Y-29754494D01*
X39822215Y-29851185D01*
X39918906Y-29930537D01*
X40029220Y-29989502D01*
X40047527Y-29995056D01*
X39981088Y-30061495D01*
X39813101Y-30312905D01*
X39697389Y-30592257D01*
X39638400Y-30888816D01*
X39638400Y-31191184D01*
X39697389Y-31487743D01*
X39813101Y-31767095D01*
X39981088Y-32018505D01*
X40194895Y-32232312D01*
X40446305Y-32400299D01*
X40725657Y-32516011D01*
X41022216Y-32575000D01*
X41324584Y-32575000D01*
X41621143Y-32516011D01*
X41900495Y-32400299D01*
X42151905Y-32232312D01*
X42365712Y-32018505D01*
X42483653Y-31841994D01*
X47881200Y-31841994D01*
X47881200Y-32358407D01*
X47898347Y-32532500D01*
X47966106Y-32755874D01*
X48076143Y-32961736D01*
X48224226Y-33142175D01*
X48404665Y-33290258D01*
X48610527Y-33400294D01*
X48833901Y-33468053D01*
X49066200Y-33490933D01*
X49298500Y-33468053D01*
X49521874Y-33400294D01*
X49727736Y-33290258D01*
X49908175Y-33142175D01*
X50056258Y-32961736D01*
X50166294Y-32755873D01*
X50234053Y-32532499D01*
X50251200Y-32358406D01*
X50251200Y-31841994D01*
X52721200Y-31841994D01*
X52721200Y-32358407D01*
X52738347Y-32532500D01*
X52806106Y-32755874D01*
X52916143Y-32961736D01*
X53064226Y-33142175D01*
X53244665Y-33290258D01*
X53450527Y-33400294D01*
X53673901Y-33468053D01*
X53906200Y-33490933D01*
X54138500Y-33468053D01*
X54361874Y-33400294D01*
X54567736Y-33290258D01*
X54748175Y-33142175D01*
X54896258Y-32961736D01*
X55006294Y-32755873D01*
X55074053Y-32532499D01*
X55091200Y-32358406D01*
X55091200Y-32277200D01*
X64557528Y-32277200D01*
X64557528Y-34677200D01*
X64569788Y-34801682D01*
X64606098Y-34921380D01*
X64665063Y-35031694D01*
X64744415Y-35128385D01*
X64841106Y-35207737D01*
X64951420Y-35266702D01*
X65071118Y-35303012D01*
X65195600Y-35315272D01*
X67595600Y-35315272D01*
X67720082Y-35303012D01*
X67839780Y-35266702D01*
X67950094Y-35207737D01*
X68046785Y-35128385D01*
X68126137Y-35031694D01*
X68185102Y-34921380D01*
X68221412Y-34801682D01*
X68233672Y-34677200D01*
X68233672Y-34260038D01*
X68269444Y-34346399D01*
X68470262Y-34646944D01*
X68725856Y-34902538D01*
X69026401Y-35103356D01*
X69360350Y-35241682D01*
X69714868Y-35312200D01*
X70076332Y-35312200D01*
X70430850Y-35241682D01*
X70764799Y-35103356D01*
X71065344Y-34902538D01*
X71320938Y-34646944D01*
X71521756Y-34346399D01*
X71660082Y-34012450D01*
X71710352Y-33759721D01*
X73865000Y-33759721D01*
X73865000Y-34180279D01*
X73947047Y-34592756D01*
X74107988Y-34981302D01*
X74341637Y-35330983D01*
X74639017Y-35628363D01*
X74988698Y-35862012D01*
X75377244Y-36022953D01*
X75789721Y-36105000D01*
X76210279Y-36105000D01*
X76622756Y-36022953D01*
X77011302Y-35862012D01*
X77360983Y-35628363D01*
X77658363Y-35330983D01*
X77892012Y-34981302D01*
X78052953Y-34592756D01*
X78135000Y-34180279D01*
X78135000Y-33759721D01*
X78052953Y-33347244D01*
X77892012Y-32958698D01*
X77658363Y-32609017D01*
X77360983Y-32311637D01*
X77011302Y-32077988D01*
X76622756Y-31917047D01*
X76210279Y-31835000D01*
X75789721Y-31835000D01*
X75377244Y-31917047D01*
X74988698Y-32077988D01*
X74639017Y-32311637D01*
X74341637Y-32609017D01*
X74107988Y-32958698D01*
X73947047Y-33347244D01*
X73865000Y-33759721D01*
X71710352Y-33759721D01*
X71730600Y-33657932D01*
X71730600Y-33296468D01*
X71660082Y-32941950D01*
X71521756Y-32608001D01*
X71320938Y-32307456D01*
X71065344Y-32051862D01*
X70764799Y-31851044D01*
X70430850Y-31712718D01*
X70076332Y-31642200D01*
X69714868Y-31642200D01*
X69360350Y-31712718D01*
X69026401Y-31851044D01*
X68725856Y-32051862D01*
X68470262Y-32307456D01*
X68269444Y-32608001D01*
X68233672Y-32694362D01*
X68233672Y-32277200D01*
X68221412Y-32152718D01*
X68185102Y-32033020D01*
X68126137Y-31922706D01*
X68046785Y-31826015D01*
X67950094Y-31746663D01*
X67839780Y-31687698D01*
X67720082Y-31651388D01*
X67595600Y-31639128D01*
X65195600Y-31639128D01*
X65071118Y-31651388D01*
X64951420Y-31687698D01*
X64841106Y-31746663D01*
X64744415Y-31826015D01*
X64665063Y-31922706D01*
X64606098Y-32033020D01*
X64569788Y-32152718D01*
X64557528Y-32277200D01*
X55091200Y-32277200D01*
X55091200Y-31841993D01*
X55074053Y-31667900D01*
X55006294Y-31444526D01*
X54896258Y-31238664D01*
X54748175Y-31058225D01*
X54567735Y-30910142D01*
X54361873Y-30800106D01*
X54138499Y-30732347D01*
X53906200Y-30709467D01*
X53673900Y-30732347D01*
X53450526Y-30800106D01*
X53244664Y-30910142D01*
X53064225Y-31058225D01*
X52916142Y-31238665D01*
X52806106Y-31444527D01*
X52738347Y-31667901D01*
X52721200Y-31841994D01*
X50251200Y-31841994D01*
X50251200Y-31841993D01*
X50234053Y-31667900D01*
X50166294Y-31444526D01*
X50056258Y-31238664D01*
X49908175Y-31058225D01*
X49727735Y-30910142D01*
X49521873Y-30800106D01*
X49298499Y-30732347D01*
X49066200Y-30709467D01*
X48833900Y-30732347D01*
X48610526Y-30800106D01*
X48404664Y-30910142D01*
X48224225Y-31058225D01*
X48076142Y-31238665D01*
X47966106Y-31444527D01*
X47898347Y-31667901D01*
X47881200Y-31841994D01*
X42483653Y-31841994D01*
X42533699Y-31767095D01*
X42649411Y-31487743D01*
X42708400Y-31191184D01*
X42708400Y-30888816D01*
X42649411Y-30592257D01*
X42533699Y-30312905D01*
X42365712Y-30061495D01*
X42299273Y-29995056D01*
X42317580Y-29989502D01*
X42427894Y-29930537D01*
X42524585Y-29851185D01*
X42603937Y-29754494D01*
X42662902Y-29644180D01*
X42699212Y-29524482D01*
X42711472Y-29400000D01*
X42711472Y-27600000D01*
X42699212Y-27475518D01*
X42662902Y-27355820D01*
X42603937Y-27245506D01*
X42524585Y-27148815D01*
X42427894Y-27069463D01*
X42317580Y-27010498D01*
X42197882Y-26974188D01*
X42073400Y-26961928D01*
X40273400Y-26961928D01*
X40148918Y-26974188D01*
X40029220Y-27010498D01*
X39918906Y-27069463D01*
X39822215Y-27148815D01*
X39742863Y-27245506D01*
X39683898Y-27355820D01*
X39647588Y-27475518D01*
X39635328Y-27600000D01*
X20686296Y-27600000D01*
X20684687Y-26542661D01*
X51416000Y-26542661D01*
X51416000Y-26746539D01*
X51455774Y-26946498D01*
X51533795Y-27134856D01*
X51647063Y-27304374D01*
X51791226Y-27448537D01*
X51960744Y-27561805D01*
X52149102Y-27639826D01*
X52251801Y-27660254D01*
X52251800Y-28671545D01*
X52219595Y-28719744D01*
X52141574Y-28908102D01*
X52101800Y-29108061D01*
X52101800Y-29311939D01*
X52141574Y-29511898D01*
X52219595Y-29700256D01*
X52332863Y-29869774D01*
X52477026Y-30013937D01*
X52646544Y-30127205D01*
X52834902Y-30205226D01*
X53034861Y-30245000D01*
X53238739Y-30245000D01*
X53438698Y-30205226D01*
X53627056Y-30127205D01*
X53796574Y-30013937D01*
X53940737Y-29869774D01*
X54054005Y-29700256D01*
X54132026Y-29511898D01*
X54171800Y-29311939D01*
X54171800Y-29108061D01*
X54132026Y-28908102D01*
X54054005Y-28719744D01*
X54021800Y-28671546D01*
X54021800Y-27043665D01*
X54026081Y-27000199D01*
X54021800Y-26956733D01*
X54021800Y-26956723D01*
X54008995Y-26826710D01*
X53958389Y-26659887D01*
X53876211Y-26506141D01*
X53765617Y-26371383D01*
X53731844Y-26343666D01*
X53437734Y-26049556D01*
X53410017Y-26015783D01*
X53275259Y-25905189D01*
X53121513Y-25823011D01*
X53053460Y-25802367D01*
X52941256Y-25727395D01*
X52752898Y-25649374D01*
X52552939Y-25609600D01*
X52349061Y-25609600D01*
X52149102Y-25649374D01*
X51960744Y-25727395D01*
X51791226Y-25840663D01*
X51647063Y-25984826D01*
X51533795Y-26154344D01*
X51455774Y-26342702D01*
X51416000Y-26542661D01*
X20684687Y-26542661D01*
X20680207Y-23599721D01*
X23865000Y-23599721D01*
X23865000Y-24020279D01*
X23947047Y-24432756D01*
X24107988Y-24821302D01*
X24341637Y-25170983D01*
X24639017Y-25468363D01*
X24988698Y-25702012D01*
X25377244Y-25862953D01*
X25789721Y-25945000D01*
X26210279Y-25945000D01*
X26622756Y-25862953D01*
X27011302Y-25702012D01*
X27360983Y-25468363D01*
X27658363Y-25170983D01*
X27690172Y-25123377D01*
X29146229Y-25123377D01*
X29272104Y-25413315D01*
X29604262Y-25579139D01*
X29962387Y-25676975D01*
X30332719Y-25703065D01*
X30701025Y-25656405D01*
X31053151Y-25538789D01*
X31287896Y-25413315D01*
X31413771Y-25123377D01*
X30280000Y-23989605D01*
X29146229Y-25123377D01*
X27690172Y-25123377D01*
X27892012Y-24821302D01*
X28052953Y-24432756D01*
X28135000Y-24020279D01*
X28135000Y-23862719D01*
X28386935Y-23862719D01*
X28433595Y-24231025D01*
X28551211Y-24583151D01*
X28676685Y-24817896D01*
X28966623Y-24943771D01*
X30100395Y-23810000D01*
X30459605Y-23810000D01*
X31593377Y-24943771D01*
X31883315Y-24817896D01*
X32049139Y-24485738D01*
X32146975Y-24127613D01*
X32173065Y-23757281D01*
X32153105Y-23599721D01*
X33225000Y-23599721D01*
X33225000Y-24020279D01*
X33307047Y-24432756D01*
X33467988Y-24821302D01*
X33701637Y-25170983D01*
X33999017Y-25468363D01*
X34348698Y-25702012D01*
X34737244Y-25862953D01*
X35149721Y-25945000D01*
X35570279Y-25945000D01*
X35982756Y-25862953D01*
X36371302Y-25702012D01*
X36720983Y-25468363D01*
X37018363Y-25170983D01*
X37252012Y-24821302D01*
X37412953Y-24432756D01*
X37495000Y-24020279D01*
X37495000Y-23599721D01*
X37412953Y-23187244D01*
X37252012Y-22798698D01*
X37018363Y-22449017D01*
X36720983Y-22151637D01*
X36371302Y-21917988D01*
X35982756Y-21757047D01*
X35570279Y-21675000D01*
X35149721Y-21675000D01*
X34737244Y-21757047D01*
X34348698Y-21917988D01*
X33999017Y-22151637D01*
X33701637Y-22449017D01*
X33467988Y-22798698D01*
X33307047Y-23187244D01*
X33225000Y-23599721D01*
X32153105Y-23599721D01*
X32126405Y-23388975D01*
X32008789Y-23036849D01*
X31883315Y-22802104D01*
X31593377Y-22676229D01*
X30459605Y-23810000D01*
X30100395Y-23810000D01*
X28966623Y-22676229D01*
X28676685Y-22802104D01*
X28510861Y-23134262D01*
X28413025Y-23492387D01*
X28386935Y-23862719D01*
X28135000Y-23862719D01*
X28135000Y-23599721D01*
X28052953Y-23187244D01*
X27892012Y-22798698D01*
X27690173Y-22496623D01*
X29146229Y-22496623D01*
X30280000Y-23630395D01*
X31413771Y-22496623D01*
X31287896Y-22206685D01*
X30955738Y-22040861D01*
X30597613Y-21943025D01*
X30227281Y-21916935D01*
X29858975Y-21963595D01*
X29506849Y-22081211D01*
X29272104Y-22206685D01*
X29146229Y-22496623D01*
X27690173Y-22496623D01*
X27658363Y-22449017D01*
X27360983Y-22151637D01*
X27011302Y-21917988D01*
X26622756Y-21757047D01*
X26210279Y-21675000D01*
X25789721Y-21675000D01*
X25377244Y-21757047D01*
X24988698Y-21917988D01*
X24639017Y-22151637D01*
X24341637Y-22449017D01*
X24107988Y-22798698D01*
X23947047Y-23187244D01*
X23865000Y-23599721D01*
X20680207Y-23599721D01*
X20675794Y-20700945D01*
X40745454Y-20692268D01*
X40541041Y-20776939D01*
X40322387Y-20923038D01*
X40136438Y-21108987D01*
X39990339Y-21327641D01*
X39889704Y-21570595D01*
X39838400Y-21828514D01*
X39838400Y-22091486D01*
X39889704Y-22349405D01*
X39990339Y-22592359D01*
X40136438Y-22811013D01*
X40322387Y-22996962D01*
X40541041Y-23143061D01*
X40750930Y-23230000D01*
X40541041Y-23316939D01*
X40322387Y-23463038D01*
X40136438Y-23648987D01*
X39990339Y-23867641D01*
X39889704Y-24110595D01*
X39838400Y-24368514D01*
X39838400Y-24631486D01*
X39889704Y-24889405D01*
X39990339Y-25132359D01*
X40136438Y-25351013D01*
X40322387Y-25536962D01*
X40541041Y-25683061D01*
X40783995Y-25783696D01*
X41041914Y-25835000D01*
X41304886Y-25835000D01*
X41562805Y-25783696D01*
X41805759Y-25683061D01*
X42024413Y-25536962D01*
X42210362Y-25351013D01*
X42356461Y-25132359D01*
X42360181Y-25123377D01*
X69786229Y-25123377D01*
X69912104Y-25413315D01*
X70244262Y-25579139D01*
X70602387Y-25676975D01*
X70972719Y-25703065D01*
X71341025Y-25656405D01*
X71693151Y-25538789D01*
X71927896Y-25413315D01*
X72053771Y-25123377D01*
X70920000Y-23989605D01*
X69786229Y-25123377D01*
X42360181Y-25123377D01*
X42457096Y-24889405D01*
X42508400Y-24631486D01*
X42508400Y-24368514D01*
X42457096Y-24110595D01*
X42356461Y-23867641D01*
X42353173Y-23862719D01*
X69026935Y-23862719D01*
X69073595Y-24231025D01*
X69191211Y-24583151D01*
X69316685Y-24817896D01*
X69606623Y-24943771D01*
X70740395Y-23810000D01*
X71099605Y-23810000D01*
X72233377Y-24943771D01*
X72523315Y-24817896D01*
X72689139Y-24485738D01*
X72786975Y-24127613D01*
X72813065Y-23757281D01*
X72793105Y-23599721D01*
X73865000Y-23599721D01*
X73865000Y-24020279D01*
X73947047Y-24432756D01*
X74107988Y-24821302D01*
X74341637Y-25170983D01*
X74639017Y-25468363D01*
X74988698Y-25702012D01*
X75377244Y-25862953D01*
X75789721Y-25945000D01*
X76210279Y-25945000D01*
X76622756Y-25862953D01*
X77011302Y-25702012D01*
X77360983Y-25468363D01*
X77658363Y-25170983D01*
X77892012Y-24821302D01*
X78052953Y-24432756D01*
X78135000Y-24020279D01*
X78135000Y-23599721D01*
X78052953Y-23187244D01*
X77892012Y-22798698D01*
X77658363Y-22449017D01*
X77360983Y-22151637D01*
X77011302Y-21917988D01*
X76622756Y-21757047D01*
X76210279Y-21675000D01*
X75789721Y-21675000D01*
X75377244Y-21757047D01*
X74988698Y-21917988D01*
X74639017Y-22151637D01*
X74341637Y-22449017D01*
X74107988Y-22798698D01*
X73947047Y-23187244D01*
X73865000Y-23599721D01*
X72793105Y-23599721D01*
X72766405Y-23388975D01*
X72648789Y-23036849D01*
X72523315Y-22802104D01*
X72233377Y-22676229D01*
X71099605Y-23810000D01*
X70740395Y-23810000D01*
X69606623Y-22676229D01*
X69316685Y-22802104D01*
X69150861Y-23134262D01*
X69053025Y-23492387D01*
X69026935Y-23862719D01*
X42353173Y-23862719D01*
X42210362Y-23648987D01*
X42024413Y-23463038D01*
X41805759Y-23316939D01*
X41595870Y-23230000D01*
X41805759Y-23143061D01*
X42024413Y-22996962D01*
X42210362Y-22811013D01*
X42356461Y-22592359D01*
X42396116Y-22496623D01*
X69786229Y-22496623D01*
X70920000Y-23630395D01*
X72053771Y-22496623D01*
X71927896Y-22206685D01*
X71595738Y-22040861D01*
X71237613Y-21943025D01*
X70867281Y-21916935D01*
X70498975Y-21963595D01*
X70146849Y-22081211D01*
X69912104Y-22206685D01*
X69786229Y-22496623D01*
X42396116Y-22496623D01*
X42457096Y-22349405D01*
X42508400Y-22091486D01*
X42508400Y-21828514D01*
X42457096Y-21570595D01*
X42356461Y-21327641D01*
X42210362Y-21108987D01*
X42024413Y-20923038D01*
X41805759Y-20776939D01*
X41600453Y-20691898D01*
X79150000Y-20675664D01*
X79150001Y-34935646D01*
G37*
X79150001Y-34935646D02*
X79146691Y-37120000D01*
X20700784Y-37120000D01*
X20693414Y-32277200D01*
X20920328Y-32277200D01*
X20920328Y-34677200D01*
X20932588Y-34801682D01*
X20968898Y-34921380D01*
X21027863Y-35031694D01*
X21107215Y-35128385D01*
X21203906Y-35207737D01*
X21314220Y-35266702D01*
X21433918Y-35303012D01*
X21558400Y-35315272D01*
X23958400Y-35315272D01*
X24082882Y-35303012D01*
X24202580Y-35266702D01*
X24312894Y-35207737D01*
X24409585Y-35128385D01*
X24488937Y-35031694D01*
X24547902Y-34921380D01*
X24584212Y-34801682D01*
X24596472Y-34677200D01*
X24596472Y-34260038D01*
X24632244Y-34346399D01*
X24833062Y-34646944D01*
X25088656Y-34902538D01*
X25389201Y-35103356D01*
X25723150Y-35241682D01*
X26077668Y-35312200D01*
X26439132Y-35312200D01*
X26793650Y-35241682D01*
X27127599Y-35103356D01*
X27428144Y-34902538D01*
X27683738Y-34646944D01*
X27884556Y-34346399D01*
X28008400Y-34047413D01*
X28132244Y-34346399D01*
X28333062Y-34646944D01*
X28588656Y-34902538D01*
X28889201Y-35103356D01*
X29223150Y-35241682D01*
X29577668Y-35312200D01*
X29939132Y-35312200D01*
X30293650Y-35241682D01*
X30627599Y-35103356D01*
X30928144Y-34902538D01*
X31183738Y-34646944D01*
X31384556Y-34346399D01*
X31522882Y-34012450D01*
X31573152Y-33759721D01*
X33225000Y-33759721D01*
X33225000Y-34180279D01*
X33307047Y-34592756D01*
X33467988Y-34981302D01*
X33701637Y-35330983D01*
X33999017Y-35628363D01*
X34348698Y-35862012D01*
X34737244Y-36022953D01*
X35149721Y-36105000D01*
X35570279Y-36105000D01*
X35982756Y-36022953D01*
X36371302Y-35862012D01*
X36720983Y-35628363D01*
X37018363Y-35330983D01*
X37252012Y-34981302D01*
X37301904Y-34860850D01*
X47446200Y-34860850D01*
X47446200Y-35339551D01*
X47465155Y-35532005D01*
X47540062Y-35778941D01*
X47661705Y-36006518D01*
X47825409Y-36205992D01*
X48024883Y-36369695D01*
X48252460Y-36491338D01*
X48499396Y-36566245D01*
X48756200Y-36591538D01*
X49013005Y-36566245D01*
X49259941Y-36491338D01*
X49487518Y-36369695D01*
X49686992Y-36205992D01*
X49850695Y-36006518D01*
X49972338Y-35778940D01*
X50047245Y-35532004D01*
X50066200Y-35339550D01*
X50066200Y-34860850D01*
X52906200Y-34860850D01*
X52906200Y-35339551D01*
X52925155Y-35532005D01*
X53000062Y-35778941D01*
X53121705Y-36006518D01*
X53285409Y-36205992D01*
X53484883Y-36369695D01*
X53712460Y-36491338D01*
X53959396Y-36566245D01*
X54216200Y-36591538D01*
X54473005Y-36566245D01*
X54719941Y-36491338D01*
X54947518Y-36369695D01*
X55146992Y-36205992D01*
X55310695Y-36006518D01*
X55432338Y-35778940D01*
X55507245Y-35532004D01*
X55526200Y-35339550D01*
X55526200Y-34860849D01*
X55507245Y-34668395D01*
X55432338Y-34421459D01*
X55310695Y-34193882D01*
X55146992Y-33994408D01*
X54947517Y-33830705D01*
X54719940Y-33709062D01*
X54473004Y-33634155D01*
X54216200Y-33608862D01*
X53959395Y-33634155D01*
X53712459Y-33709062D01*
X53484882Y-33830705D01*
X53285408Y-33994408D01*
X53121705Y-34193883D01*
X53000062Y-34421460D01*
X52925155Y-34668396D01*
X52906200Y-34860850D01*
X50066200Y-34860850D01*
X50066200Y-34860849D01*
X50047245Y-34668395D01*
X49972338Y-34421459D01*
X49850695Y-34193882D01*
X49686992Y-33994408D01*
X49487517Y-33830705D01*
X49259940Y-33709062D01*
X49013004Y-33634155D01*
X48756200Y-33608862D01*
X48499395Y-33634155D01*
X48252459Y-33709062D01*
X48024882Y-33830705D01*
X47825408Y-33994408D01*
X47661705Y-34193883D01*
X47540062Y-34421460D01*
X47465155Y-34668396D01*
X47446200Y-34860850D01*
X37301904Y-34860850D01*
X37412953Y-34592756D01*
X37495000Y-34180279D01*
X37495000Y-33759721D01*
X37412953Y-33347244D01*
X37252012Y-32958698D01*
X37018363Y-32609017D01*
X36720983Y-32311637D01*
X36371302Y-32077988D01*
X35982756Y-31917047D01*
X35570279Y-31835000D01*
X35149721Y-31835000D01*
X34737244Y-31917047D01*
X34348698Y-32077988D01*
X33999017Y-32311637D01*
X33701637Y-32609017D01*
X33467988Y-32958698D01*
X33307047Y-33347244D01*
X33225000Y-33759721D01*
X31573152Y-33759721D01*
X31593400Y-33657932D01*
X31593400Y-33296468D01*
X31522882Y-32941950D01*
X31384556Y-32608001D01*
X31183738Y-32307456D01*
X30928144Y-32051862D01*
X30627599Y-31851044D01*
X30293650Y-31712718D01*
X29939132Y-31642200D01*
X29577668Y-31642200D01*
X29223150Y-31712718D01*
X28889201Y-31851044D01*
X28588656Y-32051862D01*
X28333062Y-32307456D01*
X28132244Y-32608001D01*
X28008400Y-32906987D01*
X27884556Y-32608001D01*
X27683738Y-32307456D01*
X27428144Y-32051862D01*
X27127599Y-31851044D01*
X26793650Y-31712718D01*
X26439132Y-31642200D01*
X26077668Y-31642200D01*
X25723150Y-31712718D01*
X25389201Y-31851044D01*
X25088656Y-32051862D01*
X24833062Y-32307456D01*
X24632244Y-32608001D01*
X24596472Y-32694362D01*
X24596472Y-32277200D01*
X24584212Y-32152718D01*
X24547902Y-32033020D01*
X24488937Y-31922706D01*
X24409585Y-31826015D01*
X24312894Y-31746663D01*
X24202580Y-31687698D01*
X24082882Y-31651388D01*
X23958400Y-31639128D01*
X21558400Y-31639128D01*
X21433918Y-31651388D01*
X21314220Y-31687698D01*
X21203906Y-31746663D01*
X21107215Y-31826015D01*
X21027863Y-31922706D01*
X20968898Y-32033020D01*
X20932588Y-32152718D01*
X20920328Y-32277200D01*
X20693414Y-32277200D01*
X20686296Y-27600000D01*
X39635328Y-27600000D01*
X39635328Y-29400000D01*
X39647588Y-29524482D01*
X39683898Y-29644180D01*
X39742863Y-29754494D01*
X39822215Y-29851185D01*
X39918906Y-29930537D01*
X40029220Y-29989502D01*
X40047527Y-29995056D01*
X39981088Y-30061495D01*
X39813101Y-30312905D01*
X39697389Y-30592257D01*
X39638400Y-30888816D01*
X39638400Y-31191184D01*
X39697389Y-31487743D01*
X39813101Y-31767095D01*
X39981088Y-32018505D01*
X40194895Y-32232312D01*
X40446305Y-32400299D01*
X40725657Y-32516011D01*
X41022216Y-32575000D01*
X41324584Y-32575000D01*
X41621143Y-32516011D01*
X41900495Y-32400299D01*
X42151905Y-32232312D01*
X42365712Y-32018505D01*
X42483653Y-31841994D01*
X47881200Y-31841994D01*
X47881200Y-32358407D01*
X47898347Y-32532500D01*
X47966106Y-32755874D01*
X48076143Y-32961736D01*
X48224226Y-33142175D01*
X48404665Y-33290258D01*
X48610527Y-33400294D01*
X48833901Y-33468053D01*
X49066200Y-33490933D01*
X49298500Y-33468053D01*
X49521874Y-33400294D01*
X49727736Y-33290258D01*
X49908175Y-33142175D01*
X50056258Y-32961736D01*
X50166294Y-32755873D01*
X50234053Y-32532499D01*
X50251200Y-32358406D01*
X50251200Y-31841994D01*
X52721200Y-31841994D01*
X52721200Y-32358407D01*
X52738347Y-32532500D01*
X52806106Y-32755874D01*
X52916143Y-32961736D01*
X53064226Y-33142175D01*
X53244665Y-33290258D01*
X53450527Y-33400294D01*
X53673901Y-33468053D01*
X53906200Y-33490933D01*
X54138500Y-33468053D01*
X54361874Y-33400294D01*
X54567736Y-33290258D01*
X54748175Y-33142175D01*
X54896258Y-32961736D01*
X55006294Y-32755873D01*
X55074053Y-32532499D01*
X55091200Y-32358406D01*
X55091200Y-32277200D01*
X64557528Y-32277200D01*
X64557528Y-34677200D01*
X64569788Y-34801682D01*
X64606098Y-34921380D01*
X64665063Y-35031694D01*
X64744415Y-35128385D01*
X64841106Y-35207737D01*
X64951420Y-35266702D01*
X65071118Y-35303012D01*
X65195600Y-35315272D01*
X67595600Y-35315272D01*
X67720082Y-35303012D01*
X67839780Y-35266702D01*
X67950094Y-35207737D01*
X68046785Y-35128385D01*
X68126137Y-35031694D01*
X68185102Y-34921380D01*
X68221412Y-34801682D01*
X68233672Y-34677200D01*
X68233672Y-34260038D01*
X68269444Y-34346399D01*
X68470262Y-34646944D01*
X68725856Y-34902538D01*
X69026401Y-35103356D01*
X69360350Y-35241682D01*
X69714868Y-35312200D01*
X70076332Y-35312200D01*
X70430850Y-35241682D01*
X70764799Y-35103356D01*
X71065344Y-34902538D01*
X71320938Y-34646944D01*
X71521756Y-34346399D01*
X71660082Y-34012450D01*
X71710352Y-33759721D01*
X73865000Y-33759721D01*
X73865000Y-34180279D01*
X73947047Y-34592756D01*
X74107988Y-34981302D01*
X74341637Y-35330983D01*
X74639017Y-35628363D01*
X74988698Y-35862012D01*
X75377244Y-36022953D01*
X75789721Y-36105000D01*
X76210279Y-36105000D01*
X76622756Y-36022953D01*
X77011302Y-35862012D01*
X77360983Y-35628363D01*
X77658363Y-35330983D01*
X77892012Y-34981302D01*
X78052953Y-34592756D01*
X78135000Y-34180279D01*
X78135000Y-33759721D01*
X78052953Y-33347244D01*
X77892012Y-32958698D01*
X77658363Y-32609017D01*
X77360983Y-32311637D01*
X77011302Y-32077988D01*
X76622756Y-31917047D01*
X76210279Y-31835000D01*
X75789721Y-31835000D01*
X75377244Y-31917047D01*
X74988698Y-32077988D01*
X74639017Y-32311637D01*
X74341637Y-32609017D01*
X74107988Y-32958698D01*
X73947047Y-33347244D01*
X73865000Y-33759721D01*
X71710352Y-33759721D01*
X71730600Y-33657932D01*
X71730600Y-33296468D01*
X71660082Y-32941950D01*
X71521756Y-32608001D01*
X71320938Y-32307456D01*
X71065344Y-32051862D01*
X70764799Y-31851044D01*
X70430850Y-31712718D01*
X70076332Y-31642200D01*
X69714868Y-31642200D01*
X69360350Y-31712718D01*
X69026401Y-31851044D01*
X68725856Y-32051862D01*
X68470262Y-32307456D01*
X68269444Y-32608001D01*
X68233672Y-32694362D01*
X68233672Y-32277200D01*
X68221412Y-32152718D01*
X68185102Y-32033020D01*
X68126137Y-31922706D01*
X68046785Y-31826015D01*
X67950094Y-31746663D01*
X67839780Y-31687698D01*
X67720082Y-31651388D01*
X67595600Y-31639128D01*
X65195600Y-31639128D01*
X65071118Y-31651388D01*
X64951420Y-31687698D01*
X64841106Y-31746663D01*
X64744415Y-31826015D01*
X64665063Y-31922706D01*
X64606098Y-32033020D01*
X64569788Y-32152718D01*
X64557528Y-32277200D01*
X55091200Y-32277200D01*
X55091200Y-31841993D01*
X55074053Y-31667900D01*
X55006294Y-31444526D01*
X54896258Y-31238664D01*
X54748175Y-31058225D01*
X54567735Y-30910142D01*
X54361873Y-30800106D01*
X54138499Y-30732347D01*
X53906200Y-30709467D01*
X53673900Y-30732347D01*
X53450526Y-30800106D01*
X53244664Y-30910142D01*
X53064225Y-31058225D01*
X52916142Y-31238665D01*
X52806106Y-31444527D01*
X52738347Y-31667901D01*
X52721200Y-31841994D01*
X50251200Y-31841994D01*
X50251200Y-31841993D01*
X50234053Y-31667900D01*
X50166294Y-31444526D01*
X50056258Y-31238664D01*
X49908175Y-31058225D01*
X49727735Y-30910142D01*
X49521873Y-30800106D01*
X49298499Y-30732347D01*
X49066200Y-30709467D01*
X48833900Y-30732347D01*
X48610526Y-30800106D01*
X48404664Y-30910142D01*
X48224225Y-31058225D01*
X48076142Y-31238665D01*
X47966106Y-31444527D01*
X47898347Y-31667901D01*
X47881200Y-31841994D01*
X42483653Y-31841994D01*
X42533699Y-31767095D01*
X42649411Y-31487743D01*
X42708400Y-31191184D01*
X42708400Y-30888816D01*
X42649411Y-30592257D01*
X42533699Y-30312905D01*
X42365712Y-30061495D01*
X42299273Y-29995056D01*
X42317580Y-29989502D01*
X42427894Y-29930537D01*
X42524585Y-29851185D01*
X42603937Y-29754494D01*
X42662902Y-29644180D01*
X42699212Y-29524482D01*
X42711472Y-29400000D01*
X42711472Y-27600000D01*
X42699212Y-27475518D01*
X42662902Y-27355820D01*
X42603937Y-27245506D01*
X42524585Y-27148815D01*
X42427894Y-27069463D01*
X42317580Y-27010498D01*
X42197882Y-26974188D01*
X42073400Y-26961928D01*
X40273400Y-26961928D01*
X40148918Y-26974188D01*
X40029220Y-27010498D01*
X39918906Y-27069463D01*
X39822215Y-27148815D01*
X39742863Y-27245506D01*
X39683898Y-27355820D01*
X39647588Y-27475518D01*
X39635328Y-27600000D01*
X20686296Y-27600000D01*
X20684687Y-26542661D01*
X51416000Y-26542661D01*
X51416000Y-26746539D01*
X51455774Y-26946498D01*
X51533795Y-27134856D01*
X51647063Y-27304374D01*
X51791226Y-27448537D01*
X51960744Y-27561805D01*
X52149102Y-27639826D01*
X52251801Y-27660254D01*
X52251800Y-28671545D01*
X52219595Y-28719744D01*
X52141574Y-28908102D01*
X52101800Y-29108061D01*
X52101800Y-29311939D01*
X52141574Y-29511898D01*
X52219595Y-29700256D01*
X52332863Y-29869774D01*
X52477026Y-30013937D01*
X52646544Y-30127205D01*
X52834902Y-30205226D01*
X53034861Y-30245000D01*
X53238739Y-30245000D01*
X53438698Y-30205226D01*
X53627056Y-30127205D01*
X53796574Y-30013937D01*
X53940737Y-29869774D01*
X54054005Y-29700256D01*
X54132026Y-29511898D01*
X54171800Y-29311939D01*
X54171800Y-29108061D01*
X54132026Y-28908102D01*
X54054005Y-28719744D01*
X54021800Y-28671546D01*
X54021800Y-27043665D01*
X54026081Y-27000199D01*
X54021800Y-26956733D01*
X54021800Y-26956723D01*
X54008995Y-26826710D01*
X53958389Y-26659887D01*
X53876211Y-26506141D01*
X53765617Y-26371383D01*
X53731844Y-26343666D01*
X53437734Y-26049556D01*
X53410017Y-26015783D01*
X53275259Y-25905189D01*
X53121513Y-25823011D01*
X53053460Y-25802367D01*
X52941256Y-25727395D01*
X52752898Y-25649374D01*
X52552939Y-25609600D01*
X52349061Y-25609600D01*
X52149102Y-25649374D01*
X51960744Y-25727395D01*
X51791226Y-25840663D01*
X51647063Y-25984826D01*
X51533795Y-26154344D01*
X51455774Y-26342702D01*
X51416000Y-26542661D01*
X20684687Y-26542661D01*
X20680207Y-23599721D01*
X23865000Y-23599721D01*
X23865000Y-24020279D01*
X23947047Y-24432756D01*
X24107988Y-24821302D01*
X24341637Y-25170983D01*
X24639017Y-25468363D01*
X24988698Y-25702012D01*
X25377244Y-25862953D01*
X25789721Y-25945000D01*
X26210279Y-25945000D01*
X26622756Y-25862953D01*
X27011302Y-25702012D01*
X27360983Y-25468363D01*
X27658363Y-25170983D01*
X27690172Y-25123377D01*
X29146229Y-25123377D01*
X29272104Y-25413315D01*
X29604262Y-25579139D01*
X29962387Y-25676975D01*
X30332719Y-25703065D01*
X30701025Y-25656405D01*
X31053151Y-25538789D01*
X31287896Y-25413315D01*
X31413771Y-25123377D01*
X30280000Y-23989605D01*
X29146229Y-25123377D01*
X27690172Y-25123377D01*
X27892012Y-24821302D01*
X28052953Y-24432756D01*
X28135000Y-24020279D01*
X28135000Y-23862719D01*
X28386935Y-23862719D01*
X28433595Y-24231025D01*
X28551211Y-24583151D01*
X28676685Y-24817896D01*
X28966623Y-24943771D01*
X30100395Y-23810000D01*
X30459605Y-23810000D01*
X31593377Y-24943771D01*
X31883315Y-24817896D01*
X32049139Y-24485738D01*
X32146975Y-24127613D01*
X32173065Y-23757281D01*
X32153105Y-23599721D01*
X33225000Y-23599721D01*
X33225000Y-24020279D01*
X33307047Y-24432756D01*
X33467988Y-24821302D01*
X33701637Y-25170983D01*
X33999017Y-25468363D01*
X34348698Y-25702012D01*
X34737244Y-25862953D01*
X35149721Y-25945000D01*
X35570279Y-25945000D01*
X35982756Y-25862953D01*
X36371302Y-25702012D01*
X36720983Y-25468363D01*
X37018363Y-25170983D01*
X37252012Y-24821302D01*
X37412953Y-24432756D01*
X37495000Y-24020279D01*
X37495000Y-23599721D01*
X37412953Y-23187244D01*
X37252012Y-22798698D01*
X37018363Y-22449017D01*
X36720983Y-22151637D01*
X36371302Y-21917988D01*
X35982756Y-21757047D01*
X35570279Y-21675000D01*
X35149721Y-21675000D01*
X34737244Y-21757047D01*
X34348698Y-21917988D01*
X33999017Y-22151637D01*
X33701637Y-22449017D01*
X33467988Y-22798698D01*
X33307047Y-23187244D01*
X33225000Y-23599721D01*
X32153105Y-23599721D01*
X32126405Y-23388975D01*
X32008789Y-23036849D01*
X31883315Y-22802104D01*
X31593377Y-22676229D01*
X30459605Y-23810000D01*
X30100395Y-23810000D01*
X28966623Y-22676229D01*
X28676685Y-22802104D01*
X28510861Y-23134262D01*
X28413025Y-23492387D01*
X28386935Y-23862719D01*
X28135000Y-23862719D01*
X28135000Y-23599721D01*
X28052953Y-23187244D01*
X27892012Y-22798698D01*
X27690173Y-22496623D01*
X29146229Y-22496623D01*
X30280000Y-23630395D01*
X31413771Y-22496623D01*
X31287896Y-22206685D01*
X30955738Y-22040861D01*
X30597613Y-21943025D01*
X30227281Y-21916935D01*
X29858975Y-21963595D01*
X29506849Y-22081211D01*
X29272104Y-22206685D01*
X29146229Y-22496623D01*
X27690173Y-22496623D01*
X27658363Y-22449017D01*
X27360983Y-22151637D01*
X27011302Y-21917988D01*
X26622756Y-21757047D01*
X26210279Y-21675000D01*
X25789721Y-21675000D01*
X25377244Y-21757047D01*
X24988698Y-21917988D01*
X24639017Y-22151637D01*
X24341637Y-22449017D01*
X24107988Y-22798698D01*
X23947047Y-23187244D01*
X23865000Y-23599721D01*
X20680207Y-23599721D01*
X20675794Y-20700945D01*
X40745454Y-20692268D01*
X40541041Y-20776939D01*
X40322387Y-20923038D01*
X40136438Y-21108987D01*
X39990339Y-21327641D01*
X39889704Y-21570595D01*
X39838400Y-21828514D01*
X39838400Y-22091486D01*
X39889704Y-22349405D01*
X39990339Y-22592359D01*
X40136438Y-22811013D01*
X40322387Y-22996962D01*
X40541041Y-23143061D01*
X40750930Y-23230000D01*
X40541041Y-23316939D01*
X40322387Y-23463038D01*
X40136438Y-23648987D01*
X39990339Y-23867641D01*
X39889704Y-24110595D01*
X39838400Y-24368514D01*
X39838400Y-24631486D01*
X39889704Y-24889405D01*
X39990339Y-25132359D01*
X40136438Y-25351013D01*
X40322387Y-25536962D01*
X40541041Y-25683061D01*
X40783995Y-25783696D01*
X41041914Y-25835000D01*
X41304886Y-25835000D01*
X41562805Y-25783696D01*
X41805759Y-25683061D01*
X42024413Y-25536962D01*
X42210362Y-25351013D01*
X42356461Y-25132359D01*
X42360181Y-25123377D01*
X69786229Y-25123377D01*
X69912104Y-25413315D01*
X70244262Y-25579139D01*
X70602387Y-25676975D01*
X70972719Y-25703065D01*
X71341025Y-25656405D01*
X71693151Y-25538789D01*
X71927896Y-25413315D01*
X72053771Y-25123377D01*
X70920000Y-23989605D01*
X69786229Y-25123377D01*
X42360181Y-25123377D01*
X42457096Y-24889405D01*
X42508400Y-24631486D01*
X42508400Y-24368514D01*
X42457096Y-24110595D01*
X42356461Y-23867641D01*
X42353173Y-23862719D01*
X69026935Y-23862719D01*
X69073595Y-24231025D01*
X69191211Y-24583151D01*
X69316685Y-24817896D01*
X69606623Y-24943771D01*
X70740395Y-23810000D01*
X71099605Y-23810000D01*
X72233377Y-24943771D01*
X72523315Y-24817896D01*
X72689139Y-24485738D01*
X72786975Y-24127613D01*
X72813065Y-23757281D01*
X72793105Y-23599721D01*
X73865000Y-23599721D01*
X73865000Y-24020279D01*
X73947047Y-24432756D01*
X74107988Y-24821302D01*
X74341637Y-25170983D01*
X74639017Y-25468363D01*
X74988698Y-25702012D01*
X75377244Y-25862953D01*
X75789721Y-25945000D01*
X76210279Y-25945000D01*
X76622756Y-25862953D01*
X77011302Y-25702012D01*
X77360983Y-25468363D01*
X77658363Y-25170983D01*
X77892012Y-24821302D01*
X78052953Y-24432756D01*
X78135000Y-24020279D01*
X78135000Y-23599721D01*
X78052953Y-23187244D01*
X77892012Y-22798698D01*
X77658363Y-22449017D01*
X77360983Y-22151637D01*
X77011302Y-21917988D01*
X76622756Y-21757047D01*
X76210279Y-21675000D01*
X75789721Y-21675000D01*
X75377244Y-21757047D01*
X74988698Y-21917988D01*
X74639017Y-22151637D01*
X74341637Y-22449017D01*
X74107988Y-22798698D01*
X73947047Y-23187244D01*
X73865000Y-23599721D01*
X72793105Y-23599721D01*
X72766405Y-23388975D01*
X72648789Y-23036849D01*
X72523315Y-22802104D01*
X72233377Y-22676229D01*
X71099605Y-23810000D01*
X70740395Y-23810000D01*
X69606623Y-22676229D01*
X69316685Y-22802104D01*
X69150861Y-23134262D01*
X69053025Y-23492387D01*
X69026935Y-23862719D01*
X42353173Y-23862719D01*
X42210362Y-23648987D01*
X42024413Y-23463038D01*
X41805759Y-23316939D01*
X41595870Y-23230000D01*
X41805759Y-23143061D01*
X42024413Y-22996962D01*
X42210362Y-22811013D01*
X42356461Y-22592359D01*
X42396116Y-22496623D01*
X69786229Y-22496623D01*
X70920000Y-23630395D01*
X72053771Y-22496623D01*
X71927896Y-22206685D01*
X71595738Y-22040861D01*
X71237613Y-21943025D01*
X70867281Y-21916935D01*
X70498975Y-21963595D01*
X70146849Y-22081211D01*
X69912104Y-22206685D01*
X69786229Y-22496623D01*
X42396116Y-22496623D01*
X42457096Y-22349405D01*
X42508400Y-22091486D01*
X42508400Y-21828514D01*
X42457096Y-21570595D01*
X42356461Y-21327641D01*
X42210362Y-21108987D01*
X42024413Y-20923038D01*
X41805759Y-20776939D01*
X41600453Y-20691898D01*
X79150000Y-20675664D01*
X79150001Y-34935646D01*
M02*
