M48
; DRILL file {KiCad 5.1.5-52549c5~86~ubuntu18.04.1} date jue 17 sep 2020 16:53:23 -05
; FORMAT={-:-/ absolute / metric / decimal}
; #@! TF.CreationDate,2020-09-17T16:53:23-05:00
; #@! TF.GenerationSoftware,Kicad,Pcbnew,5.1.5-52549c5~86~ubuntu18.04.1
; #@! TF.FileFunction,Plated,1,2,PTH
FMAT,2
METRIC
T1C0.400
T2C0.650
T3C0.700
T4C0.900
T5C1.001
T6C1.200
%
G90
G05
T1
X52.451Y-26.645
X53.137Y-29.21
T3
X41.173Y-21.96
X41.173Y-24.5
T4
X41.173Y-28.5
X41.173Y-31.04
T5
X70.92Y-23.81
X30.28Y-23.81
T6
X66.396Y-33.477
X69.896Y-33.477
X22.758Y-33.477
X26.258Y-33.477
X29.758Y-33.477
T2
G00X49.066Y-32.3
M15
G01X49.066Y-31.9
M16
G05
G00X53.906Y-32.3
M15
G01X53.906Y-31.9
M16
G05
T3
G00X48.756Y-35.35
M15
G01X48.756Y-34.85
M16
G05
G00X54.216Y-35.35
M15
G01X54.216Y-34.85
M16
G05
T0
M30
