G04 #@! TF.GenerationSoftware,KiCad,Pcbnew,5.1.5-52549c5~86~ubuntu18.04.1*
G04 #@! TF.CreationDate,2020-09-07T14:49:02-05:00*
G04 #@! TF.ProjectId,C01,4330312e-6b69-4636-9164-5f7063625858,rev?*
G04 #@! TF.SameCoordinates,Original*
G04 #@! TF.FileFunction,Copper,L2,Bot*
G04 #@! TF.FilePolarity,Positive*
%FSLAX46Y46*%
G04 Gerber Fmt 4.6, Leading zero omitted, Abs format (unit mm)*
G04 Created by KiCad (PCBNEW 5.1.5-52549c5~86~ubuntu18.04.1) date 2020-09-07 14:49:02*
%MOMM*%
%LPD*%
G04 APERTURE LIST*
%ADD10C,0.250000*%
%ADD11C,0.010000*%
%ADD12O,1.350000X1.350000*%
%ADD13C,1.350000*%
%ADD14C,2.400000*%
%ADD15C,2.499360*%
%ADD16C,0.750000*%
%ADD17C,0.254000*%
G04 APERTURE END LIST*
D10*
X21201666Y-35609257D02*
X21154047Y-35561638D01*
X21011190Y-35514019D01*
X20915952Y-35514019D01*
X20773095Y-35561638D01*
X20677857Y-35656876D01*
X20630238Y-35752114D01*
X20582619Y-35942590D01*
X20582619Y-36085447D01*
X20630238Y-36275923D01*
X20677857Y-36371161D01*
X20773095Y-36466400D01*
X20915952Y-36514019D01*
X21011190Y-36514019D01*
X21154047Y-36466400D01*
X21201666Y-36418780D01*
X21820714Y-36514019D02*
X21915952Y-36514019D01*
X22011190Y-36466400D01*
X22058809Y-36418780D01*
X22106428Y-36323542D01*
X22154047Y-36133066D01*
X22154047Y-35894971D01*
X22106428Y-35704495D01*
X22058809Y-35609257D01*
X22011190Y-35561638D01*
X21915952Y-35514019D01*
X21820714Y-35514019D01*
X21725476Y-35561638D01*
X21677857Y-35609257D01*
X21630238Y-35704495D01*
X21582619Y-35894971D01*
X21582619Y-36133066D01*
X21630238Y-36323542D01*
X21677857Y-36418780D01*
X21725476Y-36466400D01*
X21820714Y-36514019D01*
X23106428Y-35514019D02*
X22535000Y-35514019D01*
X22820714Y-35514019D02*
X22820714Y-36514019D01*
X22725476Y-36371161D01*
X22630238Y-36275923D01*
X22535000Y-36228304D01*
X23296904Y-35418780D02*
X24058809Y-35418780D01*
X24630238Y-36037828D02*
X24773095Y-35990209D01*
X24820714Y-35942590D01*
X24868333Y-35847352D01*
X24868333Y-35704495D01*
X24820714Y-35609257D01*
X24773095Y-35561638D01*
X24677857Y-35514019D01*
X24296904Y-35514019D01*
X24296904Y-36514019D01*
X24630238Y-36514019D01*
X24725476Y-36466400D01*
X24773095Y-36418780D01*
X24820714Y-36323542D01*
X24820714Y-36228304D01*
X24773095Y-36133066D01*
X24725476Y-36085447D01*
X24630238Y-36037828D01*
X24296904Y-36037828D01*
X25868333Y-35514019D02*
X25535000Y-35990209D01*
X25296904Y-35514019D02*
X25296904Y-36514019D01*
X25677857Y-36514019D01*
X25773095Y-36466400D01*
X25820714Y-36418780D01*
X25868333Y-36323542D01*
X25868333Y-36180685D01*
X25820714Y-36085447D01*
X25773095Y-36037828D01*
X25677857Y-35990209D01*
X25296904Y-35990209D01*
X26296904Y-36037828D02*
X26630238Y-36037828D01*
X26773095Y-35514019D02*
X26296904Y-35514019D01*
X26296904Y-36514019D01*
X26773095Y-36514019D01*
X27154047Y-35799733D02*
X27630238Y-35799733D01*
X27058809Y-35514019D02*
X27392142Y-36514019D01*
X27725476Y-35514019D01*
X28058809Y-35514019D02*
X28058809Y-36514019D01*
X28630238Y-35514019D02*
X28201666Y-36085447D01*
X28630238Y-36514019D02*
X28058809Y-35942590D01*
X29249285Y-36514019D02*
X29439761Y-36514019D01*
X29535000Y-36466400D01*
X29630238Y-36371161D01*
X29677857Y-36180685D01*
X29677857Y-35847352D01*
X29630238Y-35656876D01*
X29535000Y-35561638D01*
X29439761Y-35514019D01*
X29249285Y-35514019D01*
X29154047Y-35561638D01*
X29058809Y-35656876D01*
X29011190Y-35847352D01*
X29011190Y-36180685D01*
X29058809Y-36371161D01*
X29154047Y-36466400D01*
X29249285Y-36514019D01*
X30106428Y-36514019D02*
X30106428Y-35704495D01*
X30154047Y-35609257D01*
X30201666Y-35561638D01*
X30296904Y-35514019D01*
X30487380Y-35514019D01*
X30582619Y-35561638D01*
X30630238Y-35609257D01*
X30677857Y-35704495D01*
X30677857Y-36514019D01*
X31011190Y-36514019D02*
X31582619Y-36514019D01*
X31296904Y-35514019D02*
X31296904Y-36514019D01*
D11*
G36*
X24203214Y-52696069D02*
G01*
X24287035Y-52251445D01*
X24596320Y-52123947D01*
X24905606Y-51996449D01*
X25276646Y-52248754D01*
X25380557Y-52319004D01*
X25474487Y-52381728D01*
X25554052Y-52434062D01*
X25614870Y-52473143D01*
X25652557Y-52496107D01*
X25662821Y-52501058D01*
X25681310Y-52488324D01*
X25720820Y-52453118D01*
X25776922Y-52399938D01*
X25845187Y-52333282D01*
X25921186Y-52257646D01*
X26000492Y-52177528D01*
X26078675Y-52097426D01*
X26151307Y-52021836D01*
X26213959Y-51955255D01*
X26262203Y-51902182D01*
X26291610Y-51867113D01*
X26298641Y-51855377D01*
X26288523Y-51833740D01*
X26260159Y-51786338D01*
X26216529Y-51717807D01*
X26160618Y-51632785D01*
X26095406Y-51535907D01*
X26057619Y-51480650D01*
X25988743Y-51379752D01*
X25927540Y-51288701D01*
X25876978Y-51212030D01*
X25840028Y-51154272D01*
X25819658Y-51119957D01*
X25816597Y-51112746D01*
X25823536Y-51092252D01*
X25842451Y-51044487D01*
X25870487Y-50976168D01*
X25904791Y-50894011D01*
X25942509Y-50804730D01*
X25980787Y-50715042D01*
X26016770Y-50631662D01*
X26047606Y-50561306D01*
X26070439Y-50510690D01*
X26082417Y-50486529D01*
X26083124Y-50485578D01*
X26101931Y-50480964D01*
X26152018Y-50470672D01*
X26228193Y-50455713D01*
X26325265Y-50437099D01*
X26438043Y-50415841D01*
X26503842Y-50403582D01*
X26624350Y-50380638D01*
X26733197Y-50358805D01*
X26824876Y-50339278D01*
X26893881Y-50323252D01*
X26934704Y-50311921D01*
X26942911Y-50308326D01*
X26950948Y-50283994D01*
X26957433Y-50229041D01*
X26962370Y-50149892D01*
X26965764Y-50052974D01*
X26967618Y-49944713D01*
X26967938Y-49831535D01*
X26966727Y-49719865D01*
X26963990Y-49616132D01*
X26959731Y-49526759D01*
X26953955Y-49458174D01*
X26946667Y-49416803D01*
X26942295Y-49408190D01*
X26916164Y-49397867D01*
X26860793Y-49383108D01*
X26783507Y-49365648D01*
X26691630Y-49347220D01*
X26659558Y-49341259D01*
X26504924Y-49312934D01*
X26382775Y-49290124D01*
X26289073Y-49271920D01*
X26219784Y-49257417D01*
X26170871Y-49245708D01*
X26138297Y-49235885D01*
X26118028Y-49227044D01*
X26106026Y-49218276D01*
X26104347Y-49216543D01*
X26087584Y-49188629D01*
X26062014Y-49134305D01*
X26030188Y-49060223D01*
X25994660Y-48973035D01*
X25957983Y-48879392D01*
X25922711Y-48785948D01*
X25891396Y-48699353D01*
X25866593Y-48626260D01*
X25850854Y-48573322D01*
X25846732Y-48547189D01*
X25847076Y-48546274D01*
X25861041Y-48524914D01*
X25892722Y-48477916D01*
X25938791Y-48410173D01*
X25995918Y-48326577D01*
X26060773Y-48232018D01*
X26079243Y-48205146D01*
X26145099Y-48107725D01*
X26203050Y-48018837D01*
X26249938Y-47943588D01*
X26282607Y-47887080D01*
X26297900Y-47854419D01*
X26298641Y-47850407D01*
X26285792Y-47829316D01*
X26250288Y-47787536D01*
X26196693Y-47729555D01*
X26129571Y-47659865D01*
X26053487Y-47582955D01*
X25973004Y-47503317D01*
X25892687Y-47425439D01*
X25817099Y-47353814D01*
X25750805Y-47292930D01*
X25698369Y-47247279D01*
X25664355Y-47221350D01*
X25654945Y-47217117D01*
X25633043Y-47227088D01*
X25588200Y-47253980D01*
X25527721Y-47293264D01*
X25481189Y-47324883D01*
X25396875Y-47382902D01*
X25297026Y-47451216D01*
X25196873Y-47519421D01*
X25143027Y-47555925D01*
X24960771Y-47679200D01*
X24807781Y-47596480D01*
X24738082Y-47560241D01*
X24678814Y-47532074D01*
X24638711Y-47516009D01*
X24628503Y-47513774D01*
X24616229Y-47530278D01*
X24592013Y-47576918D01*
X24557663Y-47649391D01*
X24514988Y-47743394D01*
X24465794Y-47854626D01*
X24411890Y-47978785D01*
X24355084Y-48111568D01*
X24297182Y-48248673D01*
X24239993Y-48385798D01*
X24185324Y-48518642D01*
X24134984Y-48642902D01*
X24090780Y-48754275D01*
X24054519Y-48848461D01*
X24028009Y-48921156D01*
X24013058Y-48968059D01*
X24010654Y-48984167D01*
X24029711Y-49004714D01*
X24071436Y-49038067D01*
X24127106Y-49077298D01*
X24131778Y-49080401D01*
X24275664Y-49195577D01*
X24391683Y-49329947D01*
X24478830Y-49479216D01*
X24536099Y-49639087D01*
X24562486Y-49805263D01*
X24556985Y-49973448D01*
X24518590Y-50139345D01*
X24446295Y-50298658D01*
X24425026Y-50333513D01*
X24314396Y-50474263D01*
X24183702Y-50587286D01*
X24037464Y-50671997D01*
X23880208Y-50727806D01*
X23716457Y-50754126D01*
X23550733Y-50750370D01*
X23387562Y-50715950D01*
X23231465Y-50650277D01*
X23086967Y-50552765D01*
X23042269Y-50513187D01*
X22928512Y-50389297D01*
X22845618Y-50258876D01*
X22788756Y-50112685D01*
X22757087Y-49967912D01*
X22749269Y-49805140D01*
X22775338Y-49641560D01*
X22832645Y-49482702D01*
X22918544Y-49334094D01*
X23030386Y-49201265D01*
X23165523Y-49089744D01*
X23183283Y-49077989D01*
X23239550Y-49039492D01*
X23282323Y-49006137D01*
X23302772Y-48984840D01*
X23303069Y-48984167D01*
X23298679Y-48961129D01*
X23281276Y-48908843D01*
X23252668Y-48831610D01*
X23214665Y-48733732D01*
X23169074Y-48619509D01*
X23117703Y-48493242D01*
X23062362Y-48359233D01*
X23004858Y-48221782D01*
X22947001Y-48085192D01*
X22890598Y-47953763D01*
X22837458Y-47831795D01*
X22789390Y-47723591D01*
X22748201Y-47633451D01*
X22715701Y-47565677D01*
X22693697Y-47524570D01*
X22684836Y-47513774D01*
X22657760Y-47522181D01*
X22607097Y-47544728D01*
X22541583Y-47577387D01*
X22505559Y-47596480D01*
X22352568Y-47679200D01*
X22170312Y-47555925D01*
X22077275Y-47492772D01*
X21975415Y-47423273D01*
X21879962Y-47357835D01*
X21832150Y-47324883D01*
X21764905Y-47279727D01*
X21707964Y-47243943D01*
X21668754Y-47222062D01*
X21656019Y-47217437D01*
X21637483Y-47229915D01*
X21596459Y-47264748D01*
X21536925Y-47318322D01*
X21462858Y-47387017D01*
X21378235Y-47467219D01*
X21324715Y-47518714D01*
X21231081Y-47610714D01*
X21150159Y-47693001D01*
X21085223Y-47762055D01*
X21039542Y-47814356D01*
X21016389Y-47846384D01*
X21014168Y-47852884D01*
X21024476Y-47877606D01*
X21052961Y-47927595D01*
X21096463Y-47997788D01*
X21151823Y-48083125D01*
X21215880Y-48178544D01*
X21234097Y-48205146D01*
X21300473Y-48301833D01*
X21360022Y-48388883D01*
X21409416Y-48461405D01*
X21445325Y-48514507D01*
X21464419Y-48543297D01*
X21466264Y-48546274D01*
X21463505Y-48569218D01*
X21448862Y-48619664D01*
X21424887Y-48690959D01*
X21394134Y-48776453D01*
X21359156Y-48869493D01*
X21322507Y-48963426D01*
X21286739Y-49051601D01*
X21254406Y-49127366D01*
X21228062Y-49184069D01*
X21210258Y-49215057D01*
X21208993Y-49216543D01*
X21198106Y-49225399D01*
X21179718Y-49234157D01*
X21149794Y-49243723D01*
X21104297Y-49255004D01*
X21039191Y-49268907D01*
X20950439Y-49286337D01*
X20834007Y-49308202D01*
X20685858Y-49335409D01*
X20653782Y-49341259D01*
X20558714Y-49359626D01*
X20475835Y-49377595D01*
X20412470Y-49393431D01*
X20375942Y-49405400D01*
X20371044Y-49408190D01*
X20362973Y-49432928D01*
X20356413Y-49488210D01*
X20351367Y-49567611D01*
X20347841Y-49664704D01*
X20345839Y-49773062D01*
X20345364Y-49886260D01*
X20346423Y-49997872D01*
X20349018Y-50101471D01*
X20353154Y-50190632D01*
X20358837Y-50258928D01*
X20366069Y-50299934D01*
X20370429Y-50308326D01*
X20394702Y-50316792D01*
X20449974Y-50330565D01*
X20530738Y-50348450D01*
X20631488Y-50369252D01*
X20746717Y-50391777D01*
X20809498Y-50403582D01*
X20928613Y-50425849D01*
X21034835Y-50446021D01*
X21122973Y-50463085D01*
X21187834Y-50476031D01*
X21224226Y-50483845D01*
X21230216Y-50485578D01*
X21240339Y-50505110D01*
X21261738Y-50552157D01*
X21291561Y-50619997D01*
X21326955Y-50701909D01*
X21365068Y-50791172D01*
X21403047Y-50881065D01*
X21438040Y-50964865D01*
X21467194Y-51035853D01*
X21487657Y-51087306D01*
X21496577Y-51112503D01*
X21496743Y-51113604D01*
X21486631Y-51133481D01*
X21458283Y-51179223D01*
X21414677Y-51246283D01*
X21358794Y-51330116D01*
X21293613Y-51426174D01*
X21255721Y-51481350D01*
X21186675Y-51582519D01*
X21125350Y-51674370D01*
X21074737Y-51752256D01*
X21037829Y-51811531D01*
X21017618Y-51847549D01*
X21014699Y-51855623D01*
X21027247Y-51874416D01*
X21061937Y-51914543D01*
X21114337Y-51971507D01*
X21180016Y-52040815D01*
X21254544Y-52117969D01*
X21333487Y-52198475D01*
X21412417Y-52277837D01*
X21486900Y-52351560D01*
X21552506Y-52415148D01*
X21604804Y-52464106D01*
X21639361Y-52493939D01*
X21650922Y-52501058D01*
X21669746Y-52491047D01*
X21714769Y-52462922D01*
X21781613Y-52419546D01*
X21865901Y-52363782D01*
X21963256Y-52298494D01*
X22036693Y-52248754D01*
X22407733Y-51996449D01*
X23026305Y-52251445D01*
X23110125Y-52696069D01*
X23193946Y-53140693D01*
X24119394Y-53140693D01*
X24203214Y-52696069D01*
G37*
X24203214Y-52696069D02*
X24287035Y-52251445D01*
X24596320Y-52123947D01*
X24905606Y-51996449D01*
X25276646Y-52248754D01*
X25380557Y-52319004D01*
X25474487Y-52381728D01*
X25554052Y-52434062D01*
X25614870Y-52473143D01*
X25652557Y-52496107D01*
X25662821Y-52501058D01*
X25681310Y-52488324D01*
X25720820Y-52453118D01*
X25776922Y-52399938D01*
X25845187Y-52333282D01*
X25921186Y-52257646D01*
X26000492Y-52177528D01*
X26078675Y-52097426D01*
X26151307Y-52021836D01*
X26213959Y-51955255D01*
X26262203Y-51902182D01*
X26291610Y-51867113D01*
X26298641Y-51855377D01*
X26288523Y-51833740D01*
X26260159Y-51786338D01*
X26216529Y-51717807D01*
X26160618Y-51632785D01*
X26095406Y-51535907D01*
X26057619Y-51480650D01*
X25988743Y-51379752D01*
X25927540Y-51288701D01*
X25876978Y-51212030D01*
X25840028Y-51154272D01*
X25819658Y-51119957D01*
X25816597Y-51112746D01*
X25823536Y-51092252D01*
X25842451Y-51044487D01*
X25870487Y-50976168D01*
X25904791Y-50894011D01*
X25942509Y-50804730D01*
X25980787Y-50715042D01*
X26016770Y-50631662D01*
X26047606Y-50561306D01*
X26070439Y-50510690D01*
X26082417Y-50486529D01*
X26083124Y-50485578D01*
X26101931Y-50480964D01*
X26152018Y-50470672D01*
X26228193Y-50455713D01*
X26325265Y-50437099D01*
X26438043Y-50415841D01*
X26503842Y-50403582D01*
X26624350Y-50380638D01*
X26733197Y-50358805D01*
X26824876Y-50339278D01*
X26893881Y-50323252D01*
X26934704Y-50311921D01*
X26942911Y-50308326D01*
X26950948Y-50283994D01*
X26957433Y-50229041D01*
X26962370Y-50149892D01*
X26965764Y-50052974D01*
X26967618Y-49944713D01*
X26967938Y-49831535D01*
X26966727Y-49719865D01*
X26963990Y-49616132D01*
X26959731Y-49526759D01*
X26953955Y-49458174D01*
X26946667Y-49416803D01*
X26942295Y-49408190D01*
X26916164Y-49397867D01*
X26860793Y-49383108D01*
X26783507Y-49365648D01*
X26691630Y-49347220D01*
X26659558Y-49341259D01*
X26504924Y-49312934D01*
X26382775Y-49290124D01*
X26289073Y-49271920D01*
X26219784Y-49257417D01*
X26170871Y-49245708D01*
X26138297Y-49235885D01*
X26118028Y-49227044D01*
X26106026Y-49218276D01*
X26104347Y-49216543D01*
X26087584Y-49188629D01*
X26062014Y-49134305D01*
X26030188Y-49060223D01*
X25994660Y-48973035D01*
X25957983Y-48879392D01*
X25922711Y-48785948D01*
X25891396Y-48699353D01*
X25866593Y-48626260D01*
X25850854Y-48573322D01*
X25846732Y-48547189D01*
X25847076Y-48546274D01*
X25861041Y-48524914D01*
X25892722Y-48477916D01*
X25938791Y-48410173D01*
X25995918Y-48326577D01*
X26060773Y-48232018D01*
X26079243Y-48205146D01*
X26145099Y-48107725D01*
X26203050Y-48018837D01*
X26249938Y-47943588D01*
X26282607Y-47887080D01*
X26297900Y-47854419D01*
X26298641Y-47850407D01*
X26285792Y-47829316D01*
X26250288Y-47787536D01*
X26196693Y-47729555D01*
X26129571Y-47659865D01*
X26053487Y-47582955D01*
X25973004Y-47503317D01*
X25892687Y-47425439D01*
X25817099Y-47353814D01*
X25750805Y-47292930D01*
X25698369Y-47247279D01*
X25664355Y-47221350D01*
X25654945Y-47217117D01*
X25633043Y-47227088D01*
X25588200Y-47253980D01*
X25527721Y-47293264D01*
X25481189Y-47324883D01*
X25396875Y-47382902D01*
X25297026Y-47451216D01*
X25196873Y-47519421D01*
X25143027Y-47555925D01*
X24960771Y-47679200D01*
X24807781Y-47596480D01*
X24738082Y-47560241D01*
X24678814Y-47532074D01*
X24638711Y-47516009D01*
X24628503Y-47513774D01*
X24616229Y-47530278D01*
X24592013Y-47576918D01*
X24557663Y-47649391D01*
X24514988Y-47743394D01*
X24465794Y-47854626D01*
X24411890Y-47978785D01*
X24355084Y-48111568D01*
X24297182Y-48248673D01*
X24239993Y-48385798D01*
X24185324Y-48518642D01*
X24134984Y-48642902D01*
X24090780Y-48754275D01*
X24054519Y-48848461D01*
X24028009Y-48921156D01*
X24013058Y-48968059D01*
X24010654Y-48984167D01*
X24029711Y-49004714D01*
X24071436Y-49038067D01*
X24127106Y-49077298D01*
X24131778Y-49080401D01*
X24275664Y-49195577D01*
X24391683Y-49329947D01*
X24478830Y-49479216D01*
X24536099Y-49639087D01*
X24562486Y-49805263D01*
X24556985Y-49973448D01*
X24518590Y-50139345D01*
X24446295Y-50298658D01*
X24425026Y-50333513D01*
X24314396Y-50474263D01*
X24183702Y-50587286D01*
X24037464Y-50671997D01*
X23880208Y-50727806D01*
X23716457Y-50754126D01*
X23550733Y-50750370D01*
X23387562Y-50715950D01*
X23231465Y-50650277D01*
X23086967Y-50552765D01*
X23042269Y-50513187D01*
X22928512Y-50389297D01*
X22845618Y-50258876D01*
X22788756Y-50112685D01*
X22757087Y-49967912D01*
X22749269Y-49805140D01*
X22775338Y-49641560D01*
X22832645Y-49482702D01*
X22918544Y-49334094D01*
X23030386Y-49201265D01*
X23165523Y-49089744D01*
X23183283Y-49077989D01*
X23239550Y-49039492D01*
X23282323Y-49006137D01*
X23302772Y-48984840D01*
X23303069Y-48984167D01*
X23298679Y-48961129D01*
X23281276Y-48908843D01*
X23252668Y-48831610D01*
X23214665Y-48733732D01*
X23169074Y-48619509D01*
X23117703Y-48493242D01*
X23062362Y-48359233D01*
X23004858Y-48221782D01*
X22947001Y-48085192D01*
X22890598Y-47953763D01*
X22837458Y-47831795D01*
X22789390Y-47723591D01*
X22748201Y-47633451D01*
X22715701Y-47565677D01*
X22693697Y-47524570D01*
X22684836Y-47513774D01*
X22657760Y-47522181D01*
X22607097Y-47544728D01*
X22541583Y-47577387D01*
X22505559Y-47596480D01*
X22352568Y-47679200D01*
X22170312Y-47555925D01*
X22077275Y-47492772D01*
X21975415Y-47423273D01*
X21879962Y-47357835D01*
X21832150Y-47324883D01*
X21764905Y-47279727D01*
X21707964Y-47243943D01*
X21668754Y-47222062D01*
X21656019Y-47217437D01*
X21637483Y-47229915D01*
X21596459Y-47264748D01*
X21536925Y-47318322D01*
X21462858Y-47387017D01*
X21378235Y-47467219D01*
X21324715Y-47518714D01*
X21231081Y-47610714D01*
X21150159Y-47693001D01*
X21085223Y-47762055D01*
X21039542Y-47814356D01*
X21016389Y-47846384D01*
X21014168Y-47852884D01*
X21024476Y-47877606D01*
X21052961Y-47927595D01*
X21096463Y-47997788D01*
X21151823Y-48083125D01*
X21215880Y-48178544D01*
X21234097Y-48205146D01*
X21300473Y-48301833D01*
X21360022Y-48388883D01*
X21409416Y-48461405D01*
X21445325Y-48514507D01*
X21464419Y-48543297D01*
X21466264Y-48546274D01*
X21463505Y-48569218D01*
X21448862Y-48619664D01*
X21424887Y-48690959D01*
X21394134Y-48776453D01*
X21359156Y-48869493D01*
X21322507Y-48963426D01*
X21286739Y-49051601D01*
X21254406Y-49127366D01*
X21228062Y-49184069D01*
X21210258Y-49215057D01*
X21208993Y-49216543D01*
X21198106Y-49225399D01*
X21179718Y-49234157D01*
X21149794Y-49243723D01*
X21104297Y-49255004D01*
X21039191Y-49268907D01*
X20950439Y-49286337D01*
X20834007Y-49308202D01*
X20685858Y-49335409D01*
X20653782Y-49341259D01*
X20558714Y-49359626D01*
X20475835Y-49377595D01*
X20412470Y-49393431D01*
X20375942Y-49405400D01*
X20371044Y-49408190D01*
X20362973Y-49432928D01*
X20356413Y-49488210D01*
X20351367Y-49567611D01*
X20347841Y-49664704D01*
X20345839Y-49773062D01*
X20345364Y-49886260D01*
X20346423Y-49997872D01*
X20349018Y-50101471D01*
X20353154Y-50190632D01*
X20358837Y-50258928D01*
X20366069Y-50299934D01*
X20370429Y-50308326D01*
X20394702Y-50316792D01*
X20449974Y-50330565D01*
X20530738Y-50348450D01*
X20631488Y-50369252D01*
X20746717Y-50391777D01*
X20809498Y-50403582D01*
X20928613Y-50425849D01*
X21034835Y-50446021D01*
X21122973Y-50463085D01*
X21187834Y-50476031D01*
X21224226Y-50483845D01*
X21230216Y-50485578D01*
X21240339Y-50505110D01*
X21261738Y-50552157D01*
X21291561Y-50619997D01*
X21326955Y-50701909D01*
X21365068Y-50791172D01*
X21403047Y-50881065D01*
X21438040Y-50964865D01*
X21467194Y-51035853D01*
X21487657Y-51087306D01*
X21496577Y-51112503D01*
X21496743Y-51113604D01*
X21486631Y-51133481D01*
X21458283Y-51179223D01*
X21414677Y-51246283D01*
X21358794Y-51330116D01*
X21293613Y-51426174D01*
X21255721Y-51481350D01*
X21186675Y-51582519D01*
X21125350Y-51674370D01*
X21074737Y-51752256D01*
X21037829Y-51811531D01*
X21017618Y-51847549D01*
X21014699Y-51855623D01*
X21027247Y-51874416D01*
X21061937Y-51914543D01*
X21114337Y-51971507D01*
X21180016Y-52040815D01*
X21254544Y-52117969D01*
X21333487Y-52198475D01*
X21412417Y-52277837D01*
X21486900Y-52351560D01*
X21552506Y-52415148D01*
X21604804Y-52464106D01*
X21639361Y-52493939D01*
X21650922Y-52501058D01*
X21669746Y-52491047D01*
X21714769Y-52462922D01*
X21781613Y-52419546D01*
X21865901Y-52363782D01*
X21963256Y-52298494D01*
X22036693Y-52248754D01*
X22407733Y-51996449D01*
X23026305Y-52251445D01*
X23110125Y-52696069D01*
X23193946Y-53140693D01*
X24119394Y-53140693D01*
X24203214Y-52696069D01*
D12*
X39166800Y-55130000D03*
X37166800Y-55130000D03*
X35166800Y-55130000D03*
X33166800Y-55130000D03*
X31166800Y-55130000D03*
X29166800Y-55130000D03*
X27166800Y-55130000D03*
X25166800Y-55130000D03*
X23166800Y-55130000D03*
D13*
X21166800Y-55130000D03*
D12*
X21166800Y-33130000D03*
X23166800Y-33130000D03*
X25166800Y-33130000D03*
X27166800Y-33130000D03*
X29166800Y-33130000D03*
X31166800Y-33130000D03*
X33166800Y-33130000D03*
X35166800Y-33130000D03*
X37166800Y-33130000D03*
D13*
X39166800Y-33130000D03*
D14*
X54305200Y-63901400D03*
X50805200Y-63901400D03*
X47305200Y-63901400D03*
X43805200Y-63901400D03*
X40305200Y-63901400D03*
X36805200Y-63901400D03*
X33305200Y-63901400D03*
X29805200Y-63901400D03*
X26305200Y-63901400D03*
X22805200Y-63901400D03*
X22805200Y-24358600D03*
X26305200Y-24358600D03*
X29805200Y-24358600D03*
X33305200Y-24358600D03*
X36805200Y-24358600D03*
X40305200Y-24358600D03*
X43805200Y-24358600D03*
X47305200Y-24358600D03*
X50805200Y-24358600D03*
X54305200Y-24358600D03*
D15*
X39050000Y-49210000D03*
X39050000Y-39050000D03*
X28890000Y-49210000D03*
X28890000Y-39050000D03*
D16*
X21166800Y-25997000D02*
X22805200Y-24358600D01*
X21166800Y-33130000D02*
X21166800Y-25997000D01*
X23166800Y-32175406D02*
X23215600Y-32126606D01*
X23166800Y-33130000D02*
X23166800Y-32175406D01*
X25105201Y-25558599D02*
X25063601Y-25558599D01*
X26305200Y-24358600D02*
X25105201Y-25558599D01*
X23166800Y-27455400D02*
X23166800Y-33130000D01*
X25063601Y-25558599D02*
X23166800Y-27455400D01*
X29805200Y-24358600D02*
X27101800Y-27062000D01*
X27101800Y-27062000D02*
X26328800Y-27062000D01*
X25166800Y-28224000D02*
X25166800Y-33130000D01*
X26328800Y-27062000D02*
X25166800Y-28224000D01*
X32105201Y-25558599D02*
X32048601Y-25558599D01*
X33305200Y-24358600D02*
X32105201Y-25558599D01*
X32048601Y-25558599D02*
X30403800Y-27203400D01*
X30403800Y-27203400D02*
X28879800Y-27203400D01*
X27166800Y-28916400D02*
X27166800Y-33130000D01*
X28879800Y-27203400D02*
X27166800Y-28916400D01*
X36805200Y-24358600D02*
X34010600Y-27153200D01*
X34010600Y-27153200D02*
X32638400Y-27153200D01*
X32638400Y-27153200D02*
X31419800Y-28371800D01*
X31419800Y-28371800D02*
X30149800Y-28371800D01*
X29166800Y-29354800D02*
X29166800Y-33130000D01*
X30149800Y-28371800D02*
X29166800Y-29354800D01*
X39105201Y-25558599D02*
X39105201Y-25563199D01*
X40305200Y-24358600D02*
X39105201Y-25558599D01*
X39105201Y-25563199D02*
X37414200Y-27254200D01*
X37414200Y-27254200D02*
X36042600Y-27254200D01*
X36042600Y-27254200D02*
X34671000Y-28625800D01*
X34671000Y-28625800D02*
X33045400Y-28625800D01*
X31166800Y-30504400D02*
X31166800Y-33130000D01*
X33045400Y-28625800D02*
X31166800Y-30504400D01*
X43805200Y-24358600D02*
X41011200Y-27152600D01*
X41011200Y-27152600D02*
X39852600Y-27152600D01*
X39852600Y-27152600D02*
X38125400Y-28879800D01*
X38125400Y-28879800D02*
X35991800Y-28879800D01*
X35991800Y-28879800D02*
X34925000Y-29946600D01*
X34925000Y-29946600D02*
X34010600Y-29946600D01*
X33166800Y-30790400D02*
X33166800Y-33130000D01*
X34010600Y-29946600D02*
X33166800Y-30790400D01*
X47305200Y-24358600D02*
X44577000Y-27086800D01*
X44577000Y-27086800D02*
X43118800Y-27086800D01*
X43118800Y-27086800D02*
X41630600Y-28575000D01*
X41630600Y-28575000D02*
X39852600Y-28575000D01*
X39852600Y-28575000D02*
X38277800Y-30149800D01*
X38277800Y-30149800D02*
X36601400Y-30149800D01*
X35166800Y-31584400D02*
X35166800Y-33130000D01*
X36601400Y-30149800D02*
X35166800Y-31584400D01*
X50805200Y-24358600D02*
X46538000Y-28625800D01*
X46538000Y-28625800D02*
X43408600Y-28625800D01*
X43408600Y-28625800D02*
X41732200Y-30302200D01*
X41732200Y-30302200D02*
X40005000Y-30302200D01*
X40005000Y-30302200D02*
X38887400Y-31419800D01*
X38887400Y-31419800D02*
X37617400Y-31419800D01*
X37166800Y-31870400D02*
X37166800Y-33130000D01*
X37617400Y-31419800D02*
X37166800Y-31870400D01*
X54305200Y-26055656D02*
X49199800Y-31161056D01*
X54305200Y-24358600D02*
X54305200Y-26055656D01*
X49199800Y-31161056D02*
X49199800Y-35763200D01*
X49199800Y-35763200D02*
X46558200Y-38404800D01*
X46558200Y-38404800D02*
X41833800Y-38404800D01*
X39166800Y-35737800D02*
X39166800Y-33130000D01*
X41833800Y-38404800D02*
X39166800Y-35737800D01*
X39166800Y-54175406D02*
X39090600Y-54099206D01*
X39166800Y-55130000D02*
X39166800Y-54175406D01*
X39090600Y-54099206D02*
X39090600Y-53619400D01*
X39090600Y-53619400D02*
X42545000Y-50165000D01*
X42545000Y-50165000D02*
X46253400Y-50165000D01*
X46253400Y-50165000D02*
X49453800Y-53365400D01*
X49453800Y-53365400D02*
X49453800Y-57226200D01*
X54305200Y-62077600D02*
X54305200Y-63901400D01*
X49453800Y-57226200D02*
X54305200Y-62077600D01*
X37166800Y-56084594D02*
X38232206Y-57150000D01*
X37166800Y-55130000D02*
X37166800Y-56084594D01*
X38232206Y-57150000D02*
X41021000Y-57150000D01*
X41021000Y-57150000D02*
X42443400Y-58572400D01*
X42443400Y-58572400D02*
X44729400Y-58572400D01*
X44729400Y-58572400D02*
X47066200Y-60909200D01*
X47813000Y-60909200D02*
X50805200Y-63901400D01*
X47066200Y-60909200D02*
X47813000Y-60909200D01*
X35166800Y-55130000D02*
X35166800Y-56985400D01*
X35166800Y-56985400D02*
X35788600Y-57607200D01*
X35788600Y-57607200D02*
X36855400Y-57607200D01*
X36855400Y-57607200D02*
X37871400Y-58623200D01*
X37871400Y-58623200D02*
X40462200Y-58623200D01*
X40462200Y-58623200D02*
X41630600Y-59791600D01*
X43195400Y-59791600D02*
X47305200Y-63901400D01*
X41630600Y-59791600D02*
X43195400Y-59791600D01*
X33166800Y-55130000D02*
X33166800Y-57423800D01*
X33166800Y-57423800D02*
X34010600Y-58267600D01*
X34010600Y-58267600D02*
X35026600Y-58267600D01*
X35026600Y-58267600D02*
X36703000Y-59944000D01*
X39847800Y-59944000D02*
X43805200Y-63901400D01*
X36703000Y-59944000D02*
X39847800Y-59944000D01*
X31166800Y-55130000D02*
X31166800Y-57913000D01*
X31166800Y-57913000D02*
X32588200Y-59334400D01*
X32588200Y-59334400D02*
X34315400Y-59334400D01*
X34315400Y-59334400D02*
X36195000Y-61214000D01*
X37617800Y-61214000D02*
X40305200Y-63901400D01*
X36195000Y-61214000D02*
X37617800Y-61214000D01*
X29166800Y-55130000D02*
X29166800Y-59011800D01*
X29166800Y-59011800D02*
X29946600Y-59791600D01*
X29946600Y-59791600D02*
X31115000Y-59791600D01*
X31115000Y-59791600D02*
X32588200Y-61264800D01*
X34168600Y-61264800D02*
X36805200Y-63901400D01*
X32588200Y-61264800D02*
X34168600Y-61264800D01*
X27166800Y-55130000D02*
X27166800Y-59145400D01*
X27166800Y-59145400D02*
X29083000Y-61061600D01*
X30465400Y-61061600D02*
X33305200Y-63901400D01*
X29083000Y-61061600D02*
X30465400Y-61061600D01*
X25166800Y-55130000D02*
X25166800Y-60777600D01*
X25166800Y-60777600D02*
X25704800Y-61315600D01*
X27219400Y-61315600D02*
X29805200Y-63901400D01*
X25704800Y-61315600D02*
X27219400Y-61315600D01*
X23166800Y-60763000D02*
X26305200Y-63901400D01*
X23166800Y-55130000D02*
X23166800Y-60763000D01*
X21166800Y-56084594D02*
X21082000Y-56169394D01*
X21166800Y-55130000D02*
X21166800Y-56084594D01*
X21082000Y-62178200D02*
X22805200Y-63901400D01*
X21082000Y-56169394D02*
X21082000Y-62178200D01*
D17*
G36*
X57429400Y-67600000D02*
G01*
X20660000Y-67600000D01*
X20660000Y-63184555D01*
X21007681Y-63532237D01*
X20970200Y-63720668D01*
X20970200Y-64082132D01*
X21040718Y-64436650D01*
X21179044Y-64770599D01*
X21379862Y-65071144D01*
X21635456Y-65326738D01*
X21936001Y-65527556D01*
X22269950Y-65665882D01*
X22624468Y-65736400D01*
X22985932Y-65736400D01*
X23340450Y-65665882D01*
X23674399Y-65527556D01*
X23974944Y-65326738D01*
X24230538Y-65071144D01*
X24431356Y-64770599D01*
X24555200Y-64471613D01*
X24679044Y-64770599D01*
X24879862Y-65071144D01*
X25135456Y-65326738D01*
X25436001Y-65527556D01*
X25769950Y-65665882D01*
X26124468Y-65736400D01*
X26485932Y-65736400D01*
X26840450Y-65665882D01*
X27174399Y-65527556D01*
X27474944Y-65326738D01*
X27730538Y-65071144D01*
X27931356Y-64770599D01*
X28055200Y-64471613D01*
X28179044Y-64770599D01*
X28379862Y-65071144D01*
X28635456Y-65326738D01*
X28936001Y-65527556D01*
X29269950Y-65665882D01*
X29624468Y-65736400D01*
X29985932Y-65736400D01*
X30340450Y-65665882D01*
X30674399Y-65527556D01*
X30974944Y-65326738D01*
X31230538Y-65071144D01*
X31431356Y-64770599D01*
X31555200Y-64471613D01*
X31679044Y-64770599D01*
X31879862Y-65071144D01*
X32135456Y-65326738D01*
X32436001Y-65527556D01*
X32769950Y-65665882D01*
X33124468Y-65736400D01*
X33485932Y-65736400D01*
X33840450Y-65665882D01*
X34174399Y-65527556D01*
X34474944Y-65326738D01*
X34730538Y-65071144D01*
X34931356Y-64770599D01*
X35055200Y-64471613D01*
X35179044Y-64770599D01*
X35379862Y-65071144D01*
X35635456Y-65326738D01*
X35936001Y-65527556D01*
X36269950Y-65665882D01*
X36624468Y-65736400D01*
X36985932Y-65736400D01*
X37340450Y-65665882D01*
X37674399Y-65527556D01*
X37974944Y-65326738D01*
X38230538Y-65071144D01*
X38431356Y-64770599D01*
X38555200Y-64471613D01*
X38679044Y-64770599D01*
X38879862Y-65071144D01*
X39135456Y-65326738D01*
X39436001Y-65527556D01*
X39769950Y-65665882D01*
X40124468Y-65736400D01*
X40485932Y-65736400D01*
X40840450Y-65665882D01*
X41174399Y-65527556D01*
X41474944Y-65326738D01*
X41730538Y-65071144D01*
X41931356Y-64770599D01*
X42055200Y-64471613D01*
X42179044Y-64770599D01*
X42379862Y-65071144D01*
X42635456Y-65326738D01*
X42936001Y-65527556D01*
X43269950Y-65665882D01*
X43624468Y-65736400D01*
X43985932Y-65736400D01*
X44340450Y-65665882D01*
X44674399Y-65527556D01*
X44974944Y-65326738D01*
X45230538Y-65071144D01*
X45431356Y-64770599D01*
X45555200Y-64471613D01*
X45679044Y-64770599D01*
X45879862Y-65071144D01*
X46135456Y-65326738D01*
X46436001Y-65527556D01*
X46769950Y-65665882D01*
X47124468Y-65736400D01*
X47485932Y-65736400D01*
X47840450Y-65665882D01*
X48174399Y-65527556D01*
X48474944Y-65326738D01*
X48730538Y-65071144D01*
X48931356Y-64770599D01*
X49055200Y-64471613D01*
X49179044Y-64770599D01*
X49379862Y-65071144D01*
X49635456Y-65326738D01*
X49936001Y-65527556D01*
X50269950Y-65665882D01*
X50624468Y-65736400D01*
X50985932Y-65736400D01*
X51340450Y-65665882D01*
X51674399Y-65527556D01*
X51974944Y-65326738D01*
X52230538Y-65071144D01*
X52431356Y-64770599D01*
X52555200Y-64471613D01*
X52679044Y-64770599D01*
X52879862Y-65071144D01*
X53135456Y-65326738D01*
X53436001Y-65527556D01*
X53769950Y-65665882D01*
X54124468Y-65736400D01*
X54485932Y-65736400D01*
X54840450Y-65665882D01*
X55174399Y-65527556D01*
X55474944Y-65326738D01*
X55730538Y-65071144D01*
X55931356Y-64770599D01*
X56069682Y-64436650D01*
X56140200Y-64082132D01*
X56140200Y-63720668D01*
X56069682Y-63366150D01*
X55931356Y-63032201D01*
X55730538Y-62731656D01*
X55474944Y-62476062D01*
X55315200Y-62369324D01*
X55315200Y-62127208D01*
X55320086Y-62077600D01*
X55300585Y-61879605D01*
X55242832Y-61689220D01*
X55223568Y-61653179D01*
X55149047Y-61513760D01*
X55022833Y-61359967D01*
X54984300Y-61328344D01*
X50463800Y-56807845D01*
X50463800Y-54079721D01*
X52155000Y-54079721D01*
X52155000Y-54500279D01*
X52237047Y-54912756D01*
X52397988Y-55301302D01*
X52631637Y-55650983D01*
X52929017Y-55948363D01*
X53278698Y-56182012D01*
X53667244Y-56342953D01*
X54079721Y-56425000D01*
X54500279Y-56425000D01*
X54912756Y-56342953D01*
X55301302Y-56182012D01*
X55650983Y-55948363D01*
X55948363Y-55650983D01*
X56182012Y-55301302D01*
X56342953Y-54912756D01*
X56425000Y-54500279D01*
X56425000Y-54079721D01*
X56342953Y-53667244D01*
X56182012Y-53278698D01*
X55948363Y-52929017D01*
X55650983Y-52631637D01*
X55301302Y-52397988D01*
X54912756Y-52237047D01*
X54500279Y-52155000D01*
X54079721Y-52155000D01*
X53667244Y-52237047D01*
X53278698Y-52397988D01*
X52929017Y-52631637D01*
X52631637Y-52929017D01*
X52397988Y-53278698D01*
X52237047Y-53667244D01*
X52155000Y-54079721D01*
X50463800Y-54079721D01*
X50463800Y-53415004D01*
X50468686Y-53365399D01*
X50463800Y-53315792D01*
X50449185Y-53167406D01*
X50391432Y-52977020D01*
X50297647Y-52801560D01*
X50171433Y-52647767D01*
X50132894Y-52616139D01*
X47002661Y-49485906D01*
X46971033Y-49447367D01*
X46817240Y-49321153D01*
X46641780Y-49227368D01*
X46451394Y-49169615D01*
X46303008Y-49155000D01*
X46253400Y-49150114D01*
X46203792Y-49155000D01*
X42594604Y-49155000D01*
X42544999Y-49150114D01*
X42495394Y-49155000D01*
X42495392Y-49155000D01*
X42347006Y-49169615D01*
X42156620Y-49227368D01*
X41981160Y-49321153D01*
X41827367Y-49447367D01*
X41795739Y-49485906D01*
X38411501Y-52870144D01*
X38372968Y-52901767D01*
X38341345Y-52940300D01*
X38341344Y-52940301D01*
X38279990Y-53015061D01*
X38246754Y-53055560D01*
X38152968Y-53231020D01*
X38125432Y-53321794D01*
X38095215Y-53421406D01*
X38075714Y-53619400D01*
X38080600Y-53669008D01*
X38080600Y-54049598D01*
X38075714Y-54099206D01*
X38080600Y-54148813D01*
X38085229Y-54195808D01*
X38001877Y-54112456D01*
X37787318Y-53969093D01*
X37548913Y-53870342D01*
X37295824Y-53820000D01*
X37037776Y-53820000D01*
X36784687Y-53870342D01*
X36546282Y-53969093D01*
X36331723Y-54112456D01*
X36166800Y-54277379D01*
X36001877Y-54112456D01*
X35787318Y-53969093D01*
X35548913Y-53870342D01*
X35295824Y-53820000D01*
X35037776Y-53820000D01*
X34784687Y-53870342D01*
X34546282Y-53969093D01*
X34331723Y-54112456D01*
X34166800Y-54277379D01*
X34001877Y-54112456D01*
X33787318Y-53969093D01*
X33548913Y-53870342D01*
X33295824Y-53820000D01*
X33037776Y-53820000D01*
X32784687Y-53870342D01*
X32546282Y-53969093D01*
X32331723Y-54112456D01*
X32166800Y-54277379D01*
X32001877Y-54112456D01*
X31787318Y-53969093D01*
X31548913Y-53870342D01*
X31295824Y-53820000D01*
X31037776Y-53820000D01*
X30784687Y-53870342D01*
X30546282Y-53969093D01*
X30331723Y-54112456D01*
X30166800Y-54277379D01*
X30001877Y-54112456D01*
X29787318Y-53969093D01*
X29548913Y-53870342D01*
X29295824Y-53820000D01*
X29037776Y-53820000D01*
X28784687Y-53870342D01*
X28546282Y-53969093D01*
X28331723Y-54112456D01*
X28166800Y-54277379D01*
X28001877Y-54112456D01*
X27787318Y-53969093D01*
X27548913Y-53870342D01*
X27295824Y-53820000D01*
X27037776Y-53820000D01*
X26784687Y-53870342D01*
X26546282Y-53969093D01*
X26331723Y-54112456D01*
X26166800Y-54277379D01*
X26001877Y-54112456D01*
X25787318Y-53969093D01*
X25548913Y-53870342D01*
X25295824Y-53820000D01*
X25037776Y-53820000D01*
X24784687Y-53870342D01*
X24546282Y-53969093D01*
X24331723Y-54112456D01*
X24166800Y-54277379D01*
X24001877Y-54112456D01*
X23787318Y-53969093D01*
X23548913Y-53870342D01*
X23295824Y-53820000D01*
X23037776Y-53820000D01*
X22784687Y-53870342D01*
X22546282Y-53969093D01*
X22331723Y-54112456D01*
X22166800Y-54277379D01*
X22001877Y-54112456D01*
X21787318Y-53969093D01*
X21548913Y-53870342D01*
X21295824Y-53820000D01*
X21037776Y-53820000D01*
X20784687Y-53870342D01*
X20660000Y-53921989D01*
X20660000Y-52422504D01*
X20715469Y-52481038D01*
X20715574Y-52481129D01*
X20719702Y-52485462D01*
X20794230Y-52562616D01*
X20794349Y-52562717D01*
X20797582Y-52566060D01*
X20876525Y-52646566D01*
X20876643Y-52646665D01*
X20879705Y-52649787D01*
X20958635Y-52729149D01*
X20958759Y-52729251D01*
X20962195Y-52732700D01*
X21036678Y-52806423D01*
X21036773Y-52806501D01*
X21041475Y-52811121D01*
X21107081Y-52874709D01*
X21107931Y-52875385D01*
X21108642Y-52876218D01*
X21115123Y-52882370D01*
X21167421Y-52931328D01*
X21174122Y-52936472D01*
X21179858Y-52942667D01*
X21186581Y-52948554D01*
X21221138Y-52978387D01*
X21259360Y-53005354D01*
X21296207Y-53034167D01*
X21303783Y-53038905D01*
X21315344Y-53046024D01*
X21320740Y-53048659D01*
X21323200Y-53050394D01*
X21330668Y-53053719D01*
X21342648Y-53061921D01*
X21385614Y-53080332D01*
X21427587Y-53100825D01*
X21442887Y-53104874D01*
X21457458Y-53111118D01*
X21503197Y-53120836D01*
X21548336Y-53132782D01*
X21564137Y-53133783D01*
X21579637Y-53137076D01*
X21626362Y-53137724D01*
X21672992Y-53140678D01*
X21688695Y-53138589D01*
X21704531Y-53138809D01*
X21750480Y-53130371D01*
X21796808Y-53124209D01*
X21811809Y-53119109D01*
X21827384Y-53116249D01*
X21870819Y-53099048D01*
X21915067Y-53084005D01*
X21928788Y-53076091D01*
X21943514Y-53070259D01*
X21951433Y-53066118D01*
X21970257Y-53056108D01*
X21985117Y-53046233D01*
X22001209Y-53038526D01*
X22008821Y-53033844D01*
X22053844Y-53005719D01*
X22054680Y-53005075D01*
X22055622Y-53004604D01*
X22063152Y-52999792D01*
X22129995Y-52956416D01*
X22130104Y-52956329D01*
X22134743Y-52953306D01*
X22219031Y-52897542D01*
X22219154Y-52897442D01*
X22222362Y-52895323D01*
X22319717Y-52830035D01*
X22319823Y-52829948D01*
X22322161Y-52828388D01*
X22395598Y-52778648D01*
X22395657Y-52778599D01*
X22396569Y-52777988D01*
X22465463Y-52731141D01*
X22481198Y-52814608D01*
X22481203Y-52814634D01*
X22565024Y-53259258D01*
X22565219Y-53259926D01*
X22565282Y-53260617D01*
X22582752Y-53319974D01*
X22600032Y-53379158D01*
X22600351Y-53379771D01*
X22600548Y-53380441D01*
X22629237Y-53435317D01*
X22657661Y-53489975D01*
X22658095Y-53490517D01*
X22658417Y-53491133D01*
X22697049Y-53539182D01*
X22735716Y-53587489D01*
X22736249Y-53587938D01*
X22736683Y-53588478D01*
X22784019Y-53628197D01*
X22831227Y-53667983D01*
X22831833Y-53668318D01*
X22832367Y-53668766D01*
X22886795Y-53698688D01*
X22940553Y-53728393D01*
X22941210Y-53728603D01*
X22941823Y-53728940D01*
X23000870Y-53747670D01*
X23059530Y-53766418D01*
X23060221Y-53766497D01*
X23060883Y-53766707D01*
X23122285Y-53773595D01*
X23183627Y-53780610D01*
X23184319Y-53780553D01*
X23185010Y-53780631D01*
X23193946Y-53780693D01*
X24119394Y-53780693D01*
X24120084Y-53780625D01*
X24120779Y-53780692D01*
X24182454Y-53774510D01*
X24243704Y-53768504D01*
X24244368Y-53768304D01*
X24245062Y-53768234D01*
X24304210Y-53750236D01*
X24363279Y-53732402D01*
X24363894Y-53732075D01*
X24364558Y-53731873D01*
X24419018Y-53702766D01*
X24473565Y-53673763D01*
X24474103Y-53673324D01*
X24474717Y-53672996D01*
X24522678Y-53633707D01*
X24570360Y-53594818D01*
X24570800Y-53594286D01*
X24571342Y-53593842D01*
X24610807Y-53545926D01*
X24649978Y-53498576D01*
X24650308Y-53497966D01*
X24650751Y-53497428D01*
X24679978Y-53443092D01*
X24709386Y-53388703D01*
X24709593Y-53388035D01*
X24709921Y-53387425D01*
X24728021Y-53328502D01*
X24746322Y-53269383D01*
X24746395Y-53268691D01*
X24746599Y-53268026D01*
X24748316Y-53259257D01*
X24832136Y-52814632D01*
X24847876Y-52731141D01*
X24916769Y-52777988D01*
X24916852Y-52778033D01*
X24918198Y-52778957D01*
X25022108Y-52849206D01*
X25022240Y-52849277D01*
X25025141Y-52851244D01*
X25119071Y-52913968D01*
X25119209Y-52914042D01*
X25122786Y-52916430D01*
X25202351Y-52968764D01*
X25202452Y-52968817D01*
X25208069Y-52972482D01*
X25268887Y-53011563D01*
X25271726Y-53013017D01*
X25274250Y-53014972D01*
X25281849Y-53019675D01*
X25319536Y-53042639D01*
X25343730Y-53054312D01*
X25366480Y-53068611D01*
X25374501Y-53072549D01*
X25384766Y-53077500D01*
X25403196Y-53084263D01*
X25420553Y-53093431D01*
X25431757Y-53096780D01*
X25432034Y-53096914D01*
X25433326Y-53097250D01*
X25461709Y-53105734D01*
X25502026Y-53120529D01*
X25521411Y-53123582D01*
X25540226Y-53129207D01*
X25583001Y-53133283D01*
X25625411Y-53139963D01*
X25645020Y-53139193D01*
X25664569Y-53141056D01*
X25707305Y-53136748D01*
X25750221Y-53135063D01*
X25769316Y-53130497D01*
X25788845Y-53128528D01*
X25829918Y-53116004D01*
X25871702Y-53106012D01*
X25889553Y-53097821D01*
X25908321Y-53092098D01*
X25946181Y-53071835D01*
X25985227Y-53053918D01*
X26001136Y-53042423D01*
X26018446Y-53033159D01*
X26025841Y-53028141D01*
X26044330Y-53015407D01*
X26071428Y-52992542D01*
X26100371Y-52972048D01*
X26107084Y-52966149D01*
X26146594Y-52930943D01*
X26150263Y-52926966D01*
X26154583Y-52923703D01*
X26161111Y-52917601D01*
X26217213Y-52864420D01*
X26217388Y-52864218D01*
X26217605Y-52864049D01*
X26224042Y-52857851D01*
X26292306Y-52791195D01*
X26292395Y-52791089D01*
X26296651Y-52786912D01*
X26372649Y-52711277D01*
X26372748Y-52711157D01*
X26376033Y-52707884D01*
X26455339Y-52627766D01*
X26455441Y-52627641D01*
X26458493Y-52624557D01*
X26536677Y-52544455D01*
X26536778Y-52544329D01*
X26540163Y-52540855D01*
X26612795Y-52465264D01*
X26612868Y-52465171D01*
X26617399Y-52460423D01*
X26680051Y-52393842D01*
X26680692Y-52393012D01*
X26681483Y-52392316D01*
X26687539Y-52385745D01*
X26735783Y-52332672D01*
X26740768Y-52325977D01*
X26746816Y-52320214D01*
X26752605Y-52313407D01*
X26782012Y-52278338D01*
X26808037Y-52240302D01*
X26835978Y-52203659D01*
X26840624Y-52196026D01*
X26847655Y-52184290D01*
X26850554Y-52178165D01*
X26852546Y-52175253D01*
X26858388Y-52161611D01*
X26872432Y-52131934D01*
X26897963Y-52079908D01*
X26899139Y-52075500D01*
X26901085Y-52071388D01*
X26915208Y-52015268D01*
X26930160Y-51959223D01*
X26930457Y-51954672D01*
X26931568Y-51950259D01*
X26934525Y-51892415D01*
X26938304Y-51834582D01*
X26937712Y-51830065D01*
X26937945Y-51825515D01*
X26929602Y-51768153D01*
X26922081Y-51710734D01*
X26920624Y-51706420D01*
X26919968Y-51701909D01*
X26900656Y-51647296D01*
X26894986Y-51630507D01*
X26894035Y-51626484D01*
X26892458Y-51623023D01*
X26882114Y-51592395D01*
X26878385Y-51584274D01*
X26868267Y-51562637D01*
X26853919Y-51538435D01*
X26842248Y-51512820D01*
X26837713Y-51505121D01*
X26809349Y-51457719D01*
X26806722Y-51454168D01*
X26804780Y-51450201D01*
X26800033Y-51442629D01*
X26756403Y-51374098D01*
X26756245Y-51373897D01*
X26756125Y-51373660D01*
X26751267Y-51366160D01*
X26695356Y-51281138D01*
X26695284Y-51281048D01*
X26691540Y-51275403D01*
X26626328Y-51178525D01*
X26626227Y-51178403D01*
X26623694Y-51174643D01*
X26585907Y-51119385D01*
X26537435Y-51048377D01*
X26556326Y-51044816D01*
X26621063Y-51032755D01*
X26621179Y-51032722D01*
X26623544Y-51032288D01*
X26744052Y-51009344D01*
X26744177Y-51009307D01*
X26750217Y-51008139D01*
X26859064Y-50986306D01*
X26859139Y-50986283D01*
X26866522Y-50984764D01*
X26958200Y-50965237D01*
X26959542Y-50964811D01*
X26960941Y-50964647D01*
X26969659Y-50962686D01*
X27038664Y-50946660D01*
X27047354Y-50943723D01*
X27056424Y-50942268D01*
X27065051Y-50939937D01*
X27105873Y-50928607D01*
X27144126Y-50913837D01*
X27183284Y-50901674D01*
X27191494Y-50898145D01*
X27199701Y-50894550D01*
X27211749Y-50887802D01*
X27224686Y-50882959D01*
X27266160Y-50857323D01*
X27308675Y-50833508D01*
X27319181Y-50824549D01*
X27330933Y-50817285D01*
X27366640Y-50784079D01*
X27403718Y-50752462D01*
X27412283Y-50741634D01*
X27422401Y-50732225D01*
X27450971Y-50692725D01*
X27481209Y-50654499D01*
X27487512Y-50642206D01*
X27495604Y-50631018D01*
X27515952Y-50586736D01*
X27538196Y-50543350D01*
X27541990Y-50530068D01*
X27545064Y-50523377D01*
X27756229Y-50523377D01*
X27882104Y-50813315D01*
X28214262Y-50979139D01*
X28572387Y-51076975D01*
X28942719Y-51103065D01*
X29311025Y-51056405D01*
X29663151Y-50938789D01*
X29897896Y-50813315D01*
X30023771Y-50523377D01*
X37916229Y-50523377D01*
X38042104Y-50813315D01*
X38374262Y-50979139D01*
X38732387Y-51076975D01*
X39102719Y-51103065D01*
X39471025Y-51056405D01*
X39823151Y-50938789D01*
X40057896Y-50813315D01*
X40183771Y-50523377D01*
X39050000Y-49389605D01*
X37916229Y-50523377D01*
X30023771Y-50523377D01*
X28890000Y-49389605D01*
X27756229Y-50523377D01*
X27545064Y-50523377D01*
X27547756Y-50517521D01*
X27550618Y-50509055D01*
X27558655Y-50484723D01*
X27571816Y-50426220D01*
X27585429Y-50367867D01*
X27586036Y-50363015D01*
X27586070Y-50362863D01*
X27586074Y-50362710D01*
X27586538Y-50359000D01*
X27589902Y-50330492D01*
X28710395Y-49210000D01*
X29069605Y-49210000D01*
X30203377Y-50343771D01*
X30493315Y-50217896D01*
X30659139Y-49885738D01*
X30756975Y-49527613D01*
X30775636Y-49262719D01*
X37156935Y-49262719D01*
X37203595Y-49631025D01*
X37321211Y-49983151D01*
X37446685Y-50217896D01*
X37736623Y-50343771D01*
X38870395Y-49210000D01*
X39229605Y-49210000D01*
X40363377Y-50343771D01*
X40653315Y-50217896D01*
X40819139Y-49885738D01*
X40916975Y-49527613D01*
X40943065Y-49157281D01*
X40896405Y-48788975D01*
X40778789Y-48436849D01*
X40653315Y-48202104D01*
X40363377Y-48076229D01*
X39229605Y-49210000D01*
X38870395Y-49210000D01*
X37736623Y-48076229D01*
X37446685Y-48202104D01*
X37280861Y-48534262D01*
X37183025Y-48892387D01*
X37156935Y-49262719D01*
X30775636Y-49262719D01*
X30783065Y-49157281D01*
X30736405Y-48788975D01*
X30618789Y-48436849D01*
X30493315Y-48202104D01*
X30203377Y-48076229D01*
X29069605Y-49210000D01*
X28710395Y-49210000D01*
X27576623Y-48076229D01*
X27286685Y-48202104D01*
X27120861Y-48534262D01*
X27055717Y-48772719D01*
X27025628Y-48764699D01*
X27017914Y-48763432D01*
X27010527Y-48760870D01*
X27001824Y-48758840D01*
X26924538Y-48741380D01*
X26921260Y-48740970D01*
X26918116Y-48739964D01*
X26909367Y-48738146D01*
X26817490Y-48719718D01*
X26817423Y-48719711D01*
X26817353Y-48719690D01*
X26808579Y-48717996D01*
X26776507Y-48712035D01*
X26776417Y-48712027D01*
X26774871Y-48711733D01*
X26621422Y-48683625D01*
X26564482Y-48672992D01*
X26555353Y-48649685D01*
X26553587Y-48645005D01*
X26588562Y-48594011D01*
X26588563Y-48594010D01*
X26606671Y-48567665D01*
X26606747Y-48567528D01*
X26609462Y-48563571D01*
X26675318Y-48466150D01*
X26675735Y-48465380D01*
X26676291Y-48464706D01*
X26681223Y-48457254D01*
X26739174Y-48368366D01*
X26740144Y-48366503D01*
X26741453Y-48364847D01*
X26746231Y-48357296D01*
X26793119Y-48282046D01*
X26795837Y-48276554D01*
X26799481Y-48271617D01*
X26804007Y-48263912D01*
X26836676Y-48207404D01*
X26846262Y-48186304D01*
X26858370Y-48166539D01*
X26862216Y-48158473D01*
X26877509Y-48125812D01*
X26882418Y-48111943D01*
X26889335Y-48098968D01*
X26903220Y-48053165D01*
X26919183Y-48008063D01*
X26921302Y-47993519D01*
X26925572Y-47979435D01*
X26927256Y-47970658D01*
X26927997Y-47966646D01*
X26931508Y-47925393D01*
X26935884Y-47896623D01*
X27756229Y-47896623D01*
X28890000Y-49030395D01*
X30023771Y-47896623D01*
X37916229Y-47896623D01*
X39050000Y-49030395D01*
X40183771Y-47896623D01*
X40057896Y-47606685D01*
X39725738Y-47440861D01*
X39367613Y-47343025D01*
X38997281Y-47316935D01*
X38628975Y-47363595D01*
X38276849Y-47481211D01*
X38042104Y-47606685D01*
X37916229Y-47896623D01*
X30023771Y-47896623D01*
X29897896Y-47606685D01*
X29565738Y-47440861D01*
X29207613Y-47343025D01*
X28837281Y-47316935D01*
X28468975Y-47363595D01*
X28116849Y-47481211D01*
X27882104Y-47606685D01*
X27756229Y-47896623D01*
X26935884Y-47896623D01*
X26937735Y-47884454D01*
X26936792Y-47863291D01*
X26938588Y-47842190D01*
X26934020Y-47801049D01*
X26932177Y-47759672D01*
X26927141Y-47739092D01*
X26924804Y-47718047D01*
X26912327Y-47678560D01*
X26902486Y-47638346D01*
X26893555Y-47619150D01*
X26887171Y-47598945D01*
X26867262Y-47562635D01*
X26849798Y-47525097D01*
X26845202Y-47517433D01*
X26832352Y-47496342D01*
X26804817Y-47459736D01*
X26779224Y-47421732D01*
X26773485Y-47414882D01*
X26737981Y-47373102D01*
X26731570Y-47366902D01*
X26726283Y-47359717D01*
X26720263Y-47353113D01*
X26666668Y-47295132D01*
X26665094Y-47293732D01*
X26663809Y-47292059D01*
X26657655Y-47285580D01*
X26590533Y-47215889D01*
X26590513Y-47215872D01*
X26584556Y-47209767D01*
X26508472Y-47132856D01*
X26508379Y-47132779D01*
X26503641Y-47128025D01*
X26423158Y-47048387D01*
X26423057Y-47048305D01*
X26418522Y-47043846D01*
X26338205Y-46965968D01*
X26338131Y-46965909D01*
X26332893Y-46960876D01*
X26257305Y-46889251D01*
X26256893Y-46888931D01*
X26256545Y-46888531D01*
X26250005Y-46882441D01*
X26183711Y-46821557D01*
X26180482Y-46819127D01*
X26177744Y-46816145D01*
X26171045Y-46810231D01*
X26118609Y-46764580D01*
X26105271Y-46755086D01*
X26093434Y-46743767D01*
X26086365Y-46738301D01*
X26052351Y-46712372D01*
X26047112Y-46709134D01*
X26042523Y-46705028D01*
X26007210Y-46684127D01*
X25997142Y-46676283D01*
X25979986Y-46667646D01*
X25946101Y-46646703D01*
X25940336Y-46644545D01*
X25935035Y-46641408D01*
X25926911Y-46637685D01*
X25917501Y-46633452D01*
X25901068Y-46627915D01*
X25885576Y-46620116D01*
X25844790Y-46608788D01*
X25829118Y-46602923D01*
X25824775Y-46602210D01*
X25799133Y-46593571D01*
X25781938Y-46591332D01*
X25765226Y-46586690D01*
X25720121Y-46583281D01*
X25675273Y-46577440D01*
X25657969Y-46578583D01*
X25640675Y-46577276D01*
X25595773Y-46582692D01*
X25550638Y-46585674D01*
X25533882Y-46590158D01*
X25516667Y-46592234D01*
X25473668Y-46606269D01*
X25429977Y-46617960D01*
X25414418Y-46625609D01*
X25397927Y-46630992D01*
X25389769Y-46634638D01*
X25367867Y-46644609D01*
X25340427Y-46660501D01*
X25311585Y-46673676D01*
X25303890Y-46678218D01*
X25259047Y-46705110D01*
X25253399Y-46709297D01*
X25247106Y-46712449D01*
X25239578Y-46717265D01*
X25179099Y-46756549D01*
X25177386Y-46757917D01*
X25175445Y-46758940D01*
X25168019Y-46763911D01*
X25121488Y-46795530D01*
X25121374Y-46795625D01*
X25118385Y-46797651D01*
X25034696Y-46855240D01*
X24936392Y-46922497D01*
X24914832Y-46937180D01*
X24876705Y-46921906D01*
X24830207Y-46908370D01*
X24798998Y-46897776D01*
X24790240Y-46894547D01*
X24788821Y-46894321D01*
X24784310Y-46892790D01*
X24775594Y-46890819D01*
X24765386Y-46888584D01*
X24760083Y-46887956D01*
X24756777Y-46886994D01*
X24737947Y-46885336D01*
X24716014Y-46882741D01*
X24666885Y-46874926D01*
X24654074Y-46875410D01*
X24641345Y-46873903D01*
X24591778Y-46877761D01*
X24542067Y-46879637D01*
X24529589Y-46882601D01*
X24516816Y-46883595D01*
X24468940Y-46897007D01*
X24420542Y-46908503D01*
X24408884Y-46913831D01*
X24396540Y-46917289D01*
X24352177Y-46939748D01*
X24306938Y-46960423D01*
X24296533Y-46967917D01*
X24285100Y-46973705D01*
X24245941Y-47004355D01*
X24205583Y-47033422D01*
X24196835Y-47042790D01*
X24186741Y-47050691D01*
X24154289Y-47088354D01*
X24120336Y-47124715D01*
X24114954Y-47131848D01*
X24102680Y-47148352D01*
X24078505Y-47188525D01*
X24052400Y-47227463D01*
X24048227Y-47235365D01*
X24024011Y-47282005D01*
X24021343Y-47288661D01*
X24017568Y-47294760D01*
X24013685Y-47302808D01*
X23979335Y-47375281D01*
X23979065Y-47376034D01*
X23978654Y-47376722D01*
X23974903Y-47384833D01*
X23932228Y-47478836D01*
X23932184Y-47478965D01*
X23929676Y-47484531D01*
X23880482Y-47595763D01*
X23880433Y-47595913D01*
X23878734Y-47599753D01*
X23824830Y-47723911D01*
X23824785Y-47724051D01*
X23823475Y-47727055D01*
X23766669Y-47859838D01*
X23766626Y-47859973D01*
X23765505Y-47862578D01*
X23707603Y-47999683D01*
X23707564Y-47999808D01*
X23706495Y-48002322D01*
X23656701Y-48121715D01*
X23653906Y-48114946D01*
X23653840Y-48114822D01*
X23652776Y-48112228D01*
X23595272Y-47974777D01*
X23595207Y-47974656D01*
X23594170Y-47972160D01*
X23536313Y-47835570D01*
X23536246Y-47835446D01*
X23535130Y-47832796D01*
X23478727Y-47701366D01*
X23478656Y-47701238D01*
X23477329Y-47698132D01*
X23424188Y-47576164D01*
X23424115Y-47576033D01*
X23422343Y-47571968D01*
X23374275Y-47463765D01*
X23374216Y-47463661D01*
X23371497Y-47457600D01*
X23330308Y-47367460D01*
X23329574Y-47366196D01*
X23329089Y-47364806D01*
X23325281Y-47356722D01*
X23292780Y-47288947D01*
X23287726Y-47280609D01*
X23284111Y-47271551D01*
X23279949Y-47263643D01*
X23257945Y-47222536D01*
X23225656Y-47174229D01*
X23194024Y-47125479D01*
X23188540Y-47118703D01*
X23188533Y-47118692D01*
X23188525Y-47118684D01*
X23188402Y-47118532D01*
X23179541Y-47107736D01*
X23135910Y-47064072D01*
X23092362Y-47020295D01*
X23091764Y-47019892D01*
X23091253Y-47019381D01*
X23040034Y-46985064D01*
X22988750Y-46950536D01*
X22988082Y-46950256D01*
X22987485Y-46949856D01*
X22930451Y-46926089D01*
X22873562Y-46902233D01*
X22872860Y-46902089D01*
X22872189Y-46901810D01*
X22811584Y-46889566D01*
X22751186Y-46877222D01*
X22750462Y-46877218D01*
X22749756Y-46877075D01*
X22688078Y-46876836D01*
X22626281Y-46876459D01*
X22625572Y-46876595D01*
X22624851Y-46876592D01*
X22564408Y-46888317D01*
X22503608Y-46899969D01*
X22502305Y-46900364D01*
X22502231Y-46900378D01*
X22502154Y-46900409D01*
X22495056Y-46902559D01*
X22467980Y-46910966D01*
X22437382Y-46923859D01*
X22405731Y-46933894D01*
X22398399Y-46937096D01*
X22336672Y-46894980D01*
X22242688Y-46830549D01*
X22195336Y-46797915D01*
X22195277Y-46797882D01*
X22188940Y-46793563D01*
X22121694Y-46748407D01*
X22117081Y-46745925D01*
X22112977Y-46742655D01*
X22105444Y-46737848D01*
X22048503Y-46702064D01*
X22037566Y-46696600D01*
X22027612Y-46689483D01*
X22019839Y-46685074D01*
X21980629Y-46663193D01*
X21937628Y-46644439D01*
X21912889Y-46632180D01*
X21904570Y-46627672D01*
X21902486Y-46627025D01*
X21895601Y-46623613D01*
X21887223Y-46620505D01*
X21874488Y-46615880D01*
X21868813Y-46614427D01*
X21866137Y-46613260D01*
X21853041Y-46610389D01*
X21829588Y-46604385D01*
X21785284Y-46590626D01*
X21769168Y-46588917D01*
X21753484Y-46584902D01*
X21707208Y-46582348D01*
X21661073Y-46577456D01*
X21644931Y-46578910D01*
X21628768Y-46578018D01*
X21582873Y-46584501D01*
X21536671Y-46588663D01*
X21521126Y-46593223D01*
X21505089Y-46595488D01*
X21461307Y-46610769D01*
X21416815Y-46623820D01*
X21402453Y-46631311D01*
X21387160Y-46636649D01*
X21347197Y-46660133D01*
X21339245Y-46664281D01*
X21333730Y-46666592D01*
X21329988Y-46669110D01*
X21306069Y-46681586D01*
X21298622Y-46686525D01*
X21280086Y-46699003D01*
X21256008Y-46718885D01*
X21230098Y-46736318D01*
X21223246Y-46742055D01*
X21182222Y-46776887D01*
X21178910Y-46780309D01*
X21175034Y-46783082D01*
X21168350Y-46789014D01*
X21108817Y-46842588D01*
X21108588Y-46842838D01*
X21108307Y-46843046D01*
X21101713Y-46849077D01*
X21027647Y-46917772D01*
X21027575Y-46917853D01*
X21022607Y-46922497D01*
X20937983Y-47002699D01*
X20937875Y-47002824D01*
X20934496Y-47006030D01*
X20880976Y-47057525D01*
X20880901Y-47057613D01*
X20876167Y-47062200D01*
X20782533Y-47154200D01*
X20781873Y-47154990D01*
X20781073Y-47155639D01*
X20774764Y-47161966D01*
X20693842Y-47244253D01*
X20692147Y-47246352D01*
X20690089Y-47248101D01*
X20683922Y-47254568D01*
X20660000Y-47280007D01*
X20660000Y-43919721D01*
X21675000Y-43919721D01*
X21675000Y-44340279D01*
X21757047Y-44752756D01*
X21917988Y-45141302D01*
X22151637Y-45490983D01*
X22449017Y-45788363D01*
X22798698Y-46022012D01*
X23187244Y-46182953D01*
X23599721Y-46265000D01*
X24020279Y-46265000D01*
X24432756Y-46182953D01*
X24821302Y-46022012D01*
X25170983Y-45788363D01*
X25468363Y-45490983D01*
X25702012Y-45141302D01*
X25862953Y-44752756D01*
X25945000Y-44340279D01*
X25945000Y-43919721D01*
X31835000Y-43919721D01*
X31835000Y-44340279D01*
X31917047Y-44752756D01*
X32077988Y-45141302D01*
X32311637Y-45490983D01*
X32609017Y-45788363D01*
X32958698Y-46022012D01*
X33347244Y-46182953D01*
X33759721Y-46265000D01*
X34180279Y-46265000D01*
X34592756Y-46182953D01*
X34981302Y-46022012D01*
X35330983Y-45788363D01*
X35628363Y-45490983D01*
X35862012Y-45141302D01*
X36022953Y-44752756D01*
X36105000Y-44340279D01*
X36105000Y-43919721D01*
X41995000Y-43919721D01*
X41995000Y-44340279D01*
X42077047Y-44752756D01*
X42237988Y-45141302D01*
X42471637Y-45490983D01*
X42769017Y-45788363D01*
X43118698Y-46022012D01*
X43507244Y-46182953D01*
X43919721Y-46265000D01*
X44340279Y-46265000D01*
X44752756Y-46182953D01*
X45141302Y-46022012D01*
X45490983Y-45788363D01*
X45788363Y-45490983D01*
X46022012Y-45141302D01*
X46182953Y-44752756D01*
X46265000Y-44340279D01*
X46265000Y-43919721D01*
X52155000Y-43919721D01*
X52155000Y-44340279D01*
X52237047Y-44752756D01*
X52397988Y-45141302D01*
X52631637Y-45490983D01*
X52929017Y-45788363D01*
X53278698Y-46022012D01*
X53667244Y-46182953D01*
X54079721Y-46265000D01*
X54500279Y-46265000D01*
X54912756Y-46182953D01*
X55301302Y-46022012D01*
X55650983Y-45788363D01*
X55948363Y-45490983D01*
X56182012Y-45141302D01*
X56342953Y-44752756D01*
X56425000Y-44340279D01*
X56425000Y-43919721D01*
X56342953Y-43507244D01*
X56182012Y-43118698D01*
X55948363Y-42769017D01*
X55650983Y-42471637D01*
X55301302Y-42237988D01*
X54912756Y-42077047D01*
X54500279Y-41995000D01*
X54079721Y-41995000D01*
X53667244Y-42077047D01*
X53278698Y-42237988D01*
X52929017Y-42471637D01*
X52631637Y-42769017D01*
X52397988Y-43118698D01*
X52237047Y-43507244D01*
X52155000Y-43919721D01*
X46265000Y-43919721D01*
X46182953Y-43507244D01*
X46022012Y-43118698D01*
X45788363Y-42769017D01*
X45490983Y-42471637D01*
X45141302Y-42237988D01*
X44752756Y-42077047D01*
X44340279Y-41995000D01*
X43919721Y-41995000D01*
X43507244Y-42077047D01*
X43118698Y-42237988D01*
X42769017Y-42471637D01*
X42471637Y-42769017D01*
X42237988Y-43118698D01*
X42077047Y-43507244D01*
X41995000Y-43919721D01*
X36105000Y-43919721D01*
X36022953Y-43507244D01*
X35862012Y-43118698D01*
X35628363Y-42769017D01*
X35330983Y-42471637D01*
X34981302Y-42237988D01*
X34592756Y-42077047D01*
X34180279Y-41995000D01*
X33759721Y-41995000D01*
X33347244Y-42077047D01*
X32958698Y-42237988D01*
X32609017Y-42471637D01*
X32311637Y-42769017D01*
X32077988Y-43118698D01*
X31917047Y-43507244D01*
X31835000Y-43919721D01*
X25945000Y-43919721D01*
X25862953Y-43507244D01*
X25702012Y-43118698D01*
X25468363Y-42769017D01*
X25170983Y-42471637D01*
X24821302Y-42237988D01*
X24432756Y-42077047D01*
X24020279Y-41995000D01*
X23599721Y-41995000D01*
X23187244Y-42077047D01*
X22798698Y-42237988D01*
X22449017Y-42471637D01*
X22151637Y-42769017D01*
X21917988Y-43118698D01*
X21757047Y-43507244D01*
X21675000Y-43919721D01*
X20660000Y-43919721D01*
X20660000Y-40363377D01*
X27756229Y-40363377D01*
X27882104Y-40653315D01*
X28214262Y-40819139D01*
X28572387Y-40916975D01*
X28942719Y-40943065D01*
X29311025Y-40896405D01*
X29663151Y-40778789D01*
X29897896Y-40653315D01*
X30023771Y-40363377D01*
X37916229Y-40363377D01*
X38042104Y-40653315D01*
X38374262Y-40819139D01*
X38732387Y-40916975D01*
X39102719Y-40943065D01*
X39471025Y-40896405D01*
X39823151Y-40778789D01*
X40057896Y-40653315D01*
X40183771Y-40363377D01*
X39050000Y-39229605D01*
X37916229Y-40363377D01*
X30023771Y-40363377D01*
X28890000Y-39229605D01*
X27756229Y-40363377D01*
X20660000Y-40363377D01*
X20660000Y-39102719D01*
X26996935Y-39102719D01*
X27043595Y-39471025D01*
X27161211Y-39823151D01*
X27286685Y-40057896D01*
X27576623Y-40183771D01*
X28710395Y-39050000D01*
X29069605Y-39050000D01*
X30203377Y-40183771D01*
X30493315Y-40057896D01*
X30659139Y-39725738D01*
X30756975Y-39367613D01*
X30775636Y-39102719D01*
X37156935Y-39102719D01*
X37203595Y-39471025D01*
X37321211Y-39823151D01*
X37446685Y-40057896D01*
X37736623Y-40183771D01*
X38870395Y-39050000D01*
X37736623Y-37916229D01*
X37446685Y-38042104D01*
X37280861Y-38374262D01*
X37183025Y-38732387D01*
X37156935Y-39102719D01*
X30775636Y-39102719D01*
X30783065Y-38997281D01*
X30736405Y-38628975D01*
X30618789Y-38276849D01*
X30493315Y-38042104D01*
X30203377Y-37916229D01*
X29069605Y-39050000D01*
X28710395Y-39050000D01*
X27576623Y-37916229D01*
X27286685Y-38042104D01*
X27120861Y-38374262D01*
X27023025Y-38732387D01*
X26996935Y-39102719D01*
X20660000Y-39102719D01*
X20660000Y-37383900D01*
X27999566Y-37383900D01*
X27882104Y-37446685D01*
X27756229Y-37736623D01*
X28890000Y-38870395D01*
X30023771Y-37736623D01*
X29897896Y-37446685D01*
X29772133Y-37383900D01*
X32437857Y-37383900D01*
X32437857Y-34363900D01*
X31611098Y-34363900D01*
X31787318Y-34290907D01*
X32001877Y-34147544D01*
X32166800Y-33982621D01*
X32331723Y-34147544D01*
X32546282Y-34290907D01*
X32784687Y-34389658D01*
X33037776Y-34440000D01*
X33295824Y-34440000D01*
X33548913Y-34389658D01*
X33787318Y-34290907D01*
X34001877Y-34147544D01*
X34166800Y-33982621D01*
X34331723Y-34147544D01*
X34546282Y-34290907D01*
X34784687Y-34389658D01*
X35037776Y-34440000D01*
X35295824Y-34440000D01*
X35548913Y-34389658D01*
X35787318Y-34290907D01*
X36001877Y-34147544D01*
X36166800Y-33982621D01*
X36331723Y-34147544D01*
X36546282Y-34290907D01*
X36784687Y-34389658D01*
X37037776Y-34440000D01*
X37295824Y-34440000D01*
X37548913Y-34389658D01*
X37787318Y-34290907D01*
X38001877Y-34147544D01*
X38156801Y-33992620D01*
X38156800Y-35688192D01*
X38151914Y-35737800D01*
X38171415Y-35935794D01*
X38197855Y-36022953D01*
X38229168Y-36126179D01*
X38322953Y-36301640D01*
X38449167Y-36455433D01*
X38487706Y-36487061D01*
X39169729Y-37169084D01*
X38997281Y-37156935D01*
X38628975Y-37203595D01*
X38276849Y-37321211D01*
X38042104Y-37446685D01*
X37916229Y-37736623D01*
X39050000Y-38870395D01*
X39064142Y-38856252D01*
X39243748Y-39035858D01*
X39229605Y-39050000D01*
X40363377Y-40183771D01*
X40653315Y-40057896D01*
X40819139Y-39725738D01*
X40916975Y-39367613D01*
X40943065Y-38997281D01*
X40935107Y-38934463D01*
X41084544Y-39083900D01*
X41116167Y-39122433D01*
X41269960Y-39248647D01*
X41445420Y-39342432D01*
X41635805Y-39400185D01*
X41833800Y-39419686D01*
X41883408Y-39414800D01*
X46508592Y-39414800D01*
X46558200Y-39419686D01*
X46756194Y-39400185D01*
X46863569Y-39367613D01*
X46946580Y-39342432D01*
X47122040Y-39248647D01*
X47275833Y-39122433D01*
X47307461Y-39083894D01*
X49878900Y-36512456D01*
X49917433Y-36480833D01*
X50043647Y-36327040D01*
X50137432Y-36151580D01*
X50195185Y-35961194D01*
X50209800Y-35812808D01*
X50214686Y-35763200D01*
X50209800Y-35713592D01*
X50209800Y-33759721D01*
X52155000Y-33759721D01*
X52155000Y-34180279D01*
X52237047Y-34592756D01*
X52397988Y-34981302D01*
X52631637Y-35330983D01*
X52929017Y-35628363D01*
X53278698Y-35862012D01*
X53667244Y-36022953D01*
X54079721Y-36105000D01*
X54500279Y-36105000D01*
X54912756Y-36022953D01*
X55301302Y-35862012D01*
X55650983Y-35628363D01*
X55948363Y-35330983D01*
X56182012Y-34981302D01*
X56342953Y-34592756D01*
X56425000Y-34180279D01*
X56425000Y-33759721D01*
X56342953Y-33347244D01*
X56182012Y-32958698D01*
X55948363Y-32609017D01*
X55650983Y-32311637D01*
X55301302Y-32077988D01*
X54912756Y-31917047D01*
X54500279Y-31835000D01*
X54079721Y-31835000D01*
X53667244Y-31917047D01*
X53278698Y-32077988D01*
X52929017Y-32311637D01*
X52631637Y-32609017D01*
X52397988Y-32958698D01*
X52237047Y-33347244D01*
X52155000Y-33759721D01*
X50209800Y-33759721D01*
X50209800Y-31579411D01*
X54984300Y-26804912D01*
X55022833Y-26773289D01*
X55149047Y-26619496D01*
X55242832Y-26444036D01*
X55255449Y-26402445D01*
X55300585Y-26253651D01*
X55320086Y-26055656D01*
X55315200Y-26006048D01*
X55315200Y-25890676D01*
X55474944Y-25783938D01*
X55730538Y-25528344D01*
X55931356Y-25227799D01*
X56069682Y-24893850D01*
X56140200Y-24539332D01*
X56140200Y-24177868D01*
X56069682Y-23823350D01*
X55931356Y-23489401D01*
X55730538Y-23188856D01*
X55474944Y-22933262D01*
X55174399Y-22732444D01*
X54840450Y-22594118D01*
X54485932Y-22523600D01*
X54124468Y-22523600D01*
X53769950Y-22594118D01*
X53436001Y-22732444D01*
X53135456Y-22933262D01*
X52879862Y-23188856D01*
X52679044Y-23489401D01*
X52555200Y-23788387D01*
X52431356Y-23489401D01*
X52230538Y-23188856D01*
X51974944Y-22933262D01*
X51674399Y-22732444D01*
X51340450Y-22594118D01*
X50985932Y-22523600D01*
X50624468Y-22523600D01*
X50269950Y-22594118D01*
X49936001Y-22732444D01*
X49635456Y-22933262D01*
X49379862Y-23188856D01*
X49179044Y-23489401D01*
X49055200Y-23788387D01*
X48931356Y-23489401D01*
X48730538Y-23188856D01*
X48474944Y-22933262D01*
X48174399Y-22732444D01*
X47840450Y-22594118D01*
X47485932Y-22523600D01*
X47124468Y-22523600D01*
X46769950Y-22594118D01*
X46436001Y-22732444D01*
X46135456Y-22933262D01*
X45879862Y-23188856D01*
X45679044Y-23489401D01*
X45555200Y-23788387D01*
X45431356Y-23489401D01*
X45230538Y-23188856D01*
X44974944Y-22933262D01*
X44674399Y-22732444D01*
X44340450Y-22594118D01*
X43985932Y-22523600D01*
X43624468Y-22523600D01*
X43269950Y-22594118D01*
X42936001Y-22732444D01*
X42635456Y-22933262D01*
X42379862Y-23188856D01*
X42179044Y-23489401D01*
X42055200Y-23788387D01*
X41931356Y-23489401D01*
X41730538Y-23188856D01*
X41474944Y-22933262D01*
X41174399Y-22732444D01*
X40840450Y-22594118D01*
X40485932Y-22523600D01*
X40124468Y-22523600D01*
X39769950Y-22594118D01*
X39436001Y-22732444D01*
X39135456Y-22933262D01*
X38879862Y-23188856D01*
X38679044Y-23489401D01*
X38555200Y-23788387D01*
X38431356Y-23489401D01*
X38230538Y-23188856D01*
X37974944Y-22933262D01*
X37674399Y-22732444D01*
X37340450Y-22594118D01*
X36985932Y-22523600D01*
X36624468Y-22523600D01*
X36269950Y-22594118D01*
X35936001Y-22732444D01*
X35635456Y-22933262D01*
X35379862Y-23188856D01*
X35179044Y-23489401D01*
X35055200Y-23788387D01*
X34931356Y-23489401D01*
X34730538Y-23188856D01*
X34474944Y-22933262D01*
X34174399Y-22732444D01*
X33840450Y-22594118D01*
X33485932Y-22523600D01*
X33124468Y-22523600D01*
X32769950Y-22594118D01*
X32436001Y-22732444D01*
X32135456Y-22933262D01*
X31879862Y-23188856D01*
X31679044Y-23489401D01*
X31555200Y-23788387D01*
X31431356Y-23489401D01*
X31230538Y-23188856D01*
X30974944Y-22933262D01*
X30674399Y-22732444D01*
X30340450Y-22594118D01*
X29985932Y-22523600D01*
X29624468Y-22523600D01*
X29269950Y-22594118D01*
X28936001Y-22732444D01*
X28635456Y-22933262D01*
X28379862Y-23188856D01*
X28179044Y-23489401D01*
X28055200Y-23788387D01*
X27931356Y-23489401D01*
X27730538Y-23188856D01*
X27474944Y-22933262D01*
X27174399Y-22732444D01*
X26840450Y-22594118D01*
X26485932Y-22523600D01*
X26124468Y-22523600D01*
X25769950Y-22594118D01*
X25436001Y-22732444D01*
X25135456Y-22933262D01*
X24879862Y-23188856D01*
X24679044Y-23489401D01*
X24555200Y-23788387D01*
X24431356Y-23489401D01*
X24230538Y-23188856D01*
X23974944Y-22933262D01*
X23674399Y-22732444D01*
X23340450Y-22594118D01*
X22985932Y-22523600D01*
X22624468Y-22523600D01*
X22269950Y-22594118D01*
X21936001Y-22732444D01*
X21635456Y-22933262D01*
X21379862Y-23188856D01*
X21179044Y-23489401D01*
X21040718Y-23823350D01*
X20970200Y-24177868D01*
X20970200Y-24539332D01*
X21007681Y-24727763D01*
X20693678Y-25041767D01*
X20725448Y-20827654D01*
X57429400Y-20726750D01*
X57429400Y-67600000D01*
G37*
X57429400Y-67600000D02*
X20660000Y-67600000D01*
X20660000Y-63184555D01*
X21007681Y-63532237D01*
X20970200Y-63720668D01*
X20970200Y-64082132D01*
X21040718Y-64436650D01*
X21179044Y-64770599D01*
X21379862Y-65071144D01*
X21635456Y-65326738D01*
X21936001Y-65527556D01*
X22269950Y-65665882D01*
X22624468Y-65736400D01*
X22985932Y-65736400D01*
X23340450Y-65665882D01*
X23674399Y-65527556D01*
X23974944Y-65326738D01*
X24230538Y-65071144D01*
X24431356Y-64770599D01*
X24555200Y-64471613D01*
X24679044Y-64770599D01*
X24879862Y-65071144D01*
X25135456Y-65326738D01*
X25436001Y-65527556D01*
X25769950Y-65665882D01*
X26124468Y-65736400D01*
X26485932Y-65736400D01*
X26840450Y-65665882D01*
X27174399Y-65527556D01*
X27474944Y-65326738D01*
X27730538Y-65071144D01*
X27931356Y-64770599D01*
X28055200Y-64471613D01*
X28179044Y-64770599D01*
X28379862Y-65071144D01*
X28635456Y-65326738D01*
X28936001Y-65527556D01*
X29269950Y-65665882D01*
X29624468Y-65736400D01*
X29985932Y-65736400D01*
X30340450Y-65665882D01*
X30674399Y-65527556D01*
X30974944Y-65326738D01*
X31230538Y-65071144D01*
X31431356Y-64770599D01*
X31555200Y-64471613D01*
X31679044Y-64770599D01*
X31879862Y-65071144D01*
X32135456Y-65326738D01*
X32436001Y-65527556D01*
X32769950Y-65665882D01*
X33124468Y-65736400D01*
X33485932Y-65736400D01*
X33840450Y-65665882D01*
X34174399Y-65527556D01*
X34474944Y-65326738D01*
X34730538Y-65071144D01*
X34931356Y-64770599D01*
X35055200Y-64471613D01*
X35179044Y-64770599D01*
X35379862Y-65071144D01*
X35635456Y-65326738D01*
X35936001Y-65527556D01*
X36269950Y-65665882D01*
X36624468Y-65736400D01*
X36985932Y-65736400D01*
X37340450Y-65665882D01*
X37674399Y-65527556D01*
X37974944Y-65326738D01*
X38230538Y-65071144D01*
X38431356Y-64770599D01*
X38555200Y-64471613D01*
X38679044Y-64770599D01*
X38879862Y-65071144D01*
X39135456Y-65326738D01*
X39436001Y-65527556D01*
X39769950Y-65665882D01*
X40124468Y-65736400D01*
X40485932Y-65736400D01*
X40840450Y-65665882D01*
X41174399Y-65527556D01*
X41474944Y-65326738D01*
X41730538Y-65071144D01*
X41931356Y-64770599D01*
X42055200Y-64471613D01*
X42179044Y-64770599D01*
X42379862Y-65071144D01*
X42635456Y-65326738D01*
X42936001Y-65527556D01*
X43269950Y-65665882D01*
X43624468Y-65736400D01*
X43985932Y-65736400D01*
X44340450Y-65665882D01*
X44674399Y-65527556D01*
X44974944Y-65326738D01*
X45230538Y-65071144D01*
X45431356Y-64770599D01*
X45555200Y-64471613D01*
X45679044Y-64770599D01*
X45879862Y-65071144D01*
X46135456Y-65326738D01*
X46436001Y-65527556D01*
X46769950Y-65665882D01*
X47124468Y-65736400D01*
X47485932Y-65736400D01*
X47840450Y-65665882D01*
X48174399Y-65527556D01*
X48474944Y-65326738D01*
X48730538Y-65071144D01*
X48931356Y-64770599D01*
X49055200Y-64471613D01*
X49179044Y-64770599D01*
X49379862Y-65071144D01*
X49635456Y-65326738D01*
X49936001Y-65527556D01*
X50269950Y-65665882D01*
X50624468Y-65736400D01*
X50985932Y-65736400D01*
X51340450Y-65665882D01*
X51674399Y-65527556D01*
X51974944Y-65326738D01*
X52230538Y-65071144D01*
X52431356Y-64770599D01*
X52555200Y-64471613D01*
X52679044Y-64770599D01*
X52879862Y-65071144D01*
X53135456Y-65326738D01*
X53436001Y-65527556D01*
X53769950Y-65665882D01*
X54124468Y-65736400D01*
X54485932Y-65736400D01*
X54840450Y-65665882D01*
X55174399Y-65527556D01*
X55474944Y-65326738D01*
X55730538Y-65071144D01*
X55931356Y-64770599D01*
X56069682Y-64436650D01*
X56140200Y-64082132D01*
X56140200Y-63720668D01*
X56069682Y-63366150D01*
X55931356Y-63032201D01*
X55730538Y-62731656D01*
X55474944Y-62476062D01*
X55315200Y-62369324D01*
X55315200Y-62127208D01*
X55320086Y-62077600D01*
X55300585Y-61879605D01*
X55242832Y-61689220D01*
X55223568Y-61653179D01*
X55149047Y-61513760D01*
X55022833Y-61359967D01*
X54984300Y-61328344D01*
X50463800Y-56807845D01*
X50463800Y-54079721D01*
X52155000Y-54079721D01*
X52155000Y-54500279D01*
X52237047Y-54912756D01*
X52397988Y-55301302D01*
X52631637Y-55650983D01*
X52929017Y-55948363D01*
X53278698Y-56182012D01*
X53667244Y-56342953D01*
X54079721Y-56425000D01*
X54500279Y-56425000D01*
X54912756Y-56342953D01*
X55301302Y-56182012D01*
X55650983Y-55948363D01*
X55948363Y-55650983D01*
X56182012Y-55301302D01*
X56342953Y-54912756D01*
X56425000Y-54500279D01*
X56425000Y-54079721D01*
X56342953Y-53667244D01*
X56182012Y-53278698D01*
X55948363Y-52929017D01*
X55650983Y-52631637D01*
X55301302Y-52397988D01*
X54912756Y-52237047D01*
X54500279Y-52155000D01*
X54079721Y-52155000D01*
X53667244Y-52237047D01*
X53278698Y-52397988D01*
X52929017Y-52631637D01*
X52631637Y-52929017D01*
X52397988Y-53278698D01*
X52237047Y-53667244D01*
X52155000Y-54079721D01*
X50463800Y-54079721D01*
X50463800Y-53415004D01*
X50468686Y-53365399D01*
X50463800Y-53315792D01*
X50449185Y-53167406D01*
X50391432Y-52977020D01*
X50297647Y-52801560D01*
X50171433Y-52647767D01*
X50132894Y-52616139D01*
X47002661Y-49485906D01*
X46971033Y-49447367D01*
X46817240Y-49321153D01*
X46641780Y-49227368D01*
X46451394Y-49169615D01*
X46303008Y-49155000D01*
X46253400Y-49150114D01*
X46203792Y-49155000D01*
X42594604Y-49155000D01*
X42544999Y-49150114D01*
X42495394Y-49155000D01*
X42495392Y-49155000D01*
X42347006Y-49169615D01*
X42156620Y-49227368D01*
X41981160Y-49321153D01*
X41827367Y-49447367D01*
X41795739Y-49485906D01*
X38411501Y-52870144D01*
X38372968Y-52901767D01*
X38341345Y-52940300D01*
X38341344Y-52940301D01*
X38279990Y-53015061D01*
X38246754Y-53055560D01*
X38152968Y-53231020D01*
X38125432Y-53321794D01*
X38095215Y-53421406D01*
X38075714Y-53619400D01*
X38080600Y-53669008D01*
X38080600Y-54049598D01*
X38075714Y-54099206D01*
X38080600Y-54148813D01*
X38085229Y-54195808D01*
X38001877Y-54112456D01*
X37787318Y-53969093D01*
X37548913Y-53870342D01*
X37295824Y-53820000D01*
X37037776Y-53820000D01*
X36784687Y-53870342D01*
X36546282Y-53969093D01*
X36331723Y-54112456D01*
X36166800Y-54277379D01*
X36001877Y-54112456D01*
X35787318Y-53969093D01*
X35548913Y-53870342D01*
X35295824Y-53820000D01*
X35037776Y-53820000D01*
X34784687Y-53870342D01*
X34546282Y-53969093D01*
X34331723Y-54112456D01*
X34166800Y-54277379D01*
X34001877Y-54112456D01*
X33787318Y-53969093D01*
X33548913Y-53870342D01*
X33295824Y-53820000D01*
X33037776Y-53820000D01*
X32784687Y-53870342D01*
X32546282Y-53969093D01*
X32331723Y-54112456D01*
X32166800Y-54277379D01*
X32001877Y-54112456D01*
X31787318Y-53969093D01*
X31548913Y-53870342D01*
X31295824Y-53820000D01*
X31037776Y-53820000D01*
X30784687Y-53870342D01*
X30546282Y-53969093D01*
X30331723Y-54112456D01*
X30166800Y-54277379D01*
X30001877Y-54112456D01*
X29787318Y-53969093D01*
X29548913Y-53870342D01*
X29295824Y-53820000D01*
X29037776Y-53820000D01*
X28784687Y-53870342D01*
X28546282Y-53969093D01*
X28331723Y-54112456D01*
X28166800Y-54277379D01*
X28001877Y-54112456D01*
X27787318Y-53969093D01*
X27548913Y-53870342D01*
X27295824Y-53820000D01*
X27037776Y-53820000D01*
X26784687Y-53870342D01*
X26546282Y-53969093D01*
X26331723Y-54112456D01*
X26166800Y-54277379D01*
X26001877Y-54112456D01*
X25787318Y-53969093D01*
X25548913Y-53870342D01*
X25295824Y-53820000D01*
X25037776Y-53820000D01*
X24784687Y-53870342D01*
X24546282Y-53969093D01*
X24331723Y-54112456D01*
X24166800Y-54277379D01*
X24001877Y-54112456D01*
X23787318Y-53969093D01*
X23548913Y-53870342D01*
X23295824Y-53820000D01*
X23037776Y-53820000D01*
X22784687Y-53870342D01*
X22546282Y-53969093D01*
X22331723Y-54112456D01*
X22166800Y-54277379D01*
X22001877Y-54112456D01*
X21787318Y-53969093D01*
X21548913Y-53870342D01*
X21295824Y-53820000D01*
X21037776Y-53820000D01*
X20784687Y-53870342D01*
X20660000Y-53921989D01*
X20660000Y-52422504D01*
X20715469Y-52481038D01*
X20715574Y-52481129D01*
X20719702Y-52485462D01*
X20794230Y-52562616D01*
X20794349Y-52562717D01*
X20797582Y-52566060D01*
X20876525Y-52646566D01*
X20876643Y-52646665D01*
X20879705Y-52649787D01*
X20958635Y-52729149D01*
X20958759Y-52729251D01*
X20962195Y-52732700D01*
X21036678Y-52806423D01*
X21036773Y-52806501D01*
X21041475Y-52811121D01*
X21107081Y-52874709D01*
X21107931Y-52875385D01*
X21108642Y-52876218D01*
X21115123Y-52882370D01*
X21167421Y-52931328D01*
X21174122Y-52936472D01*
X21179858Y-52942667D01*
X21186581Y-52948554D01*
X21221138Y-52978387D01*
X21259360Y-53005354D01*
X21296207Y-53034167D01*
X21303783Y-53038905D01*
X21315344Y-53046024D01*
X21320740Y-53048659D01*
X21323200Y-53050394D01*
X21330668Y-53053719D01*
X21342648Y-53061921D01*
X21385614Y-53080332D01*
X21427587Y-53100825D01*
X21442887Y-53104874D01*
X21457458Y-53111118D01*
X21503197Y-53120836D01*
X21548336Y-53132782D01*
X21564137Y-53133783D01*
X21579637Y-53137076D01*
X21626362Y-53137724D01*
X21672992Y-53140678D01*
X21688695Y-53138589D01*
X21704531Y-53138809D01*
X21750480Y-53130371D01*
X21796808Y-53124209D01*
X21811809Y-53119109D01*
X21827384Y-53116249D01*
X21870819Y-53099048D01*
X21915067Y-53084005D01*
X21928788Y-53076091D01*
X21943514Y-53070259D01*
X21951433Y-53066118D01*
X21970257Y-53056108D01*
X21985117Y-53046233D01*
X22001209Y-53038526D01*
X22008821Y-53033844D01*
X22053844Y-53005719D01*
X22054680Y-53005075D01*
X22055622Y-53004604D01*
X22063152Y-52999792D01*
X22129995Y-52956416D01*
X22130104Y-52956329D01*
X22134743Y-52953306D01*
X22219031Y-52897542D01*
X22219154Y-52897442D01*
X22222362Y-52895323D01*
X22319717Y-52830035D01*
X22319823Y-52829948D01*
X22322161Y-52828388D01*
X22395598Y-52778648D01*
X22395657Y-52778599D01*
X22396569Y-52777988D01*
X22465463Y-52731141D01*
X22481198Y-52814608D01*
X22481203Y-52814634D01*
X22565024Y-53259258D01*
X22565219Y-53259926D01*
X22565282Y-53260617D01*
X22582752Y-53319974D01*
X22600032Y-53379158D01*
X22600351Y-53379771D01*
X22600548Y-53380441D01*
X22629237Y-53435317D01*
X22657661Y-53489975D01*
X22658095Y-53490517D01*
X22658417Y-53491133D01*
X22697049Y-53539182D01*
X22735716Y-53587489D01*
X22736249Y-53587938D01*
X22736683Y-53588478D01*
X22784019Y-53628197D01*
X22831227Y-53667983D01*
X22831833Y-53668318D01*
X22832367Y-53668766D01*
X22886795Y-53698688D01*
X22940553Y-53728393D01*
X22941210Y-53728603D01*
X22941823Y-53728940D01*
X23000870Y-53747670D01*
X23059530Y-53766418D01*
X23060221Y-53766497D01*
X23060883Y-53766707D01*
X23122285Y-53773595D01*
X23183627Y-53780610D01*
X23184319Y-53780553D01*
X23185010Y-53780631D01*
X23193946Y-53780693D01*
X24119394Y-53780693D01*
X24120084Y-53780625D01*
X24120779Y-53780692D01*
X24182454Y-53774510D01*
X24243704Y-53768504D01*
X24244368Y-53768304D01*
X24245062Y-53768234D01*
X24304210Y-53750236D01*
X24363279Y-53732402D01*
X24363894Y-53732075D01*
X24364558Y-53731873D01*
X24419018Y-53702766D01*
X24473565Y-53673763D01*
X24474103Y-53673324D01*
X24474717Y-53672996D01*
X24522678Y-53633707D01*
X24570360Y-53594818D01*
X24570800Y-53594286D01*
X24571342Y-53593842D01*
X24610807Y-53545926D01*
X24649978Y-53498576D01*
X24650308Y-53497966D01*
X24650751Y-53497428D01*
X24679978Y-53443092D01*
X24709386Y-53388703D01*
X24709593Y-53388035D01*
X24709921Y-53387425D01*
X24728021Y-53328502D01*
X24746322Y-53269383D01*
X24746395Y-53268691D01*
X24746599Y-53268026D01*
X24748316Y-53259257D01*
X24832136Y-52814632D01*
X24847876Y-52731141D01*
X24916769Y-52777988D01*
X24916852Y-52778033D01*
X24918198Y-52778957D01*
X25022108Y-52849206D01*
X25022240Y-52849277D01*
X25025141Y-52851244D01*
X25119071Y-52913968D01*
X25119209Y-52914042D01*
X25122786Y-52916430D01*
X25202351Y-52968764D01*
X25202452Y-52968817D01*
X25208069Y-52972482D01*
X25268887Y-53011563D01*
X25271726Y-53013017D01*
X25274250Y-53014972D01*
X25281849Y-53019675D01*
X25319536Y-53042639D01*
X25343730Y-53054312D01*
X25366480Y-53068611D01*
X25374501Y-53072549D01*
X25384766Y-53077500D01*
X25403196Y-53084263D01*
X25420553Y-53093431D01*
X25431757Y-53096780D01*
X25432034Y-53096914D01*
X25433326Y-53097250D01*
X25461709Y-53105734D01*
X25502026Y-53120529D01*
X25521411Y-53123582D01*
X25540226Y-53129207D01*
X25583001Y-53133283D01*
X25625411Y-53139963D01*
X25645020Y-53139193D01*
X25664569Y-53141056D01*
X25707305Y-53136748D01*
X25750221Y-53135063D01*
X25769316Y-53130497D01*
X25788845Y-53128528D01*
X25829918Y-53116004D01*
X25871702Y-53106012D01*
X25889553Y-53097821D01*
X25908321Y-53092098D01*
X25946181Y-53071835D01*
X25985227Y-53053918D01*
X26001136Y-53042423D01*
X26018446Y-53033159D01*
X26025841Y-53028141D01*
X26044330Y-53015407D01*
X26071428Y-52992542D01*
X26100371Y-52972048D01*
X26107084Y-52966149D01*
X26146594Y-52930943D01*
X26150263Y-52926966D01*
X26154583Y-52923703D01*
X26161111Y-52917601D01*
X26217213Y-52864420D01*
X26217388Y-52864218D01*
X26217605Y-52864049D01*
X26224042Y-52857851D01*
X26292306Y-52791195D01*
X26292395Y-52791089D01*
X26296651Y-52786912D01*
X26372649Y-52711277D01*
X26372748Y-52711157D01*
X26376033Y-52707884D01*
X26455339Y-52627766D01*
X26455441Y-52627641D01*
X26458493Y-52624557D01*
X26536677Y-52544455D01*
X26536778Y-52544329D01*
X26540163Y-52540855D01*
X26612795Y-52465264D01*
X26612868Y-52465171D01*
X26617399Y-52460423D01*
X26680051Y-52393842D01*
X26680692Y-52393012D01*
X26681483Y-52392316D01*
X26687539Y-52385745D01*
X26735783Y-52332672D01*
X26740768Y-52325977D01*
X26746816Y-52320214D01*
X26752605Y-52313407D01*
X26782012Y-52278338D01*
X26808037Y-52240302D01*
X26835978Y-52203659D01*
X26840624Y-52196026D01*
X26847655Y-52184290D01*
X26850554Y-52178165D01*
X26852546Y-52175253D01*
X26858388Y-52161611D01*
X26872432Y-52131934D01*
X26897963Y-52079908D01*
X26899139Y-52075500D01*
X26901085Y-52071388D01*
X26915208Y-52015268D01*
X26930160Y-51959223D01*
X26930457Y-51954672D01*
X26931568Y-51950259D01*
X26934525Y-51892415D01*
X26938304Y-51834582D01*
X26937712Y-51830065D01*
X26937945Y-51825515D01*
X26929602Y-51768153D01*
X26922081Y-51710734D01*
X26920624Y-51706420D01*
X26919968Y-51701909D01*
X26900656Y-51647296D01*
X26894986Y-51630507D01*
X26894035Y-51626484D01*
X26892458Y-51623023D01*
X26882114Y-51592395D01*
X26878385Y-51584274D01*
X26868267Y-51562637D01*
X26853919Y-51538435D01*
X26842248Y-51512820D01*
X26837713Y-51505121D01*
X26809349Y-51457719D01*
X26806722Y-51454168D01*
X26804780Y-51450201D01*
X26800033Y-51442629D01*
X26756403Y-51374098D01*
X26756245Y-51373897D01*
X26756125Y-51373660D01*
X26751267Y-51366160D01*
X26695356Y-51281138D01*
X26695284Y-51281048D01*
X26691540Y-51275403D01*
X26626328Y-51178525D01*
X26626227Y-51178403D01*
X26623694Y-51174643D01*
X26585907Y-51119385D01*
X26537435Y-51048377D01*
X26556326Y-51044816D01*
X26621063Y-51032755D01*
X26621179Y-51032722D01*
X26623544Y-51032288D01*
X26744052Y-51009344D01*
X26744177Y-51009307D01*
X26750217Y-51008139D01*
X26859064Y-50986306D01*
X26859139Y-50986283D01*
X26866522Y-50984764D01*
X26958200Y-50965237D01*
X26959542Y-50964811D01*
X26960941Y-50964647D01*
X26969659Y-50962686D01*
X27038664Y-50946660D01*
X27047354Y-50943723D01*
X27056424Y-50942268D01*
X27065051Y-50939937D01*
X27105873Y-50928607D01*
X27144126Y-50913837D01*
X27183284Y-50901674D01*
X27191494Y-50898145D01*
X27199701Y-50894550D01*
X27211749Y-50887802D01*
X27224686Y-50882959D01*
X27266160Y-50857323D01*
X27308675Y-50833508D01*
X27319181Y-50824549D01*
X27330933Y-50817285D01*
X27366640Y-50784079D01*
X27403718Y-50752462D01*
X27412283Y-50741634D01*
X27422401Y-50732225D01*
X27450971Y-50692725D01*
X27481209Y-50654499D01*
X27487512Y-50642206D01*
X27495604Y-50631018D01*
X27515952Y-50586736D01*
X27538196Y-50543350D01*
X27541990Y-50530068D01*
X27545064Y-50523377D01*
X27756229Y-50523377D01*
X27882104Y-50813315D01*
X28214262Y-50979139D01*
X28572387Y-51076975D01*
X28942719Y-51103065D01*
X29311025Y-51056405D01*
X29663151Y-50938789D01*
X29897896Y-50813315D01*
X30023771Y-50523377D01*
X37916229Y-50523377D01*
X38042104Y-50813315D01*
X38374262Y-50979139D01*
X38732387Y-51076975D01*
X39102719Y-51103065D01*
X39471025Y-51056405D01*
X39823151Y-50938789D01*
X40057896Y-50813315D01*
X40183771Y-50523377D01*
X39050000Y-49389605D01*
X37916229Y-50523377D01*
X30023771Y-50523377D01*
X28890000Y-49389605D01*
X27756229Y-50523377D01*
X27545064Y-50523377D01*
X27547756Y-50517521D01*
X27550618Y-50509055D01*
X27558655Y-50484723D01*
X27571816Y-50426220D01*
X27585429Y-50367867D01*
X27586036Y-50363015D01*
X27586070Y-50362863D01*
X27586074Y-50362710D01*
X27586538Y-50359000D01*
X27589902Y-50330492D01*
X28710395Y-49210000D01*
X29069605Y-49210000D01*
X30203377Y-50343771D01*
X30493315Y-50217896D01*
X30659139Y-49885738D01*
X30756975Y-49527613D01*
X30775636Y-49262719D01*
X37156935Y-49262719D01*
X37203595Y-49631025D01*
X37321211Y-49983151D01*
X37446685Y-50217896D01*
X37736623Y-50343771D01*
X38870395Y-49210000D01*
X39229605Y-49210000D01*
X40363377Y-50343771D01*
X40653315Y-50217896D01*
X40819139Y-49885738D01*
X40916975Y-49527613D01*
X40943065Y-49157281D01*
X40896405Y-48788975D01*
X40778789Y-48436849D01*
X40653315Y-48202104D01*
X40363377Y-48076229D01*
X39229605Y-49210000D01*
X38870395Y-49210000D01*
X37736623Y-48076229D01*
X37446685Y-48202104D01*
X37280861Y-48534262D01*
X37183025Y-48892387D01*
X37156935Y-49262719D01*
X30775636Y-49262719D01*
X30783065Y-49157281D01*
X30736405Y-48788975D01*
X30618789Y-48436849D01*
X30493315Y-48202104D01*
X30203377Y-48076229D01*
X29069605Y-49210000D01*
X28710395Y-49210000D01*
X27576623Y-48076229D01*
X27286685Y-48202104D01*
X27120861Y-48534262D01*
X27055717Y-48772719D01*
X27025628Y-48764699D01*
X27017914Y-48763432D01*
X27010527Y-48760870D01*
X27001824Y-48758840D01*
X26924538Y-48741380D01*
X26921260Y-48740970D01*
X26918116Y-48739964D01*
X26909367Y-48738146D01*
X26817490Y-48719718D01*
X26817423Y-48719711D01*
X26817353Y-48719690D01*
X26808579Y-48717996D01*
X26776507Y-48712035D01*
X26776417Y-48712027D01*
X26774871Y-48711733D01*
X26621422Y-48683625D01*
X26564482Y-48672992D01*
X26555353Y-48649685D01*
X26553587Y-48645005D01*
X26588562Y-48594011D01*
X26588563Y-48594010D01*
X26606671Y-48567665D01*
X26606747Y-48567528D01*
X26609462Y-48563571D01*
X26675318Y-48466150D01*
X26675735Y-48465380D01*
X26676291Y-48464706D01*
X26681223Y-48457254D01*
X26739174Y-48368366D01*
X26740144Y-48366503D01*
X26741453Y-48364847D01*
X26746231Y-48357296D01*
X26793119Y-48282046D01*
X26795837Y-48276554D01*
X26799481Y-48271617D01*
X26804007Y-48263912D01*
X26836676Y-48207404D01*
X26846262Y-48186304D01*
X26858370Y-48166539D01*
X26862216Y-48158473D01*
X26877509Y-48125812D01*
X26882418Y-48111943D01*
X26889335Y-48098968D01*
X26903220Y-48053165D01*
X26919183Y-48008063D01*
X26921302Y-47993519D01*
X26925572Y-47979435D01*
X26927256Y-47970658D01*
X26927997Y-47966646D01*
X26931508Y-47925393D01*
X26935884Y-47896623D01*
X27756229Y-47896623D01*
X28890000Y-49030395D01*
X30023771Y-47896623D01*
X37916229Y-47896623D01*
X39050000Y-49030395D01*
X40183771Y-47896623D01*
X40057896Y-47606685D01*
X39725738Y-47440861D01*
X39367613Y-47343025D01*
X38997281Y-47316935D01*
X38628975Y-47363595D01*
X38276849Y-47481211D01*
X38042104Y-47606685D01*
X37916229Y-47896623D01*
X30023771Y-47896623D01*
X29897896Y-47606685D01*
X29565738Y-47440861D01*
X29207613Y-47343025D01*
X28837281Y-47316935D01*
X28468975Y-47363595D01*
X28116849Y-47481211D01*
X27882104Y-47606685D01*
X27756229Y-47896623D01*
X26935884Y-47896623D01*
X26937735Y-47884454D01*
X26936792Y-47863291D01*
X26938588Y-47842190D01*
X26934020Y-47801049D01*
X26932177Y-47759672D01*
X26927141Y-47739092D01*
X26924804Y-47718047D01*
X26912327Y-47678560D01*
X26902486Y-47638346D01*
X26893555Y-47619150D01*
X26887171Y-47598945D01*
X26867262Y-47562635D01*
X26849798Y-47525097D01*
X26845202Y-47517433D01*
X26832352Y-47496342D01*
X26804817Y-47459736D01*
X26779224Y-47421732D01*
X26773485Y-47414882D01*
X26737981Y-47373102D01*
X26731570Y-47366902D01*
X26726283Y-47359717D01*
X26720263Y-47353113D01*
X26666668Y-47295132D01*
X26665094Y-47293732D01*
X26663809Y-47292059D01*
X26657655Y-47285580D01*
X26590533Y-47215889D01*
X26590513Y-47215872D01*
X26584556Y-47209767D01*
X26508472Y-47132856D01*
X26508379Y-47132779D01*
X26503641Y-47128025D01*
X26423158Y-47048387D01*
X26423057Y-47048305D01*
X26418522Y-47043846D01*
X26338205Y-46965968D01*
X26338131Y-46965909D01*
X26332893Y-46960876D01*
X26257305Y-46889251D01*
X26256893Y-46888931D01*
X26256545Y-46888531D01*
X26250005Y-46882441D01*
X26183711Y-46821557D01*
X26180482Y-46819127D01*
X26177744Y-46816145D01*
X26171045Y-46810231D01*
X26118609Y-46764580D01*
X26105271Y-46755086D01*
X26093434Y-46743767D01*
X26086365Y-46738301D01*
X26052351Y-46712372D01*
X26047112Y-46709134D01*
X26042523Y-46705028D01*
X26007210Y-46684127D01*
X25997142Y-46676283D01*
X25979986Y-46667646D01*
X25946101Y-46646703D01*
X25940336Y-46644545D01*
X25935035Y-46641408D01*
X25926911Y-46637685D01*
X25917501Y-46633452D01*
X25901068Y-46627915D01*
X25885576Y-46620116D01*
X25844790Y-46608788D01*
X25829118Y-46602923D01*
X25824775Y-46602210D01*
X25799133Y-46593571D01*
X25781938Y-46591332D01*
X25765226Y-46586690D01*
X25720121Y-46583281D01*
X25675273Y-46577440D01*
X25657969Y-46578583D01*
X25640675Y-46577276D01*
X25595773Y-46582692D01*
X25550638Y-46585674D01*
X25533882Y-46590158D01*
X25516667Y-46592234D01*
X25473668Y-46606269D01*
X25429977Y-46617960D01*
X25414418Y-46625609D01*
X25397927Y-46630992D01*
X25389769Y-46634638D01*
X25367867Y-46644609D01*
X25340427Y-46660501D01*
X25311585Y-46673676D01*
X25303890Y-46678218D01*
X25259047Y-46705110D01*
X25253399Y-46709297D01*
X25247106Y-46712449D01*
X25239578Y-46717265D01*
X25179099Y-46756549D01*
X25177386Y-46757917D01*
X25175445Y-46758940D01*
X25168019Y-46763911D01*
X25121488Y-46795530D01*
X25121374Y-46795625D01*
X25118385Y-46797651D01*
X25034696Y-46855240D01*
X24936392Y-46922497D01*
X24914832Y-46937180D01*
X24876705Y-46921906D01*
X24830207Y-46908370D01*
X24798998Y-46897776D01*
X24790240Y-46894547D01*
X24788821Y-46894321D01*
X24784310Y-46892790D01*
X24775594Y-46890819D01*
X24765386Y-46888584D01*
X24760083Y-46887956D01*
X24756777Y-46886994D01*
X24737947Y-46885336D01*
X24716014Y-46882741D01*
X24666885Y-46874926D01*
X24654074Y-46875410D01*
X24641345Y-46873903D01*
X24591778Y-46877761D01*
X24542067Y-46879637D01*
X24529589Y-46882601D01*
X24516816Y-46883595D01*
X24468940Y-46897007D01*
X24420542Y-46908503D01*
X24408884Y-46913831D01*
X24396540Y-46917289D01*
X24352177Y-46939748D01*
X24306938Y-46960423D01*
X24296533Y-46967917D01*
X24285100Y-46973705D01*
X24245941Y-47004355D01*
X24205583Y-47033422D01*
X24196835Y-47042790D01*
X24186741Y-47050691D01*
X24154289Y-47088354D01*
X24120336Y-47124715D01*
X24114954Y-47131848D01*
X24102680Y-47148352D01*
X24078505Y-47188525D01*
X24052400Y-47227463D01*
X24048227Y-47235365D01*
X24024011Y-47282005D01*
X24021343Y-47288661D01*
X24017568Y-47294760D01*
X24013685Y-47302808D01*
X23979335Y-47375281D01*
X23979065Y-47376034D01*
X23978654Y-47376722D01*
X23974903Y-47384833D01*
X23932228Y-47478836D01*
X23932184Y-47478965D01*
X23929676Y-47484531D01*
X23880482Y-47595763D01*
X23880433Y-47595913D01*
X23878734Y-47599753D01*
X23824830Y-47723911D01*
X23824785Y-47724051D01*
X23823475Y-47727055D01*
X23766669Y-47859838D01*
X23766626Y-47859973D01*
X23765505Y-47862578D01*
X23707603Y-47999683D01*
X23707564Y-47999808D01*
X23706495Y-48002322D01*
X23656701Y-48121715D01*
X23653906Y-48114946D01*
X23653840Y-48114822D01*
X23652776Y-48112228D01*
X23595272Y-47974777D01*
X23595207Y-47974656D01*
X23594170Y-47972160D01*
X23536313Y-47835570D01*
X23536246Y-47835446D01*
X23535130Y-47832796D01*
X23478727Y-47701366D01*
X23478656Y-47701238D01*
X23477329Y-47698132D01*
X23424188Y-47576164D01*
X23424115Y-47576033D01*
X23422343Y-47571968D01*
X23374275Y-47463765D01*
X23374216Y-47463661D01*
X23371497Y-47457600D01*
X23330308Y-47367460D01*
X23329574Y-47366196D01*
X23329089Y-47364806D01*
X23325281Y-47356722D01*
X23292780Y-47288947D01*
X23287726Y-47280609D01*
X23284111Y-47271551D01*
X23279949Y-47263643D01*
X23257945Y-47222536D01*
X23225656Y-47174229D01*
X23194024Y-47125479D01*
X23188540Y-47118703D01*
X23188533Y-47118692D01*
X23188525Y-47118684D01*
X23188402Y-47118532D01*
X23179541Y-47107736D01*
X23135910Y-47064072D01*
X23092362Y-47020295D01*
X23091764Y-47019892D01*
X23091253Y-47019381D01*
X23040034Y-46985064D01*
X22988750Y-46950536D01*
X22988082Y-46950256D01*
X22987485Y-46949856D01*
X22930451Y-46926089D01*
X22873562Y-46902233D01*
X22872860Y-46902089D01*
X22872189Y-46901810D01*
X22811584Y-46889566D01*
X22751186Y-46877222D01*
X22750462Y-46877218D01*
X22749756Y-46877075D01*
X22688078Y-46876836D01*
X22626281Y-46876459D01*
X22625572Y-46876595D01*
X22624851Y-46876592D01*
X22564408Y-46888317D01*
X22503608Y-46899969D01*
X22502305Y-46900364D01*
X22502231Y-46900378D01*
X22502154Y-46900409D01*
X22495056Y-46902559D01*
X22467980Y-46910966D01*
X22437382Y-46923859D01*
X22405731Y-46933894D01*
X22398399Y-46937096D01*
X22336672Y-46894980D01*
X22242688Y-46830549D01*
X22195336Y-46797915D01*
X22195277Y-46797882D01*
X22188940Y-46793563D01*
X22121694Y-46748407D01*
X22117081Y-46745925D01*
X22112977Y-46742655D01*
X22105444Y-46737848D01*
X22048503Y-46702064D01*
X22037566Y-46696600D01*
X22027612Y-46689483D01*
X22019839Y-46685074D01*
X21980629Y-46663193D01*
X21937628Y-46644439D01*
X21912889Y-46632180D01*
X21904570Y-46627672D01*
X21902486Y-46627025D01*
X21895601Y-46623613D01*
X21887223Y-46620505D01*
X21874488Y-46615880D01*
X21868813Y-46614427D01*
X21866137Y-46613260D01*
X21853041Y-46610389D01*
X21829588Y-46604385D01*
X21785284Y-46590626D01*
X21769168Y-46588917D01*
X21753484Y-46584902D01*
X21707208Y-46582348D01*
X21661073Y-46577456D01*
X21644931Y-46578910D01*
X21628768Y-46578018D01*
X21582873Y-46584501D01*
X21536671Y-46588663D01*
X21521126Y-46593223D01*
X21505089Y-46595488D01*
X21461307Y-46610769D01*
X21416815Y-46623820D01*
X21402453Y-46631311D01*
X21387160Y-46636649D01*
X21347197Y-46660133D01*
X21339245Y-46664281D01*
X21333730Y-46666592D01*
X21329988Y-46669110D01*
X21306069Y-46681586D01*
X21298622Y-46686525D01*
X21280086Y-46699003D01*
X21256008Y-46718885D01*
X21230098Y-46736318D01*
X21223246Y-46742055D01*
X21182222Y-46776887D01*
X21178910Y-46780309D01*
X21175034Y-46783082D01*
X21168350Y-46789014D01*
X21108817Y-46842588D01*
X21108588Y-46842838D01*
X21108307Y-46843046D01*
X21101713Y-46849077D01*
X21027647Y-46917772D01*
X21027575Y-46917853D01*
X21022607Y-46922497D01*
X20937983Y-47002699D01*
X20937875Y-47002824D01*
X20934496Y-47006030D01*
X20880976Y-47057525D01*
X20880901Y-47057613D01*
X20876167Y-47062200D01*
X20782533Y-47154200D01*
X20781873Y-47154990D01*
X20781073Y-47155639D01*
X20774764Y-47161966D01*
X20693842Y-47244253D01*
X20692147Y-47246352D01*
X20690089Y-47248101D01*
X20683922Y-47254568D01*
X20660000Y-47280007D01*
X20660000Y-43919721D01*
X21675000Y-43919721D01*
X21675000Y-44340279D01*
X21757047Y-44752756D01*
X21917988Y-45141302D01*
X22151637Y-45490983D01*
X22449017Y-45788363D01*
X22798698Y-46022012D01*
X23187244Y-46182953D01*
X23599721Y-46265000D01*
X24020279Y-46265000D01*
X24432756Y-46182953D01*
X24821302Y-46022012D01*
X25170983Y-45788363D01*
X25468363Y-45490983D01*
X25702012Y-45141302D01*
X25862953Y-44752756D01*
X25945000Y-44340279D01*
X25945000Y-43919721D01*
X31835000Y-43919721D01*
X31835000Y-44340279D01*
X31917047Y-44752756D01*
X32077988Y-45141302D01*
X32311637Y-45490983D01*
X32609017Y-45788363D01*
X32958698Y-46022012D01*
X33347244Y-46182953D01*
X33759721Y-46265000D01*
X34180279Y-46265000D01*
X34592756Y-46182953D01*
X34981302Y-46022012D01*
X35330983Y-45788363D01*
X35628363Y-45490983D01*
X35862012Y-45141302D01*
X36022953Y-44752756D01*
X36105000Y-44340279D01*
X36105000Y-43919721D01*
X41995000Y-43919721D01*
X41995000Y-44340279D01*
X42077047Y-44752756D01*
X42237988Y-45141302D01*
X42471637Y-45490983D01*
X42769017Y-45788363D01*
X43118698Y-46022012D01*
X43507244Y-46182953D01*
X43919721Y-46265000D01*
X44340279Y-46265000D01*
X44752756Y-46182953D01*
X45141302Y-46022012D01*
X45490983Y-45788363D01*
X45788363Y-45490983D01*
X46022012Y-45141302D01*
X46182953Y-44752756D01*
X46265000Y-44340279D01*
X46265000Y-43919721D01*
X52155000Y-43919721D01*
X52155000Y-44340279D01*
X52237047Y-44752756D01*
X52397988Y-45141302D01*
X52631637Y-45490983D01*
X52929017Y-45788363D01*
X53278698Y-46022012D01*
X53667244Y-46182953D01*
X54079721Y-46265000D01*
X54500279Y-46265000D01*
X54912756Y-46182953D01*
X55301302Y-46022012D01*
X55650983Y-45788363D01*
X55948363Y-45490983D01*
X56182012Y-45141302D01*
X56342953Y-44752756D01*
X56425000Y-44340279D01*
X56425000Y-43919721D01*
X56342953Y-43507244D01*
X56182012Y-43118698D01*
X55948363Y-42769017D01*
X55650983Y-42471637D01*
X55301302Y-42237988D01*
X54912756Y-42077047D01*
X54500279Y-41995000D01*
X54079721Y-41995000D01*
X53667244Y-42077047D01*
X53278698Y-42237988D01*
X52929017Y-42471637D01*
X52631637Y-42769017D01*
X52397988Y-43118698D01*
X52237047Y-43507244D01*
X52155000Y-43919721D01*
X46265000Y-43919721D01*
X46182953Y-43507244D01*
X46022012Y-43118698D01*
X45788363Y-42769017D01*
X45490983Y-42471637D01*
X45141302Y-42237988D01*
X44752756Y-42077047D01*
X44340279Y-41995000D01*
X43919721Y-41995000D01*
X43507244Y-42077047D01*
X43118698Y-42237988D01*
X42769017Y-42471637D01*
X42471637Y-42769017D01*
X42237988Y-43118698D01*
X42077047Y-43507244D01*
X41995000Y-43919721D01*
X36105000Y-43919721D01*
X36022953Y-43507244D01*
X35862012Y-43118698D01*
X35628363Y-42769017D01*
X35330983Y-42471637D01*
X34981302Y-42237988D01*
X34592756Y-42077047D01*
X34180279Y-41995000D01*
X33759721Y-41995000D01*
X33347244Y-42077047D01*
X32958698Y-42237988D01*
X32609017Y-42471637D01*
X32311637Y-42769017D01*
X32077988Y-43118698D01*
X31917047Y-43507244D01*
X31835000Y-43919721D01*
X25945000Y-43919721D01*
X25862953Y-43507244D01*
X25702012Y-43118698D01*
X25468363Y-42769017D01*
X25170983Y-42471637D01*
X24821302Y-42237988D01*
X24432756Y-42077047D01*
X24020279Y-41995000D01*
X23599721Y-41995000D01*
X23187244Y-42077047D01*
X22798698Y-42237988D01*
X22449017Y-42471637D01*
X22151637Y-42769017D01*
X21917988Y-43118698D01*
X21757047Y-43507244D01*
X21675000Y-43919721D01*
X20660000Y-43919721D01*
X20660000Y-40363377D01*
X27756229Y-40363377D01*
X27882104Y-40653315D01*
X28214262Y-40819139D01*
X28572387Y-40916975D01*
X28942719Y-40943065D01*
X29311025Y-40896405D01*
X29663151Y-40778789D01*
X29897896Y-40653315D01*
X30023771Y-40363377D01*
X37916229Y-40363377D01*
X38042104Y-40653315D01*
X38374262Y-40819139D01*
X38732387Y-40916975D01*
X39102719Y-40943065D01*
X39471025Y-40896405D01*
X39823151Y-40778789D01*
X40057896Y-40653315D01*
X40183771Y-40363377D01*
X39050000Y-39229605D01*
X37916229Y-40363377D01*
X30023771Y-40363377D01*
X28890000Y-39229605D01*
X27756229Y-40363377D01*
X20660000Y-40363377D01*
X20660000Y-39102719D01*
X26996935Y-39102719D01*
X27043595Y-39471025D01*
X27161211Y-39823151D01*
X27286685Y-40057896D01*
X27576623Y-40183771D01*
X28710395Y-39050000D01*
X29069605Y-39050000D01*
X30203377Y-40183771D01*
X30493315Y-40057896D01*
X30659139Y-39725738D01*
X30756975Y-39367613D01*
X30775636Y-39102719D01*
X37156935Y-39102719D01*
X37203595Y-39471025D01*
X37321211Y-39823151D01*
X37446685Y-40057896D01*
X37736623Y-40183771D01*
X38870395Y-39050000D01*
X37736623Y-37916229D01*
X37446685Y-38042104D01*
X37280861Y-38374262D01*
X37183025Y-38732387D01*
X37156935Y-39102719D01*
X30775636Y-39102719D01*
X30783065Y-38997281D01*
X30736405Y-38628975D01*
X30618789Y-38276849D01*
X30493315Y-38042104D01*
X30203377Y-37916229D01*
X29069605Y-39050000D01*
X28710395Y-39050000D01*
X27576623Y-37916229D01*
X27286685Y-38042104D01*
X27120861Y-38374262D01*
X27023025Y-38732387D01*
X26996935Y-39102719D01*
X20660000Y-39102719D01*
X20660000Y-37383900D01*
X27999566Y-37383900D01*
X27882104Y-37446685D01*
X27756229Y-37736623D01*
X28890000Y-38870395D01*
X30023771Y-37736623D01*
X29897896Y-37446685D01*
X29772133Y-37383900D01*
X32437857Y-37383900D01*
X32437857Y-34363900D01*
X31611098Y-34363900D01*
X31787318Y-34290907D01*
X32001877Y-34147544D01*
X32166800Y-33982621D01*
X32331723Y-34147544D01*
X32546282Y-34290907D01*
X32784687Y-34389658D01*
X33037776Y-34440000D01*
X33295824Y-34440000D01*
X33548913Y-34389658D01*
X33787318Y-34290907D01*
X34001877Y-34147544D01*
X34166800Y-33982621D01*
X34331723Y-34147544D01*
X34546282Y-34290907D01*
X34784687Y-34389658D01*
X35037776Y-34440000D01*
X35295824Y-34440000D01*
X35548913Y-34389658D01*
X35787318Y-34290907D01*
X36001877Y-34147544D01*
X36166800Y-33982621D01*
X36331723Y-34147544D01*
X36546282Y-34290907D01*
X36784687Y-34389658D01*
X37037776Y-34440000D01*
X37295824Y-34440000D01*
X37548913Y-34389658D01*
X37787318Y-34290907D01*
X38001877Y-34147544D01*
X38156801Y-33992620D01*
X38156800Y-35688192D01*
X38151914Y-35737800D01*
X38171415Y-35935794D01*
X38197855Y-36022953D01*
X38229168Y-36126179D01*
X38322953Y-36301640D01*
X38449167Y-36455433D01*
X38487706Y-36487061D01*
X39169729Y-37169084D01*
X38997281Y-37156935D01*
X38628975Y-37203595D01*
X38276849Y-37321211D01*
X38042104Y-37446685D01*
X37916229Y-37736623D01*
X39050000Y-38870395D01*
X39064142Y-38856252D01*
X39243748Y-39035858D01*
X39229605Y-39050000D01*
X40363377Y-40183771D01*
X40653315Y-40057896D01*
X40819139Y-39725738D01*
X40916975Y-39367613D01*
X40943065Y-38997281D01*
X40935107Y-38934463D01*
X41084544Y-39083900D01*
X41116167Y-39122433D01*
X41269960Y-39248647D01*
X41445420Y-39342432D01*
X41635805Y-39400185D01*
X41833800Y-39419686D01*
X41883408Y-39414800D01*
X46508592Y-39414800D01*
X46558200Y-39419686D01*
X46756194Y-39400185D01*
X46863569Y-39367613D01*
X46946580Y-39342432D01*
X47122040Y-39248647D01*
X47275833Y-39122433D01*
X47307461Y-39083894D01*
X49878900Y-36512456D01*
X49917433Y-36480833D01*
X50043647Y-36327040D01*
X50137432Y-36151580D01*
X50195185Y-35961194D01*
X50209800Y-35812808D01*
X50214686Y-35763200D01*
X50209800Y-35713592D01*
X50209800Y-33759721D01*
X52155000Y-33759721D01*
X52155000Y-34180279D01*
X52237047Y-34592756D01*
X52397988Y-34981302D01*
X52631637Y-35330983D01*
X52929017Y-35628363D01*
X53278698Y-35862012D01*
X53667244Y-36022953D01*
X54079721Y-36105000D01*
X54500279Y-36105000D01*
X54912756Y-36022953D01*
X55301302Y-35862012D01*
X55650983Y-35628363D01*
X55948363Y-35330983D01*
X56182012Y-34981302D01*
X56342953Y-34592756D01*
X56425000Y-34180279D01*
X56425000Y-33759721D01*
X56342953Y-33347244D01*
X56182012Y-32958698D01*
X55948363Y-32609017D01*
X55650983Y-32311637D01*
X55301302Y-32077988D01*
X54912756Y-31917047D01*
X54500279Y-31835000D01*
X54079721Y-31835000D01*
X53667244Y-31917047D01*
X53278698Y-32077988D01*
X52929017Y-32311637D01*
X52631637Y-32609017D01*
X52397988Y-32958698D01*
X52237047Y-33347244D01*
X52155000Y-33759721D01*
X50209800Y-33759721D01*
X50209800Y-31579411D01*
X54984300Y-26804912D01*
X55022833Y-26773289D01*
X55149047Y-26619496D01*
X55242832Y-26444036D01*
X55255449Y-26402445D01*
X55300585Y-26253651D01*
X55320086Y-26055656D01*
X55315200Y-26006048D01*
X55315200Y-25890676D01*
X55474944Y-25783938D01*
X55730538Y-25528344D01*
X55931356Y-25227799D01*
X56069682Y-24893850D01*
X56140200Y-24539332D01*
X56140200Y-24177868D01*
X56069682Y-23823350D01*
X55931356Y-23489401D01*
X55730538Y-23188856D01*
X55474944Y-22933262D01*
X55174399Y-22732444D01*
X54840450Y-22594118D01*
X54485932Y-22523600D01*
X54124468Y-22523600D01*
X53769950Y-22594118D01*
X53436001Y-22732444D01*
X53135456Y-22933262D01*
X52879862Y-23188856D01*
X52679044Y-23489401D01*
X52555200Y-23788387D01*
X52431356Y-23489401D01*
X52230538Y-23188856D01*
X51974944Y-22933262D01*
X51674399Y-22732444D01*
X51340450Y-22594118D01*
X50985932Y-22523600D01*
X50624468Y-22523600D01*
X50269950Y-22594118D01*
X49936001Y-22732444D01*
X49635456Y-22933262D01*
X49379862Y-23188856D01*
X49179044Y-23489401D01*
X49055200Y-23788387D01*
X48931356Y-23489401D01*
X48730538Y-23188856D01*
X48474944Y-22933262D01*
X48174399Y-22732444D01*
X47840450Y-22594118D01*
X47485932Y-22523600D01*
X47124468Y-22523600D01*
X46769950Y-22594118D01*
X46436001Y-22732444D01*
X46135456Y-22933262D01*
X45879862Y-23188856D01*
X45679044Y-23489401D01*
X45555200Y-23788387D01*
X45431356Y-23489401D01*
X45230538Y-23188856D01*
X44974944Y-22933262D01*
X44674399Y-22732444D01*
X44340450Y-22594118D01*
X43985932Y-22523600D01*
X43624468Y-22523600D01*
X43269950Y-22594118D01*
X42936001Y-22732444D01*
X42635456Y-22933262D01*
X42379862Y-23188856D01*
X42179044Y-23489401D01*
X42055200Y-23788387D01*
X41931356Y-23489401D01*
X41730538Y-23188856D01*
X41474944Y-22933262D01*
X41174399Y-22732444D01*
X40840450Y-22594118D01*
X40485932Y-22523600D01*
X40124468Y-22523600D01*
X39769950Y-22594118D01*
X39436001Y-22732444D01*
X39135456Y-22933262D01*
X38879862Y-23188856D01*
X38679044Y-23489401D01*
X38555200Y-23788387D01*
X38431356Y-23489401D01*
X38230538Y-23188856D01*
X37974944Y-22933262D01*
X37674399Y-22732444D01*
X37340450Y-22594118D01*
X36985932Y-22523600D01*
X36624468Y-22523600D01*
X36269950Y-22594118D01*
X35936001Y-22732444D01*
X35635456Y-22933262D01*
X35379862Y-23188856D01*
X35179044Y-23489401D01*
X35055200Y-23788387D01*
X34931356Y-23489401D01*
X34730538Y-23188856D01*
X34474944Y-22933262D01*
X34174399Y-22732444D01*
X33840450Y-22594118D01*
X33485932Y-22523600D01*
X33124468Y-22523600D01*
X32769950Y-22594118D01*
X32436001Y-22732444D01*
X32135456Y-22933262D01*
X31879862Y-23188856D01*
X31679044Y-23489401D01*
X31555200Y-23788387D01*
X31431356Y-23489401D01*
X31230538Y-23188856D01*
X30974944Y-22933262D01*
X30674399Y-22732444D01*
X30340450Y-22594118D01*
X29985932Y-22523600D01*
X29624468Y-22523600D01*
X29269950Y-22594118D01*
X28936001Y-22732444D01*
X28635456Y-22933262D01*
X28379862Y-23188856D01*
X28179044Y-23489401D01*
X28055200Y-23788387D01*
X27931356Y-23489401D01*
X27730538Y-23188856D01*
X27474944Y-22933262D01*
X27174399Y-22732444D01*
X26840450Y-22594118D01*
X26485932Y-22523600D01*
X26124468Y-22523600D01*
X25769950Y-22594118D01*
X25436001Y-22732444D01*
X25135456Y-22933262D01*
X24879862Y-23188856D01*
X24679044Y-23489401D01*
X24555200Y-23788387D01*
X24431356Y-23489401D01*
X24230538Y-23188856D01*
X23974944Y-22933262D01*
X23674399Y-22732444D01*
X23340450Y-22594118D01*
X22985932Y-22523600D01*
X22624468Y-22523600D01*
X22269950Y-22594118D01*
X21936001Y-22732444D01*
X21635456Y-22933262D01*
X21379862Y-23188856D01*
X21179044Y-23489401D01*
X21040718Y-23823350D01*
X20970200Y-24177868D01*
X20970200Y-24539332D01*
X21007681Y-24727763D01*
X20693678Y-25041767D01*
X20725448Y-20827654D01*
X57429400Y-20726750D01*
X57429400Y-67600000D01*
M02*
