M48
; DRILL file {KiCad 5.1.5-52549c5~86~ubuntu18.04.1} date mar 08 sep 2020 17:49:50 -05
; FORMAT={-:-/ absolute / metric / decimal}
; #@! TF.CreationDate,2020-09-08T17:49:50-05:00
; #@! TF.GenerationSoftware,Kicad,Pcbnew,5.1.5-52549c5~86~ubuntu18.04.1
; #@! TF.FileFunction,NonPlated,1,2,NPTH
FMAT,2
METRIC
T1C3.000
%
G90
G05
T1
X174.941Y-127.569
X127.391Y-137.729
X164.781Y-137.729
X185.101Y-127.569
X185.101Y-99.629
X137.551Y-127.569
X147.711Y-147.889
X147.711Y-79.309
X174.941Y-137.729
X137.551Y-147.889
X147.711Y-127.569
X137.551Y-79.309
X174.941Y-147.889
X147.711Y-89.469
X164.781Y-89.469
X185.101Y-89.469
X185.101Y-147.889
X174.941Y-99.629
X174.941Y-89.469
X137.551Y-89.469
X127.391Y-89.469
X147.711Y-137.729
X137.551Y-99.629
X185.101Y-79.309
X147.711Y-99.629
X137.551Y-137.729
X174.941Y-79.309
X185.101Y-137.729
T0
M30
