G04 #@! TF.GenerationSoftware,KiCad,Pcbnew,5.1.5-52549c5~86~ubuntu18.04.1*
G04 #@! TF.CreationDate,2020-09-08T17:42:28-05:00*
G04 #@! TF.ProjectId,C02,4330322e-6b69-4636-9164-5f7063625858,rev?*
G04 #@! TF.SameCoordinates,Original*
G04 #@! TF.FileFunction,Copper,L1,Top*
G04 #@! TF.FilePolarity,Positive*
%FSLAX46Y46*%
G04 Gerber Fmt 4.6, Leading zero omitted, Abs format (unit mm)*
G04 Created by KiCad (PCBNEW 5.1.5-52549c5~86~ubuntu18.04.1) date 2020-09-08 17:42:28*
%MOMM*%
%LPD*%
G04 APERTURE LIST*
%ADD10C,0.250000*%
%ADD11C,0.010000*%
%ADD12O,1.700000X1.700000*%
%ADD13C,1.700000*%
%ADD14C,2.400000*%
%ADD15C,2.499360*%
%ADD16C,0.750000*%
%ADD17C,0.254000*%
G04 APERTURE END LIST*
D10*
X21227066Y-52579542D02*
X21179447Y-52627161D01*
X21036590Y-52674780D01*
X20941352Y-52674780D01*
X20798495Y-52627161D01*
X20703257Y-52531923D01*
X20655638Y-52436685D01*
X20608019Y-52246209D01*
X20608019Y-52103352D01*
X20655638Y-51912876D01*
X20703257Y-51817638D01*
X20798495Y-51722400D01*
X20941352Y-51674780D01*
X21036590Y-51674780D01*
X21179447Y-51722400D01*
X21227066Y-51770019D01*
X21846114Y-51674780D02*
X21941352Y-51674780D01*
X22036590Y-51722400D01*
X22084209Y-51770019D01*
X22131828Y-51865257D01*
X22179447Y-52055733D01*
X22179447Y-52293828D01*
X22131828Y-52484304D01*
X22084209Y-52579542D01*
X22036590Y-52627161D01*
X21941352Y-52674780D01*
X21846114Y-52674780D01*
X21750876Y-52627161D01*
X21703257Y-52579542D01*
X21655638Y-52484304D01*
X21608019Y-52293828D01*
X21608019Y-52055733D01*
X21655638Y-51865257D01*
X21703257Y-51770019D01*
X21750876Y-51722400D01*
X21846114Y-51674780D01*
X22560400Y-51770019D02*
X22608019Y-51722400D01*
X22703257Y-51674780D01*
X22941352Y-51674780D01*
X23036590Y-51722400D01*
X23084209Y-51770019D01*
X23131828Y-51865257D01*
X23131828Y-51960495D01*
X23084209Y-52103352D01*
X22512780Y-52674780D01*
X23131828Y-52674780D01*
X23322304Y-52770019D02*
X24084209Y-52770019D01*
X24655638Y-52150971D02*
X24798495Y-52198590D01*
X24846114Y-52246209D01*
X24893733Y-52341447D01*
X24893733Y-52484304D01*
X24846114Y-52579542D01*
X24798495Y-52627161D01*
X24703257Y-52674780D01*
X24322304Y-52674780D01*
X24322304Y-51674780D01*
X24655638Y-51674780D01*
X24750876Y-51722400D01*
X24798495Y-51770019D01*
X24846114Y-51865257D01*
X24846114Y-51960495D01*
X24798495Y-52055733D01*
X24750876Y-52103352D01*
X24655638Y-52150971D01*
X24322304Y-52150971D01*
X25893733Y-52674780D02*
X25560400Y-52198590D01*
X25322304Y-52674780D02*
X25322304Y-51674780D01*
X25703257Y-51674780D01*
X25798495Y-51722400D01*
X25846114Y-51770019D01*
X25893733Y-51865257D01*
X25893733Y-52008114D01*
X25846114Y-52103352D01*
X25798495Y-52150971D01*
X25703257Y-52198590D01*
X25322304Y-52198590D01*
X26322304Y-52150971D02*
X26655638Y-52150971D01*
X26798495Y-52674780D02*
X26322304Y-52674780D01*
X26322304Y-51674780D01*
X26798495Y-51674780D01*
X27179447Y-52389066D02*
X27655638Y-52389066D01*
X27084209Y-52674780D02*
X27417542Y-51674780D01*
X27750876Y-52674780D01*
X28084209Y-52674780D02*
X28084209Y-51674780D01*
X28655638Y-52674780D02*
X28227066Y-52103352D01*
X28655638Y-51674780D02*
X28084209Y-52246209D01*
X29274685Y-51674780D02*
X29465161Y-51674780D01*
X29560400Y-51722400D01*
X29655638Y-51817638D01*
X29703257Y-52008114D01*
X29703257Y-52341447D01*
X29655638Y-52531923D01*
X29560400Y-52627161D01*
X29465161Y-52674780D01*
X29274685Y-52674780D01*
X29179447Y-52627161D01*
X29084209Y-52531923D01*
X29036590Y-52341447D01*
X29036590Y-52008114D01*
X29084209Y-51817638D01*
X29179447Y-51722400D01*
X29274685Y-51674780D01*
X30131828Y-51674780D02*
X30131828Y-52484304D01*
X30179447Y-52579542D01*
X30227066Y-52627161D01*
X30322304Y-52674780D01*
X30512780Y-52674780D01*
X30608019Y-52627161D01*
X30655638Y-52579542D01*
X30703257Y-52484304D01*
X30703257Y-51674780D01*
X31036590Y-51674780D02*
X31608019Y-51674780D01*
X31322304Y-52674780D02*
X31322304Y-51674780D01*
D11*
G36*
X24076214Y-35391131D02*
G01*
X24160035Y-35835755D01*
X24469320Y-35963253D01*
X24778606Y-36090751D01*
X25149646Y-35838446D01*
X25253557Y-35768196D01*
X25347487Y-35705472D01*
X25427052Y-35653138D01*
X25487870Y-35614057D01*
X25525557Y-35591093D01*
X25535821Y-35586142D01*
X25554310Y-35598876D01*
X25593820Y-35634082D01*
X25649922Y-35687262D01*
X25718187Y-35753918D01*
X25794186Y-35829554D01*
X25873492Y-35909672D01*
X25951675Y-35989774D01*
X26024307Y-36065364D01*
X26086959Y-36131945D01*
X26135203Y-36185018D01*
X26164610Y-36220087D01*
X26171641Y-36231823D01*
X26161523Y-36253460D01*
X26133159Y-36300862D01*
X26089529Y-36369393D01*
X26033618Y-36454415D01*
X25968406Y-36551293D01*
X25930619Y-36606550D01*
X25861743Y-36707448D01*
X25800540Y-36798499D01*
X25749978Y-36875170D01*
X25713028Y-36932928D01*
X25692658Y-36967243D01*
X25689597Y-36974454D01*
X25696536Y-36994948D01*
X25715451Y-37042713D01*
X25743487Y-37111032D01*
X25777791Y-37193189D01*
X25815509Y-37282470D01*
X25853787Y-37372158D01*
X25889770Y-37455538D01*
X25920606Y-37525894D01*
X25943439Y-37576510D01*
X25955417Y-37600671D01*
X25956124Y-37601622D01*
X25974931Y-37606236D01*
X26025018Y-37616528D01*
X26101193Y-37631487D01*
X26198265Y-37650101D01*
X26311043Y-37671359D01*
X26376842Y-37683618D01*
X26497350Y-37706562D01*
X26606197Y-37728395D01*
X26697876Y-37747922D01*
X26766881Y-37763948D01*
X26807704Y-37775279D01*
X26815911Y-37778874D01*
X26823948Y-37803206D01*
X26830433Y-37858159D01*
X26835370Y-37937308D01*
X26838764Y-38034226D01*
X26840618Y-38142487D01*
X26840938Y-38255665D01*
X26839727Y-38367335D01*
X26836990Y-38471068D01*
X26832731Y-38560441D01*
X26826955Y-38629026D01*
X26819667Y-38670397D01*
X26815295Y-38679010D01*
X26789164Y-38689333D01*
X26733793Y-38704092D01*
X26656507Y-38721552D01*
X26564630Y-38739980D01*
X26532558Y-38745941D01*
X26377924Y-38774266D01*
X26255775Y-38797076D01*
X26162073Y-38815280D01*
X26092784Y-38829783D01*
X26043871Y-38841492D01*
X26011297Y-38851315D01*
X25991028Y-38860156D01*
X25979026Y-38868924D01*
X25977347Y-38870657D01*
X25960584Y-38898571D01*
X25935014Y-38952895D01*
X25903188Y-39026977D01*
X25867660Y-39114165D01*
X25830983Y-39207808D01*
X25795711Y-39301252D01*
X25764396Y-39387847D01*
X25739593Y-39460940D01*
X25723854Y-39513878D01*
X25719732Y-39540011D01*
X25720076Y-39540926D01*
X25734041Y-39562286D01*
X25765722Y-39609284D01*
X25811791Y-39677027D01*
X25868918Y-39760623D01*
X25933773Y-39855182D01*
X25952243Y-39882054D01*
X26018099Y-39979475D01*
X26076050Y-40068363D01*
X26122938Y-40143612D01*
X26155607Y-40200120D01*
X26170900Y-40232781D01*
X26171641Y-40236793D01*
X26158792Y-40257884D01*
X26123288Y-40299664D01*
X26069693Y-40357645D01*
X26002571Y-40427335D01*
X25926487Y-40504245D01*
X25846004Y-40583883D01*
X25765687Y-40661761D01*
X25690099Y-40733386D01*
X25623805Y-40794270D01*
X25571369Y-40839921D01*
X25537355Y-40865850D01*
X25527945Y-40870083D01*
X25506043Y-40860112D01*
X25461200Y-40833220D01*
X25400721Y-40793936D01*
X25354189Y-40762317D01*
X25269875Y-40704298D01*
X25170026Y-40635984D01*
X25069873Y-40567779D01*
X25016027Y-40531275D01*
X24833771Y-40408000D01*
X24680781Y-40490720D01*
X24611082Y-40526959D01*
X24551814Y-40555126D01*
X24511711Y-40571191D01*
X24501503Y-40573426D01*
X24489229Y-40556922D01*
X24465013Y-40510282D01*
X24430663Y-40437809D01*
X24387988Y-40343806D01*
X24338794Y-40232574D01*
X24284890Y-40108415D01*
X24228084Y-39975632D01*
X24170182Y-39838527D01*
X24112993Y-39701402D01*
X24058324Y-39568558D01*
X24007984Y-39444298D01*
X23963780Y-39332925D01*
X23927519Y-39238739D01*
X23901009Y-39166044D01*
X23886058Y-39119141D01*
X23883654Y-39103033D01*
X23902711Y-39082486D01*
X23944436Y-39049133D01*
X24000106Y-39009902D01*
X24004778Y-39006799D01*
X24148664Y-38891623D01*
X24264683Y-38757253D01*
X24351830Y-38607984D01*
X24409099Y-38448113D01*
X24435486Y-38281937D01*
X24429985Y-38113752D01*
X24391590Y-37947855D01*
X24319295Y-37788542D01*
X24298026Y-37753687D01*
X24187396Y-37612937D01*
X24056702Y-37499914D01*
X23910464Y-37415203D01*
X23753208Y-37359394D01*
X23589457Y-37333074D01*
X23423733Y-37336830D01*
X23260562Y-37371250D01*
X23104465Y-37436923D01*
X22959967Y-37534435D01*
X22915269Y-37574013D01*
X22801512Y-37697903D01*
X22718618Y-37828324D01*
X22661756Y-37974515D01*
X22630087Y-38119288D01*
X22622269Y-38282060D01*
X22648338Y-38445640D01*
X22705645Y-38604498D01*
X22791544Y-38753106D01*
X22903386Y-38885935D01*
X23038523Y-38997456D01*
X23056283Y-39009211D01*
X23112550Y-39047708D01*
X23155323Y-39081063D01*
X23175772Y-39102360D01*
X23176069Y-39103033D01*
X23171679Y-39126071D01*
X23154276Y-39178357D01*
X23125668Y-39255590D01*
X23087665Y-39353468D01*
X23042074Y-39467691D01*
X22990703Y-39593958D01*
X22935362Y-39727967D01*
X22877858Y-39865418D01*
X22820001Y-40002008D01*
X22763598Y-40133437D01*
X22710458Y-40255405D01*
X22662390Y-40363609D01*
X22621201Y-40453749D01*
X22588701Y-40521523D01*
X22566697Y-40562630D01*
X22557836Y-40573426D01*
X22530760Y-40565019D01*
X22480097Y-40542472D01*
X22414583Y-40509813D01*
X22378559Y-40490720D01*
X22225568Y-40408000D01*
X22043312Y-40531275D01*
X21950275Y-40594428D01*
X21848415Y-40663927D01*
X21752962Y-40729365D01*
X21705150Y-40762317D01*
X21637905Y-40807473D01*
X21580964Y-40843257D01*
X21541754Y-40865138D01*
X21529019Y-40869763D01*
X21510483Y-40857285D01*
X21469459Y-40822452D01*
X21409925Y-40768878D01*
X21335858Y-40700183D01*
X21251235Y-40619981D01*
X21197715Y-40568486D01*
X21104081Y-40476486D01*
X21023159Y-40394199D01*
X20958223Y-40325145D01*
X20912542Y-40272844D01*
X20889389Y-40240816D01*
X20887168Y-40234316D01*
X20897476Y-40209594D01*
X20925961Y-40159605D01*
X20969463Y-40089412D01*
X21024823Y-40004075D01*
X21088880Y-39908656D01*
X21107097Y-39882054D01*
X21173473Y-39785367D01*
X21233022Y-39698317D01*
X21282416Y-39625795D01*
X21318325Y-39572693D01*
X21337419Y-39543903D01*
X21339264Y-39540926D01*
X21336505Y-39517982D01*
X21321862Y-39467536D01*
X21297887Y-39396241D01*
X21267134Y-39310747D01*
X21232156Y-39217707D01*
X21195507Y-39123774D01*
X21159739Y-39035599D01*
X21127406Y-38959834D01*
X21101062Y-38903131D01*
X21083258Y-38872143D01*
X21081993Y-38870657D01*
X21071106Y-38861801D01*
X21052718Y-38853043D01*
X21022794Y-38843477D01*
X20977297Y-38832196D01*
X20912191Y-38818293D01*
X20823439Y-38800863D01*
X20707007Y-38778998D01*
X20558858Y-38751791D01*
X20526782Y-38745941D01*
X20431714Y-38727574D01*
X20348835Y-38709605D01*
X20285470Y-38693769D01*
X20248942Y-38681800D01*
X20244044Y-38679010D01*
X20235973Y-38654272D01*
X20229413Y-38598990D01*
X20224367Y-38519589D01*
X20220841Y-38422496D01*
X20218839Y-38314138D01*
X20218364Y-38200940D01*
X20219423Y-38089328D01*
X20222018Y-37985729D01*
X20226154Y-37896568D01*
X20231837Y-37828272D01*
X20239069Y-37787266D01*
X20243429Y-37778874D01*
X20267702Y-37770408D01*
X20322974Y-37756635D01*
X20403738Y-37738750D01*
X20504488Y-37717948D01*
X20619717Y-37695423D01*
X20682498Y-37683618D01*
X20801613Y-37661351D01*
X20907835Y-37641179D01*
X20995973Y-37624115D01*
X21060834Y-37611169D01*
X21097226Y-37603355D01*
X21103216Y-37601622D01*
X21113339Y-37582090D01*
X21134738Y-37535043D01*
X21164561Y-37467203D01*
X21199955Y-37385291D01*
X21238068Y-37296028D01*
X21276047Y-37206135D01*
X21311040Y-37122335D01*
X21340194Y-37051347D01*
X21360657Y-36999894D01*
X21369577Y-36974697D01*
X21369743Y-36973596D01*
X21359631Y-36953719D01*
X21331283Y-36907977D01*
X21287677Y-36840917D01*
X21231794Y-36757084D01*
X21166613Y-36661026D01*
X21128721Y-36605850D01*
X21059675Y-36504681D01*
X20998350Y-36412830D01*
X20947737Y-36334944D01*
X20910829Y-36275669D01*
X20890618Y-36239651D01*
X20887699Y-36231577D01*
X20900247Y-36212784D01*
X20934937Y-36172657D01*
X20987337Y-36115693D01*
X21053016Y-36046385D01*
X21127544Y-35969231D01*
X21206487Y-35888725D01*
X21285417Y-35809363D01*
X21359900Y-35735640D01*
X21425506Y-35672052D01*
X21477804Y-35623094D01*
X21512361Y-35593261D01*
X21523922Y-35586142D01*
X21542746Y-35596153D01*
X21587769Y-35624278D01*
X21654613Y-35667654D01*
X21738901Y-35723418D01*
X21836256Y-35788706D01*
X21909693Y-35838446D01*
X22280733Y-36090751D01*
X22899305Y-35835755D01*
X22983125Y-35391131D01*
X23066946Y-34946507D01*
X23992394Y-34946507D01*
X24076214Y-35391131D01*
G37*
X24076214Y-35391131D02*
X24160035Y-35835755D01*
X24469320Y-35963253D01*
X24778606Y-36090751D01*
X25149646Y-35838446D01*
X25253557Y-35768196D01*
X25347487Y-35705472D01*
X25427052Y-35653138D01*
X25487870Y-35614057D01*
X25525557Y-35591093D01*
X25535821Y-35586142D01*
X25554310Y-35598876D01*
X25593820Y-35634082D01*
X25649922Y-35687262D01*
X25718187Y-35753918D01*
X25794186Y-35829554D01*
X25873492Y-35909672D01*
X25951675Y-35989774D01*
X26024307Y-36065364D01*
X26086959Y-36131945D01*
X26135203Y-36185018D01*
X26164610Y-36220087D01*
X26171641Y-36231823D01*
X26161523Y-36253460D01*
X26133159Y-36300862D01*
X26089529Y-36369393D01*
X26033618Y-36454415D01*
X25968406Y-36551293D01*
X25930619Y-36606550D01*
X25861743Y-36707448D01*
X25800540Y-36798499D01*
X25749978Y-36875170D01*
X25713028Y-36932928D01*
X25692658Y-36967243D01*
X25689597Y-36974454D01*
X25696536Y-36994948D01*
X25715451Y-37042713D01*
X25743487Y-37111032D01*
X25777791Y-37193189D01*
X25815509Y-37282470D01*
X25853787Y-37372158D01*
X25889770Y-37455538D01*
X25920606Y-37525894D01*
X25943439Y-37576510D01*
X25955417Y-37600671D01*
X25956124Y-37601622D01*
X25974931Y-37606236D01*
X26025018Y-37616528D01*
X26101193Y-37631487D01*
X26198265Y-37650101D01*
X26311043Y-37671359D01*
X26376842Y-37683618D01*
X26497350Y-37706562D01*
X26606197Y-37728395D01*
X26697876Y-37747922D01*
X26766881Y-37763948D01*
X26807704Y-37775279D01*
X26815911Y-37778874D01*
X26823948Y-37803206D01*
X26830433Y-37858159D01*
X26835370Y-37937308D01*
X26838764Y-38034226D01*
X26840618Y-38142487D01*
X26840938Y-38255665D01*
X26839727Y-38367335D01*
X26836990Y-38471068D01*
X26832731Y-38560441D01*
X26826955Y-38629026D01*
X26819667Y-38670397D01*
X26815295Y-38679010D01*
X26789164Y-38689333D01*
X26733793Y-38704092D01*
X26656507Y-38721552D01*
X26564630Y-38739980D01*
X26532558Y-38745941D01*
X26377924Y-38774266D01*
X26255775Y-38797076D01*
X26162073Y-38815280D01*
X26092784Y-38829783D01*
X26043871Y-38841492D01*
X26011297Y-38851315D01*
X25991028Y-38860156D01*
X25979026Y-38868924D01*
X25977347Y-38870657D01*
X25960584Y-38898571D01*
X25935014Y-38952895D01*
X25903188Y-39026977D01*
X25867660Y-39114165D01*
X25830983Y-39207808D01*
X25795711Y-39301252D01*
X25764396Y-39387847D01*
X25739593Y-39460940D01*
X25723854Y-39513878D01*
X25719732Y-39540011D01*
X25720076Y-39540926D01*
X25734041Y-39562286D01*
X25765722Y-39609284D01*
X25811791Y-39677027D01*
X25868918Y-39760623D01*
X25933773Y-39855182D01*
X25952243Y-39882054D01*
X26018099Y-39979475D01*
X26076050Y-40068363D01*
X26122938Y-40143612D01*
X26155607Y-40200120D01*
X26170900Y-40232781D01*
X26171641Y-40236793D01*
X26158792Y-40257884D01*
X26123288Y-40299664D01*
X26069693Y-40357645D01*
X26002571Y-40427335D01*
X25926487Y-40504245D01*
X25846004Y-40583883D01*
X25765687Y-40661761D01*
X25690099Y-40733386D01*
X25623805Y-40794270D01*
X25571369Y-40839921D01*
X25537355Y-40865850D01*
X25527945Y-40870083D01*
X25506043Y-40860112D01*
X25461200Y-40833220D01*
X25400721Y-40793936D01*
X25354189Y-40762317D01*
X25269875Y-40704298D01*
X25170026Y-40635984D01*
X25069873Y-40567779D01*
X25016027Y-40531275D01*
X24833771Y-40408000D01*
X24680781Y-40490720D01*
X24611082Y-40526959D01*
X24551814Y-40555126D01*
X24511711Y-40571191D01*
X24501503Y-40573426D01*
X24489229Y-40556922D01*
X24465013Y-40510282D01*
X24430663Y-40437809D01*
X24387988Y-40343806D01*
X24338794Y-40232574D01*
X24284890Y-40108415D01*
X24228084Y-39975632D01*
X24170182Y-39838527D01*
X24112993Y-39701402D01*
X24058324Y-39568558D01*
X24007984Y-39444298D01*
X23963780Y-39332925D01*
X23927519Y-39238739D01*
X23901009Y-39166044D01*
X23886058Y-39119141D01*
X23883654Y-39103033D01*
X23902711Y-39082486D01*
X23944436Y-39049133D01*
X24000106Y-39009902D01*
X24004778Y-39006799D01*
X24148664Y-38891623D01*
X24264683Y-38757253D01*
X24351830Y-38607984D01*
X24409099Y-38448113D01*
X24435486Y-38281937D01*
X24429985Y-38113752D01*
X24391590Y-37947855D01*
X24319295Y-37788542D01*
X24298026Y-37753687D01*
X24187396Y-37612937D01*
X24056702Y-37499914D01*
X23910464Y-37415203D01*
X23753208Y-37359394D01*
X23589457Y-37333074D01*
X23423733Y-37336830D01*
X23260562Y-37371250D01*
X23104465Y-37436923D01*
X22959967Y-37534435D01*
X22915269Y-37574013D01*
X22801512Y-37697903D01*
X22718618Y-37828324D01*
X22661756Y-37974515D01*
X22630087Y-38119288D01*
X22622269Y-38282060D01*
X22648338Y-38445640D01*
X22705645Y-38604498D01*
X22791544Y-38753106D01*
X22903386Y-38885935D01*
X23038523Y-38997456D01*
X23056283Y-39009211D01*
X23112550Y-39047708D01*
X23155323Y-39081063D01*
X23175772Y-39102360D01*
X23176069Y-39103033D01*
X23171679Y-39126071D01*
X23154276Y-39178357D01*
X23125668Y-39255590D01*
X23087665Y-39353468D01*
X23042074Y-39467691D01*
X22990703Y-39593958D01*
X22935362Y-39727967D01*
X22877858Y-39865418D01*
X22820001Y-40002008D01*
X22763598Y-40133437D01*
X22710458Y-40255405D01*
X22662390Y-40363609D01*
X22621201Y-40453749D01*
X22588701Y-40521523D01*
X22566697Y-40562630D01*
X22557836Y-40573426D01*
X22530760Y-40565019D01*
X22480097Y-40542472D01*
X22414583Y-40509813D01*
X22378559Y-40490720D01*
X22225568Y-40408000D01*
X22043312Y-40531275D01*
X21950275Y-40594428D01*
X21848415Y-40663927D01*
X21752962Y-40729365D01*
X21705150Y-40762317D01*
X21637905Y-40807473D01*
X21580964Y-40843257D01*
X21541754Y-40865138D01*
X21529019Y-40869763D01*
X21510483Y-40857285D01*
X21469459Y-40822452D01*
X21409925Y-40768878D01*
X21335858Y-40700183D01*
X21251235Y-40619981D01*
X21197715Y-40568486D01*
X21104081Y-40476486D01*
X21023159Y-40394199D01*
X20958223Y-40325145D01*
X20912542Y-40272844D01*
X20889389Y-40240816D01*
X20887168Y-40234316D01*
X20897476Y-40209594D01*
X20925961Y-40159605D01*
X20969463Y-40089412D01*
X21024823Y-40004075D01*
X21088880Y-39908656D01*
X21107097Y-39882054D01*
X21173473Y-39785367D01*
X21233022Y-39698317D01*
X21282416Y-39625795D01*
X21318325Y-39572693D01*
X21337419Y-39543903D01*
X21339264Y-39540926D01*
X21336505Y-39517982D01*
X21321862Y-39467536D01*
X21297887Y-39396241D01*
X21267134Y-39310747D01*
X21232156Y-39217707D01*
X21195507Y-39123774D01*
X21159739Y-39035599D01*
X21127406Y-38959834D01*
X21101062Y-38903131D01*
X21083258Y-38872143D01*
X21081993Y-38870657D01*
X21071106Y-38861801D01*
X21052718Y-38853043D01*
X21022794Y-38843477D01*
X20977297Y-38832196D01*
X20912191Y-38818293D01*
X20823439Y-38800863D01*
X20707007Y-38778998D01*
X20558858Y-38751791D01*
X20526782Y-38745941D01*
X20431714Y-38727574D01*
X20348835Y-38709605D01*
X20285470Y-38693769D01*
X20248942Y-38681800D01*
X20244044Y-38679010D01*
X20235973Y-38654272D01*
X20229413Y-38598990D01*
X20224367Y-38519589D01*
X20220841Y-38422496D01*
X20218839Y-38314138D01*
X20218364Y-38200940D01*
X20219423Y-38089328D01*
X20222018Y-37985729D01*
X20226154Y-37896568D01*
X20231837Y-37828272D01*
X20239069Y-37787266D01*
X20243429Y-37778874D01*
X20267702Y-37770408D01*
X20322974Y-37756635D01*
X20403738Y-37738750D01*
X20504488Y-37717948D01*
X20619717Y-37695423D01*
X20682498Y-37683618D01*
X20801613Y-37661351D01*
X20907835Y-37641179D01*
X20995973Y-37624115D01*
X21060834Y-37611169D01*
X21097226Y-37603355D01*
X21103216Y-37601622D01*
X21113339Y-37582090D01*
X21134738Y-37535043D01*
X21164561Y-37467203D01*
X21199955Y-37385291D01*
X21238068Y-37296028D01*
X21276047Y-37206135D01*
X21311040Y-37122335D01*
X21340194Y-37051347D01*
X21360657Y-36999894D01*
X21369577Y-36974697D01*
X21369743Y-36973596D01*
X21359631Y-36953719D01*
X21331283Y-36907977D01*
X21287677Y-36840917D01*
X21231794Y-36757084D01*
X21166613Y-36661026D01*
X21128721Y-36605850D01*
X21059675Y-36504681D01*
X20998350Y-36412830D01*
X20947737Y-36334944D01*
X20910829Y-36275669D01*
X20890618Y-36239651D01*
X20887699Y-36231577D01*
X20900247Y-36212784D01*
X20934937Y-36172657D01*
X20987337Y-36115693D01*
X21053016Y-36046385D01*
X21127544Y-35969231D01*
X21206487Y-35888725D01*
X21285417Y-35809363D01*
X21359900Y-35735640D01*
X21425506Y-35672052D01*
X21477804Y-35623094D01*
X21512361Y-35593261D01*
X21523922Y-35586142D01*
X21542746Y-35596153D01*
X21587769Y-35624278D01*
X21654613Y-35667654D01*
X21738901Y-35723418D01*
X21836256Y-35788706D01*
X21909693Y-35838446D01*
X22280733Y-36090751D01*
X22899305Y-35835755D01*
X22983125Y-35391131D01*
X23066946Y-34946507D01*
X23992394Y-34946507D01*
X24076214Y-35391131D01*
D12*
X21437600Y-45830000D03*
D13*
X21437600Y-43290000D03*
D12*
X39217600Y-55130000D03*
X36677600Y-55130000D03*
X34137600Y-55130000D03*
X31597600Y-55130000D03*
X29057600Y-55130000D03*
X26517600Y-55130000D03*
X23977600Y-55130000D03*
D13*
X21437600Y-55130000D03*
D12*
X21437600Y-33130000D03*
X23977600Y-33130000D03*
X26517600Y-33130000D03*
X29057600Y-33130000D03*
X31597600Y-33130000D03*
X34137600Y-33130000D03*
X36677600Y-33130000D03*
D13*
X39217600Y-33130000D03*
D14*
X54305200Y-63901400D03*
X50805200Y-63901400D03*
X47305200Y-63901400D03*
X43805200Y-63901400D03*
X40305200Y-63901400D03*
X36805200Y-63901400D03*
X33305200Y-63901400D03*
X29805200Y-63901400D03*
X26305200Y-63901400D03*
X22805200Y-63901400D03*
X22805200Y-24358600D03*
X26305200Y-24358600D03*
X29805200Y-24358600D03*
X33305200Y-24358600D03*
X36805200Y-24358600D03*
X40305200Y-24358600D03*
X43805200Y-24358600D03*
X47305200Y-24358600D03*
X50805200Y-24358600D03*
X54305200Y-24358600D03*
D15*
X39050000Y-49210000D03*
X39050000Y-39050000D03*
X28890000Y-49210000D03*
X28890000Y-39050000D03*
D16*
X21437600Y-25726200D02*
X22805200Y-24358600D01*
X21437600Y-33130000D02*
X21437600Y-25726200D01*
X23977600Y-26686200D02*
X26305200Y-24358600D01*
X23977600Y-33130000D02*
X23977600Y-26686200D01*
X26517600Y-27646200D02*
X29805200Y-24358600D01*
X26517600Y-33130000D02*
X26517600Y-27646200D01*
X29057600Y-28606200D02*
X33305200Y-24358600D01*
X29057600Y-33130000D02*
X29057600Y-28606200D01*
X31597600Y-29566200D02*
X31597600Y-33130000D01*
X36805200Y-24358600D02*
X31597600Y-29566200D01*
X34137600Y-30526200D02*
X34137600Y-33130000D01*
X40305200Y-24358600D02*
X34137600Y-30526200D01*
X36677600Y-31486200D02*
X36677600Y-33130000D01*
X43805200Y-24358600D02*
X36677600Y-31486200D01*
X39217600Y-32446200D02*
X39217600Y-33130000D01*
X47305200Y-24358600D02*
X39217600Y-32446200D01*
X48818800Y-26345000D02*
X50805200Y-24358600D01*
X45821600Y-38455600D02*
X48818800Y-35458400D01*
X42697400Y-38455600D02*
X45821600Y-38455600D01*
X23037600Y-43290000D02*
X23071400Y-43256200D01*
X48818800Y-35458400D02*
X48818800Y-26345000D01*
X21437600Y-43290000D02*
X23037600Y-43290000D01*
X35407600Y-36423600D02*
X40665400Y-36423600D01*
X23071400Y-43256200D02*
X28575000Y-43256200D01*
X28575000Y-43256200D02*
X35407600Y-36423600D01*
X40665400Y-36423600D02*
X42697400Y-38455600D01*
X48996600Y-62092800D02*
X50805200Y-63901400D01*
X28634200Y-45830000D02*
X34620200Y-51816000D01*
X40132000Y-51816000D02*
X41986200Y-49961800D01*
X21437600Y-45830000D02*
X28634200Y-45830000D01*
X48996600Y-53136800D02*
X48996600Y-62092800D01*
X34620200Y-51816000D02*
X40132000Y-51816000D01*
X41986200Y-49961800D02*
X45821600Y-49961800D01*
X45821600Y-49961800D02*
X48996600Y-53136800D01*
X39217600Y-55813800D02*
X39217600Y-55130000D01*
X47305200Y-63901400D02*
X39217600Y-55813800D01*
X36677600Y-56773800D02*
X43805200Y-63901400D01*
X36677600Y-55130000D02*
X36677600Y-56773800D01*
X34137600Y-57733800D02*
X40305200Y-63901400D01*
X34137600Y-55130000D02*
X34137600Y-57733800D01*
X31597600Y-58693800D02*
X36805200Y-63901400D01*
X31597600Y-55130000D02*
X31597600Y-58693800D01*
X29057600Y-59653800D02*
X29057600Y-55130000D01*
X33305200Y-63901400D02*
X29057600Y-59653800D01*
X26517600Y-60613800D02*
X29805200Y-63901400D01*
X26517600Y-55130000D02*
X26517600Y-60613800D01*
X23977600Y-61573800D02*
X26305200Y-63901400D01*
X23977600Y-55130000D02*
X23977600Y-61573800D01*
X21437600Y-62533800D02*
X22805200Y-63901400D01*
X21437600Y-55130000D02*
X21437600Y-62533800D01*
D17*
G36*
X57440000Y-34373812D02*
G01*
X57404235Y-67600000D01*
X20660000Y-67600000D01*
X20660000Y-63178361D01*
X20719968Y-63251433D01*
X20758501Y-63283056D01*
X21007681Y-63532237D01*
X20970200Y-63720668D01*
X20970200Y-64082132D01*
X21040718Y-64436650D01*
X21179044Y-64770599D01*
X21379862Y-65071144D01*
X21635456Y-65326738D01*
X21936001Y-65527556D01*
X22269950Y-65665882D01*
X22624468Y-65736400D01*
X22985932Y-65736400D01*
X23340450Y-65665882D01*
X23674399Y-65527556D01*
X23974944Y-65326738D01*
X24230538Y-65071144D01*
X24431356Y-64770599D01*
X24555200Y-64471613D01*
X24679044Y-64770599D01*
X24879862Y-65071144D01*
X25135456Y-65326738D01*
X25436001Y-65527556D01*
X25769950Y-65665882D01*
X26124468Y-65736400D01*
X26485932Y-65736400D01*
X26840450Y-65665882D01*
X27174399Y-65527556D01*
X27474944Y-65326738D01*
X27730538Y-65071144D01*
X27931356Y-64770599D01*
X28055200Y-64471613D01*
X28179044Y-64770599D01*
X28379862Y-65071144D01*
X28635456Y-65326738D01*
X28936001Y-65527556D01*
X29269950Y-65665882D01*
X29624468Y-65736400D01*
X29985932Y-65736400D01*
X30340450Y-65665882D01*
X30674399Y-65527556D01*
X30974944Y-65326738D01*
X31230538Y-65071144D01*
X31431356Y-64770599D01*
X31555200Y-64471613D01*
X31679044Y-64770599D01*
X31879862Y-65071144D01*
X32135456Y-65326738D01*
X32436001Y-65527556D01*
X32769950Y-65665882D01*
X33124468Y-65736400D01*
X33485932Y-65736400D01*
X33840450Y-65665882D01*
X34174399Y-65527556D01*
X34474944Y-65326738D01*
X34730538Y-65071144D01*
X34931356Y-64770599D01*
X35055200Y-64471613D01*
X35179044Y-64770599D01*
X35379862Y-65071144D01*
X35635456Y-65326738D01*
X35936001Y-65527556D01*
X36269950Y-65665882D01*
X36624468Y-65736400D01*
X36985932Y-65736400D01*
X37340450Y-65665882D01*
X37674399Y-65527556D01*
X37974944Y-65326738D01*
X38230538Y-65071144D01*
X38431356Y-64770599D01*
X38555200Y-64471613D01*
X38679044Y-64770599D01*
X38879862Y-65071144D01*
X39135456Y-65326738D01*
X39436001Y-65527556D01*
X39769950Y-65665882D01*
X40124468Y-65736400D01*
X40485932Y-65736400D01*
X40840450Y-65665882D01*
X41174399Y-65527556D01*
X41474944Y-65326738D01*
X41730538Y-65071144D01*
X41931356Y-64770599D01*
X42055200Y-64471613D01*
X42179044Y-64770599D01*
X42379862Y-65071144D01*
X42635456Y-65326738D01*
X42936001Y-65527556D01*
X43269950Y-65665882D01*
X43624468Y-65736400D01*
X43985932Y-65736400D01*
X44340450Y-65665882D01*
X44674399Y-65527556D01*
X44974944Y-65326738D01*
X45230538Y-65071144D01*
X45431356Y-64770599D01*
X45555200Y-64471613D01*
X45679044Y-64770599D01*
X45879862Y-65071144D01*
X46135456Y-65326738D01*
X46436001Y-65527556D01*
X46769950Y-65665882D01*
X47124468Y-65736400D01*
X47485932Y-65736400D01*
X47840450Y-65665882D01*
X48174399Y-65527556D01*
X48474944Y-65326738D01*
X48730538Y-65071144D01*
X48931356Y-64770599D01*
X49055200Y-64471613D01*
X49179044Y-64770599D01*
X49379862Y-65071144D01*
X49635456Y-65326738D01*
X49936001Y-65527556D01*
X50269950Y-65665882D01*
X50624468Y-65736400D01*
X50985932Y-65736400D01*
X51340450Y-65665882D01*
X51674399Y-65527556D01*
X51974944Y-65326738D01*
X52230538Y-65071144D01*
X52431356Y-64770599D01*
X52555200Y-64471613D01*
X52679044Y-64770599D01*
X52879862Y-65071144D01*
X53135456Y-65326738D01*
X53436001Y-65527556D01*
X53769950Y-65665882D01*
X54124468Y-65736400D01*
X54485932Y-65736400D01*
X54840450Y-65665882D01*
X55174399Y-65527556D01*
X55474944Y-65326738D01*
X55730538Y-65071144D01*
X55931356Y-64770599D01*
X56069682Y-64436650D01*
X56140200Y-64082132D01*
X56140200Y-63720668D01*
X56069682Y-63366150D01*
X55931356Y-63032201D01*
X55730538Y-62731656D01*
X55474944Y-62476062D01*
X55174399Y-62275244D01*
X54840450Y-62136918D01*
X54485932Y-62066400D01*
X54124468Y-62066400D01*
X53769950Y-62136918D01*
X53436001Y-62275244D01*
X53135456Y-62476062D01*
X52879862Y-62731656D01*
X52679044Y-63032201D01*
X52555200Y-63331187D01*
X52431356Y-63032201D01*
X52230538Y-62731656D01*
X51974944Y-62476062D01*
X51674399Y-62275244D01*
X51340450Y-62136918D01*
X50985932Y-62066400D01*
X50624468Y-62066400D01*
X50436037Y-62103881D01*
X50006600Y-61674445D01*
X50006600Y-54079721D01*
X52155000Y-54079721D01*
X52155000Y-54500279D01*
X52237047Y-54912756D01*
X52397988Y-55301302D01*
X52631637Y-55650983D01*
X52929017Y-55948363D01*
X53278698Y-56182012D01*
X53667244Y-56342953D01*
X54079721Y-56425000D01*
X54500279Y-56425000D01*
X54912756Y-56342953D01*
X55301302Y-56182012D01*
X55650983Y-55948363D01*
X55948363Y-55650983D01*
X56182012Y-55301302D01*
X56342953Y-54912756D01*
X56425000Y-54500279D01*
X56425000Y-54079721D01*
X56342953Y-53667244D01*
X56182012Y-53278698D01*
X55948363Y-52929017D01*
X55650983Y-52631637D01*
X55301302Y-52397988D01*
X54912756Y-52237047D01*
X54500279Y-52155000D01*
X54079721Y-52155000D01*
X53667244Y-52237047D01*
X53278698Y-52397988D01*
X52929017Y-52631637D01*
X52631637Y-52929017D01*
X52397988Y-53278698D01*
X52237047Y-53667244D01*
X52155000Y-54079721D01*
X50006600Y-54079721D01*
X50006600Y-53186404D01*
X50011486Y-53136799D01*
X50006600Y-53087192D01*
X49991985Y-52938806D01*
X49934232Y-52748420D01*
X49840447Y-52572960D01*
X49714233Y-52419167D01*
X49675694Y-52387539D01*
X46570861Y-49282706D01*
X46539233Y-49244167D01*
X46385440Y-49117953D01*
X46209980Y-49024168D01*
X46019594Y-48966415D01*
X45871208Y-48951800D01*
X45821600Y-48946914D01*
X45771992Y-48951800D01*
X42035808Y-48951800D01*
X41986200Y-48946914D01*
X41788205Y-48966415D01*
X41597820Y-49024168D01*
X41422360Y-49117953D01*
X41268567Y-49244167D01*
X41236944Y-49282700D01*
X40888763Y-49630881D01*
X40916975Y-49527613D01*
X40943065Y-49157281D01*
X40896405Y-48788975D01*
X40778789Y-48436849D01*
X40653315Y-48202104D01*
X40363377Y-48076229D01*
X39229605Y-49210000D01*
X39243748Y-49224142D01*
X39064142Y-49403748D01*
X39050000Y-49389605D01*
X37916229Y-50523377D01*
X38038928Y-50806000D01*
X35038555Y-50806000D01*
X33495274Y-49262719D01*
X37156935Y-49262719D01*
X37203595Y-49631025D01*
X37321211Y-49983151D01*
X37446685Y-50217896D01*
X37736623Y-50343771D01*
X38870395Y-49210000D01*
X37736623Y-48076229D01*
X37446685Y-48202104D01*
X37280861Y-48534262D01*
X37183025Y-48892387D01*
X37156935Y-49262719D01*
X33495274Y-49262719D01*
X32129178Y-47896623D01*
X37916229Y-47896623D01*
X39050000Y-49030395D01*
X40183771Y-47896623D01*
X40057896Y-47606685D01*
X39725738Y-47440861D01*
X39367613Y-47343025D01*
X38997281Y-47316935D01*
X38628975Y-47363595D01*
X38276849Y-47481211D01*
X38042104Y-47606685D01*
X37916229Y-47896623D01*
X32129178Y-47896623D01*
X29383461Y-45150906D01*
X29351833Y-45112367D01*
X29198040Y-44986153D01*
X29022580Y-44892368D01*
X28832194Y-44834615D01*
X28683808Y-44820000D01*
X28634200Y-44815114D01*
X28584592Y-44820000D01*
X22527707Y-44820000D01*
X22384232Y-44676525D01*
X22209840Y-44560000D01*
X22384232Y-44443475D01*
X22527707Y-44300000D01*
X22987992Y-44300000D01*
X23037600Y-44304886D01*
X23235594Y-44285385D01*
X23298838Y-44266200D01*
X28525392Y-44266200D01*
X28575000Y-44271086D01*
X28772994Y-44251585D01*
X28851956Y-44227632D01*
X28963380Y-44193832D01*
X29138840Y-44100047D01*
X29292633Y-43973833D01*
X29324261Y-43935294D01*
X29339834Y-43919721D01*
X31835000Y-43919721D01*
X31835000Y-44340279D01*
X31917047Y-44752756D01*
X32077988Y-45141302D01*
X32311637Y-45490983D01*
X32609017Y-45788363D01*
X32958698Y-46022012D01*
X33347244Y-46182953D01*
X33759721Y-46265000D01*
X34180279Y-46265000D01*
X34592756Y-46182953D01*
X34981302Y-46022012D01*
X35330983Y-45788363D01*
X35628363Y-45490983D01*
X35862012Y-45141302D01*
X36022953Y-44752756D01*
X36105000Y-44340279D01*
X36105000Y-43919721D01*
X41995000Y-43919721D01*
X41995000Y-44340279D01*
X42077047Y-44752756D01*
X42237988Y-45141302D01*
X42471637Y-45490983D01*
X42769017Y-45788363D01*
X43118698Y-46022012D01*
X43507244Y-46182953D01*
X43919721Y-46265000D01*
X44340279Y-46265000D01*
X44752756Y-46182953D01*
X45141302Y-46022012D01*
X45490983Y-45788363D01*
X45788363Y-45490983D01*
X46022012Y-45141302D01*
X46182953Y-44752756D01*
X46265000Y-44340279D01*
X46265000Y-43919721D01*
X52155000Y-43919721D01*
X52155000Y-44340279D01*
X52237047Y-44752756D01*
X52397988Y-45141302D01*
X52631637Y-45490983D01*
X52929017Y-45788363D01*
X53278698Y-46022012D01*
X53667244Y-46182953D01*
X54079721Y-46265000D01*
X54500279Y-46265000D01*
X54912756Y-46182953D01*
X55301302Y-46022012D01*
X55650983Y-45788363D01*
X55948363Y-45490983D01*
X56182012Y-45141302D01*
X56342953Y-44752756D01*
X56425000Y-44340279D01*
X56425000Y-43919721D01*
X56342953Y-43507244D01*
X56182012Y-43118698D01*
X55948363Y-42769017D01*
X55650983Y-42471637D01*
X55301302Y-42237988D01*
X54912756Y-42077047D01*
X54500279Y-41995000D01*
X54079721Y-41995000D01*
X53667244Y-42077047D01*
X53278698Y-42237988D01*
X52929017Y-42471637D01*
X52631637Y-42769017D01*
X52397988Y-43118698D01*
X52237047Y-43507244D01*
X52155000Y-43919721D01*
X46265000Y-43919721D01*
X46182953Y-43507244D01*
X46022012Y-43118698D01*
X45788363Y-42769017D01*
X45490983Y-42471637D01*
X45141302Y-42237988D01*
X44752756Y-42077047D01*
X44340279Y-41995000D01*
X43919721Y-41995000D01*
X43507244Y-42077047D01*
X43118698Y-42237988D01*
X42769017Y-42471637D01*
X42471637Y-42769017D01*
X42237988Y-43118698D01*
X42077047Y-43507244D01*
X41995000Y-43919721D01*
X36105000Y-43919721D01*
X36022953Y-43507244D01*
X35862012Y-43118698D01*
X35628363Y-42769017D01*
X35330983Y-42471637D01*
X34981302Y-42237988D01*
X34592756Y-42077047D01*
X34180279Y-41995000D01*
X33759721Y-41995000D01*
X33347244Y-42077047D01*
X32958698Y-42237988D01*
X32609017Y-42471637D01*
X32311637Y-42769017D01*
X32077988Y-43118698D01*
X31917047Y-43507244D01*
X31835000Y-43919721D01*
X29339834Y-43919721D01*
X32896178Y-40363377D01*
X37916229Y-40363377D01*
X38042104Y-40653315D01*
X38374262Y-40819139D01*
X38732387Y-40916975D01*
X39102719Y-40943065D01*
X39471025Y-40896405D01*
X39823151Y-40778789D01*
X40057896Y-40653315D01*
X40183771Y-40363377D01*
X39050000Y-39229605D01*
X37916229Y-40363377D01*
X32896178Y-40363377D01*
X34156836Y-39102719D01*
X37156935Y-39102719D01*
X37203595Y-39471025D01*
X37321211Y-39823151D01*
X37446685Y-40057896D01*
X37736623Y-40183771D01*
X38870395Y-39050000D01*
X39229605Y-39050000D01*
X40363377Y-40183771D01*
X40653315Y-40057896D01*
X40819139Y-39725738D01*
X40916975Y-39367613D01*
X40943065Y-38997281D01*
X40896405Y-38628975D01*
X40778789Y-38276849D01*
X40653315Y-38042104D01*
X40363377Y-37916229D01*
X39229605Y-39050000D01*
X38870395Y-39050000D01*
X37736623Y-37916229D01*
X37446685Y-38042104D01*
X37280861Y-38374262D01*
X37183025Y-38732387D01*
X37156935Y-39102719D01*
X34156836Y-39102719D01*
X35825956Y-37433600D01*
X38066584Y-37433600D01*
X38042104Y-37446685D01*
X37916229Y-37736623D01*
X39050000Y-38870395D01*
X40183771Y-37736623D01*
X40057896Y-37446685D01*
X40031686Y-37433600D01*
X40247045Y-37433600D01*
X41948144Y-39134700D01*
X41979767Y-39173233D01*
X42133560Y-39299447D01*
X42308186Y-39392786D01*
X42309020Y-39393232D01*
X42499405Y-39450985D01*
X42616795Y-39462547D01*
X42644970Y-39465322D01*
X42697400Y-39470486D01*
X42747008Y-39465600D01*
X45771992Y-39465600D01*
X45821600Y-39470486D01*
X45874031Y-39465322D01*
X46019594Y-39450985D01*
X46209980Y-39393232D01*
X46385440Y-39299447D01*
X46539233Y-39173233D01*
X46570861Y-39134694D01*
X49497900Y-36207656D01*
X49536433Y-36176033D01*
X49662647Y-36022240D01*
X49756432Y-35846780D01*
X49763864Y-35822279D01*
X49814185Y-35656395D01*
X49833686Y-35458400D01*
X49828800Y-35408792D01*
X49828800Y-33759721D01*
X52155000Y-33759721D01*
X52155000Y-34180279D01*
X52237047Y-34592756D01*
X52397988Y-34981302D01*
X52631637Y-35330983D01*
X52929017Y-35628363D01*
X53278698Y-35862012D01*
X53667244Y-36022953D01*
X54079721Y-36105000D01*
X54500279Y-36105000D01*
X54912756Y-36022953D01*
X55301302Y-35862012D01*
X55650983Y-35628363D01*
X55948363Y-35330983D01*
X56182012Y-34981302D01*
X56342953Y-34592756D01*
X56425000Y-34180279D01*
X56425000Y-33759721D01*
X56342953Y-33347244D01*
X56182012Y-32958698D01*
X55948363Y-32609017D01*
X55650983Y-32311637D01*
X55301302Y-32077988D01*
X54912756Y-31917047D01*
X54500279Y-31835000D01*
X54079721Y-31835000D01*
X53667244Y-31917047D01*
X53278698Y-32077988D01*
X52929017Y-32311637D01*
X52631637Y-32609017D01*
X52397988Y-32958698D01*
X52237047Y-33347244D01*
X52155000Y-33759721D01*
X49828800Y-33759721D01*
X49828800Y-26763355D01*
X50436037Y-26156119D01*
X50624468Y-26193600D01*
X50985932Y-26193600D01*
X51340450Y-26123082D01*
X51674399Y-25984756D01*
X51974944Y-25783938D01*
X52230538Y-25528344D01*
X52431356Y-25227799D01*
X52555200Y-24928813D01*
X52679044Y-25227799D01*
X52879862Y-25528344D01*
X53135456Y-25783938D01*
X53436001Y-25984756D01*
X53769950Y-26123082D01*
X54124468Y-26193600D01*
X54485932Y-26193600D01*
X54840450Y-26123082D01*
X55174399Y-25984756D01*
X55474944Y-25783938D01*
X55730538Y-25528344D01*
X55931356Y-25227799D01*
X56069682Y-24893850D01*
X56140200Y-24539332D01*
X56140200Y-24177868D01*
X56069682Y-23823350D01*
X55931356Y-23489401D01*
X55730538Y-23188856D01*
X55474944Y-22933262D01*
X55174399Y-22732444D01*
X54840450Y-22594118D01*
X54485932Y-22523600D01*
X54124468Y-22523600D01*
X53769950Y-22594118D01*
X53436001Y-22732444D01*
X53135456Y-22933262D01*
X52879862Y-23188856D01*
X52679044Y-23489401D01*
X52555200Y-23788387D01*
X52431356Y-23489401D01*
X52230538Y-23188856D01*
X51974944Y-22933262D01*
X51674399Y-22732444D01*
X51340450Y-22594118D01*
X50985932Y-22523600D01*
X50624468Y-22523600D01*
X50269950Y-22594118D01*
X49936001Y-22732444D01*
X49635456Y-22933262D01*
X49379862Y-23188856D01*
X49179044Y-23489401D01*
X49055200Y-23788387D01*
X48931356Y-23489401D01*
X48730538Y-23188856D01*
X48474944Y-22933262D01*
X48174399Y-22732444D01*
X47840450Y-22594118D01*
X47485932Y-22523600D01*
X47124468Y-22523600D01*
X46769950Y-22594118D01*
X46436001Y-22732444D01*
X46135456Y-22933262D01*
X45879862Y-23188856D01*
X45679044Y-23489401D01*
X45555200Y-23788387D01*
X45431356Y-23489401D01*
X45230538Y-23188856D01*
X44974944Y-22933262D01*
X44674399Y-22732444D01*
X44340450Y-22594118D01*
X43985932Y-22523600D01*
X43624468Y-22523600D01*
X43269950Y-22594118D01*
X42936001Y-22732444D01*
X42635456Y-22933262D01*
X42379862Y-23188856D01*
X42179044Y-23489401D01*
X42055200Y-23788387D01*
X41931356Y-23489401D01*
X41730538Y-23188856D01*
X41474944Y-22933262D01*
X41174399Y-22732444D01*
X40840450Y-22594118D01*
X40485932Y-22523600D01*
X40124468Y-22523600D01*
X39769950Y-22594118D01*
X39436001Y-22732444D01*
X39135456Y-22933262D01*
X38879862Y-23188856D01*
X38679044Y-23489401D01*
X38555200Y-23788387D01*
X38431356Y-23489401D01*
X38230538Y-23188856D01*
X37974944Y-22933262D01*
X37674399Y-22732444D01*
X37340450Y-22594118D01*
X36985932Y-22523600D01*
X36624468Y-22523600D01*
X36269950Y-22594118D01*
X35936001Y-22732444D01*
X35635456Y-22933262D01*
X35379862Y-23188856D01*
X35179044Y-23489401D01*
X35055200Y-23788387D01*
X34931356Y-23489401D01*
X34730538Y-23188856D01*
X34474944Y-22933262D01*
X34174399Y-22732444D01*
X33840450Y-22594118D01*
X33485932Y-22523600D01*
X33124468Y-22523600D01*
X32769950Y-22594118D01*
X32436001Y-22732444D01*
X32135456Y-22933262D01*
X31879862Y-23188856D01*
X31679044Y-23489401D01*
X31555200Y-23788387D01*
X31431356Y-23489401D01*
X31230538Y-23188856D01*
X30974944Y-22933262D01*
X30674399Y-22732444D01*
X30340450Y-22594118D01*
X29985932Y-22523600D01*
X29624468Y-22523600D01*
X29269950Y-22594118D01*
X28936001Y-22732444D01*
X28635456Y-22933262D01*
X28379862Y-23188856D01*
X28179044Y-23489401D01*
X28055200Y-23788387D01*
X27931356Y-23489401D01*
X27730538Y-23188856D01*
X27474944Y-22933262D01*
X27174399Y-22732444D01*
X26840450Y-22594118D01*
X26485932Y-22523600D01*
X26124468Y-22523600D01*
X25769950Y-22594118D01*
X25436001Y-22732444D01*
X25135456Y-22933262D01*
X24879862Y-23188856D01*
X24679044Y-23489401D01*
X24555200Y-23788387D01*
X24431356Y-23489401D01*
X24230538Y-23188856D01*
X23974944Y-22933262D01*
X23674399Y-22732444D01*
X23340450Y-22594118D01*
X22985932Y-22523600D01*
X22624468Y-22523600D01*
X22269950Y-22594118D01*
X21936001Y-22732444D01*
X21635456Y-22933262D01*
X21379862Y-23188856D01*
X21179044Y-23489401D01*
X21040718Y-23823350D01*
X20970200Y-24177868D01*
X20970200Y-24539332D01*
X21007681Y-24727763D01*
X20758501Y-24976944D01*
X20719968Y-25008567D01*
X20719428Y-25009225D01*
X20750846Y-20853054D01*
X57440000Y-20752190D01*
X57440000Y-34373812D01*
G37*
X57440000Y-34373812D02*
X57404235Y-67600000D01*
X20660000Y-67600000D01*
X20660000Y-63178361D01*
X20719968Y-63251433D01*
X20758501Y-63283056D01*
X21007681Y-63532237D01*
X20970200Y-63720668D01*
X20970200Y-64082132D01*
X21040718Y-64436650D01*
X21179044Y-64770599D01*
X21379862Y-65071144D01*
X21635456Y-65326738D01*
X21936001Y-65527556D01*
X22269950Y-65665882D01*
X22624468Y-65736400D01*
X22985932Y-65736400D01*
X23340450Y-65665882D01*
X23674399Y-65527556D01*
X23974944Y-65326738D01*
X24230538Y-65071144D01*
X24431356Y-64770599D01*
X24555200Y-64471613D01*
X24679044Y-64770599D01*
X24879862Y-65071144D01*
X25135456Y-65326738D01*
X25436001Y-65527556D01*
X25769950Y-65665882D01*
X26124468Y-65736400D01*
X26485932Y-65736400D01*
X26840450Y-65665882D01*
X27174399Y-65527556D01*
X27474944Y-65326738D01*
X27730538Y-65071144D01*
X27931356Y-64770599D01*
X28055200Y-64471613D01*
X28179044Y-64770599D01*
X28379862Y-65071144D01*
X28635456Y-65326738D01*
X28936001Y-65527556D01*
X29269950Y-65665882D01*
X29624468Y-65736400D01*
X29985932Y-65736400D01*
X30340450Y-65665882D01*
X30674399Y-65527556D01*
X30974944Y-65326738D01*
X31230538Y-65071144D01*
X31431356Y-64770599D01*
X31555200Y-64471613D01*
X31679044Y-64770599D01*
X31879862Y-65071144D01*
X32135456Y-65326738D01*
X32436001Y-65527556D01*
X32769950Y-65665882D01*
X33124468Y-65736400D01*
X33485932Y-65736400D01*
X33840450Y-65665882D01*
X34174399Y-65527556D01*
X34474944Y-65326738D01*
X34730538Y-65071144D01*
X34931356Y-64770599D01*
X35055200Y-64471613D01*
X35179044Y-64770599D01*
X35379862Y-65071144D01*
X35635456Y-65326738D01*
X35936001Y-65527556D01*
X36269950Y-65665882D01*
X36624468Y-65736400D01*
X36985932Y-65736400D01*
X37340450Y-65665882D01*
X37674399Y-65527556D01*
X37974944Y-65326738D01*
X38230538Y-65071144D01*
X38431356Y-64770599D01*
X38555200Y-64471613D01*
X38679044Y-64770599D01*
X38879862Y-65071144D01*
X39135456Y-65326738D01*
X39436001Y-65527556D01*
X39769950Y-65665882D01*
X40124468Y-65736400D01*
X40485932Y-65736400D01*
X40840450Y-65665882D01*
X41174399Y-65527556D01*
X41474944Y-65326738D01*
X41730538Y-65071144D01*
X41931356Y-64770599D01*
X42055200Y-64471613D01*
X42179044Y-64770599D01*
X42379862Y-65071144D01*
X42635456Y-65326738D01*
X42936001Y-65527556D01*
X43269950Y-65665882D01*
X43624468Y-65736400D01*
X43985932Y-65736400D01*
X44340450Y-65665882D01*
X44674399Y-65527556D01*
X44974944Y-65326738D01*
X45230538Y-65071144D01*
X45431356Y-64770599D01*
X45555200Y-64471613D01*
X45679044Y-64770599D01*
X45879862Y-65071144D01*
X46135456Y-65326738D01*
X46436001Y-65527556D01*
X46769950Y-65665882D01*
X47124468Y-65736400D01*
X47485932Y-65736400D01*
X47840450Y-65665882D01*
X48174399Y-65527556D01*
X48474944Y-65326738D01*
X48730538Y-65071144D01*
X48931356Y-64770599D01*
X49055200Y-64471613D01*
X49179044Y-64770599D01*
X49379862Y-65071144D01*
X49635456Y-65326738D01*
X49936001Y-65527556D01*
X50269950Y-65665882D01*
X50624468Y-65736400D01*
X50985932Y-65736400D01*
X51340450Y-65665882D01*
X51674399Y-65527556D01*
X51974944Y-65326738D01*
X52230538Y-65071144D01*
X52431356Y-64770599D01*
X52555200Y-64471613D01*
X52679044Y-64770599D01*
X52879862Y-65071144D01*
X53135456Y-65326738D01*
X53436001Y-65527556D01*
X53769950Y-65665882D01*
X54124468Y-65736400D01*
X54485932Y-65736400D01*
X54840450Y-65665882D01*
X55174399Y-65527556D01*
X55474944Y-65326738D01*
X55730538Y-65071144D01*
X55931356Y-64770599D01*
X56069682Y-64436650D01*
X56140200Y-64082132D01*
X56140200Y-63720668D01*
X56069682Y-63366150D01*
X55931356Y-63032201D01*
X55730538Y-62731656D01*
X55474944Y-62476062D01*
X55174399Y-62275244D01*
X54840450Y-62136918D01*
X54485932Y-62066400D01*
X54124468Y-62066400D01*
X53769950Y-62136918D01*
X53436001Y-62275244D01*
X53135456Y-62476062D01*
X52879862Y-62731656D01*
X52679044Y-63032201D01*
X52555200Y-63331187D01*
X52431356Y-63032201D01*
X52230538Y-62731656D01*
X51974944Y-62476062D01*
X51674399Y-62275244D01*
X51340450Y-62136918D01*
X50985932Y-62066400D01*
X50624468Y-62066400D01*
X50436037Y-62103881D01*
X50006600Y-61674445D01*
X50006600Y-54079721D01*
X52155000Y-54079721D01*
X52155000Y-54500279D01*
X52237047Y-54912756D01*
X52397988Y-55301302D01*
X52631637Y-55650983D01*
X52929017Y-55948363D01*
X53278698Y-56182012D01*
X53667244Y-56342953D01*
X54079721Y-56425000D01*
X54500279Y-56425000D01*
X54912756Y-56342953D01*
X55301302Y-56182012D01*
X55650983Y-55948363D01*
X55948363Y-55650983D01*
X56182012Y-55301302D01*
X56342953Y-54912756D01*
X56425000Y-54500279D01*
X56425000Y-54079721D01*
X56342953Y-53667244D01*
X56182012Y-53278698D01*
X55948363Y-52929017D01*
X55650983Y-52631637D01*
X55301302Y-52397988D01*
X54912756Y-52237047D01*
X54500279Y-52155000D01*
X54079721Y-52155000D01*
X53667244Y-52237047D01*
X53278698Y-52397988D01*
X52929017Y-52631637D01*
X52631637Y-52929017D01*
X52397988Y-53278698D01*
X52237047Y-53667244D01*
X52155000Y-54079721D01*
X50006600Y-54079721D01*
X50006600Y-53186404D01*
X50011486Y-53136799D01*
X50006600Y-53087192D01*
X49991985Y-52938806D01*
X49934232Y-52748420D01*
X49840447Y-52572960D01*
X49714233Y-52419167D01*
X49675694Y-52387539D01*
X46570861Y-49282706D01*
X46539233Y-49244167D01*
X46385440Y-49117953D01*
X46209980Y-49024168D01*
X46019594Y-48966415D01*
X45871208Y-48951800D01*
X45821600Y-48946914D01*
X45771992Y-48951800D01*
X42035808Y-48951800D01*
X41986200Y-48946914D01*
X41788205Y-48966415D01*
X41597820Y-49024168D01*
X41422360Y-49117953D01*
X41268567Y-49244167D01*
X41236944Y-49282700D01*
X40888763Y-49630881D01*
X40916975Y-49527613D01*
X40943065Y-49157281D01*
X40896405Y-48788975D01*
X40778789Y-48436849D01*
X40653315Y-48202104D01*
X40363377Y-48076229D01*
X39229605Y-49210000D01*
X39243748Y-49224142D01*
X39064142Y-49403748D01*
X39050000Y-49389605D01*
X37916229Y-50523377D01*
X38038928Y-50806000D01*
X35038555Y-50806000D01*
X33495274Y-49262719D01*
X37156935Y-49262719D01*
X37203595Y-49631025D01*
X37321211Y-49983151D01*
X37446685Y-50217896D01*
X37736623Y-50343771D01*
X38870395Y-49210000D01*
X37736623Y-48076229D01*
X37446685Y-48202104D01*
X37280861Y-48534262D01*
X37183025Y-48892387D01*
X37156935Y-49262719D01*
X33495274Y-49262719D01*
X32129178Y-47896623D01*
X37916229Y-47896623D01*
X39050000Y-49030395D01*
X40183771Y-47896623D01*
X40057896Y-47606685D01*
X39725738Y-47440861D01*
X39367613Y-47343025D01*
X38997281Y-47316935D01*
X38628975Y-47363595D01*
X38276849Y-47481211D01*
X38042104Y-47606685D01*
X37916229Y-47896623D01*
X32129178Y-47896623D01*
X29383461Y-45150906D01*
X29351833Y-45112367D01*
X29198040Y-44986153D01*
X29022580Y-44892368D01*
X28832194Y-44834615D01*
X28683808Y-44820000D01*
X28634200Y-44815114D01*
X28584592Y-44820000D01*
X22527707Y-44820000D01*
X22384232Y-44676525D01*
X22209840Y-44560000D01*
X22384232Y-44443475D01*
X22527707Y-44300000D01*
X22987992Y-44300000D01*
X23037600Y-44304886D01*
X23235594Y-44285385D01*
X23298838Y-44266200D01*
X28525392Y-44266200D01*
X28575000Y-44271086D01*
X28772994Y-44251585D01*
X28851956Y-44227632D01*
X28963380Y-44193832D01*
X29138840Y-44100047D01*
X29292633Y-43973833D01*
X29324261Y-43935294D01*
X29339834Y-43919721D01*
X31835000Y-43919721D01*
X31835000Y-44340279D01*
X31917047Y-44752756D01*
X32077988Y-45141302D01*
X32311637Y-45490983D01*
X32609017Y-45788363D01*
X32958698Y-46022012D01*
X33347244Y-46182953D01*
X33759721Y-46265000D01*
X34180279Y-46265000D01*
X34592756Y-46182953D01*
X34981302Y-46022012D01*
X35330983Y-45788363D01*
X35628363Y-45490983D01*
X35862012Y-45141302D01*
X36022953Y-44752756D01*
X36105000Y-44340279D01*
X36105000Y-43919721D01*
X41995000Y-43919721D01*
X41995000Y-44340279D01*
X42077047Y-44752756D01*
X42237988Y-45141302D01*
X42471637Y-45490983D01*
X42769017Y-45788363D01*
X43118698Y-46022012D01*
X43507244Y-46182953D01*
X43919721Y-46265000D01*
X44340279Y-46265000D01*
X44752756Y-46182953D01*
X45141302Y-46022012D01*
X45490983Y-45788363D01*
X45788363Y-45490983D01*
X46022012Y-45141302D01*
X46182953Y-44752756D01*
X46265000Y-44340279D01*
X46265000Y-43919721D01*
X52155000Y-43919721D01*
X52155000Y-44340279D01*
X52237047Y-44752756D01*
X52397988Y-45141302D01*
X52631637Y-45490983D01*
X52929017Y-45788363D01*
X53278698Y-46022012D01*
X53667244Y-46182953D01*
X54079721Y-46265000D01*
X54500279Y-46265000D01*
X54912756Y-46182953D01*
X55301302Y-46022012D01*
X55650983Y-45788363D01*
X55948363Y-45490983D01*
X56182012Y-45141302D01*
X56342953Y-44752756D01*
X56425000Y-44340279D01*
X56425000Y-43919721D01*
X56342953Y-43507244D01*
X56182012Y-43118698D01*
X55948363Y-42769017D01*
X55650983Y-42471637D01*
X55301302Y-42237988D01*
X54912756Y-42077047D01*
X54500279Y-41995000D01*
X54079721Y-41995000D01*
X53667244Y-42077047D01*
X53278698Y-42237988D01*
X52929017Y-42471637D01*
X52631637Y-42769017D01*
X52397988Y-43118698D01*
X52237047Y-43507244D01*
X52155000Y-43919721D01*
X46265000Y-43919721D01*
X46182953Y-43507244D01*
X46022012Y-43118698D01*
X45788363Y-42769017D01*
X45490983Y-42471637D01*
X45141302Y-42237988D01*
X44752756Y-42077047D01*
X44340279Y-41995000D01*
X43919721Y-41995000D01*
X43507244Y-42077047D01*
X43118698Y-42237988D01*
X42769017Y-42471637D01*
X42471637Y-42769017D01*
X42237988Y-43118698D01*
X42077047Y-43507244D01*
X41995000Y-43919721D01*
X36105000Y-43919721D01*
X36022953Y-43507244D01*
X35862012Y-43118698D01*
X35628363Y-42769017D01*
X35330983Y-42471637D01*
X34981302Y-42237988D01*
X34592756Y-42077047D01*
X34180279Y-41995000D01*
X33759721Y-41995000D01*
X33347244Y-42077047D01*
X32958698Y-42237988D01*
X32609017Y-42471637D01*
X32311637Y-42769017D01*
X32077988Y-43118698D01*
X31917047Y-43507244D01*
X31835000Y-43919721D01*
X29339834Y-43919721D01*
X32896178Y-40363377D01*
X37916229Y-40363377D01*
X38042104Y-40653315D01*
X38374262Y-40819139D01*
X38732387Y-40916975D01*
X39102719Y-40943065D01*
X39471025Y-40896405D01*
X39823151Y-40778789D01*
X40057896Y-40653315D01*
X40183771Y-40363377D01*
X39050000Y-39229605D01*
X37916229Y-40363377D01*
X32896178Y-40363377D01*
X34156836Y-39102719D01*
X37156935Y-39102719D01*
X37203595Y-39471025D01*
X37321211Y-39823151D01*
X37446685Y-40057896D01*
X37736623Y-40183771D01*
X38870395Y-39050000D01*
X39229605Y-39050000D01*
X40363377Y-40183771D01*
X40653315Y-40057896D01*
X40819139Y-39725738D01*
X40916975Y-39367613D01*
X40943065Y-38997281D01*
X40896405Y-38628975D01*
X40778789Y-38276849D01*
X40653315Y-38042104D01*
X40363377Y-37916229D01*
X39229605Y-39050000D01*
X38870395Y-39050000D01*
X37736623Y-37916229D01*
X37446685Y-38042104D01*
X37280861Y-38374262D01*
X37183025Y-38732387D01*
X37156935Y-39102719D01*
X34156836Y-39102719D01*
X35825956Y-37433600D01*
X38066584Y-37433600D01*
X38042104Y-37446685D01*
X37916229Y-37736623D01*
X39050000Y-38870395D01*
X40183771Y-37736623D01*
X40057896Y-37446685D01*
X40031686Y-37433600D01*
X40247045Y-37433600D01*
X41948144Y-39134700D01*
X41979767Y-39173233D01*
X42133560Y-39299447D01*
X42308186Y-39392786D01*
X42309020Y-39393232D01*
X42499405Y-39450985D01*
X42616795Y-39462547D01*
X42644970Y-39465322D01*
X42697400Y-39470486D01*
X42747008Y-39465600D01*
X45771992Y-39465600D01*
X45821600Y-39470486D01*
X45874031Y-39465322D01*
X46019594Y-39450985D01*
X46209980Y-39393232D01*
X46385440Y-39299447D01*
X46539233Y-39173233D01*
X46570861Y-39134694D01*
X49497900Y-36207656D01*
X49536433Y-36176033D01*
X49662647Y-36022240D01*
X49756432Y-35846780D01*
X49763864Y-35822279D01*
X49814185Y-35656395D01*
X49833686Y-35458400D01*
X49828800Y-35408792D01*
X49828800Y-33759721D01*
X52155000Y-33759721D01*
X52155000Y-34180279D01*
X52237047Y-34592756D01*
X52397988Y-34981302D01*
X52631637Y-35330983D01*
X52929017Y-35628363D01*
X53278698Y-35862012D01*
X53667244Y-36022953D01*
X54079721Y-36105000D01*
X54500279Y-36105000D01*
X54912756Y-36022953D01*
X55301302Y-35862012D01*
X55650983Y-35628363D01*
X55948363Y-35330983D01*
X56182012Y-34981302D01*
X56342953Y-34592756D01*
X56425000Y-34180279D01*
X56425000Y-33759721D01*
X56342953Y-33347244D01*
X56182012Y-32958698D01*
X55948363Y-32609017D01*
X55650983Y-32311637D01*
X55301302Y-32077988D01*
X54912756Y-31917047D01*
X54500279Y-31835000D01*
X54079721Y-31835000D01*
X53667244Y-31917047D01*
X53278698Y-32077988D01*
X52929017Y-32311637D01*
X52631637Y-32609017D01*
X52397988Y-32958698D01*
X52237047Y-33347244D01*
X52155000Y-33759721D01*
X49828800Y-33759721D01*
X49828800Y-26763355D01*
X50436037Y-26156119D01*
X50624468Y-26193600D01*
X50985932Y-26193600D01*
X51340450Y-26123082D01*
X51674399Y-25984756D01*
X51974944Y-25783938D01*
X52230538Y-25528344D01*
X52431356Y-25227799D01*
X52555200Y-24928813D01*
X52679044Y-25227799D01*
X52879862Y-25528344D01*
X53135456Y-25783938D01*
X53436001Y-25984756D01*
X53769950Y-26123082D01*
X54124468Y-26193600D01*
X54485932Y-26193600D01*
X54840450Y-26123082D01*
X55174399Y-25984756D01*
X55474944Y-25783938D01*
X55730538Y-25528344D01*
X55931356Y-25227799D01*
X56069682Y-24893850D01*
X56140200Y-24539332D01*
X56140200Y-24177868D01*
X56069682Y-23823350D01*
X55931356Y-23489401D01*
X55730538Y-23188856D01*
X55474944Y-22933262D01*
X55174399Y-22732444D01*
X54840450Y-22594118D01*
X54485932Y-22523600D01*
X54124468Y-22523600D01*
X53769950Y-22594118D01*
X53436001Y-22732444D01*
X53135456Y-22933262D01*
X52879862Y-23188856D01*
X52679044Y-23489401D01*
X52555200Y-23788387D01*
X52431356Y-23489401D01*
X52230538Y-23188856D01*
X51974944Y-22933262D01*
X51674399Y-22732444D01*
X51340450Y-22594118D01*
X50985932Y-22523600D01*
X50624468Y-22523600D01*
X50269950Y-22594118D01*
X49936001Y-22732444D01*
X49635456Y-22933262D01*
X49379862Y-23188856D01*
X49179044Y-23489401D01*
X49055200Y-23788387D01*
X48931356Y-23489401D01*
X48730538Y-23188856D01*
X48474944Y-22933262D01*
X48174399Y-22732444D01*
X47840450Y-22594118D01*
X47485932Y-22523600D01*
X47124468Y-22523600D01*
X46769950Y-22594118D01*
X46436001Y-22732444D01*
X46135456Y-22933262D01*
X45879862Y-23188856D01*
X45679044Y-23489401D01*
X45555200Y-23788387D01*
X45431356Y-23489401D01*
X45230538Y-23188856D01*
X44974944Y-22933262D01*
X44674399Y-22732444D01*
X44340450Y-22594118D01*
X43985932Y-22523600D01*
X43624468Y-22523600D01*
X43269950Y-22594118D01*
X42936001Y-22732444D01*
X42635456Y-22933262D01*
X42379862Y-23188856D01*
X42179044Y-23489401D01*
X42055200Y-23788387D01*
X41931356Y-23489401D01*
X41730538Y-23188856D01*
X41474944Y-22933262D01*
X41174399Y-22732444D01*
X40840450Y-22594118D01*
X40485932Y-22523600D01*
X40124468Y-22523600D01*
X39769950Y-22594118D01*
X39436001Y-22732444D01*
X39135456Y-22933262D01*
X38879862Y-23188856D01*
X38679044Y-23489401D01*
X38555200Y-23788387D01*
X38431356Y-23489401D01*
X38230538Y-23188856D01*
X37974944Y-22933262D01*
X37674399Y-22732444D01*
X37340450Y-22594118D01*
X36985932Y-22523600D01*
X36624468Y-22523600D01*
X36269950Y-22594118D01*
X35936001Y-22732444D01*
X35635456Y-22933262D01*
X35379862Y-23188856D01*
X35179044Y-23489401D01*
X35055200Y-23788387D01*
X34931356Y-23489401D01*
X34730538Y-23188856D01*
X34474944Y-22933262D01*
X34174399Y-22732444D01*
X33840450Y-22594118D01*
X33485932Y-22523600D01*
X33124468Y-22523600D01*
X32769950Y-22594118D01*
X32436001Y-22732444D01*
X32135456Y-22933262D01*
X31879862Y-23188856D01*
X31679044Y-23489401D01*
X31555200Y-23788387D01*
X31431356Y-23489401D01*
X31230538Y-23188856D01*
X30974944Y-22933262D01*
X30674399Y-22732444D01*
X30340450Y-22594118D01*
X29985932Y-22523600D01*
X29624468Y-22523600D01*
X29269950Y-22594118D01*
X28936001Y-22732444D01*
X28635456Y-22933262D01*
X28379862Y-23188856D01*
X28179044Y-23489401D01*
X28055200Y-23788387D01*
X27931356Y-23489401D01*
X27730538Y-23188856D01*
X27474944Y-22933262D01*
X27174399Y-22732444D01*
X26840450Y-22594118D01*
X26485932Y-22523600D01*
X26124468Y-22523600D01*
X25769950Y-22594118D01*
X25436001Y-22732444D01*
X25135456Y-22933262D01*
X24879862Y-23188856D01*
X24679044Y-23489401D01*
X24555200Y-23788387D01*
X24431356Y-23489401D01*
X24230538Y-23188856D01*
X23974944Y-22933262D01*
X23674399Y-22732444D01*
X23340450Y-22594118D01*
X22985932Y-22523600D01*
X22624468Y-22523600D01*
X22269950Y-22594118D01*
X21936001Y-22732444D01*
X21635456Y-22933262D01*
X21379862Y-23188856D01*
X21179044Y-23489401D01*
X21040718Y-23823350D01*
X20970200Y-24177868D01*
X20970200Y-24539332D01*
X21007681Y-24727763D01*
X20758501Y-24976944D01*
X20719968Y-25008567D01*
X20719428Y-25009225D01*
X20750846Y-20853054D01*
X57440000Y-20752190D01*
X57440000Y-34373812D01*
G36*
X28709028Y-47333183D02*
G01*
X28468975Y-47363595D01*
X28116849Y-47481211D01*
X27882104Y-47606685D01*
X27756229Y-47896623D01*
X28890000Y-49030395D01*
X28904143Y-49016253D01*
X29083748Y-49195858D01*
X29069605Y-49210000D01*
X30203377Y-50343771D01*
X30493315Y-50217896D01*
X30659139Y-49885738D01*
X30756975Y-49527613D01*
X30766616Y-49390771D01*
X32180745Y-50804900D01*
X29901549Y-50804900D01*
X30023771Y-50523377D01*
X28890000Y-49389605D01*
X27756229Y-50523377D01*
X27878451Y-50804900D01*
X20660000Y-50804900D01*
X20660000Y-49262719D01*
X26996935Y-49262719D01*
X27043595Y-49631025D01*
X27161211Y-49983151D01*
X27286685Y-50217896D01*
X27576623Y-50343771D01*
X28710395Y-49210000D01*
X27576623Y-48076229D01*
X27286685Y-48202104D01*
X27120861Y-48534262D01*
X27023025Y-48892387D01*
X26996935Y-49262719D01*
X20660000Y-49262719D01*
X20660000Y-47096419D01*
X20734189Y-47145990D01*
X21004442Y-47257932D01*
X21291340Y-47315000D01*
X21583860Y-47315000D01*
X21870758Y-47257932D01*
X22141011Y-47145990D01*
X22384232Y-46983475D01*
X22527707Y-46840000D01*
X28215845Y-46840000D01*
X28709028Y-47333183D01*
G37*
X28709028Y-47333183D02*
X28468975Y-47363595D01*
X28116849Y-47481211D01*
X27882104Y-47606685D01*
X27756229Y-47896623D01*
X28890000Y-49030395D01*
X28904143Y-49016253D01*
X29083748Y-49195858D01*
X29069605Y-49210000D01*
X30203377Y-50343771D01*
X30493315Y-50217896D01*
X30659139Y-49885738D01*
X30756975Y-49527613D01*
X30766616Y-49390771D01*
X32180745Y-50804900D01*
X29901549Y-50804900D01*
X30023771Y-50523377D01*
X28890000Y-49389605D01*
X27756229Y-50523377D01*
X27878451Y-50804900D01*
X20660000Y-50804900D01*
X20660000Y-49262719D01*
X26996935Y-49262719D01*
X27043595Y-49631025D01*
X27161211Y-49983151D01*
X27286685Y-50217896D01*
X27576623Y-50343771D01*
X28710395Y-49210000D01*
X27576623Y-48076229D01*
X27286685Y-48202104D01*
X27120861Y-48534262D01*
X27023025Y-48892387D01*
X26996935Y-49262719D01*
X20660000Y-49262719D01*
X20660000Y-47096419D01*
X20734189Y-47145990D01*
X21004442Y-47257932D01*
X21291340Y-47315000D01*
X21583860Y-47315000D01*
X21870758Y-47257932D01*
X22141011Y-47145990D01*
X22384232Y-46983475D01*
X22527707Y-46840000D01*
X28215845Y-46840000D01*
X28709028Y-47333183D01*
G36*
X47823415Y-26147006D02*
G01*
X47803914Y-26345000D01*
X47808801Y-26394618D01*
X47808800Y-35040044D01*
X45403245Y-37445600D01*
X43115756Y-37445600D01*
X41414661Y-35744506D01*
X41383033Y-35705967D01*
X41229240Y-35579753D01*
X41053780Y-35485968D01*
X40863394Y-35428215D01*
X40715008Y-35413600D01*
X40665400Y-35408714D01*
X40615792Y-35413600D01*
X35457208Y-35413600D01*
X35407600Y-35408714D01*
X35209605Y-35428215D01*
X35031397Y-35482274D01*
X35019220Y-35485968D01*
X34843760Y-35579753D01*
X34689967Y-35705967D01*
X34658344Y-35744500D01*
X30641226Y-39761618D01*
X30659139Y-39725738D01*
X30756975Y-39367613D01*
X30783065Y-38997281D01*
X30736405Y-38628975D01*
X30618789Y-38276849D01*
X30493315Y-38042104D01*
X30203377Y-37916229D01*
X29069605Y-39050000D01*
X29083748Y-39064142D01*
X28904142Y-39243748D01*
X28890000Y-39229605D01*
X27756229Y-40363377D01*
X27882104Y-40653315D01*
X28214262Y-40819139D01*
X28572387Y-40916975D01*
X28942719Y-40943065D01*
X29311025Y-40896405D01*
X29604448Y-40798397D01*
X28156645Y-42246200D01*
X23121004Y-42246200D01*
X23071399Y-42241314D01*
X23021794Y-42246200D01*
X23021792Y-42246200D01*
X22873406Y-42260815D01*
X22810162Y-42280000D01*
X22527707Y-42280000D01*
X22384232Y-42136525D01*
X22141011Y-41974010D01*
X21870758Y-41862068D01*
X21583860Y-41805000D01*
X21291340Y-41805000D01*
X21004442Y-41862068D01*
X20734189Y-41974010D01*
X20660000Y-42023581D01*
X20660000Y-40937389D01*
X20749167Y-41025000D01*
X20749262Y-41025076D01*
X20753976Y-41029675D01*
X20807496Y-41081170D01*
X20807614Y-41081263D01*
X20810983Y-41084501D01*
X20895607Y-41164703D01*
X20895697Y-41164773D01*
X20900647Y-41169428D01*
X20974713Y-41238123D01*
X20974987Y-41238332D01*
X20975216Y-41238589D01*
X20981817Y-41244612D01*
X21041350Y-41298186D01*
X21045184Y-41301011D01*
X21048451Y-41304482D01*
X21055222Y-41310313D01*
X21096246Y-41345145D01*
X21121907Y-41362936D01*
X21145708Y-41383155D01*
X21153086Y-41388197D01*
X21171622Y-41400675D01*
X21192887Y-41412148D01*
X21198895Y-41416313D01*
X21207781Y-41420183D01*
X21212430Y-41422691D01*
X21252077Y-41446741D01*
X21267299Y-41452293D01*
X21281550Y-41459982D01*
X21325851Y-41473651D01*
X21369421Y-41489544D01*
X21385426Y-41492033D01*
X21400904Y-41496809D01*
X21447028Y-41501614D01*
X21492843Y-41508740D01*
X21509024Y-41508073D01*
X21525138Y-41509752D01*
X21571325Y-41505506D01*
X21617643Y-41503597D01*
X21633386Y-41499800D01*
X21649519Y-41498317D01*
X21693997Y-41485182D01*
X21722794Y-41478237D01*
X21730618Y-41476636D01*
X21732221Y-41475963D01*
X21739068Y-41474312D01*
X21747488Y-41471320D01*
X21760223Y-41466695D01*
X21766073Y-41463897D01*
X21769311Y-41462941D01*
X21782274Y-41456149D01*
X21802532Y-41446461D01*
X21845795Y-41428307D01*
X21853629Y-41424007D01*
X21892839Y-41402126D01*
X21902886Y-41395153D01*
X21913904Y-41389839D01*
X21921503Y-41385136D01*
X21978444Y-41349352D01*
X21982586Y-41346145D01*
X21987241Y-41343724D01*
X21994694Y-41338793D01*
X22061940Y-41293637D01*
X22062002Y-41293586D01*
X22068336Y-41289285D01*
X22115688Y-41256651D01*
X22209672Y-41192220D01*
X22271488Y-41150043D01*
X22302040Y-41160201D01*
X22332464Y-41173525D01*
X22340980Y-41176234D01*
X22368056Y-41184641D01*
X22387769Y-41188705D01*
X22389068Y-41189137D01*
X22391118Y-41189396D01*
X22428574Y-41197118D01*
X22488960Y-41209709D01*
X22489682Y-41209716D01*
X22490389Y-41209862D01*
X22551761Y-41210343D01*
X22613860Y-41210970D01*
X22614578Y-41210835D01*
X22615291Y-41210841D01*
X22675566Y-41199397D01*
X22736626Y-41187946D01*
X22737297Y-41187678D01*
X22738005Y-41187543D01*
X22795110Y-41164528D01*
X22852582Y-41141515D01*
X22853190Y-41141120D01*
X22853857Y-41140851D01*
X22905434Y-41107163D01*
X22957311Y-41073445D01*
X22957829Y-41072941D01*
X22958432Y-41072547D01*
X23002311Y-41029652D01*
X23046824Y-40986332D01*
X23047699Y-40985281D01*
X23047749Y-40985232D01*
X23047793Y-40985168D01*
X23052541Y-40979464D01*
X23061402Y-40968668D01*
X23093700Y-40920381D01*
X23126673Y-40872513D01*
X23130841Y-40864854D01*
X23130847Y-40864846D01*
X23130850Y-40864838D01*
X23130945Y-40864664D01*
X23152949Y-40823557D01*
X23156690Y-40814552D01*
X23161861Y-40806283D01*
X23165780Y-40798253D01*
X23198281Y-40730478D01*
X23198783Y-40729101D01*
X23199538Y-40727842D01*
X23203308Y-40719740D01*
X23244497Y-40629600D01*
X23244536Y-40629488D01*
X23247275Y-40623435D01*
X23295343Y-40515232D01*
X23295395Y-40515074D01*
X23297188Y-40511036D01*
X23350329Y-40389068D01*
X23350376Y-40388922D01*
X23351727Y-40385834D01*
X23408130Y-40254404D01*
X23408171Y-40254276D01*
X23409313Y-40251630D01*
X23467170Y-40115040D01*
X23467209Y-40114915D01*
X23468272Y-40112423D01*
X23525776Y-39974972D01*
X23525815Y-39974844D01*
X23526906Y-39972254D01*
X23529701Y-39965485D01*
X23579495Y-40084878D01*
X23579560Y-40084999D01*
X23580603Y-40087517D01*
X23638505Y-40224622D01*
X23638567Y-40224737D01*
X23639669Y-40227362D01*
X23696475Y-40360145D01*
X23696546Y-40360274D01*
X23697830Y-40363289D01*
X23751734Y-40487447D01*
X23751808Y-40487581D01*
X23753482Y-40491437D01*
X23802676Y-40602669D01*
X23802744Y-40602789D01*
X23805228Y-40608364D01*
X23847903Y-40702367D01*
X23848301Y-40703057D01*
X23848563Y-40703818D01*
X23852335Y-40711919D01*
X23886685Y-40784392D01*
X23890371Y-40790537D01*
X23892948Y-40797236D01*
X23897011Y-40805195D01*
X23921227Y-40851835D01*
X23946787Y-40891136D01*
X23970397Y-40931640D01*
X23975680Y-40938848D01*
X23987954Y-40955352D01*
X24021379Y-40992165D01*
X24053318Y-41030296D01*
X24063303Y-41038338D01*
X24071918Y-41047827D01*
X24111852Y-41077444D01*
X24150593Y-41108648D01*
X24161952Y-41114599D01*
X24172244Y-41122232D01*
X24217175Y-41143531D01*
X24261235Y-41166614D01*
X24273527Y-41170244D01*
X24285112Y-41175735D01*
X24333336Y-41187903D01*
X24381028Y-41201985D01*
X24393793Y-41203158D01*
X24406222Y-41206294D01*
X24455892Y-41208864D01*
X24505411Y-41213414D01*
X24518158Y-41212086D01*
X24530961Y-41212748D01*
X24580178Y-41205622D01*
X24606975Y-41202829D01*
X24620983Y-41201793D01*
X24623448Y-41201113D01*
X24629643Y-41200467D01*
X24638386Y-41198616D01*
X24648594Y-41196381D01*
X24652303Y-41195179D01*
X24654578Y-41194850D01*
X24668655Y-41189882D01*
X24694674Y-41181453D01*
X24741387Y-41168560D01*
X24749705Y-41165294D01*
X24787832Y-41150020D01*
X24809264Y-41164616D01*
X24907696Y-41231960D01*
X24991385Y-41289549D01*
X24991521Y-41289624D01*
X24994488Y-41291670D01*
X25041019Y-41323289D01*
X25042944Y-41324338D01*
X25044639Y-41325731D01*
X25052099Y-41330651D01*
X25112578Y-41369935D01*
X25118822Y-41373172D01*
X25124415Y-41377441D01*
X25132047Y-41382090D01*
X25176890Y-41408982D01*
X25205539Y-41422555D01*
X25232759Y-41438832D01*
X25240867Y-41442591D01*
X25262769Y-41452562D01*
X25279178Y-41458173D01*
X25294633Y-41466041D01*
X25338160Y-41478341D01*
X25380956Y-41492975D01*
X25398143Y-41495292D01*
X25414832Y-41500008D01*
X25459924Y-41503620D01*
X25504743Y-41509662D01*
X25522049Y-41508597D01*
X25539340Y-41509982D01*
X25584263Y-41504768D01*
X25629413Y-41501989D01*
X25646193Y-41497580D01*
X25663413Y-41495581D01*
X25689984Y-41487040D01*
X25693468Y-41486518D01*
X25707694Y-41481419D01*
X25750218Y-41470245D01*
X25765813Y-41462665D01*
X25782326Y-41457357D01*
X25790501Y-41453748D01*
X25799911Y-41449515D01*
X25805259Y-41446450D01*
X25811050Y-41444374D01*
X25843805Y-41424756D01*
X25862557Y-41415642D01*
X25873631Y-41407260D01*
X25908278Y-41387401D01*
X25912922Y-41383362D01*
X25918207Y-41380196D01*
X25925351Y-41374828D01*
X25959365Y-41348899D01*
X25971354Y-41337751D01*
X25984828Y-41328441D01*
X25991609Y-41322620D01*
X26044045Y-41276969D01*
X26046821Y-41274030D01*
X26050087Y-41271642D01*
X26056711Y-41265643D01*
X26123005Y-41204759D01*
X26123355Y-41204368D01*
X26123776Y-41204050D01*
X26130305Y-41197949D01*
X26205893Y-41126324D01*
X26205954Y-41126254D01*
X26211205Y-41121232D01*
X26291522Y-41043354D01*
X26291607Y-41043254D01*
X26296158Y-41038813D01*
X26376641Y-40959175D01*
X26376715Y-40959086D01*
X26381472Y-40954344D01*
X26457283Y-40877709D01*
X26457289Y-40877704D01*
X26457373Y-40877617D01*
X26457556Y-40877433D01*
X26457567Y-40877419D01*
X26463533Y-40871311D01*
X26530655Y-40801620D01*
X26531960Y-40799969D01*
X26533557Y-40798588D01*
X26539668Y-40792068D01*
X26593263Y-40734087D01*
X26598649Y-40726978D01*
X26605147Y-40720867D01*
X26610981Y-40714098D01*
X26646485Y-40672318D01*
X26672605Y-40634677D01*
X26700650Y-40598457D01*
X26705352Y-40590858D01*
X26718202Y-40569767D01*
X26736187Y-40532481D01*
X26756603Y-40496448D01*
X26763269Y-40476333D01*
X26772467Y-40457264D01*
X26782866Y-40417201D01*
X26795896Y-40377883D01*
X26798527Y-40356862D01*
X26803848Y-40336364D01*
X26806269Y-40295023D01*
X26811411Y-40253944D01*
X26809910Y-40232824D01*
X26811149Y-40211672D01*
X26805493Y-40170650D01*
X26802559Y-40129352D01*
X26800997Y-40120554D01*
X26800256Y-40116542D01*
X26796185Y-40102405D01*
X26794268Y-40087826D01*
X26778934Y-40042497D01*
X26765692Y-39996513D01*
X26758957Y-39983444D01*
X26754242Y-39969507D01*
X26750509Y-39961388D01*
X26735216Y-39928727D01*
X26723386Y-39908796D01*
X26714095Y-39887563D01*
X26709676Y-39879796D01*
X26677007Y-39823288D01*
X26673434Y-39818304D01*
X26670792Y-39812771D01*
X26666119Y-39805154D01*
X26619231Y-39729904D01*
X26617951Y-39728237D01*
X26617003Y-39726353D01*
X26612174Y-39718834D01*
X26554223Y-39629946D01*
X26553680Y-39629268D01*
X26553271Y-39628488D01*
X26548318Y-39621050D01*
X26482462Y-39523629D01*
X26482357Y-39523502D01*
X26479671Y-39519535D01*
X26461562Y-39493189D01*
X26426587Y-39442195D01*
X26428359Y-39437499D01*
X26437482Y-39414208D01*
X26494422Y-39403575D01*
X26647871Y-39375467D01*
X26647960Y-39375441D01*
X26649507Y-39375165D01*
X26681579Y-39369204D01*
X26681644Y-39369185D01*
X26681716Y-39369179D01*
X26690490Y-39367482D01*
X26782367Y-39349054D01*
X26785524Y-39348092D01*
X26788808Y-39347728D01*
X26797538Y-39345820D01*
X26874824Y-39328360D01*
X26882246Y-39325901D01*
X26889978Y-39324742D01*
X26898628Y-39322501D01*
X26953999Y-39307742D01*
X26984516Y-39296317D01*
X27015977Y-39287795D01*
X27020176Y-39286170D01*
X27043595Y-39471025D01*
X27161211Y-39823151D01*
X27286685Y-40057896D01*
X27576623Y-40183771D01*
X28710395Y-39050000D01*
X27576623Y-37916229D01*
X27476546Y-37959677D01*
X27474978Y-37914909D01*
X27474411Y-37910666D01*
X27474623Y-37906387D01*
X27474129Y-37897465D01*
X27469192Y-37818316D01*
X27467084Y-37805258D01*
X27467008Y-37792034D01*
X27466023Y-37783153D01*
X27460532Y-37736623D01*
X27756229Y-37736623D01*
X28890000Y-38870395D01*
X30023771Y-37736623D01*
X29897896Y-37446685D01*
X29565738Y-37280861D01*
X29207613Y-37183025D01*
X28837281Y-37156935D01*
X28468975Y-37203595D01*
X28116849Y-37321211D01*
X27882104Y-37446685D01*
X27756229Y-37736623D01*
X27460532Y-37736623D01*
X27459538Y-37728200D01*
X27446742Y-37669664D01*
X27434399Y-37610981D01*
X27432897Y-37606326D01*
X27432864Y-37606175D01*
X27432803Y-37606035D01*
X27431655Y-37602477D01*
X27423618Y-37578145D01*
X27418030Y-37565522D01*
X27414420Y-37552184D01*
X27392780Y-37508484D01*
X27373056Y-37463930D01*
X27365121Y-37452631D01*
X27358990Y-37440250D01*
X27329273Y-37401585D01*
X27301272Y-37361712D01*
X27291295Y-37352170D01*
X27282875Y-37341215D01*
X27246233Y-37309075D01*
X27211002Y-37275382D01*
X27199350Y-37267953D01*
X27188972Y-37258850D01*
X27146792Y-37234443D01*
X27105681Y-37208231D01*
X27092816Y-37203210D01*
X27080861Y-37196292D01*
X27072701Y-37192650D01*
X27064494Y-37189055D01*
X27025512Y-37176347D01*
X26987467Y-37161043D01*
X26978873Y-37158593D01*
X26938051Y-37147263D01*
X26929012Y-37145683D01*
X26920355Y-37142622D01*
X26911664Y-37140540D01*
X26842659Y-37124514D01*
X26841268Y-37124332D01*
X26839928Y-37123885D01*
X26831200Y-37121963D01*
X26739522Y-37102436D01*
X26739441Y-37102427D01*
X26732064Y-37100894D01*
X26623217Y-37079061D01*
X26623083Y-37079048D01*
X26617052Y-37077856D01*
X26496544Y-37054912D01*
X26496418Y-37054901D01*
X26494063Y-37054445D01*
X26429326Y-37042384D01*
X26410435Y-37038823D01*
X26459205Y-36967379D01*
X26496694Y-36912557D01*
X26496770Y-36912419D01*
X26499328Y-36908675D01*
X26564540Y-36811797D01*
X26564595Y-36811696D01*
X26568356Y-36806062D01*
X26624267Y-36721040D01*
X26624387Y-36720811D01*
X26624552Y-36720607D01*
X26629403Y-36713102D01*
X26673033Y-36644571D01*
X26675029Y-36640635D01*
X26677707Y-36637118D01*
X26682349Y-36629481D01*
X26710713Y-36582079D01*
X26722735Y-36556640D01*
X26737426Y-36532631D01*
X26741267Y-36524563D01*
X26751385Y-36502926D01*
X26761064Y-36475535D01*
X26764082Y-36469149D01*
X26765951Y-36461705D01*
X26770671Y-36448348D01*
X26790766Y-36393951D01*
X26791486Y-36389444D01*
X26793001Y-36385156D01*
X26801315Y-36327899D01*
X26810465Y-36270608D01*
X26810296Y-36266051D01*
X26810950Y-36261546D01*
X26807981Y-36203691D01*
X26805832Y-36145787D01*
X26804783Y-36141357D01*
X26804549Y-36136804D01*
X26790385Y-36080573D01*
X26777042Y-36024244D01*
X26775153Y-36020103D01*
X26774039Y-36015682D01*
X26749237Y-35963304D01*
X26733507Y-35928827D01*
X26729793Y-35919809D01*
X26728511Y-35917878D01*
X26725194Y-35910608D01*
X26720655Y-35902910D01*
X26713624Y-35891174D01*
X26686193Y-35854138D01*
X26660706Y-35815749D01*
X26655012Y-35808862D01*
X26625605Y-35773793D01*
X26619641Y-35767949D01*
X26614748Y-35761182D01*
X26608783Y-35754528D01*
X26560539Y-35701455D01*
X26559762Y-35700752D01*
X26559129Y-35699908D01*
X26553051Y-35693358D01*
X26490399Y-35626777D01*
X26490306Y-35626696D01*
X26485795Y-35621936D01*
X26413163Y-35546345D01*
X26413045Y-35546244D01*
X26409677Y-35542745D01*
X26331493Y-35462643D01*
X26331374Y-35462542D01*
X26328339Y-35459434D01*
X26249033Y-35379316D01*
X26248909Y-35379213D01*
X26245649Y-35375923D01*
X26169651Y-35300288D01*
X26169545Y-35300202D01*
X26165306Y-35296005D01*
X26097042Y-35229349D01*
X26096832Y-35229180D01*
X26096656Y-35228972D01*
X26090213Y-35222780D01*
X26034111Y-35169599D01*
X26029838Y-35166276D01*
X26026224Y-35162248D01*
X26019594Y-35156257D01*
X25980084Y-35121051D01*
X25951433Y-35100156D01*
X25924654Y-35076913D01*
X25917330Y-35071793D01*
X25898841Y-35059059D01*
X25883258Y-35050437D01*
X25879164Y-35047451D01*
X25878293Y-35047047D01*
X25865914Y-35037837D01*
X25827128Y-35019379D01*
X25789549Y-34998586D01*
X25770859Y-34992601D01*
X25753128Y-34984163D01*
X25711479Y-34973586D01*
X25670594Y-34960494D01*
X25651101Y-34958253D01*
X25632064Y-34953419D01*
X25589162Y-34951134D01*
X25546505Y-34946231D01*
X25526940Y-34947820D01*
X25507335Y-34946776D01*
X25464818Y-34952866D01*
X25422008Y-34956343D01*
X25403121Y-34961703D01*
X25383691Y-34964486D01*
X25343168Y-34978717D01*
X25301847Y-34990444D01*
X25284364Y-34999369D01*
X25265841Y-35005874D01*
X25257766Y-35009700D01*
X25247501Y-35014651D01*
X25224560Y-35028628D01*
X25200199Y-35039964D01*
X25192536Y-35044561D01*
X25154849Y-35067525D01*
X25152299Y-35069444D01*
X25149438Y-35070859D01*
X25141887Y-35075637D01*
X25081069Y-35114718D01*
X25080974Y-35114793D01*
X25075351Y-35118436D01*
X24995786Y-35170770D01*
X24995664Y-35170869D01*
X24992071Y-35173232D01*
X24898141Y-35235956D01*
X24898024Y-35236052D01*
X24895108Y-35237994D01*
X24791198Y-35308243D01*
X24791124Y-35308304D01*
X24789769Y-35309212D01*
X24720876Y-35356059D01*
X24705136Y-35272566D01*
X24705135Y-35272562D01*
X24621316Y-34827943D01*
X24621121Y-34827275D01*
X24621058Y-34826583D01*
X24603615Y-34767318D01*
X24586309Y-34708043D01*
X24585989Y-34707427D01*
X24585792Y-34706759D01*
X24557194Y-34652057D01*
X24528680Y-34597226D01*
X24528244Y-34596682D01*
X24527923Y-34596067D01*
X24489336Y-34548074D01*
X24475696Y-34531034D01*
X24681011Y-34445990D01*
X24924232Y-34283475D01*
X25131075Y-34076632D01*
X25247600Y-33902240D01*
X25364125Y-34076632D01*
X25570968Y-34283475D01*
X25814189Y-34445990D01*
X26084442Y-34557932D01*
X26371340Y-34615000D01*
X26663860Y-34615000D01*
X26950758Y-34557932D01*
X27221011Y-34445990D01*
X27464232Y-34283475D01*
X27671075Y-34076632D01*
X27787600Y-33902240D01*
X27904125Y-34076632D01*
X28110968Y-34283475D01*
X28354189Y-34445990D01*
X28624442Y-34557932D01*
X28911340Y-34615000D01*
X29203860Y-34615000D01*
X29490758Y-34557932D01*
X29761011Y-34445990D01*
X30004232Y-34283475D01*
X30211075Y-34076632D01*
X30327600Y-33902240D01*
X30444125Y-34076632D01*
X30650968Y-34283475D01*
X30894189Y-34445990D01*
X31164442Y-34557932D01*
X31451340Y-34615000D01*
X31743860Y-34615000D01*
X32030758Y-34557932D01*
X32301011Y-34445990D01*
X32544232Y-34283475D01*
X32751075Y-34076632D01*
X32867600Y-33902240D01*
X32984125Y-34076632D01*
X33190968Y-34283475D01*
X33434189Y-34445990D01*
X33704442Y-34557932D01*
X33991340Y-34615000D01*
X34283860Y-34615000D01*
X34570758Y-34557932D01*
X34841011Y-34445990D01*
X35084232Y-34283475D01*
X35291075Y-34076632D01*
X35407600Y-33902240D01*
X35524125Y-34076632D01*
X35730968Y-34283475D01*
X35974189Y-34445990D01*
X36244442Y-34557932D01*
X36531340Y-34615000D01*
X36823860Y-34615000D01*
X37110758Y-34557932D01*
X37381011Y-34445990D01*
X37624232Y-34283475D01*
X37831075Y-34076632D01*
X37947600Y-33902240D01*
X38064125Y-34076632D01*
X38270968Y-34283475D01*
X38514189Y-34445990D01*
X38784442Y-34557932D01*
X39071340Y-34615000D01*
X39363860Y-34615000D01*
X39650758Y-34557932D01*
X39921011Y-34445990D01*
X40164232Y-34283475D01*
X40371075Y-34076632D01*
X40533590Y-33833411D01*
X40564113Y-33759721D01*
X41995000Y-33759721D01*
X41995000Y-34180279D01*
X42077047Y-34592756D01*
X42237988Y-34981302D01*
X42471637Y-35330983D01*
X42769017Y-35628363D01*
X43118698Y-35862012D01*
X43507244Y-36022953D01*
X43919721Y-36105000D01*
X44340279Y-36105000D01*
X44752756Y-36022953D01*
X45141302Y-35862012D01*
X45490983Y-35628363D01*
X45788363Y-35330983D01*
X46022012Y-34981302D01*
X46182953Y-34592756D01*
X46265000Y-34180279D01*
X46265000Y-33759721D01*
X46182953Y-33347244D01*
X46022012Y-32958698D01*
X45788363Y-32609017D01*
X45490983Y-32311637D01*
X45141302Y-32077988D01*
X44752756Y-31917047D01*
X44340279Y-31835000D01*
X43919721Y-31835000D01*
X43507244Y-31917047D01*
X43118698Y-32077988D01*
X42769017Y-32311637D01*
X42471637Y-32609017D01*
X42237988Y-32958698D01*
X42077047Y-33347244D01*
X41995000Y-33759721D01*
X40564113Y-33759721D01*
X40645532Y-33563158D01*
X40702600Y-33276260D01*
X40702600Y-32983740D01*
X40645532Y-32696842D01*
X40572245Y-32519910D01*
X46936037Y-26156119D01*
X47124468Y-26193600D01*
X47485932Y-26193600D01*
X47830044Y-26125152D01*
X47823415Y-26147006D01*
G37*
X47823415Y-26147006D02*
X47803914Y-26345000D01*
X47808801Y-26394618D01*
X47808800Y-35040044D01*
X45403245Y-37445600D01*
X43115756Y-37445600D01*
X41414661Y-35744506D01*
X41383033Y-35705967D01*
X41229240Y-35579753D01*
X41053780Y-35485968D01*
X40863394Y-35428215D01*
X40715008Y-35413600D01*
X40665400Y-35408714D01*
X40615792Y-35413600D01*
X35457208Y-35413600D01*
X35407600Y-35408714D01*
X35209605Y-35428215D01*
X35031397Y-35482274D01*
X35019220Y-35485968D01*
X34843760Y-35579753D01*
X34689967Y-35705967D01*
X34658344Y-35744500D01*
X30641226Y-39761618D01*
X30659139Y-39725738D01*
X30756975Y-39367613D01*
X30783065Y-38997281D01*
X30736405Y-38628975D01*
X30618789Y-38276849D01*
X30493315Y-38042104D01*
X30203377Y-37916229D01*
X29069605Y-39050000D01*
X29083748Y-39064142D01*
X28904142Y-39243748D01*
X28890000Y-39229605D01*
X27756229Y-40363377D01*
X27882104Y-40653315D01*
X28214262Y-40819139D01*
X28572387Y-40916975D01*
X28942719Y-40943065D01*
X29311025Y-40896405D01*
X29604448Y-40798397D01*
X28156645Y-42246200D01*
X23121004Y-42246200D01*
X23071399Y-42241314D01*
X23021794Y-42246200D01*
X23021792Y-42246200D01*
X22873406Y-42260815D01*
X22810162Y-42280000D01*
X22527707Y-42280000D01*
X22384232Y-42136525D01*
X22141011Y-41974010D01*
X21870758Y-41862068D01*
X21583860Y-41805000D01*
X21291340Y-41805000D01*
X21004442Y-41862068D01*
X20734189Y-41974010D01*
X20660000Y-42023581D01*
X20660000Y-40937389D01*
X20749167Y-41025000D01*
X20749262Y-41025076D01*
X20753976Y-41029675D01*
X20807496Y-41081170D01*
X20807614Y-41081263D01*
X20810983Y-41084501D01*
X20895607Y-41164703D01*
X20895697Y-41164773D01*
X20900647Y-41169428D01*
X20974713Y-41238123D01*
X20974987Y-41238332D01*
X20975216Y-41238589D01*
X20981817Y-41244612D01*
X21041350Y-41298186D01*
X21045184Y-41301011D01*
X21048451Y-41304482D01*
X21055222Y-41310313D01*
X21096246Y-41345145D01*
X21121907Y-41362936D01*
X21145708Y-41383155D01*
X21153086Y-41388197D01*
X21171622Y-41400675D01*
X21192887Y-41412148D01*
X21198895Y-41416313D01*
X21207781Y-41420183D01*
X21212430Y-41422691D01*
X21252077Y-41446741D01*
X21267299Y-41452293D01*
X21281550Y-41459982D01*
X21325851Y-41473651D01*
X21369421Y-41489544D01*
X21385426Y-41492033D01*
X21400904Y-41496809D01*
X21447028Y-41501614D01*
X21492843Y-41508740D01*
X21509024Y-41508073D01*
X21525138Y-41509752D01*
X21571325Y-41505506D01*
X21617643Y-41503597D01*
X21633386Y-41499800D01*
X21649519Y-41498317D01*
X21693997Y-41485182D01*
X21722794Y-41478237D01*
X21730618Y-41476636D01*
X21732221Y-41475963D01*
X21739068Y-41474312D01*
X21747488Y-41471320D01*
X21760223Y-41466695D01*
X21766073Y-41463897D01*
X21769311Y-41462941D01*
X21782274Y-41456149D01*
X21802532Y-41446461D01*
X21845795Y-41428307D01*
X21853629Y-41424007D01*
X21892839Y-41402126D01*
X21902886Y-41395153D01*
X21913904Y-41389839D01*
X21921503Y-41385136D01*
X21978444Y-41349352D01*
X21982586Y-41346145D01*
X21987241Y-41343724D01*
X21994694Y-41338793D01*
X22061940Y-41293637D01*
X22062002Y-41293586D01*
X22068336Y-41289285D01*
X22115688Y-41256651D01*
X22209672Y-41192220D01*
X22271488Y-41150043D01*
X22302040Y-41160201D01*
X22332464Y-41173525D01*
X22340980Y-41176234D01*
X22368056Y-41184641D01*
X22387769Y-41188705D01*
X22389068Y-41189137D01*
X22391118Y-41189396D01*
X22428574Y-41197118D01*
X22488960Y-41209709D01*
X22489682Y-41209716D01*
X22490389Y-41209862D01*
X22551761Y-41210343D01*
X22613860Y-41210970D01*
X22614578Y-41210835D01*
X22615291Y-41210841D01*
X22675566Y-41199397D01*
X22736626Y-41187946D01*
X22737297Y-41187678D01*
X22738005Y-41187543D01*
X22795110Y-41164528D01*
X22852582Y-41141515D01*
X22853190Y-41141120D01*
X22853857Y-41140851D01*
X22905434Y-41107163D01*
X22957311Y-41073445D01*
X22957829Y-41072941D01*
X22958432Y-41072547D01*
X23002311Y-41029652D01*
X23046824Y-40986332D01*
X23047699Y-40985281D01*
X23047749Y-40985232D01*
X23047793Y-40985168D01*
X23052541Y-40979464D01*
X23061402Y-40968668D01*
X23093700Y-40920381D01*
X23126673Y-40872513D01*
X23130841Y-40864854D01*
X23130847Y-40864846D01*
X23130850Y-40864838D01*
X23130945Y-40864664D01*
X23152949Y-40823557D01*
X23156690Y-40814552D01*
X23161861Y-40806283D01*
X23165780Y-40798253D01*
X23198281Y-40730478D01*
X23198783Y-40729101D01*
X23199538Y-40727842D01*
X23203308Y-40719740D01*
X23244497Y-40629600D01*
X23244536Y-40629488D01*
X23247275Y-40623435D01*
X23295343Y-40515232D01*
X23295395Y-40515074D01*
X23297188Y-40511036D01*
X23350329Y-40389068D01*
X23350376Y-40388922D01*
X23351727Y-40385834D01*
X23408130Y-40254404D01*
X23408171Y-40254276D01*
X23409313Y-40251630D01*
X23467170Y-40115040D01*
X23467209Y-40114915D01*
X23468272Y-40112423D01*
X23525776Y-39974972D01*
X23525815Y-39974844D01*
X23526906Y-39972254D01*
X23529701Y-39965485D01*
X23579495Y-40084878D01*
X23579560Y-40084999D01*
X23580603Y-40087517D01*
X23638505Y-40224622D01*
X23638567Y-40224737D01*
X23639669Y-40227362D01*
X23696475Y-40360145D01*
X23696546Y-40360274D01*
X23697830Y-40363289D01*
X23751734Y-40487447D01*
X23751808Y-40487581D01*
X23753482Y-40491437D01*
X23802676Y-40602669D01*
X23802744Y-40602789D01*
X23805228Y-40608364D01*
X23847903Y-40702367D01*
X23848301Y-40703057D01*
X23848563Y-40703818D01*
X23852335Y-40711919D01*
X23886685Y-40784392D01*
X23890371Y-40790537D01*
X23892948Y-40797236D01*
X23897011Y-40805195D01*
X23921227Y-40851835D01*
X23946787Y-40891136D01*
X23970397Y-40931640D01*
X23975680Y-40938848D01*
X23987954Y-40955352D01*
X24021379Y-40992165D01*
X24053318Y-41030296D01*
X24063303Y-41038338D01*
X24071918Y-41047827D01*
X24111852Y-41077444D01*
X24150593Y-41108648D01*
X24161952Y-41114599D01*
X24172244Y-41122232D01*
X24217175Y-41143531D01*
X24261235Y-41166614D01*
X24273527Y-41170244D01*
X24285112Y-41175735D01*
X24333336Y-41187903D01*
X24381028Y-41201985D01*
X24393793Y-41203158D01*
X24406222Y-41206294D01*
X24455892Y-41208864D01*
X24505411Y-41213414D01*
X24518158Y-41212086D01*
X24530961Y-41212748D01*
X24580178Y-41205622D01*
X24606975Y-41202829D01*
X24620983Y-41201793D01*
X24623448Y-41201113D01*
X24629643Y-41200467D01*
X24638386Y-41198616D01*
X24648594Y-41196381D01*
X24652303Y-41195179D01*
X24654578Y-41194850D01*
X24668655Y-41189882D01*
X24694674Y-41181453D01*
X24741387Y-41168560D01*
X24749705Y-41165294D01*
X24787832Y-41150020D01*
X24809264Y-41164616D01*
X24907696Y-41231960D01*
X24991385Y-41289549D01*
X24991521Y-41289624D01*
X24994488Y-41291670D01*
X25041019Y-41323289D01*
X25042944Y-41324338D01*
X25044639Y-41325731D01*
X25052099Y-41330651D01*
X25112578Y-41369935D01*
X25118822Y-41373172D01*
X25124415Y-41377441D01*
X25132047Y-41382090D01*
X25176890Y-41408982D01*
X25205539Y-41422555D01*
X25232759Y-41438832D01*
X25240867Y-41442591D01*
X25262769Y-41452562D01*
X25279178Y-41458173D01*
X25294633Y-41466041D01*
X25338160Y-41478341D01*
X25380956Y-41492975D01*
X25398143Y-41495292D01*
X25414832Y-41500008D01*
X25459924Y-41503620D01*
X25504743Y-41509662D01*
X25522049Y-41508597D01*
X25539340Y-41509982D01*
X25584263Y-41504768D01*
X25629413Y-41501989D01*
X25646193Y-41497580D01*
X25663413Y-41495581D01*
X25689984Y-41487040D01*
X25693468Y-41486518D01*
X25707694Y-41481419D01*
X25750218Y-41470245D01*
X25765813Y-41462665D01*
X25782326Y-41457357D01*
X25790501Y-41453748D01*
X25799911Y-41449515D01*
X25805259Y-41446450D01*
X25811050Y-41444374D01*
X25843805Y-41424756D01*
X25862557Y-41415642D01*
X25873631Y-41407260D01*
X25908278Y-41387401D01*
X25912922Y-41383362D01*
X25918207Y-41380196D01*
X25925351Y-41374828D01*
X25959365Y-41348899D01*
X25971354Y-41337751D01*
X25984828Y-41328441D01*
X25991609Y-41322620D01*
X26044045Y-41276969D01*
X26046821Y-41274030D01*
X26050087Y-41271642D01*
X26056711Y-41265643D01*
X26123005Y-41204759D01*
X26123355Y-41204368D01*
X26123776Y-41204050D01*
X26130305Y-41197949D01*
X26205893Y-41126324D01*
X26205954Y-41126254D01*
X26211205Y-41121232D01*
X26291522Y-41043354D01*
X26291607Y-41043254D01*
X26296158Y-41038813D01*
X26376641Y-40959175D01*
X26376715Y-40959086D01*
X26381472Y-40954344D01*
X26457283Y-40877709D01*
X26457289Y-40877704D01*
X26457373Y-40877617D01*
X26457556Y-40877433D01*
X26457567Y-40877419D01*
X26463533Y-40871311D01*
X26530655Y-40801620D01*
X26531960Y-40799969D01*
X26533557Y-40798588D01*
X26539668Y-40792068D01*
X26593263Y-40734087D01*
X26598649Y-40726978D01*
X26605147Y-40720867D01*
X26610981Y-40714098D01*
X26646485Y-40672318D01*
X26672605Y-40634677D01*
X26700650Y-40598457D01*
X26705352Y-40590858D01*
X26718202Y-40569767D01*
X26736187Y-40532481D01*
X26756603Y-40496448D01*
X26763269Y-40476333D01*
X26772467Y-40457264D01*
X26782866Y-40417201D01*
X26795896Y-40377883D01*
X26798527Y-40356862D01*
X26803848Y-40336364D01*
X26806269Y-40295023D01*
X26811411Y-40253944D01*
X26809910Y-40232824D01*
X26811149Y-40211672D01*
X26805493Y-40170650D01*
X26802559Y-40129352D01*
X26800997Y-40120554D01*
X26800256Y-40116542D01*
X26796185Y-40102405D01*
X26794268Y-40087826D01*
X26778934Y-40042497D01*
X26765692Y-39996513D01*
X26758957Y-39983444D01*
X26754242Y-39969507D01*
X26750509Y-39961388D01*
X26735216Y-39928727D01*
X26723386Y-39908796D01*
X26714095Y-39887563D01*
X26709676Y-39879796D01*
X26677007Y-39823288D01*
X26673434Y-39818304D01*
X26670792Y-39812771D01*
X26666119Y-39805154D01*
X26619231Y-39729904D01*
X26617951Y-39728237D01*
X26617003Y-39726353D01*
X26612174Y-39718834D01*
X26554223Y-39629946D01*
X26553680Y-39629268D01*
X26553271Y-39628488D01*
X26548318Y-39621050D01*
X26482462Y-39523629D01*
X26482357Y-39523502D01*
X26479671Y-39519535D01*
X26461562Y-39493189D01*
X26426587Y-39442195D01*
X26428359Y-39437499D01*
X26437482Y-39414208D01*
X26494422Y-39403575D01*
X26647871Y-39375467D01*
X26647960Y-39375441D01*
X26649507Y-39375165D01*
X26681579Y-39369204D01*
X26681644Y-39369185D01*
X26681716Y-39369179D01*
X26690490Y-39367482D01*
X26782367Y-39349054D01*
X26785524Y-39348092D01*
X26788808Y-39347728D01*
X26797538Y-39345820D01*
X26874824Y-39328360D01*
X26882246Y-39325901D01*
X26889978Y-39324742D01*
X26898628Y-39322501D01*
X26953999Y-39307742D01*
X26984516Y-39296317D01*
X27015977Y-39287795D01*
X27020176Y-39286170D01*
X27043595Y-39471025D01*
X27161211Y-39823151D01*
X27286685Y-40057896D01*
X27576623Y-40183771D01*
X28710395Y-39050000D01*
X27576623Y-37916229D01*
X27476546Y-37959677D01*
X27474978Y-37914909D01*
X27474411Y-37910666D01*
X27474623Y-37906387D01*
X27474129Y-37897465D01*
X27469192Y-37818316D01*
X27467084Y-37805258D01*
X27467008Y-37792034D01*
X27466023Y-37783153D01*
X27460532Y-37736623D01*
X27756229Y-37736623D01*
X28890000Y-38870395D01*
X30023771Y-37736623D01*
X29897896Y-37446685D01*
X29565738Y-37280861D01*
X29207613Y-37183025D01*
X28837281Y-37156935D01*
X28468975Y-37203595D01*
X28116849Y-37321211D01*
X27882104Y-37446685D01*
X27756229Y-37736623D01*
X27460532Y-37736623D01*
X27459538Y-37728200D01*
X27446742Y-37669664D01*
X27434399Y-37610981D01*
X27432897Y-37606326D01*
X27432864Y-37606175D01*
X27432803Y-37606035D01*
X27431655Y-37602477D01*
X27423618Y-37578145D01*
X27418030Y-37565522D01*
X27414420Y-37552184D01*
X27392780Y-37508484D01*
X27373056Y-37463930D01*
X27365121Y-37452631D01*
X27358990Y-37440250D01*
X27329273Y-37401585D01*
X27301272Y-37361712D01*
X27291295Y-37352170D01*
X27282875Y-37341215D01*
X27246233Y-37309075D01*
X27211002Y-37275382D01*
X27199350Y-37267953D01*
X27188972Y-37258850D01*
X27146792Y-37234443D01*
X27105681Y-37208231D01*
X27092816Y-37203210D01*
X27080861Y-37196292D01*
X27072701Y-37192650D01*
X27064494Y-37189055D01*
X27025512Y-37176347D01*
X26987467Y-37161043D01*
X26978873Y-37158593D01*
X26938051Y-37147263D01*
X26929012Y-37145683D01*
X26920355Y-37142622D01*
X26911664Y-37140540D01*
X26842659Y-37124514D01*
X26841268Y-37124332D01*
X26839928Y-37123885D01*
X26831200Y-37121963D01*
X26739522Y-37102436D01*
X26739441Y-37102427D01*
X26732064Y-37100894D01*
X26623217Y-37079061D01*
X26623083Y-37079048D01*
X26617052Y-37077856D01*
X26496544Y-37054912D01*
X26496418Y-37054901D01*
X26494063Y-37054445D01*
X26429326Y-37042384D01*
X26410435Y-37038823D01*
X26459205Y-36967379D01*
X26496694Y-36912557D01*
X26496770Y-36912419D01*
X26499328Y-36908675D01*
X26564540Y-36811797D01*
X26564595Y-36811696D01*
X26568356Y-36806062D01*
X26624267Y-36721040D01*
X26624387Y-36720811D01*
X26624552Y-36720607D01*
X26629403Y-36713102D01*
X26673033Y-36644571D01*
X26675029Y-36640635D01*
X26677707Y-36637118D01*
X26682349Y-36629481D01*
X26710713Y-36582079D01*
X26722735Y-36556640D01*
X26737426Y-36532631D01*
X26741267Y-36524563D01*
X26751385Y-36502926D01*
X26761064Y-36475535D01*
X26764082Y-36469149D01*
X26765951Y-36461705D01*
X26770671Y-36448348D01*
X26790766Y-36393951D01*
X26791486Y-36389444D01*
X26793001Y-36385156D01*
X26801315Y-36327899D01*
X26810465Y-36270608D01*
X26810296Y-36266051D01*
X26810950Y-36261546D01*
X26807981Y-36203691D01*
X26805832Y-36145787D01*
X26804783Y-36141357D01*
X26804549Y-36136804D01*
X26790385Y-36080573D01*
X26777042Y-36024244D01*
X26775153Y-36020103D01*
X26774039Y-36015682D01*
X26749237Y-35963304D01*
X26733507Y-35928827D01*
X26729793Y-35919809D01*
X26728511Y-35917878D01*
X26725194Y-35910608D01*
X26720655Y-35902910D01*
X26713624Y-35891174D01*
X26686193Y-35854138D01*
X26660706Y-35815749D01*
X26655012Y-35808862D01*
X26625605Y-35773793D01*
X26619641Y-35767949D01*
X26614748Y-35761182D01*
X26608783Y-35754528D01*
X26560539Y-35701455D01*
X26559762Y-35700752D01*
X26559129Y-35699908D01*
X26553051Y-35693358D01*
X26490399Y-35626777D01*
X26490306Y-35626696D01*
X26485795Y-35621936D01*
X26413163Y-35546345D01*
X26413045Y-35546244D01*
X26409677Y-35542745D01*
X26331493Y-35462643D01*
X26331374Y-35462542D01*
X26328339Y-35459434D01*
X26249033Y-35379316D01*
X26248909Y-35379213D01*
X26245649Y-35375923D01*
X26169651Y-35300288D01*
X26169545Y-35300202D01*
X26165306Y-35296005D01*
X26097042Y-35229349D01*
X26096832Y-35229180D01*
X26096656Y-35228972D01*
X26090213Y-35222780D01*
X26034111Y-35169599D01*
X26029838Y-35166276D01*
X26026224Y-35162248D01*
X26019594Y-35156257D01*
X25980084Y-35121051D01*
X25951433Y-35100156D01*
X25924654Y-35076913D01*
X25917330Y-35071793D01*
X25898841Y-35059059D01*
X25883258Y-35050437D01*
X25879164Y-35047451D01*
X25878293Y-35047047D01*
X25865914Y-35037837D01*
X25827128Y-35019379D01*
X25789549Y-34998586D01*
X25770859Y-34992601D01*
X25753128Y-34984163D01*
X25711479Y-34973586D01*
X25670594Y-34960494D01*
X25651101Y-34958253D01*
X25632064Y-34953419D01*
X25589162Y-34951134D01*
X25546505Y-34946231D01*
X25526940Y-34947820D01*
X25507335Y-34946776D01*
X25464818Y-34952866D01*
X25422008Y-34956343D01*
X25403121Y-34961703D01*
X25383691Y-34964486D01*
X25343168Y-34978717D01*
X25301847Y-34990444D01*
X25284364Y-34999369D01*
X25265841Y-35005874D01*
X25257766Y-35009700D01*
X25247501Y-35014651D01*
X25224560Y-35028628D01*
X25200199Y-35039964D01*
X25192536Y-35044561D01*
X25154849Y-35067525D01*
X25152299Y-35069444D01*
X25149438Y-35070859D01*
X25141887Y-35075637D01*
X25081069Y-35114718D01*
X25080974Y-35114793D01*
X25075351Y-35118436D01*
X24995786Y-35170770D01*
X24995664Y-35170869D01*
X24992071Y-35173232D01*
X24898141Y-35235956D01*
X24898024Y-35236052D01*
X24895108Y-35237994D01*
X24791198Y-35308243D01*
X24791124Y-35308304D01*
X24789769Y-35309212D01*
X24720876Y-35356059D01*
X24705136Y-35272566D01*
X24705135Y-35272562D01*
X24621316Y-34827943D01*
X24621121Y-34827275D01*
X24621058Y-34826583D01*
X24603615Y-34767318D01*
X24586309Y-34708043D01*
X24585989Y-34707427D01*
X24585792Y-34706759D01*
X24557194Y-34652057D01*
X24528680Y-34597226D01*
X24528244Y-34596682D01*
X24527923Y-34596067D01*
X24489336Y-34548074D01*
X24475696Y-34531034D01*
X24681011Y-34445990D01*
X24924232Y-34283475D01*
X25131075Y-34076632D01*
X25247600Y-33902240D01*
X25364125Y-34076632D01*
X25570968Y-34283475D01*
X25814189Y-34445990D01*
X26084442Y-34557932D01*
X26371340Y-34615000D01*
X26663860Y-34615000D01*
X26950758Y-34557932D01*
X27221011Y-34445990D01*
X27464232Y-34283475D01*
X27671075Y-34076632D01*
X27787600Y-33902240D01*
X27904125Y-34076632D01*
X28110968Y-34283475D01*
X28354189Y-34445990D01*
X28624442Y-34557932D01*
X28911340Y-34615000D01*
X29203860Y-34615000D01*
X29490758Y-34557932D01*
X29761011Y-34445990D01*
X30004232Y-34283475D01*
X30211075Y-34076632D01*
X30327600Y-33902240D01*
X30444125Y-34076632D01*
X30650968Y-34283475D01*
X30894189Y-34445990D01*
X31164442Y-34557932D01*
X31451340Y-34615000D01*
X31743860Y-34615000D01*
X32030758Y-34557932D01*
X32301011Y-34445990D01*
X32544232Y-34283475D01*
X32751075Y-34076632D01*
X32867600Y-33902240D01*
X32984125Y-34076632D01*
X33190968Y-34283475D01*
X33434189Y-34445990D01*
X33704442Y-34557932D01*
X33991340Y-34615000D01*
X34283860Y-34615000D01*
X34570758Y-34557932D01*
X34841011Y-34445990D01*
X35084232Y-34283475D01*
X35291075Y-34076632D01*
X35407600Y-33902240D01*
X35524125Y-34076632D01*
X35730968Y-34283475D01*
X35974189Y-34445990D01*
X36244442Y-34557932D01*
X36531340Y-34615000D01*
X36823860Y-34615000D01*
X37110758Y-34557932D01*
X37381011Y-34445990D01*
X37624232Y-34283475D01*
X37831075Y-34076632D01*
X37947600Y-33902240D01*
X38064125Y-34076632D01*
X38270968Y-34283475D01*
X38514189Y-34445990D01*
X38784442Y-34557932D01*
X39071340Y-34615000D01*
X39363860Y-34615000D01*
X39650758Y-34557932D01*
X39921011Y-34445990D01*
X40164232Y-34283475D01*
X40371075Y-34076632D01*
X40533590Y-33833411D01*
X40564113Y-33759721D01*
X41995000Y-33759721D01*
X41995000Y-34180279D01*
X42077047Y-34592756D01*
X42237988Y-34981302D01*
X42471637Y-35330983D01*
X42769017Y-35628363D01*
X43118698Y-35862012D01*
X43507244Y-36022953D01*
X43919721Y-36105000D01*
X44340279Y-36105000D01*
X44752756Y-36022953D01*
X45141302Y-35862012D01*
X45490983Y-35628363D01*
X45788363Y-35330983D01*
X46022012Y-34981302D01*
X46182953Y-34592756D01*
X46265000Y-34180279D01*
X46265000Y-33759721D01*
X46182953Y-33347244D01*
X46022012Y-32958698D01*
X45788363Y-32609017D01*
X45490983Y-32311637D01*
X45141302Y-32077988D01*
X44752756Y-31917047D01*
X44340279Y-31835000D01*
X43919721Y-31835000D01*
X43507244Y-31917047D01*
X43118698Y-32077988D01*
X42769017Y-32311637D01*
X42471637Y-32609017D01*
X42237988Y-32958698D01*
X42077047Y-33347244D01*
X41995000Y-33759721D01*
X40564113Y-33759721D01*
X40645532Y-33563158D01*
X40702600Y-33276260D01*
X40702600Y-32983740D01*
X40645532Y-32696842D01*
X40572245Y-32519910D01*
X46936037Y-26156119D01*
X47124468Y-26193600D01*
X47485932Y-26193600D01*
X47830044Y-26125152D01*
X47823415Y-26147006D01*
M02*
