M48
; DRILL file {KiCad 5.1.5-52549c5~86~ubuntu18.04.1} date mar 08 sep 2020 17:42:24 -05
; FORMAT={-:-/ absolute / metric / decimal}
; #@! TF.CreationDate,2020-09-08T17:42:24-05:00
; #@! TF.GenerationSoftware,Kicad,Pcbnew,5.1.5-52549c5~86~ubuntu18.04.1
; #@! TF.FileFunction,Plated,1,2,PTH
FMAT,2
METRIC
T1C1.000
T2C1.001
T3C1.200
%
G90
G05
T1
X21.438Y-55.13
X23.978Y-55.13
X26.518Y-55.13
X29.058Y-55.13
X31.598Y-55.13
X34.138Y-55.13
X36.678Y-55.13
X39.218Y-55.13
X21.438Y-33.13
X23.978Y-33.13
X26.518Y-33.13
X29.058Y-33.13
X31.598Y-33.13
X34.138Y-33.13
X36.678Y-33.13
X39.218Y-33.13
X21.438Y-43.29
X21.438Y-45.83
T2
X39.05Y-49.21
X28.89Y-39.05
X28.89Y-49.21
X39.05Y-39.05
T3
X22.805Y-63.901
X26.305Y-63.901
X29.805Y-63.901
X33.305Y-63.901
X36.805Y-63.901
X40.305Y-63.901
X43.805Y-63.901
X47.305Y-63.901
X50.805Y-63.901
X54.305Y-63.901
X22.805Y-24.359
X26.305Y-24.359
X29.805Y-24.359
X33.305Y-24.359
X36.805Y-24.359
X40.305Y-24.359
X43.805Y-24.359
X47.305Y-24.359
X50.805Y-24.359
X54.305Y-24.359
T0
M30
