G04 #@! TF.GenerationSoftware,KiCad,Pcbnew,5.1.5-52549c5~86~ubuntu18.04.1*
G04 #@! TF.CreationDate,2020-09-08T17:42:28-05:00*
G04 #@! TF.ProjectId,C02,4330322e-6b69-4636-9164-5f7063625858,rev?*
G04 #@! TF.SameCoordinates,Original*
G04 #@! TF.FileFunction,Legend,Bot*
G04 #@! TF.FilePolarity,Positive*
%FSLAX46Y46*%
G04 Gerber Fmt 4.6, Leading zero omitted, Abs format (unit mm)*
G04 Created by KiCad (PCBNEW 5.1.5-52549c5~86~ubuntu18.04.1) date 2020-09-08 17:42:28*
%MOMM*%
%LPD*%
G04 APERTURE LIST*
%ADD10C,0.150000*%
%ADD11C,0.010000*%
G04 APERTURE END LIST*
D10*
X44036266Y-39622457D02*
X43988647Y-39574838D01*
X43845790Y-39527219D01*
X43750552Y-39527219D01*
X43607695Y-39574838D01*
X43512457Y-39670076D01*
X43464838Y-39765314D01*
X43417219Y-39955790D01*
X43417219Y-40098647D01*
X43464838Y-40289123D01*
X43512457Y-40384361D01*
X43607695Y-40479600D01*
X43750552Y-40527219D01*
X43845790Y-40527219D01*
X43988647Y-40479600D01*
X44036266Y-40431980D01*
X44655314Y-40527219D02*
X44750552Y-40527219D01*
X44845790Y-40479600D01*
X44893409Y-40431980D01*
X44941028Y-40336742D01*
X44988647Y-40146266D01*
X44988647Y-39908171D01*
X44941028Y-39717695D01*
X44893409Y-39622457D01*
X44845790Y-39574838D01*
X44750552Y-39527219D01*
X44655314Y-39527219D01*
X44560076Y-39574838D01*
X44512457Y-39622457D01*
X44464838Y-39717695D01*
X44417219Y-39908171D01*
X44417219Y-40146266D01*
X44464838Y-40336742D01*
X44512457Y-40431980D01*
X44560076Y-40479600D01*
X44655314Y-40527219D01*
X45369600Y-40431980D02*
X45417219Y-40479600D01*
X45512457Y-40527219D01*
X45750552Y-40527219D01*
X45845790Y-40479600D01*
X45893409Y-40431980D01*
X45941028Y-40336742D01*
X45941028Y-40241504D01*
X45893409Y-40098647D01*
X45321980Y-39527219D01*
X45941028Y-39527219D01*
X46131504Y-39431980D02*
X46893409Y-39431980D01*
X47464838Y-40051028D02*
X47607695Y-40003409D01*
X47655314Y-39955790D01*
X47702933Y-39860552D01*
X47702933Y-39717695D01*
X47655314Y-39622457D01*
X47607695Y-39574838D01*
X47512457Y-39527219D01*
X47131504Y-39527219D01*
X47131504Y-40527219D01*
X47464838Y-40527219D01*
X47560076Y-40479600D01*
X47607695Y-40431980D01*
X47655314Y-40336742D01*
X47655314Y-40241504D01*
X47607695Y-40146266D01*
X47560076Y-40098647D01*
X47464838Y-40051028D01*
X47131504Y-40051028D01*
X48702933Y-39527219D02*
X48369600Y-40003409D01*
X48131504Y-39527219D02*
X48131504Y-40527219D01*
X48512457Y-40527219D01*
X48607695Y-40479600D01*
X48655314Y-40431980D01*
X48702933Y-40336742D01*
X48702933Y-40193885D01*
X48655314Y-40098647D01*
X48607695Y-40051028D01*
X48512457Y-40003409D01*
X48131504Y-40003409D01*
X49131504Y-40051028D02*
X49464838Y-40051028D01*
X49607695Y-39527219D02*
X49131504Y-39527219D01*
X49131504Y-40527219D01*
X49607695Y-40527219D01*
X49988647Y-39812933D02*
X50464838Y-39812933D01*
X49893409Y-39527219D02*
X50226742Y-40527219D01*
X50560076Y-39527219D01*
X50893409Y-39527219D02*
X50893409Y-40527219D01*
X51464838Y-39527219D02*
X51036266Y-40098647D01*
X51464838Y-40527219D02*
X50893409Y-39955790D01*
X52083885Y-40527219D02*
X52274361Y-40527219D01*
X52369600Y-40479600D01*
X52464838Y-40384361D01*
X52512457Y-40193885D01*
X52512457Y-39860552D01*
X52464838Y-39670076D01*
X52369600Y-39574838D01*
X52274361Y-39527219D01*
X52083885Y-39527219D01*
X51988647Y-39574838D01*
X51893409Y-39670076D01*
X51845790Y-39860552D01*
X51845790Y-40193885D01*
X51893409Y-40384361D01*
X51988647Y-40479600D01*
X52083885Y-40527219D01*
X52941028Y-40527219D02*
X52941028Y-39717695D01*
X52988647Y-39622457D01*
X53036266Y-39574838D01*
X53131504Y-39527219D01*
X53321980Y-39527219D01*
X53417219Y-39574838D01*
X53464838Y-39622457D01*
X53512457Y-39717695D01*
X53512457Y-40527219D01*
X53845790Y-40527219D02*
X54417219Y-40527219D01*
X54131504Y-39527219D02*
X54131504Y-40527219D01*
D11*
G36*
X49425414Y-49622669D02*
G01*
X49509235Y-49178045D01*
X49818520Y-49050547D01*
X50127806Y-48923049D01*
X50498846Y-49175354D01*
X50602757Y-49245604D01*
X50696687Y-49308328D01*
X50776252Y-49360662D01*
X50837070Y-49399743D01*
X50874757Y-49422707D01*
X50885021Y-49427658D01*
X50903510Y-49414924D01*
X50943020Y-49379718D01*
X50999122Y-49326538D01*
X51067387Y-49259882D01*
X51143386Y-49184246D01*
X51222692Y-49104128D01*
X51300875Y-49024026D01*
X51373507Y-48948436D01*
X51436159Y-48881855D01*
X51484403Y-48828782D01*
X51513810Y-48793713D01*
X51520841Y-48781977D01*
X51510723Y-48760340D01*
X51482359Y-48712938D01*
X51438729Y-48644407D01*
X51382818Y-48559385D01*
X51317606Y-48462507D01*
X51279819Y-48407250D01*
X51210943Y-48306352D01*
X51149740Y-48215301D01*
X51099178Y-48138630D01*
X51062228Y-48080872D01*
X51041858Y-48046557D01*
X51038797Y-48039346D01*
X51045736Y-48018852D01*
X51064651Y-47971087D01*
X51092687Y-47902768D01*
X51126991Y-47820611D01*
X51164709Y-47731330D01*
X51202987Y-47641642D01*
X51238970Y-47558262D01*
X51269806Y-47487906D01*
X51292639Y-47437290D01*
X51304617Y-47413129D01*
X51305324Y-47412178D01*
X51324131Y-47407564D01*
X51374218Y-47397272D01*
X51450393Y-47382313D01*
X51547465Y-47363699D01*
X51660243Y-47342441D01*
X51726042Y-47330182D01*
X51846550Y-47307238D01*
X51955397Y-47285405D01*
X52047076Y-47265878D01*
X52116081Y-47249852D01*
X52156904Y-47238521D01*
X52165111Y-47234926D01*
X52173148Y-47210594D01*
X52179633Y-47155641D01*
X52184570Y-47076492D01*
X52187964Y-46979574D01*
X52189818Y-46871313D01*
X52190138Y-46758135D01*
X52188927Y-46646465D01*
X52186190Y-46542732D01*
X52181931Y-46453359D01*
X52176155Y-46384774D01*
X52168867Y-46343403D01*
X52164495Y-46334790D01*
X52138364Y-46324467D01*
X52082993Y-46309708D01*
X52005707Y-46292248D01*
X51913830Y-46273820D01*
X51881758Y-46267859D01*
X51727124Y-46239534D01*
X51604975Y-46216724D01*
X51511273Y-46198520D01*
X51441984Y-46184017D01*
X51393071Y-46172308D01*
X51360497Y-46162485D01*
X51340228Y-46153644D01*
X51328226Y-46144876D01*
X51326547Y-46143143D01*
X51309784Y-46115229D01*
X51284214Y-46060905D01*
X51252388Y-45986823D01*
X51216860Y-45899635D01*
X51180183Y-45805992D01*
X51144911Y-45712548D01*
X51113596Y-45625953D01*
X51088793Y-45552860D01*
X51073054Y-45499922D01*
X51068932Y-45473789D01*
X51069276Y-45472874D01*
X51083241Y-45451514D01*
X51114922Y-45404516D01*
X51160991Y-45336773D01*
X51218118Y-45253177D01*
X51282973Y-45158618D01*
X51301443Y-45131746D01*
X51367299Y-45034325D01*
X51425250Y-44945437D01*
X51472138Y-44870188D01*
X51504807Y-44813680D01*
X51520100Y-44781019D01*
X51520841Y-44777007D01*
X51507992Y-44755916D01*
X51472488Y-44714136D01*
X51418893Y-44656155D01*
X51351771Y-44586465D01*
X51275687Y-44509555D01*
X51195204Y-44429917D01*
X51114887Y-44352039D01*
X51039299Y-44280414D01*
X50973005Y-44219530D01*
X50920569Y-44173879D01*
X50886555Y-44147950D01*
X50877145Y-44143717D01*
X50855243Y-44153688D01*
X50810400Y-44180580D01*
X50749921Y-44219864D01*
X50703389Y-44251483D01*
X50619075Y-44309502D01*
X50519226Y-44377816D01*
X50419073Y-44446021D01*
X50365227Y-44482525D01*
X50182971Y-44605800D01*
X50029981Y-44523080D01*
X49960282Y-44486841D01*
X49901014Y-44458674D01*
X49860911Y-44442609D01*
X49850703Y-44440374D01*
X49838429Y-44456878D01*
X49814213Y-44503518D01*
X49779863Y-44575991D01*
X49737188Y-44669994D01*
X49687994Y-44781226D01*
X49634090Y-44905385D01*
X49577284Y-45038168D01*
X49519382Y-45175273D01*
X49462193Y-45312398D01*
X49407524Y-45445242D01*
X49357184Y-45569502D01*
X49312980Y-45680875D01*
X49276719Y-45775061D01*
X49250209Y-45847756D01*
X49235258Y-45894659D01*
X49232854Y-45910767D01*
X49251911Y-45931314D01*
X49293636Y-45964667D01*
X49349306Y-46003898D01*
X49353978Y-46007001D01*
X49497864Y-46122177D01*
X49613883Y-46256547D01*
X49701030Y-46405816D01*
X49758299Y-46565687D01*
X49784686Y-46731863D01*
X49779185Y-46900048D01*
X49740790Y-47065945D01*
X49668495Y-47225258D01*
X49647226Y-47260113D01*
X49536596Y-47400863D01*
X49405902Y-47513886D01*
X49259664Y-47598597D01*
X49102408Y-47654406D01*
X48938657Y-47680726D01*
X48772933Y-47676970D01*
X48609762Y-47642550D01*
X48453665Y-47576877D01*
X48309167Y-47479365D01*
X48264469Y-47439787D01*
X48150712Y-47315897D01*
X48067818Y-47185476D01*
X48010956Y-47039285D01*
X47979287Y-46894512D01*
X47971469Y-46731740D01*
X47997538Y-46568160D01*
X48054845Y-46409302D01*
X48140744Y-46260694D01*
X48252586Y-46127865D01*
X48387723Y-46016344D01*
X48405483Y-46004589D01*
X48461750Y-45966092D01*
X48504523Y-45932737D01*
X48524972Y-45911440D01*
X48525269Y-45910767D01*
X48520879Y-45887729D01*
X48503476Y-45835443D01*
X48474868Y-45758210D01*
X48436865Y-45660332D01*
X48391274Y-45546109D01*
X48339903Y-45419842D01*
X48284562Y-45285833D01*
X48227058Y-45148382D01*
X48169201Y-45011792D01*
X48112798Y-44880363D01*
X48059658Y-44758395D01*
X48011590Y-44650191D01*
X47970401Y-44560051D01*
X47937901Y-44492277D01*
X47915897Y-44451170D01*
X47907036Y-44440374D01*
X47879960Y-44448781D01*
X47829297Y-44471328D01*
X47763783Y-44503987D01*
X47727759Y-44523080D01*
X47574768Y-44605800D01*
X47392512Y-44482525D01*
X47299475Y-44419372D01*
X47197615Y-44349873D01*
X47102162Y-44284435D01*
X47054350Y-44251483D01*
X46987105Y-44206327D01*
X46930164Y-44170543D01*
X46890954Y-44148662D01*
X46878219Y-44144037D01*
X46859683Y-44156515D01*
X46818659Y-44191348D01*
X46759125Y-44244922D01*
X46685058Y-44313617D01*
X46600435Y-44393819D01*
X46546915Y-44445314D01*
X46453281Y-44537314D01*
X46372359Y-44619601D01*
X46307423Y-44688655D01*
X46261742Y-44740956D01*
X46238589Y-44772984D01*
X46236368Y-44779484D01*
X46246676Y-44804206D01*
X46275161Y-44854195D01*
X46318663Y-44924388D01*
X46374023Y-45009725D01*
X46438080Y-45105144D01*
X46456297Y-45131746D01*
X46522673Y-45228433D01*
X46582222Y-45315483D01*
X46631616Y-45388005D01*
X46667525Y-45441107D01*
X46686619Y-45469897D01*
X46688464Y-45472874D01*
X46685705Y-45495818D01*
X46671062Y-45546264D01*
X46647087Y-45617559D01*
X46616334Y-45703053D01*
X46581356Y-45796093D01*
X46544707Y-45890026D01*
X46508939Y-45978201D01*
X46476606Y-46053966D01*
X46450262Y-46110669D01*
X46432458Y-46141657D01*
X46431193Y-46143143D01*
X46420306Y-46151999D01*
X46401918Y-46160757D01*
X46371994Y-46170323D01*
X46326497Y-46181604D01*
X46261391Y-46195507D01*
X46172639Y-46212937D01*
X46056207Y-46234802D01*
X45908058Y-46262009D01*
X45875982Y-46267859D01*
X45780914Y-46286226D01*
X45698035Y-46304195D01*
X45634670Y-46320031D01*
X45598142Y-46332000D01*
X45593244Y-46334790D01*
X45585173Y-46359528D01*
X45578613Y-46414810D01*
X45573567Y-46494211D01*
X45570041Y-46591304D01*
X45568039Y-46699662D01*
X45567564Y-46812860D01*
X45568623Y-46924472D01*
X45571218Y-47028071D01*
X45575354Y-47117232D01*
X45581037Y-47185528D01*
X45588269Y-47226534D01*
X45592629Y-47234926D01*
X45616902Y-47243392D01*
X45672174Y-47257165D01*
X45752938Y-47275050D01*
X45853688Y-47295852D01*
X45968917Y-47318377D01*
X46031698Y-47330182D01*
X46150813Y-47352449D01*
X46257035Y-47372621D01*
X46345173Y-47389685D01*
X46410034Y-47402631D01*
X46446426Y-47410445D01*
X46452416Y-47412178D01*
X46462539Y-47431710D01*
X46483938Y-47478757D01*
X46513761Y-47546597D01*
X46549155Y-47628509D01*
X46587268Y-47717772D01*
X46625247Y-47807665D01*
X46660240Y-47891465D01*
X46689394Y-47962453D01*
X46709857Y-48013906D01*
X46718777Y-48039103D01*
X46718943Y-48040204D01*
X46708831Y-48060081D01*
X46680483Y-48105823D01*
X46636877Y-48172883D01*
X46580994Y-48256716D01*
X46515813Y-48352774D01*
X46477921Y-48407950D01*
X46408875Y-48509119D01*
X46347550Y-48600970D01*
X46296937Y-48678856D01*
X46260029Y-48738131D01*
X46239818Y-48774149D01*
X46236899Y-48782223D01*
X46249447Y-48801016D01*
X46284137Y-48841143D01*
X46336537Y-48898107D01*
X46402216Y-48967415D01*
X46476744Y-49044569D01*
X46555687Y-49125075D01*
X46634617Y-49204437D01*
X46709100Y-49278160D01*
X46774706Y-49341748D01*
X46827004Y-49390706D01*
X46861561Y-49420539D01*
X46873122Y-49427658D01*
X46891946Y-49417647D01*
X46936969Y-49389522D01*
X47003813Y-49346146D01*
X47088101Y-49290382D01*
X47185456Y-49225094D01*
X47258893Y-49175354D01*
X47629933Y-48923049D01*
X48248505Y-49178045D01*
X48332325Y-49622669D01*
X48416146Y-50067293D01*
X49341594Y-50067293D01*
X49425414Y-49622669D01*
G37*
X49425414Y-49622669D02*
X49509235Y-49178045D01*
X49818520Y-49050547D01*
X50127806Y-48923049D01*
X50498846Y-49175354D01*
X50602757Y-49245604D01*
X50696687Y-49308328D01*
X50776252Y-49360662D01*
X50837070Y-49399743D01*
X50874757Y-49422707D01*
X50885021Y-49427658D01*
X50903510Y-49414924D01*
X50943020Y-49379718D01*
X50999122Y-49326538D01*
X51067387Y-49259882D01*
X51143386Y-49184246D01*
X51222692Y-49104128D01*
X51300875Y-49024026D01*
X51373507Y-48948436D01*
X51436159Y-48881855D01*
X51484403Y-48828782D01*
X51513810Y-48793713D01*
X51520841Y-48781977D01*
X51510723Y-48760340D01*
X51482359Y-48712938D01*
X51438729Y-48644407D01*
X51382818Y-48559385D01*
X51317606Y-48462507D01*
X51279819Y-48407250D01*
X51210943Y-48306352D01*
X51149740Y-48215301D01*
X51099178Y-48138630D01*
X51062228Y-48080872D01*
X51041858Y-48046557D01*
X51038797Y-48039346D01*
X51045736Y-48018852D01*
X51064651Y-47971087D01*
X51092687Y-47902768D01*
X51126991Y-47820611D01*
X51164709Y-47731330D01*
X51202987Y-47641642D01*
X51238970Y-47558262D01*
X51269806Y-47487906D01*
X51292639Y-47437290D01*
X51304617Y-47413129D01*
X51305324Y-47412178D01*
X51324131Y-47407564D01*
X51374218Y-47397272D01*
X51450393Y-47382313D01*
X51547465Y-47363699D01*
X51660243Y-47342441D01*
X51726042Y-47330182D01*
X51846550Y-47307238D01*
X51955397Y-47285405D01*
X52047076Y-47265878D01*
X52116081Y-47249852D01*
X52156904Y-47238521D01*
X52165111Y-47234926D01*
X52173148Y-47210594D01*
X52179633Y-47155641D01*
X52184570Y-47076492D01*
X52187964Y-46979574D01*
X52189818Y-46871313D01*
X52190138Y-46758135D01*
X52188927Y-46646465D01*
X52186190Y-46542732D01*
X52181931Y-46453359D01*
X52176155Y-46384774D01*
X52168867Y-46343403D01*
X52164495Y-46334790D01*
X52138364Y-46324467D01*
X52082993Y-46309708D01*
X52005707Y-46292248D01*
X51913830Y-46273820D01*
X51881758Y-46267859D01*
X51727124Y-46239534D01*
X51604975Y-46216724D01*
X51511273Y-46198520D01*
X51441984Y-46184017D01*
X51393071Y-46172308D01*
X51360497Y-46162485D01*
X51340228Y-46153644D01*
X51328226Y-46144876D01*
X51326547Y-46143143D01*
X51309784Y-46115229D01*
X51284214Y-46060905D01*
X51252388Y-45986823D01*
X51216860Y-45899635D01*
X51180183Y-45805992D01*
X51144911Y-45712548D01*
X51113596Y-45625953D01*
X51088793Y-45552860D01*
X51073054Y-45499922D01*
X51068932Y-45473789D01*
X51069276Y-45472874D01*
X51083241Y-45451514D01*
X51114922Y-45404516D01*
X51160991Y-45336773D01*
X51218118Y-45253177D01*
X51282973Y-45158618D01*
X51301443Y-45131746D01*
X51367299Y-45034325D01*
X51425250Y-44945437D01*
X51472138Y-44870188D01*
X51504807Y-44813680D01*
X51520100Y-44781019D01*
X51520841Y-44777007D01*
X51507992Y-44755916D01*
X51472488Y-44714136D01*
X51418893Y-44656155D01*
X51351771Y-44586465D01*
X51275687Y-44509555D01*
X51195204Y-44429917D01*
X51114887Y-44352039D01*
X51039299Y-44280414D01*
X50973005Y-44219530D01*
X50920569Y-44173879D01*
X50886555Y-44147950D01*
X50877145Y-44143717D01*
X50855243Y-44153688D01*
X50810400Y-44180580D01*
X50749921Y-44219864D01*
X50703389Y-44251483D01*
X50619075Y-44309502D01*
X50519226Y-44377816D01*
X50419073Y-44446021D01*
X50365227Y-44482525D01*
X50182971Y-44605800D01*
X50029981Y-44523080D01*
X49960282Y-44486841D01*
X49901014Y-44458674D01*
X49860911Y-44442609D01*
X49850703Y-44440374D01*
X49838429Y-44456878D01*
X49814213Y-44503518D01*
X49779863Y-44575991D01*
X49737188Y-44669994D01*
X49687994Y-44781226D01*
X49634090Y-44905385D01*
X49577284Y-45038168D01*
X49519382Y-45175273D01*
X49462193Y-45312398D01*
X49407524Y-45445242D01*
X49357184Y-45569502D01*
X49312980Y-45680875D01*
X49276719Y-45775061D01*
X49250209Y-45847756D01*
X49235258Y-45894659D01*
X49232854Y-45910767D01*
X49251911Y-45931314D01*
X49293636Y-45964667D01*
X49349306Y-46003898D01*
X49353978Y-46007001D01*
X49497864Y-46122177D01*
X49613883Y-46256547D01*
X49701030Y-46405816D01*
X49758299Y-46565687D01*
X49784686Y-46731863D01*
X49779185Y-46900048D01*
X49740790Y-47065945D01*
X49668495Y-47225258D01*
X49647226Y-47260113D01*
X49536596Y-47400863D01*
X49405902Y-47513886D01*
X49259664Y-47598597D01*
X49102408Y-47654406D01*
X48938657Y-47680726D01*
X48772933Y-47676970D01*
X48609762Y-47642550D01*
X48453665Y-47576877D01*
X48309167Y-47479365D01*
X48264469Y-47439787D01*
X48150712Y-47315897D01*
X48067818Y-47185476D01*
X48010956Y-47039285D01*
X47979287Y-46894512D01*
X47971469Y-46731740D01*
X47997538Y-46568160D01*
X48054845Y-46409302D01*
X48140744Y-46260694D01*
X48252586Y-46127865D01*
X48387723Y-46016344D01*
X48405483Y-46004589D01*
X48461750Y-45966092D01*
X48504523Y-45932737D01*
X48524972Y-45911440D01*
X48525269Y-45910767D01*
X48520879Y-45887729D01*
X48503476Y-45835443D01*
X48474868Y-45758210D01*
X48436865Y-45660332D01*
X48391274Y-45546109D01*
X48339903Y-45419842D01*
X48284562Y-45285833D01*
X48227058Y-45148382D01*
X48169201Y-45011792D01*
X48112798Y-44880363D01*
X48059658Y-44758395D01*
X48011590Y-44650191D01*
X47970401Y-44560051D01*
X47937901Y-44492277D01*
X47915897Y-44451170D01*
X47907036Y-44440374D01*
X47879960Y-44448781D01*
X47829297Y-44471328D01*
X47763783Y-44503987D01*
X47727759Y-44523080D01*
X47574768Y-44605800D01*
X47392512Y-44482525D01*
X47299475Y-44419372D01*
X47197615Y-44349873D01*
X47102162Y-44284435D01*
X47054350Y-44251483D01*
X46987105Y-44206327D01*
X46930164Y-44170543D01*
X46890954Y-44148662D01*
X46878219Y-44144037D01*
X46859683Y-44156515D01*
X46818659Y-44191348D01*
X46759125Y-44244922D01*
X46685058Y-44313617D01*
X46600435Y-44393819D01*
X46546915Y-44445314D01*
X46453281Y-44537314D01*
X46372359Y-44619601D01*
X46307423Y-44688655D01*
X46261742Y-44740956D01*
X46238589Y-44772984D01*
X46236368Y-44779484D01*
X46246676Y-44804206D01*
X46275161Y-44854195D01*
X46318663Y-44924388D01*
X46374023Y-45009725D01*
X46438080Y-45105144D01*
X46456297Y-45131746D01*
X46522673Y-45228433D01*
X46582222Y-45315483D01*
X46631616Y-45388005D01*
X46667525Y-45441107D01*
X46686619Y-45469897D01*
X46688464Y-45472874D01*
X46685705Y-45495818D01*
X46671062Y-45546264D01*
X46647087Y-45617559D01*
X46616334Y-45703053D01*
X46581356Y-45796093D01*
X46544707Y-45890026D01*
X46508939Y-45978201D01*
X46476606Y-46053966D01*
X46450262Y-46110669D01*
X46432458Y-46141657D01*
X46431193Y-46143143D01*
X46420306Y-46151999D01*
X46401918Y-46160757D01*
X46371994Y-46170323D01*
X46326497Y-46181604D01*
X46261391Y-46195507D01*
X46172639Y-46212937D01*
X46056207Y-46234802D01*
X45908058Y-46262009D01*
X45875982Y-46267859D01*
X45780914Y-46286226D01*
X45698035Y-46304195D01*
X45634670Y-46320031D01*
X45598142Y-46332000D01*
X45593244Y-46334790D01*
X45585173Y-46359528D01*
X45578613Y-46414810D01*
X45573567Y-46494211D01*
X45570041Y-46591304D01*
X45568039Y-46699662D01*
X45567564Y-46812860D01*
X45568623Y-46924472D01*
X45571218Y-47028071D01*
X45575354Y-47117232D01*
X45581037Y-47185528D01*
X45588269Y-47226534D01*
X45592629Y-47234926D01*
X45616902Y-47243392D01*
X45672174Y-47257165D01*
X45752938Y-47275050D01*
X45853688Y-47295852D01*
X45968917Y-47318377D01*
X46031698Y-47330182D01*
X46150813Y-47352449D01*
X46257035Y-47372621D01*
X46345173Y-47389685D01*
X46410034Y-47402631D01*
X46446426Y-47410445D01*
X46452416Y-47412178D01*
X46462539Y-47431710D01*
X46483938Y-47478757D01*
X46513761Y-47546597D01*
X46549155Y-47628509D01*
X46587268Y-47717772D01*
X46625247Y-47807665D01*
X46660240Y-47891465D01*
X46689394Y-47962453D01*
X46709857Y-48013906D01*
X46718777Y-48039103D01*
X46718943Y-48040204D01*
X46708831Y-48060081D01*
X46680483Y-48105823D01*
X46636877Y-48172883D01*
X46580994Y-48256716D01*
X46515813Y-48352774D01*
X46477921Y-48407950D01*
X46408875Y-48509119D01*
X46347550Y-48600970D01*
X46296937Y-48678856D01*
X46260029Y-48738131D01*
X46239818Y-48774149D01*
X46236899Y-48782223D01*
X46249447Y-48801016D01*
X46284137Y-48841143D01*
X46336537Y-48898107D01*
X46402216Y-48967415D01*
X46476744Y-49044569D01*
X46555687Y-49125075D01*
X46634617Y-49204437D01*
X46709100Y-49278160D01*
X46774706Y-49341748D01*
X46827004Y-49390706D01*
X46861561Y-49420539D01*
X46873122Y-49427658D01*
X46891946Y-49417647D01*
X46936969Y-49389522D01*
X47003813Y-49346146D01*
X47088101Y-49290382D01*
X47185456Y-49225094D01*
X47258893Y-49175354D01*
X47629933Y-48923049D01*
X48248505Y-49178045D01*
X48332325Y-49622669D01*
X48416146Y-50067293D01*
X49341594Y-50067293D01*
X49425414Y-49622669D01*
M02*
