M48
; DRILL file {KiCad 5.1.5-52549c5~86~ubuntu18.04.1} date dom 06 sep 2020 15:58:30 -05
; FORMAT={-:-/ absolute / metric / decimal}
; #@! TF.CreationDate,2020-09-06T15:58:30-05:00
; #@! TF.GenerationSoftware,Kicad,Pcbnew,5.1.5-52549c5~86~ubuntu18.04.1
; #@! TF.FileFunction,Plated,1,2,PTH
FMAT,2
METRIC
T1C1.001
T2C1.200
%
G90
G05
T1
X81.468Y-82.382
X129.728Y-64.602
X122.108Y-46.822
X122.108Y-82.382
X81.468Y-46.822
X170.368Y-82.382
X129.728Y-117.942
X81.468Y-117.942
X122.108Y-100.162
X129.728Y-46.822
X129.728Y-100.162
X170.368Y-117.942
X81.468Y-100.162
X122.108Y-117.942
X129.728Y-82.382
X170.368Y-100.162
X122.108Y-64.602
X81.468Y-64.602
X170.368Y-46.822
X170.368Y-64.602
T2
X86.038Y-51.405
X89.538Y-51.405
X93.038Y-51.405
X96.538Y-51.405
X100.038Y-51.405
X103.538Y-51.405
X107.038Y-51.405
X110.538Y-51.405
X114.038Y-51.405
X117.538Y-51.405
X134.298Y-69.185
X137.798Y-69.185
X141.298Y-69.185
X144.798Y-69.185
X148.298Y-69.185
X151.798Y-69.185
X155.298Y-69.185
X158.798Y-69.185
X162.298Y-69.185
X165.798Y-69.185
X86.038Y-69.185
X89.538Y-69.185
X93.038Y-69.185
X96.538Y-69.185
X100.038Y-69.185
X103.538Y-69.185
X107.038Y-69.185
X110.538Y-69.185
X114.038Y-69.185
X117.538Y-69.185
X134.298Y-60.02
X137.798Y-60.02
X141.298Y-60.02
X144.798Y-60.02
X148.298Y-60.02
X151.798Y-60.02
X155.298Y-60.02
X158.798Y-60.02
X162.298Y-60.02
X165.798Y-60.02
X134.298Y-95.58
X137.798Y-95.58
X141.298Y-95.58
X144.798Y-95.58
X148.298Y-95.58
X151.798Y-95.58
X155.298Y-95.58
X158.798Y-95.58
X162.298Y-95.58
X165.798Y-95.58
X134.298Y-51.405
X137.798Y-51.405
X141.298Y-51.405
X144.798Y-51.405
X148.298Y-51.405
X151.798Y-51.405
X155.298Y-51.405
X158.798Y-51.405
X162.298Y-51.405
X165.798Y-51.405
X86.038Y-77.8
X89.538Y-77.8
X93.038Y-77.8
X96.538Y-77.8
X100.038Y-77.8
X103.538Y-77.8
X107.038Y-77.8
X110.538Y-77.8
X114.038Y-77.8
X117.538Y-77.8
X86.038Y-95.58
X89.538Y-95.58
X93.038Y-95.58
X96.538Y-95.58
X100.038Y-95.58
X103.538Y-95.58
X107.038Y-95.58
X110.538Y-95.58
X114.038Y-95.58
X117.538Y-95.58
X86.038Y-113.36
X89.538Y-113.36
X93.038Y-113.36
X96.538Y-113.36
X100.038Y-113.36
X103.538Y-113.36
X107.038Y-113.36
X110.538Y-113.36
X114.038Y-113.36
X117.538Y-113.36
X134.298Y-77.8
X137.798Y-77.8
X141.298Y-77.8
X144.798Y-77.8
X148.298Y-77.8
X151.798Y-77.8
X155.298Y-77.8
X158.798Y-77.8
X162.298Y-77.8
X165.798Y-77.8
X134.298Y-113.36
X137.798Y-113.36
X141.298Y-113.36
X144.798Y-113.36
X148.298Y-113.36
X151.798Y-113.36
X155.298Y-113.36
X158.798Y-113.36
X162.298Y-113.36
X165.798Y-113.36
X134.298Y-42.24
X137.798Y-42.24
X141.298Y-42.24
X144.798Y-42.24
X148.298Y-42.24
X151.798Y-42.24
X155.298Y-42.24
X158.798Y-42.24
X162.298Y-42.24
X165.798Y-42.24
X86.038Y-42.24
X89.538Y-42.24
X93.038Y-42.24
X96.538Y-42.24
X100.038Y-42.24
X103.538Y-42.24
X107.038Y-42.24
X110.538Y-42.24
X114.038Y-42.24
X117.538Y-42.24
X86.038Y-104.745
X89.538Y-104.745
X93.038Y-104.745
X96.538Y-104.745
X100.038Y-104.745
X103.538Y-104.745
X107.038Y-104.745
X110.538Y-104.745
X114.038Y-104.745
X117.538Y-104.745
X134.298Y-104.745
X137.798Y-104.745
X141.298Y-104.745
X144.798Y-104.745
X148.298Y-104.745
X151.798Y-104.745
X155.298Y-104.745
X158.798Y-104.745
X162.298Y-104.745
X165.798Y-104.745
X86.038Y-122.525
X89.538Y-122.525
X93.038Y-122.525
X96.538Y-122.525
X100.038Y-122.525
X103.538Y-122.525
X107.038Y-122.525
X110.538Y-122.525
X114.038Y-122.525
X117.538Y-122.525
X134.298Y-122.525
X137.798Y-122.525
X141.298Y-122.525
X144.798Y-122.525
X148.298Y-122.525
X151.798Y-122.525
X155.298Y-122.525
X158.798Y-122.525
X162.298Y-122.525
X165.798Y-122.525
X86.038Y-60.02
X89.538Y-60.02
X93.038Y-60.02
X96.538Y-60.02
X100.038Y-60.02
X103.538Y-60.02
X107.038Y-60.02
X110.538Y-60.02
X114.038Y-60.02
X117.538Y-60.02
X134.298Y-86.965
X137.798Y-86.965
X141.298Y-86.965
X144.798Y-86.965
X148.298Y-86.965
X151.798Y-86.965
X155.298Y-86.965
X158.798Y-86.965
X162.298Y-86.965
X165.798Y-86.965
X86.038Y-86.965
X89.538Y-86.965
X93.038Y-86.965
X96.538Y-86.965
X100.038Y-86.965
X103.538Y-86.965
X107.038Y-86.965
X110.538Y-86.965
X114.038Y-86.965
X117.538Y-86.965
T0
M30
