M48
; DRILL file {KiCad 5.1.5-52549c5~86~ubuntu18.04.1} date dom 06 sep 2020 15:58:30 -05
; FORMAT={-:-/ absolute / metric / decimal}
; #@! TF.CreationDate,2020-09-06T15:58:30-05:00
; #@! TF.GenerationSoftware,Kicad,Pcbnew,5.1.5-52549c5~86~ubuntu18.04.1
; #@! TF.FileFunction,NonPlated,1,2,NPTH
FMAT,2
METRIC
T1C3.000
%
G90
G05
T1
X170.368Y-87.462
X122.108Y-112.862
X170.368Y-59.522
X122.108Y-87.462
X129.728Y-105.242
X81.468Y-59.522
X81.468Y-87.462
X122.108Y-105.242
X81.468Y-112.862
X81.468Y-77.302
X170.368Y-51.902
X122.108Y-51.902
X170.368Y-112.862
X129.728Y-51.902
X81.468Y-95.082
X122.108Y-95.082
X122.108Y-77.302
X170.368Y-41.742
X122.108Y-123.022
X81.468Y-41.742
X81.468Y-123.022
X129.728Y-87.462
X170.368Y-77.302
X81.468Y-69.682
X129.728Y-112.862
X129.728Y-41.742
X122.108Y-41.742
X170.368Y-69.682
X81.468Y-51.902
X170.368Y-95.082
X129.728Y-59.522
X122.108Y-59.522
X122.108Y-69.682
X129.728Y-123.022
X129.728Y-77.302
X81.468Y-105.242
X129.728Y-69.682
X170.368Y-123.022
X129.728Y-95.082
X170.368Y-105.242
T0
M30
