M48
; DRILL file {KiCad 5.1.5-52549c5~86~ubuntu18.04.1} date vie 28 ago 2020 13:52:27 -05
; FORMAT={-:-/ absolute / metric / decimal}
; #@! TF.CreationDate,2020-08-28T13:52:27-05:00
; #@! TF.GenerationSoftware,Kicad,Pcbnew,5.1.5-52549c5~86~ubuntu18.04.1
; #@! TF.FileFunction,NonPlated,1,2,NPTH
FMAT,2
METRIC
T1C3.000
%
G90
G05
T1
X151.394Y-61.326
X160.074Y-82.966
X151.394Y-141.646
X141.234Y-121.326
X102.074Y-120.006
X131.074Y-81.646
X131.074Y-131.486
X151.394Y-131.486
X160.074Y-142.966
X110.754Y-91.326
X151.394Y-71.486
X110.754Y-111.646
X120.914Y-81.646
X110.754Y-101.486
X102.074Y-60.006
X160.074Y-60.006
X120.914Y-141.646
X151.394Y-81.646
X131.074Y-111.646
X141.234Y-141.646
X110.754Y-71.486
X160.074Y-120.006
X151.394Y-91.326
X120.914Y-71.486
X110.754Y-121.326
X141.234Y-61.326
X110.754Y-61.326
X120.914Y-121.326
X151.394Y-101.486
X110.754Y-141.646
X110.754Y-131.486
X131.074Y-61.326
X102.074Y-82.966
X160.074Y-90.006
X102.074Y-112.966
X160.074Y-112.966
X120.914Y-61.326
X131.074Y-91.326
X141.234Y-131.486
X151.394Y-111.646
X141.234Y-91.326
X102.074Y-90.006
X131.074Y-101.486
X120.914Y-91.326
X141.234Y-101.486
X131.074Y-71.486
X120.914Y-111.646
X141.234Y-71.486
X110.754Y-81.646
X120.914Y-101.486
X141.234Y-81.646
X120.914Y-131.486
X141.234Y-111.646
X151.394Y-121.326
X131.074Y-141.646
X102.074Y-142.966
X131.074Y-121.326
T0
M30
