G04 #@! TF.GenerationSoftware,KiCad,Pcbnew,5.1.5-52549c5~86~ubuntu18.04.1*
G04 #@! TF.CreationDate,2020-08-28T16:47:41-05:00*
G04 #@! TF.ProjectId,A04,4130342e-6b69-4636-9164-5f7063625858,rev?*
G04 #@! TF.SameCoordinates,Original*
G04 #@! TF.FileFunction,Copper,L2,Bot*
G04 #@! TF.FilePolarity,Positive*
%FSLAX46Y46*%
G04 Gerber Fmt 4.6, Leading zero omitted, Abs format (unit mm)*
G04 Created by KiCad (PCBNEW 5.1.5-52549c5~86~ubuntu18.04.1) date 2020-08-28 16:47:41*
%MOMM*%
%LPD*%
G04 APERTURE LIST*
%ADD10C,0.300000*%
%ADD11C,0.010000*%
%ADD12C,2.499360*%
%ADD13C,0.254000*%
G04 APERTURE END LIST*
D10*
X61567514Y-27258200D02*
X62281800Y-27258200D01*
X61424657Y-26829628D02*
X61924657Y-28329628D01*
X62424657Y-26829628D01*
X63210371Y-28329628D02*
X63353228Y-28329628D01*
X63496085Y-28258200D01*
X63567514Y-28186771D01*
X63638942Y-28043914D01*
X63710371Y-27758200D01*
X63710371Y-27401057D01*
X63638942Y-27115342D01*
X63567514Y-26972485D01*
X63496085Y-26901057D01*
X63353228Y-26829628D01*
X63210371Y-26829628D01*
X63067514Y-26901057D01*
X62996085Y-26972485D01*
X62924657Y-27115342D01*
X62853228Y-27401057D01*
X62853228Y-27758200D01*
X62924657Y-28043914D01*
X62996085Y-28186771D01*
X63067514Y-28258200D01*
X63210371Y-28329628D01*
X64996085Y-27829628D02*
X64996085Y-26829628D01*
X64638942Y-28401057D02*
X64281800Y-27329628D01*
X65210371Y-27329628D01*
X65424657Y-26686771D02*
X66567514Y-26686771D01*
X67424657Y-27615342D02*
X67638942Y-27543914D01*
X67710371Y-27472485D01*
X67781800Y-27329628D01*
X67781800Y-27115342D01*
X67710371Y-26972485D01*
X67638942Y-26901057D01*
X67496085Y-26829628D01*
X66924657Y-26829628D01*
X66924657Y-28329628D01*
X67424657Y-28329628D01*
X67567514Y-28258200D01*
X67638942Y-28186771D01*
X67710371Y-28043914D01*
X67710371Y-27901057D01*
X67638942Y-27758200D01*
X67567514Y-27686771D01*
X67424657Y-27615342D01*
X66924657Y-27615342D01*
X68353228Y-27258200D02*
X69067514Y-27258200D01*
X68210371Y-26829628D02*
X68710371Y-28329628D01*
X69210371Y-26829628D01*
X70567514Y-26972485D02*
X70496085Y-26901057D01*
X70281800Y-26829628D01*
X70138942Y-26829628D01*
X69924657Y-26901057D01*
X69781800Y-27043914D01*
X69710371Y-27186771D01*
X69638942Y-27472485D01*
X69638942Y-27686771D01*
X69710371Y-27972485D01*
X69781800Y-28115342D01*
X69924657Y-28258200D01*
X70138942Y-28329628D01*
X70281800Y-28329628D01*
X70496085Y-28258200D01*
X70567514Y-28186771D01*
X71210371Y-26829628D02*
X71210371Y-28329628D01*
X72067514Y-26829628D02*
X71424657Y-27686771D01*
X72067514Y-28329628D02*
X71210371Y-27472485D01*
X72710371Y-26829628D02*
X72710371Y-28329628D01*
X73281800Y-28329628D01*
X73424657Y-28258200D01*
X73496085Y-28186771D01*
X73567514Y-28043914D01*
X73567514Y-27829628D01*
X73496085Y-27686771D01*
X73424657Y-27615342D01*
X73281800Y-27543914D01*
X72710371Y-27543914D01*
X74138942Y-27258200D02*
X74853228Y-27258200D01*
X73996085Y-26829628D02*
X74496085Y-28329628D01*
X74996085Y-26829628D01*
X75496085Y-26829628D02*
X75496085Y-28329628D01*
X76353228Y-26829628D01*
X76353228Y-28329628D01*
X77067514Y-27615342D02*
X77567514Y-27615342D01*
X77781800Y-26829628D02*
X77067514Y-26829628D01*
X77067514Y-28329628D01*
X77781800Y-28329628D01*
X79138942Y-26829628D02*
X78424657Y-26829628D01*
X78424657Y-28329628D01*
D11*
G36*
X70431214Y-42053469D02*
G01*
X70515035Y-41608845D01*
X70824320Y-41481347D01*
X71133606Y-41353849D01*
X71504646Y-41606154D01*
X71608557Y-41676404D01*
X71702487Y-41739128D01*
X71782052Y-41791462D01*
X71842870Y-41830543D01*
X71880557Y-41853507D01*
X71890821Y-41858458D01*
X71909310Y-41845724D01*
X71948820Y-41810518D01*
X72004922Y-41757338D01*
X72073187Y-41690682D01*
X72149186Y-41615046D01*
X72228492Y-41534928D01*
X72306675Y-41454826D01*
X72379307Y-41379236D01*
X72441959Y-41312655D01*
X72490203Y-41259582D01*
X72519610Y-41224513D01*
X72526641Y-41212777D01*
X72516523Y-41191140D01*
X72488159Y-41143738D01*
X72444529Y-41075207D01*
X72388618Y-40990185D01*
X72323406Y-40893307D01*
X72285619Y-40838050D01*
X72216743Y-40737152D01*
X72155540Y-40646101D01*
X72104978Y-40569430D01*
X72068028Y-40511672D01*
X72047658Y-40477357D01*
X72044597Y-40470146D01*
X72051536Y-40449652D01*
X72070451Y-40401887D01*
X72098487Y-40333568D01*
X72132791Y-40251411D01*
X72170509Y-40162130D01*
X72208787Y-40072442D01*
X72244770Y-39989062D01*
X72275606Y-39918706D01*
X72298439Y-39868090D01*
X72310417Y-39843929D01*
X72311124Y-39842978D01*
X72329931Y-39838364D01*
X72380018Y-39828072D01*
X72456193Y-39813113D01*
X72553265Y-39794499D01*
X72666043Y-39773241D01*
X72731842Y-39760982D01*
X72852350Y-39738038D01*
X72961197Y-39716205D01*
X73052876Y-39696678D01*
X73121881Y-39680652D01*
X73162704Y-39669321D01*
X73170911Y-39665726D01*
X73178948Y-39641394D01*
X73185433Y-39586441D01*
X73190370Y-39507292D01*
X73193764Y-39410374D01*
X73195618Y-39302113D01*
X73195938Y-39188935D01*
X73194727Y-39077265D01*
X73191990Y-38973532D01*
X73187731Y-38884159D01*
X73181955Y-38815574D01*
X73174667Y-38774203D01*
X73170295Y-38765590D01*
X73144164Y-38755267D01*
X73088793Y-38740508D01*
X73011507Y-38723048D01*
X72919630Y-38704620D01*
X72887558Y-38698659D01*
X72732924Y-38670334D01*
X72610775Y-38647524D01*
X72517073Y-38629320D01*
X72447784Y-38614817D01*
X72398871Y-38603108D01*
X72366297Y-38593285D01*
X72346028Y-38584444D01*
X72334026Y-38575676D01*
X72332347Y-38573943D01*
X72315584Y-38546029D01*
X72290014Y-38491705D01*
X72258188Y-38417623D01*
X72222660Y-38330435D01*
X72185983Y-38236792D01*
X72150711Y-38143348D01*
X72119396Y-38056753D01*
X72094593Y-37983660D01*
X72078854Y-37930722D01*
X72074732Y-37904589D01*
X72075076Y-37903674D01*
X72089041Y-37882314D01*
X72120722Y-37835316D01*
X72166791Y-37767573D01*
X72223918Y-37683977D01*
X72288773Y-37589418D01*
X72307243Y-37562546D01*
X72373099Y-37465125D01*
X72431050Y-37376237D01*
X72477938Y-37300988D01*
X72510607Y-37244480D01*
X72525900Y-37211819D01*
X72526641Y-37207807D01*
X72513792Y-37186716D01*
X72478288Y-37144936D01*
X72424693Y-37086955D01*
X72357571Y-37017265D01*
X72281487Y-36940355D01*
X72201004Y-36860717D01*
X72120687Y-36782839D01*
X72045099Y-36711214D01*
X71978805Y-36650330D01*
X71926369Y-36604679D01*
X71892355Y-36578750D01*
X71882945Y-36574517D01*
X71861043Y-36584488D01*
X71816200Y-36611380D01*
X71755721Y-36650664D01*
X71709189Y-36682283D01*
X71624875Y-36740302D01*
X71525026Y-36808616D01*
X71424873Y-36876821D01*
X71371027Y-36913325D01*
X71188771Y-37036600D01*
X71035781Y-36953880D01*
X70966082Y-36917641D01*
X70906814Y-36889474D01*
X70866711Y-36873409D01*
X70856503Y-36871174D01*
X70844229Y-36887678D01*
X70820013Y-36934318D01*
X70785663Y-37006791D01*
X70742988Y-37100794D01*
X70693794Y-37212026D01*
X70639890Y-37336185D01*
X70583084Y-37468968D01*
X70525182Y-37606073D01*
X70467993Y-37743198D01*
X70413324Y-37876042D01*
X70362984Y-38000302D01*
X70318780Y-38111675D01*
X70282519Y-38205861D01*
X70256009Y-38278556D01*
X70241058Y-38325459D01*
X70238654Y-38341567D01*
X70257711Y-38362114D01*
X70299436Y-38395467D01*
X70355106Y-38434698D01*
X70359778Y-38437801D01*
X70503664Y-38552977D01*
X70619683Y-38687347D01*
X70706830Y-38836616D01*
X70764099Y-38996487D01*
X70790486Y-39162663D01*
X70784985Y-39330848D01*
X70746590Y-39496745D01*
X70674295Y-39656058D01*
X70653026Y-39690913D01*
X70542396Y-39831663D01*
X70411702Y-39944686D01*
X70265464Y-40029397D01*
X70108208Y-40085206D01*
X69944457Y-40111526D01*
X69778733Y-40107770D01*
X69615562Y-40073350D01*
X69459465Y-40007677D01*
X69314967Y-39910165D01*
X69270269Y-39870587D01*
X69156512Y-39746697D01*
X69073618Y-39616276D01*
X69016756Y-39470085D01*
X68985087Y-39325312D01*
X68977269Y-39162540D01*
X69003338Y-38998960D01*
X69060645Y-38840102D01*
X69146544Y-38691494D01*
X69258386Y-38558665D01*
X69393523Y-38447144D01*
X69411283Y-38435389D01*
X69467550Y-38396892D01*
X69510323Y-38363537D01*
X69530772Y-38342240D01*
X69531069Y-38341567D01*
X69526679Y-38318529D01*
X69509276Y-38266243D01*
X69480668Y-38189010D01*
X69442665Y-38091132D01*
X69397074Y-37976909D01*
X69345703Y-37850642D01*
X69290362Y-37716633D01*
X69232858Y-37579182D01*
X69175001Y-37442592D01*
X69118598Y-37311163D01*
X69065458Y-37189195D01*
X69017390Y-37080991D01*
X68976201Y-36990851D01*
X68943701Y-36923077D01*
X68921697Y-36881970D01*
X68912836Y-36871174D01*
X68885760Y-36879581D01*
X68835097Y-36902128D01*
X68769583Y-36934787D01*
X68733559Y-36953880D01*
X68580568Y-37036600D01*
X68398312Y-36913325D01*
X68305275Y-36850172D01*
X68203415Y-36780673D01*
X68107962Y-36715235D01*
X68060150Y-36682283D01*
X67992905Y-36637127D01*
X67935964Y-36601343D01*
X67896754Y-36579462D01*
X67884019Y-36574837D01*
X67865483Y-36587315D01*
X67824459Y-36622148D01*
X67764925Y-36675722D01*
X67690858Y-36744417D01*
X67606235Y-36824619D01*
X67552715Y-36876114D01*
X67459081Y-36968114D01*
X67378159Y-37050401D01*
X67313223Y-37119455D01*
X67267542Y-37171756D01*
X67244389Y-37203784D01*
X67242168Y-37210284D01*
X67252476Y-37235006D01*
X67280961Y-37284995D01*
X67324463Y-37355188D01*
X67379823Y-37440525D01*
X67443880Y-37535944D01*
X67462097Y-37562546D01*
X67528473Y-37659233D01*
X67588022Y-37746283D01*
X67637416Y-37818805D01*
X67673325Y-37871907D01*
X67692419Y-37900697D01*
X67694264Y-37903674D01*
X67691505Y-37926618D01*
X67676862Y-37977064D01*
X67652887Y-38048359D01*
X67622134Y-38133853D01*
X67587156Y-38226893D01*
X67550507Y-38320826D01*
X67514739Y-38409001D01*
X67482406Y-38484766D01*
X67456062Y-38541469D01*
X67438258Y-38572457D01*
X67436993Y-38573943D01*
X67426106Y-38582799D01*
X67407718Y-38591557D01*
X67377794Y-38601123D01*
X67332297Y-38612404D01*
X67267191Y-38626307D01*
X67178439Y-38643737D01*
X67062007Y-38665602D01*
X66913858Y-38692809D01*
X66881782Y-38698659D01*
X66786714Y-38717026D01*
X66703835Y-38734995D01*
X66640470Y-38750831D01*
X66603942Y-38762800D01*
X66599044Y-38765590D01*
X66590973Y-38790328D01*
X66584413Y-38845610D01*
X66579367Y-38925011D01*
X66575841Y-39022104D01*
X66573839Y-39130462D01*
X66573364Y-39243660D01*
X66574423Y-39355272D01*
X66577018Y-39458871D01*
X66581154Y-39548032D01*
X66586837Y-39616328D01*
X66594069Y-39657334D01*
X66598429Y-39665726D01*
X66622702Y-39674192D01*
X66677974Y-39687965D01*
X66758738Y-39705850D01*
X66859488Y-39726652D01*
X66974717Y-39749177D01*
X67037498Y-39760982D01*
X67156613Y-39783249D01*
X67262835Y-39803421D01*
X67350973Y-39820485D01*
X67415834Y-39833431D01*
X67452226Y-39841245D01*
X67458216Y-39842978D01*
X67468339Y-39862510D01*
X67489738Y-39909557D01*
X67519561Y-39977397D01*
X67554955Y-40059309D01*
X67593068Y-40148572D01*
X67631047Y-40238465D01*
X67666040Y-40322265D01*
X67695194Y-40393253D01*
X67715657Y-40444706D01*
X67724577Y-40469903D01*
X67724743Y-40471004D01*
X67714631Y-40490881D01*
X67686283Y-40536623D01*
X67642677Y-40603683D01*
X67586794Y-40687516D01*
X67521613Y-40783574D01*
X67483721Y-40838750D01*
X67414675Y-40939919D01*
X67353350Y-41031770D01*
X67302737Y-41109656D01*
X67265829Y-41168931D01*
X67245618Y-41204949D01*
X67242699Y-41213023D01*
X67255247Y-41231816D01*
X67289937Y-41271943D01*
X67342337Y-41328907D01*
X67408016Y-41398215D01*
X67482544Y-41475369D01*
X67561487Y-41555875D01*
X67640417Y-41635237D01*
X67714900Y-41708960D01*
X67780506Y-41772548D01*
X67832804Y-41821506D01*
X67867361Y-41851339D01*
X67878922Y-41858458D01*
X67897746Y-41848447D01*
X67942769Y-41820322D01*
X68009613Y-41776946D01*
X68093901Y-41721182D01*
X68191256Y-41655894D01*
X68264693Y-41606154D01*
X68635733Y-41353849D01*
X69254305Y-41608845D01*
X69338125Y-42053469D01*
X69421946Y-42498093D01*
X70347394Y-42498093D01*
X70431214Y-42053469D01*
G37*
X70431214Y-42053469D02*
X70515035Y-41608845D01*
X70824320Y-41481347D01*
X71133606Y-41353849D01*
X71504646Y-41606154D01*
X71608557Y-41676404D01*
X71702487Y-41739128D01*
X71782052Y-41791462D01*
X71842870Y-41830543D01*
X71880557Y-41853507D01*
X71890821Y-41858458D01*
X71909310Y-41845724D01*
X71948820Y-41810518D01*
X72004922Y-41757338D01*
X72073187Y-41690682D01*
X72149186Y-41615046D01*
X72228492Y-41534928D01*
X72306675Y-41454826D01*
X72379307Y-41379236D01*
X72441959Y-41312655D01*
X72490203Y-41259582D01*
X72519610Y-41224513D01*
X72526641Y-41212777D01*
X72516523Y-41191140D01*
X72488159Y-41143738D01*
X72444529Y-41075207D01*
X72388618Y-40990185D01*
X72323406Y-40893307D01*
X72285619Y-40838050D01*
X72216743Y-40737152D01*
X72155540Y-40646101D01*
X72104978Y-40569430D01*
X72068028Y-40511672D01*
X72047658Y-40477357D01*
X72044597Y-40470146D01*
X72051536Y-40449652D01*
X72070451Y-40401887D01*
X72098487Y-40333568D01*
X72132791Y-40251411D01*
X72170509Y-40162130D01*
X72208787Y-40072442D01*
X72244770Y-39989062D01*
X72275606Y-39918706D01*
X72298439Y-39868090D01*
X72310417Y-39843929D01*
X72311124Y-39842978D01*
X72329931Y-39838364D01*
X72380018Y-39828072D01*
X72456193Y-39813113D01*
X72553265Y-39794499D01*
X72666043Y-39773241D01*
X72731842Y-39760982D01*
X72852350Y-39738038D01*
X72961197Y-39716205D01*
X73052876Y-39696678D01*
X73121881Y-39680652D01*
X73162704Y-39669321D01*
X73170911Y-39665726D01*
X73178948Y-39641394D01*
X73185433Y-39586441D01*
X73190370Y-39507292D01*
X73193764Y-39410374D01*
X73195618Y-39302113D01*
X73195938Y-39188935D01*
X73194727Y-39077265D01*
X73191990Y-38973532D01*
X73187731Y-38884159D01*
X73181955Y-38815574D01*
X73174667Y-38774203D01*
X73170295Y-38765590D01*
X73144164Y-38755267D01*
X73088793Y-38740508D01*
X73011507Y-38723048D01*
X72919630Y-38704620D01*
X72887558Y-38698659D01*
X72732924Y-38670334D01*
X72610775Y-38647524D01*
X72517073Y-38629320D01*
X72447784Y-38614817D01*
X72398871Y-38603108D01*
X72366297Y-38593285D01*
X72346028Y-38584444D01*
X72334026Y-38575676D01*
X72332347Y-38573943D01*
X72315584Y-38546029D01*
X72290014Y-38491705D01*
X72258188Y-38417623D01*
X72222660Y-38330435D01*
X72185983Y-38236792D01*
X72150711Y-38143348D01*
X72119396Y-38056753D01*
X72094593Y-37983660D01*
X72078854Y-37930722D01*
X72074732Y-37904589D01*
X72075076Y-37903674D01*
X72089041Y-37882314D01*
X72120722Y-37835316D01*
X72166791Y-37767573D01*
X72223918Y-37683977D01*
X72288773Y-37589418D01*
X72307243Y-37562546D01*
X72373099Y-37465125D01*
X72431050Y-37376237D01*
X72477938Y-37300988D01*
X72510607Y-37244480D01*
X72525900Y-37211819D01*
X72526641Y-37207807D01*
X72513792Y-37186716D01*
X72478288Y-37144936D01*
X72424693Y-37086955D01*
X72357571Y-37017265D01*
X72281487Y-36940355D01*
X72201004Y-36860717D01*
X72120687Y-36782839D01*
X72045099Y-36711214D01*
X71978805Y-36650330D01*
X71926369Y-36604679D01*
X71892355Y-36578750D01*
X71882945Y-36574517D01*
X71861043Y-36584488D01*
X71816200Y-36611380D01*
X71755721Y-36650664D01*
X71709189Y-36682283D01*
X71624875Y-36740302D01*
X71525026Y-36808616D01*
X71424873Y-36876821D01*
X71371027Y-36913325D01*
X71188771Y-37036600D01*
X71035781Y-36953880D01*
X70966082Y-36917641D01*
X70906814Y-36889474D01*
X70866711Y-36873409D01*
X70856503Y-36871174D01*
X70844229Y-36887678D01*
X70820013Y-36934318D01*
X70785663Y-37006791D01*
X70742988Y-37100794D01*
X70693794Y-37212026D01*
X70639890Y-37336185D01*
X70583084Y-37468968D01*
X70525182Y-37606073D01*
X70467993Y-37743198D01*
X70413324Y-37876042D01*
X70362984Y-38000302D01*
X70318780Y-38111675D01*
X70282519Y-38205861D01*
X70256009Y-38278556D01*
X70241058Y-38325459D01*
X70238654Y-38341567D01*
X70257711Y-38362114D01*
X70299436Y-38395467D01*
X70355106Y-38434698D01*
X70359778Y-38437801D01*
X70503664Y-38552977D01*
X70619683Y-38687347D01*
X70706830Y-38836616D01*
X70764099Y-38996487D01*
X70790486Y-39162663D01*
X70784985Y-39330848D01*
X70746590Y-39496745D01*
X70674295Y-39656058D01*
X70653026Y-39690913D01*
X70542396Y-39831663D01*
X70411702Y-39944686D01*
X70265464Y-40029397D01*
X70108208Y-40085206D01*
X69944457Y-40111526D01*
X69778733Y-40107770D01*
X69615562Y-40073350D01*
X69459465Y-40007677D01*
X69314967Y-39910165D01*
X69270269Y-39870587D01*
X69156512Y-39746697D01*
X69073618Y-39616276D01*
X69016756Y-39470085D01*
X68985087Y-39325312D01*
X68977269Y-39162540D01*
X69003338Y-38998960D01*
X69060645Y-38840102D01*
X69146544Y-38691494D01*
X69258386Y-38558665D01*
X69393523Y-38447144D01*
X69411283Y-38435389D01*
X69467550Y-38396892D01*
X69510323Y-38363537D01*
X69530772Y-38342240D01*
X69531069Y-38341567D01*
X69526679Y-38318529D01*
X69509276Y-38266243D01*
X69480668Y-38189010D01*
X69442665Y-38091132D01*
X69397074Y-37976909D01*
X69345703Y-37850642D01*
X69290362Y-37716633D01*
X69232858Y-37579182D01*
X69175001Y-37442592D01*
X69118598Y-37311163D01*
X69065458Y-37189195D01*
X69017390Y-37080991D01*
X68976201Y-36990851D01*
X68943701Y-36923077D01*
X68921697Y-36881970D01*
X68912836Y-36871174D01*
X68885760Y-36879581D01*
X68835097Y-36902128D01*
X68769583Y-36934787D01*
X68733559Y-36953880D01*
X68580568Y-37036600D01*
X68398312Y-36913325D01*
X68305275Y-36850172D01*
X68203415Y-36780673D01*
X68107962Y-36715235D01*
X68060150Y-36682283D01*
X67992905Y-36637127D01*
X67935964Y-36601343D01*
X67896754Y-36579462D01*
X67884019Y-36574837D01*
X67865483Y-36587315D01*
X67824459Y-36622148D01*
X67764925Y-36675722D01*
X67690858Y-36744417D01*
X67606235Y-36824619D01*
X67552715Y-36876114D01*
X67459081Y-36968114D01*
X67378159Y-37050401D01*
X67313223Y-37119455D01*
X67267542Y-37171756D01*
X67244389Y-37203784D01*
X67242168Y-37210284D01*
X67252476Y-37235006D01*
X67280961Y-37284995D01*
X67324463Y-37355188D01*
X67379823Y-37440525D01*
X67443880Y-37535944D01*
X67462097Y-37562546D01*
X67528473Y-37659233D01*
X67588022Y-37746283D01*
X67637416Y-37818805D01*
X67673325Y-37871907D01*
X67692419Y-37900697D01*
X67694264Y-37903674D01*
X67691505Y-37926618D01*
X67676862Y-37977064D01*
X67652887Y-38048359D01*
X67622134Y-38133853D01*
X67587156Y-38226893D01*
X67550507Y-38320826D01*
X67514739Y-38409001D01*
X67482406Y-38484766D01*
X67456062Y-38541469D01*
X67438258Y-38572457D01*
X67436993Y-38573943D01*
X67426106Y-38582799D01*
X67407718Y-38591557D01*
X67377794Y-38601123D01*
X67332297Y-38612404D01*
X67267191Y-38626307D01*
X67178439Y-38643737D01*
X67062007Y-38665602D01*
X66913858Y-38692809D01*
X66881782Y-38698659D01*
X66786714Y-38717026D01*
X66703835Y-38734995D01*
X66640470Y-38750831D01*
X66603942Y-38762800D01*
X66599044Y-38765590D01*
X66590973Y-38790328D01*
X66584413Y-38845610D01*
X66579367Y-38925011D01*
X66575841Y-39022104D01*
X66573839Y-39130462D01*
X66573364Y-39243660D01*
X66574423Y-39355272D01*
X66577018Y-39458871D01*
X66581154Y-39548032D01*
X66586837Y-39616328D01*
X66594069Y-39657334D01*
X66598429Y-39665726D01*
X66622702Y-39674192D01*
X66677974Y-39687965D01*
X66758738Y-39705850D01*
X66859488Y-39726652D01*
X66974717Y-39749177D01*
X67037498Y-39760982D01*
X67156613Y-39783249D01*
X67262835Y-39803421D01*
X67350973Y-39820485D01*
X67415834Y-39833431D01*
X67452226Y-39841245D01*
X67458216Y-39842978D01*
X67468339Y-39862510D01*
X67489738Y-39909557D01*
X67519561Y-39977397D01*
X67554955Y-40059309D01*
X67593068Y-40148572D01*
X67631047Y-40238465D01*
X67666040Y-40322265D01*
X67695194Y-40393253D01*
X67715657Y-40444706D01*
X67724577Y-40469903D01*
X67724743Y-40471004D01*
X67714631Y-40490881D01*
X67686283Y-40536623D01*
X67642677Y-40603683D01*
X67586794Y-40687516D01*
X67521613Y-40783574D01*
X67483721Y-40838750D01*
X67414675Y-40939919D01*
X67353350Y-41031770D01*
X67302737Y-41109656D01*
X67265829Y-41168931D01*
X67245618Y-41204949D01*
X67242699Y-41213023D01*
X67255247Y-41231816D01*
X67289937Y-41271943D01*
X67342337Y-41328907D01*
X67408016Y-41398215D01*
X67482544Y-41475369D01*
X67561487Y-41555875D01*
X67640417Y-41635237D01*
X67714900Y-41708960D01*
X67780506Y-41772548D01*
X67832804Y-41821506D01*
X67867361Y-41851339D01*
X67878922Y-41858458D01*
X67897746Y-41848447D01*
X67942769Y-41820322D01*
X68009613Y-41776946D01*
X68093901Y-41721182D01*
X68191256Y-41655894D01*
X68264693Y-41606154D01*
X68635733Y-41353849D01*
X69254305Y-41608845D01*
X69338125Y-42053469D01*
X69421946Y-42498093D01*
X70347394Y-42498093D01*
X70431214Y-42053469D01*
D12*
X79690000Y-59370000D03*
X79690000Y-39050000D03*
X28890000Y-59370000D03*
X28890000Y-39050000D03*
D13*
G36*
X86130001Y-76550000D02*
G01*
X22450000Y-76550000D01*
X22450000Y-73499721D01*
X23155000Y-73499721D01*
X23155000Y-73920279D01*
X23237047Y-74332756D01*
X23397988Y-74721302D01*
X23631637Y-75070983D01*
X23929017Y-75368363D01*
X24278698Y-75602012D01*
X24667244Y-75762953D01*
X25079721Y-75845000D01*
X25500279Y-75845000D01*
X25912756Y-75762953D01*
X26301302Y-75602012D01*
X26650983Y-75368363D01*
X26948363Y-75070983D01*
X27182012Y-74721302D01*
X27342953Y-74332756D01*
X27425000Y-73920279D01*
X27425000Y-73499721D01*
X81155000Y-73499721D01*
X81155000Y-73920279D01*
X81237047Y-74332756D01*
X81397988Y-74721302D01*
X81631637Y-75070983D01*
X81929017Y-75368363D01*
X82278698Y-75602012D01*
X82667244Y-75762953D01*
X83079721Y-75845000D01*
X83500279Y-75845000D01*
X83912756Y-75762953D01*
X84301302Y-75602012D01*
X84650983Y-75368363D01*
X84948363Y-75070983D01*
X85182012Y-74721302D01*
X85342953Y-74332756D01*
X85425000Y-73920279D01*
X85425000Y-73499721D01*
X85342953Y-73087244D01*
X85182012Y-72698698D01*
X84948363Y-72349017D01*
X84650983Y-72051637D01*
X84301302Y-71817988D01*
X83912756Y-71657047D01*
X83500279Y-71575000D01*
X83079721Y-71575000D01*
X82667244Y-71657047D01*
X82278698Y-71817988D01*
X81929017Y-72051637D01*
X81631637Y-72349017D01*
X81397988Y-72698698D01*
X81237047Y-73087244D01*
X81155000Y-73499721D01*
X27425000Y-73499721D01*
X27342953Y-73087244D01*
X27182012Y-72698698D01*
X26948363Y-72349017D01*
X26650983Y-72051637D01*
X26301302Y-71817988D01*
X25912756Y-71657047D01*
X25500279Y-71575000D01*
X25079721Y-71575000D01*
X24667244Y-71657047D01*
X24278698Y-71817988D01*
X23929017Y-72051637D01*
X23631637Y-72349017D01*
X23397988Y-72698698D01*
X23237047Y-73087244D01*
X23155000Y-73499721D01*
X22450000Y-73499721D01*
X22450000Y-64239721D01*
X31835000Y-64239721D01*
X31835000Y-64660279D01*
X31917047Y-65072756D01*
X32077988Y-65461302D01*
X32311637Y-65810983D01*
X32609017Y-66108363D01*
X32958698Y-66342012D01*
X33347244Y-66502953D01*
X33759721Y-66585000D01*
X34180279Y-66585000D01*
X34592756Y-66502953D01*
X34981302Y-66342012D01*
X35330983Y-66108363D01*
X35628363Y-65810983D01*
X35862012Y-65461302D01*
X36022953Y-65072756D01*
X36105000Y-64660279D01*
X36105000Y-64239721D01*
X41995000Y-64239721D01*
X41995000Y-64660279D01*
X42077047Y-65072756D01*
X42237988Y-65461302D01*
X42471637Y-65810983D01*
X42769017Y-66108363D01*
X43118698Y-66342012D01*
X43507244Y-66502953D01*
X43919721Y-66585000D01*
X44340279Y-66585000D01*
X44752756Y-66502953D01*
X45141302Y-66342012D01*
X45490983Y-66108363D01*
X45788363Y-65810983D01*
X46022012Y-65461302D01*
X46182953Y-65072756D01*
X46265000Y-64660279D01*
X46265000Y-64239721D01*
X52155000Y-64239721D01*
X52155000Y-64660279D01*
X52237047Y-65072756D01*
X52397988Y-65461302D01*
X52631637Y-65810983D01*
X52929017Y-66108363D01*
X53278698Y-66342012D01*
X53667244Y-66502953D01*
X54079721Y-66585000D01*
X54500279Y-66585000D01*
X54912756Y-66502953D01*
X55301302Y-66342012D01*
X55650983Y-66108363D01*
X55948363Y-65810983D01*
X56182012Y-65461302D01*
X56342953Y-65072756D01*
X56425000Y-64660279D01*
X56425000Y-64239721D01*
X62315000Y-64239721D01*
X62315000Y-64660279D01*
X62397047Y-65072756D01*
X62557988Y-65461302D01*
X62791637Y-65810983D01*
X63089017Y-66108363D01*
X63438698Y-66342012D01*
X63827244Y-66502953D01*
X64239721Y-66585000D01*
X64660279Y-66585000D01*
X65072756Y-66502953D01*
X65461302Y-66342012D01*
X65810983Y-66108363D01*
X66108363Y-65810983D01*
X66342012Y-65461302D01*
X66502953Y-65072756D01*
X66585000Y-64660279D01*
X66585000Y-64239721D01*
X72475000Y-64239721D01*
X72475000Y-64660279D01*
X72557047Y-65072756D01*
X72717988Y-65461302D01*
X72951637Y-65810983D01*
X73249017Y-66108363D01*
X73598698Y-66342012D01*
X73987244Y-66502953D01*
X74399721Y-66585000D01*
X74820279Y-66585000D01*
X75232756Y-66502953D01*
X75621302Y-66342012D01*
X75970983Y-66108363D01*
X76268363Y-65810983D01*
X76502012Y-65461302D01*
X76662953Y-65072756D01*
X76745000Y-64660279D01*
X76745000Y-64239721D01*
X76662953Y-63827244D01*
X76502012Y-63438698D01*
X76268363Y-63089017D01*
X75970983Y-62791637D01*
X75621302Y-62557988D01*
X75232756Y-62397047D01*
X74820279Y-62315000D01*
X74399721Y-62315000D01*
X73987244Y-62397047D01*
X73598698Y-62557988D01*
X73249017Y-62791637D01*
X72951637Y-63089017D01*
X72717988Y-63438698D01*
X72557047Y-63827244D01*
X72475000Y-64239721D01*
X66585000Y-64239721D01*
X66502953Y-63827244D01*
X66342012Y-63438698D01*
X66108363Y-63089017D01*
X65810983Y-62791637D01*
X65461302Y-62557988D01*
X65072756Y-62397047D01*
X64660279Y-62315000D01*
X64239721Y-62315000D01*
X63827244Y-62397047D01*
X63438698Y-62557988D01*
X63089017Y-62791637D01*
X62791637Y-63089017D01*
X62557988Y-63438698D01*
X62397047Y-63827244D01*
X62315000Y-64239721D01*
X56425000Y-64239721D01*
X56342953Y-63827244D01*
X56182012Y-63438698D01*
X55948363Y-63089017D01*
X55650983Y-62791637D01*
X55301302Y-62557988D01*
X54912756Y-62397047D01*
X54500279Y-62315000D01*
X54079721Y-62315000D01*
X53667244Y-62397047D01*
X53278698Y-62557988D01*
X52929017Y-62791637D01*
X52631637Y-63089017D01*
X52397988Y-63438698D01*
X52237047Y-63827244D01*
X52155000Y-64239721D01*
X46265000Y-64239721D01*
X46182953Y-63827244D01*
X46022012Y-63438698D01*
X45788363Y-63089017D01*
X45490983Y-62791637D01*
X45141302Y-62557988D01*
X44752756Y-62397047D01*
X44340279Y-62315000D01*
X43919721Y-62315000D01*
X43507244Y-62397047D01*
X43118698Y-62557988D01*
X42769017Y-62791637D01*
X42471637Y-63089017D01*
X42237988Y-63438698D01*
X42077047Y-63827244D01*
X41995000Y-64239721D01*
X36105000Y-64239721D01*
X36022953Y-63827244D01*
X35862012Y-63438698D01*
X35628363Y-63089017D01*
X35330983Y-62791637D01*
X34981302Y-62557988D01*
X34592756Y-62397047D01*
X34180279Y-62315000D01*
X33759721Y-62315000D01*
X33347244Y-62397047D01*
X32958698Y-62557988D01*
X32609017Y-62791637D01*
X32311637Y-63089017D01*
X32077988Y-63438698D01*
X31917047Y-63827244D01*
X31835000Y-64239721D01*
X22450000Y-64239721D01*
X22450000Y-60683377D01*
X27756229Y-60683377D01*
X27882104Y-60973315D01*
X28214262Y-61139139D01*
X28572387Y-61236975D01*
X28942719Y-61263065D01*
X29311025Y-61216405D01*
X29663151Y-61098789D01*
X29897896Y-60973315D01*
X30023771Y-60683377D01*
X78556229Y-60683377D01*
X78682104Y-60973315D01*
X79014262Y-61139139D01*
X79372387Y-61236975D01*
X79742719Y-61263065D01*
X80111025Y-61216405D01*
X80463151Y-61098789D01*
X80697896Y-60973315D01*
X80823771Y-60683377D01*
X79690000Y-59549605D01*
X78556229Y-60683377D01*
X30023771Y-60683377D01*
X28890000Y-59549605D01*
X27756229Y-60683377D01*
X22450000Y-60683377D01*
X22450000Y-59422719D01*
X26996935Y-59422719D01*
X27043595Y-59791025D01*
X27161211Y-60143151D01*
X27286685Y-60377896D01*
X27576623Y-60503771D01*
X28710395Y-59370000D01*
X29069605Y-59370000D01*
X30203377Y-60503771D01*
X30493315Y-60377896D01*
X30659139Y-60045738D01*
X30756975Y-59687613D01*
X30775636Y-59422719D01*
X77796935Y-59422719D01*
X77843595Y-59791025D01*
X77961211Y-60143151D01*
X78086685Y-60377896D01*
X78376623Y-60503771D01*
X79510395Y-59370000D01*
X79869605Y-59370000D01*
X81003377Y-60503771D01*
X81293315Y-60377896D01*
X81459139Y-60045738D01*
X81556975Y-59687613D01*
X81583065Y-59317281D01*
X81536405Y-58948975D01*
X81418789Y-58596849D01*
X81293315Y-58362104D01*
X81003377Y-58236229D01*
X79869605Y-59370000D01*
X79510395Y-59370000D01*
X78376623Y-58236229D01*
X78086685Y-58362104D01*
X77920861Y-58694262D01*
X77823025Y-59052387D01*
X77796935Y-59422719D01*
X30775636Y-59422719D01*
X30783065Y-59317281D01*
X30736405Y-58948975D01*
X30618789Y-58596849D01*
X30493315Y-58362104D01*
X30203377Y-58236229D01*
X29069605Y-59370000D01*
X28710395Y-59370000D01*
X27576623Y-58236229D01*
X27286685Y-58362104D01*
X27120861Y-58694262D01*
X27023025Y-59052387D01*
X26996935Y-59422719D01*
X22450000Y-59422719D01*
X22450000Y-58056623D01*
X27756229Y-58056623D01*
X28890000Y-59190395D01*
X30023771Y-58056623D01*
X78556229Y-58056623D01*
X79690000Y-59190395D01*
X80823771Y-58056623D01*
X80697896Y-57766685D01*
X80365738Y-57600861D01*
X80007613Y-57503025D01*
X79637281Y-57476935D01*
X79268975Y-57523595D01*
X78916849Y-57641211D01*
X78682104Y-57766685D01*
X78556229Y-58056623D01*
X30023771Y-58056623D01*
X29897896Y-57766685D01*
X29565738Y-57600861D01*
X29207613Y-57503025D01*
X28837281Y-57476935D01*
X28468975Y-57523595D01*
X28116849Y-57641211D01*
X27882104Y-57766685D01*
X27756229Y-58056623D01*
X22450000Y-58056623D01*
X22450000Y-54079721D01*
X31835000Y-54079721D01*
X31835000Y-54500279D01*
X31917047Y-54912756D01*
X32077988Y-55301302D01*
X32311637Y-55650983D01*
X32609017Y-55948363D01*
X32958698Y-56182012D01*
X33347244Y-56342953D01*
X33759721Y-56425000D01*
X34180279Y-56425000D01*
X34592756Y-56342953D01*
X34981302Y-56182012D01*
X35330983Y-55948363D01*
X35628363Y-55650983D01*
X35862012Y-55301302D01*
X36022953Y-54912756D01*
X36105000Y-54500279D01*
X36105000Y-54079721D01*
X41995000Y-54079721D01*
X41995000Y-54500279D01*
X42077047Y-54912756D01*
X42237988Y-55301302D01*
X42471637Y-55650983D01*
X42769017Y-55948363D01*
X43118698Y-56182012D01*
X43507244Y-56342953D01*
X43919721Y-56425000D01*
X44340279Y-56425000D01*
X44752756Y-56342953D01*
X45141302Y-56182012D01*
X45490983Y-55948363D01*
X45788363Y-55650983D01*
X46022012Y-55301302D01*
X46182953Y-54912756D01*
X46265000Y-54500279D01*
X46265000Y-54079721D01*
X52155000Y-54079721D01*
X52155000Y-54500279D01*
X52237047Y-54912756D01*
X52397988Y-55301302D01*
X52631637Y-55650983D01*
X52929017Y-55948363D01*
X53278698Y-56182012D01*
X53667244Y-56342953D01*
X54079721Y-56425000D01*
X54500279Y-56425000D01*
X54912756Y-56342953D01*
X55301302Y-56182012D01*
X55650983Y-55948363D01*
X55948363Y-55650983D01*
X56182012Y-55301302D01*
X56342953Y-54912756D01*
X56425000Y-54500279D01*
X56425000Y-54079721D01*
X62315000Y-54079721D01*
X62315000Y-54500279D01*
X62397047Y-54912756D01*
X62557988Y-55301302D01*
X62791637Y-55650983D01*
X63089017Y-55948363D01*
X63438698Y-56182012D01*
X63827244Y-56342953D01*
X64239721Y-56425000D01*
X64660279Y-56425000D01*
X65072756Y-56342953D01*
X65461302Y-56182012D01*
X65810983Y-55948363D01*
X66108363Y-55650983D01*
X66342012Y-55301302D01*
X66502953Y-54912756D01*
X66585000Y-54500279D01*
X66585000Y-54079721D01*
X72475000Y-54079721D01*
X72475000Y-54500279D01*
X72557047Y-54912756D01*
X72717988Y-55301302D01*
X72951637Y-55650983D01*
X73249017Y-55948363D01*
X73598698Y-56182012D01*
X73987244Y-56342953D01*
X74399721Y-56425000D01*
X74820279Y-56425000D01*
X75232756Y-56342953D01*
X75621302Y-56182012D01*
X75970983Y-55948363D01*
X76268363Y-55650983D01*
X76502012Y-55301302D01*
X76662953Y-54912756D01*
X76745000Y-54500279D01*
X76745000Y-54079721D01*
X76662953Y-53667244D01*
X76502012Y-53278698D01*
X76268363Y-52929017D01*
X75970983Y-52631637D01*
X75621302Y-52397988D01*
X75232756Y-52237047D01*
X74820279Y-52155000D01*
X74399721Y-52155000D01*
X73987244Y-52237047D01*
X73598698Y-52397988D01*
X73249017Y-52631637D01*
X72951637Y-52929017D01*
X72717988Y-53278698D01*
X72557047Y-53667244D01*
X72475000Y-54079721D01*
X66585000Y-54079721D01*
X66502953Y-53667244D01*
X66342012Y-53278698D01*
X66108363Y-52929017D01*
X65810983Y-52631637D01*
X65461302Y-52397988D01*
X65072756Y-52237047D01*
X64660279Y-52155000D01*
X64239721Y-52155000D01*
X63827244Y-52237047D01*
X63438698Y-52397988D01*
X63089017Y-52631637D01*
X62791637Y-52929017D01*
X62557988Y-53278698D01*
X62397047Y-53667244D01*
X62315000Y-54079721D01*
X56425000Y-54079721D01*
X56342953Y-53667244D01*
X56182012Y-53278698D01*
X55948363Y-52929017D01*
X55650983Y-52631637D01*
X55301302Y-52397988D01*
X54912756Y-52237047D01*
X54500279Y-52155000D01*
X54079721Y-52155000D01*
X53667244Y-52237047D01*
X53278698Y-52397988D01*
X52929017Y-52631637D01*
X52631637Y-52929017D01*
X52397988Y-53278698D01*
X52237047Y-53667244D01*
X52155000Y-54079721D01*
X46265000Y-54079721D01*
X46182953Y-53667244D01*
X46022012Y-53278698D01*
X45788363Y-52929017D01*
X45490983Y-52631637D01*
X45141302Y-52397988D01*
X44752756Y-52237047D01*
X44340279Y-52155000D01*
X43919721Y-52155000D01*
X43507244Y-52237047D01*
X43118698Y-52397988D01*
X42769017Y-52631637D01*
X42471637Y-52929017D01*
X42237988Y-53278698D01*
X42077047Y-53667244D01*
X41995000Y-54079721D01*
X36105000Y-54079721D01*
X36022953Y-53667244D01*
X35862012Y-53278698D01*
X35628363Y-52929017D01*
X35330983Y-52631637D01*
X34981302Y-52397988D01*
X34592756Y-52237047D01*
X34180279Y-52155000D01*
X33759721Y-52155000D01*
X33347244Y-52237047D01*
X32958698Y-52397988D01*
X32609017Y-52631637D01*
X32311637Y-52929017D01*
X32077988Y-53278698D01*
X31917047Y-53667244D01*
X31835000Y-54079721D01*
X22450000Y-54079721D01*
X22450000Y-43919721D01*
X31835000Y-43919721D01*
X31835000Y-44340279D01*
X31917047Y-44752756D01*
X32077988Y-45141302D01*
X32311637Y-45490983D01*
X32609017Y-45788363D01*
X32958698Y-46022012D01*
X33347244Y-46182953D01*
X33759721Y-46265000D01*
X34180279Y-46265000D01*
X34592756Y-46182953D01*
X34981302Y-46022012D01*
X35330983Y-45788363D01*
X35628363Y-45490983D01*
X35862012Y-45141302D01*
X36022953Y-44752756D01*
X36105000Y-44340279D01*
X36105000Y-43919721D01*
X41995000Y-43919721D01*
X41995000Y-44340279D01*
X42077047Y-44752756D01*
X42237988Y-45141302D01*
X42471637Y-45490983D01*
X42769017Y-45788363D01*
X43118698Y-46022012D01*
X43507244Y-46182953D01*
X43919721Y-46265000D01*
X44340279Y-46265000D01*
X44752756Y-46182953D01*
X45141302Y-46022012D01*
X45490983Y-45788363D01*
X45788363Y-45490983D01*
X46022012Y-45141302D01*
X46182953Y-44752756D01*
X46265000Y-44340279D01*
X46265000Y-43919721D01*
X52155000Y-43919721D01*
X52155000Y-44340279D01*
X52237047Y-44752756D01*
X52397988Y-45141302D01*
X52631637Y-45490983D01*
X52929017Y-45788363D01*
X53278698Y-46022012D01*
X53667244Y-46182953D01*
X54079721Y-46265000D01*
X54500279Y-46265000D01*
X54912756Y-46182953D01*
X55301302Y-46022012D01*
X55650983Y-45788363D01*
X55948363Y-45490983D01*
X56182012Y-45141302D01*
X56342953Y-44752756D01*
X56425000Y-44340279D01*
X56425000Y-43919721D01*
X62315000Y-43919721D01*
X62315000Y-44340279D01*
X62397047Y-44752756D01*
X62557988Y-45141302D01*
X62791637Y-45490983D01*
X63089017Y-45788363D01*
X63438698Y-46022012D01*
X63827244Y-46182953D01*
X64239721Y-46265000D01*
X64660279Y-46265000D01*
X65072756Y-46182953D01*
X65461302Y-46022012D01*
X65810983Y-45788363D01*
X66108363Y-45490983D01*
X66342012Y-45141302D01*
X66502953Y-44752756D01*
X66585000Y-44340279D01*
X66585000Y-43919721D01*
X72475000Y-43919721D01*
X72475000Y-44340279D01*
X72557047Y-44752756D01*
X72717988Y-45141302D01*
X72951637Y-45490983D01*
X73249017Y-45788363D01*
X73598698Y-46022012D01*
X73987244Y-46182953D01*
X74399721Y-46265000D01*
X74820279Y-46265000D01*
X75232756Y-46182953D01*
X75621302Y-46022012D01*
X75970983Y-45788363D01*
X76268363Y-45490983D01*
X76502012Y-45141302D01*
X76662953Y-44752756D01*
X76745000Y-44340279D01*
X76745000Y-43919721D01*
X76662953Y-43507244D01*
X76502012Y-43118698D01*
X76268363Y-42769017D01*
X75970983Y-42471637D01*
X75621302Y-42237988D01*
X75232756Y-42077047D01*
X74820279Y-41995000D01*
X74399721Y-41995000D01*
X73987244Y-42077047D01*
X73598698Y-42237988D01*
X73249017Y-42471637D01*
X72951637Y-42769017D01*
X72717988Y-43118698D01*
X72557047Y-43507244D01*
X72475000Y-43919721D01*
X66585000Y-43919721D01*
X66502953Y-43507244D01*
X66342012Y-43118698D01*
X66108363Y-42769017D01*
X65810983Y-42471637D01*
X65461302Y-42237988D01*
X65072756Y-42077047D01*
X64660279Y-41995000D01*
X64239721Y-41995000D01*
X63827244Y-42077047D01*
X63438698Y-42237988D01*
X63089017Y-42471637D01*
X62791637Y-42769017D01*
X62557988Y-43118698D01*
X62397047Y-43507244D01*
X62315000Y-43919721D01*
X56425000Y-43919721D01*
X56342953Y-43507244D01*
X56182012Y-43118698D01*
X55948363Y-42769017D01*
X55650983Y-42471637D01*
X55301302Y-42237988D01*
X54912756Y-42077047D01*
X54500279Y-41995000D01*
X54079721Y-41995000D01*
X53667244Y-42077047D01*
X53278698Y-42237988D01*
X52929017Y-42471637D01*
X52631637Y-42769017D01*
X52397988Y-43118698D01*
X52237047Y-43507244D01*
X52155000Y-43919721D01*
X46265000Y-43919721D01*
X46182953Y-43507244D01*
X46022012Y-43118698D01*
X45788363Y-42769017D01*
X45490983Y-42471637D01*
X45141302Y-42237988D01*
X44752756Y-42077047D01*
X44340279Y-41995000D01*
X43919721Y-41995000D01*
X43507244Y-42077047D01*
X43118698Y-42237988D01*
X42769017Y-42471637D01*
X42471637Y-42769017D01*
X42237988Y-43118698D01*
X42077047Y-43507244D01*
X41995000Y-43919721D01*
X36105000Y-43919721D01*
X36022953Y-43507244D01*
X35862012Y-43118698D01*
X35628363Y-42769017D01*
X35330983Y-42471637D01*
X34981302Y-42237988D01*
X34592756Y-42077047D01*
X34180279Y-41995000D01*
X33759721Y-41995000D01*
X33347244Y-42077047D01*
X32958698Y-42237988D01*
X32609017Y-42471637D01*
X32311637Y-42769017D01*
X32077988Y-43118698D01*
X31917047Y-43507244D01*
X31835000Y-43919721D01*
X22450000Y-43919721D01*
X22450000Y-40363377D01*
X27756229Y-40363377D01*
X27882104Y-40653315D01*
X28214262Y-40819139D01*
X28572387Y-40916975D01*
X28942719Y-40943065D01*
X29311025Y-40896405D01*
X29663151Y-40778789D01*
X29897896Y-40653315D01*
X30023771Y-40363377D01*
X28890000Y-39229605D01*
X27756229Y-40363377D01*
X22450000Y-40363377D01*
X22450000Y-39102719D01*
X26996935Y-39102719D01*
X27043595Y-39471025D01*
X27161211Y-39823151D01*
X27286685Y-40057896D01*
X27576623Y-40183771D01*
X28710395Y-39050000D01*
X29069605Y-39050000D01*
X30203377Y-40183771D01*
X30493315Y-40057896D01*
X30659139Y-39725738D01*
X30756975Y-39367613D01*
X30765909Y-39240796D01*
X65933370Y-39240796D01*
X65933393Y-39249732D01*
X65934452Y-39361344D01*
X65934507Y-39361851D01*
X65934462Y-39362363D01*
X65934624Y-39371298D01*
X65937219Y-39474897D01*
X65937508Y-39477236D01*
X65937353Y-39479598D01*
X65937705Y-39488527D01*
X65941841Y-39577689D01*
X65942888Y-39584905D01*
X65942679Y-39592193D01*
X65943358Y-39601104D01*
X65949041Y-39669400D01*
X65953511Y-39693859D01*
X65955073Y-39718675D01*
X65956564Y-39727486D01*
X65963796Y-39768492D01*
X65971993Y-39797847D01*
X65977208Y-39827869D01*
X65988748Y-39857849D01*
X65997390Y-39888796D01*
X66011131Y-39915996D01*
X66014707Y-39925285D01*
X66019207Y-39937943D01*
X66020260Y-39939711D01*
X66022079Y-39944437D01*
X66026144Y-39952395D01*
X66030504Y-39960787D01*
X66045057Y-39983150D01*
X66053712Y-40000283D01*
X66064707Y-40014355D01*
X66083112Y-40045264D01*
X66091663Y-40054770D01*
X66098631Y-40065478D01*
X66129029Y-40096678D01*
X66130615Y-40098708D01*
X66133077Y-40100833D01*
X66133342Y-40101105D01*
X66166645Y-40138128D01*
X66176882Y-40145794D01*
X66185796Y-40154943D01*
X66226792Y-40183168D01*
X66266626Y-40212997D01*
X66278142Y-40218522D01*
X66288676Y-40225774D01*
X66334378Y-40245500D01*
X66340787Y-40248574D01*
X66342222Y-40249457D01*
X66344020Y-40250125D01*
X66379243Y-40267023D01*
X66387660Y-40270024D01*
X66411933Y-40278490D01*
X66436042Y-40284335D01*
X66459299Y-40292981D01*
X66467955Y-40295202D01*
X66523227Y-40308975D01*
X66527145Y-40309553D01*
X66530889Y-40310834D01*
X66539600Y-40312827D01*
X66620364Y-40330712D01*
X66620475Y-40330725D01*
X66620587Y-40330762D01*
X66629326Y-40332629D01*
X66730076Y-40353431D01*
X66730191Y-40353443D01*
X66736705Y-40354764D01*
X66851934Y-40377289D01*
X66852095Y-40377304D01*
X66856448Y-40378154D01*
X66919228Y-40389959D01*
X66919272Y-40389963D01*
X66919896Y-40390084D01*
X67004460Y-40405892D01*
X66993017Y-40422757D01*
X66956149Y-40476441D01*
X66956100Y-40476529D01*
X66955099Y-40477975D01*
X66886053Y-40579144D01*
X66885992Y-40579256D01*
X66882407Y-40584546D01*
X66821081Y-40676397D01*
X66821051Y-40676453D01*
X66816706Y-40683040D01*
X66766092Y-40760926D01*
X66765296Y-40762461D01*
X66764222Y-40763820D01*
X66759447Y-40771373D01*
X66722539Y-40830647D01*
X66718042Y-40839742D01*
X66712123Y-40847980D01*
X66707696Y-40855742D01*
X66687485Y-40891760D01*
X66668144Y-40935824D01*
X66666457Y-40939239D01*
X66653879Y-40962244D01*
X66651733Y-40969062D01*
X66646841Y-40978971D01*
X66643744Y-40987354D01*
X66640825Y-40995427D01*
X66639230Y-41001697D01*
X66637282Y-41006134D01*
X66631749Y-41031095D01*
X66629802Y-41038747D01*
X66616382Y-41081389D01*
X66614429Y-41099162D01*
X66610024Y-41116476D01*
X66607626Y-41161093D01*
X66602742Y-41205549D01*
X66604279Y-41223363D01*
X66603320Y-41241202D01*
X66609635Y-41285444D01*
X66613478Y-41329993D01*
X66618444Y-41347161D01*
X66620969Y-41364855D01*
X66635763Y-41407044D01*
X66648182Y-41449981D01*
X66656388Y-41465859D01*
X66662302Y-41482724D01*
X66684999Y-41521220D01*
X66692920Y-41536546D01*
X66694646Y-41540565D01*
X66696070Y-41542641D01*
X66705529Y-41560944D01*
X66710440Y-41568410D01*
X66722988Y-41587203D01*
X66745339Y-41614480D01*
X66765291Y-41643573D01*
X66771088Y-41650374D01*
X66805778Y-41690501D01*
X66809707Y-41694237D01*
X66812909Y-41698610D01*
X66818913Y-41705228D01*
X66871313Y-41762192D01*
X66871520Y-41762377D01*
X66871689Y-41762601D01*
X66877790Y-41769130D01*
X66943469Y-41838438D01*
X66943574Y-41838529D01*
X66947702Y-41842862D01*
X67022230Y-41920016D01*
X67022349Y-41920117D01*
X67025582Y-41923460D01*
X67104525Y-42003966D01*
X67104643Y-42004065D01*
X67107705Y-42007187D01*
X67186635Y-42086549D01*
X67186759Y-42086651D01*
X67190195Y-42090100D01*
X67264678Y-42163823D01*
X67264773Y-42163901D01*
X67269475Y-42168521D01*
X67335081Y-42232109D01*
X67335931Y-42232785D01*
X67336642Y-42233618D01*
X67343123Y-42239770D01*
X67395421Y-42288728D01*
X67402122Y-42293872D01*
X67407858Y-42300067D01*
X67414581Y-42305954D01*
X67449138Y-42335787D01*
X67487360Y-42362754D01*
X67524207Y-42391567D01*
X67531783Y-42396305D01*
X67543344Y-42403424D01*
X67548740Y-42406059D01*
X67551200Y-42407794D01*
X67558668Y-42411119D01*
X67570648Y-42419321D01*
X67613614Y-42437732D01*
X67655587Y-42458225D01*
X67670887Y-42462274D01*
X67685458Y-42468518D01*
X67731197Y-42478236D01*
X67776336Y-42490182D01*
X67792137Y-42491183D01*
X67807637Y-42494476D01*
X67854362Y-42495124D01*
X67900992Y-42498078D01*
X67916695Y-42495989D01*
X67932531Y-42496209D01*
X67978480Y-42487771D01*
X68024808Y-42481609D01*
X68039809Y-42476509D01*
X68055384Y-42473649D01*
X68098819Y-42456448D01*
X68143067Y-42441405D01*
X68156788Y-42433491D01*
X68171514Y-42427659D01*
X68179433Y-42423518D01*
X68198257Y-42413508D01*
X68213117Y-42403633D01*
X68229209Y-42395926D01*
X68236821Y-42391244D01*
X68281844Y-42363119D01*
X68282680Y-42362475D01*
X68283622Y-42362004D01*
X68291152Y-42357192D01*
X68357995Y-42313816D01*
X68358104Y-42313729D01*
X68362743Y-42310706D01*
X68447031Y-42254942D01*
X68447154Y-42254842D01*
X68450362Y-42252723D01*
X68547717Y-42187435D01*
X68547823Y-42187348D01*
X68550161Y-42185788D01*
X68623598Y-42136048D01*
X68623657Y-42135999D01*
X68624569Y-42135388D01*
X68693463Y-42088541D01*
X68709198Y-42172008D01*
X68709203Y-42172034D01*
X68793024Y-42616658D01*
X68793219Y-42617326D01*
X68793282Y-42618017D01*
X68810752Y-42677374D01*
X68828032Y-42736558D01*
X68828351Y-42737171D01*
X68828548Y-42737841D01*
X68857237Y-42792717D01*
X68885661Y-42847375D01*
X68886095Y-42847917D01*
X68886417Y-42848533D01*
X68925049Y-42896582D01*
X68963716Y-42944889D01*
X68964249Y-42945338D01*
X68964683Y-42945878D01*
X69012019Y-42985597D01*
X69059227Y-43025383D01*
X69059833Y-43025718D01*
X69060367Y-43026166D01*
X69114795Y-43056088D01*
X69168553Y-43085793D01*
X69169210Y-43086003D01*
X69169823Y-43086340D01*
X69228870Y-43105070D01*
X69287530Y-43123818D01*
X69288221Y-43123897D01*
X69288883Y-43124107D01*
X69350285Y-43130995D01*
X69411627Y-43138010D01*
X69412319Y-43137953D01*
X69413010Y-43138031D01*
X69421946Y-43138093D01*
X70347394Y-43138093D01*
X70348084Y-43138025D01*
X70348779Y-43138092D01*
X70410454Y-43131910D01*
X70471704Y-43125904D01*
X70472368Y-43125704D01*
X70473062Y-43125634D01*
X70532210Y-43107636D01*
X70591279Y-43089802D01*
X70591894Y-43089475D01*
X70592558Y-43089273D01*
X70647018Y-43060166D01*
X70701565Y-43031163D01*
X70702103Y-43030724D01*
X70702717Y-43030396D01*
X70750678Y-42991107D01*
X70798360Y-42952218D01*
X70798800Y-42951686D01*
X70799342Y-42951242D01*
X70838807Y-42903326D01*
X70877978Y-42855976D01*
X70878308Y-42855366D01*
X70878751Y-42854828D01*
X70907978Y-42800492D01*
X70937386Y-42746103D01*
X70937593Y-42745435D01*
X70937921Y-42744825D01*
X70956021Y-42685902D01*
X70974322Y-42626783D01*
X70974395Y-42626091D01*
X70974599Y-42625426D01*
X70976316Y-42616657D01*
X71060136Y-42172032D01*
X71075876Y-42088541D01*
X71144769Y-42135388D01*
X71144852Y-42135433D01*
X71146198Y-42136357D01*
X71250108Y-42206606D01*
X71250240Y-42206677D01*
X71253141Y-42208644D01*
X71347071Y-42271368D01*
X71347209Y-42271442D01*
X71350786Y-42273830D01*
X71430351Y-42326164D01*
X71430452Y-42326217D01*
X71436069Y-42329882D01*
X71496887Y-42368963D01*
X71499726Y-42370417D01*
X71502250Y-42372372D01*
X71509849Y-42377075D01*
X71547536Y-42400039D01*
X71571730Y-42411712D01*
X71594480Y-42426011D01*
X71602501Y-42429949D01*
X71612766Y-42434900D01*
X71631196Y-42441663D01*
X71648553Y-42450831D01*
X71659757Y-42454180D01*
X71660034Y-42454314D01*
X71661326Y-42454650D01*
X71689709Y-42463134D01*
X71730026Y-42477929D01*
X71749411Y-42480982D01*
X71768226Y-42486607D01*
X71811001Y-42490683D01*
X71853411Y-42497363D01*
X71873020Y-42496593D01*
X71892569Y-42498456D01*
X71935305Y-42494148D01*
X71978221Y-42492463D01*
X71997316Y-42487897D01*
X72016845Y-42485928D01*
X72057918Y-42473404D01*
X72099702Y-42463412D01*
X72117553Y-42455221D01*
X72136321Y-42449498D01*
X72174181Y-42429235D01*
X72213227Y-42411318D01*
X72229136Y-42399823D01*
X72246446Y-42390559D01*
X72253841Y-42385541D01*
X72272330Y-42372807D01*
X72299428Y-42349942D01*
X72328371Y-42329448D01*
X72335084Y-42323549D01*
X72374594Y-42288343D01*
X72378263Y-42284366D01*
X72382583Y-42281103D01*
X72389111Y-42275001D01*
X72445213Y-42221820D01*
X72445388Y-42221618D01*
X72445605Y-42221449D01*
X72452042Y-42215251D01*
X72520306Y-42148595D01*
X72520395Y-42148489D01*
X72524651Y-42144312D01*
X72600649Y-42068677D01*
X72600748Y-42068557D01*
X72604033Y-42065284D01*
X72683339Y-41985166D01*
X72683441Y-41985041D01*
X72686493Y-41981957D01*
X72764677Y-41901855D01*
X72764778Y-41901729D01*
X72768163Y-41898255D01*
X72840795Y-41822664D01*
X72840868Y-41822571D01*
X72845399Y-41817823D01*
X72908051Y-41751242D01*
X72908692Y-41750412D01*
X72909483Y-41749716D01*
X72915539Y-41743145D01*
X72963783Y-41690072D01*
X72968768Y-41683377D01*
X72974816Y-41677614D01*
X72980605Y-41670807D01*
X73010012Y-41635738D01*
X73036037Y-41597702D01*
X73063978Y-41561059D01*
X73068624Y-41553426D01*
X73075655Y-41541690D01*
X73078554Y-41535565D01*
X73080546Y-41532653D01*
X73086388Y-41519011D01*
X73100432Y-41489334D01*
X73125963Y-41437308D01*
X73127139Y-41432900D01*
X73129085Y-41428788D01*
X73143208Y-41372668D01*
X73158160Y-41316623D01*
X73158457Y-41312072D01*
X73159568Y-41307659D01*
X73162525Y-41249815D01*
X73166304Y-41191982D01*
X73165712Y-41187465D01*
X73165945Y-41182915D01*
X73157602Y-41125553D01*
X73150081Y-41068134D01*
X73148624Y-41063820D01*
X73147968Y-41059309D01*
X73128656Y-41004696D01*
X73122986Y-40987907D01*
X73122035Y-40983884D01*
X73120458Y-40980423D01*
X73110114Y-40949795D01*
X73106385Y-40941674D01*
X73096267Y-40920037D01*
X73081919Y-40895835D01*
X73070248Y-40870220D01*
X73065713Y-40862521D01*
X73037349Y-40815119D01*
X73034722Y-40811568D01*
X73032780Y-40807601D01*
X73028033Y-40800029D01*
X72984403Y-40731498D01*
X72984245Y-40731297D01*
X72984125Y-40731060D01*
X72979267Y-40723560D01*
X72923356Y-40638538D01*
X72923284Y-40638448D01*
X72919540Y-40632803D01*
X72854328Y-40535925D01*
X72854227Y-40535803D01*
X72851694Y-40532043D01*
X72813907Y-40476785D01*
X72765435Y-40405777D01*
X72784326Y-40402216D01*
X72849063Y-40390155D01*
X72849179Y-40390122D01*
X72851544Y-40389688D01*
X72972052Y-40366744D01*
X72972177Y-40366707D01*
X72978217Y-40365539D01*
X72988995Y-40363377D01*
X78556229Y-40363377D01*
X78682104Y-40653315D01*
X79014262Y-40819139D01*
X79372387Y-40916975D01*
X79742719Y-40943065D01*
X80111025Y-40896405D01*
X80463151Y-40778789D01*
X80697896Y-40653315D01*
X80823771Y-40363377D01*
X79690000Y-39229605D01*
X78556229Y-40363377D01*
X72988995Y-40363377D01*
X73087064Y-40343706D01*
X73087139Y-40343683D01*
X73094522Y-40342164D01*
X73186200Y-40322637D01*
X73187542Y-40322211D01*
X73188941Y-40322047D01*
X73197659Y-40320086D01*
X73266664Y-40304060D01*
X73275354Y-40301123D01*
X73284424Y-40299668D01*
X73293051Y-40297337D01*
X73333873Y-40286007D01*
X73372126Y-40271237D01*
X73411284Y-40259074D01*
X73419494Y-40255545D01*
X73427701Y-40251950D01*
X73439749Y-40245202D01*
X73452686Y-40240359D01*
X73494160Y-40214723D01*
X73536675Y-40190908D01*
X73547181Y-40181949D01*
X73558933Y-40174685D01*
X73594640Y-40141479D01*
X73631718Y-40109862D01*
X73640283Y-40099034D01*
X73650401Y-40089625D01*
X73678971Y-40050125D01*
X73709209Y-40011899D01*
X73715512Y-39999606D01*
X73723604Y-39988418D01*
X73743952Y-39944136D01*
X73766196Y-39900750D01*
X73769990Y-39887468D01*
X73775756Y-39874921D01*
X73778618Y-39866455D01*
X73786655Y-39842123D01*
X73799816Y-39783620D01*
X73813429Y-39725267D01*
X73814036Y-39720415D01*
X73814070Y-39720263D01*
X73814074Y-39720110D01*
X73814538Y-39716400D01*
X73821023Y-39661447D01*
X73821284Y-39648222D01*
X73823573Y-39635199D01*
X73824192Y-39626284D01*
X73829129Y-39547135D01*
X73828977Y-39542854D01*
X73829603Y-39538619D01*
X73829978Y-39529691D01*
X73833372Y-39432773D01*
X73833293Y-39431516D01*
X73833455Y-39430266D01*
X73833670Y-39421333D01*
X73835524Y-39313071D01*
X73835516Y-39312966D01*
X73835528Y-39312858D01*
X73835615Y-39303923D01*
X73835934Y-39190937D01*
X73835935Y-39190932D01*
X73835935Y-39190745D01*
X73835934Y-39190737D01*
X73835900Y-39181995D01*
X73835041Y-39102719D01*
X77796935Y-39102719D01*
X77843595Y-39471025D01*
X77961211Y-39823151D01*
X78086685Y-40057896D01*
X78376623Y-40183771D01*
X79510395Y-39050000D01*
X79869605Y-39050000D01*
X81003377Y-40183771D01*
X81293315Y-40057896D01*
X81459139Y-39725738D01*
X81556975Y-39367613D01*
X81583065Y-38997281D01*
X81536405Y-38628975D01*
X81418789Y-38276849D01*
X81293315Y-38042104D01*
X81003377Y-37916229D01*
X79869605Y-39050000D01*
X79510395Y-39050000D01*
X78376623Y-37916229D01*
X78086685Y-38042104D01*
X77920861Y-38374262D01*
X77823025Y-38732387D01*
X77796935Y-39102719D01*
X73835041Y-39102719D01*
X73834689Y-39070325D01*
X73834635Y-39069826D01*
X73834678Y-39069319D01*
X73834504Y-39060384D01*
X73831767Y-38956651D01*
X73831478Y-38954334D01*
X73831628Y-38951996D01*
X73831265Y-38943067D01*
X73827006Y-38853695D01*
X73825962Y-38846566D01*
X73826162Y-38839360D01*
X73825473Y-38830451D01*
X73819697Y-38761865D01*
X73815273Y-38737791D01*
X73813739Y-38713351D01*
X73812250Y-38704540D01*
X73804962Y-38663169D01*
X73797564Y-38636656D01*
X73793111Y-38609502D01*
X73780820Y-38576649D01*
X73771391Y-38542859D01*
X73762810Y-38525864D01*
X73760099Y-38517131D01*
X73755098Y-38507899D01*
X73749343Y-38492516D01*
X73745354Y-38484520D01*
X73740982Y-38475907D01*
X73724631Y-38450254D01*
X73715091Y-38431360D01*
X73710350Y-38425290D01*
X73700607Y-38407303D01*
X73686081Y-38389771D01*
X73673847Y-38370577D01*
X73646331Y-38341796D01*
X73620915Y-38311121D01*
X73603258Y-38296743D01*
X73587531Y-38280293D01*
X73554945Y-38257401D01*
X73524059Y-38232251D01*
X73503954Y-38221580D01*
X73485324Y-38208493D01*
X73448908Y-38192366D01*
X73413730Y-38173695D01*
X73405442Y-38170354D01*
X73379311Y-38160031D01*
X73347979Y-38151073D01*
X73317618Y-38139220D01*
X73308999Y-38136858D01*
X73253628Y-38122099D01*
X73245914Y-38120832D01*
X73238527Y-38118270D01*
X73229824Y-38116240D01*
X73152538Y-38098780D01*
X73149260Y-38098370D01*
X73146116Y-38097364D01*
X73137367Y-38095546D01*
X73045490Y-38077118D01*
X73045423Y-38077111D01*
X73045353Y-38077090D01*
X73036579Y-38075396D01*
X73004507Y-38069435D01*
X73004417Y-38069427D01*
X73002871Y-38069133D01*
X72849422Y-38041025D01*
X72792482Y-38030392D01*
X72783353Y-38007085D01*
X72781587Y-38002405D01*
X72816562Y-37951411D01*
X72816563Y-37951410D01*
X72834671Y-37925065D01*
X72834747Y-37924928D01*
X72837462Y-37920971D01*
X72903318Y-37823550D01*
X72903735Y-37822780D01*
X72904291Y-37822106D01*
X72909223Y-37814654D01*
X72960095Y-37736623D01*
X78556229Y-37736623D01*
X79690000Y-38870395D01*
X80823771Y-37736623D01*
X80697896Y-37446685D01*
X80365738Y-37280861D01*
X80007613Y-37183025D01*
X79637281Y-37156935D01*
X79268975Y-37203595D01*
X78916849Y-37321211D01*
X78682104Y-37446685D01*
X78556229Y-37736623D01*
X72960095Y-37736623D01*
X72967174Y-37725766D01*
X72968144Y-37723903D01*
X72969453Y-37722247D01*
X72974231Y-37714696D01*
X73021119Y-37639446D01*
X73023837Y-37633954D01*
X73027481Y-37629017D01*
X73032007Y-37621312D01*
X73064676Y-37564804D01*
X73074262Y-37543704D01*
X73086370Y-37523939D01*
X73090216Y-37515873D01*
X73105509Y-37483212D01*
X73110418Y-37469343D01*
X73117335Y-37456368D01*
X73131220Y-37410565D01*
X73147183Y-37365463D01*
X73149302Y-37350919D01*
X73153572Y-37336835D01*
X73155256Y-37328058D01*
X73155997Y-37324046D01*
X73159508Y-37282793D01*
X73165735Y-37241854D01*
X73164792Y-37220691D01*
X73166588Y-37199590D01*
X73162020Y-37158449D01*
X73160177Y-37117072D01*
X73155141Y-37096492D01*
X73152804Y-37075447D01*
X73140327Y-37035960D01*
X73130486Y-36995746D01*
X73121555Y-36976550D01*
X73115171Y-36956345D01*
X73095262Y-36920035D01*
X73077798Y-36882497D01*
X73073202Y-36874833D01*
X73060352Y-36853742D01*
X73032817Y-36817136D01*
X73007224Y-36779132D01*
X73001485Y-36772282D01*
X72965981Y-36730502D01*
X72959570Y-36724302D01*
X72954283Y-36717117D01*
X72948263Y-36710513D01*
X72894668Y-36652532D01*
X72893094Y-36651132D01*
X72891809Y-36649459D01*
X72885655Y-36642980D01*
X72818533Y-36573289D01*
X72818513Y-36573272D01*
X72812556Y-36567167D01*
X72736472Y-36490256D01*
X72736379Y-36490179D01*
X72731641Y-36485425D01*
X72651158Y-36405787D01*
X72651057Y-36405705D01*
X72646522Y-36401246D01*
X72566205Y-36323368D01*
X72566131Y-36323309D01*
X72560893Y-36318276D01*
X72485305Y-36246651D01*
X72484893Y-36246331D01*
X72484545Y-36245931D01*
X72478005Y-36239841D01*
X72411711Y-36178957D01*
X72408482Y-36176527D01*
X72405744Y-36173545D01*
X72399045Y-36167631D01*
X72346609Y-36121980D01*
X72333271Y-36112486D01*
X72321434Y-36101167D01*
X72314365Y-36095701D01*
X72280351Y-36069772D01*
X72275112Y-36066534D01*
X72270523Y-36062428D01*
X72235210Y-36041527D01*
X72225142Y-36033683D01*
X72207986Y-36025046D01*
X72174101Y-36004103D01*
X72168336Y-36001945D01*
X72163035Y-35998808D01*
X72154911Y-35995085D01*
X72145501Y-35990852D01*
X72129068Y-35985315D01*
X72113576Y-35977516D01*
X72072790Y-35966188D01*
X72057118Y-35960323D01*
X72052775Y-35959610D01*
X72027133Y-35950971D01*
X72009938Y-35948732D01*
X71993226Y-35944090D01*
X71948121Y-35940681D01*
X71903273Y-35934840D01*
X71885969Y-35935983D01*
X71868675Y-35934676D01*
X71823773Y-35940092D01*
X71778638Y-35943074D01*
X71761882Y-35947558D01*
X71744667Y-35949634D01*
X71701668Y-35963669D01*
X71657977Y-35975360D01*
X71642418Y-35983009D01*
X71625927Y-35988392D01*
X71617769Y-35992038D01*
X71595867Y-36002009D01*
X71568427Y-36017901D01*
X71539585Y-36031076D01*
X71531890Y-36035618D01*
X71487047Y-36062510D01*
X71481399Y-36066697D01*
X71475106Y-36069849D01*
X71467578Y-36074665D01*
X71407099Y-36113949D01*
X71405386Y-36115317D01*
X71403445Y-36116340D01*
X71396019Y-36121311D01*
X71349488Y-36152930D01*
X71349374Y-36153025D01*
X71346385Y-36155051D01*
X71262696Y-36212640D01*
X71164392Y-36279897D01*
X71142832Y-36294580D01*
X71104705Y-36279306D01*
X71058207Y-36265770D01*
X71026998Y-36255176D01*
X71018240Y-36251947D01*
X71016821Y-36251721D01*
X71012310Y-36250190D01*
X71003594Y-36248219D01*
X70993386Y-36245984D01*
X70988083Y-36245356D01*
X70984777Y-36244394D01*
X70965947Y-36242736D01*
X70944014Y-36240141D01*
X70894885Y-36232326D01*
X70882074Y-36232810D01*
X70869345Y-36231303D01*
X70819778Y-36235161D01*
X70770067Y-36237037D01*
X70757589Y-36240001D01*
X70744816Y-36240995D01*
X70696940Y-36254407D01*
X70648542Y-36265903D01*
X70636884Y-36271231D01*
X70624540Y-36274689D01*
X70580177Y-36297148D01*
X70534938Y-36317823D01*
X70524533Y-36325317D01*
X70513100Y-36331105D01*
X70473941Y-36361755D01*
X70433583Y-36390822D01*
X70424835Y-36400190D01*
X70414741Y-36408091D01*
X70382289Y-36445754D01*
X70348336Y-36482115D01*
X70342954Y-36489248D01*
X70330680Y-36505752D01*
X70306505Y-36545925D01*
X70280400Y-36584863D01*
X70276227Y-36592765D01*
X70252011Y-36639405D01*
X70249343Y-36646061D01*
X70245568Y-36652160D01*
X70241685Y-36660208D01*
X70207335Y-36732681D01*
X70207065Y-36733434D01*
X70206654Y-36734122D01*
X70202903Y-36742233D01*
X70160228Y-36836236D01*
X70160184Y-36836365D01*
X70157676Y-36841931D01*
X70108482Y-36953163D01*
X70108433Y-36953313D01*
X70106734Y-36957153D01*
X70052830Y-37081311D01*
X70052785Y-37081451D01*
X70051475Y-37084455D01*
X69994669Y-37217238D01*
X69994626Y-37217373D01*
X69993505Y-37219978D01*
X69935603Y-37357083D01*
X69935564Y-37357208D01*
X69934495Y-37359722D01*
X69884701Y-37479115D01*
X69881906Y-37472346D01*
X69881840Y-37472222D01*
X69880776Y-37469628D01*
X69823272Y-37332177D01*
X69823207Y-37332056D01*
X69822170Y-37329560D01*
X69764313Y-37192970D01*
X69764246Y-37192846D01*
X69763130Y-37190196D01*
X69706727Y-37058766D01*
X69706656Y-37058638D01*
X69705329Y-37055532D01*
X69652188Y-36933564D01*
X69652115Y-36933433D01*
X69650343Y-36929368D01*
X69602275Y-36821165D01*
X69602216Y-36821061D01*
X69599497Y-36815000D01*
X69558308Y-36724860D01*
X69557574Y-36723596D01*
X69557089Y-36722206D01*
X69553281Y-36714122D01*
X69520780Y-36646347D01*
X69515726Y-36638009D01*
X69512111Y-36628951D01*
X69507949Y-36621043D01*
X69485945Y-36579936D01*
X69453656Y-36531629D01*
X69422024Y-36482879D01*
X69416540Y-36476103D01*
X69416533Y-36476092D01*
X69416525Y-36476084D01*
X69416402Y-36475932D01*
X69407541Y-36465136D01*
X69363910Y-36421472D01*
X69320362Y-36377695D01*
X69319764Y-36377292D01*
X69319253Y-36376781D01*
X69268034Y-36342464D01*
X69216750Y-36307936D01*
X69216082Y-36307656D01*
X69215485Y-36307256D01*
X69158451Y-36283489D01*
X69101562Y-36259633D01*
X69100860Y-36259489D01*
X69100189Y-36259210D01*
X69039584Y-36246966D01*
X68979186Y-36234622D01*
X68978462Y-36234618D01*
X68977756Y-36234475D01*
X68916078Y-36234236D01*
X68854281Y-36233859D01*
X68853572Y-36233995D01*
X68852851Y-36233992D01*
X68792408Y-36245717D01*
X68731608Y-36257369D01*
X68730305Y-36257764D01*
X68730231Y-36257778D01*
X68730154Y-36257809D01*
X68723056Y-36259959D01*
X68695980Y-36268366D01*
X68665382Y-36281259D01*
X68633731Y-36291294D01*
X68626399Y-36294496D01*
X68564672Y-36252380D01*
X68470688Y-36187949D01*
X68423336Y-36155315D01*
X68423277Y-36155282D01*
X68416940Y-36150963D01*
X68349694Y-36105807D01*
X68345081Y-36103325D01*
X68340977Y-36100055D01*
X68333444Y-36095248D01*
X68276503Y-36059464D01*
X68265566Y-36054000D01*
X68255612Y-36046883D01*
X68247839Y-36042474D01*
X68208629Y-36020593D01*
X68165628Y-36001839D01*
X68140889Y-35989580D01*
X68132570Y-35985072D01*
X68130486Y-35984425D01*
X68123601Y-35981013D01*
X68115223Y-35977905D01*
X68102488Y-35973280D01*
X68096813Y-35971827D01*
X68094137Y-35970660D01*
X68081041Y-35967789D01*
X68057588Y-35961785D01*
X68013284Y-35948026D01*
X67997168Y-35946317D01*
X67981484Y-35942302D01*
X67935208Y-35939748D01*
X67889073Y-35934856D01*
X67872931Y-35936310D01*
X67856768Y-35935418D01*
X67810873Y-35941901D01*
X67764671Y-35946063D01*
X67749126Y-35950623D01*
X67733089Y-35952888D01*
X67689307Y-35968169D01*
X67644815Y-35981220D01*
X67630453Y-35988711D01*
X67615160Y-35994049D01*
X67575197Y-36017533D01*
X67567245Y-36021681D01*
X67561730Y-36023992D01*
X67557988Y-36026510D01*
X67534069Y-36038986D01*
X67526622Y-36043925D01*
X67508086Y-36056403D01*
X67484008Y-36076285D01*
X67458098Y-36093718D01*
X67451246Y-36099455D01*
X67410222Y-36134287D01*
X67406910Y-36137709D01*
X67403034Y-36140482D01*
X67396350Y-36146414D01*
X67336817Y-36199988D01*
X67336588Y-36200238D01*
X67336307Y-36200446D01*
X67329713Y-36206477D01*
X67255647Y-36275172D01*
X67255575Y-36275253D01*
X67250607Y-36279897D01*
X67165983Y-36360099D01*
X67165875Y-36360224D01*
X67162496Y-36363430D01*
X67108976Y-36414925D01*
X67108901Y-36415013D01*
X67104167Y-36419600D01*
X67010533Y-36511600D01*
X67009873Y-36512390D01*
X67009073Y-36513039D01*
X67002764Y-36519366D01*
X66921842Y-36601653D01*
X66920147Y-36603752D01*
X66918089Y-36605501D01*
X66911922Y-36611968D01*
X66846986Y-36681022D01*
X66842521Y-36686812D01*
X66837123Y-36691752D01*
X66831198Y-36698442D01*
X66785517Y-36750743D01*
X66770982Y-36771094D01*
X66754159Y-36789606D01*
X66748874Y-36796812D01*
X66725721Y-36828839D01*
X66713447Y-36849875D01*
X66712623Y-36850865D01*
X66711011Y-36853825D01*
X66695027Y-36875455D01*
X66680239Y-36906788D01*
X66662772Y-36936724D01*
X66657378Y-36952334D01*
X66652896Y-36960566D01*
X66649042Y-36972889D01*
X66641716Y-36988412D01*
X66638768Y-36996848D01*
X66636546Y-37003348D01*
X66629669Y-37032519D01*
X66621977Y-37054780D01*
X66620825Y-37063118D01*
X66615615Y-37079779D01*
X66613150Y-37102594D01*
X66607887Y-37124921D01*
X66606459Y-37164533D01*
X66605166Y-37176497D01*
X66604888Y-37178511D01*
X66604909Y-37178875D01*
X66602199Y-37203962D01*
X66604213Y-37226820D01*
X66603386Y-37249746D01*
X66609681Y-37288895D01*
X66613160Y-37328387D01*
X66619573Y-37350411D01*
X66623216Y-37373069D01*
X66636995Y-37410247D01*
X66648078Y-37448312D01*
X66651460Y-37456584D01*
X66661768Y-37481306D01*
X66678265Y-37512028D01*
X66692047Y-37544068D01*
X66696417Y-37551863D01*
X66724902Y-37601852D01*
X66729150Y-37607858D01*
X66732307Y-37614509D01*
X66736962Y-37622138D01*
X66780464Y-37692330D01*
X66781770Y-37694040D01*
X66782735Y-37695968D01*
X66787546Y-37703498D01*
X66842906Y-37788835D01*
X66843259Y-37789278D01*
X66843526Y-37789791D01*
X66848456Y-37797244D01*
X66912512Y-37892663D01*
X66912605Y-37892776D01*
X66915828Y-37897553D01*
X66934045Y-37924155D01*
X66934076Y-37924192D01*
X66934465Y-37924767D01*
X66987758Y-38002397D01*
X66976828Y-38030410D01*
X66945053Y-38036378D01*
X66798562Y-38063280D01*
X66766953Y-38069045D01*
X66766838Y-38069078D01*
X66760380Y-38070279D01*
X66665312Y-38088646D01*
X66662635Y-38089441D01*
X66659853Y-38089725D01*
X66651107Y-38091558D01*
X66568227Y-38109527D01*
X66562900Y-38111241D01*
X66557345Y-38111985D01*
X66548661Y-38114092D01*
X66485296Y-38129928D01*
X66467847Y-38136152D01*
X66449700Y-38139924D01*
X66441189Y-38142648D01*
X66404661Y-38154617D01*
X66349944Y-38178684D01*
X66347118Y-38179899D01*
X66315172Y-38191990D01*
X66306656Y-38197297D01*
X66294967Y-38202323D01*
X66290469Y-38204844D01*
X66290326Y-38204907D01*
X66290201Y-38204994D01*
X66287172Y-38206692D01*
X66282273Y-38209482D01*
X66246433Y-38234827D01*
X66209165Y-38258052D01*
X66195533Y-38270822D01*
X66180291Y-38281601D01*
X66150060Y-38313421D01*
X66118009Y-38343446D01*
X66107117Y-38358621D01*
X66094259Y-38372155D01*
X66070776Y-38409253D01*
X66045176Y-38444920D01*
X66037443Y-38461912D01*
X66027453Y-38477694D01*
X66011624Y-38518645D01*
X65993438Y-38558606D01*
X65990608Y-38567082D01*
X65982537Y-38591820D01*
X65969897Y-38648982D01*
X65956547Y-38706045D01*
X65955583Y-38713713D01*
X65955568Y-38713780D01*
X65955567Y-38713841D01*
X65955432Y-38714912D01*
X65948872Y-38770194D01*
X65948606Y-38783245D01*
X65946330Y-38796105D01*
X65945701Y-38805020D01*
X65940655Y-38884420D01*
X65940800Y-38888661D01*
X65940175Y-38892856D01*
X65939789Y-38901784D01*
X65936263Y-38998877D01*
X65936339Y-39000112D01*
X65936177Y-39001349D01*
X65935950Y-39010282D01*
X65933948Y-39118640D01*
X65933956Y-39118739D01*
X65933944Y-39118841D01*
X65933845Y-39127776D01*
X65933371Y-39240788D01*
X65933370Y-39240796D01*
X30765909Y-39240796D01*
X30783065Y-38997281D01*
X30736405Y-38628975D01*
X30618789Y-38276849D01*
X30493315Y-38042104D01*
X30203377Y-37916229D01*
X29069605Y-39050000D01*
X28710395Y-39050000D01*
X27576623Y-37916229D01*
X27286685Y-38042104D01*
X27120861Y-38374262D01*
X27023025Y-38732387D01*
X26996935Y-39102719D01*
X22450000Y-39102719D01*
X22450000Y-37736623D01*
X27756229Y-37736623D01*
X28890000Y-38870395D01*
X30023771Y-37736623D01*
X29897896Y-37446685D01*
X29565738Y-37280861D01*
X29207613Y-37183025D01*
X28837281Y-37156935D01*
X28468975Y-37203595D01*
X28116849Y-37321211D01*
X27882104Y-37446685D01*
X27756229Y-37736623D01*
X22450000Y-37736623D01*
X22450000Y-33759721D01*
X31835000Y-33759721D01*
X31835000Y-34180279D01*
X31917047Y-34592756D01*
X32077988Y-34981302D01*
X32311637Y-35330983D01*
X32609017Y-35628363D01*
X32958698Y-35862012D01*
X33347244Y-36022953D01*
X33759721Y-36105000D01*
X34180279Y-36105000D01*
X34592756Y-36022953D01*
X34981302Y-35862012D01*
X35330983Y-35628363D01*
X35628363Y-35330983D01*
X35862012Y-34981302D01*
X36022953Y-34592756D01*
X36105000Y-34180279D01*
X36105000Y-33759721D01*
X41995000Y-33759721D01*
X41995000Y-34180279D01*
X42077047Y-34592756D01*
X42237988Y-34981302D01*
X42471637Y-35330983D01*
X42769017Y-35628363D01*
X43118698Y-35862012D01*
X43507244Y-36022953D01*
X43919721Y-36105000D01*
X44340279Y-36105000D01*
X44752756Y-36022953D01*
X45141302Y-35862012D01*
X45490983Y-35628363D01*
X45788363Y-35330983D01*
X46022012Y-34981302D01*
X46182953Y-34592756D01*
X46265000Y-34180279D01*
X46265000Y-33759721D01*
X52155000Y-33759721D01*
X52155000Y-34180279D01*
X52237047Y-34592756D01*
X52397988Y-34981302D01*
X52631637Y-35330983D01*
X52929017Y-35628363D01*
X53278698Y-35862012D01*
X53667244Y-36022953D01*
X54079721Y-36105000D01*
X54500279Y-36105000D01*
X54912756Y-36022953D01*
X55301302Y-35862012D01*
X55650983Y-35628363D01*
X55948363Y-35330983D01*
X56182012Y-34981302D01*
X56342953Y-34592756D01*
X56425000Y-34180279D01*
X56425000Y-33759721D01*
X62315000Y-33759721D01*
X62315000Y-34180279D01*
X62397047Y-34592756D01*
X62557988Y-34981302D01*
X62791637Y-35330983D01*
X63089017Y-35628363D01*
X63438698Y-35862012D01*
X63827244Y-36022953D01*
X64239721Y-36105000D01*
X64660279Y-36105000D01*
X65072756Y-36022953D01*
X65461302Y-35862012D01*
X65810983Y-35628363D01*
X66108363Y-35330983D01*
X66342012Y-34981302D01*
X66502953Y-34592756D01*
X66585000Y-34180279D01*
X66585000Y-33759721D01*
X72475000Y-33759721D01*
X72475000Y-34180279D01*
X72557047Y-34592756D01*
X72717988Y-34981302D01*
X72951637Y-35330983D01*
X73249017Y-35628363D01*
X73598698Y-35862012D01*
X73987244Y-36022953D01*
X74399721Y-36105000D01*
X74820279Y-36105000D01*
X75232756Y-36022953D01*
X75621302Y-35862012D01*
X75970983Y-35628363D01*
X76268363Y-35330983D01*
X76502012Y-34981302D01*
X76662953Y-34592756D01*
X76745000Y-34180279D01*
X76745000Y-33759721D01*
X76662953Y-33347244D01*
X76502012Y-32958698D01*
X76268363Y-32609017D01*
X75970983Y-32311637D01*
X75621302Y-32077988D01*
X75232756Y-31917047D01*
X74820279Y-31835000D01*
X74399721Y-31835000D01*
X73987244Y-31917047D01*
X73598698Y-32077988D01*
X73249017Y-32311637D01*
X72951637Y-32609017D01*
X72717988Y-32958698D01*
X72557047Y-33347244D01*
X72475000Y-33759721D01*
X66585000Y-33759721D01*
X66502953Y-33347244D01*
X66342012Y-32958698D01*
X66108363Y-32609017D01*
X65810983Y-32311637D01*
X65461302Y-32077988D01*
X65072756Y-31917047D01*
X64660279Y-31835000D01*
X64239721Y-31835000D01*
X63827244Y-31917047D01*
X63438698Y-32077988D01*
X63089017Y-32311637D01*
X62791637Y-32609017D01*
X62557988Y-32958698D01*
X62397047Y-33347244D01*
X62315000Y-33759721D01*
X56425000Y-33759721D01*
X56342953Y-33347244D01*
X56182012Y-32958698D01*
X55948363Y-32609017D01*
X55650983Y-32311637D01*
X55301302Y-32077988D01*
X54912756Y-31917047D01*
X54500279Y-31835000D01*
X54079721Y-31835000D01*
X53667244Y-31917047D01*
X53278698Y-32077988D01*
X52929017Y-32311637D01*
X52631637Y-32609017D01*
X52397988Y-32958698D01*
X52237047Y-33347244D01*
X52155000Y-33759721D01*
X46265000Y-33759721D01*
X46182953Y-33347244D01*
X46022012Y-32958698D01*
X45788363Y-32609017D01*
X45490983Y-32311637D01*
X45141302Y-32077988D01*
X44752756Y-31917047D01*
X44340279Y-31835000D01*
X43919721Y-31835000D01*
X43507244Y-31917047D01*
X43118698Y-32077988D01*
X42769017Y-32311637D01*
X42471637Y-32609017D01*
X42237988Y-32958698D01*
X42077047Y-33347244D01*
X41995000Y-33759721D01*
X36105000Y-33759721D01*
X36022953Y-33347244D01*
X35862012Y-32958698D01*
X35628363Y-32609017D01*
X35330983Y-32311637D01*
X34981302Y-32077988D01*
X34592756Y-31917047D01*
X34180279Y-31835000D01*
X33759721Y-31835000D01*
X33347244Y-31917047D01*
X32958698Y-32077988D01*
X32609017Y-32311637D01*
X32311637Y-32609017D01*
X32077988Y-32958698D01*
X31917047Y-33347244D01*
X31835000Y-33759721D01*
X22450000Y-33759721D01*
X22450000Y-24499721D01*
X23155000Y-24499721D01*
X23155000Y-24920279D01*
X23237047Y-25332756D01*
X23397988Y-25721302D01*
X23631637Y-26070983D01*
X23929017Y-26368363D01*
X24278698Y-26602012D01*
X24667244Y-26762953D01*
X25079721Y-26845000D01*
X25500279Y-26845000D01*
X25912756Y-26762953D01*
X26301302Y-26602012D01*
X26650983Y-26368363D01*
X26948363Y-26070983D01*
X27182012Y-25721302D01*
X27282708Y-25478200D01*
X60496800Y-25478200D01*
X60496800Y-29298200D01*
X80066800Y-29298200D01*
X80066800Y-25478200D01*
X60496800Y-25478200D01*
X27282708Y-25478200D01*
X27342953Y-25332756D01*
X27425000Y-24920279D01*
X27425000Y-24499721D01*
X81155000Y-24499721D01*
X81155000Y-24920279D01*
X81237047Y-25332756D01*
X81397988Y-25721302D01*
X81631637Y-26070983D01*
X81929017Y-26368363D01*
X82278698Y-26602012D01*
X82667244Y-26762953D01*
X83079721Y-26845000D01*
X83500279Y-26845000D01*
X83912756Y-26762953D01*
X84301302Y-26602012D01*
X84650983Y-26368363D01*
X84948363Y-26070983D01*
X85182012Y-25721302D01*
X85342953Y-25332756D01*
X85425000Y-24920279D01*
X85425000Y-24499721D01*
X85342953Y-24087244D01*
X85182012Y-23698698D01*
X84948363Y-23349017D01*
X84650983Y-23051637D01*
X84301302Y-22817988D01*
X83912756Y-22657047D01*
X83500279Y-22575000D01*
X83079721Y-22575000D01*
X82667244Y-22657047D01*
X82278698Y-22817988D01*
X81929017Y-23051637D01*
X81631637Y-23349017D01*
X81397988Y-23698698D01*
X81237047Y-24087244D01*
X81155000Y-24499721D01*
X27425000Y-24499721D01*
X27342953Y-24087244D01*
X27182012Y-23698698D01*
X26948363Y-23349017D01*
X26650983Y-23051637D01*
X26301302Y-22817988D01*
X25912756Y-22657047D01*
X25500279Y-22575000D01*
X25079721Y-22575000D01*
X24667244Y-22657047D01*
X24278698Y-22817988D01*
X23929017Y-23051637D01*
X23631637Y-23349017D01*
X23397988Y-23698698D01*
X23237047Y-24087244D01*
X23155000Y-24499721D01*
X22450000Y-24499721D01*
X22450000Y-21870000D01*
X86130000Y-21870000D01*
X86130001Y-76550000D01*
G37*
X86130001Y-76550000D02*
X22450000Y-76550000D01*
X22450000Y-73499721D01*
X23155000Y-73499721D01*
X23155000Y-73920279D01*
X23237047Y-74332756D01*
X23397988Y-74721302D01*
X23631637Y-75070983D01*
X23929017Y-75368363D01*
X24278698Y-75602012D01*
X24667244Y-75762953D01*
X25079721Y-75845000D01*
X25500279Y-75845000D01*
X25912756Y-75762953D01*
X26301302Y-75602012D01*
X26650983Y-75368363D01*
X26948363Y-75070983D01*
X27182012Y-74721302D01*
X27342953Y-74332756D01*
X27425000Y-73920279D01*
X27425000Y-73499721D01*
X81155000Y-73499721D01*
X81155000Y-73920279D01*
X81237047Y-74332756D01*
X81397988Y-74721302D01*
X81631637Y-75070983D01*
X81929017Y-75368363D01*
X82278698Y-75602012D01*
X82667244Y-75762953D01*
X83079721Y-75845000D01*
X83500279Y-75845000D01*
X83912756Y-75762953D01*
X84301302Y-75602012D01*
X84650983Y-75368363D01*
X84948363Y-75070983D01*
X85182012Y-74721302D01*
X85342953Y-74332756D01*
X85425000Y-73920279D01*
X85425000Y-73499721D01*
X85342953Y-73087244D01*
X85182012Y-72698698D01*
X84948363Y-72349017D01*
X84650983Y-72051637D01*
X84301302Y-71817988D01*
X83912756Y-71657047D01*
X83500279Y-71575000D01*
X83079721Y-71575000D01*
X82667244Y-71657047D01*
X82278698Y-71817988D01*
X81929017Y-72051637D01*
X81631637Y-72349017D01*
X81397988Y-72698698D01*
X81237047Y-73087244D01*
X81155000Y-73499721D01*
X27425000Y-73499721D01*
X27342953Y-73087244D01*
X27182012Y-72698698D01*
X26948363Y-72349017D01*
X26650983Y-72051637D01*
X26301302Y-71817988D01*
X25912756Y-71657047D01*
X25500279Y-71575000D01*
X25079721Y-71575000D01*
X24667244Y-71657047D01*
X24278698Y-71817988D01*
X23929017Y-72051637D01*
X23631637Y-72349017D01*
X23397988Y-72698698D01*
X23237047Y-73087244D01*
X23155000Y-73499721D01*
X22450000Y-73499721D01*
X22450000Y-64239721D01*
X31835000Y-64239721D01*
X31835000Y-64660279D01*
X31917047Y-65072756D01*
X32077988Y-65461302D01*
X32311637Y-65810983D01*
X32609017Y-66108363D01*
X32958698Y-66342012D01*
X33347244Y-66502953D01*
X33759721Y-66585000D01*
X34180279Y-66585000D01*
X34592756Y-66502953D01*
X34981302Y-66342012D01*
X35330983Y-66108363D01*
X35628363Y-65810983D01*
X35862012Y-65461302D01*
X36022953Y-65072756D01*
X36105000Y-64660279D01*
X36105000Y-64239721D01*
X41995000Y-64239721D01*
X41995000Y-64660279D01*
X42077047Y-65072756D01*
X42237988Y-65461302D01*
X42471637Y-65810983D01*
X42769017Y-66108363D01*
X43118698Y-66342012D01*
X43507244Y-66502953D01*
X43919721Y-66585000D01*
X44340279Y-66585000D01*
X44752756Y-66502953D01*
X45141302Y-66342012D01*
X45490983Y-66108363D01*
X45788363Y-65810983D01*
X46022012Y-65461302D01*
X46182953Y-65072756D01*
X46265000Y-64660279D01*
X46265000Y-64239721D01*
X52155000Y-64239721D01*
X52155000Y-64660279D01*
X52237047Y-65072756D01*
X52397988Y-65461302D01*
X52631637Y-65810983D01*
X52929017Y-66108363D01*
X53278698Y-66342012D01*
X53667244Y-66502953D01*
X54079721Y-66585000D01*
X54500279Y-66585000D01*
X54912756Y-66502953D01*
X55301302Y-66342012D01*
X55650983Y-66108363D01*
X55948363Y-65810983D01*
X56182012Y-65461302D01*
X56342953Y-65072756D01*
X56425000Y-64660279D01*
X56425000Y-64239721D01*
X62315000Y-64239721D01*
X62315000Y-64660279D01*
X62397047Y-65072756D01*
X62557988Y-65461302D01*
X62791637Y-65810983D01*
X63089017Y-66108363D01*
X63438698Y-66342012D01*
X63827244Y-66502953D01*
X64239721Y-66585000D01*
X64660279Y-66585000D01*
X65072756Y-66502953D01*
X65461302Y-66342012D01*
X65810983Y-66108363D01*
X66108363Y-65810983D01*
X66342012Y-65461302D01*
X66502953Y-65072756D01*
X66585000Y-64660279D01*
X66585000Y-64239721D01*
X72475000Y-64239721D01*
X72475000Y-64660279D01*
X72557047Y-65072756D01*
X72717988Y-65461302D01*
X72951637Y-65810983D01*
X73249017Y-66108363D01*
X73598698Y-66342012D01*
X73987244Y-66502953D01*
X74399721Y-66585000D01*
X74820279Y-66585000D01*
X75232756Y-66502953D01*
X75621302Y-66342012D01*
X75970983Y-66108363D01*
X76268363Y-65810983D01*
X76502012Y-65461302D01*
X76662953Y-65072756D01*
X76745000Y-64660279D01*
X76745000Y-64239721D01*
X76662953Y-63827244D01*
X76502012Y-63438698D01*
X76268363Y-63089017D01*
X75970983Y-62791637D01*
X75621302Y-62557988D01*
X75232756Y-62397047D01*
X74820279Y-62315000D01*
X74399721Y-62315000D01*
X73987244Y-62397047D01*
X73598698Y-62557988D01*
X73249017Y-62791637D01*
X72951637Y-63089017D01*
X72717988Y-63438698D01*
X72557047Y-63827244D01*
X72475000Y-64239721D01*
X66585000Y-64239721D01*
X66502953Y-63827244D01*
X66342012Y-63438698D01*
X66108363Y-63089017D01*
X65810983Y-62791637D01*
X65461302Y-62557988D01*
X65072756Y-62397047D01*
X64660279Y-62315000D01*
X64239721Y-62315000D01*
X63827244Y-62397047D01*
X63438698Y-62557988D01*
X63089017Y-62791637D01*
X62791637Y-63089017D01*
X62557988Y-63438698D01*
X62397047Y-63827244D01*
X62315000Y-64239721D01*
X56425000Y-64239721D01*
X56342953Y-63827244D01*
X56182012Y-63438698D01*
X55948363Y-63089017D01*
X55650983Y-62791637D01*
X55301302Y-62557988D01*
X54912756Y-62397047D01*
X54500279Y-62315000D01*
X54079721Y-62315000D01*
X53667244Y-62397047D01*
X53278698Y-62557988D01*
X52929017Y-62791637D01*
X52631637Y-63089017D01*
X52397988Y-63438698D01*
X52237047Y-63827244D01*
X52155000Y-64239721D01*
X46265000Y-64239721D01*
X46182953Y-63827244D01*
X46022012Y-63438698D01*
X45788363Y-63089017D01*
X45490983Y-62791637D01*
X45141302Y-62557988D01*
X44752756Y-62397047D01*
X44340279Y-62315000D01*
X43919721Y-62315000D01*
X43507244Y-62397047D01*
X43118698Y-62557988D01*
X42769017Y-62791637D01*
X42471637Y-63089017D01*
X42237988Y-63438698D01*
X42077047Y-63827244D01*
X41995000Y-64239721D01*
X36105000Y-64239721D01*
X36022953Y-63827244D01*
X35862012Y-63438698D01*
X35628363Y-63089017D01*
X35330983Y-62791637D01*
X34981302Y-62557988D01*
X34592756Y-62397047D01*
X34180279Y-62315000D01*
X33759721Y-62315000D01*
X33347244Y-62397047D01*
X32958698Y-62557988D01*
X32609017Y-62791637D01*
X32311637Y-63089017D01*
X32077988Y-63438698D01*
X31917047Y-63827244D01*
X31835000Y-64239721D01*
X22450000Y-64239721D01*
X22450000Y-60683377D01*
X27756229Y-60683377D01*
X27882104Y-60973315D01*
X28214262Y-61139139D01*
X28572387Y-61236975D01*
X28942719Y-61263065D01*
X29311025Y-61216405D01*
X29663151Y-61098789D01*
X29897896Y-60973315D01*
X30023771Y-60683377D01*
X78556229Y-60683377D01*
X78682104Y-60973315D01*
X79014262Y-61139139D01*
X79372387Y-61236975D01*
X79742719Y-61263065D01*
X80111025Y-61216405D01*
X80463151Y-61098789D01*
X80697896Y-60973315D01*
X80823771Y-60683377D01*
X79690000Y-59549605D01*
X78556229Y-60683377D01*
X30023771Y-60683377D01*
X28890000Y-59549605D01*
X27756229Y-60683377D01*
X22450000Y-60683377D01*
X22450000Y-59422719D01*
X26996935Y-59422719D01*
X27043595Y-59791025D01*
X27161211Y-60143151D01*
X27286685Y-60377896D01*
X27576623Y-60503771D01*
X28710395Y-59370000D01*
X29069605Y-59370000D01*
X30203377Y-60503771D01*
X30493315Y-60377896D01*
X30659139Y-60045738D01*
X30756975Y-59687613D01*
X30775636Y-59422719D01*
X77796935Y-59422719D01*
X77843595Y-59791025D01*
X77961211Y-60143151D01*
X78086685Y-60377896D01*
X78376623Y-60503771D01*
X79510395Y-59370000D01*
X79869605Y-59370000D01*
X81003377Y-60503771D01*
X81293315Y-60377896D01*
X81459139Y-60045738D01*
X81556975Y-59687613D01*
X81583065Y-59317281D01*
X81536405Y-58948975D01*
X81418789Y-58596849D01*
X81293315Y-58362104D01*
X81003377Y-58236229D01*
X79869605Y-59370000D01*
X79510395Y-59370000D01*
X78376623Y-58236229D01*
X78086685Y-58362104D01*
X77920861Y-58694262D01*
X77823025Y-59052387D01*
X77796935Y-59422719D01*
X30775636Y-59422719D01*
X30783065Y-59317281D01*
X30736405Y-58948975D01*
X30618789Y-58596849D01*
X30493315Y-58362104D01*
X30203377Y-58236229D01*
X29069605Y-59370000D01*
X28710395Y-59370000D01*
X27576623Y-58236229D01*
X27286685Y-58362104D01*
X27120861Y-58694262D01*
X27023025Y-59052387D01*
X26996935Y-59422719D01*
X22450000Y-59422719D01*
X22450000Y-58056623D01*
X27756229Y-58056623D01*
X28890000Y-59190395D01*
X30023771Y-58056623D01*
X78556229Y-58056623D01*
X79690000Y-59190395D01*
X80823771Y-58056623D01*
X80697896Y-57766685D01*
X80365738Y-57600861D01*
X80007613Y-57503025D01*
X79637281Y-57476935D01*
X79268975Y-57523595D01*
X78916849Y-57641211D01*
X78682104Y-57766685D01*
X78556229Y-58056623D01*
X30023771Y-58056623D01*
X29897896Y-57766685D01*
X29565738Y-57600861D01*
X29207613Y-57503025D01*
X28837281Y-57476935D01*
X28468975Y-57523595D01*
X28116849Y-57641211D01*
X27882104Y-57766685D01*
X27756229Y-58056623D01*
X22450000Y-58056623D01*
X22450000Y-54079721D01*
X31835000Y-54079721D01*
X31835000Y-54500279D01*
X31917047Y-54912756D01*
X32077988Y-55301302D01*
X32311637Y-55650983D01*
X32609017Y-55948363D01*
X32958698Y-56182012D01*
X33347244Y-56342953D01*
X33759721Y-56425000D01*
X34180279Y-56425000D01*
X34592756Y-56342953D01*
X34981302Y-56182012D01*
X35330983Y-55948363D01*
X35628363Y-55650983D01*
X35862012Y-55301302D01*
X36022953Y-54912756D01*
X36105000Y-54500279D01*
X36105000Y-54079721D01*
X41995000Y-54079721D01*
X41995000Y-54500279D01*
X42077047Y-54912756D01*
X42237988Y-55301302D01*
X42471637Y-55650983D01*
X42769017Y-55948363D01*
X43118698Y-56182012D01*
X43507244Y-56342953D01*
X43919721Y-56425000D01*
X44340279Y-56425000D01*
X44752756Y-56342953D01*
X45141302Y-56182012D01*
X45490983Y-55948363D01*
X45788363Y-55650983D01*
X46022012Y-55301302D01*
X46182953Y-54912756D01*
X46265000Y-54500279D01*
X46265000Y-54079721D01*
X52155000Y-54079721D01*
X52155000Y-54500279D01*
X52237047Y-54912756D01*
X52397988Y-55301302D01*
X52631637Y-55650983D01*
X52929017Y-55948363D01*
X53278698Y-56182012D01*
X53667244Y-56342953D01*
X54079721Y-56425000D01*
X54500279Y-56425000D01*
X54912756Y-56342953D01*
X55301302Y-56182012D01*
X55650983Y-55948363D01*
X55948363Y-55650983D01*
X56182012Y-55301302D01*
X56342953Y-54912756D01*
X56425000Y-54500279D01*
X56425000Y-54079721D01*
X62315000Y-54079721D01*
X62315000Y-54500279D01*
X62397047Y-54912756D01*
X62557988Y-55301302D01*
X62791637Y-55650983D01*
X63089017Y-55948363D01*
X63438698Y-56182012D01*
X63827244Y-56342953D01*
X64239721Y-56425000D01*
X64660279Y-56425000D01*
X65072756Y-56342953D01*
X65461302Y-56182012D01*
X65810983Y-55948363D01*
X66108363Y-55650983D01*
X66342012Y-55301302D01*
X66502953Y-54912756D01*
X66585000Y-54500279D01*
X66585000Y-54079721D01*
X72475000Y-54079721D01*
X72475000Y-54500279D01*
X72557047Y-54912756D01*
X72717988Y-55301302D01*
X72951637Y-55650983D01*
X73249017Y-55948363D01*
X73598698Y-56182012D01*
X73987244Y-56342953D01*
X74399721Y-56425000D01*
X74820279Y-56425000D01*
X75232756Y-56342953D01*
X75621302Y-56182012D01*
X75970983Y-55948363D01*
X76268363Y-55650983D01*
X76502012Y-55301302D01*
X76662953Y-54912756D01*
X76745000Y-54500279D01*
X76745000Y-54079721D01*
X76662953Y-53667244D01*
X76502012Y-53278698D01*
X76268363Y-52929017D01*
X75970983Y-52631637D01*
X75621302Y-52397988D01*
X75232756Y-52237047D01*
X74820279Y-52155000D01*
X74399721Y-52155000D01*
X73987244Y-52237047D01*
X73598698Y-52397988D01*
X73249017Y-52631637D01*
X72951637Y-52929017D01*
X72717988Y-53278698D01*
X72557047Y-53667244D01*
X72475000Y-54079721D01*
X66585000Y-54079721D01*
X66502953Y-53667244D01*
X66342012Y-53278698D01*
X66108363Y-52929017D01*
X65810983Y-52631637D01*
X65461302Y-52397988D01*
X65072756Y-52237047D01*
X64660279Y-52155000D01*
X64239721Y-52155000D01*
X63827244Y-52237047D01*
X63438698Y-52397988D01*
X63089017Y-52631637D01*
X62791637Y-52929017D01*
X62557988Y-53278698D01*
X62397047Y-53667244D01*
X62315000Y-54079721D01*
X56425000Y-54079721D01*
X56342953Y-53667244D01*
X56182012Y-53278698D01*
X55948363Y-52929017D01*
X55650983Y-52631637D01*
X55301302Y-52397988D01*
X54912756Y-52237047D01*
X54500279Y-52155000D01*
X54079721Y-52155000D01*
X53667244Y-52237047D01*
X53278698Y-52397988D01*
X52929017Y-52631637D01*
X52631637Y-52929017D01*
X52397988Y-53278698D01*
X52237047Y-53667244D01*
X52155000Y-54079721D01*
X46265000Y-54079721D01*
X46182953Y-53667244D01*
X46022012Y-53278698D01*
X45788363Y-52929017D01*
X45490983Y-52631637D01*
X45141302Y-52397988D01*
X44752756Y-52237047D01*
X44340279Y-52155000D01*
X43919721Y-52155000D01*
X43507244Y-52237047D01*
X43118698Y-52397988D01*
X42769017Y-52631637D01*
X42471637Y-52929017D01*
X42237988Y-53278698D01*
X42077047Y-53667244D01*
X41995000Y-54079721D01*
X36105000Y-54079721D01*
X36022953Y-53667244D01*
X35862012Y-53278698D01*
X35628363Y-52929017D01*
X35330983Y-52631637D01*
X34981302Y-52397988D01*
X34592756Y-52237047D01*
X34180279Y-52155000D01*
X33759721Y-52155000D01*
X33347244Y-52237047D01*
X32958698Y-52397988D01*
X32609017Y-52631637D01*
X32311637Y-52929017D01*
X32077988Y-53278698D01*
X31917047Y-53667244D01*
X31835000Y-54079721D01*
X22450000Y-54079721D01*
X22450000Y-43919721D01*
X31835000Y-43919721D01*
X31835000Y-44340279D01*
X31917047Y-44752756D01*
X32077988Y-45141302D01*
X32311637Y-45490983D01*
X32609017Y-45788363D01*
X32958698Y-46022012D01*
X33347244Y-46182953D01*
X33759721Y-46265000D01*
X34180279Y-46265000D01*
X34592756Y-46182953D01*
X34981302Y-46022012D01*
X35330983Y-45788363D01*
X35628363Y-45490983D01*
X35862012Y-45141302D01*
X36022953Y-44752756D01*
X36105000Y-44340279D01*
X36105000Y-43919721D01*
X41995000Y-43919721D01*
X41995000Y-44340279D01*
X42077047Y-44752756D01*
X42237988Y-45141302D01*
X42471637Y-45490983D01*
X42769017Y-45788363D01*
X43118698Y-46022012D01*
X43507244Y-46182953D01*
X43919721Y-46265000D01*
X44340279Y-46265000D01*
X44752756Y-46182953D01*
X45141302Y-46022012D01*
X45490983Y-45788363D01*
X45788363Y-45490983D01*
X46022012Y-45141302D01*
X46182953Y-44752756D01*
X46265000Y-44340279D01*
X46265000Y-43919721D01*
X52155000Y-43919721D01*
X52155000Y-44340279D01*
X52237047Y-44752756D01*
X52397988Y-45141302D01*
X52631637Y-45490983D01*
X52929017Y-45788363D01*
X53278698Y-46022012D01*
X53667244Y-46182953D01*
X54079721Y-46265000D01*
X54500279Y-46265000D01*
X54912756Y-46182953D01*
X55301302Y-46022012D01*
X55650983Y-45788363D01*
X55948363Y-45490983D01*
X56182012Y-45141302D01*
X56342953Y-44752756D01*
X56425000Y-44340279D01*
X56425000Y-43919721D01*
X62315000Y-43919721D01*
X62315000Y-44340279D01*
X62397047Y-44752756D01*
X62557988Y-45141302D01*
X62791637Y-45490983D01*
X63089017Y-45788363D01*
X63438698Y-46022012D01*
X63827244Y-46182953D01*
X64239721Y-46265000D01*
X64660279Y-46265000D01*
X65072756Y-46182953D01*
X65461302Y-46022012D01*
X65810983Y-45788363D01*
X66108363Y-45490983D01*
X66342012Y-45141302D01*
X66502953Y-44752756D01*
X66585000Y-44340279D01*
X66585000Y-43919721D01*
X72475000Y-43919721D01*
X72475000Y-44340279D01*
X72557047Y-44752756D01*
X72717988Y-45141302D01*
X72951637Y-45490983D01*
X73249017Y-45788363D01*
X73598698Y-46022012D01*
X73987244Y-46182953D01*
X74399721Y-46265000D01*
X74820279Y-46265000D01*
X75232756Y-46182953D01*
X75621302Y-46022012D01*
X75970983Y-45788363D01*
X76268363Y-45490983D01*
X76502012Y-45141302D01*
X76662953Y-44752756D01*
X76745000Y-44340279D01*
X76745000Y-43919721D01*
X76662953Y-43507244D01*
X76502012Y-43118698D01*
X76268363Y-42769017D01*
X75970983Y-42471637D01*
X75621302Y-42237988D01*
X75232756Y-42077047D01*
X74820279Y-41995000D01*
X74399721Y-41995000D01*
X73987244Y-42077047D01*
X73598698Y-42237988D01*
X73249017Y-42471637D01*
X72951637Y-42769017D01*
X72717988Y-43118698D01*
X72557047Y-43507244D01*
X72475000Y-43919721D01*
X66585000Y-43919721D01*
X66502953Y-43507244D01*
X66342012Y-43118698D01*
X66108363Y-42769017D01*
X65810983Y-42471637D01*
X65461302Y-42237988D01*
X65072756Y-42077047D01*
X64660279Y-41995000D01*
X64239721Y-41995000D01*
X63827244Y-42077047D01*
X63438698Y-42237988D01*
X63089017Y-42471637D01*
X62791637Y-42769017D01*
X62557988Y-43118698D01*
X62397047Y-43507244D01*
X62315000Y-43919721D01*
X56425000Y-43919721D01*
X56342953Y-43507244D01*
X56182012Y-43118698D01*
X55948363Y-42769017D01*
X55650983Y-42471637D01*
X55301302Y-42237988D01*
X54912756Y-42077047D01*
X54500279Y-41995000D01*
X54079721Y-41995000D01*
X53667244Y-42077047D01*
X53278698Y-42237988D01*
X52929017Y-42471637D01*
X52631637Y-42769017D01*
X52397988Y-43118698D01*
X52237047Y-43507244D01*
X52155000Y-43919721D01*
X46265000Y-43919721D01*
X46182953Y-43507244D01*
X46022012Y-43118698D01*
X45788363Y-42769017D01*
X45490983Y-42471637D01*
X45141302Y-42237988D01*
X44752756Y-42077047D01*
X44340279Y-41995000D01*
X43919721Y-41995000D01*
X43507244Y-42077047D01*
X43118698Y-42237988D01*
X42769017Y-42471637D01*
X42471637Y-42769017D01*
X42237988Y-43118698D01*
X42077047Y-43507244D01*
X41995000Y-43919721D01*
X36105000Y-43919721D01*
X36022953Y-43507244D01*
X35862012Y-43118698D01*
X35628363Y-42769017D01*
X35330983Y-42471637D01*
X34981302Y-42237988D01*
X34592756Y-42077047D01*
X34180279Y-41995000D01*
X33759721Y-41995000D01*
X33347244Y-42077047D01*
X32958698Y-42237988D01*
X32609017Y-42471637D01*
X32311637Y-42769017D01*
X32077988Y-43118698D01*
X31917047Y-43507244D01*
X31835000Y-43919721D01*
X22450000Y-43919721D01*
X22450000Y-40363377D01*
X27756229Y-40363377D01*
X27882104Y-40653315D01*
X28214262Y-40819139D01*
X28572387Y-40916975D01*
X28942719Y-40943065D01*
X29311025Y-40896405D01*
X29663151Y-40778789D01*
X29897896Y-40653315D01*
X30023771Y-40363377D01*
X28890000Y-39229605D01*
X27756229Y-40363377D01*
X22450000Y-40363377D01*
X22450000Y-39102719D01*
X26996935Y-39102719D01*
X27043595Y-39471025D01*
X27161211Y-39823151D01*
X27286685Y-40057896D01*
X27576623Y-40183771D01*
X28710395Y-39050000D01*
X29069605Y-39050000D01*
X30203377Y-40183771D01*
X30493315Y-40057896D01*
X30659139Y-39725738D01*
X30756975Y-39367613D01*
X30765909Y-39240796D01*
X65933370Y-39240796D01*
X65933393Y-39249732D01*
X65934452Y-39361344D01*
X65934507Y-39361851D01*
X65934462Y-39362363D01*
X65934624Y-39371298D01*
X65937219Y-39474897D01*
X65937508Y-39477236D01*
X65937353Y-39479598D01*
X65937705Y-39488527D01*
X65941841Y-39577689D01*
X65942888Y-39584905D01*
X65942679Y-39592193D01*
X65943358Y-39601104D01*
X65949041Y-39669400D01*
X65953511Y-39693859D01*
X65955073Y-39718675D01*
X65956564Y-39727486D01*
X65963796Y-39768492D01*
X65971993Y-39797847D01*
X65977208Y-39827869D01*
X65988748Y-39857849D01*
X65997390Y-39888796D01*
X66011131Y-39915996D01*
X66014707Y-39925285D01*
X66019207Y-39937943D01*
X66020260Y-39939711D01*
X66022079Y-39944437D01*
X66026144Y-39952395D01*
X66030504Y-39960787D01*
X66045057Y-39983150D01*
X66053712Y-40000283D01*
X66064707Y-40014355D01*
X66083112Y-40045264D01*
X66091663Y-40054770D01*
X66098631Y-40065478D01*
X66129029Y-40096678D01*
X66130615Y-40098708D01*
X66133077Y-40100833D01*
X66133342Y-40101105D01*
X66166645Y-40138128D01*
X66176882Y-40145794D01*
X66185796Y-40154943D01*
X66226792Y-40183168D01*
X66266626Y-40212997D01*
X66278142Y-40218522D01*
X66288676Y-40225774D01*
X66334378Y-40245500D01*
X66340787Y-40248574D01*
X66342222Y-40249457D01*
X66344020Y-40250125D01*
X66379243Y-40267023D01*
X66387660Y-40270024D01*
X66411933Y-40278490D01*
X66436042Y-40284335D01*
X66459299Y-40292981D01*
X66467955Y-40295202D01*
X66523227Y-40308975D01*
X66527145Y-40309553D01*
X66530889Y-40310834D01*
X66539600Y-40312827D01*
X66620364Y-40330712D01*
X66620475Y-40330725D01*
X66620587Y-40330762D01*
X66629326Y-40332629D01*
X66730076Y-40353431D01*
X66730191Y-40353443D01*
X66736705Y-40354764D01*
X66851934Y-40377289D01*
X66852095Y-40377304D01*
X66856448Y-40378154D01*
X66919228Y-40389959D01*
X66919272Y-40389963D01*
X66919896Y-40390084D01*
X67004460Y-40405892D01*
X66993017Y-40422757D01*
X66956149Y-40476441D01*
X66956100Y-40476529D01*
X66955099Y-40477975D01*
X66886053Y-40579144D01*
X66885992Y-40579256D01*
X66882407Y-40584546D01*
X66821081Y-40676397D01*
X66821051Y-40676453D01*
X66816706Y-40683040D01*
X66766092Y-40760926D01*
X66765296Y-40762461D01*
X66764222Y-40763820D01*
X66759447Y-40771373D01*
X66722539Y-40830647D01*
X66718042Y-40839742D01*
X66712123Y-40847980D01*
X66707696Y-40855742D01*
X66687485Y-40891760D01*
X66668144Y-40935824D01*
X66666457Y-40939239D01*
X66653879Y-40962244D01*
X66651733Y-40969062D01*
X66646841Y-40978971D01*
X66643744Y-40987354D01*
X66640825Y-40995427D01*
X66639230Y-41001697D01*
X66637282Y-41006134D01*
X66631749Y-41031095D01*
X66629802Y-41038747D01*
X66616382Y-41081389D01*
X66614429Y-41099162D01*
X66610024Y-41116476D01*
X66607626Y-41161093D01*
X66602742Y-41205549D01*
X66604279Y-41223363D01*
X66603320Y-41241202D01*
X66609635Y-41285444D01*
X66613478Y-41329993D01*
X66618444Y-41347161D01*
X66620969Y-41364855D01*
X66635763Y-41407044D01*
X66648182Y-41449981D01*
X66656388Y-41465859D01*
X66662302Y-41482724D01*
X66684999Y-41521220D01*
X66692920Y-41536546D01*
X66694646Y-41540565D01*
X66696070Y-41542641D01*
X66705529Y-41560944D01*
X66710440Y-41568410D01*
X66722988Y-41587203D01*
X66745339Y-41614480D01*
X66765291Y-41643573D01*
X66771088Y-41650374D01*
X66805778Y-41690501D01*
X66809707Y-41694237D01*
X66812909Y-41698610D01*
X66818913Y-41705228D01*
X66871313Y-41762192D01*
X66871520Y-41762377D01*
X66871689Y-41762601D01*
X66877790Y-41769130D01*
X66943469Y-41838438D01*
X66943574Y-41838529D01*
X66947702Y-41842862D01*
X67022230Y-41920016D01*
X67022349Y-41920117D01*
X67025582Y-41923460D01*
X67104525Y-42003966D01*
X67104643Y-42004065D01*
X67107705Y-42007187D01*
X67186635Y-42086549D01*
X67186759Y-42086651D01*
X67190195Y-42090100D01*
X67264678Y-42163823D01*
X67264773Y-42163901D01*
X67269475Y-42168521D01*
X67335081Y-42232109D01*
X67335931Y-42232785D01*
X67336642Y-42233618D01*
X67343123Y-42239770D01*
X67395421Y-42288728D01*
X67402122Y-42293872D01*
X67407858Y-42300067D01*
X67414581Y-42305954D01*
X67449138Y-42335787D01*
X67487360Y-42362754D01*
X67524207Y-42391567D01*
X67531783Y-42396305D01*
X67543344Y-42403424D01*
X67548740Y-42406059D01*
X67551200Y-42407794D01*
X67558668Y-42411119D01*
X67570648Y-42419321D01*
X67613614Y-42437732D01*
X67655587Y-42458225D01*
X67670887Y-42462274D01*
X67685458Y-42468518D01*
X67731197Y-42478236D01*
X67776336Y-42490182D01*
X67792137Y-42491183D01*
X67807637Y-42494476D01*
X67854362Y-42495124D01*
X67900992Y-42498078D01*
X67916695Y-42495989D01*
X67932531Y-42496209D01*
X67978480Y-42487771D01*
X68024808Y-42481609D01*
X68039809Y-42476509D01*
X68055384Y-42473649D01*
X68098819Y-42456448D01*
X68143067Y-42441405D01*
X68156788Y-42433491D01*
X68171514Y-42427659D01*
X68179433Y-42423518D01*
X68198257Y-42413508D01*
X68213117Y-42403633D01*
X68229209Y-42395926D01*
X68236821Y-42391244D01*
X68281844Y-42363119D01*
X68282680Y-42362475D01*
X68283622Y-42362004D01*
X68291152Y-42357192D01*
X68357995Y-42313816D01*
X68358104Y-42313729D01*
X68362743Y-42310706D01*
X68447031Y-42254942D01*
X68447154Y-42254842D01*
X68450362Y-42252723D01*
X68547717Y-42187435D01*
X68547823Y-42187348D01*
X68550161Y-42185788D01*
X68623598Y-42136048D01*
X68623657Y-42135999D01*
X68624569Y-42135388D01*
X68693463Y-42088541D01*
X68709198Y-42172008D01*
X68709203Y-42172034D01*
X68793024Y-42616658D01*
X68793219Y-42617326D01*
X68793282Y-42618017D01*
X68810752Y-42677374D01*
X68828032Y-42736558D01*
X68828351Y-42737171D01*
X68828548Y-42737841D01*
X68857237Y-42792717D01*
X68885661Y-42847375D01*
X68886095Y-42847917D01*
X68886417Y-42848533D01*
X68925049Y-42896582D01*
X68963716Y-42944889D01*
X68964249Y-42945338D01*
X68964683Y-42945878D01*
X69012019Y-42985597D01*
X69059227Y-43025383D01*
X69059833Y-43025718D01*
X69060367Y-43026166D01*
X69114795Y-43056088D01*
X69168553Y-43085793D01*
X69169210Y-43086003D01*
X69169823Y-43086340D01*
X69228870Y-43105070D01*
X69287530Y-43123818D01*
X69288221Y-43123897D01*
X69288883Y-43124107D01*
X69350285Y-43130995D01*
X69411627Y-43138010D01*
X69412319Y-43137953D01*
X69413010Y-43138031D01*
X69421946Y-43138093D01*
X70347394Y-43138093D01*
X70348084Y-43138025D01*
X70348779Y-43138092D01*
X70410454Y-43131910D01*
X70471704Y-43125904D01*
X70472368Y-43125704D01*
X70473062Y-43125634D01*
X70532210Y-43107636D01*
X70591279Y-43089802D01*
X70591894Y-43089475D01*
X70592558Y-43089273D01*
X70647018Y-43060166D01*
X70701565Y-43031163D01*
X70702103Y-43030724D01*
X70702717Y-43030396D01*
X70750678Y-42991107D01*
X70798360Y-42952218D01*
X70798800Y-42951686D01*
X70799342Y-42951242D01*
X70838807Y-42903326D01*
X70877978Y-42855976D01*
X70878308Y-42855366D01*
X70878751Y-42854828D01*
X70907978Y-42800492D01*
X70937386Y-42746103D01*
X70937593Y-42745435D01*
X70937921Y-42744825D01*
X70956021Y-42685902D01*
X70974322Y-42626783D01*
X70974395Y-42626091D01*
X70974599Y-42625426D01*
X70976316Y-42616657D01*
X71060136Y-42172032D01*
X71075876Y-42088541D01*
X71144769Y-42135388D01*
X71144852Y-42135433D01*
X71146198Y-42136357D01*
X71250108Y-42206606D01*
X71250240Y-42206677D01*
X71253141Y-42208644D01*
X71347071Y-42271368D01*
X71347209Y-42271442D01*
X71350786Y-42273830D01*
X71430351Y-42326164D01*
X71430452Y-42326217D01*
X71436069Y-42329882D01*
X71496887Y-42368963D01*
X71499726Y-42370417D01*
X71502250Y-42372372D01*
X71509849Y-42377075D01*
X71547536Y-42400039D01*
X71571730Y-42411712D01*
X71594480Y-42426011D01*
X71602501Y-42429949D01*
X71612766Y-42434900D01*
X71631196Y-42441663D01*
X71648553Y-42450831D01*
X71659757Y-42454180D01*
X71660034Y-42454314D01*
X71661326Y-42454650D01*
X71689709Y-42463134D01*
X71730026Y-42477929D01*
X71749411Y-42480982D01*
X71768226Y-42486607D01*
X71811001Y-42490683D01*
X71853411Y-42497363D01*
X71873020Y-42496593D01*
X71892569Y-42498456D01*
X71935305Y-42494148D01*
X71978221Y-42492463D01*
X71997316Y-42487897D01*
X72016845Y-42485928D01*
X72057918Y-42473404D01*
X72099702Y-42463412D01*
X72117553Y-42455221D01*
X72136321Y-42449498D01*
X72174181Y-42429235D01*
X72213227Y-42411318D01*
X72229136Y-42399823D01*
X72246446Y-42390559D01*
X72253841Y-42385541D01*
X72272330Y-42372807D01*
X72299428Y-42349942D01*
X72328371Y-42329448D01*
X72335084Y-42323549D01*
X72374594Y-42288343D01*
X72378263Y-42284366D01*
X72382583Y-42281103D01*
X72389111Y-42275001D01*
X72445213Y-42221820D01*
X72445388Y-42221618D01*
X72445605Y-42221449D01*
X72452042Y-42215251D01*
X72520306Y-42148595D01*
X72520395Y-42148489D01*
X72524651Y-42144312D01*
X72600649Y-42068677D01*
X72600748Y-42068557D01*
X72604033Y-42065284D01*
X72683339Y-41985166D01*
X72683441Y-41985041D01*
X72686493Y-41981957D01*
X72764677Y-41901855D01*
X72764778Y-41901729D01*
X72768163Y-41898255D01*
X72840795Y-41822664D01*
X72840868Y-41822571D01*
X72845399Y-41817823D01*
X72908051Y-41751242D01*
X72908692Y-41750412D01*
X72909483Y-41749716D01*
X72915539Y-41743145D01*
X72963783Y-41690072D01*
X72968768Y-41683377D01*
X72974816Y-41677614D01*
X72980605Y-41670807D01*
X73010012Y-41635738D01*
X73036037Y-41597702D01*
X73063978Y-41561059D01*
X73068624Y-41553426D01*
X73075655Y-41541690D01*
X73078554Y-41535565D01*
X73080546Y-41532653D01*
X73086388Y-41519011D01*
X73100432Y-41489334D01*
X73125963Y-41437308D01*
X73127139Y-41432900D01*
X73129085Y-41428788D01*
X73143208Y-41372668D01*
X73158160Y-41316623D01*
X73158457Y-41312072D01*
X73159568Y-41307659D01*
X73162525Y-41249815D01*
X73166304Y-41191982D01*
X73165712Y-41187465D01*
X73165945Y-41182915D01*
X73157602Y-41125553D01*
X73150081Y-41068134D01*
X73148624Y-41063820D01*
X73147968Y-41059309D01*
X73128656Y-41004696D01*
X73122986Y-40987907D01*
X73122035Y-40983884D01*
X73120458Y-40980423D01*
X73110114Y-40949795D01*
X73106385Y-40941674D01*
X73096267Y-40920037D01*
X73081919Y-40895835D01*
X73070248Y-40870220D01*
X73065713Y-40862521D01*
X73037349Y-40815119D01*
X73034722Y-40811568D01*
X73032780Y-40807601D01*
X73028033Y-40800029D01*
X72984403Y-40731498D01*
X72984245Y-40731297D01*
X72984125Y-40731060D01*
X72979267Y-40723560D01*
X72923356Y-40638538D01*
X72923284Y-40638448D01*
X72919540Y-40632803D01*
X72854328Y-40535925D01*
X72854227Y-40535803D01*
X72851694Y-40532043D01*
X72813907Y-40476785D01*
X72765435Y-40405777D01*
X72784326Y-40402216D01*
X72849063Y-40390155D01*
X72849179Y-40390122D01*
X72851544Y-40389688D01*
X72972052Y-40366744D01*
X72972177Y-40366707D01*
X72978217Y-40365539D01*
X72988995Y-40363377D01*
X78556229Y-40363377D01*
X78682104Y-40653315D01*
X79014262Y-40819139D01*
X79372387Y-40916975D01*
X79742719Y-40943065D01*
X80111025Y-40896405D01*
X80463151Y-40778789D01*
X80697896Y-40653315D01*
X80823771Y-40363377D01*
X79690000Y-39229605D01*
X78556229Y-40363377D01*
X72988995Y-40363377D01*
X73087064Y-40343706D01*
X73087139Y-40343683D01*
X73094522Y-40342164D01*
X73186200Y-40322637D01*
X73187542Y-40322211D01*
X73188941Y-40322047D01*
X73197659Y-40320086D01*
X73266664Y-40304060D01*
X73275354Y-40301123D01*
X73284424Y-40299668D01*
X73293051Y-40297337D01*
X73333873Y-40286007D01*
X73372126Y-40271237D01*
X73411284Y-40259074D01*
X73419494Y-40255545D01*
X73427701Y-40251950D01*
X73439749Y-40245202D01*
X73452686Y-40240359D01*
X73494160Y-40214723D01*
X73536675Y-40190908D01*
X73547181Y-40181949D01*
X73558933Y-40174685D01*
X73594640Y-40141479D01*
X73631718Y-40109862D01*
X73640283Y-40099034D01*
X73650401Y-40089625D01*
X73678971Y-40050125D01*
X73709209Y-40011899D01*
X73715512Y-39999606D01*
X73723604Y-39988418D01*
X73743952Y-39944136D01*
X73766196Y-39900750D01*
X73769990Y-39887468D01*
X73775756Y-39874921D01*
X73778618Y-39866455D01*
X73786655Y-39842123D01*
X73799816Y-39783620D01*
X73813429Y-39725267D01*
X73814036Y-39720415D01*
X73814070Y-39720263D01*
X73814074Y-39720110D01*
X73814538Y-39716400D01*
X73821023Y-39661447D01*
X73821284Y-39648222D01*
X73823573Y-39635199D01*
X73824192Y-39626284D01*
X73829129Y-39547135D01*
X73828977Y-39542854D01*
X73829603Y-39538619D01*
X73829978Y-39529691D01*
X73833372Y-39432773D01*
X73833293Y-39431516D01*
X73833455Y-39430266D01*
X73833670Y-39421333D01*
X73835524Y-39313071D01*
X73835516Y-39312966D01*
X73835528Y-39312858D01*
X73835615Y-39303923D01*
X73835934Y-39190937D01*
X73835935Y-39190932D01*
X73835935Y-39190745D01*
X73835934Y-39190737D01*
X73835900Y-39181995D01*
X73835041Y-39102719D01*
X77796935Y-39102719D01*
X77843595Y-39471025D01*
X77961211Y-39823151D01*
X78086685Y-40057896D01*
X78376623Y-40183771D01*
X79510395Y-39050000D01*
X79869605Y-39050000D01*
X81003377Y-40183771D01*
X81293315Y-40057896D01*
X81459139Y-39725738D01*
X81556975Y-39367613D01*
X81583065Y-38997281D01*
X81536405Y-38628975D01*
X81418789Y-38276849D01*
X81293315Y-38042104D01*
X81003377Y-37916229D01*
X79869605Y-39050000D01*
X79510395Y-39050000D01*
X78376623Y-37916229D01*
X78086685Y-38042104D01*
X77920861Y-38374262D01*
X77823025Y-38732387D01*
X77796935Y-39102719D01*
X73835041Y-39102719D01*
X73834689Y-39070325D01*
X73834635Y-39069826D01*
X73834678Y-39069319D01*
X73834504Y-39060384D01*
X73831767Y-38956651D01*
X73831478Y-38954334D01*
X73831628Y-38951996D01*
X73831265Y-38943067D01*
X73827006Y-38853695D01*
X73825962Y-38846566D01*
X73826162Y-38839360D01*
X73825473Y-38830451D01*
X73819697Y-38761865D01*
X73815273Y-38737791D01*
X73813739Y-38713351D01*
X73812250Y-38704540D01*
X73804962Y-38663169D01*
X73797564Y-38636656D01*
X73793111Y-38609502D01*
X73780820Y-38576649D01*
X73771391Y-38542859D01*
X73762810Y-38525864D01*
X73760099Y-38517131D01*
X73755098Y-38507899D01*
X73749343Y-38492516D01*
X73745354Y-38484520D01*
X73740982Y-38475907D01*
X73724631Y-38450254D01*
X73715091Y-38431360D01*
X73710350Y-38425290D01*
X73700607Y-38407303D01*
X73686081Y-38389771D01*
X73673847Y-38370577D01*
X73646331Y-38341796D01*
X73620915Y-38311121D01*
X73603258Y-38296743D01*
X73587531Y-38280293D01*
X73554945Y-38257401D01*
X73524059Y-38232251D01*
X73503954Y-38221580D01*
X73485324Y-38208493D01*
X73448908Y-38192366D01*
X73413730Y-38173695D01*
X73405442Y-38170354D01*
X73379311Y-38160031D01*
X73347979Y-38151073D01*
X73317618Y-38139220D01*
X73308999Y-38136858D01*
X73253628Y-38122099D01*
X73245914Y-38120832D01*
X73238527Y-38118270D01*
X73229824Y-38116240D01*
X73152538Y-38098780D01*
X73149260Y-38098370D01*
X73146116Y-38097364D01*
X73137367Y-38095546D01*
X73045490Y-38077118D01*
X73045423Y-38077111D01*
X73045353Y-38077090D01*
X73036579Y-38075396D01*
X73004507Y-38069435D01*
X73004417Y-38069427D01*
X73002871Y-38069133D01*
X72849422Y-38041025D01*
X72792482Y-38030392D01*
X72783353Y-38007085D01*
X72781587Y-38002405D01*
X72816562Y-37951411D01*
X72816563Y-37951410D01*
X72834671Y-37925065D01*
X72834747Y-37924928D01*
X72837462Y-37920971D01*
X72903318Y-37823550D01*
X72903735Y-37822780D01*
X72904291Y-37822106D01*
X72909223Y-37814654D01*
X72960095Y-37736623D01*
X78556229Y-37736623D01*
X79690000Y-38870395D01*
X80823771Y-37736623D01*
X80697896Y-37446685D01*
X80365738Y-37280861D01*
X80007613Y-37183025D01*
X79637281Y-37156935D01*
X79268975Y-37203595D01*
X78916849Y-37321211D01*
X78682104Y-37446685D01*
X78556229Y-37736623D01*
X72960095Y-37736623D01*
X72967174Y-37725766D01*
X72968144Y-37723903D01*
X72969453Y-37722247D01*
X72974231Y-37714696D01*
X73021119Y-37639446D01*
X73023837Y-37633954D01*
X73027481Y-37629017D01*
X73032007Y-37621312D01*
X73064676Y-37564804D01*
X73074262Y-37543704D01*
X73086370Y-37523939D01*
X73090216Y-37515873D01*
X73105509Y-37483212D01*
X73110418Y-37469343D01*
X73117335Y-37456368D01*
X73131220Y-37410565D01*
X73147183Y-37365463D01*
X73149302Y-37350919D01*
X73153572Y-37336835D01*
X73155256Y-37328058D01*
X73155997Y-37324046D01*
X73159508Y-37282793D01*
X73165735Y-37241854D01*
X73164792Y-37220691D01*
X73166588Y-37199590D01*
X73162020Y-37158449D01*
X73160177Y-37117072D01*
X73155141Y-37096492D01*
X73152804Y-37075447D01*
X73140327Y-37035960D01*
X73130486Y-36995746D01*
X73121555Y-36976550D01*
X73115171Y-36956345D01*
X73095262Y-36920035D01*
X73077798Y-36882497D01*
X73073202Y-36874833D01*
X73060352Y-36853742D01*
X73032817Y-36817136D01*
X73007224Y-36779132D01*
X73001485Y-36772282D01*
X72965981Y-36730502D01*
X72959570Y-36724302D01*
X72954283Y-36717117D01*
X72948263Y-36710513D01*
X72894668Y-36652532D01*
X72893094Y-36651132D01*
X72891809Y-36649459D01*
X72885655Y-36642980D01*
X72818533Y-36573289D01*
X72818513Y-36573272D01*
X72812556Y-36567167D01*
X72736472Y-36490256D01*
X72736379Y-36490179D01*
X72731641Y-36485425D01*
X72651158Y-36405787D01*
X72651057Y-36405705D01*
X72646522Y-36401246D01*
X72566205Y-36323368D01*
X72566131Y-36323309D01*
X72560893Y-36318276D01*
X72485305Y-36246651D01*
X72484893Y-36246331D01*
X72484545Y-36245931D01*
X72478005Y-36239841D01*
X72411711Y-36178957D01*
X72408482Y-36176527D01*
X72405744Y-36173545D01*
X72399045Y-36167631D01*
X72346609Y-36121980D01*
X72333271Y-36112486D01*
X72321434Y-36101167D01*
X72314365Y-36095701D01*
X72280351Y-36069772D01*
X72275112Y-36066534D01*
X72270523Y-36062428D01*
X72235210Y-36041527D01*
X72225142Y-36033683D01*
X72207986Y-36025046D01*
X72174101Y-36004103D01*
X72168336Y-36001945D01*
X72163035Y-35998808D01*
X72154911Y-35995085D01*
X72145501Y-35990852D01*
X72129068Y-35985315D01*
X72113576Y-35977516D01*
X72072790Y-35966188D01*
X72057118Y-35960323D01*
X72052775Y-35959610D01*
X72027133Y-35950971D01*
X72009938Y-35948732D01*
X71993226Y-35944090D01*
X71948121Y-35940681D01*
X71903273Y-35934840D01*
X71885969Y-35935983D01*
X71868675Y-35934676D01*
X71823773Y-35940092D01*
X71778638Y-35943074D01*
X71761882Y-35947558D01*
X71744667Y-35949634D01*
X71701668Y-35963669D01*
X71657977Y-35975360D01*
X71642418Y-35983009D01*
X71625927Y-35988392D01*
X71617769Y-35992038D01*
X71595867Y-36002009D01*
X71568427Y-36017901D01*
X71539585Y-36031076D01*
X71531890Y-36035618D01*
X71487047Y-36062510D01*
X71481399Y-36066697D01*
X71475106Y-36069849D01*
X71467578Y-36074665D01*
X71407099Y-36113949D01*
X71405386Y-36115317D01*
X71403445Y-36116340D01*
X71396019Y-36121311D01*
X71349488Y-36152930D01*
X71349374Y-36153025D01*
X71346385Y-36155051D01*
X71262696Y-36212640D01*
X71164392Y-36279897D01*
X71142832Y-36294580D01*
X71104705Y-36279306D01*
X71058207Y-36265770D01*
X71026998Y-36255176D01*
X71018240Y-36251947D01*
X71016821Y-36251721D01*
X71012310Y-36250190D01*
X71003594Y-36248219D01*
X70993386Y-36245984D01*
X70988083Y-36245356D01*
X70984777Y-36244394D01*
X70965947Y-36242736D01*
X70944014Y-36240141D01*
X70894885Y-36232326D01*
X70882074Y-36232810D01*
X70869345Y-36231303D01*
X70819778Y-36235161D01*
X70770067Y-36237037D01*
X70757589Y-36240001D01*
X70744816Y-36240995D01*
X70696940Y-36254407D01*
X70648542Y-36265903D01*
X70636884Y-36271231D01*
X70624540Y-36274689D01*
X70580177Y-36297148D01*
X70534938Y-36317823D01*
X70524533Y-36325317D01*
X70513100Y-36331105D01*
X70473941Y-36361755D01*
X70433583Y-36390822D01*
X70424835Y-36400190D01*
X70414741Y-36408091D01*
X70382289Y-36445754D01*
X70348336Y-36482115D01*
X70342954Y-36489248D01*
X70330680Y-36505752D01*
X70306505Y-36545925D01*
X70280400Y-36584863D01*
X70276227Y-36592765D01*
X70252011Y-36639405D01*
X70249343Y-36646061D01*
X70245568Y-36652160D01*
X70241685Y-36660208D01*
X70207335Y-36732681D01*
X70207065Y-36733434D01*
X70206654Y-36734122D01*
X70202903Y-36742233D01*
X70160228Y-36836236D01*
X70160184Y-36836365D01*
X70157676Y-36841931D01*
X70108482Y-36953163D01*
X70108433Y-36953313D01*
X70106734Y-36957153D01*
X70052830Y-37081311D01*
X70052785Y-37081451D01*
X70051475Y-37084455D01*
X69994669Y-37217238D01*
X69994626Y-37217373D01*
X69993505Y-37219978D01*
X69935603Y-37357083D01*
X69935564Y-37357208D01*
X69934495Y-37359722D01*
X69884701Y-37479115D01*
X69881906Y-37472346D01*
X69881840Y-37472222D01*
X69880776Y-37469628D01*
X69823272Y-37332177D01*
X69823207Y-37332056D01*
X69822170Y-37329560D01*
X69764313Y-37192970D01*
X69764246Y-37192846D01*
X69763130Y-37190196D01*
X69706727Y-37058766D01*
X69706656Y-37058638D01*
X69705329Y-37055532D01*
X69652188Y-36933564D01*
X69652115Y-36933433D01*
X69650343Y-36929368D01*
X69602275Y-36821165D01*
X69602216Y-36821061D01*
X69599497Y-36815000D01*
X69558308Y-36724860D01*
X69557574Y-36723596D01*
X69557089Y-36722206D01*
X69553281Y-36714122D01*
X69520780Y-36646347D01*
X69515726Y-36638009D01*
X69512111Y-36628951D01*
X69507949Y-36621043D01*
X69485945Y-36579936D01*
X69453656Y-36531629D01*
X69422024Y-36482879D01*
X69416540Y-36476103D01*
X69416533Y-36476092D01*
X69416525Y-36476084D01*
X69416402Y-36475932D01*
X69407541Y-36465136D01*
X69363910Y-36421472D01*
X69320362Y-36377695D01*
X69319764Y-36377292D01*
X69319253Y-36376781D01*
X69268034Y-36342464D01*
X69216750Y-36307936D01*
X69216082Y-36307656D01*
X69215485Y-36307256D01*
X69158451Y-36283489D01*
X69101562Y-36259633D01*
X69100860Y-36259489D01*
X69100189Y-36259210D01*
X69039584Y-36246966D01*
X68979186Y-36234622D01*
X68978462Y-36234618D01*
X68977756Y-36234475D01*
X68916078Y-36234236D01*
X68854281Y-36233859D01*
X68853572Y-36233995D01*
X68852851Y-36233992D01*
X68792408Y-36245717D01*
X68731608Y-36257369D01*
X68730305Y-36257764D01*
X68730231Y-36257778D01*
X68730154Y-36257809D01*
X68723056Y-36259959D01*
X68695980Y-36268366D01*
X68665382Y-36281259D01*
X68633731Y-36291294D01*
X68626399Y-36294496D01*
X68564672Y-36252380D01*
X68470688Y-36187949D01*
X68423336Y-36155315D01*
X68423277Y-36155282D01*
X68416940Y-36150963D01*
X68349694Y-36105807D01*
X68345081Y-36103325D01*
X68340977Y-36100055D01*
X68333444Y-36095248D01*
X68276503Y-36059464D01*
X68265566Y-36054000D01*
X68255612Y-36046883D01*
X68247839Y-36042474D01*
X68208629Y-36020593D01*
X68165628Y-36001839D01*
X68140889Y-35989580D01*
X68132570Y-35985072D01*
X68130486Y-35984425D01*
X68123601Y-35981013D01*
X68115223Y-35977905D01*
X68102488Y-35973280D01*
X68096813Y-35971827D01*
X68094137Y-35970660D01*
X68081041Y-35967789D01*
X68057588Y-35961785D01*
X68013284Y-35948026D01*
X67997168Y-35946317D01*
X67981484Y-35942302D01*
X67935208Y-35939748D01*
X67889073Y-35934856D01*
X67872931Y-35936310D01*
X67856768Y-35935418D01*
X67810873Y-35941901D01*
X67764671Y-35946063D01*
X67749126Y-35950623D01*
X67733089Y-35952888D01*
X67689307Y-35968169D01*
X67644815Y-35981220D01*
X67630453Y-35988711D01*
X67615160Y-35994049D01*
X67575197Y-36017533D01*
X67567245Y-36021681D01*
X67561730Y-36023992D01*
X67557988Y-36026510D01*
X67534069Y-36038986D01*
X67526622Y-36043925D01*
X67508086Y-36056403D01*
X67484008Y-36076285D01*
X67458098Y-36093718D01*
X67451246Y-36099455D01*
X67410222Y-36134287D01*
X67406910Y-36137709D01*
X67403034Y-36140482D01*
X67396350Y-36146414D01*
X67336817Y-36199988D01*
X67336588Y-36200238D01*
X67336307Y-36200446D01*
X67329713Y-36206477D01*
X67255647Y-36275172D01*
X67255575Y-36275253D01*
X67250607Y-36279897D01*
X67165983Y-36360099D01*
X67165875Y-36360224D01*
X67162496Y-36363430D01*
X67108976Y-36414925D01*
X67108901Y-36415013D01*
X67104167Y-36419600D01*
X67010533Y-36511600D01*
X67009873Y-36512390D01*
X67009073Y-36513039D01*
X67002764Y-36519366D01*
X66921842Y-36601653D01*
X66920147Y-36603752D01*
X66918089Y-36605501D01*
X66911922Y-36611968D01*
X66846986Y-36681022D01*
X66842521Y-36686812D01*
X66837123Y-36691752D01*
X66831198Y-36698442D01*
X66785517Y-36750743D01*
X66770982Y-36771094D01*
X66754159Y-36789606D01*
X66748874Y-36796812D01*
X66725721Y-36828839D01*
X66713447Y-36849875D01*
X66712623Y-36850865D01*
X66711011Y-36853825D01*
X66695027Y-36875455D01*
X66680239Y-36906788D01*
X66662772Y-36936724D01*
X66657378Y-36952334D01*
X66652896Y-36960566D01*
X66649042Y-36972889D01*
X66641716Y-36988412D01*
X66638768Y-36996848D01*
X66636546Y-37003348D01*
X66629669Y-37032519D01*
X66621977Y-37054780D01*
X66620825Y-37063118D01*
X66615615Y-37079779D01*
X66613150Y-37102594D01*
X66607887Y-37124921D01*
X66606459Y-37164533D01*
X66605166Y-37176497D01*
X66604888Y-37178511D01*
X66604909Y-37178875D01*
X66602199Y-37203962D01*
X66604213Y-37226820D01*
X66603386Y-37249746D01*
X66609681Y-37288895D01*
X66613160Y-37328387D01*
X66619573Y-37350411D01*
X66623216Y-37373069D01*
X66636995Y-37410247D01*
X66648078Y-37448312D01*
X66651460Y-37456584D01*
X66661768Y-37481306D01*
X66678265Y-37512028D01*
X66692047Y-37544068D01*
X66696417Y-37551863D01*
X66724902Y-37601852D01*
X66729150Y-37607858D01*
X66732307Y-37614509D01*
X66736962Y-37622138D01*
X66780464Y-37692330D01*
X66781770Y-37694040D01*
X66782735Y-37695968D01*
X66787546Y-37703498D01*
X66842906Y-37788835D01*
X66843259Y-37789278D01*
X66843526Y-37789791D01*
X66848456Y-37797244D01*
X66912512Y-37892663D01*
X66912605Y-37892776D01*
X66915828Y-37897553D01*
X66934045Y-37924155D01*
X66934076Y-37924192D01*
X66934465Y-37924767D01*
X66987758Y-38002397D01*
X66976828Y-38030410D01*
X66945053Y-38036378D01*
X66798562Y-38063280D01*
X66766953Y-38069045D01*
X66766838Y-38069078D01*
X66760380Y-38070279D01*
X66665312Y-38088646D01*
X66662635Y-38089441D01*
X66659853Y-38089725D01*
X66651107Y-38091558D01*
X66568227Y-38109527D01*
X66562900Y-38111241D01*
X66557345Y-38111985D01*
X66548661Y-38114092D01*
X66485296Y-38129928D01*
X66467847Y-38136152D01*
X66449700Y-38139924D01*
X66441189Y-38142648D01*
X66404661Y-38154617D01*
X66349944Y-38178684D01*
X66347118Y-38179899D01*
X66315172Y-38191990D01*
X66306656Y-38197297D01*
X66294967Y-38202323D01*
X66290469Y-38204844D01*
X66290326Y-38204907D01*
X66290201Y-38204994D01*
X66287172Y-38206692D01*
X66282273Y-38209482D01*
X66246433Y-38234827D01*
X66209165Y-38258052D01*
X66195533Y-38270822D01*
X66180291Y-38281601D01*
X66150060Y-38313421D01*
X66118009Y-38343446D01*
X66107117Y-38358621D01*
X66094259Y-38372155D01*
X66070776Y-38409253D01*
X66045176Y-38444920D01*
X66037443Y-38461912D01*
X66027453Y-38477694D01*
X66011624Y-38518645D01*
X65993438Y-38558606D01*
X65990608Y-38567082D01*
X65982537Y-38591820D01*
X65969897Y-38648982D01*
X65956547Y-38706045D01*
X65955583Y-38713713D01*
X65955568Y-38713780D01*
X65955567Y-38713841D01*
X65955432Y-38714912D01*
X65948872Y-38770194D01*
X65948606Y-38783245D01*
X65946330Y-38796105D01*
X65945701Y-38805020D01*
X65940655Y-38884420D01*
X65940800Y-38888661D01*
X65940175Y-38892856D01*
X65939789Y-38901784D01*
X65936263Y-38998877D01*
X65936339Y-39000112D01*
X65936177Y-39001349D01*
X65935950Y-39010282D01*
X65933948Y-39118640D01*
X65933956Y-39118739D01*
X65933944Y-39118841D01*
X65933845Y-39127776D01*
X65933371Y-39240788D01*
X65933370Y-39240796D01*
X30765909Y-39240796D01*
X30783065Y-38997281D01*
X30736405Y-38628975D01*
X30618789Y-38276849D01*
X30493315Y-38042104D01*
X30203377Y-37916229D01*
X29069605Y-39050000D01*
X28710395Y-39050000D01*
X27576623Y-37916229D01*
X27286685Y-38042104D01*
X27120861Y-38374262D01*
X27023025Y-38732387D01*
X26996935Y-39102719D01*
X22450000Y-39102719D01*
X22450000Y-37736623D01*
X27756229Y-37736623D01*
X28890000Y-38870395D01*
X30023771Y-37736623D01*
X29897896Y-37446685D01*
X29565738Y-37280861D01*
X29207613Y-37183025D01*
X28837281Y-37156935D01*
X28468975Y-37203595D01*
X28116849Y-37321211D01*
X27882104Y-37446685D01*
X27756229Y-37736623D01*
X22450000Y-37736623D01*
X22450000Y-33759721D01*
X31835000Y-33759721D01*
X31835000Y-34180279D01*
X31917047Y-34592756D01*
X32077988Y-34981302D01*
X32311637Y-35330983D01*
X32609017Y-35628363D01*
X32958698Y-35862012D01*
X33347244Y-36022953D01*
X33759721Y-36105000D01*
X34180279Y-36105000D01*
X34592756Y-36022953D01*
X34981302Y-35862012D01*
X35330983Y-35628363D01*
X35628363Y-35330983D01*
X35862012Y-34981302D01*
X36022953Y-34592756D01*
X36105000Y-34180279D01*
X36105000Y-33759721D01*
X41995000Y-33759721D01*
X41995000Y-34180279D01*
X42077047Y-34592756D01*
X42237988Y-34981302D01*
X42471637Y-35330983D01*
X42769017Y-35628363D01*
X43118698Y-35862012D01*
X43507244Y-36022953D01*
X43919721Y-36105000D01*
X44340279Y-36105000D01*
X44752756Y-36022953D01*
X45141302Y-35862012D01*
X45490983Y-35628363D01*
X45788363Y-35330983D01*
X46022012Y-34981302D01*
X46182953Y-34592756D01*
X46265000Y-34180279D01*
X46265000Y-33759721D01*
X52155000Y-33759721D01*
X52155000Y-34180279D01*
X52237047Y-34592756D01*
X52397988Y-34981302D01*
X52631637Y-35330983D01*
X52929017Y-35628363D01*
X53278698Y-35862012D01*
X53667244Y-36022953D01*
X54079721Y-36105000D01*
X54500279Y-36105000D01*
X54912756Y-36022953D01*
X55301302Y-35862012D01*
X55650983Y-35628363D01*
X55948363Y-35330983D01*
X56182012Y-34981302D01*
X56342953Y-34592756D01*
X56425000Y-34180279D01*
X56425000Y-33759721D01*
X62315000Y-33759721D01*
X62315000Y-34180279D01*
X62397047Y-34592756D01*
X62557988Y-34981302D01*
X62791637Y-35330983D01*
X63089017Y-35628363D01*
X63438698Y-35862012D01*
X63827244Y-36022953D01*
X64239721Y-36105000D01*
X64660279Y-36105000D01*
X65072756Y-36022953D01*
X65461302Y-35862012D01*
X65810983Y-35628363D01*
X66108363Y-35330983D01*
X66342012Y-34981302D01*
X66502953Y-34592756D01*
X66585000Y-34180279D01*
X66585000Y-33759721D01*
X72475000Y-33759721D01*
X72475000Y-34180279D01*
X72557047Y-34592756D01*
X72717988Y-34981302D01*
X72951637Y-35330983D01*
X73249017Y-35628363D01*
X73598698Y-35862012D01*
X73987244Y-36022953D01*
X74399721Y-36105000D01*
X74820279Y-36105000D01*
X75232756Y-36022953D01*
X75621302Y-35862012D01*
X75970983Y-35628363D01*
X76268363Y-35330983D01*
X76502012Y-34981302D01*
X76662953Y-34592756D01*
X76745000Y-34180279D01*
X76745000Y-33759721D01*
X76662953Y-33347244D01*
X76502012Y-32958698D01*
X76268363Y-32609017D01*
X75970983Y-32311637D01*
X75621302Y-32077988D01*
X75232756Y-31917047D01*
X74820279Y-31835000D01*
X74399721Y-31835000D01*
X73987244Y-31917047D01*
X73598698Y-32077988D01*
X73249017Y-32311637D01*
X72951637Y-32609017D01*
X72717988Y-32958698D01*
X72557047Y-33347244D01*
X72475000Y-33759721D01*
X66585000Y-33759721D01*
X66502953Y-33347244D01*
X66342012Y-32958698D01*
X66108363Y-32609017D01*
X65810983Y-32311637D01*
X65461302Y-32077988D01*
X65072756Y-31917047D01*
X64660279Y-31835000D01*
X64239721Y-31835000D01*
X63827244Y-31917047D01*
X63438698Y-32077988D01*
X63089017Y-32311637D01*
X62791637Y-32609017D01*
X62557988Y-32958698D01*
X62397047Y-33347244D01*
X62315000Y-33759721D01*
X56425000Y-33759721D01*
X56342953Y-33347244D01*
X56182012Y-32958698D01*
X55948363Y-32609017D01*
X55650983Y-32311637D01*
X55301302Y-32077988D01*
X54912756Y-31917047D01*
X54500279Y-31835000D01*
X54079721Y-31835000D01*
X53667244Y-31917047D01*
X53278698Y-32077988D01*
X52929017Y-32311637D01*
X52631637Y-32609017D01*
X52397988Y-32958698D01*
X52237047Y-33347244D01*
X52155000Y-33759721D01*
X46265000Y-33759721D01*
X46182953Y-33347244D01*
X46022012Y-32958698D01*
X45788363Y-32609017D01*
X45490983Y-32311637D01*
X45141302Y-32077988D01*
X44752756Y-31917047D01*
X44340279Y-31835000D01*
X43919721Y-31835000D01*
X43507244Y-31917047D01*
X43118698Y-32077988D01*
X42769017Y-32311637D01*
X42471637Y-32609017D01*
X42237988Y-32958698D01*
X42077047Y-33347244D01*
X41995000Y-33759721D01*
X36105000Y-33759721D01*
X36022953Y-33347244D01*
X35862012Y-32958698D01*
X35628363Y-32609017D01*
X35330983Y-32311637D01*
X34981302Y-32077988D01*
X34592756Y-31917047D01*
X34180279Y-31835000D01*
X33759721Y-31835000D01*
X33347244Y-31917047D01*
X32958698Y-32077988D01*
X32609017Y-32311637D01*
X32311637Y-32609017D01*
X32077988Y-32958698D01*
X31917047Y-33347244D01*
X31835000Y-33759721D01*
X22450000Y-33759721D01*
X22450000Y-24499721D01*
X23155000Y-24499721D01*
X23155000Y-24920279D01*
X23237047Y-25332756D01*
X23397988Y-25721302D01*
X23631637Y-26070983D01*
X23929017Y-26368363D01*
X24278698Y-26602012D01*
X24667244Y-26762953D01*
X25079721Y-26845000D01*
X25500279Y-26845000D01*
X25912756Y-26762953D01*
X26301302Y-26602012D01*
X26650983Y-26368363D01*
X26948363Y-26070983D01*
X27182012Y-25721302D01*
X27282708Y-25478200D01*
X60496800Y-25478200D01*
X60496800Y-29298200D01*
X80066800Y-29298200D01*
X80066800Y-25478200D01*
X60496800Y-25478200D01*
X27282708Y-25478200D01*
X27342953Y-25332756D01*
X27425000Y-24920279D01*
X27425000Y-24499721D01*
X81155000Y-24499721D01*
X81155000Y-24920279D01*
X81237047Y-25332756D01*
X81397988Y-25721302D01*
X81631637Y-26070983D01*
X81929017Y-26368363D01*
X82278698Y-26602012D01*
X82667244Y-26762953D01*
X83079721Y-26845000D01*
X83500279Y-26845000D01*
X83912756Y-26762953D01*
X84301302Y-26602012D01*
X84650983Y-26368363D01*
X84948363Y-26070983D01*
X85182012Y-25721302D01*
X85342953Y-25332756D01*
X85425000Y-24920279D01*
X85425000Y-24499721D01*
X85342953Y-24087244D01*
X85182012Y-23698698D01*
X84948363Y-23349017D01*
X84650983Y-23051637D01*
X84301302Y-22817988D01*
X83912756Y-22657047D01*
X83500279Y-22575000D01*
X83079721Y-22575000D01*
X82667244Y-22657047D01*
X82278698Y-22817988D01*
X81929017Y-23051637D01*
X81631637Y-23349017D01*
X81397988Y-23698698D01*
X81237047Y-24087244D01*
X81155000Y-24499721D01*
X27425000Y-24499721D01*
X27342953Y-24087244D01*
X27182012Y-23698698D01*
X26948363Y-23349017D01*
X26650983Y-23051637D01*
X26301302Y-22817988D01*
X25912756Y-22657047D01*
X25500279Y-22575000D01*
X25079721Y-22575000D01*
X24667244Y-22657047D01*
X24278698Y-22817988D01*
X23929017Y-23051637D01*
X23631637Y-23349017D01*
X23397988Y-23698698D01*
X23237047Y-24087244D01*
X23155000Y-24499721D01*
X22450000Y-24499721D01*
X22450000Y-21870000D01*
X86130000Y-21870000D01*
X86130001Y-76550000D01*
M02*
