G04 #@! TF.GenerationSoftware,KiCad,Pcbnew,5.1.5-52549c5~86~ubuntu18.04.1*
G04 #@! TF.CreationDate,2020-08-28T16:47:41-05:00*
G04 #@! TF.ProjectId,A04,4130342e-6b69-4636-9164-5f7063625858,rev?*
G04 #@! TF.SameCoordinates,Original*
G04 #@! TF.FileFunction,Legend,Bot*
G04 #@! TF.FilePolarity,Positive*
%FSLAX46Y46*%
G04 Gerber Fmt 4.6, Leading zero omitted, Abs format (unit mm)*
G04 Created by KiCad (PCBNEW 5.1.5-52549c5~86~ubuntu18.04.1) date 2020-08-28 16:47:41*
%MOMM*%
%LPD*%
G04 APERTURE LIST*
%ADD10C,0.150000*%
%ADD11C,0.010000*%
G04 APERTURE END LIST*
D10*
X30528714Y-27258200D02*
X31243000Y-27258200D01*
X30385857Y-26829628D02*
X30885857Y-28329628D01*
X31385857Y-26829628D01*
X32171571Y-28329628D02*
X32314428Y-28329628D01*
X32457285Y-28258200D01*
X32528714Y-28186771D01*
X32600142Y-28043914D01*
X32671571Y-27758200D01*
X32671571Y-27401057D01*
X32600142Y-27115342D01*
X32528714Y-26972485D01*
X32457285Y-26901057D01*
X32314428Y-26829628D01*
X32171571Y-26829628D01*
X32028714Y-26901057D01*
X31957285Y-26972485D01*
X31885857Y-27115342D01*
X31814428Y-27401057D01*
X31814428Y-27758200D01*
X31885857Y-28043914D01*
X31957285Y-28186771D01*
X32028714Y-28258200D01*
X32171571Y-28329628D01*
X33957285Y-27829628D02*
X33957285Y-26829628D01*
X33600142Y-28401057D02*
X33243000Y-27329628D01*
X34171571Y-27329628D01*
X34385857Y-26686771D02*
X35528714Y-26686771D01*
X36385857Y-27615342D02*
X36600142Y-27543914D01*
X36671571Y-27472485D01*
X36743000Y-27329628D01*
X36743000Y-27115342D01*
X36671571Y-26972485D01*
X36600142Y-26901057D01*
X36457285Y-26829628D01*
X35885857Y-26829628D01*
X35885857Y-28329628D01*
X36385857Y-28329628D01*
X36528714Y-28258200D01*
X36600142Y-28186771D01*
X36671571Y-28043914D01*
X36671571Y-27901057D01*
X36600142Y-27758200D01*
X36528714Y-27686771D01*
X36385857Y-27615342D01*
X35885857Y-27615342D01*
X37314428Y-27258200D02*
X38028714Y-27258200D01*
X37171571Y-26829628D02*
X37671571Y-28329628D01*
X38171571Y-26829628D01*
X39528714Y-26972485D02*
X39457285Y-26901057D01*
X39243000Y-26829628D01*
X39100142Y-26829628D01*
X38885857Y-26901057D01*
X38743000Y-27043914D01*
X38671571Y-27186771D01*
X38600142Y-27472485D01*
X38600142Y-27686771D01*
X38671571Y-27972485D01*
X38743000Y-28115342D01*
X38885857Y-28258200D01*
X39100142Y-28329628D01*
X39243000Y-28329628D01*
X39457285Y-28258200D01*
X39528714Y-28186771D01*
X40171571Y-26829628D02*
X40171571Y-28329628D01*
X41028714Y-26829628D02*
X40385857Y-27686771D01*
X41028714Y-28329628D02*
X40171571Y-27472485D01*
X41671571Y-26829628D02*
X41671571Y-28329628D01*
X42243000Y-28329628D01*
X42385857Y-28258200D01*
X42457285Y-28186771D01*
X42528714Y-28043914D01*
X42528714Y-27829628D01*
X42457285Y-27686771D01*
X42385857Y-27615342D01*
X42243000Y-27543914D01*
X41671571Y-27543914D01*
X43100142Y-27258200D02*
X43814428Y-27258200D01*
X42957285Y-26829628D02*
X43457285Y-28329628D01*
X43957285Y-26829628D01*
X44457285Y-26829628D02*
X44457285Y-28329628D01*
X45314428Y-26829628D01*
X45314428Y-28329628D01*
X46028714Y-27615342D02*
X46528714Y-27615342D01*
X46743000Y-26829628D02*
X46028714Y-26829628D01*
X46028714Y-28329628D01*
X46743000Y-28329628D01*
X48100142Y-26829628D02*
X47385857Y-26829628D01*
X47385857Y-28329628D01*
D11*
G36*
X39392414Y-42053469D02*
G01*
X39476235Y-41608845D01*
X39785520Y-41481347D01*
X40094806Y-41353849D01*
X40465846Y-41606154D01*
X40569757Y-41676404D01*
X40663687Y-41739128D01*
X40743252Y-41791462D01*
X40804070Y-41830543D01*
X40841757Y-41853507D01*
X40852021Y-41858458D01*
X40870510Y-41845724D01*
X40910020Y-41810518D01*
X40966122Y-41757338D01*
X41034387Y-41690682D01*
X41110386Y-41615046D01*
X41189692Y-41534928D01*
X41267875Y-41454826D01*
X41340507Y-41379236D01*
X41403159Y-41312655D01*
X41451403Y-41259582D01*
X41480810Y-41224513D01*
X41487841Y-41212777D01*
X41477723Y-41191140D01*
X41449359Y-41143738D01*
X41405729Y-41075207D01*
X41349818Y-40990185D01*
X41284606Y-40893307D01*
X41246819Y-40838050D01*
X41177943Y-40737152D01*
X41116740Y-40646101D01*
X41066178Y-40569430D01*
X41029228Y-40511672D01*
X41008858Y-40477357D01*
X41005797Y-40470146D01*
X41012736Y-40449652D01*
X41031651Y-40401887D01*
X41059687Y-40333568D01*
X41093991Y-40251411D01*
X41131709Y-40162130D01*
X41169987Y-40072442D01*
X41205970Y-39989062D01*
X41236806Y-39918706D01*
X41259639Y-39868090D01*
X41271617Y-39843929D01*
X41272324Y-39842978D01*
X41291131Y-39838364D01*
X41341218Y-39828072D01*
X41417393Y-39813113D01*
X41514465Y-39794499D01*
X41627243Y-39773241D01*
X41693042Y-39760982D01*
X41813550Y-39738038D01*
X41922397Y-39716205D01*
X42014076Y-39696678D01*
X42083081Y-39680652D01*
X42123904Y-39669321D01*
X42132111Y-39665726D01*
X42140148Y-39641394D01*
X42146633Y-39586441D01*
X42151570Y-39507292D01*
X42154964Y-39410374D01*
X42156818Y-39302113D01*
X42157138Y-39188935D01*
X42155927Y-39077265D01*
X42153190Y-38973532D01*
X42148931Y-38884159D01*
X42143155Y-38815574D01*
X42135867Y-38774203D01*
X42131495Y-38765590D01*
X42105364Y-38755267D01*
X42049993Y-38740508D01*
X41972707Y-38723048D01*
X41880830Y-38704620D01*
X41848758Y-38698659D01*
X41694124Y-38670334D01*
X41571975Y-38647524D01*
X41478273Y-38629320D01*
X41408984Y-38614817D01*
X41360071Y-38603108D01*
X41327497Y-38593285D01*
X41307228Y-38584444D01*
X41295226Y-38575676D01*
X41293547Y-38573943D01*
X41276784Y-38546029D01*
X41251214Y-38491705D01*
X41219388Y-38417623D01*
X41183860Y-38330435D01*
X41147183Y-38236792D01*
X41111911Y-38143348D01*
X41080596Y-38056753D01*
X41055793Y-37983660D01*
X41040054Y-37930722D01*
X41035932Y-37904589D01*
X41036276Y-37903674D01*
X41050241Y-37882314D01*
X41081922Y-37835316D01*
X41127991Y-37767573D01*
X41185118Y-37683977D01*
X41249973Y-37589418D01*
X41268443Y-37562546D01*
X41334299Y-37465125D01*
X41392250Y-37376237D01*
X41439138Y-37300988D01*
X41471807Y-37244480D01*
X41487100Y-37211819D01*
X41487841Y-37207807D01*
X41474992Y-37186716D01*
X41439488Y-37144936D01*
X41385893Y-37086955D01*
X41318771Y-37017265D01*
X41242687Y-36940355D01*
X41162204Y-36860717D01*
X41081887Y-36782839D01*
X41006299Y-36711214D01*
X40940005Y-36650330D01*
X40887569Y-36604679D01*
X40853555Y-36578750D01*
X40844145Y-36574517D01*
X40822243Y-36584488D01*
X40777400Y-36611380D01*
X40716921Y-36650664D01*
X40670389Y-36682283D01*
X40586075Y-36740302D01*
X40486226Y-36808616D01*
X40386073Y-36876821D01*
X40332227Y-36913325D01*
X40149971Y-37036600D01*
X39996981Y-36953880D01*
X39927282Y-36917641D01*
X39868014Y-36889474D01*
X39827911Y-36873409D01*
X39817703Y-36871174D01*
X39805429Y-36887678D01*
X39781213Y-36934318D01*
X39746863Y-37006791D01*
X39704188Y-37100794D01*
X39654994Y-37212026D01*
X39601090Y-37336185D01*
X39544284Y-37468968D01*
X39486382Y-37606073D01*
X39429193Y-37743198D01*
X39374524Y-37876042D01*
X39324184Y-38000302D01*
X39279980Y-38111675D01*
X39243719Y-38205861D01*
X39217209Y-38278556D01*
X39202258Y-38325459D01*
X39199854Y-38341567D01*
X39218911Y-38362114D01*
X39260636Y-38395467D01*
X39316306Y-38434698D01*
X39320978Y-38437801D01*
X39464864Y-38552977D01*
X39580883Y-38687347D01*
X39668030Y-38836616D01*
X39725299Y-38996487D01*
X39751686Y-39162663D01*
X39746185Y-39330848D01*
X39707790Y-39496745D01*
X39635495Y-39656058D01*
X39614226Y-39690913D01*
X39503596Y-39831663D01*
X39372902Y-39944686D01*
X39226664Y-40029397D01*
X39069408Y-40085206D01*
X38905657Y-40111526D01*
X38739933Y-40107770D01*
X38576762Y-40073350D01*
X38420665Y-40007677D01*
X38276167Y-39910165D01*
X38231469Y-39870587D01*
X38117712Y-39746697D01*
X38034818Y-39616276D01*
X37977956Y-39470085D01*
X37946287Y-39325312D01*
X37938469Y-39162540D01*
X37964538Y-38998960D01*
X38021845Y-38840102D01*
X38107744Y-38691494D01*
X38219586Y-38558665D01*
X38354723Y-38447144D01*
X38372483Y-38435389D01*
X38428750Y-38396892D01*
X38471523Y-38363537D01*
X38491972Y-38342240D01*
X38492269Y-38341567D01*
X38487879Y-38318529D01*
X38470476Y-38266243D01*
X38441868Y-38189010D01*
X38403865Y-38091132D01*
X38358274Y-37976909D01*
X38306903Y-37850642D01*
X38251562Y-37716633D01*
X38194058Y-37579182D01*
X38136201Y-37442592D01*
X38079798Y-37311163D01*
X38026658Y-37189195D01*
X37978590Y-37080991D01*
X37937401Y-36990851D01*
X37904901Y-36923077D01*
X37882897Y-36881970D01*
X37874036Y-36871174D01*
X37846960Y-36879581D01*
X37796297Y-36902128D01*
X37730783Y-36934787D01*
X37694759Y-36953880D01*
X37541768Y-37036600D01*
X37359512Y-36913325D01*
X37266475Y-36850172D01*
X37164615Y-36780673D01*
X37069162Y-36715235D01*
X37021350Y-36682283D01*
X36954105Y-36637127D01*
X36897164Y-36601343D01*
X36857954Y-36579462D01*
X36845219Y-36574837D01*
X36826683Y-36587315D01*
X36785659Y-36622148D01*
X36726125Y-36675722D01*
X36652058Y-36744417D01*
X36567435Y-36824619D01*
X36513915Y-36876114D01*
X36420281Y-36968114D01*
X36339359Y-37050401D01*
X36274423Y-37119455D01*
X36228742Y-37171756D01*
X36205589Y-37203784D01*
X36203368Y-37210284D01*
X36213676Y-37235006D01*
X36242161Y-37284995D01*
X36285663Y-37355188D01*
X36341023Y-37440525D01*
X36405080Y-37535944D01*
X36423297Y-37562546D01*
X36489673Y-37659233D01*
X36549222Y-37746283D01*
X36598616Y-37818805D01*
X36634525Y-37871907D01*
X36653619Y-37900697D01*
X36655464Y-37903674D01*
X36652705Y-37926618D01*
X36638062Y-37977064D01*
X36614087Y-38048359D01*
X36583334Y-38133853D01*
X36548356Y-38226893D01*
X36511707Y-38320826D01*
X36475939Y-38409001D01*
X36443606Y-38484766D01*
X36417262Y-38541469D01*
X36399458Y-38572457D01*
X36398193Y-38573943D01*
X36387306Y-38582799D01*
X36368918Y-38591557D01*
X36338994Y-38601123D01*
X36293497Y-38612404D01*
X36228391Y-38626307D01*
X36139639Y-38643737D01*
X36023207Y-38665602D01*
X35875058Y-38692809D01*
X35842982Y-38698659D01*
X35747914Y-38717026D01*
X35665035Y-38734995D01*
X35601670Y-38750831D01*
X35565142Y-38762800D01*
X35560244Y-38765590D01*
X35552173Y-38790328D01*
X35545613Y-38845610D01*
X35540567Y-38925011D01*
X35537041Y-39022104D01*
X35535039Y-39130462D01*
X35534564Y-39243660D01*
X35535623Y-39355272D01*
X35538218Y-39458871D01*
X35542354Y-39548032D01*
X35548037Y-39616328D01*
X35555269Y-39657334D01*
X35559629Y-39665726D01*
X35583902Y-39674192D01*
X35639174Y-39687965D01*
X35719938Y-39705850D01*
X35820688Y-39726652D01*
X35935917Y-39749177D01*
X35998698Y-39760982D01*
X36117813Y-39783249D01*
X36224035Y-39803421D01*
X36312173Y-39820485D01*
X36377034Y-39833431D01*
X36413426Y-39841245D01*
X36419416Y-39842978D01*
X36429539Y-39862510D01*
X36450938Y-39909557D01*
X36480761Y-39977397D01*
X36516155Y-40059309D01*
X36554268Y-40148572D01*
X36592247Y-40238465D01*
X36627240Y-40322265D01*
X36656394Y-40393253D01*
X36676857Y-40444706D01*
X36685777Y-40469903D01*
X36685943Y-40471004D01*
X36675831Y-40490881D01*
X36647483Y-40536623D01*
X36603877Y-40603683D01*
X36547994Y-40687516D01*
X36482813Y-40783574D01*
X36444921Y-40838750D01*
X36375875Y-40939919D01*
X36314550Y-41031770D01*
X36263937Y-41109656D01*
X36227029Y-41168931D01*
X36206818Y-41204949D01*
X36203899Y-41213023D01*
X36216447Y-41231816D01*
X36251137Y-41271943D01*
X36303537Y-41328907D01*
X36369216Y-41398215D01*
X36443744Y-41475369D01*
X36522687Y-41555875D01*
X36601617Y-41635237D01*
X36676100Y-41708960D01*
X36741706Y-41772548D01*
X36794004Y-41821506D01*
X36828561Y-41851339D01*
X36840122Y-41858458D01*
X36858946Y-41848447D01*
X36903969Y-41820322D01*
X36970813Y-41776946D01*
X37055101Y-41721182D01*
X37152456Y-41655894D01*
X37225893Y-41606154D01*
X37596933Y-41353849D01*
X38215505Y-41608845D01*
X38299325Y-42053469D01*
X38383146Y-42498093D01*
X39308594Y-42498093D01*
X39392414Y-42053469D01*
G37*
X39392414Y-42053469D02*
X39476235Y-41608845D01*
X39785520Y-41481347D01*
X40094806Y-41353849D01*
X40465846Y-41606154D01*
X40569757Y-41676404D01*
X40663687Y-41739128D01*
X40743252Y-41791462D01*
X40804070Y-41830543D01*
X40841757Y-41853507D01*
X40852021Y-41858458D01*
X40870510Y-41845724D01*
X40910020Y-41810518D01*
X40966122Y-41757338D01*
X41034387Y-41690682D01*
X41110386Y-41615046D01*
X41189692Y-41534928D01*
X41267875Y-41454826D01*
X41340507Y-41379236D01*
X41403159Y-41312655D01*
X41451403Y-41259582D01*
X41480810Y-41224513D01*
X41487841Y-41212777D01*
X41477723Y-41191140D01*
X41449359Y-41143738D01*
X41405729Y-41075207D01*
X41349818Y-40990185D01*
X41284606Y-40893307D01*
X41246819Y-40838050D01*
X41177943Y-40737152D01*
X41116740Y-40646101D01*
X41066178Y-40569430D01*
X41029228Y-40511672D01*
X41008858Y-40477357D01*
X41005797Y-40470146D01*
X41012736Y-40449652D01*
X41031651Y-40401887D01*
X41059687Y-40333568D01*
X41093991Y-40251411D01*
X41131709Y-40162130D01*
X41169987Y-40072442D01*
X41205970Y-39989062D01*
X41236806Y-39918706D01*
X41259639Y-39868090D01*
X41271617Y-39843929D01*
X41272324Y-39842978D01*
X41291131Y-39838364D01*
X41341218Y-39828072D01*
X41417393Y-39813113D01*
X41514465Y-39794499D01*
X41627243Y-39773241D01*
X41693042Y-39760982D01*
X41813550Y-39738038D01*
X41922397Y-39716205D01*
X42014076Y-39696678D01*
X42083081Y-39680652D01*
X42123904Y-39669321D01*
X42132111Y-39665726D01*
X42140148Y-39641394D01*
X42146633Y-39586441D01*
X42151570Y-39507292D01*
X42154964Y-39410374D01*
X42156818Y-39302113D01*
X42157138Y-39188935D01*
X42155927Y-39077265D01*
X42153190Y-38973532D01*
X42148931Y-38884159D01*
X42143155Y-38815574D01*
X42135867Y-38774203D01*
X42131495Y-38765590D01*
X42105364Y-38755267D01*
X42049993Y-38740508D01*
X41972707Y-38723048D01*
X41880830Y-38704620D01*
X41848758Y-38698659D01*
X41694124Y-38670334D01*
X41571975Y-38647524D01*
X41478273Y-38629320D01*
X41408984Y-38614817D01*
X41360071Y-38603108D01*
X41327497Y-38593285D01*
X41307228Y-38584444D01*
X41295226Y-38575676D01*
X41293547Y-38573943D01*
X41276784Y-38546029D01*
X41251214Y-38491705D01*
X41219388Y-38417623D01*
X41183860Y-38330435D01*
X41147183Y-38236792D01*
X41111911Y-38143348D01*
X41080596Y-38056753D01*
X41055793Y-37983660D01*
X41040054Y-37930722D01*
X41035932Y-37904589D01*
X41036276Y-37903674D01*
X41050241Y-37882314D01*
X41081922Y-37835316D01*
X41127991Y-37767573D01*
X41185118Y-37683977D01*
X41249973Y-37589418D01*
X41268443Y-37562546D01*
X41334299Y-37465125D01*
X41392250Y-37376237D01*
X41439138Y-37300988D01*
X41471807Y-37244480D01*
X41487100Y-37211819D01*
X41487841Y-37207807D01*
X41474992Y-37186716D01*
X41439488Y-37144936D01*
X41385893Y-37086955D01*
X41318771Y-37017265D01*
X41242687Y-36940355D01*
X41162204Y-36860717D01*
X41081887Y-36782839D01*
X41006299Y-36711214D01*
X40940005Y-36650330D01*
X40887569Y-36604679D01*
X40853555Y-36578750D01*
X40844145Y-36574517D01*
X40822243Y-36584488D01*
X40777400Y-36611380D01*
X40716921Y-36650664D01*
X40670389Y-36682283D01*
X40586075Y-36740302D01*
X40486226Y-36808616D01*
X40386073Y-36876821D01*
X40332227Y-36913325D01*
X40149971Y-37036600D01*
X39996981Y-36953880D01*
X39927282Y-36917641D01*
X39868014Y-36889474D01*
X39827911Y-36873409D01*
X39817703Y-36871174D01*
X39805429Y-36887678D01*
X39781213Y-36934318D01*
X39746863Y-37006791D01*
X39704188Y-37100794D01*
X39654994Y-37212026D01*
X39601090Y-37336185D01*
X39544284Y-37468968D01*
X39486382Y-37606073D01*
X39429193Y-37743198D01*
X39374524Y-37876042D01*
X39324184Y-38000302D01*
X39279980Y-38111675D01*
X39243719Y-38205861D01*
X39217209Y-38278556D01*
X39202258Y-38325459D01*
X39199854Y-38341567D01*
X39218911Y-38362114D01*
X39260636Y-38395467D01*
X39316306Y-38434698D01*
X39320978Y-38437801D01*
X39464864Y-38552977D01*
X39580883Y-38687347D01*
X39668030Y-38836616D01*
X39725299Y-38996487D01*
X39751686Y-39162663D01*
X39746185Y-39330848D01*
X39707790Y-39496745D01*
X39635495Y-39656058D01*
X39614226Y-39690913D01*
X39503596Y-39831663D01*
X39372902Y-39944686D01*
X39226664Y-40029397D01*
X39069408Y-40085206D01*
X38905657Y-40111526D01*
X38739933Y-40107770D01*
X38576762Y-40073350D01*
X38420665Y-40007677D01*
X38276167Y-39910165D01*
X38231469Y-39870587D01*
X38117712Y-39746697D01*
X38034818Y-39616276D01*
X37977956Y-39470085D01*
X37946287Y-39325312D01*
X37938469Y-39162540D01*
X37964538Y-38998960D01*
X38021845Y-38840102D01*
X38107744Y-38691494D01*
X38219586Y-38558665D01*
X38354723Y-38447144D01*
X38372483Y-38435389D01*
X38428750Y-38396892D01*
X38471523Y-38363537D01*
X38491972Y-38342240D01*
X38492269Y-38341567D01*
X38487879Y-38318529D01*
X38470476Y-38266243D01*
X38441868Y-38189010D01*
X38403865Y-38091132D01*
X38358274Y-37976909D01*
X38306903Y-37850642D01*
X38251562Y-37716633D01*
X38194058Y-37579182D01*
X38136201Y-37442592D01*
X38079798Y-37311163D01*
X38026658Y-37189195D01*
X37978590Y-37080991D01*
X37937401Y-36990851D01*
X37904901Y-36923077D01*
X37882897Y-36881970D01*
X37874036Y-36871174D01*
X37846960Y-36879581D01*
X37796297Y-36902128D01*
X37730783Y-36934787D01*
X37694759Y-36953880D01*
X37541768Y-37036600D01*
X37359512Y-36913325D01*
X37266475Y-36850172D01*
X37164615Y-36780673D01*
X37069162Y-36715235D01*
X37021350Y-36682283D01*
X36954105Y-36637127D01*
X36897164Y-36601343D01*
X36857954Y-36579462D01*
X36845219Y-36574837D01*
X36826683Y-36587315D01*
X36785659Y-36622148D01*
X36726125Y-36675722D01*
X36652058Y-36744417D01*
X36567435Y-36824619D01*
X36513915Y-36876114D01*
X36420281Y-36968114D01*
X36339359Y-37050401D01*
X36274423Y-37119455D01*
X36228742Y-37171756D01*
X36205589Y-37203784D01*
X36203368Y-37210284D01*
X36213676Y-37235006D01*
X36242161Y-37284995D01*
X36285663Y-37355188D01*
X36341023Y-37440525D01*
X36405080Y-37535944D01*
X36423297Y-37562546D01*
X36489673Y-37659233D01*
X36549222Y-37746283D01*
X36598616Y-37818805D01*
X36634525Y-37871907D01*
X36653619Y-37900697D01*
X36655464Y-37903674D01*
X36652705Y-37926618D01*
X36638062Y-37977064D01*
X36614087Y-38048359D01*
X36583334Y-38133853D01*
X36548356Y-38226893D01*
X36511707Y-38320826D01*
X36475939Y-38409001D01*
X36443606Y-38484766D01*
X36417262Y-38541469D01*
X36399458Y-38572457D01*
X36398193Y-38573943D01*
X36387306Y-38582799D01*
X36368918Y-38591557D01*
X36338994Y-38601123D01*
X36293497Y-38612404D01*
X36228391Y-38626307D01*
X36139639Y-38643737D01*
X36023207Y-38665602D01*
X35875058Y-38692809D01*
X35842982Y-38698659D01*
X35747914Y-38717026D01*
X35665035Y-38734995D01*
X35601670Y-38750831D01*
X35565142Y-38762800D01*
X35560244Y-38765590D01*
X35552173Y-38790328D01*
X35545613Y-38845610D01*
X35540567Y-38925011D01*
X35537041Y-39022104D01*
X35535039Y-39130462D01*
X35534564Y-39243660D01*
X35535623Y-39355272D01*
X35538218Y-39458871D01*
X35542354Y-39548032D01*
X35548037Y-39616328D01*
X35555269Y-39657334D01*
X35559629Y-39665726D01*
X35583902Y-39674192D01*
X35639174Y-39687965D01*
X35719938Y-39705850D01*
X35820688Y-39726652D01*
X35935917Y-39749177D01*
X35998698Y-39760982D01*
X36117813Y-39783249D01*
X36224035Y-39803421D01*
X36312173Y-39820485D01*
X36377034Y-39833431D01*
X36413426Y-39841245D01*
X36419416Y-39842978D01*
X36429539Y-39862510D01*
X36450938Y-39909557D01*
X36480761Y-39977397D01*
X36516155Y-40059309D01*
X36554268Y-40148572D01*
X36592247Y-40238465D01*
X36627240Y-40322265D01*
X36656394Y-40393253D01*
X36676857Y-40444706D01*
X36685777Y-40469903D01*
X36685943Y-40471004D01*
X36675831Y-40490881D01*
X36647483Y-40536623D01*
X36603877Y-40603683D01*
X36547994Y-40687516D01*
X36482813Y-40783574D01*
X36444921Y-40838750D01*
X36375875Y-40939919D01*
X36314550Y-41031770D01*
X36263937Y-41109656D01*
X36227029Y-41168931D01*
X36206818Y-41204949D01*
X36203899Y-41213023D01*
X36216447Y-41231816D01*
X36251137Y-41271943D01*
X36303537Y-41328907D01*
X36369216Y-41398215D01*
X36443744Y-41475369D01*
X36522687Y-41555875D01*
X36601617Y-41635237D01*
X36676100Y-41708960D01*
X36741706Y-41772548D01*
X36794004Y-41821506D01*
X36828561Y-41851339D01*
X36840122Y-41858458D01*
X36858946Y-41848447D01*
X36903969Y-41820322D01*
X36970813Y-41776946D01*
X37055101Y-41721182D01*
X37152456Y-41655894D01*
X37225893Y-41606154D01*
X37596933Y-41353849D01*
X38215505Y-41608845D01*
X38299325Y-42053469D01*
X38383146Y-42498093D01*
X39308594Y-42498093D01*
X39392414Y-42053469D01*
M02*
