G04 #@! TF.GenerationSoftware,KiCad,Pcbnew,6.0.11-2627ca5db0~126~ubuntu20.04.1*
G04 #@! TF.CreationDate,2023-03-25T11:58:24-05:00*
G04 #@! TF.ProjectId,A07,4130372e-6b69-4636-9164-5f7063625858,rev?*
G04 #@! TF.SameCoordinates,Original*
G04 #@! TF.FileFunction,Copper,L2,Bot*
G04 #@! TF.FilePolarity,Positive*
%FSLAX46Y46*%
G04 Gerber Fmt 4.6, Leading zero omitted, Abs format (unit mm)*
G04 Created by KiCad (PCBNEW 6.0.11-2627ca5db0~126~ubuntu20.04.1) date 2023-03-25 11:58:24*
%MOMM*%
%LPD*%
G01*
G04 APERTURE LIST*
G04 #@! TA.AperFunction,Profile*
%ADD10C,0.050000*%
G04 #@! TD*
%ADD11C,0.300000*%
G04 #@! TA.AperFunction,NonConductor*
%ADD12C,0.300000*%
G04 #@! TD*
G04 #@! TA.AperFunction,EtchedComponent*
%ADD13C,0.010000*%
G04 #@! TD*
G04 #@! TA.AperFunction,ComponentPad*
%ADD14C,2.499360*%
G04 #@! TD*
G04 APERTURE END LIST*
D10*
X70790000Y-21210000D02*
X70790000Y-68210000D01*
X21790000Y-21210000D02*
X70790000Y-21210000D01*
X21790000Y-68210000D02*
X70790000Y-68210000D01*
X21790000Y-21210000D02*
X21790000Y-68210000D01*
D11*
D12*
X37513714Y-23626000D02*
X38228000Y-23626000D01*
X37370857Y-23197428D02*
X37870857Y-24697428D01*
X38370857Y-23197428D01*
X39156571Y-24697428D02*
X39299428Y-24697428D01*
X39442285Y-24626000D01*
X39513714Y-24554571D01*
X39585142Y-24411714D01*
X39656571Y-24126000D01*
X39656571Y-23768857D01*
X39585142Y-23483142D01*
X39513714Y-23340285D01*
X39442285Y-23268857D01*
X39299428Y-23197428D01*
X39156571Y-23197428D01*
X39013714Y-23268857D01*
X38942285Y-23340285D01*
X38870857Y-23483142D01*
X38799428Y-23768857D01*
X38799428Y-24126000D01*
X38870857Y-24411714D01*
X38942285Y-24554571D01*
X39013714Y-24626000D01*
X39156571Y-24697428D01*
X40156571Y-24697428D02*
X41156571Y-24697428D01*
X40513714Y-23197428D01*
X41370857Y-23054571D02*
X42513714Y-23054571D01*
X43370857Y-23983142D02*
X43585142Y-23911714D01*
X43656571Y-23840285D01*
X43728000Y-23697428D01*
X43728000Y-23483142D01*
X43656571Y-23340285D01*
X43585142Y-23268857D01*
X43442285Y-23197428D01*
X42870857Y-23197428D01*
X42870857Y-24697428D01*
X43370857Y-24697428D01*
X43513714Y-24626000D01*
X43585142Y-24554571D01*
X43656571Y-24411714D01*
X43656571Y-24268857D01*
X43585142Y-24126000D01*
X43513714Y-24054571D01*
X43370857Y-23983142D01*
X42870857Y-23983142D01*
X44299428Y-23626000D02*
X45013714Y-23626000D01*
X44156571Y-23197428D02*
X44656571Y-24697428D01*
X45156571Y-23197428D01*
X46513714Y-23340285D02*
X46442285Y-23268857D01*
X46228000Y-23197428D01*
X46085142Y-23197428D01*
X45870857Y-23268857D01*
X45728000Y-23411714D01*
X45656571Y-23554571D01*
X45585142Y-23840285D01*
X45585142Y-24054571D01*
X45656571Y-24340285D01*
X45728000Y-24483142D01*
X45870857Y-24626000D01*
X46085142Y-24697428D01*
X46228000Y-24697428D01*
X46442285Y-24626000D01*
X46513714Y-24554571D01*
X47156571Y-23197428D02*
X47156571Y-24697428D01*
X48013714Y-23197428D02*
X47370857Y-24054571D01*
X48013714Y-24697428D02*
X47156571Y-23840285D01*
X48656571Y-23197428D02*
X48656571Y-24697428D01*
X49228000Y-24697428D01*
X49370857Y-24626000D01*
X49442285Y-24554571D01*
X49513714Y-24411714D01*
X49513714Y-24197428D01*
X49442285Y-24054571D01*
X49370857Y-23983142D01*
X49228000Y-23911714D01*
X48656571Y-23911714D01*
X50085142Y-23626000D02*
X50799428Y-23626000D01*
X49942285Y-23197428D02*
X50442285Y-24697428D01*
X50942285Y-23197428D01*
X51442285Y-23197428D02*
X51442285Y-24697428D01*
X52299428Y-23197428D01*
X52299428Y-24697428D01*
X53013714Y-23983142D02*
X53513714Y-23983142D01*
X53728000Y-23197428D02*
X53013714Y-23197428D01*
X53013714Y-24697428D01*
X53728000Y-24697428D01*
X55085142Y-23197428D02*
X54370857Y-23197428D01*
X54370857Y-24697428D01*
G36*
X58404955Y-41252350D02*
G01*
X58438969Y-41278279D01*
X58491405Y-41323930D01*
X58557699Y-41384814D01*
X58633287Y-41456439D01*
X58713604Y-41534317D01*
X58794087Y-41613955D01*
X58870171Y-41690865D01*
X58937293Y-41760555D01*
X58990888Y-41818536D01*
X59026392Y-41860316D01*
X59039241Y-41881407D01*
X59038500Y-41885419D01*
X59023207Y-41918080D01*
X58990538Y-41974588D01*
X58943650Y-42049837D01*
X58885699Y-42138725D01*
X58819843Y-42236146D01*
X58801373Y-42263018D01*
X58736518Y-42357577D01*
X58679391Y-42441173D01*
X58633322Y-42508916D01*
X58601641Y-42555914D01*
X58587676Y-42577274D01*
X58587332Y-42578189D01*
X58591454Y-42604322D01*
X58607193Y-42657260D01*
X58631996Y-42730353D01*
X58663311Y-42816948D01*
X58698583Y-42910392D01*
X58735260Y-43004035D01*
X58770788Y-43091223D01*
X58802614Y-43165305D01*
X58828184Y-43219629D01*
X58844947Y-43247543D01*
X58846626Y-43249276D01*
X58858628Y-43258044D01*
X58878897Y-43266885D01*
X58911471Y-43276708D01*
X58960384Y-43288417D01*
X59029673Y-43302920D01*
X59123375Y-43321124D01*
X59245524Y-43343934D01*
X59400158Y-43372259D01*
X59432230Y-43378220D01*
X59524107Y-43396648D01*
X59601393Y-43414108D01*
X59656764Y-43428867D01*
X59682895Y-43439190D01*
X59687267Y-43447803D01*
X59694555Y-43489174D01*
X59700331Y-43557759D01*
X59704590Y-43647132D01*
X59707327Y-43750865D01*
X59708538Y-43862535D01*
X59708218Y-43975713D01*
X59706364Y-44083974D01*
X59702970Y-44180892D01*
X59698033Y-44260041D01*
X59691548Y-44314994D01*
X59683511Y-44339326D01*
X59675304Y-44342921D01*
X59634481Y-44354252D01*
X59565476Y-44370278D01*
X59473797Y-44389805D01*
X59364950Y-44411638D01*
X59244442Y-44434582D01*
X59178643Y-44446841D01*
X59065865Y-44468099D01*
X58968793Y-44486713D01*
X58892618Y-44501672D01*
X58842531Y-44511964D01*
X58823724Y-44516578D01*
X58823017Y-44517529D01*
X58811039Y-44541690D01*
X58788206Y-44592306D01*
X58757370Y-44662662D01*
X58721387Y-44746042D01*
X58683109Y-44835730D01*
X58645391Y-44925011D01*
X58611087Y-45007168D01*
X58583051Y-45075487D01*
X58564136Y-45123252D01*
X58557197Y-45143746D01*
X58560258Y-45150957D01*
X58580628Y-45185272D01*
X58617578Y-45243030D01*
X58668140Y-45319701D01*
X58729343Y-45410752D01*
X58798219Y-45511650D01*
X58836006Y-45566907D01*
X58901218Y-45663785D01*
X58957129Y-45748807D01*
X59000759Y-45817338D01*
X59029123Y-45864740D01*
X59039241Y-45886377D01*
X59032210Y-45898113D01*
X59002803Y-45933182D01*
X58954559Y-45986255D01*
X58891907Y-46052836D01*
X58819275Y-46128426D01*
X58741092Y-46208528D01*
X58661786Y-46288646D01*
X58585787Y-46364282D01*
X58517522Y-46430938D01*
X58461420Y-46484118D01*
X58421910Y-46519324D01*
X58403421Y-46532058D01*
X58393157Y-46527107D01*
X58355470Y-46504143D01*
X58294652Y-46465062D01*
X58215087Y-46412728D01*
X58121157Y-46350004D01*
X58017246Y-46279754D01*
X57646206Y-46027449D01*
X57336920Y-46154947D01*
X57027635Y-46282445D01*
X56943814Y-46727069D01*
X56859994Y-47171693D01*
X55934546Y-47171693D01*
X55850725Y-46727069D01*
X55766905Y-46282445D01*
X55148333Y-46027449D01*
X54777293Y-46279754D01*
X54703856Y-46329494D01*
X54606501Y-46394782D01*
X54522213Y-46450546D01*
X54455369Y-46493922D01*
X54410346Y-46522047D01*
X54391522Y-46532058D01*
X54379961Y-46524939D01*
X54345404Y-46495106D01*
X54293106Y-46446148D01*
X54227500Y-46382560D01*
X54153017Y-46308837D01*
X54074087Y-46229475D01*
X53995144Y-46148969D01*
X53920616Y-46071815D01*
X53854937Y-46002507D01*
X53802537Y-45945543D01*
X53767847Y-45905416D01*
X53755299Y-45886623D01*
X53758218Y-45878549D01*
X53778429Y-45842531D01*
X53815337Y-45783256D01*
X53865950Y-45705370D01*
X53927275Y-45613519D01*
X53996321Y-45512350D01*
X54034213Y-45457174D01*
X54099394Y-45361116D01*
X54155277Y-45277283D01*
X54198883Y-45210223D01*
X54227231Y-45164481D01*
X54237343Y-45144604D01*
X54237177Y-45143503D01*
X54228257Y-45118306D01*
X54207794Y-45066853D01*
X54178640Y-44995865D01*
X54143647Y-44912065D01*
X54105668Y-44822172D01*
X54067555Y-44732909D01*
X54032161Y-44650997D01*
X54002338Y-44583157D01*
X53980939Y-44536110D01*
X53970816Y-44516578D01*
X53964826Y-44514845D01*
X53928434Y-44507031D01*
X53863573Y-44494085D01*
X53775435Y-44477021D01*
X53669213Y-44456849D01*
X53550098Y-44434582D01*
X53487317Y-44422777D01*
X53372088Y-44400252D01*
X53271338Y-44379450D01*
X53190574Y-44361565D01*
X53135302Y-44347792D01*
X53111029Y-44339326D01*
X53106669Y-44330934D01*
X53099437Y-44289928D01*
X53093754Y-44221632D01*
X53089618Y-44132471D01*
X53087023Y-44028872D01*
X53085964Y-43917260D01*
X53086439Y-43804062D01*
X53088441Y-43695704D01*
X53091967Y-43598611D01*
X53097013Y-43519210D01*
X53103573Y-43463928D01*
X53111644Y-43439190D01*
X53116542Y-43436400D01*
X53153070Y-43424431D01*
X53216435Y-43408595D01*
X53299314Y-43390626D01*
X53394382Y-43372259D01*
X53426458Y-43366409D01*
X53574607Y-43339202D01*
X53691039Y-43317337D01*
X53779791Y-43299907D01*
X53844897Y-43286004D01*
X53890394Y-43274723D01*
X53920318Y-43265157D01*
X53938706Y-43256399D01*
X53949593Y-43247543D01*
X53950858Y-43246057D01*
X53968662Y-43215069D01*
X53995006Y-43158366D01*
X54027339Y-43082601D01*
X54063107Y-42994426D01*
X54099756Y-42900493D01*
X54134734Y-42807453D01*
X54165487Y-42721959D01*
X54189462Y-42650664D01*
X54204105Y-42600218D01*
X54206864Y-42577274D01*
X54205019Y-42574297D01*
X54185925Y-42545507D01*
X54150016Y-42492405D01*
X54100622Y-42419883D01*
X54041073Y-42332833D01*
X53974697Y-42236146D01*
X53956480Y-42209544D01*
X53892423Y-42114125D01*
X53837063Y-42028788D01*
X53793561Y-41958595D01*
X53765076Y-41908606D01*
X53754768Y-41883884D01*
X53756989Y-41877384D01*
X53780142Y-41845356D01*
X53825823Y-41793055D01*
X53890759Y-41724001D01*
X53971681Y-41641714D01*
X54065315Y-41549714D01*
X54118835Y-41498219D01*
X54203458Y-41418017D01*
X54277525Y-41349322D01*
X54337059Y-41295748D01*
X54378083Y-41260915D01*
X54396619Y-41248437D01*
X54409354Y-41253062D01*
X54448564Y-41274943D01*
X54505505Y-41310727D01*
X54572750Y-41355883D01*
X54620562Y-41388835D01*
X54716015Y-41454273D01*
X54817875Y-41523772D01*
X54910912Y-41586925D01*
X55093168Y-41710200D01*
X55246159Y-41627480D01*
X55282183Y-41608387D01*
X55347697Y-41575728D01*
X55398360Y-41553181D01*
X55425436Y-41544774D01*
X55434297Y-41555570D01*
X55456301Y-41596677D01*
X55488801Y-41664451D01*
X55529990Y-41754591D01*
X55578058Y-41862795D01*
X55631198Y-41984763D01*
X55687601Y-42116192D01*
X55745458Y-42252782D01*
X55802962Y-42390233D01*
X55858303Y-42524242D01*
X55909674Y-42650509D01*
X55955265Y-42764732D01*
X55993268Y-42862610D01*
X56021876Y-42939843D01*
X56039279Y-42992129D01*
X56043669Y-43015167D01*
X56043372Y-43015840D01*
X56022923Y-43037137D01*
X55980150Y-43070492D01*
X55923883Y-43108989D01*
X55906123Y-43120744D01*
X55770986Y-43232265D01*
X55659144Y-43365094D01*
X55573245Y-43513702D01*
X55515938Y-43672560D01*
X55489869Y-43836140D01*
X55497687Y-43998912D01*
X55529356Y-44143685D01*
X55586218Y-44289876D01*
X55669112Y-44420297D01*
X55782869Y-44544187D01*
X55827567Y-44583765D01*
X55972065Y-44681277D01*
X56128162Y-44746950D01*
X56291333Y-44781370D01*
X56457057Y-44785126D01*
X56620808Y-44758806D01*
X56778064Y-44702997D01*
X56924302Y-44618286D01*
X57054996Y-44505263D01*
X57165626Y-44364513D01*
X57186895Y-44329658D01*
X57259190Y-44170345D01*
X57297585Y-44004448D01*
X57303086Y-43836263D01*
X57276699Y-43670087D01*
X57219430Y-43510216D01*
X57132283Y-43360947D01*
X57016264Y-43226577D01*
X56872378Y-43111401D01*
X56867706Y-43108298D01*
X56812036Y-43069067D01*
X56770311Y-43035714D01*
X56751254Y-43015167D01*
X56753658Y-42999059D01*
X56768609Y-42952156D01*
X56795119Y-42879461D01*
X56831380Y-42785275D01*
X56875584Y-42673902D01*
X56925924Y-42549642D01*
X56980593Y-42416798D01*
X57037782Y-42279673D01*
X57095684Y-42142568D01*
X57152490Y-42009785D01*
X57206394Y-41885626D01*
X57255588Y-41774394D01*
X57298263Y-41680391D01*
X57332613Y-41607918D01*
X57356829Y-41561278D01*
X57369103Y-41544774D01*
X57379311Y-41547009D01*
X57419414Y-41563074D01*
X57478682Y-41591241D01*
X57548381Y-41627480D01*
X57701371Y-41710200D01*
X57883627Y-41586925D01*
X57937473Y-41550421D01*
X58037626Y-41482216D01*
X58137475Y-41413902D01*
X58221789Y-41355883D01*
X58268321Y-41324264D01*
X58328800Y-41284980D01*
X58373643Y-41258088D01*
X58395545Y-41248117D01*
X58404955Y-41252350D01*
G37*
D13*
X58404955Y-41252350D02*
X58438969Y-41278279D01*
X58491405Y-41323930D01*
X58557699Y-41384814D01*
X58633287Y-41456439D01*
X58713604Y-41534317D01*
X58794087Y-41613955D01*
X58870171Y-41690865D01*
X58937293Y-41760555D01*
X58990888Y-41818536D01*
X59026392Y-41860316D01*
X59039241Y-41881407D01*
X59038500Y-41885419D01*
X59023207Y-41918080D01*
X58990538Y-41974588D01*
X58943650Y-42049837D01*
X58885699Y-42138725D01*
X58819843Y-42236146D01*
X58801373Y-42263018D01*
X58736518Y-42357577D01*
X58679391Y-42441173D01*
X58633322Y-42508916D01*
X58601641Y-42555914D01*
X58587676Y-42577274D01*
X58587332Y-42578189D01*
X58591454Y-42604322D01*
X58607193Y-42657260D01*
X58631996Y-42730353D01*
X58663311Y-42816948D01*
X58698583Y-42910392D01*
X58735260Y-43004035D01*
X58770788Y-43091223D01*
X58802614Y-43165305D01*
X58828184Y-43219629D01*
X58844947Y-43247543D01*
X58846626Y-43249276D01*
X58858628Y-43258044D01*
X58878897Y-43266885D01*
X58911471Y-43276708D01*
X58960384Y-43288417D01*
X59029673Y-43302920D01*
X59123375Y-43321124D01*
X59245524Y-43343934D01*
X59400158Y-43372259D01*
X59432230Y-43378220D01*
X59524107Y-43396648D01*
X59601393Y-43414108D01*
X59656764Y-43428867D01*
X59682895Y-43439190D01*
X59687267Y-43447803D01*
X59694555Y-43489174D01*
X59700331Y-43557759D01*
X59704590Y-43647132D01*
X59707327Y-43750865D01*
X59708538Y-43862535D01*
X59708218Y-43975713D01*
X59706364Y-44083974D01*
X59702970Y-44180892D01*
X59698033Y-44260041D01*
X59691548Y-44314994D01*
X59683511Y-44339326D01*
X59675304Y-44342921D01*
X59634481Y-44354252D01*
X59565476Y-44370278D01*
X59473797Y-44389805D01*
X59364950Y-44411638D01*
X59244442Y-44434582D01*
X59178643Y-44446841D01*
X59065865Y-44468099D01*
X58968793Y-44486713D01*
X58892618Y-44501672D01*
X58842531Y-44511964D01*
X58823724Y-44516578D01*
X58823017Y-44517529D01*
X58811039Y-44541690D01*
X58788206Y-44592306D01*
X58757370Y-44662662D01*
X58721387Y-44746042D01*
X58683109Y-44835730D01*
X58645391Y-44925011D01*
X58611087Y-45007168D01*
X58583051Y-45075487D01*
X58564136Y-45123252D01*
X58557197Y-45143746D01*
X58560258Y-45150957D01*
X58580628Y-45185272D01*
X58617578Y-45243030D01*
X58668140Y-45319701D01*
X58729343Y-45410752D01*
X58798219Y-45511650D01*
X58836006Y-45566907D01*
X58901218Y-45663785D01*
X58957129Y-45748807D01*
X59000759Y-45817338D01*
X59029123Y-45864740D01*
X59039241Y-45886377D01*
X59032210Y-45898113D01*
X59002803Y-45933182D01*
X58954559Y-45986255D01*
X58891907Y-46052836D01*
X58819275Y-46128426D01*
X58741092Y-46208528D01*
X58661786Y-46288646D01*
X58585787Y-46364282D01*
X58517522Y-46430938D01*
X58461420Y-46484118D01*
X58421910Y-46519324D01*
X58403421Y-46532058D01*
X58393157Y-46527107D01*
X58355470Y-46504143D01*
X58294652Y-46465062D01*
X58215087Y-46412728D01*
X58121157Y-46350004D01*
X58017246Y-46279754D01*
X57646206Y-46027449D01*
X57336920Y-46154947D01*
X57027635Y-46282445D01*
X56943814Y-46727069D01*
X56859994Y-47171693D01*
X55934546Y-47171693D01*
X55850725Y-46727069D01*
X55766905Y-46282445D01*
X55148333Y-46027449D01*
X54777293Y-46279754D01*
X54703856Y-46329494D01*
X54606501Y-46394782D01*
X54522213Y-46450546D01*
X54455369Y-46493922D01*
X54410346Y-46522047D01*
X54391522Y-46532058D01*
X54379961Y-46524939D01*
X54345404Y-46495106D01*
X54293106Y-46446148D01*
X54227500Y-46382560D01*
X54153017Y-46308837D01*
X54074087Y-46229475D01*
X53995144Y-46148969D01*
X53920616Y-46071815D01*
X53854937Y-46002507D01*
X53802537Y-45945543D01*
X53767847Y-45905416D01*
X53755299Y-45886623D01*
X53758218Y-45878549D01*
X53778429Y-45842531D01*
X53815337Y-45783256D01*
X53865950Y-45705370D01*
X53927275Y-45613519D01*
X53996321Y-45512350D01*
X54034213Y-45457174D01*
X54099394Y-45361116D01*
X54155277Y-45277283D01*
X54198883Y-45210223D01*
X54227231Y-45164481D01*
X54237343Y-45144604D01*
X54237177Y-45143503D01*
X54228257Y-45118306D01*
X54207794Y-45066853D01*
X54178640Y-44995865D01*
X54143647Y-44912065D01*
X54105668Y-44822172D01*
X54067555Y-44732909D01*
X54032161Y-44650997D01*
X54002338Y-44583157D01*
X53980939Y-44536110D01*
X53970816Y-44516578D01*
X53964826Y-44514845D01*
X53928434Y-44507031D01*
X53863573Y-44494085D01*
X53775435Y-44477021D01*
X53669213Y-44456849D01*
X53550098Y-44434582D01*
X53487317Y-44422777D01*
X53372088Y-44400252D01*
X53271338Y-44379450D01*
X53190574Y-44361565D01*
X53135302Y-44347792D01*
X53111029Y-44339326D01*
X53106669Y-44330934D01*
X53099437Y-44289928D01*
X53093754Y-44221632D01*
X53089618Y-44132471D01*
X53087023Y-44028872D01*
X53085964Y-43917260D01*
X53086439Y-43804062D01*
X53088441Y-43695704D01*
X53091967Y-43598611D01*
X53097013Y-43519210D01*
X53103573Y-43463928D01*
X53111644Y-43439190D01*
X53116542Y-43436400D01*
X53153070Y-43424431D01*
X53216435Y-43408595D01*
X53299314Y-43390626D01*
X53394382Y-43372259D01*
X53426458Y-43366409D01*
X53574607Y-43339202D01*
X53691039Y-43317337D01*
X53779791Y-43299907D01*
X53844897Y-43286004D01*
X53890394Y-43274723D01*
X53920318Y-43265157D01*
X53938706Y-43256399D01*
X53949593Y-43247543D01*
X53950858Y-43246057D01*
X53968662Y-43215069D01*
X53995006Y-43158366D01*
X54027339Y-43082601D01*
X54063107Y-42994426D01*
X54099756Y-42900493D01*
X54134734Y-42807453D01*
X54165487Y-42721959D01*
X54189462Y-42650664D01*
X54204105Y-42600218D01*
X54206864Y-42577274D01*
X54205019Y-42574297D01*
X54185925Y-42545507D01*
X54150016Y-42492405D01*
X54100622Y-42419883D01*
X54041073Y-42332833D01*
X53974697Y-42236146D01*
X53956480Y-42209544D01*
X53892423Y-42114125D01*
X53837063Y-42028788D01*
X53793561Y-41958595D01*
X53765076Y-41908606D01*
X53754768Y-41883884D01*
X53756989Y-41877384D01*
X53780142Y-41845356D01*
X53825823Y-41793055D01*
X53890759Y-41724001D01*
X53971681Y-41641714D01*
X54065315Y-41549714D01*
X54118835Y-41498219D01*
X54203458Y-41418017D01*
X54277525Y-41349322D01*
X54337059Y-41295748D01*
X54378083Y-41260915D01*
X54396619Y-41248437D01*
X54409354Y-41253062D01*
X54448564Y-41274943D01*
X54505505Y-41310727D01*
X54572750Y-41355883D01*
X54620562Y-41388835D01*
X54716015Y-41454273D01*
X54817875Y-41523772D01*
X54910912Y-41586925D01*
X55093168Y-41710200D01*
X55246159Y-41627480D01*
X55282183Y-41608387D01*
X55347697Y-41575728D01*
X55398360Y-41553181D01*
X55425436Y-41544774D01*
X55434297Y-41555570D01*
X55456301Y-41596677D01*
X55488801Y-41664451D01*
X55529990Y-41754591D01*
X55578058Y-41862795D01*
X55631198Y-41984763D01*
X55687601Y-42116192D01*
X55745458Y-42252782D01*
X55802962Y-42390233D01*
X55858303Y-42524242D01*
X55909674Y-42650509D01*
X55955265Y-42764732D01*
X55993268Y-42862610D01*
X56021876Y-42939843D01*
X56039279Y-42992129D01*
X56043669Y-43015167D01*
X56043372Y-43015840D01*
X56022923Y-43037137D01*
X55980150Y-43070492D01*
X55923883Y-43108989D01*
X55906123Y-43120744D01*
X55770986Y-43232265D01*
X55659144Y-43365094D01*
X55573245Y-43513702D01*
X55515938Y-43672560D01*
X55489869Y-43836140D01*
X55497687Y-43998912D01*
X55529356Y-44143685D01*
X55586218Y-44289876D01*
X55669112Y-44420297D01*
X55782869Y-44544187D01*
X55827567Y-44583765D01*
X55972065Y-44681277D01*
X56128162Y-44746950D01*
X56291333Y-44781370D01*
X56457057Y-44785126D01*
X56620808Y-44758806D01*
X56778064Y-44702997D01*
X56924302Y-44618286D01*
X57054996Y-44505263D01*
X57165626Y-44364513D01*
X57186895Y-44329658D01*
X57259190Y-44170345D01*
X57297585Y-44004448D01*
X57303086Y-43836263D01*
X57276699Y-43670087D01*
X57219430Y-43510216D01*
X57132283Y-43360947D01*
X57016264Y-43226577D01*
X56872378Y-43111401D01*
X56867706Y-43108298D01*
X56812036Y-43069067D01*
X56770311Y-43035714D01*
X56751254Y-43015167D01*
X56753658Y-42999059D01*
X56768609Y-42952156D01*
X56795119Y-42879461D01*
X56831380Y-42785275D01*
X56875584Y-42673902D01*
X56925924Y-42549642D01*
X56980593Y-42416798D01*
X57037782Y-42279673D01*
X57095684Y-42142568D01*
X57152490Y-42009785D01*
X57206394Y-41885626D01*
X57255588Y-41774394D01*
X57298263Y-41680391D01*
X57332613Y-41607918D01*
X57356829Y-41561278D01*
X57369103Y-41544774D01*
X57379311Y-41547009D01*
X57419414Y-41563074D01*
X57478682Y-41591241D01*
X57548381Y-41627480D01*
X57701371Y-41710200D01*
X57883627Y-41586925D01*
X57937473Y-41550421D01*
X58037626Y-41482216D01*
X58137475Y-41413902D01*
X58221789Y-41355883D01*
X58268321Y-41324264D01*
X58328800Y-41284980D01*
X58373643Y-41258088D01*
X58395545Y-41248117D01*
X58404955Y-41252350D01*
D14*
X25290000Y-34550000D03*
X25290000Y-54870000D03*
X67290000Y-34550000D03*
X67290000Y-54870000D03*
G04 #@! TA.AperFunction,Conductor*
G36*
X36556071Y-21738502D02*
G01*
X36602564Y-21792158D01*
X36612668Y-21862432D01*
X36583175Y-21927012D01*
X36576253Y-21935000D01*
X36569500Y-21935000D01*
X36569500Y-25817000D01*
X55886500Y-25817000D01*
X55886500Y-24639733D01*
X65277822Y-24639733D01*
X65287625Y-24920458D01*
X65288387Y-24924781D01*
X65288388Y-24924788D01*
X65312164Y-25059624D01*
X65336402Y-25197087D01*
X65423203Y-25464235D01*
X65546340Y-25716702D01*
X65548795Y-25720341D01*
X65548798Y-25720347D01*
X65613992Y-25817000D01*
X65703415Y-25949576D01*
X65891371Y-26158322D01*
X66106550Y-26338879D01*
X66344764Y-26487731D01*
X66601375Y-26601982D01*
X66871390Y-26679407D01*
X66875740Y-26680018D01*
X66875743Y-26680019D01*
X66978690Y-26694487D01*
X67149552Y-26718500D01*
X67360146Y-26718500D01*
X67362332Y-26718347D01*
X67362336Y-26718347D01*
X67565827Y-26704118D01*
X67565832Y-26704117D01*
X67570212Y-26703811D01*
X67844970Y-26645409D01*
X67849099Y-26643906D01*
X67849103Y-26643905D01*
X68104781Y-26550846D01*
X68104785Y-26550844D01*
X68108926Y-26549337D01*
X68356942Y-26417464D01*
X68461896Y-26341211D01*
X68580629Y-26254947D01*
X68580632Y-26254944D01*
X68584192Y-26252358D01*
X68786252Y-26057231D01*
X68959188Y-25835882D01*
X68961384Y-25832078D01*
X68961389Y-25832071D01*
X69097435Y-25596431D01*
X69099636Y-25592619D01*
X69204862Y-25332176D01*
X69238544Y-25197087D01*
X69271753Y-25063893D01*
X69271754Y-25063888D01*
X69272817Y-25059624D01*
X69302178Y-24780267D01*
X69292375Y-24499542D01*
X69268608Y-24364749D01*
X69244360Y-24227236D01*
X69243598Y-24222913D01*
X69156797Y-23955765D01*
X69033660Y-23703298D01*
X69031205Y-23699659D01*
X69031202Y-23699653D01*
X68950935Y-23580653D01*
X68876585Y-23470424D01*
X68688629Y-23261678D01*
X68473450Y-23081121D01*
X68235236Y-22932269D01*
X67978625Y-22818018D01*
X67708610Y-22740593D01*
X67704260Y-22739982D01*
X67704257Y-22739981D01*
X67601310Y-22725513D01*
X67430448Y-22701500D01*
X67219854Y-22701500D01*
X67217668Y-22701653D01*
X67217664Y-22701653D01*
X67014173Y-22715882D01*
X67014168Y-22715883D01*
X67009788Y-22716189D01*
X66735030Y-22774591D01*
X66730901Y-22776094D01*
X66730897Y-22776095D01*
X66475219Y-22869154D01*
X66475215Y-22869156D01*
X66471074Y-22870663D01*
X66223058Y-23002536D01*
X66219499Y-23005122D01*
X66219497Y-23005123D01*
X66114895Y-23081121D01*
X65995808Y-23167642D01*
X65793748Y-23362769D01*
X65620812Y-23584118D01*
X65618616Y-23587922D01*
X65618611Y-23587929D01*
X65504794Y-23785067D01*
X65480364Y-23827381D01*
X65375138Y-24087824D01*
X65374073Y-24092097D01*
X65374072Y-24092099D01*
X65340379Y-24227236D01*
X65307183Y-24360376D01*
X65277822Y-24639733D01*
X55886500Y-24639733D01*
X55886500Y-21935000D01*
X55881122Y-21935000D01*
X55845775Y-21879999D01*
X55845775Y-21809002D01*
X55884158Y-21749276D01*
X55948739Y-21719783D01*
X55966671Y-21718500D01*
X70155500Y-21718500D01*
X70223621Y-21738502D01*
X70270114Y-21792158D01*
X70281500Y-21844500D01*
X70281500Y-67575500D01*
X70261498Y-67643621D01*
X70207842Y-67690114D01*
X70155500Y-67701500D01*
X22424500Y-67701500D01*
X22356379Y-67681498D01*
X22309886Y-67627842D01*
X22298500Y-67575500D01*
X22298500Y-64639733D01*
X23277822Y-64639733D01*
X23287625Y-64920458D01*
X23288387Y-64924781D01*
X23288388Y-64924788D01*
X23312164Y-65059624D01*
X23336402Y-65197087D01*
X23423203Y-65464235D01*
X23546340Y-65716702D01*
X23548795Y-65720341D01*
X23548798Y-65720347D01*
X23621890Y-65828710D01*
X23703415Y-65949576D01*
X23891371Y-66158322D01*
X24106550Y-66338879D01*
X24344764Y-66487731D01*
X24601375Y-66601982D01*
X24871390Y-66679407D01*
X24875740Y-66680018D01*
X24875743Y-66680019D01*
X24978690Y-66694487D01*
X25149552Y-66718500D01*
X25360146Y-66718500D01*
X25362332Y-66718347D01*
X25362336Y-66718347D01*
X25565827Y-66704118D01*
X25565832Y-66704117D01*
X25570212Y-66703811D01*
X25844970Y-66645409D01*
X25849099Y-66643906D01*
X25849103Y-66643905D01*
X26104781Y-66550846D01*
X26104785Y-66550844D01*
X26108926Y-66549337D01*
X26356942Y-66417464D01*
X26461896Y-66341211D01*
X26580629Y-66254947D01*
X26580632Y-66254944D01*
X26584192Y-66252358D01*
X26786252Y-66057231D01*
X26959188Y-65835882D01*
X26961384Y-65832078D01*
X26961389Y-65832071D01*
X27097435Y-65596431D01*
X27099636Y-65592619D01*
X27204862Y-65332176D01*
X27238544Y-65197087D01*
X27271753Y-65063893D01*
X27271754Y-65063888D01*
X27272817Y-65059624D01*
X27302178Y-64780267D01*
X27297271Y-64639733D01*
X65277822Y-64639733D01*
X65287625Y-64920458D01*
X65288387Y-64924781D01*
X65288388Y-64924788D01*
X65312164Y-65059624D01*
X65336402Y-65197087D01*
X65423203Y-65464235D01*
X65546340Y-65716702D01*
X65548795Y-65720341D01*
X65548798Y-65720347D01*
X65621890Y-65828710D01*
X65703415Y-65949576D01*
X65891371Y-66158322D01*
X66106550Y-66338879D01*
X66344764Y-66487731D01*
X66601375Y-66601982D01*
X66871390Y-66679407D01*
X66875740Y-66680018D01*
X66875743Y-66680019D01*
X66978690Y-66694487D01*
X67149552Y-66718500D01*
X67360146Y-66718500D01*
X67362332Y-66718347D01*
X67362336Y-66718347D01*
X67565827Y-66704118D01*
X67565832Y-66704117D01*
X67570212Y-66703811D01*
X67844970Y-66645409D01*
X67849099Y-66643906D01*
X67849103Y-66643905D01*
X68104781Y-66550846D01*
X68104785Y-66550844D01*
X68108926Y-66549337D01*
X68356942Y-66417464D01*
X68461896Y-66341211D01*
X68580629Y-66254947D01*
X68580632Y-66254944D01*
X68584192Y-66252358D01*
X68786252Y-66057231D01*
X68959188Y-65835882D01*
X68961384Y-65832078D01*
X68961389Y-65832071D01*
X69097435Y-65596431D01*
X69099636Y-65592619D01*
X69204862Y-65332176D01*
X69238544Y-65197087D01*
X69271753Y-65063893D01*
X69271754Y-65063888D01*
X69272817Y-65059624D01*
X69302178Y-64780267D01*
X69292375Y-64499542D01*
X69268608Y-64364749D01*
X69244360Y-64227236D01*
X69243598Y-64222913D01*
X69156797Y-63955765D01*
X69033660Y-63703298D01*
X69031205Y-63699659D01*
X69031202Y-63699653D01*
X68950935Y-63580653D01*
X68876585Y-63470424D01*
X68688629Y-63261678D01*
X68473450Y-63081121D01*
X68235236Y-62932269D01*
X67978625Y-62818018D01*
X67708610Y-62740593D01*
X67704260Y-62739982D01*
X67704257Y-62739981D01*
X67601310Y-62725513D01*
X67430448Y-62701500D01*
X67219854Y-62701500D01*
X67217668Y-62701653D01*
X67217664Y-62701653D01*
X67014173Y-62715882D01*
X67014168Y-62715883D01*
X67009788Y-62716189D01*
X66735030Y-62774591D01*
X66730901Y-62776094D01*
X66730897Y-62776095D01*
X66475219Y-62869154D01*
X66475215Y-62869156D01*
X66471074Y-62870663D01*
X66223058Y-63002536D01*
X66219499Y-63005122D01*
X66219497Y-63005123D01*
X66114895Y-63081121D01*
X65995808Y-63167642D01*
X65793748Y-63362769D01*
X65620812Y-63584118D01*
X65618616Y-63587922D01*
X65618611Y-63587929D01*
X65504794Y-63785067D01*
X65480364Y-63827381D01*
X65375138Y-64087824D01*
X65374073Y-64092097D01*
X65374072Y-64092099D01*
X65340379Y-64227236D01*
X65307183Y-64360376D01*
X65277822Y-64639733D01*
X27297271Y-64639733D01*
X27292375Y-64499542D01*
X27268608Y-64364749D01*
X27244360Y-64227236D01*
X27243598Y-64222913D01*
X27156797Y-63955765D01*
X27033660Y-63703298D01*
X27031205Y-63699659D01*
X27031202Y-63699653D01*
X26950935Y-63580653D01*
X26876585Y-63470424D01*
X26688629Y-63261678D01*
X26473450Y-63081121D01*
X26235236Y-62932269D01*
X25978625Y-62818018D01*
X25708610Y-62740593D01*
X25704260Y-62739982D01*
X25704257Y-62739981D01*
X25601310Y-62725513D01*
X25430448Y-62701500D01*
X25219854Y-62701500D01*
X25217668Y-62701653D01*
X25217664Y-62701653D01*
X25014173Y-62715882D01*
X25014168Y-62715883D01*
X25009788Y-62716189D01*
X24735030Y-62774591D01*
X24730901Y-62776094D01*
X24730897Y-62776095D01*
X24475219Y-62869154D01*
X24475215Y-62869156D01*
X24471074Y-62870663D01*
X24223058Y-63002536D01*
X24219499Y-63005122D01*
X24219497Y-63005123D01*
X24114895Y-63081121D01*
X23995808Y-63167642D01*
X23793748Y-63362769D01*
X23620812Y-63584118D01*
X23618616Y-63587922D01*
X23618611Y-63587929D01*
X23504794Y-63785067D01*
X23480364Y-63827381D01*
X23375138Y-64087824D01*
X23374073Y-64092097D01*
X23374072Y-64092099D01*
X23340379Y-64227236D01*
X23307183Y-64360376D01*
X23277822Y-64639733D01*
X22298500Y-64639733D01*
X22298500Y-59879733D01*
X29037822Y-59879733D01*
X29047625Y-60160458D01*
X29048387Y-60164781D01*
X29048388Y-60164788D01*
X29072164Y-60299624D01*
X29096402Y-60437087D01*
X29183203Y-60704235D01*
X29306340Y-60956702D01*
X29308795Y-60960341D01*
X29308798Y-60960347D01*
X29381890Y-61068710D01*
X29463415Y-61189576D01*
X29651371Y-61398322D01*
X29866550Y-61578879D01*
X30104764Y-61727731D01*
X30361375Y-61841982D01*
X30631390Y-61919407D01*
X30635740Y-61920018D01*
X30635743Y-61920019D01*
X30738690Y-61934487D01*
X30909552Y-61958500D01*
X31120146Y-61958500D01*
X31122332Y-61958347D01*
X31122336Y-61958347D01*
X31325827Y-61944118D01*
X31325832Y-61944117D01*
X31330212Y-61943811D01*
X31604970Y-61885409D01*
X31609099Y-61883906D01*
X31609103Y-61883905D01*
X31864781Y-61790846D01*
X31864785Y-61790844D01*
X31868926Y-61789337D01*
X32116942Y-61657464D01*
X32221896Y-61581211D01*
X32340629Y-61494947D01*
X32340632Y-61494944D01*
X32344192Y-61492358D01*
X32546252Y-61297231D01*
X32719188Y-61075882D01*
X32721384Y-61072078D01*
X32721389Y-61072071D01*
X32857435Y-60836431D01*
X32859636Y-60832619D01*
X32964862Y-60572176D01*
X32998544Y-60437087D01*
X33031753Y-60303893D01*
X33031754Y-60303888D01*
X33032817Y-60299624D01*
X33062178Y-60020267D01*
X33057271Y-59879733D01*
X39197822Y-59879733D01*
X39207625Y-60160458D01*
X39208387Y-60164781D01*
X39208388Y-60164788D01*
X39232164Y-60299624D01*
X39256402Y-60437087D01*
X39343203Y-60704235D01*
X39466340Y-60956702D01*
X39468795Y-60960341D01*
X39468798Y-60960347D01*
X39541890Y-61068710D01*
X39623415Y-61189576D01*
X39811371Y-61398322D01*
X40026550Y-61578879D01*
X40264764Y-61727731D01*
X40521375Y-61841982D01*
X40791390Y-61919407D01*
X40795740Y-61920018D01*
X40795743Y-61920019D01*
X40898690Y-61934487D01*
X41069552Y-61958500D01*
X41280146Y-61958500D01*
X41282332Y-61958347D01*
X41282336Y-61958347D01*
X41485827Y-61944118D01*
X41485832Y-61944117D01*
X41490212Y-61943811D01*
X41764970Y-61885409D01*
X41769099Y-61883906D01*
X41769103Y-61883905D01*
X42024781Y-61790846D01*
X42024785Y-61790844D01*
X42028926Y-61789337D01*
X42276942Y-61657464D01*
X42381896Y-61581211D01*
X42500629Y-61494947D01*
X42500632Y-61494944D01*
X42504192Y-61492358D01*
X42706252Y-61297231D01*
X42879188Y-61075882D01*
X42881384Y-61072078D01*
X42881389Y-61072071D01*
X43017435Y-60836431D01*
X43019636Y-60832619D01*
X43124862Y-60572176D01*
X43158544Y-60437087D01*
X43191753Y-60303893D01*
X43191754Y-60303888D01*
X43192817Y-60299624D01*
X43222178Y-60020267D01*
X43217271Y-59879733D01*
X49357822Y-59879733D01*
X49367625Y-60160458D01*
X49368387Y-60164781D01*
X49368388Y-60164788D01*
X49392164Y-60299624D01*
X49416402Y-60437087D01*
X49503203Y-60704235D01*
X49626340Y-60956702D01*
X49628795Y-60960341D01*
X49628798Y-60960347D01*
X49701890Y-61068710D01*
X49783415Y-61189576D01*
X49971371Y-61398322D01*
X50186550Y-61578879D01*
X50424764Y-61727731D01*
X50681375Y-61841982D01*
X50951390Y-61919407D01*
X50955740Y-61920018D01*
X50955743Y-61920019D01*
X51058690Y-61934487D01*
X51229552Y-61958500D01*
X51440146Y-61958500D01*
X51442332Y-61958347D01*
X51442336Y-61958347D01*
X51645827Y-61944118D01*
X51645832Y-61944117D01*
X51650212Y-61943811D01*
X51924970Y-61885409D01*
X51929099Y-61883906D01*
X51929103Y-61883905D01*
X52184781Y-61790846D01*
X52184785Y-61790844D01*
X52188926Y-61789337D01*
X52436942Y-61657464D01*
X52541896Y-61581211D01*
X52660629Y-61494947D01*
X52660632Y-61494944D01*
X52664192Y-61492358D01*
X52866252Y-61297231D01*
X53039188Y-61075882D01*
X53041384Y-61072078D01*
X53041389Y-61072071D01*
X53177435Y-60836431D01*
X53179636Y-60832619D01*
X53284862Y-60572176D01*
X53318544Y-60437087D01*
X53351753Y-60303893D01*
X53351754Y-60303888D01*
X53352817Y-60299624D01*
X53382178Y-60020267D01*
X53377271Y-59879733D01*
X59517822Y-59879733D01*
X59527625Y-60160458D01*
X59528387Y-60164781D01*
X59528388Y-60164788D01*
X59552164Y-60299624D01*
X59576402Y-60437087D01*
X59663203Y-60704235D01*
X59786340Y-60956702D01*
X59788795Y-60960341D01*
X59788798Y-60960347D01*
X59861890Y-61068710D01*
X59943415Y-61189576D01*
X60131371Y-61398322D01*
X60346550Y-61578879D01*
X60584764Y-61727731D01*
X60841375Y-61841982D01*
X61111390Y-61919407D01*
X61115740Y-61920018D01*
X61115743Y-61920019D01*
X61218690Y-61934487D01*
X61389552Y-61958500D01*
X61600146Y-61958500D01*
X61602332Y-61958347D01*
X61602336Y-61958347D01*
X61805827Y-61944118D01*
X61805832Y-61944117D01*
X61810212Y-61943811D01*
X62084970Y-61885409D01*
X62089099Y-61883906D01*
X62089103Y-61883905D01*
X62344781Y-61790846D01*
X62344785Y-61790844D01*
X62348926Y-61789337D01*
X62596942Y-61657464D01*
X62701896Y-61581211D01*
X62820629Y-61494947D01*
X62820632Y-61494944D01*
X62824192Y-61492358D01*
X63026252Y-61297231D01*
X63199188Y-61075882D01*
X63201384Y-61072078D01*
X63201389Y-61072071D01*
X63337435Y-60836431D01*
X63339636Y-60832619D01*
X63444862Y-60572176D01*
X63478544Y-60437087D01*
X63511753Y-60303893D01*
X63511754Y-60303888D01*
X63512817Y-60299624D01*
X63542178Y-60020267D01*
X63532375Y-59739542D01*
X63508608Y-59604749D01*
X63484360Y-59467236D01*
X63483598Y-59462913D01*
X63396797Y-59195765D01*
X63273660Y-58943298D01*
X63271205Y-58939659D01*
X63271202Y-58939653D01*
X63190935Y-58820653D01*
X63116585Y-58710424D01*
X62928629Y-58501678D01*
X62713450Y-58321121D01*
X62475236Y-58172269D01*
X62218625Y-58058018D01*
X61948610Y-57980593D01*
X61944260Y-57979982D01*
X61944257Y-57979981D01*
X61841310Y-57965513D01*
X61670448Y-57941500D01*
X61459854Y-57941500D01*
X61457668Y-57941653D01*
X61457664Y-57941653D01*
X61254173Y-57955882D01*
X61254168Y-57955883D01*
X61249788Y-57956189D01*
X60975030Y-58014591D01*
X60970901Y-58016094D01*
X60970897Y-58016095D01*
X60715219Y-58109154D01*
X60715215Y-58109156D01*
X60711074Y-58110663D01*
X60463058Y-58242536D01*
X60459499Y-58245122D01*
X60459497Y-58245123D01*
X60354895Y-58321121D01*
X60235808Y-58407642D01*
X60033748Y-58602769D01*
X59860812Y-58824118D01*
X59858616Y-58827922D01*
X59858611Y-58827929D01*
X59744794Y-59025067D01*
X59720364Y-59067381D01*
X59615138Y-59327824D01*
X59614073Y-59332097D01*
X59614072Y-59332099D01*
X59580379Y-59467236D01*
X59547183Y-59600376D01*
X59517822Y-59879733D01*
X53377271Y-59879733D01*
X53372375Y-59739542D01*
X53348608Y-59604749D01*
X53324360Y-59467236D01*
X53323598Y-59462913D01*
X53236797Y-59195765D01*
X53113660Y-58943298D01*
X53111205Y-58939659D01*
X53111202Y-58939653D01*
X53030935Y-58820653D01*
X52956585Y-58710424D01*
X52768629Y-58501678D01*
X52553450Y-58321121D01*
X52315236Y-58172269D01*
X52058625Y-58058018D01*
X51788610Y-57980593D01*
X51784260Y-57979982D01*
X51784257Y-57979981D01*
X51681310Y-57965513D01*
X51510448Y-57941500D01*
X51299854Y-57941500D01*
X51297668Y-57941653D01*
X51297664Y-57941653D01*
X51094173Y-57955882D01*
X51094168Y-57955883D01*
X51089788Y-57956189D01*
X50815030Y-58014591D01*
X50810901Y-58016094D01*
X50810897Y-58016095D01*
X50555219Y-58109154D01*
X50555215Y-58109156D01*
X50551074Y-58110663D01*
X50303058Y-58242536D01*
X50299499Y-58245122D01*
X50299497Y-58245123D01*
X50194895Y-58321121D01*
X50075808Y-58407642D01*
X49873748Y-58602769D01*
X49700812Y-58824118D01*
X49698616Y-58827922D01*
X49698611Y-58827929D01*
X49584794Y-59025067D01*
X49560364Y-59067381D01*
X49455138Y-59327824D01*
X49454073Y-59332097D01*
X49454072Y-59332099D01*
X49420379Y-59467236D01*
X49387183Y-59600376D01*
X49357822Y-59879733D01*
X43217271Y-59879733D01*
X43212375Y-59739542D01*
X43188608Y-59604749D01*
X43164360Y-59467236D01*
X43163598Y-59462913D01*
X43076797Y-59195765D01*
X42953660Y-58943298D01*
X42951205Y-58939659D01*
X42951202Y-58939653D01*
X42870935Y-58820653D01*
X42796585Y-58710424D01*
X42608629Y-58501678D01*
X42393450Y-58321121D01*
X42155236Y-58172269D01*
X41898625Y-58058018D01*
X41628610Y-57980593D01*
X41624260Y-57979982D01*
X41624257Y-57979981D01*
X41521310Y-57965513D01*
X41350448Y-57941500D01*
X41139854Y-57941500D01*
X41137668Y-57941653D01*
X41137664Y-57941653D01*
X40934173Y-57955882D01*
X40934168Y-57955883D01*
X40929788Y-57956189D01*
X40655030Y-58014591D01*
X40650901Y-58016094D01*
X40650897Y-58016095D01*
X40395219Y-58109154D01*
X40395215Y-58109156D01*
X40391074Y-58110663D01*
X40143058Y-58242536D01*
X40139499Y-58245122D01*
X40139497Y-58245123D01*
X40034895Y-58321121D01*
X39915808Y-58407642D01*
X39713748Y-58602769D01*
X39540812Y-58824118D01*
X39538616Y-58827922D01*
X39538611Y-58827929D01*
X39424794Y-59025067D01*
X39400364Y-59067381D01*
X39295138Y-59327824D01*
X39294073Y-59332097D01*
X39294072Y-59332099D01*
X39260379Y-59467236D01*
X39227183Y-59600376D01*
X39197822Y-59879733D01*
X33057271Y-59879733D01*
X33052375Y-59739542D01*
X33028608Y-59604749D01*
X33004360Y-59467236D01*
X33003598Y-59462913D01*
X32916797Y-59195765D01*
X32793660Y-58943298D01*
X32791205Y-58939659D01*
X32791202Y-58939653D01*
X32710935Y-58820653D01*
X32636585Y-58710424D01*
X32448629Y-58501678D01*
X32233450Y-58321121D01*
X31995236Y-58172269D01*
X31738625Y-58058018D01*
X31468610Y-57980593D01*
X31464260Y-57979982D01*
X31464257Y-57979981D01*
X31361310Y-57965513D01*
X31190448Y-57941500D01*
X30979854Y-57941500D01*
X30977668Y-57941653D01*
X30977664Y-57941653D01*
X30774173Y-57955882D01*
X30774168Y-57955883D01*
X30769788Y-57956189D01*
X30495030Y-58014591D01*
X30490901Y-58016094D01*
X30490897Y-58016095D01*
X30235219Y-58109154D01*
X30235215Y-58109156D01*
X30231074Y-58110663D01*
X29983058Y-58242536D01*
X29979499Y-58245122D01*
X29979497Y-58245123D01*
X29874895Y-58321121D01*
X29755808Y-58407642D01*
X29553748Y-58602769D01*
X29380812Y-58824118D01*
X29378616Y-58827922D01*
X29378611Y-58827929D01*
X29264794Y-59025067D01*
X29240364Y-59067381D01*
X29135138Y-59327824D01*
X29134073Y-59332097D01*
X29134072Y-59332099D01*
X29100379Y-59467236D01*
X29067183Y-59600376D01*
X29037822Y-59879733D01*
X22298500Y-59879733D01*
X22298500Y-56278904D01*
X24245841Y-56278904D01*
X24254554Y-56290424D01*
X24352189Y-56362012D01*
X24360099Y-56366955D01*
X24583018Y-56484238D01*
X24591581Y-56487961D01*
X24829387Y-56571008D01*
X24838396Y-56573422D01*
X25085879Y-56620408D01*
X25095134Y-56621462D01*
X25346846Y-56631352D01*
X25356160Y-56631026D01*
X25606557Y-56603604D01*
X25615734Y-56601903D01*
X25859326Y-56537771D01*
X25868145Y-56534734D01*
X26099592Y-56435296D01*
X26107851Y-56430997D01*
X26322068Y-56298436D01*
X26328967Y-56293424D01*
X26337291Y-56280792D01*
X26336185Y-56278904D01*
X66245841Y-56278904D01*
X66254554Y-56290424D01*
X66352189Y-56362012D01*
X66360099Y-56366955D01*
X66583018Y-56484238D01*
X66591581Y-56487961D01*
X66829387Y-56571008D01*
X66838396Y-56573422D01*
X67085879Y-56620408D01*
X67095134Y-56621462D01*
X67346846Y-56631352D01*
X67356160Y-56631026D01*
X67606557Y-56603604D01*
X67615734Y-56601903D01*
X67859326Y-56537771D01*
X67868145Y-56534734D01*
X68099592Y-56435296D01*
X68107851Y-56430997D01*
X68322068Y-56298436D01*
X68328967Y-56293424D01*
X68337291Y-56280792D01*
X68331227Y-56270437D01*
X67302812Y-55242022D01*
X67288868Y-55234408D01*
X67287035Y-55234539D01*
X67280420Y-55238790D01*
X66252499Y-56266711D01*
X66245841Y-56278904D01*
X26336185Y-56278904D01*
X26331227Y-56270437D01*
X25302812Y-55242022D01*
X25288868Y-55234408D01*
X25287035Y-55234539D01*
X25280420Y-55238790D01*
X24252499Y-56266711D01*
X24245841Y-56278904D01*
X22298500Y-56278904D01*
X22298500Y-54828532D01*
X23528219Y-54828532D01*
X23540305Y-55080136D01*
X23541442Y-55089396D01*
X23590585Y-55336457D01*
X23593074Y-55345432D01*
X23678196Y-55582514D01*
X23681993Y-55591042D01*
X23801217Y-55812928D01*
X23806228Y-55820795D01*
X23869675Y-55905761D01*
X23880933Y-55914210D01*
X23893352Y-55907438D01*
X24917978Y-54882812D01*
X24924356Y-54871132D01*
X25654408Y-54871132D01*
X25654539Y-54872965D01*
X25658790Y-54879580D01*
X26689682Y-55910472D01*
X26702062Y-55917232D01*
X26710403Y-55910988D01*
X26836483Y-55714975D01*
X26840930Y-55706783D01*
X26944388Y-55477116D01*
X26947583Y-55468338D01*
X27015955Y-55225906D01*
X27017813Y-55216777D01*
X27049795Y-54965378D01*
X27050276Y-54959092D01*
X27052526Y-54873160D01*
X27052375Y-54866851D01*
X27049527Y-54828532D01*
X65528219Y-54828532D01*
X65540305Y-55080136D01*
X65541442Y-55089396D01*
X65590585Y-55336457D01*
X65593074Y-55345432D01*
X65678196Y-55582514D01*
X65681993Y-55591042D01*
X65801217Y-55812928D01*
X65806228Y-55820795D01*
X65869675Y-55905761D01*
X65880933Y-55914210D01*
X65893352Y-55907438D01*
X66917978Y-54882812D01*
X66924356Y-54871132D01*
X67654408Y-54871132D01*
X67654539Y-54872965D01*
X67658790Y-54879580D01*
X68689682Y-55910472D01*
X68702062Y-55917232D01*
X68710403Y-55910988D01*
X68836483Y-55714975D01*
X68840930Y-55706783D01*
X68944388Y-55477116D01*
X68947583Y-55468338D01*
X69015955Y-55225906D01*
X69017813Y-55216777D01*
X69049795Y-54965378D01*
X69050276Y-54959092D01*
X69052526Y-54873160D01*
X69052375Y-54866851D01*
X69033594Y-54614122D01*
X69032217Y-54604916D01*
X68976622Y-54359220D01*
X68973898Y-54350309D01*
X68882598Y-54115530D01*
X68878587Y-54107121D01*
X68753588Y-53888420D01*
X68748377Y-53880694D01*
X68711164Y-53833490D01*
X68699238Y-53825018D01*
X68687706Y-53831504D01*
X67662022Y-54857188D01*
X67654408Y-54871132D01*
X66924356Y-54871132D01*
X66925592Y-54868868D01*
X66925461Y-54867035D01*
X66921210Y-54860420D01*
X65891549Y-53830759D01*
X65878241Y-53823492D01*
X65868202Y-53830614D01*
X65858022Y-53842854D01*
X65852610Y-53850441D01*
X65721926Y-54065800D01*
X65717697Y-54074101D01*
X65620285Y-54306401D01*
X65617324Y-54315251D01*
X65555322Y-54559387D01*
X65553700Y-54568584D01*
X65528464Y-54819206D01*
X65528219Y-54828532D01*
X27049527Y-54828532D01*
X27033594Y-54614122D01*
X27032217Y-54604916D01*
X26976622Y-54359220D01*
X26973898Y-54350309D01*
X26882598Y-54115530D01*
X26878587Y-54107121D01*
X26753588Y-53888420D01*
X26748377Y-53880694D01*
X26711164Y-53833490D01*
X26699238Y-53825018D01*
X26687706Y-53831504D01*
X25662022Y-54857188D01*
X25654408Y-54871132D01*
X24924356Y-54871132D01*
X24925592Y-54868868D01*
X24925461Y-54867035D01*
X24921210Y-54860420D01*
X23891549Y-53830759D01*
X23878241Y-53823492D01*
X23868202Y-53830614D01*
X23858022Y-53842854D01*
X23852610Y-53850441D01*
X23721926Y-54065800D01*
X23717697Y-54074101D01*
X23620285Y-54306401D01*
X23617324Y-54315251D01*
X23555322Y-54559387D01*
X23553700Y-54568584D01*
X23528464Y-54819206D01*
X23528219Y-54828532D01*
X22298500Y-54828532D01*
X22298500Y-53459034D01*
X24243447Y-53459034D01*
X24248020Y-53468810D01*
X25277188Y-54497978D01*
X25291132Y-54505592D01*
X25292965Y-54505461D01*
X25299580Y-54501210D01*
X26328188Y-53472602D01*
X26334572Y-53460912D01*
X26333113Y-53459034D01*
X66243447Y-53459034D01*
X66248020Y-53468810D01*
X67277188Y-54497978D01*
X67291132Y-54505592D01*
X67292965Y-54505461D01*
X67299580Y-54501210D01*
X68328188Y-53472602D01*
X68334572Y-53460912D01*
X68325160Y-53448801D01*
X68188430Y-53353948D01*
X68180405Y-53349220D01*
X67954471Y-53237801D01*
X67945839Y-53234314D01*
X67705924Y-53157517D01*
X67696863Y-53155341D01*
X67448232Y-53114849D01*
X67438945Y-53114037D01*
X67187072Y-53110740D01*
X67177760Y-53111310D01*
X66928163Y-53145278D01*
X66919045Y-53147216D01*
X66677220Y-53217702D01*
X66668467Y-53220974D01*
X66439716Y-53326430D01*
X66431561Y-53330950D01*
X66252585Y-53448292D01*
X66243447Y-53459034D01*
X26333113Y-53459034D01*
X26325160Y-53448801D01*
X26188430Y-53353948D01*
X26180405Y-53349220D01*
X25954471Y-53237801D01*
X25945839Y-53234314D01*
X25705924Y-53157517D01*
X25696863Y-53155341D01*
X25448232Y-53114849D01*
X25438945Y-53114037D01*
X25187072Y-53110740D01*
X25177760Y-53111310D01*
X24928163Y-53145278D01*
X24919045Y-53147216D01*
X24677220Y-53217702D01*
X24668467Y-53220974D01*
X24439716Y-53326430D01*
X24431561Y-53330950D01*
X24252585Y-53448292D01*
X24243447Y-53459034D01*
X22298500Y-53459034D01*
X22298500Y-49719733D01*
X29037822Y-49719733D01*
X29047625Y-50000458D01*
X29048387Y-50004781D01*
X29048388Y-50004788D01*
X29072164Y-50139624D01*
X29096402Y-50277087D01*
X29183203Y-50544235D01*
X29306340Y-50796702D01*
X29308795Y-50800341D01*
X29308798Y-50800347D01*
X29381890Y-50908710D01*
X29463415Y-51029576D01*
X29651371Y-51238322D01*
X29866550Y-51418879D01*
X30104764Y-51567731D01*
X30361375Y-51681982D01*
X30631390Y-51759407D01*
X30635740Y-51760018D01*
X30635743Y-51760019D01*
X30738690Y-51774487D01*
X30909552Y-51798500D01*
X31120146Y-51798500D01*
X31122332Y-51798347D01*
X31122336Y-51798347D01*
X31325827Y-51784118D01*
X31325832Y-51784117D01*
X31330212Y-51783811D01*
X31604970Y-51725409D01*
X31609099Y-51723906D01*
X31609103Y-51723905D01*
X31864781Y-51630846D01*
X31864785Y-51630844D01*
X31868926Y-51629337D01*
X32116942Y-51497464D01*
X32221896Y-51421211D01*
X32340629Y-51334947D01*
X32340632Y-51334944D01*
X32344192Y-51332358D01*
X32546252Y-51137231D01*
X32719188Y-50915882D01*
X32721384Y-50912078D01*
X32721389Y-50912071D01*
X32857435Y-50676431D01*
X32859636Y-50672619D01*
X32964862Y-50412176D01*
X32998544Y-50277087D01*
X33031753Y-50143893D01*
X33031754Y-50143888D01*
X33032817Y-50139624D01*
X33062178Y-49860267D01*
X33057271Y-49719733D01*
X39197822Y-49719733D01*
X39207625Y-50000458D01*
X39208387Y-50004781D01*
X39208388Y-50004788D01*
X39232164Y-50139624D01*
X39256402Y-50277087D01*
X39343203Y-50544235D01*
X39466340Y-50796702D01*
X39468795Y-50800341D01*
X39468798Y-50800347D01*
X39541890Y-50908710D01*
X39623415Y-51029576D01*
X39811371Y-51238322D01*
X40026550Y-51418879D01*
X40264764Y-51567731D01*
X40521375Y-51681982D01*
X40791390Y-51759407D01*
X40795740Y-51760018D01*
X40795743Y-51760019D01*
X40898690Y-51774487D01*
X41069552Y-51798500D01*
X41280146Y-51798500D01*
X41282332Y-51798347D01*
X41282336Y-51798347D01*
X41485827Y-51784118D01*
X41485832Y-51784117D01*
X41490212Y-51783811D01*
X41764970Y-51725409D01*
X41769099Y-51723906D01*
X41769103Y-51723905D01*
X42024781Y-51630846D01*
X42024785Y-51630844D01*
X42028926Y-51629337D01*
X42276942Y-51497464D01*
X42381896Y-51421211D01*
X42500629Y-51334947D01*
X42500632Y-51334944D01*
X42504192Y-51332358D01*
X42706252Y-51137231D01*
X42879188Y-50915882D01*
X42881384Y-50912078D01*
X42881389Y-50912071D01*
X43017435Y-50676431D01*
X43019636Y-50672619D01*
X43124862Y-50412176D01*
X43158544Y-50277087D01*
X43191753Y-50143893D01*
X43191754Y-50143888D01*
X43192817Y-50139624D01*
X43222178Y-49860267D01*
X43217271Y-49719733D01*
X49357822Y-49719733D01*
X49367625Y-50000458D01*
X49368387Y-50004781D01*
X49368388Y-50004788D01*
X49392164Y-50139624D01*
X49416402Y-50277087D01*
X49503203Y-50544235D01*
X49626340Y-50796702D01*
X49628795Y-50800341D01*
X49628798Y-50800347D01*
X49701890Y-50908710D01*
X49783415Y-51029576D01*
X49971371Y-51238322D01*
X50186550Y-51418879D01*
X50424764Y-51567731D01*
X50681375Y-51681982D01*
X50951390Y-51759407D01*
X50955740Y-51760018D01*
X50955743Y-51760019D01*
X51058690Y-51774487D01*
X51229552Y-51798500D01*
X51440146Y-51798500D01*
X51442332Y-51798347D01*
X51442336Y-51798347D01*
X51645827Y-51784118D01*
X51645832Y-51784117D01*
X51650212Y-51783811D01*
X51924970Y-51725409D01*
X51929099Y-51723906D01*
X51929103Y-51723905D01*
X52184781Y-51630846D01*
X52184785Y-51630844D01*
X52188926Y-51629337D01*
X52436942Y-51497464D01*
X52541896Y-51421211D01*
X52660629Y-51334947D01*
X52660632Y-51334944D01*
X52664192Y-51332358D01*
X52866252Y-51137231D01*
X53039188Y-50915882D01*
X53041384Y-50912078D01*
X53041389Y-50912071D01*
X53177435Y-50676431D01*
X53179636Y-50672619D01*
X53284862Y-50412176D01*
X53318544Y-50277087D01*
X53351753Y-50143893D01*
X53351754Y-50143888D01*
X53352817Y-50139624D01*
X53382178Y-49860267D01*
X53377271Y-49719733D01*
X59517822Y-49719733D01*
X59527625Y-50000458D01*
X59528387Y-50004781D01*
X59528388Y-50004788D01*
X59552164Y-50139624D01*
X59576402Y-50277087D01*
X59663203Y-50544235D01*
X59786340Y-50796702D01*
X59788795Y-50800341D01*
X59788798Y-50800347D01*
X59861890Y-50908710D01*
X59943415Y-51029576D01*
X60131371Y-51238322D01*
X60346550Y-51418879D01*
X60584764Y-51567731D01*
X60841375Y-51681982D01*
X61111390Y-51759407D01*
X61115740Y-51760018D01*
X61115743Y-51760019D01*
X61218690Y-51774487D01*
X61389552Y-51798500D01*
X61600146Y-51798500D01*
X61602332Y-51798347D01*
X61602336Y-51798347D01*
X61805827Y-51784118D01*
X61805832Y-51784117D01*
X61810212Y-51783811D01*
X62084970Y-51725409D01*
X62089099Y-51723906D01*
X62089103Y-51723905D01*
X62344781Y-51630846D01*
X62344785Y-51630844D01*
X62348926Y-51629337D01*
X62596942Y-51497464D01*
X62701896Y-51421211D01*
X62820629Y-51334947D01*
X62820632Y-51334944D01*
X62824192Y-51332358D01*
X63026252Y-51137231D01*
X63199188Y-50915882D01*
X63201384Y-50912078D01*
X63201389Y-50912071D01*
X63337435Y-50676431D01*
X63339636Y-50672619D01*
X63444862Y-50412176D01*
X63478544Y-50277087D01*
X63511753Y-50143893D01*
X63511754Y-50143888D01*
X63512817Y-50139624D01*
X63542178Y-49860267D01*
X63532375Y-49579542D01*
X63508608Y-49444749D01*
X63484360Y-49307236D01*
X63483598Y-49302913D01*
X63396797Y-49035765D01*
X63273660Y-48783298D01*
X63271205Y-48779659D01*
X63271202Y-48779653D01*
X63190935Y-48660653D01*
X63116585Y-48550424D01*
X62928629Y-48341678D01*
X62713450Y-48161121D01*
X62475236Y-48012269D01*
X62218625Y-47898018D01*
X61948610Y-47820593D01*
X61944260Y-47819982D01*
X61944257Y-47819981D01*
X61841310Y-47805513D01*
X61670448Y-47781500D01*
X61459854Y-47781500D01*
X61457668Y-47781653D01*
X61457664Y-47781653D01*
X61254173Y-47795882D01*
X61254168Y-47795883D01*
X61249788Y-47796189D01*
X60975030Y-47854591D01*
X60970901Y-47856094D01*
X60970897Y-47856095D01*
X60715219Y-47949154D01*
X60715215Y-47949156D01*
X60711074Y-47950663D01*
X60463058Y-48082536D01*
X60459499Y-48085122D01*
X60459497Y-48085123D01*
X60354895Y-48161121D01*
X60235808Y-48247642D01*
X60033748Y-48442769D01*
X59860812Y-48664118D01*
X59858616Y-48667922D01*
X59858611Y-48667929D01*
X59744794Y-48865067D01*
X59720364Y-48907381D01*
X59615138Y-49167824D01*
X59614073Y-49172097D01*
X59614072Y-49172099D01*
X59580379Y-49307236D01*
X59547183Y-49440376D01*
X59517822Y-49719733D01*
X53377271Y-49719733D01*
X53372375Y-49579542D01*
X53348608Y-49444749D01*
X53324360Y-49307236D01*
X53323598Y-49302913D01*
X53236797Y-49035765D01*
X53113660Y-48783298D01*
X53111205Y-48779659D01*
X53111202Y-48779653D01*
X53030935Y-48660653D01*
X52956585Y-48550424D01*
X52768629Y-48341678D01*
X52553450Y-48161121D01*
X52315236Y-48012269D01*
X52058625Y-47898018D01*
X51788610Y-47820593D01*
X51784260Y-47819982D01*
X51784257Y-47819981D01*
X51681310Y-47805513D01*
X51510448Y-47781500D01*
X51299854Y-47781500D01*
X51297668Y-47781653D01*
X51297664Y-47781653D01*
X51094173Y-47795882D01*
X51094168Y-47795883D01*
X51089788Y-47796189D01*
X50815030Y-47854591D01*
X50810901Y-47856094D01*
X50810897Y-47856095D01*
X50555219Y-47949154D01*
X50555215Y-47949156D01*
X50551074Y-47950663D01*
X50303058Y-48082536D01*
X50299499Y-48085122D01*
X50299497Y-48085123D01*
X50194895Y-48161121D01*
X50075808Y-48247642D01*
X49873748Y-48442769D01*
X49700812Y-48664118D01*
X49698616Y-48667922D01*
X49698611Y-48667929D01*
X49584794Y-48865067D01*
X49560364Y-48907381D01*
X49455138Y-49167824D01*
X49454073Y-49172097D01*
X49454072Y-49172099D01*
X49420379Y-49307236D01*
X49387183Y-49440376D01*
X49357822Y-49719733D01*
X43217271Y-49719733D01*
X43212375Y-49579542D01*
X43188608Y-49444749D01*
X43164360Y-49307236D01*
X43163598Y-49302913D01*
X43076797Y-49035765D01*
X42953660Y-48783298D01*
X42951205Y-48779659D01*
X42951202Y-48779653D01*
X42870935Y-48660653D01*
X42796585Y-48550424D01*
X42608629Y-48341678D01*
X42393450Y-48161121D01*
X42155236Y-48012269D01*
X41898625Y-47898018D01*
X41628610Y-47820593D01*
X41624260Y-47819982D01*
X41624257Y-47819981D01*
X41521310Y-47805513D01*
X41350448Y-47781500D01*
X41139854Y-47781500D01*
X41137668Y-47781653D01*
X41137664Y-47781653D01*
X40934173Y-47795882D01*
X40934168Y-47795883D01*
X40929788Y-47796189D01*
X40655030Y-47854591D01*
X40650901Y-47856094D01*
X40650897Y-47856095D01*
X40395219Y-47949154D01*
X40395215Y-47949156D01*
X40391074Y-47950663D01*
X40143058Y-48082536D01*
X40139499Y-48085122D01*
X40139497Y-48085123D01*
X40034895Y-48161121D01*
X39915808Y-48247642D01*
X39713748Y-48442769D01*
X39540812Y-48664118D01*
X39538616Y-48667922D01*
X39538611Y-48667929D01*
X39424794Y-48865067D01*
X39400364Y-48907381D01*
X39295138Y-49167824D01*
X39294073Y-49172097D01*
X39294072Y-49172099D01*
X39260379Y-49307236D01*
X39227183Y-49440376D01*
X39197822Y-49719733D01*
X33057271Y-49719733D01*
X33052375Y-49579542D01*
X33028608Y-49444749D01*
X33004360Y-49307236D01*
X33003598Y-49302913D01*
X32916797Y-49035765D01*
X32793660Y-48783298D01*
X32791205Y-48779659D01*
X32791202Y-48779653D01*
X32710935Y-48660653D01*
X32636585Y-48550424D01*
X32448629Y-48341678D01*
X32233450Y-48161121D01*
X31995236Y-48012269D01*
X31738625Y-47898018D01*
X31468610Y-47820593D01*
X31464260Y-47819982D01*
X31464257Y-47819981D01*
X31361310Y-47805513D01*
X31190448Y-47781500D01*
X30979854Y-47781500D01*
X30977668Y-47781653D01*
X30977664Y-47781653D01*
X30774173Y-47795882D01*
X30774168Y-47795883D01*
X30769788Y-47796189D01*
X30495030Y-47854591D01*
X30490901Y-47856094D01*
X30490897Y-47856095D01*
X30235219Y-47949154D01*
X30235215Y-47949156D01*
X30231074Y-47950663D01*
X29983058Y-48082536D01*
X29979499Y-48085122D01*
X29979497Y-48085123D01*
X29874895Y-48161121D01*
X29755808Y-48247642D01*
X29553748Y-48442769D01*
X29380812Y-48664118D01*
X29378616Y-48667922D01*
X29378611Y-48667929D01*
X29264794Y-48865067D01*
X29240364Y-48907381D01*
X29135138Y-49167824D01*
X29134073Y-49172097D01*
X29134072Y-49172099D01*
X29100379Y-49307236D01*
X29067183Y-49440376D01*
X29037822Y-49719733D01*
X22298500Y-49719733D01*
X22298500Y-43882135D01*
X52572108Y-43882135D01*
X52572154Y-43887009D01*
X52572154Y-43887013D01*
X52572229Y-43894906D01*
X52572446Y-43917767D01*
X52572451Y-43919350D01*
X52572314Y-43951974D01*
X52572706Y-43954796D01*
X52572827Y-43957969D01*
X52573178Y-43994848D01*
X52573178Y-43994855D01*
X52573099Y-43998539D01*
X52572682Y-44001744D01*
X52572804Y-44006612D01*
X52573561Y-44036844D01*
X52573594Y-44038802D01*
X52573849Y-44065644D01*
X52573896Y-44070611D01*
X52574383Y-44073799D01*
X52574580Y-44077512D01*
X52575303Y-44106369D01*
X52575286Y-44111978D01*
X52574816Y-44116310D01*
X52576356Y-44149496D01*
X52576449Y-44152097D01*
X52577202Y-44182186D01*
X52577924Y-44186463D01*
X52578342Y-44192308D01*
X52579043Y-44207426D01*
X52578952Y-44214630D01*
X52579026Y-44214630D01*
X52579054Y-44219492D01*
X52578706Y-44224353D01*
X52579110Y-44229209D01*
X52581048Y-44252505D01*
X52581347Y-44257110D01*
X52581978Y-44270696D01*
X52582514Y-44282256D01*
X52583355Y-44286662D01*
X52583880Y-44291107D01*
X52583878Y-44291107D01*
X52584856Y-44298261D01*
X52585985Y-44311828D01*
X52586391Y-44319702D01*
X52586794Y-44339724D01*
X52588656Y-44350286D01*
X52590134Y-44361698D01*
X52590763Y-44369252D01*
X52591764Y-44373619D01*
X52592388Y-44376343D01*
X52595468Y-44399417D01*
X52595897Y-44410067D01*
X52596500Y-44425062D01*
X52599362Y-44433564D01*
X52617747Y-44488180D01*
X52621091Y-44499989D01*
X52627267Y-44526694D01*
X52631665Y-44534524D01*
X52634905Y-44542890D01*
X52634747Y-44542951D01*
X52638664Y-44551859D01*
X52638799Y-44552272D01*
X52638801Y-44552276D01*
X52641598Y-44560807D01*
X52646678Y-44568211D01*
X52646680Y-44568216D01*
X52661270Y-44589483D01*
X52669176Y-44602664D01*
X52670291Y-44604810D01*
X52670296Y-44604818D01*
X52672356Y-44608783D01*
X52674957Y-44612415D01*
X52677308Y-44616248D01*
X52677218Y-44616303D01*
X52680468Y-44621411D01*
X52699300Y-44654939D01*
X52711803Y-44667173D01*
X52726120Y-44683870D01*
X52736304Y-44698094D01*
X52743364Y-44703629D01*
X52743365Y-44703630D01*
X52766560Y-44721814D01*
X52776946Y-44730917D01*
X52804430Y-44757812D01*
X52812347Y-44762035D01*
X52812348Y-44762036D01*
X52819871Y-44766049D01*
X52838304Y-44778060D01*
X52852062Y-44788846D01*
X52860399Y-44792180D01*
X52887773Y-44803128D01*
X52898789Y-44808249D01*
X52899854Y-44808716D01*
X52904152Y-44811008D01*
X52927547Y-44819168D01*
X52932817Y-44821140D01*
X52988636Y-44843462D01*
X52997572Y-44844322D01*
X52999636Y-44844823D01*
X53005654Y-44845699D01*
X53021460Y-44848794D01*
X53027589Y-44850154D01*
X53027860Y-44850221D01*
X53028009Y-44850258D01*
X53034305Y-44851996D01*
X53035966Y-44852501D01*
X53040497Y-44854271D01*
X53045246Y-44855323D01*
X53045247Y-44855323D01*
X53071337Y-44861101D01*
X53074555Y-44861858D01*
X53090237Y-44865765D01*
X53102189Y-44868743D01*
X53106641Y-44869198D01*
X53109852Y-44869760D01*
X53115392Y-44870857D01*
X53122347Y-44872397D01*
X53125538Y-44873210D01*
X53128332Y-44874255D01*
X53152666Y-44879279D01*
X53163035Y-44881420D01*
X53164771Y-44881791D01*
X53196312Y-44888776D01*
X53199275Y-44889001D01*
X53202596Y-44889589D01*
X53230024Y-44895252D01*
X53232230Y-44895784D01*
X53234317Y-44896540D01*
X53239086Y-44897472D01*
X53239089Y-44897473D01*
X53270252Y-44903564D01*
X53271559Y-44903827D01*
X53299974Y-44909694D01*
X53304362Y-44910600D01*
X53306572Y-44910736D01*
X53308847Y-44911110D01*
X53350278Y-44919208D01*
X53351680Y-44919533D01*
X53353114Y-44920041D01*
X53390099Y-44926995D01*
X53390987Y-44927165D01*
X53424987Y-44933812D01*
X53426395Y-44933883D01*
X53427362Y-44934033D01*
X53455348Y-44939265D01*
X53455477Y-44939289D01*
X53491439Y-44946051D01*
X53491664Y-44946061D01*
X53491863Y-44946091D01*
X53494250Y-44946537D01*
X53541056Y-44955287D01*
X53604342Y-44987466D01*
X53640183Y-45048751D01*
X53637202Y-45119685D01*
X53622168Y-45149887D01*
X53610224Y-45167488D01*
X53610022Y-45167784D01*
X53595476Y-45188964D01*
X53595159Y-45189391D01*
X53594732Y-45189846D01*
X53593734Y-45191308D01*
X53593732Y-45191311D01*
X53572727Y-45222089D01*
X53572720Y-45222100D01*
X53572646Y-45222208D01*
X53552155Y-45252046D01*
X53551880Y-45252602D01*
X53551587Y-45253065D01*
X53525161Y-45291785D01*
X53523872Y-45293544D01*
X53522423Y-45295121D01*
X53519717Y-45299175D01*
X53519710Y-45299183D01*
X53501976Y-45325745D01*
X53501274Y-45326785D01*
X53482355Y-45354506D01*
X53481412Y-45356425D01*
X53480248Y-45358288D01*
X53465779Y-45379962D01*
X53460511Y-45387852D01*
X53458906Y-45390094D01*
X53457172Y-45392029D01*
X53454519Y-45396112D01*
X53454518Y-45396113D01*
X53437530Y-45422256D01*
X53436721Y-45423484D01*
X53418415Y-45450901D01*
X53417295Y-45453242D01*
X53415826Y-45455654D01*
X53405964Y-45470829D01*
X53403166Y-45474873D01*
X53400573Y-45477882D01*
X53398005Y-45482006D01*
X53398000Y-45482013D01*
X53382696Y-45506592D01*
X53381388Y-45508649D01*
X53372690Y-45522035D01*
X53364674Y-45534370D01*
X53363432Y-45537050D01*
X53355862Y-45548468D01*
X53355895Y-45548490D01*
X53353193Y-45552538D01*
X53350188Y-45556364D01*
X53345998Y-45563831D01*
X53344809Y-45565655D01*
X53343230Y-45567233D01*
X53340314Y-45572554D01*
X53332354Y-45587077D01*
X53328810Y-45593135D01*
X53328146Y-45594201D01*
X53326086Y-45597025D01*
X53321968Y-45603572D01*
X53316162Y-45610414D01*
X53312510Y-45618609D01*
X53312507Y-45618614D01*
X53304265Y-45637111D01*
X53299056Y-45647486D01*
X53292361Y-45659417D01*
X53291676Y-45661189D01*
X53291444Y-45661644D01*
X53291248Y-45662077D01*
X53288908Y-45666347D01*
X53287250Y-45670933D01*
X53280447Y-45689747D01*
X53277045Y-45698190D01*
X53259945Y-45736563D01*
X53259943Y-45736569D01*
X53256290Y-45744767D01*
X53255085Y-45753663D01*
X53255083Y-45753668D01*
X53254661Y-45756782D01*
X53254629Y-45756957D01*
X53252731Y-45761863D01*
X53251972Y-45770808D01*
X53251972Y-45770809D01*
X53250921Y-45783201D01*
X53250232Y-45789461D01*
X53249416Y-45795483D01*
X53247932Y-45804141D01*
X53237529Y-45854261D01*
X53238245Y-45863211D01*
X53237685Y-45872170D01*
X53237539Y-45872161D01*
X53237525Y-45872656D01*
X53237672Y-45872655D01*
X53237739Y-45881631D01*
X53236534Y-45890524D01*
X53237873Y-45899398D01*
X53237873Y-45899401D01*
X53244168Y-45941119D01*
X53245177Y-45949868D01*
X53249258Y-46000883D01*
X53252456Y-46009270D01*
X53254433Y-46018025D01*
X53254290Y-46018057D01*
X53254416Y-46018538D01*
X53254557Y-46018496D01*
X53257141Y-46027092D01*
X53258480Y-46035967D01*
X53262255Y-46044106D01*
X53262256Y-46044110D01*
X53280010Y-46082391D01*
X53283434Y-46090506D01*
X53301667Y-46138319D01*
X53309854Y-46149115D01*
X53333208Y-46179912D01*
X53339673Y-46189289D01*
X53350644Y-46206852D01*
X53350649Y-46206859D01*
X53353226Y-46210984D01*
X53356412Y-46214669D01*
X53356646Y-46214986D01*
X53359113Y-46217997D01*
X53361265Y-46221221D01*
X53364260Y-46224561D01*
X53364263Y-46224565D01*
X53378988Y-46240986D01*
X53385573Y-46248967D01*
X53390544Y-46255522D01*
X53392686Y-46257108D01*
X53393555Y-46258082D01*
X53394829Y-46259701D01*
X53397534Y-46263749D01*
X53400831Y-46267333D01*
X53417951Y-46285944D01*
X53420537Y-46288844D01*
X53435251Y-46305864D01*
X53438188Y-46309261D01*
X53441575Y-46312206D01*
X53444735Y-46315375D01*
X53444646Y-46315464D01*
X53448996Y-46319693D01*
X53450695Y-46321540D01*
X53452948Y-46324148D01*
X53454698Y-46326684D01*
X53458041Y-46330212D01*
X53458051Y-46330224D01*
X53478955Y-46352282D01*
X53480231Y-46353649D01*
X53498932Y-46373979D01*
X53498939Y-46373986D01*
X53501974Y-46377285D01*
X53504354Y-46379229D01*
X53506861Y-46381729D01*
X53520998Y-46396648D01*
X53522334Y-46398157D01*
X53523496Y-46399806D01*
X53549221Y-46426436D01*
X53549936Y-46427184D01*
X53573250Y-46451787D01*
X53574828Y-46453037D01*
X53576296Y-46454467D01*
X53598548Y-46477503D01*
X53599576Y-46478644D01*
X53600498Y-46479932D01*
X53603436Y-46482928D01*
X53603444Y-46482937D01*
X53626866Y-46506823D01*
X53627526Y-46507501D01*
X53648540Y-46529256D01*
X53648551Y-46529266D01*
X53651429Y-46532246D01*
X53652684Y-46533221D01*
X53653795Y-46534285D01*
X53674947Y-46555854D01*
X53679948Y-46560955D01*
X53680912Y-46562009D01*
X53681792Y-46563221D01*
X53684604Y-46566048D01*
X53684610Y-46566055D01*
X53708443Y-46590018D01*
X53708913Y-46590493D01*
X53733260Y-46615322D01*
X53734448Y-46616231D01*
X53735487Y-46617211D01*
X53757130Y-46638971D01*
X53761276Y-46643140D01*
X53762371Y-46644320D01*
X53763356Y-46645655D01*
X53766447Y-46648715D01*
X53766467Y-46648736D01*
X53790003Y-46672031D01*
X53790705Y-46672731D01*
X53811879Y-46694022D01*
X53811888Y-46694031D01*
X53814927Y-46697086D01*
X53816252Y-46698084D01*
X53817442Y-46699190D01*
X53838520Y-46720052D01*
X53840066Y-46721687D01*
X53841394Y-46723448D01*
X53844901Y-46726847D01*
X53867691Y-46748936D01*
X53868636Y-46749861D01*
X53874275Y-46755442D01*
X53892471Y-46773453D01*
X53894238Y-46774763D01*
X53895934Y-46776310D01*
X53907810Y-46787821D01*
X53910763Y-46790859D01*
X53912974Y-46793685D01*
X53916529Y-46797013D01*
X53938123Y-46817228D01*
X53939662Y-46818693D01*
X53962196Y-46840534D01*
X53964033Y-46841867D01*
X53972850Y-46850634D01*
X53972989Y-46850496D01*
X53976416Y-46853950D01*
X53979568Y-46857661D01*
X53983255Y-46860844D01*
X53983258Y-46860847D01*
X53989022Y-46865824D01*
X53989944Y-46866737D01*
X53990675Y-46867853D01*
X53993544Y-46870301D01*
X53993549Y-46870306D01*
X54005719Y-46880690D01*
X54010040Y-46884552D01*
X54016012Y-46890142D01*
X54021388Y-46895175D01*
X54025057Y-46897741D01*
X54027819Y-46899980D01*
X54033238Y-46904171D01*
X54049451Y-46918005D01*
X54058363Y-46926392D01*
X54072879Y-46941447D01*
X54118485Y-46967507D01*
X54123894Y-46970783D01*
X54164793Y-46996994D01*
X54173411Y-46999523D01*
X54173605Y-46999611D01*
X54183861Y-47004865D01*
X54200588Y-47014424D01*
X54217543Y-47018477D01*
X54238432Y-47025450D01*
X54244631Y-47028142D01*
X54254422Y-47032394D01*
X54291819Y-47037101D01*
X54292631Y-47037203D01*
X54306193Y-47039670D01*
X54334921Y-47046538D01*
X54334922Y-47046538D01*
X54343647Y-47048624D01*
X54352610Y-47048177D01*
X54361060Y-47047756D01*
X54383067Y-47048586D01*
X54400361Y-47050763D01*
X54438395Y-47044653D01*
X54452083Y-47043217D01*
X54477468Y-47041951D01*
X54481593Y-47041745D01*
X54490554Y-47041298D01*
X54507027Y-47035576D01*
X54528373Y-47030199D01*
X54536726Y-47028857D01*
X54536727Y-47028857D01*
X54545589Y-47027433D01*
X54580389Y-47010890D01*
X54591776Y-47006222D01*
X54592719Y-47005810D01*
X54597320Y-47004212D01*
X54619142Y-46992607D01*
X54624179Y-46990071D01*
X54641471Y-46981851D01*
X54643336Y-46981009D01*
X54644007Y-46980659D01*
X54648476Y-46978748D01*
X54648660Y-46979179D01*
X54650490Y-46978817D01*
X54650004Y-46977794D01*
X54670327Y-46968133D01*
X54670329Y-46968132D01*
X54678431Y-46964280D01*
X54685128Y-46958308D01*
X54689317Y-46955527D01*
X54701613Y-46946873D01*
X54701338Y-46946450D01*
X54730280Y-46927669D01*
X54732113Y-46926502D01*
X54754888Y-46912275D01*
X54754889Y-46912274D01*
X54758693Y-46909898D01*
X54761408Y-46907608D01*
X54764967Y-46905160D01*
X54768901Y-46902607D01*
X54770485Y-46901654D01*
X54772185Y-46900875D01*
X54776221Y-46898205D01*
X54803245Y-46880327D01*
X54804178Y-46879715D01*
X54806716Y-46878068D01*
X54832663Y-46861231D01*
X54834064Y-46860007D01*
X54835589Y-46858929D01*
X54857021Y-46844749D01*
X54858083Y-46844099D01*
X54859285Y-46843539D01*
X54890807Y-46822400D01*
X54891460Y-46821965D01*
X54917619Y-46804658D01*
X54917625Y-46804653D01*
X54920581Y-46802698D01*
X54921567Y-46801821D01*
X54922591Y-46801085D01*
X54957062Y-46777968D01*
X54957817Y-46777500D01*
X54958704Y-46777082D01*
X54990672Y-46755430D01*
X54991134Y-46755119D01*
X54991564Y-46754831D01*
X54995716Y-46752046D01*
X55018227Y-46736950D01*
X55018234Y-46736945D01*
X55020481Y-46735438D01*
X55021211Y-46734780D01*
X55021932Y-46734256D01*
X55032323Y-46727218D01*
X55032603Y-46727044D01*
X55032961Y-46726874D01*
X55033917Y-46726224D01*
X55065554Y-46704711D01*
X55065745Y-46704581D01*
X55074992Y-46698318D01*
X55095784Y-46684235D01*
X55096071Y-46683975D01*
X55096350Y-46683771D01*
X55135564Y-46657106D01*
X55203142Y-46635341D01*
X55271759Y-46653568D01*
X55319630Y-46705998D01*
X55330232Y-46737954D01*
X55352122Y-46854069D01*
X55388991Y-47049635D01*
X55418461Y-47205957D01*
X55420640Y-47230070D01*
X55420566Y-47242100D01*
X55432807Y-47284930D01*
X55435469Y-47296182D01*
X55436765Y-47303054D01*
X55443300Y-47322222D01*
X55445188Y-47328252D01*
X55460986Y-47383527D01*
X55465775Y-47391117D01*
X55467456Y-47394875D01*
X55469315Y-47398527D01*
X55472211Y-47407022D01*
X55477374Y-47414360D01*
X55477375Y-47414363D01*
X55505295Y-47454049D01*
X55508799Y-47459305D01*
X55539475Y-47507925D01*
X55546206Y-47513869D01*
X55548868Y-47516997D01*
X55551682Y-47519986D01*
X55556845Y-47527325D01*
X55601793Y-47563173D01*
X55606624Y-47567229D01*
X55611134Y-47571212D01*
X55649724Y-47605293D01*
X55657848Y-47609107D01*
X55661302Y-47611376D01*
X55664828Y-47613446D01*
X55671840Y-47619039D01*
X55687653Y-47625516D01*
X55725042Y-47640831D01*
X55730831Y-47643374D01*
X55774745Y-47663991D01*
X55782869Y-47667805D01*
X55791732Y-47669185D01*
X55795640Y-47670380D01*
X55799645Y-47671388D01*
X55807954Y-47674791D01*
X55830250Y-47677124D01*
X55865141Y-47680775D01*
X55871412Y-47681591D01*
X55894547Y-47685193D01*
X55900785Y-47685193D01*
X55913897Y-47685877D01*
X55954245Y-47690099D01*
X55969969Y-47687234D01*
X55992555Y-47685193D01*
X56798064Y-47685193D01*
X56822159Y-47687519D01*
X56823858Y-47687850D01*
X56825157Y-47688103D01*
X56825158Y-47688103D01*
X56833965Y-47689819D01*
X56862817Y-47687156D01*
X56878307Y-47685726D01*
X56889888Y-47685193D01*
X56896863Y-47685193D01*
X56916911Y-47682322D01*
X56923181Y-47681583D01*
X56937429Y-47680268D01*
X56971496Y-47677124D01*
X56971497Y-47677124D01*
X56980432Y-47676299D01*
X56988778Y-47672999D01*
X56992773Y-47672045D01*
X56996712Y-47670893D01*
X57005598Y-47669621D01*
X57017981Y-47663991D01*
X57057943Y-47645821D01*
X57063765Y-47643349D01*
X57108866Y-47625516D01*
X57117217Y-47622214D01*
X57124307Y-47616700D01*
X57127876Y-47614662D01*
X57131327Y-47612455D01*
X57139498Y-47608740D01*
X57150395Y-47599351D01*
X57183051Y-47571212D01*
X57187945Y-47567205D01*
X57226239Y-47537423D01*
X57226242Y-47537420D01*
X57233324Y-47531912D01*
X57238578Y-47524635D01*
X57241432Y-47521676D01*
X57244129Y-47518584D01*
X57250928Y-47512726D01*
X57255811Y-47505193D01*
X57282202Y-47464477D01*
X57285755Y-47459285D01*
X57319419Y-47412652D01*
X57322419Y-47404192D01*
X57324336Y-47400537D01*
X57326051Y-47396825D01*
X57330931Y-47389296D01*
X57347408Y-47334203D01*
X57349370Y-47328198D01*
X57355569Y-47310716D01*
X57355572Y-47310705D01*
X57357195Y-47306128D01*
X57358351Y-47299998D01*
X57361452Y-47287243D01*
X57370503Y-47256978D01*
X57373076Y-47248374D01*
X57373174Y-47232381D01*
X57375353Y-47209811D01*
X57455256Y-46785967D01*
X57455256Y-46785964D01*
X57464307Y-46737955D01*
X57496583Y-46674719D01*
X57557924Y-46638971D01*
X57628853Y-46642062D01*
X57658978Y-46657106D01*
X57695679Y-46682063D01*
X57696091Y-46682366D01*
X57696510Y-46682756D01*
X57697866Y-46683672D01*
X57697869Y-46683675D01*
X57713174Y-46694022D01*
X57729120Y-46704803D01*
X57730877Y-46705998D01*
X57753336Y-46721269D01*
X57758989Y-46725113D01*
X57759507Y-46725367D01*
X57759927Y-46725630D01*
X57800925Y-46753347D01*
X57801832Y-46754009D01*
X57802727Y-46754831D01*
X57834635Y-46776139D01*
X57835102Y-46776453D01*
X57861388Y-46794224D01*
X57861402Y-46794233D01*
X57864102Y-46796058D01*
X57865189Y-46796586D01*
X57866153Y-46797185D01*
X57897259Y-46817956D01*
X57898391Y-46818771D01*
X57899484Y-46819762D01*
X57931082Y-46840545D01*
X57931757Y-46840993D01*
X57957342Y-46858079D01*
X57957366Y-46858093D01*
X57960583Y-46860242D01*
X57961914Y-46860880D01*
X57963097Y-46861604D01*
X57979875Y-46872639D01*
X57981726Y-46873948D01*
X57983404Y-46875436D01*
X58014249Y-46895257D01*
X58015312Y-46895949D01*
X58039514Y-46911868D01*
X58039519Y-46911871D01*
X58043270Y-46914338D01*
X58043757Y-46914567D01*
X58050911Y-46919128D01*
X58054115Y-46921836D01*
X58081754Y-46938677D01*
X58084275Y-46940255D01*
X58108889Y-46956072D01*
X58108636Y-46956466D01*
X58121424Y-46965121D01*
X58133569Y-46975130D01*
X58141822Y-46978666D01*
X58141825Y-46978668D01*
X58188876Y-46998827D01*
X58193985Y-47001151D01*
X58213533Y-47010581D01*
X58218368Y-47012115D01*
X58229881Y-47016396D01*
X58268771Y-47033059D01*
X58282286Y-47034693D01*
X58305257Y-47039679D01*
X58309679Y-47041082D01*
X58309680Y-47041082D01*
X58318235Y-47043796D01*
X58327206Y-47044000D01*
X58327208Y-47044000D01*
X58341009Y-47044313D01*
X58360544Y-47044757D01*
X58372790Y-47045634D01*
X58414797Y-47050713D01*
X58423653Y-47049246D01*
X58423655Y-47049246D01*
X58428223Y-47048489D01*
X58451673Y-47046827D01*
X58452720Y-47046851D01*
X58465287Y-47047136D01*
X58506160Y-47036185D01*
X58518155Y-47033591D01*
X58531102Y-47031446D01*
X58551050Y-47028142D01*
X58551053Y-47028141D01*
X58559909Y-47026674D01*
X58572176Y-47020768D01*
X58594222Y-47012591D01*
X58598691Y-47011394D01*
X58598696Y-47011392D01*
X58607366Y-47009069D01*
X58622385Y-46999938D01*
X58636722Y-46991221D01*
X58638273Y-46993771D01*
X58639866Y-46992420D01*
X58638711Y-46990632D01*
X58643621Y-46987461D01*
X58657330Y-46979774D01*
X58661746Y-46977648D01*
X58679119Y-46965683D01*
X58685127Y-46961792D01*
X58725380Y-46937318D01*
X58725381Y-46937317D01*
X58733049Y-46932655D01*
X58739099Y-46926030D01*
X58739122Y-46926011D01*
X58746642Y-46918451D01*
X58767829Y-46898896D01*
X58769455Y-46897421D01*
X58771927Y-46895218D01*
X58773230Y-46894057D01*
X58778004Y-46890309D01*
X58777869Y-46890142D01*
X58781657Y-46887070D01*
X58785655Y-46884310D01*
X58789179Y-46880969D01*
X58789187Y-46880963D01*
X58807549Y-46863557D01*
X58810409Y-46860928D01*
X58811771Y-46859715D01*
X58830563Y-46842970D01*
X58833460Y-46839535D01*
X58836578Y-46836331D01*
X58836669Y-46836420D01*
X58840838Y-46832001D01*
X58842589Y-46830341D01*
X58845132Y-46828078D01*
X58847647Y-46826286D01*
X58872910Y-46801618D01*
X58874236Y-46800342D01*
X58880691Y-46794224D01*
X58897545Y-46778248D01*
X58899454Y-46775837D01*
X58901900Y-46773312D01*
X58916567Y-46758990D01*
X58918040Y-46757646D01*
X58919665Y-46756465D01*
X58945911Y-46730344D01*
X58946677Y-46729590D01*
X58967699Y-46709063D01*
X58970910Y-46705928D01*
X58972134Y-46704335D01*
X58973532Y-46702855D01*
X58996205Y-46680291D01*
X58997314Y-46679262D01*
X58998591Y-46678319D01*
X59004123Y-46672731D01*
X59023091Y-46653568D01*
X59025169Y-46651469D01*
X59025693Y-46650943D01*
X59050147Y-46626606D01*
X59051098Y-46625344D01*
X59052135Y-46624227D01*
X59078410Y-46597683D01*
X59079438Y-46596715D01*
X59080628Y-46595823D01*
X59089619Y-46586611D01*
X59107021Y-46568783D01*
X59107639Y-46568154D01*
X59114765Y-46560955D01*
X59131973Y-46543571D01*
X59132862Y-46542372D01*
X59133827Y-46541317D01*
X59159361Y-46515158D01*
X59160514Y-46514056D01*
X59161833Y-46513051D01*
X59187873Y-46485950D01*
X59188485Y-46485318D01*
X59209501Y-46463787D01*
X59209505Y-46463783D01*
X59212502Y-46460712D01*
X59213475Y-46459380D01*
X59214566Y-46458170D01*
X59235122Y-46436777D01*
X59236731Y-46435211D01*
X59238462Y-46433864D01*
X59245107Y-46426803D01*
X59263641Y-46407106D01*
X59264468Y-46406236D01*
X59287724Y-46382033D01*
X59289001Y-46380256D01*
X59290499Y-46378564D01*
X59301899Y-46366448D01*
X59304858Y-46363487D01*
X59307628Y-46361254D01*
X59330904Y-46335648D01*
X59332196Y-46334251D01*
X59353791Y-46311302D01*
X59355064Y-46309491D01*
X59363651Y-46300602D01*
X59363503Y-46300457D01*
X59366908Y-46296980D01*
X59370573Y-46293775D01*
X59378519Y-46284299D01*
X59379117Y-46283679D01*
X59379841Y-46283192D01*
X59391724Y-46268917D01*
X59395311Y-46264794D01*
X59404560Y-46254620D01*
X59404561Y-46254619D01*
X59407577Y-46251301D01*
X59410092Y-46247588D01*
X59410586Y-46246961D01*
X59421614Y-46235377D01*
X59424958Y-46231508D01*
X59431730Y-46225619D01*
X59436574Y-46218070D01*
X59436577Y-46218067D01*
X59440851Y-46211406D01*
X59446238Y-46204055D01*
X59446219Y-46204041D01*
X59448411Y-46200951D01*
X59449371Y-46199806D01*
X59449711Y-46199258D01*
X59452152Y-46196326D01*
X59461986Y-46179912D01*
X59468790Y-46168554D01*
X59469831Y-46166847D01*
X59480840Y-46149115D01*
X59481842Y-46147528D01*
X59506320Y-46109381D01*
X59506321Y-46109378D01*
X59511168Y-46101825D01*
X59515710Y-46086383D01*
X59521850Y-46065504D01*
X59526555Y-46052278D01*
X59537736Y-46025648D01*
X59537736Y-46025647D01*
X59541211Y-46017371D01*
X59543083Y-46000883D01*
X59543251Y-45999398D01*
X59547566Y-45978060D01*
X59550135Y-45969325D01*
X59550135Y-45969323D01*
X59552668Y-45960711D01*
X59552692Y-45945476D01*
X59552726Y-45922846D01*
X59553530Y-45908829D01*
X59556787Y-45880137D01*
X59556787Y-45880136D01*
X59557799Y-45871219D01*
X59554714Y-45853404D01*
X59552866Y-45831709D01*
X59552880Y-45822598D01*
X59552894Y-45813622D01*
X59550389Y-45805007D01*
X59550388Y-45804999D01*
X59542323Y-45777263D01*
X59539164Y-45763602D01*
X59532702Y-45726286D01*
X59514783Y-45689747D01*
X59502562Y-45664829D01*
X59498902Y-45656641D01*
X59492126Y-45639907D01*
X59492125Y-45639906D01*
X59490300Y-45635398D01*
X59486488Y-45629027D01*
X59480796Y-45618313D01*
X59480558Y-45617886D01*
X59478659Y-45613825D01*
X59476202Y-45610072D01*
X59474025Y-45606166D01*
X59474217Y-45606059D01*
X59472965Y-45603861D01*
X59471884Y-45602275D01*
X59467935Y-45594223D01*
X59462632Y-45588420D01*
X59457250Y-45579524D01*
X59455405Y-45575307D01*
X59438688Y-45549048D01*
X59436855Y-45546078D01*
X59424776Y-45525892D01*
X59424769Y-45525882D01*
X59422467Y-45522035D01*
X59419640Y-45518549D01*
X59417098Y-45514915D01*
X59414059Y-45510363D01*
X59411175Y-45505833D01*
X59409424Y-45502883D01*
X59408150Y-45500085D01*
X59388747Y-45470580D01*
X59387735Y-45469016D01*
X59376202Y-45450901D01*
X59370493Y-45441933D01*
X59368498Y-45439608D01*
X59366485Y-45436728D01*
X59357362Y-45422853D01*
X59351695Y-45414235D01*
X59350496Y-45412273D01*
X59349536Y-45410224D01*
X59329113Y-45379883D01*
X59328415Y-45378834D01*
X59312465Y-45354579D01*
X59312459Y-45354571D01*
X59310004Y-45350838D01*
X59308511Y-45349149D01*
X59307132Y-45347229D01*
X59283908Y-45312728D01*
X59283119Y-45311462D01*
X59282453Y-45310066D01*
X59280144Y-45306690D01*
X59280130Y-45306667D01*
X59261213Y-45279005D01*
X59260693Y-45278240D01*
X59243674Y-45252957D01*
X59241400Y-45249578D01*
X59240361Y-45248428D01*
X59239471Y-45247211D01*
X59222496Y-45222390D01*
X59222298Y-45222100D01*
X59201281Y-45191311D01*
X59173124Y-45150064D01*
X59151238Y-45082525D01*
X59169340Y-45013875D01*
X59221684Y-44965910D01*
X59253842Y-44955209D01*
X59272891Y-44951618D01*
X59299626Y-44946638D01*
X59300345Y-44946531D01*
X59301191Y-44946502D01*
X59339284Y-44939249D01*
X59339628Y-44939184D01*
X59374739Y-44932643D01*
X59375541Y-44932372D01*
X59376260Y-44932209D01*
X59422630Y-44923381D01*
X59424653Y-44923066D01*
X59426721Y-44922976D01*
X59462827Y-44915734D01*
X59464039Y-44915497D01*
X59467786Y-44914784D01*
X59497211Y-44909181D01*
X59499163Y-44908511D01*
X59501219Y-44908033D01*
X59536569Y-44900942D01*
X59539162Y-44900510D01*
X59541648Y-44900372D01*
X59556447Y-44897220D01*
X59577094Y-44892823D01*
X59578559Y-44892520D01*
X59597224Y-44888776D01*
X59610934Y-44886026D01*
X59613275Y-44885197D01*
X59615865Y-44884565D01*
X59634428Y-44880611D01*
X59638918Y-44879792D01*
X59642680Y-44879514D01*
X59647420Y-44878413D01*
X59647428Y-44878412D01*
X59675885Y-44871803D01*
X59678141Y-44871300D01*
X59680221Y-44870857D01*
X59708508Y-44864832D01*
X59710956Y-44863933D01*
X59723690Y-44861370D01*
X59723666Y-44861245D01*
X59728444Y-44860309D01*
X59733276Y-44859744D01*
X59737960Y-44858444D01*
X59737964Y-44858443D01*
X59758706Y-44852685D01*
X59763905Y-44851360D01*
X59786560Y-44846099D01*
X59790741Y-44844475D01*
X59790745Y-44844474D01*
X59791027Y-44844364D01*
X59802967Y-44840400D01*
X59804287Y-44840034D01*
X59805740Y-44839631D01*
X59807216Y-44839231D01*
X59844700Y-44829323D01*
X59847396Y-44828142D01*
X59855374Y-44825763D01*
X59878868Y-44819918D01*
X59886625Y-44815390D01*
X59886628Y-44815389D01*
X59910499Y-44801456D01*
X59923444Y-44794869D01*
X59940554Y-44787371D01*
X59940555Y-44787370D01*
X59948776Y-44783768D01*
X59958892Y-44775290D01*
X59976305Y-44763045D01*
X59998144Y-44750298D01*
X59998146Y-44750297D01*
X60005901Y-44745770D01*
X60010713Y-44740686D01*
X60016667Y-44736994D01*
X60047249Y-44702903D01*
X60049884Y-44700356D01*
X60054635Y-44695058D01*
X60061515Y-44689293D01*
X60066501Y-44681827D01*
X60066665Y-44681645D01*
X60068937Y-44679180D01*
X60107018Y-44638950D01*
X60110212Y-44632717D01*
X60114888Y-44627504D01*
X60120254Y-44616303D01*
X60142972Y-44568875D01*
X60144429Y-44565933D01*
X60158556Y-44538361D01*
X60158557Y-44538359D01*
X60158642Y-44538403D01*
X60161725Y-44531390D01*
X60166465Y-44523768D01*
X60168876Y-44515120D01*
X60169790Y-44513041D01*
X60171503Y-44509310D01*
X60178431Y-44494848D01*
X60179882Y-44485985D01*
X60182239Y-44471587D01*
X60186940Y-44452426D01*
X60189296Y-44445293D01*
X60190701Y-44441039D01*
X60191729Y-44435288D01*
X60194396Y-44423597D01*
X60195515Y-44419584D01*
X60196822Y-44414898D01*
X60199208Y-44394679D01*
X60200304Y-44387288D01*
X60208440Y-44341746D01*
X60208440Y-44341745D01*
X60210019Y-44332907D01*
X60209054Y-44323981D01*
X60209364Y-44315012D01*
X60209498Y-44315017D01*
X60209391Y-44310386D01*
X60209431Y-44309735D01*
X60210063Y-44302692D01*
X60211789Y-44288065D01*
X60211789Y-44288064D01*
X60212315Y-44283607D01*
X60212094Y-44274709D01*
X60212299Y-44263746D01*
X60212467Y-44261056D01*
X60213009Y-44252378D01*
X60213556Y-44246122D01*
X60213837Y-44243629D01*
X60214756Y-44238838D01*
X60215851Y-44207553D01*
X60216018Y-44204137D01*
X60217490Y-44180542D01*
X60217490Y-44180535D01*
X60217769Y-44176062D01*
X60217411Y-44171594D01*
X60217375Y-44167524D01*
X60217447Y-44162002D01*
X60218189Y-44140798D01*
X60218474Y-44136392D01*
X60219104Y-44132760D01*
X60219691Y-44098477D01*
X60219750Y-44096224D01*
X60220683Y-44069584D01*
X60220683Y-44069583D01*
X60220840Y-44065099D01*
X60220446Y-44061441D01*
X60220403Y-44056903D01*
X60220731Y-44037771D01*
X60220978Y-44023371D01*
X60221136Y-44020109D01*
X60221603Y-44017164D01*
X60221703Y-43981759D01*
X60221720Y-43979997D01*
X60222097Y-43957984D01*
X60222274Y-43947642D01*
X60221904Y-43944696D01*
X60221817Y-43941307D01*
X60221876Y-43920700D01*
X60221926Y-43902904D01*
X60222034Y-43899787D01*
X60222442Y-43896964D01*
X60222133Y-43868423D01*
X60222055Y-43861234D01*
X60222048Y-43859604D01*
X60222140Y-43827118D01*
X60221745Y-43824302D01*
X60221619Y-43821133D01*
X60221219Y-43784146D01*
X60221292Y-43780502D01*
X60221703Y-43777306D01*
X60221133Y-43755677D01*
X60220781Y-43742345D01*
X60220744Y-43740391D01*
X60220446Y-43712922D01*
X60220446Y-43712918D01*
X60220397Y-43708430D01*
X60219906Y-43705248D01*
X60219702Y-43701487D01*
X60219210Y-43682796D01*
X60218940Y-43672570D01*
X60218949Y-43666963D01*
X60219412Y-43662643D01*
X60218861Y-43651085D01*
X60217831Y-43629465D01*
X60217732Y-43626790D01*
X60217057Y-43601223D01*
X60216939Y-43596732D01*
X60216212Y-43592465D01*
X60215790Y-43586647D01*
X60215064Y-43571402D01*
X60215146Y-43564249D01*
X60215067Y-43564250D01*
X60215034Y-43559379D01*
X60215376Y-43554524D01*
X60212997Y-43526276D01*
X60212695Y-43521699D01*
X60211708Y-43500972D01*
X60211707Y-43500966D01*
X60211494Y-43496489D01*
X60210648Y-43492088D01*
X60210117Y-43487633D01*
X60210124Y-43487632D01*
X60209146Y-43480532D01*
X60208017Y-43467129D01*
X60207597Y-43459062D01*
X60207304Y-43444343D01*
X60207304Y-43444342D01*
X60207207Y-43439479D01*
X60206364Y-43434693D01*
X60206363Y-43434682D01*
X60205284Y-43428558D01*
X60203819Y-43417284D01*
X60203526Y-43413807D01*
X60203150Y-43409342D01*
X60202131Y-43404915D01*
X60202110Y-43404749D01*
X60201452Y-43400544D01*
X60201564Y-43400526D01*
X60198981Y-43380530D01*
X60198579Y-43367475D01*
X60198303Y-43358498D01*
X60194940Y-43348186D01*
X60186699Y-43322915D01*
X60186634Y-43322690D01*
X60186584Y-43322406D01*
X60181757Y-43307672D01*
X60177685Y-43291833D01*
X60175536Y-43280454D01*
X60173870Y-43271631D01*
X60167305Y-43258743D01*
X60159843Y-43240791D01*
X60152383Y-43218021D01*
X60147307Y-43210619D01*
X60147305Y-43210615D01*
X60134412Y-43191816D01*
X60125963Y-43177571D01*
X60124088Y-43173876D01*
X60126067Y-43172872D01*
X60126049Y-43172800D01*
X60124046Y-43173820D01*
X60111181Y-43148564D01*
X60107107Y-43140566D01*
X60088235Y-43120535D01*
X60076809Y-43106514D01*
X60066152Y-43091330D01*
X60066151Y-43091329D01*
X60060992Y-43083978D01*
X60053979Y-43078372D01*
X60053976Y-43078369D01*
X60038775Y-43066218D01*
X60025741Y-43054203D01*
X60006243Y-43033507D01*
X59982495Y-43019571D01*
X59967595Y-43009321D01*
X59953112Y-42997743D01*
X59953109Y-42997742D01*
X59946097Y-42992136D01*
X59913470Y-42978730D01*
X59911058Y-42977648D01*
X59908765Y-42976302D01*
X59904241Y-42974515D01*
X59904233Y-42974511D01*
X59878355Y-42964288D01*
X59876762Y-42963646D01*
X59845364Y-42950745D01*
X59842456Y-42949507D01*
X59832128Y-42944957D01*
X59832120Y-42944954D01*
X59827668Y-42942993D01*
X59824626Y-42942182D01*
X59823245Y-42941656D01*
X59818353Y-42939646D01*
X59818349Y-42939645D01*
X59810045Y-42936233D01*
X59801114Y-42935289D01*
X59794984Y-42933739D01*
X59792786Y-42933362D01*
X59790644Y-42932851D01*
X59782571Y-42930927D01*
X59779364Y-42930118D01*
X59769911Y-42927598D01*
X59762758Y-42925239D01*
X59762748Y-42925273D01*
X59758089Y-42923835D01*
X59753564Y-42922045D01*
X59726445Y-42915918D01*
X59721871Y-42914793D01*
X59698022Y-42908436D01*
X59693568Y-42907907D01*
X59690751Y-42907367D01*
X59681718Y-42905814D01*
X59678729Y-42905139D01*
X59675518Y-42904413D01*
X59669057Y-42902772D01*
X59668874Y-42902720D01*
X59664308Y-42901041D01*
X59659540Y-42900085D01*
X59659534Y-42900083D01*
X59634302Y-42895023D01*
X59632653Y-42894692D01*
X59629721Y-42894067D01*
X59601300Y-42887646D01*
X59596823Y-42887287D01*
X59595219Y-42887043D01*
X59589401Y-42886017D01*
X59571344Y-42882395D01*
X59568172Y-42881654D01*
X59565389Y-42880675D01*
X59560601Y-42879785D01*
X59560593Y-42879783D01*
X59533020Y-42874658D01*
X59532538Y-42874550D01*
X59532023Y-42874370D01*
X59530470Y-42874086D01*
X59530468Y-42874085D01*
X59525091Y-42873100D01*
X59523078Y-42872714D01*
X59497064Y-42867497D01*
X59494121Y-42867333D01*
X59490838Y-42866819D01*
X59457743Y-42860668D01*
X59457186Y-42860645D01*
X59456713Y-42860575D01*
X59339171Y-42839044D01*
X59338746Y-42838965D01*
X59281589Y-42828292D01*
X59218297Y-42796126D01*
X59187397Y-42750389D01*
X59178104Y-42726662D01*
X59177658Y-42725502D01*
X59175739Y-42720417D01*
X59170406Y-42649622D01*
X59189719Y-42604671D01*
X59220797Y-42559359D01*
X59221790Y-42558016D01*
X59222860Y-42556864D01*
X59244011Y-42525575D01*
X59244324Y-42525116D01*
X59263905Y-42496627D01*
X59264630Y-42495163D01*
X59265476Y-42493822D01*
X59289359Y-42458492D01*
X59291706Y-42455238D01*
X59294010Y-42452674D01*
X59296664Y-42448603D01*
X59296668Y-42448598D01*
X59312365Y-42424520D01*
X59312928Y-42423657D01*
X59314076Y-42421927D01*
X59331765Y-42395760D01*
X59333269Y-42392665D01*
X59335442Y-42389125D01*
X59352532Y-42362912D01*
X59355572Y-42358526D01*
X59358315Y-42355345D01*
X59372088Y-42333242D01*
X59375999Y-42326965D01*
X59377387Y-42324789D01*
X59391495Y-42303149D01*
X59391498Y-42303144D01*
X59393942Y-42299395D01*
X59395706Y-42295603D01*
X59398517Y-42290826D01*
X59405623Y-42279421D01*
X59409394Y-42274117D01*
X59409263Y-42274027D01*
X59412009Y-42270025D01*
X59415072Y-42266227D01*
X59419780Y-42258084D01*
X59429808Y-42240739D01*
X59431950Y-42237170D01*
X59443485Y-42218658D01*
X59445854Y-42214856D01*
X59447660Y-42210756D01*
X59449757Y-42206788D01*
X59449825Y-42206824D01*
X59452770Y-42201020D01*
X59456553Y-42194476D01*
X59461095Y-42187205D01*
X59462990Y-42184390D01*
X59471291Y-42172055D01*
X59473353Y-42167651D01*
X59473360Y-42167639D01*
X59476557Y-42160811D01*
X59481577Y-42151192D01*
X59481594Y-42151163D01*
X59485848Y-42143805D01*
X59492493Y-42133500D01*
X59498812Y-42124679D01*
X59512596Y-42085349D01*
X59517385Y-42073614D01*
X59519172Y-42069796D01*
X59519234Y-42069825D01*
X59520699Y-42066488D01*
X59527937Y-42051907D01*
X59527938Y-42051904D01*
X59531928Y-42043866D01*
X59537445Y-42012889D01*
X59540961Y-41998268D01*
X59548570Y-41973289D01*
X59551186Y-41964701D01*
X59551415Y-41944228D01*
X59553359Y-41923543D01*
X59556147Y-41907892D01*
X59557721Y-41899056D01*
X59554920Y-41873270D01*
X59554286Y-41854577D01*
X59554971Y-41837633D01*
X59554971Y-41837629D01*
X59555333Y-41828660D01*
X59552819Y-41818568D01*
X59553017Y-41818519D01*
X59552922Y-41817588D01*
X59552829Y-41817614D01*
X59551107Y-41811469D01*
X59550170Y-41807930D01*
X59549720Y-41806123D01*
X59548075Y-41799520D01*
X59545077Y-41782677D01*
X59542803Y-41761747D01*
X59541834Y-41752826D01*
X59538401Y-41744540D01*
X59538399Y-41744530D01*
X59531908Y-41728861D01*
X59526051Y-41711094D01*
X59522223Y-41695724D01*
X59519784Y-41685930D01*
X59504448Y-41659670D01*
X59503536Y-41657866D01*
X59502658Y-41654638D01*
X59498351Y-41647611D01*
X59498347Y-41647604D01*
X59479032Y-41616096D01*
X59477651Y-41613787D01*
X59450134Y-41566670D01*
X59445605Y-41558915D01*
X59439084Y-41552746D01*
X59436972Y-41550084D01*
X59433650Y-41546580D01*
X59422487Y-41533443D01*
X59421358Y-41532094D01*
X59401853Y-41508432D01*
X59400241Y-41506436D01*
X59397837Y-41503395D01*
X59395120Y-41499352D01*
X59390586Y-41494447D01*
X59385892Y-41489071D01*
X59381294Y-41483493D01*
X59381293Y-41483492D01*
X59375869Y-41476912D01*
X59373159Y-41475070D01*
X59370860Y-41472690D01*
X59358311Y-41457923D01*
X59354907Y-41454913D01*
X59345859Y-41446060D01*
X59345489Y-41445659D01*
X59340826Y-41440614D01*
X59337307Y-41436584D01*
X59334891Y-41433143D01*
X59331518Y-41429641D01*
X59331514Y-41429636D01*
X59311649Y-41409010D01*
X59309878Y-41407133D01*
X59292397Y-41388222D01*
X59292394Y-41388219D01*
X59289348Y-41384924D01*
X59286097Y-41382281D01*
X59282167Y-41378402D01*
X59267019Y-41362675D01*
X59264989Y-41360428D01*
X59263356Y-41358167D01*
X59259937Y-41354711D01*
X59259932Y-41354705D01*
X59238216Y-41332753D01*
X59237040Y-41331549D01*
X59217551Y-41311314D01*
X59217545Y-41311308D01*
X59214444Y-41308089D01*
X59212253Y-41306382D01*
X59210016Y-41304248D01*
X59195087Y-41289157D01*
X59186583Y-41280561D01*
X59185031Y-41278883D01*
X59183697Y-41277078D01*
X59180242Y-41273659D01*
X59180234Y-41273650D01*
X59157675Y-41251328D01*
X59156724Y-41250378D01*
X59154562Y-41248192D01*
X59146838Y-41240385D01*
X59136361Y-41229794D01*
X59136360Y-41229793D01*
X59133212Y-41226611D01*
X59131434Y-41225263D01*
X59129716Y-41223663D01*
X59102555Y-41196787D01*
X59101062Y-41195208D01*
X59099779Y-41193507D01*
X59073353Y-41167883D01*
X59072442Y-41166990D01*
X59057711Y-41152414D01*
X59048575Y-41143374D01*
X59046861Y-41142103D01*
X59045253Y-41140636D01*
X59018718Y-41114907D01*
X59016995Y-41113123D01*
X59015518Y-41111212D01*
X59007246Y-41103373D01*
X58989201Y-41086275D01*
X58988154Y-41085272D01*
X58967499Y-41065244D01*
X58967498Y-41065243D01*
X58964277Y-41062120D01*
X58962324Y-41060703D01*
X58960434Y-41059016D01*
X58939111Y-41038811D01*
X58936518Y-41036197D01*
X58934499Y-41033667D01*
X58930927Y-41030386D01*
X58930921Y-41030380D01*
X58908672Y-41009946D01*
X58907241Y-41008611D01*
X58887394Y-40989806D01*
X58884133Y-40986716D01*
X58881497Y-40984849D01*
X58878650Y-40982376D01*
X58876376Y-40980287D01*
X58867827Y-40972436D01*
X58863234Y-40967998D01*
X58861887Y-40966629D01*
X58858750Y-40962904D01*
X58834964Y-40942195D01*
X58832505Y-40939996D01*
X58823529Y-40931753D01*
X58811590Y-40920788D01*
X58807888Y-40918252D01*
X58805145Y-40916070D01*
X58800837Y-40912484D01*
X58798072Y-40910077D01*
X58789907Y-40902300D01*
X58785461Y-40897669D01*
X58782086Y-40894153D01*
X58770104Y-40885020D01*
X58758506Y-40874073D01*
X58752651Y-40868944D01*
X58746807Y-40862132D01*
X58727136Y-40849323D01*
X58704589Y-40834642D01*
X58696968Y-40829267D01*
X58686940Y-40821623D01*
X58683024Y-40819438D01*
X58683019Y-40819434D01*
X58674262Y-40814546D01*
X58666924Y-40810116D01*
X58656183Y-40803122D01*
X58656171Y-40803116D01*
X58652093Y-40800460D01*
X58647652Y-40798462D01*
X58644360Y-40796664D01*
X58635638Y-40791431D01*
X58623304Y-40783337D01*
X58623297Y-40783334D01*
X58615795Y-40778411D01*
X58607208Y-40775790D01*
X58605391Y-40774938D01*
X58604598Y-40774665D01*
X58598863Y-40772461D01*
X58591025Y-40768087D01*
X58582277Y-40766089D01*
X58582273Y-40766087D01*
X58562287Y-40761521D01*
X58555473Y-40759763D01*
X58542507Y-40756028D01*
X58540671Y-40755484D01*
X58475111Y-40735475D01*
X58470990Y-40735427D01*
X58467030Y-40734286D01*
X58411638Y-40734509D01*
X58398548Y-40734561D01*
X58396562Y-40734553D01*
X58386601Y-40734436D01*
X58328032Y-40733748D01*
X58324059Y-40734859D01*
X58319940Y-40734876D01*
X58255983Y-40753857D01*
X58255661Y-40752771D01*
X58252983Y-40754162D01*
X58248571Y-40754610D01*
X58240256Y-40757986D01*
X58237422Y-40758690D01*
X58230899Y-40760919D01*
X58228748Y-40761521D01*
X58219186Y-40764196D01*
X58216250Y-40765533D01*
X58212807Y-40766671D01*
X58187537Y-40774170D01*
X58187535Y-40774171D01*
X58178929Y-40776725D01*
X58162016Y-40787637D01*
X58149982Y-40794495D01*
X58148372Y-40795299D01*
X58143852Y-40797134D01*
X58139670Y-40799642D01*
X58137175Y-40800887D01*
X58135277Y-40801884D01*
X58135347Y-40802012D01*
X58131396Y-40804163D01*
X58127325Y-40806016D01*
X58103458Y-40821296D01*
X58100357Y-40823218D01*
X58097552Y-40824900D01*
X58091301Y-40828161D01*
X58091345Y-40828242D01*
X58087076Y-40830568D01*
X58082630Y-40832562D01*
X58078541Y-40835218D01*
X58078539Y-40835219D01*
X58058725Y-40848088D01*
X58054898Y-40850478D01*
X58036936Y-40861250D01*
X58036929Y-40861255D01*
X58033087Y-40863559D01*
X58029605Y-40866389D01*
X58025945Y-40868954D01*
X58025812Y-40868764D01*
X58015745Y-40875665D01*
X58012800Y-40877060D01*
X58008784Y-40879789D01*
X58008775Y-40879794D01*
X57985192Y-40895819D01*
X57983024Y-40897260D01*
X57957687Y-40913718D01*
X57955010Y-40916059D01*
X57952842Y-40917622D01*
X57932297Y-40931759D01*
X57931690Y-40932174D01*
X57905478Y-40949986D01*
X57905469Y-40949992D01*
X57902690Y-40951881D01*
X57901765Y-40952724D01*
X57900835Y-40953410D01*
X57866218Y-40977231D01*
X57846963Y-40990481D01*
X57846684Y-40990672D01*
X57767303Y-41044983D01*
X57748344Y-41057954D01*
X57734145Y-41067624D01*
X57727428Y-41072198D01*
X57659864Y-41094008D01*
X57610646Y-41085411D01*
X57610578Y-41085384D01*
X57606529Y-41083460D01*
X57602247Y-41082129D01*
X57602242Y-41082127D01*
X57599450Y-41081259D01*
X57591290Y-41078412D01*
X57564789Y-41068133D01*
X57563498Y-41067624D01*
X57540209Y-41058294D01*
X57540203Y-41058292D01*
X57536039Y-41056624D01*
X57533994Y-41056126D01*
X57533140Y-41055824D01*
X57532754Y-41055708D01*
X57528212Y-41053946D01*
X57523452Y-41052904D01*
X57518797Y-41051501D01*
X57518819Y-41051429D01*
X57507172Y-41047976D01*
X57490124Y-41041538D01*
X57490123Y-41041538D01*
X57481724Y-41038366D01*
X57472773Y-41037679D01*
X57472768Y-41037678D01*
X57461712Y-41036829D01*
X57441559Y-41033626D01*
X57429311Y-41030644D01*
X57408006Y-41031619D01*
X57406821Y-41031673D01*
X57391420Y-41031436D01*
X57377621Y-41030377D01*
X57335066Y-41027111D01*
X57334222Y-41027289D01*
X57333365Y-41027226D01*
X57324811Y-41029060D01*
X57324809Y-41029060D01*
X57287070Y-41037151D01*
X57287057Y-41037089D01*
X57286898Y-41037159D01*
X57282374Y-41037366D01*
X57276205Y-41039480D01*
X57262359Y-41042449D01*
X57191144Y-41057472D01*
X57190385Y-41057879D01*
X57189542Y-41058060D01*
X57181858Y-41062215D01*
X57181852Y-41062217D01*
X57125668Y-41092596D01*
X57125405Y-41092738D01*
X57061527Y-41127006D01*
X57060912Y-41127611D01*
X57060155Y-41128020D01*
X57008547Y-41179090D01*
X57008341Y-41179293D01*
X57004789Y-41182786D01*
X56993935Y-41192210D01*
X56993550Y-41192602D01*
X56986421Y-41198055D01*
X56981110Y-41205288D01*
X56976256Y-41210238D01*
X56971488Y-41215764D01*
X56962220Y-41224936D01*
X56955604Y-41231483D01*
X56951253Y-41239333D01*
X56951249Y-41239338D01*
X56940501Y-41258729D01*
X56931400Y-41272842D01*
X56922784Y-41284427D01*
X56922169Y-41285560D01*
X56919528Y-41289157D01*
X56917285Y-41293477D01*
X56917282Y-41293482D01*
X56904810Y-41317504D01*
X56903757Y-41319489D01*
X56888067Y-41348399D01*
X56888067Y-41348400D01*
X56887526Y-41348106D01*
X56886954Y-41350036D01*
X56885726Y-41351843D01*
X56883644Y-41356236D01*
X56883457Y-41356562D01*
X56880844Y-41361709D01*
X56870391Y-41380971D01*
X56869553Y-41384853D01*
X56867876Y-41388640D01*
X56859891Y-41404018D01*
X56858410Y-41408249D01*
X56856633Y-41412363D01*
X56856625Y-41412359D01*
X56853910Y-41418970D01*
X56850885Y-41425352D01*
X56849091Y-41428857D01*
X56847224Y-41431703D01*
X56845211Y-41436136D01*
X56845211Y-41436137D01*
X56832871Y-41463319D01*
X56832032Y-41465129D01*
X56818454Y-41493777D01*
X56817450Y-41497017D01*
X56815874Y-41500758D01*
X56804168Y-41526544D01*
X56803254Y-41528389D01*
X56802145Y-41530116D01*
X56787156Y-41564009D01*
X56786738Y-41564939D01*
X56779087Y-41581793D01*
X56772774Y-41595699D01*
X56772200Y-41597666D01*
X56771414Y-41599602D01*
X56759057Y-41627542D01*
X56752669Y-41641987D01*
X56752071Y-41643220D01*
X56751299Y-41644440D01*
X56738478Y-41673973D01*
X56736238Y-41679132D01*
X56735969Y-41679747D01*
X56721860Y-41711648D01*
X56721468Y-41713041D01*
X56720971Y-41714295D01*
X56697156Y-41769149D01*
X56696716Y-41770070D01*
X56696112Y-41771036D01*
X56694897Y-41773877D01*
X56694887Y-41773897D01*
X56681101Y-41806123D01*
X56680834Y-41806743D01*
X56668011Y-41836278D01*
X56668005Y-41836292D01*
X56666783Y-41839108D01*
X56666485Y-41840196D01*
X56666098Y-41841190D01*
X56639102Y-41904293D01*
X56638719Y-41905106D01*
X56638200Y-41905945D01*
X56637138Y-41908459D01*
X56637135Y-41908466D01*
X56623221Y-41941411D01*
X56622993Y-41941948D01*
X56622018Y-41944228D01*
X56609071Y-41974491D01*
X56608814Y-41975448D01*
X56608483Y-41976310D01*
X56580110Y-42043494D01*
X56579742Y-42044285D01*
X56579244Y-42045098D01*
X56564293Y-42080947D01*
X56564163Y-42081255D01*
X56560280Y-42090451D01*
X56550393Y-42113862D01*
X56550152Y-42114776D01*
X56549847Y-42115583D01*
X56521854Y-42182706D01*
X56521475Y-42183528D01*
X56520953Y-42184390D01*
X56514113Y-42201012D01*
X56513793Y-42201790D01*
X56469372Y-42257173D01*
X56402060Y-42279749D01*
X56333229Y-42262350D01*
X56284731Y-42210499D01*
X56281032Y-42202461D01*
X56280752Y-42201790D01*
X56277255Y-42193431D01*
X56277036Y-42192905D01*
X56274576Y-42186948D01*
X56263511Y-42160154D01*
X56263010Y-42159307D01*
X56262635Y-42158488D01*
X56252901Y-42135219D01*
X56234420Y-42091045D01*
X56234121Y-42090249D01*
X56233890Y-42089330D01*
X56218696Y-42053459D01*
X56204943Y-42020586D01*
X56204457Y-42019773D01*
X56204102Y-42019007D01*
X56201511Y-42012890D01*
X56175824Y-41952249D01*
X56175506Y-41951415D01*
X56175257Y-41950441D01*
X56160050Y-41915006D01*
X56159817Y-41914459D01*
X56146052Y-41881961D01*
X56145534Y-41881103D01*
X56145148Y-41880280D01*
X56118621Y-41818466D01*
X56118230Y-41817456D01*
X56117934Y-41816329D01*
X56116667Y-41813420D01*
X56116660Y-41813403D01*
X56102633Y-41781208D01*
X56102357Y-41780569D01*
X56089798Y-41751304D01*
X56089796Y-41751300D01*
X56088540Y-41748373D01*
X56087928Y-41747371D01*
X56087459Y-41746383D01*
X56086652Y-41744530D01*
X56064496Y-41693675D01*
X56063971Y-41692345D01*
X56063575Y-41690879D01*
X56048230Y-41656335D01*
X56047892Y-41655567D01*
X56041976Y-41641987D01*
X56034091Y-41623890D01*
X56033294Y-41622599D01*
X56032655Y-41621276D01*
X56029929Y-41615139D01*
X56015109Y-41581779D01*
X56014266Y-41579696D01*
X56013664Y-41577556D01*
X56011640Y-41573127D01*
X56011638Y-41573121D01*
X55998480Y-41544327D01*
X55997932Y-41543112D01*
X55989084Y-41523194D01*
X55984301Y-41512427D01*
X55983125Y-41510551D01*
X55982101Y-41508479D01*
X55972003Y-41486380D01*
X55970211Y-41482134D01*
X55969112Y-41478486D01*
X55954362Y-41447728D01*
X55953394Y-41445659D01*
X55944115Y-41425352D01*
X55940528Y-41417501D01*
X55938470Y-41414297D01*
X55936301Y-41410063D01*
X55934721Y-41406769D01*
X55929800Y-41394867D01*
X55929509Y-41394204D01*
X55927898Y-41389607D01*
X55925602Y-41385318D01*
X55925599Y-41385311D01*
X55921032Y-41376780D01*
X55916111Y-41366356D01*
X55914009Y-41358063D01*
X55896310Y-41328050D01*
X55898328Y-41326860D01*
X55896350Y-41324512D01*
X55895420Y-41325121D01*
X55888568Y-41314650D01*
X55885459Y-41309648D01*
X55882862Y-41305243D01*
X55880319Y-41300718D01*
X55871743Y-41284697D01*
X55871733Y-41284682D01*
X55869618Y-41280730D01*
X55866960Y-41277114D01*
X55866325Y-41276106D01*
X55860243Y-41266889D01*
X55859071Y-41264901D01*
X55856598Y-41260707D01*
X55844493Y-41245958D01*
X55836455Y-41235012D01*
X55833041Y-41229794D01*
X55814881Y-41202042D01*
X55808054Y-41196211D01*
X55808052Y-41196209D01*
X55806596Y-41194966D01*
X55806774Y-41194758D01*
X55804770Y-41192481D01*
X55804574Y-41192214D01*
X55795880Y-41185569D01*
X55790569Y-41181277D01*
X55788083Y-41179153D01*
X55767332Y-41161430D01*
X55764085Y-41158559D01*
X55724567Y-41122383D01*
X55724566Y-41122383D01*
X55717947Y-41116323D01*
X55710162Y-41112497D01*
X55709632Y-41112148D01*
X55703035Y-41106514D01*
X55694849Y-41102835D01*
X55694846Y-41102833D01*
X55645968Y-41080865D01*
X55642046Y-41079021D01*
X55614012Y-41065244D01*
X55585936Y-41051446D01*
X55577390Y-41049959D01*
X55576786Y-41049774D01*
X55568872Y-41046217D01*
X55506902Y-41037617D01*
X55502669Y-41036956D01*
X55441025Y-41026228D01*
X55432405Y-41027199D01*
X55431767Y-41027191D01*
X55423178Y-41025999D01*
X55414299Y-41027310D01*
X55414294Y-41027310D01*
X55361308Y-41035134D01*
X55357032Y-41035691D01*
X55316312Y-41040279D01*
X55303779Y-41041691D01*
X55303778Y-41041691D01*
X55294860Y-41042696D01*
X55282255Y-41047976D01*
X55258853Y-41057778D01*
X55243090Y-41063186D01*
X55230844Y-41066501D01*
X55226119Y-41067779D01*
X55221679Y-41069755D01*
X55221136Y-41069948D01*
X55217463Y-41071481D01*
X55215156Y-41072381D01*
X55210880Y-41073709D01*
X55206845Y-41075625D01*
X55206837Y-41075628D01*
X55192747Y-41082319D01*
X55122631Y-41093469D01*
X55067689Y-41072580D01*
X55006065Y-41030535D01*
X55005892Y-41030417D01*
X54911482Y-40965695D01*
X54896219Y-40955175D01*
X54894090Y-40953603D01*
X54892225Y-40951880D01*
X54862171Y-40931699D01*
X54860988Y-40930894D01*
X54837488Y-40914697D01*
X54837482Y-40914693D01*
X54833793Y-40912151D01*
X54831528Y-40911026D01*
X54829243Y-40909587D01*
X54825031Y-40906758D01*
X54820318Y-40903151D01*
X54820185Y-40903330D01*
X54816271Y-40900427D01*
X54812601Y-40897237D01*
X54786924Y-40881101D01*
X54783754Y-40879040D01*
X54764898Y-40866378D01*
X54764890Y-40866374D01*
X54761165Y-40863872D01*
X54757121Y-40861923D01*
X54753493Y-40859845D01*
X54738528Y-40849785D01*
X54737568Y-40849035D01*
X54737565Y-40849033D01*
X54733723Y-40846030D01*
X54729477Y-40843661D01*
X54729467Y-40843654D01*
X54723436Y-40840289D01*
X54722276Y-40839534D01*
X54721272Y-40838526D01*
X54717764Y-40836597D01*
X54717760Y-40836594D01*
X54707714Y-40831069D01*
X54701396Y-40827351D01*
X54694369Y-40822935D01*
X54694370Y-40822935D01*
X54690577Y-40820552D01*
X54686478Y-40818727D01*
X54683820Y-40817310D01*
X54677755Y-40813807D01*
X54671166Y-40808258D01*
X54652077Y-40799838D01*
X54641547Y-40794592D01*
X54627389Y-40786691D01*
X54626171Y-40786223D01*
X54622238Y-40784060D01*
X54592659Y-40773318D01*
X54584820Y-40770170D01*
X54544801Y-40752518D01*
X54544800Y-40752518D01*
X54536587Y-40748895D01*
X54525037Y-40747374D01*
X54525087Y-40746994D01*
X54523960Y-40746679D01*
X54523888Y-40747223D01*
X54520659Y-40746798D01*
X54514172Y-40745943D01*
X54514170Y-40745943D01*
X54512075Y-40745667D01*
X54487512Y-40742432D01*
X54478178Y-40740844D01*
X54438519Y-40732552D01*
X54429733Y-40730715D01*
X54420786Y-40731418D01*
X54413533Y-40730954D01*
X54406912Y-40730780D01*
X54399655Y-40730862D01*
X54390757Y-40729690D01*
X54381885Y-40731063D01*
X54381884Y-40731063D01*
X54341829Y-40737261D01*
X54332428Y-40738356D01*
X54292039Y-40741528D01*
X54292036Y-40741529D01*
X54283093Y-40742231D01*
X54274704Y-40745416D01*
X54267628Y-40747003D01*
X54261212Y-40748697D01*
X54254268Y-40750813D01*
X54245397Y-40752186D01*
X54237266Y-40755994D01*
X54237267Y-40755994D01*
X54200572Y-40773181D01*
X54191852Y-40776872D01*
X54153977Y-40791252D01*
X54153976Y-40791253D01*
X54145581Y-40794440D01*
X54117055Y-40816007D01*
X54104048Y-40825841D01*
X54093863Y-40832785D01*
X54081610Y-40840289D01*
X54076213Y-40843594D01*
X54072503Y-40846744D01*
X54071347Y-40847581D01*
X54067919Y-40850178D01*
X54067989Y-40850268D01*
X54064456Y-40853030D01*
X54060743Y-40855530D01*
X54057426Y-40858527D01*
X54057422Y-40858530D01*
X54054412Y-40861250D01*
X54044131Y-40870539D01*
X54035664Y-40877541D01*
X54028250Y-40883147D01*
X54027122Y-40884665D01*
X54026552Y-40885168D01*
X54023301Y-40887290D01*
X54019684Y-40890545D01*
X54019672Y-40890554D01*
X54000406Y-40907891D01*
X53997680Y-40910274D01*
X53989027Y-40917622D01*
X53976594Y-40928179D01*
X53973618Y-40931541D01*
X53970422Y-40934671D01*
X53970302Y-40934549D01*
X53966306Y-40938579D01*
X53962930Y-40941617D01*
X53960249Y-40943882D01*
X53957663Y-40945626D01*
X53954099Y-40948931D01*
X53954092Y-40948937D01*
X53931851Y-40969565D01*
X53930453Y-40970843D01*
X53912539Y-40986964D01*
X53906629Y-40992282D01*
X53904629Y-40994677D01*
X53902061Y-40997196D01*
X53882885Y-41014981D01*
X53881124Y-41016509D01*
X53879257Y-41017797D01*
X53852638Y-41043025D01*
X53851755Y-41043853D01*
X53843811Y-41051221D01*
X53832060Y-41062120D01*
X53827237Y-41066593D01*
X53825815Y-41068349D01*
X53824153Y-41070022D01*
X53794070Y-41098533D01*
X53792933Y-41099538D01*
X53791627Y-41100454D01*
X53768836Y-41122383D01*
X53764563Y-41126494D01*
X53763876Y-41127149D01*
X53738841Y-41150876D01*
X53738822Y-41150856D01*
X53734462Y-41155037D01*
X53733957Y-41155399D01*
X53730493Y-41158802D01*
X53730490Y-41158805D01*
X53707812Y-41181087D01*
X53706869Y-41182004D01*
X53705322Y-41183493D01*
X53682715Y-41205245D01*
X53681363Y-41206979D01*
X53679782Y-41208629D01*
X53672679Y-41215608D01*
X53641789Y-41245960D01*
X53639517Y-41248192D01*
X53636451Y-41251029D01*
X53633604Y-41253145D01*
X53609356Y-41277802D01*
X53607897Y-41279260D01*
X53585493Y-41301273D01*
X53583351Y-41304080D01*
X53580420Y-41307226D01*
X53552024Y-41336100D01*
X53547668Y-41340292D01*
X53544078Y-41343088D01*
X53540746Y-41346631D01*
X53540743Y-41346634D01*
X53521586Y-41367006D01*
X53519646Y-41369024D01*
X53498784Y-41390238D01*
X53496120Y-41393855D01*
X53495996Y-41394001D01*
X53491892Y-41398583D01*
X53477790Y-41413579D01*
X53472538Y-41418545D01*
X53472588Y-41418596D01*
X53469113Y-41422003D01*
X53465386Y-41425132D01*
X53462190Y-41428791D01*
X53462180Y-41428801D01*
X53446798Y-41446413D01*
X53443694Y-41449838D01*
X53426484Y-41468140D01*
X53423905Y-41471811D01*
X53421078Y-41475282D01*
X53416610Y-41480976D01*
X53408958Y-41489738D01*
X53406960Y-41492025D01*
X53401603Y-41497784D01*
X53390852Y-41508644D01*
X53387425Y-41512106D01*
X53381238Y-41520665D01*
X53374024Y-41529734D01*
X53369139Y-41535327D01*
X53366703Y-41539081D01*
X53363997Y-41542664D01*
X53363858Y-41542559D01*
X53351973Y-41557499D01*
X53342810Y-41566982D01*
X53342805Y-41566989D01*
X53336569Y-41573443D01*
X53332394Y-41581390D01*
X53332392Y-41581393D01*
X53319248Y-41606414D01*
X53319240Y-41606427D01*
X53314664Y-41615139D01*
X53306181Y-41629028D01*
X53292391Y-41648637D01*
X53289495Y-41657137D01*
X53286920Y-41664693D01*
X53279201Y-41682648D01*
X53272903Y-41694638D01*
X53268157Y-41703673D01*
X53264821Y-41720200D01*
X53261800Y-41735164D01*
X53257557Y-41750871D01*
X53256891Y-41752826D01*
X53244951Y-41787867D01*
X53244557Y-41796831D01*
X53244556Y-41796837D01*
X53243733Y-41815557D01*
X53241658Y-41833448D01*
X53240587Y-41839108D01*
X53236508Y-41860668D01*
X53237382Y-41869606D01*
X53239257Y-41888789D01*
X53239734Y-41906577D01*
X53239388Y-41914459D01*
X53238494Y-41934814D01*
X53240633Y-41943532D01*
X53245096Y-41961725D01*
X53248127Y-41979486D01*
X53250823Y-42007060D01*
X53254168Y-42015387D01*
X53254168Y-42015388D01*
X53263963Y-42039772D01*
X53264816Y-42042108D01*
X53265423Y-42044583D01*
X53267295Y-42049072D01*
X53278018Y-42074789D01*
X53278626Y-42076274D01*
X53293098Y-42112301D01*
X53293911Y-42114381D01*
X53299122Y-42128081D01*
X53300167Y-42129915D01*
X53300232Y-42130064D01*
X53302303Y-42135219D01*
X53302305Y-42135222D01*
X53305650Y-42143550D01*
X53311198Y-42150604D01*
X53313808Y-42155118D01*
X53316532Y-42159083D01*
X53317562Y-42160811D01*
X53321795Y-42167917D01*
X53322986Y-42169959D01*
X53328614Y-42179837D01*
X53331822Y-42186327D01*
X53331882Y-42186296D01*
X53334118Y-42190615D01*
X53336016Y-42195100D01*
X53350616Y-42218658D01*
X53350875Y-42219076D01*
X53353245Y-42223063D01*
X53365664Y-42244856D01*
X53368418Y-42248403D01*
X53370842Y-42252031D01*
X53375049Y-42258084D01*
X53380062Y-42266172D01*
X53382774Y-42270836D01*
X53384502Y-42274696D01*
X53387154Y-42278784D01*
X53402683Y-42302722D01*
X53404051Y-42304879D01*
X53420011Y-42330631D01*
X53422714Y-42333860D01*
X53425878Y-42338478D01*
X53434144Y-42351219D01*
X53439442Y-42359384D01*
X53440466Y-42360963D01*
X53442407Y-42364165D01*
X53443789Y-42367127D01*
X53460389Y-42391854D01*
X53463280Y-42396161D01*
X53464361Y-42397799D01*
X53481696Y-42424520D01*
X53483834Y-42426969D01*
X53486057Y-42430089D01*
X53508350Y-42463296D01*
X53509361Y-42464919D01*
X53510201Y-42466676D01*
X53512952Y-42470694D01*
X53512953Y-42470695D01*
X53528495Y-42493391D01*
X53528606Y-42493568D01*
X53528716Y-42493796D01*
X53533061Y-42500125D01*
X53533268Y-42500427D01*
X53533954Y-42501437D01*
X53550690Y-42526366D01*
X53551987Y-42527806D01*
X53553143Y-42529387D01*
X53571426Y-42556085D01*
X53571441Y-42556106D01*
X53571849Y-42556701D01*
X53572019Y-42556886D01*
X53572138Y-42557047D01*
X53604799Y-42604623D01*
X53626862Y-42672103D01*
X53618303Y-42721728D01*
X53607174Y-42750251D01*
X53563780Y-42806441D01*
X53513049Y-42828286D01*
X53481105Y-42834285D01*
X53480635Y-42834372D01*
X53340680Y-42860075D01*
X53338373Y-42860418D01*
X53336249Y-42860495D01*
X53331469Y-42861418D01*
X53331464Y-42861419D01*
X53300219Y-42867455D01*
X53298930Y-42867697D01*
X53270392Y-42872902D01*
X53270391Y-42872902D01*
X53265979Y-42873707D01*
X53263895Y-42874404D01*
X53261683Y-42874901D01*
X53246564Y-42877822D01*
X53240288Y-42879034D01*
X53234206Y-42880038D01*
X53229601Y-42880310D01*
X53224847Y-42881341D01*
X53224845Y-42881341D01*
X53197571Y-42887254D01*
X53194776Y-42887827D01*
X53170101Y-42892594D01*
X53170097Y-42892595D01*
X53165708Y-42893443D01*
X53161485Y-42894904D01*
X53161041Y-42895023D01*
X53155120Y-42896458D01*
X53146464Y-42898335D01*
X53140354Y-42899270D01*
X53140387Y-42899466D01*
X53135584Y-42900279D01*
X53130737Y-42900719D01*
X53120738Y-42903218D01*
X53101667Y-42907984D01*
X53097815Y-42908883D01*
X53094559Y-42909589D01*
X53071599Y-42914567D01*
X53067403Y-42916126D01*
X53063092Y-42917387D01*
X53063061Y-42917280D01*
X53057166Y-42919105D01*
X53054722Y-42919716D01*
X53044513Y-42921824D01*
X53031188Y-42924004D01*
X53025602Y-42925834D01*
X53014014Y-42929026D01*
X53011732Y-42929539D01*
X53002785Y-42930246D01*
X52994401Y-42933434D01*
X52994395Y-42933435D01*
X52956526Y-42947833D01*
X52942616Y-42952219D01*
X52934658Y-42954230D01*
X52914533Y-42959315D01*
X52906798Y-42963867D01*
X52906797Y-42963868D01*
X52875221Y-42982452D01*
X52867123Y-42986828D01*
X52831183Y-43004585D01*
X52831179Y-43004588D01*
X52823133Y-43008563D01*
X52816524Y-43014639D01*
X52809124Y-43019714D01*
X52809091Y-43019666D01*
X52797862Y-43027986D01*
X52795505Y-43029373D01*
X52795501Y-43029376D01*
X52787771Y-43033926D01*
X52771734Y-43050991D01*
X52757173Y-43064240D01*
X52745762Y-43073096D01*
X52745760Y-43073098D01*
X52738674Y-43078598D01*
X52733416Y-43085866D01*
X52733414Y-43085868D01*
X52725924Y-43096222D01*
X52721445Y-43102044D01*
X52714847Y-43108111D01*
X52710209Y-43115798D01*
X52708779Y-43117547D01*
X52703035Y-43124098D01*
X52693699Y-43134034D01*
X52687045Y-43141115D01*
X52682982Y-43149117D01*
X52676446Y-43161990D01*
X52666186Y-43178798D01*
X52652459Y-43197773D01*
X52641198Y-43229427D01*
X52639428Y-43233096D01*
X52638853Y-43234049D01*
X52638713Y-43234578D01*
X52636676Y-43238801D01*
X52637154Y-43239012D01*
X52635956Y-43241732D01*
X52635875Y-43241892D01*
X52635844Y-43241987D01*
X52633535Y-43247231D01*
X52628791Y-43254847D01*
X52618453Y-43291833D01*
X52617631Y-43294773D01*
X52614993Y-43303088D01*
X52603158Y-43336354D01*
X52602644Y-43345315D01*
X52601308Y-43351918D01*
X52600008Y-43357324D01*
X52599675Y-43359008D01*
X52598364Y-43363698D01*
X52597790Y-43368536D01*
X52595813Y-43385195D01*
X52594807Y-43392055D01*
X52586586Y-43439064D01*
X52586586Y-43439069D01*
X52585040Y-43447909D01*
X52586037Y-43456828D01*
X52585760Y-43465800D01*
X52584963Y-43465775D01*
X52584945Y-43476780D01*
X52582746Y-43495313D01*
X52582854Y-43499792D01*
X52582854Y-43499795D01*
X52582957Y-43504037D01*
X52582740Y-43515065D01*
X52582173Y-43523986D01*
X52582011Y-43526539D01*
X52581455Y-43532803D01*
X52581178Y-43535231D01*
X52580257Y-43540003D01*
X52580081Y-43544861D01*
X52580080Y-43544866D01*
X52579471Y-43561658D01*
X52579377Y-43564250D01*
X52579121Y-43571290D01*
X52578951Y-43574688D01*
X52577162Y-43602838D01*
X52577514Y-43607299D01*
X52577545Y-43611311D01*
X52577466Y-43616846D01*
X52576690Y-43638214D01*
X52576400Y-43642606D01*
X52575767Y-43646227D01*
X52575677Y-43651081D01*
X52575677Y-43651085D01*
X52575133Y-43680550D01*
X52575071Y-43682796D01*
X52573941Y-43713913D01*
X52574329Y-43717557D01*
X52574366Y-43722100D01*
X52573745Y-43755677D01*
X52573580Y-43758976D01*
X52573111Y-43761909D01*
X52573006Y-43786956D01*
X52572962Y-43797358D01*
X52572942Y-43799134D01*
X52572346Y-43831439D01*
X52572711Y-43834376D01*
X52572793Y-43837737D01*
X52572632Y-43876213D01*
X52572521Y-43879311D01*
X52572108Y-43882135D01*
X22298500Y-43882135D01*
X22298500Y-39559733D01*
X29037822Y-39559733D01*
X29047625Y-39840458D01*
X29048387Y-39844781D01*
X29048388Y-39844788D01*
X29072164Y-39979624D01*
X29096402Y-40117087D01*
X29183203Y-40384235D01*
X29306340Y-40636702D01*
X29308795Y-40640341D01*
X29308798Y-40640347D01*
X29372559Y-40734876D01*
X29463415Y-40869576D01*
X29466360Y-40872847D01*
X29466361Y-40872848D01*
X29531891Y-40945626D01*
X29651371Y-41078322D01*
X29654733Y-41081143D01*
X29654734Y-41081144D01*
X29684969Y-41106514D01*
X29866550Y-41258879D01*
X30104764Y-41407731D01*
X30263682Y-41478486D01*
X30348043Y-41516046D01*
X30361375Y-41521982D01*
X30401449Y-41533473D01*
X30626944Y-41598132D01*
X30631390Y-41599407D01*
X30635740Y-41600018D01*
X30635743Y-41600019D01*
X30733709Y-41613787D01*
X30909552Y-41638500D01*
X31120146Y-41638500D01*
X31122332Y-41638347D01*
X31122336Y-41638347D01*
X31325827Y-41624118D01*
X31325832Y-41624117D01*
X31330212Y-41623811D01*
X31604970Y-41565409D01*
X31609099Y-41563906D01*
X31609103Y-41563905D01*
X31864781Y-41470846D01*
X31864785Y-41470844D01*
X31868926Y-41469337D01*
X32116942Y-41337464D01*
X32123426Y-41332753D01*
X32340629Y-41174947D01*
X32340632Y-41174944D01*
X32344192Y-41172358D01*
X32355509Y-41161430D01*
X32450241Y-41069948D01*
X32546252Y-40977231D01*
X32695109Y-40786702D01*
X32716481Y-40759347D01*
X32716482Y-40759346D01*
X32719188Y-40755882D01*
X32721384Y-40752078D01*
X32721389Y-40752071D01*
X32857435Y-40516431D01*
X32859636Y-40512619D01*
X32964862Y-40252176D01*
X32998544Y-40117087D01*
X33031753Y-39983893D01*
X33031754Y-39983888D01*
X33032817Y-39979624D01*
X33062178Y-39700267D01*
X33057271Y-39559733D01*
X39197822Y-39559733D01*
X39207625Y-39840458D01*
X39208387Y-39844781D01*
X39208388Y-39844788D01*
X39232164Y-39979624D01*
X39256402Y-40117087D01*
X39343203Y-40384235D01*
X39466340Y-40636702D01*
X39468795Y-40640341D01*
X39468798Y-40640347D01*
X39532559Y-40734876D01*
X39623415Y-40869576D01*
X39626360Y-40872847D01*
X39626361Y-40872848D01*
X39691891Y-40945626D01*
X39811371Y-41078322D01*
X39814733Y-41081143D01*
X39814734Y-41081144D01*
X39844969Y-41106514D01*
X40026550Y-41258879D01*
X40264764Y-41407731D01*
X40423682Y-41478486D01*
X40508043Y-41516046D01*
X40521375Y-41521982D01*
X40561449Y-41533473D01*
X40786944Y-41598132D01*
X40791390Y-41599407D01*
X40795740Y-41600018D01*
X40795743Y-41600019D01*
X40893709Y-41613787D01*
X41069552Y-41638500D01*
X41280146Y-41638500D01*
X41282332Y-41638347D01*
X41282336Y-41638347D01*
X41485827Y-41624118D01*
X41485832Y-41624117D01*
X41490212Y-41623811D01*
X41764970Y-41565409D01*
X41769099Y-41563906D01*
X41769103Y-41563905D01*
X42024781Y-41470846D01*
X42024785Y-41470844D01*
X42028926Y-41469337D01*
X42276942Y-41337464D01*
X42283426Y-41332753D01*
X42500629Y-41174947D01*
X42500632Y-41174944D01*
X42504192Y-41172358D01*
X42515509Y-41161430D01*
X42610241Y-41069948D01*
X42706252Y-40977231D01*
X42855109Y-40786702D01*
X42876481Y-40759347D01*
X42876482Y-40759346D01*
X42879188Y-40755882D01*
X42881384Y-40752078D01*
X42881389Y-40752071D01*
X43017435Y-40516431D01*
X43019636Y-40512619D01*
X43124862Y-40252176D01*
X43158544Y-40117087D01*
X43191753Y-39983893D01*
X43191754Y-39983888D01*
X43192817Y-39979624D01*
X43222178Y-39700267D01*
X43217271Y-39559733D01*
X49357822Y-39559733D01*
X49367625Y-39840458D01*
X49368387Y-39844781D01*
X49368388Y-39844788D01*
X49392164Y-39979624D01*
X49416402Y-40117087D01*
X49503203Y-40384235D01*
X49626340Y-40636702D01*
X49628795Y-40640341D01*
X49628798Y-40640347D01*
X49692559Y-40734876D01*
X49783415Y-40869576D01*
X49786360Y-40872847D01*
X49786361Y-40872848D01*
X49851891Y-40945626D01*
X49971371Y-41078322D01*
X49974733Y-41081143D01*
X49974734Y-41081144D01*
X50004969Y-41106514D01*
X50186550Y-41258879D01*
X50424764Y-41407731D01*
X50583682Y-41478486D01*
X50668043Y-41516046D01*
X50681375Y-41521982D01*
X50721449Y-41533473D01*
X50946944Y-41598132D01*
X50951390Y-41599407D01*
X50955740Y-41600018D01*
X50955743Y-41600019D01*
X51053709Y-41613787D01*
X51229552Y-41638500D01*
X51440146Y-41638500D01*
X51442332Y-41638347D01*
X51442336Y-41638347D01*
X51645827Y-41624118D01*
X51645832Y-41624117D01*
X51650212Y-41623811D01*
X51924970Y-41565409D01*
X51929099Y-41563906D01*
X51929103Y-41563905D01*
X52184781Y-41470846D01*
X52184785Y-41470844D01*
X52188926Y-41469337D01*
X52436942Y-41337464D01*
X52443426Y-41332753D01*
X52660629Y-41174947D01*
X52660632Y-41174944D01*
X52664192Y-41172358D01*
X52675509Y-41161430D01*
X52770241Y-41069948D01*
X52866252Y-40977231D01*
X53015109Y-40786702D01*
X53036481Y-40759347D01*
X53036482Y-40759346D01*
X53039188Y-40755882D01*
X53041384Y-40752078D01*
X53041389Y-40752071D01*
X53177435Y-40516431D01*
X53179636Y-40512619D01*
X53284862Y-40252176D01*
X53318544Y-40117087D01*
X53351753Y-39983893D01*
X53351754Y-39983888D01*
X53352817Y-39979624D01*
X53382178Y-39700267D01*
X53377271Y-39559733D01*
X59517822Y-39559733D01*
X59527625Y-39840458D01*
X59528387Y-39844781D01*
X59528388Y-39844788D01*
X59552164Y-39979624D01*
X59576402Y-40117087D01*
X59663203Y-40384235D01*
X59786340Y-40636702D01*
X59788795Y-40640341D01*
X59788798Y-40640347D01*
X59852559Y-40734876D01*
X59943415Y-40869576D01*
X59946360Y-40872847D01*
X59946361Y-40872848D01*
X60011891Y-40945626D01*
X60131371Y-41078322D01*
X60134733Y-41081143D01*
X60134734Y-41081144D01*
X60164969Y-41106514D01*
X60346550Y-41258879D01*
X60584764Y-41407731D01*
X60743682Y-41478486D01*
X60828043Y-41516046D01*
X60841375Y-41521982D01*
X60881449Y-41533473D01*
X61106944Y-41598132D01*
X61111390Y-41599407D01*
X61115740Y-41600018D01*
X61115743Y-41600019D01*
X61213709Y-41613787D01*
X61389552Y-41638500D01*
X61600146Y-41638500D01*
X61602332Y-41638347D01*
X61602336Y-41638347D01*
X61805827Y-41624118D01*
X61805832Y-41624117D01*
X61810212Y-41623811D01*
X62084970Y-41565409D01*
X62089099Y-41563906D01*
X62089103Y-41563905D01*
X62344781Y-41470846D01*
X62344785Y-41470844D01*
X62348926Y-41469337D01*
X62596942Y-41337464D01*
X62603426Y-41332753D01*
X62820629Y-41174947D01*
X62820632Y-41174944D01*
X62824192Y-41172358D01*
X62835509Y-41161430D01*
X62930241Y-41069948D01*
X63026252Y-40977231D01*
X63175109Y-40786702D01*
X63196481Y-40759347D01*
X63196482Y-40759346D01*
X63199188Y-40755882D01*
X63201384Y-40752078D01*
X63201389Y-40752071D01*
X63337435Y-40516431D01*
X63339636Y-40512619D01*
X63444862Y-40252176D01*
X63478544Y-40117087D01*
X63511753Y-39983893D01*
X63511754Y-39983888D01*
X63512817Y-39979624D01*
X63542178Y-39700267D01*
X63532375Y-39419542D01*
X63508608Y-39284749D01*
X63484360Y-39147236D01*
X63483598Y-39142913D01*
X63396797Y-38875765D01*
X63273660Y-38623298D01*
X63271205Y-38619659D01*
X63271202Y-38619653D01*
X63190935Y-38500653D01*
X63116585Y-38390424D01*
X62928629Y-38181678D01*
X62713450Y-38001121D01*
X62475236Y-37852269D01*
X62218625Y-37738018D01*
X61948610Y-37660593D01*
X61944260Y-37659982D01*
X61944257Y-37659981D01*
X61841310Y-37645513D01*
X61670448Y-37621500D01*
X61459854Y-37621500D01*
X61457668Y-37621653D01*
X61457664Y-37621653D01*
X61254173Y-37635882D01*
X61254168Y-37635883D01*
X61249788Y-37636189D01*
X60975030Y-37694591D01*
X60970901Y-37696094D01*
X60970897Y-37696095D01*
X60715219Y-37789154D01*
X60715215Y-37789156D01*
X60711074Y-37790663D01*
X60463058Y-37922536D01*
X60459499Y-37925122D01*
X60459497Y-37925123D01*
X60354895Y-38001121D01*
X60235808Y-38087642D01*
X60033748Y-38282769D01*
X59860812Y-38504118D01*
X59858616Y-38507922D01*
X59858611Y-38507929D01*
X59744794Y-38705067D01*
X59720364Y-38747381D01*
X59615138Y-39007824D01*
X59614073Y-39012097D01*
X59614072Y-39012099D01*
X59580379Y-39147236D01*
X59547183Y-39280376D01*
X59517822Y-39559733D01*
X53377271Y-39559733D01*
X53372375Y-39419542D01*
X53348608Y-39284749D01*
X53324360Y-39147236D01*
X53323598Y-39142913D01*
X53236797Y-38875765D01*
X53113660Y-38623298D01*
X53111205Y-38619659D01*
X53111202Y-38619653D01*
X53030935Y-38500653D01*
X52956585Y-38390424D01*
X52768629Y-38181678D01*
X52553450Y-38001121D01*
X52315236Y-37852269D01*
X52058625Y-37738018D01*
X51788610Y-37660593D01*
X51784260Y-37659982D01*
X51784257Y-37659981D01*
X51681310Y-37645513D01*
X51510448Y-37621500D01*
X51299854Y-37621500D01*
X51297668Y-37621653D01*
X51297664Y-37621653D01*
X51094173Y-37635882D01*
X51094168Y-37635883D01*
X51089788Y-37636189D01*
X50815030Y-37694591D01*
X50810901Y-37696094D01*
X50810897Y-37696095D01*
X50555219Y-37789154D01*
X50555215Y-37789156D01*
X50551074Y-37790663D01*
X50303058Y-37922536D01*
X50299499Y-37925122D01*
X50299497Y-37925123D01*
X50194895Y-38001121D01*
X50075808Y-38087642D01*
X49873748Y-38282769D01*
X49700812Y-38504118D01*
X49698616Y-38507922D01*
X49698611Y-38507929D01*
X49584794Y-38705067D01*
X49560364Y-38747381D01*
X49455138Y-39007824D01*
X49454073Y-39012097D01*
X49454072Y-39012099D01*
X49420379Y-39147236D01*
X49387183Y-39280376D01*
X49357822Y-39559733D01*
X43217271Y-39559733D01*
X43212375Y-39419542D01*
X43188608Y-39284749D01*
X43164360Y-39147236D01*
X43163598Y-39142913D01*
X43076797Y-38875765D01*
X42953660Y-38623298D01*
X42951205Y-38619659D01*
X42951202Y-38619653D01*
X42870935Y-38500653D01*
X42796585Y-38390424D01*
X42608629Y-38181678D01*
X42393450Y-38001121D01*
X42155236Y-37852269D01*
X41898625Y-37738018D01*
X41628610Y-37660593D01*
X41624260Y-37659982D01*
X41624257Y-37659981D01*
X41521310Y-37645513D01*
X41350448Y-37621500D01*
X41139854Y-37621500D01*
X41137668Y-37621653D01*
X41137664Y-37621653D01*
X40934173Y-37635882D01*
X40934168Y-37635883D01*
X40929788Y-37636189D01*
X40655030Y-37694591D01*
X40650901Y-37696094D01*
X40650897Y-37696095D01*
X40395219Y-37789154D01*
X40395215Y-37789156D01*
X40391074Y-37790663D01*
X40143058Y-37922536D01*
X40139499Y-37925122D01*
X40139497Y-37925123D01*
X40034895Y-38001121D01*
X39915808Y-38087642D01*
X39713748Y-38282769D01*
X39540812Y-38504118D01*
X39538616Y-38507922D01*
X39538611Y-38507929D01*
X39424794Y-38705067D01*
X39400364Y-38747381D01*
X39295138Y-39007824D01*
X39294073Y-39012097D01*
X39294072Y-39012099D01*
X39260379Y-39147236D01*
X39227183Y-39280376D01*
X39197822Y-39559733D01*
X33057271Y-39559733D01*
X33052375Y-39419542D01*
X33028608Y-39284749D01*
X33004360Y-39147236D01*
X33003598Y-39142913D01*
X32916797Y-38875765D01*
X32793660Y-38623298D01*
X32791205Y-38619659D01*
X32791202Y-38619653D01*
X32710935Y-38500653D01*
X32636585Y-38390424D01*
X32448629Y-38181678D01*
X32233450Y-38001121D01*
X31995236Y-37852269D01*
X31738625Y-37738018D01*
X31468610Y-37660593D01*
X31464260Y-37659982D01*
X31464257Y-37659981D01*
X31361310Y-37645513D01*
X31190448Y-37621500D01*
X30979854Y-37621500D01*
X30977668Y-37621653D01*
X30977664Y-37621653D01*
X30774173Y-37635882D01*
X30774168Y-37635883D01*
X30769788Y-37636189D01*
X30495030Y-37694591D01*
X30490901Y-37696094D01*
X30490897Y-37696095D01*
X30235219Y-37789154D01*
X30235215Y-37789156D01*
X30231074Y-37790663D01*
X29983058Y-37922536D01*
X29979499Y-37925122D01*
X29979497Y-37925123D01*
X29874895Y-38001121D01*
X29755808Y-38087642D01*
X29553748Y-38282769D01*
X29380812Y-38504118D01*
X29378616Y-38507922D01*
X29378611Y-38507929D01*
X29264794Y-38705067D01*
X29240364Y-38747381D01*
X29135138Y-39007824D01*
X29134073Y-39012097D01*
X29134072Y-39012099D01*
X29100379Y-39147236D01*
X29067183Y-39280376D01*
X29037822Y-39559733D01*
X22298500Y-39559733D01*
X22298500Y-35958904D01*
X24245841Y-35958904D01*
X24254554Y-35970424D01*
X24352189Y-36042012D01*
X24360099Y-36046955D01*
X24583018Y-36164238D01*
X24591581Y-36167961D01*
X24829387Y-36251008D01*
X24838396Y-36253422D01*
X25085879Y-36300408D01*
X25095134Y-36301462D01*
X25346846Y-36311352D01*
X25356160Y-36311026D01*
X25606557Y-36283604D01*
X25615734Y-36281903D01*
X25859326Y-36217771D01*
X25868145Y-36214734D01*
X26099592Y-36115296D01*
X26107851Y-36110997D01*
X26322068Y-35978436D01*
X26328967Y-35973424D01*
X26337291Y-35960792D01*
X26336185Y-35958904D01*
X66245841Y-35958904D01*
X66254554Y-35970424D01*
X66352189Y-36042012D01*
X66360099Y-36046955D01*
X66583018Y-36164238D01*
X66591581Y-36167961D01*
X66829387Y-36251008D01*
X66838396Y-36253422D01*
X67085879Y-36300408D01*
X67095134Y-36301462D01*
X67346846Y-36311352D01*
X67356160Y-36311026D01*
X67606557Y-36283604D01*
X67615734Y-36281903D01*
X67859326Y-36217771D01*
X67868145Y-36214734D01*
X68099592Y-36115296D01*
X68107851Y-36110997D01*
X68322068Y-35978436D01*
X68328967Y-35973424D01*
X68337291Y-35960792D01*
X68331227Y-35950437D01*
X67302812Y-34922022D01*
X67288868Y-34914408D01*
X67287035Y-34914539D01*
X67280420Y-34918790D01*
X66252499Y-35946711D01*
X66245841Y-35958904D01*
X26336185Y-35958904D01*
X26331227Y-35950437D01*
X25302812Y-34922022D01*
X25288868Y-34914408D01*
X25287035Y-34914539D01*
X25280420Y-34918790D01*
X24252499Y-35946711D01*
X24245841Y-35958904D01*
X22298500Y-35958904D01*
X22298500Y-34508532D01*
X23528219Y-34508532D01*
X23540305Y-34760136D01*
X23541442Y-34769396D01*
X23590585Y-35016457D01*
X23593074Y-35025432D01*
X23678196Y-35262514D01*
X23681993Y-35271042D01*
X23801217Y-35492928D01*
X23806228Y-35500795D01*
X23869675Y-35585761D01*
X23880933Y-35594210D01*
X23893352Y-35587438D01*
X24917978Y-34562812D01*
X24924356Y-34551132D01*
X25654408Y-34551132D01*
X25654539Y-34552965D01*
X25658790Y-34559580D01*
X26689682Y-35590472D01*
X26702062Y-35597232D01*
X26710403Y-35590988D01*
X26836483Y-35394975D01*
X26840930Y-35386783D01*
X26944388Y-35157116D01*
X26947583Y-35148338D01*
X27015955Y-34905906D01*
X27017813Y-34896777D01*
X27049795Y-34645378D01*
X27050276Y-34639092D01*
X27052526Y-34553160D01*
X27052375Y-34546851D01*
X27049527Y-34508532D01*
X65528219Y-34508532D01*
X65540305Y-34760136D01*
X65541442Y-34769396D01*
X65590585Y-35016457D01*
X65593074Y-35025432D01*
X65678196Y-35262514D01*
X65681993Y-35271042D01*
X65801217Y-35492928D01*
X65806228Y-35500795D01*
X65869675Y-35585761D01*
X65880933Y-35594210D01*
X65893352Y-35587438D01*
X66917978Y-34562812D01*
X66924356Y-34551132D01*
X67654408Y-34551132D01*
X67654539Y-34552965D01*
X67658790Y-34559580D01*
X68689682Y-35590472D01*
X68702062Y-35597232D01*
X68710403Y-35590988D01*
X68836483Y-35394975D01*
X68840930Y-35386783D01*
X68944388Y-35157116D01*
X68947583Y-35148338D01*
X69015955Y-34905906D01*
X69017813Y-34896777D01*
X69049795Y-34645378D01*
X69050276Y-34639092D01*
X69052526Y-34553160D01*
X69052375Y-34546851D01*
X69033594Y-34294122D01*
X69032217Y-34284916D01*
X68976622Y-34039220D01*
X68973898Y-34030309D01*
X68882598Y-33795530D01*
X68878587Y-33787121D01*
X68753588Y-33568420D01*
X68748377Y-33560694D01*
X68711164Y-33513490D01*
X68699238Y-33505018D01*
X68687706Y-33511504D01*
X67662022Y-34537188D01*
X67654408Y-34551132D01*
X66924356Y-34551132D01*
X66925592Y-34548868D01*
X66925461Y-34547035D01*
X66921210Y-34540420D01*
X65891549Y-33510759D01*
X65878241Y-33503492D01*
X65868202Y-33510614D01*
X65858022Y-33522854D01*
X65852610Y-33530441D01*
X65721926Y-33745800D01*
X65717697Y-33754101D01*
X65620285Y-33986401D01*
X65617324Y-33995251D01*
X65555322Y-34239387D01*
X65553700Y-34248584D01*
X65528464Y-34499206D01*
X65528219Y-34508532D01*
X27049527Y-34508532D01*
X27033594Y-34294122D01*
X27032217Y-34284916D01*
X26976622Y-34039220D01*
X26973898Y-34030309D01*
X26882598Y-33795530D01*
X26878587Y-33787121D01*
X26753588Y-33568420D01*
X26748377Y-33560694D01*
X26711164Y-33513490D01*
X26699238Y-33505018D01*
X26687706Y-33511504D01*
X25662022Y-34537188D01*
X25654408Y-34551132D01*
X24924356Y-34551132D01*
X24925592Y-34548868D01*
X24925461Y-34547035D01*
X24921210Y-34540420D01*
X23891549Y-33510759D01*
X23878241Y-33503492D01*
X23868202Y-33510614D01*
X23858022Y-33522854D01*
X23852610Y-33530441D01*
X23721926Y-33745800D01*
X23717697Y-33754101D01*
X23620285Y-33986401D01*
X23617324Y-33995251D01*
X23555322Y-34239387D01*
X23553700Y-34248584D01*
X23528464Y-34499206D01*
X23528219Y-34508532D01*
X22298500Y-34508532D01*
X22298500Y-33139034D01*
X24243447Y-33139034D01*
X24248020Y-33148810D01*
X25277188Y-34177978D01*
X25291132Y-34185592D01*
X25292965Y-34185461D01*
X25299580Y-34181210D01*
X26328188Y-33152602D01*
X26334572Y-33140912D01*
X26333113Y-33139034D01*
X66243447Y-33139034D01*
X66248020Y-33148810D01*
X67277188Y-34177978D01*
X67291132Y-34185592D01*
X67292965Y-34185461D01*
X67299580Y-34181210D01*
X68328188Y-33152602D01*
X68334572Y-33140912D01*
X68325160Y-33128801D01*
X68188430Y-33033948D01*
X68180405Y-33029220D01*
X67954471Y-32917801D01*
X67945839Y-32914314D01*
X67705924Y-32837517D01*
X67696863Y-32835341D01*
X67448232Y-32794849D01*
X67438945Y-32794037D01*
X67187072Y-32790740D01*
X67177760Y-32791310D01*
X66928163Y-32825278D01*
X66919045Y-32827216D01*
X66677220Y-32897702D01*
X66668467Y-32900974D01*
X66439716Y-33006430D01*
X66431561Y-33010950D01*
X66252585Y-33128292D01*
X66243447Y-33139034D01*
X26333113Y-33139034D01*
X26325160Y-33128801D01*
X26188430Y-33033948D01*
X26180405Y-33029220D01*
X25954471Y-32917801D01*
X25945839Y-32914314D01*
X25705924Y-32837517D01*
X25696863Y-32835341D01*
X25448232Y-32794849D01*
X25438945Y-32794037D01*
X25187072Y-32790740D01*
X25177760Y-32791310D01*
X24928163Y-32825278D01*
X24919045Y-32827216D01*
X24677220Y-32897702D01*
X24668467Y-32900974D01*
X24439716Y-33006430D01*
X24431561Y-33010950D01*
X24252585Y-33128292D01*
X24243447Y-33139034D01*
X22298500Y-33139034D01*
X22298500Y-29399733D01*
X29037822Y-29399733D01*
X29047625Y-29680458D01*
X29048387Y-29684781D01*
X29048388Y-29684788D01*
X29072164Y-29819624D01*
X29096402Y-29957087D01*
X29183203Y-30224235D01*
X29306340Y-30476702D01*
X29308795Y-30480341D01*
X29308798Y-30480347D01*
X29381890Y-30588710D01*
X29463415Y-30709576D01*
X29651371Y-30918322D01*
X29866550Y-31098879D01*
X30104764Y-31247731D01*
X30361375Y-31361982D01*
X30631390Y-31439407D01*
X30635740Y-31440018D01*
X30635743Y-31440019D01*
X30738690Y-31454487D01*
X30909552Y-31478500D01*
X31120146Y-31478500D01*
X31122332Y-31478347D01*
X31122336Y-31478347D01*
X31325827Y-31464118D01*
X31325832Y-31464117D01*
X31330212Y-31463811D01*
X31604970Y-31405409D01*
X31609099Y-31403906D01*
X31609103Y-31403905D01*
X31864781Y-31310846D01*
X31864785Y-31310844D01*
X31868926Y-31309337D01*
X32116942Y-31177464D01*
X32221896Y-31101211D01*
X32340629Y-31014947D01*
X32340632Y-31014944D01*
X32344192Y-31012358D01*
X32546252Y-30817231D01*
X32719188Y-30595882D01*
X32721384Y-30592078D01*
X32721389Y-30592071D01*
X32857435Y-30356431D01*
X32859636Y-30352619D01*
X32964862Y-30092176D01*
X32998544Y-29957087D01*
X33031753Y-29823893D01*
X33031754Y-29823888D01*
X33032817Y-29819624D01*
X33062178Y-29540267D01*
X33057271Y-29399733D01*
X39197822Y-29399733D01*
X39207625Y-29680458D01*
X39208387Y-29684781D01*
X39208388Y-29684788D01*
X39232164Y-29819624D01*
X39256402Y-29957087D01*
X39343203Y-30224235D01*
X39466340Y-30476702D01*
X39468795Y-30480341D01*
X39468798Y-30480347D01*
X39541890Y-30588710D01*
X39623415Y-30709576D01*
X39811371Y-30918322D01*
X40026550Y-31098879D01*
X40264764Y-31247731D01*
X40521375Y-31361982D01*
X40791390Y-31439407D01*
X40795740Y-31440018D01*
X40795743Y-31440019D01*
X40898690Y-31454487D01*
X41069552Y-31478500D01*
X41280146Y-31478500D01*
X41282332Y-31478347D01*
X41282336Y-31478347D01*
X41485827Y-31464118D01*
X41485832Y-31464117D01*
X41490212Y-31463811D01*
X41764970Y-31405409D01*
X41769099Y-31403906D01*
X41769103Y-31403905D01*
X42024781Y-31310846D01*
X42024785Y-31310844D01*
X42028926Y-31309337D01*
X42276942Y-31177464D01*
X42381896Y-31101211D01*
X42500629Y-31014947D01*
X42500632Y-31014944D01*
X42504192Y-31012358D01*
X42706252Y-30817231D01*
X42879188Y-30595882D01*
X42881384Y-30592078D01*
X42881389Y-30592071D01*
X43017435Y-30356431D01*
X43019636Y-30352619D01*
X43124862Y-30092176D01*
X43158544Y-29957087D01*
X43191753Y-29823893D01*
X43191754Y-29823888D01*
X43192817Y-29819624D01*
X43222178Y-29540267D01*
X43217271Y-29399733D01*
X49357822Y-29399733D01*
X49367625Y-29680458D01*
X49368387Y-29684781D01*
X49368388Y-29684788D01*
X49392164Y-29819624D01*
X49416402Y-29957087D01*
X49503203Y-30224235D01*
X49626340Y-30476702D01*
X49628795Y-30480341D01*
X49628798Y-30480347D01*
X49701890Y-30588710D01*
X49783415Y-30709576D01*
X49971371Y-30918322D01*
X50186550Y-31098879D01*
X50424764Y-31247731D01*
X50681375Y-31361982D01*
X50951390Y-31439407D01*
X50955740Y-31440018D01*
X50955743Y-31440019D01*
X51058690Y-31454487D01*
X51229552Y-31478500D01*
X51440146Y-31478500D01*
X51442332Y-31478347D01*
X51442336Y-31478347D01*
X51645827Y-31464118D01*
X51645832Y-31464117D01*
X51650212Y-31463811D01*
X51924970Y-31405409D01*
X51929099Y-31403906D01*
X51929103Y-31403905D01*
X52184781Y-31310846D01*
X52184785Y-31310844D01*
X52188926Y-31309337D01*
X52436942Y-31177464D01*
X52541896Y-31101211D01*
X52660629Y-31014947D01*
X52660632Y-31014944D01*
X52664192Y-31012358D01*
X52866252Y-30817231D01*
X53039188Y-30595882D01*
X53041384Y-30592078D01*
X53041389Y-30592071D01*
X53177435Y-30356431D01*
X53179636Y-30352619D01*
X53284862Y-30092176D01*
X53318544Y-29957087D01*
X53351753Y-29823893D01*
X53351754Y-29823888D01*
X53352817Y-29819624D01*
X53382178Y-29540267D01*
X53377271Y-29399733D01*
X59517822Y-29399733D01*
X59527625Y-29680458D01*
X59528387Y-29684781D01*
X59528388Y-29684788D01*
X59552164Y-29819624D01*
X59576402Y-29957087D01*
X59663203Y-30224235D01*
X59786340Y-30476702D01*
X59788795Y-30480341D01*
X59788798Y-30480347D01*
X59861890Y-30588710D01*
X59943415Y-30709576D01*
X60131371Y-30918322D01*
X60346550Y-31098879D01*
X60584764Y-31247731D01*
X60841375Y-31361982D01*
X61111390Y-31439407D01*
X61115740Y-31440018D01*
X61115743Y-31440019D01*
X61218690Y-31454487D01*
X61389552Y-31478500D01*
X61600146Y-31478500D01*
X61602332Y-31478347D01*
X61602336Y-31478347D01*
X61805827Y-31464118D01*
X61805832Y-31464117D01*
X61810212Y-31463811D01*
X62084970Y-31405409D01*
X62089099Y-31403906D01*
X62089103Y-31403905D01*
X62344781Y-31310846D01*
X62344785Y-31310844D01*
X62348926Y-31309337D01*
X62596942Y-31177464D01*
X62701896Y-31101211D01*
X62820629Y-31014947D01*
X62820632Y-31014944D01*
X62824192Y-31012358D01*
X63026252Y-30817231D01*
X63199188Y-30595882D01*
X63201384Y-30592078D01*
X63201389Y-30592071D01*
X63337435Y-30356431D01*
X63339636Y-30352619D01*
X63444862Y-30092176D01*
X63478544Y-29957087D01*
X63511753Y-29823893D01*
X63511754Y-29823888D01*
X63512817Y-29819624D01*
X63542178Y-29540267D01*
X63532375Y-29259542D01*
X63508608Y-29124749D01*
X63484360Y-28987236D01*
X63483598Y-28982913D01*
X63396797Y-28715765D01*
X63273660Y-28463298D01*
X63271205Y-28459659D01*
X63271202Y-28459653D01*
X63190935Y-28340653D01*
X63116585Y-28230424D01*
X62928629Y-28021678D01*
X62713450Y-27841121D01*
X62475236Y-27692269D01*
X62218625Y-27578018D01*
X61948610Y-27500593D01*
X61944260Y-27499982D01*
X61944257Y-27499981D01*
X61841310Y-27485513D01*
X61670448Y-27461500D01*
X61459854Y-27461500D01*
X61457668Y-27461653D01*
X61457664Y-27461653D01*
X61254173Y-27475882D01*
X61254168Y-27475883D01*
X61249788Y-27476189D01*
X60975030Y-27534591D01*
X60970901Y-27536094D01*
X60970897Y-27536095D01*
X60715219Y-27629154D01*
X60715215Y-27629156D01*
X60711074Y-27630663D01*
X60463058Y-27762536D01*
X60459499Y-27765122D01*
X60459497Y-27765123D01*
X60354895Y-27841121D01*
X60235808Y-27927642D01*
X60033748Y-28122769D01*
X59860812Y-28344118D01*
X59858616Y-28347922D01*
X59858611Y-28347929D01*
X59744794Y-28545067D01*
X59720364Y-28587381D01*
X59615138Y-28847824D01*
X59614073Y-28852097D01*
X59614072Y-28852099D01*
X59580379Y-28987236D01*
X59547183Y-29120376D01*
X59517822Y-29399733D01*
X53377271Y-29399733D01*
X53372375Y-29259542D01*
X53348608Y-29124749D01*
X53324360Y-28987236D01*
X53323598Y-28982913D01*
X53236797Y-28715765D01*
X53113660Y-28463298D01*
X53111205Y-28459659D01*
X53111202Y-28459653D01*
X53030935Y-28340653D01*
X52956585Y-28230424D01*
X52768629Y-28021678D01*
X52553450Y-27841121D01*
X52315236Y-27692269D01*
X52058625Y-27578018D01*
X51788610Y-27500593D01*
X51784260Y-27499982D01*
X51784257Y-27499981D01*
X51681310Y-27485513D01*
X51510448Y-27461500D01*
X51299854Y-27461500D01*
X51297668Y-27461653D01*
X51297664Y-27461653D01*
X51094173Y-27475882D01*
X51094168Y-27475883D01*
X51089788Y-27476189D01*
X50815030Y-27534591D01*
X50810901Y-27536094D01*
X50810897Y-27536095D01*
X50555219Y-27629154D01*
X50555215Y-27629156D01*
X50551074Y-27630663D01*
X50303058Y-27762536D01*
X50299499Y-27765122D01*
X50299497Y-27765123D01*
X50194895Y-27841121D01*
X50075808Y-27927642D01*
X49873748Y-28122769D01*
X49700812Y-28344118D01*
X49698616Y-28347922D01*
X49698611Y-28347929D01*
X49584794Y-28545067D01*
X49560364Y-28587381D01*
X49455138Y-28847824D01*
X49454073Y-28852097D01*
X49454072Y-28852099D01*
X49420379Y-28987236D01*
X49387183Y-29120376D01*
X49357822Y-29399733D01*
X43217271Y-29399733D01*
X43212375Y-29259542D01*
X43188608Y-29124749D01*
X43164360Y-28987236D01*
X43163598Y-28982913D01*
X43076797Y-28715765D01*
X42953660Y-28463298D01*
X42951205Y-28459659D01*
X42951202Y-28459653D01*
X42870935Y-28340653D01*
X42796585Y-28230424D01*
X42608629Y-28021678D01*
X42393450Y-27841121D01*
X42155236Y-27692269D01*
X41898625Y-27578018D01*
X41628610Y-27500593D01*
X41624260Y-27499982D01*
X41624257Y-27499981D01*
X41521310Y-27485513D01*
X41350448Y-27461500D01*
X41139854Y-27461500D01*
X41137668Y-27461653D01*
X41137664Y-27461653D01*
X40934173Y-27475882D01*
X40934168Y-27475883D01*
X40929788Y-27476189D01*
X40655030Y-27534591D01*
X40650901Y-27536094D01*
X40650897Y-27536095D01*
X40395219Y-27629154D01*
X40395215Y-27629156D01*
X40391074Y-27630663D01*
X40143058Y-27762536D01*
X40139499Y-27765122D01*
X40139497Y-27765123D01*
X40034895Y-27841121D01*
X39915808Y-27927642D01*
X39713748Y-28122769D01*
X39540812Y-28344118D01*
X39538616Y-28347922D01*
X39538611Y-28347929D01*
X39424794Y-28545067D01*
X39400364Y-28587381D01*
X39295138Y-28847824D01*
X39294073Y-28852097D01*
X39294072Y-28852099D01*
X39260379Y-28987236D01*
X39227183Y-29120376D01*
X39197822Y-29399733D01*
X33057271Y-29399733D01*
X33052375Y-29259542D01*
X33028608Y-29124749D01*
X33004360Y-28987236D01*
X33003598Y-28982913D01*
X32916797Y-28715765D01*
X32793660Y-28463298D01*
X32791205Y-28459659D01*
X32791202Y-28459653D01*
X32710935Y-28340653D01*
X32636585Y-28230424D01*
X32448629Y-28021678D01*
X32233450Y-27841121D01*
X31995236Y-27692269D01*
X31738625Y-27578018D01*
X31468610Y-27500593D01*
X31464260Y-27499982D01*
X31464257Y-27499981D01*
X31361310Y-27485513D01*
X31190448Y-27461500D01*
X30979854Y-27461500D01*
X30977668Y-27461653D01*
X30977664Y-27461653D01*
X30774173Y-27475882D01*
X30774168Y-27475883D01*
X30769788Y-27476189D01*
X30495030Y-27534591D01*
X30490901Y-27536094D01*
X30490897Y-27536095D01*
X30235219Y-27629154D01*
X30235215Y-27629156D01*
X30231074Y-27630663D01*
X29983058Y-27762536D01*
X29979499Y-27765122D01*
X29979497Y-27765123D01*
X29874895Y-27841121D01*
X29755808Y-27927642D01*
X29553748Y-28122769D01*
X29380812Y-28344118D01*
X29378616Y-28347922D01*
X29378611Y-28347929D01*
X29264794Y-28545067D01*
X29240364Y-28587381D01*
X29135138Y-28847824D01*
X29134073Y-28852097D01*
X29134072Y-28852099D01*
X29100379Y-28987236D01*
X29067183Y-29120376D01*
X29037822Y-29399733D01*
X22298500Y-29399733D01*
X22298500Y-24639733D01*
X23277822Y-24639733D01*
X23287625Y-24920458D01*
X23288387Y-24924781D01*
X23288388Y-24924788D01*
X23312164Y-25059624D01*
X23336402Y-25197087D01*
X23423203Y-25464235D01*
X23546340Y-25716702D01*
X23548795Y-25720341D01*
X23548798Y-25720347D01*
X23613992Y-25817000D01*
X23703415Y-25949576D01*
X23891371Y-26158322D01*
X24106550Y-26338879D01*
X24344764Y-26487731D01*
X24601375Y-26601982D01*
X24871390Y-26679407D01*
X24875740Y-26680018D01*
X24875743Y-26680019D01*
X24978690Y-26694487D01*
X25149552Y-26718500D01*
X25360146Y-26718500D01*
X25362332Y-26718347D01*
X25362336Y-26718347D01*
X25565827Y-26704118D01*
X25565832Y-26704117D01*
X25570212Y-26703811D01*
X25844970Y-26645409D01*
X25849099Y-26643906D01*
X25849103Y-26643905D01*
X26104781Y-26550846D01*
X26104785Y-26550844D01*
X26108926Y-26549337D01*
X26356942Y-26417464D01*
X26461896Y-26341211D01*
X26580629Y-26254947D01*
X26580632Y-26254944D01*
X26584192Y-26252358D01*
X26786252Y-26057231D01*
X26959188Y-25835882D01*
X26961384Y-25832078D01*
X26961389Y-25832071D01*
X27097435Y-25596431D01*
X27099636Y-25592619D01*
X27204862Y-25332176D01*
X27238544Y-25197087D01*
X27271753Y-25063893D01*
X27271754Y-25063888D01*
X27272817Y-25059624D01*
X27302178Y-24780267D01*
X27292375Y-24499542D01*
X27268608Y-24364749D01*
X27244360Y-24227236D01*
X27243598Y-24222913D01*
X27156797Y-23955765D01*
X27033660Y-23703298D01*
X27031205Y-23699659D01*
X27031202Y-23699653D01*
X26950935Y-23580653D01*
X26876585Y-23470424D01*
X26688629Y-23261678D01*
X26473450Y-23081121D01*
X26235236Y-22932269D01*
X25978625Y-22818018D01*
X25708610Y-22740593D01*
X25704260Y-22739982D01*
X25704257Y-22739981D01*
X25601310Y-22725513D01*
X25430448Y-22701500D01*
X25219854Y-22701500D01*
X25217668Y-22701653D01*
X25217664Y-22701653D01*
X25014173Y-22715882D01*
X25014168Y-22715883D01*
X25009788Y-22716189D01*
X24735030Y-22774591D01*
X24730901Y-22776094D01*
X24730897Y-22776095D01*
X24475219Y-22869154D01*
X24475215Y-22869156D01*
X24471074Y-22870663D01*
X24223058Y-23002536D01*
X24219499Y-23005122D01*
X24219497Y-23005123D01*
X24114895Y-23081121D01*
X23995808Y-23167642D01*
X23793748Y-23362769D01*
X23620812Y-23584118D01*
X23618616Y-23587922D01*
X23618611Y-23587929D01*
X23504794Y-23785067D01*
X23480364Y-23827381D01*
X23375138Y-24087824D01*
X23374073Y-24092097D01*
X23374072Y-24092099D01*
X23340379Y-24227236D01*
X23307183Y-24360376D01*
X23277822Y-24639733D01*
X22298500Y-24639733D01*
X22298500Y-21844500D01*
X22318502Y-21776379D01*
X22372158Y-21729886D01*
X22424500Y-21718500D01*
X36487950Y-21718500D01*
X36556071Y-21738502D01*
G37*
G04 #@! TD.AperFunction*
M02*
