M48
; DRILL file {KiCad 5.1.5-52549c5~86~ubuntu18.04.1} date jue 27 ago 2020 00:23:03 -05
; FORMAT={-:-/ absolute / metric / decimal}
; #@! TF.CreationDate,2020-08-27T00:23:03-05:00
; #@! TF.GenerationSoftware,Kicad,Pcbnew,5.1.5-52549c5~86~ubuntu18.04.1
; #@! TF.FileFunction,NonPlated,1,2,NPTH
FMAT,2
METRIC
T1C3.000
%
G90
G05
T1
X74.61Y-64.45
X64.45Y-74.61
X115.25Y-54.29
X176.21Y-84.77
X145.73Y-115.25
X74.61Y-125.41
X44.13Y-33.97
X64.45Y-125.41
X145.73Y-23.81
X135.57Y-125.41
X84.77Y-115.25
X33.97Y-74.61
X84.77Y-33.97
X64.45Y-54.29
X186.37Y-33.97
X33.97Y-64.45
X94.93Y-64.45
X54.29Y-105.09
X186.37Y-105.09
X84.77Y-125.41
X135.57Y-74.61
X105.09Y-64.45
X145.73Y-54.29
X94.93Y-105.09
X105.09Y-115.25
X74.61Y-44.13
X125.41Y-84.77
X54.29Y-23.81
X33.97Y-84.77
X135.57Y-54.29
X64.45Y-23.81
X176.21Y-125.41
X22.67Y-54.61
X186.37Y-125.41
X135.57Y-84.77
X125.41Y-33.97
X105.09Y-74.61
X94.93Y-84.77
X54.29Y-125.41
X84.77Y-94.93
X176.21Y-74.61
X155.89Y-74.61
X127.67Y-74.61
X54.29Y-44.13
X186.37Y-54.29
X155.89Y-23.81
X94.93Y-23.81
X84.77Y-54.29
X64.45Y-105.09
X44.13Y-115.25
X186.37Y-94.93
X73.67Y-28.61
X74.61Y-84.77
X191.67Y-29.11
X23.81Y-44.13
X145.73Y-105.09
X135.57Y-33.97
X105.09Y-23.81
X115.25Y-64.45
X54.29Y-33.97
X115.25Y-44.13
X64.45Y-115.25
X64.45Y-44.13
X127.67Y-116.61
X50.67Y-29.11
X94.93Y-33.97
X186.37Y-74.61
X94.93Y-54.29
X44.13Y-125.41
X115.25Y-84.77
X135.57Y-44.13
X166.05Y-64.45
X196.53Y-54.29
X166.05Y-23.81
X176.21Y-94.93
X145.73Y-44.13
X166.05Y-105.09
X186.37Y-115.25
X50.67Y-120.11
X197.67Y-94.61
X135.57Y-115.25
X166.05Y-125.41
X33.97Y-125.41
X176.21Y-115.25
X33.97Y-54.29
X84.77Y-44.13
X125.41Y-94.93
X44.13Y-84.77
X54.29Y-94.93
X186.37Y-84.77
X94.93Y-44.13
X125.41Y-125.41
X105.09Y-84.77
X145.73Y-33.97
X64.45Y-84.77
X125.41Y-44.13
X176.21Y-54.29
X155.89Y-105.09
X33.97Y-23.81
X23.81Y-105.09
X166.05Y-54.29
X176.21Y-23.81
X28.67Y-29.11
X166.05Y-44.13
X44.13Y-74.61
X22.67Y-94.61
X54.29Y-84.77
X44.13Y-64.45
X37.67Y-34.61
X33.97Y-44.13
X54.29Y-115.25
X74.61Y-23.81
X145.73Y-84.77
X92.67Y-116.61
X145.73Y-125.41
X74.61Y-74.61
X92.67Y-74.61
X155.89Y-84.77
X105.09Y-105.09
X186.37Y-44.13
X196.53Y-84.77
X155.89Y-44.13
X115.25Y-23.81
X196.53Y-44.13
X64.45Y-33.97
X197.67Y-74.61
X145.73Y-64.45
X155.89Y-33.97
X105.09Y-44.13
X105.09Y-33.97
X189.67Y-62.61
X125.41Y-105.09
X166.05Y-74.61
X145.73Y-74.61
X94.93Y-125.41
X155.89Y-54.29
X155.89Y-125.41
X196.53Y-105.09
X44.13Y-105.09
X54.29Y-74.61
X84.77Y-74.61
X105.09Y-54.29
X115.25Y-115.25
X64.45Y-64.45
X186.37Y-23.81
X176.21Y-44.13
X155.89Y-64.45
X166.05Y-33.97
X44.13Y-54.29
X196.53Y-64.45
X74.61Y-33.97
X23.81Y-84.77
X22.67Y-74.61
X64.45Y-94.93
X23.81Y-64.45
X84.77Y-84.77
X94.93Y-94.93
X166.05Y-84.77
X115.25Y-94.93
X135.57Y-64.45
X33.97Y-105.09
X125.41Y-23.81
X105.09Y-125.41
X166.05Y-94.93
X125.41Y-64.45
X33.97Y-94.93
X155.89Y-115.25
X44.13Y-23.81
X54.29Y-54.29
X146.67Y-28.61
X191.67Y-120.11
X84.77Y-64.45
X54.29Y-64.45
X145.73Y-94.93
X105.09Y-94.93
X44.13Y-44.13
X74.61Y-94.93
X115.25Y-105.09
X166.05Y-115.25
X176.21Y-33.97
X84.77Y-23.81
X74.61Y-54.29
X44.13Y-94.93
X155.89Y-94.93
X28.67Y-120.11
X115.25Y-74.61
X74.61Y-115.25
X73.67Y-120.61
X84.77Y-105.09
X37.67Y-114.61
X176.21Y-105.09
X135.57Y-105.09
X125.41Y-54.29
X74.61Y-105.09
X135.57Y-23.81
X176.21Y-64.45
X115.25Y-33.97
X115.25Y-125.41
X135.57Y-94.93
T0
M30
