<?xml version="1.0" standalone="no"?>
 <!DOCTYPE svg PUBLIC "-//W3C//DTD SVG 1.1//EN" 
 "http://www.w3.org/Graphics/SVG/1.1/DTD/svg11.dtd"> 
<svg xmlns="http://www.w3.org/2000/svg" version="1.1" 
    width="29.7002cm" height="21.0007cm" viewBox="0 0 116930 82680 ">
<title>SVG Picture created as A05-F_Cu.svg date 2020/08/31 20:53:08 </title>
  <desc>Picture generated by PCBNEW </desc>
<g style="fill:#000000; fill-opacity:1;stroke:#000000; stroke-opacity:1;
stroke-linecap:round; stroke-linejoin:round; "
 transform="translate(0 0) scale(1 1)">
</g>
<g style="fill:#000000; fill-opacity:0.0; 
stroke:#000000; stroke-width:-0.000393701; stroke-opacity:1; 
stroke-linecap:round; stroke-linejoin:round;">
<g >
</g>
<g >
</g>
<g >
</g>
<g >
</g>
<g >
</g>
<g >
</g>
<g style="fill:#000000; fill-opacity:0.0; 
stroke:#000000; stroke-width:-0.000393701; stroke-opacity:1; 
stroke-linecap:round; stroke-linejoin:round;">
</g>
<g style="fill:#000000; fill-opacity:1.0; 
stroke:#000000; stroke-width:0; stroke-opacity:1; 
stroke-linecap:round; stroke-linejoin:round;">
<circle cx="31374" cy="31374" r="492" /> 
</g>
<g style="fill:#000000; fill-opacity:1.0; 
stroke:#000000; stroke-width:39.3701; stroke-opacity:1; 
stroke-linecap:round; stroke-linejoin:round;">
</g>
<g >
</g>
<g style="fill:#000000; fill-opacity:1.0; 
stroke:#000000; stroke-width:39.3701; stroke-opacity:1; 
stroke-linecap:round; stroke-linejoin:round;">
</g>
<g style="fill:#000000; fill-opacity:1.0; 
stroke:#000000; stroke-width:0; stroke-opacity:1; 
stroke-linecap:round; stroke-linejoin:round;">
<circle cx="31374" cy="11374" r="492" /> 
</g>
<g style="fill:#000000; fill-opacity:1.0; 
stroke:#000000; stroke-width:39.3701; stroke-opacity:1; 
stroke-linecap:round; stroke-linejoin:round;">
</g>
<g >
</g>
<g style="fill:#000000; fill-opacity:1.0; 
stroke:#000000; stroke-width:39.3701; stroke-opacity:1; 
stroke-linecap:round; stroke-linejoin:round;">
</g>
<g style="fill:#000000; fill-opacity:1.0; 
stroke:#000000; stroke-width:0; stroke-opacity:1; 
stroke-linecap:round; stroke-linejoin:round;">
<circle cx="15374" cy="31374" r="492" /> 
</g>
<g style="fill:#000000; fill-opacity:1.0; 
stroke:#000000; stroke-width:39.3701; stroke-opacity:1; 
stroke-linecap:round; stroke-linejoin:round;">
</g>
<g >
</g>
<g style="fill:#000000; fill-opacity:1.0; 
stroke:#000000; stroke-width:39.3701; stroke-opacity:1; 
stroke-linecap:round; stroke-linejoin:round;">
</g>
<g style="fill:#000000; fill-opacity:1.0; 
stroke:#000000; stroke-width:0; stroke-opacity:1; 
stroke-linecap:round; stroke-linejoin:round;">
<circle cx="15374" cy="11374" r="492" /> 
</g>
<g style="fill:#000000; fill-opacity:1.0; 
stroke:#000000; stroke-width:39.3701; stroke-opacity:1; 
stroke-linecap:round; stroke-linejoin:round;">
</g>
<g >
</g>
<g >
</g>
<g >
</g>
<g >
</g>
<g >
</g>
<g >
</g>
<g >
</g>
<g >
</g>
<g >
</g>
<g >
</g>
<g >
</g>
<g >
</g>
<g >
</g>
<g >
</g>
<g >
</g>
<g >
</g>
<g >
</g>
<g >
</g>
<g >
</g>
<g >
</g>
<g >
</g>
<g >
</g>
<g >
</g>
<g >
</g>
<g >
</g>
<g >
</g>
<g >
</g>
<g >
</g>
<g >
</g>
<g >
</g>
<g >
</g>
<g >
</g>
<g >
</g>
<g >
</g>
<g >
</g>
<g >
</g>
<g >
</g>
<g >
</g>
<g >
</g>
<g >
</g>
<g >
</g>
<g >
</g>
<g >
</g>
<g >
</g>
<g >
</g>
<g >
</g>
<g >
</g>
<g >
</g>
<g >
</g>
<g >
</g>
<g >
</g>
<g >
</g>
<g >
</g>
<g >
</g>
<g >
</g>
<g >
</g>
<g >
</g>
<g >
</g>
<g >
</g>
<g >
</g>
<g >
</g>
<g style="fill:#000000; fill-opacity:1.0; 
stroke:#000000; stroke-width:39.3701; stroke-opacity:1; 
stroke-linecap:round; stroke-linejoin:round;">
</g>
<g style="fill:#000000; fill-opacity:1.0; 
stroke:#000000; stroke-width:100; stroke-opacity:1; 
stroke-linecap:round; stroke-linejoin:round;">
<path style="fill:#000000; fill-opacity:1.0; 
stroke:#000000; stroke-width:100; stroke-opacity:1; 
stroke-linecap:round; stroke-linejoin:round;fill-rule:evenodd;"
d="M 42610,34614.2
8133.86,34614.2
8133.86,33291.2
8533.46,33291.2
8533.46,33456.8
8565.77,33619.2
8629.13,33772.2
8721.12,33909.8
8838.2,34026.9
8975.87,34118.9
9128.84,34182.3
9291.23,34214.6
9456.8,34214.6
9619.2,34182.3
9772.17,34118.9
9909.84,34026.9
10026.9,33909.8
10118.9,33772.2
10182.3,33619.2
10214.6,33456.8
10214.6,33291.2
12533.5,33291.2
12533.5,33456.8
12565.8,33619.2
12629.1,33772.2
12721.1,33909.8
12838.2,34026.9
12975.9,34118.9
13128.8,34182.3
13291.2,34214.6
13456.8,34214.6
13619.2,34182.3
13772.2,34118.9
13909.8,34026.9
14026.9,33909.8
14118.9,33772.2
14182.3,33619.2
14214.6,33456.8
14214.6,33291.2
16533.5,33291.2
16533.5,33456.8
16565.8,33619.2
16629.1,33772.2
16721.1,33909.8
16838.2,34026.9
16975.9,34118.9
17128.8,34182.3
17291.2,34214.6
17456.8,34214.6
17619.2,34182.3
17772.2,34118.9
17909.8,34026.9
18026.9,33909.8
18118.9,33772.2
18182.3,33619.2
18214.6,33456.8
18214.6,33291.2
20533.5,33291.2
20533.5,33456.8
20565.8,33619.2
20629.1,33772.2
20721.1,33909.8
20838.2,34026.9
20975.9,34118.9
21128.8,34182.3
21291.2,34214.6
21456.8,34214.6
21619.2,34182.3
21772.2,34118.9
21909.8,34026.9
22026.9,33909.8
22118.9,33772.2
22182.3,33619.2
22214.6,33456.8
22214.6,33291.2
24533.5,33291.2
24533.5,33456.8
24565.8,33619.2
24629.1,33772.2
24721.1,33909.8
24838.2,34026.9
24975.9,34118.9
25128.8,34182.3
25291.2,34214.6
25456.8,34214.6
25619.2,34182.3
25772.2,34118.9
25909.8,34026.9
26026.9,33909.8
26118.9,33772.2
26182.3,33619.2
26214.6,33456.8
26214.6,33291.2
28533.5,33291.2
28533.5,33456.8
28565.8,33619.2
28629.1,33772.2
28721.1,33909.8
28838.2,34026.9
28975.9,34118.9
29128.8,34182.3
29291.2,34214.6
29456.8,34214.6
29619.2,34182.3
29772.2,34118.9
29909.8,34026.9
30026.9,33909.8
30118.9,33772.2
30182.3,33619.2
30214.6,33456.8
30214.6,33291.2
32533.5,33291.2
32533.5,33456.8
32565.8,33619.2
32629.1,33772.2
32721.1,33909.8
32838.2,34026.9
32975.9,34118.9
33128.8,34182.3
33291.2,34214.6
33456.8,34214.6
33619.2,34182.3
33772.2,34118.9
33909.8,34026.9
34026.9,33909.8
34118.9,33772.2
34182.3,33619.2
34214.6,33456.8
34214.6,33291.2
36533.5,33291.2
36533.5,33456.8
36565.8,33619.2
36629.1,33772.2
36721.1,33909.8
36838.2,34026.9
36975.9,34118.9
37128.8,34182.3
37291.2,34214.6
37456.8,34214.6
37619.2,34182.3
37772.2,34118.9
37909.8,34026.9
38026.9,33909.8
38118.9,33772.2
38182.3,33619.2
38214.6,33456.8
38214.6,33291.2
40533.5,33291.2
40533.5,33456.8
40565.8,33619.2
40629.1,33772.2
40721.1,33909.8
40838.2,34026.9
40975.9,34118.9
41128.8,34182.3
41291.2,34214.6
41456.8,34214.6
41619.2,34182.3
41772.2,34118.9
41909.8,34026.9
42026.9,33909.8
42118.9,33772.2
42182.3,33619.2
42214.6,33456.8
42214.6,33291.2
42182.3,33128.8
42118.9,32975.9
42026.9,32838.2
41909.8,32721.1
41772.2,32629.1
41619.2,32565.8
41456.8,32533.5
41291.2,32533.5
41128.8,32565.8
40975.9,32629.1
40838.2,32721.1
40721.1,32838.2
40629.1,32975.9
40565.8,33128.8
40533.5,33291.2
38214.6,33291.2
38182.3,33128.8
38118.9,32975.9
38026.9,32838.2
37909.8,32721.1
37772.2,32629.1
37619.2,32565.8
37456.8,32533.5
37291.2,32533.5
37128.8,32565.8
36975.9,32629.1
36838.2,32721.1
36721.1,32838.2
36629.1,32975.9
36565.8,33128.8
36533.5,33291.2
34214.6,33291.2
34182.3,33128.8
34118.9,32975.9
34026.9,32838.2
33909.8,32721.1
33772.2,32629.1
33619.2,32565.8
33456.8,32533.5
33291.2,32533.5
33128.8,32565.8
32975.9,32629.1
32838.2,32721.1
32721.1,32838.2
32629.1,32975.9
32565.8,33128.8
32533.5,33291.2
30214.6,33291.2
30182.3,33128.8
30118.9,32975.9
30026.9,32838.2
29909.8,32721.1
29772.2,32629.1
29619.2,32565.8
29456.8,32533.5
29291.2,32533.5
29128.8,32565.8
28975.9,32629.1
28838.2,32721.1
28721.1,32838.2
28629.1,32975.9
28565.8,33128.8
28533.5,33291.2
26214.6,33291.2
26182.3,33128.8
26118.9,32975.9
26026.9,32838.2
25909.8,32721.1
25772.2,32629.1
25619.2,32565.8
25456.8,32533.5
25291.2,32533.5
25128.8,32565.8
24975.9,32629.1
24838.2,32721.1
24721.1,32838.2
24629.1,32975.9
24565.8,33128.8
24533.5,33291.2
22214.6,33291.2
22182.3,33128.8
22118.9,32975.9
22026.9,32838.2
21909.8,32721.1
21772.2,32629.1
21619.2,32565.8
21456.8,32533.5
21291.2,32533.5
21128.8,32565.8
20975.9,32629.1
20838.2,32721.1
20721.1,32838.2
20629.1,32975.9
20565.8,33128.8
20533.5,33291.2
18214.6,33291.2
18182.3,33128.8
18118.9,32975.9
18026.9,32838.2
17909.8,32721.1
17772.2,32629.1
17619.2,32565.8
17456.8,32533.5
17291.2,32533.5
17128.8,32565.8
16975.9,32629.1
16838.2,32721.1
16721.1,32838.2
16629.1,32975.9
16565.8,33128.8
16533.5,33291.2
14214.6,33291.2
14182.3,33128.8
14118.9,32975.9
14026.9,32838.2
13909.8,32721.1
13772.2,32629.1
13619.2,32565.8
13456.8,32533.5
13291.2,32533.5
13128.8,32565.8
12975.9,32629.1
12838.2,32721.1
12721.1,32838.2
12629.1,32975.9
12565.8,33128.8
12533.5,33291.2
10214.6,33291.2
10182.3,33128.8
10118.9,32975.9
10026.9,32838.2
9909.84,32721.1
9772.17,32629.1
9619.2,32565.8
9456.8,32533.5
9291.23,32533.5
9128.84,32565.8
8975.87,32629.1
8838.2,32721.1
8721.12,32838.2
8629.13,32975.9
8565.77,33128.8
8533.46,33291.2
8133.86,33291.2
8133.86,31891.1
14927.6,31891.1
14977.2,32005.2
15108,32070.5
15249,32109
15394.8,32119.3
15539.8,32100.9
15678.4,32054.6
15770.8,32005.2
15820.4,31891.1
30927.6,31891.1
30977.2,32005.2
31108,32070.5
31249,32109
31394.8,32119.3
31539.8,32100.9
31678.4,32054.6
31770.8,32005.2
31820.4,31891.1
31374,31444.7
30927.6,31891.1
15820.4,31891.1
15374,31444.7
14927.6,31891.1
8133.86,31891.1
8133.86,31394.8
14628.7,31394.8
14647.1,31539.8
14693.4,31678.4
14742.8,31770.8
14856.9,31820.4
15303.3,31374
15444.7,31374
15891.1,31820.4
16005.2,31770.8
16070.5,31640.1
16109,31499.1
16116.4,31394.8
30628.7,31394.8
30647.1,31539.8
30693.4,31678.4
30742.8,31770.8
30856.9,31820.4
31303.3,31374
31444.7,31374
31891.1,31820.4
32005.2,31770.8
32070.5,31640.1
32109,31499.1
32119.3,31353.3
32100.9,31208.3
32054.6,31069.6
32005.2,30977.2
31891.1,30927.6
31444.7,31374
31303.3,31374
30856.9,30927.6
30742.8,30977.2
30677.5,31108
30639,31249
30628.7,31394.8
16116.4,31394.8
16119.3,31353.3
16100.9,31208.3
16054.6,31069.6
16005.2,30977.2
15891.1,30927.6
15444.7,31374
15303.3,31374
14856.9,30927.6
14742.8,30977.2
14677.5,31108
14639,31249
14628.7,31394.8
8133.86,31394.8
8133.86,30856.9
14927.6,30856.9
15374,31303.3
15820.4,30856.9
30927.6,30856.9
31374,31303.3
31820.4,30856.9
31770.8,30742.8
31640.1,30677.5
31499.1,30639
31353.3,30628.7
31208.3,30647.1
31069.6,30693.4
30977.2,30742.8
30927.6,30856.9
15820.4,30856.9
15770.8,30742.8
15640.1,30677.5
15499.1,30639
15353.3,30628.7
15208.3,30647.1
15069.6,30693.4
14977.2,30742.8
14927.6,30856.9
8133.86,30856.9
8133.86,29539.6
9179.13,29539.6
9179.13,29743.9
9219,29944.3
9297.2,30133.1
9410.73,30303
9555.23,30447.5
9725.14,30561.1
9913.94,30639.3
10114.4,30679.1
10318.7,30679.1
10519.1,30639.3
10707.9,30561.1
10877.8,30447.5
11022.3,30303
11135.9,30133.1
11214.1,29944.3
11253.9,29743.9
11253.9,29539.6
11214.1,29339.1
11194.2,29291.2
12533.5,29291.2
12533.5,29456.8
12565.8,29619.2
12629.1,29772.2
12721.1,29909.8
12838.2,30026.9
12975.9,30118.9
13128.8,30182.3
13291.2,30214.6
13456.8,30214.6
13619.2,30182.3
13772.2,30118.9
13909.8,30026.9
14026.9,29909.8
14118.9,29772.2
14182.3,29619.2
14214.6,29456.8
14214.6,29291.2
16533.5,29291.2
16533.5,29456.8
16565.8,29619.2
16629.1,29772.2
16721.1,29909.8
16838.2,30026.9
16975.9,30118.9
17128.8,30182.3
17291.2,30214.6
17456.8,30214.6
17619.2,30182.3
17772.2,30118.9
17909.8,30026.9
18026.9,29909.8
18118.9,29772.2
18182.3,29619.2
18214.6,29456.8
18214.6,29291.2
20533.5,29291.2
20533.5,29456.8
20565.8,29619.2
20629.1,29772.2
20721.1,29909.8
20838.2,30026.9
20975.9,30118.9
21128.8,30182.3
21291.2,30214.6
21456.8,30214.6
21619.2,30182.3
21772.2,30118.9
21909.8,30026.9
22026.9,29909.8
22118.9,29772.2
22182.3,29619.2
22214.6,29456.8
22214.6,29291.2
24533.5,29291.2
24533.5,29456.8
24565.8,29619.2
24629.1,29772.2
24721.1,29909.8
24838.2,30026.9
24975.9,30118.9
25128.8,30182.3
25291.2,30214.6
25456.8,30214.6
25619.2,30182.3
25772.2,30118.9
25909.8,30026.9
26026.9,29909.8
26118.9,29772.2
26182.3,29619.2
26214.6,29456.8
26214.6,29291.2
28533.5,29291.2
28533.5,29456.8
28565.8,29619.2
28629.1,29772.2
28721.1,29909.8
28838.2,30026.9
28975.9,30118.9
29128.8,30182.3
29291.2,30214.6
29456.8,30214.6
29619.2,30182.3
29772.2,30118.9
29909.8,30026.9
30026.9,29909.8
30118.9,29772.2
30182.3,29619.2
30214.6,29456.8
30214.6,29291.2
32533.5,29291.2
32533.5,29456.8
32565.8,29619.2
32629.1,29772.2
32721.1,29909.8
32838.2,30026.9
32975.9,30118.9
33128.8,30182.3
33291.2,30214.6
33456.8,30214.6
33619.2,30182.3
33772.2,30118.9
33909.8,30026.9
34026.9,29909.8
34118.9,29772.2
34182.3,29619.2
34198.1,29539.6
35950.8,29539.6
35950.8,29743.9
35990.7,29944.3
36068.9,30133.1
36182.4,30303
36326.9,30447.5
36496.8,30561.1
36685.6,30639.3
36886,30679.1
37090.4,30679.1
37290.8,30639.3
37479.6,30561.1
37649.5,30447.5
37794,30303
37907.5,30133.1
37985.7,29944.3
38025.6,29743.9
38025.6,29539.6
37985.7,29339.1
37965.9,29291.2
40533.5,29291.2
40533.5,29456.8
40565.8,29619.2
40629.1,29772.2
40721.1,29909.8
40838.2,30026.9
40975.9,30118.9
41128.8,30182.3
41291.2,30214.6
41456.8,30214.6
41619.2,30182.3
41772.2,30118.9
41909.8,30026.9
42026.9,29909.8
42118.9,29772.2
42182.3,29619.2
42214.6,29456.8
42214.6,29291.2
42182.3,29128.8
42118.9,28975.9
42026.9,28838.2
41909.8,28721.1
41772.2,28629.1
41619.2,28565.8
41456.8,28533.5
41291.2,28533.5
41128.8,28565.8
40975.9,28629.1
40838.2,28721.1
40721.1,28838.2
40629.1,28975.9
40565.8,29128.8
40533.5,29291.2
37965.9,29291.2
37907.5,29150.3
37794,28980.4
37649.5,28835.9
37479.6,28722.4
37290.8,28644.2
37090.4,28604.3
36886,28604.3
36685.6,28644.2
36496.8,28722.4
36326.9,28835.9
36182.4,28980.4
36068.9,29150.3
35990.7,29339.1
35950.8,29539.6
34198.1,29539.6
34214.6,29456.8
34214.6,29291.2
34182.3,29128.8
34118.9,28975.9
34026.9,28838.2
33909.8,28721.1
33772.2,28629.1
33619.2,28565.8
33456.8,28533.5
33291.2,28533.5
33128.8,28565.8
32975.9,28629.1
32838.2,28721.1
32721.1,28838.2
32629.1,28975.9
32565.8,29128.8
32533.5,29291.2
30214.6,29291.2
30182.3,29128.8
30118.9,28975.9
30026.9,28838.2
29909.8,28721.1
29772.2,28629.1
29619.2,28565.8
29456.8,28533.5
29291.2,28533.5
29128.8,28565.8
28975.9,28629.1
28838.2,28721.1
28721.1,28838.2
28629.1,28975.9
28565.8,29128.8
28533.5,29291.2
26214.6,29291.2
26182.3,29128.8
26118.9,28975.9
26026.9,28838.2
25909.8,28721.1
25772.2,28629.1
25619.2,28565.8
25456.8,28533.5
25291.2,28533.5
25128.8,28565.8
24975.9,28629.1
24838.2,28721.1
24721.1,28838.2
24629.1,28975.9
24565.8,29128.8
24533.5,29291.2
22214.6,29291.2
22182.3,29128.8
22118.9,28975.9
22026.9,28838.2
21909.8,28721.1
21772.2,28629.1
21619.2,28565.8
21456.8,28533.5
21291.2,28533.5
21128.8,28565.8
20975.9,28629.1
20838.2,28721.1
20721.1,28838.2
20629.1,28975.9
20565.8,29128.8
20533.5,29291.2
18214.6,29291.2
18182.3,29128.8
18118.9,28975.9
18026.9,28838.2
17909.8,28721.1
17772.2,28629.1
17619.2,28565.8
17456.8,28533.5
17291.2,28533.5
17128.8,28565.8
16975.9,28629.1
16838.2,28721.1
16721.1,28838.2
16629.1,28975.9
16565.8,29128.8
16533.5,29291.2
14214.6,29291.2
14182.3,29128.8
14118.9,28975.9
14026.9,28838.2
13909.8,28721.1
13772.2,28629.1
13619.2,28565.8
13456.8,28533.5
13291.2,28533.5
13128.8,28565.8
12975.9,28629.1
12838.2,28721.1
12721.1,28838.2
12629.1,28975.9
12565.8,29128.8
12533.5,29291.2
11194.2,29291.2
11135.9,29150.3
11022.3,28980.4
10877.8,28835.9
10707.9,28722.4
10519.1,28644.2
10318.7,28604.3
10114.4,28604.3
9913.94,28644.2
9725.14,28722.4
9555.23,28835.9
9410.73,28980.4
9297.2,29150.3
9219,29339.1
9179.13,29539.6
8133.86,29539.6
8133.86,25291.2
8533.46,25291.2
8533.46,25456.8
8565.77,25619.2
8629.13,25772.2
8721.12,25909.8
8838.2,26026.9
8975.87,26118.9
9128.84,26182.3
9291.23,26214.6
9456.8,26214.6
9619.2,26182.3
9772.17,26118.9
9909.84,26026.9
10026.9,25909.8
10118.9,25772.2
10182.3,25619.2
10214.6,25456.8
10214.6,25291.2
12533.5,25291.2
12533.5,25456.8
12565.8,25619.2
12629.1,25772.2
12721.1,25909.8
12838.2,26026.9
12975.9,26118.9
13128.8,26182.3
13291.2,26214.6
13456.8,26214.6
13619.2,26182.3
13772.2,26118.9
13909.8,26026.9
14026.9,25909.8
14118.9,25772.2
14182.3,25619.2
14214.6,25456.8
14214.6,25291.2
16533.5,25291.2
16533.5,25456.8
16565.8,25619.2
16629.1,25772.2
16721.1,25909.8
16838.2,26026.9
16975.9,26118.9
17128.8,26182.3
17291.2,26214.6
17456.8,26214.6
17619.2,26182.3
17772.2,26118.9
17909.8,26026.9
18026.9,25909.8
18118.9,25772.2
18182.3,25619.2
18214.6,25456.8
18214.6,25291.2
20533.5,25291.2
20533.5,25456.8
20565.8,25619.2
20629.1,25772.2
20721.1,25909.8
20838.2,26026.9
20975.9,26118.9
21128.8,26182.3
21291.2,26214.6
21456.8,26214.6
21619.2,26182.3
21772.2,26118.9
21909.8,26026.9
22026.9,25909.8
22118.9,25772.2
22182.3,25619.2
22214.6,25456.8
22214.6,25291.2
24533.5,25291.2
24533.5,25456.8
24565.8,25619.2
24629.1,25772.2
24721.1,25909.8
24838.2,26026.9
24975.9,26118.9
25128.8,26182.3
25291.2,26214.6
25456.8,26214.6
25619.2,26182.3
25772.2,26118.9
25909.8,26026.9
26026.9,25909.8
26118.9,25772.2
26182.3,25619.2
26214.6,25456.8
26214.6,25291.2
28533.5,25291.2
28533.5,25456.8
28565.8,25619.2
28629.1,25772.2
28721.1,25909.8
28838.2,26026.9
28975.9,26118.9
29128.8,26182.3
29291.2,26214.6
29456.8,26214.6
29619.2,26182.3
29772.2,26118.9
29909.8,26026.9
30026.9,25909.8
30118.9,25772.2
30182.3,25619.2
30214.6,25456.8
30214.6,25291.2
32533.5,25291.2
32533.5,25456.8
32565.8,25619.2
32629.1,25772.2
32721.1,25909.8
32838.2,26026.9
32975.9,26118.9
33128.8,26182.3
33291.2,26214.6
33456.8,26214.6
33619.2,26182.3
33772.2,26118.9
33909.8,26026.9
34026.9,25909.8
34118.9,25772.2
34182.3,25619.2
34214.6,25456.8
34214.6,25291.2
36533.5,25291.2
36533.5,25456.8
36565.8,25619.2
36629.1,25772.2
36721.1,25909.8
36838.2,26026.9
36975.9,26118.9
37128.8,26182.3
37291.2,26214.6
37456.8,26214.6
37619.2,26182.3
37772.2,26118.9
37909.8,26026.9
38026.9,25909.8
38118.9,25772.2
38182.3,25619.2
38214.6,25456.8
38214.6,25291.2
40533.5,25291.2
40533.5,25456.8
40565.8,25619.2
40629.1,25772.2
40721.1,25909.8
40838.2,26026.9
40975.9,26118.9
41128.8,26182.3
41291.2,26214.6
41456.8,26214.6
41619.2,26182.3
41772.2,26118.9
41909.8,26026.9
42026.9,25909.8
42118.9,25772.2
42182.3,25619.2
42214.6,25456.8
42214.6,25291.2
42182.3,25128.8
42118.9,24975.9
42026.9,24838.2
41909.8,24721.1
41772.2,24629.1
41619.2,24565.8
41456.8,24533.5
41291.2,24533.5
41128.8,24565.8
40975.9,24629.1
40838.2,24721.1
40721.1,24838.2
40629.1,24975.9
40565.8,25128.8
40533.5,25291.2
38214.6,25291.2
38182.3,25128.8
38118.9,24975.9
38026.9,24838.2
37909.8,24721.1
37772.2,24629.1
37619.2,24565.8
37456.8,24533.5
37291.2,24533.5
37128.8,24565.8
36975.9,24629.1
36838.2,24721.1
36721.1,24838.2
36629.1,24975.9
36565.8,25128.8
36533.5,25291.2
34214.6,25291.2
34182.3,25128.8
34118.9,24975.9
34026.9,24838.2
33909.8,24721.1
33772.2,24629.1
33619.2,24565.8
33456.8,24533.5
33291.2,24533.5
33128.8,24565.8
32975.9,24629.1
32838.2,24721.1
32721.1,24838.2
32629.1,24975.9
32565.8,25128.8
32533.5,25291.2
30214.6,25291.2
30182.3,25128.8
30118.9,24975.9
30026.9,24838.2
29909.8,24721.1
29772.2,24629.1
29619.2,24565.8
29456.8,24533.5
29291.2,24533.5
29128.8,24565.8
28975.9,24629.1
28838.2,24721.1
28721.1,24838.2
28629.1,24975.9
28565.8,25128.8
28533.5,25291.2
26214.6,25291.2
26182.3,25128.8
26118.9,24975.9
26026.9,24838.2
25909.8,24721.1
25772.2,24629.1
25619.2,24565.8
25456.8,24533.5
25291.2,24533.5
25128.8,24565.8
24975.9,24629.1
24838.2,24721.1
24721.1,24838.2
24629.1,24975.9
24565.8,25128.8
24533.5,25291.2
22214.6,25291.2
22182.3,25128.8
22118.9,24975.9
22026.9,24838.2
21909.8,24721.1
21772.2,24629.1
21619.2,24565.8
21456.8,24533.5
21291.2,24533.5
21128.8,24565.8
20975.9,24629.1
20838.2,24721.1
20721.1,24838.2
20629.1,24975.9
20565.8,25128.8
20533.5,25291.2
18214.6,25291.2
18182.3,25128.8
18118.9,24975.9
18026.9,24838.2
17909.8,24721.1
17772.2,24629.1
17619.2,24565.8
17456.8,24533.5
17291.2,24533.5
17128.8,24565.8
16975.9,24629.1
16838.2,24721.1
16721.1,24838.2
16629.1,24975.9
16565.8,25128.8
16533.5,25291.2
14214.6,25291.2
14182.3,25128.8
14118.9,24975.9
14026.9,24838.2
13909.8,24721.1
13772.2,24629.1
13619.2,24565.8
13456.8,24533.5
13291.2,24533.5
13128.8,24565.8
12975.9,24629.1
12838.2,24721.1
12721.1,24838.2
12629.1,24975.9
12565.8,25128.8
12533.5,25291.2
10214.6,25291.2
10182.3,25128.8
10118.9,24975.9
10026.9,24838.2
9909.84,24721.1
9772.17,24629.1
9619.2,24565.8
9456.8,24533.5
9291.23,24533.5
9128.84,24565.8
8975.87,24629.1
8838.2,24721.1
8721.12,24838.2
8629.13,24975.9
8565.77,25128.8
8533.46,25291.2
8133.86,25291.2
8133.86,21291.2
8533.46,21291.2
8533.46,21456.8
8565.77,21619.2
8629.13,21772.2
8721.12,21909.8
8838.2,22026.9
8975.87,22118.9
9128.84,22182.3
9291.23,22214.6
9456.8,22214.6
9619.2,22182.3
9772.17,22118.9
9909.84,22026.9
10026.9,21909.8
10118.9,21772.2
10182.3,21619.2
10214.6,21456.8
10214.6,21291.2
12533.5,21291.2
12533.5,21456.8
12565.8,21619.2
12629.1,21772.2
12721.1,21909.8
12838.2,22026.9
12975.9,22118.9
13128.8,22182.3
13291.2,22214.6
13456.8,22214.6
13619.2,22182.3
13772.2,22118.9
13909.8,22026.9
14026.9,21909.8
14118.9,21772.2
14182.3,21619.2
14214.6,21456.8
14214.6,21291.2
16533.5,21291.2
16533.5,21456.8
16565.8,21619.2
16629.1,21772.2
16721.1,21909.8
16838.2,22026.9
16975.9,22118.9
17128.8,22182.3
17291.2,22214.6
17456.8,22214.6
17619.2,22182.3
17772.2,22118.9
17909.8,22026.9
18026.9,21909.8
18118.9,21772.2
18182.3,21619.2
18214.6,21456.8
18214.6,21291.2
20533.5,21291.2
20533.5,21456.8
20565.8,21619.2
20629.1,21772.2
20721.1,21909.8
20838.2,22026.9
20975.9,22118.9
21128.8,22182.3
21291.2,22214.6
21456.8,22214.6
21619.2,22182.3
21772.2,22118.9
21909.8,22026.9
22026.9,21909.8
22118.9,21772.2
22182.3,21619.2
22214.6,21456.8
22214.6,21291.2
24533.5,21291.2
24533.5,21456.8
24565.8,21619.2
24629.1,21772.2
24721.1,21909.8
24838.2,22026.9
24975.9,22118.9
25128.8,22182.3
25291.2,22214.6
25456.8,22214.6
25619.2,22182.3
25772.2,22118.9
25909.8,22026.9
26026.9,21909.8
26118.9,21772.2
26182.3,21619.2
26214.6,21456.8
26214.6,21291.2
28533.5,21291.2
28533.5,21456.8
28565.8,21619.2
28629.1,21772.2
28721.1,21909.8
28838.2,22026.9
28975.9,22118.9
29128.8,22182.3
29291.2,22214.6
29456.8,22214.6
29619.2,22182.3
29772.2,22118.9
29909.8,22026.9
30026.9,21909.8
30118.9,21772.2
30182.3,21619.2
30214.6,21456.8
30214.6,21291.2
32533.5,21291.2
32533.5,21456.8
32565.8,21619.2
32629.1,21772.2
32721.1,21909.8
32838.2,22026.9
32975.9,22118.9
33128.8,22182.3
33291.2,22214.6
33456.8,22214.6
33619.2,22182.3
33772.2,22118.9
33909.8,22026.9
34026.9,21909.8
34118.9,21772.2
34182.3,21619.2
34214.6,21456.8
34214.6,21291.2
36533.5,21291.2
36533.5,21456.8
36565.8,21619.2
36629.1,21772.2
36721.1,21909.8
36838.2,22026.9
36975.9,22118.9
37128.8,22182.3
37291.2,22214.6
37456.8,22214.6
37619.2,22182.3
37772.2,22118.9
37909.8,22026.9
38026.9,21909.8
38118.9,21772.2
38182.3,21619.2
38214.6,21456.8
38214.6,21291.2
40533.5,21291.2
40533.5,21456.8
40565.8,21619.2
40629.1,21772.2
40721.1,21909.8
40838.2,22026.9
40975.9,22118.9
41128.8,22182.3
41291.2,22214.6
41456.8,22214.6
41619.2,22182.3
41772.2,22118.9
41909.8,22026.9
42026.9,21909.8
42118.9,21772.2
42182.3,21619.2
42214.6,21456.8
42214.6,21291.2
42182.3,21128.8
42118.9,20975.9
42026.9,20838.2
41909.8,20721.1
41772.2,20629.1
41619.2,20565.8
41456.8,20533.5
41291.2,20533.5
41128.8,20565.8
40975.9,20629.1
40838.2,20721.1
40721.1,20838.2
40629.1,20975.9
40565.8,21128.8
40533.5,21291.2
38214.6,21291.2
38182.3,21128.8
38118.9,20975.9
38026.9,20838.2
37909.8,20721.1
37772.2,20629.1
37619.2,20565.8
37456.8,20533.5
37291.2,20533.5
37128.8,20565.8
36975.9,20629.1
36838.2,20721.1
36721.1,20838.2
36629.1,20975.9
36565.8,21128.8
36533.5,21291.2
34214.6,21291.2
34182.3,21128.8
34118.9,20975.9
34026.9,20838.2
33909.8,20721.1
33772.2,20629.1
33619.2,20565.8
33456.8,20533.5
33291.2,20533.5
33128.8,20565.8
32975.9,20629.1
32838.2,20721.1
32721.1,20838.2
32629.1,20975.9
32565.8,21128.8
32533.5,21291.2
30214.6,21291.2
30182.3,21128.8
30118.9,20975.9
30026.9,20838.2
29909.8,20721.1
29772.2,20629.1
29619.2,20565.8
29456.8,20533.5
29291.2,20533.5
29128.8,20565.8
28975.9,20629.1
28838.2,20721.1
28721.1,20838.2
28629.1,20975.9
28565.8,21128.8
28533.5,21291.2
26214.6,21291.2
26182.3,21128.8
26118.9,20975.9
26026.9,20838.2
25909.8,20721.1
25772.2,20629.1
25619.2,20565.8
25456.8,20533.5
25291.2,20533.5
25128.8,20565.8
24975.9,20629.1
24838.2,20721.1
24721.1,20838.2
24629.1,20975.9
24565.8,21128.8
24533.5,21291.2
22214.6,21291.2
22182.3,21128.8
22118.9,20975.9
22026.9,20838.2
21909.8,20721.1
21772.2,20629.1
21619.2,20565.8
21456.8,20533.5
21291.2,20533.5
21128.8,20565.8
20975.9,20629.1
20838.2,20721.1
20721.1,20838.2
20629.1,20975.9
20565.8,21128.8
20533.5,21291.2
18214.6,21291.2
18182.3,21128.8
18118.9,20975.9
18026.9,20838.2
17909.8,20721.1
17772.2,20629.1
17619.2,20565.8
17456.8,20533.5
17291.2,20533.5
17128.8,20565.8
16975.9,20629.1
16838.2,20721.1
16721.1,20838.2
16629.1,20975.9
16565.8,21128.8
16533.5,21291.2
14214.6,21291.2
14182.3,21128.8
14118.9,20975.9
14026.9,20838.2
13909.8,20721.1
13772.2,20629.1
13619.2,20565.8
13456.8,20533.5
13291.2,20533.5
13128.8,20565.8
12975.9,20629.1
12838.2,20721.1
12721.1,20838.2
12629.1,20975.9
12565.8,21128.8
12533.5,21291.2
10214.6,21291.2
10182.3,21128.8
10118.9,20975.9
10026.9,20838.2
9909.84,20721.1
9772.17,20629.1
9619.2,20565.8
9456.8,20533.5
9291.23,20533.5
9128.84,20565.8
8975.87,20629.1
8838.2,20721.1
8721.12,20838.2
8629.13,20975.9
8565.77,21128.8
8533.46,21291.2
8133.86,21291.2
8133.86,17291.2
8533.46,17291.2
8533.46,17456.8
8565.77,17619.2
8629.13,17772.2
8721.12,17909.8
8838.2,18026.9
8975.87,18118.9
9128.84,18182.3
9291.23,18214.6
9456.8,18214.6
9619.2,18182.3
9772.17,18118.9
9909.84,18026.9
10026.9,17909.8
10118.9,17772.2
10182.3,17619.2
10214.6,17456.8
10214.6,17291.2
12533.5,17291.2
12533.5,17456.8
12565.8,17619.2
12629.1,17772.2
12721.1,17909.8
12838.2,18026.9
12975.9,18118.9
13128.8,18182.3
13291.2,18214.6
13456.8,18214.6
13619.2,18182.3
13772.2,18118.9
13909.8,18026.9
14026.9,17909.8
14118.9,17772.2
14182.3,17619.2
14214.6,17456.8
14214.6,17291.2
16533.5,17291.2
16533.5,17456.8
16565.8,17619.2
16629.1,17772.2
16721.1,17909.8
16838.2,18026.9
16975.9,18118.9
17128.8,18182.3
17291.2,18214.6
17456.8,18214.6
17619.2,18182.3
17772.2,18118.9
17909.8,18026.9
18026.9,17909.8
18118.9,17772.2
18182.3,17619.2
18214.6,17456.8
18214.6,17291.2
20533.5,17291.2
20533.5,17456.8
20565.8,17619.2
20629.1,17772.2
20721.1,17909.8
20838.2,18026.9
20975.9,18118.9
21128.8,18182.3
21291.2,18214.6
21456.8,18214.6
21619.2,18182.3
21772.2,18118.9
21909.8,18026.9
22026.9,17909.8
22118.9,17772.2
22182.3,17619.2
22214.6,17456.8
22214.6,17291.2
24533.5,17291.2
24533.5,17456.8
24565.8,17619.2
24629.1,17772.2
24721.1,17909.8
24838.2,18026.9
24975.9,18118.9
25128.8,18182.3
25291.2,18214.6
25456.8,18214.6
25619.2,18182.3
25772.2,18118.9
25909.8,18026.9
26026.9,17909.8
26118.9,17772.2
26182.3,17619.2
26214.6,17456.8
26214.6,17291.2
28533.5,17291.2
28533.5,17456.8
28565.8,17619.2
28629.1,17772.2
28721.1,17909.8
28838.2,18026.9
28975.9,18118.9
29128.8,18182.3
29291.2,18214.6
29456.8,18214.6
29619.2,18182.3
29772.2,18118.9
29909.8,18026.9
30026.9,17909.8
30118.9,17772.2
30182.3,17619.2
30214.6,17456.8
30214.6,17291.2
32533.5,17291.2
32533.5,17456.8
32565.8,17619.2
32629.1,17772.2
32721.1,17909.8
32838.2,18026.9
32975.9,18118.9
33128.8,18182.3
33291.2,18214.6
33456.8,18214.6
33619.2,18182.3
33772.2,18118.9
33909.8,18026.9
34026.9,17909.8
34118.9,17772.2
34182.3,17619.2
34214.6,17456.8
34214.6,17291.2
36533.5,17291.2
36533.5,17456.8
36565.8,17619.2
36629.1,17772.2
36721.1,17909.8
36838.2,18026.9
36975.9,18118.9
37128.8,18182.3
37291.2,18214.6
37456.8,18214.6
37619.2,18182.3
37772.2,18118.9
37909.8,18026.9
38026.9,17909.8
38118.9,17772.2
38182.3,17619.2
38214.6,17456.8
38214.6,17291.2
40533.5,17291.2
40533.5,17456.8
40565.8,17619.2
40629.1,17772.2
40721.1,17909.8
40838.2,18026.9
40975.9,18118.9
41128.8,18182.3
41291.2,18214.6
41456.8,18214.6
41619.2,18182.3
41772.2,18118.9
41909.8,18026.9
42026.9,17909.8
42118.9,17772.2
42182.3,17619.2
42214.6,17456.8
42214.6,17291.2
42182.3,17128.8
42118.9,16975.9
42026.9,16838.2
41909.8,16721.1
41772.2,16629.1
41619.2,16565.8
41456.8,16533.5
41291.2,16533.5
41128.8,16565.8
40975.9,16629.1
40838.2,16721.1
40721.1,16838.2
40629.1,16975.9
40565.8,17128.8
40533.5,17291.2
38214.6,17291.2
38182.3,17128.8
38118.9,16975.9
38026.9,16838.2
37909.8,16721.1
37772.2,16629.1
37619.2,16565.8
37456.8,16533.5
37291.2,16533.5
37128.8,16565.8
36975.9,16629.1
36838.2,16721.1
36721.1,16838.2
36629.1,16975.9
36565.8,17128.8
36533.5,17291.2
34214.6,17291.2
34182.3,17128.8
34118.9,16975.9
34026.9,16838.2
33909.8,16721.1
33772.2,16629.1
33619.2,16565.8
33456.8,16533.5
33291.2,16533.5
33128.8,16565.8
32975.9,16629.1
32838.2,16721.1
32721.1,16838.2
32629.1,16975.9
32565.8,17128.8
32533.5,17291.2
30214.6,17291.2
30182.3,17128.8
30118.9,16975.9
30026.9,16838.2
29909.8,16721.1
29772.2,16629.1
29619.2,16565.8
29456.8,16533.5
29291.2,16533.5
29128.8,16565.8
28975.9,16629.1
28838.2,16721.1
28721.1,16838.2
28629.1,16975.9
28565.8,17128.8
28533.5,17291.2
26214.6,17291.2
26182.3,17128.8
26118.9,16975.9
26026.9,16838.2
25909.8,16721.1
25772.2,16629.1
25619.2,16565.8
25456.8,16533.5
25291.2,16533.5
25128.8,16565.8
24975.9,16629.1
24838.2,16721.1
24721.1,16838.2
24629.1,16975.9
24565.8,17128.8
24533.5,17291.2
22214.6,17291.2
22182.3,17128.8
22118.9,16975.9
22026.9,16838.2
21909.8,16721.1
21772.2,16629.1
21619.2,16565.8
21456.8,16533.5
21291.2,16533.5
21128.8,16565.8
20975.9,16629.1
20838.2,16721.1
20721.1,16838.2
20629.1,16975.9
20565.8,17128.8
20533.5,17291.2
18214.6,17291.2
18182.3,17128.8
18118.9,16975.9
18026.9,16838.2
17909.8,16721.1
17772.2,16629.1
17619.2,16565.8
17456.8,16533.5
17291.2,16533.5
17128.8,16565.8
16975.9,16629.1
16838.2,16721.1
16721.1,16838.2
16629.1,16975.9
16565.8,17128.8
16533.5,17291.2
14214.6,17291.2
14182.3,17128.8
14118.9,16975.9
14026.9,16838.2
13909.8,16721.1
13772.2,16629.1
13619.2,16565.8
13456.8,16533.5
13291.2,16533.5
13128.8,16565.8
12975.9,16629.1
12838.2,16721.1
12721.1,16838.2
12629.1,16975.9
12565.8,17128.8
12533.5,17291.2
10214.6,17291.2
10182.3,17128.8
10118.9,16975.9
10026.9,16838.2
9909.84,16721.1
9772.17,16629.1
9619.2,16565.8
9456.8,16533.5
9291.23,16533.5
9128.84,16565.8
8975.87,16629.1
8838.2,16721.1
8721.12,16838.2
8629.13,16975.9
8565.77,17128.8
8533.46,17291.2
8133.86,17291.2
8133.86,13291.2
12533.5,13291.2
12533.5,13456.8
12565.8,13619.2
12629.1,13772.2
12721.1,13909.8
12838.2,14026.9
12975.9,14118.9
13128.8,14182.3
13291.2,14214.6
13456.8,14214.6
13619.2,14182.3
13772.2,14118.9
13909.8,14026.9
14026.9,13909.8
14118.9,13772.2
14182.3,13619.2
14214.6,13456.8
14214.6,13291.2
16533.5,13291.2
16533.5,13456.8
16565.8,13619.2
16629.1,13772.2
16721.1,13909.8
16838.2,14026.9
16975.9,14118.9
17128.8,14182.3
17291.2,14214.6
17456.8,14214.6
17619.2,14182.3
17772.2,14118.9
17909.8,14026.9
18026.9,13909.8
18118.9,13772.2
18182.3,13619.2
18214.6,13456.8
18214.6,13291.2
20533.5,13291.2
20533.5,13456.8
20565.8,13619.2
20629.1,13772.2
20721.1,13909.8
20838.2,14026.9
20975.9,14118.9
21128.8,14182.3
21291.2,14214.6
21456.8,14214.6
21619.2,14182.3
21772.2,14118.9
21909.8,14026.9
22026.9,13909.8
22118.9,13772.2
22182.3,13619.2
22214.6,13456.8
22214.6,13291.2
24533.5,13291.2
24533.5,13456.8
24565.8,13619.2
24629.1,13772.2
24721.1,13909.8
24838.2,14026.9
24975.9,14118.9
25128.8,14182.3
25291.2,14214.6
25456.8,14214.6
25619.2,14182.3
25772.2,14118.9
25909.8,14026.9
26026.9,13909.8
26118.9,13772.2
26182.3,13619.2
26214.6,13456.8
26214.6,13291.2
28533.5,13291.2
28533.5,13456.8
28565.8,13619.2
28629.1,13772.2
28721.1,13909.8
28838.2,14026.9
28975.9,14118.9
29128.8,14182.3
29291.2,14214.6
29456.8,14214.6
29619.2,14182.3
29772.2,14118.9
29909.8,14026.9
30026.9,13909.8
30118.9,13772.2
30182.3,13619.2
30214.6,13456.8
30214.6,13291.2
32533.5,13291.2
32533.5,13456.8
32565.8,13619.2
32629.1,13772.2
32721.1,13909.8
32838.2,14026.9
32975.9,14118.9
33128.8,14182.3
33291.2,14214.6
33456.8,14214.6
33619.2,14182.3
33772.2,14118.9
33909.8,14026.9
34026.9,13909.8
34118.9,13772.2
34182.3,13619.2
34214.6,13456.8
34214.6,13291.2
34182.3,13128.8
34118.9,12975.9
34026.9,12838.2
33909.8,12721.1
33772.2,12629.1
33619.2,12565.8
33456.8,12533.5
33291.2,12533.5
33128.8,12565.8
32975.9,12629.1
32838.2,12721.1
32721.1,12838.2
32629.1,12975.9
32565.8,13128.8
32533.5,13291.2
30214.6,13291.2
30182.3,13128.8
30118.9,12975.9
30026.9,12838.2
29909.8,12721.1
29772.2,12629.1
29619.2,12565.8
29456.8,12533.5
29291.2,12533.5
29128.8,12565.8
28975.9,12629.1
28838.2,12721.1
28721.1,12838.2
28629.1,12975.9
28565.8,13128.8
28533.5,13291.2
26214.6,13291.2
26182.3,13128.8
26118.9,12975.9
26026.9,12838.2
25909.8,12721.1
25772.2,12629.1
25619.2,12565.8
25456.8,12533.5
25291.2,12533.5
25128.8,12565.8
24975.9,12629.1
24838.2,12721.1
24721.1,12838.2
24629.1,12975.9
24565.8,13128.8
24533.5,13291.2
22214.6,13291.2
22182.3,13128.8
22118.9,12975.9
22026.9,12838.2
21909.8,12721.1
21772.2,12629.1
21619.2,12565.8
21456.8,12533.5
21291.2,12533.5
21128.8,12565.8
20975.9,12629.1
20838.2,12721.1
20721.1,12838.2
20629.1,12975.9
20565.8,13128.8
20533.5,13291.2
18214.6,13291.2
18182.3,13128.8
18118.9,12975.9
18026.9,12838.2
17909.8,12721.1
17772.2,12629.1
17619.2,12565.8
17456.8,12533.5
17291.2,12533.5
17128.8,12565.8
16975.9,12629.1
16838.2,12721.1
16721.1,12838.2
16629.1,12975.9
16565.8,13128.8
16533.5,13291.2
14214.6,13291.2
14182.3,13128.8
14118.9,12975.9
14026.9,12838.2
13909.8,12721.1
13772.2,12629.1
13619.2,12565.8
13456.8,12533.5
13291.2,12533.5
13128.8,12565.8
12975.9,12629.1
12838.2,12721.1
12721.1,12838.2
12629.1,12975.9
12565.8,13128.8
12533.5,13291.2
8133.86,13291.2
8133.86,11823
9572.83,11823
9572.83,12027.4
9612.7,12227.8
9690.9,12416.6
9804.43,12586.5
9948.93,12731
10118.8,12844.5
10307.6,12922.7
10508.1,12962.6
10712.4,12962.6
10912.8,12922.7
11101.6,12844.5
11271.5,12731
11416,12586.5
11529.6,12416.6
11607.8,12227.8
11647.6,12027.4
11647.6,11891.1
14927.6,11891.1
14977.2,12005.2
15108,12070.5
15249,12109
15394.8,12119.3
15539.8,12100.9
15678.4,12054.6
15770.8,12005.2
15820.4,11891.1
30927.6,11891.1
30977.2,12005.2
31108,12070.5
31249,12109
31394.8,12119.3
31539.8,12100.9
31678.4,12054.6
31770.8,12005.2
31820.4,11891.1
31752.3,11823
35950.8,11823
35950.8,12027.4
35990.7,12227.8
36068.9,12416.6
36182.4,12586.5
36326.9,12731
36496.8,12844.5
36685.6,12922.7
36886,12962.6
37090.4,12962.6
37290.8,12922.7
37479.6,12844.5
37649.5,12731
37794,12586.5
37907.5,12416.6
37985.7,12227.8
37987.9,12216.7
39887.8,12216.7
39887.8,12421.1
39927.7,12621.5
40005.9,12810.3
40119.4,12980.2
40263.9,13124.7
40433.8,13238.2
40622.6,13316.4
40823,13356.3
41027.4,13356.3
41227.8,13316.4
41416.6,13238.2
41586.5,13124.7
41731,12980.2
41844.5,12810.3
41922.7,12621.5
41962.6,12421.1
41962.6,12216.7
41922.7,12016.3
41844.5,11827.5
41731,11657.6
41586.5,11513.1
41416.6,11399.6
41227.8,11321.4
41027.4,11281.5
40823,11281.5
40622.6,11321.4
40433.8,11399.6
40263.9,11513.1
40119.4,11657.6
40005.9,11827.5
39927.7,12016.3
39887.8,12216.7
37987.9,12216.7
38025.6,12027.4
38025.6,11823
37985.7,11622.6
37907.5,11433.8
37794,11263.9
37649.5,11119.4
37479.6,11005.9
37290.8,10927.7
37090.4,10887.8
36886,10887.8
36685.6,10927.7
36496.8,11005.9
36326.9,11119.4
36182.4,11263.9
36068.9,11433.8
35990.7,11622.6
35950.8,11823
31752.3,11823
31374,11444.7
30927.6,11891.1
15820.4,11891.1
15374,11444.7
14927.6,11891.1
11647.6,11891.1
11647.6,11823
11607.8,11622.6
11529.6,11433.8
11503.5,11394.8
14628.7,11394.8
14647.1,11539.8
14693.4,11678.4
14742.8,11770.8
14856.9,11820.4
15303.3,11374
15444.7,11374
15891.1,11820.4
16005.2,11770.8
16070.5,11640.1
16109,11499.1
16116.4,11394.8
30628.7,11394.8
30647.1,11539.8
30693.4,11678.4
30742.8,11770.8
30856.9,11820.4
31303.3,11374
31444.7,11374
31891.1,11820.4
32005.2,11770.8
32070.5,11640.1
32109,11499.1
32119.3,11353.3
32100.9,11208.3
32054.6,11069.6
32005.2,10977.2
31891.1,10927.6
31444.7,11374
31303.3,11374
30856.9,10927.6
30742.8,10977.2
30677.5,11108
30639,11249
30628.7,11394.8
16116.4,11394.8
16119.3,11353.3
16100.9,11208.3
16054.6,11069.6
16005.2,10977.2
15891.1,10927.6
15444.7,11374
15303.3,11374
14856.9,10927.6
14742.8,10977.2
14677.5,11108
14639,11249
14628.7,11394.8
11503.5,11394.8
11416,11263.9
11271.5,11119.4
11101.6,11005.9
10912.8,10927.7
10712.4,10887.8
10508.1,10887.8
10307.6,10927.7
10118.8,11005.9
9948.93,11119.4
9804.43,11263.9
9690.9,11433.8
9612.7,11622.6
9572.83,11823
8133.86,11823
8133.86,10856.9
14927.6,10856.9
15374,11303.3
15820.4,10856.9
30927.6,10856.9
31374,11303.3
31820.4,10856.9
31770.8,10742.8
31640.1,10677.5
31499.1,10639
31353.3,10628.7
31208.3,10647.1
31069.6,10693.4
30977.2,10742.8
30927.6,10856.9
15820.4,10856.9
15770.8,10742.8
15640.1,10677.5
15499.1,10639
15353.3,10628.7
15208.3,10647.1
15069.6,10693.4
14977.2,10742.8
14927.6,10856.9
8133.86,10856.9
8133.86,9291.23
8533.46,9291.23
8533.46,9456.8
8565.77,9619.2
8629.13,9772.17
8721.12,9909.84
8838.2,10026.9
8975.87,10118.9
9128.84,10182.3
9291.23,10214.6
9456.8,10214.6
9619.2,10182.3
9772.17,10118.9
9909.84,10026.9
10026.9,9909.84
10118.9,9772.17
10182.3,9619.2
10214.6,9456.8
10214.6,9291.23
12533.5,9291.23
12533.5,9456.8
12565.8,9619.2
12629.1,9772.17
12721.1,9909.84
12838.2,10026.9
12975.9,10118.9
13128.8,10182.3
13291.2,10214.6
13456.8,10214.6
13619.2,10182.3
13772.2,10118.9
13909.8,10026.9
14026.9,9909.84
14118.9,9772.17
14182.3,9619.2
14214.6,9456.8
14214.6,9291.23
16533.5,9291.23
16533.5,9456.8
16565.8,9619.2
16629.1,9772.17
16721.1,9909.84
16838.2,10026.9
16975.9,10118.9
17128.8,10182.3
17291.2,10214.6
17456.8,10214.6
17619.2,10182.3
17772.2,10118.9
17909.8,10026.9
18026.9,9909.84
18118.9,9772.17
18182.3,9619.2
18214.6,9456.8
18214.6,9291.23
20533.5,9291.23
20533.5,9456.8
20565.8,9619.2
20629.1,9772.17
20721.1,9909.84
20838.2,10026.9
20975.9,10118.9
21128.8,10182.3
21291.2,10214.6
21456.8,10214.6
21619.2,10182.3
21772.2,10118.9
21909.8,10026.9
22026.9,9909.84
22118.9,9772.17
22182.3,9619.2
22214.6,9456.8
22214.6,9291.23
24533.5,9291.23
24533.5,9456.8
24565.8,9619.2
24629.1,9772.17
24721.1,9909.84
24838.2,10026.9
24975.9,10118.9
25128.8,10182.3
25291.2,10214.6
25456.8,10214.6
25619.2,10182.3
25772.2,10118.9
25909.8,10026.9
26026.9,9909.84
26118.9,9772.17
26182.3,9619.2
26214.6,9456.8
26214.6,9291.23
28533.5,9291.23
28533.5,9456.8
28565.8,9619.2
28629.1,9772.17
28721.1,9909.84
28838.2,10026.9
28975.9,10118.9
29128.8,10182.3
29291.2,10214.6
29456.8,10214.6
29619.2,10182.3
29772.2,10118.9
29909.8,10026.9
30026.9,9909.84
30118.9,9772.17
30182.3,9619.2
30214.6,9456.8
30214.6,9291.23
32533.5,9291.23
32533.5,9456.8
32565.8,9619.2
32629.1,9772.17
32721.1,9909.84
32838.2,10026.9
32975.9,10118.9
33128.8,10182.3
33291.2,10214.6
33456.8,10214.6
33619.2,10182.3
33772.2,10118.9
33909.8,10026.9
34026.9,9909.84
34118.9,9772.17
34182.3,9619.2
34214.6,9456.8
34214.6,9291.23
36533.5,9291.23
36533.5,9456.8
36565.8,9619.2
36629.1,9772.17
36721.1,9909.84
36838.2,10026.9
36975.9,10118.9
37128.8,10182.3
37291.2,10214.6
37456.8,10214.6
37619.2,10182.3
37772.2,10118.9
37909.8,10026.9
38026.9,9909.84
38118.9,9772.17
38182.3,9619.2
38214.6,9456.8
38214.6,9291.23
40533.5,9291.23
40533.5,9456.8
40565.8,9619.2
40629.1,9772.17
40721.1,9909.84
40838.2,10026.9
40975.9,10118.9
41128.8,10182.3
41291.2,10214.6
41456.8,10214.6
41619.2,10182.3
41772.2,10118.9
41909.8,10026.9
42026.9,9909.84
42118.9,9772.17
42182.3,9619.2
42214.6,9456.8
42214.6,9291.23
42182.3,9128.84
42118.9,8975.87
42026.9,8838.2
41909.8,8721.12
41772.2,8629.13
41619.2,8565.77
41456.8,8533.46
41291.2,8533.46
41128.8,8565.77
40975.9,8629.13
40838.2,8721.12
40721.1,8838.2
40629.1,8975.87
40565.8,9128.84
40533.5,9291.23
38214.6,9291.23
38182.3,9128.84
38118.9,8975.87
38026.9,8838.2
37909.8,8721.12
37772.2,8629.13
37619.2,8565.77
37456.8,8533.46
37291.2,8533.46
37128.8,8565.77
36975.9,8629.13
36838.2,8721.12
36721.1,8838.2
36629.1,8975.87
36565.8,9128.84
36533.5,9291.23
34214.6,9291.23
34182.3,9128.84
34118.9,8975.87
34026.9,8838.2
33909.8,8721.12
33772.2,8629.13
33619.2,8565.77
33456.8,8533.46
33291.2,8533.46
33128.8,8565.77
32975.9,8629.13
32838.2,8721.12
32721.1,8838.2
32629.1,8975.87
32565.8,9128.84
32533.5,9291.23
30214.6,9291.23
30182.3,9128.84
30118.9,8975.87
30026.9,8838.2
29909.8,8721.12
29772.2,8629.13
29619.2,8565.77
29456.8,8533.46
29291.2,8533.46
29128.8,8565.77
28975.9,8629.13
28838.2,8721.12
28721.1,8838.2
28629.1,8975.87
28565.8,9128.84
28533.5,9291.23
26214.6,9291.23
26182.3,9128.84
26118.9,8975.87
26026.9,8838.2
25909.8,8721.12
25772.2,8629.13
25619.2,8565.77
25456.8,8533.46
25291.2,8533.46
25128.8,8565.77
24975.9,8629.13
24838.2,8721.12
24721.1,8838.2
24629.1,8975.87
24565.8,9128.84
24533.5,9291.23
22214.6,9291.23
22182.3,9128.84
22118.9,8975.87
22026.9,8838.2
21909.8,8721.12
21772.2,8629.13
21619.2,8565.77
21456.8,8533.46
21291.2,8533.46
21128.8,8565.77
20975.9,8629.13
20838.2,8721.12
20721.1,8838.2
20629.1,8975.87
20565.8,9128.84
20533.5,9291.23
18214.6,9291.23
18182.3,9128.84
18118.9,8975.87
18026.9,8838.2
17909.8,8721.12
17772.2,8629.13
17619.2,8565.77
17456.8,8533.46
17291.2,8533.46
17128.8,8565.77
16975.9,8629.13
16838.2,8721.12
16721.1,8838.2
16629.1,8975.87
16565.8,9128.84
16533.5,9291.23
14214.6,9291.23
14182.3,9128.84
14118.9,8975.87
14026.9,8838.2
13909.8,8721.12
13772.2,8629.13
13619.2,8565.77
13456.8,8533.46
13291.2,8533.46
13128.8,8565.77
12975.9,8629.13
12838.2,8721.12
12721.1,8838.2
12629.1,8975.87
12565.8,9128.84
12533.5,9291.23
10214.6,9291.23
10182.3,9128.84
10118.9,8975.87
10026.9,8838.2
9909.84,8721.12
9772.17,8629.13
9619.2,8565.77
9456.8,8533.46
9291.23,8533.46
9128.84,8565.77
8975.87,8629.13
8838.2,8721.12
8721.12,8838.2
8629.13,8975.87
8565.77,9128.84
8533.46,9291.23
8133.86,9291.23
8133.86,8133.86
42610,8133.86
Z" /> 
</g>
</g>
<g style="fill:#FFFFFF; fill-opacity:1.0; 
stroke:#FFFFFF; stroke-width:100; stroke-opacity:1; 
stroke-linecap:round; stroke-linejoin:round;">
</g>
<g style="fill:#FFFFFF; fill-opacity:1.0; 
stroke:#FFFFFF; stroke-width:0; stroke-opacity:1; 
stroke-linecap:round; stroke-linejoin:round;">
<circle cx="36988.2" cy="11925.2" r="787.401" /> 
</g>
<g style="fill:#FFFFFF; fill-opacity:1.0; 
stroke:#FFFFFF; stroke-width:39.3701; stroke-opacity:1; 
stroke-linecap:round; stroke-linejoin:round;">
</g>
<g style="fill:#FFFFFF; fill-opacity:1.0; 
stroke:#FFFFFF; stroke-width:0; stroke-opacity:1; 
stroke-linecap:round; stroke-linejoin:round;">
<circle cx="40925.2" cy="12318.9" r="787.401" /> 
</g>
<g style="fill:#FFFFFF; fill-opacity:1.0; 
stroke:#FFFFFF; stroke-width:39.3701; stroke-opacity:1; 
stroke-linecap:round; stroke-linejoin:round;">
</g>
<g style="fill:#FFFFFF; fill-opacity:1.0; 
stroke:#FFFFFF; stroke-width:0; stroke-opacity:1; 
stroke-linecap:round; stroke-linejoin:round;">
<circle cx="10216.5" cy="29641.7" r="787.401" /> 
</g>
<g style="fill:#FFFFFF; fill-opacity:1.0; 
stroke:#FFFFFF; stroke-width:39.3701; stroke-opacity:1; 
stroke-linecap:round; stroke-linejoin:round;">
</g>
<g style="fill:#FFFFFF; fill-opacity:1.0; 
stroke:#FFFFFF; stroke-width:0; stroke-opacity:1; 
stroke-linecap:round; stroke-linejoin:round;">
<circle cx="36988.2" cy="29641.7" r="787.401" /> 
</g>
<g style="fill:#FFFFFF; fill-opacity:1.0; 
stroke:#FFFFFF; stroke-width:39.3701; stroke-opacity:1; 
stroke-linecap:round; stroke-linejoin:round;">
</g>
<g style="fill:#FFFFFF; fill-opacity:1.0; 
stroke:#FFFFFF; stroke-width:0; stroke-opacity:1; 
stroke-linecap:round; stroke-linejoin:round;">
<circle cx="10610.2" cy="11925.2" r="787.401" /> 
</g>
<g style="fill:#FFFFFF; fill-opacity:1.0; 
stroke:#FFFFFF; stroke-width:39.3701; stroke-opacity:1; 
stroke-linecap:round; stroke-linejoin:round;">
</g>
<g style="fill:#FFFFFF; fill-opacity:1.0; 
stroke:#FFFFFF; stroke-width:0; stroke-opacity:1; 
stroke-linecap:round; stroke-linejoin:round;">
<circle cx="31374" cy="31374" r="197" /> 
</g>
<g style="fill:#FFFFFF; fill-opacity:1.0; 
stroke:#FFFFFF; stroke-width:39.3701; stroke-opacity:1; 
stroke-linecap:round; stroke-linejoin:round;">
</g>
<g style="fill:#FFFFFF; fill-opacity:1.0; 
stroke:#FFFFFF; stroke-width:0; stroke-opacity:1; 
stroke-linecap:round; stroke-linejoin:round;">
<circle cx="31374" cy="11374" r="197" /> 
</g>
<g style="fill:#FFFFFF; fill-opacity:1.0; 
stroke:#FFFFFF; stroke-width:39.3701; stroke-opacity:1; 
stroke-linecap:round; stroke-linejoin:round;">
</g>
<g style="fill:#FFFFFF; fill-opacity:1.0; 
stroke:#FFFFFF; stroke-width:0; stroke-opacity:1; 
stroke-linecap:round; stroke-linejoin:round;">
<circle cx="15374" cy="31374" r="197" /> 
</g>
<g style="fill:#FFFFFF; fill-opacity:1.0; 
stroke:#FFFFFF; stroke-width:39.3701; stroke-opacity:1; 
stroke-linecap:round; stroke-linejoin:round;">
</g>
<g style="fill:#FFFFFF; fill-opacity:1.0; 
stroke:#FFFFFF; stroke-width:0; stroke-opacity:1; 
stroke-linecap:round; stroke-linejoin:round;">
<circle cx="15374" cy="11374" r="197" /> 
</g>
<g style="fill:#FFFFFF; fill-opacity:1.0; 
stroke:#FFFFFF; stroke-width:39.3701; stroke-opacity:1; 
stroke-linecap:round; stroke-linejoin:round;">
</g>
<g style="fill:#FFFFFF; fill-opacity:1.0; 
stroke:#FFFFFF; stroke-width:0; stroke-opacity:1; 
stroke-linecap:round; stroke-linejoin:round;">
<circle cx="21374" cy="9374.02" r="590.551" /> 
</g>
<g style="fill:#FFFFFF; fill-opacity:1.0; 
stroke:#FFFFFF; stroke-width:39.3701; stroke-opacity:1; 
stroke-linecap:round; stroke-linejoin:round;">
</g>
<g style="fill:#FFFFFF; fill-opacity:1.0; 
stroke:#FFFFFF; stroke-width:0; stroke-opacity:1; 
stroke-linecap:round; stroke-linejoin:round;">
<circle cx="41374" cy="33374" r="590.551" /> 
</g>
<g style="fill:#FFFFFF; fill-opacity:1.0; 
stroke:#FFFFFF; stroke-width:39.3701; stroke-opacity:1; 
stroke-linecap:round; stroke-linejoin:round;">
</g>
<g style="fill:#FFFFFF; fill-opacity:1.0; 
stroke:#FFFFFF; stroke-width:0; stroke-opacity:1; 
stroke-linecap:round; stroke-linejoin:round;">
<circle cx="37374" cy="33374" r="590.551" /> 
</g>
<g style="fill:#FFFFFF; fill-opacity:1.0; 
stroke:#FFFFFF; stroke-width:39.3701; stroke-opacity:1; 
stroke-linecap:round; stroke-linejoin:round;">
</g>
<g style="fill:#FFFFFF; fill-opacity:1.0; 
stroke:#FFFFFF; stroke-width:0; stroke-opacity:1; 
stroke-linecap:round; stroke-linejoin:round;">
<circle cx="33374" cy="33374" r="590.551" /> 
</g>
<g style="fill:#FFFFFF; fill-opacity:1.0; 
stroke:#FFFFFF; stroke-width:39.3701; stroke-opacity:1; 
stroke-linecap:round; stroke-linejoin:round;">
</g>
<g style="fill:#FFFFFF; fill-opacity:1.0; 
stroke:#FFFFFF; stroke-width:0; stroke-opacity:1; 
stroke-linecap:round; stroke-linejoin:round;">
<circle cx="29374" cy="33374" r="590.551" /> 
</g>
<g style="fill:#FFFFFF; fill-opacity:1.0; 
stroke:#FFFFFF; stroke-width:39.3701; stroke-opacity:1; 
stroke-linecap:round; stroke-linejoin:round;">
</g>
<g style="fill:#FFFFFF; fill-opacity:1.0; 
stroke:#FFFFFF; stroke-width:0; stroke-opacity:1; 
stroke-linecap:round; stroke-linejoin:round;">
<circle cx="25374" cy="33374" r="590.551" /> 
</g>
<g style="fill:#FFFFFF; fill-opacity:1.0; 
stroke:#FFFFFF; stroke-width:39.3701; stroke-opacity:1; 
stroke-linecap:round; stroke-linejoin:round;">
</g>
<g style="fill:#FFFFFF; fill-opacity:1.0; 
stroke:#FFFFFF; stroke-width:0; stroke-opacity:1; 
stroke-linecap:round; stroke-linejoin:round;">
<circle cx="21374" cy="33374" r="590.551" /> 
</g>
<g style="fill:#FFFFFF; fill-opacity:1.0; 
stroke:#FFFFFF; stroke-width:39.3701; stroke-opacity:1; 
stroke-linecap:round; stroke-linejoin:round;">
</g>
<g style="fill:#FFFFFF; fill-opacity:1.0; 
stroke:#FFFFFF; stroke-width:0; stroke-opacity:1; 
stroke-linecap:round; stroke-linejoin:round;">
<circle cx="17374" cy="33374" r="590.551" /> 
</g>
<g style="fill:#FFFFFF; fill-opacity:1.0; 
stroke:#FFFFFF; stroke-width:39.3701; stroke-opacity:1; 
stroke-linecap:round; stroke-linejoin:round;">
</g>
<g style="fill:#FFFFFF; fill-opacity:1.0; 
stroke:#FFFFFF; stroke-width:0; stroke-opacity:1; 
stroke-linecap:round; stroke-linejoin:round;">
<circle cx="13374" cy="33374" r="590.551" /> 
</g>
<g style="fill:#FFFFFF; fill-opacity:1.0; 
stroke:#FFFFFF; stroke-width:39.3701; stroke-opacity:1; 
stroke-linecap:round; stroke-linejoin:round;">
</g>
<g style="fill:#FFFFFF; fill-opacity:1.0; 
stroke:#FFFFFF; stroke-width:0; stroke-opacity:1; 
stroke-linecap:round; stroke-linejoin:round;">
<circle cx="9374.02" cy="33374" r="590.551" /> 
</g>
<g style="fill:#FFFFFF; fill-opacity:1.0; 
stroke:#FFFFFF; stroke-width:39.3701; stroke-opacity:1; 
stroke-linecap:round; stroke-linejoin:round;">
</g>
<g style="fill:#FFFFFF; fill-opacity:1.0; 
stroke:#FFFFFF; stroke-width:0; stroke-opacity:1; 
stroke-linecap:round; stroke-linejoin:round;">
<circle cx="41374" cy="29374" r="590.551" /> 
</g>
<g style="fill:#FFFFFF; fill-opacity:1.0; 
stroke:#FFFFFF; stroke-width:39.3701; stroke-opacity:1; 
stroke-linecap:round; stroke-linejoin:round;">
</g>
<g style="fill:#FFFFFF; fill-opacity:1.0; 
stroke:#FFFFFF; stroke-width:0; stroke-opacity:1; 
stroke-linecap:round; stroke-linejoin:round;">
<circle cx="33374" cy="29374" r="590.551" /> 
</g>
<g style="fill:#FFFFFF; fill-opacity:1.0; 
stroke:#FFFFFF; stroke-width:39.3701; stroke-opacity:1; 
stroke-linecap:round; stroke-linejoin:round;">
</g>
<g style="fill:#FFFFFF; fill-opacity:1.0; 
stroke:#FFFFFF; stroke-width:0; stroke-opacity:1; 
stroke-linecap:round; stroke-linejoin:round;">
<circle cx="29374" cy="29374" r="590.551" /> 
</g>
<g style="fill:#FFFFFF; fill-opacity:1.0; 
stroke:#FFFFFF; stroke-width:39.3701; stroke-opacity:1; 
stroke-linecap:round; stroke-linejoin:round;">
</g>
<g style="fill:#FFFFFF; fill-opacity:1.0; 
stroke:#FFFFFF; stroke-width:0; stroke-opacity:1; 
stroke-linecap:round; stroke-linejoin:round;">
<circle cx="25374" cy="29374" r="590.551" /> 
</g>
<g style="fill:#FFFFFF; fill-opacity:1.0; 
stroke:#FFFFFF; stroke-width:39.3701; stroke-opacity:1; 
stroke-linecap:round; stroke-linejoin:round;">
</g>
<g style="fill:#FFFFFF; fill-opacity:1.0; 
stroke:#FFFFFF; stroke-width:0; stroke-opacity:1; 
stroke-linecap:round; stroke-linejoin:round;">
<circle cx="21374" cy="29374" r="590.551" /> 
</g>
<g style="fill:#FFFFFF; fill-opacity:1.0; 
stroke:#FFFFFF; stroke-width:39.3701; stroke-opacity:1; 
stroke-linecap:round; stroke-linejoin:round;">
</g>
<g style="fill:#FFFFFF; fill-opacity:1.0; 
stroke:#FFFFFF; stroke-width:0; stroke-opacity:1; 
stroke-linecap:round; stroke-linejoin:round;">
<circle cx="17374" cy="29374" r="590.551" /> 
</g>
<g style="fill:#FFFFFF; fill-opacity:1.0; 
stroke:#FFFFFF; stroke-width:39.3701; stroke-opacity:1; 
stroke-linecap:round; stroke-linejoin:round;">
</g>
<g style="fill:#FFFFFF; fill-opacity:1.0; 
stroke:#FFFFFF; stroke-width:0; stroke-opacity:1; 
stroke-linecap:round; stroke-linejoin:round;">
<circle cx="13374" cy="29374" r="590.551" /> 
</g>
<g style="fill:#FFFFFF; fill-opacity:1.0; 
stroke:#FFFFFF; stroke-width:39.3701; stroke-opacity:1; 
stroke-linecap:round; stroke-linejoin:round;">
</g>
<g style="fill:#FFFFFF; fill-opacity:1.0; 
stroke:#FFFFFF; stroke-width:0; stroke-opacity:1; 
stroke-linecap:round; stroke-linejoin:round;">
<circle cx="41374" cy="25374" r="590.551" /> 
</g>
<g style="fill:#FFFFFF; fill-opacity:1.0; 
stroke:#FFFFFF; stroke-width:39.3701; stroke-opacity:1; 
stroke-linecap:round; stroke-linejoin:round;">
</g>
<g style="fill:#FFFFFF; fill-opacity:1.0; 
stroke:#FFFFFF; stroke-width:0; stroke-opacity:1; 
stroke-linecap:round; stroke-linejoin:round;">
<circle cx="37374" cy="25374" r="590.551" /> 
</g>
<g style="fill:#FFFFFF; fill-opacity:1.0; 
stroke:#FFFFFF; stroke-width:39.3701; stroke-opacity:1; 
stroke-linecap:round; stroke-linejoin:round;">
</g>
<g style="fill:#FFFFFF; fill-opacity:1.0; 
stroke:#FFFFFF; stroke-width:0; stroke-opacity:1; 
stroke-linecap:round; stroke-linejoin:round;">
<circle cx="33374" cy="25374" r="590.551" /> 
</g>
<g style="fill:#FFFFFF; fill-opacity:1.0; 
stroke:#FFFFFF; stroke-width:39.3701; stroke-opacity:1; 
stroke-linecap:round; stroke-linejoin:round;">
</g>
<g style="fill:#FFFFFF; fill-opacity:1.0; 
stroke:#FFFFFF; stroke-width:0; stroke-opacity:1; 
stroke-linecap:round; stroke-linejoin:round;">
<circle cx="29374" cy="25374" r="590.551" /> 
</g>
<g style="fill:#FFFFFF; fill-opacity:1.0; 
stroke:#FFFFFF; stroke-width:39.3701; stroke-opacity:1; 
stroke-linecap:round; stroke-linejoin:round;">
</g>
<g style="fill:#FFFFFF; fill-opacity:1.0; 
stroke:#FFFFFF; stroke-width:0; stroke-opacity:1; 
stroke-linecap:round; stroke-linejoin:round;">
<circle cx="25374" cy="25374" r="590.551" /> 
</g>
<g style="fill:#FFFFFF; fill-opacity:1.0; 
stroke:#FFFFFF; stroke-width:39.3701; stroke-opacity:1; 
stroke-linecap:round; stroke-linejoin:round;">
</g>
<g style="fill:#FFFFFF; fill-opacity:1.0; 
stroke:#FFFFFF; stroke-width:0; stroke-opacity:1; 
stroke-linecap:round; stroke-linejoin:round;">
<circle cx="21374" cy="25374" r="590.551" /> 
</g>
<g style="fill:#FFFFFF; fill-opacity:1.0; 
stroke:#FFFFFF; stroke-width:39.3701; stroke-opacity:1; 
stroke-linecap:round; stroke-linejoin:round;">
</g>
<g style="fill:#FFFFFF; fill-opacity:1.0; 
stroke:#FFFFFF; stroke-width:0; stroke-opacity:1; 
stroke-linecap:round; stroke-linejoin:round;">
<circle cx="17374" cy="25374" r="590.551" /> 
</g>
<g style="fill:#FFFFFF; fill-opacity:1.0; 
stroke:#FFFFFF; stroke-width:39.3701; stroke-opacity:1; 
stroke-linecap:round; stroke-linejoin:round;">
</g>
<g style="fill:#FFFFFF; fill-opacity:1.0; 
stroke:#FFFFFF; stroke-width:0; stroke-opacity:1; 
stroke-linecap:round; stroke-linejoin:round;">
<circle cx="13374" cy="25374" r="590.551" /> 
</g>
<g style="fill:#FFFFFF; fill-opacity:1.0; 
stroke:#FFFFFF; stroke-width:39.3701; stroke-opacity:1; 
stroke-linecap:round; stroke-linejoin:round;">
</g>
<g style="fill:#FFFFFF; fill-opacity:1.0; 
stroke:#FFFFFF; stroke-width:0; stroke-opacity:1; 
stroke-linecap:round; stroke-linejoin:round;">
<circle cx="9374.02" cy="25374" r="590.551" /> 
</g>
<g style="fill:#FFFFFF; fill-opacity:1.0; 
stroke:#FFFFFF; stroke-width:39.3701; stroke-opacity:1; 
stroke-linecap:round; stroke-linejoin:round;">
</g>
<g style="fill:#FFFFFF; fill-opacity:1.0; 
stroke:#FFFFFF; stroke-width:0; stroke-opacity:1; 
stroke-linecap:round; stroke-linejoin:round;">
<circle cx="41374" cy="21374" r="590.551" /> 
</g>
<g style="fill:#FFFFFF; fill-opacity:1.0; 
stroke:#FFFFFF; stroke-width:39.3701; stroke-opacity:1; 
stroke-linecap:round; stroke-linejoin:round;">
</g>
<g style="fill:#FFFFFF; fill-opacity:1.0; 
stroke:#FFFFFF; stroke-width:0; stroke-opacity:1; 
stroke-linecap:round; stroke-linejoin:round;">
<circle cx="37374" cy="21374" r="590.551" /> 
</g>
<g style="fill:#FFFFFF; fill-opacity:1.0; 
stroke:#FFFFFF; stroke-width:39.3701; stroke-opacity:1; 
stroke-linecap:round; stroke-linejoin:round;">
</g>
<g style="fill:#FFFFFF; fill-opacity:1.0; 
stroke:#FFFFFF; stroke-width:0; stroke-opacity:1; 
stroke-linecap:round; stroke-linejoin:round;">
<circle cx="33374" cy="21374" r="590.551" /> 
</g>
<g style="fill:#FFFFFF; fill-opacity:1.0; 
stroke:#FFFFFF; stroke-width:39.3701; stroke-opacity:1; 
stroke-linecap:round; stroke-linejoin:round;">
</g>
<g style="fill:#FFFFFF; fill-opacity:1.0; 
stroke:#FFFFFF; stroke-width:0; stroke-opacity:1; 
stroke-linecap:round; stroke-linejoin:round;">
<circle cx="29374" cy="21374" r="590.551" /> 
</g>
<g style="fill:#FFFFFF; fill-opacity:1.0; 
stroke:#FFFFFF; stroke-width:39.3701; stroke-opacity:1; 
stroke-linecap:round; stroke-linejoin:round;">
</g>
<g style="fill:#FFFFFF; fill-opacity:1.0; 
stroke:#FFFFFF; stroke-width:0; stroke-opacity:1; 
stroke-linecap:round; stroke-linejoin:round;">
<circle cx="25374" cy="21374" r="590.551" /> 
</g>
<g style="fill:#FFFFFF; fill-opacity:1.0; 
stroke:#FFFFFF; stroke-width:39.3701; stroke-opacity:1; 
stroke-linecap:round; stroke-linejoin:round;">
</g>
<g style="fill:#FFFFFF; fill-opacity:1.0; 
stroke:#FFFFFF; stroke-width:0; stroke-opacity:1; 
stroke-linecap:round; stroke-linejoin:round;">
<circle cx="21374" cy="21374" r="590.551" /> 
</g>
<g style="fill:#FFFFFF; fill-opacity:1.0; 
stroke:#FFFFFF; stroke-width:39.3701; stroke-opacity:1; 
stroke-linecap:round; stroke-linejoin:round;">
</g>
<g style="fill:#FFFFFF; fill-opacity:1.0; 
stroke:#FFFFFF; stroke-width:0; stroke-opacity:1; 
stroke-linecap:round; stroke-linejoin:round;">
<circle cx="17374" cy="21374" r="590.551" /> 
</g>
<g style="fill:#FFFFFF; fill-opacity:1.0; 
stroke:#FFFFFF; stroke-width:39.3701; stroke-opacity:1; 
stroke-linecap:round; stroke-linejoin:round;">
</g>
<g style="fill:#FFFFFF; fill-opacity:1.0; 
stroke:#FFFFFF; stroke-width:0; stroke-opacity:1; 
stroke-linecap:round; stroke-linejoin:round;">
<circle cx="13374" cy="21374" r="590.551" /> 
</g>
<g style="fill:#FFFFFF; fill-opacity:1.0; 
stroke:#FFFFFF; stroke-width:39.3701; stroke-opacity:1; 
stroke-linecap:round; stroke-linejoin:round;">
</g>
<g style="fill:#FFFFFF; fill-opacity:1.0; 
stroke:#FFFFFF; stroke-width:0; stroke-opacity:1; 
stroke-linecap:round; stroke-linejoin:round;">
<circle cx="9374.02" cy="21374" r="590.551" /> 
</g>
<g style="fill:#FFFFFF; fill-opacity:1.0; 
stroke:#FFFFFF; stroke-width:39.3701; stroke-opacity:1; 
stroke-linecap:round; stroke-linejoin:round;">
</g>
<g style="fill:#FFFFFF; fill-opacity:1.0; 
stroke:#FFFFFF; stroke-width:0; stroke-opacity:1; 
stroke-linecap:round; stroke-linejoin:round;">
<circle cx="29374" cy="17374" r="590.551" /> 
</g>
<g style="fill:#FFFFFF; fill-opacity:1.0; 
stroke:#FFFFFF; stroke-width:39.3701; stroke-opacity:1; 
stroke-linecap:round; stroke-linejoin:round;">
</g>
<g style="fill:#FFFFFF; fill-opacity:1.0; 
stroke:#FFFFFF; stroke-width:0; stroke-opacity:1; 
stroke-linecap:round; stroke-linejoin:round;">
<circle cx="41374" cy="17374" r="590.551" /> 
</g>
<g style="fill:#FFFFFF; fill-opacity:1.0; 
stroke:#FFFFFF; stroke-width:39.3701; stroke-opacity:1; 
stroke-linecap:round; stroke-linejoin:round;">
</g>
<g style="fill:#FFFFFF; fill-opacity:1.0; 
stroke:#FFFFFF; stroke-width:0; stroke-opacity:1; 
stroke-linecap:round; stroke-linejoin:round;">
<circle cx="37374" cy="17374" r="590.551" /> 
</g>
<g style="fill:#FFFFFF; fill-opacity:1.0; 
stroke:#FFFFFF; stroke-width:39.3701; stroke-opacity:1; 
stroke-linecap:round; stroke-linejoin:round;">
</g>
<g style="fill:#FFFFFF; fill-opacity:1.0; 
stroke:#FFFFFF; stroke-width:0; stroke-opacity:1; 
stroke-linecap:round; stroke-linejoin:round;">
<circle cx="33374" cy="17374" r="590.551" /> 
</g>
<g style="fill:#FFFFFF; fill-opacity:1.0; 
stroke:#FFFFFF; stroke-width:39.3701; stroke-opacity:1; 
stroke-linecap:round; stroke-linejoin:round;">
</g>
<g style="fill:#FFFFFF; fill-opacity:1.0; 
stroke:#FFFFFF; stroke-width:0; stroke-opacity:1; 
stroke-linecap:round; stroke-linejoin:round;">
<circle cx="25374" cy="17374" r="590.551" /> 
</g>
<g style="fill:#FFFFFF; fill-opacity:1.0; 
stroke:#FFFFFF; stroke-width:39.3701; stroke-opacity:1; 
stroke-linecap:round; stroke-linejoin:round;">
</g>
<g style="fill:#FFFFFF; fill-opacity:1.0; 
stroke:#FFFFFF; stroke-width:0; stroke-opacity:1; 
stroke-linecap:round; stroke-linejoin:round;">
<circle cx="21374" cy="17374" r="590.551" /> 
</g>
<g style="fill:#FFFFFF; fill-opacity:1.0; 
stroke:#FFFFFF; stroke-width:39.3701; stroke-opacity:1; 
stroke-linecap:round; stroke-linejoin:round;">
</g>
<g style="fill:#FFFFFF; fill-opacity:1.0; 
stroke:#FFFFFF; stroke-width:0; stroke-opacity:1; 
stroke-linecap:round; stroke-linejoin:round;">
<circle cx="17374" cy="17374" r="590.551" /> 
</g>
<g style="fill:#FFFFFF; fill-opacity:1.0; 
stroke:#FFFFFF; stroke-width:39.3701; stroke-opacity:1; 
stroke-linecap:round; stroke-linejoin:round;">
</g>
<g style="fill:#FFFFFF; fill-opacity:1.0; 
stroke:#FFFFFF; stroke-width:0; stroke-opacity:1; 
stroke-linecap:round; stroke-linejoin:round;">
<circle cx="13374" cy="17374" r="590.551" /> 
</g>
<g style="fill:#FFFFFF; fill-opacity:1.0; 
stroke:#FFFFFF; stroke-width:39.3701; stroke-opacity:1; 
stroke-linecap:round; stroke-linejoin:round;">
</g>
<g style="fill:#FFFFFF; fill-opacity:1.0; 
stroke:#FFFFFF; stroke-width:0; stroke-opacity:1; 
stroke-linecap:round; stroke-linejoin:round;">
<circle cx="9374.02" cy="17374" r="590.551" /> 
</g>
<g style="fill:#FFFFFF; fill-opacity:1.0; 
stroke:#FFFFFF; stroke-width:39.3701; stroke-opacity:1; 
stroke-linecap:round; stroke-linejoin:round;">
</g>
<g style="fill:#FFFFFF; fill-opacity:1.0; 
stroke:#FFFFFF; stroke-width:0; stroke-opacity:1; 
stroke-linecap:round; stroke-linejoin:round;">
<circle cx="33374" cy="13374" r="590.551" /> 
</g>
<g style="fill:#FFFFFF; fill-opacity:1.0; 
stroke:#FFFFFF; stroke-width:39.3701; stroke-opacity:1; 
stroke-linecap:round; stroke-linejoin:round;">
</g>
<g style="fill:#FFFFFF; fill-opacity:1.0; 
stroke:#FFFFFF; stroke-width:0; stroke-opacity:1; 
stroke-linecap:round; stroke-linejoin:round;">
<circle cx="29374" cy="13374" r="590.551" /> 
</g>
<g style="fill:#FFFFFF; fill-opacity:1.0; 
stroke:#FFFFFF; stroke-width:39.3701; stroke-opacity:1; 
stroke-linecap:round; stroke-linejoin:round;">
</g>
<g style="fill:#FFFFFF; fill-opacity:1.0; 
stroke:#FFFFFF; stroke-width:0; stroke-opacity:1; 
stroke-linecap:round; stroke-linejoin:round;">
<circle cx="25374" cy="13374" r="590.551" /> 
</g>
<g style="fill:#FFFFFF; fill-opacity:1.0; 
stroke:#FFFFFF; stroke-width:39.3701; stroke-opacity:1; 
stroke-linecap:round; stroke-linejoin:round;">
</g>
<g style="fill:#FFFFFF; fill-opacity:1.0; 
stroke:#FFFFFF; stroke-width:0; stroke-opacity:1; 
stroke-linecap:round; stroke-linejoin:round;">
<circle cx="21374" cy="13374" r="590.551" /> 
</g>
<g style="fill:#FFFFFF; fill-opacity:1.0; 
stroke:#FFFFFF; stroke-width:39.3701; stroke-opacity:1; 
stroke-linecap:round; stroke-linejoin:round;">
</g>
<g style="fill:#FFFFFF; fill-opacity:1.0; 
stroke:#FFFFFF; stroke-width:0; stroke-opacity:1; 
stroke-linecap:round; stroke-linejoin:round;">
<circle cx="17374" cy="13374" r="590.551" /> 
</g>
<g style="fill:#FFFFFF; fill-opacity:1.0; 
stroke:#FFFFFF; stroke-width:39.3701; stroke-opacity:1; 
stroke-linecap:round; stroke-linejoin:round;">
</g>
<g style="fill:#FFFFFF; fill-opacity:1.0; 
stroke:#FFFFFF; stroke-width:0; stroke-opacity:1; 
stroke-linecap:round; stroke-linejoin:round;">
<circle cx="13374" cy="13374" r="590.551" /> 
</g>
<g style="fill:#FFFFFF; fill-opacity:1.0; 
stroke:#FFFFFF; stroke-width:39.3701; stroke-opacity:1; 
stroke-linecap:round; stroke-linejoin:round;">
</g>
<g style="fill:#FFFFFF; fill-opacity:1.0; 
stroke:#FFFFFF; stroke-width:0; stroke-opacity:1; 
stroke-linecap:round; stroke-linejoin:round;">
<circle cx="41374" cy="9374.02" r="590.551" /> 
</g>
<g style="fill:#FFFFFF; fill-opacity:1.0; 
stroke:#FFFFFF; stroke-width:39.3701; stroke-opacity:1; 
stroke-linecap:round; stroke-linejoin:round;">
</g>
<g style="fill:#FFFFFF; fill-opacity:1.0; 
stroke:#FFFFFF; stroke-width:0; stroke-opacity:1; 
stroke-linecap:round; stroke-linejoin:round;">
<circle cx="37374" cy="9374.02" r="590.551" /> 
</g>
<g style="fill:#FFFFFF; fill-opacity:1.0; 
stroke:#FFFFFF; stroke-width:39.3701; stroke-opacity:1; 
stroke-linecap:round; stroke-linejoin:round;">
</g>
<g style="fill:#FFFFFF; fill-opacity:1.0; 
stroke:#FFFFFF; stroke-width:0; stroke-opacity:1; 
stroke-linecap:round; stroke-linejoin:round;">
<circle cx="33374" cy="9374.02" r="590.551" /> 
</g>
<g style="fill:#FFFFFF; fill-opacity:1.0; 
stroke:#FFFFFF; stroke-width:39.3701; stroke-opacity:1; 
stroke-linecap:round; stroke-linejoin:round;">
</g>
<g style="fill:#FFFFFF; fill-opacity:1.0; 
stroke:#FFFFFF; stroke-width:0; stroke-opacity:1; 
stroke-linecap:round; stroke-linejoin:round;">
<circle cx="29374" cy="9374.02" r="590.551" /> 
</g>
<g style="fill:#FFFFFF; fill-opacity:1.0; 
stroke:#FFFFFF; stroke-width:39.3701; stroke-opacity:1; 
stroke-linecap:round; stroke-linejoin:round;">
</g>
<g style="fill:#FFFFFF; fill-opacity:1.0; 
stroke:#FFFFFF; stroke-width:0; stroke-opacity:1; 
stroke-linecap:round; stroke-linejoin:round;">
<circle cx="25374" cy="9374.02" r="590.551" /> 
</g>
<g style="fill:#FFFFFF; fill-opacity:1.0; 
stroke:#FFFFFF; stroke-width:39.3701; stroke-opacity:1; 
stroke-linecap:round; stroke-linejoin:round;">
</g>
<g style="fill:#FFFFFF; fill-opacity:1.0; 
stroke:#FFFFFF; stroke-width:0; stroke-opacity:1; 
stroke-linecap:round; stroke-linejoin:round;">
<circle cx="17374" cy="9374.02" r="590.551" /> 
</g>
<g style="fill:#FFFFFF; fill-opacity:1.0; 
stroke:#FFFFFF; stroke-width:39.3701; stroke-opacity:1; 
stroke-linecap:round; stroke-linejoin:round;">
</g>
<g style="fill:#FFFFFF; fill-opacity:1.0; 
stroke:#FFFFFF; stroke-width:0; stroke-opacity:1; 
stroke-linecap:round; stroke-linejoin:round;">
<circle cx="13374" cy="9374.02" r="590.551" /> 
</g>
<g style="fill:#FFFFFF; fill-opacity:1.0; 
stroke:#FFFFFF; stroke-width:39.3701; stroke-opacity:1; 
stroke-linecap:round; stroke-linejoin:round;">
</g>
<g style="fill:#FFFFFF; fill-opacity:1.0; 
stroke:#FFFFFF; stroke-width:0; stroke-opacity:1; 
stroke-linecap:round; stroke-linejoin:round;">
<circle cx="9374.02" cy="9374.02" r="590.551" /> 
</g>
<g style="fill:#FFFFFF; fill-opacity:1.0; 
stroke:#FFFFFF; stroke-width:39.3701; stroke-opacity:1; 
stroke-linecap:round; stroke-linejoin:round;">
</g>
<g style="fill:#000000; fill-opacity:1.0; 
stroke:#000000; stroke-width:39.3701; stroke-opacity:1; 
stroke-linecap:round; stroke-linejoin:round;">
</g> 
</svg>
